<?xml version="1.0" encoding="UTF-8" standalone="no"?>
<!DOCTYPE svg PUBLIC "-//W3C//DTD SVG 1.1//EN"
 "http://www.w3.org/Graphics/SVG/1.1/DTD/svg11.dtd">
<!-- Generated by graphviz version 2.40.1 (20161225.0304)
 -->
<!-- Title: %3 Pages: 1 -->
<svg width="1287pt" height="369pt"
 viewBox="0.00 0.00 1287.00 369.00" xmlns="http://www.w3.org/2000/svg" xmlns:xlink="http://www.w3.org/1999/xlink">
<g id="graph0" class="graph" transform="scale(1 1) rotate(0) translate(4 365)">
<title>%3</title>
<polygon fill="#ffffff" stroke="transparent" points="-4,4 -4,-365 1283,-365 1283,4 -4,4"/>
<!-- ArraySchema -->
<g id="node1" class="node">
<title>ArraySchema</title>
<polygon fill="#8ccbf2" stroke="transparent" points="8,-325 8,-346 184,-346 184,-325 8,-325"/>
<polygon fill="none" stroke="#8ccbf2" points="8,-325 8,-346 184,-346 184,-325 8,-325"/>
<text text-anchor="start" x="50.5" y="-332.8" font-family="mono" font-weight="bold" font-size="14.00" fill="#c83500">ArraySchema</text>
<polygon fill="#ddeeff" stroke="transparent" points="8,-304 8,-325 184,-325 184,-304 8,-304"/>
<polygon fill="none" stroke="#8ccbf2" points="8,-304 8,-325 184,-325 184,-304 8,-304"/>
<text text-anchor="start" x="11" y="-311.8" font-family="mono" font-size="14.00" fill="#c83500">minItems</text>
<text text-anchor="start" x="78" y="-311.8" font-family="Times,serif" font-size="14.00" fill="#000000"> : </text>
<text text-anchor="start" x="90" y="-311.8" font-family="mono" font-size="14.00" fill="#c83500">unsignedInt</text>
<polygon fill="#ddeeff" stroke="transparent" points="8,-283 8,-304 184,-304 184,-283 8,-283"/>
<polygon fill="none" stroke="#8ccbf2" points="8,-283 8,-304 184,-304 184,-283 8,-283"/>
<text text-anchor="start" x="11" y="-290.8" font-family="mono" font-size="14.00" fill="#c83500">maxItems</text>
<text text-anchor="start" x="78" y="-290.8" font-family="Times,serif" font-size="14.00" fill="#000000"> : </text>
<text text-anchor="start" x="90" y="-290.8" font-family="mono" font-size="14.00" fill="#c83500">unsignedInt</text>
</g>
<!-- DataSchema -->
<g id="node3" class="node">
<title>DataSchema</title>
<polygon fill="#8ccbf2" stroke="transparent" points="400,-193 400,-214 809,-214 809,-193 400,-193"/>
<polygon fill="none" stroke="#8ccbf2" points="400,-193 400,-214 809,-214 809,-193 400,-193"/>
<text text-anchor="start" x="563" y="-200.8" font-family="mono" font-weight="bold" font-size="14.00" fill="#c83500">DataSchema</text>
<polygon fill="#ddeeff" stroke="transparent" points="400,-172 400,-193 809,-193 809,-172 400,-172"/>
<polygon fill="none" stroke="#8ccbf2" points="400,-172 400,-193 809,-193 809,-172 400,-172"/>
<text text-anchor="start" x="403" y="-179.8" font-family="mono" font-size="14.00" fill="#c83500">@type</text>
<text text-anchor="start" x="445" y="-179.8" font-family="Times,serif" font-size="14.00" fill="#000000"> : </text>
<text text-anchor="start" x="457" y="-179.8" font-family="Times,serif" font-style="italic" font-size="14.00" fill="#000000">(Array of) </text>
<text text-anchor="start" x="516" y="-179.8" font-family="mono" font-size="14.00" fill="#c83500">string</text>
<polygon fill="#ddeeff" stroke="transparent" points="400,-151 400,-172 809,-172 809,-151 400,-151"/>
<polygon fill="none" stroke="#8ccbf2" points="400,-151 400,-172 809,-172 809,-151 400,-151"/>
<text text-anchor="start" x="403" y="-158.8" font-family="mono" font-size="14.00" fill="#c83500">title</text>
<text text-anchor="start" x="445" y="-158.8" font-family="Times,serif" font-size="14.00" fill="#000000"> : Map of </text>
<text text-anchor="start" x="501" y="-158.8" font-family="mono" font-size="14.00" fill="#c83500">string</text>
<text text-anchor="start" x="551" y="-158.8" font-family="mono" font-size="14.00" fill="#c83500">titles</text>
<text text-anchor="start" x="601" y="-158.8" font-family="Times,serif" font-size="14.00" fill="#000000"> : Map of </text>
<text text-anchor="start" x="657" y="-158.8" font-family="mono" font-size="14.00" fill="#c83500">string</text>
<polygon fill="#ddeeff" stroke="transparent" points="400,-130 400,-151 809,-151 809,-130 400,-130"/>
<polygon fill="none" stroke="#8ccbf2" points="400,-130 400,-151 809,-151 809,-130 400,-130"/>
<text text-anchor="start" x="403" y="-137.8" font-family="mono" font-size="14.00" fill="#c83500">description</text>
<text text-anchor="start" x="494" y="-137.8" font-family="Times,serif" font-size="14.00" fill="#000000"> : Map of </text>
<text text-anchor="start" x="550" y="-137.8" font-family="mono" font-size="14.00" fill="#c83500">string</text>
<text text-anchor="start" x="600" y="-137.8" font-family="mono" font-size="14.00" fill="#c83500">descriptions</text>
<text text-anchor="start" x="700" y="-137.8" font-family="Times,serif" font-size="14.00" fill="#000000"> : Map of </text>
<text text-anchor="start" x="756" y="-137.8" font-family="mono" font-size="14.00" fill="#c83500">string</text>
<polygon fill="#ddeeff" stroke="transparent" points="400,-109 400,-130 809,-130 809,-109 400,-109"/>
<polygon fill="none" stroke="#8ccbf2" points="400,-109 400,-130 809,-130 809,-109 400,-109"/>
<text text-anchor="start" x="403" y="-116.8" font-family="mono" font-size="14.00" fill="#c83500">unit</text>
<text text-anchor="start" x="437" y="-116.8" font-family="Times,serif" font-size="14.00" fill="#000000"> : (Array of) </text>
<text text-anchor="start" x="508" y="-116.8" font-family="mono" font-size="14.00" fill="#c83500">string</text>
<polygon fill="#ddeeff" stroke="transparent" points="400,-88 400,-109 809,-109 809,-88 400,-88"/>
<polygon fill="none" stroke="#8ccbf2" points="400,-88 400,-109 809,-109 809,-88 400,-88"/>
<text text-anchor="start" x="403" y="-95.8" font-family="mono" font-size="14.00" fill="#c83500">readOnly</text>
<text text-anchor="start" x="470" y="-95.8" font-family="Times,serif" font-size="14.00" fill="#000000"> : </text>
<text text-anchor="start" x="482" y="-95.8" font-family="mono" font-size="14.00" fill="#c83500">boolean</text>
<polygon fill="#ddeeff" stroke="transparent" points="400,-67 400,-88 809,-88 809,-67 400,-67"/>
<polygon fill="none" stroke="#8ccbf2" points="400,-67 400,-88 809,-88 809,-67 400,-67"/>
<text text-anchor="start" x="403" y="-74.8" font-family="mono" font-size="14.00" fill="#c83500">writeOnly</text>
<text text-anchor="start" x="478" y="-74.8" font-family="Times,serif" font-size="14.00" fill="#000000"> : </text>
<text text-anchor="start" x="490" y="-74.8" font-family="mono" font-size="14.00" fill="#c83500">boolean</text>
<polygon fill="#ddeeff" stroke="transparent" points="400,-46 400,-67 809,-67 809,-46 400,-46"/>
<polygon fill="none" stroke="#8ccbf2" points="400,-46 400,-67 809,-67 809,-46 400,-46"/>
<text text-anchor="start" x="403" y="-53.8" font-family="mono" font-size="14.00" fill="#c83500">format</text>
<text text-anchor="start" x="453" y="-53.8" font-family="Times,serif" font-size="14.00" fill="#000000"> : </text>
<text text-anchor="start" x="465" y="-53.8" font-family="mono" font-size="14.00" fill="#c83500">string</text>
<polygon fill="#ddeeff" stroke="transparent" points="400,-25 400,-46 809,-46 809,-25 400,-25"/>
<polygon fill="none" stroke="#8ccbf2" points="400,-25 400,-46 809,-46 809,-25 400,-25"/>
<text text-anchor="start" x="403" y="-32.8" font-family="mono" font-size="14.00" fill="#c83500">contentEncoding</text>
<text text-anchor="start" x="527" y="-32.8" font-family="Times,serif" font-size="14.00" fill="#000000"> : </text>
<text text-anchor="start" x="539" y="-32.8" font-family="mono" font-size="14.00" fill="#c83500">string</text>
<polygon fill="#ddeeff" stroke="transparent" points="400,-4 400,-25 809,-25 809,-4 400,-4"/>
<polygon fill="none" stroke="#8ccbf2" points="400,-4 400,-25 809,-25 809,-4 400,-4"/>
<text text-anchor="start" x="403" y="-11.8" font-family="mono" font-size="14.00" fill="#c83500">contentMediaType</text>
<text text-anchor="start" x="536" y="-11.8" font-family="Times,serif" font-size="14.00" fill="#000000"> : </text>
<text text-anchor="start" x="548" y="-11.8" font-family="mono" font-size="14.00" fill="#c83500">string</text>
</g>
<!-- ArraySchema&#45;&gt;DataSchema -->
<g id="edge3" class="edge">
<title>ArraySchema&#45;&gt;DataSchema</title>
<path fill="none" stroke="#000000" d="M122.2019,-279.4045C135.0809,-264.1163 151.7513,-247.2229 170,-236 233.8687,-196.7211 310.4885,-169.0736 381.4554,-149.8458"/>
<polygon fill="#000000" stroke="#000000" points="382.668,-153.1449 391.4297,-147.1882 380.8657,-146.3809 382.668,-153.1449"/>
<text text-anchor="start" x="170" y="-239.8" font-family="mono" font-size="14.00" fill="#c83500">items</text>
<text text-anchor="middle" x="380.4297" y="-150.9882" font-family="Times,serif" font-size="14.00" fill="#000000">0..*</text>
</g>
<!-- ArraySchema&#45;&gt;DataSchema -->
<g id="edge4" class="edge">
<title>ArraySchema&#45;&gt;DataSchema</title>
<path fill="none" stroke="#000000" d="M176.4207,-279.4264C184.7049,-275.8644 193.0108,-272.3348 201,-269 259.4403,-244.6065 322.9905,-218.9673 381.9815,-195.5352"/>
<polygon fill="#ffffff" stroke="#000000" points="383.4048,-198.736 391.4085,-191.794 380.8226,-192.2296 383.4048,-198.736"/>
</g>
<!-- BooleanSchema -->
<g id="node2" class="node">
<title>BooleanSchema</title>
<polygon fill="#8ccbf2" stroke="transparent" points="218,-304 218,-325 332,-325 332,-304 218,-304"/>
<polygon fill="none" stroke="#8ccbf2" points="218,-304 218,-325 332,-325 332,-304 218,-304"/>
<text text-anchor="start" x="221" y="-311.8" font-family="mono" font-weight="bold" font-size="14.00" fill="#c83500">BooleanSchema</text>
</g>
<!-- BooleanSchema&#45;&gt;DataSchema -->
<g id="edge5" class="edge">
<title>BooleanSchema&#45;&gt;DataSchema</title>
<path fill="none" stroke="#000000" d="M303.9082,-296.8994C331.4381,-279.6619 375.3751,-252.1511 421.2295,-223.4399"/>
<polygon fill="#ffffff" stroke="#000000" points="423.1921,-226.3406 429.8103,-218.0671 419.4772,-220.4076 423.1921,-226.3406"/>
</g>
<!-- DataSchema&#45;&gt;DataSchema -->
<g id="edge1" class="edge">
<title>DataSchema&#45;&gt;DataSchema</title>
<path fill="none" stroke="#000000" d="M816.786,-125.499C827.9135,-121.4352 834.5,-115.9355 834.5,-109 834.5,-104.3402 831.5268,-100.3285 826.2007,-96.9651"/>
<polygon fill="#000000" stroke="#000000" points="827.3213,-93.623 816.786,-92.501 824.3222,-99.9479 827.3213,-93.623"/>
<text text-anchor="start" x="834.5" y="-105.3" font-family="mono" font-size="14.00" fill="#c83500">oneOf</text>
<text text-anchor="middle" x="827.786" y="-81.301" font-family="Times,serif" font-size="14.00" fill="#000000">0..*</text>
</g>
<!-- IntegerSchema -->
<g id="node4" class="node">
<title>IntegerSchema</title>
<polygon fill="#8ccbf2" stroke="transparent" points="367,-336 367,-357 526,-357 526,-336 367,-336"/>
<polygon fill="none" stroke="#8ccbf2" points="367,-336 367,-357 526,-357 526,-336 367,-336"/>
<text text-anchor="start" x="392.5" y="-343.8" font-family="mono" font-weight="bold" font-size="14.00" fill="#c83500">IntegerSchema</text>
<polygon fill="#ddeeff" stroke="transparent" points="367,-315 367,-336 526,-336 526,-315 367,-315"/>
<polygon fill="none" stroke="#8ccbf2" points="367,-315 367,-336 526,-336 526,-315 367,-315"/>
<text text-anchor="start" x="370" y="-322.8" font-family="mono" font-size="14.00" fill="#c83500">multipleOf</text>
<text text-anchor="start" x="453" y="-322.8" font-family="Times,serif" font-size="14.00" fill="#000000"> : </text>
<text text-anchor="start" x="465" y="-322.8" font-family="mono" font-size="14.00" fill="#c83500">integer</text>
<polygon fill="#ddeeff" stroke="transparent" points="367,-294 367,-315 526,-315 526,-294 367,-294"/>
<polygon fill="none" stroke="#8ccbf2" points="367,-294 367,-315 526,-315 526,-294 367,-294"/>
<text text-anchor="start" x="370" y="-301.8" font-family="mono" font-size="14.00" fill="#c83500">minimum</text>
<text text-anchor="start" x="428" y="-301.8" font-family="Times,serif" font-size="14.00" fill="#000000"> : </text>
<text text-anchor="start" x="440" y="-301.8" font-family="mono" font-size="14.00" fill="#c83500">integer</text>
<polygon fill="#ddeeff" stroke="transparent" points="367,-273 367,-294 526,-294 526,-273 367,-273"/>
<polygon fill="none" stroke="#8ccbf2" points="367,-273 367,-294 526,-294 526,-273 367,-273"/>
<text text-anchor="start" x="370" y="-280.8" font-family="mono" font-size="14.00" fill="#c83500">maximum</text>
<text text-anchor="start" x="428" y="-280.8" font-family="Times,serif" font-size="14.00" fill="#000000"> : </text>
<text text-anchor="start" x="440" y="-280.8" font-family="mono" font-size="14.00" fill="#c83500">integer</text>
</g>
<!-- IntegerSchema&#45;&gt;DataSchema -->
<g id="edge6" class="edge">
<title>IntegerSchema&#45;&gt;DataSchema</title>
<path fill="none" stroke="#000000" d="M481.4583,-268.7696C491.2845,-255.9582 502.4178,-241.4427 513.8694,-226.512"/>
<polygon fill="#ffffff" stroke="#000000" points="516.9491,-228.2477 520.2579,-218.1827 511.3947,-223.9875 516.9491,-228.2477"/>
</g>
<!-- NullSchema -->
<g id="node5" class="node">
<title>NullSchema</title>
<polygon fill="#8ccbf2" stroke="transparent" points="560,-304 560,-325 649,-325 649,-304 560,-304"/>
<polygon fill="none" stroke="#8ccbf2" points="560,-304 560,-325 649,-325 649,-304 560,-304"/>
<text text-anchor="start" x="563" y="-311.8" font-family="mono" font-weight="bold" font-size="14.00" fill="#c83500">NullSchema</text>
</g>
<!-- NullSchema&#45;&gt;DataSchema -->
<g id="edge7" class="edge">
<title>NullSchema&#45;&gt;DataSchema</title>
<path fill="none" stroke="#000000" d="M604,-296.7189C604,-280.4785 604,-255.2221 604,-228.4436"/>
<polygon fill="#ffffff" stroke="#000000" points="607.5001,-228.1215 604,-218.1215 600.5001,-228.1216 607.5001,-228.1215"/>
</g>
<!-- NumberSchema -->
<g id="node6" class="node">
<title>NumberSchema</title>
<polygon fill="#8ccbf2" stroke="transparent" points="683,-336 683,-357 834,-357 834,-336 683,-336"/>
<polygon fill="none" stroke="#8ccbf2" points="683,-336 683,-357 834,-357 834,-336 683,-336"/>
<text text-anchor="start" x="708.5" y="-343.8" font-family="mono" font-weight="bold" font-size="14.00" fill="#c83500">NumberSchema</text>
<polygon fill="#ddeeff" stroke="transparent" points="683,-315 683,-336 834,-336 834,-315 683,-315"/>
<polygon fill="none" stroke="#8ccbf2" points="683,-315 683,-336 834,-336 834,-315 683,-315"/>
<text text-anchor="start" x="686" y="-322.8" font-family="mono" font-size="14.00" fill="#c83500">minimum</text>
<text text-anchor="start" x="744" y="-322.8" font-family="Times,serif" font-size="14.00" fill="#000000"> : </text>
<text text-anchor="start" x="756" y="-322.8" font-family="mono" font-size="14.00" fill="#c83500">double</text>
<polygon fill="#ddeeff" stroke="transparent" points="683,-294 683,-315 834,-315 834,-294 683,-294"/>
<polygon fill="none" stroke="#8ccbf2" points="683,-294 683,-315 834,-315 834,-294 683,-294"/>
<text text-anchor="start" x="686" y="-301.8" font-family="mono" font-size="14.00" fill="#c83500">maximum</text>
<text text-anchor="start" x="744" y="-301.8" font-family="Times,serif" font-size="14.00" fill="#000000"> : </text>
<text text-anchor="start" x="756" y="-301.8" font-family="mono" font-size="14.00" fill="#c83500">double</text>
<polygon fill="#ddeeff" stroke="transparent" points="683,-273 683,-294 834,-294 834,-273 683,-273"/>
<polygon fill="none" stroke="#8ccbf2" points="683,-273 683,-294 834,-294 834,-273 683,-273"/>
<text text-anchor="start" x="686" y="-280.8" font-family="mono" font-size="14.00" fill="#c83500">multipleOf</text>
<text text-anchor="start" x="769" y="-280.8" font-family="Times,serif" font-size="14.00" fill="#000000"> : </text>
<text text-anchor="start" x="781" y="-280.8" font-family="mono" font-size="14.00" fill="#c83500">double</text>
</g>
<!-- NumberSchema&#45;&gt;DataSchema -->
<g id="edge8" class="edge">
<title>NumberSchema&#45;&gt;DataSchema</title>
<path fill="none" stroke="#000000" d="M723.4394,-268.7696C713.8619,-255.9582 703.0105,-241.4427 691.8488,-226.512"/>
<polygon fill="#ffffff" stroke="#000000" points="694.4129,-224.0964 685.622,-218.1827 688.8064,-228.2877 694.4129,-224.0964"/>
</g>
<!-- ObjectSchema -->
<g id="node7" class="node">
<title>ObjectSchema</title>
<polygon fill="#8ccbf2" stroke="transparent" points="868,-315 868,-336 1053,-336 1053,-315 868,-315"/>
<polygon fill="none" stroke="#8ccbf2" points="868,-315 868,-336 1053,-336 1053,-315 868,-315"/>
<text text-anchor="start" x="910.5" y="-322.8" font-family="mono" font-weight="bold" font-size="14.00" fill="#c83500">ObjectSchema</text>
<polygon fill="#ddeeff" stroke="transparent" points="868,-294 868,-315 1053,-315 1053,-294 868,-294"/>
<polygon fill="none" stroke="#8ccbf2" points="868,-294 868,-315 1053,-315 1053,-294 868,-294"/>
<text text-anchor="start" x="871" y="-301.8" font-family="mono" font-size="14.00" fill="#c83500">required</text>
<text text-anchor="start" x="938" y="-301.8" font-family="Times,serif" font-size="14.00" fill="#000000"> : Array of </text>
<text text-anchor="start" x="1000" y="-301.8" font-family="mono" font-size="14.00" fill="#c83500">string</text>
</g>
<!-- ObjectSchema&#45;&gt;DataSchema -->
<g id="edge2" class="edge">
<title>ObjectSchema&#45;&gt;DataSchema</title>
<path fill="none" stroke="#000000" d="M904.6982,-289.9027C880.7932,-278.6161 852.6967,-264.7568 828,-251 812.3877,-242.3035 796.3605,-232.9799 780.4031,-223.4194"/>
<polygon fill="#000000" stroke="#000000" points="781.9202,-220.2473 771.5481,-218.086 778.3086,-226.2437 781.9202,-220.2473"/>
<text text-anchor="start" x="828" y="-239.8" font-family="mono" font-size="14.00" fill="#c83500">properties</text>
<text text-anchor="middle" x="760.5481" y="-221.886" font-family="Times,serif" font-size="14.00" fill="#000000">0..*</text>
</g>
<!-- ObjectSchema&#45;&gt;DataSchema -->
<g id="edge9" class="edge">
<title>ObjectSchema&#45;&gt;DataSchema</title>
<path fill="none" stroke="#000000" d="M949.3666,-289.6776C941.0775,-272.5621 928.1012,-250.5195 911,-236 885.6882,-214.5095 856.2359,-196.2621 825.7854,-180.8861"/>
<polygon fill="#ffffff" stroke="#000000" points="827.2573,-177.7094 816.7417,-176.4162 824.1557,-183.9848 827.2573,-177.7094"/>
</g>
<!-- StringSchema -->
<g id="node8" class="node">
<title>StringSchema</title>
<polygon fill="#8ccbf2" stroke="transparent" points="1087,-325 1087,-346 1271,-346 1271,-325 1087,-325"/>
<polygon fill="none" stroke="#8ccbf2" points="1087,-325 1087,-346 1271,-346 1271,-325 1087,-325"/>
<text text-anchor="start" x="1129" y="-332.8" font-family="mono" font-weight="bold" font-size="14.00" fill="#c83500">StringSchema</text>
<polygon fill="#ddeeff" stroke="transparent" points="1087,-304 1087,-325 1271,-325 1271,-304 1087,-304"/>
<polygon fill="none" stroke="#8ccbf2" points="1087,-304 1087,-325 1271,-325 1271,-304 1087,-304"/>
<text text-anchor="start" x="1090" y="-311.8" font-family="mono" font-size="14.00" fill="#c83500">minLength</text>
<text text-anchor="start" x="1165" y="-311.8" font-family="Times,serif" font-size="14.00" fill="#000000"> : </text>
<text text-anchor="start" x="1177" y="-311.8" font-family="mono" font-size="14.00" fill="#c83500">unsignedInt</text>
<polygon fill="#ddeeff" stroke="transparent" points="1087,-283 1087,-304 1271,-304 1271,-283 1087,-283"/>
<polygon fill="none" stroke="#8ccbf2" points="1087,-283 1087,-304 1271,-304 1271,-283 1087,-283"/>
<text text-anchor="start" x="1090" y="-290.8" font-family="mono" font-size="14.00" fill="#c83500">maxLength</text>
<text text-anchor="start" x="1165" y="-290.8" font-family="Times,serif" font-size="14.00" fill="#000000"> : </text>
<text text-anchor="start" x="1177" y="-290.8" font-family="mono" font-size="14.00" fill="#c83500">unsignedInt</text>
</g>
<!-- StringSchema&#45;&gt;DataSchema -->
<g id="edge10" class="edge">
<title>StringSchema&#45;&gt;DataSchema</title>
<path fill="none" stroke="#000000" d="M1096.5158,-279.4889C1087.6004,-275.8605 1078.6339,-272.2996 1070,-269 991.2676,-238.911 904.1054,-208.2806 826.6671,-181.9832"/>
<polygon fill="#ffffff" stroke="#000000" points="827.3802,-178.5293 816.7859,-178.6332 825.1326,-185.1587 827.3802,-178.5293"/>
</g>
</g>
</svg>
