<?xml version="1.0" encoding="UTF-8" standalone="no"?>
<!DOCTYPE svg PUBLIC "-//W3C//DTD SVG 1.1//EN"
 "http://www.w3.org/Graphics/SVG/1.1/DTD/svg11.dtd">
<!-- Generated by graphviz version 2.43.0 (0)
 -->
<!-- Title: %3 Pages: 1 -->
<svg width="534pt" height="306pt"
 viewBox="0.00 0.00 533.50 306.00" xmlns="http://www.w3.org/2000/svg" xmlns:xlink="http://www.w3.org/1999/xlink">
<g id="graph0" class="graph" transform="scale(1 1) rotate(0) translate(4 302)">
<title>%3</title>
<polygon fill="white" stroke="transparent" points="-4,4 -4,-302 529.5,-302 529.5,4 -4,4"/>
<!-- AdditionalExpectedResponse -->
<g id="node1" class="node">
<title>AdditionalExpectedResponse</title>
<polygon fill="#8ccbf2" stroke="transparent" points="8.5,-67 8.5,-88 229.5,-88 229.5,-67 8.5,-67"/>
<polygon fill="none" stroke="#8ccbf2" points="8.5,-67 8.5,-88 229.5,-88 229.5,-67 8.5,-67"/>
<text text-anchor="start" x="11.5" y="-74.8" font-family="mono" font-weight="bold" font-size="14.00" fill="#c83500">AdditionalExpectedResponse</text>
<polygon fill="#ddeeff" stroke="transparent" points="8.5,-46 8.5,-67 229.5,-67 229.5,-46 8.5,-46"/>
<polygon fill="none" stroke="#8ccbf2" points="8.5,-46 8.5,-67 229.5,-67 229.5,-46 8.5,-46"/>
<text text-anchor="start" x="11.5" y="-53.8" font-family="mono" font-size="14.00" fill="#c83500">schema</text>
<text text-anchor="start" x="61.5" y="-53.8" font-family="Times,serif" font-size="14.00"> : </text>
<text text-anchor="start" x="75.5" y="-53.8" font-family="mono" font-size="14.00" fill="#c83500">string</text>
<polygon fill="#ddeeff" stroke="transparent" points="8.5,-25 8.5,-46 229.5,-46 229.5,-25 8.5,-25"/>
<polygon fill="none" stroke="#8ccbf2" points="8.5,-25 8.5,-46 229.5,-46 229.5,-25 8.5,-25"/>
<text text-anchor="start" x="11.5" y="-32.8" font-family="mono" font-size="14.00" fill="#c83500">success</text>
<text text-anchor="start" x="69.5" y="-32.8" font-family="Times,serif" font-size="14.00"> : </text>
<text text-anchor="start" x="83.5" y="-32.8" font-family="mono" font-size="14.00" fill="#c83500">boolean</text>
<polygon fill="#ddeeff" stroke="transparent" points="8.5,-4 8.5,-25 229.5,-25 229.5,-4 8.5,-4"/>
<polygon fill="none" stroke="#8ccbf2" points="8.5,-4 8.5,-25 229.5,-25 229.5,-4 8.5,-4"/>
<text text-anchor="start" x="11.5" y="-11.8" font-family="mono" font-size="14.00" fill="#c83500">contentType</text>
<text text-anchor="start" x="102.5" y="-11.8" font-family="Times,serif" font-size="14.00"> : </text>
<text text-anchor="start" x="116.5" y="-11.8" font-family="mono" font-size="14.00" fill="#c83500">string</text>
</g>
<!-- ExpectedResponse -->
<g id="node2" class="node">
<title>ExpectedResponse</title>
<polygon fill="#8ccbf2" stroke="transparent" points="263.5,-46 263.5,-67 517.5,-67 517.5,-46 263.5,-46"/>
<polygon fill="none" stroke="#8ccbf2" points="263.5,-46 263.5,-67 517.5,-67 517.5,-46 263.5,-46"/>
<text text-anchor="start" x="324" y="-53.8" font-family="mono" font-weight="bold" font-size="14.00" fill="#c83500">ExpectedResponse</text>
<polygon fill="#ddeeff" stroke="transparent" points="263.5,-25 263.5,-46 517.5,-46 517.5,-25 263.5,-25"/>
<polygon fill="none" stroke="#8ccbf2" points="263.5,-25 263.5,-46 517.5,-46 517.5,-25 263.5,-25"/>
<text text-anchor="start" x="266.5" y="-32.8" font-family="mono" font-size="14.00" fill="#c83500">contentType</text>
<text text-anchor="start" x="357.5" y="-32.8" font-family="Times,serif" font-size="14.00"> : </text>
<text text-anchor="start" x="371.5" y="-32.8" font-family="mono" font-size="14.00" fill="#c83500">string</text>
<text text-anchor="start" x="421.5" y="-32.8" font-family="Times,serif" font-size="14.00"> </text>
<text text-anchor="start" x="426.5" y="-32.8" font-family="Times,serif" font-style="italic" font-size="14.00">(mandatory)</text>
</g>
<!-- Form -->
<g id="node3" class="node">
<title>Form</title>
<polygon fill="#8ccbf2" stroke="transparent" points="149.5,-272.5 149.5,-293.5 359.5,-293.5 359.5,-272.5 149.5,-272.5"/>
<polygon fill="none" stroke="#8ccbf2" points="149.5,-272.5 149.5,-293.5 359.5,-293.5 359.5,-272.5 149.5,-272.5"/>
<text text-anchor="start" x="237.5" y="-280.3" font-family="mono" font-weight="bold" font-size="14.00" fill="#c83500">Form</text>
<polygon fill="#ddeeff" stroke="transparent" points="149.5,-251.5 149.5,-272.5 359.5,-272.5 359.5,-251.5 149.5,-251.5"/>
<polygon fill="none" stroke="#8ccbf2" points="149.5,-251.5 149.5,-272.5 359.5,-272.5 359.5,-251.5 149.5,-251.5"/>
<text text-anchor="start" x="152.5" y="-259.3" font-family="mono" font-size="14.00" fill="#c83500">contentType</text>
<text text-anchor="start" x="243.5" y="-259.3" font-family="Times,serif" font-size="14.00"> : </text>
<text text-anchor="start" x="257.5" y="-259.3" font-family="mono" font-size="14.00" fill="#c83500">string</text>
<polygon fill="#ddeeff" stroke="transparent" points="149.5,-230.5 149.5,-251.5 359.5,-251.5 359.5,-230.5 149.5,-230.5"/>
<polygon fill="none" stroke="#8ccbf2" points="149.5,-230.5 149.5,-251.5 359.5,-251.5 359.5,-230.5 149.5,-230.5"/>
<text text-anchor="start" x="152.5" y="-238.3" font-family="mono" font-size="14.00" fill="#c83500">contentCoding</text>
<text text-anchor="start" x="260.5" y="-238.3" font-family="Times,serif" font-size="14.00"> : </text>
<text text-anchor="start" x="274.5" y="-238.3" font-family="mono" font-size="14.00" fill="#c83500">string</text>
<polygon fill="#ddeeff" stroke="transparent" points="149.5,-209.5 149.5,-230.5 359.5,-230.5 359.5,-209.5 149.5,-209.5"/>
<polygon fill="none" stroke="#8ccbf2" points="149.5,-209.5 149.5,-230.5 359.5,-230.5 359.5,-209.5 149.5,-209.5"/>
<text text-anchor="start" x="152.5" y="-217.3" font-family="mono" font-size="14.00" fill="#c83500">op</text>
<text text-anchor="start" x="169.5" y="-217.3" font-family="Times,serif" font-size="14.00"> : (Array of) </text>
<text text-anchor="start" x="256.5" y="-217.3" font-family="mono" font-size="14.00" fill="#c83500">string</text>
<polygon fill="#ddeeff" stroke="transparent" points="149.5,-188.5 149.5,-209.5 359.5,-209.5 359.5,-188.5 149.5,-188.5"/>
<polygon fill="none" stroke="#8ccbf2" points="149.5,-188.5 149.5,-209.5 359.5,-209.5 359.5,-188.5 149.5,-188.5"/>
<text text-anchor="start" x="152.5" y="-196.3" font-family="mono" font-size="14.00" fill="#c83500">subprotocol</text>
<text text-anchor="start" x="243.5" y="-196.3" font-family="Times,serif" font-size="14.00"> : </text>
<text text-anchor="start" x="257.5" y="-196.3" font-family="mono" font-size="14.00" fill="#c83500">string</text>
<polygon fill="#ddeeff" stroke="transparent" points="149.5,-167.5 149.5,-188.5 359.5,-188.5 359.5,-167.5 149.5,-167.5"/>
<polygon fill="none" stroke="#8ccbf2" points="149.5,-167.5 149.5,-188.5 359.5,-188.5 359.5,-167.5 149.5,-167.5"/>
<text text-anchor="start" x="152.5" y="-175.3" font-family="mono" font-size="14.00" fill="#c83500">security</text>
<text text-anchor="start" x="219.5" y="-175.3" font-family="Times,serif" font-size="14.00"> : (Array of) </text>
<text text-anchor="start" x="306.5" y="-175.3" font-family="mono" font-size="14.00" fill="#c83500">string</text>
<polygon fill="#ddeeff" stroke="transparent" points="149.5,-146.5 149.5,-167.5 359.5,-167.5 359.5,-146.5 149.5,-146.5"/>
<polygon fill="none" stroke="#8ccbf2" points="149.5,-146.5 149.5,-167.5 359.5,-167.5 359.5,-146.5 149.5,-146.5"/>
<text text-anchor="start" x="152.5" y="-154.3" font-family="mono" font-size="14.00" fill="#c83500">scopes</text>
<text text-anchor="start" x="202.5" y="-154.3" font-family="Times,serif" font-size="14.00"> : (Array of) </text>
<text text-anchor="start" x="289.5" y="-154.3" font-family="mono" font-size="14.00" fill="#c83500">string</text>
</g>
<!-- Form&#45;&gt;AdditionalExpectedResponse -->
<g id="edge2" class="edge">
<title>Form&#45;&gt;AdditionalExpectedResponse</title>
<path fill="none" stroke="black" d="M183.92,-142.97C178.93,-136.98 174.08,-130.95 169.5,-125 163.64,-117.39 157.76,-109.11 152.17,-100.88"/>
<polygon fill="black" stroke="black" points="154.95,-98.73 146.48,-92.36 149.13,-102.62 154.95,-98.73"/>
<text text-anchor="start" x="169.5" y="-113.8" font-family="mono" font-size="14.00" fill="#c83500">additionalResponses</text>
<text text-anchor="middle" x="133.98" y="-96.16" font-family="Times,serif" font-size="14.00">0..*</text>
</g>
<!-- Form&#45;&gt;ExpectedResponse -->
<g id="edge1" class="edge">
<title>Form&#45;&gt;ExpectedResponse</title>
<path fill="none" stroke="black" d="M314.94,-142.83C332.66,-120.36 351.07,-97.01 365.28,-78.98"/>
<polygon fill="black" stroke="black" points="368.06,-81.12 371.5,-71.1 362.56,-76.78 368.06,-81.12"/>
<text text-anchor="start" x="338.5" y="-113.8" font-family="mono" font-size="14.00" fill="#c83500">response</text>
<text text-anchor="middle" x="357.5" y="-74.9" font-family="Times,serif" font-size="14.00">0..1</text>
</g>
<!-- Link -->
<g id="node4" class="node">
<title>Link</title>
<polygon fill="#8ccbf2" stroke="transparent" points="393.5,-251.5 393.5,-272.5 513.5,-272.5 513.5,-251.5 393.5,-251.5"/>
<polygon fill="none" stroke="#8ccbf2" points="393.5,-251.5 393.5,-272.5 513.5,-272.5 513.5,-251.5 393.5,-251.5"/>
<text text-anchor="start" x="436.5" y="-259.3" font-family="mono" font-weight="bold" font-size="14.00" fill="#c83500">Link</text>
<polygon fill="#ddeeff" stroke="transparent" points="393.5,-230.5 393.5,-251.5 513.5,-251.5 513.5,-230.5 393.5,-230.5"/>
<polygon fill="none" stroke="#8ccbf2" points="393.5,-230.5 393.5,-251.5 513.5,-251.5 513.5,-230.5 393.5,-230.5"/>
<text text-anchor="start" x="396.5" y="-238.3" font-family="mono" font-size="14.00" fill="#c83500">type</text>
<text text-anchor="start" x="430.5" y="-238.3" font-family="Times,serif" font-size="14.00"> : </text>
<text text-anchor="start" x="444.5" y="-238.3" font-family="mono" font-size="14.00" fill="#c83500">string</text>
<polygon fill="#ddeeff" stroke="transparent" points="393.5,-209.5 393.5,-230.5 513.5,-230.5 513.5,-209.5 393.5,-209.5"/>
<polygon fill="none" stroke="#8ccbf2" points="393.5,-209.5 393.5,-230.5 513.5,-230.5 513.5,-209.5 393.5,-209.5"/>
<text text-anchor="start" x="396.5" y="-217.3" font-family="mono" font-size="14.00" fill="#c83500">rel</text>
<text text-anchor="start" x="421.5" y="-217.3" font-family="Times,serif" font-size="14.00"> : </text>
<text text-anchor="start" x="435.5" y="-217.3" font-family="mono" font-size="14.00" fill="#c83500">string</text>
<polygon fill="#ddeeff" stroke="transparent" points="393.5,-188.5 393.5,-209.5 513.5,-209.5 513.5,-188.5 393.5,-188.5"/>
<polygon fill="none" stroke="#8ccbf2" points="393.5,-188.5 393.5,-209.5 513.5,-209.5 513.5,-188.5 393.5,-188.5"/>
<text text-anchor="start" x="396.5" y="-196.3" font-family="mono" font-size="14.00" fill="#c83500">anchor</text>
<text text-anchor="start" x="446.5" y="-196.3" font-family="Times,serif" font-size="14.00"> : </text>
<text text-anchor="start" x="460.5" y="-196.3" font-family="mono" font-size="14.00" fill="#c83500">anyURI</text>
<polygon fill="#ddeeff" stroke="transparent" points="393.5,-167.5 393.5,-188.5 513.5,-188.5 513.5,-167.5 393.5,-167.5"/>
<polygon fill="none" stroke="#8ccbf2" points="393.5,-167.5 393.5,-188.5 513.5,-188.5 513.5,-167.5 393.5,-167.5"/>
<text text-anchor="start" x="396.5" y="-175.3" font-family="mono" font-size="14.00" fill="#c83500">sizes</text>
<text text-anchor="start" x="438.5" y="-175.3" font-family="Times,serif" font-size="14.00"> : </text>
<text text-anchor="start" x="452.5" y="-175.3" font-family="mono" font-size="14.00" fill="#c83500">string</text>
</g>
</g>
</svg>
