<?xml version="1.0" encoding="UTF-8" standalone="no"?>
<!DOCTYPE svg PUBLIC "-//W3C//DTD SVG 1.1//EN"
 "http://www.w3.org/Graphics/SVG/1.1/DTD/svg11.dtd">
<!-- Generated by graphviz version 2.40.1 (20161225.0304)
 -->
<!-- Title: %3 Pages: 1 -->
<svg width="468pt" height="306pt"
 viewBox="0.00 0.00 467.50 306.00" xmlns="http://www.w3.org/2000/svg" xmlns:xlink="http://www.w3.org/1999/xlink">
<g id="graph0" class="graph" transform="scale(1 1) rotate(0) translate(4 302)">
<title>%3</title>
<polygon fill="#ffffff" stroke="transparent" points="-4,4 -4,-302 463.5,-302 463.5,4 -4,4"/>
<!-- AdditionalExpectedResponse -->
<g id="node1" class="node">
<title>AdditionalExpectedResponse</title>
<polygon fill="#8ccbf2" stroke="transparent" points="8,-67 8,-88 212,-88 212,-67 8,-67"/>
<polygon fill="none" stroke="#8ccbf2" points="8,-67 8,-88 212,-88 212,-67 8,-67"/>
<text text-anchor="start" x="11" y="-74.8" font-family="mono" font-weight="bold" font-size="14.00" fill="#c83500">AdditionalExpectedResponse</text>
<polygon fill="#ddeeff" stroke="transparent" points="8,-46 8,-67 212,-67 212,-46 8,-46"/>
<polygon fill="none" stroke="#8ccbf2" points="8,-46 8,-67 212,-67 212,-46 8,-46"/>
<text text-anchor="start" x="11" y="-53.8" font-family="mono" font-size="14.00" fill="#c83500">schema</text>
<text text-anchor="start" x="61" y="-53.8" font-family="Times,serif" font-size="14.00" fill="#000000"> : </text>
<text text-anchor="start" x="72" y="-53.8" font-family="mono" font-size="14.00" fill="#c83500">string</text>
<polygon fill="#ddeeff" stroke="transparent" points="8,-25 8,-46 212,-46 212,-25 8,-25"/>
<polygon fill="none" stroke="#8ccbf2" points="8,-25 8,-46 212,-46 212,-25 8,-25"/>
<text text-anchor="start" x="11" y="-32.8" font-family="mono" font-size="14.00" fill="#c83500">success</text>
<text text-anchor="start" x="62" y="-32.8" font-family="Times,serif" font-size="14.00" fill="#000000"> : </text>
<text text-anchor="start" x="73" y="-32.8" font-family="mono" font-size="14.00" fill="#c83500">boolean</text>
<polygon fill="#ddeeff" stroke="transparent" points="8,-4 8,-25 212,-25 212,-4 8,-4"/>
<polygon fill="none" stroke="#8ccbf2" points="8,-4 8,-25 212,-25 212,-4 8,-4"/>
<text text-anchor="start" x="11" y="-11.8" font-family="mono" font-size="14.00" fill="#c83500">contentType</text>
<text text-anchor="start" x="89" y="-11.8" font-family="Times,serif" font-size="14.00" fill="#000000"> : </text>
<text text-anchor="start" x="100" y="-11.8" font-family="mono" font-size="14.00" fill="#c83500">string</text>
</g>
<!-- ExpectedResponse -->
<g id="node2" class="node">
<title>ExpectedResponse</title>
<polygon fill="#8ccbf2" stroke="transparent" points="246,-46 246,-67 450,-67 450,-46 246,-46"/>
<polygon fill="none" stroke="#8ccbf2" points="246,-46 246,-67 450,-67 450,-46 246,-46"/>
<text text-anchor="start" x="283" y="-53.8" font-family="mono" font-weight="bold" font-size="14.00" fill="#c83500">ExpectedResponse</text>
<polygon fill="#ddeeff" stroke="transparent" points="246,-25 246,-46 450,-46 450,-25 246,-25"/>
<polygon fill="none" stroke="#8ccbf2" points="246,-25 246,-46 450,-46 450,-25 246,-25"/>
<text text-anchor="start" x="249" y="-32.8" font-family="mono" font-size="14.00" fill="#c83500">contentType</text>
<text text-anchor="start" x="327" y="-32.8" font-family="Times,serif" font-size="14.00" fill="#000000"> : </text>
<text text-anchor="start" x="338" y="-32.8" font-family="mono" font-size="14.00" fill="#c83500">string</text>
<text text-anchor="start" x="373" y="-32.8" font-family="Times,serif" font-size="14.00" fill="#000000"> </text>
<text text-anchor="start" x="377" y="-32.8" font-family="Times,serif" font-style="italic" font-size="14.00" fill="#000000">(mandatory)</text>
</g>
<!-- Form -->
<g id="node3" class="node">
<title>Form</title>
<polygon fill="#8ccbf2" stroke="transparent" points="148,-272.5 148,-293.5 310,-293.5 310,-272.5 148,-272.5"/>
<polygon fill="none" stroke="#8ccbf2" points="148,-272.5 148,-293.5 310,-293.5 310,-272.5 148,-272.5"/>
<text text-anchor="start" x="211" y="-280.3" font-family="mono" font-weight="bold" font-size="14.00" fill="#c83500">Form</text>
<polygon fill="#ddeeff" stroke="transparent" points="148,-251.5 148,-272.5 310,-272.5 310,-251.5 148,-251.5"/>
<polygon fill="none" stroke="#8ccbf2" points="148,-251.5 148,-272.5 310,-272.5 310,-251.5 148,-251.5"/>
<text text-anchor="start" x="151" y="-259.3" font-family="mono" font-size="14.00" fill="#c83500">contentType</text>
<text text-anchor="start" x="229" y="-259.3" font-family="Times,serif" font-size="14.00" fill="#000000"> : </text>
<text text-anchor="start" x="240" y="-259.3" font-family="mono" font-size="14.00" fill="#c83500">string</text>
<polygon fill="#ddeeff" stroke="transparent" points="148,-230.5 148,-251.5 310,-251.5 310,-230.5 148,-230.5"/>
<polygon fill="none" stroke="#8ccbf2" points="148,-230.5 148,-251.5 310,-251.5 310,-230.5 148,-230.5"/>
<text text-anchor="start" x="151" y="-238.3" font-family="mono" font-size="14.00" fill="#c83500">contentCoding</text>
<text text-anchor="start" x="242" y="-238.3" font-family="Times,serif" font-size="14.00" fill="#000000"> : </text>
<text text-anchor="start" x="253" y="-238.3" font-family="mono" font-size="14.00" fill="#c83500">string</text>
<polygon fill="#ddeeff" stroke="transparent" points="148,-209.5 148,-230.5 310,-230.5 310,-209.5 148,-209.5"/>
<polygon fill="none" stroke="#8ccbf2" points="148,-209.5 148,-230.5 310,-230.5 310,-209.5 148,-209.5"/>
<text text-anchor="start" x="151" y="-217.3" font-family="mono" font-size="14.00" fill="#c83500">op</text>
<text text-anchor="start" x="167" y="-217.3" font-family="Times,serif" font-size="14.00" fill="#000000"> : (Array of) </text>
<text text-anchor="start" x="239" y="-217.3" font-family="mono" font-size="14.00" fill="#c83500">string</text>
<polygon fill="#ddeeff" stroke="transparent" points="148,-188.5 148,-209.5 310,-209.5 310,-188.5 148,-188.5"/>
<polygon fill="none" stroke="#8ccbf2" points="148,-188.5 148,-209.5 310,-209.5 310,-188.5 148,-188.5"/>
<text text-anchor="start" x="151" y="-196.3" font-family="mono" font-size="14.00" fill="#c83500">subprotocol</text>
<text text-anchor="start" x="224" y="-196.3" font-family="Times,serif" font-size="14.00" fill="#000000"> : </text>
<text text-anchor="start" x="235" y="-196.3" font-family="mono" font-size="14.00" fill="#c83500">string</text>
<polygon fill="#ddeeff" stroke="transparent" points="148,-167.5 148,-188.5 310,-188.5 310,-167.5 148,-167.5"/>
<polygon fill="none" stroke="#8ccbf2" points="148,-167.5 148,-188.5 310,-188.5 310,-167.5 148,-167.5"/>
<text text-anchor="start" x="151" y="-175.3" font-family="mono" font-size="14.00" fill="#c83500">security</text>
<text text-anchor="start" x="200" y="-175.3" font-family="Times,serif" font-size="14.00" fill="#000000"> : (Array of) </text>
<text text-anchor="start" x="272" y="-175.3" font-family="mono" font-size="14.00" fill="#c83500">string</text>
<polygon fill="#ddeeff" stroke="transparent" points="148,-146.5 148,-167.5 310,-167.5 310,-146.5 148,-146.5"/>
<polygon fill="none" stroke="#8ccbf2" points="148,-146.5 148,-167.5 310,-167.5 310,-146.5 148,-146.5"/>
<text text-anchor="start" x="151" y="-154.3" font-family="mono" font-size="14.00" fill="#c83500">scopes</text>
<text text-anchor="start" x="196" y="-154.3" font-family="Times,serif" font-size="14.00" fill="#000000"> : (Array of) </text>
<text text-anchor="start" x="268" y="-154.3" font-family="mono" font-size="14.00" fill="#c83500">string</text>
</g>
<!-- Form&#45;&gt;AdditionalExpectedResponse -->
<g id="edge2" class="edge">
<title>Form&#45;&gt;AdditionalExpectedResponse</title>
<path fill="none" stroke="#000000" d="M173.2248,-142.7873C169.056,-136.7906 164.9417,-130.8112 161,-125 155.6949,-117.1788 150.1812,-108.8551 144.8245,-100.6561"/>
<polygon fill="#000000" stroke="#000000" points="147.7003,-98.6583 139.3143,-92.1832 141.8321,-102.4746 147.7003,-98.6583"/>
<text text-anchor="start" x="161" y="-113.8" font-family="mono" font-size="14.00" fill="#c83500">additionalResponses</text>
<text text-anchor="middle" x="128.3143" y="-95.9832" font-family="Times,serif" font-size="14.00" fill="#000000">0..*</text>
</g>
<!-- Form&#45;&gt;ExpectedResponse -->
<g id="edge1" class="edge">
<title>Form&#45;&gt;ExpectedResponse</title>
<path fill="none" stroke="#000000" d="M281.8881,-142.9455C297.0381,-120.7298 312.767,-97.6651 325.0805,-79.6089"/>
<polygon fill="#000000" stroke="#000000" points="328.0909,-81.4066 330.8334,-71.1729 322.3076,-77.4627 328.0909,-81.4066"/>
<text text-anchor="start" x="302" y="-113.8" font-family="mono" font-size="14.00" fill="#c83500">response</text>
<text text-anchor="middle" x="319.8334" y="-74.9729" font-family="Times,serif" font-size="14.00" fill="#000000">0..1</text>
</g>
<!-- Link -->
<g id="node4" class="node">
<title>Link</title>
<polygon fill="#8ccbf2" stroke="transparent" points="345,-251.5 345,-272.5 452,-272.5 452,-251.5 345,-251.5"/>
<polygon fill="none" stroke="#8ccbf2" points="345,-251.5 345,-272.5 452,-272.5 452,-251.5 345,-251.5"/>
<text text-anchor="start" x="384" y="-259.3" font-family="mono" font-weight="bold" font-size="14.00" fill="#c83500">Link</text>
<polygon fill="#ddeeff" stroke="transparent" points="345,-230.5 345,-251.5 452,-251.5 452,-230.5 345,-230.5"/>
<polygon fill="none" stroke="#8ccbf2" points="345,-230.5 345,-251.5 452,-251.5 452,-230.5 345,-230.5"/>
<text text-anchor="start" x="348" y="-238.3" font-family="mono" font-size="14.00" fill="#c83500">type</text>
<text text-anchor="start" x="375" y="-238.3" font-family="Times,serif" font-size="14.00" fill="#000000"> : </text>
<text text-anchor="start" x="386" y="-238.3" font-family="mono" font-size="14.00" fill="#c83500">string</text>
<polygon fill="#ddeeff" stroke="transparent" points="345,-209.5 345,-230.5 452,-230.5 452,-209.5 345,-209.5"/>
<polygon fill="none" stroke="#8ccbf2" points="345,-209.5 345,-230.5 452,-230.5 452,-209.5 345,-209.5"/>
<text text-anchor="start" x="348" y="-217.3" font-family="mono" font-size="14.00" fill="#c83500">rel</text>
<text text-anchor="start" x="364" y="-217.3" font-family="Times,serif" font-size="14.00" fill="#000000"> : </text>
<text text-anchor="start" x="375" y="-217.3" font-family="mono" font-size="14.00" fill="#c83500">string</text>
<polygon fill="#ddeeff" stroke="transparent" points="345,-188.5 345,-209.5 452,-209.5 452,-188.5 345,-188.5"/>
<polygon fill="none" stroke="#8ccbf2" points="345,-188.5 345,-209.5 452,-209.5 452,-188.5 345,-188.5"/>
<text text-anchor="start" x="348" y="-196.3" font-family="mono" font-size="14.00" fill="#c83500">anchor</text>
<text text-anchor="start" x="391" y="-196.3" font-family="Times,serif" font-size="14.00" fill="#000000"> : </text>
<text text-anchor="start" x="402" y="-196.3" font-family="mono" font-size="14.00" fill="#c83500">anyURI</text>
<polygon fill="#ddeeff" stroke="transparent" points="345,-167.5 345,-188.5 452,-188.5 452,-167.5 345,-167.5"/>
<polygon fill="none" stroke="#8ccbf2" points="345,-167.5 345,-188.5 452,-188.5 452,-167.5 345,-167.5"/>
<text text-anchor="start" x="348" y="-175.3" font-family="mono" font-size="14.00" fill="#c83500">sizes</text>
<text text-anchor="start" x="380" y="-175.3" font-family="Times,serif" font-size="14.00" fill="#000000"> : </text>
<text text-anchor="start" x="391" y="-175.3" font-family="mono" font-size="14.00" fill="#c83500">string</text>
</g>
</g>
</svg>
