<?xml version="1.0" encoding="UTF-8" standalone="no"?>
<!DOCTYPE svg PUBLIC "-//W3C//DTD SVG 1.1//EN"
 "http://www.w3.org/Graphics/SVG/1.1/DTD/svg11.dtd">
<!-- Generated by graphviz version 2.38.0 (20140413.2041)
 -->
<!-- Title: %3 Pages: 1 -->
<svg width="602pt" height="222pt"
 viewBox="0.00 0.00 601.50 222.00" xmlns="http://www.w3.org/2000/svg" xmlns:xlink="http://www.w3.org/1999/xlink">
<g id="graph0" class="graph" transform="scale(1 1) rotate(0) translate(4 218)">
<title>%3</title>
<polygon fill="white" stroke="none" points="-4,4 -4,-218 597.5,-218 597.5,4 -4,4"/>
<!-- ExpectedResponse -->
<g id="node1" class="node"><title>ExpectedResponse</title>
<polygon fill="#8ccbf2" stroke="none" points="8,-25 8,-46 298,-46 298,-25 8,-25"/>
<polygon fill="none" stroke="#8ccbf2" points="8,-25 8,-46 298,-46 298,-25 8,-25"/>
<text text-anchor="start" x="86.5" y="-32.8" font-family="mono" font-weight="bold" font-size="14.00" fill="#c83500">ExpectedResponse</text>
<polygon fill="#ddeeff" stroke="none" points="8,-4 8,-25 298,-25 298,-4 8,-4"/>
<polygon fill="none" stroke="#8ccbf2" points="8,-4 8,-25 298,-25 298,-4 8,-4"/>
<text text-anchor="start" x="11" y="-11.8" font-family="mono" font-size="14.00" fill="#c83500">contentType</text>
<text text-anchor="start" x="102" y="-11.8" font-family="Times,serif" font-size="14.00"> : (Array of) </text>
<text text-anchor="start" x="173" y="-11.8" font-family="mono" font-size="14.00" fill="#c83500">string</text>
<text text-anchor="start" x="223" y="-11.8" font-family="Times,serif" font-size="14.00"> </text>
<text text-anchor="start" x="227" y="-11.8" font-family="Times,serif" font-style="italic" font-size="14.00">(mandatory)</text>
</g>
<!-- Form -->
<g id="node2" class="node"><title>Form</title>
<polygon fill="#8ccbf2" stroke="none" points="156,-188.5 156,-209.5 391,-209.5 391,-188.5 156,-188.5"/>
<polygon fill="none" stroke="#8ccbf2" points="156,-188.5 156,-209.5 391,-209.5 391,-188.5 156,-188.5"/>
<text text-anchor="start" x="256.5" y="-196.3" font-family="mono" font-weight="bold" font-size="14.00" fill="#c83500">Form</text>
<polygon fill="#ddeeff" stroke="none" points="156,-167.5 156,-188.5 391,-188.5 391,-167.5 156,-167.5"/>
<polygon fill="none" stroke="#8ccbf2" points="156,-167.5 156,-188.5 391,-188.5 391,-167.5 156,-167.5"/>
<text text-anchor="start" x="159" y="-175.3" font-family="mono" font-size="14.00" fill="#c83500">contentType</text>
<text text-anchor="start" x="250" y="-175.3" font-family="Times,serif" font-size="14.00"> : (Array of) </text>
<text text-anchor="start" x="321" y="-175.3" font-family="mono" font-size="14.00" fill="#c83500">string</text>
<polygon fill="#ddeeff" stroke="none" points="156,-146.5 156,-167.5 391,-167.5 391,-146.5 156,-146.5"/>
<polygon fill="none" stroke="#8ccbf2" points="156,-146.5 156,-167.5 391,-167.5 391,-146.5 156,-146.5"/>
<text text-anchor="start" x="159" y="-154.3" font-family="mono" font-size="14.00" fill="#c83500">contentCoding</text>
<text text-anchor="start" x="267" y="-154.3" font-family="Times,serif" font-size="14.00"> : (Array of) </text>
<text text-anchor="start" x="338" y="-154.3" font-family="mono" font-size="14.00" fill="#c83500">string</text>
<polygon fill="#ddeeff" stroke="none" points="156,-125.5 156,-146.5 391,-146.5 391,-125.5 156,-125.5"/>
<polygon fill="none" stroke="#8ccbf2" points="156,-125.5 156,-146.5 391,-146.5 391,-125.5 156,-125.5"/>
<text text-anchor="start" x="159" y="-133.3" font-family="mono" font-size="14.00" fill="#c83500">subprotocol</text>
<text text-anchor="start" x="250" y="-133.3" font-family="Times,serif" font-size="14.00"> : </text>
<text text-anchor="start" x="262" y="-133.3" font-family="mono" font-size="14.00" fill="#c83500">string</text>
<polygon fill="#ddeeff" stroke="none" points="156,-104.5 156,-125.5 391,-125.5 391,-104.5 156,-104.5"/>
<polygon fill="none" stroke="#8ccbf2" points="156,-104.5 156,-125.5 391,-125.5 391,-104.5 156,-104.5"/>
<text text-anchor="start" x="159" y="-112.3" font-family="mono" font-size="14.00" fill="#c83500">scopes</text>
<text text-anchor="start" x="209" y="-112.3" font-family="Times,serif" font-size="14.00"> : (Array of) </text>
<text text-anchor="start" x="280" y="-112.3" font-family="mono" font-size="14.00" fill="#c83500">string</text>
</g>
<!-- Form&#45;&gt;ExpectedResponse -->
<g id="edge1" class="edge"><title>Form&#45;&gt;ExpectedResponse</title>
<path fill="none" stroke="black" d="M221.761,-100.778C208.256,-86.0911 194.146,-70.7464 182.247,-57.8065"/>
<polygon fill="black" stroke="black" points="184.495,-55.0797 175.15,-50.0878 179.342,-59.8179 184.495,-55.0797"/>
<text text-anchor="start" x="203" y="-71.8" font-family="mono" font-size="14.00" fill="#c83500">response</text>
<text text-anchor="middle" x="164.15" y="-53.8878" font-family="Times,serif" font-size="14.00">0..1</text>
</g>
<!-- SecurityScheme -->
<g id="node4" class="node"><title>SecurityScheme</title>
<polygon fill="#f2f2f2" stroke="none" points="332,-14 332,-35 454,-35 454,-14 332,-14"/>
<polygon fill="none" stroke="#8c8c8c" points="332,-14 332,-35 454,-35 454,-14 332,-14"/>
<text text-anchor="start" x="335" y="-21.8" font-family="mono" font-weight="bold" font-size="14.00">SecurityScheme</text>
</g>
<!-- Form&#45;&gt;SecurityScheme -->
<g id="edge2" class="edge"><title>Form&#45;&gt;SecurityScheme</title>
<path fill="none" stroke="black" d="M324.239,-100.778C340.364,-83.2421 357.351,-64.7683 370.407,-50.5699"/>
<polygon fill="black" stroke="black" points="373.033,-52.885 377.225,-43.1549 367.88,-48.1469 373.033,-52.885"/>
<text text-anchor="start" x="355" y="-71.8" font-family="mono" font-size="14.00" fill="#c83500">security</text>
<text text-anchor="middle" x="366.225" y="-46.9549" font-family="Times,serif" font-size="14.00">0..*</text>
</g>
<!-- Link -->
<g id="node3" class="node"><title>Link</title>
<polygon fill="#8ccbf2" stroke="none" points="425,-157.5 425,-178.5 586,-178.5 586,-157.5 425,-157.5"/>
<polygon fill="none" stroke="#8ccbf2" points="425,-157.5 425,-178.5 586,-178.5 586,-157.5 425,-157.5"/>
<text text-anchor="start" x="488.5" y="-165.3" font-family="mono" font-weight="bold" font-size="14.00" fill="#c83500">Link</text>
<polygon fill="#ddeeff" stroke="none" points="425,-136.5 425,-157.5 586,-157.5 586,-136.5 425,-136.5"/>
<polygon fill="none" stroke="#8ccbf2" points="425,-136.5 425,-157.5 586,-157.5 586,-136.5 425,-136.5"/>
<text text-anchor="start" x="428" y="-144.3" font-family="mono" font-size="14.00" fill="#c83500">type</text>
<text text-anchor="start" x="462" y="-144.3" font-family="Times,serif" font-size="14.00"> : (Array of) </text>
<text text-anchor="start" x="533" y="-144.3" font-family="mono" font-size="14.00" fill="#c83500">string</text>
</g>
</g>
</svg>
