<?xml version="1.0" encoding="UTF-8" standalone="no"?>
<!DOCTYPE svg PUBLIC "-//W3C//DTD SVG 1.1//EN"
 "http://www.w3.org/Graphics/SVG/1.1/DTD/svg11.dtd">
<!-- Generated by graphviz version 2.38.0 (20140413.2041)
 -->
<!-- Title: %3 Pages: 1 -->
<svg width="534pt" height="372pt"
 viewBox="0.00 0.00 533.50 372.00" xmlns="http://www.w3.org/2000/svg" xmlns:xlink="http://www.w3.org/1999/xlink">
<g id="graph0" class="graph" transform="scale(1 1) rotate(0) translate(4 368)">
<title>%3</title>
<polygon fill="white" stroke="none" points="-4,4 -4,-368 529.5,-368 529.5,4 -4,4"/>
<!-- AdditionalExpectedResponse -->
<g id="node1" class="node"><title>AdditionalExpectedResponse</title>
<polygon fill="#8ccbf2" stroke="none" points="8.5,-132.5 8.5,-153.5 229.5,-153.5 229.5,-132.5 8.5,-132.5"/>
<polygon fill="none" stroke="#8ccbf2" points="8.5,-132.5 8.5,-153.5 229.5,-153.5 229.5,-132.5 8.5,-132.5"/>
<text text-anchor="start" x="11.5" y="-140.3" font-family="mono" font-weight="bold" font-size="14.00" fill="#c83500">AdditionalExpectedResponse</text>
<polygon fill="#ddeeff" stroke="none" points="8.5,-111.5 8.5,-132.5 229.5,-132.5 229.5,-111.5 8.5,-111.5"/>
<polygon fill="none" stroke="#8ccbf2" points="8.5,-111.5 8.5,-132.5 229.5,-132.5 229.5,-111.5 8.5,-111.5"/>
<text text-anchor="start" x="11.5" y="-119.3" font-family="mono" font-size="14.00" fill="#c83500">success</text>
<text text-anchor="start" x="69.5" y="-119.3" font-family="Times,serif" font-size="14.00"> : </text>
<text text-anchor="start" x="81.5" y="-119.3" font-family="mono" font-size="14.00" fill="#c83500">boolean</text>
<polygon fill="#ddeeff" stroke="none" points="8.5,-90.5 8.5,-111.5 229.5,-111.5 229.5,-90.5 8.5,-90.5"/>
<polygon fill="none" stroke="#8ccbf2" points="8.5,-90.5 8.5,-111.5 229.5,-111.5 229.5,-90.5 8.5,-90.5"/>
<text text-anchor="start" x="11.5" y="-98.3" font-family="mono" font-size="14.00" fill="#c83500">contentType</text>
<text text-anchor="start" x="102.5" y="-98.3" font-family="Times,serif" font-size="14.00"> : </text>
<text text-anchor="start" x="114.5" y="-98.3" font-family="mono" font-size="14.00" fill="#c83500">string</text>
</g>
<!-- DataSchema -->
<g id="node5" class="node"><title>DataSchema</title>
<polygon fill="#f2f2f2" stroke="none" points="74.5,-7 74.5,-28 163.5,-28 163.5,-7 74.5,-7"/>
<polygon fill="none" stroke="#8c8c8c" points="74.5,-7 74.5,-28 163.5,-28 163.5,-7 74.5,-7"/>
<text text-anchor="start" x="77.5" y="-14.8" font-family="mono" font-weight="bold" font-size="14.00">DataSchema</text>
</g>
<!-- AdditionalExpectedResponse&#45;&gt;DataSchema -->
<g id="edge1" class="edge"><title>AdditionalExpectedResponse&#45;&gt;DataSchema</title>
<path fill="none" stroke="black" d="M118.5,-86.7982C118.5,-73.5917 118.5,-58.743 118.5,-46.3157"/>
<polygon fill="black" stroke="black" points="122,-46.1201 118.5,-36.1201 115,-46.1202 122,-46.1201"/>
<text text-anchor="start" x="118.5" y="-57.8" font-family="mono" font-size="14.00" fill="#c83500">schema</text>
<text text-anchor="middle" x="107.5" y="-39.9201" font-family="Times,serif" font-size="14.00">0..1</text>
</g>
<!-- ExpectedResponse -->
<g id="node2" class="node"><title>ExpectedResponse</title>
<polygon fill="#8ccbf2" stroke="none" points="263.5,-122.5 263.5,-143.5 494.5,-143.5 494.5,-122.5 263.5,-122.5"/>
<polygon fill="none" stroke="#8ccbf2" points="263.5,-122.5 263.5,-143.5 494.5,-143.5 494.5,-122.5 263.5,-122.5"/>
<text text-anchor="start" x="312.5" y="-130.3" font-family="mono" font-weight="bold" font-size="14.00" fill="#c83500">ExpectedResponse</text>
<polygon fill="#ddeeff" stroke="none" points="263.5,-101.5 263.5,-122.5 494.5,-122.5 494.5,-101.5 263.5,-101.5"/>
<polygon fill="none" stroke="#8ccbf2" points="263.5,-101.5 263.5,-122.5 494.5,-122.5 494.5,-101.5 263.5,-101.5"/>
<text text-anchor="start" x="266.5" y="-109.3" font-family="mono" font-size="14.00" fill="#c83500">contentType</text>
<text text-anchor="start" x="357.5" y="-109.3" font-family="Times,serif" font-size="14.00"> : </text>
<text text-anchor="start" x="369.5" y="-109.3" font-family="mono" font-size="14.00" fill="#c83500">string</text>
<text text-anchor="start" x="419.5" y="-109.3" font-family="Times,serif" font-size="14.00"> </text>
<text text-anchor="start" x="423.5" y="-109.3" font-family="Times,serif" font-style="italic" font-size="14.00">(mandatory)</text>
</g>
<!-- Form -->
<g id="node3" class="node"><title>Form</title>
<polygon fill="#8ccbf2" stroke="none" points="171.5,-338.5 171.5,-359.5 365.5,-359.5 365.5,-338.5 171.5,-338.5"/>
<polygon fill="none" stroke="#8ccbf2" points="171.5,-338.5 171.5,-359.5 365.5,-359.5 365.5,-338.5 171.5,-338.5"/>
<text text-anchor="start" x="251.5" y="-346.3" font-family="mono" font-weight="bold" font-size="14.00" fill="#c83500">Form</text>
<polygon fill="#ddeeff" stroke="none" points="171.5,-317.5 171.5,-338.5 365.5,-338.5 365.5,-317.5 171.5,-317.5"/>
<polygon fill="none" stroke="#8ccbf2" points="171.5,-317.5 171.5,-338.5 365.5,-338.5 365.5,-317.5 171.5,-317.5"/>
<text text-anchor="start" x="174.5" y="-325.3" font-family="mono" font-size="14.00" fill="#c83500">contentType</text>
<text text-anchor="start" x="265.5" y="-325.3" font-family="Times,serif" font-size="14.00"> : </text>
<text text-anchor="start" x="277.5" y="-325.3" font-family="mono" font-size="14.00" fill="#c83500">string</text>
<polygon fill="#ddeeff" stroke="none" points="171.5,-296.5 171.5,-317.5 365.5,-317.5 365.5,-296.5 171.5,-296.5"/>
<polygon fill="none" stroke="#8ccbf2" points="171.5,-296.5 171.5,-317.5 365.5,-317.5 365.5,-296.5 171.5,-296.5"/>
<text text-anchor="start" x="174.5" y="-304.3" font-family="mono" font-size="14.00" fill="#c83500">contentCoding</text>
<text text-anchor="start" x="282.5" y="-304.3" font-family="Times,serif" font-size="14.00"> : </text>
<text text-anchor="start" x="294.5" y="-304.3" font-family="mono" font-size="14.00" fill="#c83500">string</text>
<polygon fill="#ddeeff" stroke="none" points="171.5,-275.5 171.5,-296.5 365.5,-296.5 365.5,-275.5 171.5,-275.5"/>
<polygon fill="none" stroke="#8ccbf2" points="171.5,-275.5 171.5,-296.5 365.5,-296.5 365.5,-275.5 171.5,-275.5"/>
<text text-anchor="start" x="174.5" y="-283.3" font-family="mono" font-size="14.00" fill="#c83500">op</text>
<text text-anchor="start" x="191.5" y="-283.3" font-family="Times,serif" font-size="14.00"> : (Array of) </text>
<text text-anchor="start" x="262.5" y="-283.3" font-family="mono" font-size="14.00" fill="#c83500">string</text>
<polygon fill="#ddeeff" stroke="none" points="171.5,-254.5 171.5,-275.5 365.5,-275.5 365.5,-254.5 171.5,-254.5"/>
<polygon fill="none" stroke="#8ccbf2" points="171.5,-254.5 171.5,-275.5 365.5,-275.5 365.5,-254.5 171.5,-254.5"/>
<text text-anchor="start" x="174.5" y="-262.3" font-family="mono" font-size="14.00" fill="#c83500">subprotocol</text>
<text text-anchor="start" x="265.5" y="-262.3" font-family="Times,serif" font-size="14.00"> : </text>
<text text-anchor="start" x="277.5" y="-262.3" font-family="mono" font-size="14.00" fill="#c83500">string</text>
<polygon fill="#ddeeff" stroke="none" points="171.5,-233.5 171.5,-254.5 365.5,-254.5 365.5,-233.5 171.5,-233.5"/>
<polygon fill="none" stroke="#8ccbf2" points="171.5,-233.5 171.5,-254.5 365.5,-254.5 365.5,-233.5 171.5,-233.5"/>
<text text-anchor="start" x="174.5" y="-241.3" font-family="mono" font-size="14.00" fill="#c83500">security</text>
<text text-anchor="start" x="241.5" y="-241.3" font-family="Times,serif" font-size="14.00"> : (Array of) </text>
<text text-anchor="start" x="312.5" y="-241.3" font-family="mono" font-size="14.00" fill="#c83500">string</text>
<polygon fill="#ddeeff" stroke="none" points="171.5,-212.5 171.5,-233.5 365.5,-233.5 365.5,-212.5 171.5,-212.5"/>
<polygon fill="none" stroke="#8ccbf2" points="171.5,-212.5 171.5,-233.5 365.5,-233.5 365.5,-212.5 171.5,-212.5"/>
<text text-anchor="start" x="174.5" y="-220.3" font-family="mono" font-size="14.00" fill="#c83500">scopes</text>
<text text-anchor="start" x="224.5" y="-220.3" font-family="Times,serif" font-size="14.00"> : (Array of) </text>
<text text-anchor="start" x="295.5" y="-220.3" font-family="mono" font-size="14.00" fill="#c83500">string</text>
</g>
<!-- Form&#45;&gt;AdditionalExpectedResponse -->
<g id="edge3" class="edge"><title>Form&#45;&gt;AdditionalExpectedResponse</title>
<path fill="none" stroke="black" d="M188.232,-208.972C182.478,-202.979 176.843,-196.946 171.5,-191 164.481,-183.19 157.31,-174.564 150.603,-166.163"/>
<polygon fill="black" stroke="black" points="153.274,-163.898 144.334,-158.213 147.777,-168.232 153.274,-163.898"/>
<text text-anchor="start" x="171.5" y="-179.8" font-family="mono" font-size="14.00" fill="#c83500">additionalResponses</text>
<text text-anchor="middle" x="133.334" y="-162.013" font-family="Times,serif" font-size="14.00">0..*</text>
</g>
<!-- Form&#45;&gt;ExpectedResponse -->
<g id="edge2" class="edge"><title>Form&#45;&gt;ExpectedResponse</title>
<path fill="none" stroke="black" d="M320.601,-208.77C333.134,-190.311 345.869,-171.557 356.192,-156.354"/>
<polygon fill="black" stroke="black" points="359.249,-158.081 361.971,-147.842 353.458,-154.149 359.249,-158.081"/>
<text text-anchor="start" x="339.5" y="-179.8" font-family="mono" font-size="14.00" fill="#c83500">response</text>
<text text-anchor="middle" x="350.971" y="-151.642" font-family="Times,serif" font-size="14.00">0..1</text>
</g>
<!-- Link -->
<g id="node4" class="node"><title>Link</title>
<polygon fill="#8ccbf2" stroke="none" points="399.5,-317.5 399.5,-338.5 517.5,-338.5 517.5,-317.5 399.5,-317.5"/>
<polygon fill="none" stroke="#8ccbf2" points="399.5,-317.5 399.5,-338.5 517.5,-338.5 517.5,-317.5 399.5,-317.5"/>
<text text-anchor="start" x="441.5" y="-325.3" font-family="mono" font-weight="bold" font-size="14.00" fill="#c83500">Link</text>
<polygon fill="#ddeeff" stroke="none" points="399.5,-296.5 399.5,-317.5 517.5,-317.5 517.5,-296.5 399.5,-296.5"/>
<polygon fill="none" stroke="#8ccbf2" points="399.5,-296.5 399.5,-317.5 517.5,-317.5 517.5,-296.5 399.5,-296.5"/>
<text text-anchor="start" x="402.5" y="-304.3" font-family="mono" font-size="14.00" fill="#c83500">type</text>
<text text-anchor="start" x="436.5" y="-304.3" font-family="Times,serif" font-size="14.00"> : </text>
<text text-anchor="start" x="448.5" y="-304.3" font-family="mono" font-size="14.00" fill="#c83500">string</text>
<polygon fill="#ddeeff" stroke="none" points="399.5,-275.5 399.5,-296.5 517.5,-296.5 517.5,-275.5 399.5,-275.5"/>
<polygon fill="none" stroke="#8ccbf2" points="399.5,-275.5 399.5,-296.5 517.5,-296.5 517.5,-275.5 399.5,-275.5"/>
<text text-anchor="start" x="402.5" y="-283.3" font-family="mono" font-size="14.00" fill="#c83500">rel</text>
<text text-anchor="start" x="427.5" y="-283.3" font-family="Times,serif" font-size="14.00"> : </text>
<text text-anchor="start" x="439.5" y="-283.3" font-family="mono" font-size="14.00" fill="#c83500">string</text>
<polygon fill="#ddeeff" stroke="none" points="399.5,-254.5 399.5,-275.5 517.5,-275.5 517.5,-254.5 399.5,-254.5"/>
<polygon fill="none" stroke="#8ccbf2" points="399.5,-254.5 399.5,-275.5 517.5,-275.5 517.5,-254.5 399.5,-254.5"/>
<text text-anchor="start" x="402.5" y="-262.3" font-family="mono" font-size="14.00" fill="#c83500">anchor</text>
<text text-anchor="start" x="452.5" y="-262.3" font-family="Times,serif" font-size="14.00"> : </text>
<text text-anchor="start" x="464.5" y="-262.3" font-family="mono" font-size="14.00" fill="#c83500">anyURI</text>
<polygon fill="#ddeeff" stroke="none" points="399.5,-233.5 399.5,-254.5 517.5,-254.5 517.5,-233.5 399.5,-233.5"/>
<polygon fill="none" stroke="#8ccbf2" points="399.5,-233.5 399.5,-254.5 517.5,-254.5 517.5,-233.5 399.5,-233.5"/>
<text text-anchor="start" x="402.5" y="-241.3" font-family="mono" font-size="14.00" fill="#c83500">sizes</text>
<text text-anchor="start" x="444.5" y="-241.3" font-family="Times,serif" font-size="14.00"> : </text>
<text text-anchor="start" x="456.5" y="-241.3" font-family="mono" font-size="14.00" fill="#c83500">string</text>
</g>
</g>
</svg>
