<?xml version="1.0" encoding="UTF-8" standalone="no"?>
<!DOCTYPE svg PUBLIC "-//W3C//DTD SVG 1.1//EN"
 "http://www.w3.org/Graphics/SVG/1.1/DTD/svg11.dtd">
<!-- Generated by graphviz version 9.0.0 (20230911.1827)
 -->
<!-- Pages: 1 -->
<svg width="508pt" height="320pt"
 viewBox="0.00 0.00 508.38 319.50" xmlns="http://www.w3.org/2000/svg" xmlns:xlink="http://www.w3.org/1999/xlink">
<g id="graph0" class="graph" transform="scale(1 1) rotate(0) translate(4 315.5)">
<polygon fill="white" stroke="none" points="-4,4 -4,-315.5 504.38,-315.5 504.38,4 -4,4"/>
<!-- AdditionalExpectedResponse -->
<g id="node1" class="node">
<title>AdditionalExpectedResponse</title>
<polygon fill="#8ccbf2" stroke="none" points="8,-71.5 8,-92.5 204.5,-92.5 204.5,-71.5 8,-71.5"/>
<polygon fill="none" stroke="#8ccbf2" points="8,-71.5 8,-92.5 204.5,-92.5 204.5,-71.5 8,-71.5"/>
<text text-anchor="start" x="11" y="-77.2" font-family="mono" font-weight="bold" font-size="14.00" fill="#c83500">AdditionalExpectedResponse</text>
<polygon fill="#ddeeff" stroke="none" points="8,-49 8,-71.5 204.5,-71.5 204.5,-49 8,-49"/>
<polygon fill="none" stroke="#8ccbf2" points="8,-49 8,-71.5 204.5,-71.5 204.5,-49 8,-49"/>
<text text-anchor="start" x="11" y="-56.2" font-family="mono" font-size="14.00" fill="#c83500">schema</text>
<text text-anchor="start" x="59" y="-56.2" font-family="Times,serif" font-size="14.00"> : </text>
<text text-anchor="start" x="70.25" y="-56.2" font-family="mono" font-size="14.00" fill="#c83500">string</text>
<polygon fill="#ddeeff" stroke="none" points="8,-26.5 8,-49 204.5,-49 204.5,-26.5 8,-26.5"/>
<polygon fill="none" stroke="#8ccbf2" points="8,-26.5 8,-49 204.5,-49 204.5,-26.5 8,-26.5"/>
<text text-anchor="start" x="11" y="-33.7" font-family="mono" font-size="14.00" fill="#c83500">success</text>
<text text-anchor="start" x="59.75" y="-33.7" font-family="Times,serif" font-size="14.00"> : </text>
<text text-anchor="start" x="71" y="-33.7" font-family="mono" font-size="14.00" fill="#c83500">boolean</text>
<polygon fill="#ddeeff" stroke="none" points="8,-4 8,-26.5 204.5,-26.5 204.5,-4 8,-4"/>
<polygon fill="none" stroke="#8ccbf2" points="8,-4 8,-26.5 204.5,-26.5 204.5,-4 8,-4"/>
<text text-anchor="start" x="11" y="-11.2" font-family="mono" font-size="14.00" fill="#c83500">contentType</text>
<text text-anchor="start" x="85.25" y="-11.2" font-family="Times,serif" font-size="14.00"> : </text>
<text text-anchor="start" x="96.5" y="-11.2" font-family="mono" font-size="14.00" fill="#c83500">string</text>
</g>
<!-- ExpectedResponse -->
<g id="node2" class="node">
<title>ExpectedResponse</title>
<polygon fill="#8ccbf2" stroke="none" points="238.38,-49 238.38,-70 434.12,-70 434.12,-49 238.38,-49"/>
<polygon fill="none" stroke="#8ccbf2" points="238.38,-49 238.38,-70 434.12,-70 434.12,-49 238.38,-49"/>
<text text-anchor="start" x="274" y="-54.7" font-family="mono" font-weight="bold" font-size="14.00" fill="#c83500">ExpectedResponse</text>
<polygon fill="#ddeeff" stroke="none" points="238.38,-26.5 238.38,-49 434.12,-49 434.12,-26.5 238.38,-26.5"/>
<polygon fill="none" stroke="#8ccbf2" points="238.38,-26.5 238.38,-49 434.12,-49 434.12,-26.5 238.38,-26.5"/>
<text text-anchor="start" x="241.38" y="-33.7" font-family="mono" font-size="14.00" fill="#c83500">contentType</text>
<text text-anchor="start" x="315.62" y="-33.7" font-family="Times,serif" font-size="14.00"> : </text>
<text text-anchor="start" x="326.88" y="-33.7" font-family="mono" font-size="14.00" fill="#c83500">string</text>
<text text-anchor="start" x="359.88" y="-33.7" font-family="Times,serif" font-size="14.00"> </text>
<text text-anchor="start" x="363.62" y="-33.7" font-family="Times,serif" font-style="italic" font-size="14.00">(mandatory)</text>
</g>
<!-- Form -->
<g id="node3" class="node">
<title>Form</title>
<polygon fill="#8ccbf2" stroke="none" points="142.88,-286.5 142.88,-307.5 299.62,-307.5 299.62,-286.5 142.88,-286.5"/>
<polygon fill="none" stroke="#8ccbf2" points="142.88,-286.5 142.88,-307.5 299.62,-307.5 299.62,-286.5 142.88,-286.5"/>
<text text-anchor="start" x="204" y="-292.2" font-family="mono" font-weight="bold" font-size="14.00" fill="#c83500">Form</text>
<polygon fill="#ddeeff" stroke="none" points="142.88,-264 142.88,-286.5 299.62,-286.5 299.62,-264 142.88,-264"/>
<polygon fill="none" stroke="#8ccbf2" points="142.88,-264 142.88,-286.5 299.62,-286.5 299.62,-264 142.88,-264"/>
<text text-anchor="start" x="145.88" y="-271.2" font-family="mono" font-size="14.00" fill="#c83500">href</text>
<text text-anchor="start" x="169.12" y="-271.2" font-family="Times,serif" font-size="14.00"> : </text>
<text text-anchor="start" x="180.38" y="-271.2" font-family="mono" font-size="14.00" fill="#c83500">anyURI</text>
<text text-anchor="start" x="225.38" y="-271.2" font-family="Times,serif" font-size="14.00"> </text>
<text text-anchor="start" x="229.12" y="-271.2" font-family="Times,serif" font-style="italic" font-size="14.00">(mandatory)</text>
<polygon fill="#ddeeff" stroke="none" points="142.88,-241.5 142.88,-264 299.62,-264 299.62,-241.5 142.88,-241.5"/>
<polygon fill="none" stroke="#8ccbf2" points="142.88,-241.5 142.88,-264 299.62,-264 299.62,-241.5 142.88,-241.5"/>
<text text-anchor="start" x="145.88" y="-248.7" font-family="mono" font-size="14.00" fill="#c83500">contentType</text>
<text text-anchor="start" x="220.12" y="-248.7" font-family="Times,serif" font-size="14.00"> : </text>
<text text-anchor="start" x="231.38" y="-248.7" font-family="mono" font-size="14.00" fill="#c83500">string</text>
<polygon fill="#ddeeff" stroke="none" points="142.88,-219 142.88,-241.5 299.62,-241.5 299.62,-219 142.88,-219"/>
<polygon fill="none" stroke="#8ccbf2" points="142.88,-219 142.88,-241.5 299.62,-241.5 299.62,-219 142.88,-219"/>
<text text-anchor="start" x="145.88" y="-226.2" font-family="mono" font-size="14.00" fill="#c83500">contentCoding</text>
<text text-anchor="start" x="232.88" y="-226.2" font-family="Times,serif" font-size="14.00"> : </text>
<text text-anchor="start" x="244.12" y="-226.2" font-family="mono" font-size="14.00" fill="#c83500">string</text>
<polygon fill="#ddeeff" stroke="none" points="142.88,-196.5 142.88,-219 299.62,-219 299.62,-196.5 142.88,-196.5"/>
<polygon fill="none" stroke="#8ccbf2" points="142.88,-196.5 142.88,-219 299.62,-219 299.62,-196.5 142.88,-196.5"/>
<text text-anchor="start" x="145.88" y="-203.7" font-family="mono" font-size="14.00" fill="#c83500">subprotocol</text>
<text text-anchor="start" x="215.62" y="-203.7" font-family="Times,serif" font-size="14.00"> : </text>
<text text-anchor="start" x="226.88" y="-203.7" font-family="mono" font-size="14.00" fill="#c83500">string</text>
<polygon fill="#ddeeff" stroke="none" points="142.88,-174 142.88,-196.5 299.62,-196.5 299.62,-174 142.88,-174"/>
<polygon fill="none" stroke="#8ccbf2" points="142.88,-174 142.88,-196.5 299.62,-196.5 299.62,-174 142.88,-174"/>
<text text-anchor="start" x="145.88" y="-181.2" font-family="mono" font-size="14.00" fill="#c83500">security</text>
<text text-anchor="start" x="192.38" y="-181.2" font-family="Times,serif" font-size="14.00"> : (Array of) </text>
<text text-anchor="start" x="262.88" y="-181.2" font-family="mono" font-size="14.00" fill="#c83500">string</text>
<polygon fill="#ddeeff" stroke="none" points="142.88,-151.5 142.88,-174 299.62,-174 299.62,-151.5 142.88,-151.5"/>
<polygon fill="none" stroke="#8ccbf2" points="142.88,-151.5 142.88,-174 299.62,-174 299.62,-151.5 142.88,-151.5"/>
<text text-anchor="start" x="145.88" y="-158.7" font-family="mono" font-size="14.00" fill="#c83500">scopes</text>
<text text-anchor="start" x="188.62" y="-158.7" font-family="Times,serif" font-size="14.00"> : (Array of) </text>
<text text-anchor="start" x="259.12" y="-158.7" font-family="mono" font-size="14.00" fill="#c83500">string</text>
</g>
<!-- Form&#45;&gt;AdditionalExpectedResponse -->
<g id="edge1" class="edge">
<title>Form&#45;&gt;AdditionalExpectedResponse</title>
<path fill="none" stroke="black" d="M169.3,-147.53C160.2,-133.34 150.91,-118.87 142.36,-105.54"/>
<polygon fill="black" stroke="black" points="145.44,-103.85 137.1,-97.33 139.55,-107.63 145.44,-103.85"/>
<text text-anchor="start" x="157.25" y="-116.2" font-family="mono" font-size="14.00" fill="#c83500">additionalResponses</text>
<text text-anchor="middle" x="125.78" y="-99.25" font-family="Times,serif" font-size="14.00">0..*</text>
</g>
<!-- Form&#45;&gt;ExpectedResponse -->
<g id="edge2" class="edge">
<title>Form&#45;&gt;ExpectedResponse</title>
<path fill="none" stroke="black" d="M274.62,-147.56C278.57,-141.46 282.48,-135.39 286.25,-129.5 295.88,-114.44 306.36,-97.68 315.23,-83.38"/>
<polygon fill="black" stroke="black" points="318,-85.56 320.29,-75.22 312.05,-81.88 318,-85.56"/>
<text text-anchor="start" x="294.25" y="-116.2" font-family="mono" font-size="14.00" fill="#c83500">response</text>
<text text-anchor="middle" x="310.58" y="-77.13" font-family="Times,serif" font-size="14.00">0..1</text>
</g>
<!-- Link -->
<g id="node4" class="node">
<title>Link</title>
<polygon fill="#8ccbf2" stroke="none" points="334.12,-286.5 334.12,-307.5 492.38,-307.5 492.38,-286.5 334.12,-286.5"/>
<polygon fill="none" stroke="#8ccbf2" points="334.12,-286.5 334.12,-307.5 492.38,-307.5 492.38,-286.5 334.12,-286.5"/>
<text text-anchor="start" x="399.38" y="-292.2" font-family="mono" font-weight="bold" font-size="14.00" fill="#c83500">Link</text>
<polygon fill="#ddeeff" stroke="none" points="334.12,-264 334.12,-286.5 492.38,-286.5 492.38,-264 334.12,-264"/>
<polygon fill="none" stroke="#8ccbf2" points="334.12,-264 334.12,-286.5 492.38,-286.5 492.38,-264 334.12,-264"/>
<text text-anchor="start" x="337.12" y="-271.2" font-family="mono" font-size="14.00" fill="#c83500">href</text>
<text text-anchor="start" x="360.38" y="-271.2" font-family="Times,serif" font-size="14.00"> : </text>
<text text-anchor="start" x="371.62" y="-271.2" font-family="mono" font-size="14.00" fill="#c83500">anyURI</text>
<text text-anchor="start" x="416.62" y="-271.2" font-family="Times,serif" font-size="14.00"> </text>
<text text-anchor="start" x="420.38" y="-271.2" font-family="Times,serif" font-style="italic" font-size="14.00">(mandatory)</text>
<polygon fill="#ddeeff" stroke="none" points="334.12,-241.5 334.12,-264 492.38,-264 492.38,-241.5 334.12,-241.5"/>
<polygon fill="none" stroke="#8ccbf2" points="334.12,-241.5 334.12,-264 492.38,-264 492.38,-241.5 334.12,-241.5"/>
<text text-anchor="start" x="337.12" y="-248.7" font-family="mono" font-size="14.00" fill="#c83500">type</text>
<text text-anchor="start" x="362.62" y="-248.7" font-family="Times,serif" font-size="14.00"> : </text>
<text text-anchor="start" x="373.88" y="-248.7" font-family="mono" font-size="14.00" fill="#c83500">string</text>
<polygon fill="#ddeeff" stroke="none" points="334.12,-219 334.12,-241.5 492.38,-241.5 492.38,-219 334.12,-219"/>
<polygon fill="none" stroke="#8ccbf2" points="334.12,-219 334.12,-241.5 492.38,-241.5 492.38,-219 334.12,-219"/>
<text text-anchor="start" x="337.12" y="-226.2" font-family="mono" font-size="14.00" fill="#c83500">rel</text>
<text text-anchor="start" x="352.12" y="-226.2" font-family="Times,serif" font-size="14.00"> : </text>
<text text-anchor="start" x="363.38" y="-226.2" font-family="mono" font-size="14.00" fill="#c83500">string</text>
<polygon fill="#ddeeff" stroke="none" points="334.12,-196.5 334.12,-219 492.38,-219 492.38,-196.5 334.12,-196.5"/>
<polygon fill="none" stroke="#8ccbf2" points="334.12,-196.5 334.12,-219 492.38,-219 492.38,-196.5 334.12,-196.5"/>
<text text-anchor="start" x="337.12" y="-203.7" font-family="mono" font-size="14.00" fill="#c83500">anchor</text>
<text text-anchor="start" x="378.38" y="-203.7" font-family="Times,serif" font-size="14.00"> : </text>
<text text-anchor="start" x="389.62" y="-203.7" font-family="mono" font-size="14.00" fill="#c83500">anyURI</text>
<polygon fill="#ddeeff" stroke="none" points="334.12,-174 334.12,-196.5 492.38,-196.5 492.38,-174 334.12,-174"/>
<polygon fill="none" stroke="#8ccbf2" points="334.12,-174 334.12,-196.5 492.38,-196.5 492.38,-174 334.12,-174"/>
<text text-anchor="start" x="337.12" y="-181.2" font-family="mono" font-size="14.00" fill="#c83500">sizes</text>
<text text-anchor="start" x="367.88" y="-181.2" font-family="Times,serif" font-size="14.00"> : </text>
<text text-anchor="start" x="379.12" y="-181.2" font-family="mono" font-size="14.00" fill="#c83500">string</text>
<polygon fill="#ddeeff" stroke="none" points="334.12,-151.5 334.12,-174 492.38,-174 492.38,-151.5 334.12,-151.5"/>
<polygon fill="none" stroke="#8ccbf2" points="334.12,-151.5 334.12,-174 492.38,-174 492.38,-151.5 334.12,-151.5"/>
<text text-anchor="start" x="337.12" y="-158.7" font-family="mono" font-size="14.00" fill="#c83500">hreflang</text>
<text text-anchor="start" x="385.88" y="-158.7" font-family="Times,serif" font-size="14.00"> : (Array of) </text>
<text text-anchor="start" x="456.38" y="-158.7" font-family="mono" font-size="14.00" fill="#c83500">string</text>
</g>
</g>
</svg>
