<?xml version="1.0" encoding="UTF-8" standalone="no"?>
<!DOCTYPE svg PUBLIC "-//W3C//DTD SVG 1.1//EN"
 "http://www.w3.org/Graphics/SVG/1.1/DTD/svg11.dtd">
<!-- Generated by graphviz version 2.38.0 (20140413.2041)
 -->
<!-- Title: %3 Pages: 1 -->
<svg width="737pt" height="330pt"
 viewBox="0.00 0.00 737.00 330.00" xmlns="http://www.w3.org/2000/svg" xmlns:xlink="http://www.w3.org/1999/xlink">
<g id="graph0" class="graph" transform="scale(1 1) rotate(0) translate(4 326)">
<title>%3</title>
<polygon fill="white" stroke="none" points="-4,4 -4,-326 733,-326 733,4 -4,4"/>
<!-- AdditionalExpectedResponse -->
<g id="node1" class="node"><title>AdditionalExpectedResponse</title>
<polygon fill="#8ccbf2" stroke="none" points="8.5,-132.5 8.5,-153.5 229.5,-153.5 229.5,-132.5 8.5,-132.5"/>
<polygon fill="none" stroke="#8ccbf2" points="8.5,-132.5 8.5,-153.5 229.5,-153.5 229.5,-132.5 8.5,-132.5"/>
<text text-anchor="start" x="11.5" y="-140.3" font-family="mono" font-weight="bold" font-size="14.00" fill="#c83500">AdditionalExpectedResponse</text>
<polygon fill="#ddeeff" stroke="none" points="8.5,-111.5 8.5,-132.5 229.5,-132.5 229.5,-111.5 8.5,-111.5"/>
<polygon fill="none" stroke="#8ccbf2" points="8.5,-111.5 8.5,-132.5 229.5,-132.5 229.5,-111.5 8.5,-111.5"/>
<text text-anchor="start" x="11.5" y="-119.3" font-family="mono" font-size="14.00" fill="#c83500">success</text>
<text text-anchor="start" x="69.5" y="-119.3" font-family="Times,serif" font-size="14.00"> : </text>
<text text-anchor="start" x="81.5" y="-119.3" font-family="mono" font-size="14.00" fill="#c83500">boolean</text>
<polygon fill="#ddeeff" stroke="none" points="8.5,-90.5 8.5,-111.5 229.5,-111.5 229.5,-90.5 8.5,-90.5"/>
<polygon fill="none" stroke="#8ccbf2" points="8.5,-90.5 8.5,-111.5 229.5,-111.5 229.5,-90.5 8.5,-90.5"/>
<text text-anchor="start" x="11.5" y="-98.3" font-family="mono" font-size="14.00" fill="#c83500">contentType</text>
<text text-anchor="start" x="102.5" y="-98.3" font-family="Times,serif" font-size="14.00"> : (Array of) </text>
<text text-anchor="start" x="173.5" y="-98.3" font-family="mono" font-size="14.00" fill="#c83500">string</text>
</g>
<!-- DataSchema -->
<g id="node5" class="node"><title>DataSchema</title>
<polygon fill="#f2f2f2" stroke="none" points="74.5,-7 74.5,-28 163.5,-28 163.5,-7 74.5,-7"/>
<polygon fill="none" stroke="#8c8c8c" points="74.5,-7 74.5,-28 163.5,-28 163.5,-7 74.5,-7"/>
<text text-anchor="start" x="77.5" y="-14.8" font-family="mono" font-weight="bold" font-size="14.00">DataSchema</text>
</g>
<!-- AdditionalExpectedResponse&#45;&gt;DataSchema -->
<g id="edge1" class="edge"><title>AdditionalExpectedResponse&#45;&gt;DataSchema</title>
<path fill="none" stroke="black" d="M118.5,-86.7982C118.5,-73.5917 118.5,-58.743 118.5,-46.3157"/>
<polygon fill="black" stroke="black" points="122,-46.1201 118.5,-36.1201 115,-46.1202 122,-46.1201"/>
<text text-anchor="start" x="118.5" y="-57.8" font-family="mono" font-size="14.00" fill="#c83500">schema</text>
<text text-anchor="middle" x="107.5" y="-39.9201" font-family="Times,serif" font-size="14.00">0..1</text>
</g>
<!-- ExpectedResponse -->
<g id="node2" class="node"><title>ExpectedResponse</title>
<polygon fill="#8ccbf2" stroke="none" points="263.5,-122.5 263.5,-143.5 553.5,-143.5 553.5,-122.5 263.5,-122.5"/>
<polygon fill="none" stroke="#8ccbf2" points="263.5,-122.5 263.5,-143.5 553.5,-143.5 553.5,-122.5 263.5,-122.5"/>
<text text-anchor="start" x="342" y="-130.3" font-family="mono" font-weight="bold" font-size="14.00" fill="#c83500">ExpectedResponse</text>
<polygon fill="#ddeeff" stroke="none" points="263.5,-101.5 263.5,-122.5 553.5,-122.5 553.5,-101.5 263.5,-101.5"/>
<polygon fill="none" stroke="#8ccbf2" points="263.5,-101.5 263.5,-122.5 553.5,-122.5 553.5,-101.5 263.5,-101.5"/>
<text text-anchor="start" x="266.5" y="-109.3" font-family="mono" font-size="14.00" fill="#c83500">contentType</text>
<text text-anchor="start" x="357.5" y="-109.3" font-family="Times,serif" font-size="14.00"> : (Array of) </text>
<text text-anchor="start" x="428.5" y="-109.3" font-family="mono" font-size="14.00" fill="#c83500">string</text>
<text text-anchor="start" x="478.5" y="-109.3" font-family="Times,serif" font-size="14.00"> </text>
<text text-anchor="start" x="482.5" y="-109.3" font-family="Times,serif" font-style="italic" font-size="14.00">(mandatory)</text>
</g>
<!-- Form -->
<g id="node3" class="node"><title>Form</title>
<polygon fill="#8ccbf2" stroke="none" points="291.5,-296.5 291.5,-317.5 526.5,-317.5 526.5,-296.5 291.5,-296.5"/>
<polygon fill="none" stroke="#8ccbf2" points="291.5,-296.5 291.5,-317.5 526.5,-317.5 526.5,-296.5 291.5,-296.5"/>
<text text-anchor="start" x="392" y="-304.3" font-family="mono" font-weight="bold" font-size="14.00" fill="#c83500">Form</text>
<polygon fill="#ddeeff" stroke="none" points="291.5,-275.5 291.5,-296.5 526.5,-296.5 526.5,-275.5 291.5,-275.5"/>
<polygon fill="none" stroke="#8ccbf2" points="291.5,-275.5 291.5,-296.5 526.5,-296.5 526.5,-275.5 291.5,-275.5"/>
<text text-anchor="start" x="294.5" y="-283.3" font-family="mono" font-size="14.00" fill="#c83500">contentType</text>
<text text-anchor="start" x="385.5" y="-283.3" font-family="Times,serif" font-size="14.00"> : (Array of) </text>
<text text-anchor="start" x="456.5" y="-283.3" font-family="mono" font-size="14.00" fill="#c83500">string</text>
<polygon fill="#ddeeff" stroke="none" points="291.5,-254.5 291.5,-275.5 526.5,-275.5 526.5,-254.5 291.5,-254.5"/>
<polygon fill="none" stroke="#8ccbf2" points="291.5,-254.5 291.5,-275.5 526.5,-275.5 526.5,-254.5 291.5,-254.5"/>
<text text-anchor="start" x="294.5" y="-262.3" font-family="mono" font-size="14.00" fill="#c83500">contentCoding</text>
<text text-anchor="start" x="402.5" y="-262.3" font-family="Times,serif" font-size="14.00"> : (Array of) </text>
<text text-anchor="start" x="473.5" y="-262.3" font-family="mono" font-size="14.00" fill="#c83500">string</text>
<polygon fill="#ddeeff" stroke="none" points="291.5,-233.5 291.5,-254.5 526.5,-254.5 526.5,-233.5 291.5,-233.5"/>
<polygon fill="none" stroke="#8ccbf2" points="291.5,-233.5 291.5,-254.5 526.5,-254.5 526.5,-233.5 291.5,-233.5"/>
<text text-anchor="start" x="294.5" y="-241.3" font-family="mono" font-size="14.00" fill="#c83500">subprotocol</text>
<text text-anchor="start" x="385.5" y="-241.3" font-family="Times,serif" font-size="14.00"> : </text>
<text text-anchor="start" x="397.5" y="-241.3" font-family="mono" font-size="14.00" fill="#c83500">string</text>
<polygon fill="#ddeeff" stroke="none" points="291.5,-212.5 291.5,-233.5 526.5,-233.5 526.5,-212.5 291.5,-212.5"/>
<polygon fill="none" stroke="#8ccbf2" points="291.5,-212.5 291.5,-233.5 526.5,-233.5 526.5,-212.5 291.5,-212.5"/>
<text text-anchor="start" x="294.5" y="-220.3" font-family="mono" font-size="14.00" fill="#c83500">scopes</text>
<text text-anchor="start" x="344.5" y="-220.3" font-family="Times,serif" font-size="14.00"> : (Array of) </text>
<text text-anchor="start" x="415.5" y="-220.3" font-family="mono" font-size="14.00" fill="#c83500">string</text>
</g>
<!-- Form&#45;&gt;AdditionalExpectedResponse -->
<g id="edge4" class="edge"><title>Form&#45;&gt;AdditionalExpectedResponse</title>
<path fill="none" stroke="black" d="M285.116,-208.995C272.368,-203.015 259.643,-196.943 247.5,-191 229.424,-182.153 210.113,-172.279 192.084,-162.874"/>
<polygon fill="black" stroke="black" points="193.269,-159.543 182.786,-158.006 190.022,-165.745 193.269,-159.543"/>
<text text-anchor="start" x="247.5" y="-179.8" font-family="mono" font-size="14.00" fill="#c83500">additionalResponses</text>
<text text-anchor="middle" x="171.786" y="-161.806" font-family="Times,serif" font-size="14.00">0..*</text>
</g>
<!-- Form&#45;&gt;ExpectedResponse -->
<g id="edge2" class="edge"><title>Form&#45;&gt;ExpectedResponse</title>
<path fill="none" stroke="black" d="M408.5,-208.773C408.5,-191.511 408.5,-173.012 408.5,-157.671"/>
<polygon fill="black" stroke="black" points="412,-157.609 408.5,-147.609 405,-157.609 412,-157.609"/>
<text text-anchor="start" x="408.5" y="-179.8" font-family="mono" font-size="14.00" fill="#c83500">response</text>
<text text-anchor="middle" x="397.5" y="-151.409" font-family="Times,serif" font-size="14.00">0..1</text>
</g>
<!-- SecurityScheme -->
<g id="node6" class="node"><title>SecurityScheme</title>
<polygon fill="#f2f2f2" stroke="none" points="587.5,-111.5 587.5,-132.5 709.5,-132.5 709.5,-111.5 587.5,-111.5"/>
<polygon fill="none" stroke="#8c8c8c" points="587.5,-111.5 587.5,-132.5 709.5,-132.5 709.5,-111.5 587.5,-111.5"/>
<text text-anchor="start" x="590.5" y="-119.3" font-family="mono" font-weight="bold" font-size="14.00">SecurityScheme</text>
</g>
<!-- Form&#45;&gt;SecurityScheme -->
<g id="edge3" class="edge"><title>Form&#45;&gt;SecurityScheme</title>
<path fill="none" stroke="black" d="M503.01,-208.975C540.531,-186.932 581.538,-162.84 610.425,-145.869"/>
<polygon fill="black" stroke="black" points="612.509,-148.704 619.358,-140.621 608.963,-142.668 612.509,-148.704"/>
<text text-anchor="start" x="557.5" y="-179.8" font-family="mono" font-size="14.00" fill="#c83500">security</text>
<text text-anchor="middle" x="608.358" y="-144.421" font-family="Times,serif" font-size="14.00">0..*</text>
</g>
<!-- Link -->
<g id="node4" class="node"><title>Link</title>
<polygon fill="#8ccbf2" stroke="none" points="560.5,-265.5 560.5,-286.5 721.5,-286.5 721.5,-265.5 560.5,-265.5"/>
<polygon fill="none" stroke="#8ccbf2" points="560.5,-265.5 560.5,-286.5 721.5,-286.5 721.5,-265.5 560.5,-265.5"/>
<text text-anchor="start" x="624" y="-273.3" font-family="mono" font-weight="bold" font-size="14.00" fill="#c83500">Link</text>
<polygon fill="#ddeeff" stroke="none" points="560.5,-244.5 560.5,-265.5 721.5,-265.5 721.5,-244.5 560.5,-244.5"/>
<polygon fill="none" stroke="#8ccbf2" points="560.5,-244.5 560.5,-265.5 721.5,-265.5 721.5,-244.5 560.5,-244.5"/>
<text text-anchor="start" x="563.5" y="-252.3" font-family="mono" font-size="14.00" fill="#c83500">type</text>
<text text-anchor="start" x="597.5" y="-252.3" font-family="Times,serif" font-size="14.00"> : (Array of) </text>
<text text-anchor="start" x="668.5" y="-252.3" font-family="mono" font-size="14.00" fill="#c83500">string</text>
</g>
</g>
</svg>
