<?xml version="1.0" encoding="UTF-8" standalone="no"?>
<!DOCTYPE svg PUBLIC "-//W3C//DTD SVG 1.1//EN"
 "http://www.w3.org/Graphics/SVG/1.1/DTD/svg11.dtd">
<!-- Generated by graphviz version 2.46.0 (0)
 -->
<!-- Pages: 1 -->
<svg width="793pt" height="330pt"
 viewBox="0.00 0.00 792.50 330.00" xmlns="http://www.w3.org/2000/svg" xmlns:xlink="http://www.w3.org/1999/xlink">
<g id="graph0" class="graph" transform="scale(1 1) rotate(0) translate(4 326)">
<polygon fill="white" stroke="transparent" points="-4,4 -4,-326 788.5,-326 788.5,4 -4,4"/>
<!-- AdditionalExpectedResponse -->
<g id="node1" class="node">
<title>AdditionalExpectedResponse</title>
<polygon fill="#8ccbf2" stroke="transparent" points="8,-132.5 8,-153.5 242,-153.5 242,-132.5 8,-132.5"/>
<polygon fill="none" stroke="#8ccbf2" points="8,-132.5 8,-153.5 242,-153.5 242,-132.5 8,-132.5"/>
<text text-anchor="start" x="17.5" y="-140.3" font-family="mono" font-weight="bold" font-size="14.00" fill="#c83500">AdditionalExpectedResponse</text>
<polygon fill="#ddeeff" stroke="transparent" points="8,-111.5 8,-132.5 242,-132.5 242,-111.5 8,-111.5"/>
<polygon fill="none" stroke="#8ccbf2" points="8,-111.5 8,-132.5 242,-132.5 242,-111.5 8,-111.5"/>
<text text-anchor="start" x="11" y="-119.3" font-family="mono" font-size="14.00" fill="#c83500">success</text>
<text text-anchor="start" x="69" y="-119.3" font-family="Times,serif" font-size="14.00"> : </text>
<text text-anchor="start" x="83" y="-119.3" font-family="mono" font-size="14.00" fill="#c83500">boolean</text>
<polygon fill="#ddeeff" stroke="transparent" points="8,-90.5 8,-111.5 242,-111.5 242,-90.5 8,-90.5"/>
<polygon fill="none" stroke="#8ccbf2" points="8,-90.5 8,-111.5 242,-111.5 242,-90.5 8,-90.5"/>
<text text-anchor="start" x="11" y="-98.3" font-family="mono" font-size="14.00" fill="#c83500">contentType</text>
<text text-anchor="start" x="102" y="-98.3" font-family="Times,serif" font-size="14.00"> : (Array of) </text>
<text text-anchor="start" x="189" y="-98.3" font-family="mono" font-size="14.00" fill="#c83500">string</text>
</g>
<!-- DataSchema -->
<g id="node5" class="node">
<title>DataSchema</title>
<polygon fill="#f2f2f2" stroke="transparent" points="81,-7 81,-28 170,-28 170,-7 81,-7"/>
<polygon fill="none" stroke="#8c8c8c" points="81,-7 81,-28 170,-28 170,-7 81,-7"/>
<text text-anchor="start" x="84" y="-14.8" font-family="mono" font-weight="bold" font-size="14.00">DataSchema</text>
</g>
<!-- AdditionalExpectedResponse&#45;&gt;DataSchema -->
<g id="edge1" class="edge">
<title>AdditionalExpectedResponse&#45;&gt;DataSchema</title>
<path fill="none" stroke="black" d="M125,-86.8C125,-73.59 125,-58.74 125,-46.32"/>
<polygon fill="black" stroke="black" points="128.5,-46.12 125,-36.12 121.5,-46.12 128.5,-46.12"/>
<text text-anchor="start" x="125" y="-57.8" font-family="mono" font-size="14.00" fill="#c83500">schema</text>
<text text-anchor="middle" x="111" y="-39.92" font-family="Times,serif" font-size="14.00">0..1</text>
</g>
<!-- ExpectedResponse -->
<g id="node2" class="node">
<title>ExpectedResponse</title>
<polygon fill="#8ccbf2" stroke="transparent" points="277,-122.5 277,-143.5 604,-143.5 604,-122.5 277,-122.5"/>
<polygon fill="none" stroke="#8ccbf2" points="277,-122.5 277,-143.5 604,-143.5 604,-122.5 277,-122.5"/>
<text text-anchor="start" x="374" y="-130.3" font-family="mono" font-weight="bold" font-size="14.00" fill="#c83500">ExpectedResponse</text>
<polygon fill="#ddeeff" stroke="transparent" points="277,-101.5 277,-122.5 604,-122.5 604,-101.5 277,-101.5"/>
<polygon fill="none" stroke="#8ccbf2" points="277,-101.5 277,-122.5 604,-122.5 604,-101.5 277,-101.5"/>
<text text-anchor="start" x="280" y="-109.3" font-family="mono" font-size="14.00" fill="#c83500">contentType</text>
<text text-anchor="start" x="371" y="-109.3" font-family="Times,serif" font-size="14.00"> : (Array of) </text>
<text text-anchor="start" x="458" y="-109.3" font-family="mono" font-size="14.00" fill="#c83500">string</text>
<text text-anchor="start" x="508" y="-109.3" font-family="Times,serif" font-size="14.00"> </text>
<text text-anchor="start" x="513" y="-109.3" font-family="Times,serif" font-style="italic" font-size="14.00">(mandatory)</text>
</g>
<!-- Form -->
<g id="node3" class="node">
<title>Form</title>
<polygon fill="#8ccbf2" stroke="transparent" points="315,-296.5 315,-317.5 566,-317.5 566,-296.5 315,-296.5"/>
<polygon fill="none" stroke="#8ccbf2" points="315,-296.5 315,-317.5 566,-317.5 566,-296.5 315,-296.5"/>
<text text-anchor="start" x="423.5" y="-304.3" font-family="mono" font-weight="bold" font-size="14.00" fill="#c83500">Form</text>
<polygon fill="#ddeeff" stroke="transparent" points="315,-275.5 315,-296.5 566,-296.5 566,-275.5 315,-275.5"/>
<polygon fill="none" stroke="#8ccbf2" points="315,-275.5 315,-296.5 566,-296.5 566,-275.5 315,-275.5"/>
<text text-anchor="start" x="318" y="-283.3" font-family="mono" font-size="14.00" fill="#c83500">contentType</text>
<text text-anchor="start" x="409" y="-283.3" font-family="Times,serif" font-size="14.00"> : (Array of) </text>
<text text-anchor="start" x="496" y="-283.3" font-family="mono" font-size="14.00" fill="#c83500">string</text>
<polygon fill="#ddeeff" stroke="transparent" points="315,-254.5 315,-275.5 566,-275.5 566,-254.5 315,-254.5"/>
<polygon fill="none" stroke="#8ccbf2" points="315,-254.5 315,-275.5 566,-275.5 566,-254.5 315,-254.5"/>
<text text-anchor="start" x="318" y="-262.3" font-family="mono" font-size="14.00" fill="#c83500">contentCoding</text>
<text text-anchor="start" x="426" y="-262.3" font-family="Times,serif" font-size="14.00"> : (Array of) </text>
<text text-anchor="start" x="513" y="-262.3" font-family="mono" font-size="14.00" fill="#c83500">string</text>
<polygon fill="#ddeeff" stroke="transparent" points="315,-233.5 315,-254.5 566,-254.5 566,-233.5 315,-233.5"/>
<polygon fill="none" stroke="#8ccbf2" points="315,-233.5 315,-254.5 566,-254.5 566,-233.5 315,-233.5"/>
<text text-anchor="start" x="318" y="-241.3" font-family="mono" font-size="14.00" fill="#c83500">subprotocol</text>
<text text-anchor="start" x="409" y="-241.3" font-family="Times,serif" font-size="14.00"> : </text>
<text text-anchor="start" x="423" y="-241.3" font-family="mono" font-size="14.00" fill="#c83500">string</text>
<polygon fill="#ddeeff" stroke="transparent" points="315,-212.5 315,-233.5 566,-233.5 566,-212.5 315,-212.5"/>
<polygon fill="none" stroke="#8ccbf2" points="315,-212.5 315,-233.5 566,-233.5 566,-212.5 315,-212.5"/>
<text text-anchor="start" x="318" y="-220.3" font-family="mono" font-size="14.00" fill="#c83500">scopes</text>
<text text-anchor="start" x="368" y="-220.3" font-family="Times,serif" font-size="14.00"> : (Array of) </text>
<text text-anchor="start" x="455" y="-220.3" font-family="mono" font-size="14.00" fill="#c83500">string</text>
</g>
<!-- Form&#45;&gt;AdditionalExpectedResponse -->
<g id="edge4" class="edge">
<title>Form&#45;&gt;AdditionalExpectedResponse</title>
<path fill="none" stroke="black" d="M315.96,-208.98C281.01,-193.33 243.77,-176.66 211.53,-162.23"/>
<polygon fill="black" stroke="black" points="212.7,-158.92 202.14,-158.03 209.84,-165.31 212.7,-158.92"/>
<text text-anchor="start" x="274" y="-179.8" font-family="mono" font-size="14.00" fill="#c83500">additionalResponses</text>
<text text-anchor="middle" x="189.64" y="-161.83" font-family="Times,serif" font-size="14.00">0..*</text>
</g>
<!-- Form&#45;&gt;ExpectedResponse -->
<g id="edge2" class="edge">
<title>Form&#45;&gt;ExpectedResponse</title>
<path fill="none" stroke="black" d="M440,-208.77C440,-191.51 440,-173.01 440,-157.67"/>
<polygon fill="black" stroke="black" points="443.5,-157.61 440,-147.61 436.5,-157.61 443.5,-157.61"/>
<text text-anchor="start" x="440" y="-179.8" font-family="mono" font-size="14.00" fill="#c83500">response</text>
<text text-anchor="middle" x="426" y="-151.41" font-family="Times,serif" font-size="14.00">0..1</text>
</g>
<!-- SecurityScheme -->
<g id="node6" class="node">
<title>SecurityScheme</title>
<polygon fill="#f2f2f2" stroke="transparent" points="638,-111.5 638,-132.5 760,-132.5 760,-111.5 638,-111.5"/>
<polygon fill="none" stroke="#8c8c8c" points="638,-111.5 638,-132.5 760,-132.5 760,-111.5 638,-111.5"/>
<text text-anchor="start" x="641" y="-119.3" font-family="mono" font-weight="bold" font-size="14.00">SecurityScheme</text>
</g>
<!-- Form&#45;&gt;SecurityScheme -->
<g id="edge3" class="edge">
<title>Form&#45;&gt;SecurityScheme</title>
<path fill="none" stroke="black" d="M541.99,-208.98C582.83,-186.74 627.5,-162.42 658.72,-145.43"/>
<polygon fill="black" stroke="black" points="660.44,-148.48 667.55,-140.62 657.1,-142.33 660.44,-148.48"/>
<text text-anchor="start" x="601" y="-179.8" font-family="mono" font-size="14.00" fill="#c83500">security</text>
<text text-anchor="middle" x="655.05" y="-144.42" font-family="Times,serif" font-size="14.00">0..*</text>
</g>
<!-- Link -->
<g id="node4" class="node">
<title>Link</title>
<polygon fill="#8ccbf2" stroke="transparent" points="600,-265.5 600,-286.5 777,-286.5 777,-265.5 600,-265.5"/>
<polygon fill="none" stroke="#8ccbf2" points="600,-265.5 600,-286.5 777,-286.5 777,-265.5 600,-265.5"/>
<text text-anchor="start" x="671.5" y="-273.3" font-family="mono" font-weight="bold" font-size="14.00" fill="#c83500">Link</text>
<polygon fill="#ddeeff" stroke="transparent" points="600,-244.5 600,-265.5 777,-265.5 777,-244.5 600,-244.5"/>
<polygon fill="none" stroke="#8ccbf2" points="600,-244.5 600,-265.5 777,-265.5 777,-244.5 600,-244.5"/>
<text text-anchor="start" x="603" y="-252.3" font-family="mono" font-size="14.00" fill="#c83500">type</text>
<text text-anchor="start" x="637" y="-252.3" font-family="Times,serif" font-size="14.00"> : (Array of) </text>
<text text-anchor="start" x="724" y="-252.3" font-family="mono" font-size="14.00" fill="#c83500">string</text>
</g>
</g>
</svg>
