<?xml version="1.0" encoding="UTF-8" standalone="no"?>
<!DOCTYPE svg PUBLIC "-//W3C//DTD SVG 1.1//EN"
 "http://www.w3.org/Graphics/SVG/1.1/DTD/svg11.dtd">
<!-- Generated by graphviz version 2.38.0 (20140413.2041)
 -->
<!-- Title: %3 Pages: 1 -->
<svg width="514pt" height="306pt"
 viewBox="0.00 0.00 513.50 306.00" xmlns="http://www.w3.org/2000/svg" xmlns:xlink="http://www.w3.org/1999/xlink">
<g id="graph0" class="graph" transform="scale(1 1) rotate(0) translate(4 302)">
<title>%3</title>
<polygon fill="white" stroke="none" points="-4,4 -4,-302 509.5,-302 509.5,4 -4,4"/>
<!-- AdditionalExpectedResponse -->
<g id="node1" class="node"><title>AdditionalExpectedResponse</title>
<polygon fill="#8ccbf2" stroke="none" points="8.5,-67 8.5,-88 229.5,-88 229.5,-67 8.5,-67"/>
<polygon fill="none" stroke="#8ccbf2" points="8.5,-67 8.5,-88 229.5,-88 229.5,-67 8.5,-67"/>
<text text-anchor="start" x="11.5" y="-74.8" font-family="mono" font-weight="bold" font-size="14.00" fill="#c83500">AdditionalExpectedResponse</text>
<polygon fill="#ddeeff" stroke="none" points="8.5,-46 8.5,-67 229.5,-67 229.5,-46 8.5,-46"/>
<polygon fill="none" stroke="#8ccbf2" points="8.5,-46 8.5,-67 229.5,-67 229.5,-46 8.5,-46"/>
<text text-anchor="start" x="11.5" y="-53.8" font-family="mono" font-size="14.00" fill="#c83500">schema</text>
<text text-anchor="start" x="61.5" y="-53.8" font-family="Times,serif" font-size="14.00"> : </text>
<text text-anchor="start" x="73.5" y="-53.8" font-family="mono" font-size="14.00" fill="#c83500">string</text>
<polygon fill="#ddeeff" stroke="none" points="8.5,-25 8.5,-46 229.5,-46 229.5,-25 8.5,-25"/>
<polygon fill="none" stroke="#8ccbf2" points="8.5,-25 8.5,-46 229.5,-46 229.5,-25 8.5,-25"/>
<text text-anchor="start" x="11.5" y="-32.8" font-family="mono" font-size="14.00" fill="#c83500">success</text>
<text text-anchor="start" x="69.5" y="-32.8" font-family="Times,serif" font-size="14.00"> : </text>
<text text-anchor="start" x="81.5" y="-32.8" font-family="mono" font-size="14.00" fill="#c83500">boolean</text>
<polygon fill="#ddeeff" stroke="none" points="8.5,-4 8.5,-25 229.5,-25 229.5,-4 8.5,-4"/>
<polygon fill="none" stroke="#8ccbf2" points="8.5,-4 8.5,-25 229.5,-25 229.5,-4 8.5,-4"/>
<text text-anchor="start" x="11.5" y="-11.8" font-family="mono" font-size="14.00" fill="#c83500">contentType</text>
<text text-anchor="start" x="102.5" y="-11.8" font-family="Times,serif" font-size="14.00"> : </text>
<text text-anchor="start" x="114.5" y="-11.8" font-family="mono" font-size="14.00" fill="#c83500">string</text>
</g>
<!-- ExpectedResponse -->
<g id="node2" class="node"><title>ExpectedResponse</title>
<polygon fill="#8ccbf2" stroke="none" points="263.5,-46 263.5,-67 494.5,-67 494.5,-46 263.5,-46"/>
<polygon fill="none" stroke="#8ccbf2" points="263.5,-46 263.5,-67 494.5,-67 494.5,-46 263.5,-46"/>
<text text-anchor="start" x="312.5" y="-53.8" font-family="mono" font-weight="bold" font-size="14.00" fill="#c83500">ExpectedResponse</text>
<polygon fill="#ddeeff" stroke="none" points="263.5,-25 263.5,-46 494.5,-46 494.5,-25 263.5,-25"/>
<polygon fill="none" stroke="#8ccbf2" points="263.5,-25 263.5,-46 494.5,-46 494.5,-25 263.5,-25"/>
<text text-anchor="start" x="266.5" y="-32.8" font-family="mono" font-size="14.00" fill="#c83500">contentType</text>
<text text-anchor="start" x="357.5" y="-32.8" font-family="Times,serif" font-size="14.00"> : </text>
<text text-anchor="start" x="369.5" y="-32.8" font-family="mono" font-size="14.00" fill="#c83500">string</text>
<text text-anchor="start" x="419.5" y="-32.8" font-family="Times,serif" font-size="14.00"> </text>
<text text-anchor="start" x="423.5" y="-32.8" font-family="Times,serif" font-style="italic" font-size="14.00">(mandatory)</text>
</g>
<!-- Form -->
<g id="node3" class="node"><title>Form</title>
<polygon fill="#8ccbf2" stroke="none" points="151.5,-272.5 151.5,-293.5 345.5,-293.5 345.5,-272.5 151.5,-272.5"/>
<polygon fill="none" stroke="#8ccbf2" points="151.5,-272.5 151.5,-293.5 345.5,-293.5 345.5,-272.5 151.5,-272.5"/>
<text text-anchor="start" x="231.5" y="-280.3" font-family="mono" font-weight="bold" font-size="14.00" fill="#c83500">Form</text>
<polygon fill="#ddeeff" stroke="none" points="151.5,-251.5 151.5,-272.5 345.5,-272.5 345.5,-251.5 151.5,-251.5"/>
<polygon fill="none" stroke="#8ccbf2" points="151.5,-251.5 151.5,-272.5 345.5,-272.5 345.5,-251.5 151.5,-251.5"/>
<text text-anchor="start" x="154.5" y="-259.3" font-family="mono" font-size="14.00" fill="#c83500">contentType</text>
<text text-anchor="start" x="245.5" y="-259.3" font-family="Times,serif" font-size="14.00"> : </text>
<text text-anchor="start" x="257.5" y="-259.3" font-family="mono" font-size="14.00" fill="#c83500">string</text>
<polygon fill="#ddeeff" stroke="none" points="151.5,-230.5 151.5,-251.5 345.5,-251.5 345.5,-230.5 151.5,-230.5"/>
<polygon fill="none" stroke="#8ccbf2" points="151.5,-230.5 151.5,-251.5 345.5,-251.5 345.5,-230.5 151.5,-230.5"/>
<text text-anchor="start" x="154.5" y="-238.3" font-family="mono" font-size="14.00" fill="#c83500">contentCoding</text>
<text text-anchor="start" x="262.5" y="-238.3" font-family="Times,serif" font-size="14.00"> : </text>
<text text-anchor="start" x="274.5" y="-238.3" font-family="mono" font-size="14.00" fill="#c83500">string</text>
<polygon fill="#ddeeff" stroke="none" points="151.5,-209.5 151.5,-230.5 345.5,-230.5 345.5,-209.5 151.5,-209.5"/>
<polygon fill="none" stroke="#8ccbf2" points="151.5,-209.5 151.5,-230.5 345.5,-230.5 345.5,-209.5 151.5,-209.5"/>
<text text-anchor="start" x="154.5" y="-217.3" font-family="mono" font-size="14.00" fill="#c83500">op</text>
<text text-anchor="start" x="171.5" y="-217.3" font-family="Times,serif" font-size="14.00"> : (Array of) </text>
<text text-anchor="start" x="242.5" y="-217.3" font-family="mono" font-size="14.00" fill="#c83500">string</text>
<polygon fill="#ddeeff" stroke="none" points="151.5,-188.5 151.5,-209.5 345.5,-209.5 345.5,-188.5 151.5,-188.5"/>
<polygon fill="none" stroke="#8ccbf2" points="151.5,-188.5 151.5,-209.5 345.5,-209.5 345.5,-188.5 151.5,-188.5"/>
<text text-anchor="start" x="154.5" y="-196.3" font-family="mono" font-size="14.00" fill="#c83500">subprotocol</text>
<text text-anchor="start" x="245.5" y="-196.3" font-family="Times,serif" font-size="14.00"> : </text>
<text text-anchor="start" x="257.5" y="-196.3" font-family="mono" font-size="14.00" fill="#c83500">string</text>
<polygon fill="#ddeeff" stroke="none" points="151.5,-167.5 151.5,-188.5 345.5,-188.5 345.5,-167.5 151.5,-167.5"/>
<polygon fill="none" stroke="#8ccbf2" points="151.5,-167.5 151.5,-188.5 345.5,-188.5 345.5,-167.5 151.5,-167.5"/>
<text text-anchor="start" x="154.5" y="-175.3" font-family="mono" font-size="14.00" fill="#c83500">security</text>
<text text-anchor="start" x="221.5" y="-175.3" font-family="Times,serif" font-size="14.00"> : (Array of) </text>
<text text-anchor="start" x="292.5" y="-175.3" font-family="mono" font-size="14.00" fill="#c83500">string</text>
<polygon fill="#ddeeff" stroke="none" points="151.5,-146.5 151.5,-167.5 345.5,-167.5 345.5,-146.5 151.5,-146.5"/>
<polygon fill="none" stroke="#8ccbf2" points="151.5,-146.5 151.5,-167.5 345.5,-167.5 345.5,-146.5 151.5,-146.5"/>
<text text-anchor="start" x="154.5" y="-154.3" font-family="mono" font-size="14.00" fill="#c83500">scopes</text>
<text text-anchor="start" x="204.5" y="-154.3" font-family="Times,serif" font-size="14.00"> : (Array of) </text>
<text text-anchor="start" x="275.5" y="-154.3" font-family="mono" font-size="14.00" fill="#c83500">string</text>
</g>
<!-- Form&#45;&gt;AdditionalExpectedResponse -->
<g id="edge2" class="edge"><title>Form&#45;&gt;AdditionalExpectedResponse</title>
<path fill="none" stroke="black" d="M173.166,-142.817C168.362,-136.934 163.754,-130.963 159.5,-125 154.215,-117.592 149.172,-109.415 144.544,-101.227"/>
<polygon fill="black" stroke="black" points="147.568,-99.4619 139.694,-92.3733 141.429,-102.825 147.568,-99.4619"/>
<text text-anchor="start" x="159.5" y="-113.8" font-family="mono" font-size="14.00" fill="#c83500">additionalResponses</text>
<text text-anchor="middle" x="128.694" y="-96.1733" font-family="Times,serif" font-size="14.00">0..*</text>
</g>
<!-- Form&#45;&gt;ExpectedResponse -->
<g id="edge1" class="edge"><title>Form&#45;&gt;ExpectedResponse</title>
<path fill="none" stroke="black" d="M306.277,-142.834C323.06,-120.564 340.494,-97.4305 354.028,-79.4724"/>
<polygon fill="black" stroke="black" points="357.115,-81.1914 360.339,-71.0988 351.525,-76.9785 357.115,-81.1914"/>
<text text-anchor="start" x="328.5" y="-113.8" font-family="mono" font-size="14.00" fill="#c83500">response</text>
<text text-anchor="middle" x="349.339" y="-74.8988" font-family="Times,serif" font-size="14.00">0..1</text>
</g>
<!-- Link -->
<g id="node4" class="node"><title>Link</title>
<polygon fill="#8ccbf2" stroke="none" points="379.5,-251.5 379.5,-272.5 497.5,-272.5 497.5,-251.5 379.5,-251.5"/>
<polygon fill="none" stroke="#8ccbf2" points="379.5,-251.5 379.5,-272.5 497.5,-272.5 497.5,-251.5 379.5,-251.5"/>
<text text-anchor="start" x="421.5" y="-259.3" font-family="mono" font-weight="bold" font-size="14.00" fill="#c83500">Link</text>
<polygon fill="#ddeeff" stroke="none" points="379.5,-230.5 379.5,-251.5 497.5,-251.5 497.5,-230.5 379.5,-230.5"/>
<polygon fill="none" stroke="#8ccbf2" points="379.5,-230.5 379.5,-251.5 497.5,-251.5 497.5,-230.5 379.5,-230.5"/>
<text text-anchor="start" x="382.5" y="-238.3" font-family="mono" font-size="14.00" fill="#c83500">type</text>
<text text-anchor="start" x="416.5" y="-238.3" font-family="Times,serif" font-size="14.00"> : </text>
<text text-anchor="start" x="428.5" y="-238.3" font-family="mono" font-size="14.00" fill="#c83500">string</text>
<polygon fill="#ddeeff" stroke="none" points="379.5,-209.5 379.5,-230.5 497.5,-230.5 497.5,-209.5 379.5,-209.5"/>
<polygon fill="none" stroke="#8ccbf2" points="379.5,-209.5 379.5,-230.5 497.5,-230.5 497.5,-209.5 379.5,-209.5"/>
<text text-anchor="start" x="382.5" y="-217.3" font-family="mono" font-size="14.00" fill="#c83500">rel</text>
<text text-anchor="start" x="407.5" y="-217.3" font-family="Times,serif" font-size="14.00"> : </text>
<text text-anchor="start" x="419.5" y="-217.3" font-family="mono" font-size="14.00" fill="#c83500">string</text>
<polygon fill="#ddeeff" stroke="none" points="379.5,-188.5 379.5,-209.5 497.5,-209.5 497.5,-188.5 379.5,-188.5"/>
<polygon fill="none" stroke="#8ccbf2" points="379.5,-188.5 379.5,-209.5 497.5,-209.5 497.5,-188.5 379.5,-188.5"/>
<text text-anchor="start" x="382.5" y="-196.3" font-family="mono" font-size="14.00" fill="#c83500">anchor</text>
<text text-anchor="start" x="432.5" y="-196.3" font-family="Times,serif" font-size="14.00"> : </text>
<text text-anchor="start" x="444.5" y="-196.3" font-family="mono" font-size="14.00" fill="#c83500">anyURI</text>
<polygon fill="#ddeeff" stroke="none" points="379.5,-167.5 379.5,-188.5 497.5,-188.5 497.5,-167.5 379.5,-167.5"/>
<polygon fill="none" stroke="#8ccbf2" points="379.5,-167.5 379.5,-188.5 497.5,-188.5 497.5,-167.5 379.5,-167.5"/>
<text text-anchor="start" x="382.5" y="-175.3" font-family="mono" font-size="14.00" fill="#c83500">sizes</text>
<text text-anchor="start" x="424.5" y="-175.3" font-family="Times,serif" font-size="14.00"> : </text>
<text text-anchor="start" x="436.5" y="-175.3" font-family="mono" font-size="14.00" fill="#c83500">string</text>
</g>
</g>
</svg>
