<?xml version="1.0" encoding="UTF-8" standalone="no"?>
<!DOCTYPE svg PUBLIC "-//W3C//DTD SVG 1.1//EN"
 "http://www.w3.org/Graphics/SVG/1.1/DTD/svg11.dtd">
<!-- Generated by graphviz version 2.43.0 (0)
 -->
<!-- Title: %3 Pages: 1 -->
<svg width="534pt" height="372pt"
 viewBox="0.00 0.00 533.50 372.00" xmlns="http://www.w3.org/2000/svg" xmlns:xlink="http://www.w3.org/1999/xlink">
<g id="graph0" class="graph" transform="scale(1 1) rotate(0) translate(4 368)">
<title>%3</title>
<polygon fill="white" stroke="transparent" points="-4,4 -4,-368 529.5,-368 529.5,4 -4,4"/>
<!-- AdditionalExpectedResponse -->
<g id="node1" class="node">
<title>AdditionalExpectedResponse</title>
<polygon fill="#8ccbf2" stroke="transparent" points="8.5,-132.5 8.5,-153.5 229.5,-153.5 229.5,-132.5 8.5,-132.5"/>
<polygon fill="none" stroke="#8ccbf2" points="8.5,-132.5 8.5,-153.5 229.5,-153.5 229.5,-132.5 8.5,-132.5"/>
<text text-anchor="start" x="11.5" y="-140.3" font-family="mono" font-weight="bold" font-size="14.00" fill="#c83500">AdditionalExpectedResponse</text>
<polygon fill="#ddeeff" stroke="transparent" points="8.5,-111.5 8.5,-132.5 229.5,-132.5 229.5,-111.5 8.5,-111.5"/>
<polygon fill="none" stroke="#8ccbf2" points="8.5,-111.5 8.5,-132.5 229.5,-132.5 229.5,-111.5 8.5,-111.5"/>
<text text-anchor="start" x="11.5" y="-119.3" font-family="mono" font-size="14.00" fill="#c83500">success</text>
<text text-anchor="start" x="69.5" y="-119.3" font-family="Times,serif" font-size="14.00"> : </text>
<text text-anchor="start" x="83.5" y="-119.3" font-family="mono" font-size="14.00" fill="#c83500">boolean</text>
<polygon fill="#ddeeff" stroke="transparent" points="8.5,-90.5 8.5,-111.5 229.5,-111.5 229.5,-90.5 8.5,-90.5"/>
<polygon fill="none" stroke="#8ccbf2" points="8.5,-90.5 8.5,-111.5 229.5,-111.5 229.5,-90.5 8.5,-90.5"/>
<text text-anchor="start" x="11.5" y="-98.3" font-family="mono" font-size="14.00" fill="#c83500">contentType</text>
<text text-anchor="start" x="102.5" y="-98.3" font-family="Times,serif" font-size="14.00"> : </text>
<text text-anchor="start" x="116.5" y="-98.3" font-family="mono" font-size="14.00" fill="#c83500">string</text>
</g>
<!-- DataSchema -->
<g id="node5" class="node">
<title>DataSchema</title>
<polygon fill="#f2f2f2" stroke="transparent" points="74.5,-7 74.5,-28 163.5,-28 163.5,-7 74.5,-7"/>
<polygon fill="none" stroke="#8c8c8c" points="74.5,-7 74.5,-28 163.5,-28 163.5,-7 74.5,-7"/>
<text text-anchor="start" x="77.5" y="-14.8" font-family="mono" font-weight="bold" font-size="14.00">DataSchema</text>
</g>
<!-- AdditionalExpectedResponse&#45;&gt;DataSchema -->
<g id="edge1" class="edge">
<title>AdditionalExpectedResponse&#45;&gt;DataSchema</title>
<path fill="none" stroke="black" d="M118.5,-86.8C118.5,-73.59 118.5,-58.74 118.5,-46.32"/>
<polygon fill="black" stroke="black" points="122,-46.12 118.5,-36.12 115,-46.12 122,-46.12"/>
<text text-anchor="start" x="118.5" y="-57.8" font-family="mono" font-size="14.00" fill="#c83500">schema</text>
<text text-anchor="middle" x="104.5" y="-39.92" font-family="Times,serif" font-size="14.00">0..1</text>
</g>
<!-- ExpectedResponse -->
<g id="node2" class="node">
<title>ExpectedResponse</title>
<polygon fill="#8ccbf2" stroke="transparent" points="263.5,-122.5 263.5,-143.5 517.5,-143.5 517.5,-122.5 263.5,-122.5"/>
<polygon fill="none" stroke="#8ccbf2" points="263.5,-122.5 263.5,-143.5 517.5,-143.5 517.5,-122.5 263.5,-122.5"/>
<text text-anchor="start" x="324" y="-130.3" font-family="mono" font-weight="bold" font-size="14.00" fill="#c83500">ExpectedResponse</text>
<polygon fill="#ddeeff" stroke="transparent" points="263.5,-101.5 263.5,-122.5 517.5,-122.5 517.5,-101.5 263.5,-101.5"/>
<polygon fill="none" stroke="#8ccbf2" points="263.5,-101.5 263.5,-122.5 517.5,-122.5 517.5,-101.5 263.5,-101.5"/>
<text text-anchor="start" x="266.5" y="-109.3" font-family="mono" font-size="14.00" fill="#c83500">contentType</text>
<text text-anchor="start" x="357.5" y="-109.3" font-family="Times,serif" font-size="14.00"> : </text>
<text text-anchor="start" x="371.5" y="-109.3" font-family="mono" font-size="14.00" fill="#c83500">string</text>
<text text-anchor="start" x="421.5" y="-109.3" font-family="Times,serif" font-size="14.00"> </text>
<text text-anchor="start" x="426.5" y="-109.3" font-family="Times,serif" font-style="italic" font-size="14.00">(mandatory)</text>
</g>
<!-- Form -->
<g id="node3" class="node">
<title>Form</title>
<polygon fill="#8ccbf2" stroke="transparent" points="149.5,-338.5 149.5,-359.5 359.5,-359.5 359.5,-338.5 149.5,-338.5"/>
<polygon fill="none" stroke="#8ccbf2" points="149.5,-338.5 149.5,-359.5 359.5,-359.5 359.5,-338.5 149.5,-338.5"/>
<text text-anchor="start" x="237.5" y="-346.3" font-family="mono" font-weight="bold" font-size="14.00" fill="#c83500">Form</text>
<polygon fill="#ddeeff" stroke="transparent" points="149.5,-317.5 149.5,-338.5 359.5,-338.5 359.5,-317.5 149.5,-317.5"/>
<polygon fill="none" stroke="#8ccbf2" points="149.5,-317.5 149.5,-338.5 359.5,-338.5 359.5,-317.5 149.5,-317.5"/>
<text text-anchor="start" x="152.5" y="-325.3" font-family="mono" font-size="14.00" fill="#c83500">contentType</text>
<text text-anchor="start" x="243.5" y="-325.3" font-family="Times,serif" font-size="14.00"> : </text>
<text text-anchor="start" x="257.5" y="-325.3" font-family="mono" font-size="14.00" fill="#c83500">string</text>
<polygon fill="#ddeeff" stroke="transparent" points="149.5,-296.5 149.5,-317.5 359.5,-317.5 359.5,-296.5 149.5,-296.5"/>
<polygon fill="none" stroke="#8ccbf2" points="149.5,-296.5 149.5,-317.5 359.5,-317.5 359.5,-296.5 149.5,-296.5"/>
<text text-anchor="start" x="152.5" y="-304.3" font-family="mono" font-size="14.00" fill="#c83500">contentCoding</text>
<text text-anchor="start" x="260.5" y="-304.3" font-family="Times,serif" font-size="14.00"> : </text>
<text text-anchor="start" x="274.5" y="-304.3" font-family="mono" font-size="14.00" fill="#c83500">string</text>
<polygon fill="#ddeeff" stroke="transparent" points="149.5,-275.5 149.5,-296.5 359.5,-296.5 359.5,-275.5 149.5,-275.5"/>
<polygon fill="none" stroke="#8ccbf2" points="149.5,-275.5 149.5,-296.5 359.5,-296.5 359.5,-275.5 149.5,-275.5"/>
<text text-anchor="start" x="152.5" y="-283.3" font-family="mono" font-size="14.00" fill="#c83500">op</text>
<text text-anchor="start" x="169.5" y="-283.3" font-family="Times,serif" font-size="14.00"> : (Array of) </text>
<text text-anchor="start" x="256.5" y="-283.3" font-family="mono" font-size="14.00" fill="#c83500">string</text>
<polygon fill="#ddeeff" stroke="transparent" points="149.5,-254.5 149.5,-275.5 359.5,-275.5 359.5,-254.5 149.5,-254.5"/>
<polygon fill="none" stroke="#8ccbf2" points="149.5,-254.5 149.5,-275.5 359.5,-275.5 359.5,-254.5 149.5,-254.5"/>
<text text-anchor="start" x="152.5" y="-262.3" font-family="mono" font-size="14.00" fill="#c83500">subprotocol</text>
<text text-anchor="start" x="243.5" y="-262.3" font-family="Times,serif" font-size="14.00"> : </text>
<text text-anchor="start" x="257.5" y="-262.3" font-family="mono" font-size="14.00" fill="#c83500">string</text>
<polygon fill="#ddeeff" stroke="transparent" points="149.5,-233.5 149.5,-254.5 359.5,-254.5 359.5,-233.5 149.5,-233.5"/>
<polygon fill="none" stroke="#8ccbf2" points="149.5,-233.5 149.5,-254.5 359.5,-254.5 359.5,-233.5 149.5,-233.5"/>
<text text-anchor="start" x="152.5" y="-241.3" font-family="mono" font-size="14.00" fill="#c83500">security</text>
<text text-anchor="start" x="219.5" y="-241.3" font-family="Times,serif" font-size="14.00"> : (Array of) </text>
<text text-anchor="start" x="306.5" y="-241.3" font-family="mono" font-size="14.00" fill="#c83500">string</text>
<polygon fill="#ddeeff" stroke="transparent" points="149.5,-212.5 149.5,-233.5 359.5,-233.5 359.5,-212.5 149.5,-212.5"/>
<polygon fill="none" stroke="#8ccbf2" points="149.5,-212.5 149.5,-233.5 359.5,-233.5 359.5,-212.5 149.5,-212.5"/>
<text text-anchor="start" x="152.5" y="-220.3" font-family="mono" font-size="14.00" fill="#c83500">scopes</text>
<text text-anchor="start" x="202.5" y="-220.3" font-family="Times,serif" font-size="14.00"> : (Array of) </text>
<text text-anchor="start" x="289.5" y="-220.3" font-family="mono" font-size="14.00" fill="#c83500">string</text>
</g>
<!-- Form&#45;&gt;AdditionalExpectedResponse -->
<g id="edge3" class="edge">
<title>Form&#45;&gt;AdditionalExpectedResponse</title>
<path fill="none" stroke="black" d="M188.47,-208.79C183.39,-202.79 178.35,-196.8 173.5,-191 166.82,-183 159.74,-174.41 152.97,-166.14"/>
<polygon fill="black" stroke="black" points="155.63,-163.86 146.6,-158.32 150.21,-168.28 155.63,-163.86"/>
<text text-anchor="start" x="173.5" y="-179.8" font-family="mono" font-size="14.00" fill="#c83500">additionalResponses</text>
<text text-anchor="middle" x="134.1" y="-162.12" font-family="Times,serif" font-size="14.00">0..*</text>
</g>
<!-- Form&#45;&gt;ExpectedResponse -->
<g id="edge2" class="edge">
<title>Form&#45;&gt;ExpectedResponse</title>
<path fill="none" stroke="black" d="M318.92,-208.77C334.7,-189.97 350.74,-170.86 363.63,-155.51"/>
<polygon fill="black" stroke="black" points="366.32,-157.75 370.06,-147.84 360.95,-153.25 366.32,-157.75"/>
<text text-anchor="start" x="342.5" y="-179.8" font-family="mono" font-size="14.00" fill="#c83500">response</text>
<text text-anchor="middle" x="356.06" y="-151.64" font-family="Times,serif" font-size="14.00">0..1</text>
</g>
<!-- Link -->
<g id="node4" class="node">
<title>Link</title>
<polygon fill="#8ccbf2" stroke="transparent" points="393.5,-317.5 393.5,-338.5 513.5,-338.5 513.5,-317.5 393.5,-317.5"/>
<polygon fill="none" stroke="#8ccbf2" points="393.5,-317.5 393.5,-338.5 513.5,-338.5 513.5,-317.5 393.5,-317.5"/>
<text text-anchor="start" x="436.5" y="-325.3" font-family="mono" font-weight="bold" font-size="14.00" fill="#c83500">Link</text>
<polygon fill="#ddeeff" stroke="transparent" points="393.5,-296.5 393.5,-317.5 513.5,-317.5 513.5,-296.5 393.5,-296.5"/>
<polygon fill="none" stroke="#8ccbf2" points="393.5,-296.5 393.5,-317.5 513.5,-317.5 513.5,-296.5 393.5,-296.5"/>
<text text-anchor="start" x="396.5" y="-304.3" font-family="mono" font-size="14.00" fill="#c83500">type</text>
<text text-anchor="start" x="430.5" y="-304.3" font-family="Times,serif" font-size="14.00"> : </text>
<text text-anchor="start" x="444.5" y="-304.3" font-family="mono" font-size="14.00" fill="#c83500">string</text>
<polygon fill="#ddeeff" stroke="transparent" points="393.5,-275.5 393.5,-296.5 513.5,-296.5 513.5,-275.5 393.5,-275.5"/>
<polygon fill="none" stroke="#8ccbf2" points="393.5,-275.5 393.5,-296.5 513.5,-296.5 513.5,-275.5 393.5,-275.5"/>
<text text-anchor="start" x="396.5" y="-283.3" font-family="mono" font-size="14.00" fill="#c83500">rel</text>
<text text-anchor="start" x="421.5" y="-283.3" font-family="Times,serif" font-size="14.00"> : </text>
<text text-anchor="start" x="435.5" y="-283.3" font-family="mono" font-size="14.00" fill="#c83500">string</text>
<polygon fill="#ddeeff" stroke="transparent" points="393.5,-254.5 393.5,-275.5 513.5,-275.5 513.5,-254.5 393.5,-254.5"/>
<polygon fill="none" stroke="#8ccbf2" points="393.5,-254.5 393.5,-275.5 513.5,-275.5 513.5,-254.5 393.5,-254.5"/>
<text text-anchor="start" x="396.5" y="-262.3" font-family="mono" font-size="14.00" fill="#c83500">anchor</text>
<text text-anchor="start" x="446.5" y="-262.3" font-family="Times,serif" font-size="14.00"> : </text>
<text text-anchor="start" x="460.5" y="-262.3" font-family="mono" font-size="14.00" fill="#c83500">anyURI</text>
<polygon fill="#ddeeff" stroke="transparent" points="393.5,-233.5 393.5,-254.5 513.5,-254.5 513.5,-233.5 393.5,-233.5"/>
<polygon fill="none" stroke="#8ccbf2" points="393.5,-233.5 393.5,-254.5 513.5,-254.5 513.5,-233.5 393.5,-233.5"/>
<text text-anchor="start" x="396.5" y="-241.3" font-family="mono" font-size="14.00" fill="#c83500">sizes</text>
<text text-anchor="start" x="438.5" y="-241.3" font-family="Times,serif" font-size="14.00"> : </text>
<text text-anchor="start" x="452.5" y="-241.3" font-family="mono" font-size="14.00" fill="#c83500">string</text>
</g>
</g>
</svg>
