<?xml version="1.0" encoding="UTF-8" standalone="no"?>
<!DOCTYPE svg PUBLIC "-//W3C//DTD SVG 1.1//EN"
 "http://www.w3.org/Graphics/SVG/1.1/DTD/svg11.dtd">
<!-- Generated by graphviz version 7.0.0 (0)
 -->
<!-- Pages: 1 -->
<svg width="620pt" height="306pt"
 viewBox="0.00 0.00 619.50 306.00" xmlns="http://www.w3.org/2000/svg" xmlns:xlink="http://www.w3.org/1999/xlink">
<g id="graph0" class="graph" transform="scale(1 1) rotate(0) translate(4 302)">
<polygon fill="white" stroke="none" points="-4,4 -4,-302 615.5,-302 615.5,4 -4,4"/>
<!-- AdditionalExpectedResponse -->
<g id="node1" class="node">
<title>AdditionalExpectedResponse</title>
<polygon fill="#8ccbf2" stroke="none" points="8.5,-67 8.5,-88 229.5,-88 229.5,-67 8.5,-67"/>
<polygon fill="none" stroke="#8ccbf2" points="8.5,-67 8.5,-88 229.5,-88 229.5,-67 8.5,-67"/>
<text text-anchor="start" x="11.5" y="-74.8" font-family="mono" font-weight="bold" font-size="14.00" fill="#c83500">AdditionalExpectedResponse</text>
<polygon fill="#ddeeff" stroke="none" points="8.5,-46 8.5,-67 229.5,-67 229.5,-46 8.5,-46"/>
<polygon fill="none" stroke="#8ccbf2" points="8.5,-46 8.5,-67 229.5,-67 229.5,-46 8.5,-46"/>
<text text-anchor="start" x="11.5" y="-53.8" font-family="mono" font-size="14.00" fill="#c83500">schema</text>
<text text-anchor="start" x="61.5" y="-53.8" font-family="Times,serif" font-size="14.00"> : </text>
<text text-anchor="start" x="75.5" y="-53.8" font-family="mono" font-size="14.00" fill="#c83500">string</text>
<polygon fill="#ddeeff" stroke="none" points="8.5,-25 8.5,-46 229.5,-46 229.5,-25 8.5,-25"/>
<polygon fill="none" stroke="#8ccbf2" points="8.5,-25 8.5,-46 229.5,-46 229.5,-25 8.5,-25"/>
<text text-anchor="start" x="11.5" y="-32.8" font-family="mono" font-size="14.00" fill="#c83500">success</text>
<text text-anchor="start" x="69.5" y="-32.8" font-family="Times,serif" font-size="14.00"> : </text>
<text text-anchor="start" x="83.5" y="-32.8" font-family="mono" font-size="14.00" fill="#c83500">boolean</text>
<polygon fill="#ddeeff" stroke="none" points="8.5,-4 8.5,-25 229.5,-25 229.5,-4 8.5,-4"/>
<polygon fill="none" stroke="#8ccbf2" points="8.5,-4 8.5,-25 229.5,-25 229.5,-4 8.5,-4"/>
<text text-anchor="start" x="11.5" y="-11.8" font-family="mono" font-size="14.00" fill="#c83500">contentType</text>
<text text-anchor="start" x="102.5" y="-11.8" font-family="Times,serif" font-size="14.00"> : </text>
<text text-anchor="start" x="116.5" y="-11.8" font-family="mono" font-size="14.00" fill="#c83500">string</text>
</g>
<!-- ExpectedResponse -->
<g id="node2" class="node">
<title>ExpectedResponse</title>
<polygon fill="#8ccbf2" stroke="none" points="263.5,-46 263.5,-67 517.5,-67 517.5,-46 263.5,-46"/>
<polygon fill="none" stroke="#8ccbf2" points="263.5,-46 263.5,-67 517.5,-67 517.5,-46 263.5,-46"/>
<text text-anchor="start" x="324" y="-53.8" font-family="mono" font-weight="bold" font-size="14.00" fill="#c83500">ExpectedResponse</text>
<polygon fill="#ddeeff" stroke="none" points="263.5,-25 263.5,-46 517.5,-46 517.5,-25 263.5,-25"/>
<polygon fill="none" stroke="#8ccbf2" points="263.5,-25 263.5,-46 517.5,-46 517.5,-25 263.5,-25"/>
<text text-anchor="start" x="266.5" y="-32.8" font-family="mono" font-size="14.00" fill="#c83500">contentType</text>
<text text-anchor="start" x="357.5" y="-32.8" font-family="Times,serif" font-size="14.00"> : </text>
<text text-anchor="start" x="371.5" y="-32.8" font-family="mono" font-size="14.00" fill="#c83500">string</text>
<text text-anchor="start" x="421.5" y="-32.8" font-family="Times,serif" font-size="14.00"> </text>
<text text-anchor="start" x="426.5" y="-32.8" font-family="Times,serif" font-style="italic" font-size="14.00">(mandatory)</text>
</g>
<!-- Form -->
<g id="node3" class="node">
<title>Form</title>
<polygon fill="#8ccbf2" stroke="none" points="149.5,-272.5 149.5,-293.5 359.5,-293.5 359.5,-272.5 149.5,-272.5"/>
<polygon fill="none" stroke="#8ccbf2" points="149.5,-272.5 149.5,-293.5 359.5,-293.5 359.5,-272.5 149.5,-272.5"/>
<text text-anchor="start" x="237.5" y="-280.3" font-family="mono" font-weight="bold" font-size="14.00" fill="#c83500">Form</text>
<polygon fill="#ddeeff" stroke="none" points="149.5,-251.5 149.5,-272.5 359.5,-272.5 359.5,-251.5 149.5,-251.5"/>
<polygon fill="none" stroke="#8ccbf2" points="149.5,-251.5 149.5,-272.5 359.5,-272.5 359.5,-251.5 149.5,-251.5"/>
<text text-anchor="start" x="152.5" y="-259.3" font-family="mono" font-size="14.00" fill="#c83500">contentType</text>
<text text-anchor="start" x="243.5" y="-259.3" font-family="Times,serif" font-size="14.00"> : </text>
<text text-anchor="start" x="257.5" y="-259.3" font-family="mono" font-size="14.00" fill="#c83500">string</text>
<polygon fill="#ddeeff" stroke="none" points="149.5,-230.5 149.5,-251.5 359.5,-251.5 359.5,-230.5 149.5,-230.5"/>
<polygon fill="none" stroke="#8ccbf2" points="149.5,-230.5 149.5,-251.5 359.5,-251.5 359.5,-230.5 149.5,-230.5"/>
<text text-anchor="start" x="152.5" y="-238.3" font-family="mono" font-size="14.00" fill="#c83500">contentCoding</text>
<text text-anchor="start" x="260.5" y="-238.3" font-family="Times,serif" font-size="14.00"> : </text>
<text text-anchor="start" x="274.5" y="-238.3" font-family="mono" font-size="14.00" fill="#c83500">string</text>
<polygon fill="#ddeeff" stroke="none" points="149.5,-209.5 149.5,-230.5 359.5,-230.5 359.5,-209.5 149.5,-209.5"/>
<polygon fill="none" stroke="#8ccbf2" points="149.5,-209.5 149.5,-230.5 359.5,-230.5 359.5,-209.5 149.5,-209.5"/>
<text text-anchor="start" x="152.5" y="-217.3" font-family="mono" font-size="14.00" fill="#c83500">op</text>
<text text-anchor="start" x="169.5" y="-217.3" font-family="Times,serif" font-size="14.00"> : (Array of) </text>
<text text-anchor="start" x="256.5" y="-217.3" font-family="mono" font-size="14.00" fill="#c83500">string</text>
<polygon fill="#ddeeff" stroke="none" points="149.5,-188.5 149.5,-209.5 359.5,-209.5 359.5,-188.5 149.5,-188.5"/>
<polygon fill="none" stroke="#8ccbf2" points="149.5,-188.5 149.5,-209.5 359.5,-209.5 359.5,-188.5 149.5,-188.5"/>
<text text-anchor="start" x="152.5" y="-196.3" font-family="mono" font-size="14.00" fill="#c83500">subprotocol</text>
<text text-anchor="start" x="243.5" y="-196.3" font-family="Times,serif" font-size="14.00"> : </text>
<text text-anchor="start" x="257.5" y="-196.3" font-family="mono" font-size="14.00" fill="#c83500">string</text>
<polygon fill="#ddeeff" stroke="none" points="149.5,-167.5 149.5,-188.5 359.5,-188.5 359.5,-167.5 149.5,-167.5"/>
<polygon fill="none" stroke="#8ccbf2" points="149.5,-167.5 149.5,-188.5 359.5,-188.5 359.5,-167.5 149.5,-167.5"/>
<text text-anchor="start" x="152.5" y="-175.3" font-family="mono" font-size="14.00" fill="#c83500">security</text>
<text text-anchor="start" x="219.5" y="-175.3" font-family="Times,serif" font-size="14.00"> : (Array of) </text>
<text text-anchor="start" x="306.5" y="-175.3" font-family="mono" font-size="14.00" fill="#c83500">string</text>
<polygon fill="#ddeeff" stroke="none" points="149.5,-146.5 149.5,-167.5 359.5,-167.5 359.5,-146.5 149.5,-146.5"/>
<polygon fill="none" stroke="#8ccbf2" points="149.5,-146.5 149.5,-167.5 359.5,-167.5 359.5,-146.5 149.5,-146.5"/>
<text text-anchor="start" x="152.5" y="-154.3" font-family="mono" font-size="14.00" fill="#c83500">scopes</text>
<text text-anchor="start" x="202.5" y="-154.3" font-family="Times,serif" font-size="14.00"> : (Array of) </text>
<text text-anchor="start" x="289.5" y="-154.3" font-family="mono" font-size="14.00" fill="#c83500">string</text>
</g>
<!-- Form&#45;&gt;AdditionalExpectedResponse -->
<g id="edge1" class="edge">
<title>Form&#45;&gt;AdditionalExpectedResponse</title>
<path fill="none" stroke="black" d="M194.25,-143.09C183.06,-128.88 171.57,-114.32 161.04,-100.96"/>
<polygon fill="black" stroke="black" points="163.79,-98.8 154.85,-93.11 158.3,-103.13 163.79,-98.8"/>
<text text-anchor="start" x="178.5" y="-113.8" font-family="mono" font-size="14.00" fill="#c83500">additionalResponses</text>
<text text-anchor="middle" x="141.42" y="-95.72" font-family="Times,serif" font-size="14.00">0..*</text>
</g>
<!-- Form&#45;&gt;ExpectedResponse -->
<g id="edge2" class="edge">
<title>Form&#45;&gt;ExpectedResponse</title>
<path fill="none" stroke="black" d="M324.86,-143.24C329.92,-137.16 334.86,-131.03 339.5,-125 350.4,-110.83 361.39,-94.36 370.37,-80.22"/>
<polygon fill="black" stroke="black" points="373.09,-82.47 375.43,-72.14 367.15,-78.75 373.09,-82.47"/>
<text text-anchor="start" x="349.5" y="-113.8" font-family="mono" font-size="14.00" fill="#c83500">response</text>
<text text-anchor="middle" x="362.23" y="-74.65" font-family="Times,serif" font-size="14.00">0..1</text>
</g>
<!-- Link -->
<g id="node4" class="node">
<title>Link</title>
<polygon fill="#8ccbf2" stroke="none" points="393.5,-262.5 393.5,-283.5 603.5,-283.5 603.5,-262.5 393.5,-262.5"/>
<polygon fill="none" stroke="#8ccbf2" points="393.5,-262.5 393.5,-283.5 603.5,-283.5 603.5,-262.5 393.5,-262.5"/>
<text text-anchor="start" x="481.5" y="-270.3" font-family="mono" font-weight="bold" font-size="14.00" fill="#c83500">Link</text>
<polygon fill="#ddeeff" stroke="none" points="393.5,-241.5 393.5,-262.5 603.5,-262.5 603.5,-241.5 393.5,-241.5"/>
<polygon fill="none" stroke="#8ccbf2" points="393.5,-241.5 393.5,-262.5 603.5,-262.5 603.5,-241.5 393.5,-241.5"/>
<text text-anchor="start" x="396.5" y="-249.3" font-family="mono" font-size="14.00" fill="#c83500">type</text>
<text text-anchor="start" x="430.5" y="-249.3" font-family="Times,serif" font-size="14.00"> : </text>
<text text-anchor="start" x="444.5" y="-249.3" font-family="mono" font-size="14.00" fill="#c83500">string</text>
<polygon fill="#ddeeff" stroke="none" points="393.5,-220.5 393.5,-241.5 603.5,-241.5 603.5,-220.5 393.5,-220.5"/>
<polygon fill="none" stroke="#8ccbf2" points="393.5,-220.5 393.5,-241.5 603.5,-241.5 603.5,-220.5 393.5,-220.5"/>
<text text-anchor="start" x="396.5" y="-228.3" font-family="mono" font-size="14.00" fill="#c83500">rel</text>
<text text-anchor="start" x="421.5" y="-228.3" font-family="Times,serif" font-size="14.00"> : </text>
<text text-anchor="start" x="435.5" y="-228.3" font-family="mono" font-size="14.00" fill="#c83500">string</text>
<polygon fill="#ddeeff" stroke="none" points="393.5,-199.5 393.5,-220.5 603.5,-220.5 603.5,-199.5 393.5,-199.5"/>
<polygon fill="none" stroke="#8ccbf2" points="393.5,-199.5 393.5,-220.5 603.5,-220.5 603.5,-199.5 393.5,-199.5"/>
<text text-anchor="start" x="396.5" y="-207.3" font-family="mono" font-size="14.00" fill="#c83500">anchor</text>
<text text-anchor="start" x="446.5" y="-207.3" font-family="Times,serif" font-size="14.00"> : </text>
<text text-anchor="start" x="460.5" y="-207.3" font-family="mono" font-size="14.00" fill="#c83500">anyURI</text>
<polygon fill="#ddeeff" stroke="none" points="393.5,-178.5 393.5,-199.5 603.5,-199.5 603.5,-178.5 393.5,-178.5"/>
<polygon fill="none" stroke="#8ccbf2" points="393.5,-178.5 393.5,-199.5 603.5,-199.5 603.5,-178.5 393.5,-178.5"/>
<text text-anchor="start" x="396.5" y="-186.3" font-family="mono" font-size="14.00" fill="#c83500">sizes</text>
<text text-anchor="start" x="438.5" y="-186.3" font-family="Times,serif" font-size="14.00"> : </text>
<text text-anchor="start" x="452.5" y="-186.3" font-family="mono" font-size="14.00" fill="#c83500">string</text>
<polygon fill="#ddeeff" stroke="none" points="393.5,-157.5 393.5,-178.5 603.5,-178.5 603.5,-157.5 393.5,-157.5"/>
<polygon fill="none" stroke="#8ccbf2" points="393.5,-157.5 393.5,-178.5 603.5,-178.5 603.5,-157.5 393.5,-157.5"/>
<text text-anchor="start" x="396.5" y="-165.3" font-family="mono" font-size="14.00" fill="#c83500">hreflang</text>
<text text-anchor="start" x="463.5" y="-165.3" font-family="Times,serif" font-size="14.00"> : (Array of) </text>
<text text-anchor="start" x="550.5" y="-165.3" font-family="mono" font-size="14.00" fill="#c83500">string</text>
</g>
</g>
</svg>
