<?xml version="1.0" encoding="UTF-8" standalone="no"?>
<!DOCTYPE svg PUBLIC "-//W3C//DTD SVG 1.1//EN"
 "http://www.w3.org/Graphics/SVG/1.1/DTD/svg11.dtd">
<!-- Generated by graphviz version 2.38.0 (20140413.2041)
 -->
<!-- Title: %3 Pages: 1 -->
<svg width="468pt" height="264pt"
 viewBox="0.00 0.00 468.00 264.00" xmlns="http://www.w3.org/2000/svg" xmlns:xlink="http://www.w3.org/1999/xlink">
<g id="graph0" class="graph" transform="scale(1 1) rotate(0) translate(4 260)">
<title>%3</title>
<polygon fill="white" stroke="none" points="-4,4 -4,-260 464,-260 464,4 -4,4"/>
<!-- AdditionalExpectedResponse -->
<g id="node1" class="node"><title>AdditionalExpectedResponse</title>
<text text-anchor="middle" x="88" y="-21.3" font-family="Times,serif" font-size="14.00">AdditionalExpectedResponse</text>
</g>
<!-- ExpectedResponse -->
<g id="node2" class="node"><title>ExpectedResponse</title>
<polygon fill="#8ccbf2" stroke="none" points="203,-25 203,-46 434,-46 434,-25 203,-25"/>
<polygon fill="none" stroke="#8ccbf2" points="203,-25 203,-46 434,-46 434,-25 203,-25"/>
<text text-anchor="start" x="252" y="-32.8" font-family="mono" font-weight="bold" font-size="14.00" fill="#c83500">ExpectedResponse</text>
<polygon fill="#ddeeff" stroke="none" points="203,-4 203,-25 434,-25 434,-4 203,-4"/>
<polygon fill="none" stroke="#8ccbf2" points="203,-4 203,-25 434,-25 434,-4 203,-4"/>
<text text-anchor="start" x="206" y="-11.8" font-family="mono" font-size="14.00" fill="#c83500">contentType</text>
<text text-anchor="start" x="297" y="-11.8" font-family="Times,serif" font-size="14.00"> : </text>
<text text-anchor="start" x="309" y="-11.8" font-family="mono" font-size="14.00" fill="#c83500">string</text>
<text text-anchor="start" x="359" y="-11.8" font-family="Times,serif" font-size="14.00"> </text>
<text text-anchor="start" x="363" y="-11.8" font-family="Times,serif" font-style="italic" font-size="14.00">(mandatory)</text>
</g>
<!-- Form -->
<g id="node3" class="node"><title>Form</title>
<polygon fill="#8ccbf2" stroke="none" points="106,-230.5 106,-251.5 300,-251.5 300,-230.5 106,-230.5"/>
<polygon fill="none" stroke="#8ccbf2" points="106,-230.5 106,-251.5 300,-251.5 300,-230.5 106,-230.5"/>
<text text-anchor="start" x="186" y="-238.3" font-family="mono" font-weight="bold" font-size="14.00" fill="#c83500">Form</text>
<polygon fill="#ddeeff" stroke="none" points="106,-209.5 106,-230.5 300,-230.5 300,-209.5 106,-209.5"/>
<polygon fill="none" stroke="#8ccbf2" points="106,-209.5 106,-230.5 300,-230.5 300,-209.5 106,-209.5"/>
<text text-anchor="start" x="109" y="-217.3" font-family="mono" font-size="14.00" fill="#c83500">contentType</text>
<text text-anchor="start" x="200" y="-217.3" font-family="Times,serif" font-size="14.00"> : </text>
<text text-anchor="start" x="212" y="-217.3" font-family="mono" font-size="14.00" fill="#c83500">string</text>
<polygon fill="#ddeeff" stroke="none" points="106,-188.5 106,-209.5 300,-209.5 300,-188.5 106,-188.5"/>
<polygon fill="none" stroke="#8ccbf2" points="106,-188.5 106,-209.5 300,-209.5 300,-188.5 106,-188.5"/>
<text text-anchor="start" x="109" y="-196.3" font-family="mono" font-size="14.00" fill="#c83500">contentCoding</text>
<text text-anchor="start" x="217" y="-196.3" font-family="Times,serif" font-size="14.00"> : </text>
<text text-anchor="start" x="229" y="-196.3" font-family="mono" font-size="14.00" fill="#c83500">string</text>
<polygon fill="#ddeeff" stroke="none" points="106,-167.5 106,-188.5 300,-188.5 300,-167.5 106,-167.5"/>
<polygon fill="none" stroke="#8ccbf2" points="106,-167.5 106,-188.5 300,-188.5 300,-167.5 106,-167.5"/>
<text text-anchor="start" x="109" y="-175.3" font-family="mono" font-size="14.00" fill="#c83500">op</text>
<text text-anchor="start" x="126" y="-175.3" font-family="Times,serif" font-size="14.00"> : (Array of) </text>
<text text-anchor="start" x="197" y="-175.3" font-family="mono" font-size="14.00" fill="#c83500">string</text>
<polygon fill="#ddeeff" stroke="none" points="106,-146.5 106,-167.5 300,-167.5 300,-146.5 106,-146.5"/>
<polygon fill="none" stroke="#8ccbf2" points="106,-146.5 106,-167.5 300,-167.5 300,-146.5 106,-146.5"/>
<text text-anchor="start" x="109" y="-154.3" font-family="mono" font-size="14.00" fill="#c83500">subprotocol</text>
<text text-anchor="start" x="200" y="-154.3" font-family="Times,serif" font-size="14.00"> : </text>
<text text-anchor="start" x="212" y="-154.3" font-family="mono" font-size="14.00" fill="#c83500">string</text>
<polygon fill="#ddeeff" stroke="none" points="106,-125.5 106,-146.5 300,-146.5 300,-125.5 106,-125.5"/>
<polygon fill="none" stroke="#8ccbf2" points="106,-125.5 106,-146.5 300,-146.5 300,-125.5 106,-125.5"/>
<text text-anchor="start" x="109" y="-133.3" font-family="mono" font-size="14.00" fill="#c83500">security</text>
<text text-anchor="start" x="176" y="-133.3" font-family="Times,serif" font-size="14.00"> : (Array of) </text>
<text text-anchor="start" x="247" y="-133.3" font-family="mono" font-size="14.00" fill="#c83500">string</text>
<polygon fill="#ddeeff" stroke="none" points="106,-104.5 106,-125.5 300,-125.5 300,-104.5 106,-104.5"/>
<polygon fill="none" stroke="#8ccbf2" points="106,-104.5 106,-125.5 300,-125.5 300,-104.5 106,-104.5"/>
<text text-anchor="start" x="109" y="-112.3" font-family="mono" font-size="14.00" fill="#c83500">scopes</text>
<text text-anchor="start" x="159" y="-112.3" font-family="Times,serif" font-size="14.00"> : (Array of) </text>
<text text-anchor="start" x="230" y="-112.3" font-family="mono" font-size="14.00" fill="#c83500">string</text>
</g>
<!-- Form&#45;&gt;AdditionalExpectedResponse -->
<g id="edge2" class="edge"><title>Form&#45;&gt;AdditionalExpectedResponse</title>
<path fill="none" stroke="black" d="M130.176,-100.747C125.541,-94.8807 121.097,-88.9319 117,-83 110.401,-73.4463 104.354,-62.1861 99.509,-52.2078"/>
<polygon fill="black" stroke="black" points="102.668,-50.7 95.2537,-43.1314 96.3297,-53.6715 102.668,-50.7"/>
<text text-anchor="start" x="117" y="-71.8" font-family="mono" font-size="14.00" fill="#c83500">additionalResponses</text>
<text text-anchor="middle" x="84.2537" y="-46.9314" font-family="Times,serif" font-size="14.00">0..*</text>
</g>
<!-- Form&#45;&gt;ExpectedResponse -->
<g id="edge1" class="edge"><title>Form&#45;&gt;ExpectedResponse</title>
<path fill="none" stroke="black" d="M261.174,-100.862C272.58,-85.8353 283.952,-70.8548 293.492,-58.2868"/>
<polygon fill="black" stroke="black" points="296.523,-60.0818 299.782,-50.0004 290.948,-55.8494 296.523,-60.0818"/>
<text text-anchor="start" x="285" y="-71.8" font-family="mono" font-size="14.00" fill="#c83500">response</text>
<text text-anchor="middle" x="288.782" y="-53.8004" font-family="Times,serif" font-size="14.00">0..1</text>
</g>
<!-- Link -->
<g id="node4" class="node"><title>Link</title>
<polygon fill="#8ccbf2" stroke="none" points="334,-209.5 334,-230.5 452,-230.5 452,-209.5 334,-209.5"/>
<polygon fill="none" stroke="#8ccbf2" points="334,-209.5 334,-230.5 452,-230.5 452,-209.5 334,-209.5"/>
<text text-anchor="start" x="376" y="-217.3" font-family="mono" font-weight="bold" font-size="14.00" fill="#c83500">Link</text>
<polygon fill="#ddeeff" stroke="none" points="334,-188.5 334,-209.5 452,-209.5 452,-188.5 334,-188.5"/>
<polygon fill="none" stroke="#8ccbf2" points="334,-188.5 334,-209.5 452,-209.5 452,-188.5 334,-188.5"/>
<text text-anchor="start" x="337" y="-196.3" font-family="mono" font-size="14.00" fill="#c83500">type</text>
<text text-anchor="start" x="371" y="-196.3" font-family="Times,serif" font-size="14.00"> : </text>
<text text-anchor="start" x="383" y="-196.3" font-family="mono" font-size="14.00" fill="#c83500">string</text>
<polygon fill="#ddeeff" stroke="none" points="334,-167.5 334,-188.5 452,-188.5 452,-167.5 334,-167.5"/>
<polygon fill="none" stroke="#8ccbf2" points="334,-167.5 334,-188.5 452,-188.5 452,-167.5 334,-167.5"/>
<text text-anchor="start" x="337" y="-175.3" font-family="mono" font-size="14.00" fill="#c83500">rel</text>
<text text-anchor="start" x="362" y="-175.3" font-family="Times,serif" font-size="14.00"> : </text>
<text text-anchor="start" x="374" y="-175.3" font-family="mono" font-size="14.00" fill="#c83500">string</text>
<polygon fill="#ddeeff" stroke="none" points="334,-146.5 334,-167.5 452,-167.5 452,-146.5 334,-146.5"/>
<polygon fill="none" stroke="#8ccbf2" points="334,-146.5 334,-167.5 452,-167.5 452,-146.5 334,-146.5"/>
<text text-anchor="start" x="337" y="-154.3" font-family="mono" font-size="14.00" fill="#c83500">anchor</text>
<text text-anchor="start" x="387" y="-154.3" font-family="Times,serif" font-size="14.00"> : </text>
<text text-anchor="start" x="399" y="-154.3" font-family="mono" font-size="14.00" fill="#c83500">anyURI</text>
<polygon fill="#ddeeff" stroke="none" points="334,-125.5 334,-146.5 452,-146.5 452,-125.5 334,-125.5"/>
<polygon fill="none" stroke="#8ccbf2" points="334,-125.5 334,-146.5 452,-146.5 452,-125.5 334,-125.5"/>
<text text-anchor="start" x="337" y="-133.3" font-family="mono" font-size="14.00" fill="#c83500">sizes</text>
<text text-anchor="start" x="379" y="-133.3" font-family="Times,serif" font-size="14.00"> : </text>
<text text-anchor="start" x="391" y="-133.3" font-family="mono" font-size="14.00" fill="#c83500">string</text>
</g>
</g>
</svg>
