<?xml version="1.0" encoding="UTF-8" standalone="no"?>
<!DOCTYPE svg PUBLIC "-//W3C//DTD SVG 1.1//EN"
 "http://www.w3.org/Graphics/SVG/1.1/DTD/svg11.dtd">
<!-- Generated by graphviz version 9.0.0 (0)
 -->
<!-- Pages: 1 -->
<svg width="585pt" height="360pt"
 viewBox="0.00 0.00 585.25 360.00" xmlns="http://www.w3.org/2000/svg" xmlns:xlink="http://www.w3.org/1999/xlink">
<g id="graph0" class="graph" transform="scale(1 1) rotate(0) translate(4 356)">
<polygon fill="white" stroke="none" points="-4,4 -4,-356 581.25,-356 581.25,4 -4,4"/>
<!-- AdditionalExpectedResponse -->
<g id="node1" class="node">
<title>AdditionalExpectedResponse</title>
<polygon fill="#8ccbf2" stroke="none" points="8,-80.5 8,-106 228.5,-106 228.5,-80.5 8,-80.5"/>
<polygon fill="none" stroke="#8ccbf2" points="8,-80.5 8,-106 228.5,-106 228.5,-80.5 8,-80.5"/>
<text text-anchor="start" x="11" y="-90.7" font-family="mono" font-weight="bold" font-size="14.00" fill="#c83500">AdditionalExpectedResponse</text>
<polygon fill="#ddeeff" stroke="none" points="8,-55 8,-80.5 228.5,-80.5 228.5,-55 8,-55"/>
<polygon fill="none" stroke="#8ccbf2" points="8,-55 8,-80.5 228.5,-80.5 228.5,-55 8,-55"/>
<text text-anchor="start" x="11" y="-65.2" font-family="mono" font-size="14.00" fill="#c83500">schema</text>
<text text-anchor="start" x="60.5" y="-65.2" font-family="Times,serif" font-size="14.00"> : </text>
<text text-anchor="start" x="71.75" y="-65.2" font-family="mono" font-size="14.00" fill="#c83500">string</text>
<polygon fill="#ddeeff" stroke="none" points="8,-29.5 8,-55 228.5,-55 228.5,-29.5 8,-29.5"/>
<polygon fill="none" stroke="#8ccbf2" points="8,-29.5 8,-55 228.5,-55 228.5,-29.5 8,-29.5"/>
<text text-anchor="start" x="11" y="-39.7" font-family="mono" font-size="14.00" fill="#c83500">success</text>
<text text-anchor="start" x="68.75" y="-39.7" font-family="Times,serif" font-size="14.00"> : </text>
<text text-anchor="start" x="80" y="-39.7" font-family="mono" font-size="14.00" fill="#c83500">boolean</text>
<polygon fill="#ddeeff" stroke="none" points="8,-4 8,-29.5 228.5,-29.5 228.5,-4 8,-4"/>
<polygon fill="none" stroke="#8ccbf2" points="8,-4 8,-29.5 228.5,-29.5 228.5,-4 8,-4"/>
<text text-anchor="start" x="11" y="-14.2" font-family="mono" font-size="14.00" fill="#c83500">contentType</text>
<text text-anchor="start" x="101.75" y="-14.2" font-family="Times,serif" font-size="14.00"> : </text>
<text text-anchor="start" x="113" y="-14.2" font-family="mono" font-size="14.00" fill="#c83500">string</text>
</g>
<!-- ExpectedResponse -->
<g id="node2" class="node">
<title>ExpectedResponse</title>
<polygon fill="#8ccbf2" stroke="none" points="262.88,-55 262.88,-80.5 491.62,-80.5 491.62,-55 262.88,-55"/>
<polygon fill="none" stroke="#8ccbf2" points="262.88,-55 262.88,-80.5 491.62,-80.5 491.62,-55 262.88,-55"/>
<text text-anchor="start" x="311.25" y="-65.2" font-family="mono" font-weight="bold" font-size="14.00" fill="#c83500">ExpectedResponse</text>
<polygon fill="#ddeeff" stroke="none" points="262.88,-29.5 262.88,-55 491.62,-55 491.62,-29.5 262.88,-29.5"/>
<polygon fill="none" stroke="#8ccbf2" points="262.88,-29.5 262.88,-55 491.62,-55 491.62,-29.5 262.88,-29.5"/>
<text text-anchor="start" x="265.88" y="-39.7" font-family="mono" font-size="14.00" fill="#c83500">contentType</text>
<text text-anchor="start" x="356.62" y="-39.7" font-family="Times,serif" font-size="14.00"> : </text>
<text text-anchor="start" x="367.88" y="-39.7" font-family="mono" font-size="14.00" fill="#c83500">string</text>
<text text-anchor="start" x="417.38" y="-39.7" font-family="Times,serif" font-size="14.00"> </text>
<text text-anchor="start" x="421.12" y="-39.7" font-family="Times,serif" font-style="italic" font-size="14.00">(mandatory)</text>
</g>
<!-- Form -->
<g id="node3" class="node">
<title>Form</title>
<polygon fill="#8ccbf2" stroke="none" points="151.25,-322.5 151.25,-348 343.25,-348 343.25,-322.5 151.25,-322.5"/>
<polygon fill="none" stroke="#8ccbf2" points="151.25,-322.5 151.25,-348 343.25,-348 343.25,-322.5 151.25,-322.5"/>
<text text-anchor="start" x="230.75" y="-332.7" font-family="mono" font-weight="bold" font-size="14.00" fill="#c83500">Form</text>
<polygon fill="#ddeeff" stroke="none" points="151.25,-297 151.25,-322.5 343.25,-322.5 343.25,-297 151.25,-297"/>
<polygon fill="none" stroke="#8ccbf2" points="151.25,-297 151.25,-322.5 343.25,-322.5 343.25,-297 151.25,-297"/>
<text text-anchor="start" x="154.25" y="-307.2" font-family="mono" font-size="14.00" fill="#c83500">href</text>
<text text-anchor="start" x="187.25" y="-307.2" font-family="Times,serif" font-size="14.00"> : </text>
<text text-anchor="start" x="198.5" y="-307.2" font-family="mono" font-size="14.00" fill="#c83500">anyURI</text>
<text text-anchor="start" x="248" y="-307.2" font-family="Times,serif" font-size="14.00"> </text>
<text text-anchor="start" x="251.75" y="-307.2" font-family="Times,serif" font-style="italic" font-size="14.00">(mandatory)</text>
<polygon fill="#ddeeff" stroke="none" points="151.25,-271.5 151.25,-297 343.25,-297 343.25,-271.5 151.25,-271.5"/>
<polygon fill="none" stroke="#8ccbf2" points="151.25,-271.5 151.25,-297 343.25,-297 343.25,-271.5 151.25,-271.5"/>
<text text-anchor="start" x="154.25" y="-281.7" font-family="mono" font-size="14.00" fill="#c83500">contentType</text>
<text text-anchor="start" x="245" y="-281.7" font-family="Times,serif" font-size="14.00"> : </text>
<text text-anchor="start" x="256.25" y="-281.7" font-family="mono" font-size="14.00" fill="#c83500">string</text>
<polygon fill="#ddeeff" stroke="none" points="151.25,-246 151.25,-271.5 343.25,-271.5 343.25,-246 151.25,-246"/>
<polygon fill="none" stroke="#8ccbf2" points="151.25,-246 151.25,-271.5 343.25,-271.5 343.25,-246 151.25,-246"/>
<text text-anchor="start" x="154.25" y="-256.2" font-family="mono" font-size="14.00" fill="#c83500">contentCoding</text>
<text text-anchor="start" x="261.5" y="-256.2" font-family="Times,serif" font-size="14.00"> : </text>
<text text-anchor="start" x="272.75" y="-256.2" font-family="mono" font-size="14.00" fill="#c83500">string</text>
<polygon fill="#ddeeff" stroke="none" points="151.25,-220.5 151.25,-246 343.25,-246 343.25,-220.5 151.25,-220.5"/>
<polygon fill="none" stroke="#8ccbf2" points="151.25,-220.5 151.25,-246 343.25,-246 343.25,-220.5 151.25,-220.5"/>
<text text-anchor="start" x="154.25" y="-230.7" font-family="mono" font-size="14.00" fill="#c83500">subprotocol</text>
<text text-anchor="start" x="245" y="-230.7" font-family="Times,serif" font-size="14.00"> : </text>
<text text-anchor="start" x="256.25" y="-230.7" font-family="mono" font-size="14.00" fill="#c83500">string</text>
<polygon fill="#ddeeff" stroke="none" points="151.25,-195 151.25,-220.5 343.25,-220.5 343.25,-195 151.25,-195"/>
<polygon fill="none" stroke="#8ccbf2" points="151.25,-195 151.25,-220.5 343.25,-220.5 343.25,-195 151.25,-195"/>
<text text-anchor="start" x="154.25" y="-205.2" font-family="mono" font-size="14.00" fill="#c83500">security</text>
<text text-anchor="start" x="220.25" y="-205.2" font-family="Times,serif" font-size="14.00"> : (Array of) </text>
<text text-anchor="start" x="290.75" y="-205.2" font-family="mono" font-size="14.00" fill="#c83500">string</text>
<polygon fill="#ddeeff" stroke="none" points="151.25,-169.5 151.25,-195 343.25,-195 343.25,-169.5 151.25,-169.5"/>
<polygon fill="none" stroke="#8ccbf2" points="151.25,-169.5 151.25,-195 343.25,-195 343.25,-169.5 151.25,-169.5"/>
<text text-anchor="start" x="154.25" y="-179.7" font-family="mono" font-size="14.00" fill="#c83500">scopes</text>
<text text-anchor="start" x="203.75" y="-179.7" font-family="Times,serif" font-size="14.00"> : (Array of) </text>
<text text-anchor="start" x="274.25" y="-179.7" font-family="mono" font-size="14.00" fill="#c83500">string</text>
</g>
<!-- Form&#45;&gt;AdditionalExpectedResponse -->
<g id="edge1" class="edge">
<title>Form&#45;&gt;AdditionalExpectedResponse</title>
<path fill="none" stroke="black" d="M188.41,-165.73C178.38,-150.04 168.17,-134.07 158.75,-119.34"/>
<polygon fill="black" stroke="black" points="161.84,-117.67 153.5,-111.13 155.94,-121.44 161.84,-117.67"/>
<text text-anchor="start" x="175.25" y="-134.2" font-family="mono" font-size="14.00" fill="#c83500">additionalResponses</text>
<text text-anchor="middle" x="142.19" y="-113.06" font-family="Times,serif" font-size="14.00">0..*</text>
</g>
<!-- Form&#45;&gt;ExpectedResponse -->
<g id="edge2" class="edge">
<title>Form&#45;&gt;ExpectedResponse</title>
<path fill="none" stroke="black" d="M324.28,-165.77C328.49,-159.7 332.52,-153.58 336.25,-147.5 346.4,-130.95 355.49,-111.44 362.52,-94.71"/>
<polygon fill="black" stroke="black" points="365.71,-96.15 366.26,-85.57 359.23,-93.5 365.71,-96.15"/>
<text text-anchor="start" x="346.25" y="-134.2" font-family="mono" font-size="14.00" fill="#c83500">response</text>
<text text-anchor="middle" x="356.33" y="-87.36" font-family="Times,serif" font-size="14.00">0..1</text>
</g>
<!-- Link -->
<g id="node4" class="node">
<title>Link</title>
<polygon fill="#8ccbf2" stroke="none" points="377.25,-322.5 377.25,-348 569.25,-348 569.25,-322.5 377.25,-322.5"/>
<polygon fill="none" stroke="#8ccbf2" points="377.25,-322.5 377.25,-348 569.25,-348 569.25,-322.5 377.25,-322.5"/>
<text text-anchor="start" x="456.75" y="-332.7" font-family="mono" font-weight="bold" font-size="14.00" fill="#c83500">Link</text>
<polygon fill="#ddeeff" stroke="none" points="377.25,-297 377.25,-322.5 569.25,-322.5 569.25,-297 377.25,-297"/>
<polygon fill="none" stroke="#8ccbf2" points="377.25,-297 377.25,-322.5 569.25,-322.5 569.25,-297 377.25,-297"/>
<text text-anchor="start" x="380.25" y="-307.2" font-family="mono" font-size="14.00" fill="#c83500">href</text>
<text text-anchor="start" x="413.25" y="-307.2" font-family="Times,serif" font-size="14.00"> : </text>
<text text-anchor="start" x="424.5" y="-307.2" font-family="mono" font-size="14.00" fill="#c83500">anyURI</text>
<text text-anchor="start" x="474" y="-307.2" font-family="Times,serif" font-size="14.00"> </text>
<text text-anchor="start" x="477.75" y="-307.2" font-family="Times,serif" font-style="italic" font-size="14.00">(mandatory)</text>
<polygon fill="#ddeeff" stroke="none" points="377.25,-271.5 377.25,-297 569.25,-297 569.25,-271.5 377.25,-271.5"/>
<polygon fill="none" stroke="#8ccbf2" points="377.25,-271.5 377.25,-297 569.25,-297 569.25,-271.5 377.25,-271.5"/>
<text text-anchor="start" x="380.25" y="-281.7" font-family="mono" font-size="14.00" fill="#c83500">type</text>
<text text-anchor="start" x="413.25" y="-281.7" font-family="Times,serif" font-size="14.00"> : </text>
<text text-anchor="start" x="424.5" y="-281.7" font-family="mono" font-size="14.00" fill="#c83500">string</text>
<polygon fill="#ddeeff" stroke="none" points="377.25,-246 377.25,-271.5 569.25,-271.5 569.25,-246 377.25,-246"/>
<polygon fill="none" stroke="#8ccbf2" points="377.25,-246 377.25,-271.5 569.25,-271.5 569.25,-246 377.25,-246"/>
<text text-anchor="start" x="380.25" y="-256.2" font-family="mono" font-size="14.00" fill="#c83500">rel</text>
<text text-anchor="start" x="405" y="-256.2" font-family="Times,serif" font-size="14.00"> : </text>
<text text-anchor="start" x="416.25" y="-256.2" font-family="mono" font-size="14.00" fill="#c83500">string</text>
<polygon fill="#ddeeff" stroke="none" points="377.25,-220.5 377.25,-246 569.25,-246 569.25,-220.5 377.25,-220.5"/>
<polygon fill="none" stroke="#8ccbf2" points="377.25,-220.5 377.25,-246 569.25,-246 569.25,-220.5 377.25,-220.5"/>
<text text-anchor="start" x="380.25" y="-230.7" font-family="mono" font-size="14.00" fill="#c83500">anchor</text>
<text text-anchor="start" x="429.75" y="-230.7" font-family="Times,serif" font-size="14.00"> : </text>
<text text-anchor="start" x="441" y="-230.7" font-family="mono" font-size="14.00" fill="#c83500">anyURI</text>
<polygon fill="#ddeeff" stroke="none" points="377.25,-195 377.25,-220.5 569.25,-220.5 569.25,-195 377.25,-195"/>
<polygon fill="none" stroke="#8ccbf2" points="377.25,-195 377.25,-220.5 569.25,-220.5 569.25,-195 377.25,-195"/>
<text text-anchor="start" x="380.25" y="-205.2" font-family="mono" font-size="14.00" fill="#c83500">sizes</text>
<text text-anchor="start" x="421.5" y="-205.2" font-family="Times,serif" font-size="14.00"> : </text>
<text text-anchor="start" x="432.75" y="-205.2" font-family="mono" font-size="14.00" fill="#c83500">string</text>
<polygon fill="#ddeeff" stroke="none" points="377.25,-169.5 377.25,-195 569.25,-195 569.25,-169.5 377.25,-169.5"/>
<polygon fill="none" stroke="#8ccbf2" points="377.25,-169.5 377.25,-195 569.25,-195 569.25,-169.5 377.25,-169.5"/>
<text text-anchor="start" x="380.25" y="-179.7" font-family="mono" font-size="14.00" fill="#c83500">hreflang</text>
<text text-anchor="start" x="446.25" y="-179.7" font-family="Times,serif" font-size="14.00"> : (Array of) </text>
<text text-anchor="start" x="516.75" y="-179.7" font-family="mono" font-size="14.00" fill="#c83500">string</text>
</g>
</g>
</svg>
