<?xml version="1.0" encoding="UTF-8" standalone="no"?>
<!DOCTYPE svg PUBLIC "-//W3C//DTD SVG 1.1//EN"
 "http://www.w3.org/Graphics/SVG/1.1/DTD/svg11.dtd">
<!-- Generated by graphviz version 2.38.0 (20140413.2041)
 -->
<!-- Title: %3 Pages: 1 -->
<svg width="464pt" height="285pt"
 viewBox="0.00 0.00 463.50 285.00" xmlns="http://www.w3.org/2000/svg" xmlns:xlink="http://www.w3.org/1999/xlink">
<g id="graph0" class="graph" transform="scale(1 1) rotate(0) translate(4 281)">
<title>%3</title>
<polygon fill="white" stroke="none" points="-4,4 -4,-281 459.5,-281 459.5,4 -4,4"/>
<!-- Link -->
<g id="node1" class="node"><title>Link</title>
<polygon fill="#8ccbf2" stroke="none" points="8,-220 8,-241 182,-241 182,-220 8,-220"/>
<polygon fill="none" stroke="#8ccbf2" points="8,-220 8,-241 182,-241 182,-220 8,-220"/>
<text text-anchor="start" x="78" y="-227.8" font-family="mono" font-weight="bold" font-size="14.00" fill="#c83500">Link</text>
<polygon fill="#ddeeff" stroke="none" points="8,-199 8,-220 182,-220 182,-199 8,-199"/>
<polygon fill="none" stroke="#8ccbf2" points="8,-199 8,-220 182,-220 182,-199 8,-199"/>
<text text-anchor="start" x="11" y="-206.8" font-family="mono" font-size="14.00" fill="#c83500">anchor</text>
<text text-anchor="start" x="61" y="-206.8" font-family="Times,serif" font-size="14.00"> : </text>
<text text-anchor="start" x="73" y="-206.8" font-family="mono" font-size="14.00" fill="#c83500">anyURI</text>
<polygon fill="#ddeeff" stroke="none" points="8,-178 8,-199 182,-199 182,-178 8,-178"/>
<polygon fill="none" stroke="#8ccbf2" points="8,-178 8,-199 182,-199 182,-178 8,-178"/>
<text text-anchor="start" x="11" y="-185.8" font-family="mono" font-size="14.00" fill="#c83500">href</text>
<text text-anchor="start" x="45" y="-185.8" font-family="Times,serif" font-size="14.00"> : </text>
<text text-anchor="start" x="57" y="-185.8" font-family="mono" font-size="14.00" fill="#c83500">anyURI</text>
<text text-anchor="start" x="107" y="-185.8" font-family="Times,serif" font-size="14.00"> </text>
<text text-anchor="start" x="111" y="-185.8" font-family="Times,serif" font-style="italic" font-size="14.00">(mandatory)</text>
<polygon fill="#ddeeff" stroke="none" points="8,-157 8,-178 182,-178 182,-157 8,-157"/>
<polygon fill="none" stroke="#8ccbf2" points="8,-157 8,-178 182,-178 182,-157 8,-157"/>
<text text-anchor="start" x="11" y="-164.8" font-family="mono" font-size="14.00" fill="#c83500">rel</text>
<text text-anchor="start" x="36" y="-164.8" font-family="Times,serif" font-size="14.00"> : </text>
<text text-anchor="start" x="48" y="-164.8" font-family="mono" font-size="14.00" fill="#c83500">string</text>
<polygon fill="#ddeeff" stroke="none" points="8,-136 8,-157 182,-157 182,-136 8,-136"/>
<polygon fill="none" stroke="#8ccbf2" points="8,-136 8,-157 182,-157 182,-136 8,-136"/>
<text text-anchor="start" x="11" y="-143.8" font-family="mono" font-size="14.00" fill="#c83500">type</text>
<text text-anchor="start" x="45" y="-143.8" font-family="Times,serif" font-size="14.00"> : </text>
<text text-anchor="start" x="57" y="-143.8" font-family="mono" font-size="14.00" fill="#c83500">string</text>
</g>
<!-- Form -->
<g id="node2" class="node"><title>Form</title>
<polygon fill="#8ccbf2" stroke="none" points="217,-252 217,-273 448,-273 448,-252 217,-252"/>
<polygon fill="none" stroke="#8ccbf2" points="217,-252 217,-273 448,-273 448,-252 217,-252"/>
<text text-anchor="start" x="315.5" y="-259.8" font-family="mono" font-weight="bold" font-size="14.00" fill="#c83500">Form</text>
<polygon fill="#ddeeff" stroke="none" points="217,-231 217,-252 448,-252 448,-231 217,-231"/>
<polygon fill="none" stroke="#8ccbf2" points="217,-231 217,-252 448,-252 448,-231 217,-231"/>
<text text-anchor="start" x="220" y="-238.8" font-family="mono" font-size="14.00" fill="#c83500">href</text>
<text text-anchor="start" x="254" y="-238.8" font-family="Times,serif" font-size="14.00"> : </text>
<text text-anchor="start" x="266" y="-238.8" font-family="mono" font-size="14.00" fill="#c83500">anyURI</text>
<text text-anchor="start" x="316" y="-238.8" font-family="Times,serif" font-size="14.00"> </text>
<text text-anchor="start" x="320" y="-238.8" font-family="Times,serif" font-style="italic" font-size="14.00">(mandatory)</text>
<polygon fill="#ddeeff" stroke="none" points="217,-210 217,-231 448,-231 448,-210 217,-210"/>
<polygon fill="none" stroke="#8ccbf2" points="217,-210 217,-231 448,-231 448,-210 217,-210"/>
<text text-anchor="start" x="220" y="-217.8" font-family="mono" font-size="14.00" fill="#c83500">op</text>
<text text-anchor="start" x="237" y="-217.8" font-family="Times,serif" font-size="14.00"> : Array of </text>
<text text-anchor="start" x="299" y="-217.8" font-family="mono" font-size="14.00" fill="#c83500">string</text>
<text text-anchor="start" x="349" y="-217.8" font-family="Times,serif" font-size="14.00"> </text>
<text text-anchor="start" x="353" y="-217.8" font-family="Times,serif" font-style="italic" font-size="14.00">(mandatory)</text>
<polygon fill="#ddeeff" stroke="none" points="217,-189 217,-210 448,-210 448,-189 217,-189"/>
<polygon fill="none" stroke="#8ccbf2" points="217,-189 217,-210 448,-210 448,-189 217,-189"/>
<text text-anchor="start" x="220" y="-196.8" font-family="mono" font-size="14.00" fill="#c83500">scopes</text>
<text text-anchor="start" x="270" y="-196.8" font-family="Times,serif" font-size="14.00"> : (Array of) </text>
<text text-anchor="start" x="341" y="-196.8" font-family="mono" font-size="14.00" fill="#c83500">string</text>
<polygon fill="#ddeeff" stroke="none" points="217,-168 217,-189 448,-189 448,-168 217,-168"/>
<polygon fill="none" stroke="#8ccbf2" points="217,-168 217,-189 448,-189 448,-168 217,-168"/>
<text text-anchor="start" x="220" y="-175.8" font-family="mono" font-size="14.00" fill="#c83500">subprotocol</text>
<text text-anchor="start" x="311" y="-175.8" font-family="Times,serif" font-size="14.00"> : </text>
<text text-anchor="start" x="323" y="-175.8" font-family="mono" font-size="14.00" fill="#c83500">string</text>
<polygon fill="#ddeeff" stroke="none" points="217,-147 217,-168 448,-168 448,-147 217,-147"/>
<polygon fill="none" stroke="#8ccbf2" points="217,-147 217,-168 448,-168 448,-147 217,-147"/>
<text text-anchor="start" x="220" y="-154.8" font-family="mono" font-size="14.00" fill="#c83500">contentType</text>
<text text-anchor="start" x="311" y="-154.8" font-family="Times,serif" font-size="14.00"> : </text>
<text text-anchor="start" x="323" y="-154.8" font-family="mono" font-size="14.00" fill="#c83500">string</text>
<text text-anchor="start" x="373" y="-154.8" font-family="Times,serif" font-size="14.00"> </text>
<text text-anchor="start" x="377" y="-154.8" font-family="Times,serif" font-style="italic" font-size="14.00">(mandatory)</text>
<polygon fill="#ddeeff" stroke="none" points="217,-126 217,-147 448,-147 448,-126 217,-126"/>
<polygon fill="none" stroke="#8ccbf2" points="217,-126 217,-147 448,-147 448,-126 217,-126"/>
<text text-anchor="start" x="220" y="-133.8" font-family="mono" font-size="14.00" fill="#c83500">security</text>
<text text-anchor="start" x="287" y="-133.8" font-family="Times,serif" font-size="14.00"> : Array of </text>
<text text-anchor="start" x="349" y="-133.8" font-family="mono" font-size="14.00" fill="#c83500">string</text>
<polygon fill="#ddeeff" stroke="none" points="217,-105 217,-126 448,-126 448,-105 217,-105"/>
<polygon fill="none" stroke="#8ccbf2" points="217,-105 217,-126 448,-126 448,-105 217,-105"/>
<text text-anchor="start" x="220" y="-112.8" font-family="mono" font-size="14.00" fill="#c83500">contentCoding</text>
<text text-anchor="start" x="328" y="-112.8" font-family="Times,serif" font-size="14.00"> : </text>
<text text-anchor="start" x="340" y="-112.8" font-family="mono" font-size="14.00" fill="#c83500">string</text>
</g>
<!-- ExpectedResponse -->
<g id="node3" class="node"><title>ExpectedResponse</title>
<polygon fill="#8ccbf2" stroke="none" points="217,-25 217,-46 448,-46 448,-25 217,-25"/>
<polygon fill="none" stroke="#8ccbf2" points="217,-25 217,-46 448,-46 448,-25 217,-25"/>
<text text-anchor="start" x="266" y="-32.8" font-family="mono" font-weight="bold" font-size="14.00" fill="#c83500">ExpectedResponse</text>
<polygon fill="#ddeeff" stroke="none" points="217,-4 217,-25 448,-25 448,-4 217,-4"/>
<polygon fill="none" stroke="#8ccbf2" points="217,-4 217,-25 448,-25 448,-4 217,-4"/>
<text text-anchor="start" x="220" y="-11.8" font-family="mono" font-size="14.00" fill="#c83500">contentType</text>
<text text-anchor="start" x="311" y="-11.8" font-family="Times,serif" font-size="14.00"> : </text>
<text text-anchor="start" x="323" y="-11.8" font-family="mono" font-size="14.00" fill="#c83500">string</text>
<text text-anchor="start" x="373" y="-11.8" font-family="Times,serif" font-size="14.00"> </text>
<text text-anchor="start" x="377" y="-11.8" font-family="Times,serif" font-style="italic" font-size="14.00">(mandatory)</text>
</g>
<!-- Form&#45;&gt;ExpectedResponse -->
<g id="edge1" class="edge"><title>Form&#45;&gt;ExpectedResponse</title>
<path fill="none" stroke="black" d="M332,-100.835C332,-86.3545 332,-72.1379 332,-60.0513"/>
<polygon fill="black" stroke="black" points="335.5,-60.0249 332,-50.0249 328.5,-60.0249 335.5,-60.0249"/>
<text text-anchor="start" x="332" y="-71.8" font-family="mono" font-size="14.00" fill="#c83500">response</text>
<text text-anchor="middle" x="321" y="-53.8249" font-family="Times,serif" font-size="14.00">0..1</text>
</g>
</g>
</svg>
