<?xml version="1.0" encoding="UTF-8" standalone="no"?>
<!DOCTYPE svg PUBLIC "-//W3C//DTD SVG 1.1//EN"
 "http://www.w3.org/Graphics/SVG/1.1/DTD/svg11.dtd">
<!-- Generated by graphviz version 2.40.1 (20161225.0304)
 -->
<!-- Title: %3 Pages: 1 -->
<svg width="1156pt" height="414pt"
 viewBox="0.00 0.00 1155.50 414.00" xmlns="http://www.w3.org/2000/svg" xmlns:xlink="http://www.w3.org/1999/xlink">
<g id="graph0" class="graph" transform="scale(1 1) rotate(0) translate(4 410)">
<title>%3</title>
<polygon fill="#ffffff" stroke="transparent" points="-4,4 -4,-410 1151.5,-410 1151.5,4 -4,4"/>
<!-- IntegerSchema -->
<g id="node1" class="node">
<title>IntegerSchema</title>
<polygon fill="#8ccbf2" stroke="transparent" points="8,-380.5 8,-401.5 142,-401.5 142,-380.5 8,-380.5"/>
<polygon fill="none" stroke="#8ccbf2" points="8,-380.5 8,-401.5 142,-401.5 142,-380.5 8,-380.5"/>
<text text-anchor="start" x="21" y="-388.3" font-family="mono" font-weight="bold" font-size="14.00" fill="#c83500">IntegerSchema</text>
<polygon fill="#ddeeff" stroke="transparent" points="8,-359.5 8,-380.5 142,-380.5 142,-359.5 8,-359.5"/>
<polygon fill="none" stroke="#8ccbf2" points="8,-359.5 8,-380.5 142,-380.5 142,-359.5 8,-359.5"/>
<text text-anchor="start" x="11" y="-367.3" font-family="mono" font-size="14.00" fill="#c83500">maximum</text>
<text text-anchor="start" x="69" y="-367.3" font-family="Times,serif" font-size="14.00" fill="#000000"> : </text>
<text text-anchor="start" x="81" y="-367.3" font-family="mono" font-size="14.00" fill="#c83500">integer</text>
<polygon fill="#ddeeff" stroke="transparent" points="8,-338.5 8,-359.5 142,-359.5 142,-338.5 8,-338.5"/>
<polygon fill="none" stroke="#8ccbf2" points="8,-338.5 8,-359.5 142,-359.5 142,-338.5 8,-338.5"/>
<text text-anchor="start" x="11" y="-346.3" font-family="mono" font-size="14.00" fill="#c83500">minimum</text>
<text text-anchor="start" x="69" y="-346.3" font-family="Times,serif" font-size="14.00" fill="#000000"> : </text>
<text text-anchor="start" x="81" y="-346.3" font-family="mono" font-size="14.00" fill="#c83500">integer</text>
</g>
<!-- DataSchema -->
<g id="node8" class="node">
<title>DataSchema</title>
<polygon fill="#8ccbf2" stroke="transparent" points="506,-258.5 506,-279.5 729,-279.5 729,-258.5 506,-258.5"/>
<polygon fill="none" stroke="#8ccbf2" points="506,-258.5 506,-279.5 729,-279.5 729,-258.5 506,-258.5"/>
<text text-anchor="start" x="576" y="-266.3" font-family="mono" font-weight="bold" font-size="14.00" fill="#c83500">DataSchema</text>
<polygon fill="#ddeeff" stroke="transparent" points="506,-237.5 506,-258.5 729,-258.5 729,-237.5 506,-237.5"/>
<polygon fill="none" stroke="#8ccbf2" points="506,-237.5 506,-258.5 729,-258.5 729,-237.5 506,-237.5"/>
<text text-anchor="start" x="509" y="-245.3" font-family="mono" font-size="14.00" fill="#c83500">@context</text>
<text text-anchor="start" x="576" y="-245.3" font-family="Times,serif" font-size="14.00" fill="#000000"> : </text>
<text text-anchor="start" x="588" y="-245.3" font-family="Times,serif" font-style="italic" font-size="14.00" fill="#000000">array</text>
<text text-anchor="start" x="619" y="-245.3" font-family="Times,serif" font-size="14.00" fill="#000000"> </text>
<text text-anchor="start" x="623" y="-245.3" font-family="Times,serif" font-style="italic" font-size="14.00" fill="#000000">(mandatory)</text>
<polygon fill="#ddeeff" stroke="transparent" points="506,-216.5 506,-237.5 729,-237.5 729,-216.5 506,-216.5"/>
<polygon fill="none" stroke="#8ccbf2" points="506,-216.5 506,-237.5 729,-237.5 729,-216.5 506,-216.5"/>
<text text-anchor="start" x="509" y="-224.3" font-family="mono" font-size="14.00" fill="#c83500">@type</text>
<text text-anchor="start" x="551" y="-224.3" font-family="Times,serif" font-size="14.00" fill="#000000"> : </text>
<text text-anchor="start" x="563" y="-224.3" font-family="Times,serif" font-style="italic" font-size="14.00" fill="#000000">array of </text>
<text text-anchor="start" x="612" y="-224.3" font-family="mono" font-size="14.00" fill="#c83500">string</text>
<polygon fill="#ddeeff" stroke="transparent" points="506,-195.5 506,-216.5 729,-216.5 729,-195.5 506,-195.5"/>
<polygon fill="none" stroke="#8ccbf2" points="506,-195.5 506,-216.5 729,-216.5 729,-195.5 506,-195.5"/>
<text text-anchor="start" x="509" y="-203.3" font-family="mono" font-size="14.00" fill="#c83500">format</text>
<text text-anchor="start" x="559" y="-203.3" font-family="Times,serif" font-size="14.00" fill="#000000"> : </text>
<text text-anchor="start" x="571" y="-203.3" font-family="mono" font-size="14.00" fill="#c83500">string</text>
<polygon fill="#ddeeff" stroke="transparent" points="506,-174.5 506,-195.5 729,-195.5 729,-174.5 506,-174.5"/>
<polygon fill="none" stroke="#8ccbf2" points="506,-174.5 506,-195.5 729,-195.5 729,-174.5 506,-174.5"/>
<text text-anchor="start" x="509" y="-182.3" font-family="mono" font-size="14.00" fill="#c83500">description</text>
<text text-anchor="start" x="600" y="-182.3" font-family="Times,serif" font-size="14.00" fill="#000000"> : </text>
<text text-anchor="start" x="612" y="-182.3" font-family="mono" font-size="14.00" fill="#c83500">string</text>
<polygon fill="#ddeeff" stroke="transparent" points="506,-153.5 506,-174.5 729,-174.5 729,-153.5 506,-153.5"/>
<polygon fill="none" stroke="#8ccbf2" points="506,-153.5 506,-174.5 729,-174.5 729,-153.5 506,-153.5"/>
<text text-anchor="start" x="509" y="-161.3" font-family="mono" font-size="14.00" fill="#c83500">writeOnly</text>
<text text-anchor="start" x="584" y="-161.3" font-family="Times,serif" font-size="14.00" fill="#000000"> : </text>
<text text-anchor="start" x="596" y="-161.3" font-family="mono" font-size="14.00" fill="#c83500">boolean</text>
<text text-anchor="start" x="654" y="-161.3" font-family="Times,serif" font-size="14.00" fill="#000000"> </text>
<text text-anchor="start" x="658" y="-161.3" font-family="Times,serif" font-style="italic" font-size="14.00" fill="#000000">(mandatory)</text>
<polygon fill="#ddeeff" stroke="transparent" points="506,-132.5 506,-153.5 729,-153.5 729,-132.5 506,-132.5"/>
<polygon fill="none" stroke="#8ccbf2" points="506,-132.5 506,-153.5 729,-153.5 729,-132.5 506,-132.5"/>
<text text-anchor="start" x="509" y="-140.3" font-family="mono" font-size="14.00" fill="#c83500">readOnly</text>
<text text-anchor="start" x="576" y="-140.3" font-family="Times,serif" font-size="14.00" fill="#000000"> : </text>
<text text-anchor="start" x="588" y="-140.3" font-family="mono" font-size="14.00" fill="#c83500">boolean</text>
<text text-anchor="start" x="646" y="-140.3" font-family="Times,serif" font-size="14.00" fill="#000000"> </text>
<text text-anchor="start" x="650" y="-140.3" font-family="Times,serif" font-style="italic" font-size="14.00" fill="#000000">(mandatory)</text>
<polygon fill="#ddeeff" stroke="transparent" points="506,-111.5 506,-132.5 729,-132.5 729,-111.5 506,-111.5"/>
<polygon fill="none" stroke="#8ccbf2" points="506,-111.5 506,-132.5 729,-132.5 729,-111.5 506,-111.5"/>
<text text-anchor="start" x="509" y="-119.3" font-family="mono" font-size="14.00" fill="#c83500">title</text>
<text text-anchor="start" x="551" y="-119.3" font-family="Times,serif" font-size="14.00" fill="#000000"> : </text>
<text text-anchor="start" x="563" y="-119.3" font-family="mono" font-size="14.00" fill="#c83500">string</text>
<polygon fill="#ddeeff" stroke="transparent" points="506,-90.5 506,-111.5 729,-111.5 729,-90.5 506,-90.5"/>
<polygon fill="none" stroke="#8ccbf2" points="506,-90.5 506,-111.5 729,-111.5 729,-90.5 506,-90.5"/>
<text text-anchor="start" x="509" y="-98.3" font-family="mono" font-size="14.00" fill="#c83500">type</text>
<text text-anchor="start" x="543" y="-98.3" font-family="Times,serif" font-size="14.00" fill="#000000"> : </text>
<text text-anchor="start" x="555" y="-98.3" font-family="mono" font-size="14.00" fill="#c83500">string</text>
</g>
<!-- IntegerSchema&#45;&gt;DataSchema -->
<g id="edge7" class="edge">
<title>IntegerSchema&#45;&gt;DataSchema</title>
<path fill="none" stroke="#000000" d="M150.4356,-338.2655C153.3201,-337.1455 156.1823,-336.0532 159,-335 268.7231,-293.9898 395.46,-253.1092 487.7603,-224.4892"/>
<polygon fill="#ffffff" stroke="#000000" points="488.9097,-227.7973 497.4279,-221.4972 486.8401,-221.1102 488.9097,-227.7973"/>
</g>
<!-- StringSchema -->
<g id="node2" class="node">
<title>StringSchema</title>
<polygon fill="#8ccbf2" stroke="transparent" points="176,-359.5 176,-380.5 282,-380.5 282,-359.5 176,-359.5"/>
<polygon fill="none" stroke="#8ccbf2" points="176,-359.5 176,-380.5 282,-380.5 282,-359.5 176,-359.5"/>
<text text-anchor="start" x="179" y="-367.3" font-family="mono" font-weight="bold" font-size="14.00" fill="#c83500">StringSchema</text>
</g>
<!-- StringSchema&#45;&gt;DataSchema -->
<g id="edge13" class="edge">
<title>StringSchema&#45;&gt;DataSchema</title>
<path fill="none" stroke="#000000" d="M264.1491,-352.4162C275.2619,-346.7683 287.6135,-340.5623 299,-335 360.9167,-304.7537 430.1052,-272.0927 488.0937,-245.0366"/>
<polygon fill="#ffffff" stroke="#000000" points="489.7171,-248.1415 497.3015,-240.7437 486.7591,-241.7972 489.7171,-248.1415"/>
</g>
<!-- BooleanSchema -->
<g id="node3" class="node">
<title>BooleanSchema</title>
<polygon fill="#8ccbf2" stroke="transparent" points="316,-359.5 316,-380.5 430,-380.5 430,-359.5 316,-359.5"/>
<polygon fill="none" stroke="#8ccbf2" points="316,-359.5 316,-380.5 430,-380.5 430,-359.5 316,-359.5"/>
<text text-anchor="start" x="319" y="-367.3" font-family="mono" font-weight="bold" font-size="14.00" fill="#c83500">BooleanSchema</text>
</g>
<!-- BooleanSchema&#45;&gt;DataSchema -->
<g id="edge10" class="edge">
<title>BooleanSchema&#45;&gt;DataSchema</title>
<path fill="none" stroke="#000000" d="M396.84,-352.4246C418.9696,-335.646 453.7484,-309.2768 489.183,-282.4104"/>
<polygon fill="#ffffff" stroke="#000000" points="491.3749,-285.1408 497.2289,-276.3101 487.1457,-279.5628 491.3749,-285.1408"/>
</g>
<!-- NumberSchema -->
<g id="node4" class="node">
<title>NumberSchema</title>
<polygon fill="#8ccbf2" stroke="transparent" points="464,-380.5 464,-401.5 590,-401.5 590,-380.5 464,-380.5"/>
<polygon fill="none" stroke="#8ccbf2" points="464,-380.5 464,-401.5 590,-401.5 590,-380.5 464,-380.5"/>
<text text-anchor="start" x="477" y="-388.3" font-family="mono" font-weight="bold" font-size="14.00" fill="#c83500">NumberSchema</text>
<polygon fill="#ddeeff" stroke="transparent" points="464,-359.5 464,-380.5 590,-380.5 590,-359.5 464,-359.5"/>
<polygon fill="none" stroke="#8ccbf2" points="464,-359.5 464,-380.5 590,-380.5 590,-359.5 464,-359.5"/>
<text text-anchor="start" x="467" y="-367.3" font-family="mono" font-size="14.00" fill="#c83500">minimum</text>
<text text-anchor="start" x="525" y="-367.3" font-family="Times,serif" font-size="14.00" fill="#000000"> : </text>
<text text-anchor="start" x="537" y="-367.3" font-family="mono" font-size="14.00" fill="#c83500">double</text>
<polygon fill="#ddeeff" stroke="transparent" points="464,-338.5 464,-359.5 590,-359.5 590,-338.5 464,-338.5"/>
<polygon fill="none" stroke="#8ccbf2" points="464,-338.5 464,-359.5 590,-359.5 590,-338.5 464,-338.5"/>
<text text-anchor="start" x="467" y="-346.3" font-family="mono" font-size="14.00" fill="#c83500">maximum</text>
<text text-anchor="start" x="525" y="-346.3" font-family="Times,serif" font-size="14.00" fill="#000000"> : </text>
<text text-anchor="start" x="537" y="-346.3" font-family="mono" font-size="14.00" fill="#c83500">double</text>
</g>
<!-- NumberSchema&#45;&gt;DataSchema -->
<g id="edge9" class="edge">
<title>NumberSchema&#45;&gt;DataSchema</title>
<path fill="none" stroke="#000000" d="M544.3529,-334.8301C550.275,-322.657 557.2401,-308.3398 564.4722,-293.4739"/>
<polygon fill="#ffffff" stroke="#000000" points="567.7753,-294.6846 569.0027,-284.1611 561.4807,-291.6223 567.7753,-294.6846"/>
</g>
<!-- ObjectSchema -->
<g id="node5" class="node">
<title>ObjectSchema</title>
<polygon fill="#8ccbf2" stroke="transparent" points="625,-370.5 625,-391.5 806,-391.5 806,-370.5 625,-370.5"/>
<polygon fill="none" stroke="#8ccbf2" points="625,-370.5 625,-391.5 806,-391.5 806,-370.5 625,-370.5"/>
<text text-anchor="start" x="665.5" y="-378.3" font-family="mono" font-weight="bold" font-size="14.00" fill="#c83500">ObjectSchema</text>
<polygon fill="#ddeeff" stroke="transparent" points="625,-349.5 625,-370.5 806,-370.5 806,-349.5 625,-349.5"/>
<polygon fill="none" stroke="#8ccbf2" points="625,-349.5 625,-370.5 806,-370.5 806,-349.5 625,-349.5"/>
<text text-anchor="start" x="628" y="-357.3" font-family="mono" font-size="14.00" fill="#c83500">required</text>
<text text-anchor="start" x="695" y="-357.3" font-family="Times,serif" font-size="14.00" fill="#000000"> : array of </text>
<text text-anchor="start" x="753" y="-357.3" font-family="mono" font-size="14.00" fill="#c83500">string</text>
</g>
<!-- ObjectSchema&#45;&gt;DataSchema -->
<g id="edge1" class="edge">
<title>ObjectSchema&#45;&gt;DataSchema</title>
<path fill="none" stroke="#000000" d="M647.192,-345.4425C635.5601,-338.0708 624.9874,-328.7314 618,-317 613.7641,-309.8881 610.708,-302.1528 608.5824,-294.1136"/>
<polygon fill="#000000" stroke="#000000" points="611.9686,-293.2127 606.4346,-284.178 605.1267,-294.6918 611.9686,-293.2127"/>
<text text-anchor="start" x="618" y="-305.8" font-family="mono" font-size="14.00" fill="#c83500">properties</text>
<text text-anchor="middle" x="595.4346" y="-287.978" font-family="Times,serif" font-size="14.00" fill="#000000">0..1</text>
</g>
<!-- ObjectSchema&#45;&gt;DataSchema -->
<g id="edge12" class="edge">
<title>ObjectSchema&#45;&gt;DataSchema</title>
<path fill="none" stroke="#000000" d="M712.4439,-345.3164C710.4604,-332.0211 706.9944,-315.6738 701,-302 699.7392,-299.124 698.3992,-296.249 696.9907,-293.3819"/>
<polygon fill="#ffffff" stroke="#000000" points="699.9761,-291.5352 692.2734,-284.2607 693.7584,-294.751 699.9761,-291.5352"/>
</g>
<!-- ArraySchema -->
<g id="node6" class="node">
<title>ArraySchema</title>
<polygon fill="#8ccbf2" stroke="transparent" points="840,-380.5 840,-401.5 1016,-401.5 1016,-380.5 840,-380.5"/>
<polygon fill="none" stroke="#8ccbf2" points="840,-380.5 840,-401.5 1016,-401.5 1016,-380.5 840,-380.5"/>
<text text-anchor="start" x="882.5" y="-388.3" font-family="mono" font-weight="bold" font-size="14.00" fill="#c83500">ArraySchema</text>
<polygon fill="#ddeeff" stroke="transparent" points="840,-359.5 840,-380.5 1016,-380.5 1016,-359.5 840,-359.5"/>
<polygon fill="none" stroke="#8ccbf2" points="840,-359.5 840,-380.5 1016,-380.5 1016,-359.5 840,-359.5"/>
<text text-anchor="start" x="843" y="-367.3" font-family="mono" font-size="14.00" fill="#c83500">minItems</text>
<text text-anchor="start" x="910" y="-367.3" font-family="Times,serif" font-size="14.00" fill="#000000"> : </text>
<text text-anchor="start" x="922" y="-367.3" font-family="mono" font-size="14.00" fill="#c83500">unsignedInt</text>
<polygon fill="#ddeeff" stroke="transparent" points="840,-338.5 840,-359.5 1016,-359.5 1016,-338.5 840,-338.5"/>
<polygon fill="none" stroke="#8ccbf2" points="840,-338.5 840,-359.5 1016,-359.5 1016,-338.5 840,-338.5"/>
<text text-anchor="start" x="843" y="-346.3" font-family="mono" font-size="14.00" fill="#c83500">maxItems</text>
<text text-anchor="start" x="910" y="-346.3" font-family="Times,serif" font-size="14.00" fill="#000000"> : </text>
<text text-anchor="start" x="922" y="-346.3" font-family="mono" font-size="14.00" fill="#c83500">unsignedInt</text>
</g>
<!-- ArraySchema&#45;&gt;DataSchema -->
<g id="edge2" class="edge">
<title>ArraySchema&#45;&gt;DataSchema</title>
<path fill="none" stroke="#000000" d="M845.6216,-334.9375C833.8427,-329.247 821.9995,-323.1857 811,-317 789.24,-304.7629 766.7668,-290.838 745.1721,-276.7372"/>
<polygon fill="#000000" stroke="#000000" points="746.9012,-273.6854 736.6226,-271.1161 743.0556,-279.5344 746.9012,-273.6854"/>
<text text-anchor="start" x="811" y="-305.8" font-family="mono" font-size="14.00" fill="#c83500">items</text>
<text text-anchor="middle" x="747.6226" y="-274.9161" font-family="Times,serif" font-size="14.00" fill="#000000">0..1</text>
</g>
<!-- ArraySchema&#45;&gt;DataSchema -->
<g id="edge8" class="edge">
<title>ArraySchema&#45;&gt;DataSchema</title>
<path fill="none" stroke="#000000" d="M893.1114,-334.8648C881.0199,-323.5698 866.9784,-311.5496 853,-302 819.871,-279.3673 781.7032,-258.5544 745.8507,-240.9757"/>
<polygon fill="#ffffff" stroke="#000000" points="747.3146,-237.7958 736.7901,-236.5771 744.2575,-244.093 747.3146,-237.7958"/>
</g>
<!-- NullSchema -->
<g id="node7" class="node">
<title>NullSchema</title>
<polygon fill="#8ccbf2" stroke="transparent" points="1051,-359.5 1051,-380.5 1140,-380.5 1140,-359.5 1051,-359.5"/>
<polygon fill="none" stroke="#8ccbf2" points="1051,-359.5 1051,-380.5 1140,-380.5 1140,-359.5 1051,-359.5"/>
<text text-anchor="start" x="1054" y="-367.3" font-family="mono" font-weight="bold" font-size="14.00" fill="#c83500">NullSchema</text>
</g>
<!-- NullSchema&#45;&gt;DataSchema -->
<g id="edge11" class="edge">
<title>NullSchema&#45;&gt;DataSchema</title>
<path fill="none" stroke="#000000" d="M1065.9128,-352.4463C1055.7085,-346.4914 1044.0361,-340.0949 1033,-335 939.4068,-291.7917 829.5013,-252.7674 746.1687,-225.432"/>
<polygon fill="#ffffff" stroke="#000000" points="747.2473,-222.1024 736.6548,-222.324 745.0736,-228.7563 747.2473,-222.1024"/>
</g>
<!-- DataSchema&#45;&gt;DataSchema -->
<g id="edge5" class="edge">
<title>DataSchema&#45;&gt;DataSchema</title>
<path fill="none" stroke="#000000" d="M736.7499,-203.9763C747.6463,-200.1353 754.5,-193.9766 754.5,-185.5 754.5,-179.8048 751.4061,-175.1559 746.0709,-171.5533"/>
<polygon fill="#000000" stroke="#000000" points="747.2739,-168.2466 736.7499,-167.0237 744.2144,-174.5426 747.2739,-168.2466"/>
<text text-anchor="start" x="754.5" y="-181.8" font-family="mono" font-size="14.00" fill="#c83500">oneOf</text>
<text text-anchor="middle" x="747.7499" y="-155.8237" font-family="Times,serif" font-size="14.00" fill="#000000">0..*</text>
</g>
<!-- MultiLanguage -->
<g id="node9" class="node">
<title>MultiLanguage</title>
<polygon fill="#f2f2f2" stroke="transparent" points="476,-7 476,-28 590,-28 590,-7 476,-7"/>
<polygon fill="none" stroke="#8c8c8c" points="476,-7 476,-28 590,-28 590,-7 476,-7"/>
<text text-anchor="start" x="479" y="-14.8" font-family="mono" font-weight="bold" font-size="14.00" fill="#000000">MultiLanguage</text>
</g>
<!-- DataSchema&#45;&gt;MultiLanguage -->
<g id="edge3" class="edge">
<title>DataSchema&#45;&gt;MultiLanguage</title>
<path fill="none" stroke="#000000" d="M504.13,-86.6623C500.6702,-80.9517 497.5917,-75.0584 495,-69 491.2367,-60.2028 494.3753,-51.5176 500.1744,-43.8766"/>
<polygon fill="#000000" stroke="#000000" points="503.166,-45.7897 507.3106,-36.0392 497.9901,-41.0769 503.166,-45.7897"/>
<text text-anchor="start" x="495" y="-57.8" font-family="mono" font-size="14.00" fill="#c83500">descriptions</text>
<text text-anchor="middle" x="496.3106" y="-39.8392" font-family="Times,serif" font-size="14.00" fill="#000000">0..1</text>
</g>
<!-- DataSchema&#45;&gt;MultiLanguage -->
<g id="edge6" class="edge">
<title>DataSchema&#45;&gt;MultiLanguage</title>
<path fill="none" stroke="#000000" d="M610.4007,-86.9295C606.8223,-75.2012 601.8484,-63.8984 595,-54 591.9792,-49.6338 588.2436,-45.7231 584.1155,-42.2374"/>
<polygon fill="#000000" stroke="#000000" points="585.8937,-39.1985 575.7775,-36.0499 581.7222,-44.8198 585.8937,-39.1985"/>
<text text-anchor="start" x="603" y="-57.8" font-family="mono" font-size="14.00" fill="#c83500">titles</text>
<text text-anchor="middle" x="564.7775" y="-39.8499" font-family="Times,serif" font-size="14.00" fill="#000000">0..1</text>
</g>
<!-- string -->
<g id="node10" class="node">
<title>string</title>
<polygon fill="#f2f2f2" stroke="transparent" points="662,-7 662,-28 718,-28 718,-7 662,-7"/>
<polygon fill="none" stroke="#8c8c8c" points="662,-7 662,-28 718,-28 718,-7 662,-7"/>
<text text-anchor="start" x="665" y="-14.8" font-family="mono" font-weight="bold" font-size="14.00" fill="#000000">string</text>
</g>
<!-- DataSchema&#45;&gt;string -->
<g id="edge4" class="edge">
<title>DataSchema&#45;&gt;string</title>
<path fill="none" stroke="#000000" d="M660.1654,-86.998C662.8199,-80.9092 665.4481,-74.8723 668,-69 671.2602,-61.4979 674.7753,-53.3678 678.0185,-45.8497"/>
<polygon fill="#000000" stroke="#000000" points="681.3375,-46.9918 682.0811,-36.4231 674.9091,-44.2213 681.3375,-46.9918"/>
<text text-anchor="start" x="675" y="-57.8" font-family="mono" font-size="14.00" fill="#c83500">unit</text>
<text text-anchor="middle" x="671.0811" y="-40.2231" font-family="Times,serif" font-size="14.00" fill="#000000">0..1</text>
</g>
</g>
</svg>
