<?xml version="1.0" encoding="UTF-8" standalone="no"?>
<!DOCTYPE svg PUBLIC "-//W3C//DTD SVG 1.1//EN"
 "http://www.w3.org/Graphics/SVG/1.1/DTD/svg11.dtd">
<!-- Generated by graphviz version 2.38.0 (20140413.2041)
 -->
<!-- Title: %3 Pages: 1 -->
<svg width="1387pt" height="411pt"
 viewBox="0.00 0.00 1387.00 411.00" xmlns="http://www.w3.org/2000/svg" xmlns:xlink="http://www.w3.org/1999/xlink">
<g id="graph0" class="graph" transform="scale(1 1) rotate(0) translate(4 407)">
<title>%3</title>
<polygon fill="white" stroke="none" points="-4,4 -4,-407 1383,-407 1383,4 -4,4"/>
<!-- ArraySchema -->
<g id="node1" class="node"><title>ArraySchema</title>
<polygon fill="#8ccbf2" stroke="none" points="8,-346 8,-367 184,-367 184,-346 8,-346"/>
<polygon fill="none" stroke="#8ccbf2" points="8,-346 8,-367 184,-367 184,-346 8,-346"/>
<text text-anchor="start" x="50.5" y="-353.8" font-family="mono" font-weight="bold" font-size="14.00" fill="#c83500">ArraySchema</text>
<polygon fill="#ddeeff" stroke="none" points="8,-325 8,-346 184,-346 184,-325 8,-325"/>
<polygon fill="none" stroke="#8ccbf2" points="8,-325 8,-346 184,-346 184,-325 8,-325"/>
<text text-anchor="start" x="11" y="-332.8" font-family="mono" font-size="14.00" fill="#c83500">minItems</text>
<text text-anchor="start" x="78" y="-332.8" font-family="Times,serif" font-size="14.00"> : </text>
<text text-anchor="start" x="90" y="-332.8" font-family="mono" font-size="14.00" fill="#c83500">unsignedInt</text>
<polygon fill="#ddeeff" stroke="none" points="8,-304 8,-325 184,-325 184,-304 8,-304"/>
<polygon fill="none" stroke="#8ccbf2" points="8,-304 8,-325 184,-325 184,-304 8,-304"/>
<text text-anchor="start" x="11" y="-311.8" font-family="mono" font-size="14.00" fill="#c83500">maxItems</text>
<text text-anchor="start" x="78" y="-311.8" font-family="Times,serif" font-size="14.00"> : </text>
<text text-anchor="start" x="90" y="-311.8" font-family="mono" font-size="14.00" fill="#c83500">unsignedInt</text>
</g>
<!-- DataSchema -->
<g id="node3" class="node"><title>DataSchema</title>
<polygon fill="#8ccbf2" stroke="none" points="450,-193 450,-214 859,-214 859,-193 450,-193"/>
<polygon fill="none" stroke="#8ccbf2" points="450,-193 450,-214 859,-214 859,-193 450,-193"/>
<text text-anchor="start" x="613" y="-200.8" font-family="mono" font-weight="bold" font-size="14.00" fill="#c83500">DataSchema</text>
<polygon fill="#ddeeff" stroke="none" points="450,-172 450,-193 859,-193 859,-172 450,-172"/>
<polygon fill="none" stroke="#8ccbf2" points="450,-172 450,-193 859,-193 859,-172 450,-172"/>
<text text-anchor="start" x="453" y="-179.8" font-family="mono" font-size="14.00" fill="#c83500">@type</text>
<text text-anchor="start" x="495" y="-179.8" font-family="Times,serif" font-size="14.00"> : </text>
<text text-anchor="start" x="507" y="-179.8" font-family="Times,serif" font-style="italic" font-size="14.00">(Array of) </text>
<text text-anchor="start" x="566" y="-179.8" font-family="mono" font-size="14.00" fill="#c83500">string</text>
<polygon fill="#ddeeff" stroke="none" points="450,-151 450,-172 859,-172 859,-151 450,-151"/>
<polygon fill="none" stroke="#8ccbf2" points="450,-151 450,-172 859,-172 859,-151 450,-151"/>
<text text-anchor="start" x="453" y="-158.8" font-family="mono" font-size="14.00" fill="#c83500">title</text>
<text text-anchor="start" x="495" y="-158.8" font-family="Times,serif" font-size="14.00"> : Map of </text>
<text text-anchor="start" x="551" y="-158.8" font-family="mono" font-size="14.00" fill="#c83500">string</text>
<text text-anchor="start" x="601" y="-158.8" font-family="mono" font-size="14.00" fill="#c83500">titles</text>
<text text-anchor="start" x="651" y="-158.8" font-family="Times,serif" font-size="14.00"> : Map of </text>
<text text-anchor="start" x="707" y="-158.8" font-family="mono" font-size="14.00" fill="#c83500">string</text>
<polygon fill="#ddeeff" stroke="none" points="450,-130 450,-151 859,-151 859,-130 450,-130"/>
<polygon fill="none" stroke="#8ccbf2" points="450,-130 450,-151 859,-151 859,-130 450,-130"/>
<text text-anchor="start" x="453" y="-137.8" font-family="mono" font-size="14.00" fill="#c83500">contentEncoding</text>
<text text-anchor="start" x="577" y="-137.8" font-family="Times,serif" font-size="14.00"> : </text>
<text text-anchor="start" x="589" y="-137.8" font-family="mono" font-size="14.00" fill="#c83500">string</text>
<polygon fill="#ddeeff" stroke="none" points="450,-109 450,-130 859,-130 859,-109 450,-109"/>
<polygon fill="none" stroke="#8ccbf2" points="450,-109 450,-130 859,-130 859,-109 450,-109"/>
<text text-anchor="start" x="453" y="-116.8" font-family="mono" font-size="14.00" fill="#c83500">contentMediaType</text>
<text text-anchor="start" x="586" y="-116.8" font-family="Times,serif" font-size="14.00"> : </text>
<text text-anchor="start" x="598" y="-116.8" font-family="mono" font-size="14.00" fill="#c83500">string</text>
<polygon fill="#ddeeff" stroke="none" points="450,-88 450,-109 859,-109 859,-88 450,-88"/>
<polygon fill="none" stroke="#8ccbf2" points="450,-88 450,-109 859,-109 859,-88 450,-88"/>
<text text-anchor="start" x="453" y="-95.8" font-family="mono" font-size="14.00" fill="#c83500">description</text>
<text text-anchor="start" x="544" y="-95.8" font-family="Times,serif" font-size="14.00"> : Map of </text>
<text text-anchor="start" x="600" y="-95.8" font-family="mono" font-size="14.00" fill="#c83500">string</text>
<text text-anchor="start" x="650" y="-95.8" font-family="mono" font-size="14.00" fill="#c83500">descriptions</text>
<text text-anchor="start" x="750" y="-95.8" font-family="Times,serif" font-size="14.00"> : Map of </text>
<text text-anchor="start" x="806" y="-95.8" font-family="mono" font-size="14.00" fill="#c83500">string</text>
<polygon fill="#ddeeff" stroke="none" points="450,-67 450,-88 859,-88 859,-67 450,-67"/>
<polygon fill="none" stroke="#8ccbf2" points="450,-67 450,-88 859,-88 859,-67 450,-67"/>
<text text-anchor="start" x="453" y="-74.8" font-family="mono" font-size="14.00" fill="#c83500">unit</text>
<text text-anchor="start" x="487" y="-74.8" font-family="Times,serif" font-size="14.00"> : </text>
<text text-anchor="start" x="499" y="-74.8" font-family="mono" font-size="14.00" fill="#c83500">string</text>
<polygon fill="#ddeeff" stroke="none" points="450,-46 450,-67 859,-67 859,-46 450,-46"/>
<polygon fill="none" stroke="#8ccbf2" points="450,-46 450,-67 859,-67 859,-46 450,-46"/>
<text text-anchor="start" x="453" y="-53.8" font-family="mono" font-size="14.00" fill="#c83500">readOnly</text>
<text text-anchor="start" x="520" y="-53.8" font-family="Times,serif" font-size="14.00"> : </text>
<text text-anchor="start" x="532" y="-53.8" font-family="mono" font-size="14.00" fill="#c83500">boolean</text>
<polygon fill="#ddeeff" stroke="none" points="450,-25 450,-46 859,-46 859,-25 450,-25"/>
<polygon fill="none" stroke="#8ccbf2" points="450,-25 450,-46 859,-46 859,-25 450,-25"/>
<text text-anchor="start" x="453" y="-32.8" font-family="mono" font-size="14.00" fill="#c83500">writeOnly</text>
<text text-anchor="start" x="528" y="-32.8" font-family="Times,serif" font-size="14.00"> : </text>
<text text-anchor="start" x="540" y="-32.8" font-family="mono" font-size="14.00" fill="#c83500">boolean</text>
<polygon fill="#ddeeff" stroke="none" points="450,-4 450,-25 859,-25 859,-4 450,-4"/>
<polygon fill="none" stroke="#8ccbf2" points="450,-4 450,-25 859,-25 859,-4 450,-4"/>
<text text-anchor="start" x="453" y="-11.8" font-family="mono" font-size="14.00" fill="#c83500">format</text>
<text text-anchor="start" x="503" y="-11.8" font-family="Times,serif" font-size="14.00"> : </text>
<text text-anchor="start" x="515" y="-11.8" font-family="mono" font-size="14.00" fill="#c83500">string</text>
</g>
<!-- ArraySchema&#45;&gt;DataSchema -->
<g id="edge2" class="edge"><title>ArraySchema&#45;&gt;DataSchema</title>
<path fill="none" stroke="black" d="M105.329,-300.418C112.882,-278.851 125.675,-252.206 146,-236 226.455,-171.849 335.135,-139.798 431.325,-124"/>
<polygon fill="black" stroke="black" points="432.163,-127.411 441.489,-122.383 431.063,-120.498 432.163,-127.411"/>
<text text-anchor="start" x="146" y="-239.8" font-family="mono" font-size="14.00" fill="#c83500">items</text>
<text text-anchor="middle" x="430.489" y="-126.183" font-family="Times,serif" font-size="14.00">0..*</text>
</g>
<!-- ArraySchema&#45;&gt;DataSchema -->
<g id="edge4" class="edge"><title>ArraySchema&#45;&gt;DataSchema</title>
<path fill="none" stroke="black" d="M145.959,-300.405C162.962,-289.505 182.382,-277.979 201,-269 274.076,-233.758 357.071,-202.329 431.878,-176.909"/>
<polygon fill="white" stroke="black" points="433.078,-180.198 441.431,-173.68 430.836,-173.566 433.078,-180.198"/>
</g>
<!-- BooleanSchema -->
<g id="node2" class="node"><title>BooleanSchema</title>
<polygon fill="#8ccbf2" stroke="none" points="218,-325 218,-346 332,-346 332,-325 218,-325"/>
<polygon fill="none" stroke="#8ccbf2" points="218,-325 218,-346 332,-346 332,-325 218,-325"/>
<text text-anchor="start" x="221" y="-332.8" font-family="mono" font-weight="bold" font-size="14.00" fill="#c83500">BooleanSchema</text>
</g>
<!-- BooleanSchema&#45;&gt;DataSchema -->
<g id="edge5" class="edge"><title>BooleanSchema&#45;&gt;DataSchema</title>
<path fill="none" stroke="black" d="M291.627,-317.972C305.999,-303.812 327.753,-283.675 349,-269 375.16,-250.932 403.632,-233.502 432.322,-217.226"/>
<polygon fill="white" stroke="black" points="434.232,-220.167 441.23,-212.212 430.799,-214.067 434.232,-220.167"/>
</g>
<!-- DataSchema&#45;&gt;DataSchema -->
<g id="edge1" class="edge"><title>DataSchema&#45;&gt;DataSchema</title>
<path fill="none" stroke="black" d="M866.786,-125.499C877.914,-121.435 884.5,-115.936 884.5,-109 884.5,-104.34 881.527,-100.329 876.201,-96.9651"/>
<polygon fill="black" stroke="black" points="877.321,-93.623 866.786,-92.501 874.322,-99.9479 877.321,-93.623"/>
<text text-anchor="start" x="884.5" y="-105.3" font-family="mono" font-size="14.00" fill="#c83500">oneOf</text>
<text text-anchor="middle" x="877.786" y="-81.301" font-family="Times,serif" font-size="14.00">0..*</text>
</g>
<!-- IntegerSchema -->
<g id="node4" class="node"><title>IntegerSchema</title>
<polygon fill="#8ccbf2" stroke="none" points="367,-378 367,-399 576,-399 576,-378 367,-378"/>
<polygon fill="none" stroke="#8ccbf2" points="367,-378 367,-399 576,-399 576,-378 367,-378"/>
<text text-anchor="start" x="417.5" y="-385.8" font-family="mono" font-weight="bold" font-size="14.00" fill="#c83500">IntegerSchema</text>
<polygon fill="#ddeeff" stroke="none" points="367,-357 367,-378 576,-378 576,-357 367,-357"/>
<polygon fill="none" stroke="#8ccbf2" points="367,-357 367,-378 576,-378 576,-357 367,-357"/>
<text text-anchor="start" x="370" y="-364.8" font-family="mono" font-size="14.00" fill="#c83500">minimum</text>
<text text-anchor="start" x="428" y="-364.8" font-family="Times,serif" font-size="14.00"> : </text>
<text text-anchor="start" x="440" y="-364.8" font-family="mono" font-size="14.00" fill="#c83500">integer</text>
<polygon fill="#ddeeff" stroke="none" points="367,-336 367,-357 576,-357 576,-336 367,-336"/>
<polygon fill="none" stroke="#8ccbf2" points="367,-336 367,-357 576,-357 576,-336 367,-336"/>
<text text-anchor="start" x="370" y="-343.8" font-family="mono" font-size="14.00" fill="#c83500">exclusiveMinimum</text>
<text text-anchor="start" x="503" y="-343.8" font-family="Times,serif" font-size="14.00"> : </text>
<text text-anchor="start" x="515" y="-343.8" font-family="mono" font-size="14.00" fill="#c83500">integer</text>
<polygon fill="#ddeeff" stroke="none" points="367,-315 367,-336 576,-336 576,-315 367,-315"/>
<polygon fill="none" stroke="#8ccbf2" points="367,-315 367,-336 576,-336 576,-315 367,-315"/>
<text text-anchor="start" x="370" y="-322.8" font-family="mono" font-size="14.00" fill="#c83500">maximum</text>
<text text-anchor="start" x="428" y="-322.8" font-family="Times,serif" font-size="14.00"> : </text>
<text text-anchor="start" x="440" y="-322.8" font-family="mono" font-size="14.00" fill="#c83500">integer</text>
<polygon fill="#ddeeff" stroke="none" points="367,-294 367,-315 576,-315 576,-294 367,-294"/>
<polygon fill="none" stroke="#8ccbf2" points="367,-294 367,-315 576,-315 576,-294 367,-294"/>
<text text-anchor="start" x="370" y="-301.8" font-family="mono" font-size="14.00" fill="#c83500">exclusiveMaximum</text>
<text text-anchor="start" x="503" y="-301.8" font-family="Times,serif" font-size="14.00"> : </text>
<text text-anchor="start" x="515" y="-301.8" font-family="mono" font-size="14.00" fill="#c83500">integer</text>
<polygon fill="#ddeeff" stroke="none" points="367,-273 367,-294 576,-294 576,-273 367,-273"/>
<polygon fill="none" stroke="#8ccbf2" points="367,-273 367,-294 576,-294 576,-273 367,-273"/>
<text text-anchor="start" x="370" y="-280.8" font-family="mono" font-size="14.00" fill="#c83500">multipleOf</text>
<text text-anchor="start" x="453" y="-280.8" font-family="Times,serif" font-size="14.00"> : </text>
<text text-anchor="start" x="465" y="-280.8" font-family="mono" font-size="14.00" fill="#c83500">integer</text>
</g>
<!-- IntegerSchema&#45;&gt;DataSchema -->
<g id="edge6" class="edge"><title>IntegerSchema&#45;&gt;DataSchema</title>
<path fill="none" stroke="black" d="M524.916,-268.71C535.858,-255.257 547.668,-240.737 559.544,-226.135"/>
<polygon fill="white" stroke="black" points="562.549,-227.987 566.143,-218.021 557.118,-223.57 562.549,-227.987"/>
</g>
<!-- NullSchema -->
<g id="node5" class="node"><title>NullSchema</title>
<polygon fill="#8ccbf2" stroke="none" points="610,-325 610,-346 699,-346 699,-325 610,-325"/>
<polygon fill="none" stroke="#8ccbf2" points="610,-325 610,-346 699,-346 699,-325 610,-325"/>
<text text-anchor="start" x="613" y="-332.8" font-family="mono" font-weight="bold" font-size="14.00" fill="#c83500">NullSchema</text>
</g>
<!-- NullSchema&#45;&gt;DataSchema -->
<g id="edge7" class="edge"><title>NullSchema&#45;&gt;DataSchema</title>
<path fill="none" stroke="black" d="M654,-317.718C654,-297.91 654,-263.634 654,-228.569"/>
<polygon fill="white" stroke="black" points="657.5,-228.176 654,-218.176 650.5,-228.176 657.5,-228.176"/>
</g>
<!-- NumberSchema -->
<g id="node6" class="node"><title>NumberSchema</title>
<polygon fill="#8ccbf2" stroke="none" points="733,-378 733,-399 934,-399 934,-378 733,-378"/>
<polygon fill="none" stroke="#8ccbf2" points="733,-378 733,-399 934,-399 934,-378 733,-378"/>
<text text-anchor="start" x="783.5" y="-385.8" font-family="mono" font-weight="bold" font-size="14.00" fill="#c83500">NumberSchema</text>
<polygon fill="#ddeeff" stroke="none" points="733,-357 733,-378 934,-378 934,-357 733,-357"/>
<polygon fill="none" stroke="#8ccbf2" points="733,-357 733,-378 934,-378 934,-357 733,-357"/>
<text text-anchor="start" x="736" y="-364.8" font-family="mono" font-size="14.00" fill="#c83500">minimum</text>
<text text-anchor="start" x="794" y="-364.8" font-family="Times,serif" font-size="14.00"> : </text>
<text text-anchor="start" x="806" y="-364.8" font-family="mono" font-size="14.00" fill="#c83500">double</text>
<polygon fill="#ddeeff" stroke="none" points="733,-336 733,-357 934,-357 934,-336 733,-336"/>
<polygon fill="none" stroke="#8ccbf2" points="733,-336 733,-357 934,-357 934,-336 733,-336"/>
<text text-anchor="start" x="736" y="-343.8" font-family="mono" font-size="14.00" fill="#c83500">exclusiveMinimum</text>
<text text-anchor="start" x="869" y="-343.8" font-family="Times,serif" font-size="14.00"> : </text>
<text text-anchor="start" x="881" y="-343.8" font-family="mono" font-size="14.00" fill="#c83500">double</text>
<polygon fill="#ddeeff" stroke="none" points="733,-315 733,-336 934,-336 934,-315 733,-315"/>
<polygon fill="none" stroke="#8ccbf2" points="733,-315 733,-336 934,-336 934,-315 733,-315"/>
<text text-anchor="start" x="736" y="-322.8" font-family="mono" font-size="14.00" fill="#c83500">maximum</text>
<text text-anchor="start" x="794" y="-322.8" font-family="Times,serif" font-size="14.00"> : </text>
<text text-anchor="start" x="806" y="-322.8" font-family="mono" font-size="14.00" fill="#c83500">double</text>
<polygon fill="#ddeeff" stroke="none" points="733,-294 733,-315 934,-315 934,-294 733,-294"/>
<polygon fill="none" stroke="#8ccbf2" points="733,-294 733,-315 934,-315 934,-294 733,-294"/>
<text text-anchor="start" x="736" y="-301.8" font-family="mono" font-size="14.00" fill="#c83500">exclusiveMaximum</text>
<text text-anchor="start" x="869" y="-301.8" font-family="Times,serif" font-size="14.00"> : </text>
<text text-anchor="start" x="881" y="-301.8" font-family="mono" font-size="14.00" fill="#c83500">double</text>
<polygon fill="#ddeeff" stroke="none" points="733,-273 733,-294 934,-294 934,-273 733,-273"/>
<polygon fill="none" stroke="#8ccbf2" points="733,-273 733,-294 934,-294 934,-273 733,-273"/>
<text text-anchor="start" x="736" y="-280.8" font-family="mono" font-size="14.00" fill="#c83500">multipleOf</text>
<text text-anchor="start" x="819" y="-280.8" font-family="Times,serif" font-size="14.00"> : </text>
<text text-anchor="start" x="831" y="-280.8" font-family="mono" font-size="14.00" fill="#c83500">double</text>
</g>
<!-- NumberSchema&#45;&gt;DataSchema -->
<g id="edge8" class="edge"><title>NumberSchema&#45;&gt;DataSchema</title>
<path fill="none" stroke="black" d="M780.262,-268.71C769.56,-255.257 758.008,-240.737 746.392,-226.135"/>
<polygon fill="white" stroke="black" points="748.901,-223.667 739.936,-218.021 743.423,-228.025 748.901,-223.667"/>
</g>
<!-- ObjectSchema -->
<g id="node7" class="node"><title>ObjectSchema</title>
<polygon fill="#8ccbf2" stroke="none" points="968,-336 968,-357 1153,-357 1153,-336 968,-336"/>
<polygon fill="none" stroke="#8ccbf2" points="968,-336 968,-357 1153,-357 1153,-336 968,-336"/>
<text text-anchor="start" x="1010.5" y="-343.8" font-family="mono" font-weight="bold" font-size="14.00" fill="#c83500">ObjectSchema</text>
<polygon fill="#ddeeff" stroke="none" points="968,-315 968,-336 1153,-336 1153,-315 968,-315"/>
<polygon fill="none" stroke="#8ccbf2" points="968,-315 968,-336 1153,-336 1153,-315 968,-315"/>
<text text-anchor="start" x="971" y="-322.8" font-family="mono" font-size="14.00" fill="#c83500">required</text>
<text text-anchor="start" x="1038" y="-322.8" font-family="Times,serif" font-size="14.00"> : Array of </text>
<text text-anchor="start" x="1100" y="-322.8" font-family="mono" font-size="14.00" fill="#c83500">string</text>
</g>
<!-- ObjectSchema&#45;&gt;DataSchema -->
<g id="edge3" class="edge"><title>ObjectSchema&#45;&gt;DataSchema</title>
<path fill="none" stroke="black" d="M1020.81,-310.869C999.927,-298.169 973.721,-282.477 950,-269 923.341,-253.854 895.152,-238.224 867.183,-222.949"/>
<polygon fill="black" stroke="black" points="868.568,-219.717 858.113,-218.002 865.217,-225.863 868.568,-219.717"/>
<text text-anchor="start" x="911" y="-239.8" font-family="mono" font-size="14.00" fill="#c83500">properties</text>
<text text-anchor="middle" x="847.113" y="-221.802" font-family="Times,serif" font-size="14.00">0..*</text>
</g>
<!-- ObjectSchema&#45;&gt;DataSchema -->
<g id="edge9" class="edge"><title>ObjectSchema&#45;&gt;DataSchema</title>
<path fill="none" stroke="black" d="M1050.26,-310.603C1040.22,-288.327 1022.58,-255.922 998,-236 962.327,-207.082 919.412,-184.453 876.178,-166.866"/>
<polygon fill="white" stroke="black" points="877.244,-163.523 866.659,-163.075 874.655,-170.027 877.244,-163.523"/>
</g>
<!-- StringSchema -->
<g id="node8" class="node"><title>StringSchema</title>
<polygon fill="#8ccbf2" stroke="none" points="1187,-346 1187,-367 1371,-367 1371,-346 1187,-346"/>
<polygon fill="none" stroke="#8ccbf2" points="1187,-346 1187,-367 1371,-367 1371,-346 1187,-346"/>
<text text-anchor="start" x="1229" y="-353.8" font-family="mono" font-weight="bold" font-size="14.00" fill="#c83500">StringSchema</text>
<polygon fill="#ddeeff" stroke="none" points="1187,-325 1187,-346 1371,-346 1371,-325 1187,-325"/>
<polygon fill="none" stroke="#8ccbf2" points="1187,-325 1187,-346 1371,-346 1371,-325 1187,-325"/>
<text text-anchor="start" x="1190" y="-332.8" font-family="mono" font-size="14.00" fill="#c83500">minLength</text>
<text text-anchor="start" x="1265" y="-332.8" font-family="Times,serif" font-size="14.00"> : </text>
<text text-anchor="start" x="1277" y="-332.8" font-family="mono" font-size="14.00" fill="#c83500">unsignedInt</text>
<polygon fill="#ddeeff" stroke="none" points="1187,-304 1187,-325 1371,-325 1371,-304 1187,-304"/>
<polygon fill="none" stroke="#8ccbf2" points="1187,-304 1187,-325 1371,-325 1371,-304 1187,-304"/>
<text text-anchor="start" x="1190" y="-311.8" font-family="mono" font-size="14.00" fill="#c83500">maxLength</text>
<text text-anchor="start" x="1265" y="-311.8" font-family="Times,serif" font-size="14.00"> : </text>
<text text-anchor="start" x="1277" y="-311.8" font-family="mono" font-size="14.00" fill="#c83500">unsignedInt</text>
</g>
<!-- StringSchema&#45;&gt;DataSchema -->
<g id="edge10" class="edge"><title>StringSchema&#45;&gt;DataSchema</title>
<path fill="none" stroke="black" d="M1227.24,-300.439C1209.3,-289.416 1188.73,-277.808 1169,-269 1075.95,-227.456 968.882,-192.485 876.551,-166.013"/>
<polygon fill="white" stroke="black" points="877.381,-162.61 866.805,-163.234 875.462,-169.342 877.381,-162.61"/>
</g>
</g>
</svg>
