<?xml version="1.0" encoding="UTF-8" standalone="no"?>
<!DOCTYPE svg PUBLIC "-//W3C//DTD SVG 1.1//EN"
 "http://www.w3.org/Graphics/SVG/1.1/DTD/svg11.dtd">
<!-- Generated by graphviz version 2.38.0 (20140413.2041)
 -->
<!-- Title: %3 Pages: 1 -->
<svg width="1156pt" height="393pt"
 viewBox="0.00 0.00 1155.50 393.00" xmlns="http://www.w3.org/2000/svg" xmlns:xlink="http://www.w3.org/1999/xlink">
<g id="graph0" class="graph" transform="scale(1 1) rotate(0) translate(4 389)">
<title>%3</title>
<polygon fill="white" stroke="none" points="-4,4 -4,-389 1151.5,-389 1151.5,4 -4,4"/>
<!-- IntegerSchema -->
<g id="node1" class="node"><title>IntegerSchema</title>
<polygon fill="#8ccbf2" stroke="none" points="8,-359.5 8,-380.5 142,-380.5 142,-359.5 8,-359.5"/>
<polygon fill="none" stroke="#8ccbf2" points="8,-359.5 8,-380.5 142,-380.5 142,-359.5 8,-359.5"/>
<text text-anchor="start" x="21" y="-367.3" font-family="mono" font-weight="bold" font-size="14.00" fill="#c83500">IntegerSchema</text>
<polygon fill="#ddeeff" stroke="none" points="8,-338.5 8,-359.5 142,-359.5 142,-338.5 8,-338.5"/>
<polygon fill="none" stroke="#8ccbf2" points="8,-338.5 8,-359.5 142,-359.5 142,-338.5 8,-338.5"/>
<text text-anchor="start" x="11" y="-346.3" font-family="mono" font-size="14.00" fill="#c83500">maximum</text>
<text text-anchor="start" x="69" y="-346.3" font-family="Times,serif" font-size="14.00"> : </text>
<text text-anchor="start" x="81" y="-346.3" font-family="mono" font-size="14.00" fill="#c83500">integer</text>
<polygon fill="#ddeeff" stroke="none" points="8,-317.5 8,-338.5 142,-338.5 142,-317.5 8,-317.5"/>
<polygon fill="none" stroke="#8ccbf2" points="8,-317.5 8,-338.5 142,-338.5 142,-317.5 8,-317.5"/>
<text text-anchor="start" x="11" y="-325.3" font-family="mono" font-size="14.00" fill="#c83500">minimum</text>
<text text-anchor="start" x="69" y="-325.3" font-family="Times,serif" font-size="14.00"> : </text>
<text text-anchor="start" x="81" y="-325.3" font-family="mono" font-size="14.00" fill="#c83500">integer</text>
</g>
<!-- DataSchema -->
<g id="node8" class="node"><title>DataSchema</title>
<polygon fill="#8ccbf2" stroke="none" points="533,-238 533,-259 701,-259 701,-238 533,-238"/>
<polygon fill="none" stroke="#8ccbf2" points="533,-238 533,-259 701,-259 701,-238 533,-238"/>
<text text-anchor="start" x="575.5" y="-245.8" font-family="mono" font-weight="bold" font-size="14.00" fill="#c83500">DataSchema</text>
<polygon fill="#ddeeff" stroke="none" points="533,-217 533,-238 701,-238 701,-217 533,-217"/>
<polygon fill="none" stroke="#8ccbf2" points="533,-217 533,-238 701,-238 701,-217 533,-217"/>
<text text-anchor="start" x="536" y="-224.8" font-family="mono" font-size="14.00" fill="#c83500">@type</text>
<text text-anchor="start" x="578" y="-224.8" font-family="Times,serif" font-size="14.00"> : </text>
<text text-anchor="start" x="590" y="-224.8" font-family="Times,serif" font-style="italic" font-size="14.00">(array of) </text>
<text text-anchor="start" x="648" y="-224.8" font-family="mono" font-size="14.00" fill="#c83500">string</text>
<polygon fill="#ddeeff" stroke="none" points="533,-196 533,-217 701,-217 701,-196 533,-196"/>
<polygon fill="none" stroke="#8ccbf2" points="533,-196 533,-217 701,-217 701,-196 533,-196"/>
<text text-anchor="start" x="536" y="-203.8" font-family="mono" font-size="14.00" fill="#c83500">type</text>
<text text-anchor="start" x="570" y="-203.8" font-family="Times,serif" font-size="14.00"> : </text>
<text text-anchor="start" x="582" y="-203.8" font-family="mono" font-size="14.00" fill="#c83500">string</text>
<polygon fill="#ddeeff" stroke="none" points="533,-175 533,-196 701,-196 701,-175 533,-175"/>
<polygon fill="none" stroke="#8ccbf2" points="533,-175 533,-196 701,-196 701,-175 533,-175"/>
<text text-anchor="start" x="536" y="-182.8" font-family="mono" font-size="14.00" fill="#c83500">readOnly</text>
<text text-anchor="start" x="603" y="-182.8" font-family="Times,serif" font-size="14.00"> : </text>
<text text-anchor="start" x="615" y="-182.8" font-family="mono" font-size="14.00" fill="#c83500">boolean</text>
<polygon fill="#ddeeff" stroke="none" points="533,-154 533,-175 701,-175 701,-154 533,-154"/>
<polygon fill="none" stroke="#8ccbf2" points="533,-154 533,-175 701,-175 701,-154 533,-154"/>
<text text-anchor="start" x="536" y="-161.8" font-family="mono" font-size="14.00" fill="#c83500">description</text>
<text text-anchor="start" x="627" y="-161.8" font-family="Times,serif" font-size="14.00"> : </text>
<text text-anchor="start" x="639" y="-161.8" font-family="mono" font-size="14.00" fill="#c83500">string</text>
<polygon fill="#ddeeff" stroke="none" points="533,-133 533,-154 701,-154 701,-133 533,-133"/>
<polygon fill="none" stroke="#8ccbf2" points="533,-133 533,-154 701,-154 701,-133 533,-133"/>
<text text-anchor="start" x="536" y="-140.8" font-family="mono" font-size="14.00" fill="#c83500">title</text>
<text text-anchor="start" x="578" y="-140.8" font-family="Times,serif" font-size="14.00"> : </text>
<text text-anchor="start" x="590" y="-140.8" font-family="mono" font-size="14.00" fill="#c83500">string</text>
<polygon fill="#ddeeff" stroke="none" points="533,-112 533,-133 701,-133 701,-112 533,-112"/>
<polygon fill="none" stroke="#8ccbf2" points="533,-112 533,-133 701,-133 701,-112 533,-112"/>
<text text-anchor="start" x="536" y="-119.8" font-family="mono" font-size="14.00" fill="#c83500">writeOnly</text>
<text text-anchor="start" x="611" y="-119.8" font-family="Times,serif" font-size="14.00"> : </text>
<text text-anchor="start" x="623" y="-119.8" font-family="mono" font-size="14.00" fill="#c83500">boolean</text>
<polygon fill="#ddeeff" stroke="none" points="533,-91 533,-112 701,-112 701,-91 533,-91"/>
<polygon fill="none" stroke="#8ccbf2" points="533,-91 533,-112 701,-112 701,-91 533,-91"/>
<text text-anchor="start" x="536" y="-98.8" font-family="mono" font-size="14.00" fill="#c83500">format</text>
<text text-anchor="start" x="586" y="-98.8" font-family="Times,serif" font-size="14.00"> : </text>
<text text-anchor="start" x="598" y="-98.8" font-family="mono" font-size="14.00" fill="#c83500">string</text>
</g>
<!-- IntegerSchema&#45;&gt;DataSchema -->
<g id="edge10" class="edge"><title>IntegerSchema&#45;&gt;DataSchema</title>
<path fill="none" stroke="black" d="M150.423,-317.119C153.311,-316.046 156.177,-315.002 159,-314 279.933,-271.06 421.752,-229.676 515.176,-203.616"/>
<polygon fill="white" stroke="black" points="516.215,-206.961 524.91,-200.908 514.338,-200.217 516.215,-206.961"/>
</g>
<!-- StringSchema -->
<g id="node2" class="node"><title>StringSchema</title>
<polygon fill="#8ccbf2" stroke="none" points="176,-338.5 176,-359.5 282,-359.5 282,-338.5 176,-338.5"/>
<polygon fill="none" stroke="#8ccbf2" points="176,-338.5 176,-359.5 282,-359.5 282,-338.5 176,-338.5"/>
<text text-anchor="start" x="179" y="-346.3" font-family="mono" font-weight="bold" font-size="14.00" fill="#c83500">StringSchema</text>
</g>
<!-- StringSchema&#45;&gt;DataSchema -->
<g id="edge9" class="edge"><title>StringSchema&#45;&gt;DataSchema</title>
<path fill="none" stroke="black" d="M262.665,-331.497C274.136,-325.813 287.074,-319.522 299,-314 370.814,-280.745 452.757,-245.242 515.474,-218.575"/>
<polygon fill="white" stroke="black" points="517.141,-221.67 524.977,-214.539 514.405,-215.226 517.141,-221.67"/>
</g>
<!-- BooleanSchema -->
<g id="node3" class="node"><title>BooleanSchema</title>
<polygon fill="#8ccbf2" stroke="none" points="316,-338.5 316,-359.5 430,-359.5 430,-338.5 316,-338.5"/>
<polygon fill="none" stroke="#8ccbf2" points="316,-338.5 316,-359.5 430,-359.5 430,-338.5 316,-338.5"/>
<text text-anchor="start" x="319" y="-346.3" font-family="mono" font-weight="bold" font-size="14.00" fill="#c83500">BooleanSchema</text>
</g>
<!-- BooleanSchema&#45;&gt;DataSchema -->
<g id="edge8" class="edge"><title>BooleanSchema&#45;&gt;DataSchema</title>
<path fill="none" stroke="black" d="M397.288,-331.329C425.145,-311.635 472.619,-278.073 516.324,-247.174"/>
<polygon fill="white" stroke="black" points="518.576,-249.869 524.721,-241.238 514.535,-244.153 518.576,-249.869"/>
</g>
<!-- NumberSchema -->
<g id="node4" class="node"><title>NumberSchema</title>
<polygon fill="#8ccbf2" stroke="none" points="464,-359.5 464,-380.5 590,-380.5 590,-359.5 464,-359.5"/>
<polygon fill="none" stroke="#8ccbf2" points="464,-359.5 464,-380.5 590,-380.5 590,-359.5 464,-359.5"/>
<text text-anchor="start" x="477" y="-367.3" font-family="mono" font-weight="bold" font-size="14.00" fill="#c83500">NumberSchema</text>
<polygon fill="#ddeeff" stroke="none" points="464,-338.5 464,-359.5 590,-359.5 590,-338.5 464,-338.5"/>
<polygon fill="none" stroke="#8ccbf2" points="464,-338.5 464,-359.5 590,-359.5 590,-338.5 464,-338.5"/>
<text text-anchor="start" x="467" y="-346.3" font-family="mono" font-size="14.00" fill="#c83500">minimum</text>
<text text-anchor="start" x="525" y="-346.3" font-family="Times,serif" font-size="14.00"> : </text>
<text text-anchor="start" x="537" y="-346.3" font-family="mono" font-size="14.00" fill="#c83500">double</text>
<polygon fill="#ddeeff" stroke="none" points="464,-317.5 464,-338.5 590,-338.5 590,-317.5 464,-317.5"/>
<polygon fill="none" stroke="#8ccbf2" points="464,-317.5 464,-338.5 590,-338.5 590,-317.5 464,-317.5"/>
<text text-anchor="start" x="467" y="-325.3" font-family="mono" font-size="14.00" fill="#c83500">maximum</text>
<text text-anchor="start" x="525" y="-325.3" font-family="Times,serif" font-size="14.00"> : </text>
<text text-anchor="start" x="537" y="-325.3" font-family="mono" font-size="14.00" fill="#c83500">double</text>
</g>
<!-- NumberSchema&#45;&gt;DataSchema -->
<g id="edge11" class="edge"><title>NumberSchema&#45;&gt;DataSchema</title>
<path fill="none" stroke="black" d="M545.213,-313.592C551.551,-301.445 559.003,-287.161 566.665,-272.476"/>
<polygon fill="white" stroke="black" points="569.931,-273.781 571.454,-263.296 563.725,-270.543 569.931,-273.781"/>
</g>
<!-- ObjectSchema -->
<g id="node5" class="node"><title>ObjectSchema</title>
<polygon fill="#8ccbf2" stroke="none" points="625,-349.5 625,-370.5 806,-370.5 806,-349.5 625,-349.5"/>
<polygon fill="none" stroke="#8ccbf2" points="625,-349.5 625,-370.5 806,-370.5 806,-349.5 625,-349.5"/>
<text text-anchor="start" x="665.5" y="-357.3" font-family="mono" font-weight="bold" font-size="14.00" fill="#c83500">ObjectSchema</text>
<polygon fill="#ddeeff" stroke="none" points="625,-328.5 625,-349.5 806,-349.5 806,-328.5 625,-328.5"/>
<polygon fill="none" stroke="#8ccbf2" points="625,-328.5 625,-349.5 806,-349.5 806,-328.5 625,-328.5"/>
<text text-anchor="start" x="628" y="-336.3" font-family="mono" font-size="14.00" fill="#c83500">required</text>
<text text-anchor="start" x="695" y="-336.3" font-family="Times,serif" font-size="14.00"> : array of </text>
<text text-anchor="start" x="753" y="-336.3" font-family="mono" font-size="14.00" fill="#c83500">string</text>
</g>
<!-- ObjectSchema&#45;&gt;DataSchema -->
<g id="edge1" class="edge"><title>ObjectSchema&#45;&gt;DataSchema</title>
<path fill="none" stroke="black" d="M647.716,-324.433C635.888,-317.136 625.106,-307.814 618,-296 613.763,-288.956 610.808,-281.232 608.841,-273.206"/>
<polygon fill="black" stroke="black" points="612.257,-272.439 606.912,-263.291 605.386,-273.776 612.257,-272.439"/>
<text text-anchor="start" x="618" y="-284.8" font-family="mono" font-size="14.00" fill="#c83500">properties</text>
<text text-anchor="middle" x="595.912" y="-267.091" font-family="Times,serif" font-size="14.00">0..1</text>
</g>
<!-- ObjectSchema&#45;&gt;DataSchema -->
<g id="edge7" class="edge"><title>ObjectSchema&#45;&gt;DataSchema</title>
<path fill="none" stroke="black" d="M712.756,-324.198C710.854,-310.948 707.367,-294.538 701,-281 699.584,-277.99 698.066,-274.989 696.46,-272.007"/>
<polygon fill="white" stroke="black" points="699.39,-270.079 691.4,-263.122 693.308,-273.543 699.39,-270.079"/>
</g>
<!-- ArraySchema -->
<g id="node6" class="node"><title>ArraySchema</title>
<polygon fill="#8ccbf2" stroke="none" points="840,-359.5 840,-380.5 1016,-380.5 1016,-359.5 840,-359.5"/>
<polygon fill="none" stroke="#8ccbf2" points="840,-359.5 840,-380.5 1016,-380.5 1016,-359.5 840,-359.5"/>
<text text-anchor="start" x="882.5" y="-367.3" font-family="mono" font-weight="bold" font-size="14.00" fill="#c83500">ArraySchema</text>
<polygon fill="#ddeeff" stroke="none" points="840,-338.5 840,-359.5 1016,-359.5 1016,-338.5 840,-338.5"/>
<polygon fill="none" stroke="#8ccbf2" points="840,-338.5 840,-359.5 1016,-359.5 1016,-338.5 840,-338.5"/>
<text text-anchor="start" x="843" y="-346.3" font-family="mono" font-size="14.00" fill="#c83500">maxItems</text>
<text text-anchor="start" x="910" y="-346.3" font-family="Times,serif" font-size="14.00"> : </text>
<text text-anchor="start" x="922" y="-346.3" font-family="mono" font-size="14.00" fill="#c83500">unsignedInt</text>
<polygon fill="#ddeeff" stroke="none" points="840,-317.5 840,-338.5 1016,-338.5 1016,-317.5 840,-317.5"/>
<polygon fill="none" stroke="#8ccbf2" points="840,-317.5 840,-338.5 1016,-338.5 1016,-317.5 840,-317.5"/>
<text text-anchor="start" x="843" y="-325.3" font-family="mono" font-size="14.00" fill="#c83500">minItems</text>
<text text-anchor="start" x="910" y="-325.3" font-family="Times,serif" font-size="14.00"> : </text>
<text text-anchor="start" x="922" y="-325.3" font-family="mono" font-size="14.00" fill="#c83500">unsignedInt</text>
</g>
<!-- ArraySchema&#45;&gt;DataSchema -->
<g id="edge2" class="edge"><title>ArraySchema&#45;&gt;DataSchema</title>
<path fill="none" stroke="black" d="M865.439,-313.8C823.275,-290.413 766.712,-259.04 718.209,-232.137"/>
<polygon fill="black" stroke="black" points="719.694,-228.958 709.251,-227.168 716.298,-235.079 719.694,-228.958"/>
<text text-anchor="start" x="828" y="-284.8" font-family="mono" font-size="14.00" fill="#c83500">items</text>
<text text-anchor="middle" x="720.251" y="-230.968" font-family="Times,serif" font-size="14.00">0..*</text>
</g>
<!-- ArraySchema&#45;&gt;DataSchema -->
<g id="edge13" class="edge"><title>ArraySchema&#45;&gt;DataSchema</title>
<path fill="none" stroke="black" d="M905.672,-313.863C896.889,-302.251 886.02,-289.986 874,-281 827.761,-246.432 768.529,-221.225 718.585,-204.187"/>
<polygon fill="white" stroke="black" points="719.644,-200.851 709.05,-200.995 717.421,-207.489 719.644,-200.851"/>
</g>
<!-- NullSchema -->
<g id="node7" class="node"><title>NullSchema</title>
<polygon fill="#8ccbf2" stroke="none" points="1051,-338.5 1051,-359.5 1140,-359.5 1140,-338.5 1051,-338.5"/>
<polygon fill="none" stroke="#8ccbf2" points="1051,-338.5 1051,-359.5 1140,-359.5 1140,-338.5 1051,-338.5"/>
<text text-anchor="start" x="1054" y="-346.3" font-family="mono" font-weight="bold" font-size="14.00" fill="#c83500">NullSchema</text>
</g>
<!-- NullSchema&#45;&gt;DataSchema -->
<g id="edge12" class="edge"><title>NullSchema&#45;&gt;DataSchema</title>
<path fill="none" stroke="black" d="M1066.86,-331.378C1056.44,-325.431 1044.39,-319.005 1033,-314 928.862,-268.237 804.495,-228.863 719.033,-204.022"/>
<polygon fill="white" stroke="black" points="719.907,-200.631 709.328,-201.215 717.962,-207.356 719.907,-200.631"/>
</g>
<!-- DataSchema&#45;&gt;DataSchema -->
<g id="edge3" class="edge"><title>DataSchema&#45;&gt;DataSchema</title>
<path fill="none" stroke="black" d="M709.282,-192.923C720.016,-189.615 727,-183.641 727,-175 727,-169.195 723.848,-164.593 718.523,-161.195"/>
<polygon fill="black" stroke="black" points="719.841,-157.95 709.282,-157.077 716.992,-164.344 719.841,-157.95"/>
<text text-anchor="start" x="727" y="-171.3" font-family="mono" font-size="14.00" fill="#c83500">oneOf</text>
<text text-anchor="middle" x="720.282" y="-145.877" font-family="Times,serif" font-size="14.00">0..*</text>
</g>
<!-- MultiLanguage -->
<g id="node9" class="node"><title>MultiLanguage</title>
<polygon fill="#f2f2f2" stroke="none" points="476,-7 476,-28 590,-28 590,-7 476,-7"/>
<polygon fill="none" stroke="#8c8c8c" points="476,-7 476,-28 590,-28 590,-7 476,-7"/>
<text text-anchor="start" x="479" y="-14.8" font-family="mono" font-weight="bold" font-size="14.00">MultiLanguage</text>
</g>
<!-- DataSchema&#45;&gt;MultiLanguage -->
<g id="edge4" class="edge"><title>DataSchema&#45;&gt;MultiLanguage</title>
<path fill="none" stroke="black" d="M524.851,-111.014C512.754,-98.5659 502.107,-84.4941 495,-69 490.875,-60.0066 494.449,-51.1061 500.783,-43.3629"/>
<polygon fill="black" stroke="black" points="503.423,-45.6683 507.854,-36.0448 498.388,-40.8044 503.423,-45.6683"/>
<text text-anchor="start" x="495" y="-57.8" font-family="mono" font-size="14.00" fill="#c83500">descriptions</text>
<text text-anchor="middle" x="496.854" y="-39.8448" font-family="Times,serif" font-size="14.00">0..1</text>
</g>
<!-- DataSchema&#45;&gt;MultiLanguage -->
<g id="edge6" class="edge"><title>DataSchema&#45;&gt;MultiLanguage</title>
<path fill="none" stroke="black" d="M610.394,-86.7117C606.895,-75.0352 601.944,-63.746 595,-54 591.772,-49.4701 587.763,-45.4513 583.348,-41.9038"/>
<polygon fill="black" stroke="black" points="585.225,-38.9441 575.042,-36.0189 581.178,-44.6559 585.225,-38.9441"/>
<text text-anchor="start" x="604" y="-57.8" font-family="mono" font-size="14.00" fill="#c83500">titles</text>
<text text-anchor="middle" x="564.042" y="-39.8189" font-family="Times,serif" font-size="14.00">0..1</text>
</g>
<!-- string -->
<g id="node10" class="node"><title>string</title>
<polygon fill="#f2f2f2" stroke="none" points="662,-7 662,-28 718,-28 718,-7 662,-7"/>
<polygon fill="none" stroke="#8c8c8c" points="662,-7 662,-28 718,-28 718,-7 662,-7"/>
<text text-anchor="start" x="665" y="-14.8" font-family="mono" font-weight="bold" font-size="14.00">string</text>
</g>
<!-- DataSchema&#45;&gt;string -->
<g id="edge5" class="edge"><title>DataSchema&#45;&gt;string</title>
<path fill="none" stroke="black" d="M659.689,-86.7448C662.527,-80.7513 665.32,-74.7937 668,-69 671.528,-61.3746 675.249,-53.0389 678.607,-45.3977"/>
<polygon fill="black" stroke="black" points="681.83,-46.7611 682.624,-36.196 675.415,-43.9603 681.83,-46.7611"/>
<text text-anchor="start" x="675" y="-57.8" font-family="mono" font-size="14.00" fill="#c83500">unit</text>
<text text-anchor="middle" x="671.624" y="-39.996" font-family="Times,serif" font-size="14.00">0..1</text>
</g>
</g>
</svg>
