<?xml version="1.0" encoding="UTF-8" standalone="no"?>
<!DOCTYPE svg PUBLIC "-//W3C//DTD SVG 1.1//EN"
 "http://www.w3.org/Graphics/SVG/1.1/DTD/svg11.dtd">
<!-- Generated by graphviz version 2.40.1 (20161225.0304)
 -->
<!-- Title: %3 Pages: 1 -->
<svg width="1147pt" height="369pt"
 viewBox="0.00 0.00 1146.50 369.00" xmlns="http://www.w3.org/2000/svg" xmlns:xlink="http://www.w3.org/1999/xlink">
<g id="graph0" class="graph" transform="scale(1 1) rotate(0) translate(4 365)">
<title>%3</title>
<polygon fill="#ffffff" stroke="transparent" points="-4,4 -4,-365 1142.5,-365 1142.5,4 -4,4"/>
<!-- ArraySchema -->
<g id="node1" class="node">
<title>ArraySchema</title>
<polygon fill="#8ccbf2" stroke="transparent" points="8.5,-325 8.5,-346 159.5,-346 159.5,-325 8.5,-325"/>
<polygon fill="none" stroke="#8ccbf2" points="8.5,-325 8.5,-346 159.5,-346 159.5,-325 8.5,-325"/>
<text text-anchor="start" x="38.5" y="-332.8" font-family="mono" font-weight="bold" font-size="14.00" fill="#c83500">ArraySchema</text>
<polygon fill="#ddeeff" stroke="transparent" points="8.5,-304 8.5,-325 159.5,-325 159.5,-304 8.5,-304"/>
<polygon fill="none" stroke="#8ccbf2" points="8.5,-304 8.5,-325 159.5,-325 159.5,-304 8.5,-304"/>
<text text-anchor="start" x="11.5" y="-311.8" font-family="mono" font-size="14.00" fill="#c83500">minItems</text>
<text text-anchor="start" x="68.5" y="-311.8" font-family="Times,serif" font-size="14.00" fill="#000000"> : </text>
<text text-anchor="start" x="79.5" y="-311.8" font-family="mono" font-size="14.00" fill="#c83500">unsignedInt</text>
<polygon fill="#ddeeff" stroke="transparent" points="8.5,-283 8.5,-304 159.5,-304 159.5,-283 8.5,-283"/>
<polygon fill="none" stroke="#8ccbf2" points="8.5,-283 8.5,-304 159.5,-304 159.5,-283 8.5,-283"/>
<text text-anchor="start" x="11.5" y="-290.8" font-family="mono" font-size="14.00" fill="#c83500">maxItems</text>
<text text-anchor="start" x="72.5" y="-290.8" font-family="Times,serif" font-size="14.00" fill="#000000"> : </text>
<text text-anchor="start" x="83.5" y="-290.8" font-family="mono" font-size="14.00" fill="#c83500">unsignedInt</text>
</g>
<!-- DataSchema -->
<g id="node3" class="node">
<title>DataSchema</title>
<polygon fill="#8ccbf2" stroke="transparent" points="379.5,-193 379.5,-214 710.5,-214 710.5,-193 379.5,-193"/>
<polygon fill="none" stroke="#8ccbf2" points="379.5,-193 379.5,-214 710.5,-214 710.5,-193 379.5,-193"/>
<text text-anchor="start" x="502.5" y="-200.8" font-family="mono" font-weight="bold" font-size="14.00" fill="#c83500">DataSchema</text>
<polygon fill="#ddeeff" stroke="transparent" points="379.5,-172 379.5,-193 710.5,-193 710.5,-172 379.5,-172"/>
<polygon fill="none" stroke="#8ccbf2" points="379.5,-172 379.5,-193 710.5,-193 710.5,-172 379.5,-172"/>
<text text-anchor="start" x="382.5" y="-179.8" font-family="mono" font-size="14.00" fill="#c83500">@type</text>
<text text-anchor="start" x="423.5" y="-179.8" font-family="Times,serif" font-size="14.00" fill="#000000"> : </text>
<text text-anchor="start" x="434.5" y="-179.8" font-family="Times,serif" font-style="italic" font-size="14.00" fill="#000000">(Array of) </text>
<text text-anchor="start" x="494.5" y="-179.8" font-family="mono" font-size="14.00" fill="#c83500">string</text>
<polygon fill="#ddeeff" stroke="transparent" points="379.5,-151 379.5,-172 710.5,-172 710.5,-151 379.5,-151"/>
<polygon fill="none" stroke="#8ccbf2" points="379.5,-151 379.5,-172 710.5,-172 710.5,-151 379.5,-151"/>
<text text-anchor="start" x="382.5" y="-158.8" font-family="mono" font-size="14.00" fill="#c83500">title</text>
<text text-anchor="start" x="404.5" y="-158.8" font-family="Times,serif" font-size="14.00" fill="#000000"> : Map of </text>
<text text-anchor="start" x="460.5" y="-158.8" font-family="mono" font-size="14.00" fill="#c83500">string</text>
<text text-anchor="start" x="495.5" y="-158.8" font-family="mono" font-size="14.00" fill="#c83500">titles</text>
<text text-anchor="start" x="524.5" y="-158.8" font-family="Times,serif" font-size="14.00" fill="#000000"> : Map of </text>
<text text-anchor="start" x="580.5" y="-158.8" font-family="mono" font-size="14.00" fill="#c83500">string</text>
<polygon fill="#ddeeff" stroke="transparent" points="379.5,-130 379.5,-151 710.5,-151 710.5,-130 379.5,-130"/>
<polygon fill="none" stroke="#8ccbf2" points="379.5,-130 379.5,-151 710.5,-151 710.5,-130 379.5,-130"/>
<text text-anchor="start" x="382.5" y="-137.8" font-family="mono" font-size="14.00" fill="#c83500">description</text>
<text text-anchor="start" x="450.5" y="-137.8" font-family="Times,serif" font-size="14.00" fill="#000000"> : Map of </text>
<text text-anchor="start" x="506.5" y="-137.8" font-family="mono" font-size="14.00" fill="#c83500">string</text>
<text text-anchor="start" x="541.5" y="-137.8" font-family="mono" font-size="14.00" fill="#c83500">descriptions</text>
<text text-anchor="start" x="616.5" y="-137.8" font-family="Times,serif" font-size="14.00" fill="#000000"> : Map of </text>
<text text-anchor="start" x="672.5" y="-137.8" font-family="mono" font-size="14.00" fill="#c83500">string</text>
<polygon fill="#ddeeff" stroke="transparent" points="379.5,-109 379.5,-130 710.5,-130 710.5,-109 379.5,-109"/>
<polygon fill="none" stroke="#8ccbf2" points="379.5,-109 379.5,-130 710.5,-130 710.5,-109 379.5,-109"/>
<text text-anchor="start" x="382.5" y="-116.8" font-family="mono" font-size="14.00" fill="#c83500">unit</text>
<text text-anchor="start" x="405.5" y="-116.8" font-family="Times,serif" font-size="14.00" fill="#000000"> : (Array of) </text>
<text text-anchor="start" x="477.5" y="-116.8" font-family="mono" font-size="14.00" fill="#c83500">string</text>
<polygon fill="#ddeeff" stroke="transparent" points="379.5,-88 379.5,-109 710.5,-109 710.5,-88 379.5,-88"/>
<polygon fill="none" stroke="#8ccbf2" points="379.5,-88 379.5,-109 710.5,-109 710.5,-88 379.5,-88"/>
<text text-anchor="start" x="382.5" y="-95.8" font-family="mono" font-size="14.00" fill="#c83500">readOnly</text>
<text text-anchor="start" x="439.5" y="-95.8" font-family="Times,serif" font-size="14.00" fill="#000000"> : </text>
<text text-anchor="start" x="450.5" y="-95.8" font-family="mono" font-size="14.00" fill="#c83500">boolean</text>
<polygon fill="#ddeeff" stroke="transparent" points="379.5,-67 379.5,-88 710.5,-88 710.5,-67 379.5,-67"/>
<polygon fill="none" stroke="#8ccbf2" points="379.5,-67 379.5,-88 710.5,-88 710.5,-67 379.5,-67"/>
<text text-anchor="start" x="382.5" y="-74.8" font-family="mono" font-size="14.00" fill="#c83500">writeOnly</text>
<text text-anchor="start" x="441.5" y="-74.8" font-family="Times,serif" font-size="14.00" fill="#000000"> : </text>
<text text-anchor="start" x="452.5" y="-74.8" font-family="mono" font-size="14.00" fill="#c83500">boolean</text>
<polygon fill="#ddeeff" stroke="transparent" points="379.5,-46 379.5,-67 710.5,-67 710.5,-46 379.5,-46"/>
<polygon fill="none" stroke="#8ccbf2" points="379.5,-46 379.5,-67 710.5,-67 710.5,-46 379.5,-46"/>
<text text-anchor="start" x="382.5" y="-53.8" font-family="mono" font-size="14.00" fill="#c83500">format</text>
<text text-anchor="start" x="422.5" y="-53.8" font-family="Times,serif" font-size="14.00" fill="#000000"> : </text>
<text text-anchor="start" x="433.5" y="-53.8" font-family="mono" font-size="14.00" fill="#c83500">string</text>
<polygon fill="#ddeeff" stroke="transparent" points="379.5,-25 379.5,-46 710.5,-46 710.5,-25 379.5,-25"/>
<polygon fill="none" stroke="#8ccbf2" points="379.5,-25 379.5,-46 710.5,-46 710.5,-25 379.5,-25"/>
<text text-anchor="start" x="382.5" y="-32.8" font-family="mono" font-size="14.00" fill="#c83500">contentEncoding</text>
<text text-anchor="start" x="487.5" y="-32.8" font-family="Times,serif" font-size="14.00" fill="#000000"> : </text>
<text text-anchor="start" x="498.5" y="-32.8" font-family="mono" font-size="14.00" fill="#c83500">string</text>
<polygon fill="#ddeeff" stroke="transparent" points="379.5,-4 379.5,-25 710.5,-25 710.5,-4 379.5,-4"/>
<polygon fill="none" stroke="#8ccbf2" points="379.5,-4 379.5,-25 710.5,-25 710.5,-4 379.5,-4"/>
<text text-anchor="start" x="382.5" y="-11.8" font-family="mono" font-size="14.00" fill="#c83500">contentMediaType</text>
<text text-anchor="start" x="498.5" y="-11.8" font-family="Times,serif" font-size="14.00" fill="#000000"> : </text>
<text text-anchor="start" x="509.5" y="-11.8" font-family="mono" font-size="14.00" fill="#c83500">string</text>
</g>
<!-- ArraySchema&#45;&gt;DataSchema -->
<g id="edge3" class="edge">
<title>ArraySchema&#45;&gt;DataSchema</title>
<path fill="none" stroke="#000000" d="M108.8612,-279.2249C121.1525,-264.0867 137.033,-247.3628 154.5,-236 216.5117,-195.6597 292.4218,-167.1455 360.7369,-147.5026"/>
<polygon fill="#000000" stroke="#000000" points="362.0883,-150.7577 370.7585,-144.6684 360.1834,-144.0219 362.0883,-150.7577"/>
<text text-anchor="start" x="154.5" y="-239.8" font-family="mono" font-size="14.00" fill="#c83500">items</text>
<text text-anchor="middle" x="359.7585" y="-148.4684" font-family="Times,serif" font-size="14.00" fill="#000000">0..*</text>
</g>
<!-- ArraySchema&#45;&gt;DataSchema -->
<g id="edge4" class="edge">
<title>ArraySchema&#45;&gt;DataSchema</title>
<path fill="none" stroke="#000000" d="M153.6305,-279.4422C160.9882,-275.8594 168.3791,-272.3211 175.5,-269 235.5682,-240.9854 301.8228,-211.7483 361.4178,-186.0469"/>
<polygon fill="#ffffff" stroke="#000000" points="363.1233,-189.1232 370.9232,-181.9531 360.3543,-182.6941 363.1233,-189.1232"/>
</g>
<!-- BooleanSchema -->
<g id="node2" class="node">
<title>BooleanSchema</title>
<polygon fill="#8ccbf2" stroke="transparent" points="193.5,-304 193.5,-325 308.5,-325 308.5,-304 193.5,-304"/>
<polygon fill="none" stroke="#8ccbf2" points="193.5,-304 193.5,-325 308.5,-325 308.5,-304 193.5,-304"/>
<text text-anchor="start" x="196.5" y="-311.8" font-family="mono" font-weight="bold" font-size="14.00" fill="#c83500">BooleanSchema</text>
</g>
<!-- BooleanSchema&#45;&gt;DataSchema -->
<g id="edge5" class="edge">
<title>BooleanSchema&#45;&gt;DataSchema</title>
<path fill="none" stroke="#000000" d="M276.3329,-296.8994C300.7809,-279.7691 339.7087,-252.4932 380.4083,-223.9758"/>
<polygon fill="#ffffff" stroke="#000000" points="382.6599,-226.6719 388.8411,-218.0671 378.643,-220.9391 382.6599,-226.6719"/>
</g>
<!-- DataSchema&#45;&gt;DataSchema -->
<g id="edge1" class="edge">
<title>DataSchema&#45;&gt;DataSchema</title>
<path fill="none" stroke="#000000" d="M718.0009,-126.824C729.2189,-122.662 736,-116.7207 736,-109 736,-103.692 732.7949,-99.2251 727.1463,-95.5992"/>
<polygon fill="#000000" stroke="#000000" points="728.5272,-92.3792 718.0009,-91.176 725.4794,-98.6809 728.5272,-92.3792"/>
<text text-anchor="start" x="736" y="-105.3" font-family="mono" font-size="14.00" fill="#c83500">oneOf</text>
<text text-anchor="middle" x="729.0009" y="-79.976" font-family="Times,serif" font-size="14.00" fill="#000000">0..*</text>
</g>
<!-- IntegerSchema -->
<g id="node4" class="node">
<title>IntegerSchema</title>
<polygon fill="#8ccbf2" stroke="transparent" points="342.5,-336 342.5,-357 466.5,-357 466.5,-336 342.5,-336"/>
<polygon fill="none" stroke="#8ccbf2" points="342.5,-336 342.5,-357 466.5,-357 466.5,-336 342.5,-336"/>
<text text-anchor="start" x="354" y="-343.8" font-family="mono" font-weight="bold" font-size="14.00" fill="#c83500">IntegerSchema</text>
<polygon fill="#ddeeff" stroke="transparent" points="342.5,-315 342.5,-336 466.5,-336 466.5,-315 342.5,-315"/>
<polygon fill="none" stroke="#8ccbf2" points="342.5,-315 342.5,-336 466.5,-336 466.5,-315 342.5,-315"/>
<text text-anchor="start" x="345.5" y="-322.8" font-family="mono" font-size="14.00" fill="#c83500">minimum</text>
<text text-anchor="start" x="402.5" y="-322.8" font-family="Times,serif" font-size="14.00" fill="#000000"> : </text>
<text text-anchor="start" x="413.5" y="-322.8" font-family="mono" font-size="14.00" fill="#c83500">integer</text>
<polygon fill="#ddeeff" stroke="transparent" points="342.5,-294 342.5,-315 466.5,-315 466.5,-294 342.5,-294"/>
<polygon fill="none" stroke="#8ccbf2" points="342.5,-294 342.5,-315 466.5,-315 466.5,-294 342.5,-294"/>
<text text-anchor="start" x="345.5" y="-301.8" font-family="mono" font-size="14.00" fill="#c83500">maximum</text>
<text text-anchor="start" x="406.5" y="-301.8" font-family="Times,serif" font-size="14.00" fill="#000000"> : </text>
<text text-anchor="start" x="417.5" y="-301.8" font-family="mono" font-size="14.00" fill="#c83500">integer</text>
<polygon fill="#ddeeff" stroke="transparent" points="342.5,-273 342.5,-294 466.5,-294 466.5,-273 342.5,-273"/>
<polygon fill="none" stroke="#8ccbf2" points="342.5,-273 342.5,-294 466.5,-294 466.5,-273 342.5,-273"/>
<text text-anchor="start" x="345.5" y="-280.8" font-family="mono" font-size="14.00" fill="#c83500">multipleOf</text>
<text text-anchor="start" x="409.5" y="-280.8" font-family="Times,serif" font-size="14.00" fill="#000000"> : </text>
<text text-anchor="start" x="420.5" y="-280.8" font-family="mono" font-size="14.00" fill="#c83500">integer</text>
</g>
<!-- IntegerSchema&#45;&gt;DataSchema -->
<g id="edge6" class="edge">
<title>IntegerSchema&#45;&gt;DataSchema</title>
<path fill="none" stroke="#000000" d="M435.9187,-268.7696C444.6255,-255.9582 454.4904,-241.4427 464.6374,-226.512"/>
<polygon fill="#ffffff" stroke="#000000" points="467.572,-228.4208 470.2981,-218.1827 461.7824,-224.4862 467.572,-228.4208"/>
</g>
<!-- NullSchema -->
<g id="node5" class="node">
<title>NullSchema</title>
<polygon fill="#8ccbf2" stroke="transparent" points="501.5,-304 501.5,-325 588.5,-325 588.5,-304 501.5,-304"/>
<polygon fill="none" stroke="#8ccbf2" points="501.5,-304 501.5,-325 588.5,-325 588.5,-304 501.5,-304"/>
<text text-anchor="start" x="504.5" y="-311.8" font-family="mono" font-weight="bold" font-size="14.00" fill="#c83500">NullSchema</text>
</g>
<!-- NullSchema&#45;&gt;DataSchema -->
<g id="edge7" class="edge">
<title>NullSchema&#45;&gt;DataSchema</title>
<path fill="none" stroke="#000000" d="M544.5,-296.7189C544.5,-280.4785 544.5,-255.2221 544.5,-228.4436"/>
<polygon fill="#ffffff" stroke="#000000" points="548.0001,-228.1215 544.5,-218.1215 541.0001,-228.1216 548.0001,-228.1215"/>
</g>
<!-- NumberSchema -->
<g id="node6" class="node">
<title>NumberSchema</title>
<polygon fill="#8ccbf2" stroke="transparent" points="622.5,-336 622.5,-357 746.5,-357 746.5,-336 622.5,-336"/>
<polygon fill="none" stroke="#8ccbf2" points="622.5,-336 622.5,-357 746.5,-357 746.5,-336 622.5,-336"/>
<text text-anchor="start" x="631" y="-343.8" font-family="mono" font-weight="bold" font-size="14.00" fill="#c83500">NumberSchema</text>
<polygon fill="#ddeeff" stroke="transparent" points="622.5,-315 622.5,-336 746.5,-336 746.5,-315 622.5,-315"/>
<polygon fill="none" stroke="#8ccbf2" points="622.5,-315 622.5,-336 746.5,-336 746.5,-315 622.5,-315"/>
<text text-anchor="start" x="625.5" y="-322.8" font-family="mono" font-size="14.00" fill="#c83500">minimum</text>
<text text-anchor="start" x="682.5" y="-322.8" font-family="Times,serif" font-size="14.00" fill="#000000"> : </text>
<text text-anchor="start" x="693.5" y="-322.8" font-family="mono" font-size="14.00" fill="#c83500">double</text>
<polygon fill="#ddeeff" stroke="transparent" points="622.5,-294 622.5,-315 746.5,-315 746.5,-294 622.5,-294"/>
<polygon fill="none" stroke="#8ccbf2" points="622.5,-294 622.5,-315 746.5,-315 746.5,-294 622.5,-294"/>
<text text-anchor="start" x="625.5" y="-301.8" font-family="mono" font-size="14.00" fill="#c83500">maximum</text>
<text text-anchor="start" x="686.5" y="-301.8" font-family="Times,serif" font-size="14.00" fill="#000000"> : </text>
<text text-anchor="start" x="697.5" y="-301.8" font-family="mono" font-size="14.00" fill="#c83500">double</text>
<polygon fill="#ddeeff" stroke="transparent" points="622.5,-273 622.5,-294 746.5,-294 746.5,-273 622.5,-273"/>
<polygon fill="none" stroke="#8ccbf2" points="622.5,-273 622.5,-294 746.5,-294 746.5,-273 622.5,-273"/>
<text text-anchor="start" x="625.5" y="-280.8" font-family="mono" font-size="14.00" fill="#c83500">multipleOf</text>
<text text-anchor="start" x="689.5" y="-280.8" font-family="Times,serif" font-size="14.00" fill="#000000"> : </text>
<text text-anchor="start" x="700.5" y="-280.8" font-family="mono" font-size="14.00" fill="#c83500">double</text>
</g>
<!-- NumberSchema&#45;&gt;DataSchema -->
<g id="edge8" class="edge">
<title>NumberSchema&#45;&gt;DataSchema</title>
<path fill="none" stroke="#000000" d="M653.0813,-268.7696C644.3745,-255.9582 634.5096,-241.4427 624.3626,-226.512"/>
<polygon fill="#ffffff" stroke="#000000" points="627.2176,-224.4862 618.7019,-218.1827 621.428,-228.4208 627.2176,-224.4862"/>
</g>
<!-- ObjectSchema -->
<g id="node7" class="node">
<title>ObjectSchema</title>
<polygon fill="#8ccbf2" stroke="transparent" points="780.5,-315 780.5,-336 936.5,-336 936.5,-315 780.5,-315"/>
<polygon fill="none" stroke="#8ccbf2" points="780.5,-315 780.5,-336 936.5,-336 936.5,-315 780.5,-315"/>
<text text-anchor="start" x="809.5" y="-322.8" font-family="mono" font-weight="bold" font-size="14.00" fill="#c83500">ObjectSchema</text>
<polygon fill="#ddeeff" stroke="transparent" points="780.5,-294 780.5,-315 936.5,-315 936.5,-294 780.5,-294"/>
<polygon fill="none" stroke="#8ccbf2" points="780.5,-294 780.5,-315 936.5,-315 936.5,-294 780.5,-294"/>
<text text-anchor="start" x="783.5" y="-301.8" font-family="mono" font-size="14.00" fill="#c83500">required</text>
<text text-anchor="start" x="835.5" y="-301.8" font-family="Times,serif" font-size="14.00" fill="#000000"> : Array of </text>
<text text-anchor="start" x="898.5" y="-301.8" font-family="mono" font-size="14.00" fill="#c83500">string</text>
</g>
<!-- ObjectSchema&#45;&gt;DataSchema -->
<g id="edge2" class="edge">
<title>ObjectSchema&#45;&gt;DataSchema</title>
<path fill="none" stroke="#000000" d="M814.7319,-289.9795C794.9261,-278.4239 771.3365,-264.3332 750.5,-251 736.941,-242.3237 722.9908,-233.1837 709.0468,-223.896"/>
<polygon fill="#000000" stroke="#000000" points="710.6281,-220.7431 700.369,-218.0969 706.7387,-226.5632 710.6281,-220.7431"/>
<text text-anchor="start" x="750.5" y="-239.8" font-family="mono" font-size="14.00" fill="#c83500">properties</text>
<text text-anchor="middle" x="689.369" y="-221.8969" font-family="Times,serif" font-size="14.00" fill="#000000">0..*</text>
</g>
<!-- ObjectSchema&#45;&gt;DataSchema -->
<g id="edge9" class="edge">
<title>ObjectSchema&#45;&gt;DataSchema</title>
<path fill="none" stroke="#000000" d="M848.9804,-289.9211C841.4807,-272.9172 829.5974,-250.9079 813.5,-236 788.4107,-212.7646 758.3043,-193.0526 727.4544,-176.5958"/>
<polygon fill="#ffffff" stroke="#000000" points="728.7855,-173.3425 718.301,-171.8172 725.546,-179.5478 728.7855,-173.3425"/>
</g>
<!-- StringSchema -->
<g id="node8" class="node">
<title>StringSchema</title>
<polygon fill="#8ccbf2" stroke="transparent" points="970.5,-325 970.5,-346 1130.5,-346 1130.5,-325 970.5,-325"/>
<polygon fill="none" stroke="#8ccbf2" points="970.5,-325 970.5,-346 1130.5,-346 1130.5,-325 970.5,-325"/>
<text text-anchor="start" x="1003" y="-332.8" font-family="mono" font-weight="bold" font-size="14.00" fill="#c83500">StringSchema</text>
<polygon fill="#ddeeff" stroke="transparent" points="970.5,-304 970.5,-325 1130.5,-325 1130.5,-304 970.5,-304"/>
<polygon fill="none" stroke="#8ccbf2" points="970.5,-304 970.5,-325 1130.5,-325 1130.5,-304 970.5,-304"/>
<text text-anchor="start" x="973.5" y="-311.8" font-family="mono" font-size="14.00" fill="#c83500">minLength</text>
<text text-anchor="start" x="1039.5" y="-311.8" font-family="Times,serif" font-size="14.00" fill="#000000"> : </text>
<text text-anchor="start" x="1050.5" y="-311.8" font-family="mono" font-size="14.00" fill="#c83500">unsignedInt</text>
<polygon fill="#ddeeff" stroke="transparent" points="970.5,-283 970.5,-304 1130.5,-304 1130.5,-283 970.5,-283"/>
<polygon fill="none" stroke="#8ccbf2" points="970.5,-283 970.5,-304 1130.5,-304 1130.5,-283 970.5,-283"/>
<text text-anchor="start" x="973.5" y="-290.8" font-family="mono" font-size="14.00" fill="#c83500">maxLength</text>
<text text-anchor="start" x="1043.5" y="-290.8" font-family="Times,serif" font-size="14.00" fill="#000000"> : </text>
<text text-anchor="start" x="1054.5" y="-290.8" font-family="mono" font-size="14.00" fill="#c83500">unsignedInt</text>
</g>
<!-- StringSchema&#45;&gt;DataSchema -->
<g id="edge10" class="edge">
<title>StringSchema&#45;&gt;DataSchema</title>
<path fill="none" stroke="#000000" d="M976.8641,-279.4229C969.0112,-275.8257 961.1136,-272.2897 953.5,-269 880.3188,-237.3795 798.6908,-204.8987 727.7228,-177.5349"/>
<polygon fill="#ffffff" stroke="#000000" points="728.8199,-174.2069 718.2301,-173.8807 726.3051,-180.7396 728.8199,-174.2069"/>
</g>
</g>
</svg>
