<?xml version="1.0" encoding="UTF-8" standalone="no"?>
<!DOCTYPE svg PUBLIC "-//W3C//DTD SVG 1.1//EN"
 "http://www.w3.org/Graphics/SVG/1.1/DTD/svg11.dtd">
<!-- Generated by graphviz version 2.38.0 (20140413.2041)
 -->
<!-- Title: %3 Pages: 1 -->
<svg width="1152pt" height="351pt"
 viewBox="0.00 0.00 1152.00 351.00" xmlns="http://www.w3.org/2000/svg" xmlns:xlink="http://www.w3.org/1999/xlink">
<g id="graph0" class="graph" transform="scale(1 1) rotate(0) translate(4 347)">
<title>%3</title>
<polygon fill="white" stroke="none" points="-4,4 -4,-347 1148,-347 1148,4 -4,4"/>
<!-- IntegerSchema -->
<g id="node1" class="node"><title>IntegerSchema</title>
<polygon fill="#8ccbf2" stroke="none" points="8.5,-317.5 8.5,-338.5 141.5,-338.5 141.5,-317.5 8.5,-317.5"/>
<polygon fill="none" stroke="#8ccbf2" points="8.5,-317.5 8.5,-338.5 141.5,-338.5 141.5,-317.5 8.5,-317.5"/>
<text text-anchor="start" x="21" y="-325.3" font-family="mono" font-weight="bold" font-size="14.00" fill="#c83500">IntegerSchema</text>
<polygon fill="#ddeeff" stroke="none" points="8.5,-296.5 8.5,-317.5 141.5,-317.5 141.5,-296.5 8.5,-296.5"/>
<polygon fill="none" stroke="#8ccbf2" points="8.5,-296.5 8.5,-317.5 141.5,-317.5 141.5,-296.5 8.5,-296.5"/>
<text text-anchor="start" x="11.5" y="-304.3" font-family="mono" font-size="14.00" fill="#c83500">maximum</text>
<text text-anchor="start" x="69.5" y="-304.3" font-family="Times New Roman,serif" font-size="14.00"> : </text>
<text text-anchor="start" x="80.5" y="-304.3" font-family="mono" font-size="14.00" fill="#c83500">integer</text>
<polygon fill="#ddeeff" stroke="none" points="8.5,-275.5 8.5,-296.5 141.5,-296.5 141.5,-275.5 8.5,-275.5"/>
<polygon fill="none" stroke="#8ccbf2" points="8.5,-275.5 8.5,-296.5 141.5,-296.5 141.5,-275.5 8.5,-275.5"/>
<text text-anchor="start" x="11.5" y="-283.3" font-family="mono" font-size="14.00" fill="#c83500">minimum</text>
<text text-anchor="start" x="69.5" y="-283.3" font-family="Times New Roman,serif" font-size="14.00"> : </text>
<text text-anchor="start" x="80.5" y="-283.3" font-family="mono" font-size="14.00" fill="#c83500">integer</text>
</g>
<!-- DataSchema -->
<g id="node8" class="node"><title>DataSchema</title>
<polygon fill="#8ccbf2" stroke="none" points="519.5,-196 519.5,-217 711.5,-217 711.5,-196 519.5,-196"/>
<polygon fill="none" stroke="#8ccbf2" points="519.5,-196 519.5,-217 711.5,-217 711.5,-196 519.5,-196"/>
<text text-anchor="start" x="574" y="-203.8" font-family="mono" font-weight="bold" font-size="14.00" fill="#c83500">DataSchema</text>
<polygon fill="#ddeeff" stroke="none" points="519.5,-175 519.5,-196 711.5,-196 711.5,-175 519.5,-175"/>
<polygon fill="none" stroke="#8ccbf2" points="519.5,-175 519.5,-196 711.5,-196 711.5,-175 519.5,-175"/>
<text text-anchor="start" x="522.5" y="-182.8" font-family="mono" font-size="14.00" fill="#c83500">writeOnly</text>
<text text-anchor="start" x="597.5" y="-182.8" font-family="Times New Roman,serif" font-size="14.00"> : </text>
<text text-anchor="start" x="608.5" y="-182.8" font-family="mono" font-size="14.00" fill="#c83500">boolean</text>
<text text-anchor="start" x="666.5" y="-182.8" font-family="Times New Roman,serif" font-size="14.00"> = false</text>
<polygon fill="#ddeeff" stroke="none" points="519.5,-154 519.5,-175 711.5,-175 711.5,-154 519.5,-154"/>
<polygon fill="none" stroke="#8ccbf2" points="519.5,-154 519.5,-175 711.5,-175 711.5,-154 519.5,-154"/>
<text text-anchor="start" x="522.5" y="-161.8" font-family="mono" font-size="14.00" fill="#c83500">title</text>
<text text-anchor="start" x="564.5" y="-161.8" font-family="Times New Roman,serif" font-size="14.00"> : </text>
<text text-anchor="start" x="575.5" y="-161.8" font-family="mono" font-size="14.00" fill="#c83500">string</text>
<polygon fill="#ddeeff" stroke="none" points="519.5,-133 519.5,-154 711.5,-154 711.5,-133 519.5,-133"/>
<polygon fill="none" stroke="#8ccbf2" points="519.5,-133 519.5,-154 711.5,-154 711.5,-133 519.5,-133"/>
<text text-anchor="start" x="522.5" y="-140.8" font-family="mono" font-size="14.00" fill="#c83500">description</text>
<text text-anchor="start" x="613.5" y="-140.8" font-family="Times New Roman,serif" font-size="14.00"> : </text>
<text text-anchor="start" x="624.5" y="-140.8" font-family="mono" font-size="14.00" fill="#c83500">string</text>
<polygon fill="#ddeeff" stroke="none" points="519.5,-112 519.5,-133 711.5,-133 711.5,-112 519.5,-112"/>
<polygon fill="none" stroke="#8ccbf2" points="519.5,-112 519.5,-133 711.5,-133 711.5,-112 519.5,-112"/>
<text text-anchor="start" x="522.5" y="-119.8" font-family="mono" font-size="14.00" fill="#c83500">readOnly</text>
<text text-anchor="start" x="589.5" y="-119.8" font-family="Times New Roman,serif" font-size="14.00"> : </text>
<text text-anchor="start" x="600.5" y="-119.8" font-family="mono" font-size="14.00" fill="#c83500">boolean</text>
<text text-anchor="start" x="658.5" y="-119.8" font-family="Times New Roman,serif" font-size="14.00"> = true</text>
<polygon fill="#ddeeff" stroke="none" points="519.5,-91 519.5,-112 711.5,-112 711.5,-91 519.5,-91"/>
<polygon fill="none" stroke="#8ccbf2" points="519.5,-91 519.5,-112 711.5,-112 711.5,-91 519.5,-91"/>
<text text-anchor="start" x="522.5" y="-98.8" font-family="mono" font-size="14.00" fill="#c83500">type</text>
<text text-anchor="start" x="556.5" y="-98.8" font-family="Times New Roman,serif" font-size="14.00"> : </text>
<text text-anchor="start" x="567.5" y="-98.8" font-family="mono" font-size="14.00" fill="#c83500">string</text>
</g>
<!-- IntegerSchema&#45;&gt;DataSchema -->
<g id="edge8" class="edge"><title>IntegerSchema&#45;&gt;DataSchema</title>
<path fill="none" stroke="black" d="M149.412,-275.129C152.469,-274.04 155.507,-272.992 158.5,-272 273.444,-233.887 408.066,-200.769 501.288,-179.591"/>
<polygon fill="white" stroke="black" points="502.329,-182.944 511.311,-177.324 500.785,-176.116 502.329,-182.944"/>
</g>
<!-- StringSchema -->
<g id="node2" class="node"><title>StringSchema</title>
<polygon fill="#8ccbf2" stroke="none" points="175.5,-296.5 175.5,-317.5 281.5,-317.5 281.5,-296.5 175.5,-296.5"/>
<polygon fill="none" stroke="#8ccbf2" points="175.5,-296.5 175.5,-317.5 281.5,-317.5 281.5,-296.5 175.5,-296.5"/>
<text text-anchor="start" x="178.5" y="-304.3" font-family="mono" font-weight="bold" font-size="14.00" fill="#c83500">StringSchema</text>
</g>
<!-- StringSchema&#45;&gt;DataSchema -->
<g id="edge13" class="edge"><title>StringSchema&#45;&gt;DataSchema</title>
<path fill="none" stroke="black" d="M261.285,-289.462C272.915,-283.653 286.176,-277.294 298.5,-272 364.885,-243.482 440.766,-215.324 501.64,-193.78"/>
<polygon fill="white" stroke="black" points="503.012,-197.007 511.278,-190.38 500.683,-190.406 503.012,-197.007"/>
</g>
<!-- BooleanSchema -->
<g id="node3" class="node"><title>BooleanSchema</title>
<polygon fill="#8ccbf2" stroke="none" points="315.5,-296.5 315.5,-317.5 429.5,-317.5 429.5,-296.5 315.5,-296.5"/>
<polygon fill="none" stroke="#8ccbf2" points="315.5,-296.5 315.5,-317.5 429.5,-317.5 429.5,-296.5 315.5,-296.5"/>
<text text-anchor="start" x="318.5" y="-304.3" font-family="mono" font-weight="bold" font-size="14.00" fill="#c83500">BooleanSchema</text>
</g>
<!-- BooleanSchema&#45;&gt;DataSchema -->
<g id="edge10" class="edge"><title>BooleanSchema&#45;&gt;DataSchema</title>
<path fill="none" stroke="black" d="M399.903,-289.416C425.232,-273.624 464.619,-249.068 502.835,-225.242"/>
<polygon fill="white" stroke="black" points="504.845,-228.113 511.479,-219.853 501.141,-222.173 504.845,-228.113"/>
</g>
<!-- NumberSchema -->
<g id="node4" class="node"><title>NumberSchema</title>
<polygon fill="#8ccbf2" stroke="none" points="464.5,-317.5 464.5,-338.5 589.5,-338.5 589.5,-317.5 464.5,-317.5"/>
<polygon fill="none" stroke="#8ccbf2" points="464.5,-317.5 464.5,-338.5 589.5,-338.5 589.5,-317.5 464.5,-317.5"/>
<text text-anchor="start" x="477" y="-325.3" font-family="mono" font-weight="bold" font-size="14.00" fill="#c83500">NumberSchema</text>
<polygon fill="#ddeeff" stroke="none" points="464.5,-296.5 464.5,-317.5 589.5,-317.5 589.5,-296.5 464.5,-296.5"/>
<polygon fill="none" stroke="#8ccbf2" points="464.5,-296.5 464.5,-317.5 589.5,-317.5 589.5,-296.5 464.5,-296.5"/>
<text text-anchor="start" x="467.5" y="-304.3" font-family="mono" font-size="14.00" fill="#c83500">minimum</text>
<text text-anchor="start" x="525.5" y="-304.3" font-family="Times New Roman,serif" font-size="14.00"> : </text>
<text text-anchor="start" x="536.5" y="-304.3" font-family="mono" font-size="14.00" fill="#c83500">double</text>
<polygon fill="#ddeeff" stroke="none" points="464.5,-275.5 464.5,-296.5 589.5,-296.5 589.5,-275.5 464.5,-275.5"/>
<polygon fill="none" stroke="#8ccbf2" points="464.5,-275.5 464.5,-296.5 589.5,-296.5 589.5,-275.5 464.5,-275.5"/>
<text text-anchor="start" x="467.5" y="-283.3" font-family="mono" font-size="14.00" fill="#c83500">maximum</text>
<text text-anchor="start" x="525.5" y="-283.3" font-family="Times New Roman,serif" font-size="14.00"> : </text>
<text text-anchor="start" x="536.5" y="-283.3" font-family="mono" font-size="14.00" fill="#c83500">double</text>
</g>
<!-- NumberSchema&#45;&gt;DataSchema -->
<g id="edge7" class="edge"><title>NumberSchema&#45;&gt;DataSchema</title>
<path fill="none" stroke="black" d="M546.918,-271.743C554.228,-259.3 562.779,-244.745 571.314,-230.216"/>
<polygon fill="white" stroke="black" points="574.568,-231.587 576.615,-221.192 568.532,-228.041 574.568,-231.587"/>
</g>
<!-- ObjectSchema -->
<g id="node5" class="node"><title>ObjectSchema</title>
<polygon fill="#8ccbf2" stroke="none" points="623.5,-307.5 623.5,-328.5 804.5,-328.5 804.5,-307.5 623.5,-307.5"/>
<polygon fill="none" stroke="#8ccbf2" points="623.5,-307.5 623.5,-328.5 804.5,-328.5 804.5,-307.5 623.5,-307.5"/>
<text text-anchor="start" x="664" y="-315.3" font-family="mono" font-weight="bold" font-size="14.00" fill="#c83500">ObjectSchema</text>
<polygon fill="#ddeeff" stroke="none" points="623.5,-286.5 623.5,-307.5 804.5,-307.5 804.5,-286.5 623.5,-286.5"/>
<polygon fill="none" stroke="#8ccbf2" points="623.5,-286.5 623.5,-307.5 804.5,-307.5 804.5,-286.5 623.5,-286.5"/>
<text text-anchor="start" x="626.5" y="-294.3" font-family="mono" font-size="14.00" fill="#c83500">required</text>
<text text-anchor="start" x="693.5" y="-294.3" font-family="Times New Roman,serif" font-size="14.00"> : array of </text>
<text text-anchor="start" x="751.5" y="-294.3" font-family="mono" font-size="14.00" fill="#c83500">string</text>
</g>
<!-- ObjectSchema&#45;&gt;DataSchema -->
<g id="edge1" class="edge"><title>ObjectSchema&#45;&gt;DataSchema</title>
<path fill="none" stroke="black" d="M646.232,-282.423C634.403,-275.127 623.617,-265.808 616.5,-254 612.274,-246.988 609.586,-239.158 608.009,-231.057"/>
<polygon fill="black" stroke="black" points="611.465,-230.495 606.61,-221.078 604.533,-231.467 611.465,-230.495"/>
<text text-anchor="start" x="616.5" y="-242.8" font-family="mono" font-size="14.00" fill="#c83500">properties</text>
<text text-anchor="middle" x="595.61" y="-224.878" font-family="Times New Roman,serif" font-size="14.00">0..1</text>
</g>
<!-- ObjectSchema&#45;&gt;DataSchema -->
<g id="edge12" class="edge"><title>ObjectSchema&#45;&gt;DataSchema</title>
<path fill="none" stroke="black" d="M711.877,-282.225C710.166,-268.829 706.663,-252.27 699.5,-239 697.731,-235.722 695.793,-232.488 693.719,-229.309"/>
<polygon fill="white" stroke="black" points="696.53,-227.221 687.934,-221.027 690.791,-231.23 696.53,-227.221"/>
</g>
<!-- ArraySchema -->
<g id="node6" class="node"><title>ArraySchema</title>
<polygon fill="#8ccbf2" stroke="none" points="838.5,-317.5 838.5,-338.5 1013.5,-338.5 1013.5,-317.5 838.5,-317.5"/>
<polygon fill="none" stroke="#8ccbf2" points="838.5,-317.5 838.5,-338.5 1013.5,-338.5 1013.5,-317.5 838.5,-317.5"/>
<text text-anchor="start" x="880.5" y="-325.3" font-family="mono" font-weight="bold" font-size="14.00" fill="#c83500">ArraySchema</text>
<polygon fill="#ddeeff" stroke="none" points="838.5,-296.5 838.5,-317.5 1013.5,-317.5 1013.5,-296.5 838.5,-296.5"/>
<polygon fill="none" stroke="#8ccbf2" points="838.5,-296.5 838.5,-317.5 1013.5,-317.5 1013.5,-296.5 838.5,-296.5"/>
<text text-anchor="start" x="841.5" y="-304.3" font-family="mono" font-size="14.00" fill="#c83500">maxItems</text>
<text text-anchor="start" x="908.5" y="-304.3" font-family="Times New Roman,serif" font-size="14.00"> : </text>
<text text-anchor="start" x="919.5" y="-304.3" font-family="mono" font-size="14.00" fill="#c83500">unsignedInt</text>
<polygon fill="#ddeeff" stroke="none" points="838.5,-275.5 838.5,-296.5 1013.5,-296.5 1013.5,-275.5 838.5,-275.5"/>
<polygon fill="none" stroke="#8ccbf2" points="838.5,-275.5 838.5,-296.5 1013.5,-296.5 1013.5,-275.5 838.5,-275.5"/>
<text text-anchor="start" x="841.5" y="-283.3" font-family="mono" font-size="14.00" fill="#c83500">minItems</text>
<text text-anchor="start" x="908.5" y="-283.3" font-family="Times New Roman,serif" font-size="14.00"> : </text>
<text text-anchor="start" x="919.5" y="-283.3" font-family="mono" font-size="14.00" fill="#c83500">unsignedInt</text>
</g>
<!-- ArraySchema&#45;&gt;DataSchema -->
<g id="edge2" class="edge"><title>ArraySchema&#45;&gt;DataSchema</title>
<path fill="none" stroke="black" d="M854.768,-271.933C817.559,-253.748 771.042,-231.015 728.942,-210.44"/>
<polygon fill="black" stroke="black" points="730.272,-207.195 719.751,-205.948 727.199,-213.484 730.272,-207.195"/>
<text text-anchor="start" x="816.5" y="-242.8" font-family="mono" font-size="14.00" fill="#c83500">items</text>
<text text-anchor="middle" x="730.751" y="-209.748" font-family="Times New Roman,serif" font-size="14.00">0..1</text>
</g>
<!-- ArraySchema&#45;&gt;DataSchema -->
<g id="edge9" class="edge"><title>ArraySchema&#45;&gt;DataSchema</title>
<path fill="none" stroke="black" d="M899.135,-271.896C888.771,-260.15 876.097,-247.789 862.5,-239 822.362,-213.055 773.348,-194.226 729.594,-181.056"/>
<polygon fill="white" stroke="black" points="730.345,-177.629 719.763,-178.165 728.369,-184.344 730.345,-177.629"/>
</g>
<!-- NullSchema -->
<g id="node7" class="node"><title>NullSchema</title>
<polygon fill="#8ccbf2" stroke="none" points="1047.5,-296.5 1047.5,-317.5 1136.5,-317.5 1136.5,-296.5 1047.5,-296.5"/>
<polygon fill="none" stroke="#8ccbf2" points="1047.5,-296.5 1047.5,-317.5 1136.5,-317.5 1136.5,-296.5 1047.5,-296.5"/>
<text text-anchor="start" x="1050.5" y="-304.3" font-family="mono" font-weight="bold" font-size="14.00" fill="#c83500">NullSchema</text>
</g>
<!-- NullSchema&#45;&gt;DataSchema -->
<g id="edge11" class="edge"><title>NullSchema&#45;&gt;DataSchema</title>
<path fill="none" stroke="black" d="M1064.1,-289.45C1053.55,-283.373 1041.23,-276.843 1029.5,-272 931.218,-231.416 814.215,-199.788 729.707,-179.705"/>
<polygon fill="white" stroke="black" points="730.362,-176.263 719.825,-177.374 728.755,-183.076 730.362,-176.263"/>
</g>
<!-- DataSchema&#45;&gt;DataSchema -->
<g id="edge3" class="edge"><title>DataSchema&#45;&gt;DataSchema</title>
<path fill="none" stroke="black" d="M719.625,-161.146C730.519,-159.751 737.5,-157.369 737.5,-154 737.5,-151.842 734.635,-150.088 729.712,-148.74"/>
<polygon fill="black" stroke="black" points="730.098,-145.252 719.625,-146.854 728.811,-152.133 730.098,-145.252"/>
<text text-anchor="start" x="737.5" y="-150.3" font-family="mono" font-size="14.00" fill="#c83500">oneOf</text>
<text text-anchor="middle" x="730.625" y="-135.654" font-family="Times New Roman,serif" font-size="14.00">0..*</text>
</g>
<!-- DataSchema&#45;&gt;DataSchema -->
<g id="edge4" class="edge"><title>DataSchema&#45;&gt;DataSchema</title>
<path fill="none" stroke="black" d="M719.904,-171.212C752.852,-170.698 779.5,-164.961 779.5,-154 779.5,-144.195 758.177,-138.57 730.095,-137.125"/>
<polygon fill="black" stroke="black" points="730.015,-133.62 719.904,-136.788 729.783,-140.616 730.015,-133.62"/>
<text text-anchor="start" x="779.5" y="-150.3" font-family="mono" font-size="14.00" fill="#c83500">unit</text>
<text text-anchor="middle" x="730.904" y="-125.588" font-family="Times New Roman,serif" font-size="14.00">0..1</text>
</g>
<!-- MultiLanguage -->
<g id="node9" class="node"><title>MultiLanguage</title>
<polygon fill="#f2f2f2" stroke="none" points="558.5,-7 558.5,-28 672.5,-28 672.5,-7 558.5,-7"/>
<polygon fill="none" stroke="#8c8c8c" points="558.5,-7 558.5,-28 672.5,-28 672.5,-7 558.5,-7"/>
<text text-anchor="start" x="561.5" y="-14.8" font-family="mono" font-weight="bold" font-size="14.00">MultiLanguage</text>
</g>
<!-- DataSchema&#45;&gt;MultiLanguage -->
<g id="edge5" class="edge"><title>DataSchema&#45;&gt;MultiLanguage</title>
<path fill="none" stroke="black" d="M578.267,-86.8633C575.995,-75.8139 576.14,-64.5264 580.5,-54 581.968,-50.4571 583.987,-47.0859 586.321,-43.9342"/>
<polygon fill="black" stroke="black" points="589.173,-45.9876 593.073,-36.1367 583.881,-41.4054 589.173,-45.9876"/>
<text text-anchor="start" x="580.5" y="-57.8" font-family="mono" font-size="14.00" fill="#c83500">titles</text>
<text text-anchor="middle" x="582.073" y="-39.9367" font-family="Times New Roman,serif" font-size="14.00">0..1</text>
</g>
<!-- DataSchema&#45;&gt;MultiLanguage -->
<g id="edge6" class="edge"><title>DataSchema&#45;&gt;MultiLanguage</title>
<path fill="none" stroke="black" d="M632.02,-86.7971C632.905,-75.8084 632.667,-64.5578 630.5,-54 629.946,-51.3004 629.174,-48.5518 628.271,-45.8419"/>
<polygon fill="black" stroke="black" points="631.466,-44.4005 624.575,-36.3529 624.943,-46.9413 631.466,-44.4005"/>
<text text-anchor="start" x="632.5" y="-57.8" font-family="mono" font-size="14.00" fill="#c83500">descriptions</text>
<text text-anchor="middle" x="613.575" y="-40.1529" font-family="Times New Roman,serif" font-size="14.00">0..1</text>
</g>
</g>
</svg>
