<?xml version="1.0" encoding="UTF-8" standalone="no"?>
<!DOCTYPE svg PUBLIC "-//W3C//DTD SVG 1.1//EN"
 "http://www.w3.org/Graphics/SVG/1.1/DTD/svg11.dtd">
<!-- Generated by graphviz version 2.38.0 (20140413.2041)
 -->
<!-- Title: %3 Pages: 1 -->
<svg width="1156pt" height="393pt"
 viewBox="0.00 0.00 1155.50 393.00" xmlns="http://www.w3.org/2000/svg" xmlns:xlink="http://www.w3.org/1999/xlink">
<g id="graph0" class="graph" transform="scale(1 1) rotate(0) translate(4 389)">
<title>%3</title>
<polygon fill="white" stroke="none" points="-4,4 -4,-389 1151.5,-389 1151.5,4 -4,4"/>
<!-- IntegerSchema -->
<g id="node1" class="node"><title>IntegerSchema</title>
<polygon fill="#8ccbf2" stroke="none" points="8,-359.5 8,-380.5 142,-380.5 142,-359.5 8,-359.5"/>
<polygon fill="none" stroke="#8ccbf2" points="8,-359.5 8,-380.5 142,-380.5 142,-359.5 8,-359.5"/>
<text text-anchor="start" x="21" y="-367.3" font-family="mono" font-weight="bold" font-size="14.00" fill="#c83500">IntegerSchema</text>
<polygon fill="#ddeeff" stroke="none" points="8,-338.5 8,-359.5 142,-359.5 142,-338.5 8,-338.5"/>
<polygon fill="none" stroke="#8ccbf2" points="8,-338.5 8,-359.5 142,-359.5 142,-338.5 8,-338.5"/>
<text text-anchor="start" x="11" y="-346.3" font-family="mono" font-size="14.00" fill="#c83500">minimum</text>
<text text-anchor="start" x="69" y="-346.3" font-family="Times,serif" font-size="14.00"> : </text>
<text text-anchor="start" x="81" y="-346.3" font-family="mono" font-size="14.00" fill="#c83500">integer</text>
<polygon fill="#ddeeff" stroke="none" points="8,-317.5 8,-338.5 142,-338.5 142,-317.5 8,-317.5"/>
<polygon fill="none" stroke="#8ccbf2" points="8,-317.5 8,-338.5 142,-338.5 142,-317.5 8,-317.5"/>
<text text-anchor="start" x="11" y="-325.3" font-family="mono" font-size="14.00" fill="#c83500">maximum</text>
<text text-anchor="start" x="69" y="-325.3" font-family="Times,serif" font-size="14.00"> : </text>
<text text-anchor="start" x="81" y="-325.3" font-family="mono" font-size="14.00" fill="#c83500">integer</text>
</g>
<!-- DataSchema -->
<g id="node8" class="node"><title>DataSchema</title>
<polygon fill="#8ccbf2" stroke="none" points="485,-238 485,-259 749,-259 749,-238 485,-238"/>
<polygon fill="none" stroke="#8ccbf2" points="485,-238 485,-259 749,-259 749,-238 485,-238"/>
<text text-anchor="start" x="575.5" y="-245.8" font-family="mono" font-weight="bold" font-size="14.00" fill="#c83500">DataSchema</text>
<polygon fill="#ddeeff" stroke="none" points="485,-217 485,-238 749,-238 749,-217 485,-217"/>
<polygon fill="none" stroke="#8ccbf2" points="485,-217 485,-238 749,-238 749,-217 485,-217"/>
<text text-anchor="start" x="488" y="-224.8" font-family="mono" font-size="14.00" fill="#c83500">@context</text>
<text text-anchor="start" x="555" y="-224.8" font-family="Times,serif" font-size="14.00"> : </text>
<text text-anchor="start" x="567" y="-224.8" font-family="Times,serif" font-style="italic" font-size="14.00">array of </text>
<text text-anchor="start" x="616" y="-224.8" font-family="mono" font-size="14.00" fill="#c83500">context</text>
<text text-anchor="start" x="674" y="-224.8" font-family="Times,serif" font-size="14.00"> </text>
<text text-anchor="start" x="678" y="-224.8" font-family="Times,serif" font-style="italic" font-size="14.00">(mandatory)</text>
<polygon fill="#ddeeff" stroke="none" points="485,-196 485,-217 749,-217 749,-196 485,-196"/>
<polygon fill="none" stroke="#8ccbf2" points="485,-196 485,-217 749,-217 749,-196 485,-196"/>
<text text-anchor="start" x="488" y="-203.8" font-family="mono" font-size="14.00" fill="#c83500">@type</text>
<text text-anchor="start" x="530" y="-203.8" font-family="Times,serif" font-size="14.00"> : </text>
<text text-anchor="start" x="542" y="-203.8" font-family="Times,serif" font-style="italic" font-size="14.00">array of </text>
<text text-anchor="start" x="591" y="-203.8" font-family="mono" font-size="14.00" fill="#c83500">string</text>
<polygon fill="#ddeeff" stroke="none" points="485,-175 485,-196 749,-196 749,-175 485,-175"/>
<polygon fill="none" stroke="#8ccbf2" points="485,-175 485,-196 749,-196 749,-175 485,-175"/>
<text text-anchor="start" x="488" y="-182.8" font-family="mono" font-size="14.00" fill="#c83500">writeOnly</text>
<text text-anchor="start" x="563" y="-182.8" font-family="Times,serif" font-size="14.00"> : </text>
<text text-anchor="start" x="575" y="-182.8" font-family="mono" font-size="14.00" fill="#c83500">boolean</text>
<text text-anchor="start" x="633" y="-182.8" font-family="Times,serif" font-size="14.00"> </text>
<text text-anchor="start" x="637" y="-182.8" font-family="Times,serif" font-style="italic" font-size="14.00">(mandatory)</text>
<polygon fill="#ddeeff" stroke="none" points="485,-154 485,-175 749,-175 749,-154 485,-154"/>
<polygon fill="none" stroke="#8ccbf2" points="485,-154 485,-175 749,-175 749,-154 485,-154"/>
<text text-anchor="start" x="488" y="-161.8" font-family="mono" font-size="14.00" fill="#c83500">title</text>
<text text-anchor="start" x="530" y="-161.8" font-family="Times,serif" font-size="14.00"> : </text>
<text text-anchor="start" x="542" y="-161.8" font-family="mono" font-size="14.00" fill="#c83500">string</text>
<polygon fill="#ddeeff" stroke="none" points="485,-133 485,-154 749,-154 749,-133 485,-133"/>
<polygon fill="none" stroke="#8ccbf2" points="485,-133 485,-154 749,-154 749,-133 485,-133"/>
<text text-anchor="start" x="488" y="-140.8" font-family="mono" font-size="14.00" fill="#c83500">readOnly</text>
<text text-anchor="start" x="555" y="-140.8" font-family="Times,serif" font-size="14.00"> : </text>
<text text-anchor="start" x="567" y="-140.8" font-family="mono" font-size="14.00" fill="#c83500">boolean</text>
<text text-anchor="start" x="625" y="-140.8" font-family="Times,serif" font-size="14.00"> </text>
<text text-anchor="start" x="629" y="-140.8" font-family="Times,serif" font-style="italic" font-size="14.00">(mandatory)</text>
<polygon fill="#ddeeff" stroke="none" points="485,-112 485,-133 749,-133 749,-112 485,-112"/>
<polygon fill="none" stroke="#8ccbf2" points="485,-112 485,-133 749,-133 749,-112 485,-112"/>
<text text-anchor="start" x="488" y="-119.8" font-family="mono" font-size="14.00" fill="#c83500">description</text>
<text text-anchor="start" x="579" y="-119.8" font-family="Times,serif" font-size="14.00"> : </text>
<text text-anchor="start" x="591" y="-119.8" font-family="mono" font-size="14.00" fill="#c83500">string</text>
<polygon fill="#ddeeff" stroke="none" points="485,-91 485,-112 749,-112 749,-91 485,-91"/>
<polygon fill="none" stroke="#8ccbf2" points="485,-91 485,-112 749,-112 749,-91 485,-91"/>
<text text-anchor="start" x="488" y="-98.8" font-family="mono" font-size="14.00" fill="#c83500">type</text>
<text text-anchor="start" x="522" y="-98.8" font-family="Times,serif" font-size="14.00"> : </text>
<text text-anchor="start" x="534" y="-98.8" font-family="mono" font-size="14.00" fill="#c83500">string</text>
</g>
<!-- IntegerSchema&#45;&gt;DataSchema -->
<g id="edge9" class="edge"><title>IntegerSchema&#45;&gt;DataSchema</title>
<path fill="none" stroke="black" d="M150.423,-317.119C153.311,-316.046 156.177,-315.002 159,-314 260.651,-277.907 377.059,-242.913 467.078,-217.195"/>
<polygon fill="white" stroke="black" points="468.154,-220.528 476.811,-214.421 466.235,-213.796 468.154,-220.528"/>
</g>
<!-- StringSchema -->
<g id="node2" class="node"><title>StringSchema</title>
<polygon fill="#8ccbf2" stroke="none" points="176,-338.5 176,-359.5 282,-359.5 282,-338.5 176,-338.5"/>
<polygon fill="none" stroke="#8ccbf2" points="176,-338.5 176,-359.5 282,-359.5 282,-338.5 176,-338.5"/>
<text text-anchor="start" x="179" y="-346.3" font-family="mono" font-weight="bold" font-size="14.00" fill="#c83500">StringSchema</text>
</g>
<!-- StringSchema&#45;&gt;DataSchema -->
<g id="edge13" class="edge"><title>StringSchema&#45;&gt;DataSchema</title>
<path fill="none" stroke="black" d="M262.665,-331.497C274.136,-325.813 287.074,-319.522 299,-314 353.593,-288.719 414.04,-262.139 467.445,-239.13"/>
<polygon fill="white" stroke="black" points="468.838,-242.341 476.64,-235.173 466.071,-235.911 468.838,-242.341"/>
</g>
<!-- BooleanSchema -->
<g id="node3" class="node"><title>BooleanSchema</title>
<polygon fill="#8ccbf2" stroke="none" points="316,-338.5 316,-359.5 430,-359.5 430,-338.5 316,-338.5"/>
<polygon fill="none" stroke="#8ccbf2" points="316,-338.5 316,-359.5 430,-359.5 430,-338.5 316,-338.5"/>
<text text-anchor="start" x="319" y="-346.3" font-family="mono" font-weight="bold" font-size="14.00" fill="#c83500">BooleanSchema</text>
</g>
<!-- BooleanSchema&#45;&gt;DataSchema -->
<g id="edge10" class="edge"><title>BooleanSchema&#45;&gt;DataSchema</title>
<path fill="none" stroke="black" d="M397.288,-331.329C418.714,-316.182 451.744,-292.831 485.739,-268.797"/>
<polygon fill="white" stroke="black" points="487.783,-271.639 493.928,-263.008 483.742,-265.923 487.783,-271.639"/>
</g>
<!-- NumberSchema -->
<g id="node4" class="node"><title>NumberSchema</title>
<polygon fill="#8ccbf2" stroke="none" points="464,-359.5 464,-380.5 590,-380.5 590,-359.5 464,-359.5"/>
<polygon fill="none" stroke="#8ccbf2" points="464,-359.5 464,-380.5 590,-380.5 590,-359.5 464,-359.5"/>
<text text-anchor="start" x="477" y="-367.3" font-family="mono" font-weight="bold" font-size="14.00" fill="#c83500">NumberSchema</text>
<polygon fill="#ddeeff" stroke="none" points="464,-338.5 464,-359.5 590,-359.5 590,-338.5 464,-338.5"/>
<polygon fill="none" stroke="#8ccbf2" points="464,-338.5 464,-359.5 590,-359.5 590,-338.5 464,-338.5"/>
<text text-anchor="start" x="467" y="-346.3" font-family="mono" font-size="14.00" fill="#c83500">maximum</text>
<text text-anchor="start" x="525" y="-346.3" font-family="Times,serif" font-size="14.00"> : </text>
<text text-anchor="start" x="537" y="-346.3" font-family="mono" font-size="14.00" fill="#c83500">double</text>
<polygon fill="#ddeeff" stroke="none" points="464,-317.5 464,-338.5 590,-338.5 590,-317.5 464,-317.5"/>
<polygon fill="none" stroke="#8ccbf2" points="464,-317.5 464,-338.5 590,-338.5 590,-317.5 464,-317.5"/>
<text text-anchor="start" x="467" y="-325.3" font-family="mono" font-size="14.00" fill="#c83500">minimum</text>
<text text-anchor="start" x="525" y="-325.3" font-family="Times,serif" font-size="14.00"> : </text>
<text text-anchor="start" x="537" y="-325.3" font-family="mono" font-size="14.00" fill="#c83500">double</text>
</g>
<!-- NumberSchema&#45;&gt;DataSchema -->
<g id="edge12" class="edge"><title>NumberSchema&#45;&gt;DataSchema</title>
<path fill="none" stroke="black" d="M545.213,-313.592C551.551,-301.445 559.003,-287.161 566.665,-272.476"/>
<polygon fill="white" stroke="black" points="569.931,-273.781 571.454,-263.296 563.725,-270.543 569.931,-273.781"/>
</g>
<!-- ObjectSchema -->
<g id="node5" class="node"><title>ObjectSchema</title>
<polygon fill="#8ccbf2" stroke="none" points="625,-349.5 625,-370.5 806,-370.5 806,-349.5 625,-349.5"/>
<polygon fill="none" stroke="#8ccbf2" points="625,-349.5 625,-370.5 806,-370.5 806,-349.5 625,-349.5"/>
<text text-anchor="start" x="665.5" y="-357.3" font-family="mono" font-weight="bold" font-size="14.00" fill="#c83500">ObjectSchema</text>
<polygon fill="#ddeeff" stroke="none" points="625,-328.5 625,-349.5 806,-349.5 806,-328.5 625,-328.5"/>
<polygon fill="none" stroke="#8ccbf2" points="625,-328.5 625,-349.5 806,-349.5 806,-328.5 625,-328.5"/>
<text text-anchor="start" x="628" y="-336.3" font-family="mono" font-size="14.00" fill="#c83500">required</text>
<text text-anchor="start" x="695" y="-336.3" font-family="Times,serif" font-size="14.00"> : array of </text>
<text text-anchor="start" x="753" y="-336.3" font-family="mono" font-size="14.00" fill="#c83500">string</text>
</g>
<!-- ObjectSchema&#45;&gt;DataSchema -->
<g id="edge1" class="edge"><title>ObjectSchema&#45;&gt;DataSchema</title>
<path fill="none" stroke="black" d="M647.716,-324.433C635.888,-317.136 625.106,-307.814 618,-296 613.763,-288.956 610.808,-281.232 608.841,-273.206"/>
<polygon fill="black" stroke="black" points="612.257,-272.439 606.912,-263.291 605.386,-273.776 612.257,-272.439"/>
<text text-anchor="start" x="618" y="-284.8" font-family="mono" font-size="14.00" fill="#c83500">properties</text>
<text text-anchor="middle" x="595.912" y="-267.091" font-family="Times,serif" font-size="14.00">0..1</text>
</g>
<!-- ObjectSchema&#45;&gt;DataSchema -->
<g id="edge7" class="edge"><title>ObjectSchema&#45;&gt;DataSchema</title>
<path fill="none" stroke="black" d="M712.756,-324.198C710.854,-310.948 707.367,-294.538 701,-281 699.584,-277.99 698.066,-274.989 696.46,-272.007"/>
<polygon fill="white" stroke="black" points="699.39,-270.079 691.4,-263.122 693.308,-273.543 699.39,-270.079"/>
</g>
<!-- ArraySchema -->
<g id="node6" class="node"><title>ArraySchema</title>
<polygon fill="#8ccbf2" stroke="none" points="840,-359.5 840,-380.5 1016,-380.5 1016,-359.5 840,-359.5"/>
<polygon fill="none" stroke="#8ccbf2" points="840,-359.5 840,-380.5 1016,-380.5 1016,-359.5 840,-359.5"/>
<text text-anchor="start" x="882.5" y="-367.3" font-family="mono" font-weight="bold" font-size="14.00" fill="#c83500">ArraySchema</text>
<polygon fill="#ddeeff" stroke="none" points="840,-338.5 840,-359.5 1016,-359.5 1016,-338.5 840,-338.5"/>
<polygon fill="none" stroke="#8ccbf2" points="840,-338.5 840,-359.5 1016,-359.5 1016,-338.5 840,-338.5"/>
<text text-anchor="start" x="843" y="-346.3" font-family="mono" font-size="14.00" fill="#c83500">maxItems</text>
<text text-anchor="start" x="910" y="-346.3" font-family="Times,serif" font-size="14.00"> : </text>
<text text-anchor="start" x="922" y="-346.3" font-family="mono" font-size="14.00" fill="#c83500">unsignedInt</text>
<polygon fill="#ddeeff" stroke="none" points="840,-317.5 840,-338.5 1016,-338.5 1016,-317.5 840,-317.5"/>
<polygon fill="none" stroke="#8ccbf2" points="840,-317.5 840,-338.5 1016,-338.5 1016,-317.5 840,-317.5"/>
<text text-anchor="start" x="843" y="-325.3" font-family="mono" font-size="14.00" fill="#c83500">minItems</text>
<text text-anchor="start" x="910" y="-325.3" font-family="Times,serif" font-size="14.00"> : </text>
<text text-anchor="start" x="922" y="-325.3" font-family="mono" font-size="14.00" fill="#c83500">unsignedInt</text>
</g>
<!-- ArraySchema&#45;&gt;DataSchema -->
<g id="edge2" class="edge"><title>ArraySchema&#45;&gt;DataSchema</title>
<path fill="none" stroke="black" d="M865.439,-313.8C836.659,-297.837 801.171,-278.153 766.116,-258.709"/>
<polygon fill="black" stroke="black" points="767.66,-255.563 757.218,-253.774 764.265,-261.685 767.66,-255.563"/>
<text text-anchor="start" x="828" y="-284.8" font-family="mono" font-size="14.00" fill="#c83500">items</text>
<text text-anchor="middle" x="768.218" y="-257.574" font-family="Times,serif" font-size="14.00">0..1</text>
</g>
<!-- ArraySchema&#45;&gt;DataSchema -->
<g id="edge8" class="edge"><title>ArraySchema&#45;&gt;DataSchema</title>
<path fill="none" stroke="black" d="M905.672,-313.863C896.889,-302.251 886.02,-289.986 874,-281 841.971,-257.056 803.709,-237.603 766.617,-222.245"/>
<polygon fill="white" stroke="black" points="767.799,-218.948 757.216,-218.429 765.165,-225.433 767.799,-218.948"/>
</g>
<!-- NullSchema -->
<g id="node7" class="node"><title>NullSchema</title>
<polygon fill="#8ccbf2" stroke="none" points="1051,-338.5 1051,-359.5 1140,-359.5 1140,-338.5 1051,-338.5"/>
<polygon fill="none" stroke="#8ccbf2" points="1051,-338.5 1051,-359.5 1140,-359.5 1140,-338.5 1051,-338.5"/>
<text text-anchor="start" x="1054" y="-346.3" font-family="mono" font-weight="bold" font-size="14.00" fill="#c83500">NullSchema</text>
</g>
<!-- NullSchema&#45;&gt;DataSchema -->
<g id="edge11" class="edge"><title>NullSchema&#45;&gt;DataSchema</title>
<path fill="none" stroke="black" d="M1066.86,-331.378C1056.44,-325.431 1044.39,-319.005 1033,-314 946.98,-276.199 847.158,-242.757 766.861,-218.265"/>
<polygon fill="white" stroke="black" points="767.753,-214.878 757.167,-215.322 765.72,-221.576 767.753,-214.878"/>
</g>
<!-- DataSchema&#45;&gt;DataSchema -->
<g id="edge4" class="edge"><title>DataSchema&#45;&gt;DataSchema</title>
<path fill="none" stroke="black" d="M757.214,-190.913C768.209,-187.414 775,-182.109 775,-175 775,-170.223 771.935,-166.262 766.588,-163.115"/>
<polygon fill="black" stroke="black" points="767.784,-159.819 757.214,-159.087 765.02,-166.251 767.784,-159.819"/>
<text text-anchor="start" x="775" y="-171.3" font-family="mono" font-size="14.00" fill="#c83500">oneOf</text>
<text text-anchor="middle" x="768.214" y="-147.887" font-family="Times,serif" font-size="14.00">0..*</text>
</g>
<!-- MultiLanguage -->
<g id="node9" class="node"><title>MultiLanguage</title>
<polygon fill="#f2f2f2" stroke="none" points="524,-7 524,-28 638,-28 638,-7 524,-7"/>
<polygon fill="none" stroke="#8c8c8c" points="524,-7 524,-28 638,-28 638,-7 524,-7"/>
<text text-anchor="start" x="527" y="-14.8" font-family="mono" font-weight="bold" font-size="14.00">MultiLanguage</text>
</g>
<!-- DataSchema&#45;&gt;MultiLanguage -->
<g id="edge3" class="edge"><title>DataSchema&#45;&gt;MultiLanguage</title>
<path fill="none" stroke="black" d="M551.897,-86.87C549.207,-80.9958 546.865,-75.0171 545,-69 543.026,-62.6321 542.405,-60.1411 545,-54 546.558,-50.3114 548.717,-46.8195 551.209,-43.5726"/>
<polygon fill="black" stroke="black" points="553.892,-45.8233 557.943,-36.0337 548.671,-41.1601 553.892,-45.8233"/>
<text text-anchor="start" x="545" y="-57.8" font-family="mono" font-size="14.00" fill="#c83500">titles</text>
<text text-anchor="middle" x="546.943" y="-39.8337" font-family="Times,serif" font-size="14.00">0..1</text>
</g>
<!-- DataSchema&#45;&gt;MultiLanguage -->
<g id="edge6" class="edge"><title>DataSchema&#45;&gt;MultiLanguage</title>
<path fill="none" stroke="black" d="M603.102,-86.6788C600.722,-75.6005 598.024,-64.4804 595,-54 594.201,-51.2294 593.262,-48.3756 592.255,-45.5495"/>
<polygon fill="black" stroke="black" points="595.522,-44.293 588.675,-36.2079 588.985,-46.7981 595.522,-44.293"/>
<text text-anchor="start" x="599" y="-57.8" font-family="mono" font-size="14.00" fill="#c83500">descriptions</text>
<text text-anchor="middle" x="577.675" y="-40.0079" font-family="Times,serif" font-size="14.00">0..1</text>
</g>
<!-- string -->
<g id="node10" class="node"><title>string</title>
<polygon fill="#f2f2f2" stroke="none" points="712,-7 712,-28 768,-28 768,-7 712,-7"/>
<polygon fill="none" stroke="#8c8c8c" points="712,-7 712,-28 768,-28 768,-7 712,-7"/>
<text text-anchor="start" x="715" y="-14.8" font-family="mono" font-weight="bold" font-size="14.00">string</text>
</g>
<!-- DataSchema&#45;&gt;string -->
<g id="edge5" class="edge"><title>DataSchema&#45;&gt;string</title>
<path fill="none" stroke="black" d="M688.892,-86.8888C693.699,-80.8608 698.439,-74.8561 703,-69 709.14,-61.1163 715.675,-52.3995 721.517,-44.4817"/>
<polygon fill="black" stroke="black" points="724.441,-46.4141 727.534,-36.2809 718.797,-42.2733 724.441,-46.4141"/>
<text text-anchor="start" x="715" y="-57.8" font-family="mono" font-size="14.00" fill="#c83500">unit</text>
<text text-anchor="middle" x="716.534" y="-40.0809" font-family="Times,serif" font-size="14.00">0..1</text>
</g>
</g>
</svg>
