<?xml version="1.0" encoding="UTF-8" standalone="no"?>
<!DOCTYPE svg PUBLIC "-//W3C//DTD SVG 1.1//EN"
 "http://www.w3.org/Graphics/SVG/1.1/DTD/svg11.dtd">
<!-- Generated by graphviz version 2.38.0 (20140413.2041)
 -->
<!-- Title: %3 Pages: 1 -->
<svg width="1156pt" height="414pt"
 viewBox="0.00 0.00 1155.50 414.00" xmlns="http://www.w3.org/2000/svg" xmlns:xlink="http://www.w3.org/1999/xlink">
<g id="graph0" class="graph" transform="scale(1 1) rotate(0) translate(4 410)">
<title>%3</title>
<polygon fill="white" stroke="none" points="-4,4 -4,-410 1151.5,-410 1151.5,4 -4,4"/>
<!-- IntegerSchema -->
<g id="node1" class="node"><title>IntegerSchema</title>
<polygon fill="#8ccbf2" stroke="none" points="8,-380.5 8,-401.5 142,-401.5 142,-380.5 8,-380.5"/>
<polygon fill="none" stroke="#8ccbf2" points="8,-380.5 8,-401.5 142,-401.5 142,-380.5 8,-380.5"/>
<text text-anchor="start" x="21" y="-388.3" font-family="mono" font-weight="bold" font-size="14.00" fill="#c83500">IntegerSchema</text>
<polygon fill="#ddeeff" stroke="none" points="8,-359.5 8,-380.5 142,-380.5 142,-359.5 8,-359.5"/>
<polygon fill="none" stroke="#8ccbf2" points="8,-359.5 8,-380.5 142,-380.5 142,-359.5 8,-359.5"/>
<text text-anchor="start" x="11" y="-367.3" font-family="mono" font-size="14.00" fill="#c83500">minimum</text>
<text text-anchor="start" x="69" y="-367.3" font-family="Times,serif" font-size="14.00"> : </text>
<text text-anchor="start" x="81" y="-367.3" font-family="mono" font-size="14.00" fill="#c83500">integer</text>
<polygon fill="#ddeeff" stroke="none" points="8,-338.5 8,-359.5 142,-359.5 142,-338.5 8,-338.5"/>
<polygon fill="none" stroke="#8ccbf2" points="8,-338.5 8,-359.5 142,-359.5 142,-338.5 8,-338.5"/>
<text text-anchor="start" x="11" y="-346.3" font-family="mono" font-size="14.00" fill="#c83500">maximum</text>
<text text-anchor="start" x="69" y="-346.3" font-family="Times,serif" font-size="14.00"> : </text>
<text text-anchor="start" x="81" y="-346.3" font-family="mono" font-size="14.00" fill="#c83500">integer</text>
</g>
<!-- DataSchema -->
<g id="node8" class="node"><title>DataSchema</title>
<polygon fill="#8ccbf2" stroke="none" points="506,-258.5 506,-279.5 729,-279.5 729,-258.5 506,-258.5"/>
<polygon fill="none" stroke="#8ccbf2" points="506,-258.5 506,-279.5 729,-279.5 729,-258.5 506,-258.5"/>
<text text-anchor="start" x="576" y="-266.3" font-family="mono" font-weight="bold" font-size="14.00" fill="#c83500">DataSchema</text>
<polygon fill="#ddeeff" stroke="none" points="506,-237.5 506,-258.5 729,-258.5 729,-237.5 506,-237.5"/>
<polygon fill="none" stroke="#8ccbf2" points="506,-237.5 506,-258.5 729,-258.5 729,-237.5 506,-237.5"/>
<text text-anchor="start" x="509" y="-245.3" font-family="mono" font-size="14.00" fill="#c83500">@context</text>
<text text-anchor="start" x="576" y="-245.3" font-family="Times,serif" font-size="14.00"> : </text>
<text text-anchor="start" x="588" y="-245.3" font-family="Times,serif" font-style="italic" font-size="14.00">array</text>
<text text-anchor="start" x="619" y="-245.3" font-family="Times,serif" font-size="14.00"> </text>
<text text-anchor="start" x="623" y="-245.3" font-family="Times,serif" font-style="italic" font-size="14.00">(mandatory)</text>
<polygon fill="#ddeeff" stroke="none" points="506,-216.5 506,-237.5 729,-237.5 729,-216.5 506,-216.5"/>
<polygon fill="none" stroke="#8ccbf2" points="506,-216.5 506,-237.5 729,-237.5 729,-216.5 506,-216.5"/>
<text text-anchor="start" x="509" y="-224.3" font-family="mono" font-size="14.00" fill="#c83500">@type</text>
<text text-anchor="start" x="551" y="-224.3" font-family="Times,serif" font-size="14.00"> : </text>
<text text-anchor="start" x="563" y="-224.3" font-family="Times,serif" font-style="italic" font-size="14.00">array of </text>
<text text-anchor="start" x="612" y="-224.3" font-family="mono" font-size="14.00" fill="#c83500">string</text>
<polygon fill="#ddeeff" stroke="none" points="506,-195.5 506,-216.5 729,-216.5 729,-195.5 506,-195.5"/>
<polygon fill="none" stroke="#8ccbf2" points="506,-195.5 506,-216.5 729,-216.5 729,-195.5 506,-195.5"/>
<text text-anchor="start" x="509" y="-203.3" font-family="mono" font-size="14.00" fill="#c83500">writeOnly</text>
<text text-anchor="start" x="584" y="-203.3" font-family="Times,serif" font-size="14.00"> : </text>
<text text-anchor="start" x="596" y="-203.3" font-family="mono" font-size="14.00" fill="#c83500">boolean</text>
<text text-anchor="start" x="654" y="-203.3" font-family="Times,serif" font-size="14.00"> </text>
<text text-anchor="start" x="658" y="-203.3" font-family="Times,serif" font-style="italic" font-size="14.00">(mandatory)</text>
<polygon fill="#ddeeff" stroke="none" points="506,-174.5 506,-195.5 729,-195.5 729,-174.5 506,-174.5"/>
<polygon fill="none" stroke="#8ccbf2" points="506,-174.5 506,-195.5 729,-195.5 729,-174.5 506,-174.5"/>
<text text-anchor="start" x="509" y="-182.3" font-family="mono" font-size="14.00" fill="#c83500">readOnly</text>
<text text-anchor="start" x="576" y="-182.3" font-family="Times,serif" font-size="14.00"> : </text>
<text text-anchor="start" x="588" y="-182.3" font-family="mono" font-size="14.00" fill="#c83500">boolean</text>
<text text-anchor="start" x="646" y="-182.3" font-family="Times,serif" font-size="14.00"> </text>
<text text-anchor="start" x="650" y="-182.3" font-family="Times,serif" font-style="italic" font-size="14.00">(mandatory)</text>
<polygon fill="#ddeeff" stroke="none" points="506,-153.5 506,-174.5 729,-174.5 729,-153.5 506,-153.5"/>
<polygon fill="none" stroke="#8ccbf2" points="506,-153.5 506,-174.5 729,-174.5 729,-153.5 506,-153.5"/>
<text text-anchor="start" x="509" y="-161.3" font-family="mono" font-size="14.00" fill="#c83500">format</text>
<text text-anchor="start" x="559" y="-161.3" font-family="Times,serif" font-size="14.00"> : </text>
<text text-anchor="start" x="571" y="-161.3" font-family="mono" font-size="14.00" fill="#c83500">string</text>
<polygon fill="#ddeeff" stroke="none" points="506,-132.5 506,-153.5 729,-153.5 729,-132.5 506,-132.5"/>
<polygon fill="none" stroke="#8ccbf2" points="506,-132.5 506,-153.5 729,-153.5 729,-132.5 506,-132.5"/>
<text text-anchor="start" x="509" y="-140.3" font-family="mono" font-size="14.00" fill="#c83500">title</text>
<text text-anchor="start" x="551" y="-140.3" font-family="Times,serif" font-size="14.00"> : </text>
<text text-anchor="start" x="563" y="-140.3" font-family="mono" font-size="14.00" fill="#c83500">string</text>
<polygon fill="#ddeeff" stroke="none" points="506,-111.5 506,-132.5 729,-132.5 729,-111.5 506,-111.5"/>
<polygon fill="none" stroke="#8ccbf2" points="506,-111.5 506,-132.5 729,-132.5 729,-111.5 506,-111.5"/>
<text text-anchor="start" x="509" y="-119.3" font-family="mono" font-size="14.00" fill="#c83500">type</text>
<text text-anchor="start" x="543" y="-119.3" font-family="Times,serif" font-size="14.00"> : </text>
<text text-anchor="start" x="555" y="-119.3" font-family="mono" font-size="14.00" fill="#c83500">string</text>
<polygon fill="#ddeeff" stroke="none" points="506,-90.5 506,-111.5 729,-111.5 729,-90.5 506,-90.5"/>
<polygon fill="none" stroke="#8ccbf2" points="506,-90.5 506,-111.5 729,-111.5 729,-90.5 506,-90.5"/>
<text text-anchor="start" x="509" y="-98.3" font-family="mono" font-size="14.00" fill="#c83500">description</text>
<text text-anchor="start" x="600" y="-98.3" font-family="Times,serif" font-size="14.00"> : </text>
<text text-anchor="start" x="612" y="-98.3" font-family="mono" font-size="14.00" fill="#c83500">string</text>
</g>
<!-- IntegerSchema&#45;&gt;DataSchema -->
<g id="edge7" class="edge"><title>IntegerSchema&#45;&gt;DataSchema</title>
<path fill="none" stroke="black" d="M150.45,-338.195C153.33,-337.1 156.188,-336.032 159,-335 268.709,-294.751 395.182,-254.175 487.391,-225.633"/>
<polygon fill="white" stroke="black" points="488.529,-228.945 497.05,-222.648 486.462,-222.257 488.529,-228.945"/>
</g>
<!-- StringSchema -->
<g id="node2" class="node"><title>StringSchema</title>
<polygon fill="#8ccbf2" stroke="none" points="176,-359.5 176,-380.5 282,-380.5 282,-359.5 176,-359.5"/>
<polygon fill="none" stroke="#8ccbf2" points="176,-359.5 176,-380.5 282,-380.5 282,-359.5 176,-359.5"/>
<text text-anchor="start" x="179" y="-367.3" font-family="mono" font-weight="bold" font-size="14.00" fill="#c83500">StringSchema</text>
</g>
<!-- StringSchema&#45;&gt;DataSchema -->
<g id="edge13" class="edge"><title>StringSchema&#45;&gt;DataSchema</title>
<path fill="none" stroke="black" d="M263.466,-352.334C274.764,-346.755 287.396,-340.568 299,-335 361.052,-305.224 430.256,-272.813 488.22,-245.889"/>
<polygon fill="white" stroke="black" points="489.827,-249.002 497.424,-241.617 486.88,-242.653 489.827,-249.002"/>
</g>
<!-- BooleanSchema -->
<g id="node3" class="node"><title>BooleanSchema</title>
<polygon fill="#8ccbf2" stroke="none" points="316,-359.5 316,-380.5 430,-380.5 430,-359.5 316,-359.5"/>
<polygon fill="none" stroke="#8ccbf2" points="316,-359.5 316,-380.5 430,-380.5 430,-359.5 316,-359.5"/>
<text text-anchor="start" x="319" y="-367.3" font-family="mono" font-weight="bold" font-size="14.00" fill="#c83500">BooleanSchema</text>
</g>
<!-- BooleanSchema&#45;&gt;DataSchema -->
<g id="edge9" class="edge"><title>BooleanSchema&#45;&gt;DataSchema</title>
<path fill="none" stroke="black" d="M395.955,-352.284C418.013,-335.74 453.203,-309.348 489.077,-282.442"/>
<polygon fill="white" stroke="black" points="491.323,-285.133 497.223,-276.333 487.123,-279.533 491.323,-285.133"/>
</g>
<!-- NumberSchema -->
<g id="node4" class="node"><title>NumberSchema</title>
<polygon fill="#8ccbf2" stroke="none" points="464,-380.5 464,-401.5 590,-401.5 590,-380.5 464,-380.5"/>
<polygon fill="none" stroke="#8ccbf2" points="464,-380.5 464,-401.5 590,-401.5 590,-380.5 464,-380.5"/>
<text text-anchor="start" x="477" y="-388.3" font-family="mono" font-weight="bold" font-size="14.00" fill="#c83500">NumberSchema</text>
<polygon fill="#ddeeff" stroke="none" points="464,-359.5 464,-380.5 590,-380.5 590,-359.5 464,-359.5"/>
<polygon fill="none" stroke="#8ccbf2" points="464,-359.5 464,-380.5 590,-380.5 590,-359.5 464,-359.5"/>
<text text-anchor="start" x="467" y="-367.3" font-family="mono" font-size="14.00" fill="#c83500">minimum</text>
<text text-anchor="start" x="525" y="-367.3" font-family="Times,serif" font-size="14.00"> : </text>
<text text-anchor="start" x="537" y="-367.3" font-family="mono" font-size="14.00" fill="#c83500">double</text>
<polygon fill="#ddeeff" stroke="none" points="464,-338.5 464,-359.5 590,-359.5 590,-338.5 464,-338.5"/>
<polygon fill="none" stroke="#8ccbf2" points="464,-338.5 464,-359.5 590,-359.5 590,-338.5 464,-338.5"/>
<text text-anchor="start" x="467" y="-346.3" font-family="mono" font-size="14.00" fill="#c83500">maximum</text>
<text text-anchor="start" x="525" y="-346.3" font-family="Times,serif" font-size="14.00"> : </text>
<text text-anchor="start" x="537" y="-346.3" font-family="mono" font-size="14.00" fill="#c83500">double</text>
</g>
<!-- NumberSchema&#45;&gt;DataSchema -->
<g id="edge12" class="edge"><title>NumberSchema&#45;&gt;DataSchema</title>
<path fill="none" stroke="black" d="M544.14,-334.648C550.095,-322.539 557.124,-308.248 564.426,-293.4"/>
<polygon fill="white" stroke="black" points="567.729,-294.616 569.001,-284.098 561.447,-291.527 567.729,-294.616"/>
</g>
<!-- ObjectSchema -->
<g id="node5" class="node"><title>ObjectSchema</title>
<polygon fill="#8ccbf2" stroke="none" points="625,-370.5 625,-391.5 806,-391.5 806,-370.5 625,-370.5"/>
<polygon fill="none" stroke="#8ccbf2" points="625,-370.5 625,-391.5 806,-391.5 806,-370.5 625,-370.5"/>
<text text-anchor="start" x="665.5" y="-378.3" font-family="mono" font-weight="bold" font-size="14.00" fill="#c83500">ObjectSchema</text>
<polygon fill="#ddeeff" stroke="none" points="625,-349.5 625,-370.5 806,-370.5 806,-349.5 625,-349.5"/>
<polygon fill="none" stroke="#8ccbf2" points="625,-349.5 625,-370.5 806,-370.5 806,-349.5 625,-349.5"/>
<text text-anchor="start" x="628" y="-357.3" font-family="mono" font-size="14.00" fill="#c83500">required</text>
<text text-anchor="start" x="695" y="-357.3" font-family="Times,serif" font-size="14.00"> : array of </text>
<text text-anchor="start" x="753" y="-357.3" font-family="mono" font-size="14.00" fill="#c83500">string</text>
</g>
<!-- ObjectSchema&#45;&gt;DataSchema -->
<g id="edge1" class="edge"><title>ObjectSchema&#45;&gt;DataSchema</title>
<path fill="none" stroke="black" d="M647.71,-345.436C635.883,-338.14 625.102,-328.817 618,-317 613.727,-309.89 610.655,-302.144 608.529,-294.09"/>
<polygon fill="black" stroke="black" points="611.913,-293.176 606.388,-284.135 605.069,-294.648 611.913,-293.176"/>
<text text-anchor="start" x="618" y="-305.8" font-family="mono" font-size="14.00" fill="#c83500">properties</text>
<text text-anchor="middle" x="595.388" y="-287.935" font-family="Times,serif" font-size="14.00">0..1</text>
</g>
<!-- ObjectSchema&#45;&gt;DataSchema -->
<g id="edge11" class="edge"><title>ObjectSchema&#45;&gt;DataSchema</title>
<path fill="none" stroke="black" d="M712.51,-345.311C710.534,-332.094 707.054,-315.68 701,-302 699.67,-298.996 698.254,-295.993 696.762,-293"/>
<polygon fill="white" stroke="black" points="699.817,-291.289 692.075,-284.057 693.617,-294.539 699.817,-291.289"/>
</g>
<!-- ArraySchema -->
<g id="node6" class="node"><title>ArraySchema</title>
<polygon fill="#8ccbf2" stroke="none" points="840,-380.5 840,-401.5 1016,-401.5 1016,-380.5 840,-380.5"/>
<polygon fill="none" stroke="#8ccbf2" points="840,-380.5 840,-401.5 1016,-401.5 1016,-380.5 840,-380.5"/>
<text text-anchor="start" x="882.5" y="-388.3" font-family="mono" font-weight="bold" font-size="14.00" fill="#c83500">ArraySchema</text>
<polygon fill="#ddeeff" stroke="none" points="840,-359.5 840,-380.5 1016,-380.5 1016,-359.5 840,-359.5"/>
<polygon fill="none" stroke="#8ccbf2" points="840,-359.5 840,-380.5 1016,-380.5 1016,-359.5 840,-359.5"/>
<text text-anchor="start" x="843" y="-367.3" font-family="mono" font-size="14.00" fill="#c83500">maxItems</text>
<text text-anchor="start" x="910" y="-367.3" font-family="Times,serif" font-size="14.00"> : </text>
<text text-anchor="start" x="922" y="-367.3" font-family="mono" font-size="14.00" fill="#c83500">unsignedInt</text>
<polygon fill="#ddeeff" stroke="none" points="840,-338.5 840,-359.5 1016,-359.5 1016,-338.5 840,-338.5"/>
<polygon fill="none" stroke="#8ccbf2" points="840,-338.5 840,-359.5 1016,-359.5 1016,-338.5 840,-338.5"/>
<text text-anchor="start" x="843" y="-346.3" font-family="mono" font-size="14.00" fill="#c83500">minItems</text>
<text text-anchor="start" x="910" y="-346.3" font-family="Times,serif" font-size="14.00"> : </text>
<text text-anchor="start" x="922" y="-346.3" font-family="mono" font-size="14.00" fill="#c83500">unsignedInt</text>
</g>
<!-- ArraySchema&#45;&gt;DataSchema -->
<g id="edge2" class="edge"><title>ArraySchema&#45;&gt;DataSchema</title>
<path fill="none" stroke="black" d="M869.138,-334.864C834.211,-314.312 788.508,-287.42 745.619,-262.183"/>
<polygon fill="black" stroke="black" points="747.193,-259.048 736.799,-256.993 743.643,-265.081 747.193,-259.048"/>
<text text-anchor="start" x="837" y="-305.8" font-family="mono" font-size="14.00" fill="#c83500">items</text>
<text text-anchor="middle" x="747.799" y="-260.793" font-family="Times,serif" font-size="14.00">0..1</text>
</g>
<!-- ArraySchema&#45;&gt;DataSchema -->
<g id="edge8" class="edge"><title>ArraySchema&#45;&gt;DataSchema</title>
<path fill="none" stroke="black" d="M910.273,-334.915C903.037,-323.308 893.806,-311.032 883,-302 843.337,-268.848 792.7,-243.709 746.272,-225.489"/>
<polygon fill="white" stroke="black" points="747.331,-222.146 736.742,-221.821 744.817,-228.679 747.331,-222.146"/>
</g>
<!-- NullSchema -->
<g id="node7" class="node"><title>NullSchema</title>
<polygon fill="#8ccbf2" stroke="none" points="1051,-359.5 1051,-380.5 1140,-380.5 1140,-359.5 1051,-359.5"/>
<polygon fill="none" stroke="#8ccbf2" points="1051,-359.5 1051,-380.5 1140,-380.5 1140,-359.5 1051,-359.5"/>
<text text-anchor="start" x="1054" y="-367.3" font-family="mono" font-weight="bold" font-size="14.00" fill="#c83500">NullSchema</text>
</g>
<!-- NullSchema&#45;&gt;DataSchema -->
<g id="edge10" class="edge"><title>NullSchema&#45;&gt;DataSchema</title>
<path fill="none" stroke="black" d="M1066.49,-352.342C1056.14,-346.459 1044.22,-340.083 1033,-335 939.266,-292.54 829.5,-253.792 746.262,-226.53"/>
<polygon fill="white" stroke="black" points="747.095,-223.12 736.502,-223.347 744.924,-229.775 747.095,-223.12"/>
</g>
<!-- DataSchema&#45;&gt;DataSchema -->
<g id="edge5" class="edge"><title>DataSchema&#45;&gt;DataSchema</title>
<path fill="none" stroke="black" d="M736.75,-203.976C747.646,-200.135 754.5,-193.977 754.5,-185.5 754.5,-179.805 751.406,-175.156 746.071,-171.553"/>
<polygon fill="black" stroke="black" points="747.274,-168.247 736.75,-167.024 744.214,-174.543 747.274,-168.247"/>
<text text-anchor="start" x="754.5" y="-181.8" font-family="mono" font-size="14.00" fill="#c83500">oneOf</text>
<text text-anchor="middle" x="747.75" y="-155.824" font-family="Times,serif" font-size="14.00">0..*</text>
</g>
<!-- MultiLanguage -->
<g id="node9" class="node"><title>MultiLanguage</title>
<polygon fill="#f2f2f2" stroke="none" points="476,-7 476,-28 590,-28 590,-7 476,-7"/>
<polygon fill="none" stroke="#8c8c8c" points="476,-7 476,-28 590,-28 590,-7 476,-7"/>
<text text-anchor="start" x="479" y="-14.8" font-family="mono" font-weight="bold" font-size="14.00">MultiLanguage</text>
</g>
<!-- DataSchema&#45;&gt;MultiLanguage -->
<g id="edge3" class="edge"><title>DataSchema&#45;&gt;MultiLanguage</title>
<path fill="none" stroke="black" d="M504.367,-86.943C500.812,-81.1491 497.652,-75.162 495,-69 491.121,-59.9865 494.666,-51.1308 500.895,-43.436"/>
<polygon fill="black" stroke="black" points="503.464,-45.8133 507.842,-36.1653 498.403,-40.9773 503.464,-45.8133"/>
<text text-anchor="start" x="495" y="-57.8" font-family="mono" font-size="14.00" fill="#c83500">descriptions</text>
<text text-anchor="middle" x="496.842" y="-39.9653" font-family="Times,serif" font-size="14.00">0..1</text>
</g>
<!-- DataSchema&#45;&gt;MultiLanguage -->
<g id="edge4" class="edge"><title>DataSchema&#45;&gt;MultiLanguage</title>
<path fill="none" stroke="black" d="M610.532,-86.9313C606.942,-75.1857 601.929,-63.8734 595,-54 591.849,-49.5103 587.928,-45.5255 583.597,-42.0054"/>
<polygon fill="black" stroke="black" points="585.608,-39.1401 575.44,-36.1625 581.532,-44.8309 585.608,-39.1401"/>
<text text-anchor="start" x="603" y="-57.8" font-family="mono" font-size="14.00" fill="#c83500">titles</text>
<text text-anchor="middle" x="564.44" y="-39.9625" font-family="Times,serif" font-size="14.00">0..1</text>
</g>
<!-- string -->
<g id="node10" class="node"><title>string</title>
<polygon fill="#f2f2f2" stroke="none" points="662,-7 662,-28 718,-28 718,-7 662,-7"/>
<polygon fill="none" stroke="#8c8c8c" points="662,-7 662,-28 718,-28 718,-7 662,-7"/>
<text text-anchor="start" x="665" y="-14.8" font-family="mono" font-weight="bold" font-size="14.00">string</text>
</g>
<!-- DataSchema&#45;&gt;string -->
<g id="edge6" class="edge"><title>DataSchema&#45;&gt;string</title>
<path fill="none" stroke="black" d="M660.137,-86.8314C662.799,-80.7979 665.436,-74.8168 668,-69 671.389,-61.3118 675.067,-52.9567 678.428,-45.317"/>
<polygon fill="black" stroke="black" points="681.648,-46.6897 682.471,-36.1268 675.24,-43.8711 681.648,-46.6897"/>
<text text-anchor="start" x="675" y="-57.8" font-family="mono" font-size="14.00" fill="#c83500">unit</text>
<text text-anchor="middle" x="671.471" y="-39.9268" font-family="Times,serif" font-size="14.00">0..1</text>
</g>
</g>
</svg>
