<?xml version="1.0" encoding="UTF-8" standalone="no"?>
<!DOCTYPE svg PUBLIC "-//W3C//DTD SVG 1.1//EN"
 "http://www.w3.org/Graphics/SVG/1.1/DTD/svg11.dtd">
<!-- Generated by graphviz version 2.38.0 (20140413.2041)
 -->
<!-- Title: %3 Pages: 1 -->
<svg width="1156pt" height="264pt"
 viewBox="0.00 0.00 1155.50 264.00" xmlns="http://www.w3.org/2000/svg" xmlns:xlink="http://www.w3.org/1999/xlink">
<g id="graph0" class="graph" transform="scale(1 1) rotate(0) translate(4 260)">
<title>%3</title>
<polygon fill="white" stroke="none" points="-4,4 -4,-260 1151.5,-260 1151.5,4 -4,4"/>
<!-- IntegerSchema -->
<g id="node1" class="node"><title>IntegerSchema</title>
<polygon fill="#8ccbf2" stroke="none" points="8,-230.5 8,-251.5 142,-251.5 142,-230.5 8,-230.5"/>
<polygon fill="none" stroke="#8ccbf2" points="8,-230.5 8,-251.5 142,-251.5 142,-230.5 8,-230.5"/>
<text text-anchor="start" x="21" y="-238.3" font-family="mono" font-weight="bold" font-size="14.00" fill="#c83500">IntegerSchema</text>
<polygon fill="#ddeeff" stroke="none" points="8,-209.5 8,-230.5 142,-230.5 142,-209.5 8,-209.5"/>
<polygon fill="none" stroke="#8ccbf2" points="8,-209.5 8,-230.5 142,-230.5 142,-209.5 8,-209.5"/>
<text text-anchor="start" x="11" y="-217.3" font-family="mono" font-size="14.00" fill="#c83500">maximum</text>
<text text-anchor="start" x="69" y="-217.3" font-family="Times,serif" font-size="14.00"> : </text>
<text text-anchor="start" x="81" y="-217.3" font-family="mono" font-size="14.00" fill="#c83500">integer</text>
<polygon fill="#ddeeff" stroke="none" points="8,-188.5 8,-209.5 142,-209.5 142,-188.5 8,-188.5"/>
<polygon fill="none" stroke="#8ccbf2" points="8,-188.5 8,-209.5 142,-209.5 142,-188.5 8,-188.5"/>
<text text-anchor="start" x="11" y="-196.3" font-family="mono" font-size="14.00" fill="#c83500">minimum</text>
<text text-anchor="start" x="69" y="-196.3" font-family="Times,serif" font-size="14.00"> : </text>
<text text-anchor="start" x="81" y="-196.3" font-family="mono" font-size="14.00" fill="#c83500">integer</text>
</g>
<!-- DataSchema -->
<g id="node8" class="node"><title>DataSchema</title>
<polygon fill="#8ccbf2" stroke="none" points="485,-109 485,-130 750,-130 750,-109 485,-109"/>
<polygon fill="none" stroke="#8ccbf2" points="485,-109 485,-130 750,-130 750,-109 485,-109"/>
<text text-anchor="start" x="576" y="-116.8" font-family="mono" font-weight="bold" font-size="14.00" fill="#c83500">DataSchema</text>
<polygon fill="#ddeeff" stroke="none" points="485,-88 485,-109 750,-109 750,-88 485,-88"/>
<polygon fill="none" stroke="#8ccbf2" points="485,-88 485,-109 750,-109 750,-88 485,-88"/>
<text text-anchor="start" x="488" y="-95.8" font-family="mono" font-size="14.00" fill="#c83500">type</text>
<text text-anchor="start" x="522" y="-95.8" font-family="Times,serif" font-size="14.00"> : </text>
<text text-anchor="start" x="534" y="-95.8" font-family="mono" font-size="14.00" fill="#c83500">string</text>
<polygon fill="#ddeeff" stroke="none" points="485,-67 485,-88 750,-88 750,-67 485,-67"/>
<polygon fill="none" stroke="#8ccbf2" points="485,-67 485,-88 750,-88 750,-67 485,-67"/>
<text text-anchor="start" x="488" y="-74.8" font-family="mono" font-size="14.00" fill="#c83500">title</text>
<text text-anchor="start" x="530" y="-74.8" font-family="Times,serif" font-size="14.00"> : </text>
<text text-anchor="start" x="542" y="-74.8" font-family="mono" font-size="14.00" fill="#c83500">string</text>
<polygon fill="#ddeeff" stroke="none" points="485,-46 485,-67 750,-67 750,-46 485,-46"/>
<polygon fill="none" stroke="#8ccbf2" points="485,-46 485,-67 750,-67 750,-46 485,-46"/>
<text text-anchor="start" x="488" y="-53.8" font-family="mono" font-size="14.00" fill="#c83500">writeOnly</text>
<text text-anchor="start" x="563" y="-53.8" font-family="Times,serif" font-size="14.00"> : </text>
<text text-anchor="start" x="575" y="-53.8" font-family="mono" font-size="14.00" fill="#c83500">boolean</text>
<text text-anchor="start" x="633" y="-53.8" font-family="Times,serif" font-size="14.00"> = false </text>
<text text-anchor="start" x="679" y="-53.8" font-family="Times,serif" font-style="italic" font-size="14.00">(mandatory)</text>
<polygon fill="#ddeeff" stroke="none" points="485,-25 485,-46 750,-46 750,-25 485,-25"/>
<polygon fill="none" stroke="#8ccbf2" points="485,-25 485,-46 750,-46 750,-25 485,-25"/>
<text text-anchor="start" x="488" y="-32.8" font-family="mono" font-size="14.00" fill="#c83500">description</text>
<text text-anchor="start" x="579" y="-32.8" font-family="Times,serif" font-size="14.00"> : </text>
<text text-anchor="start" x="591" y="-32.8" font-family="mono" font-size="14.00" fill="#c83500">string</text>
<polygon fill="#ddeeff" stroke="none" points="485,-4 485,-25 750,-25 750,-4 485,-4"/>
<polygon fill="none" stroke="#8ccbf2" points="485,-4 485,-25 750,-25 750,-4 485,-4"/>
<text text-anchor="start" x="488" y="-11.8" font-family="mono" font-size="14.00" fill="#c83500">readOnly</text>
<text text-anchor="start" x="555" y="-11.8" font-family="Times,serif" font-size="14.00"> : </text>
<text text-anchor="start" x="567" y="-11.8" font-family="mono" font-size="14.00" fill="#c83500">boolean</text>
<text text-anchor="start" x="625" y="-11.8" font-family="Times,serif" font-size="14.00"> = false </text>
<text text-anchor="start" x="671" y="-11.8" font-family="Times,serif" font-style="italic" font-size="14.00">(mandatory)</text>
</g>
<!-- IntegerSchema&#45;&gt;DataSchema -->
<g id="edge6" class="edge"><title>IntegerSchema&#45;&gt;DataSchema</title>
<path fill="none" stroke="black" d="M150.369,-187.964C153.272,-186.934 156.157,-185.942 159,-185 260.191,-151.477 376.605,-121.851 466.743,-100.798"/>
<polygon fill="white" stroke="black" points="467.543,-104.206 476.49,-98.5314 465.957,-97.3879 467.543,-104.206"/>
</g>
<!-- StringSchema -->
<g id="node2" class="node"><title>StringSchema</title>
<polygon fill="#8ccbf2" stroke="none" points="176,-209.5 176,-230.5 282,-230.5 282,-209.5 176,-209.5"/>
<polygon fill="none" stroke="#8ccbf2" points="176,-209.5 176,-230.5 282,-230.5 282,-209.5 176,-209.5"/>
<text text-anchor="start" x="179" y="-217.3" font-family="mono" font-weight="bold" font-size="14.00" fill="#c83500">StringSchema</text>
</g>
<!-- StringSchema&#45;&gt;DataSchema -->
<g id="edge11" class="edge"><title>StringSchema&#45;&gt;DataSchema</title>
<path fill="none" stroke="black" d="M261.782,-202.455C273.412,-196.645 286.673,-190.288 299,-185 353.06,-161.809 413.406,-138.884 466.88,-119.556"/>
<polygon fill="white" stroke="black" points="468.213,-122.796 476.435,-116.114 465.84,-116.21 468.213,-122.796"/>
</g>
<!-- BooleanSchema -->
<g id="node3" class="node"><title>BooleanSchema</title>
<polygon fill="#8ccbf2" stroke="none" points="316,-209.5 316,-230.5 430,-230.5 430,-209.5 316,-209.5"/>
<polygon fill="none" stroke="#8ccbf2" points="316,-209.5 316,-230.5 430,-230.5 430,-209.5 316,-209.5"/>
<text text-anchor="start" x="319" y="-217.3" font-family="mono" font-weight="bold" font-size="14.00" fill="#c83500">BooleanSchema</text>
</g>
<!-- BooleanSchema&#45;&gt;DataSchema -->
<g id="edge9" class="edge"><title>BooleanSchema&#45;&gt;DataSchema</title>
<path fill="none" stroke="black" d="M400.516,-202.416C425.544,-186.876 464.241,-162.848 502.035,-139.382"/>
<polygon fill="white" stroke="black" points="503.939,-142.32 510.588,-134.071 500.246,-136.373 503.939,-142.32"/>
</g>
<!-- NumberSchema -->
<g id="node4" class="node"><title>NumberSchema</title>
<polygon fill="#8ccbf2" stroke="none" points="464,-230.5 464,-251.5 590,-251.5 590,-230.5 464,-230.5"/>
<polygon fill="none" stroke="#8ccbf2" points="464,-230.5 464,-251.5 590,-251.5 590,-230.5 464,-230.5"/>
<text text-anchor="start" x="477" y="-238.3" font-family="mono" font-weight="bold" font-size="14.00" fill="#c83500">NumberSchema</text>
<polygon fill="#ddeeff" stroke="none" points="464,-209.5 464,-230.5 590,-230.5 590,-209.5 464,-209.5"/>
<polygon fill="none" stroke="#8ccbf2" points="464,-209.5 464,-230.5 590,-230.5 590,-209.5 464,-209.5"/>
<text text-anchor="start" x="467" y="-217.3" font-family="mono" font-size="14.00" fill="#c83500">maximum</text>
<text text-anchor="start" x="525" y="-217.3" font-family="Times,serif" font-size="14.00"> : </text>
<text text-anchor="start" x="537" y="-217.3" font-family="mono" font-size="14.00" fill="#c83500">double</text>
<polygon fill="#ddeeff" stroke="none" points="464,-188.5 464,-209.5 590,-209.5 590,-188.5 464,-188.5"/>
<polygon fill="none" stroke="#8ccbf2" points="464,-188.5 464,-209.5 590,-209.5 590,-188.5 464,-188.5"/>
<text text-anchor="start" x="467" y="-196.3" font-family="mono" font-size="14.00" fill="#c83500">minimum</text>
<text text-anchor="start" x="525" y="-196.3" font-family="Times,serif" font-size="14.00"> : </text>
<text text-anchor="start" x="537" y="-196.3" font-family="mono" font-size="14.00" fill="#c83500">double</text>
</g>
<!-- NumberSchema&#45;&gt;DataSchema -->
<g id="edge5" class="edge"><title>NumberSchema&#45;&gt;DataSchema</title>
<path fill="none" stroke="black" d="M547.648,-184.743C555.11,-172.182 563.85,-157.47 572.562,-142.804"/>
<polygon fill="white" stroke="black" points="575.58,-144.577 577.678,-134.192 569.562,-141.002 575.58,-144.577"/>
</g>
<!-- ObjectSchema -->
<g id="node5" class="node"><title>ObjectSchema</title>
<polygon fill="#8ccbf2" stroke="none" points="625,-220.5 625,-241.5 806,-241.5 806,-220.5 625,-220.5"/>
<polygon fill="none" stroke="#8ccbf2" points="625,-220.5 625,-241.5 806,-241.5 806,-220.5 625,-220.5"/>
<text text-anchor="start" x="665.5" y="-228.3" font-family="mono" font-weight="bold" font-size="14.00" fill="#c83500">ObjectSchema</text>
<polygon fill="#ddeeff" stroke="none" points="625,-199.5 625,-220.5 806,-220.5 806,-199.5 625,-199.5"/>
<polygon fill="none" stroke="#8ccbf2" points="625,-199.5 625,-220.5 806,-220.5 806,-199.5 625,-199.5"/>
<text text-anchor="start" x="628" y="-207.3" font-family="mono" font-size="14.00" fill="#c83500">required</text>
<text text-anchor="start" x="695" y="-207.3" font-family="Times,serif" font-size="14.00"> : array of </text>
<text text-anchor="start" x="753" y="-207.3" font-family="mono" font-size="14.00" fill="#c83500">string</text>
</g>
<!-- ObjectSchema&#45;&gt;DataSchema -->
<g id="edge1" class="edge"><title>ObjectSchema&#45;&gt;DataSchema</title>
<path fill="none" stroke="black" d="M647.732,-195.423C635.903,-188.127 625.117,-178.808 618,-167 613.774,-159.988 611.086,-152.158 609.509,-144.057"/>
<polygon fill="black" stroke="black" points="612.965,-143.495 608.11,-134.078 606.033,-144.467 612.965,-143.495"/>
<text text-anchor="start" x="618" y="-155.8" font-family="mono" font-size="14.00" fill="#c83500">properties</text>
<text text-anchor="middle" x="597.11" y="-137.878" font-family="Times,serif" font-size="14.00">0..1</text>
</g>
<!-- ObjectSchema&#45;&gt;DataSchema -->
<g id="edge8" class="edge"><title>ObjectSchema&#45;&gt;DataSchema</title>
<path fill="none" stroke="black" d="M713.377,-195.225C711.666,-181.829 708.163,-165.27 701,-152 699.231,-148.722 697.293,-145.488 695.219,-142.309"/>
<polygon fill="white" stroke="black" points="698.03,-140.221 689.434,-134.027 692.291,-144.23 698.03,-140.221"/>
</g>
<!-- ArraySchema -->
<g id="node6" class="node"><title>ArraySchema</title>
<polygon fill="#8ccbf2" stroke="none" points="840,-230.5 840,-251.5 1016,-251.5 1016,-230.5 840,-230.5"/>
<polygon fill="none" stroke="#8ccbf2" points="840,-230.5 840,-251.5 1016,-251.5 1016,-230.5 840,-230.5"/>
<text text-anchor="start" x="882.5" y="-238.3" font-family="mono" font-weight="bold" font-size="14.00" fill="#c83500">ArraySchema</text>
<polygon fill="#ddeeff" stroke="none" points="840,-209.5 840,-230.5 1016,-230.5 1016,-209.5 840,-209.5"/>
<polygon fill="none" stroke="#8ccbf2" points="840,-209.5 840,-230.5 1016,-230.5 1016,-209.5 840,-209.5"/>
<text text-anchor="start" x="843" y="-217.3" font-family="mono" font-size="14.00" fill="#c83500">minItems</text>
<text text-anchor="start" x="910" y="-217.3" font-family="Times,serif" font-size="14.00"> : </text>
<text text-anchor="start" x="922" y="-217.3" font-family="mono" font-size="14.00" fill="#c83500">unsignedInt</text>
<polygon fill="#ddeeff" stroke="none" points="840,-188.5 840,-209.5 1016,-209.5 1016,-188.5 840,-188.5"/>
<polygon fill="none" stroke="#8ccbf2" points="840,-188.5 840,-209.5 1016,-209.5 1016,-188.5 840,-188.5"/>
<text text-anchor="start" x="843" y="-196.3" font-family="mono" font-size="14.00" fill="#c83500">maxItems</text>
<text text-anchor="start" x="910" y="-196.3" font-family="Times,serif" font-size="14.00"> : </text>
<text text-anchor="start" x="922" y="-196.3" font-family="mono" font-size="14.00" fill="#c83500">unsignedInt</text>
</g>
<!-- ArraySchema&#45;&gt;DataSchema -->
<g id="edge2" class="edge"><title>ArraySchema&#45;&gt;DataSchema</title>
<path fill="none" stroke="black" d="M857.04,-184.933C828.691,-171.123 794.956,-154.689 761.866,-138.57"/>
<polygon fill="black" stroke="black" points="763.078,-135.267 752.555,-134.034 760.012,-141.56 763.078,-135.267"/>
<text text-anchor="start" x="819" y="-155.8" font-family="mono" font-size="14.00" fill="#c83500">items</text>
<text text-anchor="middle" x="741.555" y="-137.834" font-family="Times,serif" font-size="14.00">0..1</text>
</g>
<!-- ArraySchema&#45;&gt;DataSchema -->
<g id="edge7" class="edge"><title>ArraySchema&#45;&gt;DataSchema</title>
<path fill="none" stroke="black" d="M901.641,-184.886C891.278,-173.14 878.602,-160.781 865,-152 835.327,-132.845 800.821,-117.58 767.15,-105.607"/>
<polygon fill="white" stroke="black" points="768.275,-102.293 757.68,-102.317 765.978,-108.905 768.275,-102.293"/>
</g>
<!-- NullSchema -->
<g id="node7" class="node"><title>NullSchema</title>
<polygon fill="#8ccbf2" stroke="none" points="1051,-209.5 1051,-230.5 1140,-230.5 1140,-209.5 1051,-209.5"/>
<polygon fill="none" stroke="#8ccbf2" points="1051,-209.5 1051,-230.5 1140,-230.5 1140,-209.5 1051,-209.5"/>
<text text-anchor="start" x="1054" y="-217.3" font-family="mono" font-weight="bold" font-size="14.00" fill="#c83500">NullSchema</text>
</g>
<!-- NullSchema&#45;&gt;DataSchema -->
<g id="edge10" class="edge"><title>NullSchema&#45;&gt;DataSchema</title>
<path fill="none" stroke="black" d="M1067.6,-202.442C1057.06,-196.364 1044.73,-189.835 1033,-185 947.691,-149.836 848.334,-121.455 768.118,-101.455"/>
<polygon fill="white" stroke="black" points="768.481,-97.9393 757.933,-98.9349 766.799,-104.734 768.481,-97.9393"/>
</g>
<!-- DataSchema&#45;&gt;DataSchema -->
<g id="edge3" class="edge"><title>DataSchema&#45;&gt;DataSchema</title>
<path fill="none" stroke="black" d="M757.658,-73.5356C768.688,-72.0985 775.5,-69.9199 775.5,-67 775.5,-65.1294 772.704,-63.5631 767.795,-62.3011"/>
<polygon fill="black" stroke="black" points="768.122,-58.8034 757.658,-60.4644 766.874,-65.6912 768.122,-58.8034"/>
<text text-anchor="start" x="775.5" y="-63.3" font-family="mono" font-size="14.00" fill="#c83500">unit</text>
<text text-anchor="middle" x="768.658" y="-49.2644" font-family="Times,serif" font-size="14.00">0..1</text>
</g>
<!-- DataSchema&#45;&gt;DataSchema -->
<g id="edge4" class="edge"><title>DataSchema&#45;&gt;DataSchema</title>
<path fill="none" stroke="black" d="M757.733,-83.618C787.651,-81.8382 809.5,-76.2988 809.5,-67 809.5,-58.7909 792.472,-53.5117 767.896,-51.1626"/>
<polygon fill="black" stroke="black" points="767.972,-47.6581 757.733,-50.382 767.435,-54.6376 767.972,-47.6581"/>
<text text-anchor="start" x="809.5" y="-63.3" font-family="mono" font-size="14.00" fill="#c83500">oneOf</text>
<text text-anchor="middle" x="768.733" y="-39.182" font-family="Times,serif" font-size="14.00">0..*</text>
</g>
</g>
</svg>
