<?xml version="1.0" encoding="UTF-8" standalone="no"?>
<!DOCTYPE svg PUBLIC "-//W3C//DTD SVG 1.1//EN"
 "http://www.w3.org/Graphics/SVG/1.1/DTD/svg11.dtd">
<!-- Generated by graphviz version 2.40.1 (20161225.0304)
 -->
<!-- Title: %3 Pages: 1 -->
<svg width="1140pt" height="351pt"
 viewBox="0.00 0.00 1140.50 351.00" xmlns="http://www.w3.org/2000/svg" xmlns:xlink="http://www.w3.org/1999/xlink">
<g id="graph0" class="graph" transform="scale(1 1) rotate(0) translate(4 347)">
<title>%3</title>
<polygon fill="#ffffff" stroke="transparent" points="-4,4 -4,-347 1136.5,-347 1136.5,4 -4,4"/>
<!-- IntegerSchema -->
<g id="node1" class="node">
<title>IntegerSchema</title>
<polygon fill="#8ccbf2" stroke="transparent" points="8.5,-317.5 8.5,-338.5 143.5,-338.5 143.5,-317.5 8.5,-317.5"/>
<polygon fill="none" stroke="#8ccbf2" points="8.5,-317.5 8.5,-338.5 143.5,-338.5 143.5,-317.5 8.5,-317.5"/>
<text text-anchor="start" x="23" y="-325.3" font-family="mono" font-weight="bold" font-size="14.00" fill="#c83500">IntegerSchema</text>
<polygon fill="#ddeeff" stroke="transparent" points="8.5,-296.5 8.5,-317.5 143.5,-317.5 143.5,-296.5 8.5,-296.5"/>
<polygon fill="none" stroke="#8ccbf2" points="8.5,-296.5 8.5,-317.5 143.5,-317.5 143.5,-296.5 8.5,-296.5"/>
<text text-anchor="start" x="11.5" y="-304.3" font-family="mono" font-size="14.00" fill="#c83500">maximum</text>
<text text-anchor="start" x="79.5" y="-304.3" font-family="Times,serif" font-size="14.00" fill="#000000"> : </text>
<text text-anchor="start" x="91.5" y="-304.3" font-family="mono" font-size="14.00" fill="#c83500">integer</text>
<polygon fill="#ddeeff" stroke="transparent" points="8.5,-275.5 8.5,-296.5 143.5,-296.5 143.5,-275.5 8.5,-275.5"/>
<polygon fill="none" stroke="#8ccbf2" points="8.5,-275.5 8.5,-296.5 143.5,-296.5 143.5,-275.5 8.5,-275.5"/>
<text text-anchor="start" x="11.5" y="-283.3" font-family="mono" font-size="14.00" fill="#c83500">minimum</text>
<text text-anchor="start" x="78.5" y="-283.3" font-family="Times,serif" font-size="14.00" fill="#000000"> : </text>
<text text-anchor="start" x="90.5" y="-283.3" font-family="mono" font-size="14.00" fill="#c83500">integer</text>
</g>
<!-- DataSchema -->
<g id="node8" class="node">
<title>DataSchema</title>
<polygon fill="#8ccbf2" stroke="transparent" points="504.5,-196 504.5,-217 763.5,-217 763.5,-196 504.5,-196"/>
<polygon fill="none" stroke="#8ccbf2" points="504.5,-196 504.5,-217 763.5,-217 763.5,-196 504.5,-196"/>
<text text-anchor="start" x="590" y="-203.8" font-family="mono" font-weight="bold" font-size="14.00" fill="#c83500">DataSchema</text>
<polygon fill="#ddeeff" stroke="transparent" points="504.5,-175 504.5,-196 763.5,-196 763.5,-175 504.5,-175"/>
<polygon fill="none" stroke="#8ccbf2" points="504.5,-175 504.5,-196 763.5,-196 763.5,-175 504.5,-175"/>
<text text-anchor="start" x="507.5" y="-182.8" font-family="mono" font-size="14.00" fill="#c83500">writeOnly</text>
<text text-anchor="start" x="573.5" y="-182.8" font-family="Times,serif" font-size="14.00" fill="#000000"> : </text>
<text text-anchor="start" x="585.5" y="-182.8" font-family="mono" font-size="14.00" fill="#c83500">boolean</text>
<text text-anchor="start" x="641.5" y="-182.8" font-family="Times,serif" font-size="14.00" fill="#000000"> = false </text>
<text text-anchor="start" x="687.5" y="-182.8" font-family="Times,serif" font-style="italic" font-size="14.00" fill="#000000">(mandatory)</text>
<polygon fill="#ddeeff" stroke="transparent" points="504.5,-154 504.5,-175 763.5,-175 763.5,-154 504.5,-154"/>
<polygon fill="none" stroke="#8ccbf2" points="504.5,-154 504.5,-175 763.5,-175 763.5,-154 504.5,-154"/>
<text text-anchor="start" x="507.5" y="-161.8" font-family="mono" font-size="14.00" fill="#c83500">readOnly</text>
<text text-anchor="start" x="569.5" y="-161.8" font-family="Times,serif" font-size="14.00" fill="#000000"> : </text>
<text text-anchor="start" x="581.5" y="-161.8" font-family="mono" font-size="14.00" fill="#c83500">boolean</text>
<text text-anchor="start" x="637.5" y="-161.8" font-family="Times,serif" font-size="14.00" fill="#000000"> = false </text>
<text text-anchor="start" x="683.5" y="-161.8" font-family="Times,serif" font-style="italic" font-size="14.00" fill="#000000">(mandatory)</text>
<polygon fill="#ddeeff" stroke="transparent" points="504.5,-133 504.5,-154 763.5,-154 763.5,-133 504.5,-133"/>
<polygon fill="none" stroke="#8ccbf2" points="504.5,-133 504.5,-154 763.5,-154 763.5,-133 504.5,-133"/>
<text text-anchor="start" x="507.5" y="-140.8" font-family="mono" font-size="14.00" fill="#c83500">title</text>
<text text-anchor="start" x="534.5" y="-140.8" font-family="Times,serif" font-size="14.00" fill="#000000"> : </text>
<text text-anchor="start" x="546.5" y="-140.8" font-family="mono" font-size="14.00" fill="#c83500">string</text>
<polygon fill="#ddeeff" stroke="transparent" points="504.5,-112 504.5,-133 763.5,-133 763.5,-112 504.5,-112"/>
<polygon fill="none" stroke="#8ccbf2" points="504.5,-112 504.5,-133 763.5,-133 763.5,-112 504.5,-112"/>
<text text-anchor="start" x="507.5" y="-119.8" font-family="mono" font-size="14.00" fill="#c83500">description</text>
<text text-anchor="start" x="583.5" y="-119.8" font-family="Times,serif" font-size="14.00" fill="#000000"> : </text>
<text text-anchor="start" x="595.5" y="-119.8" font-family="mono" font-size="14.00" fill="#c83500">string</text>
<polygon fill="#ddeeff" stroke="transparent" points="504.5,-91 504.5,-112 763.5,-112 763.5,-91 504.5,-91"/>
<polygon fill="none" stroke="#8ccbf2" points="504.5,-91 504.5,-112 763.5,-112 763.5,-91 504.5,-91"/>
<text text-anchor="start" x="507.5" y="-98.8" font-family="mono" font-size="14.00" fill="#c83500">type</text>
<text text-anchor="start" x="538.5" y="-98.8" font-family="Times,serif" font-size="14.00" fill="#000000"> : </text>
<text text-anchor="start" x="550.5" y="-98.8" font-family="mono" font-size="14.00" fill="#c83500">string</text>
</g>
<!-- IntegerSchema&#45;&gt;DataSchema -->
<g id="edge10" class="edge">
<title>IntegerSchema&#45;&gt;DataSchema</title>
<path fill="none" stroke="#000000" d="M151.3027,-274.8398C154.0581,-273.852 156.7966,-272.9016 159.5,-272 267.0136,-236.142 391.4551,-205.564 485.8483,-184.5257"/>
<polygon fill="#ffffff" stroke="#000000" points="486.7502,-187.9108 495.7549,-182.3282 485.2342,-181.0769 486.7502,-187.9108"/>
</g>
<!-- StringSchema -->
<g id="node2" class="node">
<title>StringSchema</title>
<polygon fill="#8ccbf2" stroke="transparent" points="177.5,-296.5 177.5,-317.5 280.5,-317.5 280.5,-296.5 177.5,-296.5"/>
<polygon fill="none" stroke="#8ccbf2" points="177.5,-296.5 177.5,-317.5 280.5,-317.5 280.5,-296.5 177.5,-296.5"/>
<text text-anchor="start" x="180.5" y="-304.3" font-family="mono" font-weight="bold" font-size="14.00" fill="#c83500">StringSchema</text>
</g>
<!-- StringSchema&#45;&gt;DataSchema -->
<g id="edge13" class="edge">
<title>StringSchema&#45;&gt;DataSchema</title>
<path fill="none" stroke="#000000" d="M261.3976,-289.4067C272.6839,-283.5143 285.4971,-277.1663 297.5,-272 358.153,-245.8936 426.6805,-221.0316 485.9548,-200.9197"/>
<polygon fill="#ffffff" stroke="#000000" points="487.4114,-204.122 495.7652,-197.6056 485.171,-197.4902 487.4114,-204.122"/>
</g>
<!-- BooleanSchema -->
<g id="node3" class="node">
<title>BooleanSchema</title>
<polygon fill="#8ccbf2" stroke="transparent" points="314.5,-296.5 314.5,-317.5 432.5,-317.5 432.5,-296.5 314.5,-296.5"/>
<polygon fill="none" stroke="#8ccbf2" points="314.5,-296.5 314.5,-317.5 432.5,-317.5 432.5,-296.5 314.5,-296.5"/>
<text text-anchor="start" x="317.5" y="-304.3" font-family="mono" font-weight="bold" font-size="14.00" fill="#c83500">BooleanSchema</text>
</g>
<!-- BooleanSchema&#45;&gt;DataSchema -->
<g id="edge11" class="edge">
<title>BooleanSchema&#45;&gt;DataSchema</title>
<path fill="none" stroke="#000000" d="M404.0899,-289.4402C430.7966,-273.673 471.3876,-249.7087 511.04,-226.2985"/>
<polygon fill="#ffffff" stroke="#000000" points="513.1824,-229.0982 520.0142,-221.0003 509.6236,-223.0703 513.1824,-229.0982"/>
</g>
<!-- NumberSchema -->
<g id="node4" class="node">
<title>NumberSchema</title>
<polygon fill="#8ccbf2" stroke="transparent" points="467.5,-317.5 467.5,-338.5 602.5,-338.5 602.5,-317.5 467.5,-317.5"/>
<polygon fill="none" stroke="#8ccbf2" points="467.5,-317.5 467.5,-338.5 602.5,-338.5 602.5,-317.5 467.5,-317.5"/>
<text text-anchor="start" x="478.5" y="-325.3" font-family="mono" font-weight="bold" font-size="14.00" fill="#c83500">NumberSchema</text>
<polygon fill="#ddeeff" stroke="transparent" points="467.5,-296.5 467.5,-317.5 602.5,-317.5 602.5,-296.5 467.5,-296.5"/>
<polygon fill="none" stroke="#8ccbf2" points="467.5,-296.5 467.5,-317.5 602.5,-317.5 602.5,-296.5 467.5,-296.5"/>
<text text-anchor="start" x="470.5" y="-304.3" font-family="mono" font-size="14.00" fill="#c83500">maximum</text>
<text text-anchor="start" x="538.5" y="-304.3" font-family="Times,serif" font-size="14.00" fill="#000000"> : </text>
<text text-anchor="start" x="550.5" y="-304.3" font-family="mono" font-size="14.00" fill="#c83500">double</text>
<polygon fill="#ddeeff" stroke="transparent" points="467.5,-275.5 467.5,-296.5 602.5,-296.5 602.5,-275.5 467.5,-275.5"/>
<polygon fill="none" stroke="#8ccbf2" points="467.5,-275.5 467.5,-296.5 602.5,-296.5 602.5,-275.5 467.5,-275.5"/>
<text text-anchor="start" x="470.5" y="-283.3" font-family="mono" font-size="14.00" fill="#c83500">minimum</text>
<text text-anchor="start" x="537.5" y="-283.3" font-family="Times,serif" font-size="14.00" fill="#000000"> : </text>
<text text-anchor="start" x="549.5" y="-283.3" font-family="mono" font-size="14.00" fill="#c83500">double</text>
</g>
<!-- NumberSchema&#45;&gt;DataSchema -->
<g id="edge7" class="edge">
<title>NumberSchema&#45;&gt;DataSchema</title>
<path fill="none" stroke="#000000" d="M557.4614,-271.8982C565.6265,-259.2382 575.1594,-244.4575 584.6598,-229.727"/>
<polygon fill="#ffffff" stroke="#000000" points="587.7604,-231.3769 590.2392,-221.0761 581.8778,-227.5829 587.7604,-231.3769"/>
</g>
<!-- ObjectSchema -->
<g id="node5" class="node">
<title>ObjectSchema</title>
<polygon fill="#8ccbf2" stroke="transparent" points="636.5,-307.5 636.5,-328.5 800.5,-328.5 800.5,-307.5 636.5,-307.5"/>
<polygon fill="none" stroke="#8ccbf2" points="636.5,-307.5 636.5,-328.5 800.5,-328.5 800.5,-307.5 636.5,-307.5"/>
<text text-anchor="start" x="668" y="-315.3" font-family="mono" font-weight="bold" font-size="14.00" fill="#c83500">ObjectSchema</text>
<polygon fill="#ddeeff" stroke="transparent" points="636.5,-286.5 636.5,-307.5 800.5,-307.5 800.5,-286.5 636.5,-286.5"/>
<polygon fill="none" stroke="#8ccbf2" points="636.5,-286.5 636.5,-307.5 800.5,-307.5 800.5,-286.5 636.5,-286.5"/>
<text text-anchor="start" x="639.5" y="-294.3" font-family="mono" font-size="14.00" fill="#c83500">required</text>
<text text-anchor="start" x="697.5" y="-294.3" font-family="Times,serif" font-size="14.00" fill="#000000"> : array of </text>
<text text-anchor="start" x="757.5" y="-294.3" font-family="mono" font-size="14.00" fill="#c83500">string</text>
</g>
<!-- ObjectSchema&#45;&gt;DataSchema -->
<g id="edge1" class="edge">
<title>ObjectSchema&#45;&gt;DataSchema</title>
<path fill="none" stroke="#000000" d="M661.7747,-282.3851C650.8732,-274.8708 640.8786,-265.4884 634.5,-254 630.6186,-247.0092 628.1014,-239.2973 626.5831,-231.35"/>
<polygon fill="#000000" stroke="#000000" points="630.0145,-230.6147 625.1667,-221.194 623.0816,-231.5816 630.0145,-230.6147"/>
<text text-anchor="start" x="634.5" y="-242.8" font-family="mono" font-size="14.00" fill="#c83500">properties</text>
<text text-anchor="middle" x="613.6667" y="-224.994" font-family="Times,serif" font-size="14.00" fill="#000000">0..1</text>
</g>
<!-- ObjectSchema&#45;&gt;DataSchema -->
<g id="edge9" class="edge">
<title>ObjectSchema&#45;&gt;DataSchema</title>
<path fill="none" stroke="#000000" d="M716.3802,-282.4615C714.5186,-269.0563 711.0299,-252.5611 704.5,-239 702.9946,-235.8736 701.3486,-232.7655 699.5893,-229.6887"/>
<polygon fill="#ffffff" stroke="#000000" points="702.5514,-227.8237 694.3539,-221.1116 696.5765,-231.4707 702.5514,-227.8237"/>
</g>
<!-- ArraySchema -->
<g id="node6" class="node">
<title>ArraySchema</title>
<polygon fill="#8ccbf2" stroke="transparent" points="834.5,-317.5 834.5,-338.5 1000.5,-338.5 1000.5,-317.5 834.5,-317.5"/>
<polygon fill="none" stroke="#8ccbf2" points="834.5,-317.5 834.5,-338.5 1000.5,-338.5 1000.5,-317.5 834.5,-317.5"/>
<text text-anchor="start" x="870.5" y="-325.3" font-family="mono" font-weight="bold" font-size="14.00" fill="#c83500">ArraySchema</text>
<polygon fill="#ddeeff" stroke="transparent" points="834.5,-296.5 834.5,-317.5 1000.5,-317.5 1000.5,-296.5 834.5,-296.5"/>
<polygon fill="none" stroke="#8ccbf2" points="834.5,-296.5 834.5,-317.5 1000.5,-317.5 1000.5,-296.5 834.5,-296.5"/>
<text text-anchor="start" x="837.5" y="-304.3" font-family="mono" font-size="14.00" fill="#c83500">minItems</text>
<text text-anchor="start" x="901.5" y="-304.3" font-family="Times,serif" font-size="14.00" fill="#000000"> : </text>
<text text-anchor="start" x="913.5" y="-304.3" font-family="mono" font-size="14.00" fill="#c83500">unsignedInt</text>
<polygon fill="#ddeeff" stroke="transparent" points="834.5,-275.5 834.5,-296.5 1000.5,-296.5 1000.5,-275.5 834.5,-275.5"/>
<polygon fill="none" stroke="#8ccbf2" points="834.5,-275.5 834.5,-296.5 1000.5,-296.5 1000.5,-275.5 834.5,-275.5"/>
<text text-anchor="start" x="837.5" y="-283.3" font-family="mono" font-size="14.00" fill="#c83500">maxItems</text>
<text text-anchor="start" x="903.5" y="-283.3" font-family="Times,serif" font-size="14.00" fill="#000000"> : </text>
<text text-anchor="start" x="915.5" y="-283.3" font-family="mono" font-size="14.00" fill="#c83500">unsignedInt</text>
</g>
<!-- ArraySchema&#45;&gt;DataSchema -->
<g id="edge2" class="edge">
<title>ArraySchema&#45;&gt;DataSchema</title>
<path fill="none" stroke="#000000" d="M844.3046,-271.9425C832.6072,-266.0589 820.6797,-259.939 809.5,-254 792.8497,-245.1549 775.4487,-235.6254 758.3427,-226.0866"/>
<polygon fill="#000000" stroke="#000000" points="759.8659,-222.9284 749.4298,-221.1012 756.4487,-229.0376 759.8659,-222.9284"/>
<text text-anchor="start" x="809.5" y="-242.8" font-family="mono" font-size="14.00" fill="#c83500">items</text>
<text text-anchor="middle" x="737.9298" y="-224.9012" font-family="Times,serif" font-size="14.00" fill="#000000">0..1</text>
</g>
<!-- ArraySchema&#45;&gt;DataSchema -->
<g id="edge8" class="edge">
<title>ArraySchema&#45;&gt;DataSchema</title>
<path fill="none" stroke="#000000" d="M886.387,-271.8065C875.0046,-260.2473 861.4718,-248.0807 847.5,-239 826.7864,-225.5376 803.6031,-213.6216 780.3494,-203.2899"/>
<polygon fill="#ffffff" stroke="#000000" points="781.6569,-200.0419 771.091,-199.2594 778.8627,-206.4601 781.6569,-200.0419"/>
</g>
<!-- NullSchema -->
<g id="node7" class="node">
<title>NullSchema</title>
<polygon fill="#8ccbf2" stroke="transparent" points="1034.5,-296.5 1034.5,-317.5 1124.5,-317.5 1124.5,-296.5 1034.5,-296.5"/>
<polygon fill="none" stroke="#8ccbf2" points="1034.5,-296.5 1034.5,-317.5 1124.5,-317.5 1124.5,-296.5 1034.5,-296.5"/>
<text text-anchor="start" x="1037.5" y="-304.3" font-family="mono" font-weight="bold" font-size="14.00" fill="#c83500">NullSchema</text>
</g>
<!-- NullSchema&#45;&gt;DataSchema -->
<g id="edge12" class="edge">
<title>NullSchema&#45;&gt;DataSchema</title>
<path fill="none" stroke="#000000" d="M1050.8573,-289.3321C1040.591,-283.2999 1028.7663,-276.8843 1017.5,-272 941.5634,-239.0792 853.5117,-211.323 780.8952,-191.0177"/>
<polygon fill="#ffffff" stroke="#000000" points="781.782,-187.6315 771.2101,-188.3279 779.9088,-194.3763 781.782,-187.6315"/>
</g>
<!-- DataSchema&#45;&gt;DataSchema -->
<g id="edge6" class="edge">
<title>DataSchema&#45;&gt;DataSchema</title>
<path fill="none" stroke="#000000" d="M771.2453,-167.1373C782.2136,-164.2639 789,-159.8848 789,-154 789,-150.1381 786.0773,-146.9247 780.9681,-144.3597"/>
<polygon fill="#000000" stroke="#000000" points="781.8397,-140.9537 771.2453,-140.8627 779.4706,-147.5406 781.8397,-140.9537"/>
<text text-anchor="start" x="789" y="-150.3" font-family="mono" font-size="14.00" fill="#c83500">oneOf</text>
<text text-anchor="middle" x="782.7453" y="-129.6627" font-family="Times,serif" font-size="14.00" fill="#000000">0..*</text>
</g>
<!-- string -->
<g id="node9" class="node">
<title>string</title>
<polygon fill="#f2f2f2" stroke="transparent" points="554.5,-7 554.5,-28 600.5,-28 600.5,-7 554.5,-7"/>
<polygon fill="none" stroke="#8c8c8c" points="554.5,-7 554.5,-28 600.5,-28 600.5,-7 554.5,-7"/>
<text text-anchor="start" x="557.5" y="-14.8" font-family="mono" font-weight="bold" font-size="14.00" fill="#000000">string</text>
</g>
<!-- DataSchema&#45;&gt;string -->
<g id="edge3" class="edge">
<title>DataSchema&#45;&gt;string</title>
<path fill="none" stroke="#000000" d="M590.7646,-86.9957C587.9992,-81.0485 585.5192,-75.0042 583.5,-69 581.1049,-61.8781 579.6365,-53.9178 578.7443,-46.443"/>
<polygon fill="#000000" stroke="#000000" points="582.2169,-45.9813 577.83,-36.3374 575.2454,-46.6121 582.2169,-45.9813"/>
<text text-anchor="start" x="583.5" y="-57.8" font-family="mono" font-size="14.00" fill="#c83500">unit</text>
<text text-anchor="middle" x="566.33" y="-40.1374" font-family="Times,serif" font-size="14.00" fill="#000000">0..1</text>
</g>
<!-- MultiLanguage -->
<g id="node10" class="node">
<title>MultiLanguage</title>
<polygon fill="#f2f2f2" stroke="transparent" points="635.5,-7 635.5,-28 746.5,-28 746.5,-7 635.5,-7"/>
<polygon fill="none" stroke="#8c8c8c" points="635.5,-7 635.5,-28 746.5,-28 746.5,-7 635.5,-7"/>
<text text-anchor="start" x="638.5" y="-14.8" font-family="mono" font-weight="bold" font-size="14.00" fill="#000000">MultiLanguage</text>
</g>
<!-- DataSchema&#45;&gt;MultiLanguage -->
<g id="edge4" class="edge">
<title>DataSchema&#45;&gt;MultiLanguage</title>
<path fill="none" stroke="#000000" d="M625.2016,-86.8253C626.2502,-75.3608 629.0008,-63.9541 634.5,-54 636.7618,-49.9059 639.7079,-46.2066 643.0655,-42.8795"/>
<polygon fill="#000000" stroke="#000000" points="645.6019,-45.3179 650.9671,-36.182 641.0757,-39.978 645.6019,-45.3179"/>
<text text-anchor="start" x="634.5" y="-57.8" font-family="mono" font-size="14.00" fill="#c83500">titles</text>
<text text-anchor="middle" x="639.4671" y="-39.982" font-family="Times,serif" font-size="14.00" fill="#000000">0..1</text>
</g>
<!-- DataSchema&#45;&gt;MultiLanguage -->
<g id="edge5" class="edge">
<title>DataSchema&#45;&gt;MultiLanguage</title>
<path fill="none" stroke="#000000" d="M661.666,-86.7969C667.8015,-72.1579 673.9576,-57.4697 678.9967,-45.4465"/>
<polygon fill="#000000" stroke="#000000" points="682.3044,-46.6091 682.9419,-36.0334 675.8485,-43.9032 682.3044,-46.6091"/>
<text text-anchor="start" x="675.5" y="-57.8" font-family="mono" font-size="14.00" fill="#c83500">descriptions</text>
<text text-anchor="middle" x="671.4419" y="-39.8334" font-family="Times,serif" font-size="14.00" fill="#000000">0..1</text>
</g>
</g>
</svg>
