<?xml version="1.0" encoding="UTF-8" standalone="no"?>
<!DOCTYPE svg PUBLIC "-//W3C//DTD SVG 1.1//EN"
 "http://www.w3.org/Graphics/SVG/1.1/DTD/svg11.dtd">
<!-- Generated by graphviz version 2.40.1 (20161225.0304)
 -->
<!-- Title: %3 Pages: 1 -->
<svg width="1081pt" height="306pt"
 viewBox="0.00 0.00 1081.00 306.00" xmlns="http://www.w3.org/2000/svg" xmlns:xlink="http://www.w3.org/1999/xlink">
<g id="graph0" class="graph" transform="scale(1 1) rotate(0) translate(4 302)">
<title>%3</title>
<polygon fill="#ffffff" stroke="transparent" points="-4,4 -4,-302 1077,-302 1077,4 -4,4"/>
<!-- ArraySchema -->
<g id="node1" class="node">
<title>ArraySchema</title>
<polygon fill="#8ccbf2" stroke="transparent" points="8.5,-272.5 8.5,-293.5 159.5,-293.5 159.5,-272.5 8.5,-272.5"/>
<polygon fill="none" stroke="#8ccbf2" points="8.5,-272.5 8.5,-293.5 159.5,-293.5 159.5,-272.5 8.5,-272.5"/>
<text text-anchor="start" x="38.5" y="-280.3" font-family="mono" font-weight="bold" font-size="14.00" fill="#c83500">ArraySchema</text>
<polygon fill="#ddeeff" stroke="transparent" points="8.5,-251.5 8.5,-272.5 159.5,-272.5 159.5,-251.5 8.5,-251.5"/>
<polygon fill="none" stroke="#8ccbf2" points="8.5,-251.5 8.5,-272.5 159.5,-272.5 159.5,-251.5 8.5,-251.5"/>
<text text-anchor="start" x="11.5" y="-259.3" font-family="mono" font-size="14.00" fill="#c83500">minItems</text>
<text text-anchor="start" x="68.5" y="-259.3" font-family="Times,serif" font-size="14.00" fill="#000000"> : </text>
<text text-anchor="start" x="79.5" y="-259.3" font-family="mono" font-size="14.00" fill="#c83500">unsignedInt</text>
<polygon fill="#ddeeff" stroke="transparent" points="8.5,-230.5 8.5,-251.5 159.5,-251.5 159.5,-230.5 8.5,-230.5"/>
<polygon fill="none" stroke="#8ccbf2" points="8.5,-230.5 8.5,-251.5 159.5,-251.5 159.5,-230.5 8.5,-230.5"/>
<text text-anchor="start" x="11.5" y="-238.3" font-family="mono" font-size="14.00" fill="#c83500">maxItems</text>
<text text-anchor="start" x="72.5" y="-238.3" font-family="Times,serif" font-size="14.00" fill="#000000"> : </text>
<text text-anchor="start" x="83.5" y="-238.3" font-family="mono" font-size="14.00" fill="#c83500">unsignedInt</text>
</g>
<!-- DataSchema -->
<g id="node3" class="node">
<title>DataSchema</title>
<polygon fill="#8ccbf2" stroke="transparent" points="375.5,-151 375.5,-172 706.5,-172 706.5,-151 375.5,-151"/>
<polygon fill="none" stroke="#8ccbf2" points="375.5,-151 375.5,-172 706.5,-172 706.5,-151 375.5,-151"/>
<text text-anchor="start" x="498.5" y="-158.8" font-family="mono" font-weight="bold" font-size="14.00" fill="#c83500">DataSchema</text>
<polygon fill="#ddeeff" stroke="transparent" points="375.5,-130 375.5,-151 706.5,-151 706.5,-130 375.5,-130"/>
<polygon fill="none" stroke="#8ccbf2" points="375.5,-130 375.5,-151 706.5,-151 706.5,-130 375.5,-130"/>
<text text-anchor="start" x="378.5" y="-137.8" font-family="mono" font-size="14.00" fill="#c83500">@type</text>
<text text-anchor="start" x="419.5" y="-137.8" font-family="Times,serif" font-size="14.00" fill="#000000"> : </text>
<text text-anchor="start" x="430.5" y="-137.8" font-family="Times,serif" font-style="italic" font-size="14.00" fill="#000000">(Array of) </text>
<text text-anchor="start" x="490.5" y="-137.8" font-family="mono" font-size="14.00" fill="#c83500">string</text>
<polygon fill="#ddeeff" stroke="transparent" points="375.5,-109 375.5,-130 706.5,-130 706.5,-109 375.5,-109"/>
<polygon fill="none" stroke="#8ccbf2" points="375.5,-109 375.5,-130 706.5,-130 706.5,-109 375.5,-109"/>
<text text-anchor="start" x="378.5" y="-116.8" font-family="mono" font-size="14.00" fill="#c83500">title</text>
<text text-anchor="start" x="400.5" y="-116.8" font-family="Times,serif" font-size="14.00" fill="#000000"> : Map of </text>
<text text-anchor="start" x="456.5" y="-116.8" font-family="mono" font-size="14.00" fill="#c83500">string</text>
<text text-anchor="start" x="491.5" y="-116.8" font-family="mono" font-size="14.00" fill="#c83500">titles</text>
<text text-anchor="start" x="520.5" y="-116.8" font-family="Times,serif" font-size="14.00" fill="#000000"> : Map of </text>
<text text-anchor="start" x="576.5" y="-116.8" font-family="mono" font-size="14.00" fill="#c83500">string</text>
<polygon fill="#ddeeff" stroke="transparent" points="375.5,-88 375.5,-109 706.5,-109 706.5,-88 375.5,-88"/>
<polygon fill="none" stroke="#8ccbf2" points="375.5,-88 375.5,-109 706.5,-109 706.5,-88 375.5,-88"/>
<text text-anchor="start" x="378.5" y="-95.8" font-family="mono" font-size="14.00" fill="#c83500">description</text>
<text text-anchor="start" x="446.5" y="-95.8" font-family="Times,serif" font-size="14.00" fill="#000000"> : Map of </text>
<text text-anchor="start" x="502.5" y="-95.8" font-family="mono" font-size="14.00" fill="#c83500">string</text>
<text text-anchor="start" x="537.5" y="-95.8" font-family="mono" font-size="14.00" fill="#c83500">descriptions</text>
<text text-anchor="start" x="612.5" y="-95.8" font-family="Times,serif" font-size="14.00" fill="#000000"> : Map of </text>
<text text-anchor="start" x="668.5" y="-95.8" font-family="mono" font-size="14.00" fill="#c83500">string</text>
<polygon fill="#ddeeff" stroke="transparent" points="375.5,-67 375.5,-88 706.5,-88 706.5,-67 375.5,-67"/>
<polygon fill="none" stroke="#8ccbf2" points="375.5,-67 375.5,-88 706.5,-88 706.5,-67 375.5,-67"/>
<text text-anchor="start" x="378.5" y="-74.8" font-family="mono" font-size="14.00" fill="#c83500">unit</text>
<text text-anchor="start" x="401.5" y="-74.8" font-family="Times,serif" font-size="14.00" fill="#000000"> : (Array of) </text>
<text text-anchor="start" x="473.5" y="-74.8" font-family="mono" font-size="14.00" fill="#c83500">string</text>
<polygon fill="#ddeeff" stroke="transparent" points="375.5,-46 375.5,-67 706.5,-67 706.5,-46 375.5,-46"/>
<polygon fill="none" stroke="#8ccbf2" points="375.5,-46 375.5,-67 706.5,-67 706.5,-46 375.5,-46"/>
<text text-anchor="start" x="378.5" y="-53.8" font-family="mono" font-size="14.00" fill="#c83500">readOnly</text>
<text text-anchor="start" x="435.5" y="-53.8" font-family="Times,serif" font-size="14.00" fill="#000000"> : </text>
<text text-anchor="start" x="446.5" y="-53.8" font-family="mono" font-size="14.00" fill="#c83500">boolean</text>
<polygon fill="#ddeeff" stroke="transparent" points="375.5,-25 375.5,-46 706.5,-46 706.5,-25 375.5,-25"/>
<polygon fill="none" stroke="#8ccbf2" points="375.5,-25 375.5,-46 706.5,-46 706.5,-25 375.5,-25"/>
<text text-anchor="start" x="378.5" y="-32.8" font-family="mono" font-size="14.00" fill="#c83500">writeOnly</text>
<text text-anchor="start" x="437.5" y="-32.8" font-family="Times,serif" font-size="14.00" fill="#000000"> : </text>
<text text-anchor="start" x="448.5" y="-32.8" font-family="mono" font-size="14.00" fill="#c83500">boolean</text>
<polygon fill="#ddeeff" stroke="transparent" points="375.5,-4 375.5,-25 706.5,-25 706.5,-4 375.5,-4"/>
<polygon fill="none" stroke="#8ccbf2" points="375.5,-4 375.5,-25 706.5,-25 706.5,-4 375.5,-4"/>
<text text-anchor="start" x="378.5" y="-11.8" font-family="mono" font-size="14.00" fill="#c83500">format</text>
<text text-anchor="start" x="418.5" y="-11.8" font-family="Times,serif" font-size="14.00" fill="#000000"> : </text>
<text text-anchor="start" x="429.5" y="-11.8" font-family="mono" font-size="14.00" fill="#c83500">string</text>
</g>
<!-- ArraySchema&#45;&gt;DataSchema -->
<g id="edge2" class="edge">
<title>ArraySchema&#45;&gt;DataSchema</title>
<path fill="none" stroke="#000000" d="M113.534,-226.9898C125.2457,-215.0301 139.468,-202.5617 154.5,-194 216.2289,-158.8412 290.2065,-134.8595 356.8083,-118.7345"/>
<polygon fill="#000000" stroke="#000000" points="357.6594,-122.1298 366.579,-116.412 356.0406,-115.3195 357.6594,-122.1298"/>
<text text-anchor="start" x="154.5" y="-197.8" font-family="mono" font-size="14.00" fill="#c83500">items</text>
<text text-anchor="middle" x="355.579" y="-120.212" font-family="Times,serif" font-size="14.00" fill="#000000">0..*</text>
</g>
<!-- ArraySchema&#45;&gt;DataSchema -->
<g id="edge4" class="edge">
<title>ArraySchema&#45;&gt;DataSchema</title>
<path fill="none" stroke="#000000" d="M167.2309,-230.1729C170.0201,-229.1017 172.7824,-228.0418 175.5,-227 234.5763,-204.3535 299.0763,-179.7501 357.1986,-157.6247"/>
<polygon fill="#ffffff" stroke="#000000" points="358.7434,-160.7817 366.8443,-153.9533 356.2533,-154.2396 358.7434,-160.7817"/>
</g>
<!-- BooleanSchema -->
<g id="node2" class="node">
<title>BooleanSchema</title>
<polygon fill="#8ccbf2" stroke="transparent" points="193.5,-251.5 193.5,-272.5 308.5,-272.5 308.5,-251.5 193.5,-251.5"/>
<polygon fill="none" stroke="#8ccbf2" points="193.5,-251.5 193.5,-272.5 308.5,-272.5 308.5,-251.5 193.5,-251.5"/>
<text text-anchor="start" x="196.5" y="-259.3" font-family="mono" font-weight="bold" font-size="14.00" fill="#c83500">BooleanSchema</text>
</g>
<!-- BooleanSchema&#45;&gt;DataSchema -->
<g id="edge5" class="edge">
<title>BooleanSchema&#45;&gt;DataSchema</title>
<path fill="none" stroke="#000000" d="M280.4428,-244.4827C306.1129,-229.0364 345.2104,-205.5105 385.3502,-181.3574"/>
<polygon fill="#ffffff" stroke="#000000" points="387.1631,-184.3514 393.9269,-176.1966 383.554,-178.3535 387.1631,-184.3514"/>
</g>
<!-- DataSchema&#45;&gt;DataSchema -->
<g id="edge1" class="edge">
<title>DataSchema&#45;&gt;DataSchema</title>
<path fill="none" stroke="#000000" d="M714.0009,-102.8976C725.2189,-99.419 732,-94.4531 732,-88 732,-83.6643 728.9389,-80 723.5277,-77.007"/>
<polygon fill="#000000" stroke="#000000" points="724.5812,-73.6563 714.0009,-73.1024 721.9265,-80.1334 724.5812,-73.6563"/>
<text text-anchor="start" x="732" y="-84.3" font-family="mono" font-size="14.00" fill="#c83500">oneOf</text>
<text text-anchor="middle" x="725.0009" y="-61.9024" font-family="Times,serif" font-size="14.00" fill="#000000">0..*</text>
</g>
<!-- IntegerSchema -->
<g id="node4" class="node">
<title>IntegerSchema</title>
<polygon fill="#8ccbf2" stroke="transparent" points="342.5,-272.5 342.5,-293.5 463.5,-293.5 463.5,-272.5 342.5,-272.5"/>
<polygon fill="none" stroke="#8ccbf2" points="342.5,-272.5 342.5,-293.5 463.5,-293.5 463.5,-272.5 342.5,-272.5"/>
<text text-anchor="start" x="352.5" y="-280.3" font-family="mono" font-weight="bold" font-size="14.00" fill="#c83500">IntegerSchema</text>
<polygon fill="#ddeeff" stroke="transparent" points="342.5,-251.5 342.5,-272.5 463.5,-272.5 463.5,-251.5 342.5,-251.5"/>
<polygon fill="none" stroke="#8ccbf2" points="342.5,-251.5 342.5,-272.5 463.5,-272.5 463.5,-251.5 342.5,-251.5"/>
<text text-anchor="start" x="345.5" y="-259.3" font-family="mono" font-size="14.00" fill="#c83500">minimum</text>
<text text-anchor="start" x="402.5" y="-259.3" font-family="Times,serif" font-size="14.00" fill="#000000"> : </text>
<text text-anchor="start" x="413.5" y="-259.3" font-family="mono" font-size="14.00" fill="#c83500">integer</text>
<polygon fill="#ddeeff" stroke="transparent" points="342.5,-230.5 342.5,-251.5 463.5,-251.5 463.5,-230.5 342.5,-230.5"/>
<polygon fill="none" stroke="#8ccbf2" points="342.5,-230.5 342.5,-251.5 463.5,-251.5 463.5,-230.5 342.5,-230.5"/>
<text text-anchor="start" x="345.5" y="-238.3" font-family="mono" font-size="14.00" fill="#c83500">maximum</text>
<text text-anchor="start" x="406.5" y="-238.3" font-family="Times,serif" font-size="14.00" fill="#000000"> : </text>
<text text-anchor="start" x="417.5" y="-238.3" font-family="mono" font-size="14.00" fill="#c83500">integer</text>
</g>
<!-- IntegerSchema&#45;&gt;DataSchema -->
<g id="edge6" class="edge">
<title>IntegerSchema&#45;&gt;DataSchema</title>
<path fill="none" stroke="#000000" d="M430.7594,-226.7662C440.6975,-214.1995 452.3925,-199.4113 464.3772,-184.2568"/>
<polygon fill="#ffffff" stroke="#000000" points="467.2052,-186.3231 470.663,-176.3084 461.7147,-181.981 467.2052,-186.3231"/>
</g>
<!-- NullSchema -->
<g id="node5" class="node">
<title>NullSchema</title>
<polygon fill="#8ccbf2" stroke="transparent" points="497.5,-251.5 497.5,-272.5 584.5,-272.5 584.5,-251.5 497.5,-251.5"/>
<polygon fill="none" stroke="#8ccbf2" points="497.5,-251.5 497.5,-272.5 584.5,-272.5 584.5,-251.5 497.5,-251.5"/>
<text text-anchor="start" x="500.5" y="-259.3" font-family="mono" font-weight="bold" font-size="14.00" fill="#c83500">NullSchema</text>
</g>
<!-- NullSchema&#45;&gt;DataSchema -->
<g id="edge7" class="edge">
<title>NullSchema&#45;&gt;DataSchema</title>
<path fill="none" stroke="#000000" d="M540.5,-244.4827C540.5,-230.0704 540.5,-208.6242 540.5,-186.1976"/>
<polygon fill="#ffffff" stroke="#000000" points="544.0001,-186.1965 540.5,-176.1966 537.0001,-186.1966 544.0001,-186.1965"/>
</g>
<!-- NumberSchema -->
<g id="node6" class="node">
<title>NumberSchema</title>
<polygon fill="#8ccbf2" stroke="transparent" points="618.5,-272.5 618.5,-293.5 739.5,-293.5 739.5,-272.5 618.5,-272.5"/>
<polygon fill="none" stroke="#8ccbf2" points="618.5,-272.5 618.5,-293.5 739.5,-293.5 739.5,-272.5 618.5,-272.5"/>
<text text-anchor="start" x="625.5" y="-280.3" font-family="mono" font-weight="bold" font-size="14.00" fill="#c83500">NumberSchema</text>
<polygon fill="#ddeeff" stroke="transparent" points="618.5,-251.5 618.5,-272.5 739.5,-272.5 739.5,-251.5 618.5,-251.5"/>
<polygon fill="none" stroke="#8ccbf2" points="618.5,-251.5 618.5,-272.5 739.5,-272.5 739.5,-251.5 618.5,-251.5"/>
<text text-anchor="start" x="621.5" y="-259.3" font-family="mono" font-size="14.00" fill="#c83500">minimum</text>
<text text-anchor="start" x="678.5" y="-259.3" font-family="Times,serif" font-size="14.00" fill="#000000"> : </text>
<text text-anchor="start" x="689.5" y="-259.3" font-family="mono" font-size="14.00" fill="#c83500">double</text>
<polygon fill="#ddeeff" stroke="transparent" points="618.5,-230.5 618.5,-251.5 739.5,-251.5 739.5,-230.5 618.5,-230.5"/>
<polygon fill="none" stroke="#8ccbf2" points="618.5,-230.5 618.5,-251.5 739.5,-251.5 739.5,-230.5 618.5,-230.5"/>
<text text-anchor="start" x="621.5" y="-238.3" font-family="mono" font-size="14.00" fill="#c83500">maximum</text>
<text text-anchor="start" x="682.5" y="-238.3" font-family="Times,serif" font-size="14.00" fill="#000000"> : </text>
<text text-anchor="start" x="693.5" y="-238.3" font-family="mono" font-size="14.00" fill="#c83500">double</text>
</g>
<!-- NumberSchema&#45;&gt;DataSchema -->
<g id="edge8" class="edge">
<title>NumberSchema&#45;&gt;DataSchema</title>
<path fill="none" stroke="#000000" d="M650.2406,-226.7662C640.3025,-214.1995 628.6075,-199.4113 616.6228,-184.2568"/>
<polygon fill="#ffffff" stroke="#000000" points="619.2853,-181.981 610.337,-176.3084 613.7948,-186.3231 619.2853,-181.981"/>
</g>
<!-- ObjectSchema -->
<g id="node7" class="node">
<title>ObjectSchema</title>
<polygon fill="#8ccbf2" stroke="transparent" points="773.5,-262.5 773.5,-283.5 929.5,-283.5 929.5,-262.5 773.5,-262.5"/>
<polygon fill="none" stroke="#8ccbf2" points="773.5,-262.5 773.5,-283.5 929.5,-283.5 929.5,-262.5 773.5,-262.5"/>
<text text-anchor="start" x="802.5" y="-270.3" font-family="mono" font-weight="bold" font-size="14.00" fill="#c83500">ObjectSchema</text>
<polygon fill="#ddeeff" stroke="transparent" points="773.5,-241.5 773.5,-262.5 929.5,-262.5 929.5,-241.5 773.5,-241.5"/>
<polygon fill="none" stroke="#8ccbf2" points="773.5,-241.5 773.5,-262.5 929.5,-262.5 929.5,-241.5 773.5,-241.5"/>
<text text-anchor="start" x="776.5" y="-249.3" font-family="mono" font-size="14.00" fill="#c83500">required</text>
<text text-anchor="start" x="828.5" y="-249.3" font-family="Times,serif" font-size="14.00" fill="#000000"> : Array of </text>
<text text-anchor="start" x="891.5" y="-249.3" font-family="mono" font-size="14.00" fill="#c83500">string</text>
</g>
<!-- ObjectSchema&#45;&gt;DataSchema -->
<g id="edge3" class="edge">
<title>ObjectSchema&#45;&gt;DataSchema</title>
<path fill="none" stroke="#000000" d="M798.8941,-237.4571C781.1468,-228.7403 761.3244,-218.7081 743.5,-209 727.3148,-200.1847 710.5594,-190.7376 693.9322,-181.1517"/>
<polygon fill="#000000" stroke="#000000" points="695.6609,-178.1083 685.2526,-176.1289 692.1548,-184.167 695.6609,-178.1083"/>
<text text-anchor="start" x="743.5" y="-197.8" font-family="mono" font-size="14.00" fill="#c83500">properties</text>
<text text-anchor="middle" x="674.2526" y="-179.9289" font-family="Times,serif" font-size="14.00" fill="#000000">0..*</text>
</g>
<!-- ObjectSchema&#45;&gt;DataSchema -->
<g id="edge9" class="edge">
<title>ObjectSchema&#45;&gt;DataSchema</title>
<path fill="none" stroke="#000000" d="M839.7641,-237.2191C832.0372,-222.9072 820.7219,-205.6042 806.5,-194 781.891,-173.9205 752.9972,-157.2612 723.4902,-143.5656"/>
<polygon fill="#ffffff" stroke="#000000" points="724.8705,-140.3486 714.3173,-139.4099 721.9818,-146.7247 724.8705,-140.3486"/>
</g>
<!-- StringSchema -->
<g id="node8" class="node">
<title>StringSchema</title>
<polygon fill="#8ccbf2" stroke="transparent" points="964.5,-251.5 964.5,-272.5 1065.5,-272.5 1065.5,-251.5 964.5,-251.5"/>
<polygon fill="none" stroke="#8ccbf2" points="964.5,-251.5 964.5,-272.5 1065.5,-272.5 1065.5,-251.5 964.5,-251.5"/>
<text text-anchor="start" x="967.5" y="-259.3" font-family="mono" font-weight="bold" font-size="14.00" fill="#c83500">StringSchema</text>
</g>
<!-- StringSchema&#45;&gt;DataSchema -->
<g id="edge10" class="edge">
<title>StringSchema&#45;&gt;DataSchema</title>
<path fill="none" stroke="#000000" d="M982.1272,-244.3251C971.008,-238.4267 958.3704,-232.0958 946.5,-227 875.0663,-196.3343 794.4158,-167.5748 723.929,-144.2621"/>
<polygon fill="#ffffff" stroke="#000000" points="724.6455,-140.8131 714.0525,-141.009 722.4556,-147.4618 724.6455,-140.8131"/>
</g>
</g>
</svg>
