<?xml version="1.0" encoding="UTF-8" standalone="no"?>
<!DOCTYPE svg PUBLIC "-//W3C//DTD SVG 1.1//EN"
 "http://www.w3.org/Graphics/SVG/1.1/DTD/svg11.dtd">
<!-- Generated by graphviz version 2.40.1 (20161225.0304)
 -->
<!-- Title: %3 Pages: 1 -->
<svg width="1156pt" height="372pt"
 viewBox="0.00 0.00 1155.50 372.00" xmlns="http://www.w3.org/2000/svg" xmlns:xlink="http://www.w3.org/1999/xlink">
<g id="graph0" class="graph" transform="scale(1 1) rotate(0) translate(4 368)">
<title>%3</title>
<polygon fill="#ffffff" stroke="transparent" points="-4,4 -4,-368 1151.5,-368 1151.5,4 -4,4"/>
<!-- IntegerSchema -->
<g id="node1" class="node">
<title>IntegerSchema</title>
<polygon fill="#8ccbf2" stroke="transparent" points="8,-338.5 8,-359.5 142,-359.5 142,-338.5 8,-338.5"/>
<polygon fill="none" stroke="#8ccbf2" points="8,-338.5 8,-359.5 142,-359.5 142,-338.5 8,-338.5"/>
<text text-anchor="start" x="21" y="-346.3" font-family="mono" font-weight="bold" font-size="14.00" fill="#c83500">IntegerSchema</text>
<polygon fill="#ddeeff" stroke="transparent" points="8,-317.5 8,-338.5 142,-338.5 142,-317.5 8,-317.5"/>
<polygon fill="none" stroke="#8ccbf2" points="8,-317.5 8,-338.5 142,-338.5 142,-317.5 8,-317.5"/>
<text text-anchor="start" x="11" y="-325.3" font-family="mono" font-size="14.00" fill="#c83500">maximum</text>
<text text-anchor="start" x="69" y="-325.3" font-family="Times,serif" font-size="14.00" fill="#000000"> : </text>
<text text-anchor="start" x="81" y="-325.3" font-family="mono" font-size="14.00" fill="#c83500">integer</text>
<polygon fill="#ddeeff" stroke="transparent" points="8,-296.5 8,-317.5 142,-317.5 142,-296.5 8,-296.5"/>
<polygon fill="none" stroke="#8ccbf2" points="8,-296.5 8,-317.5 142,-317.5 142,-296.5 8,-296.5"/>
<text text-anchor="start" x="11" y="-304.3" font-family="mono" font-size="14.00" fill="#c83500">minimum</text>
<text text-anchor="start" x="69" y="-304.3" font-family="Times,serif" font-size="14.00" fill="#000000"> : </text>
<text text-anchor="start" x="81" y="-304.3" font-family="mono" font-size="14.00" fill="#c83500">integer</text>
</g>
<!-- DataSchema -->
<g id="node8" class="node">
<title>DataSchema</title>
<polygon fill="#8ccbf2" stroke="transparent" points="506,-216.5 506,-237.5 729,-237.5 729,-216.5 506,-216.5"/>
<polygon fill="none" stroke="#8ccbf2" points="506,-216.5 506,-237.5 729,-237.5 729,-216.5 506,-216.5"/>
<text text-anchor="start" x="576" y="-224.3" font-family="mono" font-weight="bold" font-size="14.00" fill="#c83500">DataSchema</text>
<polygon fill="#ddeeff" stroke="transparent" points="506,-195.5 506,-216.5 729,-216.5 729,-195.5 506,-195.5"/>
<polygon fill="none" stroke="#8ccbf2" points="506,-195.5 506,-216.5 729,-216.5 729,-195.5 506,-195.5"/>
<text text-anchor="start" x="509" y="-203.3" font-family="mono" font-size="14.00" fill="#c83500">@type</text>
<text text-anchor="start" x="551" y="-203.3" font-family="Times,serif" font-size="14.00" fill="#000000"> : </text>
<text text-anchor="start" x="563" y="-203.3" font-family="Times,serif" font-style="italic" font-size="14.00" fill="#000000">array of </text>
<text text-anchor="start" x="612" y="-203.3" font-family="mono" font-size="14.00" fill="#c83500">string</text>
<polygon fill="#ddeeff" stroke="transparent" points="506,-174.5 506,-195.5 729,-195.5 729,-174.5 506,-174.5"/>
<polygon fill="none" stroke="#8ccbf2" points="506,-174.5 506,-195.5 729,-195.5 729,-174.5 506,-174.5"/>
<text text-anchor="start" x="509" y="-182.3" font-family="mono" font-size="14.00" fill="#c83500">type</text>
<text text-anchor="start" x="543" y="-182.3" font-family="Times,serif" font-size="14.00" fill="#000000"> : </text>
<text text-anchor="start" x="555" y="-182.3" font-family="mono" font-size="14.00" fill="#c83500">string</text>
<polygon fill="#ddeeff" stroke="transparent" points="506,-153.5 506,-174.5 729,-174.5 729,-153.5 506,-153.5"/>
<polygon fill="none" stroke="#8ccbf2" points="506,-153.5 506,-174.5 729,-174.5 729,-153.5 506,-153.5"/>
<text text-anchor="start" x="509" y="-161.3" font-family="mono" font-size="14.00" fill="#c83500">readOnly</text>
<text text-anchor="start" x="576" y="-161.3" font-family="Times,serif" font-size="14.00" fill="#000000"> : </text>
<text text-anchor="start" x="588" y="-161.3" font-family="mono" font-size="14.00" fill="#c83500">boolean</text>
<text text-anchor="start" x="646" y="-161.3" font-family="Times,serif" font-size="14.00" fill="#000000"> </text>
<text text-anchor="start" x="650" y="-161.3" font-family="Times,serif" font-style="italic" font-size="14.00" fill="#000000">(mandatory)</text>
<polygon fill="#ddeeff" stroke="transparent" points="506,-132.5 506,-153.5 729,-153.5 729,-132.5 506,-132.5"/>
<polygon fill="none" stroke="#8ccbf2" points="506,-132.5 506,-153.5 729,-153.5 729,-132.5 506,-132.5"/>
<text text-anchor="start" x="509" y="-140.3" font-family="mono" font-size="14.00" fill="#c83500">writeOnly</text>
<text text-anchor="start" x="584" y="-140.3" font-family="Times,serif" font-size="14.00" fill="#000000"> : </text>
<text text-anchor="start" x="596" y="-140.3" font-family="mono" font-size="14.00" fill="#c83500">boolean</text>
<text text-anchor="start" x="654" y="-140.3" font-family="Times,serif" font-size="14.00" fill="#000000"> </text>
<text text-anchor="start" x="658" y="-140.3" font-family="Times,serif" font-style="italic" font-size="14.00" fill="#000000">(mandatory)</text>
<polygon fill="#ddeeff" stroke="transparent" points="506,-111.5 506,-132.5 729,-132.5 729,-111.5 506,-111.5"/>
<polygon fill="none" stroke="#8ccbf2" points="506,-111.5 506,-132.5 729,-132.5 729,-111.5 506,-111.5"/>
<text text-anchor="start" x="509" y="-119.3" font-family="mono" font-size="14.00" fill="#c83500">description</text>
<text text-anchor="start" x="600" y="-119.3" font-family="Times,serif" font-size="14.00" fill="#000000"> : </text>
<text text-anchor="start" x="612" y="-119.3" font-family="mono" font-size="14.00" fill="#c83500">string</text>
<polygon fill="#ddeeff" stroke="transparent" points="506,-90.5 506,-111.5 729,-111.5 729,-90.5 506,-90.5"/>
<polygon fill="none" stroke="#8ccbf2" points="506,-90.5 506,-111.5 729,-111.5 729,-90.5 506,-90.5"/>
<text text-anchor="start" x="509" y="-98.3" font-family="mono" font-size="14.00" fill="#c83500">title</text>
<text text-anchor="start" x="551" y="-98.3" font-family="Times,serif" font-size="14.00" fill="#000000"> : </text>
<text text-anchor="start" x="563" y="-98.3" font-family="mono" font-size="14.00" fill="#c83500">string</text>
</g>
<!-- IntegerSchema&#45;&gt;DataSchema -->
<g id="edge8" class="edge">
<title>IntegerSchema&#45;&gt;DataSchema</title>
<path fill="none" stroke="#000000" d="M150.3803,-296.1129C153.2803,-295.0356 156.1608,-293.9938 159,-293 268.0501,-254.8302 394.6939,-220.0023 487.1334,-196.2633"/>
<polygon fill="#ffffff" stroke="#000000" points="488.2793,-199.5829 497.0993,-193.7128 486.5438,-192.8014 488.2793,-199.5829"/>
</g>
<!-- StringSchema -->
<g id="node2" class="node">
<title>StringSchema</title>
<polygon fill="#8ccbf2" stroke="transparent" points="176,-317.5 176,-338.5 282,-338.5 282,-317.5 176,-317.5"/>
<polygon fill="none" stroke="#8ccbf2" points="176,-317.5 176,-338.5 282,-338.5 282,-317.5 176,-317.5"/>
<text text-anchor="start" x="179" y="-325.3" font-family="mono" font-weight="bold" font-size="14.00" fill="#c83500">StringSchema</text>
</g>
<!-- StringSchema&#45;&gt;DataSchema -->
<g id="edge13" class="edge">
<title>StringSchema&#45;&gt;DataSchema</title>
<path fill="none" stroke="#000000" d="M263.2523,-310.3947C274.5378,-304.6273 287.2157,-298.3573 299,-293 360.361,-265.1043 429.6333,-236.7537 487.8228,-213.8047"/>
<polygon fill="#ffffff" stroke="#000000" points="489.4104,-216.9414 497.4348,-210.0233 486.8476,-210.4273 489.4104,-216.9414"/>
</g>
<!-- BooleanSchema -->
<g id="node3" class="node">
<title>BooleanSchema</title>
<polygon fill="#8ccbf2" stroke="transparent" points="316,-317.5 316,-338.5 430,-338.5 430,-317.5 316,-317.5"/>
<polygon fill="none" stroke="#8ccbf2" points="316,-317.5 316,-338.5 430,-338.5 430,-317.5 316,-317.5"/>
<text text-anchor="start" x="319" y="-325.3" font-family="mono" font-weight="bold" font-size="14.00" fill="#c83500">BooleanSchema</text>
</g>
<!-- BooleanSchema&#45;&gt;DataSchema -->
<g id="edge9" class="edge">
<title>BooleanSchema&#45;&gt;DataSchema</title>
<path fill="none" stroke="#000000" d="M400.0445,-310.3225C423.076,-294.8424 457.9231,-271.4206 492.9915,-247.85"/>
<polygon fill="#ffffff" stroke="#000000" points="495.0769,-250.6655 501.424,-242.1822 491.172,-244.8558 495.0769,-250.6655"/>
</g>
<!-- NumberSchema -->
<g id="node4" class="node">
<title>NumberSchema</title>
<polygon fill="#8ccbf2" stroke="transparent" points="464,-338.5 464,-359.5 590,-359.5 590,-338.5 464,-338.5"/>
<polygon fill="none" stroke="#8ccbf2" points="464,-338.5 464,-359.5 590,-359.5 590,-338.5 464,-338.5"/>
<text text-anchor="start" x="477" y="-346.3" font-family="mono" font-weight="bold" font-size="14.00" fill="#c83500">NumberSchema</text>
<polygon fill="#ddeeff" stroke="transparent" points="464,-317.5 464,-338.5 590,-338.5 590,-317.5 464,-317.5"/>
<polygon fill="none" stroke="#8ccbf2" points="464,-317.5 464,-338.5 590,-338.5 590,-317.5 464,-317.5"/>
<text text-anchor="start" x="467" y="-325.3" font-family="mono" font-size="14.00" fill="#c83500">minimum</text>
<text text-anchor="start" x="525" y="-325.3" font-family="Times,serif" font-size="14.00" fill="#000000"> : </text>
<text text-anchor="start" x="537" y="-325.3" font-family="mono" font-size="14.00" fill="#c83500">double</text>
<polygon fill="#ddeeff" stroke="transparent" points="464,-296.5 464,-317.5 590,-317.5 590,-296.5 464,-296.5"/>
<polygon fill="none" stroke="#8ccbf2" points="464,-296.5 464,-317.5 590,-317.5 590,-296.5 464,-296.5"/>
<text text-anchor="start" x="467" y="-304.3" font-family="mono" font-size="14.00" fill="#c83500">maximum</text>
<text text-anchor="start" x="525" y="-304.3" font-family="Times,serif" font-size="14.00" fill="#000000"> : </text>
<text text-anchor="start" x="537" y="-304.3" font-family="mono" font-size="14.00" fill="#c83500">double</text>
</g>
<!-- NumberSchema&#45;&gt;DataSchema -->
<g id="edge12" class="edge">
<title>NumberSchema&#45;&gt;DataSchema</title>
<path fill="none" stroke="#000000" d="M546.5287,-292.9144C553.3359,-280.5101 561.3027,-265.9929 569.3824,-251.2699"/>
<polygon fill="#ffffff" stroke="#000000" points="572.6757,-252.5438 574.4184,-242.0932 566.539,-249.176 572.6757,-252.5438"/>
</g>
<!-- ObjectSchema -->
<g id="node5" class="node">
<title>ObjectSchema</title>
<polygon fill="#8ccbf2" stroke="transparent" points="625,-328.5 625,-349.5 806,-349.5 806,-328.5 625,-328.5"/>
<polygon fill="none" stroke="#8ccbf2" points="625,-328.5 625,-349.5 806,-349.5 806,-328.5 625,-328.5"/>
<text text-anchor="start" x="665.5" y="-336.3" font-family="mono" font-weight="bold" font-size="14.00" fill="#c83500">ObjectSchema</text>
<polygon fill="#ddeeff" stroke="transparent" points="625,-307.5 625,-328.5 806,-328.5 806,-307.5 625,-307.5"/>
<polygon fill="none" stroke="#8ccbf2" points="625,-307.5 625,-328.5 806,-328.5 806,-307.5 625,-307.5"/>
<text text-anchor="start" x="628" y="-315.3" font-family="mono" font-size="14.00" fill="#c83500">required</text>
<text text-anchor="start" x="695" y="-315.3" font-family="Times,serif" font-size="14.00" fill="#000000"> : array of </text>
<text text-anchor="start" x="753" y="-315.3" font-family="mono" font-size="14.00" fill="#c83500">string</text>
</g>
<!-- ObjectSchema&#45;&gt;DataSchema -->
<g id="edge1" class="edge">
<title>ObjectSchema&#45;&gt;DataSchema</title>
<path fill="none" stroke="#000000" d="M647.2053,-303.4346C635.5724,-296.0635 624.9958,-286.7264 618,-275 613.8072,-267.9721 610.984,-260.2184 609.1902,-252.1757"/>
<polygon fill="#000000" stroke="#000000" points="612.6284,-251.517 607.4899,-242.2516 605.729,-252.6991 612.6284,-251.517"/>
<text text-anchor="start" x="618" y="-263.8" font-family="mono" font-size="14.00" fill="#c83500">properties</text>
<text text-anchor="middle" x="596.4899" y="-246.0516" font-family="Times,serif" font-size="14.00" fill="#000000">0..1</text>
</g>
<!-- ObjectSchema&#45;&gt;DataSchema -->
<g id="edge11" class="edge">
<title>ObjectSchema&#45;&gt;DataSchema</title>
<path fill="none" stroke="#000000" d="M713.0179,-303.3942C711.1965,-289.9693 707.7024,-273.4767 701,-260 699.4537,-256.8907 697.7803,-253.8031 696.0014,-250.7461"/>
<polygon fill="#ffffff" stroke="#000000" points="698.9641,-248.8824 690.7263,-242.2198 693.0112,-252.5653 698.9641,-248.8824"/>
</g>
<!-- ArraySchema -->
<g id="node6" class="node">
<title>ArraySchema</title>
<polygon fill="#8ccbf2" stroke="transparent" points="840,-338.5 840,-359.5 1016,-359.5 1016,-338.5 840,-338.5"/>
<polygon fill="none" stroke="#8ccbf2" points="840,-338.5 840,-359.5 1016,-359.5 1016,-338.5 840,-338.5"/>
<text text-anchor="start" x="882.5" y="-346.3" font-family="mono" font-weight="bold" font-size="14.00" fill="#c83500">ArraySchema</text>
<polygon fill="#ddeeff" stroke="transparent" points="840,-317.5 840,-338.5 1016,-338.5 1016,-317.5 840,-317.5"/>
<polygon fill="none" stroke="#8ccbf2" points="840,-317.5 840,-338.5 1016,-338.5 1016,-317.5 840,-317.5"/>
<text text-anchor="start" x="843" y="-325.3" font-family="mono" font-size="14.00" fill="#c83500">maxItems</text>
<text text-anchor="start" x="910" y="-325.3" font-family="Times,serif" font-size="14.00" fill="#000000"> : </text>
<text text-anchor="start" x="922" y="-325.3" font-family="mono" font-size="14.00" fill="#c83500">unsignedInt</text>
<polygon fill="#ddeeff" stroke="transparent" points="840,-296.5 840,-317.5 1016,-317.5 1016,-296.5 840,-296.5"/>
<polygon fill="none" stroke="#8ccbf2" points="840,-296.5 840,-317.5 1016,-317.5 1016,-296.5 840,-296.5"/>
<text text-anchor="start" x="843" y="-304.3" font-family="mono" font-size="14.00" fill="#c83500">minItems</text>
<text text-anchor="start" x="910" y="-304.3" font-family="Times,serif" font-size="14.00" fill="#000000"> : </text>
<text text-anchor="start" x="922" y="-304.3" font-family="mono" font-size="14.00" fill="#c83500">unsignedInt</text>
</g>
<!-- ArraySchema&#45;&gt;DataSchema -->
<g id="edge2" class="edge">
<title>ArraySchema&#45;&gt;DataSchema</title>
<path fill="none" stroke="#000000" d="M847.6163,-292.8869C835.2664,-287.0869 822.7291,-281.007 811,-275 789.6231,-264.0519 767.229,-251.93 745.5625,-239.8439"/>
<polygon fill="#000000" stroke="#000000" points="747.0881,-236.6868 736.653,-234.8535 743.6672,-242.794 747.0881,-236.6868"/>
<text text-anchor="start" x="811" y="-263.8" font-family="mono" font-size="14.00" fill="#c83500">items</text>
<text text-anchor="middle" x="747.653" y="-238.6535" font-family="Times,serif" font-size="14.00" fill="#000000">0..1</text>
</g>
<!-- ArraySchema&#45;&gt;DataSchema -->
<g id="edge7" class="edge">
<title>ArraySchema&#45;&gt;DataSchema</title>
<path fill="none" stroke="#000000" d="M894.2657,-292.9586C882.0382,-281.4117 867.6206,-269.2138 853,-260 820.1326,-239.2872 782.0142,-221.5396 746.125,-207.1628"/>
<polygon fill="#ffffff" stroke="#000000" points="747.1492,-203.8044 736.5624,-203.3897 744.5799,-210.3158 747.1492,-203.8044"/>
</g>
<!-- NullSchema -->
<g id="node7" class="node">
<title>NullSchema</title>
<polygon fill="#8ccbf2" stroke="transparent" points="1051,-317.5 1051,-338.5 1140,-338.5 1140,-317.5 1051,-317.5"/>
<polygon fill="none" stroke="#8ccbf2" points="1051,-317.5 1051,-338.5 1140,-338.5 1140,-317.5 1051,-317.5"/>
<text text-anchor="start" x="1054" y="-325.3" font-family="mono" font-weight="bold" font-size="14.00" fill="#c83500">NullSchema</text>
</g>
<!-- NullSchema&#45;&gt;DataSchema -->
<g id="edge10" class="edge">
<title>NullSchema&#45;&gt;DataSchema</title>
<path fill="none" stroke="#000000" d="M1066.3533,-310.3414C1056.0866,-304.31 1044.2627,-297.8925 1033,-293 939.8009,-252.5143 829.774,-219.115 746.2905,-196.5233"/>
<polygon fill="#ffffff" stroke="#000000" points="747.0676,-193.108 736.5018,-193.8908 745.2497,-199.8678 747.0676,-193.108"/>
</g>
<!-- DataSchema&#45;&gt;DataSchema -->
<g id="edge5" class="edge">
<title>DataSchema&#45;&gt;DataSchema</title>
<path fill="none" stroke="#000000" d="M736.7499,-179.6982C747.6463,-176.5387 754.5,-171.4727 754.5,-164.5 754.5,-159.8152 751.4061,-155.9912 746.0709,-153.0277"/>
<polygon fill="#000000" stroke="#000000" points="747.3347,-149.7637 736.7499,-149.3018 744.7364,-156.2636 747.3347,-149.7637"/>
<text text-anchor="start" x="754.5" y="-160.8" font-family="mono" font-size="14.00" fill="#c83500">oneOf</text>
<text text-anchor="middle" x="747.7499" y="-138.1018" font-family="Times,serif" font-size="14.00" fill="#000000">0..*</text>
</g>
<!-- string -->
<g id="node9" class="node">
<title>string</title>
<polygon fill="#f2f2f2" stroke="transparent" points="532,-7 532,-28 588,-28 588,-7 532,-7"/>
<polygon fill="none" stroke="#8c8c8c" points="532,-7 532,-28 588,-28 588,-7 532,-7"/>
<text text-anchor="start" x="535" y="-14.8" font-family="mono" font-weight="bold" font-size="14.00" fill="#000000">string</text>
</g>
<!-- DataSchema&#45;&gt;string -->
<g id="edge3" class="edge">
<title>DataSchema&#45;&gt;string</title>
<path fill="none" stroke="#000000" d="M567.3569,-86.9737C564.8641,-81.0365 562.6961,-75.0119 561,-69 558.9734,-61.8166 558.1728,-53.8353 558.0106,-46.36"/>
<polygon fill="#000000" stroke="#000000" points="561.5115,-46.311 558.1452,-36.2652 554.5121,-46.2176 561.5115,-46.311"/>
<text text-anchor="start" x="561" y="-57.8" font-family="mono" font-size="14.00" fill="#c83500">unit</text>
<text text-anchor="middle" x="547.1452" y="-40.0652" font-family="Times,serif" font-size="14.00" fill="#000000">0..1</text>
</g>
<!-- MultiLanguage -->
<g id="node10" class="node">
<title>MultiLanguage</title>
<polygon fill="#f2f2f2" stroke="transparent" points="627,-7 627,-28 741,-28 741,-7 627,-7"/>
<polygon fill="none" stroke="#8c8c8c" points="627,-7 627,-28 741,-28 741,-7 627,-7"/>
<text text-anchor="start" x="630" y="-14.8" font-family="mono" font-weight="bold" font-size="14.00" fill="#000000">MultiLanguage</text>
</g>
<!-- DataSchema&#45;&gt;MultiLanguage -->
<g id="edge4" class="edge">
<title>DataSchema&#45;&gt;MultiLanguage</title>
<path fill="none" stroke="#000000" d="M607.4493,-86.724C608.8791,-75.1857 612.0794,-63.8715 618,-54 620.6591,-49.5665 624.0754,-45.643 627.9508,-42.178"/>
<polygon fill="#000000" stroke="#000000" points="630.1018,-44.9392 635.8912,-36.066 625.832,-39.3922 630.1018,-44.9392"/>
<text text-anchor="start" x="618" y="-57.8" font-family="mono" font-size="14.00" fill="#c83500">titles</text>
<text text-anchor="middle" x="624.8912" y="-39.866" font-family="Times,serif" font-size="14.00" fill="#000000">0..1</text>
</g>
<!-- DataSchema&#45;&gt;MultiLanguage -->
<g id="edge6" class="edge">
<title>DataSchema&#45;&gt;MultiLanguage</title>
<path fill="none" stroke="#000000" d="M659.9622,-86.901C662.8123,-80.9052 665.5276,-74.893 668,-69 671.0606,-61.7051 673.8571,-53.6131 676.226,-46.0639"/>
<polygon fill="#000000" stroke="#000000" points="679.6545,-46.8157 679.1759,-36.2317 672.9498,-44.8041 679.6545,-46.8157"/>
<text text-anchor="start" x="674" y="-57.8" font-family="mono" font-size="14.00" fill="#c83500">descriptions</text>
<text text-anchor="middle" x="668.1759" y="-40.0317" font-family="Times,serif" font-size="14.00" fill="#000000">0..1</text>
</g>
</g>
</svg>
