<?xml version="1.0" encoding="UTF-8" standalone="no"?>
<!DOCTYPE svg PUBLIC "-//W3C//DTD SVG 1.1//EN"
 "http://www.w3.org/Graphics/SVG/1.1/DTD/svg11.dtd">
<!-- Generated by graphviz version 2.40.1 (20161225.0304)
 -->
<!-- Title: %3 Pages: 1 -->
<svg width="1160pt" height="306pt"
 viewBox="0.00 0.00 1160.00 306.00" xmlns="http://www.w3.org/2000/svg" xmlns:xlink="http://www.w3.org/1999/xlink">
<g id="graph0" class="graph" transform="scale(1 1) rotate(0) translate(4 302)">
<title>%3</title>
<polygon fill="#ffffff" stroke="transparent" points="-4,4 -4,-302 1156,-302 1156,4 -4,4"/>
<!-- ArraySchema -->
<g id="node1" class="node">
<title>ArraySchema</title>
<polygon fill="#8ccbf2" stroke="transparent" points="8,-272.5 8,-293.5 184,-293.5 184,-272.5 8,-272.5"/>
<polygon fill="none" stroke="#8ccbf2" points="8,-272.5 8,-293.5 184,-293.5 184,-272.5 8,-272.5"/>
<text text-anchor="start" x="50.5" y="-280.3" font-family="mono" font-weight="bold" font-size="14.00" fill="#c83500">ArraySchema</text>
<polygon fill="#ddeeff" stroke="transparent" points="8,-251.5 8,-272.5 184,-272.5 184,-251.5 8,-251.5"/>
<polygon fill="none" stroke="#8ccbf2" points="8,-251.5 8,-272.5 184,-272.5 184,-251.5 8,-251.5"/>
<text text-anchor="start" x="11" y="-259.3" font-family="mono" font-size="14.00" fill="#c83500">minItems</text>
<text text-anchor="start" x="78" y="-259.3" font-family="Times,serif" font-size="14.00" fill="#000000"> : </text>
<text text-anchor="start" x="90" y="-259.3" font-family="mono" font-size="14.00" fill="#c83500">unsignedInt</text>
<polygon fill="#ddeeff" stroke="transparent" points="8,-230.5 8,-251.5 184,-251.5 184,-230.5 8,-230.5"/>
<polygon fill="none" stroke="#8ccbf2" points="8,-230.5 8,-251.5 184,-251.5 184,-230.5 8,-230.5"/>
<text text-anchor="start" x="11" y="-238.3" font-family="mono" font-size="14.00" fill="#c83500">maxItems</text>
<text text-anchor="start" x="78" y="-238.3" font-family="Times,serif" font-size="14.00" fill="#000000"> : </text>
<text text-anchor="start" x="90" y="-238.3" font-family="mono" font-size="14.00" fill="#c83500">unsignedInt</text>
</g>
<!-- DataSchema -->
<g id="node3" class="node">
<title>DataSchema</title>
<polygon fill="#8ccbf2" stroke="transparent" points="375,-151 375,-172 784,-172 784,-151 375,-151"/>
<polygon fill="none" stroke="#8ccbf2" points="375,-151 375,-172 784,-172 784,-151 375,-151"/>
<text text-anchor="start" x="538" y="-158.8" font-family="mono" font-weight="bold" font-size="14.00" fill="#c83500">DataSchema</text>
<polygon fill="#ddeeff" stroke="transparent" points="375,-130 375,-151 784,-151 784,-130 375,-130"/>
<polygon fill="none" stroke="#8ccbf2" points="375,-130 375,-151 784,-151 784,-130 375,-130"/>
<text text-anchor="start" x="378" y="-137.8" font-family="mono" font-size="14.00" fill="#c83500">@type</text>
<text text-anchor="start" x="420" y="-137.8" font-family="Times,serif" font-size="14.00" fill="#000000"> : </text>
<text text-anchor="start" x="432" y="-137.8" font-family="Times,serif" font-style="italic" font-size="14.00" fill="#000000">(Array of) </text>
<text text-anchor="start" x="491" y="-137.8" font-family="mono" font-size="14.00" fill="#c83500">string</text>
<polygon fill="#ddeeff" stroke="transparent" points="375,-109 375,-130 784,-130 784,-109 375,-109"/>
<polygon fill="none" stroke="#8ccbf2" points="375,-109 375,-130 784,-130 784,-109 375,-109"/>
<text text-anchor="start" x="378" y="-116.8" font-family="mono" font-size="14.00" fill="#c83500">title</text>
<text text-anchor="start" x="420" y="-116.8" font-family="Times,serif" font-size="14.00" fill="#000000"> : Map of </text>
<text text-anchor="start" x="476" y="-116.8" font-family="mono" font-size="14.00" fill="#c83500">string</text>
<text text-anchor="start" x="526" y="-116.8" font-family="mono" font-size="14.00" fill="#c83500">titles</text>
<text text-anchor="start" x="576" y="-116.8" font-family="Times,serif" font-size="14.00" fill="#000000"> : Map of </text>
<text text-anchor="start" x="632" y="-116.8" font-family="mono" font-size="14.00" fill="#c83500">string</text>
<polygon fill="#ddeeff" stroke="transparent" points="375,-88 375,-109 784,-109 784,-88 375,-88"/>
<polygon fill="none" stroke="#8ccbf2" points="375,-88 375,-109 784,-109 784,-88 375,-88"/>
<text text-anchor="start" x="378" y="-95.8" font-family="mono" font-size="14.00" fill="#c83500">description</text>
<text text-anchor="start" x="469" y="-95.8" font-family="Times,serif" font-size="14.00" fill="#000000"> : Map of </text>
<text text-anchor="start" x="525" y="-95.8" font-family="mono" font-size="14.00" fill="#c83500">string</text>
<text text-anchor="start" x="575" y="-95.8" font-family="mono" font-size="14.00" fill="#c83500">descriptions</text>
<text text-anchor="start" x="675" y="-95.8" font-family="Times,serif" font-size="14.00" fill="#000000"> : Map of </text>
<text text-anchor="start" x="731" y="-95.8" font-family="mono" font-size="14.00" fill="#c83500">string</text>
<polygon fill="#ddeeff" stroke="transparent" points="375,-67 375,-88 784,-88 784,-67 375,-67"/>
<polygon fill="none" stroke="#8ccbf2" points="375,-67 375,-88 784,-88 784,-67 375,-67"/>
<text text-anchor="start" x="378" y="-74.8" font-family="mono" font-size="14.00" fill="#c83500">unit</text>
<text text-anchor="start" x="412" y="-74.8" font-family="Times,serif" font-size="14.00" fill="#000000"> : (Array of) </text>
<text text-anchor="start" x="483" y="-74.8" font-family="mono" font-size="14.00" fill="#c83500">string</text>
<polygon fill="#ddeeff" stroke="transparent" points="375,-46 375,-67 784,-67 784,-46 375,-46"/>
<polygon fill="none" stroke="#8ccbf2" points="375,-46 375,-67 784,-67 784,-46 375,-46"/>
<text text-anchor="start" x="378" y="-53.8" font-family="mono" font-size="14.00" fill="#c83500">readOnly</text>
<text text-anchor="start" x="445" y="-53.8" font-family="Times,serif" font-size="14.00" fill="#000000"> : </text>
<text text-anchor="start" x="457" y="-53.8" font-family="mono" font-size="14.00" fill="#c83500">boolean</text>
<polygon fill="#ddeeff" stroke="transparent" points="375,-25 375,-46 784,-46 784,-25 375,-25"/>
<polygon fill="none" stroke="#8ccbf2" points="375,-25 375,-46 784,-46 784,-25 375,-25"/>
<text text-anchor="start" x="378" y="-32.8" font-family="mono" font-size="14.00" fill="#c83500">writeOnly</text>
<text text-anchor="start" x="453" y="-32.8" font-family="Times,serif" font-size="14.00" fill="#000000"> : </text>
<text text-anchor="start" x="465" y="-32.8" font-family="mono" font-size="14.00" fill="#c83500">boolean</text>
<polygon fill="#ddeeff" stroke="transparent" points="375,-4 375,-25 784,-25 784,-4 375,-4"/>
<polygon fill="none" stroke="#8ccbf2" points="375,-4 375,-25 784,-25 784,-4 375,-4"/>
<text text-anchor="start" x="378" y="-11.8" font-family="mono" font-size="14.00" fill="#c83500">format</text>
<text text-anchor="start" x="428" y="-11.8" font-family="Times,serif" font-size="14.00" fill="#000000"> : </text>
<text text-anchor="start" x="440" y="-11.8" font-family="mono" font-size="14.00" fill="#c83500">string</text>
</g>
<!-- ArraySchema&#45;&gt;DataSchema -->
<g id="edge2" class="edge">
<title>ArraySchema&#45;&gt;DataSchema</title>
<path fill="none" stroke="#000000" d="M127.47,-226.9001C139.6934,-214.9314 154.4847,-202.4802 170,-194 227.0497,-162.8184 293.6227,-140.5221 356.286,-124.6963"/>
<polygon fill="#000000" stroke="#000000" points="357.4437,-128.0153 366.3075,-122.2115 355.759,-121.221 357.4437,-128.0153"/>
<text text-anchor="start" x="170" y="-197.8" font-family="mono" font-size="14.00" fill="#c83500">items</text>
<text text-anchor="middle" x="355.3075" y="-126.0115" font-family="Times,serif" font-size="14.00" fill="#000000">0..*</text>
</g>
<!-- ArraySchema&#45;&gt;DataSchema -->
<g id="edge4" class="edge">
<title>ArraySchema&#45;&gt;DataSchema</title>
<path fill="none" stroke="#000000" d="M192.0027,-227.8158C239.4327,-210.6801 298.7999,-189.2317 356.6874,-168.3179"/>
<polygon fill="#ffffff" stroke="#000000" points="358.1235,-171.5206 366.3392,-164.8309 355.7449,-164.9371 358.1235,-171.5206"/>
</g>
<!-- BooleanSchema -->
<g id="node2" class="node">
<title>BooleanSchema</title>
<polygon fill="#8ccbf2" stroke="transparent" points="218,-251.5 218,-272.5 332,-272.5 332,-251.5 218,-251.5"/>
<polygon fill="none" stroke="#8ccbf2" points="218,-251.5 218,-272.5 332,-272.5 332,-251.5 218,-251.5"/>
<text text-anchor="start" x="221" y="-259.3" font-family="mono" font-weight="bold" font-size="14.00" fill="#c83500">BooleanSchema</text>
</g>
<!-- BooleanSchema&#45;&gt;DataSchema -->
<g id="edge5" class="edge">
<title>BooleanSchema&#45;&gt;DataSchema</title>
<path fill="none" stroke="#000000" d="M306.3883,-244.4827C333.354,-229.004 374.4541,-205.412 416.6243,-181.2058"/>
<polygon fill="#ffffff" stroke="#000000" points="418.4206,-184.2104 425.351,-176.1966 414.9358,-178.1394 418.4206,-184.2104"/>
</g>
<!-- DataSchema&#45;&gt;DataSchema -->
<g id="edge1" class="edge">
<title>DataSchema&#45;&gt;DataSchema</title>
<path fill="none" stroke="#000000" d="M791.786,-101.7902C802.9135,-98.3936 809.5,-93.7969 809.5,-88 809.5,-84.1052 806.5268,-80.7522 801.2007,-77.941"/>
<polygon fill="#000000" stroke="#000000" points="802.3721,-74.6404 791.786,-74.2098 799.793,-81.148 802.3721,-74.6404"/>
<text text-anchor="start" x="809.5" y="-84.3" font-family="mono" font-size="14.00" fill="#c83500">oneOf</text>
<text text-anchor="middle" x="802.786" y="-63.0098" font-family="Times,serif" font-size="14.00" fill="#000000">0..*</text>
</g>
<!-- IntegerSchema -->
<g id="node4" class="node">
<title>IntegerSchema</title>
<polygon fill="#8ccbf2" stroke="transparent" points="366,-272.5 366,-293.5 500,-293.5 500,-272.5 366,-272.5"/>
<polygon fill="none" stroke="#8ccbf2" points="366,-272.5 366,-293.5 500,-293.5 500,-272.5 366,-272.5"/>
<text text-anchor="start" x="379" y="-280.3" font-family="mono" font-weight="bold" font-size="14.00" fill="#c83500">IntegerSchema</text>
<polygon fill="#ddeeff" stroke="transparent" points="366,-251.5 366,-272.5 500,-272.5 500,-251.5 366,-251.5"/>
<polygon fill="none" stroke="#8ccbf2" points="366,-251.5 366,-272.5 500,-272.5 500,-251.5 366,-251.5"/>
<text text-anchor="start" x="369" y="-259.3" font-family="mono" font-size="14.00" fill="#c83500">minimum</text>
<text text-anchor="start" x="427" y="-259.3" font-family="Times,serif" font-size="14.00" fill="#000000"> : </text>
<text text-anchor="start" x="439" y="-259.3" font-family="mono" font-size="14.00" fill="#c83500">integer</text>
<polygon fill="#ddeeff" stroke="transparent" points="366,-230.5 366,-251.5 500,-251.5 500,-230.5 366,-230.5"/>
<polygon fill="none" stroke="#8ccbf2" points="366,-230.5 366,-251.5 500,-251.5 500,-230.5 366,-230.5"/>
<text text-anchor="start" x="369" y="-238.3" font-family="mono" font-size="14.00" fill="#c83500">maximum</text>
<text text-anchor="start" x="427" y="-238.3" font-family="Times,serif" font-size="14.00" fill="#000000"> : </text>
<text text-anchor="start" x="439" y="-238.3" font-family="mono" font-size="14.00" fill="#c83500">integer</text>
</g>
<!-- IntegerSchema&#45;&gt;DataSchema -->
<g id="edge6" class="edge">
<title>IntegerSchema&#45;&gt;DataSchema</title>
<path fill="none" stroke="#000000" d="M462.8976,-226.7662C473.4119,-214.1995 485.7848,-199.4113 498.4642,-184.2568"/>
<polygon fill="#ffffff" stroke="#000000" points="501.3818,-186.2239 505.1145,-176.3084 496.0131,-181.732 501.3818,-186.2239"/>
</g>
<!-- NullSchema -->
<g id="node5" class="node">
<title>NullSchema</title>
<polygon fill="#8ccbf2" stroke="transparent" points="535,-251.5 535,-272.5 624,-272.5 624,-251.5 535,-251.5"/>
<polygon fill="none" stroke="#8ccbf2" points="535,-251.5 535,-272.5 624,-272.5 624,-251.5 535,-251.5"/>
<text text-anchor="start" x="538" y="-259.3" font-family="mono" font-weight="bold" font-size="14.00" fill="#c83500">NullSchema</text>
</g>
<!-- NullSchema&#45;&gt;DataSchema -->
<g id="edge7" class="edge">
<title>NullSchema&#45;&gt;DataSchema</title>
<path fill="none" stroke="#000000" d="M579,-244.4827C579,-230.0704 579,-208.6242 579,-186.1976"/>
<polygon fill="#ffffff" stroke="#000000" points="582.5001,-186.1965 579,-176.1966 575.5001,-186.1966 582.5001,-186.1965"/>
</g>
<!-- NumberSchema -->
<g id="node6" class="node">
<title>NumberSchema</title>
<polygon fill="#8ccbf2" stroke="transparent" points="658,-272.5 658,-293.5 784,-293.5 784,-272.5 658,-272.5"/>
<polygon fill="none" stroke="#8ccbf2" points="658,-272.5 658,-293.5 784,-293.5 784,-272.5 658,-272.5"/>
<text text-anchor="start" x="671" y="-280.3" font-family="mono" font-weight="bold" font-size="14.00" fill="#c83500">NumberSchema</text>
<polygon fill="#ddeeff" stroke="transparent" points="658,-251.5 658,-272.5 784,-272.5 784,-251.5 658,-251.5"/>
<polygon fill="none" stroke="#8ccbf2" points="658,-251.5 658,-272.5 784,-272.5 784,-251.5 658,-251.5"/>
<text text-anchor="start" x="661" y="-259.3" font-family="mono" font-size="14.00" fill="#c83500">minimum</text>
<text text-anchor="start" x="719" y="-259.3" font-family="Times,serif" font-size="14.00" fill="#000000"> : </text>
<text text-anchor="start" x="731" y="-259.3" font-family="mono" font-size="14.00" fill="#c83500">double</text>
<polygon fill="#ddeeff" stroke="transparent" points="658,-230.5 658,-251.5 784,-251.5 784,-230.5 658,-230.5"/>
<polygon fill="none" stroke="#8ccbf2" points="658,-230.5 658,-251.5 784,-251.5 784,-230.5 658,-230.5"/>
<text text-anchor="start" x="661" y="-238.3" font-family="mono" font-size="14.00" fill="#c83500">maximum</text>
<text text-anchor="start" x="719" y="-238.3" font-family="Times,serif" font-size="14.00" fill="#000000"> : </text>
<text text-anchor="start" x="731" y="-238.3" font-family="mono" font-size="14.00" fill="#c83500">double</text>
</g>
<!-- NumberSchema&#45;&gt;DataSchema -->
<g id="edge8" class="edge">
<title>NumberSchema&#45;&gt;DataSchema</title>
<path fill="none" stroke="#000000" d="M691.9215,-226.7662C681.6953,-214.1995 669.6613,-199.4113 657.3293,-184.2568"/>
<polygon fill="#ffffff" stroke="#000000" points="659.8878,-181.8556 650.8613,-176.3084 654.4583,-186.2739 659.8878,-181.8556"/>
</g>
<!-- ObjectSchema -->
<g id="node7" class="node">
<title>ObjectSchema</title>
<polygon fill="#8ccbf2" stroke="transparent" points="819,-262.5 819,-283.5 1004,-283.5 1004,-262.5 819,-262.5"/>
<polygon fill="none" stroke="#8ccbf2" points="819,-262.5 819,-283.5 1004,-283.5 1004,-262.5 819,-262.5"/>
<text text-anchor="start" x="861.5" y="-270.3" font-family="mono" font-weight="bold" font-size="14.00" fill="#c83500">ObjectSchema</text>
<polygon fill="#ddeeff" stroke="transparent" points="819,-241.5 819,-262.5 1004,-262.5 1004,-241.5 819,-241.5"/>
<polygon fill="none" stroke="#8ccbf2" points="819,-241.5 819,-262.5 1004,-262.5 1004,-241.5 819,-241.5"/>
<text text-anchor="start" x="822" y="-249.3" font-family="mono" font-size="14.00" fill="#c83500">required</text>
<text text-anchor="start" x="889" y="-249.3" font-family="Times,serif" font-size="14.00" fill="#000000"> : Array of </text>
<text text-anchor="start" x="951" y="-249.3" font-family="mono" font-size="14.00" fill="#c83500">string</text>
</g>
<!-- ObjectSchema&#45;&gt;DataSchema -->
<g id="edge3" class="edge">
<title>ObjectSchema&#45;&gt;DataSchema</title>
<path fill="none" stroke="#000000" d="M847.4609,-237.4084C827.2427,-228.9247 804.9542,-219.0436 785,-209 767.8845,-200.3852 750.2379,-190.9392 732.8091,-181.2427"/>
<polygon fill="#000000" stroke="#000000" points="734.1541,-177.9844 723.7189,-176.1522 730.7339,-184.092 734.1541,-177.9844"/>
<text text-anchor="start" x="785" y="-197.8" font-family="mono" font-size="14.00" fill="#c83500">properties</text>
<text text-anchor="middle" x="712.7189" y="-179.9522" font-family="Times,serif" font-size="14.00" fill="#000000">0..*</text>
</g>
<!-- ObjectSchema&#45;&gt;DataSchema -->
<g id="edge9" class="edge">
<title>ObjectSchema&#45;&gt;DataSchema</title>
<path fill="none" stroke="#000000" d="M900.3116,-237.4033C893.0503,-222.9752 882.1834,-205.4904 868,-194 847.8404,-177.6681 824.9335,-163.7184 801.0464,-151.8348"/>
<polygon fill="#ffffff" stroke="#000000" points="802.3729,-148.5884 791.8471,-147.3808 799.3224,-154.8888 802.3729,-148.5884"/>
</g>
<!-- StringSchema -->
<g id="node8" class="node">
<title>StringSchema</title>
<polygon fill="#8ccbf2" stroke="transparent" points="1038,-251.5 1038,-272.5 1144,-272.5 1144,-251.5 1038,-251.5"/>
<polygon fill="none" stroke="#8ccbf2" points="1038,-251.5 1038,-272.5 1144,-272.5 1144,-251.5 1038,-251.5"/>
<text text-anchor="start" x="1041" y="-259.3" font-family="mono" font-weight="bold" font-size="14.00" fill="#c83500">StringSchema</text>
</g>
<!-- StringSchema&#45;&gt;DataSchema -->
<g id="edge10" class="edge">
<title>StringSchema&#45;&gt;DataSchema</title>
<path fill="none" stroke="#000000" d="M1058.0521,-244.3836C1046.5226,-238.4237 1033.3661,-232.0401 1021,-227 950.9218,-198.4381 872.6597,-172.0973 801.6921,-150.2021"/>
<polygon fill="#ffffff" stroke="#000000" points="802.3151,-146.7322 791.7282,-147.1423 800.2602,-153.4238 802.3151,-146.7322"/>
</g>
</g>
</svg>
