<?xml version="1.0" encoding="UTF-8" standalone="no"?>
<!DOCTYPE svg PUBLIC "-//W3C//DTD SVG 1.1//EN"
 "http://www.w3.org/Graphics/SVG/1.1/DTD/svg11.dtd">
<!-- Generated by graphviz version 2.26.3 (20100126.1600)
 -->
<!-- Title: _anonymous_0 Pages: 1 -->
<svg width="984pt" height="348pt"
 viewBox="0.00 0.00 984.00 348.00" xmlns="http://www.w3.org/2000/svg" xmlns:xlink="http://www.w3.org/1999/xlink">
<g id="graph1" class="graph" transform="scale(1 1) rotate(0) translate(4 344)">
<title>_anonymous_0</title>
<polygon fill="white" stroke="white" points="-4,5 -4,-344 981,-344 981,5 -4,5"/>
<!-- IntegerSchema -->
<g id="node1" class="node"><title>IntegerSchema</title>
<polygon fill="#8ccbf2" stroke="#8ccbf2" points="8,-314 8,-335 119,-335 119,-314 8,-314"/>
<polygon fill="none" stroke="#8ccbf2" points="8,-314 8,-335 119,-335 119,-314 8,-314"/>
<text text-anchor="start" x="22" y="-321.233" font-family="mono" font-size="14.00" fill="#c83500">IntegerSchema</text>
<polygon fill="#ddeeff" stroke="#ddeeff" points="8,-294 8,-314 119,-314 119,-294 8,-294"/>
<polygon fill="none" stroke="#8ccbf2" points="8,-294 8,-314 119,-314 119,-294 8,-294"/>
<text text-anchor="start" x="11" y="-300.733" font-family="mono" font-size="14.00" fill="#c83500">minimum</text>
<text text-anchor="start" x="65.453" y="-300.733" font-family="Times,serif" font-size="14.00"> : </text>
<text text-anchor="start" x="76.3436" y="-300.733" font-family="mono" font-size="14.00" fill="#c83500">integer</text>
<polygon fill="#ddeeff" stroke="#ddeeff" points="8,-274 8,-294 119,-294 119,-274 8,-274"/>
<polygon fill="none" stroke="#8ccbf2" points="8,-274 8,-294 119,-294 119,-274 8,-274"/>
<text text-anchor="start" x="11" y="-280.733" font-family="mono" font-size="14.00" fill="#c83500">maximum</text>
<text text-anchor="start" x="67.777" y="-280.733" font-family="Times,serif" font-size="14.00"> : </text>
<text text-anchor="start" x="78.6676" y="-280.733" font-family="mono" font-size="14.00" fill="#c83500">integer</text>
</g>
<!-- DataSchema -->
<g id="node8" class="node"><title>DataSchema</title>
<polygon fill="#8ccbf2" stroke="#8ccbf2" points="465,-192 465,-213 623,-213 623,-192 465,-192"/>
<polygon fill="none" stroke="#8ccbf2" points="465,-192 465,-213 623,-213 623,-192 465,-192"/>
<text text-anchor="start" x="509" y="-199.233" font-family="mono" font-size="14.00" fill="#c83500">DataSchema</text>
<polygon fill="#ddeeff" stroke="#ddeeff" points="465,-172 465,-192 623,-192 623,-172 465,-172"/>
<polygon fill="none" stroke="#8ccbf2" points="465,-172 465,-192 623,-192 623,-172 465,-172"/>
<text text-anchor="start" x="468" y="-178.733" font-family="mono" font-size="14.00" fill="#c83500">readOnly</text>
<text text-anchor="start" x="520.087" y="-178.733" font-family="Times,serif" font-size="14.00"> : </text>
<text text-anchor="start" x="530.978" y="-178.733" font-family="mono" font-size="14.00" fill="#c83500">boolean</text>
<text text-anchor="start" x="575.297" y="-178.733" font-family="Times,serif" font-size="14.00"> = false</text>
<polygon fill="#ddeeff" stroke="#ddeeff" points="465,-152 465,-172 623,-172 623,-152 465,-152"/>
<polygon fill="none" stroke="#8ccbf2" points="465,-152 465,-172 623,-172 623,-152 465,-152"/>
<text text-anchor="start" x="468" y="-158.733" font-family="mono" font-size="14.00" fill="#c83500">type</text>
<text text-anchor="start" x="492.105" y="-158.733" font-family="Times,serif" font-size="14.00"> : </text>
<text text-anchor="start" x="502.996" y="-158.733" font-family="mono" font-size="14.00" fill="#c83500">string</text>
<polygon fill="#ddeeff" stroke="#ddeeff" points="465,-132 465,-152 623,-152 623,-132 465,-132"/>
<polygon fill="none" stroke="#8ccbf2" points="465,-132 465,-152 623,-152 623,-132 465,-132"/>
<text text-anchor="start" x="468" y="-138.733" font-family="mono" font-size="14.00" fill="#c83500">description</text>
<text text-anchor="start" x="530.206" y="-138.733" font-family="Times,serif" font-size="14.00"> : </text>
<text text-anchor="start" x="541.097" y="-138.733" font-family="mono" font-size="14.00" fill="#c83500">string</text>
<polygon fill="#ddeeff" stroke="#ddeeff" points="465,-112 465,-132 623,-132 623,-112 465,-112"/>
<polygon fill="none" stroke="#8ccbf2" points="465,-112 465,-132 623,-132 623,-112 465,-112"/>
<text text-anchor="start" x="468" y="-118.733" font-family="mono" font-size="14.00" fill="#c83500">title</text>
<text text-anchor="start" x="489.777" y="-118.733" font-family="Times,serif" font-size="14.00"> : </text>
<text text-anchor="start" x="500.668" y="-118.733" font-family="mono" font-size="14.00" fill="#c83500">string</text>
<polygon fill="#ddeeff" stroke="#ddeeff" points="465,-92 465,-112 623,-112 623,-92 465,-92"/>
<polygon fill="none" stroke="#8ccbf2" points="465,-92 465,-112 623,-112 623,-92 465,-92"/>
<text text-anchor="start" x="468" y="-98.7333" font-family="mono" font-size="14.00" fill="#c83500">writeOnly</text>
<text text-anchor="start" x="524.76" y="-98.7333" font-family="Times,serif" font-size="14.00"> : </text>
<text text-anchor="start" x="535.651" y="-98.7333" font-family="mono" font-size="14.00" fill="#c83500">boolean</text>
<text text-anchor="start" x="579.971" y="-98.7333" font-family="Times,serif" font-size="14.00"> = false</text>
</g>
<!-- IntegerSchema&#45;&gt;DataSchema -->
<g id="edge20" class="edge"><title>IntegerSchema&#45;&gt;DataSchema</title>
<path fill="none" stroke="black" d="M126.338,-273.471C129.248,-272.257 132.144,-271.093 135,-270 239.333,-230.066 363.163,-196.477 447.025,-175.675"/>
<polygon fill="black" stroke="black" points="447.924,-179.059 456.794,-173.265 446.247,-172.262 447.924,-179.059"/>
</g>
<!-- StringSchema -->
<g id="node2" class="node"><title>StringSchema</title>
<polygon fill="#8ccbf2" stroke="#8ccbf2" points="152,-294 152,-315 237,-315 237,-294 152,-294"/>
<polygon fill="none" stroke="#8ccbf2" points="152,-294 152,-315 237,-315 237,-294 152,-294"/>
<text text-anchor="start" x="155.5" y="-301.233" font-family="mono" font-size="14.00" fill="#c83500">StringSchema</text>
</g>
<!-- StringSchema&#45;&gt;DataSchema -->
<g id="edge26" class="edge"><title>StringSchema&#45;&gt;DataSchema</title>
<path fill="none" stroke="black" d="M222.619,-286.829C232.116,-281.123 242.856,-275.011 253,-270 316.239,-238.759 389.989,-209.177 447.42,-187.574"/>
<polygon fill="black" stroke="black" points="448.717,-190.826 456.855,-184.042 446.262,-184.27 448.717,-190.826"/>
</g>
<!-- BooleanSchema -->
<g id="node3" class="node"><title>BooleanSchema</title>
<polygon fill="#8ccbf2" stroke="#8ccbf2" points="270,-294 270,-315 367,-315 367,-294 270,-294"/>
<polygon fill="none" stroke="#8ccbf2" points="270,-294 270,-315 367,-315 367,-294 270,-294"/>
<text text-anchor="start" x="273.5" y="-301.233" font-family="mono" font-size="14.00" fill="#c83500">BooleanSchema</text>
</g>
<!-- BooleanSchema&#45;&gt;DataSchema -->
<g id="edge22" class="edge"><title>BooleanSchema&#45;&gt;DataSchema</title>
<path fill="none" stroke="black" d="M344.813,-286.967C370.466,-269.713 410.712,-242.645 448.331,-217.344"/>
<polygon fill="black" stroke="black" points="450.47,-220.123 456.814,-211.638 446.563,-214.315 450.47,-220.123"/>
</g>
<!-- NumberSchema -->
<g id="node4" class="node"><title>NumberSchema</title>
<polygon fill="#8ccbf2" stroke="#8ccbf2" points="400,-314 400,-335 511,-335 511,-314 400,-314"/>
<polygon fill="none" stroke="#8ccbf2" points="400,-314 400,-335 511,-335 511,-314 400,-314"/>
<text text-anchor="start" x="410.5" y="-321.233" font-family="mono" font-size="14.00" fill="#c83500">NumberSchema</text>
<polygon fill="#ddeeff" stroke="#ddeeff" points="400,-294 400,-314 511,-314 511,-294 400,-294"/>
<polygon fill="none" stroke="#8ccbf2" points="400,-294 400,-314 511,-314 511,-294 400,-294"/>
<text text-anchor="start" x="403" y="-300.733" font-family="mono" font-size="14.00" fill="#c83500">maximum</text>
<text text-anchor="start" x="459.777" y="-300.733" font-family="Times,serif" font-size="14.00"> : </text>
<text text-anchor="start" x="470.668" y="-300.733" font-family="mono" font-size="14.00" fill="#c83500">double</text>
<polygon fill="#ddeeff" stroke="#ddeeff" points="400,-274 400,-294 511,-294 511,-274 400,-274"/>
<polygon fill="none" stroke="#8ccbf2" points="400,-274 400,-294 511,-294 511,-274 400,-274"/>
<text text-anchor="start" x="403" y="-280.733" font-family="mono" font-size="14.00" fill="#c83500">minimum</text>
<text text-anchor="start" x="457.453" y="-280.733" font-family="Times,serif" font-size="14.00"> : </text>
<text text-anchor="start" x="468.344" y="-280.733" font-family="mono" font-size="14.00" fill="#c83500">double</text>
</g>
<!-- NumberSchema&#45;&gt;DataSchema -->
<g id="edge18" class="edge"><title>NumberSchema&#45;&gt;DataSchema</title>
<path fill="none" stroke="black" d="M475.418,-270.128C483.055,-257.086 492.045,-241.732 500.957,-226.512"/>
<polygon fill="black" stroke="black" points="504.152,-227.982 506.184,-217.584 498.111,-224.445 504.152,-227.982"/>
</g>
<!-- ObjectSchema -->
<g id="node5" class="node"><title>ObjectSchema</title>
<polygon fill="#8ccbf2" stroke="#8ccbf2" points="544,-304 544,-325 686,-325 686,-304 544,-304"/>
<polygon fill="none" stroke="#8ccbf2" points="544,-304 544,-325 686,-325 686,-304 544,-304"/>
<text text-anchor="start" x="574.5" y="-311.233" font-family="mono" font-size="14.00" fill="#c83500">ObjectSchema</text>
<polygon fill="#ddeeff" stroke="#ddeeff" points="544,-284 544,-304 686,-304 686,-284 544,-284"/>
<polygon fill="none" stroke="#8ccbf2" points="544,-284 544,-304 686,-304 686,-284 544,-284"/>
<text text-anchor="start" x="547" y="-290.733" font-family="mono" font-size="14.00" fill="#c83500">required</text>
<text text-anchor="start" x="593.641" y="-290.733" font-family="Times,serif" font-size="14.00"> : array of </text>
<text text-anchor="start" x="651.943" y="-290.733" font-family="mono" font-size="14.00" fill="#c83500">string</text>
</g>
<!-- ObjectSchema&#45;&gt;DataSchema -->
<g id="edge2" class="edge"><title>ObjectSchema&#45;&gt;DataSchema</title>
<path fill="none" stroke="black" d="M569.735,-280.303C559.823,-272.614 550.621,-263.164 545,-252 541.194,-244.441 538.816,-236.128 537.456,-227.631"/>
<polygon fill="black" stroke="black" points="540.922,-227.139 536.303,-217.604 533.968,-227.939 540.922,-227.139"/>
<text text-anchor="start" x="545.5" y="-241.233" font-family="mono" font-size="14.00" fill="#c83500">properties</text>
<text text-anchor="middle" x="541.537" y="-221.925" font-family="Times,serif" font-size="14.00">0..1</text>
</g>
<!-- ObjectSchema&#45;&gt;DataSchema -->
<g id="edge16" class="edge"><title>ObjectSchema&#45;&gt;DataSchema</title>
<path fill="none" stroke="black" d="M612.439,-280.338C610.441,-266.848 606.964,-250.067 601,-236 599.704,-232.942 598.286,-229.881 596.771,-226.834"/>
<polygon fill="black" stroke="black" points="599.736,-224.953 591.965,-217.752 593.549,-228.228 599.736,-224.953"/>
</g>
<!-- ArraySchema -->
<g id="node6" class="node"><title>ArraySchema</title>
<polygon fill="#8ccbf2" stroke="#8ccbf2" points="720,-314 720,-335 858,-335 858,-314 720,-314"/>
<polygon fill="none" stroke="#8ccbf2" points="720,-314 720,-335 858,-335 858,-314 720,-314"/>
<text text-anchor="start" x="751" y="-321.233" font-family="mono" font-size="14.00" fill="#c83500">ArraySchema</text>
<polygon fill="#ddeeff" stroke="#ddeeff" points="720,-294 720,-314 858,-314 858,-294 720,-294"/>
<polygon fill="none" stroke="#8ccbf2" points="720,-294 720,-314 858,-314 858,-294 720,-294"/>
<text text-anchor="start" x="723" y="-300.733" font-family="mono" font-size="14.00" fill="#c83500">minItems</text>
<text text-anchor="start" x="775.882" y="-300.733" font-family="Times,serif" font-size="14.00"> : </text>
<text text-anchor="start" x="786.773" y="-300.733" font-family="mono" font-size="14.00" fill="#c83500">unsignedInt</text>
<polygon fill="#ddeeff" stroke="#ddeeff" points="720,-274 720,-294 858,-294 858,-274 720,-274"/>
<polygon fill="none" stroke="#8ccbf2" points="720,-274 720,-294 858,-294 858,-274 720,-274"/>
<text text-anchor="start" x="723" y="-280.733" font-family="mono" font-size="14.00" fill="#c83500">maxItems</text>
<text text-anchor="start" x="778.206" y="-280.733" font-family="Times,serif" font-size="14.00"> : </text>
<text text-anchor="start" x="789.097" y="-280.733" font-family="mono" font-size="14.00" fill="#c83500">unsignedInt</text>
</g>
<!-- ArraySchema&#45;&gt;DataSchema -->
<g id="edge4" class="edge"><title>ArraySchema&#45;&gt;DataSchema</title>
<path fill="none" stroke="black" d="M733.099,-270.319C705.602,-253.26 671.674,-232.21 640.181,-212.672"/>
<polygon fill="black" stroke="black" points="641.713,-209.503 631.371,-207.205 638.023,-215.451 641.713,-209.503"/>
<text text-anchor="start" x="702.5" y="-241.233" font-family="mono" font-size="14.00" fill="#c83500">items</text>
<text text-anchor="middle" x="641.3" y="-204.192" font-family="Times,serif" font-size="14.00">0..1</text>
</g>
<!-- ArraySchema&#45;&gt;DataSchema -->
<g id="edge14" class="edge"><title>ArraySchema&#45;&gt;DataSchema</title>
<path fill="none" stroke="black" d="M768.252,-270.39C759.734,-258.321 749.035,-245.448 737,-236 708.669,-213.758 673.476,-196.325 640.931,-183.301"/>
<polygon fill="black" stroke="black" points="641.968,-179.949 631.38,-179.573 639.423,-186.469 641.968,-179.949"/>
</g>
<!-- NullSchema -->
<g id="node7" class="node"><title>NullSchema</title>
<polygon fill="#8ccbf2" stroke="#8ccbf2" points="892,-294 892,-315 968,-315 968,-294 892,-294"/>
<polygon fill="none" stroke="#8ccbf2" points="892,-294 892,-315 968,-315 968,-294 892,-294"/>
<text text-anchor="start" x="895.5" y="-301.233" font-family="mono" font-size="14.00" fill="#c83500">NullSchema</text>
</g>
<!-- NullSchema&#45;&gt;DataSchema -->
<g id="edge24" class="edge"><title>NullSchema&#45;&gt;DataSchema</title>
<path fill="none" stroke="black" d="M904.127,-286.83C895.157,-280.997 884.87,-274.807 875,-270 799.01,-232.988 708.215,-201.741 640.956,-180.875"/>
<polygon fill="black" stroke="black" points="641.795,-177.471 631.208,-177.873 639.735,-184.161 641.795,-177.471"/>
</g>
<!-- DataSchema&#45;&gt;DataSchema -->
<g id="edge6" class="edge"><title>DataSchema&#45;&gt;DataSchema</title>
<path fill="none" stroke="black" d="M631.302,-167.6C641.992,-164.986 649,-160.119 649,-153 649,-148.328 645.982,-144.626 640.886,-141.894"/>
<polygon fill="black" stroke="black" points="641.896,-138.538 631.302,-138.4 639.498,-145.114 641.896,-138.538"/>
<text text-anchor="start" x="649.5" y="-150.233" font-family="mono" font-size="14.00" fill="#c83500">oneOf</text>
<text text-anchor="middle" x="641.265" y="-133.334" font-family="Times,serif" font-size="14.00">0..*</text>
</g>
<!-- MultiLanguage -->
<g id="node13" class="node"><title>MultiLanguage</title>
<polygon fill="#f2f2f2" stroke="#f2f2f2" points="429,-7 429,-28 522,-28 522,-7 429,-7"/>
<polygon fill="none" stroke="#8c8c8c" points="429,-7 429,-28 522,-28 522,-7 429,-7"/>
<text text-anchor="start" x="432.5" y="-14.2333" font-family="mono" font-size="14.00">MultiLanguage</text>
</g>
<!-- DataSchema&#45;&gt;MultiLanguage -->
<g id="edge8" class="edge"><title>DataSchema&#45;&gt;MultiLanguage</title>
<path fill="none" stroke="black" d="M464.508,-88.4072C460.399,-82.5722 456.815,-76.4247 454,-70 450.518,-62.0519 452.006,-53.3354 455.425,-45.3488"/>
<polygon fill="black" stroke="black" points="458.576,-46.8765 460.144,-36.3983 452.384,-43.6118 458.576,-46.8765"/>
<text text-anchor="start" x="454.5" y="-59.2333" font-family="mono" font-size="14.00" fill="#c83500">descriptions</text>
<text text-anchor="middle" x="459.655" y="-42.1863" font-family="Times,serif" font-size="14.00">0..1</text>
</g>
<!-- DataSchema&#45;&gt;MultiLanguage -->
<g id="edge10" class="edge"><title>DataSchema&#45;&gt;MultiLanguage</title>
<path fill="none" stroke="black" d="M536.464,-88.3531C533.211,-76.3272 528.582,-64.3158 522,-54 519.507,-50.0927 516.434,-46.4449 513.063,-43.0864"/>
<polygon fill="black" stroke="black" points="515.117,-40.2297 505.315,-36.2079 510.469,-45.4644 515.117,-40.2297"/>
<text text-anchor="start" x="530.5" y="-59.2333" font-family="mono" font-size="14.00" fill="#c83500">titles</text>
<text text-anchor="middle" x="514.898" y="-34.8646" font-family="Times,serif" font-size="14.00">0..1</text>
</g>
<!-- string -->
<g id="node16" class="node"><title>string</title>
<polygon fill="#f2f2f2" stroke="#f2f2f2" points="576,-7 576,-28 614,-28 614,-7 576,-7"/>
<polygon fill="none" stroke="#8c8c8c" points="576,-7 576,-28 614,-28 614,-7 576,-7"/>
<text text-anchor="start" x="579.5" y="-14.2333" font-family="mono" font-size="14.00">string</text>
</g>
<!-- DataSchema&#45;&gt;string -->
<g id="edge12" class="edge"><title>DataSchema&#45;&gt;string</title>
<path fill="none" stroke="black" d="M568.454,-88.2679C574.086,-73.3594 579.787,-58.2705 584.454,-45.9169"/>
<polygon fill="black" stroke="black" points="587.847,-46.8389 588.107,-36.2473 581.298,-44.3651 587.847,-46.8389"/>
<text text-anchor="start" x="582.5" y="-59.2333" font-family="mono" font-size="14.00" fill="#c83500">unit</text>
<text text-anchor="middle" x="588.857" y="-42.0191" font-family="Times,serif" font-size="14.00">0..1</text>
</g>
</g>
</svg>
