<?xml version="1.0" encoding="UTF-8" standalone="no"?>
<!DOCTYPE svg PUBLIC "-//W3C//DTD SVG 1.1//EN"
 "http://www.w3.org/Graphics/SVG/1.1/DTD/svg11.dtd">
<!-- Generated by graphviz version 2.40.1 (20161225.0304)
 -->
<!-- Title: %3 Pages: 1 -->
<svg width="1160pt" height="393pt"
 viewBox="0.00 0.00 1159.50 393.00" xmlns="http://www.w3.org/2000/svg" xmlns:xlink="http://www.w3.org/1999/xlink">
<g id="graph0" class="graph" transform="scale(1 1) rotate(0) translate(4 389)">
<title>%3</title>
<polygon fill="#ffffff" stroke="transparent" points="-4,4 -4,-389 1155.5,-389 1155.5,4 -4,4"/>
<!-- IntegerSchema -->
<g id="node1" class="node">
<title>IntegerSchema</title>
<polygon fill="#8ccbf2" stroke="transparent" points="8,-359.5 8,-380.5 142,-380.5 142,-359.5 8,-359.5"/>
<polygon fill="none" stroke="#8ccbf2" points="8,-359.5 8,-380.5 142,-380.5 142,-359.5 8,-359.5"/>
<text text-anchor="start" x="21" y="-367.3" font-family="mono" font-weight="bold" font-size="14.00" fill="#c83500">IntegerSchema</text>
<polygon fill="#ddeeff" stroke="transparent" points="8,-338.5 8,-359.5 142,-359.5 142,-338.5 8,-338.5"/>
<polygon fill="none" stroke="#8ccbf2" points="8,-338.5 8,-359.5 142,-359.5 142,-338.5 8,-338.5"/>
<text text-anchor="start" x="11" y="-346.3" font-family="mono" font-size="14.00" fill="#c83500">maximum</text>
<text text-anchor="start" x="69" y="-346.3" font-family="Times,serif" font-size="14.00" fill="#000000"> : </text>
<text text-anchor="start" x="81" y="-346.3" font-family="mono" font-size="14.00" fill="#c83500">integer</text>
<polygon fill="#ddeeff" stroke="transparent" points="8,-317.5 8,-338.5 142,-338.5 142,-317.5 8,-317.5"/>
<polygon fill="none" stroke="#8ccbf2" points="8,-317.5 8,-338.5 142,-338.5 142,-317.5 8,-317.5"/>
<text text-anchor="start" x="11" y="-325.3" font-family="mono" font-size="14.00" fill="#c83500">minimum</text>
<text text-anchor="start" x="69" y="-325.3" font-family="Times,serif" font-size="14.00" fill="#000000"> : </text>
<text text-anchor="start" x="81" y="-325.3" font-family="mono" font-size="14.00" fill="#c83500">integer</text>
</g>
<!-- DataSchema -->
<g id="node8" class="node">
<title>DataSchema</title>
<polygon fill="#8ccbf2" stroke="transparent" points="508,-238 508,-259 731,-259 731,-238 508,-238"/>
<polygon fill="none" stroke="#8ccbf2" points="508,-238 508,-259 731,-259 731,-238 508,-238"/>
<text text-anchor="start" x="578" y="-245.8" font-family="mono" font-weight="bold" font-size="14.00" fill="#c83500">DataSchema</text>
<polygon fill="#ddeeff" stroke="transparent" points="508,-217 508,-238 731,-238 731,-217 508,-217"/>
<polygon fill="none" stroke="#8ccbf2" points="508,-217 508,-238 731,-238 731,-217 508,-217"/>
<text text-anchor="start" x="511" y="-224.8" font-family="mono" font-size="14.00" fill="#c83500">@type</text>
<text text-anchor="start" x="553" y="-224.8" font-family="Times,serif" font-size="14.00" fill="#000000"> : </text>
<text text-anchor="start" x="565" y="-224.8" font-family="Times,serif" font-style="italic" font-size="14.00" fill="#000000">(Array of) </text>
<text text-anchor="start" x="624" y="-224.8" font-family="mono" font-size="14.00" fill="#c83500">string</text>
<polygon fill="#ddeeff" stroke="transparent" points="508,-196 508,-217 731,-217 731,-196 508,-196"/>
<polygon fill="none" stroke="#8ccbf2" points="508,-196 508,-217 731,-217 731,-196 508,-196"/>
<text text-anchor="start" x="511" y="-203.8" font-family="mono" font-size="14.00" fill="#c83500">description</text>
<text text-anchor="start" x="602" y="-203.8" font-family="Times,serif" font-size="14.00" fill="#000000"> : </text>
<text text-anchor="start" x="614" y="-203.8" font-family="mono" font-size="14.00" fill="#c83500">string</text>
<polygon fill="#ddeeff" stroke="transparent" points="508,-175 508,-196 731,-196 731,-175 508,-175"/>
<polygon fill="none" stroke="#8ccbf2" points="508,-175 508,-196 731,-196 731,-175 508,-175"/>
<text text-anchor="start" x="511" y="-182.8" font-family="mono" font-size="14.00" fill="#c83500">readOnly</text>
<text text-anchor="start" x="578" y="-182.8" font-family="Times,serif" font-size="14.00" fill="#000000"> : </text>
<text text-anchor="start" x="590" y="-182.8" font-family="mono" font-size="14.00" fill="#c83500">boolean</text>
<text text-anchor="start" x="648" y="-182.8" font-family="Times,serif" font-size="14.00" fill="#000000"> </text>
<text text-anchor="start" x="652" y="-182.8" font-family="Times,serif" font-style="italic" font-size="14.00" fill="#000000">(mandatory)</text>
<polygon fill="#ddeeff" stroke="transparent" points="508,-154 508,-175 731,-175 731,-154 508,-154"/>
<polygon fill="none" stroke="#8ccbf2" points="508,-154 508,-175 731,-175 731,-154 508,-154"/>
<text text-anchor="start" x="511" y="-161.8" font-family="mono" font-size="14.00" fill="#c83500">title</text>
<text text-anchor="start" x="553" y="-161.8" font-family="Times,serif" font-size="14.00" fill="#000000"> : </text>
<text text-anchor="start" x="565" y="-161.8" font-family="mono" font-size="14.00" fill="#c83500">string</text>
<polygon fill="#ddeeff" stroke="transparent" points="508,-133 508,-154 731,-154 731,-133 508,-133"/>
<polygon fill="none" stroke="#8ccbf2" points="508,-133 508,-154 731,-154 731,-133 508,-133"/>
<text text-anchor="start" x="511" y="-140.8" font-family="mono" font-size="14.00" fill="#c83500">type</text>
<text text-anchor="start" x="545" y="-140.8" font-family="Times,serif" font-size="14.00" fill="#000000"> : </text>
<text text-anchor="start" x="557" y="-140.8" font-family="mono" font-size="14.00" fill="#c83500">string</text>
<polygon fill="#ddeeff" stroke="transparent" points="508,-112 508,-133 731,-133 731,-112 508,-112"/>
<polygon fill="none" stroke="#8ccbf2" points="508,-112 508,-133 731,-133 731,-112 508,-112"/>
<text text-anchor="start" x="511" y="-119.8" font-family="mono" font-size="14.00" fill="#c83500">writeOnly</text>
<text text-anchor="start" x="586" y="-119.8" font-family="Times,serif" font-size="14.00" fill="#000000"> : </text>
<text text-anchor="start" x="598" y="-119.8" font-family="mono" font-size="14.00" fill="#c83500">boolean</text>
<text text-anchor="start" x="656" y="-119.8" font-family="Times,serif" font-size="14.00" fill="#000000"> </text>
<text text-anchor="start" x="660" y="-119.8" font-family="Times,serif" font-style="italic" font-size="14.00" fill="#000000">(mandatory)</text>
<polygon fill="#ddeeff" stroke="transparent" points="508,-91 508,-112 731,-112 731,-91 508,-91"/>
<polygon fill="none" stroke="#8ccbf2" points="508,-91 508,-112 731,-112 731,-91 508,-91"/>
<text text-anchor="start" x="511" y="-98.8" font-family="mono" font-size="14.00" fill="#c83500">format</text>
<text text-anchor="start" x="561" y="-98.8" font-family="Times,serif" font-size="14.00" fill="#000000"> : </text>
<text text-anchor="start" x="573" y="-98.8" font-family="mono" font-size="14.00" fill="#c83500">string</text>
</g>
<!-- IntegerSchema&#45;&gt;DataSchema -->
<g id="edge12" class="edge">
<title>IntegerSchema&#45;&gt;DataSchema</title>
<path fill="none" stroke="#000000" d="M150.4061,-317.1854C153.2989,-316.0879 156.1708,-315.022 159,-314 269.0748,-274.2368 396.6445,-236.3126 489.4805,-210.1524"/>
<polygon fill="#ffffff" stroke="#000000" points="490.5238,-213.4949 499.2039,-207.4197 488.6298,-206.7559 490.5238,-213.4949"/>
</g>
<!-- StringSchema -->
<g id="node2" class="node">
<title>StringSchema</title>
<polygon fill="#8ccbf2" stroke="transparent" points="176,-338.5 176,-359.5 282,-359.5 282,-338.5 176,-338.5"/>
<polygon fill="none" stroke="#8ccbf2" points="176,-338.5 176,-359.5 282,-359.5 282,-338.5 176,-338.5"/>
<text text-anchor="start" x="179" y="-346.3" font-family="mono" font-weight="bold" font-size="14.00" fill="#c83500">StringSchema</text>
</g>
<!-- StringSchema&#45;&gt;DataSchema -->
<g id="edge8" class="edge">
<title>StringSchema&#45;&gt;DataSchema</title>
<path fill="none" stroke="#000000" d="M263.6924,-331.3923C274.8922,-325.6849 287.4089,-319.4507 299,-314 361.3046,-284.7013 431.3694,-254.0167 490.0194,-228.9532"/>
<polygon fill="#ffffff" stroke="#000000" points="491.5072,-232.1238 499.3314,-224.98 488.76,-225.6853 491.5072,-232.1238"/>
</g>
<!-- BooleanSchema -->
<g id="node3" class="node">
<title>BooleanSchema</title>
<polygon fill="#8ccbf2" stroke="transparent" points="316,-338.5 316,-359.5 430,-359.5 430,-338.5 316,-338.5"/>
<polygon fill="none" stroke="#8ccbf2" points="316,-338.5 316,-359.5 430,-359.5 430,-338.5 316,-338.5"/>
<text text-anchor="start" x="319" y="-346.3" font-family="mono" font-weight="bold" font-size="14.00" fill="#c83500">BooleanSchema</text>
</g>
<!-- BooleanSchema&#45;&gt;DataSchema -->
<g id="edge11" class="edge">
<title>BooleanSchema&#45;&gt;DataSchema</title>
<path fill="none" stroke="#000000" d="M398.3998,-331.4827C420.9021,-315.5207 455.5676,-290.9307 490.8029,-265.9366"/>
<polygon fill="#ffffff" stroke="#000000" points="493.1509,-268.5622 499.2822,-259.9218 489.1009,-262.8528 493.1509,-268.5622"/>
</g>
<!-- NumberSchema -->
<g id="node4" class="node">
<title>NumberSchema</title>
<polygon fill="#8ccbf2" stroke="transparent" points="464,-359.5 464,-380.5 590,-380.5 590,-359.5 464,-359.5"/>
<polygon fill="none" stroke="#8ccbf2" points="464,-359.5 464,-380.5 590,-380.5 590,-359.5 464,-359.5"/>
<text text-anchor="start" x="477" y="-367.3" font-family="mono" font-weight="bold" font-size="14.00" fill="#c83500">NumberSchema</text>
<polygon fill="#ddeeff" stroke="transparent" points="464,-338.5 464,-359.5 590,-359.5 590,-338.5 464,-338.5"/>
<polygon fill="none" stroke="#8ccbf2" points="464,-338.5 464,-359.5 590,-359.5 590,-338.5 464,-338.5"/>
<text text-anchor="start" x="467" y="-346.3" font-family="mono" font-size="14.00" fill="#c83500">maximum</text>
<text text-anchor="start" x="525" y="-346.3" font-family="Times,serif" font-size="14.00" fill="#000000"> : </text>
<text text-anchor="start" x="537" y="-346.3" font-family="mono" font-size="14.00" fill="#c83500">double</text>
<polygon fill="#ddeeff" stroke="transparent" points="464,-317.5 464,-338.5 590,-338.5 590,-317.5 464,-317.5"/>
<polygon fill="none" stroke="#8ccbf2" points="464,-317.5 464,-338.5 590,-338.5 590,-317.5 464,-317.5"/>
<text text-anchor="start" x="467" y="-325.3" font-family="mono" font-size="14.00" fill="#c83500">minimum</text>
<text text-anchor="start" x="525" y="-325.3" font-family="Times,serif" font-size="14.00" fill="#000000"> : </text>
<text text-anchor="start" x="537" y="-325.3" font-family="mono" font-size="14.00" fill="#c83500">double</text>
</g>
<!-- NumberSchema&#45;&gt;DataSchema -->
<g id="edge9" class="edge">
<title>NumberSchema&#45;&gt;DataSchema</title>
<path fill="none" stroke="#000000" d="M545.8396,-313.7662C552.2827,-301.5454 559.8334,-287.2237 567.5922,-272.5072"/>
<polygon fill="#ffffff" stroke="#000000" points="570.8743,-273.7866 572.442,-263.3084 564.6822,-270.522 570.8743,-273.7866"/>
</g>
<!-- ObjectSchema -->
<g id="node5" class="node">
<title>ObjectSchema</title>
<polygon fill="#8ccbf2" stroke="transparent" points="625,-349.5 625,-370.5 810,-370.5 810,-349.5 625,-349.5"/>
<polygon fill="none" stroke="#8ccbf2" points="625,-349.5 625,-370.5 810,-370.5 810,-349.5 625,-349.5"/>
<text text-anchor="start" x="667.5" y="-357.3" font-family="mono" font-weight="bold" font-size="14.00" fill="#c83500">ObjectSchema</text>
<polygon fill="#ddeeff" stroke="transparent" points="625,-328.5 625,-349.5 810,-349.5 810,-328.5 625,-328.5"/>
<polygon fill="none" stroke="#8ccbf2" points="625,-328.5 625,-349.5 810,-349.5 810,-328.5 625,-328.5"/>
<text text-anchor="start" x="628" y="-336.3" font-family="mono" font-size="14.00" fill="#c83500">required</text>
<text text-anchor="start" x="695" y="-336.3" font-family="Times,serif" font-size="14.00" fill="#000000"> : Array of </text>
<text text-anchor="start" x="757" y="-336.3" font-family="mono" font-size="14.00" fill="#c83500">string</text>
</g>
<!-- ObjectSchema&#45;&gt;DataSchema -->
<g id="edge1" class="edge">
<title>ObjectSchema&#45;&gt;DataSchema</title>
<path fill="none" stroke="#000000" d="M649.1981,-324.4389C637.5657,-317.0674 626.9912,-307.7291 620,-296 615.7942,-288.944 612.8499,-281.2206 610.8798,-273.1983"/>
<polygon fill="#000000" stroke="#000000" points="614.2961,-272.431 608.9406,-263.2894 607.4265,-273.7754 614.2961,-272.431"/>
<text text-anchor="start" x="620" y="-284.8" font-family="mono" font-size="14.00" fill="#c83500">properties</text>
<text text-anchor="middle" x="597.9406" y="-267.0894" font-family="Times,serif" font-size="14.00" fill="#000000">0..1</text>
</g>
<!-- ObjectSchema&#45;&gt;DataSchema -->
<g id="edge7" class="edge">
<title>ObjectSchema&#45;&gt;DataSchema</title>
<path fill="none" stroke="#000000" d="M714.6941,-324.2033C712.7815,-310.876 709.3033,-294.5341 703,-281 701.6121,-278.0201 700.1249,-275.049 698.5532,-272.0949"/>
<polygon fill="#ffffff" stroke="#000000" points="701.5537,-270.29 693.5999,-263.2908 695.453,-273.7224 701.5537,-270.29"/>
</g>
<!-- ArraySchema -->
<g id="node6" class="node">
<title>ArraySchema</title>
<polygon fill="#8ccbf2" stroke="transparent" points="844,-359.5 844,-380.5 1020,-380.5 1020,-359.5 844,-359.5"/>
<polygon fill="none" stroke="#8ccbf2" points="844,-359.5 844,-380.5 1020,-380.5 1020,-359.5 844,-359.5"/>
<text text-anchor="start" x="886.5" y="-367.3" font-family="mono" font-weight="bold" font-size="14.00" fill="#c83500">ArraySchema</text>
<polygon fill="#ddeeff" stroke="transparent" points="844,-338.5 844,-359.5 1020,-359.5 1020,-338.5 844,-338.5"/>
<polygon fill="none" stroke="#8ccbf2" points="844,-338.5 844,-359.5 1020,-359.5 1020,-338.5 844,-338.5"/>
<text text-anchor="start" x="847" y="-346.3" font-family="mono" font-size="14.00" fill="#c83500">maxItems</text>
<text text-anchor="start" x="914" y="-346.3" font-family="Times,serif" font-size="14.00" fill="#000000"> : </text>
<text text-anchor="start" x="926" y="-346.3" font-family="mono" font-size="14.00" fill="#c83500">unsignedInt</text>
<polygon fill="#ddeeff" stroke="transparent" points="844,-317.5 844,-338.5 1020,-338.5 1020,-317.5 844,-317.5"/>
<polygon fill="none" stroke="#8ccbf2" points="844,-317.5 844,-338.5 1020,-338.5 1020,-317.5 844,-317.5"/>
<text text-anchor="start" x="847" y="-325.3" font-family="mono" font-size="14.00" fill="#c83500">minItems</text>
<text text-anchor="start" x="914" y="-325.3" font-family="Times,serif" font-size="14.00" fill="#000000"> : </text>
<text text-anchor="start" x="926" y="-325.3" font-family="mono" font-size="14.00" fill="#c83500">unsignedInt</text>
</g>
<!-- ArraySchema&#45;&gt;DataSchema -->
<g id="edge2" class="edge">
<title>ArraySchema&#45;&gt;DataSchema</title>
<path fill="none" stroke="#000000" d="M849.7626,-313.8743C837.6454,-308.1477 825.4087,-302.0928 814,-296 792.1268,-284.3185 769.3634,-271.1651 747.4354,-257.946"/>
<polygon fill="#000000" stroke="#000000" points="749.1171,-254.8725 738.7513,-252.6815 745.4883,-260.8585 749.1171,-254.8725"/>
<text text-anchor="start" x="814" y="-284.8" font-family="mono" font-size="14.00" fill="#c83500">items</text>
<text text-anchor="middle" x="749.7513" y="-256.4815" font-family="Times,serif" font-size="14.00" fill="#000000">0..*</text>
</g>
<!-- ArraySchema&#45;&gt;DataSchema -->
<g id="edge13" class="edge">
<title>ArraySchema&#45;&gt;DataSchema</title>
<path fill="none" stroke="#000000" d="M897.1763,-313.9293C884.8485,-302.5111 870.44,-290.4 856,-281 822.7107,-259.3297 784.2559,-240.0179 748.1365,-224.0088"/>
<polygon fill="#ffffff" stroke="#000000" points="749.0791,-220.6007 738.5148,-219.7967 746.2719,-227.0132 749.0791,-220.6007"/>
</g>
<!-- NullSchema -->
<g id="node7" class="node">
<title>NullSchema</title>
<polygon fill="#8ccbf2" stroke="transparent" points="1055,-338.5 1055,-359.5 1144,-359.5 1144,-338.5 1055,-338.5"/>
<polygon fill="none" stroke="#8ccbf2" points="1055,-338.5 1055,-359.5 1144,-359.5 1144,-338.5 1055,-338.5"/>
<text text-anchor="start" x="1058" y="-346.3" font-family="mono" font-weight="bold" font-size="14.00" fill="#c83500">NullSchema</text>
</g>
<!-- NullSchema&#45;&gt;DataSchema -->
<g id="edge10" class="edge">
<title>NullSchema&#45;&gt;DataSchema</title>
<path fill="none" stroke="#000000" d="M1070.2934,-331.4773C1060.0215,-325.4578 1048.2096,-319.0129 1037,-314 943.1513,-272.0308 832.6055,-235.8107 748.7758,-210.8745"/>
<polygon fill="#ffffff" stroke="#000000" points="749.5288,-207.4473 738.9467,-207.9659 747.5425,-214.1596 749.5288,-207.4473"/>
</g>
<!-- DataSchema&#45;&gt;DataSchema -->
<g id="edge3" class="edge">
<title>DataSchema&#45;&gt;DataSchema</title>
<path fill="none" stroke="#000000" d="M738.7499,-191.6882C749.6463,-188.219 756.5,-182.6563 756.5,-175 756.5,-169.856 753.4061,-165.657 748.0709,-162.403"/>
<polygon fill="#000000" stroke="#000000" points="749.3134,-159.1261 738.7499,-158.3118 746.5,-165.5358 749.3134,-159.1261"/>
<text text-anchor="start" x="756.5" y="-171.3" font-family="mono" font-size="14.00" fill="#c83500">oneOf</text>
<text text-anchor="middle" x="749.7499" y="-147.1118" font-family="Times,serif" font-size="14.00" fill="#000000">0..*</text>
</g>
<!-- string -->
<g id="node9" class="node">
<title>string</title>
<polygon fill="#f2f2f2" stroke="transparent" points="534,-7 534,-28 590,-28 590,-7 534,-7"/>
<polygon fill="none" stroke="#8c8c8c" points="534,-7 534,-28 590,-28 590,-7 534,-7"/>
<text text-anchor="start" x="537" y="-14.8" font-family="mono" font-weight="bold" font-size="14.00" fill="#000000">string</text>
</g>
<!-- DataSchema&#45;&gt;string -->
<g id="edge4" class="edge">
<title>DataSchema&#45;&gt;string</title>
<path fill="none" stroke="#000000" d="M568.6662,-86.859C566.4612,-80.9269 564.5358,-74.9447 563,-69 561.133,-61.7734 560.387,-53.7774 560.2261,-46.3018"/>
<polygon fill="#000000" stroke="#000000" points="563.7268,-46.251 560.3326,-36.2146 556.7272,-46.1771 563.7268,-46.251"/>
<text text-anchor="start" x="563" y="-57.8" font-family="mono" font-size="14.00" fill="#c83500">unit</text>
<text text-anchor="middle" x="549.3326" y="-40.0146" font-family="Times,serif" font-size="14.00" fill="#000000">0..1</text>
</g>
<!-- MultiLanguage -->
<g id="node10" class="node">
<title>MultiLanguage</title>
<polygon fill="#f2f2f2" stroke="transparent" points="654,-7 654,-28 768,-28 768,-7 654,-7"/>
<polygon fill="none" stroke="#8c8c8c" points="654,-7 654,-28 768,-28 768,-7 654,-7"/>
<text text-anchor="start" x="657" y="-14.8" font-family="mono" font-weight="bold" font-size="14.00" fill="#000000">MultiLanguage</text>
</g>
<!-- DataSchema&#45;&gt;MultiLanguage -->
<g id="edge5" class="edge">
<title>DataSchema&#45;&gt;MultiLanguage</title>
<path fill="none" stroke="#000000" d="M607.6441,-86.9135C609.4878,-75.1499 613.2866,-63.7883 620,-54 624.5271,-47.3994 630.4696,-42.0091 637.1533,-37.607"/>
<polygon fill="#000000" stroke="#000000" points="639.0388,-40.5603 645.965,-32.5429 635.5508,-34.4912 639.0388,-40.5603"/>
<text text-anchor="start" x="620" y="-57.8" font-family="mono" font-size="14.00" fill="#c83500">descriptions</text>
<text text-anchor="middle" x="634.965" y="-36.3429" font-family="Times,serif" font-size="14.00" fill="#000000">0..1</text>
</g>
<!-- DataSchema&#45;&gt;MultiLanguage -->
<g id="edge6" class="edge">
<title>DataSchema&#45;&gt;MultiLanguage</title>
<path fill="none" stroke="#000000" d="M711.1407,-86.9167C714.5465,-81.119 717.5448,-75.136 720,-69 722.8475,-61.8837 722.8004,-53.8514 721.4709,-46.3023"/>
<polygon fill="#000000" stroke="#000000" points="724.8275,-45.2966 719.0144,-36.4389 718.0349,-46.9884 724.8275,-45.2966"/>
<text text-anchor="start" x="723" y="-57.8" font-family="mono" font-size="14.00" fill="#c83500">titles</text>
<text text-anchor="middle" x="708.0144" y="-40.2389" font-family="Times,serif" font-size="14.00" fill="#000000">0..1</text>
</g>
</g>
</svg>
