<?xml version="1.0" encoding="UTF-8" standalone="no"?>
<!DOCTYPE svg PUBLIC "-//W3C//DTD SVG 1.1//EN"
 "http://www.w3.org/Graphics/SVG/1.1/DTD/svg11.dtd">
<!-- Generated by graphviz version 2.40.1 (20161225.0304)
 -->
<!-- Title: %3 Pages: 1 -->
<svg width="1158pt" height="414pt"
 viewBox="0.00 0.00 1157.50 414.00" xmlns="http://www.w3.org/2000/svg" xmlns:xlink="http://www.w3.org/1999/xlink">
<g id="graph0" class="graph" transform="scale(1 1) rotate(0) translate(4 410)">
<title>%3</title>
<polygon fill="#ffffff" stroke="transparent" points="-4,4 -4,-410 1153.5,-410 1153.5,4 -4,4"/>
<!-- IntegerSchema -->
<g id="node1" class="node">
<title>IntegerSchema</title>
<polygon fill="#8ccbf2" stroke="transparent" points="8,-380.5 8,-401.5 142,-401.5 142,-380.5 8,-380.5"/>
<polygon fill="none" stroke="#8ccbf2" points="8,-380.5 8,-401.5 142,-401.5 142,-380.5 8,-380.5"/>
<text text-anchor="start" x="21" y="-388.3" font-family="mono" font-weight="bold" font-size="14.00" fill="#c83500">IntegerSchema</text>
<polygon fill="#ddeeff" stroke="transparent" points="8,-359.5 8,-380.5 142,-380.5 142,-359.5 8,-359.5"/>
<polygon fill="none" stroke="#8ccbf2" points="8,-359.5 8,-380.5 142,-380.5 142,-359.5 8,-359.5"/>
<text text-anchor="start" x="11" y="-367.3" font-family="mono" font-size="14.00" fill="#c83500">maximum</text>
<text text-anchor="start" x="69" y="-367.3" font-family="Times,serif" font-size="14.00" fill="#000000"> : </text>
<text text-anchor="start" x="81" y="-367.3" font-family="mono" font-size="14.00" fill="#c83500">integer</text>
<polygon fill="#ddeeff" stroke="transparent" points="8,-338.5 8,-359.5 142,-359.5 142,-338.5 8,-338.5"/>
<polygon fill="none" stroke="#8ccbf2" points="8,-338.5 8,-359.5 142,-359.5 142,-338.5 8,-338.5"/>
<text text-anchor="start" x="11" y="-346.3" font-family="mono" font-size="14.00" fill="#c83500">minimum</text>
<text text-anchor="start" x="69" y="-346.3" font-family="Times,serif" font-size="14.00" fill="#000000"> : </text>
<text text-anchor="start" x="81" y="-346.3" font-family="mono" font-size="14.00" fill="#c83500">integer</text>
</g>
<!-- DataSchema -->
<g id="node8" class="node">
<title>DataSchema</title>
<polygon fill="#8ccbf2" stroke="transparent" points="521,-258.5 521,-279.5 715,-279.5 715,-258.5 521,-258.5"/>
<polygon fill="none" stroke="#8ccbf2" points="521,-258.5 521,-279.5 715,-279.5 715,-258.5 521,-258.5"/>
<text text-anchor="start" x="576.5" y="-266.3" font-family="mono" font-weight="bold" font-size="14.00" fill="#c83500">DataSchema</text>
<polygon fill="#ddeeff" stroke="transparent" points="521,-237.5 521,-258.5 715,-258.5 715,-237.5 521,-237.5"/>
<polygon fill="none" stroke="#8ccbf2" points="521,-237.5 521,-258.5 715,-258.5 715,-237.5 521,-237.5"/>
<text text-anchor="start" x="524" y="-245.3" font-family="mono" font-size="14.00" fill="#c83500">@context</text>
<text text-anchor="start" x="591" y="-245.3" font-family="Times,serif" font-size="14.00" fill="#000000"> : </text>
<text text-anchor="start" x="603" y="-245.3" font-family="Times,serif" font-style="italic" font-size="14.00" fill="#000000">array</text>
<text text-anchor="start" x="635" y="-245.3" font-family="Times,serif" font-size="14.00" fill="#000000"> </text>
<text text-anchor="start" x="639" y="-245.3" font-family="Times,serif" font-style="italic" font-size="14.00" fill="#000000">(mandatory)</text>
<polygon fill="#ddeeff" stroke="transparent" points="521,-216.5 521,-237.5 715,-237.5 715,-216.5 521,-216.5"/>
<polygon fill="none" stroke="#8ccbf2" points="521,-216.5 521,-237.5 715,-237.5 715,-216.5 521,-216.5"/>
<text text-anchor="start" x="524" y="-224.3" font-family="mono" font-size="14.00" fill="#c83500">@type</text>
<text text-anchor="start" x="566" y="-224.3" font-family="Times,serif" font-size="14.00" fill="#000000"> : </text>
<text text-anchor="start" x="578" y="-224.3" font-family="Times,serif" font-style="italic" font-size="14.00" fill="#000000">array of </text>
<text text-anchor="start" x="629" y="-224.3" font-family="mono" font-size="14.00" fill="#c83500">string</text>
<polygon fill="#ddeeff" stroke="transparent" points="521,-195.5 521,-216.5 715,-216.5 715,-195.5 521,-195.5"/>
<polygon fill="none" stroke="#8ccbf2" points="521,-195.5 521,-216.5 715,-216.5 715,-195.5 521,-195.5"/>
<text text-anchor="start" x="524" y="-203.3" font-family="mono" font-size="14.00" fill="#c83500">readOnly</text>
<text text-anchor="start" x="591" y="-203.3" font-family="Times,serif" font-size="14.00" fill="#000000"> : </text>
<text text-anchor="start" x="603" y="-203.3" font-family="mono" font-size="14.00" fill="#c83500">boolean</text>
<polygon fill="#ddeeff" stroke="transparent" points="521,-174.5 521,-195.5 715,-195.5 715,-174.5 521,-174.5"/>
<polygon fill="none" stroke="#8ccbf2" points="521,-174.5 521,-195.5 715,-195.5 715,-174.5 521,-174.5"/>
<text text-anchor="start" x="524" y="-182.3" font-family="mono" font-size="14.00" fill="#c83500">writeOnly</text>
<text text-anchor="start" x="599" y="-182.3" font-family="Times,serif" font-size="14.00" fill="#000000"> : </text>
<text text-anchor="start" x="611" y="-182.3" font-family="mono" font-size="14.00" fill="#c83500">boolean</text>
<polygon fill="#ddeeff" stroke="transparent" points="521,-153.5 521,-174.5 715,-174.5 715,-153.5 521,-153.5"/>
<polygon fill="none" stroke="#8ccbf2" points="521,-153.5 521,-174.5 715,-174.5 715,-153.5 521,-153.5"/>
<text text-anchor="start" x="524" y="-161.3" font-family="mono" font-size="14.00" fill="#c83500">format</text>
<text text-anchor="start" x="574" y="-161.3" font-family="Times,serif" font-size="14.00" fill="#000000"> : </text>
<text text-anchor="start" x="586" y="-161.3" font-family="mono" font-size="14.00" fill="#c83500">string</text>
<polygon fill="#ddeeff" stroke="transparent" points="521,-132.5 521,-153.5 715,-153.5 715,-132.5 521,-132.5"/>
<polygon fill="none" stroke="#8ccbf2" points="521,-132.5 521,-153.5 715,-153.5 715,-132.5 521,-132.5"/>
<text text-anchor="start" x="524" y="-140.3" font-family="mono" font-size="14.00" fill="#c83500">title</text>
<text text-anchor="start" x="566" y="-140.3" font-family="Times,serif" font-size="14.00" fill="#000000"> : </text>
<text text-anchor="start" x="578" y="-140.3" font-family="mono" font-size="14.00" fill="#c83500">string</text>
<polygon fill="#ddeeff" stroke="transparent" points="521,-111.5 521,-132.5 715,-132.5 715,-111.5 521,-111.5"/>
<polygon fill="none" stroke="#8ccbf2" points="521,-111.5 521,-132.5 715,-132.5 715,-111.5 521,-111.5"/>
<text text-anchor="start" x="524" y="-119.3" font-family="mono" font-size="14.00" fill="#c83500">description</text>
<text text-anchor="start" x="615" y="-119.3" font-family="Times,serif" font-size="14.00" fill="#000000"> : </text>
<text text-anchor="start" x="627" y="-119.3" font-family="mono" font-size="14.00" fill="#c83500">string</text>
<polygon fill="#ddeeff" stroke="transparent" points="521,-90.5 521,-111.5 715,-111.5 715,-90.5 521,-90.5"/>
<polygon fill="none" stroke="#8ccbf2" points="521,-90.5 521,-111.5 715,-111.5 715,-90.5 521,-90.5"/>
<text text-anchor="start" x="524" y="-98.3" font-family="mono" font-size="14.00" fill="#c83500">type</text>
<text text-anchor="start" x="558" y="-98.3" font-family="Times,serif" font-size="14.00" fill="#000000"> : </text>
<text text-anchor="start" x="570" y="-98.3" font-family="mono" font-size="14.00" fill="#c83500">string</text>
</g>
<!-- IntegerSchema&#45;&gt;DataSchema -->
<g id="edge8" class="edge">
<title>IntegerSchema&#45;&gt;DataSchema</title>
<path fill="none" stroke="#000000" d="M150.4347,-338.2632C153.3195,-337.1439 156.1819,-336.0523 159,-335 274.8296,-291.7499 409.5935,-248.6989 503.001,-219.9811"/>
<polygon fill="#ffffff" stroke="#000000" points="504.2265,-223.2662 512.7598,-216.9867 502.173,-216.5742 504.2265,-223.2662"/>
</g>
<!-- StringSchema -->
<g id="node2" class="node">
<title>StringSchema</title>
<polygon fill="#8ccbf2" stroke="transparent" points="176,-359.5 176,-380.5 282,-380.5 282,-359.5 176,-359.5"/>
<polygon fill="none" stroke="#8ccbf2" points="176,-359.5 176,-380.5 282,-380.5 282,-359.5 176,-359.5"/>
<text text-anchor="start" x="179" y="-367.3" font-family="mono" font-weight="bold" font-size="14.00" fill="#c83500">StringSchema</text>
</g>
<!-- StringSchema&#45;&gt;DataSchema -->
<g id="edge13" class="edge">
<title>StringSchema&#45;&gt;DataSchema</title>
<path fill="none" stroke="#000000" d="M264.145,-352.4078C275.2577,-346.7595 287.6102,-340.5554 299,-335 366.4511,-302.1006 442.5272,-266.3941 503.4648,-238.1293"/>
<polygon fill="#ffffff" stroke="#000000" points="505.1255,-241.2173 512.7266,-233.8366 502.1819,-234.8663 505.1255,-241.2173"/>
</g>
<!-- BooleanSchema -->
<g id="node3" class="node">
<title>BooleanSchema</title>
<polygon fill="#8ccbf2" stroke="transparent" points="316,-359.5 316,-380.5 430,-380.5 430,-359.5 316,-359.5"/>
<polygon fill="none" stroke="#8ccbf2" points="316,-359.5 316,-380.5 430,-380.5 430,-359.5 316,-359.5"/>
<text text-anchor="start" x="319" y="-367.3" font-family="mono" font-weight="bold" font-size="14.00" fill="#c83500">BooleanSchema</text>
</g>
<!-- BooleanSchema&#45;&gt;DataSchema -->
<g id="edge10" class="edge">
<title>BooleanSchema&#45;&gt;DataSchema</title>
<path fill="none" stroke="#000000" d="M396.9377,-352.4246C422.2796,-333.2889 464.1419,-301.6785 504.6603,-271.0831"/>
<polygon fill="#ffffff" stroke="#000000" points="506.8694,-273.8007 512.7407,-264.9815 502.6512,-268.2144 506.8694,-273.8007"/>
</g>
<!-- NumberSchema -->
<g id="node4" class="node">
<title>NumberSchema</title>
<polygon fill="#8ccbf2" stroke="transparent" points="464,-380.5 464,-401.5 590,-401.5 590,-380.5 464,-380.5"/>
<polygon fill="none" stroke="#8ccbf2" points="464,-380.5 464,-401.5 590,-401.5 590,-380.5 464,-380.5"/>
<text text-anchor="start" x="477" y="-388.3" font-family="mono" font-weight="bold" font-size="14.00" fill="#c83500">NumberSchema</text>
<polygon fill="#ddeeff" stroke="transparent" points="464,-359.5 464,-380.5 590,-380.5 590,-359.5 464,-359.5"/>
<polygon fill="none" stroke="#8ccbf2" points="464,-359.5 464,-380.5 590,-380.5 590,-359.5 464,-359.5"/>
<text text-anchor="start" x="467" y="-367.3" font-family="mono" font-size="14.00" fill="#c83500">maximum</text>
<text text-anchor="start" x="525" y="-367.3" font-family="Times,serif" font-size="14.00" fill="#000000"> : </text>
<text text-anchor="start" x="537" y="-367.3" font-family="mono" font-size="14.00" fill="#c83500">double</text>
<polygon fill="#ddeeff" stroke="transparent" points="464,-338.5 464,-359.5 590,-359.5 590,-338.5 464,-338.5"/>
<polygon fill="none" stroke="#8ccbf2" points="464,-338.5 464,-359.5 590,-359.5 590,-338.5 464,-338.5"/>
<text text-anchor="start" x="467" y="-346.3" font-family="mono" font-size="14.00" fill="#c83500">minimum</text>
<text text-anchor="start" x="525" y="-346.3" font-family="Times,serif" font-size="14.00" fill="#000000"> : </text>
<text text-anchor="start" x="537" y="-346.3" font-family="mono" font-size="14.00" fill="#c83500">double</text>
</g>
<!-- NumberSchema&#45;&gt;DataSchema -->
<g id="edge12" class="edge">
<title>NumberSchema&#45;&gt;DataSchema</title>
<path fill="none" stroke="#000000" d="M544.5457,-334.8301C550.5336,-322.657 557.5761,-308.3398 564.8885,-293.4739"/>
<polygon fill="#ffffff" stroke="#000000" points="568.1961,-294.6792 569.4694,-284.1611 561.9149,-291.5894 568.1961,-294.6792"/>
</g>
<!-- ObjectSchema -->
<g id="node5" class="node">
<title>ObjectSchema</title>
<polygon fill="#8ccbf2" stroke="transparent" points="625,-370.5 625,-391.5 808,-391.5 808,-370.5 625,-370.5"/>
<polygon fill="none" stroke="#8ccbf2" points="625,-370.5 625,-391.5 808,-391.5 808,-370.5 625,-370.5"/>
<text text-anchor="start" x="666.5" y="-378.3" font-family="mono" font-weight="bold" font-size="14.00" fill="#c83500">ObjectSchema</text>
<polygon fill="#ddeeff" stroke="transparent" points="625,-349.5 625,-370.5 808,-370.5 808,-349.5 625,-349.5"/>
<polygon fill="none" stroke="#8ccbf2" points="625,-349.5 625,-370.5 808,-370.5 808,-349.5 625,-349.5"/>
<text text-anchor="start" x="628" y="-357.3" font-family="mono" font-size="14.00" fill="#c83500">required</text>
<text text-anchor="start" x="695" y="-357.3" font-family="Times,serif" font-size="14.00" fill="#000000"> : array of </text>
<text text-anchor="start" x="755" y="-357.3" font-family="mono" font-size="14.00" fill="#c83500">string</text>
</g>
<!-- ObjectSchema&#45;&gt;DataSchema -->
<g id="edge1" class="edge">
<title>ObjectSchema&#45;&gt;DataSchema</title>
<path fill="none" stroke="#000000" d="M648.192,-345.4425C636.5601,-338.0708 625.9874,-328.7314 619,-317 614.7641,-309.8881 611.708,-302.1528 609.5824,-294.1136"/>
<polygon fill="#000000" stroke="#000000" points="612.9686,-293.2127 607.4346,-284.178 606.1267,-294.6918 612.9686,-293.2127"/>
<text text-anchor="start" x="619" y="-305.8" font-family="mono" font-size="14.00" fill="#c83500">properties</text>
<text text-anchor="middle" x="595.9346" y="-287.978" font-family="Times,serif" font-size="14.00" fill="#000000">0..1</text>
</g>
<!-- ObjectSchema&#45;&gt;DataSchema -->
<g id="edge7" class="edge">
<title>ObjectSchema&#45;&gt;DataSchema</title>
<path fill="none" stroke="#000000" d="M713.4439,-345.3164C711.4604,-332.0211 707.9944,-315.6738 702,-302 700.7392,-299.124 699.3992,-296.249 697.9907,-293.3819"/>
<polygon fill="#ffffff" stroke="#000000" points="700.9761,-291.5352 693.2734,-284.2607 694.7584,-294.751 700.9761,-291.5352"/>
</g>
<!-- ArraySchema -->
<g id="node6" class="node">
<title>ArraySchema</title>
<polygon fill="#8ccbf2" stroke="transparent" points="842,-380.5 842,-401.5 1018,-401.5 1018,-380.5 842,-380.5"/>
<polygon fill="none" stroke="#8ccbf2" points="842,-380.5 842,-401.5 1018,-401.5 1018,-380.5 842,-380.5"/>
<text text-anchor="start" x="884.5" y="-388.3" font-family="mono" font-weight="bold" font-size="14.00" fill="#c83500">ArraySchema</text>
<polygon fill="#ddeeff" stroke="transparent" points="842,-359.5 842,-380.5 1018,-380.5 1018,-359.5 842,-359.5"/>
<polygon fill="none" stroke="#8ccbf2" points="842,-359.5 842,-380.5 1018,-380.5 1018,-359.5 842,-359.5"/>
<text text-anchor="start" x="845" y="-367.3" font-family="mono" font-size="14.00" fill="#c83500">maxItems</text>
<text text-anchor="start" x="912" y="-367.3" font-family="Times,serif" font-size="14.00" fill="#000000"> : </text>
<text text-anchor="start" x="924" y="-367.3" font-family="mono" font-size="14.00" fill="#c83500">unsignedInt</text>
<polygon fill="#ddeeff" stroke="transparent" points="842,-338.5 842,-359.5 1018,-359.5 1018,-338.5 842,-338.5"/>
<polygon fill="none" stroke="#8ccbf2" points="842,-338.5 842,-359.5 1018,-359.5 1018,-338.5 842,-338.5"/>
<text text-anchor="start" x="845" y="-346.3" font-family="mono" font-size="14.00" fill="#c83500">minItems</text>
<text text-anchor="start" x="912" y="-346.3" font-family="Times,serif" font-size="14.00" fill="#000000"> : </text>
<text text-anchor="start" x="924" y="-346.3" font-family="mono" font-size="14.00" fill="#c83500">unsignedInt</text>
</g>
<!-- ArraySchema&#45;&gt;DataSchema -->
<g id="edge2" class="edge">
<title>ArraySchema&#45;&gt;DataSchema</title>
<path fill="none" stroke="#000000" d="M846.9062,-334.9848C835.0283,-329.2875 823.0873,-323.2117 812,-317 785.2542,-302.0156 757.447,-284.4605 731.52,-267.146"/>
<polygon fill="#000000" stroke="#000000" points="733.4242,-264.2088 723.172,-261.5364 729.52,-270.0189 733.4242,-264.2088"/>
<text text-anchor="start" x="812" y="-305.8" font-family="mono" font-size="14.00" fill="#c83500">items</text>
<text text-anchor="middle" x="734.672" y="-265.3364" font-family="Times,serif" font-size="14.00" fill="#000000">0..1</text>
</g>
<!-- ArraySchema&#45;&gt;DataSchema -->
<g id="edge9" class="edge">
<title>ArraySchema&#45;&gt;DataSchema</title>
<path fill="none" stroke="#000000" d="M894.5843,-334.8919C882.3274,-323.5988 868.1119,-311.5728 854,-302 816.2882,-276.4183 772.142,-253.0875 732.2984,-234.1363"/>
<polygon fill="#ffffff" stroke="#000000" points="733.6089,-230.8848 723.0709,-229.7884 730.6252,-237.2171 733.6089,-230.8848"/>
</g>
<!-- NullSchema -->
<g id="node7" class="node">
<title>NullSchema</title>
<polygon fill="#8ccbf2" stroke="transparent" points="1053,-359.5 1053,-380.5 1142,-380.5 1142,-359.5 1053,-359.5"/>
<polygon fill="none" stroke="#8ccbf2" points="1053,-359.5 1053,-380.5 1142,-380.5 1142,-359.5 1053,-359.5"/>
<text text-anchor="start" x="1056" y="-367.3" font-family="mono" font-weight="bold" font-size="14.00" fill="#c83500">NullSchema</text>
</g>
<!-- NullSchema&#45;&gt;DataSchema -->
<g id="edge11" class="edge">
<title>NullSchema&#45;&gt;DataSchema</title>
<path fill="none" stroke="#000000" d="M1067.915,-352.4415C1057.7109,-346.4862 1046.038,-340.0907 1035,-335 935.6432,-289.1769 817.9327,-248.1133 732.953,-220.6711"/>
<polygon fill="#ffffff" stroke="#000000" points="733.868,-217.2889 723.2766,-217.5595 731.725,-223.9528 733.868,-217.2889"/>
</g>
<!-- DataSchema&#45;&gt;DataSchema -->
<g id="edge6" class="edge">
<title>DataSchema&#45;&gt;DataSchema</title>
<path fill="none" stroke="#000000" d="M723.4158,-204.612C734.1483,-200.8316 741,-194.4609 741,-185.5 741,-179.4794 737.907,-174.628 732.6222,-170.946"/>
<polygon fill="#000000" stroke="#000000" points="733.9305,-167.6883 723.4158,-166.388 730.8247,-173.9616 733.9305,-167.6883"/>
<text text-anchor="start" x="741" y="-181.8" font-family="mono" font-size="14.00" fill="#c83500">oneOf</text>
<text text-anchor="middle" x="734.9158" y="-155.188" font-family="Times,serif" font-size="14.00" fill="#000000">0..*</text>
</g>
<!-- string -->
<g id="node9" class="node">
<title>string</title>
<polygon fill="#f2f2f2" stroke="transparent" points="533,-7 533,-28 589,-28 589,-7 533,-7"/>
<polygon fill="none" stroke="#8c8c8c" points="533,-7 533,-28 589,-28 589,-7 533,-7"/>
<text text-anchor="start" x="536" y="-14.8" font-family="mono" font-weight="bold" font-size="14.00" fill="#000000">string</text>
</g>
<!-- DataSchema&#45;&gt;string -->
<g id="edge3" class="edge">
<title>DataSchema&#45;&gt;string</title>
<path fill="none" stroke="#000000" d="M567.1077,-86.7637C565.1347,-80.841 563.404,-74.8942 562,-69 560.2705,-61.7393 559.5714,-53.7316 559.4117,-46.2557"/>
<polygon fill="#000000" stroke="#000000" points="562.9121,-46.2028 559.4939,-36.1746 555.9124,-46.1457 562.9121,-46.2028"/>
<text text-anchor="start" x="562" y="-57.8" font-family="mono" font-size="14.00" fill="#c83500">unit</text>
<text text-anchor="middle" x="547.9939" y="-39.9746" font-family="Times,serif" font-size="14.00" fill="#000000">0..1</text>
</g>
<!-- MultiLanguage -->
<g id="node10" class="node">
<title>MultiLanguage</title>
<polygon fill="#f2f2f2" stroke="transparent" points="628,-7 628,-28 742,-28 742,-7 628,-7"/>
<polygon fill="none" stroke="#8c8c8c" points="628,-7 628,-28 742,-28 742,-7 628,-7"/>
<text text-anchor="start" x="631" y="-14.8" font-family="mono" font-weight="bold" font-size="14.00" fill="#000000">MultiLanguage</text>
</g>
<!-- DataSchema&#45;&gt;MultiLanguage -->
<g id="edge4" class="edge">
<title>DataSchema&#45;&gt;MultiLanguage</title>
<path fill="none" stroke="#000000" d="M607.3895,-86.7951C609.3803,-75.218 613.0183,-63.9896 619,-54 621.6559,-49.5645 625.0699,-45.6398 628.944,-42.1739"/>
<polygon fill="#000000" stroke="#000000" points="631.0948,-44.9351 636.8824,-36.0608 626.8239,-39.389 631.0948,-44.9351"/>
<text text-anchor="start" x="619" y="-57.8" font-family="mono" font-size="14.00" fill="#c83500">titles</text>
<text text-anchor="middle" x="625.3824" y="-39.8608" font-family="Times,serif" font-size="14.00" fill="#000000">0..1</text>
</g>
<!-- DataSchema&#45;&gt;MultiLanguage -->
<g id="edge5" class="edge">
<title>DataSchema&#45;&gt;MultiLanguage</title>
<path fill="none" stroke="#000000" d="M662.0162,-86.9715C664.4457,-80.9175 666.7932,-74.8928 669,-69 671.7744,-61.5915 674.4753,-53.4616 676.844,-45.9123"/>
<polygon fill="#000000" stroke="#000000" points="680.2672,-46.6863 679.8438,-36.0999 673.573,-44.6397 680.2672,-46.6863"/>
<text text-anchor="start" x="674" y="-57.8" font-family="mono" font-size="14.00" fill="#c83500">descriptions</text>
<text text-anchor="middle" x="668.3438" y="-39.8999" font-family="Times,serif" font-size="14.00" fill="#000000">0..1</text>
</g>
</g>
</svg>
