<?xml version="1.0" encoding="UTF-8" standalone="no"?>
<!DOCTYPE svg PUBLIC "-//W3C//DTD SVG 1.1//EN"
 "http://www.w3.org/Graphics/SVG/1.1/DTD/svg11.dtd">
<!-- Generated by graphviz version 2.38.0 (20140413.2041)
 -->
<!-- Title: %3 Pages: 1 -->
<svg width="1160pt" height="393pt"
 viewBox="0.00 0.00 1159.50 393.00" xmlns="http://www.w3.org/2000/svg" xmlns:xlink="http://www.w3.org/1999/xlink">
<g id="graph0" class="graph" transform="scale(1 1) rotate(0) translate(4 389)">
<title>%3</title>
<polygon fill="white" stroke="none" points="-4,4 -4,-389 1155.5,-389 1155.5,4 -4,4"/>
<!-- IntegerSchema -->
<g id="node1" class="node"><title>IntegerSchema</title>
<polygon fill="#8ccbf2" stroke="none" points="8,-359.5 8,-380.5 142,-380.5 142,-359.5 8,-359.5"/>
<polygon fill="none" stroke="#8ccbf2" points="8,-359.5 8,-380.5 142,-380.5 142,-359.5 8,-359.5"/>
<text text-anchor="start" x="21" y="-367.3" font-family="mono" font-weight="bold" font-size="14.00" fill="#c83500">IntegerSchema</text>
<polygon fill="#ddeeff" stroke="none" points="8,-338.5 8,-359.5 142,-359.5 142,-338.5 8,-338.5"/>
<polygon fill="none" stroke="#8ccbf2" points="8,-338.5 8,-359.5 142,-359.5 142,-338.5 8,-338.5"/>
<text text-anchor="start" x="11" y="-346.3" font-family="mono" font-size="14.00" fill="#c83500">maximum</text>
<text text-anchor="start" x="69" y="-346.3" font-family="Times,serif" font-size="14.00"> : </text>
<text text-anchor="start" x="81" y="-346.3" font-family="mono" font-size="14.00" fill="#c83500">integer</text>
<polygon fill="#ddeeff" stroke="none" points="8,-317.5 8,-338.5 142,-338.5 142,-317.5 8,-317.5"/>
<polygon fill="none" stroke="#8ccbf2" points="8,-317.5 8,-338.5 142,-338.5 142,-317.5 8,-317.5"/>
<text text-anchor="start" x="11" y="-325.3" font-family="mono" font-size="14.00" fill="#c83500">minimum</text>
<text text-anchor="start" x="69" y="-325.3" font-family="Times,serif" font-size="14.00"> : </text>
<text text-anchor="start" x="81" y="-325.3" font-family="mono" font-size="14.00" fill="#c83500">integer</text>
</g>
<!-- DataSchema -->
<g id="node8" class="node"><title>DataSchema</title>
<polygon fill="#8ccbf2" stroke="none" points="535,-238 535,-259 704,-259 704,-238 535,-238"/>
<polygon fill="none" stroke="#8ccbf2" points="535,-238 535,-259 704,-259 704,-238 535,-238"/>
<text text-anchor="start" x="578" y="-245.8" font-family="mono" font-weight="bold" font-size="14.00" fill="#c83500">DataSchema</text>
<polygon fill="#ddeeff" stroke="none" points="535,-217 535,-238 704,-238 704,-217 535,-217"/>
<polygon fill="none" stroke="#8ccbf2" points="535,-217 535,-238 704,-238 704,-217 535,-217"/>
<text text-anchor="start" x="538" y="-224.8" font-family="mono" font-size="14.00" fill="#c83500">@type</text>
<text text-anchor="start" x="580" y="-224.8" font-family="Times,serif" font-size="14.00"> : </text>
<text text-anchor="start" x="592" y="-224.8" font-family="Times,serif" font-style="italic" font-size="14.00">(Array of) </text>
<text text-anchor="start" x="651" y="-224.8" font-family="mono" font-size="14.00" fill="#c83500">string</text>
<polygon fill="#ddeeff" stroke="none" points="535,-196 535,-217 704,-217 704,-196 535,-196"/>
<polygon fill="none" stroke="#8ccbf2" points="535,-196 535,-217 704,-217 704,-196 535,-196"/>
<text text-anchor="start" x="538" y="-203.8" font-family="mono" font-size="14.00" fill="#c83500">readOnly</text>
<text text-anchor="start" x="605" y="-203.8" font-family="Times,serif" font-size="14.00"> : </text>
<text text-anchor="start" x="617" y="-203.8" font-family="mono" font-size="14.00" fill="#c83500">boolean</text>
<polygon fill="#ddeeff" stroke="none" points="535,-175 535,-196 704,-196 704,-175 535,-175"/>
<polygon fill="none" stroke="#8ccbf2" points="535,-175 535,-196 704,-196 704,-175 535,-175"/>
<text text-anchor="start" x="538" y="-182.8" font-family="mono" font-size="14.00" fill="#c83500">title</text>
<text text-anchor="start" x="580" y="-182.8" font-family="Times,serif" font-size="14.00"> : </text>
<text text-anchor="start" x="592" y="-182.8" font-family="mono" font-size="14.00" fill="#c83500">string</text>
<polygon fill="#ddeeff" stroke="none" points="535,-154 535,-175 704,-175 704,-154 535,-154"/>
<polygon fill="none" stroke="#8ccbf2" points="535,-154 535,-175 704,-175 704,-154 535,-154"/>
<text text-anchor="start" x="538" y="-161.8" font-family="mono" font-size="14.00" fill="#c83500">writeOnly</text>
<text text-anchor="start" x="613" y="-161.8" font-family="Times,serif" font-size="14.00"> : </text>
<text text-anchor="start" x="625" y="-161.8" font-family="mono" font-size="14.00" fill="#c83500">boolean</text>
<polygon fill="#ddeeff" stroke="none" points="535,-133 535,-154 704,-154 704,-133 535,-133"/>
<polygon fill="none" stroke="#8ccbf2" points="535,-133 535,-154 704,-154 704,-133 535,-133"/>
<text text-anchor="start" x="538" y="-140.8" font-family="mono" font-size="14.00" fill="#c83500">type</text>
<text text-anchor="start" x="572" y="-140.8" font-family="Times,serif" font-size="14.00"> : </text>
<text text-anchor="start" x="584" y="-140.8" font-family="mono" font-size="14.00" fill="#c83500">string</text>
<polygon fill="#ddeeff" stroke="none" points="535,-112 535,-133 704,-133 704,-112 535,-112"/>
<polygon fill="none" stroke="#8ccbf2" points="535,-112 535,-133 704,-133 704,-112 535,-112"/>
<text text-anchor="start" x="538" y="-119.8" font-family="mono" font-size="14.00" fill="#c83500">format</text>
<text text-anchor="start" x="588" y="-119.8" font-family="Times,serif" font-size="14.00"> : </text>
<text text-anchor="start" x="600" y="-119.8" font-family="mono" font-size="14.00" fill="#c83500">string</text>
<polygon fill="#ddeeff" stroke="none" points="535,-91 535,-112 704,-112 704,-91 535,-91"/>
<polygon fill="none" stroke="#8ccbf2" points="535,-91 535,-112 704,-112 704,-91 535,-91"/>
<text text-anchor="start" x="538" y="-98.8" font-family="mono" font-size="14.00" fill="#c83500">description</text>
<text text-anchor="start" x="629" y="-98.8" font-family="Times,serif" font-size="14.00"> : </text>
<text text-anchor="start" x="641" y="-98.8" font-family="mono" font-size="14.00" fill="#c83500">string</text>
</g>
<!-- IntegerSchema&#45;&gt;DataSchema -->
<g id="edge12" class="edge"><title>IntegerSchema&#45;&gt;DataSchema</title>
<path fill="none" stroke="black" d="M150.421,-317.115C153.31,-316.043 156.177,-315.001 159,-314 280.254,-271.029 422.44,-229.727 516.283,-203.692"/>
<polygon fill="white" stroke="black" points="517.357,-207.026 526.061,-200.986 515.49,-200.28 517.357,-207.026"/>
</g>
<!-- StringSchema -->
<g id="node2" class="node"><title>StringSchema</title>
<polygon fill="#8ccbf2" stroke="none" points="176,-338.5 176,-359.5 282,-359.5 282,-338.5 176,-338.5"/>
<polygon fill="none" stroke="#8ccbf2" points="176,-338.5 176,-359.5 282,-359.5 282,-338.5 176,-338.5"/>
<text text-anchor="start" x="179" y="-346.3" font-family="mono" font-weight="bold" font-size="14.00" fill="#c83500">StringSchema</text>
</g>
<!-- StringSchema&#45;&gt;DataSchema -->
<g id="edge8" class="edge"><title>StringSchema&#45;&gt;DataSchema</title>
<path fill="none" stroke="black" d="M262.658,-331.481C274.129,-325.796 287.068,-319.509 299,-314 371.232,-280.651 453.692,-245.15 516.812,-218.508"/>
<polygon fill="white" stroke="black" points="518.521,-221.586 526.376,-214.477 515.802,-215.136 518.521,-221.586"/>
</g>
<!-- BooleanSchema -->
<g id="node3" class="node"><title>BooleanSchema</title>
<polygon fill="#8ccbf2" stroke="none" points="316,-338.5 316,-359.5 430,-359.5 430,-338.5 316,-338.5"/>
<polygon fill="none" stroke="#8ccbf2" points="316,-338.5 316,-359.5 430,-359.5 430,-338.5 316,-338.5"/>
<text text-anchor="start" x="319" y="-346.3" font-family="mono" font-weight="bold" font-size="14.00" fill="#c83500">BooleanSchema</text>
</g>
<!-- BooleanSchema&#45;&gt;DataSchema -->
<g id="edge11" class="edge"><title>BooleanSchema&#45;&gt;DataSchema</title>
<path fill="none" stroke="black" d="M397.487,-331.329C425.688,-311.554 473.83,-277.796 518.043,-246.793"/>
<polygon fill="white" stroke="black" points="520.069,-249.647 526.247,-241.04 516.05,-243.916 520.069,-249.647"/>
</g>
<!-- NumberSchema -->
<g id="node4" class="node"><title>NumberSchema</title>
<polygon fill="#8ccbf2" stroke="none" points="464,-359.5 464,-380.5 590,-380.5 590,-359.5 464,-359.5"/>
<polygon fill="none" stroke="#8ccbf2" points="464,-359.5 464,-380.5 590,-380.5 590,-359.5 464,-359.5"/>
<text text-anchor="start" x="477" y="-367.3" font-family="mono" font-weight="bold" font-size="14.00" fill="#c83500">NumberSchema</text>
<polygon fill="#ddeeff" stroke="none" points="464,-338.5 464,-359.5 590,-359.5 590,-338.5 464,-338.5"/>
<polygon fill="none" stroke="#8ccbf2" points="464,-338.5 464,-359.5 590,-359.5 590,-338.5 464,-338.5"/>
<text text-anchor="start" x="467" y="-346.3" font-family="mono" font-size="14.00" fill="#c83500">minimum</text>
<text text-anchor="start" x="525" y="-346.3" font-family="Times,serif" font-size="14.00"> : </text>
<text text-anchor="start" x="537" y="-346.3" font-family="mono" font-size="14.00" fill="#c83500">double</text>
<polygon fill="#ddeeff" stroke="none" points="464,-317.5 464,-338.5 590,-338.5 590,-317.5 464,-317.5"/>
<polygon fill="none" stroke="#8ccbf2" points="464,-317.5 464,-338.5 590,-338.5 590,-317.5 464,-317.5"/>
<text text-anchor="start" x="467" y="-325.3" font-family="mono" font-size="14.00" fill="#c83500">maximum</text>
<text text-anchor="start" x="525" y="-325.3" font-family="Times,serif" font-size="14.00"> : </text>
<text text-anchor="start" x="537" y="-325.3" font-family="mono" font-size="14.00" fill="#c83500">double</text>
</g>
<!-- NumberSchema&#45;&gt;DataSchema -->
<g id="edge9" class="edge"><title>NumberSchema&#45;&gt;DataSchema</title>
<path fill="none" stroke="black" d="M545.618,-313.592C552.096,-301.445 559.714,-287.161 567.546,-272.476"/>
<polygon fill="white" stroke="black" points="570.824,-273.767 572.442,-263.296 564.648,-270.473 570.824,-273.767"/>
</g>
<!-- ObjectSchema -->
<g id="node5" class="node"><title>ObjectSchema</title>
<polygon fill="#8ccbf2" stroke="none" points="625,-349.5 625,-370.5 810,-370.5 810,-349.5 625,-349.5"/>
<polygon fill="none" stroke="#8ccbf2" points="625,-349.5 625,-370.5 810,-370.5 810,-349.5 625,-349.5"/>
<text text-anchor="start" x="667.5" y="-357.3" font-family="mono" font-weight="bold" font-size="14.00" fill="#c83500">ObjectSchema</text>
<polygon fill="#ddeeff" stroke="none" points="625,-328.5 625,-349.5 810,-349.5 810,-328.5 625,-328.5"/>
<polygon fill="none" stroke="#8ccbf2" points="625,-328.5 625,-349.5 810,-349.5 810,-328.5 625,-328.5"/>
<text text-anchor="start" x="628" y="-336.3" font-family="mono" font-size="14.00" fill="#c83500">required</text>
<text text-anchor="start" x="695" y="-336.3" font-family="Times,serif" font-size="14.00"> : Array of </text>
<text text-anchor="start" x="757" y="-336.3" font-family="mono" font-size="14.00" fill="#c83500">string</text>
</g>
<!-- ObjectSchema&#45;&gt;DataSchema -->
<g id="edge1" class="edge"><title>ObjectSchema&#45;&gt;DataSchema</title>
<path fill="none" stroke="black" d="M649.716,-324.433C637.888,-317.136 627.106,-307.814 620,-296 615.763,-288.956 612.808,-281.232 610.841,-273.206"/>
<polygon fill="black" stroke="black" points="614.257,-272.439 608.912,-263.291 607.386,-273.776 614.257,-272.439"/>
<text text-anchor="start" x="620" y="-284.8" font-family="mono" font-size="14.00" fill="#c83500">properties</text>
<text text-anchor="middle" x="597.912" y="-267.091" font-family="Times,serif" font-size="14.00">0..1</text>
</g>
<!-- ObjectSchema&#45;&gt;DataSchema -->
<g id="edge7" class="edge"><title>ObjectSchema&#45;&gt;DataSchema</title>
<path fill="none" stroke="black" d="M714.756,-324.198C712.854,-310.948 709.367,-294.538 703,-281 701.584,-277.99 700.066,-274.989 698.46,-272.007"/>
<polygon fill="white" stroke="black" points="701.39,-270.079 693.4,-263.122 695.308,-273.543 701.39,-270.079"/>
</g>
<!-- ArraySchema -->
<g id="node6" class="node"><title>ArraySchema</title>
<polygon fill="#8ccbf2" stroke="none" points="844,-359.5 844,-380.5 1020,-380.5 1020,-359.5 844,-359.5"/>
<polygon fill="none" stroke="#8ccbf2" points="844,-359.5 844,-380.5 1020,-380.5 1020,-359.5 844,-359.5"/>
<text text-anchor="start" x="886.5" y="-367.3" font-family="mono" font-weight="bold" font-size="14.00" fill="#c83500">ArraySchema</text>
<polygon fill="#ddeeff" stroke="none" points="844,-338.5 844,-359.5 1020,-359.5 1020,-338.5 844,-338.5"/>
<polygon fill="none" stroke="#8ccbf2" points="844,-338.5 844,-359.5 1020,-359.5 1020,-338.5 844,-338.5"/>
<text text-anchor="start" x="847" y="-346.3" font-family="mono" font-size="14.00" fill="#c83500">minItems</text>
<text text-anchor="start" x="914" y="-346.3" font-family="Times,serif" font-size="14.00"> : </text>
<text text-anchor="start" x="926" y="-346.3" font-family="mono" font-size="14.00" fill="#c83500">unsignedInt</text>
<polygon fill="#ddeeff" stroke="none" points="844,-317.5 844,-338.5 1020,-338.5 1020,-317.5 844,-317.5"/>
<polygon fill="none" stroke="#8ccbf2" points="844,-317.5 844,-338.5 1020,-338.5 1020,-317.5 844,-317.5"/>
<text text-anchor="start" x="847" y="-325.3" font-family="mono" font-size="14.00" fill="#c83500">maxItems</text>
<text text-anchor="start" x="914" y="-325.3" font-family="Times,serif" font-size="14.00"> : </text>
<text text-anchor="start" x="926" y="-325.3" font-family="mono" font-size="14.00" fill="#c83500">unsignedInt</text>
</g>
<!-- ArraySchema&#45;&gt;DataSchema -->
<g id="edge2" class="edge"><title>ArraySchema&#45;&gt;DataSchema</title>
<path fill="none" stroke="black" d="M869.036,-313.8C826.518,-290.367 769.45,-258.916 720.57,-231.977"/>
<polygon fill="black" stroke="black" points="721.991,-228.764 711.543,-227.002 718.612,-234.894 721.991,-228.764"/>
<text text-anchor="start" x="831" y="-284.8" font-family="mono" font-size="14.00" fill="#c83500">items</text>
<text text-anchor="middle" x="722.543" y="-230.802" font-family="Times,serif" font-size="14.00">0..*</text>
</g>
<!-- ArraySchema&#45;&gt;DataSchema -->
<g id="edge13" class="edge"><title>ArraySchema&#45;&gt;DataSchema</title>
<path fill="none" stroke="black" d="M909.16,-313.866C900.205,-302.254 889.154,-289.989 877,-281 830.52,-246.624 771.189,-221.457 721.145,-204.394"/>
<polygon fill="white" stroke="black" points="722.185,-201.051 711.591,-201.195 719.962,-207.689 722.185,-201.051"/>
</g>
<!-- NullSchema -->
<g id="node7" class="node"><title>NullSchema</title>
<polygon fill="#8ccbf2" stroke="none" points="1055,-338.5 1055,-359.5 1144,-359.5 1144,-338.5 1055,-338.5"/>
<polygon fill="none" stroke="#8ccbf2" points="1055,-338.5 1055,-359.5 1144,-359.5 1144,-338.5 1055,-338.5"/>
<text text-anchor="start" x="1058" y="-346.3" font-family="mono" font-weight="bold" font-size="14.00" fill="#c83500">NullSchema</text>
</g>
<!-- NullSchema&#45;&gt;DataSchema -->
<g id="edge10" class="edge"><title>NullSchema&#45;&gt;DataSchema</title>
<path fill="none" stroke="black" d="M1070.87,-331.369C1060.45,-325.421 1048.39,-318.997 1037,-314 932.378,-268.113 807.41,-228.761 721.532,-203.958"/>
<polygon fill="white" stroke="black" points="722.358,-200.554 711.78,-201.155 720.425,-207.281 722.358,-200.554"/>
</g>
<!-- DataSchema&#45;&gt;DataSchema -->
<g id="edge5" class="edge"><title>DataSchema&#45;&gt;DataSchema</title>
<path fill="none" stroke="black" d="M711.701,-192.923C722.485,-189.615 729.5,-183.641 729.5,-175 729.5,-169.195 726.333,-164.593 720.984,-161.195"/>
<polygon fill="black" stroke="black" points="722.262,-157.933 711.701,-157.077 719.424,-164.331 722.262,-157.933"/>
<text text-anchor="start" x="729.5" y="-171.3" font-family="mono" font-size="14.00" fill="#c83500">oneOf</text>
<text text-anchor="middle" x="722.701" y="-145.877" font-family="Times,serif" font-size="14.00">0..*</text>
</g>
<!-- MultiLanguage -->
<g id="node9" class="node"><title>MultiLanguage</title>
<polygon fill="#f2f2f2" stroke="none" points="526,-7 526,-28 640,-28 640,-7 526,-7"/>
<polygon fill="none" stroke="#8c8c8c" points="526,-7 526,-28 640,-28 640,-7 526,-7"/>
<text text-anchor="start" x="529" y="-14.8" font-family="mono" font-weight="bold" font-size="14.00">MultiLanguage</text>
</g>
<!-- DataSchema&#45;&gt;MultiLanguage -->
<g id="edge3" class="edge"><title>DataSchema&#45;&gt;MultiLanguage</title>
<path fill="none" stroke="black" d="M553.897,-86.87C551.207,-80.9958 548.865,-75.0171 547,-69 545.026,-62.6321 544.405,-60.1411 547,-54 548.558,-50.3114 550.717,-46.8195 553.209,-43.5726"/>
<polygon fill="black" stroke="black" points="555.892,-45.8233 559.943,-36.0337 550.671,-41.1601 555.892,-45.8233"/>
<text text-anchor="start" x="547" y="-57.8" font-family="mono" font-size="14.00" fill="#c83500">titles</text>
<text text-anchor="middle" x="548.943" y="-39.8337" font-family="Times,serif" font-size="14.00">0..1</text>
</g>
<!-- DataSchema&#45;&gt;MultiLanguage -->
<g id="edge6" class="edge"><title>DataSchema&#45;&gt;MultiLanguage</title>
<path fill="none" stroke="black" d="M605.102,-86.6788C602.722,-75.6005 600.024,-64.4804 597,-54 596.201,-51.2294 595.262,-48.3756 594.255,-45.5495"/>
<polygon fill="black" stroke="black" points="597.522,-44.293 590.675,-36.2079 590.985,-46.7981 597.522,-44.293"/>
<text text-anchor="start" x="601" y="-57.8" font-family="mono" font-size="14.00" fill="#c83500">descriptions</text>
<text text-anchor="middle" x="579.675" y="-40.0079" font-family="Times,serif" font-size="14.00">0..1</text>
</g>
<!-- string -->
<g id="node10" class="node"><title>string</title>
<polygon fill="#f2f2f2" stroke="none" points="714,-7 714,-28 770,-28 770,-7 714,-7"/>
<polygon fill="none" stroke="#8c8c8c" points="714,-7 714,-28 770,-28 770,-7 714,-7"/>
<text text-anchor="start" x="717" y="-14.8" font-family="mono" font-weight="bold" font-size="14.00">string</text>
</g>
<!-- DataSchema&#45;&gt;string -->
<g id="edge4" class="edge"><title>DataSchema&#45;&gt;string</title>
<path fill="none" stroke="black" d="M690.892,-86.8888C695.699,-80.8608 700.439,-74.8561 705,-69 711.14,-61.1163 717.675,-52.3995 723.517,-44.4817"/>
<polygon fill="black" stroke="black" points="726.441,-46.4141 729.534,-36.2809 720.797,-42.2733 726.441,-46.4141"/>
<text text-anchor="start" x="717" y="-57.8" font-family="mono" font-size="14.00" fill="#c83500">unit</text>
<text text-anchor="middle" x="718.534" y="-40.0809" font-family="Times,serif" font-size="14.00">0..1</text>
</g>
</g>
</svg>
