<?xml version="1.0" encoding="UTF-8" standalone="no"?>
<!DOCTYPE svg PUBLIC "-//W3C//DTD SVG 1.1//EN"
 "http://www.w3.org/Graphics/SVG/1.1/DTD/svg11.dtd">
<!-- Generated by graphviz version 2.44.1 (0)
 -->
<!-- Pages: 1 -->
<svg width="1309pt" height="369pt"
 viewBox="0.00 0.00 1309.00 369.00" xmlns="http://www.w3.org/2000/svg" xmlns:xlink="http://www.w3.org/1999/xlink">
<g id="graph0" class="graph" transform="scale(1 1) rotate(0) translate(4 365)">
<polygon fill="white" stroke="transparent" points="-4,4 -4,-365 1305,-365 1305,4 -4,4"/>
<!-- ArraySchema -->
<g id="node1" class="node">
<title>ArraySchema</title>
<polygon fill="#8ccbf2" stroke="transparent" points="8,-325 8,-346 186,-346 186,-325 8,-325"/>
<polygon fill="none" stroke="#8ccbf2" points="8,-325 8,-346 186,-346 186,-325 8,-325"/>
<text text-anchor="start" x="51.5" y="-332.8" font-family="mono" font-weight="bold" font-size="14.00" fill="#c83500">ArraySchema</text>
<polygon fill="#ddeeff" stroke="transparent" points="8,-304 8,-325 186,-325 186,-304 8,-304"/>
<polygon fill="none" stroke="#8ccbf2" points="8,-304 8,-325 186,-325 186,-304 8,-304"/>
<text text-anchor="start" x="11" y="-311.8" font-family="mono" font-size="14.00" fill="#c83500">minItems</text>
<text text-anchor="start" x="78" y="-311.8" font-family="Times,serif" font-size="14.00"> : </text>
<text text-anchor="start" x="92" y="-311.8" font-family="mono" font-size="14.00" fill="#c83500">unsignedInt</text>
<polygon fill="#ddeeff" stroke="transparent" points="8,-283 8,-304 186,-304 186,-283 8,-283"/>
<polygon fill="none" stroke="#8ccbf2" points="8,-283 8,-304 186,-304 186,-283 8,-283"/>
<text text-anchor="start" x="11" y="-290.8" font-family="mono" font-size="14.00" fill="#c83500">maxItems</text>
<text text-anchor="start" x="78" y="-290.8" font-family="Times,serif" font-size="14.00"> : </text>
<text text-anchor="start" x="92" y="-290.8" font-family="mono" font-size="14.00" fill="#c83500">unsignedInt</text>
</g>
<!-- DataSchema -->
<g id="node3" class="node">
<title>DataSchema</title>
<polygon fill="#8ccbf2" stroke="transparent" points="392,-193 392,-214 825,-214 825,-193 392,-193"/>
<polygon fill="none" stroke="#8ccbf2" points="392,-193 392,-214 825,-214 825,-193 392,-193"/>
<text text-anchor="start" x="567" y="-200.8" font-family="mono" font-weight="bold" font-size="14.00" fill="#c83500">DataSchema</text>
<polygon fill="#ddeeff" stroke="transparent" points="392,-172 392,-193 825,-193 825,-172 392,-172"/>
<polygon fill="none" stroke="#8ccbf2" points="392,-172 392,-193 825,-193 825,-172 392,-172"/>
<text text-anchor="start" x="395" y="-179.8" font-family="mono" font-size="14.00" fill="#c83500">@type</text>
<text text-anchor="start" x="437" y="-179.8" font-family="Times,serif" font-size="14.00"> : </text>
<text text-anchor="start" x="451" y="-179.8" font-family="Times,serif" font-style="italic" font-size="14.00">(Array of) </text>
<text text-anchor="start" x="524" y="-179.8" font-family="mono" font-size="14.00" fill="#c83500">string</text>
<polygon fill="#ddeeff" stroke="transparent" points="392,-151 392,-172 825,-172 825,-151 392,-151"/>
<polygon fill="none" stroke="#8ccbf2" points="392,-151 392,-172 825,-172 825,-151 392,-151"/>
<text text-anchor="start" x="395" y="-158.8" font-family="mono" font-size="14.00" fill="#c83500">title</text>
<text text-anchor="start" x="437" y="-158.8" font-family="Times,serif" font-size="14.00"> : Map of </text>
<text text-anchor="start" x="505" y="-158.8" font-family="mono" font-size="14.00" fill="#c83500">string</text>
<text text-anchor="start" x="555" y="-158.8" font-family="mono" font-size="14.00" fill="#c83500">titles</text>
<text text-anchor="start" x="605" y="-158.8" font-family="Times,serif" font-size="14.00"> : Map of </text>
<text text-anchor="start" x="673" y="-158.8" font-family="mono" font-size="14.00" fill="#c83500">string</text>
<polygon fill="#ddeeff" stroke="transparent" points="392,-130 392,-151 825,-151 825,-130 392,-130"/>
<polygon fill="none" stroke="#8ccbf2" points="392,-130 392,-151 825,-151 825,-130 392,-130"/>
<text text-anchor="start" x="395" y="-137.8" font-family="mono" font-size="14.00" fill="#c83500">description</text>
<text text-anchor="start" x="486" y="-137.8" font-family="Times,serif" font-size="14.00"> : Map of </text>
<text text-anchor="start" x="554" y="-137.8" font-family="mono" font-size="14.00" fill="#c83500">string</text>
<text text-anchor="start" x="604" y="-137.8" font-family="mono" font-size="14.00" fill="#c83500">descriptions</text>
<text text-anchor="start" x="704" y="-137.8" font-family="Times,serif" font-size="14.00"> : Map of </text>
<text text-anchor="start" x="772" y="-137.8" font-family="mono" font-size="14.00" fill="#c83500">string</text>
<polygon fill="#ddeeff" stroke="transparent" points="392,-109 392,-130 825,-130 825,-109 392,-109"/>
<polygon fill="none" stroke="#8ccbf2" points="392,-109 392,-130 825,-130 825,-109 392,-109"/>
<text text-anchor="start" x="395" y="-116.8" font-family="mono" font-size="14.00" fill="#c83500">unit</text>
<text text-anchor="start" x="429" y="-116.8" font-family="Times,serif" font-size="14.00"> : (Array of) </text>
<text text-anchor="start" x="516" y="-116.8" font-family="mono" font-size="14.00" fill="#c83500">string</text>
<polygon fill="#ddeeff" stroke="transparent" points="392,-88 392,-109 825,-109 825,-88 392,-88"/>
<polygon fill="none" stroke="#8ccbf2" points="392,-88 392,-109 825,-109 825,-88 392,-88"/>
<text text-anchor="start" x="395" y="-95.8" font-family="mono" font-size="14.00" fill="#c83500">readOnly</text>
<text text-anchor="start" x="462" y="-95.8" font-family="Times,serif" font-size="14.00"> : </text>
<text text-anchor="start" x="476" y="-95.8" font-family="mono" font-size="14.00" fill="#c83500">boolean</text>
<polygon fill="#ddeeff" stroke="transparent" points="392,-67 392,-88 825,-88 825,-67 392,-67"/>
<polygon fill="none" stroke="#8ccbf2" points="392,-67 392,-88 825,-88 825,-67 392,-67"/>
<text text-anchor="start" x="395" y="-74.8" font-family="mono" font-size="14.00" fill="#c83500">writeOnly</text>
<text text-anchor="start" x="470" y="-74.8" font-family="Times,serif" font-size="14.00"> : </text>
<text text-anchor="start" x="484" y="-74.8" font-family="mono" font-size="14.00" fill="#c83500">boolean</text>
<polygon fill="#ddeeff" stroke="transparent" points="392,-46 392,-67 825,-67 825,-46 392,-46"/>
<polygon fill="none" stroke="#8ccbf2" points="392,-46 392,-67 825,-67 825,-46 392,-46"/>
<text text-anchor="start" x="395" y="-53.8" font-family="mono" font-size="14.00" fill="#c83500">format</text>
<text text-anchor="start" x="445" y="-53.8" font-family="Times,serif" font-size="14.00"> : </text>
<text text-anchor="start" x="459" y="-53.8" font-family="mono" font-size="14.00" fill="#c83500">string</text>
<polygon fill="#ddeeff" stroke="transparent" points="392,-25 392,-46 825,-46 825,-25 392,-25"/>
<polygon fill="none" stroke="#8ccbf2" points="392,-25 392,-46 825,-46 825,-25 392,-25"/>
<text text-anchor="start" x="395" y="-32.8" font-family="mono" font-size="14.00" fill="#c83500">contentEncoding</text>
<text text-anchor="start" x="519" y="-32.8" font-family="Times,serif" font-size="14.00"> : </text>
<text text-anchor="start" x="533" y="-32.8" font-family="mono" font-size="14.00" fill="#c83500">string</text>
<polygon fill="#ddeeff" stroke="transparent" points="392,-4 392,-25 825,-25 825,-4 392,-4"/>
<polygon fill="none" stroke="#8ccbf2" points="392,-4 392,-25 825,-25 825,-4 392,-4"/>
<text text-anchor="start" x="395" y="-11.8" font-family="mono" font-size="14.00" fill="#c83500">contentMediaType</text>
<text text-anchor="start" x="528" y="-11.8" font-family="Times,serif" font-size="14.00"> : </text>
<text text-anchor="start" x="542" y="-11.8" font-family="mono" font-size="14.00" fill="#c83500">string</text>
</g>
<!-- ArraySchema&#45;&gt;DataSchema -->
<g id="edge3" class="edge">
<title>ArraySchema&#45;&gt;DataSchema</title>
<path fill="none" stroke="black" d="M123.36,-279.24C136.49,-264.04 153.51,-247.17 172,-236 233,-199.17 305.3,-172.64 373.32,-153.73"/>
<polygon fill="black" stroke="black" points="374.6,-157.01 383.32,-150.99 372.75,-150.26 374.6,-157.01"/>
<text text-anchor="start" x="172" y="-239.8" font-family="mono" font-size="14.00" fill="#c83500">items</text>
<text text-anchor="middle" x="370.82" y="-154.79" font-family="Times,serif" font-size="14.00">0..*</text>
</g>
<!-- ArraySchema&#45;&gt;DataSchema -->
<g id="edge4" class="edge">
<title>ArraySchema&#45;&gt;DataSchema</title>
<path fill="none" stroke="black" d="M177.64,-279.5C186.19,-275.92 194.76,-272.36 203,-269 258.23,-246.44 317.93,-222.67 374.08,-200.58"/>
<polygon fill="white" stroke="black" points="375.4,-203.82 383.42,-196.9 372.84,-197.31 375.4,-203.82"/>
</g>
<!-- BooleanSchema -->
<g id="node2" class="node">
<title>BooleanSchema</title>
<polygon fill="#8ccbf2" stroke="transparent" points="220,-304 220,-325 334,-325 334,-304 220,-304"/>
<polygon fill="none" stroke="#8ccbf2" points="220,-304 220,-325 334,-325 334,-304 220,-304"/>
<text text-anchor="start" x="223" y="-311.8" font-family="mono" font-weight="bold" font-size="14.00" fill="#c83500">BooleanSchema</text>
</g>
<!-- BooleanSchema&#45;&gt;DataSchema -->
<g id="edge5" class="edge">
<title>BooleanSchema&#45;&gt;DataSchema</title>
<path fill="none" stroke="black" d="M304.65,-296.96C332.15,-280.01 376.89,-252.44 423.65,-223.62"/>
<polygon fill="white" stroke="black" points="425.73,-226.45 432.41,-218.22 422.06,-220.49 425.73,-226.45"/>
</g>
<!-- DataSchema&#45;&gt;DataSchema -->
<g id="edge1" class="edge">
<title>DataSchema&#45;&gt;DataSchema</title>
<path fill="none" stroke="black" d="M832.52,-125.27C843.83,-121.23 850.5,-115.8 850.5,-109 850.5,-104.32 847.35,-100.3 841.7,-96.93"/>
<polygon fill="black" stroke="black" points="843.07,-93.7 832.52,-92.73 840.16,-100.07 843.07,-93.7"/>
<text text-anchor="start" x="850.5" y="-105.3" font-family="mono" font-size="14.00" fill="#c83500">oneOf</text>
<text text-anchor="middle" x="845.02" y="-81.53" font-family="Times,serif" font-size="14.00">0..*</text>
</g>
<!-- IntegerSchema -->
<g id="node4" class="node">
<title>IntegerSchema</title>
<polygon fill="#8ccbf2" stroke="transparent" points="369,-336 369,-357 530,-357 530,-336 369,-336"/>
<polygon fill="none" stroke="#8ccbf2" points="369,-336 369,-357 530,-357 530,-336 369,-336"/>
<text text-anchor="start" x="395.5" y="-343.8" font-family="mono" font-weight="bold" font-size="14.00" fill="#c83500">IntegerSchema</text>
<polygon fill="#ddeeff" stroke="transparent" points="369,-315 369,-336 530,-336 530,-315 369,-315"/>
<polygon fill="none" stroke="#8ccbf2" points="369,-315 369,-336 530,-336 530,-315 369,-315"/>
<text text-anchor="start" x="372" y="-322.8" font-family="mono" font-size="14.00" fill="#c83500">multipleOf</text>
<text text-anchor="start" x="455" y="-322.8" font-family="Times,serif" font-size="14.00"> : </text>
<text text-anchor="start" x="469" y="-322.8" font-family="mono" font-size="14.00" fill="#c83500">integer</text>
<polygon fill="#ddeeff" stroke="transparent" points="369,-294 369,-315 530,-315 530,-294 369,-294"/>
<polygon fill="none" stroke="#8ccbf2" points="369,-294 369,-315 530,-315 530,-294 369,-294"/>
<text text-anchor="start" x="372" y="-301.8" font-family="mono" font-size="14.00" fill="#c83500">minimum</text>
<text text-anchor="start" x="430" y="-301.8" font-family="Times,serif" font-size="14.00"> : </text>
<text text-anchor="start" x="444" y="-301.8" font-family="mono" font-size="14.00" fill="#c83500">integer</text>
<polygon fill="#ddeeff" stroke="transparent" points="369,-273 369,-294 530,-294 530,-273 369,-273"/>
<polygon fill="none" stroke="#8ccbf2" points="369,-273 369,-294 530,-294 530,-273 369,-273"/>
<text text-anchor="start" x="372" y="-280.8" font-family="mono" font-size="14.00" fill="#c83500">maximum</text>
<text text-anchor="start" x="430" y="-280.8" font-family="Times,serif" font-size="14.00"> : </text>
<text text-anchor="start" x="444" y="-280.8" font-family="mono" font-size="14.00" fill="#c83500">integer</text>
</g>
<!-- IntegerSchema&#45;&gt;DataSchema -->
<g id="edge6" class="edge">
<title>IntegerSchema&#45;&gt;DataSchema</title>
<path fill="none" stroke="black" d="M484.09,-268.98C494.14,-256.09 505.58,-241.41 517.35,-226.31"/>
<polygon fill="white" stroke="black" points="520.14,-228.42 523.53,-218.38 514.62,-224.11 520.14,-228.42"/>
</g>
<!-- NullSchema -->
<g id="node5" class="node">
<title>NullSchema</title>
<polygon fill="#8ccbf2" stroke="transparent" points="564,-304 564,-325 653,-325 653,-304 564,-304"/>
<polygon fill="none" stroke="#8ccbf2" points="564,-304 564,-325 653,-325 653,-304 564,-304"/>
<text text-anchor="start" x="567" y="-311.8" font-family="mono" font-weight="bold" font-size="14.00" fill="#c83500">NullSchema</text>
</g>
<!-- NullSchema&#45;&gt;DataSchema -->
<g id="edge7" class="edge">
<title>NullSchema&#45;&gt;DataSchema</title>
<path fill="none" stroke="black" d="M608,-296.96C608,-280.92 608,-255.38 608,-228.27"/>
<polygon fill="white" stroke="black" points="611.5,-228.22 608,-218.22 604.5,-228.22 611.5,-228.22"/>
</g>
<!-- NumberSchema -->
<g id="node6" class="node">
<title>NumberSchema</title>
<polygon fill="#8ccbf2" stroke="transparent" points="687,-336 687,-357 840,-357 840,-336 687,-336"/>
<polygon fill="none" stroke="#8ccbf2" points="687,-336 687,-357 840,-357 840,-336 687,-336"/>
<text text-anchor="start" x="713.5" y="-343.8" font-family="mono" font-weight="bold" font-size="14.00" fill="#c83500">NumberSchema</text>
<polygon fill="#ddeeff" stroke="transparent" points="687,-315 687,-336 840,-336 840,-315 687,-315"/>
<polygon fill="none" stroke="#8ccbf2" points="687,-315 687,-336 840,-336 840,-315 687,-315"/>
<text text-anchor="start" x="690" y="-322.8" font-family="mono" font-size="14.00" fill="#c83500">minimum</text>
<text text-anchor="start" x="748" y="-322.8" font-family="Times,serif" font-size="14.00"> : </text>
<text text-anchor="start" x="762" y="-322.8" font-family="mono" font-size="14.00" fill="#c83500">double</text>
<polygon fill="#ddeeff" stroke="transparent" points="687,-294 687,-315 840,-315 840,-294 687,-294"/>
<polygon fill="none" stroke="#8ccbf2" points="687,-294 687,-315 840,-315 840,-294 687,-294"/>
<text text-anchor="start" x="690" y="-301.8" font-family="mono" font-size="14.00" fill="#c83500">maximum</text>
<text text-anchor="start" x="748" y="-301.8" font-family="Times,serif" font-size="14.00"> : </text>
<text text-anchor="start" x="762" y="-301.8" font-family="mono" font-size="14.00" fill="#c83500">double</text>
<polygon fill="#ddeeff" stroke="transparent" points="687,-273 687,-294 840,-294 840,-273 687,-273"/>
<polygon fill="none" stroke="#8ccbf2" points="687,-273 687,-294 840,-294 840,-273 687,-273"/>
<text text-anchor="start" x="690" y="-280.8" font-family="mono" font-size="14.00" fill="#c83500">multipleOf</text>
<text text-anchor="start" x="773" y="-280.8" font-family="Times,serif" font-size="14.00"> : </text>
<text text-anchor="start" x="787" y="-280.8" font-family="mono" font-size="14.00" fill="#c83500">double</text>
</g>
<!-- NumberSchema&#45;&gt;DataSchema -->
<g id="edge8" class="edge">
<title>NumberSchema&#45;&gt;DataSchema</title>
<path fill="none" stroke="black" d="M728.79,-268.98C719.09,-256.21 708.05,-241.68 696.69,-226.72"/>
<polygon fill="white" stroke="black" points="699.18,-224.22 690.35,-218.38 693.61,-228.46 699.18,-224.22"/>
</g>
<!-- ObjectSchema -->
<g id="node7" class="node">
<title>ObjectSchema</title>
<polygon fill="#8ccbf2" stroke="transparent" points="874,-315 874,-336 1073,-336 1073,-315 874,-315"/>
<polygon fill="none" stroke="#8ccbf2" points="874,-315 874,-336 1073,-336 1073,-315 874,-315"/>
<text text-anchor="start" x="923.5" y="-322.8" font-family="mono" font-weight="bold" font-size="14.00" fill="#c83500">ObjectSchema</text>
<polygon fill="#ddeeff" stroke="transparent" points="874,-294 874,-315 1073,-315 1073,-294 874,-294"/>
<polygon fill="none" stroke="#8ccbf2" points="874,-294 874,-315 1073,-315 1073,-294 874,-294"/>
<text text-anchor="start" x="877" y="-301.8" font-family="mono" font-size="14.00" fill="#c83500">required</text>
<text text-anchor="start" x="944" y="-301.8" font-family="Times,serif" font-size="14.00"> : Array of </text>
<text text-anchor="start" x="1020" y="-301.8" font-family="mono" font-size="14.00" fill="#c83500">string</text>
</g>
<!-- ObjectSchema&#45;&gt;DataSchema -->
<g id="edge2" class="edge">
<title>ObjectSchema&#45;&gt;DataSchema</title>
<path fill="none" stroke="black" d="M917.02,-289.86C892.18,-278.69 862.79,-264.85 837,-251 820.71,-242.25 803.98,-232.84 787.34,-223.17"/>
<polygon fill="black" stroke="black" points="789.05,-220.12 778.65,-218.1 785.52,-226.16 789.05,-220.12"/>
<text text-anchor="start" x="837" y="-239.8" font-family="mono" font-size="14.00" fill="#c83500">properties</text>
<text text-anchor="middle" x="766.15" y="-221.9" font-family="Times,serif" font-size="14.00">0..*</text>
</g>
<!-- ObjectSchema&#45;&gt;DataSchema -->
<g id="edge9" class="edge">
<title>ObjectSchema&#45;&gt;DataSchema</title>
<path fill="none" stroke="black" d="M961.4,-289.7C952.22,-272.69 937.97,-250.5 920,-236 896.41,-216.97 869.57,-200.47 841.76,-186.27"/>
<polygon fill="white" stroke="black" points="843.21,-183.08 832.7,-181.74 840.08,-189.35 843.21,-183.08"/>
</g>
<!-- StringSchema -->
<g id="node8" class="node">
<title>StringSchema</title>
<polygon fill="#8ccbf2" stroke="transparent" points="1107,-325 1107,-346 1293,-346 1293,-325 1107,-325"/>
<polygon fill="none" stroke="#8ccbf2" points="1107,-325 1107,-346 1293,-346 1293,-325 1107,-325"/>
<text text-anchor="start" x="1150" y="-332.8" font-family="mono" font-weight="bold" font-size="14.00" fill="#c83500">StringSchema</text>
<polygon fill="#ddeeff" stroke="transparent" points="1107,-304 1107,-325 1293,-325 1293,-304 1107,-304"/>
<polygon fill="none" stroke="#8ccbf2" points="1107,-304 1107,-325 1293,-325 1293,-304 1107,-304"/>
<text text-anchor="start" x="1110" y="-311.8" font-family="mono" font-size="14.00" fill="#c83500">minLength</text>
<text text-anchor="start" x="1185" y="-311.8" font-family="Times,serif" font-size="14.00"> : </text>
<text text-anchor="start" x="1199" y="-311.8" font-family="mono" font-size="14.00" fill="#c83500">unsignedInt</text>
<polygon fill="#ddeeff" stroke="transparent" points="1107,-283 1107,-304 1293,-304 1293,-283 1107,-283"/>
<polygon fill="none" stroke="#8ccbf2" points="1107,-283 1107,-304 1293,-304 1293,-283 1107,-283"/>
<text text-anchor="start" x="1110" y="-290.8" font-family="mono" font-size="14.00" fill="#c83500">maxLength</text>
<text text-anchor="start" x="1185" y="-290.8" font-family="Times,serif" font-size="14.00"> : </text>
<text text-anchor="start" x="1199" y="-290.8" font-family="mono" font-size="14.00" fill="#c83500">unsignedInt</text>
</g>
<!-- StringSchema&#45;&gt;DataSchema -->
<g id="edge10" class="edge">
<title>StringSchema&#45;&gt;DataSchema</title>
<path fill="none" stroke="black" d="M1117.35,-279.47C1108.16,-275.84 1098.9,-272.29 1090,-269 1009.87,-239.43 921.31,-209.46 842.2,-183.63"/>
<polygon fill="white" stroke="black" points="843.19,-180.27 832.6,-180.5 841.02,-186.93 843.19,-180.27"/>
</g>
</g>
</svg>
