<?xml version="1.0" encoding="UTF-8" standalone="no"?>
<!DOCTYPE svg PUBLIC "-//W3C//DTD SVG 1.1//EN"
 "http://www.w3.org/Graphics/SVG/1.1/DTD/svg11.dtd">
<!-- Generated by graphviz version 2.40.1 (20161225.0304)
 -->
<!-- Title: %3 Pages: 1 -->
<svg width="1156pt" height="351pt"
 viewBox="0.00 0.00 1155.50 351.00" xmlns="http://www.w3.org/2000/svg" xmlns:xlink="http://www.w3.org/1999/xlink">
<g id="graph0" class="graph" transform="scale(1 1) rotate(0) translate(4 347)">
<title>%3</title>
<polygon fill="#ffffff" stroke="transparent" points="-4,4 -4,-347 1151.5,-347 1151.5,4 -4,4"/>
<!-- IntegerSchema -->
<g id="node1" class="node">
<title>IntegerSchema</title>
<polygon fill="#8ccbf2" stroke="transparent" points="8,-317.5 8,-338.5 142,-338.5 142,-317.5 8,-317.5"/>
<polygon fill="none" stroke="#8ccbf2" points="8,-317.5 8,-338.5 142,-338.5 142,-317.5 8,-317.5"/>
<text text-anchor="start" x="21" y="-325.3" font-family="mono" font-weight="bold" font-size="14.00" fill="#c83500">IntegerSchema</text>
<polygon fill="#ddeeff" stroke="transparent" points="8,-296.5 8,-317.5 142,-317.5 142,-296.5 8,-296.5"/>
<polygon fill="none" stroke="#8ccbf2" points="8,-296.5 8,-317.5 142,-317.5 142,-296.5 8,-296.5"/>
<text text-anchor="start" x="11" y="-304.3" font-family="mono" font-size="14.00" fill="#c83500">maximum</text>
<text text-anchor="start" x="69" y="-304.3" font-family="Times,serif" font-size="14.00" fill="#000000"> : </text>
<text text-anchor="start" x="81" y="-304.3" font-family="mono" font-size="14.00" fill="#c83500">integer</text>
<polygon fill="#ddeeff" stroke="transparent" points="8,-275.5 8,-296.5 142,-296.5 142,-275.5 8,-275.5"/>
<polygon fill="none" stroke="#8ccbf2" points="8,-275.5 8,-296.5 142,-296.5 142,-275.5 8,-275.5"/>
<text text-anchor="start" x="11" y="-283.3" font-family="mono" font-size="14.00" fill="#c83500">minimum</text>
<text text-anchor="start" x="69" y="-283.3" font-family="Times,serif" font-size="14.00" fill="#000000"> : </text>
<text text-anchor="start" x="81" y="-283.3" font-family="mono" font-size="14.00" fill="#c83500">integer</text>
</g>
<!-- DataSchema -->
<g id="node8" class="node">
<title>DataSchema</title>
<polygon fill="#8ccbf2" stroke="transparent" points="485,-196 485,-217 750,-217 750,-196 485,-196"/>
<polygon fill="none" stroke="#8ccbf2" points="485,-196 485,-217 750,-217 750,-196 485,-196"/>
<text text-anchor="start" x="576" y="-203.8" font-family="mono" font-weight="bold" font-size="14.00" fill="#c83500">DataSchema</text>
<polygon fill="#ddeeff" stroke="transparent" points="485,-175 485,-196 750,-196 750,-175 485,-175"/>
<polygon fill="none" stroke="#8ccbf2" points="485,-175 485,-196 750,-196 750,-175 485,-175"/>
<text text-anchor="start" x="488" y="-182.8" font-family="mono" font-size="14.00" fill="#c83500">type</text>
<text text-anchor="start" x="522" y="-182.8" font-family="Times,serif" font-size="14.00" fill="#000000"> : </text>
<text text-anchor="start" x="534" y="-182.8" font-family="mono" font-size="14.00" fill="#c83500">string</text>
<polygon fill="#ddeeff" stroke="transparent" points="485,-154 485,-175 750,-175 750,-154 485,-154"/>
<polygon fill="none" stroke="#8ccbf2" points="485,-154 485,-175 750,-175 750,-154 485,-154"/>
<text text-anchor="start" x="488" y="-161.8" font-family="mono" font-size="14.00" fill="#c83500">title</text>
<text text-anchor="start" x="530" y="-161.8" font-family="Times,serif" font-size="14.00" fill="#000000"> : </text>
<text text-anchor="start" x="542" y="-161.8" font-family="mono" font-size="14.00" fill="#c83500">string</text>
<polygon fill="#ddeeff" stroke="transparent" points="485,-133 485,-154 750,-154 750,-133 485,-133"/>
<polygon fill="none" stroke="#8ccbf2" points="485,-133 485,-154 750,-154 750,-133 485,-133"/>
<text text-anchor="start" x="488" y="-140.8" font-family="mono" font-size="14.00" fill="#c83500">description</text>
<text text-anchor="start" x="579" y="-140.8" font-family="Times,serif" font-size="14.00" fill="#000000"> : </text>
<text text-anchor="start" x="591" y="-140.8" font-family="mono" font-size="14.00" fill="#c83500">string</text>
<polygon fill="#ddeeff" stroke="transparent" points="485,-112 485,-133 750,-133 750,-112 485,-112"/>
<polygon fill="none" stroke="#8ccbf2" points="485,-112 485,-133 750,-133 750,-112 485,-112"/>
<text text-anchor="start" x="488" y="-119.8" font-family="mono" font-size="14.00" fill="#c83500">readOnly</text>
<text text-anchor="start" x="555" y="-119.8" font-family="Times,serif" font-size="14.00" fill="#000000"> : </text>
<text text-anchor="start" x="567" y="-119.8" font-family="mono" font-size="14.00" fill="#c83500">boolean</text>
<text text-anchor="start" x="625" y="-119.8" font-family="Times,serif" font-size="14.00" fill="#000000"> = false </text>
<text text-anchor="start" x="671" y="-119.8" font-family="Times,serif" font-style="italic" font-size="14.00" fill="#000000">(mandatory)</text>
<polygon fill="#ddeeff" stroke="transparent" points="485,-91 485,-112 750,-112 750,-91 485,-91"/>
<polygon fill="none" stroke="#8ccbf2" points="485,-91 485,-112 750,-112 750,-91 485,-91"/>
<text text-anchor="start" x="488" y="-98.8" font-family="mono" font-size="14.00" fill="#c83500">writeOnly</text>
<text text-anchor="start" x="563" y="-98.8" font-family="Times,serif" font-size="14.00" fill="#000000"> : </text>
<text text-anchor="start" x="575" y="-98.8" font-family="mono" font-size="14.00" fill="#c83500">boolean</text>
<text text-anchor="start" x="633" y="-98.8" font-family="Times,serif" font-size="14.00" fill="#000000"> = false </text>
<text text-anchor="start" x="679" y="-98.8" font-family="Times,serif" font-style="italic" font-size="14.00" fill="#000000">(mandatory)</text>
</g>
<!-- IntegerSchema&#45;&gt;DataSchema -->
<g id="edge9" class="edge">
<title>IntegerSchema&#45;&gt;DataSchema</title>
<path fill="none" stroke="#000000" d="M150.3534,-275.0347C153.2609,-273.9793 156.1503,-272.9634 159,-272 260.0375,-237.8425 376.454,-207.9689 466.6316,-186.8256"/>
<polygon fill="#ffffff" stroke="#000000" points="467.44,-190.231 476.3825,-184.5493 465.8487,-183.4143 467.44,-190.231"/>
</g>
<!-- StringSchema -->
<g id="node2" class="node">
<title>StringSchema</title>
<polygon fill="#8ccbf2" stroke="transparent" points="176,-296.5 176,-317.5 282,-317.5 282,-296.5 176,-296.5"/>
<polygon fill="none" stroke="#8ccbf2" points="176,-296.5 176,-317.5 282,-317.5 282,-296.5 176,-296.5"/>
<text text-anchor="start" x="179" y="-304.3" font-family="mono" font-weight="bold" font-size="14.00" fill="#c83500">StringSchema</text>
</g>
<!-- StringSchema&#45;&gt;DataSchema -->
<g id="edge13" class="edge">
<title>StringSchema&#45;&gt;DataSchema</title>
<path fill="none" stroke="#000000" d="M262.8068,-289.3757C274.1752,-283.545 287.0151,-277.2423 299,-272 352.9492,-248.4022 413.2714,-225.2355 466.7565,-205.7636"/>
<polygon fill="#ffffff" stroke="#000000" points="468.1065,-208.9971 476.3137,-202.2969 465.7195,-202.4167 468.1065,-208.9971"/>
</g>
<!-- BooleanSchema -->
<g id="node3" class="node">
<title>BooleanSchema</title>
<polygon fill="#8ccbf2" stroke="transparent" points="316,-296.5 316,-317.5 430,-317.5 430,-296.5 316,-296.5"/>
<polygon fill="none" stroke="#8ccbf2" points="316,-296.5 316,-317.5 430,-317.5 430,-296.5 316,-296.5"/>
<text text-anchor="start" x="319" y="-304.3" font-family="mono" font-weight="bold" font-size="14.00" fill="#c83500">BooleanSchema</text>
</g>
<!-- BooleanSchema&#45;&gt;DataSchema -->
<g id="edge10" class="edge">
<title>BooleanSchema&#45;&gt;DataSchema</title>
<path fill="none" stroke="#000000" d="M401.9482,-289.2887C426.8994,-273.592 464.6351,-249.8525 501.5662,-226.6192"/>
<polygon fill="#ffffff" stroke="#000000" points="503.8253,-229.3331 510.4259,-221.0456 500.0978,-223.408 503.8253,-229.3331"/>
</g>
<!-- NumberSchema -->
<g id="node4" class="node">
<title>NumberSchema</title>
<polygon fill="#8ccbf2" stroke="transparent" points="464,-317.5 464,-338.5 590,-338.5 590,-317.5 464,-317.5"/>
<polygon fill="none" stroke="#8ccbf2" points="464,-317.5 464,-338.5 590,-338.5 590,-317.5 464,-317.5"/>
<text text-anchor="start" x="477" y="-325.3" font-family="mono" font-weight="bold" font-size="14.00" fill="#c83500">NumberSchema</text>
<polygon fill="#ddeeff" stroke="transparent" points="464,-296.5 464,-317.5 590,-317.5 590,-296.5 464,-296.5"/>
<polygon fill="none" stroke="#8ccbf2" points="464,-296.5 464,-317.5 590,-317.5 590,-296.5 464,-296.5"/>
<text text-anchor="start" x="467" y="-304.3" font-family="mono" font-size="14.00" fill="#c83500">minimum</text>
<text text-anchor="start" x="525" y="-304.3" font-family="Times,serif" font-size="14.00" fill="#000000"> : </text>
<text text-anchor="start" x="537" y="-304.3" font-family="mono" font-size="14.00" fill="#c83500">double</text>
<polygon fill="#ddeeff" stroke="transparent" points="464,-275.5 464,-296.5 590,-296.5 590,-275.5 464,-275.5"/>
<polygon fill="none" stroke="#8ccbf2" points="464,-275.5 464,-296.5 590,-296.5 590,-275.5 464,-275.5"/>
<text text-anchor="start" x="467" y="-283.3" font-family="mono" font-size="14.00" fill="#c83500">maximum</text>
<text text-anchor="start" x="525" y="-283.3" font-family="Times,serif" font-size="14.00" fill="#000000"> : </text>
<text text-anchor="start" x="537" y="-283.3" font-family="mono" font-size="14.00" fill="#c83500">double</text>
</g>
<!-- NumberSchema&#45;&gt;DataSchema -->
<g id="edge12" class="edge">
<title>NumberSchema&#45;&gt;DataSchema</title>
<path fill="none" stroke="#000000" d="M547.874,-271.8982C555.2968,-259.2382 563.9631,-244.4575 572.5998,-229.727"/>
<polygon fill="#ffffff" stroke="#000000" points="575.6333,-231.473 577.672,-221.0761 569.5947,-227.9324 575.6333,-231.473"/>
</g>
<!-- ObjectSchema -->
<g id="node5" class="node">
<title>ObjectSchema</title>
<polygon fill="#8ccbf2" stroke="transparent" points="625,-307.5 625,-328.5 806,-328.5 806,-307.5 625,-307.5"/>
<polygon fill="none" stroke="#8ccbf2" points="625,-307.5 625,-328.5 806,-328.5 806,-307.5 625,-307.5"/>
<text text-anchor="start" x="665.5" y="-315.3" font-family="mono" font-weight="bold" font-size="14.00" fill="#c83500">ObjectSchema</text>
<polygon fill="#ddeeff" stroke="transparent" points="625,-286.5 625,-307.5 806,-307.5 806,-286.5 625,-286.5"/>
<polygon fill="none" stroke="#8ccbf2" points="625,-286.5 625,-307.5 806,-307.5 806,-286.5 625,-286.5"/>
<text text-anchor="start" x="628" y="-294.3" font-family="mono" font-size="14.00" fill="#c83500">required</text>
<text text-anchor="start" x="695" y="-294.3" font-family="Times,serif" font-size="14.00" fill="#000000"> : array of </text>
<text text-anchor="start" x="753" y="-294.3" font-family="mono" font-size="14.00" fill="#c83500">string</text>
</g>
<!-- ObjectSchema&#45;&gt;DataSchema -->
<g id="edge1" class="edge">
<title>ObjectSchema&#45;&gt;DataSchema</title>
<path fill="none" stroke="#000000" d="M647.214,-282.4294C635.5804,-275.0587 625.0014,-265.723 618,-254 613.8229,-247.0059 611.1434,-239.2161 609.5529,-231.1574"/>
<polygon fill="#000000" stroke="#000000" points="613.0131,-230.6297 608.1254,-221.2296 606.0843,-231.626 613.0131,-230.6297"/>
<text text-anchor="start" x="618" y="-242.8" font-family="mono" font-size="14.00" fill="#c83500">properties</text>
<text text-anchor="middle" x="597.1254" y="-225.0296" font-family="Times,serif" font-size="14.00" fill="#000000">0..1</text>
</g>
<!-- ObjectSchema&#45;&gt;DataSchema -->
<g id="edge8" class="edge">
<title>ObjectSchema&#45;&gt;DataSchema</title>
<path fill="none" stroke="#000000" d="M713.3276,-282.2345C711.597,-268.7628 708.0908,-252.2765 701,-239 699.2605,-235.7431 697.3569,-232.5282 695.3205,-229.3652"/>
<polygon fill="#ffffff" stroke="#000000" points="698.1963,-227.3703 689.6409,-221.1208 692.4318,-231.3415 698.1963,-227.3703"/>
</g>
<!-- ArraySchema -->
<g id="node6" class="node">
<title>ArraySchema</title>
<polygon fill="#8ccbf2" stroke="transparent" points="840,-317.5 840,-338.5 1016,-338.5 1016,-317.5 840,-317.5"/>
<polygon fill="none" stroke="#8ccbf2" points="840,-317.5 840,-338.5 1016,-338.5 1016,-317.5 840,-317.5"/>
<text text-anchor="start" x="882.5" y="-325.3" font-family="mono" font-weight="bold" font-size="14.00" fill="#c83500">ArraySchema</text>
<polygon fill="#ddeeff" stroke="transparent" points="840,-296.5 840,-317.5 1016,-317.5 1016,-296.5 840,-296.5"/>
<polygon fill="none" stroke="#8ccbf2" points="840,-296.5 840,-317.5 1016,-317.5 1016,-296.5 840,-296.5"/>
<text text-anchor="start" x="843" y="-304.3" font-family="mono" font-size="14.00" fill="#c83500">maxItems</text>
<text text-anchor="start" x="910" y="-304.3" font-family="Times,serif" font-size="14.00" fill="#000000"> : </text>
<text text-anchor="start" x="922" y="-304.3" font-family="mono" font-size="14.00" fill="#c83500">unsignedInt</text>
<polygon fill="#ddeeff" stroke="transparent" points="840,-275.5 840,-296.5 1016,-296.5 1016,-275.5 840,-275.5"/>
<polygon fill="none" stroke="#8ccbf2" points="840,-275.5 840,-296.5 1016,-296.5 1016,-275.5 840,-275.5"/>
<text text-anchor="start" x="843" y="-283.3" font-family="mono" font-size="14.00" fill="#c83500">minItems</text>
<text text-anchor="start" x="910" y="-283.3" font-family="Times,serif" font-size="14.00" fill="#000000"> : </text>
<text text-anchor="start" x="922" y="-283.3" font-family="mono" font-size="14.00" fill="#c83500">unsignedInt</text>
</g>
<!-- ArraySchema&#45;&gt;DataSchema -->
<g id="edge2" class="edge">
<title>ArraySchema&#45;&gt;DataSchema</title>
<path fill="none" stroke="#000000" d="M848.7786,-271.8865C836.097,-266.01 823.1534,-259.907 811,-254 792.4652,-244.9915 773.0497,-235.2972 753.9643,-225.6152"/>
<polygon fill="#000000" stroke="#000000" points="755.4263,-222.4322 744.9262,-221.0188 752.2532,-228.6717 755.4263,-222.4322"/>
<text text-anchor="start" x="811" y="-242.8" font-family="mono" font-size="14.00" fill="#c83500">items</text>
<text text-anchor="middle" x="733.9262" y="-224.8188" font-family="Times,serif" font-size="14.00" fill="#000000">0..1</text>
</g>
<!-- ArraySchema&#45;&gt;DataSchema -->
<g id="edge7" class="edge">
<title>ArraySchema&#45;&gt;DataSchema</title>
<path fill="none" stroke="#000000" d="M894.8399,-271.9865C882.5505,-260.3072 867.9476,-248.0195 853,-239 826.5043,-223.0124 796.5343,-209.3512 767.0602,-197.9567"/>
<polygon fill="#ffffff" stroke="#000000" points="768.1045,-194.6096 757.5131,-194.3368 765.6227,-201.1549 768.1045,-194.6096"/>
</g>
<!-- NullSchema -->
<g id="node7" class="node">
<title>NullSchema</title>
<polygon fill="#8ccbf2" stroke="transparent" points="1051,-296.5 1051,-317.5 1140,-317.5 1140,-296.5 1051,-296.5"/>
<polygon fill="none" stroke="#8ccbf2" points="1051,-296.5 1051,-317.5 1140,-317.5 1140,-296.5 1051,-296.5"/>
<text text-anchor="start" x="1054" y="-304.3" font-family="mono" font-weight="bold" font-size="14.00" fill="#c83500">NullSchema</text>
</g>
<!-- NullSchema&#45;&gt;DataSchema -->
<g id="edge11" class="edge">
<title>NullSchema&#45;&gt;DataSchema</title>
<path fill="none" stroke="#000000" d="M1066.7269,-289.3767C1056.3944,-283.2786 1044.433,-276.8096 1033,-272 947.5542,-236.0549 847.7518,-207.3321 767.322,-187.2273"/>
<polygon fill="#ffffff" stroke="#000000" points="768.1604,-183.8293 757.6118,-184.8183 766.4748,-190.6233 768.1604,-183.8293"/>
</g>
<!-- DataSchema&#45;&gt;DataSchema -->
<g id="edge5" class="edge">
<title>DataSchema&#45;&gt;DataSchema</title>
<path fill="none" stroke="#000000" d="M757.658,-167.0712C768.6878,-164.1969 775.5,-159.8398 775.5,-154 775.5,-150.1676 772.5662,-146.9738 767.432,-144.4185"/>
<polygon fill="#000000" stroke="#000000" points="768.2526,-140.9952 757.658,-140.9288 765.8988,-147.5876 768.2526,-140.9952"/>
<text text-anchor="start" x="775.5" y="-150.3" font-family="mono" font-size="14.00" fill="#c83500">oneOf</text>
<text text-anchor="middle" x="768.658" y="-129.7288" font-family="Times,serif" font-size="14.00" fill="#000000">0..*</text>
</g>
<!-- string -->
<g id="node9" class="node">
<title>string</title>
<polygon fill="#f2f2f2" stroke="transparent" points="532,-7 532,-28 588,-28 588,-7 532,-7"/>
<polygon fill="none" stroke="#8c8c8c" points="532,-7 532,-28 588,-28 588,-7 532,-7"/>
<text text-anchor="start" x="535" y="-14.8" font-family="mono" font-weight="bold" font-size="14.00" fill="#000000">string</text>
</g>
<!-- DataSchema&#45;&gt;string -->
<g id="edge3" class="edge">
<title>DataSchema&#45;&gt;string</title>
<path fill="none" stroke="#000000" d="M567.9549,-86.5384C565.2136,-80.7874 562.8342,-74.9069 561,-69 558.7866,-61.8719 557.9222,-53.9095 557.7585,-46.4347"/>
<polygon fill="#000000" stroke="#000000" points="561.2597,-46.3868 557.926,-36.3302 554.2606,-46.2707 561.2597,-46.3868"/>
<text text-anchor="start" x="561" y="-57.8" font-family="mono" font-size="14.00" fill="#c83500">unit</text>
<text text-anchor="middle" x="546.926" y="-40.1302" font-family="Times,serif" font-size="14.00" fill="#000000">0..1</text>
</g>
<!-- MultiLanguage -->
<g id="node10" class="node">
<title>MultiLanguage</title>
<polygon fill="#f2f2f2" stroke="transparent" points="627,-7 627,-28 741,-28 741,-7 627,-7"/>
<polygon fill="none" stroke="#8c8c8c" points="627,-7 627,-28 741,-28 741,-7 627,-7"/>
<text text-anchor="start" x="630" y="-14.8" font-family="mono" font-weight="bold" font-size="14.00" fill="#000000">MultiLanguage</text>
</g>
<!-- DataSchema&#45;&gt;MultiLanguage -->
<g id="edge4" class="edge">
<title>DataSchema&#45;&gt;MultiLanguage</title>
<path fill="none" stroke="#000000" d="M608.0873,-86.7476C609.1779,-75.2294 612.1014,-63.8241 618,-54 620.6612,-49.5677 624.0789,-45.6452 627.9553,-42.1807"/>
<polygon fill="#000000" stroke="#000000" points="630.1063,-44.9419 635.897,-36.0695 625.8373,-39.3943 630.1063,-44.9419"/>
<text text-anchor="start" x="618" y="-57.8" font-family="mono" font-size="14.00" fill="#c83500">titles</text>
<text text-anchor="middle" x="624.897" y="-39.8695" font-family="Times,serif" font-size="14.00" fill="#000000">0..1</text>
</g>
<!-- DataSchema&#45;&gt;MultiLanguage -->
<g id="edge6" class="edge">
<title>DataSchema&#45;&gt;MultiLanguage</title>
<path fill="none" stroke="#000000" d="M659.3833,-86.5656C662.4704,-80.7133 665.3907,-74.8083 668,-69 671.2417,-61.7838 674.0987,-53.7181 676.4677,-46.1689"/>
<polygon fill="#000000" stroke="#000000" points="679.8999,-46.9053 679.386,-36.323 673.1885,-44.916 679.8999,-46.9053"/>
<text text-anchor="start" x="674" y="-57.8" font-family="mono" font-size="14.00" fill="#c83500">descriptions</text>
<text text-anchor="middle" x="668.386" y="-40.123" font-family="Times,serif" font-size="14.00" fill="#000000">0..1</text>
</g>
</g>
</svg>
