<?xml version="1.0" encoding="UTF-8" standalone="no"?>
<!DOCTYPE svg PUBLIC "-//W3C//DTD SVG 1.1//EN"
 "http://www.w3.org/Graphics/SVG/1.1/DTD/svg11.dtd">
<!-- Generated by graphviz version 2.38.0 (20140413.2041)
 -->
<!-- Title: %3 Pages: 1 -->
<svg width="1032pt" height="264pt"
 viewBox="0.00 0.00 1032.00 264.00" xmlns="http://www.w3.org/2000/svg" xmlns:xlink="http://www.w3.org/1999/xlink">
<g id="graph0" class="graph" transform="scale(1 1) rotate(0) translate(4 260)">
<title>%3</title>
<polygon fill="white" stroke="none" points="-4,4 -4,-260 1028,-260 1028,4 -4,4"/>
<!-- IntegerSchema -->
<g id="node1" class="node"><title>IntegerSchema</title>
<polygon fill="#8ccbf2" stroke="none" points="8,-230.5 8,-251.5 142,-251.5 142,-230.5 8,-230.5"/>
<polygon fill="none" stroke="#8ccbf2" points="8,-230.5 8,-251.5 142,-251.5 142,-230.5 8,-230.5"/>
<text text-anchor="start" x="21" y="-238.3" font-family="mono" font-weight="bold" font-size="14.00" fill="#c83500">IntegerSchema</text>
<polygon fill="#ddeeff" stroke="none" points="8,-209.5 8,-230.5 142,-230.5 142,-209.5 8,-209.5"/>
<polygon fill="none" stroke="#8ccbf2" points="8,-209.5 8,-230.5 142,-230.5 142,-209.5 8,-209.5"/>
<text text-anchor="start" x="11" y="-217.3" font-family="mono" font-size="14.00" fill="#c83500">minimum</text>
<text text-anchor="start" x="69" y="-217.3" font-family="Times,serif" font-size="14.00"> : </text>
<text text-anchor="start" x="81" y="-217.3" font-family="mono" font-size="14.00" fill="#c83500">integer</text>
<polygon fill="#ddeeff" stroke="none" points="8,-188.5 8,-209.5 142,-209.5 142,-188.5 8,-188.5"/>
<polygon fill="none" stroke="#8ccbf2" points="8,-188.5 8,-209.5 142,-209.5 142,-188.5 8,-188.5"/>
<text text-anchor="start" x="11" y="-196.3" font-family="mono" font-size="14.00" fill="#c83500">maximum</text>
<text text-anchor="start" x="69" y="-196.3" font-family="Times,serif" font-size="14.00"> : </text>
<text text-anchor="start" x="81" y="-196.3" font-family="mono" font-size="14.00" fill="#c83500">integer</text>
</g>
<!-- DataSchema -->
<g id="node7" class="node"><title>DataSchema</title>
<polygon fill="#8ccbf2" stroke="none" points="425,-109 425,-130 690,-130 690,-109 425,-109"/>
<polygon fill="none" stroke="#8ccbf2" points="425,-109 425,-130 690,-130 690,-109 425,-109"/>
<text text-anchor="start" x="516" y="-116.8" font-family="mono" font-weight="bold" font-size="14.00" fill="#c83500">DataSchema</text>
<polygon fill="#ddeeff" stroke="none" points="425,-88 425,-109 690,-109 690,-88 425,-88"/>
<polygon fill="none" stroke="#8ccbf2" points="425,-88 425,-109 690,-109 690,-88 425,-88"/>
<text text-anchor="start" x="428" y="-95.8" font-family="mono" font-size="14.00" fill="#c83500">type</text>
<text text-anchor="start" x="462" y="-95.8" font-family="Times,serif" font-size="14.00"> : </text>
<text text-anchor="start" x="474" y="-95.8" font-family="mono" font-size="14.00" fill="#c83500">string</text>
<polygon fill="#ddeeff" stroke="none" points="425,-67 425,-88 690,-88 690,-67 425,-67"/>
<polygon fill="none" stroke="#8ccbf2" points="425,-67 425,-88 690,-88 690,-67 425,-67"/>
<text text-anchor="start" x="428" y="-74.8" font-family="mono" font-size="14.00" fill="#c83500">readOnly</text>
<text text-anchor="start" x="495" y="-74.8" font-family="Times,serif" font-size="14.00"> : </text>
<text text-anchor="start" x="507" y="-74.8" font-family="mono" font-size="14.00" fill="#c83500">boolean</text>
<text text-anchor="start" x="565" y="-74.8" font-family="Times,serif" font-size="14.00"> = false </text>
<text text-anchor="start" x="611" y="-74.8" font-family="Times,serif" font-style="italic" font-size="14.00">(mandatory)</text>
<polygon fill="#ddeeff" stroke="none" points="425,-46 425,-67 690,-67 690,-46 425,-46"/>
<polygon fill="none" stroke="#8ccbf2" points="425,-46 425,-67 690,-67 690,-46 425,-46"/>
<text text-anchor="start" x="428" y="-53.8" font-family="mono" font-size="14.00" fill="#c83500">description</text>
<text text-anchor="start" x="519" y="-53.8" font-family="Times,serif" font-size="14.00"> : </text>
<text text-anchor="start" x="531" y="-53.8" font-family="mono" font-size="14.00" fill="#c83500">string</text>
<polygon fill="#ddeeff" stroke="none" points="425,-25 425,-46 690,-46 690,-25 425,-25"/>
<polygon fill="none" stroke="#8ccbf2" points="425,-25 425,-46 690,-46 690,-25 425,-25"/>
<text text-anchor="start" x="428" y="-32.8" font-family="mono" font-size="14.00" fill="#c83500">title</text>
<text text-anchor="start" x="470" y="-32.8" font-family="Times,serif" font-size="14.00"> : </text>
<text text-anchor="start" x="482" y="-32.8" font-family="mono" font-size="14.00" fill="#c83500">string</text>
<polygon fill="#ddeeff" stroke="none" points="425,-4 425,-25 690,-25 690,-4 425,-4"/>
<polygon fill="none" stroke="#8ccbf2" points="425,-4 425,-25 690,-25 690,-4 425,-4"/>
<text text-anchor="start" x="428" y="-11.8" font-family="mono" font-size="14.00" fill="#c83500">writeOnly</text>
<text text-anchor="start" x="503" y="-11.8" font-family="Times,serif" font-size="14.00"> : </text>
<text text-anchor="start" x="515" y="-11.8" font-family="mono" font-size="14.00" fill="#c83500">boolean</text>
<text text-anchor="start" x="573" y="-11.8" font-family="Times,serif" font-size="14.00"> = false </text>
<text text-anchor="start" x="619" y="-11.8" font-family="Times,serif" font-style="italic" font-size="14.00">(mandatory)</text>
</g>
<!-- IntegerSchema&#45;&gt;DataSchema -->
<g id="edge5" class="edge"><title>IntegerSchema&#45;&gt;DataSchema</title>
<path fill="none" stroke="black" d="M150.414,-188.095C153.305,-187.028 156.174,-185.993 159,-185 239.801,-156.617 331.409,-129.358 406.352,-108.302"/>
<polygon fill="white" stroke="black" points="407.658,-111.571 416.343,-105.504 405.77,-104.831 407.658,-111.571"/>
</g>
<!-- StringSchema -->
<g id="node2" class="node"><title>StringSchema</title>
<polygon fill="#8ccbf2" stroke="none" points="176,-209.5 176,-230.5 282,-230.5 282,-209.5 176,-209.5"/>
<polygon fill="none" stroke="#8ccbf2" points="176,-209.5 176,-230.5 282,-230.5 282,-209.5 176,-209.5"/>
<text text-anchor="start" x="179" y="-217.3" font-family="mono" font-weight="bold" font-size="14.00" fill="#c83500">StringSchema</text>
</g>
<!-- StringSchema&#45;&gt;DataSchema -->
<g id="edge10" class="edge"><title>StringSchema&#45;&gt;DataSchema</title>
<path fill="none" stroke="black" d="M263.073,-202.434C274.459,-196.804 287.242,-190.562 299,-185 333.792,-168.542 371.423,-151.213 406.904,-135.084"/>
<polygon fill="white" stroke="black" points="408.703,-138.111 416.362,-130.79 405.809,-131.737 408.703,-138.111"/>
</g>
<!-- BooleanSchema -->
<g id="node3" class="node"><title>BooleanSchema</title>
<polygon fill="#8ccbf2" stroke="none" points="316,-209.5 316,-230.5 430,-230.5 430,-209.5 316,-209.5"/>
<polygon fill="none" stroke="#8ccbf2" points="316,-209.5 316,-230.5 430,-230.5 430,-209.5 316,-209.5"/>
<text text-anchor="start" x="319" y="-217.3" font-family="mono" font-weight="bold" font-size="14.00" fill="#c83500">BooleanSchema</text>
</g>
<!-- BooleanSchema&#45;&gt;DataSchema -->
<g id="edge8" class="edge"><title>BooleanSchema&#45;&gt;DataSchema</title>
<path fill="none" stroke="black" d="M393.749,-202.416C412.306,-187.137 440.827,-163.654 468.867,-140.566"/>
<polygon fill="white" stroke="black" points="471.26,-143.13 476.755,-134.071 466.81,-137.726 471.26,-143.13"/>
</g>
<!-- NumberSchema -->
<g id="node4" class="node"><title>NumberSchema</title>
<polygon fill="#8ccbf2" stroke="none" points="464,-230.5 464,-251.5 590,-251.5 590,-230.5 464,-230.5"/>
<polygon fill="none" stroke="#8ccbf2" points="464,-230.5 464,-251.5 590,-251.5 590,-230.5 464,-230.5"/>
<text text-anchor="start" x="477" y="-238.3" font-family="mono" font-weight="bold" font-size="14.00" fill="#c83500">NumberSchema</text>
<polygon fill="#ddeeff" stroke="none" points="464,-209.5 464,-230.5 590,-230.5 590,-209.5 464,-209.5"/>
<polygon fill="none" stroke="#8ccbf2" points="464,-209.5 464,-230.5 590,-230.5 590,-209.5 464,-209.5"/>
<text text-anchor="start" x="467" y="-217.3" font-family="mono" font-size="14.00" fill="#c83500">minimum</text>
<text text-anchor="start" x="525" y="-217.3" font-family="Times,serif" font-size="14.00"> : </text>
<text text-anchor="start" x="537" y="-217.3" font-family="mono" font-size="14.00" fill="#c83500">double</text>
<polygon fill="#ddeeff" stroke="none" points="464,-188.5 464,-209.5 590,-209.5 590,-188.5 464,-188.5"/>
<polygon fill="none" stroke="#8ccbf2" points="464,-188.5 464,-209.5 590,-209.5 590,-188.5 464,-188.5"/>
<text text-anchor="start" x="467" y="-196.3" font-family="mono" font-size="14.00" fill="#c83500">maximum</text>
<text text-anchor="start" x="525" y="-196.3" font-family="Times,serif" font-size="14.00"> : </text>
<text text-anchor="start" x="537" y="-196.3" font-family="mono" font-size="14.00" fill="#c83500">double</text>
</g>
<!-- NumberSchema&#45;&gt;DataSchema -->
<g id="edge9" class="edge"><title>NumberSchema&#45;&gt;DataSchema</title>
<path fill="none" stroke="black" d="M533.883,-184.743C536.3,-172.534 539.12,-158.293 541.943,-144.038"/>
<polygon fill="white" stroke="black" points="545.383,-144.681 543.893,-134.192 538.517,-143.321 545.383,-144.681"/>
</g>
<!-- ObjectSchema -->
<g id="node5" class="node"><title>ObjectSchema</title>
<polygon fill="#8ccbf2" stroke="none" points="625,-220.5 625,-241.5 806,-241.5 806,-220.5 625,-220.5"/>
<polygon fill="none" stroke="#8ccbf2" points="625,-220.5 625,-241.5 806,-241.5 806,-220.5 625,-220.5"/>
<text text-anchor="start" x="665.5" y="-228.3" font-family="mono" font-weight="bold" font-size="14.00" fill="#c83500">ObjectSchema</text>
<polygon fill="#ddeeff" stroke="none" points="625,-199.5 625,-220.5 806,-220.5 806,-199.5 625,-199.5"/>
<polygon fill="none" stroke="#8ccbf2" points="625,-199.5 625,-220.5 806,-220.5 806,-199.5 625,-199.5"/>
<text text-anchor="start" x="628" y="-207.3" font-family="mono" font-size="14.00" fill="#c83500">required</text>
<text text-anchor="start" x="695" y="-207.3" font-family="Times,serif" font-size="14.00"> : array of </text>
<text text-anchor="start" x="753" y="-207.3" font-family="mono" font-size="14.00" fill="#c83500">string</text>
</g>
<!-- ObjectSchema&#45;&gt;DataSchema -->
<g id="edge1" class="edge"><title>ObjectSchema&#45;&gt;DataSchema</title>
<path fill="none" stroke="black" d="M644.131,-195.425C629.264,-188.006 614.597,-178.636 603,-167 596.026,-160.003 589.985,-151.751 584.787,-143.045"/>
<polygon fill="black" stroke="black" points="587.792,-141.247 579.865,-134.217 581.678,-144.656 587.792,-141.247"/>
<text text-anchor="start" x="603" y="-155.8" font-family="mono" font-size="14.00" fill="#c83500">properties</text>
<text text-anchor="middle" x="568.865" y="-138.017" font-family="Times,serif" font-size="14.00">0..1</text>
</g>
<!-- ObjectSchema&#45;&gt;DataSchema -->
<g id="edge6" class="edge"><title>ObjectSchema&#45;&gt;DataSchema</title>
<path fill="none" stroke="black" d="M708.493,-195.439C703.877,-181.629 696.596,-164.587 686,-152 682.883,-148.297 679.562,-144.698 676.081,-141.206"/>
<polygon fill="white" stroke="black" points="678.376,-138.56 668.724,-134.191 673.546,-143.625 678.376,-138.56"/>
</g>
<!-- ArraySchema -->
<g id="node6" class="node"><title>ArraySchema</title>
<polygon fill="#8ccbf2" stroke="none" points="840,-230.5 840,-251.5 1016,-251.5 1016,-230.5 840,-230.5"/>
<polygon fill="none" stroke="#8ccbf2" points="840,-230.5 840,-251.5 1016,-251.5 1016,-230.5 840,-230.5"/>
<text text-anchor="start" x="882.5" y="-238.3" font-family="mono" font-weight="bold" font-size="14.00" fill="#c83500">ArraySchema</text>
<polygon fill="#ddeeff" stroke="none" points="840,-209.5 840,-230.5 1016,-230.5 1016,-209.5 840,-209.5"/>
<polygon fill="none" stroke="#8ccbf2" points="840,-209.5 840,-230.5 1016,-230.5 1016,-209.5 840,-209.5"/>
<text text-anchor="start" x="843" y="-217.3" font-family="mono" font-size="14.00" fill="#c83500">minItems</text>
<text text-anchor="start" x="910" y="-217.3" font-family="Times,serif" font-size="14.00"> : </text>
<text text-anchor="start" x="922" y="-217.3" font-family="mono" font-size="14.00" fill="#c83500">unsignedInt</text>
<polygon fill="#ddeeff" stroke="none" points="840,-188.5 840,-209.5 1016,-209.5 1016,-188.5 840,-188.5"/>
<polygon fill="none" stroke="#8ccbf2" points="840,-188.5 840,-209.5 1016,-209.5 1016,-188.5 840,-188.5"/>
<text text-anchor="start" x="843" y="-196.3" font-family="mono" font-size="14.00" fill="#c83500">maxItems</text>
<text text-anchor="start" x="910" y="-196.3" font-family="Times,serif" font-size="14.00"> : </text>
<text text-anchor="start" x="922" y="-196.3" font-family="mono" font-size="14.00" fill="#c83500">unsignedInt</text>
</g>
<!-- ArraySchema&#45;&gt;DataSchema -->
<g id="edge2" class="edge"><title>ArraySchema&#45;&gt;DataSchema</title>
<path fill="none" stroke="black" d="M843.35,-184.933C803.035,-168.47 753.588,-148.278 707.2,-129.335"/>
<polygon fill="black" stroke="black" points="708.241,-125.979 697.66,-125.439 705.594,-132.46 708.241,-125.979"/>
<text text-anchor="start" x="798" y="-155.8" font-family="mono" font-size="14.00" fill="#c83500">items</text>
<text text-anchor="middle" x="708.66" y="-129.239" font-family="Times,serif" font-size="14.00">0..1</text>
</g>
<!-- ArraySchema&#45;&gt;DataSchema -->
<g id="edge7" class="edge"><title>ArraySchema&#45;&gt;DataSchema</title>
<path fill="none" stroke="black" d="M891.333,-184.841C877.362,-173.089 860.753,-160.739 844,-152 801.76,-129.965 752.924,-112.934 707.65,-100.151"/>
<polygon fill="white" stroke="black" points="708.317,-96.7036 697.745,-97.405 706.447,-103.449 708.317,-96.7036"/>
</g>
<!-- DataSchema&#45;&gt;DataSchema -->
<g id="edge3" class="edge"><title>DataSchema&#45;&gt;DataSchema</title>
<path fill="none" stroke="black" d="M697.658,-73.5356C708.688,-72.0985 715.5,-69.9199 715.5,-67 715.5,-65.1294 712.704,-63.5631 707.795,-62.3011"/>
<polygon fill="black" stroke="black" points="708.122,-58.8034 697.658,-60.4644 706.874,-65.6912 708.122,-58.8034"/>
<text text-anchor="start" x="715.5" y="-63.3" font-family="mono" font-size="14.00" fill="#c83500">oneOf</text>
<text text-anchor="middle" x="708.658" y="-49.2644" font-family="Times,serif" font-size="14.00">0..*</text>
</g>
<!-- DataSchema&#45;&gt;DataSchema -->
<g id="edge4" class="edge"><title>DataSchema&#45;&gt;DataSchema</title>
<path fill="none" stroke="black" d="M697.781,-83.8699C731.817,-82.4163 757.5,-76.793 757.5,-67 757.5,-58.2016 736.769,-52.769 707.875,-50.702"/>
<polygon fill="black" stroke="black" points="707.963,-47.2015 697.781,-50.1301 707.567,-54.1903 707.963,-47.2015"/>
<text text-anchor="start" x="757.5" y="-63.3" font-family="mono" font-size="14.00" fill="#c83500">unit</text>
<text text-anchor="middle" x="708.781" y="-38.9301" font-family="Times,serif" font-size="14.00">0..1</text>
</g>
</g>
</svg>
