<?xml version="1.0" encoding="UTF-8" standalone="no"?>
<!DOCTYPE svg PUBLIC "-//W3C//DTD SVG 1.1//EN"
 "http://www.w3.org/Graphics/SVG/1.1/DTD/svg11.dtd">
<!-- Generated by graphviz version 2.38.0 (20140413.2041)
 -->
<!-- Title: %3 Pages: 1 -->
<svg width="1156pt" height="351pt"
 viewBox="0.00 0.00 1155.50 351.00" xmlns="http://www.w3.org/2000/svg" xmlns:xlink="http://www.w3.org/1999/xlink">
<g id="graph0" class="graph" transform="scale(1 1) rotate(0) translate(4 347)">
<title>%3</title>
<polygon fill="white" stroke="none" points="-4,4 -4,-347 1151.5,-347 1151.5,4 -4,4"/>
<!-- IntegerSchema -->
<g id="node1" class="node"><title>IntegerSchema</title>
<polygon fill="#8ccbf2" stroke="none" points="8,-317.5 8,-338.5 142,-338.5 142,-317.5 8,-317.5"/>
<polygon fill="none" stroke="#8ccbf2" points="8,-317.5 8,-338.5 142,-338.5 142,-317.5 8,-317.5"/>
<text text-anchor="start" x="21" y="-325.3" font-family="mono" font-weight="bold" font-size="14.00" fill="#c83500">IntegerSchema</text>
<polygon fill="#ddeeff" stroke="none" points="8,-296.5 8,-317.5 142,-317.5 142,-296.5 8,-296.5"/>
<polygon fill="none" stroke="#8ccbf2" points="8,-296.5 8,-317.5 142,-317.5 142,-296.5 8,-296.5"/>
<text text-anchor="start" x="11" y="-304.3" font-family="mono" font-size="14.00" fill="#c83500">minimum</text>
<text text-anchor="start" x="69" y="-304.3" font-family="Times,serif" font-size="14.00"> : </text>
<text text-anchor="start" x="81" y="-304.3" font-family="mono" font-size="14.00" fill="#c83500">integer</text>
<polygon fill="#ddeeff" stroke="none" points="8,-275.5 8,-296.5 142,-296.5 142,-275.5 8,-275.5"/>
<polygon fill="none" stroke="#8ccbf2" points="8,-275.5 8,-296.5 142,-296.5 142,-275.5 8,-275.5"/>
<text text-anchor="start" x="11" y="-283.3" font-family="mono" font-size="14.00" fill="#c83500">maximum</text>
<text text-anchor="start" x="69" y="-283.3" font-family="Times,serif" font-size="14.00"> : </text>
<text text-anchor="start" x="81" y="-283.3" font-family="mono" font-size="14.00" fill="#c83500">integer</text>
</g>
<!-- DataSchema -->
<g id="node8" class="node"><title>DataSchema</title>
<polygon fill="#8ccbf2" stroke="none" points="506,-196 506,-217 729,-217 729,-196 506,-196"/>
<polygon fill="none" stroke="#8ccbf2" points="506,-196 506,-217 729,-217 729,-196 506,-196"/>
<text text-anchor="start" x="576" y="-203.8" font-family="mono" font-weight="bold" font-size="14.00" fill="#c83500">DataSchema</text>
<polygon fill="#ddeeff" stroke="none" points="506,-175 506,-196 729,-196 729,-175 506,-175"/>
<polygon fill="none" stroke="#8ccbf2" points="506,-175 506,-196 729,-196 729,-175 506,-175"/>
<text text-anchor="start" x="509" y="-182.8" font-family="mono" font-size="14.00" fill="#c83500">type</text>
<text text-anchor="start" x="543" y="-182.8" font-family="Times,serif" font-size="14.00"> : </text>
<text text-anchor="start" x="555" y="-182.8" font-family="mono" font-size="14.00" fill="#c83500">string</text>
<polygon fill="#ddeeff" stroke="none" points="506,-154 506,-175 729,-175 729,-154 506,-154"/>
<polygon fill="none" stroke="#8ccbf2" points="506,-154 506,-175 729,-175 729,-154 506,-154"/>
<text text-anchor="start" x="509" y="-161.8" font-family="mono" font-size="14.00" fill="#c83500">writeOnly</text>
<text text-anchor="start" x="584" y="-161.8" font-family="Times,serif" font-size="14.00"> : </text>
<text text-anchor="start" x="596" y="-161.8" font-family="mono" font-size="14.00" fill="#c83500">boolean</text>
<text text-anchor="start" x="654" y="-161.8" font-family="Times,serif" font-size="14.00"> </text>
<text text-anchor="start" x="658" y="-161.8" font-family="Times,serif" font-style="italic" font-size="14.00">(mandatory)</text>
<polygon fill="#ddeeff" stroke="none" points="506,-133 506,-154 729,-154 729,-133 506,-133"/>
<polygon fill="none" stroke="#8ccbf2" points="506,-133 506,-154 729,-154 729,-133 506,-133"/>
<text text-anchor="start" x="509" y="-140.8" font-family="mono" font-size="14.00" fill="#c83500">description</text>
<text text-anchor="start" x="600" y="-140.8" font-family="Times,serif" font-size="14.00"> : </text>
<text text-anchor="start" x="612" y="-140.8" font-family="mono" font-size="14.00" fill="#c83500">string</text>
<polygon fill="#ddeeff" stroke="none" points="506,-112 506,-133 729,-133 729,-112 506,-112"/>
<polygon fill="none" stroke="#8ccbf2" points="506,-112 506,-133 729,-133 729,-112 506,-112"/>
<text text-anchor="start" x="509" y="-119.8" font-family="mono" font-size="14.00" fill="#c83500">readOnly</text>
<text text-anchor="start" x="576" y="-119.8" font-family="Times,serif" font-size="14.00"> : </text>
<text text-anchor="start" x="588" y="-119.8" font-family="mono" font-size="14.00" fill="#c83500">boolean</text>
<text text-anchor="start" x="646" y="-119.8" font-family="Times,serif" font-size="14.00"> </text>
<text text-anchor="start" x="650" y="-119.8" font-family="Times,serif" font-style="italic" font-size="14.00">(mandatory)</text>
<polygon fill="#ddeeff" stroke="none" points="506,-91 506,-112 729,-112 729,-91 506,-91"/>
<polygon fill="none" stroke="#8ccbf2" points="506,-91 506,-112 729,-112 729,-91 506,-91"/>
<text text-anchor="start" x="509" y="-98.8" font-family="mono" font-size="14.00" fill="#c83500">title</text>
<text text-anchor="start" x="551" y="-98.8" font-family="Times,serif" font-size="14.00"> : </text>
<text text-anchor="start" x="563" y="-98.8" font-family="mono" font-size="14.00" fill="#c83500">string</text>
</g>
<!-- IntegerSchema&#45;&gt;DataSchema -->
<g id="edge8" class="edge"><title>IntegerSchema&#45;&gt;DataSchema</title>
<path fill="none" stroke="black" d="M150.369,-274.964C153.272,-273.934 156.157,-272.942 159,-272 267.989,-235.893 394.638,-204.308 487.096,-183.086"/>
<polygon fill="white" stroke="black" points="488.095,-186.448 497.064,-180.808 486.535,-179.624 488.095,-186.448"/>
</g>
<!-- StringSchema -->
<g id="node2" class="node"><title>StringSchema</title>
<polygon fill="#8ccbf2" stroke="none" points="176,-296.5 176,-317.5 282,-317.5 282,-296.5 176,-296.5"/>
<polygon fill="none" stroke="#8ccbf2" points="176,-296.5 176,-317.5 282,-317.5 282,-296.5 176,-296.5"/>
<text text-anchor="start" x="179" y="-304.3" font-family="mono" font-weight="bold" font-size="14.00" fill="#c83500">StringSchema</text>
</g>
<!-- StringSchema&#45;&gt;DataSchema -->
<g id="edge13" class="edge"><title>StringSchema&#45;&gt;DataSchema</title>
<path fill="none" stroke="black" d="M261.782,-289.455C273.412,-283.645 286.673,-277.288 299,-272 360.197,-245.748 429.451,-219.836 487.67,-199.096"/>
<polygon fill="white" stroke="black" points="489.035,-202.325 497.287,-195.681 486.693,-195.729 489.035,-202.325"/>
</g>
<!-- BooleanSchema -->
<g id="node3" class="node"><title>BooleanSchema</title>
<polygon fill="#8ccbf2" stroke="none" points="316,-296.5 316,-317.5 430,-317.5 430,-296.5 316,-296.5"/>
<polygon fill="none" stroke="#8ccbf2" points="316,-296.5 316,-317.5 430,-317.5 430,-296.5 316,-296.5"/>
<text text-anchor="start" x="319" y="-304.3" font-family="mono" font-weight="bold" font-size="14.00" fill="#c83500">BooleanSchema</text>
</g>
<!-- BooleanSchema&#45;&gt;DataSchema -->
<g id="edge9" class="edge"><title>BooleanSchema&#45;&gt;DataSchema</title>
<path fill="none" stroke="black" d="M400.516,-289.416C425.544,-273.876 464.241,-249.848 502.035,-226.382"/>
<polygon fill="white" stroke="black" points="503.939,-229.32 510.588,-221.071 500.246,-223.373 503.939,-229.32"/>
</g>
<!-- NumberSchema -->
<g id="node4" class="node"><title>NumberSchema</title>
<polygon fill="#8ccbf2" stroke="none" points="464,-317.5 464,-338.5 590,-338.5 590,-317.5 464,-317.5"/>
<polygon fill="none" stroke="#8ccbf2" points="464,-317.5 464,-338.5 590,-338.5 590,-317.5 464,-317.5"/>
<text text-anchor="start" x="477" y="-325.3" font-family="mono" font-weight="bold" font-size="14.00" fill="#c83500">NumberSchema</text>
<polygon fill="#ddeeff" stroke="none" points="464,-296.5 464,-317.5 590,-317.5 590,-296.5 464,-296.5"/>
<polygon fill="none" stroke="#8ccbf2" points="464,-296.5 464,-317.5 590,-317.5 590,-296.5 464,-296.5"/>
<text text-anchor="start" x="467" y="-304.3" font-family="mono" font-size="14.00" fill="#c83500">minimum</text>
<text text-anchor="start" x="525" y="-304.3" font-family="Times,serif" font-size="14.00"> : </text>
<text text-anchor="start" x="537" y="-304.3" font-family="mono" font-size="14.00" fill="#c83500">double</text>
<polygon fill="#ddeeff" stroke="none" points="464,-275.5 464,-296.5 590,-296.5 590,-275.5 464,-275.5"/>
<polygon fill="none" stroke="#8ccbf2" points="464,-275.5 464,-296.5 590,-296.5 590,-275.5 464,-275.5"/>
<text text-anchor="start" x="467" y="-283.3" font-family="mono" font-size="14.00" fill="#c83500">maximum</text>
<text text-anchor="start" x="525" y="-283.3" font-family="Times,serif" font-size="14.00"> : </text>
<text text-anchor="start" x="537" y="-283.3" font-family="mono" font-size="14.00" fill="#c83500">double</text>
</g>
<!-- NumberSchema&#45;&gt;DataSchema -->
<g id="edge12" class="edge"><title>NumberSchema&#45;&gt;DataSchema</title>
<path fill="none" stroke="black" d="M547.648,-271.743C555.11,-259.182 563.85,-244.47 572.562,-229.804"/>
<polygon fill="white" stroke="black" points="575.58,-231.577 577.678,-221.192 569.562,-228.002 575.58,-231.577"/>
</g>
<!-- ObjectSchema -->
<g id="node5" class="node"><title>ObjectSchema</title>
<polygon fill="#8ccbf2" stroke="none" points="625,-307.5 625,-328.5 806,-328.5 806,-307.5 625,-307.5"/>
<polygon fill="none" stroke="#8ccbf2" points="625,-307.5 625,-328.5 806,-328.5 806,-307.5 625,-307.5"/>
<text text-anchor="start" x="665.5" y="-315.3" font-family="mono" font-weight="bold" font-size="14.00" fill="#c83500">ObjectSchema</text>
<polygon fill="#ddeeff" stroke="none" points="625,-286.5 625,-307.5 806,-307.5 806,-286.5 625,-286.5"/>
<polygon fill="none" stroke="#8ccbf2" points="625,-286.5 625,-307.5 806,-307.5 806,-286.5 625,-286.5"/>
<text text-anchor="start" x="628" y="-294.3" font-family="mono" font-size="14.00" fill="#c83500">required</text>
<text text-anchor="start" x="695" y="-294.3" font-family="Times,serif" font-size="14.00"> : array of </text>
<text text-anchor="start" x="753" y="-294.3" font-family="mono" font-size="14.00" fill="#c83500">string</text>
</g>
<!-- ObjectSchema&#45;&gt;DataSchema -->
<g id="edge1" class="edge"><title>ObjectSchema&#45;&gt;DataSchema</title>
<path fill="none" stroke="black" d="M647.732,-282.423C635.903,-275.127 625.117,-265.808 618,-254 613.774,-246.988 611.086,-239.158 609.509,-231.057"/>
<polygon fill="black" stroke="black" points="612.965,-230.495 608.11,-221.078 606.033,-231.467 612.965,-230.495"/>
<text text-anchor="start" x="618" y="-242.8" font-family="mono" font-size="14.00" fill="#c83500">properties</text>
<text text-anchor="middle" x="597.11" y="-224.878" font-family="Times,serif" font-size="14.00">0..1</text>
</g>
<!-- ObjectSchema&#45;&gt;DataSchema -->
<g id="edge11" class="edge"><title>ObjectSchema&#45;&gt;DataSchema</title>
<path fill="none" stroke="black" d="M713.377,-282.225C711.666,-268.829 708.163,-252.27 701,-239 699.231,-235.722 697.293,-232.488 695.219,-229.309"/>
<polygon fill="white" stroke="black" points="698.03,-227.221 689.434,-221.027 692.291,-231.23 698.03,-227.221"/>
</g>
<!-- ArraySchema -->
<g id="node6" class="node"><title>ArraySchema</title>
<polygon fill="#8ccbf2" stroke="none" points="840,-317.5 840,-338.5 1016,-338.5 1016,-317.5 840,-317.5"/>
<polygon fill="none" stroke="#8ccbf2" points="840,-317.5 840,-338.5 1016,-338.5 1016,-317.5 840,-317.5"/>
<text text-anchor="start" x="882.5" y="-325.3" font-family="mono" font-weight="bold" font-size="14.00" fill="#c83500">ArraySchema</text>
<polygon fill="#ddeeff" stroke="none" points="840,-296.5 840,-317.5 1016,-317.5 1016,-296.5 840,-296.5"/>
<polygon fill="none" stroke="#8ccbf2" points="840,-296.5 840,-317.5 1016,-317.5 1016,-296.5 840,-296.5"/>
<text text-anchor="start" x="843" y="-304.3" font-family="mono" font-size="14.00" fill="#c83500">maxItems</text>
<text text-anchor="start" x="910" y="-304.3" font-family="Times,serif" font-size="14.00"> : </text>
<text text-anchor="start" x="922" y="-304.3" font-family="mono" font-size="14.00" fill="#c83500">unsignedInt</text>
<polygon fill="#ddeeff" stroke="none" points="840,-275.5 840,-296.5 1016,-296.5 1016,-275.5 840,-275.5"/>
<polygon fill="none" stroke="#8ccbf2" points="840,-275.5 840,-296.5 1016,-296.5 1016,-275.5 840,-275.5"/>
<text text-anchor="start" x="843" y="-283.3" font-family="mono" font-size="14.00" fill="#c83500">minItems</text>
<text text-anchor="start" x="910" y="-283.3" font-family="Times,serif" font-size="14.00"> : </text>
<text text-anchor="start" x="922" y="-283.3" font-family="mono" font-size="14.00" fill="#c83500">unsignedInt</text>
</g>
<!-- ArraySchema&#45;&gt;DataSchema -->
<g id="edge2" class="edge"><title>ArraySchema&#45;&gt;DataSchema</title>
<path fill="none" stroke="black" d="M857.04,-271.933C824.095,-255.884 783.877,-236.292 745.85,-217.768"/>
<polygon fill="black" stroke="black" points="747.274,-214.568 736.751,-213.335 744.208,-220.861 747.274,-214.568"/>
<text text-anchor="start" x="819" y="-242.8" font-family="mono" font-size="14.00" fill="#c83500">items</text>
<text text-anchor="middle" x="747.751" y="-217.135" font-family="Times,serif" font-size="14.00">0..1</text>
</g>
<!-- ArraySchema&#45;&gt;DataSchema -->
<g id="edge7" class="edge"><title>ArraySchema&#45;&gt;DataSchema</title>
<path fill="none" stroke="black" d="M901.641,-271.886C891.278,-260.14 878.602,-247.781 865,-239 829.112,-215.833 786.157,-198.356 746.157,-185.513"/>
<polygon fill="white" stroke="black" points="747.189,-182.169 736.599,-182.513 745.092,-188.847 747.189,-182.169"/>
</g>
<!-- NullSchema -->
<g id="node7" class="node"><title>NullSchema</title>
<polygon fill="#8ccbf2" stroke="none" points="1051,-296.5 1051,-317.5 1140,-317.5 1140,-296.5 1051,-296.5"/>
<polygon fill="none" stroke="#8ccbf2" points="1051,-296.5 1051,-317.5 1140,-317.5 1140,-296.5 1051,-296.5"/>
<text text-anchor="start" x="1054" y="-304.3" font-family="mono" font-weight="bold" font-size="14.00" fill="#c83500">NullSchema</text>
</g>
<!-- NullSchema&#45;&gt;DataSchema -->
<g id="edge10" class="edge"><title>NullSchema&#45;&gt;DataSchema</title>
<path fill="none" stroke="black" d="M1067.6,-289.442C1057.06,-283.364 1044.73,-276.835 1033,-272 939.924,-233.635 830.126,-203.343 746.709,-183.202"/>
<polygon fill="white" stroke="black" points="747.468,-179.785 736.928,-180.858 745.836,-186.592 747.468,-179.785"/>
</g>
<!-- DataSchema&#45;&gt;DataSchema -->
<g id="edge4" class="edge"><title>DataSchema&#45;&gt;DataSchema</title>
<path fill="none" stroke="black" d="M736.75,-167.708C747.646,-164.858 754.5,-160.289 754.5,-154 754.5,-149.873 751.548,-146.486 746.44,-143.84"/>
<polygon fill="black" stroke="black" points="747.344,-140.444 736.75,-140.292 744.936,-147.017 747.344,-140.444"/>
<text text-anchor="start" x="754.5" y="-150.3" font-family="mono" font-size="14.00" fill="#c83500">oneOf</text>
<text text-anchor="middle" x="747.75" y="-129.092" font-family="Times,serif" font-size="14.00">0..*</text>
</g>
<!-- MultiLanguage -->
<g id="node9" class="node"><title>MultiLanguage</title>
<polygon fill="#f2f2f2" stroke="none" points="524,-7 524,-28 638,-28 638,-7 524,-7"/>
<polygon fill="none" stroke="#8c8c8c" points="524,-7 524,-28 638,-28 638,-7 524,-7"/>
<text text-anchor="start" x="527" y="-14.8" font-family="mono" font-weight="bold" font-size="14.00">MultiLanguage</text>
</g>
<!-- DataSchema&#45;&gt;MultiLanguage -->
<g id="edge3" class="edge"><title>DataSchema&#45;&gt;MultiLanguage</title>
<path fill="none" stroke="black" d="M553.584,-86.8695C550.2,-81.1045 547.266,-75.1249 545,-69 542.687,-62.7474 542.405,-60.1411 545,-54 546.558,-50.3114 548.717,-46.8195 551.209,-43.5726"/>
<polygon fill="black" stroke="black" points="553.892,-45.8233 557.943,-36.0337 548.671,-41.1601 553.892,-45.8233"/>
<text text-anchor="start" x="545" y="-57.8" font-family="mono" font-size="14.00" fill="#c83500">titles</text>
<text text-anchor="middle" x="546.943" y="-39.8337" font-family="Times,serif" font-size="14.00">0..1</text>
</g>
<!-- DataSchema&#45;&gt;MultiLanguage -->
<g id="edge6" class="edge"><title>DataSchema&#45;&gt;MultiLanguage</title>
<path fill="none" stroke="black" d="M603.86,-86.8421C601.221,-75.7952 598.248,-64.5141 595,-54 594.149,-51.2448 593.176,-48.4011 592.149,-45.5811"/>
<polygon fill="black" stroke="black" points="595.411,-44.3139 588.542,-36.2474 588.882,-46.8368 595.411,-44.3139"/>
<text text-anchor="start" x="599" y="-57.8" font-family="mono" font-size="14.00" fill="#c83500">descriptions</text>
<text text-anchor="middle" x="577.542" y="-40.0474" font-family="Times,serif" font-size="14.00">0..1</text>
</g>
<!-- string -->
<g id="node10" class="node"><title>string</title>
<polygon fill="#f2f2f2" stroke="none" points="712,-7 712,-28 768,-28 768,-7 712,-7"/>
<polygon fill="none" stroke="#8c8c8c" points="712,-7 712,-28 768,-28 768,-7 712,-7"/>
<text text-anchor="start" x="715" y="-14.8" font-family="mono" font-weight="bold" font-size="14.00">string</text>
</g>
<!-- DataSchema&#45;&gt;string -->
<g id="edge5" class="edge"><title>DataSchema&#45;&gt;string</title>
<path fill="none" stroke="black" d="M686.987,-86.5352C692.52,-80.7128 697.925,-74.8203 703,-69 709.671,-61.3492 716.432,-52.5757 722.317,-44.5354"/>
<polygon fill="black" stroke="black" points="725.322,-46.3504 728.313,-36.1864 719.637,-42.2669 725.322,-46.3504"/>
<text text-anchor="start" x="715" y="-57.8" font-family="mono" font-size="14.00" fill="#c83500">unit</text>
<text text-anchor="middle" x="717.313" y="-39.9864" font-family="Times,serif" font-size="14.00">0..1</text>
</g>
</g>
</svg>
