<?xml version="1.0" encoding="UTF-8" standalone="no"?>
<!DOCTYPE svg PUBLIC "-//W3C//DTD SVG 1.1//EN"
 "http://www.w3.org/Graphics/SVG/1.1/DTD/svg11.dtd">
<!-- Generated by graphviz version 2.38.0 (20140413.2041)
 -->
<!-- Title: %3 Pages: 1 -->
<svg width="1156pt" height="414pt"
 viewBox="0.00 0.00 1155.50 414.00" xmlns="http://www.w3.org/2000/svg" xmlns:xlink="http://www.w3.org/1999/xlink">
<g id="graph0" class="graph" transform="scale(1 1) rotate(0) translate(4 410)">
<title>%3</title>
<polygon fill="white" stroke="none" points="-4,4 -4,-410 1151.5,-410 1151.5,4 -4,4"/>
<!-- IntegerSchema -->
<g id="node1" class="node"><title>IntegerSchema</title>
<polygon fill="#8ccbf2" stroke="none" points="8,-380.5 8,-401.5 142,-401.5 142,-380.5 8,-380.5"/>
<polygon fill="none" stroke="#8ccbf2" points="8,-380.5 8,-401.5 142,-401.5 142,-380.5 8,-380.5"/>
<text text-anchor="start" x="21" y="-388.3" font-family="mono" font-weight="bold" font-size="14.00" fill="#c83500">IntegerSchema</text>
<polygon fill="#ddeeff" stroke="none" points="8,-359.5 8,-380.5 142,-380.5 142,-359.5 8,-359.5"/>
<polygon fill="none" stroke="#8ccbf2" points="8,-359.5 8,-380.5 142,-380.5 142,-359.5 8,-359.5"/>
<text text-anchor="start" x="11" y="-367.3" font-family="mono" font-size="14.00" fill="#c83500">maximum</text>
<text text-anchor="start" x="69" y="-367.3" font-family="Times,serif" font-size="14.00"> : </text>
<text text-anchor="start" x="81" y="-367.3" font-family="mono" font-size="14.00" fill="#c83500">integer</text>
<polygon fill="#ddeeff" stroke="none" points="8,-338.5 8,-359.5 142,-359.5 142,-338.5 8,-338.5"/>
<polygon fill="none" stroke="#8ccbf2" points="8,-338.5 8,-359.5 142,-359.5 142,-338.5 8,-338.5"/>
<text text-anchor="start" x="11" y="-346.3" font-family="mono" font-size="14.00" fill="#c83500">minimum</text>
<text text-anchor="start" x="69" y="-346.3" font-family="Times,serif" font-size="14.00"> : </text>
<text text-anchor="start" x="81" y="-346.3" font-family="mono" font-size="14.00" fill="#c83500">integer</text>
</g>
<!-- DataSchema -->
<g id="node8" class="node"><title>DataSchema</title>
<polygon fill="#8ccbf2" stroke="none" points="523,-258.5 523,-279.5 711,-279.5 711,-258.5 523,-258.5"/>
<polygon fill="none" stroke="#8ccbf2" points="523,-258.5 523,-279.5 711,-279.5 711,-258.5 523,-258.5"/>
<text text-anchor="start" x="575.5" y="-266.3" font-family="mono" font-weight="bold" font-size="14.00" fill="#c83500">DataSchema</text>
<polygon fill="#ddeeff" stroke="none" points="523,-237.5 523,-258.5 711,-258.5 711,-237.5 523,-237.5"/>
<polygon fill="none" stroke="#8ccbf2" points="523,-237.5 523,-258.5 711,-258.5 711,-237.5 523,-237.5"/>
<text text-anchor="start" x="526" y="-245.3" font-family="mono" font-size="14.00" fill="#c83500">@context</text>
<text text-anchor="start" x="593" y="-245.3" font-family="Times,serif" font-size="14.00"> : </text>
<text text-anchor="start" x="605" y="-245.3" font-family="Times,serif" font-style="italic" font-size="14.00">array</text>
<text text-anchor="start" x="636" y="-245.3" font-family="Times,serif" font-size="14.00"> </text>
<text text-anchor="start" x="640" y="-245.3" font-family="Times,serif" font-style="italic" font-size="14.00">(mandatory)</text>
<polygon fill="#ddeeff" stroke="none" points="523,-216.5 523,-237.5 711,-237.5 711,-216.5 523,-216.5"/>
<polygon fill="none" stroke="#8ccbf2" points="523,-216.5 523,-237.5 711,-237.5 711,-216.5 523,-216.5"/>
<text text-anchor="start" x="526" y="-224.3" font-family="mono" font-size="14.00" fill="#c83500">@type</text>
<text text-anchor="start" x="568" y="-224.3" font-family="Times,serif" font-size="14.00"> : </text>
<text text-anchor="start" x="580" y="-224.3" font-family="Times,serif" font-style="italic" font-size="14.00">array of </text>
<text text-anchor="start" x="629" y="-224.3" font-family="mono" font-size="14.00" fill="#c83500">string</text>
<polygon fill="#ddeeff" stroke="none" points="523,-195.5 523,-216.5 711,-216.5 711,-195.5 523,-195.5"/>
<polygon fill="none" stroke="#8ccbf2" points="523,-195.5 523,-216.5 711,-216.5 711,-195.5 523,-195.5"/>
<text text-anchor="start" x="526" y="-203.3" font-family="mono" font-size="14.00" fill="#c83500">readOnly</text>
<text text-anchor="start" x="593" y="-203.3" font-family="Times,serif" font-size="14.00"> : </text>
<text text-anchor="start" x="605" y="-203.3" font-family="mono" font-size="14.00" fill="#c83500">boolean</text>
<polygon fill="#ddeeff" stroke="none" points="523,-174.5 523,-195.5 711,-195.5 711,-174.5 523,-174.5"/>
<polygon fill="none" stroke="#8ccbf2" points="523,-174.5 523,-195.5 711,-195.5 711,-174.5 523,-174.5"/>
<text text-anchor="start" x="526" y="-182.3" font-family="mono" font-size="14.00" fill="#c83500">format</text>
<text text-anchor="start" x="576" y="-182.3" font-family="Times,serif" font-size="14.00"> : </text>
<text text-anchor="start" x="588" y="-182.3" font-family="mono" font-size="14.00" fill="#c83500">string</text>
<polygon fill="#ddeeff" stroke="none" points="523,-153.5 523,-174.5 711,-174.5 711,-153.5 523,-153.5"/>
<polygon fill="none" stroke="#8ccbf2" points="523,-153.5 523,-174.5 711,-174.5 711,-153.5 523,-153.5"/>
<text text-anchor="start" x="526" y="-161.3" font-family="mono" font-size="14.00" fill="#c83500">title</text>
<text text-anchor="start" x="568" y="-161.3" font-family="Times,serif" font-size="14.00"> : </text>
<text text-anchor="start" x="580" y="-161.3" font-family="mono" font-size="14.00" fill="#c83500">string</text>
<polygon fill="#ddeeff" stroke="none" points="523,-132.5 523,-153.5 711,-153.5 711,-132.5 523,-132.5"/>
<polygon fill="none" stroke="#8ccbf2" points="523,-132.5 523,-153.5 711,-153.5 711,-132.5 523,-132.5"/>
<text text-anchor="start" x="526" y="-140.3" font-family="mono" font-size="14.00" fill="#c83500">type</text>
<text text-anchor="start" x="560" y="-140.3" font-family="Times,serif" font-size="14.00"> : </text>
<text text-anchor="start" x="572" y="-140.3" font-family="mono" font-size="14.00" fill="#c83500">string</text>
<polygon fill="#ddeeff" stroke="none" points="523,-111.5 523,-132.5 711,-132.5 711,-111.5 523,-111.5"/>
<polygon fill="none" stroke="#8ccbf2" points="523,-111.5 523,-132.5 711,-132.5 711,-111.5 523,-111.5"/>
<text text-anchor="start" x="526" y="-119.3" font-family="mono" font-size="14.00" fill="#c83500">writeOnly</text>
<text text-anchor="start" x="601" y="-119.3" font-family="Times,serif" font-size="14.00"> : </text>
<text text-anchor="start" x="613" y="-119.3" font-family="mono" font-size="14.00" fill="#c83500">boolean</text>
<polygon fill="#ddeeff" stroke="none" points="523,-90.5 523,-111.5 711,-111.5 711,-90.5 523,-90.5"/>
<polygon fill="none" stroke="#8ccbf2" points="523,-90.5 523,-111.5 711,-111.5 711,-90.5 523,-90.5"/>
<text text-anchor="start" x="526" y="-98.3" font-family="mono" font-size="14.00" fill="#c83500">description</text>
<text text-anchor="start" x="617" y="-98.3" font-family="Times,serif" font-size="14.00"> : </text>
<text text-anchor="start" x="629" y="-98.3" font-family="mono" font-size="14.00" fill="#c83500">string</text>
</g>
<!-- IntegerSchema&#45;&gt;DataSchema -->
<g id="edge9" class="edge"><title>IntegerSchema&#45;&gt;DataSchema</title>
<path fill="none" stroke="black" d="M150.45,-338.195C153.33,-337.1 156.188,-336.032 159,-335 275.91,-292.109 411.856,-248.848 505.089,-220.172"/>
<polygon fill="white" stroke="black" points="506.292,-223.464 514.824,-217.183 504.237,-216.772 506.292,-223.464"/>
</g>
<!-- StringSchema -->
<g id="node2" class="node"><title>StringSchema</title>
<polygon fill="#8ccbf2" stroke="none" points="176,-359.5 176,-380.5 282,-380.5 282,-359.5 176,-359.5"/>
<polygon fill="none" stroke="#8ccbf2" points="176,-359.5 176,-380.5 282,-380.5 282,-359.5 176,-359.5"/>
<text text-anchor="start" x="179" y="-367.3" font-family="mono" font-weight="bold" font-size="14.00" fill="#c83500">StringSchema</text>
</g>
<!-- StringSchema&#45;&gt;DataSchema -->
<g id="edge13" class="edge"><title>StringSchema&#45;&gt;DataSchema</title>
<path fill="none" stroke="black" d="M263.466,-352.334C274.764,-346.755 287.396,-340.568 299,-335 367.319,-302.217 444.309,-266.239 505.421,-237.908"/>
<polygon fill="white" stroke="black" points="507.101,-240.987 514.703,-233.607 504.158,-234.635 507.101,-240.987"/>
</g>
<!-- BooleanSchema -->
<g id="node3" class="node"><title>BooleanSchema</title>
<polygon fill="#8ccbf2" stroke="none" points="316,-359.5 316,-380.5 430,-380.5 430,-359.5 316,-359.5"/>
<polygon fill="none" stroke="#8ccbf2" points="316,-359.5 316,-380.5 430,-380.5 430,-359.5 316,-359.5"/>
<text text-anchor="start" x="319" y="-367.3" font-family="mono" font-weight="bold" font-size="14.00" fill="#c83500">BooleanSchema</text>
</g>
<!-- BooleanSchema&#45;&gt;DataSchema -->
<g id="edge10" class="edge"><title>BooleanSchema&#45;&gt;DataSchema</title>
<path fill="none" stroke="black" d="M395.955,-352.284C421.644,-333.017 465.143,-300.392 506.792,-269.156"/>
<polygon fill="white" stroke="black" points="508.916,-271.938 514.816,-263.138 504.716,-266.338 508.916,-271.938"/>
</g>
<!-- NumberSchema -->
<g id="node4" class="node"><title>NumberSchema</title>
<polygon fill="#8ccbf2" stroke="none" points="464,-380.5 464,-401.5 590,-401.5 590,-380.5 464,-380.5"/>
<polygon fill="none" stroke="#8ccbf2" points="464,-380.5 464,-401.5 590,-401.5 590,-380.5 464,-380.5"/>
<text text-anchor="start" x="477" y="-388.3" font-family="mono" font-weight="bold" font-size="14.00" fill="#c83500">NumberSchema</text>
<polygon fill="#ddeeff" stroke="none" points="464,-359.5 464,-380.5 590,-380.5 590,-359.5 464,-359.5"/>
<polygon fill="none" stroke="#8ccbf2" points="464,-359.5 464,-380.5 590,-380.5 590,-359.5 464,-359.5"/>
<text text-anchor="start" x="467" y="-367.3" font-family="mono" font-size="14.00" fill="#c83500">maximum</text>
<text text-anchor="start" x="525" y="-367.3" font-family="Times,serif" font-size="14.00"> : </text>
<text text-anchor="start" x="537" y="-367.3" font-family="mono" font-size="14.00" fill="#c83500">double</text>
<polygon fill="#ddeeff" stroke="none" points="464,-338.5 464,-359.5 590,-359.5 590,-338.5 464,-338.5"/>
<polygon fill="none" stroke="#8ccbf2" points="464,-338.5 464,-359.5 590,-359.5 590,-338.5 464,-338.5"/>
<text text-anchor="start" x="467" y="-346.3" font-family="mono" font-size="14.00" fill="#c83500">minimum</text>
<text text-anchor="start" x="525" y="-346.3" font-family="Times,serif" font-size="14.00"> : </text>
<text text-anchor="start" x="537" y="-346.3" font-family="mono" font-size="14.00" fill="#c83500">double</text>
</g>
<!-- NumberSchema&#45;&gt;DataSchema -->
<g id="edge12" class="edge"><title>NumberSchema&#45;&gt;DataSchema</title>
<path fill="none" stroke="black" d="M544.14,-334.648C550.095,-322.539 557.124,-308.248 564.426,-293.4"/>
<polygon fill="white" stroke="black" points="567.729,-294.616 569.001,-284.098 561.447,-291.527 567.729,-294.616"/>
</g>
<!-- ObjectSchema -->
<g id="node5" class="node"><title>ObjectSchema</title>
<polygon fill="#8ccbf2" stroke="none" points="625,-370.5 625,-391.5 806,-391.5 806,-370.5 625,-370.5"/>
<polygon fill="none" stroke="#8ccbf2" points="625,-370.5 625,-391.5 806,-391.5 806,-370.5 625,-370.5"/>
<text text-anchor="start" x="665.5" y="-378.3" font-family="mono" font-weight="bold" font-size="14.00" fill="#c83500">ObjectSchema</text>
<polygon fill="#ddeeff" stroke="none" points="625,-349.5 625,-370.5 806,-370.5 806,-349.5 625,-349.5"/>
<polygon fill="none" stroke="#8ccbf2" points="625,-349.5 625,-370.5 806,-370.5 806,-349.5 625,-349.5"/>
<text text-anchor="start" x="628" y="-357.3" font-family="mono" font-size="14.00" fill="#c83500">required</text>
<text text-anchor="start" x="695" y="-357.3" font-family="Times,serif" font-size="14.00"> : array of </text>
<text text-anchor="start" x="753" y="-357.3" font-family="mono" font-size="14.00" fill="#c83500">string</text>
</g>
<!-- ObjectSchema&#45;&gt;DataSchema -->
<g id="edge1" class="edge"><title>ObjectSchema&#45;&gt;DataSchema</title>
<path fill="none" stroke="black" d="M647.71,-345.436C635.883,-338.14 625.102,-328.817 618,-317 613.727,-309.89 610.655,-302.144 608.529,-294.09"/>
<polygon fill="black" stroke="black" points="611.913,-293.176 606.388,-284.135 605.069,-294.648 611.913,-293.176"/>
<text text-anchor="start" x="618" y="-305.8" font-family="mono" font-size="14.00" fill="#c83500">properties</text>
<text text-anchor="middle" x="595.388" y="-287.935" font-family="Times,serif" font-size="14.00">0..1</text>
</g>
<!-- ObjectSchema&#45;&gt;DataSchema -->
<g id="edge8" class="edge"><title>ObjectSchema&#45;&gt;DataSchema</title>
<path fill="none" stroke="black" d="M712.51,-345.311C710.534,-332.094 707.054,-315.68 701,-302 699.67,-298.996 698.254,-295.993 696.762,-293"/>
<polygon fill="white" stroke="black" points="699.817,-291.289 692.075,-284.057 693.617,-294.539 699.817,-291.289"/>
</g>
<!-- ArraySchema -->
<g id="node6" class="node"><title>ArraySchema</title>
<polygon fill="#8ccbf2" stroke="none" points="840,-380.5 840,-401.5 1016,-401.5 1016,-380.5 840,-380.5"/>
<polygon fill="none" stroke="#8ccbf2" points="840,-380.5 840,-401.5 1016,-401.5 1016,-380.5 840,-380.5"/>
<text text-anchor="start" x="882.5" y="-388.3" font-family="mono" font-weight="bold" font-size="14.00" fill="#c83500">ArraySchema</text>
<polygon fill="#ddeeff" stroke="none" points="840,-359.5 840,-380.5 1016,-380.5 1016,-359.5 840,-359.5"/>
<polygon fill="none" stroke="#8ccbf2" points="840,-359.5 840,-380.5 1016,-380.5 1016,-359.5 840,-359.5"/>
<text text-anchor="start" x="843" y="-367.3" font-family="mono" font-size="14.00" fill="#c83500">maxItems</text>
<text text-anchor="start" x="910" y="-367.3" font-family="Times,serif" font-size="14.00"> : </text>
<text text-anchor="start" x="922" y="-367.3" font-family="mono" font-size="14.00" fill="#c83500">unsignedInt</text>
<polygon fill="#ddeeff" stroke="none" points="840,-338.5 840,-359.5 1016,-359.5 1016,-338.5 840,-338.5"/>
<polygon fill="none" stroke="#8ccbf2" points="840,-338.5 840,-359.5 1016,-359.5 1016,-338.5 840,-338.5"/>
<text text-anchor="start" x="843" y="-346.3" font-family="mono" font-size="14.00" fill="#c83500">minItems</text>
<text text-anchor="start" x="910" y="-346.3" font-family="Times,serif" font-size="14.00"> : </text>
<text text-anchor="start" x="922" y="-346.3" font-family="mono" font-size="14.00" fill="#c83500">unsignedInt</text>
</g>
<!-- ArraySchema&#45;&gt;DataSchema -->
<g id="edge2" class="edge"><title>ArraySchema&#45;&gt;DataSchema</title>
<path fill="none" stroke="black" d="M869.138,-334.864C829.351,-311.452 775.579,-279.812 727.913,-251.764"/>
<polygon fill="black" stroke="black" points="729.482,-248.626 719.089,-246.572 725.932,-254.659 729.482,-248.626"/>
<text text-anchor="start" x="837" y="-305.8" font-family="mono" font-size="14.00" fill="#c83500">items</text>
<text text-anchor="middle" x="730.089" y="-250.372" font-family="Times,serif" font-size="14.00">0..*</text>
</g>
<!-- ArraySchema&#45;&gt;DataSchema -->
<g id="edge7" class="edge"><title>ArraySchema&#45;&gt;DataSchema</title>
<path fill="none" stroke="black" d="M910.273,-334.915C903.037,-323.308 893.806,-311.032 883,-302 838.363,-264.69 779.827,-237.53 729.034,-218.958"/>
<polygon fill="white" stroke="black" points="729.91,-215.554 719.315,-215.474 727.547,-222.143 729.91,-215.554"/>
</g>
<!-- NullSchema -->
<g id="node7" class="node"><title>NullSchema</title>
<polygon fill="#8ccbf2" stroke="none" points="1051,-359.5 1051,-380.5 1140,-380.5 1140,-359.5 1051,-359.5"/>
<polygon fill="none" stroke="#8ccbf2" points="1051,-359.5 1051,-380.5 1140,-380.5 1140,-359.5 1051,-359.5"/>
<text text-anchor="start" x="1054" y="-367.3" font-family="mono" font-weight="bold" font-size="14.00" fill="#c83500">NullSchema</text>
</g>
<!-- NullSchema&#45;&gt;DataSchema -->
<g id="edge11" class="edge"><title>NullSchema&#45;&gt;DataSchema</title>
<path fill="none" stroke="black" d="M1066.49,-352.342C1056.14,-346.459 1044.22,-340.083 1033,-335 932.613,-289.527 813.837,-248.31 728.954,-220.902"/>
<polygon fill="white" stroke="black" points="729.885,-217.525 719.294,-217.795 727.742,-224.188 729.885,-217.525"/>
</g>
<!-- DataSchema&#45;&gt;DataSchema -->
<g id="edge3" class="edge"><title>DataSchema&#45;&gt;DataSchema</title>
<path fill="none" stroke="black" d="M719.418,-204.764C730.134,-201.003 737,-194.582 737,-185.5 737,-179.398 733.9,-174.497 728.616,-170.797"/>
<polygon fill="black" stroke="black" points="729.932,-167.543 719.418,-166.236 726.822,-173.814 729.932,-167.543"/>
<text text-anchor="start" x="737" y="-181.8" font-family="mono" font-size="14.00" fill="#c83500">oneOf</text>
<text text-anchor="middle" x="730.418" y="-155.036" font-family="Times,serif" font-size="14.00">0..*</text>
</g>
<!-- MultiLanguage -->
<g id="node9" class="node"><title>MultiLanguage</title>
<polygon fill="#f2f2f2" stroke="none" points="524,-7 524,-28 638,-28 638,-7 524,-7"/>
<polygon fill="none" stroke="#8c8c8c" points="524,-7 524,-28 638,-28 638,-7 524,-7"/>
<text text-anchor="start" x="527" y="-14.8" font-family="mono" font-weight="bold" font-size="14.00">MultiLanguage</text>
</g>
<!-- DataSchema&#45;&gt;MultiLanguage -->
<g id="edge4" class="edge"><title>DataSchema&#45;&gt;MultiLanguage</title>
<path fill="none" stroke="black" d="M551.308,-86.9714C548.86,-81.0315 546.723,-75.0201 545,-69 543.166,-62.5906 542.405,-60.1411 545,-54 546.558,-50.3114 548.717,-46.8195 551.209,-43.5726"/>
<polygon fill="black" stroke="black" points="553.892,-45.8233 557.943,-36.0337 548.671,-41.1601 553.892,-45.8233"/>
<text text-anchor="start" x="545" y="-57.8" font-family="mono" font-size="14.00" fill="#c83500">titles</text>
<text text-anchor="middle" x="546.943" y="-39.8337" font-family="Times,serif" font-size="14.00">0..1</text>
</g>
<!-- DataSchema&#45;&gt;MultiLanguage -->
<g id="edge6" class="edge"><title>DataSchema&#45;&gt;MultiLanguage</title>
<path fill="none" stroke="black" d="M602.863,-86.7204C600.564,-75.608 597.951,-64.5072 595,-54 594.22,-51.2237 593.294,-48.3663 592.296,-45.5378"/>
<polygon fill="black" stroke="black" points="595.564,-44.2857 588.725,-36.1934 589.025,-46.784 595.564,-44.2857"/>
<text text-anchor="start" x="599" y="-57.8" font-family="mono" font-size="14.00" fill="#c83500">descriptions</text>
<text text-anchor="middle" x="577.725" y="-39.9934" font-family="Times,serif" font-size="14.00">0..1</text>
</g>
<!-- string -->
<g id="node10" class="node"><title>string</title>
<polygon fill="#f2f2f2" stroke="none" points="712,-7 712,-28 768,-28 768,-7 712,-7"/>
<polygon fill="none" stroke="#8c8c8c" points="712,-7 712,-28 768,-28 768,-7 712,-7"/>
<text text-anchor="start" x="715" y="-14.8" font-family="mono" font-weight="bold" font-size="14.00">string</text>
</g>
<!-- DataSchema&#45;&gt;string -->
<g id="edge5" class="edge"><title>DataSchema&#45;&gt;string</title>
<path fill="none" stroke="black" d="M689.746,-86.8425C694.233,-80.8062 698.679,-74.8215 703,-69 708.956,-60.9766 715.44,-52.221 721.293,-44.3107"/>
<polygon fill="black" stroke="black" points="724.208,-46.2549 727.34,-36.1337 718.58,-42.0923 724.208,-46.2549"/>
<text text-anchor="start" x="714" y="-57.8" font-family="mono" font-size="14.00" fill="#c83500">unit</text>
<text text-anchor="middle" x="716.34" y="-39.9337" font-family="Times,serif" font-size="14.00">0..1</text>
</g>
</g>
</svg>
