<?xml version="1.0" encoding="UTF-8" standalone="no"?>
<!DOCTYPE svg PUBLIC "-//W3C//DTD SVG 1.1//EN"
 "http://www.w3.org/Graphics/SVG/1.1/DTD/svg11.dtd">
<!-- Generated by graphviz version 2.40.1 (20161225.0304)
 -->
<!-- Title: %3 Pages: 1 -->
<svg width="1387pt" height="411pt"
 viewBox="0.00 0.00 1387.00 411.00" xmlns="http://www.w3.org/2000/svg" xmlns:xlink="http://www.w3.org/1999/xlink">
<g id="graph0" class="graph" transform="scale(1 1) rotate(0) translate(4 407)">
<title>%3</title>
<polygon fill="#ffffff" stroke="transparent" points="-4,4 -4,-407 1383,-407 1383,4 -4,4"/>
<!-- ArraySchema -->
<g id="node1" class="node">
<title>ArraySchema</title>
<polygon fill="#8ccbf2" stroke="transparent" points="8,-346 8,-367 184,-367 184,-346 8,-346"/>
<polygon fill="none" stroke="#8ccbf2" points="8,-346 8,-367 184,-367 184,-346 8,-346"/>
<text text-anchor="start" x="50.5" y="-353.8" font-family="mono" font-weight="bold" font-size="14.00" fill="#c83500">ArraySchema</text>
<polygon fill="#ddeeff" stroke="transparent" points="8,-325 8,-346 184,-346 184,-325 8,-325"/>
<polygon fill="none" stroke="#8ccbf2" points="8,-325 8,-346 184,-346 184,-325 8,-325"/>
<text text-anchor="start" x="11" y="-332.8" font-family="mono" font-size="14.00" fill="#c83500">minItems</text>
<text text-anchor="start" x="78" y="-332.8" font-family="Times,serif" font-size="14.00" fill="#000000"> : </text>
<text text-anchor="start" x="90" y="-332.8" font-family="mono" font-size="14.00" fill="#c83500">unsignedInt</text>
<polygon fill="#ddeeff" stroke="transparent" points="8,-304 8,-325 184,-325 184,-304 8,-304"/>
<polygon fill="none" stroke="#8ccbf2" points="8,-304 8,-325 184,-325 184,-304 8,-304"/>
<text text-anchor="start" x="11" y="-311.8" font-family="mono" font-size="14.00" fill="#c83500">maxItems</text>
<text text-anchor="start" x="78" y="-311.8" font-family="Times,serif" font-size="14.00" fill="#000000"> : </text>
<text text-anchor="start" x="90" y="-311.8" font-family="mono" font-size="14.00" fill="#c83500">unsignedInt</text>
</g>
<!-- DataSchema -->
<g id="node3" class="node">
<title>DataSchema</title>
<polygon fill="#8ccbf2" stroke="transparent" points="450,-193 450,-214 859,-214 859,-193 450,-193"/>
<polygon fill="none" stroke="#8ccbf2" points="450,-193 450,-214 859,-214 859,-193 450,-193"/>
<text text-anchor="start" x="613" y="-200.8" font-family="mono" font-weight="bold" font-size="14.00" fill="#c83500">DataSchema</text>
<polygon fill="#ddeeff" stroke="transparent" points="450,-172 450,-193 859,-193 859,-172 450,-172"/>
<polygon fill="none" stroke="#8ccbf2" points="450,-172 450,-193 859,-193 859,-172 450,-172"/>
<text text-anchor="start" x="453" y="-179.8" font-family="mono" font-size="14.00" fill="#c83500">@type</text>
<text text-anchor="start" x="495" y="-179.8" font-family="Times,serif" font-size="14.00" fill="#000000"> : </text>
<text text-anchor="start" x="507" y="-179.8" font-family="Times,serif" font-style="italic" font-size="14.00" fill="#000000">(Array of) </text>
<text text-anchor="start" x="566" y="-179.8" font-family="mono" font-size="14.00" fill="#c83500">string</text>
<polygon fill="#ddeeff" stroke="transparent" points="450,-151 450,-172 859,-172 859,-151 450,-151"/>
<polygon fill="none" stroke="#8ccbf2" points="450,-151 450,-172 859,-172 859,-151 450,-151"/>
<text text-anchor="start" x="453" y="-158.8" font-family="mono" font-size="14.00" fill="#c83500">title</text>
<text text-anchor="start" x="495" y="-158.8" font-family="Times,serif" font-size="14.00" fill="#000000"> : Map of </text>
<text text-anchor="start" x="551" y="-158.8" font-family="mono" font-size="14.00" fill="#c83500">string</text>
<text text-anchor="start" x="601" y="-158.8" font-family="mono" font-size="14.00" fill="#c83500">titles</text>
<text text-anchor="start" x="651" y="-158.8" font-family="Times,serif" font-size="14.00" fill="#000000"> : Map of </text>
<text text-anchor="start" x="707" y="-158.8" font-family="mono" font-size="14.00" fill="#c83500">string</text>
<polygon fill="#ddeeff" stroke="transparent" points="450,-130 450,-151 859,-151 859,-130 450,-130"/>
<polygon fill="none" stroke="#8ccbf2" points="450,-130 450,-151 859,-151 859,-130 450,-130"/>
<text text-anchor="start" x="453" y="-137.8" font-family="mono" font-size="14.00" fill="#c83500">description</text>
<text text-anchor="start" x="544" y="-137.8" font-family="Times,serif" font-size="14.00" fill="#000000"> : Map of </text>
<text text-anchor="start" x="600" y="-137.8" font-family="mono" font-size="14.00" fill="#c83500">string</text>
<text text-anchor="start" x="650" y="-137.8" font-family="mono" font-size="14.00" fill="#c83500">descriptions</text>
<text text-anchor="start" x="750" y="-137.8" font-family="Times,serif" font-size="14.00" fill="#000000"> : Map of </text>
<text text-anchor="start" x="806" y="-137.8" font-family="mono" font-size="14.00" fill="#c83500">string</text>
<polygon fill="#ddeeff" stroke="transparent" points="450,-109 450,-130 859,-130 859,-109 450,-109"/>
<polygon fill="none" stroke="#8ccbf2" points="450,-109 450,-130 859,-130 859,-109 450,-109"/>
<text text-anchor="start" x="453" y="-116.8" font-family="mono" font-size="14.00" fill="#c83500">unit</text>
<text text-anchor="start" x="487" y="-116.8" font-family="Times,serif" font-size="14.00" fill="#000000"> : (Array of) </text>
<text text-anchor="start" x="558" y="-116.8" font-family="mono" font-size="14.00" fill="#c83500">string</text>
<polygon fill="#ddeeff" stroke="transparent" points="450,-88 450,-109 859,-109 859,-88 450,-88"/>
<polygon fill="none" stroke="#8ccbf2" points="450,-88 450,-109 859,-109 859,-88 450,-88"/>
<text text-anchor="start" x="453" y="-95.8" font-family="mono" font-size="14.00" fill="#c83500">readOnly</text>
<text text-anchor="start" x="520" y="-95.8" font-family="Times,serif" font-size="14.00" fill="#000000"> : </text>
<text text-anchor="start" x="532" y="-95.8" font-family="mono" font-size="14.00" fill="#c83500">boolean</text>
<polygon fill="#ddeeff" stroke="transparent" points="450,-67 450,-88 859,-88 859,-67 450,-67"/>
<polygon fill="none" stroke="#8ccbf2" points="450,-67 450,-88 859,-88 859,-67 450,-67"/>
<text text-anchor="start" x="453" y="-74.8" font-family="mono" font-size="14.00" fill="#c83500">writeOnly</text>
<text text-anchor="start" x="528" y="-74.8" font-family="Times,serif" font-size="14.00" fill="#000000"> : </text>
<text text-anchor="start" x="540" y="-74.8" font-family="mono" font-size="14.00" fill="#c83500">boolean</text>
<polygon fill="#ddeeff" stroke="transparent" points="450,-46 450,-67 859,-67 859,-46 450,-46"/>
<polygon fill="none" stroke="#8ccbf2" points="450,-46 450,-67 859,-67 859,-46 450,-46"/>
<text text-anchor="start" x="453" y="-53.8" font-family="mono" font-size="14.00" fill="#c83500">format</text>
<text text-anchor="start" x="503" y="-53.8" font-family="Times,serif" font-size="14.00" fill="#000000"> : </text>
<text text-anchor="start" x="515" y="-53.8" font-family="mono" font-size="14.00" fill="#c83500">string</text>
<polygon fill="#ddeeff" stroke="transparent" points="450,-25 450,-46 859,-46 859,-25 450,-25"/>
<polygon fill="none" stroke="#8ccbf2" points="450,-25 450,-46 859,-46 859,-25 450,-25"/>
<text text-anchor="start" x="453" y="-32.8" font-family="mono" font-size="14.00" fill="#c83500">contentEncoding</text>
<text text-anchor="start" x="577" y="-32.8" font-family="Times,serif" font-size="14.00" fill="#000000"> : </text>
<text text-anchor="start" x="589" y="-32.8" font-family="mono" font-size="14.00" fill="#c83500">string</text>
<polygon fill="#ddeeff" stroke="transparent" points="450,-4 450,-25 859,-25 859,-4 450,-4"/>
<polygon fill="none" stroke="#8ccbf2" points="450,-4 450,-25 859,-25 859,-4 450,-4"/>
<text text-anchor="start" x="453" y="-11.8" font-family="mono" font-size="14.00" fill="#c83500">contentMediaType</text>
<text text-anchor="start" x="586" y="-11.8" font-family="Times,serif" font-size="14.00" fill="#000000"> : </text>
<text text-anchor="start" x="598" y="-11.8" font-family="mono" font-size="14.00" fill="#c83500">string</text>
</g>
<!-- ArraySchema&#45;&gt;DataSchema -->
<g id="edge3" class="edge">
<title>ArraySchema&#45;&gt;DataSchema</title>
<path fill="none" stroke="#000000" d="M114.3603,-300.0814C127.1698,-278.4668 146.2142,-252.1046 170,-236 246.9713,-183.8852 344.1544,-153.1485 431.2062,-135.0234"/>
<polygon fill="#000000" stroke="#000000" points="432.1236,-138.4085 441.2242,-132.9835 430.7269,-131.5493 432.1236,-138.4085"/>
<text text-anchor="start" x="170" y="-239.8" font-family="mono" font-size="14.00" fill="#c83500">items</text>
<text text-anchor="middle" x="430.2242" y="-136.7835" font-family="Times,serif" font-size="14.00" fill="#000000">0..*</text>
</g>
<!-- ArraySchema&#45;&gt;DataSchema -->
<g id="edge4" class="edge">
<title>ArraySchema&#45;&gt;DataSchema</title>
<path fill="none" stroke="#000000" d="M146.7104,-300.3434C163.5181,-289.4313 182.6329,-277.9572 201,-269 273.9711,-233.4135 356.9415,-201.7576 431.7579,-176.1879"/>
<polygon fill="#ffffff" stroke="#000000" points="432.9698,-179.4727 441.3114,-172.9406 430.717,-172.8451 432.9698,-179.4727"/>
</g>
<!-- BooleanSchema -->
<g id="node2" class="node">
<title>BooleanSchema</title>
<polygon fill="#8ccbf2" stroke="transparent" points="218,-325 218,-346 332,-346 332,-325 218,-325"/>
<polygon fill="none" stroke="#8ccbf2" points="218,-325 218,-346 332,-346 332,-325 218,-325"/>
<text text-anchor="start" x="221" y="-332.8" font-family="mono" font-weight="bold" font-size="14.00" fill="#c83500">BooleanSchema</text>
</g>
<!-- BooleanSchema&#45;&gt;DataSchema -->
<g id="edge5" class="edge">
<title>BooleanSchema&#45;&gt;DataSchema</title>
<path fill="none" stroke="#000000" d="M292.4612,-317.8355C306.8116,-303.5102 328.1107,-283.5832 349,-269 375.1043,-250.7762 403.5431,-233.2119 432.2161,-216.8211"/>
<polygon fill="#ffffff" stroke="#000000" points="434.1473,-219.7496 441.1199,-211.7725 430.6946,-213.6604 434.1473,-219.7496"/>
</g>
<!-- DataSchema&#45;&gt;DataSchema -->
<g id="edge1" class="edge">
<title>DataSchema&#45;&gt;DataSchema</title>
<path fill="none" stroke="#000000" d="M866.786,-125.499C877.9135,-121.4352 884.5,-115.9355 884.5,-109 884.5,-104.3402 881.5268,-100.3285 876.2007,-96.9651"/>
<polygon fill="#000000" stroke="#000000" points="877.3213,-93.623 866.786,-92.501 874.3222,-99.9479 877.3213,-93.623"/>
<text text-anchor="start" x="884.5" y="-105.3" font-family="mono" font-size="14.00" fill="#c83500">oneOf</text>
<text text-anchor="middle" x="877.786" y="-81.301" font-family="Times,serif" font-size="14.00" fill="#000000">0..*</text>
</g>
<!-- IntegerSchema -->
<g id="node4" class="node">
<title>IntegerSchema</title>
<polygon fill="#8ccbf2" stroke="transparent" points="367,-378 367,-399 576,-399 576,-378 367,-378"/>
<polygon fill="none" stroke="#8ccbf2" points="367,-378 367,-399 576,-399 576,-378 367,-378"/>
<text text-anchor="start" x="417.5" y="-385.8" font-family="mono" font-weight="bold" font-size="14.00" fill="#c83500">IntegerSchema</text>
<polygon fill="#ddeeff" stroke="transparent" points="367,-357 367,-378 576,-378 576,-357 367,-357"/>
<polygon fill="none" stroke="#8ccbf2" points="367,-357 367,-378 576,-378 576,-357 367,-357"/>
<text text-anchor="start" x="370" y="-364.8" font-family="mono" font-size="14.00" fill="#c83500">minimum</text>
<text text-anchor="start" x="428" y="-364.8" font-family="Times,serif" font-size="14.00" fill="#000000"> : </text>
<text text-anchor="start" x="440" y="-364.8" font-family="mono" font-size="14.00" fill="#c83500">integer</text>
<polygon fill="#ddeeff" stroke="transparent" points="367,-336 367,-357 576,-357 576,-336 367,-336"/>
<polygon fill="none" stroke="#8ccbf2" points="367,-336 367,-357 576,-357 576,-336 367,-336"/>
<text text-anchor="start" x="370" y="-343.8" font-family="mono" font-size="14.00" fill="#c83500">exclusiveMinimum</text>
<text text-anchor="start" x="503" y="-343.8" font-family="Times,serif" font-size="14.00" fill="#000000"> : </text>
<text text-anchor="start" x="515" y="-343.8" font-family="mono" font-size="14.00" fill="#c83500">integer</text>
<polygon fill="#ddeeff" stroke="transparent" points="367,-315 367,-336 576,-336 576,-315 367,-315"/>
<polygon fill="none" stroke="#8ccbf2" points="367,-315 367,-336 576,-336 576,-315 367,-315"/>
<text text-anchor="start" x="370" y="-322.8" font-family="mono" font-size="14.00" fill="#c83500">maximum</text>
<text text-anchor="start" x="428" y="-322.8" font-family="Times,serif" font-size="14.00" fill="#000000"> : </text>
<text text-anchor="start" x="440" y="-322.8" font-family="mono" font-size="14.00" fill="#c83500">integer</text>
<polygon fill="#ddeeff" stroke="transparent" points="367,-294 367,-315 576,-315 576,-294 367,-294"/>
<polygon fill="none" stroke="#8ccbf2" points="367,-294 367,-315 576,-315 576,-294 367,-294"/>
<text text-anchor="start" x="370" y="-301.8" font-family="mono" font-size="14.00" fill="#c83500">exclusiveMaximum</text>
<text text-anchor="start" x="503" y="-301.8" font-family="Times,serif" font-size="14.00" fill="#000000"> : </text>
<text text-anchor="start" x="515" y="-301.8" font-family="mono" font-size="14.00" fill="#c83500">integer</text>
<polygon fill="#ddeeff" stroke="transparent" points="367,-273 367,-294 576,-294 576,-273 367,-273"/>
<polygon fill="none" stroke="#8ccbf2" points="367,-273 367,-294 576,-294 576,-273 367,-273"/>
<text text-anchor="start" x="370" y="-280.8" font-family="mono" font-size="14.00" fill="#c83500">multipleOf</text>
<text text-anchor="start" x="453" y="-280.8" font-family="Times,serif" font-size="14.00" fill="#000000"> : </text>
<text text-anchor="start" x="465" y="-280.8" font-family="mono" font-size="14.00" fill="#c83500">integer</text>
</g>
<!-- IntegerSchema&#45;&gt;DataSchema -->
<g id="edge6" class="edge">
<title>IntegerSchema&#45;&gt;DataSchema</title>
<path fill="none" stroke="#000000" d="M525.1633,-268.8139C536.0124,-255.3562 547.7068,-240.8501 559.468,-226.261"/>
<polygon fill="#ffffff" stroke="#000000" points="562.4526,-228.1354 566.004,-218.1535 557.0029,-223.7421 562.4526,-228.1354"/>
</g>
<!-- NullSchema -->
<g id="node5" class="node">
<title>NullSchema</title>
<polygon fill="#8ccbf2" stroke="transparent" points="610,-325 610,-346 699,-346 699,-325 610,-325"/>
<polygon fill="none" stroke="#8ccbf2" points="610,-325 610,-346 699,-346 699,-325 610,-325"/>
<text text-anchor="start" x="613" y="-332.8" font-family="mono" font-weight="bold" font-size="14.00" fill="#c83500">NullSchema</text>
</g>
<!-- NullSchema&#45;&gt;DataSchema -->
<g id="edge7" class="edge">
<title>NullSchema&#45;&gt;DataSchema</title>
<path fill="none" stroke="#000000" d="M654,-317.8074C654,-297.6988 654,-263.5046 654,-228.5436"/>
<polygon fill="#ffffff" stroke="#000000" points="657.5001,-228.1807 654,-218.1808 650.5001,-228.1808 657.5001,-228.1807"/>
</g>
<!-- NumberSchema -->
<g id="node6" class="node">
<title>NumberSchema</title>
<polygon fill="#8ccbf2" stroke="transparent" points="733,-378 733,-399 934,-399 934,-378 733,-378"/>
<polygon fill="none" stroke="#8ccbf2" points="733,-378 733,-399 934,-399 934,-378 733,-378"/>
<text text-anchor="start" x="783.5" y="-385.8" font-family="mono" font-weight="bold" font-size="14.00" fill="#c83500">NumberSchema</text>
<polygon fill="#ddeeff" stroke="transparent" points="733,-357 733,-378 934,-378 934,-357 733,-357"/>
<polygon fill="none" stroke="#8ccbf2" points="733,-357 733,-378 934,-378 934,-357 733,-357"/>
<text text-anchor="start" x="736" y="-364.8" font-family="mono" font-size="14.00" fill="#c83500">maximum</text>
<text text-anchor="start" x="794" y="-364.8" font-family="Times,serif" font-size="14.00" fill="#000000"> : </text>
<text text-anchor="start" x="806" y="-364.8" font-family="mono" font-size="14.00" fill="#c83500">double</text>
<polygon fill="#ddeeff" stroke="transparent" points="733,-336 733,-357 934,-357 934,-336 733,-336"/>
<polygon fill="none" stroke="#8ccbf2" points="733,-336 733,-357 934,-357 934,-336 733,-336"/>
<text text-anchor="start" x="736" y="-343.8" font-family="mono" font-size="14.00" fill="#c83500">exclusiveMaximum</text>
<text text-anchor="start" x="869" y="-343.8" font-family="Times,serif" font-size="14.00" fill="#000000"> : </text>
<text text-anchor="start" x="881" y="-343.8" font-family="mono" font-size="14.00" fill="#c83500">double</text>
<polygon fill="#ddeeff" stroke="transparent" points="733,-315 733,-336 934,-336 934,-315 733,-315"/>
<polygon fill="none" stroke="#8ccbf2" points="733,-315 733,-336 934,-336 934,-315 733,-315"/>
<text text-anchor="start" x="736" y="-322.8" font-family="mono" font-size="14.00" fill="#c83500">multipleOf</text>
<text text-anchor="start" x="819" y="-322.8" font-family="Times,serif" font-size="14.00" fill="#000000"> : </text>
<text text-anchor="start" x="831" y="-322.8" font-family="mono" font-size="14.00" fill="#c83500">double</text>
<polygon fill="#ddeeff" stroke="transparent" points="733,-294 733,-315 934,-315 934,-294 733,-294"/>
<polygon fill="none" stroke="#8ccbf2" points="733,-294 733,-315 934,-315 934,-294 733,-294"/>
<text text-anchor="start" x="736" y="-301.8" font-family="mono" font-size="14.00" fill="#c83500">minimum</text>
<text text-anchor="start" x="794" y="-301.8" font-family="Times,serif" font-size="14.00" fill="#000000"> : </text>
<text text-anchor="start" x="806" y="-301.8" font-family="mono" font-size="14.00" fill="#c83500">double</text>
<polygon fill="#ddeeff" stroke="transparent" points="733,-273 733,-294 934,-294 934,-273 733,-273"/>
<polygon fill="none" stroke="#8ccbf2" points="733,-273 733,-294 934,-294 934,-273 733,-273"/>
<text text-anchor="start" x="736" y="-280.8" font-family="mono" font-size="14.00" fill="#c83500">exclusiveMinimum</text>
<text text-anchor="start" x="869" y="-280.8" font-family="Times,serif" font-size="14.00" fill="#000000"> : </text>
<text text-anchor="start" x="881" y="-280.8" font-family="mono" font-size="14.00" fill="#c83500">double</text>
</g>
<!-- NumberSchema&#45;&gt;DataSchema -->
<g id="edge8" class="edge">
<title>NumberSchema&#45;&gt;DataSchema</title>
<path fill="none" stroke="#000000" d="M780.0206,-268.8139C769.4087,-255.3562 757.9699,-240.8501 746.4657,-226.261"/>
<polygon fill="#ffffff" stroke="#000000" points="749.0129,-223.8387 740.0726,-218.1535 743.5162,-228.1731 749.0129,-223.8387"/>
</g>
<!-- ObjectSchema -->
<g id="node7" class="node">
<title>ObjectSchema</title>
<polygon fill="#8ccbf2" stroke="transparent" points="968,-336 968,-357 1153,-357 1153,-336 968,-336"/>
<polygon fill="none" stroke="#8ccbf2" points="968,-336 968,-357 1153,-357 1153,-336 968,-336"/>
<text text-anchor="start" x="1010.5" y="-343.8" font-family="mono" font-weight="bold" font-size="14.00" fill="#c83500">ObjectSchema</text>
<polygon fill="#ddeeff" stroke="transparent" points="968,-315 968,-336 1153,-336 1153,-315 968,-315"/>
<polygon fill="none" stroke="#8ccbf2" points="968,-315 968,-336 1153,-336 1153,-315 968,-315"/>
<text text-anchor="start" x="971" y="-322.8" font-family="mono" font-size="14.00" fill="#c83500">required</text>
<text text-anchor="start" x="1038" y="-322.8" font-family="Times,serif" font-size="14.00" fill="#000000"> : Array of </text>
<text text-anchor="start" x="1100" y="-322.8" font-family="mono" font-size="14.00" fill="#c83500">string</text>
</g>
<!-- ObjectSchema&#45;&gt;DataSchema -->
<g id="edge2" class="edge">
<title>ObjectSchema&#45;&gt;DataSchema</title>
<path fill="none" stroke="#000000" d="M1020.4379,-310.9541C999.6785,-298.0545 973.6972,-282.2877 950,-269 934.7427,-260.4448 930.4615,-259.1804 915,-251 897.9157,-241.961 880.2413,-232.526 862.5154,-223.0046"/>
<polygon fill="#000000" stroke="#000000" points="863.7092,-219.6726 853.2441,-218.0193 860.394,-225.8379 863.7092,-219.6726"/>
<text text-anchor="start" x="915" y="-239.8" font-family="mono" font-size="14.00" fill="#c83500">properties</text>
<text text-anchor="middle" x="842.2441" y="-221.8193" font-family="Times,serif" font-size="14.00" fill="#000000">0..*</text>
</g>
<!-- ObjectSchema&#45;&gt;DataSchema -->
<g id="edge9" class="edge">
<title>ObjectSchema&#45;&gt;DataSchema</title>
<path fill="none" stroke="#000000" d="M1050.1155,-310.9367C1040.0806,-288.4604 1022.5251,-256.0252 998,-236 962.3956,-206.9284 919.511,-184.1531 876.285,-166.435"/>
<polygon fill="#ffffff" stroke="#000000" points="877.3512,-163.0916 866.767,-162.616 874.7444,-169.5882 877.3512,-163.0916"/>
</g>
<!-- StringSchema -->
<g id="node8" class="node">
<title>StringSchema</title>
<polygon fill="#8ccbf2" stroke="transparent" points="1187,-346 1187,-367 1371,-367 1371,-346 1187,-346"/>
<polygon fill="none" stroke="#8ccbf2" points="1187,-346 1187,-367 1371,-367 1371,-346 1187,-346"/>
<text text-anchor="start" x="1229" y="-353.8" font-family="mono" font-weight="bold" font-size="14.00" fill="#c83500">StringSchema</text>
<polygon fill="#ddeeff" stroke="transparent" points="1187,-325 1187,-346 1371,-346 1371,-325 1187,-325"/>
<polygon fill="none" stroke="#8ccbf2" points="1187,-325 1187,-346 1371,-346 1371,-325 1187,-325"/>
<text text-anchor="start" x="1190" y="-332.8" font-family="mono" font-size="14.00" fill="#c83500">minLength</text>
<text text-anchor="start" x="1265" y="-332.8" font-family="Times,serif" font-size="14.00" fill="#000000"> : </text>
<text text-anchor="start" x="1277" y="-332.8" font-family="mono" font-size="14.00" fill="#c83500">unsignedInt</text>
<polygon fill="#ddeeff" stroke="transparent" points="1187,-304 1187,-325 1371,-325 1371,-304 1187,-304"/>
<polygon fill="none" stroke="#8ccbf2" points="1187,-304 1187,-325 1371,-325 1371,-304 1187,-304"/>
<text text-anchor="start" x="1190" y="-311.8" font-family="mono" font-size="14.00" fill="#c83500">maxLength</text>
<text text-anchor="start" x="1265" y="-311.8" font-family="Times,serif" font-size="14.00" fill="#000000"> : </text>
<text text-anchor="start" x="1277" y="-311.8" font-family="mono" font-size="14.00" fill="#c83500">unsignedInt</text>
</g>
<!-- StringSchema&#45;&gt;DataSchema -->
<g id="edge10" class="edge">
<title>StringSchema&#45;&gt;DataSchema</title>
<path fill="none" stroke="#000000" d="M1226.9693,-300.3502C1209.3919,-289.3135 1189.318,-277.7642 1170,-269 1076.7831,-226.7094 969.2646,-191.3977 876.5805,-164.8007"/>
<polygon fill="#ffffff" stroke="#000000" points="877.374,-161.3875 866.7974,-162.0097 875.4536,-168.1189 877.374,-161.3875"/>
</g>
</g>
</svg>
