<?xml version="1.0" encoding="UTF-8" standalone="no"?>
<!DOCTYPE svg PUBLIC "-//W3C//DTD SVG 1.1//EN"
 "http://www.w3.org/Graphics/SVG/1.1/DTD/svg11.dtd">
<!-- Generated by graphviz version 2.38.0 (20140413.2041)
 -->
<!-- Title: %3 Pages: 1 -->
<svg width="1156pt" height="351pt"
 viewBox="0.00 0.00 1155.50 351.00" xmlns="http://www.w3.org/2000/svg" xmlns:xlink="http://www.w3.org/1999/xlink">
<g id="graph0" class="graph" transform="scale(1 1) rotate(0) translate(4 347)">
<title>%3</title>
<polygon fill="white" stroke="none" points="-4,4 -4,-347 1151.5,-347 1151.5,4 -4,4"/>
<!-- IntegerSchema -->
<g id="node1" class="node"><title>IntegerSchema</title>
<polygon fill="#8ccbf2" stroke="none" points="8,-317.5 8,-338.5 142,-338.5 142,-317.5 8,-317.5"/>
<polygon fill="none" stroke="#8ccbf2" points="8,-317.5 8,-338.5 142,-338.5 142,-317.5 8,-317.5"/>
<text text-anchor="start" x="21" y="-325.3" font-family="mono" font-weight="bold" font-size="14.00" fill="#c83500">IntegerSchema</text>
<polygon fill="#ddeeff" stroke="none" points="8,-296.5 8,-317.5 142,-317.5 142,-296.5 8,-296.5"/>
<polygon fill="none" stroke="#8ccbf2" points="8,-296.5 8,-317.5 142,-317.5 142,-296.5 8,-296.5"/>
<text text-anchor="start" x="11" y="-304.3" font-family="mono" font-size="14.00" fill="#c83500">minimum</text>
<text text-anchor="start" x="69" y="-304.3" font-family="Times,serif" font-size="14.00"> : </text>
<text text-anchor="start" x="81" y="-304.3" font-family="mono" font-size="14.00" fill="#c83500">integer</text>
<polygon fill="#ddeeff" stroke="none" points="8,-275.5 8,-296.5 142,-296.5 142,-275.5 8,-275.5"/>
<polygon fill="none" stroke="#8ccbf2" points="8,-275.5 8,-296.5 142,-296.5 142,-275.5 8,-275.5"/>
<text text-anchor="start" x="11" y="-283.3" font-family="mono" font-size="14.00" fill="#c83500">maximum</text>
<text text-anchor="start" x="69" y="-283.3" font-family="Times,serif" font-size="14.00"> : </text>
<text text-anchor="start" x="81" y="-283.3" font-family="mono" font-size="14.00" fill="#c83500">integer</text>
</g>
<!-- DataSchema -->
<g id="node8" class="node"><title>DataSchema</title>
<polygon fill="#8ccbf2" stroke="none" points="521,-196 521,-217 714,-217 714,-196 521,-196"/>
<polygon fill="none" stroke="#8ccbf2" points="521,-196 521,-217 714,-217 714,-196 521,-196"/>
<text text-anchor="start" x="576" y="-203.8" font-family="mono" font-weight="bold" font-size="14.00" fill="#c83500">DataSchema</text>
<polygon fill="#ddeeff" stroke="none" points="521,-175 521,-196 714,-196 714,-175 521,-175"/>
<polygon fill="none" stroke="#8ccbf2" points="521,-175 521,-196 714,-196 714,-175 521,-175"/>
<text text-anchor="start" x="524" y="-182.8" font-family="mono" font-size="14.00" fill="#c83500">writeOnly</text>
<text text-anchor="start" x="599" y="-182.8" font-family="Times,serif" font-size="14.00"> : </text>
<text text-anchor="start" x="611" y="-182.8" font-family="mono" font-size="14.00" fill="#c83500">boolean</text>
<text text-anchor="start" x="669" y="-182.8" font-family="Times,serif" font-size="14.00"> = false</text>
<polygon fill="#ddeeff" stroke="none" points="521,-154 521,-175 714,-175 714,-154 521,-154"/>
<polygon fill="none" stroke="#8ccbf2" points="521,-154 521,-175 714,-175 714,-154 521,-154"/>
<text text-anchor="start" x="524" y="-161.8" font-family="mono" font-size="14.00" fill="#c83500">readOnly</text>
<text text-anchor="start" x="591" y="-161.8" font-family="Times,serif" font-size="14.00"> : </text>
<text text-anchor="start" x="603" y="-161.8" font-family="mono" font-size="14.00" fill="#c83500">boolean</text>
<text text-anchor="start" x="661" y="-161.8" font-family="Times,serif" font-size="14.00"> = false</text>
<polygon fill="#ddeeff" stroke="none" points="521,-133 521,-154 714,-154 714,-133 521,-133"/>
<polygon fill="none" stroke="#8ccbf2" points="521,-133 521,-154 714,-154 714,-133 521,-133"/>
<text text-anchor="start" x="524" y="-140.8" font-family="mono" font-size="14.00" fill="#c83500">description</text>
<text text-anchor="start" x="615" y="-140.8" font-family="Times,serif" font-size="14.00"> : </text>
<text text-anchor="start" x="627" y="-140.8" font-family="mono" font-size="14.00" fill="#c83500">string</text>
<polygon fill="#ddeeff" stroke="none" points="521,-112 521,-133 714,-133 714,-112 521,-112"/>
<polygon fill="none" stroke="#8ccbf2" points="521,-112 521,-133 714,-133 714,-112 521,-112"/>
<text text-anchor="start" x="524" y="-119.8" font-family="mono" font-size="14.00" fill="#c83500">type</text>
<text text-anchor="start" x="558" y="-119.8" font-family="Times,serif" font-size="14.00"> : </text>
<text text-anchor="start" x="570" y="-119.8" font-family="mono" font-size="14.00" fill="#c83500">string</text>
<polygon fill="#ddeeff" stroke="none" points="521,-91 521,-112 714,-112 714,-91 521,-91"/>
<polygon fill="none" stroke="#8ccbf2" points="521,-91 521,-112 714,-112 714,-91 521,-91"/>
<text text-anchor="start" x="524" y="-98.8" font-family="mono" font-size="14.00" fill="#c83500">title</text>
<text text-anchor="start" x="566" y="-98.8" font-family="Times,serif" font-size="14.00"> : </text>
<text text-anchor="start" x="578" y="-98.8" font-family="mono" font-size="14.00" fill="#c83500">string</text>
</g>
<!-- IntegerSchema&#45;&gt;DataSchema -->
<g id="edge10" class="edge"><title>IntegerSchema&#45;&gt;DataSchema</title>
<path fill="none" stroke="black" d="M150.369,-274.964C153.272,-273.934 156.157,-272.942 159,-272 274.119,-233.863 408.94,-200.77 502.361,-179.605"/>
<polygon fill="white" stroke="black" points="503.137,-183.018 512.122,-177.403 501.596,-176.189 503.137,-183.018"/>
</g>
<!-- StringSchema -->
<g id="node2" class="node"><title>StringSchema</title>
<polygon fill="#8ccbf2" stroke="none" points="176,-296.5 176,-317.5 282,-317.5 282,-296.5 176,-296.5"/>
<polygon fill="none" stroke="#8ccbf2" points="176,-296.5 176,-317.5 282,-317.5 282,-296.5 176,-296.5"/>
<text text-anchor="start" x="179" y="-304.3" font-family="mono" font-weight="bold" font-size="14.00" fill="#c83500">StringSchema</text>
</g>
<!-- StringSchema&#45;&gt;DataSchema -->
<g id="edge13" class="edge"><title>StringSchema&#45;&gt;DataSchema</title>
<path fill="none" stroke="black" d="M261.782,-289.455C273.412,-283.645 286.673,-277.288 299,-272 365.584,-243.437 441.703,-215.277 502.773,-193.743"/>
<polygon fill="white" stroke="black" points="504.167,-196.963 512.441,-190.345 501.846,-190.359 504.167,-196.963"/>
</g>
<!-- BooleanSchema -->
<g id="node3" class="node"><title>BooleanSchema</title>
<polygon fill="#8ccbf2" stroke="none" points="316,-296.5 316,-317.5 430,-317.5 430,-296.5 316,-296.5"/>
<polygon fill="none" stroke="#8ccbf2" points="316,-296.5 316,-317.5 430,-317.5 430,-296.5 316,-296.5"/>
<text text-anchor="start" x="319" y="-304.3" font-family="mono" font-weight="bold" font-size="14.00" fill="#c83500">BooleanSchema</text>
</g>
<!-- BooleanSchema&#45;&gt;DataSchema -->
<g id="edge11" class="edge"><title>BooleanSchema&#45;&gt;DataSchema</title>
<path fill="none" stroke="black" d="M400.516,-289.416C425.891,-273.66 465.318,-249.179 503.609,-225.405"/>
<polygon fill="white" stroke="black" points="505.621,-228.275 512.271,-220.027 501.929,-222.328 505.621,-228.275"/>
</g>
<!-- NumberSchema -->
<g id="node4" class="node"><title>NumberSchema</title>
<polygon fill="#8ccbf2" stroke="none" points="464,-317.5 464,-338.5 590,-338.5 590,-317.5 464,-317.5"/>
<polygon fill="none" stroke="#8ccbf2" points="464,-317.5 464,-338.5 590,-338.5 590,-317.5 464,-317.5"/>
<text text-anchor="start" x="477" y="-325.3" font-family="mono" font-weight="bold" font-size="14.00" fill="#c83500">NumberSchema</text>
<polygon fill="#ddeeff" stroke="none" points="464,-296.5 464,-317.5 590,-317.5 590,-296.5 464,-296.5"/>
<polygon fill="none" stroke="#8ccbf2" points="464,-296.5 464,-317.5 590,-317.5 590,-296.5 464,-296.5"/>
<text text-anchor="start" x="467" y="-304.3" font-family="mono" font-size="14.00" fill="#c83500">maximum</text>
<text text-anchor="start" x="525" y="-304.3" font-family="Times,serif" font-size="14.00"> : </text>
<text text-anchor="start" x="537" y="-304.3" font-family="mono" font-size="14.00" fill="#c83500">double</text>
<polygon fill="#ddeeff" stroke="none" points="464,-275.5 464,-296.5 590,-296.5 590,-275.5 464,-275.5"/>
<polygon fill="none" stroke="#8ccbf2" points="464,-275.5 464,-296.5 590,-296.5 590,-275.5 464,-275.5"/>
<text text-anchor="start" x="467" y="-283.3" font-family="mono" font-size="14.00" fill="#c83500">minimum</text>
<text text-anchor="start" x="525" y="-283.3" font-family="Times,serif" font-size="14.00"> : </text>
<text text-anchor="start" x="537" y="-283.3" font-family="mono" font-size="14.00" fill="#c83500">double</text>
</g>
<!-- NumberSchema&#45;&gt;DataSchema -->
<g id="edge9" class="edge"><title>NumberSchema&#45;&gt;DataSchema</title>
<path fill="none" stroke="black" d="M547.648,-271.743C555.11,-259.182 563.85,-244.47 572.562,-229.804"/>
<polygon fill="white" stroke="black" points="575.58,-231.577 577.678,-221.192 569.562,-228.002 575.58,-231.577"/>
</g>
<!-- ObjectSchema -->
<g id="node5" class="node"><title>ObjectSchema</title>
<polygon fill="#8ccbf2" stroke="none" points="625,-307.5 625,-328.5 806,-328.5 806,-307.5 625,-307.5"/>
<polygon fill="none" stroke="#8ccbf2" points="625,-307.5 625,-328.5 806,-328.5 806,-307.5 625,-307.5"/>
<text text-anchor="start" x="665.5" y="-315.3" font-family="mono" font-weight="bold" font-size="14.00" fill="#c83500">ObjectSchema</text>
<polygon fill="#ddeeff" stroke="none" points="625,-286.5 625,-307.5 806,-307.5 806,-286.5 625,-286.5"/>
<polygon fill="none" stroke="#8ccbf2" points="625,-286.5 625,-307.5 806,-307.5 806,-286.5 625,-286.5"/>
<text text-anchor="start" x="628" y="-294.3" font-family="mono" font-size="14.00" fill="#c83500">required</text>
<text text-anchor="start" x="695" y="-294.3" font-family="Times,serif" font-size="14.00"> : array of </text>
<text text-anchor="start" x="753" y="-294.3" font-family="mono" font-size="14.00" fill="#c83500">string</text>
</g>
<!-- ObjectSchema&#45;&gt;DataSchema -->
<g id="edge1" class="edge"><title>ObjectSchema&#45;&gt;DataSchema</title>
<path fill="none" stroke="black" d="M647.732,-282.423C635.903,-275.127 625.117,-265.808 618,-254 613.774,-246.988 611.086,-239.158 609.509,-231.057"/>
<polygon fill="black" stroke="black" points="612.965,-230.495 608.11,-221.078 606.033,-231.467 612.965,-230.495"/>
<text text-anchor="start" x="618" y="-242.8" font-family="mono" font-size="14.00" fill="#c83500">properties</text>
<text text-anchor="middle" x="597.11" y="-224.878" font-family="Times,serif" font-size="14.00">0..1</text>
</g>
<!-- ObjectSchema&#45;&gt;DataSchema -->
<g id="edge7" class="edge"><title>ObjectSchema&#45;&gt;DataSchema</title>
<path fill="none" stroke="black" d="M713.377,-282.225C711.666,-268.829 708.163,-252.27 701,-239 699.231,-235.722 697.293,-232.488 695.219,-229.309"/>
<polygon fill="white" stroke="black" points="698.03,-227.221 689.434,-221.027 692.291,-231.23 698.03,-227.221"/>
</g>
<!-- ArraySchema -->
<g id="node6" class="node"><title>ArraySchema</title>
<polygon fill="#8ccbf2" stroke="none" points="840,-317.5 840,-338.5 1016,-338.5 1016,-317.5 840,-317.5"/>
<polygon fill="none" stroke="#8ccbf2" points="840,-317.5 840,-338.5 1016,-338.5 1016,-317.5 840,-317.5"/>
<text text-anchor="start" x="882.5" y="-325.3" font-family="mono" font-weight="bold" font-size="14.00" fill="#c83500">ArraySchema</text>
<polygon fill="#ddeeff" stroke="none" points="840,-296.5 840,-317.5 1016,-317.5 1016,-296.5 840,-296.5"/>
<polygon fill="none" stroke="#8ccbf2" points="840,-296.5 840,-317.5 1016,-317.5 1016,-296.5 840,-296.5"/>
<text text-anchor="start" x="843" y="-304.3" font-family="mono" font-size="14.00" fill="#c83500">minItems</text>
<text text-anchor="start" x="910" y="-304.3" font-family="Times,serif" font-size="14.00"> : </text>
<text text-anchor="start" x="922" y="-304.3" font-family="mono" font-size="14.00" fill="#c83500">unsignedInt</text>
<polygon fill="#ddeeff" stroke="none" points="840,-275.5 840,-296.5 1016,-296.5 1016,-275.5 840,-275.5"/>
<polygon fill="none" stroke="#8ccbf2" points="840,-275.5 840,-296.5 1016,-296.5 1016,-275.5 840,-275.5"/>
<text text-anchor="start" x="843" y="-283.3" font-family="mono" font-size="14.00" fill="#c83500">maxItems</text>
<text text-anchor="start" x="910" y="-283.3" font-family="Times,serif" font-size="14.00"> : </text>
<text text-anchor="start" x="922" y="-283.3" font-family="mono" font-size="14.00" fill="#c83500">unsignedInt</text>
</g>
<!-- ArraySchema&#45;&gt;DataSchema -->
<g id="edge2" class="edge"><title>ArraySchema&#45;&gt;DataSchema</title>
<path fill="none" stroke="black" d="M857.04,-271.933C819.711,-253.748 773.044,-231.015 730.808,-210.44"/>
<polygon fill="black" stroke="black" points="732.11,-207.181 721.587,-205.948 729.045,-213.474 732.11,-207.181"/>
<text text-anchor="start" x="819" y="-242.8" font-family="mono" font-size="14.00" fill="#c83500">items</text>
<text text-anchor="middle" x="732.587" y="-209.748" font-family="Times,serif" font-size="14.00">0..1</text>
</g>
<!-- ArraySchema&#45;&gt;DataSchema -->
<g id="edge8" class="edge"><title>ArraySchema&#45;&gt;DataSchema</title>
<path fill="none" stroke="black" d="M901.641,-271.886C891.278,-260.14 878.602,-247.781 865,-239 824.7,-212.985 775.488,-194.145 731.557,-180.984"/>
<polygon fill="white" stroke="black" points="732.267,-177.545 721.686,-178.095 730.3,-184.264 732.267,-177.545"/>
</g>
<!-- NullSchema -->
<g id="node7" class="node"><title>NullSchema</title>
<polygon fill="#8ccbf2" stroke="none" points="1051,-296.5 1051,-317.5 1140,-317.5 1140,-296.5 1051,-296.5"/>
<polygon fill="none" stroke="#8ccbf2" points="1051,-296.5 1051,-317.5 1140,-317.5 1140,-296.5 1051,-296.5"/>
<text text-anchor="start" x="1054" y="-304.3" font-family="mono" font-weight="bold" font-size="14.00" fill="#c83500">NullSchema</text>
</g>
<!-- NullSchema&#45;&gt;DataSchema -->
<g id="edge12" class="edge"><title>NullSchema&#45;&gt;DataSchema</title>
<path fill="none" stroke="black" d="M1067.6,-289.442C1057.06,-283.364 1044.73,-276.835 1033,-272 934.253,-231.297 816.684,-199.682 731.765,-179.634"/>
<polygon fill="white" stroke="black" points="732.369,-176.181 721.835,-177.307 730.772,-182.996 732.369,-176.181"/>
</g>
<!-- DataSchema&#45;&gt;DataSchema -->
<g id="edge5" class="edge"><title>DataSchema&#45;&gt;DataSchema</title>
<path fill="none" stroke="black" d="M721.552,-168.293C732.49,-165.502 739.5,-160.738 739.5,-154 739.5,-149.578 736.481,-146.006 731.314,-143.285"/>
<polygon fill="black" stroke="black" points="732.146,-139.862 721.552,-139.707 729.737,-146.434 732.146,-139.862"/>
<text text-anchor="start" x="739.5" y="-150.3" font-family="mono" font-size="14.00" fill="#c83500">oneOf</text>
<text text-anchor="middle" x="732.552" y="-128.507" font-family="Times,serif" font-size="14.00">0..*</text>
</g>
<!-- string -->
<g id="node9" class="node"><title>string</title>
<polygon fill="#f2f2f2" stroke="none" points="532,-7 532,-28 588,-28 588,-7 532,-7"/>
<polygon fill="none" stroke="#8c8c8c" points="532,-7 532,-28 588,-28 588,-7 532,-7"/>
<text text-anchor="start" x="535" y="-14.8" font-family="mono" font-weight="bold" font-size="14.00">string</text>
</g>
<!-- DataSchema&#45;&gt;string -->
<g id="edge3" class="edge"><title>DataSchema&#45;&gt;string</title>
<path fill="none" stroke="black" d="M568.195,-86.8548C565.354,-81.0087 562.889,-75.0204 561,-69 558.739,-61.7928 557.899,-53.7095 557.776,-46.178"/>
<polygon fill="black" stroke="black" points="561.278,-46.1238 558.005,-36.0472 554.28,-45.9654 561.278,-46.1238"/>
<text text-anchor="start" x="561" y="-57.8" font-family="mono" font-size="14.00" fill="#c83500">unit</text>
<text text-anchor="middle" x="547.005" y="-39.8472" font-family="Times,serif" font-size="14.00">0..1</text>
</g>
<!-- MultiLanguage -->
<g id="node10" class="node"><title>MultiLanguage</title>
<polygon fill="#f2f2f2" stroke="none" points="627,-7 627,-28 741,-28 741,-7 627,-7"/>
<polygon fill="none" stroke="#8c8c8c" points="627,-7 627,-28 741,-28 741,-7 627,-7"/>
<text text-anchor="start" x="630" y="-14.8" font-family="mono" font-weight="bold" font-size="14.00">MultiLanguage</text>
</g>
<!-- DataSchema&#45;&gt;MultiLanguage -->
<g id="edge4" class="edge"><title>DataSchema&#45;&gt;MultiLanguage</title>
<path fill="none" stroke="black" d="M608.041,-86.8808C609.092,-75.3075 612.014,-63.838 618,-54 620.712,-49.5439 624.2,-45.624 628.155,-42.182"/>
<polygon fill="black" stroke="black" points="630.333,-44.9235 636.252,-36.1362 626.145,-39.3145 630.333,-44.9235"/>
<text text-anchor="start" x="618" y="-57.8" font-family="mono" font-size="14.00" fill="#c83500">titles</text>
<text text-anchor="middle" x="625.252" y="-39.9362" font-family="Times,serif" font-size="14.00">0..1</text>
</g>
<!-- DataSchema&#45;&gt;MultiLanguage -->
<g id="edge6" class="edge"><title>DataSchema&#45;&gt;MultiLanguage</title>
<path fill="none" stroke="black" d="M659.113,-86.8365C662.297,-80.8978 665.311,-74.8992 668,-69 671.364,-61.619 674.323,-53.3269 676.752,-45.6492"/>
<polygon fill="black" stroke="black" points="680.114,-46.6222 679.629,-36.0385 673.408,-44.6147 680.114,-46.6222"/>
<text text-anchor="start" x="674" y="-57.8" font-family="mono" font-size="14.00" fill="#c83500">descriptions</text>
<text text-anchor="middle" x="668.629" y="-39.8385" font-family="Times,serif" font-size="14.00">0..1</text>
</g>
</g>
</svg>
