<?xml version="1.0" encoding="UTF-8" standalone="no"?>
<!DOCTYPE svg PUBLIC "-//W3C//DTD SVG 1.1//EN"
 "http://www.w3.org/Graphics/SVG/1.1/DTD/svg11.dtd">
<!-- Generated by graphviz version 2.40.1 (20161225.0304)
 -->
<!-- Title: %3 Pages: 1 -->
<svg width="1156pt" height="351pt"
 viewBox="0.00 0.00 1155.50 351.00" xmlns="http://www.w3.org/2000/svg" xmlns:xlink="http://www.w3.org/1999/xlink">
<g id="graph0" class="graph" transform="scale(1 1) rotate(0) translate(4 347)">
<title>%3</title>
<polygon fill="#ffffff" stroke="transparent" points="-4,4 -4,-347 1151.5,-347 1151.5,4 -4,4"/>
<!-- IntegerSchema -->
<g id="node1" class="node">
<title>IntegerSchema</title>
<polygon fill="#8ccbf2" stroke="transparent" points="8,-317.5 8,-338.5 142,-338.5 142,-317.5 8,-317.5"/>
<polygon fill="none" stroke="#8ccbf2" points="8,-317.5 8,-338.5 142,-338.5 142,-317.5 8,-317.5"/>
<text text-anchor="start" x="21" y="-325.3" font-family="mono" font-weight="bold" font-size="14.00" fill="#c83500">IntegerSchema</text>
<polygon fill="#ddeeff" stroke="transparent" points="8,-296.5 8,-317.5 142,-317.5 142,-296.5 8,-296.5"/>
<polygon fill="none" stroke="#8ccbf2" points="8,-296.5 8,-317.5 142,-317.5 142,-296.5 8,-296.5"/>
<text text-anchor="start" x="11" y="-304.3" font-family="mono" font-size="14.00" fill="#c83500">maximum</text>
<text text-anchor="start" x="69" y="-304.3" font-family="Times,serif" font-size="14.00" fill="#000000"> : </text>
<text text-anchor="start" x="81" y="-304.3" font-family="mono" font-size="14.00" fill="#c83500">integer</text>
<polygon fill="#ddeeff" stroke="transparent" points="8,-275.5 8,-296.5 142,-296.5 142,-275.5 8,-275.5"/>
<polygon fill="none" stroke="#8ccbf2" points="8,-275.5 8,-296.5 142,-296.5 142,-275.5 8,-275.5"/>
<text text-anchor="start" x="11" y="-283.3" font-family="mono" font-size="14.00" fill="#c83500">minimum</text>
<text text-anchor="start" x="69" y="-283.3" font-family="Times,serif" font-size="14.00" fill="#000000"> : </text>
<text text-anchor="start" x="81" y="-283.3" font-family="mono" font-size="14.00" fill="#c83500">integer</text>
</g>
<!-- DataSchema -->
<g id="node8" class="node">
<title>DataSchema</title>
<polygon fill="#8ccbf2" stroke="transparent" points="506,-196 506,-217 729,-217 729,-196 506,-196"/>
<polygon fill="none" stroke="#8ccbf2" points="506,-196 506,-217 729,-217 729,-196 506,-196"/>
<text text-anchor="start" x="576" y="-203.8" font-family="mono" font-weight="bold" font-size="14.00" fill="#c83500">DataSchema</text>
<polygon fill="#ddeeff" stroke="transparent" points="506,-175 506,-196 729,-196 729,-175 506,-175"/>
<polygon fill="none" stroke="#8ccbf2" points="506,-175 506,-196 729,-196 729,-175 506,-175"/>
<text text-anchor="start" x="509" y="-182.8" font-family="mono" font-size="14.00" fill="#c83500">writeOnly</text>
<text text-anchor="start" x="584" y="-182.8" font-family="Times,serif" font-size="14.00" fill="#000000"> : </text>
<text text-anchor="start" x="596" y="-182.8" font-family="mono" font-size="14.00" fill="#c83500">boolean</text>
<text text-anchor="start" x="654" y="-182.8" font-family="Times,serif" font-size="14.00" fill="#000000"> </text>
<text text-anchor="start" x="658" y="-182.8" font-family="Times,serif" font-style="italic" font-size="14.00" fill="#000000">(mandatory)</text>
<polygon fill="#ddeeff" stroke="transparent" points="506,-154 506,-175 729,-175 729,-154 506,-154"/>
<polygon fill="none" stroke="#8ccbf2" points="506,-154 506,-175 729,-175 729,-154 506,-154"/>
<text text-anchor="start" x="509" y="-161.8" font-family="mono" font-size="14.00" fill="#c83500">description</text>
<text text-anchor="start" x="600" y="-161.8" font-family="Times,serif" font-size="14.00" fill="#000000"> : </text>
<text text-anchor="start" x="612" y="-161.8" font-family="mono" font-size="14.00" fill="#c83500">string</text>
<polygon fill="#ddeeff" stroke="transparent" points="506,-133 506,-154 729,-154 729,-133 506,-133"/>
<polygon fill="none" stroke="#8ccbf2" points="506,-133 506,-154 729,-154 729,-133 506,-133"/>
<text text-anchor="start" x="509" y="-140.8" font-family="mono" font-size="14.00" fill="#c83500">title</text>
<text text-anchor="start" x="551" y="-140.8" font-family="Times,serif" font-size="14.00" fill="#000000"> : </text>
<text text-anchor="start" x="563" y="-140.8" font-family="mono" font-size="14.00" fill="#c83500">string</text>
<polygon fill="#ddeeff" stroke="transparent" points="506,-112 506,-133 729,-133 729,-112 506,-112"/>
<polygon fill="none" stroke="#8ccbf2" points="506,-112 506,-133 729,-133 729,-112 506,-112"/>
<text text-anchor="start" x="509" y="-119.8" font-family="mono" font-size="14.00" fill="#c83500">readOnly</text>
<text text-anchor="start" x="576" y="-119.8" font-family="Times,serif" font-size="14.00" fill="#000000"> : </text>
<text text-anchor="start" x="588" y="-119.8" font-family="mono" font-size="14.00" fill="#c83500">boolean</text>
<text text-anchor="start" x="646" y="-119.8" font-family="Times,serif" font-size="14.00" fill="#000000"> </text>
<text text-anchor="start" x="650" y="-119.8" font-family="Times,serif" font-style="italic" font-size="14.00" fill="#000000">(mandatory)</text>
<polygon fill="#ddeeff" stroke="transparent" points="506,-91 506,-112 729,-112 729,-91 506,-91"/>
<polygon fill="none" stroke="#8ccbf2" points="506,-91 506,-112 729,-112 729,-91 506,-91"/>
<text text-anchor="start" x="509" y="-98.8" font-family="mono" font-size="14.00" fill="#c83500">type</text>
<text text-anchor="start" x="543" y="-98.8" font-family="Times,serif" font-size="14.00" fill="#000000"> : </text>
<text text-anchor="start" x="555" y="-98.8" font-family="mono" font-size="14.00" fill="#c83500">string</text>
</g>
<!-- IntegerSchema&#45;&gt;DataSchema -->
<g id="edge9" class="edge">
<title>IntegerSchema&#45;&gt;DataSchema</title>
<path fill="none" stroke="#000000" d="M150.3534,-275.0347C153.2609,-273.9793 156.1503,-272.9634 159,-272 268.0117,-235.1467 394.9257,-203.2801 487.4721,-181.9848"/>
<polygon fill="#ffffff" stroke="#000000" points="488.4831,-185.344 497.4491,-179.6994 486.92,-178.5207 488.4831,-185.344"/>
</g>
<!-- StringSchema -->
<g id="node2" class="node">
<title>StringSchema</title>
<polygon fill="#8ccbf2" stroke="transparent" points="176,-296.5 176,-317.5 282,-317.5 282,-296.5 176,-296.5"/>
<polygon fill="none" stroke="#8ccbf2" points="176,-296.5 176,-317.5 282,-317.5 282,-296.5 176,-296.5"/>
<text text-anchor="start" x="179" y="-304.3" font-family="mono" font-weight="bold" font-size="14.00" fill="#c83500">StringSchema</text>
</g>
<!-- StringSchema&#45;&gt;DataSchema -->
<g id="edge13" class="edge">
<title>StringSchema&#45;&gt;DataSchema</title>
<path fill="none" stroke="#000000" d="M262.8068,-289.3757C274.1752,-283.545 287.0151,-277.2423 299,-272 360.0719,-245.2867 429.3107,-219.1258 487.553,-198.2519"/>
<polygon fill="#ffffff" stroke="#000000" points="488.9342,-201.4752 497.1745,-194.8157 486.5798,-194.883 488.9342,-201.4752"/>
</g>
<!-- BooleanSchema -->
<g id="node3" class="node">
<title>BooleanSchema</title>
<polygon fill="#8ccbf2" stroke="transparent" points="316,-296.5 316,-317.5 430,-317.5 430,-296.5 316,-296.5"/>
<polygon fill="none" stroke="#8ccbf2" points="316,-296.5 316,-317.5 430,-317.5 430,-296.5 316,-296.5"/>
<text text-anchor="start" x="319" y="-304.3" font-family="mono" font-weight="bold" font-size="14.00" fill="#c83500">BooleanSchema</text>
</g>
<!-- BooleanSchema&#45;&gt;DataSchema -->
<g id="edge10" class="edge">
<title>BooleanSchema&#45;&gt;DataSchema</title>
<path fill="none" stroke="#000000" d="M401.9482,-289.2887C426.8994,-273.592 464.6351,-249.8525 501.5662,-226.6192"/>
<polygon fill="#ffffff" stroke="#000000" points="503.8253,-229.3331 510.4259,-221.0456 500.0978,-223.408 503.8253,-229.3331"/>
</g>
<!-- NumberSchema -->
<g id="node4" class="node">
<title>NumberSchema</title>
<polygon fill="#8ccbf2" stroke="transparent" points="464,-317.5 464,-338.5 590,-338.5 590,-317.5 464,-317.5"/>
<polygon fill="none" stroke="#8ccbf2" points="464,-317.5 464,-338.5 590,-338.5 590,-317.5 464,-317.5"/>
<text text-anchor="start" x="477" y="-325.3" font-family="mono" font-weight="bold" font-size="14.00" fill="#c83500">NumberSchema</text>
<polygon fill="#ddeeff" stroke="transparent" points="464,-296.5 464,-317.5 590,-317.5 590,-296.5 464,-296.5"/>
<polygon fill="none" stroke="#8ccbf2" points="464,-296.5 464,-317.5 590,-317.5 590,-296.5 464,-296.5"/>
<text text-anchor="start" x="467" y="-304.3" font-family="mono" font-size="14.00" fill="#c83500">minimum</text>
<text text-anchor="start" x="525" y="-304.3" font-family="Times,serif" font-size="14.00" fill="#000000"> : </text>
<text text-anchor="start" x="537" y="-304.3" font-family="mono" font-size="14.00" fill="#c83500">double</text>
<polygon fill="#ddeeff" stroke="transparent" points="464,-275.5 464,-296.5 590,-296.5 590,-275.5 464,-275.5"/>
<polygon fill="none" stroke="#8ccbf2" points="464,-275.5 464,-296.5 590,-296.5 590,-275.5 464,-275.5"/>
<text text-anchor="start" x="467" y="-283.3" font-family="mono" font-size="14.00" fill="#c83500">maximum</text>
<text text-anchor="start" x="525" y="-283.3" font-family="Times,serif" font-size="14.00" fill="#000000"> : </text>
<text text-anchor="start" x="537" y="-283.3" font-family="mono" font-size="14.00" fill="#c83500">double</text>
</g>
<!-- NumberSchema&#45;&gt;DataSchema -->
<g id="edge12" class="edge">
<title>NumberSchema&#45;&gt;DataSchema</title>
<path fill="none" stroke="#000000" d="M547.874,-271.8982C555.2968,-259.2382 563.9631,-244.4575 572.5998,-229.727"/>
<polygon fill="#ffffff" stroke="#000000" points="575.6333,-231.473 577.672,-221.0761 569.5947,-227.9324 575.6333,-231.473"/>
</g>
<!-- ObjectSchema -->
<g id="node5" class="node">
<title>ObjectSchema</title>
<polygon fill="#8ccbf2" stroke="transparent" points="625,-307.5 625,-328.5 806,-328.5 806,-307.5 625,-307.5"/>
<polygon fill="none" stroke="#8ccbf2" points="625,-307.5 625,-328.5 806,-328.5 806,-307.5 625,-307.5"/>
<text text-anchor="start" x="665.5" y="-315.3" font-family="mono" font-weight="bold" font-size="14.00" fill="#c83500">ObjectSchema</text>
<polygon fill="#ddeeff" stroke="transparent" points="625,-286.5 625,-307.5 806,-307.5 806,-286.5 625,-286.5"/>
<polygon fill="none" stroke="#8ccbf2" points="625,-286.5 625,-307.5 806,-307.5 806,-286.5 625,-286.5"/>
<text text-anchor="start" x="628" y="-294.3" font-family="mono" font-size="14.00" fill="#c83500">required</text>
<text text-anchor="start" x="695" y="-294.3" font-family="Times,serif" font-size="14.00" fill="#000000"> : array of </text>
<text text-anchor="start" x="753" y="-294.3" font-family="mono" font-size="14.00" fill="#c83500">string</text>
</g>
<!-- ObjectSchema&#45;&gt;DataSchema -->
<g id="edge1" class="edge">
<title>ObjectSchema&#45;&gt;DataSchema</title>
<path fill="none" stroke="#000000" d="M647.214,-282.4294C635.5804,-275.0587 625.0014,-265.723 618,-254 613.8229,-247.0059 611.1434,-239.2161 609.5529,-231.1574"/>
<polygon fill="#000000" stroke="#000000" points="613.0131,-230.6297 608.1254,-221.2296 606.0843,-231.626 613.0131,-230.6297"/>
<text text-anchor="start" x="618" y="-242.8" font-family="mono" font-size="14.00" fill="#c83500">properties</text>
<text text-anchor="middle" x="597.1254" y="-225.0296" font-family="Times,serif" font-size="14.00" fill="#000000">0..1</text>
</g>
<!-- ObjectSchema&#45;&gt;DataSchema -->
<g id="edge7" class="edge">
<title>ObjectSchema&#45;&gt;DataSchema</title>
<path fill="none" stroke="#000000" d="M713.3276,-282.2345C711.597,-268.7628 708.0908,-252.2765 701,-239 699.2605,-235.7431 697.3569,-232.5282 695.3205,-229.3652"/>
<polygon fill="#ffffff" stroke="#000000" points="698.1963,-227.3703 689.6409,-221.1208 692.4318,-231.3415 698.1963,-227.3703"/>
</g>
<!-- ArraySchema -->
<g id="node6" class="node">
<title>ArraySchema</title>
<polygon fill="#8ccbf2" stroke="transparent" points="840,-317.5 840,-338.5 1016,-338.5 1016,-317.5 840,-317.5"/>
<polygon fill="none" stroke="#8ccbf2" points="840,-317.5 840,-338.5 1016,-338.5 1016,-317.5 840,-317.5"/>
<text text-anchor="start" x="882.5" y="-325.3" font-family="mono" font-weight="bold" font-size="14.00" fill="#c83500">ArraySchema</text>
<polygon fill="#ddeeff" stroke="transparent" points="840,-296.5 840,-317.5 1016,-317.5 1016,-296.5 840,-296.5"/>
<polygon fill="none" stroke="#8ccbf2" points="840,-296.5 840,-317.5 1016,-317.5 1016,-296.5 840,-296.5"/>
<text text-anchor="start" x="843" y="-304.3" font-family="mono" font-size="14.00" fill="#c83500">maxItems</text>
<text text-anchor="start" x="910" y="-304.3" font-family="Times,serif" font-size="14.00" fill="#000000"> : </text>
<text text-anchor="start" x="922" y="-304.3" font-family="mono" font-size="14.00" fill="#c83500">unsignedInt</text>
<polygon fill="#ddeeff" stroke="transparent" points="840,-275.5 840,-296.5 1016,-296.5 1016,-275.5 840,-275.5"/>
<polygon fill="none" stroke="#8ccbf2" points="840,-275.5 840,-296.5 1016,-296.5 1016,-275.5 840,-275.5"/>
<text text-anchor="start" x="843" y="-283.3" font-family="mono" font-size="14.00" fill="#c83500">minItems</text>
<text text-anchor="start" x="910" y="-283.3" font-family="Times,serif" font-size="14.00" fill="#000000"> : </text>
<text text-anchor="start" x="922" y="-283.3" font-family="mono" font-size="14.00" fill="#c83500">unsignedInt</text>
</g>
<!-- ArraySchema&#45;&gt;DataSchema -->
<g id="edge2" class="edge">
<title>ArraySchema&#45;&gt;DataSchema</title>
<path fill="none" stroke="#000000" d="M848.7786,-271.8865C836.097,-266.01 823.1534,-259.907 811,-254 789.7335,-243.6638 767.3075,-232.4248 745.5511,-221.3374"/>
<polygon fill="#000000" stroke="#000000" points="747.099,-218.1979 736.6014,-216.7659 743.9148,-224.4317 747.099,-218.1979"/>
<text text-anchor="start" x="811" y="-242.8" font-family="mono" font-size="14.00" fill="#c83500">items</text>
<text text-anchor="middle" x="747.6014" y="-220.5659" font-family="Times,serif" font-size="14.00" fill="#000000">0..1</text>
</g>
<!-- ArraySchema&#45;&gt;DataSchema -->
<g id="edge8" class="edge">
<title>ArraySchema&#45;&gt;DataSchema</title>
<path fill="none" stroke="#000000" d="M894.8399,-271.9865C882.5505,-260.3072 867.9476,-248.0195 853,-239 820.2268,-219.2245 782.1378,-203.0084 746.2469,-190.2387"/>
<polygon fill="#ffffff" stroke="#000000" points="747.2779,-186.8915 736.683,-186.8978 744.9694,-193.4999 747.2779,-186.8915"/>
</g>
<!-- NullSchema -->
<g id="node7" class="node">
<title>NullSchema</title>
<polygon fill="#8ccbf2" stroke="transparent" points="1051,-296.5 1051,-317.5 1140,-317.5 1140,-296.5 1051,-296.5"/>
<polygon fill="none" stroke="#8ccbf2" points="1051,-296.5 1051,-317.5 1140,-317.5 1140,-296.5 1051,-296.5"/>
<text text-anchor="start" x="1054" y="-304.3" font-family="mono" font-weight="bold" font-size="14.00" fill="#c83500">NullSchema</text>
</g>
<!-- NullSchema&#45;&gt;DataSchema -->
<g id="edge11" class="edge">
<title>NullSchema&#45;&gt;DataSchema</title>
<path fill="none" stroke="#000000" d="M1066.7269,-289.3767C1056.3944,-283.2786 1044.433,-276.8096 1033,-272 939.9791,-232.8682 829.9432,-202.2961 746.4111,-182.0844"/>
<polygon fill="#ffffff" stroke="#000000" points="747.1572,-178.6641 736.6164,-179.7324 745.5227,-185.4706 747.1572,-178.6641"/>
</g>
<!-- DataSchema&#45;&gt;DataSchema -->
<g id="edge3" class="edge">
<title>DataSchema&#45;&gt;DataSchema</title>
<path fill="none" stroke="#000000" d="M736.7499,-167.7082C747.6463,-164.8585 754.5,-160.2891 754.5,-154 754.5,-149.8728 751.5483,-146.4862 746.4395,-143.8402"/>
<polygon fill="#000000" stroke="#000000" points="747.3436,-140.444 736.7499,-140.2918 744.9365,-147.0172 747.3436,-140.444"/>
<text text-anchor="start" x="754.5" y="-150.3" font-family="mono" font-size="14.00" fill="#c83500">oneOf</text>
<text text-anchor="middle" x="747.7499" y="-129.0918" font-family="Times,serif" font-size="14.00" fill="#000000">0..*</text>
</g>
<!-- string -->
<g id="node9" class="node">
<title>string</title>
<polygon fill="#f2f2f2" stroke="transparent" points="532,-7 532,-28 588,-28 588,-7 532,-7"/>
<polygon fill="none" stroke="#8c8c8c" points="532,-7 532,-28 588,-28 588,-7 532,-7"/>
<text text-anchor="start" x="535" y="-14.8" font-family="mono" font-weight="bold" font-size="14.00" fill="#000000">string</text>
</g>
<!-- DataSchema&#45;&gt;string -->
<g id="edge4" class="edge">
<title>DataSchema&#45;&gt;string</title>
<path fill="none" stroke="#000000" d="M567.9549,-86.5384C565.2136,-80.7874 562.8342,-74.9069 561,-69 558.7866,-61.8719 557.9222,-53.9095 557.7585,-46.4347"/>
<polygon fill="#000000" stroke="#000000" points="561.2597,-46.3868 557.926,-36.3302 554.2606,-46.2707 561.2597,-46.3868"/>
<text text-anchor="start" x="561" y="-57.8" font-family="mono" font-size="14.00" fill="#c83500">unit</text>
<text text-anchor="middle" x="546.926" y="-40.1302" font-family="Times,serif" font-size="14.00" fill="#000000">0..1</text>
</g>
<!-- MultiLanguage -->
<g id="node10" class="node">
<title>MultiLanguage</title>
<polygon fill="#f2f2f2" stroke="transparent" points="652,-7 652,-28 766,-28 766,-7 652,-7"/>
<polygon fill="none" stroke="#8c8c8c" points="652,-7 652,-28 766,-28 766,-7 652,-7"/>
<text text-anchor="start" x="655" y="-14.8" font-family="mono" font-weight="bold" font-size="14.00" fill="#000000">MultiLanguage</text>
</g>
<!-- DataSchema&#45;&gt;MultiLanguage -->
<g id="edge5" class="edge">
<title>DataSchema&#45;&gt;MultiLanguage</title>
<path fill="none" stroke="#000000" d="M607.0328,-86.9011C608.1565,-75.1765 611.363,-63.6589 618,-54 622.5328,-47.4034 628.4789,-42.0155 635.1648,-37.6149"/>
<polygon fill="#000000" stroke="#000000" points="637.0505,-40.568 643.9783,-32.5521 633.5638,-34.4982 637.0505,-40.568"/>
<text text-anchor="start" x="618" y="-57.8" font-family="mono" font-size="14.00" fill="#c83500">descriptions</text>
<text text-anchor="middle" x="632.9783" y="-36.3521" font-family="Times,serif" font-size="14.00" fill="#000000">0..1</text>
</g>
<!-- DataSchema&#45;&gt;MultiLanguage -->
<g id="edge6" class="edge">
<title>DataSchema&#45;&gt;MultiLanguage</title>
<path fill="none" stroke="#000000" d="M707.381,-86.8023C711.4907,-81.173 715.0989,-75.2333 718,-69 721.3237,-61.8586 721.3185,-53.6322 719.8735,-45.8997"/>
<polygon fill="#000000" stroke="#000000" points="723.2373,-44.9292 717.3035,-36.152 716.4686,-46.7139 723.2373,-44.9292"/>
<text text-anchor="start" x="721" y="-57.8" font-family="mono" font-size="14.00" fill="#c83500">titles</text>
<text text-anchor="middle" x="706.3035" y="-39.952" font-family="Times,serif" font-size="14.00" fill="#000000">0..1</text>
</g>
</g>
</svg>
