<?xml version="1.0" encoding="UTF-8" standalone="no"?>
<!DOCTYPE svg PUBLIC "-//W3C//DTD SVG 1.1//EN"
 "http://www.w3.org/Graphics/SVG/1.1/DTD/svg11.dtd">
<!-- Generated by graphviz version 2.43.20190912.0211 (20190912.0211)
 -->
<!-- Title: %3 Pages: 1 -->
<svg width="1158pt" height="393pt"
 viewBox="0.00 0.00 1157.50 393.00" xmlns="http://www.w3.org/2000/svg" xmlns:xlink="http://www.w3.org/1999/xlink">
<g id="graph0" class="graph" transform="scale(1 1) rotate(0) translate(4 389)">
<title>%3</title>
<polygon fill="white" stroke="transparent" points="-4,4 -4,-389 1153.5,-389 1153.5,4 -4,4"/>
<!-- IntegerSchema -->
<g id="node1" class="node">
<title>IntegerSchema</title>
<polygon fill="#8ccbf2" stroke="transparent" points="8,-359.5 8,-380.5 142,-380.5 142,-359.5 8,-359.5"/>
<polygon fill="none" stroke="#8ccbf2" points="8,-359.5 8,-380.5 142,-380.5 142,-359.5 8,-359.5"/>
<text text-anchor="start" x="21" y="-367.3" font-family="mono" font-weight="bold" font-size="14.00" fill="#c83500">IntegerSchema</text>
<polygon fill="#ddeeff" stroke="transparent" points="8,-338.5 8,-359.5 142,-359.5 142,-338.5 8,-338.5"/>
<polygon fill="none" stroke="#8ccbf2" points="8,-338.5 8,-359.5 142,-359.5 142,-338.5 8,-338.5"/>
<text text-anchor="start" x="11" y="-346.3" font-family="mono" font-size="14.00" fill="#c83500">maximum</text>
<text text-anchor="start" x="69" y="-346.3" font-family="Times,serif" font-size="14.00"> : </text>
<text text-anchor="start" x="81" y="-346.3" font-family="mono" font-size="14.00" fill="#c83500">integer</text>
<polygon fill="#ddeeff" stroke="transparent" points="8,-317.5 8,-338.5 142,-338.5 142,-317.5 8,-317.5"/>
<polygon fill="none" stroke="#8ccbf2" points="8,-317.5 8,-338.5 142,-338.5 142,-317.5 8,-317.5"/>
<text text-anchor="start" x="11" y="-325.3" font-family="mono" font-size="14.00" fill="#c83500">minimum</text>
<text text-anchor="start" x="69" y="-325.3" font-family="Times,serif" font-size="14.00"> : </text>
<text text-anchor="start" x="81" y="-325.3" font-family="mono" font-size="14.00" fill="#c83500">integer</text>
</g>
<!-- DataSchema -->
<g id="node8" class="node">
<title>DataSchema</title>
<polygon fill="#8ccbf2" stroke="transparent" points="507,-238 507,-259 730,-259 730,-238 507,-238"/>
<polygon fill="none" stroke="#8ccbf2" points="507,-238 507,-259 730,-259 730,-238 507,-238"/>
<text text-anchor="start" x="577" y="-245.8" font-family="mono" font-weight="bold" font-size="14.00" fill="#c83500">DataSchema</text>
<polygon fill="#ddeeff" stroke="transparent" points="507,-217 507,-238 730,-238 730,-217 507,-217"/>
<polygon fill="none" stroke="#8ccbf2" points="507,-217 507,-238 730,-238 730,-217 507,-217"/>
<text text-anchor="start" x="510" y="-224.8" font-family="mono" font-size="14.00" fill="#c83500">@type</text>
<text text-anchor="start" x="552" y="-224.8" font-family="Times,serif" font-size="14.00"> : </text>
<text text-anchor="start" x="564" y="-224.8" font-family="Times,serif" font-style="italic" font-size="14.00">(Array of) </text>
<text text-anchor="start" x="623" y="-224.8" font-family="mono" font-size="14.00" fill="#c83500">string</text>
<polygon fill="#ddeeff" stroke="transparent" points="507,-196 507,-217 730,-217 730,-196 507,-196"/>
<polygon fill="none" stroke="#8ccbf2" points="507,-196 507,-217 730,-217 730,-196 507,-196"/>
<text text-anchor="start" x="510" y="-203.8" font-family="mono" font-size="14.00" fill="#c83500">readOnly</text>
<text text-anchor="start" x="577" y="-203.8" font-family="Times,serif" font-size="14.00"> : </text>
<text text-anchor="start" x="589" y="-203.8" font-family="mono" font-size="14.00" fill="#c83500">boolean</text>
<text text-anchor="start" x="647" y="-203.8" font-family="Times,serif" font-size="14.00"> </text>
<text text-anchor="start" x="651" y="-203.8" font-family="Times,serif" font-style="italic" font-size="14.00">(mandatory)</text>
<polygon fill="#ddeeff" stroke="transparent" points="507,-175 507,-196 730,-196 730,-175 507,-175"/>
<polygon fill="none" stroke="#8ccbf2" points="507,-175 507,-196 730,-196 730,-175 507,-175"/>
<text text-anchor="start" x="510" y="-182.8" font-family="mono" font-size="14.00" fill="#c83500">format</text>
<text text-anchor="start" x="560" y="-182.8" font-family="Times,serif" font-size="14.00"> : </text>
<text text-anchor="start" x="572" y="-182.8" font-family="mono" font-size="14.00" fill="#c83500">string</text>
<polygon fill="#ddeeff" stroke="transparent" points="507,-154 507,-175 730,-175 730,-154 507,-154"/>
<polygon fill="none" stroke="#8ccbf2" points="507,-154 507,-175 730,-175 730,-154 507,-154"/>
<text text-anchor="start" x="510" y="-161.8" font-family="mono" font-size="14.00" fill="#c83500">writeOnly</text>
<text text-anchor="start" x="585" y="-161.8" font-family="Times,serif" font-size="14.00"> : </text>
<text text-anchor="start" x="597" y="-161.8" font-family="mono" font-size="14.00" fill="#c83500">boolean</text>
<text text-anchor="start" x="655" y="-161.8" font-family="Times,serif" font-size="14.00"> </text>
<text text-anchor="start" x="659" y="-161.8" font-family="Times,serif" font-style="italic" font-size="14.00">(mandatory)</text>
<polygon fill="#ddeeff" stroke="transparent" points="507,-133 507,-154 730,-154 730,-133 507,-133"/>
<polygon fill="none" stroke="#8ccbf2" points="507,-133 507,-154 730,-154 730,-133 507,-133"/>
<text text-anchor="start" x="510" y="-140.8" font-family="mono" font-size="14.00" fill="#c83500">type</text>
<text text-anchor="start" x="544" y="-140.8" font-family="Times,serif" font-size="14.00"> : </text>
<text text-anchor="start" x="556" y="-140.8" font-family="mono" font-size="14.00" fill="#c83500">string</text>
<polygon fill="#ddeeff" stroke="transparent" points="507,-112 507,-133 730,-133 730,-112 507,-112"/>
<polygon fill="none" stroke="#8ccbf2" points="507,-112 507,-133 730,-133 730,-112 507,-112"/>
<text text-anchor="start" x="510" y="-119.8" font-family="mono" font-size="14.00" fill="#c83500">description</text>
<text text-anchor="start" x="601" y="-119.8" font-family="Times,serif" font-size="14.00"> : </text>
<text text-anchor="start" x="613" y="-119.8" font-family="mono" font-size="14.00" fill="#c83500">string</text>
<polygon fill="#ddeeff" stroke="transparent" points="507,-91 507,-112 730,-112 730,-91 507,-91"/>
<polygon fill="none" stroke="#8ccbf2" points="507,-91 507,-112 730,-112 730,-91 507,-91"/>
<text text-anchor="start" x="510" y="-98.8" font-family="mono" font-size="14.00" fill="#c83500">title</text>
<text text-anchor="start" x="552" y="-98.8" font-family="Times,serif" font-size="14.00"> : </text>
<text text-anchor="start" x="564" y="-98.8" font-family="mono" font-size="14.00" fill="#c83500">string</text>
</g>
<!-- IntegerSchema&#45;&gt;DataSchema -->
<g id="edge12" class="edge">
<title>IntegerSchema&#45;&gt;DataSchema</title>
<path fill="none" stroke="black" d="M150.42,-317.12C153.31,-316.04 156.18,-315 159,-314 268.83,-275.04 395.85,-237.41 488.39,-211.31"/>
<polygon fill="white" stroke="black" points="489.41,-214.66 498.09,-208.58 487.51,-207.92 489.41,-214.66"/>
</g>
<!-- StringSchema -->
<g id="node2" class="node">
<title>StringSchema</title>
<polygon fill="#8ccbf2" stroke="transparent" points="176,-338.5 176,-359.5 282,-359.5 282,-338.5 176,-338.5"/>
<polygon fill="none" stroke="#8ccbf2" points="176,-338.5 176,-359.5 282,-359.5 282,-338.5 176,-338.5"/>
<text text-anchor="start" x="179" y="-346.3" font-family="mono" font-weight="bold" font-size="14.00" fill="#c83500">StringSchema</text>
</g>
<!-- StringSchema&#45;&gt;DataSchema -->
<g id="edge8" class="edge">
<title>StringSchema&#45;&gt;DataSchema</title>
<path fill="none" stroke="black" d="M262.66,-331.49C274.13,-325.8 287.07,-319.52 299,-314 361.13,-285.27 430.83,-254.91 489.19,-230"/>
<polygon fill="white" stroke="black" points="490.63,-233.19 498.46,-226.05 487.89,-226.75 490.63,-233.19"/>
</g>
<!-- BooleanSchema -->
<g id="node3" class="node">
<title>BooleanSchema</title>
<polygon fill="#8ccbf2" stroke="transparent" points="316,-338.5 316,-359.5 430,-359.5 430,-338.5 316,-338.5"/>
<polygon fill="none" stroke="#8ccbf2" points="316,-338.5 316,-359.5 430,-359.5 430,-338.5 316,-338.5"/>
<text text-anchor="start" x="319" y="-346.3" font-family="mono" font-weight="bold" font-size="14.00" fill="#c83500">BooleanSchema</text>
</g>
<!-- BooleanSchema&#45;&gt;DataSchema -->
<g id="edge11" class="edge">
<title>BooleanSchema&#45;&gt;DataSchema</title>
<path fill="none" stroke="black" d="M397.39,-331.33C419.69,-315.63 454.5,-291.12 489.94,-266.17"/>
<polygon fill="white" stroke="black" points="492.3,-268.78 498.47,-260.16 488.27,-263.06 492.3,-268.78"/>
</g>
<!-- NumberSchema -->
<g id="node4" class="node">
<title>NumberSchema</title>
<polygon fill="#8ccbf2" stroke="transparent" points="464,-359.5 464,-380.5 590,-380.5 590,-359.5 464,-359.5"/>
<polygon fill="none" stroke="#8ccbf2" points="464,-359.5 464,-380.5 590,-380.5 590,-359.5 464,-359.5"/>
<text text-anchor="start" x="477" y="-367.3" font-family="mono" font-weight="bold" font-size="14.00" fill="#c83500">NumberSchema</text>
<polygon fill="#ddeeff" stroke="transparent" points="464,-338.5 464,-359.5 590,-359.5 590,-338.5 464,-338.5"/>
<polygon fill="none" stroke="#8ccbf2" points="464,-338.5 464,-359.5 590,-359.5 590,-338.5 464,-338.5"/>
<text text-anchor="start" x="467" y="-346.3" font-family="mono" font-size="14.00" fill="#c83500">maximum</text>
<text text-anchor="start" x="525" y="-346.3" font-family="Times,serif" font-size="14.00"> : </text>
<text text-anchor="start" x="537" y="-346.3" font-family="mono" font-size="14.00" fill="#c83500">double</text>
<polygon fill="#ddeeff" stroke="transparent" points="464,-317.5 464,-338.5 590,-338.5 590,-317.5 464,-317.5"/>
<polygon fill="none" stroke="#8ccbf2" points="464,-317.5 464,-338.5 590,-338.5 590,-317.5 464,-317.5"/>
<text text-anchor="start" x="467" y="-325.3" font-family="mono" font-size="14.00" fill="#c83500">minimum</text>
<text text-anchor="start" x="525" y="-325.3" font-family="Times,serif" font-size="14.00"> : </text>
<text text-anchor="start" x="537" y="-325.3" font-family="mono" font-size="14.00" fill="#c83500">double</text>
</g>
<!-- NumberSchema&#45;&gt;DataSchema -->
<g id="edge9" class="edge">
<title>NumberSchema&#45;&gt;DataSchema</title>
<path fill="none" stroke="black" d="M545.42,-313.59C551.82,-301.44 559.36,-287.16 567.11,-272.48"/>
<polygon fill="white" stroke="black" points="570.38,-273.77 571.95,-263.3 564.19,-270.51 570.38,-273.77"/>
</g>
<!-- ObjectSchema -->
<g id="node5" class="node">
<title>ObjectSchema</title>
<polygon fill="#8ccbf2" stroke="transparent" points="624,-349.5 624,-370.5 808,-370.5 808,-349.5 624,-349.5"/>
<polygon fill="none" stroke="#8ccbf2" points="624,-349.5 624,-370.5 808,-370.5 808,-349.5 624,-349.5"/>
<text text-anchor="start" x="666" y="-357.3" font-family="mono" font-weight="bold" font-size="14.00" fill="#c83500">ObjectSchema</text>
<polygon fill="#ddeeff" stroke="transparent" points="624,-328.5 624,-349.5 808,-349.5 808,-328.5 624,-328.5"/>
<polygon fill="none" stroke="#8ccbf2" points="624,-328.5 624,-349.5 808,-349.5 808,-328.5 624,-328.5"/>
<text text-anchor="start" x="627" y="-336.3" font-family="mono" font-size="14.00" fill="#c83500">required</text>
<text text-anchor="start" x="694" y="-336.3" font-family="Times,serif" font-size="14.00"> : Array of </text>
<text text-anchor="start" x="755" y="-336.3" font-family="mono" font-size="14.00" fill="#c83500">string</text>
</g>
<!-- ObjectSchema&#45;&gt;DataSchema -->
<g id="edge1" class="edge">
<title>ObjectSchema&#45;&gt;DataSchema</title>
<path fill="none" stroke="black" d="M648.72,-324.43C636.89,-317.14 626.11,-307.81 619,-296 614.76,-288.96 611.81,-281.23 609.84,-273.21"/>
<polygon fill="black" stroke="black" points="613.26,-272.44 607.91,-263.29 606.39,-273.78 613.26,-272.44"/>
<text text-anchor="start" x="619" y="-284.8" font-family="mono" font-size="14.00" fill="#c83500">properties</text>
<text text-anchor="middle" x="596.91" y="-267.09" font-family="Times,serif" font-size="14.00">0..1</text>
</g>
<!-- ObjectSchema&#45;&gt;DataSchema -->
<g id="edge7" class="edge">
<title>ObjectSchema&#45;&gt;DataSchema</title>
<path fill="none" stroke="black" d="M713.76,-324.2C711.85,-310.95 708.37,-294.54 702,-281 700.58,-277.99 699.07,-274.99 697.46,-272.01"/>
<polygon fill="white" stroke="black" points="700.39,-270.08 692.4,-263.12 694.31,-273.54 700.39,-270.08"/>
</g>
<!-- ArraySchema -->
<g id="node6" class="node">
<title>ArraySchema</title>
<polygon fill="#8ccbf2" stroke="transparent" points="842,-359.5 842,-380.5 1018,-380.5 1018,-359.5 842,-359.5"/>
<polygon fill="none" stroke="#8ccbf2" points="842,-359.5 842,-380.5 1018,-380.5 1018,-359.5 842,-359.5"/>
<text text-anchor="start" x="884.5" y="-367.3" font-family="mono" font-weight="bold" font-size="14.00" fill="#c83500">ArraySchema</text>
<polygon fill="#ddeeff" stroke="transparent" points="842,-338.5 842,-359.5 1018,-359.5 1018,-338.5 842,-338.5"/>
<polygon fill="none" stroke="#8ccbf2" points="842,-338.5 842,-359.5 1018,-359.5 1018,-338.5 842,-338.5"/>
<text text-anchor="start" x="845" y="-346.3" font-family="mono" font-size="14.00" fill="#c83500">minItems</text>
<text text-anchor="start" x="912" y="-346.3" font-family="Times,serif" font-size="14.00"> : </text>
<text text-anchor="start" x="924" y="-346.3" font-family="mono" font-size="14.00" fill="#c83500">unsignedInt</text>
<polygon fill="#ddeeff" stroke="transparent" points="842,-317.5 842,-338.5 1018,-338.5 1018,-317.5 842,-317.5"/>
<polygon fill="none" stroke="#8ccbf2" points="842,-317.5 842,-338.5 1018,-338.5 1018,-317.5 842,-317.5"/>
<text text-anchor="start" x="845" y="-325.3" font-family="mono" font-size="14.00" fill="#c83500">maxItems</text>
<text text-anchor="start" x="912" y="-325.3" font-family="Times,serif" font-size="14.00"> : </text>
<text text-anchor="start" x="924" y="-325.3" font-family="mono" font-size="14.00" fill="#c83500">unsignedInt</text>
</g>
<!-- ArraySchema&#45;&gt;DataSchema -->
<g id="edge2" class="edge">
<title>ArraySchema&#45;&gt;DataSchema</title>
<path fill="none" stroke="black" d="M848.38,-313.92C836.05,-308.2 823.6,-302.13 812,-296 790.36,-284.56 767.87,-271.65 746.19,-258.65"/>
<polygon fill="black" stroke="black" points="747.97,-255.64 737.6,-253.47 744.36,-261.63 747.97,-255.64"/>
<text text-anchor="start" x="812" y="-284.8" font-family="mono" font-size="14.00" fill="#c83500">items</text>
<text text-anchor="middle" x="748.6" y="-257.27" font-family="Times,serif" font-size="14.00">0..*</text>
</g>
<!-- ArraySchema&#45;&gt;DataSchema -->
<g id="edge13" class="edge">
<title>ArraySchema&#45;&gt;DataSchema</title>
<path fill="none" stroke="black" d="M895.5,-313.81C883.08,-302.46 868.54,-290.37 854,-281 820.95,-259.71 782.86,-240.68 747.06,-224.87"/>
<polygon fill="white" stroke="black" points="748.09,-221.5 737.52,-220.71 745.29,-227.92 748.09,-221.5"/>
</g>
<!-- NullSchema -->
<g id="node7" class="node">
<title>NullSchema</title>
<polygon fill="#8ccbf2" stroke="transparent" points="1053,-338.5 1053,-359.5 1142,-359.5 1142,-338.5 1053,-338.5"/>
<polygon fill="none" stroke="#8ccbf2" points="1053,-338.5 1053,-359.5 1142,-359.5 1142,-338.5 1053,-338.5"/>
<text text-anchor="start" x="1056" y="-346.3" font-family="mono" font-weight="bold" font-size="14.00" fill="#c83500">NullSchema</text>
</g>
<!-- NullSchema&#45;&gt;DataSchema -->
<g id="edge10" class="edge">
<title>NullSchema&#45;&gt;DataSchema</title>
<path fill="none" stroke="black" d="M1068.87,-331.37C1058.45,-325.43 1046.39,-319 1035,-314 941.14,-272.79 830.87,-236.81 747.3,-211.93"/>
<polygon fill="white" stroke="black" points="748.09,-208.51 737.51,-209.02 746.1,-215.22 748.09,-208.51"/>
</g>
<!-- DataSchema&#45;&gt;DataSchema -->
<g id="edge5" class="edge">
<title>DataSchema&#45;&gt;DataSchema</title>
<path fill="none" stroke="black" d="M737.75,-191.69C748.65,-188.22 755.5,-182.66 755.5,-175 755.5,-169.86 752.41,-165.66 747.07,-162.4"/>
<polygon fill="black" stroke="black" points="748.31,-159.13 737.75,-158.31 745.5,-165.54 748.31,-159.13"/>
<text text-anchor="start" x="755.5" y="-171.3" font-family="mono" font-size="14.00" fill="#c83500">oneOf</text>
<text text-anchor="middle" x="748.75" y="-147.11" font-family="Times,serif" font-size="14.00">0..*</text>
</g>
<!-- string -->
<g id="node9" class="node">
<title>string</title>
<polygon fill="#f2f2f2" stroke="transparent" points="533,-7 533,-28 589,-28 589,-7 533,-7"/>
<polygon fill="none" stroke="#8c8c8c" points="533,-7 533,-28 589,-28 589,-7 533,-7"/>
<text text-anchor="start" x="536" y="-14.8" font-family="mono" font-weight="bold" font-size="14.00">string</text>
</g>
<!-- DataSchema&#45;&gt;string -->
<g id="edge3" class="edge">
<title>DataSchema&#45;&gt;string</title>
<path fill="none" stroke="black" d="M567.67,-86.71C565.46,-80.83 563.54,-74.9 562,-69 560.12,-61.8 559.39,-53.83 559.25,-46.4"/>
<polygon fill="black" stroke="black" points="562.75,-46.44 559.38,-36.4 555.75,-46.35 562.75,-46.44"/>
<text text-anchor="start" x="562" y="-57.8" font-family="mono" font-size="14.00" fill="#c83500">unit</text>
<text text-anchor="middle" x="548.38" y="-40.2" font-family="Times,serif" font-size="14.00">0..1</text>
</g>
<!-- MultiLanguage -->
<g id="node10" class="node">
<title>MultiLanguage</title>
<polygon fill="#f2f2f2" stroke="transparent" points="628,-7 628,-28 742,-28 742,-7 628,-7"/>
<polygon fill="none" stroke="#8c8c8c" points="628,-7 628,-28 742,-28 742,-7 628,-7"/>
<text text-anchor="start" x="631" y="-14.8" font-family="mono" font-weight="bold" font-size="14.00">MultiLanguage</text>
</g>
<!-- DataSchema&#45;&gt;MultiLanguage -->
<g id="edge4" class="edge">
<title>DataSchema&#45;&gt;MultiLanguage</title>
<path fill="none" stroke="black" d="M607.79,-86.97C609.49,-75.32 612.94,-63.97 619,-54 621.71,-49.54 625.19,-45.62 629.15,-42.18"/>
<polygon fill="black" stroke="black" points="631.32,-44.92 637.24,-36.13 627.14,-39.31 631.32,-44.92"/>
<text text-anchor="start" x="619" y="-57.8" font-family="mono" font-size="14.00" fill="#c83500">titles</text>
<text text-anchor="middle" x="626.24" y="-39.93" font-family="Times,serif" font-size="14.00">0..1</text>
</g>
<!-- DataSchema&#45;&gt;MultiLanguage -->
<g id="edge6" class="edge">
<title>DataSchema&#45;&gt;MultiLanguage</title>
<path fill="none" stroke="black" d="M661.52,-86.76C664.15,-80.79 666.66,-74.83 669,-69 671.94,-61.67 674.72,-53.58 677.11,-46.07"/>
<polygon fill="black" stroke="black" points="680.51,-46.93 680.12,-36.34 673.82,-44.86 680.51,-46.93"/>
<text text-anchor="start" x="675" y="-57.8" font-family="mono" font-size="14.00" fill="#c83500">descriptions</text>
<text text-anchor="middle" x="669.12" y="-40.14" font-family="Times,serif" font-size="14.00">0..1</text>
</g>
</g>
</svg>
