<?xml version="1.0" encoding="UTF-8" standalone="no"?>
<!DOCTYPE svg PUBLIC "-//W3C//DTD SVG 1.1//EN"
 "http://www.w3.org/Graphics/SVG/1.1/DTD/svg11.dtd">
<!-- Generated by graphviz version 9.0.0 (0)
 -->
<!-- Pages: 1 -->
<svg width="1392pt" height="554pt"
 viewBox="0.00 0.00 1392.38 553.50" xmlns="http://www.w3.org/2000/svg" xmlns:xlink="http://www.w3.org/1999/xlink">
<g id="graph0" class="graph" transform="scale(1 1) rotate(0) translate(4 549.5)">
<polygon fill="white" stroke="none" points="-4,4 -4,-549.5 1388.38,-549.5 1388.38,4 -4,4"/>
<!-- ArraySchema -->
<g id="node1" class="node">
<title>ArraySchema</title>
<polygon fill="#8ccbf2" stroke="none" points="8,-477.75 8,-503.25 182,-503.25 182,-477.75 8,-477.75"/>
<polygon fill="none" stroke="#8ccbf2" points="8,-477.75 8,-503.25 182,-503.25 182,-477.75 8,-477.75"/>
<text text-anchor="start" x="49.62" y="-487.95" font-family="mono" font-weight="bold" font-size="14.00" fill="#c83500">ArraySchema</text>
<polygon fill="#ddeeff" stroke="none" points="8,-452.25 8,-477.75 182,-477.75 182,-452.25 8,-452.25"/>
<polygon fill="none" stroke="#8ccbf2" points="8,-452.25 8,-477.75 182,-477.75 182,-452.25 8,-452.25"/>
<text text-anchor="start" x="11" y="-462.45" font-family="mono" font-size="14.00" fill="#c83500">minItems</text>
<text text-anchor="start" x="77" y="-462.45" font-family="Times,serif" font-size="14.00"> : </text>
<text text-anchor="start" x="88.25" y="-462.45" font-family="mono" font-size="14.00" fill="#c83500">unsignedInt</text>
<polygon fill="#ddeeff" stroke="none" points="8,-426.75 8,-452.25 182,-452.25 182,-426.75 8,-426.75"/>
<polygon fill="none" stroke="#8ccbf2" points="8,-426.75 8,-452.25 182,-452.25 182,-426.75 8,-426.75"/>
<text text-anchor="start" x="11" y="-436.95" font-family="mono" font-size="14.00" fill="#c83500">maxItems</text>
<text text-anchor="start" x="77" y="-436.95" font-family="Times,serif" font-size="14.00"> : </text>
<text text-anchor="start" x="88.25" y="-436.95" font-family="mono" font-size="14.00" fill="#c83500">unsignedInt</text>
</g>
<!-- DataSchema -->
<g id="node3" class="node">
<title>DataSchema</title>
<polygon fill="#8ccbf2" stroke="none" points="553.75,-299.5 553.75,-325 744.25,-325 744.25,-299.5 553.75,-299.5"/>
<polygon fill="none" stroke="#8ccbf2" points="553.75,-299.5 553.75,-325 744.25,-325 744.25,-299.5 553.75,-299.5"/>
<text text-anchor="start" x="607.75" y="-309.7" font-family="mono" font-weight="bold" font-size="14.00" fill="#c83500">DataSchema</text>
<polygon fill="#ddeeff" stroke="none" points="553.75,-274 553.75,-299.5 744.25,-299.5 744.25,-274 553.75,-274"/>
<polygon fill="none" stroke="#8ccbf2" points="553.75,-274 553.75,-299.5 744.25,-299.5 744.25,-274 553.75,-274"/>
<text text-anchor="start" x="556.75" y="-284.2" font-family="mono" font-size="14.00" fill="#c83500">@type</text>
<text text-anchor="start" x="598" y="-284.2" font-family="Times,serif" font-size="14.00"> : </text>
<text text-anchor="start" x="609.25" y="-284.2" font-family="Times,serif" font-style="italic" font-size="14.00">(Array of) </text>
<text text-anchor="start" x="667.75" y="-284.2" font-family="mono" font-size="14.00" fill="#c83500">string</text>
<polygon fill="#ddeeff" stroke="none" points="553.75,-248.5 553.75,-274 744.25,-274 744.25,-248.5 553.75,-248.5"/>
<polygon fill="none" stroke="#8ccbf2" points="553.75,-248.5 553.75,-274 744.25,-274 744.25,-248.5 553.75,-248.5"/>
<text text-anchor="start" x="556.75" y="-258.7" font-family="mono" font-size="14.00" fill="#c83500">type</text>
<text text-anchor="start" x="589.75" y="-258.7" font-family="Times,serif" font-size="14.00"> : </text>
<text text-anchor="start" x="601" y="-258.7" font-family="mono" font-size="14.00" fill="#c83500">string</text>
<polygon fill="#ddeeff" stroke="none" points="553.75,-223 553.75,-248.5 744.25,-248.5 744.25,-223 553.75,-223"/>
<polygon fill="none" stroke="#8ccbf2" points="553.75,-223 553.75,-248.5 744.25,-248.5 744.25,-223 553.75,-223"/>
<text text-anchor="start" x="556.75" y="-233.2" font-family="mono" font-size="14.00" fill="#c83500">title</text>
<text text-anchor="start" x="598" y="-233.2" font-family="Times,serif" font-size="14.00"> : </text>
<text text-anchor="start" x="609.25" y="-233.2" font-family="mono" font-size="14.00" fill="#c83500">langString</text>
<polygon fill="#ddeeff" stroke="none" points="553.75,-197.5 553.75,-223 744.25,-223 744.25,-197.5 553.75,-197.5"/>
<polygon fill="none" stroke="#8ccbf2" points="553.75,-197.5 553.75,-223 744.25,-223 744.25,-197.5 553.75,-197.5"/>
<text text-anchor="start" x="556.75" y="-207.7" font-family="mono" font-size="14.00" fill="#c83500">unit</text>
<text text-anchor="start" x="589.75" y="-207.7" font-family="Times,serif" font-size="14.00"> : </text>
<text text-anchor="start" x="601" y="-207.7" font-family="mono" font-size="14.00" fill="#c83500">string</text>
<polygon fill="#ddeeff" stroke="none" points="553.75,-172 553.75,-197.5 744.25,-197.5 744.25,-172 553.75,-172"/>
<polygon fill="none" stroke="#8ccbf2" points="553.75,-172 553.75,-197.5 744.25,-197.5 744.25,-172 553.75,-172"/>
<text text-anchor="start" x="556.75" y="-182.2" font-family="mono" font-size="14.00" fill="#c83500">readOnly</text>
<text text-anchor="start" x="622.75" y="-182.2" font-family="Times,serif" font-size="14.00"> : </text>
<text text-anchor="start" x="634" y="-182.2" font-family="mono" font-size="14.00" fill="#c83500">boolean</text>
<polygon fill="#ddeeff" stroke="none" points="553.75,-146.5 553.75,-172 744.25,-172 744.25,-146.5 553.75,-146.5"/>
<polygon fill="none" stroke="#8ccbf2" points="553.75,-146.5 553.75,-172 744.25,-172 744.25,-146.5 553.75,-146.5"/>
<text text-anchor="start" x="556.75" y="-156.7" font-family="mono" font-size="14.00" fill="#c83500">writeOnly</text>
<text text-anchor="start" x="631" y="-156.7" font-family="Times,serif" font-size="14.00"> : </text>
<text text-anchor="start" x="642.25" y="-156.7" font-family="mono" font-size="14.00" fill="#c83500">boolean</text>
<polygon fill="#ddeeff" stroke="none" points="553.75,-121 553.75,-146.5 744.25,-146.5 744.25,-121 553.75,-121"/>
<polygon fill="none" stroke="#8ccbf2" points="553.75,-121 553.75,-146.5 744.25,-146.5 744.25,-121 553.75,-121"/>
<text text-anchor="start" x="556.75" y="-131.2" font-family="mono" font-size="14.00" fill="#c83500">format</text>
<text text-anchor="start" x="606.25" y="-131.2" font-family="Times,serif" font-size="14.00"> : </text>
<text text-anchor="start" x="617.5" y="-131.2" font-family="mono" font-size="14.00" fill="#c83500">string</text>
<polygon fill="#ddeeff" stroke="none" points="553.75,-95.5 553.75,-121 744.25,-121 744.25,-95.5 553.75,-95.5"/>
<polygon fill="none" stroke="#8ccbf2" points="553.75,-95.5 553.75,-121 744.25,-121 744.25,-95.5 553.75,-95.5"/>
<text text-anchor="start" x="556.75" y="-105.7" font-family="mono" font-size="14.00" fill="#c83500">description</text>
<text text-anchor="start" x="647.5" y="-105.7" font-family="Times,serif" font-size="14.00"> : </text>
<text text-anchor="start" x="658.75" y="-105.7" font-family="mono" font-size="14.00" fill="#c83500">langString</text>
</g>
<!-- ArraySchema&#45;&gt;DataSchema -->
<g id="edge4" class="edge">
<title>ArraySchema&#45;&gt;DataSchema</title>
<path fill="none" stroke="black" d="M111.59,-423.02C123.84,-397.65 142.88,-366.34 168.75,-347 276.55,-266.41 430.35,-233.64 534.64,-220.33"/>
<polygon fill="black" stroke="black" points="534.84,-223.83 544.34,-219.14 533.98,-216.89 534.84,-223.83"/>
<text text-anchor="start" x="169" y="-353.2" font-family="mono" font-size="14.00" fill="#c83500">items</text>
<text text-anchor="middle" x="535.34" y="-222.15" font-family="Times,serif" font-size="14.00">0..*</text>
</g>
<!-- ArraySchema&#45;&gt;DataSchema -->
<g id="edge6" class="edge">
<title>ArraySchema&#45;&gt;DataSchema</title>
<path fill="none" stroke="black" d="M143,-422.75C159.97,-409.43 179.66,-395.32 199,-384.5 307.58,-323.75 441.75,-275.15 535.2,-245.06"/>
<polygon fill="white" stroke="black" points="536.21,-248.42 544.66,-242.04 534.07,-241.75 536.21,-248.42"/>
</g>
<!-- BooleanSchema -->
<g id="node2" class="node">
<title>BooleanSchema</title>
<polygon fill="#8ccbf2" stroke="none" points="216.38,-452.25 216.38,-477.75 329.62,-477.75 329.62,-452.25 216.38,-452.25"/>
<polygon fill="none" stroke="#8ccbf2" points="216.38,-452.25 216.38,-477.75 329.62,-477.75 329.62,-452.25 216.38,-452.25"/>
<text text-anchor="start" x="219.38" y="-462.45" font-family="mono" font-weight="bold" font-size="14.00" fill="#c83500">BooleanSchema</text>
</g>
<!-- BooleanSchema&#45;&gt;DataSchema -->
<g id="edge7" class="edge">
<title>BooleanSchema&#45;&gt;DataSchema</title>
<path fill="none" stroke="black" d="M285.96,-447.06C299.63,-429.91 322.42,-403.32 346,-384.5 404.2,-338.04 476.34,-296.26 535.64,-265.38"/>
<polygon fill="white" stroke="black" points="537.17,-268.52 544.45,-260.82 533.96,-262.31 537.17,-268.52"/>
</g>
<!-- DataSchema&#45;&gt;DataSchema -->
<g id="edge1" class="edge">
<title>DataSchema&#45;&gt;DataSchema</title>
<path fill="none" stroke="black" d="M752.05,-233.19C763.13,-228.77 770.25,-221.12 770.25,-210.25 770.25,-203.11 767.18,-197.37 761.94,-193.01"/>
<polygon fill="black" stroke="black" points="763.77,-190.03 753.36,-188.07 760.28,-196.1 763.77,-190.03"/>
<text text-anchor="start" x="770.25" y="-206.7" font-family="mono" font-size="14.00" fill="#c83500">oneOf</text>
<text text-anchor="middle" x="762.55" y="-174.01" font-family="Times,serif" font-size="14.00">0..*</text>
</g>
<!-- MultiLanguage -->
<g id="node9" class="node">
<title>MultiLanguage</title>
<polygon fill="#f2f2f2" stroke="none" points="592.38,-5.25 592.38,-30.75 705.62,-30.75 705.62,-5.25 592.38,-5.25"/>
<polygon fill="none" stroke="#8c8c8c" points="592.38,-5.25 592.38,-30.75 705.62,-30.75 705.62,-5.25 592.38,-5.25"/>
<text text-anchor="start" x="595.38" y="-15.45" font-family="mono" font-weight="bold" font-size="14.00">MultiLanguage</text>
</g>
<!-- DataSchema&#45;&gt;MultiLanguage -->
<g id="edge2" class="edge">
<title>DataSchema&#45;&gt;MultiLanguage</title>
<path fill="none" stroke="black" d="M607.72,-91.79C607.62,-78.84 609.58,-66.01 614.5,-54 615.89,-50.61 617.79,-47.36 619.98,-44.32"/>
<polygon fill="black" stroke="black" points="622.43,-46.85 626.26,-36.97 617.11,-42.3 622.43,-46.85"/>
<text text-anchor="start" x="615" y="-60.2" font-family="mono" font-size="14.00" fill="#c83500">titles</text>
<text text-anchor="middle" x="616.75" y="-39.02" font-family="Times,serif" font-size="14.00">0..*</text>
</g>
<!-- DataSchema&#45;&gt;MultiLanguage -->
<g id="edge3" class="edge">
<title>DataSchema&#45;&gt;MultiLanguage</title>
<path fill="none" stroke="black" d="M667.78,-91.87C667.62,-79.03 666.5,-66.2 664,-54 663.49,-51.53 662.8,-49.01 662,-46.53"/>
<polygon fill="black" stroke="black" points="665.34,-45.47 658.46,-37.41 658.81,-48 665.34,-45.47"/>
<text text-anchor="start" x="667" y="-60.2" font-family="mono" font-size="14.00" fill="#c83500">descriptions</text>
<text text-anchor="middle" x="647.42" y="-39.2" font-family="Times,serif" font-size="14.00">0..*</text>
</g>
<!-- IntegerSchema -->
<g id="node4" class="node">
<title>IntegerSchema</title>
<polygon fill="#8ccbf2" stroke="none" points="363.5,-516 363.5,-541.5 570.5,-541.5 570.5,-516 363.5,-516"/>
<polygon fill="none" stroke="#8ccbf2" points="363.5,-516 363.5,-541.5 570.5,-541.5 570.5,-516 363.5,-516"/>
<text text-anchor="start" x="413.38" y="-526.2" font-family="mono" font-weight="bold" font-size="14.00" fill="#c83500">IntegerSchema</text>
<polygon fill="#ddeeff" stroke="none" points="363.5,-490.5 363.5,-516 570.5,-516 570.5,-490.5 363.5,-490.5"/>
<polygon fill="none" stroke="#8ccbf2" points="363.5,-490.5 363.5,-516 570.5,-516 570.5,-490.5 363.5,-490.5"/>
<text text-anchor="start" x="366.5" y="-500.7" font-family="mono" font-size="14.00" fill="#c83500">minimum</text>
<text text-anchor="start" x="424.25" y="-500.7" font-family="Times,serif" font-size="14.00"> : </text>
<text text-anchor="start" x="435.5" y="-500.7" font-family="mono" font-size="14.00" fill="#c83500">integer</text>
<polygon fill="#ddeeff" stroke="none" points="363.5,-465 363.5,-490.5 570.5,-490.5 570.5,-465 363.5,-465"/>
<polygon fill="none" stroke="#8ccbf2" points="363.5,-465 363.5,-490.5 570.5,-490.5 570.5,-465 363.5,-465"/>
<text text-anchor="start" x="366.5" y="-475.2" font-family="mono" font-size="14.00" fill="#c83500">exclusiveMinimum</text>
<text text-anchor="start" x="498.5" y="-475.2" font-family="Times,serif" font-size="14.00"> : </text>
<text text-anchor="start" x="509.75" y="-475.2" font-family="mono" font-size="14.00" fill="#c83500">integer</text>
<polygon fill="#ddeeff" stroke="none" points="363.5,-439.5 363.5,-465 570.5,-465 570.5,-439.5 363.5,-439.5"/>
<polygon fill="none" stroke="#8ccbf2" points="363.5,-439.5 363.5,-465 570.5,-465 570.5,-439.5 363.5,-439.5"/>
<text text-anchor="start" x="366.5" y="-449.7" font-family="mono" font-size="14.00" fill="#c83500">maximum</text>
<text text-anchor="start" x="424.25" y="-449.7" font-family="Times,serif" font-size="14.00"> : </text>
<text text-anchor="start" x="435.5" y="-449.7" font-family="mono" font-size="14.00" fill="#c83500">integer</text>
<polygon fill="#ddeeff" stroke="none" points="363.5,-414 363.5,-439.5 570.5,-439.5 570.5,-414 363.5,-414"/>
<polygon fill="none" stroke="#8ccbf2" points="363.5,-414 363.5,-439.5 570.5,-439.5 570.5,-414 363.5,-414"/>
<text text-anchor="start" x="366.5" y="-424.2" font-family="mono" font-size="14.00" fill="#c83500">exclusiveMaximum</text>
<text text-anchor="start" x="498.5" y="-424.2" font-family="Times,serif" font-size="14.00"> : </text>
<text text-anchor="start" x="509.75" y="-424.2" font-family="mono" font-size="14.00" fill="#c83500">integer</text>
<polygon fill="#ddeeff" stroke="none" points="363.5,-388.5 363.5,-414 570.5,-414 570.5,-388.5 363.5,-388.5"/>
<polygon fill="none" stroke="#8ccbf2" points="363.5,-388.5 363.5,-414 570.5,-414 570.5,-388.5 363.5,-388.5"/>
<text text-anchor="start" x="366.5" y="-398.7" font-family="mono" font-size="14.00" fill="#c83500">multipleOf</text>
<text text-anchor="start" x="449" y="-398.7" font-family="Times,serif" font-size="14.00"> : </text>
<text text-anchor="start" x="460.25" y="-398.7" font-family="mono" font-size="14.00" fill="#c83500">integer</text>
</g>
<!-- IntegerSchema&#45;&gt;DataSchema -->
<g id="edge8" class="edge">
<title>IntegerSchema&#45;&gt;DataSchema</title>
<path fill="none" stroke="black" d="M524.09,-384.72C534.91,-369.7 546.47,-353.64 558.04,-337.58"/>
<polygon fill="white" stroke="black" points="560.57,-340.05 563.57,-329.89 554.89,-335.96 560.57,-340.05"/>
</g>
<!-- NullSchema -->
<g id="node5" class="node">
<title>NullSchema</title>
<polygon fill="#8ccbf2" stroke="none" points="604.75,-452.25 604.75,-477.75 693.25,-477.75 693.25,-452.25 604.75,-452.25"/>
<polygon fill="none" stroke="#8ccbf2" points="604.75,-452.25 604.75,-477.75 693.25,-477.75 693.25,-452.25 604.75,-452.25"/>
<text text-anchor="start" x="607.75" y="-462.45" font-family="mono" font-weight="bold" font-size="14.00" fill="#c83500">NullSchema</text>
</g>
<!-- NullSchema&#45;&gt;DataSchema -->
<g id="edge9" class="edge">
<title>NullSchema&#45;&gt;DataSchema</title>
<path fill="none" stroke="black" d="M649,-447.02C649,-424.47 649,-382.52 649,-340.18"/>
<polygon fill="white" stroke="black" points="652.5,-340.35 649,-330.35 645.5,-340.35 652.5,-340.35"/>
</g>
<!-- NumberSchema -->
<g id="node6" class="node">
<title>NumberSchema</title>
<polygon fill="#8ccbf2" stroke="none" points="727.62,-516 727.62,-541.5 926.38,-541.5 926.38,-516 727.62,-516"/>
<polygon fill="none" stroke="#8ccbf2" points="727.62,-516 727.62,-541.5 926.38,-541.5 926.38,-516 727.62,-516"/>
<text text-anchor="start" x="777.5" y="-526.2" font-family="mono" font-weight="bold" font-size="14.00" fill="#c83500">NumberSchema</text>
<polygon fill="#ddeeff" stroke="none" points="727.62,-490.5 727.62,-516 926.38,-516 926.38,-490.5 727.62,-490.5"/>
<polygon fill="none" stroke="#8ccbf2" points="727.62,-490.5 727.62,-516 926.38,-516 926.38,-490.5 727.62,-490.5"/>
<text text-anchor="start" x="730.62" y="-500.7" font-family="mono" font-size="14.00" fill="#c83500">minimum</text>
<text text-anchor="start" x="788.38" y="-500.7" font-family="Times,serif" font-size="14.00"> : </text>
<text text-anchor="start" x="799.62" y="-500.7" font-family="mono" font-size="14.00" fill="#c83500">double</text>
<polygon fill="#ddeeff" stroke="none" points="727.62,-465 727.62,-490.5 926.38,-490.5 926.38,-465 727.62,-465"/>
<polygon fill="none" stroke="#8ccbf2" points="727.62,-465 727.62,-490.5 926.38,-490.5 926.38,-465 727.62,-465"/>
<text text-anchor="start" x="730.62" y="-475.2" font-family="mono" font-size="14.00" fill="#c83500">exclusiveMinimum</text>
<text text-anchor="start" x="862.62" y="-475.2" font-family="Times,serif" font-size="14.00"> : </text>
<text text-anchor="start" x="873.88" y="-475.2" font-family="mono" font-size="14.00" fill="#c83500">double</text>
<polygon fill="#ddeeff" stroke="none" points="727.62,-439.5 727.62,-465 926.38,-465 926.38,-439.5 727.62,-439.5"/>
<polygon fill="none" stroke="#8ccbf2" points="727.62,-439.5 727.62,-465 926.38,-465 926.38,-439.5 727.62,-439.5"/>
<text text-anchor="start" x="730.62" y="-449.7" font-family="mono" font-size="14.00" fill="#c83500">maximum</text>
<text text-anchor="start" x="788.38" y="-449.7" font-family="Times,serif" font-size="14.00"> : </text>
<text text-anchor="start" x="799.62" y="-449.7" font-family="mono" font-size="14.00" fill="#c83500">double</text>
<polygon fill="#ddeeff" stroke="none" points="727.62,-414 727.62,-439.5 926.38,-439.5 926.38,-414 727.62,-414"/>
<polygon fill="none" stroke="#8ccbf2" points="727.62,-414 727.62,-439.5 926.38,-439.5 926.38,-414 727.62,-414"/>
<text text-anchor="start" x="730.62" y="-424.2" font-family="mono" font-size="14.00" fill="#c83500">exclusiveMaximum</text>
<text text-anchor="start" x="862.62" y="-424.2" font-family="Times,serif" font-size="14.00"> : </text>
<text text-anchor="start" x="873.88" y="-424.2" font-family="mono" font-size="14.00" fill="#c83500">double</text>
<polygon fill="#ddeeff" stroke="none" points="727.62,-388.5 727.62,-414 926.38,-414 926.38,-388.5 727.62,-388.5"/>
<polygon fill="none" stroke="#8ccbf2" points="727.62,-388.5 727.62,-414 926.38,-414 926.38,-388.5 727.62,-388.5"/>
<text text-anchor="start" x="730.62" y="-398.7" font-family="mono" font-size="14.00" fill="#c83500">multipleOf</text>
<text text-anchor="start" x="813.12" y="-398.7" font-family="Times,serif" font-size="14.00"> : </text>
<text text-anchor="start" x="824.38" y="-398.7" font-family="mono" font-size="14.00" fill="#c83500">double</text>
</g>
<!-- NumberSchema&#45;&gt;DataSchema -->
<g id="edge10" class="edge">
<title>NumberSchema&#45;&gt;DataSchema</title>
<path fill="none" stroke="black" d="M771.17,-384.72C760.68,-369.84 749.49,-353.93 738.28,-338.02"/>
<polygon fill="white" stroke="black" points="741.18,-336.06 732.56,-329.9 735.45,-340.09 741.18,-336.06"/>
</g>
<!-- ObjectSchema -->
<g id="node7" class="node">
<title>ObjectSchema</title>
<polygon fill="#8ccbf2" stroke="none" points="960.88,-465 960.88,-490.5 1143.12,-490.5 1143.12,-465 960.88,-465"/>
<polygon fill="none" stroke="#8ccbf2" points="960.88,-465 960.88,-490.5 1143.12,-490.5 1143.12,-465 960.88,-465"/>
<text text-anchor="start" x="1002.5" y="-475.2" font-family="mono" font-weight="bold" font-size="14.00" fill="#c83500">ObjectSchema</text>
<polygon fill="#ddeeff" stroke="none" points="960.88,-439.5 960.88,-465 1143.12,-465 1143.12,-439.5 960.88,-439.5"/>
<polygon fill="none" stroke="#8ccbf2" points="960.88,-439.5 960.88,-465 1143.12,-465 1143.12,-439.5 960.88,-439.5"/>
<text text-anchor="start" x="963.88" y="-449.7" font-family="mono" font-size="14.00" fill="#c83500">required</text>
<text text-anchor="start" x="1029.88" y="-449.7" font-family="Times,serif" font-size="14.00"> : Array of </text>
<text text-anchor="start" x="1090.62" y="-449.7" font-family="mono" font-size="14.00" fill="#c83500">string</text>
</g>
<!-- ObjectSchema&#45;&gt;DataSchema -->
<g id="edge5" class="edge">
<title>ObjectSchema&#45;&gt;DataSchema</title>
<path fill="none" stroke="black" d="M1016.11,-435.73C995.3,-419.88 968.27,-400.19 943,-384.5 928.31,-375.38 923.59,-374.94 908.5,-366.5 859.94,-339.34 807.12,-308.06 761.88,-280.73"/>
<polygon fill="black" stroke="black" points="763.71,-277.75 753.35,-275.56 760.09,-283.74 763.71,-277.75"/>
<text text-anchor="start" x="909" y="-353.2" font-family="mono" font-size="14.00" fill="#c83500">properties</text>
<text text-anchor="middle" x="762.55" y="-277.98" font-family="Times,serif" font-size="14.00">0..*</text>
</g>
<!-- ObjectSchema&#45;&gt;DataSchema -->
<g id="edge11" class="edge">
<title>ObjectSchema&#45;&gt;DataSchema</title>
<path fill="none" stroke="black" d="M1043.67,-435.85C1034.6,-409.64 1017.7,-371.09 991,-347 926.94,-289.2 835.27,-254.61 762.97,-234.82"/>
<polygon fill="white" stroke="black" points="764.02,-231.47 753.45,-232.27 762.21,-238.24 764.02,-231.47"/>
</g>
<!-- StringSchema -->
<g id="node8" class="node">
<title>StringSchema</title>
<polygon fill="#8ccbf2" stroke="none" points="1177.62,-516 1177.62,-541.5 1376.38,-541.5 1376.38,-516 1177.62,-516"/>
<polygon fill="none" stroke="#8ccbf2" points="1177.62,-516 1177.62,-541.5 1376.38,-541.5 1376.38,-516 1177.62,-516"/>
<text text-anchor="start" x="1227.5" y="-526.2" font-family="mono" font-weight="bold" font-size="14.00" fill="#c83500">StringSchema</text>
<polygon fill="#ddeeff" stroke="none" points="1177.62,-490.5 1177.62,-516 1376.38,-516 1376.38,-490.5 1177.62,-490.5"/>
<polygon fill="none" stroke="#8ccbf2" points="1177.62,-490.5 1177.62,-516 1376.38,-516 1376.38,-490.5 1177.62,-490.5"/>
<text text-anchor="start" x="1180.62" y="-500.7" font-family="mono" font-size="14.00" fill="#c83500">minLength</text>
<text text-anchor="start" x="1254.88" y="-500.7" font-family="Times,serif" font-size="14.00"> : </text>
<text text-anchor="start" x="1266.12" y="-500.7" font-family="mono" font-size="14.00" fill="#c83500">unsignedInt</text>
<polygon fill="#ddeeff" stroke="none" points="1177.62,-465 1177.62,-490.5 1376.38,-490.5 1376.38,-465 1177.62,-465"/>
<polygon fill="none" stroke="#8ccbf2" points="1177.62,-465 1177.62,-490.5 1376.38,-490.5 1376.38,-465 1177.62,-465"/>
<text text-anchor="start" x="1180.62" y="-475.2" font-family="mono" font-size="14.00" fill="#c83500">maxLength</text>
<text text-anchor="start" x="1254.88" y="-475.2" font-family="Times,serif" font-size="14.00"> : </text>
<text text-anchor="start" x="1266.12" y="-475.2" font-family="mono" font-size="14.00" fill="#c83500">unsignedInt</text>
<polygon fill="#ddeeff" stroke="none" points="1177.62,-439.5 1177.62,-465 1376.38,-465 1376.38,-439.5 1177.62,-439.5"/>
<polygon fill="none" stroke="#8ccbf2" points="1177.62,-439.5 1177.62,-465 1376.38,-465 1376.38,-439.5 1177.62,-439.5"/>
<text text-anchor="start" x="1180.62" y="-449.7" font-family="mono" font-size="14.00" fill="#c83500">pattern</text>
<text text-anchor="start" x="1238.38" y="-449.7" font-family="Times,serif" font-size="14.00"> : </text>
<text text-anchor="start" x="1249.62" y="-449.7" font-family="mono" font-size="14.00" fill="#c83500">string</text>
<polygon fill="#ddeeff" stroke="none" points="1177.62,-414 1177.62,-439.5 1376.38,-439.5 1376.38,-414 1177.62,-414"/>
<polygon fill="none" stroke="#8ccbf2" points="1177.62,-414 1177.62,-439.5 1376.38,-439.5 1376.38,-414 1177.62,-414"/>
<text text-anchor="start" x="1180.62" y="-424.2" font-family="mono" font-size="14.00" fill="#c83500">contentEncoding</text>
<text text-anchor="start" x="1304.38" y="-424.2" font-family="Times,serif" font-size="14.00"> : </text>
<text text-anchor="start" x="1315.62" y="-424.2" font-family="mono" font-size="14.00" fill="#c83500">string</text>
<polygon fill="#ddeeff" stroke="none" points="1177.62,-388.5 1177.62,-414 1376.38,-414 1376.38,-388.5 1177.62,-388.5"/>
<polygon fill="none" stroke="#8ccbf2" points="1177.62,-388.5 1177.62,-414 1376.38,-414 1376.38,-388.5 1177.62,-388.5"/>
<text text-anchor="start" x="1180.62" y="-398.7" font-family="mono" font-size="14.00" fill="#c83500">contentMediaType</text>
<text text-anchor="start" x="1312.62" y="-398.7" font-family="Times,serif" font-size="14.00"> : </text>
<text text-anchor="start" x="1323.88" y="-398.7" font-family="mono" font-size="14.00" fill="#c83500">string</text>
</g>
<!-- StringSchema&#45;&gt;DataSchema -->
<g id="edge12" class="edge">
<title>StringSchema&#45;&gt;DataSchema</title>
<path fill="none" stroke="black" d="M1169.93,-389.65C1166.61,-387.86 1163.3,-386.14 1160,-384.5 1029.6,-319.59 869.08,-269.62 763.14,-240.38"/>
<polygon fill="white" stroke="black" points="764.13,-237.02 753.56,-237.75 762.28,-243.77 764.13,-237.02"/>
</g>
</g>
</svg>
