<?xml version="1.0" encoding="UTF-8" standalone="no"?>
<!DOCTYPE svg PUBLIC "-//W3C//DTD SVG 1.1//EN"
 "http://www.w3.org/Graphics/SVG/1.1/DTD/svg11.dtd">
<!-- Generated by graphviz version 10.0.1 (0)
 -->
<!-- Pages: 1 -->
<svg width="1392pt" height="528pt"
 viewBox="0.00 0.00 1392.38 528.00" xmlns="http://www.w3.org/2000/svg" xmlns:xlink="http://www.w3.org/1999/xlink">
<g id="graph0" class="graph" transform="scale(1 1) rotate(0) translate(4 524)">
<polygon fill="white" stroke="none" points="-4,4 -4,-524 1388.38,-524 1388.38,4 -4,4"/>
<!-- ArraySchema -->
<g id="node1" class="node">
<title>ArraySchema</title>
<polygon fill="#8ccbf2" stroke="none" points="8,-452.25 8,-477.75 182,-477.75 182,-452.25 8,-452.25"/>
<polygon fill="none" stroke="#8ccbf2" points="8,-452.25 8,-477.75 182,-477.75 182,-452.25 8,-452.25"/>
<text text-anchor="start" x="49.62" y="-462.45" font-family="mono" font-weight="bold" font-size="14.00" fill="#c83500">ArraySchema</text>
<polygon fill="#ddeeff" stroke="none" points="8,-426.75 8,-452.25 182,-452.25 182,-426.75 8,-426.75"/>
<polygon fill="none" stroke="#8ccbf2" points="8,-426.75 8,-452.25 182,-452.25 182,-426.75 8,-426.75"/>
<text text-anchor="start" x="11" y="-436.95" font-family="mono" font-size="14.00" fill="#c83500">minItems</text>
<text text-anchor="start" x="77" y="-436.95" font-family="Times,serif" font-size="14.00"> : </text>
<text text-anchor="start" x="88.25" y="-436.95" font-family="mono" font-size="14.00" fill="#c83500">unsignedInt</text>
<polygon fill="#ddeeff" stroke="none" points="8,-401.25 8,-426.75 182,-426.75 182,-401.25 8,-401.25"/>
<polygon fill="none" stroke="#8ccbf2" points="8,-401.25 8,-426.75 182,-426.75 182,-401.25 8,-401.25"/>
<text text-anchor="start" x="11" y="-411.45" font-family="mono" font-size="14.00" fill="#c83500">maxItems</text>
<text text-anchor="start" x="77" y="-411.45" font-family="Times,serif" font-size="14.00"> : </text>
<text text-anchor="start" x="88.25" y="-411.45" font-family="mono" font-size="14.00" fill="#c83500">unsignedInt</text>
</g>
<!-- DataSchema -->
<g id="node3" class="node">
<title>DataSchema</title>
<polygon fill="#8ccbf2" stroke="none" points="553.75,-274 553.75,-299.5 744.25,-299.5 744.25,-274 553.75,-274"/>
<polygon fill="none" stroke="#8ccbf2" points="553.75,-274 553.75,-299.5 744.25,-299.5 744.25,-274 553.75,-274"/>
<text text-anchor="start" x="607.75" y="-284.2" font-family="mono" font-weight="bold" font-size="14.00" fill="#c83500">DataSchema</text>
<polygon fill="#ddeeff" stroke="none" points="553.75,-248.5 553.75,-274 744.25,-274 744.25,-248.5 553.75,-248.5"/>
<polygon fill="none" stroke="#8ccbf2" points="553.75,-248.5 553.75,-274 744.25,-274 744.25,-248.5 553.75,-248.5"/>
<text text-anchor="start" x="556.75" y="-258.7" font-family="mono" font-size="14.00" fill="#c83500">@type</text>
<text text-anchor="start" x="598" y="-258.7" font-family="Times,serif" font-size="14.00"> : </text>
<text text-anchor="start" x="609.25" y="-258.7" font-family="Times,serif" font-style="italic" font-size="14.00">(Array of) </text>
<text text-anchor="start" x="667.75" y="-258.7" font-family="mono" font-size="14.00" fill="#c83500">string</text>
<polygon fill="#ddeeff" stroke="none" points="553.75,-223 553.75,-248.5 744.25,-248.5 744.25,-223 553.75,-223"/>
<polygon fill="none" stroke="#8ccbf2" points="553.75,-223 553.75,-248.5 744.25,-248.5 744.25,-223 553.75,-223"/>
<text text-anchor="start" x="556.75" y="-233.2" font-family="mono" font-size="14.00" fill="#c83500">title</text>
<text text-anchor="start" x="598" y="-233.2" font-family="Times,serif" font-size="14.00"> : </text>
<text text-anchor="start" x="609.25" y="-233.2" font-family="mono" font-size="14.00" fill="#c83500">langString</text>
<polygon fill="#ddeeff" stroke="none" points="553.75,-197.5 553.75,-223 744.25,-223 744.25,-197.5 553.75,-197.5"/>
<polygon fill="none" stroke="#8ccbf2" points="553.75,-197.5 553.75,-223 744.25,-223 744.25,-197.5 553.75,-197.5"/>
<text text-anchor="start" x="556.75" y="-207.7" font-family="mono" font-size="14.00" fill="#c83500">unit</text>
<text text-anchor="start" x="589.75" y="-207.7" font-family="Times,serif" font-size="14.00"> : </text>
<text text-anchor="start" x="601" y="-207.7" font-family="mono" font-size="14.00" fill="#c83500">string</text>
<polygon fill="#ddeeff" stroke="none" points="553.75,-172 553.75,-197.5 744.25,-197.5 744.25,-172 553.75,-172"/>
<polygon fill="none" stroke="#8ccbf2" points="553.75,-172 553.75,-197.5 744.25,-197.5 744.25,-172 553.75,-172"/>
<text text-anchor="start" x="556.75" y="-182.2" font-family="mono" font-size="14.00" fill="#c83500">readOnly</text>
<text text-anchor="start" x="622.75" y="-182.2" font-family="Times,serif" font-size="14.00"> : </text>
<text text-anchor="start" x="634" y="-182.2" font-family="mono" font-size="14.00" fill="#c83500">boolean</text>
<polygon fill="#ddeeff" stroke="none" points="553.75,-146.5 553.75,-172 744.25,-172 744.25,-146.5 553.75,-146.5"/>
<polygon fill="none" stroke="#8ccbf2" points="553.75,-146.5 553.75,-172 744.25,-172 744.25,-146.5 553.75,-146.5"/>
<text text-anchor="start" x="556.75" y="-156.7" font-family="mono" font-size="14.00" fill="#c83500">writeOnly</text>
<text text-anchor="start" x="631" y="-156.7" font-family="Times,serif" font-size="14.00"> : </text>
<text text-anchor="start" x="642.25" y="-156.7" font-family="mono" font-size="14.00" fill="#c83500">boolean</text>
<polygon fill="#ddeeff" stroke="none" points="553.75,-121 553.75,-146.5 744.25,-146.5 744.25,-121 553.75,-121"/>
<polygon fill="none" stroke="#8ccbf2" points="553.75,-121 553.75,-146.5 744.25,-146.5 744.25,-121 553.75,-121"/>
<text text-anchor="start" x="556.75" y="-131.2" font-family="mono" font-size="14.00" fill="#c83500">format</text>
<text text-anchor="start" x="606.25" y="-131.2" font-family="Times,serif" font-size="14.00"> : </text>
<text text-anchor="start" x="617.5" y="-131.2" font-family="mono" font-size="14.00" fill="#c83500">string</text>
<polygon fill="#ddeeff" stroke="none" points="553.75,-95.5 553.75,-121 744.25,-121 744.25,-95.5 553.75,-95.5"/>
<polygon fill="none" stroke="#8ccbf2" points="553.75,-95.5 553.75,-121 744.25,-121 744.25,-95.5 553.75,-95.5"/>
<text text-anchor="start" x="556.75" y="-105.7" font-family="mono" font-size="14.00" fill="#c83500">description</text>
<text text-anchor="start" x="647.5" y="-105.7" font-family="Times,serif" font-size="14.00"> : </text>
<text text-anchor="start" x="658.75" y="-105.7" font-family="mono" font-size="14.00" fill="#c83500">langString</text>
</g>
<!-- ArraySchema&#45;&gt;DataSchema -->
<g id="edge4" class="edge">
<title>ArraySchema&#45;&gt;DataSchema</title>
<path fill="none" stroke="black" d="M111.43,-397.3C123.61,-371.85 142.65,-340.51 168.75,-321.5 276.82,-242.78 430.56,-214.31 534.76,-204.08"/>
<polygon fill="black" stroke="black" points="534.81,-207.59 544.44,-203.18 534.16,-200.63 534.81,-207.59"/>
<text text-anchor="start" x="169" y="-327.7" font-family="mono" font-size="14.00" fill="#c83500">items</text>
<text text-anchor="middle" x="535.45" y="-206.24" font-family="Times,serif" font-size="14.00">0..*</text>
</g>
<!-- ArraySchema&#45;&gt;DataSchema -->
<g id="edge6" class="edge">
<title>ArraySchema&#45;&gt;DataSchema</title>
<path fill="none" stroke="black" d="M142.32,-397.39C159.4,-383.92 179.33,-369.69 199,-359 307.32,-300.16 441.53,-255.54 535.07,-228.47"/>
<polygon fill="white" stroke="black" points="535.88,-231.88 544.53,-225.75 533.95,-225.15 535.88,-231.88"/>
</g>
<!-- BooleanSchema -->
<g id="node2" class="node">
<title>BooleanSchema</title>
<polygon fill="#8ccbf2" stroke="none" points="216.38,-426.75 216.38,-452.25 329.62,-452.25 329.62,-426.75 216.38,-426.75"/>
<polygon fill="none" stroke="#8ccbf2" points="216.38,-426.75 216.38,-452.25 329.62,-452.25 329.62,-426.75 216.38,-426.75"/>
<text text-anchor="start" x="219.38" y="-436.95" font-family="mono" font-weight="bold" font-size="14.00" fill="#c83500">BooleanSchema</text>
</g>
<!-- BooleanSchema&#45;&gt;DataSchema -->
<g id="edge7" class="edge">
<title>BooleanSchema&#45;&gt;DataSchema</title>
<path fill="none" stroke="black" d="M285.58,-421.72C299.12,-404.46 321.97,-377.55 346,-359 404.01,-314.2 476.31,-275.37 535.74,-247.13"/>
<polygon fill="white" stroke="black" points="536.99,-250.4 544.55,-242.98 534.01,-244.07 536.99,-250.4"/>
</g>
<!-- DataSchema&#45;&gt;DataSchema -->
<g id="edge1" class="edge">
<title>DataSchema&#45;&gt;DataSchema</title>
<path fill="none" stroke="black" d="M752.05,-218.44C763.13,-214.41 770.25,-207.43 770.25,-197.5 770.25,-190.99 767.18,-185.74 761.94,-181.76"/>
<polygon fill="black" stroke="black" points="763.87,-178.82 753.39,-177.27 760.61,-185.02 763.87,-178.82"/>
<text text-anchor="start" x="770.25" y="-193.95" font-family="mono" font-size="14.00" fill="#c83500">oneOf</text>
<text text-anchor="middle" x="762.55" y="-163.26" font-family="Times,serif" font-size="14.00">0..*</text>
</g>
<!-- MultiLanguage -->
<g id="node9" class="node">
<title>MultiLanguage</title>
<polygon fill="#f2f2f2" stroke="none" points="592.38,-5.25 592.38,-30.75 705.62,-30.75 705.62,-5.25 592.38,-5.25"/>
<polygon fill="none" stroke="#8c8c8c" points="592.38,-5.25 592.38,-30.75 705.62,-30.75 705.62,-5.25 592.38,-5.25"/>
<text text-anchor="start" x="595.38" y="-15.45" font-family="mono" font-weight="bold" font-size="14.00">MultiLanguage</text>
</g>
<!-- DataSchema&#45;&gt;MultiLanguage -->
<g id="edge2" class="edge">
<title>DataSchema&#45;&gt;MultiLanguage</title>
<path fill="none" stroke="black" d="M608.59,-91.82C607.98,-78.89 609.58,-66.01 614.5,-54 615.89,-50.61 617.79,-47.36 619.98,-44.32"/>
<polygon fill="black" stroke="black" points="622.43,-46.85 626.26,-36.97 617.11,-42.3 622.43,-46.85"/>
<text text-anchor="start" x="615" y="-60.2" font-family="mono" font-size="14.00" fill="#c83500">titles</text>
<text text-anchor="middle" x="616.75" y="-39.02" font-family="Times,serif" font-size="14.00">0..*</text>
</g>
<!-- DataSchema&#45;&gt;MultiLanguage -->
<g id="edge3" class="edge">
<title>DataSchema&#45;&gt;MultiLanguage</title>
<path fill="none" stroke="black" d="M667.37,-91.85C667.45,-79.04 666.5,-66.18 664,-54 663.49,-51.53 662.8,-49.01 662,-46.53"/>
<polygon fill="black" stroke="black" points="665.34,-45.47 658.46,-37.41 658.81,-48 665.34,-45.47"/>
<text text-anchor="start" x="667" y="-60.2" font-family="mono" font-size="14.00" fill="#c83500">descriptions</text>
<text text-anchor="middle" x="647.42" y="-39.2" font-family="Times,serif" font-size="14.00">0..*</text>
</g>
<!-- IntegerSchema -->
<g id="node4" class="node">
<title>IntegerSchema</title>
<polygon fill="#8ccbf2" stroke="none" points="363.5,-490.5 363.5,-516 570.5,-516 570.5,-490.5 363.5,-490.5"/>
<polygon fill="none" stroke="#8ccbf2" points="363.5,-490.5 363.5,-516 570.5,-516 570.5,-490.5 363.5,-490.5"/>
<text text-anchor="start" x="413.38" y="-500.7" font-family="mono" font-weight="bold" font-size="14.00" fill="#c83500">IntegerSchema</text>
<polygon fill="#ddeeff" stroke="none" points="363.5,-465 363.5,-490.5 570.5,-490.5 570.5,-465 363.5,-465"/>
<polygon fill="none" stroke="#8ccbf2" points="363.5,-465 363.5,-490.5 570.5,-490.5 570.5,-465 363.5,-465"/>
<text text-anchor="start" x="366.5" y="-475.2" font-family="mono" font-size="14.00" fill="#c83500">minimum</text>
<text text-anchor="start" x="424.25" y="-475.2" font-family="Times,serif" font-size="14.00"> : </text>
<text text-anchor="start" x="435.5" y="-475.2" font-family="mono" font-size="14.00" fill="#c83500">integer</text>
<polygon fill="#ddeeff" stroke="none" points="363.5,-439.5 363.5,-465 570.5,-465 570.5,-439.5 363.5,-439.5"/>
<polygon fill="none" stroke="#8ccbf2" points="363.5,-439.5 363.5,-465 570.5,-465 570.5,-439.5 363.5,-439.5"/>
<text text-anchor="start" x="366.5" y="-449.7" font-family="mono" font-size="14.00" fill="#c83500">exclusiveMinimum</text>
<text text-anchor="start" x="498.5" y="-449.7" font-family="Times,serif" font-size="14.00"> : </text>
<text text-anchor="start" x="509.75" y="-449.7" font-family="mono" font-size="14.00" fill="#c83500">integer</text>
<polygon fill="#ddeeff" stroke="none" points="363.5,-414 363.5,-439.5 570.5,-439.5 570.5,-414 363.5,-414"/>
<polygon fill="none" stroke="#8ccbf2" points="363.5,-414 363.5,-439.5 570.5,-439.5 570.5,-414 363.5,-414"/>
<text text-anchor="start" x="366.5" y="-424.2" font-family="mono" font-size="14.00" fill="#c83500">maximum</text>
<text text-anchor="start" x="424.25" y="-424.2" font-family="Times,serif" font-size="14.00"> : </text>
<text text-anchor="start" x="435.5" y="-424.2" font-family="mono" font-size="14.00" fill="#c83500">integer</text>
<polygon fill="#ddeeff" stroke="none" points="363.5,-388.5 363.5,-414 570.5,-414 570.5,-388.5 363.5,-388.5"/>
<polygon fill="none" stroke="#8ccbf2" points="363.5,-388.5 363.5,-414 570.5,-414 570.5,-388.5 363.5,-388.5"/>
<text text-anchor="start" x="366.5" y="-398.7" font-family="mono" font-size="14.00" fill="#c83500">exclusiveMaximum</text>
<text text-anchor="start" x="498.5" y="-398.7" font-family="Times,serif" font-size="14.00"> : </text>
<text text-anchor="start" x="509.75" y="-398.7" font-family="mono" font-size="14.00" fill="#c83500">integer</text>
<polygon fill="#ddeeff" stroke="none" points="363.5,-363 363.5,-388.5 570.5,-388.5 570.5,-363 363.5,-363"/>
<polygon fill="none" stroke="#8ccbf2" points="363.5,-363 363.5,-388.5 570.5,-388.5 570.5,-363 363.5,-363"/>
<text text-anchor="start" x="366.5" y="-373.2" font-family="mono" font-size="14.00" fill="#c83500">multipleOf</text>
<text text-anchor="start" x="449" y="-373.2" font-family="Times,serif" font-size="14.00"> : </text>
<text text-anchor="start" x="460.25" y="-373.2" font-family="mono" font-size="14.00" fill="#c83500">integer</text>
</g>
<!-- IntegerSchema&#45;&gt;DataSchema -->
<g id="edge8" class="edge">
<title>IntegerSchema&#45;&gt;DataSchema</title>
<path fill="none" stroke="black" d="M527.1,-359.25C538.54,-344.16 550.73,-328.09 562.8,-312.17"/>
<polygon fill="white" stroke="black" points="565.32,-314.64 568.57,-304.56 559.74,-310.41 565.32,-314.64"/>
</g>
<!-- NullSchema -->
<g id="node5" class="node">
<title>NullSchema</title>
<polygon fill="#8ccbf2" stroke="none" points="604.75,-426.75 604.75,-452.25 693.25,-452.25 693.25,-426.75 604.75,-426.75"/>
<polygon fill="none" stroke="#8ccbf2" points="604.75,-426.75 604.75,-452.25 693.25,-452.25 693.25,-426.75 604.75,-426.75"/>
<text text-anchor="start" x="607.75" y="-436.95" font-family="mono" font-weight="bold" font-size="14.00" fill="#c83500">NullSchema</text>
</g>
<!-- NullSchema&#45;&gt;DataSchema -->
<g id="edge9" class="edge">
<title>NullSchema&#45;&gt;DataSchema</title>
<path fill="none" stroke="black" d="M649,-421.62C649,-398.95 649,-356.66 649,-314.94"/>
<polygon fill="white" stroke="black" points="652.5,-315.01 649,-305.01 645.5,-315.01 652.5,-315.01"/>
</g>
<!-- NumberSchema -->
<g id="node6" class="node">
<title>NumberSchema</title>
<polygon fill="#8ccbf2" stroke="none" points="727.62,-490.5 727.62,-516 926.38,-516 926.38,-490.5 727.62,-490.5"/>
<polygon fill="none" stroke="#8ccbf2" points="727.62,-490.5 727.62,-516 926.38,-516 926.38,-490.5 727.62,-490.5"/>
<text text-anchor="start" x="777.5" y="-500.7" font-family="mono" font-weight="bold" font-size="14.00" fill="#c83500">NumberSchema</text>
<polygon fill="#ddeeff" stroke="none" points="727.62,-465 727.62,-490.5 926.38,-490.5 926.38,-465 727.62,-465"/>
<polygon fill="none" stroke="#8ccbf2" points="727.62,-465 727.62,-490.5 926.38,-490.5 926.38,-465 727.62,-465"/>
<text text-anchor="start" x="730.62" y="-475.2" font-family="mono" font-size="14.00" fill="#c83500">minimum</text>
<text text-anchor="start" x="788.38" y="-475.2" font-family="Times,serif" font-size="14.00"> : </text>
<text text-anchor="start" x="799.62" y="-475.2" font-family="mono" font-size="14.00" fill="#c83500">double</text>
<polygon fill="#ddeeff" stroke="none" points="727.62,-439.5 727.62,-465 926.38,-465 926.38,-439.5 727.62,-439.5"/>
<polygon fill="none" stroke="#8ccbf2" points="727.62,-439.5 727.62,-465 926.38,-465 926.38,-439.5 727.62,-439.5"/>
<text text-anchor="start" x="730.62" y="-449.7" font-family="mono" font-size="14.00" fill="#c83500">exclusiveMinimum</text>
<text text-anchor="start" x="862.62" y="-449.7" font-family="Times,serif" font-size="14.00"> : </text>
<text text-anchor="start" x="873.88" y="-449.7" font-family="mono" font-size="14.00" fill="#c83500">double</text>
<polygon fill="#ddeeff" stroke="none" points="727.62,-414 727.62,-439.5 926.38,-439.5 926.38,-414 727.62,-414"/>
<polygon fill="none" stroke="#8ccbf2" points="727.62,-414 727.62,-439.5 926.38,-439.5 926.38,-414 727.62,-414"/>
<text text-anchor="start" x="730.62" y="-424.2" font-family="mono" font-size="14.00" fill="#c83500">maximum</text>
<text text-anchor="start" x="788.38" y="-424.2" font-family="Times,serif" font-size="14.00"> : </text>
<text text-anchor="start" x="799.62" y="-424.2" font-family="mono" font-size="14.00" fill="#c83500">double</text>
<polygon fill="#ddeeff" stroke="none" points="727.62,-388.5 727.62,-414 926.38,-414 926.38,-388.5 727.62,-388.5"/>
<polygon fill="none" stroke="#8ccbf2" points="727.62,-388.5 727.62,-414 926.38,-414 926.38,-388.5 727.62,-388.5"/>
<text text-anchor="start" x="730.62" y="-398.7" font-family="mono" font-size="14.00" fill="#c83500">exclusiveMaximum</text>
<text text-anchor="start" x="862.62" y="-398.7" font-family="Times,serif" font-size="14.00"> : </text>
<text text-anchor="start" x="873.88" y="-398.7" font-family="mono" font-size="14.00" fill="#c83500">double</text>
<polygon fill="#ddeeff" stroke="none" points="727.62,-363 727.62,-388.5 926.38,-388.5 926.38,-363 727.62,-363"/>
<polygon fill="none" stroke="#8ccbf2" points="727.62,-363 727.62,-388.5 926.38,-388.5 926.38,-363 727.62,-363"/>
<text text-anchor="start" x="730.62" y="-373.2" font-family="mono" font-size="14.00" fill="#c83500">multipleOf</text>
<text text-anchor="start" x="813.12" y="-373.2" font-family="Times,serif" font-size="14.00"> : </text>
<text text-anchor="start" x="824.38" y="-373.2" font-family="mono" font-size="14.00" fill="#c83500">double</text>
</g>
<!-- NumberSchema&#45;&gt;DataSchema -->
<g id="edge10" class="edge">
<title>NumberSchema&#45;&gt;DataSchema</title>
<path fill="none" stroke="black" d="M768.22,-359.25C757.03,-344.16 745.11,-328.09 733.31,-312.17"/>
<polygon fill="white" stroke="black" points="736.43,-310.51 727.67,-304.57 730.81,-314.68 736.43,-310.51"/>
</g>
<!-- ObjectSchema -->
<g id="node7" class="node">
<title>ObjectSchema</title>
<polygon fill="#8ccbf2" stroke="none" points="960.88,-439.5 960.88,-465 1143.12,-465 1143.12,-439.5 960.88,-439.5"/>
<polygon fill="none" stroke="#8ccbf2" points="960.88,-439.5 960.88,-465 1143.12,-465 1143.12,-439.5 960.88,-439.5"/>
<text text-anchor="start" x="1002.5" y="-449.7" font-family="mono" font-weight="bold" font-size="14.00" fill="#c83500">ObjectSchema</text>
<polygon fill="#ddeeff" stroke="none" points="960.88,-414 960.88,-439.5 1143.12,-439.5 1143.12,-414 960.88,-414"/>
<polygon fill="none" stroke="#8ccbf2" points="960.88,-414 960.88,-439.5 1143.12,-439.5 1143.12,-414 960.88,-414"/>
<text text-anchor="start" x="963.88" y="-424.2" font-family="mono" font-size="14.00" fill="#c83500">required</text>
<text text-anchor="start" x="1029.88" y="-424.2" font-family="Times,serif" font-size="14.00"> : Array of </text>
<text text-anchor="start" x="1090.62" y="-424.2" font-family="mono" font-size="14.00" fill="#c83500">string</text>
</g>
<!-- ObjectSchema&#45;&gt;DataSchema -->
<g id="edge5" class="edge">
<title>ObjectSchema&#45;&gt;DataSchema</title>
<path fill="none" stroke="black" d="M1016.11,-410.23C995.3,-394.38 968.27,-374.69 943,-359 928.31,-349.88 923.75,-349.16 908.5,-341 860.27,-315.18 807.28,-286.2 761.84,-261.14"/>
<polygon fill="black" stroke="black" points="763.73,-258.19 753.28,-256.43 760.35,-264.32 763.73,-258.19"/>
<text text-anchor="start" x="909" y="-327.7" font-family="mono" font-size="14.00" fill="#c83500">properties</text>
<text text-anchor="middle" x="762.46" y="-242.39" font-family="Times,serif" font-size="14.00">0..*</text>
</g>
<!-- ObjectSchema&#45;&gt;DataSchema -->
<g id="edge11" class="edge">
<title>ObjectSchema&#45;&gt;DataSchema</title>
<path fill="none" stroke="black" d="M1043.84,-410.15C1034.9,-383.8 1018.09,-345.15 991,-321.5 926.8,-265.45 835.14,-234.31 762.87,-217.39"/>
<polygon fill="white" stroke="black" points="763.91,-214.03 753.38,-215.23 762.35,-220.86 763.91,-214.03"/>
</g>
<!-- StringSchema -->
<g id="node8" class="node">
<title>StringSchema</title>
<polygon fill="#8ccbf2" stroke="none" points="1177.62,-490.5 1177.62,-516 1376.38,-516 1376.38,-490.5 1177.62,-490.5"/>
<polygon fill="none" stroke="#8ccbf2" points="1177.62,-490.5 1177.62,-516 1376.38,-516 1376.38,-490.5 1177.62,-490.5"/>
<text text-anchor="start" x="1227.5" y="-500.7" font-family="mono" font-weight="bold" font-size="14.00" fill="#c83500">StringSchema</text>
<polygon fill="#ddeeff" stroke="none" points="1177.62,-465 1177.62,-490.5 1376.38,-490.5 1376.38,-465 1177.62,-465"/>
<polygon fill="none" stroke="#8ccbf2" points="1177.62,-465 1177.62,-490.5 1376.38,-490.5 1376.38,-465 1177.62,-465"/>
<text text-anchor="start" x="1180.62" y="-475.2" font-family="mono" font-size="14.00" fill="#c83500">minLength</text>
<text text-anchor="start" x="1254.88" y="-475.2" font-family="Times,serif" font-size="14.00"> : </text>
<text text-anchor="start" x="1266.12" y="-475.2" font-family="mono" font-size="14.00" fill="#c83500">unsignedInt</text>
<polygon fill="#ddeeff" stroke="none" points="1177.62,-439.5 1177.62,-465 1376.38,-465 1376.38,-439.5 1177.62,-439.5"/>
<polygon fill="none" stroke="#8ccbf2" points="1177.62,-439.5 1177.62,-465 1376.38,-465 1376.38,-439.5 1177.62,-439.5"/>
<text text-anchor="start" x="1180.62" y="-449.7" font-family="mono" font-size="14.00" fill="#c83500">maxLength</text>
<text text-anchor="start" x="1254.88" y="-449.7" font-family="Times,serif" font-size="14.00"> : </text>
<text text-anchor="start" x="1266.12" y="-449.7" font-family="mono" font-size="14.00" fill="#c83500">unsignedInt</text>
<polygon fill="#ddeeff" stroke="none" points="1177.62,-414 1177.62,-439.5 1376.38,-439.5 1376.38,-414 1177.62,-414"/>
<polygon fill="none" stroke="#8ccbf2" points="1177.62,-414 1177.62,-439.5 1376.38,-439.5 1376.38,-414 1177.62,-414"/>
<text text-anchor="start" x="1180.62" y="-424.2" font-family="mono" font-size="14.00" fill="#c83500">pattern</text>
<text text-anchor="start" x="1238.38" y="-424.2" font-family="Times,serif" font-size="14.00"> : </text>
<text text-anchor="start" x="1249.62" y="-424.2" font-family="mono" font-size="14.00" fill="#c83500">string</text>
<polygon fill="#ddeeff" stroke="none" points="1177.62,-388.5 1177.62,-414 1376.38,-414 1376.38,-388.5 1177.62,-388.5"/>
<polygon fill="none" stroke="#8ccbf2" points="1177.62,-388.5 1177.62,-414 1376.38,-414 1376.38,-388.5 1177.62,-388.5"/>
<text text-anchor="start" x="1180.62" y="-398.7" font-family="mono" font-size="14.00" fill="#c83500">contentEncoding</text>
<text text-anchor="start" x="1304.38" y="-398.7" font-family="Times,serif" font-size="14.00"> : </text>
<text text-anchor="start" x="1315.62" y="-398.7" font-family="mono" font-size="14.00" fill="#c83500">string</text>
<polygon fill="#ddeeff" stroke="none" points="1177.62,-363 1177.62,-388.5 1376.38,-388.5 1376.38,-363 1177.62,-363"/>
<polygon fill="none" stroke="#8ccbf2" points="1177.62,-363 1177.62,-388.5 1376.38,-388.5 1376.38,-363 1177.62,-363"/>
<text text-anchor="start" x="1180.62" y="-373.2" font-family="mono" font-size="14.00" fill="#c83500">contentMediaType</text>
<text text-anchor="start" x="1312.62" y="-373.2" font-family="Times,serif" font-size="14.00"> : </text>
<text text-anchor="start" x="1323.88" y="-373.2" font-family="mono" font-size="14.00" fill="#c83500">string</text>
</g>
<!-- StringSchema&#45;&gt;DataSchema -->
<g id="edge12" class="edge">
<title>StringSchema&#45;&gt;DataSchema</title>
<path fill="none" stroke="black" d="M1169.64,-363.88C1166.42,-362.18 1163.21,-360.55 1160,-359 1029.84,-296.03 869.27,-250.34 763.25,-224.17"/>
<polygon fill="white" stroke="black" points="764.22,-220.81 753.68,-221.83 762.56,-227.61 764.22,-220.81"/>
</g>
</g>
</svg>
