<?xml version="1.0" encoding="UTF-8" standalone="no"?>
<!DOCTYPE svg PUBLIC "-//W3C//DTD SVG 1.1//EN"
 "http://www.w3.org/Graphics/SVG/1.1/DTD/svg11.dtd">
<!-- Generated by graphviz version 2.40.1 (20161225.0304)
 -->
<!-- Title: %3 Pages: 1 -->
<svg width="1156pt" height="393pt"
 viewBox="0.00 0.00 1155.50 393.00" xmlns="http://www.w3.org/2000/svg" xmlns:xlink="http://www.w3.org/1999/xlink">
<g id="graph0" class="graph" transform="scale(1 1) rotate(0) translate(4 389)">
<title>%3</title>
<polygon fill="#ffffff" stroke="transparent" points="-4,4 -4,-389 1151.5,-389 1151.5,4 -4,4"/>
<!-- IntegerSchema -->
<g id="node1" class="node">
<title>IntegerSchema</title>
<polygon fill="#8ccbf2" stroke="transparent" points="8,-359.5 8,-380.5 142,-380.5 142,-359.5 8,-359.5"/>
<polygon fill="none" stroke="#8ccbf2" points="8,-359.5 8,-380.5 142,-380.5 142,-359.5 8,-359.5"/>
<text text-anchor="start" x="21" y="-367.3" font-family="mono" font-weight="bold" font-size="14.00" fill="#c83500">IntegerSchema</text>
<polygon fill="#ddeeff" stroke="transparent" points="8,-338.5 8,-359.5 142,-359.5 142,-338.5 8,-338.5"/>
<polygon fill="none" stroke="#8ccbf2" points="8,-338.5 8,-359.5 142,-359.5 142,-338.5 8,-338.5"/>
<text text-anchor="start" x="11" y="-346.3" font-family="mono" font-size="14.00" fill="#c83500">maximum</text>
<text text-anchor="start" x="69" y="-346.3" font-family="Times,serif" font-size="14.00" fill="#000000"> : </text>
<text text-anchor="start" x="81" y="-346.3" font-family="mono" font-size="14.00" fill="#c83500">integer</text>
<polygon fill="#ddeeff" stroke="transparent" points="8,-317.5 8,-338.5 142,-338.5 142,-317.5 8,-317.5"/>
<polygon fill="none" stroke="#8ccbf2" points="8,-317.5 8,-338.5 142,-338.5 142,-317.5 8,-317.5"/>
<text text-anchor="start" x="11" y="-325.3" font-family="mono" font-size="14.00" fill="#c83500">minimum</text>
<text text-anchor="start" x="69" y="-325.3" font-family="Times,serif" font-size="14.00" fill="#000000"> : </text>
<text text-anchor="start" x="81" y="-325.3" font-family="mono" font-size="14.00" fill="#c83500">integer</text>
</g>
<!-- DataSchema -->
<g id="node8" class="node">
<title>DataSchema</title>
<polygon fill="#8ccbf2" stroke="transparent" points="506,-238 506,-259 729,-259 729,-238 506,-238"/>
<polygon fill="none" stroke="#8ccbf2" points="506,-238 506,-259 729,-259 729,-238 506,-238"/>
<text text-anchor="start" x="576" y="-245.8" font-family="mono" font-weight="bold" font-size="14.00" fill="#c83500">DataSchema</text>
<polygon fill="#ddeeff" stroke="transparent" points="506,-217 506,-238 729,-238 729,-217 506,-217"/>
<polygon fill="none" stroke="#8ccbf2" points="506,-217 506,-238 729,-238 729,-217 506,-217"/>
<text text-anchor="start" x="509" y="-224.8" font-family="mono" font-size="14.00" fill="#c83500">@context</text>
<text text-anchor="start" x="576" y="-224.8" font-family="Times,serif" font-size="14.00" fill="#000000"> : </text>
<text text-anchor="start" x="588" y="-224.8" font-family="Times,serif" font-style="italic" font-size="14.00" fill="#000000">array</text>
<text text-anchor="start" x="619" y="-224.8" font-family="Times,serif" font-size="14.00" fill="#000000"> </text>
<text text-anchor="start" x="623" y="-224.8" font-family="Times,serif" font-style="italic" font-size="14.00" fill="#000000">(mandatory)</text>
<polygon fill="#ddeeff" stroke="transparent" points="506,-196 506,-217 729,-217 729,-196 506,-196"/>
<polygon fill="none" stroke="#8ccbf2" points="506,-196 506,-217 729,-217 729,-196 506,-196"/>
<text text-anchor="start" x="509" y="-203.8" font-family="mono" font-size="14.00" fill="#c83500">@type</text>
<text text-anchor="start" x="551" y="-203.8" font-family="Times,serif" font-size="14.00" fill="#000000"> : </text>
<text text-anchor="start" x="563" y="-203.8" font-family="Times,serif" font-style="italic" font-size="14.00" fill="#000000">array of </text>
<text text-anchor="start" x="612" y="-203.8" font-family="mono" font-size="14.00" fill="#c83500">string</text>
<polygon fill="#ddeeff" stroke="transparent" points="506,-175 506,-196 729,-196 729,-175 506,-175"/>
<polygon fill="none" stroke="#8ccbf2" points="506,-175 506,-196 729,-196 729,-175 506,-175"/>
<text text-anchor="start" x="509" y="-182.8" font-family="mono" font-size="14.00" fill="#c83500">readOnly</text>
<text text-anchor="start" x="576" y="-182.8" font-family="Times,serif" font-size="14.00" fill="#000000"> : </text>
<text text-anchor="start" x="588" y="-182.8" font-family="mono" font-size="14.00" fill="#c83500">boolean</text>
<text text-anchor="start" x="646" y="-182.8" font-family="Times,serif" font-size="14.00" fill="#000000"> </text>
<text text-anchor="start" x="650" y="-182.8" font-family="Times,serif" font-style="italic" font-size="14.00" fill="#000000">(mandatory)</text>
<polygon fill="#ddeeff" stroke="transparent" points="506,-154 506,-175 729,-175 729,-154 506,-154"/>
<polygon fill="none" stroke="#8ccbf2" points="506,-154 506,-175 729,-175 729,-154 506,-154"/>
<text text-anchor="start" x="509" y="-161.8" font-family="mono" font-size="14.00" fill="#c83500">title</text>
<text text-anchor="start" x="551" y="-161.8" font-family="Times,serif" font-size="14.00" fill="#000000"> : </text>
<text text-anchor="start" x="563" y="-161.8" font-family="mono" font-size="14.00" fill="#c83500">string</text>
<polygon fill="#ddeeff" stroke="transparent" points="506,-133 506,-154 729,-154 729,-133 506,-133"/>
<polygon fill="none" stroke="#8ccbf2" points="506,-133 506,-154 729,-154 729,-133 506,-133"/>
<text text-anchor="start" x="509" y="-140.8" font-family="mono" font-size="14.00" fill="#c83500">type</text>
<text text-anchor="start" x="543" y="-140.8" font-family="Times,serif" font-size="14.00" fill="#000000"> : </text>
<text text-anchor="start" x="555" y="-140.8" font-family="mono" font-size="14.00" fill="#c83500">string</text>
<polygon fill="#ddeeff" stroke="transparent" points="506,-112 506,-133 729,-133 729,-112 506,-112"/>
<polygon fill="none" stroke="#8ccbf2" points="506,-112 506,-133 729,-133 729,-112 506,-112"/>
<text text-anchor="start" x="509" y="-119.8" font-family="mono" font-size="14.00" fill="#c83500">writeOnly</text>
<text text-anchor="start" x="584" y="-119.8" font-family="Times,serif" font-size="14.00" fill="#000000"> : </text>
<text text-anchor="start" x="596" y="-119.8" font-family="mono" font-size="14.00" fill="#c83500">boolean</text>
<text text-anchor="start" x="654" y="-119.8" font-family="Times,serif" font-size="14.00" fill="#000000"> </text>
<text text-anchor="start" x="658" y="-119.8" font-family="Times,serif" font-style="italic" font-size="14.00" fill="#000000">(mandatory)</text>
<polygon fill="#ddeeff" stroke="transparent" points="506,-91 506,-112 729,-112 729,-91 506,-91"/>
<polygon fill="none" stroke="#8ccbf2" points="506,-91 506,-112 729,-112 729,-91 506,-91"/>
<text text-anchor="start" x="509" y="-98.8" font-family="mono" font-size="14.00" fill="#c83500">description</text>
<text text-anchor="start" x="600" y="-98.8" font-family="Times,serif" font-size="14.00" fill="#000000"> : </text>
<text text-anchor="start" x="612" y="-98.8" font-family="mono" font-size="14.00" fill="#c83500">string</text>
</g>
<!-- IntegerSchema&#45;&gt;DataSchema -->
<g id="edge8" class="edge">
<title>IntegerSchema&#45;&gt;DataSchema</title>
<path fill="none" stroke="#000000" d="M150.4077,-317.1898C153.3,-316.091 156.1714,-315.0237 159,-314 268.4237,-274.3972 395.1888,-236.5264 487.576,-210.3442"/>
<polygon fill="#ffffff" stroke="#000000" points="488.5821,-213.697 497.2531,-207.6089 486.6781,-206.9609 488.5821,-213.697"/>
</g>
<!-- StringSchema -->
<g id="node2" class="node">
<title>StringSchema</title>
<polygon fill="#8ccbf2" stroke="transparent" points="176,-338.5 176,-359.5 282,-359.5 282,-338.5 176,-338.5"/>
<polygon fill="none" stroke="#8ccbf2" points="176,-338.5 176,-359.5 282,-359.5 282,-338.5 176,-338.5"/>
<text text-anchor="start" x="179" y="-346.3" font-family="mono" font-weight="bold" font-size="14.00" fill="#c83500">StringSchema</text>
</g>
<!-- StringSchema&#45;&gt;DataSchema -->
<g id="edge13" class="edge">
<title>StringSchema&#45;&gt;DataSchema</title>
<path fill="none" stroke="#000000" d="M263.6999,-331.4083C274.9001,-325.7017 287.4152,-319.464 299,-314 360.6851,-284.9061 429.9924,-254.3649 488.1213,-229.3445"/>
<polygon fill="#ffffff" stroke="#000000" points="489.5464,-232.5416 497.3518,-225.3773 486.7823,-226.1104 489.5464,-232.5416"/>
</g>
<!-- BooleanSchema -->
<g id="node3" class="node">
<title>BooleanSchema</title>
<polygon fill="#8ccbf2" stroke="transparent" points="316,-338.5 316,-359.5 430,-359.5 430,-338.5 316,-338.5"/>
<polygon fill="none" stroke="#8ccbf2" points="316,-338.5 316,-359.5 430,-359.5 430,-338.5 316,-338.5"/>
<text text-anchor="start" x="319" y="-346.3" font-family="mono" font-weight="bold" font-size="14.00" fill="#c83500">BooleanSchema</text>
</g>
<!-- BooleanSchema&#45;&gt;DataSchema -->
<g id="edge10" class="edge">
<title>BooleanSchema&#45;&gt;DataSchema</title>
<path fill="none" stroke="#000000" d="M398.1933,-331.4827C420.3435,-315.6416 454.3761,-291.3028 489.051,-266.5045"/>
<polygon fill="#ffffff" stroke="#000000" points="491.2991,-269.1997 497.3971,-260.5357 487.2271,-263.5059 491.2991,-269.1997"/>
</g>
<!-- NumberSchema -->
<g id="node4" class="node">
<title>NumberSchema</title>
<polygon fill="#8ccbf2" stroke="transparent" points="464,-359.5 464,-380.5 590,-380.5 590,-359.5 464,-359.5"/>
<polygon fill="none" stroke="#8ccbf2" points="464,-359.5 464,-380.5 590,-380.5 590,-359.5 464,-359.5"/>
<text text-anchor="start" x="477" y="-367.3" font-family="mono" font-weight="bold" font-size="14.00" fill="#c83500">NumberSchema</text>
<polygon fill="#ddeeff" stroke="transparent" points="464,-338.5 464,-359.5 590,-359.5 590,-338.5 464,-338.5"/>
<polygon fill="none" stroke="#8ccbf2" points="464,-338.5 464,-359.5 590,-359.5 590,-338.5 464,-338.5"/>
<text text-anchor="start" x="467" y="-346.3" font-family="mono" font-size="14.00" fill="#c83500">maximum</text>
<text text-anchor="start" x="525" y="-346.3" font-family="Times,serif" font-size="14.00" fill="#000000"> : </text>
<text text-anchor="start" x="537" y="-346.3" font-family="mono" font-size="14.00" fill="#c83500">double</text>
<polygon fill="#ddeeff" stroke="transparent" points="464,-317.5 464,-338.5 590,-338.5 590,-317.5 464,-317.5"/>
<polygon fill="none" stroke="#8ccbf2" points="464,-317.5 464,-338.5 590,-338.5 590,-317.5 464,-317.5"/>
<text text-anchor="start" x="467" y="-325.3" font-family="mono" font-size="14.00" fill="#c83500">minimum</text>
<text text-anchor="start" x="525" y="-325.3" font-family="Times,serif" font-size="14.00" fill="#000000"> : </text>
<text text-anchor="start" x="537" y="-325.3" font-family="mono" font-size="14.00" fill="#c83500">double</text>
</g>
<!-- NumberSchema&#45;&gt;DataSchema -->
<g id="edge7" class="edge">
<title>NumberSchema&#45;&gt;DataSchema</title>
<path fill="none" stroke="#000000" d="M545.43,-313.7662C551.7331,-301.5454 559.1196,-287.2237 566.7097,-272.5072"/>
<polygon fill="#ffffff" stroke="#000000" points="569.9809,-273.8003 571.4541,-263.3084 563.7596,-270.5916 569.9809,-273.8003"/>
</g>
<!-- ObjectSchema -->
<g id="node5" class="node">
<title>ObjectSchema</title>
<polygon fill="#8ccbf2" stroke="transparent" points="625,-349.5 625,-370.5 806,-370.5 806,-349.5 625,-349.5"/>
<polygon fill="none" stroke="#8ccbf2" points="625,-349.5 625,-370.5 806,-370.5 806,-349.5 625,-349.5"/>
<text text-anchor="start" x="665.5" y="-357.3" font-family="mono" font-weight="bold" font-size="14.00" fill="#c83500">ObjectSchema</text>
<polygon fill="#ddeeff" stroke="transparent" points="625,-328.5 625,-349.5 806,-349.5 806,-328.5 625,-328.5"/>
<polygon fill="none" stroke="#8ccbf2" points="625,-328.5 625,-349.5 806,-349.5 806,-328.5 625,-328.5"/>
<text text-anchor="start" x="628" y="-336.3" font-family="mono" font-size="14.00" fill="#c83500">required</text>
<text text-anchor="start" x="695" y="-336.3" font-family="Times,serif" font-size="14.00" fill="#000000"> : array of </text>
<text text-anchor="start" x="753" y="-336.3" font-family="mono" font-size="14.00" fill="#c83500">string</text>
</g>
<!-- ObjectSchema&#45;&gt;DataSchema -->
<g id="edge1" class="edge">
<title>ObjectSchema&#45;&gt;DataSchema</title>
<path fill="none" stroke="#000000" d="M647.1981,-324.4389C635.5657,-317.0674 624.9912,-307.7291 618,-296 613.7942,-288.944 610.8499,-281.2206 608.8798,-273.1983"/>
<polygon fill="#000000" stroke="#000000" points="612.2961,-272.431 606.9406,-263.2894 605.4265,-273.7754 612.2961,-272.431"/>
<text text-anchor="start" x="618" y="-284.8" font-family="mono" font-size="14.00" fill="#c83500">properties</text>
<text text-anchor="middle" x="595.9406" y="-267.0894" font-family="Times,serif" font-size="14.00" fill="#000000">0..1</text>
</g>
<!-- ObjectSchema&#45;&gt;DataSchema -->
<g id="edge12" class="edge">
<title>ObjectSchema&#45;&gt;DataSchema</title>
<path fill="none" stroke="#000000" d="M712.6941,-324.2033C710.7815,-310.876 707.3033,-294.5341 701,-281 699.6121,-278.0201 698.1249,-275.049 696.5532,-272.0949"/>
<polygon fill="#ffffff" stroke="#000000" points="699.5537,-270.29 691.5999,-263.2908 693.453,-273.7224 699.5537,-270.29"/>
</g>
<!-- ArraySchema -->
<g id="node6" class="node">
<title>ArraySchema</title>
<polygon fill="#8ccbf2" stroke="transparent" points="840,-359.5 840,-380.5 1016,-380.5 1016,-359.5 840,-359.5"/>
<polygon fill="none" stroke="#8ccbf2" points="840,-359.5 840,-380.5 1016,-380.5 1016,-359.5 840,-359.5"/>
<text text-anchor="start" x="882.5" y="-367.3" font-family="mono" font-weight="bold" font-size="14.00" fill="#c83500">ArraySchema</text>
<polygon fill="#ddeeff" stroke="transparent" points="840,-338.5 840,-359.5 1016,-359.5 1016,-338.5 840,-338.5"/>
<polygon fill="none" stroke="#8ccbf2" points="840,-338.5 840,-359.5 1016,-359.5 1016,-338.5 840,-338.5"/>
<text text-anchor="start" x="843" y="-346.3" font-family="mono" font-size="14.00" fill="#c83500">maxItems</text>
<text text-anchor="start" x="910" y="-346.3" font-family="Times,serif" font-size="14.00" fill="#000000"> : </text>
<text text-anchor="start" x="922" y="-346.3" font-family="mono" font-size="14.00" fill="#c83500">unsignedInt</text>
<polygon fill="#ddeeff" stroke="transparent" points="840,-317.5 840,-338.5 1016,-338.5 1016,-317.5 840,-317.5"/>
<polygon fill="none" stroke="#8ccbf2" points="840,-317.5 840,-338.5 1016,-338.5 1016,-317.5 840,-317.5"/>
<text text-anchor="start" x="843" y="-325.3" font-family="mono" font-size="14.00" fill="#c83500">minItems</text>
<text text-anchor="start" x="910" y="-325.3" font-family="Times,serif" font-size="14.00" fill="#000000"> : </text>
<text text-anchor="start" x="922" y="-325.3" font-family="mono" font-size="14.00" fill="#c83500">unsignedInt</text>
</g>
<!-- ArraySchema&#45;&gt;DataSchema -->
<g id="edge2" class="edge">
<title>ArraySchema&#45;&gt;DataSchema</title>
<path fill="none" stroke="#000000" d="M846.4592,-313.8534C834.4447,-308.1297 822.3118,-302.0813 811,-296 789.3942,-284.3847 766.9149,-271.3263 745.2427,-258.1984"/>
<polygon fill="#000000" stroke="#000000" points="747.0199,-255.1828 736.6587,-252.97 743.3785,-261.1611 747.0199,-255.1828"/>
<text text-anchor="start" x="811" y="-284.8" font-family="mono" font-size="14.00" fill="#c83500">items</text>
<text text-anchor="middle" x="747.6587" y="-256.77" font-family="Times,serif" font-size="14.00" fill="#000000">0..1</text>
</g>
<!-- ArraySchema&#45;&gt;DataSchema -->
<g id="edge9" class="edge">
<title>ArraySchema&#45;&gt;DataSchema</title>
<path fill="none" stroke="#000000" d="M893.6891,-313.9182C881.5276,-302.4992 867.2973,-290.3904 853,-281 820.0885,-259.3837 782.0424,-240.1418 746.2377,-224.1828"/>
<polygon fill="#ffffff" stroke="#000000" points="747.2607,-220.8091 736.698,-219.9838 744.4406,-227.2159 747.2607,-220.8091"/>
</g>
<!-- NullSchema -->
<g id="node7" class="node">
<title>NullSchema</title>
<polygon fill="#8ccbf2" stroke="transparent" points="1051,-338.5 1051,-359.5 1140,-359.5 1140,-338.5 1051,-338.5"/>
<polygon fill="none" stroke="#8ccbf2" points="1051,-338.5 1051,-359.5 1140,-359.5 1140,-338.5 1051,-338.5"/>
<text text-anchor="start" x="1054" y="-346.3" font-family="mono" font-weight="bold" font-size="14.00" fill="#c83500">NullSchema</text>
</g>
<!-- NullSchema&#45;&gt;DataSchema -->
<g id="edge11" class="edge">
<title>NullSchema&#45;&gt;DataSchema</title>
<path fill="none" stroke="#000000" d="M1066.2893,-331.4864C1056.017,-325.4676 1044.206,-319.021 1033,-314 939.7527,-272.2192 829.963,-236.0482 746.5928,-211.0854"/>
<polygon fill="#ffffff" stroke="#000000" points="747.4,-207.6739 736.8169,-208.1733 745.4015,-214.3826 747.4,-207.6739"/>
</g>
<!-- DataSchema&#45;&gt;DataSchema -->
<g id="edge3" class="edge">
<title>DataSchema&#45;&gt;DataSchema</title>
<path fill="none" stroke="#000000" d="M736.7499,-191.6882C747.6463,-188.219 754.5,-182.6563 754.5,-175 754.5,-169.856 751.4061,-165.657 746.0709,-162.403"/>
<polygon fill="#000000" stroke="#000000" points="747.3134,-159.1261 736.7499,-158.3118 744.5,-165.5358 747.3134,-159.1261"/>
<text text-anchor="start" x="754.5" y="-171.3" font-family="mono" font-size="14.00" fill="#c83500">oneOf</text>
<text text-anchor="middle" x="747.7499" y="-147.1118" font-family="Times,serif" font-size="14.00" fill="#000000">0..*</text>
</g>
<!-- string -->
<g id="node9" class="node">
<title>string</title>
<polygon fill="#f2f2f2" stroke="transparent" points="532,-7 532,-28 588,-28 588,-7 532,-7"/>
<polygon fill="none" stroke="#8c8c8c" points="532,-7 532,-28 588,-28 588,-7 532,-7"/>
<text text-anchor="start" x="535" y="-14.8" font-family="mono" font-weight="bold" font-size="14.00" fill="#000000">string</text>
</g>
<!-- DataSchema&#45;&gt;string -->
<g id="edge4" class="edge">
<title>DataSchema&#45;&gt;string</title>
<path fill="none" stroke="#000000" d="M566.6662,-86.859C564.4612,-80.9269 562.5358,-74.9447 561,-69 559.133,-61.7734 558.387,-53.7774 558.2261,-46.3018"/>
<polygon fill="#000000" stroke="#000000" points="561.7268,-46.251 558.3326,-36.2146 554.7272,-46.1771 561.7268,-46.251"/>
<text text-anchor="start" x="561" y="-57.8" font-family="mono" font-size="14.00" fill="#c83500">unit</text>
<text text-anchor="middle" x="547.3326" y="-40.0146" font-family="Times,serif" font-size="14.00" fill="#000000">0..1</text>
</g>
<!-- MultiLanguage -->
<g id="node10" class="node">
<title>MultiLanguage</title>
<polygon fill="#f2f2f2" stroke="transparent" points="627,-7 627,-28 741,-28 741,-7 627,-7"/>
<polygon fill="none" stroke="#8c8c8c" points="627,-7 627,-28 741,-28 741,-7 627,-7"/>
<text text-anchor="start" x="630" y="-14.8" font-family="mono" font-weight="bold" font-size="14.00" fill="#000000">MultiLanguage</text>
</g>
<!-- DataSchema&#45;&gt;MultiLanguage -->
<g id="edge5" class="edge">
<title>DataSchema&#45;&gt;MultiLanguage</title>
<path fill="none" stroke="#000000" d="M606.8509,-86.9997C608.5655,-75.3529 612.007,-64.0011 618,-54 620.6574,-49.5654 624.0724,-45.6413 627.9471,-42.1758"/>
<polygon fill="#000000" stroke="#000000" points="630.098,-44.937 635.8864,-36.0632 625.8276,-39.3904 630.098,-44.937"/>
<text text-anchor="start" x="618" y="-57.8" font-family="mono" font-size="14.00" fill="#c83500">titles</text>
<text text-anchor="middle" x="624.8864" y="-39.8632" font-family="Times,serif" font-size="14.00" fill="#000000">0..1</text>
</g>
<!-- DataSchema&#45;&gt;MultiLanguage -->
<g id="edge6" class="edge">
<title>DataSchema&#45;&gt;MultiLanguage</title>
<path fill="none" stroke="#000000" d="M660.5473,-86.9317C663.1635,-80.9044 665.674,-74.888 668,-69 670.9065,-61.6424 673.6516,-53.5294 676.0204,-45.9802"/>
<polygon fill="#000000" stroke="#000000" points="679.446,-46.7442 678.9972,-36.1589 672.7469,-44.7137 679.446,-46.7442"/>
<text text-anchor="start" x="674" y="-57.8" font-family="mono" font-size="14.00" fill="#c83500">descriptions</text>
<text text-anchor="middle" x="667.9972" y="-39.9589" font-family="Times,serif" font-size="14.00" fill="#000000">0..1</text>
</g>
</g>
</svg>
