<?xml version="1.0" encoding="UTF-8" standalone="no"?>
<!DOCTYPE svg PUBLIC "-//W3C//DTD SVG 1.1//EN"
 "http://www.w3.org/Graphics/SVG/1.1/DTD/svg11.dtd">
<!-- Generated by graphviz version 3.0.0 (0)
 -->
<!-- Pages: 1 -->
<svg width="1426pt" height="456pt"
 viewBox="0.00 0.00 1425.50 456.00" xmlns="http://www.w3.org/2000/svg" xmlns:xlink="http://www.w3.org/1999/xlink">
<g id="graph0" class="graph" transform="scale(1 1) rotate(0) translate(4 452)">
<polygon fill="white" stroke="transparent" points="-4,4 -4,-452 1421.5,-452 1421.5,4 -4,4"/>
<!-- ArraySchema -->
<g id="node1" class="node">
<title>ArraySchema</title>
<polygon fill="#8ccbf2" stroke="transparent" points="8,-391 8,-412 186,-412 186,-391 8,-391"/>
<polygon fill="none" stroke="#8ccbf2" points="8,-391 8,-412 186,-412 186,-391 8,-391"/>
<text text-anchor="start" x="51.5" y="-398.8" font-family="mono" font-weight="bold" font-size="14.00" fill="#c83500">ArraySchema</text>
<polygon fill="#ddeeff" stroke="transparent" points="8,-370 8,-391 186,-391 186,-370 8,-370"/>
<polygon fill="none" stroke="#8ccbf2" points="8,-370 8,-391 186,-391 186,-370 8,-370"/>
<text text-anchor="start" x="11" y="-377.8" font-family="mono" font-size="14.00" fill="#c83500">minItems</text>
<text text-anchor="start" x="78" y="-377.8" font-family="Times,serif" font-size="14.00"> : </text>
<text text-anchor="start" x="92" y="-377.8" font-family="mono" font-size="14.00" fill="#c83500">unsignedInt</text>
<polygon fill="#ddeeff" stroke="transparent" points="8,-349 8,-370 186,-370 186,-349 8,-349"/>
<polygon fill="none" stroke="#8ccbf2" points="8,-349 8,-370 186,-370 186,-349 8,-349"/>
<text text-anchor="start" x="11" y="-356.8" font-family="mono" font-size="14.00" fill="#c83500">maxItems</text>
<text text-anchor="start" x="78" y="-356.8" font-family="Times,serif" font-size="14.00"> : </text>
<text text-anchor="start" x="92" y="-356.8" font-family="mono" font-size="14.00" fill="#c83500">unsignedInt</text>
</g>
<!-- DataSchema -->
<g id="node3" class="node">
<title>DataSchema</title>
<polygon fill="#8ccbf2" stroke="transparent" points="566,-238 566,-259 751,-259 751,-238 566,-238"/>
<polygon fill="none" stroke="#8ccbf2" points="566,-238 566,-259 751,-259 751,-238 566,-238"/>
<text text-anchor="start" x="617" y="-245.8" font-family="mono" font-weight="bold" font-size="14.00" fill="#c83500">DataSchema</text>
<polygon fill="#ddeeff" stroke="transparent" points="566,-217 566,-238 751,-238 751,-217 566,-217"/>
<polygon fill="none" stroke="#8ccbf2" points="566,-217 566,-238 751,-238 751,-217 566,-217"/>
<text text-anchor="start" x="569" y="-224.8" font-family="mono" font-size="14.00" fill="#c83500">@type</text>
<text text-anchor="start" x="611" y="-224.8" font-family="Times,serif" font-size="14.00"> : </text>
<text text-anchor="start" x="625" y="-224.8" font-family="Times,serif" font-style="italic" font-size="14.00">(Array of) </text>
<text text-anchor="start" x="698" y="-224.8" font-family="mono" font-size="14.00" fill="#c83500">string</text>
<polygon fill="#ddeeff" stroke="transparent" points="566,-196 566,-217 751,-217 751,-196 566,-196"/>
<polygon fill="none" stroke="#8ccbf2" points="566,-196 566,-217 751,-217 751,-196 566,-196"/>
<text text-anchor="start" x="569" y="-203.8" font-family="mono" font-size="14.00" fill="#c83500">title</text>
<text text-anchor="start" x="611" y="-203.8" font-family="Times,serif" font-size="14.00"> : </text>
<text text-anchor="start" x="625" y="-203.8" font-family="mono" font-size="14.00" fill="#c83500">string</text>
<polygon fill="#ddeeff" stroke="transparent" points="566,-175 566,-196 751,-196 751,-175 566,-175"/>
<polygon fill="none" stroke="#8ccbf2" points="566,-175 566,-196 751,-196 751,-175 566,-175"/>
<text text-anchor="start" x="569" y="-182.8" font-family="mono" font-size="14.00" fill="#c83500">unit</text>
<text text-anchor="start" x="603" y="-182.8" font-family="Times,serif" font-size="14.00"> : </text>
<text text-anchor="start" x="617" y="-182.8" font-family="mono" font-size="14.00" fill="#c83500">string</text>
<polygon fill="#ddeeff" stroke="transparent" points="566,-154 566,-175 751,-175 751,-154 566,-154"/>
<polygon fill="none" stroke="#8ccbf2" points="566,-154 566,-175 751,-175 751,-154 566,-154"/>
<text text-anchor="start" x="569" y="-161.8" font-family="mono" font-size="14.00" fill="#c83500">readOnly</text>
<text text-anchor="start" x="636" y="-161.8" font-family="Times,serif" font-size="14.00"> : </text>
<text text-anchor="start" x="650" y="-161.8" font-family="mono" font-size="14.00" fill="#c83500">boolean</text>
<polygon fill="#ddeeff" stroke="transparent" points="566,-133 566,-154 751,-154 751,-133 566,-133"/>
<polygon fill="none" stroke="#8ccbf2" points="566,-133 566,-154 751,-154 751,-133 566,-133"/>
<text text-anchor="start" x="569" y="-140.8" font-family="mono" font-size="14.00" fill="#c83500">writeOnly</text>
<text text-anchor="start" x="644" y="-140.8" font-family="Times,serif" font-size="14.00"> : </text>
<text text-anchor="start" x="658" y="-140.8" font-family="mono" font-size="14.00" fill="#c83500">boolean</text>
<polygon fill="#ddeeff" stroke="transparent" points="566,-112 566,-133 751,-133 751,-112 566,-112"/>
<polygon fill="none" stroke="#8ccbf2" points="566,-112 566,-133 751,-133 751,-112 566,-112"/>
<text text-anchor="start" x="569" y="-119.8" font-family="mono" font-size="14.00" fill="#c83500">format</text>
<text text-anchor="start" x="619" y="-119.8" font-family="Times,serif" font-size="14.00"> : </text>
<text text-anchor="start" x="633" y="-119.8" font-family="mono" font-size="14.00" fill="#c83500">string</text>
<polygon fill="#ddeeff" stroke="transparent" points="566,-91 566,-112 751,-112 751,-91 566,-91"/>
<polygon fill="none" stroke="#8ccbf2" points="566,-91 566,-112 751,-112 751,-91 566,-91"/>
<text text-anchor="start" x="569" y="-98.8" font-family="mono" font-size="14.00" fill="#c83500">description</text>
<text text-anchor="start" x="660" y="-98.8" font-family="Times,serif" font-size="14.00"> : </text>
<text text-anchor="start" x="674" y="-98.8" font-family="mono" font-size="14.00" fill="#c83500">string</text>
</g>
<!-- ArraySchema&#45;&gt;DataSchema -->
<g id="edge4" class="edge">
<title>ArraySchema&#45;&gt;DataSchema</title>
<path fill="none" stroke="black" d="M114.98,-345.05C127.94,-323.33 147.46,-296.65 172,-281 286.11,-208.24 442.73,-185.22 547,-178.3"/>
<polygon fill="black" stroke="black" points="547.47,-181.78 557.24,-177.66 547.04,-174.79 547.47,-181.78"/>
<text text-anchor="start" x="172" y="-284.8" font-family="mono" font-size="14.00" fill="#c83500">items</text>
<text text-anchor="middle" x="544.74" y="-181.46" font-family="Times,serif" font-size="14.00">0..*</text>
</g>
<!-- ArraySchema&#45;&gt;DataSchema -->
<g id="edge6" class="edge">
<title>ArraySchema&#45;&gt;DataSchema</title>
<path fill="none" stroke="black" d="M146.45,-345.47C163.79,-334.38 183.75,-322.73 203,-314 316.09,-262.72 453.38,-224.06 547.38,-200.89"/>
<polygon fill="white" stroke="black" points="548.31,-204.26 557.19,-198.49 546.65,-197.47 548.31,-204.26"/>
</g>
<!-- BooleanSchema -->
<g id="node2" class="node">
<title>BooleanSchema</title>
<polygon fill="#8ccbf2" stroke="transparent" points="220,-370 220,-391 334,-391 334,-370 220,-370"/>
<polygon fill="none" stroke="#8ccbf2" points="220,-370 220,-391 334,-391 334,-370 220,-370"/>
<text text-anchor="start" x="223" y="-377.8" font-family="mono" font-weight="bold" font-size="14.00" fill="#c83500">BooleanSchema</text>
</g>
<!-- BooleanSchema&#45;&gt;DataSchema -->
<g id="edge7" class="edge">
<title>BooleanSchema&#45;&gt;DataSchema</title>
<path fill="none" stroke="black" d="M293.13,-362.94C307.36,-348.57 329.19,-328.14 351,-314 412.43,-274.16 487.27,-240.26 547.68,-216.03"/>
<polygon fill="white" stroke="black" points="549.24,-219.17 557.24,-212.22 546.66,-212.67 549.24,-219.17"/>
</g>
<!-- DataSchema&#45;&gt;DataSchema -->
<g id="edge1" class="edge">
<title>DataSchema&#45;&gt;DataSchema</title>
<path fill="none" stroke="black" d="M758.71,-192.53C769.54,-189.16 776.5,-183.31 776.5,-175 776.5,-169.42 773.36,-164.94 768.01,-161.59"/>
<polygon fill="black" stroke="black" points="769.27,-158.32 758.71,-157.47 766.44,-164.72 769.27,-158.32"/>
<text text-anchor="start" x="776.5" y="-171.3" font-family="mono" font-size="14.00" fill="#c83500">oneOf</text>
<text text-anchor="middle" x="771.21" y="-146.27" font-family="Times,serif" font-size="14.00">0..*</text>
</g>
<!-- MultiLanguage -->
<g id="node9" class="node">
<title>MultiLanguage</title>
<polygon fill="#f2f2f2" stroke="transparent" points="601,-7 601,-28 715,-28 715,-7 601,-7"/>
<polygon fill="none" stroke="#8c8c8c" points="601,-7 601,-28 715,-28 715,-7 601,-7"/>
<text text-anchor="start" x="604" y="-14.8" font-family="mono" font-weight="bold" font-size="14.00">MultiLanguage</text>
</g>
<!-- DataSchema&#45;&gt;MultiLanguage -->
<g id="edge2" class="edge">
<title>DataSchema&#45;&gt;MultiLanguage</title>
<path fill="none" stroke="black" d="M618.52,-86.7C617.56,-75.57 618.68,-64.43 623,-54 624.47,-50.46 626.49,-47.09 628.82,-43.93"/>
<polygon fill="black" stroke="black" points="631.67,-45.99 635.57,-36.14 626.38,-41.41 631.67,-45.99"/>
<text text-anchor="start" x="623" y="-57.8" font-family="mono" font-size="14.00" fill="#c83500">titles</text>
<text text-anchor="middle" x="623.07" y="-39.94" font-family="Times,serif" font-size="14.00">0..*</text>
</g>
<!-- DataSchema&#45;&gt;MultiLanguage -->
<g id="edge3" class="edge">
<title>DataSchema&#45;&gt;MultiLanguage</title>
<path fill="none" stroke="black" d="M675.59,-86.89C675.87,-75.78 675.17,-64.59 673,-54 672.45,-51.3 671.67,-48.55 670.77,-45.84"/>
<polygon fill="black" stroke="black" points="673.97,-44.4 667.08,-36.35 667.44,-46.94 673.97,-44.4"/>
<text text-anchor="start" x="675" y="-57.8" font-family="mono" font-size="14.00" fill="#c83500">descriptions</text>
<text text-anchor="middle" x="654.58" y="-40.15" font-family="Times,serif" font-size="14.00">0..*</text>
</g>
<!-- IntegerSchema -->
<g id="node4" class="node">
<title>IntegerSchema</title>
<polygon fill="#8ccbf2" stroke="transparent" points="369,-423 369,-444 580,-444 580,-423 369,-423"/>
<polygon fill="none" stroke="#8ccbf2" points="369,-423 369,-444 580,-444 580,-423 369,-423"/>
<text text-anchor="start" x="420.5" y="-430.8" font-family="mono" font-weight="bold" font-size="14.00" fill="#c83500">IntegerSchema</text>
<polygon fill="#ddeeff" stroke="transparent" points="369,-402 369,-423 580,-423 580,-402 369,-402"/>
<polygon fill="none" stroke="#8ccbf2" points="369,-402 369,-423 580,-423 580,-402 369,-402"/>
<text text-anchor="start" x="372" y="-409.8" font-family="mono" font-size="14.00" fill="#c83500">minimum</text>
<text text-anchor="start" x="430" y="-409.8" font-family="Times,serif" font-size="14.00"> : </text>
<text text-anchor="start" x="444" y="-409.8" font-family="mono" font-size="14.00" fill="#c83500">integer</text>
<polygon fill="#ddeeff" stroke="transparent" points="369,-381 369,-402 580,-402 580,-381 369,-381"/>
<polygon fill="none" stroke="#8ccbf2" points="369,-381 369,-402 580,-402 580,-381 369,-381"/>
<text text-anchor="start" x="372" y="-388.8" font-family="mono" font-size="14.00" fill="#c83500">exclusiveMinimum</text>
<text text-anchor="start" x="505" y="-388.8" font-family="Times,serif" font-size="14.00"> : </text>
<text text-anchor="start" x="519" y="-388.8" font-family="mono" font-size="14.00" fill="#c83500">integer</text>
<polygon fill="#ddeeff" stroke="transparent" points="369,-360 369,-381 580,-381 580,-360 369,-360"/>
<polygon fill="none" stroke="#8ccbf2" points="369,-360 369,-381 580,-381 580,-360 369,-360"/>
<text text-anchor="start" x="372" y="-367.8" font-family="mono" font-size="14.00" fill="#c83500">maximum</text>
<text text-anchor="start" x="430" y="-367.8" font-family="Times,serif" font-size="14.00"> : </text>
<text text-anchor="start" x="444" y="-367.8" font-family="mono" font-size="14.00" fill="#c83500">integer</text>
<polygon fill="#ddeeff" stroke="transparent" points="369,-339 369,-360 580,-360 580,-339 369,-339"/>
<polygon fill="none" stroke="#8ccbf2" points="369,-339 369,-360 580,-360 580,-339 369,-339"/>
<text text-anchor="start" x="372" y="-346.8" font-family="mono" font-size="14.00" fill="#c83500">exclusiveMaximum</text>
<text text-anchor="start" x="505" y="-346.8" font-family="Times,serif" font-size="14.00"> : </text>
<text text-anchor="start" x="519" y="-346.8" font-family="mono" font-size="14.00" fill="#c83500">integer</text>
<polygon fill="#ddeeff" stroke="transparent" points="369,-318 369,-339 580,-339 580,-318 369,-318"/>
<polygon fill="none" stroke="#8ccbf2" points="369,-318 369,-339 580,-339 580,-318 369,-318"/>
<text text-anchor="start" x="372" y="-325.8" font-family="mono" font-size="14.00" fill="#c83500">multipleOf</text>
<text text-anchor="start" x="455" y="-325.8" font-family="Times,serif" font-size="14.00"> : </text>
<text text-anchor="start" x="469" y="-325.8" font-family="mono" font-size="14.00" fill="#c83500">integer</text>
</g>
<!-- IntegerSchema&#45;&gt;DataSchema -->
<g id="edge8" class="edge">
<title>IntegerSchema&#45;&gt;DataSchema</title>
<path fill="none" stroke="black" d="M533.74,-313.77C546.16,-300 559.48,-285.23 572.62,-270.66"/>
<polygon fill="white" stroke="black" points="575.37,-272.84 579.47,-263.07 570.17,-268.15 575.37,-272.84"/>
</g>
<!-- NullSchema -->
<g id="node5" class="node">
<title>NullSchema</title>
<polygon fill="#8ccbf2" stroke="transparent" points="614,-370 614,-391 703,-391 703,-370 614,-370"/>
<polygon fill="none" stroke="#8ccbf2" points="614,-370 614,-391 703,-391 703,-370 614,-370"/>
<text text-anchor="start" x="617" y="-377.8" font-family="mono" font-weight="bold" font-size="14.00" fill="#c83500">NullSchema</text>
</g>
<!-- NullSchema&#45;&gt;DataSchema -->
<g id="edge9" class="edge">
<title>NullSchema&#45;&gt;DataSchema</title>
<path fill="none" stroke="black" d="M658,-362.96C658,-342.82 658,-307.7 658,-273.29"/>
<polygon fill="white" stroke="black" points="661.5,-273.14 658,-263.14 654.5,-273.14 661.5,-273.14"/>
</g>
<!-- NumberSchema -->
<g id="node6" class="node">
<title>NumberSchema</title>
<polygon fill="#8ccbf2" stroke="transparent" points="737,-423 737,-444 940,-444 940,-423 737,-423"/>
<polygon fill="none" stroke="#8ccbf2" points="737,-423 737,-444 940,-444 940,-423 737,-423"/>
<text text-anchor="start" x="788.5" y="-430.8" font-family="mono" font-weight="bold" font-size="14.00" fill="#c83500">NumberSchema</text>
<polygon fill="#ddeeff" stroke="transparent" points="737,-402 737,-423 940,-423 940,-402 737,-402"/>
<polygon fill="none" stroke="#8ccbf2" points="737,-402 737,-423 940,-423 940,-402 737,-402"/>
<text text-anchor="start" x="740" y="-409.8" font-family="mono" font-size="14.00" fill="#c83500">minimum</text>
<text text-anchor="start" x="798" y="-409.8" font-family="Times,serif" font-size="14.00"> : </text>
<text text-anchor="start" x="812" y="-409.8" font-family="mono" font-size="14.00" fill="#c83500">double</text>
<polygon fill="#ddeeff" stroke="transparent" points="737,-381 737,-402 940,-402 940,-381 737,-381"/>
<polygon fill="none" stroke="#8ccbf2" points="737,-381 737,-402 940,-402 940,-381 737,-381"/>
<text text-anchor="start" x="740" y="-388.8" font-family="mono" font-size="14.00" fill="#c83500">exclusiveMinimum</text>
<text text-anchor="start" x="873" y="-388.8" font-family="Times,serif" font-size="14.00"> : </text>
<text text-anchor="start" x="887" y="-388.8" font-family="mono" font-size="14.00" fill="#c83500">double</text>
<polygon fill="#ddeeff" stroke="transparent" points="737,-360 737,-381 940,-381 940,-360 737,-360"/>
<polygon fill="none" stroke="#8ccbf2" points="737,-360 737,-381 940,-381 940,-360 737,-360"/>
<text text-anchor="start" x="740" y="-367.8" font-family="mono" font-size="14.00" fill="#c83500">maximum</text>
<text text-anchor="start" x="798" y="-367.8" font-family="Times,serif" font-size="14.00"> : </text>
<text text-anchor="start" x="812" y="-367.8" font-family="mono" font-size="14.00" fill="#c83500">double</text>
<polygon fill="#ddeeff" stroke="transparent" points="737,-339 737,-360 940,-360 940,-339 737,-339"/>
<polygon fill="none" stroke="#8ccbf2" points="737,-339 737,-360 940,-360 940,-339 737,-339"/>
<text text-anchor="start" x="740" y="-346.8" font-family="mono" font-size="14.00" fill="#c83500">exclusiveMaximum</text>
<text text-anchor="start" x="873" y="-346.8" font-family="Times,serif" font-size="14.00"> : </text>
<text text-anchor="start" x="887" y="-346.8" font-family="mono" font-size="14.00" fill="#c83500">double</text>
<polygon fill="#ddeeff" stroke="transparent" points="737,-318 737,-339 940,-339 940,-318 737,-318"/>
<polygon fill="none" stroke="#8ccbf2" points="737,-318 737,-339 940,-339 940,-318 737,-318"/>
<text text-anchor="start" x="740" y="-325.8" font-family="mono" font-size="14.00" fill="#c83500">multipleOf</text>
<text text-anchor="start" x="823" y="-325.8" font-family="Times,serif" font-size="14.00"> : </text>
<text text-anchor="start" x="837" y="-325.8" font-family="mono" font-size="14.00" fill="#c83500">double</text>
</g>
<!-- NumberSchema&#45;&gt;DataSchema -->
<g id="edge10" class="edge">
<title>NumberSchema&#45;&gt;DataSchema</title>
<path fill="none" stroke="black" d="M779.56,-313.77C767.41,-300 754.38,-285.23 741.53,-270.66"/>
<polygon fill="white" stroke="black" points="744.07,-268.25 734.83,-263.07 738.82,-272.88 744.07,-268.25"/>
</g>
<!-- ObjectSchema -->
<g id="node7" class="node">
<title>ObjectSchema</title>
<polygon fill="#8ccbf2" stroke="transparent" points="974,-381 974,-402 1173,-402 1173,-381 974,-381"/>
<polygon fill="none" stroke="#8ccbf2" points="974,-381 974,-402 1173,-402 1173,-381 974,-381"/>
<text text-anchor="start" x="1023.5" y="-388.8" font-family="mono" font-weight="bold" font-size="14.00" fill="#c83500">ObjectSchema</text>
<polygon fill="#ddeeff" stroke="transparent" points="974,-360 974,-381 1173,-381 1173,-360 974,-360"/>
<polygon fill="none" stroke="#8ccbf2" points="974,-360 974,-381 1173,-381 1173,-360 974,-360"/>
<text text-anchor="start" x="977" y="-367.8" font-family="mono" font-size="14.00" fill="#c83500">required</text>
<text text-anchor="start" x="1044" y="-367.8" font-family="Times,serif" font-size="14.00"> : Array of </text>
<text text-anchor="start" x="1120" y="-367.8" font-family="mono" font-size="14.00" fill="#c83500">string</text>
</g>
<!-- ObjectSchema&#45;&gt;DataSchema -->
<g id="edge5" class="edge">
<title>ObjectSchema&#45;&gt;DataSchema</title>
<path fill="none" stroke="black" d="M1032.29,-355.97C1009.99,-343.09 981.74,-327.19 956,-314 894.6,-282.53 824.66,-249.97 767.97,-224.39"/>
<polygon fill="black" stroke="black" points="769.19,-221.1 758.63,-220.19 766.31,-227.49 769.19,-221.1"/>
<text text-anchor="start" x="917" y="-284.8" font-family="mono" font-size="14.00" fill="#c83500">properties</text>
<text text-anchor="middle" x="771.13" y="-223.99" font-family="Times,serif" font-size="14.00">0..*</text>
</g>
<!-- ObjectSchema&#45;&gt;DataSchema -->
<g id="edge11" class="edge">
<title>ObjectSchema&#45;&gt;DataSchema</title>
<path fill="none" stroke="black" d="M1061.96,-355.71C1050.53,-333.19 1030.61,-300.33 1004,-281 934.76,-230.69 841.14,-204.19 768.74,-190.4"/>
<polygon fill="white" stroke="black" points="769.14,-186.92 758.67,-188.54 767.86,-193.8 769.14,-186.92"/>
</g>
<!-- StringSchema -->
<g id="node8" class="node">
<title>StringSchema</title>
<polygon fill="#8ccbf2" stroke="transparent" points="1207,-423 1207,-444 1410,-444 1410,-423 1207,-423"/>
<polygon fill="none" stroke="#8ccbf2" points="1207,-423 1207,-444 1410,-444 1410,-423 1207,-423"/>
<text text-anchor="start" x="1258.5" y="-430.8" font-family="mono" font-weight="bold" font-size="14.00" fill="#c83500">StringSchema</text>
<polygon fill="#ddeeff" stroke="transparent" points="1207,-402 1207,-423 1410,-423 1410,-402 1207,-402"/>
<polygon fill="none" stroke="#8ccbf2" points="1207,-402 1207,-423 1410,-423 1410,-402 1207,-402"/>
<text text-anchor="start" x="1210" y="-409.8" font-family="mono" font-size="14.00" fill="#c83500">minLength</text>
<text text-anchor="start" x="1285" y="-409.8" font-family="Times,serif" font-size="14.00"> : </text>
<text text-anchor="start" x="1299" y="-409.8" font-family="mono" font-size="14.00" fill="#c83500">unsignedInt</text>
<polygon fill="#ddeeff" stroke="transparent" points="1207,-381 1207,-402 1410,-402 1410,-381 1207,-381"/>
<polygon fill="none" stroke="#8ccbf2" points="1207,-381 1207,-402 1410,-402 1410,-381 1207,-381"/>
<text text-anchor="start" x="1210" y="-388.8" font-family="mono" font-size="14.00" fill="#c83500">maxLength</text>
<text text-anchor="start" x="1285" y="-388.8" font-family="Times,serif" font-size="14.00"> : </text>
<text text-anchor="start" x="1299" y="-388.8" font-family="mono" font-size="14.00" fill="#c83500">unsignedInt</text>
<polygon fill="#ddeeff" stroke="transparent" points="1207,-360 1207,-381 1410,-381 1410,-360 1207,-360"/>
<polygon fill="none" stroke="#8ccbf2" points="1207,-360 1207,-381 1410,-381 1410,-360 1207,-360"/>
<text text-anchor="start" x="1210" y="-367.8" font-family="mono" font-size="14.00" fill="#c83500">pattern</text>
<text text-anchor="start" x="1268" y="-367.8" font-family="Times,serif" font-size="14.00"> : </text>
<text text-anchor="start" x="1282" y="-367.8" font-family="mono" font-size="14.00" fill="#c83500">string</text>
<polygon fill="#ddeeff" stroke="transparent" points="1207,-339 1207,-360 1410,-360 1410,-339 1207,-339"/>
<polygon fill="none" stroke="#8ccbf2" points="1207,-339 1207,-360 1410,-360 1410,-339 1207,-339"/>
<text text-anchor="start" x="1210" y="-346.8" font-family="mono" font-size="14.00" fill="#c83500">contentEncoding</text>
<text text-anchor="start" x="1334" y="-346.8" font-family="Times,serif" font-size="14.00"> : </text>
<text text-anchor="start" x="1348" y="-346.8" font-family="mono" font-size="14.00" fill="#c83500">string</text>
<polygon fill="#ddeeff" stroke="transparent" points="1207,-318 1207,-339 1410,-339 1410,-318 1207,-318"/>
<polygon fill="none" stroke="#8ccbf2" points="1207,-318 1207,-339 1410,-339 1410,-318 1207,-318"/>
<text text-anchor="start" x="1210" y="-325.8" font-family="mono" font-size="14.00" fill="#c83500">contentMediaType</text>
<text text-anchor="start" x="1343" y="-325.8" font-family="Times,serif" font-size="14.00"> : </text>
<text text-anchor="start" x="1357" y="-325.8" font-family="mono" font-size="14.00" fill="#c83500">string</text>
</g>
<!-- StringSchema&#45;&gt;DataSchema -->
<g id="edge12" class="edge">
<title>StringSchema&#45;&gt;DataSchema</title>
<path fill="none" stroke="black" d="M1198.21,-317.42C1195.46,-316.24 1192.72,-315.09 1190,-314 1049.4,-257.53 878.53,-218.02 769.05,-196.16"/>
<polygon fill="white" stroke="black" points="769.47,-192.67 758.98,-194.16 768.1,-199.54 769.47,-192.67"/>
</g>
</g>
</svg>
