<?xml version="1.0" encoding="UTF-8" standalone="no"?>
<!DOCTYPE svg PUBLIC "-//W3C//DTD SVG 1.1//EN"
 "http://www.w3.org/Graphics/SVG/1.1/DTD/svg11.dtd">
<!-- Generated by graphviz version 14.0.4 (20251115.1723)
 -->
<!-- Pages: 1 -->
<svg width="1231pt" height="474pt"
 viewBox="0.00 0.00 1231.00 474.00" xmlns="http://www.w3.org/2000/svg" xmlns:xlink="http://www.w3.org/1999/xlink">
<g id="graph0" class="graph" transform="scale(1 1) rotate(0) translate(4 470)">
<polygon fill="white" stroke="none" points="-4,4 -4,-470 1226.5,-470 1226.5,4 -4,4"/>
<!-- ArraySchema -->
<g id="node1" class="node">
<title>ArraySchema</title>
<polygon fill="#8ccbf2" stroke="none" points="8,-407.25 8,-428.25 155,-428.25 155,-407.25 8,-407.25"/>
<polygon fill="none" stroke="#8ccbf2" points="8,-407.25 8,-428.25 155,-428.25 155,-407.25 8,-407.25"/>
<text xml:space="preserve" text-anchor="start" x="37.62" y="-412.95" font-family="mono" font-weight="bold" font-size="14.00" fill="#c83500">ArraySchema</text>
<polygon fill="#ddeeff" stroke="none" points="8,-384.75 8,-407.25 155,-407.25 155,-384.75 8,-384.75"/>
<polygon fill="none" stroke="#8ccbf2" points="8,-384.75 8,-407.25 155,-407.25 155,-384.75 8,-384.75"/>
<text xml:space="preserve" text-anchor="start" x="11" y="-391.95" font-family="mono" font-size="14.00" fill="#c83500">minItems</text>
<text xml:space="preserve" text-anchor="start" x="67.25" y="-391.95" font-family="Times,serif" font-size="14.00"> : </text>
<text xml:space="preserve" text-anchor="start" x="78.5" y="-391.95" font-family="mono" font-size="14.00" fill="#c83500">unsignedInt</text>
<polygon fill="#ddeeff" stroke="none" points="8,-362.25 8,-384.75 155,-384.75 155,-362.25 8,-362.25"/>
<polygon fill="none" stroke="#8ccbf2" points="8,-362.25 8,-384.75 155,-384.75 155,-362.25 8,-362.25"/>
<text xml:space="preserve" text-anchor="start" x="11" y="-369.45" font-family="mono" font-size="14.00" fill="#c83500">maxItems</text>
<text xml:space="preserve" text-anchor="start" x="71" y="-369.45" font-family="Times,serif" font-size="14.00"> : </text>
<text xml:space="preserve" text-anchor="start" x="82.25" y="-369.45" font-family="mono" font-size="14.00" fill="#c83500">unsignedInt</text>
</g>
<!-- DataSchema -->
<g id="node3" class="node">
<title>DataSchema</title>
<polygon fill="#8ccbf2" stroke="none" points="510.25,-248.5 510.25,-269.5 658.75,-269.5 658.75,-248.5 510.25,-248.5"/>
<polygon fill="none" stroke="#8ccbf2" points="510.25,-248.5 510.25,-269.5 658.75,-269.5 658.75,-248.5 510.25,-248.5"/>
<text xml:space="preserve" text-anchor="start" x="543.62" y="-254.2" font-family="mono" font-weight="bold" font-size="14.00" fill="#c83500">DataSchema</text>
<polygon fill="#ddeeff" stroke="none" points="510.25,-226 510.25,-248.5 658.75,-248.5 658.75,-226 510.25,-226"/>
<polygon fill="none" stroke="#8ccbf2" points="510.25,-226 510.25,-248.5 658.75,-248.5 658.75,-226 510.25,-226"/>
<text xml:space="preserve" text-anchor="start" x="513.25" y="-233.2" font-family="mono" font-size="14.00" fill="#c83500">@type</text>
<text xml:space="preserve" text-anchor="start" x="553" y="-233.2" font-family="Times,serif" font-size="14.00"> : </text>
<text xml:space="preserve" text-anchor="start" x="564.25" y="-233.2" font-family="Times,serif" font-style="italic" font-size="14.00">(Array of) </text>
<text xml:space="preserve" text-anchor="start" x="622.75" y="-233.2" font-family="mono" font-size="14.00" fill="#c83500">string</text>
<polygon fill="#ddeeff" stroke="none" points="510.25,-203.5 510.25,-226 658.75,-226 658.75,-203.5 510.25,-203.5"/>
<polygon fill="none" stroke="#8ccbf2" points="510.25,-203.5 510.25,-226 658.75,-226 658.75,-203.5 510.25,-203.5"/>
<text xml:space="preserve" text-anchor="start" x="513.25" y="-210.7" font-family="mono" font-size="14.00" fill="#c83500">title</text>
<text xml:space="preserve" text-anchor="start" x="534.25" y="-210.7" font-family="Times,serif" font-size="14.00"> : </text>
<text xml:space="preserve" text-anchor="start" x="545.5" y="-210.7" font-family="mono" font-size="14.00" fill="#c83500">langString</text>
<polygon fill="#ddeeff" stroke="none" points="510.25,-181 510.25,-203.5 658.75,-203.5 658.75,-181 510.25,-181"/>
<polygon fill="none" stroke="#8ccbf2" points="510.25,-181 510.25,-203.5 658.75,-203.5 658.75,-181 510.25,-181"/>
<text xml:space="preserve" text-anchor="start" x="513.25" y="-188.2" font-family="mono" font-size="14.00" fill="#c83500">unit</text>
<text xml:space="preserve" text-anchor="start" x="535" y="-188.2" font-family="Times,serif" font-size="14.00"> : </text>
<text xml:space="preserve" text-anchor="start" x="546.25" y="-188.2" font-family="mono" font-size="14.00" fill="#c83500">string</text>
<polygon fill="#ddeeff" stroke="none" points="510.25,-158.5 510.25,-181 658.75,-181 658.75,-158.5 510.25,-158.5"/>
<polygon fill="none" stroke="#8ccbf2" points="510.25,-158.5 510.25,-181 658.75,-181 658.75,-158.5 510.25,-158.5"/>
<text xml:space="preserve" text-anchor="start" x="513.25" y="-165.7" font-family="mono" font-size="14.00" fill="#c83500">readOnly</text>
<text xml:space="preserve" text-anchor="start" x="568.75" y="-165.7" font-family="Times,serif" font-size="14.00"> : </text>
<text xml:space="preserve" text-anchor="start" x="580" y="-165.7" font-family="mono" font-size="14.00" fill="#c83500">boolean</text>
<polygon fill="#ddeeff" stroke="none" points="510.25,-136 510.25,-158.5 658.75,-158.5 658.75,-136 510.25,-136"/>
<polygon fill="none" stroke="#8ccbf2" points="510.25,-136 510.25,-158.5 658.75,-158.5 658.75,-136 510.25,-136"/>
<text xml:space="preserve" text-anchor="start" x="513.25" y="-143.2" font-family="mono" font-size="14.00" fill="#c83500">writeOnly</text>
<text xml:space="preserve" text-anchor="start" x="570.25" y="-143.2" font-family="Times,serif" font-size="14.00"> : </text>
<text xml:space="preserve" text-anchor="start" x="581.5" y="-143.2" font-family="mono" font-size="14.00" fill="#c83500">boolean</text>
<polygon fill="#ddeeff" stroke="none" points="510.25,-113.5 510.25,-136 658.75,-136 658.75,-113.5 510.25,-113.5"/>
<polygon fill="none" stroke="#8ccbf2" points="510.25,-113.5 510.25,-136 658.75,-136 658.75,-113.5 510.25,-113.5"/>
<text xml:space="preserve" text-anchor="start" x="513.25" y="-120.7" font-family="mono" font-size="14.00" fill="#c83500">format</text>
<text xml:space="preserve" text-anchor="start" x="552.25" y="-120.7" font-family="Times,serif" font-size="14.00"> : </text>
<text xml:space="preserve" text-anchor="start" x="563.5" y="-120.7" font-family="mono" font-size="14.00" fill="#c83500">string</text>
<polygon fill="#ddeeff" stroke="none" points="510.25,-91 510.25,-113.5 658.75,-113.5 658.75,-91 510.25,-91"/>
<polygon fill="none" stroke="#8ccbf2" points="510.25,-91 510.25,-113.5 658.75,-113.5 658.75,-91 510.25,-91"/>
<text xml:space="preserve" text-anchor="start" x="513.25" y="-98.2" font-family="mono" font-size="14.00" fill="#c83500">description</text>
<text xml:space="preserve" text-anchor="start" x="578.5" y="-98.2" font-family="Times,serif" font-size="14.00"> : </text>
<text xml:space="preserve" text-anchor="start" x="589.75" y="-98.2" font-family="mono" font-size="14.00" fill="#c83500">langString</text>
</g>
<!-- ArraySchema&#45;&gt;DataSchema -->
<g id="edge4" class="edge">
<title>ArraySchema&#45;&gt;DataSchema</title>
<path fill="none" stroke="black" d="M97.28,-358.29C108.9,-335.87 126.79,-308.22 150.5,-291.5 252.51,-219.58 397.27,-194.51 491.04,-185.81"/>
<polygon fill="black" stroke="black" points="491.33,-189.29 500.99,-184.93 490.72,-182.32 491.33,-189.29"/>
<text xml:space="preserve" text-anchor="start" x="150.5" y="-293.2" font-family="mono" font-size="14.00" fill="#c83500">items</text>
<text xml:space="preserve" text-anchor="middle" x="492" y="-188" font-family="Times,serif" font-size="14.00">0..*</text>
</g>
<!-- ArraySchema&#45;&gt;DataSchema -->
<g id="edge6" class="edge">
<title>ArraySchema&#45;&gt;DataSchema</title>
<path fill="none" stroke="black" d="M121.67,-358.61C136.58,-346.62 154.12,-333.92 171.5,-324.5 275.22,-268.3 405.24,-227.53 491.39,-204.18"/>
<polygon fill="white" stroke="black" points="492.25,-207.57 501,-201.6 490.43,-200.81 492.25,-207.57"/>
</g>
<!-- BooleanSchema -->
<g id="node2" class="node">
<title>BooleanSchema</title>
<polygon fill="#8ccbf2" stroke="none" points="188.62,-384.75 188.62,-405.75 300.38,-405.75 300.38,-384.75 188.62,-384.75"/>
<polygon fill="none" stroke="#8ccbf2" points="188.62,-384.75 188.62,-405.75 300.38,-405.75 300.38,-384.75 188.62,-384.75"/>
<text xml:space="preserve" text-anchor="start" x="191.62" y="-390.45" font-family="mono" font-weight="bold" font-size="14.00" fill="#c83500">BooleanSchema</text>
</g>
<!-- BooleanSchema&#45;&gt;DataSchema -->
<g id="edge7" class="edge">
<title>BooleanSchema&#45;&gt;DataSchema</title>
<path fill="none" stroke="black" d="M259.63,-377.4C273.67,-362.37 295.65,-340.35 317.5,-324.5 372.11,-284.89 439,-249.02 492.17,-223.08"/>
<polygon fill="white" stroke="black" points="493.44,-226.36 500.91,-218.85 490.39,-220.06 493.44,-226.36"/>
</g>
<!-- DataSchema&#45;&gt;DataSchema -->
<g id="edge1" class="edge">
<title>DataSchema&#45;&gt;DataSchema</title>
<path fill="none" stroke="black" d="M666.7,-199.88C677.55,-196.54 684.75,-189.99 684.75,-180.25 684.75,-174.01 681.8,-169.08 676.82,-165.46"/>
<polygon fill="black" stroke="black" points="678.6,-162.44 668.07,-161.27 675.57,-168.75 678.6,-162.44"/>
<text xml:space="preserve" text-anchor="start" x="684.75" y="-174.45" font-family="mono" font-size="14.00" fill="#c83500">oneOf</text>
<text xml:space="preserve" text-anchor="middle" x="677.2" y="-147.32" font-family="Times,serif" font-size="14.00">0..*</text>
</g>
<!-- MultiLanguage -->
<g id="node9" class="node">
<title>MultiLanguage</title>
<polygon fill="#f2f2f2" stroke="none" points="533.5,-7.5 533.5,-28.5 635.5,-28.5 635.5,-7.5 533.5,-7.5"/>
<polygon fill="none" stroke="#8c8c8c" points="533.5,-7.5 533.5,-28.5 635.5,-28.5 635.5,-7.5 533.5,-7.5"/>
<text xml:space="preserve" text-anchor="start" x="536.5" y="-13.2" font-family="mono" font-weight="bold" font-size="14.00">MultiLanguage</text>
</g>
<!-- DataSchema&#45;&gt;MultiLanguage -->
<g id="edge2" class="edge">
<title>DataSchema&#45;&gt;MultiLanguage</title>
<path fill="none" stroke="black" d="M556.8,-87.02C556.43,-75.8 557.5,-64.58 560.75,-54 561.65,-51.07 562.89,-48.17 564.32,-45.37"/>
<polygon fill="black" stroke="black" points="567.19,-47.39 569.4,-37.03 561.21,-43.75 567.19,-47.39"/>
<text xml:space="preserve" text-anchor="start" x="560.75" y="-55.7" font-family="mono" font-size="14.00" fill="#c83500">titles</text>
<text xml:space="preserve" text-anchor="middle" x="559.69" y="-38.94" font-family="Times,serif" font-size="14.00">0..*</text>
</g>
<!-- DataSchema&#45;&gt;MultiLanguage -->
<g id="edge3" class="edge">
<title>DataSchema&#45;&gt;MultiLanguage</title>
<path fill="none" stroke="black" d="M589.3,-87.23C589.34,-76.03 589.11,-64.75 588.5,-54 588.37,-51.76 588.2,-49.44 588,-47.11"/>
<polygon fill="black" stroke="black" points="591.48,-46.79 586.96,-37.21 584.52,-47.52 591.48,-46.79"/>
<text xml:space="preserve" text-anchor="start" x="589.07" y="-55.7" font-family="mono" font-size="14.00" fill="#c83500">descriptions</text>
<text xml:space="preserve" text-anchor="middle" x="597.3" y="-38.9" font-family="Times,serif" font-size="14.00">0..*</text>
</g>
<!-- IntegerSchema -->
<g id="node4" class="node">
<title>IntegerSchema</title>
<polygon fill="#8ccbf2" stroke="none" points="334.12,-441 334.12,-462 508.88,-462 508.88,-441 334.12,-441"/>
<polygon fill="none" stroke="#8ccbf2" points="334.12,-441 334.12,-462 508.88,-462 508.88,-441 334.12,-441"/>
<text xml:space="preserve" text-anchor="start" x="372.75" y="-446.7" font-family="mono" font-weight="bold" font-size="14.00" fill="#c83500">IntegerSchema</text>
<polygon fill="#ddeeff" stroke="none" points="334.12,-418.5 334.12,-441 508.88,-441 508.88,-418.5 334.12,-418.5"/>
<polygon fill="none" stroke="#8ccbf2" points="334.12,-418.5 334.12,-441 508.88,-441 508.88,-418.5 334.12,-418.5"/>
<text xml:space="preserve" text-anchor="start" x="337.12" y="-425.7" font-family="mono" font-size="14.00" fill="#c83500">minimum</text>
<text xml:space="preserve" text-anchor="start" x="394.12" y="-425.7" font-family="Times,serif" font-size="14.00"> : </text>
<text xml:space="preserve" text-anchor="start" x="405.38" y="-425.7" font-family="mono" font-size="14.00" fill="#c83500">integer</text>
<polygon fill="#ddeeff" stroke="none" points="334.12,-396 334.12,-418.5 508.88,-418.5 508.88,-396 334.12,-396"/>
<polygon fill="none" stroke="#8ccbf2" points="334.12,-396 334.12,-418.5 508.88,-418.5 508.88,-396 334.12,-396"/>
<text xml:space="preserve" text-anchor="start" x="337.12" y="-403.2" font-family="mono" font-size="14.00" fill="#c83500">exclusiveMinimum</text>
<text xml:space="preserve" text-anchor="start" x="449.62" y="-403.2" font-family="Times,serif" font-size="14.00"> : </text>
<text xml:space="preserve" text-anchor="start" x="460.88" y="-403.2" font-family="mono" font-size="14.00" fill="#c83500">integer</text>
<polygon fill="#ddeeff" stroke="none" points="334.12,-373.5 334.12,-396 508.88,-396 508.88,-373.5 334.12,-373.5"/>
<polygon fill="none" stroke="#8ccbf2" points="334.12,-373.5 334.12,-396 508.88,-396 508.88,-373.5 334.12,-373.5"/>
<text xml:space="preserve" text-anchor="start" x="337.12" y="-380.7" font-family="mono" font-size="14.00" fill="#c83500">maximum</text>
<text xml:space="preserve" text-anchor="start" x="397.88" y="-380.7" font-family="Times,serif" font-size="14.00"> : </text>
<text xml:space="preserve" text-anchor="start" x="409.12" y="-380.7" font-family="mono" font-size="14.00" fill="#c83500">integer</text>
<polygon fill="#ddeeff" stroke="none" points="334.12,-351 334.12,-373.5 508.88,-373.5 508.88,-351 334.12,-351"/>
<polygon fill="none" stroke="#8ccbf2" points="334.12,-351 334.12,-373.5 508.88,-373.5 508.88,-351 334.12,-351"/>
<text xml:space="preserve" text-anchor="start" x="337.12" y="-358.2" font-family="mono" font-size="14.00" fill="#c83500">exclusiveMaximum</text>
<text xml:space="preserve" text-anchor="start" x="453.38" y="-358.2" font-family="Times,serif" font-size="14.00"> : </text>
<text xml:space="preserve" text-anchor="start" x="464.62" y="-358.2" font-family="mono" font-size="14.00" fill="#c83500">integer</text>
<polygon fill="#ddeeff" stroke="none" points="334.12,-328.5 334.12,-351 508.88,-351 508.88,-328.5 334.12,-328.5"/>
<polygon fill="none" stroke="#8ccbf2" points="334.12,-328.5 334.12,-351 508.88,-351 508.88,-328.5 334.12,-328.5"/>
<text xml:space="preserve" text-anchor="start" x="337.12" y="-335.7" font-family="mono" font-size="14.00" fill="#c83500">multipleOf</text>
<text xml:space="preserve" text-anchor="start" x="399.38" y="-335.7" font-family="Times,serif" font-size="14.00"> : </text>
<text xml:space="preserve" text-anchor="start" x="410.62" y="-335.7" font-family="mono" font-size="14.00" fill="#c83500">integer</text>
</g>
<!-- IntegerSchema&#45;&gt;DataSchema -->
<g id="edge8" class="edge">
<title>IntegerSchema&#45;&gt;DataSchema</title>
<path fill="none" stroke="black" d="M474.87,-324.51C485.25,-310.94 496.33,-296.47 507.3,-282.14"/>
<polygon fill="white" stroke="black" points="509.89,-284.51 513.19,-274.44 504.33,-280.25 509.89,-284.51"/>
</g>
<!-- NullSchema -->
<g id="node5" class="node">
<title>NullSchema</title>
<polygon fill="#8ccbf2" stroke="none" points="542.5,-384.75 542.5,-405.75 626.5,-405.75 626.5,-384.75 542.5,-384.75"/>
<polygon fill="none" stroke="#8ccbf2" points="542.5,-384.75 542.5,-405.75 626.5,-405.75 626.5,-384.75 542.5,-384.75"/>
<text xml:space="preserve" text-anchor="start" x="545.5" y="-390.45" font-family="mono" font-weight="bold" font-size="14.00" fill="#c83500">NullSchema</text>
</g>
<!-- NullSchema&#45;&gt;DataSchema -->
<g id="edge9" class="edge">
<title>NullSchema&#45;&gt;DataSchema</title>
<path fill="none" stroke="black" d="M584.5,-377.54C584.5,-357.01 584.5,-320.45 584.5,-284.4"/>
<polygon fill="white" stroke="black" points="588,-284.77 584.5,-274.77 581,-284.77 588,-284.77"/>
</g>
<!-- NumberSchema -->
<g id="node6" class="node">
<title>NumberSchema</title>
<polygon fill="#8ccbf2" stroke="none" points="660.5,-441 660.5,-462 834.5,-462 834.5,-441 660.5,-441"/>
<polygon fill="none" stroke="#8ccbf2" points="660.5,-441 660.5,-462 834.5,-462 834.5,-441 660.5,-441"/>
<text xml:space="preserve" text-anchor="start" x="695.38" y="-446.7" font-family="mono" font-weight="bold" font-size="14.00" fill="#c83500">NumberSchema</text>
<polygon fill="#ddeeff" stroke="none" points="660.5,-418.5 660.5,-441 834.5,-441 834.5,-418.5 660.5,-418.5"/>
<polygon fill="none" stroke="#8ccbf2" points="660.5,-418.5 660.5,-441 834.5,-441 834.5,-418.5 660.5,-418.5"/>
<text xml:space="preserve" text-anchor="start" x="663.5" y="-425.7" font-family="mono" font-size="14.00" fill="#c83500">minimum</text>
<text xml:space="preserve" text-anchor="start" x="720.5" y="-425.7" font-family="Times,serif" font-size="14.00"> : </text>
<text xml:space="preserve" text-anchor="start" x="731.75" y="-425.7" font-family="mono" font-size="14.00" fill="#c83500">double</text>
<polygon fill="#ddeeff" stroke="none" points="660.5,-396 660.5,-418.5 834.5,-418.5 834.5,-396 660.5,-396"/>
<polygon fill="none" stroke="#8ccbf2" points="660.5,-396 660.5,-418.5 834.5,-418.5 834.5,-396 660.5,-396"/>
<text xml:space="preserve" text-anchor="start" x="663.5" y="-403.2" font-family="mono" font-size="14.00" fill="#c83500">exclusiveMinimum</text>
<text xml:space="preserve" text-anchor="start" x="776" y="-403.2" font-family="Times,serif" font-size="14.00"> : </text>
<text xml:space="preserve" text-anchor="start" x="787.25" y="-403.2" font-family="mono" font-size="14.00" fill="#c83500">double</text>
<polygon fill="#ddeeff" stroke="none" points="660.5,-373.5 660.5,-396 834.5,-396 834.5,-373.5 660.5,-373.5"/>
<polygon fill="none" stroke="#8ccbf2" points="660.5,-373.5 660.5,-396 834.5,-396 834.5,-373.5 660.5,-373.5"/>
<text xml:space="preserve" text-anchor="start" x="663.5" y="-380.7" font-family="mono" font-size="14.00" fill="#c83500">maximum</text>
<text xml:space="preserve" text-anchor="start" x="724.25" y="-380.7" font-family="Times,serif" font-size="14.00"> : </text>
<text xml:space="preserve" text-anchor="start" x="735.5" y="-380.7" font-family="mono" font-size="14.00" fill="#c83500">double</text>
<polygon fill="#ddeeff" stroke="none" points="660.5,-351 660.5,-373.5 834.5,-373.5 834.5,-351 660.5,-351"/>
<polygon fill="none" stroke="#8ccbf2" points="660.5,-351 660.5,-373.5 834.5,-373.5 834.5,-351 660.5,-351"/>
<text xml:space="preserve" text-anchor="start" x="663.5" y="-358.2" font-family="mono" font-size="14.00" fill="#c83500">exclusiveMaximum</text>
<text xml:space="preserve" text-anchor="start" x="779.75" y="-358.2" font-family="Times,serif" font-size="14.00"> : </text>
<text xml:space="preserve" text-anchor="start" x="791" y="-358.2" font-family="mono" font-size="14.00" fill="#c83500">double</text>
<polygon fill="#ddeeff" stroke="none" points="660.5,-328.5 660.5,-351 834.5,-351 834.5,-328.5 660.5,-328.5"/>
<polygon fill="none" stroke="#8ccbf2" points="660.5,-328.5 660.5,-351 834.5,-351 834.5,-328.5 660.5,-328.5"/>
<text xml:space="preserve" text-anchor="start" x="663.5" y="-335.7" font-family="mono" font-size="14.00" fill="#c83500">multipleOf</text>
<text xml:space="preserve" text-anchor="start" x="725.75" y="-335.7" font-family="Times,serif" font-size="14.00"> : </text>
<text xml:space="preserve" text-anchor="start" x="737" y="-335.7" font-family="mono" font-size="14.00" fill="#c83500">double</text>
</g>
<!-- NumberSchema&#45;&gt;DataSchema -->
<g id="edge10" class="edge">
<title>NumberSchema&#45;&gt;DataSchema</title>
<path fill="none" stroke="black" d="M694.13,-324.51C683.75,-310.94 672.67,-296.47 661.7,-282.14"/>
<polygon fill="white" stroke="black" points="664.67,-280.25 655.81,-274.44 659.11,-284.51 664.67,-280.25"/>
</g>
<!-- ObjectSchema -->
<g id="node7" class="node">
<title>ObjectSchema</title>
<polygon fill="#8ccbf2" stroke="none" points="868.88,-396 868.88,-417 1018.12,-417 1018.12,-396 868.88,-396"/>
<polygon fill="none" stroke="#8ccbf2" points="868.88,-396 868.88,-417 1018.12,-417 1018.12,-396 868.88,-396"/>
<text xml:space="preserve" text-anchor="start" x="895.88" y="-401.7" font-family="mono" font-weight="bold" font-size="14.00" fill="#c83500">ObjectSchema</text>
<polygon fill="#ddeeff" stroke="none" points="868.88,-373.5 868.88,-396 1018.12,-396 1018.12,-373.5 868.88,-373.5"/>
<polygon fill="none" stroke="#8ccbf2" points="868.88,-373.5 868.88,-396 1018.12,-396 1018.12,-373.5 868.88,-373.5"/>
<text xml:space="preserve" text-anchor="start" x="871.88" y="-380.7" font-family="mono" font-size="14.00" fill="#c83500">required</text>
<text xml:space="preserve" text-anchor="start" x="921.38" y="-380.7" font-family="Times,serif" font-size="14.00"> : Array of </text>
<text xml:space="preserve" text-anchor="start" x="982.12" y="-380.7" font-family="mono" font-size="14.00" fill="#c83500">string</text>
</g>
<!-- ObjectSchema&#45;&gt;DataSchema -->
<g id="edge5" class="edge">
<title>ObjectSchema&#45;&gt;DataSchema</title>
<path fill="none" stroke="black" d="M913.69,-369.77C896.09,-355.79 873.09,-338.36 851.5,-324.5 795.25,-288.4 729.06,-252.85 676.66,-226.19"/>
<polygon fill="black" stroke="black" points="678.56,-223.23 668.06,-221.83 675.4,-229.47 678.56,-223.23"/>
<text xml:space="preserve" text-anchor="start" x="816.48" y="-293.2" font-family="mono" font-size="14.00" fill="#c83500">properties</text>
<text xml:space="preserve" text-anchor="middle" x="677.21" y="-224.35" font-family="Times,serif" font-size="14.00">0..*</text>
</g>
<!-- ObjectSchema&#45;&gt;DataSchema -->
<g id="edge11" class="edge">
<title>ObjectSchema&#45;&gt;DataSchema</title>
<path fill="none" stroke="black" d="M934.09,-369.84C924.04,-346.73 906.03,-312.51 880.5,-291.5 821.98,-243.34 740.38,-215.04 677.67,-199.2"/>
<polygon fill="white" stroke="black" points="678.61,-195.83 668.06,-196.85 676.94,-202.63 678.61,-195.83"/>
</g>
<!-- StringSchema -->
<g id="node8" class="node">
<title>StringSchema</title>
<polygon fill="#8ccbf2" stroke="none" points="1052.5,-441 1052.5,-462 1214.5,-462 1214.5,-441 1052.5,-441"/>
<polygon fill="none" stroke="#8ccbf2" points="1052.5,-441 1052.5,-462 1214.5,-462 1214.5,-441 1052.5,-441"/>
<text xml:space="preserve" text-anchor="start" x="1087.75" y="-446.7" font-family="mono" font-weight="bold" font-size="14.00" fill="#c83500">StringSchema</text>
<polygon fill="#ddeeff" stroke="none" points="1052.5,-418.5 1052.5,-441 1214.5,-441 1214.5,-418.5 1052.5,-418.5"/>
<polygon fill="none" stroke="#8ccbf2" points="1052.5,-418.5 1052.5,-441 1214.5,-441 1214.5,-418.5 1052.5,-418.5"/>
<text xml:space="preserve" text-anchor="start" x="1055.5" y="-425.7" font-family="mono" font-size="14.00" fill="#c83500">minLength</text>
<text xml:space="preserve" text-anchor="start" x="1119.25" y="-425.7" font-family="Times,serif" font-size="14.00"> : </text>
<text xml:space="preserve" text-anchor="start" x="1130.5" y="-425.7" font-family="mono" font-size="14.00" fill="#c83500">unsignedInt</text>
<polygon fill="#ddeeff" stroke="none" points="1052.5,-396 1052.5,-418.5 1214.5,-418.5 1214.5,-396 1052.5,-396"/>
<polygon fill="none" stroke="#8ccbf2" points="1052.5,-396 1052.5,-418.5 1214.5,-418.5 1214.5,-396 1052.5,-396"/>
<text xml:space="preserve" text-anchor="start" x="1055.5" y="-403.2" font-family="mono" font-size="14.00" fill="#c83500">maxLength</text>
<text xml:space="preserve" text-anchor="start" x="1123" y="-403.2" font-family="Times,serif" font-size="14.00"> : </text>
<text xml:space="preserve" text-anchor="start" x="1134.25" y="-403.2" font-family="mono" font-size="14.00" fill="#c83500">unsignedInt</text>
<polygon fill="#ddeeff" stroke="none" points="1052.5,-373.5 1052.5,-396 1214.5,-396 1214.5,-373.5 1052.5,-373.5"/>
<polygon fill="none" stroke="#8ccbf2" points="1052.5,-373.5 1052.5,-396 1214.5,-396 1214.5,-373.5 1052.5,-373.5"/>
<text xml:space="preserve" text-anchor="start" x="1055.5" y="-380.7" font-family="mono" font-size="14.00" fill="#c83500">pattern</text>
<text xml:space="preserve" text-anchor="start" x="1097.5" y="-380.7" font-family="Times,serif" font-size="14.00"> : </text>
<text xml:space="preserve" text-anchor="start" x="1108.75" y="-380.7" font-family="mono" font-size="14.00" fill="#c83500">string</text>
<polygon fill="#ddeeff" stroke="none" points="1052.5,-351 1052.5,-373.5 1214.5,-373.5 1214.5,-351 1052.5,-351"/>
<polygon fill="none" stroke="#8ccbf2" points="1052.5,-351 1052.5,-373.5 1214.5,-373.5 1214.5,-351 1052.5,-351"/>
<text xml:space="preserve" text-anchor="start" x="1055.5" y="-358.2" font-family="mono" font-size="14.00" fill="#c83500">contentEncoding</text>
<text xml:space="preserve" text-anchor="start" x="1156" y="-358.2" font-family="Times,serif" font-size="14.00"> : </text>
<text xml:space="preserve" text-anchor="start" x="1167.25" y="-358.2" font-family="mono" font-size="14.00" fill="#c83500">string</text>
<polygon fill="#ddeeff" stroke="none" points="1052.5,-328.5 1052.5,-351 1214.5,-351 1214.5,-328.5 1052.5,-328.5"/>
<polygon fill="none" stroke="#8ccbf2" points="1052.5,-328.5 1052.5,-351 1214.5,-351 1214.5,-328.5 1052.5,-328.5"/>
<text xml:space="preserve" text-anchor="start" x="1055.5" y="-335.7" font-family="mono" font-size="14.00" fill="#c83500">contentMediaType</text>
<text xml:space="preserve" text-anchor="start" x="1167.25" y="-335.7" font-family="Times,serif" font-size="14.00"> : </text>
<text xml:space="preserve" text-anchor="start" x="1178.5" y="-335.7" font-family="mono" font-size="14.00" fill="#c83500">string</text>
</g>
<!-- StringSchema&#45;&gt;DataSchema -->
<g id="edge12" class="edge">
<title>StringSchema&#45;&gt;DataSchema</title>
<path fill="none" stroke="black" d="M1044.76,-329.37C1041.68,-327.67 1038.58,-326.04 1035.5,-324.5 917.9,-265.79 771.13,-224.51 677.59,-201.81"/>
<polygon fill="white" stroke="black" points="678.47,-198.42 667.93,-199.48 676.83,-205.22 678.47,-198.42"/>
</g>
</g>
</svg>
