<?xml version="1.0" encoding="UTF-8" standalone="no"?>
<!DOCTYPE svg PUBLIC "-//W3C//DTD SVG 1.1//EN"
 "http://www.w3.org/Graphics/SVG/1.1/DTD/svg11.dtd">
<!-- Generated by graphviz version 2.43.0 (0)
 -->
<!-- Title: %3 Pages: 1 -->
<svg width="1426pt" height="477pt"
 viewBox="0.00 0.00 1425.50 477.00" xmlns="http://www.w3.org/2000/svg" xmlns:xlink="http://www.w3.org/1999/xlink">
<g id="graph0" class="graph" transform="scale(1 1) rotate(0) translate(4 473)">
<title>%3</title>
<polygon fill="white" stroke="transparent" points="-4,4 -4,-473 1421.5,-473 1421.5,4 -4,4"/>
<!-- ArraySchema -->
<g id="node1" class="node">
<title>ArraySchema</title>
<polygon fill="#8ccbf2" stroke="transparent" points="8,-412 8,-433 186,-433 186,-412 8,-412"/>
<polygon fill="none" stroke="#8ccbf2" points="8,-412 8,-433 186,-433 186,-412 8,-412"/>
<text text-anchor="start" x="51.5" y="-419.8" font-family="mono" font-weight="bold" font-size="14.00" fill="#c83500">ArraySchema</text>
<polygon fill="#ddeeff" stroke="transparent" points="8,-391 8,-412 186,-412 186,-391 8,-391"/>
<polygon fill="none" stroke="#8ccbf2" points="8,-391 8,-412 186,-412 186,-391 8,-391"/>
<text text-anchor="start" x="11" y="-398.8" font-family="mono" font-size="14.00" fill="#c83500">minItems</text>
<text text-anchor="start" x="78" y="-398.8" font-family="Times,serif" font-size="14.00"> : </text>
<text text-anchor="start" x="92" y="-398.8" font-family="mono" font-size="14.00" fill="#c83500">unsignedInt</text>
<polygon fill="#ddeeff" stroke="transparent" points="8,-370 8,-391 186,-391 186,-370 8,-370"/>
<polygon fill="none" stroke="#8ccbf2" points="8,-370 8,-391 186,-391 186,-370 8,-370"/>
<text text-anchor="start" x="11" y="-377.8" font-family="mono" font-size="14.00" fill="#c83500">maxItems</text>
<text text-anchor="start" x="78" y="-377.8" font-family="Times,serif" font-size="14.00"> : </text>
<text text-anchor="start" x="92" y="-377.8" font-family="mono" font-size="14.00" fill="#c83500">unsignedInt</text>
</g>
<!-- DataSchema -->
<g id="node3" class="node">
<title>DataSchema</title>
<polygon fill="#8ccbf2" stroke="transparent" points="561,-258.5 561,-279.5 755,-279.5 755,-258.5 561,-258.5"/>
<polygon fill="none" stroke="#8ccbf2" points="561,-258.5 561,-279.5 755,-279.5 755,-258.5 561,-258.5"/>
<text text-anchor="start" x="616.5" y="-266.3" font-family="mono" font-weight="bold" font-size="14.00" fill="#c83500">DataSchema</text>
<polygon fill="#ddeeff" stroke="transparent" points="561,-237.5 561,-258.5 755,-258.5 755,-237.5 561,-237.5"/>
<polygon fill="none" stroke="#8ccbf2" points="561,-237.5 561,-258.5 755,-258.5 755,-237.5 561,-237.5"/>
<text text-anchor="start" x="564" y="-245.3" font-family="mono" font-size="14.00" fill="#c83500">@type</text>
<text text-anchor="start" x="606" y="-245.3" font-family="Times,serif" font-size="14.00"> : </text>
<text text-anchor="start" x="620" y="-245.3" font-family="Times,serif" font-style="italic" font-size="14.00">(Array of) </text>
<text text-anchor="start" x="693" y="-245.3" font-family="mono" font-size="14.00" fill="#c83500">string</text>
<polygon fill="#ddeeff" stroke="transparent" points="561,-216.5 561,-237.5 755,-237.5 755,-216.5 561,-216.5"/>
<polygon fill="none" stroke="#8ccbf2" points="561,-216.5 561,-237.5 755,-237.5 755,-216.5 561,-216.5"/>
<text text-anchor="start" x="564" y="-224.3" font-family="mono" font-size="14.00" fill="#c83500">type</text>
<text text-anchor="start" x="598" y="-224.3" font-family="Times,serif" font-size="14.00"> : </text>
<text text-anchor="start" x="612" y="-224.3" font-family="mono" font-size="14.00" fill="#c83500">string</text>
<polygon fill="#ddeeff" stroke="transparent" points="561,-195.5 561,-216.5 755,-216.5 755,-195.5 561,-195.5"/>
<polygon fill="none" stroke="#8ccbf2" points="561,-195.5 561,-216.5 755,-216.5 755,-195.5 561,-195.5"/>
<text text-anchor="start" x="564" y="-203.3" font-family="mono" font-size="14.00" fill="#c83500">title</text>
<text text-anchor="start" x="606" y="-203.3" font-family="Times,serif" font-size="14.00"> : </text>
<text text-anchor="start" x="620" y="-203.3" font-family="mono" font-size="14.00" fill="#c83500">langString</text>
<polygon fill="#ddeeff" stroke="transparent" points="561,-174.5 561,-195.5 755,-195.5 755,-174.5 561,-174.5"/>
<polygon fill="none" stroke="#8ccbf2" points="561,-174.5 561,-195.5 755,-195.5 755,-174.5 561,-174.5"/>
<text text-anchor="start" x="564" y="-182.3" font-family="mono" font-size="14.00" fill="#c83500">unit</text>
<text text-anchor="start" x="598" y="-182.3" font-family="Times,serif" font-size="14.00"> : </text>
<text text-anchor="start" x="612" y="-182.3" font-family="mono" font-size="14.00" fill="#c83500">string</text>
<polygon fill="#ddeeff" stroke="transparent" points="561,-153.5 561,-174.5 755,-174.5 755,-153.5 561,-153.5"/>
<polygon fill="none" stroke="#8ccbf2" points="561,-153.5 561,-174.5 755,-174.5 755,-153.5 561,-153.5"/>
<text text-anchor="start" x="564" y="-161.3" font-family="mono" font-size="14.00" fill="#c83500">readOnly</text>
<text text-anchor="start" x="631" y="-161.3" font-family="Times,serif" font-size="14.00"> : </text>
<text text-anchor="start" x="645" y="-161.3" font-family="mono" font-size="14.00" fill="#c83500">boolean</text>
<polygon fill="#ddeeff" stroke="transparent" points="561,-132.5 561,-153.5 755,-153.5 755,-132.5 561,-132.5"/>
<polygon fill="none" stroke="#8ccbf2" points="561,-132.5 561,-153.5 755,-153.5 755,-132.5 561,-132.5"/>
<text text-anchor="start" x="564" y="-140.3" font-family="mono" font-size="14.00" fill="#c83500">writeOnly</text>
<text text-anchor="start" x="639" y="-140.3" font-family="Times,serif" font-size="14.00"> : </text>
<text text-anchor="start" x="653" y="-140.3" font-family="mono" font-size="14.00" fill="#c83500">boolean</text>
<polygon fill="#ddeeff" stroke="transparent" points="561,-111.5 561,-132.5 755,-132.5 755,-111.5 561,-111.5"/>
<polygon fill="none" stroke="#8ccbf2" points="561,-111.5 561,-132.5 755,-132.5 755,-111.5 561,-111.5"/>
<text text-anchor="start" x="564" y="-119.3" font-family="mono" font-size="14.00" fill="#c83500">format</text>
<text text-anchor="start" x="614" y="-119.3" font-family="Times,serif" font-size="14.00"> : </text>
<text text-anchor="start" x="628" y="-119.3" font-family="mono" font-size="14.00" fill="#c83500">string</text>
<polygon fill="#ddeeff" stroke="transparent" points="561,-90.5 561,-111.5 755,-111.5 755,-90.5 561,-90.5"/>
<polygon fill="none" stroke="#8ccbf2" points="561,-90.5 561,-111.5 755,-111.5 755,-90.5 561,-90.5"/>
<text text-anchor="start" x="564" y="-98.3" font-family="mono" font-size="14.00" fill="#c83500">description</text>
<text text-anchor="start" x="655" y="-98.3" font-family="Times,serif" font-size="14.00"> : </text>
<text text-anchor="start" x="669" y="-98.3" font-family="mono" font-size="14.00" fill="#c83500">langString</text>
</g>
<!-- ArraySchema&#45;&gt;DataSchema -->
<g id="edge4" class="edge">
<title>ArraySchema&#45;&gt;DataSchema</title>
<path fill="none" stroke="black" d="M115.09,-366.21C128.09,-344.56 147.62,-317.9 172,-302 284.31,-228.76 438.22,-201.86 542.52,-192.03"/>
<polygon fill="black" stroke="black" points="543.13,-195.49 552.77,-191.11 542.5,-188.52 543.13,-195.49"/>
<text text-anchor="start" x="172" y="-305.8" font-family="mono" font-size="14.00" fill="#c83500">items</text>
<text text-anchor="middle" x="540.27" y="-194.91" font-family="Times,serif" font-size="14.00">0..*</text>
</g>
<!-- ArraySchema&#45;&gt;DataSchema -->
<g id="edge6" class="edge">
<title>ArraySchema&#45;&gt;DataSchema</title>
<path fill="none" stroke="black" d="M147.09,-366.36C164.31,-355.39 184.04,-343.84 203,-335 314.47,-283.04 449.14,-241.52 542.92,-215.74"/>
<polygon fill="white" stroke="black" points="544,-219.08 552.72,-213.06 542.15,-212.32 544,-219.08"/>
</g>
<!-- BooleanSchema -->
<g id="node2" class="node">
<title>BooleanSchema</title>
<polygon fill="#8ccbf2" stroke="transparent" points="220,-391 220,-412 334,-412 334,-391 220,-391"/>
<polygon fill="none" stroke="#8ccbf2" points="220,-391 220,-412 334,-412 334,-391 220,-391"/>
<text text-anchor="start" x="223" y="-398.8" font-family="mono" font-weight="bold" font-size="14.00" fill="#c83500">BooleanSchema</text>
</g>
<!-- BooleanSchema&#45;&gt;DataSchema -->
<g id="edge7" class="edge">
<title>BooleanSchema&#45;&gt;DataSchema</title>
<path fill="none" stroke="black" d="M293.51,-383.81C307.82,-369.55 329.54,-349.35 351,-335 411.15,-294.78 483.83,-259.12 543.38,-232.83"/>
<polygon fill="white" stroke="black" points="545.06,-235.91 552.82,-228.69 542.25,-229.5 545.06,-235.91"/>
</g>
<!-- DataSchema&#45;&gt;DataSchema -->
<g id="edge1" class="edge">
<title>DataSchema&#45;&gt;DataSchema</title>
<path fill="none" stroke="black" d="M763.42,-204.61C774.15,-200.83 781,-194.46 781,-185.5 781,-179.48 777.91,-174.63 772.62,-170.95"/>
<polygon fill="black" stroke="black" points="773.93,-167.69 763.42,-166.39 770.82,-173.96 773.93,-167.69"/>
<text text-anchor="start" x="781" y="-181.8" font-family="mono" font-size="14.00" fill="#c83500">oneOf</text>
<text text-anchor="middle" x="775.92" y="-155.19" font-family="Times,serif" font-size="14.00">0..*</text>
</g>
<!-- MultiLanguage -->
<g id="node9" class="node">
<title>MultiLanguage</title>
<polygon fill="#f2f2f2" stroke="transparent" points="601,-7 601,-28 715,-28 715,-7 601,-7"/>
<polygon fill="none" stroke="#8c8c8c" points="601,-7 601,-28 715,-28 715,-7 601,-7"/>
<text text-anchor="start" x="604" y="-14.8" font-family="mono" font-weight="bold" font-size="14.00">MultiLanguage</text>
</g>
<!-- DataSchema&#45;&gt;MultiLanguage -->
<g id="edge2" class="edge">
<title>DataSchema&#45;&gt;MultiLanguage</title>
<path fill="none" stroke="black" d="M617.71,-86.99C617.2,-75.72 618.65,-64.51 623,-54 624.47,-50.46 626.49,-47.09 628.82,-43.93"/>
<polygon fill="black" stroke="black" points="631.67,-45.99 635.57,-36.14 626.38,-41.41 631.67,-45.99"/>
<text text-anchor="start" x="623" y="-57.8" font-family="mono" font-size="14.00" fill="#c83500">titles</text>
<text text-anchor="middle" x="623.07" y="-39.94" font-family="Times,serif" font-size="14.00">0..*</text>
</g>
<!-- DataSchema&#45;&gt;MultiLanguage -->
<g id="edge3" class="edge">
<title>DataSchema&#45;&gt;MultiLanguage</title>
<path fill="none" stroke="black" d="M675.98,-86.93C676.03,-75.78 675.18,-64.61 673,-54 672.45,-51.3 671.67,-48.55 670.77,-45.84"/>
<polygon fill="black" stroke="black" points="673.97,-44.4 667.08,-36.35 667.44,-46.94 673.97,-44.4"/>
<text text-anchor="start" x="676" y="-57.8" font-family="mono" font-size="14.00" fill="#c83500">descriptions</text>
<text text-anchor="middle" x="654.58" y="-40.15" font-family="Times,serif" font-size="14.00">0..*</text>
</g>
<!-- IntegerSchema -->
<g id="node4" class="node">
<title>IntegerSchema</title>
<polygon fill="#8ccbf2" stroke="transparent" points="369,-444 369,-465 580,-465 580,-444 369,-444"/>
<polygon fill="none" stroke="#8ccbf2" points="369,-444 369,-465 580,-465 580,-444 369,-444"/>
<text text-anchor="start" x="420.5" y="-451.8" font-family="mono" font-weight="bold" font-size="14.00" fill="#c83500">IntegerSchema</text>
<polygon fill="#ddeeff" stroke="transparent" points="369,-423 369,-444 580,-444 580,-423 369,-423"/>
<polygon fill="none" stroke="#8ccbf2" points="369,-423 369,-444 580,-444 580,-423 369,-423"/>
<text text-anchor="start" x="372" y="-430.8" font-family="mono" font-size="14.00" fill="#c83500">minimum</text>
<text text-anchor="start" x="430" y="-430.8" font-family="Times,serif" font-size="14.00"> : </text>
<text text-anchor="start" x="444" y="-430.8" font-family="mono" font-size="14.00" fill="#c83500">integer</text>
<polygon fill="#ddeeff" stroke="transparent" points="369,-402 369,-423 580,-423 580,-402 369,-402"/>
<polygon fill="none" stroke="#8ccbf2" points="369,-402 369,-423 580,-423 580,-402 369,-402"/>
<text text-anchor="start" x="372" y="-409.8" font-family="mono" font-size="14.00" fill="#c83500">exclusiveMinimum</text>
<text text-anchor="start" x="505" y="-409.8" font-family="Times,serif" font-size="14.00"> : </text>
<text text-anchor="start" x="519" y="-409.8" font-family="mono" font-size="14.00" fill="#c83500">integer</text>
<polygon fill="#ddeeff" stroke="transparent" points="369,-381 369,-402 580,-402 580,-381 369,-381"/>
<polygon fill="none" stroke="#8ccbf2" points="369,-381 369,-402 580,-402 580,-381 369,-381"/>
<text text-anchor="start" x="372" y="-388.8" font-family="mono" font-size="14.00" fill="#c83500">maximum</text>
<text text-anchor="start" x="430" y="-388.8" font-family="Times,serif" font-size="14.00"> : </text>
<text text-anchor="start" x="444" y="-388.8" font-family="mono" font-size="14.00" fill="#c83500">integer</text>
<polygon fill="#ddeeff" stroke="transparent" points="369,-360 369,-381 580,-381 580,-360 369,-360"/>
<polygon fill="none" stroke="#8ccbf2" points="369,-360 369,-381 580,-381 580,-360 369,-360"/>
<text text-anchor="start" x="372" y="-367.8" font-family="mono" font-size="14.00" fill="#c83500">exclusiveMaximum</text>
<text text-anchor="start" x="505" y="-367.8" font-family="Times,serif" font-size="14.00"> : </text>
<text text-anchor="start" x="519" y="-367.8" font-family="mono" font-size="14.00" fill="#c83500">integer</text>
<polygon fill="#ddeeff" stroke="transparent" points="369,-339 369,-360 580,-360 580,-339 369,-339"/>
<polygon fill="none" stroke="#8ccbf2" points="369,-339 369,-360 580,-360 580,-339 369,-339"/>
<text text-anchor="start" x="372" y="-346.8" font-family="mono" font-size="14.00" fill="#c83500">multipleOf</text>
<text text-anchor="start" x="455" y="-346.8" font-family="Times,serif" font-size="14.00"> : </text>
<text text-anchor="start" x="469" y="-346.8" font-family="mono" font-size="14.00" fill="#c83500">integer</text>
</g>
<!-- IntegerSchema&#45;&gt;DataSchema -->
<g id="edge8" class="edge">
<title>IntegerSchema&#45;&gt;DataSchema</title>
<path fill="none" stroke="black" d="M530.71,-334.89C542.4,-321.27 554.98,-306.59 567.53,-291.97"/>
<polygon fill="white" stroke="black" points="570.23,-294.2 574.08,-284.33 564.92,-289.64 570.23,-294.2"/>
</g>
<!-- NullSchema -->
<g id="node5" class="node">
<title>NullSchema</title>
<polygon fill="#8ccbf2" stroke="transparent" points="614,-391 614,-412 703,-412 703,-391 614,-391"/>
<polygon fill="none" stroke="#8ccbf2" points="614,-391 614,-412 703,-412 703,-391 614,-391"/>
<text text-anchor="start" x="617" y="-398.8" font-family="mono" font-weight="bold" font-size="14.00" fill="#c83500">NullSchema</text>
</g>
<!-- NullSchema&#45;&gt;DataSchema -->
<g id="edge9" class="edge">
<title>NullSchema&#45;&gt;DataSchema</title>
<path fill="none" stroke="black" d="M658,-383.81C658,-363.86 658,-329.23 658,-294.5"/>
<polygon fill="white" stroke="black" points="661.5,-294.23 658,-284.23 654.5,-294.23 661.5,-294.23"/>
</g>
<!-- NumberSchema -->
<g id="node6" class="node">
<title>NumberSchema</title>
<polygon fill="#8ccbf2" stroke="transparent" points="737,-444 737,-465 940,-465 940,-444 737,-444"/>
<polygon fill="none" stroke="#8ccbf2" points="737,-444 737,-465 940,-465 940,-444 737,-444"/>
<text text-anchor="start" x="788.5" y="-451.8" font-family="mono" font-weight="bold" font-size="14.00" fill="#c83500">NumberSchema</text>
<polygon fill="#ddeeff" stroke="transparent" points="737,-423 737,-444 940,-444 940,-423 737,-423"/>
<polygon fill="none" stroke="#8ccbf2" points="737,-423 737,-444 940,-444 940,-423 737,-423"/>
<text text-anchor="start" x="740" y="-430.8" font-family="mono" font-size="14.00" fill="#c83500">minimum</text>
<text text-anchor="start" x="798" y="-430.8" font-family="Times,serif" font-size="14.00"> : </text>
<text text-anchor="start" x="812" y="-430.8" font-family="mono" font-size="14.00" fill="#c83500">double</text>
<polygon fill="#ddeeff" stroke="transparent" points="737,-402 737,-423 940,-423 940,-402 737,-402"/>
<polygon fill="none" stroke="#8ccbf2" points="737,-402 737,-423 940,-423 940,-402 737,-402"/>
<text text-anchor="start" x="740" y="-409.8" font-family="mono" font-size="14.00" fill="#c83500">exclusiveMinimum</text>
<text text-anchor="start" x="873" y="-409.8" font-family="Times,serif" font-size="14.00"> : </text>
<text text-anchor="start" x="887" y="-409.8" font-family="mono" font-size="14.00" fill="#c83500">double</text>
<polygon fill="#ddeeff" stroke="transparent" points="737,-381 737,-402 940,-402 940,-381 737,-381"/>
<polygon fill="none" stroke="#8ccbf2" points="737,-381 737,-402 940,-402 940,-381 737,-381"/>
<text text-anchor="start" x="740" y="-388.8" font-family="mono" font-size="14.00" fill="#c83500">maximum</text>
<text text-anchor="start" x="798" y="-388.8" font-family="Times,serif" font-size="14.00"> : </text>
<text text-anchor="start" x="812" y="-388.8" font-family="mono" font-size="14.00" fill="#c83500">double</text>
<polygon fill="#ddeeff" stroke="transparent" points="737,-360 737,-381 940,-381 940,-360 737,-360"/>
<polygon fill="none" stroke="#8ccbf2" points="737,-360 737,-381 940,-381 940,-360 737,-360"/>
<text text-anchor="start" x="740" y="-367.8" font-family="mono" font-size="14.00" fill="#c83500">exclusiveMaximum</text>
<text text-anchor="start" x="873" y="-367.8" font-family="Times,serif" font-size="14.00"> : </text>
<text text-anchor="start" x="887" y="-367.8" font-family="mono" font-size="14.00" fill="#c83500">double</text>
<polygon fill="#ddeeff" stroke="transparent" points="737,-339 737,-360 940,-360 940,-339 737,-339"/>
<polygon fill="none" stroke="#8ccbf2" points="737,-339 737,-360 940,-360 940,-339 737,-339"/>
<text text-anchor="start" x="740" y="-346.8" font-family="mono" font-size="14.00" fill="#c83500">multipleOf</text>
<text text-anchor="start" x="823" y="-346.8" font-family="Times,serif" font-size="14.00"> : </text>
<text text-anchor="start" x="837" y="-346.8" font-family="mono" font-size="14.00" fill="#c83500">double</text>
</g>
<!-- NumberSchema&#45;&gt;DataSchema -->
<g id="edge10" class="edge">
<title>NumberSchema&#45;&gt;DataSchema</title>
<path fill="none" stroke="black" d="M782.53,-334.89C771.19,-321.39 759,-306.86 746.84,-292.37"/>
<polygon fill="white" stroke="black" points="749.2,-289.74 740.09,-284.33 743.84,-294.24 749.2,-289.74"/>
</g>
<!-- ObjectSchema -->
<g id="node7" class="node">
<title>ObjectSchema</title>
<polygon fill="#8ccbf2" stroke="transparent" points="974,-402 974,-423 1173,-423 1173,-402 974,-402"/>
<polygon fill="none" stroke="#8ccbf2" points="974,-402 974,-423 1173,-423 1173,-402 974,-402"/>
<text text-anchor="start" x="1023.5" y="-409.8" font-family="mono" font-weight="bold" font-size="14.00" fill="#c83500">ObjectSchema</text>
<polygon fill="#ddeeff" stroke="transparent" points="974,-381 974,-402 1173,-402 1173,-381 974,-381"/>
<polygon fill="none" stroke="#8ccbf2" points="974,-381 974,-402 1173,-402 1173,-381 974,-381"/>
<text text-anchor="start" x="977" y="-388.8" font-family="mono" font-size="14.00" fill="#c83500">required</text>
<text text-anchor="start" x="1044" y="-388.8" font-family="Times,serif" font-size="14.00"> : Array of </text>
<text text-anchor="start" x="1120" y="-388.8" font-family="mono" font-size="14.00" fill="#c83500">string</text>
</g>
<!-- ObjectSchema&#45;&gt;DataSchema -->
<g id="edge5" class="edge">
<title>ObjectSchema&#45;&gt;DataSchema</title>
<path fill="none" stroke="black" d="M1031.59,-376.96C1009.34,-364.21 981.34,-348.45 956,-335 895.91,-303.1 828.08,-269.15 772.33,-241.77"/>
<polygon fill="black" stroke="black" points="773.66,-238.52 763.14,-237.26 770.57,-244.8 773.66,-238.52"/>
<text text-anchor="start" x="916" y="-305.8" font-family="mono" font-size="14.00" fill="#c83500">properties</text>
<text text-anchor="middle" x="775.64" y="-241.06" font-family="Times,serif" font-size="14.00">0..*</text>
</g>
<!-- ObjectSchema&#45;&gt;DataSchema -->
<g id="edge11" class="edge">
<title>ObjectSchema&#45;&gt;DataSchema</title>
<path fill="none" stroke="black" d="M1061.59,-376.88C1049.84,-354.48 1029.52,-321.72 1003,-302 935.46,-251.8 844.77,-222.57 773.33,-206.07"/>
<polygon fill="white" stroke="black" points="773.9,-202.62 763.38,-203.83 772.37,-209.44 773.9,-202.62"/>
</g>
<!-- StringSchema -->
<g id="node8" class="node">
<title>StringSchema</title>
<polygon fill="#8ccbf2" stroke="transparent" points="1207,-444 1207,-465 1410,-465 1410,-444 1207,-444"/>
<polygon fill="none" stroke="#8ccbf2" points="1207,-444 1207,-465 1410,-465 1410,-444 1207,-444"/>
<text text-anchor="start" x="1258.5" y="-451.8" font-family="mono" font-weight="bold" font-size="14.00" fill="#c83500">StringSchema</text>
<polygon fill="#ddeeff" stroke="transparent" points="1207,-423 1207,-444 1410,-444 1410,-423 1207,-423"/>
<polygon fill="none" stroke="#8ccbf2" points="1207,-423 1207,-444 1410,-444 1410,-423 1207,-423"/>
<text text-anchor="start" x="1210" y="-430.8" font-family="mono" font-size="14.00" fill="#c83500">minLength</text>
<text text-anchor="start" x="1285" y="-430.8" font-family="Times,serif" font-size="14.00"> : </text>
<text text-anchor="start" x="1299" y="-430.8" font-family="mono" font-size="14.00" fill="#c83500">unsignedInt</text>
<polygon fill="#ddeeff" stroke="transparent" points="1207,-402 1207,-423 1410,-423 1410,-402 1207,-402"/>
<polygon fill="none" stroke="#8ccbf2" points="1207,-402 1207,-423 1410,-423 1410,-402 1207,-402"/>
<text text-anchor="start" x="1210" y="-409.8" font-family="mono" font-size="14.00" fill="#c83500">maxLength</text>
<text text-anchor="start" x="1285" y="-409.8" font-family="Times,serif" font-size="14.00"> : </text>
<text text-anchor="start" x="1299" y="-409.8" font-family="mono" font-size="14.00" fill="#c83500">unsignedInt</text>
<polygon fill="#ddeeff" stroke="transparent" points="1207,-381 1207,-402 1410,-402 1410,-381 1207,-381"/>
<polygon fill="none" stroke="#8ccbf2" points="1207,-381 1207,-402 1410,-402 1410,-381 1207,-381"/>
<text text-anchor="start" x="1210" y="-388.8" font-family="mono" font-size="14.00" fill="#c83500">pattern</text>
<text text-anchor="start" x="1268" y="-388.8" font-family="Times,serif" font-size="14.00"> : </text>
<text text-anchor="start" x="1282" y="-388.8" font-family="mono" font-size="14.00" fill="#c83500">string</text>
<polygon fill="#ddeeff" stroke="transparent" points="1207,-360 1207,-381 1410,-381 1410,-360 1207,-360"/>
<polygon fill="none" stroke="#8ccbf2" points="1207,-360 1207,-381 1410,-381 1410,-360 1207,-360"/>
<text text-anchor="start" x="1210" y="-367.8" font-family="mono" font-size="14.00" fill="#c83500">contentEncoding</text>
<text text-anchor="start" x="1334" y="-367.8" font-family="Times,serif" font-size="14.00"> : </text>
<text text-anchor="start" x="1348" y="-367.8" font-family="mono" font-size="14.00" fill="#c83500">string</text>
<polygon fill="#ddeeff" stroke="transparent" points="1207,-339 1207,-360 1410,-360 1410,-339 1207,-339"/>
<polygon fill="none" stroke="#8ccbf2" points="1207,-339 1207,-360 1410,-360 1410,-339 1207,-339"/>
<text text-anchor="start" x="1210" y="-346.8" font-family="mono" font-size="14.00" fill="#c83500">contentMediaType</text>
<text text-anchor="start" x="1343" y="-346.8" font-family="Times,serif" font-size="14.00"> : </text>
<text text-anchor="start" x="1357" y="-346.8" font-family="mono" font-size="14.00" fill="#c83500">string</text>
</g>
<!-- StringSchema&#45;&gt;DataSchema -->
<g id="edge12" class="edge">
<title>StringSchema&#45;&gt;DataSchema</title>
<path fill="none" stroke="black" d="M1198.18,-338.49C1195.44,-337.29 1192.71,-336.12 1190,-335 1051.05,-277.71 882.83,-234.91 773.26,-210.33"/>
<polygon fill="white" stroke="black" points="773.7,-206.84 763.18,-208.08 772.18,-213.67 773.7,-206.84"/>
</g>
</g>
</svg>
