<?xml version="1.0" encoding="UTF-8" standalone="no"?>
<!DOCTYPE svg PUBLIC "-//W3C//DTD SVG 1.1//EN"
 "http://www.w3.org/Graphics/SVG/1.1/DTD/svg11.dtd">
<!-- Generated by graphviz version 2.40.1 (20161225.0304)
 -->
<!-- Title: %3 Pages: 1 -->
<svg width="1264pt" height="456pt"
 viewBox="0.00 0.00 1263.50 456.00" xmlns="http://www.w3.org/2000/svg" xmlns:xlink="http://www.w3.org/1999/xlink">
<g id="graph0" class="graph" transform="scale(1 1) rotate(0) translate(4 452)">
<title>%3</title>
<polygon fill="#ffffff" stroke="transparent" points="-4,4 -4,-452 1259.5,-452 1259.5,4 -4,4"/>
<!-- ArraySchema -->
<g id="node1" class="node">
<title>ArraySchema</title>
<polygon fill="#8ccbf2" stroke="transparent" points="8.5,-391 8.5,-412 159.5,-412 159.5,-391 8.5,-391"/>
<polygon fill="none" stroke="#8ccbf2" points="8.5,-391 8.5,-412 159.5,-412 159.5,-391 8.5,-391"/>
<text text-anchor="start" x="38.5" y="-398.8" font-family="mono" font-weight="bold" font-size="14.00" fill="#c83500">ArraySchema</text>
<polygon fill="#ddeeff" stroke="transparent" points="8.5,-370 8.5,-391 159.5,-391 159.5,-370 8.5,-370"/>
<polygon fill="none" stroke="#8ccbf2" points="8.5,-370 8.5,-391 159.5,-391 159.5,-370 8.5,-370"/>
<text text-anchor="start" x="11.5" y="-377.8" font-family="mono" font-size="14.00" fill="#c83500">minItems</text>
<text text-anchor="start" x="68.5" y="-377.8" font-family="Times,serif" font-size="14.00" fill="#000000"> : </text>
<text text-anchor="start" x="79.5" y="-377.8" font-family="mono" font-size="14.00" fill="#c83500">unsignedInt</text>
<polygon fill="#ddeeff" stroke="transparent" points="8.5,-349 8.5,-370 159.5,-370 159.5,-349 8.5,-349"/>
<polygon fill="none" stroke="#8ccbf2" points="8.5,-349 8.5,-370 159.5,-370 159.5,-349 8.5,-349"/>
<text text-anchor="start" x="11.5" y="-356.8" font-family="mono" font-size="14.00" fill="#c83500">maxItems</text>
<text text-anchor="start" x="72.5" y="-356.8" font-family="Times,serif" font-size="14.00" fill="#000000"> : </text>
<text text-anchor="start" x="83.5" y="-356.8" font-family="mono" font-size="14.00" fill="#c83500">unsignedInt</text>
</g>
<!-- DataSchema -->
<g id="node3" class="node">
<title>DataSchema</title>
<polygon fill="#8ccbf2" stroke="transparent" points="522.5,-238 522.5,-259 675.5,-259 675.5,-238 522.5,-238"/>
<polygon fill="none" stroke="#8ccbf2" points="522.5,-238 522.5,-259 675.5,-259 675.5,-238 522.5,-238"/>
<text text-anchor="start" x="556.5" y="-245.8" font-family="mono" font-weight="bold" font-size="14.00" fill="#c83500">DataSchema</text>
<polygon fill="#ddeeff" stroke="transparent" points="522.5,-217 522.5,-238 675.5,-238 675.5,-217 522.5,-217"/>
<polygon fill="none" stroke="#8ccbf2" points="522.5,-217 522.5,-238 675.5,-238 675.5,-217 522.5,-217"/>
<text text-anchor="start" x="525.5" y="-224.8" font-family="mono" font-size="14.00" fill="#c83500">@type</text>
<text text-anchor="start" x="566.5" y="-224.8" font-family="Times,serif" font-size="14.00" fill="#000000"> : </text>
<text text-anchor="start" x="577.5" y="-224.8" font-family="Times,serif" font-style="italic" font-size="14.00" fill="#000000">(Array of) </text>
<text text-anchor="start" x="637.5" y="-224.8" font-family="mono" font-size="14.00" fill="#c83500">string</text>
<polygon fill="#ddeeff" stroke="transparent" points="522.5,-196 522.5,-217 675.5,-217 675.5,-196 522.5,-196"/>
<polygon fill="none" stroke="#8ccbf2" points="522.5,-196 522.5,-217 675.5,-217 675.5,-196 522.5,-196"/>
<text text-anchor="start" x="525.5" y="-203.8" font-family="mono" font-size="14.00" fill="#c83500">title</text>
<text text-anchor="start" x="547.5" y="-203.8" font-family="Times,serif" font-size="14.00" fill="#000000"> : </text>
<text text-anchor="start" x="558.5" y="-203.8" font-family="mono" font-size="14.00" fill="#c83500">string</text>
<polygon fill="#ddeeff" stroke="transparent" points="522.5,-175 522.5,-196 675.5,-196 675.5,-175 522.5,-175"/>
<polygon fill="none" stroke="#8ccbf2" points="522.5,-175 522.5,-196 675.5,-196 675.5,-175 522.5,-175"/>
<text text-anchor="start" x="525.5" y="-182.8" font-family="mono" font-size="14.00" fill="#c83500">unit</text>
<text text-anchor="start" x="548.5" y="-182.8" font-family="Times,serif" font-size="14.00" fill="#000000"> : </text>
<text text-anchor="start" x="559.5" y="-182.8" font-family="mono" font-size="14.00" fill="#c83500">string</text>
<polygon fill="#ddeeff" stroke="transparent" points="522.5,-154 522.5,-175 675.5,-175 675.5,-154 522.5,-154"/>
<polygon fill="none" stroke="#8ccbf2" points="522.5,-154 522.5,-175 675.5,-175 675.5,-154 522.5,-154"/>
<text text-anchor="start" x="525.5" y="-161.8" font-family="mono" font-size="14.00" fill="#c83500">readOnly</text>
<text text-anchor="start" x="582.5" y="-161.8" font-family="Times,serif" font-size="14.00" fill="#000000"> : </text>
<text text-anchor="start" x="593.5" y="-161.8" font-family="mono" font-size="14.00" fill="#c83500">boolean</text>
<polygon fill="#ddeeff" stroke="transparent" points="522.5,-133 522.5,-154 675.5,-154 675.5,-133 522.5,-133"/>
<polygon fill="none" stroke="#8ccbf2" points="522.5,-133 522.5,-154 675.5,-154 675.5,-133 522.5,-133"/>
<text text-anchor="start" x="525.5" y="-140.8" font-family="mono" font-size="14.00" fill="#c83500">writeOnly</text>
<text text-anchor="start" x="584.5" y="-140.8" font-family="Times,serif" font-size="14.00" fill="#000000"> : </text>
<text text-anchor="start" x="595.5" y="-140.8" font-family="mono" font-size="14.00" fill="#c83500">boolean</text>
<polygon fill="#ddeeff" stroke="transparent" points="522.5,-112 522.5,-133 675.5,-133 675.5,-112 522.5,-112"/>
<polygon fill="none" stroke="#8ccbf2" points="522.5,-112 522.5,-133 675.5,-133 675.5,-112 522.5,-112"/>
<text text-anchor="start" x="525.5" y="-119.8" font-family="mono" font-size="14.00" fill="#c83500">format</text>
<text text-anchor="start" x="565.5" y="-119.8" font-family="Times,serif" font-size="14.00" fill="#000000"> : </text>
<text text-anchor="start" x="576.5" y="-119.8" font-family="mono" font-size="14.00" fill="#c83500">string</text>
<polygon fill="#ddeeff" stroke="transparent" points="522.5,-91 522.5,-112 675.5,-112 675.5,-91 522.5,-91"/>
<polygon fill="none" stroke="#8ccbf2" points="522.5,-91 522.5,-112 675.5,-112 675.5,-91 522.5,-91"/>
<text text-anchor="start" x="525.5" y="-98.8" font-family="mono" font-size="14.00" fill="#c83500">description</text>
<text text-anchor="start" x="593.5" y="-98.8" font-family="Times,serif" font-size="14.00" fill="#000000"> : </text>
<text text-anchor="start" x="604.5" y="-98.8" font-family="mono" font-size="14.00" fill="#c83500">string</text>
</g>
<!-- ArraySchema&#45;&gt;DataSchema -->
<g id="edge4" class="edge">
<title>ArraySchema&#45;&gt;DataSchema</title>
<path fill="none" stroke="#000000" d="M100.3948,-345.3908C112.5092,-323.6156 130.8539,-296.9653 154.5,-281 210.8446,-242.9574 391.0966,-208.2951 503.8616,-189.5698"/>
<polygon fill="#000000" stroke="#000000" points="504.5844,-192.998 513.882,-187.9183 503.4459,-186.0912 504.5844,-192.998"/>
<text text-anchor="start" x="154.5" y="-284.8" font-family="mono" font-size="14.00" fill="#c83500">items</text>
<text text-anchor="middle" x="502.882" y="-191.7183" font-family="Times,serif" font-size="14.00" fill="#000000">0..*</text>
</g>
<!-- ArraySchema&#45;&gt;DataSchema -->
<g id="edge6" class="edge">
<title>ArraySchema&#45;&gt;DataSchema</title>
<path fill="none" stroke="#000000" d="M126.6072,-345.3349C141.4602,-334.2333 158.6181,-322.6492 175.5,-314 282.7587,-259.0478 416.2607,-219.4746 504.2604,-196.9297"/>
<polygon fill="#ffffff" stroke="#000000" points="505.1306,-200.3199 513.9614,-194.4661 503.4076,-193.5352 505.1306,-200.3199"/>
</g>
<!-- BooleanSchema -->
<g id="node2" class="node">
<title>BooleanSchema</title>
<polygon fill="#8ccbf2" stroke="transparent" points="193.5,-370 193.5,-391 308.5,-391 308.5,-370 193.5,-370"/>
<polygon fill="none" stroke="#8ccbf2" points="193.5,-370 193.5,-391 308.5,-391 308.5,-370 193.5,-370"/>
<text text-anchor="start" x="196.5" y="-377.8" font-family="mono" font-weight="bold" font-size="14.00" fill="#c83500">BooleanSchema</text>
</g>
<!-- BooleanSchema&#45;&gt;DataSchema -->
<g id="edge7" class="edge">
<title>BooleanSchema&#45;&gt;DataSchema</title>
<path fill="none" stroke="#000000" d="M267.9073,-362.7578C282.2272,-348.3884 303.5116,-328.4402 324.5,-314 380.996,-275.1304 449.8511,-240.2451 504.4034,-215.1453"/>
<polygon fill="#ffffff" stroke="#000000" points="506.0807,-218.2271 513.7225,-210.8885 503.1722,-211.8599 506.0807,-218.2271"/>
</g>
<!-- DataSchema&#45;&gt;DataSchema -->
<g id="edge1" class="edge">
<title>DataSchema&#45;&gt;DataSchema</title>
<path fill="none" stroke="#000000" d="M683.3355,-193.2878C693.989,-190.0647 701,-183.9688 701,-175 701,-168.9741 697.8351,-164.2451 692.527,-160.8129"/>
<polygon fill="#000000" stroke="#000000" points="693.8939,-157.5902 683.3355,-156.7122 691.0419,-163.9829 693.8939,-157.5902"/>
<text text-anchor="start" x="701" y="-171.3" font-family="mono" font-size="14.00" fill="#c83500">oneOf</text>
<text text-anchor="middle" x="694.3355" y="-145.5122" font-family="Times,serif" font-size="14.00" fill="#000000">0..*</text>
</g>
<!-- MultiLanguage -->
<g id="node9" class="node">
<title>MultiLanguage</title>
<polygon fill="#f2f2f2" stroke="transparent" points="546.5,-7 546.5,-28 651.5,-28 651.5,-7 546.5,-7"/>
<polygon fill="none" stroke="#8c8c8c" points="546.5,-7 546.5,-28 651.5,-28 651.5,-7 546.5,-7"/>
<text text-anchor="start" x="549.5" y="-14.8" font-family="mono" font-weight="bold" font-size="14.00" fill="#000000">MultiLanguage</text>
</g>
<!-- DataSchema&#45;&gt;MultiLanguage -->
<g id="edge2" class="edge">
<title>DataSchema&#45;&gt;MultiLanguage</title>
<path fill="none" stroke="#000000" d="M569.8079,-86.9022C569.2371,-75.7397 570.1985,-64.5422 573.5,-54 574.4778,-50.8776 575.8325,-47.7884 577.4099,-44.8094"/>
<polygon fill="#000000" stroke="#000000" points="580.3982,-46.6314 582.6557,-36.2798 574.4357,-42.9643 580.3982,-46.6314"/>
<text text-anchor="start" x="573.5" y="-57.8" font-family="mono" font-size="14.00" fill="#c83500">titles</text>
<text text-anchor="middle" x="571.6557" y="-40.0798" font-family="Times,serif" font-size="14.00" fill="#000000">0..*</text>
</g>
<!-- DataSchema&#45;&gt;MultiLanguage -->
<g id="edge3" class="edge">
<title>DataSchema&#45;&gt;MultiLanguage</title>
<path fill="none" stroke="#000000" d="M603.2292,-86.7556C603.2867,-75.7234 603.087,-64.5981 602.5,-54 602.365,-51.563 602.179,-49.0375 601.9606,-46.5063"/>
<polygon fill="#000000" stroke="#000000" points="605.4151,-45.879 600.9276,-36.2815 598.4506,-46.5826 605.4151,-45.879"/>
<text text-anchor="start" x="603.5" y="-57.8" font-family="mono" font-size="14.00" fill="#c83500">descriptions</text>
<text text-anchor="middle" x="611.9276" y="-40.0815" font-family="Times,serif" font-size="14.00" fill="#000000">0..*</text>
</g>
<!-- IntegerSchema -->
<g id="node4" class="node">
<title>IntegerSchema</title>
<polygon fill="#8ccbf2" stroke="transparent" points="342.5,-423 342.5,-444 521.5,-444 521.5,-423 342.5,-423"/>
<polygon fill="none" stroke="#8ccbf2" points="342.5,-423 342.5,-444 521.5,-444 521.5,-423 342.5,-423"/>
<text text-anchor="start" x="381.5" y="-430.8" font-family="mono" font-weight="bold" font-size="14.00" fill="#c83500">IntegerSchema</text>
<polygon fill="#ddeeff" stroke="transparent" points="342.5,-402 342.5,-423 521.5,-423 521.5,-402 342.5,-402"/>
<polygon fill="none" stroke="#8ccbf2" points="342.5,-402 342.5,-423 521.5,-423 521.5,-402 342.5,-402"/>
<text text-anchor="start" x="345.5" y="-409.8" font-family="mono" font-size="14.00" fill="#c83500">minimum</text>
<text text-anchor="start" x="402.5" y="-409.8" font-family="Times,serif" font-size="14.00" fill="#000000"> : </text>
<text text-anchor="start" x="413.5" y="-409.8" font-family="mono" font-size="14.00" fill="#c83500">integer</text>
<polygon fill="#ddeeff" stroke="transparent" points="342.5,-381 342.5,-402 521.5,-402 521.5,-381 342.5,-381"/>
<polygon fill="none" stroke="#8ccbf2" points="342.5,-381 342.5,-402 521.5,-402 521.5,-381 342.5,-381"/>
<text text-anchor="start" x="345.5" y="-388.8" font-family="mono" font-size="14.00" fill="#c83500">exclusiveMinimum</text>
<text text-anchor="start" x="460.5" y="-388.8" font-family="Times,serif" font-size="14.00" fill="#000000"> : </text>
<text text-anchor="start" x="471.5" y="-388.8" font-family="mono" font-size="14.00" fill="#c83500">integer</text>
<polygon fill="#ddeeff" stroke="transparent" points="342.5,-360 342.5,-381 521.5,-381 521.5,-360 342.5,-360"/>
<polygon fill="none" stroke="#8ccbf2" points="342.5,-360 342.5,-381 521.5,-381 521.5,-360 342.5,-360"/>
<text text-anchor="start" x="345.5" y="-367.8" font-family="mono" font-size="14.00" fill="#c83500">maximum</text>
<text text-anchor="start" x="406.5" y="-367.8" font-family="Times,serif" font-size="14.00" fill="#000000"> : </text>
<text text-anchor="start" x="417.5" y="-367.8" font-family="mono" font-size="14.00" fill="#c83500">integer</text>
<polygon fill="#ddeeff" stroke="transparent" points="342.5,-339 342.5,-360 521.5,-360 521.5,-339 342.5,-339"/>
<polygon fill="none" stroke="#8ccbf2" points="342.5,-339 342.5,-360 521.5,-360 521.5,-339 342.5,-339"/>
<text text-anchor="start" x="345.5" y="-346.8" font-family="mono" font-size="14.00" fill="#c83500">exclusiveMaximum</text>
<text text-anchor="start" x="464.5" y="-346.8" font-family="Times,serif" font-size="14.00" fill="#000000"> : </text>
<text text-anchor="start" x="475.5" y="-346.8" font-family="mono" font-size="14.00" fill="#c83500">integer</text>
<polygon fill="#ddeeff" stroke="transparent" points="342.5,-318 342.5,-339 521.5,-339 521.5,-318 342.5,-318"/>
<polygon fill="none" stroke="#8ccbf2" points="342.5,-318 342.5,-339 521.5,-339 521.5,-318 342.5,-318"/>
<text text-anchor="start" x="345.5" y="-325.8" font-family="mono" font-size="14.00" fill="#c83500">multipleOf</text>
<text text-anchor="start" x="409.5" y="-325.8" font-family="Times,serif" font-size="14.00" fill="#000000"> : </text>
<text text-anchor="start" x="420.5" y="-325.8" font-family="mono" font-size="14.00" fill="#c83500">integer</text>
</g>
<!-- IntegerSchema&#45;&gt;DataSchema -->
<g id="edge8" class="edge">
<title>IntegerSchema&#45;&gt;DataSchema</title>
<path fill="none" stroke="#000000" d="M485.951,-313.8329C497.0339,-300.1618 508.8968,-285.5285 520.6117,-271.0778"/>
<polygon fill="#ffffff" stroke="#000000" points="523.5202,-273.0478 527.0989,-263.0757 518.0826,-268.6396 523.5202,-273.0478"/>
</g>
<!-- NullSchema -->
<g id="node5" class="node">
<title>NullSchema</title>
<polygon fill="#8ccbf2" stroke="transparent" points="555.5,-370 555.5,-391 642.5,-391 642.5,-370 555.5,-370"/>
<polygon fill="none" stroke="#8ccbf2" points="555.5,-370 555.5,-391 642.5,-391 642.5,-370 555.5,-370"/>
<text text-anchor="start" x="558.5" y="-377.8" font-family="mono" font-weight="bold" font-size="14.00" fill="#c83500">NullSchema</text>
</g>
<!-- NullSchema&#45;&gt;DataSchema -->
<g id="edge9" class="edge">
<title>NullSchema&#45;&gt;DataSchema</title>
<path fill="none" stroke="#000000" d="M598.5,-362.7189C598.5,-342.2851 598.5,-307.5783 598.5,-273.5249"/>
<polygon fill="#ffffff" stroke="#000000" points="602.0001,-273.4739 598.5,-263.4739 595.0001,-273.474 602.0001,-273.4739"/>
</g>
<!-- NumberSchema -->
<g id="node6" class="node">
<title>NumberSchema</title>
<polygon fill="#8ccbf2" stroke="transparent" points="676.5,-423 676.5,-444 855.5,-444 855.5,-423 676.5,-423"/>
<polygon fill="none" stroke="#8ccbf2" points="676.5,-423 676.5,-444 855.5,-444 855.5,-423 676.5,-423"/>
<text text-anchor="start" x="712.5" y="-430.8" font-family="mono" font-weight="bold" font-size="14.00" fill="#c83500">NumberSchema</text>
<polygon fill="#ddeeff" stroke="transparent" points="676.5,-402 676.5,-423 855.5,-423 855.5,-402 676.5,-402"/>
<polygon fill="none" stroke="#8ccbf2" points="676.5,-402 676.5,-423 855.5,-423 855.5,-402 676.5,-402"/>
<text text-anchor="start" x="679.5" y="-409.8" font-family="mono" font-size="14.00" fill="#c83500">minimum</text>
<text text-anchor="start" x="736.5" y="-409.8" font-family="Times,serif" font-size="14.00" fill="#000000"> : </text>
<text text-anchor="start" x="747.5" y="-409.8" font-family="mono" font-size="14.00" fill="#c83500">double</text>
<polygon fill="#ddeeff" stroke="transparent" points="676.5,-381 676.5,-402 855.5,-402 855.5,-381 676.5,-381"/>
<polygon fill="none" stroke="#8ccbf2" points="676.5,-381 676.5,-402 855.5,-402 855.5,-381 676.5,-381"/>
<text text-anchor="start" x="679.5" y="-388.8" font-family="mono" font-size="14.00" fill="#c83500">exclusiveMinimum</text>
<text text-anchor="start" x="794.5" y="-388.8" font-family="Times,serif" font-size="14.00" fill="#000000"> : </text>
<text text-anchor="start" x="805.5" y="-388.8" font-family="mono" font-size="14.00" fill="#c83500">double</text>
<polygon fill="#ddeeff" stroke="transparent" points="676.5,-360 676.5,-381 855.5,-381 855.5,-360 676.5,-360"/>
<polygon fill="none" stroke="#8ccbf2" points="676.5,-360 676.5,-381 855.5,-381 855.5,-360 676.5,-360"/>
<text text-anchor="start" x="679.5" y="-367.8" font-family="mono" font-size="14.00" fill="#c83500">maximum</text>
<text text-anchor="start" x="740.5" y="-367.8" font-family="Times,serif" font-size="14.00" fill="#000000"> : </text>
<text text-anchor="start" x="751.5" y="-367.8" font-family="mono" font-size="14.00" fill="#c83500">double</text>
<polygon fill="#ddeeff" stroke="transparent" points="676.5,-339 676.5,-360 855.5,-360 855.5,-339 676.5,-339"/>
<polygon fill="none" stroke="#8ccbf2" points="676.5,-339 676.5,-360 855.5,-360 855.5,-339 676.5,-339"/>
<text text-anchor="start" x="679.5" y="-346.8" font-family="mono" font-size="14.00" fill="#c83500">exclusiveMaximum</text>
<text text-anchor="start" x="798.5" y="-346.8" font-family="Times,serif" font-size="14.00" fill="#000000"> : </text>
<text text-anchor="start" x="809.5" y="-346.8" font-family="mono" font-size="14.00" fill="#c83500">double</text>
<polygon fill="#ddeeff" stroke="transparent" points="676.5,-318 676.5,-339 855.5,-339 855.5,-318 676.5,-318"/>
<polygon fill="none" stroke="#8ccbf2" points="676.5,-318 676.5,-339 855.5,-339 855.5,-318 676.5,-318"/>
<text text-anchor="start" x="679.5" y="-325.8" font-family="mono" font-size="14.00" fill="#c83500">multipleOf</text>
<text text-anchor="start" x="743.5" y="-325.8" font-family="Times,serif" font-size="14.00" fill="#000000"> : </text>
<text text-anchor="start" x="754.5" y="-325.8" font-family="mono" font-size="14.00" fill="#c83500">double</text>
</g>
<!-- NumberSchema&#45;&gt;DataSchema -->
<g id="edge10" class="edge">
<title>NumberSchema&#45;&gt;DataSchema</title>
<path fill="none" stroke="#000000" d="M711.049,-313.8329C699.9661,-300.1618 688.1032,-285.5285 676.3883,-271.0778"/>
<polygon fill="#ffffff" stroke="#000000" points="678.9174,-268.6396 669.9011,-263.0757 673.4798,-273.0478 678.9174,-268.6396"/>
</g>
<!-- ObjectSchema -->
<g id="node7" class="node">
<title>ObjectSchema</title>
<polygon fill="#8ccbf2" stroke="transparent" points="889.5,-381 889.5,-402 1045.5,-402 1045.5,-381 889.5,-381"/>
<polygon fill="none" stroke="#8ccbf2" points="889.5,-381 889.5,-402 1045.5,-402 1045.5,-381 889.5,-381"/>
<text text-anchor="start" x="918.5" y="-388.8" font-family="mono" font-weight="bold" font-size="14.00" fill="#c83500">ObjectSchema</text>
<polygon fill="#ddeeff" stroke="transparent" points="889.5,-360 889.5,-381 1045.5,-381 1045.5,-360 889.5,-360"/>
<polygon fill="none" stroke="#8ccbf2" points="889.5,-360 889.5,-381 1045.5,-381 1045.5,-360 889.5,-360"/>
<text text-anchor="start" x="892.5" y="-367.8" font-family="mono" font-size="14.00" fill="#c83500">required</text>
<text text-anchor="start" x="944.5" y="-367.8" font-family="Times,serif" font-size="14.00" fill="#000000"> : Array of </text>
<text text-anchor="start" x="1007.5" y="-367.8" font-family="mono" font-size="14.00" fill="#c83500">string</text>
</g>
<!-- ObjectSchema&#45;&gt;DataSchema -->
<g id="edge5" class="edge">
<title>ObjectSchema&#45;&gt;DataSchema</title>
<path fill="none" stroke="#000000" d="M934.0498,-355.9479C915.9392,-342.8249 892.9401,-326.8558 871.5,-314 813.5042,-279.2248 745.7758,-244.7054 692.2882,-218.7656"/>
<polygon fill="#000000" stroke="#000000" points="693.6796,-215.5507 683.1528,-214.3514 690.634,-221.8535 693.6796,-215.5507"/>
<text text-anchor="start" x="835.5" y="-284.8" font-family="mono" font-size="14.00" fill="#c83500">properties</text>
<text text-anchor="middle" x="694.1528" y="-218.1514" font-family="Times,serif" font-size="14.00" fill="#000000">0..*</text>
</g>
<!-- ObjectSchema&#45;&gt;DataSchema -->
<g id="edge11" class="edge">
<title>ObjectSchema&#45;&gt;DataSchema</title>
<path fill="none" stroke="#000000" d="M956.9247,-355.8332C946.2576,-333.2854 927.7567,-300.8035 902.5,-281 841.5425,-233.2041 757.4932,-206.0924 693.218,-191.2773"/>
<polygon fill="#ffffff" stroke="#000000" points="693.602,-187.7765 683.0785,-189.0038 692.0705,-194.607 693.602,-187.7765"/>
</g>
<!-- StringSchema -->
<g id="node8" class="node">
<title>StringSchema</title>
<polygon fill="#8ccbf2" stroke="transparent" points="1079.5,-423 1079.5,-444 1247.5,-444 1247.5,-423 1079.5,-423"/>
<polygon fill="none" stroke="#8ccbf2" points="1079.5,-423 1079.5,-444 1247.5,-444 1247.5,-423 1079.5,-423"/>
<text text-anchor="start" x="1116" y="-430.8" font-family="mono" font-weight="bold" font-size="14.00" fill="#c83500">StringSchema</text>
<polygon fill="#ddeeff" stroke="transparent" points="1079.5,-402 1079.5,-423 1247.5,-423 1247.5,-402 1079.5,-402"/>
<polygon fill="none" stroke="#8ccbf2" points="1079.5,-402 1079.5,-423 1247.5,-423 1247.5,-402 1079.5,-402"/>
<text text-anchor="start" x="1082.5" y="-409.8" font-family="mono" font-size="14.00" fill="#c83500">minLength</text>
<text text-anchor="start" x="1148.5" y="-409.8" font-family="Times,serif" font-size="14.00" fill="#000000"> : </text>
<text text-anchor="start" x="1159.5" y="-409.8" font-family="mono" font-size="14.00" fill="#c83500">unsignedInt</text>
<polygon fill="#ddeeff" stroke="transparent" points="1079.5,-381 1079.5,-402 1247.5,-402 1247.5,-381 1079.5,-381"/>
<polygon fill="none" stroke="#8ccbf2" points="1079.5,-381 1079.5,-402 1247.5,-402 1247.5,-381 1079.5,-381"/>
<text text-anchor="start" x="1082.5" y="-388.8" font-family="mono" font-size="14.00" fill="#c83500">maxLength</text>
<text text-anchor="start" x="1152.5" y="-388.8" font-family="Times,serif" font-size="14.00" fill="#000000"> : </text>
<text text-anchor="start" x="1163.5" y="-388.8" font-family="mono" font-size="14.00" fill="#c83500">unsignedInt</text>
<polygon fill="#ddeeff" stroke="transparent" points="1079.5,-360 1079.5,-381 1247.5,-381 1247.5,-360 1079.5,-360"/>
<polygon fill="none" stroke="#8ccbf2" points="1079.5,-360 1079.5,-381 1247.5,-381 1247.5,-360 1079.5,-360"/>
<text text-anchor="start" x="1082.5" y="-367.8" font-family="mono" font-size="14.00" fill="#c83500">pattern</text>
<text text-anchor="start" x="1126.5" y="-367.8" font-family="Times,serif" font-size="14.00" fill="#000000"> : </text>
<text text-anchor="start" x="1137.5" y="-367.8" font-family="mono" font-size="14.00" fill="#c83500">string</text>
<polygon fill="#ddeeff" stroke="transparent" points="1079.5,-339 1079.5,-360 1247.5,-360 1247.5,-339 1079.5,-339"/>
<polygon fill="none" stroke="#8ccbf2" points="1079.5,-339 1079.5,-360 1247.5,-360 1247.5,-339 1079.5,-339"/>
<text text-anchor="start" x="1082.5" y="-346.8" font-family="mono" font-size="14.00" fill="#c83500">contentEncoding</text>
<text text-anchor="start" x="1187.5" y="-346.8" font-family="Times,serif" font-size="14.00" fill="#000000"> : </text>
<text text-anchor="start" x="1198.5" y="-346.8" font-family="mono" font-size="14.00" fill="#c83500">string</text>
<polygon fill="#ddeeff" stroke="transparent" points="1079.5,-318 1079.5,-339 1247.5,-339 1247.5,-318 1079.5,-318"/>
<polygon fill="none" stroke="#8ccbf2" points="1079.5,-318 1079.5,-339 1247.5,-339 1247.5,-318 1079.5,-318"/>
<text text-anchor="start" x="1082.5" y="-325.8" font-family="mono" font-size="14.00" fill="#c83500">contentMediaType</text>
<text text-anchor="start" x="1198.5" y="-325.8" font-family="Times,serif" font-size="14.00" fill="#000000"> : </text>
<text text-anchor="start" x="1209.5" y="-325.8" font-family="mono" font-size="14.00" fill="#c83500">string</text>
</g>
<!-- StringSchema&#45;&gt;DataSchema -->
<g id="edge12" class="edge">
<title>StringSchema&#45;&gt;DataSchema</title>
<path fill="none" stroke="#000000" d="M1071.3849,-318.3727C1068.4189,-316.8469 1065.4531,-315.3845 1062.5,-314 940.4269,-256.7706 789.2665,-216.7053 693.3315,-194.7517"/>
<polygon fill="#ffffff" stroke="#000000" points="693.884,-191.2882 683.3575,-192.489 692.3353,-198.1148 693.884,-191.2882"/>
</g>
</g>
</svg>
