<?xml version="1.0" encoding="UTF-8" standalone="no"?>
<!DOCTYPE svg PUBLIC "-//W3C//DTD SVG 1.1//EN"
 "http://www.w3.org/Graphics/SVG/1.1/DTD/svg11.dtd">
<!-- Generated by graphviz version 2.38.0 (20140413.2041)
 -->
<!-- Title: %3 Pages: 1 -->
<svg width="1160pt" height="306pt"
 viewBox="0.00 0.00 1160.00 306.00" xmlns="http://www.w3.org/2000/svg" xmlns:xlink="http://www.w3.org/1999/xlink">
<g id="graph0" class="graph" transform="scale(1 1) rotate(0) translate(4 302)">
<title>%3</title>
<polygon fill="white" stroke="none" points="-4,4 -4,-302 1156,-302 1156,4 -4,4"/>
<!-- ArraySchema -->
<g id="node1" class="node"><title>ArraySchema</title>
<polygon fill="#8ccbf2" stroke="none" points="8,-272.5 8,-293.5 184,-293.5 184,-272.5 8,-272.5"/>
<polygon fill="none" stroke="#8ccbf2" points="8,-272.5 8,-293.5 184,-293.5 184,-272.5 8,-272.5"/>
<text text-anchor="start" x="50.5" y="-280.3" font-family="mono" font-weight="bold" font-size="14.00" fill="#c83500">ArraySchema</text>
<polygon fill="#ddeeff" stroke="none" points="8,-251.5 8,-272.5 184,-272.5 184,-251.5 8,-251.5"/>
<polygon fill="none" stroke="#8ccbf2" points="8,-251.5 8,-272.5 184,-272.5 184,-251.5 8,-251.5"/>
<text text-anchor="start" x="11" y="-259.3" font-family="mono" font-size="14.00" fill="#c83500">minItems</text>
<text text-anchor="start" x="78" y="-259.3" font-family="Times,serif" font-size="14.00"> : </text>
<text text-anchor="start" x="90" y="-259.3" font-family="mono" font-size="14.00" fill="#c83500">unsignedInt</text>
<polygon fill="#ddeeff" stroke="none" points="8,-230.5 8,-251.5 184,-251.5 184,-230.5 8,-230.5"/>
<polygon fill="none" stroke="#8ccbf2" points="8,-230.5 8,-251.5 184,-251.5 184,-230.5 8,-230.5"/>
<text text-anchor="start" x="11" y="-238.3" font-family="mono" font-size="14.00" fill="#c83500">maxItems</text>
<text text-anchor="start" x="78" y="-238.3" font-family="Times,serif" font-size="14.00"> : </text>
<text text-anchor="start" x="90" y="-238.3" font-family="mono" font-size="14.00" fill="#c83500">unsignedInt</text>
</g>
<!-- DataSchema -->
<g id="node3" class="node"><title>DataSchema</title>
<polygon fill="#8ccbf2" stroke="none" points="375,-151 375,-172 784,-172 784,-151 375,-151"/>
<polygon fill="none" stroke="#8ccbf2" points="375,-151 375,-172 784,-172 784,-151 375,-151"/>
<text text-anchor="start" x="538" y="-158.8" font-family="mono" font-weight="bold" font-size="14.00" fill="#c83500">DataSchema</text>
<polygon fill="#ddeeff" stroke="none" points="375,-130 375,-151 784,-151 784,-130 375,-130"/>
<polygon fill="none" stroke="#8ccbf2" points="375,-130 375,-151 784,-151 784,-130 375,-130"/>
<text text-anchor="start" x="378" y="-137.8" font-family="mono" font-size="14.00" fill="#c83500">@type</text>
<text text-anchor="start" x="420" y="-137.8" font-family="Times,serif" font-size="14.00"> : </text>
<text text-anchor="start" x="432" y="-137.8" font-family="Times,serif" font-style="italic" font-size="14.00">(Array of) </text>
<text text-anchor="start" x="491" y="-137.8" font-family="mono" font-size="14.00" fill="#c83500">string</text>
<polygon fill="#ddeeff" stroke="none" points="375,-109 375,-130 784,-130 784,-109 375,-109"/>
<polygon fill="none" stroke="#8ccbf2" points="375,-109 375,-130 784,-130 784,-109 375,-109"/>
<text text-anchor="start" x="378" y="-116.8" font-family="mono" font-size="14.00" fill="#c83500">title</text>
<text text-anchor="start" x="420" y="-116.8" font-family="Times,serif" font-size="14.00"> : Map of </text>
<text text-anchor="start" x="476" y="-116.8" font-family="mono" font-size="14.00" fill="#c83500">string</text>
<text text-anchor="start" x="526" y="-116.8" font-family="mono" font-size="14.00" fill="#c83500">titles</text>
<text text-anchor="start" x="576" y="-116.8" font-family="Times,serif" font-size="14.00"> : Map of </text>
<text text-anchor="start" x="632" y="-116.8" font-family="mono" font-size="14.00" fill="#c83500">string</text>
<polygon fill="#ddeeff" stroke="none" points="375,-88 375,-109 784,-109 784,-88 375,-88"/>
<polygon fill="none" stroke="#8ccbf2" points="375,-88 375,-109 784,-109 784,-88 375,-88"/>
<text text-anchor="start" x="378" y="-95.8" font-family="mono" font-size="14.00" fill="#c83500">description</text>
<text text-anchor="start" x="469" y="-95.8" font-family="Times,serif" font-size="14.00"> : Map of </text>
<text text-anchor="start" x="525" y="-95.8" font-family="mono" font-size="14.00" fill="#c83500">string</text>
<text text-anchor="start" x="575" y="-95.8" font-family="mono" font-size="14.00" fill="#c83500">descriptions</text>
<text text-anchor="start" x="675" y="-95.8" font-family="Times,serif" font-size="14.00"> : Map of </text>
<text text-anchor="start" x="731" y="-95.8" font-family="mono" font-size="14.00" fill="#c83500">string</text>
<polygon fill="#ddeeff" stroke="none" points="375,-67 375,-88 784,-88 784,-67 375,-67"/>
<polygon fill="none" stroke="#8ccbf2" points="375,-67 375,-88 784,-88 784,-67 375,-67"/>
<text text-anchor="start" x="378" y="-74.8" font-family="mono" font-size="14.00" fill="#c83500">unit</text>
<text text-anchor="start" x="412" y="-74.8" font-family="Times,serif" font-size="14.00"> : (Array of) </text>
<text text-anchor="start" x="483" y="-74.8" font-family="mono" font-size="14.00" fill="#c83500">string</text>
<polygon fill="#ddeeff" stroke="none" points="375,-46 375,-67 784,-67 784,-46 375,-46"/>
<polygon fill="none" stroke="#8ccbf2" points="375,-46 375,-67 784,-67 784,-46 375,-46"/>
<text text-anchor="start" x="378" y="-53.8" font-family="mono" font-size="14.00" fill="#c83500">readOnly</text>
<text text-anchor="start" x="445" y="-53.8" font-family="Times,serif" font-size="14.00"> : </text>
<text text-anchor="start" x="457" y="-53.8" font-family="mono" font-size="14.00" fill="#c83500">boolean</text>
<polygon fill="#ddeeff" stroke="none" points="375,-25 375,-46 784,-46 784,-25 375,-25"/>
<polygon fill="none" stroke="#8ccbf2" points="375,-25 375,-46 784,-46 784,-25 375,-25"/>
<text text-anchor="start" x="378" y="-32.8" font-family="mono" font-size="14.00" fill="#c83500">writeOnly</text>
<text text-anchor="start" x="453" y="-32.8" font-family="Times,serif" font-size="14.00"> : </text>
<text text-anchor="start" x="465" y="-32.8" font-family="mono" font-size="14.00" fill="#c83500">boolean</text>
<polygon fill="#ddeeff" stroke="none" points="375,-4 375,-25 784,-25 784,-4 375,-4"/>
<polygon fill="none" stroke="#8ccbf2" points="375,-4 375,-25 784,-25 784,-4 375,-4"/>
<text text-anchor="start" x="378" y="-11.8" font-family="mono" font-size="14.00" fill="#c83500">format</text>
<text text-anchor="start" x="428" y="-11.8" font-family="Times,serif" font-size="14.00"> : </text>
<text text-anchor="start" x="440" y="-11.8" font-family="mono" font-size="14.00" fill="#c83500">string</text>
</g>
<!-- ArraySchema&#45;&gt;DataSchema -->
<g id="edge2" class="edge"><title>ArraySchema&#45;&gt;DataSchema</title>
<path fill="none" stroke="black" d="M114.817,-226.884C122.942,-214.85 133.481,-202.302 146,-194 208.108,-152.812 284.795,-127.754 356.292,-112.519"/>
<polygon fill="black" stroke="black" points="357.263,-115.892 366.344,-110.434 355.841,-109.038 357.263,-115.892"/>
<text text-anchor="start" x="146" y="-197.8" font-family="mono" font-size="14.00" fill="#c83500">items</text>
<text text-anchor="middle" x="355.344" y="-114.234" font-family="Times,serif" font-size="14.00">0..*</text>
</g>
<!-- ArraySchema&#45;&gt;DataSchema -->
<g id="edge4" class="edge"><title>ArraySchema&#45;&gt;DataSchema</title>
<path fill="none" stroke="black" d="M192.003,-227.213C239.433,-210.274 298.8,-189.071 356.687,-168.397"/>
<polygon fill="white" stroke="black" points="358.099,-171.61 366.339,-164.95 355.745,-165.018 358.099,-171.61"/>
</g>
<!-- BooleanSchema -->
<g id="node2" class="node"><title>BooleanSchema</title>
<polygon fill="#8ccbf2" stroke="none" points="218,-251.5 218,-272.5 332,-272.5 332,-251.5 218,-251.5"/>
<polygon fill="none" stroke="#8ccbf2" points="218,-251.5 218,-272.5 332,-272.5 332,-251.5 218,-251.5"/>
<text text-anchor="start" x="221" y="-259.3" font-family="mono" font-weight="bold" font-size="14.00" fill="#c83500">BooleanSchema</text>
</g>
<!-- BooleanSchema&#45;&gt;DataSchema -->
<g id="edge5" class="edge"><title>BooleanSchema&#45;&gt;DataSchema</title>
<path fill="none" stroke="black" d="M304.981,-244.488C331.887,-229.22 373.642,-205.527 416.514,-181.2"/>
<polygon fill="white" stroke="black" points="418.416,-184.145 425.386,-176.166 414.961,-178.057 418.416,-184.145"/>
</g>
<!-- DataSchema&#45;&gt;DataSchema -->
<g id="edge1" class="edge"><title>DataSchema&#45;&gt;DataSchema</title>
<path fill="none" stroke="black" d="M791.786,-101.79C802.914,-98.3936 809.5,-93.7969 809.5,-88 809.5,-84.1052 806.527,-80.7522 801.201,-77.941"/>
<polygon fill="black" stroke="black" points="802.372,-74.6404 791.786,-74.2098 799.793,-81.148 802.372,-74.6404"/>
<text text-anchor="start" x="809.5" y="-84.3" font-family="mono" font-size="14.00" fill="#c83500">oneOf</text>
<text text-anchor="middle" x="802.786" y="-63.0098" font-family="Times,serif" font-size="14.00">0..*</text>
</g>
<!-- IntegerSchema -->
<g id="node4" class="node"><title>IntegerSchema</title>
<polygon fill="#8ccbf2" stroke="none" points="366,-272.5 366,-293.5 500,-293.5 500,-272.5 366,-272.5"/>
<polygon fill="none" stroke="#8ccbf2" points="366,-272.5 366,-293.5 500,-293.5 500,-272.5 366,-272.5"/>
<text text-anchor="start" x="379" y="-280.3" font-family="mono" font-weight="bold" font-size="14.00" fill="#c83500">IntegerSchema</text>
<polygon fill="#ddeeff" stroke="none" points="366,-251.5 366,-272.5 500,-272.5 500,-251.5 366,-251.5"/>
<polygon fill="none" stroke="#8ccbf2" points="366,-251.5 366,-272.5 500,-272.5 500,-251.5 366,-251.5"/>
<text text-anchor="start" x="369" y="-259.3" font-family="mono" font-size="14.00" fill="#c83500">minimum</text>
<text text-anchor="start" x="427" y="-259.3" font-family="Times,serif" font-size="14.00"> : </text>
<text text-anchor="start" x="439" y="-259.3" font-family="mono" font-size="14.00" fill="#c83500">integer</text>
<polygon fill="#ddeeff" stroke="none" points="366,-230.5 366,-251.5 500,-251.5 500,-230.5 366,-230.5"/>
<polygon fill="none" stroke="#8ccbf2" points="366,-230.5 366,-251.5 500,-251.5 500,-230.5 366,-230.5"/>
<text text-anchor="start" x="369" y="-238.3" font-family="mono" font-size="14.00" fill="#c83500">maximum</text>
<text text-anchor="start" x="427" y="-238.3" font-family="Times,serif" font-size="14.00"> : </text>
<text text-anchor="start" x="439" y="-238.3" font-family="mono" font-size="14.00" fill="#c83500">integer</text>
</g>
<!-- IntegerSchema&#45;&gt;DataSchema -->
<g id="edge6" class="edge"><title>IntegerSchema&#45;&gt;DataSchema</title>
<path fill="none" stroke="black" d="M462.545,-226.592C473.118,-214.101 485.602,-199.351 498.401,-184.228"/>
<polygon fill="white" stroke="black" points="501.326,-186.19 505.114,-176.296 495.982,-181.668 501.326,-186.19"/>
</g>
<!-- NullSchema -->
<g id="node5" class="node"><title>NullSchema</title>
<polygon fill="#8ccbf2" stroke="none" points="535,-251.5 535,-272.5 624,-272.5 624,-251.5 535,-251.5"/>
<polygon fill="none" stroke="#8ccbf2" points="535,-251.5 535,-272.5 624,-272.5 624,-251.5 535,-251.5"/>
<text text-anchor="start" x="538" y="-259.3" font-family="mono" font-weight="bold" font-size="14.00" fill="#c83500">NullSchema</text>
</g>
<!-- NullSchema&#45;&gt;DataSchema -->
<g id="edge7" class="edge"><title>NullSchema&#45;&gt;DataSchema</title>
<path fill="none" stroke="black" d="M579,-244.329C579,-230.077 579,-208.561 579,-186.048"/>
<polygon fill="white" stroke="black" points="582.5,-186.008 579,-176.008 575.5,-186.008 582.5,-186.008"/>
</g>
<!-- NumberSchema -->
<g id="node6" class="node"><title>NumberSchema</title>
<polygon fill="#8ccbf2" stroke="none" points="658,-272.5 658,-293.5 784,-293.5 784,-272.5 658,-272.5"/>
<polygon fill="none" stroke="#8ccbf2" points="658,-272.5 658,-293.5 784,-293.5 784,-272.5 658,-272.5"/>
<text text-anchor="start" x="671" y="-280.3" font-family="mono" font-weight="bold" font-size="14.00" fill="#c83500">NumberSchema</text>
<polygon fill="#ddeeff" stroke="none" points="658,-251.5 658,-272.5 784,-272.5 784,-251.5 658,-251.5"/>
<polygon fill="none" stroke="#8ccbf2" points="658,-251.5 658,-272.5 784,-272.5 784,-251.5 658,-251.5"/>
<text text-anchor="start" x="661" y="-259.3" font-family="mono" font-size="14.00" fill="#c83500">minimum</text>
<text text-anchor="start" x="719" y="-259.3" font-family="Times,serif" font-size="14.00"> : </text>
<text text-anchor="start" x="731" y="-259.3" font-family="mono" font-size="14.00" fill="#c83500">double</text>
<polygon fill="#ddeeff" stroke="none" points="658,-230.5 658,-251.5 784,-251.5 784,-230.5 658,-230.5"/>
<polygon fill="none" stroke="#8ccbf2" points="658,-230.5 658,-251.5 784,-251.5 784,-230.5 658,-230.5"/>
<text text-anchor="start" x="661" y="-238.3" font-family="mono" font-size="14.00" fill="#c83500">maximum</text>
<text text-anchor="start" x="719" y="-238.3" font-family="Times,serif" font-size="14.00"> : </text>
<text text-anchor="start" x="731" y="-238.3" font-family="mono" font-size="14.00" fill="#c83500">double</text>
</g>
<!-- NumberSchema&#45;&gt;DataSchema -->
<g id="edge8" class="edge"><title>NumberSchema&#45;&gt;DataSchema</title>
<path fill="none" stroke="black" d="M692.264,-226.592C681.982,-214.101 669.839,-199.351 657.391,-184.228"/>
<polygon fill="white" stroke="black" points="659.919,-181.792 650.861,-176.296 654.515,-186.241 659.919,-181.792"/>
</g>
<!-- ObjectSchema -->
<g id="node7" class="node"><title>ObjectSchema</title>
<polygon fill="#8ccbf2" stroke="none" points="819,-262.5 819,-283.5 1004,-283.5 1004,-262.5 819,-262.5"/>
<polygon fill="none" stroke="#8ccbf2" points="819,-262.5 819,-283.5 1004,-283.5 1004,-262.5 819,-262.5"/>
<text text-anchor="start" x="861.5" y="-270.3" font-family="mono" font-weight="bold" font-size="14.00" fill="#c83500">ObjectSchema</text>
<polygon fill="#ddeeff" stroke="none" points="819,-241.5 819,-262.5 1004,-262.5 1004,-241.5 819,-241.5"/>
<polygon fill="none" stroke="#8ccbf2" points="819,-241.5 819,-262.5 1004,-262.5 1004,-241.5 819,-241.5"/>
<text text-anchor="start" x="822" y="-249.3" font-family="mono" font-size="14.00" fill="#c83500">required</text>
<text text-anchor="start" x="889" y="-249.3" font-family="Times,serif" font-size="14.00"> : Array of </text>
<text text-anchor="start" x="951" y="-249.3" font-family="mono" font-size="14.00" fill="#c83500">string</text>
</g>
<!-- ObjectSchema&#45;&gt;DataSchema -->
<g id="edge3" class="edge"><title>ObjectSchema&#45;&gt;DataSchema</title>
<path fill="none" stroke="black" d="M857.977,-237.453C839.225,-228.736 818.062,-218.655 799,-209 781.322,-200.046 762.971,-190.48 744.745,-180.802"/>
<polygon fill="black" stroke="black" points="746.283,-177.656 735.812,-176.045 742.993,-183.835 746.283,-177.656"/>
<text text-anchor="start" x="799" y="-197.8" font-family="mono" font-size="14.00" fill="#c83500">properties</text>
<text text-anchor="middle" x="724.812" y="-179.845" font-family="Times,serif" font-size="14.00">0..*</text>
</g>
<!-- ObjectSchema&#45;&gt;DataSchema -->
<g id="edge9" class="edge"><title>ObjectSchema&#45;&gt;DataSchema</title>
<path fill="none" stroke="black" d="M905.856,-237.403C901.652,-223.055 894.327,-205.467 882,-194 858.635,-172.264 830.543,-154.997 801.011,-141.289"/>
<polygon fill="white" stroke="black" points="802.359,-138.057 791.803,-137.148 799.488,-144.441 802.359,-138.057"/>
</g>
<!-- StringSchema -->
<g id="node8" class="node"><title>StringSchema</title>
<polygon fill="#8ccbf2" stroke="none" points="1038,-251.5 1038,-272.5 1144,-272.5 1144,-251.5 1038,-251.5"/>
<polygon fill="none" stroke="#8ccbf2" points="1038,-251.5 1038,-272.5 1144,-272.5 1144,-251.5 1038,-251.5"/>
<text text-anchor="start" x="1041" y="-259.3" font-family="mono" font-weight="bold" font-size="14.00" fill="#c83500">StringSchema</text>
</g>
<!-- StringSchema&#45;&gt;DataSchema -->
<g id="edge10" class="edge"><title>StringSchema&#45;&gt;DataSchema</title>
<path fill="none" stroke="black" d="M1058.58,-244.488C1046.63,-238.553 1032.87,-232.106 1020,-227 950.03,-199.232 872.103,-173.279 801.453,-151.542"/>
<polygon fill="white" stroke="black" points="802.12,-148.086 791.534,-148.503 800.07,-154.778 802.12,-148.086"/>
</g>
</g>
</svg>
