<?xml version="1.0" encoding="UTF-8" standalone="no"?>
<!DOCTYPE svg PUBLIC "-//W3C//DTD SVG 1.1//EN"
 "http://www.w3.org/Graphics/SVG/1.1/DTD/svg11.dtd">
<!-- Generated by graphviz version 2.38.0 (20140413.2041)
 -->
<!-- Title: %3 Pages: 1 -->
<svg width="1404pt" height="369pt"
 viewBox="0.00 0.00 1403.50 369.00" xmlns="http://www.w3.org/2000/svg" xmlns:xlink="http://www.w3.org/1999/xlink">
<g id="graph0" class="graph" transform="scale(1 1) rotate(0) translate(4 365)">
<title>%3</title>
<polygon fill="white" stroke="none" points="-4,4 -4,-365 1399.5,-365 1399.5,4 -4,4"/>
<!-- ArraySchema -->
<g id="node1" class="node"><title>ArraySchema</title>
<polygon fill="#8ccbf2" stroke="none" points="8,-304 8,-325 184,-325 184,-304 8,-304"/>
<polygon fill="none" stroke="#8ccbf2" points="8,-304 8,-325 184,-325 184,-304 8,-304"/>
<text text-anchor="start" x="50.5" y="-311.8" font-family="mono" font-weight="bold" font-size="14.00" fill="#c83500">ArraySchema</text>
<polygon fill="#ddeeff" stroke="none" points="8,-283 8,-304 184,-304 184,-283 8,-283"/>
<polygon fill="none" stroke="#8ccbf2" points="8,-283 8,-304 184,-304 184,-283 8,-283"/>
<text text-anchor="start" x="11" y="-290.8" font-family="mono" font-size="14.00" fill="#c83500">minItems</text>
<text text-anchor="start" x="78" y="-290.8" font-family="Times,serif" font-size="14.00"> : </text>
<text text-anchor="start" x="90" y="-290.8" font-family="mono" font-size="14.00" fill="#c83500">unsignedInt</text>
<polygon fill="#ddeeff" stroke="none" points="8,-262 8,-283 184,-283 184,-262 8,-262"/>
<polygon fill="none" stroke="#8ccbf2" points="8,-262 8,-283 184,-283 184,-262 8,-262"/>
<text text-anchor="start" x="11" y="-269.8" font-family="mono" font-size="14.00" fill="#c83500">maxItems</text>
<text text-anchor="start" x="78" y="-269.8" font-family="Times,serif" font-size="14.00"> : </text>
<text text-anchor="start" x="90" y="-269.8" font-family="mono" font-size="14.00" fill="#c83500">unsignedInt</text>
</g>
<!-- DataSchema -->
<g id="node3" class="node"><title>DataSchema</title>
<polygon fill="#8ccbf2" stroke="none" points="450,-151 450,-172 859,-172 859,-151 450,-151"/>
<polygon fill="none" stroke="#8ccbf2" points="450,-151 450,-172 859,-172 859,-151 450,-151"/>
<text text-anchor="start" x="613" y="-158.8" font-family="mono" font-weight="bold" font-size="14.00" fill="#c83500">DataSchema</text>
<polygon fill="#ddeeff" stroke="none" points="450,-130 450,-151 859,-151 859,-130 450,-130"/>
<polygon fill="none" stroke="#8ccbf2" points="450,-130 450,-151 859,-151 859,-130 450,-130"/>
<text text-anchor="start" x="453" y="-137.8" font-family="mono" font-size="14.00" fill="#c83500">@type</text>
<text text-anchor="start" x="495" y="-137.8" font-family="Times,serif" font-size="14.00"> : </text>
<text text-anchor="start" x="507" y="-137.8" font-family="Times,serif" font-style="italic" font-size="14.00">(Array of) </text>
<text text-anchor="start" x="566" y="-137.8" font-family="mono" font-size="14.00" fill="#c83500">string</text>
<polygon fill="#ddeeff" stroke="none" points="450,-109 450,-130 859,-130 859,-109 450,-109"/>
<polygon fill="none" stroke="#8ccbf2" points="450,-109 450,-130 859,-130 859,-109 450,-109"/>
<text text-anchor="start" x="453" y="-116.8" font-family="mono" font-size="14.00" fill="#c83500">title</text>
<text text-anchor="start" x="495" y="-116.8" font-family="Times,serif" font-size="14.00"> : Map of </text>
<text text-anchor="start" x="551" y="-116.8" font-family="mono" font-size="14.00" fill="#c83500">string</text>
<text text-anchor="start" x="601" y="-116.8" font-family="mono" font-size="14.00" fill="#c83500">titles</text>
<text text-anchor="start" x="651" y="-116.8" font-family="Times,serif" font-size="14.00"> : Map of </text>
<text text-anchor="start" x="707" y="-116.8" font-family="mono" font-size="14.00" fill="#c83500">string</text>
<polygon fill="#ddeeff" stroke="none" points="450,-88 450,-109 859,-109 859,-88 450,-88"/>
<polygon fill="none" stroke="#8ccbf2" points="450,-88 450,-109 859,-109 859,-88 450,-88"/>
<text text-anchor="start" x="453" y="-95.8" font-family="mono" font-size="14.00" fill="#c83500">readOnly</text>
<text text-anchor="start" x="520" y="-95.8" font-family="Times,serif" font-size="14.00"> : </text>
<text text-anchor="start" x="532" y="-95.8" font-family="mono" font-size="14.00" fill="#c83500">boolean</text>
<polygon fill="#ddeeff" stroke="none" points="450,-67 450,-88 859,-88 859,-67 450,-67"/>
<polygon fill="none" stroke="#8ccbf2" points="450,-67 450,-88 859,-88 859,-67 450,-67"/>
<text text-anchor="start" x="453" y="-74.8" font-family="mono" font-size="14.00" fill="#c83500">writeOnly</text>
<text text-anchor="start" x="528" y="-74.8" font-family="Times,serif" font-size="14.00"> : </text>
<text text-anchor="start" x="540" y="-74.8" font-family="mono" font-size="14.00" fill="#c83500">boolean</text>
<polygon fill="#ddeeff" stroke="none" points="450,-46 450,-67 859,-67 859,-46 450,-46"/>
<polygon fill="none" stroke="#8ccbf2" points="450,-46 450,-67 859,-67 859,-46 450,-46"/>
<text text-anchor="start" x="453" y="-53.8" font-family="mono" font-size="14.00" fill="#c83500">format</text>
<text text-anchor="start" x="503" y="-53.8" font-family="Times,serif" font-size="14.00"> : </text>
<text text-anchor="start" x="515" y="-53.8" font-family="mono" font-size="14.00" fill="#c83500">string</text>
<polygon fill="#ddeeff" stroke="none" points="450,-25 450,-46 859,-46 859,-25 450,-25"/>
<polygon fill="none" stroke="#8ccbf2" points="450,-25 450,-46 859,-46 859,-25 450,-25"/>
<text text-anchor="start" x="453" y="-32.8" font-family="mono" font-size="14.00" fill="#c83500">description</text>
<text text-anchor="start" x="544" y="-32.8" font-family="Times,serif" font-size="14.00"> : Map of </text>
<text text-anchor="start" x="600" y="-32.8" font-family="mono" font-size="14.00" fill="#c83500">string</text>
<text text-anchor="start" x="650" y="-32.8" font-family="mono" font-size="14.00" fill="#c83500">descriptions</text>
<text text-anchor="start" x="750" y="-32.8" font-family="Times,serif" font-size="14.00"> : Map of </text>
<text text-anchor="start" x="806" y="-32.8" font-family="mono" font-size="14.00" fill="#c83500">string</text>
<polygon fill="#ddeeff" stroke="none" points="450,-4 450,-25 859,-25 859,-4 450,-4"/>
<polygon fill="none" stroke="#8ccbf2" points="450,-4 450,-25 859,-25 859,-4 450,-4"/>
<text text-anchor="start" x="453" y="-11.8" font-family="mono" font-size="14.00" fill="#c83500">unit</text>
<text text-anchor="start" x="487" y="-11.8" font-family="Times,serif" font-size="14.00"> : </text>
<text text-anchor="start" x="499" y="-11.8" font-family="mono" font-size="14.00" fill="#c83500">string</text>
</g>
<!-- ArraySchema&#45;&gt;DataSchema -->
<g id="edge2" class="edge"><title>ArraySchema&#45;&gt;DataSchema</title>
<path fill="none" stroke="black" d="M105.119,-258.148C112.585,-236.47 125.361,-209.803 146,-194 191.379,-159.254 316.637,-133.151 431.41,-115.662"/>
<polygon fill="black" stroke="black" points="432.05,-119.105 441.417,-114.155 431.007,-112.183 432.05,-119.105"/>
<text text-anchor="start" x="146" y="-197.8" font-family="mono" font-size="14.00" fill="#c83500">items</text>
<text text-anchor="middle" x="430.417" y="-117.955" font-family="Times,serif" font-size="14.00">0..*</text>
</g>
<!-- ArraySchema&#45;&gt;DataSchema -->
<g id="edge4" class="edge"><title>ArraySchema&#45;&gt;DataSchema</title>
<path fill="none" stroke="black" d="M144.949,-258.458C162.124,-247.373 181.904,-235.721 201,-227 273.733,-193.781 356.585,-165.884 431.37,-144.061"/>
<polygon fill="white" stroke="black" points="432.761,-147.302 441.393,-141.158 430.814,-140.578 432.761,-147.302"/>
</g>
<!-- BooleanSchema -->
<g id="node2" class="node"><title>BooleanSchema</title>
<polygon fill="#8ccbf2" stroke="none" points="218,-283 218,-304 332,-304 332,-283 218,-283"/>
<polygon fill="none" stroke="#8ccbf2" points="218,-283 218,-304 332,-304 332,-283 218,-283"/>
<text text-anchor="start" x="221" y="-290.8" font-family="mono" font-weight="bold" font-size="14.00" fill="#c83500">BooleanSchema</text>
</g>
<!-- BooleanSchema&#45;&gt;DataSchema -->
<g id="edge5" class="edge"><title>BooleanSchema&#45;&gt;DataSchema</title>
<path fill="none" stroke="black" d="M291.137,-275.951C305.379,-261.588 327.209,-241.172 349,-227 374.939,-210.131 403.28,-194.31 431.902,-179.831"/>
<polygon fill="white" stroke="black" points="433.826,-182.782 441.202,-175.177 430.693,-176.522 433.826,-182.782"/>
</g>
<!-- DataSchema&#45;&gt;DataSchema -->
<g id="edge1" class="edge"><title>DataSchema&#45;&gt;DataSchema</title>
<path fill="none" stroke="black" d="M866.786,-101.79C877.914,-98.3936 884.5,-93.7969 884.5,-88 884.5,-84.1052 881.527,-80.7522 876.201,-77.941"/>
<polygon fill="black" stroke="black" points="877.372,-74.6404 866.786,-74.2098 874.793,-81.148 877.372,-74.6404"/>
<text text-anchor="start" x="884.5" y="-84.3" font-family="mono" font-size="14.00" fill="#c83500">oneOf</text>
<text text-anchor="middle" x="877.786" y="-63.0098" font-family="Times,serif" font-size="14.00">0..*</text>
</g>
<!-- IntegerSchema -->
<g id="node4" class="node"><title>IntegerSchema</title>
<polygon fill="#8ccbf2" stroke="none" points="367,-336 367,-357 576,-357 576,-336 367,-336"/>
<polygon fill="none" stroke="#8ccbf2" points="367,-336 367,-357 576,-357 576,-336 367,-336"/>
<text text-anchor="start" x="417.5" y="-343.8" font-family="mono" font-weight="bold" font-size="14.00" fill="#c83500">IntegerSchema</text>
<polygon fill="#ddeeff" stroke="none" points="367,-315 367,-336 576,-336 576,-315 367,-315"/>
<polygon fill="none" stroke="#8ccbf2" points="367,-315 367,-336 576,-336 576,-315 367,-315"/>
<text text-anchor="start" x="370" y="-322.8" font-family="mono" font-size="14.00" fill="#c83500">minimum</text>
<text text-anchor="start" x="428" y="-322.8" font-family="Times,serif" font-size="14.00"> : </text>
<text text-anchor="start" x="440" y="-322.8" font-family="mono" font-size="14.00" fill="#c83500">integer</text>
<polygon fill="#ddeeff" stroke="none" points="367,-294 367,-315 576,-315 576,-294 367,-294"/>
<polygon fill="none" stroke="#8ccbf2" points="367,-294 367,-315 576,-315 576,-294 367,-294"/>
<text text-anchor="start" x="370" y="-301.8" font-family="mono" font-size="14.00" fill="#c83500">exclusiveMinimum</text>
<text text-anchor="start" x="503" y="-301.8" font-family="Times,serif" font-size="14.00"> : </text>
<text text-anchor="start" x="515" y="-301.8" font-family="mono" font-size="14.00" fill="#c83500">integer</text>
<polygon fill="#ddeeff" stroke="none" points="367,-273 367,-294 576,-294 576,-273 367,-273"/>
<polygon fill="none" stroke="#8ccbf2" points="367,-273 367,-294 576,-294 576,-273 367,-273"/>
<text text-anchor="start" x="370" y="-280.8" font-family="mono" font-size="14.00" fill="#c83500">maximum</text>
<text text-anchor="start" x="428" y="-280.8" font-family="Times,serif" font-size="14.00"> : </text>
<text text-anchor="start" x="440" y="-280.8" font-family="mono" font-size="14.00" fill="#c83500">integer</text>
<polygon fill="#ddeeff" stroke="none" points="367,-252 367,-273 576,-273 576,-252 367,-252"/>
<polygon fill="none" stroke="#8ccbf2" points="367,-252 367,-273 576,-273 576,-252 367,-252"/>
<text text-anchor="start" x="370" y="-259.8" font-family="mono" font-size="14.00" fill="#c83500">exclusiveMaximum</text>
<text text-anchor="start" x="503" y="-259.8" font-family="Times,serif" font-size="14.00"> : </text>
<text text-anchor="start" x="515" y="-259.8" font-family="mono" font-size="14.00" fill="#c83500">integer</text>
<polygon fill="#ddeeff" stroke="none" points="367,-231 367,-252 576,-252 576,-231 367,-231"/>
<polygon fill="none" stroke="#8ccbf2" points="367,-231 367,-252 576,-252 576,-231 367,-231"/>
<text text-anchor="start" x="370" y="-238.8" font-family="mono" font-size="14.00" fill="#c83500">multipleOf</text>
<text text-anchor="start" x="453" y="-238.8" font-family="Times,serif" font-size="14.00"> : </text>
<text text-anchor="start" x="465" y="-238.8" font-family="mono" font-size="14.00" fill="#c83500">integer</text>
</g>
<!-- IntegerSchema&#45;&gt;DataSchema -->
<g id="edge6" class="edge"><title>IntegerSchema&#45;&gt;DataSchema</title>
<path fill="none" stroke="black" d="M530.415,-226.767C542.768,-212.996 556.015,-198.229 569.082,-183.663"/>
<polygon fill="white" stroke="black" points="571.821,-185.851 575.893,-176.07 566.61,-181.177 571.821,-185.851"/>
</g>
<!-- NullSchema -->
<g id="node5" class="node"><title>NullSchema</title>
<polygon fill="#8ccbf2" stroke="none" points="610,-283 610,-304 699,-304 699,-283 610,-283"/>
<polygon fill="none" stroke="#8ccbf2" points="610,-283 610,-304 699,-304 699,-283 610,-283"/>
<text text-anchor="start" x="613" y="-290.8" font-family="mono" font-weight="bold" font-size="14.00" fill="#c83500">NullSchema</text>
</g>
<!-- NullSchema&#45;&gt;DataSchema -->
<g id="edge7" class="edge"><title>NullSchema&#45;&gt;DataSchema</title>
<path fill="none" stroke="black" d="M654,-275.958C654,-255.825 654,-220.701 654,-186.293"/>
<polygon fill="white" stroke="black" points="657.5,-186.14 654,-176.14 650.5,-186.14 657.5,-186.14"/>
</g>
<!-- NumberSchema -->
<g id="node6" class="node"><title>NumberSchema</title>
<polygon fill="#8ccbf2" stroke="none" points="733,-336 733,-357 934,-357 934,-336 733,-336"/>
<polygon fill="none" stroke="#8ccbf2" points="733,-336 733,-357 934,-357 934,-336 733,-336"/>
<text text-anchor="start" x="783.5" y="-343.8" font-family="mono" font-weight="bold" font-size="14.00" fill="#c83500">NumberSchema</text>
<polygon fill="#ddeeff" stroke="none" points="733,-315 733,-336 934,-336 934,-315 733,-315"/>
<polygon fill="none" stroke="#8ccbf2" points="733,-315 733,-336 934,-336 934,-315 733,-315"/>
<text text-anchor="start" x="736" y="-322.8" font-family="mono" font-size="14.00" fill="#c83500">minimum</text>
<text text-anchor="start" x="794" y="-322.8" font-family="Times,serif" font-size="14.00"> : </text>
<text text-anchor="start" x="806" y="-322.8" font-family="mono" font-size="14.00" fill="#c83500">double</text>
<polygon fill="#ddeeff" stroke="none" points="733,-294 733,-315 934,-315 934,-294 733,-294"/>
<polygon fill="none" stroke="#8ccbf2" points="733,-294 733,-315 934,-315 934,-294 733,-294"/>
<text text-anchor="start" x="736" y="-301.8" font-family="mono" font-size="14.00" fill="#c83500">exclusiveMinimum</text>
<text text-anchor="start" x="869" y="-301.8" font-family="Times,serif" font-size="14.00"> : </text>
<text text-anchor="start" x="881" y="-301.8" font-family="mono" font-size="14.00" fill="#c83500">double</text>
<polygon fill="#ddeeff" stroke="none" points="733,-273 733,-294 934,-294 934,-273 733,-273"/>
<polygon fill="none" stroke="#8ccbf2" points="733,-273 733,-294 934,-294 934,-273 733,-273"/>
<text text-anchor="start" x="736" y="-280.8" font-family="mono" font-size="14.00" fill="#c83500">maximum</text>
<text text-anchor="start" x="794" y="-280.8" font-family="Times,serif" font-size="14.00"> : </text>
<text text-anchor="start" x="806" y="-280.8" font-family="mono" font-size="14.00" fill="#c83500">double</text>
<polygon fill="#ddeeff" stroke="none" points="733,-252 733,-273 934,-273 934,-252 733,-252"/>
<polygon fill="none" stroke="#8ccbf2" points="733,-252 733,-273 934,-273 934,-252 733,-252"/>
<text text-anchor="start" x="736" y="-259.8" font-family="mono" font-size="14.00" fill="#c83500">exclusiveMaximum</text>
<text text-anchor="start" x="869" y="-259.8" font-family="Times,serif" font-size="14.00"> : </text>
<text text-anchor="start" x="881" y="-259.8" font-family="mono" font-size="14.00" fill="#c83500">double</text>
<polygon fill="#ddeeff" stroke="none" points="733,-231 733,-252 934,-252 934,-231 733,-231"/>
<polygon fill="none" stroke="#8ccbf2" points="733,-231 733,-252 934,-252 934,-231 733,-231"/>
<text text-anchor="start" x="736" y="-238.8" font-family="mono" font-size="14.00" fill="#c83500">multipleOf</text>
<text text-anchor="start" x="819" y="-238.8" font-family="Times,serif" font-size="14.00"> : </text>
<text text-anchor="start" x="831" y="-238.8" font-family="mono" font-size="14.00" fill="#c83500">double</text>
</g>
<!-- NumberSchema&#45;&gt;DataSchema -->
<g id="edge8" class="edge"><title>NumberSchema&#45;&gt;DataSchema</title>
<path fill="none" stroke="black" d="M774.884,-226.767C762.8,-212.996 749.843,-198.229 737.062,-183.663"/>
<polygon fill="white" stroke="black" points="739.626,-181.278 730.4,-176.07 734.365,-185.895 739.626,-181.278"/>
</g>
<!-- ObjectSchema -->
<g id="node7" class="node"><title>ObjectSchema</title>
<polygon fill="#8ccbf2" stroke="none" points="968,-294 968,-315 1153,-315 1153,-294 968,-294"/>
<polygon fill="none" stroke="#8ccbf2" points="968,-294 968,-315 1153,-315 1153,-294 968,-294"/>
<text text-anchor="start" x="1010.5" y="-301.8" font-family="mono" font-weight="bold" font-size="14.00" fill="#c83500">ObjectSchema</text>
<polygon fill="#ddeeff" stroke="none" points="968,-273 968,-294 1153,-294 1153,-273 968,-273"/>
<polygon fill="none" stroke="#8ccbf2" points="968,-273 968,-294 1153,-294 1153,-273 968,-273"/>
<text text-anchor="start" x="971" y="-280.8" font-family="mono" font-size="14.00" fill="#c83500">required</text>
<text text-anchor="start" x="1038" y="-280.8" font-family="Times,serif" font-size="14.00"> : Array of </text>
<text text-anchor="start" x="1100" y="-280.8" font-family="mono" font-size="14.00" fill="#c83500">string</text>
</g>
<!-- ObjectSchema&#45;&gt;DataSchema -->
<g id="edge3" class="edge"><title>ObjectSchema&#45;&gt;DataSchema</title>
<path fill="none" stroke="black" d="M1022.13,-268.944C1001.17,-255.974 974.486,-240.009 950,-227 920.491,-211.323 888.882,-195.551 857.704,-180.558"/>
<polygon fill="black" stroke="black" points="859.016,-177.306 848.486,-176.142 855.992,-183.619 859.016,-177.306"/>
<text text-anchor="start" x="911" y="-197.8" font-family="mono" font-size="14.00" fill="#c83500">properties</text>
<text text-anchor="middle" x="837.486" y="-179.942" font-family="Times,serif" font-size="14.00">0..*</text>
</g>
<!-- ObjectSchema&#45;&gt;DataSchema -->
<g id="edge9" class="edge"><title>ObjectSchema&#45;&gt;DataSchema</title>
<path fill="none" stroke="black" d="M1050.69,-268.722C1040.87,-246.212 1023.27,-213.364 998,-194 962.327,-166.669 919.524,-146.406 876.419,-131.398"/>
<polygon fill="white" stroke="black" points="877.523,-128.076 866.929,-128.178 875.274,-134.705 877.523,-128.076"/>
</g>
<!-- StringSchema -->
<g id="node8" class="node"><title>StringSchema</title>
<polygon fill="#8ccbf2" stroke="none" points="1187,-336 1187,-357 1388,-357 1388,-336 1187,-336"/>
<polygon fill="none" stroke="#8ccbf2" points="1187,-336 1187,-357 1388,-357 1388,-336 1187,-336"/>
<text text-anchor="start" x="1237.5" y="-343.8" font-family="mono" font-weight="bold" font-size="14.00" fill="#c83500">StringSchema</text>
<polygon fill="#ddeeff" stroke="none" points="1187,-315 1187,-336 1388,-336 1388,-315 1187,-315"/>
<polygon fill="none" stroke="#8ccbf2" points="1187,-315 1187,-336 1388,-336 1388,-315 1187,-315"/>
<text text-anchor="start" x="1190" y="-322.8" font-family="mono" font-size="14.00" fill="#c83500">minLength</text>
<text text-anchor="start" x="1265" y="-322.8" font-family="Times,serif" font-size="14.00"> : </text>
<text text-anchor="start" x="1277" y="-322.8" font-family="mono" font-size="14.00" fill="#c83500">unsignedInt</text>
<polygon fill="#ddeeff" stroke="none" points="1187,-294 1187,-315 1388,-315 1388,-294 1187,-294"/>
<polygon fill="none" stroke="#8ccbf2" points="1187,-294 1187,-315 1388,-315 1388,-294 1187,-294"/>
<text text-anchor="start" x="1190" y="-301.8" font-family="mono" font-size="14.00" fill="#c83500">maxLength</text>
<text text-anchor="start" x="1265" y="-301.8" font-family="Times,serif" font-size="14.00"> : </text>
<text text-anchor="start" x="1277" y="-301.8" font-family="mono" font-size="14.00" fill="#c83500">unsignedInt</text>
<polygon fill="#ddeeff" stroke="none" points="1187,-273 1187,-294 1388,-294 1388,-273 1187,-273"/>
<polygon fill="none" stroke="#8ccbf2" points="1187,-273 1187,-294 1388,-294 1388,-273 1187,-273"/>
<text text-anchor="start" x="1190" y="-280.8" font-family="mono" font-size="14.00" fill="#c83500">pattern</text>
<text text-anchor="start" x="1248" y="-280.8" font-family="Times,serif" font-size="14.00"> : </text>
<text text-anchor="start" x="1260" y="-280.8" font-family="mono" font-size="14.00" fill="#c83500">string</text>
<polygon fill="#ddeeff" stroke="none" points="1187,-252 1187,-273 1388,-273 1388,-252 1187,-252"/>
<polygon fill="none" stroke="#8ccbf2" points="1187,-252 1187,-273 1388,-273 1388,-252 1187,-252"/>
<text text-anchor="start" x="1190" y="-259.8" font-family="mono" font-size="14.00" fill="#c83500">contentEncoding</text>
<text text-anchor="start" x="1314" y="-259.8" font-family="Times,serif" font-size="14.00"> : </text>
<text text-anchor="start" x="1326" y="-259.8" font-family="mono" font-size="14.00" fill="#c83500">string</text>
<polygon fill="#ddeeff" stroke="none" points="1187,-231 1187,-252 1388,-252 1388,-231 1187,-231"/>
<polygon fill="none" stroke="#8ccbf2" points="1187,-231 1187,-252 1388,-252 1388,-231 1187,-231"/>
<text text-anchor="start" x="1190" y="-238.8" font-family="mono" font-size="14.00" fill="#c83500">contentMediaType</text>
<text text-anchor="start" x="1323" y="-238.8" font-family="Times,serif" font-size="14.00"> : </text>
<text text-anchor="start" x="1335" y="-238.8" font-family="mono" font-size="14.00" fill="#c83500">string</text>
</g>
<!-- StringSchema&#45;&gt;DataSchema -->
<g id="edge10" class="edge"><title>StringSchema&#45;&gt;DataSchema</title>
<path fill="none" stroke="black" d="M1178.18,-230.886C1175.11,-229.536 1172.04,-228.237 1169,-227 1075.72,-189.103 968.727,-158.496 876.52,-135.826"/>
<polygon fill="white" stroke="black" points="877.332,-132.422 866.787,-133.449 875.671,-139.222 877.332,-132.422"/>
</g>
</g>
</svg>
