<?xml version="1.0" encoding="UTF-8" standalone="no"?>
<!DOCTYPE svg PUBLIC "-//W3C//DTD SVG 1.1//EN"
 "http://www.w3.org/Graphics/SVG/1.1/DTD/svg11.dtd">
<!-- Generated by graphviz version 9.0.0 (20230911.1827)
 -->
<!-- Pages: 1 -->
<svg width="1231pt" height="497pt"
 viewBox="0.00 0.00 1230.50 496.50" xmlns="http://www.w3.org/2000/svg" xmlns:xlink="http://www.w3.org/1999/xlink">
<g id="graph0" class="graph" transform="scale(1 1) rotate(0) translate(4 492.5)">
<polygon fill="white" stroke="none" points="-4,4 -4,-492.5 1226.5,-492.5 1226.5,4 -4,4"/>
<!-- ArraySchema -->
<g id="node1" class="node">
<title>ArraySchema</title>
<polygon fill="#8ccbf2" stroke="none" points="8,-429.75 8,-450.75 155,-450.75 155,-429.75 8,-429.75"/>
<polygon fill="none" stroke="#8ccbf2" points="8,-429.75 8,-450.75 155,-450.75 155,-429.75 8,-429.75"/>
<text text-anchor="start" x="37.62" y="-435.45" font-family="mono" font-weight="bold" font-size="14.00" fill="#c83500">ArraySchema</text>
<polygon fill="#ddeeff" stroke="none" points="8,-407.25 8,-429.75 155,-429.75 155,-407.25 8,-407.25"/>
<polygon fill="none" stroke="#8ccbf2" points="8,-407.25 8,-429.75 155,-429.75 155,-407.25 8,-407.25"/>
<text text-anchor="start" x="11" y="-414.45" font-family="mono" font-size="14.00" fill="#c83500">minItems</text>
<text text-anchor="start" x="67.25" y="-414.45" font-family="Times,serif" font-size="14.00"> : </text>
<text text-anchor="start" x="78.5" y="-414.45" font-family="mono" font-size="14.00" fill="#c83500">unsignedInt</text>
<polygon fill="#ddeeff" stroke="none" points="8,-384.75 8,-407.25 155,-407.25 155,-384.75 8,-384.75"/>
<polygon fill="none" stroke="#8ccbf2" points="8,-384.75 8,-407.25 155,-407.25 155,-384.75 8,-384.75"/>
<text text-anchor="start" x="11" y="-391.95" font-family="mono" font-size="14.00" fill="#c83500">maxItems</text>
<text text-anchor="start" x="71" y="-391.95" font-family="Times,serif" font-size="14.00"> : </text>
<text text-anchor="start" x="82.25" y="-391.95" font-family="mono" font-size="14.00" fill="#c83500">unsignedInt</text>
</g>
<!-- DataSchema -->
<g id="node3" class="node">
<title>DataSchema</title>
<polygon fill="#8ccbf2" stroke="none" points="510.25,-271 510.25,-292 658.75,-292 658.75,-271 510.25,-271"/>
<polygon fill="none" stroke="#8ccbf2" points="510.25,-271 510.25,-292 658.75,-292 658.75,-271 510.25,-271"/>
<text text-anchor="start" x="543.62" y="-276.7" font-family="mono" font-weight="bold" font-size="14.00" fill="#c83500">DataSchema</text>
<polygon fill="#ddeeff" stroke="none" points="510.25,-248.5 510.25,-271 658.75,-271 658.75,-248.5 510.25,-248.5"/>
<polygon fill="none" stroke="#8ccbf2" points="510.25,-248.5 510.25,-271 658.75,-271 658.75,-248.5 510.25,-248.5"/>
<text text-anchor="start" x="513.25" y="-255.7" font-family="mono" font-size="14.00" fill="#c83500">@type</text>
<text text-anchor="start" x="553" y="-255.7" font-family="Times,serif" font-size="14.00"> : </text>
<text text-anchor="start" x="564.25" y="-255.7" font-family="Times,serif" font-style="italic" font-size="14.00">(Array of) </text>
<text text-anchor="start" x="622.75" y="-255.7" font-family="mono" font-size="14.00" fill="#c83500">string</text>
<polygon fill="#ddeeff" stroke="none" points="510.25,-226 510.25,-248.5 658.75,-248.5 658.75,-226 510.25,-226"/>
<polygon fill="none" stroke="#8ccbf2" points="510.25,-226 510.25,-248.5 658.75,-248.5 658.75,-226 510.25,-226"/>
<text text-anchor="start" x="513.25" y="-233.2" font-family="mono" font-size="14.00" fill="#c83500">type</text>
<text text-anchor="start" x="538.75" y="-233.2" font-family="Times,serif" font-size="14.00"> : </text>
<text text-anchor="start" x="550" y="-233.2" font-family="mono" font-size="14.00" fill="#c83500">string</text>
<polygon fill="#ddeeff" stroke="none" points="510.25,-203.5 510.25,-226 658.75,-226 658.75,-203.5 510.25,-203.5"/>
<polygon fill="none" stroke="#8ccbf2" points="510.25,-203.5 510.25,-226 658.75,-226 658.75,-203.5 510.25,-203.5"/>
<text text-anchor="start" x="513.25" y="-210.7" font-family="mono" font-size="14.00" fill="#c83500">title</text>
<text text-anchor="start" x="534.25" y="-210.7" font-family="Times,serif" font-size="14.00"> : </text>
<text text-anchor="start" x="545.5" y="-210.7" font-family="mono" font-size="14.00" fill="#c83500">langString</text>
<polygon fill="#ddeeff" stroke="none" points="510.25,-181 510.25,-203.5 658.75,-203.5 658.75,-181 510.25,-181"/>
<polygon fill="none" stroke="#8ccbf2" points="510.25,-181 510.25,-203.5 658.75,-203.5 658.75,-181 510.25,-181"/>
<text text-anchor="start" x="513.25" y="-188.2" font-family="mono" font-size="14.00" fill="#c83500">unit</text>
<text text-anchor="start" x="535" y="-188.2" font-family="Times,serif" font-size="14.00"> : </text>
<text text-anchor="start" x="546.25" y="-188.2" font-family="mono" font-size="14.00" fill="#c83500">string</text>
<polygon fill="#ddeeff" stroke="none" points="510.25,-158.5 510.25,-181 658.75,-181 658.75,-158.5 510.25,-158.5"/>
<polygon fill="none" stroke="#8ccbf2" points="510.25,-158.5 510.25,-181 658.75,-181 658.75,-158.5 510.25,-158.5"/>
<text text-anchor="start" x="513.25" y="-165.7" font-family="mono" font-size="14.00" fill="#c83500">readOnly</text>
<text text-anchor="start" x="568.75" y="-165.7" font-family="Times,serif" font-size="14.00"> : </text>
<text text-anchor="start" x="580" y="-165.7" font-family="mono" font-size="14.00" fill="#c83500">boolean</text>
<polygon fill="#ddeeff" stroke="none" points="510.25,-136 510.25,-158.5 658.75,-158.5 658.75,-136 510.25,-136"/>
<polygon fill="none" stroke="#8ccbf2" points="510.25,-136 510.25,-158.5 658.75,-158.5 658.75,-136 510.25,-136"/>
<text text-anchor="start" x="513.25" y="-143.2" font-family="mono" font-size="14.00" fill="#c83500">writeOnly</text>
<text text-anchor="start" x="570.25" y="-143.2" font-family="Times,serif" font-size="14.00"> : </text>
<text text-anchor="start" x="581.5" y="-143.2" font-family="mono" font-size="14.00" fill="#c83500">boolean</text>
<polygon fill="#ddeeff" stroke="none" points="510.25,-113.5 510.25,-136 658.75,-136 658.75,-113.5 510.25,-113.5"/>
<polygon fill="none" stroke="#8ccbf2" points="510.25,-113.5 510.25,-136 658.75,-136 658.75,-113.5 510.25,-113.5"/>
<text text-anchor="start" x="513.25" y="-120.7" font-family="mono" font-size="14.00" fill="#c83500">format</text>
<text text-anchor="start" x="552.25" y="-120.7" font-family="Times,serif" font-size="14.00"> : </text>
<text text-anchor="start" x="563.5" y="-120.7" font-family="mono" font-size="14.00" fill="#c83500">string</text>
<polygon fill="#ddeeff" stroke="none" points="510.25,-91 510.25,-113.5 658.75,-113.5 658.75,-91 510.25,-91"/>
<polygon fill="none" stroke="#8ccbf2" points="510.25,-91 510.25,-113.5 658.75,-113.5 658.75,-91 510.25,-91"/>
<text text-anchor="start" x="513.25" y="-98.2" font-family="mono" font-size="14.00" fill="#c83500">description</text>
<text text-anchor="start" x="578.5" y="-98.2" font-family="Times,serif" font-size="14.00"> : </text>
<text text-anchor="start" x="589.75" y="-98.2" font-family="mono" font-size="14.00" fill="#c83500">langString</text>
</g>
<!-- ArraySchema&#45;&gt;DataSchema -->
<g id="edge4" class="edge">
<title>ArraySchema&#45;&gt;DataSchema</title>
<path fill="none" stroke="black" d="M97.42,-380.98C109.09,-358.64 127,-331 150.5,-314 252.39,-240.3 397.4,-211.25 491.23,-199.84"/>
<polygon fill="black" stroke="black" points="491.39,-203.34 500.91,-198.71 490.57,-196.39 491.39,-203.34"/>
<text text-anchor="start" x="150.5" y="-315.7" font-family="mono" font-size="14.00" fill="#c83500">items</text>
<text text-anchor="middle" x="491.91" y="-201.73" font-family="Times,serif" font-size="14.00">0..*</text>
</g>
<!-- ArraySchema&#45;&gt;DataSchema -->
<g id="edge6" class="edge">
<title>ArraySchema&#45;&gt;DataSchema</title>
<path fill="none" stroke="black" d="M122.24,-380.98C137.07,-369.12 154.41,-356.53 171.5,-347 275.54,-288.99 405.67,-244.42 491.75,-218.39"/>
<polygon fill="white" stroke="black" points="492.53,-221.81 501.1,-215.58 490.52,-215.1 492.53,-221.81"/>
</g>
<!-- BooleanSchema -->
<g id="node2" class="node">
<title>BooleanSchema</title>
<polygon fill="#8ccbf2" stroke="none" points="188.62,-407.25 188.62,-428.25 300.38,-428.25 300.38,-407.25 188.62,-407.25"/>
<polygon fill="none" stroke="#8ccbf2" points="188.62,-407.25 188.62,-428.25 300.38,-428.25 300.38,-407.25 188.62,-407.25"/>
<text text-anchor="start" x="191.62" y="-412.95" font-family="mono" font-weight="bold" font-size="14.00" fill="#c83500">BooleanSchema</text>
</g>
<!-- BooleanSchema&#45;&gt;DataSchema -->
<g id="edge7" class="edge">
<title>BooleanSchema&#45;&gt;DataSchema</title>
<path fill="none" stroke="black" d="M260.02,-399.78C274.16,-384.86 296.05,-363.09 317.5,-347 372.44,-305.79 439.33,-267.1 492.42,-238.74"/>
<polygon fill="white" stroke="black" points="493.98,-241.88 501.17,-234.1 490.69,-235.7 493.98,-241.88"/>
</g>
<!-- DataSchema&#45;&gt;DataSchema -->
<g id="edge1" class="edge">
<title>DataSchema&#45;&gt;DataSchema</title>
<path fill="none" stroke="black" d="M666.7,-212.99C677.55,-209.33 684.75,-202.16 684.75,-191.5 684.75,-184.67 681.8,-179.27 676.82,-175.31"/>
<polygon fill="black" stroke="black" points="678.53,-172.25 668.04,-170.71 675.27,-178.45 678.53,-172.25"/>
<text text-anchor="start" x="684.75" y="-185.7" font-family="mono" font-size="14.00" fill="#c83500">oneOf</text>
<text text-anchor="middle" x="677.2" y="-156.71" font-family="Times,serif" font-size="14.00">0..*</text>
</g>
<!-- MultiLanguage -->
<g id="node9" class="node">
<title>MultiLanguage</title>
<polygon fill="#f2f2f2" stroke="none" points="533.5,-7.5 533.5,-28.5 635.5,-28.5 635.5,-7.5 533.5,-7.5"/>
<polygon fill="none" stroke="#8c8c8c" points="533.5,-7.5 533.5,-28.5 635.5,-28.5 635.5,-7.5 533.5,-7.5"/>
<text text-anchor="start" x="536.5" y="-13.2" font-family="mono" font-weight="bold" font-size="14.00">MultiLanguage</text>
</g>
<!-- DataSchema&#45;&gt;MultiLanguage -->
<g id="edge2" class="edge">
<title>DataSchema&#45;&gt;MultiLanguage</title>
<path fill="none" stroke="black" d="M556.22,-87.36C556.16,-76 557.46,-64.69 560.75,-54 561.65,-51.07 562.89,-48.17 564.32,-45.37"/>
<polygon fill="black" stroke="black" points="567.19,-47.39 569.4,-37.03 561.21,-43.75 567.19,-47.39"/>
<text text-anchor="start" x="561.5" y="-55.7" font-family="mono" font-size="14.00" fill="#c83500">titles</text>
<text text-anchor="middle" x="559.69" y="-38.94" font-family="Times,serif" font-size="14.00">0..*</text>
</g>
<!-- DataSchema&#45;&gt;MultiLanguage -->
<g id="edge3" class="edge">
<title>DataSchema&#45;&gt;MultiLanguage</title>
<path fill="none" stroke="black" d="M589.41,-87.25C589.38,-76.02 589.11,-64.77 588.5,-54 588.37,-51.76 588.2,-49.44 588,-47.11"/>
<polygon fill="black" stroke="black" points="591.48,-46.79 586.96,-37.21 584.52,-47.52 591.48,-46.79"/>
<text text-anchor="start" x="589.5" y="-55.7" font-family="mono" font-size="14.00" fill="#c83500">descriptions</text>
<text text-anchor="middle" x="597.3" y="-38.9" font-family="Times,serif" font-size="14.00">0..*</text>
</g>
<!-- IntegerSchema -->
<g id="node4" class="node">
<title>IntegerSchema</title>
<polygon fill="#8ccbf2" stroke="none" points="334.12,-463.5 334.12,-484.5 508.88,-484.5 508.88,-463.5 334.12,-463.5"/>
<polygon fill="none" stroke="#8ccbf2" points="334.12,-463.5 334.12,-484.5 508.88,-484.5 508.88,-463.5 334.12,-463.5"/>
<text text-anchor="start" x="372.75" y="-469.2" font-family="mono" font-weight="bold" font-size="14.00" fill="#c83500">IntegerSchema</text>
<polygon fill="#ddeeff" stroke="none" points="334.12,-441 334.12,-463.5 508.88,-463.5 508.88,-441 334.12,-441"/>
<polygon fill="none" stroke="#8ccbf2" points="334.12,-441 334.12,-463.5 508.88,-463.5 508.88,-441 334.12,-441"/>
<text text-anchor="start" x="337.12" y="-448.2" font-family="mono" font-size="14.00" fill="#c83500">minimum</text>
<text text-anchor="start" x="394.12" y="-448.2" font-family="Times,serif" font-size="14.00"> : </text>
<text text-anchor="start" x="405.38" y="-448.2" font-family="mono" font-size="14.00" fill="#c83500">integer</text>
<polygon fill="#ddeeff" stroke="none" points="334.12,-418.5 334.12,-441 508.88,-441 508.88,-418.5 334.12,-418.5"/>
<polygon fill="none" stroke="#8ccbf2" points="334.12,-418.5 334.12,-441 508.88,-441 508.88,-418.5 334.12,-418.5"/>
<text text-anchor="start" x="337.12" y="-425.7" font-family="mono" font-size="14.00" fill="#c83500">exclusiveMinimum</text>
<text text-anchor="start" x="449.62" y="-425.7" font-family="Times,serif" font-size="14.00"> : </text>
<text text-anchor="start" x="460.88" y="-425.7" font-family="mono" font-size="14.00" fill="#c83500">integer</text>
<polygon fill="#ddeeff" stroke="none" points="334.12,-396 334.12,-418.5 508.88,-418.5 508.88,-396 334.12,-396"/>
<polygon fill="none" stroke="#8ccbf2" points="334.12,-396 334.12,-418.5 508.88,-418.5 508.88,-396 334.12,-396"/>
<text text-anchor="start" x="337.12" y="-403.2" font-family="mono" font-size="14.00" fill="#c83500">maximum</text>
<text text-anchor="start" x="397.88" y="-403.2" font-family="Times,serif" font-size="14.00"> : </text>
<text text-anchor="start" x="409.12" y="-403.2" font-family="mono" font-size="14.00" fill="#c83500">integer</text>
<polygon fill="#ddeeff" stroke="none" points="334.12,-373.5 334.12,-396 508.88,-396 508.88,-373.5 334.12,-373.5"/>
<polygon fill="none" stroke="#8ccbf2" points="334.12,-373.5 334.12,-396 508.88,-396 508.88,-373.5 334.12,-373.5"/>
<text text-anchor="start" x="337.12" y="-380.7" font-family="mono" font-size="14.00" fill="#c83500">exclusiveMaximum</text>
<text text-anchor="start" x="453.38" y="-380.7" font-family="Times,serif" font-size="14.00"> : </text>
<text text-anchor="start" x="464.62" y="-380.7" font-family="mono" font-size="14.00" fill="#c83500">integer</text>
<polygon fill="#ddeeff" stroke="none" points="334.12,-351 334.12,-373.5 508.88,-373.5 508.88,-351 334.12,-351"/>
<polygon fill="none" stroke="#8ccbf2" points="334.12,-351 334.12,-373.5 508.88,-373.5 508.88,-351 334.12,-351"/>
<text text-anchor="start" x="337.12" y="-358.2" font-family="mono" font-size="14.00" fill="#c83500">multipleOf</text>
<text text-anchor="start" x="399.38" y="-358.2" font-family="Times,serif" font-size="14.00"> : </text>
<text text-anchor="start" x="410.62" y="-358.2" font-family="mono" font-size="14.00" fill="#c83500">integer</text>
</g>
<!-- IntegerSchema&#45;&gt;DataSchema -->
<g id="edge8" class="edge">
<title>IntegerSchema&#45;&gt;DataSchema</title>
<path fill="none" stroke="black" d="M472.18,-347.03C481.93,-333.61 492.37,-319.24 502.82,-304.87"/>
<polygon fill="white" stroke="black" points="505.38,-307.3 508.43,-297.16 499.72,-303.19 505.38,-307.3"/>
</g>
<!-- NullSchema -->
<g id="node5" class="node">
<title>NullSchema</title>
<polygon fill="#8ccbf2" stroke="none" points="542.5,-407.25 542.5,-428.25 626.5,-428.25 626.5,-407.25 542.5,-407.25"/>
<polygon fill="none" stroke="#8ccbf2" points="542.5,-407.25 542.5,-428.25 626.5,-428.25 626.5,-407.25 542.5,-407.25"/>
<text text-anchor="start" x="545.5" y="-412.95" font-family="mono" font-weight="bold" font-size="14.00" fill="#c83500">NullSchema</text>
</g>
<!-- NullSchema&#45;&gt;DataSchema -->
<g id="edge9" class="edge">
<title>NullSchema&#45;&gt;DataSchema</title>
<path fill="none" stroke="black" d="M584.5,-399.89C584.5,-379.54 584.5,-343.48 584.5,-307.08"/>
<polygon fill="white" stroke="black" points="588,-307.3 584.5,-297.3 581,-307.3 588,-307.3"/>
</g>
<!-- NumberSchema -->
<g id="node6" class="node">
<title>NumberSchema</title>
<polygon fill="#8ccbf2" stroke="none" points="660.5,-463.5 660.5,-484.5 834.5,-484.5 834.5,-463.5 660.5,-463.5"/>
<polygon fill="none" stroke="#8ccbf2" points="660.5,-463.5 660.5,-484.5 834.5,-484.5 834.5,-463.5 660.5,-463.5"/>
<text text-anchor="start" x="695.38" y="-469.2" font-family="mono" font-weight="bold" font-size="14.00" fill="#c83500">NumberSchema</text>
<polygon fill="#ddeeff" stroke="none" points="660.5,-441 660.5,-463.5 834.5,-463.5 834.5,-441 660.5,-441"/>
<polygon fill="none" stroke="#8ccbf2" points="660.5,-441 660.5,-463.5 834.5,-463.5 834.5,-441 660.5,-441"/>
<text text-anchor="start" x="663.5" y="-448.2" font-family="mono" font-size="14.00" fill="#c83500">minimum</text>
<text text-anchor="start" x="720.5" y="-448.2" font-family="Times,serif" font-size="14.00"> : </text>
<text text-anchor="start" x="731.75" y="-448.2" font-family="mono" font-size="14.00" fill="#c83500">double</text>
<polygon fill="#ddeeff" stroke="none" points="660.5,-418.5 660.5,-441 834.5,-441 834.5,-418.5 660.5,-418.5"/>
<polygon fill="none" stroke="#8ccbf2" points="660.5,-418.5 660.5,-441 834.5,-441 834.5,-418.5 660.5,-418.5"/>
<text text-anchor="start" x="663.5" y="-425.7" font-family="mono" font-size="14.00" fill="#c83500">exclusiveMinimum</text>
<text text-anchor="start" x="776" y="-425.7" font-family="Times,serif" font-size="14.00"> : </text>
<text text-anchor="start" x="787.25" y="-425.7" font-family="mono" font-size="14.00" fill="#c83500">double</text>
<polygon fill="#ddeeff" stroke="none" points="660.5,-396 660.5,-418.5 834.5,-418.5 834.5,-396 660.5,-396"/>
<polygon fill="none" stroke="#8ccbf2" points="660.5,-396 660.5,-418.5 834.5,-418.5 834.5,-396 660.5,-396"/>
<text text-anchor="start" x="663.5" y="-403.2" font-family="mono" font-size="14.00" fill="#c83500">maximum</text>
<text text-anchor="start" x="724.25" y="-403.2" font-family="Times,serif" font-size="14.00"> : </text>
<text text-anchor="start" x="735.5" y="-403.2" font-family="mono" font-size="14.00" fill="#c83500">double</text>
<polygon fill="#ddeeff" stroke="none" points="660.5,-373.5 660.5,-396 834.5,-396 834.5,-373.5 660.5,-373.5"/>
<polygon fill="none" stroke="#8ccbf2" points="660.5,-373.5 660.5,-396 834.5,-396 834.5,-373.5 660.5,-373.5"/>
<text text-anchor="start" x="663.5" y="-380.7" font-family="mono" font-size="14.00" fill="#c83500">exclusiveMaximum</text>
<text text-anchor="start" x="779.75" y="-380.7" font-family="Times,serif" font-size="14.00"> : </text>
<text text-anchor="start" x="791" y="-380.7" font-family="mono" font-size="14.00" fill="#c83500">double</text>
<polygon fill="#ddeeff" stroke="none" points="660.5,-351 660.5,-373.5 834.5,-373.5 834.5,-351 660.5,-351"/>
<polygon fill="none" stroke="#8ccbf2" points="660.5,-351 660.5,-373.5 834.5,-373.5 834.5,-351 660.5,-351"/>
<text text-anchor="start" x="663.5" y="-358.2" font-family="mono" font-size="14.00" fill="#c83500">multipleOf</text>
<text text-anchor="start" x="725.75" y="-358.2" font-family="Times,serif" font-size="14.00"> : </text>
<text text-anchor="start" x="737" y="-358.2" font-family="mono" font-size="14.00" fill="#c83500">double</text>
</g>
<!-- NumberSchema&#45;&gt;DataSchema -->
<g id="edge10" class="edge">
<title>NumberSchema&#45;&gt;DataSchema</title>
<path fill="none" stroke="black" d="M696.82,-347.03C687.07,-333.61 676.63,-319.24 666.18,-304.87"/>
<polygon fill="white" stroke="black" points="669.28,-303.19 660.57,-297.16 663.62,-307.3 669.28,-303.19"/>
</g>
<!-- ObjectSchema -->
<g id="node7" class="node">
<title>ObjectSchema</title>
<polygon fill="#8ccbf2" stroke="none" points="868.88,-418.5 868.88,-439.5 1018.12,-439.5 1018.12,-418.5 868.88,-418.5"/>
<polygon fill="none" stroke="#8ccbf2" points="868.88,-418.5 868.88,-439.5 1018.12,-439.5 1018.12,-418.5 868.88,-418.5"/>
<text text-anchor="start" x="895.88" y="-424.2" font-family="mono" font-weight="bold" font-size="14.00" fill="#c83500">ObjectSchema</text>
<polygon fill="#ddeeff" stroke="none" points="868.88,-396 868.88,-418.5 1018.12,-418.5 1018.12,-396 868.88,-396"/>
<polygon fill="none" stroke="#8ccbf2" points="868.88,-396 868.88,-418.5 1018.12,-418.5 1018.12,-396 868.88,-396"/>
<text text-anchor="start" x="871.88" y="-403.2" font-family="mono" font-size="14.00" fill="#c83500">required</text>
<text text-anchor="start" x="921.38" y="-403.2" font-family="Times,serif" font-size="14.00"> : Array of </text>
<text text-anchor="start" x="982.12" y="-403.2" font-family="mono" font-size="14.00" fill="#c83500">string</text>
</g>
<!-- ObjectSchema&#45;&gt;DataSchema -->
<g id="edge5" class="edge">
<title>ObjectSchema&#45;&gt;DataSchema</title>
<path fill="none" stroke="black" d="M913.11,-392.2C895.51,-378.37 872.7,-361.09 851.5,-347 794.93,-309.4 728.88,-271.14 676.63,-242.09"/>
<polygon fill="black" stroke="black" points="678.47,-239.11 668.03,-237.33 675.08,-245.24 678.47,-239.11"/>
<text text-anchor="start" x="823.5" y="-315.7" font-family="mono" font-size="14.00" fill="#c83500">properties</text>
<text text-anchor="middle" x="677.21" y="-239.8" font-family="Times,serif" font-size="14.00">0..*</text>
</g>
<!-- ObjectSchema&#45;&gt;DataSchema -->
<g id="edge11" class="edge">
<title>ObjectSchema&#45;&gt;DataSchema</title>
<path fill="none" stroke="black" d="M935.03,-392.05C926.01,-369.05 909.67,-335.21 885.5,-314 826.24,-262 741.85,-230.54 677.5,-212.71"/>
<polygon fill="white" stroke="black" points="678.57,-209.38 668,-210.15 676.75,-216.14 678.57,-209.38"/>
</g>
<!-- StringSchema -->
<g id="node8" class="node">
<title>StringSchema</title>
<polygon fill="#8ccbf2" stroke="none" points="1052.5,-463.5 1052.5,-484.5 1214.5,-484.5 1214.5,-463.5 1052.5,-463.5"/>
<polygon fill="none" stroke="#8ccbf2" points="1052.5,-463.5 1052.5,-484.5 1214.5,-484.5 1214.5,-463.5 1052.5,-463.5"/>
<text text-anchor="start" x="1087.75" y="-469.2" font-family="mono" font-weight="bold" font-size="14.00" fill="#c83500">StringSchema</text>
<polygon fill="#ddeeff" stroke="none" points="1052.5,-441 1052.5,-463.5 1214.5,-463.5 1214.5,-441 1052.5,-441"/>
<polygon fill="none" stroke="#8ccbf2" points="1052.5,-441 1052.5,-463.5 1214.5,-463.5 1214.5,-441 1052.5,-441"/>
<text text-anchor="start" x="1055.5" y="-448.2" font-family="mono" font-size="14.00" fill="#c83500">minLength</text>
<text text-anchor="start" x="1119.25" y="-448.2" font-family="Times,serif" font-size="14.00"> : </text>
<text text-anchor="start" x="1130.5" y="-448.2" font-family="mono" font-size="14.00" fill="#c83500">unsignedInt</text>
<polygon fill="#ddeeff" stroke="none" points="1052.5,-418.5 1052.5,-441 1214.5,-441 1214.5,-418.5 1052.5,-418.5"/>
<polygon fill="none" stroke="#8ccbf2" points="1052.5,-418.5 1052.5,-441 1214.5,-441 1214.5,-418.5 1052.5,-418.5"/>
<text text-anchor="start" x="1055.5" y="-425.7" font-family="mono" font-size="14.00" fill="#c83500">maxLength</text>
<text text-anchor="start" x="1123" y="-425.7" font-family="Times,serif" font-size="14.00"> : </text>
<text text-anchor="start" x="1134.25" y="-425.7" font-family="mono" font-size="14.00" fill="#c83500">unsignedInt</text>
<polygon fill="#ddeeff" stroke="none" points="1052.5,-396 1052.5,-418.5 1214.5,-418.5 1214.5,-396 1052.5,-396"/>
<polygon fill="none" stroke="#8ccbf2" points="1052.5,-396 1052.5,-418.5 1214.5,-418.5 1214.5,-396 1052.5,-396"/>
<text text-anchor="start" x="1055.5" y="-403.2" font-family="mono" font-size="14.00" fill="#c83500">pattern</text>
<text text-anchor="start" x="1097.5" y="-403.2" font-family="Times,serif" font-size="14.00"> : </text>
<text text-anchor="start" x="1108.75" y="-403.2" font-family="mono" font-size="14.00" fill="#c83500">string</text>
<polygon fill="#ddeeff" stroke="none" points="1052.5,-373.5 1052.5,-396 1214.5,-396 1214.5,-373.5 1052.5,-373.5"/>
<polygon fill="none" stroke="#8ccbf2" points="1052.5,-373.5 1052.5,-396 1214.5,-396 1214.5,-373.5 1052.5,-373.5"/>
<text text-anchor="start" x="1055.5" y="-380.7" font-family="mono" font-size="14.00" fill="#c83500">contentEncoding</text>
<text text-anchor="start" x="1156" y="-380.7" font-family="Times,serif" font-size="14.00"> : </text>
<text text-anchor="start" x="1167.25" y="-380.7" font-family="mono" font-size="14.00" fill="#c83500">string</text>
<polygon fill="#ddeeff" stroke="none" points="1052.5,-351 1052.5,-373.5 1214.5,-373.5 1214.5,-351 1052.5,-351"/>
<polygon fill="none" stroke="#8ccbf2" points="1052.5,-351 1052.5,-373.5 1214.5,-373.5 1214.5,-351 1052.5,-351"/>
<text text-anchor="start" x="1055.5" y="-358.2" font-family="mono" font-size="14.00" fill="#c83500">contentMediaType</text>
<text text-anchor="start" x="1167.25" y="-358.2" font-family="Times,serif" font-size="14.00"> : </text>
<text text-anchor="start" x="1178.5" y="-358.2" font-family="mono" font-size="14.00" fill="#c83500">string</text>
</g>
<!-- StringSchema&#45;&gt;DataSchema -->
<g id="edge12" class="edge">
<title>StringSchema&#45;&gt;DataSchema</title>
<path fill="none" stroke="black" d="M1044.72,-351.96C1041.64,-350.23 1038.57,-348.57 1035.5,-347 917.58,-286.46 770.68,-241.2 677.22,-215.79"/>
<polygon fill="white" stroke="black" points="678.4,-212.49 667.84,-213.26 676.58,-219.25 678.4,-212.49"/>
</g>
</g>
</svg>
