<?xml version="1.0" encoding="UTF-8" standalone="no"?>
<!DOCTYPE svg PUBLIC "-//W3C//DTD SVG 1.1//EN"
 "http://www.w3.org/Graphics/SVG/1.1/DTD/svg11.dtd">
<!-- Generated by graphviz version 2.38.0 (20140413.2041)
 -->
<!-- Title: %3 Pages: 1 -->
<svg width="1156pt" height="414pt"
 viewBox="0.00 0.00 1155.50 414.00" xmlns="http://www.w3.org/2000/svg" xmlns:xlink="http://www.w3.org/1999/xlink">
<g id="graph0" class="graph" transform="scale(1 1) rotate(0) translate(4 410)">
<title>%3</title>
<polygon fill="white" stroke="none" points="-4,4 -4,-410 1151.5,-410 1151.5,4 -4,4"/>
<!-- IntegerSchema -->
<g id="node1" class="node"><title>IntegerSchema</title>
<polygon fill="#8ccbf2" stroke="none" points="8,-380.5 8,-401.5 142,-401.5 142,-380.5 8,-380.5"/>
<polygon fill="none" stroke="#8ccbf2" points="8,-380.5 8,-401.5 142,-401.5 142,-380.5 8,-380.5"/>
<text text-anchor="start" x="21" y="-388.3" font-family="mono" font-weight="bold" font-size="14.00" fill="#c83500">IntegerSchema</text>
<polygon fill="#ddeeff" stroke="none" points="8,-359.5 8,-380.5 142,-380.5 142,-359.5 8,-359.5"/>
<polygon fill="none" stroke="#8ccbf2" points="8,-359.5 8,-380.5 142,-380.5 142,-359.5 8,-359.5"/>
<text text-anchor="start" x="11" y="-367.3" font-family="mono" font-size="14.00" fill="#c83500">minimum</text>
<text text-anchor="start" x="69" y="-367.3" font-family="Times,serif" font-size="14.00"> : </text>
<text text-anchor="start" x="81" y="-367.3" font-family="mono" font-size="14.00" fill="#c83500">integer</text>
<polygon fill="#ddeeff" stroke="none" points="8,-338.5 8,-359.5 142,-359.5 142,-338.5 8,-338.5"/>
<polygon fill="none" stroke="#8ccbf2" points="8,-338.5 8,-359.5 142,-359.5 142,-338.5 8,-338.5"/>
<text text-anchor="start" x="11" y="-346.3" font-family="mono" font-size="14.00" fill="#c83500">maximum</text>
<text text-anchor="start" x="69" y="-346.3" font-family="Times,serif" font-size="14.00"> : </text>
<text text-anchor="start" x="81" y="-346.3" font-family="mono" font-size="14.00" fill="#c83500">integer</text>
</g>
<!-- DataSchema -->
<g id="node8" class="node"><title>DataSchema</title>
<polygon fill="#8ccbf2" stroke="none" points="506,-258.5 506,-279.5 729,-279.5 729,-258.5 506,-258.5"/>
<polygon fill="none" stroke="#8ccbf2" points="506,-258.5 506,-279.5 729,-279.5 729,-258.5 506,-258.5"/>
<text text-anchor="start" x="576" y="-266.3" font-family="mono" font-weight="bold" font-size="14.00" fill="#c83500">DataSchema</text>
<polygon fill="#ddeeff" stroke="none" points="506,-237.5 506,-258.5 729,-258.5 729,-237.5 506,-237.5"/>
<polygon fill="none" stroke="#8ccbf2" points="506,-237.5 506,-258.5 729,-258.5 729,-237.5 506,-237.5"/>
<text text-anchor="start" x="509" y="-245.3" font-family="mono" font-size="14.00" fill="#c83500">@context</text>
<text text-anchor="start" x="576" y="-245.3" font-family="Times,serif" font-size="14.00"> : </text>
<text text-anchor="start" x="588" y="-245.3" font-family="Times,serif" font-style="italic" font-size="14.00">array</text>
<text text-anchor="start" x="619" y="-245.3" font-family="Times,serif" font-size="14.00"> </text>
<text text-anchor="start" x="623" y="-245.3" font-family="Times,serif" font-style="italic" font-size="14.00">(mandatory)</text>
<polygon fill="#ddeeff" stroke="none" points="506,-216.5 506,-237.5 729,-237.5 729,-216.5 506,-216.5"/>
<polygon fill="none" stroke="#8ccbf2" points="506,-216.5 506,-237.5 729,-237.5 729,-216.5 506,-216.5"/>
<text text-anchor="start" x="509" y="-224.3" font-family="mono" font-size="14.00" fill="#c83500">@type</text>
<text text-anchor="start" x="551" y="-224.3" font-family="Times,serif" font-size="14.00"> : </text>
<text text-anchor="start" x="563" y="-224.3" font-family="Times,serif" font-style="italic" font-size="14.00">array of </text>
<text text-anchor="start" x="612" y="-224.3" font-family="mono" font-size="14.00" fill="#c83500">string</text>
<polygon fill="#ddeeff" stroke="none" points="506,-195.5 506,-216.5 729,-216.5 729,-195.5 506,-195.5"/>
<polygon fill="none" stroke="#8ccbf2" points="506,-195.5 506,-216.5 729,-216.5 729,-195.5 506,-195.5"/>
<text text-anchor="start" x="509" y="-203.3" font-family="mono" font-size="14.00" fill="#c83500">format</text>
<text text-anchor="start" x="559" y="-203.3" font-family="Times,serif" font-size="14.00" fill="#000000"> : </text>
<text text-anchor="start" x="571" y="-203.3" font-family="mono" font-size="14.00" fill="#c83500">string</text>
<polygon fill="#ddeeff" stroke="transparent" points="506,-174.5 506,-195.5 729,-195.5 729,-174.5 506,-174.5"/>
<polygon fill="none" stroke="#8ccbf2" points="506,-174.5 506,-195.5 729,-195.5 729,-174.5 506,-174.5"/>
<text text-anchor="start" x="509" y="-182.3" font-family="mono" font-size="14.00" fill="#c83500">description</text>
<text text-anchor="start" x="600" y="-182.3" font-family="Times,serif" font-size="14.00" fill="#000000"> : </text>
<text text-anchor="start" x="612" y="-182.3" font-family="mono" font-size="14.00" fill="#c83500">string</text>
<polygon fill="#ddeeff" stroke="transparent" points="506,-153.5 506,-174.5 729,-174.5 729,-153.5 506,-153.5"/>
<polygon fill="none" stroke="#8ccbf2" points="506,-153.5 506,-174.5 729,-174.5 729,-153.5 506,-153.5"/>
<text text-anchor="start" x="509" y="-161.3" font-family="mono" font-size="14.00" fill="#c83500">title</text>
<text text-anchor="start" x="551" y="-161.3" font-family="Times,serif" font-size="14.00" fill="#000000"> : </text>
<text text-anchor="start" x="563" y="-161.3" font-family="mono" font-size="14.00" fill="#c83500">string</text>
<polygon fill="#ddeeff" stroke="transparent" points="506,-132.5 506,-153.5 729,-153.5 729,-132.5 506,-132.5"/>
<polygon fill="none" stroke="#8ccbf2" points="506,-132.5 506,-153.5 729,-153.5 729,-132.5 506,-132.5"/>
<text text-anchor="start" x="509" y="-140.3" font-family="mono" font-size="14.00" fill="#c83500">type</text>
<text text-anchor="start" x="543" y="-140.3" font-family="Times,serif" font-size="14.00" fill="#000000"> : </text>
<text text-anchor="start" x="555" y="-140.3" font-family="mono" font-size="14.00" fill="#c83500">string</text>
<polygon fill="#ddeeff" stroke="transparent" points="506,-111.5 506,-132.5 729,-132.5 729,-111.5 506,-111.5"/>
<polygon fill="none" stroke="#8ccbf2" points="506,-111.5 506,-132.5 729,-132.5 729,-111.5 506,-111.5"/>
<text text-anchor="start" x="509" y="-119.3" font-family="mono" font-size="14.00" fill="#c83500">writeOnly</text>
<text text-anchor="start" x="584" y="-119.3" font-family="Times,serif" font-size="14.00" fill="#000000"> : </text>
<text text-anchor="start" x="596" y="-119.3" font-family="mono" font-size="14.00" fill="#c83500">boolean</text>
<text text-anchor="start" x="654" y="-119.3" font-family="Times,serif" font-size="14.00" fill="#000000"> </text>
<text text-anchor="start" x="658" y="-119.3" font-family="Times,serif" font-style="italic" font-size="14.00" fill="#000000">(mandatory)</text>
<polygon fill="#ddeeff" stroke="transparent" points="506,-90.5 506,-111.5 729,-111.5 729,-90.5 506,-90.5"/>
<polygon fill="none" stroke="#8ccbf2" points="506,-90.5 506,-111.5 729,-111.5 729,-90.5 506,-90.5"/>
<text text-anchor="start" x="509" y="-98.3" font-family="mono" font-size="14.00" fill="#c83500">readOnly</text>
<text text-anchor="start" x="576" y="-98.3" font-family="Times,serif" font-size="14.00" fill="#000000"> : </text>
<text text-anchor="start" x="588" y="-98.3" font-family="mono" font-size="14.00" fill="#c83500">boolean</text>
<text text-anchor="start" x="646" y="-98.3" font-family="Times,serif" font-size="14.00" fill="#000000"> </text>
<text text-anchor="start" x="650" y="-98.3" font-family="Times,serif" font-style="italic" font-size="14.00" fill="#000000">(mandatory)</text>
</g>
<!-- IntegerSchema&#45;&gt;DataSchema -->
<g id="edge10" class="edge">
<title>IntegerSchema&#45;&gt;DataSchema</title>
<path fill="none" stroke="#000000" d="M150.4356,-338.2655C153.3201,-337.1455 156.1823,-336.0532 159,-335 268.7231,-293.9898 395.46,-253.1092 487.7603,-224.4892"/>
<polygon fill="#ffffff" stroke="#000000" points="488.9097,-227.7973 497.4279,-221.4972 486.8401,-221.1102 488.9097,-227.7973"/>
</g>
<!-- StringSchema -->
<g id="node2" class="node"><title>StringSchema</title>
<polygon fill="#8ccbf2" stroke="none" points="176,-359.5 176,-380.5 282,-380.5 282,-359.5 176,-359.5"/>
<polygon fill="none" stroke="#8ccbf2" points="176,-359.5 176,-380.5 282,-380.5 282,-359.5 176,-359.5"/>
<text text-anchor="start" x="179" y="-367.3" font-family="mono" font-weight="bold" font-size="14.00" fill="#c83500">StringSchema</text>
</g>
<!-- StringSchema&#45;&gt;DataSchema -->
<g id="edge13" class="edge"><title>StringSchema&#45;&gt;DataSchema</title>
<path fill="none" stroke="black" d="M263.466,-352.334C274.764,-346.755 287.396,-340.568 299,-335 361.052,-305.224 430.256,-272.813 488.22,-245.889"/>
<polygon fill="white" stroke="black" points="489.827,-249.002 497.424,-241.617 486.88,-242.653 489.827,-249.002"/>
</g>
<!-- BooleanSchema -->
<g id="node3" class="node"><title>BooleanSchema</title>
<polygon fill="#8ccbf2" stroke="none" points="316,-359.5 316,-380.5 430,-380.5 430,-359.5 316,-359.5"/>
<polygon fill="none" stroke="#8ccbf2" points="316,-359.5 316,-380.5 430,-380.5 430,-359.5 316,-359.5"/>
<text text-anchor="start" x="319" y="-367.3" font-family="mono" font-weight="bold" font-size="14.00" fill="#c83500">BooleanSchema</text>
</g>
<!-- BooleanSchema&#45;&gt;DataSchema -->
<g id="edge11" class="edge">
<title>BooleanSchema&#45;&gt;DataSchema</title>
<path fill="none" stroke="#000000" d="M396.84,-352.4246C418.9696,-335.646 453.7484,-309.2768 489.183,-282.4104"/>
<polygon fill="#ffffff" stroke="#000000" points="491.3749,-285.1408 497.2289,-276.3101 487.1457,-279.5628 491.3749,-285.1408"/>
</g>
<!-- NumberSchema -->
<g id="node4" class="node"><title>NumberSchema</title>
<polygon fill="#8ccbf2" stroke="none" points="464,-380.5 464,-401.5 590,-401.5 590,-380.5 464,-380.5"/>
<polygon fill="none" stroke="#8ccbf2" points="464,-380.5 464,-401.5 590,-401.5 590,-380.5 464,-380.5"/>
<text text-anchor="start" x="477" y="-388.3" font-family="mono" font-weight="bold" font-size="14.00" fill="#c83500">NumberSchema</text>
<polygon fill="#ddeeff" stroke="none" points="464,-359.5 464,-380.5 590,-380.5 590,-359.5 464,-359.5"/>
<polygon fill="none" stroke="#8ccbf2" points="464,-359.5 464,-380.5 590,-380.5 590,-359.5 464,-359.5"/>
<text text-anchor="start" x="467" y="-367.3" font-family="mono" font-size="14.00" fill="#c83500">maximum</text>
<text text-anchor="start" x="525" y="-367.3" font-family="Times,serif" font-size="14.00"> : </text>
<text text-anchor="start" x="537" y="-367.3" font-family="mono" font-size="14.00" fill="#c83500">double</text>
<polygon fill="#ddeeff" stroke="none" points="464,-338.5 464,-359.5 590,-359.5 590,-338.5 464,-338.5"/>
<polygon fill="none" stroke="#8ccbf2" points="464,-338.5 464,-359.5 590,-359.5 590,-338.5 464,-338.5"/>
<text text-anchor="start" x="467" y="-346.3" font-family="mono" font-size="14.00" fill="#c83500">minimum</text>
<text text-anchor="start" x="525" y="-346.3" font-family="Times,serif" font-size="14.00"> : </text>
<text text-anchor="start" x="537" y="-346.3" font-family="mono" font-size="14.00" fill="#c83500">double</text>
</g>
<!-- NumberSchema&#45;&gt;DataSchema -->
<g id="edge7" class="edge">
<title>NumberSchema&#45;&gt;DataSchema</title>
<path fill="none" stroke="#000000" d="M544.3529,-334.8301C550.275,-322.657 557.2401,-308.3398 564.4722,-293.4739"/>
<polygon fill="#ffffff" stroke="#000000" points="567.7753,-294.6846 569.0027,-284.1611 561.4807,-291.6223 567.7753,-294.6846"/>
</g>
<!-- ObjectSchema -->
<g id="node5" class="node"><title>ObjectSchema</title>
<polygon fill="#8ccbf2" stroke="none" points="625,-370.5 625,-391.5 806,-391.5 806,-370.5 625,-370.5"/>
<polygon fill="none" stroke="#8ccbf2" points="625,-370.5 625,-391.5 806,-391.5 806,-370.5 625,-370.5"/>
<text text-anchor="start" x="665.5" y="-378.3" font-family="mono" font-weight="bold" font-size="14.00" fill="#c83500">ObjectSchema</text>
<polygon fill="#ddeeff" stroke="none" points="625,-349.5 625,-370.5 806,-370.5 806,-349.5 625,-349.5"/>
<polygon fill="none" stroke="#8ccbf2" points="625,-349.5 625,-370.5 806,-370.5 806,-349.5 625,-349.5"/>
<text text-anchor="start" x="628" y="-357.3" font-family="mono" font-size="14.00" fill="#c83500">required</text>
<text text-anchor="start" x="695" y="-357.3" font-family="Times,serif" font-size="14.00"> : array of </text>
<text text-anchor="start" x="753" y="-357.3" font-family="mono" font-size="14.00" fill="#c83500">string</text>
</g>
<!-- ObjectSchema&#45;&gt;DataSchema -->
<g id="edge1" class="edge"><title>ObjectSchema&#45;&gt;DataSchema</title>
<path fill="none" stroke="black" d="M647.71,-345.436C635.883,-338.14 625.102,-328.817 618,-317 613.727,-309.89 610.655,-302.144 608.529,-294.09"/>
<polygon fill="black" stroke="black" points="611.913,-293.176 606.388,-284.135 605.069,-294.648 611.913,-293.176"/>
<text text-anchor="start" x="618" y="-305.8" font-family="mono" font-size="14.00" fill="#c83500">properties</text>
<text text-anchor="middle" x="595.388" y="-287.935" font-family="Times,serif" font-size="14.00">0..1</text>
</g>
<!-- ObjectSchema&#45;&gt;DataSchema -->
<g id="edge9" class="edge">
<title>ObjectSchema&#45;&gt;DataSchema</title>
<path fill="none" stroke="#000000" d="M712.4439,-345.3164C710.4604,-332.0211 706.9944,-315.6738 701,-302 699.7392,-299.124 698.3992,-296.249 696.9907,-293.3819"/>
<polygon fill="#ffffff" stroke="#000000" points="699.9761,-291.5352 692.2734,-284.2607 693.7584,-294.751 699.9761,-291.5352"/>
</g>
<!-- ArraySchema -->
<g id="node6" class="node"><title>ArraySchema</title>
<polygon fill="#8ccbf2" stroke="none" points="840,-380.5 840,-401.5 1016,-401.5 1016,-380.5 840,-380.5"/>
<polygon fill="none" stroke="#8ccbf2" points="840,-380.5 840,-401.5 1016,-401.5 1016,-380.5 840,-380.5"/>
<text text-anchor="start" x="882.5" y="-388.3" font-family="mono" font-weight="bold" font-size="14.00" fill="#c83500">ArraySchema</text>
<polygon fill="#ddeeff" stroke="none" points="840,-359.5 840,-380.5 1016,-380.5 1016,-359.5 840,-359.5"/>
<polygon fill="none" stroke="#8ccbf2" points="840,-359.5 840,-380.5 1016,-380.5 1016,-359.5 840,-359.5"/>
<text text-anchor="start" x="843" y="-367.3" font-family="mono" font-size="14.00" fill="#c83500">maxItems</text>
<text text-anchor="start" x="910" y="-367.3" font-family="Times,serif" font-size="14.00"> : </text>
<text text-anchor="start" x="922" y="-367.3" font-family="mono" font-size="14.00" fill="#c83500">unsignedInt</text>
<polygon fill="#ddeeff" stroke="none" points="840,-338.5 840,-359.5 1016,-359.5 1016,-338.5 840,-338.5"/>
<polygon fill="none" stroke="#8ccbf2" points="840,-338.5 840,-359.5 1016,-359.5 1016,-338.5 840,-338.5"/>
<text text-anchor="start" x="843" y="-346.3" font-family="mono" font-size="14.00" fill="#c83500">minItems</text>
<text text-anchor="start" x="910" y="-346.3" font-family="Times,serif" font-size="14.00"> : </text>
<text text-anchor="start" x="922" y="-346.3" font-family="mono" font-size="14.00" fill="#c83500">unsignedInt</text>
</g>
<!-- ArraySchema&#45;&gt;DataSchema -->
<g id="edge2" class="edge"><title>ArraySchema&#45;&gt;DataSchema</title>
<path fill="none" stroke="black" d="M869.138,-334.864C834.211,-314.312 788.508,-287.42 745.619,-262.183"/>
<polygon fill="black" stroke="black" points="747.193,-259.048 736.799,-256.993 743.643,-265.081 747.193,-259.048"/>
<text text-anchor="start" x="837" y="-305.8" font-family="mono" font-size="14.00" fill="#c83500">items</text>
<text text-anchor="middle" x="747.799" y="-260.793" font-family="Times,serif" font-size="14.00">0..1</text>
</g>
<!-- ArraySchema&#45;&gt;DataSchema -->
<g id="edge8" class="edge">
<title>ArraySchema&#45;&gt;DataSchema</title>
<path fill="none" stroke="#000000" d="M893.1114,-334.8648C881.0199,-323.5698 866.9784,-311.5496 853,-302 819.871,-279.3673 781.7032,-258.5544 745.8507,-240.9757"/>
<polygon fill="#ffffff" stroke="#000000" points="747.3146,-237.7958 736.7901,-236.5771 744.2575,-244.093 747.3146,-237.7958"/>
</g>
<!-- NullSchema -->
<g id="node7" class="node"><title>NullSchema</title>
<polygon fill="#8ccbf2" stroke="none" points="1051,-359.5 1051,-380.5 1140,-380.5 1140,-359.5 1051,-359.5"/>
<polygon fill="none" stroke="#8ccbf2" points="1051,-359.5 1051,-380.5 1140,-380.5 1140,-359.5 1051,-359.5"/>
<text text-anchor="start" x="1054" y="-367.3" font-family="mono" font-weight="bold" font-size="14.00" fill="#c83500">NullSchema</text>
</g>
<!-- NullSchema&#45;&gt;DataSchema -->
<g id="edge12" class="edge">
<title>NullSchema&#45;&gt;DataSchema</title>
<path fill="none" stroke="#000000" d="M1065.9128,-352.4463C1055.7085,-346.4914 1044.0361,-340.0949 1033,-335 939.4068,-291.7917 829.5013,-252.7674 746.1687,-225.432"/>
<polygon fill="#ffffff" stroke="#000000" points="747.2473,-222.1024 736.6548,-222.324 745.0736,-228.7563 747.2473,-222.1024"/>
</g>
<!-- DataSchema&#45;&gt;DataSchema -->
<g id="edge5" class="edge">
<title>DataSchema&#45;&gt;DataSchema</title>
<path fill="none" stroke="#000000" d="M736.7499,-203.9763C747.6463,-200.1353 754.5,-193.9766 754.5,-185.5 754.5,-179.8048 751.4061,-175.1559 746.0709,-171.5533"/>
<polygon fill="#000000" stroke="#000000" points="747.2739,-168.2466 736.7499,-167.0237 744.2144,-174.5426 747.2739,-168.2466"/>
<text text-anchor="start" x="754.5" y="-181.8" font-family="mono" font-size="14.00" fill="#c83500">oneOf</text>
<text text-anchor="middle" x="747.75" y="-155.824" font-family="Times,serif" font-size="14.00">0..*</text>
</g>
<!-- MultiLanguage -->
<g id="node9" class="node">
<title>MultiLanguage</title>
<polygon fill="#f2f2f2" stroke="transparent" points="524,-7 524,-28 638,-28 638,-7 524,-7"/>
<polygon fill="none" stroke="#8c8c8c" points="524,-7 524,-28 638,-28 638,-7 524,-7"/>
<text text-anchor="start" x="527" y="-14.8" font-family="mono" font-weight="bold" font-size="14.00" fill="#000000">MultiLanguage</text>
</g>
<!-- DataSchema&#45;&gt;MultiLanguage -->
<g id="edge3" class="edge">
<title>DataSchema&#45;&gt;MultiLanguage</title>
<path fill="none" stroke="#000000" d="M551.1679,-86.7612C548.7781,-80.8871 546.6893,-74.9466 545,-69 543.1782,-62.5871 542.4488,-60.1592 545,-54 546.5168,-50.3381 548.6069,-46.8544 551.0228,-43.5989"/>
<polygon fill="#000000" stroke="#000000" points="553.6881,-45.8676 557.5586,-36.0051 548.3825,-41.3013 553.6881,-45.8676"/>
<text text-anchor="start" x="545" y="-57.8" font-family="mono" font-size="14.00" fill="#c83500">titles</text>
<text text-anchor="middle" x="546.5586" y="-39.8051" font-family="Times,serif" font-size="14.00" fill="#000000">0..1</text>
</g>
<!-- DataSchema&#45;&gt;MultiLanguage -->
<g id="edge4" class="edge">
<title>DataSchema&#45;&gt;MultiLanguage</title>
<path fill="none" stroke="#000000" d="M602.7919,-86.9986C600.5056,-75.796 597.915,-64.6015 595,-54 594.2333,-51.2115 593.3276,-48.3409 592.3515,-45.495"/>
<polygon fill="#000000" stroke="#000000" points="595.6161,-44.2319 588.8614,-36.0694 589.0517,-46.6626 595.6161,-44.2319"/>
<text text-anchor="start" x="599" y="-57.8" font-family="mono" font-size="14.00" fill="#c83500">descriptions</text>
<text text-anchor="middle" x="577.8614" y="-39.8694" font-family="Times,serif" font-size="14.00" fill="#000000">0..1</text>
</g>
<!-- string -->
<g id="node10" class="node">
<title>string</title>
<polygon fill="#f2f2f2" stroke="transparent" points="712,-7 712,-28 768,-28 768,-7 712,-7"/>
<polygon fill="none" stroke="#8c8c8c" points="712,-7 712,-28 768,-28 768,-7 712,-7"/>
<text text-anchor="start" x="715" y="-14.8" font-family="mono" font-weight="bold" font-size="14.00" fill="#000000">string</text>
</g>
<!-- DataSchema&#45;&gt;string -->
<g id="edge6" class="edge">
<title>DataSchema&#45;&gt;string</title>
<path fill="none" stroke="#000000" d="M690.0148,-86.7087C694.4136,-80.7203 698.7687,-74.7819 703,-69 708.7879,-61.0911 715.0565,-52.4714 720.7603,-44.6072"/>
<polygon fill="#000000" stroke="#000000" points="723.6451,-46.5909 726.6784,-36.4395 717.9767,-42.4836 723.6451,-46.5909"/>
<text text-anchor="start" x="714" y="-57.8" font-family="mono" font-size="14.00" fill="#c83500">unit</text>
<text text-anchor="middle" x="715.6784" y="-40.2395" font-family="Times,serif" font-size="14.00" fill="#000000">0..1</text>
</g>
</g>
</svg>
