<?xml version="1.0" encoding="UTF-8" standalone="no"?>
<!DOCTYPE svg PUBLIC "-//W3C//DTD SVG 1.1//EN"
 "http://www.w3.org/Graphics/SVG/1.1/DTD/svg11.dtd">
<!-- Generated by graphviz version 2.38.0 (20140413.2041)
 -->
<!-- Title: %3 Pages: 1 -->
<svg width="1559pt" height="840pt"
 viewBox="0.00 0.00 1558.50 840.00" xmlns="http://www.w3.org/2000/svg" xmlns:xlink="http://www.w3.org/1999/xlink">
<g id="graph0" class="graph" transform="scale(1 1) rotate(0) translate(4 836)">
<title>%3</title>
<polygon fill="white" stroke="none" points="-4,4 -4,-836 1554.5,-836 1554.5,4 -4,4"/>
<!-- MultiLanguage -->
<g id="node1" class="node"><title>MultiLanguage</title>
<polygon fill="#8ccbf2" stroke="none" points="375.5,-167.5 375.5,-188.5 489.5,-188.5 489.5,-167.5 375.5,-167.5"/>
<polygon fill="none" stroke="#8ccbf2" points="375.5,-167.5 375.5,-188.5 489.5,-188.5 489.5,-167.5 375.5,-167.5"/>
<text text-anchor="start" x="378.5" y="-175.3" font-family="mono" font-weight="bold" font-size="14.00" fill="#c83500">MultiLanguage</text>
</g>
<!-- InteractionPattern -->
<g id="node2" class="node"><title>InteractionPattern</title>
<polygon fill="#8ccbf2" stroke="none" points="370.5,-394.5 370.5,-415.5 551.5,-415.5 551.5,-394.5 370.5,-394.5"/>
<polygon fill="none" stroke="#8ccbf2" points="370.5,-394.5 370.5,-415.5 551.5,-415.5 551.5,-394.5 370.5,-394.5"/>
<text text-anchor="start" x="386.5" y="-402.3" font-family="mono" font-weight="bold" font-size="14.00" fill="#c83500">InteractionPattern</text>
<polygon fill="#ddeeff" stroke="none" points="370.5,-373.5 370.5,-394.5 551.5,-394.5 551.5,-373.5 370.5,-373.5"/>
<polygon fill="none" stroke="#8ccbf2" points="370.5,-373.5 370.5,-394.5 551.5,-394.5 551.5,-373.5 370.5,-373.5"/>
<text text-anchor="start" x="373.5" y="-381.3" font-family="mono" font-size="14.00" fill="#c83500">title</text>
<text text-anchor="start" x="415.5" y="-381.3" font-family="Times,serif" font-size="14.00"> : </text>
<text text-anchor="start" x="427.5" y="-381.3" font-family="mono" font-size="14.00" fill="#c83500">string</text>
<polygon fill="#ddeeff" stroke="none" points="370.5,-352.5 370.5,-373.5 551.5,-373.5 551.5,-352.5 370.5,-352.5"/>
<polygon fill="none" stroke="#8ccbf2" points="370.5,-352.5 370.5,-373.5 551.5,-373.5 551.5,-352.5 370.5,-352.5"/>
<text text-anchor="start" x="373.5" y="-360.3" font-family="mono" font-size="14.00" fill="#c83500">security</text>
<text text-anchor="start" x="440.5" y="-360.3" font-family="Times,serif" font-size="14.00"> : array of </text>
<text text-anchor="start" x="498.5" y="-360.3" font-family="mono" font-size="14.00" fill="#c83500">string</text>
<polygon fill="#ddeeff" stroke="none" points="370.5,-331.5 370.5,-352.5 551.5,-352.5 551.5,-331.5 370.5,-331.5"/>
<polygon fill="none" stroke="#8ccbf2" points="370.5,-331.5 370.5,-352.5 551.5,-352.5 551.5,-331.5 370.5,-331.5"/>
<text text-anchor="start" x="373.5" y="-339.3" font-family="mono" font-size="14.00" fill="#c83500">description</text>
<text text-anchor="start" x="464.5" y="-339.3" font-family="Times,serif" font-size="14.00"> : </text>
<text text-anchor="start" x="476.5" y="-339.3" font-family="mono" font-size="14.00" fill="#c83500">string</text>
<polygon fill="#ddeeff" stroke="none" points="370.5,-310.5 370.5,-331.5 551.5,-331.5 551.5,-310.5 370.5,-310.5"/>
<polygon fill="none" stroke="#8ccbf2" points="370.5,-310.5 370.5,-331.5 551.5,-331.5 551.5,-310.5 370.5,-310.5"/>
<text text-anchor="start" x="373.5" y="-318.3" font-family="mono" font-size="14.00" fill="#c83500">scopes</text>
<text text-anchor="start" x="423.5" y="-318.3" font-family="Times,serif" font-size="14.00"> : array of </text>
<text text-anchor="start" x="481.5" y="-318.3" font-family="mono" font-size="14.00" fill="#c83500">string</text>
</g>
<!-- InteractionPattern&#45;&gt;MultiLanguage -->
<g id="edge1" class="edge"><title>InteractionPattern&#45;&gt;MultiLanguage</title>
<path fill="none" stroke="black" d="M361.889,-316.739C352.608,-308.753 344.46,-299.549 338.5,-289 335.221,-283.196 335.866,-280.124 338.5,-274 343.096,-263.314 349.205,-264.155 357.5,-256 374.894,-238.901 394.149,-219.246 408.793,-204.14"/>
<polygon fill="black" stroke="black" points="411.56,-206.314 415.997,-196.693 406.528,-201.447 411.56,-206.314"/>
<text text-anchor="start" x="338.5" y="-277.8" font-family="mono" font-size="14.00" fill="#c83500">descriptions</text>
<text text-anchor="middle" x="404.997" y="-200.493" font-family="Times,serif" font-size="14.00">0..1</text>
</g>
<!-- InteractionPattern&#45;&gt;MultiLanguage -->
<g id="edge3" class="edge"><title>InteractionPattern&#45;&gt;MultiLanguage</title>
<path fill="none" stroke="black" d="M451.947,-306.6C446.887,-273.527 440.701,-233.102 436.685,-206.852"/>
<polygon fill="black" stroke="black" points="440.129,-206.221 435.157,-196.866 433.21,-207.28 440.129,-206.221"/>
<text text-anchor="start" x="449.5" y="-277.8" font-family="mono" font-size="14.00" fill="#c83500">titles</text>
<text text-anchor="middle" x="446.157" y="-200.666" font-family="Times,serif" font-size="14.00">0..1</text>
</g>
<!-- Form -->
<g id="node4" class="node"><title>Form</title>
<polygon fill="#8ccbf2" stroke="none" points="8.5,-230.5 8.5,-251.5 341.5,-251.5 341.5,-230.5 8.5,-230.5"/>
<polygon fill="none" stroke="#8ccbf2" points="8.5,-230.5 8.5,-251.5 341.5,-251.5 341.5,-230.5 8.5,-230.5"/>
<text text-anchor="start" x="158" y="-238.3" font-family="mono" font-weight="bold" font-size="14.00" fill="#c83500">Form</text>
<polygon fill="#ddeeff" stroke="none" points="8.5,-209.5 8.5,-230.5 341.5,-230.5 341.5,-209.5 8.5,-209.5"/>
<polygon fill="none" stroke="#8ccbf2" points="8.5,-209.5 8.5,-230.5 341.5,-230.5 341.5,-209.5 8.5,-209.5"/>
<text text-anchor="start" x="11.5" y="-217.3" font-family="mono" font-size="14.00" fill="#c83500">security</text>
<text text-anchor="start" x="78.5" y="-217.3" font-family="Times,serif" font-size="14.00"> : array of </text>
<text text-anchor="start" x="136.5" y="-217.3" font-family="mono" font-size="14.00" fill="#c83500">string</text>
<polygon fill="#ddeeff" stroke="none" points="8.5,-188.5 8.5,-209.5 341.5,-209.5 341.5,-188.5 8.5,-188.5"/>
<polygon fill="none" stroke="#8ccbf2" points="8.5,-188.5 8.5,-209.5 341.5,-209.5 341.5,-188.5 8.5,-188.5"/>
<text text-anchor="start" x="11.5" y="-196.3" font-family="mono" font-size="14.00" fill="#c83500">op</text>
<text text-anchor="start" x="28.5" y="-196.3" font-family="Times,serif" font-size="14.00"> : </text>
<text text-anchor="start" x="40.5" y="-196.3" font-family="mono" font-size="14.00" fill="#c83500">string</text>
<polygon fill="#ddeeff" stroke="none" points="8.5,-167.5 8.5,-188.5 341.5,-188.5 341.5,-167.5 8.5,-167.5"/>
<polygon fill="none" stroke="#8ccbf2" points="8.5,-167.5 8.5,-188.5 341.5,-188.5 341.5,-167.5 8.5,-167.5"/>
<text text-anchor="start" x="11.5" y="-175.3" font-family="mono" font-size="14.00" fill="#c83500">scopes</text>
<text text-anchor="start" x="61.5" y="-175.3" font-family="Times,serif" font-size="14.00"> : array of </text>
<text text-anchor="start" x="119.5" y="-175.3" font-family="mono" font-size="14.00" fill="#c83500">string</text>
<polygon fill="#ddeeff" stroke="none" points="8.5,-146.5 8.5,-167.5 341.5,-167.5 341.5,-146.5 8.5,-146.5"/>
<polygon fill="none" stroke="#8ccbf2" points="8.5,-146.5 8.5,-167.5 341.5,-167.5 341.5,-146.5 8.5,-146.5"/>
<text text-anchor="start" x="11.5" y="-154.3" font-family="mono" font-size="14.00" fill="#c83500">contentType</text>
<text text-anchor="start" x="102.5" y="-154.3" font-family="Times,serif" font-size="14.00"> : </text>
<text text-anchor="start" x="114.5" y="-154.3" font-family="mono" font-size="14.00" fill="#c83500">string</text>
<text text-anchor="start" x="164.5" y="-154.3" font-family="Times,serif" font-size="14.00"> = application/json </text>
<text text-anchor="start" x="270.5" y="-154.3" font-family="Times,serif" font-style="italic" font-size="14.00">(mandatory)</text>
<polygon fill="#ddeeff" stroke="none" points="8.5,-125.5 8.5,-146.5 341.5,-146.5 341.5,-125.5 8.5,-125.5"/>
<polygon fill="none" stroke="#8ccbf2" points="8.5,-125.5 8.5,-146.5 341.5,-146.5 341.5,-125.5 8.5,-125.5"/>
<text text-anchor="start" x="11.5" y="-133.3" font-family="mono" font-size="14.00" fill="#c83500">subprotocol</text>
<text text-anchor="start" x="102.5" y="-133.3" font-family="Times,serif" font-size="14.00"> : </text>
<text text-anchor="start" x="114.5" y="-133.3" font-family="mono" font-size="14.00" fill="#c83500">string</text>
<polygon fill="#ddeeff" stroke="none" points="8.5,-104.5 8.5,-125.5 341.5,-125.5 341.5,-104.5 8.5,-104.5"/>
<polygon fill="none" stroke="#8ccbf2" points="8.5,-104.5 8.5,-125.5 341.5,-125.5 341.5,-104.5 8.5,-104.5"/>
<text text-anchor="start" x="11.5" y="-112.3" font-family="mono" font-size="14.00" fill="#c83500">href</text>
<text text-anchor="start" x="45.5" y="-112.3" font-family="Times,serif" font-size="14.00"> : </text>
<text text-anchor="start" x="57.5" y="-112.3" font-family="mono" font-size="14.00" fill="#c83500">anyURI</text>
<text text-anchor="start" x="107.5" y="-112.3" font-family="Times,serif" font-size="14.00"> </text>
<text text-anchor="start" x="111.5" y="-112.3" font-family="Times,serif" font-style="italic" font-size="14.00">(mandatory)</text>
</g>
<!-- InteractionPattern&#45;&gt;Form -->
<g id="edge4" class="edge"><title>InteractionPattern&#45;&gt;Form</title>
<path fill="none" stroke="black" d="M361.727,-326.695C337.568,-316.098 312.387,-303.412 290.5,-289 278.66,-281.204 266.918,-272.147 255.707,-262.646"/>
<polygon fill="black" stroke="black" points="257.888,-259.905 248.035,-256.008 253.307,-265.198 257.888,-259.905"/>
<text text-anchor="start" x="290.5" y="-277.8" font-family="mono" font-size="14.00" fill="#c83500">forms</text>
<text text-anchor="middle" x="237.035" y="-259.808" font-family="Times,serif" font-size="14.00">1..*</text>
</g>
<!-- DataSchema -->
<g id="node11" class="node"><title>DataSchema</title>
<polygon fill="#f2f2f2" stroke="none" points="729.5,-167.5 729.5,-188.5 818.5,-188.5 818.5,-167.5 729.5,-167.5"/>
<polygon fill="none" stroke="#8c8c8c" points="729.5,-167.5 729.5,-188.5 818.5,-188.5 818.5,-167.5 729.5,-167.5"/>
<text text-anchor="start" x="732.5" y="-175.3" font-family="mono" font-weight="bold" font-size="14.00">DataSchema</text>
</g>
<!-- InteractionPattern&#45;&gt;DataSchema -->
<g id="edge2" class="edge"><title>InteractionPattern&#45;&gt;DataSchema</title>
<path fill="none" stroke="black" d="M499.709,-306.906C510.019,-294.935 521.835,-283.146 534.5,-274 588.25,-235.183 660.125,-209.589 710.975,-194.947"/>
<polygon fill="black" stroke="black" points="712.177,-198.244 720.853,-192.164 710.278,-191.507 712.177,-198.244"/>
<text text-anchor="start" x="534.5" y="-277.8" font-family="mono" font-size="14.00" fill="#c83500">uriVariables</text>
<text text-anchor="middle" x="709.853" y="-195.964" font-family="Times,serif" font-size="14.00">0..1</text>
</g>
<!-- Link -->
<g id="node3" class="node"><title>Link</title>
<polygon fill="#8ccbf2" stroke="none" points="970.5,-558.5 970.5,-579.5 1144.5,-579.5 1144.5,-558.5 970.5,-558.5"/>
<polygon fill="none" stroke="#8ccbf2" points="970.5,-558.5 970.5,-579.5 1144.5,-579.5 1144.5,-558.5 970.5,-558.5"/>
<text text-anchor="start" x="1040.5" y="-566.3" font-family="mono" font-weight="bold" font-size="14.00" fill="#c83500">Link</text>
<polygon fill="#ddeeff" stroke="none" points="970.5,-537.5 970.5,-558.5 1144.5,-558.5 1144.5,-537.5 970.5,-537.5"/>
<polygon fill="none" stroke="#8ccbf2" points="970.5,-537.5 970.5,-558.5 1144.5,-558.5 1144.5,-537.5 970.5,-537.5"/>
<text text-anchor="start" x="973.5" y="-545.3" font-family="mono" font-size="14.00" fill="#c83500">type</text>
<text text-anchor="start" x="1007.5" y="-545.3" font-family="Times,serif" font-size="14.00"> : </text>
<text text-anchor="start" x="1019.5" y="-545.3" font-family="mono" font-size="14.00" fill="#c83500">string</text>
<polygon fill="#ddeeff" stroke="none" points="970.5,-516.5 970.5,-537.5 1144.5,-537.5 1144.5,-516.5 970.5,-516.5"/>
<polygon fill="none" stroke="#8ccbf2" points="970.5,-516.5 970.5,-537.5 1144.5,-537.5 1144.5,-516.5 970.5,-516.5"/>
<text text-anchor="start" x="973.5" y="-524.3" font-family="mono" font-size="14.00" fill="#c83500">href</text>
<text text-anchor="start" x="1007.5" y="-524.3" font-family="Times,serif" font-size="14.00"> : </text>
<text text-anchor="start" x="1019.5" y="-524.3" font-family="mono" font-size="14.00" fill="#c83500">anyURI</text>
<text text-anchor="start" x="1069.5" y="-524.3" font-family="Times,serif" font-size="14.00"> </text>
<text text-anchor="start" x="1073.5" y="-524.3" font-family="Times,serif" font-style="italic" font-size="14.00">(mandatory)</text>
<polygon fill="#ddeeff" stroke="none" points="970.5,-495.5 970.5,-516.5 1144.5,-516.5 1144.5,-495.5 970.5,-495.5"/>
<polygon fill="none" stroke="#8ccbf2" points="970.5,-495.5 970.5,-516.5 1144.5,-516.5 1144.5,-495.5 970.5,-495.5"/>
<text text-anchor="start" x="973.5" y="-503.3" font-family="mono" font-size="14.00" fill="#c83500">anchor</text>
<text text-anchor="start" x="1023.5" y="-503.3" font-family="Times,serif" font-size="14.00"> : </text>
<text text-anchor="start" x="1035.5" y="-503.3" font-family="mono" font-size="14.00" fill="#c83500">anyURI</text>
<polygon fill="#ddeeff" stroke="none" points="970.5,-474.5 970.5,-495.5 1144.5,-495.5 1144.5,-474.5 970.5,-474.5"/>
<polygon fill="none" stroke="#8ccbf2" points="970.5,-474.5 970.5,-495.5 1144.5,-495.5 1144.5,-474.5 970.5,-474.5"/>
<text text-anchor="start" x="973.5" y="-482.3" font-family="mono" font-size="14.00" fill="#c83500">rel</text>
<text text-anchor="start" x="998.5" y="-482.3" font-family="Times,serif" font-size="14.00"> : </text>
<text text-anchor="start" x="1010.5" y="-482.3" font-family="mono" font-size="14.00" fill="#c83500">string</text>
</g>
<!-- ExpectedResponse -->
<g id="node7" class="node"><title>ExpectedResponse</title>
<polygon fill="#8ccbf2" stroke="none" points="95.5,-25 95.5,-46 254.5,-46 254.5,-25 95.5,-25"/>
<polygon fill="none" stroke="#8ccbf2" points="95.5,-25 95.5,-46 254.5,-46 254.5,-25 95.5,-25"/>
<text text-anchor="start" x="108.5" y="-32.8" font-family="mono" font-weight="bold" font-size="14.00" fill="#c83500">ExpectedResponse</text>
<polygon fill="#ddeeff" stroke="none" points="95.5,-4 95.5,-25 254.5,-25 254.5,-4 95.5,-4"/>
<polygon fill="none" stroke="#8ccbf2" points="95.5,-4 95.5,-25 254.5,-25 254.5,-4 95.5,-4"/>
<text text-anchor="start" x="98.5" y="-11.8" font-family="mono" font-size="14.00" fill="#c83500">contentType</text>
<text text-anchor="start" x="189.5" y="-11.8" font-family="Times,serif" font-size="14.00"> : </text>
<text text-anchor="start" x="201.5" y="-11.8" font-family="mono" font-size="14.00" fill="#c83500">string</text>
</g>
<!-- Form&#45;&gt;ExpectedResponse -->
<g id="edge5" class="edge"><title>Form&#45;&gt;ExpectedResponse</title>
<path fill="none" stroke="black" d="M174.5,-100.862C174.5,-86.5577 174.5,-72.2953 174.5,-60.116"/>
<polygon fill="black" stroke="black" points="178,-60.0004 174.5,-50.0004 171,-60.0004 178,-60.0004"/>
<text text-anchor="start" x="174.5" y="-71.8" font-family="mono" font-size="14.00" fill="#c83500">response</text>
<text text-anchor="middle" x="163.5" y="-53.8004" font-family="Times,serif" font-size="14.00">0..1</text>
</g>
<!-- Thing -->
<g id="node5" class="node"><title>Thing</title>
<polygon fill="#8ccbf2" stroke="none" points="688.5,-806.5 688.5,-827.5 941.5,-827.5 941.5,-806.5 688.5,-806.5"/>
<polygon fill="none" stroke="#8ccbf2" points="688.5,-806.5 688.5,-827.5 941.5,-827.5 941.5,-806.5 688.5,-806.5"/>
<text text-anchor="start" x="794" y="-814.3" font-family="mono" font-weight="bold" font-size="14.00" fill="#c83500">Thing</text>
<polygon fill="#ddeeff" stroke="none" points="688.5,-785.5 688.5,-806.5 941.5,-806.5 941.5,-785.5 688.5,-785.5"/>
<polygon fill="none" stroke="#8ccbf2" points="688.5,-785.5 688.5,-806.5 941.5,-806.5 941.5,-785.5 688.5,-785.5"/>
<text text-anchor="start" x="691.5" y="-793.3" font-family="mono" font-size="14.00" fill="#c83500">id</text>
<text text-anchor="start" x="708.5" y="-793.3" font-family="Times,serif" font-size="14.00"> : </text>
<text text-anchor="start" x="720.5" y="-793.3" font-family="mono" font-size="14.00" fill="#c83500">anyURI</text>
<text text-anchor="start" x="770.5" y="-793.3" font-family="Times,serif" font-size="14.00"> </text>
<text text-anchor="start" x="774.5" y="-793.3" font-family="Times,serif" font-style="italic" font-size="14.00">(mandatory)</text>
<polygon fill="#ddeeff" stroke="none" points="688.5,-764.5 688.5,-785.5 941.5,-785.5 941.5,-764.5 688.5,-764.5"/>
<polygon fill="none" stroke="#8ccbf2" points="688.5,-764.5 688.5,-785.5 941.5,-785.5 941.5,-764.5 688.5,-764.5"/>
<text text-anchor="start" x="691.5" y="-772.3" font-family="mono" font-size="14.00" fill="#c83500">base</text>
<text text-anchor="start" x="725.5" y="-772.3" font-family="Times,serif" font-size="14.00"> : </text>
<text text-anchor="start" x="737.5" y="-772.3" font-family="mono" font-size="14.00" fill="#c83500">anyURI</text>
<polygon fill="#ddeeff" stroke="none" points="688.5,-743.5 688.5,-764.5 941.5,-764.5 941.5,-743.5 688.5,-743.5"/>
<polygon fill="none" stroke="#8ccbf2" points="688.5,-743.5 688.5,-764.5 941.5,-764.5 941.5,-743.5 688.5,-743.5"/>
<text text-anchor="start" x="691.5" y="-751.3" font-family="mono" font-size="14.00" fill="#c83500">name</text>
<text text-anchor="start" x="725.5" y="-751.3" font-family="Times,serif" font-size="14.00"> : </text>
<text text-anchor="start" x="737.5" y="-751.3" font-family="mono" font-size="14.00" fill="#c83500">string</text>
<text text-anchor="start" x="787.5" y="-751.3" font-family="Times,serif" font-size="14.00"> </text>
<text text-anchor="start" x="791.5" y="-751.3" font-family="Times,serif" font-style="italic" font-size="14.00">(mandatory)</text>
<polygon fill="#ddeeff" stroke="none" points="688.5,-722.5 688.5,-743.5 941.5,-743.5 941.5,-722.5 688.5,-722.5"/>
<polygon fill="none" stroke="#8ccbf2" points="688.5,-722.5 688.5,-743.5 941.5,-743.5 941.5,-722.5 688.5,-722.5"/>
<text text-anchor="start" x="691.5" y="-730.3" font-family="mono" font-size="14.00" fill="#c83500">security</text>
<text text-anchor="start" x="758.5" y="-730.3" font-family="Times,serif" font-size="14.00"> : array of </text>
<text text-anchor="start" x="816.5" y="-730.3" font-family="mono" font-size="14.00" fill="#c83500">string</text>
<text text-anchor="start" x="866.5" y="-730.3" font-family="Times,serif" font-size="14.00"> </text>
<text text-anchor="start" x="870.5" y="-730.3" font-family="Times,serif" font-style="italic" font-size="14.00">(mandatory)</text>
<polygon fill="#ddeeff" stroke="none" points="688.5,-701.5 688.5,-722.5 941.5,-722.5 941.5,-701.5 688.5,-701.5"/>
<polygon fill="none" stroke="#8ccbf2" points="688.5,-701.5 688.5,-722.5 941.5,-722.5 941.5,-701.5 688.5,-701.5"/>
<text text-anchor="start" x="691.5" y="-709.3" font-family="mono" font-size="14.00" fill="#c83500">description</text>
<text text-anchor="start" x="782.5" y="-709.3" font-family="Times,serif" font-size="14.00"> : </text>
<text text-anchor="start" x="794.5" y="-709.3" font-family="mono" font-size="14.00" fill="#c83500">string</text>
<polygon fill="#ddeeff" stroke="none" points="688.5,-680.5 688.5,-701.5 941.5,-701.5 941.5,-680.5 688.5,-680.5"/>
<polygon fill="none" stroke="#8ccbf2" points="688.5,-680.5 688.5,-701.5 941.5,-701.5 941.5,-680.5 688.5,-680.5"/>
<text text-anchor="start" x="691.5" y="-688.3" font-family="mono" font-size="14.00" fill="#c83500">support</text>
<text text-anchor="start" x="749.5" y="-688.3" font-family="Times,serif" font-size="14.00"> : </text>
<text text-anchor="start" x="761.5" y="-688.3" font-family="mono" font-size="14.00" fill="#c83500">string</text>
<polygon fill="#ddeeff" stroke="none" points="688.5,-659.5 688.5,-680.5 941.5,-680.5 941.5,-659.5 688.5,-659.5"/>
<polygon fill="none" stroke="#8ccbf2" points="688.5,-659.5 688.5,-680.5 941.5,-680.5 941.5,-659.5 688.5,-659.5"/>
<text text-anchor="start" x="691.5" y="-667.3" font-family="mono" font-size="14.00" fill="#c83500">lastModified</text>
<text text-anchor="start" x="791.5" y="-667.3" font-family="Times,serif" font-size="14.00"> : </text>
<text text-anchor="start" x="803.5" y="-667.3" font-family="mono" font-size="14.00" fill="#c83500">string</text>
<polygon fill="#ddeeff" stroke="none" points="688.5,-638.5 688.5,-659.5 941.5,-659.5 941.5,-638.5 688.5,-638.5"/>
<polygon fill="none" stroke="#8ccbf2" points="688.5,-638.5 688.5,-659.5 941.5,-659.5 941.5,-638.5 688.5,-638.5"/>
<text text-anchor="start" x="691.5" y="-646.3" font-family="mono" font-size="14.00" fill="#c83500">created</text>
<text text-anchor="start" x="749.5" y="-646.3" font-family="Times,serif" font-size="14.00"> : </text>
<text text-anchor="start" x="761.5" y="-646.3" font-family="mono" font-size="14.00" fill="#c83500">string</text>
</g>
<!-- Thing&#45;&gt;MultiLanguage -->
<g id="edge7" class="edge"><title>Thing&#45;&gt;MultiLanguage</title>
<path fill="none" stroke="black" d="M679.793,-715.456C531.926,-693.656 308.642,-650.563 257.5,-584 228.21,-545.878 237.395,-310.981 269.5,-274 295.671,-243.854 322.438,-275.088 357.5,-256 380.382,-243.543 400.679,-221.814 414.368,-204.689"/>
<polygon fill="black" stroke="black" points="417.188,-206.764 420.54,-196.713 411.652,-202.48 417.188,-206.764"/>
<text text-anchor="start" x="240.5" y="-441.8" font-family="mono" font-size="14.00" fill="#c83500">descriptions</text>
<text text-anchor="middle" x="431.54" y="-200.513" font-family="Times,serif" font-size="14.00">0..1</text>
</g>
<!-- Thing&#45;&gt;Link -->
<g id="edge9" class="edge"><title>Thing&#45;&gt;Link</title>
<path fill="none" stroke="black" d="M930.662,-634.981C948.489,-620.015 966.469,-604.921 983.064,-590.989"/>
<polygon fill="black" stroke="black" points="985.684,-593.36 991.093,-584.249 981.184,-587.998 985.684,-593.36"/>
<text text-anchor="start" x="965.5" y="-605.8" font-family="mono" font-size="14.00" fill="#c83500">links</text>
<text text-anchor="middle" x="980.093" y="-588.049" font-family="Times,serif" font-size="14.00">0..*</text>
</g>
<!-- Thing&#45;&gt;Form -->
<g id="edge13" class="edge"><title>Thing&#45;&gt;Form</title>
<path fill="none" stroke="black" d="M679.794,-723.622C565.903,-711.6 401.203,-683.344 272.5,-617 152.071,-554.921 150.104,-374.996 161.182,-266.182"/>
<polygon fill="black" stroke="black" points="164.665,-266.522 162.254,-256.205 157.705,-265.774 164.665,-266.522"/>
<text text-anchor="start" x="166.5" y="-441.8" font-family="mono" font-size="14.00" fill="#c83500">forms</text>
<text text-anchor="middle" x="151.254" y="-260.005" font-family="Times,serif" font-size="14.00">0..*</text>
</g>
<!-- Property -->
<g id="node6" class="node"><title>Property</title>
<polygon fill="#8ccbf2" stroke="none" points="275.5,-527.5 275.5,-548.5 548.5,-548.5 548.5,-527.5 275.5,-527.5"/>
<polygon fill="none" stroke="#8ccbf2" points="275.5,-527.5 275.5,-548.5 548.5,-548.5 548.5,-527.5 275.5,-527.5"/>
<text text-anchor="start" x="378.5" y="-535.3" font-family="mono" font-weight="bold" font-size="14.00" fill="#c83500">Property</text>
<polygon fill="#ddeeff" stroke="none" points="275.5,-506.5 275.5,-527.5 548.5,-527.5 548.5,-506.5 275.5,-506.5"/>
<polygon fill="none" stroke="#8ccbf2" points="275.5,-506.5 275.5,-527.5 548.5,-527.5 548.5,-506.5 275.5,-506.5"/>
<text text-anchor="start" x="278.5" y="-514.3" font-family="mono" font-size="14.00" fill="#c83500">observable</text>
<text text-anchor="start" x="361.5" y="-514.3" font-family="Times,serif" font-size="14.00"> : </text>
<text text-anchor="start" x="373.5" y="-514.3" font-family="mono" font-size="14.00" fill="#c83500">boolean</text>
<text text-anchor="start" x="431.5" y="-514.3" font-family="Times,serif" font-size="14.00"> = false </text>
<text text-anchor="start" x="477.5" y="-514.3" font-family="Times,serif" font-style="italic" font-size="14.00">(mandatory)</text>
</g>
<!-- Thing&#45;&gt;Property -->
<g id="edge6" class="edge"><title>Thing&#45;&gt;Property</title>
<path fill="none" stroke="black" d="M679.747,-664.287C607.717,-627.826 522.859,-584.87 468.175,-557.189"/>
<polygon fill="black" stroke="black" points="469.499,-553.936 458.996,-552.543 466.337,-560.182 469.499,-553.936"/>
<text text-anchor="start" x="577.5" y="-605.8" font-family="mono" font-size="14.00" fill="#c83500">properties</text>
<text text-anchor="middle" x="447.996" y="-556.343" font-family="Times,serif" font-size="14.00">0..1</text>
</g>
<!-- Action -->
<g id="node8" class="node"><title>Action</title>
<polygon fill="#8ccbf2" stroke="none" points="582.5,-537.5 582.5,-558.5 855.5,-558.5 855.5,-537.5 582.5,-537.5"/>
<polygon fill="none" stroke="#8ccbf2" points="582.5,-537.5 582.5,-558.5 855.5,-558.5 855.5,-537.5 582.5,-537.5"/>
<text text-anchor="start" x="694" y="-545.3" font-family="mono" font-weight="bold" font-size="14.00" fill="#c83500">Action</text>
<polygon fill="#ddeeff" stroke="none" points="582.5,-516.5 582.5,-537.5 855.5,-537.5 855.5,-516.5 582.5,-516.5"/>
<polygon fill="none" stroke="#8ccbf2" points="582.5,-516.5 582.5,-537.5 855.5,-537.5 855.5,-516.5 582.5,-516.5"/>
<text text-anchor="start" x="585.5" y="-524.3" font-family="mono" font-size="14.00" fill="#c83500">idempotent</text>
<text text-anchor="start" x="668.5" y="-524.3" font-family="Times,serif" font-size="14.00"> : </text>
<text text-anchor="start" x="680.5" y="-524.3" font-family="mono" font-size="14.00" fill="#c83500">boolean</text>
<text text-anchor="start" x="738.5" y="-524.3" font-family="Times,serif" font-size="14.00"> = false </text>
<text text-anchor="start" x="784.5" y="-524.3" font-family="Times,serif" font-style="italic" font-size="14.00">(mandatory)</text>
<polygon fill="#ddeeff" stroke="none" points="582.5,-495.5 582.5,-516.5 855.5,-516.5 855.5,-495.5 582.5,-495.5"/>
<polygon fill="none" stroke="#8ccbf2" points="582.5,-495.5 582.5,-516.5 855.5,-516.5 855.5,-495.5 582.5,-495.5"/>
<text text-anchor="start" x="585.5" y="-503.3" font-family="mono" font-size="14.00" fill="#c83500">safe</text>
<text text-anchor="start" x="619.5" y="-503.3" font-family="Times,serif" font-size="14.00"> : </text>
<text text-anchor="start" x="631.5" y="-503.3" font-family="mono" font-size="14.00" fill="#c83500">boolean</text>
<text text-anchor="start" x="689.5" y="-503.3" font-family="Times,serif" font-size="14.00"> = false </text>
<text text-anchor="start" x="735.5" y="-503.3" font-family="Times,serif" font-style="italic" font-size="14.00">(mandatory)</text>
</g>
<!-- Thing&#45;&gt;Action -->
<g id="edge8" class="edge"><title>Thing&#45;&gt;Action</title>
<path fill="none" stroke="black" d="M768.609,-634.981C758.264,-612.998 747.788,-590.737 739.108,-572.293"/>
<polygon fill="black" stroke="black" points="742.168,-570.575 734.744,-563.017 735.835,-573.556 742.168,-570.575"/>
<text text-anchor="start" x="758.5" y="-605.8" font-family="mono" font-size="14.00" fill="#c83500">actions</text>
<text text-anchor="middle" x="723.744" y="-566.817" font-family="Times,serif" font-size="14.00">0..1</text>
</g>
<!-- Event -->
<g id="node9" class="node"><title>Event</title>
<polygon fill="#8ccbf2" stroke="none" points="888.5,-516.5 888.5,-537.5 936.5,-537.5 936.5,-516.5 888.5,-516.5"/>
<polygon fill="none" stroke="#8ccbf2" points="888.5,-516.5 888.5,-537.5 936.5,-537.5 936.5,-516.5 888.5,-516.5"/>
<text text-anchor="start" x="891.5" y="-524.3" font-family="mono" font-weight="bold" font-size="14.00" fill="#c83500">Event</text>
</g>
<!-- Thing&#45;&gt;Event -->
<g id="edge10" class="edge"><title>Thing&#45;&gt;Event</title>
<path fill="none" stroke="black" d="M861.347,-634.981C875.537,-605.444 889.967,-575.405 899.867,-554.797"/>
<polygon fill="black" stroke="black" points="903.036,-556.284 904.211,-545.755 896.726,-553.253 903.036,-556.284"/>
<text text-anchor="start" x="875.5" y="-605.8" font-family="mono" font-size="14.00" fill="#c83500">events</text>
<text text-anchor="middle" x="893.211" y="-549.555" font-family="Times,serif" font-size="14.00">0..1</text>
</g>
<!-- Versioning -->
<g id="node10" class="node"><title>Versioning</title>
<polygon fill="#8ccbf2" stroke="none" points="1179.5,-527.5 1179.5,-548.5 1386.5,-548.5 1386.5,-527.5 1179.5,-527.5"/>
<polygon fill="none" stroke="#8ccbf2" points="1179.5,-527.5 1179.5,-548.5 1386.5,-548.5 1386.5,-527.5 1179.5,-527.5"/>
<text text-anchor="start" x="1241.5" y="-535.3" font-family="mono" font-weight="bold" font-size="14.00" fill="#c83500">Versioning</text>
<polygon fill="#ddeeff" stroke="none" points="1179.5,-506.5 1179.5,-527.5 1386.5,-527.5 1386.5,-506.5 1179.5,-506.5"/>
<polygon fill="none" stroke="#8ccbf2" points="1179.5,-506.5 1179.5,-527.5 1386.5,-527.5 1386.5,-506.5 1179.5,-506.5"/>
<text text-anchor="start" x="1182.5" y="-514.3" font-family="mono" font-size="14.00" fill="#c83500">instance</text>
<text text-anchor="start" x="1249.5" y="-514.3" font-family="Times,serif" font-size="14.00"> : </text>
<text text-anchor="start" x="1261.5" y="-514.3" font-family="mono" font-size="14.00" fill="#c83500">string</text>
<text text-anchor="start" x="1311.5" y="-514.3" font-family="Times,serif" font-size="14.00"> </text>
<text text-anchor="start" x="1315.5" y="-514.3" font-family="Times,serif" font-style="italic" font-size="14.00">(mandatory)</text>
</g>
<!-- Thing&#45;&gt;Versioning -->
<g id="edge12" class="edge"><title>Thing&#45;&gt;Versioning</title>
<path fill="none" stroke="black" d="M949.147,-675.827C1013.58,-648.467 1091.71,-614.934 1161.5,-584 1181.11,-575.308 1202.41,-565.624 1221.59,-556.809"/>
<polygon fill="black" stroke="black" points="1223.2,-559.921 1230.82,-552.56 1220.27,-553.563 1223.2,-559.921"/>
<text text-anchor="start" x="1115.5" y="-605.8" font-family="mono" font-size="14.00" fill="#c83500">version</text>
<text text-anchor="middle" x="1219.82" y="-556.36" font-family="Times,serif" font-size="14.00">0..1</text>
</g>
<!-- SecurityScheme -->
<g id="node12" class="node"><title>SecurityScheme</title>
<polygon fill="#f2f2f2" stroke="none" points="1420.5,-516.5 1420.5,-537.5 1542.5,-537.5 1542.5,-516.5 1420.5,-516.5"/>
<polygon fill="none" stroke="#8c8c8c" points="1420.5,-516.5 1420.5,-537.5 1542.5,-537.5 1542.5,-516.5 1420.5,-516.5"/>
<text text-anchor="start" x="1423.5" y="-524.3" font-family="mono" font-weight="bold" font-size="14.00">SecurityScheme</text>
</g>
<!-- Thing&#45;&gt;SecurityScheme -->
<g id="edge11" class="edge"><title>Thing&#45;&gt;SecurityScheme</title>
<path fill="none" stroke="black" d="M949.066,-712.901C1071.37,-691.785 1254.75,-651.743 1402.5,-584 1420.71,-575.649 1439.14,-562.996 1453.61,-551.879"/>
<polygon fill="black" stroke="black" points="1455.96,-554.491 1461.65,-545.555 1451.62,-548.991 1455.96,-554.491"/>
<text text-anchor="start" x="1357.5" y="-605.8" font-family="mono" font-size="14.00" fill="#c83500">securityDefinitions</text>
<text text-anchor="middle" x="1450.65" y="-549.355" font-family="Times,serif" font-size="14.00">0..1</text>
</g>
<!-- Property&#45;&gt;InteractionPattern -->
<g id="edge21" class="edge"><title>Property&#45;&gt;InteractionPattern</title>
<path fill="none" stroke="black" d="M418.836,-502.247C424.636,-483.071 433.015,-455.369 440.74,-429.828"/>
<polygon fill="white" stroke="black" points="444.117,-430.752 443.662,-420.167 437.417,-428.725 444.117,-430.752"/>
</g>
<!-- Action&#45;&gt;InteractionPattern -->
<g id="edge19" class="edge"><title>Action&#45;&gt;InteractionPattern</title>
<path fill="none" stroke="black" d="M663.469,-491.946C632.642,-472.589 593.304,-447.888 557.481,-425.395"/>
<polygon fill="white" stroke="black" points="559.27,-422.386 548.94,-420.032 555.548,-428.314 559.27,-422.386"/>
</g>
<!-- Action&#45;&gt;DataSchema -->
<g id="edge14" class="edge"><title>Action&#45;&gt;DataSchema</title>
<path fill="none" stroke="black" d="M694.725,-491.771C682.473,-471.753 668.809,-445.554 662.5,-420 650.462,-371.242 644.894,-354.035 662.5,-307 678.444,-264.405 715.76,-226.658 742.73,-203.498"/>
<polygon fill="black" stroke="black" points="745.318,-205.896 750.733,-196.789 740.821,-200.531 745.318,-205.896"/>
<text text-anchor="start" x="662.5" y="-359.8" font-family="mono" font-size="14.00" fill="#c83500">output</text>
<text text-anchor="middle" x="739.733" y="-200.589" font-family="Times,serif" font-size="14.00">0..1</text>
</g>
<!-- Action&#45;&gt;DataSchema -->
<g id="edge15" class="edge"><title>Action&#45;&gt;DataSchema</title>
<path fill="none" stroke="black" d="M722.612,-491.811C727.895,-448.466 737.683,-372.069 748.5,-307 754.287,-272.188 762.337,-232.308 767.724,-206.555"/>
<polygon fill="black" stroke="black" points="771.149,-207.272 769.785,-196.765 764.3,-205.83 771.149,-207.272"/>
<text text-anchor="start" x="748.5" y="-359.8" font-family="mono" font-size="14.00" fill="#c83500">input</text>
<text text-anchor="middle" x="780.785" y="-200.565" font-family="Times,serif" font-size="14.00">0..1</text>
</g>
<!-- Event&#45;&gt;InteractionPattern -->
<g id="edge20" class="edge"><title>Event&#45;&gt;InteractionPattern</title>
<path fill="none" stroke="black" d="M904.164,-509.27C897.181,-496.704 886.024,-480.307 871.5,-471 859.794,-463.499 639.921,-423.627 626.5,-420 607.679,-414.914 587.864,-408.891 568.737,-402.72"/>
<polygon fill="white" stroke="black" points="569.702,-399.353 559.11,-399.584 567.534,-406.009 569.702,-399.353"/>
</g>
<!-- Event&#45;&gt;DataSchema -->
<g id="edge16" class="edge"><title>Event&#45;&gt;DataSchema</title>
<path fill="none" stroke="black" d="M900.314,-509.207C892.349,-498.107 881.589,-483.486 871.5,-471 852.501,-447.488 840.189,-446.952 826.5,-420 807.532,-382.654 786.552,-261.589 777.751,-206.836"/>
<polygon fill="black" stroke="black" points="781.184,-206.141 776.157,-196.815 774.271,-207.24 781.184,-206.141"/>
<text text-anchor="start" x="826.5" y="-359.8" font-family="mono" font-size="14.00" fill="#c83500">subscription</text>
<text text-anchor="middle" x="765.157" y="-200.615" font-family="Times,serif" font-size="14.00">0..1</text>
</g>
<!-- Event&#45;&gt;DataSchema -->
<g id="edge17" class="edge"><title>Event&#45;&gt;DataSchema</title>
<path fill="none" stroke="black" d="M918.967,-509.225C932.26,-470.754 958.812,-375.987 926.5,-307 904.124,-259.227 854.075,-223.11 817.286,-201.725"/>
<polygon fill="black" stroke="black" points="818.67,-198.487 808.244,-196.607 815.223,-204.579 818.67,-198.487"/>
<text text-anchor="start" x="942.5" y="-359.8" font-family="mono" font-size="14.00" fill="#c83500">cancellation</text>
<text text-anchor="middle" x="819.244" y="-200.407" font-family="Times,serif" font-size="14.00">0..1</text>
</g>
<!-- Event&#45;&gt;DataSchema -->
<g id="edge18" class="edge"><title>Event&#45;&gt;DataSchema</title>
<path fill="none" stroke="black" d="M922.346,-509.438C929.792,-497.598 940.87,-482.034 953.5,-471 989,-439.985 1022.48,-460.563 1046.5,-420 1072.09,-376.785 1073.47,-349.365 1046.5,-307 1000.5,-234.748 901.66,-202.762 836.392,-189.091"/>
<polygon fill="black" stroke="black" points="836.711,-185.585 826.218,-187.051 835.335,-192.449 836.711,-185.585"/>
<text text-anchor="start" x="1066.5" y="-359.8" font-family="mono" font-size="14.00" fill="#c83500">data</text>
<text text-anchor="middle" x="837.218" y="-175.851" font-family="Times,serif" font-size="14.00">0..1</text>
</g>
</g>
</svg>
