<?xml version="1.0" encoding="UTF-8" standalone="no"?>
<!DOCTYPE svg PUBLIC "-//W3C//DTD SVG 1.1//EN"
 "http://www.w3.org/Graphics/SVG/1.1/DTD/svg11.dtd">
<!-- Generated by graphviz version 2.40.1 (20161225.0304)
 -->
<!-- Title: %3 Pages: 1 -->
<svg width="1370pt" height="578pt"
 viewBox="0.00 0.00 1369.64 578.00" xmlns="http://www.w3.org/2000/svg" xmlns:xlink="http://www.w3.org/1999/xlink">
<g id="graph0" class="graph" transform="scale(1 1) rotate(0) translate(4 574)">
<title>%3</title>
<polygon fill="#ffffff" stroke="transparent" points="-4,4 -4,-574 1365.6402,-574 1365.6402,4 -4,4"/>
<!-- MultiLanguage -->
<g id="node1" class="node">
<title>MultiLanguage</title>
<polygon fill="#8ccbf2" stroke="transparent" points="36.6402,-7 36.6402,-28 150.6402,-28 150.6402,-7 36.6402,-7"/>
<polygon fill="none" stroke="#8ccbf2" points="36.6402,-7 36.6402,-28 150.6402,-28 150.6402,-7 36.6402,-7"/>
<text text-anchor="start" x="39.6402" y="-14.8" font-family="mono" font-weight="bold" font-size="14.00" fill="#c83500">MultiLanguage</text>
</g>
<!-- Thing -->
<g id="node2" class="node">
<title>Thing</title>
<polygon fill="#8ccbf2" stroke="transparent" points="472.6402,-544.5 472.6402,-565.5 731.6402,-565.5 731.6402,-544.5 472.6402,-544.5"/>
<polygon fill="none" stroke="#8ccbf2" points="472.6402,-544.5 472.6402,-565.5 731.6402,-565.5 731.6402,-544.5 472.6402,-544.5"/>
<text text-anchor="start" x="581.1402" y="-552.3" font-family="mono" font-weight="bold" font-size="14.00" fill="#c83500">Thing</text>
<polygon fill="#ddeeff" stroke="transparent" points="472.6402,-523.5 472.6402,-544.5 731.6402,-544.5 731.6402,-523.5 472.6402,-523.5"/>
<polygon fill="none" stroke="#8ccbf2" points="472.6402,-523.5 472.6402,-544.5 731.6402,-544.5 731.6402,-523.5 472.6402,-523.5"/>
<text text-anchor="start" x="475.6402" y="-531.3" font-family="mono" font-size="14.00" fill="#c83500">@context</text>
<text text-anchor="start" x="542.6402" y="-531.3" font-family="Times,serif" font-size="14.00" fill="#000000"> : </text>
<text text-anchor="start" x="554.6402" y="-531.3" font-family="mono" font-style="italic" font-size="14.00" fill="#c83500">anyURI</text>
<text text-anchor="start" x="604.6402" y="-531.3" font-family="Times,serif" font-style="italic" font-size="14.00" fill="#000000"> or Array</text>
<text text-anchor="start" x="656.6402" y="-531.3" font-family="Times,serif" font-size="14.00" fill="#000000"> </text>
<text text-anchor="start" x="660.6402" y="-531.3" font-family="Times,serif" font-style="italic" font-size="14.00" fill="#000000">(mandatory)</text>
<polygon fill="#ddeeff" stroke="transparent" points="472.6402,-502.5 472.6402,-523.5 731.6402,-523.5 731.6402,-502.5 472.6402,-502.5"/>
<polygon fill="none" stroke="#8ccbf2" points="472.6402,-502.5 472.6402,-523.5 731.6402,-523.5 731.6402,-502.5 472.6402,-502.5"/>
<text text-anchor="start" x="475.6402" y="-510.3" font-family="mono" font-size="14.00" fill="#c83500">@type</text>
<text text-anchor="start" x="517.6402" y="-510.3" font-family="Times,serif" font-size="14.00" fill="#000000"> : </text>
<text text-anchor="start" x="529.6402" y="-510.3" font-family="Times,serif" font-style="italic" font-size="14.00" fill="#000000">(Array of) </text>
<text text-anchor="start" x="588.6402" y="-510.3" font-family="mono" font-size="14.00" fill="#c83500">string</text>
<polygon fill="#ddeeff" stroke="transparent" points="472.6402,-481.5 472.6402,-502.5 731.6402,-502.5 731.6402,-481.5 472.6402,-481.5"/>
<polygon fill="none" stroke="#8ccbf2" points="472.6402,-481.5 472.6402,-502.5 731.6402,-502.5 731.6402,-481.5 472.6402,-481.5"/>
<text text-anchor="start" x="475.6402" y="-489.3" font-family="mono" font-size="14.00" fill="#c83500">id</text>
<text text-anchor="start" x="492.6402" y="-489.3" font-family="Times,serif" font-size="14.00" fill="#000000"> : </text>
<text text-anchor="start" x="504.6402" y="-489.3" font-family="mono" font-size="14.00" fill="#c83500">anyURI</text>
<text text-anchor="start" x="554.6402" y="-489.3" font-family="Times,serif" font-size="14.00" fill="#000000"> </text>
<text text-anchor="start" x="558.6402" y="-489.3" font-family="Times,serif" font-style="italic" font-size="14.00" fill="#000000">(mandatory)</text>
<polygon fill="#ddeeff" stroke="transparent" points="472.6402,-460.5 472.6402,-481.5 731.6402,-481.5 731.6402,-460.5 472.6402,-460.5"/>
<polygon fill="none" stroke="#8ccbf2" points="472.6402,-460.5 472.6402,-481.5 731.6402,-481.5 731.6402,-460.5 472.6402,-460.5"/>
<text text-anchor="start" x="475.6402" y="-468.3" font-family="mono" font-size="14.00" fill="#c83500">base</text>
<text text-anchor="start" x="509.6402" y="-468.3" font-family="Times,serif" font-size="14.00" fill="#000000"> : </text>
<text text-anchor="start" x="521.6402" y="-468.3" font-family="mono" font-size="14.00" fill="#c83500">anyURI</text>
<polygon fill="#ddeeff" stroke="transparent" points="472.6402,-439.5 472.6402,-460.5 731.6402,-460.5 731.6402,-439.5 472.6402,-439.5"/>
<polygon fill="none" stroke="#8ccbf2" points="472.6402,-439.5 472.6402,-460.5 731.6402,-460.5 731.6402,-439.5 472.6402,-439.5"/>
<text text-anchor="start" x="475.6402" y="-447.3" font-family="mono" font-size="14.00" fill="#c83500">created</text>
<text text-anchor="start" x="533.6402" y="-447.3" font-family="Times,serif" font-size="14.00" fill="#000000"> : </text>
<text text-anchor="start" x="545.6402" y="-447.3" font-family="mono" font-size="14.00" fill="#c83500">dateTime</text>
<polygon fill="#ddeeff" stroke="transparent" points="472.6402,-418.5 472.6402,-439.5 731.6402,-439.5 731.6402,-418.5 472.6402,-418.5"/>
<polygon fill="none" stroke="#8ccbf2" points="472.6402,-418.5 472.6402,-439.5 731.6402,-439.5 731.6402,-418.5 472.6402,-418.5"/>
<text text-anchor="start" x="475.6402" y="-426.3" font-family="mono" font-size="14.00" fill="#c83500">support</text>
<text text-anchor="start" x="533.6402" y="-426.3" font-family="Times,serif" font-size="14.00" fill="#000000"> : </text>
<text text-anchor="start" x="545.6402" y="-426.3" font-family="mono" font-size="14.00" fill="#c83500">anyURI</text>
<polygon fill="#ddeeff" stroke="transparent" points="472.6402,-397.5 472.6402,-418.5 731.6402,-418.5 731.6402,-397.5 472.6402,-397.5"/>
<polygon fill="none" stroke="#8ccbf2" points="472.6402,-397.5 472.6402,-418.5 731.6402,-418.5 731.6402,-397.5 472.6402,-397.5"/>
<text text-anchor="start" x="475.6402" y="-405.3" font-family="mono" font-size="14.00" fill="#c83500">security</text>
<text text-anchor="start" x="542.6402" y="-405.3" font-family="Times,serif" font-size="14.00" fill="#000000"> : Array of </text>
<text text-anchor="start" x="604.6402" y="-405.3" font-family="mono" font-size="14.00" fill="#c83500">string</text>
<text text-anchor="start" x="654.6402" y="-405.3" font-family="Times,serif" font-size="14.00" fill="#000000"> </text>
<text text-anchor="start" x="658.6402" y="-405.3" font-family="Times,serif" font-style="italic" font-size="14.00" fill="#000000">(mandatory)</text>
<polygon fill="#ddeeff" stroke="transparent" points="472.6402,-376.5 472.6402,-397.5 731.6402,-397.5 731.6402,-376.5 472.6402,-376.5"/>
<polygon fill="none" stroke="#8ccbf2" points="472.6402,-376.5 472.6402,-397.5 731.6402,-397.5 731.6402,-376.5 472.6402,-376.5"/>
<text text-anchor="start" x="475.6402" y="-384.3" font-family="mono" font-size="14.00" fill="#c83500">title</text>
<text text-anchor="start" x="517.6402" y="-384.3" font-family="Times,serif" font-size="14.00" fill="#000000"> : </text>
<text text-anchor="start" x="529.6402" y="-384.3" font-family="mono" font-size="14.00" fill="#c83500">string</text>
<text text-anchor="start" x="579.6402" y="-384.3" font-family="Times,serif" font-size="14.00" fill="#000000"> </text>
<text text-anchor="start" x="583.6402" y="-384.3" font-family="Times,serif" font-style="italic" font-size="14.00" fill="#000000">(mandatory)</text>
<polygon fill="#ddeeff" stroke="transparent" points="472.6402,-355.5 472.6402,-376.5 731.6402,-376.5 731.6402,-355.5 472.6402,-355.5"/>
<polygon fill="none" stroke="#8ccbf2" points="472.6402,-355.5 472.6402,-376.5 731.6402,-376.5 731.6402,-355.5 472.6402,-355.5"/>
<text text-anchor="start" x="475.6402" y="-363.3" font-family="mono" font-size="14.00" fill="#c83500">description</text>
<text text-anchor="start" x="566.6402" y="-363.3" font-family="Times,serif" font-size="14.00" fill="#000000"> : </text>
<text text-anchor="start" x="578.6402" y="-363.3" font-family="mono" font-size="14.00" fill="#c83500">string</text>
<polygon fill="#ddeeff" stroke="transparent" points="472.6402,-334.5 472.6402,-355.5 731.6402,-355.5 731.6402,-334.5 472.6402,-334.5"/>
<polygon fill="none" stroke="#8ccbf2" points="472.6402,-334.5 472.6402,-355.5 731.6402,-355.5 731.6402,-334.5 472.6402,-334.5"/>
<text text-anchor="start" x="475.6402" y="-342.3" font-family="mono" font-size="14.00" fill="#c83500">modified</text>
<text text-anchor="start" x="542.6402" y="-342.3" font-family="Times,serif" font-size="14.00" fill="#000000"> : </text>
<text text-anchor="start" x="554.6402" y="-342.3" font-family="mono" font-size="14.00" fill="#c83500">dateTime</text>
</g>
<!-- Thing&#45;&gt;MultiLanguage -->
<g id="edge7" class="edge">
<title>Thing&#45;&gt;MultiLanguage</title>
<path fill="none" stroke="#000000" d="M463.9876,-429.0425C325.3192,-405.0739 123.4232,-363.0025 62.6402,-313 11.5773,-270.9936 -9.9113,-240.4996 4.6402,-176 17.853,-117.4341 29.8714,-104.3066 62.6402,-54 64.8066,-50.6741 67.2541,-47.3264 69.8003,-44.0827"/>
<polygon fill="#000000" stroke="#000000" points="72.5556,-46.2429 76.2293,-36.3053 67.1603,-41.7829 72.5556,-46.2429"/>
<text text-anchor="start" x="4.6402" y="-179.8" font-family="mono" font-size="14.00" fill="#c83500">titles</text>
<text text-anchor="middle" x="65.2293" y="-40.1053" font-family="Times,serif" font-size="14.00" fill="#000000">0..1</text>
</g>
<!-- Thing&#45;&gt;MultiLanguage -->
<g id="edge8" class="edge">
<title>Thing&#45;&gt;MultiLanguage</title>
<path fill="none" stroke="#000000" d="M464.0591,-402.9691C406.2878,-379.9869 339.8388,-349.4324 284.6402,-313 218.7799,-269.5307 202.2497,-254.6766 155.6402,-191 120.0654,-142.3987 111.8097,-127.2884 96.6402,-69 94.7575,-61.7657 93.7893,-53.767 93.3375,-46.2913"/>
<polygon fill="#000000" stroke="#000000" points="96.8326,-46.0833 93.0011,-36.2055 89.8364,-46.3166 96.8326,-46.0833"/>
<text text-anchor="start" x="155.6402" y="-179.8" font-family="mono" font-size="14.00" fill="#c83500">descriptions</text>
<text text-anchor="middle" x="104.0011" y="-40.0055" font-family="Times,serif" font-size="14.00" fill="#000000">0..1</text>
</g>
<!-- PropertyAffordance -->
<g id="node3" class="node">
<title>PropertyAffordance</title>
<polygon fill="#8ccbf2" stroke="transparent" points="293.6402,-244.5 293.6402,-265.5 452.6402,-265.5 452.6402,-244.5 293.6402,-244.5"/>
<polygon fill="none" stroke="#8ccbf2" points="293.6402,-244.5 293.6402,-265.5 452.6402,-265.5 452.6402,-244.5 293.6402,-244.5"/>
<text text-anchor="start" x="298.6402" y="-252.3" font-family="mono" font-weight="bold" font-size="14.00" fill="#c83500">PropertyAffordance</text>
<polygon fill="#ddeeff" stroke="transparent" points="293.6402,-223.5 293.6402,-244.5 452.6402,-244.5 452.6402,-223.5 293.6402,-223.5"/>
<polygon fill="none" stroke="#8ccbf2" points="293.6402,-223.5 293.6402,-244.5 452.6402,-244.5 452.6402,-223.5 293.6402,-223.5"/>
<text text-anchor="start" x="296.6402" y="-231.3" font-family="mono" font-size="14.00" fill="#c83500">observable</text>
<text text-anchor="start" x="379.6402" y="-231.3" font-family="Times,serif" font-size="14.00" fill="#000000"> : </text>
<text text-anchor="start" x="391.6402" y="-231.3" font-family="mono" font-size="14.00" fill="#c83500">boolean</text>
</g>
<!-- Thing&#45;&gt;PropertyAffordance -->
<g id="edge2" class="edge">
<title>Thing&#45;&gt;PropertyAffordance</title>
<path fill="none" stroke="#000000" d="M468.7615,-330.9672C446.3471,-310.8041 424.8977,-291.5089 407.9705,-276.2819"/>
<polygon fill="#000000" stroke="#000000" points="410.2995,-273.6692 400.5242,-269.5834 405.618,-278.8734 410.2995,-273.6692"/>
<text text-anchor="start" x="447.6402" y="-301.8" font-family="mono" font-size="14.00" fill="#c83500">properties</text>
<text text-anchor="middle" x="389.5242" y="-273.3834" font-family="Times,serif" font-size="14.00" fill="#000000">0..1</text>
</g>
<!-- VersionInfo -->
<g id="node4" class="node">
<title>VersionInfo</title>
<polygon fill="#8ccbf2" stroke="transparent" points="916.6402,-244.5 916.6402,-265.5 1123.6402,-265.5 1123.6402,-244.5 916.6402,-244.5"/>
<polygon fill="none" stroke="#8ccbf2" points="916.6402,-244.5 916.6402,-265.5 1123.6402,-265.5 1123.6402,-244.5 916.6402,-244.5"/>
<text text-anchor="start" x="974.6402" y="-252.3" font-family="mono" font-weight="bold" font-size="14.00" fill="#c83500">VersionInfo</text>
<polygon fill="#ddeeff" stroke="transparent" points="916.6402,-223.5 916.6402,-244.5 1123.6402,-244.5 1123.6402,-223.5 916.6402,-223.5"/>
<polygon fill="none" stroke="#8ccbf2" points="916.6402,-223.5 916.6402,-244.5 1123.6402,-244.5 1123.6402,-223.5 916.6402,-223.5"/>
<text text-anchor="start" x="919.6402" y="-231.3" font-family="mono" font-size="14.00" fill="#c83500">instance</text>
<text text-anchor="start" x="986.6402" y="-231.3" font-family="Times,serif" font-size="14.00" fill="#000000"> : </text>
<text text-anchor="start" x="998.6402" y="-231.3" font-family="mono" font-size="14.00" fill="#c83500">string</text>
<text text-anchor="start" x="1048.6402" y="-231.3" font-family="Times,serif" font-size="14.00" fill="#000000"> </text>
<text text-anchor="start" x="1052.6402" y="-231.3" font-family="Times,serif" font-style="italic" font-size="14.00" fill="#000000">(mandatory)</text>
</g>
<!-- Thing&#45;&gt;VersionInfo -->
<g id="edge9" class="edge">
<title>Thing&#45;&gt;VersionInfo</title>
<path fill="none" stroke="#000000" d="M739.3777,-382.6198C813.9626,-345.8626 902.3023,-302.3268 959.579,-274.0995"/>
<polygon fill="#000000" stroke="#000000" points="961.4256,-277.0915 968.8483,-269.5314 958.3312,-270.8126 961.4256,-277.0915"/>
<text text-anchor="start" x="907.6402" y="-301.8" font-family="mono" font-size="14.00" fill="#c83500">version</text>
<text text-anchor="middle" x="957.8483" y="-273.3314" font-family="Times,serif" font-size="14.00" fill="#000000">0..1</text>
</g>
<!-- ActionAffordance -->
<g id="node5" class="node">
<title>ActionAffordance</title>
<polygon fill="#8ccbf2" stroke="transparent" points="486.6402,-254.5 486.6402,-275.5 717.6402,-275.5 717.6402,-254.5 486.6402,-254.5"/>
<polygon fill="none" stroke="#8ccbf2" points="486.6402,-254.5 486.6402,-275.5 717.6402,-275.5 717.6402,-254.5 486.6402,-254.5"/>
<text text-anchor="start" x="535.6402" y="-262.3" font-family="mono" font-weight="bold" font-size="14.00" fill="#c83500">ActionAffordance</text>
<polygon fill="#ddeeff" stroke="transparent" points="486.6402,-233.5 486.6402,-254.5 717.6402,-254.5 717.6402,-233.5 486.6402,-233.5"/>
<polygon fill="none" stroke="#8ccbf2" points="486.6402,-233.5 486.6402,-254.5 717.6402,-254.5 717.6402,-233.5 486.6402,-233.5"/>
<text text-anchor="start" x="489.6402" y="-241.3" font-family="mono" font-size="14.00" fill="#c83500">idempotent</text>
<text text-anchor="start" x="572.6402" y="-241.3" font-family="Times,serif" font-size="14.00" fill="#000000"> : </text>
<text text-anchor="start" x="584.6402" y="-241.3" font-family="mono" font-size="14.00" fill="#c83500">boolean</text>
<text text-anchor="start" x="642.6402" y="-241.3" font-family="Times,serif" font-size="14.00" fill="#000000"> </text>
<text text-anchor="start" x="646.6402" y="-241.3" font-family="Times,serif" font-style="italic" font-size="14.00" fill="#000000">(mandatory)</text>
<polygon fill="#ddeeff" stroke="transparent" points="486.6402,-212.5 486.6402,-233.5 717.6402,-233.5 717.6402,-212.5 486.6402,-212.5"/>
<polygon fill="none" stroke="#8ccbf2" points="486.6402,-212.5 486.6402,-233.5 717.6402,-233.5 717.6402,-212.5 486.6402,-212.5"/>
<text text-anchor="start" x="489.6402" y="-220.3" font-family="mono" font-size="14.00" fill="#c83500">safe</text>
<text text-anchor="start" x="523.6402" y="-220.3" font-family="Times,serif" font-size="14.00" fill="#000000"> : </text>
<text text-anchor="start" x="535.6402" y="-220.3" font-family="mono" font-size="14.00" fill="#c83500">boolean</text>
<text text-anchor="start" x="593.6402" y="-220.3" font-family="Times,serif" font-size="14.00" fill="#000000"> </text>
<text text-anchor="start" x="597.6402" y="-220.3" font-family="Times,serif" font-style="italic" font-size="14.00" fill="#000000">(mandatory)</text>
</g>
<!-- Thing&#45;&gt;ActionAffordance -->
<g id="edge6" class="edge">
<title>Thing&#45;&gt;ActionAffordance</title>
<path fill="none" stroke="#000000" d="M601.6402,-330.9672C601.6402,-316.6903 601.6402,-302.8487 601.6402,-290.5782"/>
<polygon fill="#000000" stroke="#000000" points="605.1403,-290.228 601.6402,-280.2281 598.1403,-290.2281 605.1403,-290.228"/>
<text text-anchor="start" x="601.6402" y="-301.8" font-family="mono" font-size="14.00" fill="#c83500">actions</text>
<text text-anchor="middle" x="590.6402" y="-284.0281" font-family="Times,serif" font-size="14.00" fill="#000000">0..1</text>
</g>
<!-- EventAffordance -->
<g id="node7" class="node">
<title>EventAffordance</title>
<polygon fill="#8ccbf2" stroke="transparent" points="751.6402,-233.5 751.6402,-254.5 881.6402,-254.5 881.6402,-233.5 751.6402,-233.5"/>
<polygon fill="none" stroke="#8ccbf2" points="751.6402,-233.5 751.6402,-254.5 881.6402,-254.5 881.6402,-233.5 751.6402,-233.5"/>
<text text-anchor="start" x="754.6402" y="-241.3" font-family="mono" font-weight="bold" font-size="14.00" fill="#c83500">EventAffordance</text>
</g>
<!-- Thing&#45;&gt;EventAffordance -->
<g id="edge3" class="edge">
<title>Thing&#45;&gt;EventAffordance</title>
<path fill="none" stroke="#000000" d="M726.3953,-330.9672C750.6522,-307.7257 773.7055,-285.6375 790.4399,-269.6035"/>
<polygon fill="#000000" stroke="#000000" points="792.8665,-272.1258 797.6657,-262.6802 788.0237,-267.0713 792.8665,-272.1258"/>
<text text-anchor="start" x="759.6402" y="-301.8" font-family="mono" font-size="14.00" fill="#c83500">events</text>
<text text-anchor="middle" x="786.6657" y="-266.4802" font-family="Times,serif" font-size="14.00" fill="#000000">0..1</text>
</g>
<!-- Link -->
<g id="node8" class="node">
<title>Link</title>
<polygon fill="#f2f2f2" stroke="transparent" points="1157.6402,-233.5 1157.6402,-254.5 1197.6402,-254.5 1197.6402,-233.5 1157.6402,-233.5"/>
<polygon fill="none" stroke="#8c8c8c" points="1157.6402,-233.5 1157.6402,-254.5 1197.6402,-254.5 1197.6402,-233.5 1157.6402,-233.5"/>
<text text-anchor="start" x="1160.6402" y="-241.3" font-family="mono" font-weight="bold" font-size="14.00" fill="#000000">Link</text>
</g>
<!-- Thing&#45;&gt;Link -->
<g id="edge1" class="edge">
<title>Thing&#45;&gt;Link</title>
<path fill="none" stroke="#000000" d="M739.2704,-424.6014C852.3088,-399.2877 1013.7205,-353.6347 1139.6402,-280 1144.6085,-277.0946 1149.4589,-273.4348 1153.9419,-269.5765"/>
<polygon fill="#000000" stroke="#000000" points="1156.591,-271.8941 1161.5608,-262.5372 1151.8407,-266.7527 1156.591,-271.8941"/>
<text text-anchor="start" x="1099.6402" y="-301.8" font-family="mono" font-size="14.00" fill="#c83500">links</text>
<text text-anchor="middle" x="1150.5608" y="-266.3372" font-family="Times,serif" font-size="14.00" fill="#000000">0..*</text>
</g>
<!-- Form -->
<g id="node9" class="node">
<title>Form</title>
<polygon fill="#f2f2f2" stroke="transparent" points="313.6402,-7 313.6402,-28 353.6402,-28 353.6402,-7 313.6402,-7"/>
<polygon fill="none" stroke="#8c8c8c" points="313.6402,-7 313.6402,-28 353.6402,-28 353.6402,-7 313.6402,-7"/>
<text text-anchor="start" x="316.6402" y="-14.8" font-family="mono" font-weight="bold" font-size="14.00" fill="#000000">Form</text>
</g>
<!-- Thing&#45;&gt;Form -->
<g id="edge4" class="edge">
<title>Thing&#45;&gt;Form</title>
<path fill="none" stroke="#000000" d="M463.7212,-415.2915C394.4296,-389.8676 316.6618,-347.7479 275.6402,-280 229.4127,-203.6546 284.8545,-94.8494 315.6866,-44.9216"/>
<polygon fill="#000000" stroke="#000000" points="318.7476,-46.6294 321.1272,-36.3052 312.8287,-42.892 318.7476,-46.6294"/>
<text text-anchor="start" x="261.6402" y="-179.8" font-family="mono" font-size="14.00" fill="#c83500">forms</text>
<text text-anchor="middle" x="310.1272" y="-40.1052" font-family="Times,serif" font-size="14.00" fill="#000000">0..*</text>
</g>
<!-- SecurityScheme -->
<g id="node10" class="node">
<title>SecurityScheme</title>
<polygon fill="#f2f2f2" stroke="transparent" points="1231.6402,-233.5 1231.6402,-254.5 1353.6402,-254.5 1353.6402,-233.5 1231.6402,-233.5"/>
<polygon fill="none" stroke="#8c8c8c" points="1231.6402,-233.5 1231.6402,-254.5 1353.6402,-254.5 1353.6402,-233.5 1231.6402,-233.5"/>
<text text-anchor="start" x="1234.6402" y="-241.3" font-family="mono" font-weight="bold" font-size="14.00" fill="#000000">SecurityScheme</text>
</g>
<!-- Thing&#45;&gt;SecurityScheme -->
<g id="edge5" class="edge">
<title>Thing&#45;&gt;SecurityScheme</title>
<path fill="none" stroke="#000000" d="M739.2962,-423.2335C850.5671,-399.4081 1010.3812,-361.1233 1145.6402,-313 1181.6642,-300.1831 1220.8353,-281.688 1249.677,-267.1457"/>
<polygon fill="#000000" stroke="#000000" points="1251.3352,-270.2291 1258.6612,-262.5753 1248.1612,-263.99 1251.3352,-270.2291"/>
<text text-anchor="start" x="1183.6402" y="-301.8" font-family="mono" font-size="14.00" fill="#c83500">securityDefinitions</text>
<text text-anchor="middle" x="1247.6612" y="-266.3753" font-family="Times,serif" font-size="14.00" fill="#000000">1..1</text>
</g>
<!-- InteractionAffordance -->
<g id="node6" class="node">
<title>InteractionAffordance</title>
<polygon fill="#8ccbf2" stroke="transparent" points="358.6402,-132.5 358.6402,-153.5 538.6402,-153.5 538.6402,-132.5 358.6402,-132.5"/>
<polygon fill="none" stroke="#8ccbf2" points="358.6402,-132.5 358.6402,-153.5 538.6402,-153.5 538.6402,-132.5 358.6402,-132.5"/>
<text text-anchor="start" x="361.6402" y="-140.3" font-family="mono" font-weight="bold" font-size="14.00" fill="#c83500">InteractionAffordance</text>
<polygon fill="#ddeeff" stroke="transparent" points="358.6402,-111.5 358.6402,-132.5 538.6402,-132.5 538.6402,-111.5 358.6402,-111.5"/>
<polygon fill="none" stroke="#8ccbf2" points="358.6402,-111.5 358.6402,-132.5 538.6402,-132.5 538.6402,-111.5 358.6402,-111.5"/>
<text text-anchor="start" x="361.6402" y="-119.3" font-family="mono" font-size="14.00" fill="#c83500">description</text>
<text text-anchor="start" x="452.6402" y="-119.3" font-family="Times,serif" font-size="14.00" fill="#000000"> : </text>
<text text-anchor="start" x="464.6402" y="-119.3" font-family="mono" font-size="14.00" fill="#c83500">string</text>
<polygon fill="#ddeeff" stroke="transparent" points="358.6402,-90.5 358.6402,-111.5 538.6402,-111.5 538.6402,-90.5 358.6402,-90.5"/>
<polygon fill="none" stroke="#8ccbf2" points="358.6402,-90.5 358.6402,-111.5 538.6402,-111.5 538.6402,-90.5 358.6402,-90.5"/>
<text text-anchor="start" x="361.6402" y="-98.3" font-family="mono" font-size="14.00" fill="#c83500">title</text>
<text text-anchor="start" x="403.6402" y="-98.3" font-family="Times,serif" font-size="14.00" fill="#000000"> : </text>
<text text-anchor="start" x="415.6402" y="-98.3" font-family="mono" font-size="14.00" fill="#c83500">string</text>
</g>
<!-- PropertyAffordance&#45;&gt;InteractionAffordance -->
<g id="edge20" class="edge">
<title>PropertyAffordance&#45;&gt;InteractionAffordance</title>
<path fill="none" stroke="#000000" d="M388.3874,-219.2215C397.7176,-204.2442 409.8112,-184.8307 420.7128,-167.3309"/>
<polygon fill="#ffffff" stroke="#000000" points="423.9672,-168.726 426.284,-158.3876 418.0257,-165.0248 423.9672,-168.726"/>
</g>
<!-- DataSchema -->
<g id="node11" class="node">
<title>DataSchema</title>
<polygon fill="#f2f2f2" stroke="transparent" points="616.6402,-7 616.6402,-28 705.6402,-28 705.6402,-7 616.6402,-7"/>
<polygon fill="none" stroke="#8c8c8c" points="616.6402,-7 616.6402,-28 705.6402,-28 705.6402,-7 616.6402,-7"/>
<text text-anchor="start" x="619.6402" y="-14.8" font-family="mono" font-weight="bold" font-size="14.00" fill="#000000">DataSchema</text>
</g>
<!-- PropertyAffordance&#45;&gt;DataSchema -->
<g id="edge19" class="edge">
<title>PropertyAffordance&#45;&gt;DataSchema</title>
<path fill="none" stroke="#000000" d="M361.04,-219.3895C353.8716,-202.4519 345.3548,-179.3752 341.6402,-158 333.4244,-110.723 328.2259,-76.442 370.6402,-54 408.865,-33.7748 524.788,-24.522 597.9721,-20.597"/>
<polygon fill="#ffffff" stroke="#000000" points="598.1967,-24.0902 608.0025,-20.078 597.8349,-17.0995 598.1967,-24.0902"/>
</g>
<!-- ActionAffordance&#45;&gt;InteractionAffordance -->
<g id="edge21" class="edge">
<title>ActionAffordance&#45;&gt;InteractionAffordance</title>
<path fill="none" stroke="#000000" d="M551.7826,-208.7379C543.963,-202.9066 536.0281,-196.8565 528.6402,-191 518.2496,-182.7633 507.3265,-173.6965 497.0063,-164.9309"/>
<polygon fill="#ffffff" stroke="#000000" points="499.1274,-162.1396 489.2507,-158.3052 494.5805,-167.4619 499.1274,-162.1396"/>
</g>
<!-- ActionAffordance&#45;&gt;DataSchema -->
<g id="edge10" class="edge">
<title>ActionAffordance&#45;&gt;DataSchema</title>
<path fill="none" stroke="#000000" d="M613.4342,-208.9105C618.4092,-193.3605 624.0897,-174.8591 628.6402,-158 639.0102,-119.5805 648.8884,-74.6473 654.857,-46.2571"/>
<polygon fill="#000000" stroke="#000000" points="658.3319,-46.7382 656.946,-36.2344 651.4791,-45.3098 658.3319,-46.7382"/>
<text text-anchor="start" x="646.6402" y="-118.8" font-family="mono" font-size="14.00" fill="#c83500">output</text>
<text text-anchor="middle" x="645.946" y="-40.0344" font-family="Times,serif" font-size="14.00" fill="#000000">0..1</text>
</g>
<!-- ActionAffordance&#45;&gt;DataSchema -->
<g id="edge11" class="edge">
<title>ActionAffordance&#45;&gt;DataSchema</title>
<path fill="none" stroke="#000000" d="M587.0212,-208.792C575.8385,-175.7704 565.0488,-126.0482 582.6402,-87 590.7858,-68.9189 606.2707,-53.6648 621.3102,-42.1346"/>
<polygon fill="#000000" stroke="#000000" points="623.5481,-44.8346 629.5702,-36.1177 619.4266,-39.1766 623.5481,-44.8346"/>
<text text-anchor="start" x="582.6402" y="-118.8" font-family="mono" font-size="14.00" fill="#c83500">input</text>
<text text-anchor="middle" x="618.5702" y="-39.9177" font-family="Times,serif" font-size="14.00" fill="#000000">0..1</text>
</g>
<!-- InteractionAffordance&#45;&gt;MultiLanguage -->
<g id="edge13" class="edge">
<title>InteractionAffordance&#45;&gt;MultiLanguage</title>
<path fill="none" stroke="#000000" d="M350.3922,-118.102C263.7721,-112.2729 145.9933,-98.9601 110.6402,-69 103.7825,-63.1885 99.6787,-54.5311 97.2271,-45.9919"/>
<polygon fill="#000000" stroke="#000000" points="100.636,-45.1972 95.0423,-36.1993 93.804,-46.7215 100.636,-45.1972"/>
<text text-anchor="start" x="110.6402" y="-57.8" font-family="mono" font-size="14.00" fill="#c83500">titles</text>
<text text-anchor="middle" x="84.0423" y="-39.9993" font-family="Times,serif" font-size="14.00" fill="#000000">0..1</text>
</g>
<!-- InteractionAffordance&#45;&gt;MultiLanguage -->
<g id="edge15" class="edge">
<title>InteractionAffordance&#45;&gt;MultiLanguage</title>
<path fill="none" stroke="#000000" d="M350.2243,-93.5297C291.3066,-76.1863 217.7764,-54.5415 164.5523,-38.8741"/>
<polygon fill="#000000" stroke="#000000" points="165.44,-35.487 154.8586,-36.0206 163.4633,-42.2021 165.44,-35.487"/>
<text text-anchor="start" x="260.6402" y="-57.8" font-family="mono" font-size="14.00" fill="#c83500">descriptions</text>
<text text-anchor="middle" x="143.8586" y="-39.8206" font-family="Times,serif" font-size="14.00" fill="#000000">0..1</text>
</g>
<!-- InteractionAffordance&#45;&gt;Form -->
<g id="edge12" class="edge">
<title>InteractionAffordance&#45;&gt;Form</title>
<path fill="none" stroke="#000000" d="M409.3854,-86.8293C393.5739,-72.4615 375.7091,-56.2278 361.3016,-43.1358"/>
<polygon fill="#000000" stroke="#000000" points="363.4428,-40.3523 353.6881,-36.2174 358.7352,-45.5329 363.4428,-40.3523"/>
<text text-anchor="start" x="388.6402" y="-57.8" font-family="mono" font-size="14.00" fill="#c83500">forms</text>
<text text-anchor="middle" x="342.6881" y="-40.0174" font-family="Times,serif" font-size="14.00" fill="#000000">1..*</text>
</g>
<!-- InteractionAffordance&#45;&gt;DataSchema -->
<g id="edge14" class="edge">
<title>InteractionAffordance&#45;&gt;DataSchema</title>
<path fill="none" stroke="#000000" d="M451.5584,-86.8125C454.2973,-74.8349 459.3665,-62.4005 468.6402,-54 487.3543,-37.0479 549.2593,-27.6366 597.7775,-22.7292"/>
<polygon fill="#000000" stroke="#000000" points="598.2907,-26.196 607.9072,-21.7493 597.6166,-19.2285 598.2907,-26.196"/>
<text text-anchor="start" x="468.6402" y="-57.8" font-family="mono" font-size="14.00" fill="#c83500">uriVariables</text>
<text text-anchor="middle" x="596.9072" y="-25.5493" font-family="Times,serif" font-size="14.00" fill="#000000">0..1</text>
</g>
<!-- EventAffordance&#45;&gt;InteractionAffordance -->
<g id="edge22" class="edge">
<title>EventAffordance&#45;&gt;InteractionAffordance</title>
<path fill="none" stroke="#000000" d="M776.9128,-226.3847C763.3251,-220.4907 747.9445,-214.1474 733.6402,-209 658.2147,-181.8583 637.2954,-181.4447 560.6402,-158 559.3784,-157.6141 558.1089,-157.225 556.8328,-156.8332"/>
<polygon fill="#ffffff" stroke="#000000" points="557.5286,-153.3851 546.9412,-153.7819 555.4652,-160.0741 557.5286,-153.3851"/>
</g>
<!-- EventAffordance&#45;&gt;DataSchema -->
<g id="edge16" class="edge">
<title>EventAffordance&#45;&gt;DataSchema</title>
<path fill="none" stroke="#000000" d="M815.4604,-226.2668C812.9663,-196.1203 805.5472,-134.5011 784.6402,-87 777.3345,-70.4013 775.1454,-64.8852 760.6402,-54 749.4175,-45.5781 736.0385,-38.9831 722.7746,-33.8727"/>
<polygon fill="#000000" stroke="#000000" points="723.7636,-30.5088 713.1693,-30.4091 721.3891,-37.0938 723.7636,-30.5088"/>
<text text-anchor="start" x="806.6402" y="-118.8" font-family="mono" font-size="14.00" fill="#c83500">subscription</text>
<text text-anchor="middle" x="724.1693" y="-34.2091" font-family="Times,serif" font-size="14.00" fill="#000000">0..1</text>
</g>
<!-- EventAffordance&#45;&gt;DataSchema -->
<g id="edge17" class="edge">
<title>EventAffordance&#45;&gt;DataSchema</title>
<path fill="none" stroke="#000000" d="M847.0448,-226.4244C869.2791,-211.2873 897.7199,-187.4478 910.6402,-158 923.3187,-129.1035 929.756,-112.1065 910.6402,-87 888.0041,-57.27 789.6288,-37.086 723.2418,-26.5671"/>
<polygon fill="#000000" stroke="#000000" points="723.7036,-23.0969 713.2854,-25.0235 722.6311,-30.0143 723.7036,-23.0969"/>
<text text-anchor="start" x="923.6402" y="-118.8" font-family="mono" font-size="14.00" fill="#c83500">cancellation</text>
<text text-anchor="middle" x="724.2854" y="-13.8235" font-family="Times,serif" font-size="14.00" fill="#000000">0..1</text>
</g>
<!-- EventAffordance&#45;&gt;DataSchema -->
<g id="edge18" class="edge">
<title>EventAffordance&#45;&gt;DataSchema</title>
<path fill="none" stroke="#000000" d="M800.9078,-226.4782C786.2298,-209.3431 764.043,-182.6047 746.6402,-158 732.1999,-137.5838 697.1992,-79.4628 676.5749,-44.8611"/>
<polygon fill="#000000" stroke="#000000" points="679.5373,-42.995 671.4152,-36.192 673.5221,-46.5752 679.5373,-42.995"/>
<text text-anchor="start" x="746.6402" y="-118.8" font-family="mono" font-size="14.00" fill="#c83500">data</text>
<text text-anchor="middle" x="682.4152" y="-39.992" font-family="Times,serif" font-size="14.00" fill="#000000">0..1</text>
</g>
</g>
</svg>
