<?xml version="1.0" encoding="UTF-8" standalone="no"?>
<!DOCTYPE svg PUBLIC "-//W3C//DTD SVG 1.1//EN"
 "http://www.w3.org/Graphics/SVG/1.1/DTD/svg11.dtd">
<!-- Generated by graphviz version 2.40.1 (20161225.0304)
 -->
<!-- Title: %3 Pages: 1 -->
<svg width="1567pt" height="840pt"
 viewBox="0.00 0.00 1566.50 840.00" xmlns="http://www.w3.org/2000/svg" xmlns:xlink="http://www.w3.org/1999/xlink">
<g id="graph0" class="graph" transform="scale(1 1) rotate(0) translate(4 836)">
<title>%3</title>
<polygon fill="#ffffff" stroke="transparent" points="-4,4 -4,-836 1562.5,-836 1562.5,4 -4,4"/>
<!-- MultiLanguage -->
<g id="node1" class="node">
<title>MultiLanguage</title>
<polygon fill="#8ccbf2" stroke="transparent" points="375.5,-167.5 375.5,-188.5 489.5,-188.5 489.5,-167.5 375.5,-167.5"/>
<polygon fill="none" stroke="#8ccbf2" points="375.5,-167.5 375.5,-188.5 489.5,-188.5 489.5,-167.5 375.5,-167.5"/>
<text text-anchor="start" x="378.5" y="-175.3" font-family="mono" font-weight="bold" font-size="14.00" fill="#c83500">MultiLanguage</text>
</g>
<!-- InteractionPattern -->
<g id="node2" class="node">
<title>InteractionPattern</title>
<polygon fill="#8ccbf2" stroke="transparent" points="342.5,-394.5 342.5,-415.5 523.5,-415.5 523.5,-394.5 342.5,-394.5"/>
<polygon fill="none" stroke="#8ccbf2" points="342.5,-394.5 342.5,-415.5 523.5,-415.5 523.5,-394.5 342.5,-394.5"/>
<text text-anchor="start" x="358.5" y="-402.3" font-family="mono" font-weight="bold" font-size="14.00" fill="#c83500">InteractionPattern</text>
<polygon fill="#ddeeff" stroke="transparent" points="342.5,-373.5 342.5,-394.5 523.5,-394.5 523.5,-373.5 342.5,-373.5"/>
<polygon fill="none" stroke="#8ccbf2" points="342.5,-373.5 342.5,-394.5 523.5,-394.5 523.5,-373.5 342.5,-373.5"/>
<text text-anchor="start" x="345.5" y="-381.3" font-family="mono" font-size="14.00" fill="#c83500">title</text>
<text text-anchor="start" x="387.5" y="-381.3" font-family="Times,serif" font-size="14.00" fill="#000000"> : </text>
<text text-anchor="start" x="399.5" y="-381.3" font-family="mono" font-size="14.00" fill="#c83500">string</text>
<polygon fill="#ddeeff" stroke="transparent" points="342.5,-352.5 342.5,-373.5 523.5,-373.5 523.5,-352.5 342.5,-352.5"/>
<polygon fill="none" stroke="#8ccbf2" points="342.5,-352.5 342.5,-373.5 523.5,-373.5 523.5,-352.5 342.5,-352.5"/>
<text text-anchor="start" x="345.5" y="-360.3" font-family="mono" font-size="14.00" fill="#c83500">security</text>
<text text-anchor="start" x="412.5" y="-360.3" font-family="Times,serif" font-size="14.00" fill="#000000"> : array of </text>
<text text-anchor="start" x="470.5" y="-360.3" font-family="mono" font-size="14.00" fill="#c83500">string</text>
<polygon fill="#ddeeff" stroke="transparent" points="342.5,-331.5 342.5,-352.5 523.5,-352.5 523.5,-331.5 342.5,-331.5"/>
<polygon fill="none" stroke="#8ccbf2" points="342.5,-331.5 342.5,-352.5 523.5,-352.5 523.5,-331.5 342.5,-331.5"/>
<text text-anchor="start" x="345.5" y="-339.3" font-family="mono" font-size="14.00" fill="#c83500">scopes</text>
<text text-anchor="start" x="395.5" y="-339.3" font-family="Times,serif" font-size="14.00" fill="#000000"> : array of </text>
<text text-anchor="start" x="453.5" y="-339.3" font-family="mono" font-size="14.00" fill="#c83500">string</text>
<polygon fill="#ddeeff" stroke="transparent" points="342.5,-310.5 342.5,-331.5 523.5,-331.5 523.5,-310.5 342.5,-310.5"/>
<polygon fill="none" stroke="#8ccbf2" points="342.5,-310.5 342.5,-331.5 523.5,-331.5 523.5,-310.5 342.5,-310.5"/>
<text text-anchor="start" x="345.5" y="-318.3" font-family="mono" font-size="14.00" fill="#c83500">description</text>
<text text-anchor="start" x="436.5" y="-318.3" font-family="Times,serif" font-size="14.00" fill="#000000"> : </text>
<text text-anchor="start" x="448.5" y="-318.3" font-family="mono" font-size="14.00" fill="#c83500">string</text>
</g>
<!-- InteractionPattern&#45;&gt;MultiLanguage -->
<g id="edge1" class="edge">
<title>InteractionPattern&#45;&gt;MultiLanguage</title>
<path fill="none" stroke="#000000" d="M364.0947,-306.9025C358.7056,-296.6553 356.6387,-285.5356 360.5,-274 369.4162,-247.3629 389.0151,-222.2096 405.5164,-204.4104"/>
<polygon fill="#000000" stroke="#000000" points="408.4431,-206.4146 412.8307,-196.771 403.3869,-201.5736 408.4431,-206.4146"/>
<text text-anchor="start" x="360.5" y="-277.8" font-family="mono" font-size="14.00" fill="#c83500">titles</text>
<text text-anchor="middle" x="401.8307" y="-200.571" font-family="Times,serif" font-size="14.00" fill="#000000">0..1</text>
</g>
<!-- InteractionPattern&#45;&gt;MultiLanguage -->
<g id="edge2" class="edge">
<title>InteractionPattern&#45;&gt;MultiLanguage</title>
<path fill="none" stroke="#000000" d="M432.5,-306.9887C432.5,-273.9277 432.5,-233.5999 432.5,-207.0458"/>
<polygon fill="#000000" stroke="#000000" points="436.0001,-206.9095 432.5,-196.9095 429.0001,-206.9096 436.0001,-206.9095"/>
<text text-anchor="start" x="432.5" y="-277.8" font-family="mono" font-size="14.00" fill="#c83500">descriptions</text>
<text text-anchor="middle" x="443.5" y="-200.7095" font-family="Times,serif" font-size="14.00" fill="#000000">0..1</text>
</g>
<!-- Form -->
<g id="node4" class="node">
<title>Form</title>
<polygon fill="#8ccbf2" stroke="transparent" points="8.5,-230.5 8.5,-251.5 341.5,-251.5 341.5,-230.5 8.5,-230.5"/>
<polygon fill="none" stroke="#8ccbf2" points="8.5,-230.5 8.5,-251.5 341.5,-251.5 341.5,-230.5 8.5,-230.5"/>
<text text-anchor="start" x="158" y="-238.3" font-family="mono" font-weight="bold" font-size="14.00" fill="#c83500">Form</text>
<polygon fill="#ddeeff" stroke="transparent" points="8.5,-209.5 8.5,-230.5 341.5,-230.5 341.5,-209.5 8.5,-209.5"/>
<polygon fill="none" stroke="#8ccbf2" points="8.5,-209.5 8.5,-230.5 341.5,-230.5 341.5,-209.5 8.5,-209.5"/>
<text text-anchor="start" x="11.5" y="-217.3" font-family="mono" font-size="14.00" fill="#c83500">op</text>
<text text-anchor="start" x="28.5" y="-217.3" font-family="Times,serif" font-size="14.00" fill="#000000"> : </text>
<text text-anchor="start" x="40.5" y="-217.3" font-family="mono" font-size="14.00" fill="#c83500">string</text>
<polygon fill="#ddeeff" stroke="transparent" points="8.5,-188.5 8.5,-209.5 341.5,-209.5 341.5,-188.5 8.5,-188.5"/>
<polygon fill="none" stroke="#8ccbf2" points="8.5,-188.5 8.5,-209.5 341.5,-209.5 341.5,-188.5 8.5,-188.5"/>
<text text-anchor="start" x="11.5" y="-196.3" font-family="mono" font-size="14.00" fill="#c83500">href</text>
<text text-anchor="start" x="45.5" y="-196.3" font-family="Times,serif" font-size="14.00" fill="#000000"> : </text>
<text text-anchor="start" x="57.5" y="-196.3" font-family="mono" font-size="14.00" fill="#c83500">anyURI</text>
<text text-anchor="start" x="107.5" y="-196.3" font-family="Times,serif" font-size="14.00" fill="#000000"> </text>
<text text-anchor="start" x="111.5" y="-196.3" font-family="Times,serif" font-style="italic" font-size="14.00" fill="#000000">(mandatory)</text>
<polygon fill="#ddeeff" stroke="transparent" points="8.5,-167.5 8.5,-188.5 341.5,-188.5 341.5,-167.5 8.5,-167.5"/>
<polygon fill="none" stroke="#8ccbf2" points="8.5,-167.5 8.5,-188.5 341.5,-188.5 341.5,-167.5 8.5,-167.5"/>
<text text-anchor="start" x="11.5" y="-175.3" font-family="mono" font-size="14.00" fill="#c83500">security</text>
<text text-anchor="start" x="78.5" y="-175.3" font-family="Times,serif" font-size="14.00" fill="#000000"> : array of </text>
<text text-anchor="start" x="136.5" y="-175.3" font-family="mono" font-size="14.00" fill="#c83500">string</text>
<polygon fill="#ddeeff" stroke="transparent" points="8.5,-146.5 8.5,-167.5 341.5,-167.5 341.5,-146.5 8.5,-146.5"/>
<polygon fill="none" stroke="#8ccbf2" points="8.5,-146.5 8.5,-167.5 341.5,-167.5 341.5,-146.5 8.5,-146.5"/>
<text text-anchor="start" x="11.5" y="-154.3" font-family="mono" font-size="14.00" fill="#c83500">contentType</text>
<text text-anchor="start" x="102.5" y="-154.3" font-family="Times,serif" font-size="14.00" fill="#000000"> : </text>
<text text-anchor="start" x="114.5" y="-154.3" font-family="mono" font-size="14.00" fill="#c83500">string</text>
<text text-anchor="start" x="164.5" y="-154.3" font-family="Times,serif" font-size="14.00" fill="#000000"> = application/json </text>
<text text-anchor="start" x="270.5" y="-154.3" font-family="Times,serif" font-style="italic" font-size="14.00" fill="#000000">(mandatory)</text>
<polygon fill="#ddeeff" stroke="transparent" points="8.5,-125.5 8.5,-146.5 341.5,-146.5 341.5,-125.5 8.5,-125.5"/>
<polygon fill="none" stroke="#8ccbf2" points="8.5,-125.5 8.5,-146.5 341.5,-146.5 341.5,-125.5 8.5,-125.5"/>
<text text-anchor="start" x="11.5" y="-133.3" font-family="mono" font-size="14.00" fill="#c83500">subprotocol</text>
<text text-anchor="start" x="102.5" y="-133.3" font-family="Times,serif" font-size="14.00" fill="#000000"> : </text>
<text text-anchor="start" x="114.5" y="-133.3" font-family="mono" font-size="14.00" fill="#c83500">string</text>
<polygon fill="#ddeeff" stroke="transparent" points="8.5,-104.5 8.5,-125.5 341.5,-125.5 341.5,-104.5 8.5,-104.5"/>
<polygon fill="none" stroke="#8ccbf2" points="8.5,-104.5 8.5,-125.5 341.5,-125.5 341.5,-104.5 8.5,-104.5"/>
<text text-anchor="start" x="11.5" y="-112.3" font-family="mono" font-size="14.00" fill="#c83500">scopes</text>
<text text-anchor="start" x="61.5" y="-112.3" font-family="Times,serif" font-size="14.00" fill="#000000"> : array of </text>
<text text-anchor="start" x="119.5" y="-112.3" font-family="mono" font-size="14.00" fill="#c83500">string</text>
</g>
<!-- InteractionPattern&#45;&gt;Form -->
<g id="edge4" class="edge">
<title>InteractionPattern&#45;&gt;Form</title>
<path fill="none" stroke="#000000" d="M339.8988,-306.9583C330.8875,-301.0296 321.958,-294.9811 313.5,-289 301.5243,-280.5314 289.1988,-271.3938 277.0672,-262.1284"/>
<polygon fill="#000000" stroke="#000000" points="279.1903,-259.3459 269.1287,-256.0271 274.9246,-264.896 279.1903,-259.3459"/>
<text text-anchor="start" x="313.5" y="-277.8" font-family="mono" font-size="14.00" fill="#c83500">forms</text>
<text text-anchor="middle" x="258.1287" y="-259.8271" font-family="Times,serif" font-size="14.00" fill="#000000">1..*</text>
</g>
<!-- DataSchema -->
<g id="node11" class="node">
<title>DataSchema</title>
<polygon fill="#f2f2f2" stroke="transparent" points="747.5,-167.5 747.5,-188.5 836.5,-188.5 836.5,-167.5 747.5,-167.5"/>
<polygon fill="none" stroke="#8c8c8c" points="747.5,-167.5 747.5,-188.5 836.5,-188.5 836.5,-167.5 747.5,-167.5"/>
<text text-anchor="start" x="750.5" y="-175.3" font-family="mono" font-weight="bold" font-size="14.00" fill="#000000">DataSchema</text>
</g>
<!-- InteractionPattern&#45;&gt;DataSchema -->
<g id="edge3" class="edge">
<title>InteractionPattern&#45;&gt;DataSchema</title>
<path fill="none" stroke="#000000" d="M509.3945,-306.9058C531.3037,-291.0046 550.8092,-277.1504 556.5,-274 612.551,-242.9708 680.7868,-216.3676 729.2581,-199.1803"/>
<polygon fill="#000000" stroke="#000000" points="730.7095,-202.3802 738.9844,-195.7638 728.3895,-195.7759 730.7095,-202.3802"/>
<text text-anchor="start" x="556.5" y="-277.8" font-family="mono" font-size="14.00" fill="#c83500">uriVariables</text>
<text text-anchor="middle" x="727.9844" y="-199.5638" font-family="Times,serif" font-size="14.00" fill="#000000">0..1</text>
</g>
<!-- Link -->
<g id="node3" class="node">
<title>Link</title>
<polygon fill="#8ccbf2" stroke="transparent" points="978.5,-558.5 978.5,-579.5 1152.5,-579.5 1152.5,-558.5 978.5,-558.5"/>
<polygon fill="none" stroke="#8ccbf2" points="978.5,-558.5 978.5,-579.5 1152.5,-579.5 1152.5,-558.5 978.5,-558.5"/>
<text text-anchor="start" x="1048.5" y="-566.3" font-family="mono" font-weight="bold" font-size="14.00" fill="#c83500">Link</text>
<polygon fill="#ddeeff" stroke="transparent" points="978.5,-537.5 978.5,-558.5 1152.5,-558.5 1152.5,-537.5 978.5,-537.5"/>
<polygon fill="none" stroke="#8ccbf2" points="978.5,-537.5 978.5,-558.5 1152.5,-558.5 1152.5,-537.5 978.5,-537.5"/>
<text text-anchor="start" x="981.5" y="-545.3" font-family="mono" font-size="14.00" fill="#c83500">anchor</text>
<text text-anchor="start" x="1031.5" y="-545.3" font-family="Times,serif" font-size="14.00" fill="#000000"> : </text>
<text text-anchor="start" x="1043.5" y="-545.3" font-family="mono" font-size="14.00" fill="#c83500">anyURI</text>
<polygon fill="#ddeeff" stroke="transparent" points="978.5,-516.5 978.5,-537.5 1152.5,-537.5 1152.5,-516.5 978.5,-516.5"/>
<polygon fill="none" stroke="#8ccbf2" points="978.5,-516.5 978.5,-537.5 1152.5,-537.5 1152.5,-516.5 978.5,-516.5"/>
<text text-anchor="start" x="981.5" y="-524.3" font-family="mono" font-size="14.00" fill="#c83500">href</text>
<text text-anchor="start" x="1015.5" y="-524.3" font-family="Times,serif" font-size="14.00" fill="#000000"> : </text>
<text text-anchor="start" x="1027.5" y="-524.3" font-family="mono" font-size="14.00" fill="#c83500">anyURI</text>
<text text-anchor="start" x="1077.5" y="-524.3" font-family="Times,serif" font-size="14.00" fill="#000000"> </text>
<text text-anchor="start" x="1081.5" y="-524.3" font-family="Times,serif" font-style="italic" font-size="14.00" fill="#000000">(mandatory)</text>
<polygon fill="#ddeeff" stroke="transparent" points="978.5,-495.5 978.5,-516.5 1152.5,-516.5 1152.5,-495.5 978.5,-495.5"/>
<polygon fill="none" stroke="#8ccbf2" points="978.5,-495.5 978.5,-516.5 1152.5,-516.5 1152.5,-495.5 978.5,-495.5"/>
<text text-anchor="start" x="981.5" y="-503.3" font-family="mono" font-size="14.00" fill="#c83500">rel</text>
<text text-anchor="start" x="1006.5" y="-503.3" font-family="Times,serif" font-size="14.00" fill="#000000"> : </text>
<text text-anchor="start" x="1018.5" y="-503.3" font-family="mono" font-size="14.00" fill="#c83500">string</text>
<polygon fill="#ddeeff" stroke="transparent" points="978.5,-474.5 978.5,-495.5 1152.5,-495.5 1152.5,-474.5 978.5,-474.5"/>
<polygon fill="none" stroke="#8ccbf2" points="978.5,-474.5 978.5,-495.5 1152.5,-495.5 1152.5,-474.5 978.5,-474.5"/>
<text text-anchor="start" x="981.5" y="-482.3" font-family="mono" font-size="14.00" fill="#c83500">type</text>
<text text-anchor="start" x="1015.5" y="-482.3" font-family="Times,serif" font-size="14.00" fill="#000000"> : </text>
<text text-anchor="start" x="1027.5" y="-482.3" font-family="mono" font-size="14.00" fill="#c83500">string</text>
</g>
<!-- ExpectedResponse -->
<g id="node7" class="node">
<title>ExpectedResponse</title>
<polygon fill="#8ccbf2" stroke="transparent" points="95.5,-25 95.5,-46 254.5,-46 254.5,-25 95.5,-25"/>
<polygon fill="none" stroke="#8ccbf2" points="95.5,-25 95.5,-46 254.5,-46 254.5,-25 95.5,-25"/>
<text text-anchor="start" x="108.5" y="-32.8" font-family="mono" font-weight="bold" font-size="14.00" fill="#c83500">ExpectedResponse</text>
<polygon fill="#ddeeff" stroke="transparent" points="95.5,-4 95.5,-25 254.5,-25 254.5,-4 95.5,-4"/>
<polygon fill="none" stroke="#8ccbf2" points="95.5,-4 95.5,-25 254.5,-25 254.5,-4 95.5,-4"/>
<text text-anchor="start" x="98.5" y="-11.8" font-family="mono" font-size="14.00" fill="#c83500">contentType</text>
<text text-anchor="start" x="189.5" y="-11.8" font-family="Times,serif" font-size="14.00" fill="#000000"> : </text>
<text text-anchor="start" x="201.5" y="-11.8" font-family="mono" font-size="14.00" fill="#c83500">string</text>
</g>
<!-- Form&#45;&gt;ExpectedResponse -->
<g id="edge5" class="edge">
<title>Form&#45;&gt;ExpectedResponse</title>
<path fill="none" stroke="#000000" d="M174.5,-100.8506C174.5,-86.7022 174.5,-72.5946 174.5,-60.4513"/>
<polygon fill="#000000" stroke="#000000" points="178.0001,-60.3339 174.5,-50.334 171.0001,-60.334 178.0001,-60.3339"/>
<text text-anchor="start" x="174.5" y="-71.8" font-family="mono" font-size="14.00" fill="#c83500">response</text>
<text text-anchor="middle" x="163.5" y="-54.134" font-family="Times,serif" font-size="14.00" fill="#000000">0..1</text>
</g>
<!-- Thing -->
<g id="node5" class="node">
<title>Thing</title>
<polygon fill="#8ccbf2" stroke="transparent" points="697.5,-806.5 697.5,-827.5 950.5,-827.5 950.5,-806.5 697.5,-806.5"/>
<polygon fill="none" stroke="#8ccbf2" points="697.5,-806.5 697.5,-827.5 950.5,-827.5 950.5,-806.5 697.5,-806.5"/>
<text text-anchor="start" x="803" y="-814.3" font-family="mono" font-weight="bold" font-size="14.00" fill="#c83500">Thing</text>
<polygon fill="#ddeeff" stroke="transparent" points="697.5,-785.5 697.5,-806.5 950.5,-806.5 950.5,-785.5 697.5,-785.5"/>
<polygon fill="none" stroke="#8ccbf2" points="697.5,-785.5 697.5,-806.5 950.5,-806.5 950.5,-785.5 697.5,-785.5"/>
<text text-anchor="start" x="700.5" y="-793.3" font-family="mono" font-size="14.00" fill="#c83500">id</text>
<text text-anchor="start" x="717.5" y="-793.3" font-family="Times,serif" font-size="14.00" fill="#000000"> : </text>
<text text-anchor="start" x="729.5" y="-793.3" font-family="mono" font-size="14.00" fill="#c83500">anyURI</text>
<text text-anchor="start" x="779.5" y="-793.3" font-family="Times,serif" font-size="14.00" fill="#000000"> </text>
<text text-anchor="start" x="783.5" y="-793.3" font-family="Times,serif" font-style="italic" font-size="14.00" fill="#000000">(mandatory)</text>
<polygon fill="#ddeeff" stroke="transparent" points="697.5,-764.5 697.5,-785.5 950.5,-785.5 950.5,-764.5 697.5,-764.5"/>
<polygon fill="none" stroke="#8ccbf2" points="697.5,-764.5 697.5,-785.5 950.5,-785.5 950.5,-764.5 697.5,-764.5"/>
<text text-anchor="start" x="700.5" y="-772.3" font-family="mono" font-size="14.00" fill="#c83500">description</text>
<text text-anchor="start" x="791.5" y="-772.3" font-family="Times,serif" font-size="14.00" fill="#000000"> : </text>
<text text-anchor="start" x="803.5" y="-772.3" font-family="mono" font-size="14.00" fill="#c83500">string</text>
<polygon fill="#ddeeff" stroke="transparent" points="697.5,-743.5 697.5,-764.5 950.5,-764.5 950.5,-743.5 697.5,-743.5"/>
<polygon fill="none" stroke="#8ccbf2" points="697.5,-743.5 697.5,-764.5 950.5,-764.5 950.5,-743.5 697.5,-743.5"/>
<text text-anchor="start" x="700.5" y="-751.3" font-family="mono" font-size="14.00" fill="#c83500">support</text>
<text text-anchor="start" x="758.5" y="-751.3" font-family="Times,serif" font-size="14.00" fill="#000000"> : </text>
<text text-anchor="start" x="770.5" y="-751.3" font-family="mono" font-size="14.00" fill="#c83500">string</text>
<polygon fill="#ddeeff" stroke="transparent" points="697.5,-722.5 697.5,-743.5 950.5,-743.5 950.5,-722.5 697.5,-722.5"/>
<polygon fill="none" stroke="#8ccbf2" points="697.5,-722.5 697.5,-743.5 950.5,-743.5 950.5,-722.5 697.5,-722.5"/>
<text text-anchor="start" x="700.5" y="-730.3" font-family="mono" font-size="14.00" fill="#c83500">base</text>
<text text-anchor="start" x="734.5" y="-730.3" font-family="Times,serif" font-size="14.00" fill="#000000"> : </text>
<text text-anchor="start" x="746.5" y="-730.3" font-family="mono" font-size="14.00" fill="#c83500">anyURI</text>
<polygon fill="#ddeeff" stroke="transparent" points="697.5,-701.5 697.5,-722.5 950.5,-722.5 950.5,-701.5 697.5,-701.5"/>
<polygon fill="none" stroke="#8ccbf2" points="697.5,-701.5 697.5,-722.5 950.5,-722.5 950.5,-701.5 697.5,-701.5"/>
<text text-anchor="start" x="700.5" y="-709.3" font-family="mono" font-size="14.00" fill="#c83500">created</text>
<text text-anchor="start" x="758.5" y="-709.3" font-family="Times,serif" font-size="14.00" fill="#000000"> : </text>
<text text-anchor="start" x="770.5" y="-709.3" font-family="mono" font-size="14.00" fill="#c83500">string</text>
<polygon fill="#ddeeff" stroke="transparent" points="697.5,-680.5 697.5,-701.5 950.5,-701.5 950.5,-680.5 697.5,-680.5"/>
<polygon fill="none" stroke="#8ccbf2" points="697.5,-680.5 697.5,-701.5 950.5,-701.5 950.5,-680.5 697.5,-680.5"/>
<text text-anchor="start" x="700.5" y="-688.3" font-family="mono" font-size="14.00" fill="#c83500">lastModified</text>
<text text-anchor="start" x="800.5" y="-688.3" font-family="Times,serif" font-size="14.00" fill="#000000"> : </text>
<text text-anchor="start" x="812.5" y="-688.3" font-family="mono" font-size="14.00" fill="#c83500">string</text>
<polygon fill="#ddeeff" stroke="transparent" points="697.5,-659.5 697.5,-680.5 950.5,-680.5 950.5,-659.5 697.5,-659.5"/>
<polygon fill="none" stroke="#8ccbf2" points="697.5,-659.5 697.5,-680.5 950.5,-680.5 950.5,-659.5 697.5,-659.5"/>
<text text-anchor="start" x="700.5" y="-667.3" font-family="mono" font-size="14.00" fill="#c83500">name</text>
<text text-anchor="start" x="734.5" y="-667.3" font-family="Times,serif" font-size="14.00" fill="#000000"> : </text>
<text text-anchor="start" x="746.5" y="-667.3" font-family="mono" font-size="14.00" fill="#c83500">string</text>
<text text-anchor="start" x="796.5" y="-667.3" font-family="Times,serif" font-size="14.00" fill="#000000"> </text>
<text text-anchor="start" x="800.5" y="-667.3" font-family="Times,serif" font-style="italic" font-size="14.00" fill="#000000">(mandatory)</text>
<polygon fill="#ddeeff" stroke="transparent" points="697.5,-638.5 697.5,-659.5 950.5,-659.5 950.5,-638.5 697.5,-638.5"/>
<polygon fill="none" stroke="#8ccbf2" points="697.5,-638.5 697.5,-659.5 950.5,-659.5 950.5,-638.5 697.5,-638.5"/>
<text text-anchor="start" x="700.5" y="-646.3" font-family="mono" font-size="14.00" fill="#c83500">security</text>
<text text-anchor="start" x="767.5" y="-646.3" font-family="Times,serif" font-size="14.00" fill="#000000"> : array of </text>
<text text-anchor="start" x="825.5" y="-646.3" font-family="mono" font-size="14.00" fill="#c83500">string</text>
<text text-anchor="start" x="875.5" y="-646.3" font-family="Times,serif" font-size="14.00" fill="#000000"> </text>
<text text-anchor="start" x="879.5" y="-646.3" font-family="Times,serif" font-style="italic" font-size="14.00" fill="#000000">(mandatory)</text>
</g>
<!-- Thing&#45;&gt;MultiLanguage -->
<g id="edge11" class="edge">
<title>Thing&#45;&gt;MultiLanguage</title>
<path fill="none" stroke="#000000" d="M688.8737,-716.2919C540.736,-694.2689 316.7478,-650.7857 265.5,-584 229.9943,-537.7293 267.7602,-300.0697 290.5,-274 310.7682,-250.7639 330.9297,-271.6439 357.5,-256 379.6853,-242.9379 399.6752,-221.5496 413.4279,-204.5476"/>
<polygon fill="#000000" stroke="#000000" points="416.2381,-206.636 419.6605,-196.6092 410.7322,-202.3133 416.2381,-206.636"/>
<text text-anchor="start" x="254.5" y="-441.8" font-family="mono" font-size="14.00" fill="#c83500">descriptions</text>
<text text-anchor="middle" x="430.6605" y="-200.4092" font-family="Times,serif" font-size="14.00" fill="#000000">0..1</text>
</g>
<!-- Thing&#45;&gt;Link -->
<g id="edge9" class="edge">
<title>Thing&#45;&gt;Link</title>
<path fill="none" stroke="#000000" d="M939.5383,-634.7236C957.0517,-619.8155 974.7038,-604.7893 991.0239,-590.897"/>
<polygon fill="#000000" stroke="#000000" points="993.5761,-593.3208 998.9222,-584.1737 989.0387,-587.9905 993.5761,-593.3208"/>
<text text-anchor="start" x="973.5" y="-605.8" font-family="mono" font-size="14.00" fill="#c83500">links</text>
<text text-anchor="middle" x="987.9222" y="-587.9737" font-family="Times,serif" font-size="14.00" fill="#000000">0..*</text>
</g>
<!-- Thing&#45;&gt;Form -->
<g id="edge8" class="edge">
<title>Thing&#45;&gt;Form</title>
<path fill="none" stroke="#000000" d="M688.8542,-713.568C551.7128,-691.6905 349.6797,-654.6469 280.5,-617 161.5395,-552.2629 154.9246,-374.909 163.1595,-266.6157"/>
<polygon fill="#000000" stroke="#000000" points="166.6717,-266.6097 163.9996,-256.3574 159.695,-266.0384 166.6717,-266.6097"/>
<text text-anchor="start" x="172.5" y="-441.8" font-family="mono" font-size="14.00" fill="#c83500">forms</text>
<text text-anchor="middle" x="152.9996" y="-260.1574" font-family="Times,serif" font-size="14.00" fill="#000000">0..*</text>
</g>
<!-- Property -->
<g id="node6" class="node">
<title>Property</title>
<polygon fill="#8ccbf2" stroke="transparent" points="283.5,-527.5 283.5,-548.5 556.5,-548.5 556.5,-527.5 283.5,-527.5"/>
<polygon fill="none" stroke="#8ccbf2" points="283.5,-527.5 283.5,-548.5 556.5,-548.5 556.5,-527.5 283.5,-527.5"/>
<text text-anchor="start" x="386.5" y="-535.3" font-family="mono" font-weight="bold" font-size="14.00" fill="#c83500">Property</text>
<polygon fill="#ddeeff" stroke="transparent" points="283.5,-506.5 283.5,-527.5 556.5,-527.5 556.5,-506.5 283.5,-506.5"/>
<polygon fill="none" stroke="#8ccbf2" points="283.5,-506.5 283.5,-527.5 556.5,-527.5 556.5,-506.5 283.5,-506.5"/>
<text text-anchor="start" x="286.5" y="-514.3" font-family="mono" font-size="14.00" fill="#c83500">observable</text>
<text text-anchor="start" x="369.5" y="-514.3" font-family="Times,serif" font-size="14.00" fill="#000000"> : </text>
<text text-anchor="start" x="381.5" y="-514.3" font-family="mono" font-size="14.00" fill="#c83500">boolean</text>
<text text-anchor="start" x="439.5" y="-514.3" font-family="Times,serif" font-size="14.00" fill="#000000"> = false </text>
<text text-anchor="start" x="485.5" y="-514.3" font-family="Times,serif" font-style="italic" font-size="14.00" fill="#000000">(mandatory)</text>
</g>
<!-- Thing&#45;&gt;Property -->
<g id="edge10" class="edge">
<title>Thing&#45;&gt;Property</title>
<path fill="none" stroke="#000000" d="M688.9738,-664.905C617.3685,-628.3934 532.9833,-585.3652 477.9731,-557.3155"/>
<polygon fill="#000000" stroke="#000000" points="479.2276,-554.0265 468.729,-552.6019 476.0478,-560.2626 479.2276,-554.0265"/>
<text text-anchor="start" x="585.5" y="-605.8" font-family="mono" font-size="14.00" fill="#c83500">properties</text>
<text text-anchor="middle" x="457.729" y="-556.4019" font-family="Times,serif" font-size="14.00" fill="#000000">0..1</text>
</g>
<!-- Action -->
<g id="node8" class="node">
<title>Action</title>
<polygon fill="#8ccbf2" stroke="transparent" points="590.5,-537.5 590.5,-558.5 863.5,-558.5 863.5,-537.5 590.5,-537.5"/>
<polygon fill="none" stroke="#8ccbf2" points="590.5,-537.5 590.5,-558.5 863.5,-558.5 863.5,-537.5 590.5,-537.5"/>
<text text-anchor="start" x="702" y="-545.3" font-family="mono" font-weight="bold" font-size="14.00" fill="#c83500">Action</text>
<polygon fill="#ddeeff" stroke="transparent" points="590.5,-516.5 590.5,-537.5 863.5,-537.5 863.5,-516.5 590.5,-516.5"/>
<polygon fill="none" stroke="#8ccbf2" points="590.5,-516.5 590.5,-537.5 863.5,-537.5 863.5,-516.5 590.5,-516.5"/>
<text text-anchor="start" x="593.5" y="-524.3" font-family="mono" font-size="14.00" fill="#c83500">idempotent</text>
<text text-anchor="start" x="676.5" y="-524.3" font-family="Times,serif" font-size="14.00" fill="#000000"> : </text>
<text text-anchor="start" x="688.5" y="-524.3" font-family="mono" font-size="14.00" fill="#c83500">boolean</text>
<text text-anchor="start" x="746.5" y="-524.3" font-family="Times,serif" font-size="14.00" fill="#000000"> = false </text>
<text text-anchor="start" x="792.5" y="-524.3" font-family="Times,serif" font-style="italic" font-size="14.00" fill="#000000">(mandatory)</text>
<polygon fill="#ddeeff" stroke="transparent" points="590.5,-495.5 590.5,-516.5 863.5,-516.5 863.5,-495.5 590.5,-495.5"/>
<polygon fill="none" stroke="#8ccbf2" points="590.5,-495.5 590.5,-516.5 863.5,-516.5 863.5,-495.5 590.5,-495.5"/>
<text text-anchor="start" x="593.5" y="-503.3" font-family="mono" font-size="14.00" fill="#c83500">safe</text>
<text text-anchor="start" x="627.5" y="-503.3" font-family="Times,serif" font-size="14.00" fill="#000000"> : </text>
<text text-anchor="start" x="639.5" y="-503.3" font-family="mono" font-size="14.00" fill="#c83500">boolean</text>
<text text-anchor="start" x="697.5" y="-503.3" font-family="Times,serif" font-size="14.00" fill="#000000"> = false </text>
<text text-anchor="start" x="743.5" y="-503.3" font-family="Times,serif" font-style="italic" font-size="14.00" fill="#000000">(mandatory)</text>
</g>
<!-- Thing&#45;&gt;Action -->
<g id="edge7" class="edge">
<title>Thing&#45;&gt;Action</title>
<path fill="none" stroke="#000000" d="M776.9888,-634.7236C766.7204,-612.9165 756.333,-590.8566 747.6717,-572.4626"/>
<polygon fill="#000000" stroke="#000000" points="750.7362,-570.7548 743.3096,-563.1987 744.4032,-573.7369 750.7362,-570.7548"/>
<text text-anchor="start" x="766.5" y="-605.8" font-family="mono" font-size="14.00" fill="#c83500">actions</text>
<text text-anchor="middle" x="732.3096" y="-566.9987" font-family="Times,serif" font-size="14.00" fill="#000000">0..1</text>
</g>
<!-- Event -->
<g id="node9" class="node">
<title>Event</title>
<polygon fill="#8ccbf2" stroke="transparent" points="896.5,-516.5 896.5,-537.5 944.5,-537.5 944.5,-516.5 896.5,-516.5"/>
<polygon fill="none" stroke="#8ccbf2" points="896.5,-516.5 896.5,-537.5 944.5,-537.5 944.5,-516.5 896.5,-516.5"/>
<text text-anchor="start" x="899.5" y="-524.3" font-family="mono" font-weight="bold" font-size="14.00" fill="#c83500">Event</text>
</g>
<!-- Thing&#45;&gt;Event -->
<g id="edge13" class="edge">
<title>Thing&#45;&gt;Event</title>
<path fill="none" stroke="#000000" d="M870.0112,-634.7236C883.8628,-605.3068 897.931,-575.4299 907.6865,-554.7122"/>
<polygon fill="#000000" stroke="#000000" points="910.8853,-556.1346 911.9789,-545.5964 904.5522,-553.1525 910.8853,-556.1346"/>
<text text-anchor="start" x="884.5" y="-605.8" font-family="mono" font-size="14.00" fill="#c83500">events</text>
<text text-anchor="middle" x="900.9789" y="-549.3964" font-family="Times,serif" font-size="14.00" fill="#000000">0..1</text>
</g>
<!-- Versioning -->
<g id="node10" class="node">
<title>Versioning</title>
<polygon fill="#8ccbf2" stroke="transparent" points="1187.5,-527.5 1187.5,-548.5 1394.5,-548.5 1394.5,-527.5 1187.5,-527.5"/>
<polygon fill="none" stroke="#8ccbf2" points="1187.5,-527.5 1187.5,-548.5 1394.5,-548.5 1394.5,-527.5 1187.5,-527.5"/>
<text text-anchor="start" x="1249.5" y="-535.3" font-family="mono" font-weight="bold" font-size="14.00" fill="#c83500">Versioning</text>
<polygon fill="#ddeeff" stroke="transparent" points="1187.5,-506.5 1187.5,-527.5 1394.5,-527.5 1394.5,-506.5 1187.5,-506.5"/>
<polygon fill="none" stroke="#8ccbf2" points="1187.5,-506.5 1187.5,-527.5 1394.5,-527.5 1394.5,-506.5 1187.5,-506.5"/>
<text text-anchor="start" x="1190.5" y="-514.3" font-family="mono" font-size="14.00" fill="#c83500">instance</text>
<text text-anchor="start" x="1257.5" y="-514.3" font-family="Times,serif" font-size="14.00" fill="#000000"> : </text>
<text text-anchor="start" x="1269.5" y="-514.3" font-family="mono" font-size="14.00" fill="#c83500">string</text>
<text text-anchor="start" x="1319.5" y="-514.3" font-family="Times,serif" font-size="14.00" fill="#000000"> </text>
<text text-anchor="start" x="1323.5" y="-514.3" font-family="Times,serif" font-style="italic" font-size="14.00" fill="#000000">(mandatory)</text>
</g>
<!-- Thing&#45;&gt;Versioning -->
<g id="edge12" class="edge">
<title>Thing&#45;&gt;Versioning</title>
<path fill="none" stroke="#000000" d="M958.2223,-676.3633C1022.3966,-648.8724 1100.1141,-615.1819 1169.5,-584 1188.7636,-575.343 1209.6387,-565.693 1228.5393,-556.8528"/>
<polygon fill="#000000" stroke="#000000" points="1230.0739,-559.999 1237.6435,-552.586 1227.1033,-553.6605 1230.0739,-559.999"/>
<text text-anchor="start" x="1123.5" y="-605.8" font-family="mono" font-size="14.00" fill="#c83500">version</text>
<text text-anchor="middle" x="1226.6435" y="-556.386" font-family="Times,serif" font-size="14.00" fill="#000000">0..1</text>
</g>
<!-- SecurityScheme -->
<g id="node12" class="node">
<title>SecurityScheme</title>
<polygon fill="#f2f2f2" stroke="transparent" points="1428.5,-516.5 1428.5,-537.5 1550.5,-537.5 1550.5,-516.5 1428.5,-516.5"/>
<polygon fill="none" stroke="#8c8c8c" points="1428.5,-516.5 1428.5,-537.5 1550.5,-537.5 1550.5,-516.5 1428.5,-516.5"/>
<text text-anchor="start" x="1431.5" y="-524.3" font-family="mono" font-weight="bold" font-size="14.00" fill="#000000">SecurityScheme</text>
</g>
<!-- Thing&#45;&gt;SecurityScheme -->
<g id="edge6" class="edge">
<title>Thing&#45;&gt;SecurityScheme</title>
<path fill="none" stroke="#000000" d="M958.2661,-713.827C1080.4555,-692.6297 1263.401,-652.3756 1410.5,-584 1428.395,-575.6819 1446.4386,-563.1612 1460.7551,-552.0188"/>
<polygon fill="#000000" stroke="#000000" points="1463.0909,-554.6327 1468.7245,-545.6597 1458.7249,-549.1611 1463.0909,-554.6327"/>
<text text-anchor="start" x="1366.5" y="-605.8" font-family="mono" font-size="14.00" fill="#c83500">securityDefinitions</text>
<text text-anchor="middle" x="1457.7245" y="-549.4597" font-family="Times,serif" font-size="14.00" fill="#000000">1..1</text>
</g>
<!-- Property&#45;&gt;InteractionPattern -->
<g id="edge21" class="edge">
<title>Property&#45;&gt;InteractionPattern</title>
<path fill="none" stroke="#000000" d="M421.5028,-502.2344C423.0307,-482.9594 425.2088,-455.4812 427.2241,-430.0577"/>
<polygon fill="#ffffff" stroke="#000000" points="430.7149,-430.3113 428.0161,-420.066 423.7368,-429.7581 430.7149,-430.3113"/>
</g>
<!-- Action&#45;&gt;InteractionPattern -->
<g id="edge20" class="edge">
<title>Action&#45;&gt;InteractionPattern</title>
<path fill="none" stroke="#000000" d="M662.7064,-491.9144C626.9121,-471.9475 581.3036,-446.5061 540.1402,-423.5442"/>
<polygon fill="#ffffff" stroke="#000000" points="541.5947,-420.3479 531.1565,-418.5329 538.1846,-426.4611 541.5947,-420.3479"/>
</g>
<!-- Action&#45;&gt;DataSchema -->
<g id="edge14" class="edge">
<title>Action&#45;&gt;DataSchema</title>
<path fill="none" stroke="#000000" d="M708.3604,-491.8293C688.3378,-447.4471 661.7605,-369.8452 684.5,-307 699.7176,-264.9432 735.3714,-226.9675 761.3527,-203.3926"/>
<polygon fill="#000000" stroke="#000000" points="763.9105,-205.8026 769.0721,-196.55 759.2671,-200.5643 763.9105,-205.8026"/>
<text text-anchor="start" x="684.5" y="-359.8" font-family="mono" font-size="14.00" fill="#c83500">input</text>
<text text-anchor="middle" x="758.0721" y="-200.35" font-family="Times,serif" font-size="14.00" fill="#000000">0..1</text>
</g>
<!-- Action&#45;&gt;DataSchema -->
<g id="edge15" class="edge">
<title>Action&#45;&gt;DataSchema</title>
<path fill="none" stroke="#000000" d="M731.6437,-491.8664C738.1059,-448.173 749.8867,-371.9197 762.5,-307 769.2473,-272.2722 778.4289,-232.5955 784.6394,-206.6302"/>
<polygon fill="#000000" stroke="#000000" points="788.0855,-207.269 787.023,-196.7275 781.2799,-205.6307 788.0855,-207.269"/>
<text text-anchor="start" x="762.5" y="-359.8" font-family="mono" font-size="14.00" fill="#c83500">output</text>
<text text-anchor="middle" x="798.023" y="-200.5275" font-family="Times,serif" font-size="14.00" fill="#000000">0..1</text>
</g>
<!-- Event&#45;&gt;InteractionPattern -->
<g id="edge19" class="edge">
<title>Event&#45;&gt;InteractionPattern</title>
<path fill="none" stroke="#000000" d="M911.9128,-509.4786C904.9342,-496.7859 893.8937,-480.4339 879.5,-471 857.5163,-456.5915 674.0527,-426.1603 648.5,-420 613.5175,-411.5664 575.5014,-401.8193 541.2524,-392.8204"/>
<polygon fill="#ffffff" stroke="#000000" points="541.7883,-389.3423 531.2266,-390.1794 540.0051,-396.1114 541.7883,-389.3423"/>
</g>
<!-- Event&#45;&gt;DataSchema -->
<g id="edge16" class="edge">
<title>Event&#45;&gt;DataSchema</title>
<path fill="none" stroke="#000000" d="M907.0569,-509.1762C888.5327,-483.6443 856.5314,-438.43 848.5,-420 816.6349,-346.8778 801.0462,-253.1971 794.8586,-206.9478"/>
<polygon fill="#000000" stroke="#000000" points="798.2971,-206.245 793.5482,-196.7741 791.3545,-207.1393 798.2971,-206.245"/>
<text text-anchor="start" x="848.5" y="-359.8" font-family="mono" font-size="14.00" fill="#c83500">subscription</text>
<text text-anchor="middle" x="782.5482" y="-200.5741" font-family="Times,serif" font-size="14.00" fill="#000000">0..1</text>
</g>
<!-- Event&#45;&gt;DataSchema -->
<g id="edge17" class="edge">
<title>Event&#45;&gt;DataSchema</title>
<path fill="none" stroke="#000000" d="M929.1981,-509.3063C946.5734,-470.1918 981.2132,-376.0482 948.5,-307 925.743,-258.9664 875.2626,-222.9114 837.65,-201.4032"/>
<polygon fill="#000000" stroke="#000000" points="839.3119,-198.3226 828.8729,-196.5122 835.9044,-204.4373 839.3119,-198.3226"/>
<text text-anchor="start" x="962.5" y="-359.8" font-family="mono" font-size="14.00" fill="#c83500">cancellation</text>
<text text-anchor="middle" x="839.8729" y="-200.3122" font-family="Times,serif" font-size="14.00" fill="#000000">0..1</text>
</g>
<!-- Event&#45;&gt;DataSchema -->
<g id="edge18" class="edge">
<title>Event&#45;&gt;DataSchema</title>
<path fill="none" stroke="#000000" d="M930.4326,-509.4018C937.7695,-497.3227 948.6822,-481.7439 961.5,-471 1001.2601,-437.673 1038.9718,-463.9745 1066.5,-420 1093.1485,-377.4309 1093.4676,-349.3677 1066.5,-307 1019.9364,-233.8458 919.6113,-201.6438 853.8776,-187.9724"/>
<polygon fill="#000000" stroke="#000000" points="854.5312,-184.5339 844.0398,-186.0104 853.1621,-191.3987 854.5312,-184.5339"/>
<text text-anchor="start" x="1087.5" y="-359.8" font-family="mono" font-size="14.00" fill="#c83500">data</text>
<text text-anchor="middle" x="855.0398" y="-174.8104" font-family="Times,serif" font-size="14.00" fill="#000000">0..1</text>
</g>
</g>
</svg>
