<?xml version="1.0" encoding="UTF-8" standalone="no"?>
<!DOCTYPE svg PUBLIC "-//W3C//DTD SVG 1.1//EN"
 "http://www.w3.org/Graphics/SVG/1.1/DTD/svg11.dtd">
<!-- Generated by graphviz version 2.43.0 (0)
 -->
<!-- Title: %3 Pages: 1 -->
<svg width="1282pt" height="578pt"
 viewBox="0.00 0.00 1281.58 578.00" xmlns="http://www.w3.org/2000/svg" xmlns:xlink="http://www.w3.org/1999/xlink">
<g id="graph0" class="graph" transform="scale(1 1) rotate(0) translate(4 574)">
<title>%3</title>
<polygon fill="white" stroke="transparent" points="-4,4 -4,-574 1277.58,-574 1277.58,4 -4,4"/>
<!-- ActionAffordance -->
<g id="node1" class="node">
<title>ActionAffordance</title>
<polygon fill="#8ccbf2" stroke="transparent" points="561.58,-254.5 561.58,-275.5 722.58,-275.5 722.58,-254.5 561.58,-254.5"/>
<polygon fill="none" stroke="#8ccbf2" points="561.58,-254.5 561.58,-275.5 722.58,-275.5 722.58,-254.5 561.58,-254.5"/>
<text text-anchor="start" x="575.58" y="-262.3" font-family="mono" font-weight="bold" font-size="14.00" fill="#c83500">ActionAffordance</text>
<polygon fill="#ddeeff" stroke="transparent" points="561.58,-233.5 561.58,-254.5 722.58,-254.5 722.58,-233.5 561.58,-233.5"/>
<polygon fill="none" stroke="#8ccbf2" points="561.58,-233.5 561.58,-254.5 722.58,-254.5 722.58,-233.5 561.58,-233.5"/>
<text text-anchor="start" x="564.58" y="-241.3" font-family="mono" font-size="14.00" fill="#c83500">safe</text>
<text text-anchor="start" x="598.58" y="-241.3" font-family="Times,serif" font-size="14.00"> : </text>
<text text-anchor="start" x="612.58" y="-241.3" font-family="mono" font-size="14.00" fill="#c83500">boolean</text>
<polygon fill="#ddeeff" stroke="transparent" points="561.58,-212.5 561.58,-233.5 722.58,-233.5 722.58,-212.5 561.58,-212.5"/>
<polygon fill="none" stroke="#8ccbf2" points="561.58,-212.5 561.58,-233.5 722.58,-233.5 722.58,-212.5 561.58,-212.5"/>
<text text-anchor="start" x="564.58" y="-220.3" font-family="mono" font-size="14.00" fill="#c83500">idempotent</text>
<text text-anchor="start" x="647.58" y="-220.3" font-family="Times,serif" font-size="14.00"> : </text>
<text text-anchor="start" x="661.58" y="-220.3" font-family="mono" font-size="14.00" fill="#c83500">boolean</text>
</g>
<!-- InteractionAffordance -->
<g id="node3" class="node">
<title>InteractionAffordance</title>
<polygon fill="#8ccbf2" stroke="transparent" points="332.58,-132.5 332.58,-153.5 765.58,-153.5 765.58,-132.5 332.58,-132.5"/>
<polygon fill="none" stroke="#8ccbf2" points="332.58,-132.5 332.58,-153.5 765.58,-153.5 765.58,-132.5 332.58,-132.5"/>
<text text-anchor="start" x="462.08" y="-140.3" font-family="mono" font-weight="bold" font-size="14.00" fill="#c83500">InteractionAffordance</text>
<polygon fill="#ddeeff" stroke="transparent" points="332.58,-111.5 332.58,-132.5 765.58,-132.5 765.58,-111.5 332.58,-111.5"/>
<polygon fill="none" stroke="#8ccbf2" points="332.58,-111.5 332.58,-132.5 765.58,-132.5 765.58,-111.5 332.58,-111.5"/>
<text text-anchor="start" x="335.58" y="-119.3" font-family="mono" font-size="14.00" fill="#c83500">title</text>
<text text-anchor="start" x="377.58" y="-119.3" font-family="Times,serif" font-size="14.00"> : Map of </text>
<text text-anchor="start" x="445.58" y="-119.3" font-family="mono" font-size="14.00" fill="#c83500">string</text>
<text text-anchor="start" x="495.58" y="-119.3" font-family="mono" font-size="14.00" fill="#c83500">titles</text>
<text text-anchor="start" x="545.58" y="-119.3" font-family="Times,serif" font-size="14.00"> : Map of </text>
<text text-anchor="start" x="613.58" y="-119.3" font-family="mono" font-size="14.00" fill="#c83500">string</text>
<polygon fill="#ddeeff" stroke="transparent" points="332.58,-90.5 332.58,-111.5 765.58,-111.5 765.58,-90.5 332.58,-90.5"/>
<polygon fill="none" stroke="#8ccbf2" points="332.58,-90.5 332.58,-111.5 765.58,-111.5 765.58,-90.5 332.58,-90.5"/>
<text text-anchor="start" x="335.58" y="-98.3" font-family="mono" font-size="14.00" fill="#c83500">description</text>
<text text-anchor="start" x="426.58" y="-98.3" font-family="Times,serif" font-size="14.00"> : Map of </text>
<text text-anchor="start" x="494.58" y="-98.3" font-family="mono" font-size="14.00" fill="#c83500">string</text>
<text text-anchor="start" x="544.58" y="-98.3" font-family="mono" font-size="14.00" fill="#c83500">descriptions</text>
<text text-anchor="start" x="644.58" y="-98.3" font-family="Times,serif" font-size="14.00"> : Map of </text>
<text text-anchor="start" x="712.58" y="-98.3" font-family="mono" font-size="14.00" fill="#c83500">string</text>
</g>
<!-- ActionAffordance&#45;&gt;InteractionAffordance -->
<g id="edge15" class="edge">
<title>ActionAffordance&#45;&gt;InteractionAffordance</title>
<path fill="none" stroke="black" d="M614.68,-208.79C604.37,-195.48 592.48,-180.14 581.65,-166.17"/>
<polygon fill="white" stroke="black" points="584.31,-163.89 575.42,-158.13 578.78,-168.18 584.31,-163.89"/>
</g>
<!-- DataSchema -->
<g id="node9" class="node">
<title>DataSchema</title>
<polygon fill="#f2f2f2" stroke="transparent" points="247.58,-7 247.58,-28 336.58,-28 336.58,-7 247.58,-7"/>
<polygon fill="none" stroke="#8c8c8c" points="247.58,-7 247.58,-28 336.58,-28 336.58,-7 247.58,-7"/>
<text text-anchor="start" x="250.58" y="-14.8" font-family="mono" font-weight="bold" font-size="14.00">DataSchema</text>
</g>
<!-- ActionAffordance&#45;&gt;DataSchema -->
<g id="edge5" class="edge">
<title>ActionAffordance&#45;&gt;DataSchema</title>
<path fill="none" stroke="black" d="M728.58,-208.94C749.64,-196.21 769.53,-179.48 781.58,-158 797.02,-130.48 802.31,-110.8 781.58,-87 753.91,-55.23 480.75,-32.21 354.71,-23.19"/>
<polygon fill="black" stroke="black" points="354.66,-19.68 344.44,-22.47 354.17,-26.66 354.66,-19.68"/>
<text text-anchor="start" x="795.58" y="-118.8" font-family="mono" font-size="14.00" fill="#c83500">input</text>
<text text-anchor="middle" x="358.44" y="-26.27" font-family="Times,serif" font-size="14.00">0..1</text>
</g>
<!-- ActionAffordance&#45;&gt;DataSchema -->
<g id="edge6" class="edge">
<title>ActionAffordance&#45;&gt;DataSchema</title>
<path fill="none" stroke="black" d="M730.31,-210.98C780.65,-191.6 834.94,-168.74 841.58,-158 858.17,-131.16 860.91,-111.94 841.58,-87 812.08,-48.93 492.24,-28.81 354.3,-21.85"/>
<polygon fill="black" stroke="black" points="354.45,-18.36 344.29,-21.36 354.11,-25.35 354.45,-18.36"/>
<text text-anchor="start" x="855.58" y="-118.8" font-family="mono" font-size="14.00" fill="#c83500">output</text>
<text text-anchor="middle" x="358.29" y="-10.16" font-family="Times,serif" font-size="14.00">0..1</text>
</g>
<!-- EventAffordance -->
<g id="node2" class="node">
<title>EventAffordance</title>
<polygon fill="#8ccbf2" stroke="transparent" points="140.58,-233.5 140.58,-254.5 270.58,-254.5 270.58,-233.5 140.58,-233.5"/>
<polygon fill="none" stroke="#8ccbf2" points="140.58,-233.5 140.58,-254.5 270.58,-254.5 270.58,-233.5 140.58,-233.5"/>
<text text-anchor="start" x="143.58" y="-241.3" font-family="mono" font-weight="bold" font-size="14.00" fill="#c83500">EventAffordance</text>
</g>
<!-- EventAffordance&#45;&gt;InteractionAffordance -->
<g id="edge16" class="edge">
<title>EventAffordance&#45;&gt;InteractionAffordance</title>
<path fill="none" stroke="black" d="M254.36,-226.43C302.57,-209.57 377.93,-183.2 440.31,-161.38"/>
<polygon fill="white" stroke="black" points="441.53,-164.66 449.81,-158.05 439.22,-158.05 441.53,-164.66"/>
</g>
<!-- EventAffordance&#45;&gt;DataSchema -->
<g id="edge7" class="edge">
<title>EventAffordance&#45;&gt;DataSchema</title>
<path fill="none" stroke="black" d="M132.54,-231.19C90.04,-219.87 39.81,-198.4 13.58,-158 -3.6,-131.53 -5.19,-112.36 13.58,-87 38.92,-52.77 154.99,-33.89 228.92,-25.15"/>
<polygon fill="black" stroke="black" points="229.52,-28.6 239.05,-23.99 228.72,-21.65 229.52,-28.6"/>
<text text-anchor="start" x="13.58" y="-118.8" font-family="mono" font-size="14.00" fill="#c83500">subscription</text>
<text text-anchor="middle" x="225.05" y="-12.79" font-family="Times,serif" font-size="14.00">0..1</text>
</g>
<!-- EventAffordance&#45;&gt;DataSchema -->
<g id="edge8" class="edge">
<title>EventAffordance&#45;&gt;DataSchema</title>
<path fill="none" stroke="black" d="M189.98,-226.38C176.32,-210.14 157.45,-184.36 149.58,-158 140.56,-127.76 135.79,-115.38 149.58,-87 164.41,-56.5 198.22,-39.59 229.13,-30.26"/>
<polygon fill="black" stroke="black" points="230.35,-33.56 239.03,-27.49 228.46,-26.82 230.35,-33.56"/>
<text text-anchor="start" x="149.58" y="-118.8" font-family="mono" font-size="14.00" fill="#c83500">data</text>
<text text-anchor="middle" x="225.03" y="-31.29" font-family="Times,serif" font-size="14.00">0..1</text>
</g>
<!-- EventAffordance&#45;&gt;DataSchema -->
<g id="edge9" class="edge">
<title>EventAffordance&#45;&gt;DataSchema</title>
<path fill="none" stroke="black" d="M202.49,-226.46C197.91,-196.52 192.1,-133.26 214.58,-87 223.33,-69 239.21,-53.71 254.28,-42.22"/>
<polygon fill="black" stroke="black" points="256.49,-44.94 262.52,-36.23 252.37,-39.28 256.49,-44.94"/>
<text text-anchor="start" x="214.58" y="-118.8" font-family="mono" font-size="14.00" fill="#c83500">cancellation</text>
<text text-anchor="middle" x="276.52" y="-40.03" font-family="Times,serif" font-size="14.00">0..1</text>
</g>
<!-- Form -->
<g id="node7" class="node">
<title>Form</title>
<polygon fill="#f2f2f2" stroke="transparent" points="966.58,-7 966.58,-28 1006.58,-28 1006.58,-7 966.58,-7"/>
<polygon fill="none" stroke="#8c8c8c" points="966.58,-7 966.58,-28 1006.58,-28 1006.58,-7 966.58,-7"/>
<text text-anchor="start" x="969.58" y="-14.8" font-family="mono" font-weight="bold" font-size="14.00">Form</text>
</g>
<!-- InteractionAffordance&#45;&gt;Form -->
<g id="edge1" class="edge">
<title>InteractionAffordance&#45;&gt;Form</title>
<path fill="none" stroke="black" d="M696.26,-86.94C785.57,-66.04 892.65,-40.98 948.47,-27.92"/>
<polygon fill="black" stroke="black" points="949.35,-31.31 958.29,-25.62 947.75,-24.49 949.35,-31.31"/>
<text text-anchor="start" x="832.58" y="-57.8" font-family="mono" font-size="14.00" fill="#c83500">forms</text>
<text text-anchor="middle" x="945.79" y="-29.42" font-family="Times,serif" font-size="14.00">1..*</text>
</g>
<!-- InteractionAffordance&#45;&gt;DataSchema -->
<g id="edge11" class="edge">
<title>InteractionAffordance&#45;&gt;DataSchema</title>
<path fill="none" stroke="black" d="M461.93,-86.94C422.81,-71.34 377.87,-53.41 343.98,-39.9"/>
<polygon fill="black" stroke="black" points="344.86,-36.48 334.28,-36.03 342.27,-42.98 344.86,-36.48"/>
<text text-anchor="start" x="412.58" y="-57.8" font-family="mono" font-size="14.00" fill="#c83500">uriVariables</text>
<text text-anchor="middle" x="321.78" y="-39.83" font-family="Times,serif" font-size="14.00">0..*</text>
</g>
<!-- PropertyAffordance -->
<g id="node4" class="node">
<title>PropertyAffordance</title>
<polygon fill="#8ccbf2" stroke="transparent" points="366.58,-244.5 366.58,-265.5 527.58,-265.5 527.58,-244.5 366.58,-244.5"/>
<polygon fill="none" stroke="#8ccbf2" points="366.58,-244.5 366.58,-265.5 527.58,-265.5 527.58,-244.5 366.58,-244.5"/>
<text text-anchor="start" x="372.58" y="-252.3" font-family="mono" font-weight="bold" font-size="14.00" fill="#c83500">PropertyAffordance</text>
<polygon fill="#ddeeff" stroke="transparent" points="366.58,-223.5 366.58,-244.5 527.58,-244.5 527.58,-223.5 366.58,-223.5"/>
<polygon fill="none" stroke="#8ccbf2" points="366.58,-223.5 366.58,-244.5 527.58,-244.5 527.58,-223.5 366.58,-223.5"/>
<text text-anchor="start" x="369.58" y="-231.3" font-family="mono" font-size="14.00" fill="#c83500">observable</text>
<text text-anchor="start" x="452.58" y="-231.3" font-family="Times,serif" font-size="14.00"> : </text>
<text text-anchor="start" x="466.58" y="-231.3" font-family="mono" font-size="14.00" fill="#c83500">boolean</text>
</g>
<!-- PropertyAffordance&#45;&gt;InteractionAffordance -->
<g id="edge17" class="edge">
<title>PropertyAffordance&#45;&gt;InteractionAffordance</title>
<path fill="none" stroke="black" d="M467.22,-219.22C480.15,-204.01 497.16,-184 512.29,-166.2"/>
<polygon fill="white" stroke="black" points="515.27,-168.1 519.08,-158.21 509.94,-163.56 515.27,-168.1"/>
</g>
<!-- Thing -->
<g id="node5" class="node">
<title>Thing</title>
<polygon fill="#8ccbf2" stroke="transparent" points="655.58,-544.5 655.58,-565.5 1088.58,-565.5 1088.58,-544.5 655.58,-544.5"/>
<polygon fill="none" stroke="#8ccbf2" points="655.58,-544.5 655.58,-565.5 1088.58,-565.5 1088.58,-544.5 655.58,-544.5"/>
<text text-anchor="start" x="851.08" y="-552.3" font-family="mono" font-weight="bold" font-size="14.00" fill="#c83500">Thing</text>
<polygon fill="#ddeeff" stroke="transparent" points="655.58,-523.5 655.58,-544.5 1088.58,-544.5 1088.58,-523.5 655.58,-523.5"/>
<polygon fill="none" stroke="#8ccbf2" points="655.58,-523.5 655.58,-544.5 1088.58,-544.5 1088.58,-523.5 655.58,-523.5"/>
<text text-anchor="start" x="658.58" y="-531.3" font-family="mono" font-size="14.00" fill="#c83500">@context</text>
<text text-anchor="start" x="725.58" y="-531.3" font-family="Times,serif" font-size="14.00"> : </text>
<text text-anchor="start" x="739.58" y="-531.3" font-family="mono" font-style="italic" font-size="14.00" fill="#c83500">anyURI</text>
<text text-anchor="start" x="789.58" y="-531.3" font-family="Times,serif" font-style="italic" font-size="14.00"> or Array</text>
<text text-anchor="start" x="853.58" y="-531.3" font-family="Times,serif" font-size="14.00"> </text>
<text text-anchor="start" x="858.58" y="-531.3" font-family="Times,serif" font-style="italic" font-size="14.00">(mandatory)</text>
<polygon fill="#ddeeff" stroke="transparent" points="655.58,-502.5 655.58,-523.5 1088.58,-523.5 1088.58,-502.5 655.58,-502.5"/>
<polygon fill="none" stroke="#8ccbf2" points="655.58,-502.5 655.58,-523.5 1088.58,-523.5 1088.58,-502.5 655.58,-502.5"/>
<text text-anchor="start" x="658.58" y="-510.3" font-family="mono" font-size="14.00" fill="#c83500">@type</text>
<text text-anchor="start" x="700.58" y="-510.3" font-family="Times,serif" font-size="14.00"> : </text>
<text text-anchor="start" x="714.58" y="-510.3" font-family="Times,serif" font-style="italic" font-size="14.00">(Array of) </text>
<text text-anchor="start" x="787.58" y="-510.3" font-family="mono" font-size="14.00" fill="#c83500">string</text>
<polygon fill="#ddeeff" stroke="transparent" points="655.58,-481.5 655.58,-502.5 1088.58,-502.5 1088.58,-481.5 655.58,-481.5"/>
<polygon fill="none" stroke="#8ccbf2" points="655.58,-481.5 655.58,-502.5 1088.58,-502.5 1088.58,-481.5 655.58,-481.5"/>
<text text-anchor="start" x="658.58" y="-489.3" font-family="mono" font-size="14.00" fill="#c83500">id</text>
<text text-anchor="start" x="675.58" y="-489.3" font-family="Times,serif" font-size="14.00"> : </text>
<text text-anchor="start" x="689.58" y="-489.3" font-family="mono" font-size="14.00" fill="#c83500">anyURI</text>
<text text-anchor="start" x="739.58" y="-489.3" font-family="Times,serif" font-size="14.00"> </text>
<text text-anchor="start" x="744.58" y="-489.3" font-family="Times,serif" font-style="italic" font-size="14.00">(mandatory)</text>
<polygon fill="#ddeeff" stroke="transparent" points="655.58,-460.5 655.58,-481.5 1088.58,-481.5 1088.58,-460.5 655.58,-460.5"/>
<polygon fill="none" stroke="#8ccbf2" points="655.58,-460.5 655.58,-481.5 1088.58,-481.5 1088.58,-460.5 655.58,-460.5"/>
<text text-anchor="start" x="658.58" y="-468.3" font-family="mono" font-size="14.00" fill="#c83500">title</text>
<text text-anchor="start" x="700.58" y="-468.3" font-family="Times,serif" font-size="14.00"> : Map of </text>
<text text-anchor="start" x="768.58" y="-468.3" font-family="mono" font-size="14.00" fill="#c83500">string</text>
<text text-anchor="start" x="818.58" y="-468.3" font-family="Times,serif" font-size="14.00"> </text>
<text text-anchor="start" x="823.58" y="-468.3" font-family="Times,serif" font-style="italic" font-size="14.00">(mandatory)</text>
<text text-anchor="start" x="911.58" y="-468.3" font-family="mono" font-size="14.00" fill="#c83500">titles</text>
<text text-anchor="start" x="961.58" y="-468.3" font-family="Times,serif" font-size="14.00"> : Map of </text>
<text text-anchor="start" x="1029.58" y="-468.3" font-family="mono" font-size="14.00" fill="#c83500">string</text>
<polygon fill="#ddeeff" stroke="transparent" points="655.58,-439.5 655.58,-460.5 1088.58,-460.5 1088.58,-439.5 655.58,-439.5"/>
<polygon fill="none" stroke="#8ccbf2" points="655.58,-439.5 655.58,-460.5 1088.58,-460.5 1088.58,-439.5 655.58,-439.5"/>
<text text-anchor="start" x="658.58" y="-447.3" font-family="mono" font-size="14.00" fill="#c83500">security</text>
<text text-anchor="start" x="725.58" y="-447.3" font-family="Times,serif" font-size="14.00"> : (Array of) </text>
<text text-anchor="start" x="812.58" y="-447.3" font-family="mono" font-size="14.00" fill="#c83500">string</text>
<text text-anchor="start" x="862.58" y="-447.3" font-family="Times,serif" font-size="14.00"> </text>
<text text-anchor="start" x="867.58" y="-447.3" font-family="Times,serif" font-style="italic" font-size="14.00">(mandatory)</text>
<polygon fill="#ddeeff" stroke="transparent" points="655.58,-418.5 655.58,-439.5 1088.58,-439.5 1088.58,-418.5 655.58,-418.5"/>
<polygon fill="none" stroke="#8ccbf2" points="655.58,-418.5 655.58,-439.5 1088.58,-439.5 1088.58,-418.5 655.58,-418.5"/>
<text text-anchor="start" x="658.58" y="-426.3" font-family="mono" font-size="14.00" fill="#c83500">description</text>
<text text-anchor="start" x="749.58" y="-426.3" font-family="Times,serif" font-size="14.00"> : Map of </text>
<text text-anchor="start" x="817.58" y="-426.3" font-family="mono" font-size="14.00" fill="#c83500">string</text>
<text text-anchor="start" x="867.58" y="-426.3" font-family="mono" font-size="14.00" fill="#c83500">descriptions</text>
<text text-anchor="start" x="967.58" y="-426.3" font-family="Times,serif" font-size="14.00"> : Map of </text>
<text text-anchor="start" x="1035.58" y="-426.3" font-family="mono" font-size="14.00" fill="#c83500">string</text>
<polygon fill="#ddeeff" stroke="transparent" points="655.58,-397.5 655.58,-418.5 1088.58,-418.5 1088.58,-397.5 655.58,-397.5"/>
<polygon fill="none" stroke="#8ccbf2" points="655.58,-397.5 655.58,-418.5 1088.58,-418.5 1088.58,-397.5 655.58,-397.5"/>
<text text-anchor="start" x="658.58" y="-405.3" font-family="mono" font-size="14.00" fill="#c83500">created</text>
<text text-anchor="start" x="716.58" y="-405.3" font-family="Times,serif" font-size="14.00"> : </text>
<text text-anchor="start" x="730.58" y="-405.3" font-family="mono" font-size="14.00" fill="#c83500">dateTime</text>
<polygon fill="#ddeeff" stroke="transparent" points="655.58,-376.5 655.58,-397.5 1088.58,-397.5 1088.58,-376.5 655.58,-376.5"/>
<polygon fill="none" stroke="#8ccbf2" points="655.58,-376.5 655.58,-397.5 1088.58,-397.5 1088.58,-376.5 655.58,-376.5"/>
<text text-anchor="start" x="658.58" y="-384.3" font-family="mono" font-size="14.00" fill="#c83500">modified</text>
<text text-anchor="start" x="725.58" y="-384.3" font-family="Times,serif" font-size="14.00"> : </text>
<text text-anchor="start" x="739.58" y="-384.3" font-family="mono" font-size="14.00" fill="#c83500">dateTime</text>
<polygon fill="#ddeeff" stroke="transparent" points="655.58,-355.5 655.58,-376.5 1088.58,-376.5 1088.58,-355.5 655.58,-355.5"/>
<polygon fill="none" stroke="#8ccbf2" points="655.58,-355.5 655.58,-376.5 1088.58,-376.5 1088.58,-355.5 655.58,-355.5"/>
<text text-anchor="start" x="658.58" y="-363.3" font-family="mono" font-size="14.00" fill="#c83500">support</text>
<text text-anchor="start" x="716.58" y="-363.3" font-family="Times,serif" font-size="14.00"> : </text>
<text text-anchor="start" x="730.58" y="-363.3" font-family="mono" font-size="14.00" fill="#c83500">anyURI</text>
<polygon fill="#ddeeff" stroke="transparent" points="655.58,-334.5 655.58,-355.5 1088.58,-355.5 1088.58,-334.5 655.58,-334.5"/>
<polygon fill="none" stroke="#8ccbf2" points="655.58,-334.5 655.58,-355.5 1088.58,-355.5 1088.58,-334.5 655.58,-334.5"/>
<text text-anchor="start" x="658.58" y="-342.3" font-family="mono" font-size="14.00" fill="#c83500">base</text>
<text text-anchor="start" x="692.58" y="-342.3" font-family="Times,serif" font-size="14.00"> : </text>
<text text-anchor="start" x="706.58" y="-342.3" font-family="mono" font-size="14.00" fill="#c83500">anyURI</text>
</g>
<!-- Thing&#45;&gt;ActionAffordance -->
<g id="edge13" class="edge">
<title>Thing&#45;&gt;ActionAffordance</title>
<path fill="none" stroke="black" d="M737.79,-330.83C720.28,-315.3 703.37,-300.3 688.74,-287.32"/>
<polygon fill="black" stroke="black" points="690.66,-284.35 680.85,-280.33 686.01,-289.58 690.66,-284.35"/>
<text text-anchor="start" x="716.58" y="-301.8" font-family="mono" font-size="14.00" fill="#c83500">actions</text>
<text text-anchor="middle" x="668.35" y="-284.13" font-family="Times,serif" font-size="14.00">0..*</text>
</g>
<!-- Thing&#45;&gt;EventAffordance -->
<g id="edge14" class="edge">
<title>Thing&#45;&gt;EventAffordance</title>
<path fill="none" stroke="black" d="M647.03,-380.72C515.04,-340.29 357.53,-292.04 270.85,-265.49"/>
<polygon fill="black" stroke="black" points="271.74,-262.1 261.15,-262.52 269.69,-268.8 271.74,-262.1"/>
<text text-anchor="start" x="421.58" y="-301.8" font-family="mono" font-size="14.00" fill="#c83500">events</text>
<text text-anchor="middle" x="248.65" y="-266.32" font-family="Times,serif" font-size="14.00">0..*</text>
</g>
<!-- Thing&#45;&gt;PropertyAffordance -->
<g id="edge12" class="edge">
<title>Thing&#45;&gt;PropertyAffordance</title>
<path fill="none" stroke="black" d="M646.95,-341.68C594.76,-316.63 543.56,-292.05 505.97,-274.01"/>
<polygon fill="black" stroke="black" points="507.25,-270.74 496.72,-269.56 504.22,-277.05 507.25,-270.74"/>
<text text-anchor="start" x="584.58" y="-301.8" font-family="mono" font-size="14.00" fill="#c83500">properties</text>
<text text-anchor="middle" x="484.22" y="-273.36" font-family="Times,serif" font-size="14.00">0..*</text>
</g>
<!-- VersionInfo -->
<g id="node6" class="node">
<title>VersionInfo</title>
<polygon fill="#8ccbf2" stroke="transparent" points="756.58,-254.5 756.58,-275.5 986.58,-275.5 986.58,-254.5 756.58,-254.5"/>
<polygon fill="none" stroke="#8ccbf2" points="756.58,-254.5 756.58,-275.5 986.58,-275.5 986.58,-254.5 756.58,-254.5"/>
<text text-anchor="start" x="826.08" y="-262.3" font-family="mono" font-weight="bold" font-size="14.00" fill="#c83500">VersionInfo</text>
<polygon fill="#ddeeff" stroke="transparent" points="756.58,-233.5 756.58,-254.5 986.58,-254.5 986.58,-233.5 756.58,-233.5"/>
<polygon fill="none" stroke="#8ccbf2" points="756.58,-233.5 756.58,-254.5 986.58,-254.5 986.58,-233.5 756.58,-233.5"/>
<text text-anchor="start" x="759.58" y="-241.3" font-family="mono" font-size="14.00" fill="#c83500">instance</text>
<text text-anchor="start" x="826.58" y="-241.3" font-family="Times,serif" font-size="14.00"> : </text>
<text text-anchor="start" x="840.58" y="-241.3" font-family="mono" font-size="14.00" fill="#c83500">string</text>
<text text-anchor="start" x="890.58" y="-241.3" font-family="Times,serif" font-size="14.00"> </text>
<text text-anchor="start" x="895.58" y="-241.3" font-family="Times,serif" font-style="italic" font-size="14.00">(mandatory)</text>
<polygon fill="#ddeeff" stroke="transparent" points="756.58,-212.5 756.58,-233.5 986.58,-233.5 986.58,-212.5 756.58,-212.5"/>
<polygon fill="none" stroke="#8ccbf2" points="756.58,-212.5 756.58,-233.5 986.58,-233.5 986.58,-212.5 756.58,-212.5"/>
<text text-anchor="start" x="759.58" y="-220.3" font-family="mono" font-size="14.00" fill="#c83500">model</text>
<text text-anchor="start" x="801.58" y="-220.3" font-family="Times,serif" font-size="14.00"> : </text>
<text text-anchor="start" x="815.58" y="-220.3" font-family="mono" font-size="14.00" fill="#c83500">string</text>
</g>
<!-- Thing&#45;&gt;VersionInfo -->
<g id="edge4" class="edge">
<title>Thing&#45;&gt;VersionInfo</title>
<path fill="none" stroke="black" d="M871.58,-330.83C871.58,-316.6 871.58,-302.8 871.58,-290.61"/>
<polygon fill="black" stroke="black" points="875.08,-290.33 871.58,-280.33 868.08,-290.33 875.08,-290.33"/>
<text text-anchor="start" x="871.58" y="-301.8" font-family="mono" font-size="14.00" fill="#c83500">version</text>
<text text-anchor="middle" x="857.58" y="-284.13" font-family="Times,serif" font-size="14.00">0..1</text>
</g>
<!-- Thing&#45;&gt;Form -->
<g id="edge3" class="edge">
<title>Thing&#45;&gt;Form</title>
<path fill="none" stroke="black" d="M978.98,-330.65C988.97,-314.51 997.59,-297.46 1003.58,-280 1031.62,-198.38 1008.66,-94.1 994.97,-45.79"/>
<polygon fill="black" stroke="black" points="998.3,-44.7 992.13,-36.09 991.58,-46.67 998.3,-44.7"/>
<text text-anchor="start" x="1017.58" y="-179.8" font-family="mono" font-size="14.00" fill="#c83500">forms</text>
<text text-anchor="middle" x="979.63" y="-39.89" font-family="Times,serif" font-size="14.00">0..*</text>
</g>
<!-- Link -->
<g id="node8" class="node">
<title>Link</title>
<polygon fill="#f2f2f2" stroke="transparent" points="1058.58,-233.5 1058.58,-254.5 1098.58,-254.5 1098.58,-233.5 1058.58,-233.5"/>
<polygon fill="none" stroke="#8c8c8c" points="1058.58,-233.5 1058.58,-254.5 1098.58,-254.5 1098.58,-233.5 1058.58,-233.5"/>
<text text-anchor="start" x="1061.58" y="-241.3" font-family="mono" font-weight="bold" font-size="14.00">Link</text>
</g>
<!-- Thing&#45;&gt;Link -->
<g id="edge2" class="edge">
<title>Thing&#45;&gt;Link</title>
<path fill="none" stroke="black" d="M1020.05,-330.88C1025.78,-324.99 1031.32,-319.02 1036.58,-313 1047.54,-300.45 1057.51,-284.73 1064.97,-271.62"/>
<polygon fill="black" stroke="black" points="1068.18,-273.06 1069.95,-262.62 1062.05,-269.68 1068.18,-273.06"/>
<text text-anchor="start" x="1047.58" y="-301.8" font-family="mono" font-size="14.00" fill="#c83500">links</text>
<text text-anchor="middle" x="1057.45" y="-266.42" font-family="Times,serif" font-size="14.00">0..*</text>
</g>
<!-- SecurityScheme -->
<g id="node10" class="node">
<title>SecurityScheme</title>
<polygon fill="#f2f2f2" stroke="transparent" points="1132.58,-233.5 1132.58,-254.5 1254.58,-254.5 1254.58,-233.5 1132.58,-233.5"/>
<polygon fill="none" stroke="#8c8c8c" points="1132.58,-233.5 1132.58,-254.5 1254.58,-254.5 1254.58,-233.5 1132.58,-233.5"/>
<text text-anchor="start" x="1135.58" y="-241.3" font-family="mono" font-weight="bold" font-size="14.00">SecurityScheme</text>
</g>
<!-- Thing&#45;&gt;SecurityScheme -->
<g id="edge10" class="edge">
<title>Thing&#45;&gt;SecurityScheme</title>
<path fill="none" stroke="black" d="M1065.61,-330.87C1075.09,-324.86 1084.46,-318.88 1093.58,-313 1116.03,-298.53 1140.91,-281.74 1160.25,-268.52"/>
<polygon fill="black" stroke="black" points="1162.44,-271.26 1168.71,-262.72 1158.48,-265.49 1162.44,-271.26"/>
<text text-anchor="start" x="1116.58" y="-301.8" font-family="mono" font-size="14.00" fill="#c83500">securityDefinitions</text>
<text text-anchor="middle" x="1156.21" y="-266.52" font-family="Times,serif" font-size="14.00">1..*</text>
</g>
</g>
</svg>
