<?xml version="1.0" encoding="UTF-8" standalone="no"?>
<!DOCTYPE svg PUBLIC "-//W3C//DTD SVG 1.1//EN"
 "http://www.w3.org/Graphics/SVG/1.1/DTD/svg11.dtd">
<!-- Generated by graphviz version 2.40.1 (20161225.0304)
 -->
<!-- Title: %3 Pages: 1 -->
<svg width="1249pt" height="578pt"
 viewBox="0.00 0.00 1249.00 578.00" xmlns="http://www.w3.org/2000/svg" xmlns:xlink="http://www.w3.org/1999/xlink">
<g id="graph0" class="graph" transform="scale(1 1) rotate(0) translate(4 574)">
<title>%3</title>
<polygon fill="#ffffff" stroke="transparent" points="-4,4 -4,-574 1245,-574 1245,4 -4,4"/>
<!-- MultiLanguage -->
<g id="node1" class="node">
<title>MultiLanguage</title>
<polygon fill="#8ccbf2" stroke="transparent" points="88,-7 88,-28 202,-28 202,-7 88,-7"/>
<polygon fill="none" stroke="#8ccbf2" points="88,-7 88,-28 202,-28 202,-7 88,-7"/>
<text text-anchor="start" x="91" y="-14.8" font-family="mono" font-weight="bold" font-size="14.00" fill="#c83500">MultiLanguage</text>
</g>
<!-- Thing -->
<g id="node2" class="node">
<title>Thing</title>
<polygon fill="#8ccbf2" stroke="transparent" points="484,-544.5 484,-565.5 746,-565.5 746,-544.5 484,-544.5"/>
<polygon fill="none" stroke="#8ccbf2" points="484,-544.5 484,-565.5 746,-565.5 746,-544.5 484,-544.5"/>
<text text-anchor="start" x="594" y="-552.3" font-family="mono" font-weight="bold" font-size="14.00" fill="#c83500">Thing</text>
<polygon fill="#ddeeff" stroke="transparent" points="484,-523.5 484,-544.5 746,-544.5 746,-523.5 484,-523.5"/>
<polygon fill="none" stroke="#8ccbf2" points="484,-523.5 484,-544.5 746,-544.5 746,-523.5 484,-523.5"/>
<text text-anchor="start" x="487" y="-531.3" font-family="mono" font-size="14.00" fill="#c83500">@context</text>
<text text-anchor="start" x="554" y="-531.3" font-family="Times,serif" font-size="14.00" fill="#000000"> : </text>
<text text-anchor="start" x="566" y="-531.3" font-family="Times,serif" font-style="italic" font-size="14.00" fill="#000000">string or array</text>
<text text-anchor="start" x="648" y="-531.3" font-family="Times,serif" font-size="14.00" fill="#000000"> </text>
<text text-anchor="start" x="652" y="-531.3" font-family="Times,serif" font-style="italic" font-size="14.00" fill="#000000">(mandatory)</text>
<polygon fill="#ddeeff" stroke="transparent" points="484,-502.5 484,-523.5 746,-523.5 746,-502.5 484,-502.5"/>
<polygon fill="none" stroke="#8ccbf2" points="484,-502.5 484,-523.5 746,-523.5 746,-502.5 484,-502.5"/>
<text text-anchor="start" x="487" y="-510.3" font-family="mono" font-size="14.00" fill="#c83500">@type</text>
<text text-anchor="start" x="529" y="-510.3" font-family="Times,serif" font-size="14.00" fill="#000000"> : </text>
<text text-anchor="start" x="541" y="-510.3" font-family="Times,serif" font-style="italic" font-size="14.00" fill="#000000">(array of) </text>
<text text-anchor="start" x="599" y="-510.3" font-family="mono" font-size="14.00" fill="#c83500">string</text>
<polygon fill="#ddeeff" stroke="transparent" points="484,-481.5 484,-502.5 746,-502.5 746,-481.5 484,-481.5"/>
<polygon fill="none" stroke="#8ccbf2" points="484,-481.5 484,-502.5 746,-502.5 746,-481.5 484,-481.5"/>
<text text-anchor="start" x="487" y="-489.3" font-family="mono" font-size="14.00" fill="#c83500">id</text>
<text text-anchor="start" x="504" y="-489.3" font-family="Times,serif" font-size="14.00" fill="#000000"> : </text>
<text text-anchor="start" x="516" y="-489.3" font-family="mono" font-size="14.00" fill="#c83500">anyURI</text>
<text text-anchor="start" x="566" y="-489.3" font-family="Times,serif" font-size="14.00" fill="#000000"> </text>
<text text-anchor="start" x="570" y="-489.3" font-family="Times,serif" font-style="italic" font-size="14.00" fill="#000000">(mandatory)</text>
<polygon fill="#ddeeff" stroke="transparent" points="484,-460.5 484,-481.5 746,-481.5 746,-460.5 484,-460.5"/>
<polygon fill="none" stroke="#8ccbf2" points="484,-460.5 484,-481.5 746,-481.5 746,-460.5 484,-460.5"/>
<text text-anchor="start" x="487" y="-468.3" font-family="mono" font-size="14.00" fill="#c83500">support</text>
<text text-anchor="start" x="545" y="-468.3" font-family="Times,serif" font-size="14.00" fill="#000000"> : </text>
<text text-anchor="start" x="557" y="-468.3" font-family="mono" font-size="14.00" fill="#c83500">string</text>
<polygon fill="#ddeeff" stroke="transparent" points="484,-439.5 484,-460.5 746,-460.5 746,-439.5 484,-439.5"/>
<polygon fill="none" stroke="#8ccbf2" points="484,-439.5 484,-460.5 746,-460.5 746,-439.5 484,-439.5"/>
<text text-anchor="start" x="487" y="-447.3" font-family="mono" font-size="14.00" fill="#c83500">base</text>
<text text-anchor="start" x="521" y="-447.3" font-family="Times,serif" font-size="14.00" fill="#000000"> : </text>
<text text-anchor="start" x="533" y="-447.3" font-family="mono" font-size="14.00" fill="#c83500">anyURI</text>
<polygon fill="#ddeeff" stroke="transparent" points="484,-418.5 484,-439.5 746,-439.5 746,-418.5 484,-418.5"/>
<polygon fill="none" stroke="#8ccbf2" points="484,-418.5 484,-439.5 746,-439.5 746,-418.5 484,-418.5"/>
<text text-anchor="start" x="487" y="-426.3" font-family="mono" font-size="14.00" fill="#c83500">created</text>
<text text-anchor="start" x="545" y="-426.3" font-family="Times,serif" font-size="14.00" fill="#000000"> : </text>
<text text-anchor="start" x="557" y="-426.3" font-family="mono" font-size="14.00" fill="#c83500">dateTime</text>
<polygon fill="#ddeeff" stroke="transparent" points="484,-397.5 484,-418.5 746,-418.5 746,-397.5 484,-397.5"/>
<polygon fill="none" stroke="#8ccbf2" points="484,-397.5 484,-418.5 746,-418.5 746,-397.5 484,-397.5"/>
<text text-anchor="start" x="487" y="-405.3" font-family="mono" font-size="14.00" fill="#c83500">description</text>
<text text-anchor="start" x="578" y="-405.3" font-family="Times,serif" font-size="14.00" fill="#000000"> : </text>
<text text-anchor="start" x="590" y="-405.3" font-family="mono" font-size="14.00" fill="#c83500">string</text>
<polygon fill="#ddeeff" stroke="transparent" points="484,-376.5 484,-397.5 746,-397.5 746,-376.5 484,-376.5"/>
<polygon fill="none" stroke="#8ccbf2" points="484,-376.5 484,-397.5 746,-397.5 746,-376.5 484,-376.5"/>
<text text-anchor="start" x="487" y="-384.3" font-family="mono" font-size="14.00" fill="#c83500">lastModified</text>
<text text-anchor="start" x="587" y="-384.3" font-family="Times,serif" font-size="14.00" fill="#000000"> : </text>
<text text-anchor="start" x="599" y="-384.3" font-family="mono" font-size="14.00" fill="#c83500">dateTime</text>
<polygon fill="#ddeeff" stroke="transparent" points="484,-355.5 484,-376.5 746,-376.5 746,-355.5 484,-355.5"/>
<polygon fill="none" stroke="#8ccbf2" points="484,-355.5 484,-376.5 746,-376.5 746,-355.5 484,-355.5"/>
<text text-anchor="start" x="487" y="-363.3" font-family="mono" font-size="14.00" fill="#c83500">name</text>
<text text-anchor="start" x="521" y="-363.3" font-family="Times,serif" font-size="14.00" fill="#000000"> : </text>
<text text-anchor="start" x="533" y="-363.3" font-family="mono" font-size="14.00" fill="#c83500">string</text>
<text text-anchor="start" x="583" y="-363.3" font-family="Times,serif" font-size="14.00" fill="#000000"> </text>
<text text-anchor="start" x="587" y="-363.3" font-family="Times,serif" font-style="italic" font-size="14.00" fill="#000000">(mandatory)</text>
<polygon fill="#ddeeff" stroke="transparent" points="484,-334.5 484,-355.5 746,-355.5 746,-334.5 484,-334.5"/>
<polygon fill="none" stroke="#8ccbf2" points="484,-334.5 484,-355.5 746,-355.5 746,-334.5 484,-334.5"/>
<text text-anchor="start" x="487" y="-342.3" font-family="mono" font-size="14.00" fill="#c83500">security</text>
<text text-anchor="start" x="554" y="-342.3" font-family="Times,serif" font-size="14.00" fill="#000000"> : (array of) </text>
<text text-anchor="start" x="621" y="-342.3" font-family="mono" font-size="14.00" fill="#c83500">string</text>
<text text-anchor="start" x="671" y="-342.3" font-family="Times,serif" font-size="14.00" fill="#000000"> </text>
<text text-anchor="start" x="675" y="-342.3" font-family="Times,serif" font-style="italic" font-size="14.00" fill="#000000">(mandatory)</text>
</g>
<!-- Thing&#45;&gt;MultiLanguage -->
<g id="edge1" class="edge">
<title>Thing&#45;&gt;MultiLanguage</title>
<path fill="none" stroke="#000000" d="M475.8222,-416.2988C355.7221,-383.8118 195.3732,-332.2874 155,-280 97.4039,-205.4073 138.6724,-163.1252 134,-69 133.6695,-62.3415 133.0151,-60.5935 134,-54 134.4025,-51.3055 134.9656,-48.5339 135.6263,-45.7819"/>
<polygon fill="#000000" stroke="#000000" points="139.0191,-46.6449 138.3344,-36.0722 132.2764,-44.7642 139.0191,-46.6449"/>
<text text-anchor="start" x="126" y="-179.8" font-family="mono" font-size="14.00" fill="#c83500">descriptions</text>
<text text-anchor="middle" x="127.3344" y="-39.8722" font-family="Times,serif" font-size="14.00" fill="#000000">0..1</text>
</g>
<!-- PropertyAffordance -->
<g id="node3" class="node">
<title>PropertyAffordance</title>
<polygon fill="#8ccbf2" stroke="transparent" points="173,-244.5 173,-265.5 332,-265.5 332,-244.5 173,-244.5"/>
<polygon fill="none" stroke="#8ccbf2" points="173,-244.5 173,-265.5 332,-265.5 332,-244.5 173,-244.5"/>
<text text-anchor="start" x="178" y="-252.3" font-family="mono" font-weight="bold" font-size="14.00" fill="#c83500">PropertyAffordance</text>
<polygon fill="#ddeeff" stroke="transparent" points="173,-223.5 173,-244.5 332,-244.5 332,-223.5 173,-223.5"/>
<polygon fill="none" stroke="#8ccbf2" points="173,-223.5 173,-244.5 332,-244.5 332,-223.5 173,-223.5"/>
<text text-anchor="start" x="176" y="-231.3" font-family="mono" font-size="14.00" fill="#c83500">observable</text>
<text text-anchor="start" x="259" y="-231.3" font-family="Times,serif" font-size="14.00" fill="#000000"> : </text>
<text text-anchor="start" x="271" y="-231.3" font-family="mono" font-size="14.00" fill="#c83500">boolean</text>
</g>
<!-- Thing&#45;&gt;PropertyAffordance -->
<g id="edge8" class="edge">
<title>Thing&#45;&gt;PropertyAffordance</title>
<path fill="none" stroke="#000000" d="M475.9522,-371.5913C416.2514,-337.7115 350.0585,-300.1475 305.2258,-274.7053"/>
<polygon fill="#000000" stroke="#000000" points="306.6976,-271.5162 296.273,-269.6246 303.2427,-277.6042 306.6976,-271.5162"/>
<text text-anchor="start" x="370" y="-301.8" font-family="mono" font-size="14.00" fill="#c83500">properties</text>
<text text-anchor="middle" x="285.273" y="-273.4246" font-family="Times,serif" font-size="14.00" fill="#000000">0..1</text>
</g>
<!-- VersionInfo -->
<g id="node4" class="node">
<title>VersionInfo</title>
<polygon fill="#8ccbf2" stroke="transparent" points="796,-244.5 796,-265.5 1003,-265.5 1003,-244.5 796,-244.5"/>
<polygon fill="none" stroke="#8ccbf2" points="796,-244.5 796,-265.5 1003,-265.5 1003,-244.5 796,-244.5"/>
<text text-anchor="start" x="854" y="-252.3" font-family="mono" font-weight="bold" font-size="14.00" fill="#c83500">VersionInfo</text>
<polygon fill="#ddeeff" stroke="transparent" points="796,-223.5 796,-244.5 1003,-244.5 1003,-223.5 796,-223.5"/>
<polygon fill="none" stroke="#8ccbf2" points="796,-223.5 796,-244.5 1003,-244.5 1003,-223.5 796,-223.5"/>
<text text-anchor="start" x="799" y="-231.3" font-family="mono" font-size="14.00" fill="#c83500">instance</text>
<text text-anchor="start" x="866" y="-231.3" font-family="Times,serif" font-size="14.00" fill="#000000"> : </text>
<text text-anchor="start" x="878" y="-231.3" font-family="mono" font-size="14.00" fill="#c83500">string</text>
<text text-anchor="start" x="928" y="-231.3" font-family="Times,serif" font-size="14.00" fill="#000000"> </text>
<text text-anchor="start" x="932" y="-231.3" font-family="Times,serif" font-style="italic" font-size="14.00" fill="#000000">(mandatory)</text>
</g>
<!-- Thing&#45;&gt;VersionInfo -->
<g id="edge4" class="edge">
<title>Thing&#45;&gt;VersionInfo</title>
<path fill="none" stroke="#000000" d="M754.0881,-349.6122C791.2789,-322.6358 828.7361,-295.4661 856.2496,-275.5091"/>
<polygon fill="#000000" stroke="#000000" points="858.418,-278.2601 864.4577,-269.5553 854.3079,-272.5937 858.418,-278.2601"/>
<text text-anchor="start" x="823" y="-301.8" font-family="mono" font-size="14.00" fill="#c83500">version</text>
<text text-anchor="middle" x="853.4577" y="-273.3553" font-family="Times,serif" font-size="14.00" fill="#000000">0..1</text>
</g>
<!-- ActionAffordance -->
<g id="node5" class="node">
<title>ActionAffordance</title>
<polygon fill="#8ccbf2" stroke="transparent" points="366,-254.5 366,-275.5 597,-275.5 597,-254.5 366,-254.5"/>
<polygon fill="none" stroke="#8ccbf2" points="366,-254.5 366,-275.5 597,-275.5 597,-254.5 366,-254.5"/>
<text text-anchor="start" x="415" y="-262.3" font-family="mono" font-weight="bold" font-size="14.00" fill="#c83500">ActionAffordance</text>
<polygon fill="#ddeeff" stroke="transparent" points="366,-233.5 366,-254.5 597,-254.5 597,-233.5 366,-233.5"/>
<polygon fill="none" stroke="#8ccbf2" points="366,-233.5 366,-254.5 597,-254.5 597,-233.5 366,-233.5"/>
<text text-anchor="start" x="369" y="-241.3" font-family="mono" font-size="14.00" fill="#c83500">safe</text>
<text text-anchor="start" x="403" y="-241.3" font-family="Times,serif" font-size="14.00" fill="#000000"> : </text>
<text text-anchor="start" x="415" y="-241.3" font-family="mono" font-size="14.00" fill="#c83500">boolean</text>
<text text-anchor="start" x="473" y="-241.3" font-family="Times,serif" font-size="14.00" fill="#000000"> </text>
<text text-anchor="start" x="477" y="-241.3" font-family="Times,serif" font-style="italic" font-size="14.00" fill="#000000">(mandatory)</text>
<polygon fill="#ddeeff" stroke="transparent" points="366,-212.5 366,-233.5 597,-233.5 597,-212.5 366,-212.5"/>
<polygon fill="none" stroke="#8ccbf2" points="366,-212.5 366,-233.5 597,-233.5 597,-212.5 366,-212.5"/>
<text text-anchor="start" x="369" y="-220.3" font-family="mono" font-size="14.00" fill="#c83500">idempotent</text>
<text text-anchor="start" x="452" y="-220.3" font-family="Times,serif" font-size="14.00" fill="#000000"> : </text>
<text text-anchor="start" x="464" y="-220.3" font-family="mono" font-size="14.00" fill="#c83500">boolean</text>
<text text-anchor="start" x="522" y="-220.3" font-family="Times,serif" font-size="14.00" fill="#000000"> </text>
<text text-anchor="start" x="526" y="-220.3" font-family="Times,serif" font-style="italic" font-size="14.00" fill="#000000">(mandatory)</text>
</g>
<!-- Thing&#45;&gt;ActionAffordance -->
<g id="edge7" class="edge">
<title>Thing&#45;&gt;ActionAffordance</title>
<path fill="none" stroke="#000000" d="M537.2456,-330.9672C527.4897,-315.9693 518.0462,-301.4516 509.7717,-288.7312"/>
<polygon fill="#000000" stroke="#000000" points="512.6273,-286.7022 504.2406,-280.2281 506.7595,-290.5191 512.6273,-286.7022"/>
<text text-anchor="start" x="525" y="-301.8" font-family="mono" font-size="14.00" fill="#c83500">actions</text>
<text text-anchor="middle" x="493.2406" y="-284.0281" font-family="Times,serif" font-size="14.00" fill="#000000">0..1</text>
</g>
<!-- EventAffordance -->
<g id="node7" class="node">
<title>EventAffordance</title>
<polygon fill="#8ccbf2" stroke="transparent" points="631,-233.5 631,-254.5 761,-254.5 761,-233.5 631,-233.5"/>
<polygon fill="none" stroke="#8ccbf2" points="631,-233.5 631,-254.5 761,-254.5 761,-233.5 631,-233.5"/>
<text text-anchor="start" x="634" y="-241.3" font-family="mono" font-weight="bold" font-size="14.00" fill="#c83500">EventAffordance</text>
</g>
<!-- Thing&#45;&gt;EventAffordance -->
<g id="edge2" class="edge">
<title>Thing&#45;&gt;EventAffordance</title>
<path fill="none" stroke="#000000" d="M662.0008,-330.9672C670.6454,-308.982 678.8843,-288.0288 685.0863,-272.2559"/>
<polygon fill="#000000" stroke="#000000" points="688.4493,-273.2674 688.8515,-262.6802 681.9349,-270.7058 688.4493,-273.2674"/>
<text text-anchor="start" x="675" y="-301.8" font-family="mono" font-size="14.00" fill="#c83500">events</text>
<text text-anchor="middle" x="677.8515" y="-266.4802" font-family="Times,serif" font-size="14.00" fill="#000000">0..1</text>
</g>
<!-- Link -->
<g id="node8" class="node">
<title>Link</title>
<polygon fill="#f2f2f2" stroke="transparent" points="1037,-233.5 1037,-254.5 1077,-254.5 1077,-233.5 1037,-233.5"/>
<polygon fill="none" stroke="#8c8c8c" points="1037,-233.5 1037,-254.5 1077,-254.5 1077,-233.5 1037,-233.5"/>
<text text-anchor="start" x="1040" y="-241.3" font-family="mono" font-weight="bold" font-size="14.00" fill="#000000">Link</text>
</g>
<!-- Thing&#45;&gt;Link -->
<g id="edge3" class="edge">
<title>Thing&#45;&gt;Link</title>
<path fill="none" stroke="#000000" d="M754.2693,-405.5335C835.0601,-376.149 936.7654,-333.3356 1019,-280 1023.7341,-276.9296 1028.4216,-273.2424 1032.8031,-269.4227"/>
<polygon fill="#000000" stroke="#000000" points="1035.323,-271.8599 1040.3032,-262.5085 1030.5784,-266.7132 1035.323,-271.8599"/>
<text text-anchor="start" x="989" y="-301.8" font-family="mono" font-size="14.00" fill="#c83500">links</text>
<text text-anchor="middle" x="1029.3032" y="-266.3085" font-family="Times,serif" font-size="14.00" fill="#000000">0..*</text>
</g>
<!-- Form -->
<g id="node9" class="node">
<title>Form</title>
<polygon fill="#f2f2f2" stroke="transparent" points="8,-7 8,-28 48,-28 48,-7 8,-7"/>
<polygon fill="none" stroke="#8c8c8c" points="8,-7 8,-28 48,-28 48,-7 8,-7"/>
<text text-anchor="start" x="11" y="-14.8" font-family="mono" font-weight="bold" font-size="14.00" fill="#000000">Form</text>
</g>
<!-- Thing&#45;&gt;Form -->
<g id="edge5" class="edge">
<title>Thing&#45;&gt;Form</title>
<path fill="none" stroke="#000000" d="M475.8225,-418.8453C346.9905,-386.7466 168.416,-334.2031 121,-280 60.1784,-210.4725 38.319,-98.4681 31.159,-46.3584"/>
<polygon fill="#000000" stroke="#000000" points="34.5973,-45.6542 29.8456,-36.1847 27.6549,-46.5506 34.5973,-45.6542"/>
<text text-anchor="start" x="69" y="-179.8" font-family="mono" font-size="14.00" fill="#c83500">forms</text>
<text text-anchor="middle" x="18.8456" y="-39.9847" font-family="Times,serif" font-size="14.00" fill="#000000">0..*</text>
</g>
<!-- SecurityScheme -->
<g id="node10" class="node">
<title>SecurityScheme</title>
<polygon fill="#f2f2f2" stroke="transparent" points="1111,-233.5 1111,-254.5 1233,-254.5 1233,-233.5 1111,-233.5"/>
<polygon fill="none" stroke="#8c8c8c" points="1111,-233.5 1111,-254.5 1233,-254.5 1233,-233.5 1111,-233.5"/>
<text text-anchor="start" x="1114" y="-241.3" font-family="mono" font-weight="bold" font-size="14.00" fill="#000000">SecurityScheme</text>
</g>
<!-- Thing&#45;&gt;SecurityScheme -->
<g id="edge6" class="edge">
<title>Thing&#45;&gt;SecurityScheme</title>
<path fill="none" stroke="#000000" d="M754.4712,-410.4851C837.1153,-385.385 943.2804,-350.7035 1035,-313 1067.7817,-299.5243 1103.5649,-281.5124 1130.338,-267.3406"/>
<polygon fill="#000000" stroke="#000000" points="1132.2354,-270.2953 1139.4125,-262.5017 1128.9418,-264.1186 1132.2354,-270.2953"/>
<text text-anchor="start" x="1066" y="-301.8" font-family="mono" font-size="14.00" fill="#c83500">securityDefinitions</text>
<text text-anchor="middle" x="1128.4125" y="-266.3017" font-family="Times,serif" font-size="14.00" fill="#000000">1..1</text>
</g>
<!-- InteractionAffordance -->
<g id="node6" class="node">
<title>InteractionAffordance</title>
<polygon fill="#8ccbf2" stroke="transparent" points="178,-132.5 178,-153.5 358,-153.5 358,-132.5 178,-132.5"/>
<polygon fill="none" stroke="#8ccbf2" points="178,-132.5 178,-153.5 358,-153.5 358,-132.5 178,-132.5"/>
<text text-anchor="start" x="181" y="-140.3" font-family="mono" font-weight="bold" font-size="14.00" fill="#c83500">InteractionAffordance</text>
<polygon fill="#ddeeff" stroke="transparent" points="178,-111.5 178,-132.5 358,-132.5 358,-111.5 178,-111.5"/>
<polygon fill="none" stroke="#8ccbf2" points="178,-111.5 178,-132.5 358,-132.5 358,-111.5 178,-111.5"/>
<text text-anchor="start" x="181" y="-119.3" font-family="mono" font-size="14.00" fill="#c83500">description</text>
<text text-anchor="start" x="272" y="-119.3" font-family="Times,serif" font-size="14.00" fill="#000000"> : </text>
<text text-anchor="start" x="284" y="-119.3" font-family="mono" font-size="14.00" fill="#c83500">string</text>
<polygon fill="#ddeeff" stroke="transparent" points="178,-90.5 178,-111.5 358,-111.5 358,-90.5 178,-90.5"/>
<polygon fill="none" stroke="#8ccbf2" points="178,-90.5 178,-111.5 358,-111.5 358,-90.5 178,-90.5"/>
<text text-anchor="start" x="181" y="-98.3" font-family="mono" font-size="14.00" fill="#c83500">title</text>
<text text-anchor="start" x="223" y="-98.3" font-family="Times,serif" font-size="14.00" fill="#000000"> : </text>
<text text-anchor="start" x="235" y="-98.3" font-family="mono" font-size="14.00" fill="#c83500">string</text>
</g>
<!-- PropertyAffordance&#45;&gt;InteractionAffordance -->
<g id="edge19" class="edge">
<title>PropertyAffordance&#45;&gt;InteractionAffordance</title>
<path fill="none" stroke="#000000" d="M255.3152,-219.2215C257.2254,-204.6564 259.6858,-185.896 261.9305,-168.78"/>
<polygon fill="#ffffff" stroke="#000000" points="265.4633,-168.7579 263.2934,-158.3876 258.5227,-167.8476 265.4633,-168.7579"/>
</g>
<!-- DataSchema -->
<g id="node11" class="node">
<title>DataSchema</title>
<polygon fill="#f2f2f2" stroke="transparent" points="515,-7 515,-28 604,-28 604,-7 515,-7"/>
<polygon fill="none" stroke="#8c8c8c" points="515,-7 515,-28 604,-28 604,-7 515,-7"/>
<text text-anchor="start" x="518" y="-14.8" font-family="mono" font-weight="bold" font-size="14.00" fill="#000000">DataSchema</text>
</g>
<!-- PropertyAffordance&#45;&gt;DataSchema -->
<g id="edge18" class="edge">
<title>PropertyAffordance&#45;&gt;DataSchema</title>
<path fill="none" stroke="#000000" d="M290.3133,-219.3918C315.0528,-202.7366 347.6145,-179.9755 375,-158 428.4903,-115.0768 432.6797,-93.1361 489,-54 495.6282,-49.3942 502.9239,-44.9974 510.2264,-40.9583"/>
<polygon fill="#ffffff" stroke="#000000" points="512.2569,-43.8419 519.4301,-36.0447 508.9602,-37.6668 512.2569,-43.8419"/>
</g>
<!-- ActionAffordance&#45;&gt;InteractionAffordance -->
<g id="edge20" class="edge">
<title>ActionAffordance&#45;&gt;InteractionAffordance</title>
<path fill="none" stroke="#000000" d="M418.819,-208.8846C393.8849,-194.6031 365.006,-178.0621 339.2333,-163.3003"/>
<polygon fill="#ffffff" stroke="#000000" points="340.6753,-160.0928 330.2583,-158.1597 337.1961,-166.167 340.6753,-160.0928"/>
</g>
<!-- ActionAffordance&#45;&gt;DataSchema -->
<g id="edge9" class="edge">
<title>ActionAffordance&#45;&gt;DataSchema</title>
<path fill="none" stroke="#000000" d="M502.6792,-208.8753C511.2253,-193.6326 520.5257,-175.3724 527,-158 540.974,-120.5038 550.004,-74.996 554.7966,-46.2601"/>
<polygon fill="#000000" stroke="#000000" points="558.2951,-46.5486 556.4275,-36.1197 551.384,-45.437 558.2951,-46.5486"/>
<text text-anchor="start" x="547" y="-118.8" font-family="mono" font-size="14.00" fill="#c83500">output</text>
<text text-anchor="middle" x="545.4275" y="-39.9197" font-family="Times,serif" font-size="14.00" fill="#000000">0..1</text>
</g>
<!-- ActionAffordance&#45;&gt;DataSchema -->
<g id="edge10" class="edge">
<title>ActionAffordance&#45;&gt;DataSchema</title>
<path fill="none" stroke="#000000" d="M472.9796,-208.9809C467.3118,-175.8699 463.4791,-125.8918 481,-87 489.1456,-68.9189 504.6305,-53.6648 519.67,-42.1346"/>
<polygon fill="#000000" stroke="#000000" points="521.9079,-44.8346 527.93,-36.1177 517.7864,-39.1766 521.9079,-44.8346"/>
<text text-anchor="start" x="481" y="-118.8" font-family="mono" font-size="14.00" fill="#c83500">input</text>
<text text-anchor="middle" x="516.93" y="-39.9177" font-family="Times,serif" font-size="14.00" fill="#000000">0..1</text>
</g>
<!-- InteractionAffordance&#45;&gt;MultiLanguage -->
<g id="edge11" class="edge">
<title>InteractionAffordance&#45;&gt;MultiLanguage</title>
<path fill="none" stroke="#000000" d="M263.0345,-86.8304C259.8441,-75.1375 254.6045,-62.8811 246,-54 238.5125,-46.2718 229.2568,-40.1981 219.4132,-35.4259"/>
<polygon fill="#000000" stroke="#000000" points="220.8051,-32.2146 210.2417,-31.399 217.9909,-38.624 220.8051,-32.2146"/>
<text text-anchor="start" x="256" y="-57.8" font-family="mono" font-size="14.00" fill="#c83500">titles</text>
<text text-anchor="middle" x="221.2417" y="-35.199" font-family="Times,serif" font-size="14.00" fill="#000000">0..1</text>
</g>
<!-- InteractionAffordance&#45;&gt;MultiLanguage -->
<g id="edge13" class="edge">
<title>InteractionAffordance&#45;&gt;MultiLanguage</title>
<path fill="none" stroke="#000000" d="M169.9861,-95.3167C158.9633,-88.4278 149.1481,-79.8009 142,-69 137.6435,-62.4172 136.6787,-54.2474 137.2739,-46.3897"/>
<polygon fill="#000000" stroke="#000000" points="140.7497,-46.8135 138.8008,-36.3995 133.83,-45.7558 140.7497,-46.8135"/>
<text text-anchor="start" x="142" y="-57.8" font-family="mono" font-size="14.00" fill="#c83500">descriptions</text>
<text text-anchor="middle" x="149.8008" y="-40.1995" font-family="Times,serif" font-size="14.00" fill="#000000">0..1</text>
</g>
<!-- InteractionAffordance&#45;&gt;Form -->
<g id="edge12" class="edge">
<title>InteractionAffordance&#45;&gt;Form</title>
<path fill="none" stroke="#000000" d="M169.9456,-99.8238C143.8265,-91.8912 116.1695,-81.705 92,-69 78.6421,-61.9782 65.351,-52.0034 54.371,-42.7349"/>
<polygon fill="#000000" stroke="#000000" points="56.6583,-40.0857 46.8164,-36.1632 52.0641,-45.3671 56.6583,-40.0857"/>
<text text-anchor="start" x="92" y="-57.8" font-family="mono" font-size="14.00" fill="#c83500">forms</text>
<text text-anchor="middle" x="57.8164" y="-39.9632" font-family="Times,serif" font-size="14.00" fill="#000000">1..*</text>
</g>
<!-- InteractionAffordance&#45;&gt;DataSchema -->
<g id="edge14" class="edge">
<title>InteractionAffordance&#45;&gt;DataSchema</title>
<path fill="none" stroke="#000000" d="M298.3506,-86.8455C310.6659,-74.5726 325.8076,-61.9342 342,-54 368.4982,-41.016 442.0831,-30.5891 496.2483,-24.3635"/>
<polygon fill="#000000" stroke="#000000" points="496.9161,-27.8105 506.4613,-23.2126 496.1322,-20.8546 496.9161,-27.8105"/>
<text text-anchor="start" x="342" y="-57.8" font-family="mono" font-size="14.00" fill="#c83500">uriVariables</text>
<text text-anchor="middle" x="495.4613" y="-12.0126" font-family="Times,serif" font-size="14.00" fill="#000000">0..1</text>
</g>
<!-- EventAffordance&#45;&gt;InteractionAffordance -->
<g id="edge21" class="edge">
<title>EventAffordance&#45;&gt;InteractionAffordance</title>
<path fill="none" stroke="#000000" d="M657.2288,-226.4097C643.448,-220.3843 627.7039,-213.953 613,-209 535.0533,-182.7436 444.8203,-160.3927 376.1883,-144.9913"/>
<polygon fill="#ffffff" stroke="#000000" points="376.745,-141.5295 366.223,-142.7697 375.2219,-148.3618 376.745,-141.5295"/>
</g>
<!-- EventAffordance&#45;&gt;DataSchema -->
<g id="edge15" class="edge">
<title>EventAffordance&#45;&gt;DataSchema</title>
<path fill="none" stroke="#000000" d="M684.9087,-226.0572C667.2046,-196.631 631.4487,-137.2511 601,-87 592.5788,-73.1021 583.1762,-57.6489 575.4058,-44.8957"/>
<polygon fill="#000000" stroke="#000000" points="578.2669,-42.8648 570.0737,-36.1475 572.2897,-46.508 578.2669,-42.8648"/>
<text text-anchor="start" x="644" y="-118.8" font-family="mono" font-size="14.00" fill="#c83500">data</text>
<text text-anchor="middle" x="581.0737" y="-39.9475" font-family="Times,serif" font-size="14.00" fill="#000000">0..1</text>
</g>
<!-- EventAffordance&#45;&gt;DataSchema -->
<g id="edge16" class="edge">
<title>EventAffordance&#45;&gt;DataSchema</title>
<path fill="none" stroke="#000000" d="M699.4941,-226.2383C704.4403,-194.9624 710.0282,-130.3348 682,-87 667.8001,-65.0454 644.0444,-49.4007 621.1759,-38.622"/>
<polygon fill="#000000" stroke="#000000" points="622.3599,-35.3177 611.8014,-34.44 619.508,-41.7105 622.3599,-35.3177"/>
<text text-anchor="start" x="703" y="-118.8" font-family="mono" font-size="14.00" fill="#c83500">cancellation</text>
<text text-anchor="middle" x="622.8014" y="-38.24" font-family="Times,serif" font-size="14.00" fill="#000000">0..1</text>
</g>
<!-- EventAffordance&#45;&gt;DataSchema -->
<g id="edge17" class="edge">
<title>EventAffordance&#45;&gt;DataSchema</title>
<path fill="none" stroke="#000000" d="M734.1952,-226.3999C759.9701,-211.8854 791.9333,-188.8425 807,-158 820.8507,-129.6467 826.0899,-112.1263 807,-87 784.5948,-57.5101 687.2485,-37.2831 621.3906,-26.686"/>
<polygon fill="#000000" stroke="#000000" points="621.9343,-23.2285 611.5116,-25.1302 620.8453,-30.1433 621.9343,-23.2285"/>
<text text-anchor="start" x="820" y="-118.8" font-family="mono" font-size="14.00" fill="#c83500">subscription</text>
<text text-anchor="middle" x="622.5116" y="-13.9302" font-family="Times,serif" font-size="14.00" fill="#000000">0..1</text>
</g>
</g>
</svg>
