<?xml version="1.0" encoding="UTF-8" standalone="no"?>
<!DOCTYPE svg PUBLIC "-//W3C//DTD SVG 1.1//EN"
 "http://www.w3.org/Graphics/SVG/1.1/DTD/svg11.dtd">
<!-- Generated by graphviz version 2.40.1 (20161225.0304)
 -->
<!-- Title: %3 Pages: 1 -->
<svg width="1361pt" height="861pt"
 viewBox="0.00 0.00 1361.47 861.00" xmlns="http://www.w3.org/2000/svg" xmlns:xlink="http://www.w3.org/1999/xlink">
<g id="graph0" class="graph" transform="scale(1 1) rotate(0) translate(4 857)">
<title>%3</title>
<polygon fill="#ffffff" stroke="transparent" points="-4,4 -4,-857 1357.467,-857 1357.467,4 -4,4"/>
<!-- MultiLanguage -->
<g id="node1" class="node">
<title>MultiLanguage</title>
<polygon fill="#8ccbf2" stroke="transparent" points="129.467,-167.5 129.467,-188.5 243.467,-188.5 243.467,-167.5 129.467,-167.5"/>
<polygon fill="none" stroke="#8ccbf2" points="129.467,-167.5 129.467,-188.5 243.467,-188.5 243.467,-167.5 129.467,-167.5"/>
<text text-anchor="start" x="132.467" y="-175.3" font-family="mono" font-weight="bold" font-size="14.00" fill="#c83500">MultiLanguage</text>
</g>
<!-- Link -->
<g id="node2" class="node">
<title>Link</title>
<polygon fill="#8ccbf2" stroke="transparent" points="41.467,-516.5 41.467,-537.5 215.467,-537.5 215.467,-516.5 41.467,-516.5"/>
<polygon fill="none" stroke="#8ccbf2" points="41.467,-516.5 41.467,-537.5 215.467,-537.5 215.467,-516.5 41.467,-516.5"/>
<text text-anchor="start" x="111.467" y="-524.3" font-family="mono" font-weight="bold" font-size="14.00" fill="#c83500">Link</text>
<polygon fill="#ddeeff" stroke="transparent" points="41.467,-495.5 41.467,-516.5 215.467,-516.5 215.467,-495.5 41.467,-495.5"/>
<polygon fill="none" stroke="#8ccbf2" points="41.467,-495.5 41.467,-516.5 215.467,-516.5 215.467,-495.5 41.467,-495.5"/>
<text text-anchor="start" x="44.467" y="-503.3" font-family="mono" font-size="14.00" fill="#c83500">rel</text>
<text text-anchor="start" x="69.467" y="-503.3" font-family="Times,serif" font-size="14.00" fill="#000000"> : </text>
<text text-anchor="start" x="81.467" y="-503.3" font-family="mono" font-size="14.00" fill="#c83500">string</text>
<polygon fill="#ddeeff" stroke="transparent" points="41.467,-474.5 41.467,-495.5 215.467,-495.5 215.467,-474.5 41.467,-474.5"/>
<polygon fill="none" stroke="#8ccbf2" points="41.467,-474.5 41.467,-495.5 215.467,-495.5 215.467,-474.5 41.467,-474.5"/>
<text text-anchor="start" x="44.467" y="-482.3" font-family="mono" font-size="14.00" fill="#c83500">anchor</text>
<text text-anchor="start" x="94.467" y="-482.3" font-family="Times,serif" font-size="14.00" fill="#000000"> : </text>
<text text-anchor="start" x="106.467" y="-482.3" font-family="mono" font-size="14.00" fill="#c83500">anyURI</text>
<polygon fill="#ddeeff" stroke="transparent" points="41.467,-453.5 41.467,-474.5 215.467,-474.5 215.467,-453.5 41.467,-453.5"/>
<polygon fill="none" stroke="#8ccbf2" points="41.467,-453.5 41.467,-474.5 215.467,-474.5 215.467,-453.5 41.467,-453.5"/>
<text text-anchor="start" x="44.467" y="-461.3" font-family="mono" font-size="14.00" fill="#c83500">href</text>
<text text-anchor="start" x="78.467" y="-461.3" font-family="Times,serif" font-size="14.00" fill="#000000"> : </text>
<text text-anchor="start" x="90.467" y="-461.3" font-family="mono" font-size="14.00" fill="#c83500">anyURI</text>
<text text-anchor="start" x="140.467" y="-461.3" font-family="Times,serif" font-size="14.00" fill="#000000"> </text>
<text text-anchor="start" x="144.467" y="-461.3" font-family="Times,serif" font-style="italic" font-size="14.00" fill="#000000">(mandatory)</text>
<polygon fill="#ddeeff" stroke="transparent" points="41.467,-432.5 41.467,-453.5 215.467,-453.5 215.467,-432.5 41.467,-432.5"/>
<polygon fill="none" stroke="#8ccbf2" points="41.467,-432.5 41.467,-453.5 215.467,-453.5 215.467,-432.5 41.467,-432.5"/>
<text text-anchor="start" x="44.467" y="-440.3" font-family="mono" font-size="14.00" fill="#c83500">type</text>
<text text-anchor="start" x="78.467" y="-440.3" font-family="Times,serif" font-size="14.00" fill="#000000"> : </text>
<text text-anchor="start" x="90.467" y="-440.3" font-family="mono" font-size="14.00" fill="#c83500">string</text>
</g>
<!-- Form -->
<g id="node3" class="node">
<title>Form</title>
<polygon fill="#8ccbf2" stroke="transparent" points="285.467,-230.5 285.467,-251.5 516.467,-251.5 516.467,-230.5 285.467,-230.5"/>
<polygon fill="none" stroke="#8ccbf2" points="285.467,-230.5 285.467,-251.5 516.467,-251.5 516.467,-230.5 285.467,-230.5"/>
<text text-anchor="start" x="383.967" y="-238.3" font-family="mono" font-weight="bold" font-size="14.00" fill="#c83500">Form</text>
<polygon fill="#ddeeff" stroke="transparent" points="285.467,-209.5 285.467,-230.5 516.467,-230.5 516.467,-209.5 285.467,-209.5"/>
<polygon fill="none" stroke="#8ccbf2" points="285.467,-209.5 285.467,-230.5 516.467,-230.5 516.467,-209.5 285.467,-209.5"/>
<text text-anchor="start" x="288.467" y="-217.3" font-family="mono" font-size="14.00" fill="#c83500">op</text>
<text text-anchor="start" x="305.467" y="-217.3" font-family="Times,serif" font-size="14.00" fill="#000000"> : </text>
<text text-anchor="start" x="317.467" y="-217.3" font-family="mono" font-size="14.00" fill="#c83500">string</text>
<polygon fill="#ddeeff" stroke="transparent" points="285.467,-188.5 285.467,-209.5 516.467,-209.5 516.467,-188.5 285.467,-188.5"/>
<polygon fill="none" stroke="#8ccbf2" points="285.467,-188.5 285.467,-209.5 516.467,-209.5 516.467,-188.5 285.467,-188.5"/>
<text text-anchor="start" x="288.467" y="-196.3" font-family="mono" font-size="14.00" fill="#c83500">contentType</text>
<text text-anchor="start" x="379.467" y="-196.3" font-family="Times,serif" font-size="14.00" fill="#000000"> : </text>
<text text-anchor="start" x="391.467" y="-196.3" font-family="mono" font-size="14.00" fill="#c83500">string</text>
<text text-anchor="start" x="441.467" y="-196.3" font-family="Times,serif" font-size="14.00" fill="#000000"> </text>
<text text-anchor="start" x="445.467" y="-196.3" font-family="Times,serif" font-style="italic" font-size="14.00" fill="#000000">(mandatory)</text>
<polygon fill="#ddeeff" stroke="transparent" points="285.467,-167.5 285.467,-188.5 516.467,-188.5 516.467,-167.5 285.467,-167.5"/>
<polygon fill="none" stroke="#8ccbf2" points="285.467,-167.5 285.467,-188.5 516.467,-188.5 516.467,-167.5 285.467,-167.5"/>
<text text-anchor="start" x="288.467" y="-175.3" font-family="mono" font-size="14.00" fill="#c83500">scopes</text>
<text text-anchor="start" x="338.467" y="-175.3" font-family="Times,serif" font-size="14.00" fill="#000000"> : array of </text>
<text text-anchor="start" x="396.467" y="-175.3" font-family="mono" font-size="14.00" fill="#c83500">string</text>
<polygon fill="#ddeeff" stroke="transparent" points="285.467,-146.5 285.467,-167.5 516.467,-167.5 516.467,-146.5 285.467,-146.5"/>
<polygon fill="none" stroke="#8ccbf2" points="285.467,-146.5 285.467,-167.5 516.467,-167.5 516.467,-146.5 285.467,-146.5"/>
<text text-anchor="start" x="288.467" y="-154.3" font-family="mono" font-size="14.00" fill="#c83500">href</text>
<text text-anchor="start" x="322.467" y="-154.3" font-family="Times,serif" font-size="14.00" fill="#000000"> : </text>
<text text-anchor="start" x="334.467" y="-154.3" font-family="mono" font-size="14.00" fill="#c83500">anyURI</text>
<text text-anchor="start" x="384.467" y="-154.3" font-family="Times,serif" font-size="14.00" fill="#000000"> </text>
<text text-anchor="start" x="388.467" y="-154.3" font-family="Times,serif" font-style="italic" font-size="14.00" fill="#000000">(mandatory)</text>
<polygon fill="#ddeeff" stroke="transparent" points="285.467,-125.5 285.467,-146.5 516.467,-146.5 516.467,-125.5 285.467,-125.5"/>
<polygon fill="none" stroke="#8ccbf2" points="285.467,-125.5 285.467,-146.5 516.467,-146.5 516.467,-125.5 285.467,-125.5"/>
<text text-anchor="start" x="288.467" y="-133.3" font-family="mono" font-size="14.00" fill="#c83500">security</text>
<text text-anchor="start" x="355.467" y="-133.3" font-family="Times,serif" font-size="14.00" fill="#000000"> : array of </text>
<text text-anchor="start" x="413.467" y="-133.3" font-family="mono" font-size="14.00" fill="#c83500">string</text>
<polygon fill="#ddeeff" stroke="transparent" points="285.467,-104.5 285.467,-125.5 516.467,-125.5 516.467,-104.5 285.467,-104.5"/>
<polygon fill="none" stroke="#8ccbf2" points="285.467,-104.5 285.467,-125.5 516.467,-125.5 516.467,-104.5 285.467,-104.5"/>
<text text-anchor="start" x="288.467" y="-112.3" font-family="mono" font-size="14.00" fill="#c83500">subprotocol</text>
<text text-anchor="start" x="379.467" y="-112.3" font-family="Times,serif" font-size="14.00" fill="#000000"> : </text>
<text text-anchor="start" x="391.467" y="-112.3" font-family="mono" font-size="14.00" fill="#c83500">string</text>
</g>
<!-- ExpectedResponse -->
<g id="node6" class="node">
<title>ExpectedResponse</title>
<polygon fill="#8ccbf2" stroke="transparent" points="285.467,-25 285.467,-46 516.467,-46 516.467,-25 285.467,-25"/>
<polygon fill="none" stroke="#8ccbf2" points="285.467,-25 285.467,-46 516.467,-46 516.467,-25 285.467,-25"/>
<text text-anchor="start" x="334.467" y="-32.8" font-family="mono" font-weight="bold" font-size="14.00" fill="#c83500">ExpectedResponse</text>
<polygon fill="#ddeeff" stroke="transparent" points="285.467,-4 285.467,-25 516.467,-25 516.467,-4 285.467,-4"/>
<polygon fill="none" stroke="#8ccbf2" points="285.467,-4 285.467,-25 516.467,-25 516.467,-4 285.467,-4"/>
<text text-anchor="start" x="288.467" y="-11.8" font-family="mono" font-size="14.00" fill="#c83500">contentType</text>
<text text-anchor="start" x="379.467" y="-11.8" font-family="Times,serif" font-size="14.00" fill="#000000"> : </text>
<text text-anchor="start" x="391.467" y="-11.8" font-family="mono" font-size="14.00" fill="#c83500">string</text>
<text text-anchor="start" x="441.467" y="-11.8" font-family="Times,serif" font-size="14.00" fill="#000000"> </text>
<text text-anchor="start" x="445.467" y="-11.8" font-family="Times,serif" font-style="italic" font-size="14.00" fill="#000000">(mandatory)</text>
</g>
<!-- Form&#45;&gt;ExpectedResponse -->
<g id="edge1" class="edge">
<title>Form&#45;&gt;ExpectedResponse</title>
<path fill="none" stroke="#000000" d="M400.467,-100.8506C400.467,-86.7022 400.467,-72.5946 400.467,-60.4513"/>
<polygon fill="#000000" stroke="#000000" points="403.9671,-60.3339 400.467,-50.334 396.9671,-60.334 403.9671,-60.3339"/>
<text text-anchor="start" x="400.467" y="-71.8" font-family="mono" font-size="14.00" fill="#c83500">response</text>
<text text-anchor="middle" x="389.467" y="-54.134" font-family="Times,serif" font-size="14.00" fill="#000000">0..1</text>
</g>
<!-- Thing -->
<g id="node4" class="node">
<title>Thing</title>
<polygon fill="#8ccbf2" stroke="transparent" points="466.467,-828 466.467,-849 719.467,-849 719.467,-828 466.467,-828"/>
<polygon fill="none" stroke="#8ccbf2" points="466.467,-828 466.467,-849 719.467,-849 719.467,-828 466.467,-828"/>
<text text-anchor="start" x="571.967" y="-835.8" font-family="mono" font-weight="bold" font-size="14.00" fill="#c83500">Thing</text>
<polygon fill="#ddeeff" stroke="transparent" points="466.467,-807 466.467,-828 719.467,-828 719.467,-807 466.467,-807"/>
<polygon fill="none" stroke="#8ccbf2" points="466.467,-807 466.467,-828 719.467,-828 719.467,-807 466.467,-807"/>
<text text-anchor="start" x="469.467" y="-814.8" font-family="mono" font-size="14.00" fill="#c83500">@context</text>
<text text-anchor="start" x="536.467" y="-814.8" font-family="Times,serif" font-size="14.00" fill="#000000"> : </text>
<text text-anchor="start" x="548.467" y="-814.8" font-family="Times,serif" font-style="italic" font-size="14.00" fill="#000000">array</text>
<text text-anchor="start" x="579.467" y="-814.8" font-family="Times,serif" font-size="14.00" fill="#000000"> </text>
<text text-anchor="start" x="583.467" y="-814.8" font-family="Times,serif" font-style="italic" font-size="14.00" fill="#000000">(mandatory)</text>
<polygon fill="#ddeeff" stroke="transparent" points="466.467,-786 466.467,-807 719.467,-807 719.467,-786 466.467,-786"/>
<polygon fill="none" stroke="#8ccbf2" points="466.467,-786 466.467,-807 719.467,-807 719.467,-786 466.467,-786"/>
<text text-anchor="start" x="469.467" y="-793.8" font-family="mono" font-size="14.00" fill="#c83500">@type</text>
<text text-anchor="start" x="511.467" y="-793.8" font-family="Times,serif" font-size="14.00" fill="#000000"> : </text>
<text text-anchor="start" x="523.467" y="-793.8" font-family="Times,serif" font-style="italic" font-size="14.00" fill="#000000">array of </text>
<text text-anchor="start" x="572.467" y="-793.8" font-family="mono" font-size="14.00" fill="#c83500">string</text>
<polygon fill="#ddeeff" stroke="transparent" points="466.467,-765 466.467,-786 719.467,-786 719.467,-765 466.467,-765"/>
<polygon fill="none" stroke="#8ccbf2" points="466.467,-765 466.467,-786 719.467,-786 719.467,-765 466.467,-765"/>
<text text-anchor="start" x="469.467" y="-772.8" font-family="mono" font-size="14.00" fill="#c83500">id</text>
<text text-anchor="start" x="486.467" y="-772.8" font-family="Times,serif" font-size="14.00" fill="#000000"> : </text>
<text text-anchor="start" x="498.467" y="-772.8" font-family="mono" font-size="14.00" fill="#c83500">anyURI</text>
<text text-anchor="start" x="548.467" y="-772.8" font-family="Times,serif" font-size="14.00" fill="#000000"> </text>
<text text-anchor="start" x="552.467" y="-772.8" font-family="Times,serif" font-style="italic" font-size="14.00" fill="#000000">(mandatory)</text>
<polygon fill="#ddeeff" stroke="transparent" points="466.467,-744 466.467,-765 719.467,-765 719.467,-744 466.467,-744"/>
<polygon fill="none" stroke="#8ccbf2" points="466.467,-744 466.467,-765 719.467,-765 719.467,-744 466.467,-744"/>
<text text-anchor="start" x="469.467" y="-751.8" font-family="mono" font-size="14.00" fill="#c83500">description</text>
<text text-anchor="start" x="560.467" y="-751.8" font-family="Times,serif" font-size="14.00" fill="#000000"> : </text>
<text text-anchor="start" x="572.467" y="-751.8" font-family="mono" font-size="14.00" fill="#c83500">string</text>
<polygon fill="#ddeeff" stroke="transparent" points="466.467,-723 466.467,-744 719.467,-744 719.467,-723 466.467,-723"/>
<polygon fill="none" stroke="#8ccbf2" points="466.467,-723 466.467,-744 719.467,-744 719.467,-723 466.467,-723"/>
<text text-anchor="start" x="469.467" y="-730.8" font-family="mono" font-size="14.00" fill="#c83500">security</text>
<text text-anchor="start" x="536.467" y="-730.8" font-family="Times,serif" font-size="14.00" fill="#000000"> : array of </text>
<text text-anchor="start" x="594.467" y="-730.8" font-family="mono" font-size="14.00" fill="#c83500">string</text>
<text text-anchor="start" x="644.467" y="-730.8" font-family="Times,serif" font-size="14.00" fill="#000000"> </text>
<text text-anchor="start" x="648.467" y="-730.8" font-family="Times,serif" font-style="italic" font-size="14.00" fill="#000000">(mandatory)</text>
<polygon fill="#ddeeff" stroke="transparent" points="466.467,-702 466.467,-723 719.467,-723 719.467,-702 466.467,-702"/>
<polygon fill="none" stroke="#8ccbf2" points="466.467,-702 466.467,-723 719.467,-723 719.467,-702 466.467,-702"/>
<text text-anchor="start" x="469.467" y="-709.8" font-family="mono" font-size="14.00" fill="#c83500">created</text>
<text text-anchor="start" x="527.467" y="-709.8" font-family="Times,serif" font-size="14.00" fill="#000000"> : </text>
<text text-anchor="start" x="539.467" y="-709.8" font-family="mono" font-size="14.00" fill="#c83500">string</text>
<polygon fill="#ddeeff" stroke="transparent" points="466.467,-681 466.467,-702 719.467,-702 719.467,-681 466.467,-681"/>
<polygon fill="none" stroke="#8ccbf2" points="466.467,-681 466.467,-702 719.467,-702 719.467,-681 466.467,-681"/>
<text text-anchor="start" x="469.467" y="-688.8" font-family="mono" font-size="14.00" fill="#c83500">base</text>
<text text-anchor="start" x="503.467" y="-688.8" font-family="Times,serif" font-size="14.00" fill="#000000"> : </text>
<text text-anchor="start" x="515.467" y="-688.8" font-family="mono" font-size="14.00" fill="#c83500">anyURI</text>
<polygon fill="#ddeeff" stroke="transparent" points="466.467,-660 466.467,-681 719.467,-681 719.467,-660 466.467,-660"/>
<polygon fill="none" stroke="#8ccbf2" points="466.467,-660 466.467,-681 719.467,-681 719.467,-660 466.467,-660"/>
<text text-anchor="start" x="469.467" y="-667.8" font-family="mono" font-size="14.00" fill="#c83500">name</text>
<text text-anchor="start" x="503.467" y="-667.8" font-family="Times,serif" font-size="14.00" fill="#000000"> : </text>
<text text-anchor="start" x="515.467" y="-667.8" font-family="mono" font-size="14.00" fill="#c83500">string</text>
<text text-anchor="start" x="565.467" y="-667.8" font-family="Times,serif" font-size="14.00" fill="#000000"> </text>
<text text-anchor="start" x="569.467" y="-667.8" font-family="Times,serif" font-style="italic" font-size="14.00" fill="#000000">(mandatory)</text>
<polygon fill="#ddeeff" stroke="transparent" points="466.467,-639 466.467,-660 719.467,-660 719.467,-639 466.467,-639"/>
<polygon fill="none" stroke="#8ccbf2" points="466.467,-639 466.467,-660 719.467,-660 719.467,-639 466.467,-639"/>
<text text-anchor="start" x="469.467" y="-646.8" font-family="mono" font-size="14.00" fill="#c83500">lastModified</text>
<text text-anchor="start" x="569.467" y="-646.8" font-family="Times,serif" font-size="14.00" fill="#000000"> : </text>
<text text-anchor="start" x="581.467" y="-646.8" font-family="mono" font-size="14.00" fill="#c83500">string</text>
<polygon fill="#ddeeff" stroke="transparent" points="466.467,-618 466.467,-639 719.467,-639 719.467,-618 466.467,-618"/>
<polygon fill="none" stroke="#8ccbf2" points="466.467,-618 466.467,-639 719.467,-639 719.467,-618 466.467,-618"/>
<text text-anchor="start" x="469.467" y="-625.8" font-family="mono" font-size="14.00" fill="#c83500">support</text>
<text text-anchor="start" x="527.467" y="-625.8" font-family="Times,serif" font-size="14.00" fill="#000000"> : </text>
<text text-anchor="start" x="539.467" y="-625.8" font-family="mono" font-size="14.00" fill="#c83500">string</text>
<polygon fill="#ddeeff" stroke="transparent" points="466.467,-597 466.467,-618 719.467,-618 719.467,-597 466.467,-597"/>
<polygon fill="none" stroke="#8ccbf2" points="466.467,-597 466.467,-618 719.467,-618 719.467,-597 466.467,-597"/>
<text text-anchor="start" x="469.467" y="-604.8" font-family="mono" font-size="14.00" fill="#c83500">names</text>
<text text-anchor="start" x="511.467" y="-604.8" font-family="Times,serif" font-size="14.00" fill="#000000"> : </text>
<text text-anchor="start" x="523.467" y="-604.8" font-family="mono" font-size="14.00" fill="#c83500">string</text>
<text text-anchor="start" x="573.467" y="-604.8" font-family="Times,serif" font-size="14.00" fill="#000000"> </text>
<text text-anchor="start" x="577.467" y="-604.8" font-family="Times,serif" font-style="italic" font-size="14.00" fill="#000000">(mandatory)</text>
</g>
<!-- Thing&#45;&gt;MultiLanguage -->
<g id="edge4" class="edge">
<title>Thing&#45;&gt;MultiLanguage</title>
<path fill="none" stroke="#000000" d="M457.7983,-698.8923C306.7386,-668.788 76.0339,-612.5542 24.467,-542 -58.5873,-428.3645 93.1318,-265.3959 158.565,-203.5712"/>
<polygon fill="#000000" stroke="#000000" points="161.1728,-205.925 166.0954,-196.5431 156.3966,-200.8075 161.1728,-205.925"/>
<text text-anchor="start" x="15.467" y="-399.8" font-family="mono" font-size="14.00" fill="#c83500">descriptions</text>
<text text-anchor="middle" x="155.0954" y="-200.3431" font-family="Times,serif" font-size="14.00" fill="#000000">0..1</text>
</g>
<!-- Thing&#45;&gt;Link -->
<g id="edge3" class="edge">
<title>Thing&#45;&gt;Link</title>
<path fill="none" stroke="#000000" d="M457.518,-693.2893C375.9313,-670.5688 273.0537,-633.0704 195.467,-575 186.1191,-568.0035 177.4649,-559.3532 169.6944,-550.2125"/>
<polygon fill="#000000" stroke="#000000" points="172.4033,-547.9961 163.3793,-542.4446 166.9717,-552.4119 172.4033,-547.9961"/>
<text text-anchor="start" x="195.467" y="-563.8" font-family="mono" font-size="14.00" fill="#c83500">links</text>
<text text-anchor="middle" x="152.3793" y="-546.2446" font-family="Times,serif" font-size="14.00" fill="#000000">0..*</text>
</g>
<!-- Thing&#45;&gt;Form -->
<g id="edge7" class="edge">
<title>Thing&#45;&gt;Form</title>
<path fill="none" stroke="#000000" d="M457.6072,-683.6726C388.666,-655.9657 310.9464,-611.1903 270.467,-542 255.0244,-515.6045 275.8074,-282.9171 280.467,-274 282.2029,-270.6778 284.1109,-267.4322 286.1666,-264.2649"/>
<polygon fill="#000000" stroke="#000000" points="289.0446,-266.2568 291.9369,-256.0644 283.3198,-262.2285 289.0446,-266.2568"/>
<text text-anchor="start" x="268.467" y="-399.8" font-family="mono" font-size="14.00" fill="#c83500">forms</text>
<text text-anchor="middle" x="280.9369" y="-259.8644" font-family="Times,serif" font-size="14.00" fill="#000000">0..*</text>
</g>
<!-- PropertyAffordance -->
<g id="node5" class="node">
<title>PropertyAffordance</title>
<polygon fill="#8ccbf2" stroke="transparent" points="288.467,-485.5 288.467,-506.5 519.467,-506.5 519.467,-485.5 288.467,-485.5"/>
<polygon fill="none" stroke="#8ccbf2" points="288.467,-485.5 288.467,-506.5 519.467,-506.5 519.467,-485.5 288.467,-485.5"/>
<text text-anchor="start" x="329.467" y="-493.3" font-family="mono" font-weight="bold" font-size="14.00" fill="#c83500">PropertyAffordance</text>
<polygon fill="#ddeeff" stroke="transparent" points="288.467,-464.5 288.467,-485.5 519.467,-485.5 519.467,-464.5 288.467,-464.5"/>
<polygon fill="none" stroke="#8ccbf2" points="288.467,-464.5 288.467,-485.5 519.467,-485.5 519.467,-464.5 288.467,-464.5"/>
<text text-anchor="start" x="291.467" y="-472.3" font-family="mono" font-size="14.00" fill="#c83500">observable</text>
<text text-anchor="start" x="374.467" y="-472.3" font-family="Times,serif" font-size="14.00" fill="#000000"> : </text>
<text text-anchor="start" x="386.467" y="-472.3" font-family="mono" font-size="14.00" fill="#c83500">boolean</text>
<text text-anchor="start" x="444.467" y="-472.3" font-family="Times,serif" font-size="14.00" fill="#000000"> </text>
<text text-anchor="start" x="448.467" y="-472.3" font-family="Times,serif" font-style="italic" font-size="14.00" fill="#000000">(mandatory)</text>
</g>
<!-- Thing&#45;&gt;PropertyAffordance -->
<g id="edge9" class="edge">
<title>Thing&#45;&gt;PropertyAffordance</title>
<path fill="none" stroke="#000000" d="M488.8434,-592.7852C467.0264,-565.3696 445.8641,-538.7768 430.0663,-518.9251"/>
<polygon fill="#000000" stroke="#000000" points="432.6035,-516.4925 423.638,-510.8472 427.1262,-520.8513 432.6035,-516.4925"/>
<text text-anchor="start" x="470.467" y="-563.8" font-family="mono" font-size="14.00" fill="#c83500">properties</text>
<text text-anchor="middle" x="412.638" y="-514.6472" font-family="Times,serif" font-size="14.00" fill="#000000">0..1</text>
</g>
<!-- VersionInfo -->
<g id="node7" class="node">
<title>VersionInfo</title>
<polygon fill="#8ccbf2" stroke="transparent" points="553.467,-485.5 553.467,-506.5 760.467,-506.5 760.467,-485.5 553.467,-485.5"/>
<polygon fill="none" stroke="#8ccbf2" points="553.467,-485.5 553.467,-506.5 760.467,-506.5 760.467,-485.5 553.467,-485.5"/>
<text text-anchor="start" x="611.467" y="-493.3" font-family="mono" font-weight="bold" font-size="14.00" fill="#c83500">VersionInfo</text>
<polygon fill="#ddeeff" stroke="transparent" points="553.467,-464.5 553.467,-485.5 760.467,-485.5 760.467,-464.5 553.467,-464.5"/>
<polygon fill="none" stroke="#8ccbf2" points="553.467,-464.5 553.467,-485.5 760.467,-485.5 760.467,-464.5 553.467,-464.5"/>
<text text-anchor="start" x="556.467" y="-472.3" font-family="mono" font-size="14.00" fill="#c83500">instance</text>
<text text-anchor="start" x="623.467" y="-472.3" font-family="Times,serif" font-size="14.00" fill="#000000"> : </text>
<text text-anchor="start" x="635.467" y="-472.3" font-family="mono" font-size="14.00" fill="#c83500">string</text>
<text text-anchor="start" x="685.467" y="-472.3" font-family="Times,serif" font-size="14.00" fill="#000000"> </text>
<text text-anchor="start" x="689.467" y="-472.3" font-family="Times,serif" font-style="italic" font-size="14.00" fill="#000000">(mandatory)</text>
</g>
<!-- Thing&#45;&gt;VersionInfo -->
<g id="edge8" class="edge">
<title>Thing&#45;&gt;VersionInfo</title>
<path fill="none" stroke="#000000" d="M627.5564,-592.7852C634.7463,-566.104 641.7262,-540.202 647.026,-520.5347"/>
<polygon fill="#000000" stroke="#000000" points="650.414,-521.4135 649.6366,-510.8472 643.6551,-519.5921 650.414,-521.4135"/>
<text text-anchor="start" x="636.467" y="-563.8" font-family="mono" font-size="14.00" fill="#c83500">version</text>
<text text-anchor="middle" x="638.6366" y="-514.6472" font-family="Times,serif" font-size="14.00" fill="#000000">0..1</text>
</g>
<!-- ActionAffordance -->
<g id="node8" class="node">
<title>ActionAffordance</title>
<polygon fill="#8ccbf2" stroke="transparent" points="794.467,-495.5 794.467,-516.5 1025.467,-516.5 1025.467,-495.5 794.467,-495.5"/>
<polygon fill="none" stroke="#8ccbf2" points="794.467,-495.5 794.467,-516.5 1025.467,-516.5 1025.467,-495.5 794.467,-495.5"/>
<text text-anchor="start" x="843.467" y="-503.3" font-family="mono" font-weight="bold" font-size="14.00" fill="#c83500">ActionAffordance</text>
<polygon fill="#ddeeff" stroke="transparent" points="794.467,-474.5 794.467,-495.5 1025.467,-495.5 1025.467,-474.5 794.467,-474.5"/>
<polygon fill="none" stroke="#8ccbf2" points="794.467,-474.5 794.467,-495.5 1025.467,-495.5 1025.467,-474.5 794.467,-474.5"/>
<text text-anchor="start" x="797.467" y="-482.3" font-family="mono" font-size="14.00" fill="#c83500">safe</text>
<text text-anchor="start" x="831.467" y="-482.3" font-family="Times,serif" font-size="14.00" fill="#000000"> : </text>
<text text-anchor="start" x="843.467" y="-482.3" font-family="mono" font-size="14.00" fill="#c83500">boolean</text>
<text text-anchor="start" x="901.467" y="-482.3" font-family="Times,serif" font-size="14.00" fill="#000000"> </text>
<text text-anchor="start" x="905.467" y="-482.3" font-family="Times,serif" font-style="italic" font-size="14.00" fill="#000000">(mandatory)</text>
<polygon fill="#ddeeff" stroke="transparent" points="794.467,-453.5 794.467,-474.5 1025.467,-474.5 1025.467,-453.5 794.467,-453.5"/>
<polygon fill="none" stroke="#8ccbf2" points="794.467,-453.5 794.467,-474.5 1025.467,-474.5 1025.467,-453.5 794.467,-453.5"/>
<text text-anchor="start" x="797.467" y="-461.3" font-family="mono" font-size="14.00" fill="#c83500">idempotent</text>
<text text-anchor="start" x="880.467" y="-461.3" font-family="Times,serif" font-size="14.00" fill="#000000"> : </text>
<text text-anchor="start" x="892.467" y="-461.3" font-family="mono" font-size="14.00" fill="#c83500">boolean</text>
<text text-anchor="start" x="950.467" y="-461.3" font-family="Times,serif" font-size="14.00" fill="#000000"> </text>
<text text-anchor="start" x="954.467" y="-461.3" font-family="Times,serif" font-style="italic" font-size="14.00" fill="#000000">(mandatory)</text>
</g>
<!-- Thing&#45;&gt;ActionAffordance -->
<g id="edge5" class="edge">
<title>Thing&#45;&gt;ActionAffordance</title>
<path fill="none" stroke="#000000" d="M727.3632,-621.9342C771.6693,-588.7396 818.4925,-553.6591 853.564,-527.3832"/>
<polygon fill="#000000" stroke="#000000" points="855.8605,-530.036 861.765,-521.2389 851.6633,-524.4338 855.8605,-530.036"/>
<text text-anchor="start" x="807.467" y="-563.8" font-family="mono" font-size="14.00" fill="#c83500">actions</text>
<text text-anchor="middle" x="850.765" y="-525.0389" font-family="Times,serif" font-size="14.00" fill="#000000">0..1</text>
</g>
<!-- EventAffordance -->
<g id="node10" class="node">
<title>EventAffordance</title>
<polygon fill="#8ccbf2" stroke="transparent" points="1059.467,-474.5 1059.467,-495.5 1189.467,-495.5 1189.467,-474.5 1059.467,-474.5"/>
<polygon fill="none" stroke="#8ccbf2" points="1059.467,-474.5 1059.467,-495.5 1189.467,-495.5 1189.467,-474.5 1059.467,-474.5"/>
<text text-anchor="start" x="1062.467" y="-482.3" font-family="mono" font-weight="bold" font-size="14.00" fill="#c83500">EventAffordance</text>
</g>
<!-- Thing&#45;&gt;EventAffordance -->
<g id="edge2" class="edge">
<title>Thing&#45;&gt;EventAffordance</title>
<path fill="none" stroke="#000000" d="M726.9876,-677.3656C818.0033,-644.4325 939.7096,-596.3326 1041.467,-542 1058.9485,-532.6659 1077.2723,-520.4794 1092.2426,-509.8148"/>
<polygon fill="#000000" stroke="#000000" points="1094.5849,-512.4403 1100.6376,-503.7446 1090.4833,-506.7678 1094.5849,-512.4403"/>
<text text-anchor="start" x="995.467" y="-563.8" font-family="mono" font-size="14.00" fill="#c83500">events</text>
<text text-anchor="middle" x="1089.6376" y="-507.5446" font-family="Times,serif" font-size="14.00" fill="#000000">0..1</text>
</g>
<!-- SecurityScheme -->
<g id="node11" class="node">
<title>SecurityScheme</title>
<polygon fill="#f2f2f2" stroke="transparent" points="1223.467,-474.5 1223.467,-495.5 1345.467,-495.5 1345.467,-474.5 1223.467,-474.5"/>
<polygon fill="none" stroke="#8c8c8c" points="1223.467,-474.5 1223.467,-495.5 1345.467,-495.5 1345.467,-474.5 1223.467,-474.5"/>
<text text-anchor="start" x="1226.467" y="-482.3" font-family="mono" font-weight="bold" font-size="14.00" fill="#000000">SecurityScheme</text>
</g>
<!-- Thing&#45;&gt;SecurityScheme -->
<g id="edge6" class="edge">
<title>Thing&#45;&gt;SecurityScheme</title>
<path fill="none" stroke="#000000" d="M726.9706,-697.1897C854.7316,-669.5159 1050.0016,-618.8938 1206.467,-542 1223.9042,-533.4306 1241.5814,-521.0005 1255.6885,-509.9798"/>
<polygon fill="#000000" stroke="#000000" points="1257.927,-512.6712 1263.5531,-503.6936 1253.5565,-507.2032 1257.927,-512.6712"/>
<text text-anchor="start" x="1159.467" y="-563.8" font-family="mono" font-size="14.00" fill="#c83500">securityDefinitions</text>
<text text-anchor="middle" x="1252.5531" y="-507.4936" font-family="Times,serif" font-size="14.00" fill="#000000">1..1</text>
</g>
<!-- InteractionAffordance -->
<g id="node9" class="node">
<title>InteractionAffordance</title>
<polygon fill="#8ccbf2" stroke="transparent" points="317.467,-352.5 317.467,-373.5 497.467,-373.5 497.467,-352.5 317.467,-352.5"/>
<polygon fill="none" stroke="#8ccbf2" points="317.467,-352.5 317.467,-373.5 497.467,-373.5 497.467,-352.5 317.467,-352.5"/>
<text text-anchor="start" x="320.467" y="-360.3" font-family="mono" font-weight="bold" font-size="14.00" fill="#c83500">InteractionAffordance</text>
<polygon fill="#ddeeff" stroke="transparent" points="317.467,-331.5 317.467,-352.5 497.467,-352.5 497.467,-331.5 317.467,-331.5"/>
<polygon fill="none" stroke="#8ccbf2" points="317.467,-331.5 317.467,-352.5 497.467,-352.5 497.467,-331.5 317.467,-331.5"/>
<text text-anchor="start" x="320.467" y="-339.3" font-family="mono" font-size="14.00" fill="#c83500">description</text>
<text text-anchor="start" x="411.467" y="-339.3" font-family="Times,serif" font-size="14.00" fill="#000000"> : </text>
<text text-anchor="start" x="423.467" y="-339.3" font-family="mono" font-size="14.00" fill="#c83500">string</text>
<polygon fill="#ddeeff" stroke="transparent" points="317.467,-310.5 317.467,-331.5 497.467,-331.5 497.467,-310.5 317.467,-310.5"/>
<polygon fill="none" stroke="#8ccbf2" points="317.467,-310.5 317.467,-331.5 497.467,-331.5 497.467,-310.5 317.467,-310.5"/>
<text text-anchor="start" x="320.467" y="-318.3" font-family="mono" font-size="14.00" fill="#c83500">title</text>
<text text-anchor="start" x="362.467" y="-318.3" font-family="Times,serif" font-size="14.00" fill="#000000"> : </text>
<text text-anchor="start" x="374.467" y="-318.3" font-family="mono" font-size="14.00" fill="#c83500">string</text>
</g>
<!-- PropertyAffordance&#45;&gt;InteractionAffordance -->
<g id="edge21" class="edge">
<title>PropertyAffordance&#45;&gt;InteractionAffordance</title>
<path fill="none" stroke="#000000" d="M404.1729,-460.2636C404.7277,-440.4277 405.5155,-412.2666 406.1815,-388.4566"/>
<polygon fill="#ffffff" stroke="#000000" points="409.6869,-388.3072 406.468,-378.2132 402.6897,-388.1114 409.6869,-388.3072"/>
</g>
<!-- ActionAffordance&#45;&gt;InteractionAffordance -->
<g id="edge19" class="edge">
<title>ActionAffordance&#45;&gt;InteractionAffordance</title>
<path fill="none" stroke="#000000" d="M831.904,-449.917C813.9248,-442.4088 794.7087,-434.9639 776.467,-429 690.277,-400.8211 589.9484,-377.9136 515.6815,-362.7683"/>
<polygon fill="#ffffff" stroke="#000000" points="516.3352,-359.3297 505.8394,-360.7755 514.9459,-366.1905 516.3352,-359.3297"/>
</g>
<!-- DataSchema -->
<g id="node12" class="node">
<title>DataSchema</title>
<polygon fill="#f2f2f2" stroke="transparent" points="937.467,-167.5 937.467,-188.5 1026.467,-188.5 1026.467,-167.5 937.467,-167.5"/>
<polygon fill="none" stroke="#8c8c8c" points="937.467,-167.5 937.467,-188.5 1026.467,-188.5 1026.467,-167.5 937.467,-167.5"/>
<text text-anchor="start" x="940.467" y="-175.3" font-family="mono" font-weight="bold" font-size="14.00" fill="#000000">DataSchema</text>
</g>
<!-- ActionAffordance&#45;&gt;DataSchema -->
<g id="edge10" class="edge">
<title>ActionAffordance&#45;&gt;DataSchema</title>
<path fill="none" stroke="#000000" d="M889.9829,-449.7741C872.6737,-413.1249 852.6566,-354.8639 870.467,-307 886.2806,-264.5021 923.1638,-226.6831 950.0886,-203.2628"/>
<polygon fill="#000000" stroke="#000000" points="952.3889,-205.901 957.741,-196.7574 947.855,-200.5677 952.3889,-205.901"/>
<text text-anchor="start" x="870.467" y="-338.8" font-family="mono" font-size="14.00" fill="#c83500">output</text>
<text text-anchor="middle" x="946.741" y="-200.5574" font-family="Times,serif" font-size="14.00" fill="#000000">0..1</text>
</g>
<!-- ActionAffordance&#45;&gt;DataSchema -->
<g id="edge11" class="edge">
<title>ActionAffordance&#45;&gt;DataSchema</title>
<path fill="none" stroke="#000000" d="M917.7966,-449.9833C932.2633,-388.2991 961.7416,-262.6069 974.8858,-206.5614"/>
<polygon fill="#000000" stroke="#000000" points="978.3394,-207.1639 977.2153,-196.6288 971.5243,-205.5655 978.3394,-207.1639"/>
<text text-anchor="start" x="950.467" y="-338.8" font-family="mono" font-size="14.00" fill="#c83500">input</text>
<text text-anchor="middle" x="988.2153" y="-200.4288" font-family="Times,serif" font-size="14.00" fill="#000000">0..1</text>
</g>
<!-- InteractionAffordance&#45;&gt;MultiLanguage -->
<g id="edge12" class="edge">
<title>InteractionAffordance&#45;&gt;MultiLanguage</title>
<path fill="none" stroke="#000000" d="M330.0322,-306.8448C320.1482,-301.3103 310.3815,-295.3162 301.467,-289 266.1491,-263.9761 231.0817,-228.3086 209.129,-204.3281"/>
<polygon fill="#000000" stroke="#000000" points="211.5101,-201.743 202.2055,-196.6759 206.3193,-206.4395 211.5101,-201.743"/>
<text text-anchor="start" x="301.467" y="-277.8" font-family="mono" font-size="14.00" fill="#c83500">descriptions</text>
<text text-anchor="middle" x="191.2055" y="-200.4759" font-family="Times,serif" font-size="14.00" fill="#000000">0..1</text>
</g>
<!-- InteractionAffordance&#45;&gt;MultiLanguage -->
<g id="edge14" class="edge">
<title>InteractionAffordance&#45;&gt;MultiLanguage</title>
<path fill="none" stroke="#000000" d="M309.2844,-320.7725C275.501,-311.6563 243.0005,-300.5062 230.467,-289 206.9088,-267.3728 195.751,-231.4705 190.612,-206.481"/>
<polygon fill="#000000" stroke="#000000" points="194.0278,-205.7049 188.7594,-196.5128 187.1456,-206.984 194.0278,-205.7049"/>
<text text-anchor="start" x="230.467" y="-277.8" font-family="mono" font-size="14.00" fill="#c83500">titles</text>
<text text-anchor="middle" x="177.7594" y="-200.3128" font-family="Times,serif" font-size="14.00" fill="#000000">0..1</text>
</g>
<!-- InteractionAffordance&#45;&gt;Form -->
<g id="edge15" class="edge">
<title>InteractionAffordance&#45;&gt;Form</title>
<path fill="none" stroke="#000000" d="M405.9481,-306.9144C405.4286,-294.7441 404.8223,-280.5399 404.2061,-266.103"/>
<polygon fill="#000000" stroke="#000000" points="407.7022,-265.9348 403.7789,-256.0932 400.7086,-266.2334 407.7022,-265.9348"/>
<text text-anchor="start" x="405.467" y="-277.8" font-family="mono" font-size="14.00" fill="#c83500">forms</text>
<text text-anchor="middle" x="392.7789" y="-259.8932" font-family="Times,serif" font-size="14.00" fill="#000000">1..*</text>
</g>
<!-- InteractionAffordance&#45;&gt;DataSchema -->
<g id="edge13" class="edge">
<title>InteractionAffordance&#45;&gt;DataSchema</title>
<path fill="none" stroke="#000000" d="M505.4889,-314.4937C623.8626,-280.6727 819.4468,-224.7915 919.0271,-196.34"/>
<polygon fill="#000000" stroke="#000000" points="919.9956,-199.7034 928.6493,-193.5908 918.0725,-192.9727 919.9956,-199.7034"/>
<text text-anchor="start" x="643.467" y="-277.8" font-family="mono" font-size="14.00" fill="#c83500">uriVariables</text>
<text text-anchor="middle" x="917.6493" y="-197.3908" font-family="Times,serif" font-size="14.00" fill="#000000">0..1</text>
</g>
<!-- EventAffordance&#45;&gt;InteractionAffordance -->
<g id="edge20" class="edge">
<title>EventAffordance&#45;&gt;InteractionAffordance</title>
<path fill="none" stroke="#000000" d="M1103.8305,-467.4162C1087.9086,-454.5181 1064.7373,-437.9357 1041.467,-429 947.7901,-393.0284 670.5909,-364.7492 515.5436,-351.2195"/>
<polygon fill="#ffffff" stroke="#000000" points="515.7758,-347.7266 505.5108,-350.3498 515.1711,-354.7005 515.7758,-347.7266"/>
</g>
<!-- EventAffordance&#45;&gt;DataSchema -->
<g id="edge16" class="edge">
<title>EventAffordance&#45;&gt;DataSchema</title>
<path fill="none" stroke="#000000" d="M1104.6946,-467.1914C1084.2229,-447.1724 1052.7297,-413.2217 1034.467,-378 1005.0013,-321.1721 990.8517,-246.5205 984.9901,-206.5848"/>
<polygon fill="#000000" stroke="#000000" points="988.4333,-205.9348 983.5814,-196.5163 981.5008,-206.9048 988.4333,-205.9348"/>
<text text-anchor="start" x="1034.467" y="-338.8" font-family="mono" font-size="14.00" fill="#c83500">data</text>
<text text-anchor="middle" x="972.5814" y="-200.3163" font-family="Times,serif" font-size="14.00" fill="#000000">0..1</text>
</g>
<!-- EventAffordance&#45;&gt;DataSchema -->
<g id="edge17" class="edge">
<title>EventAffordance&#45;&gt;DataSchema</title>
<path fill="none" stroke="#000000" d="M1120.6257,-467.3674C1113.2361,-434.3586 1095.3556,-362.7241 1068.467,-307 1050.1637,-269.0684 1021.772,-229.5453 1002.4384,-204.5192"/>
<polygon fill="#000000" stroke="#000000" points="1005.1728,-202.3341 996.2566,-196.6111 999.6578,-206.6452 1005.1728,-202.3341"/>
<text text-anchor="start" x="1095.467" y="-338.8" font-family="mono" font-size="14.00" fill="#c83500">cancellation</text>
<text text-anchor="middle" x="1007.2566" y="-200.4111" font-family="Times,serif" font-size="14.00" fill="#000000">0..1</text>
</g>
<!-- EventAffordance&#45;&gt;DataSchema -->
<g id="edge18" class="edge">
<title>EventAffordance&#45;&gt;DataSchema</title>
<path fill="none" stroke="#000000" d="M1142.9227,-467.3429C1174.1917,-434.2948 1231.2336,-362.5995 1199.467,-307 1166.3312,-249.0042 1095.6627,-214.5718 1043.7299,-196.1703"/>
<polygon fill="#000000" stroke="#000000" points="1044.8588,-192.8574 1034.2642,-192.9188 1042.5847,-199.4777 1044.8588,-192.8574"/>
<text text-anchor="start" x="1208.467" y="-338.8" font-family="mono" font-size="14.00" fill="#c83500">subscription</text>
<text text-anchor="middle" x="1045.2642" y="-196.7188" font-family="Times,serif" font-size="14.00" fill="#000000">0..1</text>
</g>
</g>
</svg>
