<?xml version="1.0" encoding="UTF-8" standalone="no"?>
<!DOCTYPE svg PUBLIC "-//W3C//DTD SVG 1.1//EN"
 "http://www.w3.org/Graphics/SVG/1.1/DTD/svg11.dtd">
<!-- Generated by graphviz version 2.38.0 (20140413.2041)
 -->
<!-- Title: %3 Pages: 1 -->
<svg width="1314pt" height="819pt"
 viewBox="0.00 0.00 1314.00 819.00" xmlns="http://www.w3.org/2000/svg" xmlns:xlink="http://www.w3.org/1999/xlink">
<g id="graph0" class="graph" transform="scale(1 1) rotate(0) translate(4 815)">
<title>%3</title>
<polygon fill="white" stroke="none" points="-4,4 -4,-815 1310,-815 1310,4 -4,4"/>
<!-- MultiLanguage -->
<g id="node1" class="node"><title>MultiLanguage</title>
<polygon fill="#8ccbf2" stroke="none" points="8,-167.5 8,-188.5 122,-188.5 122,-167.5 8,-167.5"/>
<polygon fill="none" stroke="#8ccbf2" points="8,-167.5 8,-188.5 122,-188.5 122,-167.5 8,-167.5"/>
<text text-anchor="start" x="11" y="-175.3" font-family="mono" font-weight="bold" font-size="14.00" fill="#c83500">MultiLanguage</text>
</g>
<!-- Form -->
<g id="node2" class="node"><title>Form</title>
<polygon fill="#8ccbf2" stroke="none" points="164,-230.5 164,-251.5 395,-251.5 395,-230.5 164,-230.5"/>
<polygon fill="none" stroke="#8ccbf2" points="164,-230.5 164,-251.5 395,-251.5 395,-230.5 164,-230.5"/>
<text text-anchor="start" x="262.5" y="-238.3" font-family="mono" font-weight="bold" font-size="14.00" fill="#c83500">Form</text>
<polygon fill="#ddeeff" stroke="none" points="164,-209.5 164,-230.5 395,-230.5 395,-209.5 164,-209.5"/>
<polygon fill="none" stroke="#8ccbf2" points="164,-209.5 164,-230.5 395,-230.5 395,-209.5 164,-209.5"/>
<text text-anchor="start" x="167" y="-217.3" font-family="mono" font-size="14.00" fill="#c83500">subprotocol</text>
<text text-anchor="start" x="258" y="-217.3" font-family="Times,serif" font-size="14.00"> : </text>
<text text-anchor="start" x="270" y="-217.3" font-family="mono" font-size="14.00" fill="#c83500">string</text>
<polygon fill="#ddeeff" stroke="none" points="164,-188.5 164,-209.5 395,-209.5 395,-188.5 164,-188.5"/>
<polygon fill="none" stroke="#8ccbf2" points="164,-188.5 164,-209.5 395,-209.5 395,-188.5 164,-188.5"/>
<text text-anchor="start" x="167" y="-196.3" font-family="mono" font-size="14.00" fill="#c83500">security</text>
<text text-anchor="start" x="234" y="-196.3" font-family="Times,serif" font-size="14.00"> : array of </text>
<text text-anchor="start" x="292" y="-196.3" font-family="mono" font-size="14.00" fill="#c83500">string</text>
<polygon fill="#ddeeff" stroke="none" points="164,-167.5 164,-188.5 395,-188.5 395,-167.5 164,-167.5"/>
<polygon fill="none" stroke="#8ccbf2" points="164,-167.5 164,-188.5 395,-188.5 395,-167.5 164,-167.5"/>
<text text-anchor="start" x="167" y="-175.3" font-family="mono" font-size="14.00" fill="#c83500">href</text>
<text text-anchor="start" x="201" y="-175.3" font-family="Times,serif" font-size="14.00"> : </text>
<text text-anchor="start" x="213" y="-175.3" font-family="mono" font-size="14.00" fill="#c83500">anyURI</text>
<text text-anchor="start" x="263" y="-175.3" font-family="Times,serif" font-size="14.00"> </text>
<text text-anchor="start" x="267" y="-175.3" font-family="Times,serif" font-style="italic" font-size="14.00">(mandatory)</text>
<polygon fill="#ddeeff" stroke="none" points="164,-146.5 164,-167.5 395,-167.5 395,-146.5 164,-146.5"/>
<polygon fill="none" stroke="#8ccbf2" points="164,-146.5 164,-167.5 395,-167.5 395,-146.5 164,-146.5"/>
<text text-anchor="start" x="167" y="-154.3" font-family="mono" font-size="14.00" fill="#c83500">op</text>
<text text-anchor="start" x="184" y="-154.3" font-family="Times,serif" font-size="14.00"> : </text>
<text text-anchor="start" x="196" y="-154.3" font-family="mono" font-size="14.00" fill="#c83500">string</text>
<polygon fill="#ddeeff" stroke="none" points="164,-125.5 164,-146.5 395,-146.5 395,-125.5 164,-125.5"/>
<polygon fill="none" stroke="#8ccbf2" points="164,-125.5 164,-146.5 395,-146.5 395,-125.5 164,-125.5"/>
<text text-anchor="start" x="167" y="-133.3" font-family="mono" font-size="14.00" fill="#c83500">contentType</text>
<text text-anchor="start" x="258" y="-133.3" font-family="Times,serif" font-size="14.00"> : </text>
<text text-anchor="start" x="270" y="-133.3" font-family="mono" font-size="14.00" fill="#c83500">string</text>
<text text-anchor="start" x="320" y="-133.3" font-family="Times,serif" font-size="14.00"> </text>
<text text-anchor="start" x="324" y="-133.3" font-family="Times,serif" font-style="italic" font-size="14.00">(mandatory)</text>
<polygon fill="#ddeeff" stroke="none" points="164,-104.5 164,-125.5 395,-125.5 395,-104.5 164,-104.5"/>
<polygon fill="none" stroke="#8ccbf2" points="164,-104.5 164,-125.5 395,-125.5 395,-104.5 164,-104.5"/>
<text text-anchor="start" x="167" y="-112.3" font-family="mono" font-size="14.00" fill="#c83500">scopes</text>
<text text-anchor="start" x="217" y="-112.3" font-family="Times,serif" font-size="14.00"> : array of </text>
<text text-anchor="start" x="275" y="-112.3" font-family="mono" font-size="14.00" fill="#c83500">string</text>
</g>
<!-- ExpectedResponse -->
<g id="node5" class="node"><title>ExpectedResponse</title>
<polygon fill="#8ccbf2" stroke="none" points="164,-25 164,-46 395,-46 395,-25 164,-25"/>
<polygon fill="none" stroke="#8ccbf2" points="164,-25 164,-46 395,-46 395,-25 164,-25"/>
<text text-anchor="start" x="213" y="-32.8" font-family="mono" font-weight="bold" font-size="14.00" fill="#c83500">ExpectedResponse</text>
<polygon fill="#ddeeff" stroke="none" points="164,-4 164,-25 395,-25 395,-4 164,-4"/>
<polygon fill="none" stroke="#8ccbf2" points="164,-4 164,-25 395,-25 395,-4 164,-4"/>
<text text-anchor="start" x="167" y="-11.8" font-family="mono" font-size="14.00" fill="#c83500">contentType</text>
<text text-anchor="start" x="258" y="-11.8" font-family="Times,serif" font-size="14.00"> : </text>
<text text-anchor="start" x="270" y="-11.8" font-family="mono" font-size="14.00" fill="#c83500">string</text>
<text text-anchor="start" x="320" y="-11.8" font-family="Times,serif" font-size="14.00"> </text>
<text text-anchor="start" x="324" y="-11.8" font-family="Times,serif" font-style="italic" font-size="14.00">(mandatory)</text>
</g>
<!-- Form&#45;&gt;ExpectedResponse -->
<g id="edge1" class="edge"><title>Form&#45;&gt;ExpectedResponse</title>
<path fill="none" stroke="black" d="M279,-100.862C279,-86.5577 279,-72.2953 279,-60.116"/>
<polygon fill="black" stroke="black" points="282.5,-60.0004 279,-50.0004 275.5,-60.0004 282.5,-60.0004"/>
<text text-anchor="start" x="279" y="-71.8" font-family="mono" font-size="14.00" fill="#c83500">response</text>
<text text-anchor="middle" x="268" y="-53.8004" font-family="Times,serif" font-size="14.00">0..1</text>
</g>
<!-- Thing -->
<g id="node3" class="node"><title>Thing</title>
<polygon fill="#8ccbf2" stroke="none" points="529,-786 529,-807 782,-807 782,-786 529,-786"/>
<polygon fill="none" stroke="#8ccbf2" points="529,-786 529,-807 782,-807 782,-786 529,-786"/>
<text text-anchor="start" x="634.5" y="-793.8" font-family="mono" font-weight="bold" font-size="14.00" fill="#c83500">Thing</text>
<polygon fill="#ddeeff" stroke="none" points="529,-765 529,-786 782,-786 782,-765 529,-765"/>
<polygon fill="none" stroke="#8ccbf2" points="529,-765 529,-786 782,-786 782,-765 529,-765"/>
<text text-anchor="start" x="532" y="-772.8" font-family="mono" font-size="14.00" fill="#c83500">@context</text>
<text text-anchor="start" x="599" y="-772.8" font-family="Times,serif" font-size="14.00"> : </text>
<text text-anchor="start" x="611" y="-772.8" font-family="Times,serif" font-style="italic" font-size="14.00">array</text>
<text text-anchor="start" x="642" y="-772.8" font-family="Times,serif" font-size="14.00"> </text>
<text text-anchor="start" x="646" y="-772.8" font-family="Times,serif" font-style="italic" font-size="14.00">(mandatory)</text>
<polygon fill="#ddeeff" stroke="none" points="529,-744 529,-765 782,-765 782,-744 529,-744"/>
<polygon fill="none" stroke="#8ccbf2" points="529,-744 529,-765 782,-765 782,-744 529,-744"/>
<text text-anchor="start" x="532" y="-751.8" font-family="mono" font-size="14.00" fill="#c83500">@type</text>
<text text-anchor="start" x="574" y="-751.8" font-family="Times,serif" font-size="14.00"> : </text>
<text text-anchor="start" x="586" y="-751.8" font-family="Times,serif" font-style="italic" font-size="14.00">array of </text>
<text text-anchor="start" x="635" y="-751.8" font-family="mono" font-size="14.00" fill="#c83500">string</text>
<polygon fill="#ddeeff" stroke="none" points="529,-723 529,-744 782,-744 782,-723 529,-723"/>
<polygon fill="none" stroke="#8ccbf2" points="529,-723 529,-744 782,-744 782,-723 529,-723"/>
<text text-anchor="start" x="532" y="-730.8" font-family="mono" font-size="14.00" fill="#c83500">id</text>
<text text-anchor="start" x="549" y="-730.8" font-family="Times,serif" font-size="14.00"> : </text>
<text text-anchor="start" x="561" y="-730.8" font-family="mono" font-size="14.00" fill="#c83500">anyURI</text>
<text text-anchor="start" x="611" y="-730.8" font-family="Times,serif" font-size="14.00"> </text>
<text text-anchor="start" x="615" y="-730.8" font-family="Times,serif" font-style="italic" font-size="14.00">(mandatory)</text>
<polygon fill="#ddeeff" stroke="none" points="529,-702 529,-723 782,-723 782,-702 529,-702"/>
<polygon fill="none" stroke="#8ccbf2" points="529,-702 529,-723 782,-723 782,-702 529,-702"/>
<text text-anchor="start" x="532" y="-709.8" font-family="mono" font-size="14.00" fill="#c83500">created</text>
<text text-anchor="start" x="590" y="-709.8" font-family="Times,serif" font-size="14.00"> : </text>
<text text-anchor="start" x="602" y="-709.8" font-family="mono" font-size="14.00" fill="#c83500">string</text>
<polygon fill="#ddeeff" stroke="none" points="529,-681 529,-702 782,-702 782,-681 529,-681"/>
<polygon fill="none" stroke="#8ccbf2" points="529,-681 529,-702 782,-702 782,-681 529,-681"/>
<text text-anchor="start" x="532" y="-688.8" font-family="mono" font-size="14.00" fill="#c83500">names</text>
<text text-anchor="start" x="574" y="-688.8" font-family="Times,serif" font-size="14.00"> : </text>
<text text-anchor="start" x="586" y="-688.8" font-family="mono" font-size="14.00" fill="#c83500">string</text>
<text text-anchor="start" x="636" y="-688.8" font-family="Times,serif" font-size="14.00"> </text>
<text text-anchor="start" x="640" y="-688.8" font-family="Times,serif" font-style="italic" font-size="14.00">(mandatory)</text>
<polygon fill="#ddeeff" stroke="none" points="529,-660 529,-681 782,-681 782,-660 529,-660"/>
<polygon fill="none" stroke="#8ccbf2" points="529,-660 529,-681 782,-681 782,-660 529,-660"/>
<text text-anchor="start" x="532" y="-667.8" font-family="mono" font-size="14.00" fill="#c83500">lastModified</text>
<text text-anchor="start" x="632" y="-667.8" font-family="Times,serif" font-size="14.00"> : </text>
<text text-anchor="start" x="644" y="-667.8" font-family="mono" font-size="14.00" fill="#c83500">string</text>
<polygon fill="#ddeeff" stroke="none" points="529,-639 529,-660 782,-660 782,-639 529,-639"/>
<polygon fill="none" stroke="#8ccbf2" points="529,-639 529,-660 782,-660 782,-639 529,-639"/>
<text text-anchor="start" x="532" y="-646.8" font-family="mono" font-size="14.00" fill="#c83500">name</text>
<text text-anchor="start" x="566" y="-646.8" font-family="Times,serif" font-size="14.00"> : </text>
<text text-anchor="start" x="578" y="-646.8" font-family="mono" font-size="14.00" fill="#c83500">string</text>
<text text-anchor="start" x="628" y="-646.8" font-family="Times,serif" font-size="14.00"> </text>
<text text-anchor="start" x="632" y="-646.8" font-family="Times,serif" font-style="italic" font-size="14.00">(mandatory)</text>
<polygon fill="#ddeeff" stroke="none" points="529,-618 529,-639 782,-639 782,-618 529,-618"/>
<polygon fill="none" stroke="#8ccbf2" points="529,-618 529,-639 782,-639 782,-618 529,-618"/>
<text text-anchor="start" x="532" y="-625.8" font-family="mono" font-size="14.00" fill="#c83500">security</text>
<text text-anchor="start" x="599" y="-625.8" font-family="Times,serif" font-size="14.00"> : array of </text>
<text text-anchor="start" x="657" y="-625.8" font-family="mono" font-size="14.00" fill="#c83500">string</text>
<text text-anchor="start" x="707" y="-625.8" font-family="Times,serif" font-size="14.00"> </text>
<text text-anchor="start" x="711" y="-625.8" font-family="Times,serif" font-style="italic" font-size="14.00">(mandatory)</text>
<polygon fill="#ddeeff" stroke="none" points="529,-597 529,-618 782,-618 782,-597 529,-597"/>
<polygon fill="none" stroke="#8ccbf2" points="529,-597 529,-618 782,-618 782,-597 529,-597"/>
<text text-anchor="start" x="532" y="-604.8" font-family="mono" font-size="14.00" fill="#c83500">base</text>
<text text-anchor="start" x="566" y="-604.8" font-family="Times,serif" font-size="14.00"> : </text>
<text text-anchor="start" x="578" y="-604.8" font-family="mono" font-size="14.00" fill="#c83500">anyURI</text>
<polygon fill="#ddeeff" stroke="none" points="529,-576 529,-597 782,-597 782,-576 529,-576"/>
<polygon fill="none" stroke="#8ccbf2" points="529,-576 529,-597 782,-597 782,-576 529,-576"/>
<text text-anchor="start" x="532" y="-583.8" font-family="mono" font-size="14.00" fill="#c83500">support</text>
<text text-anchor="start" x="590" y="-583.8" font-family="Times,serif" font-size="14.00"> : </text>
<text text-anchor="start" x="602" y="-583.8" font-family="mono" font-size="14.00" fill="#c83500">string</text>
<polygon fill="#ddeeff" stroke="none" points="529,-555 529,-576 782,-576 782,-555 529,-555"/>
<polygon fill="none" stroke="#8ccbf2" points="529,-555 529,-576 782,-576 782,-555 529,-555"/>
<text text-anchor="start" x="532" y="-562.8" font-family="mono" font-size="14.00" fill="#c83500">description</text>
<text text-anchor="start" x="623" y="-562.8" font-family="Times,serif" font-size="14.00"> : </text>
<text text-anchor="start" x="635" y="-562.8" font-family="mono" font-size="14.00" fill="#c83500">string</text>
</g>
<!-- Thing&#45;&gt;MultiLanguage -->
<g id="edge7" class="edge"><title>Thing&#45;&gt;MultiLanguage</title>
<path fill="none" stroke="black" d="M520.447,-657.282C417.387,-635.877 274.303,-597.272 162,-533 92.9484,-493.481 62.7485,-483.951 31,-411 0.708512,-341.396 32.7557,-250.058 52.2734,-205.802"/>
<polygon fill="black" stroke="black" points="55.505,-207.15 56.4544,-196.598 49.1317,-204.255 55.505,-207.15"/>
<text text-anchor="start" x="31" y="-399.8" font-family="mono" font-size="14.00" fill="#c83500">descriptions</text>
<text text-anchor="middle" x="45.4544" y="-200.398" font-family="Times,serif" font-size="14.00">0..1</text>
</g>
<!-- Thing&#45;&gt;Form -->
<g id="edge4" class="edge"><title>Thing&#45;&gt;Form</title>
<path fill="none" stroke="black" d="M520.352,-673.262C400.787,-659.293 232.46,-618.273 149,-500 128.454,-470.884 129.418,-330.261 159,-274 160.686,-270.793 162.534,-267.659 164.522,-264.599"/>
<polygon fill="black" stroke="black" points="167.563,-266.362 170.476,-256.175 161.846,-262.321 167.563,-266.362"/>
<text text-anchor="start" x="136" y="-399.8" font-family="mono" font-size="14.00" fill="#c83500">forms</text>
<text text-anchor="middle" x="159.476" y="-259.975" font-family="Times,serif" font-size="14.00">0..*</text>
</g>
<!-- PropertyAffordance -->
<g id="node4" class="node"><title>PropertyAffordance</title>
<polygon fill="#8ccbf2" stroke="none" points="167,-464.5 167,-485.5 398,-485.5 398,-464.5 167,-464.5"/>
<polygon fill="none" stroke="#8ccbf2" points="167,-464.5 167,-485.5 398,-485.5 398,-464.5 167,-464.5"/>
<text text-anchor="start" x="208" y="-472.3" font-family="mono" font-weight="bold" font-size="14.00" fill="#c83500">PropertyAffordance</text>
<polygon fill="#ddeeff" stroke="none" points="167,-443.5 167,-464.5 398,-464.5 398,-443.5 167,-443.5"/>
<polygon fill="none" stroke="#8ccbf2" points="167,-443.5 167,-464.5 398,-464.5 398,-443.5 167,-443.5"/>
<text text-anchor="start" x="170" y="-451.3" font-family="mono" font-size="14.00" fill="#c83500">observable</text>
<text text-anchor="start" x="253" y="-451.3" font-family="Times,serif" font-size="14.00"> : </text>
<text text-anchor="start" x="265" y="-451.3" font-family="mono" font-size="14.00" fill="#c83500">boolean</text>
<text text-anchor="start" x="323" y="-451.3" font-family="Times,serif" font-size="14.00"> </text>
<text text-anchor="start" x="327" y="-451.3" font-family="Times,serif" font-style="italic" font-size="14.00">(mandatory)</text>
</g>
<!-- Thing&#45;&gt;PropertyAffordance -->
<g id="edge5" class="edge"><title>Thing&#45;&gt;PropertyAffordance</title>
<path fill="none" stroke="black" d="M520.338,-602.561C455.253,-565.132 381.018,-522.442 332.934,-494.791"/>
<polygon fill="black" stroke="black" points="334.386,-491.588 323.972,-489.637 330.897,-497.656 334.386,-491.588"/>
<text text-anchor="start" x="393" y="-521.8" font-family="mono" font-size="14.00" fill="#c83500">properties</text>
<text text-anchor="middle" x="312.972" y="-493.437" font-family="Times,serif" font-size="14.00">0..1</text>
</g>
<!-- VersionInfo -->
<g id="node6" class="node"><title>VersionInfo</title>
<polygon fill="#8ccbf2" stroke="none" points="862,-464.5 862,-485.5 1069,-485.5 1069,-464.5 862,-464.5"/>
<polygon fill="none" stroke="#8ccbf2" points="862,-464.5 862,-485.5 1069,-485.5 1069,-464.5 862,-464.5"/>
<text text-anchor="start" x="920" y="-472.3" font-family="mono" font-weight="bold" font-size="14.00" fill="#c83500">VersionInfo</text>
<polygon fill="#ddeeff" stroke="none" points="862,-443.5 862,-464.5 1069,-464.5 1069,-443.5 862,-443.5"/>
<polygon fill="none" stroke="#8ccbf2" points="862,-443.5 862,-464.5 1069,-464.5 1069,-443.5 862,-443.5"/>
<text text-anchor="start" x="865" y="-451.3" font-family="mono" font-size="14.00" fill="#c83500">instance</text>
<text text-anchor="start" x="932" y="-451.3" font-family="Times,serif" font-size="14.00"> : </text>
<text text-anchor="start" x="944" y="-451.3" font-family="mono" font-size="14.00" fill="#c83500">string</text>
<text text-anchor="start" x="994" y="-451.3" font-family="Times,serif" font-size="14.00"> </text>
<text text-anchor="start" x="998" y="-451.3" font-family="Times,serif" font-style="italic" font-size="14.00">(mandatory)</text>
</g>
<!-- Thing&#45;&gt;VersionInfo -->
<g id="edge6" class="edge"><title>Thing&#45;&gt;VersionInfo</title>
<path fill="none" stroke="black" d="M789.618,-586.853C837.218,-553.917 887.428,-519.175 921.868,-495.344"/>
<polygon fill="black" stroke="black" points="924.042,-498.097 930.274,-489.528 920.059,-492.34 924.042,-498.097"/>
<text text-anchor="start" x="882" y="-521.8" font-family="mono" font-size="14.00" fill="#c83500">version</text>
<text text-anchor="middle" x="919.274" y="-493.328" font-family="Times,serif" font-size="14.00">0..1</text>
</g>
<!-- ActionAffordance -->
<g id="node7" class="node"><title>ActionAffordance</title>
<polygon fill="#8ccbf2" stroke="none" points="432,-474.5 432,-495.5 663,-495.5 663,-474.5 432,-474.5"/>
<polygon fill="none" stroke="#8ccbf2" points="432,-474.5 432,-495.5 663,-495.5 663,-474.5 432,-474.5"/>
<text text-anchor="start" x="481" y="-482.3" font-family="mono" font-weight="bold" font-size="14.00" fill="#c83500">ActionAffordance</text>
<polygon fill="#ddeeff" stroke="none" points="432,-453.5 432,-474.5 663,-474.5 663,-453.5 432,-453.5"/>
<polygon fill="none" stroke="#8ccbf2" points="432,-453.5 432,-474.5 663,-474.5 663,-453.5 432,-453.5"/>
<text text-anchor="start" x="435" y="-461.3" font-family="mono" font-size="14.00" fill="#c83500">idempotent</text>
<text text-anchor="start" x="518" y="-461.3" font-family="Times,serif" font-size="14.00"> : </text>
<text text-anchor="start" x="530" y="-461.3" font-family="mono" font-size="14.00" fill="#c83500">boolean</text>
<text text-anchor="start" x="588" y="-461.3" font-family="Times,serif" font-size="14.00"> </text>
<text text-anchor="start" x="592" y="-461.3" font-family="Times,serif" font-style="italic" font-size="14.00">(mandatory)</text>
<polygon fill="#ddeeff" stroke="none" points="432,-432.5 432,-453.5 663,-453.5 663,-432.5 432,-432.5"/>
<polygon fill="none" stroke="#8ccbf2" points="432,-432.5 432,-453.5 663,-453.5 663,-432.5 432,-432.5"/>
<text text-anchor="start" x="435" y="-440.3" font-family="mono" font-size="14.00" fill="#c83500">safe</text>
<text text-anchor="start" x="469" y="-440.3" font-family="Times,serif" font-size="14.00"> : </text>
<text text-anchor="start" x="481" y="-440.3" font-family="mono" font-size="14.00" fill="#c83500">boolean</text>
<text text-anchor="start" x="539" y="-440.3" font-family="Times,serif" font-size="14.00"> </text>
<text text-anchor="start" x="543" y="-440.3" font-family="Times,serif" font-style="italic" font-size="14.00">(mandatory)</text>
</g>
<!-- Thing&#45;&gt;ActionAffordance -->
<g id="edge9" class="edge"><title>Thing&#45;&gt;ActionAffordance</title>
<path fill="none" stroke="black" d="M589.995,-550.892C582.519,-536.045 575.337,-521.78 569.055,-509.304"/>
<polygon fill="black" stroke="black" points="572.061,-507.49 564.437,-500.133 565.808,-510.638 572.061,-507.49"/>
<text text-anchor="start" x="579" y="-521.8" font-family="mono" font-size="14.00" fill="#c83500">actions</text>
<text text-anchor="middle" x="553.437" y="-503.933" font-family="Times,serif" font-size="14.00">0..1</text>
</g>
<!-- EventAffordance -->
<g id="node9" class="node"><title>EventAffordance</title>
<polygon fill="#8ccbf2" stroke="none" points="697,-453.5 697,-474.5 827,-474.5 827,-453.5 697,-453.5"/>
<polygon fill="none" stroke="#8ccbf2" points="697,-453.5 697,-474.5 827,-474.5 827,-453.5 697,-453.5"/>
<text text-anchor="start" x="700" y="-461.3" font-family="mono" font-weight="bold" font-size="14.00" fill="#c83500">EventAffordance</text>
</g>
<!-- Thing&#45;&gt;EventAffordance -->
<g id="edge3" class="edge"><title>Thing&#45;&gt;EventAffordance</title>
<path fill="none" stroke="black" d="M719.403,-550.892C730.619,-528.408 741.167,-507.263 748.961,-491.639"/>
<polygon fill="black" stroke="black" points="752.107,-493.172 753.439,-482.661 745.844,-490.047 752.107,-493.172"/>
<text text-anchor="start" x="734" y="-521.8" font-family="mono" font-size="14.00" fill="#c83500">events</text>
<text text-anchor="middle" x="742.439" y="-486.461" font-family="Times,serif" font-size="14.00">0..1</text>
</g>
<!-- Link -->
<g id="node10" class="node"><title>Link</title>
<polygon fill="#f2f2f2" stroke="none" points="1102,-453.5 1102,-474.5 1142,-474.5 1142,-453.5 1102,-453.5"/>
<polygon fill="none" stroke="#8c8c8c" points="1102,-453.5 1102,-474.5 1142,-474.5 1142,-453.5 1102,-453.5"/>
<text text-anchor="start" x="1105" y="-461.3" font-family="mono" font-weight="bold" font-size="14.00">Link</text>
</g>
<!-- Thing&#45;&gt;Link -->
<g id="edge2" class="edge"><title>Thing&#45;&gt;Link</title>
<path fill="none" stroke="black" d="M789.896,-637.445C877.813,-606.435 992.882,-559.493 1085,-500 1089.7,-496.962 1094.36,-493.298 1098.7,-489.508"/>
<polygon fill="black" stroke="black" points="1101.14,-492.015 1106.11,-482.657 1096.39,-486.874 1101.14,-492.015"/>
<text text-anchor="start" x="1053" y="-521.8" font-family="mono" font-size="14.00" fill="#c83500">links</text>
<text text-anchor="middle" x="1095.11" y="-486.457" font-family="Times,serif" font-size="14.00">0..*</text>
</g>
<!-- SecurityScheme -->
<g id="node11" class="node"><title>SecurityScheme</title>
<polygon fill="#f2f2f2" stroke="none" points="1176,-453.5 1176,-474.5 1298,-474.5 1298,-453.5 1176,-453.5"/>
<polygon fill="none" stroke="#8c8c8c" points="1176,-453.5 1176,-474.5 1298,-474.5 1298,-453.5 1176,-453.5"/>
<text text-anchor="start" x="1179" y="-461.3" font-family="mono" font-weight="bold" font-size="14.00">SecurityScheme</text>
</g>
<!-- Thing&#45;&gt;SecurityScheme -->
<g id="edge8" class="edge"><title>Thing&#45;&gt;SecurityScheme</title>
<path fill="none" stroke="black" d="M789.797,-640.575C878.707,-613.304 997.126,-574.557 1099,-533 1132.36,-519.393 1168.93,-501.353 1196.04,-487.347"/>
<polygon fill="black" stroke="black" points="1197.96,-490.294 1205.22,-482.574 1194.73,-484.084 1197.96,-490.294"/>
<text text-anchor="start" x="1130" y="-521.8" font-family="mono" font-size="14.00" fill="#c83500">securityDefinitions</text>
<text text-anchor="middle" x="1194.22" y="-486.374" font-family="Times,serif" font-size="14.00">1..1</text>
</g>
<!-- InteractionAffordance -->
<g id="node8" class="node"><title>InteractionAffordance</title>
<polygon fill="#8ccbf2" stroke="none" points="196,-352.5 196,-373.5 376,-373.5 376,-352.5 196,-352.5"/>
<polygon fill="none" stroke="#8ccbf2" points="196,-352.5 196,-373.5 376,-373.5 376,-352.5 196,-352.5"/>
<text text-anchor="start" x="199" y="-360.3" font-family="mono" font-weight="bold" font-size="14.00" fill="#c83500">InteractionAffordance</text>
<polygon fill="#ddeeff" stroke="none" points="196,-331.5 196,-352.5 376,-352.5 376,-331.5 196,-331.5"/>
<polygon fill="none" stroke="#8ccbf2" points="196,-331.5 196,-352.5 376,-352.5 376,-331.5 196,-331.5"/>
<text text-anchor="start" x="199" y="-339.3" font-family="mono" font-size="14.00" fill="#c83500">description</text>
<text text-anchor="start" x="290" y="-339.3" font-family="Times,serif" font-size="14.00"> : </text>
<text text-anchor="start" x="302" y="-339.3" font-family="mono" font-size="14.00" fill="#c83500">string</text>
<polygon fill="#ddeeff" stroke="none" points="196,-310.5 196,-331.5 376,-331.5 376,-310.5 196,-310.5"/>
<polygon fill="none" stroke="#8ccbf2" points="196,-310.5 196,-331.5 376,-331.5 376,-310.5 196,-310.5"/>
<text text-anchor="start" x="199" y="-318.3" font-family="mono" font-size="14.00" fill="#c83500">title</text>
<text text-anchor="start" x="241" y="-318.3" font-family="Times,serif" font-size="14.00"> : </text>
<text text-anchor="start" x="253" y="-318.3" font-family="mono" font-size="14.00" fill="#c83500">string</text>
</g>
<!-- PropertyAffordance&#45;&gt;InteractionAffordance -->
<g id="edge21" class="edge"><title>PropertyAffordance&#45;&gt;InteractionAffordance</title>
<path fill="none" stroke="black" d="M282.809,-439.216C283.293,-424.697 283.924,-405.792 284.496,-388.621"/>
<polygon fill="white" stroke="black" points="288.008,-388.32 284.843,-378.209 281.012,-388.087 288.008,-388.32"/>
</g>
<!-- ActionAffordance&#45;&gt;InteractionAffordance -->
<g id="edge19" class="edge"><title>ActionAffordance&#45;&gt;InteractionAffordance</title>
<path fill="none" stroke="black" d="M471.858,-428.952C440.06,-414.332 402.88,-397.238 370.164,-382.196"/>
<polygon fill="white" stroke="black" points="371.611,-379.009 361.063,-378.012 368.687,-385.369 371.611,-379.009"/>
</g>
<!-- DataSchema -->
<g id="node12" class="node"><title>DataSchema</title>
<polygon fill="#f2f2f2" stroke="none" points="547,-167.5 547,-188.5 636,-188.5 636,-167.5 547,-167.5"/>
<polygon fill="none" stroke="#8c8c8c" points="547,-167.5 547,-188.5 636,-188.5 636,-167.5 547,-167.5"/>
<text text-anchor="start" x="550" y="-175.3" font-family="mono" font-weight="bold" font-size="14.00">DataSchema</text>
</g>
<!-- ActionAffordance&#45;&gt;DataSchema -->
<g id="edge10" class="edge"><title>ActionAffordance&#45;&gt;DataSchema</title>
<path fill="none" stroke="black" d="M550.47,-428.899C553.83,-397.12 559.379,-348.765 566,-307 571.525,-272.146 579.634,-232.275 585.105,-206.536"/>
<polygon fill="black" stroke="black" points="588.528,-207.264 587.203,-196.752 581.684,-205.796 588.528,-207.264"/>
<text text-anchor="start" x="566" y="-338.8" font-family="mono" font-size="14.00" fill="#c83500">input</text>
<text text-anchor="middle" x="576.203" y="-200.552" font-family="Times,serif" font-size="14.00">0..1</text>
</g>
<!-- ActionAffordance&#45;&gt;DataSchema -->
<g id="edge11" class="edge"><title>ActionAffordance&#45;&gt;DataSchema</title>
<path fill="none" stroke="black" d="M524.375,-428.795C515.896,-413.81 507.284,-395.685 503,-378 495.572,-347.331 493.613,-337.127 503,-307 515.508,-266.858 545.555,-228.197 567.056,-204.177"/>
<polygon fill="black" stroke="black" points="569.812,-206.351 573.983,-196.612 564.649,-201.624 569.812,-206.351"/>
<text text-anchor="start" x="503" y="-338.8" font-family="mono" font-size="14.00" fill="#c83500">output</text>
<text text-anchor="middle" x="562.983" y="-200.412" font-family="Times,serif" font-size="14.00">0..1</text>
</g>
<!-- InteractionAffordance&#45;&gt;MultiLanguage -->
<g id="edge12" class="edge"><title>InteractionAffordance&#45;&gt;MultiLanguage</title>
<path fill="none" stroke="black" d="M187.754,-335.526C152.984,-328.604 116.273,-315.039 91,-289 69.8997,-267.26 64.8215,-231.685 64.0974,-207.009"/>
<polygon fill="black" stroke="black" points="67.5962,-206.825 64.0241,-196.851 60.5964,-206.876 67.5962,-206.825"/>
<text text-anchor="start" x="91" y="-277.8" font-family="mono" font-size="14.00" fill="#c83500">titles</text>
<text text-anchor="middle" x="75.0241" y="-200.651" font-family="Times,serif" font-size="14.00">0..1</text>
</g>
<!-- InteractionAffordance&#45;&gt;MultiLanguage -->
<g id="edge13" class="edge"><title>InteractionAffordance&#45;&gt;MultiLanguage</title>
<path fill="none" stroke="black" d="M209.133,-306.895C199.057,-301.367 189.087,-295.356 180,-289 144.279,-264.014 108.811,-228.117 86.9116,-204.322"/>
<polygon fill="black" stroke="black" points="89.342,-201.792 80.0243,-196.749 84.1634,-206.502 89.342,-201.792"/>
<text text-anchor="start" x="180" y="-277.8" font-family="mono" font-size="14.00" fill="#c83500">descriptions</text>
<text text-anchor="middle" x="91.0243" y="-200.549" font-family="Times,serif" font-size="14.00">0..1</text>
</g>
<!-- InteractionAffordance&#45;&gt;Form -->
<g id="edge14" class="edge"><title>InteractionAffordance&#45;&gt;Form</title>
<path fill="none" stroke="black" d="M284.498,-306.747C283.981,-294.777 283.376,-280.781 282.761,-266.534"/>
<polygon fill="black" stroke="black" points="286.24,-265.981 282.312,-256.141 279.247,-266.283 286.24,-265.981"/>
<text text-anchor="start" x="284" y="-277.8" font-family="mono" font-size="14.00" fill="#c83500">forms</text>
<text text-anchor="middle" x="271.312" y="-259.941" font-family="Times,serif" font-size="14.00">1..*</text>
</g>
<!-- InteractionAffordance&#45;&gt;DataSchema -->
<g id="edge15" class="edge"><title>InteractionAffordance&#45;&gt;DataSchema</title>
<path fill="none" stroke="black" d="M313.732,-306.689C324.6,-294.922 337.856,-282.601 352,-274 375.424,-259.755 385.237,-265.375 411,-256 457.133,-239.213 508.57,-216.987 544.606,-200.82"/>
<polygon fill="black" stroke="black" points="546.204,-203.939 553.883,-196.639 543.328,-197.557 546.204,-203.939"/>
<text text-anchor="start" x="352" y="-277.8" font-family="mono" font-size="14.00" fill="#c83500">uriVariables</text>
<text text-anchor="middle" x="542.883" y="-200.439" font-family="Times,serif" font-size="14.00">0..1</text>
</g>
<!-- EventAffordance&#45;&gt;InteractionAffordance -->
<g id="edge20" class="edge"><title>EventAffordance&#45;&gt;InteractionAffordance</title>
<path fill="none" stroke="black" d="M724.931,-446.413C710.769,-440.333 694.337,-433.809 679,-429 577.019,-397.026 548.43,-400.733 444,-378 427.832,-374.48 410.735,-370.753 393.993,-367.1"/>
<polygon fill="white" stroke="black" points="394.702,-363.672 384.186,-364.96 393.21,-370.511 394.702,-363.672"/>
</g>
<!-- EventAffordance&#45;&gt;DataSchema -->
<g id="edge16" class="edge"><title>EventAffordance&#45;&gt;DataSchema</title>
<path fill="none" stroke="black" d="M726.681,-446.416C700.122,-431.804 664.855,-408.331 644,-378 607.439,-324.827 596.084,-247.674 592.568,-206.99"/>
<polygon fill="black" stroke="black" points="596.039,-206.469 591.785,-196.765 589.059,-207.003 596.039,-206.469"/>
<text text-anchor="start" x="644" y="-338.8" font-family="mono" font-size="14.00" fill="#c83500">cancellation</text>
<text text-anchor="middle" x="602.785" y="-200.565" font-family="Times,serif" font-size="14.00">0..1</text>
</g>
<!-- EventAffordance&#45;&gt;DataSchema -->
<g id="edge17" class="edge"><title>EventAffordance&#45;&gt;DataSchema</title>
<path fill="none" stroke="black" d="M763.995,-446.297C766.671,-416.107 768.567,-352.479 744,-307 718.7,-260.165 668.496,-223.55 632.492,-201.801"/>
<polygon fill="black" stroke="black" points="634.059,-198.662 623.668,-196.595 630.502,-204.691 634.059,-198.662"/>
<text text-anchor="start" x="764" y="-338.8" font-family="mono" font-size="14.00" fill="#c83500">data</text>
<text text-anchor="middle" x="634.668" y="-200.395" font-family="Times,serif" font-size="14.00">0..1</text>
</g>
<!-- EventAffordance&#45;&gt;DataSchema -->
<g id="edge18" class="edge"><title>EventAffordance&#45;&gt;DataSchema</title>
<path fill="none" stroke="black" d="M774.137,-446.438C793.829,-416.465 828.042,-353.163 802,-307 770.39,-250.967 703.157,-216.778 653.031,-198.099"/>
<polygon fill="black" stroke="black" points="654.161,-194.786 643.567,-194.679 651.782,-201.369 654.161,-194.786"/>
<text text-anchor="start" x="812" y="-338.8" font-family="mono" font-size="14.00" fill="#c83500">subscription</text>
<text text-anchor="middle" x="654.567" y="-183.479" font-family="Times,serif" font-size="14.00">0..1</text>
</g>
</g>
</svg>
