<?xml version="1.0" encoding="UTF-8" standalone="no"?>
<!DOCTYPE svg PUBLIC "-//W3C//DTD SVG 1.1//EN"
 "http://www.w3.org/Graphics/SVG/1.1/DTD/svg11.dtd">
<!-- Generated by graphviz version 2.38.0 (20140413.2041)
 -->
<!-- Title: %3 Pages: 1 -->
<svg width="1260pt" height="840pt"
 viewBox="0.00 0.00 1259.80 840.00" xmlns="http://www.w3.org/2000/svg" xmlns:xlink="http://www.w3.org/1999/xlink">
<g id="graph0" class="graph" transform="scale(1 1) rotate(0) translate(4 836)">
<title>%3</title>
<polygon fill="white" stroke="none" points="-4,4 -4,-836 1255.8,-836 1255.8,4 -4,4"/>
<!-- MultiLanguage -->
<g id="node1" class="node"><title>MultiLanguage</title>
<polygon fill="#8ccbf2" stroke="none" points="113.805,-167.5 113.805,-188.5 227.805,-188.5 227.805,-167.5 113.805,-167.5"/>
<polygon fill="none" stroke="#8ccbf2" points="113.805,-167.5 113.805,-188.5 227.805,-188.5 227.805,-167.5 113.805,-167.5"/>
<text text-anchor="start" x="116.805" y="-175.3" font-family="mono" font-weight="bold" font-size="14.00" fill="#c83500">MultiLanguage</text>
</g>
<!-- InteractionPattern -->
<g id="node2" class="node"><title>InteractionPattern</title>
<polygon fill="#8ccbf2" stroke="none" points="317.805,-394.5 317.805,-415.5 498.805,-415.5 498.805,-394.5 317.805,-394.5"/>
<polygon fill="none" stroke="#8ccbf2" points="317.805,-394.5 317.805,-415.5 498.805,-415.5 498.805,-394.5 317.805,-394.5"/>
<text text-anchor="start" x="333.805" y="-402.3" font-family="mono" font-weight="bold" font-size="14.00" fill="#c83500">InteractionPattern</text>
<polygon fill="#ddeeff" stroke="none" points="317.805,-373.5 317.805,-394.5 498.805,-394.5 498.805,-373.5 317.805,-373.5"/>
<polygon fill="none" stroke="#8ccbf2" points="317.805,-373.5 317.805,-394.5 498.805,-394.5 498.805,-373.5 317.805,-373.5"/>
<text text-anchor="start" x="320.805" y="-381.3" font-family="mono" font-size="14.00" fill="#c83500">title</text>
<text text-anchor="start" x="362.805" y="-381.3" font-family="Times,serif" font-size="14.00"> : </text>
<text text-anchor="start" x="374.805" y="-381.3" font-family="mono" font-size="14.00" fill="#c83500">string</text>
<polygon fill="#ddeeff" stroke="none" points="317.805,-352.5 317.805,-373.5 498.805,-373.5 498.805,-352.5 317.805,-352.5"/>
<polygon fill="none" stroke="#8ccbf2" points="317.805,-352.5 317.805,-373.5 498.805,-373.5 498.805,-352.5 317.805,-352.5"/>
<text text-anchor="start" x="320.805" y="-360.3" font-family="mono" font-size="14.00" fill="#c83500">description</text>
<text text-anchor="start" x="411.805" y="-360.3" font-family="Times,serif" font-size="14.00"> : </text>
<text text-anchor="start" x="423.805" y="-360.3" font-family="mono" font-size="14.00" fill="#c83500">string</text>
<polygon fill="#ddeeff" stroke="none" points="317.805,-331.5 317.805,-352.5 498.805,-352.5 498.805,-331.5 317.805,-331.5"/>
<polygon fill="none" stroke="#8ccbf2" points="317.805,-331.5 317.805,-352.5 498.805,-352.5 498.805,-331.5 317.805,-331.5"/>
<text text-anchor="start" x="320.805" y="-339.3" font-family="mono" font-size="14.00" fill="#c83500">security</text>
<text text-anchor="start" x="387.805" y="-339.3" font-family="Times,serif" font-size="14.00"> : array of </text>
<text text-anchor="start" x="445.805" y="-339.3" font-family="mono" font-size="14.00" fill="#c83500">string</text>
<polygon fill="#ddeeff" stroke="none" points="317.805,-310.5 317.805,-331.5 498.805,-331.5 498.805,-310.5 317.805,-310.5"/>
<polygon fill="none" stroke="#8ccbf2" points="317.805,-310.5 317.805,-331.5 498.805,-331.5 498.805,-310.5 317.805,-310.5"/>
<text text-anchor="start" x="320.805" y="-318.3" font-family="mono" font-size="14.00" fill="#c83500">scopes</text>
<text text-anchor="start" x="370.805" y="-318.3" font-family="Times,serif" font-size="14.00"> : array of </text>
<text text-anchor="start" x="428.805" y="-318.3" font-family="mono" font-size="14.00" fill="#c83500">string</text>
</g>
<!-- InteractionPattern&#45;&gt;MultiLanguage -->
<g id="edge1" class="edge"><title>InteractionPattern&#45;&gt;MultiLanguage</title>
<path fill="none" stroke="black" d="M314.734,-306.805C291.176,-291.344 266.437,-273.867 244.805,-256 225.758,-240.268 206.422,-220.103 192.294,-204.426"/>
<polygon fill="black" stroke="black" points="194.671,-201.832 185.41,-196.685 189.44,-206.483 194.671,-201.832"/>
<text text-anchor="start" x="287.805" y="-277.8" font-family="mono" font-size="14.00" fill="#c83500">descriptions</text>
<text text-anchor="middle" x="174.41" y="-200.485" font-family="Times,serif" font-size="14.00">0..1</text>
</g>
<!-- InteractionPattern&#45;&gt;MultiLanguage -->
<g id="edge4" class="edge"><title>InteractionPattern&#45;&gt;MultiLanguage</title>
<path fill="none" stroke="black" d="M308.892,-341.11C276.336,-330.033 242.052,-313.492 216.805,-289 193.857,-266.738 181.832,-231.273 175.917,-206.766"/>
<polygon fill="black" stroke="black" points="179.263,-205.687 173.677,-196.684 172.429,-207.205 179.263,-205.687"/>
<text text-anchor="start" x="216.805" y="-277.8" font-family="mono" font-size="14.00" fill="#c83500">titles</text>
<text text-anchor="middle" x="162.677" y="-200.484" font-family="Times,serif" font-size="14.00">0..1</text>
</g>
<!-- Form -->
<g id="node4" class="node"><title>Form</title>
<polygon fill="#8ccbf2" stroke="none" points="262.805,-230.5 262.805,-251.5 595.805,-251.5 595.805,-230.5 262.805,-230.5"/>
<polygon fill="none" stroke="#8ccbf2" points="262.805,-230.5 262.805,-251.5 595.805,-251.5 595.805,-230.5 262.805,-230.5"/>
<text text-anchor="start" x="412.305" y="-238.3" font-family="mono" font-weight="bold" font-size="14.00" fill="#c83500">Form</text>
<polygon fill="#ddeeff" stroke="none" points="262.805,-209.5 262.805,-230.5 595.805,-230.5 595.805,-209.5 262.805,-209.5"/>
<polygon fill="none" stroke="#8ccbf2" points="262.805,-209.5 262.805,-230.5 595.805,-230.5 595.805,-209.5 262.805,-209.5"/>
<text text-anchor="start" x="265.805" y="-217.3" font-family="mono" font-size="14.00" fill="#c83500">href</text>
<text text-anchor="start" x="299.805" y="-217.3" font-family="Times,serif" font-size="14.00"> : </text>
<text text-anchor="start" x="311.805" y="-217.3" font-family="mono" font-size="14.00" fill="#c83500">anyURI</text>
<text text-anchor="start" x="361.805" y="-217.3" font-family="Times,serif" font-size="14.00"> </text>
<text text-anchor="start" x="365.805" y="-217.3" font-family="Times,serif" font-style="italic" font-size="14.00">(mandatory)</text>
<polygon fill="#ddeeff" stroke="none" points="262.805,-188.5 262.805,-209.5 595.805,-209.5 595.805,-188.5 262.805,-188.5"/>
<polygon fill="none" stroke="#8ccbf2" points="262.805,-188.5 262.805,-209.5 595.805,-209.5 595.805,-188.5 262.805,-188.5"/>
<text text-anchor="start" x="265.805" y="-196.3" font-family="mono" font-size="14.00" fill="#c83500">scopes</text>
<text text-anchor="start" x="315.805" y="-196.3" font-family="Times,serif" font-size="14.00"> : array of </text>
<text text-anchor="start" x="373.805" y="-196.3" font-family="mono" font-size="14.00" fill="#c83500">string</text>
<polygon fill="#ddeeff" stroke="none" points="262.805,-167.5 262.805,-188.5 595.805,-188.5 595.805,-167.5 262.805,-167.5"/>
<polygon fill="none" stroke="#8ccbf2" points="262.805,-167.5 262.805,-188.5 595.805,-188.5 595.805,-167.5 262.805,-167.5"/>
<text text-anchor="start" x="265.805" y="-175.3" font-family="mono" font-size="14.00" fill="#c83500">op</text>
<text text-anchor="start" x="282.805" y="-175.3" font-family="Times,serif" font-size="14.00"> : </text>
<text text-anchor="start" x="294.805" y="-175.3" font-family="mono" font-size="14.00" fill="#c83500">string</text>
<polygon fill="#ddeeff" stroke="none" points="262.805,-146.5 262.805,-167.5 595.805,-167.5 595.805,-146.5 262.805,-146.5"/>
<polygon fill="none" stroke="#8ccbf2" points="262.805,-146.5 262.805,-167.5 595.805,-167.5 595.805,-146.5 262.805,-146.5"/>
<text text-anchor="start" x="265.805" y="-154.3" font-family="mono" font-size="14.00" fill="#c83500">contentType</text>
<text text-anchor="start" x="356.805" y="-154.3" font-family="Times,serif" font-size="14.00"> : </text>
<text text-anchor="start" x="368.805" y="-154.3" font-family="mono" font-size="14.00" fill="#c83500">string</text>
<text text-anchor="start" x="418.805" y="-154.3" font-family="Times,serif" font-size="14.00"> = application/json </text>
<text text-anchor="start" x="524.805" y="-154.3" font-family="Times,serif" font-style="italic" font-size="14.00">(mandatory)</text>
<polygon fill="#ddeeff" stroke="none" points="262.805,-125.5 262.805,-146.5 595.805,-146.5 595.805,-125.5 262.805,-125.5"/>
<polygon fill="none" stroke="#8ccbf2" points="262.805,-125.5 262.805,-146.5 595.805,-146.5 595.805,-125.5 262.805,-125.5"/>
<text text-anchor="start" x="265.805" y="-133.3" font-family="mono" font-size="14.00" fill="#c83500">subprotocol</text>
<text text-anchor="start" x="356.805" y="-133.3" font-family="Times,serif" font-size="14.00"> : </text>
<text text-anchor="start" x="368.805" y="-133.3" font-family="mono" font-size="14.00" fill="#c83500">string</text>
<polygon fill="#ddeeff" stroke="none" points="262.805,-104.5 262.805,-125.5 595.805,-125.5 595.805,-104.5 262.805,-104.5"/>
<polygon fill="none" stroke="#8ccbf2" points="262.805,-104.5 262.805,-125.5 595.805,-125.5 595.805,-104.5 262.805,-104.5"/>
<text text-anchor="start" x="265.805" y="-112.3" font-family="mono" font-size="14.00" fill="#c83500">security</text>
<text text-anchor="start" x="332.805" y="-112.3" font-family="Times,serif" font-size="14.00"> : array of </text>
<text text-anchor="start" x="390.805" y="-112.3" font-family="mono" font-size="14.00" fill="#c83500">string</text>
</g>
<!-- InteractionPattern&#45;&gt;Form -->
<g id="edge2" class="edge"><title>InteractionPattern&#45;&gt;Form</title>
<path fill="none" stroke="black" d="M406.764,-306.691C407.033,-295.825 407.642,-284.538 408.805,-274 409.087,-271.448 409.406,-268.863 409.758,-266.258"/>
<polygon fill="black" stroke="black" points="413.253,-266.547 411.264,-256.14 406.33,-265.516 413.253,-266.547"/>
<text text-anchor="start" x="408.805" y="-277.8" font-family="mono" font-size="14.00" fill="#c83500">forms</text>
<text text-anchor="middle" x="400.264" y="-259.94" font-family="Times,serif" font-size="14.00">1..*</text>
</g>
<!-- DataSchema -->
<g id="node11" class="node"><title>DataSchema</title>
<polygon fill="#f2f2f2" stroke="none" points="649.805,-167.5 649.805,-188.5 738.805,-188.5 738.805,-167.5 649.805,-167.5"/>
<polygon fill="none" stroke="#8c8c8c" points="649.805,-167.5 649.805,-188.5 738.805,-188.5 738.805,-167.5 649.805,-167.5"/>
<text text-anchor="start" x="652.805" y="-175.3" font-family="mono" font-weight="bold" font-size="14.00">DataSchema</text>
</g>
<!-- InteractionPattern&#45;&gt;DataSchema -->
<g id="edge3" class="edge"><title>InteractionPattern&#45;&gt;DataSchema</title>
<path fill="none" stroke="black" d="M438.684,-306.892C448.314,-294.17 460.078,-282.04 473.805,-274 527.176,-242.739 555.849,-282.357 611.805,-256 636.629,-244.307 658.973,-222.303 674.044,-204.884"/>
<polygon fill="black" stroke="black" points="677.103,-206.682 680.837,-196.767 671.735,-202.189 677.103,-206.682"/>
<text text-anchor="start" x="473.805" y="-277.8" font-family="mono" font-size="14.00" fill="#c83500">uriVariables</text>
<text text-anchor="middle" x="691.837" y="-200.567" font-family="Times,serif" font-size="14.00">0..1</text>
</g>
<!-- Link -->
<g id="node3" class="node"><title>Link</title>
<polygon fill="#8ccbf2" stroke="none" points="47.8048,-558.5 47.8048,-579.5 221.805,-579.5 221.805,-558.5 47.8048,-558.5"/>
<polygon fill="none" stroke="#8ccbf2" points="47.8048,-558.5 47.8048,-579.5 221.805,-579.5 221.805,-558.5 47.8048,-558.5"/>
<text text-anchor="start" x="117.805" y="-566.3" font-family="mono" font-weight="bold" font-size="14.00" fill="#c83500">Link</text>
<polygon fill="#ddeeff" stroke="none" points="47.8048,-537.5 47.8048,-558.5 221.805,-558.5 221.805,-537.5 47.8048,-537.5"/>
<polygon fill="none" stroke="#8ccbf2" points="47.8048,-537.5 47.8048,-558.5 221.805,-558.5 221.805,-537.5 47.8048,-537.5"/>
<text text-anchor="start" x="50.8048" y="-545.3" font-family="mono" font-size="14.00" fill="#c83500">type</text>
<text text-anchor="start" x="84.8048" y="-545.3" font-family="Times,serif" font-size="14.00"> : </text>
<text text-anchor="start" x="96.8048" y="-545.3" font-family="mono" font-size="14.00" fill="#c83500">string</text>
<polygon fill="#ddeeff" stroke="none" points="47.8048,-516.5 47.8048,-537.5 221.805,-537.5 221.805,-516.5 47.8048,-516.5"/>
<polygon fill="none" stroke="#8ccbf2" points="47.8048,-516.5 47.8048,-537.5 221.805,-537.5 221.805,-516.5 47.8048,-516.5"/>
<text text-anchor="start" x="50.8048" y="-524.3" font-family="mono" font-size="14.00" fill="#c83500">rel</text>
<text text-anchor="start" x="75.8048" y="-524.3" font-family="Times,serif" font-size="14.00"> : </text>
<text text-anchor="start" x="87.8048" y="-524.3" font-family="mono" font-size="14.00" fill="#c83500">string</text>
<polygon fill="#ddeeff" stroke="none" points="47.8048,-495.5 47.8048,-516.5 221.805,-516.5 221.805,-495.5 47.8048,-495.5"/>
<polygon fill="none" stroke="#8ccbf2" points="47.8048,-495.5 47.8048,-516.5 221.805,-516.5 221.805,-495.5 47.8048,-495.5"/>
<text text-anchor="start" x="50.8048" y="-503.3" font-family="mono" font-size="14.00" fill="#c83500">href</text>
<text text-anchor="start" x="84.8048" y="-503.3" font-family="Times,serif" font-size="14.00"> : </text>
<text text-anchor="start" x="96.8048" y="-503.3" font-family="mono" font-size="14.00" fill="#c83500">anyURI</text>
<text text-anchor="start" x="146.805" y="-503.3" font-family="Times,serif" font-size="14.00"> </text>
<text text-anchor="start" x="150.805" y="-503.3" font-family="Times,serif" font-style="italic" font-size="14.00">(mandatory)</text>
<polygon fill="#ddeeff" stroke="none" points="47.8048,-474.5 47.8048,-495.5 221.805,-495.5 221.805,-474.5 47.8048,-474.5"/>
<polygon fill="none" stroke="#8ccbf2" points="47.8048,-474.5 47.8048,-495.5 221.805,-495.5 221.805,-474.5 47.8048,-474.5"/>
<text text-anchor="start" x="50.8048" y="-482.3" font-family="mono" font-size="14.00" fill="#c83500">anchor</text>
<text text-anchor="start" x="100.805" y="-482.3" font-family="Times,serif" font-size="14.00"> : </text>
<text text-anchor="start" x="112.805" y="-482.3" font-family="mono" font-size="14.00" fill="#c83500">anyURI</text>
</g>
<!-- ExpectedResponse -->
<g id="node7" class="node"><title>ExpectedResponse</title>
<polygon fill="#8ccbf2" stroke="none" points="349.805,-25 349.805,-46 508.805,-46 508.805,-25 349.805,-25"/>
<polygon fill="none" stroke="#8ccbf2" points="349.805,-25 349.805,-46 508.805,-46 508.805,-25 349.805,-25"/>
<text text-anchor="start" x="362.805" y="-32.8" font-family="mono" font-weight="bold" font-size="14.00" fill="#c83500">ExpectedResponse</text>
<polygon fill="#ddeeff" stroke="none" points="349.805,-4 349.805,-25 508.805,-25 508.805,-4 349.805,-4"/>
<polygon fill="none" stroke="#8ccbf2" points="349.805,-4 349.805,-25 508.805,-25 508.805,-4 349.805,-4"/>
<text text-anchor="start" x="352.805" y="-11.8" font-family="mono" font-size="14.00" fill="#c83500">contentType</text>
<text text-anchor="start" x="443.805" y="-11.8" font-family="Times,serif" font-size="14.00"> : </text>
<text text-anchor="start" x="455.805" y="-11.8" font-family="mono" font-size="14.00" fill="#c83500">string</text>
</g>
<!-- Form&#45;&gt;ExpectedResponse -->
<g id="edge5" class="edge"><title>Form&#45;&gt;ExpectedResponse</title>
<path fill="none" stroke="black" d="M428.805,-100.862C428.805,-86.5577 428.805,-72.2953 428.805,-60.116"/>
<polygon fill="black" stroke="black" points="432.305,-60.0004 428.805,-50.0004 425.305,-60.0004 432.305,-60.0004"/>
<text text-anchor="start" x="428.805" y="-71.8" font-family="mono" font-size="14.00" fill="#c83500">response</text>
<text text-anchor="middle" x="417.805" y="-53.8004" font-family="Times,serif" font-size="14.00">0..1</text>
</g>
<!-- Thing -->
<g id="node5" class="node"><title>Thing</title>
<polygon fill="#8ccbf2" stroke="none" points="501.805,-806.5 501.805,-827.5 754.805,-827.5 754.805,-806.5 501.805,-806.5"/>
<polygon fill="none" stroke="#8ccbf2" points="501.805,-806.5 501.805,-827.5 754.805,-827.5 754.805,-806.5 501.805,-806.5"/>
<text text-anchor="start" x="607.305" y="-814.3" font-family="mono" font-weight="bold" font-size="14.00" fill="#c83500">Thing</text>
<polygon fill="#ddeeff" stroke="none" points="501.805,-785.5 501.805,-806.5 754.805,-806.5 754.805,-785.5 501.805,-785.5"/>
<polygon fill="none" stroke="#8ccbf2" points="501.805,-785.5 501.805,-806.5 754.805,-806.5 754.805,-785.5 501.805,-785.5"/>
<text text-anchor="start" x="504.805" y="-793.3" font-family="mono" font-size="14.00" fill="#c83500">id</text>
<text text-anchor="start" x="521.805" y="-793.3" font-family="Times,serif" font-size="14.00"> : </text>
<text text-anchor="start" x="533.805" y="-793.3" font-family="mono" font-size="14.00" fill="#c83500">anyURI</text>
<text text-anchor="start" x="583.805" y="-793.3" font-family="Times,serif" font-size="14.00"> </text>
<text text-anchor="start" x="587.805" y="-793.3" font-family="Times,serif" font-style="italic" font-size="14.00">(mandatory)</text>
<polygon fill="#ddeeff" stroke="none" points="501.805,-764.5 501.805,-785.5 754.805,-785.5 754.805,-764.5 501.805,-764.5"/>
<polygon fill="none" stroke="#8ccbf2" points="501.805,-764.5 501.805,-785.5 754.805,-785.5 754.805,-764.5 501.805,-764.5"/>
<text text-anchor="start" x="504.805" y="-772.3" font-family="mono" font-size="14.00" fill="#c83500">base</text>
<text text-anchor="start" x="538.805" y="-772.3" font-family="Times,serif" font-size="14.00"> : </text>
<text text-anchor="start" x="550.805" y="-772.3" font-family="mono" font-size="14.00" fill="#c83500">anyURI</text>
<polygon fill="#ddeeff" stroke="none" points="501.805,-743.5 501.805,-764.5 754.805,-764.5 754.805,-743.5 501.805,-743.5"/>
<polygon fill="none" stroke="#8ccbf2" points="501.805,-743.5 501.805,-764.5 754.805,-764.5 754.805,-743.5 501.805,-743.5"/>
<text text-anchor="start" x="504.805" y="-751.3" font-family="mono" font-size="14.00" fill="#c83500">description</text>
<text text-anchor="start" x="595.805" y="-751.3" font-family="Times,serif" font-size="14.00"> : </text>
<text text-anchor="start" x="607.805" y="-751.3" font-family="mono" font-size="14.00" fill="#c83500">string</text>
<polygon fill="#ddeeff" stroke="none" points="501.805,-722.5 501.805,-743.5 754.805,-743.5 754.805,-722.5 501.805,-722.5"/>
<polygon fill="none" stroke="#8ccbf2" points="501.805,-722.5 501.805,-743.5 754.805,-743.5 754.805,-722.5 501.805,-722.5"/>
<text text-anchor="start" x="504.805" y="-730.3" font-family="mono" font-size="14.00" fill="#c83500">created</text>
<text text-anchor="start" x="562.805" y="-730.3" font-family="Times,serif" font-size="14.00"> : </text>
<text text-anchor="start" x="574.805" y="-730.3" font-family="mono" font-size="14.00" fill="#c83500">string</text>
<polygon fill="#ddeeff" stroke="none" points="501.805,-701.5 501.805,-722.5 754.805,-722.5 754.805,-701.5 501.805,-701.5"/>
<polygon fill="none" stroke="#8ccbf2" points="501.805,-701.5 501.805,-722.5 754.805,-722.5 754.805,-701.5 501.805,-701.5"/>
<text text-anchor="start" x="504.805" y="-709.3" font-family="mono" font-size="14.00" fill="#c83500">name</text>
<text text-anchor="start" x="538.805" y="-709.3" font-family="Times,serif" font-size="14.00"> : </text>
<text text-anchor="start" x="550.805" y="-709.3" font-family="mono" font-size="14.00" fill="#c83500">string</text>
<text text-anchor="start" x="600.805" y="-709.3" font-family="Times,serif" font-size="14.00"> </text>
<text text-anchor="start" x="604.805" y="-709.3" font-family="Times,serif" font-style="italic" font-size="14.00">(mandatory)</text>
<polygon fill="#ddeeff" stroke="none" points="501.805,-680.5 501.805,-701.5 754.805,-701.5 754.805,-680.5 501.805,-680.5"/>
<polygon fill="none" stroke="#8ccbf2" points="501.805,-680.5 501.805,-701.5 754.805,-701.5 754.805,-680.5 501.805,-680.5"/>
<text text-anchor="start" x="504.805" y="-688.3" font-family="mono" font-size="14.00" fill="#c83500">support</text>
<text text-anchor="start" x="562.805" y="-688.3" font-family="Times,serif" font-size="14.00"> : </text>
<text text-anchor="start" x="574.805" y="-688.3" font-family="mono" font-size="14.00" fill="#c83500">string</text>
<polygon fill="#ddeeff" stroke="none" points="501.805,-659.5 501.805,-680.5 754.805,-680.5 754.805,-659.5 501.805,-659.5"/>
<polygon fill="none" stroke="#8ccbf2" points="501.805,-659.5 501.805,-680.5 754.805,-680.5 754.805,-659.5 501.805,-659.5"/>
<text text-anchor="start" x="504.805" y="-667.3" font-family="mono" font-size="14.00" fill="#c83500">security</text>
<text text-anchor="start" x="571.805" y="-667.3" font-family="Times,serif" font-size="14.00"> : array of </text>
<text text-anchor="start" x="629.805" y="-667.3" font-family="mono" font-size="14.00" fill="#c83500">string</text>
<text text-anchor="start" x="679.805" y="-667.3" font-family="Times,serif" font-size="14.00"> </text>
<text text-anchor="start" x="683.805" y="-667.3" font-family="Times,serif" font-style="italic" font-size="14.00">(mandatory)</text>
<polygon fill="#ddeeff" stroke="none" points="501.805,-638.5 501.805,-659.5 754.805,-659.5 754.805,-638.5 501.805,-638.5"/>
<polygon fill="none" stroke="#8ccbf2" points="501.805,-638.5 501.805,-659.5 754.805,-659.5 754.805,-638.5 501.805,-638.5"/>
<text text-anchor="start" x="504.805" y="-646.3" font-family="mono" font-size="14.00" fill="#c83500">lastModified</text>
<text text-anchor="start" x="604.805" y="-646.3" font-family="Times,serif" font-size="14.00"> : </text>
<text text-anchor="start" x="616.805" y="-646.3" font-family="mono" font-size="14.00" fill="#c83500">string</text>
</g>
<!-- Thing&#45;&gt;MultiLanguage -->
<g id="edge7" class="edge"><title>Thing&#45;&gt;MultiLanguage</title>
<path fill="none" stroke="black" d="M493.01,-718.096C334.885,-698.095 87.0864,-655.996 30.8048,-584 -64.1918,-462.479 86.8899,-272.103 147.463,-204.412"/>
<polygon fill="black" stroke="black" points="150.259,-206.539 154.378,-196.778 145.071,-201.839 150.259,-206.539"/>
<text text-anchor="start" x="7.80481" y="-441.8" font-family="mono" font-size="14.00" fill="#c83500">descriptions</text>
<text text-anchor="middle" x="143.378" y="-200.578" font-family="Times,serif" font-size="14.00">0..1</text>
</g>
<!-- Thing&#45;&gt;Link -->
<g id="edge9" class="edge"><title>Thing&#45;&gt;Link</title>
<path fill="none" stroke="black" d="M492.871,-685.72C419.735,-659.232 328.015,-624.176 239.203,-584.081"/>
<polygon fill="black" stroke="black" points="240.616,-580.879 230.064,-579.933 237.723,-587.253 240.616,-580.879"/>
<text text-anchor="start" x="312.805" y="-605.8" font-family="mono" font-size="14.00" fill="#c83500">links</text>
<text text-anchor="middle" x="241.064" y="-583.733" font-family="Times,serif" font-size="14.00">0..*</text>
</g>
<!-- Property -->
<g id="node6" class="node"><title>Property</title>
<polygon fill="#8ccbf2" stroke="none" points="256.805,-527.5 256.805,-548.5 457.805,-548.5 457.805,-527.5 256.805,-527.5"/>
<polygon fill="none" stroke="#8ccbf2" points="256.805,-527.5 256.805,-548.5 457.805,-548.5 457.805,-527.5 256.805,-527.5"/>
<text text-anchor="start" x="323.805" y="-535.3" font-family="mono" font-weight="bold" font-size="14.00" fill="#c83500">Property</text>
<polygon fill="#ddeeff" stroke="none" points="256.805,-506.5 256.805,-527.5 457.805,-527.5 457.805,-506.5 256.805,-506.5"/>
<polygon fill="none" stroke="#8ccbf2" points="256.805,-506.5 256.805,-527.5 457.805,-527.5 457.805,-506.5 256.805,-506.5"/>
<text text-anchor="start" x="259.805" y="-514.3" font-family="mono" font-size="14.00" fill="#c83500">observable</text>
<text text-anchor="start" x="342.805" y="-514.3" font-family="Times,serif" font-size="14.00"> : </text>
<text text-anchor="start" x="354.805" y="-514.3" font-family="mono" font-size="14.00" fill="#c83500">boolean</text>
<text text-anchor="start" x="412.805" y="-514.3" font-family="Times,serif" font-size="14.00"> = false</text>
</g>
<!-- Thing&#45;&gt;Property -->
<g id="edge6" class="edge"><title>Thing&#45;&gt;Property</title>
<path fill="none" stroke="black" d="M498.258,-634.981C461.383,-607.223 423.92,-579.022 396.819,-558.621"/>
<polygon fill="black" stroke="black" points="398.847,-555.767 388.753,-552.55 394.637,-561.36 398.847,-555.767"/>
<text text-anchor="start" x="468.805" y="-605.8" font-family="mono" font-size="14.00" fill="#c83500">properties</text>
<text text-anchor="middle" x="377.753" y="-556.35" font-family="Times,serif" font-size="14.00">0..1</text>
</g>
<!-- Action -->
<g id="node8" class="node"><title>Action</title>
<polygon fill="#8ccbf2" stroke="none" points="491.805,-537.5 491.805,-558.5 764.805,-558.5 764.805,-537.5 491.805,-537.5"/>
<polygon fill="none" stroke="#8ccbf2" points="491.805,-537.5 491.805,-558.5 764.805,-558.5 764.805,-537.5 491.805,-537.5"/>
<text text-anchor="start" x="603.305" y="-545.3" font-family="mono" font-weight="bold" font-size="14.00" fill="#c83500">Action</text>
<polygon fill="#ddeeff" stroke="none" points="491.805,-516.5 491.805,-537.5 764.805,-537.5 764.805,-516.5 491.805,-516.5"/>
<polygon fill="none" stroke="#8ccbf2" points="491.805,-516.5 491.805,-537.5 764.805,-537.5 764.805,-516.5 491.805,-516.5"/>
<text text-anchor="start" x="494.805" y="-524.3" font-family="mono" font-size="14.00" fill="#c83500">safe</text>
<text text-anchor="start" x="528.805" y="-524.3" font-family="Times,serif" font-size="14.00"> : </text>
<text text-anchor="start" x="540.805" y="-524.3" font-family="mono" font-size="14.00" fill="#c83500">boolean</text>
<text text-anchor="start" x="598.805" y="-524.3" font-family="Times,serif" font-size="14.00"> = false </text>
<text text-anchor="start" x="644.805" y="-524.3" font-family="Times,serif" font-style="italic" font-size="14.00">(mandatory)</text>
<polygon fill="#ddeeff" stroke="none" points="491.805,-495.5 491.805,-516.5 764.805,-516.5 764.805,-495.5 491.805,-495.5"/>
<polygon fill="none" stroke="#8ccbf2" points="491.805,-495.5 491.805,-516.5 764.805,-516.5 764.805,-495.5 491.805,-495.5"/>
<text text-anchor="start" x="494.805" y="-503.3" font-family="mono" font-size="14.00" fill="#c83500">idempotent</text>
<text text-anchor="start" x="577.805" y="-503.3" font-family="Times,serif" font-size="14.00"> : </text>
<text text-anchor="start" x="589.805" y="-503.3" font-family="mono" font-size="14.00" fill="#c83500">boolean</text>
<text text-anchor="start" x="647.805" y="-503.3" font-family="Times,serif" font-size="14.00"> = false </text>
<text text-anchor="start" x="693.805" y="-503.3" font-family="Times,serif" font-style="italic" font-size="14.00">(mandatory)</text>
</g>
<!-- Thing&#45;&gt;Action -->
<g id="edge11" class="edge"><title>Thing&#45;&gt;Action</title>
<path fill="none" stroke="black" d="M627.805,-634.981C627.805,-613.301 627.805,-591.35 627.805,-573.057"/>
<polygon fill="black" stroke="black" points="631.305,-573.017 627.805,-563.017 624.305,-573.017 631.305,-573.017"/>
<text text-anchor="start" x="627.805" y="-605.8" font-family="mono" font-size="14.00" fill="#c83500">actions</text>
<text text-anchor="middle" x="616.805" y="-566.817" font-family="Times,serif" font-size="14.00">0..1</text>
</g>
<!-- Event -->
<g id="node9" class="node"><title>Event</title>
<polygon fill="#8ccbf2" stroke="none" points="797.805,-516.5 797.805,-537.5 845.805,-537.5 845.805,-516.5 797.805,-516.5"/>
<polygon fill="none" stroke="#8ccbf2" points="797.805,-516.5 797.805,-537.5 845.805,-537.5 845.805,-516.5 797.805,-516.5"/>
<text text-anchor="start" x="800.805" y="-524.3" font-family="mono" font-weight="bold" font-size="14.00" fill="#c83500">Event</text>
</g>
<!-- Thing&#45;&gt;Event -->
<g id="edge8" class="edge"><title>Thing&#45;&gt;Event</title>
<path fill="none" stroke="black" d="M733.018,-634.87C749.48,-618.332 765.945,-601.001 780.805,-584 789.014,-574.608 797.328,-563.675 804.303,-554.007"/>
<polygon fill="black" stroke="black" points="807.36,-555.747 810.292,-545.566 801.651,-551.697 807.36,-555.747"/>
<text text-anchor="start" x="761.805" y="-605.8" font-family="mono" font-size="14.00" fill="#c83500">events</text>
<text text-anchor="middle" x="799.292" y="-549.366" font-family="Times,serif" font-size="14.00">0..1</text>
</g>
<!-- Versioning -->
<g id="node10" class="node"><title>Versioning</title>
<polygon fill="#8ccbf2" stroke="none" points="880.805,-527.5 880.805,-548.5 1087.8,-548.5 1087.8,-527.5 880.805,-527.5"/>
<polygon fill="none" stroke="#8ccbf2" points="880.805,-527.5 880.805,-548.5 1087.8,-548.5 1087.8,-527.5 880.805,-527.5"/>
<text text-anchor="start" x="942.805" y="-535.3" font-family="mono" font-weight="bold" font-size="14.00" fill="#c83500">Versioning</text>
<polygon fill="#ddeeff" stroke="none" points="880.805,-506.5 880.805,-527.5 1087.8,-527.5 1087.8,-506.5 880.805,-506.5"/>
<polygon fill="none" stroke="#8ccbf2" points="880.805,-506.5 880.805,-527.5 1087.8,-527.5 1087.8,-506.5 880.805,-506.5"/>
<text text-anchor="start" x="883.805" y="-514.3" font-family="mono" font-size="14.00" fill="#c83500">instance</text>
<text text-anchor="start" x="950.805" y="-514.3" font-family="Times,serif" font-size="14.00"> : </text>
<text text-anchor="start" x="962.805" y="-514.3" font-family="mono" font-size="14.00" fill="#c83500">string</text>
<text text-anchor="start" x="1012.8" y="-514.3" font-family="Times,serif" font-size="14.00"> </text>
<text text-anchor="start" x="1016.8" y="-514.3" font-family="Times,serif" font-style="italic" font-size="14.00">(mandatory)</text>
</g>
<!-- Thing&#45;&gt;Versioning -->
<g id="edge10" class="edge"><title>Thing&#45;&gt;Versioning</title>
<path fill="none" stroke="black" d="M762.393,-655.376C821.893,-621.281 888.285,-583.236 932.707,-557.781"/>
<polygon fill="black" stroke="black" points="934.63,-560.713 941.566,-552.704 931.15,-554.639 934.63,-560.713"/>
<text text-anchor="start" x="848.805" y="-605.8" font-family="mono" font-size="14.00" fill="#c83500">version</text>
<text text-anchor="middle" x="930.566" y="-556.504" font-family="Times,serif" font-size="14.00">0..1</text>
</g>
<!-- SecurityScheme -->
<g id="node12" class="node"><title>SecurityScheme</title>
<polygon fill="#f2f2f2" stroke="none" points="1121.8,-516.5 1121.8,-537.5 1243.8,-537.5 1243.8,-516.5 1121.8,-516.5"/>
<polygon fill="none" stroke="#8c8c8c" points="1121.8,-516.5 1121.8,-537.5 1243.8,-537.5 1243.8,-516.5 1121.8,-516.5"/>
<text text-anchor="start" x="1124.8" y="-524.3" font-family="mono" font-weight="bold" font-size="14.00">SecurityScheme</text>
</g>
<!-- Thing&#45;&gt;SecurityScheme -->
<g id="edge12" class="edge"><title>Thing&#45;&gt;SecurityScheme</title>
<path fill="none" stroke="black" d="M762.337,-702.418C860.071,-677.76 993.905,-638.096 1103.8,-584 1121.53,-575.275 1139.68,-562.819 1154.11,-551.917"/>
<polygon fill="black" stroke="black" points="1156.36,-554.599 1162.14,-545.718 1152.08,-549.057 1156.36,-554.599"/>
<text text-anchor="start" x="1054.8" y="-605.8" font-family="mono" font-size="14.00" fill="#c83500">securityDefinitions</text>
<text text-anchor="middle" x="1151.14" y="-549.518" font-family="Times,serif" font-size="14.00">0..1</text>
</g>
<!-- Property&#45;&gt;InteractionPattern -->
<g id="edge19" class="edge"><title>Property&#45;&gt;InteractionPattern</title>
<path fill="none" stroke="black" d="M364.44,-502.247C370.477,-483.071 379.198,-455.369 387.239,-429.828"/>
<polygon fill="white" stroke="black" points="390.616,-430.757 390.28,-420.167 383.939,-428.655 390.616,-430.757"/>
</g>
<!-- Action&#45;&gt;InteractionPattern -->
<g id="edge18" class="edge"><title>Action&#45;&gt;InteractionPattern</title>
<path fill="none" stroke="black" d="M573.166,-491.832C554.978,-479.894 534.782,-466.202 516.805,-453 505.391,-444.618 493.545,-435.483 482.049,-426.368"/>
<polygon fill="white" stroke="black" points="484.156,-423.572 474.157,-420.071 479.79,-429.043 484.156,-423.572"/>
</g>
<!-- Action&#45;&gt;DataSchema -->
<g id="edge13" class="edge"><title>Action&#45;&gt;DataSchema</title>
<path fill="none" stroke="black" d="M614.815,-491.781C600.333,-447.753 581.452,-369.989 601.805,-307 614.906,-266.453 646.239,-227.946 668.697,-204.069"/>
<polygon fill="black" stroke="black" points="671.233,-206.48 675.642,-196.846 666.188,-201.628 671.233,-206.48"/>
<text text-anchor="start" x="601.805" y="-359.8" font-family="mono" font-size="14.00" fill="#c83500">output</text>
<text text-anchor="middle" x="664.642" y="-200.646" font-family="Times,serif" font-size="14.00">0..1</text>
</g>
<!-- Action&#45;&gt;DataSchema -->
<g id="edge14" class="edge"><title>Action&#45;&gt;DataSchema</title>
<path fill="none" stroke="black" d="M636.126,-491.576C640.956,-470.831 647.013,-443.975 651.805,-420 667.192,-343.013 682.3,-251.527 689.478,-206.828"/>
<polygon fill="black" stroke="black" points="692.965,-207.187 691.087,-196.76 686.053,-206.082 692.965,-207.187"/>
<text text-anchor="start" x="672.805" y="-359.8" font-family="mono" font-size="14.00" fill="#c83500">input</text>
<text text-anchor="middle" x="702.087" y="-200.56" font-family="Times,serif" font-size="14.00">0..1</text>
</g>
<!-- Event&#45;&gt;InteractionPattern -->
<g id="edge20" class="edge"><title>Event&#45;&gt;InteractionPattern</title>
<path fill="none" stroke="black" d="M813.394,-509.385C806.372,-496.879 795.199,-480.507 780.805,-471 739.832,-443.937 612.923,-433.822 565.805,-420 549.597,-415.245 532.608,-409.79 516.027,-404.197"/>
<polygon fill="white" stroke="black" points="516.915,-400.803 506.321,-400.893 514.659,-407.429 516.915,-400.803"/>
</g>
<!-- Event&#45;&gt;DataSchema -->
<g id="edge15" class="edge"><title>Event&#45;&gt;DataSchema</title>
<path fill="none" stroke="black" d="M832.961,-509.108C840.675,-497.7 851.542,-482.772 862.805,-471 887.708,-444.969 910.293,-452.514 925.805,-420 947.43,-374.672 951.373,-350.227 925.805,-307 889.44,-245.52 811.72,-211.696 756.262,-194.608"/>
<polygon fill="black" stroke="black" points="757.11,-191.209 746.527,-191.709 755.112,-197.918 757.11,-191.209"/>
<text text-anchor="start" x="943.805" y="-359.8" font-family="mono" font-size="14.00" fill="#c83500">subscription</text>
<text text-anchor="middle" x="757.527" y="-195.509" font-family="Times,serif" font-size="14.00">0..1</text>
</g>
<!-- Event&#45;&gt;DataSchema -->
<g id="edge16" class="edge"><title>Event&#45;&gt;DataSchema</title>
<path fill="none" stroke="black" d="M811.42,-509.285C799.277,-488.63 779.145,-452.686 765.805,-420 735.083,-344.723 710.903,-251.45 700.044,-206.38"/>
<polygon fill="black" stroke="black" points="703.414,-205.421 697.693,-196.503 696.604,-207.042 703.414,-205.421"/>
<text text-anchor="start" x="765.805" y="-359.8" font-family="mono" font-size="14.00" fill="#c83500">data</text>
<text text-anchor="middle" x="686.693" y="-200.303" font-family="Times,serif" font-size="14.00">0..1</text>
</g>
<!-- Event&#45;&gt;DataSchema -->
<g id="edge17" class="edge"><title>Event&#45;&gt;DataSchema</title>
<path fill="none" stroke="black" d="M821.379,-509.472C820.052,-464.51 815.122,-343.56 799.805,-307 782.366,-265.374 746.53,-226.913 721.371,-203.353"/>
<polygon fill="black" stroke="black" points="723.673,-200.714 713.939,-196.532 718.94,-205.872 723.673,-200.714"/>
<text text-anchor="start" x="816.805" y="-359.8" font-family="mono" font-size="14.00" fill="#c83500">cancellation</text>
<text text-anchor="middle" x="724.939" y="-200.332" font-family="Times,serif" font-size="14.00">0..1</text>
</g>
</g>
</svg>
