<?xml version="1.0" encoding="UTF-8" standalone="no"?>
<!DOCTYPE svg PUBLIC "-//W3C//DTD SVG 1.1//EN"
 "http://www.w3.org/Graphics/SVG/1.1/DTD/svg11.dtd">
<!-- Generated by graphviz version 9.0.0 (20230911.1827)
 -->
<!-- Pages: 1 -->
<svg width="1352pt" height="644pt"
 viewBox="0.00 0.00 1352.34 644.00" xmlns="http://www.w3.org/2000/svg" xmlns:xlink="http://www.w3.org/1999/xlink">
<g id="graph0" class="graph" transform="scale(1 1) rotate(0) translate(4 640)">
<polygon fill="white" stroke="none" points="-4,4 -4,-640 1348.34,-640 1348.34,4 -4,4"/>
<!-- ActionAffordance -->
<g id="node1" class="node">
<title>ActionAffordance</title>
<polygon fill="#8ccbf2" stroke="none" points="484.59,-283.5 484.59,-304.5 626.34,-304.5 626.34,-283.5 484.59,-283.5"/>
<polygon fill="none" stroke="#8ccbf2" points="484.59,-283.5 484.59,-304.5 626.34,-304.5 626.34,-283.5 484.59,-283.5"/>
<text text-anchor="start" x="498.84" y="-289.2" font-family="mono" font-weight="bold" font-size="14.00" fill="#c83500">ActionAffordance</text>
<polygon fill="#ddeeff" stroke="none" points="484.59,-261 484.59,-283.5 626.34,-283.5 626.34,-261 484.59,-261"/>
<polygon fill="none" stroke="#8ccbf2" points="484.59,-261 484.59,-283.5 626.34,-283.5 626.34,-261 484.59,-261"/>
<text text-anchor="start" x="487.59" y="-268.2" font-family="mono" font-size="14.00" fill="#c83500">safe</text>
<text text-anchor="start" x="513.09" y="-268.2" font-family="Times,serif" font-size="14.00"> : </text>
<text text-anchor="start" x="524.34" y="-268.2" font-family="mono" font-size="14.00" fill="#c83500">boolean</text>
<polygon fill="#ddeeff" stroke="none" points="484.59,-238.5 484.59,-261 626.34,-261 626.34,-238.5 484.59,-238.5"/>
<polygon fill="none" stroke="#8ccbf2" points="484.59,-238.5 484.59,-261 626.34,-261 626.34,-238.5 484.59,-238.5"/>
<text text-anchor="start" x="487.59" y="-245.7" font-family="mono" font-size="14.00" fill="#c83500">idempotent</text>
<text text-anchor="start" x="555.09" y="-245.7" font-family="Times,serif" font-size="14.00"> : </text>
<text text-anchor="start" x="566.34" y="-245.7" font-family="mono" font-size="14.00" fill="#c83500">boolean</text>
<polygon fill="#ddeeff" stroke="none" points="484.59,-216 484.59,-238.5 626.34,-238.5 626.34,-216 484.59,-216"/>
<polygon fill="none" stroke="#8ccbf2" points="484.59,-216 484.59,-238.5 626.34,-238.5 626.34,-216 484.59,-216"/>
<text text-anchor="start" x="487.59" y="-223.2" font-family="mono" font-size="14.00" fill="#c83500">synchronous</text>
<text text-anchor="start" x="564.09" y="-223.2" font-family="Times,serif" font-size="14.00"> : </text>
<text text-anchor="start" x="575.34" y="-223.2" font-family="mono" font-size="14.00" fill="#c83500">boolean</text>
</g>
<!-- InteractionAffordance -->
<g id="node3" class="node">
<title>InteractionAffordance</title>
<polygon fill="#8ccbf2" stroke="none" points="663.34,-136 663.34,-157 809.59,-157 809.59,-136 663.34,-136"/>
<polygon fill="none" stroke="#8ccbf2" points="663.34,-136 663.34,-157 809.59,-157 809.59,-136 663.34,-136"/>
<text text-anchor="start" x="666.34" y="-141.7" font-family="mono" font-weight="bold" font-size="14.00" fill="#c83500">InteractionAffordance</text>
<polygon fill="#ddeeff" stroke="none" points="663.34,-113.5 663.34,-136 809.59,-136 809.59,-113.5 663.34,-113.5"/>
<polygon fill="none" stroke="#8ccbf2" points="663.34,-113.5 663.34,-136 809.59,-136 809.59,-113.5 663.34,-113.5"/>
<text text-anchor="start" x="666.34" y="-120.7" font-family="mono" font-size="14.00" fill="#c83500">title</text>
<text text-anchor="start" x="687.34" y="-120.7" font-family="Times,serif" font-size="14.00"> : </text>
<text text-anchor="start" x="698.59" y="-120.7" font-family="mono" font-size="14.00" fill="#c83500">langString</text>
<polygon fill="#ddeeff" stroke="none" points="663.34,-91 663.34,-113.5 809.59,-113.5 809.59,-91 663.34,-91"/>
<polygon fill="none" stroke="#8ccbf2" points="663.34,-91 663.34,-113.5 809.59,-113.5 809.59,-91 663.34,-91"/>
<text text-anchor="start" x="666.34" y="-98.2" font-family="mono" font-size="14.00" fill="#c83500">description</text>
<text text-anchor="start" x="731.59" y="-98.2" font-family="Times,serif" font-size="14.00"> : </text>
<text text-anchor="start" x="742.84" y="-98.2" font-family="mono" font-size="14.00" fill="#c83500">langString</text>
</g>
<!-- ActionAffordance&#45;&gt;InteractionAffordance -->
<g id="edge22" class="edge">
<title>ActionAffordance&#45;&gt;InteractionAffordance</title>
<path fill="none" stroke="black" d="M619.03,-212.11C638.55,-197.63 659.91,-181.78 679,-167.63"/>
<polygon fill="white" stroke="black" points="681.01,-170.49 686.95,-161.73 676.83,-164.87 681.01,-170.49"/>
</g>
<!-- DataSchema -->
<g id="node10" class="node">
<title>DataSchema</title>
<polygon fill="#f2f2f2" stroke="none" points="345.59,-7.5 345.59,-28.5 433.34,-28.5 433.34,-7.5 345.59,-7.5"/>
<polygon fill="none" stroke="#8c8c8c" points="345.59,-7.5 345.59,-28.5 433.34,-28.5 433.34,-7.5 345.59,-7.5"/>
<text text-anchor="start" x="348.59" y="-13.2" font-family="mono" font-weight="bold" font-size="14.00">DataSchema</text>
</g>
<!-- ActionAffordance&#45;&gt;DataSchema -->
<g id="edge5" class="edge">
<title>ActionAffordance&#45;&gt;DataSchema</title>
<path fill="none" stroke="black" d="M572.07,-212.26C581.95,-176.88 589.99,-127.69 575.47,-87 569.1,-69.15 564.61,-63.92 548.47,-54 519.62,-36.28 482.95,-27.48 452.1,-23.13"/>
<polygon fill="black" stroke="black" points="452.89,-19.7 442.53,-21.91 452.01,-26.65 452.89,-19.7"/>
<text text-anchor="start" x="583.47" y="-118.2" font-family="mono" font-size="14.00" fill="#c83500">input</text>
<text text-anchor="middle" x="451.53" y="-24.92" font-family="Times,serif" font-size="14.00">0..1</text>
</g>
<!-- ActionAffordance&#45;&gt;DataSchema -->
<g id="edge6" class="edge">
<title>ActionAffordance&#45;&gt;DataSchema</title>
<path fill="none" stroke="black" d="M544.52,-212.11C530.68,-153.33 508.01,-59.82 502.47,-54 489.2,-40.09 470.53,-31.67 452.18,-26.59"/>
<polygon fill="black" stroke="black" points="453.17,-23.23 442.62,-24.26 451.51,-30.03 453.17,-23.23"/>
<text text-anchor="start" x="532.47" y="-118.2" font-family="mono" font-size="14.00" fill="#c83500">output</text>
<text text-anchor="middle" x="451.65" y="-10.6" font-family="Times,serif" font-size="14.00">0..1</text>
</g>
<!-- EventAffordance -->
<g id="node2" class="node">
<title>EventAffordance</title>
<polygon fill="#8ccbf2" stroke="none" points="241.47,-249.75 241.47,-270.75 355.47,-270.75 355.47,-249.75 241.47,-249.75"/>
<polygon fill="none" stroke="#8ccbf2" points="241.47,-249.75 241.47,-270.75 355.47,-270.75 355.47,-249.75 241.47,-249.75"/>
<text text-anchor="start" x="244.47" y="-255.45" font-family="mono" font-weight="bold" font-size="14.00" fill="#c83500">EventAffordance</text>
</g>
<!-- EventAffordance&#45;&gt;InteractionAffordance -->
<g id="edge23" class="edge">
<title>EventAffordance&#45;&gt;InteractionAffordance</title>
<path fill="none" stroke="black" d="M358.55,-242.33C449.51,-216.68 614.46,-169.97 641.47,-161 642.62,-160.62 643.78,-160.23 644.94,-159.84"/>
<polygon fill="white" stroke="black" points="645.78,-163.25 654.09,-156.68 643.5,-156.63 645.78,-163.25"/>
</g>
<!-- EventAffordance&#45;&gt;DataSchema -->
<g id="edge7" class="edge">
<title>EventAffordance&#45;&gt;DataSchema</title>
<path fill="none" stroke="black" d="M233.64,-244.03C190.52,-230.17 137.08,-204.94 110.47,-161 93.43,-132.87 92.18,-114.33 110.47,-87 134.3,-51.38 251.96,-32.94 326.67,-24.66"/>
<polygon fill="black" stroke="black" points="326.74,-28.17 336.31,-23.63 325.99,-21.21 326.74,-28.17"/>
<text text-anchor="start" x="110.47" y="-118.2" font-family="mono" font-size="14.00" fill="#c83500">subscription</text>
<text text-anchor="middle" x="327.32" y="-26.67" font-family="Times,serif" font-size="14.00">0..1</text>
</g>
<!-- EventAffordance&#45;&gt;DataSchema -->
<g id="edge8" class="edge">
<title>EventAffordance&#45;&gt;DataSchema</title>
<path fill="none" stroke="black" d="M278.43,-242.5C258.8,-224.65 230.12,-194.4 218.22,-161 207.17,-130.02 205.35,-117.27 218.22,-87 235.72,-45.83 285.21,-29.35 326.51,-22.87"/>
<polygon fill="black" stroke="black" points="326.98,-26.33 336.41,-21.5 326.02,-19.4 326.98,-26.33"/>
<text text-anchor="start" x="218.47" y="-118.2" font-family="mono" font-size="14.00" fill="#c83500">data</text>
<text text-anchor="middle" x="327.41" y="-7.99" font-family="Times,serif" font-size="14.00">0..1</text>
</g>
<!-- EventAffordance&#45;&gt;DataSchema -->
<g id="edge9" class="edge">
<title>EventAffordance&#45;&gt;DataSchema</title>
<path fill="none" stroke="black" d="M290.62,-242.31C276.84,-209.88 252.32,-137.74 280.47,-87 291.71,-66.73 311.8,-51.71 331.69,-41.02"/>
<polygon fill="black" stroke="black" points="333,-44.27 340.36,-36.65 329.85,-38.02 333,-44.27"/>
<text text-anchor="start" x="280.47" y="-118.2" font-family="mono" font-size="14.00" fill="#c83500">dataResponse</text>
<text text-anchor="middle" x="352.21" y="-39.16" font-family="Times,serif" font-size="14.00">0..1</text>
</g>
<!-- EventAffordance&#45;&gt;DataSchema -->
<g id="edge10" class="edge">
<title>EventAffordance&#45;&gt;DataSchema</title>
<path fill="none" stroke="black" d="M313.85,-242.59C329.97,-224.11 354.69,-192.71 367.47,-161 382.56,-123.54 387.36,-76.68 388.85,-47.28"/>
<polygon fill="black" stroke="black" points="392.35,-47.47 389.25,-37.34 385.35,-47.2 392.35,-47.47"/>
<text text-anchor="start" x="385.47" y="-118.2" font-family="mono" font-size="14.00" fill="#c83500">cancellation</text>
<text text-anchor="middle" x="378.81" y="-39.03" font-family="Times,serif" font-size="14.00">0..1</text>
</g>
<!-- MultiLanguage -->
<g id="node4" class="node">
<title>MultiLanguage</title>
<polygon fill="#8ccbf2" stroke="none" points="984.47,-7.5 984.47,-28.5 1086.47,-28.5 1086.47,-7.5 984.47,-7.5"/>
<polygon fill="none" stroke="#8ccbf2" points="984.47,-7.5 984.47,-28.5 1086.47,-28.5 1086.47,-7.5 984.47,-7.5"/>
<text text-anchor="start" x="987.47" y="-13.2" font-family="mono" font-weight="bold" font-size="14.00" fill="#c83500">MultiLanguage</text>
</g>
<!-- InteractionAffordance&#45;&gt;MultiLanguage -->
<g id="edge12" class="edge">
<title>InteractionAffordance&#45;&gt;MultiLanguage</title>
<path fill="none" stroke="black" d="M805.74,-87.13C830.24,-75.43 858.28,-63.11 884.72,-54 910.61,-45.08 939.78,-37.71 965.51,-32.08"/>
<polygon fill="black" stroke="black" points="966.16,-35.52 975.21,-30.01 964.7,-28.67 966.16,-35.52"/>
<text text-anchor="start" x="885.47" y="-55.7" font-family="mono" font-size="14.00" fill="#c83500">titles</text>
<text text-anchor="middle" x="966.19" y="-32.89" font-family="Times,serif" font-size="14.00">0..*</text>
</g>
<!-- InteractionAffordance&#45;&gt;MultiLanguage -->
<g id="edge14" class="edge">
<title>InteractionAffordance&#45;&gt;MultiLanguage</title>
<path fill="none" stroke="black" d="M817.57,-99.75C847.57,-90.72 881.75,-79.93 912.47,-69 936.82,-60.33 963.44,-49.66 985.67,-40.41"/>
<polygon fill="black" stroke="black" points="986.94,-43.67 994.81,-36.58 984.23,-37.22 986.94,-43.67"/>
<text text-anchor="start" x="950.47" y="-55.7" font-family="mono" font-size="14.00" fill="#c83500">descriptions</text>
<text text-anchor="middle" x="1006.7" y="-39.2" font-family="Times,serif" font-size="14.00">0..*</text>
</g>
<!-- Form -->
<g id="node8" class="node">
<title>Form</title>
<polygon fill="#f2f2f2" stroke="none" points="819.22,-7.5 819.22,-28.5 859.72,-28.5 859.72,-7.5 819.22,-7.5"/>
<polygon fill="none" stroke="#8c8c8c" points="819.22,-7.5 819.22,-28.5 859.72,-28.5 859.72,-7.5 819.22,-7.5"/>
<text text-anchor="start" x="822.22" y="-13.2" font-family="mono" font-weight="bold" font-size="14.00">Form</text>
</g>
<!-- InteractionAffordance&#45;&gt;Form -->
<g id="edge1" class="edge">
<title>InteractionAffordance&#45;&gt;Form</title>
<path fill="none" stroke="black" d="M752.21,-87.08C758.44,-75.57 766.42,-63.39 775.97,-54 783.27,-46.82 792.34,-40.66 801.33,-35.61"/>
<polygon fill="black" stroke="black" points="802.75,-38.81 809.99,-31.08 799.51,-32.61 802.75,-38.81"/>
<text text-anchor="start" x="776.47" y="-55.7" font-family="mono" font-size="14.00" fill="#c83500">forms</text>
<text text-anchor="middle" x="800.83" y="-33.58" font-family="Times,serif" font-size="14.00">1..*</text>
</g>
<!-- InteractionAffordance&#45;&gt;DataSchema -->
<g id="edge18" class="edge">
<title>InteractionAffordance&#45;&gt;DataSchema</title>
<path fill="none" stroke="black" d="M686.71,-87.02C667.49,-74.72 644.77,-62.06 622.47,-54 567.2,-34.03 500.59,-25.45 452.77,-21.77"/>
<polygon fill="black" stroke="black" points="453.08,-18.28 442.85,-21.06 452.58,-25.26 453.08,-18.28"/>
<text text-anchor="start" x="656.47" y="-55.7" font-family="mono" font-size="14.00" fill="#c83500">uriVariables</text>
<text text-anchor="middle" x="451.84" y="-7.65" font-family="Times,serif" font-size="14.00">0..*</text>
</g>
<!-- PropertyAffordance -->
<g id="node5" class="node">
<title>PropertyAffordance</title>
<polygon fill="#8ccbf2" stroke="none" points="660.09,-261 660.09,-282 792.84,-282 792.84,-261 660.09,-261"/>
<polygon fill="none" stroke="#8ccbf2" points="660.09,-261 660.09,-282 792.84,-282 792.84,-261 660.09,-261"/>
<text text-anchor="start" x="663.09" y="-266.7" font-family="mono" font-weight="bold" font-size="14.00" fill="#c83500">PropertyAffordance</text>
<polygon fill="#ddeeff" stroke="none" points="660.09,-238.5 660.09,-261 792.84,-261 792.84,-238.5 660.09,-238.5"/>
<polygon fill="none" stroke="#8ccbf2" points="660.09,-238.5 660.09,-261 792.84,-261 792.84,-238.5 660.09,-238.5"/>
<text text-anchor="start" x="663.09" y="-245.7" font-family="mono" font-size="14.00" fill="#c83500">observable</text>
<text text-anchor="start" x="729.09" y="-245.7" font-family="Times,serif" font-size="14.00"> : </text>
<text text-anchor="start" x="740.34" y="-245.7" font-family="mono" font-size="14.00" fill="#c83500">boolean</text>
</g>
<!-- PropertyAffordance&#45;&gt;InteractionAffordance -->
<g id="edge24" class="edge">
<title>PropertyAffordance&#45;&gt;InteractionAffordance</title>
<path fill="none" stroke="black" d="M728.3,-234.63C729.6,-217.19 731.38,-193.25 732.95,-172.2"/>
<polygon fill="white" stroke="black" points="736.43,-172.59 733.68,-162.36 729.45,-172.07 736.43,-172.59"/>
</g>
<!-- Thing -->
<g id="node6" class="node">
<title>Thing</title>
<polygon fill="#8ccbf2" stroke="none" points="791.72,-611 791.72,-632 1033.22,-632 1033.22,-611 791.72,-611"/>
<polygon fill="none" stroke="#8ccbf2" points="791.72,-611 791.72,-632 1033.22,-632 1033.22,-611 791.72,-611"/>
<text text-anchor="start" x="894.09" y="-616.7" font-family="mono" font-weight="bold" font-size="14.00" fill="#c83500">Thing</text>
<polygon fill="#ddeeff" stroke="none" points="791.72,-588.5 791.72,-611 1033.22,-611 1033.22,-588.5 791.72,-588.5"/>
<polygon fill="none" stroke="#8ccbf2" points="791.72,-588.5 791.72,-611 1033.22,-611 1033.22,-588.5 791.72,-588.5"/>
<text text-anchor="start" x="794.72" y="-595.7" font-family="mono" font-size="14.00" fill="#c83500">@context</text>
<text text-anchor="start" x="852.47" y="-595.7" font-family="Times,serif" font-size="14.00"> : </text>
<text text-anchor="start" x="863.72" y="-595.7" font-family="mono" font-style="italic" font-size="14.00" fill="#c83500">anyURI</text>
<text text-anchor="start" x="908.72" y="-595.7" font-family="Times,serif" font-style="italic" font-size="14.00"> or Array</text>
<text text-anchor="start" x="958.97" y="-595.7" font-family="Times,serif" font-size="14.00"> </text>
<text text-anchor="start" x="962.72" y="-595.7" font-family="Times,serif" font-style="italic" font-size="14.00">(mandatory)</text>
<polygon fill="#ddeeff" stroke="none" points="791.72,-566 791.72,-588.5 1033.22,-588.5 1033.22,-566 791.72,-566"/>
<polygon fill="none" stroke="#8ccbf2" points="791.72,-566 791.72,-588.5 1033.22,-588.5 1033.22,-566 791.72,-566"/>
<text text-anchor="start" x="794.72" y="-573.2" font-family="mono" font-size="14.00" fill="#c83500">@type</text>
<text text-anchor="start" x="834.47" y="-573.2" font-family="Times,serif" font-size="14.00"> : </text>
<text text-anchor="start" x="845.72" y="-573.2" font-family="Times,serif" font-style="italic" font-size="14.00">(Array of) </text>
<text text-anchor="start" x="904.22" y="-573.2" font-family="mono" font-size="14.00" fill="#c83500">string</text>
<polygon fill="#ddeeff" stroke="none" points="791.72,-543.5 791.72,-566 1033.22,-566 1033.22,-543.5 791.72,-543.5"/>
<polygon fill="none" stroke="#8ccbf2" points="791.72,-543.5 791.72,-566 1033.22,-566 1033.22,-543.5 791.72,-543.5"/>
<text text-anchor="start" x="794.72" y="-550.7" font-family="mono" font-size="14.00" fill="#c83500">id</text>
<text text-anchor="start" x="805.22" y="-550.7" font-family="Times,serif" font-size="14.00"> : </text>
<text text-anchor="start" x="816.47" y="-550.7" font-family="mono" font-size="14.00" fill="#c83500">anyURI</text>
<text text-anchor="start" x="861.47" y="-550.7" font-family="Times,serif" font-size="14.00"> </text>
<text text-anchor="start" x="865.22" y="-550.7" font-family="Times,serif" font-style="italic" font-size="14.00">(mandatory)</text>
<polygon fill="#ddeeff" stroke="none" points="791.72,-521 791.72,-543.5 1033.22,-543.5 1033.22,-521 791.72,-521"/>
<polygon fill="none" stroke="#8ccbf2" points="791.72,-521 791.72,-543.5 1033.22,-543.5 1033.22,-521 791.72,-521"/>
<text text-anchor="start" x="794.72" y="-528.2" font-family="mono" font-size="14.00" fill="#c83500">title</text>
<text text-anchor="start" x="815.72" y="-528.2" font-family="Times,serif" font-size="14.00"> : </text>
<text text-anchor="start" x="826.97" y="-528.2" font-family="mono" font-size="14.00" fill="#c83500">langString</text>
<text text-anchor="start" x="887.72" y="-528.2" font-family="Times,serif" font-size="14.00"> </text>
<text text-anchor="start" x="891.47" y="-528.2" font-family="Times,serif" font-style="italic" font-size="14.00">(mandatory)</text>
<polygon fill="#ddeeff" stroke="none" points="791.72,-498.5 791.72,-521 1033.22,-521 1033.22,-498.5 791.72,-498.5"/>
<polygon fill="none" stroke="#8ccbf2" points="791.72,-498.5 791.72,-521 1033.22,-521 1033.22,-498.5 791.72,-498.5"/>
<text text-anchor="start" x="794.72" y="-505.7" font-family="mono" font-size="14.00" fill="#c83500">security</text>
<text text-anchor="start" x="841.22" y="-505.7" font-family="Times,serif" font-size="14.00"> : (Array of) </text>
<text text-anchor="start" x="911.72" y="-505.7" font-family="mono" font-size="14.00" fill="#c83500">string</text>
<text text-anchor="start" x="944.72" y="-505.7" font-family="Times,serif" font-size="14.00"> </text>
<text text-anchor="start" x="948.47" y="-505.7" font-family="Times,serif" font-style="italic" font-size="14.00">(mandatory)</text>
<polygon fill="#ddeeff" stroke="none" points="791.72,-476 791.72,-498.5 1033.22,-498.5 1033.22,-476 791.72,-476"/>
<polygon fill="none" stroke="#8ccbf2" points="791.72,-476 791.72,-498.5 1033.22,-498.5 1033.22,-476 791.72,-476"/>
<text text-anchor="start" x="794.72" y="-483.2" font-family="mono" font-size="14.00" fill="#c83500">description</text>
<text text-anchor="start" x="859.97" y="-483.2" font-family="Times,serif" font-size="14.00"> : </text>
<text text-anchor="start" x="871.22" y="-483.2" font-family="mono" font-size="14.00" fill="#c83500">langString</text>
<polygon fill="#ddeeff" stroke="none" points="791.72,-453.5 791.72,-476 1033.22,-476 1033.22,-453.5 791.72,-453.5"/>
<polygon fill="none" stroke="#8ccbf2" points="791.72,-453.5 791.72,-476 1033.22,-476 1033.22,-453.5 791.72,-453.5"/>
<text text-anchor="start" x="794.72" y="-460.7" font-family="mono" font-size="14.00" fill="#c83500">profile</text>
<text text-anchor="start" x="831.47" y="-460.7" font-family="Times,serif" font-size="14.00"> : (Array of) </text>
<text text-anchor="start" x="901.97" y="-460.7" font-family="mono" font-size="14.00" fill="#c83500">anyURI</text>
<polygon fill="#ddeeff" stroke="none" points="791.72,-431 791.72,-453.5 1033.22,-453.5 1033.22,-431 791.72,-431"/>
<polygon fill="none" stroke="#8ccbf2" points="791.72,-431 791.72,-453.5 1033.22,-453.5 1033.22,-431 791.72,-431"/>
<text text-anchor="start" x="794.72" y="-438.2" font-family="mono" font-size="14.00" fill="#c83500">created</text>
<text text-anchor="start" x="839.72" y="-438.2" font-family="Times,serif" font-size="14.00"> : </text>
<text text-anchor="start" x="850.97" y="-438.2" font-family="mono" font-size="14.00" fill="#c83500">dateTime</text>
<polygon fill="#ddeeff" stroke="none" points="791.72,-408.5 791.72,-431 1033.22,-431 1033.22,-408.5 791.72,-408.5"/>
<polygon fill="none" stroke="#8ccbf2" points="791.72,-408.5 791.72,-431 1033.22,-431 1033.22,-408.5 791.72,-408.5"/>
<text text-anchor="start" x="794.72" y="-415.7" font-family="mono" font-size="14.00" fill="#c83500">modified</text>
<text text-anchor="start" x="846.47" y="-415.7" font-family="Times,serif" font-size="14.00"> : </text>
<text text-anchor="start" x="857.72" y="-415.7" font-family="mono" font-size="14.00" fill="#c83500">dateTime</text>
<polygon fill="#ddeeff" stroke="none" points="791.72,-386 791.72,-408.5 1033.22,-408.5 1033.22,-386 791.72,-386"/>
<polygon fill="none" stroke="#8ccbf2" points="791.72,-386 791.72,-408.5 1033.22,-408.5 1033.22,-386 791.72,-386"/>
<text text-anchor="start" x="794.72" y="-393.2" font-family="mono" font-size="14.00" fill="#c83500">support</text>
<text text-anchor="start" x="839.72" y="-393.2" font-family="Times,serif" font-size="14.00"> : </text>
<text text-anchor="start" x="850.97" y="-393.2" font-family="mono" font-size="14.00" fill="#c83500">anyURI</text>
<polygon fill="#ddeeff" stroke="none" points="791.72,-363.5 791.72,-386 1033.22,-386 1033.22,-363.5 791.72,-363.5"/>
<polygon fill="none" stroke="#8ccbf2" points="791.72,-363.5 791.72,-386 1033.22,-386 1033.22,-363.5 791.72,-363.5"/>
<text text-anchor="start" x="794.72" y="-370.7" font-family="mono" font-size="14.00" fill="#c83500">base</text>
<text text-anchor="start" x="823.97" y="-370.7" font-family="Times,serif" font-size="14.00"> : </text>
<text text-anchor="start" x="835.22" y="-370.7" font-family="mono" font-size="14.00" fill="#c83500">anyURI</text>
</g>
<!-- Thing&#45;&gt;ActionAffordance -->
<g id="edge20" class="edge">
<title>Thing&#45;&gt;ActionAffordance</title>
<path fill="none" stroke="black" d="M783.83,-411.9C734.6,-379.42 679.86,-343.3 636.31,-314.58"/>
<polygon fill="black" stroke="black" points="638.46,-311.8 628.18,-309.22 634.6,-317.64 638.46,-311.8"/>
<text text-anchor="start" x="671.47" y="-328.2" font-family="mono" font-size="14.00" fill="#c83500">actions</text>
<text text-anchor="middle" x="616.42" y="-311.58" font-family="Times,serif" font-size="14.00">0..*</text>
</g>
<!-- Thing&#45;&gt;EventAffordance -->
<g id="edge21" class="edge">
<title>Thing&#45;&gt;EventAffordance</title>
<path fill="none" stroke="black" d="M783.72,-473.27C675.41,-450.06 518.81,-408.19 394.72,-341.5 367.3,-326.76 340.46,-303.43 322.12,-285.71"/>
<polygon fill="black" stroke="black" points="324.98,-283.61 315.4,-279.08 320.06,-288.6 324.98,-283.61"/>
<text text-anchor="start" x="395.47" y="-328.2" font-family="mono" font-size="14.00" fill="#c83500">events</text>
<text text-anchor="middle" x="303.82" y="-281.22" font-family="Times,serif" font-size="14.00">0..*</text>
</g>
<!-- Thing&#45;&gt;MultiLanguage -->
<g id="edge13" class="edge">
<title>Thing&#45;&gt;MultiLanguage</title>
<path fill="none" stroke="black" d="M1041.04,-414.42C1075.07,-385.47 1107.33,-349.72 1125.47,-308.5 1166.68,-214.81 1093.35,-96.41 1055.71,-44.9"/>
<polygon fill="black" stroke="black" points="1058.61,-42.93 1049.82,-37.01 1053,-47.12 1058.61,-42.93"/>
<text text-anchor="start" x="1130.47" y="-180.7" font-family="mono" font-size="14.00" fill="#c83500">titles</text>
<text text-anchor="middle" x="1038.42" y="-39" font-family="Times,serif" font-size="14.00">0..*</text>
</g>
<!-- Thing&#45;&gt;MultiLanguage -->
<g id="edge15" class="edge">
<title>Thing&#45;&gt;MultiLanguage</title>
<path fill="none" stroke="black" d="M1041.17,-432.22C1085.53,-401.84 1128.57,-360.65 1146.47,-308.5 1178.72,-214.54 1175.73,-166.73 1116.47,-87 1103.74,-69.88 1085.88,-54.29 1070.17,-42.37"/>
<polygon fill="black" stroke="black" points="1072.57,-39.79 1062.44,-36.69 1068.42,-45.43 1072.57,-39.79"/>
<text text-anchor="start" x="1166.47" y="-180.7" font-family="mono" font-size="14.00" fill="#c83500">descriptions</text>
<text text-anchor="middle" x="1071.72" y="-38.99" font-family="Times,serif" font-size="14.00">0..*</text>
</g>
<!-- Thing&#45;&gt;PropertyAffordance -->
<g id="edge19" class="edge">
<title>Thing&#45;&gt;PropertyAffordance</title>
<path fill="none" stroke="black" d="M804.27,-359.76C785.08,-335.46 766.77,-312.28 752.75,-294.52"/>
<polygon fill="black" stroke="black" points="755.7,-292.62 746.76,-286.94 750.21,-296.96 755.7,-292.62"/>
<text text-anchor="start" x="787.47" y="-328.2" font-family="mono" font-size="14.00" fill="#c83500">properties</text>
<text text-anchor="middle" x="735.32" y="-288.95" font-family="Times,serif" font-size="14.00">0..*</text>
</g>
<!-- VersionInfo -->
<g id="node7" class="node">
<title>VersionInfo</title>
<polygon fill="#8ccbf2" stroke="none" points="826.59,-272.25 826.59,-293.25 998.34,-293.25 998.34,-272.25 826.59,-272.25"/>
<polygon fill="none" stroke="#8ccbf2" points="826.59,-272.25 826.59,-293.25 998.34,-293.25 998.34,-272.25 826.59,-272.25"/>
<text text-anchor="start" x="875.34" y="-277.95" font-family="mono" font-weight="bold" font-size="14.00" fill="#c83500">VersionInfo</text>
<polygon fill="#ddeeff" stroke="none" points="826.59,-249.75 826.59,-272.25 998.34,-272.25 998.34,-249.75 826.59,-249.75"/>
<polygon fill="none" stroke="#8ccbf2" points="826.59,-249.75 826.59,-272.25 998.34,-272.25 998.34,-249.75 826.59,-249.75"/>
<text text-anchor="start" x="829.59" y="-256.95" font-family="mono" font-size="14.00" fill="#c83500">instance</text>
<text text-anchor="start" x="879.84" y="-256.95" font-family="Times,serif" font-size="14.00"> : </text>
<text text-anchor="start" x="891.09" y="-256.95" font-family="mono" font-size="14.00" fill="#c83500">string</text>
<text text-anchor="start" x="924.09" y="-256.95" font-family="Times,serif" font-size="14.00"> </text>
<text text-anchor="start" x="927.84" y="-256.95" font-family="Times,serif" font-style="italic" font-size="14.00">(mandatory)</text>
<polygon fill="#ddeeff" stroke="none" points="826.59,-227.25 826.59,-249.75 998.34,-249.75 998.34,-227.25 826.59,-227.25"/>
<polygon fill="none" stroke="#8ccbf2" points="826.59,-227.25 826.59,-249.75 998.34,-249.75 998.34,-227.25 826.59,-227.25"/>
<text text-anchor="start" x="829.59" y="-234.45" font-family="mono" font-size="14.00" fill="#c83500">model</text>
<text text-anchor="start" x="867.09" y="-234.45" font-family="Times,serif" font-size="14.00"> : </text>
<text text-anchor="start" x="878.34" y="-234.45" font-family="mono" font-size="14.00" fill="#c83500">string</text>
</g>
<!-- Thing&#45;&gt;VersionInfo -->
<g id="edge4" class="edge">
<title>Thing&#45;&gt;VersionInfo</title>
<path fill="none" stroke="black" d="M912.47,-359.76C912.47,-341.21 912.47,-323.32 912.47,-307.99"/>
<polygon fill="black" stroke="black" points="915.97,-308.32 912.47,-298.32 908.97,-308.32 915.97,-308.32"/>
<text text-anchor="start" x="912.47" y="-328.2" font-family="mono" font-size="14.00" fill="#c83500">version</text>
<text text-anchor="middle" x="901.97" y="-300" font-family="Times,serif" font-size="14.00">0..1</text>
</g>
<!-- Thing&#45;&gt;Form -->
<g id="edge3" class="edge">
<title>Thing&#45;&gt;Form</title>
<path fill="none" stroke="black" d="M997.07,-359.56C1004.49,-342.83 1010.91,-325.6 1015.47,-308.5 1044.63,-199.19 1092.47,-141.26 1020.47,-54 1011.49,-43.12 929.06,-30.63 878.59,-23.9"/>
<polygon fill="black" stroke="black" points="879.3,-20.47 868.93,-22.64 878.39,-27.41 879.3,-20.47"/>
<text text-anchor="start" x="1055.47" y="-180.7" font-family="mono" font-size="14.00" fill="#c83500">forms</text>
<text text-anchor="middle" x="877.93" y="-25.64" font-family="Times,serif" font-size="14.00">0..*</text>
</g>
<!-- Link -->
<g id="node9" class="node">
<title>Link</title>
<polygon fill="#f2f2f2" stroke="none" points="1072.59,-249.75 1072.59,-270.75 1106.34,-270.75 1106.34,-249.75 1072.59,-249.75"/>
<polygon fill="none" stroke="#8c8c8c" points="1072.59,-249.75 1072.59,-270.75 1106.34,-270.75 1106.34,-249.75 1072.59,-249.75"/>
<text text-anchor="start" x="1075.59" y="-255.45" font-family="mono" font-weight="bold" font-size="14.00">Link</text>
</g>
<!-- Thing&#45;&gt;Link -->
<g id="edge2" class="edge">
<title>Thing&#45;&gt;Link</title>
<path fill="none" stroke="black" d="M1035.52,-359.76C1040.01,-353.68 1044.34,-347.58 1048.47,-341.5 1059.81,-324.77 1070.15,-304.49 1077.6,-288.5"/>
<polygon fill="black" stroke="black" points="1080.7,-290.14 1081.66,-279.59 1074.33,-287.25 1080.7,-290.14"/>
<text text-anchor="start" x="1058.47" y="-328.2" font-family="mono" font-size="14.00" fill="#c83500">links</text>
<text text-anchor="middle" x="1071.78" y="-281.42" font-family="Times,serif" font-size="14.00">0..*</text>
</g>
<!-- Thing&#45;&gt;DataSchema -->
<g id="edge16" class="edge">
<title>Thing&#45;&gt;DataSchema</title>
<path fill="none" stroke="black" d="M783.79,-474.35C554.68,-431.35 92.38,-329.36 11.47,-194 -30.58,-123.66 56.81,-87.79 131.47,-54 165.22,-38.73 261.51,-28.66 326.43,-23.4"/>
<polygon fill="black" stroke="black" points="326.56,-26.9 336.25,-22.62 326.01,-19.92 326.56,-26.9"/>
<text text-anchor="start" x="11.47" y="-180.7" font-family="mono" font-size="14.00" fill="#c83500">schemaDefinitions</text>
<text text-anchor="middle" x="327.26" y="-9.2" font-family="Times,serif" font-size="14.00">0..*</text>
</g>
<!-- Thing&#45;&gt;DataSchema -->
<g id="edge17" class="edge">
<title>Thing&#45;&gt;DataSchema</title>
<path fill="none" stroke="black" d="M783.75,-479.77C679.79,-458.65 539.37,-411.76 467.47,-308.5 438.36,-266.69 463.8,-244.92 462.22,-194 462.03,-188.06 462.85,-92.45 460.47,-87 452.85,-69.55 438.39,-54.39 424.49,-42.85"/>
<polygon fill="black" stroke="black" points="426.74,-40.16 416.71,-36.73 422.41,-45.66 426.74,-40.16"/>
<text text-anchor="start" x="462.47" y="-180.7" font-family="mono" font-size="14.00" fill="#c83500">uriVariables</text>
<text text-anchor="middle" x="405.02" y="-38.99" font-family="Times,serif" font-size="14.00">0..*</text>
</g>
<!-- SecurityScheme -->
<g id="node11" class="node">
<title>SecurityScheme</title>
<polygon fill="#f2f2f2" stroke="none" points="1224.59,-249.75 1224.59,-270.75 1336.34,-270.75 1336.34,-249.75 1224.59,-249.75"/>
<polygon fill="none" stroke="#8c8c8c" points="1224.59,-249.75 1224.59,-270.75 1336.34,-270.75 1336.34,-249.75 1224.59,-249.75"/>
<text text-anchor="start" x="1227.59" y="-255.45" font-family="mono" font-weight="bold" font-size="14.00">SecurityScheme</text>
</g>
<!-- Thing&#45;&gt;SecurityScheme -->
<g id="edge11" class="edge">
<title>Thing&#45;&gt;SecurityScheme</title>
<path fill="none" stroke="black" d="M1041.05,-438.65C1093.34,-412.35 1152.97,-378.78 1202.47,-341.5 1223.88,-325.37 1244.86,-303.32 1259.66,-286.42"/>
<polygon fill="black" stroke="black" points="1261.96,-289.12 1265.82,-279.25 1256.65,-284.55 1261.96,-289.12"/>
<text text-anchor="start" x="1218.47" y="-328.2" font-family="mono" font-size="14.00" fill="#c83500">securityDefinitions</text>
<text text-anchor="middle" x="1256.31" y="-281.3" font-family="Times,serif" font-size="14.00">1..*</text>
</g>
</g>
</svg>
