<?xml version="1.0" encoding="UTF-8" standalone="no"?>
<!DOCTYPE svg PUBLIC "-//W3C//DTD SVG 1.1//EN"
 "http://www.w3.org/Graphics/SVG/1.1/DTD/svg11.dtd">
<!-- Generated by graphviz version 2.38.0 (20140413.2041)
 -->
<!-- Title: %3 Pages: 1 -->
<svg width="1248pt" height="578pt"
 viewBox="0.00 0.00 1248.00 578.00" xmlns="http://www.w3.org/2000/svg" xmlns:xlink="http://www.w3.org/1999/xlink">
<g id="graph0" class="graph" transform="scale(1 1) rotate(0) translate(4 574)">
<title>%3</title>
<polygon fill="white" stroke="none" points="-4,4 -4,-574 1244,-574 1244,4 -4,4"/>
<!-- MultiLanguage -->
<g id="node1" class="node"><title>MultiLanguage</title>
<polygon fill="#8ccbf2" stroke="none" points="88,-7 88,-28 202,-28 202,-7 88,-7"/>
<polygon fill="none" stroke="#8ccbf2" points="88,-7 88,-28 202,-28 202,-7 88,-7"/>
<text text-anchor="start" x="91" y="-14.8" font-family="mono" font-weight="bold" font-size="14.00" fill="#c83500">MultiLanguage</text>
</g>
<!-- Thing -->
<g id="node2" class="node"><title>Thing</title>
<polygon fill="#8ccbf2" stroke="none" points="458,-544.5 458,-565.5 720,-565.5 720,-544.5 458,-544.5"/>
<polygon fill="none" stroke="#8ccbf2" points="458,-544.5 458,-565.5 720,-565.5 720,-544.5 458,-544.5"/>
<text text-anchor="start" x="568" y="-552.3" font-family="mono" font-weight="bold" font-size="14.00" fill="#c83500">Thing</text>
<polygon fill="#ddeeff" stroke="none" points="458,-523.5 458,-544.5 720,-544.5 720,-523.5 458,-523.5"/>
<polygon fill="none" stroke="#8ccbf2" points="458,-523.5 458,-544.5 720,-544.5 720,-523.5 458,-523.5"/>
<text text-anchor="start" x="461" y="-531.3" font-family="mono" font-size="14.00" fill="#c83500">@context</text>
<text text-anchor="start" x="528" y="-531.3" font-family="Times,serif" font-size="14.00"> : </text>
<text text-anchor="start" x="540" y="-531.3" font-family="Times,serif" font-style="italic" font-size="14.00">string or array</text>
<text text-anchor="start" x="622" y="-531.3" font-family="Times,serif" font-size="14.00"> </text>
<text text-anchor="start" x="626" y="-531.3" font-family="Times,serif" font-style="italic" font-size="14.00">(mandatory)</text>
<polygon fill="#ddeeff" stroke="none" points="458,-502.5 458,-523.5 720,-523.5 720,-502.5 458,-502.5"/>
<polygon fill="none" stroke="#8ccbf2" points="458,-502.5 458,-523.5 720,-523.5 720,-502.5 458,-502.5"/>
<text text-anchor="start" x="461" y="-510.3" font-family="mono" font-size="14.00" fill="#c83500">@type</text>
<text text-anchor="start" x="503" y="-510.3" font-family="Times,serif" font-size="14.00"> : </text>
<text text-anchor="start" x="515" y="-510.3" font-family="Times,serif" font-style="italic" font-size="14.00">(array of) </text>
<text text-anchor="start" x="573" y="-510.3" font-family="mono" font-size="14.00" fill="#c83500">string</text>
<polygon fill="#ddeeff" stroke="none" points="458,-481.5 458,-502.5 720,-502.5 720,-481.5 458,-481.5"/>
<polygon fill="none" stroke="#8ccbf2" points="458,-481.5 458,-502.5 720,-502.5 720,-481.5 458,-481.5"/>
<text text-anchor="start" x="461" y="-489.3" font-family="mono" font-size="14.00" fill="#c83500">id</text>
<text text-anchor="start" x="478" y="-489.3" font-family="Times,serif" font-size="14.00"> : </text>
<text text-anchor="start" x="490" y="-489.3" font-family="mono" font-size="14.00" fill="#c83500">anyURI</text>
<text text-anchor="start" x="540" y="-489.3" font-family="Times,serif" font-size="14.00"> </text>
<text text-anchor="start" x="544" y="-489.3" font-family="Times,serif" font-style="italic" font-size="14.00">(mandatory)</text>
<polygon fill="#ddeeff" stroke="none" points="458,-460.5 458,-481.5 720,-481.5 720,-460.5 458,-460.5"/>
<polygon fill="none" stroke="#8ccbf2" points="458,-460.5 458,-481.5 720,-481.5 720,-460.5 458,-460.5"/>
<text text-anchor="start" x="461" y="-468.3" font-family="mono" font-size="14.00" fill="#c83500">name</text>
<text text-anchor="start" x="495" y="-468.3" font-family="Times,serif" font-size="14.00"> : </text>
<text text-anchor="start" x="507" y="-468.3" font-family="mono" font-size="14.00" fill="#c83500">string</text>
<text text-anchor="start" x="557" y="-468.3" font-family="Times,serif" font-size="14.00"> </text>
<text text-anchor="start" x="561" y="-468.3" font-family="Times,serif" font-style="italic" font-size="14.00">(mandatory)</text>
<polygon fill="#ddeeff" stroke="none" points="458,-439.5 458,-460.5 720,-460.5 720,-439.5 458,-439.5"/>
<polygon fill="none" stroke="#8ccbf2" points="458,-439.5 458,-460.5 720,-460.5 720,-439.5 458,-439.5"/>
<text text-anchor="start" x="461" y="-447.3" font-family="mono" font-size="14.00" fill="#c83500">description</text>
<text text-anchor="start" x="552" y="-447.3" font-family="Times,serif" font-size="14.00"> : </text>
<text text-anchor="start" x="564" y="-447.3" font-family="mono" font-size="14.00" fill="#c83500">string</text>
<polygon fill="#ddeeff" stroke="none" points="458,-418.5 458,-439.5 720,-439.5 720,-418.5 458,-418.5"/>
<polygon fill="none" stroke="#8ccbf2" points="458,-418.5 458,-439.5 720,-439.5 720,-418.5 458,-418.5"/>
<text text-anchor="start" x="461" y="-426.3" font-family="mono" font-size="14.00" fill="#c83500">security</text>
<text text-anchor="start" x="528" y="-426.3" font-family="Times,serif" font-size="14.00"> : (array of) </text>
<text text-anchor="start" x="595" y="-426.3" font-family="mono" font-size="14.00" fill="#c83500">string</text>
<text text-anchor="start" x="645" y="-426.3" font-family="Times,serif" font-size="14.00"> </text>
<text text-anchor="start" x="649" y="-426.3" font-family="Times,serif" font-style="italic" font-size="14.00">(mandatory)</text>
<polygon fill="#ddeeff" stroke="none" points="458,-397.5 458,-418.5 720,-418.5 720,-397.5 458,-397.5"/>
<polygon fill="none" stroke="#8ccbf2" points="458,-397.5 458,-418.5 720,-418.5 720,-397.5 458,-397.5"/>
<text text-anchor="start" x="461" y="-405.3" font-family="mono" font-size="14.00" fill="#c83500">base</text>
<text text-anchor="start" x="495" y="-405.3" font-family="Times,serif" font-size="14.00"> : </text>
<text text-anchor="start" x="507" y="-405.3" font-family="mono" font-size="14.00" fill="#c83500">anyURI</text>
<polygon fill="#ddeeff" stroke="none" points="458,-376.5 458,-397.5 720,-397.5 720,-376.5 458,-376.5"/>
<polygon fill="none" stroke="#8ccbf2" points="458,-376.5 458,-397.5 720,-397.5 720,-376.5 458,-376.5"/>
<text text-anchor="start" x="461" y="-384.3" font-family="mono" font-size="14.00" fill="#c83500">created</text>
<text text-anchor="start" x="519" y="-384.3" font-family="Times,serif" font-size="14.00"> : </text>
<text text-anchor="start" x="531" y="-384.3" font-family="mono" font-size="14.00" fill="#c83500">dateTime</text>
<polygon fill="#ddeeff" stroke="none" points="458,-355.5 458,-376.5 720,-376.5 720,-355.5 458,-355.5"/>
<polygon fill="none" stroke="#8ccbf2" points="458,-355.5 458,-376.5 720,-376.5 720,-355.5 458,-355.5"/>
<text text-anchor="start" x="461" y="-363.3" font-family="mono" font-size="14.00" fill="#c83500">support</text>
<text text-anchor="start" x="519" y="-363.3" font-family="Times,serif" font-size="14.00"> : </text>
<text text-anchor="start" x="531" y="-363.3" font-family="mono" font-size="14.00" fill="#c83500">string</text>
<polygon fill="#ddeeff" stroke="none" points="458,-334.5 458,-355.5 720,-355.5 720,-334.5 458,-334.5"/>
<polygon fill="none" stroke="#8ccbf2" points="458,-334.5 458,-355.5 720,-355.5 720,-334.5 458,-334.5"/>
<text text-anchor="start" x="461" y="-342.3" font-family="mono" font-size="14.00" fill="#c83500">modified</text>
<text text-anchor="start" x="528" y="-342.3" font-family="Times,serif" font-size="14.00"> : </text>
<text text-anchor="start" x="540" y="-342.3" font-family="mono" font-size="14.00" fill="#c83500">dateTime</text>
</g>
<!-- Thing&#45;&gt;MultiLanguage -->
<g id="edge4" class="edge"><title>Thing&#45;&gt;MultiLanguage</title>
<path fill="none" stroke="black" d="M449.789,-433.25C351.235,-413.96 224.651,-371.845 155,-280 98.0544,-204.91 138.672,-163.125 134,-69 133.669,-62.3415 132.989,-60.5895 134,-54 134.411,-51.3184 134.991,-48.5603 135.67,-45.8252"/>
<polygon fill="black" stroke="black" points="139.038,-46.7776 138.451,-36.1991 132.313,-44.8347 139.038,-46.7776"/>
<text text-anchor="start" x="126" y="-179.8" font-family="mono" font-size="14.00" fill="#c83500">descriptions</text>
<text text-anchor="middle" x="127.451" y="-39.9991" font-family="Times,serif" font-size="14.00">0..1</text>
</g>
<!-- PropertyAffordance -->
<g id="node3" class="node"><title>PropertyAffordance</title>
<polygon fill="#8ccbf2" stroke="none" points="173,-244.5 173,-265.5 332,-265.5 332,-244.5 173,-244.5"/>
<polygon fill="none" stroke="#8ccbf2" points="173,-244.5 173,-265.5 332,-265.5 332,-244.5 173,-244.5"/>
<text text-anchor="start" x="178" y="-252.3" font-family="mono" font-weight="bold" font-size="14.00" fill="#c83500">PropertyAffordance</text>
<polygon fill="#ddeeff" stroke="none" points="173,-223.5 173,-244.5 332,-244.5 332,-223.5 173,-223.5"/>
<polygon fill="none" stroke="#8ccbf2" points="173,-223.5 173,-244.5 332,-244.5 332,-223.5 173,-223.5"/>
<text text-anchor="start" x="176" y="-231.3" font-family="mono" font-size="14.00" fill="#c83500">observable</text>
<text text-anchor="start" x="259" y="-231.3" font-family="Times,serif" font-size="14.00"> : </text>
<text text-anchor="start" x="271" y="-231.3" font-family="mono" font-size="14.00" fill="#c83500">boolean</text>
</g>
<!-- Thing&#45;&gt;PropertyAffordance -->
<g id="edge5" class="edge"><title>Thing&#45;&gt;PropertyAffordance</title>
<path fill="none" stroke="black" d="M449.984,-365.348C396.887,-333.206 339.759,-298.624 300.582,-274.908"/>
<polygon fill="black" stroke="black" points="302.378,-271.904 292.01,-269.72 298.753,-277.893 302.378,-271.904"/>
<text text-anchor="start" x="362" y="-301.8" font-family="mono" font-size="14.00" fill="#c83500">properties</text>
<text text-anchor="middle" x="281.01" y="-273.52" font-family="Times,serif" font-size="14.00">0..1</text>
</g>
<!-- VersionInfo -->
<g id="node4" class="node"><title>VersionInfo</title>
<polygon fill="#8ccbf2" stroke="none" points="796,-244.5 796,-265.5 1003,-265.5 1003,-244.5 796,-244.5"/>
<polygon fill="none" stroke="#8ccbf2" points="796,-244.5 796,-265.5 1003,-265.5 1003,-244.5 796,-244.5"/>
<text text-anchor="start" x="854" y="-252.3" font-family="mono" font-weight="bold" font-size="14.00" fill="#c83500">VersionInfo</text>
<polygon fill="#ddeeff" stroke="none" points="796,-223.5 796,-244.5 1003,-244.5 1003,-223.5 796,-223.5"/>
<polygon fill="none" stroke="#8ccbf2" points="796,-223.5 796,-244.5 1003,-244.5 1003,-223.5 796,-223.5"/>
<text text-anchor="start" x="799" y="-231.3" font-family="mono" font-size="14.00" fill="#c83500">instance</text>
<text text-anchor="start" x="866" y="-231.3" font-family="Times,serif" font-size="14.00"> : </text>
<text text-anchor="start" x="878" y="-231.3" font-family="mono" font-size="14.00" fill="#c83500">string</text>
<text text-anchor="start" x="928" y="-231.3" font-family="Times,serif" font-size="14.00"> </text>
<text text-anchor="start" x="932" y="-231.3" font-family="Times,serif" font-style="italic" font-size="14.00">(mandatory)</text>
</g>
<!-- Thing&#45;&gt;VersionInfo -->
<g id="edge7" class="edge"><title>Thing&#45;&gt;VersionInfo</title>
<path fill="none" stroke="black" d="M728.131,-357.943C773.492,-328.092 820.685,-297.036 853.95,-275.146"/>
<polygon fill="black" stroke="black" points="856.094,-277.925 862.523,-269.504 852.246,-272.077 856.094,-277.925"/>
<text text-anchor="start" x="816" y="-301.8" font-family="mono" font-size="14.00" fill="#c83500">version</text>
<text text-anchor="middle" x="851.523" y="-273.304" font-family="Times,serif" font-size="14.00">0..1</text>
</g>
<!-- ActionAffordance -->
<g id="node5" class="node"><title>ActionAffordance</title>
<polygon fill="#8ccbf2" stroke="none" points="366,-254.5 366,-275.5 597,-275.5 597,-254.5 366,-254.5"/>
<polygon fill="none" stroke="#8ccbf2" points="366,-254.5 366,-275.5 597,-275.5 597,-254.5 366,-254.5"/>
<text text-anchor="start" x="415" y="-262.3" font-family="mono" font-weight="bold" font-size="14.00" fill="#c83500">ActionAffordance</text>
<polygon fill="#ddeeff" stroke="none" points="366,-233.5 366,-254.5 597,-254.5 597,-233.5 366,-233.5"/>
<polygon fill="none" stroke="#8ccbf2" points="366,-233.5 366,-254.5 597,-254.5 597,-233.5 366,-233.5"/>
<text text-anchor="start" x="369" y="-241.3" font-family="mono" font-size="14.00" fill="#c83500">idempotent</text>
<text text-anchor="start" x="452" y="-241.3" font-family="Times,serif" font-size="14.00"> : </text>
<text text-anchor="start" x="464" y="-241.3" font-family="mono" font-size="14.00" fill="#c83500">boolean</text>
<text text-anchor="start" x="522" y="-241.3" font-family="Times,serif" font-size="14.00"> </text>
<text text-anchor="start" x="526" y="-241.3" font-family="Times,serif" font-style="italic" font-size="14.00">(mandatory)</text>
<polygon fill="#ddeeff" stroke="none" points="366,-212.5 366,-233.5 597,-233.5 597,-212.5 366,-212.5"/>
<polygon fill="none" stroke="#8ccbf2" points="366,-212.5 366,-233.5 597,-233.5 597,-212.5 366,-212.5"/>
<text text-anchor="start" x="369" y="-220.3" font-family="mono" font-size="14.00" fill="#c83500">safe</text>
<text text-anchor="start" x="403" y="-220.3" font-family="Times,serif" font-size="14.00"> : </text>
<text text-anchor="start" x="415" y="-220.3" font-family="mono" font-size="14.00" fill="#c83500">boolean</text>
<text text-anchor="start" x="473" y="-220.3" font-family="Times,serif" font-size="14.00"> </text>
<text text-anchor="start" x="477" y="-220.3" font-family="Times,serif" font-style="italic" font-size="14.00">(mandatory)</text>
</g>
<!-- Thing&#45;&gt;ActionAffordance -->
<g id="edge2" class="edge"><title>Thing&#45;&gt;ActionAffordance</title>
<path fill="none" stroke="black" d="M526.176,-330.832C518.41,-316.164 510.895,-301.969 504.296,-289.504"/>
<polygon fill="black" stroke="black" points="507.212,-287.53 499.439,-280.33 501.025,-290.805 507.212,-287.53"/>
<text text-anchor="start" x="516" y="-301.8" font-family="mono" font-size="14.00" fill="#c83500">actions</text>
<text text-anchor="middle" x="488.439" y="-284.13" font-family="Times,serif" font-size="14.00">0..1</text>
</g>
<!-- EventAffordance -->
<g id="node7" class="node"><title>EventAffordance</title>
<polygon fill="#8ccbf2" stroke="none" points="631,-233.5 631,-254.5 761,-254.5 761,-233.5 631,-233.5"/>
<polygon fill="none" stroke="#8ccbf2" points="631,-233.5 631,-254.5 761,-254.5 761,-233.5 631,-233.5"/>
<text text-anchor="start" x="634" y="-241.3" font-family="mono" font-weight="bold" font-size="14.00" fill="#c83500">EventAffordance</text>
</g>
<!-- Thing&#45;&gt;EventAffordance -->
<g id="edge3" class="edge"><title>Thing&#45;&gt;EventAffordance</title>
<path fill="none" stroke="black" d="M651.242,-330.832C662.893,-308.62 673.975,-287.492 682.197,-271.816"/>
<polygon fill="black" stroke="black" points="685.381,-273.281 686.926,-262.799 679.182,-270.029 685.381,-273.281"/>
<text text-anchor="start" x="668" y="-301.8" font-family="mono" font-size="14.00" fill="#c83500">events</text>
<text text-anchor="middle" x="675.926" y="-266.599" font-family="Times,serif" font-size="14.00">0..1</text>
</g>
<!-- Form -->
<g id="node8" class="node"><title>Form</title>
<polygon fill="#f2f2f2" stroke="none" points="8,-7 8,-28 48,-28 48,-7 8,-7"/>
<polygon fill="none" stroke="#8c8c8c" points="8,-7 8,-28 48,-28 48,-7 8,-7"/>
<text text-anchor="start" x="11" y="-14.8" font-family="mono" font-weight="bold" font-size="14.00">Form</text>
</g>
<!-- Thing&#45;&gt;Form -->
<g id="edge1" class="edge"><title>Thing&#45;&gt;Form</title>
<path fill="none" stroke="black" d="M449.859,-436.377C343.594,-418.71 202.043,-377.257 121,-280 61.7773,-208.929 39.0497,-97.3393 31.4072,-46.2216"/>
<polygon fill="black" stroke="black" points="34.8652,-45.6783 29.9976,-36.2679 27.9344,-46.6598 34.8652,-45.6783"/>
<text text-anchor="start" x="70" y="-179.8" font-family="mono" font-size="14.00" fill="#c83500">forms</text>
<text text-anchor="middle" x="18.9976" y="-40.0679" font-family="Times,serif" font-size="14.00">0..*</text>
</g>
<!-- Link -->
<g id="node9" class="node"><title>Link</title>
<polygon fill="#f2f2f2" stroke="none" points="1036,-233.5 1036,-254.5 1076,-254.5 1076,-233.5 1036,-233.5"/>
<polygon fill="none" stroke="#8c8c8c" points="1036,-233.5 1036,-254.5 1076,-254.5 1076,-233.5 1036,-233.5"/>
<text text-anchor="start" x="1039" y="-241.3" font-family="mono" font-weight="bold" font-size="14.00">Link</text>
</g>
<!-- Thing&#45;&gt;Link -->
<g id="edge6" class="edge"><title>Thing&#45;&gt;Link</title>
<path fill="none" stroke="black" d="M728.412,-409.321C815.786,-380.647 928.577,-337.065 1019,-280 1023.73,-277.012 1028.41,-273.372 1032.75,-269.592"/>
<polygon fill="black" stroke="black" points="1035.19,-272.1 1040.17,-262.743 1030.44,-266.958 1035.19,-272.1"/>
<text text-anchor="start" x="987" y="-301.8" font-family="mono" font-size="14.00" fill="#c83500">links</text>
<text text-anchor="middle" x="1029.17" y="-266.543" font-family="Times,serif" font-size="14.00">0..*</text>
</g>
<!-- SecurityScheme -->
<g id="node10" class="node"><title>SecurityScheme</title>
<polygon fill="#f2f2f2" stroke="none" points="1110,-233.5 1110,-254.5 1232,-254.5 1232,-233.5 1110,-233.5"/>
<polygon fill="none" stroke="#8c8c8c" points="1110,-233.5 1110,-254.5 1232,-254.5 1232,-233.5 1110,-233.5"/>
<text text-anchor="start" x="1113" y="-241.3" font-family="mono" font-weight="bold" font-size="14.00">SecurityScheme</text>
</g>
<!-- Thing&#45;&gt;SecurityScheme -->
<g id="edge8" class="edge"><title>Thing&#45;&gt;SecurityScheme</title>
<path fill="none" stroke="black" d="M728.425,-412.703C816.879,-387.878 933.072,-352.518 1033,-313 1066.61,-299.708 1103.31,-281.572 1130.41,-267.447"/>
<polygon fill="black" stroke="black" points="1132.35,-270.382 1139.57,-262.632 1129.09,-264.185 1132.35,-270.382"/>
<text text-anchor="start" x="1068" y="-301.8" font-family="mono" font-size="14.00" fill="#c83500">securityDefinitions</text>
<text text-anchor="middle" x="1128.57" y="-266.432" font-family="Times,serif" font-size="14.00">1..1</text>
</g>
<!-- InteractionAffordance -->
<g id="node6" class="node"><title>InteractionAffordance</title>
<polygon fill="#8ccbf2" stroke="none" points="178,-132.5 178,-153.5 358,-153.5 358,-132.5 178,-132.5"/>
<polygon fill="none" stroke="#8ccbf2" points="178,-132.5 178,-153.5 358,-153.5 358,-132.5 178,-132.5"/>
<text text-anchor="start" x="181" y="-140.3" font-family="mono" font-weight="bold" font-size="14.00" fill="#c83500">InteractionAffordance</text>
<polygon fill="#ddeeff" stroke="none" points="178,-111.5 178,-132.5 358,-132.5 358,-111.5 178,-111.5"/>
<polygon fill="none" stroke="#8ccbf2" points="178,-111.5 178,-132.5 358,-132.5 358,-111.5 178,-111.5"/>
<text text-anchor="start" x="181" y="-119.3" font-family="mono" font-size="14.00" fill="#c83500">title</text>
<text text-anchor="start" x="223" y="-119.3" font-family="Times,serif" font-size="14.00"> : </text>
<text text-anchor="start" x="235" y="-119.3" font-family="mono" font-size="14.00" fill="#c83500">string</text>
<polygon fill="#ddeeff" stroke="none" points="178,-90.5 178,-111.5 358,-111.5 358,-90.5 178,-90.5"/>
<polygon fill="none" stroke="#8ccbf2" points="178,-90.5 178,-111.5 358,-111.5 358,-90.5 178,-90.5"/>
<text text-anchor="start" x="181" y="-98.3" font-family="mono" font-size="14.00" fill="#c83500">description</text>
<text text-anchor="start" x="272" y="-98.3" font-family="Times,serif" font-size="14.00"> : </text>
<text text-anchor="start" x="284" y="-98.3" font-family="mono" font-size="14.00" fill="#c83500">string</text>
</g>
<!-- PropertyAffordance&#45;&gt;InteractionAffordance -->
<g id="edge19" class="edge"><title>PropertyAffordance&#45;&gt;InteractionAffordance</title>
<path fill="none" stroke="black" d="M255.238,-219.216C257.192,-204.56 259.742,-185.435 262.049,-168.136"/>
<polygon fill="white" stroke="black" points="265.52,-168.584 263.372,-158.209 258.581,-167.659 265.52,-168.584"/>
</g>
<!-- DataSchema -->
<g id="node11" class="node"><title>DataSchema</title>
<polygon fill="#f2f2f2" stroke="none" points="515,-7 515,-28 604,-28 604,-7 515,-7"/>
<polygon fill="none" stroke="#8c8c8c" points="515,-7 515,-28 604,-28 604,-7 515,-7"/>
<text text-anchor="start" x="518" y="-14.8" font-family="mono" font-weight="bold" font-size="14.00">DataSchema</text>
</g>
<!-- PropertyAffordance&#45;&gt;DataSchema -->
<g id="edge18" class="edge"><title>PropertyAffordance&#45;&gt;DataSchema</title>
<path fill="none" stroke="black" d="M289.245,-219.476C314.126,-202.979 347.253,-180.142 375,-158 428.607,-115.223 432.458,-92.8155 489,-54 495.924,-49.2467 503.585,-44.7483 511.224,-40.6588"/>
<polygon fill="white" stroke="black" points="512.858,-43.7544 520.136,-36.0552 509.645,-37.5352 512.858,-43.7544"/>
</g>
<!-- ActionAffordance&#45;&gt;InteractionAffordance -->
<g id="edge20" class="edge"><title>ActionAffordance&#45;&gt;InteractionAffordance</title>
<path fill="none" stroke="black" d="M419.677,-208.952C394.171,-194.582 364.421,-177.822 338.058,-162.969"/>
<polygon fill="white" stroke="black" points="339.689,-159.871 329.259,-158.012 336.253,-165.97 339.689,-159.871"/>
</g>
<!-- ActionAffordance&#45;&gt;DataSchema -->
<g id="edge9" class="edge"><title>ActionAffordance&#45;&gt;DataSchema</title>
<path fill="none" stroke="black" d="M502.447,-208.725C511.058,-193.579 520.47,-175.353 527,-158 541.153,-120.392 550.221,-74.6125 554.964,-46.1313"/>
<polygon fill="black" stroke="black" points="558.442,-46.544 556.571,-36.1157 551.531,-45.4346 558.442,-46.544"/>
<text text-anchor="start" x="548" y="-118.8" font-family="mono" font-size="14.00" fill="#c83500">output</text>
<text text-anchor="middle" x="545.571" y="-39.9157" font-family="Times,serif" font-size="14.00">0..1</text>
</g>
<!-- ActionAffordance&#45;&gt;DataSchema -->
<g id="edge10" class="edge"><title>ActionAffordance&#45;&gt;DataSchema</title>
<path fill="none" stroke="black" d="M473.076,-208.809C467.34,-175.894 463.338,-125.829 481,-87 489.284,-68.7869 505.124,-53.5506 520.377,-42.1482"/>
<polygon fill="black" stroke="black" points="522.609,-44.8555 528.738,-36.2134 518.558,-39.1472 522.609,-44.8555"/>
<text text-anchor="start" x="481" y="-118.8" font-family="mono" font-size="14.00" fill="#c83500">input</text>
<text text-anchor="middle" x="517.738" y="-40.0134" font-family="Times,serif" font-size="14.00">0..1</text>
</g>
<!-- InteractionAffordance&#45;&gt;MultiLanguage -->
<g id="edge11" class="edge"><title>InteractionAffordance&#45;&gt;MultiLanguage</title>
<path fill="none" stroke="black" d="M263.162,-86.9998C259.985,-75.2643 254.721,-62.8837 246,-54 238.562,-46.4229 229.404,-40.4845 219.666,-35.8307"/>
<polygon fill="black" stroke="black" points="220.758,-32.4903 210.189,-31.7509 217.99,-38.9198 220.758,-32.4903"/>
<text text-anchor="start" x="256" y="-57.8" font-family="mono" font-size="14.00" fill="#c83500">titles</text>
<text text-anchor="middle" x="221.189" y="-35.5509" font-family="Times,serif" font-size="14.00">0..1</text>
</g>
<!-- InteractionAffordance&#45;&gt;MultiLanguage -->
<g id="edge12" class="edge"><title>InteractionAffordance&#45;&gt;MultiLanguage</title>
<path fill="none" stroke="black" d="M169.713,-94.9107C158.809,-88.1393 149.098,-79.6476 142,-69 137.573,-62.359 136.706,-54.0531 137.415,-46.1296"/>
<polygon fill="black" stroke="black" points="140.894,-46.5458 139.089,-36.1059 133.989,-45.3929 140.894,-46.5458"/>
<text text-anchor="start" x="142" y="-57.8" font-family="mono" font-size="14.00" fill="#c83500">descriptions</text>
<text text-anchor="middle" x="150.089" y="-39.9059" font-family="Times,serif" font-size="14.00">0..1</text>
</g>
<!-- InteractionAffordance&#45;&gt;Form -->
<g id="edge13" class="edge"><title>InteractionAffordance&#45;&gt;Form</title>
<path fill="none" stroke="black" d="M169.561,-99.1616C143.577,-91.397 116.083,-81.4326 92,-69 78.3894,-61.9738 64.8055,-51.9072 53.6766,-42.6457"/>
<polygon fill="black" stroke="black" points="55.9113,-39.9514 46.0416,-36.0992 51.3549,-45.2655 55.9113,-39.9514"/>
<text text-anchor="start" x="92" y="-57.8" font-family="mono" font-size="14.00" fill="#c83500">forms</text>
<text text-anchor="middle" x="57.0416" y="-39.8992" font-family="Times,serif" font-size="14.00">1..*</text>
</g>
<!-- InteractionAffordance&#45;&gt;DataSchema -->
<g id="edge14" class="edge"><title>InteractionAffordance&#45;&gt;DataSchema</title>
<path fill="none" stroke="black" d="M298.059,-86.6834C310.447,-74.4755 325.713,-61.8614 342,-54 390.303,-30.6848 450.977,-22.4209 495.879,-19.7091"/>
<polygon fill="black" stroke="black" points="496.269,-23.1935 506.071,-19.1719 495.901,-16.2032 496.269,-23.1935"/>
<text text-anchor="start" x="342" y="-57.8" font-family="mono" font-size="14.00" fill="#c83500">uriVariables</text>
<text text-anchor="middle" x="495.071" y="-22.9719" font-family="Times,serif" font-size="14.00">0..1</text>
</g>
<!-- EventAffordance&#45;&gt;InteractionAffordance -->
<g id="edge21" class="edge"><title>EventAffordance&#45;&gt;InteractionAffordance</title>
<path fill="none" stroke="black" d="M658.441,-226.476C644.364,-220.472 628.117,-213.983 613,-209 534.938,-183.267 444.71,-161.165 376.109,-145.883"/>
<polygon fill="white" stroke="black" points="376.668,-142.422 366.148,-143.678 375.155,-149.257 376.668,-142.422"/>
</g>
<!-- EventAffordance&#45;&gt;DataSchema -->
<g id="edge15" class="edge"><title>EventAffordance&#45;&gt;DataSchema</title>
<path fill="none" stroke="black" d="M685.697,-226.052C668.538,-197.06 632.933,-137.184 602,-87 593.389,-73.0305 583.626,-57.5613 575.581,-44.9111"/>
<polygon fill="black" stroke="black" points="578.394,-42.812 570.068,-36.2597 572.49,-46.5739 578.394,-42.812"/>
<text text-anchor="start" x="644" y="-118.8" font-family="mono" font-size="14.00" fill="#c83500">cancellation</text>
<text text-anchor="middle" x="581.068" y="-40.0597" font-family="Times,serif" font-size="14.00">0..1</text>
</g>
<!-- EventAffordance&#45;&gt;DataSchema -->
<g id="edge16" class="edge"><title>EventAffordance&#45;&gt;DataSchema</title>
<path fill="none" stroke="black" d="M711.216,-226.049C735.946,-195.474 779.119,-131.269 748,-87 719.687,-46.7235 665.12,-30.1896 621.868,-23.4604"/>
<polygon fill="black" stroke="black" points="622.094,-19.9577 611.703,-22.0238 621.114,-26.8888 622.094,-19.9577"/>
<text text-anchor="start" x="759" y="-118.8" font-family="mono" font-size="14.00" fill="#c83500">subscription</text>
<text text-anchor="middle" x="622.703" y="-25.8238" font-family="Times,serif" font-size="14.00">0..1</text>
</g>
<!-- EventAffordance&#45;&gt;DataSchema -->
<g id="edge17" class="edge"><title>EventAffordance&#45;&gt;DataSchema</title>
<path fill="none" stroke="black" d="M734.556,-226.34C781.543,-205.041 855.63,-170.053 863,-158 879.462,-131.078 882.305,-111.962 863,-87 833.969,-49.4609 701.878,-31.4335 621.67,-23.8077"/>
<polygon fill="black" stroke="black" points="621.955,-20.3192 611.676,-22.8856 621.312,-27.2896 621.955,-20.3192"/>
<text text-anchor="start" x="877" y="-118.8" font-family="mono" font-size="14.00" fill="#c83500">data</text>
<text text-anchor="middle" x="622.676" y="-11.6856" font-family="Times,serif" font-size="14.00">0..1</text>
</g>
</g>
</svg>
