<?xml version="1.0" encoding="UTF-8" standalone="no"?>
<!DOCTYPE svg PUBLIC "-//W3C//DTD SVG 1.1//EN"
 "http://www.w3.org/Graphics/SVG/1.1/DTD/svg11.dtd">
<!-- Generated by graphviz version 2.40.1 (20161225.0304)
 -->
<!-- Title: %3 Pages: 1 -->
<svg width="1447pt" height="861pt"
 viewBox="0.00 0.00 1447.00 861.00" xmlns="http://www.w3.org/2000/svg" xmlns:xlink="http://www.w3.org/1999/xlink">
<g id="graph0" class="graph" transform="scale(1 1) rotate(0) translate(4 857)">
<title>%3</title>
<polygon fill="#ffffff" stroke="transparent" points="-4,4 -4,-857 1443,-857 1443,4 -4,4"/>
<!-- MultiLanguage -->
<g id="node1" class="node">
<title>MultiLanguage</title>
<polygon fill="#8ccbf2" stroke="transparent" points="278,-167.5 278,-188.5 392,-188.5 392,-167.5 278,-167.5"/>
<polygon fill="none" stroke="#8ccbf2" points="278,-167.5 278,-188.5 392,-188.5 392,-167.5 278,-167.5"/>
<text text-anchor="start" x="281" y="-175.3" font-family="mono" font-weight="bold" font-size="14.00" fill="#c83500">MultiLanguage</text>
</g>
<!-- InteractionPattern -->
<g id="node2" class="node">
<title>InteractionPattern</title>
<polygon fill="#8ccbf2" stroke="transparent" points="282,-374 282,-395 443,-395 443,-374 282,-374"/>
<polygon fill="none" stroke="#8ccbf2" points="282,-374 282,-395 443,-395 443,-374 282,-374"/>
<text text-anchor="start" x="288" y="-381.8" font-family="mono" font-weight="bold" font-size="14.00" fill="#c83500">InteractionPattern</text>
<polygon fill="#ddeeff" stroke="transparent" points="282,-353 282,-374 443,-374 443,-353 282,-353"/>
<polygon fill="none" stroke="#8ccbf2" points="282,-353 282,-374 443,-374 443,-353 282,-353"/>
<text text-anchor="start" x="285" y="-360.8" font-family="mono" font-size="14.00" fill="#c83500">@type</text>
<text text-anchor="start" x="327" y="-360.8" font-family="Times,serif" font-size="14.00" fill="#000000"> : </text>
<text text-anchor="start" x="339" y="-360.8" font-family="Times,serif" font-style="italic" font-size="14.00" fill="#000000">array of </text>
<text text-anchor="start" x="390" y="-360.8" font-family="mono" font-size="14.00" fill="#c83500">string</text>
<polygon fill="#ddeeff" stroke="transparent" points="282,-332 282,-353 443,-353 443,-332 282,-332"/>
<polygon fill="none" stroke="#8ccbf2" points="282,-332 282,-353 443,-353 443,-332 282,-332"/>
<text text-anchor="start" x="285" y="-339.8" font-family="mono" font-size="14.00" fill="#c83500">title</text>
<text text-anchor="start" x="327" y="-339.8" font-family="Times,serif" font-size="14.00" fill="#000000"> : </text>
<text text-anchor="start" x="339" y="-339.8" font-family="mono" font-size="14.00" fill="#c83500">string</text>
<polygon fill="#ddeeff" stroke="transparent" points="282,-311 282,-332 443,-332 443,-311 282,-311"/>
<polygon fill="none" stroke="#8ccbf2" points="282,-311 282,-332 443,-332 443,-311 282,-311"/>
<text text-anchor="start" x="285" y="-318.8" font-family="mono" font-size="14.00" fill="#c83500">description</text>
<text text-anchor="start" x="376" y="-318.8" font-family="Times,serif" font-size="14.00" fill="#000000"> : </text>
<text text-anchor="start" x="388" y="-318.8" font-family="mono" font-size="14.00" fill="#c83500">string</text>
</g>
<!-- InteractionPattern&#45;&gt;MultiLanguage -->
<g id="edge1" class="edge">
<title>InteractionPattern&#45;&gt;MultiLanguage</title>
<path fill="none" stroke="#000000" d="M300.8928,-306.6352C296.5651,-301.1485 292.809,-295.2552 290,-289 277.2087,-260.5158 295.0842,-227.2632 311.9461,-204.7341"/>
<polygon fill="#000000" stroke="#000000" points="314.8664,-206.6824 318.2929,-196.6569 309.3623,-202.3574 314.8664,-206.6824"/>
<text text-anchor="start" x="290" y="-277.8" font-family="mono" font-size="14.00" fill="#c83500">titles</text>
<text text-anchor="middle" x="306.7929" y="-200.4569" font-family="Times,serif" font-size="14.00" fill="#000000">0..1</text>
</g>
<!-- InteractionPattern&#45;&gt;MultiLanguage -->
<g id="edge2" class="edge">
<title>InteractionPattern&#45;&gt;MultiLanguage</title>
<path fill="none" stroke="#000000" d="M354.8354,-306.6953C349.8978,-274.7842 343.498,-233.4225 339.3226,-206.4367"/>
<polygon fill="#000000" stroke="#000000" points="342.774,-205.853 337.786,-196.5058 335.8563,-206.9235 342.774,-205.853"/>
<text text-anchor="start" x="352" y="-277.8" font-family="mono" font-size="14.00" fill="#c83500">descriptions</text>
<text text-anchor="middle" x="349.286" y="-200.3058" font-family="Times,serif" font-size="14.00" fill="#000000">0..1</text>
</g>
<!-- Form -->
<g id="node4" class="node">
<title>Form</title>
<polygon fill="#8ccbf2" stroke="transparent" points="8,-230.5 8,-251.5 244,-251.5 244,-230.5 8,-230.5"/>
<polygon fill="none" stroke="#8ccbf2" points="8,-230.5 8,-251.5 244,-251.5 244,-230.5 8,-230.5"/>
<text text-anchor="start" x="109" y="-238.3" font-family="mono" font-weight="bold" font-size="14.00" fill="#c83500">Form</text>
<polygon fill="#ddeeff" stroke="transparent" points="8,-209.5 8,-230.5 244,-230.5 244,-209.5 8,-209.5"/>
<polygon fill="none" stroke="#8ccbf2" points="8,-209.5 8,-230.5 244,-230.5 244,-209.5 8,-209.5"/>
<text text-anchor="start" x="11" y="-217.3" font-family="mono" font-size="14.00" fill="#c83500">contentType</text>
<text text-anchor="start" x="102" y="-217.3" font-family="Times,serif" font-size="14.00" fill="#000000"> : </text>
<text text-anchor="start" x="114" y="-217.3" font-family="mono" font-size="14.00" fill="#c83500">string</text>
<text text-anchor="start" x="164" y="-217.3" font-family="Times,serif" font-size="14.00" fill="#000000"> </text>
<text text-anchor="start" x="168" y="-217.3" font-family="Times,serif" font-style="italic" font-size="14.00" fill="#000000">(mandatory)</text>
<polygon fill="#ddeeff" stroke="transparent" points="8,-188.5 8,-209.5 244,-209.5 244,-188.5 8,-188.5"/>
<polygon fill="none" stroke="#8ccbf2" points="8,-188.5 8,-209.5 244,-209.5 244,-188.5 8,-188.5"/>
<text text-anchor="start" x="11" y="-196.3" font-family="mono" font-size="14.00" fill="#c83500">href</text>
<text text-anchor="start" x="45" y="-196.3" font-family="Times,serif" font-size="14.00" fill="#000000"> : </text>
<text text-anchor="start" x="57" y="-196.3" font-family="mono" font-size="14.00" fill="#c83500">anyURI</text>
<text text-anchor="start" x="107" y="-196.3" font-family="Times,serif" font-size="14.00" fill="#000000"> </text>
<text text-anchor="start" x="111" y="-196.3" font-family="Times,serif" font-style="italic" font-size="14.00" fill="#000000">(mandatory)</text>
<polygon fill="#ddeeff" stroke="transparent" points="8,-167.5 8,-188.5 244,-188.5 244,-167.5 8,-167.5"/>
<polygon fill="none" stroke="#8ccbf2" points="8,-167.5 8,-188.5 244,-188.5 244,-167.5 8,-167.5"/>
<text text-anchor="start" x="11" y="-175.3" font-family="mono" font-size="14.00" fill="#c83500">subprotocol</text>
<text text-anchor="start" x="102" y="-175.3" font-family="Times,serif" font-size="14.00" fill="#000000"> : </text>
<text text-anchor="start" x="114" y="-175.3" font-family="mono" font-size="14.00" fill="#c83500">string</text>
<polygon fill="#ddeeff" stroke="transparent" points="8,-146.5 8,-167.5 244,-167.5 244,-146.5 8,-146.5"/>
<polygon fill="none" stroke="#8ccbf2" points="8,-146.5 8,-167.5 244,-167.5 244,-146.5 8,-146.5"/>
<text text-anchor="start" x="11" y="-154.3" font-family="mono" font-size="14.00" fill="#c83500">scopes</text>
<text text-anchor="start" x="61" y="-154.3" font-family="Times,serif" font-size="14.00" fill="#000000"> : array of </text>
<text text-anchor="start" x="121" y="-154.3" font-family="mono" font-size="14.00" fill="#c83500">string</text>
<polygon fill="#ddeeff" stroke="transparent" points="8,-125.5 8,-146.5 244,-146.5 244,-125.5 8,-125.5"/>
<polygon fill="none" stroke="#8ccbf2" points="8,-125.5 8,-146.5 244,-146.5 244,-125.5 8,-125.5"/>
<text text-anchor="start" x="11" y="-133.3" font-family="mono" font-size="14.00" fill="#c83500">security</text>
<text text-anchor="start" x="78" y="-133.3" font-family="Times,serif" font-size="14.00" fill="#000000"> : array of </text>
<text text-anchor="start" x="138" y="-133.3" font-family="mono" font-size="14.00" fill="#c83500">string</text>
<polygon fill="#ddeeff" stroke="transparent" points="8,-104.5 8,-125.5 244,-125.5 244,-104.5 8,-104.5"/>
<polygon fill="none" stroke="#8ccbf2" points="8,-104.5 8,-125.5 244,-125.5 244,-104.5 8,-104.5"/>
<text text-anchor="start" x="11" y="-112.3" font-family="mono" font-size="14.00" fill="#c83500">op</text>
<text text-anchor="start" x="28" y="-112.3" font-family="Times,serif" font-size="14.00" fill="#000000"> : </text>
<text text-anchor="start" x="40" y="-112.3" font-family="mono" font-size="14.00" fill="#c83500">string</text>
</g>
<!-- InteractionPattern&#45;&gt;Form -->
<g id="edge3" class="edge">
<title>InteractionPattern&#45;&gt;Form</title>
<path fill="none" stroke="#000000" d="M273.2164,-310.2997C261.728,-303.6639 250.3662,-296.5022 240,-289 229.0395,-281.0677 218.091,-272.1148 207.5528,-262.8243"/>
<polygon fill="#000000" stroke="#000000" points="209.7382,-260.0827 199.9576,-256.0094 205.0633,-265.2929 209.7382,-260.0827"/>
<text text-anchor="start" x="240" y="-277.8" font-family="mono" font-size="14.00" fill="#c83500">forms</text>
<text text-anchor="middle" x="188.4576" y="-259.8094" font-family="Times,serif" font-size="14.00" fill="#000000">1..*</text>
</g>
<!-- DataSchema -->
<g id="node11" class="node">
<title>DataSchema</title>
<polygon fill="#f2f2f2" stroke="transparent" points="681,-167.5 681,-188.5 770,-188.5 770,-167.5 681,-167.5"/>
<polygon fill="none" stroke="#8c8c8c" points="681,-167.5 681,-188.5 770,-188.5 770,-167.5 681,-167.5"/>
<text text-anchor="start" x="684" y="-175.3" font-family="mono" font-weight="bold" font-size="14.00" fill="#000000">DataSchema</text>
</g>
<!-- InteractionPattern&#45;&gt;DataSchema -->
<g id="edge4" class="edge">
<title>InteractionPattern&#45;&gt;DataSchema</title>
<path fill="none" stroke="#000000" d="M429.194,-306.9752C447.247,-295.5079 467.0331,-283.723 486,-274 544.1531,-244.1892 613.8644,-217.2711 662.9483,-199.67"/>
<polygon fill="#000000" stroke="#000000" points="664.234,-202.9275 672.4806,-196.2759 661.8859,-196.3331 664.234,-202.9275"/>
<text text-anchor="start" x="486" y="-277.8" font-family="mono" font-size="14.00" fill="#c83500">uriVariables</text>
<text text-anchor="middle" x="660.9806" y="-200.0759" font-family="Times,serif" font-size="14.00" fill="#000000">0..1</text>
</g>
<!-- Link -->
<g id="node3" class="node">
<title>Link</title>
<polygon fill="#8ccbf2" stroke="transparent" points="850,-537.5 850,-558.5 1029,-558.5 1029,-537.5 850,-537.5"/>
<polygon fill="none" stroke="#8ccbf2" points="850,-537.5 850,-558.5 1029,-558.5 1029,-537.5 850,-537.5"/>
<text text-anchor="start" x="922.5" y="-545.3" font-family="mono" font-weight="bold" font-size="14.00" fill="#c83500">Link</text>
<polygon fill="#ddeeff" stroke="transparent" points="850,-516.5 850,-537.5 1029,-537.5 1029,-516.5 850,-516.5"/>
<polygon fill="none" stroke="#8ccbf2" points="850,-516.5 850,-537.5 1029,-537.5 1029,-516.5 850,-516.5"/>
<text text-anchor="start" x="853" y="-524.3" font-family="mono" font-size="14.00" fill="#c83500">href</text>
<text text-anchor="start" x="887" y="-524.3" font-family="Times,serif" font-size="14.00" fill="#000000"> : </text>
<text text-anchor="start" x="899" y="-524.3" font-family="mono" font-size="14.00" fill="#c83500">anyURI</text>
<text text-anchor="start" x="949" y="-524.3" font-family="Times,serif" font-size="14.00" fill="#000000"> </text>
<text text-anchor="start" x="953" y="-524.3" font-family="Times,serif" font-style="italic" font-size="14.00" fill="#000000">(mandatory)</text>
<polygon fill="#ddeeff" stroke="transparent" points="850,-495.5 850,-516.5 1029,-516.5 1029,-495.5 850,-495.5"/>
<polygon fill="none" stroke="#8ccbf2" points="850,-495.5 850,-516.5 1029,-516.5 1029,-495.5 850,-495.5"/>
<text text-anchor="start" x="853" y="-503.3" font-family="mono" font-size="14.00" fill="#c83500">anchor</text>
<text text-anchor="start" x="903" y="-503.3" font-family="Times,serif" font-size="14.00" fill="#000000"> : </text>
<text text-anchor="start" x="915" y="-503.3" font-family="mono" font-size="14.00" fill="#c83500">anyURI</text>
<polygon fill="#ddeeff" stroke="transparent" points="850,-474.5 850,-495.5 1029,-495.5 1029,-474.5 850,-474.5"/>
<polygon fill="none" stroke="#8ccbf2" points="850,-474.5 850,-495.5 1029,-495.5 1029,-474.5 850,-474.5"/>
<text text-anchor="start" x="853" y="-482.3" font-family="mono" font-size="14.00" fill="#c83500">type</text>
<text text-anchor="start" x="887" y="-482.3" font-family="Times,serif" font-size="14.00" fill="#000000"> : </text>
<text text-anchor="start" x="899" y="-482.3" font-family="mono" font-size="14.00" fill="#c83500">string</text>
<polygon fill="#ddeeff" stroke="transparent" points="850,-453.5 850,-474.5 1029,-474.5 1029,-453.5 850,-453.5"/>
<polygon fill="none" stroke="#8ccbf2" points="850,-453.5 850,-474.5 1029,-474.5 1029,-453.5 850,-453.5"/>
<text text-anchor="start" x="853" y="-461.3" font-family="mono" font-size="14.00" fill="#c83500">rel</text>
<text text-anchor="start" x="878" y="-461.3" font-family="Times,serif" font-size="14.00" fill="#000000"> : </text>
<text text-anchor="start" x="890" y="-461.3" font-family="mono" font-size="14.00" fill="#c83500">string</text>
</g>
<!-- ExpectedResponse -->
<g id="node7" class="node">
<title>ExpectedResponse</title>
<polygon fill="#8ccbf2" stroke="transparent" points="47,-25 47,-46 206,-46 206,-25 47,-25"/>
<polygon fill="none" stroke="#8ccbf2" points="47,-25 47,-46 206,-46 206,-25 47,-25"/>
<text text-anchor="start" x="60" y="-32.8" font-family="mono" font-weight="bold" font-size="14.00" fill="#c83500">ExpectedResponse</text>
<polygon fill="#ddeeff" stroke="transparent" points="47,-4 47,-25 206,-25 206,-4 47,-4"/>
<polygon fill="none" stroke="#8ccbf2" points="47,-4 47,-25 206,-25 206,-4 47,-4"/>
<text text-anchor="start" x="50" y="-11.8" font-family="mono" font-size="14.00" fill="#c83500">contentType</text>
<text text-anchor="start" x="141" y="-11.8" font-family="Times,serif" font-size="14.00" fill="#000000"> : </text>
<text text-anchor="start" x="153" y="-11.8" font-family="mono" font-size="14.00" fill="#c83500">string</text>
</g>
<!-- Form&#45;&gt;ExpectedResponse -->
<g id="edge5" class="edge">
<title>Form&#45;&gt;ExpectedResponse</title>
<path fill="none" stroke="#000000" d="M126,-100.8506C126,-86.7022 126,-72.5946 126,-60.4513"/>
<polygon fill="#000000" stroke="#000000" points="129.5001,-60.3339 126,-50.334 122.5001,-60.334 129.5001,-60.3339"/>
<text text-anchor="start" x="126" y="-71.8" font-family="mono" font-size="14.00" fill="#c83500">response</text>
<text text-anchor="middle" x="114.5" y="-54.134" font-family="Times,serif" font-size="14.00" fill="#000000">0..1</text>
</g>
<!-- Thing -->
<g id="node5" class="node">
<title>Thing</title>
<polygon fill="#8ccbf2" stroke="transparent" points="568,-827.5 568,-848.5 839,-848.5 839,-827.5 568,-827.5"/>
<polygon fill="none" stroke="#8ccbf2" points="568,-827.5 568,-848.5 839,-848.5 839,-827.5 568,-827.5"/>
<text text-anchor="start" x="682.5" y="-835.3" font-family="mono" font-weight="bold" font-size="14.00" fill="#c83500">Thing</text>
<polygon fill="#ddeeff" stroke="transparent" points="568,-806.5 568,-827.5 839,-827.5 839,-806.5 568,-806.5"/>
<polygon fill="none" stroke="#8ccbf2" points="568,-806.5 568,-827.5 839,-827.5 839,-806.5 568,-806.5"/>
<text text-anchor="start" x="571" y="-814.3" font-family="mono" font-size="14.00" fill="#c83500">@context</text>
<text text-anchor="start" x="638" y="-814.3" font-family="Times,serif" font-size="14.00" fill="#000000"> : </text>
<text text-anchor="start" x="650" y="-814.3" font-family="Times,serif" font-style="italic" font-size="14.00" fill="#000000">array of </text>
<text text-anchor="start" x="701" y="-814.3" font-family="mono" font-size="14.00" fill="#c83500">context</text>
<text text-anchor="start" x="759" y="-814.3" font-family="Times,serif" font-size="14.00" fill="#000000"> </text>
<text text-anchor="start" x="763" y="-814.3" font-family="Times,serif" font-style="italic" font-size="14.00" fill="#000000">(mandatory)</text>
<polygon fill="#ddeeff" stroke="transparent" points="568,-785.5 568,-806.5 839,-806.5 839,-785.5 568,-785.5"/>
<polygon fill="none" stroke="#8ccbf2" points="568,-785.5 568,-806.5 839,-806.5 839,-785.5 568,-785.5"/>
<text text-anchor="start" x="571" y="-793.3" font-family="mono" font-size="14.00" fill="#c83500">@type</text>
<text text-anchor="start" x="613" y="-793.3" font-family="Times,serif" font-size="14.00" fill="#000000"> : </text>
<text text-anchor="start" x="625" y="-793.3" font-family="Times,serif" font-style="italic" font-size="14.00" fill="#000000">array of </text>
<text text-anchor="start" x="676" y="-793.3" font-family="mono" font-size="14.00" fill="#c83500">string</text>
<polygon fill="#ddeeff" stroke="transparent" points="568,-764.5 568,-785.5 839,-785.5 839,-764.5 568,-764.5"/>
<polygon fill="none" stroke="#8ccbf2" points="568,-764.5 568,-785.5 839,-785.5 839,-764.5 568,-764.5"/>
<text text-anchor="start" x="571" y="-772.3" font-family="mono" font-size="14.00" fill="#c83500">id</text>
<text text-anchor="start" x="588" y="-772.3" font-family="Times,serif" font-size="14.00" fill="#000000"> : </text>
<text text-anchor="start" x="600" y="-772.3" font-family="mono" font-size="14.00" fill="#c83500">anyURI</text>
<text text-anchor="start" x="650" y="-772.3" font-family="Times,serif" font-size="14.00" fill="#000000"> </text>
<text text-anchor="start" x="654" y="-772.3" font-family="Times,serif" font-style="italic" font-size="14.00" fill="#000000">(mandatory)</text>
<polygon fill="#ddeeff" stroke="transparent" points="568,-743.5 568,-764.5 839,-764.5 839,-743.5 568,-743.5"/>
<polygon fill="none" stroke="#8ccbf2" points="568,-743.5 568,-764.5 839,-764.5 839,-743.5 568,-743.5"/>
<text text-anchor="start" x="571" y="-751.3" font-family="mono" font-size="14.00" fill="#c83500">base</text>
<text text-anchor="start" x="605" y="-751.3" font-family="Times,serif" font-size="14.00" fill="#000000"> : </text>
<text text-anchor="start" x="617" y="-751.3" font-family="mono" font-size="14.00" fill="#c83500">anyURI</text>
<polygon fill="#ddeeff" stroke="transparent" points="568,-722.5 568,-743.5 839,-743.5 839,-722.5 568,-722.5"/>
<polygon fill="none" stroke="#8ccbf2" points="568,-722.5 568,-743.5 839,-743.5 839,-722.5 568,-722.5"/>
<text text-anchor="start" x="571" y="-730.3" font-family="mono" font-size="14.00" fill="#c83500">lastModified</text>
<text text-anchor="start" x="671" y="-730.3" font-family="Times,serif" font-size="14.00" fill="#000000"> : </text>
<text text-anchor="start" x="683" y="-730.3" font-family="mono" font-size="14.00" fill="#c83500">string</text>
<polygon fill="#ddeeff" stroke="transparent" points="568,-701.5 568,-722.5 839,-722.5 839,-701.5 568,-701.5"/>
<polygon fill="none" stroke="#8ccbf2" points="568,-701.5 568,-722.5 839,-722.5 839,-701.5 568,-701.5"/>
<text text-anchor="start" x="571" y="-709.3" font-family="mono" font-size="14.00" fill="#c83500">name</text>
<text text-anchor="start" x="605" y="-709.3" font-family="Times,serif" font-size="14.00" fill="#000000"> : </text>
<text text-anchor="start" x="617" y="-709.3" font-family="mono" font-size="14.00" fill="#c83500">string</text>
<text text-anchor="start" x="667" y="-709.3" font-family="Times,serif" font-size="14.00" fill="#000000"> </text>
<text text-anchor="start" x="671" y="-709.3" font-family="Times,serif" font-style="italic" font-size="14.00" fill="#000000">(mandatory)</text>
<polygon fill="#ddeeff" stroke="transparent" points="568,-680.5 568,-701.5 839,-701.5 839,-680.5 568,-680.5"/>
<polygon fill="none" stroke="#8ccbf2" points="568,-680.5 568,-701.5 839,-701.5 839,-680.5 568,-680.5"/>
<text text-anchor="start" x="571" y="-688.3" font-family="mono" font-size="14.00" fill="#c83500">security</text>
<text text-anchor="start" x="638" y="-688.3" font-family="Times,serif" font-size="14.00" fill="#000000"> : array of </text>
<text text-anchor="start" x="698" y="-688.3" font-family="mono" font-size="14.00" fill="#c83500">string</text>
<text text-anchor="start" x="748" y="-688.3" font-family="Times,serif" font-size="14.00" fill="#000000"> </text>
<text text-anchor="start" x="752" y="-688.3" font-family="Times,serif" font-style="italic" font-size="14.00" fill="#000000">(mandatory)</text>
<polygon fill="#ddeeff" stroke="transparent" points="568,-659.5 568,-680.5 839,-680.5 839,-659.5 568,-659.5"/>
<polygon fill="none" stroke="#8ccbf2" points="568,-659.5 568,-680.5 839,-680.5 839,-659.5 568,-659.5"/>
<text text-anchor="start" x="571" y="-667.3" font-family="mono" font-size="14.00" fill="#c83500">created</text>
<text text-anchor="start" x="629" y="-667.3" font-family="Times,serif" font-size="14.00" fill="#000000"> : </text>
<text text-anchor="start" x="641" y="-667.3" font-family="mono" font-size="14.00" fill="#c83500">string</text>
<polygon fill="#ddeeff" stroke="transparent" points="568,-638.5 568,-659.5 839,-659.5 839,-638.5 568,-638.5"/>
<polygon fill="none" stroke="#8ccbf2" points="568,-638.5 568,-659.5 839,-659.5 839,-638.5 568,-638.5"/>
<text text-anchor="start" x="571" y="-646.3" font-family="mono" font-size="14.00" fill="#c83500">support</text>
<text text-anchor="start" x="629" y="-646.3" font-family="Times,serif" font-size="14.00" fill="#000000"> : </text>
<text text-anchor="start" x="641" y="-646.3" font-family="mono" font-size="14.00" fill="#c83500">string</text>
<polygon fill="#ddeeff" stroke="transparent" points="568,-617.5 568,-638.5 839,-638.5 839,-617.5 568,-617.5"/>
<polygon fill="none" stroke="#8ccbf2" points="568,-617.5 568,-638.5 839,-638.5 839,-617.5 568,-617.5"/>
<text text-anchor="start" x="571" y="-625.3" font-family="mono" font-size="14.00" fill="#c83500">description</text>
<text text-anchor="start" x="662" y="-625.3" font-family="Times,serif" font-size="14.00" fill="#000000"> : </text>
<text text-anchor="start" x="674" y="-625.3" font-family="mono" font-size="14.00" fill="#c83500">string</text>
</g>
<!-- Thing&#45;&gt;MultiLanguage -->
<g id="edge10" class="edge">
<title>Thing&#45;&gt;MultiLanguage</title>
<path fill="none" stroke="#000000" d="M559.2029,-703.1456C429.0097,-672.4011 251.4418,-621.1824 210,-563 188.9509,-533.448 200.7376,-300.2133 219,-274 230.6092,-257.3365 244.3156,-267.5791 261,-256 281.5633,-241.7289 300.9524,-221.0512 314.7214,-204.6432"/>
<polygon fill="#000000" stroke="#000000" points="317.7557,-206.4622 321.3858,-196.5087 312.3409,-202.026 317.7557,-206.4622"/>
<text text-anchor="start" x="200" y="-420.8" font-family="mono" font-size="14.00" fill="#c83500">descriptions</text>
<text text-anchor="middle" x="332.8858" y="-200.3087" font-family="Times,serif" font-size="14.00" fill="#000000">0..1</text>
</g>
<!-- Thing&#45;&gt;Link -->
<g id="edge12" class="edge">
<title>Thing&#45;&gt;Link</title>
<path fill="none" stroke="#000000" d="M827.5653,-613.685C843.1344,-598.7098 858.5505,-583.8815 872.7251,-570.2474"/>
<polygon fill="#000000" stroke="#000000" points="875.2377,-572.687 880.0186,-563.2321 870.3851,-567.6419 875.2377,-572.687"/>
<text text-anchor="start" x="856" y="-584.8" font-family="mono" font-size="14.00" fill="#c83500">links</text>
<text text-anchor="middle" x="868.5186" y="-567.0321" font-family="Times,serif" font-size="14.00" fill="#000000">0..*</text>
</g>
<!-- Thing&#45;&gt;Form -->
<g id="edge8" class="edge">
<title>Thing&#45;&gt;Form</title>
<path fill="none" stroke="#000000" d="M559.4006,-713.4741C459.7913,-694.6823 327.1896,-659.576 225,-596 117.8334,-529.3277 109.1559,-368.0296 115.5419,-266.5647"/>
<polygon fill="#000000" stroke="#000000" points="119.0514,-266.5463 116.2498,-256.3287 112.0681,-266.0633 119.0514,-266.5463"/>
<text text-anchor="start" x="125" y="-420.8" font-family="mono" font-size="14.00" fill="#c83500">forms</text>
<text text-anchor="middle" x="104.7498" y="-260.1287" font-family="Times,serif" font-size="14.00" fill="#000000">0..*</text>
</g>
<!-- Property -->
<g id="node6" class="node">
<title>Property</title>
<polygon fill="#8ccbf2" stroke="transparent" points="227,-506.5 227,-527.5 463,-527.5 463,-506.5 227,-506.5"/>
<polygon fill="none" stroke="#8ccbf2" points="227,-506.5 227,-527.5 463,-527.5 463,-506.5 227,-506.5"/>
<text text-anchor="start" x="311.5" y="-514.3" font-family="mono" font-weight="bold" font-size="14.00" fill="#c83500">Property</text>
<polygon fill="#ddeeff" stroke="transparent" points="227,-485.5 227,-506.5 463,-506.5 463,-485.5 227,-485.5"/>
<polygon fill="none" stroke="#8ccbf2" points="227,-485.5 227,-506.5 463,-506.5 463,-485.5 227,-485.5"/>
<text text-anchor="start" x="230" y="-493.3" font-family="mono" font-size="14.00" fill="#c83500">observable</text>
<text text-anchor="start" x="313" y="-493.3" font-family="Times,serif" font-size="14.00" fill="#000000"> : </text>
<text text-anchor="start" x="325" y="-493.3" font-family="mono" font-size="14.00" fill="#c83500">boolean</text>
<text text-anchor="start" x="383" y="-493.3" font-family="Times,serif" font-size="14.00" fill="#000000"> </text>
<text text-anchor="start" x="387" y="-493.3" font-family="Times,serif" font-style="italic" font-size="14.00" fill="#000000">(mandatory)</text>
</g>
<!-- Thing&#45;&gt;Property -->
<g id="edge7" class="edge">
<title>Thing&#45;&gt;Property</title>
<path fill="none" stroke="#000000" d="M559.4505,-642.4784C500.3037,-604.9747 435.7775,-564.06 393.1198,-537.0117"/>
<polygon fill="#000000" stroke="#000000" points="394.9433,-534.0237 384.6236,-531.6245 391.1947,-539.9354 394.9433,-534.0237"/>
<text text-anchor="start" x="482" y="-584.8" font-family="mono" font-size="14.00" fill="#c83500">properties</text>
<text text-anchor="middle" x="373.1236" y="-535.4245" font-family="Times,serif" font-size="14.00" fill="#000000">0..1</text>
</g>
<!-- VersionInfo -->
<g id="node8" class="node">
<title>VersionInfo</title>
<polygon fill="#8ccbf2" stroke="transparent" points="1063,-506.5 1063,-527.5 1275,-527.5 1275,-506.5 1063,-506.5"/>
<polygon fill="none" stroke="#8ccbf2" points="1063,-506.5 1063,-527.5 1275,-527.5 1275,-506.5 1063,-506.5"/>
<text text-anchor="start" x="1123.5" y="-514.3" font-family="mono" font-weight="bold" font-size="14.00" fill="#c83500">VersionInfo</text>
<polygon fill="#ddeeff" stroke="transparent" points="1063,-485.5 1063,-506.5 1275,-506.5 1275,-485.5 1063,-485.5"/>
<polygon fill="none" stroke="#8ccbf2" points="1063,-485.5 1063,-506.5 1275,-506.5 1275,-485.5 1063,-485.5"/>
<text text-anchor="start" x="1066" y="-493.3" font-family="mono" font-size="14.00" fill="#c83500">instance</text>
<text text-anchor="start" x="1133" y="-493.3" font-family="Times,serif" font-size="14.00" fill="#000000"> : </text>
<text text-anchor="start" x="1145" y="-493.3" font-family="mono" font-size="14.00" fill="#c83500">string</text>
<text text-anchor="start" x="1195" y="-493.3" font-family="Times,serif" font-size="14.00" fill="#000000"> </text>
<text text-anchor="start" x="1199" y="-493.3" font-family="Times,serif" font-style="italic" font-size="14.00" fill="#000000">(mandatory)</text>
</g>
<!-- Thing&#45;&gt;VersionInfo -->
<g id="edge13" class="edge">
<title>Thing&#45;&gt;VersionInfo</title>
<path fill="none" stroke="#000000" d="M846.6178,-663.5403C934.6073,-620.6784 1042.6417,-568.0522 1108.6214,-535.9119"/>
<polygon fill="#000000" stroke="#000000" points="1110.1885,-539.0418 1117.6458,-531.5159 1107.1229,-532.7487 1110.1885,-539.0418"/>
<text text-anchor="start" x="1005" y="-584.8" font-family="mono" font-size="14.00" fill="#c83500">version</text>
<text text-anchor="middle" x="1106.1458" y="-535.3159" font-family="Times,serif" font-size="14.00" fill="#000000">0..1</text>
</g>
<!-- Action -->
<g id="node9" class="node">
<title>Action</title>
<polygon fill="#8ccbf2" stroke="transparent" points="497,-516.5 497,-537.5 733,-537.5 733,-516.5 497,-516.5"/>
<polygon fill="none" stroke="#8ccbf2" points="497,-516.5 497,-537.5 733,-537.5 733,-516.5 497,-516.5"/>
<text text-anchor="start" x="590" y="-524.3" font-family="mono" font-weight="bold" font-size="14.00" fill="#c83500">Action</text>
<polygon fill="#ddeeff" stroke="transparent" points="497,-495.5 497,-516.5 733,-516.5 733,-495.5 497,-495.5"/>
<polygon fill="none" stroke="#8ccbf2" points="497,-495.5 497,-516.5 733,-516.5 733,-495.5 497,-495.5"/>
<text text-anchor="start" x="500" y="-503.3" font-family="mono" font-size="14.00" fill="#c83500">idempotent</text>
<text text-anchor="start" x="583" y="-503.3" font-family="Times,serif" font-size="14.00" fill="#000000"> : </text>
<text text-anchor="start" x="595" y="-503.3" font-family="mono" font-size="14.00" fill="#c83500">boolean</text>
<text text-anchor="start" x="653" y="-503.3" font-family="Times,serif" font-size="14.00" fill="#000000"> </text>
<text text-anchor="start" x="657" y="-503.3" font-family="Times,serif" font-style="italic" font-size="14.00" fill="#000000">(mandatory)</text>
<polygon fill="#ddeeff" stroke="transparent" points="497,-474.5 497,-495.5 733,-495.5 733,-474.5 497,-474.5"/>
<polygon fill="none" stroke="#8ccbf2" points="497,-474.5 497,-495.5 733,-495.5 733,-474.5 497,-474.5"/>
<text text-anchor="start" x="500" y="-482.3" font-family="mono" font-size="14.00" fill="#c83500">safe</text>
<text text-anchor="start" x="534" y="-482.3" font-family="Times,serif" font-size="14.00" fill="#000000"> : </text>
<text text-anchor="start" x="546" y="-482.3" font-family="mono" font-size="14.00" fill="#c83500">boolean</text>
<text text-anchor="start" x="604" y="-482.3" font-family="Times,serif" font-size="14.00" fill="#000000"> </text>
<text text-anchor="start" x="608" y="-482.3" font-family="Times,serif" font-style="italic" font-size="14.00" fill="#000000">(mandatory)</text>
</g>
<!-- Thing&#45;&gt;Action -->
<g id="edge9" class="edge">
<title>Thing&#45;&gt;Action</title>
<path fill="none" stroke="#000000" d="M656.5519,-613.685C647.9363,-591.4607 639.4462,-569.5602 632.4085,-551.4061"/>
<polygon fill="#000000" stroke="#000000" points="635.6404,-550.0597 628.7625,-542.0009 629.1137,-552.5899 635.6404,-550.0597"/>
<text text-anchor="start" x="649" y="-584.8" font-family="mono" font-size="14.00" fill="#c83500">actions</text>
<text text-anchor="middle" x="617.2625" y="-545.8009" font-family="Times,serif" font-size="14.00" fill="#000000">0..1</text>
</g>
<!-- Event -->
<g id="node10" class="node">
<title>Event</title>
<polygon fill="#8ccbf2" stroke="transparent" points="767,-495.5 767,-516.5 815,-516.5 815,-495.5 767,-495.5"/>
<polygon fill="none" stroke="#8ccbf2" points="767,-495.5 767,-516.5 815,-516.5 815,-495.5 767,-495.5"/>
<text text-anchor="start" x="770" y="-503.3" font-family="mono" font-weight="bold" font-size="14.00" fill="#c83500">Event</text>
</g>
<!-- Thing&#45;&gt;Event -->
<g id="edge11" class="edge">
<title>Thing&#45;&gt;Event</title>
<path fill="none" stroke="#000000" d="M749.4481,-613.685C761.0415,-583.7794 772.4075,-554.4603 780.3134,-534.0667"/>
<polygon fill="#000000" stroke="#000000" points="783.6573,-535.1238 784.0086,-524.5347 777.1306,-532.5935 783.6573,-535.1238"/>
<text text-anchor="start" x="761" y="-584.8" font-family="mono" font-size="14.00" fill="#c83500">events</text>
<text text-anchor="middle" x="772.5086" y="-528.3347" font-family="Times,serif" font-size="14.00" fill="#000000">0..1</text>
</g>
<!-- SecurityScheme -->
<g id="node12" class="node">
<title>SecurityScheme</title>
<polygon fill="#f2f2f2" stroke="transparent" points="1309,-495.5 1309,-516.5 1431,-516.5 1431,-495.5 1309,-495.5"/>
<polygon fill="none" stroke="#8c8c8c" points="1309,-495.5 1309,-516.5 1431,-516.5 1431,-495.5 1309,-495.5"/>
<text text-anchor="start" x="1312" y="-503.3" font-family="mono" font-weight="bold" font-size="14.00" fill="#000000">SecurityScheme</text>
</g>
<!-- Thing&#45;&gt;SecurityScheme -->
<g id="edge6" class="edge">
<title>Thing&#45;&gt;SecurityScheme</title>
<path fill="none" stroke="#000000" d="M846.6896,-706.4522C969.1841,-680.0345 1147.7989,-633.4287 1292,-563 1309.4581,-554.4733 1327.1373,-542.0472 1341.2402,-531.018"/>
<polygon fill="#000000" stroke="#000000" points="1343.4817,-533.707 1349.1019,-524.7256 1339.1075,-528.2419 1343.4817,-533.707"/>
<text text-anchor="start" x="1246" y="-584.8" font-family="mono" font-size="14.00" fill="#c83500">securityDefinitions</text>
<text text-anchor="middle" x="1337.6019" y="-528.5256" font-family="Times,serif" font-size="14.00" fill="#000000">1..1</text>
</g>
<!-- Property&#45;&gt;InteractionPattern -->
<g id="edge21" class="edge">
<title>Property&#45;&gt;InteractionPattern</title>
<path fill="none" stroke="#000000" d="M347.7692,-481.4959C349.9357,-461.9335 353.032,-433.9757 355.7835,-409.1313"/>
<polygon fill="#ffffff" stroke="#000000" points="359.2757,-409.3942 356.8978,-399.0697 352.3182,-408.6236 359.2757,-409.3942"/>
</g>
<!-- Action&#45;&gt;InteractionPattern -->
<g id="edge19" class="edge">
<title>Action&#45;&gt;InteractionPattern</title>
<path fill="none" stroke="#000000" d="M556.3208,-470.8982C523.752,-451.1381 482.6678,-426.2115 446.6742,-404.3735"/>
<polygon fill="#ffffff" stroke="#000000" points="448.4877,-401.38 438.1227,-399.1851 444.8567,-407.3646 448.4877,-401.38"/>
</g>
<!-- Action&#45;&gt;DataSchema -->
<g id="edge14" class="edge">
<title>Action&#45;&gt;DataSchema</title>
<path fill="none" stroke="#000000" d="M607.4702,-470.952C600.4393,-430.0005 593.7677,-361.3728 614,-307 629.8137,-264.5021 666.6969,-226.6831 693.6216,-203.2628"/>
<polygon fill="#000000" stroke="#000000" points="695.9219,-205.901 701.274,-196.7574 691.3881,-200.5677 695.9219,-205.901"/>
<text text-anchor="start" x="614" y="-349.3" font-family="mono" font-size="14.00" fill="#c83500">output</text>
<text text-anchor="middle" x="689.774" y="-200.5574" font-family="Times,serif" font-size="14.00" fill="#000000">0..1</text>
</g>
<!-- Action&#45;&gt;DataSchema -->
<g id="edge15" class="edge">
<title>Action&#45;&gt;DataSchema</title>
<path fill="none" stroke="#000000" d="M633.0057,-470.7681C642.9689,-450.128 655.0978,-423.48 664,-399 688.6522,-331.2097 709.0264,-248.6319 718.7858,-206.364"/>
<polygon fill="#000000" stroke="#000000" points="722.2196,-207.0483 721.0344,-196.5199 715.3954,-205.4894 722.2196,-207.0483"/>
<text text-anchor="start" x="693" y="-349.3" font-family="mono" font-size="14.00" fill="#c83500">input</text>
<text text-anchor="middle" x="732.5344" y="-200.3199" font-family="Times,serif" font-size="14.00" fill="#000000">0..1</text>
</g>
<!-- Event&#45;&gt;InteractionPattern -->
<g id="edge20" class="edge">
<title>Event&#45;&gt;InteractionPattern</title>
<path fill="none" stroke="#000000" d="M782.1855,-488.3291C775.1608,-475.7328 764.1613,-459.5644 750,-450 725.9022,-433.7246 567.1977,-397.2135 460.3722,-373.9195"/>
<polygon fill="#ffffff" stroke="#000000" points="461.0402,-370.483 450.5248,-371.7775 459.5524,-377.323 461.0402,-370.483"/>
</g>
<!-- Event&#45;&gt;DataSchema -->
<g id="edge16" class="edge">
<title>Event&#45;&gt;DataSchema</title>
<path fill="none" stroke="#000000" d="M787.3575,-488.3981C776.4269,-434.0761 743.849,-272.1737 730.6486,-206.5717"/>
<polygon fill="#000000" stroke="#000000" points="734.0352,-205.659 728.6312,-196.546 727.1727,-207.0399 734.0352,-205.659"/>
<text text-anchor="start" x="769" y="-349.3" font-family="mono" font-size="14.00" fill="#c83500">cancellation</text>
<text text-anchor="middle" x="717.1312" y="-200.346" font-family="Times,serif" font-size="14.00" fill="#000000">0..1</text>
</g>
<!-- Event&#45;&gt;DataSchema -->
<g id="edge17" class="edge">
<title>Event&#45;&gt;DataSchema</title>
<path fill="none" stroke="#000000" d="M803.885,-488.2664C811.8507,-477.1149 822.3609,-462.6157 832,-450 849.657,-426.8903 863.3405,-426.4321 873,-399 886.5805,-360.4323 889.9674,-344.2023 873,-307 851.6518,-260.1926 803.8996,-223.8536 768.3764,-201.9437"/>
<polygon fill="#000000" stroke="#000000" points="770.0059,-198.8396 759.6321,-196.6867 766.3991,-204.8389 770.0059,-198.8396"/>
<text text-anchor="start" x="885" y="-349.3" font-family="mono" font-size="14.00" fill="#c83500">subscription</text>
<text text-anchor="middle" x="771.1321" y="-200.4867" font-family="Times,serif" font-size="14.00" fill="#000000">0..1</text>
</g>
<!-- Event&#45;&gt;DataSchema -->
<g id="edge18" class="edge">
<title>Event&#45;&gt;DataSchema</title>
<path fill="none" stroke="#000000" d="M800.1719,-488.3563C807.3003,-475.9389 818.2756,-459.9766 832,-450 891.3443,-406.861 945.8738,-458.3536 989,-399 1013.0351,-365.9211 1010.6817,-341.6671 989,-307 945.1265,-236.8502 850.7563,-203.9979 787.5619,-189.3477"/>
<polygon fill="#000000" stroke="#000000" points="788.2217,-185.909 777.6998,-187.1498 786.699,-192.7414 788.2217,-185.909"/>
<text text-anchor="start" x="1007" y="-349.3" font-family="mono" font-size="14.00" fill="#c83500">data</text>
<text text-anchor="middle" x="789.1998" y="-175.9498" font-family="Times,serif" font-size="14.00" fill="#000000">0..1</text>
</g>
</g>
</svg>
