<?xml version="1.0" encoding="UTF-8" standalone="no"?>
<!DOCTYPE svg PUBLIC "-//W3C//DTD SVG 1.1//EN"
 "http://www.w3.org/Graphics/SVG/1.1/DTD/svg11.dtd">
<!-- Generated by graphviz version 2.38.0 (20140413.2041)
 -->
<!-- Title: %3 Pages: 1 -->
<svg width="1274pt" height="840pt"
 viewBox="0.00 0.00 1273.98 840.00" xmlns="http://www.w3.org/2000/svg" xmlns:xlink="http://www.w3.org/1999/xlink">
<g id="graph0" class="graph" transform="scale(1 1) rotate(0) translate(4 836)">
<title>%3</title>
<polygon fill="white" stroke="none" points="-4,4 -4,-836 1269.98,-836 1269.98,4 -4,4"/>
<!-- MultiLanguage -->
<g id="node1" class="node"><title>MultiLanguage</title>
<polygon fill="#8ccbf2" stroke="none" points="82.9831,-167.5 82.9831,-188.5 196.983,-188.5 196.983,-167.5 82.9831,-167.5"/>
<polygon fill="none" stroke="#8ccbf2" points="82.9831,-167.5 82.9831,-188.5 196.983,-188.5 196.983,-167.5 82.9831,-167.5"/>
<text text-anchor="start" x="85.9831" y="-175.3" font-family="mono" font-weight="bold" font-size="14.00" fill="#c83500">MultiLanguage</text>
</g>
<!-- InteractionPattern -->
<g id="node2" class="node"><title>InteractionPattern</title>
<polygon fill="#8ccbf2" stroke="none" points="278.983,-394.5 278.983,-415.5 459.983,-415.5 459.983,-394.5 278.983,-394.5"/>
<polygon fill="none" stroke="#8ccbf2" points="278.983,-394.5 278.983,-415.5 459.983,-415.5 459.983,-394.5 278.983,-394.5"/>
<text text-anchor="start" x="294.983" y="-402.3" font-family="mono" font-weight="bold" font-size="14.00" fill="#c83500">InteractionPattern</text>
<polygon fill="#ddeeff" stroke="none" points="278.983,-373.5 278.983,-394.5 459.983,-394.5 459.983,-373.5 278.983,-373.5"/>
<polygon fill="none" stroke="#8ccbf2" points="278.983,-373.5 278.983,-394.5 459.983,-394.5 459.983,-373.5 278.983,-373.5"/>
<text text-anchor="start" x="281.983" y="-381.3" font-family="mono" font-size="14.00" fill="#c83500">security</text>
<text text-anchor="start" x="348.983" y="-381.3" font-family="Times New Roman,serif" font-size="14.00"> : array of </text>
<text text-anchor="start" x="406.983" y="-381.3" font-family="mono" font-size="14.00" fill="#c83500">string</text>
<polygon fill="#ddeeff" stroke="none" points="278.983,-352.5 278.983,-373.5 459.983,-373.5 459.983,-352.5 278.983,-352.5"/>
<polygon fill="none" stroke="#8ccbf2" points="278.983,-352.5 278.983,-373.5 459.983,-373.5 459.983,-352.5 278.983,-352.5"/>
<text text-anchor="start" x="281.983" y="-360.3" font-family="mono" font-size="14.00" fill="#c83500">description</text>
<text text-anchor="start" x="372.983" y="-360.3" font-family="Times New Roman,serif" font-size="14.00"> : </text>
<text text-anchor="start" x="383.983" y="-360.3" font-family="mono" font-size="14.00" fill="#c83500">string</text>
<polygon fill="#ddeeff" stroke="none" points="278.983,-331.5 278.983,-352.5 459.983,-352.5 459.983,-331.5 278.983,-331.5"/>
<polygon fill="none" stroke="#8ccbf2" points="278.983,-331.5 278.983,-352.5 459.983,-352.5 459.983,-331.5 278.983,-331.5"/>
<text text-anchor="start" x="281.983" y="-339.3" font-family="mono" font-size="14.00" fill="#c83500">scopes</text>
<text text-anchor="start" x="331.983" y="-339.3" font-family="Times New Roman,serif" font-size="14.00"> : array of </text>
<text text-anchor="start" x="389.983" y="-339.3" font-family="mono" font-size="14.00" fill="#c83500">string</text>
<polygon fill="#ddeeff" stroke="none" points="278.983,-310.5 278.983,-331.5 459.983,-331.5 459.983,-310.5 278.983,-310.5"/>
<polygon fill="none" stroke="#8ccbf2" points="278.983,-310.5 278.983,-331.5 459.983,-331.5 459.983,-310.5 278.983,-310.5"/>
<text text-anchor="start" x="281.983" y="-318.3" font-family="mono" font-size="14.00" fill="#c83500">title</text>
<text text-anchor="start" x="323.983" y="-318.3" font-family="Times New Roman,serif" font-size="14.00"> : </text>
<text text-anchor="start" x="334.983" y="-318.3" font-family="mono" font-size="14.00" fill="#c83500">string</text>
</g>
<!-- InteractionPattern&#45;&gt;MultiLanguage -->
<g id="edge2" class="edge"><title>InteractionPattern&#45;&gt;MultiLanguage</title>
<path fill="none" stroke="black" d="M281.455,-306.859C258.811,-291.265 234.924,-273.71 213.983,-256 195.12,-240.047 175.777,-219.892 161.599,-204.275"/>
<polygon fill="black" stroke="black" points="163.969,-201.675 154.686,-196.568 158.758,-206.349 163.969,-201.675"/>
<text text-anchor="start" x="254.983" y="-277.8" font-family="mono" font-size="14.00" fill="#c83500">descriptions</text>
<text text-anchor="middle" x="165.686" y="-200.368" font-family="Times New Roman,serif" font-size="14.00">0..1</text>
</g>
<!-- InteractionPattern&#45;&gt;MultiLanguage -->
<g id="edge3" class="edge"><title>InteractionPattern&#45;&gt;MultiLanguage</title>
<path fill="none" stroke="black" d="M270.064,-339.694C239.381,-328.604 207.489,-312.414 183.983,-289 161.476,-266.581 150.092,-231.149 144.614,-206.693"/>
<polygon fill="black" stroke="black" points="147.989,-205.728 142.552,-196.634 141.131,-207.133 147.989,-205.728"/>
<text text-anchor="start" x="183.983" y="-277.8" font-family="mono" font-size="14.00" fill="#c83500">titles</text>
<text text-anchor="middle" x="131.552" y="-200.434" font-family="Times New Roman,serif" font-size="14.00">0..1</text>
</g>
<!-- Form -->
<g id="node4" class="node"><title>Form</title>
<polygon fill="#8ccbf2" stroke="none" points="231.983,-230.5 231.983,-251.5 570.983,-251.5 570.983,-230.5 231.983,-230.5"/>
<polygon fill="none" stroke="#8ccbf2" points="231.983,-230.5 231.983,-251.5 570.983,-251.5 570.983,-230.5 231.983,-230.5"/>
<text text-anchor="start" x="384.483" y="-238.3" font-family="mono" font-weight="bold" font-size="14.00" fill="#c83500">Form</text>
<polygon fill="#ddeeff" stroke="none" points="231.983,-209.5 231.983,-230.5 570.983,-230.5 570.983,-209.5 231.983,-209.5"/>
<polygon fill="none" stroke="#8ccbf2" points="231.983,-209.5 231.983,-230.5 570.983,-230.5 570.983,-209.5 231.983,-209.5"/>
<text text-anchor="start" x="234.983" y="-217.3" font-family="mono" font-size="14.00" fill="#c83500">scopes</text>
<text text-anchor="start" x="284.983" y="-217.3" font-family="Times New Roman,serif" font-size="14.00"> : array of </text>
<text text-anchor="start" x="342.983" y="-217.3" font-family="mono" font-size="14.00" fill="#c83500">string</text>
<polygon fill="#ddeeff" stroke="none" points="231.983,-188.5 231.983,-209.5 570.983,-209.5 570.983,-188.5 231.983,-188.5"/>
<polygon fill="none" stroke="#8ccbf2" points="231.983,-188.5 231.983,-209.5 570.983,-209.5 570.983,-188.5 231.983,-188.5"/>
<text text-anchor="start" x="234.983" y="-196.3" font-family="mono" font-size="14.00" fill="#c83500">security</text>
<text text-anchor="start" x="301.983" y="-196.3" font-family="Times New Roman,serif" font-size="14.00"> : array of </text>
<text text-anchor="start" x="359.983" y="-196.3" font-family="mono" font-size="14.00" fill="#c83500">string</text>
<polygon fill="#ddeeff" stroke="none" points="231.983,-167.5 231.983,-188.5 570.983,-188.5 570.983,-167.5 231.983,-167.5"/>
<polygon fill="none" stroke="#8ccbf2" points="231.983,-167.5 231.983,-188.5 570.983,-188.5 570.983,-167.5 231.983,-167.5"/>
<text text-anchor="start" x="234.983" y="-175.3" font-family="mono" font-size="14.00" fill="#c83500">contentType</text>
<text text-anchor="start" x="325.983" y="-175.3" font-family="Times New Roman,serif" font-size="14.00"> : </text>
<text text-anchor="start" x="336.983" y="-175.3" font-family="mono" font-size="14.00" fill="#c83500">string</text>
<text text-anchor="start" x="386.983" y="-175.3" font-family="Times New Roman,serif" font-size="14.00"> = application/json </text>
<text text-anchor="start" x="494.983" y="-175.3" font-family="Times New Roman,serif" font-style="italic" font-size="14.00">(mandatory)</text>
<polygon fill="#ddeeff" stroke="none" points="231.983,-146.5 231.983,-167.5 570.983,-167.5 570.983,-146.5 231.983,-146.5"/>
<polygon fill="none" stroke="#8ccbf2" points="231.983,-146.5 231.983,-167.5 570.983,-167.5 570.983,-146.5 231.983,-146.5"/>
<text text-anchor="start" x="234.983" y="-154.3" font-family="mono" font-size="14.00" fill="#c83500">subprotocol</text>
<text text-anchor="start" x="325.983" y="-154.3" font-family="Times New Roman,serif" font-size="14.00"> : </text>
<text text-anchor="start" x="336.983" y="-154.3" font-family="mono" font-size="14.00" fill="#c83500">string</text>
<polygon fill="#ddeeff" stroke="none" points="231.983,-125.5 231.983,-146.5 570.983,-146.5 570.983,-125.5 231.983,-125.5"/>
<polygon fill="none" stroke="#8ccbf2" points="231.983,-125.5 231.983,-146.5 570.983,-146.5 570.983,-125.5 231.983,-125.5"/>
<text text-anchor="start" x="234.983" y="-133.3" font-family="mono" font-size="14.00" fill="#c83500">op</text>
<text text-anchor="start" x="251.983" y="-133.3" font-family="Times New Roman,serif" font-size="14.00"> : </text>
<text text-anchor="start" x="262.983" y="-133.3" font-family="mono" font-size="14.00" fill="#c83500">string</text>
<polygon fill="#ddeeff" stroke="none" points="231.983,-104.5 231.983,-125.5 570.983,-125.5 570.983,-104.5 231.983,-104.5"/>
<polygon fill="none" stroke="#8ccbf2" points="231.983,-104.5 231.983,-125.5 570.983,-125.5 570.983,-104.5 231.983,-104.5"/>
<text text-anchor="start" x="234.983" y="-112.3" font-family="mono" font-size="14.00" fill="#c83500">href</text>
<text text-anchor="start" x="268.983" y="-112.3" font-family="Times New Roman,serif" font-size="14.00"> : </text>
<text text-anchor="start" x="279.983" y="-112.3" font-family="mono" font-size="14.00" fill="#c83500">anyURI</text>
<text text-anchor="start" x="329.983" y="-112.3" font-family="Times New Roman,serif" font-size="14.00"> </text>
<text text-anchor="start" x="333.983" y="-112.3" font-family="Times New Roman,serif" font-style="italic" font-size="14.00">(mandatory)</text>
</g>
<!-- InteractionPattern&#45;&gt;Form -->
<g id="edge1" class="edge"><title>InteractionPattern&#45;&gt;Form</title>
<path fill="none" stroke="black" d="M367.031,-306.565C367.379,-295.71 368.251,-284.46 369.983,-274 370.424,-271.337 370.927,-268.647 371.482,-265.943"/>
<polygon fill="black" stroke="black" points="374.913,-266.641 373.707,-256.115 368.085,-265.096 374.913,-266.641"/>
<text text-anchor="start" x="369.983" y="-277.8" font-family="mono" font-size="14.00" fill="#c83500">forms</text>
<text text-anchor="middle" x="362.707" y="-259.915" font-family="Times New Roman,serif" font-size="14.00">1..*</text>
</g>
<!-- DataSchema -->
<g id="node11" class="node"><title>DataSchema</title>
<polygon fill="#f2f2f2" stroke="none" points="636.983,-167.5 636.983,-188.5 725.983,-188.5 725.983,-167.5 636.983,-167.5"/>
<polygon fill="none" stroke="#8c8c8c" points="636.983,-167.5 636.983,-188.5 725.983,-188.5 725.983,-167.5 636.983,-167.5"/>
<text text-anchor="start" x="639.983" y="-175.3" font-family="mono" font-weight="bold" font-size="14.00">DataSchema</text>
</g>
<!-- InteractionPattern&#45;&gt;DataSchema -->
<g id="edge4" class="edge"><title>InteractionPattern&#45;&gt;DataSchema</title>
<path fill="none" stroke="black" d="M399.797,-306.78C409.428,-294.06 421.209,-281.959 434.983,-274 493.885,-239.966 524.339,-282.522 586.983,-256 614.787,-244.228 640.957,-221.617 658.587,-204.016"/>
<polygon fill="black" stroke="black" points="661.123,-206.429 665.6,-196.826 656.112,-201.541 661.123,-206.429"/>
<text text-anchor="start" x="434.983" y="-277.8" font-family="mono" font-size="14.00" fill="#c83500">uriVariables</text>
<text text-anchor="middle" x="654.6" y="-200.626" font-family="Times New Roman,serif" font-size="14.00">0..1</text>
</g>
<!-- Link -->
<g id="node3" class="node"><title>Link</title>
<polygon fill="#8ccbf2" stroke="none" points="49.9831,-558.5 49.9831,-579.5 227.983,-579.5 227.983,-558.5 49.9831,-558.5"/>
<polygon fill="none" stroke="#8ccbf2" points="49.9831,-558.5 49.9831,-579.5 227.983,-579.5 227.983,-558.5 49.9831,-558.5"/>
<text text-anchor="start" x="121.983" y="-566.3" font-family="mono" font-weight="bold" font-size="14.00" fill="#c83500">Link</text>
<polygon fill="#ddeeff" stroke="none" points="49.9831,-537.5 49.9831,-558.5 227.983,-558.5 227.983,-537.5 49.9831,-537.5"/>
<polygon fill="none" stroke="#8ccbf2" points="49.9831,-537.5 49.9831,-558.5 227.983,-558.5 227.983,-537.5 49.9831,-537.5"/>
<text text-anchor="start" x="52.9831" y="-545.3" font-family="mono" font-size="14.00" fill="#c83500">rel</text>
<text text-anchor="start" x="77.9831" y="-545.3" font-family="Times New Roman,serif" font-size="14.00"> : </text>
<text text-anchor="start" x="88.9831" y="-545.3" font-family="mono" font-size="14.00" fill="#c83500">string</text>
<polygon fill="#ddeeff" stroke="none" points="49.9831,-516.5 49.9831,-537.5 227.983,-537.5 227.983,-516.5 49.9831,-516.5"/>
<polygon fill="none" stroke="#8ccbf2" points="49.9831,-516.5 49.9831,-537.5 227.983,-537.5 227.983,-516.5 49.9831,-516.5"/>
<text text-anchor="start" x="52.9831" y="-524.3" font-family="mono" font-size="14.00" fill="#c83500">anchor</text>
<text text-anchor="start" x="102.983" y="-524.3" font-family="Times New Roman,serif" font-size="14.00"> : </text>
<text text-anchor="start" x="113.983" y="-524.3" font-family="mono" font-size="14.00" fill="#c83500">anyURI</text>
<polygon fill="#ddeeff" stroke="none" points="49.9831,-495.5 49.9831,-516.5 227.983,-516.5 227.983,-495.5 49.9831,-495.5"/>
<polygon fill="none" stroke="#8ccbf2" points="49.9831,-495.5 49.9831,-516.5 227.983,-516.5 227.983,-495.5 49.9831,-495.5"/>
<text text-anchor="start" x="52.9831" y="-503.3" font-family="mono" font-size="14.00" fill="#c83500">href</text>
<text text-anchor="start" x="86.9831" y="-503.3" font-family="Times New Roman,serif" font-size="14.00"> : </text>
<text text-anchor="start" x="97.9831" y="-503.3" font-family="mono" font-size="14.00" fill="#c83500">anyURI</text>
<text text-anchor="start" x="147.983" y="-503.3" font-family="Times New Roman,serif" font-size="14.00"> </text>
<text text-anchor="start" x="151.983" y="-503.3" font-family="Times New Roman,serif" font-style="italic" font-size="14.00">(mandatory)</text>
<polygon fill="#ddeeff" stroke="none" points="49.9831,-474.5 49.9831,-495.5 227.983,-495.5 227.983,-474.5 49.9831,-474.5"/>
<polygon fill="none" stroke="#8ccbf2" points="49.9831,-474.5 49.9831,-495.5 227.983,-495.5 227.983,-474.5 49.9831,-474.5"/>
<text text-anchor="start" x="52.9831" y="-482.3" font-family="mono" font-size="14.00" fill="#c83500">type</text>
<text text-anchor="start" x="86.9831" y="-482.3" font-family="Times New Roman,serif" font-size="14.00"> : </text>
<text text-anchor="start" x="97.9831" y="-482.3" font-family="mono" font-size="14.00" fill="#c83500">string</text>
</g>
<!-- ExpectedResponse -->
<g id="node7" class="node"><title>ExpectedResponse</title>
<polygon fill="#8ccbf2" stroke="none" points="321.983,-25 321.983,-46 479.983,-46 479.983,-25 321.983,-25"/>
<polygon fill="none" stroke="#8ccbf2" points="321.983,-25 321.983,-46 479.983,-46 479.983,-25 321.983,-25"/>
<text text-anchor="start" x="334.483" y="-32.8" font-family="mono" font-weight="bold" font-size="14.00" fill="#c83500">ExpectedResponse</text>
<polygon fill="#ddeeff" stroke="none" points="321.983,-4 321.983,-25 479.983,-25 479.983,-4 321.983,-4"/>
<polygon fill="none" stroke="#8ccbf2" points="321.983,-4 321.983,-25 479.983,-25 479.983,-4 321.983,-4"/>
<text text-anchor="start" x="324.983" y="-11.8" font-family="mono" font-size="14.00" fill="#c83500">contentType</text>
<text text-anchor="start" x="415.983" y="-11.8" font-family="Times New Roman,serif" font-size="14.00"> : </text>
<text text-anchor="start" x="426.983" y="-11.8" font-family="mono" font-size="14.00" fill="#c83500">string</text>
</g>
<!-- Form&#45;&gt;ExpectedResponse -->
<g id="edge5" class="edge"><title>Form&#45;&gt;ExpectedResponse</title>
<path fill="none" stroke="black" d="M400.983,-100.862C400.983,-86.5577 400.983,-72.2953 400.983,-60.116"/>
<polygon fill="black" stroke="black" points="404.483,-60.0004 400.983,-50.0004 397.483,-60.0004 404.483,-60.0004"/>
<text text-anchor="start" x="400.983" y="-71.8" font-family="mono" font-size="14.00" fill="#c83500">response</text>
<text text-anchor="middle" x="389.983" y="-53.8004" font-family="Times New Roman,serif" font-size="14.00">0..1</text>
</g>
<!-- Thing -->
<g id="node5" class="node"><title>Thing</title>
<polygon fill="#8ccbf2" stroke="none" points="505.983,-806.5 505.983,-827.5 763.983,-827.5 763.983,-806.5 505.983,-806.5"/>
<polygon fill="none" stroke="#8ccbf2" points="505.983,-806.5 505.983,-827.5 763.983,-827.5 763.983,-806.5 505.983,-806.5"/>
<text text-anchor="start" x="613.983" y="-814.3" font-family="mono" font-weight="bold" font-size="14.00" fill="#c83500">Thing</text>
<polygon fill="#ddeeff" stroke="none" points="505.983,-785.5 505.983,-806.5 763.983,-806.5 763.983,-785.5 505.983,-785.5"/>
<polygon fill="none" stroke="#8ccbf2" points="505.983,-785.5 505.983,-806.5 763.983,-806.5 763.983,-785.5 505.983,-785.5"/>
<text text-anchor="start" x="508.983" y="-793.3" font-family="mono" font-size="14.00" fill="#c83500">id</text>
<text text-anchor="start" x="525.983" y="-793.3" font-family="Times New Roman,serif" font-size="14.00"> : </text>
<text text-anchor="start" x="536.983" y="-793.3" font-family="mono" font-size="14.00" fill="#c83500">anyURI</text>
<text text-anchor="start" x="586.983" y="-793.3" font-family="Times New Roman,serif" font-size="14.00"> </text>
<text text-anchor="start" x="590.983" y="-793.3" font-family="Times New Roman,serif" font-style="italic" font-size="14.00">(mandatory)</text>
<polygon fill="#ddeeff" stroke="none" points="505.983,-764.5 505.983,-785.5 763.983,-785.5 763.983,-764.5 505.983,-764.5"/>
<polygon fill="none" stroke="#8ccbf2" points="505.983,-764.5 505.983,-785.5 763.983,-785.5 763.983,-764.5 505.983,-764.5"/>
<text text-anchor="start" x="508.983" y="-772.3" font-family="mono" font-size="14.00" fill="#c83500">security</text>
<text text-anchor="start" x="575.983" y="-772.3" font-family="Times New Roman,serif" font-size="14.00"> : array of </text>
<text text-anchor="start" x="633.983" y="-772.3" font-family="mono" font-size="14.00" fill="#c83500">string</text>
<text text-anchor="start" x="683.983" y="-772.3" font-family="Times New Roman,serif" font-size="14.00"> </text>
<text text-anchor="start" x="687.983" y="-772.3" font-family="Times New Roman,serif" font-style="italic" font-size="14.00">(mandatory)</text>
<polygon fill="#ddeeff" stroke="none" points="505.983,-743.5 505.983,-764.5 763.983,-764.5 763.983,-743.5 505.983,-743.5"/>
<polygon fill="none" stroke="#8ccbf2" points="505.983,-743.5 505.983,-764.5 763.983,-764.5 763.983,-743.5 505.983,-743.5"/>
<text text-anchor="start" x="508.983" y="-751.3" font-family="mono" font-size="14.00" fill="#c83500">description</text>
<text text-anchor="start" x="599.983" y="-751.3" font-family="Times New Roman,serif" font-size="14.00"> : </text>
<text text-anchor="start" x="610.983" y="-751.3" font-family="mono" font-size="14.00" fill="#c83500">string</text>
<polygon fill="#ddeeff" stroke="none" points="505.983,-722.5 505.983,-743.5 763.983,-743.5 763.983,-722.5 505.983,-722.5"/>
<polygon fill="none" stroke="#8ccbf2" points="505.983,-722.5 505.983,-743.5 763.983,-743.5 763.983,-722.5 505.983,-722.5"/>
<text text-anchor="start" x="508.983" y="-730.3" font-family="mono" font-size="14.00" fill="#c83500">created</text>
<text text-anchor="start" x="566.983" y="-730.3" font-family="Times New Roman,serif" font-size="14.00"> : </text>
<text text-anchor="start" x="577.983" y="-730.3" font-family="mono" font-size="14.00" fill="#c83500">string</text>
<polygon fill="#ddeeff" stroke="none" points="505.983,-701.5 505.983,-722.5 763.983,-722.5 763.983,-701.5 505.983,-701.5"/>
<polygon fill="none" stroke="#8ccbf2" points="505.983,-701.5 505.983,-722.5 763.983,-722.5 763.983,-701.5 505.983,-701.5"/>
<text text-anchor="start" x="508.983" y="-709.3" font-family="mono" font-size="14.00" fill="#c83500">base</text>
<text text-anchor="start" x="542.983" y="-709.3" font-family="Times New Roman,serif" font-size="14.00"> : </text>
<text text-anchor="start" x="553.983" y="-709.3" font-family="mono" font-size="14.00" fill="#c83500">anyURI</text>
<polygon fill="#ddeeff" stroke="none" points="505.983,-680.5 505.983,-701.5 763.983,-701.5 763.983,-680.5 505.983,-680.5"/>
<polygon fill="none" stroke="#8ccbf2" points="505.983,-680.5 505.983,-701.5 763.983,-701.5 763.983,-680.5 505.983,-680.5"/>
<text text-anchor="start" x="508.983" y="-688.3" font-family="mono" font-size="14.00" fill="#c83500">name</text>
<text text-anchor="start" x="542.983" y="-688.3" font-family="Times New Roman,serif" font-size="14.00"> : </text>
<text text-anchor="start" x="553.983" y="-688.3" font-family="mono" font-size="14.00" fill="#c83500">string</text>
<text text-anchor="start" x="603.983" y="-688.3" font-family="Times New Roman,serif" font-size="14.00"> </text>
<text text-anchor="start" x="607.983" y="-688.3" font-family="Times New Roman,serif" font-style="italic" font-size="14.00">(mandatory)</text>
<polygon fill="#ddeeff" stroke="none" points="505.983,-659.5 505.983,-680.5 763.983,-680.5 763.983,-659.5 505.983,-659.5"/>
<polygon fill="none" stroke="#8ccbf2" points="505.983,-659.5 505.983,-680.5 763.983,-680.5 763.983,-659.5 505.983,-659.5"/>
<text text-anchor="start" x="508.983" y="-667.3" font-family="mono" font-size="14.00" fill="#c83500">lastModified</text>
<text text-anchor="start" x="608.983" y="-667.3" font-family="Times New Roman,serif" font-size="14.00"> : </text>
<text text-anchor="start" x="619.983" y="-667.3" font-family="mono" font-size="14.00" fill="#c83500">string</text>
<polygon fill="#ddeeff" stroke="none" points="505.983,-638.5 505.983,-659.5 763.983,-659.5 763.983,-638.5 505.983,-638.5"/>
<polygon fill="none" stroke="#8ccbf2" points="505.983,-638.5 505.983,-659.5 763.983,-659.5 763.983,-638.5 505.983,-638.5"/>
<text text-anchor="start" x="508.983" y="-646.3" font-family="mono" font-size="14.00" fill="#c83500">support</text>
<text text-anchor="start" x="566.983" y="-646.3" font-family="Times New Roman,serif" font-size="14.00"> : </text>
<text text-anchor="start" x="577.983" y="-646.3" font-family="mono" font-size="14.00" fill="#c83500">string</text>
</g>
<!-- Thing&#45;&gt;MultiLanguage -->
<g id="edge10" class="edge"><title>Thing&#45;&gt;MultiLanguage</title>
<path fill="none" stroke="black" d="M497.674,-718.09C338.18,-698.189 89.6134,-656.297 32.9831,-584 -60.0177,-465.27 68.2108,-273.065 119.999,-204.658"/>
<polygon fill="black" stroke="black" points="122.89,-206.64 126.201,-196.576 117.336,-202.379 122.89,-206.64"/>
<text text-anchor="start" x="3.98314" y="-441.8" font-family="mono" font-size="14.00" fill="#c83500">descriptions</text>
<text text-anchor="middle" x="115.201" y="-200.376" font-family="Times New Roman,serif" font-size="14.00">0..1</text>
</g>
<!-- Thing&#45;&gt;Link -->
<g id="edge8" class="edge"><title>Thing&#45;&gt;Link</title>
<path fill="none" stroke="black" d="M497.546,-684.685C424.679,-658.25 333.848,-623.573 245.464,-584.121"/>
<polygon fill="black" stroke="black" points="246.648,-580.815 236.091,-579.914 243.782,-587.202 246.648,-580.815"/>
<text text-anchor="start" x="318.983" y="-605.8" font-family="mono" font-size="14.00" fill="#c83500">links</text>
<text text-anchor="middle" x="247.091" y="-583.714" font-family="Times New Roman,serif" font-size="14.00">0..*</text>
</g>
<!-- Property -->
<g id="node6" class="node"><title>Property</title>
<polygon fill="#8ccbf2" stroke="none" points="261.983,-527.5 261.983,-548.5 461.983,-548.5 461.983,-527.5 261.983,-527.5"/>
<polygon fill="none" stroke="#8ccbf2" points="261.983,-527.5 261.983,-548.5 461.983,-548.5 461.983,-527.5 261.983,-527.5"/>
<text text-anchor="start" x="328.483" y="-535.3" font-family="mono" font-weight="bold" font-size="14.00" fill="#c83500">Property</text>
<polygon fill="#ddeeff" stroke="none" points="261.983,-506.5 261.983,-527.5 461.983,-527.5 461.983,-506.5 261.983,-506.5"/>
<polygon fill="none" stroke="#8ccbf2" points="261.983,-506.5 261.983,-527.5 461.983,-527.5 461.983,-506.5 261.983,-506.5"/>
<text text-anchor="start" x="264.983" y="-514.3" font-family="mono" font-size="14.00" fill="#c83500">observable</text>
<text text-anchor="start" x="347.983" y="-514.3" font-family="Times New Roman,serif" font-size="14.00"> : </text>
<text text-anchor="start" x="358.983" y="-514.3" font-family="mono" font-size="14.00" fill="#c83500">boolean</text>
<text text-anchor="start" x="416.983" y="-514.3" font-family="Times New Roman,serif" font-size="14.00"> = false</text>
</g>
<!-- Thing&#45;&gt;Property -->
<g id="edge12" class="edge"><title>Thing&#45;&gt;Property</title>
<path fill="none" stroke="black" d="M504.48,-634.981C467.333,-607.223 429.593,-579.022 402.292,-558.621"/>
<polygon fill="black" stroke="black" points="404.273,-555.732 394.167,-552.55 400.083,-561.339 404.273,-555.732"/>
<text text-anchor="start" x="474.983" y="-605.8" font-family="mono" font-size="14.00" fill="#c83500">properties</text>
<text text-anchor="middle" x="383.167" y="-556.35" font-family="Times New Roman,serif" font-size="14.00">0..1</text>
</g>
<!-- Action -->
<g id="node8" class="node"><title>Action</title>
<polygon fill="#8ccbf2" stroke="none" points="496.983,-537.5 496.983,-558.5 773.983,-558.5 773.983,-537.5 496.983,-537.5"/>
<polygon fill="none" stroke="#8ccbf2" points="496.983,-537.5 496.983,-558.5 773.983,-558.5 773.983,-537.5 496.983,-537.5"/>
<text text-anchor="start" x="610.483" y="-545.3" font-family="mono" font-weight="bold" font-size="14.00" fill="#c83500">Action</text>
<polygon fill="#ddeeff" stroke="none" points="496.983,-516.5 496.983,-537.5 773.983,-537.5 773.983,-516.5 496.983,-516.5"/>
<polygon fill="none" stroke="#8ccbf2" points="496.983,-516.5 496.983,-537.5 773.983,-537.5 773.983,-516.5 496.983,-516.5"/>
<text text-anchor="start" x="499.983" y="-524.3" font-family="mono" font-size="14.00" fill="#c83500">safe</text>
<text text-anchor="start" x="533.983" y="-524.3" font-family="Times New Roman,serif" font-size="14.00"> : </text>
<text text-anchor="start" x="544.983" y="-524.3" font-family="mono" font-size="14.00" fill="#c83500">boolean</text>
<text text-anchor="start" x="602.983" y="-524.3" font-family="Times New Roman,serif" font-size="14.00"> = false </text>
<text text-anchor="start" x="648.983" y="-524.3" font-family="Times New Roman,serif" font-style="italic" font-size="14.00">(mandatory)</text>
<polygon fill="#ddeeff" stroke="none" points="496.983,-495.5 496.983,-516.5 773.983,-516.5 773.983,-495.5 496.983,-495.5"/>
<polygon fill="none" stroke="#8ccbf2" points="496.983,-495.5 496.983,-516.5 773.983,-516.5 773.983,-495.5 496.983,-495.5"/>
<text text-anchor="start" x="499.983" y="-503.3" font-family="mono" font-size="14.00" fill="#c83500">idempotent</text>
<text text-anchor="start" x="582.983" y="-503.3" font-family="Times New Roman,serif" font-size="14.00"> : </text>
<text text-anchor="start" x="593.983" y="-503.3" font-family="mono" font-size="14.00" fill="#c83500">boolean</text>
<text text-anchor="start" x="651.983" y="-503.3" font-family="Times New Roman,serif" font-size="14.00"> = false </text>
<text text-anchor="start" x="697.983" y="-503.3" font-family="Times New Roman,serif" font-style="italic" font-size="14.00">(mandatory)</text>
</g>
<!-- Thing&#45;&gt;Action -->
<g id="edge7" class="edge"><title>Thing&#45;&gt;Action</title>
<path fill="none" stroke="black" d="M634.983,-634.981C634.983,-613.301 634.983,-591.35 634.983,-573.057"/>
<polygon fill="black" stroke="black" points="638.483,-573.017 634.983,-563.017 631.483,-573.017 638.483,-573.017"/>
<text text-anchor="start" x="634.983" y="-605.8" font-family="mono" font-size="14.00" fill="#c83500">actions</text>
<text text-anchor="middle" x="623.983" y="-566.817" font-family="Times New Roman,serif" font-size="14.00">0..1</text>
</g>
<!-- Event -->
<g id="node9" class="node"><title>Event</title>
<polygon fill="#8ccbf2" stroke="none" points="807.983,-516.5 807.983,-537.5 855.983,-537.5 855.983,-516.5 807.983,-516.5"/>
<polygon fill="none" stroke="#8ccbf2" points="807.983,-516.5 807.983,-537.5 855.983,-537.5 855.983,-516.5 807.983,-516.5"/>
<text text-anchor="start" x="810.983" y="-524.3" font-family="mono" font-weight="bold" font-size="14.00" fill="#c83500">Event</text>
</g>
<!-- Thing&#45;&gt;Event -->
<g id="edge11" class="edge"><title>Thing&#45;&gt;Event</title>
<path fill="none" stroke="black" d="M741.467,-634.833C758.157,-618.3 774.869,-600.981 789.983,-584 798.434,-574.506 807.031,-563.444 814.227,-553.705"/>
<polygon fill="black" stroke="black" points="817.1,-555.706 820.152,-545.56 811.439,-551.588 817.1,-555.706"/>
<text text-anchor="start" x="770.983" y="-605.8" font-family="mono" font-size="14.00" fill="#c83500">events</text>
<text text-anchor="middle" x="809.152" y="-549.36" font-family="Times New Roman,serif" font-size="14.00">0..1</text>
</g>
<!-- Versioning -->
<g id="node10" class="node"><title>Versioning</title>
<polygon fill="#8ccbf2" stroke="none" points="890.983,-527.5 890.983,-548.5 1101.98,-548.5 1101.98,-527.5 890.983,-527.5"/>
<polygon fill="none" stroke="#8ccbf2" points="890.983,-527.5 890.983,-548.5 1101.98,-548.5 1101.98,-527.5 890.983,-527.5"/>
<text text-anchor="start" x="954.983" y="-535.3" font-family="mono" font-weight="bold" font-size="14.00" fill="#c83500">Versioning</text>
<polygon fill="#ddeeff" stroke="none" points="890.983,-506.5 890.983,-527.5 1101.98,-527.5 1101.98,-506.5 890.983,-506.5"/>
<polygon fill="none" stroke="#8ccbf2" points="890.983,-506.5 890.983,-527.5 1101.98,-527.5 1101.98,-506.5 890.983,-506.5"/>
<text text-anchor="start" x="893.983" y="-514.3" font-family="mono" font-size="14.00" fill="#c83500">instance</text>
<text text-anchor="start" x="960.983" y="-514.3" font-family="Times New Roman,serif" font-size="14.00"> : </text>
<text text-anchor="start" x="971.983" y="-514.3" font-family="mono" font-size="14.00" fill="#c83500">string</text>
<text text-anchor="start" x="1021.98" y="-514.3" font-family="Times New Roman,serif" font-size="14.00"> </text>
<text text-anchor="start" x="1025.98" y="-514.3" font-family="Times New Roman,serif" font-style="italic" font-size="14.00">(mandatory)</text>
</g>
<!-- Thing&#45;&gt;Versioning -->
<g id="edge6" class="edge"><title>Thing&#45;&gt;Versioning</title>
<path fill="none" stroke="black" d="M772.234,-654.94C832.476,-620.897 899.548,-582.995 944.404,-557.647"/>
<polygon fill="black" stroke="black" points="946.365,-560.56 953.349,-552.593 942.921,-554.465 946.365,-560.56"/>
<text text-anchor="start" x="858.983" y="-605.8" font-family="mono" font-size="14.00" fill="#c83500">version</text>
<text text-anchor="middle" x="942.349" y="-556.393" font-family="Times New Roman,serif" font-size="14.00">0..1</text>
</g>
<!-- SecurityScheme -->
<g id="node12" class="node"><title>SecurityScheme</title>
<polygon fill="#f2f2f2" stroke="none" points="1135.98,-516.5 1135.98,-537.5 1257.98,-537.5 1257.98,-516.5 1135.98,-516.5"/>
<polygon fill="none" stroke="#8c8c8c" points="1135.98,-516.5 1135.98,-537.5 1257.98,-537.5 1257.98,-516.5 1135.98,-516.5"/>
<text text-anchor="start" x="1138.98" y="-524.3" font-family="mono" font-weight="bold" font-size="14.00">SecurityScheme</text>
</g>
<!-- Thing&#45;&gt;SecurityScheme -->
<g id="edge9" class="edge"><title>Thing&#45;&gt;SecurityScheme</title>
<path fill="none" stroke="black" d="M772.037,-702.586C871.171,-678.063 1006.69,-638.495 1117.98,-584 1135.73,-575.312 1153.88,-562.859 1168.3,-551.949"/>
<polygon fill="black" stroke="black" points="1170.56,-554.629 1176.33,-545.745 1166.28,-549.09 1170.56,-554.629"/>
<text text-anchor="start" x="1068.98" y="-605.8" font-family="mono" font-size="14.00" fill="#c83500">securityDefinitions</text>
<text text-anchor="middle" x="1165.33" y="-549.545" font-family="Times New Roman,serif" font-size="14.00">0..1</text>
</g>
<!-- Property&#45;&gt;InteractionPattern -->
<g id="edge19" class="edge"><title>Property&#45;&gt;InteractionPattern</title>
<path fill="none" stroke="black" d="M363.031,-502.247C363.856,-483.156 365.046,-455.613 366.146,-430.165"/>
<polygon fill="white" stroke="black" points="369.643,-430.309 366.578,-420.167 362.649,-430.007 369.643,-430.309"/>
</g>
<!-- Action&#45;&gt;InteractionPattern -->
<g id="edge20" class="edge"><title>Action&#45;&gt;InteractionPattern</title>
<path fill="none" stroke="black" d="M554.621,-491.902C530.675,-480.536 504.759,-467.156 481.983,-453 469.049,-444.961 455.851,-435.716 443.252,-426.3"/>
<polygon fill="white" stroke="black" points="445.151,-423.349 435.067,-420.099 440.924,-428.928 445.151,-423.349"/>
</g>
<!-- Action&#45;&gt;DataSchema -->
<g id="edge13" class="edge"><title>Action&#45;&gt;DataSchema</title>
<path fill="none" stroke="black" d="M603.761,-491.86C588.234,-472.275 571.089,-446.461 562.983,-420 548.274,-371.98 544.665,-353.762 562.983,-307 580.055,-263.421 619.789,-225.825 648.437,-202.972"/>
<polygon fill="black" stroke="black" points="650.825,-205.549 656.565,-196.644 646.524,-200.026 650.825,-205.549"/>
<text text-anchor="start" x="562.983" y="-359.8" font-family="mono" font-size="14.00" fill="#c83500">output</text>
<text text-anchor="middle" x="667.565" y="-200.444" font-family="Times New Roman,serif" font-size="14.00">0..1</text>
</g>
<!-- Action&#45;&gt;DataSchema -->
<g id="edge14" class="edge"><title>Action&#45;&gt;DataSchema</title>
<path fill="none" stroke="black" d="M635.252,-491.692C636.034,-448.226 638.886,-371.704 648.983,-307 654.488,-271.723 665.215,-231.946 672.726,-206.344"/>
<polygon fill="black" stroke="black" points="676.123,-207.201 675.626,-196.618 669.415,-205.201 676.123,-207.201"/>
<text text-anchor="start" x="648.983" y="-359.8" font-family="mono" font-size="14.00" fill="#c83500">input</text>
<text text-anchor="middle" x="686.626" y="-200.418" font-family="Times New Roman,serif" font-size="14.00">0..1</text>
</g>
<!-- Event&#45;&gt;InteractionPattern -->
<g id="edge18" class="edge"><title>Event&#45;&gt;InteractionPattern</title>
<path fill="none" stroke="black" d="M823.529,-509.472C816.353,-496.841 804.853,-480.266 789.983,-471 788.404,-470.016 528.779,-420.487 526.983,-420 510.797,-415.613 493.885,-410.386 477.394,-404.919"/>
<polygon fill="white" stroke="black" points="478.336,-401.543 467.742,-401.677 476.107,-408.179 478.336,-401.543"/>
</g>
<!-- Event&#45;&gt;DataSchema -->
<g id="edge15" class="edge"><title>Event&#45;&gt;DataSchema</title>
<path fill="none" stroke="black" d="M844.086,-509.441C857.622,-489.221 878.729,-453.972 886.983,-420 898.841,-371.198 902.514,-354.76 886.983,-307 866.963,-245.435 796.548,-211.81 743.575,-194.784"/>
<polygon fill="black" stroke="black" points="744.49,-191.403 733.903,-191.795 742.424,-198.091 744.49,-191.403"/>
<text text-anchor="start" x="897.983" y="-359.8" font-family="mono" font-size="14.00" fill="#c83500">subscription</text>
<text text-anchor="middle" x="744.903" y="-195.595" font-family="Times New Roman,serif" font-size="14.00">0..1</text>
</g>
<!-- Event&#45;&gt;DataSchema -->
<g id="edge16" class="edge"><title>Event&#45;&gt;DataSchema</title>
<path fill="none" stroke="black" d="M820.483,-509.132C812.551,-497.734 801.412,-482.809 789.983,-471 764.93,-445.114 745.493,-450.906 726.983,-420 705.533,-384.186 689.92,-261.764 683.814,-206.708"/>
<polygon fill="black" stroke="black" points="687.28,-206.204 682.72,-196.641 680.321,-206.96 687.28,-206.204"/>
<text text-anchor="start" x="726.983" y="-359.8" font-family="mono" font-size="14.00" fill="#c83500">cancellation</text>
<text text-anchor="middle" x="693.72" y="-200.441" font-family="Times New Roman,serif" font-size="14.00">0..1</text>
</g>
<!-- Event&#45;&gt;DataSchema -->
<g id="edge17" class="edge"><title>Event&#45;&gt;DataSchema</title>
<path fill="none" stroke="black" d="M836.01,-509.496C844.176,-471.179 859.307,-376.043 826.983,-307 805.016,-260.079 756.668,-223.481 721.614,-201.76"/>
<polygon fill="black" stroke="black" points="723.381,-198.738 713.012,-196.561 719.76,-204.729 723.381,-198.738"/>
<text text-anchor="start" x="846.983" y="-359.8" font-family="mono" font-size="14.00" fill="#c83500">data</text>
<text text-anchor="middle" x="724.012" y="-200.361" font-family="Times New Roman,serif" font-size="14.00">0..1</text>
</g>
</g>
</svg>
