<?xml version="1.0" encoding="UTF-8" standalone="no"?>
<!DOCTYPE svg PUBLIC "-//W3C//DTD SVG 1.1//EN"
 "http://www.w3.org/Graphics/SVG/1.1/DTD/svg11.dtd">
<!-- Generated by graphviz version 2.38.0 (20140413.2041)
 -->
<!-- Title: %3 Pages: 1 -->
<svg width="1263pt" height="840pt"
 viewBox="0.00 0.00 1263.45 840.00" xmlns="http://www.w3.org/2000/svg" xmlns:xlink="http://www.w3.org/1999/xlink">
<g id="graph0" class="graph" transform="scale(1 1) rotate(0) translate(4 836)">
<title>%3</title>
<polygon fill="white" stroke="none" points="-4,4 -4,-836 1259.45,-836 1259.45,4 -4,4"/>
<!-- MultiLanguage -->
<g id="node1" class="node"><title>MultiLanguage</title>
<polygon fill="#8ccbf2" stroke="none" points="71.4496,-167.5 71.4496,-188.5 185.45,-188.5 185.45,-167.5 71.4496,-167.5"/>
<polygon fill="none" stroke="#8ccbf2" points="71.4496,-167.5 71.4496,-188.5 185.45,-188.5 185.45,-167.5 71.4496,-167.5"/>
<text text-anchor="start" x="74.4496" y="-175.3" font-family="mono" font-weight="bold" font-size="14.00" fill="#c83500">MultiLanguage</text>
</g>
<!-- InteractionPattern -->
<g id="node2" class="node"><title>InteractionPattern</title>
<polygon fill="#8ccbf2" stroke="none" points="275.45,-394.5 275.45,-415.5 456.45,-415.5 456.45,-394.5 275.45,-394.5"/>
<polygon fill="none" stroke="#8ccbf2" points="275.45,-394.5 275.45,-415.5 456.45,-415.5 456.45,-394.5 275.45,-394.5"/>
<text text-anchor="start" x="291.45" y="-402.3" font-family="mono" font-weight="bold" font-size="14.00" fill="#c83500">InteractionPattern</text>
<polygon fill="#ddeeff" stroke="none" points="275.45,-373.5 275.45,-394.5 456.45,-394.5 456.45,-373.5 275.45,-373.5"/>
<polygon fill="none" stroke="#8ccbf2" points="275.45,-373.5 275.45,-394.5 456.45,-394.5 456.45,-373.5 275.45,-373.5"/>
<text text-anchor="start" x="278.45" y="-381.3" font-family="mono" font-size="14.00" fill="#c83500">title</text>
<text text-anchor="start" x="320.45" y="-381.3" font-family="Times,serif" font-size="14.00"> : </text>
<text text-anchor="start" x="332.45" y="-381.3" font-family="mono" font-size="14.00" fill="#c83500">string</text>
<polygon fill="#ddeeff" stroke="none" points="275.45,-352.5 275.45,-373.5 456.45,-373.5 456.45,-352.5 275.45,-352.5"/>
<polygon fill="none" stroke="#8ccbf2" points="275.45,-352.5 275.45,-373.5 456.45,-373.5 456.45,-352.5 275.45,-352.5"/>
<text text-anchor="start" x="278.45" y="-360.3" font-family="mono" font-size="14.00" fill="#c83500">security</text>
<text text-anchor="start" x="345.45" y="-360.3" font-family="Times,serif" font-size="14.00"> : array of </text>
<text text-anchor="start" x="403.45" y="-360.3" font-family="mono" font-size="14.00" fill="#c83500">string</text>
<polygon fill="#ddeeff" stroke="none" points="275.45,-331.5 275.45,-352.5 456.45,-352.5 456.45,-331.5 275.45,-331.5"/>
<polygon fill="none" stroke="#8ccbf2" points="275.45,-331.5 275.45,-352.5 456.45,-352.5 456.45,-331.5 275.45,-331.5"/>
<text text-anchor="start" x="278.45" y="-339.3" font-family="mono" font-size="14.00" fill="#c83500">description</text>
<text text-anchor="start" x="369.45" y="-339.3" font-family="Times,serif" font-size="14.00"> : </text>
<text text-anchor="start" x="381.45" y="-339.3" font-family="mono" font-size="14.00" fill="#c83500">string</text>
<polygon fill="#ddeeff" stroke="none" points="275.45,-310.5 275.45,-331.5 456.45,-331.5 456.45,-310.5 275.45,-310.5"/>
<polygon fill="none" stroke="#8ccbf2" points="275.45,-310.5 275.45,-331.5 456.45,-331.5 456.45,-310.5 275.45,-310.5"/>
<text text-anchor="start" x="278.45" y="-318.3" font-family="mono" font-size="14.00" fill="#c83500">scopes</text>
<text text-anchor="start" x="328.45" y="-318.3" font-family="Times,serif" font-size="14.00"> : array of </text>
<text text-anchor="start" x="386.45" y="-318.3" font-family="mono" font-size="14.00" fill="#c83500">string</text>
</g>
<!-- InteractionPattern&#45;&gt;MultiLanguage -->
<g id="edge3" class="edge"><title>InteractionPattern&#45;&gt;MultiLanguage</title>
<path fill="none" stroke="black" d="M272.379,-306.805C248.821,-291.344 224.082,-273.867 202.45,-256 183.402,-240.268 164.067,-220.103 149.939,-204.426"/>
<polygon fill="black" stroke="black" points="152.316,-201.832 143.055,-196.685 147.085,-206.483 152.316,-201.832"/>
<text text-anchor="start" x="245.45" y="-277.8" font-family="mono" font-size="14.00" fill="#c83500">descriptions</text>
<text text-anchor="middle" x="132.055" y="-200.485" font-family="Times,serif" font-size="14.00">0..1</text>
</g>
<!-- InteractionPattern&#45;&gt;MultiLanguage -->
<g id="edge4" class="edge"><title>InteractionPattern&#45;&gt;MultiLanguage</title>
<path fill="none" stroke="black" d="M266.537,-341.11C233.981,-330.033 199.697,-313.492 174.45,-289 151.502,-266.738 139.477,-231.273 133.562,-206.766"/>
<polygon fill="black" stroke="black" points="136.907,-205.687 131.322,-196.684 130.074,-207.205 136.907,-205.687"/>
<text text-anchor="start" x="174.45" y="-277.8" font-family="mono" font-size="14.00" fill="#c83500">titles</text>
<text text-anchor="middle" x="120.322" y="-200.484" font-family="Times,serif" font-size="14.00">0..1</text>
</g>
<!-- Form -->
<g id="node4" class="node"><title>Form</title>
<polygon fill="#8ccbf2" stroke="none" points="220.45,-230.5 220.45,-251.5 553.45,-251.5 553.45,-230.5 220.45,-230.5"/>
<polygon fill="none" stroke="#8ccbf2" points="220.45,-230.5 220.45,-251.5 553.45,-251.5 553.45,-230.5 220.45,-230.5"/>
<text text-anchor="start" x="369.95" y="-238.3" font-family="mono" font-weight="bold" font-size="14.00" fill="#c83500">Form</text>
<polygon fill="#ddeeff" stroke="none" points="220.45,-209.5 220.45,-230.5 553.45,-230.5 553.45,-209.5 220.45,-209.5"/>
<polygon fill="none" stroke="#8ccbf2" points="220.45,-209.5 220.45,-230.5 553.45,-230.5 553.45,-209.5 220.45,-209.5"/>
<text text-anchor="start" x="223.45" y="-217.3" font-family="mono" font-size="14.00" fill="#c83500">contentType</text>
<text text-anchor="start" x="314.45" y="-217.3" font-family="Times,serif" font-size="14.00"> : </text>
<text text-anchor="start" x="326.45" y="-217.3" font-family="mono" font-size="14.00" fill="#c83500">string</text>
<text text-anchor="start" x="376.45" y="-217.3" font-family="Times,serif" font-size="14.00"> = application/json </text>
<text text-anchor="start" x="482.45" y="-217.3" font-family="Times,serif" font-style="italic" font-size="14.00">(mandatory)</text>
<polygon fill="#ddeeff" stroke="none" points="220.45,-188.5 220.45,-209.5 553.45,-209.5 553.45,-188.5 220.45,-188.5"/>
<polygon fill="none" stroke="#8ccbf2" points="220.45,-188.5 220.45,-209.5 553.45,-209.5 553.45,-188.5 220.45,-188.5"/>
<text text-anchor="start" x="223.45" y="-196.3" font-family="mono" font-size="14.00" fill="#c83500">security</text>
<text text-anchor="start" x="290.45" y="-196.3" font-family="Times,serif" font-size="14.00"> : array of </text>
<text text-anchor="start" x="348.45" y="-196.3" font-family="mono" font-size="14.00" fill="#c83500">string</text>
<polygon fill="#ddeeff" stroke="none" points="220.45,-167.5 220.45,-188.5 553.45,-188.5 553.45,-167.5 220.45,-167.5"/>
<polygon fill="none" stroke="#8ccbf2" points="220.45,-167.5 220.45,-188.5 553.45,-188.5 553.45,-167.5 220.45,-167.5"/>
<text text-anchor="start" x="223.45" y="-175.3" font-family="mono" font-size="14.00" fill="#c83500">subprotocol</text>
<text text-anchor="start" x="314.45" y="-175.3" font-family="Times,serif" font-size="14.00"> : </text>
<text text-anchor="start" x="326.45" y="-175.3" font-family="mono" font-size="14.00" fill="#c83500">string</text>
<polygon fill="#ddeeff" stroke="none" points="220.45,-146.5 220.45,-167.5 553.45,-167.5 553.45,-146.5 220.45,-146.5"/>
<polygon fill="none" stroke="#8ccbf2" points="220.45,-146.5 220.45,-167.5 553.45,-167.5 553.45,-146.5 220.45,-146.5"/>
<text text-anchor="start" x="223.45" y="-154.3" font-family="mono" font-size="14.00" fill="#c83500">scopes</text>
<text text-anchor="start" x="273.45" y="-154.3" font-family="Times,serif" font-size="14.00"> : array of </text>
<text text-anchor="start" x="331.45" y="-154.3" font-family="mono" font-size="14.00" fill="#c83500">string</text>
<polygon fill="#ddeeff" stroke="none" points="220.45,-125.5 220.45,-146.5 553.45,-146.5 553.45,-125.5 220.45,-125.5"/>
<polygon fill="none" stroke="#8ccbf2" points="220.45,-125.5 220.45,-146.5 553.45,-146.5 553.45,-125.5 220.45,-125.5"/>
<text text-anchor="start" x="223.45" y="-133.3" font-family="mono" font-size="14.00" fill="#c83500">op</text>
<text text-anchor="start" x="240.45" y="-133.3" font-family="Times,serif" font-size="14.00"> : </text>
<text text-anchor="start" x="252.45" y="-133.3" font-family="mono" font-size="14.00" fill="#c83500">string</text>
<polygon fill="#ddeeff" stroke="none" points="220.45,-104.5 220.45,-125.5 553.45,-125.5 553.45,-104.5 220.45,-104.5"/>
<polygon fill="none" stroke="#8ccbf2" points="220.45,-104.5 220.45,-125.5 553.45,-125.5 553.45,-104.5 220.45,-104.5"/>
<text text-anchor="start" x="223.45" y="-112.3" font-family="mono" font-size="14.00" fill="#c83500">href</text>
<text text-anchor="start" x="257.45" y="-112.3" font-family="Times,serif" font-size="14.00"> : </text>
<text text-anchor="start" x="269.45" y="-112.3" font-family="mono" font-size="14.00" fill="#c83500">anyURI</text>
<text text-anchor="start" x="319.45" y="-112.3" font-family="Times,serif" font-size="14.00"> </text>
<text text-anchor="start" x="323.45" y="-112.3" font-family="Times,serif" font-style="italic" font-size="14.00">(mandatory)</text>
</g>
<!-- InteractionPattern&#45;&gt;Form -->
<g id="edge1" class="edge"><title>InteractionPattern&#45;&gt;Form</title>
<path fill="none" stroke="black" d="M364.409,-306.691C364.678,-295.825 365.286,-284.538 366.45,-274 366.731,-271.448 367.051,-268.863 367.403,-266.258"/>
<polygon fill="black" stroke="black" points="370.898,-266.547 368.909,-256.14 363.974,-265.516 370.898,-266.547"/>
<text text-anchor="start" x="366.45" y="-277.8" font-family="mono" font-size="14.00" fill="#c83500">forms</text>
<text text-anchor="middle" x="357.909" y="-259.94" font-family="Times,serif" font-size="14.00">1..*</text>
</g>
<!-- DataSchema -->
<g id="node11" class="node"><title>DataSchema</title>
<polygon fill="#f2f2f2" stroke="none" points="607.45,-167.5 607.45,-188.5 696.45,-188.5 696.45,-167.5 607.45,-167.5"/>
<polygon fill="none" stroke="#8c8c8c" points="607.45,-167.5 607.45,-188.5 696.45,-188.5 696.45,-167.5 607.45,-167.5"/>
<text text-anchor="start" x="610.45" y="-175.3" font-family="mono" font-weight="bold" font-size="14.00">DataSchema</text>
</g>
<!-- InteractionPattern&#45;&gt;DataSchema -->
<g id="edge2" class="edge"><title>InteractionPattern&#45;&gt;DataSchema</title>
<path fill="none" stroke="black" d="M396.328,-306.892C405.959,-294.17 417.723,-282.04 431.45,-274 484.821,-242.739 513.494,-282.357 569.45,-256 594.273,-244.307 616.618,-222.303 631.689,-204.884"/>
<polygon fill="black" stroke="black" points="634.748,-206.682 638.482,-196.767 629.38,-202.189 634.748,-206.682"/>
<text text-anchor="start" x="431.45" y="-277.8" font-family="mono" font-size="14.00" fill="#c83500">uriVariables</text>
<text text-anchor="middle" x="627.482" y="-200.567" font-family="Times,serif" font-size="14.00">0..1</text>
</g>
<!-- Link -->
<g id="node3" class="node"><title>Link</title>
<polygon fill="#8ccbf2" stroke="none" points="51.4496,-558.5 51.4496,-579.5 225.45,-579.5 225.45,-558.5 51.4496,-558.5"/>
<polygon fill="none" stroke="#8ccbf2" points="51.4496,-558.5 51.4496,-579.5 225.45,-579.5 225.45,-558.5 51.4496,-558.5"/>
<text text-anchor="start" x="121.45" y="-566.3" font-family="mono" font-weight="bold" font-size="14.00" fill="#c83500">Link</text>
<polygon fill="#ddeeff" stroke="none" points="51.4496,-537.5 51.4496,-558.5 225.45,-558.5 225.45,-537.5 51.4496,-537.5"/>
<polygon fill="none" stroke="#8ccbf2" points="51.4496,-537.5 51.4496,-558.5 225.45,-558.5 225.45,-537.5 51.4496,-537.5"/>
<text text-anchor="start" x="54.4496" y="-545.3" font-family="mono" font-size="14.00" fill="#c83500">rel</text>
<text text-anchor="start" x="79.4496" y="-545.3" font-family="Times,serif" font-size="14.00"> : </text>
<text text-anchor="start" x="91.4496" y="-545.3" font-family="mono" font-size="14.00" fill="#c83500">string</text>
<polygon fill="#ddeeff" stroke="none" points="51.4496,-516.5 51.4496,-537.5 225.45,-537.5 225.45,-516.5 51.4496,-516.5"/>
<polygon fill="none" stroke="#8ccbf2" points="51.4496,-516.5 51.4496,-537.5 225.45,-537.5 225.45,-516.5 51.4496,-516.5"/>
<text text-anchor="start" x="54.4496" y="-524.3" font-family="mono" font-size="14.00" fill="#c83500">anchor</text>
<text text-anchor="start" x="104.45" y="-524.3" font-family="Times,serif" font-size="14.00"> : </text>
<text text-anchor="start" x="116.45" y="-524.3" font-family="mono" font-size="14.00" fill="#c83500">anyURI</text>
<polygon fill="#ddeeff" stroke="none" points="51.4496,-495.5 51.4496,-516.5 225.45,-516.5 225.45,-495.5 51.4496,-495.5"/>
<polygon fill="none" stroke="#8ccbf2" points="51.4496,-495.5 51.4496,-516.5 225.45,-516.5 225.45,-495.5 51.4496,-495.5"/>
<text text-anchor="start" x="54.4496" y="-503.3" font-family="mono" font-size="14.00" fill="#c83500">type</text>
<text text-anchor="start" x="88.4496" y="-503.3" font-family="Times,serif" font-size="14.00"> : </text>
<text text-anchor="start" x="100.45" y="-503.3" font-family="mono" font-size="14.00" fill="#c83500">string</text>
<polygon fill="#ddeeff" stroke="none" points="51.4496,-474.5 51.4496,-495.5 225.45,-495.5 225.45,-474.5 51.4496,-474.5"/>
<polygon fill="none" stroke="#8ccbf2" points="51.4496,-474.5 51.4496,-495.5 225.45,-495.5 225.45,-474.5 51.4496,-474.5"/>
<text text-anchor="start" x="54.4496" y="-482.3" font-family="mono" font-size="14.00" fill="#c83500">href</text>
<text text-anchor="start" x="88.4496" y="-482.3" font-family="Times,serif" font-size="14.00"> : </text>
<text text-anchor="start" x="100.45" y="-482.3" font-family="mono" font-size="14.00" fill="#c83500">anyURI</text>
<text text-anchor="start" x="150.45" y="-482.3" font-family="Times,serif" font-size="14.00"> </text>
<text text-anchor="start" x="154.45" y="-482.3" font-family="Times,serif" font-style="italic" font-size="14.00">(mandatory)</text>
</g>
<!-- ExpectedResponse -->
<g id="node7" class="node"><title>ExpectedResponse</title>
<polygon fill="#8ccbf2" stroke="none" points="307.45,-25 307.45,-46 466.45,-46 466.45,-25 307.45,-25"/>
<polygon fill="none" stroke="#8ccbf2" points="307.45,-25 307.45,-46 466.45,-46 466.45,-25 307.45,-25"/>
<text text-anchor="start" x="320.45" y="-32.8" font-family="mono" font-weight="bold" font-size="14.00" fill="#c83500">ExpectedResponse</text>
<polygon fill="#ddeeff" stroke="none" points="307.45,-4 307.45,-25 466.45,-25 466.45,-4 307.45,-4"/>
<polygon fill="none" stroke="#8ccbf2" points="307.45,-4 307.45,-25 466.45,-25 466.45,-4 307.45,-4"/>
<text text-anchor="start" x="310.45" y="-11.8" font-family="mono" font-size="14.00" fill="#c83500">contentType</text>
<text text-anchor="start" x="401.45" y="-11.8" font-family="Times,serif" font-size="14.00"> : </text>
<text text-anchor="start" x="413.45" y="-11.8" font-family="mono" font-size="14.00" fill="#c83500">string</text>
</g>
<!-- Form&#45;&gt;ExpectedResponse -->
<g id="edge5" class="edge"><title>Form&#45;&gt;ExpectedResponse</title>
<path fill="none" stroke="black" d="M386.45,-100.862C386.45,-86.5577 386.45,-72.2953 386.45,-60.116"/>
<polygon fill="black" stroke="black" points="389.95,-60.0004 386.45,-50.0004 382.95,-60.0004 389.95,-60.0004"/>
<text text-anchor="start" x="386.45" y="-71.8" font-family="mono" font-size="14.00" fill="#c83500">response</text>
<text text-anchor="middle" x="375.45" y="-53.8004" font-family="Times,serif" font-size="14.00">0..1</text>
</g>
<!-- Thing -->
<g id="node5" class="node"><title>Thing</title>
<polygon fill="#8ccbf2" stroke="none" points="505.45,-806.5 505.45,-827.5 758.45,-827.5 758.45,-806.5 505.45,-806.5"/>
<polygon fill="none" stroke="#8ccbf2" points="505.45,-806.5 505.45,-827.5 758.45,-827.5 758.45,-806.5 505.45,-806.5"/>
<text text-anchor="start" x="610.95" y="-814.3" font-family="mono" font-weight="bold" font-size="14.00" fill="#c83500">Thing</text>
<polygon fill="#ddeeff" stroke="none" points="505.45,-785.5 505.45,-806.5 758.45,-806.5 758.45,-785.5 505.45,-785.5"/>
<polygon fill="none" stroke="#8ccbf2" points="505.45,-785.5 505.45,-806.5 758.45,-806.5 758.45,-785.5 505.45,-785.5"/>
<text text-anchor="start" x="508.45" y="-793.3" font-family="mono" font-size="14.00" fill="#c83500">id</text>
<text text-anchor="start" x="525.45" y="-793.3" font-family="Times,serif" font-size="14.00"> : </text>
<text text-anchor="start" x="537.45" y="-793.3" font-family="mono" font-size="14.00" fill="#c83500">anyURI</text>
<text text-anchor="start" x="587.45" y="-793.3" font-family="Times,serif" font-size="14.00"> </text>
<text text-anchor="start" x="591.45" y="-793.3" font-family="Times,serif" font-style="italic" font-size="14.00">(mandatory)</text>
<polygon fill="#ddeeff" stroke="none" points="505.45,-764.5 505.45,-785.5 758.45,-785.5 758.45,-764.5 505.45,-764.5"/>
<polygon fill="none" stroke="#8ccbf2" points="505.45,-764.5 505.45,-785.5 758.45,-785.5 758.45,-764.5 505.45,-764.5"/>
<text text-anchor="start" x="508.45" y="-772.3" font-family="mono" font-size="14.00" fill="#c83500">lastModified</text>
<text text-anchor="start" x="608.45" y="-772.3" font-family="Times,serif" font-size="14.00"> : </text>
<text text-anchor="start" x="620.45" y="-772.3" font-family="mono" font-size="14.00" fill="#c83500">string</text>
<polygon fill="#ddeeff" stroke="none" points="505.45,-743.5 505.45,-764.5 758.45,-764.5 758.45,-743.5 505.45,-743.5"/>
<polygon fill="none" stroke="#8ccbf2" points="505.45,-743.5 505.45,-764.5 758.45,-764.5 758.45,-743.5 505.45,-743.5"/>
<text text-anchor="start" x="508.45" y="-751.3" font-family="mono" font-size="14.00" fill="#c83500">security</text>
<text text-anchor="start" x="575.45" y="-751.3" font-family="Times,serif" font-size="14.00"> : array of </text>
<text text-anchor="start" x="633.45" y="-751.3" font-family="mono" font-size="14.00" fill="#c83500">string</text>
<text text-anchor="start" x="683.45" y="-751.3" font-family="Times,serif" font-size="14.00"> </text>
<text text-anchor="start" x="687.45" y="-751.3" font-family="Times,serif" font-style="italic" font-size="14.00">(mandatory)</text>
<polygon fill="#ddeeff" stroke="none" points="505.45,-722.5 505.45,-743.5 758.45,-743.5 758.45,-722.5 505.45,-722.5"/>
<polygon fill="none" stroke="#8ccbf2" points="505.45,-722.5 505.45,-743.5 758.45,-743.5 758.45,-722.5 505.45,-722.5"/>
<text text-anchor="start" x="508.45" y="-730.3" font-family="mono" font-size="14.00" fill="#c83500">support</text>
<text text-anchor="start" x="566.45" y="-730.3" font-family="Times,serif" font-size="14.00"> : </text>
<text text-anchor="start" x="578.45" y="-730.3" font-family="mono" font-size="14.00" fill="#c83500">string</text>
<polygon fill="#ddeeff" stroke="none" points="505.45,-701.5 505.45,-722.5 758.45,-722.5 758.45,-701.5 505.45,-701.5"/>
<polygon fill="none" stroke="#8ccbf2" points="505.45,-701.5 505.45,-722.5 758.45,-722.5 758.45,-701.5 505.45,-701.5"/>
<text text-anchor="start" x="508.45" y="-709.3" font-family="mono" font-size="14.00" fill="#c83500">created</text>
<text text-anchor="start" x="566.45" y="-709.3" font-family="Times,serif" font-size="14.00"> : </text>
<text text-anchor="start" x="578.45" y="-709.3" font-family="mono" font-size="14.00" fill="#c83500">string</text>
<polygon fill="#ddeeff" stroke="none" points="505.45,-680.5 505.45,-701.5 758.45,-701.5 758.45,-680.5 505.45,-680.5"/>
<polygon fill="none" stroke="#8ccbf2" points="505.45,-680.5 505.45,-701.5 758.45,-701.5 758.45,-680.5 505.45,-680.5"/>
<text text-anchor="start" x="508.45" y="-688.3" font-family="mono" font-size="14.00" fill="#c83500">name</text>
<text text-anchor="start" x="542.45" y="-688.3" font-family="Times,serif" font-size="14.00"> : </text>
<text text-anchor="start" x="554.45" y="-688.3" font-family="mono" font-size="14.00" fill="#c83500">string</text>
<text text-anchor="start" x="604.45" y="-688.3" font-family="Times,serif" font-size="14.00"> </text>
<text text-anchor="start" x="608.45" y="-688.3" font-family="Times,serif" font-style="italic" font-size="14.00">(mandatory)</text>
<polygon fill="#ddeeff" stroke="none" points="505.45,-659.5 505.45,-680.5 758.45,-680.5 758.45,-659.5 505.45,-659.5"/>
<polygon fill="none" stroke="#8ccbf2" points="505.45,-659.5 505.45,-680.5 758.45,-680.5 758.45,-659.5 505.45,-659.5"/>
<text text-anchor="start" x="508.45" y="-667.3" font-family="mono" font-size="14.00" fill="#c83500">description</text>
<text text-anchor="start" x="599.45" y="-667.3" font-family="Times,serif" font-size="14.00"> : </text>
<text text-anchor="start" x="611.45" y="-667.3" font-family="mono" font-size="14.00" fill="#c83500">string</text>
<polygon fill="#ddeeff" stroke="none" points="505.45,-638.5 505.45,-659.5 758.45,-659.5 758.45,-638.5 505.45,-638.5"/>
<polygon fill="none" stroke="#8ccbf2" points="505.45,-638.5 505.45,-659.5 758.45,-659.5 758.45,-638.5 505.45,-638.5"/>
<text text-anchor="start" x="508.45" y="-646.3" font-family="mono" font-size="14.00" fill="#c83500">base</text>
<text text-anchor="start" x="542.45" y="-646.3" font-family="Times,serif" font-size="14.00"> : </text>
<text text-anchor="start" x="554.45" y="-646.3" font-family="mono" font-size="14.00" fill="#c83500">anyURI</text>
</g>
<!-- Thing&#45;&gt;MultiLanguage -->
<g id="edge10" class="edge"><title>Thing&#45;&gt;MultiLanguage</title>
<path fill="none" stroke="black" d="M496.655,-718.096C338.53,-698.095 90.7312,-655.996 34.4496,-584 -57.5521,-466.31 60.9486,-274.152 109.473,-205.165"/>
<polygon fill="black" stroke="black" points="112.6,-206.808 115.56,-196.636 106.902,-202.742 112.6,-206.808"/>
<text text-anchor="start" x="3.4496" y="-441.8" font-family="mono" font-size="14.00" fill="#c83500">descriptions</text>
<text text-anchor="middle" x="104.56" y="-200.436" font-family="Times,serif" font-size="14.00">0..1</text>
</g>
<!-- Thing&#45;&gt;Link -->
<g id="edge8" class="edge"><title>Thing&#45;&gt;Link</title>
<path fill="none" stroke="black" d="M496.516,-685.72C423.38,-659.232 331.66,-624.176 242.848,-584.081"/>
<polygon fill="black" stroke="black" points="244.261,-580.879 233.709,-579.933 241.368,-587.253 244.261,-580.879"/>
<text text-anchor="start" x="316.45" y="-605.8" font-family="mono" font-size="14.00" fill="#c83500">links</text>
<text text-anchor="middle" x="244.709" y="-583.733" font-family="Times,serif" font-size="14.00">0..*</text>
</g>
<!-- Property -->
<g id="node6" class="node"><title>Property</title>
<polygon fill="#8ccbf2" stroke="none" points="260.45,-527.5 260.45,-548.5 461.45,-548.5 461.45,-527.5 260.45,-527.5"/>
<polygon fill="none" stroke="#8ccbf2" points="260.45,-527.5 260.45,-548.5 461.45,-548.5 461.45,-527.5 260.45,-527.5"/>
<text text-anchor="start" x="327.45" y="-535.3" font-family="mono" font-weight="bold" font-size="14.00" fill="#c83500">Property</text>
<polygon fill="#ddeeff" stroke="none" points="260.45,-506.5 260.45,-527.5 461.45,-527.5 461.45,-506.5 260.45,-506.5"/>
<polygon fill="none" stroke="#8ccbf2" points="260.45,-506.5 260.45,-527.5 461.45,-527.5 461.45,-506.5 260.45,-506.5"/>
<text text-anchor="start" x="263.45" y="-514.3" font-family="mono" font-size="14.00" fill="#c83500">observable</text>
<text text-anchor="start" x="346.45" y="-514.3" font-family="Times,serif" font-size="14.00"> : </text>
<text text-anchor="start" x="358.45" y="-514.3" font-family="mono" font-size="14.00" fill="#c83500">boolean</text>
<text text-anchor="start" x="416.45" y="-514.3" font-family="Times,serif" font-size="14.00"> = false</text>
</g>
<!-- Thing&#45;&gt;Property -->
<g id="edge7" class="edge"><title>Thing&#45;&gt;Property</title>
<path fill="none" stroke="black" d="M501.902,-634.981C465.028,-607.223 427.564,-579.022 400.464,-558.621"/>
<polygon fill="black" stroke="black" points="402.492,-555.767 392.398,-552.55 398.282,-561.36 402.492,-555.767"/>
<text text-anchor="start" x="472.45" y="-605.8" font-family="mono" font-size="14.00" fill="#c83500">properties</text>
<text text-anchor="middle" x="381.398" y="-556.35" font-family="Times,serif" font-size="14.00">0..1</text>
</g>
<!-- Action -->
<g id="node8" class="node"><title>Action</title>
<polygon fill="#8ccbf2" stroke="none" points="495.45,-537.5 495.45,-558.5 768.45,-558.5 768.45,-537.5 495.45,-537.5"/>
<polygon fill="none" stroke="#8ccbf2" points="495.45,-537.5 495.45,-558.5 768.45,-558.5 768.45,-537.5 495.45,-537.5"/>
<text text-anchor="start" x="606.95" y="-545.3" font-family="mono" font-weight="bold" font-size="14.00" fill="#c83500">Action</text>
<polygon fill="#ddeeff" stroke="none" points="495.45,-516.5 495.45,-537.5 768.45,-537.5 768.45,-516.5 495.45,-516.5"/>
<polygon fill="none" stroke="#8ccbf2" points="495.45,-516.5 495.45,-537.5 768.45,-537.5 768.45,-516.5 495.45,-516.5"/>
<text text-anchor="start" x="498.45" y="-524.3" font-family="mono" font-size="14.00" fill="#c83500">safe</text>
<text text-anchor="start" x="532.45" y="-524.3" font-family="Times,serif" font-size="14.00"> : </text>
<text text-anchor="start" x="544.45" y="-524.3" font-family="mono" font-size="14.00" fill="#c83500">boolean</text>
<text text-anchor="start" x="602.45" y="-524.3" font-family="Times,serif" font-size="14.00"> = false </text>
<text text-anchor="start" x="648.45" y="-524.3" font-family="Times,serif" font-style="italic" font-size="14.00">(mandatory)</text>
<polygon fill="#ddeeff" stroke="none" points="495.45,-495.5 495.45,-516.5 768.45,-516.5 768.45,-495.5 495.45,-495.5"/>
<polygon fill="none" stroke="#8ccbf2" points="495.45,-495.5 495.45,-516.5 768.45,-516.5 768.45,-495.5 495.45,-495.5"/>
<text text-anchor="start" x="498.45" y="-503.3" font-family="mono" font-size="14.00" fill="#c83500">idempotent</text>
<text text-anchor="start" x="581.45" y="-503.3" font-family="Times,serif" font-size="14.00"> : </text>
<text text-anchor="start" x="593.45" y="-503.3" font-family="mono" font-size="14.00" fill="#c83500">boolean</text>
<text text-anchor="start" x="651.45" y="-503.3" font-family="Times,serif" font-size="14.00"> = false </text>
<text text-anchor="start" x="697.45" y="-503.3" font-family="Times,serif" font-style="italic" font-size="14.00">(mandatory)</text>
</g>
<!-- Thing&#45;&gt;Action -->
<g id="edge11" class="edge"><title>Thing&#45;&gt;Action</title>
<path fill="none" stroke="black" d="M631.45,-634.981C631.45,-613.301 631.45,-591.35 631.45,-573.057"/>
<polygon fill="black" stroke="black" points="634.95,-573.017 631.45,-563.017 627.95,-573.017 634.95,-573.017"/>
<text text-anchor="start" x="631.45" y="-605.8" font-family="mono" font-size="14.00" fill="#c83500">actions</text>
<text text-anchor="middle" x="620.45" y="-566.817" font-family="Times,serif" font-size="14.00">0..1</text>
</g>
<!-- Event -->
<g id="node9" class="node"><title>Event</title>
<polygon fill="#8ccbf2" stroke="none" points="801.45,-516.5 801.45,-537.5 849.45,-537.5 849.45,-516.5 801.45,-516.5"/>
<polygon fill="none" stroke="#8ccbf2" points="801.45,-516.5 801.45,-537.5 849.45,-537.5 849.45,-516.5 801.45,-516.5"/>
<text text-anchor="start" x="804.45" y="-524.3" font-family="mono" font-weight="bold" font-size="14.00" fill="#c83500">Event</text>
</g>
<!-- Thing&#45;&gt;Event -->
<g id="edge6" class="edge"><title>Thing&#45;&gt;Event</title>
<path fill="none" stroke="black" d="M736.662,-634.87C753.124,-618.332 769.59,-601.001 784.45,-584 792.658,-574.608 800.972,-563.675 807.948,-554.007"/>
<polygon fill="black" stroke="black" points="811.005,-555.747 813.937,-545.566 805.296,-551.697 811.005,-555.747"/>
<text text-anchor="start" x="765.45" y="-605.8" font-family="mono" font-size="14.00" fill="#c83500">events</text>
<text text-anchor="middle" x="802.937" y="-549.366" font-family="Times,serif" font-size="14.00">0..1</text>
</g>
<!-- Versioning -->
<g id="node10" class="node"><title>Versioning</title>
<polygon fill="#8ccbf2" stroke="none" points="884.45,-527.5 884.45,-548.5 1091.45,-548.5 1091.45,-527.5 884.45,-527.5"/>
<polygon fill="none" stroke="#8ccbf2" points="884.45,-527.5 884.45,-548.5 1091.45,-548.5 1091.45,-527.5 884.45,-527.5"/>
<text text-anchor="start" x="946.45" y="-535.3" font-family="mono" font-weight="bold" font-size="14.00" fill="#c83500">Versioning</text>
<polygon fill="#ddeeff" stroke="none" points="884.45,-506.5 884.45,-527.5 1091.45,-527.5 1091.45,-506.5 884.45,-506.5"/>
<polygon fill="none" stroke="#8ccbf2" points="884.45,-506.5 884.45,-527.5 1091.45,-527.5 1091.45,-506.5 884.45,-506.5"/>
<text text-anchor="start" x="887.45" y="-514.3" font-family="mono" font-size="14.00" fill="#c83500">instance</text>
<text text-anchor="start" x="954.45" y="-514.3" font-family="Times,serif" font-size="14.00"> : </text>
<text text-anchor="start" x="966.45" y="-514.3" font-family="mono" font-size="14.00" fill="#c83500">string</text>
<text text-anchor="start" x="1016.45" y="-514.3" font-family="Times,serif" font-size="14.00"> </text>
<text text-anchor="start" x="1020.45" y="-514.3" font-family="Times,serif" font-style="italic" font-size="14.00">(mandatory)</text>
</g>
<!-- Thing&#45;&gt;Versioning -->
<g id="edge12" class="edge"><title>Thing&#45;&gt;Versioning</title>
<path fill="none" stroke="black" d="M766.038,-655.376C825.538,-621.281 891.929,-583.236 936.352,-557.781"/>
<polygon fill="black" stroke="black" points="938.275,-560.713 945.211,-552.704 934.794,-554.639 938.275,-560.713"/>
<text text-anchor="start" x="852.45" y="-605.8" font-family="mono" font-size="14.00" fill="#c83500">version</text>
<text text-anchor="middle" x="934.211" y="-556.504" font-family="Times,serif" font-size="14.00">0..1</text>
</g>
<!-- SecurityScheme -->
<g id="node12" class="node"><title>SecurityScheme</title>
<polygon fill="#f2f2f2" stroke="none" points="1125.45,-516.5 1125.45,-537.5 1247.45,-537.5 1247.45,-516.5 1125.45,-516.5"/>
<polygon fill="none" stroke="#8c8c8c" points="1125.45,-516.5 1125.45,-537.5 1247.45,-537.5 1247.45,-516.5 1125.45,-516.5"/>
<text text-anchor="start" x="1128.45" y="-524.3" font-family="mono" font-weight="bold" font-size="14.00">SecurityScheme</text>
</g>
<!-- Thing&#45;&gt;SecurityScheme -->
<g id="edge9" class="edge"><title>Thing&#45;&gt;SecurityScheme</title>
<path fill="none" stroke="black" d="M765.982,-702.418C863.715,-677.76 997.55,-638.096 1107.45,-584 1125.17,-575.275 1143.33,-562.819 1157.75,-551.917"/>
<polygon fill="black" stroke="black" points="1160.01,-554.599 1165.78,-545.718 1155.73,-549.057 1160.01,-554.599"/>
<text text-anchor="start" x="1058.45" y="-605.8" font-family="mono" font-size="14.00" fill="#c83500">securityDefinitions</text>
<text text-anchor="middle" x="1154.78" y="-549.518" font-family="Times,serif" font-size="14.00">0..1</text>
</g>
<!-- Property&#45;&gt;InteractionPattern -->
<g id="edge20" class="edge"><title>Property&#45;&gt;InteractionPattern</title>
<path fill="none" stroke="black" d="M361.198,-502.247C361.787,-483.156 362.637,-455.613 363.423,-430.165"/>
<polygon fill="white" stroke="black" points="366.921,-430.27 363.731,-420.167 359.925,-430.054 366.921,-430.27"/>
</g>
<!-- Action&#45;&gt;InteractionPattern -->
<g id="edge18" class="edge"><title>Action&#45;&gt;InteractionPattern</title>
<path fill="none" stroke="black" d="M552.055,-491.971C528.158,-480.561 502.241,-467.139 479.45,-453 466.438,-444.928 453.142,-435.666 440.439,-426.243"/>
<polygon fill="white" stroke="black" points="442.282,-423.25 432.185,-420.038 438.075,-428.845 442.282,-423.25"/>
</g>
<!-- Action&#45;&gt;DataSchema -->
<g id="edge13" class="edge"><title>Action&#45;&gt;DataSchema</title>
<path fill="none" stroke="black" d="M600.228,-491.86C584.701,-472.275 567.555,-446.461 559.45,-420 544.741,-371.98 544.008,-354.789 559.45,-307 572.551,-266.453 603.884,-227.946 626.341,-204.069"/>
<polygon fill="black" stroke="black" points="628.878,-206.48 633.287,-196.846 623.832,-201.628 628.878,-206.48"/>
<text text-anchor="start" x="559.45" y="-359.8" font-family="mono" font-size="14.00" fill="#c83500">output</text>
<text text-anchor="middle" x="644.287" y="-200.646" font-family="Times,serif" font-size="14.00">0..1</text>
</g>
<!-- Action&#45;&gt;DataSchema -->
<g id="edge14" class="edge"><title>Action&#45;&gt;DataSchema</title>
<path fill="none" stroke="black" d="M633.44,-491.96C637.411,-423.069 646.244,-269.825 649.86,-207.088"/>
<polygon fill="black" stroke="black" points="653.371,-206.989 650.452,-196.804 646.383,-206.586 653.371,-206.989"/>
<text text-anchor="start" x="644.45" y="-359.8" font-family="mono" font-size="14.00" fill="#c83500">input</text>
<text text-anchor="middle" x="661.452" y="-200.604" font-family="Times,serif" font-size="14.00">0..1</text>
</g>
<!-- Event&#45;&gt;InteractionPattern -->
<g id="edge19" class="edge"><title>Event&#45;&gt;InteractionPattern</title>
<path fill="none" stroke="black" d="M817.291,-509.481C810.335,-496.855 799.132,-480.282 784.45,-471 781.328,-469.026 527.014,-420.969 523.45,-420 507.267,-415.602 490.356,-410.368 473.866,-404.898"/>
<polygon fill="white" stroke="black" points="474.808,-401.523 464.214,-401.655 472.579,-408.158 474.808,-401.523"/>
</g>
<!-- Event&#45;&gt;DataSchema -->
<g id="edge15" class="edge"><title>Event&#45;&gt;DataSchema</title>
<path fill="none" stroke="black" d="M835.628,-509.375C843.151,-497.656 854.184,-482.262 866.45,-471 898.342,-441.718 928.317,-457.789 949.45,-420 973.963,-376.167 977.109,-348.919 949.45,-307 897.313,-227.985 785.014,-197.759 714.136,-186.321"/>
<polygon fill="black" stroke="black" points="714.406,-182.822 703.991,-184.766 713.345,-189.741 714.406,-182.822"/>
<text text-anchor="start" x="969.45" y="-359.8" font-family="mono" font-size="14.00" fill="#c83500">data</text>
<text text-anchor="middle" x="714.991" y="-188.566" font-family="Times,serif" font-size="14.00">0..1</text>
</g>
<!-- Event&#45;&gt;DataSchema -->
<g id="edge16" class="edge"><title>Event&#45;&gt;DataSchema</title>
<path fill="none" stroke="black" d="M814.231,-509.167C806.492,-497.783 795.619,-482.861 784.45,-471 760.224,-445.273 742.895,-449.507 723.45,-420 717.413,-410.84 676.331,-267.309 659.067,-206.447"/>
<polygon fill="black" stroke="black" points="662.414,-205.424 656.321,-196.756 655.68,-207.332 662.414,-205.424"/>
<text text-anchor="start" x="723.45" y="-359.8" font-family="mono" font-size="14.00" fill="#c83500">cancellation</text>
<text text-anchor="middle" x="667.321" y="-200.556" font-family="Times,serif" font-size="14.00">0..1</text>
</g>
<!-- Event&#45;&gt;DataSchema -->
<g id="edge17" class="edge"><title>Event&#45;&gt;DataSchema</title>
<path fill="none" stroke="black" d="M830.169,-509.335C839.802,-470.687 858.036,-374.919 823.45,-307 797.967,-256.959 742.661,-221.577 701.605,-200.98"/>
<polygon fill="black" stroke="black" points="703.075,-197.802 692.553,-196.56 700.003,-204.093 703.075,-197.802"/>
<text text-anchor="start" x="844.45" y="-359.8" font-family="mono" font-size="14.00" fill="#c83500">subscription</text>
<text text-anchor="middle" x="703.553" y="-200.36" font-family="Times,serif" font-size="14.00">0..1</text>
</g>
</g>
</svg>
