<?xml version="1.0" encoding="UTF-8" standalone="no"?>
<!DOCTYPE svg PUBLIC "-//W3C//DTD SVG 1.1//EN"
 "http://www.w3.org/Graphics/SVG/1.1/DTD/svg11.dtd">
<!-- Generated by graphviz version 2.40.1 (20161225.0304)
 -->
<!-- Title: %3 Pages: 1 -->
<svg width="1325pt" height="819pt"
 viewBox="0.00 0.00 1324.50 819.00" xmlns="http://www.w3.org/2000/svg" xmlns:xlink="http://www.w3.org/1999/xlink">
<g id="graph0" class="graph" transform="scale(1 1) rotate(0) translate(4 815)">
<title>%3</title>
<polygon fill="#ffffff" stroke="transparent" points="-4,4 -4,-815 1320.5,-815 1320.5,4 -4,4"/>
<!-- MultiLanguage -->
<g id="node1" class="node">
<title>MultiLanguage</title>
<polygon fill="#8ccbf2" stroke="transparent" points="274.5,-167.5 274.5,-188.5 388.5,-188.5 388.5,-167.5 274.5,-167.5"/>
<polygon fill="none" stroke="#8ccbf2" points="274.5,-167.5 274.5,-188.5 388.5,-188.5 388.5,-167.5 274.5,-167.5"/>
<text text-anchor="start" x="277.5" y="-175.3" font-family="mono" font-weight="bold" font-size="14.00" fill="#c83500">MultiLanguage</text>
</g>
<!-- Form -->
<g id="node2" class="node">
<title>Form</title>
<polygon fill="#8ccbf2" stroke="transparent" points="8.5,-230.5 8.5,-251.5 239.5,-251.5 239.5,-230.5 8.5,-230.5"/>
<polygon fill="none" stroke="#8ccbf2" points="8.5,-230.5 8.5,-251.5 239.5,-251.5 239.5,-230.5 8.5,-230.5"/>
<text text-anchor="start" x="107" y="-238.3" font-family="mono" font-weight="bold" font-size="14.00" fill="#c83500">Form</text>
<polygon fill="#ddeeff" stroke="transparent" points="8.5,-209.5 8.5,-230.5 239.5,-230.5 239.5,-209.5 8.5,-209.5"/>
<polygon fill="none" stroke="#8ccbf2" points="8.5,-209.5 8.5,-230.5 239.5,-230.5 239.5,-209.5 8.5,-209.5"/>
<text text-anchor="start" x="11.5" y="-217.3" font-family="mono" font-size="14.00" fill="#c83500">op</text>
<text text-anchor="start" x="28.5" y="-217.3" font-family="Times,serif" font-size="14.00" fill="#000000"> : (array of) </text>
<text text-anchor="start" x="95.5" y="-217.3" font-family="mono" font-size="14.00" fill="#c83500">string</text>
<text text-anchor="start" x="145.5" y="-217.3" font-family="Times,serif" font-size="14.00" fill="#000000"> </text>
<text text-anchor="start" x="149.5" y="-217.3" font-family="Times,serif" font-style="italic" font-size="14.00" fill="#000000">(mandatory)</text>
<polygon fill="#ddeeff" stroke="transparent" points="8.5,-188.5 8.5,-209.5 239.5,-209.5 239.5,-188.5 8.5,-188.5"/>
<polygon fill="none" stroke="#8ccbf2" points="8.5,-188.5 8.5,-209.5 239.5,-209.5 239.5,-188.5 8.5,-188.5"/>
<text text-anchor="start" x="11.5" y="-196.3" font-family="mono" font-size="14.00" fill="#c83500">security</text>
<text text-anchor="start" x="78.5" y="-196.3" font-family="Times,serif" font-size="14.00" fill="#000000"> : array of </text>
<text text-anchor="start" x="136.5" y="-196.3" font-family="mono" font-size="14.00" fill="#c83500">string</text>
<polygon fill="#ddeeff" stroke="transparent" points="8.5,-167.5 8.5,-188.5 239.5,-188.5 239.5,-167.5 8.5,-167.5"/>
<polygon fill="none" stroke="#8ccbf2" points="8.5,-167.5 8.5,-188.5 239.5,-188.5 239.5,-167.5 8.5,-167.5"/>
<text text-anchor="start" x="11.5" y="-175.3" font-family="mono" font-size="14.00" fill="#c83500">subprotocol</text>
<text text-anchor="start" x="102.5" y="-175.3" font-family="Times,serif" font-size="14.00" fill="#000000"> : </text>
<text text-anchor="start" x="114.5" y="-175.3" font-family="mono" font-size="14.00" fill="#c83500">string</text>
<polygon fill="#ddeeff" stroke="transparent" points="8.5,-146.5 8.5,-167.5 239.5,-167.5 239.5,-146.5 8.5,-146.5"/>
<polygon fill="none" stroke="#8ccbf2" points="8.5,-146.5 8.5,-167.5 239.5,-167.5 239.5,-146.5 8.5,-146.5"/>
<text text-anchor="start" x="11.5" y="-154.3" font-family="mono" font-size="14.00" fill="#c83500">scopes</text>
<text text-anchor="start" x="61.5" y="-154.3" font-family="Times,serif" font-size="14.00" fill="#000000"> : array of </text>
<text text-anchor="start" x="119.5" y="-154.3" font-family="mono" font-size="14.00" fill="#c83500">string</text>
<polygon fill="#ddeeff" stroke="transparent" points="8.5,-125.5 8.5,-146.5 239.5,-146.5 239.5,-125.5 8.5,-125.5"/>
<polygon fill="none" stroke="#8ccbf2" points="8.5,-125.5 8.5,-146.5 239.5,-146.5 239.5,-125.5 8.5,-125.5"/>
<text text-anchor="start" x="11.5" y="-133.3" font-family="mono" font-size="14.00" fill="#c83500">contentType</text>
<text text-anchor="start" x="102.5" y="-133.3" font-family="Times,serif" font-size="14.00" fill="#000000"> : </text>
<text text-anchor="start" x="114.5" y="-133.3" font-family="mono" font-size="14.00" fill="#c83500">string</text>
<text text-anchor="start" x="164.5" y="-133.3" font-family="Times,serif" font-size="14.00" fill="#000000"> </text>
<text text-anchor="start" x="168.5" y="-133.3" font-family="Times,serif" font-style="italic" font-size="14.00" fill="#000000">(mandatory)</text>
<polygon fill="#ddeeff" stroke="transparent" points="8.5,-104.5 8.5,-125.5 239.5,-125.5 239.5,-104.5 8.5,-104.5"/>
<polygon fill="none" stroke="#8ccbf2" points="8.5,-104.5 8.5,-125.5 239.5,-125.5 239.5,-104.5 8.5,-104.5"/>
<text text-anchor="start" x="11.5" y="-112.3" font-family="mono" font-size="14.00" fill="#c83500">href</text>
<text text-anchor="start" x="45.5" y="-112.3" font-family="Times,serif" font-size="14.00" fill="#000000"> : </text>
<text text-anchor="start" x="57.5" y="-112.3" font-family="mono" font-size="14.00" fill="#c83500">anyURI</text>
<text text-anchor="start" x="107.5" y="-112.3" font-family="Times,serif" font-size="14.00" fill="#000000"> </text>
<text text-anchor="start" x="111.5" y="-112.3" font-family="Times,serif" font-style="italic" font-size="14.00" fill="#000000">(mandatory)</text>
</g>
<!-- ExpectedResponse -->
<g id="node5" class="node">
<title>ExpectedResponse</title>
<polygon fill="#8ccbf2" stroke="transparent" points="8.5,-25 8.5,-46 239.5,-46 239.5,-25 8.5,-25"/>
<polygon fill="none" stroke="#8ccbf2" points="8.5,-25 8.5,-46 239.5,-46 239.5,-25 8.5,-25"/>
<text text-anchor="start" x="57.5" y="-32.8" font-family="mono" font-weight="bold" font-size="14.00" fill="#c83500">ExpectedResponse</text>
<polygon fill="#ddeeff" stroke="transparent" points="8.5,-4 8.5,-25 239.5,-25 239.5,-4 8.5,-4"/>
<polygon fill="none" stroke="#8ccbf2" points="8.5,-4 8.5,-25 239.5,-25 239.5,-4 8.5,-4"/>
<text text-anchor="start" x="11.5" y="-11.8" font-family="mono" font-size="14.00" fill="#c83500">contentType</text>
<text text-anchor="start" x="102.5" y="-11.8" font-family="Times,serif" font-size="14.00" fill="#000000"> : </text>
<text text-anchor="start" x="114.5" y="-11.8" font-family="mono" font-size="14.00" fill="#c83500">string</text>
<text text-anchor="start" x="164.5" y="-11.8" font-family="Times,serif" font-size="14.00" fill="#000000"> </text>
<text text-anchor="start" x="168.5" y="-11.8" font-family="Times,serif" font-style="italic" font-size="14.00" fill="#000000">(mandatory)</text>
</g>
<!-- Form&#45;&gt;ExpectedResponse -->
<g id="edge1" class="edge">
<title>Form&#45;&gt;ExpectedResponse</title>
<path fill="none" stroke="#000000" d="M123.5,-100.8506C123.5,-86.7022 123.5,-72.5946 123.5,-60.4513"/>
<polygon fill="#000000" stroke="#000000" points="127.0001,-60.3339 123.5,-50.334 120.0001,-60.334 127.0001,-60.3339"/>
<text text-anchor="start" x="123.5" y="-71.8" font-family="mono" font-size="14.00" fill="#c83500">response</text>
<text text-anchor="middle" x="112.5" y="-54.134" font-family="Times,serif" font-size="14.00" fill="#000000">0..1</text>
</g>
<!-- Thing -->
<g id="node3" class="node">
<title>Thing</title>
<polygon fill="#8ccbf2" stroke="transparent" points="545.5,-786 545.5,-807 798.5,-807 798.5,-786 545.5,-786"/>
<polygon fill="none" stroke="#8ccbf2" points="545.5,-786 545.5,-807 798.5,-807 798.5,-786 545.5,-786"/>
<text text-anchor="start" x="651" y="-793.8" font-family="mono" font-weight="bold" font-size="14.00" fill="#c83500">Thing</text>
<polygon fill="#ddeeff" stroke="transparent" points="545.5,-765 545.5,-786 798.5,-786 798.5,-765 545.5,-765"/>
<polygon fill="none" stroke="#8ccbf2" points="545.5,-765 545.5,-786 798.5,-786 798.5,-765 545.5,-765"/>
<text text-anchor="start" x="548.5" y="-772.8" font-family="mono" font-size="14.00" fill="#c83500">@context</text>
<text text-anchor="start" x="615.5" y="-772.8" font-family="Times,serif" font-size="14.00" fill="#000000"> : </text>
<text text-anchor="start" x="627.5" y="-772.8" font-family="Times,serif" font-style="italic" font-size="14.00" fill="#000000">array</text>
<text text-anchor="start" x="658.5" y="-772.8" font-family="Times,serif" font-size="14.00" fill="#000000"> </text>
<text text-anchor="start" x="662.5" y="-772.8" font-family="Times,serif" font-style="italic" font-size="14.00" fill="#000000">(mandatory)</text>
<polygon fill="#ddeeff" stroke="transparent" points="545.5,-744 545.5,-765 798.5,-765 798.5,-744 545.5,-744"/>
<polygon fill="none" stroke="#8ccbf2" points="545.5,-744 545.5,-765 798.5,-765 798.5,-744 545.5,-744"/>
<text text-anchor="start" x="548.5" y="-751.8" font-family="mono" font-size="14.00" fill="#c83500">@type</text>
<text text-anchor="start" x="590.5" y="-751.8" font-family="Times,serif" font-size="14.00" fill="#000000"> : </text>
<text text-anchor="start" x="602.5" y="-751.8" font-family="Times,serif" font-style="italic" font-size="14.00" fill="#000000">array of </text>
<text text-anchor="start" x="651.5" y="-751.8" font-family="mono" font-size="14.00" fill="#c83500">string</text>
<polygon fill="#ddeeff" stroke="transparent" points="545.5,-723 545.5,-744 798.5,-744 798.5,-723 545.5,-723"/>
<polygon fill="none" stroke="#8ccbf2" points="545.5,-723 545.5,-744 798.5,-744 798.5,-723 545.5,-723"/>
<text text-anchor="start" x="548.5" y="-730.8" font-family="mono" font-size="14.00" fill="#c83500">id</text>
<text text-anchor="start" x="565.5" y="-730.8" font-family="Times,serif" font-size="14.00" fill="#000000"> : </text>
<text text-anchor="start" x="577.5" y="-730.8" font-family="mono" font-size="14.00" fill="#c83500">anyURI</text>
<text text-anchor="start" x="627.5" y="-730.8" font-family="Times,serif" font-size="14.00" fill="#000000"> </text>
<text text-anchor="start" x="631.5" y="-730.8" font-family="Times,serif" font-style="italic" font-size="14.00" fill="#000000">(mandatory)</text>
<polygon fill="#ddeeff" stroke="transparent" points="545.5,-702 545.5,-723 798.5,-723 798.5,-702 545.5,-702"/>
<polygon fill="none" stroke="#8ccbf2" points="545.5,-702 545.5,-723 798.5,-723 798.5,-702 545.5,-702"/>
<text text-anchor="start" x="548.5" y="-709.8" font-family="mono" font-size="14.00" fill="#c83500">support</text>
<text text-anchor="start" x="606.5" y="-709.8" font-family="Times,serif" font-size="14.00" fill="#000000"> : </text>
<text text-anchor="start" x="618.5" y="-709.8" font-family="mono" font-size="14.00" fill="#c83500">string</text>
<polygon fill="#ddeeff" stroke="transparent" points="545.5,-681 545.5,-702 798.5,-702 798.5,-681 545.5,-681"/>
<polygon fill="none" stroke="#8ccbf2" points="545.5,-681 545.5,-702 798.5,-702 798.5,-681 545.5,-681"/>
<text text-anchor="start" x="548.5" y="-688.8" font-family="mono" font-size="14.00" fill="#c83500">lastModified</text>
<text text-anchor="start" x="648.5" y="-688.8" font-family="Times,serif" font-size="14.00" fill="#000000"> : </text>
<text text-anchor="start" x="660.5" y="-688.8" font-family="mono" font-size="14.00" fill="#c83500">string</text>
<polygon fill="#ddeeff" stroke="transparent" points="545.5,-660 545.5,-681 798.5,-681 798.5,-660 545.5,-660"/>
<polygon fill="none" stroke="#8ccbf2" points="545.5,-660 545.5,-681 798.5,-681 798.5,-660 545.5,-660"/>
<text text-anchor="start" x="548.5" y="-667.8" font-family="mono" font-size="14.00" fill="#c83500">name</text>
<text text-anchor="start" x="582.5" y="-667.8" font-family="Times,serif" font-size="14.00" fill="#000000"> : </text>
<text text-anchor="start" x="594.5" y="-667.8" font-family="mono" font-size="14.00" fill="#c83500">string</text>
<text text-anchor="start" x="644.5" y="-667.8" font-family="Times,serif" font-size="14.00" fill="#000000"> </text>
<text text-anchor="start" x="648.5" y="-667.8" font-family="Times,serif" font-style="italic" font-size="14.00" fill="#000000">(mandatory)</text>
<polygon fill="#ddeeff" stroke="transparent" points="545.5,-639 545.5,-660 798.5,-660 798.5,-639 545.5,-639"/>
<polygon fill="none" stroke="#8ccbf2" points="545.5,-639 545.5,-660 798.5,-660 798.5,-639 545.5,-639"/>
<text text-anchor="start" x="548.5" y="-646.8" font-family="mono" font-size="14.00" fill="#c83500">security</text>
<text text-anchor="start" x="615.5" y="-646.8" font-family="Times,serif" font-size="14.00" fill="#000000"> : array of </text>
<text text-anchor="start" x="673.5" y="-646.8" font-family="mono" font-size="14.00" fill="#c83500">string</text>
<text text-anchor="start" x="723.5" y="-646.8" font-family="Times,serif" font-size="14.00" fill="#000000"> </text>
<text text-anchor="start" x="727.5" y="-646.8" font-family="Times,serif" font-style="italic" font-size="14.00" fill="#000000">(mandatory)</text>
<polygon fill="#ddeeff" stroke="transparent" points="545.5,-618 545.5,-639 798.5,-639 798.5,-618 545.5,-618"/>
<polygon fill="none" stroke="#8ccbf2" points="545.5,-618 545.5,-639 798.5,-639 798.5,-618 545.5,-618"/>
<text text-anchor="start" x="548.5" y="-625.8" font-family="mono" font-size="14.00" fill="#c83500">base</text>
<text text-anchor="start" x="582.5" y="-625.8" font-family="Times,serif" font-size="14.00" fill="#000000"> : </text>
<text text-anchor="start" x="594.5" y="-625.8" font-family="mono" font-size="14.00" fill="#c83500">anyURI</text>
<polygon fill="#ddeeff" stroke="transparent" points="545.5,-597 545.5,-618 798.5,-618 798.5,-597 545.5,-597"/>
<polygon fill="none" stroke="#8ccbf2" points="545.5,-597 545.5,-618 798.5,-618 798.5,-597 545.5,-597"/>
<text text-anchor="start" x="548.5" y="-604.8" font-family="mono" font-size="14.00" fill="#c83500">description</text>
<text text-anchor="start" x="639.5" y="-604.8" font-family="Times,serif" font-size="14.00" fill="#000000"> : </text>
<text text-anchor="start" x="651.5" y="-604.8" font-family="mono" font-size="14.00" fill="#c83500">string</text>
<polygon fill="#ddeeff" stroke="transparent" points="545.5,-576 545.5,-597 798.5,-597 798.5,-576 545.5,-576"/>
<polygon fill="none" stroke="#8ccbf2" points="545.5,-576 545.5,-597 798.5,-597 798.5,-576 545.5,-576"/>
<text text-anchor="start" x="548.5" y="-583.8" font-family="mono" font-size="14.00" fill="#c83500">created</text>
<text text-anchor="start" x="606.5" y="-583.8" font-family="Times,serif" font-size="14.00" fill="#000000"> : </text>
<text text-anchor="start" x="618.5" y="-583.8" font-family="mono" font-size="14.00" fill="#c83500">string</text>
<polygon fill="#ddeeff" stroke="transparent" points="545.5,-555 545.5,-576 798.5,-576 798.5,-555 545.5,-555"/>
<polygon fill="none" stroke="#8ccbf2" points="545.5,-555 545.5,-576 798.5,-576 798.5,-555 545.5,-555"/>
<text text-anchor="start" x="548.5" y="-562.8" font-family="mono" font-size="14.00" fill="#c83500">names</text>
<text text-anchor="start" x="590.5" y="-562.8" font-family="Times,serif" font-size="14.00" fill="#000000"> : </text>
<text text-anchor="start" x="602.5" y="-562.8" font-family="mono" font-size="14.00" fill="#c83500">string</text>
<text text-anchor="start" x="652.5" y="-562.8" font-family="Times,serif" font-size="14.00" fill="#000000"> </text>
<text text-anchor="start" x="656.5" y="-562.8" font-family="Times,serif" font-style="italic" font-size="14.00" fill="#000000">(mandatory)</text>
</g>
<!-- Thing&#45;&gt;MultiLanguage -->
<g id="edge5" class="edge">
<title>Thing&#45;&gt;MultiLanguage</title>
<path fill="none" stroke="#000000" d="M536.8798,-665.3658C434.1294,-645.5829 299.081,-600.8761 231.5,-500 166.6907,-403.2612 263.2922,-262.4071 309.3469,-204.6683"/>
<polygon fill="#000000" stroke="#000000" points="312.1727,-206.7404 315.7498,-196.7677 306.7344,-202.3329 312.1727,-206.7404"/>
<text text-anchor="start" x="212.5" y="-399.8" font-family="mono" font-size="14.00" fill="#c83500">descriptions</text>
<text text-anchor="middle" x="304.7498" y="-200.5677" font-family="Times,serif" font-size="14.00" fill="#000000">0..1</text>
</g>
<!-- Thing&#45;&gt;Form -->
<g id="edge4" class="edge">
<title>Thing&#45;&gt;Form</title>
<path fill="none" stroke="#000000" d="M536.9298,-667.4574C428.8346,-648.855 282.8929,-604.7151 206.5,-500 156.4699,-431.4216 136.5336,-335.3599 128.6238,-266.1246"/>
<polygon fill="#000000" stroke="#000000" points="132.0959,-265.6768 127.5419,-256.1107 125.1364,-266.4288 132.0959,-265.6768"/>
<text text-anchor="start" x="161.5" y="-399.8" font-family="mono" font-size="14.00" fill="#c83500">forms</text>
<text text-anchor="middle" x="116.5419" y="-259.9107" font-family="Times,serif" font-size="14.00" fill="#000000">0..*</text>
</g>
<!-- PropertyAffordance -->
<g id="node4" class="node">
<title>PropertyAffordance</title>
<polygon fill="#8ccbf2" stroke="transparent" points="249.5,-464.5 249.5,-485.5 408.5,-485.5 408.5,-464.5 249.5,-464.5"/>
<polygon fill="none" stroke="#8ccbf2" points="249.5,-464.5 249.5,-485.5 408.5,-485.5 408.5,-464.5 249.5,-464.5"/>
<text text-anchor="start" x="254.5" y="-472.3" font-family="mono" font-weight="bold" font-size="14.00" fill="#c83500">PropertyAffordance</text>
<polygon fill="#ddeeff" stroke="transparent" points="249.5,-443.5 249.5,-464.5 408.5,-464.5 408.5,-443.5 249.5,-443.5"/>
<polygon fill="none" stroke="#8ccbf2" points="249.5,-443.5 249.5,-464.5 408.5,-464.5 408.5,-443.5 249.5,-443.5"/>
<text text-anchor="start" x="252.5" y="-451.3" font-family="mono" font-size="14.00" fill="#c83500">observable</text>
<text text-anchor="start" x="335.5" y="-451.3" font-family="Times,serif" font-size="14.00" fill="#000000"> : </text>
<text text-anchor="start" x="347.5" y="-451.3" font-family="mono" font-size="14.00" fill="#c83500">boolean</text>
</g>
<!-- Thing&#45;&gt;PropertyAffordance -->
<g id="edge8" class="edge">
<title>Thing&#45;&gt;PropertyAffordance</title>
<path fill="none" stroke="#000000" d="M536.9218,-596.0549C480.5012,-560.4425 418.4839,-521.2974 376.8922,-495.0449"/>
<polygon fill="#000000" stroke="#000000" points="378.6609,-492.0225 368.3364,-489.6445 374.9246,-497.9419 378.6609,-492.0225"/>
<text text-anchor="start" x="430.5" y="-521.8" font-family="mono" font-size="14.00" fill="#c83500">properties</text>
<text text-anchor="middle" x="357.3364" y="-493.4445" font-family="Times,serif" font-size="14.00" fill="#000000">0..1</text>
</g>
<!-- VersionInfo -->
<g id="node6" class="node">
<title>VersionInfo</title>
<polygon fill="#8ccbf2" stroke="transparent" points="442.5,-464.5 442.5,-485.5 649.5,-485.5 649.5,-464.5 442.5,-464.5"/>
<polygon fill="none" stroke="#8ccbf2" points="442.5,-464.5 442.5,-485.5 649.5,-485.5 649.5,-464.5 442.5,-464.5"/>
<text text-anchor="start" x="500.5" y="-472.3" font-family="mono" font-weight="bold" font-size="14.00" fill="#c83500">VersionInfo</text>
<polygon fill="#ddeeff" stroke="transparent" points="442.5,-443.5 442.5,-464.5 649.5,-464.5 649.5,-443.5 442.5,-443.5"/>
<polygon fill="none" stroke="#8ccbf2" points="442.5,-443.5 442.5,-464.5 649.5,-464.5 649.5,-443.5 442.5,-443.5"/>
<text text-anchor="start" x="445.5" y="-451.3" font-family="mono" font-size="14.00" fill="#c83500">instance</text>
<text text-anchor="start" x="512.5" y="-451.3" font-family="Times,serif" font-size="14.00" fill="#000000"> : </text>
<text text-anchor="start" x="524.5" y="-451.3" font-family="mono" font-size="14.00" fill="#c83500">string</text>
<text text-anchor="start" x="574.5" y="-451.3" font-family="Times,serif" font-size="14.00" fill="#000000"> </text>
<text text-anchor="start" x="578.5" y="-451.3" font-family="Times,serif" font-style="italic" font-size="14.00" fill="#000000">(mandatory)</text>
</g>
<!-- Thing&#45;&gt;VersionInfo -->
<g id="edge2" class="edge">
<title>Thing&#45;&gt;VersionInfo</title>
<path fill="none" stroke="#000000" d="M595.8417,-550.9999C584.5884,-531.6637 573.897,-513.2932 565.2851,-498.4958"/>
<polygon fill="#000000" stroke="#000000" points="568.2603,-496.6497 560.2052,-489.7673 562.2103,-500.1707 568.2603,-496.6497"/>
<text text-anchor="start" x="583.5" y="-521.8" font-family="mono" font-size="14.00" fill="#c83500">version</text>
<text text-anchor="middle" x="549.2052" y="-493.5673" font-family="Times,serif" font-size="14.00" fill="#000000">0..1</text>
</g>
<!-- ActionAffordance -->
<g id="node7" class="node">
<title>ActionAffordance</title>
<polygon fill="#8ccbf2" stroke="transparent" points="683.5,-474.5 683.5,-495.5 914.5,-495.5 914.5,-474.5 683.5,-474.5"/>
<polygon fill="none" stroke="#8ccbf2" points="683.5,-474.5 683.5,-495.5 914.5,-495.5 914.5,-474.5 683.5,-474.5"/>
<text text-anchor="start" x="732.5" y="-482.3" font-family="mono" font-weight="bold" font-size="14.00" fill="#c83500">ActionAffordance</text>
<polygon fill="#ddeeff" stroke="transparent" points="683.5,-453.5 683.5,-474.5 914.5,-474.5 914.5,-453.5 683.5,-453.5"/>
<polygon fill="none" stroke="#8ccbf2" points="683.5,-453.5 683.5,-474.5 914.5,-474.5 914.5,-453.5 683.5,-453.5"/>
<text text-anchor="start" x="686.5" y="-461.3" font-family="mono" font-size="14.00" fill="#c83500">safe</text>
<text text-anchor="start" x="720.5" y="-461.3" font-family="Times,serif" font-size="14.00" fill="#000000"> : </text>
<text text-anchor="start" x="732.5" y="-461.3" font-family="mono" font-size="14.00" fill="#c83500">boolean</text>
<text text-anchor="start" x="790.5" y="-461.3" font-family="Times,serif" font-size="14.00" fill="#000000"> </text>
<text text-anchor="start" x="794.5" y="-461.3" font-family="Times,serif" font-style="italic" font-size="14.00" fill="#000000">(mandatory)</text>
<polygon fill="#ddeeff" stroke="transparent" points="683.5,-432.5 683.5,-453.5 914.5,-453.5 914.5,-432.5 683.5,-432.5"/>
<polygon fill="none" stroke="#8ccbf2" points="683.5,-432.5 683.5,-453.5 914.5,-453.5 914.5,-432.5 683.5,-432.5"/>
<text text-anchor="start" x="686.5" y="-440.3" font-family="mono" font-size="14.00" fill="#c83500">idempotent</text>
<text text-anchor="start" x="769.5" y="-440.3" font-family="Times,serif" font-size="14.00" fill="#000000"> : </text>
<text text-anchor="start" x="781.5" y="-440.3" font-family="mono" font-size="14.00" fill="#c83500">boolean</text>
<text text-anchor="start" x="839.5" y="-440.3" font-family="Times,serif" font-size="14.00" fill="#000000"> </text>
<text text-anchor="start" x="843.5" y="-440.3" font-family="Times,serif" font-style="italic" font-size="14.00" fill="#000000">(mandatory)</text>
</g>
<!-- Thing&#45;&gt;ActionAffordance -->
<g id="edge3" class="edge">
<title>Thing&#45;&gt;ActionAffordance</title>
<path fill="none" stroke="#000000" d="M747.7587,-550.9999C756.5761,-535.9688 765.0511,-521.5212 772.4653,-508.8819"/>
<polygon fill="#000000" stroke="#000000" points="775.6254,-510.4121 777.6663,-500.0157 769.5876,-506.8703 775.6254,-510.4121"/>
<text text-anchor="start" x="764.5" y="-521.8" font-family="mono" font-size="14.00" fill="#c83500">actions</text>
<text text-anchor="middle" x="766.6663" y="-503.8157" font-family="Times,serif" font-size="14.00" fill="#000000">0..1</text>
</g>
<!-- EventAffordance -->
<g id="node9" class="node">
<title>EventAffordance</title>
<polygon fill="#8ccbf2" stroke="transparent" points="948.5,-453.5 948.5,-474.5 1078.5,-474.5 1078.5,-453.5 948.5,-453.5"/>
<polygon fill="none" stroke="#8ccbf2" points="948.5,-453.5 948.5,-474.5 1078.5,-474.5 1078.5,-453.5 948.5,-453.5"/>
<text text-anchor="start" x="951.5" y="-461.3" font-family="mono" font-weight="bold" font-size="14.00" fill="#c83500">EventAffordance</text>
</g>
<!-- Thing&#45;&gt;EventAffordance -->
<g id="edge7" class="edge">
<title>Thing&#45;&gt;EventAffordance</title>
<path fill="none" stroke="#000000" d="M806.1765,-595.7442C867.6497,-556.8292 935.6888,-513.7577 976.4965,-487.9247"/>
<polygon fill="#000000" stroke="#000000" points="978.4489,-490.8312 985.0261,-482.5251 974.7047,-484.9167 978.4489,-490.8312"/>
<text text-anchor="start" x="922.5" y="-521.8" font-family="mono" font-size="14.00" fill="#c83500">events</text>
<text text-anchor="middle" x="974.0261" y="-486.3251" font-family="Times,serif" font-size="14.00" fill="#000000">0..1</text>
</g>
<!-- Link -->
<g id="node10" class="node">
<title>Link</title>
<polygon fill="#f2f2f2" stroke="transparent" points="1112.5,-453.5 1112.5,-474.5 1152.5,-474.5 1152.5,-453.5 1112.5,-453.5"/>
<polygon fill="none" stroke="#8c8c8c" points="1112.5,-453.5 1112.5,-474.5 1152.5,-474.5 1152.5,-453.5 1112.5,-453.5"/>
<text text-anchor="start" x="1115.5" y="-461.3" font-family="mono" font-weight="bold" font-size="14.00" fill="#000000">Link</text>
</g>
<!-- Thing&#45;&gt;Link -->
<g id="edge6" class="edge">
<title>Thing&#45;&gt;Link</title>
<path fill="none" stroke="#000000" d="M806.1971,-637.6766C892.7993,-606.4853 1005.5293,-559.4733 1095.5,-500 1100.1414,-496.9319 1104.7219,-493.2459 1108.9945,-489.4266"/>
<polygon fill="#000000" stroke="#000000" points="1111.4426,-491.9287 1116.2995,-482.5126 1106.6308,-486.8447 1111.4426,-491.9287"/>
<text text-anchor="start" x="1064.5" y="-521.8" font-family="mono" font-size="14.00" fill="#c83500">links</text>
<text text-anchor="middle" x="1105.2995" y="-486.3126" font-family="Times,serif" font-size="14.00" fill="#000000">0..*</text>
</g>
<!-- SecurityScheme -->
<g id="node11" class="node">
<title>SecurityScheme</title>
<polygon fill="#f2f2f2" stroke="transparent" points="1186.5,-453.5 1186.5,-474.5 1308.5,-474.5 1308.5,-453.5 1186.5,-453.5"/>
<polygon fill="none" stroke="#8c8c8c" points="1186.5,-453.5 1186.5,-474.5 1308.5,-474.5 1308.5,-453.5 1186.5,-453.5"/>
<text text-anchor="start" x="1189.5" y="-461.3" font-family="mono" font-weight="bold" font-size="14.00" fill="#000000">SecurityScheme</text>
</g>
<!-- Thing&#45;&gt;SecurityScheme -->
<g id="edge9" class="edge">
<title>Thing&#45;&gt;SecurityScheme</title>
<path fill="none" stroke="#000000" d="M806.3155,-640.875C894.0876,-613.4549 1010.4415,-574.6458 1110.5,-533 1143.1124,-519.4263 1178.7677,-501.4953 1205.527,-487.3839"/>
<polygon fill="#000000" stroke="#000000" points="1207.411,-490.3464 1214.6015,-482.5652 1204.128,-484.1639 1207.411,-490.3464"/>
<text text-anchor="start" x="1141.5" y="-521.8" font-family="mono" font-size="14.00" fill="#c83500">securityDefinitions</text>
<text text-anchor="middle" x="1203.6015" y="-486.3652" font-family="Times,serif" font-size="14.00" fill="#000000">1..1</text>
</g>
<!-- InteractionAffordance -->
<g id="node8" class="node">
<title>InteractionAffordance</title>
<polygon fill="#8ccbf2" stroke="transparent" points="364.5,-352.5 364.5,-373.5 544.5,-373.5 544.5,-352.5 364.5,-352.5"/>
<polygon fill="none" stroke="#8ccbf2" points="364.5,-352.5 364.5,-373.5 544.5,-373.5 544.5,-352.5 364.5,-352.5"/>
<text text-anchor="start" x="367.5" y="-360.3" font-family="mono" font-weight="bold" font-size="14.00" fill="#c83500">InteractionAffordance</text>
<polygon fill="#ddeeff" stroke="transparent" points="364.5,-331.5 364.5,-352.5 544.5,-352.5 544.5,-331.5 364.5,-331.5"/>
<polygon fill="none" stroke="#8ccbf2" points="364.5,-331.5 364.5,-352.5 544.5,-352.5 544.5,-331.5 364.5,-331.5"/>
<text text-anchor="start" x="367.5" y="-339.3" font-family="mono" font-size="14.00" fill="#c83500">description</text>
<text text-anchor="start" x="458.5" y="-339.3" font-family="Times,serif" font-size="14.00" fill="#000000"> : </text>
<text text-anchor="start" x="470.5" y="-339.3" font-family="mono" font-size="14.00" fill="#c83500">string</text>
<polygon fill="#ddeeff" stroke="transparent" points="364.5,-310.5 364.5,-331.5 544.5,-331.5 544.5,-310.5 364.5,-310.5"/>
<polygon fill="none" stroke="#8ccbf2" points="364.5,-310.5 364.5,-331.5 544.5,-331.5 544.5,-310.5 364.5,-310.5"/>
<text text-anchor="start" x="367.5" y="-318.3" font-family="mono" font-size="14.00" fill="#c83500">title</text>
<text text-anchor="start" x="409.5" y="-318.3" font-family="Times,serif" font-size="14.00" fill="#000000"> : </text>
<text text-anchor="start" x="421.5" y="-318.3" font-family="mono" font-size="14.00" fill="#c83500">string</text>
</g>
<!-- PropertyAffordance&#45;&gt;InteractionAffordance -->
<g id="edge21" class="edge">
<title>PropertyAffordance&#45;&gt;InteractionAffordance</title>
<path fill="none" stroke="#000000" d="M354.6073,-439.2215C370.6434,-423.6945 391.6034,-403.3999 410.1807,-385.4123"/>
<polygon fill="#ffffff" stroke="#000000" points="412.6862,-387.8582 417.4357,-378.3876 407.8169,-382.8293 412.6862,-387.8582"/>
</g>
<!-- DataSchema -->
<g id="node12" class="node">
<title>DataSchema</title>
<polygon fill="#f2f2f2" stroke="transparent" points="754.5,-167.5 754.5,-188.5 843.5,-188.5 843.5,-167.5 754.5,-167.5"/>
<polygon fill="none" stroke="#8c8c8c" points="754.5,-167.5 754.5,-188.5 843.5,-188.5 843.5,-167.5 754.5,-167.5"/>
<text text-anchor="start" x="757.5" y="-175.3" font-family="mono" font-weight="bold" font-size="14.00" fill="#000000">DataSchema</text>
</g>
<!-- PropertyAffordance&#45;&gt;DataSchema -->
<g id="edge22" class="edge">
<title>PropertyAffordance&#45;&gt;DataSchema</title>
<path fill="none" stroke="#000000" d="M396.1523,-439.4621C464.6077,-414.1156 560.5417,-378.5584 561.5,-378 647.9,-327.6565 733.8123,-245.2071 774.3707,-203.8429"/>
<polygon fill="#ffffff" stroke="#000000" points="776.9395,-206.2218 781.4059,-196.6145 771.9231,-201.3396 776.9395,-206.2218"/>
</g>
<!-- ActionAffordance&#45;&gt;InteractionAffordance -->
<g id="edge19" class="edge">
<title>ActionAffordance&#45;&gt;InteractionAffordance</title>
<path fill="none" stroke="#000000" d="M698.0762,-428.8846C655.3974,-413.7485 605.5626,-396.0745 562.1279,-380.6704"/>
<polygon fill="#ffffff" stroke="#000000" points="563.2703,-377.362 552.6755,-377.3181 560.9305,-383.9594 563.2703,-377.362"/>
</g>
<!-- ActionAffordance&#45;&gt;DataSchema -->
<g id="edge10" class="edge">
<title>ActionAffordance&#45;&gt;DataSchema</title>
<path fill="none" stroke="#000000" d="M764.0397,-428.7427C752.287,-414.1865 740.5837,-396.4511 734.5,-378 714.1485,-316.2771 753.3826,-243.5296 778.9404,-205.2143"/>
<polygon fill="#000000" stroke="#000000" points="782.0188,-206.9137 784.7858,-196.6865 776.245,-202.956 782.0188,-206.9137"/>
<text text-anchor="start" x="734.5" y="-338.8" font-family="mono" font-size="14.00" fill="#c83500">input</text>
<text text-anchor="middle" x="773.7858" y="-200.4865" font-family="Times,serif" font-size="14.00" fill="#000000">0..1</text>
</g>
<!-- ActionAffordance&#45;&gt;DataSchema -->
<g id="edge11" class="edge">
<title>ActionAffordance&#45;&gt;DataSchema</title>
<path fill="none" stroke="#000000" d="M798.5,-428.8562C798.5,-371.3995 798.5,-259.4516 798.5,-206.9569"/>
<polygon fill="#000000" stroke="#000000" points="802.0001,-206.6985 798.5,-196.6986 795.0001,-206.6986 802.0001,-206.6985"/>
<text text-anchor="start" x="798.5" y="-338.8" font-family="mono" font-size="14.00" fill="#c83500">output</text>
<text text-anchor="middle" x="809.5" y="-200.4986" font-family="Times,serif" font-size="14.00" fill="#000000">0..1</text>
</g>
<!-- InteractionAffordance&#45;&gt;MultiLanguage -->
<g id="edge13" class="edge">
<title>InteractionAffordance&#45;&gt;MultiLanguage</title>
<path fill="none" stroke="#000000" d="M446.7376,-306.8598C443.3857,-295.8094 438.7574,-283.9349 432.5,-274 414.8237,-245.9352 387.0152,-220.4783 365.0491,-202.9185"/>
<polygon fill="#000000" stroke="#000000" points="366.9836,-199.9882 356.9498,-196.5862 362.6721,-205.5028 366.9836,-199.9882"/>
<text text-anchor="start" x="440.5" y="-277.8" font-family="mono" font-size="14.00" fill="#c83500">titles</text>
<text text-anchor="middle" x="345.9498" y="-200.3862" font-family="Times,serif" font-size="14.00" fill="#000000">0..1</text>
</g>
<!-- InteractionAffordance&#45;&gt;MultiLanguage -->
<g id="edge15" class="edge">
<title>InteractionAffordance&#45;&gt;MultiLanguage</title>
<path fill="none" stroke="#000000" d="M356.4861,-315.3167C345.4633,-308.4278 335.6481,-299.8009 328.5,-289 312.4466,-264.7431 316.4543,-230.4742 322.3955,-206.5522"/>
<polygon fill="#000000" stroke="#000000" points="325.834,-207.2473 325.1013,-196.6778 319.0829,-205.3972 325.834,-207.2473"/>
<text text-anchor="start" x="328.5" y="-277.8" font-family="mono" font-size="14.00" fill="#c83500">descriptions</text>
<text text-anchor="middle" x="336.1013" y="-200.4778" font-family="Times,serif" font-size="14.00" fill="#000000">0..1</text>
</g>
<!-- InteractionAffordance&#45;&gt;Form -->
<g id="edge14" class="edge">
<title>InteractionAffordance&#45;&gt;Form</title>
<path fill="none" stroke="#000000" d="M356.1846,-319.3132C329.6342,-311.3581 301.3819,-301.2883 276.5,-289 260.6357,-281.1652 244.6565,-271.719 229.3167,-261.6899"/>
<polygon fill="#000000" stroke="#000000" points="231.1292,-258.6919 220.8652,-256.0647 227.2506,-264.5191 231.1292,-258.6919"/>
<text text-anchor="start" x="276.5" y="-277.8" font-family="mono" font-size="14.00" fill="#c83500">forms</text>
<text text-anchor="middle" x="209.8652" y="-259.8647" font-family="Times,serif" font-size="14.00" fill="#000000">1..*</text>
</g>
<!-- InteractionAffordance&#45;&gt;DataSchema -->
<g id="edge12" class="edge">
<title>InteractionAffordance&#45;&gt;DataSchema</title>
<path fill="none" stroke="#000000" d="M490.6125,-306.739C503.6654,-295.1744 519.0177,-283.0216 534.5,-274 599.0561,-236.3829 680.9623,-209.573 736.2915,-194.1158"/>
<polygon fill="#000000" stroke="#000000" points="737.248,-197.4828 745.9606,-191.4545 735.3903,-190.7338 737.248,-197.4828"/>
<text text-anchor="start" x="534.5" y="-277.8" font-family="mono" font-size="14.00" fill="#c83500">uriVariables</text>
<text text-anchor="middle" x="734.9606" y="-195.2545" font-family="Times,serif" font-size="14.00" fill="#000000">0..1</text>
</g>
<!-- EventAffordance&#45;&gt;InteractionAffordance -->
<g id="edge20" class="edge">
<title>EventAffordance&#45;&gt;InteractionAffordance</title>
<path fill="none" stroke="#000000" d="M976.1497,-446.4114C962.0955,-440.1716 945.8094,-433.6013 930.5,-429 863.3314,-408.8124 681.2198,-378.1509 562.7228,-359.273"/>
<polygon fill="#ffffff" stroke="#000000" points="562.9537,-355.7658 552.5283,-357.6529 561.855,-362.6791 562.9537,-355.7658"/>
</g>
<!-- EventAffordance&#45;&gt;DataSchema -->
<g id="edge16" class="edge">
<title>EventAffordance&#45;&gt;DataSchema</title>
<path fill="none" stroke="#000000" d="M1027.661,-446.187C1049.6161,-415.3901 1086.5624,-352.1719 1058.5,-307 1015.65,-238.0245 923.6046,-204.9572 861.3524,-189.9297"/>
<polygon fill="#000000" stroke="#000000" points="861.7786,-186.4357 851.2462,-187.5846 860.1962,-193.2545 861.7786,-186.4357"/>
<text text-anchor="start" x="1069.5" y="-338.8" font-family="mono" font-size="14.00" fill="#c83500">cancellation</text>
<text text-anchor="middle" x="862.2462" y="-191.3846" font-family="Times,serif" font-size="14.00" fill="#000000">0..1</text>
</g>
<!-- EventAffordance&#45;&gt;DataSchema -->
<g id="edge17" class="edge">
<title>EventAffordance&#45;&gt;DataSchema</title>
<path fill="none" stroke="#000000" d="M981.5975,-446.4384C956.4326,-430.9104 921.8062,-406.543 898.5,-378 875.2803,-349.5628 831.6342,-253.8924 810.5312,-206.121"/>
<polygon fill="#000000" stroke="#000000" points="813.6156,-204.4402 806.3857,-196.6955 807.208,-207.2584 813.6156,-204.4402"/>
<text text-anchor="start" x="898.5" y="-338.8" font-family="mono" font-size="14.00" fill="#c83500">data</text>
<text text-anchor="middle" x="795.3857" y="-200.4955" font-family="Times,serif" font-size="14.00" fill="#000000">0..1</text>
</g>
<!-- EventAffordance&#45;&gt;DataSchema -->
<g id="edge18" class="edge">
<title>EventAffordance&#45;&gt;DataSchema</title>
<path fill="none" stroke="#000000" d="M998.6583,-446.2543C985.5446,-429.3939 966.6649,-403.2129 954.5,-378 940.1444,-348.2465 949.8633,-335.1047 932.5,-307 906.2528,-264.5158 862.6944,-226.3885 832.3924,-202.9055"/>
<polygon fill="#000000" stroke="#000000" points="834.2976,-199.9569 824.2226,-196.6789 830.0545,-205.5243 834.2976,-199.9569"/>
<text text-anchor="start" x="954.5" y="-338.8" font-family="mono" font-size="14.00" fill="#c83500">subscription</text>
<text text-anchor="middle" x="835.2226" y="-200.4789" font-family="Times,serif" font-size="14.00" fill="#000000">0..1</text>
</g>
</g>
</svg>
