<?xml version="1.0" encoding="UTF-8" standalone="no"?>
<!DOCTYPE svg PUBLIC "-//W3C//DTD SVG 1.1//EN"
 "http://www.w3.org/Graphics/SVG/1.1/DTD/svg11.dtd">
<!-- Generated by graphviz version 2.38.0 (20140413.2041)
 -->
<!-- Title: %3 Pages: 1 -->
<svg width="1426pt" height="903pt"
 viewBox="0.00 0.00 1425.50 903.00" xmlns="http://www.w3.org/2000/svg" xmlns:xlink="http://www.w3.org/1999/xlink">
<g id="graph0" class="graph" transform="scale(1 1) rotate(0) translate(4 899)">
<title>%3</title>
<polygon fill="white" stroke="none" points="-4,4 -4,-899 1421.5,-899 1421.5,4 -4,4"/>
<!-- MultiLanguage -->
<g id="node1" class="node"><title>MultiLanguage</title>
<polygon fill="#8ccbf2" stroke="none" points="273.5,-167.5 273.5,-188.5 387.5,-188.5 387.5,-167.5 273.5,-167.5"/>
<polygon fill="none" stroke="#8ccbf2" points="273.5,-167.5 273.5,-188.5 387.5,-188.5 387.5,-167.5 273.5,-167.5"/>
<text text-anchor="start" x="276.5" y="-175.3" font-family="mono" font-weight="bold" font-size="14.00" fill="#c83500">MultiLanguage</text>
</g>
<!-- InteractionPattern -->
<g id="node2" class="node"><title>InteractionPattern</title>
<polygon fill="#8ccbf2" stroke="none" points="269.5,-416 269.5,-437 450.5,-437 450.5,-416 269.5,-416"/>
<polygon fill="none" stroke="#8ccbf2" points="269.5,-416 269.5,-437 450.5,-437 450.5,-416 269.5,-416"/>
<text text-anchor="start" x="285.5" y="-423.8" font-family="mono" font-weight="bold" font-size="14.00" fill="#c83500">InteractionPattern</text>
<polygon fill="#ddeeff" stroke="none" points="269.5,-395 269.5,-416 450.5,-416 450.5,-395 269.5,-395"/>
<polygon fill="none" stroke="#8ccbf2" points="269.5,-395 269.5,-416 450.5,-416 450.5,-395 269.5,-395"/>
<text text-anchor="start" x="272.5" y="-402.8" font-family="mono" font-size="14.00" fill="#c83500">@type</text>
<text text-anchor="start" x="314.5" y="-402.8" font-family="Times,serif" font-size="14.00"> : </text>
<text text-anchor="start" x="326.5" y="-402.8" font-family="Times,serif" font-style="italic" font-size="14.00">array of </text>
<text text-anchor="start" x="375.5" y="-402.8" font-family="mono" font-size="14.00" fill="#c83500">string</text>
<polygon fill="#ddeeff" stroke="none" points="269.5,-374 269.5,-395 450.5,-395 450.5,-374 269.5,-374"/>
<polygon fill="none" stroke="#8ccbf2" points="269.5,-374 269.5,-395 450.5,-395 450.5,-374 269.5,-374"/>
<text text-anchor="start" x="272.5" y="-381.8" font-family="mono" font-size="14.00" fill="#c83500">description</text>
<text text-anchor="start" x="363.5" y="-381.8" font-family="Times,serif" font-size="14.00"> : </text>
<text text-anchor="start" x="375.5" y="-381.8" font-family="mono" font-size="14.00" fill="#c83500">string</text>
<polygon fill="#ddeeff" stroke="none" points="269.5,-353 269.5,-374 450.5,-374 450.5,-353 269.5,-353"/>
<polygon fill="none" stroke="#8ccbf2" points="269.5,-353 269.5,-374 450.5,-374 450.5,-353 269.5,-353"/>
<text text-anchor="start" x="272.5" y="-360.8" font-family="mono" font-size="14.00" fill="#c83500">title</text>
<text text-anchor="start" x="314.5" y="-360.8" font-family="Times,serif" font-size="14.00"> : </text>
<text text-anchor="start" x="326.5" y="-360.8" font-family="mono" font-size="14.00" fill="#c83500">string</text>
<polygon fill="#ddeeff" stroke="none" points="269.5,-332 269.5,-353 450.5,-353 450.5,-332 269.5,-332"/>
<polygon fill="none" stroke="#8ccbf2" points="269.5,-332 269.5,-353 450.5,-353 450.5,-332 269.5,-332"/>
<text text-anchor="start" x="272.5" y="-339.8" font-family="mono" font-size="14.00" fill="#c83500">security</text>
<text text-anchor="start" x="339.5" y="-339.8" font-family="Times,serif" font-size="14.00"> : array of </text>
<text text-anchor="start" x="397.5" y="-339.8" font-family="mono" font-size="14.00" fill="#c83500">string</text>
<polygon fill="#ddeeff" stroke="none" points="269.5,-311 269.5,-332 450.5,-332 450.5,-311 269.5,-311"/>
<polygon fill="none" stroke="#8ccbf2" points="269.5,-311 269.5,-332 450.5,-332 450.5,-311 269.5,-311"/>
<text text-anchor="start" x="272.5" y="-318.8" font-family="mono" font-size="14.00" fill="#c83500">scopes</text>
<text text-anchor="start" x="322.5" y="-318.8" font-family="Times,serif" font-size="14.00"> : array of </text>
<text text-anchor="start" x="380.5" y="-318.8" font-family="mono" font-size="14.00" fill="#c83500">string</text>
</g>
<!-- InteractionPattern&#45;&gt;MultiLanguage -->
<g id="edge1" class="edge"><title>InteractionPattern&#45;&gt;MultiLanguage</title>
<path fill="none" stroke="black" d="M296.084,-306.869C292.7,-301.105 289.766,-295.125 287.5,-289 276.803,-260.083 293.675,-227.193 309.32,-205.072"/>
<polygon fill="black" stroke="black" points="312.263,-206.98 315.419,-196.866 306.645,-202.804 312.263,-206.98"/>
<text text-anchor="start" x="287.5" y="-277.8" font-family="mono" font-size="14.00" fill="#c83500">titles</text>
<text text-anchor="middle" x="304.419" y="-200.666" font-family="Times,serif" font-size="14.00">0..1</text>
</g>
<!-- InteractionPattern&#45;&gt;MultiLanguage -->
<g id="edge4" class="edge"><title>InteractionPattern&#45;&gt;MultiLanguage</title>
<path fill="none" stroke="black" d="M349.601,-306.949C344.461,-272.654 338.461,-232.617 334.577,-206.701"/>
<polygon fill="black" stroke="black" points="337.994,-205.888 333.05,-196.517 331.071,-206.925 337.994,-205.888"/>
<text text-anchor="start" x="347.5" y="-277.8" font-family="mono" font-size="14.00" fill="#c83500">descriptions</text>
<text text-anchor="middle" x="344.05" y="-200.317" font-family="Times,serif" font-size="14.00">0..1</text>
</g>
<!-- Form -->
<g id="node4" class="node"><title>Form</title>
<polygon fill="#8ccbf2" stroke="none" points="8.5,-230.5 8.5,-251.5 239.5,-251.5 239.5,-230.5 8.5,-230.5"/>
<polygon fill="none" stroke="#8ccbf2" points="8.5,-230.5 8.5,-251.5 239.5,-251.5 239.5,-230.5 8.5,-230.5"/>
<text text-anchor="start" x="107" y="-238.3" font-family="mono" font-weight="bold" font-size="14.00" fill="#c83500">Form</text>
<polygon fill="#ddeeff" stroke="none" points="8.5,-209.5 8.5,-230.5 239.5,-230.5 239.5,-209.5 8.5,-209.5"/>
<polygon fill="none" stroke="#8ccbf2" points="8.5,-209.5 8.5,-230.5 239.5,-230.5 239.5,-209.5 8.5,-209.5"/>
<text text-anchor="start" x="11.5" y="-217.3" font-family="mono" font-size="14.00" fill="#c83500">scopes</text>
<text text-anchor="start" x="61.5" y="-217.3" font-family="Times,serif" font-size="14.00"> : array of </text>
<text text-anchor="start" x="119.5" y="-217.3" font-family="mono" font-size="14.00" fill="#c83500">string</text>
<polygon fill="#ddeeff" stroke="none" points="8.5,-188.5 8.5,-209.5 239.5,-209.5 239.5,-188.5 8.5,-188.5"/>
<polygon fill="none" stroke="#8ccbf2" points="8.5,-188.5 8.5,-209.5 239.5,-209.5 239.5,-188.5 8.5,-188.5"/>
<text text-anchor="start" x="11.5" y="-196.3" font-family="mono" font-size="14.00" fill="#c83500">href</text>
<text text-anchor="start" x="45.5" y="-196.3" font-family="Times,serif" font-size="14.00"> : </text>
<text text-anchor="start" x="57.5" y="-196.3" font-family="mono" font-size="14.00" fill="#c83500">anyURI</text>
<text text-anchor="start" x="107.5" y="-196.3" font-family="Times,serif" font-size="14.00"> </text>
<text text-anchor="start" x="111.5" y="-196.3" font-family="Times,serif" font-style="italic" font-size="14.00">(mandatory)</text>
<polygon fill="#ddeeff" stroke="none" points="8.5,-167.5 8.5,-188.5 239.5,-188.5 239.5,-167.5 8.5,-167.5"/>
<polygon fill="none" stroke="#8ccbf2" points="8.5,-167.5 8.5,-188.5 239.5,-188.5 239.5,-167.5 8.5,-167.5"/>
<text text-anchor="start" x="11.5" y="-175.3" font-family="mono" font-size="14.00" fill="#c83500">subprotocol</text>
<text text-anchor="start" x="102.5" y="-175.3" font-family="Times,serif" font-size="14.00"> : </text>
<text text-anchor="start" x="114.5" y="-175.3" font-family="mono" font-size="14.00" fill="#c83500">string</text>
<polygon fill="#ddeeff" stroke="none" points="8.5,-146.5 8.5,-167.5 239.5,-167.5 239.5,-146.5 8.5,-146.5"/>
<polygon fill="none" stroke="#8ccbf2" points="8.5,-146.5 8.5,-167.5 239.5,-167.5 239.5,-146.5 8.5,-146.5"/>
<text text-anchor="start" x="11.5" y="-154.3" font-family="mono" font-size="14.00" fill="#c83500">security</text>
<text text-anchor="start" x="78.5" y="-154.3" font-family="Times,serif" font-size="14.00"> : array of </text>
<text text-anchor="start" x="136.5" y="-154.3" font-family="mono" font-size="14.00" fill="#c83500">string</text>
<polygon fill="#ddeeff" stroke="none" points="8.5,-125.5 8.5,-146.5 239.5,-146.5 239.5,-125.5 8.5,-125.5"/>
<polygon fill="none" stroke="#8ccbf2" points="8.5,-125.5 8.5,-146.5 239.5,-146.5 239.5,-125.5 8.5,-125.5"/>
<text text-anchor="start" x="11.5" y="-133.3" font-family="mono" font-size="14.00" fill="#c83500">contentType</text>
<text text-anchor="start" x="102.5" y="-133.3" font-family="Times,serif" font-size="14.00"> : </text>
<text text-anchor="start" x="114.5" y="-133.3" font-family="mono" font-size="14.00" fill="#c83500">string</text>
<text text-anchor="start" x="164.5" y="-133.3" font-family="Times,serif" font-size="14.00"> </text>
<text text-anchor="start" x="168.5" y="-133.3" font-family="Times,serif" font-style="italic" font-size="14.00">(mandatory)</text>
<polygon fill="#ddeeff" stroke="none" points="8.5,-104.5 8.5,-125.5 239.5,-125.5 239.5,-104.5 8.5,-104.5"/>
<polygon fill="none" stroke="#8ccbf2" points="8.5,-104.5 8.5,-125.5 239.5,-125.5 239.5,-104.5 8.5,-104.5"/>
<text text-anchor="start" x="11.5" y="-112.3" font-family="mono" font-size="14.00" fill="#c83500">op</text>
<text text-anchor="start" x="28.5" y="-112.3" font-family="Times,serif" font-size="14.00"> : </text>
<text text-anchor="start" x="40.5" y="-112.3" font-family="mono" font-size="14.00" fill="#c83500">string</text>
</g>
<!-- InteractionPattern&#45;&gt;Form -->
<g id="edge3" class="edge"><title>InteractionPattern&#45;&gt;Form</title>
<path fill="none" stroke="black" d="M261.454,-306.881C253.576,-300.983 245.834,-294.978 238.5,-289 228.538,-280.88 218.391,-272.087 208.457,-263.134"/>
<polygon fill="black" stroke="black" points="210.66,-260.407 200.908,-256.266 205.949,-265.584 210.66,-260.407"/>
<text text-anchor="start" x="238.5" y="-277.8" font-family="mono" font-size="14.00" fill="#c83500">forms</text>
<text text-anchor="middle" x="189.908" y="-260.066" font-family="Times,serif" font-size="14.00">1..*</text>
</g>
<!-- DataSchema -->
<g id="node11" class="node"><title>DataSchema</title>
<polygon fill="#f2f2f2" stroke="none" points="678.5,-167.5 678.5,-188.5 767.5,-188.5 767.5,-167.5 678.5,-167.5"/>
<polygon fill="none" stroke="#8c8c8c" points="678.5,-167.5 678.5,-188.5 767.5,-188.5 767.5,-167.5 678.5,-167.5"/>
<text text-anchor="start" x="681.5" y="-175.3" font-family="mono" font-weight="bold" font-size="14.00">DataSchema</text>
</g>
<!-- InteractionPattern&#45;&gt;DataSchema -->
<g id="edge2" class="edge"><title>InteractionPattern&#45;&gt;DataSchema</title>
<path fill="none" stroke="black" d="M435.005,-306.953C450.465,-295.114 467.054,-283.529 483.5,-274 540.143,-241.18 610.363,-214.94 659.992,-198.517"/>
<polygon fill="black" stroke="black" points="661.216,-201.799 669.633,-195.365 659.041,-195.146 661.216,-201.799"/>
<text text-anchor="start" x="483.5" y="-277.8" font-family="mono" font-size="14.00" fill="#c83500">uriVariables</text>
<text text-anchor="middle" x="658.633" y="-199.165" font-family="Times,serif" font-size="14.00">0..1</text>
</g>
<!-- Link -->
<g id="node3" class="node"><title>Link</title>
<polygon fill="#8ccbf2" stroke="none" points="837.5,-579.5 837.5,-600.5 1011.5,-600.5 1011.5,-579.5 837.5,-579.5"/>
<polygon fill="none" stroke="#8ccbf2" points="837.5,-579.5 837.5,-600.5 1011.5,-600.5 1011.5,-579.5 837.5,-579.5"/>
<text text-anchor="start" x="907.5" y="-587.3" font-family="mono" font-weight="bold" font-size="14.00" fill="#c83500">Link</text>
<polygon fill="#ddeeff" stroke="none" points="837.5,-558.5 837.5,-579.5 1011.5,-579.5 1011.5,-558.5 837.5,-558.5"/>
<polygon fill="none" stroke="#8ccbf2" points="837.5,-558.5 837.5,-579.5 1011.5,-579.5 1011.5,-558.5 837.5,-558.5"/>
<text text-anchor="start" x="840.5" y="-566.3" font-family="mono" font-size="14.00" fill="#c83500">rel</text>
<text text-anchor="start" x="865.5" y="-566.3" font-family="Times,serif" font-size="14.00"> : </text>
<text text-anchor="start" x="877.5" y="-566.3" font-family="mono" font-size="14.00" fill="#c83500">string</text>
<polygon fill="#ddeeff" stroke="none" points="837.5,-537.5 837.5,-558.5 1011.5,-558.5 1011.5,-537.5 837.5,-537.5"/>
<polygon fill="none" stroke="#8ccbf2" points="837.5,-537.5 837.5,-558.5 1011.5,-558.5 1011.5,-537.5 837.5,-537.5"/>
<text text-anchor="start" x="840.5" y="-545.3" font-family="mono" font-size="14.00" fill="#c83500">anchor</text>
<text text-anchor="start" x="890.5" y="-545.3" font-family="Times,serif" font-size="14.00"> : </text>
<text text-anchor="start" x="902.5" y="-545.3" font-family="mono" font-size="14.00" fill="#c83500">anyURI</text>
<polygon fill="#ddeeff" stroke="none" points="837.5,-516.5 837.5,-537.5 1011.5,-537.5 1011.5,-516.5 837.5,-516.5"/>
<polygon fill="none" stroke="#8ccbf2" points="837.5,-516.5 837.5,-537.5 1011.5,-537.5 1011.5,-516.5 837.5,-516.5"/>
<text text-anchor="start" x="840.5" y="-524.3" font-family="mono" font-size="14.00" fill="#c83500">type</text>
<text text-anchor="start" x="874.5" y="-524.3" font-family="Times,serif" font-size="14.00"> : </text>
<text text-anchor="start" x="886.5" y="-524.3" font-family="mono" font-size="14.00" fill="#c83500">string</text>
<polygon fill="#ddeeff" stroke="none" points="837.5,-495.5 837.5,-516.5 1011.5,-516.5 1011.5,-495.5 837.5,-495.5"/>
<polygon fill="none" stroke="#8ccbf2" points="837.5,-495.5 837.5,-516.5 1011.5,-516.5 1011.5,-495.5 837.5,-495.5"/>
<text text-anchor="start" x="840.5" y="-503.3" font-family="mono" font-size="14.00" fill="#c83500">href</text>
<text text-anchor="start" x="874.5" y="-503.3" font-family="Times,serif" font-size="14.00"> : </text>
<text text-anchor="start" x="886.5" y="-503.3" font-family="mono" font-size="14.00" fill="#c83500">anyURI</text>
<text text-anchor="start" x="936.5" y="-503.3" font-family="Times,serif" font-size="14.00"> </text>
<text text-anchor="start" x="940.5" y="-503.3" font-family="Times,serif" font-style="italic" font-size="14.00">(mandatory)</text>
</g>
<!-- ExpectedResponse -->
<g id="node7" class="node"><title>ExpectedResponse</title>
<polygon fill="#8ccbf2" stroke="none" points="44.5,-25 44.5,-46 203.5,-46 203.5,-25 44.5,-25"/>
<polygon fill="none" stroke="#8ccbf2" points="44.5,-25 44.5,-46 203.5,-46 203.5,-25 44.5,-25"/>
<text text-anchor="start" x="57.5" y="-32.8" font-family="mono" font-weight="bold" font-size="14.00" fill="#c83500">ExpectedResponse</text>
<polygon fill="#ddeeff" stroke="none" points="44.5,-4 44.5,-25 203.5,-25 203.5,-4 44.5,-4"/>
<polygon fill="none" stroke="#8ccbf2" points="44.5,-4 44.5,-25 203.5,-25 203.5,-4 44.5,-4"/>
<text text-anchor="start" x="47.5" y="-11.8" font-family="mono" font-size="14.00" fill="#c83500">contentType</text>
<text text-anchor="start" x="138.5" y="-11.8" font-family="Times,serif" font-size="14.00"> : </text>
<text text-anchor="start" x="150.5" y="-11.8" font-family="mono" font-size="14.00" fill="#c83500">string</text>
</g>
<!-- Form&#45;&gt;ExpectedResponse -->
<g id="edge5" class="edge"><title>Form&#45;&gt;ExpectedResponse</title>
<path fill="none" stroke="black" d="M123.5,-100.862C123.5,-86.5577 123.5,-72.2953 123.5,-60.116"/>
<polygon fill="black" stroke="black" points="127,-60.0004 123.5,-50.0004 120,-60.0004 127,-60.0004"/>
<text text-anchor="start" x="123.5" y="-71.8" font-family="mono" font-size="14.00" fill="#c83500">response</text>
<text text-anchor="middle" x="112.5" y="-53.8004" font-family="Times,serif" font-size="14.00">0..1</text>
</g>
<!-- Thing -->
<g id="node5" class="node"><title>Thing</title>
<polygon fill="#8ccbf2" stroke="none" points="559.5,-869.5 559.5,-890.5 823.5,-890.5 823.5,-869.5 559.5,-869.5"/>
<polygon fill="none" stroke="#8ccbf2" points="559.5,-869.5 559.5,-890.5 823.5,-890.5 823.5,-869.5 559.5,-869.5"/>
<text text-anchor="start" x="670.5" y="-877.3" font-family="mono" font-weight="bold" font-size="14.00" fill="#c83500">Thing</text>
<polygon fill="#ddeeff" stroke="none" points="559.5,-848.5 559.5,-869.5 823.5,-869.5 823.5,-848.5 559.5,-848.5"/>
<polygon fill="none" stroke="#8ccbf2" points="559.5,-848.5 559.5,-869.5 823.5,-869.5 823.5,-848.5 559.5,-848.5"/>
<text text-anchor="start" x="562.5" y="-856.3" font-family="mono" font-size="14.00" fill="#c83500">@context</text>
<text text-anchor="start" x="629.5" y="-856.3" font-family="Times,serif" font-size="14.00"> : </text>
<text text-anchor="start" x="641.5" y="-856.3" font-family="Times,serif" font-style="italic" font-size="14.00">array of </text>
<text text-anchor="start" x="690.5" y="-856.3" font-family="mono" font-size="14.00" fill="#c83500">context</text>
<text text-anchor="start" x="748.5" y="-856.3" font-family="Times,serif" font-size="14.00"> </text>
<text text-anchor="start" x="752.5" y="-856.3" font-family="Times,serif" font-style="italic" font-size="14.00">(mandatory)</text>
<polygon fill="#ddeeff" stroke="none" points="559.5,-827.5 559.5,-848.5 823.5,-848.5 823.5,-827.5 559.5,-827.5"/>
<polygon fill="none" stroke="#8ccbf2" points="559.5,-827.5 559.5,-848.5 823.5,-848.5 823.5,-827.5 559.5,-827.5"/>
<text text-anchor="start" x="562.5" y="-835.3" font-family="mono" font-size="14.00" fill="#c83500">@type</text>
<text text-anchor="start" x="604.5" y="-835.3" font-family="Times,serif" font-size="14.00"> : </text>
<text text-anchor="start" x="616.5" y="-835.3" font-family="Times,serif" font-style="italic" font-size="14.00">array of </text>
<text text-anchor="start" x="665.5" y="-835.3" font-family="mono" font-size="14.00" fill="#c83500">string</text>
<polygon fill="#ddeeff" stroke="none" points="559.5,-806.5 559.5,-827.5 823.5,-827.5 823.5,-806.5 559.5,-806.5"/>
<polygon fill="none" stroke="#8ccbf2" points="559.5,-806.5 559.5,-827.5 823.5,-827.5 823.5,-806.5 559.5,-806.5"/>
<text text-anchor="start" x="562.5" y="-814.3" font-family="mono" font-size="14.00" fill="#c83500">id</text>
<text text-anchor="start" x="579.5" y="-814.3" font-family="Times,serif" font-size="14.00"> : </text>
<text text-anchor="start" x="591.5" y="-814.3" font-family="mono" font-size="14.00" fill="#c83500">anyURI</text>
<text text-anchor="start" x="641.5" y="-814.3" font-family="Times,serif" font-size="14.00"> </text>
<text text-anchor="start" x="645.5" y="-814.3" font-family="Times,serif" font-style="italic" font-size="14.00">(mandatory)</text>
<polygon fill="#ddeeff" stroke="none" points="559.5,-785.5 559.5,-806.5 823.5,-806.5 823.5,-785.5 559.5,-785.5"/>
<polygon fill="none" stroke="#8ccbf2" points="559.5,-785.5 559.5,-806.5 823.5,-806.5 823.5,-785.5 559.5,-785.5"/>
<text text-anchor="start" x="562.5" y="-793.3" font-family="mono" font-size="14.00" fill="#c83500">security</text>
<text text-anchor="start" x="629.5" y="-793.3" font-family="Times,serif" font-size="14.00"> : array of </text>
<text text-anchor="start" x="687.5" y="-793.3" font-family="mono" font-size="14.00" fill="#c83500">string</text>
<text text-anchor="start" x="737.5" y="-793.3" font-family="Times,serif" font-size="14.00"> </text>
<text text-anchor="start" x="741.5" y="-793.3" font-family="Times,serif" font-style="italic" font-size="14.00">(mandatory)</text>
<polygon fill="#ddeeff" stroke="none" points="559.5,-764.5 559.5,-785.5 823.5,-785.5 823.5,-764.5 559.5,-764.5"/>
<polygon fill="none" stroke="#8ccbf2" points="559.5,-764.5 559.5,-785.5 823.5,-785.5 823.5,-764.5 559.5,-764.5"/>
<text text-anchor="start" x="562.5" y="-772.3" font-family="mono" font-size="14.00" fill="#c83500">name</text>
<text text-anchor="start" x="596.5" y="-772.3" font-family="Times,serif" font-size="14.00"> : </text>
<text text-anchor="start" x="608.5" y="-772.3" font-family="mono" font-size="14.00" fill="#c83500">string</text>
<text text-anchor="start" x="658.5" y="-772.3" font-family="Times,serif" font-size="14.00"> </text>
<text text-anchor="start" x="662.5" y="-772.3" font-family="Times,serif" font-style="italic" font-size="14.00">(mandatory)</text>
<polygon fill="#ddeeff" stroke="none" points="559.5,-743.5 559.5,-764.5 823.5,-764.5 823.5,-743.5 559.5,-743.5"/>
<polygon fill="none" stroke="#8ccbf2" points="559.5,-743.5 559.5,-764.5 823.5,-764.5 823.5,-743.5 559.5,-743.5"/>
<text text-anchor="start" x="562.5" y="-751.3" font-family="mono" font-size="14.00" fill="#c83500">created</text>
<text text-anchor="start" x="620.5" y="-751.3" font-family="Times,serif" font-size="14.00"> : </text>
<text text-anchor="start" x="632.5" y="-751.3" font-family="mono" font-size="14.00" fill="#c83500">string</text>
<polygon fill="#ddeeff" stroke="none" points="559.5,-722.5 559.5,-743.5 823.5,-743.5 823.5,-722.5 559.5,-722.5"/>
<polygon fill="none" stroke="#8ccbf2" points="559.5,-722.5 559.5,-743.5 823.5,-743.5 823.5,-722.5 559.5,-722.5"/>
<text text-anchor="start" x="562.5" y="-730.3" font-family="mono" font-size="14.00" fill="#c83500">lastModified</text>
<text text-anchor="start" x="662.5" y="-730.3" font-family="Times,serif" font-size="14.00"> : </text>
<text text-anchor="start" x="674.5" y="-730.3" font-family="mono" font-size="14.00" fill="#c83500">string</text>
<polygon fill="#ddeeff" stroke="none" points="559.5,-701.5 559.5,-722.5 823.5,-722.5 823.5,-701.5 559.5,-701.5"/>
<polygon fill="none" stroke="#8ccbf2" points="559.5,-701.5 559.5,-722.5 823.5,-722.5 823.5,-701.5 559.5,-701.5"/>
<text text-anchor="start" x="562.5" y="-709.3" font-family="mono" font-size="14.00" fill="#c83500">support</text>
<text text-anchor="start" x="620.5" y="-709.3" font-family="Times,serif" font-size="14.00"> : </text>
<text text-anchor="start" x="632.5" y="-709.3" font-family="mono" font-size="14.00" fill="#c83500">string</text>
<polygon fill="#ddeeff" stroke="none" points="559.5,-680.5 559.5,-701.5 823.5,-701.5 823.5,-680.5 559.5,-680.5"/>
<polygon fill="none" stroke="#8ccbf2" points="559.5,-680.5 559.5,-701.5 823.5,-701.5 823.5,-680.5 559.5,-680.5"/>
<text text-anchor="start" x="562.5" y="-688.3" font-family="mono" font-size="14.00" fill="#c83500">base</text>
<text text-anchor="start" x="596.5" y="-688.3" font-family="Times,serif" font-size="14.00"> : </text>
<text text-anchor="start" x="608.5" y="-688.3" font-family="mono" font-size="14.00" fill="#c83500">anyURI</text>
<polygon fill="#ddeeff" stroke="none" points="559.5,-659.5 559.5,-680.5 823.5,-680.5 823.5,-659.5 559.5,-659.5"/>
<polygon fill="none" stroke="#8ccbf2" points="559.5,-659.5 559.5,-680.5 823.5,-680.5 823.5,-659.5 559.5,-659.5"/>
<text text-anchor="start" x="562.5" y="-667.3" font-family="mono" font-size="14.00" fill="#c83500">description</text>
<text text-anchor="start" x="653.5" y="-667.3" font-family="Times,serif" font-size="14.00"> : </text>
<text text-anchor="start" x="665.5" y="-667.3" font-family="mono" font-size="14.00" fill="#c83500">string</text>
</g>
<!-- Thing&#45;&gt;MultiLanguage -->
<g id="edge11" class="edge"><title>Thing&#45;&gt;MultiLanguage</title>
<path fill="none" stroke="black" d="M551.301,-767.445C437.909,-753.463 284.83,-714.017 207.5,-605 178.514,-564.136 179.706,-332.671 218.5,-274 228.586,-258.746 240.66,-266.685 255.5,-256 275.937,-241.285 295.736,-220.736 309.855,-204.64"/>
<polygon fill="black" stroke="black" points="312.829,-206.549 316.693,-196.684 307.521,-201.986 312.829,-206.549"/>
<text text-anchor="start" x="187.5" y="-462.8" font-family="mono" font-size="14.00" fill="#c83500">descriptions</text>
<text text-anchor="middle" x="327.693" y="-200.484" font-family="Times,serif" font-size="14.00">0..1</text>
</g>
<!-- Thing&#45;&gt;Link -->
<g id="edge13" class="edge"><title>Thing&#45;&gt;Link</title>
<path fill="none" stroke="black" d="M814.482,-655.741C830.039,-640.717 845.442,-625.843 859.576,-612.195"/>
<polygon fill="black" stroke="black" points="862.083,-614.639 866.845,-605.175 857.221,-609.604 862.083,-614.639"/>
<text text-anchor="start" x="842.5" y="-626.8" font-family="mono" font-size="14.00" fill="#c83500">links</text>
<text text-anchor="middle" x="855.845" y="-608.975" font-family="Times,serif" font-size="14.00">0..*</text>
</g>
<!-- Thing&#45;&gt;Form -->
<g id="edge9" class="edge"><title>Thing&#45;&gt;Form</title>
<path fill="none" stroke="black" d="M551.226,-747.869C415.684,-718.792 225.069,-667.876 184.5,-605 118.399,-502.552 111.823,-357.568 115.718,-266.064"/>
<polygon fill="black" stroke="black" points="119.217,-266.16 116.198,-256.004 112.225,-265.826 119.217,-266.16"/>
<text text-anchor="start" x="132.5" y="-462.8" font-family="mono" font-size="14.00" fill="#c83500">forms</text>
<text text-anchor="middle" x="105.198" y="-259.804" font-family="Times,serif" font-size="14.00">0..*</text>
</g>
<!-- Property -->
<g id="node6" class="node"><title>Property</title>
<polygon fill="#8ccbf2" stroke="none" points="225.5,-548.5 225.5,-569.5 456.5,-569.5 456.5,-548.5 225.5,-548.5"/>
<polygon fill="none" stroke="#8ccbf2" points="225.5,-548.5 225.5,-569.5 456.5,-569.5 456.5,-548.5 225.5,-548.5"/>
<text text-anchor="start" x="307.5" y="-556.3" font-family="mono" font-weight="bold" font-size="14.00" fill="#c83500">Property</text>
<polygon fill="#ddeeff" stroke="none" points="225.5,-527.5 225.5,-548.5 456.5,-548.5 456.5,-527.5 225.5,-527.5"/>
<polygon fill="none" stroke="#8ccbf2" points="225.5,-527.5 225.5,-548.5 456.5,-548.5 456.5,-527.5 225.5,-527.5"/>
<text text-anchor="start" x="228.5" y="-535.3" font-family="mono" font-size="14.00" fill="#c83500">observable</text>
<text text-anchor="start" x="311.5" y="-535.3" font-family="Times,serif" font-size="14.00"> : </text>
<text text-anchor="start" x="323.5" y="-535.3" font-family="mono" font-size="14.00" fill="#c83500">boolean</text>
<text text-anchor="start" x="381.5" y="-535.3" font-family="Times,serif" font-size="14.00"> </text>
<text text-anchor="start" x="385.5" y="-535.3" font-family="Times,serif" font-style="italic" font-size="14.00">(mandatory)</text>
</g>
<!-- Thing&#45;&gt;Property -->
<g id="edge8" class="edge"><title>Thing&#45;&gt;Property</title>
<path fill="none" stroke="black" d="M551.262,-684.604C492.611,-647.007 428.479,-605.897 386.551,-579.02"/>
<polygon fill="black" stroke="black" points="388.258,-575.957 377.951,-573.507 384.481,-581.85 388.258,-575.957"/>
<text text-anchor="start" x="474.5" y="-626.8" font-family="mono" font-size="14.00" fill="#c83500">properties</text>
<text text-anchor="middle" x="366.951" y="-577.307" font-family="Times,serif" font-size="14.00">0..1</text>
</g>
<!-- VersionInfo -->
<g id="node8" class="node"><title>VersionInfo</title>
<polygon fill="#8ccbf2" stroke="none" points="1046.5,-548.5 1046.5,-569.5 1253.5,-569.5 1253.5,-548.5 1046.5,-548.5"/>
<polygon fill="none" stroke="#8ccbf2" points="1046.5,-548.5 1046.5,-569.5 1253.5,-569.5 1253.5,-548.5 1046.5,-548.5"/>
<text text-anchor="start" x="1104.5" y="-556.3" font-family="mono" font-weight="bold" font-size="14.00" fill="#c83500">VersionInfo</text>
<polygon fill="#ddeeff" stroke="none" points="1046.5,-527.5 1046.5,-548.5 1253.5,-548.5 1253.5,-527.5 1046.5,-527.5"/>
<polygon fill="none" stroke="#8ccbf2" points="1046.5,-527.5 1046.5,-548.5 1253.5,-548.5 1253.5,-527.5 1046.5,-527.5"/>
<text text-anchor="start" x="1049.5" y="-535.3" font-family="mono" font-size="14.00" fill="#c83500">instance</text>
<text text-anchor="start" x="1116.5" y="-535.3" font-family="Times,serif" font-size="14.00"> : </text>
<text text-anchor="start" x="1128.5" y="-535.3" font-family="mono" font-size="14.00" fill="#c83500">string</text>
<text text-anchor="start" x="1178.5" y="-535.3" font-family="Times,serif" font-size="14.00"> </text>
<text text-anchor="start" x="1182.5" y="-535.3" font-family="Times,serif" font-style="italic" font-size="14.00">(mandatory)</text>
</g>
<!-- Thing&#45;&gt;VersionInfo -->
<g id="edge6" class="edge"><title>Thing&#45;&gt;VersionInfo</title>
<path fill="none" stroke="black" d="M831.716,-705.617C918.827,-662.822 1026.22,-610.064 1091.2,-578.141"/>
<polygon fill="black" stroke="black" points="1093.04,-581.137 1100.47,-573.586 1089.95,-574.854 1093.04,-581.137"/>
<text text-anchor="start" x="988.5" y="-626.8" font-family="mono" font-size="14.00" fill="#c83500">version</text>
<text text-anchor="middle" x="1089.47" y="-577.386" font-family="Times,serif" font-size="14.00">0..1</text>
</g>
<!-- Action -->
<g id="node9" class="node"><title>Action</title>
<polygon fill="#8ccbf2" stroke="none" points="490.5,-558.5 490.5,-579.5 721.5,-579.5 721.5,-558.5 490.5,-558.5"/>
<polygon fill="none" stroke="#8ccbf2" points="490.5,-558.5 490.5,-579.5 721.5,-579.5 721.5,-558.5 490.5,-558.5"/>
<text text-anchor="start" x="581" y="-566.3" font-family="mono" font-weight="bold" font-size="14.00" fill="#c83500">Action</text>
<polygon fill="#ddeeff" stroke="none" points="490.5,-537.5 490.5,-558.5 721.5,-558.5 721.5,-537.5 490.5,-537.5"/>
<polygon fill="none" stroke="#8ccbf2" points="490.5,-537.5 490.5,-558.5 721.5,-558.5 721.5,-537.5 490.5,-537.5"/>
<text text-anchor="start" x="493.5" y="-545.3" font-family="mono" font-size="14.00" fill="#c83500">safe</text>
<text text-anchor="start" x="527.5" y="-545.3" font-family="Times,serif" font-size="14.00"> : </text>
<text text-anchor="start" x="539.5" y="-545.3" font-family="mono" font-size="14.00" fill="#c83500">boolean</text>
<text text-anchor="start" x="597.5" y="-545.3" font-family="Times,serif" font-size="14.00"> </text>
<text text-anchor="start" x="601.5" y="-545.3" font-family="Times,serif" font-style="italic" font-size="14.00">(mandatory)</text>
<polygon fill="#ddeeff" stroke="none" points="490.5,-516.5 490.5,-537.5 721.5,-537.5 721.5,-516.5 490.5,-516.5"/>
<polygon fill="none" stroke="#8ccbf2" points="490.5,-516.5 490.5,-537.5 721.5,-537.5 721.5,-516.5 490.5,-516.5"/>
<text text-anchor="start" x="493.5" y="-524.3" font-family="mono" font-size="14.00" fill="#c83500">idempotent</text>
<text text-anchor="start" x="576.5" y="-524.3" font-family="Times,serif" font-size="14.00"> : </text>
<text text-anchor="start" x="588.5" y="-524.3" font-family="mono" font-size="14.00" fill="#c83500">boolean</text>
<text text-anchor="start" x="646.5" y="-524.3" font-family="Times,serif" font-size="14.00"> </text>
<text text-anchor="start" x="650.5" y="-524.3" font-family="Times,serif" font-style="italic" font-size="14.00">(mandatory)</text>
</g>
<!-- Thing&#45;&gt;Action -->
<g id="edge10" class="edge"><title>Thing&#45;&gt;Action</title>
<path fill="none" stroke="black" d="M646.108,-655.741C637.658,-633.635 629.333,-611.853 622.441,-593.823"/>
<polygon fill="black" stroke="black" points="625.608,-592.304 618.768,-584.213 619.069,-594.804 625.608,-592.304"/>
<text text-anchor="start" x="638.5" y="-626.8" font-family="mono" font-size="14.00" fill="#c83500">actions</text>
<text text-anchor="middle" x="607.768" y="-588.013" font-family="Times,serif" font-size="14.00">0..1</text>
</g>
<!-- Event -->
<g id="node10" class="node"><title>Event</title>
<polygon fill="#8ccbf2" stroke="none" points="755.5,-537.5 755.5,-558.5 803.5,-558.5 803.5,-537.5 755.5,-537.5"/>
<polygon fill="none" stroke="#8ccbf2" points="755.5,-537.5 755.5,-558.5 803.5,-558.5 803.5,-537.5 755.5,-537.5"/>
<text text-anchor="start" x="758.5" y="-545.3" font-family="mono" font-weight="bold" font-size="14.00" fill="#c83500">Event</text>
</g>
<!-- Thing&#45;&gt;Event -->
<g id="edge12" class="edge"><title>Thing&#45;&gt;Event</title>
<path fill="none" stroke="black" d="M737.948,-655.741C749.683,-625.737 761.185,-596.329 769.101,-576.088"/>
<polygon fill="black" stroke="black" points="772.407,-577.243 772.79,-566.656 765.888,-574.694 772.407,-577.243"/>
<text text-anchor="start" x="749.5" y="-626.8" font-family="mono" font-size="14.00" fill="#c83500">events</text>
<text text-anchor="middle" x="761.79" y="-570.456" font-family="Times,serif" font-size="14.00">0..1</text>
</g>
<!-- SecurityScheme -->
<g id="node12" class="node"><title>SecurityScheme</title>
<polygon fill="#f2f2f2" stroke="none" points="1287.5,-537.5 1287.5,-558.5 1409.5,-558.5 1409.5,-537.5 1287.5,-537.5"/>
<polygon fill="none" stroke="#8c8c8c" points="1287.5,-537.5 1287.5,-558.5 1409.5,-558.5 1409.5,-537.5 1287.5,-537.5"/>
<text text-anchor="start" x="1290.5" y="-545.3" font-family="mono" font-weight="bold" font-size="14.00">SecurityScheme</text>
</g>
<!-- Thing&#45;&gt;SecurityScheme -->
<g id="edge7" class="edge"><title>Thing&#45;&gt;SecurityScheme</title>
<path fill="none" stroke="black" d="M831.645,-746.927C951.703,-720.178 1127.24,-673.518 1269.5,-605 1287.43,-596.367 1305.71,-583.807 1320.17,-572.818"/>
<polygon fill="black" stroke="black" points="1322.46,-575.471 1328.21,-566.571 1318.17,-569.943 1322.46,-575.471"/>
<text text-anchor="start" x="1225.5" y="-626.8" font-family="mono" font-size="14.00" fill="#c83500">securityDefinitions</text>
<text text-anchor="middle" x="1317.21" y="-570.371" font-family="Times,serif" font-size="14.00">1..1</text>
</g>
<!-- Property&#45;&gt;InteractionPattern -->
<g id="edge19" class="edge"><title>Property&#45;&gt;InteractionPattern</title>
<path fill="none" stroke="black" d="M343.182,-523.151C345.25,-504.376 348.229,-477.33 351.077,-451.471"/>
<polygon fill="white" stroke="black" points="354.586,-451.582 352.202,-441.258 347.628,-450.815 354.586,-451.582"/>
</g>
<!-- Action&#45;&gt;InteractionPattern -->
<g id="edge20" class="edge"><title>Action&#45;&gt;InteractionPattern</title>
<path fill="none" stroke="black" d="M556.014,-512.8C528.981,-493.844 494.466,-469.64 461.927,-446.824"/>
<polygon fill="white" stroke="black" points="463.9,-443.932 453.703,-441.057 459.881,-449.664 463.9,-443.932"/>
</g>
<!-- Action&#45;&gt;DataSchema -->
<g id="edge14" class="edge"><title>Action&#45;&gt;DataSchema</title>
<path fill="none" stroke="black" d="M599.212,-512.613C592.105,-464.498 584.723,-375.907 611.5,-307 627.974,-264.607 665.178,-226.817 691.978,-203.592"/>
<polygon fill="black" stroke="black" points="694.556,-205.996 699.927,-196.863 690.033,-200.653 694.556,-205.996"/>
<text text-anchor="start" x="611.5" y="-370.3" font-family="mono" font-size="14.00" fill="#c83500">output</text>
<text text-anchor="middle" x="688.927" y="-200.663" font-family="Times,serif" font-size="14.00">0..1</text>
</g>
<!-- Action&#45;&gt;DataSchema -->
<g id="edge15" class="edge"><title>Action&#45;&gt;DataSchema</title>
<path fill="none" stroke="black" d="M626.773,-512.564C638.383,-492.266 652.238,-465.861 661.5,-441 677.664,-397.613 705.47,-264.118 717.119,-206.47"/>
<polygon fill="black" stroke="black" points="720.558,-207.121 719.1,-196.627 713.696,-205.74 720.558,-207.121"/>
<text text-anchor="start" x="696.5" y="-370.3" font-family="mono" font-size="14.00" fill="#c83500">input</text>
<text text-anchor="middle" x="730.1" y="-200.427" font-family="Times,serif" font-size="14.00">0..1</text>
</g>
<!-- Event&#45;&gt;InteractionPattern -->
<g id="edge21" class="edge"><title>Event&#45;&gt;InteractionPattern</title>
<path fill="none" stroke="black" d="M770.444,-530.405C763.095,-518.076 751.647,-501.921 737.5,-492 734.604,-489.969 578.831,-442.08 468.183,-408.208"/>
<polygon fill="white" stroke="black" points="468.88,-404.761 458.293,-405.181 466.831,-411.454 468.88,-404.761"/>
</g>
<!-- Event&#45;&gt;DataSchema -->
<g id="edge16" class="edge"><title>Event&#45;&gt;DataSchema</title>
<path fill="none" stroke="black" d="M776.827,-530.244C767.72,-471.449 737.853,-278.623 726.727,-206.79"/>
<polygon fill="black" stroke="black" points="730.156,-206.065 725.167,-196.718 723.239,-207.136 730.156,-206.065"/>
<text text-anchor="start" x="762.5" y="-370.3" font-family="mono" font-size="14.00" fill="#c83500">cancellation</text>
<text text-anchor="middle" x="714.167" y="-200.518" font-family="Times,serif" font-size="14.00">0..1</text>
</g>
<!-- Event&#45;&gt;DataSchema -->
<g id="edge17" class="edge"><title>Event&#45;&gt;DataSchema</title>
<path fill="none" stroke="black" d="M791.462,-530.417C799.425,-519.273 810.267,-504.523 820.5,-492 839.814,-468.363 855.549,-469.492 866.5,-441 887.867,-385.409 890.95,-361.305 866.5,-307 845.485,-260.324 798,-223.828 763.284,-202.059"/>
<polygon fill="black" stroke="black" points="764.67,-198.804 754.311,-196.579 761.021,-204.778 764.67,-198.804"/>
<text text-anchor="start" x="884.5" y="-370.3" font-family="mono" font-size="14.00" fill="#c83500">subscription</text>
<text text-anchor="middle" x="765.311" y="-200.379" font-family="Times,serif" font-size="14.00">0..1</text>
</g>
<!-- Event&#45;&gt;DataSchema -->
<g id="edge18" class="edge"><title>Event&#45;&gt;DataSchema</title>
<path fill="none" stroke="black" d="M788.232,-530.38C795.352,-518.038 806.505,-501.879 820.5,-492 884.25,-447.002 942.023,-503.68 988.5,-441 1023.97,-393.161 1020.23,-357.398 988.5,-307 944.081,-236.451 848.591,-204.069 784.945,-189.841"/>
<polygon fill="black" stroke="black" points="785.528,-186.387 775.016,-187.711 784.059,-193.231 785.528,-186.387"/>
<text text-anchor="start" x="1014.5" y="-370.3" font-family="mono" font-size="14.00" fill="#c83500">data</text>
<text text-anchor="middle" x="786.016" y="-176.511" font-family="Times,serif" font-size="14.00">0..1</text>
</g>
</g>
</svg>
