<?xml version="1.0" encoding="UTF-8" standalone="no"?>
<!DOCTYPE svg PUBLIC "-//W3C//DTD SVG 1.1//EN"
 "http://www.w3.org/Graphics/SVG/1.1/DTD/svg11.dtd">
<!-- Generated by graphviz version 2.38.0 (20140413.2041)
 -->
<!-- Title: %3 Pages: 1 -->
<svg width="1325pt" height="798pt"
 viewBox="0.00 0.00 1324.50 798.00" xmlns="http://www.w3.org/2000/svg" xmlns:xlink="http://www.w3.org/1999/xlink">
<g id="graph0" class="graph" transform="scale(1 1) rotate(0) translate(4 794)">
<title>%3</title>
<polygon fill="white" stroke="none" points="-4,4 -4,-794 1320.5,-794 1320.5,4 -4,4"/>
<!-- MultiLanguage -->
<g id="node1" class="node"><title>MultiLanguage</title>
<polygon fill="#8ccbf2" stroke="none" points="274.5,-167.5 274.5,-188.5 388.5,-188.5 388.5,-167.5 274.5,-167.5"/>
<polygon fill="none" stroke="#8ccbf2" points="274.5,-167.5 274.5,-188.5 388.5,-188.5 388.5,-167.5 274.5,-167.5"/>
<text text-anchor="start" x="277.5" y="-175.3" font-family="mono" font-weight="bold" font-size="14.00" fill="#c83500">MultiLanguage</text>
</g>
<!-- Form -->
<g id="node2" class="node"><title>Form</title>
<polygon fill="#8ccbf2" stroke="none" points="8.5,-230.5 8.5,-251.5 239.5,-251.5 239.5,-230.5 8.5,-230.5"/>
<polygon fill="none" stroke="#8ccbf2" points="8.5,-230.5 8.5,-251.5 239.5,-251.5 239.5,-230.5 8.5,-230.5"/>
<text text-anchor="start" x="107" y="-238.3" font-family="mono" font-weight="bold" font-size="14.00" fill="#c83500">Form</text>
<polygon fill="#ddeeff" stroke="none" points="8.5,-209.5 8.5,-230.5 239.5,-230.5 239.5,-209.5 8.5,-209.5"/>
<polygon fill="none" stroke="#8ccbf2" points="8.5,-209.5 8.5,-230.5 239.5,-230.5 239.5,-209.5 8.5,-209.5"/>
<text text-anchor="start" x="11.5" y="-217.3" font-family="mono" font-size="14.00" fill="#c83500">href</text>
<text text-anchor="start" x="45.5" y="-217.3" font-family="Times,serif" font-size="14.00"> : </text>
<text text-anchor="start" x="57.5" y="-217.3" font-family="mono" font-size="14.00" fill="#c83500">anyURI</text>
<text text-anchor="start" x="107.5" y="-217.3" font-family="Times,serif" font-size="14.00"> </text>
<text text-anchor="start" x="111.5" y="-217.3" font-family="Times,serif" font-style="italic" font-size="14.00">(mandatory)</text>
<polygon fill="#ddeeff" stroke="none" points="8.5,-188.5 8.5,-209.5 239.5,-209.5 239.5,-188.5 8.5,-188.5"/>
<polygon fill="none" stroke="#8ccbf2" points="8.5,-188.5 8.5,-209.5 239.5,-209.5 239.5,-188.5 8.5,-188.5"/>
<text text-anchor="start" x="11.5" y="-196.3" font-family="mono" font-size="14.00" fill="#c83500">contentType</text>
<text text-anchor="start" x="102.5" y="-196.3" font-family="Times,serif" font-size="14.00"> : </text>
<text text-anchor="start" x="114.5" y="-196.3" font-family="mono" font-size="14.00" fill="#c83500">string</text>
<text text-anchor="start" x="164.5" y="-196.3" font-family="Times,serif" font-size="14.00"> </text>
<text text-anchor="start" x="168.5" y="-196.3" font-family="Times,serif" font-style="italic" font-size="14.00">(mandatory)</text>
<polygon fill="#ddeeff" stroke="none" points="8.5,-167.5 8.5,-188.5 239.5,-188.5 239.5,-167.5 8.5,-167.5"/>
<polygon fill="none" stroke="#8ccbf2" points="8.5,-167.5 8.5,-188.5 239.5,-188.5 239.5,-167.5 8.5,-167.5"/>
<text text-anchor="start" x="11.5" y="-175.3" font-family="mono" font-size="14.00" fill="#c83500">security</text>
<text text-anchor="start" x="78.5" y="-175.3" font-family="Times,serif" font-size="14.00"> : (array of) </text>
<text text-anchor="start" x="145.5" y="-175.3" font-family="mono" font-size="14.00" fill="#c83500">string</text>
<polygon fill="#ddeeff" stroke="none" points="8.5,-146.5 8.5,-167.5 239.5,-167.5 239.5,-146.5 8.5,-146.5"/>
<polygon fill="none" stroke="#8ccbf2" points="8.5,-146.5 8.5,-167.5 239.5,-167.5 239.5,-146.5 8.5,-146.5"/>
<text text-anchor="start" x="11.5" y="-154.3" font-family="mono" font-size="14.00" fill="#c83500">scopes</text>
<text text-anchor="start" x="61.5" y="-154.3" font-family="Times,serif" font-size="14.00"> : (array of) </text>
<text text-anchor="start" x="128.5" y="-154.3" font-family="mono" font-size="14.00" fill="#c83500">string</text>
<polygon fill="#ddeeff" stroke="none" points="8.5,-125.5 8.5,-146.5 239.5,-146.5 239.5,-125.5 8.5,-125.5"/>
<polygon fill="none" stroke="#8ccbf2" points="8.5,-125.5 8.5,-146.5 239.5,-146.5 239.5,-125.5 8.5,-125.5"/>
<text text-anchor="start" x="11.5" y="-133.3" font-family="mono" font-size="14.00" fill="#c83500">subprotocol</text>
<text text-anchor="start" x="102.5" y="-133.3" font-family="Times,serif" font-size="14.00"> : </text>
<text text-anchor="start" x="114.5" y="-133.3" font-family="mono" font-size="14.00" fill="#c83500">string</text>
<polygon fill="#ddeeff" stroke="none" points="8.5,-104.5 8.5,-125.5 239.5,-125.5 239.5,-104.5 8.5,-104.5"/>
<polygon fill="none" stroke="#8ccbf2" points="8.5,-104.5 8.5,-125.5 239.5,-125.5 239.5,-104.5 8.5,-104.5"/>
<text text-anchor="start" x="11.5" y="-112.3" font-family="mono" font-size="14.00" fill="#c83500">op</text>
<text text-anchor="start" x="28.5" y="-112.3" font-family="Times,serif" font-size="14.00"> : (array of) </text>
<text text-anchor="start" x="95.5" y="-112.3" font-family="mono" font-size="14.00" fill="#c83500">string</text>
<text text-anchor="start" x="145.5" y="-112.3" font-family="Times,serif" font-size="14.00"> </text>
<text text-anchor="start" x="149.5" y="-112.3" font-family="Times,serif" font-style="italic" font-size="14.00">(mandatory)</text>
</g>
<!-- ExpectedResponse -->
<g id="node5" class="node"><title>ExpectedResponse</title>
<polygon fill="#8ccbf2" stroke="none" points="8.5,-25 8.5,-46 239.5,-46 239.5,-25 8.5,-25"/>
<polygon fill="none" stroke="#8ccbf2" points="8.5,-25 8.5,-46 239.5,-46 239.5,-25 8.5,-25"/>
<text text-anchor="start" x="57.5" y="-32.8" font-family="mono" font-weight="bold" font-size="14.00" fill="#c83500">ExpectedResponse</text>
<polygon fill="#ddeeff" stroke="none" points="8.5,-4 8.5,-25 239.5,-25 239.5,-4 8.5,-4"/>
<polygon fill="none" stroke="#8ccbf2" points="8.5,-4 8.5,-25 239.5,-25 239.5,-4 8.5,-4"/>
<text text-anchor="start" x="11.5" y="-11.8" font-family="mono" font-size="14.00" fill="#c83500">contentType</text>
<text text-anchor="start" x="102.5" y="-11.8" font-family="Times,serif" font-size="14.00"> : </text>
<text text-anchor="start" x="114.5" y="-11.8" font-family="mono" font-size="14.00" fill="#c83500">string</text>
<text text-anchor="start" x="164.5" y="-11.8" font-family="Times,serif" font-size="14.00"> </text>
<text text-anchor="start" x="168.5" y="-11.8" font-family="Times,serif" font-style="italic" font-size="14.00">(mandatory)</text>
</g>
<!-- Form&#45;&gt;ExpectedResponse -->
<g id="edge1" class="edge"><title>Form&#45;&gt;ExpectedResponse</title>
<path fill="none" stroke="black" d="M123.5,-100.862C123.5,-86.5577 123.5,-72.2953 123.5,-60.116"/>
<polygon fill="black" stroke="black" points="127,-60.0004 123.5,-50.0004 120,-60.0004 127,-60.0004"/>
<text text-anchor="start" x="123.5" y="-71.8" font-family="mono" font-size="14.00" fill="#c83500">response</text>
<text text-anchor="middle" x="112.5" y="-53.8004" font-family="Times,serif" font-size="14.00">0..1</text>
</g>
<!-- Thing -->
<g id="node3" class="node"><title>Thing</title>
<polygon fill="#8ccbf2" stroke="none" points="492.5,-764.5 492.5,-785.5 754.5,-785.5 754.5,-764.5 492.5,-764.5"/>
<polygon fill="none" stroke="#8ccbf2" points="492.5,-764.5 492.5,-785.5 754.5,-785.5 754.5,-764.5 492.5,-764.5"/>
<text text-anchor="start" x="602.5" y="-772.3" font-family="mono" font-weight="bold" font-size="14.00" fill="#c83500">Thing</text>
<polygon fill="#ddeeff" stroke="none" points="492.5,-743.5 492.5,-764.5 754.5,-764.5 754.5,-743.5 492.5,-743.5"/>
<polygon fill="none" stroke="#8ccbf2" points="492.5,-743.5 492.5,-764.5 754.5,-764.5 754.5,-743.5 492.5,-743.5"/>
<text text-anchor="start" x="495.5" y="-751.3" font-family="mono" font-size="14.00" fill="#c83500">@context</text>
<text text-anchor="start" x="562.5" y="-751.3" font-family="Times,serif" font-size="14.00"> : </text>
<text text-anchor="start" x="574.5" y="-751.3" font-family="Times,serif" font-style="italic" font-size="14.00">string or array</text>
<text text-anchor="start" x="656.5" y="-751.3" font-family="Times,serif" font-size="14.00"> </text>
<text text-anchor="start" x="660.5" y="-751.3" font-family="Times,serif" font-style="italic" font-size="14.00">(mandatory)</text>
<polygon fill="#ddeeff" stroke="none" points="492.5,-722.5 492.5,-743.5 754.5,-743.5 754.5,-722.5 492.5,-722.5"/>
<polygon fill="none" stroke="#8ccbf2" points="492.5,-722.5 492.5,-743.5 754.5,-743.5 754.5,-722.5 492.5,-722.5"/>
<text text-anchor="start" x="495.5" y="-730.3" font-family="mono" font-size="14.00" fill="#c83500">@type</text>
<text text-anchor="start" x="537.5" y="-730.3" font-family="Times,serif" font-size="14.00"> : </text>
<text text-anchor="start" x="549.5" y="-730.3" font-family="Times,serif" font-style="italic" font-size="14.00">(array of) </text>
<text text-anchor="start" x="607.5" y="-730.3" font-family="mono" font-size="14.00" fill="#c83500">string</text>
<polygon fill="#ddeeff" stroke="none" points="492.5,-701.5 492.5,-722.5 754.5,-722.5 754.5,-701.5 492.5,-701.5"/>
<polygon fill="none" stroke="#8ccbf2" points="492.5,-701.5 492.5,-722.5 754.5,-722.5 754.5,-701.5 492.5,-701.5"/>
<text text-anchor="start" x="495.5" y="-709.3" font-family="mono" font-size="14.00" fill="#c83500">id</text>
<text text-anchor="start" x="512.5" y="-709.3" font-family="Times,serif" font-size="14.00"> : </text>
<text text-anchor="start" x="524.5" y="-709.3" font-family="mono" font-size="14.00" fill="#c83500">anyURI</text>
<text text-anchor="start" x="574.5" y="-709.3" font-family="Times,serif" font-size="14.00"> </text>
<text text-anchor="start" x="578.5" y="-709.3" font-family="Times,serif" font-style="italic" font-size="14.00">(mandatory)</text>
<polygon fill="#ddeeff" stroke="none" points="492.5,-680.5 492.5,-701.5 754.5,-701.5 754.5,-680.5 492.5,-680.5"/>
<polygon fill="none" stroke="#8ccbf2" points="492.5,-680.5 492.5,-701.5 754.5,-701.5 754.5,-680.5 492.5,-680.5"/>
<text text-anchor="start" x="495.5" y="-688.3" font-family="mono" font-size="14.00" fill="#c83500">base</text>
<text text-anchor="start" x="529.5" y="-688.3" font-family="Times,serif" font-size="14.00"> : </text>
<text text-anchor="start" x="541.5" y="-688.3" font-family="mono" font-size="14.00" fill="#c83500">anyURI</text>
<polygon fill="#ddeeff" stroke="none" points="492.5,-659.5 492.5,-680.5 754.5,-680.5 754.5,-659.5 492.5,-659.5"/>
<polygon fill="none" stroke="#8ccbf2" points="492.5,-659.5 492.5,-680.5 754.5,-680.5 754.5,-659.5 492.5,-659.5"/>
<text text-anchor="start" x="495.5" y="-667.3" font-family="mono" font-size="14.00" fill="#c83500">created</text>
<text text-anchor="start" x="553.5" y="-667.3" font-family="Times,serif" font-size="14.00"> : </text>
<text text-anchor="start" x="565.5" y="-667.3" font-family="mono" font-size="14.00" fill="#c83500">dateTime</text>
<polygon fill="#ddeeff" stroke="none" points="492.5,-638.5 492.5,-659.5 754.5,-659.5 754.5,-638.5 492.5,-638.5"/>
<polygon fill="none" stroke="#8ccbf2" points="492.5,-638.5 492.5,-659.5 754.5,-659.5 754.5,-638.5 492.5,-638.5"/>
<text text-anchor="start" x="495.5" y="-646.3" font-family="mono" font-size="14.00" fill="#c83500">lastModified</text>
<text text-anchor="start" x="595.5" y="-646.3" font-family="Times,serif" font-size="14.00"> : </text>
<text text-anchor="start" x="607.5" y="-646.3" font-family="mono" font-size="14.00" fill="#c83500">dateTime</text>
<polygon fill="#ddeeff" stroke="none" points="492.5,-617.5 492.5,-638.5 754.5,-638.5 754.5,-617.5 492.5,-617.5"/>
<polygon fill="none" stroke="#8ccbf2" points="492.5,-617.5 492.5,-638.5 754.5,-638.5 754.5,-617.5 492.5,-617.5"/>
<text text-anchor="start" x="495.5" y="-625.3" font-family="mono" font-size="14.00" fill="#c83500">support</text>
<text text-anchor="start" x="553.5" y="-625.3" font-family="Times,serif" font-size="14.00"> : </text>
<text text-anchor="start" x="565.5" y="-625.3" font-family="mono" font-size="14.00" fill="#c83500">string</text>
<polygon fill="#ddeeff" stroke="none" points="492.5,-596.5 492.5,-617.5 754.5,-617.5 754.5,-596.5 492.5,-596.5"/>
<polygon fill="none" stroke="#8ccbf2" points="492.5,-596.5 492.5,-617.5 754.5,-617.5 754.5,-596.5 492.5,-596.5"/>
<text text-anchor="start" x="495.5" y="-604.3" font-family="mono" font-size="14.00" fill="#c83500">description</text>
<text text-anchor="start" x="586.5" y="-604.3" font-family="Times,serif" font-size="14.00"> : </text>
<text text-anchor="start" x="598.5" y="-604.3" font-family="mono" font-size="14.00" fill="#c83500">string</text>
<polygon fill="#ddeeff" stroke="none" points="492.5,-575.5 492.5,-596.5 754.5,-596.5 754.5,-575.5 492.5,-575.5"/>
<polygon fill="none" stroke="#8ccbf2" points="492.5,-575.5 492.5,-596.5 754.5,-596.5 754.5,-575.5 492.5,-575.5"/>
<text text-anchor="start" x="495.5" y="-583.3" font-family="mono" font-size="14.00" fill="#c83500">name</text>
<text text-anchor="start" x="529.5" y="-583.3" font-family="Times,serif" font-size="14.00"> : </text>
<text text-anchor="start" x="541.5" y="-583.3" font-family="mono" font-size="14.00" fill="#c83500">string</text>
<text text-anchor="start" x="591.5" y="-583.3" font-family="Times,serif" font-size="14.00"> </text>
<text text-anchor="start" x="595.5" y="-583.3" font-family="Times,serif" font-style="italic" font-size="14.00">(mandatory)</text>
<polygon fill="#ddeeff" stroke="none" points="492.5,-554.5 492.5,-575.5 754.5,-575.5 754.5,-554.5 492.5,-554.5"/>
<polygon fill="none" stroke="#8ccbf2" points="492.5,-554.5 492.5,-575.5 754.5,-575.5 754.5,-554.5 492.5,-554.5"/>
<text text-anchor="start" x="495.5" y="-562.3" font-family="mono" font-size="14.00" fill="#c83500">security</text>
<text text-anchor="start" x="562.5" y="-562.3" font-family="Times,serif" font-size="14.00"> : (array of) </text>
<text text-anchor="start" x="629.5" y="-562.3" font-family="mono" font-size="14.00" fill="#c83500">string</text>
<text text-anchor="start" x="679.5" y="-562.3" font-family="Times,serif" font-size="14.00"> </text>
<text text-anchor="start" x="683.5" y="-562.3" font-family="Times,serif" font-style="italic" font-size="14.00">(mandatory)</text>
</g>
<!-- Thing&#45;&gt;MultiLanguage -->
<g id="edge8" class="edge"><title>Thing&#45;&gt;MultiLanguage</title>
<path fill="none" stroke="black" d="M484.297,-648.704C395.625,-627.467 287.281,-584.892 231.5,-500 167.412,-402.466 264.743,-261.446 310.199,-204.625"/>
<polygon fill="black" stroke="black" points="313.167,-206.523 316.761,-196.557 307.736,-202.107 313.167,-206.523"/>
<text text-anchor="start" x="212.5" y="-399.8" font-family="mono" font-size="14.00" fill="#c83500">descriptions</text>
<text text-anchor="middle" x="305.761" y="-200.357" font-family="Times,serif" font-size="14.00">0..1</text>
</g>
<!-- Thing&#45;&gt;Form -->
<g id="edge5" class="edge"><title>Thing&#45;&gt;Form</title>
<path fill="none" stroke="black" d="M484.323,-650.804C390.193,-630.393 271.582,-587.945 206.5,-500 155.907,-431.633 136.07,-335.22 128.338,-266.025"/>
<polygon fill="black" stroke="black" points="131.813,-265.598 127.283,-256.02 124.851,-266.332 131.813,-265.598"/>
<text text-anchor="start" x="159.5" y="-399.8" font-family="mono" font-size="14.00" fill="#c83500">forms</text>
<text text-anchor="middle" x="116.283" y="-259.82" font-family="Times,serif" font-size="14.00">0..*</text>
</g>
<!-- PropertyAffordance -->
<g id="node4" class="node"><title>PropertyAffordance</title>
<polygon fill="#8ccbf2" stroke="none" points="249.5,-464.5 249.5,-485.5 408.5,-485.5 408.5,-464.5 249.5,-464.5"/>
<polygon fill="none" stroke="#8ccbf2" points="249.5,-464.5 249.5,-485.5 408.5,-485.5 408.5,-464.5 249.5,-464.5"/>
<text text-anchor="start" x="254.5" y="-472.3" font-family="mono" font-weight="bold" font-size="14.00" fill="#c83500">PropertyAffordance</text>
<polygon fill="#ddeeff" stroke="none" points="249.5,-443.5 249.5,-464.5 408.5,-464.5 408.5,-443.5 249.5,-443.5"/>
<polygon fill="none" stroke="#8ccbf2" points="249.5,-443.5 249.5,-464.5 408.5,-464.5 408.5,-443.5 249.5,-443.5"/>
<text text-anchor="start" x="252.5" y="-451.3" font-family="mono" font-size="14.00" fill="#c83500">observable</text>
<text text-anchor="start" x="335.5" y="-451.3" font-family="Times,serif" font-size="14.00"> : </text>
<text text-anchor="start" x="347.5" y="-451.3" font-family="mono" font-size="14.00" fill="#c83500">boolean</text>
</g>
<!-- Thing&#45;&gt;PropertyAffordance -->
<g id="edge6" class="edge"><title>Thing&#45;&gt;PropertyAffordance</title>
<path fill="none" stroke="black" d="M484.207,-573.175C443.473,-545.007 401.902,-516.259 371.971,-495.562"/>
<polygon fill="black" stroke="black" points="373.676,-492.485 363.46,-489.676 369.694,-498.242 373.676,-492.485"/>
<text text-anchor="start" x="424.5" y="-521.8" font-family="mono" font-size="14.00" fill="#c83500">properties</text>
<text text-anchor="middle" x="352.46" y="-493.476" font-family="Times,serif" font-size="14.00">0..1</text>
</g>
<!-- VersionInfo -->
<g id="node6" class="node"><title>VersionInfo</title>
<polygon fill="#8ccbf2" stroke="none" points="442.5,-464.5 442.5,-485.5 649.5,-485.5 649.5,-464.5 442.5,-464.5"/>
<polygon fill="none" stroke="#8ccbf2" points="442.5,-464.5 442.5,-485.5 649.5,-485.5 649.5,-464.5 442.5,-464.5"/>
<text text-anchor="start" x="500.5" y="-472.3" font-family="mono" font-weight="bold" font-size="14.00" fill="#c83500">VersionInfo</text>
<polygon fill="#ddeeff" stroke="none" points="442.5,-443.5 442.5,-464.5 649.5,-464.5 649.5,-443.5 442.5,-443.5"/>
<polygon fill="none" stroke="#8ccbf2" points="442.5,-443.5 442.5,-464.5 649.5,-464.5 649.5,-443.5 442.5,-443.5"/>
<text text-anchor="start" x="445.5" y="-451.3" font-family="mono" font-size="14.00" fill="#c83500">instance</text>
<text text-anchor="start" x="512.5" y="-451.3" font-family="Times,serif" font-size="14.00"> : </text>
<text text-anchor="start" x="524.5" y="-451.3" font-family="mono" font-size="14.00" fill="#c83500">string</text>
<text text-anchor="start" x="574.5" y="-451.3" font-family="Times,serif" font-size="14.00"> </text>
<text text-anchor="start" x="578.5" y="-451.3" font-family="Times,serif" font-style="italic" font-size="14.00">(mandatory)</text>
</g>
<!-- Thing&#45;&gt;VersionInfo -->
<g id="edge4" class="edge"><title>Thing&#45;&gt;VersionInfo</title>
<path fill="none" stroke="black" d="M578.127,-550.832C570.884,-531.888 563.942,-513.733 558.338,-499.075"/>
<polygon fill="black" stroke="black" points="561.525,-497.611 554.684,-489.52 554.986,-500.111 561.525,-497.611"/>
<text text-anchor="start" x="571.5" y="-521.8" font-family="mono" font-size="14.00" fill="#c83500">version</text>
<text text-anchor="middle" x="543.684" y="-493.32" font-family="Times,serif" font-size="14.00">0..1</text>
</g>
<!-- ActionAffordance -->
<g id="node7" class="node"><title>ActionAffordance</title>
<polygon fill="#8ccbf2" stroke="none" points="683.5,-474.5 683.5,-495.5 914.5,-495.5 914.5,-474.5 683.5,-474.5"/>
<polygon fill="none" stroke="#8ccbf2" points="683.5,-474.5 683.5,-495.5 914.5,-495.5 914.5,-474.5 683.5,-474.5"/>
<text text-anchor="start" x="732.5" y="-482.3" font-family="mono" font-weight="bold" font-size="14.00" fill="#c83500">ActionAffordance</text>
<polygon fill="#ddeeff" stroke="none" points="683.5,-453.5 683.5,-474.5 914.5,-474.5 914.5,-453.5 683.5,-453.5"/>
<polygon fill="none" stroke="#8ccbf2" points="683.5,-453.5 683.5,-474.5 914.5,-474.5 914.5,-453.5 683.5,-453.5"/>
<text text-anchor="start" x="686.5" y="-461.3" font-family="mono" font-size="14.00" fill="#c83500">safe</text>
<text text-anchor="start" x="720.5" y="-461.3" font-family="Times,serif" font-size="14.00"> : </text>
<text text-anchor="start" x="732.5" y="-461.3" font-family="mono" font-size="14.00" fill="#c83500">boolean</text>
<text text-anchor="start" x="790.5" y="-461.3" font-family="Times,serif" font-size="14.00"> </text>
<text text-anchor="start" x="794.5" y="-461.3" font-family="Times,serif" font-style="italic" font-size="14.00">(mandatory)</text>
<polygon fill="#ddeeff" stroke="none" points="683.5,-432.5 683.5,-453.5 914.5,-453.5 914.5,-432.5 683.5,-432.5"/>
<polygon fill="none" stroke="#8ccbf2" points="683.5,-432.5 683.5,-453.5 914.5,-453.5 914.5,-432.5 683.5,-432.5"/>
<text text-anchor="start" x="686.5" y="-440.3" font-family="mono" font-size="14.00" fill="#c83500">idempotent</text>
<text text-anchor="start" x="769.5" y="-440.3" font-family="Times,serif" font-size="14.00"> : </text>
<text text-anchor="start" x="781.5" y="-440.3" font-family="mono" font-size="14.00" fill="#c83500">boolean</text>
<text text-anchor="start" x="839.5" y="-440.3" font-family="Times,serif" font-size="14.00"> </text>
<text text-anchor="start" x="843.5" y="-440.3" font-family="Times,serif" font-style="italic" font-size="14.00">(mandatory)</text>
</g>
<!-- Thing&#45;&gt;ActionAffordance -->
<g id="edge2" class="edge"><title>Thing&#45;&gt;ActionAffordance</title>
<path fill="none" stroke="black" d="M725.298,-550.832C738.375,-535.589 751.013,-520.856 762.003,-508.045"/>
<polygon fill="black" stroke="black" points="764.767,-510.199 768.621,-500.33 759.454,-505.641 764.767,-510.199"/>
<text text-anchor="start" x="752.5" y="-521.8" font-family="mono" font-size="14.00" fill="#c83500">actions</text>
<text text-anchor="middle" x="757.621" y="-504.13" font-family="Times,serif" font-size="14.00">0..1</text>
</g>
<!-- EventAffordance -->
<g id="node9" class="node"><title>EventAffordance</title>
<polygon fill="#8ccbf2" stroke="none" points="948.5,-453.5 948.5,-474.5 1078.5,-474.5 1078.5,-453.5 948.5,-453.5"/>
<polygon fill="none" stroke="#8ccbf2" points="948.5,-453.5 948.5,-474.5 1078.5,-474.5 1078.5,-453.5 948.5,-453.5"/>
<text text-anchor="start" x="951.5" y="-461.3" font-family="mono" font-weight="bold" font-size="14.00" fill="#c83500">EventAffordance</text>
</g>
<!-- Thing&#45;&gt;EventAffordance -->
<g id="edge7" class="edge"><title>Thing&#45;&gt;EventAffordance</title>
<path fill="none" stroke="black" d="M762.647,-596.715C836.425,-558.124 921.853,-513.439 971.569,-487.433"/>
<polygon fill="black" stroke="black" points="973.486,-490.381 980.724,-482.644 970.241,-484.178 973.486,-490.381"/>
<text text-anchor="start" x="909.5" y="-521.8" font-family="mono" font-size="14.00" fill="#c83500">events</text>
<text text-anchor="middle" x="969.724" y="-486.444" font-family="Times,serif" font-size="14.00">0..1</text>
</g>
<!-- Link -->
<g id="node10" class="node"><title>Link</title>
<polygon fill="#f2f2f2" stroke="none" points="1112.5,-453.5 1112.5,-474.5 1152.5,-474.5 1152.5,-453.5 1112.5,-453.5"/>
<polygon fill="none" stroke="#8c8c8c" points="1112.5,-453.5 1112.5,-474.5 1152.5,-474.5 1152.5,-453.5 1112.5,-453.5"/>
<text text-anchor="start" x="1115.5" y="-461.3" font-family="mono" font-weight="bold" font-size="14.00">Link</text>
</g>
<!-- Thing&#45;&gt;Link -->
<g id="edge3" class="edge"><title>Thing&#45;&gt;Link</title>
<path fill="none" stroke="black" d="M762.567,-635.651C860.258,-608.127 991.522,-563.408 1095.5,-500 1100.37,-497.028 1105.16,-493.341 1109.58,-489.493"/>
<polygon fill="black" stroke="black" points="1112.16,-491.882 1117.11,-482.515 1107.39,-486.751 1112.16,-491.882"/>
<text text-anchor="start" x="1060.5" y="-521.8" font-family="mono" font-size="14.00" fill="#c83500">links</text>
<text text-anchor="middle" x="1106.11" y="-486.315" font-family="Times,serif" font-size="14.00">0..*</text>
</g>
<!-- SecurityScheme -->
<g id="node11" class="node"><title>SecurityScheme</title>
<polygon fill="#f2f2f2" stroke="none" points="1186.5,-453.5 1186.5,-474.5 1308.5,-474.5 1308.5,-453.5 1186.5,-453.5"/>
<polygon fill="none" stroke="#8c8c8c" points="1186.5,-453.5 1186.5,-474.5 1308.5,-474.5 1308.5,-453.5 1186.5,-453.5"/>
<text text-anchor="start" x="1189.5" y="-461.3" font-family="mono" font-weight="bold" font-size="14.00">SecurityScheme</text>
</g>
<!-- Thing&#45;&gt;SecurityScheme -->
<g id="edge9" class="edge"><title>Thing&#45;&gt;SecurityScheme</title>
<path fill="none" stroke="black" d="M762.674,-636.897C860.287,-612.408 993.081,-575.815 1106.5,-533 1141.29,-519.868 1179.23,-501.457 1206.98,-487.18"/>
<polygon fill="black" stroke="black" points="1208.72,-490.222 1215.98,-482.511 1205.49,-484.009 1208.72,-490.222"/>
<text text-anchor="start" x="1142.5" y="-521.8" font-family="mono" font-size="14.00" fill="#c83500">securityDefinitions</text>
<text text-anchor="middle" x="1204.98" y="-486.311" font-family="Times,serif" font-size="14.00">1..1</text>
</g>
<!-- InteractionAffordance -->
<g id="node8" class="node"><title>InteractionAffordance</title>
<polygon fill="#8ccbf2" stroke="none" points="364.5,-352.5 364.5,-373.5 544.5,-373.5 544.5,-352.5 364.5,-352.5"/>
<polygon fill="none" stroke="#8ccbf2" points="364.5,-352.5 364.5,-373.5 544.5,-373.5 544.5,-352.5 364.5,-352.5"/>
<text text-anchor="start" x="367.5" y="-360.3" font-family="mono" font-weight="bold" font-size="14.00" fill="#c83500">InteractionAffordance</text>
<polygon fill="#ddeeff" stroke="none" points="364.5,-331.5 364.5,-352.5 544.5,-352.5 544.5,-331.5 364.5,-331.5"/>
<polygon fill="none" stroke="#8ccbf2" points="364.5,-331.5 364.5,-352.5 544.5,-352.5 544.5,-331.5 364.5,-331.5"/>
<text text-anchor="start" x="367.5" y="-339.3" font-family="mono" font-size="14.00" fill="#c83500">description</text>
<text text-anchor="start" x="458.5" y="-339.3" font-family="Times,serif" font-size="14.00"> : </text>
<text text-anchor="start" x="470.5" y="-339.3" font-family="mono" font-size="14.00" fill="#c83500">string</text>
<polygon fill="#ddeeff" stroke="none" points="364.5,-310.5 364.5,-331.5 544.5,-331.5 544.5,-310.5 364.5,-310.5"/>
<polygon fill="none" stroke="#8ccbf2" points="364.5,-310.5 364.5,-331.5 544.5,-331.5 544.5,-310.5 364.5,-310.5"/>
<text text-anchor="start" x="367.5" y="-318.3" font-family="mono" font-size="14.00" fill="#c83500">title</text>
<text text-anchor="start" x="409.5" y="-318.3" font-family="Times,serif" font-size="14.00"> : </text>
<text text-anchor="start" x="421.5" y="-318.3" font-family="mono" font-size="14.00" fill="#c83500">string</text>
</g>
<!-- PropertyAffordance&#45;&gt;InteractionAffordance -->
<g id="edge19" class="edge"><title>PropertyAffordance&#45;&gt;InteractionAffordance</title>
<path fill="none" stroke="black" d="M353.998,-439.216C370.249,-423.739 391.736,-403.276 410.669,-385.244"/>
<polygon fill="white" stroke="black" points="413.228,-387.64 418.056,-378.209 408.4,-382.571 413.228,-387.64"/>
</g>
<!-- DataSchema -->
<g id="node12" class="node"><title>DataSchema</title>
<polygon fill="#f2f2f2" stroke="none" points="747.5,-167.5 747.5,-188.5 836.5,-188.5 836.5,-167.5 747.5,-167.5"/>
<polygon fill="none" stroke="#8c8c8c" points="747.5,-167.5 747.5,-188.5 836.5,-188.5 836.5,-167.5 747.5,-167.5"/>
<text text-anchor="start" x="750.5" y="-175.3" font-family="mono" font-weight="bold" font-size="14.00">DataSchema</text>
</g>
<!-- PropertyAffordance&#45;&gt;DataSchema -->
<g id="edge20" class="edge"><title>PropertyAffordance&#45;&gt;DataSchema</title>
<path fill="none" stroke="black" d="M395.056,-439.401C462.563,-414.91 557.682,-380.247 561.5,-378 646.487,-327.992 730.006,-245.162 768.877,-204.118"/>
<polygon fill="white" stroke="black" points="771.528,-206.408 775.825,-196.723 766.427,-201.615 771.528,-206.408"/>
</g>
<!-- ActionAffordance&#45;&gt;InteractionAffordance -->
<g id="edge21" class="edge"><title>ActionAffordance&#45;&gt;InteractionAffordance</title>
<path fill="none" stroke="black" d="M699.462,-428.952C656.469,-413.954 606.01,-396.352 562.097,-381.034"/>
<polygon fill="white" stroke="black" points="563.137,-377.69 552.542,-377.701 560.831,-384.299 563.137,-377.69"/>
</g>
<!-- ActionAffordance&#45;&gt;DataSchema -->
<g id="edge10" class="edge"><title>ActionAffordance&#45;&gt;DataSchema</title>
<path fill="none" stroke="black" d="M760.34,-428.829C747.31,-414.523 734.315,-396.874 727.5,-378 705.301,-316.518 746.237,-243.037 772.304,-205.054"/>
<polygon fill="black" stroke="black" points="775.343,-206.818 778.246,-196.628 769.622,-202.783 775.343,-206.818"/>
<text text-anchor="start" x="727.5" y="-338.8" font-family="mono" font-size="14.00" fill="#c83500">input</text>
<text text-anchor="middle" x="767.246" y="-200.428" font-family="Times,serif" font-size="14.00">0..1</text>
</g>
<!-- ActionAffordance&#45;&gt;DataSchema -->
<g id="edge11" class="edge"><title>ActionAffordance&#45;&gt;DataSchema</title>
<path fill="none" stroke="black" d="M797.649,-428.96C796.24,-371.824 793.454,-258.792 792.173,-206.815"/>
<polygon fill="black" stroke="black" points="795.669,-206.604 791.924,-196.693 788.671,-206.776 795.669,-206.604"/>
<text text-anchor="start" x="796.5" y="-338.8" font-family="mono" font-size="14.00" fill="#c83500">output</text>
<text text-anchor="middle" x="802.924" y="-200.493" font-family="Times,serif" font-size="14.00">0..1</text>
</g>
<!-- InteractionAffordance&#45;&gt;MultiLanguage -->
<g id="edge13" class="edge"><title>InteractionAffordance&#45;&gt;MultiLanguage</title>
<path fill="none" stroke="black" d="M446.801,-306.708C443.438,-295.72 438.788,-283.878 432.5,-274 414.549,-245.799 386.253,-220.323 364.173,-202.949"/>
<polygon fill="black" stroke="black" points="366.109,-200.023 356.049,-196.698 361.84,-205.57 366.109,-200.023"/>
<text text-anchor="start" x="440.5" y="-277.8" font-family="mono" font-size="14.00" fill="#c83500">titles</text>
<text text-anchor="middle" x="345.049" y="-200.498" font-family="Times,serif" font-size="14.00">0..1</text>
</g>
<!-- InteractionAffordance&#45;&gt;MultiLanguage -->
<g id="edge15" class="edge"><title>InteractionAffordance&#45;&gt;MultiLanguage</title>
<path fill="none" stroke="black" d="M356.213,-314.911C345.309,-308.139 335.598,-299.648 328.5,-289 312.327,-264.741 316.601,-230.265 322.632,-206.511"/>
<polygon fill="black" stroke="black" points="326.043,-207.311 325.365,-196.738 319.302,-205.426 326.043,-207.311"/>
<text text-anchor="start" x="328.5" y="-277.8" font-family="mono" font-size="14.00" fill="#c83500">descriptions</text>
<text text-anchor="middle" x="336.365" y="-200.538" font-family="Times,serif" font-size="14.00">0..1</text>
</g>
<!-- InteractionAffordance&#45;&gt;Form -->
<g id="edge14" class="edge"><title>InteractionAffordance&#45;&gt;Form</title>
<path fill="none" stroke="black" d="M356.21,-318.87C329.66,-311.064 301.401,-301.152 276.5,-289 260.524,-281.204 244.426,-271.774 228.98,-261.757"/>
<polygon fill="black" stroke="black" points="230.745,-258.728 220.471,-256.138 226.888,-264.569 230.745,-258.728"/>
<text text-anchor="start" x="276.5" y="-277.8" font-family="mono" font-size="14.00" fill="#c83500">forms</text>
<text text-anchor="middle" x="209.471" y="-259.938" font-family="Times,serif" font-size="14.00">1..*</text>
</g>
<!-- InteractionAffordance&#45;&gt;DataSchema -->
<g id="edge12" class="edge"><title>InteractionAffordance&#45;&gt;DataSchema</title>
<path fill="none" stroke="black" d="M488.896,-306.965C501.785,-295.364 517.063,-283.078 532.5,-274 595.229,-237.11 674.802,-210.707 729.086,-195.345"/>
<polygon fill="black" stroke="black" points="730.224,-198.661 738.918,-192.605 728.345,-191.918 730.224,-198.661"/>
<text text-anchor="start" x="532.5" y="-277.8" font-family="mono" font-size="14.00" fill="#c83500">uriVariables</text>
<text text-anchor="middle" x="727.918" y="-196.405" font-family="Times,serif" font-size="14.00">0..1</text>
</g>
<!-- EventAffordance&#45;&gt;InteractionAffordance -->
<g id="edge22" class="edge"><title>EventAffordance&#45;&gt;InteractionAffordance</title>
<path fill="none" stroke="black" d="M977.343,-446.473C963.008,-440.254 946.22,-433.62 930.5,-429 863.283,-409.246 681.417,-378.912 562.946,-360.187"/>
<polygon fill="white" stroke="black" points="563.176,-356.681 552.753,-358.58 562.086,-363.595 563.176,-356.681"/>
</g>
<!-- EventAffordance&#45;&gt;DataSchema -->
<g id="edge16" class="edge"><title>EventAffordance&#45;&gt;DataSchema</title>
<path fill="none" stroke="black" d="M1023.78,-446.222C1033.11,-429.453 1046.21,-402.947 1051.5,-378 1061.35,-331.596 1064.93,-303.138 1027.5,-274 975.749,-233.716 904.563,-208.359 853.94,-194.172"/>
<polygon fill="black" stroke="black" points="854.67,-190.744 844.101,-191.483 852.824,-197.496 854.67,-190.744"/>
<text text-anchor="start" x="1058.5" y="-338.8" font-family="mono" font-size="14.00" fill="#c83500">cancellation</text>
<text text-anchor="middle" x="855.101" y="-195.283" font-family="Times,serif" font-size="14.00">0..1</text>
</g>
<!-- EventAffordance&#45;&gt;DataSchema -->
<g id="edge17" class="edge"><title>EventAffordance&#45;&gt;DataSchema</title>
<path fill="none" stroke="black" d="M980.59,-446.452C953.903,-431.33 916.71,-407.148 891.5,-378 879.223,-363.806 827.862,-256.564 803.904,-205.882"/>
<polygon fill="black" stroke="black" points="806.931,-204.094 799.498,-196.544 800.6,-207.082 806.931,-204.094"/>
<text text-anchor="start" x="891.5" y="-338.8" font-family="mono" font-size="14.00" fill="#c83500">subscription</text>
<text text-anchor="middle" x="788.498" y="-200.344" font-family="Times,serif" font-size="14.00">0..1</text>
</g>
<!-- EventAffordance&#45;&gt;DataSchema -->
<g id="edge18" class="edge"><title>EventAffordance&#45;&gt;DataSchema</title>
<path fill="none" stroke="black" d="M1012.87,-446.288C1011.29,-410.562 1006.15,-329.789 991.5,-307 958.267,-255.318 895.824,-220.566 849.515,-200.567"/>
<polygon fill="black" stroke="black" points="850.763,-197.295 840.188,-196.643 848.048,-203.747 850.763,-197.295"/>
<text text-anchor="start" x="1008.5" y="-338.8" font-family="mono" font-size="14.00" fill="#c83500">data</text>
<text text-anchor="middle" x="829.188" y="-200.443" font-family="Times,serif" font-size="14.00">0..1</text>
</g>
</g>
</svg>
