<?xml version="1.0" encoding="UTF-8" standalone="no"?>
<!DOCTYPE svg PUBLIC "-//W3C//DTD SVG 1.1//EN"
 "http://www.w3.org/Graphics/SVG/1.1/DTD/svg11.dtd">
<!-- Generated by graphviz version 4.0.0 (20220529.0937)
 -->
<!-- Pages: 1 -->
<svg width="1574pt" height="620pt"
 viewBox="0.00 0.00 1573.92 620.00" xmlns="http://www.w3.org/2000/svg" xmlns:xlink="http://www.w3.org/1999/xlink">
<g id="graph0" class="graph" transform="scale(1 1) rotate(0) translate(4 616)">
<polygon fill="white" stroke="transparent" points="-4,4 -4,-616 1569.92,-616 1569.92,4 -4,4"/>
<!-- ActionAffordance -->
<g id="node1" class="node">
<title>ActionAffordance</title>
<polygon fill="#8ccbf2" stroke="transparent" points="568.92,-276 568.92,-297 734.92,-297 734.92,-276 568.92,-276"/>
<polygon fill="none" stroke="#8ccbf2" points="568.92,-276 568.92,-297 734.92,-297 734.92,-276 568.92,-276"/>
<text text-anchor="start" x="585.42" y="-283.8" font-family="mono" font-weight="bold" font-size="14.00" fill="#c83500">ActionAffordance</text>
<polygon fill="#ddeeff" stroke="transparent" points="568.92,-255 568.92,-276 734.92,-276 734.92,-255 568.92,-255"/>
<polygon fill="none" stroke="#8ccbf2" points="568.92,-255 568.92,-276 734.92,-276 734.92,-255 568.92,-255"/>
<text text-anchor="start" x="571.92" y="-262.8" font-family="mono" font-size="14.00" fill="#c83500">safe</text>
<text text-anchor="start" x="605.92" y="-262.8" font-family="Times New Roman,serif" font-size="14.00"> : </text>
<text text-anchor="start" x="616.92" y="-262.8" font-family="mono" font-size="14.00" fill="#c83500">boolean</text>
<polygon fill="#ddeeff" stroke="transparent" points="568.92,-234 568.92,-255 734.92,-255 734.92,-234 568.92,-234"/>
<polygon fill="none" stroke="#8ccbf2" points="568.92,-234 568.92,-255 734.92,-255 734.92,-234 568.92,-234"/>
<text text-anchor="start" x="571.92" y="-241.8" font-family="mono" font-size="14.00" fill="#c83500">idempotent</text>
<text text-anchor="start" x="654.92" y="-241.8" font-family="Times New Roman,serif" font-size="14.00"> : </text>
<text text-anchor="start" x="665.92" y="-241.8" font-family="mono" font-size="14.00" fill="#c83500">boolean</text>
<polygon fill="#ddeeff" stroke="transparent" points="568.92,-213 568.92,-234 734.92,-234 734.92,-213 568.92,-213"/>
<polygon fill="none" stroke="#8ccbf2" points="568.92,-213 568.92,-234 734.92,-234 734.92,-213 568.92,-213"/>
<text text-anchor="start" x="571.92" y="-220.8" font-family="mono" font-size="14.00" fill="#c83500">synchronous</text>
<text text-anchor="start" x="662.92" y="-220.8" font-family="Times New Roman,serif" font-size="14.00"> : </text>
<text text-anchor="start" x="673.92" y="-220.8" font-family="mono" font-size="14.00" fill="#c83500">boolean</text>
</g>
<!-- InteractionAffordance -->
<g id="node3" class="node">
<title>InteractionAffordance</title>
<polygon fill="#8ccbf2" stroke="transparent" points="801.92,-132.5 801.92,-153.5 981.92,-153.5 981.92,-132.5 801.92,-132.5"/>
<polygon fill="none" stroke="#8ccbf2" points="801.92,-132.5 801.92,-153.5 981.92,-153.5 981.92,-132.5 801.92,-132.5"/>
<text text-anchor="start" x="804.92" y="-140.3" font-family="mono" font-weight="bold" font-size="14.00" fill="#c83500">InteractionAffordance</text>
<polygon fill="#ddeeff" stroke="transparent" points="801.92,-111.5 801.92,-132.5 981.92,-132.5 981.92,-111.5 801.92,-111.5"/>
<polygon fill="none" stroke="#8ccbf2" points="801.92,-111.5 801.92,-132.5 981.92,-132.5 981.92,-111.5 801.92,-111.5"/>
<text text-anchor="start" x="804.92" y="-119.3" font-family="mono" font-size="14.00" fill="#c83500">title</text>
<text text-anchor="start" x="846.92" y="-119.3" font-family="Times New Roman,serif" font-size="14.00"> : </text>
<text text-anchor="start" x="857.92" y="-119.3" font-family="mono" font-size="14.00" fill="#c83500">string</text>
<polygon fill="#ddeeff" stroke="transparent" points="801.92,-90.5 801.92,-111.5 981.92,-111.5 981.92,-90.5 801.92,-90.5"/>
<polygon fill="none" stroke="#8ccbf2" points="801.92,-90.5 801.92,-111.5 981.92,-111.5 981.92,-90.5 801.92,-90.5"/>
<text text-anchor="start" x="804.92" y="-98.3" font-family="mono" font-size="14.00" fill="#c83500">description</text>
<text text-anchor="start" x="895.92" y="-98.3" font-family="Times New Roman,serif" font-size="14.00"> : </text>
<text text-anchor="start" x="906.92" y="-98.3" font-family="mono" font-size="14.00" fill="#c83500">string</text>
</g>
<!-- ActionAffordance&#45;&gt;InteractionAffordance -->
<g id="edge22" class="edge">
<title>ActionAffordance&#45;&gt;InteractionAffordance</title>
<path fill="none" stroke="black" d="M734.85,-208.91C762.36,-193.95 792.75,-177.42 819.42,-162.92"/>
<polygon fill="white" stroke="black" points="821.19,-165.94 828.3,-158.09 817.85,-159.79 821.19,-165.94"/>
</g>
<!-- DataSchema -->
<g id="node10" class="node">
<title>DataSchema</title>
<polygon fill="#f2f2f2" stroke="transparent" points="429.92,-7 429.92,-28 518.92,-28 518.92,-7 429.92,-7"/>
<polygon fill="none" stroke="#8c8c8c" points="429.92,-7 429.92,-28 518.92,-28 518.92,-7 429.92,-7"/>
<text text-anchor="start" x="432.92" y="-14.8" font-family="mono" font-weight="bold" font-size="14.00">DataSchema</text>
</g>
<!-- ActionAffordance&#45;&gt;DataSchema -->
<g id="edge5" class="edge">
<title>ActionAffordance&#45;&gt;DataSchema</title>
<path fill="none" stroke="black" d="M682.93,-208.71C702.36,-174.33 720.5,-126.42 701.92,-87 692.09,-66.15 682.8,-63.75 661.92,-54 622.74,-35.7 574.76,-26.96 537.07,-22.79"/>
<polygon fill="black" stroke="black" points="537.04,-19.27 526.74,-21.73 536.33,-26.23 537.04,-19.27"/>
<text text-anchor="start" x="709.92" y="-118.8" font-family="mono" font-size="14.00" fill="#c83500">input</text>
<text text-anchor="middle" x="537.74" y="-25.53" font-family="Times New Roman,serif" font-size="14.00">0..1</text>
</g>
<!-- ActionAffordance&#45;&gt;DataSchema -->
<g id="edge6" class="edge">
<title>ActionAffordance&#45;&gt;DataSchema</title>
<path fill="none" stroke="black" d="M649.41,-208.86C645.58,-156.89 636.44,-75.87 615.92,-54 604.82,-42.17 569.42,-33.43 536.75,-27.64"/>
<polygon fill="black" stroke="black" points="537.17,-24.16 526.72,-25.94 536,-31.07 537.17,-24.16"/>
<text text-anchor="start" x="644.92" y="-118.8" font-family="mono" font-size="14.00" fill="#c83500">output</text>
<text text-anchor="middle" x="537.72" y="-14.74" font-family="Times New Roman,serif" font-size="14.00">0..1</text>
</g>
<!-- EventAffordance -->
<g id="node2" class="node">
<title>EventAffordance</title>
<polygon fill="#8ccbf2" stroke="transparent" points="304.92,-244 304.92,-265 434.92,-265 434.92,-244 304.92,-244"/>
<polygon fill="none" stroke="#8ccbf2" points="304.92,-244 304.92,-265 434.92,-265 434.92,-244 304.92,-244"/>
<text text-anchor="start" x="307.92" y="-251.8" font-family="mono" font-weight="bold" font-size="14.00" fill="#c83500">EventAffordance</text>
</g>
<!-- EventAffordance&#45;&gt;InteractionAffordance -->
<g id="edge23" class="edge">
<title>EventAffordance&#45;&gt;InteractionAffordance</title>
<path fill="none" stroke="black" d="M436.78,-236.9C471.13,-228.26 513.69,-217.77 551.92,-209 589.56,-200.36 599.21,-199.34 636.92,-191 700.6,-176.91 716.93,-174.95 779.92,-158 781.19,-157.66 782.47,-157.31 783.75,-156.96"/>
<polygon fill="white" stroke="black" points="785,-160.25 793.7,-154.19 783.13,-153.5 785,-160.25"/>
</g>
<!-- EventAffordance&#45;&gt;DataSchema -->
<g id="edge7" class="edge">
<title>EventAffordance&#45;&gt;DataSchema</title>
<path fill="none" stroke="black" d="M296.71,-243.86C244.98,-232.46 179.17,-208.42 145.92,-158 128.55,-131.66 127.15,-112.36 145.92,-87 176.88,-45.17 324.86,-28.59 411.11,-22.4"/>
<polygon fill="black" stroke="black" points="411.58,-25.88 421.31,-21.7 411.1,-18.9 411.58,-25.88"/>
<text text-anchor="start" x="145.92" y="-118.8" font-family="mono" font-size="14.00" fill="#c83500">subscription</text>
<text text-anchor="middle" x="410.31" y="-10.5" font-family="Times New Roman,serif" font-size="14.00">0..1</text>
</g>
<!-- EventAffordance&#45;&gt;DataSchema -->
<g id="edge8" class="edge">
<title>EventAffordance&#45;&gt;DataSchema</title>
<path fill="none" stroke="black" d="M346.39,-236.88C324.97,-219.69 294.79,-191.08 281.92,-158 270.48,-128.59 268.12,-115.38 281.92,-87 304.6,-40.33 364.36,-24.82 411.24,-20.08"/>
<polygon fill="black" stroke="black" points="411.67,-23.56 421.33,-19.21 411.07,-16.59 411.67,-23.56"/>
<text text-anchor="start" x="281.92" y="-118.8" font-family="mono" font-size="14.00" fill="#c83500">data</text>
<text text-anchor="middle" x="410.33" y="-23.01" font-family="Times New Roman,serif" font-size="14.00">0..1</text>
</g>
<!-- EventAffordance&#45;&gt;DataSchema -->
<g id="edge9" class="edge">
<title>EventAffordance&#45;&gt;DataSchema</title>
<path fill="none" stroke="black" d="M361.79,-236.96C347.86,-205.08 323.56,-135.28 351.92,-87 365.14,-64.49 388.82,-48.89 411.82,-38.36"/>
<polygon fill="black" stroke="black" points="413.46,-41.47 421.26,-34.29 410.69,-35.04 413.46,-41.47"/>
<text text-anchor="start" x="351.92" y="-118.8" font-family="mono" font-size="14.00" fill="#c83500">dataResponse</text>
<text text-anchor="middle" x="410.26" y="-38.09" font-family="Times New Roman,serif" font-size="14.00">0..1</text>
</g>
<!-- EventAffordance&#45;&gt;DataSchema -->
<g id="edge10" class="edge">
<title>EventAffordance&#45;&gt;DataSchema</title>
<path fill="none" stroke="black" d="M390.03,-236.73C409.23,-219.02 437.33,-189.65 451.92,-158 468.61,-121.8 472.96,-75.28 473.92,-46.3"/>
<polygon fill="black" stroke="black" points="477.42,-46.19 474.14,-36.11 470.43,-46.03 477.42,-46.19"/>
<text text-anchor="start" x="470.92" y="-118.8" font-family="mono" font-size="14.00" fill="#c83500">cancellation</text>
<text text-anchor="middle" x="463.14" y="-39.91" font-family="Times New Roman,serif" font-size="14.00">0..1</text>
</g>
<!-- MultiLanguage -->
<g id="node4" class="node">
<title>MultiLanguage</title>
<polygon fill="#8ccbf2" stroke="transparent" points="1136.92,-7 1136.92,-28 1250.92,-28 1250.92,-7 1136.92,-7"/>
<polygon fill="none" stroke="#8ccbf2" points="1136.92,-7 1136.92,-28 1250.92,-28 1250.92,-7 1136.92,-7"/>
<text text-anchor="start" x="1139.92" y="-14.8" font-family="mono" font-weight="bold" font-size="14.00" fill="#c83500">MultiLanguage</text>
</g>
<!-- InteractionAffordance&#45;&gt;MultiLanguage -->
<g id="edge12" class="edge">
<title>InteractionAffordance&#45;&gt;MultiLanguage</title>
<path fill="none" stroke="black" d="M945.75,-86.94C966.4,-74.99 990.6,-62.48 1013.92,-54 1047.4,-41.83 1086.02,-33.61 1118.87,-28.21"/>
<polygon fill="black" stroke="black" points="1119.54,-31.65 1128.87,-26.63 1118.44,-24.74 1119.54,-31.65"/>
<text text-anchor="start" x="1013.92" y="-57.8" font-family="mono" font-size="14.00" fill="#c83500">titles</text>
<text text-anchor="middle" x="1117.87" y="-30.43" font-family="Times New Roman,serif" font-size="14.00">0..*</text>
</g>
<!-- InteractionAffordance&#45;&gt;MultiLanguage -->
<g id="edge14" class="edge">
<title>InteractionAffordance&#45;&gt;MultiLanguage</title>
<path fill="none" stroke="black" d="M990.09,-92.85C1014.33,-85.41 1040.15,-77.18 1063.92,-69 1089.94,-60.04 1118.52,-49.16 1142.24,-39.84"/>
<polygon fill="black" stroke="black" points="1143.73,-43.02 1151.75,-36.09 1141.16,-36.51 1143.73,-43.02"/>
<text text-anchor="start" x="1103.92" y="-57.8" font-family="mono" font-size="14.00" fill="#c83500">descriptions</text>
<text text-anchor="middle" x="1140.75" y="-39.89" font-family="Times New Roman,serif" font-size="14.00">0..*</text>
</g>
<!-- Form -->
<g id="node8" class="node">
<title>Form</title>
<polygon fill="#f2f2f2" stroke="transparent" points="970.92,-7 970.92,-28 1010.92,-28 1010.92,-7 970.92,-7"/>
<polygon fill="none" stroke="#8c8c8c" points="970.92,-7 970.92,-28 1010.92,-28 1010.92,-7 970.92,-7"/>
<text text-anchor="start" x="973.92" y="-14.8" font-family="mono" font-weight="bold" font-size="14.00">Form</text>
</g>
<!-- InteractionAffordance&#45;&gt;Form -->
<g id="edge1" class="edge">
<title>InteractionAffordance&#45;&gt;Form</title>
<path fill="none" stroke="black" d="M908.62,-86.94C915.16,-75.6 923.4,-63.49 932.92,-54 939.08,-47.85 946.53,-42.33 954.01,-37.59"/>
<polygon fill="black" stroke="black" points="955.93,-40.53 962.72,-32.4 952.34,-34.51 955.93,-40.53"/>
<text text-anchor="start" x="932.92" y="-57.8" font-family="mono" font-size="14.00" fill="#c83500">forms</text>
<text text-anchor="middle" x="951.72" y="-36.2" font-family="Times New Roman,serif" font-size="14.00">1..*</text>
</g>
<!-- InteractionAffordance&#45;&gt;DataSchema -->
<g id="edge18" class="edge">
<title>InteractionAffordance&#45;&gt;DataSchema</title>
<path fill="none" stroke="black" d="M829.07,-86.84C804.43,-74.65 775.49,-62.01 747.92,-54 677.36,-33.5 593.11,-25.01 536.84,-21.48"/>
<polygon fill="black" stroke="black" points="536.85,-17.98 526.66,-20.88 536.44,-24.97 536.85,-17.98"/>
<text text-anchor="start" x="789.92" y="-57.8" font-family="mono" font-size="14.00" fill="#c83500">uriVariables</text>
<text text-anchor="middle" x="537.66" y="-9.68" font-family="Times New Roman,serif" font-size="14.00">0..*</text>
</g>
<!-- PropertyAffordance -->
<g id="node5" class="node">
<title>PropertyAffordance</title>
<polygon fill="#8ccbf2" stroke="transparent" points="768.92,-255 768.92,-276 926.92,-276 926.92,-255 768.92,-255"/>
<polygon fill="none" stroke="#8ccbf2" points="768.92,-255 768.92,-276 926.92,-276 926.92,-255 768.92,-255"/>
<text text-anchor="start" x="773.42" y="-262.8" font-family="mono" font-weight="bold" font-size="14.00" fill="#c83500">PropertyAffordance</text>
<polygon fill="#ddeeff" stroke="transparent" points="768.92,-234 768.92,-255 926.92,-255 926.92,-234 768.92,-234"/>
<polygon fill="none" stroke="#8ccbf2" points="768.92,-234 768.92,-255 926.92,-255 926.92,-234 768.92,-234"/>
<text text-anchor="start" x="771.92" y="-241.8" font-family="mono" font-size="14.00" fill="#c83500">observable</text>
<text text-anchor="start" x="854.92" y="-241.8" font-family="Times New Roman,serif" font-size="14.00"> : </text>
<text text-anchor="start" x="865.92" y="-241.8" font-family="mono" font-size="14.00" fill="#c83500">boolean</text>
</g>
<!-- PropertyAffordance&#45;&gt;InteractionAffordance -->
<g id="edge24" class="edge">
<title>PropertyAffordance&#45;&gt;InteractionAffordance</title>
<path fill="none" stroke="black" d="M856.09,-229.76C861.93,-212.45 869.94,-188.67 876.92,-167.99"/>
<polygon fill="white" stroke="black" points="880.26,-169.03 880.14,-158.44 873.63,-166.8 880.26,-169.03"/>
</g>
<!-- Thing -->
<g id="node6" class="node">
<title>Thing</title>
<polygon fill="#8ccbf2" stroke="transparent" points="931.92,-587 931.92,-608 1202.92,-608 1202.92,-587 931.92,-587"/>
<polygon fill="none" stroke="#8ccbf2" points="931.92,-587 931.92,-608 1202.92,-608 1202.92,-587 931.92,-587"/>
<text text-anchor="start" x="1046.42" y="-594.8" font-family="mono" font-weight="bold" font-size="14.00" fill="#c83500">Thing</text>
<polygon fill="#ddeeff" stroke="transparent" points="931.92,-566 931.92,-587 1202.92,-587 1202.92,-566 931.92,-566"/>
<polygon fill="none" stroke="#8ccbf2" points="931.92,-566 931.92,-587 1202.92,-587 1202.92,-566 931.92,-566"/>
<text text-anchor="start" x="934.92" y="-573.8" font-family="mono" font-size="14.00" fill="#c83500">@context</text>
<text text-anchor="start" x="1001.92" y="-573.8" font-family="Times New Roman,serif" font-size="14.00"> : </text>
<text text-anchor="start" x="1012.92" y="-573.8" font-family="mono" font-style="italic" font-size="14.00" fill="#c83500">anyURI</text>
<text text-anchor="start" x="1062.92" y="-573.8" font-family="Times New Roman,serif" font-style="italic" font-size="14.00"> or Array</text>
<text text-anchor="start" x="1114.92" y="-573.8" font-family="Times New Roman,serif" font-size="14.00"> </text>
<text text-anchor="start" x="1118.92" y="-573.8" font-family="Times New Roman,serif" font-style="italic" font-size="14.00">(mandatory)</text>
<polygon fill="#ddeeff" stroke="transparent" points="931.92,-545 931.92,-566 1202.92,-566 1202.92,-545 931.92,-545"/>
<polygon fill="none" stroke="#8ccbf2" points="931.92,-545 931.92,-566 1202.92,-566 1202.92,-545 931.92,-545"/>
<text text-anchor="start" x="934.92" y="-552.8" font-family="mono" font-size="14.00" fill="#c83500">@type</text>
<text text-anchor="start" x="976.92" y="-552.8" font-family="Times New Roman,serif" font-size="14.00"> : </text>
<text text-anchor="start" x="987.92" y="-552.8" font-family="Times New Roman,serif" font-style="italic" font-size="14.00">(Array of) </text>
<text text-anchor="start" x="1048.92" y="-552.8" font-family="mono" font-size="14.00" fill="#c83500">string</text>
<polygon fill="#ddeeff" stroke="transparent" points="931.92,-524 931.92,-545 1202.92,-545 1202.92,-524 931.92,-524"/>
<polygon fill="none" stroke="#8ccbf2" points="931.92,-524 931.92,-545 1202.92,-545 1202.92,-524 931.92,-524"/>
<text text-anchor="start" x="934.92" y="-531.8" font-family="mono" font-size="14.00" fill="#c83500">id</text>
<text text-anchor="start" x="951.92" y="-531.8" font-family="Times New Roman,serif" font-size="14.00"> : </text>
<text text-anchor="start" x="962.92" y="-531.8" font-family="mono" font-size="14.00" fill="#c83500">anyURI</text>
<text text-anchor="start" x="1012.92" y="-531.8" font-family="Times New Roman,serif" font-size="14.00"> </text>
<text text-anchor="start" x="1016.92" y="-531.8" font-family="Times New Roman,serif" font-style="italic" font-size="14.00">(mandatory)</text>
<polygon fill="#ddeeff" stroke="transparent" points="931.92,-503 931.92,-524 1202.92,-524 1202.92,-503 931.92,-503"/>
<polygon fill="none" stroke="#8ccbf2" points="931.92,-503 931.92,-524 1202.92,-524 1202.92,-503 931.92,-503"/>
<text text-anchor="start" x="934.92" y="-510.8" font-family="mono" font-size="14.00" fill="#c83500">title</text>
<text text-anchor="start" x="976.92" y="-510.8" font-family="Times New Roman,serif" font-size="14.00"> : </text>
<text text-anchor="start" x="987.92" y="-510.8" font-family="mono" font-size="14.00" fill="#c83500">string</text>
<text text-anchor="start" x="1037.92" y="-510.8" font-family="Times New Roman,serif" font-size="14.00"> </text>
<text text-anchor="start" x="1041.92" y="-510.8" font-family="Times New Roman,serif" font-style="italic" font-size="14.00">(mandatory)</text>
<polygon fill="#ddeeff" stroke="transparent" points="931.92,-482 931.92,-503 1202.92,-503 1202.92,-482 931.92,-482"/>
<polygon fill="none" stroke="#8ccbf2" points="931.92,-482 931.92,-503 1202.92,-503 1202.92,-482 931.92,-482"/>
<text text-anchor="start" x="934.92" y="-489.8" font-family="mono" font-size="14.00" fill="#c83500">security</text>
<text text-anchor="start" x="1001.92" y="-489.8" font-family="Times New Roman,serif" font-size="14.00"> : (Array of) </text>
<text text-anchor="start" x="1072.92" y="-489.8" font-family="mono" font-size="14.00" fill="#c83500">string</text>
<text text-anchor="start" x="1122.92" y="-489.8" font-family="Times New Roman,serif" font-size="14.00"> </text>
<text text-anchor="start" x="1126.92" y="-489.8" font-family="Times New Roman,serif" font-style="italic" font-size="14.00">(mandatory)</text>
<polygon fill="#ddeeff" stroke="transparent" points="931.92,-461 931.92,-482 1202.92,-482 1202.92,-461 931.92,-461"/>
<polygon fill="none" stroke="#8ccbf2" points="931.92,-461 931.92,-482 1202.92,-482 1202.92,-461 931.92,-461"/>
<text text-anchor="start" x="934.92" y="-468.8" font-family="mono" font-size="14.00" fill="#c83500">description</text>
<text text-anchor="start" x="1025.92" y="-468.8" font-family="Times New Roman,serif" font-size="14.00"> : </text>
<text text-anchor="start" x="1036.92" y="-468.8" font-family="mono" font-size="14.00" fill="#c83500">string</text>
<polygon fill="#ddeeff" stroke="transparent" points="931.92,-440 931.92,-461 1202.92,-461 1202.92,-440 931.92,-440"/>
<polygon fill="none" stroke="#8ccbf2" points="931.92,-440 931.92,-461 1202.92,-461 1202.92,-440 931.92,-440"/>
<text text-anchor="start" x="934.92" y="-447.8" font-family="mono" font-size="14.00" fill="#c83500">profile</text>
<text text-anchor="start" x="992.92" y="-447.8" font-family="Times New Roman,serif" font-size="14.00"> : (Array of) </text>
<text text-anchor="start" x="1063.92" y="-447.8" font-family="mono" font-size="14.00" fill="#c83500">anyURI</text>
<polygon fill="#ddeeff" stroke="transparent" points="931.92,-419 931.92,-440 1202.92,-440 1202.92,-419 931.92,-419"/>
<polygon fill="none" stroke="#8ccbf2" points="931.92,-419 931.92,-440 1202.92,-440 1202.92,-419 931.92,-419"/>
<text text-anchor="start" x="934.92" y="-426.8" font-family="mono" font-size="14.00" fill="#c83500">created</text>
<text text-anchor="start" x="992.92" y="-426.8" font-family="Times New Roman,serif" font-size="14.00"> : </text>
<text text-anchor="start" x="1003.92" y="-426.8" font-family="mono" font-size="14.00" fill="#c83500">dateTime</text>
<polygon fill="#ddeeff" stroke="transparent" points="931.92,-398 931.92,-419 1202.92,-419 1202.92,-398 931.92,-398"/>
<polygon fill="none" stroke="#8ccbf2" points="931.92,-398 931.92,-419 1202.92,-419 1202.92,-398 931.92,-398"/>
<text text-anchor="start" x="934.92" y="-405.8" font-family="mono" font-size="14.00" fill="#c83500">modified</text>
<text text-anchor="start" x="1001.92" y="-405.8" font-family="Times New Roman,serif" font-size="14.00"> : </text>
<text text-anchor="start" x="1012.92" y="-405.8" font-family="mono" font-size="14.00" fill="#c83500">dateTime</text>
<polygon fill="#ddeeff" stroke="transparent" points="931.92,-377 931.92,-398 1202.92,-398 1202.92,-377 931.92,-377"/>
<polygon fill="none" stroke="#8ccbf2" points="931.92,-377 931.92,-398 1202.92,-398 1202.92,-377 931.92,-377"/>
<text text-anchor="start" x="934.92" y="-384.8" font-family="mono" font-size="14.00" fill="#c83500">support</text>
<text text-anchor="start" x="992.92" y="-384.8" font-family="Times New Roman,serif" font-size="14.00"> : </text>
<text text-anchor="start" x="1003.92" y="-384.8" font-family="mono" font-size="14.00" fill="#c83500">anyURI</text>
<polygon fill="#ddeeff" stroke="transparent" points="931.92,-356 931.92,-377 1202.92,-377 1202.92,-356 931.92,-356"/>
<polygon fill="none" stroke="#8ccbf2" points="931.92,-356 931.92,-377 1202.92,-377 1202.92,-356 931.92,-356"/>
<text text-anchor="start" x="934.92" y="-363.8" font-family="mono" font-size="14.00" fill="#c83500">base</text>
<text text-anchor="start" x="968.92" y="-363.8" font-family="Times New Roman,serif" font-size="14.00"> : </text>
<text text-anchor="start" x="979.92" y="-363.8" font-family="mono" font-size="14.00" fill="#c83500">anyURI</text>
</g>
<!-- Thing&#45;&gt;ActionAffordance -->
<g id="edge20" class="edge">
<title>Thing&#45;&gt;ActionAffordance</title>
<path fill="none" stroke="black" d="M923.23,-403.1C863.78,-370.87 796.6,-334.44 743.96,-305.9"/>
<polygon fill="black" stroke="black" points="745.44,-302.72 734.98,-301.03 742.1,-308.87 745.44,-302.72"/>
<text text-anchor="start" x="786.92" y="-322.8" font-family="mono" font-size="14.00" fill="#c83500">actions</text>
<text text-anchor="middle" x="723.98" y="-304.83" font-family="Times New Roman,serif" font-size="14.00">0..*</text>
</g>
<!-- Thing&#45;&gt;EventAffordance -->
<g id="edge21" class="edge">
<title>Thing&#45;&gt;EventAffordance</title>
<path fill="none" stroke="black" d="M923.33,-463.23C798.39,-443.75 614.95,-405.29 468.92,-334 440.87,-320.31 413.35,-297.66 394.47,-280.29"/>
<polygon fill="black" stroke="black" points="396.62,-277.5 386.93,-273.21 391.82,-282.61 396.62,-277.5"/>
<text text-anchor="start" x="468.92" y="-322.8" font-family="mono" font-size="14.00" fill="#c83500">events</text>
<text text-anchor="middle" x="375.93" y="-277.01" font-family="Times New Roman,serif" font-size="14.00">0..*</text>
</g>
<!-- Thing&#45;&gt;MultiLanguage -->
<g id="edge13" class="edge">
<title>Thing&#45;&gt;MultiLanguage</title>
<path fill="none" stroke="black" d="M1210.55,-412.89C1250.58,-384.96 1287.17,-347.95 1301.92,-301 1332.29,-204.31 1255.2,-92.84 1215.63,-44.05"/>
<polygon fill="black" stroke="black" points="1218.24,-41.71 1209.17,-36.23 1212.84,-46.17 1218.24,-41.71"/>
<text text-anchor="start" x="1298.92" y="-179.8" font-family="mono" font-size="14.00" fill="#c83500">titles</text>
<text text-anchor="middle" x="1198.17" y="-40.03" font-family="Times New Roman,serif" font-size="14.00">0..*</text>
</g>
<!-- Thing&#45;&gt;MultiLanguage -->
<g id="edge15" class="edge">
<title>Thing&#45;&gt;MultiLanguage</title>
<path fill="none" stroke="black" d="M1210.52,-411.2C1244.51,-389.87 1278.52,-363.98 1304.92,-334 1328.92,-306.75 1347.32,-229.17 1352.92,-191 1362.97,-122.49 1289.31,-69.02 1238.85,-40.9"/>
<polygon fill="black" stroke="black" points="1240.49,-37.81 1230.03,-36.11 1237.15,-43.96 1240.49,-37.81"/>
<text text-anchor="start" x="1353.92" y="-179.8" font-family="mono" font-size="14.00" fill="#c83500">descriptions</text>
<text text-anchor="middle" x="1241.03" y="-39.91" font-family="Times New Roman,serif" font-size="14.00">0..*</text>
</g>
<!-- Thing&#45;&gt;PropertyAffordance -->
<g id="edge19" class="edge">
<title>Thing&#45;&gt;PropertyAffordance</title>
<path fill="none" stroke="black" d="M941.11,-351.75C917.96,-327.97 895.81,-305.21 878.92,-287.85"/>
<polygon fill="black" stroke="black" points="881.02,-284.99 871.54,-280.27 876.01,-289.88 881.02,-284.99"/>
<text text-anchor="start" x="918.92" y="-322.8" font-family="mono" font-size="14.00" fill="#c83500">properties</text>
<text text-anchor="middle" x="860.54" y="-284.07" font-family="Times New Roman,serif" font-size="14.00">0..*</text>
</g>
<!-- VersionInfo -->
<g id="node7" class="node">
<title>VersionInfo</title>
<polygon fill="#8ccbf2" stroke="transparent" points="961.92,-265 961.92,-286 1172.92,-286 1172.92,-265 961.92,-265"/>
<polygon fill="none" stroke="#8ccbf2" points="961.92,-265 961.92,-286 1172.92,-286 1172.92,-265 961.92,-265"/>
<text text-anchor="start" x="1021.92" y="-272.8" font-family="mono" font-weight="bold" font-size="14.00" fill="#c83500">VersionInfo</text>
<polygon fill="#ddeeff" stroke="transparent" points="961.92,-244 961.92,-265 1172.92,-265 1172.92,-244 961.92,-244"/>
<polygon fill="none" stroke="#8ccbf2" points="961.92,-244 961.92,-265 1172.92,-265 1172.92,-244 961.92,-244"/>
<text text-anchor="start" x="964.92" y="-251.8" font-family="mono" font-size="14.00" fill="#c83500">instance</text>
<text text-anchor="start" x="1031.92" y="-251.8" font-family="Times New Roman,serif" font-size="14.00"> : </text>
<text text-anchor="start" x="1042.92" y="-251.8" font-family="mono" font-size="14.00" fill="#c83500">string</text>
<text text-anchor="start" x="1092.92" y="-251.8" font-family="Times New Roman,serif" font-size="14.00"> </text>
<text text-anchor="start" x="1096.92" y="-251.8" font-family="Times New Roman,serif" font-style="italic" font-size="14.00">(mandatory)</text>
<polygon fill="#ddeeff" stroke="transparent" points="961.92,-223 961.92,-244 1172.92,-244 1172.92,-223 961.92,-223"/>
<polygon fill="none" stroke="#8ccbf2" points="961.92,-223 961.92,-244 1172.92,-244 1172.92,-223 961.92,-223"/>
<text text-anchor="start" x="964.92" y="-230.8" font-family="mono" font-size="14.00" fill="#c83500">model</text>
<text text-anchor="start" x="1006.92" y="-230.8" font-family="Times New Roman,serif" font-size="14.00"> : </text>
<text text-anchor="start" x="1017.92" y="-230.8" font-family="mono" font-size="14.00" fill="#c83500">string</text>
</g>
<!-- Thing&#45;&gt;VersionInfo -->
<g id="edge4" class="edge">
<title>Thing&#45;&gt;VersionInfo</title>
<path fill="none" stroke="black" d="M1066.92,-351.75C1066.92,-333.44 1066.92,-315.75 1066.92,-300.65"/>
<polygon fill="black" stroke="black" points="1070.42,-300.64 1066.92,-290.64 1063.42,-300.64 1070.42,-300.64"/>
<text text-anchor="start" x="1066.92" y="-322.8" font-family="mono" font-size="14.00" fill="#c83500">version</text>
<text text-anchor="middle" x="1055.92" y="-294.44" font-family="Times New Roman,serif" font-size="14.00">0..1</text>
</g>
<!-- Thing&#45;&gt;Form -->
<g id="edge3" class="edge">
<title>Thing&#45;&gt;Form</title>
<path fill="none" stroke="black" d="M1162.89,-351.89C1218.79,-259.78 1265.63,-137.87 1194.92,-54 1189.6,-47.7 1087.01,-32.44 1029.39,-24.31"/>
<polygon fill="black" stroke="black" points="1029.57,-20.8 1019.18,-22.87 1028.6,-27.73 1029.57,-20.8"/>
<text text-anchor="start" x="1229.92" y="-179.8" font-family="mono" font-size="14.00" fill="#c83500">forms</text>
<text text-anchor="middle" x="1030.18" y="-26.67" font-family="Times New Roman,serif" font-size="14.00">0..*</text>
</g>
<!-- Link -->
<g id="node9" class="node">
<title>Link</title>
<polygon fill="#f2f2f2" stroke="transparent" points="1244.92,-244 1244.92,-265 1284.92,-265 1284.92,-244 1244.92,-244"/>
<polygon fill="none" stroke="#8c8c8c" points="1244.92,-244 1244.92,-265 1284.92,-265 1284.92,-244 1244.92,-244"/>
<text text-anchor="start" x="1247.92" y="-251.8" font-family="mono" font-weight="bold" font-size="14.00">Link</text>
</g>
<!-- Thing&#45;&gt;Link -->
<g id="edge2" class="edge">
<title>Thing&#45;&gt;Link</title>
<path fill="none" stroke="black" d="M1208.66,-351.61C1213.61,-345.78 1218.39,-339.9 1222.92,-334 1235.17,-318.03 1245.87,-298.01 1253.4,-282.25"/>
<polygon fill="black" stroke="black" points="1256.63,-283.61 1257.67,-273.06 1250.28,-280.66 1256.63,-283.61"/>
<text text-anchor="start" x="1232.92" y="-322.8" font-family="mono" font-size="14.00" fill="#c83500">links</text>
<text text-anchor="middle" x="1246.67" y="-276.86" font-family="Times New Roman,serif" font-size="14.00">0..*</text>
</g>
<!-- Thing&#45;&gt;DataSchema -->
<g id="edge16" class="edge">
<title>Thing&#45;&gt;DataSchema</title>
<path fill="none" stroke="black" d="M923.41,-464.13C660.35,-429.77 118.52,-341.89 16.92,-191 -79.26,-48.17 264.9,-23.71 411.18,-19.7"/>
<polygon fill="black" stroke="black" points="411.45,-23.2 421.36,-19.45 411.27,-16.2 411.45,-23.2"/>
<text text-anchor="start" x="16.92" y="-179.8" font-family="mono" font-size="14.00" fill="#c83500">schemaDefinitions</text>
<text text-anchor="middle" x="410.36" y="-8.25" font-family="Times New Roman,serif" font-size="14.00">0..*</text>
</g>
<!-- Thing&#45;&gt;DataSchema -->
<g id="edge17" class="edge">
<title>Thing&#45;&gt;DataSchema</title>
<path fill="none" stroke="black" d="M923.4,-472.26C803.93,-456.72 639.68,-414.52 551.92,-301 517.85,-256.93 514.8,-224.08 542.92,-176 551.16,-161.91 566.68,-172.09 574.92,-158 590.85,-130.76 589.74,-114.86 574.92,-87 564.24,-66.94 544.73,-51.74 525.68,-40.86"/>
<polygon fill="black" stroke="black" points="527.16,-37.68 516.7,-36 523.84,-43.84 527.16,-37.68"/>
<text text-anchor="start" x="542.92" y="-179.8" font-family="mono" font-size="14.00" fill="#c83500">uriVariables</text>
<text text-anchor="middle" x="505.7" y="-39.8" font-family="Times New Roman,serif" font-size="14.00">0..*</text>
</g>
<!-- SecurityScheme -->
<g id="node11" class="node">
<title>SecurityScheme</title>
<polygon fill="#f2f2f2" stroke="transparent" points="1411.92,-244 1411.92,-265 1533.92,-265 1533.92,-244 1411.92,-244"/>
<polygon fill="none" stroke="#8c8c8c" points="1411.92,-244 1411.92,-265 1533.92,-265 1533.92,-244 1411.92,-244"/>
<text text-anchor="start" x="1414.92" y="-251.8" font-family="mono" font-weight="bold" font-size="14.00">SecurityScheme</text>
</g>
<!-- Thing&#45;&gt;SecurityScheme -->
<g id="edge11" class="edge">
<title>Thing&#45;&gt;SecurityScheme</title>
<path fill="none" stroke="black" d="M1210.55,-427.57C1268.53,-403.01 1334.65,-371.06 1389.92,-334 1412.5,-318.86 1434.77,-297.48 1450.54,-280.93"/>
<polygon fill="black" stroke="black" points="1453.46,-282.94 1457.74,-273.25 1448.35,-278.15 1453.46,-282.94"/>
<text text-anchor="start" x="1408.92" y="-322.8" font-family="mono" font-size="14.00" fill="#c83500">securityDefinitions</text>
<text text-anchor="middle" x="1446.74" y="-277.05" font-family="Times New Roman,serif" font-size="14.00">1..*</text>
</g>
</g>
</svg>
