<?xml version="1.0" encoding="UTF-8" standalone="no"?>
<!DOCTYPE svg PUBLIC "-//W3C//DTD SVG 1.1//EN"
 "http://www.w3.org/Graphics/SVG/1.1/DTD/svg11.dtd">
<!-- Generated by graphviz version 2.40.1 (20161225.0304)
 -->
<!-- Title: %3 Pages: 1 -->
<svg width="1426pt" height="840pt"
 viewBox="0.00 0.00 1425.50 840.00" xmlns="http://www.w3.org/2000/svg" xmlns:xlink="http://www.w3.org/1999/xlink">
<g id="graph0" class="graph" transform="scale(1 1) rotate(0) translate(4 836)">
<title>%3</title>
<polygon fill="#ffffff" stroke="transparent" points="-4,4 -4,-836 1421.5,-836 1421.5,4 -4,4"/>
<!-- MultiLanguage -->
<g id="node1" class="node">
<title>MultiLanguage</title>
<polygon fill="#8ccbf2" stroke="transparent" points="273.5,-167.5 273.5,-188.5 387.5,-188.5 387.5,-167.5 273.5,-167.5"/>
<polygon fill="none" stroke="#8ccbf2" points="273.5,-167.5 273.5,-188.5 387.5,-188.5 387.5,-167.5 273.5,-167.5"/>
<text text-anchor="start" x="276.5" y="-175.3" font-family="mono" font-weight="bold" font-size="14.00" fill="#c83500">MultiLanguage</text>
</g>
<!-- InteractionPattern -->
<g id="node2" class="node"><title>InteractionPattern</title>
<polygon fill="#8ccbf2" stroke="none" points="350.5,-394.5 350.5,-415.5 531.5,-415.5 531.5,-394.5 350.5,-394.5"/>
<polygon fill="none" stroke="#8ccbf2" points="350.5,-394.5 350.5,-415.5 531.5,-415.5 531.5,-394.5 350.5,-394.5"/>
<text text-anchor="start" x="366.5" y="-402.3" font-family="mono" font-weight="bold" font-size="14.00" fill="#c83500">InteractionPattern</text>
<polygon fill="#ddeeff" stroke="none" points="350.5,-373.5 350.5,-394.5 531.5,-394.5 531.5,-373.5 350.5,-373.5"/>
<polygon fill="none" stroke="#8ccbf2" points="350.5,-373.5 350.5,-394.5 531.5,-394.5 531.5,-373.5 350.5,-373.5"/>
<text text-anchor="start" x="353.5" y="-381.3" font-family="mono" font-size="14.00" fill="#c83500">scopes</text>
<text text-anchor="start" x="403.5" y="-381.3" font-family="Times,serif" font-size="14.00"> : array of </text>
<text text-anchor="start" x="461.5" y="-381.3" font-family="mono" font-size="14.00" fill="#c83500">string</text>
<polygon fill="#ddeeff" stroke="none" points="350.5,-352.5 350.5,-373.5 531.5,-373.5 531.5,-352.5 350.5,-352.5"/>
<polygon fill="none" stroke="#8ccbf2" points="350.5,-352.5 350.5,-373.5 531.5,-373.5 531.5,-352.5 350.5,-352.5"/>
<text text-anchor="start" x="353.5" y="-360.3" font-family="mono" font-size="14.00" fill="#c83500">description</text>
<text text-anchor="start" x="444.5" y="-360.3" font-family="Times,serif" font-size="14.00"> : </text>
<text text-anchor="start" x="456.5" y="-360.3" font-family="mono" font-size="14.00" fill="#c83500">string</text>
<polygon fill="#ddeeff" stroke="none" points="350.5,-331.5 350.5,-352.5 531.5,-352.5 531.5,-331.5 350.5,-331.5"/>
<polygon fill="none" stroke="#8ccbf2" points="350.5,-331.5 350.5,-352.5 531.5,-352.5 531.5,-331.5 350.5,-331.5"/>
<text text-anchor="start" x="353.5" y="-339.3" font-family="mono" font-size="14.00" fill="#c83500">security</text>
<text text-anchor="start" x="420.5" y="-339.3" font-family="Times,serif" font-size="14.00"> : array of </text>
<text text-anchor="start" x="478.5" y="-339.3" font-family="mono" font-size="14.00" fill="#c83500">string</text>
<polygon fill="#ddeeff" stroke="none" points="350.5,-310.5 350.5,-331.5 531.5,-331.5 531.5,-310.5 350.5,-310.5"/>
<polygon fill="none" stroke="#8ccbf2" points="350.5,-310.5 350.5,-331.5 531.5,-331.5 531.5,-310.5 350.5,-310.5"/>
<text text-anchor="start" x="353.5" y="-318.3" font-family="mono" font-size="14.00" fill="#c83500">title</text>
<text text-anchor="start" x="395.5" y="-318.3" font-family="Times,serif" font-size="14.00"> : </text>
<text text-anchor="start" x="407.5" y="-318.3" font-family="mono" font-size="14.00" fill="#c83500">string</text>
</g>
<!-- InteractionPattern&#45;&gt;MultiLanguage -->
<g id="edge2" class="edge"><title>InteractionPattern&#45;&gt;MultiLanguage</title>
<path fill="none" stroke="black" d="M378.061,-306.597C374.277,-301.005 370.998,-295.119 368.5,-289 355.79,-257.863 381.027,-224.903 403.456,-203.378"/>
<polygon fill="black" stroke="black" points="405.904,-205.882 410.895,-196.536 401.166,-200.729 405.904,-205.882"/>
<text text-anchor="start" x="368.5" y="-277.8" font-family="mono" font-size="14.00" fill="#c83500">titles</text>
<text text-anchor="middle" x="399.895" y="-200.336" font-family="Times,serif" font-size="14.00">0..1</text>
</g>
<!-- InteractionPattern&#45;&gt;MultiLanguage -->
<g id="edge3" class="edge"><title>InteractionPattern&#45;&gt;MultiLanguage</title>
<path fill="none" stroke="black" d="M438.056,-306.6C436.617,-273.674 434.859,-233.461 433.711,-207.203"/>
<polygon fill="black" stroke="black" points="437.193,-206.703 433.259,-196.866 430.199,-207.009 437.193,-206.703"/>
<text text-anchor="start" x="437.5" y="-277.8" font-family="mono" font-size="14.00" fill="#c83500">descriptions</text>
<text text-anchor="middle" x="422.259" y="-200.666" font-family="Times,serif" font-size="14.00">0..1</text>
</g>
<!-- Form -->
<g id="node4" class="node">
<title>Form</title>
<polygon fill="#8ccbf2" stroke="transparent" points="8.5,-230.5 8.5,-251.5 239.5,-251.5 239.5,-230.5 8.5,-230.5"/>
<polygon fill="none" stroke="#8ccbf2" points="8.5,-230.5 8.5,-251.5 239.5,-251.5 239.5,-230.5 8.5,-230.5"/>
<text text-anchor="start" x="107" y="-238.3" font-family="mono" font-weight="bold" font-size="14.00" fill="#c83500">Form</text>
<polygon fill="#ddeeff" stroke="transparent" points="8.5,-209.5 8.5,-230.5 239.5,-230.5 239.5,-209.5 8.5,-209.5"/>
<polygon fill="none" stroke="#8ccbf2" points="8.5,-209.5 8.5,-230.5 239.5,-230.5 239.5,-209.5 8.5,-209.5"/>
<text text-anchor="start" x="11.5" y="-217.3" font-family="mono" font-size="14.00" fill="#c83500">contentType</text>
<text text-anchor="start" x="102.5" y="-217.3" font-family="Times,serif" font-size="14.00"> : </text>
<text text-anchor="start" x="114.5" y="-217.3" font-family="mono" font-size="14.00" fill="#c83500">string</text>
<text text-anchor="start" x="164.5" y="-217.3" font-family="Times,serif" font-size="14.00"> = application/json </text>
<text text-anchor="start" x="270.5" y="-217.3" font-family="Times,serif" font-style="italic" font-size="14.00">(mandatory)</text>
<polygon fill="#ddeeff" stroke="none" points="8.5,-188.5 8.5,-209.5 341.5,-209.5 341.5,-188.5 8.5,-188.5"/>
<polygon fill="none" stroke="#8ccbf2" points="8.5,-188.5 8.5,-209.5 341.5,-209.5 341.5,-188.5 8.5,-188.5"/>
<text text-anchor="start" x="11.5" y="-196.3" font-family="mono" font-size="14.00" fill="#c83500">security</text>
<text text-anchor="start" x="78.5" y="-196.3" font-family="Times,serif" font-size="14.00"> : array of </text>
<text text-anchor="start" x="136.5" y="-196.3" font-family="mono" font-size="14.00" fill="#c83500">string</text>
<polygon fill="#ddeeff" stroke="none" points="8.5,-167.5 8.5,-188.5 341.5,-188.5 341.5,-167.5 8.5,-167.5"/>
<polygon fill="none" stroke="#8ccbf2" points="8.5,-167.5 8.5,-188.5 341.5,-188.5 341.5,-167.5 8.5,-167.5"/>
<text text-anchor="start" x="11.5" y="-175.3" font-family="mono" font-size="14.00" fill="#c83500">href</text>
<text text-anchor="start" x="45.5" y="-175.3" font-family="Times,serif" font-size="14.00"> : </text>
<text text-anchor="start" x="57.5" y="-175.3" font-family="mono" font-size="14.00" fill="#c83500">anyURI</text>
<text text-anchor="start" x="107.5" y="-175.3" font-family="Times,serif" font-size="14.00"> </text>
<text text-anchor="start" x="111.5" y="-175.3" font-family="Times,serif" font-style="italic" font-size="14.00">(mandatory)</text>
<polygon fill="#ddeeff" stroke="none" points="8.5,-146.5 8.5,-167.5 341.5,-167.5 341.5,-146.5 8.5,-146.5"/>
<polygon fill="none" stroke="#8ccbf2" points="8.5,-146.5 8.5,-167.5 341.5,-167.5 341.5,-146.5 8.5,-146.5"/>
<text text-anchor="start" x="11.5" y="-154.3" font-family="mono" font-size="14.00" fill="#c83500">subprotocol</text>
<text text-anchor="start" x="102.5" y="-154.3" font-family="Times,serif" font-size="14.00"> : </text>
<text text-anchor="start" x="114.5" y="-154.3" font-family="mono" font-size="14.00" fill="#c83500">string</text>
<polygon fill="#ddeeff" stroke="none" points="8.5,-125.5 8.5,-146.5 341.5,-146.5 341.5,-125.5 8.5,-125.5"/>
<polygon fill="none" stroke="#8ccbf2" points="8.5,-125.5 8.5,-146.5 341.5,-146.5 341.5,-125.5 8.5,-125.5"/>
<text text-anchor="start" x="11.5" y="-133.3" font-family="mono" font-size="14.00" fill="#c83500">scopes</text>
<text text-anchor="start" x="61.5" y="-133.3" font-family="Times,serif" font-size="14.00"> : array of </text>
<text text-anchor="start" x="119.5" y="-133.3" font-family="mono" font-size="14.00" fill="#c83500">string</text>
<polygon fill="#ddeeff" stroke="none" points="8.5,-104.5 8.5,-125.5 341.5,-125.5 341.5,-104.5 8.5,-104.5"/>
<polygon fill="none" stroke="#8ccbf2" points="8.5,-104.5 8.5,-125.5 341.5,-125.5 341.5,-104.5 8.5,-104.5"/>
<text text-anchor="start" x="11.5" y="-112.3" font-family="mono" font-size="14.00" fill="#c83500">op</text>
<text text-anchor="start" x="28.5" y="-112.3" font-family="Times,serif" font-size="14.00"> : </text>
<text text-anchor="start" x="40.5" y="-112.3" font-family="mono" font-size="14.00" fill="#c83500">string</text>
</g>
<!-- InteractionPattern&#45;&gt;Form -->
<g id="edge4" class="edge"><title>InteractionPattern&#45;&gt;Form</title>
<path fill="none" stroke="black" d="M346.756,-306.852C337.466,-300.951 328.245,-294.936 319.5,-289 307.082,-280.571 294.271,-271.493 281.643,-262.298"/>
<polygon fill="black" stroke="black" points="283.512,-259.329 273.376,-256.244 279.376,-264.976 283.512,-259.329"/>
<text text-anchor="start" x="319.5" y="-277.8" font-family="mono" font-size="14.00" fill="#c83500">forms</text>
<text text-anchor="middle" x="262.376" y="-260.044" font-family="Times,serif" font-size="14.00">1..*</text>
</g>
<!-- DataSchema -->
<g id="node11" class="node"><title>DataSchema</title>
<polygon fill="#f2f2f2" stroke="none" points="755.5,-167.5 755.5,-188.5 844.5,-188.5 844.5,-167.5 755.5,-167.5"/>
<polygon fill="none" stroke="#8c8c8c" points="755.5,-167.5 755.5,-188.5 844.5,-188.5 844.5,-167.5 755.5,-167.5"/>
<text text-anchor="start" x="758.5" y="-175.3" font-family="mono" font-weight="bold" font-size="14.00">DataSchema</text>
</g>
<!-- InteractionPattern&#45;&gt;DataSchema -->
<g id="edge1" class="edge"><title>InteractionPattern&#45;&gt;DataSchema</title>
<path fill="none" stroke="black" d="M517.068,-306.776C539.114,-290.952 558.788,-277.129 564.5,-274 620.607,-243.268 688.835,-216.947 737.289,-199.948"/>
<polygon fill="black" stroke="black" points="738.715,-203.158 747.012,-196.569 736.417,-196.546 738.715,-203.158"/>
<text text-anchor="start" x="564.5" y="-277.8" font-family="mono" font-size="14.00" fill="#c83500">uriVariables</text>
<text text-anchor="middle" x="736.012" y="-200.369" font-family="Times,serif" font-size="14.00">0..1</text>
</g>
<!-- Link -->
<g id="node3" class="node"><title>Link</title>
<polygon fill="#8ccbf2" stroke="none" points="970.5,-558.5 970.5,-579.5 1144.5,-579.5 1144.5,-558.5 970.5,-558.5"/>
<polygon fill="none" stroke="#8ccbf2" points="970.5,-558.5 970.5,-579.5 1144.5,-579.5 1144.5,-558.5 970.5,-558.5"/>
<text text-anchor="start" x="1040.5" y="-566.3" font-family="mono" font-weight="bold" font-size="14.00" fill="#c83500">Link</text>
<polygon fill="#ddeeff" stroke="none" points="970.5,-537.5 970.5,-558.5 1144.5,-558.5 1144.5,-537.5 970.5,-537.5"/>
<polygon fill="none" stroke="#8ccbf2" points="970.5,-537.5 970.5,-558.5 1144.5,-558.5 1144.5,-537.5 970.5,-537.5"/>
<text text-anchor="start" x="973.5" y="-545.3" font-family="mono" font-size="14.00" fill="#c83500">rel</text>
<text text-anchor="start" x="998.5" y="-545.3" font-family="Times,serif" font-size="14.00"> : </text>
<text text-anchor="start" x="1010.5" y="-545.3" font-family="mono" font-size="14.00" fill="#c83500">string</text>
<polygon fill="#ddeeff" stroke="none" points="970.5,-516.5 970.5,-537.5 1144.5,-537.5 1144.5,-516.5 970.5,-516.5"/>
<polygon fill="none" stroke="#8ccbf2" points="970.5,-516.5 970.5,-537.5 1144.5,-537.5 1144.5,-516.5 970.5,-516.5"/>
<text text-anchor="start" x="973.5" y="-524.3" font-family="mono" font-size="14.00" fill="#c83500">anchor</text>
<text text-anchor="start" x="1023.5" y="-524.3" font-family="Times,serif" font-size="14.00"> : </text>
<text text-anchor="start" x="1035.5" y="-524.3" font-family="mono" font-size="14.00" fill="#c83500">anyURI</text>
<polygon fill="#ddeeff" stroke="none" points="970.5,-495.5 970.5,-516.5 1144.5,-516.5 1144.5,-495.5 970.5,-495.5"/>
<polygon fill="none" stroke="#8ccbf2" points="970.5,-495.5 970.5,-516.5 1144.5,-516.5 1144.5,-495.5 970.5,-495.5"/>
<text text-anchor="start" x="973.5" y="-503.3" font-family="mono" font-size="14.00" fill="#c83500">href</text>
<text text-anchor="start" x="1007.5" y="-503.3" font-family="Times,serif" font-size="14.00"> : </text>
<text text-anchor="start" x="1019.5" y="-503.3" font-family="mono" font-size="14.00" fill="#c83500">anyURI</text>
<text text-anchor="start" x="1069.5" y="-503.3" font-family="Times,serif" font-size="14.00"> </text>
<text text-anchor="start" x="1073.5" y="-503.3" font-family="Times,serif" font-style="italic" font-size="14.00">(mandatory)</text>
<polygon fill="#ddeeff" stroke="none" points="970.5,-474.5 970.5,-495.5 1144.5,-495.5 1144.5,-474.5 970.5,-474.5"/>
<polygon fill="none" stroke="#8ccbf2" points="970.5,-474.5 970.5,-495.5 1144.5,-495.5 1144.5,-474.5 970.5,-474.5"/>
<text text-anchor="start" x="973.5" y="-482.3" font-family="mono" font-size="14.00" fill="#c83500">type</text>
<text text-anchor="start" x="1007.5" y="-482.3" font-family="Times,serif" font-size="14.00"> : </text>
<text text-anchor="start" x="1019.5" y="-482.3" font-family="mono" font-size="14.00" fill="#c83500">string</text>
</g>
<!-- ExpectedResponse -->
<g id="node7" class="node">
<title>ExpectedResponse</title>
<polygon fill="#8ccbf2" stroke="transparent" points="44.5,-25 44.5,-46 203.5,-46 203.5,-25 44.5,-25"/>
<polygon fill="none" stroke="#8ccbf2" points="44.5,-25 44.5,-46 203.5,-46 203.5,-25 44.5,-25"/>
<text text-anchor="start" x="57.5" y="-32.8" font-family="mono" font-weight="bold" font-size="14.00" fill="#c83500">ExpectedResponse</text>
<polygon fill="#ddeeff" stroke="transparent" points="44.5,-4 44.5,-25 203.5,-25 203.5,-4 44.5,-4"/>
<polygon fill="none" stroke="#8ccbf2" points="44.5,-4 44.5,-25 203.5,-25 203.5,-4 44.5,-4"/>
<text text-anchor="start" x="47.5" y="-11.8" font-family="mono" font-size="14.00" fill="#c83500">contentType</text>
<text text-anchor="start" x="138.5" y="-11.8" font-family="Times,serif" font-size="14.00" fill="#000000"> : </text>
<text text-anchor="start" x="150.5" y="-11.8" font-family="mono" font-size="14.00" fill="#c83500">string</text>
</g>
<!-- Form&#45;&gt;ExpectedResponse -->
<g id="edge5" class="edge">
<title>Form&#45;&gt;ExpectedResponse</title>
<path fill="none" stroke="#000000" d="M123.5,-100.8506C123.5,-86.7022 123.5,-72.5946 123.5,-60.4513"/>
<polygon fill="#000000" stroke="#000000" points="127.0001,-60.3339 123.5,-50.334 120.0001,-60.334 127.0001,-60.3339"/>
<text text-anchor="start" x="123.5" y="-71.8" font-family="mono" font-size="14.00" fill="#c83500">response</text>
<text text-anchor="middle" x="112.5" y="-54.134" font-family="Times,serif" font-size="14.00" fill="#000000">0..1</text>
</g>
<!-- Thing -->
<g id="node5" class="node"><title>Thing</title>
<polygon fill="#8ccbf2" stroke="none" points="688.5,-806.5 688.5,-827.5 941.5,-827.5 941.5,-806.5 688.5,-806.5"/>
<polygon fill="none" stroke="#8ccbf2" points="688.5,-806.5 688.5,-827.5 941.5,-827.5 941.5,-806.5 688.5,-806.5"/>
<text text-anchor="start" x="794" y="-814.3" font-family="mono" font-weight="bold" font-size="14.00" fill="#c83500">Thing</text>
<polygon fill="#ddeeff" stroke="none" points="688.5,-785.5 688.5,-806.5 941.5,-806.5 941.5,-785.5 688.5,-785.5"/>
<polygon fill="none" stroke="#8ccbf2" points="688.5,-785.5 688.5,-806.5 941.5,-806.5 941.5,-785.5 688.5,-785.5"/>
<text text-anchor="start" x="691.5" y="-793.3" font-family="mono" font-size="14.00" fill="#c83500">id</text>
<text text-anchor="start" x="708.5" y="-793.3" font-family="Times,serif" font-size="14.00"> : </text>
<text text-anchor="start" x="720.5" y="-793.3" font-family="mono" font-size="14.00" fill="#c83500">anyURI</text>
<text text-anchor="start" x="770.5" y="-793.3" font-family="Times,serif" font-size="14.00"> </text>
<text text-anchor="start" x="774.5" y="-793.3" font-family="Times,serif" font-style="italic" font-size="14.00">(mandatory)</text>
<polygon fill="#ddeeff" stroke="none" points="688.5,-764.5 688.5,-785.5 941.5,-785.5 941.5,-764.5 688.5,-764.5"/>
<polygon fill="none" stroke="#8ccbf2" points="688.5,-764.5 688.5,-785.5 941.5,-785.5 941.5,-764.5 688.5,-764.5"/>
<text text-anchor="start" x="691.5" y="-772.3" font-family="mono" font-size="14.00" fill="#c83500">lastModified</text>
<text text-anchor="start" x="791.5" y="-772.3" font-family="Times,serif" font-size="14.00"> : </text>
<text text-anchor="start" x="803.5" y="-772.3" font-family="mono" font-size="14.00" fill="#c83500">string</text>
<polygon fill="#ddeeff" stroke="none" points="688.5,-743.5 688.5,-764.5 941.5,-764.5 941.5,-743.5 688.5,-743.5"/>
<polygon fill="none" stroke="#8ccbf2" points="688.5,-743.5 688.5,-764.5 941.5,-764.5 941.5,-743.5 688.5,-743.5"/>
<text text-anchor="start" x="691.5" y="-751.3" font-family="mono" font-size="14.00" fill="#c83500">security</text>
<text text-anchor="start" x="758.5" y="-751.3" font-family="Times,serif" font-size="14.00"> : array of </text>
<text text-anchor="start" x="816.5" y="-751.3" font-family="mono" font-size="14.00" fill="#c83500">string</text>
<text text-anchor="start" x="866.5" y="-751.3" font-family="Times,serif" font-size="14.00"> </text>
<text text-anchor="start" x="870.5" y="-751.3" font-family="Times,serif" font-style="italic" font-size="14.00">(mandatory)</text>
<polygon fill="#ddeeff" stroke="none" points="688.5,-722.5 688.5,-743.5 941.5,-743.5 941.5,-722.5 688.5,-722.5"/>
<polygon fill="none" stroke="#8ccbf2" points="688.5,-722.5 688.5,-743.5 941.5,-743.5 941.5,-722.5 688.5,-722.5"/>
<text text-anchor="start" x="691.5" y="-730.3" font-family="mono" font-size="14.00" fill="#c83500">support</text>
<text text-anchor="start" x="749.5" y="-730.3" font-family="Times,serif" font-size="14.00"> : </text>
<text text-anchor="start" x="761.5" y="-730.3" font-family="mono" font-size="14.00" fill="#c83500">string</text>
<polygon fill="#ddeeff" stroke="none" points="688.5,-701.5 688.5,-722.5 941.5,-722.5 941.5,-701.5 688.5,-701.5"/>
<polygon fill="none" stroke="#8ccbf2" points="688.5,-701.5 688.5,-722.5 941.5,-722.5 941.5,-701.5 688.5,-701.5"/>
<text text-anchor="start" x="691.5" y="-709.3" font-family="mono" font-size="14.00" fill="#c83500">name</text>
<text text-anchor="start" x="725.5" y="-709.3" font-family="Times,serif" font-size="14.00"> : </text>
<text text-anchor="start" x="737.5" y="-709.3" font-family="mono" font-size="14.00" fill="#c83500">string</text>
<text text-anchor="start" x="787.5" y="-709.3" font-family="Times,serif" font-size="14.00"> </text>
<text text-anchor="start" x="791.5" y="-709.3" font-family="Times,serif" font-style="italic" font-size="14.00">(mandatory)</text>
<polygon fill="#ddeeff" stroke="none" points="688.5,-680.5 688.5,-701.5 941.5,-701.5 941.5,-680.5 688.5,-680.5"/>
<polygon fill="none" stroke="#8ccbf2" points="688.5,-680.5 688.5,-701.5 941.5,-701.5 941.5,-680.5 688.5,-680.5"/>
<text text-anchor="start" x="691.5" y="-688.3" font-family="mono" font-size="14.00" fill="#c83500">created</text>
<text text-anchor="start" x="749.5" y="-688.3" font-family="Times,serif" font-size="14.00"> : </text>
<text text-anchor="start" x="761.5" y="-688.3" font-family="mono" font-size="14.00" fill="#c83500">string</text>
<polygon fill="#ddeeff" stroke="none" points="688.5,-659.5 688.5,-680.5 941.5,-680.5 941.5,-659.5 688.5,-659.5"/>
<polygon fill="none" stroke="#8ccbf2" points="688.5,-659.5 688.5,-680.5 941.5,-680.5 941.5,-659.5 688.5,-659.5"/>
<text text-anchor="start" x="691.5" y="-667.3" font-family="mono" font-size="14.00" fill="#c83500">description</text>
<text text-anchor="start" x="782.5" y="-667.3" font-family="Times,serif" font-size="14.00"> : </text>
<text text-anchor="start" x="794.5" y="-667.3" font-family="mono" font-size="14.00" fill="#c83500">string</text>
<polygon fill="#ddeeff" stroke="none" points="688.5,-638.5 688.5,-659.5 941.5,-659.5 941.5,-638.5 688.5,-638.5"/>
<polygon fill="none" stroke="#8ccbf2" points="688.5,-638.5 688.5,-659.5 941.5,-659.5 941.5,-638.5 688.5,-638.5"/>
<text text-anchor="start" x="691.5" y="-646.3" font-family="mono" font-size="14.00" fill="#c83500">base</text>
<text text-anchor="start" x="725.5" y="-646.3" font-family="Times,serif" font-size="14.00"> : </text>
<text text-anchor="start" x="737.5" y="-646.3" font-family="mono" font-size="14.00" fill="#c83500">anyURI</text>
</g>
<!-- Thing&#45;&gt;MultiLanguage -->
<g id="edge8" class="edge"><title>Thing&#45;&gt;MultiLanguage</title>
<path fill="none" stroke="black" d="M679.793,-715.456C531.926,-693.656 308.642,-650.563 257.5,-584 215.262,-529.026 280.686,-290.244 295.5,-274 314.835,-252.799 332.874,-270.726 357.5,-256 379.724,-242.711 399.956,-221.251 413.791,-204.438"/>
<polygon fill="black" stroke="black" points="416.537,-206.609 420.05,-196.613 411.07,-202.237 416.537,-206.609"/>
<text text-anchor="start" x="251.5" y="-441.8" font-family="mono" font-size="14.00" fill="#c83500">descriptions</text>
<text text-anchor="middle" x="431.05" y="-200.413" font-family="Times,serif" font-size="14.00">0..1</text>
</g>
<!-- Thing&#45;&gt;Link -->
<g id="edge6" class="edge"><title>Thing&#45;&gt;Link</title>
<path fill="none" stroke="black" d="M930.662,-634.981C948.489,-620.015 966.469,-604.921 983.064,-590.989"/>
<polygon fill="black" stroke="black" points="985.684,-593.36 991.093,-584.249 981.184,-587.998 985.684,-593.36"/>
<text text-anchor="start" x="965.5" y="-605.8" font-family="mono" font-size="14.00" fill="#c83500">links</text>
<text text-anchor="middle" x="980.093" y="-588.049" font-family="Times,serif" font-size="14.00">0..*</text>
</g>
<!-- Thing&#45;&gt;Form -->
<g id="edge13" class="edge"><title>Thing&#45;&gt;Form</title>
<path fill="none" stroke="black" d="M679.911,-725.644C565.346,-714.88 399.617,-687.333 272.5,-617 154.398,-551.655 151.328,-374.098 161.64,-266.329"/>
<polygon fill="black" stroke="black" points="165.148,-266.426 162.677,-256.124 158.184,-265.719 165.148,-266.426"/>
<text text-anchor="start" x="167.5" y="-441.8" font-family="mono" font-size="14.00" fill="#c83500">forms</text>
<text text-anchor="middle" x="151.677" y="-259.924" font-family="Times,serif" font-size="14.00">0..*</text>
</g>
<!-- Property -->
<g id="node6" class="node">
<title>Property</title>
<polygon fill="#8ccbf2" stroke="transparent" points="225.5,-527.5 225.5,-548.5 456.5,-548.5 456.5,-527.5 225.5,-527.5"/>
<polygon fill="none" stroke="#8ccbf2" points="225.5,-527.5 225.5,-548.5 456.5,-548.5 456.5,-527.5 225.5,-527.5"/>
<text text-anchor="start" x="307.5" y="-535.3" font-family="mono" font-weight="bold" font-size="14.00" fill="#c83500">Property</text>
<polygon fill="#ddeeff" stroke="transparent" points="225.5,-506.5 225.5,-527.5 456.5,-527.5 456.5,-506.5 225.5,-506.5"/>
<polygon fill="none" stroke="#8ccbf2" points="225.5,-506.5 225.5,-527.5 456.5,-527.5 456.5,-506.5 225.5,-506.5"/>
<text text-anchor="start" x="228.5" y="-514.3" font-family="mono" font-size="14.00" fill="#c83500">observable</text>
<text text-anchor="start" x="311.5" y="-514.3" font-family="Times,serif" font-size="14.00" fill="#000000"> : </text>
<text text-anchor="start" x="323.5" y="-514.3" font-family="mono" font-size="14.00" fill="#c83500">boolean</text>
<text text-anchor="start" x="381.5" y="-514.3" font-family="Times,serif" font-size="14.00" fill="#000000"> </text>
<text text-anchor="start" x="385.5" y="-514.3" font-family="Times,serif" font-style="italic" font-size="14.00" fill="#000000">(mandatory)</text>
</g>
<!-- Thing&#45;&gt;Property -->
<g id="edge11" class="edge"><title>Thing&#45;&gt;Property</title>
<path fill="none" stroke="black" d="M679.747,-664.287C607.717,-627.826 522.859,-584.87 468.175,-557.189"/>
<polygon fill="black" stroke="black" points="469.499,-553.936 458.996,-552.543 466.337,-560.182 469.499,-553.936"/>
<text text-anchor="start" x="577.5" y="-605.8" font-family="mono" font-size="14.00" fill="#c83500">properties</text>
<text text-anchor="middle" x="447.996" y="-556.343" font-family="Times,serif" font-size="14.00">0..1</text>
</g>
<!-- Action -->
<g id="node8" class="node">
<title>Action</title>
<polygon fill="#8ccbf2" stroke="transparent" points="490.5,-537.5 490.5,-558.5 721.5,-558.5 721.5,-537.5 490.5,-537.5"/>
<polygon fill="none" stroke="#8ccbf2" points="490.5,-537.5 490.5,-558.5 721.5,-558.5 721.5,-537.5 490.5,-537.5"/>
<text text-anchor="start" x="581" y="-545.3" font-family="mono" font-weight="bold" font-size="14.00" fill="#c83500">Action</text>
<polygon fill="#ddeeff" stroke="transparent" points="490.5,-516.5 490.5,-537.5 721.5,-537.5 721.5,-516.5 490.5,-516.5"/>
<polygon fill="none" stroke="#8ccbf2" points="490.5,-516.5 490.5,-537.5 721.5,-537.5 721.5,-516.5 490.5,-516.5"/>
<text text-anchor="start" x="493.5" y="-524.3" font-family="mono" font-size="14.00" fill="#c83500">idempotent</text>
<text text-anchor="start" x="576.5" y="-524.3" font-family="Times,serif" font-size="14.00" fill="#000000"> : </text>
<text text-anchor="start" x="588.5" y="-524.3" font-family="mono" font-size="14.00" fill="#c83500">boolean</text>
<text text-anchor="start" x="646.5" y="-524.3" font-family="Times,serif" font-size="14.00" fill="#000000"> </text>
<text text-anchor="start" x="650.5" y="-524.3" font-family="Times,serif" font-style="italic" font-size="14.00" fill="#000000">(mandatory)</text>
<polygon fill="#ddeeff" stroke="transparent" points="490.5,-495.5 490.5,-516.5 721.5,-516.5 721.5,-495.5 490.5,-495.5"/>
<polygon fill="none" stroke="#8ccbf2" points="490.5,-495.5 490.5,-516.5 721.5,-516.5 721.5,-495.5 490.5,-495.5"/>
<text text-anchor="start" x="493.5" y="-503.3" font-family="mono" font-size="14.00" fill="#c83500">safe</text>
<text text-anchor="start" x="527.5" y="-503.3" font-family="Times,serif" font-size="14.00" fill="#000000"> : </text>
<text text-anchor="start" x="539.5" y="-503.3" font-family="mono" font-size="14.00" fill="#c83500">boolean</text>
<text text-anchor="start" x="597.5" y="-503.3" font-family="Times,serif" font-size="14.00" fill="#000000"> </text>
<text text-anchor="start" x="601.5" y="-503.3" font-family="Times,serif" font-style="italic" font-size="14.00" fill="#000000">(mandatory)</text>
</g>
<!-- Thing&#45;&gt;Action -->
<g id="edge11" class="edge">
<title>Thing&#45;&gt;Action</title>
<path fill="none" stroke="#000000" d="M650.7837,-634.7236C641.574,-612.9165 632.2574,-590.8566 624.4891,-572.4626"/>
<polygon fill="#000000" stroke="#000000" points="627.6915,-571.0491 620.5766,-563.1987 621.243,-573.7725 627.6915,-571.0491"/>
<text text-anchor="start" x="641.5" y="-605.8" font-family="mono" font-size="14.00" fill="#c83500">actions</text>
<text text-anchor="middle" x="609.5766" y="-566.9987" font-family="Times,serif" font-size="14.00" fill="#000000">0..1</text>
</g>
<!-- Event -->
<g id="node9" class="node">
<title>Event</title>
<polygon fill="#8ccbf2" stroke="transparent" points="755.5,-516.5 755.5,-537.5 803.5,-537.5 803.5,-516.5 755.5,-516.5"/>
<polygon fill="none" stroke="#8ccbf2" points="755.5,-516.5 755.5,-537.5 803.5,-537.5 803.5,-516.5 755.5,-516.5"/>
<text text-anchor="start" x="758.5" y="-524.3" font-family="mono" font-weight="bold" font-size="14.00" fill="#c83500">Event</text>
</g>
<!-- Thing&#45;&gt;Event -->
<g id="edge12" class="edge"><title>Thing&#45;&gt;Event</title>
<path fill="none" stroke="black" d="M861.347,-634.981C875.537,-605.444 889.967,-575.405 899.867,-554.797"/>
<polygon fill="black" stroke="black" points="903.036,-556.284 904.211,-545.755 896.726,-553.253 903.036,-556.284"/>
<text text-anchor="start" x="875.5" y="-605.8" font-family="mono" font-size="14.00" fill="#c83500">events</text>
<text text-anchor="middle" x="893.211" y="-549.555" font-family="Times,serif" font-size="14.00">0..1</text>
</g>
<!-- Versioning -->
<g id="node10" class="node">
<title>Versioning</title>
<polygon fill="#8ccbf2" stroke="transparent" points="1046.5,-527.5 1046.5,-548.5 1253.5,-548.5 1253.5,-527.5 1046.5,-527.5"/>
<polygon fill="none" stroke="#8ccbf2" points="1046.5,-527.5 1046.5,-548.5 1253.5,-548.5 1253.5,-527.5 1046.5,-527.5"/>
<text text-anchor="start" x="1108.5" y="-535.3" font-family="mono" font-weight="bold" font-size="14.00" fill="#c83500">Versioning</text>
<polygon fill="#ddeeff" stroke="transparent" points="1046.5,-506.5 1046.5,-527.5 1253.5,-527.5 1253.5,-506.5 1046.5,-506.5"/>
<polygon fill="none" stroke="#8ccbf2" points="1046.5,-506.5 1046.5,-527.5 1253.5,-527.5 1253.5,-506.5 1046.5,-506.5"/>
<text text-anchor="start" x="1049.5" y="-514.3" font-family="mono" font-size="14.00" fill="#c83500">instance</text>
<text text-anchor="start" x="1116.5" y="-514.3" font-family="Times,serif" font-size="14.00" fill="#000000"> : </text>
<text text-anchor="start" x="1128.5" y="-514.3" font-family="mono" font-size="14.00" fill="#c83500">string</text>
<text text-anchor="start" x="1178.5" y="-514.3" font-family="Times,serif" font-size="14.00" fill="#000000"> </text>
<text text-anchor="start" x="1182.5" y="-514.3" font-family="Times,serif" font-style="italic" font-size="14.00" fill="#000000">(mandatory)</text>
</g>
<!-- Thing&#45;&gt;Versioning -->
<g id="edge9" class="edge"><title>Thing&#45;&gt;Versioning</title>
<path fill="none" stroke="black" d="M949.147,-675.827C1013.58,-648.467 1091.71,-614.934 1161.5,-584 1181.11,-575.308 1202.41,-565.624 1221.59,-556.809"/>
<polygon fill="black" stroke="black" points="1223.2,-559.921 1230.82,-552.56 1220.27,-553.563 1223.2,-559.921"/>
<text text-anchor="start" x="1115.5" y="-605.8" font-family="mono" font-size="14.00" fill="#c83500">version</text>
<text text-anchor="middle" x="1219.82" y="-556.36" font-family="Times,serif" font-size="14.00">0..1</text>
</g>
<!-- SecurityScheme -->
<g id="node12" class="node">
<title>SecurityScheme</title>
<polygon fill="#f2f2f2" stroke="transparent" points="1287.5,-516.5 1287.5,-537.5 1409.5,-537.5 1409.5,-516.5 1287.5,-516.5"/>
<polygon fill="none" stroke="#8c8c8c" points="1287.5,-516.5 1287.5,-537.5 1409.5,-537.5 1409.5,-516.5 1287.5,-516.5"/>
<text text-anchor="start" x="1290.5" y="-524.3" font-family="mono" font-weight="bold" font-size="14.00" fill="#000000">SecurityScheme</text>
</g>
<!-- Thing&#45;&gt;SecurityScheme -->
<g id="edge10" class="edge"><title>Thing&#45;&gt;SecurityScheme</title>
<path fill="none" stroke="black" d="M949.066,-712.901C1071.37,-691.785 1254.75,-651.743 1402.5,-584 1420.71,-575.649 1439.14,-562.996 1453.61,-551.879"/>
<polygon fill="black" stroke="black" points="1455.96,-554.491 1461.65,-545.555 1451.62,-548.991 1455.96,-554.491"/>
<text text-anchor="start" x="1357.5" y="-605.8" font-family="mono" font-size="14.00" fill="#c83500">securityDefinitions</text>
<text text-anchor="middle" x="1450.65" y="-549.355" font-family="Times,serif" font-size="14.00">1..1</text>
</g>
<!-- Property&#45;&gt;InteractionPattern -->
<g id="edge20" class="edge"><title>Property&#45;&gt;InteractionPattern</title>
<path fill="none" stroke="black" d="M415.842,-502.247C419.259,-483.156 424.19,-455.613 428.745,-430.165"/>
<polygon fill="white" stroke="black" points="432.218,-430.627 430.535,-420.167 425.327,-429.394 432.218,-430.627"/>
</g>
<!-- Action&#45;&gt;InteractionPattern -->
<g id="edge21" class="edge"><title>Action&#45;&gt;InteractionPattern</title>
<path fill="none" stroke="black" d="M659.203,-491.946C625.846,-472.508 583.241,-447.68 544.511,-425.111"/>
<polygon fill="white" stroke="black" points="546.198,-422.043 535.796,-420.032 542.674,-428.091 546.198,-422.043"/>
</g>
<!-- Action&#45;&gt;DataSchema -->
<g id="edge14" class="edge"><title>Action&#45;&gt;DataSchema</title>
<path fill="none" stroke="black" d="M704.912,-491.914C689.649,-447.693 669.792,-369.383 692.5,-307 707.907,-264.673 744.222,-226.621 770.271,-203.33"/>
<polygon fill="black" stroke="black" points="772.761,-205.802 777.991,-196.588 768.157,-200.53 772.761,-205.802"/>
<text text-anchor="start" x="692.5" y="-359.8" font-family="mono" font-size="14.00" fill="#c83500">input</text>
<text text-anchor="middle" x="766.991" y="-200.388" font-family="Times,serif" font-size="14.00">0..1</text>
</g>
<!-- Action&#45;&gt;DataSchema -->
<g id="edge15" class="edge"><title>Action&#45;&gt;DataSchema</title>
<path fill="none" stroke="black" d="M726.563,-491.96C742.677,-422.926 778.564,-269.19 793.151,-206.699"/>
<polygon fill="black" stroke="black" points="796.596,-207.338 795.461,-196.804 789.779,-205.747 796.596,-207.338"/>
<text text-anchor="start" x="770.5" y="-359.8" font-family="mono" font-size="14.00" fill="#c83500">output</text>
<text text-anchor="middle" x="806.461" y="-200.604" font-family="Times,serif" font-size="14.00">0..1</text>
</g>
<!-- Event&#45;&gt;InteractionPattern -->
<g id="edge19" class="edge"><title>Event&#45;&gt;InteractionPattern</title>
<path fill="none" stroke="black" d="M904.089,-509.385C897.067,-496.879 885.894,-480.507 871.5,-471 830.527,-443.937 704.17,-431.777 656.5,-420 621.519,-411.358 583.426,-401.665 549.107,-392.826"/>
<polygon fill="white" stroke="black" points="549.618,-389.344 539.061,-390.236 547.87,-396.122 549.618,-389.344"/>
</g>
<!-- Event&#45;&gt;DataSchema -->
<g id="edge16" class="edge"><title>Event&#45;&gt;DataSchema</title>
<path fill="none" stroke="black" d="M901.784,-509.415C889.322,-488.884 868.884,-453.061 856.5,-420 828.421,-345.04 810.998,-251.622 803.61,-206.449"/>
<polygon fill="black" stroke="black" points="807.062,-205.871 802.026,-196.55 800.15,-206.977 807.062,-205.871"/>
<text text-anchor="start" x="856.5" y="-359.8" font-family="mono" font-size="14.00" fill="#c83500">data</text>
<text text-anchor="middle" x="791.026" y="-200.35" font-family="Times,serif" font-size="14.00">0..1</text>
</g>
<!-- Event&#45;&gt;DataSchema -->
<g id="edge17" class="edge"><title>Event&#45;&gt;DataSchema</title>
<path fill="none" stroke="black" d="M913.706,-509.309C915.746,-471.401 917.34,-378.332 890.5,-307 875.528,-267.21 844.908,-228.471 823.333,-204.337"/>
<polygon fill="black" stroke="black" points="825.723,-201.764 816.399,-196.732 820.55,-206.48 825.723,-201.764"/>
<text text-anchor="start" x="913.5" y="-359.8" font-family="mono" font-size="14.00" fill="#c83500">cancellation</text>
<text text-anchor="middle" x="827.399" y="-200.532" font-family="Times,serif" font-size="14.00">0..1</text>
</g>
<!-- Event&#45;&gt;DataSchema -->
<g id="edge18" class="edge"><title>Event&#45;&gt;DataSchema</title>
<path fill="none" stroke="black" d="M923.627,-509.08C931.328,-497.66 942.192,-482.729 953.5,-471 978.744,-444.816 1001.71,-452.766 1017.5,-420 1039.3,-374.755 1042.49,-350.564 1017.5,-307 984.401,-249.297 913.962,-215.206 862.07,-197.008"/>
<polygon fill="black" stroke="black" points="862.877,-193.586 852.283,-193.686 860.627,-200.214 862.877,-193.586"/>
<text text-anchor="start" x="1035.5" y="-359.8" font-family="mono" font-size="14.00" fill="#c83500">subscription</text>
<text text-anchor="middle" x="863.283" y="-197.486" font-family="Times,serif" font-size="14.00">0..1</text>
</g>
</g>
</svg>
