<?xml version="1.0" encoding="UTF-8" standalone="no"?>
<!DOCTYPE svg PUBLIC "-//W3C//DTD SVG 1.1//EN"
 "http://www.w3.org/Graphics/SVG/1.1/DTD/svg11.dtd">
<!-- Generated by graphviz version 2.38.0 (20140413.2041)
 -->
<!-- Title: %3 Pages: 1 -->
<svg width="1367pt" height="819pt"
 viewBox="0.00 0.00 1367.00 819.00" xmlns="http://www.w3.org/2000/svg" xmlns:xlink="http://www.w3.org/1999/xlink">
<g id="graph0" class="graph" transform="scale(1 1) rotate(0) translate(4 815)">
<title>%3</title>
<polygon fill="white" stroke="none" points="-4,4 -4,-815 1363,-815 1363,4 -4,4"/>
<!-- MultiLanguage -->
<g id="node1" class="node"><title>MultiLanguage</title>
<polygon fill="#8ccbf2" stroke="none" points="8,-167.5 8,-188.5 122,-188.5 122,-167.5 8,-167.5"/>
<polygon fill="none" stroke="#8ccbf2" points="8,-167.5 8,-188.5 122,-188.5 122,-167.5 8,-167.5"/>
<text text-anchor="start" x="11" y="-175.3" font-family="mono" font-weight="bold" font-size="14.00" fill="#c83500">MultiLanguage</text>
</g>
<!-- Form -->
<g id="node2" class="node"><title>Form</title>
<polygon fill="#8ccbf2" stroke="none" points="172,-230.5 172,-251.5 403,-251.5 403,-230.5 172,-230.5"/>
<polygon fill="none" stroke="#8ccbf2" points="172,-230.5 172,-251.5 403,-251.5 403,-230.5 172,-230.5"/>
<text text-anchor="start" x="270.5" y="-238.3" font-family="mono" font-weight="bold" font-size="14.00" fill="#c83500">Form</text>
<polygon fill="#ddeeff" stroke="none" points="172,-209.5 172,-230.5 403,-230.5 403,-209.5 172,-209.5"/>
<polygon fill="none" stroke="#8ccbf2" points="172,-209.5 172,-230.5 403,-230.5 403,-209.5 172,-209.5"/>
<text text-anchor="start" x="175" y="-217.3" font-family="mono" font-size="14.00" fill="#c83500">contentType</text>
<text text-anchor="start" x="266" y="-217.3" font-family="Times,serif" font-size="14.00"> : </text>
<text text-anchor="start" x="278" y="-217.3" font-family="mono" font-size="14.00" fill="#c83500">string</text>
<text text-anchor="start" x="328" y="-217.3" font-family="Times,serif" font-size="14.00"> </text>
<text text-anchor="start" x="332" y="-217.3" font-family="Times,serif" font-style="italic" font-size="14.00">(mandatory)</text>
<polygon fill="#ddeeff" stroke="none" points="172,-188.5 172,-209.5 403,-209.5 403,-188.5 172,-188.5"/>
<polygon fill="none" stroke="#8ccbf2" points="172,-188.5 172,-209.5 403,-209.5 403,-188.5 172,-188.5"/>
<text text-anchor="start" x="175" y="-196.3" font-family="mono" font-size="14.00" fill="#c83500">security</text>
<text text-anchor="start" x="242" y="-196.3" font-family="Times,serif" font-size="14.00"> : array of </text>
<text text-anchor="start" x="300" y="-196.3" font-family="mono" font-size="14.00" fill="#c83500">string</text>
<polygon fill="#ddeeff" stroke="none" points="172,-167.5 172,-188.5 403,-188.5 403,-167.5 172,-167.5"/>
<polygon fill="none" stroke="#8ccbf2" points="172,-167.5 172,-188.5 403,-188.5 403,-167.5 172,-167.5"/>
<text text-anchor="start" x="175" y="-175.3" font-family="mono" font-size="14.00" fill="#c83500">op</text>
<text text-anchor="start" x="192" y="-175.3" font-family="Times,serif" font-size="14.00"> : </text>
<text text-anchor="start" x="204" y="-175.3" font-family="mono" font-size="14.00" fill="#c83500">string</text>
<polygon fill="#ddeeff" stroke="none" points="172,-146.5 172,-167.5 403,-167.5 403,-146.5 172,-146.5"/>
<polygon fill="none" stroke="#8ccbf2" points="172,-146.5 172,-167.5 403,-167.5 403,-146.5 172,-146.5"/>
<text text-anchor="start" x="175" y="-154.3" font-family="mono" font-size="14.00" fill="#c83500">href</text>
<text text-anchor="start" x="209" y="-154.3" font-family="Times,serif" font-size="14.00"> : </text>
<text text-anchor="start" x="221" y="-154.3" font-family="mono" font-size="14.00" fill="#c83500">anyURI</text>
<text text-anchor="start" x="271" y="-154.3" font-family="Times,serif" font-size="14.00"> </text>
<text text-anchor="start" x="275" y="-154.3" font-family="Times,serif" font-style="italic" font-size="14.00">(mandatory)</text>
<polygon fill="#ddeeff" stroke="none" points="172,-125.5 172,-146.5 403,-146.5 403,-125.5 172,-125.5"/>
<polygon fill="none" stroke="#8ccbf2" points="172,-125.5 172,-146.5 403,-146.5 403,-125.5 172,-125.5"/>
<text text-anchor="start" x="175" y="-133.3" font-family="mono" font-size="14.00" fill="#c83500">scopes</text>
<text text-anchor="start" x="225" y="-133.3" font-family="Times,serif" font-size="14.00"> : array of </text>
<text text-anchor="start" x="283" y="-133.3" font-family="mono" font-size="14.00" fill="#c83500">string</text>
<polygon fill="#ddeeff" stroke="none" points="172,-104.5 172,-125.5 403,-125.5 403,-104.5 172,-104.5"/>
<polygon fill="none" stroke="#8ccbf2" points="172,-104.5 172,-125.5 403,-125.5 403,-104.5 172,-104.5"/>
<text text-anchor="start" x="175" y="-112.3" font-family="mono" font-size="14.00" fill="#c83500">subprotocol</text>
<text text-anchor="start" x="266" y="-112.3" font-family="Times,serif" font-size="14.00"> : </text>
<text text-anchor="start" x="278" y="-112.3" font-family="mono" font-size="14.00" fill="#c83500">string</text>
</g>
<!-- ExpectedResponse -->
<g id="node5" class="node"><title>ExpectedResponse</title>
<polygon fill="#8ccbf2" stroke="none" points="172,-25 172,-46 403,-46 403,-25 172,-25"/>
<polygon fill="none" stroke="#8ccbf2" points="172,-25 172,-46 403,-46 403,-25 172,-25"/>
<text text-anchor="start" x="221" y="-32.8" font-family="mono" font-weight="bold" font-size="14.00" fill="#c83500">ExpectedResponse</text>
<polygon fill="#ddeeff" stroke="none" points="172,-4 172,-25 403,-25 403,-4 172,-4"/>
<polygon fill="none" stroke="#8ccbf2" points="172,-4 172,-25 403,-25 403,-4 172,-4"/>
<text text-anchor="start" x="175" y="-11.8" font-family="mono" font-size="14.00" fill="#c83500">contentType</text>
<text text-anchor="start" x="266" y="-11.8" font-family="Times,serif" font-size="14.00"> : </text>
<text text-anchor="start" x="278" y="-11.8" font-family="mono" font-size="14.00" fill="#c83500">string</text>
<text text-anchor="start" x="328" y="-11.8" font-family="Times,serif" font-size="14.00"> </text>
<text text-anchor="start" x="332" y="-11.8" font-family="Times,serif" font-style="italic" font-size="14.00">(mandatory)</text>
</g>
<!-- Form&#45;&gt;ExpectedResponse -->
<g id="edge1" class="edge"><title>Form&#45;&gt;ExpectedResponse</title>
<path fill="none" stroke="black" d="M287,-100.862C287,-86.5577 287,-72.2953 287,-60.116"/>
<polygon fill="black" stroke="black" points="290.5,-60.0004 287,-50.0004 283.5,-60.0004 290.5,-60.0004"/>
<text text-anchor="start" x="287" y="-71.8" font-family="mono" font-size="14.00" fill="#c83500">response</text>
<text text-anchor="middle" x="276" y="-53.8004" font-family="Times,serif" font-size="14.00">0..1</text>
</g>
<!-- Thing -->
<g id="node3" class="node"><title>Thing</title>
<polygon fill="#8ccbf2" stroke="none" points="549,-786 549,-807 802,-807 802,-786 549,-786"/>
<polygon fill="none" stroke="#8ccbf2" points="549,-786 549,-807 802,-807 802,-786 549,-786"/>
<text text-anchor="start" x="654.5" y="-793.8" font-family="mono" font-weight="bold" font-size="14.00" fill="#c83500">Thing</text>
<polygon fill="#ddeeff" stroke="none" points="549,-765 549,-786 802,-786 802,-765 549,-765"/>
<polygon fill="none" stroke="#8ccbf2" points="549,-765 549,-786 802,-786 802,-765 549,-765"/>
<text text-anchor="start" x="552" y="-772.8" font-family="mono" font-size="14.00" fill="#c83500">@context</text>
<text text-anchor="start" x="619" y="-772.8" font-family="Times,serif" font-size="14.00"> : </text>
<text text-anchor="start" x="631" y="-772.8" font-family="Times,serif" font-style="italic" font-size="14.00">array</text>
<text text-anchor="start" x="662" y="-772.8" font-family="Times,serif" font-size="14.00"> </text>
<text text-anchor="start" x="666" y="-772.8" font-family="Times,serif" font-style="italic" font-size="14.00">(mandatory)</text>
<polygon fill="#ddeeff" stroke="none" points="549,-744 549,-765 802,-765 802,-744 549,-744"/>
<polygon fill="none" stroke="#8ccbf2" points="549,-744 549,-765 802,-765 802,-744 549,-744"/>
<text text-anchor="start" x="552" y="-751.8" font-family="mono" font-size="14.00" fill="#c83500">@type</text>
<text text-anchor="start" x="594" y="-751.8" font-family="Times,serif" font-size="14.00"> : </text>
<text text-anchor="start" x="606" y="-751.8" font-family="Times,serif" font-style="italic" font-size="14.00">array of </text>
<text text-anchor="start" x="655" y="-751.8" font-family="mono" font-size="14.00" fill="#c83500">string</text>
<polygon fill="#ddeeff" stroke="none" points="549,-723 549,-744 802,-744 802,-723 549,-723"/>
<polygon fill="none" stroke="#8ccbf2" points="549,-723 549,-744 802,-744 802,-723 549,-723"/>
<text text-anchor="start" x="552" y="-730.8" font-family="mono" font-size="14.00" fill="#c83500">id</text>
<text text-anchor="start" x="569" y="-730.8" font-family="Times,serif" font-size="14.00"> : </text>
<text text-anchor="start" x="581" y="-730.8" font-family="mono" font-size="14.00" fill="#c83500">anyURI</text>
<text text-anchor="start" x="631" y="-730.8" font-family="Times,serif" font-size="14.00"> </text>
<text text-anchor="start" x="635" y="-730.8" font-family="Times,serif" font-style="italic" font-size="14.00">(mandatory)</text>
<polygon fill="#ddeeff" stroke="none" points="549,-702 549,-723 802,-723 802,-702 549,-702"/>
<polygon fill="none" stroke="#8ccbf2" points="549,-702 549,-723 802,-723 802,-702 549,-702"/>
<text text-anchor="start" x="552" y="-709.8" font-family="mono" font-size="14.00" fill="#c83500">lastModified</text>
<text text-anchor="start" x="652" y="-709.8" font-family="Times,serif" font-size="14.00"> : </text>
<text text-anchor="start" x="664" y="-709.8" font-family="mono" font-size="14.00" fill="#c83500">string</text>
<polygon fill="#ddeeff" stroke="none" points="549,-681 549,-702 802,-702 802,-681 549,-681"/>
<polygon fill="none" stroke="#8ccbf2" points="549,-681 549,-702 802,-702 802,-681 549,-681"/>
<text text-anchor="start" x="552" y="-688.8" font-family="mono" font-size="14.00" fill="#c83500">security</text>
<text text-anchor="start" x="619" y="-688.8" font-family="Times,serif" font-size="14.00"> : array of </text>
<text text-anchor="start" x="677" y="-688.8" font-family="mono" font-size="14.00" fill="#c83500">string</text>
<text text-anchor="start" x="727" y="-688.8" font-family="Times,serif" font-size="14.00"> </text>
<text text-anchor="start" x="731" y="-688.8" font-family="Times,serif" font-style="italic" font-size="14.00">(mandatory)</text>
<polygon fill="#ddeeff" stroke="none" points="549,-660 549,-681 802,-681 802,-660 549,-660"/>
<polygon fill="none" stroke="#8ccbf2" points="549,-660 549,-681 802,-681 802,-660 549,-660"/>
<text text-anchor="start" x="552" y="-667.8" font-family="mono" font-size="14.00" fill="#c83500">description</text>
<text text-anchor="start" x="643" y="-667.8" font-family="Times,serif" font-size="14.00"> : </text>
<text text-anchor="start" x="655" y="-667.8" font-family="mono" font-size="14.00" fill="#c83500">string</text>
<polygon fill="#ddeeff" stroke="none" points="549,-639 549,-660 802,-660 802,-639 549,-639"/>
<polygon fill="none" stroke="#8ccbf2" points="549,-639 549,-660 802,-660 802,-639 549,-639"/>
<text text-anchor="start" x="552" y="-646.8" font-family="mono" font-size="14.00" fill="#c83500">base</text>
<text text-anchor="start" x="586" y="-646.8" font-family="Times,serif" font-size="14.00"> : </text>
<text text-anchor="start" x="598" y="-646.8" font-family="mono" font-size="14.00" fill="#c83500">anyURI</text>
<polygon fill="#ddeeff" stroke="none" points="549,-618 549,-639 802,-639 802,-618 549,-618"/>
<polygon fill="none" stroke="#8ccbf2" points="549,-618 549,-639 802,-639 802,-618 549,-618"/>
<text text-anchor="start" x="552" y="-625.8" font-family="mono" font-size="14.00" fill="#c83500">name</text>
<text text-anchor="start" x="586" y="-625.8" font-family="Times,serif" font-size="14.00"> : </text>
<text text-anchor="start" x="598" y="-625.8" font-family="mono" font-size="14.00" fill="#c83500">string</text>
<text text-anchor="start" x="648" y="-625.8" font-family="Times,serif" font-size="14.00"> </text>
<text text-anchor="start" x="652" y="-625.8" font-family="Times,serif" font-style="italic" font-size="14.00">(mandatory)</text>
<polygon fill="#ddeeff" stroke="none" points="549,-597 549,-618 802,-618 802,-597 549,-597"/>
<polygon fill="none" stroke="#8ccbf2" points="549,-597 549,-618 802,-618 802,-597 549,-597"/>
<text text-anchor="start" x="552" y="-604.8" font-family="mono" font-size="14.00" fill="#c83500">created</text>
<text text-anchor="start" x="610" y="-604.8" font-family="Times,serif" font-size="14.00"> : </text>
<text text-anchor="start" x="622" y="-604.8" font-family="mono" font-size="14.00" fill="#c83500">string</text>
<polygon fill="#ddeeff" stroke="none" points="549,-576 549,-597 802,-597 802,-576 549,-576"/>
<polygon fill="none" stroke="#8ccbf2" points="549,-576 549,-597 802,-597 802,-576 549,-576"/>
<text text-anchor="start" x="552" y="-583.8" font-family="mono" font-size="14.00" fill="#c83500">support</text>
<text text-anchor="start" x="610" y="-583.8" font-family="Times,serif" font-size="14.00"> : </text>
<text text-anchor="start" x="622" y="-583.8" font-family="mono" font-size="14.00" fill="#c83500">string</text>
<polygon fill="#ddeeff" stroke="none" points="549,-555 549,-576 802,-576 802,-555 549,-555"/>
<polygon fill="none" stroke="#8ccbf2" points="549,-555 549,-576 802,-576 802,-555 549,-555"/>
<text text-anchor="start" x="552" y="-562.8" font-family="mono" font-size="14.00" fill="#c83500">names</text>
<text text-anchor="start" x="594" y="-562.8" font-family="Times,serif" font-size="14.00"> : </text>
<text text-anchor="start" x="606" y="-562.8" font-family="mono" font-size="14.00" fill="#c83500">string</text>
<text text-anchor="start" x="656" y="-562.8" font-family="Times,serif" font-size="14.00"> </text>
<text text-anchor="start" x="660" y="-562.8" font-family="Times,serif" font-style="italic" font-size="14.00">(mandatory)</text>
</g>
<!-- Thing&#45;&gt;MultiLanguage -->
<g id="edge6" class="edge"><title>Thing&#45;&gt;MultiLanguage</title>
<path fill="none" stroke="black" d="M540.477,-658.258C437.107,-637.342 293.603,-598.92 182,-533 115.432,-493.681 87.8765,-482.307 58,-411 29.086,-341.99 45.9047,-250.989 57.2484,-206.429"/>
<polygon fill="black" stroke="black" points="60.6633,-207.206 59.8447,-196.643 53.8974,-205.411 60.6633,-207.206"/>
<text text-anchor="start" x="58" y="-399.8" font-family="mono" font-size="14.00" fill="#c83500">descriptions</text>
<text text-anchor="middle" x="48.8447" y="-200.443" font-family="Times,serif" font-size="14.00">0..1</text>
</g>
<!-- Thing&#45;&gt;Form -->
<g id="edge9" class="edge"><title>Thing&#45;&gt;Form</title>
<path fill="none" stroke="black" d="M540.352,-673.262C420.787,-659.293 252.46,-618.273 169,-500 140.304,-459.334 178.736,-311.906 198,-274 199.606,-270.84 201.35,-267.712 203.21,-264.624"/>
<polygon fill="black" stroke="black" points="206.271,-266.335 208.738,-256.032 200.384,-262.548 206.271,-266.335"/>
<text text-anchor="start" x="164" y="-399.8" font-family="mono" font-size="14.00" fill="#c83500">forms</text>
<text text-anchor="middle" x="197.738" y="-259.832" font-family="Times,serif" font-size="14.00">0..*</text>
</g>
<!-- PropertyAffordance -->
<g id="node4" class="node"><title>PropertyAffordance</title>
<polygon fill="#8ccbf2" stroke="none" points="187,-464.5 187,-485.5 418,-485.5 418,-464.5 187,-464.5"/>
<polygon fill="none" stroke="#8ccbf2" points="187,-464.5 187,-485.5 418,-485.5 418,-464.5 187,-464.5"/>
<text text-anchor="start" x="228" y="-472.3" font-family="mono" font-weight="bold" font-size="14.00" fill="#c83500">PropertyAffordance</text>
<polygon fill="#ddeeff" stroke="none" points="187,-443.5 187,-464.5 418,-464.5 418,-443.5 187,-443.5"/>
<polygon fill="none" stroke="#8ccbf2" points="187,-443.5 187,-464.5 418,-464.5 418,-443.5 187,-443.5"/>
<text text-anchor="start" x="190" y="-451.3" font-family="mono" font-size="14.00" fill="#c83500">observable</text>
<text text-anchor="start" x="273" y="-451.3" font-family="Times,serif" font-size="14.00"> : </text>
<text text-anchor="start" x="285" y="-451.3" font-family="mono" font-size="14.00" fill="#c83500">boolean</text>
<text text-anchor="start" x="343" y="-451.3" font-family="Times,serif" font-size="14.00"> </text>
<text text-anchor="start" x="347" y="-451.3" font-family="Times,serif" font-style="italic" font-size="14.00">(mandatory)</text>
</g>
<!-- Thing&#45;&gt;PropertyAffordance -->
<g id="edge2" class="edge"><title>Thing&#45;&gt;PropertyAffordance</title>
<path fill="none" stroke="black" d="M540.338,-602.561C475.253,-565.132 401.018,-522.442 352.934,-494.791"/>
<polygon fill="black" stroke="black" points="354.386,-491.588 343.972,-489.637 350.897,-497.656 354.386,-491.588"/>
<text text-anchor="start" x="413" y="-521.8" font-family="mono" font-size="14.00" fill="#c83500">properties</text>
<text text-anchor="middle" x="332.972" y="-493.437" font-family="Times,serif" font-size="14.00">0..1</text>
</g>
<!-- VersionInfo -->
<g id="node6" class="node"><title>VersionInfo</title>
<polygon fill="#8ccbf2" stroke="none" points="882,-464.5 882,-485.5 1089,-485.5 1089,-464.5 882,-464.5"/>
<polygon fill="none" stroke="#8ccbf2" points="882,-464.5 882,-485.5 1089,-485.5 1089,-464.5 882,-464.5"/>
<text text-anchor="start" x="940" y="-472.3" font-family="mono" font-weight="bold" font-size="14.00" fill="#c83500">VersionInfo</text>
<polygon fill="#ddeeff" stroke="none" points="882,-443.5 882,-464.5 1089,-464.5 1089,-443.5 882,-443.5"/>
<polygon fill="none" stroke="#8ccbf2" points="882,-443.5 882,-464.5 1089,-464.5 1089,-443.5 882,-443.5"/>
<text text-anchor="start" x="885" y="-451.3" font-family="mono" font-size="14.00" fill="#c83500">instance</text>
<text text-anchor="start" x="952" y="-451.3" font-family="Times,serif" font-size="14.00"> : </text>
<text text-anchor="start" x="964" y="-451.3" font-family="mono" font-size="14.00" fill="#c83500">string</text>
<text text-anchor="start" x="1014" y="-451.3" font-family="Times,serif" font-size="14.00"> </text>
<text text-anchor="start" x="1018" y="-451.3" font-family="Times,serif" font-style="italic" font-size="14.00">(mandatory)</text>
</g>
<!-- Thing&#45;&gt;VersionInfo -->
<g id="edge8" class="edge"><title>Thing&#45;&gt;VersionInfo</title>
<path fill="none" stroke="black" d="M809.618,-586.853C857.218,-553.917 907.428,-519.175 941.868,-495.344"/>
<polygon fill="black" stroke="black" points="944.042,-498.097 950.274,-489.528 940.059,-492.34 944.042,-498.097"/>
<text text-anchor="start" x="902" y="-521.8" font-family="mono" font-size="14.00" fill="#c83500">version</text>
<text text-anchor="middle" x="939.274" y="-493.328" font-family="Times,serif" font-size="14.00">0..1</text>
</g>
<!-- ActionAffordance -->
<g id="node7" class="node"><title>ActionAffordance</title>
<polygon fill="#8ccbf2" stroke="none" points="452,-474.5 452,-495.5 683,-495.5 683,-474.5 452,-474.5"/>
<polygon fill="none" stroke="#8ccbf2" points="452,-474.5 452,-495.5 683,-495.5 683,-474.5 452,-474.5"/>
<text text-anchor="start" x="501" y="-482.3" font-family="mono" font-weight="bold" font-size="14.00" fill="#c83500">ActionAffordance</text>
<polygon fill="#ddeeff" stroke="none" points="452,-453.5 452,-474.5 683,-474.5 683,-453.5 452,-453.5"/>
<polygon fill="none" stroke="#8ccbf2" points="452,-453.5 452,-474.5 683,-474.5 683,-453.5 452,-453.5"/>
<text text-anchor="start" x="455" y="-461.3" font-family="mono" font-size="14.00" fill="#c83500">safe</text>
<text text-anchor="start" x="489" y="-461.3" font-family="Times,serif" font-size="14.00"> : </text>
<text text-anchor="start" x="501" y="-461.3" font-family="mono" font-size="14.00" fill="#c83500">boolean</text>
<text text-anchor="start" x="559" y="-461.3" font-family="Times,serif" font-size="14.00"> </text>
<text text-anchor="start" x="563" y="-461.3" font-family="Times,serif" font-style="italic" font-size="14.00">(mandatory)</text>
<polygon fill="#ddeeff" stroke="none" points="452,-432.5 452,-453.5 683,-453.5 683,-432.5 452,-432.5"/>
<polygon fill="none" stroke="#8ccbf2" points="452,-432.5 452,-453.5 683,-453.5 683,-432.5 452,-432.5"/>
<text text-anchor="start" x="455" y="-440.3" font-family="mono" font-size="14.00" fill="#c83500">idempotent</text>
<text text-anchor="start" x="538" y="-440.3" font-family="Times,serif" font-size="14.00"> : </text>
<text text-anchor="start" x="550" y="-440.3" font-family="mono" font-size="14.00" fill="#c83500">boolean</text>
<text text-anchor="start" x="608" y="-440.3" font-family="Times,serif" font-size="14.00"> </text>
<text text-anchor="start" x="612" y="-440.3" font-family="Times,serif" font-style="italic" font-size="14.00">(mandatory)</text>
</g>
<!-- Thing&#45;&gt;ActionAffordance -->
<g id="edge7" class="edge"><title>Thing&#45;&gt;ActionAffordance</title>
<path fill="none" stroke="black" d="M609.995,-550.892C602.519,-536.045 595.337,-521.78 589.055,-509.304"/>
<polygon fill="black" stroke="black" points="592.061,-507.49 584.437,-500.133 585.808,-510.638 592.061,-507.49"/>
<text text-anchor="start" x="599" y="-521.8" font-family="mono" font-size="14.00" fill="#c83500">actions</text>
<text text-anchor="middle" x="573.437" y="-503.933" font-family="Times,serif" font-size="14.00">0..1</text>
</g>
<!-- EventAffordance -->
<g id="node9" class="node"><title>EventAffordance</title>
<polygon fill="#8ccbf2" stroke="none" points="717,-453.5 717,-474.5 847,-474.5 847,-453.5 717,-453.5"/>
<polygon fill="none" stroke="#8ccbf2" points="717,-453.5 717,-474.5 847,-474.5 847,-453.5 717,-453.5"/>
<text text-anchor="start" x="720" y="-461.3" font-family="mono" font-weight="bold" font-size="14.00" fill="#c83500">EventAffordance</text>
</g>
<!-- Thing&#45;&gt;EventAffordance -->
<g id="edge4" class="edge"><title>Thing&#45;&gt;EventAffordance</title>
<path fill="none" stroke="black" d="M739.403,-550.892C750.619,-528.408 761.167,-507.263 768.961,-491.639"/>
<polygon fill="black" stroke="black" points="772.107,-493.172 773.439,-482.661 765.844,-490.047 772.107,-493.172"/>
<text text-anchor="start" x="754" y="-521.8" font-family="mono" font-size="14.00" fill="#c83500">events</text>
<text text-anchor="middle" x="762.439" y="-486.461" font-family="Times,serif" font-size="14.00">0..1</text>
</g>
<!-- SecurityScheme -->
<g id="node10" class="node"><title>SecurityScheme</title>
<polygon fill="#f2f2f2" stroke="none" points="1123,-453.5 1123,-474.5 1245,-474.5 1245,-453.5 1123,-453.5"/>
<polygon fill="none" stroke="#8c8c8c" points="1123,-453.5 1123,-474.5 1245,-474.5 1245,-453.5 1123,-453.5"/>
<text text-anchor="start" x="1126" y="-461.3" font-family="mono" font-weight="bold" font-size="14.00">SecurityScheme</text>
</g>
<!-- Thing&#45;&gt;SecurityScheme -->
<g id="edge3" class="edge"><title>Thing&#45;&gt;SecurityScheme</title>
<path fill="none" stroke="black" d="M809.828,-624.181C894.68,-588.899 1006.4,-542.162 1105,-500 1115.01,-495.72 1125.71,-491.087 1135.9,-486.647"/>
<polygon fill="black" stroke="black" points="1137.31,-489.849 1145.07,-482.64 1134.51,-483.433 1137.31,-489.849"/>
<text text-anchor="start" x="1059" y="-521.8" font-family="mono" font-size="14.00" fill="#c83500">securityDefinitions</text>
<text text-anchor="middle" x="1134.07" y="-486.44" font-family="Times,serif" font-size="14.00">1..1</text>
</g>
<!-- Link -->
<g id="node11" class="node"><title>Link</title>
<polygon fill="#f2f2f2" stroke="none" points="1311,-453.5 1311,-474.5 1351,-474.5 1351,-453.5 1311,-453.5"/>
<polygon fill="none" stroke="#8c8c8c" points="1311,-453.5 1311,-474.5 1351,-474.5 1351,-453.5 1311,-453.5"/>
<text text-anchor="start" x="1314" y="-461.3" font-family="mono" font-weight="bold" font-size="14.00">Link</text>
</g>
<!-- Thing&#45;&gt;Link -->
<g id="edge5" class="edge"><title>Thing&#45;&gt;Link</title>
<path fill="none" stroke="black" d="M809.571,-654.81C922.091,-631.153 1085.34,-590.715 1220,-533 1248.06,-520.974 1277.48,-502.796 1298.97,-488.333"/>
<polygon fill="black" stroke="black" points="1301.1,-491.121 1307.38,-482.592 1297.15,-485.339 1301.1,-491.121"/>
<text text-anchor="start" x="1249" y="-521.8" font-family="mono" font-size="14.00" fill="#c83500">links</text>
<text text-anchor="middle" x="1296.38" y="-486.392" font-family="Times,serif" font-size="14.00">0..*</text>
</g>
<!-- InteractionAffordance -->
<g id="node8" class="node"><title>InteractionAffordance</title>
<polygon fill="#8ccbf2" stroke="none" points="212,-352.5 212,-373.5 392,-373.5 392,-352.5 212,-352.5"/>
<polygon fill="none" stroke="#8ccbf2" points="212,-352.5 212,-373.5 392,-373.5 392,-352.5 212,-352.5"/>
<text text-anchor="start" x="215" y="-360.3" font-family="mono" font-weight="bold" font-size="14.00" fill="#c83500">InteractionAffordance</text>
<polygon fill="#ddeeff" stroke="none" points="212,-331.5 212,-352.5 392,-352.5 392,-331.5 212,-331.5"/>
<polygon fill="none" stroke="#8ccbf2" points="212,-331.5 212,-352.5 392,-352.5 392,-331.5 212,-331.5"/>
<text text-anchor="start" x="215" y="-339.3" font-family="mono" font-size="14.00" fill="#c83500">description</text>
<text text-anchor="start" x="306" y="-339.3" font-family="Times,serif" font-size="14.00"> : </text>
<text text-anchor="start" x="318" y="-339.3" font-family="mono" font-size="14.00" fill="#c83500">string</text>
<polygon fill="#ddeeff" stroke="none" points="212,-310.5 212,-331.5 392,-331.5 392,-310.5 212,-310.5"/>
<polygon fill="none" stroke="#8ccbf2" points="212,-310.5 212,-331.5 392,-331.5 392,-310.5 212,-310.5"/>
<text text-anchor="start" x="215" y="-318.3" font-family="mono" font-size="14.00" fill="#c83500">title</text>
<text text-anchor="start" x="257" y="-318.3" font-family="Times,serif" font-size="14.00"> : </text>
<text text-anchor="start" x="269" y="-318.3" font-family="mono" font-size="14.00" fill="#c83500">string</text>
</g>
<!-- PropertyAffordance&#45;&gt;InteractionAffordance -->
<g id="edge21" class="edge"><title>PropertyAffordance&#45;&gt;InteractionAffordance</title>
<path fill="none" stroke="black" d="M302,-439.216C302,-424.697 302,-405.792 302,-388.621"/>
<polygon fill="white" stroke="black" points="305.5,-388.209 302,-378.209 298.5,-388.209 305.5,-388.209"/>
</g>
<!-- ActionAffordance&#45;&gt;InteractionAffordance -->
<g id="edge19" class="edge"><title>ActionAffordance&#45;&gt;InteractionAffordance</title>
<path fill="none" stroke="black" d="M490.707,-428.952C458.421,-414.332 420.671,-397.238 387.454,-382.196"/>
<polygon fill="white" stroke="black" points="388.767,-378.949 378.214,-378.012 385.879,-385.325 388.767,-378.949"/>
</g>
<!-- DataSchema -->
<g id="node12" class="node"><title>DataSchema</title>
<polygon fill="#f2f2f2" stroke="none" points="563,-167.5 563,-188.5 652,-188.5 652,-167.5 563,-167.5"/>
<polygon fill="none" stroke="#8c8c8c" points="563,-167.5 563,-188.5 652,-188.5 652,-167.5 563,-167.5"/>
<text text-anchor="start" x="566" y="-175.3" font-family="mono" font-weight="bold" font-size="14.00">DataSchema</text>
</g>
<!-- ActionAffordance&#45;&gt;DataSchema -->
<g id="edge10" class="edge"><title>ActionAffordance&#45;&gt;DataSchema</title>
<path fill="none" stroke="black" d="M569.339,-428.883C571.718,-397.093 575.924,-348.73 582,-307 587.085,-272.079 595.291,-232.223 600.905,-206.506"/>
<polygon fill="black" stroke="black" points="604.325,-207.25 603.063,-196.731 597.489,-205.741 604.325,-207.25"/>
<text text-anchor="start" x="582" y="-338.8" font-family="mono" font-size="14.00" fill="#c83500">input</text>
<text text-anchor="middle" x="592.063" y="-200.531" font-family="Times,serif" font-size="14.00">0..1</text>
</g>
<!-- ActionAffordance&#45;&gt;DataSchema -->
<g id="edge11" class="edge"><title>ActionAffordance&#45;&gt;DataSchema</title>
<path fill="none" stroke="black" d="M542.848,-428.991C533.793,-414.038 524.591,-395.883 520,-378 512.153,-347.436 510.693,-337.152 520,-307 532.356,-266.971 562.064,-228.285 583.324,-204.229"/>
<polygon fill="black" stroke="black" points="586.064,-206.416 590.173,-196.651 580.871,-201.723 586.064,-206.416"/>
<text text-anchor="start" x="520" y="-338.8" font-family="mono" font-size="14.00" fill="#c83500">output</text>
<text text-anchor="middle" x="579.173" y="-200.451" font-family="Times,serif" font-size="14.00">0..1</text>
</g>
<!-- InteractionAffordance&#45;&gt;MultiLanguage -->
<g id="edge12" class="edge"><title>InteractionAffordance&#45;&gt;MultiLanguage</title>
<path fill="none" stroke="black" d="M203.844,-335.042C167.973,-328.105 129.493,-314.655 102,-289 79.1241,-267.654 70.3885,-231.688 67.0545,-206.831"/>
<polygon fill="black" stroke="black" points="70.5004,-206.153 65.901,-196.609 63.5445,-206.938 70.5004,-206.153"/>
<text text-anchor="start" x="102" y="-277.8" font-family="mono" font-size="14.00" fill="#c83500">descriptions</text>
<text text-anchor="middle" x="76.901" y="-200.409" font-family="Times,serif" font-size="14.00">0..1</text>
</g>
<!-- InteractionAffordance&#45;&gt;MultiLanguage -->
<g id="edge14" class="edge"><title>InteractionAffordance&#45;&gt;MultiLanguage</title>
<path fill="none" stroke="black" d="M255.591,-306.856C239.173,-295.508 220.243,-283.411 202,-274 181.751,-263.554 173.607,-267.604 154,-256 129.671,-241.601 105.57,-220.338 88.5968,-203.882"/>
<polygon fill="black" stroke="black" points="90.8993,-201.236 81.3246,-196.7 85.9809,-206.217 90.8993,-201.236"/>
<text text-anchor="start" x="228" y="-277.8" font-family="mono" font-size="14.00" fill="#c83500">titles</text>
<text text-anchor="middle" x="92.3246" y="-200.5" font-family="Times,serif" font-size="14.00">0..1</text>
</g>
<!-- InteractionAffordance&#45;&gt;Form -->
<g id="edge13" class="edge"><title>InteractionAffordance&#45;&gt;Form</title>
<path fill="none" stroke="black" d="M298.782,-306.747C297.663,-294.661 296.353,-280.509 295.02,-266.119"/>
<polygon fill="black" stroke="black" points="298.504,-265.776 294.096,-256.141 291.533,-266.422 298.504,-265.776"/>
<text text-anchor="start" x="297" y="-277.8" font-family="mono" font-size="14.00" fill="#c83500">forms</text>
<text text-anchor="middle" x="283.096" y="-259.941" font-family="Times,serif" font-size="14.00">1..*</text>
</g>
<!-- InteractionAffordance&#45;&gt;DataSchema -->
<g id="edge15" class="edge"><title>InteractionAffordance&#45;&gt;DataSchema</title>
<path fill="none" stroke="black" d="M330.264,-306.674C341.09,-295.045 354.184,-282.816 368,-274 388.263,-261.07 396.528,-264.532 419,-256 466.224,-238.07 519.51,-216.232 557.262,-200.486"/>
<polygon fill="black" stroke="black" points="558.635,-203.706 566.512,-196.62 555.935,-197.247 558.635,-203.706"/>
<text text-anchor="start" x="368" y="-277.8" font-family="mono" font-size="14.00" fill="#c83500">uriVariables</text>
<text text-anchor="middle" x="555.512" y="-200.42" font-family="Times,serif" font-size="14.00">0..1</text>
</g>
<!-- EventAffordance&#45;&gt;InteractionAffordance -->
<g id="edge20" class="edge"><title>EventAffordance&#45;&gt;InteractionAffordance</title>
<path fill="none" stroke="black" d="M744.94,-446.385C730.779,-440.301 714.345,-433.782 699,-429 647.152,-412.843 513.084,-389.459 460,-378 443.826,-374.508 426.725,-370.796 409.982,-367.15"/>
<polygon fill="white" stroke="black" points="410.69,-363.722 400.174,-365.013 409.2,-370.562 410.69,-363.722"/>
</g>
<!-- EventAffordance&#45;&gt;DataSchema -->
<g id="edge16" class="edge"><title>EventAffordance&#45;&gt;DataSchema</title>
<path fill="none" stroke="black" d="M744.918,-446.401C717.526,-431.921 681.417,-408.629 660,-378 622.928,-324.982 611.782,-247.453 608.435,-206.755"/>
<polygon fill="black" stroke="black" points="611.908,-206.259 607.697,-196.538 604.926,-206.764 611.908,-206.259"/>
<text text-anchor="start" x="660" y="-338.8" font-family="mono" font-size="14.00" fill="#c83500">subscription</text>
<text text-anchor="middle" x="618.697" y="-200.338" font-family="Times,serif" font-size="14.00">0..1</text>
</g>
<!-- EventAffordance&#45;&gt;DataSchema -->
<g id="edge17" class="edge"><title>EventAffordance&#45;&gt;DataSchema</title>
<path fill="none" stroke="black" d="M783.45,-446.263C785.191,-416.02 785.218,-352.312 760,-307 734.035,-260.347 683.728,-223.587 647.891,-201.758"/>
<polygon fill="black" stroke="black" points="649.498,-198.642 639.115,-196.534 645.917,-204.657 649.498,-198.642"/>
<text text-anchor="start" x="782" y="-338.8" font-family="mono" font-size="14.00" fill="#c83500">data</text>
<text text-anchor="middle" x="650.115" y="-200.334" font-family="Times,serif" font-size="14.00">0..1</text>
</g>
<!-- EventAffordance&#45;&gt;DataSchema -->
<g id="edge18" class="edge"><title>EventAffordance&#45;&gt;DataSchema</title>
<path fill="none" stroke="black" d="M793.801,-446.399C812.928,-416.365 846.06,-352.971 820,-307 787.953,-250.467 719.765,-216.298 669.126,-197.76"/>
<polygon fill="black" stroke="black" points="670.163,-194.414 659.569,-194.369 667.822,-201.011 670.163,-194.414"/>
<text text-anchor="start" x="830" y="-338.8" font-family="mono" font-size="14.00" fill="#c83500">cancellation</text>
<text text-anchor="middle" x="670.569" y="-183.169" font-family="Times,serif" font-size="14.00">0..1</text>
</g>
</g>
</svg>
