<?xml version="1.0" encoding="UTF-8" standalone="no"?>
<!DOCTYPE svg PUBLIC "-//W3C//DTD SVG 1.1//EN"
 "http://www.w3.org/Graphics/SVG/1.1/DTD/svg11.dtd">
<!-- Generated by graphviz version 2.38.0 (20140413.2041)
 -->
<!-- Title: %3 Pages: 1 -->
<svg width="1334pt" height="819pt"
 viewBox="0.00 0.00 1334.00 819.00" xmlns="http://www.w3.org/2000/svg" xmlns:xlink="http://www.w3.org/1999/xlink">
<g id="graph0" class="graph" transform="scale(1 1) rotate(0) translate(4 815)">
<title>%3</title>
<polygon fill="white" stroke="none" points="-4,4 -4,-815 1330,-815 1330,4 -4,4"/>
<!-- MultiLanguage -->
<g id="node1" class="node"><title>MultiLanguage</title>
<polygon fill="#8ccbf2" stroke="none" points="8,-167.5 8,-188.5 122,-188.5 122,-167.5 8,-167.5"/>
<polygon fill="none" stroke="#8ccbf2" points="8,-167.5 8,-188.5 122,-188.5 122,-167.5 8,-167.5"/>
<text text-anchor="start" x="11" y="-175.3" font-family="mono" font-weight="bold" font-size="14.00" fill="#c83500">MultiLanguage</text>
</g>
<!-- Form -->
<g id="node2" class="node"><title>Form</title>
<polygon fill="#8ccbf2" stroke="none" points="172,-230.5 172,-251.5 403,-251.5 403,-230.5 172,-230.5"/>
<polygon fill="none" stroke="#8ccbf2" points="172,-230.5 172,-251.5 403,-251.5 403,-230.5 172,-230.5"/>
<text text-anchor="start" x="270.5" y="-238.3" font-family="mono" font-weight="bold" font-size="14.00" fill="#c83500">Form</text>
<polygon fill="#ddeeff" stroke="none" points="172,-209.5 172,-230.5 403,-230.5 403,-209.5 172,-209.5"/>
<polygon fill="none" stroke="#8ccbf2" points="172,-209.5 172,-230.5 403,-230.5 403,-209.5 172,-209.5"/>
<text text-anchor="start" x="175" y="-217.3" font-family="mono" font-size="14.00" fill="#c83500">security</text>
<text text-anchor="start" x="242" y="-217.3" font-family="Times,serif" font-size="14.00"> : array of </text>
<text text-anchor="start" x="300" y="-217.3" font-family="mono" font-size="14.00" fill="#c83500">string</text>
<polygon fill="#ddeeff" stroke="none" points="172,-188.5 172,-209.5 403,-209.5 403,-188.5 172,-188.5"/>
<polygon fill="none" stroke="#8ccbf2" points="172,-188.5 172,-209.5 403,-209.5 403,-188.5 172,-188.5"/>
<text text-anchor="start" x="175" y="-196.3" font-family="mono" font-size="14.00" fill="#c83500">scopes</text>
<text text-anchor="start" x="225" y="-196.3" font-family="Times,serif" font-size="14.00"> : array of </text>
<text text-anchor="start" x="283" y="-196.3" font-family="mono" font-size="14.00" fill="#c83500">string</text>
<polygon fill="#ddeeff" stroke="none" points="172,-167.5 172,-188.5 403,-188.5 403,-167.5 172,-167.5"/>
<polygon fill="none" stroke="#8ccbf2" points="172,-167.5 172,-188.5 403,-188.5 403,-167.5 172,-167.5"/>
<text text-anchor="start" x="175" y="-175.3" font-family="mono" font-size="14.00" fill="#c83500">href</text>
<text text-anchor="start" x="209" y="-175.3" font-family="Times,serif" font-size="14.00"> : </text>
<text text-anchor="start" x="221" y="-175.3" font-family="mono" font-size="14.00" fill="#c83500">anyURI</text>
<text text-anchor="start" x="271" y="-175.3" font-family="Times,serif" font-size="14.00"> </text>
<text text-anchor="start" x="275" y="-175.3" font-family="Times,serif" font-style="italic" font-size="14.00">(mandatory)</text>
<polygon fill="#ddeeff" stroke="none" points="172,-146.5 172,-167.5 403,-167.5 403,-146.5 172,-146.5"/>
<polygon fill="none" stroke="#8ccbf2" points="172,-146.5 172,-167.5 403,-167.5 403,-146.5 172,-146.5"/>
<text text-anchor="start" x="175" y="-154.3" font-family="mono" font-size="14.00" fill="#c83500">subprotocol</text>
<text text-anchor="start" x="266" y="-154.3" font-family="Times,serif" font-size="14.00"> : </text>
<text text-anchor="start" x="278" y="-154.3" font-family="mono" font-size="14.00" fill="#c83500">string</text>
<polygon fill="#ddeeff" stroke="none" points="172,-125.5 172,-146.5 403,-146.5 403,-125.5 172,-125.5"/>
<polygon fill="none" stroke="#8ccbf2" points="172,-125.5 172,-146.5 403,-146.5 403,-125.5 172,-125.5"/>
<text text-anchor="start" x="175" y="-133.3" font-family="mono" font-size="14.00" fill="#c83500">contentType</text>
<text text-anchor="start" x="266" y="-133.3" font-family="Times,serif" font-size="14.00"> : </text>
<text text-anchor="start" x="278" y="-133.3" font-family="mono" font-size="14.00" fill="#c83500">string</text>
<text text-anchor="start" x="328" y="-133.3" font-family="Times,serif" font-size="14.00"> </text>
<text text-anchor="start" x="332" y="-133.3" font-family="Times,serif" font-style="italic" font-size="14.00">(mandatory)</text>
<polygon fill="#ddeeff" stroke="none" points="172,-104.5 172,-125.5 403,-125.5 403,-104.5 172,-104.5"/>
<polygon fill="none" stroke="#8ccbf2" points="172,-104.5 172,-125.5 403,-125.5 403,-104.5 172,-104.5"/>
<text text-anchor="start" x="175" y="-112.3" font-family="mono" font-size="14.00" fill="#c83500">op</text>
<text text-anchor="start" x="192" y="-112.3" font-family="Times,serif" font-size="14.00"> : </text>
<text text-anchor="start" x="204" y="-112.3" font-family="mono" font-size="14.00" fill="#c83500">string</text>
</g>
<!-- ExpectedResponse -->
<g id="node5" class="node"><title>ExpectedResponse</title>
<polygon fill="#8ccbf2" stroke="none" points="172,-25 172,-46 403,-46 403,-25 172,-25"/>
<polygon fill="none" stroke="#8ccbf2" points="172,-25 172,-46 403,-46 403,-25 172,-25"/>
<text text-anchor="start" x="221" y="-32.8" font-family="mono" font-weight="bold" font-size="14.00" fill="#c83500">ExpectedResponse</text>
<polygon fill="#ddeeff" stroke="none" points="172,-4 172,-25 403,-25 403,-4 172,-4"/>
<polygon fill="none" stroke="#8ccbf2" points="172,-4 172,-25 403,-25 403,-4 172,-4"/>
<text text-anchor="start" x="175" y="-11.8" font-family="mono" font-size="14.00" fill="#c83500">contentType</text>
<text text-anchor="start" x="266" y="-11.8" font-family="Times,serif" font-size="14.00"> : </text>
<text text-anchor="start" x="278" y="-11.8" font-family="mono" font-size="14.00" fill="#c83500">string</text>
<text text-anchor="start" x="328" y="-11.8" font-family="Times,serif" font-size="14.00"> </text>
<text text-anchor="start" x="332" y="-11.8" font-family="Times,serif" font-style="italic" font-size="14.00">(mandatory)</text>
</g>
<!-- Form&#45;&gt;ExpectedResponse -->
<g id="edge1" class="edge"><title>Form&#45;&gt;ExpectedResponse</title>
<path fill="none" stroke="black" d="M287,-100.862C287,-86.5577 287,-72.2953 287,-60.116"/>
<polygon fill="black" stroke="black" points="290.5,-60.0004 287,-50.0004 283.5,-60.0004 290.5,-60.0004"/>
<text text-anchor="start" x="287" y="-71.8" font-family="mono" font-size="14.00" fill="#c83500">response</text>
<text text-anchor="middle" x="276" y="-53.8004" font-family="Times,serif" font-size="14.00">0..1</text>
</g>
<!-- Thing -->
<g id="node3" class="node"><title>Thing</title>
<polygon fill="#8ccbf2" stroke="none" points="549,-786 549,-807 802,-807 802,-786 549,-786"/>
<polygon fill="none" stroke="#8ccbf2" points="549,-786 549,-807 802,-807 802,-786 549,-786"/>
<text text-anchor="start" x="654.5" y="-793.8" font-family="mono" font-weight="bold" font-size="14.00" fill="#c83500">Thing</text>
<polygon fill="#ddeeff" stroke="none" points="549,-765 549,-786 802,-786 802,-765 549,-765"/>
<polygon fill="none" stroke="#8ccbf2" points="549,-765 549,-786 802,-786 802,-765 549,-765"/>
<text text-anchor="start" x="552" y="-772.8" font-family="mono" font-size="14.00" fill="#c83500">@context</text>
<text text-anchor="start" x="619" y="-772.8" font-family="Times,serif" font-size="14.00"> : </text>
<text text-anchor="start" x="631" y="-772.8" font-family="Times,serif" font-style="italic" font-size="14.00">array</text>
<text text-anchor="start" x="662" y="-772.8" font-family="Times,serif" font-size="14.00"> </text>
<text text-anchor="start" x="666" y="-772.8" font-family="Times,serif" font-style="italic" font-size="14.00">(mandatory)</text>
<polygon fill="#ddeeff" stroke="none" points="549,-744 549,-765 802,-765 802,-744 549,-744"/>
<polygon fill="none" stroke="#8ccbf2" points="549,-744 549,-765 802,-765 802,-744 549,-744"/>
<text text-anchor="start" x="552" y="-751.8" font-family="mono" font-size="14.00" fill="#c83500">@type</text>
<text text-anchor="start" x="594" y="-751.8" font-family="Times,serif" font-size="14.00"> : </text>
<text text-anchor="start" x="606" y="-751.8" font-family="Times,serif" font-style="italic" font-size="14.00">array of </text>
<text text-anchor="start" x="655" y="-751.8" font-family="mono" font-size="14.00" fill="#c83500">string</text>
<polygon fill="#ddeeff" stroke="none" points="549,-723 549,-744 802,-744 802,-723 549,-723"/>
<polygon fill="none" stroke="#8ccbf2" points="549,-723 549,-744 802,-744 802,-723 549,-723"/>
<text text-anchor="start" x="552" y="-730.8" font-family="mono" font-size="14.00" fill="#c83500">id</text>
<text text-anchor="start" x="569" y="-730.8" font-family="Times,serif" font-size="14.00"> : </text>
<text text-anchor="start" x="581" y="-730.8" font-family="mono" font-size="14.00" fill="#c83500">anyURI</text>
<text text-anchor="start" x="631" y="-730.8" font-family="Times,serif" font-size="14.00"> </text>
<text text-anchor="start" x="635" y="-730.8" font-family="Times,serif" font-style="italic" font-size="14.00">(mandatory)</text>
<polygon fill="#ddeeff" stroke="none" points="549,-702 549,-723 802,-723 802,-702 549,-702"/>
<polygon fill="none" stroke="#8ccbf2" points="549,-702 549,-723 802,-723 802,-702 549,-702"/>
<text text-anchor="start" x="552" y="-709.8" font-family="mono" font-size="14.00" fill="#c83500">description</text>
<text text-anchor="start" x="643" y="-709.8" font-family="Times,serif" font-size="14.00"> : </text>
<text text-anchor="start" x="655" y="-709.8" font-family="mono" font-size="14.00" fill="#c83500">string</text>
<polygon fill="#ddeeff" stroke="none" points="549,-681 549,-702 802,-702 802,-681 549,-681"/>
<polygon fill="none" stroke="#8ccbf2" points="549,-681 549,-702 802,-702 802,-681 549,-681"/>
<text text-anchor="start" x="552" y="-688.8" font-family="mono" font-size="14.00" fill="#c83500">base</text>
<text text-anchor="start" x="586" y="-688.8" font-family="Times,serif" font-size="14.00"> : </text>
<text text-anchor="start" x="598" y="-688.8" font-family="mono" font-size="14.00" fill="#c83500">anyURI</text>
<polygon fill="#ddeeff" stroke="none" points="549,-660 549,-681 802,-681 802,-660 549,-660"/>
<polygon fill="none" stroke="#8ccbf2" points="549,-660 549,-681 802,-681 802,-660 549,-660"/>
<text text-anchor="start" x="552" y="-667.8" font-family="mono" font-size="14.00" fill="#c83500">support</text>
<text text-anchor="start" x="610" y="-667.8" font-family="Times,serif" font-size="14.00"> : </text>
<text text-anchor="start" x="622" y="-667.8" font-family="mono" font-size="14.00" fill="#c83500">string</text>
<polygon fill="#ddeeff" stroke="none" points="549,-639 549,-660 802,-660 802,-639 549,-639"/>
<polygon fill="none" stroke="#8ccbf2" points="549,-639 549,-660 802,-660 802,-639 549,-639"/>
<text text-anchor="start" x="552" y="-646.8" font-family="mono" font-size="14.00" fill="#c83500">created</text>
<text text-anchor="start" x="610" y="-646.8" font-family="Times,serif" font-size="14.00"> : </text>
<text text-anchor="start" x="622" y="-646.8" font-family="mono" font-size="14.00" fill="#c83500">string</text>
<polygon fill="#ddeeff" stroke="none" points="549,-618 549,-639 802,-639 802,-618 549,-618"/>
<polygon fill="none" stroke="#8ccbf2" points="549,-618 549,-639 802,-639 802,-618 549,-618"/>
<text text-anchor="start" x="552" y="-625.8" font-family="mono" font-size="14.00" fill="#c83500">lastModified</text>
<text text-anchor="start" x="652" y="-625.8" font-family="Times,serif" font-size="14.00"> : </text>
<text text-anchor="start" x="664" y="-625.8" font-family="mono" font-size="14.00" fill="#c83500">string</text>
<polygon fill="#ddeeff" stroke="none" points="549,-597 549,-618 802,-618 802,-597 549,-597"/>
<polygon fill="none" stroke="#8ccbf2" points="549,-597 549,-618 802,-618 802,-597 549,-597"/>
<text text-anchor="start" x="552" y="-604.8" font-family="mono" font-size="14.00" fill="#c83500">names</text>
<text text-anchor="start" x="594" y="-604.8" font-family="Times,serif" font-size="14.00"> : </text>
<text text-anchor="start" x="606" y="-604.8" font-family="mono" font-size="14.00" fill="#c83500">string</text>
<text text-anchor="start" x="656" y="-604.8" font-family="Times,serif" font-size="14.00"> </text>
<text text-anchor="start" x="660" y="-604.8" font-family="Times,serif" font-style="italic" font-size="14.00">(mandatory)</text>
<polygon fill="#ddeeff" stroke="none" points="549,-576 549,-597 802,-597 802,-576 549,-576"/>
<polygon fill="none" stroke="#8ccbf2" points="549,-576 549,-597 802,-597 802,-576 549,-576"/>
<text text-anchor="start" x="552" y="-583.8" font-family="mono" font-size="14.00" fill="#c83500">security</text>
<text text-anchor="start" x="619" y="-583.8" font-family="Times,serif" font-size="14.00"> : array of </text>
<text text-anchor="start" x="677" y="-583.8" font-family="mono" font-size="14.00" fill="#c83500">string</text>
<text text-anchor="start" x="727" y="-583.8" font-family="Times,serif" font-size="14.00"> </text>
<text text-anchor="start" x="731" y="-583.8" font-family="Times,serif" font-style="italic" font-size="14.00">(mandatory)</text>
<polygon fill="#ddeeff" stroke="none" points="549,-555 549,-576 802,-576 802,-555 549,-555"/>
<polygon fill="none" stroke="#8ccbf2" points="549,-555 549,-576 802,-576 802,-555 549,-555"/>
<text text-anchor="start" x="552" y="-562.8" font-family="mono" font-size="14.00" fill="#c83500">name</text>
<text text-anchor="start" x="586" y="-562.8" font-family="Times,serif" font-size="14.00"> : </text>
<text text-anchor="start" x="598" y="-562.8" font-family="mono" font-size="14.00" fill="#c83500">string</text>
<text text-anchor="start" x="648" y="-562.8" font-family="Times,serif" font-size="14.00"> </text>
<text text-anchor="start" x="652" y="-562.8" font-family="Times,serif" font-style="italic" font-size="14.00">(mandatory)</text>
</g>
<!-- Thing&#45;&gt;MultiLanguage -->
<g id="edge2" class="edge"><title>Thing&#45;&gt;MultiLanguage</title>
<path fill="none" stroke="black" d="M540.477,-658.258C437.107,-637.342 293.603,-598.92 182,-533 115.432,-493.681 87.8765,-482.307 58,-411 29.086,-341.99 45.9047,-250.989 57.2484,-206.429"/>
<polygon fill="black" stroke="black" points="60.6633,-207.206 59.8447,-196.643 53.8974,-205.411 60.6633,-207.206"/>
<text text-anchor="start" x="58" y="-399.8" font-family="mono" font-size="14.00" fill="#c83500">descriptions</text>
<text text-anchor="middle" x="48.8447" y="-200.443" font-family="Times,serif" font-size="14.00">0..1</text>
</g>
<!-- Thing&#45;&gt;Form -->
<g id="edge7" class="edge"><title>Thing&#45;&gt;Form</title>
<path fill="none" stroke="black" d="M540.352,-673.262C420.787,-659.293 252.46,-618.273 169,-500 140.304,-459.334 178.736,-311.906 198,-274 199.606,-270.84 201.35,-267.712 203.21,-264.624"/>
<polygon fill="black" stroke="black" points="206.271,-266.335 208.738,-256.032 200.384,-262.548 206.271,-266.335"/>
<text text-anchor="start" x="164" y="-399.8" font-family="mono" font-size="14.00" fill="#c83500">forms</text>
<text text-anchor="middle" x="197.738" y="-259.832" font-family="Times,serif" font-size="14.00">0..*</text>
</g>
<!-- PropertyAffordance -->
<g id="node4" class="node"><title>PropertyAffordance</title>
<polygon fill="#8ccbf2" stroke="none" points="187,-464.5 187,-485.5 418,-485.5 418,-464.5 187,-464.5"/>
<polygon fill="none" stroke="#8ccbf2" points="187,-464.5 187,-485.5 418,-485.5 418,-464.5 187,-464.5"/>
<text text-anchor="start" x="228" y="-472.3" font-family="mono" font-weight="bold" font-size="14.00" fill="#c83500">PropertyAffordance</text>
<polygon fill="#ddeeff" stroke="none" points="187,-443.5 187,-464.5 418,-464.5 418,-443.5 187,-443.5"/>
<polygon fill="none" stroke="#8ccbf2" points="187,-443.5 187,-464.5 418,-464.5 418,-443.5 187,-443.5"/>
<text text-anchor="start" x="190" y="-451.3" font-family="mono" font-size="14.00" fill="#c83500">observable</text>
<text text-anchor="start" x="273" y="-451.3" font-family="Times,serif" font-size="14.00"> : </text>
<text text-anchor="start" x="285" y="-451.3" font-family="mono" font-size="14.00" fill="#c83500">boolean</text>
<text text-anchor="start" x="343" y="-451.3" font-family="Times,serif" font-size="14.00"> </text>
<text text-anchor="start" x="347" y="-451.3" font-family="Times,serif" font-style="italic" font-size="14.00">(mandatory)</text>
</g>
<!-- Thing&#45;&gt;PropertyAffordance -->
<g id="edge9" class="edge"><title>Thing&#45;&gt;PropertyAffordance</title>
<path fill="none" stroke="black" d="M540.338,-602.561C475.253,-565.132 401.018,-522.442 352.934,-494.791"/>
<polygon fill="black" stroke="black" points="354.386,-491.588 343.972,-489.637 350.897,-497.656 354.386,-491.588"/>
<text text-anchor="start" x="413" y="-521.8" font-family="mono" font-size="14.00" fill="#c83500">properties</text>
<text text-anchor="middle" x="332.972" y="-493.437" font-family="Times,serif" font-size="14.00">0..1</text>
</g>
<!-- VersionInfo -->
<g id="node6" class="node"><title>VersionInfo</title>
<polygon fill="#8ccbf2" stroke="none" points="882,-464.5 882,-485.5 1089,-485.5 1089,-464.5 882,-464.5"/>
<polygon fill="none" stroke="#8ccbf2" points="882,-464.5 882,-485.5 1089,-485.5 1089,-464.5 882,-464.5"/>
<text text-anchor="start" x="940" y="-472.3" font-family="mono" font-weight="bold" font-size="14.00" fill="#c83500">VersionInfo</text>
<polygon fill="#ddeeff" stroke="none" points="882,-443.5 882,-464.5 1089,-464.5 1089,-443.5 882,-443.5"/>
<polygon fill="none" stroke="#8ccbf2" points="882,-443.5 882,-464.5 1089,-464.5 1089,-443.5 882,-443.5"/>
<text text-anchor="start" x="885" y="-451.3" font-family="mono" font-size="14.00" fill="#c83500">instance</text>
<text text-anchor="start" x="952" y="-451.3" font-family="Times,serif" font-size="14.00"> : </text>
<text text-anchor="start" x="964" y="-451.3" font-family="mono" font-size="14.00" fill="#c83500">string</text>
<text text-anchor="start" x="1014" y="-451.3" font-family="Times,serif" font-size="14.00"> </text>
<text text-anchor="start" x="1018" y="-451.3" font-family="Times,serif" font-style="italic" font-size="14.00">(mandatory)</text>
</g>
<!-- Thing&#45;&gt;VersionInfo -->
<g id="edge4" class="edge"><title>Thing&#45;&gt;VersionInfo</title>
<path fill="none" stroke="black" d="M809.618,-586.853C857.218,-553.917 907.428,-519.175 941.868,-495.344"/>
<polygon fill="black" stroke="black" points="944.042,-498.097 950.274,-489.528 940.059,-492.34 944.042,-498.097"/>
<text text-anchor="start" x="902" y="-521.8" font-family="mono" font-size="14.00" fill="#c83500">version</text>
<text text-anchor="middle" x="939.274" y="-493.328" font-family="Times,serif" font-size="14.00">0..1</text>
</g>
<!-- ActionAffordance -->
<g id="node7" class="node"><title>ActionAffordance</title>
<polygon fill="#8ccbf2" stroke="none" points="452,-474.5 452,-495.5 683,-495.5 683,-474.5 452,-474.5"/>
<polygon fill="none" stroke="#8ccbf2" points="452,-474.5 452,-495.5 683,-495.5 683,-474.5 452,-474.5"/>
<text text-anchor="start" x="501" y="-482.3" font-family="mono" font-weight="bold" font-size="14.00" fill="#c83500">ActionAffordance</text>
<polygon fill="#ddeeff" stroke="none" points="452,-453.5 452,-474.5 683,-474.5 683,-453.5 452,-453.5"/>
<polygon fill="none" stroke="#8ccbf2" points="452,-453.5 452,-474.5 683,-474.5 683,-453.5 452,-453.5"/>
<text text-anchor="start" x="455" y="-461.3" font-family="mono" font-size="14.00" fill="#c83500">safe</text>
<text text-anchor="start" x="489" y="-461.3" font-family="Times,serif" font-size="14.00"> : </text>
<text text-anchor="start" x="501" y="-461.3" font-family="mono" font-size="14.00" fill="#c83500">boolean</text>
<text text-anchor="start" x="559" y="-461.3" font-family="Times,serif" font-size="14.00"> </text>
<text text-anchor="start" x="563" y="-461.3" font-family="Times,serif" font-style="italic" font-size="14.00">(mandatory)</text>
<polygon fill="#ddeeff" stroke="none" points="452,-432.5 452,-453.5 683,-453.5 683,-432.5 452,-432.5"/>
<polygon fill="none" stroke="#8ccbf2" points="452,-432.5 452,-453.5 683,-453.5 683,-432.5 452,-432.5"/>
<text text-anchor="start" x="455" y="-440.3" font-family="mono" font-size="14.00" fill="#c83500">idempotent</text>
<text text-anchor="start" x="538" y="-440.3" font-family="Times,serif" font-size="14.00"> : </text>
<text text-anchor="start" x="550" y="-440.3" font-family="mono" font-size="14.00" fill="#c83500">boolean</text>
<text text-anchor="start" x="608" y="-440.3" font-family="Times,serif" font-size="14.00"> </text>
<text text-anchor="start" x="612" y="-440.3" font-family="Times,serif" font-style="italic" font-size="14.00">(mandatory)</text>
</g>
<!-- Thing&#45;&gt;ActionAffordance -->
<g id="edge8" class="edge"><title>Thing&#45;&gt;ActionAffordance</title>
<path fill="none" stroke="black" d="M609.995,-550.892C602.519,-536.045 595.337,-521.78 589.055,-509.304"/>
<polygon fill="black" stroke="black" points="592.061,-507.49 584.437,-500.133 585.808,-510.638 592.061,-507.49"/>
<text text-anchor="start" x="599" y="-521.8" font-family="mono" font-size="14.00" fill="#c83500">actions</text>
<text text-anchor="middle" x="573.437" y="-503.933" font-family="Times,serif" font-size="14.00">0..1</text>
</g>
<!-- EventAffordance -->
<g id="node9" class="node"><title>EventAffordance</title>
<polygon fill="#8ccbf2" stroke="none" points="717,-453.5 717,-474.5 847,-474.5 847,-453.5 717,-453.5"/>
<polygon fill="none" stroke="#8ccbf2" points="717,-453.5 717,-474.5 847,-474.5 847,-453.5 717,-453.5"/>
<text text-anchor="start" x="720" y="-461.3" font-family="mono" font-weight="bold" font-size="14.00" fill="#c83500">EventAffordance</text>
</g>
<!-- Thing&#45;&gt;EventAffordance -->
<g id="edge3" class="edge"><title>Thing&#45;&gt;EventAffordance</title>
<path fill="none" stroke="black" d="M739.403,-550.892C750.619,-528.408 761.167,-507.263 768.961,-491.639"/>
<polygon fill="black" stroke="black" points="772.107,-493.172 773.439,-482.661 765.844,-490.047 772.107,-493.172"/>
<text text-anchor="start" x="754" y="-521.8" font-family="mono" font-size="14.00" fill="#c83500">events</text>
<text text-anchor="middle" x="762.439" y="-486.461" font-family="Times,serif" font-size="14.00">0..1</text>
</g>
<!-- Link -->
<g id="node10" class="node"><title>Link</title>
<polygon fill="#f2f2f2" stroke="none" points="1122,-453.5 1122,-474.5 1162,-474.5 1162,-453.5 1122,-453.5"/>
<polygon fill="none" stroke="#8c8c8c" points="1122,-453.5 1122,-474.5 1162,-474.5 1162,-453.5 1122,-453.5"/>
<text text-anchor="start" x="1125" y="-461.3" font-family="mono" font-weight="bold" font-size="14.00">Link</text>
</g>
<!-- Thing&#45;&gt;Link -->
<g id="edge5" class="edge"><title>Thing&#45;&gt;Link</title>
<path fill="none" stroke="black" d="M809.896,-637.445C897.813,-606.435 1012.88,-559.493 1105,-500 1109.7,-496.962 1114.36,-493.298 1118.7,-489.508"/>
<polygon fill="black" stroke="black" points="1121.14,-492.015 1126.11,-482.657 1116.39,-486.874 1121.14,-492.015"/>
<text text-anchor="start" x="1073" y="-521.8" font-family="mono" font-size="14.00" fill="#c83500">links</text>
<text text-anchor="middle" x="1115.11" y="-486.457" font-family="Times,serif" font-size="14.00">0..*</text>
</g>
<!-- SecurityScheme -->
<g id="node11" class="node"><title>SecurityScheme</title>
<polygon fill="#f2f2f2" stroke="none" points="1196,-453.5 1196,-474.5 1318,-474.5 1318,-453.5 1196,-453.5"/>
<polygon fill="none" stroke="#8c8c8c" points="1196,-453.5 1196,-474.5 1318,-474.5 1318,-453.5 1196,-453.5"/>
<text text-anchor="start" x="1199" y="-461.3" font-family="mono" font-weight="bold" font-size="14.00">SecurityScheme</text>
</g>
<!-- Thing&#45;&gt;SecurityScheme -->
<g id="edge6" class="edge"><title>Thing&#45;&gt;SecurityScheme</title>
<path fill="none" stroke="black" d="M809.797,-640.575C898.707,-613.304 1017.13,-574.557 1119,-533 1152.36,-519.393 1188.93,-501.353 1216.04,-487.347"/>
<polygon fill="black" stroke="black" points="1217.96,-490.294 1225.22,-482.574 1214.73,-484.084 1217.96,-490.294"/>
<text text-anchor="start" x="1150" y="-521.8" font-family="mono" font-size="14.00" fill="#c83500">securityDefinitions</text>
<text text-anchor="middle" x="1214.22" y="-486.374" font-family="Times,serif" font-size="14.00">1..1</text>
</g>
<!-- InteractionAffordance -->
<g id="node8" class="node"><title>InteractionAffordance</title>
<polygon fill="#8ccbf2" stroke="none" points="212,-352.5 212,-373.5 392,-373.5 392,-352.5 212,-352.5"/>
<polygon fill="none" stroke="#8ccbf2" points="212,-352.5 212,-373.5 392,-373.5 392,-352.5 212,-352.5"/>
<text text-anchor="start" x="215" y="-360.3" font-family="mono" font-weight="bold" font-size="14.00" fill="#c83500">InteractionAffordance</text>
<polygon fill="#ddeeff" stroke="none" points="212,-331.5 212,-352.5 392,-352.5 392,-331.5 212,-331.5"/>
<polygon fill="none" stroke="#8ccbf2" points="212,-331.5 212,-352.5 392,-352.5 392,-331.5 212,-331.5"/>
<text text-anchor="start" x="215" y="-339.3" font-family="mono" font-size="14.00" fill="#c83500">description</text>
<text text-anchor="start" x="306" y="-339.3" font-family="Times,serif" font-size="14.00"> : </text>
<text text-anchor="start" x="318" y="-339.3" font-family="mono" font-size="14.00" fill="#c83500">string</text>
<polygon fill="#ddeeff" stroke="none" points="212,-310.5 212,-331.5 392,-331.5 392,-310.5 212,-310.5"/>
<polygon fill="none" stroke="#8ccbf2" points="212,-310.5 212,-331.5 392,-331.5 392,-310.5 212,-310.5"/>
<text text-anchor="start" x="215" y="-318.3" font-family="mono" font-size="14.00" fill="#c83500">title</text>
<text text-anchor="start" x="257" y="-318.3" font-family="Times,serif" font-size="14.00"> : </text>
<text text-anchor="start" x="269" y="-318.3" font-family="mono" font-size="14.00" fill="#c83500">string</text>
</g>
<!-- PropertyAffordance&#45;&gt;InteractionAffordance -->
<g id="edge21" class="edge"><title>PropertyAffordance&#45;&gt;InteractionAffordance</title>
<path fill="none" stroke="black" d="M302,-439.216C302,-424.697 302,-405.792 302,-388.621"/>
<polygon fill="white" stroke="black" points="305.5,-388.209 302,-378.209 298.5,-388.209 305.5,-388.209"/>
</g>
<!-- ActionAffordance&#45;&gt;InteractionAffordance -->
<g id="edge19" class="edge"><title>ActionAffordance&#45;&gt;InteractionAffordance</title>
<path fill="none" stroke="black" d="M490.707,-428.952C458.421,-414.332 420.671,-397.238 387.454,-382.196"/>
<polygon fill="white" stroke="black" points="388.767,-378.949 378.214,-378.012 385.879,-385.325 388.767,-378.949"/>
</g>
<!-- DataSchema -->
<g id="node12" class="node"><title>DataSchema</title>
<polygon fill="#f2f2f2" stroke="none" points="612,-167.5 612,-188.5 701,-188.5 701,-167.5 612,-167.5"/>
<polygon fill="none" stroke="#8c8c8c" points="612,-167.5 612,-188.5 701,-188.5 701,-167.5 612,-167.5"/>
<text text-anchor="start" x="615" y="-175.3" font-family="mono" font-weight="bold" font-size="14.00">DataSchema</text>
</g>
<!-- ActionAffordance&#45;&gt;DataSchema -->
<g id="edge10" class="edge"><title>ActionAffordance&#45;&gt;DataSchema</title>
<path fill="none" stroke="black" d="M577.824,-428.96C595.767,-371.705 631.3,-258.319 647.542,-206.49"/>
<polygon fill="black" stroke="black" points="650.961,-207.282 650.612,-196.693 644.282,-205.189 650.961,-207.282"/>
<text text-anchor="start" x="616" y="-338.8" font-family="mono" font-size="14.00" fill="#c83500">input</text>
<text text-anchor="middle" x="639.612" y="-200.493" font-family="Times,serif" font-size="14.00">0..1</text>
</g>
<!-- ActionAffordance&#45;&gt;DataSchema -->
<g id="edge11" class="edge"><title>ActionAffordance&#45;&gt;DataSchema</title>
<path fill="none" stroke="black" d="M551.141,-428.875C538.612,-396.447 525.585,-347.106 541,-307 557.645,-263.695 596.556,-225.919 624.508,-202.956"/>
<polygon fill="black" stroke="black" points="626.823,-205.586 632.433,-196.598 622.443,-200.126 626.823,-205.586"/>
<text text-anchor="start" x="541" y="-338.8" font-family="mono" font-size="14.00" fill="#c83500">output</text>
<text text-anchor="middle" x="621.433" y="-200.398" font-family="Times,serif" font-size="14.00">0..1</text>
</g>
<!-- InteractionAffordance&#45;&gt;MultiLanguage -->
<g id="edge13" class="edge"><title>InteractionAffordance&#45;&gt;MultiLanguage</title>
<path fill="none" stroke="black" d="M203.844,-335.042C167.973,-328.105 129.493,-314.655 102,-289 79.1241,-267.654 70.3885,-231.688 67.0545,-206.831"/>
<polygon fill="black" stroke="black" points="70.5004,-206.153 65.901,-196.609 63.5445,-206.938 70.5004,-206.153"/>
<text text-anchor="start" x="102" y="-277.8" font-family="mono" font-size="14.00" fill="#c83500">descriptions</text>
<text text-anchor="middle" x="76.901" y="-200.409" font-family="Times,serif" font-size="14.00">0..1</text>
</g>
<!-- InteractionAffordance&#45;&gt;MultiLanguage -->
<g id="edge15" class="edge"><title>InteractionAffordance&#45;&gt;MultiLanguage</title>
<path fill="none" stroke="black" d="M255.591,-306.856C239.173,-295.508 220.243,-283.411 202,-274 181.751,-263.554 173.607,-267.604 154,-256 129.671,-241.601 105.57,-220.338 88.5968,-203.882"/>
<polygon fill="black" stroke="black" points="90.8993,-201.236 81.3246,-196.7 85.9809,-206.217 90.8993,-201.236"/>
<text text-anchor="start" x="228" y="-277.8" font-family="mono" font-size="14.00" fill="#c83500">titles</text>
<text text-anchor="middle" x="92.3246" y="-200.5" font-family="Times,serif" font-size="14.00">0..1</text>
</g>
<!-- InteractionAffordance&#45;&gt;Form -->
<g id="edge14" class="edge"><title>InteractionAffordance&#45;&gt;Form</title>
<path fill="none" stroke="black" d="M298.782,-306.747C297.663,-294.661 296.353,-280.509 295.02,-266.119"/>
<polygon fill="black" stroke="black" points="298.504,-265.776 294.096,-256.141 291.533,-266.422 298.504,-265.776"/>
<text text-anchor="start" x="297" y="-277.8" font-family="mono" font-size="14.00" fill="#c83500">forms</text>
<text text-anchor="middle" x="283.096" y="-259.941" font-family="Times,serif" font-size="14.00">1..*</text>
</g>
<!-- InteractionAffordance&#45;&gt;DataSchema -->
<g id="edge12" class="edge"><title>InteractionAffordance&#45;&gt;DataSchema</title>
<path fill="none" stroke="black" d="M356.912,-306.945C375.637,-295.791 396.92,-283.791 417,-274 476.783,-244.852 547.977,-217.609 597.025,-199.934"/>
<polygon fill="black" stroke="black" points="598.295,-203.197 606.529,-196.529 595.934,-196.607 598.295,-203.197"/>
<text text-anchor="start" x="417" y="-277.8" font-family="mono" font-size="14.00" fill="#c83500">uriVariables</text>
<text text-anchor="middle" x="595.529" y="-200.329" font-family="Times,serif" font-size="14.00">0..1</text>
</g>
<!-- EventAffordance&#45;&gt;InteractionAffordance -->
<g id="edge20" class="edge"><title>EventAffordance&#45;&gt;InteractionAffordance</title>
<path fill="none" stroke="black" d="M744.935,-446.4C730.773,-440.318 714.341,-433.796 699,-429 603.171,-399.038 491.105,-375.953 410.522,-361.365"/>
<polygon fill="white" stroke="black" points="410.82,-357.863 400.359,-359.54 409.583,-364.752 410.82,-357.863"/>
</g>
<!-- EventAffordance&#45;&gt;DataSchema -->
<g id="edge16" class="edge"><title>EventAffordance&#45;&gt;DataSchema</title>
<path fill="none" stroke="black" d="M763.127,-446.269C746.559,-430.144 722.982,-404.608 709,-378 679.136,-321.165 665.066,-246.121 659.344,-206.571"/>
<polygon fill="black" stroke="black" points="662.806,-206.058 657.975,-196.629 655.872,-207.013 662.806,-206.058"/>
<text text-anchor="start" x="709" y="-338.8" font-family="mono" font-size="14.00" fill="#c83500">data</text>
<text text-anchor="middle" x="668.975" y="-200.429" font-family="Times,serif" font-size="14.00">0..1</text>
</g>
<!-- EventAffordance&#45;&gt;DataSchema -->
<g id="edge17" class="edge"><title>EventAffordance&#45;&gt;DataSchema</title>
<path fill="none" stroke="black" d="M779.766,-446.407C775.475,-416.92 764.538,-355.034 743,-307 725.762,-268.555 696.882,-229.24 677.162,-204.625"/>
<polygon fill="black" stroke="black" points="679.878,-202.418 670.855,-196.864 674.445,-206.832 679.878,-202.418"/>
<text text-anchor="start" x="767" y="-338.8" font-family="mono" font-size="14.00" fill="#c83500">cancellation</text>
<text text-anchor="middle" x="681.855" y="-200.664" font-family="Times,serif" font-size="14.00">0..1</text>
</g>
<!-- EventAffordance&#45;&gt;DataSchema -->
<g id="edge18" class="edge"><title>EventAffordance&#45;&gt;DataSchema</title>
<path fill="none" stroke="black" d="M809.519,-446.265C830.767,-431.192 858.572,-407.174 871,-378 883.368,-348.969 886.618,-334.42 871,-307 838.514,-249.965 769.363,-215.819 718.213,-197.424"/>
<polygon fill="black" stroke="black" points="719.157,-194.046 708.563,-194.062 716.854,-200.657 719.157,-194.046"/>
<text text-anchor="start" x="882" y="-338.8" font-family="mono" font-size="14.00" fill="#c83500">subscription</text>
<text text-anchor="middle" x="719.563" y="-197.862" font-family="Times,serif" font-size="14.00">0..1</text>
</g>
</g>
</svg>
