<?xml version="1.0" encoding="UTF-8" standalone="no"?>
<!DOCTYPE svg PUBLIC "-//W3C//DTD SVG 1.1//EN"
 "http://www.w3.org/Graphics/SVG/1.1/DTD/svg11.dtd">
<!-- Generated by graphviz version 2.40.1 (20161225.0304)
 -->
<!-- Title: %3 Pages: 1 -->
<svg width="1325pt" height="819pt"
 viewBox="0.00 0.00 1324.50 819.00" xmlns="http://www.w3.org/2000/svg" xmlns:xlink="http://www.w3.org/1999/xlink">
<g id="graph0" class="graph" transform="scale(1 1) rotate(0) translate(4 815)">
<title>%3</title>
<polygon fill="#ffffff" stroke="transparent" points="-4,4 -4,-815 1320.5,-815 1320.5,4 -4,4"/>
<!-- MultiLanguage -->
<g id="node1" class="node">
<title>MultiLanguage</title>
<polygon fill="#8ccbf2" stroke="transparent" points="274.5,-167.5 274.5,-188.5 388.5,-188.5 388.5,-167.5 274.5,-167.5"/>
<polygon fill="none" stroke="#8ccbf2" points="274.5,-167.5 274.5,-188.5 388.5,-188.5 388.5,-167.5 274.5,-167.5"/>
<text text-anchor="start" x="277.5" y="-175.3" font-family="mono" font-weight="bold" font-size="14.00" fill="#c83500">MultiLanguage</text>
</g>
<!-- Form -->
<g id="node2" class="node">
<title>Form</title>
<polygon fill="#8ccbf2" stroke="transparent" points="8.5,-230.5 8.5,-251.5 239.5,-251.5 239.5,-230.5 8.5,-230.5"/>
<polygon fill="none" stroke="#8ccbf2" points="8.5,-230.5 8.5,-251.5 239.5,-251.5 239.5,-230.5 8.5,-230.5"/>
<text text-anchor="start" x="107" y="-238.3" font-family="mono" font-weight="bold" font-size="14.00" fill="#c83500">Form</text>
<polygon fill="#ddeeff" stroke="transparent" points="8.5,-209.5 8.5,-230.5 239.5,-230.5 239.5,-209.5 8.5,-209.5"/>
<polygon fill="none" stroke="#8ccbf2" points="8.5,-209.5 8.5,-230.5 239.5,-230.5 239.5,-209.5 8.5,-209.5"/>
<text text-anchor="start" x="11.5" y="-217.3" font-family="mono" font-size="14.00" fill="#c83500">scopes</text>
<text text-anchor="start" x="61.5" y="-217.3" font-family="Times,serif" font-size="14.00" fill="#000000"> : array of </text>
<text text-anchor="start" x="119.5" y="-217.3" font-family="mono" font-size="14.00" fill="#c83500">string</text>
<polygon fill="#ddeeff" stroke="transparent" points="8.5,-188.5 8.5,-209.5 239.5,-209.5 239.5,-188.5 8.5,-188.5"/>
<polygon fill="none" stroke="#8ccbf2" points="8.5,-188.5 8.5,-209.5 239.5,-209.5 239.5,-188.5 8.5,-188.5"/>
<text text-anchor="start" x="11.5" y="-196.3" font-family="mono" font-size="14.00" fill="#c83500">contentType</text>
<text text-anchor="start" x="102.5" y="-196.3" font-family="Times,serif" font-size="14.00" fill="#000000"> : </text>
<text text-anchor="start" x="114.5" y="-196.3" font-family="mono" font-size="14.00" fill="#c83500">string</text>
<text text-anchor="start" x="164.5" y="-196.3" font-family="Times,serif" font-size="14.00" fill="#000000"> </text>
<text text-anchor="start" x="168.5" y="-196.3" font-family="Times,serif" font-style="italic" font-size="14.00" fill="#000000">(mandatory)</text>
<polygon fill="#ddeeff" stroke="transparent" points="8.5,-167.5 8.5,-188.5 239.5,-188.5 239.5,-167.5 8.5,-167.5"/>
<polygon fill="none" stroke="#8ccbf2" points="8.5,-167.5 8.5,-188.5 239.5,-188.5 239.5,-167.5 8.5,-167.5"/>
<text text-anchor="start" x="11.5" y="-175.3" font-family="mono" font-size="14.00" fill="#c83500">security</text>
<text text-anchor="start" x="78.5" y="-175.3" font-family="Times,serif" font-size="14.00" fill="#000000"> : array of </text>
<text text-anchor="start" x="136.5" y="-175.3" font-family="mono" font-size="14.00" fill="#c83500">string</text>
<polygon fill="#ddeeff" stroke="transparent" points="8.5,-146.5 8.5,-167.5 239.5,-167.5 239.5,-146.5 8.5,-146.5"/>
<polygon fill="none" stroke="#8ccbf2" points="8.5,-146.5 8.5,-167.5 239.5,-167.5 239.5,-146.5 8.5,-146.5"/>
<text text-anchor="start" x="11.5" y="-154.3" font-family="mono" font-size="14.00" fill="#c83500">subprotocol</text>
<text text-anchor="start" x="102.5" y="-154.3" font-family="Times,serif" font-size="14.00" fill="#000000"> : </text>
<text text-anchor="start" x="114.5" y="-154.3" font-family="mono" font-size="14.00" fill="#c83500">string</text>
<polygon fill="#ddeeff" stroke="transparent" points="8.5,-125.5 8.5,-146.5 239.5,-146.5 239.5,-125.5 8.5,-125.5"/>
<polygon fill="none" stroke="#8ccbf2" points="8.5,-125.5 8.5,-146.5 239.5,-146.5 239.5,-125.5 8.5,-125.5"/>
<text text-anchor="start" x="11.5" y="-133.3" font-family="mono" font-size="14.00" fill="#c83500">href</text>
<text text-anchor="start" x="45.5" y="-133.3" font-family="Times,serif" font-size="14.00" fill="#000000"> : </text>
<text text-anchor="start" x="57.5" y="-133.3" font-family="mono" font-size="14.00" fill="#c83500">anyURI</text>
<text text-anchor="start" x="107.5" y="-133.3" font-family="Times,serif" font-size="14.00" fill="#000000"> </text>
<text text-anchor="start" x="111.5" y="-133.3" font-family="Times,serif" font-style="italic" font-size="14.00" fill="#000000">(mandatory)</text>
<polygon fill="#ddeeff" stroke="transparent" points="8.5,-104.5 8.5,-125.5 239.5,-125.5 239.5,-104.5 8.5,-104.5"/>
<polygon fill="none" stroke="#8ccbf2" points="8.5,-104.5 8.5,-125.5 239.5,-125.5 239.5,-104.5 8.5,-104.5"/>
<text text-anchor="start" x="11.5" y="-112.3" font-family="mono" font-size="14.00" fill="#c83500">op</text>
<text text-anchor="start" x="28.5" y="-112.3" font-family="Times,serif" font-size="14.00" fill="#000000"> : (array of) </text>
<text text-anchor="start" x="95.5" y="-112.3" font-family="mono" font-size="14.00" fill="#c83500">string</text>
<text text-anchor="start" x="145.5" y="-112.3" font-family="Times,serif" font-size="14.00" fill="#000000"> </text>
<text text-anchor="start" x="149.5" y="-112.3" font-family="Times,serif" font-style="italic" font-size="14.00" fill="#000000">(mandatory)</text>
</g>
<!-- ExpectedResponse -->
<g id="node5" class="node">
<title>ExpectedResponse</title>
<polygon fill="#8ccbf2" stroke="transparent" points="8.5,-25 8.5,-46 239.5,-46 239.5,-25 8.5,-25"/>
<polygon fill="none" stroke="#8ccbf2" points="8.5,-25 8.5,-46 239.5,-46 239.5,-25 8.5,-25"/>
<text text-anchor="start" x="57.5" y="-32.8" font-family="mono" font-weight="bold" font-size="14.00" fill="#c83500">ExpectedResponse</text>
<polygon fill="#ddeeff" stroke="transparent" points="8.5,-4 8.5,-25 239.5,-25 239.5,-4 8.5,-4"/>
<polygon fill="none" stroke="#8ccbf2" points="8.5,-4 8.5,-25 239.5,-25 239.5,-4 8.5,-4"/>
<text text-anchor="start" x="11.5" y="-11.8" font-family="mono" font-size="14.00" fill="#c83500">contentType</text>
<text text-anchor="start" x="102.5" y="-11.8" font-family="Times,serif" font-size="14.00" fill="#000000"> : </text>
<text text-anchor="start" x="114.5" y="-11.8" font-family="mono" font-size="14.00" fill="#c83500">string</text>
<text text-anchor="start" x="164.5" y="-11.8" font-family="Times,serif" font-size="14.00" fill="#000000"> </text>
<text text-anchor="start" x="168.5" y="-11.8" font-family="Times,serif" font-style="italic" font-size="14.00" fill="#000000">(mandatory)</text>
</g>
<!-- Form&#45;&gt;ExpectedResponse -->
<g id="edge1" class="edge">
<title>Form&#45;&gt;ExpectedResponse</title>
<path fill="none" stroke="#000000" d="M123.5,-100.8506C123.5,-86.7022 123.5,-72.5946 123.5,-60.4513"/>
<polygon fill="#000000" stroke="#000000" points="127.0001,-60.3339 123.5,-50.334 120.0001,-60.334 127.0001,-60.3339"/>
<text text-anchor="start" x="123.5" y="-71.8" font-family="mono" font-size="14.00" fill="#c83500">response</text>
<text text-anchor="middle" x="112.5" y="-54.134" font-family="Times,serif" font-size="14.00" fill="#000000">0..1</text>
</g>
<!-- Thing -->
<g id="node3" class="node">
<title>Thing</title>
<polygon fill="#8ccbf2" stroke="transparent" points="545.5,-786 545.5,-807 798.5,-807 798.5,-786 545.5,-786"/>
<polygon fill="none" stroke="#8ccbf2" points="545.5,-786 545.5,-807 798.5,-807 798.5,-786 545.5,-786"/>
<text text-anchor="start" x="651" y="-793.8" font-family="mono" font-weight="bold" font-size="14.00" fill="#c83500">Thing</text>
<polygon fill="#ddeeff" stroke="transparent" points="545.5,-765 545.5,-786 798.5,-786 798.5,-765 545.5,-765"/>
<polygon fill="none" stroke="#8ccbf2" points="545.5,-765 545.5,-786 798.5,-786 798.5,-765 545.5,-765"/>
<text text-anchor="start" x="548.5" y="-772.8" font-family="mono" font-size="14.00" fill="#c83500">@context</text>
<text text-anchor="start" x="615.5" y="-772.8" font-family="Times,serif" font-size="14.00" fill="#000000"> : </text>
<text text-anchor="start" x="627.5" y="-772.8" font-family="Times,serif" font-style="italic" font-size="14.00" fill="#000000">array</text>
<text text-anchor="start" x="658.5" y="-772.8" font-family="Times,serif" font-size="14.00" fill="#000000"> </text>
<text text-anchor="start" x="662.5" y="-772.8" font-family="Times,serif" font-style="italic" font-size="14.00" fill="#000000">(mandatory)</text>
<polygon fill="#ddeeff" stroke="transparent" points="545.5,-744 545.5,-765 798.5,-765 798.5,-744 545.5,-744"/>
<polygon fill="none" stroke="#8ccbf2" points="545.5,-744 545.5,-765 798.5,-765 798.5,-744 545.5,-744"/>
<text text-anchor="start" x="548.5" y="-751.8" font-family="mono" font-size="14.00" fill="#c83500">@type</text>
<text text-anchor="start" x="590.5" y="-751.8" font-family="Times,serif" font-size="14.00" fill="#000000"> : </text>
<text text-anchor="start" x="602.5" y="-751.8" font-family="Times,serif" font-style="italic" font-size="14.00" fill="#000000">array of </text>
<text text-anchor="start" x="651.5" y="-751.8" font-family="mono" font-size="14.00" fill="#c83500">string</text>
<polygon fill="#ddeeff" stroke="transparent" points="545.5,-723 545.5,-744 798.5,-744 798.5,-723 545.5,-723"/>
<polygon fill="none" stroke="#8ccbf2" points="545.5,-723 545.5,-744 798.5,-744 798.5,-723 545.5,-723"/>
<text text-anchor="start" x="548.5" y="-730.8" font-family="mono" font-size="14.00" fill="#c83500">id</text>
<text text-anchor="start" x="565.5" y="-730.8" font-family="Times,serif" font-size="14.00" fill="#000000"> : </text>
<text text-anchor="start" x="577.5" y="-730.8" font-family="mono" font-size="14.00" fill="#c83500">anyURI</text>
<text text-anchor="start" x="627.5" y="-730.8" font-family="Times,serif" font-size="14.00" fill="#000000"> </text>
<text text-anchor="start" x="631.5" y="-730.8" font-family="Times,serif" font-style="italic" font-size="14.00" fill="#000000">(mandatory)</text>
<polygon fill="#ddeeff" stroke="transparent" points="545.5,-702 545.5,-723 798.5,-723 798.5,-702 545.5,-702"/>
<polygon fill="none" stroke="#8ccbf2" points="545.5,-702 545.5,-723 798.5,-723 798.5,-702 545.5,-702"/>
<text text-anchor="start" x="548.5" y="-709.8" font-family="mono" font-size="14.00" fill="#c83500">base</text>
<text text-anchor="start" x="582.5" y="-709.8" font-family="Times,serif" font-size="14.00" fill="#000000"> : </text>
<text text-anchor="start" x="594.5" y="-709.8" font-family="mono" font-size="14.00" fill="#c83500">anyURI</text>
<polygon fill="#ddeeff" stroke="transparent" points="545.5,-681 545.5,-702 798.5,-702 798.5,-681 545.5,-681"/>
<polygon fill="none" stroke="#8ccbf2" points="545.5,-681 545.5,-702 798.5,-702 798.5,-681 545.5,-681"/>
<text text-anchor="start" x="548.5" y="-688.8" font-family="mono" font-size="14.00" fill="#c83500">created</text>
<text text-anchor="start" x="606.5" y="-688.8" font-family="Times,serif" font-size="14.00" fill="#000000"> : </text>
<text text-anchor="start" x="618.5" y="-688.8" font-family="mono" font-size="14.00" fill="#c83500">string</text>
<polygon fill="#ddeeff" stroke="transparent" points="545.5,-660 545.5,-681 798.5,-681 798.5,-660 545.5,-660"/>
<polygon fill="none" stroke="#8ccbf2" points="545.5,-660 545.5,-681 798.5,-681 798.5,-660 545.5,-660"/>
<text text-anchor="start" x="548.5" y="-667.8" font-family="mono" font-size="14.00" fill="#c83500">support</text>
<text text-anchor="start" x="606.5" y="-667.8" font-family="Times,serif" font-size="14.00" fill="#000000"> : </text>
<text text-anchor="start" x="618.5" y="-667.8" font-family="mono" font-size="14.00" fill="#c83500">string</text>
<polygon fill="#ddeeff" stroke="transparent" points="545.5,-639 545.5,-660 798.5,-660 798.5,-639 545.5,-639"/>
<polygon fill="none" stroke="#8ccbf2" points="545.5,-639 545.5,-660 798.5,-660 798.5,-639 545.5,-639"/>
<text text-anchor="start" x="548.5" y="-646.8" font-family="mono" font-size="14.00" fill="#c83500">lastModified</text>
<text text-anchor="start" x="648.5" y="-646.8" font-family="Times,serif" font-size="14.00" fill="#000000"> : </text>
<text text-anchor="start" x="660.5" y="-646.8" font-family="mono" font-size="14.00" fill="#c83500">string</text>
<polygon fill="#ddeeff" stroke="transparent" points="545.5,-618 545.5,-639 798.5,-639 798.5,-618 545.5,-618"/>
<polygon fill="none" stroke="#8ccbf2" points="545.5,-618 545.5,-639 798.5,-639 798.5,-618 545.5,-618"/>
<text text-anchor="start" x="548.5" y="-625.8" font-family="mono" font-size="14.00" fill="#c83500">name</text>
<text text-anchor="start" x="582.5" y="-625.8" font-family="Times,serif" font-size="14.00" fill="#000000"> : </text>
<text text-anchor="start" x="594.5" y="-625.8" font-family="mono" font-size="14.00" fill="#c83500">string</text>
<text text-anchor="start" x="644.5" y="-625.8" font-family="Times,serif" font-size="14.00" fill="#000000"> </text>
<text text-anchor="start" x="648.5" y="-625.8" font-family="Times,serif" font-style="italic" font-size="14.00" fill="#000000">(mandatory)</text>
<polygon fill="#ddeeff" stroke="transparent" points="545.5,-597 545.5,-618 798.5,-618 798.5,-597 545.5,-597"/>
<polygon fill="none" stroke="#8ccbf2" points="545.5,-597 545.5,-618 798.5,-618 798.5,-597 545.5,-597"/>
<text text-anchor="start" x="548.5" y="-604.8" font-family="mono" font-size="14.00" fill="#c83500">security</text>
<text text-anchor="start" x="615.5" y="-604.8" font-family="Times,serif" font-size="14.00" fill="#000000"> : array of </text>
<text text-anchor="start" x="673.5" y="-604.8" font-family="mono" font-size="14.00" fill="#c83500">string</text>
<text text-anchor="start" x="723.5" y="-604.8" font-family="Times,serif" font-size="14.00" fill="#000000"> </text>
<text text-anchor="start" x="727.5" y="-604.8" font-family="Times,serif" font-style="italic" font-size="14.00" fill="#000000">(mandatory)</text>
<polygon fill="#ddeeff" stroke="transparent" points="545.5,-576 545.5,-597 798.5,-597 798.5,-576 545.5,-576"/>
<polygon fill="none" stroke="#8ccbf2" points="545.5,-576 545.5,-597 798.5,-597 798.5,-576 545.5,-576"/>
<text text-anchor="start" x="548.5" y="-583.8" font-family="mono" font-size="14.00" fill="#c83500">names</text>
<text text-anchor="start" x="590.5" y="-583.8" font-family="Times,serif" font-size="14.00" fill="#000000"> : </text>
<text text-anchor="start" x="602.5" y="-583.8" font-family="mono" font-size="14.00" fill="#c83500">string</text>
<text text-anchor="start" x="652.5" y="-583.8" font-family="Times,serif" font-size="14.00" fill="#000000"> </text>
<text text-anchor="start" x="656.5" y="-583.8" font-family="Times,serif" font-style="italic" font-size="14.00" fill="#000000">(mandatory)</text>
<polygon fill="#ddeeff" stroke="transparent" points="545.5,-555 545.5,-576 798.5,-576 798.5,-555 545.5,-555"/>
<polygon fill="none" stroke="#8ccbf2" points="545.5,-555 545.5,-576 798.5,-576 798.5,-555 545.5,-555"/>
<text text-anchor="start" x="548.5" y="-562.8" font-family="mono" font-size="14.00" fill="#c83500">description</text>
<text text-anchor="start" x="639.5" y="-562.8" font-family="Times,serif" font-size="14.00" fill="#000000"> : </text>
<text text-anchor="start" x="651.5" y="-562.8" font-family="mono" font-size="14.00" fill="#c83500">string</text>
</g>
<!-- Thing&#45;&gt;MultiLanguage -->
<g id="edge8" class="edge">
<title>Thing&#45;&gt;MultiLanguage</title>
<path fill="none" stroke="#000000" d="M536.8798,-665.3658C434.1294,-645.5829 299.081,-600.8761 231.5,-500 166.6907,-403.2612 263.2922,-262.4071 309.3469,-204.6683"/>
<polygon fill="#000000" stroke="#000000" points="312.1727,-206.7404 315.7498,-196.7677 306.7344,-202.3329 312.1727,-206.7404"/>
<text text-anchor="start" x="212.5" y="-399.8" font-family="mono" font-size="14.00" fill="#c83500">descriptions</text>
<text text-anchor="middle" x="304.7498" y="-200.5677" font-family="Times,serif" font-size="14.00" fill="#000000">0..1</text>
</g>
<!-- Thing&#45;&gt;Form -->
<g id="edge7" class="edge">
<title>Thing&#45;&gt;Form</title>
<path fill="none" stroke="#000000" d="M536.9298,-667.4574C428.8346,-648.855 282.8929,-604.7151 206.5,-500 156.4699,-431.4216 136.5336,-335.3599 128.6238,-266.1246"/>
<polygon fill="#000000" stroke="#000000" points="132.0959,-265.6768 127.5419,-256.1107 125.1364,-266.4288 132.0959,-265.6768"/>
<text text-anchor="start" x="161.5" y="-399.8" font-family="mono" font-size="14.00" fill="#c83500">forms</text>
<text text-anchor="middle" x="116.5419" y="-259.9107" font-family="Times,serif" font-size="14.00" fill="#000000">0..*</text>
</g>
<!-- PropertyAffordance -->
<g id="node4" class="node">
<title>PropertyAffordance</title>
<polygon fill="#8ccbf2" stroke="transparent" points="249.5,-464.5 249.5,-485.5 408.5,-485.5 408.5,-464.5 249.5,-464.5"/>
<polygon fill="none" stroke="#8ccbf2" points="249.5,-464.5 249.5,-485.5 408.5,-485.5 408.5,-464.5 249.5,-464.5"/>
<text text-anchor="start" x="254.5" y="-472.3" font-family="mono" font-weight="bold" font-size="14.00" fill="#c83500">PropertyAffordance</text>
<polygon fill="#ddeeff" stroke="transparent" points="249.5,-443.5 249.5,-464.5 408.5,-464.5 408.5,-443.5 249.5,-443.5"/>
<polygon fill="none" stroke="#8ccbf2" points="249.5,-443.5 249.5,-464.5 408.5,-464.5 408.5,-443.5 249.5,-443.5"/>
<text text-anchor="start" x="252.5" y="-451.3" font-family="mono" font-size="14.00" fill="#c83500">observable</text>
<text text-anchor="start" x="335.5" y="-451.3" font-family="Times,serif" font-size="14.00" fill="#000000"> : </text>
<text text-anchor="start" x="347.5" y="-451.3" font-family="mono" font-size="14.00" fill="#c83500">boolean</text>
</g>
<!-- Thing&#45;&gt;PropertyAffordance -->
<g id="edge9" class="edge">
<title>Thing&#45;&gt;PropertyAffordance</title>
<path fill="none" stroke="#000000" d="M536.9218,-596.0549C480.5012,-560.4425 418.4839,-521.2974 376.8922,-495.0449"/>
<polygon fill="#000000" stroke="#000000" points="378.6609,-492.0225 368.3364,-489.6445 374.9246,-497.9419 378.6609,-492.0225"/>
<text text-anchor="start" x="430.5" y="-521.8" font-family="mono" font-size="14.00" fill="#c83500">properties</text>
<text text-anchor="middle" x="357.3364" y="-493.4445" font-family="Times,serif" font-size="14.00" fill="#000000">0..1</text>
</g>
<!-- VersionInfo -->
<g id="node6" class="node">
<title>VersionInfo</title>
<polygon fill="#8ccbf2" stroke="transparent" points="442.5,-464.5 442.5,-485.5 649.5,-485.5 649.5,-464.5 442.5,-464.5"/>
<polygon fill="none" stroke="#8ccbf2" points="442.5,-464.5 442.5,-485.5 649.5,-485.5 649.5,-464.5 442.5,-464.5"/>
<text text-anchor="start" x="500.5" y="-472.3" font-family="mono" font-weight="bold" font-size="14.00" fill="#c83500">VersionInfo</text>
<polygon fill="#ddeeff" stroke="transparent" points="442.5,-443.5 442.5,-464.5 649.5,-464.5 649.5,-443.5 442.5,-443.5"/>
<polygon fill="none" stroke="#8ccbf2" points="442.5,-443.5 442.5,-464.5 649.5,-464.5 649.5,-443.5 442.5,-443.5"/>
<text text-anchor="start" x="445.5" y="-451.3" font-family="mono" font-size="14.00" fill="#c83500">instance</text>
<text text-anchor="start" x="512.5" y="-451.3" font-family="Times,serif" font-size="14.00" fill="#000000"> : </text>
<text text-anchor="start" x="524.5" y="-451.3" font-family="mono" font-size="14.00" fill="#c83500">string</text>
<text text-anchor="start" x="574.5" y="-451.3" font-family="Times,serif" font-size="14.00" fill="#000000"> </text>
<text text-anchor="start" x="578.5" y="-451.3" font-family="Times,serif" font-style="italic" font-size="14.00" fill="#000000">(mandatory)</text>
</g>
<!-- Thing&#45;&gt;VersionInfo -->
<g id="edge3" class="edge">
<title>Thing&#45;&gt;VersionInfo</title>
<path fill="none" stroke="#000000" d="M595.8417,-550.9999C584.5884,-531.6637 573.897,-513.2932 565.2851,-498.4958"/>
<polygon fill="#000000" stroke="#000000" points="568.2603,-496.6497 560.2052,-489.7673 562.2103,-500.1707 568.2603,-496.6497"/>
<text text-anchor="start" x="583.5" y="-521.8" font-family="mono" font-size="14.00" fill="#c83500">version</text>
<text text-anchor="middle" x="549.2052" y="-493.5673" font-family="Times,serif" font-size="14.00" fill="#000000">0..1</text>
</g>
<!-- ActionAffordance -->
<g id="node7" class="node">
<title>ActionAffordance</title>
<polygon fill="#8ccbf2" stroke="transparent" points="683.5,-474.5 683.5,-495.5 914.5,-495.5 914.5,-474.5 683.5,-474.5"/>
<polygon fill="none" stroke="#8ccbf2" points="683.5,-474.5 683.5,-495.5 914.5,-495.5 914.5,-474.5 683.5,-474.5"/>
<text text-anchor="start" x="732.5" y="-482.3" font-family="mono" font-weight="bold" font-size="14.00" fill="#c83500">ActionAffordance</text>
<polygon fill="#ddeeff" stroke="transparent" points="683.5,-453.5 683.5,-474.5 914.5,-474.5 914.5,-453.5 683.5,-453.5"/>
<polygon fill="none" stroke="#8ccbf2" points="683.5,-453.5 683.5,-474.5 914.5,-474.5 914.5,-453.5 683.5,-453.5"/>
<text text-anchor="start" x="686.5" y="-461.3" font-family="mono" font-size="14.00" fill="#c83500">idempotent</text>
<text text-anchor="start" x="769.5" y="-461.3" font-family="Times,serif" font-size="14.00" fill="#000000"> : </text>
<text text-anchor="start" x="781.5" y="-461.3" font-family="mono" font-size="14.00" fill="#c83500">boolean</text>
<text text-anchor="start" x="839.5" y="-461.3" font-family="Times,serif" font-size="14.00" fill="#000000"> </text>
<text text-anchor="start" x="843.5" y="-461.3" font-family="Times,serif" font-style="italic" font-size="14.00" fill="#000000">(mandatory)</text>
<polygon fill="#ddeeff" stroke="transparent" points="683.5,-432.5 683.5,-453.5 914.5,-453.5 914.5,-432.5 683.5,-432.5"/>
<polygon fill="none" stroke="#8ccbf2" points="683.5,-432.5 683.5,-453.5 914.5,-453.5 914.5,-432.5 683.5,-432.5"/>
<text text-anchor="start" x="686.5" y="-440.3" font-family="mono" font-size="14.00" fill="#c83500">safe</text>
<text text-anchor="start" x="720.5" y="-440.3" font-family="Times,serif" font-size="14.00" fill="#000000"> : </text>
<text text-anchor="start" x="732.5" y="-440.3" font-family="mono" font-size="14.00" fill="#c83500">boolean</text>
<text text-anchor="start" x="790.5" y="-440.3" font-family="Times,serif" font-size="14.00" fill="#000000"> </text>
<text text-anchor="start" x="794.5" y="-440.3" font-family="Times,serif" font-style="italic" font-size="14.00" fill="#000000">(mandatory)</text>
</g>
<!-- Thing&#45;&gt;ActionAffordance -->
<g id="edge6" class="edge">
<title>Thing&#45;&gt;ActionAffordance</title>
<path fill="none" stroke="#000000" d="M747.7587,-550.9999C756.5761,-535.9688 765.0511,-521.5212 772.4653,-508.8819"/>
<polygon fill="#000000" stroke="#000000" points="775.6254,-510.4121 777.6663,-500.0157 769.5876,-506.8703 775.6254,-510.4121"/>
<text text-anchor="start" x="764.5" y="-521.8" font-family="mono" font-size="14.00" fill="#c83500">actions</text>
<text text-anchor="middle" x="766.6663" y="-503.8157" font-family="Times,serif" font-size="14.00" fill="#000000">0..1</text>
</g>
<!-- EventAffordance -->
<g id="node9" class="node">
<title>EventAffordance</title>
<polygon fill="#8ccbf2" stroke="transparent" points="948.5,-453.5 948.5,-474.5 1078.5,-474.5 1078.5,-453.5 948.5,-453.5"/>
<polygon fill="none" stroke="#8ccbf2" points="948.5,-453.5 948.5,-474.5 1078.5,-474.5 1078.5,-453.5 948.5,-453.5"/>
<text text-anchor="start" x="951.5" y="-461.3" font-family="mono" font-weight="bold" font-size="14.00" fill="#c83500">EventAffordance</text>
</g>
<!-- Thing&#45;&gt;EventAffordance -->
<g id="edge5" class="edge">
<title>Thing&#45;&gt;EventAffordance</title>
<path fill="none" stroke="#000000" d="M806.1765,-595.7442C867.6497,-556.8292 935.6888,-513.7577 976.4965,-487.9247"/>
<polygon fill="#000000" stroke="#000000" points="978.4489,-490.8312 985.0261,-482.5251 974.7047,-484.9167 978.4489,-490.8312"/>
<text text-anchor="start" x="922.5" y="-521.8" font-family="mono" font-size="14.00" fill="#c83500">events</text>
<text text-anchor="middle" x="974.0261" y="-486.3251" font-family="Times,serif" font-size="14.00" fill="#000000">0..1</text>
</g>
<!-- Link -->
<g id="node10" class="node">
<title>Link</title>
<polygon fill="#f2f2f2" stroke="transparent" points="1112.5,-453.5 1112.5,-474.5 1152.5,-474.5 1152.5,-453.5 1112.5,-453.5"/>
<polygon fill="none" stroke="#8c8c8c" points="1112.5,-453.5 1112.5,-474.5 1152.5,-474.5 1152.5,-453.5 1112.5,-453.5"/>
<text text-anchor="start" x="1115.5" y="-461.3" font-family="mono" font-weight="bold" font-size="14.00" fill="#000000">Link</text>
</g>
<!-- Thing&#45;&gt;Link -->
<g id="edge2" class="edge">
<title>Thing&#45;&gt;Link</title>
<path fill="none" stroke="#000000" d="M806.1971,-637.6766C892.7993,-606.4853 1005.5293,-559.4733 1095.5,-500 1100.1414,-496.9319 1104.7219,-493.2459 1108.9945,-489.4266"/>
<polygon fill="#000000" stroke="#000000" points="1111.4426,-491.9287 1116.2995,-482.5126 1106.6308,-486.8447 1111.4426,-491.9287"/>
<text text-anchor="start" x="1064.5" y="-521.8" font-family="mono" font-size="14.00" fill="#c83500">links</text>
<text text-anchor="middle" x="1105.2995" y="-486.3126" font-family="Times,serif" font-size="14.00" fill="#000000">0..*</text>
</g>
<!-- SecurityScheme -->
<g id="node11" class="node">
<title>SecurityScheme</title>
<polygon fill="#f2f2f2" stroke="transparent" points="1186.5,-453.5 1186.5,-474.5 1308.5,-474.5 1308.5,-453.5 1186.5,-453.5"/>
<polygon fill="none" stroke="#8c8c8c" points="1186.5,-453.5 1186.5,-474.5 1308.5,-474.5 1308.5,-453.5 1186.5,-453.5"/>
<text text-anchor="start" x="1189.5" y="-461.3" font-family="mono" font-weight="bold" font-size="14.00" fill="#000000">SecurityScheme</text>
</g>
<!-- Thing&#45;&gt;SecurityScheme -->
<g id="edge4" class="edge">
<title>Thing&#45;&gt;SecurityScheme</title>
<path fill="none" stroke="#000000" d="M806.3155,-640.875C894.0876,-613.4549 1010.4415,-574.6458 1110.5,-533 1143.1124,-519.4263 1178.7677,-501.4953 1205.527,-487.3839"/>
<polygon fill="#000000" stroke="#000000" points="1207.411,-490.3464 1214.6015,-482.5652 1204.128,-484.1639 1207.411,-490.3464"/>
<text text-anchor="start" x="1141.5" y="-521.8" font-family="mono" font-size="14.00" fill="#c83500">securityDefinitions</text>
<text text-anchor="middle" x="1203.6015" y="-486.3652" font-family="Times,serif" font-size="14.00" fill="#000000">1..1</text>
</g>
<!-- InteractionAffordance -->
<g id="node8" class="node">
<title>InteractionAffordance</title>
<polygon fill="#8ccbf2" stroke="transparent" points="314.5,-352.5 314.5,-373.5 494.5,-373.5 494.5,-352.5 314.5,-352.5"/>
<polygon fill="none" stroke="#8ccbf2" points="314.5,-352.5 314.5,-373.5 494.5,-373.5 494.5,-352.5 314.5,-352.5"/>
<text text-anchor="start" x="317.5" y="-360.3" font-family="mono" font-weight="bold" font-size="14.00" fill="#c83500">InteractionAffordance</text>
<polygon fill="#ddeeff" stroke="transparent" points="314.5,-331.5 314.5,-352.5 494.5,-352.5 494.5,-331.5 314.5,-331.5"/>
<polygon fill="none" stroke="#8ccbf2" points="314.5,-331.5 314.5,-352.5 494.5,-352.5 494.5,-331.5 314.5,-331.5"/>
<text text-anchor="start" x="317.5" y="-339.3" font-family="mono" font-size="14.00" fill="#c83500">title</text>
<text text-anchor="start" x="359.5" y="-339.3" font-family="Times,serif" font-size="14.00" fill="#000000"> : </text>
<text text-anchor="start" x="371.5" y="-339.3" font-family="mono" font-size="14.00" fill="#c83500">string</text>
<polygon fill="#ddeeff" stroke="transparent" points="314.5,-310.5 314.5,-331.5 494.5,-331.5 494.5,-310.5 314.5,-310.5"/>
<polygon fill="none" stroke="#8ccbf2" points="314.5,-310.5 314.5,-331.5 494.5,-331.5 494.5,-310.5 314.5,-310.5"/>
<text text-anchor="start" x="317.5" y="-318.3" font-family="mono" font-size="14.00" fill="#c83500">description</text>
<text text-anchor="start" x="408.5" y="-318.3" font-family="Times,serif" font-size="14.00" fill="#000000"> : </text>
<text text-anchor="start" x="420.5" y="-318.3" font-family="mono" font-size="14.00" fill="#c83500">string</text>
</g>
<!-- PropertyAffordance&#45;&gt;InteractionAffordance -->
<g id="edge21" class="edge">
<title>PropertyAffordance&#45;&gt;InteractionAffordance</title>
<path fill="none" stroke="#000000" d="M344.2472,-439.2215C353.5774,-424.2442 365.671,-404.8307 376.5726,-387.3309"/>
<polygon fill="#ffffff" stroke="#000000" points="379.827,-388.726 382.1438,-378.3876 373.8855,-385.0248 379.827,-388.726"/>
</g>
<!-- DataSchema -->
<g id="node12" class="node">
<title>DataSchema</title>
<polygon fill="#f2f2f2" stroke="transparent" points="754.5,-167.5 754.5,-188.5 843.5,-188.5 843.5,-167.5 754.5,-167.5"/>
<polygon fill="none" stroke="#8c8c8c" points="754.5,-167.5 754.5,-188.5 843.5,-188.5 843.5,-167.5 754.5,-167.5"/>
<text text-anchor="start" x="757.5" y="-175.3" font-family="mono" font-weight="bold" font-size="14.00" fill="#000000">DataSchema</text>
</g>
<!-- PropertyAffordance&#45;&gt;DataSchema -->
<g id="edge22" class="edge">
<title>PropertyAffordance&#45;&gt;DataSchema</title>
<path fill="none" stroke="#000000" d="M387.867,-439.4433C424.3087,-423.3324 471.5011,-401.1414 511.5,-378 608.7707,-321.724 715.4994,-242.4683 767.0998,-202.9295"/>
<polygon fill="#ffffff" stroke="#000000" points="769.3996,-205.5762 775.1939,-196.7062 765.1329,-200.0269 769.3996,-205.5762"/>
</g>
<!-- ActionAffordance&#45;&gt;InteractionAffordance -->
<g id="edge20" class="edge">
<title>ActionAffordance&#45;&gt;InteractionAffordance</title>
<path fill="none" stroke="#000000" d="M683.7448,-428.9667C629.7448,-412.2458 565.696,-392.4135 512.5685,-375.9628"/>
<polygon fill="#ffffff" stroke="#000000" points="513.3682,-372.5466 502.7804,-372.932 511.2977,-379.2334 513.3682,-372.5466"/>
</g>
<!-- ActionAffordance&#45;&gt;DataSchema -->
<g id="edge10" class="edge">
<title>ActionAffordance&#45;&gt;DataSchema</title>
<path fill="none" stroke="#000000" d="M759.0419,-428.5997C746.0865,-414.2802 733.2793,-396.7413 726.5,-378 704.0259,-315.8702 748.4264,-242.8278 776.9976,-204.6918"/>
<polygon fill="#000000" stroke="#000000" points="779.8535,-206.7194 783.1727,-196.6579 774.3035,-202.4535 779.8535,-206.7194"/>
<text text-anchor="start" x="726.5" y="-338.8" font-family="mono" font-size="14.00" fill="#c83500">output</text>
<text text-anchor="middle" x="772.1727" y="-200.4579" font-family="Times,serif" font-size="14.00" fill="#000000">0..1</text>
</g>
<!-- ActionAffordance&#45;&gt;DataSchema -->
<g id="edge11" class="edge">
<title>ActionAffordance&#45;&gt;DataSchema</title>
<path fill="none" stroke="#000000" d="M798.5,-428.8562C798.5,-371.3995 798.5,-259.4516 798.5,-206.9569"/>
<polygon fill="#000000" stroke="#000000" points="802.0001,-206.6985 798.5,-196.6986 795.0001,-206.6986 802.0001,-206.6985"/>
<text text-anchor="start" x="798.5" y="-338.8" font-family="mono" font-size="14.00" fill="#c83500">input</text>
<text text-anchor="middle" x="809.5" y="-200.4986" font-family="Times,serif" font-size="14.00" fill="#000000">0..1</text>
</g>
<!-- InteractionAffordance&#45;&gt;MultiLanguage -->
<g id="edge13" class="edge">
<title>InteractionAffordance&#45;&gt;MultiLanguage</title>
<path fill="none" stroke="#000000" d="M394.3879,-306.857C390.9942,-296.1474 386.9329,-284.4664 382.5,-274 372.4038,-250.1622 358.4091,-224.3314 347.6332,-205.5521"/>
<polygon fill="#000000" stroke="#000000" points="350.5301,-203.571 342.4814,-196.6813 344.4769,-207.0865 350.5301,-203.571"/>
<text text-anchor="start" x="388.5" y="-277.8" font-family="mono" font-size="14.00" fill="#c83500">descriptions</text>
<text text-anchor="middle" x="331.4814" y="-200.4813" font-family="Times,serif" font-size="14.00" fill="#000000">0..1</text>
</g>
<!-- InteractionAffordance&#45;&gt;MultiLanguage -->
<g id="edge15" class="edge">
<title>InteractionAffordance&#45;&gt;MultiLanguage</title>
<path fill="none" stroke="#000000" d="M341.8819,-306.861C336.5633,-301.536 331.9191,-295.5881 328.5,-289 315.2377,-263.4453 318.5499,-229.8932 323.565,-206.4933"/>
<polygon fill="#000000" stroke="#000000" points="327.0277,-207.06 325.9356,-196.5216 320.2175,-205.4409 327.0277,-207.06"/>
<text text-anchor="start" x="328.5" y="-277.8" font-family="mono" font-size="14.00" fill="#c83500">titles</text>
<text text-anchor="middle" x="336.9356" y="-200.3216" font-family="Times,serif" font-size="14.00" fill="#000000">0..1</text>
</g>
<!-- InteractionAffordance&#45;&gt;Form -->
<g id="edge12" class="edge">
<title>InteractionAffordance&#45;&gt;Form</title>
<path fill="none" stroke="#000000" d="M313.1231,-306.9293C300.9395,-301.3435 288.772,-295.3132 277.5,-289 262.86,-280.8005 247.9421,-271.4832 233.4379,-261.8189"/>
<polygon fill="#000000" stroke="#000000" points="235.1987,-258.7848 224.9511,-256.0944 231.2843,-264.5881 235.1987,-258.7848"/>
<text text-anchor="start" x="277.5" y="-277.8" font-family="mono" font-size="14.00" fill="#c83500">forms</text>
<text text-anchor="middle" x="213.9511" y="-259.8944" font-family="Times,serif" font-size="14.00" fill="#000000">1..*</text>
</g>
<!-- InteractionAffordance&#45;&gt;DataSchema -->
<g id="edge14" class="edge">
<title>InteractionAffordance&#45;&gt;DataSchema</title>
<path fill="none" stroke="#000000" d="M466.7369,-306.8323C487.3493,-295.6596 510.6178,-283.7204 532.5,-274 600.7114,-243.6995 681.779,-215.6893 736.3402,-197.946"/>
<polygon fill="#000000" stroke="#000000" points="737.4353,-201.2705 745.8729,-194.8628 735.281,-194.6102 737.4353,-201.2705"/>
<text text-anchor="start" x="532.5" y="-277.8" font-family="mono" font-size="14.00" fill="#c83500">uriVariables</text>
<text text-anchor="middle" x="734.8729" y="-198.6628" font-family="Times,serif" font-size="14.00" fill="#000000">0..1</text>
</g>
<!-- EventAffordance&#45;&gt;InteractionAffordance -->
<g id="edge19" class="edge">
<title>EventAffordance&#45;&gt;InteractionAffordance</title>
<path fill="none" stroke="#000000" d="M976.6036,-446.4558C962.4609,-440.1455 945.9979,-433.5166 930.5,-429 854.1351,-406.7449 643.1641,-375.3765 512.7864,-357.1677"/>
<polygon fill="#ffffff" stroke="#000000" points="513.1517,-353.6849 502.7644,-355.7718 512.1859,-360.618 513.1517,-353.6849"/>
</g>
<!-- EventAffordance&#45;&gt;DataSchema -->
<g id="edge16" class="edge">
<title>EventAffordance&#45;&gt;DataSchema</title>
<path fill="none" stroke="#000000" d="M1023.8603,-446.3131C1032.9263,-429.2803 1045.4183,-402.8017 1050.5,-378 1060.0218,-331.5284 1063.7019,-303.4328 1026.5,-274 977.2234,-235.0142 909.7332,-209.3844 860.9815,-194.5855"/>
<polygon fill="#000000" stroke="#000000" points="861.7668,-191.1678 851.1844,-191.6803 859.7767,-197.8789 861.7668,-191.1678"/>
<text text-anchor="start" x="1057.5" y="-338.8" font-family="mono" font-size="14.00" fill="#c83500">cancellation</text>
<text text-anchor="middle" x="862.1844" y="-195.4803" font-family="Times,serif" font-size="14.00" fill="#000000">0..1</text>
</g>
<!-- EventAffordance&#45;&gt;DataSchema -->
<g id="edge17" class="edge">
<title>EventAffordance&#45;&gt;DataSchema</title>
<path fill="none" stroke="#000000" d="M978.1295,-446.371C951.2316,-431.1278 914.8242,-407.1741 890.5,-378 846.3679,-325.0686 818.7021,-247.4717 806.2436,-206.3963"/>
<polygon fill="#000000" stroke="#000000" points="809.5921,-205.3768 803.4031,-196.7776 802.8787,-207.3594 809.5921,-205.3768"/>
<text text-anchor="start" x="890.5" y="-338.8" font-family="mono" font-size="14.00" fill="#c83500">subscription</text>
<text text-anchor="middle" x="792.4031" y="-200.5776" font-family="Times,serif" font-size="14.00" fill="#000000">0..1</text>
</g>
<!-- EventAffordance&#45;&gt;DataSchema -->
<g id="edge18" class="edge">
<title>EventAffordance&#45;&gt;DataSchema</title>
<path fill="none" stroke="#000000" d="M1012.6839,-446.3743C1010.7574,-410.0586 1004.9539,-329.9013 990.5,-307 958.7221,-256.6498 899.2418,-221.4857 854.87,-200.8254"/>
<polygon fill="#000000" stroke="#000000" points="856.1986,-197.5848 845.6463,-196.6367 853.3041,-203.9584 856.1986,-197.5848"/>
<text text-anchor="start" x="1007.5" y="-338.8" font-family="mono" font-size="14.00" fill="#c83500">data</text>
<text text-anchor="middle" x="834.6463" y="-200.4367" font-family="Times,serif" font-size="14.00" fill="#000000">0..1</text>
</g>
</g>
</svg>
