<?xml version="1.0" encoding="UTF-8" standalone="no"?>
<!DOCTYPE svg PUBLIC "-//W3C//DTD SVG 1.1//EN"
 "http://www.w3.org/Graphics/SVG/1.1/DTD/svg11.dtd">
<!-- Generated by graphviz version 2.38.0 (20140413.2041)
 -->
<!-- Title: %3 Pages: 1 -->
<svg width="1264pt" height="819pt"
 viewBox="0.00 0.00 1263.67 819.00" xmlns="http://www.w3.org/2000/svg" xmlns:xlink="http://www.w3.org/1999/xlink">
<g id="graph0" class="graph" transform="scale(1 1) rotate(0) translate(4 815)">
<title>%3</title>
<polygon fill="white" stroke="none" points="-4,4 -4,-815 1259.67,-815 1259.67,4 -4,4"/>
<!-- MultiLanguage -->
<g id="node1" class="node"><title>MultiLanguage</title>
<polygon fill="#8ccbf2" stroke="none" points="71.6651,-167.5 71.6651,-188.5 185.665,-188.5 185.665,-167.5 71.6651,-167.5"/>
<polygon fill="none" stroke="#8ccbf2" points="71.6651,-167.5 71.6651,-188.5 185.665,-188.5 185.665,-167.5 71.6651,-167.5"/>
<text text-anchor="start" x="74.6651" y="-175.3" font-family="mono" font-weight="bold" font-size="14.00" fill="#c83500">MultiLanguage</text>
</g>
<!-- InteractionPattern -->
<g id="node2" class="node"><title>InteractionPattern</title>
<polygon fill="#8ccbf2" stroke="none" points="275.665,-394.5 275.665,-415.5 456.665,-415.5 456.665,-394.5 275.665,-394.5"/>
<polygon fill="none" stroke="#8ccbf2" points="275.665,-394.5 275.665,-415.5 456.665,-415.5 456.665,-394.5 275.665,-394.5"/>
<text text-anchor="start" x="291.665" y="-402.3" font-family="mono" font-weight="bold" font-size="14.00" fill="#c83500">InteractionPattern</text>
<polygon fill="#ddeeff" stroke="none" points="275.665,-373.5 275.665,-394.5 456.665,-394.5 456.665,-373.5 275.665,-373.5"/>
<polygon fill="none" stroke="#8ccbf2" points="275.665,-373.5 275.665,-394.5 456.665,-394.5 456.665,-373.5 275.665,-373.5"/>
<text text-anchor="start" x="278.665" y="-381.3" font-family="mono" font-size="14.00" fill="#c83500">description</text>
<text text-anchor="start" x="369.665" y="-381.3" font-family="Times,serif" font-size="14.00"> : </text>
<text text-anchor="start" x="381.665" y="-381.3" font-family="mono" font-size="14.00" fill="#c83500">string</text>
<polygon fill="#ddeeff" stroke="none" points="275.665,-352.5 275.665,-373.5 456.665,-373.5 456.665,-352.5 275.665,-352.5"/>
<polygon fill="none" stroke="#8ccbf2" points="275.665,-352.5 275.665,-373.5 456.665,-373.5 456.665,-352.5 275.665,-352.5"/>
<text text-anchor="start" x="278.665" y="-360.3" font-family="mono" font-size="14.00" fill="#c83500">title</text>
<text text-anchor="start" x="320.665" y="-360.3" font-family="Times,serif" font-size="14.00"> : </text>
<text text-anchor="start" x="332.665" y="-360.3" font-family="mono" font-size="14.00" fill="#c83500">string</text>
<polygon fill="#ddeeff" stroke="none" points="275.665,-331.5 275.665,-352.5 456.665,-352.5 456.665,-331.5 275.665,-331.5"/>
<polygon fill="none" stroke="#8ccbf2" points="275.665,-331.5 275.665,-352.5 456.665,-352.5 456.665,-331.5 275.665,-331.5"/>
<text text-anchor="start" x="278.665" y="-339.3" font-family="mono" font-size="14.00" fill="#c83500">scopes</text>
<text text-anchor="start" x="328.665" y="-339.3" font-family="Times,serif" font-size="14.00"> : array of </text>
<text text-anchor="start" x="386.665" y="-339.3" font-family="mono" font-size="14.00" fill="#c83500">string</text>
<polygon fill="#ddeeff" stroke="none" points="275.665,-310.5 275.665,-331.5 456.665,-331.5 456.665,-310.5 275.665,-310.5"/>
<polygon fill="none" stroke="#8ccbf2" points="275.665,-310.5 275.665,-331.5 456.665,-331.5 456.665,-310.5 275.665,-310.5"/>
<text text-anchor="start" x="278.665" y="-318.3" font-family="mono" font-size="14.00" fill="#c83500">security</text>
<text text-anchor="start" x="345.665" y="-318.3" font-family="Times,serif" font-size="14.00"> : array of </text>
<text text-anchor="start" x="403.665" y="-318.3" font-family="mono" font-size="14.00" fill="#c83500">string</text>
</g>
<!-- InteractionPattern&#45;&gt;MultiLanguage -->
<g id="edge1" class="edge"><title>InteractionPattern&#45;&gt;MultiLanguage</title>
<path fill="none" stroke="black" d="M272.594,-306.805C249.036,-291.344 224.297,-273.867 202.665,-256 183.618,-240.268 164.282,-220.103 150.155,-204.426"/>
<polygon fill="black" stroke="black" points="152.531,-201.832 143.271,-196.685 147.3,-206.483 152.531,-201.832"/>
<text text-anchor="start" x="245.665" y="-277.8" font-family="mono" font-size="14.00" fill="#c83500">descriptions</text>
<text text-anchor="middle" x="132.271" y="-200.485" font-family="Times,serif" font-size="14.00">0..1</text>
</g>
<!-- InteractionPattern&#45;&gt;MultiLanguage -->
<g id="edge2" class="edge"><title>InteractionPattern&#45;&gt;MultiLanguage</title>
<path fill="none" stroke="black" d="M266.753,-341.11C234.197,-330.033 199.912,-313.492 174.665,-289 151.717,-266.738 139.692,-231.273 133.777,-206.766"/>
<polygon fill="black" stroke="black" points="137.123,-205.687 131.537,-196.684 130.29,-207.205 137.123,-205.687"/>
<text text-anchor="start" x="174.665" y="-277.8" font-family="mono" font-size="14.00" fill="#c83500">titles</text>
<text text-anchor="middle" x="120.537" y="-200.484" font-family="Times,serif" font-size="14.00">0..1</text>
</g>
<!-- Form -->
<g id="node4" class="node"><title>Form</title>
<polygon fill="#8ccbf2" stroke="none" points="220.665,-230.5 220.665,-251.5 553.665,-251.5 553.665,-230.5 220.665,-230.5"/>
<polygon fill="none" stroke="#8ccbf2" points="220.665,-230.5 220.665,-251.5 553.665,-251.5 553.665,-230.5 220.665,-230.5"/>
<text text-anchor="start" x="370.165" y="-238.3" font-family="mono" font-weight="bold" font-size="14.00" fill="#c83500">Form</text>
<polygon fill="#ddeeff" stroke="none" points="220.665,-209.5 220.665,-230.5 553.665,-230.5 553.665,-209.5 220.665,-209.5"/>
<polygon fill="none" stroke="#8ccbf2" points="220.665,-209.5 220.665,-230.5 553.665,-230.5 553.665,-209.5 220.665,-209.5"/>
<text text-anchor="start" x="223.665" y="-217.3" font-family="mono" font-size="14.00" fill="#c83500">security</text>
<text text-anchor="start" x="290.665" y="-217.3" font-family="Times,serif" font-size="14.00"> : array of </text>
<text text-anchor="start" x="348.665" y="-217.3" font-family="mono" font-size="14.00" fill="#c83500">string</text>
<polygon fill="#ddeeff" stroke="none" points="220.665,-188.5 220.665,-209.5 553.665,-209.5 553.665,-188.5 220.665,-188.5"/>
<polygon fill="none" stroke="#8ccbf2" points="220.665,-188.5 220.665,-209.5 553.665,-209.5 553.665,-188.5 220.665,-188.5"/>
<text text-anchor="start" x="223.665" y="-196.3" font-family="mono" font-size="14.00" fill="#c83500">subprotocol</text>
<text text-anchor="start" x="314.665" y="-196.3" font-family="Times,serif" font-size="14.00"> : </text>
<text text-anchor="start" x="326.665" y="-196.3" font-family="mono" font-size="14.00" fill="#c83500">string</text>
<polygon fill="#ddeeff" stroke="none" points="220.665,-167.5 220.665,-188.5 553.665,-188.5 553.665,-167.5 220.665,-167.5"/>
<polygon fill="none" stroke="#8ccbf2" points="220.665,-167.5 220.665,-188.5 553.665,-188.5 553.665,-167.5 220.665,-167.5"/>
<text text-anchor="start" x="223.665" y="-175.3" font-family="mono" font-size="14.00" fill="#c83500">scopes</text>
<text text-anchor="start" x="273.665" y="-175.3" font-family="Times,serif" font-size="14.00"> : array of </text>
<text text-anchor="start" x="331.665" y="-175.3" font-family="mono" font-size="14.00" fill="#c83500">string</text>
<polygon fill="#ddeeff" stroke="none" points="220.665,-146.5 220.665,-167.5 553.665,-167.5 553.665,-146.5 220.665,-146.5"/>
<polygon fill="none" stroke="#8ccbf2" points="220.665,-146.5 220.665,-167.5 553.665,-167.5 553.665,-146.5 220.665,-146.5"/>
<text text-anchor="start" x="223.665" y="-154.3" font-family="mono" font-size="14.00" fill="#c83500">op</text>
<text text-anchor="start" x="240.665" y="-154.3" font-family="Times,serif" font-size="14.00"> : </text>
<text text-anchor="start" x="252.665" y="-154.3" font-family="mono" font-size="14.00" fill="#c83500">string</text>
<polygon fill="#ddeeff" stroke="none" points="220.665,-125.5 220.665,-146.5 553.665,-146.5 553.665,-125.5 220.665,-125.5"/>
<polygon fill="none" stroke="#8ccbf2" points="220.665,-125.5 220.665,-146.5 553.665,-146.5 553.665,-125.5 220.665,-125.5"/>
<text text-anchor="start" x="223.665" y="-133.3" font-family="mono" font-size="14.00" fill="#c83500">contentType</text>
<text text-anchor="start" x="314.665" y="-133.3" font-family="Times,serif" font-size="14.00"> : </text>
<text text-anchor="start" x="326.665" y="-133.3" font-family="mono" font-size="14.00" fill="#c83500">string</text>
<text text-anchor="start" x="376.665" y="-133.3" font-family="Times,serif" font-size="14.00"> = application/json </text>
<text text-anchor="start" x="482.665" y="-133.3" font-family="Times,serif" font-style="italic" font-size="14.00">(mandatory)</text>
<polygon fill="#ddeeff" stroke="none" points="220.665,-104.5 220.665,-125.5 553.665,-125.5 553.665,-104.5 220.665,-104.5"/>
<polygon fill="none" stroke="#8ccbf2" points="220.665,-104.5 220.665,-125.5 553.665,-125.5 553.665,-104.5 220.665,-104.5"/>
<text text-anchor="start" x="223.665" y="-112.3" font-family="mono" font-size="14.00" fill="#c83500">href</text>
<text text-anchor="start" x="257.665" y="-112.3" font-family="Times,serif" font-size="14.00"> : </text>
<text text-anchor="start" x="269.665" y="-112.3" font-family="mono" font-size="14.00" fill="#c83500">anyURI</text>
<text text-anchor="start" x="319.665" y="-112.3" font-family="Times,serif" font-size="14.00"> </text>
<text text-anchor="start" x="323.665" y="-112.3" font-family="Times,serif" font-style="italic" font-size="14.00">(mandatory)</text>
</g>
<!-- InteractionPattern&#45;&gt;Form -->
<g id="edge3" class="edge"><title>InteractionPattern&#45;&gt;Form</title>
<path fill="none" stroke="black" d="M364.624,-306.691C364.893,-295.825 365.502,-284.538 366.665,-274 366.947,-271.448 367.266,-268.863 367.618,-266.258"/>
<polygon fill="black" stroke="black" points="371.114,-266.547 369.124,-256.14 364.19,-265.516 371.114,-266.547"/>
<text text-anchor="start" x="366.665" y="-277.8" font-family="mono" font-size="14.00" fill="#c83500">forms</text>
<text text-anchor="middle" x="358.124" y="-259.94" font-family="Times,serif" font-size="14.00">1..*</text>
</g>
<!-- DataSchema -->
<g id="node11" class="node"><title>DataSchema</title>
<polygon fill="#f2f2f2" stroke="none" points="607.665,-167.5 607.665,-188.5 696.665,-188.5 696.665,-167.5 607.665,-167.5"/>
<polygon fill="none" stroke="#8c8c8c" points="607.665,-167.5 607.665,-188.5 696.665,-188.5 696.665,-167.5 607.665,-167.5"/>
<text text-anchor="start" x="610.665" y="-175.3" font-family="mono" font-weight="bold" font-size="14.00">DataSchema</text>
</g>
<!-- InteractionPattern&#45;&gt;DataSchema -->
<g id="edge4" class="edge"><title>InteractionPattern&#45;&gt;DataSchema</title>
<path fill="none" stroke="black" d="M396.544,-306.892C406.174,-294.17 417.938,-282.04 431.665,-274 485.037,-242.739 513.709,-282.357 569.665,-256 594.489,-244.307 616.833,-222.303 631.904,-204.884"/>
<polygon fill="black" stroke="black" points="634.964,-206.682 638.698,-196.767 629.596,-202.189 634.964,-206.682"/>
<text text-anchor="start" x="431.665" y="-277.8" font-family="mono" font-size="14.00" fill="#c83500">uriVariables</text>
<text text-anchor="middle" x="627.698" y="-200.567" font-family="Times,serif" font-size="14.00">0..1</text>
</g>
<!-- Link -->
<g id="node3" class="node"><title>Link</title>
<polygon fill="#8ccbf2" stroke="none" points="51.6651,-558.5 51.6651,-579.5 225.665,-579.5 225.665,-558.5 51.6651,-558.5"/>
<polygon fill="none" stroke="#8ccbf2" points="51.6651,-558.5 51.6651,-579.5 225.665,-579.5 225.665,-558.5 51.6651,-558.5"/>
<text text-anchor="start" x="121.665" y="-566.3" font-family="mono" font-weight="bold" font-size="14.00" fill="#c83500">Link</text>
<polygon fill="#ddeeff" stroke="none" points="51.6651,-537.5 51.6651,-558.5 225.665,-558.5 225.665,-537.5 51.6651,-537.5"/>
<polygon fill="none" stroke="#8ccbf2" points="51.6651,-537.5 51.6651,-558.5 225.665,-558.5 225.665,-537.5 51.6651,-537.5"/>
<text text-anchor="start" x="54.6651" y="-545.3" font-family="mono" font-size="14.00" fill="#c83500">href</text>
<text text-anchor="start" x="88.6651" y="-545.3" font-family="Times,serif" font-size="14.00"> : </text>
<text text-anchor="start" x="100.665" y="-545.3" font-family="mono" font-size="14.00" fill="#c83500">anyURI</text>
<text text-anchor="start" x="150.665" y="-545.3" font-family="Times,serif" font-size="14.00"> </text>
<text text-anchor="start" x="154.665" y="-545.3" font-family="Times,serif" font-style="italic" font-size="14.00">(mandatory)</text>
<polygon fill="#ddeeff" stroke="none" points="51.6651,-516.5 51.6651,-537.5 225.665,-537.5 225.665,-516.5 51.6651,-516.5"/>
<polygon fill="none" stroke="#8ccbf2" points="51.6651,-516.5 51.6651,-537.5 225.665,-537.5 225.665,-516.5 51.6651,-516.5"/>
<text text-anchor="start" x="54.6651" y="-524.3" font-family="mono" font-size="14.00" fill="#c83500">type</text>
<text text-anchor="start" x="88.6651" y="-524.3" font-family="Times,serif" font-size="14.00"> : </text>
<text text-anchor="start" x="100.665" y="-524.3" font-family="mono" font-size="14.00" fill="#c83500">string</text>
<polygon fill="#ddeeff" stroke="none" points="51.6651,-495.5 51.6651,-516.5 225.665,-516.5 225.665,-495.5 51.6651,-495.5"/>
<polygon fill="none" stroke="#8ccbf2" points="51.6651,-495.5 51.6651,-516.5 225.665,-516.5 225.665,-495.5 51.6651,-495.5"/>
<text text-anchor="start" x="54.6651" y="-503.3" font-family="mono" font-size="14.00" fill="#c83500">rel</text>
<text text-anchor="start" x="79.6651" y="-503.3" font-family="Times,serif" font-size="14.00"> : </text>
<text text-anchor="start" x="91.6651" y="-503.3" font-family="mono" font-size="14.00" fill="#c83500">string</text>
<polygon fill="#ddeeff" stroke="none" points="51.6651,-474.5 51.6651,-495.5 225.665,-495.5 225.665,-474.5 51.6651,-474.5"/>
<polygon fill="none" stroke="#8ccbf2" points="51.6651,-474.5 51.6651,-495.5 225.665,-495.5 225.665,-474.5 51.6651,-474.5"/>
<text text-anchor="start" x="54.6651" y="-482.3" font-family="mono" font-size="14.00" fill="#c83500">anchor</text>
<text text-anchor="start" x="104.665" y="-482.3" font-family="Times,serif" font-size="14.00"> : </text>
<text text-anchor="start" x="116.665" y="-482.3" font-family="mono" font-size="14.00" fill="#c83500">anyURI</text>
</g>
<!-- ExpectedResponse -->
<g id="node7" class="node"><title>ExpectedResponse</title>
<polygon fill="#8ccbf2" stroke="none" points="307.665,-25 307.665,-46 466.665,-46 466.665,-25 307.665,-25"/>
<polygon fill="none" stroke="#8ccbf2" points="307.665,-25 307.665,-46 466.665,-46 466.665,-25 307.665,-25"/>
<text text-anchor="start" x="320.665" y="-32.8" font-family="mono" font-weight="bold" font-size="14.00" fill="#c83500">ExpectedResponse</text>
<polygon fill="#ddeeff" stroke="none" points="307.665,-4 307.665,-25 466.665,-25 466.665,-4 307.665,-4"/>
<polygon fill="none" stroke="#8ccbf2" points="307.665,-4 307.665,-25 466.665,-25 466.665,-4 307.665,-4"/>
<text text-anchor="start" x="310.665" y="-11.8" font-family="mono" font-size="14.00" fill="#c83500">contentType</text>
<text text-anchor="start" x="401.665" y="-11.8" font-family="Times,serif" font-size="14.00"> : </text>
<text text-anchor="start" x="413.665" y="-11.8" font-family="mono" font-size="14.00" fill="#c83500">string</text>
</g>
<!-- Form&#45;&gt;ExpectedResponse -->
<g id="edge5" class="edge"><title>Form&#45;&gt;ExpectedResponse</title>
<path fill="none" stroke="black" d="M386.665,-100.862C386.665,-86.5577 386.665,-72.2953 386.665,-60.116"/>
<polygon fill="black" stroke="black" points="390.165,-60.0004 386.665,-50.0004 383.165,-60.0004 390.165,-60.0004"/>
<text text-anchor="start" x="386.665" y="-71.8" font-family="mono" font-size="14.00" fill="#c83500">response</text>
<text text-anchor="middle" x="375.665" y="-53.8004" font-family="Times,serif" font-size="14.00">0..1</text>
</g>
<!-- Thing -->
<g id="node5" class="node"><title>Thing</title>
<polygon fill="#8ccbf2" stroke="none" points="505.665,-786 505.665,-807 758.665,-807 758.665,-786 505.665,-786"/>
<polygon fill="none" stroke="#8ccbf2" points="505.665,-786 505.665,-807 758.665,-807 758.665,-786 505.665,-786"/>
<text text-anchor="start" x="611.165" y="-793.8" font-family="mono" font-weight="bold" font-size="14.00" fill="#c83500">Thing</text>
<polygon fill="#ddeeff" stroke="none" points="505.665,-765 505.665,-786 758.665,-786 758.665,-765 505.665,-765"/>
<polygon fill="none" stroke="#8ccbf2" points="505.665,-765 505.665,-786 758.665,-786 758.665,-765 505.665,-765"/>
<text text-anchor="start" x="508.665" y="-772.8" font-family="mono" font-size="14.00" fill="#c83500">security</text>
<text text-anchor="start" x="575.665" y="-772.8" font-family="Times,serif" font-size="14.00"> : array of </text>
<text text-anchor="start" x="633.665" y="-772.8" font-family="mono" font-size="14.00" fill="#c83500">string</text>
<text text-anchor="start" x="683.665" y="-772.8" font-family="Times,serif" font-size="14.00"> </text>
<text text-anchor="start" x="687.665" y="-772.8" font-family="Times,serif" font-style="italic" font-size="14.00">(mandatory)</text>
<polygon fill="#ddeeff" stroke="none" points="505.665,-744 505.665,-765 758.665,-765 758.665,-744 505.665,-744"/>
<polygon fill="none" stroke="#8ccbf2" points="505.665,-744 505.665,-765 758.665,-765 758.665,-744 505.665,-744"/>
<text text-anchor="start" x="508.665" y="-751.8" font-family="mono" font-size="14.00" fill="#c83500">support</text>
<text text-anchor="start" x="566.665" y="-751.8" font-family="Times,serif" font-size="14.00"> : </text>
<text text-anchor="start" x="578.665" y="-751.8" font-family="mono" font-size="14.00" fill="#c83500">string</text>
<polygon fill="#ddeeff" stroke="none" points="505.665,-723 505.665,-744 758.665,-744 758.665,-723 505.665,-723"/>
<polygon fill="none" stroke="#8ccbf2" points="505.665,-723 505.665,-744 758.665,-744 758.665,-723 505.665,-723"/>
<text text-anchor="start" x="508.665" y="-730.8" font-family="mono" font-size="14.00" fill="#c83500">name</text>
<text text-anchor="start" x="542.665" y="-730.8" font-family="Times,serif" font-size="14.00"> : </text>
<text text-anchor="start" x="554.665" y="-730.8" font-family="mono" font-size="14.00" fill="#c83500">string</text>
<text text-anchor="start" x="604.665" y="-730.8" font-family="Times,serif" font-size="14.00"> </text>
<text text-anchor="start" x="608.665" y="-730.8" font-family="Times,serif" font-style="italic" font-size="14.00">(mandatory)</text>
<polygon fill="#ddeeff" stroke="none" points="505.665,-702 505.665,-723 758.665,-723 758.665,-702 505.665,-702"/>
<polygon fill="none" stroke="#8ccbf2" points="505.665,-702 505.665,-723 758.665,-723 758.665,-702 505.665,-702"/>
<text text-anchor="start" x="508.665" y="-709.8" font-family="mono" font-size="14.00" fill="#c83500">description</text>
<text text-anchor="start" x="599.665" y="-709.8" font-family="Times,serif" font-size="14.00"> : </text>
<text text-anchor="start" x="611.665" y="-709.8" font-family="mono" font-size="14.00" fill="#c83500">string</text>
<polygon fill="#ddeeff" stroke="none" points="505.665,-681 505.665,-702 758.665,-702 758.665,-681 505.665,-681"/>
<polygon fill="none" stroke="#8ccbf2" points="505.665,-681 505.665,-702 758.665,-702 758.665,-681 505.665,-681"/>
<text text-anchor="start" x="508.665" y="-688.8" font-family="mono" font-size="14.00" fill="#c83500">base</text>
<text text-anchor="start" x="542.665" y="-688.8" font-family="Times,serif" font-size="14.00"> : </text>
<text text-anchor="start" x="554.665" y="-688.8" font-family="mono" font-size="14.00" fill="#c83500">anyURI</text>
<polygon fill="#ddeeff" stroke="none" points="505.665,-660 505.665,-681 758.665,-681 758.665,-660 505.665,-660"/>
<polygon fill="none" stroke="#8ccbf2" points="505.665,-660 505.665,-681 758.665,-681 758.665,-660 505.665,-660"/>
<text text-anchor="start" x="508.665" y="-667.8" font-family="mono" font-size="14.00" fill="#c83500">created</text>
<text text-anchor="start" x="566.665" y="-667.8" font-family="Times,serif" font-size="14.00"> : </text>
<text text-anchor="start" x="578.665" y="-667.8" font-family="mono" font-size="14.00" fill="#c83500">string</text>
<polygon fill="#ddeeff" stroke="none" points="505.665,-639 505.665,-660 758.665,-660 758.665,-639 505.665,-639"/>
<polygon fill="none" stroke="#8ccbf2" points="505.665,-639 505.665,-660 758.665,-660 758.665,-639 505.665,-639"/>
<text text-anchor="start" x="508.665" y="-646.8" font-family="mono" font-size="14.00" fill="#c83500">lastModified</text>
<text text-anchor="start" x="608.665" y="-646.8" font-family="Times,serif" font-size="14.00"> : </text>
<text text-anchor="start" x="620.665" y="-646.8" font-family="mono" font-size="14.00" fill="#c83500">string</text>
</g>
<!-- Thing&#45;&gt;MultiLanguage -->
<g id="edge7" class="edge"><title>Thing&#45;&gt;MultiLanguage</title>
<path fill="none" stroke="black" d="M496.992,-710.044C338.99,-692.902 91.3169,-655.241 34.6651,-584 -58.5018,-466.84 61.2793,-273.659 109.88,-204.827"/>
<polygon fill="black" stroke="black" points="112.728,-206.861 115.703,-196.693 107.036,-202.787 112.728,-206.861"/>
<text text-anchor="start" x="3.6651" y="-441.8" font-family="mono" font-size="14.00" fill="#c83500">descriptions</text>
<text text-anchor="middle" x="104.703" y="-200.493" font-family="Times,serif" font-size="14.00">0..1</text>
</g>
<!-- Thing&#45;&gt;Link -->
<g id="edge6" class="edge"><title>Thing&#45;&gt;Link</title>
<path fill="none" stroke="black" d="M496.963,-679.731C423.765,-655.444 331.956,-622.84 243.285,-584.154"/>
<polygon fill="black" stroke="black" points="244.447,-580.841 233.883,-580.024 241.631,-587.25 244.447,-580.841"/>
<text text-anchor="start" x="315.665" y="-605.8" font-family="mono" font-size="14.00" fill="#c83500">links</text>
<text text-anchor="middle" x="244.883" y="-583.824" font-family="Times,serif" font-size="14.00">0..*</text>
</g>
<!-- Property -->
<g id="node6" class="node"><title>Property</title>
<polygon fill="#8ccbf2" stroke="none" points="260.665,-527.5 260.665,-548.5 461.665,-548.5 461.665,-527.5 260.665,-527.5"/>
<polygon fill="none" stroke="#8ccbf2" points="260.665,-527.5 260.665,-548.5 461.665,-548.5 461.665,-527.5 260.665,-527.5"/>
<text text-anchor="start" x="327.665" y="-535.3" font-family="mono" font-weight="bold" font-size="14.00" fill="#c83500">Property</text>
<polygon fill="#ddeeff" stroke="none" points="260.665,-506.5 260.665,-527.5 461.665,-527.5 461.665,-506.5 260.665,-506.5"/>
<polygon fill="none" stroke="#8ccbf2" points="260.665,-506.5 260.665,-527.5 461.665,-527.5 461.665,-506.5 260.665,-506.5"/>
<text text-anchor="start" x="263.665" y="-514.3" font-family="mono" font-size="14.00" fill="#c83500">observable</text>
<text text-anchor="start" x="346.665" y="-514.3" font-family="Times,serif" font-size="14.00"> : </text>
<text text-anchor="start" x="358.665" y="-514.3" font-family="mono" font-size="14.00" fill="#c83500">boolean</text>
<text text-anchor="start" x="416.665" y="-514.3" font-family="Times,serif" font-size="14.00"> = false</text>
</g>
<!-- Thing&#45;&gt;Property -->
<g id="edge11" class="edge"><title>Thing&#45;&gt;Property</title>
<path fill="none" stroke="black" d="M509.642,-634.873C471.282,-607.483 431.467,-579.054 402.658,-558.484"/>
<polygon fill="black" stroke="black" points="404.633,-555.593 394.461,-552.631 400.565,-561.29 404.633,-555.593"/>
<text text-anchor="start" x="480.665" y="-605.8" font-family="mono" font-size="14.00" fill="#c83500">properties</text>
<text text-anchor="middle" x="383.461" y="-556.431" font-family="Times,serif" font-size="14.00">0..1</text>
</g>
<!-- Action -->
<g id="node8" class="node"><title>Action</title>
<polygon fill="#8ccbf2" stroke="none" points="495.665,-537.5 495.665,-558.5 768.665,-558.5 768.665,-537.5 495.665,-537.5"/>
<polygon fill="none" stroke="#8ccbf2" points="495.665,-537.5 495.665,-558.5 768.665,-558.5 768.665,-537.5 495.665,-537.5"/>
<text text-anchor="start" x="607.165" y="-545.3" font-family="mono" font-weight="bold" font-size="14.00" fill="#c83500">Action</text>
<polygon fill="#ddeeff" stroke="none" points="495.665,-516.5 495.665,-537.5 768.665,-537.5 768.665,-516.5 495.665,-516.5"/>
<polygon fill="none" stroke="#8ccbf2" points="495.665,-516.5 495.665,-537.5 768.665,-537.5 768.665,-516.5 495.665,-516.5"/>
<text text-anchor="start" x="498.665" y="-524.3" font-family="mono" font-size="14.00" fill="#c83500">safe</text>
<text text-anchor="start" x="532.665" y="-524.3" font-family="Times,serif" font-size="14.00"> : </text>
<text text-anchor="start" x="544.665" y="-524.3" font-family="mono" font-size="14.00" fill="#c83500">boolean</text>
<text text-anchor="start" x="602.665" y="-524.3" font-family="Times,serif" font-size="14.00"> = false </text>
<text text-anchor="start" x="648.665" y="-524.3" font-family="Times,serif" font-style="italic" font-size="14.00">(mandatory)</text>
<polygon fill="#ddeeff" stroke="none" points="495.665,-495.5 495.665,-516.5 768.665,-516.5 768.665,-495.5 495.665,-495.5"/>
<polygon fill="none" stroke="#8ccbf2" points="495.665,-495.5 495.665,-516.5 768.665,-516.5 768.665,-495.5 495.665,-495.5"/>
<text text-anchor="start" x="498.665" y="-503.3" font-family="mono" font-size="14.00" fill="#c83500">idempotent</text>
<text text-anchor="start" x="581.665" y="-503.3" font-family="Times,serif" font-size="14.00"> : </text>
<text text-anchor="start" x="593.665" y="-503.3" font-family="mono" font-size="14.00" fill="#c83500">boolean</text>
<text text-anchor="start" x="651.665" y="-503.3" font-family="Times,serif" font-size="14.00"> = false </text>
<text text-anchor="start" x="697.665" y="-503.3" font-family="Times,serif" font-style="italic" font-size="14.00">(mandatory)</text>
</g>
<!-- Thing&#45;&gt;Action -->
<g id="edge10" class="edge"><title>Thing&#45;&gt;Action</title>
<path fill="none" stroke="black" d="M631.665,-634.873C631.665,-613.643 631.665,-591.788 631.665,-573.453"/>
<polygon fill="black" stroke="black" points="635.165,-573.377 631.665,-563.377 628.165,-573.377 635.165,-573.377"/>
<text text-anchor="start" x="631.665" y="-605.8" font-family="mono" font-size="14.00" fill="#c83500">actions</text>
<text text-anchor="middle" x="620.665" y="-567.177" font-family="Times,serif" font-size="14.00">0..1</text>
</g>
<!-- Event -->
<g id="node9" class="node"><title>Event</title>
<polygon fill="#8ccbf2" stroke="none" points="801.665,-516.5 801.665,-537.5 849.665,-537.5 849.665,-516.5 801.665,-516.5"/>
<polygon fill="none" stroke="#8ccbf2" points="801.665,-516.5 801.665,-537.5 849.665,-537.5 849.665,-516.5 801.665,-516.5"/>
<text text-anchor="start" x="804.665" y="-524.3" font-family="mono" font-weight="bold" font-size="14.00" fill="#c83500">Event</text>
</g>
<!-- Thing&#45;&gt;Event -->
<g id="edge12" class="edge"><title>Thing&#45;&gt;Event</title>
<path fill="none" stroke="black" d="M734,-634.935C751.495,-618.598 769.046,-601.224 784.665,-584 793.044,-574.76 801.39,-563.855 808.343,-554.168"/>
<polygon fill="black" stroke="black" points="811.411,-555.89 814.299,-545.696 805.684,-551.864 811.411,-555.89"/>
<text text-anchor="start" x="765.665" y="-605.8" font-family="mono" font-size="14.00" fill="#c83500">events</text>
<text text-anchor="middle" x="803.299" y="-549.496" font-family="Times,serif" font-size="14.00">0..1</text>
</g>
<!-- Versioning -->
<g id="node10" class="node"><title>Versioning</title>
<polygon fill="#8ccbf2" stroke="none" points="884.665,-527.5 884.665,-548.5 1091.67,-548.5 1091.67,-527.5 884.665,-527.5"/>
<polygon fill="none" stroke="#8ccbf2" points="884.665,-527.5 884.665,-548.5 1091.67,-548.5 1091.67,-527.5 884.665,-527.5"/>
<text text-anchor="start" x="946.665" y="-535.3" font-family="mono" font-weight="bold" font-size="14.00" fill="#c83500">Versioning</text>
<polygon fill="#ddeeff" stroke="none" points="884.665,-506.5 884.665,-527.5 1091.67,-527.5 1091.67,-506.5 884.665,-506.5"/>
<polygon fill="none" stroke="#8ccbf2" points="884.665,-506.5 884.665,-527.5 1091.67,-527.5 1091.67,-506.5 884.665,-506.5"/>
<text text-anchor="start" x="887.665" y="-514.3" font-family="mono" font-size="14.00" fill="#c83500">instance</text>
<text text-anchor="start" x="954.665" y="-514.3" font-family="Times,serif" font-size="14.00"> : </text>
<text text-anchor="start" x="966.665" y="-514.3" font-family="mono" font-size="14.00" fill="#c83500">string</text>
<text text-anchor="start" x="1016.67" y="-514.3" font-family="Times,serif" font-size="14.00"> </text>
<text text-anchor="start" x="1020.67" y="-514.3" font-family="Times,serif" font-style="italic" font-size="14.00">(mandatory)</text>
</g>
<!-- Thing&#45;&gt;Versioning -->
<g id="edge9" class="edge"><title>Thing&#45;&gt;Versioning</title>
<path fill="none" stroke="black" d="M766.253,-648.846C824.832,-617.006 890.091,-581.535 934.489,-557.403"/>
<polygon fill="black" stroke="black" points="936.244,-560.433 943.359,-552.582 932.901,-554.283 936.244,-560.433"/>
<text text-anchor="start" x="852.665" y="-605.8" font-family="mono" font-size="14.00" fill="#c83500">version</text>
<text text-anchor="middle" x="932.359" y="-556.382" font-family="Times,serif" font-size="14.00">0..1</text>
</g>
<!-- SecurityScheme -->
<g id="node12" class="node"><title>SecurityScheme</title>
<polygon fill="#f2f2f2" stroke="none" points="1125.67,-516.5 1125.67,-537.5 1247.67,-537.5 1247.67,-516.5 1125.67,-516.5"/>
<polygon fill="none" stroke="#8c8c8c" points="1125.67,-516.5 1125.67,-537.5 1247.67,-537.5 1247.67,-516.5 1125.67,-516.5"/>
<text text-anchor="start" x="1128.67" y="-524.3" font-family="mono" font-weight="bold" font-size="14.00">SecurityScheme</text>
</g>
<!-- Thing&#45;&gt;SecurityScheme -->
<g id="edge8" class="edge"><title>Thing&#45;&gt;SecurityScheme</title>
<path fill="none" stroke="black" d="M766.274,-695.479C864.046,-673.268 997.894,-636.661 1107.67,-584 1125.6,-575.394 1143.89,-562.836 1158.35,-551.842"/>
<polygon fill="black" stroke="black" points="1160.64,-554.493 1166.39,-545.591 1156.34,-548.967 1160.64,-554.493"/>
<text text-anchor="start" x="1059.67" y="-605.8" font-family="mono" font-size="14.00" fill="#c83500">securityDefinitions</text>
<text text-anchor="middle" x="1155.39" y="-549.391" font-family="Times,serif" font-size="14.00">0..1</text>
</g>
<!-- Property&#45;&gt;InteractionPattern -->
<g id="edge20" class="edge"><title>Property&#45;&gt;InteractionPattern</title>
<path fill="none" stroke="black" d="M361.414,-502.247C362.003,-483.156 362.853,-455.613 363.638,-430.165"/>
<polygon fill="white" stroke="black" points="367.137,-430.27 363.947,-420.167 360.14,-430.054 367.137,-430.27"/>
</g>
<!-- Action&#45;&gt;InteractionPattern -->
<g id="edge18" class="edge"><title>Action&#45;&gt;InteractionPattern</title>
<path fill="none" stroke="black" d="M552.27,-491.971C528.373,-480.561 502.456,-467.139 479.665,-453 466.653,-444.928 453.357,-435.666 440.654,-426.243"/>
<polygon fill="white" stroke="black" points="442.497,-423.25 432.401,-420.038 438.291,-428.845 442.497,-423.25"/>
</g>
<!-- Action&#45;&gt;DataSchema -->
<g id="edge13" class="edge"><title>Action&#45;&gt;DataSchema</title>
<path fill="none" stroke="black" d="M600.443,-491.86C584.916,-472.275 567.771,-446.461 559.665,-420 544.956,-371.98 544.224,-354.789 559.665,-307 572.766,-266.453 604.099,-227.946 626.557,-204.069"/>
<polygon fill="black" stroke="black" points="629.094,-206.48 633.502,-196.846 624.048,-201.628 629.094,-206.48"/>
<text text-anchor="start" x="559.665" y="-359.8" font-family="mono" font-size="14.00" fill="#c83500">output</text>
<text text-anchor="middle" x="644.502" y="-200.646" font-family="Times,serif" font-size="14.00">0..1</text>
</g>
<!-- Action&#45;&gt;DataSchema -->
<g id="edge14" class="edge"><title>Action&#45;&gt;DataSchema</title>
<path fill="none" stroke="black" d="M633.656,-491.96C637.627,-423.069 646.459,-269.825 650.075,-207.088"/>
<polygon fill="black" stroke="black" points="653.586,-206.989 650.668,-196.804 646.598,-206.586 653.586,-206.989"/>
<text text-anchor="start" x="644.665" y="-359.8" font-family="mono" font-size="14.00" fill="#c83500">input</text>
<text text-anchor="middle" x="661.668" y="-200.604" font-family="Times,serif" font-size="14.00">0..1</text>
</g>
<!-- Event&#45;&gt;InteractionPattern -->
<g id="edge19" class="edge"><title>Event&#45;&gt;InteractionPattern</title>
<path fill="none" stroke="black" d="M817.506,-509.481C810.551,-496.855 799.347,-480.282 784.665,-471 781.543,-469.026 527.229,-420.969 523.665,-420 507.483,-415.602 490.571,-410.368 474.081,-404.898"/>
<polygon fill="white" stroke="black" points="475.024,-401.523 464.43,-401.655 472.794,-408.158 475.024,-401.523"/>
</g>
<!-- Event&#45;&gt;DataSchema -->
<g id="edge15" class="edge"><title>Event&#45;&gt;DataSchema</title>
<path fill="none" stroke="black" d="M838.675,-509.188C852.95,-489.012 874.989,-454.072 883.665,-420 896.058,-371.331 899.196,-354.76 883.665,-307 860.744,-236.513 774.63,-204.236 714.039,-190"/>
<polygon fill="black" stroke="black" points="714.696,-186.56 704.173,-187.786 713.164,-193.39 714.696,-186.56"/>
<text text-anchor="start" x="894.665" y="-359.8" font-family="mono" font-size="14.00" fill="#c83500">subscription</text>
<text text-anchor="middle" x="715.173" y="-191.586" font-family="Times,serif" font-size="14.00">0..1</text>
</g>
<!-- Event&#45;&gt;DataSchema -->
<g id="edge16" class="edge"><title>Event&#45;&gt;DataSchema</title>
<path fill="none" stroke="black" d="M814.447,-509.167C806.707,-497.783 795.834,-482.861 784.665,-471 760.439,-445.273 743.11,-449.507 723.665,-420 717.629,-410.84 676.547,-267.309 659.282,-206.447"/>
<polygon fill="black" stroke="black" points="662.63,-205.424 656.536,-196.756 655.895,-207.332 662.63,-205.424"/>
<text text-anchor="start" x="723.665" y="-359.8" font-family="mono" font-size="14.00" fill="#c83500">cancellation</text>
<text text-anchor="middle" x="667.536" y="-200.556" font-family="Times,serif" font-size="14.00">0..1</text>
</g>
<!-- Event&#45;&gt;DataSchema -->
<g id="edge17" class="edge"><title>Event&#45;&gt;DataSchema</title>
<path fill="none" stroke="black" d="M830.385,-509.335C840.017,-470.687 858.252,-374.919 823.665,-307 798.183,-256.959 742.876,-221.577 701.82,-200.98"/>
<polygon fill="black" stroke="black" points="703.29,-197.802 692.769,-196.56 700.219,-204.093 703.29,-197.802"/>
<text text-anchor="start" x="844.665" y="-359.8" font-family="mono" font-size="14.00" fill="#c83500">data</text>
<text text-anchor="middle" x="703.769" y="-200.36" font-family="Times,serif" font-size="14.00">0..1</text>
</g>
</g>
</svg>
