<?xml version="1.0" encoding="UTF-8" standalone="no"?>
<!DOCTYPE svg PUBLIC "-//W3C//DTD SVG 1.1//EN"
 "http://www.w3.org/Graphics/SVG/1.1/DTD/svg11.dtd">
<!-- Generated by graphviz version 2.40.1 (20161225.0304)
 -->
<!-- Title: %3 Pages: 1 -->
<svg width="1274pt" height="578pt"
 viewBox="0.00 0.00 1274.00 578.00" xmlns="http://www.w3.org/2000/svg" xmlns:xlink="http://www.w3.org/1999/xlink">
<g id="graph0" class="graph" transform="scale(1 1) rotate(0) translate(4 574)">
<title>%3</title>
<polygon fill="#ffffff" stroke="transparent" points="-4,4 -4,-574 1270,-574 1270,4 -4,4"/>
<!-- MultiLanguage -->
<g id="node1" class="node">
<title>MultiLanguage</title>
<polygon fill="#8ccbf2" stroke="transparent" points="88,-7 88,-28 202,-28 202,-7 88,-7"/>
<polygon fill="none" stroke="#8ccbf2" points="88,-7 88,-28 202,-28 202,-7 88,-7"/>
<text text-anchor="start" x="91" y="-14.8" font-family="mono" font-weight="bold" font-size="14.00" fill="#c83500">MultiLanguage</text>
</g>
<!-- Thing -->
<g id="node2" class="node">
<title>Thing</title>
<polygon fill="#8ccbf2" stroke="transparent" points="477,-544.5 477,-565.5 739,-565.5 739,-544.5 477,-544.5"/>
<polygon fill="none" stroke="#8ccbf2" points="477,-544.5 477,-565.5 739,-565.5 739,-544.5 477,-544.5"/>
<text text-anchor="start" x="587" y="-552.3" font-family="mono" font-weight="bold" font-size="14.00" fill="#c83500">Thing</text>
<polygon fill="#ddeeff" stroke="transparent" points="477,-523.5 477,-544.5 739,-544.5 739,-523.5 477,-523.5"/>
<polygon fill="none" stroke="#8ccbf2" points="477,-523.5 477,-544.5 739,-544.5 739,-523.5 477,-523.5"/>
<text text-anchor="start" x="480" y="-531.3" font-family="mono" font-size="14.00" fill="#c83500">@context</text>
<text text-anchor="start" x="547" y="-531.3" font-family="Times,serif" font-size="14.00" fill="#000000"> : </text>
<text text-anchor="start" x="559" y="-531.3" font-family="Times,serif" font-style="italic" font-size="14.00" fill="#000000">string or array</text>
<text text-anchor="start" x="641" y="-531.3" font-family="Times,serif" font-size="14.00" fill="#000000"> </text>
<text text-anchor="start" x="645" y="-531.3" font-family="Times,serif" font-style="italic" font-size="14.00" fill="#000000">(mandatory)</text>
<polygon fill="#ddeeff" stroke="transparent" points="477,-502.5 477,-523.5 739,-523.5 739,-502.5 477,-502.5"/>
<polygon fill="none" stroke="#8ccbf2" points="477,-502.5 477,-523.5 739,-523.5 739,-502.5 477,-502.5"/>
<text text-anchor="start" x="480" y="-510.3" font-family="mono" font-size="14.00" fill="#c83500">@type</text>
<text text-anchor="start" x="522" y="-510.3" font-family="Times,serif" font-size="14.00" fill="#000000"> : </text>
<text text-anchor="start" x="534" y="-510.3" font-family="Times,serif" font-style="italic" font-size="14.00" fill="#000000">(array of) </text>
<text text-anchor="start" x="592" y="-510.3" font-family="mono" font-size="14.00" fill="#c83500">string</text>
<polygon fill="#ddeeff" stroke="transparent" points="477,-481.5 477,-502.5 739,-502.5 739,-481.5 477,-481.5"/>
<polygon fill="none" stroke="#8ccbf2" points="477,-481.5 477,-502.5 739,-502.5 739,-481.5 477,-481.5"/>
<text text-anchor="start" x="480" y="-489.3" font-family="mono" font-size="14.00" fill="#c83500">id</text>
<text text-anchor="start" x="497" y="-489.3" font-family="Times,serif" font-size="14.00" fill="#000000"> : </text>
<text text-anchor="start" x="509" y="-489.3" font-family="mono" font-size="14.00" fill="#c83500">anyURI</text>
<text text-anchor="start" x="559" y="-489.3" font-family="Times,serif" font-size="14.00" fill="#000000"> </text>
<text text-anchor="start" x="563" y="-489.3" font-family="Times,serif" font-style="italic" font-size="14.00" fill="#000000">(mandatory)</text>
<polygon fill="#ddeeff" stroke="transparent" points="477,-460.5 477,-481.5 739,-481.5 739,-460.5 477,-460.5"/>
<polygon fill="none" stroke="#8ccbf2" points="477,-460.5 477,-481.5 739,-481.5 739,-460.5 477,-460.5"/>
<text text-anchor="start" x="480" y="-468.3" font-family="mono" font-size="14.00" fill="#c83500">security</text>
<text text-anchor="start" x="547" y="-468.3" font-family="Times,serif" font-size="14.00" fill="#000000"> : (array of) </text>
<text text-anchor="start" x="614" y="-468.3" font-family="mono" font-size="14.00" fill="#c83500">string</text>
<text text-anchor="start" x="664" y="-468.3" font-family="Times,serif" font-size="14.00" fill="#000000"> </text>
<text text-anchor="start" x="668" y="-468.3" font-family="Times,serif" font-style="italic" font-size="14.00" fill="#000000">(mandatory)</text>
<polygon fill="#ddeeff" stroke="transparent" points="477,-439.5 477,-460.5 739,-460.5 739,-439.5 477,-439.5"/>
<polygon fill="none" stroke="#8ccbf2" points="477,-439.5 477,-460.5 739,-460.5 739,-439.5 477,-439.5"/>
<text text-anchor="start" x="480" y="-447.3" font-family="mono" font-size="14.00" fill="#c83500">created</text>
<text text-anchor="start" x="538" y="-447.3" font-family="Times,serif" font-size="14.00" fill="#000000"> : </text>
<text text-anchor="start" x="550" y="-447.3" font-family="mono" font-size="14.00" fill="#c83500">dateTime</text>
<polygon fill="#ddeeff" stroke="transparent" points="477,-418.5 477,-439.5 739,-439.5 739,-418.5 477,-418.5"/>
<polygon fill="none" stroke="#8ccbf2" points="477,-418.5 477,-439.5 739,-439.5 739,-418.5 477,-418.5"/>
<text text-anchor="start" x="480" y="-426.3" font-family="mono" font-size="14.00" fill="#c83500">base</text>
<text text-anchor="start" x="514" y="-426.3" font-family="Times,serif" font-size="14.00" fill="#000000"> : </text>
<text text-anchor="start" x="526" y="-426.3" font-family="mono" font-size="14.00" fill="#c83500">anyURI</text>
<polygon fill="#ddeeff" stroke="transparent" points="477,-397.5 477,-418.5 739,-418.5 739,-397.5 477,-397.5"/>
<polygon fill="none" stroke="#8ccbf2" points="477,-397.5 477,-418.5 739,-418.5 739,-397.5 477,-397.5"/>
<text text-anchor="start" x="480" y="-405.3" font-family="mono" font-size="14.00" fill="#c83500">description</text>
<text text-anchor="start" x="571" y="-405.3" font-family="Times,serif" font-size="14.00" fill="#000000"> : </text>
<text text-anchor="start" x="583" y="-405.3" font-family="mono" font-size="14.00" fill="#c83500">string</text>
<polygon fill="#ddeeff" stroke="transparent" points="477,-376.5 477,-397.5 739,-397.5 739,-376.5 477,-376.5"/>
<polygon fill="none" stroke="#8ccbf2" points="477,-376.5 477,-397.5 739,-397.5 739,-376.5 477,-376.5"/>
<text text-anchor="start" x="480" y="-384.3" font-family="mono" font-size="14.00" fill="#c83500">lastModified</text>
<text text-anchor="start" x="580" y="-384.3" font-family="Times,serif" font-size="14.00" fill="#000000"> : </text>
<text text-anchor="start" x="592" y="-384.3" font-family="mono" font-size="14.00" fill="#c83500">dateTime</text>
<polygon fill="#ddeeff" stroke="transparent" points="477,-355.5 477,-376.5 739,-376.5 739,-355.5 477,-355.5"/>
<polygon fill="none" stroke="#8ccbf2" points="477,-355.5 477,-376.5 739,-376.5 739,-355.5 477,-355.5"/>
<text text-anchor="start" x="480" y="-363.3" font-family="mono" font-size="14.00" fill="#c83500">support</text>
<text text-anchor="start" x="538" y="-363.3" font-family="Times,serif" font-size="14.00" fill="#000000"> : </text>
<text text-anchor="start" x="550" y="-363.3" font-family="mono" font-size="14.00" fill="#c83500">string</text>
<polygon fill="#ddeeff" stroke="transparent" points="477,-334.5 477,-355.5 739,-355.5 739,-334.5 477,-334.5"/>
<polygon fill="none" stroke="#8ccbf2" points="477,-334.5 477,-355.5 739,-355.5 739,-334.5 477,-334.5"/>
<text text-anchor="start" x="480" y="-342.3" font-family="mono" font-size="14.00" fill="#c83500">name</text>
<text text-anchor="start" x="514" y="-342.3" font-family="Times,serif" font-size="14.00" fill="#000000"> : </text>
<text text-anchor="start" x="526" y="-342.3" font-family="mono" font-size="14.00" fill="#c83500">string</text>
<text text-anchor="start" x="576" y="-342.3" font-family="Times,serif" font-size="14.00" fill="#000000"> </text>
<text text-anchor="start" x="580" y="-342.3" font-family="Times,serif" font-style="italic" font-size="14.00" fill="#000000">(mandatory)</text>
</g>
<!-- Thing&#45;&gt;MultiLanguage -->
<g id="edge4" class="edge">
<title>Thing&#45;&gt;MultiLanguage</title>
<path fill="none" stroke="#000000" d="M468.9,-416.5399C348.6208,-384.1702 187.9485,-332.6793 148,-280 95.2846,-210.4853 119.8709,-98.0787 135.5216,-46.062"/>
<polygon fill="#000000" stroke="#000000" points="138.9598,-46.7936 138.6008,-36.2049 132.2782,-44.7063 138.9598,-46.7936"/>
<text text-anchor="start" x="117" y="-179.8" font-family="mono" font-size="14.00" fill="#c83500">descriptions</text>
<text text-anchor="middle" x="127.6008" y="-40.0049" font-family="Times,serif" font-size="14.00" fill="#000000">0..1</text>
</g>
<!-- PropertyAffordance -->
<g id="node3" class="node">
<title>PropertyAffordance</title>
<polygon fill="#8ccbf2" stroke="transparent" points="166,-244.5 166,-265.5 325,-265.5 325,-244.5 166,-244.5"/>
<polygon fill="none" stroke="#8ccbf2" points="166,-244.5 166,-265.5 325,-265.5 325,-244.5 166,-244.5"/>
<text text-anchor="start" x="171" y="-252.3" font-family="mono" font-weight="bold" font-size="14.00" fill="#c83500">PropertyAffordance</text>
<polygon fill="#ddeeff" stroke="transparent" points="166,-223.5 166,-244.5 325,-244.5 325,-223.5 166,-223.5"/>
<polygon fill="none" stroke="#8ccbf2" points="166,-223.5 166,-244.5 325,-244.5 325,-223.5 166,-223.5"/>
<text text-anchor="start" x="169" y="-231.3" font-family="mono" font-size="14.00" fill="#c83500">observable</text>
<text text-anchor="start" x="252" y="-231.3" font-family="Times,serif" font-size="14.00" fill="#000000"> : </text>
<text text-anchor="start" x="264" y="-231.3" font-family="mono" font-size="14.00" fill="#c83500">boolean</text>
</g>
<!-- Thing&#45;&gt;PropertyAffordance -->
<g id="edge7" class="edge">
<title>Thing&#45;&gt;PropertyAffordance</title>
<path fill="none" stroke="#000000" d="M468.9522,-371.5913C409.2514,-337.7115 343.0585,-300.1475 298.2258,-274.7053"/>
<polygon fill="#000000" stroke="#000000" points="299.6976,-271.5162 289.273,-269.6246 296.2427,-277.6042 299.6976,-271.5162"/>
<text text-anchor="start" x="363" y="-301.8" font-family="mono" font-size="14.00" fill="#c83500">properties</text>
<text text-anchor="middle" x="278.273" y="-273.4246" font-family="Times,serif" font-size="14.00" fill="#000000">0..1</text>
</g>
<!-- VersionInfo -->
<g id="node4" class="node">
<title>VersionInfo</title>
<polygon fill="#8ccbf2" stroke="transparent" points="789,-244.5 789,-265.5 996,-265.5 996,-244.5 789,-244.5"/>
<polygon fill="none" stroke="#8ccbf2" points="789,-244.5 789,-265.5 996,-265.5 996,-244.5 789,-244.5"/>
<text text-anchor="start" x="847" y="-252.3" font-family="mono" font-weight="bold" font-size="14.00" fill="#c83500">VersionInfo</text>
<polygon fill="#ddeeff" stroke="transparent" points="789,-223.5 789,-244.5 996,-244.5 996,-223.5 789,-223.5"/>
<polygon fill="none" stroke="#8ccbf2" points="789,-223.5 789,-244.5 996,-244.5 996,-223.5 789,-223.5"/>
<text text-anchor="start" x="792" y="-231.3" font-family="mono" font-size="14.00" fill="#c83500">instance</text>
<text text-anchor="start" x="859" y="-231.3" font-family="Times,serif" font-size="14.00" fill="#000000"> : </text>
<text text-anchor="start" x="871" y="-231.3" font-family="mono" font-size="14.00" fill="#c83500">string</text>
<text text-anchor="start" x="921" y="-231.3" font-family="Times,serif" font-size="14.00" fill="#000000"> </text>
<text text-anchor="start" x="925" y="-231.3" font-family="Times,serif" font-style="italic" font-size="14.00" fill="#000000">(mandatory)</text>
</g>
<!-- Thing&#45;&gt;VersionInfo -->
<g id="edge3" class="edge">
<title>Thing&#45;&gt;VersionInfo</title>
<path fill="none" stroke="#000000" d="M747.0881,-349.6122C784.2789,-322.6358 821.7361,-295.4661 849.2496,-275.5091"/>
<polygon fill="#000000" stroke="#000000" points="851.418,-278.2601 857.4577,-269.5553 847.3079,-272.5937 851.418,-278.2601"/>
<text text-anchor="start" x="816" y="-301.8" font-family="mono" font-size="14.00" fill="#c83500">version</text>
<text text-anchor="middle" x="846.4577" y="-273.3553" font-family="Times,serif" font-size="14.00" fill="#000000">0..1</text>
</g>
<!-- ActionAffordance -->
<g id="node5" class="node">
<title>ActionAffordance</title>
<polygon fill="#8ccbf2" stroke="transparent" points="359,-254.5 359,-275.5 590,-275.5 590,-254.5 359,-254.5"/>
<polygon fill="none" stroke="#8ccbf2" points="359,-254.5 359,-275.5 590,-275.5 590,-254.5 359,-254.5"/>
<text text-anchor="start" x="408" y="-262.3" font-family="mono" font-weight="bold" font-size="14.00" fill="#c83500">ActionAffordance</text>
<polygon fill="#ddeeff" stroke="transparent" points="359,-233.5 359,-254.5 590,-254.5 590,-233.5 359,-233.5"/>
<polygon fill="none" stroke="#8ccbf2" points="359,-233.5 359,-254.5 590,-254.5 590,-233.5 359,-233.5"/>
<text text-anchor="start" x="362" y="-241.3" font-family="mono" font-size="14.00" fill="#c83500">safe</text>
<text text-anchor="start" x="396" y="-241.3" font-family="Times,serif" font-size="14.00" fill="#000000"> : </text>
<text text-anchor="start" x="408" y="-241.3" font-family="mono" font-size="14.00" fill="#c83500">boolean</text>
<text text-anchor="start" x="466" y="-241.3" font-family="Times,serif" font-size="14.00" fill="#000000"> </text>
<text text-anchor="start" x="470" y="-241.3" font-family="Times,serif" font-style="italic" font-size="14.00" fill="#000000">(mandatory)</text>
<polygon fill="#ddeeff" stroke="transparent" points="359,-212.5 359,-233.5 590,-233.5 590,-212.5 359,-212.5"/>
<polygon fill="none" stroke="#8ccbf2" points="359,-212.5 359,-233.5 590,-233.5 590,-212.5 359,-212.5"/>
<text text-anchor="start" x="362" y="-220.3" font-family="mono" font-size="14.00" fill="#c83500">idempotent</text>
<text text-anchor="start" x="445" y="-220.3" font-family="Times,serif" font-size="14.00" fill="#000000"> : </text>
<text text-anchor="start" x="457" y="-220.3" font-family="mono" font-size="14.00" fill="#c83500">boolean</text>
<text text-anchor="start" x="515" y="-220.3" font-family="Times,serif" font-size="14.00" fill="#000000"> </text>
<text text-anchor="start" x="519" y="-220.3" font-family="Times,serif" font-style="italic" font-size="14.00" fill="#000000">(mandatory)</text>
</g>
<!-- Thing&#45;&gt;ActionAffordance -->
<g id="edge1" class="edge">
<title>Thing&#45;&gt;ActionAffordance</title>
<path fill="none" stroke="#000000" d="M530.2456,-330.9672C520.4897,-315.9693 511.0462,-301.4516 502.7717,-288.7312"/>
<polygon fill="#000000" stroke="#000000" points="505.6273,-286.7022 497.2406,-280.2281 499.7595,-290.5191 505.6273,-286.7022"/>
<text text-anchor="start" x="518" y="-301.8" font-family="mono" font-size="14.00" fill="#c83500">actions</text>
<text text-anchor="middle" x="486.2406" y="-284.0281" font-family="Times,serif" font-size="14.00" fill="#000000">0..1</text>
</g>
<!-- EventAffordance -->
<g id="node7" class="node">
<title>EventAffordance</title>
<polygon fill="#8ccbf2" stroke="transparent" points="624,-233.5 624,-254.5 754,-254.5 754,-233.5 624,-233.5"/>
<polygon fill="none" stroke="#8ccbf2" points="624,-233.5 624,-254.5 754,-254.5 754,-233.5 624,-233.5"/>
<text text-anchor="start" x="627" y="-241.3" font-family="mono" font-weight="bold" font-size="14.00" fill="#c83500">EventAffordance</text>
</g>
<!-- Thing&#45;&gt;EventAffordance -->
<g id="edge2" class="edge">
<title>Thing&#45;&gt;EventAffordance</title>
<path fill="none" stroke="#000000" d="M655.0008,-330.9672C663.6454,-308.982 671.8843,-288.0288 678.0863,-272.2559"/>
<polygon fill="#000000" stroke="#000000" points="681.4493,-273.2674 681.8515,-262.6802 674.9349,-270.7058 681.4493,-273.2674"/>
<text text-anchor="start" x="668" y="-301.8" font-family="mono" font-size="14.00" fill="#c83500">events</text>
<text text-anchor="middle" x="670.8515" y="-266.4802" font-family="Times,serif" font-size="14.00" fill="#000000">0..1</text>
</g>
<!-- SecurityScheme -->
<g id="node8" class="node">
<title>SecurityScheme</title>
<polygon fill="#f2f2f2" stroke="transparent" points="1030,-233.5 1030,-254.5 1152,-254.5 1152,-233.5 1030,-233.5"/>
<polygon fill="none" stroke="#8c8c8c" points="1030,-233.5 1030,-254.5 1152,-254.5 1152,-233.5 1030,-233.5"/>
<text text-anchor="start" x="1033" y="-241.3" font-family="mono" font-weight="bold" font-size="14.00" fill="#000000">SecurityScheme</text>
</g>
<!-- Thing&#45;&gt;SecurityScheme -->
<g id="edge5" class="edge">
<title>Thing&#45;&gt;SecurityScheme</title>
<path fill="none" stroke="#000000" d="M747.1665,-392.6946C825.2106,-360.0453 924.2338,-318.2336 1012,-280 1021.7153,-275.7677 1032.0688,-271.1752 1041.9727,-266.7415"/>
<polygon fill="#000000" stroke="#000000" points="1043.6056,-269.845 1051.295,-262.5563 1040.7386,-263.4591 1043.6056,-269.845"/>
<text text-anchor="start" x="969" y="-301.8" font-family="mono" font-size="14.00" fill="#c83500">securityDefinitions</text>
<text text-anchor="middle" x="1040.295" y="-266.3563" font-family="Times,serif" font-size="14.00" fill="#000000">1..1</text>
</g>
<!-- Link -->
<g id="node9" class="node">
<title>Link</title>
<polygon fill="#f2f2f2" stroke="transparent" points="1218,-233.5 1218,-254.5 1258,-254.5 1258,-233.5 1218,-233.5"/>
<polygon fill="none" stroke="#8c8c8c" points="1218,-233.5 1218,-254.5 1258,-254.5 1258,-233.5 1218,-233.5"/>
<text text-anchor="start" x="1221" y="-241.3" font-family="mono" font-weight="bold" font-size="14.00" fill="#000000">Link</text>
</g>
<!-- Thing&#45;&gt;Link -->
<g id="edge6" class="edge">
<title>Thing&#45;&gt;Link</title>
<path fill="none" stroke="#000000" d="M747.0618,-426.0142C854.5253,-404.2354 1005.4494,-367.3402 1130,-313 1157.1874,-301.1384 1185.4107,-283.0023 1206.1849,-268.3706"/>
<polygon fill="#000000" stroke="#000000" points="1208.2278,-271.2126 1214.3251,-262.548 1204.1554,-265.5191 1208.2278,-271.2126"/>
<text text-anchor="start" x="1158" y="-301.8" font-family="mono" font-size="14.00" fill="#c83500">links</text>
<text text-anchor="middle" x="1203.3251" y="-266.348" font-family="Times,serif" font-size="14.00" fill="#000000">0..*</text>
</g>
<!-- Form -->
<g id="node10" class="node">
<title>Form</title>
<polygon fill="#f2f2f2" stroke="transparent" points="8,-7 8,-28 48,-28 48,-7 8,-7"/>
<polygon fill="none" stroke="#8c8c8c" points="8,-7 8,-28 48,-28 48,-7 8,-7"/>
<text text-anchor="start" x="11" y="-14.8" font-family="mono" font-weight="bold" font-size="14.00" fill="#000000">Form</text>
</g>
<!-- Thing&#45;&gt;Form -->
<g id="edge8" class="edge">
<title>Thing&#45;&gt;Form</title>
<path fill="none" stroke="#000000" d="M468.8916,-418.5176C340.7119,-386.2733 163.4073,-333.7136 116,-280 55.2315,-211.1479 36.1403,-98.809 30.3744,-46.4875"/>
<polygon fill="#000000" stroke="#000000" points="33.8293,-45.8657 29.3361,-36.2709 26.8652,-46.5735 33.8293,-45.8657"/>
<text text-anchor="start" x="65" y="-179.8" font-family="mono" font-size="14.00" fill="#c83500">forms</text>
<text text-anchor="middle" x="18.3361" y="-40.0709" font-family="Times,serif" font-size="14.00" fill="#000000">0..*</text>
</g>
<!-- InteractionAffordance -->
<g id="node6" class="node">
<title>InteractionAffordance</title>
<polygon fill="#8ccbf2" stroke="transparent" points="155,-132.5 155,-153.5 335,-153.5 335,-132.5 155,-132.5"/>
<polygon fill="none" stroke="#8ccbf2" points="155,-132.5 155,-153.5 335,-153.5 335,-132.5 155,-132.5"/>
<text text-anchor="start" x="158" y="-140.3" font-family="mono" font-weight="bold" font-size="14.00" fill="#c83500">InteractionAffordance</text>
<polygon fill="#ddeeff" stroke="transparent" points="155,-111.5 155,-132.5 335,-132.5 335,-111.5 155,-111.5"/>
<polygon fill="none" stroke="#8ccbf2" points="155,-111.5 155,-132.5 335,-132.5 335,-111.5 155,-111.5"/>
<text text-anchor="start" x="158" y="-119.3" font-family="mono" font-size="14.00" fill="#c83500">description</text>
<text text-anchor="start" x="249" y="-119.3" font-family="Times,serif" font-size="14.00" fill="#000000"> : </text>
<text text-anchor="start" x="261" y="-119.3" font-family="mono" font-size="14.00" fill="#c83500">string</text>
<polygon fill="#ddeeff" stroke="transparent" points="155,-90.5 155,-111.5 335,-111.5 335,-90.5 155,-90.5"/>
<polygon fill="none" stroke="#8ccbf2" points="155,-90.5 155,-111.5 335,-111.5 335,-90.5 155,-90.5"/>
<text text-anchor="start" x="158" y="-98.3" font-family="mono" font-size="14.00" fill="#c83500">title</text>
<text text-anchor="start" x="200" y="-98.3" font-family="Times,serif" font-size="14.00" fill="#000000"> : </text>
<text text-anchor="start" x="212" y="-98.3" font-family="mono" font-size="14.00" fill="#c83500">string</text>
</g>
<!-- PropertyAffordance&#45;&gt;InteractionAffordance -->
<g id="edge20" class="edge">
<title>PropertyAffordance&#45;&gt;InteractionAffordance</title>
<path fill="none" stroke="#000000" d="M245,-219.2215C245,-204.6564 245,-185.896 245,-168.78"/>
<polygon fill="#ffffff" stroke="#000000" points="248.5001,-168.3876 245,-158.3876 241.5001,-168.3876 248.5001,-168.3876"/>
</g>
<!-- DataSchema -->
<g id="node11" class="node">
<title>DataSchema</title>
<polygon fill="#f2f2f2" stroke="transparent" points="523,-7 523,-28 612,-28 612,-7 523,-7"/>
<polygon fill="none" stroke="#8c8c8c" points="523,-7 523,-28 612,-28 612,-7 523,-7"/>
<text text-anchor="start" x="526" y="-14.8" font-family="mono" font-weight="bold" font-size="14.00" fill="#000000">DataSchema</text>
</g>
<!-- PropertyAffordance&#45;&gt;DataSchema -->
<g id="edge19" class="edge">
<title>PropertyAffordance&#45;&gt;DataSchema</title>
<path fill="none" stroke="#000000" d="M276.7559,-219.1672C337.8381,-170.535 467.6527,-67.6742 490,-54 497.7649,-49.2487 506.2586,-44.6969 514.6791,-40.5243"/>
<polygon fill="#ffffff" stroke="#000000" points="516.2599,-43.6478 523.7494,-36.1539 513.2214,-37.3416 516.2599,-43.6478"/>
</g>
<!-- ActionAffordance&#45;&gt;InteractionAffordance -->
<g id="edge18" class="edge">
<title>ActionAffordance&#45;&gt;InteractionAffordance</title>
<path fill="none" stroke="#000000" d="M407.1481,-208.8846C380.1069,-194.4783 348.7502,-177.773 320.8589,-162.9139"/>
<polygon fill="#ffffff" stroke="#000000" points="322.4063,-159.7726 311.935,-158.1597 319.115,-165.9506 322.4063,-159.7726"/>
</g>
<!-- ActionAffordance&#45;&gt;DataSchema -->
<g id="edge9" class="edge">
<title>ActionAffordance&#45;&gt;DataSchema</title>
<path fill="none" stroke="#000000" d="M503.8003,-208.952C515.0219,-194.0153 526.9922,-175.9577 535,-158 551.297,-121.4535 559.7372,-75.7046 563.7665,-46.6566"/>
<polygon fill="#000000" stroke="#000000" points="567.2821,-46.7635 565.102,-36.3954 560.3406,-45.8601 567.2821,-46.7635"/>
<text text-anchor="start" x="557" y="-118.8" font-family="mono" font-size="14.00" fill="#c83500">input</text>
<text text-anchor="middle" x="554.102" y="-40.1954" font-family="Times,serif" font-size="14.00" fill="#000000">0..1</text>
</g>
<!-- ActionAffordance&#45;&gt;DataSchema -->
<g id="edge10" class="edge">
<title>ActionAffordance&#45;&gt;DataSchema</title>
<path fill="none" stroke="#000000" d="M467.5668,-208.9286C463.3179,-175.5555 461.6186,-125.1997 481,-87 490.4406,-68.393 507.4329,-53.122 523.8346,-41.7195"/>
<polygon fill="#000000" stroke="#000000" points="525.9038,-44.5473 532.3147,-36.1122 522.0429,-38.7084 525.9038,-44.5473"/>
<text text-anchor="start" x="481" y="-118.8" font-family="mono" font-size="14.00" fill="#c83500">output</text>
<text text-anchor="middle" x="521.3147" y="-39.9122" font-family="Times,serif" font-size="14.00" fill="#000000">0..1</text>
</g>
<!-- InteractionAffordance&#45;&gt;MultiLanguage -->
<g id="edge13" class="edge">
<title>InteractionAffordance&#45;&gt;MultiLanguage</title>
<path fill="none" stroke="#000000" d="M222.9265,-86.9164C215.141,-75.7488 205.853,-63.7913 196,-54 191.8139,-49.8401 187.1012,-45.8211 182.2752,-42.0712"/>
<polygon fill="#000000" stroke="#000000" points="184.2403,-39.1713 174.1196,-36.0372 180.0769,-44.7986 184.2403,-39.1713"/>
<text text-anchor="start" x="209" y="-57.8" font-family="mono" font-size="14.00" fill="#c83500">descriptions</text>
<text text-anchor="middle" x="163.1196" y="-39.8372" font-family="Times,serif" font-size="14.00" fill="#000000">0..1</text>
</g>
<!-- InteractionAffordance&#45;&gt;MultiLanguage -->
<g id="edge14" class="edge">
<title>InteractionAffordance&#45;&gt;MultiLanguage</title>
<path fill="none" stroke="#000000" d="M157.2375,-86.8247C151.3072,-81.6284 146.0799,-75.7166 142,-69 137.9018,-62.2533 137.0158,-54.0336 137.6037,-46.1805"/>
<polygon fill="#000000" stroke="#000000" points="141.0756,-46.6278 139.0795,-36.2227 134.1512,-45.6015 141.0756,-46.6278"/>
<text text-anchor="start" x="142" y="-57.8" font-family="mono" font-size="14.00" fill="#c83500">titles</text>
<text text-anchor="middle" x="150.0795" y="-40.0227" font-family="Times,serif" font-size="14.00" fill="#000000">0..1</text>
</g>
<!-- InteractionAffordance&#45;&gt;Form -->
<g id="edge11" class="edge">
<title>InteractionAffordance&#45;&gt;Form</title>
<path fill="none" stroke="#000000" d="M146.9649,-93.7429C128.2203,-86.7196 109.1195,-78.4551 92,-69 79.0172,-61.8296 65.9806,-52.0267 55.0928,-42.9305"/>
<polygon fill="#000000" stroke="#000000" points="57.0879,-40.0302 47.2222,-36.1677 52.5259,-45.3395 57.0879,-40.0302"/>
<text text-anchor="start" x="92" y="-57.8" font-family="mono" font-size="14.00" fill="#c83500">forms</text>
<text text-anchor="middle" x="58.2222" y="-39.9677" font-family="Times,serif" font-size="14.00" fill="#000000">1..*</text>
</g>
<!-- InteractionAffordance&#45;&gt;DataSchema -->
<g id="edge12" class="edge">
<title>InteractionAffordance&#45;&gt;DataSchema</title>
<path fill="none" stroke="#000000" d="M291.1257,-86.932C310.5117,-72.6246 331.0691,-58.4519 342,-54 370.6272,-42.3409 448.148,-31.5012 504.2013,-24.8251"/>
<polygon fill="#000000" stroke="#000000" points="504.8775,-28.2699 514.4012,-23.6277 504.0613,-21.3176 504.8775,-28.2699"/>
<text text-anchor="start" x="342" y="-57.8" font-family="mono" font-size="14.00" fill="#c83500">uriVariables</text>
<text text-anchor="middle" x="503.4012" y="-12.4277" font-family="Times,serif" font-size="14.00" fill="#000000">0..1</text>
</g>
<!-- EventAffordance&#45;&gt;InteractionAffordance -->
<g id="edge21" class="edge">
<title>EventAffordance&#45;&gt;InteractionAffordance</title>
<path fill="none" stroke="#000000" d="M650.2579,-226.3226C636.4796,-220.2896 620.7297,-213.8759 606,-209 522.5851,-181.3876 425.6285,-158.6523 353.2128,-143.431"/>
<polygon fill="#ffffff" stroke="#000000" points="353.6656,-139.9501 343.1614,-141.3333 352.2355,-146.8025 353.6656,-139.9501"/>
</g>
<!-- EventAffordance&#45;&gt;DataSchema -->
<g id="edge15" class="edge">
<title>EventAffordance&#45;&gt;DataSchema</title>
<path fill="none" stroke="#000000" d="M679.2225,-226.3474C657.8513,-186.6707 606.8775,-92.0349 581.6528,-45.2038"/>
<polygon fill="#000000" stroke="#000000" points="584.6478,-43.3833 576.8241,-36.239 578.4849,-46.7029 584.6478,-43.3833"/>
<text text-anchor="start" x="643" y="-118.8" font-family="mono" font-size="14.00" fill="#c83500">cancellation</text>
<text text-anchor="middle" x="587.8241" y="-40.039" font-family="Times,serif" font-size="14.00" fill="#000000">0..1</text>
</g>
<!-- EventAffordance&#45;&gt;DataSchema -->
<g id="edge16" class="edge">
<title>EventAffordance&#45;&gt;DataSchema</title>
<path fill="none" stroke="#000000" d="M706.0979,-226.1276C732.6949,-195.2431 777.8737,-131.8993 747,-87 733.0587,-66.7253 675.7485,-46.9775 629.4893,-33.8401"/>
<polygon fill="#000000" stroke="#000000" points="630.378,-30.4544 619.8054,-31.1392 628.4975,-37.1971 630.378,-30.4544"/>
<text text-anchor="start" x="758" y="-118.8" font-family="mono" font-size="14.00" fill="#c83500">subscription</text>
<text text-anchor="middle" x="630.8054" y="-34.9392" font-family="Times,serif" font-size="14.00" fill="#000000">0..1</text>
</g>
<!-- EventAffordance&#45;&gt;DataSchema -->
<g id="edge17" class="edge">
<title>EventAffordance&#45;&gt;DataSchema</title>
<path fill="none" stroke="#000000" d="M730.6288,-226.4516C779.3616,-204.9058 854.4309,-170.2471 862,-158 878.5897,-131.1572 881.587,-111.7407 862,-87 833.6059,-51.1349 707.6075,-32.1527 629.7485,-23.6686"/>
<polygon fill="#000000" stroke="#000000" points="629.8791,-20.1629 619.5657,-22.5888 629.1409,-27.1239 629.8791,-20.1629"/>
<text text-anchor="start" x="876" y="-118.8" font-family="mono" font-size="14.00" fill="#c83500">data</text>
<text text-anchor="middle" x="630.5657" y="-11.3888" font-family="Times,serif" font-size="14.00" fill="#000000">0..1</text>
</g>
</g>
</svg>
