<?xml version="1.0" encoding="UTF-8" standalone="no"?>
<!DOCTYPE svg PUBLIC "-//W3C//DTD SVG 1.1//EN"
 "http://www.w3.org/Graphics/SVG/1.1/DTD/svg11.dtd">
<!-- Generated by graphviz version 2.38.0 (20140413.2041)
 -->
<!-- Title: %3 Pages: 1 -->
<svg width="1362pt" height="840pt"
 viewBox="0.00 0.00 1361.52 840.00" xmlns="http://www.w3.org/2000/svg" xmlns:xlink="http://www.w3.org/1999/xlink">
<g id="graph0" class="graph" transform="scale(1 1) rotate(0) translate(4 836)">
<title>%3</title>
<polygon fill="white" stroke="none" points="-4,4 -4,-836 1357.52,-836 1357.52,4 -4,4"/>
<!-- MultiLanguage -->
<g id="node1" class="node"><title>MultiLanguage</title>
<polygon fill="#8ccbf2" stroke="none" points="129.516,-167.5 129.516,-188.5 243.516,-188.5 243.516,-167.5 129.516,-167.5"/>
<polygon fill="none" stroke="#8ccbf2" points="129.516,-167.5 129.516,-188.5 243.516,-188.5 243.516,-167.5 129.516,-167.5"/>
<text text-anchor="start" x="132.516" y="-175.3" font-family="mono" font-weight="bold" font-size="14.00" fill="#c83500">MultiLanguage</text>
</g>
<!-- Link -->
<g id="node2" class="node"><title>Link</title>
<polygon fill="#8ccbf2" stroke="none" points="41.5161,-516.5 41.5161,-537.5 215.516,-537.5 215.516,-516.5 41.5161,-516.5"/>
<polygon fill="none" stroke="#8ccbf2" points="41.5161,-516.5 41.5161,-537.5 215.516,-537.5 215.516,-516.5 41.5161,-516.5"/>
<text text-anchor="start" x="111.516" y="-524.3" font-family="mono" font-weight="bold" font-size="14.00" fill="#c83500">Link</text>
<polygon fill="#ddeeff" stroke="none" points="41.5161,-495.5 41.5161,-516.5 215.516,-516.5 215.516,-495.5 41.5161,-495.5"/>
<polygon fill="none" stroke="#8ccbf2" points="41.5161,-495.5 41.5161,-516.5 215.516,-516.5 215.516,-495.5 41.5161,-495.5"/>
<text text-anchor="start" x="44.5161" y="-503.3" font-family="mono" font-size="14.00" fill="#c83500">type</text>
<text text-anchor="start" x="78.5161" y="-503.3" font-family="Times,serif" font-size="14.00"> : </text>
<text text-anchor="start" x="90.5161" y="-503.3" font-family="mono" font-size="14.00" fill="#c83500">string</text>
<polygon fill="#ddeeff" stroke="none" points="41.5161,-474.5 41.5161,-495.5 215.516,-495.5 215.516,-474.5 41.5161,-474.5"/>
<polygon fill="none" stroke="#8ccbf2" points="41.5161,-474.5 41.5161,-495.5 215.516,-495.5 215.516,-474.5 41.5161,-474.5"/>
<text text-anchor="start" x="44.5161" y="-482.3" font-family="mono" font-size="14.00" fill="#c83500">href</text>
<text text-anchor="start" x="78.5161" y="-482.3" font-family="Times,serif" font-size="14.00"> : </text>
<text text-anchor="start" x="90.5161" y="-482.3" font-family="mono" font-size="14.00" fill="#c83500">anyURI</text>
<text text-anchor="start" x="140.516" y="-482.3" font-family="Times,serif" font-size="14.00"> </text>
<text text-anchor="start" x="144.516" y="-482.3" font-family="Times,serif" font-style="italic" font-size="14.00">(mandatory)</text>
<polygon fill="#ddeeff" stroke="none" points="41.5161,-453.5 41.5161,-474.5 215.516,-474.5 215.516,-453.5 41.5161,-453.5"/>
<polygon fill="none" stroke="#8ccbf2" points="41.5161,-453.5 41.5161,-474.5 215.516,-474.5 215.516,-453.5 41.5161,-453.5"/>
<text text-anchor="start" x="44.5161" y="-461.3" font-family="mono" font-size="14.00" fill="#c83500">rel</text>
<text text-anchor="start" x="69.5161" y="-461.3" font-family="Times,serif" font-size="14.00"> : </text>
<text text-anchor="start" x="81.5161" y="-461.3" font-family="mono" font-size="14.00" fill="#c83500">string</text>
<polygon fill="#ddeeff" stroke="none" points="41.5161,-432.5 41.5161,-453.5 215.516,-453.5 215.516,-432.5 41.5161,-432.5"/>
<polygon fill="none" stroke="#8ccbf2" points="41.5161,-432.5 41.5161,-453.5 215.516,-453.5 215.516,-432.5 41.5161,-432.5"/>
<text text-anchor="start" x="44.5161" y="-440.3" font-family="mono" font-size="14.00" fill="#c83500">anchor</text>
<text text-anchor="start" x="94.5161" y="-440.3" font-family="Times,serif" font-size="14.00"> : </text>
<text text-anchor="start" x="106.516" y="-440.3" font-family="mono" font-size="14.00" fill="#c83500">anyURI</text>
</g>
<!-- Form -->
<g id="node3" class="node"><title>Form</title>
<polygon fill="#8ccbf2" stroke="none" points="285.516,-230.5 285.516,-251.5 516.516,-251.5 516.516,-230.5 285.516,-230.5"/>
<polygon fill="none" stroke="#8ccbf2" points="285.516,-230.5 285.516,-251.5 516.516,-251.5 516.516,-230.5 285.516,-230.5"/>
<text text-anchor="start" x="384.016" y="-238.3" font-family="mono" font-weight="bold" font-size="14.00" fill="#c83500">Form</text>
<polygon fill="#ddeeff" stroke="none" points="285.516,-209.5 285.516,-230.5 516.516,-230.5 516.516,-209.5 285.516,-209.5"/>
<polygon fill="none" stroke="#8ccbf2" points="285.516,-209.5 285.516,-230.5 516.516,-230.5 516.516,-209.5 285.516,-209.5"/>
<text text-anchor="start" x="288.516" y="-217.3" font-family="mono" font-size="14.00" fill="#c83500">subprotocol</text>
<text text-anchor="start" x="379.516" y="-217.3" font-family="Times,serif" font-size="14.00"> : </text>
<text text-anchor="start" x="391.516" y="-217.3" font-family="mono" font-size="14.00" fill="#c83500">string</text>
<polygon fill="#ddeeff" stroke="none" points="285.516,-188.5 285.516,-209.5 516.516,-209.5 516.516,-188.5 285.516,-188.5"/>
<polygon fill="none" stroke="#8ccbf2" points="285.516,-188.5 285.516,-209.5 516.516,-209.5 516.516,-188.5 285.516,-188.5"/>
<text text-anchor="start" x="288.516" y="-196.3" font-family="mono" font-size="14.00" fill="#c83500">contentType</text>
<text text-anchor="start" x="379.516" y="-196.3" font-family="Times,serif" font-size="14.00"> : </text>
<text text-anchor="start" x="391.516" y="-196.3" font-family="mono" font-size="14.00" fill="#c83500">string</text>
<text text-anchor="start" x="441.516" y="-196.3" font-family="Times,serif" font-size="14.00"> </text>
<text text-anchor="start" x="445.516" y="-196.3" font-family="Times,serif" font-style="italic" font-size="14.00">(mandatory)</text>
<polygon fill="#ddeeff" stroke="none" points="285.516,-167.5 285.516,-188.5 516.516,-188.5 516.516,-167.5 285.516,-167.5"/>
<polygon fill="none" stroke="#8ccbf2" points="285.516,-167.5 285.516,-188.5 516.516,-188.5 516.516,-167.5 285.516,-167.5"/>
<text text-anchor="start" x="288.516" y="-175.3" font-family="mono" font-size="14.00" fill="#c83500">scopes</text>
<text text-anchor="start" x="338.516" y="-175.3" font-family="Times,serif" font-size="14.00"> : array of </text>
<text text-anchor="start" x="396.516" y="-175.3" font-family="mono" font-size="14.00" fill="#c83500">string</text>
<polygon fill="#ddeeff" stroke="none" points="285.516,-146.5 285.516,-167.5 516.516,-167.5 516.516,-146.5 285.516,-146.5"/>
<polygon fill="none" stroke="#8ccbf2" points="285.516,-146.5 285.516,-167.5 516.516,-167.5 516.516,-146.5 285.516,-146.5"/>
<text text-anchor="start" x="288.516" y="-154.3" font-family="mono" font-size="14.00" fill="#c83500">security</text>
<text text-anchor="start" x="355.516" y="-154.3" font-family="Times,serif" font-size="14.00"> : array of </text>
<text text-anchor="start" x="413.516" y="-154.3" font-family="mono" font-size="14.00" fill="#c83500">string</text>
<polygon fill="#ddeeff" stroke="none" points="285.516,-125.5 285.516,-146.5 516.516,-146.5 516.516,-125.5 285.516,-125.5"/>
<polygon fill="none" stroke="#8ccbf2" points="285.516,-125.5 285.516,-146.5 516.516,-146.5 516.516,-125.5 285.516,-125.5"/>
<text text-anchor="start" x="288.516" y="-133.3" font-family="mono" font-size="14.00" fill="#c83500">op</text>
<text text-anchor="start" x="305.516" y="-133.3" font-family="Times,serif" font-size="14.00"> : </text>
<text text-anchor="start" x="317.516" y="-133.3" font-family="mono" font-size="14.00" fill="#c83500">string</text>
<polygon fill="#ddeeff" stroke="none" points="285.516,-104.5 285.516,-125.5 516.516,-125.5 516.516,-104.5 285.516,-104.5"/>
<polygon fill="none" stroke="#8ccbf2" points="285.516,-104.5 285.516,-125.5 516.516,-125.5 516.516,-104.5 285.516,-104.5"/>
<text text-anchor="start" x="288.516" y="-112.3" font-family="mono" font-size="14.00" fill="#c83500">href</text>
<text text-anchor="start" x="322.516" y="-112.3" font-family="Times,serif" font-size="14.00"> : </text>
<text text-anchor="start" x="334.516" y="-112.3" font-family="mono" font-size="14.00" fill="#c83500">anyURI</text>
<text text-anchor="start" x="384.516" y="-112.3" font-family="Times,serif" font-size="14.00"> </text>
<text text-anchor="start" x="388.516" y="-112.3" font-family="Times,serif" font-style="italic" font-size="14.00">(mandatory)</text>
</g>
<!-- ExpectedResponse -->
<g id="node6" class="node"><title>ExpectedResponse</title>
<polygon fill="#8ccbf2" stroke="none" points="285.516,-25 285.516,-46 516.516,-46 516.516,-25 285.516,-25"/>
<polygon fill="none" stroke="#8ccbf2" points="285.516,-25 285.516,-46 516.516,-46 516.516,-25 285.516,-25"/>
<text text-anchor="start" x="334.516" y="-32.8" font-family="mono" font-weight="bold" font-size="14.00" fill="#c83500">ExpectedResponse</text>
<polygon fill="#ddeeff" stroke="none" points="285.516,-4 285.516,-25 516.516,-25 516.516,-4 285.516,-4"/>
<polygon fill="none" stroke="#8ccbf2" points="285.516,-4 285.516,-25 516.516,-25 516.516,-4 285.516,-4"/>
<text text-anchor="start" x="288.516" y="-11.8" font-family="mono" font-size="14.00" fill="#c83500">contentType</text>
<text text-anchor="start" x="379.516" y="-11.8" font-family="Times,serif" font-size="14.00"> : </text>
<text text-anchor="start" x="391.516" y="-11.8" font-family="mono" font-size="14.00" fill="#c83500">string</text>
<text text-anchor="start" x="441.516" y="-11.8" font-family="Times,serif" font-size="14.00"> </text>
<text text-anchor="start" x="445.516" y="-11.8" font-family="Times,serif" font-style="italic" font-size="14.00">(mandatory)</text>
</g>
<!-- Form&#45;&gt;ExpectedResponse -->
<g id="edge1" class="edge"><title>Form&#45;&gt;ExpectedResponse</title>
<path fill="none" stroke="black" d="M400.516,-100.862C400.516,-86.5577 400.516,-72.2953 400.516,-60.116"/>
<polygon fill="black" stroke="black" points="404.016,-60.0004 400.516,-50.0004 397.016,-60.0004 404.016,-60.0004"/>
<text text-anchor="start" x="400.516" y="-71.8" font-family="mono" font-size="14.00" fill="#c83500">response</text>
<text text-anchor="middle" x="389.516" y="-53.8004" font-family="Times,serif" font-size="14.00">0..1</text>
</g>
<!-- Thing -->
<g id="node4" class="node"><title>Thing</title>
<polygon fill="#8ccbf2" stroke="none" points="434.516,-806.5 434.516,-827.5 698.516,-827.5 698.516,-806.5 434.516,-806.5"/>
<polygon fill="none" stroke="#8ccbf2" points="434.516,-806.5 434.516,-827.5 698.516,-827.5 698.516,-806.5 434.516,-806.5"/>
<text text-anchor="start" x="545.516" y="-814.3" font-family="mono" font-weight="bold" font-size="14.00" fill="#c83500">Thing</text>
<polygon fill="#ddeeff" stroke="none" points="434.516,-785.5 434.516,-806.5 698.516,-806.5 698.516,-785.5 434.516,-785.5"/>
<polygon fill="none" stroke="#8ccbf2" points="434.516,-785.5 434.516,-806.5 698.516,-806.5 698.516,-785.5 434.516,-785.5"/>
<text text-anchor="start" x="437.516" y="-793.3" font-family="mono" font-size="14.00" fill="#c83500">@context</text>
<text text-anchor="start" x="504.516" y="-793.3" font-family="Times,serif" font-size="14.00"> : </text>
<text text-anchor="start" x="516.516" y="-793.3" font-family="Times,serif" font-style="italic" font-size="14.00">array of </text>
<text text-anchor="start" x="565.516" y="-793.3" font-family="mono" font-size="14.00" fill="#c83500">context</text>
<text text-anchor="start" x="623.516" y="-793.3" font-family="Times,serif" font-size="14.00"> </text>
<text text-anchor="start" x="627.516" y="-793.3" font-family="Times,serif" font-style="italic" font-size="14.00">(mandatory)</text>
<polygon fill="#ddeeff" stroke="none" points="434.516,-764.5 434.516,-785.5 698.516,-785.5 698.516,-764.5 434.516,-764.5"/>
<polygon fill="none" stroke="#8ccbf2" points="434.516,-764.5 434.516,-785.5 698.516,-785.5 698.516,-764.5 434.516,-764.5"/>
<text text-anchor="start" x="437.516" y="-772.3" font-family="mono" font-size="14.00" fill="#c83500">@type</text>
<text text-anchor="start" x="479.516" y="-772.3" font-family="Times,serif" font-size="14.00"> : </text>
<text text-anchor="start" x="491.516" y="-772.3" font-family="Times,serif" font-style="italic" font-size="14.00">array of </text>
<text text-anchor="start" x="540.516" y="-772.3" font-family="mono" font-size="14.00" fill="#c83500">string</text>
<polygon fill="#ddeeff" stroke="none" points="434.516,-743.5 434.516,-764.5 698.516,-764.5 698.516,-743.5 434.516,-743.5"/>
<polygon fill="none" stroke="#8ccbf2" points="434.516,-743.5 434.516,-764.5 698.516,-764.5 698.516,-743.5 434.516,-743.5"/>
<text text-anchor="start" x="437.516" y="-751.3" font-family="mono" font-size="14.00" fill="#c83500">id</text>
<text text-anchor="start" x="454.516" y="-751.3" font-family="Times,serif" font-size="14.00"> : </text>
<text text-anchor="start" x="466.516" y="-751.3" font-family="mono" font-size="14.00" fill="#c83500">anyURI</text>
<text text-anchor="start" x="516.516" y="-751.3" font-family="Times,serif" font-size="14.00"> </text>
<text text-anchor="start" x="520.516" y="-751.3" font-family="Times,serif" font-style="italic" font-size="14.00">(mandatory)</text>
<polygon fill="#ddeeff" stroke="none" points="434.516,-722.5 434.516,-743.5 698.516,-743.5 698.516,-722.5 434.516,-722.5"/>
<polygon fill="none" stroke="#8ccbf2" points="434.516,-722.5 434.516,-743.5 698.516,-743.5 698.516,-722.5 434.516,-722.5"/>
<text text-anchor="start" x="437.516" y="-730.3" font-family="mono" font-size="14.00" fill="#c83500">support</text>
<text text-anchor="start" x="495.516" y="-730.3" font-family="Times,serif" font-size="14.00"> : </text>
<text text-anchor="start" x="507.516" y="-730.3" font-family="mono" font-size="14.00" fill="#c83500">string</text>
<polygon fill="#ddeeff" stroke="none" points="434.516,-701.5 434.516,-722.5 698.516,-722.5 698.516,-701.5 434.516,-701.5"/>
<polygon fill="none" stroke="#8ccbf2" points="434.516,-701.5 434.516,-722.5 698.516,-722.5 698.516,-701.5 434.516,-701.5"/>
<text text-anchor="start" x="437.516" y="-709.3" font-family="mono" font-size="14.00" fill="#c83500">name</text>
<text text-anchor="start" x="471.516" y="-709.3" font-family="Times,serif" font-size="14.00"> : </text>
<text text-anchor="start" x="483.516" y="-709.3" font-family="mono" font-size="14.00" fill="#c83500">string</text>
<text text-anchor="start" x="533.516" y="-709.3" font-family="Times,serif" font-size="14.00"> </text>
<text text-anchor="start" x="537.516" y="-709.3" font-family="Times,serif" font-style="italic" font-size="14.00">(mandatory)</text>
<polygon fill="#ddeeff" stroke="none" points="434.516,-680.5 434.516,-701.5 698.516,-701.5 698.516,-680.5 434.516,-680.5"/>
<polygon fill="none" stroke="#8ccbf2" points="434.516,-680.5 434.516,-701.5 698.516,-701.5 698.516,-680.5 434.516,-680.5"/>
<text text-anchor="start" x="437.516" y="-688.3" font-family="mono" font-size="14.00" fill="#c83500">security</text>
<text text-anchor="start" x="504.516" y="-688.3" font-family="Times,serif" font-size="14.00"> : array of </text>
<text text-anchor="start" x="562.516" y="-688.3" font-family="mono" font-size="14.00" fill="#c83500">string</text>
<text text-anchor="start" x="612.516" y="-688.3" font-family="Times,serif" font-size="14.00"> </text>
<text text-anchor="start" x="616.516" y="-688.3" font-family="Times,serif" font-style="italic" font-size="14.00">(mandatory)</text>
<polygon fill="#ddeeff" stroke="none" points="434.516,-659.5 434.516,-680.5 698.516,-680.5 698.516,-659.5 434.516,-659.5"/>
<polygon fill="none" stroke="#8ccbf2" points="434.516,-659.5 434.516,-680.5 698.516,-680.5 698.516,-659.5 434.516,-659.5"/>
<text text-anchor="start" x="437.516" y="-667.3" font-family="mono" font-size="14.00" fill="#c83500">base</text>
<text text-anchor="start" x="471.516" y="-667.3" font-family="Times,serif" font-size="14.00"> : </text>
<text text-anchor="start" x="483.516" y="-667.3" font-family="mono" font-size="14.00" fill="#c83500">anyURI</text>
<polygon fill="#ddeeff" stroke="none" points="434.516,-638.5 434.516,-659.5 698.516,-659.5 698.516,-638.5 434.516,-638.5"/>
<polygon fill="none" stroke="#8ccbf2" points="434.516,-638.5 434.516,-659.5 698.516,-659.5 698.516,-638.5 434.516,-638.5"/>
<text text-anchor="start" x="437.516" y="-646.3" font-family="mono" font-size="14.00" fill="#c83500">created</text>
<text text-anchor="start" x="495.516" y="-646.3" font-family="Times,serif" font-size="14.00"> : </text>
<text text-anchor="start" x="507.516" y="-646.3" font-family="mono" font-size="14.00" fill="#c83500">string</text>
<polygon fill="#ddeeff" stroke="none" points="434.516,-617.5 434.516,-638.5 698.516,-638.5 698.516,-617.5 434.516,-617.5"/>
<polygon fill="none" stroke="#8ccbf2" points="434.516,-617.5 434.516,-638.5 698.516,-638.5 698.516,-617.5 434.516,-617.5"/>
<text text-anchor="start" x="437.516" y="-625.3" font-family="mono" font-size="14.00" fill="#c83500">description</text>
<text text-anchor="start" x="528.516" y="-625.3" font-family="Times,serif" font-size="14.00"> : </text>
<text text-anchor="start" x="540.516" y="-625.3" font-family="mono" font-size="14.00" fill="#c83500">string</text>
<polygon fill="#ddeeff" stroke="none" points="434.516,-596.5 434.516,-617.5 698.516,-617.5 698.516,-596.5 434.516,-596.5"/>
<polygon fill="none" stroke="#8ccbf2" points="434.516,-596.5 434.516,-617.5 698.516,-617.5 698.516,-596.5 434.516,-596.5"/>
<text text-anchor="start" x="437.516" y="-604.3" font-family="mono" font-size="14.00" fill="#c83500">lastModified</text>
<text text-anchor="start" x="537.516" y="-604.3" font-family="Times,serif" font-size="14.00"> : </text>
<text text-anchor="start" x="549.516" y="-604.3" font-family="mono" font-size="14.00" fill="#c83500">string</text>
</g>
<!-- Thing&#45;&gt;MultiLanguage -->
<g id="edge2" class="edge"><title>Thing&#45;&gt;MultiLanguage</title>
<path fill="none" stroke="black" d="M426.368,-686.995C282.324,-658.617 72.5061,-607.29 24.5161,-542 -59.0454,-428.315 94.5712,-264.692 159.52,-203.657"/>
<polygon fill="black" stroke="black" points="162.032,-206.102 166.98,-196.733 157.269,-200.971 162.032,-206.102"/>
<text text-anchor="start" x="15.5161" y="-399.8" font-family="mono" font-size="14.00" fill="#c83500">descriptions</text>
<text text-anchor="middle" x="155.98" y="-200.533" font-family="Times,serif" font-size="14.00">0..1</text>
</g>
<!-- Thing&#45;&gt;Link -->
<g id="edge7" class="edge"><title>Thing&#45;&gt;Link</title>
<path fill="none" stroke="black" d="M426.416,-680.333C352.715,-659.137 263.757,-625.562 195.516,-575 186.081,-568.009 177.341,-559.332 169.5,-550.167"/>
<polygon fill="black" stroke="black" points="172.171,-547.904 163.13,-542.38 166.753,-552.336 172.171,-547.904"/>
<text text-anchor="start" x="195.516" y="-563.8" font-family="mono" font-size="14.00" fill="#c83500">links</text>
<text text-anchor="middle" x="152.13" y="-546.18" font-family="Times,serif" font-size="14.00">0..*</text>
</g>
<!-- Thing&#45;&gt;Form -->
<g id="edge5" class="edge"><title>Thing&#45;&gt;Form</title>
<path fill="none" stroke="black" d="M426.357,-667.157C367.323,-640.755 304.522,-600.66 270.516,-542 255.129,-515.458 275.933,-282.716 280.516,-274 282.202,-270.793 284.051,-267.659 286.038,-264.599"/>
<polygon fill="black" stroke="black" points="289.079,-266.362 291.993,-256.175 283.362,-262.321 289.079,-266.362"/>
<text text-anchor="start" x="268.516" y="-399.8" font-family="mono" font-size="14.00" fill="#c83500">forms</text>
<text text-anchor="middle" x="280.993" y="-259.975" font-family="Times,serif" font-size="14.00">0..*</text>
</g>
<!-- PropertyAffordance -->
<g id="node5" class="node"><title>PropertyAffordance</title>
<polygon fill="#8ccbf2" stroke="none" points="288.516,-485.5 288.516,-506.5 519.516,-506.5 519.516,-485.5 288.516,-485.5"/>
<polygon fill="none" stroke="#8ccbf2" points="288.516,-485.5 288.516,-506.5 519.516,-506.5 519.516,-485.5 288.516,-485.5"/>
<text text-anchor="start" x="329.516" y="-493.3" font-family="mono" font-weight="bold" font-size="14.00" fill="#c83500">PropertyAffordance</text>
<polygon fill="#ddeeff" stroke="none" points="288.516,-464.5 288.516,-485.5 519.516,-485.5 519.516,-464.5 288.516,-464.5"/>
<polygon fill="none" stroke="#8ccbf2" points="288.516,-464.5 288.516,-485.5 519.516,-485.5 519.516,-464.5 288.516,-464.5"/>
<text text-anchor="start" x="291.516" y="-472.3" font-family="mono" font-size="14.00" fill="#c83500">observable</text>
<text text-anchor="start" x="374.516" y="-472.3" font-family="Times,serif" font-size="14.00"> : </text>
<text text-anchor="start" x="386.516" y="-472.3" font-family="mono" font-size="14.00" fill="#c83500">boolean</text>
<text text-anchor="start" x="444.516" y="-472.3" font-family="Times,serif" font-size="14.00"> </text>
<text text-anchor="start" x="448.516" y="-472.3" font-family="Times,serif" font-style="italic" font-size="14.00">(mandatory)</text>
</g>
<!-- Thing&#45;&gt;PropertyAffordance -->
<g id="edge9" class="edge"><title>Thing&#45;&gt;PropertyAffordance</title>
<path fill="none" stroke="black" d="M480.482,-592.741C460.749,-565.502 441.371,-538.754 426.996,-518.911"/>
<polygon fill="black" stroke="black" points="429.659,-516.62 420.957,-510.576 423.99,-520.727 429.659,-516.62"/>
<text text-anchor="start" x="466.516" y="-563.8" font-family="mono" font-size="14.00" fill="#c83500">properties</text>
<text text-anchor="middle" x="409.957" y="-514.376" font-family="Times,serif" font-size="14.00">0..1</text>
</g>
<!-- VersionInfo -->
<g id="node7" class="node"><title>VersionInfo</title>
<polygon fill="#8ccbf2" stroke="none" points="553.516,-485.5 553.516,-506.5 760.516,-506.5 760.516,-485.5 553.516,-485.5"/>
<polygon fill="none" stroke="#8ccbf2" points="553.516,-485.5 553.516,-506.5 760.516,-506.5 760.516,-485.5 553.516,-485.5"/>
<text text-anchor="start" x="611.516" y="-493.3" font-family="mono" font-weight="bold" font-size="14.00" fill="#c83500">VersionInfo</text>
<polygon fill="#ddeeff" stroke="none" points="553.516,-464.5 553.516,-485.5 760.516,-485.5 760.516,-464.5 553.516,-464.5"/>
<polygon fill="none" stroke="#8ccbf2" points="553.516,-464.5 553.516,-485.5 760.516,-485.5 760.516,-464.5 553.516,-464.5"/>
<text text-anchor="start" x="556.516" y="-472.3" font-family="mono" font-size="14.00" fill="#c83500">instance</text>
<text text-anchor="start" x="623.516" y="-472.3" font-family="Times,serif" font-size="14.00"> : </text>
<text text-anchor="start" x="635.516" y="-472.3" font-family="mono" font-size="14.00" fill="#c83500">string</text>
<text text-anchor="start" x="685.516" y="-472.3" font-family="Times,serif" font-size="14.00"> </text>
<text text-anchor="start" x="689.516" y="-472.3" font-family="Times,serif" font-style="italic" font-size="14.00">(mandatory)</text>
</g>
<!-- Thing&#45;&gt;VersionInfo -->
<g id="edge3" class="edge"><title>Thing&#45;&gt;VersionInfo</title>
<path fill="none" stroke="black" d="M614.02,-592.741C624.72,-565.99 635.231,-539.714 643.122,-519.985"/>
<polygon fill="black" stroke="black" points="646.422,-521.16 646.886,-510.576 639.922,-518.56 646.422,-521.16"/>
<text text-anchor="start" x="625.516" y="-563.8" font-family="mono" font-size="14.00" fill="#c83500">version</text>
<text text-anchor="middle" x="635.886" y="-514.376" font-family="Times,serif" font-size="14.00">0..1</text>
</g>
<!-- ActionAffordance -->
<g id="node8" class="node"><title>ActionAffordance</title>
<polygon fill="#8ccbf2" stroke="none" points="794.516,-495.5 794.516,-516.5 1025.52,-516.5 1025.52,-495.5 794.516,-495.5"/>
<polygon fill="none" stroke="#8ccbf2" points="794.516,-495.5 794.516,-516.5 1025.52,-516.5 1025.52,-495.5 794.516,-495.5"/>
<text text-anchor="start" x="843.516" y="-503.3" font-family="mono" font-weight="bold" font-size="14.00" fill="#c83500">ActionAffordance</text>
<polygon fill="#ddeeff" stroke="none" points="794.516,-474.5 794.516,-495.5 1025.52,-495.5 1025.52,-474.5 794.516,-474.5"/>
<polygon fill="none" stroke="#8ccbf2" points="794.516,-474.5 794.516,-495.5 1025.52,-495.5 1025.52,-474.5 794.516,-474.5"/>
<text text-anchor="start" x="797.516" y="-482.3" font-family="mono" font-size="14.00" fill="#c83500">safe</text>
<text text-anchor="start" x="831.516" y="-482.3" font-family="Times,serif" font-size="14.00"> : </text>
<text text-anchor="start" x="843.516" y="-482.3" font-family="mono" font-size="14.00" fill="#c83500">boolean</text>
<text text-anchor="start" x="901.516" y="-482.3" font-family="Times,serif" font-size="14.00"> </text>
<text text-anchor="start" x="905.516" y="-482.3" font-family="Times,serif" font-style="italic" font-size="14.00">(mandatory)</text>
<polygon fill="#ddeeff" stroke="none" points="794.516,-453.5 794.516,-474.5 1025.52,-474.5 1025.52,-453.5 794.516,-453.5"/>
<polygon fill="none" stroke="#8ccbf2" points="794.516,-453.5 794.516,-474.5 1025.52,-474.5 1025.52,-453.5 794.516,-453.5"/>
<text text-anchor="start" x="797.516" y="-461.3" font-family="mono" font-size="14.00" fill="#c83500">idempotent</text>
<text text-anchor="start" x="880.516" y="-461.3" font-family="Times,serif" font-size="14.00"> : </text>
<text text-anchor="start" x="892.516" y="-461.3" font-family="mono" font-size="14.00" fill="#c83500">boolean</text>
<text text-anchor="start" x="950.516" y="-461.3" font-family="Times,serif" font-size="14.00"> </text>
<text text-anchor="start" x="954.516" y="-461.3" font-family="Times,serif" font-style="italic" font-size="14.00">(mandatory)</text>
</g>
<!-- Thing&#45;&gt;ActionAffordance -->
<g id="edge6" class="edge"><title>Thing&#45;&gt;ActionAffordance</title>
<path fill="none" stroke="black" d="M706.522,-619.659C755.776,-587.35 808.618,-552.686 848.039,-526.827"/>
<polygon fill="black" stroke="black" points="850.304,-529.528 856.746,-521.116 846.464,-523.675 850.304,-529.528"/>
<text text-anchor="start" x="789.516" y="-563.8" font-family="mono" font-size="14.00" fill="#c83500">actions</text>
<text text-anchor="middle" x="845.746" y="-524.916" font-family="Times,serif" font-size="14.00">0..1</text>
</g>
<!-- EventAffordance -->
<g id="node10" class="node"><title>EventAffordance</title>
<polygon fill="#8ccbf2" stroke="none" points="1059.52,-474.5 1059.52,-495.5 1189.52,-495.5 1189.52,-474.5 1059.52,-474.5"/>
<polygon fill="none" stroke="#8ccbf2" points="1059.52,-474.5 1059.52,-495.5 1189.52,-495.5 1189.52,-474.5 1059.52,-474.5"/>
<text text-anchor="start" x="1062.52" y="-482.3" font-family="mono" font-weight="bold" font-size="14.00" fill="#c83500">EventAffordance</text>
</g>
<!-- Thing&#45;&gt;EventAffordance -->
<g id="edge8" class="edge"><title>Thing&#45;&gt;EventAffordance</title>
<path fill="none" stroke="black" d="M706.653,-671.515C803.272,-641.556 933.28,-596.447 1041.52,-542 1059.64,-532.884 1078.54,-520.503 1093.72,-509.749"/>
<polygon fill="black" stroke="black" points="1096.12,-512.328 1102.19,-503.642 1092.03,-506.65 1096.12,-512.328"/>
<text text-anchor="start" x="992.516" y="-563.8" font-family="mono" font-size="14.00" fill="#c83500">events</text>
<text text-anchor="middle" x="1091.19" y="-507.442" font-family="Times,serif" font-size="14.00">0..1</text>
</g>
<!-- SecurityScheme -->
<g id="node11" class="node"><title>SecurityScheme</title>
<polygon fill="#f2f2f2" stroke="none" points="1223.52,-474.5 1223.52,-495.5 1345.52,-495.5 1345.52,-474.5 1223.52,-474.5"/>
<polygon fill="none" stroke="#8c8c8c" points="1223.52,-474.5 1223.52,-495.5 1345.52,-495.5 1345.52,-474.5 1223.52,-474.5"/>
<text text-anchor="start" x="1226.52" y="-482.3" font-family="mono" font-weight="bold" font-size="14.00">SecurityScheme</text>
</g>
<!-- Thing&#45;&gt;SecurityScheme -->
<g id="edge4" class="edge"><title>Thing&#45;&gt;SecurityScheme</title>
<path fill="none" stroke="black" d="M706.647,-689.388C839.769,-664.959 1043.27,-618.585 1206.52,-542 1224.38,-533.621 1242.44,-521.08 1256.69,-510.038"/>
<polygon fill="black" stroke="black" points="1258.95,-512.713 1264.6,-503.752 1254.59,-507.231 1258.95,-512.713"/>
<text text-anchor="start" x="1157.52" y="-563.8" font-family="mono" font-size="14.00" fill="#c83500">securityDefinitions</text>
<text text-anchor="middle" x="1253.6" y="-507.552" font-family="Times,serif" font-size="14.00">1..1</text>
</g>
<!-- InteractionAffordance -->
<g id="node9" class="node"><title>InteractionAffordance</title>
<polygon fill="#8ccbf2" stroke="none" points="317.516,-352.5 317.516,-373.5 497.516,-373.5 497.516,-352.5 317.516,-352.5"/>
<polygon fill="none" stroke="#8ccbf2" points="317.516,-352.5 317.516,-373.5 497.516,-373.5 497.516,-352.5 317.516,-352.5"/>
<text text-anchor="start" x="320.516" y="-360.3" font-family="mono" font-weight="bold" font-size="14.00" fill="#c83500">InteractionAffordance</text>
<polygon fill="#ddeeff" stroke="none" points="317.516,-331.5 317.516,-352.5 497.516,-352.5 497.516,-331.5 317.516,-331.5"/>
<polygon fill="none" stroke="#8ccbf2" points="317.516,-331.5 317.516,-352.5 497.516,-352.5 497.516,-331.5 317.516,-331.5"/>
<text text-anchor="start" x="320.516" y="-339.3" font-family="mono" font-size="14.00" fill="#c83500">title</text>
<text text-anchor="start" x="362.516" y="-339.3" font-family="Times,serif" font-size="14.00"> : </text>
<text text-anchor="start" x="374.516" y="-339.3" font-family="mono" font-size="14.00" fill="#c83500">string</text>
<polygon fill="#ddeeff" stroke="none" points="317.516,-310.5 317.516,-331.5 497.516,-331.5 497.516,-310.5 317.516,-310.5"/>
<polygon fill="none" stroke="#8ccbf2" points="317.516,-310.5 317.516,-331.5 497.516,-331.5 497.516,-310.5 317.516,-310.5"/>
<text text-anchor="start" x="320.516" y="-318.3" font-family="mono" font-size="14.00" fill="#c83500">description</text>
<text text-anchor="start" x="411.516" y="-318.3" font-family="Times,serif" font-size="14.00"> : </text>
<text text-anchor="start" x="423.516" y="-318.3" font-family="mono" font-size="14.00" fill="#c83500">string</text>
</g>
<!-- PropertyAffordance&#45;&gt;InteractionAffordance -->
<g id="edge21" class="edge"><title>PropertyAffordance&#45;&gt;InteractionAffordance</title>
<path fill="none" stroke="black" d="M404.204,-460.261C404.762,-440.576 405.565,-412.276 406.24,-388.468"/>
<polygon fill="white" stroke="black" points="409.746,-388.331 406.531,-378.236 402.748,-388.133 409.746,-388.331"/>
</g>
<!-- ActionAffordance&#45;&gt;InteractionAffordance -->
<g id="edge19" class="edge"><title>ActionAffordance&#45;&gt;InteractionAffordance</title>
<path fill="none" stroke="black" d="M832.976,-449.993C814.696,-442.47 795.092,-434.981 776.516,-429 690.252,-401.224 589.93,-378.575 515.683,-363.583"/>
<polygon fill="white" stroke="black" points="516.337,-360.145 505.844,-361.611 514.961,-367.008 516.337,-360.145"/>
</g>
<!-- DataSchema -->
<g id="node12" class="node"><title>DataSchema</title>
<polygon fill="#f2f2f2" stroke="none" points="904.516,-167.5 904.516,-188.5 993.516,-188.5 993.516,-167.5 904.516,-167.5"/>
<polygon fill="none" stroke="#8c8c8c" points="904.516,-167.5 904.516,-188.5 993.516,-188.5 993.516,-167.5 904.516,-167.5"/>
<text text-anchor="start" x="907.516" y="-175.3" font-family="mono" font-weight="bold" font-size="14.00">DataSchema</text>
</g>
<!-- ActionAffordance&#45;&gt;DataSchema -->
<g id="edge10" class="edge"><title>ActionAffordance&#45;&gt;DataSchema</title>
<path fill="none" stroke="black" d="M878.294,-449.86C862.767,-430.275 845.621,-404.461 837.516,-378 828.274,-347.828 826.454,-336.553 837.516,-307 853.46,-264.405 890.776,-226.658 917.746,-203.498"/>
<polygon fill="black" stroke="black" points="920.334,-205.896 925.749,-196.789 915.837,-200.531 920.334,-205.896"/>
<text text-anchor="start" x="837.516" y="-338.8" font-family="mono" font-size="14.00" fill="#c83500">output</text>
<text text-anchor="middle" x="914.749" y="-200.589" font-family="Times,serif" font-size="14.00">0..1</text>
</g>
<!-- ActionAffordance&#45;&gt;DataSchema -->
<g id="edge11" class="edge"><title>ActionAffordance&#45;&gt;DataSchema</title>
<path fill="none" stroke="black" d="M911.078,-449.681C912.965,-413.8 916.76,-356.307 923.516,-307 928.306,-272.037 936.578,-232.191 942.288,-206.487"/>
<polygon fill="black" stroke="black" points="945.705,-207.242 944.486,-196.718 938.876,-205.705 945.705,-207.242"/>
<text text-anchor="start" x="923.516" y="-338.8" font-family="mono" font-size="14.00" fill="#c83500">input</text>
<text text-anchor="middle" x="955.486" y="-200.518" font-family="Times,serif" font-size="14.00">0..1</text>
</g>
<!-- InteractionAffordance&#45;&gt;MultiLanguage -->
<g id="edge12" class="edge"><title>InteractionAffordance&#45;&gt;MultiLanguage</title>
<path fill="none" stroke="black" d="M330.649,-306.895C320.573,-301.367 310.603,-295.356 301.516,-289 265.795,-264.014 230.327,-228.117 208.428,-204.322"/>
<polygon fill="black" stroke="black" points="210.858,-201.792 201.54,-196.749 205.679,-206.502 210.858,-201.792"/>
<text text-anchor="start" x="301.516" y="-277.8" font-family="mono" font-size="14.00" fill="#c83500">descriptions</text>
<text text-anchor="middle" x="190.54" y="-200.549" font-family="Times,serif" font-size="14.00">0..1</text>
</g>
<!-- InteractionAffordance&#45;&gt;MultiLanguage -->
<g id="edge14" class="edge"><title>InteractionAffordance&#45;&gt;MultiLanguage</title>
<path fill="none" stroke="black" d="M309.511,-328.909C281.314,-321.215 252.321,-308.852 230.516,-289 206.788,-267.398 195.624,-231.241 190.533,-206.425"/>
<polygon fill="black" stroke="black" points="193.968,-205.754 188.703,-196.559 187.085,-207.03 193.968,-205.754"/>
<text text-anchor="start" x="230.516" y="-277.8" font-family="mono" font-size="14.00" fill="#c83500">titles</text>
<text text-anchor="middle" x="177.703" y="-200.359" font-family="Times,serif" font-size="14.00">0..1</text>
</g>
<!-- InteractionAffordance&#45;&gt;Form -->
<g id="edge15" class="edge"><title>InteractionAffordance&#45;&gt;Form</title>
<path fill="none" stroke="black" d="M406.014,-306.747C405.497,-294.777 404.892,-280.781 404.277,-266.534"/>
<polygon fill="black" stroke="black" points="407.756,-265.981 403.828,-256.141 400.763,-266.283 407.756,-265.981"/>
<text text-anchor="start" x="405.516" y="-277.8" font-family="mono" font-size="14.00" fill="#c83500">forms</text>
<text text-anchor="middle" x="392.828" y="-259.941" font-family="Times,serif" font-size="14.00">1..*</text>
</g>
<!-- InteractionAffordance&#45;&gt;DataSchema -->
<g id="edge13" class="edge"><title>InteractionAffordance&#45;&gt;DataSchema</title>
<path fill="none" stroke="black" d="M505.801,-312.069C616.463,-278.932 792.954,-226.082 886.156,-198.173"/>
<polygon fill="black" stroke="black" points="887.43,-201.446 896.006,-195.224 885.422,-194.74 887.43,-201.446"/>
<text text-anchor="start" x="630.516" y="-277.8" font-family="mono" font-size="14.00" fill="#c83500">uriVariables</text>
<text text-anchor="middle" x="885.006" y="-199.024" font-family="Times,serif" font-size="14.00">0..1</text>
</g>
<!-- EventAffordance&#45;&gt;InteractionAffordance -->
<g id="edge20" class="edge"><title>EventAffordance&#45;&gt;InteractionAffordance</title>
<path fill="none" stroke="black" d="M1104.49,-467.263C1088.53,-454.519 1065.02,-437.895 1041.52,-429 993.48,-410.825 683.868,-374.277 515.758,-355.396"/>
<polygon fill="white" stroke="black" points="515.964,-351.897 505.636,-354.261 515.184,-358.854 515.964,-351.897"/>
</g>
<!-- EventAffordance&#45;&gt;DataSchema -->
<g id="edge16" class="edge"><title>EventAffordance&#45;&gt;DataSchema</title>
<path fill="none" stroke="black" d="M1096.5,-467.487C1068.33,-448.937 1025.71,-416.673 1001.52,-378 967.291,-323.294 954.97,-246.775 950.687,-206.594"/>
<polygon fill="black" stroke="black" points="954.157,-206.115 949.701,-196.503 947.19,-206.796 954.157,-206.115"/>
<text text-anchor="start" x="1001.52" y="-338.8" font-family="mono" font-size="14.00" fill="#c83500">subscription</text>
<text text-anchor="middle" x="938.701" y="-200.303" font-family="Times,serif" font-size="14.00">0..1</text>
</g>
<!-- EventAffordance&#45;&gt;DataSchema -->
<g id="edge17" class="edge"><title>EventAffordance&#45;&gt;DataSchema</title>
<path fill="none" stroke="black" d="M1126.25,-467.349C1128.8,-434.14 1130.47,-359.696 1101.52,-307 1075.88,-260.348 1025.74,-223.695 989.848,-201.888"/>
<polygon fill="black" stroke="black" points="991.438,-198.761 981.052,-196.666 987.864,-204.781 991.438,-198.761"/>
<text text-anchor="start" x="1123.52" y="-338.8" font-family="mono" font-size="14.00" fill="#c83500">data</text>
<text text-anchor="middle" x="992.052" y="-200.466" font-family="Times,serif" font-size="14.00">0..1</text>
</g>
<!-- EventAffordance&#45;&gt;DataSchema -->
<g id="edge18" class="edge"><title>EventAffordance&#45;&gt;DataSchema</title>
<path fill="none" stroke="black" d="M1135.43,-467.402C1155.04,-434.283 1191.55,-359.989 1161.52,-307 1129.47,-250.467 1061.28,-216.298 1010.64,-197.76"/>
<polygon fill="black" stroke="black" points="1011.68,-194.414 1001.08,-194.369 1009.34,-201.011 1011.68,-194.414"/>
<text text-anchor="start" x="1173.52" y="-338.8" font-family="mono" font-size="14.00" fill="#c83500">cancellation</text>
<text text-anchor="middle" x="1012.08" y="-183.169" font-family="Times,serif" font-size="14.00">0..1</text>
</g>
</g>
</svg>
