<?xml version="1.0" encoding="UTF-8" standalone="no"?>
<!DOCTYPE svg PUBLIC "-//W3C//DTD SVG 1.1//EN"
 "http://www.w3.org/Graphics/SVG/1.1/DTD/svg11.dtd">
<!-- Generated by graphviz version 2.40.1 (20161225.0304)
 -->
<!-- Title: %3 Pages: 1 -->
<svg width="1449pt" height="840pt"
 viewBox="0.00 0.00 1449.50 840.00" xmlns="http://www.w3.org/2000/svg" xmlns:xlink="http://www.w3.org/1999/xlink">
<g id="graph0" class="graph" transform="scale(1 1) rotate(0) translate(4 836)">
<title>%3</title>
<polygon fill="#ffffff" stroke="transparent" points="-4,4 -4,-836 1445.5,-836 1445.5,4 -4,4"/>
<!-- MultiLanguage -->
<g id="node1" class="node">
<title>MultiLanguage</title>
<polygon fill="#8ccbf2" stroke="transparent" points="371,-167.5 371,-188.5 482,-188.5 482,-167.5 371,-167.5"/>
<polygon fill="none" stroke="#8ccbf2" points="371,-167.5 371,-188.5 482,-188.5 482,-167.5 371,-167.5"/>
<text text-anchor="start" x="374" y="-175.3" font-family="mono" font-weight="bold" font-size="14.00" fill="#c83500">MultiLanguage</text>
</g>
<!-- InteractionPattern -->
<g id="node2" class="node">
<title>InteractionPattern</title>
<polygon fill="#8ccbf2" stroke="transparent" points="358,-394.5 358,-415.5 517,-415.5 517,-394.5 358,-394.5"/>
<polygon fill="none" stroke="#8ccbf2" points="358,-394.5 358,-415.5 517,-415.5 517,-394.5 358,-394.5"/>
<text text-anchor="start" x="374" y="-402.3" font-family="mono" font-weight="bold" font-size="14.00" fill="#c83500">InteractionPattern</text>
<polygon fill="#ddeeff" stroke="transparent" points="358,-373.5 358,-394.5 517,-394.5 517,-373.5 358,-373.5"/>
<polygon fill="none" stroke="#8ccbf2" points="358,-373.5 358,-394.5 517,-394.5 517,-373.5 358,-373.5"/>
<text text-anchor="start" x="361" y="-381.3" font-family="mono" font-size="14.00" fill="#c83500">scopes</text>
<text text-anchor="start" x="408" y="-381.3" font-family="Times,serif" font-size="14.00" fill="#000000"> : array of </text>
<text text-anchor="start" x="468" y="-381.3" font-family="mono" font-size="14.00" fill="#c83500">string</text>
<polygon fill="#ddeeff" stroke="transparent" points="358,-352.5 358,-373.5 517,-373.5 517,-352.5 358,-352.5"/>
<polygon fill="none" stroke="#8ccbf2" points="358,-352.5 358,-373.5 517,-373.5 517,-352.5 358,-352.5"/>
<text text-anchor="start" x="361" y="-360.3" font-family="mono" font-size="14.00" fill="#c83500">security</text>
<text text-anchor="start" x="414" y="-360.3" font-family="Times,serif" font-size="14.00" fill="#000000"> : array of </text>
<text text-anchor="start" x="474" y="-360.3" font-family="mono" font-size="14.00" fill="#c83500">string</text>
<polygon fill="#ddeeff" stroke="transparent" points="358,-331.5 358,-352.5 517,-352.5 517,-331.5 358,-331.5"/>
<polygon fill="none" stroke="#8ccbf2" points="358,-331.5 358,-352.5 517,-352.5 517,-331.5 358,-331.5"/>
<text text-anchor="start" x="361" y="-339.3" font-family="mono" font-size="14.00" fill="#c83500">description</text>
<text text-anchor="start" x="437" y="-339.3" font-family="Times,serif" font-size="14.00" fill="#000000"> : </text>
<text text-anchor="start" x="449" y="-339.3" font-family="mono" font-size="14.00" fill="#c83500">string</text>
<polygon fill="#ddeeff" stroke="transparent" points="358,-310.5 358,-331.5 517,-331.5 517,-310.5 358,-310.5"/>
<polygon fill="none" stroke="#8ccbf2" points="358,-310.5 358,-331.5 517,-331.5 517,-310.5 358,-310.5"/>
<text text-anchor="start" x="361" y="-318.3" font-family="mono" font-size="14.00" fill="#c83500">title</text>
<text text-anchor="start" x="388" y="-318.3" font-family="Times,serif" font-size="14.00" fill="#000000"> : </text>
<text text-anchor="start" x="400" y="-318.3" font-family="mono" font-size="14.00" fill="#c83500">string</text>
</g>
<!-- InteractionPattern&#45;&gt;MultiLanguage -->
<g id="edge1" class="edge">
<title>InteractionPattern&#45;&gt;MultiLanguage</title>
<path fill="none" stroke="#000000" d="M349.0538,-312.3336C342.3032,-305.3113 336.4114,-297.539 332,-289 328.9401,-283.077 329.2143,-280.0568 332,-274 337.1366,-262.8319 344.1064,-264.4862 353,-256 370.4233,-239.3749 389.0203,-219.5981 403.0833,-204.1838"/>
<polygon fill="#000000" stroke="#000000" points="405.8706,-206.3203 409.9938,-196.5606 400.6844,-201.6189 405.8706,-206.3203"/>
<text text-anchor="start" x="332" y="-277.8" font-family="mono" font-size="14.00" fill="#c83500">descriptions</text>
<text text-anchor="middle" x="398.4938" y="-200.3606" font-family="Times,serif" font-size="14.00" fill="#000000">0..1</text>
</g>
<!-- InteractionPattern&#45;&gt;MultiLanguage -->
<g id="edge4" class="edge">
<title>InteractionPattern&#45;&gt;MultiLanguage</title>
<path fill="none" stroke="#000000" d="M433.6399,-306.9887C431.6741,-273.9277 429.2762,-233.5999 427.6973,-207.0458"/>
<polygon fill="#000000" stroke="#000000" points="431.1821,-206.6841 427.0946,-196.9095 424.1944,-207.0997 431.1821,-206.6841"/>
<text text-anchor="start" x="433" y="-277.8" font-family="mono" font-size="14.00" fill="#c83500">titles</text>
<text text-anchor="middle" x="438.5946" y="-200.7095" font-family="Times,serif" font-size="14.00" fill="#000000">0..1</text>
</g>
<!-- Form -->
<g id="node4" class="node">
<title>Form</title>
<polygon fill="#8ccbf2" stroke="transparent" points="8,-230.5 8,-251.5 336,-251.5 336,-230.5 8,-230.5"/>
<polygon fill="none" stroke="#8ccbf2" points="8,-230.5 8,-251.5 336,-251.5 336,-230.5 8,-230.5"/>
<text text-anchor="start" x="153.5" y="-238.3" font-family="mono" font-weight="bold" font-size="14.00" fill="#c83500">Form</text>
<polygon fill="#ddeeff" stroke="transparent" points="8,-209.5 8,-230.5 336,-230.5 336,-209.5 8,-209.5"/>
<polygon fill="none" stroke="#8ccbf2" points="8,-209.5 8,-230.5 336,-230.5 336,-209.5 8,-209.5"/>
<text text-anchor="start" x="11" y="-217.3" font-family="mono" font-size="14.00" fill="#c83500">href</text>
<text text-anchor="start" x="39" y="-217.3" font-family="Times,serif" font-size="14.00" fill="#000000"> : </text>
<text text-anchor="start" x="51" y="-217.3" font-family="mono" font-size="14.00" fill="#c83500">anyURI</text>
<text text-anchor="start" x="99" y="-217.3" font-family="Times,serif" font-size="14.00" fill="#000000"> </text>
<text text-anchor="start" x="103" y="-217.3" font-family="Times,serif" font-style="italic" font-size="14.00" fill="#000000">(mandatory)</text>
<polygon fill="#ddeeff" stroke="transparent" points="8,-188.5 8,-209.5 336,-209.5 336,-188.5 8,-188.5"/>
<polygon fill="none" stroke="#8ccbf2" points="8,-188.5 8,-209.5 336,-209.5 336,-188.5 8,-188.5"/>
<text text-anchor="start" x="11" y="-196.3" font-family="mono" font-size="14.00" fill="#c83500">subprotocol</text>
<text text-anchor="start" x="93" y="-196.3" font-family="Times,serif" font-size="14.00" fill="#000000"> : </text>
<text text-anchor="start" x="105" y="-196.3" font-family="mono" font-size="14.00" fill="#c83500">string</text>
<polygon fill="#ddeeff" stroke="transparent" points="8,-167.5 8,-188.5 336,-188.5 336,-167.5 8,-167.5"/>
<polygon fill="none" stroke="#8ccbf2" points="8,-167.5 8,-188.5 336,-188.5 336,-167.5 8,-167.5"/>
<text text-anchor="start" x="11" y="-175.3" font-family="mono" font-size="14.00" fill="#c83500">security</text>
<text text-anchor="start" x="64" y="-175.3" font-family="Times,serif" font-size="14.00" fill="#000000"> : array of </text>
<text text-anchor="start" x="124" y="-175.3" font-family="mono" font-size="14.00" fill="#c83500">string</text>
<polygon fill="#ddeeff" stroke="transparent" points="8,-146.5 8,-167.5 336,-167.5 336,-146.5 8,-146.5"/>
<polygon fill="none" stroke="#8ccbf2" points="8,-146.5 8,-167.5 336,-167.5 336,-146.5 8,-146.5"/>
<text text-anchor="start" x="11" y="-154.3" font-family="mono" font-size="14.00" fill="#c83500">op</text>
<text text-anchor="start" x="30" y="-154.3" font-family="Times,serif" font-size="14.00" fill="#000000"> : </text>
<text text-anchor="start" x="42" y="-154.3" font-family="mono" font-size="14.00" fill="#c83500">string</text>
<polygon fill="#ddeeff" stroke="transparent" points="8,-125.5 8,-146.5 336,-146.5 336,-125.5 8,-125.5"/>
<polygon fill="none" stroke="#8ccbf2" points="8,-125.5 8,-146.5 336,-146.5 336,-125.5 8,-125.5"/>
<text text-anchor="start" x="11" y="-133.3" font-family="mono" font-size="14.00" fill="#c83500">contentType</text>
<text text-anchor="start" x="97" y="-133.3" font-family="Times,serif" font-size="14.00" fill="#000000"> : </text>
<text text-anchor="start" x="109" y="-133.3" font-family="mono" font-size="14.00" fill="#c83500">string</text>
<text text-anchor="start" x="149" y="-133.3" font-family="Times,serif" font-size="14.00" fill="#000000"> = application/json </text>
<text text-anchor="start" x="260" y="-133.3" font-family="Times,serif" font-style="italic" font-size="14.00" fill="#000000">(mandatory)</text>
<polygon fill="#ddeeff" stroke="transparent" points="8,-104.5 8,-125.5 336,-125.5 336,-104.5 8,-104.5"/>
<polygon fill="none" stroke="#8ccbf2" points="8,-104.5 8,-125.5 336,-125.5 336,-104.5 8,-104.5"/>
<text text-anchor="start" x="11" y="-112.3" font-family="mono" font-size="14.00" fill="#c83500">scopes</text>
<text text-anchor="start" x="58" y="-112.3" font-family="Times,serif" font-size="14.00" fill="#000000"> : array of </text>
<text text-anchor="start" x="118" y="-112.3" font-family="mono" font-size="14.00" fill="#c83500">string</text>
</g>
<!-- InteractionPattern&#45;&gt;Form -->
<g id="edge3" class="edge">
<title>InteractionPattern&#45;&gt;Form</title>
<path fill="none" stroke="#000000" d="M349.3101,-325.9795C327.8499,-315.2654 305.4718,-302.7276 286,-289 274.8514,-281.1403 263.753,-272.1899 253.1019,-262.8643"/>
<polygon fill="#000000" stroke="#000000" points="255.2222,-260.0655 245.431,-256.0178 250.561,-265.2879 255.2222,-260.0655"/>
<text text-anchor="start" x="286" y="-277.8" font-family="mono" font-size="14.00" fill="#c83500">forms</text>
<text text-anchor="middle" x="233.931" y="-259.8178" font-family="Times,serif" font-size="14.00" fill="#000000">1..*</text>
</g>
<!-- DataSchema -->
<g id="node11" class="node">
<title>DataSchema</title>
<polygon fill="#f2f2f2" stroke="transparent" points="661,-167.5 661,-188.5 755,-188.5 755,-167.5 661,-167.5"/>
<polygon fill="none" stroke="#8c8c8c" points="661,-167.5 661,-188.5 755,-188.5 755,-167.5 661,-167.5"/>
<text text-anchor="start" x="664" y="-175.3" font-family="mono" font-weight="bold" font-size="14.00" fill="#000000">DataSchema</text>
</g>
<!-- InteractionPattern&#45;&gt;DataSchema -->
<g id="edge2" class="edge">
<title>InteractionPattern&#45;&gt;DataSchema</title>
<path fill="none" stroke="#000000" d="M466.8536,-306.5634C474.8638,-294.7665 484.316,-283.158 495,-274 538.142,-237.02 597.9214,-211.9001 643.1719,-196.742"/>
<polygon fill="#000000" stroke="#000000" points="644.4688,-200.0003 652.8857,-193.5654 642.2931,-193.347 644.4688,-200.0003"/>
<text text-anchor="start" x="495" y="-277.8" font-family="mono" font-size="14.00" fill="#c83500">uriVariables</text>
<text text-anchor="middle" x="641.3857" y="-197.3654" font-family="Times,serif" font-size="14.00" fill="#000000">0..1</text>
</g>
<!-- Link -->
<g id="node3" class="node">
<title>Link</title>
<polygon fill="#8ccbf2" stroke="transparent" points="885,-558.5 885,-579.5 1056,-579.5 1056,-558.5 885,-558.5"/>
<polygon fill="none" stroke="#8ccbf2" points="885,-558.5 885,-579.5 1056,-579.5 1056,-558.5 885,-558.5"/>
<text text-anchor="start" x="956" y="-566.3" font-family="mono" font-weight="bold" font-size="14.00" fill="#c83500">Link</text>
<polygon fill="#ddeeff" stroke="transparent" points="885,-537.5 885,-558.5 1056,-558.5 1056,-537.5 885,-537.5"/>
<polygon fill="none" stroke="#8ccbf2" points="885,-537.5 885,-558.5 1056,-558.5 1056,-537.5 885,-537.5"/>
<text text-anchor="start" x="888" y="-545.3" font-family="mono" font-size="14.00" fill="#c83500">anchor</text>
<text text-anchor="start" x="935" y="-545.3" font-family="Times,serif" font-size="14.00" fill="#000000"> : </text>
<text text-anchor="start" x="947" y="-545.3" font-family="mono" font-size="14.00" fill="#c83500">anyURI</text>
<polygon fill="#ddeeff" stroke="transparent" points="885,-516.5 885,-537.5 1056,-537.5 1056,-516.5 885,-516.5"/>
<polygon fill="none" stroke="#8ccbf2" points="885,-516.5 885,-537.5 1056,-537.5 1056,-516.5 885,-516.5"/>
<text text-anchor="start" x="888" y="-524.3" font-family="mono" font-size="14.00" fill="#c83500">rel</text>
<text text-anchor="start" x="906" y="-524.3" font-family="Times,serif" font-size="14.00" fill="#000000"> : </text>
<text text-anchor="start" x="918" y="-524.3" font-family="mono" font-size="14.00" fill="#c83500">string</text>
<polygon fill="#ddeeff" stroke="transparent" points="885,-495.5 885,-516.5 1056,-516.5 1056,-495.5 885,-495.5"/>
<polygon fill="none" stroke="#8ccbf2" points="885,-495.5 885,-516.5 1056,-516.5 1056,-495.5 885,-495.5"/>
<text text-anchor="start" x="888" y="-503.3" font-family="mono" font-size="14.00" fill="#c83500">type</text>
<text text-anchor="start" x="919" y="-503.3" font-family="Times,serif" font-size="14.00" fill="#000000"> : </text>
<text text-anchor="start" x="931" y="-503.3" font-family="mono" font-size="14.00" fill="#c83500">string</text>
<polygon fill="#ddeeff" stroke="transparent" points="885,-474.5 885,-495.5 1056,-495.5 1056,-474.5 885,-474.5"/>
<polygon fill="none" stroke="#8ccbf2" points="885,-474.5 885,-495.5 1056,-495.5 1056,-474.5 885,-474.5"/>
<text text-anchor="start" x="888" y="-482.3" font-family="mono" font-size="14.00" fill="#c83500">href</text>
<text text-anchor="start" x="916" y="-482.3" font-family="Times,serif" font-size="14.00" fill="#000000"> : </text>
<text text-anchor="start" x="928" y="-482.3" font-family="mono" font-size="14.00" fill="#c83500">anyURI</text>
<text text-anchor="start" x="976" y="-482.3" font-family="Times,serif" font-size="14.00" fill="#000000"> </text>
<text text-anchor="start" x="980" y="-482.3" font-family="Times,serif" font-style="italic" font-size="14.00" fill="#000000">(mandatory)</text>
</g>
<!-- ExpectedResponse -->
<g id="node7" class="node">
<title>ExpectedResponse</title>
<polygon fill="#8ccbf2" stroke="transparent" points="100,-25 100,-46 244,-46 244,-25 100,-25"/>
<polygon fill="none" stroke="#8ccbf2" points="100,-25 100,-46 244,-46 244,-25 100,-25"/>
<text text-anchor="start" x="107" y="-32.8" font-family="mono" font-weight="bold" font-size="14.00" fill="#c83500">ExpectedResponse</text>
<polygon fill="#ddeeff" stroke="transparent" points="100,-4 100,-25 244,-25 244,-4 100,-4"/>
<polygon fill="none" stroke="#8ccbf2" points="100,-4 100,-25 244,-25 244,-4 100,-4"/>
<text text-anchor="start" x="103" y="-11.8" font-family="mono" font-size="14.00" fill="#c83500">contentType</text>
<text text-anchor="start" x="189" y="-11.8" font-family="Times,serif" font-size="14.00" fill="#000000"> : </text>
<text text-anchor="start" x="201" y="-11.8" font-family="mono" font-size="14.00" fill="#c83500">string</text>
</g>
<!-- Form&#45;&gt;ExpectedResponse -->
<g id="edge5" class="edge">
<title>Form&#45;&gt;ExpectedResponse</title>
<path fill="none" stroke="#000000" d="M172,-100.8506C172,-86.7022 172,-72.5946 172,-60.4513"/>
<polygon fill="#000000" stroke="#000000" points="175.5001,-60.3339 172,-50.334 168.5001,-60.334 175.5001,-60.3339"/>
<text text-anchor="start" x="172" y="-71.8" font-family="mono" font-size="14.00" fill="#c83500">response</text>
<text text-anchor="middle" x="160.5" y="-54.134" font-family="Times,serif" font-size="14.00" fill="#000000">0..1</text>
</g>
<!-- Thing -->
<g id="node5" class="node">
<title>Thing</title>
<polygon fill="#8ccbf2" stroke="transparent" points="612,-806.5 612,-827.5 848,-827.5 848,-806.5 612,-806.5"/>
<polygon fill="none" stroke="#8ccbf2" points="612,-806.5 612,-827.5 848,-827.5 848,-806.5 612,-806.5"/>
<text text-anchor="start" x="710" y="-814.3" font-family="mono" font-weight="bold" font-size="14.00" fill="#c83500">Thing</text>
<polygon fill="#ddeeff" stroke="transparent" points="612,-785.5 612,-806.5 848,-806.5 848,-785.5 612,-785.5"/>
<polygon fill="none" stroke="#8ccbf2" points="612,-785.5 612,-806.5 848,-806.5 848,-785.5 612,-785.5"/>
<text text-anchor="start" x="615" y="-793.3" font-family="mono" font-size="14.00" fill="#c83500">id</text>
<text text-anchor="start" x="628" y="-793.3" font-family="Times,serif" font-size="14.00" fill="#000000"> : </text>
<text text-anchor="start" x="640" y="-793.3" font-family="mono" font-size="14.00" fill="#c83500">anyURI</text>
<text text-anchor="start" x="688" y="-793.3" font-family="Times,serif" font-size="14.00" fill="#000000"> </text>
<text text-anchor="start" x="692" y="-793.3" font-family="Times,serif" font-style="italic" font-size="14.00" fill="#000000">(mandatory)</text>
<polygon fill="#ddeeff" stroke="transparent" points="612,-764.5 612,-785.5 848,-785.5 848,-764.5 612,-764.5"/>
<polygon fill="none" stroke="#8ccbf2" points="612,-764.5 612,-785.5 848,-785.5 848,-764.5 612,-764.5"/>
<text text-anchor="start" x="615" y="-772.3" font-family="mono" font-size="14.00" fill="#c83500">base</text>
<text text-anchor="start" x="647" y="-772.3" font-family="Times,serif" font-size="14.00" fill="#000000"> : </text>
<text text-anchor="start" x="659" y="-772.3" font-family="mono" font-size="14.00" fill="#c83500">anyURI</text>
<polygon fill="#ddeeff" stroke="transparent" points="612,-743.5 612,-764.5 848,-764.5 848,-743.5 612,-743.5"/>
<polygon fill="none" stroke="#8ccbf2" points="612,-743.5 612,-764.5 848,-764.5 848,-743.5 612,-743.5"/>
<text text-anchor="start" x="615" y="-751.3" font-family="mono" font-size="14.00" fill="#c83500">name</text>
<text text-anchor="start" x="654" y="-751.3" font-family="Times,serif" font-size="14.00" fill="#000000"> : </text>
<text text-anchor="start" x="666" y="-751.3" font-family="mono" font-size="14.00" fill="#c83500">string</text>
<text text-anchor="start" x="706" y="-751.3" font-family="Times,serif" font-size="14.00" fill="#000000"> </text>
<text text-anchor="start" x="710" y="-751.3" font-family="Times,serif" font-style="italic" font-size="14.00" fill="#000000">(mandatory)</text>
<polygon fill="#ddeeff" stroke="transparent" points="612,-722.5 612,-743.5 848,-743.5 848,-722.5 612,-722.5"/>
<polygon fill="none" stroke="#8ccbf2" points="612,-722.5 612,-743.5 848,-743.5 848,-722.5 612,-722.5"/>
<text text-anchor="start" x="615" y="-730.3" font-family="mono" font-size="14.00" fill="#c83500">security</text>
<text text-anchor="start" x="668" y="-730.3" font-family="Times,serif" font-size="14.00" fill="#000000"> : array of </text>
<text text-anchor="start" x="728" y="-730.3" font-family="mono" font-size="14.00" fill="#c83500">string</text>
<text text-anchor="start" x="768" y="-730.3" font-family="Times,serif" font-size="14.00" fill="#000000"> </text>
<text text-anchor="start" x="772" y="-730.3" font-family="Times,serif" font-style="italic" font-size="14.00" fill="#000000">(mandatory)</text>
<polygon fill="#ddeeff" stroke="transparent" points="612,-701.5 612,-722.5 848,-722.5 848,-701.5 612,-701.5"/>
<polygon fill="none" stroke="#8ccbf2" points="612,-701.5 612,-722.5 848,-722.5 848,-701.5 612,-701.5"/>
<text text-anchor="start" x="615" y="-709.3" font-family="mono" font-size="14.00" fill="#c83500">lastModified</text>
<text text-anchor="start" x="700" y="-709.3" font-family="Times,serif" font-size="14.00" fill="#000000"> : </text>
<text text-anchor="start" x="712" y="-709.3" font-family="mono" font-size="14.00" fill="#c83500">string</text>
<polygon fill="#ddeeff" stroke="transparent" points="612,-680.5 612,-701.5 848,-701.5 848,-680.5 612,-680.5"/>
<polygon fill="none" stroke="#8ccbf2" points="612,-680.5 612,-701.5 848,-701.5 848,-680.5 612,-680.5"/>
<text text-anchor="start" x="615" y="-688.3" font-family="mono" font-size="14.00" fill="#c83500">support</text>
<text text-anchor="start" x="669" y="-688.3" font-family="Times,serif" font-size="14.00" fill="#000000"> : </text>
<text text-anchor="start" x="681" y="-688.3" font-family="mono" font-size="14.00" fill="#c83500">string</text>
<polygon fill="#ddeeff" stroke="transparent" points="612,-659.5 612,-680.5 848,-680.5 848,-659.5 612,-659.5"/>
<polygon fill="none" stroke="#8ccbf2" points="612,-659.5 612,-680.5 848,-680.5 848,-659.5 612,-659.5"/>
<text text-anchor="start" x="615" y="-667.3" font-family="mono" font-size="14.00" fill="#c83500">description</text>
<text text-anchor="start" x="691" y="-667.3" font-family="Times,serif" font-size="14.00" fill="#000000"> : </text>
<text text-anchor="start" x="703" y="-667.3" font-family="mono" font-size="14.00" fill="#c83500">string</text>
<polygon fill="#ddeeff" stroke="transparent" points="612,-638.5 612,-659.5 848,-659.5 848,-638.5 612,-638.5"/>
<polygon fill="none" stroke="#8ccbf2" points="612,-638.5 612,-659.5 848,-659.5 848,-638.5 612,-638.5"/>
<text text-anchor="start" x="615" y="-646.3" font-family="mono" font-size="14.00" fill="#c83500">created</text>
<text text-anchor="start" x="666" y="-646.3" font-family="Times,serif" font-size="14.00" fill="#000000"> : </text>
<text text-anchor="start" x="678" y="-646.3" font-family="mono" font-size="14.00" fill="#c83500">string</text>
</g>
<!-- Thing&#45;&gt;MultiLanguage -->
<g id="edge12" class="edge">
<title>Thing&#45;&gt;MultiLanguage</title>
<path fill="none" stroke="#000000" d="M603.7238,-711.1758C477.3276,-685.9556 295.7748,-640.9073 254,-584 225.909,-545.7334 233.4175,-310.5656 265,-274 291.0946,-243.7882 318.1306,-275.4371 353,-256 375.3381,-243.5482 394.8538,-221.9179 408.0729,-204.6677"/>
<polygon fill="#000000" stroke="#000000" points="410.9012,-206.7295 414.0412,-196.6106 405.2764,-202.5628 410.9012,-206.7295"/>
<text text-anchor="start" x="237" y="-441.8" font-family="mono" font-size="14.00" fill="#c83500">descriptions</text>
<text text-anchor="middle" x="425.5412" y="-200.4106" font-family="Times,serif" font-size="14.00" fill="#000000">0..1</text>
</g>
<!-- Thing&#45;&gt;Link -->
<g id="edge7" class="edge">
<title>Thing&#45;&gt;Link</title>
<path fill="none" stroke="#000000" d="M845.0794,-634.7236C862.4479,-619.8155 879.9542,-604.7893 896.1394,-590.897"/>
<polygon fill="#000000" stroke="#000000" points="898.6639,-593.3427 903.9724,-584.1737 894.1047,-588.031 898.6639,-593.3427"/>
<text text-anchor="start" x="879" y="-605.8" font-family="mono" font-size="14.00" fill="#c83500">links</text>
<text text-anchor="middle" x="892.4724" y="-587.9737" font-family="Times,serif" font-size="14.00" fill="#000000">0..*</text>
</g>
<!-- Thing&#45;&gt;Form -->
<g id="edge6" class="edge">
<title>Thing&#45;&gt;Form</title>
<path fill="none" stroke="#000000" d="M603.5685,-718.6832C507.3278,-703.454 373.9827,-673.6371 269,-617 249.8975,-606.6944 244.5772,-602.3597 233,-584 172.2749,-487.6993 163.6136,-353.4764 165.6661,-266.2888"/>
<polygon fill="#000000" stroke="#000000" points="169.1684,-266.2556 165.9577,-256.159 162.1713,-266.0541 169.1684,-266.2556"/>
<text text-anchor="start" x="182" y="-441.8" font-family="mono" font-size="14.00" fill="#c83500">forms</text>
<text text-anchor="middle" x="154.4577" y="-259.959" font-family="Times,serif" font-size="14.00" fill="#000000">0..*</text>
</g>
<!-- Property -->
<g id="node6" class="node">
<title>Property</title>
<polygon fill="#8ccbf2" stroke="transparent" points="272,-527.5 272,-548.5 463,-548.5 463,-527.5 272,-527.5"/>
<polygon fill="none" stroke="#8ccbf2" points="272,-527.5 272,-548.5 463,-548.5 463,-527.5 272,-527.5"/>
<text text-anchor="start" x="337" y="-535.3" font-family="mono" font-weight="bold" font-size="14.00" fill="#c83500">Property</text>
<polygon fill="#ddeeff" stroke="transparent" points="272,-506.5 272,-527.5 463,-527.5 463,-506.5 272,-506.5"/>
<polygon fill="none" stroke="#8ccbf2" points="272,-506.5 272,-527.5 463,-527.5 463,-506.5 272,-506.5"/>
<text text-anchor="start" x="275" y="-514.3" font-family="mono" font-size="14.00" fill="#c83500">observable</text>
<text text-anchor="start" x="350" y="-514.3" font-family="Times,serif" font-size="14.00" fill="#000000"> : </text>
<text text-anchor="start" x="362" y="-514.3" font-family="mono" font-size="14.00" fill="#c83500">boolean</text>
<text text-anchor="start" x="418" y="-514.3" font-family="Times,serif" font-size="14.00" fill="#000000"> = false</text>
</g>
<!-- Thing&#45;&gt;Property -->
<g id="edge13" class="edge">
<title>Thing&#45;&gt;Property</title>
<path fill="none" stroke="#000000" d="M603.8044,-661.8849C540.9228,-626.2 468.2491,-584.9582 420.1715,-557.6745"/>
<polygon fill="#000000" stroke="#000000" points="421.6162,-554.47 411.1915,-552.5784 418.1612,-560.558 421.6162,-554.47"/>
<text text-anchor="start" x="516" y="-605.8" font-family="mono" font-size="14.00" fill="#c83500">properties</text>
<text text-anchor="middle" x="399.6915" y="-556.3784" font-family="Times,serif" font-size="14.00" fill="#000000">0..1</text>
</g>
<!-- Action -->
<g id="node8" class="node">
<title>Action</title>
<polygon fill="#8ccbf2" stroke="transparent" points="497,-537.5 497,-558.5 771,-558.5 771,-537.5 497,-537.5"/>
<polygon fill="none" stroke="#8ccbf2" points="497,-537.5 497,-558.5 771,-558.5 771,-537.5 497,-537.5"/>
<text text-anchor="start" x="611" y="-545.3" font-family="mono" font-weight="bold" font-size="14.00" fill="#c83500">Action</text>
<polygon fill="#ddeeff" stroke="transparent" points="497,-516.5 497,-537.5 771,-537.5 771,-516.5 497,-516.5"/>
<polygon fill="none" stroke="#8ccbf2" points="497,-516.5 497,-537.5 771,-537.5 771,-516.5 497,-516.5"/>
<text text-anchor="start" x="500" y="-524.3" font-family="mono" font-size="14.00" fill="#c83500">idempotent</text>
<text text-anchor="start" x="581" y="-524.3" font-family="Times,serif" font-size="14.00" fill="#000000"> : </text>
<text text-anchor="start" x="593" y="-524.3" font-family="mono" font-size="14.00" fill="#c83500">boolean</text>
<text text-anchor="start" x="649" y="-524.3" font-family="Times,serif" font-size="14.00" fill="#000000"> = false </text>
<text text-anchor="start" x="695" y="-524.3" font-family="Times,serif" font-style="italic" font-size="14.00" fill="#000000">(mandatory)</text>
<polygon fill="#ddeeff" stroke="transparent" points="497,-495.5 497,-516.5 771,-516.5 771,-495.5 497,-495.5"/>
<polygon fill="none" stroke="#8ccbf2" points="497,-495.5 497,-516.5 771,-516.5 771,-495.5 497,-495.5"/>
<text text-anchor="start" x="500" y="-503.3" font-family="mono" font-size="14.00" fill="#c83500">safe</text>
<text text-anchor="start" x="528" y="-503.3" font-family="Times,serif" font-size="14.00" fill="#000000"> : </text>
<text text-anchor="start" x="540" y="-503.3" font-family="mono" font-size="14.00" fill="#c83500">boolean</text>
<text text-anchor="start" x="596" y="-503.3" font-family="Times,serif" font-size="14.00" fill="#000000"> = false </text>
<text text-anchor="start" x="642" y="-503.3" font-family="Times,serif" font-style="italic" font-size="14.00" fill="#000000">(mandatory)</text>
</g>
<!-- Thing&#45;&gt;Action -->
<g id="edge8" class="edge">
<title>Thing&#45;&gt;Action</title>
<path fill="none" stroke="#000000" d="M683.9683,-634.7236C673.8058,-612.9165 663.5254,-590.8566 654.9535,-572.4626"/>
<polygon fill="#000000" stroke="#000000" points="658.0328,-570.7843 650.6363,-563.1987 651.6879,-573.7412 658.0328,-570.7843"/>
<text text-anchor="start" x="674" y="-605.8" font-family="mono" font-size="14.00" fill="#c83500">actions</text>
<text text-anchor="middle" x="639.1363" y="-566.9987" font-family="Times,serif" font-size="14.00" fill="#000000">0..1</text>
</g>
<!-- Event -->
<g id="node9" class="node">
<title>Event</title>
<polygon fill="#8ccbf2" stroke="transparent" points="806,-516.5 806,-537.5 851,-537.5 851,-516.5 806,-516.5"/>
<polygon fill="none" stroke="#8ccbf2" points="806,-516.5 806,-537.5 851,-537.5 851,-516.5 806,-516.5"/>
<text text-anchor="start" x="809" y="-524.3" font-family="mono" font-weight="bold" font-size="14.00" fill="#c83500">Event</text>
</g>
<!-- Thing&#45;&gt;Event -->
<g id="edge9" class="edge">
<title>Thing&#45;&gt;Event</title>
<path fill="none" stroke="#000000" d="M776.9907,-634.7236C790.9851,-605.3068 805.1984,-575.4299 815.0544,-554.7122"/>
<polygon fill="#000000" stroke="#000000" points="818.2556,-556.1302 819.3911,-545.5964 811.9345,-553.123 818.2556,-556.1302"/>
<text text-anchor="start" x="791" y="-605.8" font-family="mono" font-size="14.00" fill="#c83500">events</text>
<text text-anchor="middle" x="807.8911" y="-549.3964" font-family="Times,serif" font-size="14.00" fill="#000000">0..1</text>
</g>
<!-- Versioning -->
<g id="node10" class="node">
<title>Versioning</title>
<polygon fill="#8ccbf2" stroke="transparent" points="1090,-527.5 1090,-548.5 1282,-548.5 1282,-527.5 1090,-527.5"/>
<polygon fill="none" stroke="#8ccbf2" points="1090,-527.5 1090,-548.5 1282,-548.5 1282,-527.5 1090,-527.5"/>
<text text-anchor="start" x="1148.5" y="-535.3" font-family="mono" font-weight="bold" font-size="14.00" fill="#c83500">Versioning</text>
<polygon fill="#ddeeff" stroke="transparent" points="1090,-506.5 1090,-527.5 1282,-527.5 1282,-506.5 1090,-506.5"/>
<polygon fill="none" stroke="#8ccbf2" points="1090,-506.5 1090,-527.5 1282,-527.5 1282,-506.5 1090,-506.5"/>
<text text-anchor="start" x="1093" y="-514.3" font-family="mono" font-size="14.00" fill="#c83500">instance</text>
<text text-anchor="start" x="1150" y="-514.3" font-family="Times,serif" font-size="14.00" fill="#000000"> : </text>
<text text-anchor="start" x="1162" y="-514.3" font-family="mono" font-size="14.00" fill="#c83500">string</text>
<text text-anchor="start" x="1202" y="-514.3" font-family="Times,serif" font-size="14.00" fill="#000000"> </text>
<text text-anchor="start" x="1206" y="-514.3" font-family="Times,serif" font-style="italic" font-size="14.00" fill="#000000">(mandatory)</text>
</g>
<!-- Thing&#45;&gt;Versioning -->
<g id="edge10" class="edge">
<title>Thing&#45;&gt;Versioning</title>
<path fill="none" stroke="#000000" d="M856.125,-680.0835C920.9721,-652.1862 1001.0779,-617.053 1072,-584 1090.1578,-575.5376 1109.7576,-565.9802 1127.4988,-557.1656"/>
<polygon fill="#000000" stroke="#000000" points="1129.2015,-560.2276 1136.5895,-552.6336 1126.0784,-553.963 1129.2015,-560.2276"/>
<text text-anchor="start" x="1026" y="-605.8" font-family="mono" font-size="14.00" fill="#c83500">version</text>
<text text-anchor="middle" x="1125.0895" y="-556.4336" font-family="Times,serif" font-size="14.00" fill="#000000">0..1</text>
</g>
<!-- SecurityScheme -->
<g id="node12" class="node">
<title>SecurityScheme</title>
<polygon fill="#f2f2f2" stroke="transparent" points="1317,-516.5 1317,-537.5 1434,-537.5 1434,-516.5 1317,-516.5"/>
<polygon fill="none" stroke="#8c8c8c" points="1317,-516.5 1317,-537.5 1434,-537.5 1434,-516.5 1317,-516.5"/>
<text text-anchor="start" x="1320" y="-524.3" font-family="mono" font-weight="bold" font-size="14.00" fill="#000000">SecurityScheme</text>
</g>
<!-- Thing&#45;&gt;SecurityScheme -->
<g id="edge11" class="edge">
<title>Thing&#45;&gt;SecurityScheme</title>
<path fill="none" stroke="#000000" d="M856.0467,-714.6384C974.6536,-693.6413 1155.0514,-653.1991 1299,-584 1316.1795,-575.7415 1333.3861,-563.375 1347.0718,-552.3152"/>
<polygon fill="#000000" stroke="#000000" points="1349.6471,-554.7263 1355.1063,-545.6462 1345.1762,-549.34 1349.6471,-554.7263"/>
<text text-anchor="start" x="1256" y="-605.8" font-family="mono" font-size="14.00" fill="#c83500">securityDefinitions</text>
<text text-anchor="middle" x="1343.6063" y="-549.4462" font-family="Times,serif" font-size="14.00" fill="#000000">0..1</text>
</g>
<!-- Property&#45;&gt;InteractionPattern -->
<g id="edge21" class="edge">
<title>Property&#45;&gt;InteractionPattern</title>
<path fill="none" stroke="#000000" d="M377.7841,-502.2344C386.084,-482.7889 397.9476,-454.9942 408.8791,-429.3833"/>
<polygon fill="#ffffff" stroke="#000000" points="412.1493,-430.6372 412.856,-420.066 405.7112,-427.8892 412.1493,-430.6372"/>
</g>
<!-- Action&#45;&gt;InteractionPattern -->
<g id="edge19" class="edge">
<title>Action&#45;&gt;InteractionPattern</title>
<path fill="none" stroke="#000000" d="M591.2539,-491.9144C568.3889,-472.8796 539.5473,-448.8693 513.0073,-426.7751"/>
<polygon fill="#ffffff" stroke="#000000" points="515.1478,-424.003 505.223,-420.2948 510.6692,-429.3828 515.1478,-424.003"/>
</g>
<!-- Action&#45;&gt;DataSchema -->
<g id="edge14" class="edge">
<title>Action&#45;&gt;DataSchema</title>
<path fill="none" stroke="#000000" d="M618.8186,-491.6989C602.2119,-447.1836 580.7314,-369.4462 603,-307 617.9083,-265.1938 652.9007,-227.1671 678.4044,-203.5118"/>
<polygon fill="#000000" stroke="#000000" points="680.9231,-205.9527 685.982,-196.6437 676.2221,-200.7661 680.9231,-205.9527"/>
<text text-anchor="start" x="603" y="-359.8" font-family="mono" font-size="14.00" fill="#c83500">output</text>
<text text-anchor="middle" x="674.482" y="-200.4437" font-family="Times,serif" font-size="14.00" fill="#000000">0..1</text>
</g>
<!-- Action&#45;&gt;DataSchema -->
<g id="edge15" class="edge">
<title>Action&#45;&gt;DataSchema</title>
<path fill="none" stroke="#000000" d="M641.5715,-491.791C656.3359,-422.1589 688.6937,-269.5527 702.0512,-206.5557"/>
<polygon fill="#000000" stroke="#000000" points="705.5212,-207.0639 704.1716,-196.5554 698.6734,-205.6119 705.5212,-207.0639"/>
<text text-anchor="start" x="680" y="-359.8" font-family="mono" font-size="14.00" fill="#c83500">input</text>
<text text-anchor="middle" x="715.6716" y="-200.3554" font-family="Times,serif" font-size="14.00" fill="#000000">0..1</text>
</g>
<!-- Event&#45;&gt;InteractionPattern -->
<g id="edge20" class="edge">
<title>Event&#45;&gt;InteractionPattern</title>
<path fill="none" stroke="#000000" d="M819.5566,-509.2532C812.7788,-496.6201 802.0738,-480.4389 788,-471 767.0704,-456.963 590.9343,-427.8889 567,-420 556.2443,-416.4549 545.1546,-412.3585 534.1986,-408.0236"/>
<polygon fill="#ffffff" stroke="#000000" points="535.2001,-404.6537 524.6168,-404.1607 532.5827,-411.146 535.2001,-404.6537"/>
</g>
<!-- Event&#45;&gt;DataSchema -->
<g id="edge16" class="edge">
<title>Event&#45;&gt;DataSchema</title>
<path fill="none" stroke="#000000" d="M815.073,-509.1579C797.2671,-483.6037 766.5347,-438.3626 759,-420 728.8805,-346.5964 715.651,-253.0414 710.6355,-206.8831"/>
<polygon fill="#000000" stroke="#000000" points="714.0956,-206.3163 709.5832,-196.7304 707.1329,-207.038 714.0956,-206.3163"/>
<text text-anchor="start" x="759" y="-359.8" font-family="mono" font-size="14.00" fill="#c83500">subscription</text>
<text text-anchor="middle" x="698.0832" y="-200.5304" font-family="Times,serif" font-size="14.00" fill="#000000">0..1</text>
</g>
<!-- Event&#45;&gt;DataSchema -->
<g id="edge17" class="edge">
<title>Event&#45;&gt;DataSchema</title>
<path fill="none" stroke="#000000" d="M834.571,-509.426C847.5919,-470.5439 872.9365,-376.8252 843,-307 823.5706,-261.6821 779.4389,-224.785 746.897,-202.3407"/>
<polygon fill="#000000" stroke="#000000" points="748.727,-199.3536 738.4765,-196.6743 744.8189,-205.1611 748.727,-199.3536"/>
<text text-anchor="start" x="858" y="-359.8" font-family="mono" font-size="14.00" fill="#c83500">data</text>
<text text-anchor="middle" x="749.9765" y="-200.4743" font-family="Times,serif" font-size="14.00" fill="#000000">0..1</text>
</g>
<!-- Event&#45;&gt;DataSchema -->
<g id="edge18" class="edge">
<title>Event&#45;&gt;DataSchema</title>
<path fill="none" stroke="#000000" d="M840.4874,-509.2611C857.6077,-483.8327 886.843,-438.7432 892,-420 905.323,-371.5772 915.2175,-351.5333 892,-307 865.4856,-256.143 808.6283,-221.2864 765.0884,-200.8442"/>
<polygon fill="#000000" stroke="#000000" points="766.2871,-197.5441 755.7365,-196.5766 763.3809,-203.9123 766.2871,-197.5441"/>
<text text-anchor="start" x="906" y="-359.8" font-family="mono" font-size="14.00" fill="#c83500">cancellation</text>
<text text-anchor="middle" x="767.2365" y="-200.3766" font-family="Times,serif" font-size="14.00" fill="#000000">0..1</text>
</g>
</g>
</svg>
