<?xml version="1.0" encoding="UTF-8" standalone="no"?>
<!DOCTYPE svg PUBLIC "-//W3C//DTD SVG 1.1//EN"
 "http://www.w3.org/Graphics/SVG/1.1/DTD/svg11.dtd">
<!-- Generated by graphviz version 2.38.0 (20140413.2041)
 -->
<!-- Title: %3 Pages: 1 -->
<svg width="1426pt" height="798pt"
 viewBox="0.00 0.00 1425.50 798.00" xmlns="http://www.w3.org/2000/svg" xmlns:xlink="http://www.w3.org/1999/xlink">
<g id="graph0" class="graph" transform="scale(1 1) rotate(0) translate(4 794)">
<title>%3</title>
<polygon fill="white" stroke="none" points="-4,4 -4,-794 1421.5,-794 1421.5,4 -4,4"/>
<!-- MultiLanguage -->
<g id="node1" class="node"><title>MultiLanguage</title>
<polygon fill="#8ccbf2" stroke="none" points="273.5,-167.5 273.5,-188.5 387.5,-188.5 387.5,-167.5 273.5,-167.5"/>
<polygon fill="none" stroke="#8ccbf2" points="273.5,-167.5 273.5,-188.5 387.5,-188.5 387.5,-167.5 273.5,-167.5"/>
<text text-anchor="start" x="276.5" y="-175.3" font-family="mono" font-weight="bold" font-size="14.00" fill="#c83500">MultiLanguage</text>
</g>
<!-- InteractionPattern -->
<g id="node2" class="node"><title>InteractionPattern</title>
<polygon fill="#8ccbf2" stroke="none" points="280.5,-352.5 280.5,-373.5 439.5,-373.5 439.5,-352.5 280.5,-352.5"/>
<polygon fill="none" stroke="#8ccbf2" points="280.5,-352.5 280.5,-373.5 439.5,-373.5 439.5,-352.5 280.5,-352.5"/>
<text text-anchor="start" x="285.5" y="-360.3" font-family="mono" font-weight="bold" font-size="14.00" fill="#c83500">InteractionPattern</text>
<polygon fill="#ddeeff" stroke="none" points="280.5,-331.5 280.5,-352.5 439.5,-352.5 439.5,-331.5 280.5,-331.5"/>
<polygon fill="none" stroke="#8ccbf2" points="280.5,-331.5 280.5,-352.5 439.5,-352.5 439.5,-331.5 280.5,-331.5"/>
<text text-anchor="start" x="283.5" y="-339.3" font-family="mono" font-size="14.00" fill="#c83500">description</text>
<text text-anchor="start" x="374.5" y="-339.3" font-family="Times,serif" font-size="14.00"> : </text>
<text text-anchor="start" x="386.5" y="-339.3" font-family="mono" font-size="14.00" fill="#c83500">string</text>
<polygon fill="#ddeeff" stroke="none" points="280.5,-310.5 280.5,-331.5 439.5,-331.5 439.5,-310.5 280.5,-310.5"/>
<polygon fill="none" stroke="#8ccbf2" points="280.5,-310.5 280.5,-331.5 439.5,-331.5 439.5,-310.5 280.5,-310.5"/>
<text text-anchor="start" x="283.5" y="-318.3" font-family="mono" font-size="14.00" fill="#c83500">title</text>
<text text-anchor="start" x="325.5" y="-318.3" font-family="Times,serif" font-size="14.00"> : </text>
<text text-anchor="start" x="337.5" y="-318.3" font-family="mono" font-size="14.00" fill="#c83500">string</text>
</g>
<!-- InteractionPattern&#45;&gt;MultiLanguage -->
<g id="edge1" class="edge"><title>InteractionPattern&#45;&gt;MultiLanguage</title>
<path fill="none" stroke="black" d="M300.81,-306.954C295.5,-301.602 290.866,-295.619 287.5,-289 273.3,-261.072 291.558,-227.296 308.474,-204.709"/>
<polygon fill="black" stroke="black" points="311.392,-206.66 314.821,-196.635 305.889,-202.334 311.392,-206.66"/>
<text text-anchor="start" x="287.5" y="-277.8" font-family="mono" font-size="14.00" fill="#c83500">titles</text>
<text text-anchor="middle" x="303.821" y="-200.435" font-family="Times,serif" font-size="14.00">0..1</text>
</g>
<!-- InteractionPattern&#45;&gt;MultiLanguage -->
<g id="edge3" class="edge"><title>InteractionPattern&#45;&gt;MultiLanguage</title>
<path fill="none" stroke="black" d="M353.279,-306.747C347.931,-276.871 340.323,-234.373 335.399,-206.865"/>
<polygon fill="black" stroke="black" points="338.798,-205.994 333.591,-196.767 331.908,-207.228 338.798,-205.994"/>
<text text-anchor="start" x="349.5" y="-277.8" font-family="mono" font-size="14.00" fill="#c83500">descriptions</text>
<text text-anchor="middle" x="344.591" y="-200.567" font-family="Times,serif" font-size="14.00">0..1</text>
</g>
<!-- Form -->
<g id="node4" class="node"><title>Form</title>
<polygon fill="#8ccbf2" stroke="none" points="8.5,-230.5 8.5,-251.5 239.5,-251.5 239.5,-230.5 8.5,-230.5"/>
<polygon fill="none" stroke="#8ccbf2" points="8.5,-230.5 8.5,-251.5 239.5,-251.5 239.5,-230.5 8.5,-230.5"/>
<text text-anchor="start" x="107" y="-238.3" font-family="mono" font-weight="bold" font-size="14.00" fill="#c83500">Form</text>
<polygon fill="#ddeeff" stroke="none" points="8.5,-209.5 8.5,-230.5 239.5,-230.5 239.5,-209.5 8.5,-209.5"/>
<polygon fill="none" stroke="#8ccbf2" points="8.5,-209.5 8.5,-230.5 239.5,-230.5 239.5,-209.5 8.5,-209.5"/>
<text text-anchor="start" x="11.5" y="-217.3" font-family="mono" font-size="14.00" fill="#c83500">security</text>
<text text-anchor="start" x="78.5" y="-217.3" font-family="Times,serif" font-size="14.00"> : array of </text>
<text text-anchor="start" x="136.5" y="-217.3" font-family="mono" font-size="14.00" fill="#c83500">string</text>
<polygon fill="#ddeeff" stroke="none" points="8.5,-188.5 8.5,-209.5 239.5,-209.5 239.5,-188.5 8.5,-188.5"/>
<polygon fill="none" stroke="#8ccbf2" points="8.5,-188.5 8.5,-209.5 239.5,-209.5 239.5,-188.5 8.5,-188.5"/>
<text text-anchor="start" x="11.5" y="-196.3" font-family="mono" font-size="14.00" fill="#c83500">contentType</text>
<text text-anchor="start" x="102.5" y="-196.3" font-family="Times,serif" font-size="14.00"> : </text>
<text text-anchor="start" x="114.5" y="-196.3" font-family="mono" font-size="14.00" fill="#c83500">string</text>
<text text-anchor="start" x="164.5" y="-196.3" font-family="Times,serif" font-size="14.00"> </text>
<text text-anchor="start" x="168.5" y="-196.3" font-family="Times,serif" font-style="italic" font-size="14.00">(mandatory)</text>
<polygon fill="#ddeeff" stroke="none" points="8.5,-167.5 8.5,-188.5 239.5,-188.5 239.5,-167.5 8.5,-167.5"/>
<polygon fill="none" stroke="#8ccbf2" points="8.5,-167.5 8.5,-188.5 239.5,-188.5 239.5,-167.5 8.5,-167.5"/>
<text text-anchor="start" x="11.5" y="-175.3" font-family="mono" font-size="14.00" fill="#c83500">scopes</text>
<text text-anchor="start" x="61.5" y="-175.3" font-family="Times,serif" font-size="14.00"> : array of </text>
<text text-anchor="start" x="119.5" y="-175.3" font-family="mono" font-size="14.00" fill="#c83500">string</text>
<polygon fill="#ddeeff" stroke="none" points="8.5,-146.5 8.5,-167.5 239.5,-167.5 239.5,-146.5 8.5,-146.5"/>
<polygon fill="none" stroke="#8ccbf2" points="8.5,-146.5 8.5,-167.5 239.5,-167.5 239.5,-146.5 8.5,-146.5"/>
<text text-anchor="start" x="11.5" y="-154.3" font-family="mono" font-size="14.00" fill="#c83500">op</text>
<text text-anchor="start" x="28.5" y="-154.3" font-family="Times,serif" font-size="14.00"> : </text>
<text text-anchor="start" x="40.5" y="-154.3" font-family="mono" font-size="14.00" fill="#c83500">string</text>
<polygon fill="#ddeeff" stroke="none" points="8.5,-125.5 8.5,-146.5 239.5,-146.5 239.5,-125.5 8.5,-125.5"/>
<polygon fill="none" stroke="#8ccbf2" points="8.5,-125.5 8.5,-146.5 239.5,-146.5 239.5,-125.5 8.5,-125.5"/>
<text text-anchor="start" x="11.5" y="-133.3" font-family="mono" font-size="14.00" fill="#c83500">subprotocol</text>
<text text-anchor="start" x="102.5" y="-133.3" font-family="Times,serif" font-size="14.00"> : </text>
<text text-anchor="start" x="114.5" y="-133.3" font-family="mono" font-size="14.00" fill="#c83500">string</text>
<polygon fill="#ddeeff" stroke="none" points="8.5,-104.5 8.5,-125.5 239.5,-125.5 239.5,-104.5 8.5,-104.5"/>
<polygon fill="none" stroke="#8ccbf2" points="8.5,-104.5 8.5,-125.5 239.5,-125.5 239.5,-104.5 8.5,-104.5"/>
<text text-anchor="start" x="11.5" y="-112.3" font-family="mono" font-size="14.00" fill="#c83500">href</text>
<text text-anchor="start" x="45.5" y="-112.3" font-family="Times,serif" font-size="14.00"> : </text>
<text text-anchor="start" x="57.5" y="-112.3" font-family="mono" font-size="14.00" fill="#c83500">anyURI</text>
<text text-anchor="start" x="107.5" y="-112.3" font-family="Times,serif" font-size="14.00"> </text>
<text text-anchor="start" x="111.5" y="-112.3" font-family="Times,serif" font-style="italic" font-size="14.00">(mandatory)</text>
</g>
<!-- InteractionPattern&#45;&gt;Form -->
<g id="edge2" class="edge"><title>InteractionPattern&#45;&gt;Form</title>
<path fill="none" stroke="black" d="M271.839,-308.353C259.938,-302.551 248.164,-296.075 237.5,-289 225.795,-281.233 214.213,-272.195 203.173,-262.704"/>
<polygon fill="black" stroke="black" points="205.444,-260.04 195.622,-256.07 200.825,-265.3 205.444,-260.04"/>
<text text-anchor="start" x="237.5" y="-277.8" font-family="mono" font-size="14.00" fill="#c83500">forms</text>
<text text-anchor="middle" x="184.622" y="-259.87" font-family="Times,serif" font-size="14.00">1..*</text>
</g>
<!-- DataSchema -->
<g id="node11" class="node"><title>DataSchema</title>
<polygon fill="#f2f2f2" stroke="none" points="678.5,-167.5 678.5,-188.5 767.5,-188.5 767.5,-167.5 678.5,-167.5"/>
<polygon fill="none" stroke="#8c8c8c" points="678.5,-167.5 678.5,-188.5 767.5,-188.5 767.5,-167.5 678.5,-167.5"/>
<text text-anchor="start" x="681.5" y="-175.3" font-family="mono" font-weight="bold" font-size="14.00">DataSchema</text>
</g>
<!-- InteractionPattern&#45;&gt;DataSchema -->
<g id="edge4" class="edge"><title>InteractionPattern&#45;&gt;DataSchema</title>
<path fill="none" stroke="black" d="M421.263,-306.975C445.778,-293.462 471.067,-279.816 483.5,-274 544.124,-245.643 615.758,-218.073 664.687,-200.103"/>
<polygon fill="black" stroke="black" points="665.97,-203.361 674.16,-196.64 663.566,-196.786 665.97,-203.361"/>
<text text-anchor="start" x="483.5" y="-277.8" font-family="mono" font-size="14.00" fill="#c83500">uriVariables</text>
<text text-anchor="middle" x="663.16" y="-200.44" font-family="Times,serif" font-size="14.00">0..1</text>
</g>
<!-- Link -->
<g id="node3" class="node"><title>Link</title>
<polygon fill="#8ccbf2" stroke="none" points="837.5,-516.5 837.5,-537.5 1011.5,-537.5 1011.5,-516.5 837.5,-516.5"/>
<polygon fill="none" stroke="#8ccbf2" points="837.5,-516.5 837.5,-537.5 1011.5,-537.5 1011.5,-516.5 837.5,-516.5"/>
<text text-anchor="start" x="907.5" y="-524.3" font-family="mono" font-weight="bold" font-size="14.00" fill="#c83500">Link</text>
<polygon fill="#ddeeff" stroke="none" points="837.5,-495.5 837.5,-516.5 1011.5,-516.5 1011.5,-495.5 837.5,-495.5"/>
<polygon fill="none" stroke="#8ccbf2" points="837.5,-495.5 837.5,-516.5 1011.5,-516.5 1011.5,-495.5 837.5,-495.5"/>
<text text-anchor="start" x="840.5" y="-503.3" font-family="mono" font-size="14.00" fill="#c83500">type</text>
<text text-anchor="start" x="874.5" y="-503.3" font-family="Times,serif" font-size="14.00"> : </text>
<text text-anchor="start" x="886.5" y="-503.3" font-family="mono" font-size="14.00" fill="#c83500">string</text>
<polygon fill="#ddeeff" stroke="none" points="837.5,-474.5 837.5,-495.5 1011.5,-495.5 1011.5,-474.5 837.5,-474.5"/>
<polygon fill="none" stroke="#8ccbf2" points="837.5,-474.5 837.5,-495.5 1011.5,-495.5 1011.5,-474.5 837.5,-474.5"/>
<text text-anchor="start" x="840.5" y="-482.3" font-family="mono" font-size="14.00" fill="#c83500">rel</text>
<text text-anchor="start" x="865.5" y="-482.3" font-family="Times,serif" font-size="14.00"> : </text>
<text text-anchor="start" x="877.5" y="-482.3" font-family="mono" font-size="14.00" fill="#c83500">string</text>
<polygon fill="#ddeeff" stroke="none" points="837.5,-453.5 837.5,-474.5 1011.5,-474.5 1011.5,-453.5 837.5,-453.5"/>
<polygon fill="none" stroke="#8ccbf2" points="837.5,-453.5 837.5,-474.5 1011.5,-474.5 1011.5,-453.5 837.5,-453.5"/>
<text text-anchor="start" x="840.5" y="-461.3" font-family="mono" font-size="14.00" fill="#c83500">href</text>
<text text-anchor="start" x="874.5" y="-461.3" font-family="Times,serif" font-size="14.00"> : </text>
<text text-anchor="start" x="886.5" y="-461.3" font-family="mono" font-size="14.00" fill="#c83500">anyURI</text>
<text text-anchor="start" x="936.5" y="-461.3" font-family="Times,serif" font-size="14.00"> </text>
<text text-anchor="start" x="940.5" y="-461.3" font-family="Times,serif" font-style="italic" font-size="14.00">(mandatory)</text>
<polygon fill="#ddeeff" stroke="none" points="837.5,-432.5 837.5,-453.5 1011.5,-453.5 1011.5,-432.5 837.5,-432.5"/>
<polygon fill="none" stroke="#8ccbf2" points="837.5,-432.5 837.5,-453.5 1011.5,-453.5 1011.5,-432.5 837.5,-432.5"/>
<text text-anchor="start" x="840.5" y="-440.3" font-family="mono" font-size="14.00" fill="#c83500">anchor</text>
<text text-anchor="start" x="890.5" y="-440.3" font-family="Times,serif" font-size="14.00"> : </text>
<text text-anchor="start" x="902.5" y="-440.3" font-family="mono" font-size="14.00" fill="#c83500">anyURI</text>
</g>
<!-- ExpectedResponse -->
<g id="node7" class="node"><title>ExpectedResponse</title>
<polygon fill="#8ccbf2" stroke="none" points="44.5,-25 44.5,-46 203.5,-46 203.5,-25 44.5,-25"/>
<polygon fill="none" stroke="#8ccbf2" points="44.5,-25 44.5,-46 203.5,-46 203.5,-25 44.5,-25"/>
<text text-anchor="start" x="57.5" y="-32.8" font-family="mono" font-weight="bold" font-size="14.00" fill="#c83500">ExpectedResponse</text>
<polygon fill="#ddeeff" stroke="none" points="44.5,-4 44.5,-25 203.5,-25 203.5,-4 44.5,-4"/>
<polygon fill="none" stroke="#8ccbf2" points="44.5,-4 44.5,-25 203.5,-25 203.5,-4 44.5,-4"/>
<text text-anchor="start" x="47.5" y="-11.8" font-family="mono" font-size="14.00" fill="#c83500">contentType</text>
<text text-anchor="start" x="138.5" y="-11.8" font-family="Times,serif" font-size="14.00"> : </text>
<text text-anchor="start" x="150.5" y="-11.8" font-family="mono" font-size="14.00" fill="#c83500">string</text>
</g>
<!-- Form&#45;&gt;ExpectedResponse -->
<g id="edge5" class="edge"><title>Form&#45;&gt;ExpectedResponse</title>
<path fill="none" stroke="black" d="M123.5,-100.862C123.5,-86.5577 123.5,-72.2953 123.5,-60.116"/>
<polygon fill="black" stroke="black" points="127,-60.0004 123.5,-50.0004 120,-60.0004 127,-60.0004"/>
<text text-anchor="start" x="123.5" y="-71.8" font-family="mono" font-size="14.00" fill="#c83500">response</text>
<text text-anchor="middle" x="112.5" y="-53.8004" font-family="Times,serif" font-size="14.00">0..1</text>
</g>
<!-- Thing -->
<g id="node5" class="node"><title>Thing</title>
<polygon fill="#8ccbf2" stroke="none" points="565.5,-764.5 565.5,-785.5 818.5,-785.5 818.5,-764.5 565.5,-764.5"/>
<polygon fill="none" stroke="#8ccbf2" points="565.5,-764.5 565.5,-785.5 818.5,-785.5 818.5,-764.5 565.5,-764.5"/>
<text text-anchor="start" x="671" y="-772.3" font-family="mono" font-weight="bold" font-size="14.00" fill="#c83500">Thing</text>
<polygon fill="#ddeeff" stroke="none" points="565.5,-743.5 565.5,-764.5 818.5,-764.5 818.5,-743.5 565.5,-743.5"/>
<polygon fill="none" stroke="#8ccbf2" points="565.5,-743.5 565.5,-764.5 818.5,-764.5 818.5,-743.5 565.5,-743.5"/>
<text text-anchor="start" x="568.5" y="-751.3" font-family="mono" font-size="14.00" fill="#c83500">id</text>
<text text-anchor="start" x="585.5" y="-751.3" font-family="Times,serif" font-size="14.00"> : </text>
<text text-anchor="start" x="597.5" y="-751.3" font-family="mono" font-size="14.00" fill="#c83500">anyURI</text>
<text text-anchor="start" x="647.5" y="-751.3" font-family="Times,serif" font-size="14.00"> </text>
<text text-anchor="start" x="651.5" y="-751.3" font-family="Times,serif" font-style="italic" font-size="14.00">(mandatory)</text>
<polygon fill="#ddeeff" stroke="none" points="565.5,-722.5 565.5,-743.5 818.5,-743.5 818.5,-722.5 565.5,-722.5"/>
<polygon fill="none" stroke="#8ccbf2" points="565.5,-722.5 565.5,-743.5 818.5,-743.5 818.5,-722.5 565.5,-722.5"/>
<text text-anchor="start" x="568.5" y="-730.3" font-family="mono" font-size="14.00" fill="#c83500">support</text>
<text text-anchor="start" x="626.5" y="-730.3" font-family="Times,serif" font-size="14.00"> : </text>
<text text-anchor="start" x="638.5" y="-730.3" font-family="mono" font-size="14.00" fill="#c83500">string</text>
<polygon fill="#ddeeff" stroke="none" points="565.5,-701.5 565.5,-722.5 818.5,-722.5 818.5,-701.5 565.5,-701.5"/>
<polygon fill="none" stroke="#8ccbf2" points="565.5,-701.5 565.5,-722.5 818.5,-722.5 818.5,-701.5 565.5,-701.5"/>
<text text-anchor="start" x="568.5" y="-709.3" font-family="mono" font-size="14.00" fill="#c83500">created</text>
<text text-anchor="start" x="626.5" y="-709.3" font-family="Times,serif" font-size="14.00"> : </text>
<text text-anchor="start" x="638.5" y="-709.3" font-family="mono" font-size="14.00" fill="#c83500">string</text>
<polygon fill="#ddeeff" stroke="none" points="565.5,-680.5 565.5,-701.5 818.5,-701.5 818.5,-680.5 565.5,-680.5"/>
<polygon fill="none" stroke="#8ccbf2" points="565.5,-680.5 565.5,-701.5 818.5,-701.5 818.5,-680.5 565.5,-680.5"/>
<text text-anchor="start" x="568.5" y="-688.3" font-family="mono" font-size="14.00" fill="#c83500">description</text>
<text text-anchor="start" x="659.5" y="-688.3" font-family="Times,serif" font-size="14.00"> : </text>
<text text-anchor="start" x="671.5" y="-688.3" font-family="mono" font-size="14.00" fill="#c83500">string</text>
<polygon fill="#ddeeff" stroke="none" points="565.5,-659.5 565.5,-680.5 818.5,-680.5 818.5,-659.5 565.5,-659.5"/>
<polygon fill="none" stroke="#8ccbf2" points="565.5,-659.5 565.5,-680.5 818.5,-680.5 818.5,-659.5 565.5,-659.5"/>
<text text-anchor="start" x="568.5" y="-667.3" font-family="mono" font-size="14.00" fill="#c83500">security</text>
<text text-anchor="start" x="635.5" y="-667.3" font-family="Times,serif" font-size="14.00"> : array of </text>
<text text-anchor="start" x="693.5" y="-667.3" font-family="mono" font-size="14.00" fill="#c83500">string</text>
<text text-anchor="start" x="743.5" y="-667.3" font-family="Times,serif" font-size="14.00"> </text>
<text text-anchor="start" x="747.5" y="-667.3" font-family="Times,serif" font-style="italic" font-size="14.00">(mandatory)</text>
<polygon fill="#ddeeff" stroke="none" points="565.5,-638.5 565.5,-659.5 818.5,-659.5 818.5,-638.5 565.5,-638.5"/>
<polygon fill="none" stroke="#8ccbf2" points="565.5,-638.5 565.5,-659.5 818.5,-659.5 818.5,-638.5 565.5,-638.5"/>
<text text-anchor="start" x="568.5" y="-646.3" font-family="mono" font-size="14.00" fill="#c83500">lastModified</text>
<text text-anchor="start" x="668.5" y="-646.3" font-family="Times,serif" font-size="14.00"> : </text>
<text text-anchor="start" x="680.5" y="-646.3" font-family="mono" font-size="14.00" fill="#c83500">string</text>
<polygon fill="#ddeeff" stroke="none" points="565.5,-617.5 565.5,-638.5 818.5,-638.5 818.5,-617.5 565.5,-617.5"/>
<polygon fill="none" stroke="#8ccbf2" points="565.5,-617.5 565.5,-638.5 818.5,-638.5 818.5,-617.5 565.5,-617.5"/>
<text text-anchor="start" x="568.5" y="-625.3" font-family="mono" font-size="14.00" fill="#c83500">base</text>
<text text-anchor="start" x="602.5" y="-625.3" font-family="Times,serif" font-size="14.00"> : </text>
<text text-anchor="start" x="614.5" y="-625.3" font-family="mono" font-size="14.00" fill="#c83500">anyURI</text>
<polygon fill="#ddeeff" stroke="none" points="565.5,-596.5 565.5,-617.5 818.5,-617.5 818.5,-596.5 565.5,-596.5"/>
<polygon fill="none" stroke="#8ccbf2" points="565.5,-596.5 565.5,-617.5 818.5,-617.5 818.5,-596.5 565.5,-596.5"/>
<text text-anchor="start" x="568.5" y="-604.3" font-family="mono" font-size="14.00" fill="#c83500">name</text>
<text text-anchor="start" x="602.5" y="-604.3" font-family="Times,serif" font-size="14.00"> : </text>
<text text-anchor="start" x="614.5" y="-604.3" font-family="mono" font-size="14.00" fill="#c83500">string</text>
<text text-anchor="start" x="664.5" y="-604.3" font-family="Times,serif" font-size="14.00"> </text>
<text text-anchor="start" x="668.5" y="-604.3" font-family="Times,serif" font-style="italic" font-size="14.00">(mandatory)</text>
</g>
<!-- Thing&#45;&gt;MultiLanguage -->
<g id="edge11" class="edge"><title>Thing&#45;&gt;MultiLanguage</title>
<path fill="none" stroke="black" d="M556.892,-667.543C428.748,-642.621 249.395,-598.677 207.5,-542 190.234,-518.643 207.689,-286.93 216.5,-274 227.251,-258.225 239.895,-266.996 255.5,-256 276.086,-241.494 295.876,-220.933 309.954,-204.779"/>
<polygon fill="black" stroke="black" points="312.942,-206.669 316.769,-196.789 307.616,-202.126 312.942,-206.669"/>
<text text-anchor="start" x="203.5" y="-399.8" font-family="mono" font-size="14.00" fill="#c83500">descriptions</text>
<text text-anchor="middle" x="327.769" y="-200.589" font-family="Times,serif" font-size="14.00">0..1</text>
</g>
<!-- Thing&#45;&gt;Link -->
<g id="edge9" class="edge"><title>Thing&#45;&gt;Link</title>
<path fill="none" stroke="black" d="M802.882,-592.981C819.975,-578.015 837.216,-562.921 853.128,-548.989"/>
<polygon fill="black" stroke="black" points="855.607,-551.47 860.826,-542.249 850.996,-546.203 855.607,-551.47"/>
<text text-anchor="start" x="836.5" y="-563.8" font-family="mono" font-size="14.00" fill="#c83500">links</text>
<text text-anchor="middle" x="849.826" y="-546.049" font-family="Times,serif" font-size="14.00">0..*</text>
</g>
<!-- Thing&#45;&gt;Form -->
<g id="edge13" class="edge"><title>Thing&#45;&gt;Form</title>
<path fill="none" stroke="black" d="M556.949,-680.825C457.824,-668.386 323.296,-639.96 222.5,-575 123.19,-510.998 111.296,-362.317 115.044,-266.592"/>
<polygon fill="black" stroke="black" points="118.552,-266.495 115.513,-256.345 111.56,-266.175 118.552,-266.495"/>
<text text-anchor="start" x="125.5" y="-399.8" font-family="mono" font-size="14.00" fill="#c83500">forms</text>
<text text-anchor="middle" x="104.513" y="-260.145" font-family="Times,serif" font-size="14.00">0..*</text>
</g>
<!-- Property -->
<g id="node6" class="node"><title>Property</title>
<polygon fill="#8ccbf2" stroke="none" points="225.5,-485.5 225.5,-506.5 456.5,-506.5 456.5,-485.5 225.5,-485.5"/>
<polygon fill="none" stroke="#8ccbf2" points="225.5,-485.5 225.5,-506.5 456.5,-506.5 456.5,-485.5 225.5,-485.5"/>
<text text-anchor="start" x="307.5" y="-493.3" font-family="mono" font-weight="bold" font-size="14.00" fill="#c83500">Property</text>
<polygon fill="#ddeeff" stroke="none" points="225.5,-464.5 225.5,-485.5 456.5,-485.5 456.5,-464.5 225.5,-464.5"/>
<polygon fill="none" stroke="#8ccbf2" points="225.5,-464.5 225.5,-485.5 456.5,-485.5 456.5,-464.5 225.5,-464.5"/>
<text text-anchor="start" x="228.5" y="-472.3" font-family="mono" font-size="14.00" fill="#c83500">observable</text>
<text text-anchor="start" x="311.5" y="-472.3" font-family="Times,serif" font-size="14.00"> : </text>
<text text-anchor="start" x="323.5" y="-472.3" font-family="mono" font-size="14.00" fill="#c83500">boolean</text>
<text text-anchor="start" x="381.5" y="-472.3" font-family="Times,serif" font-size="14.00"> </text>
<text text-anchor="start" x="385.5" y="-472.3" font-family="Times,serif" font-style="italic" font-size="14.00">(mandatory)</text>
</g>
<!-- Thing&#45;&gt;Property -->
<g id="edge7" class="edge"><title>Thing&#45;&gt;Property</title>
<path fill="none" stroke="black" d="M556.798,-612.212C498.68,-578.434 434.244,-540.983 390.943,-515.818"/>
<polygon fill="black" stroke="black" points="392.439,-512.639 382.034,-510.64 388.921,-518.691 392.439,-512.639"/>
<text text-anchor="start" x="485.5" y="-563.8" font-family="mono" font-size="14.00" fill="#c83500">properties</text>
<text text-anchor="middle" x="371.034" y="-514.44" font-family="Times,serif" font-size="14.00">0..1</text>
</g>
<!-- Action -->
<g id="node8" class="node"><title>Action</title>
<polygon fill="#8ccbf2" stroke="none" points="490.5,-495.5 490.5,-516.5 721.5,-516.5 721.5,-495.5 490.5,-495.5"/>
<polygon fill="none" stroke="#8ccbf2" points="490.5,-495.5 490.5,-516.5 721.5,-516.5 721.5,-495.5 490.5,-495.5"/>
<text text-anchor="start" x="581" y="-503.3" font-family="mono" font-weight="bold" font-size="14.00" fill="#c83500">Action</text>
<polygon fill="#ddeeff" stroke="none" points="490.5,-474.5 490.5,-495.5 721.5,-495.5 721.5,-474.5 490.5,-474.5"/>
<polygon fill="none" stroke="#8ccbf2" points="490.5,-474.5 490.5,-495.5 721.5,-495.5 721.5,-474.5 490.5,-474.5"/>
<text text-anchor="start" x="493.5" y="-482.3" font-family="mono" font-size="14.00" fill="#c83500">safe</text>
<text text-anchor="start" x="527.5" y="-482.3" font-family="Times,serif" font-size="14.00"> : </text>
<text text-anchor="start" x="539.5" y="-482.3" font-family="mono" font-size="14.00" fill="#c83500">boolean</text>
<text text-anchor="start" x="597.5" y="-482.3" font-family="Times,serif" font-size="14.00"> </text>
<text text-anchor="start" x="601.5" y="-482.3" font-family="Times,serif" font-style="italic" font-size="14.00">(mandatory)</text>
<polygon fill="#ddeeff" stroke="none" points="490.5,-453.5 490.5,-474.5 721.5,-474.5 721.5,-453.5 490.5,-453.5"/>
<polygon fill="none" stroke="#8ccbf2" points="490.5,-453.5 490.5,-474.5 721.5,-474.5 721.5,-453.5 490.5,-453.5"/>
<text text-anchor="start" x="493.5" y="-461.3" font-family="mono" font-size="14.00" fill="#c83500">idempotent</text>
<text text-anchor="start" x="576.5" y="-461.3" font-family="Times,serif" font-size="14.00"> : </text>
<text text-anchor="start" x="588.5" y="-461.3" font-family="mono" font-size="14.00" fill="#c83500">boolean</text>
<text text-anchor="start" x="646.5" y="-461.3" font-family="Times,serif" font-size="14.00"> </text>
<text text-anchor="start" x="650.5" y="-461.3" font-family="Times,serif" font-style="italic" font-size="14.00">(mandatory)</text>
</g>
<!-- Thing&#45;&gt;Action -->
<g id="edge8" class="edge"><title>Thing&#45;&gt;Action</title>
<path fill="none" stroke="black" d="M650.389,-592.981C641.122,-570.998 631.737,-548.737 623.962,-530.293"/>
<polygon fill="black" stroke="black" points="627.161,-528.872 620.051,-521.017 620.711,-531.592 627.161,-528.872"/>
<text text-anchor="start" x="641.5" y="-563.8" font-family="mono" font-size="14.00" fill="#c83500">actions</text>
<text text-anchor="middle" x="609.051" y="-524.817" font-family="Times,serif" font-size="14.00">0..1</text>
</g>
<!-- Event -->
<g id="node9" class="node"><title>Event</title>
<polygon fill="#8ccbf2" stroke="none" points="755.5,-474.5 755.5,-495.5 803.5,-495.5 803.5,-474.5 755.5,-474.5"/>
<polygon fill="none" stroke="#8ccbf2" points="755.5,-474.5 755.5,-495.5 803.5,-495.5 803.5,-474.5 755.5,-474.5"/>
<text text-anchor="start" x="758.5" y="-482.3" font-family="mono" font-weight="bold" font-size="14.00" fill="#c83500">Event</text>
</g>
<!-- Thing&#45;&gt;Event -->
<g id="edge12" class="edge"><title>Thing&#45;&gt;Event</title>
<path fill="none" stroke="black" d="M733.567,-592.981C746.251,-563.578 759.149,-533.677 768.035,-513.077"/>
<polygon fill="black" stroke="black" points="771.31,-514.323 772.057,-503.755 764.882,-511.551 771.31,-514.323"/>
<text text-anchor="start" x="746.5" y="-563.8" font-family="mono" font-size="14.00" fill="#c83500">events</text>
<text text-anchor="middle" x="761.057" y="-507.555" font-family="Times,serif" font-size="14.00">0..1</text>
</g>
<!-- Versioning -->
<g id="node10" class="node"><title>Versioning</title>
<polygon fill="#8ccbf2" stroke="none" points="1046.5,-485.5 1046.5,-506.5 1253.5,-506.5 1253.5,-485.5 1046.5,-485.5"/>
<polygon fill="none" stroke="#8ccbf2" points="1046.5,-485.5 1046.5,-506.5 1253.5,-506.5 1253.5,-485.5 1046.5,-485.5"/>
<text text-anchor="start" x="1108.5" y="-493.3" font-family="mono" font-weight="bold" font-size="14.00" fill="#c83500">Versioning</text>
<polygon fill="#ddeeff" stroke="none" points="1046.5,-464.5 1046.5,-485.5 1253.5,-485.5 1253.5,-464.5 1046.5,-464.5"/>
<polygon fill="none" stroke="#8ccbf2" points="1046.5,-464.5 1046.5,-485.5 1253.5,-485.5 1253.5,-464.5 1046.5,-464.5"/>
<text text-anchor="start" x="1049.5" y="-472.3" font-family="mono" font-size="14.00" fill="#c83500">instance</text>
<text text-anchor="start" x="1116.5" y="-472.3" font-family="Times,serif" font-size="14.00"> : </text>
<text text-anchor="start" x="1128.5" y="-472.3" font-family="mono" font-size="14.00" fill="#c83500">string</text>
<text text-anchor="start" x="1178.5" y="-472.3" font-family="Times,serif" font-size="14.00"> </text>
<text text-anchor="start" x="1182.5" y="-472.3" font-family="Times,serif" font-style="italic" font-size="14.00">(mandatory)</text>
</g>
<!-- Thing&#45;&gt;Versioning -->
<g id="edge6" class="edge"><title>Thing&#45;&gt;Versioning</title>
<path fill="none" stroke="black" d="M826.175,-631.706C887.925,-604.607 962.024,-571.89 1028.5,-542 1047.97,-533.244 1069.15,-523.58 1088.26,-514.804"/>
<polygon fill="black" stroke="black" points="1089.84,-517.931 1097.46,-510.575 1086.92,-511.571 1089.84,-517.931"/>
<text text-anchor="start" x="983.5" y="-563.8" font-family="mono" font-size="14.00" fill="#c83500">version</text>
<text text-anchor="middle" x="1086.46" y="-514.375" font-family="Times,serif" font-size="14.00">0..1</text>
</g>
<!-- SecurityScheme -->
<g id="node12" class="node"><title>SecurityScheme</title>
<polygon fill="#f2f2f2" stroke="none" points="1287.5,-474.5 1287.5,-495.5 1409.5,-495.5 1409.5,-474.5 1287.5,-474.5"/>
<polygon fill="none" stroke="#8c8c8c" points="1287.5,-474.5 1287.5,-495.5 1409.5,-495.5 1409.5,-474.5 1287.5,-474.5"/>
<text text-anchor="start" x="1290.5" y="-482.3" font-family="mono" font-weight="bold" font-size="14.00">SecurityScheme</text>
</g>
<!-- Thing&#45;&gt;SecurityScheme -->
<g id="edge10" class="edge"><title>Thing&#45;&gt;SecurityScheme</title>
<path fill="none" stroke="black" d="M826.114,-670.113C946.327,-648.641 1125.19,-608.525 1269.5,-542 1287.7,-533.612 1306.12,-520.956 1320.6,-509.847"/>
<polygon fill="black" stroke="black" points="1322.94,-512.462 1328.64,-503.529 1318.61,-506.959 1322.94,-512.462"/>
<text text-anchor="start" x="1225.5" y="-563.8" font-family="mono" font-size="14.00" fill="#c83500">securityDefinitions</text>
<text text-anchor="middle" x="1317.64" y="-507.329" font-family="Times,serif" font-size="14.00">1..1</text>
</g>
<!-- Property&#45;&gt;InteractionPattern -->
<g id="edge21" class="edge"><title>Property&#45;&gt;InteractionPattern</title>
<path fill="none" stroke="black" d="M343.766,-460.261C346.431,-440.488 350.266,-412.022 353.484,-388.148"/>
<polygon fill="white" stroke="black" points="356.952,-388.614 354.819,-378.236 350.015,-387.679 356.952,-388.614"/>
</g>
<!-- Action&#45;&gt;InteractionPattern -->
<g id="edge20" class="edge"><title>Action&#45;&gt;InteractionPattern</title>
<path fill="none" stroke="black" d="M545.007,-449.827C509.859,-429.681 465.437,-404.22 428.875,-383.264"/>
<polygon fill="white" stroke="black" points="430.176,-379.975 419.76,-378.039 426.695,-386.048 430.176,-379.975"/>
</g>
<!-- Action&#45;&gt;DataSchema -->
<g id="edge14" class="edge"><title>Action&#45;&gt;DataSchema</title>
<path fill="none" stroke="black" d="M600.011,-449.759C595.691,-412.938 593.089,-353.765 611.5,-307 628.258,-264.433 665.761,-226.433 692.534,-203.22"/>
<polygon fill="black" stroke="black" points="695.096,-205.637 700.463,-196.502 690.571,-200.296 695.096,-205.637"/>
<text text-anchor="start" x="611.5" y="-338.8" font-family="mono" font-size="14.00" fill="#c83500">output</text>
<text text-anchor="middle" x="689.463" y="-200.302" font-family="Times,serif" font-size="14.00">0..1</text>
</g>
<!-- Action&#45;&gt;DataSchema -->
<g id="edge15" class="edge"><title>Action&#45;&gt;DataSchema</title>
<path fill="none" stroke="black" d="M625.855,-449.79C637.306,-429.345 651.306,-402.72 661.5,-378 686.06,-318.44 706.055,-245.309 715.891,-206.575"/>
<polygon fill="black" stroke="black" points="719.355,-207.152 718.392,-196.601 712.565,-205.45 719.355,-207.152"/>
<text text-anchor="start" x="686.5" y="-338.8" font-family="mono" font-size="14.00" fill="#c83500">input</text>
<text text-anchor="middle" x="729.392" y="-200.401" font-family="Times,serif" font-size="14.00">0..1</text>
</g>
<!-- Event&#45;&gt;InteractionPattern -->
<g id="edge19" class="edge"><title>Event&#45;&gt;InteractionPattern</title>
<path fill="none" stroke="black" d="M770.814,-467.341C763.585,-454.811 752.124,-438.429 737.5,-429 691.829,-399.551 553.294,-373.224 457.271,-357.805"/>
<polygon fill="white" stroke="black" points="457.668,-354.324 447.242,-356.209 456.568,-361.237 457.668,-354.324"/>
</g>
<!-- Event&#45;&gt;DataSchema -->
<g id="edge16" class="edge"><title>Event&#45;&gt;DataSchema</title>
<path fill="none" stroke="black" d="M776.272,-467.228C766.808,-416.585 739.073,-268.18 727.58,-206.68"/>
<polygon fill="black" stroke="black" points="730.97,-205.769 725.692,-196.583 724.089,-207.055 730.97,-205.769"/>
<text text-anchor="start" x="759.5" y="-338.8" font-family="mono" font-size="14.00" fill="#c83500">subscription</text>
<text text-anchor="middle" x="714.692" y="-200.383" font-family="Times,serif" font-size="14.00">0..1</text>
</g>
<!-- Event&#45;&gt;DataSchema -->
<g id="edge17" class="edge"><title>Event&#45;&gt;DataSchema</title>
<path fill="none" stroke="black" d="M791.782,-467.284C799.785,-456.214 810.552,-441.598 820.5,-429 838.873,-405.731 853.327,-405.848 863.5,-378 874.328,-348.36 876.304,-335.841 863.5,-307 842.909,-260.62 796.187,-223.958 762.153,-202.072"/>
<polygon fill="black" stroke="black" points="763.692,-198.907 753.36,-196.563 759.975,-204.838 763.692,-198.907"/>
<text text-anchor="start" x="872.5" y="-338.8" font-family="mono" font-size="14.00" fill="#c83500">cancellation</text>
<text text-anchor="middle" x="764.36" y="-200.363" font-family="Times,serif" font-size="14.00">0..1</text>
</g>
<!-- Event&#45;&gt;DataSchema -->
<g id="edge18" class="edge"><title>Event&#45;&gt;DataSchema</title>
<path fill="none" stroke="black" d="M788.294,-467.466C795.445,-455.169 806.61,-439.027 820.5,-429 879.644,-386.305 933.678,-437.052 976.5,-378 995.025,-352.454 993.069,-333.856 976.5,-307 934.965,-239.676 845.832,-206.671 785.01,-191.404"/>
<polygon fill="black" stroke="black" points="785.671,-187.963 775.128,-189.016 784.027,-194.767 785.671,-187.963"/>
<text text-anchor="start" x="990.5" y="-338.8" font-family="mono" font-size="14.00" fill="#c83500">data</text>
<text text-anchor="middle" x="786.128" y="-192.816" font-family="Times,serif" font-size="14.00">0..1</text>
</g>
</g>
</svg>
