<?xml version="1.0" encoding="UTF-8" standalone="no"?>
<!DOCTYPE svg PUBLIC "-//W3C//DTD SVG 1.1//EN"
 "http://www.w3.org/Graphics/SVG/1.1/DTD/svg11.dtd">
<!-- Generated by graphviz version 3.0.0 (0)
 -->
<!-- Pages: 1 -->
<svg width="1556pt" height="599pt"
 viewBox="0.00 0.00 1556.20 599.00" xmlns="http://www.w3.org/2000/svg" xmlns:xlink="http://www.w3.org/1999/xlink">
<g id="graph0" class="graph" transform="scale(1 1) rotate(0) translate(4 595)">
<polygon fill="white" stroke="transparent" points="-4,4 -4,-595 1552.2,-595 1552.2,4 -4,4"/>
<!-- ActionAffordance -->
<g id="node1" class="node">
<title>ActionAffordance</title>
<text text-anchor="middle" x="632.2" y="-240.8" font-family="Times,serif" font-size="14.00">ActionAffordance</text>
</g>
<!-- InteractionAffordance -->
<g id="node3" class="node">
<title>InteractionAffordance</title>
<polygon fill="#8ccbf2" stroke="transparent" points="803.2,-132.5 803.2,-153.5 983.2,-153.5 983.2,-132.5 803.2,-132.5"/>
<polygon fill="none" stroke="#8ccbf2" points="803.2,-132.5 803.2,-153.5 983.2,-153.5 983.2,-132.5 803.2,-132.5"/>
<text text-anchor="start" x="806.2" y="-140.3" font-family="mono" font-weight="bold" font-size="14.00" fill="#c83500">InteractionAffordance</text>
<polygon fill="#ddeeff" stroke="transparent" points="803.2,-111.5 803.2,-132.5 983.2,-132.5 983.2,-111.5 803.2,-111.5"/>
<polygon fill="none" stroke="#8ccbf2" points="803.2,-111.5 803.2,-132.5 983.2,-132.5 983.2,-111.5 803.2,-111.5"/>
<text text-anchor="start" x="806.2" y="-119.3" font-family="mono" font-size="14.00" fill="#c83500">title</text>
<text text-anchor="start" x="848.2" y="-119.3" font-family="Times,serif" font-size="14.00"> : </text>
<text text-anchor="start" x="862.2" y="-119.3" font-family="mono" font-size="14.00" fill="#c83500">string</text>
<polygon fill="#ddeeff" stroke="transparent" points="803.2,-90.5 803.2,-111.5 983.2,-111.5 983.2,-90.5 803.2,-90.5"/>
<polygon fill="none" stroke="#8ccbf2" points="803.2,-90.5 803.2,-111.5 983.2,-111.5 983.2,-90.5 803.2,-90.5"/>
<text text-anchor="start" x="806.2" y="-98.3" font-family="mono" font-size="14.00" fill="#c83500">description</text>
<text text-anchor="start" x="897.2" y="-98.3" font-family="Times,serif" font-size="14.00"> : </text>
<text text-anchor="start" x="911.2" y="-98.3" font-family="mono" font-size="14.00" fill="#c83500">string</text>
</g>
<!-- ActionAffordance&#45;&gt;InteractionAffordance -->
<g id="edge22" class="edge">
<title>ActionAffordance&#45;&gt;InteractionAffordance</title>
<path fill="none" stroke="black" d="M670.74,-226.4C693.59,-216.21 723.1,-202.97 749.2,-191 769.22,-181.82 790.75,-171.8 810.9,-162.36"/>
<polygon fill="white" stroke="black" points="812.48,-165.49 820.05,-158.07 809.51,-159.15 812.48,-165.49"/>
</g>
<!-- DataSchema -->
<g id="node10" class="node">
<title>DataSchema</title>
<polygon fill="#f2f2f2" stroke="transparent" points="431.2,-7 431.2,-28 520.2,-28 520.2,-7 431.2,-7"/>
<polygon fill="none" stroke="#8c8c8c" points="431.2,-7 431.2,-28 520.2,-28 520.2,-7 431.2,-7"/>
<text text-anchor="start" x="434.2" y="-14.8" font-family="mono" font-weight="bold" font-size="14.00">DataSchema</text>
</g>
<!-- ActionAffordance&#45;&gt;DataSchema -->
<g id="edge5" class="edge">
<title>ActionAffordance&#45;&gt;DataSchema</title>
<path fill="none" stroke="black" d="M652.9,-226.29C670.08,-210.55 693.24,-185.58 703.2,-158 713.92,-128.32 716.65,-115.54 703.2,-87 693.37,-66.15 684.08,-63.75 663.2,-54 624.02,-35.7 576.04,-26.96 538.36,-22.79"/>
<polygon fill="black" stroke="black" points="538.32,-19.27 528.02,-21.73 537.61,-26.23 538.32,-19.27"/>
<text text-anchor="start" x="713.2" y="-118.8" font-family="mono" font-size="14.00" fill="#c83500">input</text>
<text text-anchor="middle" x="542.02" y="-25.53" font-family="Times,serif" font-size="14.00">0..1</text>
</g>
<!-- ActionAffordance&#45;&gt;DataSchema -->
<g id="edge6" class="edge">
<title>ActionAffordance&#45;&gt;DataSchema</title>
<path fill="none" stroke="black" d="M636.94,-226.45C646.01,-189.71 661.27,-102.47 617.2,-54 606.25,-41.95 570.64,-33.19 537.82,-27.45"/>
<polygon fill="black" stroke="black" points="538.2,-23.96 527.76,-25.76 537.04,-30.87 538.2,-23.96"/>
<text text-anchor="start" x="647.2" y="-118.8" font-family="mono" font-size="14.00" fill="#c83500">output</text>
<text text-anchor="middle" x="541.76" y="-14.56" font-family="Times,serif" font-size="14.00">0..1</text>
</g>
<!-- EventAffordance -->
<g id="node2" class="node">
<title>EventAffordance</title>
<polygon fill="#8ccbf2" stroke="transparent" points="306.2,-233.5 306.2,-254.5 436.2,-254.5 436.2,-233.5 306.2,-233.5"/>
<polygon fill="none" stroke="#8ccbf2" points="306.2,-233.5 306.2,-254.5 436.2,-254.5 436.2,-233.5 306.2,-233.5"/>
<text text-anchor="start" x="309.2" y="-241.3" font-family="mono" font-weight="bold" font-size="14.00" fill="#c83500">EventAffordance</text>
</g>
<!-- EventAffordance&#45;&gt;InteractionAffordance -->
<g id="edge23" class="edge">
<title>EventAffordance&#45;&gt;InteractionAffordance</title>
<path fill="none" stroke="black" d="M444.43,-229.77C498.15,-219.53 572.83,-204.97 638.2,-191 701.99,-177.37 718.21,-174.95 781.2,-158 782.47,-157.66 783.75,-157.31 785.03,-156.96"/>
<polygon fill="white" stroke="black" points="786.28,-160.25 794.98,-154.19 784.41,-153.5 786.28,-160.25"/>
</g>
<!-- EventAffordance&#45;&gt;DataSchema -->
<g id="edge7" class="edge">
<title>EventAffordance&#45;&gt;DataSchema</title>
<path fill="none" stroke="black" d="M297.99,-236.79C246.44,-227.81 180.84,-206.85 147.2,-158 129.3,-132.01 128.43,-112.36 147.2,-87 178.16,-45.17 326.15,-28.59 412.4,-22.4"/>
<polygon fill="black" stroke="black" points="412.86,-25.88 422.6,-21.7 412.38,-18.9 412.86,-25.88"/>
<text text-anchor="start" x="147.2" y="-118.8" font-family="mono" font-size="14.00" fill="#c83500">subscription</text>
<text text-anchor="middle" x="408.6" y="-10.5" font-family="Times,serif" font-size="14.00">0..1</text>
</g>
<!-- EventAffordance&#45;&gt;DataSchema -->
<g id="edge8" class="edge">
<title>EventAffordance&#45;&gt;DataSchema</title>
<path fill="none" stroke="black" d="M344.41,-226.5C323.34,-211.4 295.56,-187.23 283.2,-158 270.91,-128.93 269.41,-115.38 283.2,-87 305.88,-40.33 365.64,-24.82 412.52,-20.08"/>
<polygon fill="black" stroke="black" points="412.95,-23.56 422.61,-19.21 412.35,-16.59 412.95,-23.56"/>
<text text-anchor="start" x="283.2" y="-118.8" font-family="mono" font-size="14.00" fill="#c83500">data</text>
<text text-anchor="middle" x="408.61" y="-23.01" font-family="Times,serif" font-size="14.00">0..1</text>
</g>
<!-- EventAffordance&#45;&gt;DataSchema -->
<g id="edge9" class="edge">
<title>EventAffordance&#45;&gt;DataSchema</title>
<path fill="none" stroke="black" d="M362.77,-226.11C349.31,-195.63 327.02,-131.57 353.2,-87 366.42,-64.49 390.1,-48.89 413.11,-38.36"/>
<polygon fill="black" stroke="black" points="414.75,-41.47 422.55,-34.29 411.98,-35.04 414.75,-41.47"/>
<text text-anchor="start" x="353.2" y="-118.8" font-family="mono" font-size="14.00" fill="#c83500">dataResponse</text>
<text text-anchor="middle" x="408.55" y="-38.09" font-family="Times,serif" font-size="14.00">0..1</text>
</g>
<!-- EventAffordance&#45;&gt;DataSchema -->
<g id="edge10" class="edge">
<title>EventAffordance&#45;&gt;DataSchema</title>
<path fill="none" stroke="black" d="M393.92,-226.5C413,-210.89 439.3,-186 453.2,-158 470.92,-122.29 474.99,-75.64 475.61,-46.5"/>
<polygon fill="black" stroke="black" points="479.11,-46.28 475.7,-36.24 472.11,-46.21 479.11,-46.28"/>
<text text-anchor="start" x="473.2" y="-118.8" font-family="mono" font-size="14.00" fill="#c83500">cancellation</text>
<text text-anchor="middle" x="461.7" y="-40.04" font-family="Times,serif" font-size="14.00">0..1</text>
</g>
<!-- MultiLanguage -->
<g id="node4" class="node">
<title>MultiLanguage</title>
<polygon fill="#8ccbf2" stroke="transparent" points="1118.2,-7 1118.2,-28 1232.2,-28 1232.2,-7 1118.2,-7"/>
<polygon fill="none" stroke="#8ccbf2" points="1118.2,-7 1118.2,-28 1232.2,-28 1232.2,-7 1118.2,-7"/>
<text text-anchor="start" x="1121.2" y="-14.8" font-family="mono" font-weight="bold" font-size="14.00" fill="#c83500">MultiLanguage</text>
</g>
<!-- InteractionAffordance&#45;&gt;MultiLanguage -->
<g id="edge12" class="edge">
<title>InteractionAffordance&#45;&gt;MultiLanguage</title>
<path fill="none" stroke="black" d="M937.74,-86.89C955.15,-74.85 975.8,-62.3 996.2,-54 1029.02,-40.64 1067.36,-32.27 1100.12,-27.08"/>
<polygon fill="black" stroke="black" points="1100.73,-30.53 1110.09,-25.57 1099.68,-23.61 1100.73,-30.53"/>
<text text-anchor="start" x="996.2" y="-57.8" font-family="mono" font-size="14.00" fill="#c83500">titles</text>
<text text-anchor="middle" x="1097.59" y="-29.37" font-family="Times,serif" font-size="14.00">0..*</text>
</g>
<!-- InteractionAffordance&#45;&gt;MultiLanguage -->
<g id="edge14" class="edge">
<title>InteractionAffordance&#45;&gt;MultiLanguage</title>
<path fill="none" stroke="black" d="M991.35,-88.46C1009.62,-82.13 1028.53,-75.45 1046.2,-69 1071.58,-59.73 1099.57,-48.95 1122.97,-39.78"/>
<polygon fill="black" stroke="black" points="1124.33,-43.01 1132.36,-36.09 1121.77,-36.49 1124.33,-43.01"/>
<text text-anchor="start" x="1086.2" y="-57.8" font-family="mono" font-size="14.00" fill="#c83500">descriptions</text>
<text text-anchor="middle" x="1144.86" y="-39.89" font-family="Times,serif" font-size="14.00">0..*</text>
</g>
<!-- Form -->
<g id="node8" class="node">
<title>Form</title>
<polygon fill="#f2f2f2" stroke="transparent" points="961.2,-7 961.2,-28 1001.2,-28 1001.2,-7 961.2,-7"/>
<polygon fill="none" stroke="#8c8c8c" points="961.2,-7 961.2,-28 1001.2,-28 1001.2,-7 961.2,-7"/>
<text text-anchor="start" x="964.2" y="-14.8" font-family="mono" font-weight="bold" font-size="14.00">Form</text>
</g>
<!-- InteractionAffordance&#45;&gt;Form -->
<g id="edge1" class="edge">
<title>InteractionAffordance&#45;&gt;Form</title>
<path fill="none" stroke="black" d="M902.09,-86.77C906.23,-75.42 912.09,-63.34 920.2,-54 926.74,-46.47 935.31,-40.19 943.95,-35.12"/>
<polygon fill="black" stroke="black" points="945.77,-38.11 952.9,-30.27 942.44,-31.96 945.77,-38.11"/>
<text text-anchor="start" x="920.2" y="-57.8" font-family="mono" font-size="14.00" fill="#c83500">forms</text>
<text text-anchor="middle" x="940.4" y="-34.07" font-family="Times,serif" font-size="14.00">1..*</text>
</g>
<!-- InteractionAffordance&#45;&gt;DataSchema -->
<g id="edge18" class="edge">
<title>InteractionAffordance&#45;&gt;DataSchema</title>
<path fill="none" stroke="black" d="M830.35,-86.84C805.71,-74.65 776.77,-62.01 749.2,-54 678.64,-33.5 594.4,-25.01 538.12,-21.48"/>
<polygon fill="black" stroke="black" points="538.14,-17.98 527.95,-20.88 537.72,-24.97 538.14,-17.98"/>
<text text-anchor="start" x="791.2" y="-57.8" font-family="mono" font-size="14.00" fill="#c83500">uriVariables</text>
<text text-anchor="middle" x="540.45" y="-9.68" font-family="Times,serif" font-size="14.00">0..*</text>
</g>
<!-- PropertyAffordance -->
<g id="node5" class="node">
<title>PropertyAffordance</title>
<polygon fill="#8ccbf2" stroke="transparent" points="728.2,-244.5 728.2,-265.5 889.2,-265.5 889.2,-244.5 728.2,-244.5"/>
<polygon fill="none" stroke="#8ccbf2" points="728.2,-244.5 728.2,-265.5 889.2,-265.5 889.2,-244.5 728.2,-244.5"/>
<text text-anchor="start" x="734.2" y="-252.3" font-family="mono" font-weight="bold" font-size="14.00" fill="#c83500">PropertyAffordance</text>
<polygon fill="#ddeeff" stroke="transparent" points="728.2,-223.5 728.2,-244.5 889.2,-244.5 889.2,-223.5 728.2,-223.5"/>
<polygon fill="none" stroke="#8ccbf2" points="728.2,-223.5 728.2,-244.5 889.2,-244.5 889.2,-223.5 728.2,-223.5"/>
<text text-anchor="start" x="731.2" y="-231.3" font-family="mono" font-size="14.00" fill="#c83500">observable</text>
<text text-anchor="start" x="814.2" y="-231.3" font-family="Times,serif" font-size="14.00"> : </text>
<text text-anchor="start" x="828.2" y="-231.3" font-family="mono" font-size="14.00" fill="#c83500">boolean</text>
</g>
<!-- PropertyAffordance&#45;&gt;InteractionAffordance -->
<g id="edge24" class="edge">
<title>PropertyAffordance&#45;&gt;InteractionAffordance</title>
<path fill="none" stroke="black" d="M825.4,-219.22C836.07,-204.15 850.09,-184.36 862.61,-166.68"/>
<polygon fill="white" stroke="black" points="865.69,-168.39 868.61,-158.21 859.98,-164.35 865.69,-168.39"/>
</g>
<!-- Thing -->
<g id="node6" class="node">
<title>Thing</title>
<polygon fill="#8ccbf2" stroke="transparent" points="887.2,-566 887.2,-587 1190.2,-587 1190.2,-566 887.2,-566"/>
<polygon fill="none" stroke="#8ccbf2" points="887.2,-566 887.2,-587 1190.2,-587 1190.2,-566 887.2,-566"/>
<text text-anchor="start" x="1017.7" y="-573.8" font-family="mono" font-weight="bold" font-size="14.00" fill="#c83500">Thing</text>
<polygon fill="#ddeeff" stroke="transparent" points="887.2,-545 887.2,-566 1190.2,-566 1190.2,-545 887.2,-545"/>
<polygon fill="none" stroke="#8ccbf2" points="887.2,-545 887.2,-566 1190.2,-566 1190.2,-545 887.2,-545"/>
<text text-anchor="start" x="890.2" y="-552.8" font-family="mono" font-size="14.00" fill="#c83500">@context</text>
<text text-anchor="start" x="957.2" y="-552.8" font-family="Times,serif" font-size="14.00"> : </text>
<text text-anchor="start" x="971.2" y="-552.8" font-family="mono" font-style="italic" font-size="14.00" fill="#c83500">anyURI</text>
<text text-anchor="start" x="1021.2" y="-552.8" font-family="Times,serif" font-style="italic" font-size="14.00"> or Array</text>
<text text-anchor="start" x="1085.2" y="-552.8" font-family="Times,serif" font-size="14.00"> </text>
<text text-anchor="start" x="1090.2" y="-552.8" font-family="Times,serif" font-style="italic" font-size="14.00">(mandatory)</text>
<polygon fill="#ddeeff" stroke="transparent" points="887.2,-524 887.2,-545 1190.2,-545 1190.2,-524 887.2,-524"/>
<polygon fill="none" stroke="#8ccbf2" points="887.2,-524 887.2,-545 1190.2,-545 1190.2,-524 887.2,-524"/>
<text text-anchor="start" x="890.2" y="-531.8" font-family="mono" font-size="14.00" fill="#c83500">@type</text>
<text text-anchor="start" x="932.2" y="-531.8" font-family="Times,serif" font-size="14.00"> : </text>
<text text-anchor="start" x="946.2" y="-531.8" font-family="Times,serif" font-style="italic" font-size="14.00">(Array of) </text>
<text text-anchor="start" x="1019.2" y="-531.8" font-family="mono" font-size="14.00" fill="#c83500">string</text>
<polygon fill="#ddeeff" stroke="transparent" points="887.2,-503 887.2,-524 1190.2,-524 1190.2,-503 887.2,-503"/>
<polygon fill="none" stroke="#8ccbf2" points="887.2,-503 887.2,-524 1190.2,-524 1190.2,-503 887.2,-503"/>
<text text-anchor="start" x="890.2" y="-510.8" font-family="mono" font-size="14.00" fill="#c83500">id</text>
<text text-anchor="start" x="907.2" y="-510.8" font-family="Times,serif" font-size="14.00"> : </text>
<text text-anchor="start" x="921.2" y="-510.8" font-family="mono" font-size="14.00" fill="#c83500">anyURI</text>
<text text-anchor="start" x="971.2" y="-510.8" font-family="Times,serif" font-size="14.00"> </text>
<text text-anchor="start" x="976.2" y="-510.8" font-family="Times,serif" font-style="italic" font-size="14.00">(mandatory)</text>
<polygon fill="#ddeeff" stroke="transparent" points="887.2,-482 887.2,-503 1190.2,-503 1190.2,-482 887.2,-482"/>
<polygon fill="none" stroke="#8ccbf2" points="887.2,-482 887.2,-503 1190.2,-503 1190.2,-482 887.2,-482"/>
<text text-anchor="start" x="890.2" y="-489.8" font-family="mono" font-size="14.00" fill="#c83500">title</text>
<text text-anchor="start" x="932.2" y="-489.8" font-family="Times,serif" font-size="14.00"> : </text>
<text text-anchor="start" x="946.2" y="-489.8" font-family="mono" font-size="14.00" fill="#c83500">string</text>
<text text-anchor="start" x="996.2" y="-489.8" font-family="Times,serif" font-size="14.00"> </text>
<text text-anchor="start" x="1001.2" y="-489.8" font-family="Times,serif" font-style="italic" font-size="14.00">(mandatory)</text>
<polygon fill="#ddeeff" stroke="transparent" points="887.2,-461 887.2,-482 1190.2,-482 1190.2,-461 887.2,-461"/>
<polygon fill="none" stroke="#8ccbf2" points="887.2,-461 887.2,-482 1190.2,-482 1190.2,-461 887.2,-461"/>
<text text-anchor="start" x="890.2" y="-468.8" font-family="mono" font-size="14.00" fill="#c83500">security</text>
<text text-anchor="start" x="957.2" y="-468.8" font-family="Times,serif" font-size="14.00"> : (Array of) </text>
<text text-anchor="start" x="1044.2" y="-468.8" font-family="mono" font-size="14.00" fill="#c83500">string</text>
<text text-anchor="start" x="1094.2" y="-468.8" font-family="Times,serif" font-size="14.00"> </text>
<text text-anchor="start" x="1099.2" y="-468.8" font-family="Times,serif" font-style="italic" font-size="14.00">(mandatory)</text>
<polygon fill="#ddeeff" stroke="transparent" points="887.2,-440 887.2,-461 1190.2,-461 1190.2,-440 887.2,-440"/>
<polygon fill="none" stroke="#8ccbf2" points="887.2,-440 887.2,-461 1190.2,-461 1190.2,-440 887.2,-440"/>
<text text-anchor="start" x="890.2" y="-447.8" font-family="mono" font-size="14.00" fill="#c83500">description</text>
<text text-anchor="start" x="981.2" y="-447.8" font-family="Times,serif" font-size="14.00"> : </text>
<text text-anchor="start" x="995.2" y="-447.8" font-family="mono" font-size="14.00" fill="#c83500">string</text>
<polygon fill="#ddeeff" stroke="transparent" points="887.2,-419 887.2,-440 1190.2,-440 1190.2,-419 887.2,-419"/>
<polygon fill="none" stroke="#8ccbf2" points="887.2,-419 887.2,-440 1190.2,-440 1190.2,-419 887.2,-419"/>
<text text-anchor="start" x="890.2" y="-426.8" font-family="mono" font-size="14.00" fill="#c83500">profile</text>
<text text-anchor="start" x="948.2" y="-426.8" font-family="Times,serif" font-size="14.00"> : (Array of) </text>
<text text-anchor="start" x="1035.2" y="-426.8" font-family="mono" font-size="14.00" fill="#c83500">anyURI</text>
<polygon fill="#ddeeff" stroke="transparent" points="887.2,-398 887.2,-419 1190.2,-419 1190.2,-398 887.2,-398"/>
<polygon fill="none" stroke="#8ccbf2" points="887.2,-398 887.2,-419 1190.2,-419 1190.2,-398 887.2,-398"/>
<text text-anchor="start" x="890.2" y="-405.8" font-family="mono" font-size="14.00" fill="#c83500">created</text>
<text text-anchor="start" x="948.2" y="-405.8" font-family="Times,serif" font-size="14.00"> : </text>
<text text-anchor="start" x="962.2" y="-405.8" font-family="mono" font-size="14.00" fill="#c83500">dateTime</text>
<polygon fill="#ddeeff" stroke="transparent" points="887.2,-377 887.2,-398 1190.2,-398 1190.2,-377 887.2,-377"/>
<polygon fill="none" stroke="#8ccbf2" points="887.2,-377 887.2,-398 1190.2,-398 1190.2,-377 887.2,-377"/>
<text text-anchor="start" x="890.2" y="-384.8" font-family="mono" font-size="14.00" fill="#c83500">modified</text>
<text text-anchor="start" x="957.2" y="-384.8" font-family="Times,serif" font-size="14.00"> : </text>
<text text-anchor="start" x="971.2" y="-384.8" font-family="mono" font-size="14.00" fill="#c83500">dateTime</text>
<polygon fill="#ddeeff" stroke="transparent" points="887.2,-356 887.2,-377 1190.2,-377 1190.2,-356 887.2,-356"/>
<polygon fill="none" stroke="#8ccbf2" points="887.2,-356 887.2,-377 1190.2,-377 1190.2,-356 887.2,-356"/>
<text text-anchor="start" x="890.2" y="-363.8" font-family="mono" font-size="14.00" fill="#c83500">support</text>
<text text-anchor="start" x="948.2" y="-363.8" font-family="Times,serif" font-size="14.00"> : </text>
<text text-anchor="start" x="962.2" y="-363.8" font-family="mono" font-size="14.00" fill="#c83500">anyURI</text>
<polygon fill="#ddeeff" stroke="transparent" points="887.2,-335 887.2,-356 1190.2,-356 1190.2,-335 887.2,-335"/>
<polygon fill="none" stroke="#8ccbf2" points="887.2,-335 887.2,-356 1190.2,-356 1190.2,-335 887.2,-335"/>
<text text-anchor="start" x="890.2" y="-342.8" font-family="mono" font-size="14.00" fill="#c83500">base</text>
<text text-anchor="start" x="924.2" y="-342.8" font-family="Times,serif" font-size="14.00"> : </text>
<text text-anchor="start" x="938.2" y="-342.8" font-family="mono" font-size="14.00" fill="#c83500">anyURI</text>
</g>
<!-- Thing&#45;&gt;ActionAffordance -->
<g id="edge20" class="edge">
<title>Thing&#45;&gt;ActionAffordance</title>
<path fill="none" stroke="black" d="M878.61,-375.69C804.15,-336.34 721.51,-292.68 673.35,-267.24"/>
<polygon fill="black" stroke="black" points="674.96,-264.13 664.48,-262.56 671.69,-270.32 674.96,-264.13"/>
<text text-anchor="start" x="752.2" y="-301.8" font-family="mono" font-size="14.00" fill="#c83500">actions</text>
<text text-anchor="middle" x="651.98" y="-266.36" font-family="Times,serif" font-size="14.00">0..*</text>
</g>
<!-- Thing&#45;&gt;EventAffordance -->
<g id="edge21" class="edge">
<title>Thing&#45;&gt;EventAffordance</title>
<path fill="none" stroke="black" d="M878.66,-434C762,-411.37 601.81,-372.7 470.2,-313 444.62,-301.4 418.48,-283.26 399.49,-268.7"/>
<polygon fill="black" stroke="black" points="401.6,-265.9 391.56,-262.51 397.29,-271.42 401.6,-265.9"/>
<text text-anchor="start" x="470.2" y="-301.8" font-family="mono" font-size="14.00" fill="#c83500">events</text>
<text text-anchor="middle" x="379.06" y="-266.31" font-family="Times,serif" font-size="14.00">0..*</text>
</g>
<!-- Thing&#45;&gt;MultiLanguage -->
<g id="edge13" class="edge">
<title>Thing&#45;&gt;MultiLanguage</title>
<path fill="none" stroke="black" d="M1197.86,-386.7C1235.56,-359.66 1268.74,-324.46 1282.2,-280 1309.24,-190.68 1236.74,-89.72 1197.9,-43.94"/>
<polygon fill="black" stroke="black" points="1200.49,-41.58 1191.3,-36.3 1195.19,-46.16 1200.49,-41.58"/>
<text text-anchor="start" x="1281.2" y="-179.8" font-family="mono" font-size="14.00" fill="#c83500">titles</text>
<text text-anchor="middle" x="1178.8" y="-40.1" font-family="Times,serif" font-size="14.00">0..*</text>
</g>
<!-- Thing&#45;&gt;MultiLanguage -->
<g id="edge15" class="edge">
<title>Thing&#45;&gt;MultiLanguage</title>
<path fill="none" stroke="black" d="M1197.99,-386.52C1230.29,-366.19 1261.78,-341.67 1286.2,-313 1295.21,-302.43 1322.18,-254.42 1334.2,-191 1347.13,-122.78 1272.08,-69.05 1220.66,-40.82"/>
<polygon fill="black" stroke="black" points="1222.14,-37.65 1211.67,-36.02 1218.84,-43.82 1222.14,-37.65"/>
<text text-anchor="start" x="1336.2" y="-179.8" font-family="mono" font-size="14.00" fill="#c83500">descriptions</text>
<text text-anchor="middle" x="1224.17" y="-39.82" font-family="Times,serif" font-size="14.00">0..*</text>
</g>
<!-- Thing&#45;&gt;PropertyAffordance -->
<g id="edge19" class="edge">
<title>Thing&#45;&gt;PropertyAffordance</title>
<path fill="none" stroke="black" d="M899.76,-330.89C878.18,-310.76 857.74,-291.71 841.68,-276.72"/>
<polygon fill="black" stroke="black" points="843.86,-273.97 834.16,-269.71 839.08,-279.09 843.86,-273.97"/>
<text text-anchor="start" x="876.2" y="-301.8" font-family="mono" font-size="14.00" fill="#c83500">properties</text>
<text text-anchor="middle" x="821.66" y="-273.51" font-family="Times,serif" font-size="14.00">0..*</text>
</g>
<!-- VersionInfo -->
<g id="node7" class="node">
<title>VersionInfo</title>
<polygon fill="#8ccbf2" stroke="transparent" points="923.2,-254.5 923.2,-275.5 1153.2,-275.5 1153.2,-254.5 923.2,-254.5"/>
<polygon fill="none" stroke="#8ccbf2" points="923.2,-254.5 923.2,-275.5 1153.2,-275.5 1153.2,-254.5 923.2,-254.5"/>
<text text-anchor="start" x="992.7" y="-262.3" font-family="mono" font-weight="bold" font-size="14.00" fill="#c83500">VersionInfo</text>
<polygon fill="#ddeeff" stroke="transparent" points="923.2,-233.5 923.2,-254.5 1153.2,-254.5 1153.2,-233.5 923.2,-233.5"/>
<polygon fill="none" stroke="#8ccbf2" points="923.2,-233.5 923.2,-254.5 1153.2,-254.5 1153.2,-233.5 923.2,-233.5"/>
<text text-anchor="start" x="926.2" y="-241.3" font-family="mono" font-size="14.00" fill="#c83500">instance</text>
<text text-anchor="start" x="993.2" y="-241.3" font-family="Times,serif" font-size="14.00"> : </text>
<text text-anchor="start" x="1007.2" y="-241.3" font-family="mono" font-size="14.00" fill="#c83500">string</text>
<text text-anchor="start" x="1057.2" y="-241.3" font-family="Times,serif" font-size="14.00"> </text>
<text text-anchor="start" x="1062.2" y="-241.3" font-family="Times,serif" font-style="italic" font-size="14.00">(mandatory)</text>
<polygon fill="#ddeeff" stroke="transparent" points="923.2,-212.5 923.2,-233.5 1153.2,-233.5 1153.2,-212.5 923.2,-212.5"/>
<polygon fill="none" stroke="#8ccbf2" points="923.2,-212.5 923.2,-233.5 1153.2,-233.5 1153.2,-212.5 923.2,-212.5"/>
<text text-anchor="start" x="926.2" y="-220.3" font-family="mono" font-size="14.00" fill="#c83500">model</text>
<text text-anchor="start" x="968.2" y="-220.3" font-family="Times,serif" font-size="14.00"> : </text>
<text text-anchor="start" x="982.2" y="-220.3" font-family="mono" font-size="14.00" fill="#c83500">string</text>
</g>
<!-- Thing&#45;&gt;VersionInfo -->
<g id="edge4" class="edge">
<title>Thing&#45;&gt;VersionInfo</title>
<path fill="none" stroke="black" d="M1038.2,-330.89C1038.2,-316.48 1038.2,-302.62 1038.2,-290.41"/>
<polygon fill="black" stroke="black" points="1041.7,-290.13 1038.2,-280.13 1034.7,-290.13 1041.7,-290.13"/>
<text text-anchor="start" x="1038.2" y="-301.8" font-family="mono" font-size="14.00" fill="#c83500">version</text>
<text text-anchor="middle" x="1024.2" y="-283.93" font-family="Times,serif" font-size="14.00">0..1</text>
</g>
<!-- Thing&#45;&gt;Form -->
<g id="edge3" class="edge">
<title>Thing&#45;&gt;Form</title>
<path fill="none" stroke="black" d="M1146.44,-330.97C1155.99,-314.58 1164.27,-297.42 1170.2,-280 1202.59,-184.89 1239.63,-131.09 1175.2,-54 1170.21,-48.03 1074.49,-32.89 1019.4,-24.61"/>
<polygon fill="black" stroke="black" points="1019.7,-21.12 1009.29,-23.1 1018.67,-28.04 1019.7,-21.12"/>
<text text-anchor="start" x="1206.2" y="-179.8" font-family="mono" font-size="14.00" fill="#c83500">forms</text>
<text text-anchor="middle" x="1021.79" y="-26.9" font-family="Times,serif" font-size="14.00">0..*</text>
</g>
<!-- Link -->
<g id="node9" class="node">
<title>Link</title>
<polygon fill="#f2f2f2" stroke="transparent" points="1225.2,-233.5 1225.2,-254.5 1265.2,-254.5 1265.2,-233.5 1225.2,-233.5"/>
<polygon fill="none" stroke="#8c8c8c" points="1225.2,-233.5 1225.2,-254.5 1265.2,-254.5 1265.2,-233.5 1225.2,-233.5"/>
<text text-anchor="start" x="1228.2" y="-241.3" font-family="mono" font-weight="bold" font-size="14.00">Link</text>
</g>
<!-- Thing&#45;&gt;Link -->
<g id="edge2" class="edge">
<title>Thing&#45;&gt;Link</title>
<path fill="none" stroke="black" d="M1187.33,-330.95C1192.82,-325.01 1198.13,-319.02 1203.2,-313 1213.86,-300.34 1223.75,-284.73 1231.25,-271.72"/>
<polygon fill="black" stroke="black" points="1234.42,-273.21 1236.26,-262.77 1228.32,-269.78 1234.42,-273.21"/>
<text text-anchor="start" x="1214.2" y="-301.8" font-family="mono" font-size="14.00" fill="#c83500">links</text>
<text text-anchor="middle" x="1223.76" y="-266.57" font-family="Times,serif" font-size="14.00">0..*</text>
</g>
<!-- Thing&#45;&gt;DataSchema -->
<g id="edge16" class="edge">
<title>Thing&#45;&gt;DataSchema</title>
<path fill="none" stroke="black" d="M878.52,-442.23C617.59,-409.46 118.73,-329.83 18.2,-191 -82.92,-51.36 265.03,-25.04 412.37,-20.11"/>
<polygon fill="black" stroke="black" points="412.74,-23.6 422.63,-19.8 412.52,-16.61 412.74,-23.6"/>
<text text-anchor="start" x="18.2" y="-179.8" font-family="mono" font-size="14.00" fill="#c83500">schemaDefinitions</text>
<text text-anchor="middle" x="410.13" y="-8.6" font-family="Times,serif" font-size="14.00">0..*</text>
</g>
<!-- Thing&#45;&gt;DataSchema -->
<g id="edge17" class="edge">
<title>Thing&#45;&gt;DataSchema</title>
<path fill="none" stroke="black" d="M878.42,-442.83C769.92,-422.42 632.29,-377.75 553.2,-280 523.9,-243.79 515.5,-215.49 540.2,-176 549.9,-160.5 567.5,-173.5 577.2,-158 593.94,-131.25 592.09,-114.82 577.2,-87 566.45,-66.91 546.86,-51.74 527.69,-40.87"/>
<polygon fill="black" stroke="black" points="529.13,-37.67 518.66,-36.03 525.82,-43.84 529.13,-37.67"/>
<text text-anchor="start" x="540.2" y="-179.8" font-family="mono" font-size="14.00" fill="#c83500">uriVariables</text>
<text text-anchor="middle" x="506.16" y="-39.83" font-family="Times,serif" font-size="14.00">0..*</text>
</g>
<!-- SecurityScheme -->
<g id="node11" class="node">
<title>SecurityScheme</title>
<polygon fill="#f2f2f2" stroke="transparent" points="1392.2,-233.5 1392.2,-254.5 1514.2,-254.5 1514.2,-233.5 1392.2,-233.5"/>
<polygon fill="none" stroke="#8c8c8c" points="1392.2,-233.5 1392.2,-254.5 1514.2,-254.5 1514.2,-233.5 1392.2,-233.5"/>
<text text-anchor="start" x="1395.2" y="-241.3" font-family="mono" font-weight="bold" font-size="14.00">SecurityScheme</text>
</g>
<!-- Thing&#45;&gt;SecurityScheme -->
<g id="edge11" class="edge">
<title>Thing&#45;&gt;SecurityScheme</title>
<path fill="none" stroke="black" d="M1197.93,-399.46C1254.04,-375.57 1316.45,-345.94 1370.2,-313 1390.7,-300.44 1411.69,-283.32 1427.43,-269.47"/>
<polygon fill="black" stroke="black" points="1430.03,-271.84 1435.15,-262.57 1425.37,-266.62 1430.03,-271.84"/>
<text text-anchor="start" x="1391.2" y="-301.8" font-family="mono" font-size="14.00" fill="#c83500">securityDefinitions</text>
<text text-anchor="middle" x="1422.65" y="-266.37" font-family="Times,serif" font-size="14.00">1..*</text>
</g>
</g>
</svg>
