<?xml version="1.0" encoding="UTF-8" standalone="no"?>
<!DOCTYPE svg PUBLIC "-//W3C//DTD SVG 1.1//EN"
 "http://www.w3.org/Graphics/SVG/1.1/DTD/svg11.dtd">
<!-- Generated by graphviz version 2.40.1 (20161225.0304)
 -->
<!-- Title: %3 Pages: 1 -->
<svg width="1426pt" height="840pt"
 viewBox="0.00 0.00 1425.50 840.00" xmlns="http://www.w3.org/2000/svg" xmlns:xlink="http://www.w3.org/1999/xlink">
<g id="graph0" class="graph" transform="scale(1 1) rotate(0) translate(4 836)">
<title>%3</title>
<polygon fill="#ffffff" stroke="transparent" points="-4,4 -4,-836 1421.5,-836 1421.5,4 -4,4"/>
<!-- MultiLanguage -->
<g id="node1" class="node">
<title>MultiLanguage</title>
<polygon fill="#8ccbf2" stroke="transparent" points="273.5,-167.5 273.5,-188.5 387.5,-188.5 387.5,-167.5 273.5,-167.5"/>
<polygon fill="none" stroke="#8ccbf2" points="273.5,-167.5 273.5,-188.5 387.5,-188.5 387.5,-167.5 273.5,-167.5"/>
<text text-anchor="start" x="276.5" y="-175.3" font-family="mono" font-weight="bold" font-size="14.00" fill="#c83500">MultiLanguage</text>
</g>
<!-- InteractionPattern -->
<g id="node2" class="node">
<title>InteractionPattern</title>
<polygon fill="#8ccbf2" stroke="transparent" points="319.5,-394.5 319.5,-415.5 500.5,-415.5 500.5,-394.5 319.5,-394.5"/>
<polygon fill="none" stroke="#8ccbf2" points="319.5,-394.5 319.5,-415.5 500.5,-415.5 500.5,-394.5 319.5,-394.5"/>
<text text-anchor="start" x="335.5" y="-402.3" font-family="mono" font-weight="bold" font-size="14.00" fill="#c83500">InteractionPattern</text>
<polygon fill="#ddeeff" stroke="transparent" points="319.5,-373.5 319.5,-394.5 500.5,-394.5 500.5,-373.5 319.5,-373.5"/>
<polygon fill="none" stroke="#8ccbf2" points="319.5,-373.5 319.5,-394.5 500.5,-394.5 500.5,-373.5 319.5,-373.5"/>
<text text-anchor="start" x="322.5" y="-381.3" font-family="mono" font-size="14.00" fill="#c83500">description</text>
<text text-anchor="start" x="413.5" y="-381.3" font-family="Times,serif" font-size="14.00" fill="#000000"> : </text>
<text text-anchor="start" x="425.5" y="-381.3" font-family="mono" font-size="14.00" fill="#c83500">string</text>
<polygon fill="#ddeeff" stroke="transparent" points="319.5,-352.5 319.5,-373.5 500.5,-373.5 500.5,-352.5 319.5,-352.5"/>
<polygon fill="none" stroke="#8ccbf2" points="319.5,-352.5 319.5,-373.5 500.5,-373.5 500.5,-352.5 319.5,-352.5"/>
<text text-anchor="start" x="322.5" y="-360.3" font-family="mono" font-size="14.00" fill="#c83500">security</text>
<text text-anchor="start" x="389.5" y="-360.3" font-family="Times,serif" font-size="14.00" fill="#000000"> : array of </text>
<text text-anchor="start" x="447.5" y="-360.3" font-family="mono" font-size="14.00" fill="#c83500">string</text>
<polygon fill="#ddeeff" stroke="transparent" points="319.5,-331.5 319.5,-352.5 500.5,-352.5 500.5,-331.5 319.5,-331.5"/>
<polygon fill="none" stroke="#8ccbf2" points="319.5,-331.5 319.5,-352.5 500.5,-352.5 500.5,-331.5 319.5,-331.5"/>
<text text-anchor="start" x="322.5" y="-339.3" font-family="mono" font-size="14.00" fill="#c83500">title</text>
<text text-anchor="start" x="364.5" y="-339.3" font-family="Times,serif" font-size="14.00" fill="#000000"> : </text>
<text text-anchor="start" x="376.5" y="-339.3" font-family="mono" font-size="14.00" fill="#c83500">string</text>
<polygon fill="#ddeeff" stroke="transparent" points="319.5,-310.5 319.5,-331.5 500.5,-331.5 500.5,-310.5 319.5,-310.5"/>
<polygon fill="none" stroke="#8ccbf2" points="319.5,-310.5 319.5,-331.5 500.5,-331.5 500.5,-310.5 319.5,-310.5"/>
<text text-anchor="start" x="322.5" y="-318.3" font-family="mono" font-size="14.00" fill="#c83500">scopes</text>
<text text-anchor="start" x="372.5" y="-318.3" font-family="Times,serif" font-size="14.00" fill="#000000"> : array of </text>
<text text-anchor="start" x="430.5" y="-318.3" font-family="mono" font-size="14.00" fill="#c83500">string</text>
</g>
<!-- InteractionPattern&#45;&gt;MultiLanguage -->
<g id="edge2" class="edge">
<title>InteractionPattern&#45;&gt;MultiLanguage</title>
<path fill="none" stroke="#000000" d="M310.869,-316.9455C301.5922,-308.8803 293.4502,-299.6054 287.5,-289 272.16,-261.6585 290.2902,-227.7405 307.4963,-204.7476"/>
<polygon fill="#000000" stroke="#000000" points="310.3104,-206.831 313.7299,-196.8032 304.8033,-202.5099 310.3104,-206.831"/>
<text text-anchor="start" x="287.5" y="-277.8" font-family="mono" font-size="14.00" fill="#c83500">descriptions</text>
<text text-anchor="middle" x="302.7299" y="-200.6032" font-family="Times,serif" font-size="14.00" fill="#000000">0..1</text>
</g>
<!-- InteractionPattern&#45;&gt;MultiLanguage -->
<g id="edge4" class="edge">
<title>InteractionPattern&#45;&gt;MultiLanguage</title>
<path fill="none" stroke="#000000" d="M398.2719,-306.8246C395.3263,-295.748 391.7538,-284.3613 387.5,-274 377.4169,-249.44 361.7215,-223.7124 349.3515,-205.1566"/>
<polygon fill="#000000" stroke="#000000" points="352.0969,-202.9691 343.5853,-196.6601 346.3048,-206.9 352.0969,-202.9691"/>
<text text-anchor="start" x="393.5" y="-277.8" font-family="mono" font-size="14.00" fill="#c83500">titles</text>
<text text-anchor="middle" x="332.5853" y="-200.4601" font-family="Times,serif" font-size="14.00" fill="#000000">0..1</text>
</g>
<!-- Form -->
<g id="node4" class="node">
<title>Form</title>
<polygon fill="#8ccbf2" stroke="transparent" points="8.5,-230.5 8.5,-251.5 239.5,-251.5 239.5,-230.5 8.5,-230.5"/>
<polygon fill="none" stroke="#8ccbf2" points="8.5,-230.5 8.5,-251.5 239.5,-251.5 239.5,-230.5 8.5,-230.5"/>
<text text-anchor="start" x="107" y="-238.3" font-family="mono" font-weight="bold" font-size="14.00" fill="#c83500">Form</text>
<polygon fill="#ddeeff" stroke="transparent" points="8.5,-209.5 8.5,-230.5 239.5,-230.5 239.5,-209.5 8.5,-209.5"/>
<polygon fill="none" stroke="#8ccbf2" points="8.5,-209.5 8.5,-230.5 239.5,-230.5 239.5,-209.5 8.5,-209.5"/>
<text text-anchor="start" x="11.5" y="-217.3" font-family="mono" font-size="14.00" fill="#c83500">contentType</text>
<text text-anchor="start" x="102.5" y="-217.3" font-family="Times,serif" font-size="14.00" fill="#000000"> : </text>
<text text-anchor="start" x="114.5" y="-217.3" font-family="mono" font-size="14.00" fill="#c83500">string</text>
<text text-anchor="start" x="164.5" y="-217.3" font-family="Times,serif" font-size="14.00" fill="#000000"> </text>
<text text-anchor="start" x="168.5" y="-217.3" font-family="Times,serif" font-style="italic" font-size="14.00" fill="#000000">(mandatory)</text>
<polygon fill="#ddeeff" stroke="transparent" points="8.5,-188.5 8.5,-209.5 239.5,-209.5 239.5,-188.5 8.5,-188.5"/>
<polygon fill="none" stroke="#8ccbf2" points="8.5,-188.5 8.5,-209.5 239.5,-209.5 239.5,-188.5 8.5,-188.5"/>
<text text-anchor="start" x="11.5" y="-196.3" font-family="mono" font-size="14.00" fill="#c83500">subprotocol</text>
<text text-anchor="start" x="102.5" y="-196.3" font-family="Times,serif" font-size="14.00" fill="#000000"> : </text>
<text text-anchor="start" x="114.5" y="-196.3" font-family="mono" font-size="14.00" fill="#c83500">string</text>
<polygon fill="#ddeeff" stroke="transparent" points="8.5,-167.5 8.5,-188.5 239.5,-188.5 239.5,-167.5 8.5,-167.5"/>
<polygon fill="none" stroke="#8ccbf2" points="8.5,-167.5 8.5,-188.5 239.5,-188.5 239.5,-167.5 8.5,-167.5"/>
<text text-anchor="start" x="11.5" y="-175.3" font-family="mono" font-size="14.00" fill="#c83500">scopes</text>
<text text-anchor="start" x="61.5" y="-175.3" font-family="Times,serif" font-size="14.00" fill="#000000"> : array of </text>
<text text-anchor="start" x="119.5" y="-175.3" font-family="mono" font-size="14.00" fill="#c83500">string</text>
<polygon fill="#ddeeff" stroke="transparent" points="8.5,-146.5 8.5,-167.5 239.5,-167.5 239.5,-146.5 8.5,-146.5"/>
<polygon fill="none" stroke="#8ccbf2" points="8.5,-146.5 8.5,-167.5 239.5,-167.5 239.5,-146.5 8.5,-146.5"/>
<text text-anchor="start" x="11.5" y="-154.3" font-family="mono" font-size="14.00" fill="#c83500">href</text>
<text text-anchor="start" x="45.5" y="-154.3" font-family="Times,serif" font-size="14.00" fill="#000000"> : </text>
<text text-anchor="start" x="57.5" y="-154.3" font-family="mono" font-size="14.00" fill="#c83500">anyURI</text>
<text text-anchor="start" x="107.5" y="-154.3" font-family="Times,serif" font-size="14.00" fill="#000000"> </text>
<text text-anchor="start" x="111.5" y="-154.3" font-family="Times,serif" font-style="italic" font-size="14.00" fill="#000000">(mandatory)</text>
<polygon fill="#ddeeff" stroke="transparent" points="8.5,-125.5 8.5,-146.5 239.5,-146.5 239.5,-125.5 8.5,-125.5"/>
<polygon fill="none" stroke="#8ccbf2" points="8.5,-125.5 8.5,-146.5 239.5,-146.5 239.5,-125.5 8.5,-125.5"/>
<text text-anchor="start" x="11.5" y="-133.3" font-family="mono" font-size="14.00" fill="#c83500">op</text>
<text text-anchor="start" x="28.5" y="-133.3" font-family="Times,serif" font-size="14.00" fill="#000000"> : </text>
<text text-anchor="start" x="40.5" y="-133.3" font-family="mono" font-size="14.00" fill="#c83500">string</text>
<polygon fill="#ddeeff" stroke="transparent" points="8.5,-104.5 8.5,-125.5 239.5,-125.5 239.5,-104.5 8.5,-104.5"/>
<polygon fill="none" stroke="#8ccbf2" points="8.5,-104.5 8.5,-125.5 239.5,-125.5 239.5,-104.5 8.5,-104.5"/>
<text text-anchor="start" x="11.5" y="-112.3" font-family="mono" font-size="14.00" fill="#c83500">security</text>
<text text-anchor="start" x="78.5" y="-112.3" font-family="Times,serif" font-size="14.00" fill="#000000"> : array of </text>
<text text-anchor="start" x="136.5" y="-112.3" font-family="mono" font-size="14.00" fill="#c83500">string</text>
</g>
<!-- InteractionPattern&#45;&gt;Form -->
<g id="edge3" class="edge">
<title>InteractionPattern&#45;&gt;Form</title>
<path fill="none" stroke="#000000" d="M310.606,-328.3136C285.4738,-317.4121 259.1829,-304.2014 236.5,-289 225.0364,-281.3174 213.7157,-272.3887 202.9243,-262.9999"/>
<polygon fill="#000000" stroke="#000000" points="204.962,-260.128 195.1655,-256.0933 200.3077,-265.3566 204.962,-260.128"/>
<text text-anchor="start" x="236.5" y="-277.8" font-family="mono" font-size="14.00" fill="#c83500">forms</text>
<text text-anchor="middle" x="184.1655" y="-259.8933" font-family="Times,serif" font-size="14.00" fill="#000000">1..*</text>
</g>
<!-- DataSchema -->
<g id="node11" class="node">
<title>DataSchema</title>
<polygon fill="#f2f2f2" stroke="transparent" points="678.5,-167.5 678.5,-188.5 767.5,-188.5 767.5,-167.5 678.5,-167.5"/>
<polygon fill="none" stroke="#8c8c8c" points="678.5,-167.5 678.5,-188.5 767.5,-188.5 767.5,-167.5 678.5,-167.5"/>
<text text-anchor="start" x="681.5" y="-175.3" font-family="mono" font-weight="bold" font-size="14.00" fill="#000000">DataSchema</text>
</g>
<!-- InteractionPattern&#45;&gt;DataSchema -->
<g id="edge1" class="edge">
<title>InteractionPattern&#45;&gt;DataSchema</title>
<path fill="none" stroke="#000000" d="M449.0448,-306.8355C459.2635,-294.8878 470.9562,-283.1465 483.5,-274 537.1486,-234.8814 609.04,-208.9997 659.9213,-194.168"/>
<polygon fill="#000000" stroke="#000000" points="661.1495,-197.4573 669.8058,-191.3484 659.2292,-190.7259 661.1495,-197.4573"/>
<text text-anchor="start" x="483.5" y="-277.8" font-family="mono" font-size="14.00" fill="#c83500">uriVariables</text>
<text text-anchor="middle" x="658.8058" y="-195.1484" font-family="Times,serif" font-size="14.00" fill="#000000">0..1</text>
</g>
<!-- Link -->
<g id="node3" class="node">
<title>Link</title>
<polygon fill="#8ccbf2" stroke="transparent" points="837.5,-558.5 837.5,-579.5 1011.5,-579.5 1011.5,-558.5 837.5,-558.5"/>
<polygon fill="none" stroke="#8ccbf2" points="837.5,-558.5 837.5,-579.5 1011.5,-579.5 1011.5,-558.5 837.5,-558.5"/>
<text text-anchor="start" x="907.5" y="-566.3" font-family="mono" font-weight="bold" font-size="14.00" fill="#c83500">Link</text>
<polygon fill="#ddeeff" stroke="transparent" points="837.5,-537.5 837.5,-558.5 1011.5,-558.5 1011.5,-537.5 837.5,-537.5"/>
<polygon fill="none" stroke="#8ccbf2" points="837.5,-537.5 837.5,-558.5 1011.5,-558.5 1011.5,-537.5 837.5,-537.5"/>
<text text-anchor="start" x="840.5" y="-545.3" font-family="mono" font-size="14.00" fill="#c83500">href</text>
<text text-anchor="start" x="874.5" y="-545.3" font-family="Times,serif" font-size="14.00" fill="#000000"> : </text>
<text text-anchor="start" x="886.5" y="-545.3" font-family="mono" font-size="14.00" fill="#c83500">anyURI</text>
<text text-anchor="start" x="936.5" y="-545.3" font-family="Times,serif" font-size="14.00" fill="#000000"> </text>
<text text-anchor="start" x="940.5" y="-545.3" font-family="Times,serif" font-style="italic" font-size="14.00" fill="#000000">(mandatory)</text>
<polygon fill="#ddeeff" stroke="transparent" points="837.5,-516.5 837.5,-537.5 1011.5,-537.5 1011.5,-516.5 837.5,-516.5"/>
<polygon fill="none" stroke="#8ccbf2" points="837.5,-516.5 837.5,-537.5 1011.5,-537.5 1011.5,-516.5 837.5,-516.5"/>
<text text-anchor="start" x="840.5" y="-524.3" font-family="mono" font-size="14.00" fill="#c83500">anchor</text>
<text text-anchor="start" x="890.5" y="-524.3" font-family="Times,serif" font-size="14.00" fill="#000000"> : </text>
<text text-anchor="start" x="902.5" y="-524.3" font-family="mono" font-size="14.00" fill="#c83500">anyURI</text>
<polygon fill="#ddeeff" stroke="transparent" points="837.5,-495.5 837.5,-516.5 1011.5,-516.5 1011.5,-495.5 837.5,-495.5"/>
<polygon fill="none" stroke="#8ccbf2" points="837.5,-495.5 837.5,-516.5 1011.5,-516.5 1011.5,-495.5 837.5,-495.5"/>
<text text-anchor="start" x="840.5" y="-503.3" font-family="mono" font-size="14.00" fill="#c83500">rel</text>
<text text-anchor="start" x="865.5" y="-503.3" font-family="Times,serif" font-size="14.00" fill="#000000"> : </text>
<text text-anchor="start" x="877.5" y="-503.3" font-family="mono" font-size="14.00" fill="#c83500">string</text>
<polygon fill="#ddeeff" stroke="transparent" points="837.5,-474.5 837.5,-495.5 1011.5,-495.5 1011.5,-474.5 837.5,-474.5"/>
<polygon fill="none" stroke="#8ccbf2" points="837.5,-474.5 837.5,-495.5 1011.5,-495.5 1011.5,-474.5 837.5,-474.5"/>
<text text-anchor="start" x="840.5" y="-482.3" font-family="mono" font-size="14.00" fill="#c83500">type</text>
<text text-anchor="start" x="874.5" y="-482.3" font-family="Times,serif" font-size="14.00" fill="#000000"> : </text>
<text text-anchor="start" x="886.5" y="-482.3" font-family="mono" font-size="14.00" fill="#c83500">string</text>
</g>
<!-- ExpectedResponse -->
<g id="node7" class="node">
<title>ExpectedResponse</title>
<polygon fill="#8ccbf2" stroke="transparent" points="44.5,-25 44.5,-46 203.5,-46 203.5,-25 44.5,-25"/>
<polygon fill="none" stroke="#8ccbf2" points="44.5,-25 44.5,-46 203.5,-46 203.5,-25 44.5,-25"/>
<text text-anchor="start" x="57.5" y="-32.8" font-family="mono" font-weight="bold" font-size="14.00" fill="#c83500">ExpectedResponse</text>
<polygon fill="#ddeeff" stroke="transparent" points="44.5,-4 44.5,-25 203.5,-25 203.5,-4 44.5,-4"/>
<polygon fill="none" stroke="#8ccbf2" points="44.5,-4 44.5,-25 203.5,-25 203.5,-4 44.5,-4"/>
<text text-anchor="start" x="47.5" y="-11.8" font-family="mono" font-size="14.00" fill="#c83500">contentType</text>
<text text-anchor="start" x="138.5" y="-11.8" font-family="Times,serif" font-size="14.00" fill="#000000"> : </text>
<text text-anchor="start" x="150.5" y="-11.8" font-family="mono" font-size="14.00" fill="#c83500">string</text>
</g>
<!-- Form&#45;&gt;ExpectedResponse -->
<g id="edge5" class="edge">
<title>Form&#45;&gt;ExpectedResponse</title>
<path fill="none" stroke="#000000" d="M123.5,-100.8506C123.5,-86.7022 123.5,-72.5946 123.5,-60.4513"/>
<polygon fill="#000000" stroke="#000000" points="127.0001,-60.3339 123.5,-50.334 120.0001,-60.334 127.0001,-60.3339"/>
<text text-anchor="start" x="123.5" y="-71.8" font-family="mono" font-size="14.00" fill="#c83500">response</text>
<text text-anchor="middle" x="112.5" y="-54.134" font-family="Times,serif" font-size="14.00" fill="#000000">0..1</text>
</g>
<!-- Thing -->
<g id="node5" class="node">
<title>Thing</title>
<polygon fill="#8ccbf2" stroke="transparent" points="566.5,-806.5 566.5,-827.5 819.5,-827.5 819.5,-806.5 566.5,-806.5"/>
<polygon fill="none" stroke="#8ccbf2" points="566.5,-806.5 566.5,-827.5 819.5,-827.5 819.5,-806.5 566.5,-806.5"/>
<text text-anchor="start" x="672" y="-814.3" font-family="mono" font-weight="bold" font-size="14.00" fill="#c83500">Thing</text>
<polygon fill="#ddeeff" stroke="transparent" points="566.5,-785.5 566.5,-806.5 819.5,-806.5 819.5,-785.5 566.5,-785.5"/>
<polygon fill="none" stroke="#8ccbf2" points="566.5,-785.5 566.5,-806.5 819.5,-806.5 819.5,-785.5 566.5,-785.5"/>
<text text-anchor="start" x="569.5" y="-793.3" font-family="mono" font-size="14.00" fill="#c83500">id</text>
<text text-anchor="start" x="586.5" y="-793.3" font-family="Times,serif" font-size="14.00" fill="#000000"> : </text>
<text text-anchor="start" x="598.5" y="-793.3" font-family="mono" font-size="14.00" fill="#c83500">anyURI</text>
<text text-anchor="start" x="648.5" y="-793.3" font-family="Times,serif" font-size="14.00" fill="#000000"> </text>
<text text-anchor="start" x="652.5" y="-793.3" font-family="Times,serif" font-style="italic" font-size="14.00" fill="#000000">(mandatory)</text>
<polygon fill="#ddeeff" stroke="transparent" points="566.5,-764.5 566.5,-785.5 819.5,-785.5 819.5,-764.5 566.5,-764.5"/>
<polygon fill="none" stroke="#8ccbf2" points="566.5,-764.5 566.5,-785.5 819.5,-785.5 819.5,-764.5 566.5,-764.5"/>
<text text-anchor="start" x="569.5" y="-772.3" font-family="mono" font-size="14.00" fill="#c83500">lastModified</text>
<text text-anchor="start" x="669.5" y="-772.3" font-family="Times,serif" font-size="14.00" fill="#000000"> : </text>
<text text-anchor="start" x="681.5" y="-772.3" font-family="mono" font-size="14.00" fill="#c83500">string</text>
<polygon fill="#ddeeff" stroke="transparent" points="566.5,-743.5 566.5,-764.5 819.5,-764.5 819.5,-743.5 566.5,-743.5"/>
<polygon fill="none" stroke="#8ccbf2" points="566.5,-743.5 566.5,-764.5 819.5,-764.5 819.5,-743.5 566.5,-743.5"/>
<text text-anchor="start" x="569.5" y="-751.3" font-family="mono" font-size="14.00" fill="#c83500">base</text>
<text text-anchor="start" x="603.5" y="-751.3" font-family="Times,serif" font-size="14.00" fill="#000000"> : </text>
<text text-anchor="start" x="615.5" y="-751.3" font-family="mono" font-size="14.00" fill="#c83500">anyURI</text>
<polygon fill="#ddeeff" stroke="transparent" points="566.5,-722.5 566.5,-743.5 819.5,-743.5 819.5,-722.5 566.5,-722.5"/>
<polygon fill="none" stroke="#8ccbf2" points="566.5,-722.5 566.5,-743.5 819.5,-743.5 819.5,-722.5 566.5,-722.5"/>
<text text-anchor="start" x="569.5" y="-730.3" font-family="mono" font-size="14.00" fill="#c83500">security</text>
<text text-anchor="start" x="636.5" y="-730.3" font-family="Times,serif" font-size="14.00" fill="#000000"> : array of </text>
<text text-anchor="start" x="694.5" y="-730.3" font-family="mono" font-size="14.00" fill="#c83500">string</text>
<text text-anchor="start" x="744.5" y="-730.3" font-family="Times,serif" font-size="14.00" fill="#000000"> </text>
<text text-anchor="start" x="748.5" y="-730.3" font-family="Times,serif" font-style="italic" font-size="14.00" fill="#000000">(mandatory)</text>
<polygon fill="#ddeeff" stroke="transparent" points="566.5,-701.5 566.5,-722.5 819.5,-722.5 819.5,-701.5 566.5,-701.5"/>
<polygon fill="none" stroke="#8ccbf2" points="566.5,-701.5 566.5,-722.5 819.5,-722.5 819.5,-701.5 566.5,-701.5"/>
<text text-anchor="start" x="569.5" y="-709.3" font-family="mono" font-size="14.00" fill="#c83500">created</text>
<text text-anchor="start" x="627.5" y="-709.3" font-family="Times,serif" font-size="14.00" fill="#000000"> : </text>
<text text-anchor="start" x="639.5" y="-709.3" font-family="mono" font-size="14.00" fill="#c83500">string</text>
<polygon fill="#ddeeff" stroke="transparent" points="566.5,-680.5 566.5,-701.5 819.5,-701.5 819.5,-680.5 566.5,-680.5"/>
<polygon fill="none" stroke="#8ccbf2" points="566.5,-680.5 566.5,-701.5 819.5,-701.5 819.5,-680.5 566.5,-680.5"/>
<text text-anchor="start" x="569.5" y="-688.3" font-family="mono" font-size="14.00" fill="#c83500">name</text>
<text text-anchor="start" x="603.5" y="-688.3" font-family="Times,serif" font-size="14.00" fill="#000000"> : </text>
<text text-anchor="start" x="615.5" y="-688.3" font-family="mono" font-size="14.00" fill="#c83500">string</text>
<text text-anchor="start" x="665.5" y="-688.3" font-family="Times,serif" font-size="14.00" fill="#000000"> </text>
<text text-anchor="start" x="669.5" y="-688.3" font-family="Times,serif" font-style="italic" font-size="14.00" fill="#000000">(mandatory)</text>
<polygon fill="#ddeeff" stroke="transparent" points="566.5,-659.5 566.5,-680.5 819.5,-680.5 819.5,-659.5 566.5,-659.5"/>
<polygon fill="none" stroke="#8ccbf2" points="566.5,-659.5 566.5,-680.5 819.5,-680.5 819.5,-659.5 566.5,-659.5"/>
<text text-anchor="start" x="569.5" y="-667.3" font-family="mono" font-size="14.00" fill="#c83500">description</text>
<text text-anchor="start" x="660.5" y="-667.3" font-family="Times,serif" font-size="14.00" fill="#000000"> : </text>
<text text-anchor="start" x="672.5" y="-667.3" font-family="mono" font-size="14.00" fill="#c83500">string</text>
<polygon fill="#ddeeff" stroke="transparent" points="566.5,-638.5 566.5,-659.5 819.5,-659.5 819.5,-638.5 566.5,-638.5"/>
<polygon fill="none" stroke="#8ccbf2" points="566.5,-638.5 566.5,-659.5 819.5,-659.5 819.5,-638.5 566.5,-638.5"/>
<text text-anchor="start" x="569.5" y="-646.3" font-family="mono" font-size="14.00" fill="#c83500">support</text>
<text text-anchor="start" x="627.5" y="-646.3" font-family="Times,serif" font-size="14.00" fill="#000000"> : </text>
<text text-anchor="start" x="639.5" y="-646.3" font-family="mono" font-size="14.00" fill="#c83500">string</text>
</g>
<!-- Thing&#45;&gt;MultiLanguage -->
<g id="edge10" class="edge">
<title>Thing&#45;&gt;MultiLanguage</title>
<path fill="none" stroke="#000000" d="M557.9058,-710.3578C429.4705,-685.208 249.4939,-640.8882 207.5,-584 182.8867,-550.6569 185.2592,-318.7515 215.5,-274 226.4152,-257.8473 239.5471,-267.205 255.5,-256 275.9846,-241.612 295.5288,-221.1147 309.5279,-204.8134"/>
<polygon fill="#000000" stroke="#000000" points="312.5686,-206.6349 316.3186,-196.7259 307.2077,-202.1336 312.5686,-206.6349"/>
<text text-anchor="start" x="191.5" y="-441.8" font-family="mono" font-size="14.00" fill="#c83500">descriptions</text>
<text text-anchor="middle" x="327.3186" y="-200.5259" font-family="Times,serif" font-size="14.00" fill="#000000">0..1</text>
</g>
<!-- Thing&#45;&gt;Link -->
<g id="edge9" class="edge">
<title>Thing&#45;&gt;Link</title>
<path fill="none" stroke="#000000" d="M803.7434,-634.7236C820.533,-619.8155 837.4557,-604.7893 853.1015,-590.897"/>
<polygon fill="#000000" stroke="#000000" points="855.5195,-593.4305 860.6733,-584.1737 850.8718,-588.1962 855.5195,-593.4305"/>
<text text-anchor="start" x="836.5" y="-605.8" font-family="mono" font-size="14.00" fill="#c83500">links</text>
<text text-anchor="middle" x="849.6733" y="-587.9737" font-family="Times,serif" font-size="14.00" fill="#000000">0..*</text>
</g>
<!-- Thing&#45;&gt;Form -->
<g id="edge12" class="edge">
<title>Thing&#45;&gt;Form</title>
<path fill="none" stroke="#000000" d="M557.9834,-718.7441C460.2034,-703.7159 327.1982,-674.1269 222.5,-617 203.7324,-606.7597 198.9023,-602.0852 187.5,-584 126.7141,-487.5876 116.8973,-353.3926 118.091,-266.2416"/>
<polygon fill="#000000" stroke="#000000" points="121.5927,-266.1805 118.2821,-256.1162 114.5939,-266.0484 121.5927,-266.1805"/>
<text text-anchor="start" x="135.5" y="-441.8" font-family="mono" font-size="14.00" fill="#c83500">forms</text>
<text text-anchor="middle" x="107.2821" y="-259.9162" font-family="Times,serif" font-size="14.00" fill="#000000">0..*</text>
</g>
<!-- Property -->
<g id="node6" class="node">
<title>Property</title>
<polygon fill="#8ccbf2" stroke="transparent" points="225.5,-527.5 225.5,-548.5 456.5,-548.5 456.5,-527.5 225.5,-527.5"/>
<polygon fill="none" stroke="#8ccbf2" points="225.5,-527.5 225.5,-548.5 456.5,-548.5 456.5,-527.5 225.5,-527.5"/>
<text text-anchor="start" x="307.5" y="-535.3" font-family="mono" font-weight="bold" font-size="14.00" fill="#c83500">Property</text>
<polygon fill="#ddeeff" stroke="transparent" points="225.5,-506.5 225.5,-527.5 456.5,-527.5 456.5,-506.5 225.5,-506.5"/>
<polygon fill="none" stroke="#8ccbf2" points="225.5,-506.5 225.5,-527.5 456.5,-527.5 456.5,-506.5 225.5,-506.5"/>
<text text-anchor="start" x="228.5" y="-514.3" font-family="mono" font-size="14.00" fill="#c83500">observable</text>
<text text-anchor="start" x="311.5" y="-514.3" font-family="Times,serif" font-size="14.00" fill="#000000"> : </text>
<text text-anchor="start" x="323.5" y="-514.3" font-family="mono" font-size="14.00" fill="#c83500">boolean</text>
<text text-anchor="start" x="381.5" y="-514.3" font-family="Times,serif" font-size="14.00" fill="#000000"> </text>
<text text-anchor="start" x="385.5" y="-514.3" font-family="Times,serif" font-style="italic" font-size="14.00" fill="#000000">(mandatory)</text>
</g>
<!-- Thing&#45;&gt;Property -->
<g id="edge13" class="edge">
<title>Thing&#45;&gt;Property</title>
<path fill="none" stroke="#000000" d="M557.9172,-654.7385C499.9949,-620.8408 435.7275,-583.2297 392.1917,-557.7514"/>
<polygon fill="#000000" stroke="#000000" points="393.8962,-554.6936 383.4977,-552.6634 390.3605,-560.7351 393.8962,-554.6936"/>
<text text-anchor="start" x="485.5" y="-605.8" font-family="mono" font-size="14.00" fill="#c83500">properties</text>
<text text-anchor="middle" x="372.4977" y="-556.4634" font-family="Times,serif" font-size="14.00" fill="#000000">0..1</text>
</g>
<!-- Action -->
<g id="node8" class="node">
<title>Action</title>
<polygon fill="#8ccbf2" stroke="transparent" points="490.5,-537.5 490.5,-558.5 721.5,-558.5 721.5,-537.5 490.5,-537.5"/>
<polygon fill="none" stroke="#8ccbf2" points="490.5,-537.5 490.5,-558.5 721.5,-558.5 721.5,-537.5 490.5,-537.5"/>
<text text-anchor="start" x="581" y="-545.3" font-family="mono" font-weight="bold" font-size="14.00" fill="#c83500">Action</text>
<polygon fill="#ddeeff" stroke="transparent" points="490.5,-516.5 490.5,-537.5 721.5,-537.5 721.5,-516.5 490.5,-516.5"/>
<polygon fill="none" stroke="#8ccbf2" points="490.5,-516.5 490.5,-537.5 721.5,-537.5 721.5,-516.5 490.5,-516.5"/>
<text text-anchor="start" x="493.5" y="-524.3" font-family="mono" font-size="14.00" fill="#c83500">idempotent</text>
<text text-anchor="start" x="576.5" y="-524.3" font-family="Times,serif" font-size="14.00" fill="#000000"> : </text>
<text text-anchor="start" x="588.5" y="-524.3" font-family="mono" font-size="14.00" fill="#c83500">boolean</text>
<text text-anchor="start" x="646.5" y="-524.3" font-family="Times,serif" font-size="14.00" fill="#000000"> </text>
<text text-anchor="start" x="650.5" y="-524.3" font-family="Times,serif" font-style="italic" font-size="14.00" fill="#000000">(mandatory)</text>
<polygon fill="#ddeeff" stroke="transparent" points="490.5,-495.5 490.5,-516.5 721.5,-516.5 721.5,-495.5 490.5,-495.5"/>
<polygon fill="none" stroke="#8ccbf2" points="490.5,-495.5 490.5,-516.5 721.5,-516.5 721.5,-495.5 490.5,-495.5"/>
<text text-anchor="start" x="493.5" y="-503.3" font-family="mono" font-size="14.00" fill="#c83500">safe</text>
<text text-anchor="start" x="527.5" y="-503.3" font-family="Times,serif" font-size="14.00" fill="#000000"> : </text>
<text text-anchor="start" x="539.5" y="-503.3" font-family="mono" font-size="14.00" fill="#c83500">boolean</text>
<text text-anchor="start" x="597.5" y="-503.3" font-family="Times,serif" font-size="14.00" fill="#000000"> </text>
<text text-anchor="start" x="601.5" y="-503.3" font-family="Times,serif" font-style="italic" font-size="14.00" fill="#000000">(mandatory)</text>
</g>
<!-- Thing&#45;&gt;Action -->
<g id="edge11" class="edge">
<title>Thing&#45;&gt;Action</title>
<path fill="none" stroke="#000000" d="M650.7837,-634.7236C641.574,-612.9165 632.2574,-590.8566 624.4891,-572.4626"/>
<polygon fill="#000000" stroke="#000000" points="627.6915,-571.0491 620.5766,-563.1987 621.243,-573.7725 627.6915,-571.0491"/>
<text text-anchor="start" x="641.5" y="-605.8" font-family="mono" font-size="14.00" fill="#c83500">actions</text>
<text text-anchor="middle" x="609.5766" y="-566.9987" font-family="Times,serif" font-size="14.00" fill="#000000">0..1</text>
</g>
<!-- Event -->
<g id="node9" class="node">
<title>Event</title>
<polygon fill="#8ccbf2" stroke="transparent" points="755.5,-516.5 755.5,-537.5 803.5,-537.5 803.5,-516.5 755.5,-516.5"/>
<polygon fill="none" stroke="#8ccbf2" points="755.5,-516.5 755.5,-537.5 803.5,-537.5 803.5,-516.5 755.5,-516.5"/>
<text text-anchor="start" x="758.5" y="-524.3" font-family="mono" font-weight="bold" font-size="14.00" fill="#c83500">Event</text>
</g>
<!-- Thing&#45;&gt;Event -->
<g id="edge6" class="edge">
<title>Thing&#45;&gt;Event</title>
<path fill="none" stroke="#000000" d="M734.2163,-634.7236C746.5836,-605.4399 759.1436,-575.7003 767.8884,-554.994"/>
<polygon fill="#000000" stroke="#000000" points="771.191,-556.1702 771.8574,-545.5964 764.7425,-553.4468 771.191,-556.1702"/>
<text text-anchor="start" x="746.5" y="-605.8" font-family="mono" font-size="14.00" fill="#c83500">events</text>
<text text-anchor="middle" x="760.8574" y="-549.3964" font-family="Times,serif" font-size="14.00" fill="#000000">0..1</text>
</g>
<!-- Versioning -->
<g id="node10" class="node">
<title>Versioning</title>
<polygon fill="#8ccbf2" stroke="transparent" points="1046.5,-527.5 1046.5,-548.5 1253.5,-548.5 1253.5,-527.5 1046.5,-527.5"/>
<polygon fill="none" stroke="#8ccbf2" points="1046.5,-527.5 1046.5,-548.5 1253.5,-548.5 1253.5,-527.5 1046.5,-527.5"/>
<text text-anchor="start" x="1108.5" y="-535.3" font-family="mono" font-weight="bold" font-size="14.00" fill="#c83500">Versioning</text>
<polygon fill="#ddeeff" stroke="transparent" points="1046.5,-506.5 1046.5,-527.5 1253.5,-527.5 1253.5,-506.5 1046.5,-506.5"/>
<polygon fill="none" stroke="#8ccbf2" points="1046.5,-506.5 1046.5,-527.5 1253.5,-527.5 1253.5,-506.5 1046.5,-506.5"/>
<text text-anchor="start" x="1049.5" y="-514.3" font-family="mono" font-size="14.00" fill="#c83500">instance</text>
<text text-anchor="start" x="1116.5" y="-514.3" font-family="Times,serif" font-size="14.00" fill="#000000"> : </text>
<text text-anchor="start" x="1128.5" y="-514.3" font-family="mono" font-size="14.00" fill="#c83500">string</text>
<text text-anchor="start" x="1178.5" y="-514.3" font-family="Times,serif" font-size="14.00" fill="#000000"> </text>
<text text-anchor="start" x="1182.5" y="-514.3" font-family="Times,serif" font-style="italic" font-size="14.00" fill="#000000">(mandatory)</text>
</g>
<!-- Thing&#45;&gt;Versioning -->
<g id="edge7" class="edge">
<title>Thing&#45;&gt;Versioning</title>
<path fill="none" stroke="#000000" d="M827.2273,-674.2249C888.7227,-646.9971 962.4175,-614.1267 1028.5,-584 1047.626,-575.2806 1068.3814,-565.6506 1087.2132,-556.8487"/>
<polygon fill="#000000" stroke="#000000" points="1088.7141,-560.0107 1096.2878,-552.6019 1085.747,-553.6706 1088.7141,-560.0107"/>
<text text-anchor="start" x="983.5" y="-605.8" font-family="mono" font-size="14.00" fill="#c83500">version</text>
<text text-anchor="middle" x="1085.2878" y="-556.4019" font-family="Times,serif" font-size="14.00" fill="#000000">0..1</text>
</g>
<!-- SecurityScheme -->
<g id="node12" class="node">
<title>SecurityScheme</title>
<polygon fill="#f2f2f2" stroke="transparent" points="1287.5,-516.5 1287.5,-537.5 1409.5,-537.5 1409.5,-516.5 1287.5,-516.5"/>
<polygon fill="none" stroke="#8c8c8c" points="1287.5,-516.5 1287.5,-537.5 1409.5,-537.5 1409.5,-516.5 1287.5,-516.5"/>
<text text-anchor="start" x="1290.5" y="-524.3" font-family="mono" font-weight="bold" font-size="14.00" fill="#000000">SecurityScheme</text>
</g>
<!-- Thing&#45;&gt;SecurityScheme -->
<g id="edge8" class="edge">
<title>Thing&#45;&gt;SecurityScheme</title>
<path fill="none" stroke="#000000" d="M827.0131,-713.0839C947.1057,-691.5393 1125.713,-651.1985 1269.5,-584 1287.3777,-575.6449 1305.4199,-563.121 1319.7399,-551.9861"/>
<polygon fill="#000000" stroke="#000000" points="1322.0731,-554.6022 1327.7118,-545.6325 1317.7102,-549.1281 1322.0731,-554.6022"/>
<text text-anchor="start" x="1225.5" y="-605.8" font-family="mono" font-size="14.00" fill="#c83500">securityDefinitions</text>
<text text-anchor="middle" x="1316.7118" y="-549.4325" font-family="Times,serif" font-size="14.00" fill="#000000">1..1</text>
</g>
<!-- Property&#45;&gt;InteractionPattern -->
<g id="edge21" class="edge">
<title>Property&#45;&gt;InteractionPattern</title>
<path fill="none" stroke="#000000" d="M351.13,-502.2344C359.3114,-482.7889 371.0055,-454.9942 381.7808,-429.3833"/>
<polygon fill="#ffffff" stroke="#000000" points="385.0489,-430.6407 385.7009,-420.066 378.5967,-427.926 385.0489,-430.6407"/>
</g>
<!-- Action&#45;&gt;InteractionPattern -->
<g id="edge20" class="edge">
<title>Action&#45;&gt;InteractionPattern</title>
<path fill="none" stroke="#000000" d="M562.9709,-491.9144C540.2219,-472.8796 511.5267,-448.8693 485.1215,-426.7751"/>
<polygon fill="#ffffff" stroke="#000000" points="487.2922,-424.0278 477.3767,-420.2948 482.8001,-429.3964 487.2922,-424.0278"/>
</g>
<!-- Action&#45;&gt;DataSchema -->
<g id="edge14" class="edge">
<title>Action&#45;&gt;DataSchema</title>
<path fill="none" stroke="#000000" d="M599.3239,-491.6954C593.1671,-446.8406 587.6914,-368.4147 611.5,-307 627.8902,-264.7211 664.6572,-226.8579 691.3972,-203.3674"/>
<polygon fill="#000000" stroke="#000000" points="693.6895,-206.0124 698.9935,-196.8408 689.1277,-200.7029 693.6895,-206.0124"/>
<text text-anchor="start" x="611.5" y="-359.8" font-family="mono" font-size="14.00" fill="#c83500">output</text>
<text text-anchor="middle" x="687.9935" y="-200.6408" font-family="Times,serif" font-size="14.00" fill="#000000">0..1</text>
</g>
<!-- Action&#45;&gt;DataSchema -->
<g id="edge15" class="edge">
<title>Action&#45;&gt;DataSchema</title>
<path fill="none" stroke="#000000" d="M626.8566,-491.6602C638.3511,-471.2083 652.0644,-444.7794 661.5,-420 689.9931,-345.1725 709.18,-252.2533 717.6172,-206.556"/>
<polygon fill="#000000" stroke="#000000" points="721.0985,-206.9736 719.4384,-196.5096 714.2108,-205.7249 721.0985,-206.9736"/>
<text text-anchor="start" x="696.5" y="-359.8" font-family="mono" font-size="14.00" fill="#c83500">input</text>
<text text-anchor="middle" x="730.4384" y="-200.3096" font-family="Times,serif" font-size="14.00" fill="#000000">0..1</text>
</g>
<!-- Event&#45;&gt;InteractionPattern -->
<g id="edge19" class="edge">
<title>Event&#45;&gt;InteractionPattern</title>
<path fill="none" stroke="#000000" d="M770.0333,-509.3203C762.6974,-496.886 751.4436,-480.9182 737.5,-471 675.9899,-427.2474 647.2338,-443.4957 575.5,-420 556.8143,-413.8797 536.9908,-407.2512 517.793,-400.7606"/>
<polygon fill="#ffffff" stroke="#000000" points="518.719,-397.379 508.1247,-397.4857 516.4732,-404.009 518.719,-397.379"/>
</g>
<!-- Event&#45;&gt;DataSchema -->
<g id="edge16" class="edge">
<title>Event&#45;&gt;DataSchema</title>
<path fill="none" stroke="#000000" d="M776.5157,-509.2276C767.166,-451.9815 738.3953,-275.8239 727.1102,-206.7272"/>
<polygon fill="#000000" stroke="#000000" points="730.521,-205.8965 725.4548,-196.5915 723.6125,-207.0249 730.521,-205.8965"/>
<text text-anchor="start" x="761.5" y="-359.8" font-family="mono" font-size="14.00" fill="#c83500">cancellation</text>
<text text-anchor="middle" x="714.4548" y="-200.3915" font-family="Times,serif" font-size="14.00" fill="#000000">0..1</text>
</g>
<!-- Event&#45;&gt;DataSchema -->
<g id="edge17" class="edge">
<title>Event&#45;&gt;DataSchema</title>
<path fill="none" stroke="#000000" d="M791.9997,-509.3621C799.9104,-498.1174 810.4985,-483.486 820.5,-471 839.3984,-447.407 854.8091,-448.2751 865.5,-420 883.262,-373.0236 885.9501,-352.8701 865.5,-307 844.9145,-260.8261 798.6295,-224.3078 764.2619,-202.1832"/>
<polygon fill="#000000" stroke="#000000" points="765.692,-198.9487 755.3608,-196.6001 761.9725,-204.8787 765.692,-198.9487"/>
<text text-anchor="start" x="880.5" y="-359.8" font-family="mono" font-size="14.00" fill="#c83500">data</text>
<text text-anchor="middle" x="766.3608" y="-200.4001" font-family="Times,serif" font-size="14.00" fill="#000000">0..1</text>
</g>
<!-- Event&#45;&gt;DataSchema -->
<g id="edge18" class="edge">
<title>Event&#45;&gt;DataSchema</title>
<path fill="none" stroke="#000000" d="M789.3024,-509.2435C796.5812,-497.0937 807.478,-481.4954 820.5,-471 835.9948,-458.5116 843.7501,-461.9994 861.5,-453 887.6086,-439.7626 903.8788,-445.3596 918.5,-420 943.5851,-376.4913 942.3679,-351.1882 918.5,-307 890.2783,-254.7513 830.5324,-220.3123 784.3786,-200.3579"/>
<polygon fill="#000000" stroke="#000000" points="785.6229,-197.0844 775.0478,-196.4389 782.9122,-203.5383 785.6229,-197.0844"/>
<text text-anchor="start" x="937.5" y="-359.8" font-family="mono" font-size="14.00" fill="#c83500">subscription</text>
<text text-anchor="middle" x="786.0478" y="-185.2389" font-family="Times,serif" font-size="14.00" fill="#000000">0..1</text>
</g>
</g>
</svg>
