<?xml version="1.0" encoding="UTF-8" standalone="no"?>
<!DOCTYPE svg PUBLIC "-//W3C//DTD SVG 1.1//EN"
 "http://www.w3.org/Graphics/SVG/1.1/DTD/svg11.dtd">
<!-- Generated by graphviz version 2.38.0 (20140413.2041)
 -->
<!-- Title: %3 Pages: 1 -->
<svg width="1211pt" height="515pt"
 viewBox="0.00 0.00 1210.58 515.00" xmlns="http://www.w3.org/2000/svg" xmlns:xlink="http://www.w3.org/1999/xlink">
<g id="graph0" class="graph" transform="scale(1 1) rotate(0) translate(4 511)">
<title>%3</title>
<polygon fill="white" stroke="none" points="-4,4 -4,-511 1206.58,-511 1206.58,4 -4,4"/>
<!-- ActionAffordance -->
<g id="node1" class="node"><title>ActionAffordance</title>
<polygon fill="#8ccbf2" stroke="none" points="636.583,-254.5 636.583,-275.5 795.583,-275.5 795.583,-254.5 636.583,-254.5"/>
<polygon fill="none" stroke="#8ccbf2" points="636.583,-254.5 636.583,-275.5 795.583,-275.5 795.583,-254.5 636.583,-254.5"/>
<text text-anchor="start" x="649.583" y="-262.3" font-family="mono" font-weight="bold" font-size="14.00" fill="#c83500">ActionAffordance</text>
<polygon fill="#ddeeff" stroke="none" points="636.583,-233.5 636.583,-254.5 795.583,-254.5 795.583,-233.5 636.583,-233.5"/>
<polygon fill="none" stroke="#8ccbf2" points="636.583,-233.5 636.583,-254.5 795.583,-254.5 795.583,-233.5 636.583,-233.5"/>
<text text-anchor="start" x="639.583" y="-241.3" font-family="mono" font-size="14.00" fill="#c83500">safe</text>
<text text-anchor="start" x="673.583" y="-241.3" font-family="Times,serif" font-size="14.00"> : </text>
<text text-anchor="start" x="685.583" y="-241.3" font-family="mono" font-size="14.00" fill="#c83500">boolean</text>
<polygon fill="#ddeeff" stroke="none" points="636.583,-212.5 636.583,-233.5 795.583,-233.5 795.583,-212.5 636.583,-212.5"/>
<polygon fill="none" stroke="#8ccbf2" points="636.583,-212.5 636.583,-233.5 795.583,-233.5 795.583,-212.5 636.583,-212.5"/>
<text text-anchor="start" x="639.583" y="-220.3" font-family="mono" font-size="14.00" fill="#c83500">idempotent</text>
<text text-anchor="start" x="722.583" y="-220.3" font-family="Times,serif" font-size="14.00"> : </text>
<text text-anchor="start" x="734.583" y="-220.3" font-family="mono" font-size="14.00" fill="#c83500">boolean</text>
</g>
<!-- InteractionAffordance -->
<g id="node3" class="node"><title>InteractionAffordance</title>
<polygon fill="#8ccbf2" stroke="none" points="332.583,-132.5 332.583,-153.5 741.583,-153.5 741.583,-132.5 332.583,-132.5"/>
<polygon fill="none" stroke="#8ccbf2" points="332.583,-132.5 332.583,-153.5 741.583,-153.5 741.583,-132.5 332.583,-132.5"/>
<text text-anchor="start" x="450.083" y="-140.3" font-family="mono" font-weight="bold" font-size="14.00" fill="#c83500">InteractionAffordance</text>
<polygon fill="#ddeeff" stroke="none" points="332.583,-111.5 332.583,-132.5 741.583,-132.5 741.583,-111.5 332.583,-111.5"/>
<polygon fill="none" stroke="#8ccbf2" points="332.583,-111.5 332.583,-132.5 741.583,-132.5 741.583,-111.5 332.583,-111.5"/>
<text text-anchor="start" x="335.583" y="-119.3" font-family="mono" font-size="14.00" fill="#c83500">title</text>
<text text-anchor="start" x="377.583" y="-119.3" font-family="Times,serif" font-size="14.00"> : Map of </text>
<text text-anchor="start" x="433.583" y="-119.3" font-family="mono" font-size="14.00" fill="#c83500">string</text>
<text text-anchor="start" x="483.583" y="-119.3" font-family="mono" font-size="14.00" fill="#c83500">titles</text>
<text text-anchor="start" x="533.583" y="-119.3" font-family="Times,serif" font-size="14.00"> : Map of </text>
<text text-anchor="start" x="589.583" y="-119.3" font-family="mono" font-size="14.00" fill="#c83500">string</text>
<polygon fill="#ddeeff" stroke="none" points="332.583,-90.5 332.583,-111.5 741.583,-111.5 741.583,-90.5 332.583,-90.5"/>
<polygon fill="none" stroke="#8ccbf2" points="332.583,-90.5 332.583,-111.5 741.583,-111.5 741.583,-90.5 332.583,-90.5"/>
<text text-anchor="start" x="335.583" y="-98.3" font-family="mono" font-size="14.00" fill="#c83500">description</text>
<text text-anchor="start" x="426.583" y="-98.3" font-family="Times,serif" font-size="14.00"> : Map of </text>
<text text-anchor="start" x="482.583" y="-98.3" font-family="mono" font-size="14.00" fill="#c83500">string</text>
<text text-anchor="start" x="532.583" y="-98.3" font-family="mono" font-size="14.00" fill="#c83500">descriptions</text>
<text text-anchor="start" x="632.583" y="-98.3" font-family="Times,serif" font-size="14.00"> : Map of </text>
<text text-anchor="start" x="688.583" y="-98.3" font-family="mono" font-size="14.00" fill="#c83500">string</text>
</g>
<!-- ActionAffordance&#45;&gt;InteractionAffordance -->
<g id="edge15" class="edge"><title>ActionAffordance&#45;&gt;InteractionAffordance</title>
<path fill="none" stroke="black" d="M663.809,-208.791C642.844,-194.736 618.498,-178.415 596.75,-163.836"/>
<polygon fill="white" stroke="black" points="598.496,-160.792 588.241,-158.131 594.598,-166.607 598.496,-160.792"/>
</g>
<!-- DataSchema -->
<g id="node9" class="node"><title>DataSchema</title>
<polygon fill="#f2f2f2" stroke="none" points="252.583,-7 252.583,-28 341.583,-28 341.583,-7 252.583,-7"/>
<polygon fill="none" stroke="#8c8c8c" points="252.583,-7 252.583,-28 341.583,-28 341.583,-7 252.583,-7"/>
<text text-anchor="start" x="255.583" y="-14.8" font-family="mono" font-weight="bold" font-size="14.00">DataSchema</text>
</g>
<!-- ActionAffordance&#45;&gt;DataSchema -->
<g id="edge4" class="edge"><title>ActionAffordance&#45;&gt;DataSchema</title>
<path fill="none" stroke="black" d="M741.075,-208.68C763.088,-174.015 787.089,-121.177 757.583,-87 706.893,-28.2847 473.471,-19.378 359.52,-18.6051"/>
<polygon fill="black" stroke="black" points="359.223,-15.1037 349.206,-18.5552 359.189,-22.1037 359.223,-15.1037"/>
<text text-anchor="start" x="771.583" y="-118.8" font-family="mono" font-size="14.00" fill="#c83500">input</text>
<text text-anchor="middle" x="360.206" y="-22.3552" font-family="Times,serif" font-size="14.00">0..1</text>
</g>
<!-- ActionAffordance&#45;&gt;DataSchema -->
<g id="edge5" class="edge"><title>ActionAffordance&#45;&gt;DataSchema</title>
<path fill="none" stroke="black" d="M774.049,-208.82C791.341,-195.328 808.155,-178.206 817.583,-158 830.926,-129.404 835.508,-112.97 817.583,-87 794.092,-52.965 770.928,-63.0857 730.583,-54 600.902,-24.7953 444.595,-19.1981 359.433,-18.556"/>
<polygon fill="black" stroke="black" points="359.426,-15.056 349.407,-18.501 359.387,-22.0559 359.426,-15.056"/>
<text text-anchor="start" x="829.583" y="-118.8" font-family="mono" font-size="14.00" fill="#c83500">output</text>
<text text-anchor="middle" x="360.407" y="-7.30101" font-family="Times,serif" font-size="14.00">0..1</text>
</g>
<!-- EventAffordance -->
<g id="node2" class="node"><title>EventAffordance</title>
<polygon fill="#8ccbf2" stroke="none" points="140.583,-233.5 140.583,-254.5 270.583,-254.5 270.583,-233.5 140.583,-233.5"/>
<polygon fill="none" stroke="#8ccbf2" points="140.583,-233.5 140.583,-254.5 270.583,-254.5 270.583,-233.5 140.583,-233.5"/>
<text text-anchor="start" x="143.583" y="-241.3" font-family="mono" font-weight="bold" font-size="14.00" fill="#c83500">EventAffordance</text>
</g>
<!-- EventAffordance&#45;&gt;InteractionAffordance -->
<g id="edge16" class="edge"><title>EventAffordance&#45;&gt;InteractionAffordance</title>
<path fill="none" stroke="black" d="M252.656,-226.434C299.077,-209.605 371.602,-183.312 431.731,-161.513"/>
<polygon fill="white" stroke="black" points="433.061,-164.754 441.269,-158.055 430.675,-158.173 433.061,-164.754"/>
</g>
<!-- EventAffordance&#45;&gt;DataSchema -->
<g id="edge6" class="edge"><title>EventAffordance&#45;&gt;DataSchema</title>
<path fill="none" stroke="black" d="M132.545,-231.186C90.0417,-219.865 39.8146,-198.396 13.5832,-158 -3.60226,-131.535 -5.18879,-112.365 13.5832,-87 39.4577,-52.0385 158.51,-33.3474 233.721,-24.8542"/>
<polygon fill="black" stroke="black" points="234.47,-28.2931 244.028,-23.7228 233.706,-21.3349 234.47,-28.2931"/>
<text text-anchor="start" x="13.5832" y="-118.8" font-family="mono" font-size="14.00" fill="#c83500">subscription</text>
<text text-anchor="middle" x="233.028" y="-12.5228" font-family="Times,serif" font-size="14.00">0..1</text>
</g>
<!-- EventAffordance&#45;&gt;DataSchema -->
<g id="edge7" class="edge"><title>EventAffordance&#45;&gt;DataSchema</title>
<path fill="none" stroke="black" d="M189.983,-226.383C176.317,-210.14 157.446,-184.356 149.583,-158 140.562,-127.761 135.789,-115.381 149.583,-87 165.179,-54.9131 201.422,-37.9286 234.017,-28.9582"/>
<polygon fill="black" stroke="black" points="235.159,-32.2793 243.989,-26.4237 233.435,-25.495 235.159,-32.2793"/>
<text text-anchor="start" x="149.583" y="-118.8" font-family="mono" font-size="14.00" fill="#c83500">data</text>
<text text-anchor="middle" x="232.989" y="-30.2237" font-family="Times,serif" font-size="14.00">0..1</text>
</g>
<!-- EventAffordance&#45;&gt;DataSchema -->
<g id="edge8" class="edge"><title>EventAffordance&#45;&gt;DataSchema</title>
<path fill="none" stroke="black" d="M202.342,-226.385C197.533,-196.331 191.382,-132.907 214.583,-87 223.874,-68.6164 240.602,-53.358 256.536,-41.9849"/>
<polygon fill="black" stroke="black" points="258.944,-44.5811 265.255,-36.0712 255.014,-38.788 258.944,-44.5811"/>
<text text-anchor="start" x="214.583" y="-118.8" font-family="mono" font-size="14.00" fill="#c83500">cancellation</text>
<text text-anchor="middle" x="276.255" y="-39.8712" font-family="Times,serif" font-size="14.00">0..1</text>
</g>
<!-- Form -->
<g id="node7" class="node"><title>Form</title>
<polygon fill="#f2f2f2" stroke="none" points="912.583,-7 912.583,-28 952.583,-28 952.583,-7 912.583,-7"/>
<polygon fill="none" stroke="#8c8c8c" points="912.583,-7 912.583,-28 952.583,-28 952.583,-7 912.583,-7"/>
<text text-anchor="start" x="915.583" y="-14.8" font-family="mono" font-weight="bold" font-size="14.00">Form</text>
</g>
<!-- InteractionAffordance&#45;&gt;Form -->
<g id="edge1" class="edge"><title>InteractionAffordance&#45;&gt;Form</title>
<path fill="none" stroke="black" d="M670.099,-86.9411C748.873,-66.5512 842.934,-42.2046 894.347,-28.8971"/>
<polygon fill="black" stroke="black" points="895.543,-32.203 904.346,-26.3088 893.788,-25.4263 895.543,-32.203"/>
<text text-anchor="start" x="793.583" y="-57.8" font-family="mono" font-size="14.00" fill="#c83500">forms</text>
<text text-anchor="middle" x="893.346" y="-30.1088" font-family="Times,serif" font-size="14.00">1..*</text>
</g>
<!-- InteractionAffordance&#45;&gt;DataSchema -->
<g id="edge14" class="edge"><title>InteractionAffordance&#45;&gt;DataSchema</title>
<path fill="none" stroke="black" d="M455.665,-86.9411C419.284,-71.4034 377.523,-53.568 345.919,-40.0707"/>
<polygon fill="black" stroke="black" points="347.026,-36.7374 336.455,-36.0285 344.276,-43.1749 347.026,-36.7374"/>
<text text-anchor="start" x="409.583" y="-57.8" font-family="mono" font-size="14.00" fill="#c83500">uriVariables</text>
<text text-anchor="middle" x="325.455" y="-39.8285" font-family="Times,serif" font-size="14.00">0..*</text>
</g>
<!-- PropertyAffordance -->
<g id="node4" class="node"><title>PropertyAffordance</title>
<polygon fill="#8ccbf2" stroke="none" points="443.583,-244.5 443.583,-265.5 602.583,-265.5 602.583,-244.5 443.583,-244.5"/>
<polygon fill="none" stroke="#8ccbf2" points="443.583,-244.5 443.583,-265.5 602.583,-265.5 602.583,-244.5 443.583,-244.5"/>
<text text-anchor="start" x="448.583" y="-252.3" font-family="mono" font-weight="bold" font-size="14.00" fill="#c83500">PropertyAffordance</text>
<polygon fill="#ddeeff" stroke="none" points="443.583,-223.5 443.583,-244.5 602.583,-244.5 602.583,-223.5 443.583,-223.5"/>
<polygon fill="none" stroke="#8ccbf2" points="443.583,-223.5 443.583,-244.5 602.583,-244.5 602.583,-223.5 443.583,-223.5"/>
<text text-anchor="start" x="446.583" y="-231.3" font-family="mono" font-size="14.00" fill="#c83500">observable</text>
<text text-anchor="start" x="529.583" y="-231.3" font-family="Times,serif" font-size="14.00"> : </text>
<text text-anchor="start" x="541.583" y="-231.3" font-family="mono" font-size="14.00" fill="#c83500">boolean</text>
</g>
<!-- PropertyAffordance&#45;&gt;InteractionAffordance -->
<g id="edge17" class="edge"><title>PropertyAffordance&#45;&gt;InteractionAffordance</title>
<path fill="none" stroke="black" d="M525.416,-219.216C527.11,-204.697 529.316,-185.792 531.319,-168.621"/>
<polygon fill="white" stroke="black" points="534.851,-168.547 532.534,-158.209 527.899,-167.736 534.851,-168.547"/>
</g>
<!-- Thing -->
<g id="node5" class="node"><title>Thing</title>
<polygon fill="#8ccbf2" stroke="none" points="673.583,-482 673.583,-503 1082.58,-503 1082.58,-482 673.583,-482"/>
<polygon fill="none" stroke="#8ccbf2" points="673.583,-482 673.583,-503 1082.58,-503 1082.58,-482 673.583,-482"/>
<text text-anchor="start" x="857.083" y="-489.8" font-family="mono" font-weight="bold" font-size="14.00" fill="#c83500">Thing</text>
<polygon fill="#ddeeff" stroke="none" points="673.583,-461 673.583,-482 1082.58,-482 1082.58,-461 673.583,-461"/>
<polygon fill="none" stroke="#8ccbf2" points="673.583,-461 673.583,-482 1082.58,-482 1082.58,-461 673.583,-461"/>
<text text-anchor="start" x="676.583" y="-468.8" font-family="mono" font-size="14.00" fill="#c83500">@context</text>
<text text-anchor="start" x="743.583" y="-468.8" font-family="Times,serif" font-size="14.00"> : </text>
<text text-anchor="start" x="755.583" y="-468.8" font-family="mono" font-style="italic" font-size="14.00" fill="#c83500">anyURI</text>
<text text-anchor="start" x="805.583" y="-468.8" font-family="Times,serif" font-style="italic" font-size="14.00"> or Array</text>
<text text-anchor="start" x="857.583" y="-468.8" font-family="Times,serif" font-size="14.00"> </text>
<text text-anchor="start" x="861.583" y="-468.8" font-family="Times,serif" font-style="italic" font-size="14.00">(mandatory)</text>
<polygon fill="#ddeeff" stroke="none" points="673.583,-440 673.583,-461 1082.58,-461 1082.58,-440 673.583,-440"/>
<polygon fill="none" stroke="#8ccbf2" points="673.583,-440 673.583,-461 1082.58,-461 1082.58,-440 673.583,-440"/>
<text text-anchor="start" x="676.583" y="-447.8" font-family="mono" font-size="14.00" fill="#c83500">@type</text>
<text text-anchor="start" x="718.583" y="-447.8" font-family="Times,serif" font-size="14.00"> : </text>
<text text-anchor="start" x="730.583" y="-447.8" font-family="Times,serif" font-style="italic" font-size="14.00">(Array of) </text>
<text text-anchor="start" x="789.583" y="-447.8" font-family="mono" font-size="14.00" fill="#c83500">string</text>
<polygon fill="#ddeeff" stroke="none" points="673.583,-419 673.583,-440 1082.58,-440 1082.58,-419 673.583,-419"/>
<polygon fill="none" stroke="#8ccbf2" points="673.583,-419 673.583,-440 1082.58,-440 1082.58,-419 673.583,-419"/>
<text text-anchor="start" x="676.583" y="-426.8" font-family="mono" font-size="14.00" fill="#c83500">id</text>
<text text-anchor="start" x="693.583" y="-426.8" font-family="Times,serif" font-size="14.00"> : </text>
<text text-anchor="start" x="705.583" y="-426.8" font-family="mono" font-size="14.00" fill="#c83500">anyURI</text>
<text text-anchor="start" x="755.583" y="-426.8" font-family="Times,serif" font-size="14.00"> </text>
<text text-anchor="start" x="759.583" y="-426.8" font-family="Times,serif" font-style="italic" font-size="14.00">(mandatory)</text>
<polygon fill="#ddeeff" stroke="none" points="673.583,-398 673.583,-419 1082.58,-419 1082.58,-398 673.583,-398"/>
<polygon fill="none" stroke="#8ccbf2" points="673.583,-398 673.583,-419 1082.58,-419 1082.58,-398 673.583,-398"/>
<text text-anchor="start" x="676.583" y="-405.8" font-family="mono" font-size="14.00" fill="#c83500">title</text>
<text text-anchor="start" x="718.583" y="-405.8" font-family="Times,serif" font-size="14.00"> : Map of </text>
<text text-anchor="start" x="774.583" y="-405.8" font-family="mono" font-size="14.00" fill="#c83500">string</text>
<text text-anchor="start" x="824.583" y="-405.8" font-family="Times,serif" font-size="14.00"> </text>
<text text-anchor="start" x="828.583" y="-405.8" font-family="Times,serif" font-style="italic" font-size="14.00">(mandatory)</text>
<text text-anchor="start" x="896.583" y="-405.8" font-family="mono" font-size="14.00" fill="#c83500">titles</text>
<text text-anchor="start" x="946.583" y="-405.8" font-family="Times,serif" font-size="14.00"> : Map of </text>
<text text-anchor="start" x="1002.58" y="-405.8" font-family="mono" font-size="14.00" fill="#c83500">string</text>
<polygon fill="#ddeeff" stroke="none" points="673.583,-377 673.583,-398 1082.58,-398 1082.58,-377 673.583,-377"/>
<polygon fill="none" stroke="#8ccbf2" points="673.583,-377 673.583,-398 1082.58,-398 1082.58,-377 673.583,-377"/>
<text text-anchor="start" x="676.583" y="-384.8" font-family="mono" font-size="14.00" fill="#c83500">created</text>
<text text-anchor="start" x="734.583" y="-384.8" font-family="Times,serif" font-size="14.00"> : </text>
<text text-anchor="start" x="746.583" y="-384.8" font-family="mono" font-size="14.00" fill="#c83500">dateTime</text>
<polygon fill="#ddeeff" stroke="none" points="673.583,-356 673.583,-377 1082.58,-377 1082.58,-356 673.583,-356"/>
<polygon fill="none" stroke="#8ccbf2" points="673.583,-356 673.583,-377 1082.58,-377 1082.58,-356 673.583,-356"/>
<text text-anchor="start" x="676.583" y="-363.8" font-family="mono" font-size="14.00" fill="#c83500">description</text>
<text text-anchor="start" x="767.583" y="-363.8" font-family="Times,serif" font-size="14.00"> : Map of </text>
<text text-anchor="start" x="823.583" y="-363.8" font-family="mono" font-size="14.00" fill="#c83500">string</text>
<text text-anchor="start" x="873.583" y="-363.8" font-family="mono" font-size="14.00" fill="#c83500">descriptions</text>
<text text-anchor="start" x="973.583" y="-363.8" font-family="Times,serif" font-size="14.00"> : Map of </text>
<text text-anchor="start" x="1029.58" y="-363.8" font-family="mono" font-size="14.00" fill="#c83500">string</text>
<polygon fill="#ddeeff" stroke="none" points="673.583,-335 673.583,-356 1082.58,-356 1082.58,-335 673.583,-335"/>
<polygon fill="none" stroke="#8ccbf2" points="673.583,-335 673.583,-356 1082.58,-356 1082.58,-335 673.583,-335"/>
<text text-anchor="start" x="676.583" y="-342.8" font-family="mono" font-size="14.00" fill="#c83500">modified</text>
<text text-anchor="start" x="743.583" y="-342.8" font-family="Times,serif" font-size="14.00"> : </text>
<text text-anchor="start" x="755.583" y="-342.8" font-family="mono" font-size="14.00" fill="#c83500">dateTime</text>
</g>
<!-- Thing&#45;&gt;ActionAffordance -->
<g id="edge12" class="edge"><title>Thing&#45;&gt;ActionAffordance</title>
<path fill="none" stroke="black" d="M795.871,-330.992C781.673,-315.873 767.503,-300.785 755.108,-287.587"/>
<polygon fill="black" stroke="black" points="757.426,-284.942 748.029,-280.048 752.323,-289.734 757.426,-284.942"/>
<text text-anchor="start" x="777.583" y="-301.8" font-family="mono" font-size="14.00" fill="#c83500">actions</text>
<text text-anchor="middle" x="737.029" y="-283.848" font-family="Times,serif" font-size="14.00">0..*</text>
</g>
<!-- Thing&#45;&gt;EventAffordance -->
<g id="edge13" class="edge"><title>Thing&#45;&gt;EventAffordance</title>
<path fill="none" stroke="black" d="M664.958,-363.42C534.18,-329.85 374.443,-288.846 281.928,-265.097"/>
<polygon fill="black" stroke="black" points="282.644,-261.668 272.088,-262.571 280.903,-268.448 282.644,-261.668"/>
<text text-anchor="start" x="462.583" y="-301.8" font-family="mono" font-size="14.00" fill="#c83500">events</text>
<text text-anchor="middle" x="261.088" y="-266.371" font-family="Times,serif" font-size="14.00">0..*</text>
</g>
<!-- Thing&#45;&gt;PropertyAffordance -->
<g id="edge11" class="edge"><title>Thing&#45;&gt;PropertyAffordance</title>
<path fill="none" stroke="black" d="M698.523,-330.992C656.177,-310.415 613.95,-289.896 581.482,-274.12"/>
<polygon fill="black" stroke="black" points="582.686,-270.814 572.162,-269.591 579.627,-277.11 582.686,-270.814"/>
<text text-anchor="start" x="658.583" y="-301.8" font-family="mono" font-size="14.00" fill="#c83500">properties</text>
<text text-anchor="middle" x="561.162" y="-273.391" font-family="Times,serif" font-size="14.00">0..*</text>
</g>
<!-- VersionInfo -->
<g id="node6" class="node"><title>VersionInfo</title>
<polygon fill="#8ccbf2" stroke="none" points="829.583,-233.5 829.583,-254.5 926.583,-254.5 926.583,-233.5 829.583,-233.5"/>
<polygon fill="none" stroke="#8ccbf2" points="829.583,-233.5 829.583,-254.5 926.583,-254.5 926.583,-233.5 829.583,-233.5"/>
<text text-anchor="start" x="832.583" y="-241.3" font-family="mono" font-weight="bold" font-size="14.00" fill="#c83500">VersionInfo</text>
</g>
<!-- Thing&#45;&gt;VersionInfo -->
<g id="edge10" class="edge"><title>Thing&#45;&gt;VersionInfo</title>
<path fill="none" stroke="black" d="M877.583,-330.992C877.583,-309.902 877.583,-288.872 877.583,-272.948"/>
<polygon fill="black" stroke="black" points="881.083,-272.8 877.583,-262.8 874.083,-272.801 881.083,-272.8"/>
<text text-anchor="start" x="877.583" y="-301.8" font-family="mono" font-size="14.00" fill="#c83500">version</text>
<text text-anchor="middle" x="866.583" y="-266.6" font-family="Times,serif" font-size="14.00">0..*</text>
</g>
<!-- Thing&#45;&gt;Form -->
<g id="edge3" class="edge"><title>Thing&#45;&gt;Form</title>
<path fill="none" stroke="black" d="M932.801,-330.82C935.367,-324.912 937.666,-318.944 939.583,-313 969.936,-218.9 950.361,-98.9251 939.026,-46.0724"/>
<polygon fill="black" stroke="black" points="942.404,-45.1387 936.82,-36.135 935.571,-46.6559 942.404,-45.1387"/>
<text text-anchor="start" x="956.583" y="-179.8" font-family="mono" font-size="14.00" fill="#c83500">forms</text>
<text text-anchor="middle" x="925.82" y="-39.935" font-family="Times,serif" font-size="14.00">0..*</text>
</g>
<!-- Link -->
<g id="node8" class="node"><title>Link</title>
<polygon fill="#f2f2f2" stroke="none" points="998.583,-233.5 998.583,-254.5 1038.58,-254.5 1038.58,-233.5 998.583,-233.5"/>
<polygon fill="none" stroke="#8c8c8c" points="998.583,-233.5 998.583,-254.5 1038.58,-254.5 1038.58,-233.5 998.583,-233.5"/>
<text text-anchor="start" x="1001.58" y="-241.3" font-family="mono" font-weight="bold" font-size="14.00">Link</text>
</g>
<!-- Thing&#45;&gt;Link -->
<g id="edge2" class="edge"><title>Thing&#45;&gt;Link</title>
<path fill="none" stroke="black" d="M962.1,-330.911C967.126,-324.956 971.997,-318.955 976.583,-313 986.613,-299.977 996.401,-284.463 1004,-271.593"/>
<polygon fill="black" stroke="black" points="1007.13,-273.17 1009.12,-262.763 1001.08,-269.659 1007.13,-273.17"/>
<text text-anchor="start" x="987.583" y="-301.8" font-family="mono" font-size="14.00" fill="#c83500">links</text>
<text text-anchor="middle" x="998.12" y="-266.563" font-family="Times,serif" font-size="14.00">0..*</text>
</g>
<!-- SecurityScheme -->
<g id="node10" class="node"><title>SecurityScheme</title>
<polygon fill="#f2f2f2" stroke="none" points="1072.58,-233.5 1072.58,-254.5 1194.58,-254.5 1194.58,-233.5 1072.58,-233.5"/>
<polygon fill="none" stroke="#8c8c8c" points="1072.58,-233.5 1072.58,-254.5 1194.58,-254.5 1194.58,-233.5 1072.58,-233.5"/>
<text text-anchor="start" x="1075.58" y="-241.3" font-family="mono" font-weight="bold" font-size="14.00">SecurityScheme</text>
</g>
<!-- Thing&#45;&gt;SecurityScheme -->
<g id="edge9" class="edge"><title>Thing&#45;&gt;SecurityScheme</title>
<path fill="none" stroke="black" d="M1006.98,-330.923C1015.99,-324.859 1024.92,-318.839 1033.58,-313 1055.57,-298.177 1080.27,-281.506 1099.62,-268.44"/>
<polygon fill="black" stroke="black" points="1101.78,-271.207 1108.11,-262.71 1097.86,-265.406 1101.78,-271.207"/>
<text text-anchor="start" x="1055.58" y="-301.8" font-family="mono" font-size="14.00" fill="#c83500">security</text>
<text text-anchor="middle" x="1097.11" y="-266.51" font-family="Times,serif" font-size="14.00">1..*</text>
</g>
</g>
</svg>
