<?xml version="1.0" encoding="UTF-8" standalone="no"?>
<!DOCTYPE svg PUBLIC "-//W3C//DTD SVG 1.1//EN"
 "http://www.w3.org/Graphics/SVG/1.1/DTD/svg11.dtd">
<!-- Generated by graphviz version 2.40.1 (20161225.0304)
 -->
<!-- Title: %3 Pages: 1 -->
<svg width="1422pt" height="578pt"
 viewBox="0.00 0.00 1421.53 578.00" xmlns="http://www.w3.org/2000/svg" xmlns:xlink="http://www.w3.org/1999/xlink">
<g id="graph0" class="graph" transform="scale(1 1) rotate(0) translate(4 574)">
<title>%3</title>
<polygon fill="#ffffff" stroke="transparent" points="-4,4 -4,-574 1417.5295,-574 1417.5295,4 -4,4"/>
<!-- MultiLanguage -->
<g id="node1" class="node">
<title>MultiLanguage</title>
<polygon fill="#8ccbf2" stroke="transparent" points="88.5295,-7 88.5295,-28 202.5295,-28 202.5295,-7 88.5295,-7"/>
<polygon fill="none" stroke="#8ccbf2" points="88.5295,-7 88.5295,-28 202.5295,-28 202.5295,-7 88.5295,-7"/>
<text text-anchor="start" x="91.5295" y="-14.8" font-family="mono" font-weight="bold" font-size="14.00" fill="#c83500">MultiLanguage</text>
</g>
<!-- Thing -->
<g id="node2" class="node">
<title>Thing</title>
<polygon fill="#8ccbf2" stroke="transparent" points="524.5295,-544.5 524.5295,-565.5 783.5295,-565.5 783.5295,-544.5 524.5295,-544.5"/>
<polygon fill="none" stroke="#8ccbf2" points="524.5295,-544.5 524.5295,-565.5 783.5295,-565.5 783.5295,-544.5 524.5295,-544.5"/>
<text text-anchor="start" x="633.0295" y="-552.3" font-family="mono" font-weight="bold" font-size="14.00" fill="#c83500">Thing</text>
<polygon fill="#ddeeff" stroke="transparent" points="524.5295,-523.5 524.5295,-544.5 783.5295,-544.5 783.5295,-523.5 524.5295,-523.5"/>
<polygon fill="none" stroke="#8ccbf2" points="524.5295,-523.5 524.5295,-544.5 783.5295,-544.5 783.5295,-523.5 524.5295,-523.5"/>
<text text-anchor="start" x="527.5295" y="-531.3" font-family="mono" font-size="14.00" fill="#c83500">@context</text>
<text text-anchor="start" x="594.5295" y="-531.3" font-family="Times,serif" font-size="14.00" fill="#000000"> : </text>
<text text-anchor="start" x="606.5295" y="-531.3" font-family="mono" font-style="italic" font-size="14.00" fill="#c83500">anyURI</text>
<text text-anchor="start" x="656.5295" y="-531.3" font-family="Times,serif" font-style="italic" font-size="14.00" fill="#000000"> or Array</text>
<text text-anchor="start" x="708.5295" y="-531.3" font-family="Times,serif" font-size="14.00" fill="#000000"> </text>
<text text-anchor="start" x="712.5295" y="-531.3" font-family="Times,serif" font-style="italic" font-size="14.00" fill="#000000">(mandatory)</text>
<polygon fill="#ddeeff" stroke="transparent" points="524.5295,-502.5 524.5295,-523.5 783.5295,-523.5 783.5295,-502.5 524.5295,-502.5"/>
<polygon fill="none" stroke="#8ccbf2" points="524.5295,-502.5 524.5295,-523.5 783.5295,-523.5 783.5295,-502.5 524.5295,-502.5"/>
<text text-anchor="start" x="527.5295" y="-510.3" font-family="mono" font-size="14.00" fill="#c83500">@type</text>
<text text-anchor="start" x="569.5295" y="-510.3" font-family="Times,serif" font-size="14.00" fill="#000000"> : </text>
<text text-anchor="start" x="581.5295" y="-510.3" font-family="Times,serif" font-style="italic" font-size="14.00" fill="#000000">(Array of) </text>
<text text-anchor="start" x="640.5295" y="-510.3" font-family="mono" font-size="14.00" fill="#c83500">string</text>
<polygon fill="#ddeeff" stroke="transparent" points="524.5295,-481.5 524.5295,-502.5 783.5295,-502.5 783.5295,-481.5 524.5295,-481.5"/>
<polygon fill="none" stroke="#8ccbf2" points="524.5295,-481.5 524.5295,-502.5 783.5295,-502.5 783.5295,-481.5 524.5295,-481.5"/>
<text text-anchor="start" x="527.5295" y="-489.3" font-family="mono" font-size="14.00" fill="#c83500">id</text>
<text text-anchor="start" x="544.5295" y="-489.3" font-family="Times,serif" font-size="14.00" fill="#000000"> : </text>
<text text-anchor="start" x="556.5295" y="-489.3" font-family="mono" font-size="14.00" fill="#c83500">anyURI</text>
<text text-anchor="start" x="606.5295" y="-489.3" font-family="Times,serif" font-size="14.00" fill="#000000"> </text>
<text text-anchor="start" x="610.5295" y="-489.3" font-family="Times,serif" font-style="italic" font-size="14.00" fill="#000000">(mandatory)</text>
<polygon fill="#ddeeff" stroke="transparent" points="524.5295,-460.5 524.5295,-481.5 783.5295,-481.5 783.5295,-460.5 524.5295,-460.5"/>
<polygon fill="none" stroke="#8ccbf2" points="524.5295,-460.5 524.5295,-481.5 783.5295,-481.5 783.5295,-460.5 524.5295,-460.5"/>
<text text-anchor="start" x="527.5295" y="-468.3" font-family="mono" font-size="14.00" fill="#c83500">base</text>
<text text-anchor="start" x="561.5295" y="-468.3" font-family="Times,serif" font-size="14.00" fill="#000000"> : </text>
<text text-anchor="start" x="573.5295" y="-468.3" font-family="mono" font-size="14.00" fill="#c83500">anyURI</text>
<polygon fill="#ddeeff" stroke="transparent" points="524.5295,-439.5 524.5295,-460.5 783.5295,-460.5 783.5295,-439.5 524.5295,-439.5"/>
<polygon fill="none" stroke="#8ccbf2" points="524.5295,-439.5 524.5295,-460.5 783.5295,-460.5 783.5295,-439.5 524.5295,-439.5"/>
<text text-anchor="start" x="527.5295" y="-447.3" font-family="mono" font-size="14.00" fill="#c83500">title</text>
<text text-anchor="start" x="569.5295" y="-447.3" font-family="Times,serif" font-size="14.00" fill="#000000"> : </text>
<text text-anchor="start" x="581.5295" y="-447.3" font-family="mono" font-size="14.00" fill="#c83500">string</text>
<text text-anchor="start" x="631.5295" y="-447.3" font-family="Times,serif" font-size="14.00" fill="#000000"> </text>
<text text-anchor="start" x="635.5295" y="-447.3" font-family="Times,serif" font-style="italic" font-size="14.00" fill="#000000">(mandatory)</text>
<polygon fill="#ddeeff" stroke="transparent" points="524.5295,-418.5 524.5295,-439.5 783.5295,-439.5 783.5295,-418.5 524.5295,-418.5"/>
<polygon fill="none" stroke="#8ccbf2" points="524.5295,-418.5 524.5295,-439.5 783.5295,-439.5 783.5295,-418.5 524.5295,-418.5"/>
<text text-anchor="start" x="527.5295" y="-426.3" font-family="mono" font-size="14.00" fill="#c83500">support</text>
<text text-anchor="start" x="585.5295" y="-426.3" font-family="Times,serif" font-size="14.00" fill="#000000"> : </text>
<text text-anchor="start" x="597.5295" y="-426.3" font-family="mono" font-size="14.00" fill="#c83500">anyURI</text>
<polygon fill="#ddeeff" stroke="transparent" points="524.5295,-397.5 524.5295,-418.5 783.5295,-418.5 783.5295,-397.5 524.5295,-397.5"/>
<polygon fill="none" stroke="#8ccbf2" points="524.5295,-397.5 524.5295,-418.5 783.5295,-418.5 783.5295,-397.5 524.5295,-397.5"/>
<text text-anchor="start" x="527.5295" y="-405.3" font-family="mono" font-size="14.00" fill="#c83500">modified</text>
<text text-anchor="start" x="594.5295" y="-405.3" font-family="Times,serif" font-size="14.00" fill="#000000"> : </text>
<text text-anchor="start" x="606.5295" y="-405.3" font-family="mono" font-size="14.00" fill="#c83500">dateTime</text>
<polygon fill="#ddeeff" stroke="transparent" points="524.5295,-376.5 524.5295,-397.5 783.5295,-397.5 783.5295,-376.5 524.5295,-376.5"/>
<polygon fill="none" stroke="#8ccbf2" points="524.5295,-376.5 524.5295,-397.5 783.5295,-397.5 783.5295,-376.5 524.5295,-376.5"/>
<text text-anchor="start" x="527.5295" y="-384.3" font-family="mono" font-size="14.00" fill="#c83500">created</text>
<text text-anchor="start" x="585.5295" y="-384.3" font-family="Times,serif" font-size="14.00" fill="#000000"> : </text>
<text text-anchor="start" x="597.5295" y="-384.3" font-family="mono" font-size="14.00" fill="#c83500">dateTime</text>
<polygon fill="#ddeeff" stroke="transparent" points="524.5295,-355.5 524.5295,-376.5 783.5295,-376.5 783.5295,-355.5 524.5295,-355.5"/>
<polygon fill="none" stroke="#8ccbf2" points="524.5295,-355.5 524.5295,-376.5 783.5295,-376.5 783.5295,-355.5 524.5295,-355.5"/>
<text text-anchor="start" x="527.5295" y="-363.3" font-family="mono" font-size="14.00" fill="#c83500">description</text>
<text text-anchor="start" x="618.5295" y="-363.3" font-family="Times,serif" font-size="14.00" fill="#000000"> : </text>
<text text-anchor="start" x="630.5295" y="-363.3" font-family="mono" font-size="14.00" fill="#c83500">string</text>
<polygon fill="#ddeeff" stroke="transparent" points="524.5295,-334.5 524.5295,-355.5 783.5295,-355.5 783.5295,-334.5 524.5295,-334.5"/>
<polygon fill="none" stroke="#8ccbf2" points="524.5295,-334.5 524.5295,-355.5 783.5295,-355.5 783.5295,-334.5 524.5295,-334.5"/>
<text text-anchor="start" x="527.5295" y="-342.3" font-family="mono" font-size="14.00" fill="#c83500">security</text>
<text text-anchor="start" x="594.5295" y="-342.3" font-family="Times,serif" font-size="14.00" fill="#000000"> : Array of </text>
<text text-anchor="start" x="656.5295" y="-342.3" font-family="mono" font-size="14.00" fill="#c83500">string</text>
<text text-anchor="start" x="706.5295" y="-342.3" font-family="Times,serif" font-size="14.00" fill="#000000"> </text>
<text text-anchor="start" x="710.5295" y="-342.3" font-family="Times,serif" font-style="italic" font-size="14.00" fill="#000000">(mandatory)</text>
</g>
<!-- Thing&#45;&gt;MultiLanguage -->
<g id="edge1" class="edge">
<title>Thing&#45;&gt;MultiLanguage</title>
<path fill="none" stroke="#000000" d="M515.8512,-438.0389C401.4314,-422.589 237.9724,-388.3415 114.5295,-313 48.3487,-272.6075 -20.8384,-248.5428 6.5295,-176 27.7809,-119.6702 79.2688,-70.3915 113.2607,-42.4269"/>
<polygon fill="#000000" stroke="#000000" points="115.4913,-45.1243 121.074,-36.1196 111.0944,-39.6775 115.4913,-45.1243"/>
<text text-anchor="start" x="6.5295" y="-179.8" font-family="mono" font-size="14.00" fill="#c83500">descriptions</text>
<text text-anchor="middle" x="110.074" y="-39.9196" font-family="Times,serif" font-size="14.00" fill="#000000">0..1</text>
</g>
<!-- Thing&#45;&gt;MultiLanguage -->
<g id="edge9" class="edge">
<title>Thing&#45;&gt;MultiLanguage</title>
<path fill="none" stroke="#000000" d="M515.7564,-405.4296C457.4694,-382.7476 390.6804,-351.7506 336.5295,-313 266.4429,-262.8457 213.9485,-247.8002 148.5295,-69 145.961,-61.9798 144.7585,-54.0543 144.3011,-46.5804"/>
<polygon fill="#000000" stroke="#000000" points="147.7977,-46.3801 144.0857,-36.4568 140.7993,-46.529 147.7977,-46.3801"/>
<text text-anchor="start" x="203.5295" y="-179.8" font-family="mono" font-size="14.00" fill="#c83500">titles</text>
<text text-anchor="middle" x="133.0857" y="-40.2568" font-family="Times,serif" font-size="14.00" fill="#000000">0..1</text>
</g>
<!-- PropertyAffordance -->
<g id="node3" class="node">
<title>PropertyAffordance</title>
<polygon fill="#8ccbf2" stroke="transparent" points="345.5295,-244.5 345.5295,-265.5 504.5295,-265.5 504.5295,-244.5 345.5295,-244.5"/>
<polygon fill="none" stroke="#8ccbf2" points="345.5295,-244.5 345.5295,-265.5 504.5295,-265.5 504.5295,-244.5 345.5295,-244.5"/>
<text text-anchor="start" x="350.5295" y="-252.3" font-family="mono" font-weight="bold" font-size="14.00" fill="#c83500">PropertyAffordance</text>
<polygon fill="#ddeeff" stroke="transparent" points="345.5295,-223.5 345.5295,-244.5 504.5295,-244.5 504.5295,-223.5 345.5295,-223.5"/>
<polygon fill="none" stroke="#8ccbf2" points="345.5295,-223.5 345.5295,-244.5 504.5295,-244.5 504.5295,-223.5 345.5295,-223.5"/>
<text text-anchor="start" x="348.5295" y="-231.3" font-family="mono" font-size="14.00" fill="#c83500">observable</text>
<text text-anchor="start" x="431.5295" y="-231.3" font-family="Times,serif" font-size="14.00" fill="#000000"> : </text>
<text text-anchor="start" x="443.5295" y="-231.3" font-family="mono" font-size="14.00" fill="#c83500">boolean</text>
</g>
<!-- Thing&#45;&gt;PropertyAffordance -->
<g id="edge3" class="edge">
<title>Thing&#45;&gt;PropertyAffordance</title>
<path fill="none" stroke="#000000" d="M520.6508,-330.9672C498.2365,-310.8041 476.787,-291.5089 459.8598,-276.2819"/>
<polygon fill="#000000" stroke="#000000" points="462.1889,-273.6692 452.4135,-269.5834 457.5073,-278.8734 462.1889,-273.6692"/>
<text text-anchor="start" x="499.5295" y="-301.8" font-family="mono" font-size="14.00" fill="#c83500">properties</text>
<text text-anchor="middle" x="441.4135" y="-273.3834" font-family="Times,serif" font-size="14.00" fill="#000000">0..1</text>
</g>
<!-- VersionInfo -->
<g id="node4" class="node">
<title>VersionInfo</title>
<polygon fill="#8ccbf2" stroke="transparent" points="968.5295,-244.5 968.5295,-265.5 1175.5295,-265.5 1175.5295,-244.5 968.5295,-244.5"/>
<polygon fill="none" stroke="#8ccbf2" points="968.5295,-244.5 968.5295,-265.5 1175.5295,-265.5 1175.5295,-244.5 968.5295,-244.5"/>
<text text-anchor="start" x="1026.5295" y="-252.3" font-family="mono" font-weight="bold" font-size="14.00" fill="#c83500">VersionInfo</text>
<polygon fill="#ddeeff" stroke="transparent" points="968.5295,-223.5 968.5295,-244.5 1175.5295,-244.5 1175.5295,-223.5 968.5295,-223.5"/>
<polygon fill="none" stroke="#8ccbf2" points="968.5295,-223.5 968.5295,-244.5 1175.5295,-244.5 1175.5295,-223.5 968.5295,-223.5"/>
<text text-anchor="start" x="971.5295" y="-231.3" font-family="mono" font-size="14.00" fill="#c83500">instance</text>
<text text-anchor="start" x="1038.5295" y="-231.3" font-family="Times,serif" font-size="14.00" fill="#000000"> : </text>
<text text-anchor="start" x="1050.5295" y="-231.3" font-family="mono" font-size="14.00" fill="#c83500">string</text>
<text text-anchor="start" x="1100.5295" y="-231.3" font-family="Times,serif" font-size="14.00" fill="#000000"> </text>
<text text-anchor="start" x="1104.5295" y="-231.3" font-family="Times,serif" font-style="italic" font-size="14.00" fill="#000000">(mandatory)</text>
</g>
<!-- Thing&#45;&gt;VersionInfo -->
<g id="edge2" class="edge">
<title>Thing&#45;&gt;VersionInfo</title>
<path fill="none" stroke="#000000" d="M791.267,-382.6198C865.8519,-345.8626 954.1917,-302.3268 1011.4684,-274.0995"/>
<polygon fill="#000000" stroke="#000000" points="1013.315,-277.0915 1020.7376,-269.5314 1010.2205,-270.8126 1013.315,-277.0915"/>
<text text-anchor="start" x="959.5295" y="-301.8" font-family="mono" font-size="14.00" fill="#c83500">version</text>
<text text-anchor="middle" x="1009.7376" y="-273.3314" font-family="Times,serif" font-size="14.00" fill="#000000">0..1</text>
</g>
<!-- ActionAffordance -->
<g id="node5" class="node">
<title>ActionAffordance</title>
<polygon fill="#8ccbf2" stroke="transparent" points="538.5295,-254.5 538.5295,-275.5 769.5295,-275.5 769.5295,-254.5 538.5295,-254.5"/>
<polygon fill="none" stroke="#8ccbf2" points="538.5295,-254.5 538.5295,-275.5 769.5295,-275.5 769.5295,-254.5 538.5295,-254.5"/>
<text text-anchor="start" x="587.5295" y="-262.3" font-family="mono" font-weight="bold" font-size="14.00" fill="#c83500">ActionAffordance</text>
<polygon fill="#ddeeff" stroke="transparent" points="538.5295,-233.5 538.5295,-254.5 769.5295,-254.5 769.5295,-233.5 538.5295,-233.5"/>
<polygon fill="none" stroke="#8ccbf2" points="538.5295,-233.5 538.5295,-254.5 769.5295,-254.5 769.5295,-233.5 538.5295,-233.5"/>
<text text-anchor="start" x="541.5295" y="-241.3" font-family="mono" font-size="14.00" fill="#c83500">safe</text>
<text text-anchor="start" x="575.5295" y="-241.3" font-family="Times,serif" font-size="14.00" fill="#000000"> : </text>
<text text-anchor="start" x="587.5295" y="-241.3" font-family="mono" font-size="14.00" fill="#c83500">boolean</text>
<text text-anchor="start" x="645.5295" y="-241.3" font-family="Times,serif" font-size="14.00" fill="#000000"> </text>
<text text-anchor="start" x="649.5295" y="-241.3" font-family="Times,serif" font-style="italic" font-size="14.00" fill="#000000">(mandatory)</text>
<polygon fill="#ddeeff" stroke="transparent" points="538.5295,-212.5 538.5295,-233.5 769.5295,-233.5 769.5295,-212.5 538.5295,-212.5"/>
<polygon fill="none" stroke="#8ccbf2" points="538.5295,-212.5 538.5295,-233.5 769.5295,-233.5 769.5295,-212.5 538.5295,-212.5"/>
<text text-anchor="start" x="541.5295" y="-220.3" font-family="mono" font-size="14.00" fill="#c83500">idempotent</text>
<text text-anchor="start" x="624.5295" y="-220.3" font-family="Times,serif" font-size="14.00" fill="#000000"> : </text>
<text text-anchor="start" x="636.5295" y="-220.3" font-family="mono" font-size="14.00" fill="#c83500">boolean</text>
<text text-anchor="start" x="694.5295" y="-220.3" font-family="Times,serif" font-size="14.00" fill="#000000"> </text>
<text text-anchor="start" x="698.5295" y="-220.3" font-family="Times,serif" font-style="italic" font-size="14.00" fill="#000000">(mandatory)</text>
</g>
<!-- Thing&#45;&gt;ActionAffordance -->
<g id="edge5" class="edge">
<title>Thing&#45;&gt;ActionAffordance</title>
<path fill="none" stroke="#000000" d="M653.5295,-330.9672C653.5295,-316.6903 653.5295,-302.8487 653.5295,-290.5782"/>
<polygon fill="#000000" stroke="#000000" points="657.0296,-290.228 653.5295,-280.2281 650.0296,-290.2281 657.0296,-290.228"/>
<text text-anchor="start" x="653.5295" y="-301.8" font-family="mono" font-size="14.00" fill="#c83500">actions</text>
<text text-anchor="middle" x="642.5295" y="-284.0281" font-family="Times,serif" font-size="14.00" fill="#000000">0..1</text>
</g>
<!-- EventAffordance -->
<g id="node7" class="node">
<title>EventAffordance</title>
<polygon fill="#8ccbf2" stroke="transparent" points="803.5295,-233.5 803.5295,-254.5 933.5295,-254.5 933.5295,-233.5 803.5295,-233.5"/>
<polygon fill="none" stroke="#8ccbf2" points="803.5295,-233.5 803.5295,-254.5 933.5295,-254.5 933.5295,-233.5 803.5295,-233.5"/>
<text text-anchor="start" x="806.5295" y="-241.3" font-family="mono" font-weight="bold" font-size="14.00" fill="#c83500">EventAffordance</text>
</g>
<!-- Thing&#45;&gt;EventAffordance -->
<g id="edge4" class="edge">
<title>Thing&#45;&gt;EventAffordance</title>
<path fill="none" stroke="#000000" d="M778.2847,-330.9672C802.5415,-307.7257 825.5948,-285.6375 842.3293,-269.6035"/>
<polygon fill="#000000" stroke="#000000" points="844.7559,-272.1258 849.5551,-262.6802 839.913,-267.0713 844.7559,-272.1258"/>
<text text-anchor="start" x="811.5295" y="-301.8" font-family="mono" font-size="14.00" fill="#c83500">events</text>
<text text-anchor="middle" x="838.5551" y="-266.4802" font-family="Times,serif" font-size="14.00" fill="#000000">0..1</text>
</g>
<!-- Form -->
<g id="node8" class="node">
<title>Form</title>
<polygon fill="#f2f2f2" stroke="transparent" points="365.5295,-7 365.5295,-28 405.5295,-28 405.5295,-7 365.5295,-7"/>
<polygon fill="none" stroke="#8c8c8c" points="365.5295,-7 365.5295,-28 405.5295,-28 405.5295,-7 365.5295,-7"/>
<text text-anchor="start" x="368.5295" y="-14.8" font-family="mono" font-weight="bold" font-size="14.00" fill="#000000">Form</text>
</g>
<!-- Thing&#45;&gt;Form -->
<g id="edge6" class="edge">
<title>Thing&#45;&gt;Form</title>
<path fill="none" stroke="#000000" d="M515.6106,-415.2915C446.3189,-389.8676 368.5512,-347.7479 327.5295,-280 281.302,-203.6546 336.7438,-94.8494 367.5759,-44.9216"/>
<polygon fill="#000000" stroke="#000000" points="370.6369,-46.6294 373.0165,-36.3052 364.718,-42.892 370.6369,-46.6294"/>
<text text-anchor="start" x="313.5295" y="-179.8" font-family="mono" font-size="14.00" fill="#c83500">forms</text>
<text text-anchor="middle" x="362.0165" y="-40.1052" font-family="Times,serif" font-size="14.00" fill="#000000">0..*</text>
</g>
<!-- Link -->
<g id="node9" class="node">
<title>Link</title>
<polygon fill="#f2f2f2" stroke="transparent" points="1209.5295,-233.5 1209.5295,-254.5 1249.5295,-254.5 1249.5295,-233.5 1209.5295,-233.5"/>
<polygon fill="none" stroke="#8c8c8c" points="1209.5295,-233.5 1209.5295,-254.5 1249.5295,-254.5 1249.5295,-233.5 1209.5295,-233.5"/>
<text text-anchor="start" x="1212.5295" y="-241.3" font-family="mono" font-weight="bold" font-size="14.00" fill="#000000">Link</text>
</g>
<!-- Thing&#45;&gt;Link -->
<g id="edge7" class="edge">
<title>Thing&#45;&gt;Link</title>
<path fill="none" stroke="#000000" d="M791.1598,-424.6014C904.1982,-399.2877 1065.6098,-353.6347 1191.5295,-280 1196.4979,-277.0946 1201.3482,-273.4348 1205.8312,-269.5765"/>
<polygon fill="#000000" stroke="#000000" points="1208.4804,-271.8941 1213.4501,-262.5372 1203.73,-266.7527 1208.4804,-271.8941"/>
<text text-anchor="start" x="1151.5295" y="-301.8" font-family="mono" font-size="14.00" fill="#c83500">links</text>
<text text-anchor="middle" x="1202.4501" y="-266.3372" font-family="Times,serif" font-size="14.00" fill="#000000">0..*</text>
</g>
<!-- SecurityScheme -->
<g id="node10" class="node">
<title>SecurityScheme</title>
<polygon fill="#f2f2f2" stroke="transparent" points="1283.5295,-233.5 1283.5295,-254.5 1405.5295,-254.5 1405.5295,-233.5 1283.5295,-233.5"/>
<polygon fill="none" stroke="#8c8c8c" points="1283.5295,-233.5 1283.5295,-254.5 1405.5295,-254.5 1405.5295,-233.5 1283.5295,-233.5"/>
<text text-anchor="start" x="1286.5295" y="-241.3" font-family="mono" font-weight="bold" font-size="14.00" fill="#000000">SecurityScheme</text>
</g>
<!-- Thing&#45;&gt;SecurityScheme -->
<g id="edge8" class="edge">
<title>Thing&#45;&gt;SecurityScheme</title>
<path fill="none" stroke="#000000" d="M791.1855,-423.2335C902.4564,-399.4081 1062.2705,-361.1233 1197.5295,-313 1233.5536,-300.1831 1272.7246,-281.688 1301.5664,-267.1457"/>
<polygon fill="#000000" stroke="#000000" points="1303.2245,-270.2291 1310.5505,-262.5753 1300.0506,-263.99 1303.2245,-270.2291"/>
<text text-anchor="start" x="1235.5295" y="-301.8" font-family="mono" font-size="14.00" fill="#c83500">securityDefinitions</text>
<text text-anchor="middle" x="1299.5505" y="-266.3753" font-family="Times,serif" font-size="14.00" fill="#000000">1..1</text>
</g>
<!-- InteractionAffordance -->
<g id="node6" class="node">
<title>InteractionAffordance</title>
<polygon fill="#8ccbf2" stroke="transparent" points="410.5295,-132.5 410.5295,-153.5 590.5295,-153.5 590.5295,-132.5 410.5295,-132.5"/>
<polygon fill="none" stroke="#8ccbf2" points="410.5295,-132.5 410.5295,-153.5 590.5295,-153.5 590.5295,-132.5 410.5295,-132.5"/>
<text text-anchor="start" x="413.5295" y="-140.3" font-family="mono" font-weight="bold" font-size="14.00" fill="#c83500">InteractionAffordance</text>
<polygon fill="#ddeeff" stroke="transparent" points="410.5295,-111.5 410.5295,-132.5 590.5295,-132.5 590.5295,-111.5 410.5295,-111.5"/>
<polygon fill="none" stroke="#8ccbf2" points="410.5295,-111.5 410.5295,-132.5 590.5295,-132.5 590.5295,-111.5 410.5295,-111.5"/>
<text text-anchor="start" x="413.5295" y="-119.3" font-family="mono" font-size="14.00" fill="#c83500">title</text>
<text text-anchor="start" x="455.5295" y="-119.3" font-family="Times,serif" font-size="14.00" fill="#000000"> : </text>
<text text-anchor="start" x="467.5295" y="-119.3" font-family="mono" font-size="14.00" fill="#c83500">string</text>
<polygon fill="#ddeeff" stroke="transparent" points="410.5295,-90.5 410.5295,-111.5 590.5295,-111.5 590.5295,-90.5 410.5295,-90.5"/>
<polygon fill="none" stroke="#8ccbf2" points="410.5295,-90.5 410.5295,-111.5 590.5295,-111.5 590.5295,-90.5 410.5295,-90.5"/>
<text text-anchor="start" x="413.5295" y="-98.3" font-family="mono" font-size="14.00" fill="#c83500">description</text>
<text text-anchor="start" x="504.5295" y="-98.3" font-family="Times,serif" font-size="14.00" fill="#000000"> : </text>
<text text-anchor="start" x="516.5295" y="-98.3" font-family="mono" font-size="14.00" fill="#c83500">string</text>
</g>
<!-- PropertyAffordance&#45;&gt;InteractionAffordance -->
<g id="edge20" class="edge">
<title>PropertyAffordance&#45;&gt;InteractionAffordance</title>
<path fill="none" stroke="#000000" d="M440.2768,-219.2215C449.6069,-204.2442 461.7005,-184.8307 472.6021,-167.3309"/>
<polygon fill="#ffffff" stroke="#000000" points="475.8565,-168.726 478.1733,-158.3876 469.9151,-165.0248 475.8565,-168.726"/>
</g>
<!-- DataSchema -->
<g id="node11" class="node">
<title>DataSchema</title>
<polygon fill="#f2f2f2" stroke="transparent" points="676.5295,-7 676.5295,-28 765.5295,-28 765.5295,-7 676.5295,-7"/>
<polygon fill="none" stroke="#8c8c8c" points="676.5295,-7 676.5295,-28 765.5295,-28 765.5295,-7 676.5295,-7"/>
<text text-anchor="start" x="679.5295" y="-14.8" font-family="mono" font-weight="bold" font-size="14.00" fill="#000000">DataSchema</text>
</g>
<!-- PropertyAffordance&#45;&gt;DataSchema -->
<g id="edge19" class="edge">
<title>PropertyAffordance&#45;&gt;DataSchema</title>
<path fill="none" stroke="#000000" d="M412.9293,-219.3895C405.761,-202.4519 397.2441,-179.3752 393.5295,-158 385.3137,-110.723 380.0784,-76.3723 422.5295,-54 462.1022,-33.1447 582.6141,-24.0711 657.712,-20.3564"/>
<polygon fill="#ffffff" stroke="#000000" points="658.1718,-23.8385 667.9941,-19.8671 657.839,-16.8465 658.1718,-23.8385"/>
</g>
<!-- ActionAffordance&#45;&gt;InteractionAffordance -->
<g id="edge21" class="edge">
<title>ActionAffordance&#45;&gt;InteractionAffordance</title>
<path fill="none" stroke="#000000" d="M603.6719,-208.7379C595.8523,-202.9066 587.9175,-196.8565 580.5295,-191 570.139,-182.7633 559.2158,-173.6965 548.8956,-164.9309"/>
<polygon fill="#ffffff" stroke="#000000" points="551.0167,-162.1396 541.14,-158.3052 546.4698,-167.4619 551.0167,-162.1396"/>
</g>
<!-- ActionAffordance&#45;&gt;DataSchema -->
<g id="edge10" class="edge">
<title>ActionAffordance&#45;&gt;DataSchema</title>
<path fill="none" stroke="#000000" d="M669.4817,-208.775C675.9714,-193.361 683.1851,-174.9998 688.5295,-158 700.4643,-120.0374 709.9561,-74.9914 715.4118,-46.4515"/>
<polygon fill="#000000" stroke="#000000" points="718.8991,-46.8444 717.3019,-36.3706 712.019,-45.5543 718.8991,-46.8444"/>
<text text-anchor="start" x="707.5295" y="-118.8" font-family="mono" font-size="14.00" fill="#c83500">input</text>
<text text-anchor="middle" x="706.3019" y="-40.1706" font-family="Times,serif" font-size="14.00" fill="#000000">0..1</text>
</g>
<!-- ActionAffordance&#45;&gt;DataSchema -->
<g id="edge11" class="edge">
<title>ActionAffordance&#45;&gt;DataSchema</title>
<path fill="none" stroke="#000000" d="M638.5896,-208.9106C627.0656,-175.7499 615.9448,-125.7381 634.5295,-87 643.4841,-68.3349 660.2212,-53.1259 676.5671,-41.7839"/>
<polygon fill="#000000" stroke="#000000" points="678.6088,-44.6302 685.036,-36.2075 674.7591,-38.7838 678.6088,-44.6302"/>
<text text-anchor="start" x="634.5295" y="-118.8" font-family="mono" font-size="14.00" fill="#c83500">output</text>
<text text-anchor="middle" x="674.036" y="-40.0075" font-family="Times,serif" font-size="14.00" fill="#000000">0..1</text>
</g>
<!-- InteractionAffordance&#45;&gt;MultiLanguage -->
<g id="edge12" class="edge">
<title>InteractionAffordance&#45;&gt;MultiLanguage</title>
<path fill="none" stroke="#000000" d="M402.2815,-118.102C315.6614,-112.2729 197.8827,-98.9601 162.5295,-69 155.6719,-63.1885 151.568,-54.5311 149.1165,-45.9919"/>
<polygon fill="#000000" stroke="#000000" points="152.5253,-45.1972 146.9316,-36.1993 145.6933,-46.7215 152.5253,-45.1972"/>
<text text-anchor="start" x="162.5295" y="-57.8" font-family="mono" font-size="14.00" fill="#c83500">descriptions</text>
<text text-anchor="middle" x="157.9316" y="-39.9993" font-family="Times,serif" font-size="14.00" fill="#000000">0..1</text>
</g>
<!-- InteractionAffordance&#45;&gt;MultiLanguage -->
<g id="edge15" class="edge">
<title>InteractionAffordance&#45;&gt;MultiLanguage</title>
<path fill="none" stroke="#000000" d="M402.1137,-93.5297C343.1959,-76.1863 269.6657,-54.5415 216.4417,-38.8741"/>
<polygon fill="#000000" stroke="#000000" points="217.3294,-35.487 206.748,-36.0206 215.3526,-42.2021 217.3294,-35.487"/>
<text text-anchor="start" x="312.5295" y="-57.8" font-family="mono" font-size="14.00" fill="#c83500">titles</text>
<text text-anchor="middle" x="195.748" y="-39.8206" font-family="Times,serif" font-size="14.00" fill="#000000">0..1</text>
</g>
<!-- InteractionAffordance&#45;&gt;Form -->
<g id="edge13" class="edge">
<title>InteractionAffordance&#45;&gt;Form</title>
<path fill="none" stroke="#000000" d="M461.2747,-86.8293C445.4633,-72.4615 427.5984,-56.2278 413.1909,-43.1358"/>
<polygon fill="#000000" stroke="#000000" points="415.3321,-40.3523 405.5774,-36.2174 410.6245,-45.5329 415.3321,-40.3523"/>
<text text-anchor="start" x="440.5295" y="-57.8" font-family="mono" font-size="14.00" fill="#c83500">forms</text>
<text text-anchor="middle" x="394.5774" y="-40.0174" font-family="Times,serif" font-size="14.00" fill="#000000">1..*</text>
</g>
<!-- InteractionAffordance&#45;&gt;DataSchema -->
<g id="edge14" class="edge">
<title>InteractionAffordance&#45;&gt;DataSchema</title>
<path fill="none" stroke="#000000" d="M503.4142,-86.7754C506.1498,-74.7941 511.2254,-62.3668 520.5295,-54 540.3475,-36.1784 606.4393,-26.8534 657.2801,-22.2034"/>
<polygon fill="#000000" stroke="#000000" points="657.8926,-25.6634 667.5506,-21.3077 657.2843,-18.6898 657.8926,-25.6634"/>
<text text-anchor="start" x="520.5295" y="-57.8" font-family="mono" font-size="14.00" fill="#c83500">uriVariables</text>
<text text-anchor="middle" x="656.5506" y="-25.1077" font-family="Times,serif" font-size="14.00" fill="#000000">0..1</text>
</g>
<!-- EventAffordance&#45;&gt;InteractionAffordance -->
<g id="edge22" class="edge">
<title>EventAffordance&#45;&gt;InteractionAffordance</title>
<path fill="none" stroke="#000000" d="M828.8021,-226.3847C815.2145,-220.4907 799.8338,-214.1474 785.5295,-209 710.104,-181.8583 689.1847,-181.4447 612.5295,-158 611.2677,-157.6141 609.9982,-157.225 608.7221,-156.8332"/>
<polygon fill="#ffffff" stroke="#000000" points="609.4179,-153.3851 598.8305,-153.7819 607.3545,-160.0741 609.4179,-153.3851"/>
</g>
<!-- EventAffordance&#45;&gt;DataSchema -->
<g id="edge16" class="edge">
<title>EventAffordance&#45;&gt;DataSchema</title>
<path fill="none" stroke="#000000" d="M867.3497,-226.2668C864.8556,-196.1203 857.4365,-134.5011 836.5295,-87 829.2238,-70.4013 826.8841,-65.0831 812.5295,-54 803.6044,-47.109 793.1961,-41.3831 782.6548,-36.6784"/>
<polygon fill="#000000" stroke="#000000" points="783.9672,-33.4335 773.3911,-32.8032 781.2657,-39.8912 783.9672,-33.4335"/>
<text text-anchor="start" x="858.5295" y="-118.8" font-family="mono" font-size="14.00" fill="#c83500">subscription</text>
<text text-anchor="middle" x="784.3911" y="-36.6032" font-family="Times,serif" font-size="14.00" fill="#000000">0..1</text>
</g>
<!-- EventAffordance&#45;&gt;DataSchema -->
<g id="edge17" class="edge">
<title>EventAffordance&#45;&gt;DataSchema</title>
<path fill="none" stroke="#000000" d="M898.9341,-226.4244C921.1685,-211.2873 949.6092,-187.4478 962.5295,-158 975.208,-129.1035 981.539,-112.1871 962.5295,-87 940.9201,-58.3681 847.4568,-38.077 783.2147,-27.2074"/>
<polygon fill="#000000" stroke="#000000" points="783.6081,-23.725 773.1706,-25.544 782.4643,-30.6309 783.6081,-23.725"/>
<text text-anchor="start" x="974.5295" y="-118.8" font-family="mono" font-size="14.00" fill="#c83500">cancellation</text>
<text text-anchor="middle" x="784.1706" y="-14.344" font-family="Times,serif" font-size="14.00" fill="#000000">0..1</text>
</g>
<!-- EventAffordance&#45;&gt;DataSchema -->
<g id="edge18" class="edge">
<title>EventAffordance&#45;&gt;DataSchema</title>
<path fill="none" stroke="#000000" d="M852.2692,-226.3166C837.4214,-209.2863 815.2968,-182.8092 798.5295,-158 773.194,-120.5131 748.5723,-74.1601 733.9805,-45.3312"/>
<polygon fill="#000000" stroke="#000000" points="737.0438,-43.6319 729.43,-36.2644 730.7876,-46.7719 737.0438,-43.6319"/>
<text text-anchor="start" x="798.5295" y="-118.8" font-family="mono" font-size="14.00" fill="#c83500">data</text>
<text text-anchor="middle" x="740.43" y="-40.0644" font-family="Times,serif" font-size="14.00" fill="#000000">0..1</text>
</g>
</g>
</svg>
