<?xml version="1.0" encoding="UTF-8" standalone="no"?>
<!DOCTYPE svg PUBLIC "-//W3C//DTD SVG 1.1//EN"
 "http://www.w3.org/Graphics/SVG/1.1/DTD/svg11.dtd">
<!-- Generated by graphviz version 2.38.0 (20140413.2041)
 -->
<!-- Title: %3 Pages: 1 -->
<svg width="1234pt" height="805pt"
 viewBox="0.00 0.00 1233.50 805.00" xmlns="http://www.w3.org/2000/svg" xmlns:xlink="http://www.w3.org/1999/xlink">
<g id="graph0" class="graph" transform="scale(1 1) rotate(0) translate(4 801)">
<title>%3</title>
<polygon fill="white" stroke="none" points="-4,4 -4,-801 1229.5,-801 1229.5,4 -4,4"/>
<!-- InteractionPattern -->
<g id="node1" class="node"><title>InteractionPattern</title>
<polygon fill="#8ccbf2" stroke="none" points="129.5,-394.5 129.5,-415.5 310.5,-415.5 310.5,-394.5 129.5,-394.5"/>
<polygon fill="none" stroke="#8ccbf2" points="129.5,-394.5 129.5,-415.5 310.5,-415.5 310.5,-394.5 129.5,-394.5"/>
<text text-anchor="start" x="145.5" y="-402.3" font-family="mono" font-weight="bold" font-size="14.00" fill="#c83500">InteractionPattern</text>
<polygon fill="#ddeeff" stroke="none" points="129.5,-373.5 129.5,-394.5 310.5,-394.5 310.5,-373.5 129.5,-373.5"/>
<polygon fill="none" stroke="#8ccbf2" points="129.5,-373.5 129.5,-394.5 310.5,-394.5 310.5,-373.5 129.5,-373.5"/>
<text text-anchor="start" x="132.5" y="-381.3" font-family="mono" font-size="14.00" fill="#c83500">scopes</text>
<text text-anchor="start" x="182.5" y="-381.3" font-family="Times,serif" font-size="14.00"> : array of </text>
<text text-anchor="start" x="240.5" y="-381.3" font-family="mono" font-size="14.00" fill="#c83500">string</text>
<polygon fill="#ddeeff" stroke="none" points="129.5,-352.5 129.5,-373.5 310.5,-373.5 310.5,-352.5 129.5,-352.5"/>
<polygon fill="none" stroke="#8ccbf2" points="129.5,-352.5 129.5,-373.5 310.5,-373.5 310.5,-352.5 129.5,-352.5"/>
<text text-anchor="start" x="132.5" y="-360.3" font-family="mono" font-size="14.00" fill="#c83500">description</text>
<text text-anchor="start" x="223.5" y="-360.3" font-family="Times,serif" font-size="14.00"> : </text>
<text text-anchor="start" x="235.5" y="-360.3" font-family="mono" font-size="14.00" fill="#c83500">string</text>
<polygon fill="#ddeeff" stroke="none" points="129.5,-331.5 129.5,-352.5 310.5,-352.5 310.5,-331.5 129.5,-331.5"/>
<polygon fill="none" stroke="#8ccbf2" points="129.5,-331.5 129.5,-352.5 310.5,-352.5 310.5,-331.5 129.5,-331.5"/>
<text text-anchor="start" x="132.5" y="-339.3" font-family="mono" font-size="14.00" fill="#c83500">security</text>
<text text-anchor="start" x="199.5" y="-339.3" font-family="Times,serif" font-size="14.00"> : array of </text>
<text text-anchor="start" x="257.5" y="-339.3" font-family="mono" font-size="14.00" fill="#c83500">string</text>
<polygon fill="#ddeeff" stroke="none" points="129.5,-310.5 129.5,-331.5 310.5,-331.5 310.5,-310.5 129.5,-310.5"/>
<polygon fill="none" stroke="#8ccbf2" points="129.5,-310.5 129.5,-331.5 310.5,-331.5 310.5,-310.5 129.5,-310.5"/>
<text text-anchor="start" x="132.5" y="-318.3" font-family="mono" font-size="14.00" fill="#c83500">title</text>
<text text-anchor="start" x="174.5" y="-318.3" font-family="Times,serif" font-size="14.00"> : </text>
<text text-anchor="start" x="186.5" y="-318.3" font-family="mono" font-size="14.00" fill="#c83500">string</text>
</g>
<!-- Form -->
<g id="node3" class="node"><title>Form</title>
<polygon fill="#8ccbf2" stroke="none" points="8.5,-230.5 8.5,-251.5 341.5,-251.5 341.5,-230.5 8.5,-230.5"/>
<polygon fill="none" stroke="#8ccbf2" points="8.5,-230.5 8.5,-251.5 341.5,-251.5 341.5,-230.5 8.5,-230.5"/>
<text text-anchor="start" x="158" y="-238.3" font-family="mono" font-weight="bold" font-size="14.00" fill="#c83500">Form</text>
<polygon fill="#ddeeff" stroke="none" points="8.5,-209.5 8.5,-230.5 341.5,-230.5 341.5,-209.5 8.5,-209.5"/>
<polygon fill="none" stroke="#8ccbf2" points="8.5,-209.5 8.5,-230.5 341.5,-230.5 341.5,-209.5 8.5,-209.5"/>
<text text-anchor="start" x="11.5" y="-217.3" font-family="mono" font-size="14.00" fill="#c83500">scopes</text>
<text text-anchor="start" x="61.5" y="-217.3" font-family="Times,serif" font-size="14.00"> : array of </text>
<text text-anchor="start" x="119.5" y="-217.3" font-family="mono" font-size="14.00" fill="#c83500">string</text>
<polygon fill="#ddeeff" stroke="none" points="8.5,-188.5 8.5,-209.5 341.5,-209.5 341.5,-188.5 8.5,-188.5"/>
<polygon fill="none" stroke="#8ccbf2" points="8.5,-188.5 8.5,-209.5 341.5,-209.5 341.5,-188.5 8.5,-188.5"/>
<text text-anchor="start" x="11.5" y="-196.3" font-family="mono" font-size="14.00" fill="#c83500">contentType</text>
<text text-anchor="start" x="102.5" y="-196.3" font-family="Times,serif" font-size="14.00"> : </text>
<text text-anchor="start" x="114.5" y="-196.3" font-family="mono" font-size="14.00" fill="#c83500">string</text>
<text text-anchor="start" x="164.5" y="-196.3" font-family="Times,serif" font-size="14.00"> = application/json </text>
<text text-anchor="start" x="270.5" y="-196.3" font-family="Times,serif" font-style="italic" font-size="14.00">(mandatory)</text>
<polygon fill="#ddeeff" stroke="none" points="8.5,-167.5 8.5,-188.5 341.5,-188.5 341.5,-167.5 8.5,-167.5"/>
<polygon fill="none" stroke="#8ccbf2" points="8.5,-167.5 8.5,-188.5 341.5,-188.5 341.5,-167.5 8.5,-167.5"/>
<text text-anchor="start" x="11.5" y="-175.3" font-family="mono" font-size="14.00" fill="#c83500">subprotocol</text>
<text text-anchor="start" x="102.5" y="-175.3" font-family="Times,serif" font-size="14.00"> : </text>
<text text-anchor="start" x="114.5" y="-175.3" font-family="mono" font-size="14.00" fill="#c83500">string</text>
<polygon fill="#ddeeff" stroke="none" points="8.5,-146.5 8.5,-167.5 341.5,-167.5 341.5,-146.5 8.5,-146.5"/>
<polygon fill="none" stroke="#8ccbf2" points="8.5,-146.5 8.5,-167.5 341.5,-167.5 341.5,-146.5 8.5,-146.5"/>
<text text-anchor="start" x="11.5" y="-154.3" font-family="mono" font-size="14.00" fill="#c83500">op</text>
<text text-anchor="start" x="28.5" y="-154.3" font-family="Times,serif" font-size="14.00"> : </text>
<text text-anchor="start" x="40.5" y="-154.3" font-family="mono" font-size="14.00" fill="#c83500">string</text>
<polygon fill="#ddeeff" stroke="none" points="8.5,-125.5 8.5,-146.5 341.5,-146.5 341.5,-125.5 8.5,-125.5"/>
<polygon fill="none" stroke="#8ccbf2" points="8.5,-125.5 8.5,-146.5 341.5,-146.5 341.5,-125.5 8.5,-125.5"/>
<text text-anchor="start" x="11.5" y="-133.3" font-family="mono" font-size="14.00" fill="#c83500">security</text>
<text text-anchor="start" x="78.5" y="-133.3" font-family="Times,serif" font-size="14.00"> : array of </text>
<text text-anchor="start" x="136.5" y="-133.3" font-family="mono" font-size="14.00" fill="#c83500">string</text>
<polygon fill="#ddeeff" stroke="none" points="8.5,-104.5 8.5,-125.5 341.5,-125.5 341.5,-104.5 8.5,-104.5"/>
<polygon fill="none" stroke="#8ccbf2" points="8.5,-104.5 8.5,-125.5 341.5,-125.5 341.5,-104.5 8.5,-104.5"/>
<text text-anchor="start" x="11.5" y="-112.3" font-family="mono" font-size="14.00" fill="#c83500">href</text>
<text text-anchor="start" x="45.5" y="-112.3" font-family="Times,serif" font-size="14.00"> : </text>
<text text-anchor="start" x="57.5" y="-112.3" font-family="mono" font-size="14.00" fill="#c83500">anyURI</text>
<text text-anchor="start" x="107.5" y="-112.3" font-family="Times,serif" font-size="14.00"> </text>
<text text-anchor="start" x="111.5" y="-112.3" font-family="Times,serif" font-style="italic" font-size="14.00">(mandatory)</text>
</g>
<!-- InteractionPattern&#45;&gt;Form -->
<g id="edge1" class="edge"><title>InteractionPattern&#45;&gt;Form</title>
<path fill="none" stroke="black" d="M182.211,-306.891C179.513,-301.031 177.192,-295.013 175.5,-289 173.459,-281.747 172.026,-274.115 171.062,-266.396"/>
<polygon fill="black" stroke="black" points="174.523,-265.827 170.053,-256.222 167.557,-266.519 174.523,-265.827"/>
<text text-anchor="start" x="175.5" y="-277.8" font-family="mono" font-size="14.00" fill="#c83500">forms</text>
<text text-anchor="middle" x="159.053" y="-260.022" font-family="Times,serif" font-size="14.00">1..*</text>
</g>
<!-- DataSchema -->
<g id="node10" class="node"><title>DataSchema</title>
<polygon fill="#f2f2f2" stroke="none" points="431.5,-167.5 431.5,-188.5 520.5,-188.5 520.5,-167.5 431.5,-167.5"/>
<polygon fill="none" stroke="#8c8c8c" points="431.5,-167.5 431.5,-188.5 520.5,-188.5 520.5,-167.5 431.5,-167.5"/>
<text text-anchor="start" x="434.5" y="-175.3" font-family="mono" font-weight="bold" font-size="14.00">DataSchema</text>
</g>
<!-- InteractionPattern&#45;&gt;DataSchema -->
<g id="edge2" class="edge"><title>InteractionPattern&#45;&gt;DataSchema</title>
<path fill="none" stroke="black" d="M222.464,-306.674C225.683,-294.422 231.216,-282.567 240.5,-274 279.166,-238.322 308.334,-274.726 357.5,-256 390.825,-243.307 424.536,-220.195 447.343,-202.685"/>
<polygon fill="black" stroke="black" points="449.51,-205.434 455.232,-196.517 445.198,-199.919 449.51,-205.434"/>
<text text-anchor="start" x="240.5" y="-277.8" font-family="mono" font-size="14.00" fill="#c83500">uriVariables</text>
<text text-anchor="middle" x="444.232" y="-200.317" font-family="Times,serif" font-size="14.00">0..1</text>
</g>
<!-- Link -->
<g id="node2" class="node"><title>Link</title>
<polygon fill="#8ccbf2" stroke="none" points="645.5,-544.5 645.5,-565.5 819.5,-565.5 819.5,-544.5 645.5,-544.5"/>
<polygon fill="none" stroke="#8ccbf2" points="645.5,-544.5 645.5,-565.5 819.5,-565.5 819.5,-544.5 645.5,-544.5"/>
<text text-anchor="start" x="715.5" y="-552.3" font-family="mono" font-weight="bold" font-size="14.00" fill="#c83500">Link</text>
<polygon fill="#ddeeff" stroke="none" points="645.5,-523.5 645.5,-544.5 819.5,-544.5 819.5,-523.5 645.5,-523.5"/>
<polygon fill="none" stroke="#8ccbf2" points="645.5,-523.5 645.5,-544.5 819.5,-544.5 819.5,-523.5 645.5,-523.5"/>
<text text-anchor="start" x="648.5" y="-531.3" font-family="mono" font-size="14.00" fill="#c83500">type</text>
<text text-anchor="start" x="682.5" y="-531.3" font-family="Times,serif" font-size="14.00"> : </text>
<text text-anchor="start" x="694.5" y="-531.3" font-family="mono" font-size="14.00" fill="#c83500">string</text>
<polygon fill="#ddeeff" stroke="none" points="645.5,-502.5 645.5,-523.5 819.5,-523.5 819.5,-502.5 645.5,-502.5"/>
<polygon fill="none" stroke="#8ccbf2" points="645.5,-502.5 645.5,-523.5 819.5,-523.5 819.5,-502.5 645.5,-502.5"/>
<text text-anchor="start" x="648.5" y="-510.3" font-family="mono" font-size="14.00" fill="#c83500">href</text>
<text text-anchor="start" x="682.5" y="-510.3" font-family="Times,serif" font-size="14.00"> : </text>
<text text-anchor="start" x="694.5" y="-510.3" font-family="mono" font-size="14.00" fill="#c83500">anyURI</text>
<text text-anchor="start" x="744.5" y="-510.3" font-family="Times,serif" font-size="14.00"> </text>
<text text-anchor="start" x="748.5" y="-510.3" font-family="Times,serif" font-style="italic" font-size="14.00">(mandatory)</text>
<polygon fill="#ddeeff" stroke="none" points="645.5,-481.5 645.5,-502.5 819.5,-502.5 819.5,-481.5 645.5,-481.5"/>
<polygon fill="none" stroke="#8ccbf2" points="645.5,-481.5 645.5,-502.5 819.5,-502.5 819.5,-481.5 645.5,-481.5"/>
<text text-anchor="start" x="648.5" y="-489.3" font-family="mono" font-size="14.00" fill="#c83500">rel</text>
<text text-anchor="start" x="673.5" y="-489.3" font-family="Times,serif" font-size="14.00"> : </text>
<text text-anchor="start" x="685.5" y="-489.3" font-family="mono" font-size="14.00" fill="#c83500">string</text>
<polygon fill="#ddeeff" stroke="none" points="645.5,-460.5 645.5,-481.5 819.5,-481.5 819.5,-460.5 645.5,-460.5"/>
<polygon fill="none" stroke="#8ccbf2" points="645.5,-460.5 645.5,-481.5 819.5,-481.5 819.5,-460.5 645.5,-460.5"/>
<text text-anchor="start" x="648.5" y="-468.3" font-family="mono" font-size="14.00" fill="#c83500">anchor</text>
<text text-anchor="start" x="698.5" y="-468.3" font-family="Times,serif" font-size="14.00"> : </text>
<text text-anchor="start" x="710.5" y="-468.3" font-family="mono" font-size="14.00" fill="#c83500">anyURI</text>
</g>
<!-- Response -->
<g id="node4" class="node"><title>Response</title>
<polygon fill="#8ccbf2" stroke="none" points="95.5,-25 95.5,-46 254.5,-46 254.5,-25 95.5,-25"/>
<polygon fill="none" stroke="#8ccbf2" points="95.5,-25 95.5,-46 254.5,-46 254.5,-25 95.5,-25"/>
<text text-anchor="start" x="141.5" y="-32.8" font-family="mono" font-weight="bold" font-size="14.00" fill="#c83500">Response</text>
<polygon fill="#ddeeff" stroke="none" points="95.5,-4 95.5,-25 254.5,-25 254.5,-4 95.5,-4"/>
<polygon fill="none" stroke="#8ccbf2" points="95.5,-4 95.5,-25 254.5,-25 254.5,-4 95.5,-4"/>
<text text-anchor="start" x="98.5" y="-11.8" font-family="mono" font-size="14.00" fill="#c83500">contentType</text>
<text text-anchor="start" x="189.5" y="-11.8" font-family="Times,serif" font-size="14.00"> : </text>
<text text-anchor="start" x="201.5" y="-11.8" font-family="mono" font-size="14.00" fill="#c83500">string</text>
</g>
<!-- Form&#45;&gt;Response -->
<g id="edge3" class="edge"><title>Form&#45;&gt;Response</title>
<path fill="none" stroke="black" d="M174.5,-100.862C174.5,-86.5577 174.5,-72.2953 174.5,-60.116"/>
<polygon fill="black" stroke="black" points="178,-60.0004 174.5,-50.0004 171,-60.0004 178,-60.0004"/>
<text text-anchor="start" x="174.5" y="-71.8" font-family="mono" font-size="14.00" fill="#c83500">response</text>
<text text-anchor="middle" x="163.5" y="-53.8004" font-family="Times,serif" font-size="14.00">0..1</text>
</g>
<!-- Thing -->
<g id="node5" class="node"><title>Thing</title>
<polygon fill="#8ccbf2" stroke="none" points="569.5,-772 569.5,-793 822.5,-793 822.5,-772 569.5,-772"/>
<polygon fill="none" stroke="#8ccbf2" points="569.5,-772 569.5,-793 822.5,-793 822.5,-772 569.5,-772"/>
<text text-anchor="start" x="675" y="-779.8" font-family="mono" font-weight="bold" font-size="14.00" fill="#c83500">Thing</text>
<polygon fill="#ddeeff" stroke="none" points="569.5,-751 569.5,-772 822.5,-772 822.5,-751 569.5,-751"/>
<polygon fill="none" stroke="#8ccbf2" points="569.5,-751 569.5,-772 822.5,-772 822.5,-751 569.5,-751"/>
<text text-anchor="start" x="572.5" y="-758.8" font-family="mono" font-size="14.00" fill="#c83500">support</text>
<text text-anchor="start" x="630.5" y="-758.8" font-family="Times,serif" font-size="14.00"> : </text>
<text text-anchor="start" x="642.5" y="-758.8" font-family="mono" font-size="14.00" fill="#c83500">anyURI</text>
<polygon fill="#ddeeff" stroke="none" points="569.5,-730 569.5,-751 822.5,-751 822.5,-730 569.5,-730"/>
<polygon fill="none" stroke="#8ccbf2" points="569.5,-730 569.5,-751 822.5,-751 822.5,-730 569.5,-730"/>
<text text-anchor="start" x="572.5" y="-737.8" font-family="mono" font-size="14.00" fill="#c83500">description</text>
<text text-anchor="start" x="663.5" y="-737.8" font-family="Times,serif" font-size="14.00"> : </text>
<text text-anchor="start" x="675.5" y="-737.8" font-family="mono" font-size="14.00" fill="#c83500">string</text>
<polygon fill="#ddeeff" stroke="none" points="569.5,-709 569.5,-730 822.5,-730 822.5,-709 569.5,-709"/>
<polygon fill="none" stroke="#8ccbf2" points="569.5,-709 569.5,-730 822.5,-730 822.5,-709 569.5,-709"/>
<text text-anchor="start" x="572.5" y="-716.8" font-family="mono" font-size="14.00" fill="#c83500">lastModified</text>
<text text-anchor="start" x="672.5" y="-716.8" font-family="Times,serif" font-size="14.00"> : </text>
<text text-anchor="start" x="684.5" y="-716.8" font-family="mono" font-size="14.00" fill="#c83500">string</text>
<polygon fill="#ddeeff" stroke="none" points="569.5,-688 569.5,-709 822.5,-709 822.5,-688 569.5,-688"/>
<polygon fill="none" stroke="#8ccbf2" points="569.5,-688 569.5,-709 822.5,-709 822.5,-688 569.5,-688"/>
<text text-anchor="start" x="572.5" y="-695.8" font-family="mono" font-size="14.00" fill="#c83500">base</text>
<text text-anchor="start" x="606.5" y="-695.8" font-family="Times,serif" font-size="14.00"> : </text>
<text text-anchor="start" x="618.5" y="-695.8" font-family="mono" font-size="14.00" fill="#c83500">anyURI</text>
<polygon fill="#ddeeff" stroke="none" points="569.5,-667 569.5,-688 822.5,-688 822.5,-667 569.5,-667"/>
<polygon fill="none" stroke="#8ccbf2" points="569.5,-667 569.5,-688 822.5,-688 822.5,-667 569.5,-667"/>
<text text-anchor="start" x="572.5" y="-674.8" font-family="mono" font-size="14.00" fill="#c83500">name</text>
<text text-anchor="start" x="606.5" y="-674.8" font-family="Times,serif" font-size="14.00"> : </text>
<text text-anchor="start" x="618.5" y="-674.8" font-family="mono" font-size="14.00" fill="#c83500">string</text>
<text text-anchor="start" x="668.5" y="-674.8" font-family="Times,serif" font-size="14.00"> </text>
<text text-anchor="start" x="672.5" y="-674.8" font-family="Times,serif" font-style="italic" font-size="14.00">(mandatory)</text>
<polygon fill="#ddeeff" stroke="none" points="569.5,-646 569.5,-667 822.5,-667 822.5,-646 569.5,-646"/>
<polygon fill="none" stroke="#8ccbf2" points="569.5,-646 569.5,-667 822.5,-667 822.5,-646 569.5,-646"/>
<text text-anchor="start" x="572.5" y="-653.8" font-family="mono" font-size="14.00" fill="#c83500">created</text>
<text text-anchor="start" x="630.5" y="-653.8" font-family="Times,serif" font-size="14.00"> : </text>
<text text-anchor="start" x="642.5" y="-653.8" font-family="mono" font-size="14.00" fill="#c83500">string</text>
<polygon fill="#ddeeff" stroke="none" points="569.5,-625 569.5,-646 822.5,-646 822.5,-625 569.5,-625"/>
<polygon fill="none" stroke="#8ccbf2" points="569.5,-625 569.5,-646 822.5,-646 822.5,-625 569.5,-625"/>
<text text-anchor="start" x="572.5" y="-632.8" font-family="mono" font-size="14.00" fill="#c83500">security</text>
<text text-anchor="start" x="639.5" y="-632.8" font-family="Times,serif" font-size="14.00"> : array of </text>
<text text-anchor="start" x="697.5" y="-632.8" font-family="mono" font-size="14.00" fill="#c83500">string</text>
<text text-anchor="start" x="747.5" y="-632.8" font-family="Times,serif" font-size="14.00"> </text>
<text text-anchor="start" x="751.5" y="-632.8" font-family="Times,serif" font-style="italic" font-size="14.00">(mandatory)</text>
</g>
<!-- Thing&#45;&gt;Link -->
<g id="edge4" class="edge"><title>Thing&#45;&gt;Link</title>
<path fill="none" stroke="black" d="M712.16,-620.873C714.789,-607.124 717.468,-593.113 719.982,-579.966"/>
<polygon fill="black" stroke="black" points="723.428,-580.579 721.869,-570.099 716.553,-579.264 723.428,-580.579"/>
<text text-anchor="start" x="718.5" y="-591.8" font-family="mono" font-size="14.00" fill="#c83500">links</text>
<text text-anchor="middle" x="710.869" y="-573.899" font-family="Times,serif" font-size="14.00">0..*</text>
</g>
<!-- Property -->
<g id="node6" class="node"><title>Property</title>
<polygon fill="#8ccbf2" stroke="none" points="22.5,-513.5 22.5,-534.5 223.5,-534.5 223.5,-513.5 22.5,-513.5"/>
<polygon fill="none" stroke="#8ccbf2" points="22.5,-513.5 22.5,-534.5 223.5,-534.5 223.5,-513.5 22.5,-513.5"/>
<text text-anchor="start" x="89.5" y="-521.3" font-family="mono" font-weight="bold" font-size="14.00" fill="#c83500">Property</text>
<polygon fill="#ddeeff" stroke="none" points="22.5,-492.5 22.5,-513.5 223.5,-513.5 223.5,-492.5 22.5,-492.5"/>
<polygon fill="none" stroke="#8ccbf2" points="22.5,-492.5 22.5,-513.5 223.5,-513.5 223.5,-492.5 22.5,-492.5"/>
<text text-anchor="start" x="25.5" y="-500.3" font-family="mono" font-size="14.00" fill="#c83500">observable</text>
<text text-anchor="start" x="108.5" y="-500.3" font-family="Times,serif" font-size="14.00"> : </text>
<text text-anchor="start" x="120.5" y="-500.3" font-family="mono" font-size="14.00" fill="#c83500">boolean</text>
<text text-anchor="start" x="178.5" y="-500.3" font-family="Times,serif" font-size="14.00"> = false</text>
</g>
<!-- Thing&#45;&gt;Property -->
<g id="edge6" class="edge"><title>Thing&#45;&gt;Property</title>
<path fill="none" stroke="black" d="M560.787,-672.926C469.05,-647.661 345.503,-610.919 239.5,-570 219.133,-562.138 197.382,-552.254 178.228,-543.014"/>
<polygon fill="black" stroke="black" points="179.574,-539.777 169.051,-538.542 176.507,-546.069 179.574,-539.777"/>
<text text-anchor="start" x="325.5" y="-591.8" font-family="mono" font-size="14.00" fill="#c83500">properties</text>
<text text-anchor="middle" x="158.051" y="-542.342" font-family="Times,serif" font-size="14.00">0..1</text>
</g>
<!-- Action -->
<g id="node7" class="node"><title>Action</title>
<polygon fill="#8ccbf2" stroke="none" points="257.5,-523.5 257.5,-544.5 530.5,-544.5 530.5,-523.5 257.5,-523.5"/>
<polygon fill="none" stroke="#8ccbf2" points="257.5,-523.5 257.5,-544.5 530.5,-544.5 530.5,-523.5 257.5,-523.5"/>
<text text-anchor="start" x="369" y="-531.3" font-family="mono" font-weight="bold" font-size="14.00" fill="#c83500">Action</text>
<polygon fill="#ddeeff" stroke="none" points="257.5,-502.5 257.5,-523.5 530.5,-523.5 530.5,-502.5 257.5,-502.5"/>
<polygon fill="none" stroke="#8ccbf2" points="257.5,-502.5 257.5,-523.5 530.5,-523.5 530.5,-502.5 257.5,-502.5"/>
<text text-anchor="start" x="260.5" y="-510.3" font-family="mono" font-size="14.00" fill="#c83500">safe</text>
<text text-anchor="start" x="294.5" y="-510.3" font-family="Times,serif" font-size="14.00"> : </text>
<text text-anchor="start" x="306.5" y="-510.3" font-family="mono" font-size="14.00" fill="#c83500">boolean</text>
<text text-anchor="start" x="364.5" y="-510.3" font-family="Times,serif" font-size="14.00"> = false </text>
<text text-anchor="start" x="410.5" y="-510.3" font-family="Times,serif" font-style="italic" font-size="14.00">(mandatory)</text>
<polygon fill="#ddeeff" stroke="none" points="257.5,-481.5 257.5,-502.5 530.5,-502.5 530.5,-481.5 257.5,-481.5"/>
<polygon fill="none" stroke="#8ccbf2" points="257.5,-481.5 257.5,-502.5 530.5,-502.5 530.5,-481.5 257.5,-481.5"/>
<text text-anchor="start" x="260.5" y="-489.3" font-family="mono" font-size="14.00" fill="#c83500">idempotent</text>
<text text-anchor="start" x="343.5" y="-489.3" font-family="Times,serif" font-size="14.00"> : </text>
<text text-anchor="start" x="355.5" y="-489.3" font-family="mono" font-size="14.00" fill="#c83500">boolean</text>
<text text-anchor="start" x="413.5" y="-489.3" font-family="Times,serif" font-size="14.00"> = false </text>
<text text-anchor="start" x="459.5" y="-489.3" font-family="Times,serif" font-style="italic" font-size="14.00">(mandatory)</text>
</g>
<!-- Thing&#45;&gt;Action -->
<g id="edge8" class="edge"><title>Thing&#45;&gt;Action</title>
<path fill="none" stroke="black" d="M560.84,-621.719C524.477,-598.421 486.836,-574.303 456.483,-554.855"/>
<polygon fill="black" stroke="black" points="458.024,-551.686 447.716,-549.238 454.248,-557.58 458.024,-551.686"/>
<text text-anchor="start" x="526.5" y="-591.8" font-family="mono" font-size="14.00" fill="#c83500">actions</text>
<text text-anchor="middle" x="436.716" y="-553.038" font-family="Times,serif" font-size="14.00">0..1</text>
</g>
<!-- Event -->
<g id="node8" class="node"><title>Event</title>
<polygon fill="#8ccbf2" stroke="none" points="563.5,-502.5 563.5,-523.5 611.5,-523.5 611.5,-502.5 563.5,-502.5"/>
<polygon fill="none" stroke="#8ccbf2" points="563.5,-502.5 563.5,-523.5 611.5,-523.5 611.5,-502.5 563.5,-502.5"/>
<text text-anchor="start" x="566.5" y="-510.3" font-family="mono" font-weight="bold" font-size="14.00" fill="#c83500">Event</text>
</g>
<!-- Thing&#45;&gt;Event -->
<g id="edge9" class="edge"><title>Thing&#45;&gt;Event</title>
<path fill="none" stroke="black" d="M646.871,-620.873C630.557,-591.645 613.583,-561.233 601.984,-540.451"/>
<polygon fill="black" stroke="black" points="604.985,-538.645 597.055,-531.619 598.872,-542.057 604.985,-538.645"/>
<text text-anchor="start" x="635.5" y="-591.8" font-family="mono" font-size="14.00" fill="#c83500">events</text>
<text text-anchor="middle" x="586.055" y="-535.419" font-family="Times,serif" font-size="14.00">0..1</text>
</g>
<!-- Versioning -->
<g id="node9" class="node"><title>Versioning</title>
<polygon fill="#8ccbf2" stroke="none" points="854.5,-513.5 854.5,-534.5 1061.5,-534.5 1061.5,-513.5 854.5,-513.5"/>
<polygon fill="none" stroke="#8ccbf2" points="854.5,-513.5 854.5,-534.5 1061.5,-534.5 1061.5,-513.5 854.5,-513.5"/>
<text text-anchor="start" x="916.5" y="-521.3" font-family="mono" font-weight="bold" font-size="14.00" fill="#c83500">Versioning</text>
<polygon fill="#ddeeff" stroke="none" points="854.5,-492.5 854.5,-513.5 1061.5,-513.5 1061.5,-492.5 854.5,-492.5"/>
<polygon fill="none" stroke="#8ccbf2" points="854.5,-492.5 854.5,-513.5 1061.5,-513.5 1061.5,-492.5 854.5,-492.5"/>
<text text-anchor="start" x="857.5" y="-500.3" font-family="mono" font-size="14.00" fill="#c83500">instance</text>
<text text-anchor="start" x="924.5" y="-500.3" font-family="Times,serif" font-size="14.00"> : </text>
<text text-anchor="start" x="936.5" y="-500.3" font-family="mono" font-size="14.00" fill="#c83500">string</text>
<text text-anchor="start" x="986.5" y="-500.3" font-family="Times,serif" font-size="14.00"> </text>
<text text-anchor="start" x="990.5" y="-500.3" font-family="Times,serif" font-style="italic" font-size="14.00">(mandatory)</text>
</g>
<!-- Thing&#45;&gt;Versioning -->
<g id="edge7" class="edge"><title>Thing&#45;&gt;Versioning</title>
<path fill="none" stroke="black" d="M813.47,-620.873C850.397,-593.601 888.719,-565.298 916.542,-544.749"/>
<polygon fill="black" stroke="black" points="918.862,-547.387 924.827,-538.631 914.703,-541.756 918.862,-547.387"/>
<text text-anchor="start" x="858.5" y="-591.8" font-family="mono" font-size="14.00" fill="#c83500">version</text>
<text text-anchor="middle" x="913.827" y="-542.431" font-family="Times,serif" font-size="14.00">0..1</text>
</g>
<!-- SecurityScheme -->
<g id="node11" class="node"><title>SecurityScheme</title>
<polygon fill="#f2f2f2" stroke="none" points="1095.5,-502.5 1095.5,-523.5 1217.5,-523.5 1217.5,-502.5 1095.5,-502.5"/>
<polygon fill="none" stroke="#8c8c8c" points="1095.5,-502.5 1095.5,-523.5 1217.5,-523.5 1217.5,-502.5 1095.5,-502.5"/>
<text text-anchor="start" x="1098.5" y="-510.3" font-family="mono" font-weight="bold" font-size="14.00">SecurityScheme</text>
</g>
<!-- Thing&#45;&gt;SecurityScheme -->
<g id="edge5" class="edge"><title>Thing&#45;&gt;SecurityScheme</title>
<path fill="none" stroke="black" d="M830.441,-668.952C905.275,-644.928 998.83,-610.911 1077.5,-570 1094.9,-560.95 1112.91,-548.575 1127.32,-537.807"/>
<polygon fill="black" stroke="black" points="1129.52,-540.53 1135.36,-531.69 1125.28,-534.959 1129.52,-540.53"/>
<text text-anchor="start" x="1038.5" y="-591.8" font-family="mono" font-size="14.00" fill="#c83500">securityDefinitions</text>
<text text-anchor="middle" x="1124.36" y="-535.49" font-family="Times,serif" font-size="14.00">0..1</text>
</g>
<!-- Property&#45;&gt;InteractionPattern -->
<g id="edge17" class="edge"><title>Property&#45;&gt;InteractionPattern</title>
<path fill="none" stroke="black" d="M138.301,-488.392C148.964,-472.122 163.575,-449.829 177.465,-428.636"/>
<polygon fill="white" stroke="black" points="180.393,-430.553 182.948,-420.27 174.539,-426.716 180.393,-430.553"/>
</g>
<!-- Action&#45;&gt;InteractionPattern -->
<g id="edge15" class="edge"><title>Action&#45;&gt;InteractionPattern</title>
<path fill="none" stroke="black" d="M352.705,-477.801C334.802,-462.573 313.222,-444.217 292.694,-426.757"/>
<polygon fill="white" stroke="black" points="294.773,-423.93 284.888,-420.117 290.237,-429.262 294.773,-423.93"/>
</g>
<!-- Action&#45;&gt;DataSchema -->
<g id="edge10" class="edge"><title>Action&#45;&gt;DataSchema</title>
<path fill="none" stroke="black" d="M402.043,-477.806C418.451,-411.176 454.053,-266.594 468.846,-206.52"/>
<polygon fill="black" stroke="black" points="472.285,-207.195 471.277,-196.648 465.488,-205.521 472.285,-207.195"/>
<text text-anchor="start" x="444.5" y="-359.8" font-family="mono" font-size="14.00" fill="#c83500">output</text>
<text text-anchor="middle" x="482.277" y="-200.448" font-family="Times,serif" font-size="14.00">0..1</text>
</g>
<!-- Action&#45;&gt;DataSchema -->
<g id="edge11" class="edge"><title>Action&#45;&gt;DataSchema</title>
<path fill="none" stroke="black" d="M380.792,-477.962C367.453,-436.229 351.036,-364.463 371.5,-307 386.438,-265.054 421.742,-226.919 447.073,-203.505"/>
<polygon fill="black" stroke="black" points="449.506,-206.024 454.58,-196.724 444.814,-200.83 449.506,-206.024"/>
<text text-anchor="start" x="371.5" y="-359.8" font-family="mono" font-size="14.00" fill="#c83500">input</text>
<text text-anchor="middle" x="465.58" y="-200.524" font-family="Times,serif" font-size="14.00">0..1</text>
</g>
<!-- Event&#45;&gt;InteractionPattern -->
<g id="edge16" class="edge"><title>Event&#45;&gt;InteractionPattern</title>
<path fill="none" stroke="black" d="M579.397,-495.391C572.473,-482.716 561.282,-466.122 546.5,-457 505.429,-431.656 378.403,-434.9 332.5,-420 330.856,-419.466 329.207,-418.913 327.552,-418.341"/>
<polygon fill="white" stroke="black" points="328.639,-415.012 318.045,-414.879 326.244,-421.59 328.639,-415.012"/>
</g>
<!-- Event&#45;&gt;DataSchema -->
<g id="edge12" class="edge"><title>Event&#45;&gt;DataSchema</title>
<path fill="none" stroke="black" d="M575.061,-495.259C562.629,-477.28 543.785,-447.883 532.5,-420 502.469,-345.8 485.938,-252.035 479.179,-206.617"/>
<polygon fill="black" stroke="black" points="482.634,-206.058 477.74,-196.662 475.706,-207.059 482.634,-206.058"/>
<text text-anchor="start" x="532.5" y="-359.8" font-family="mono" font-size="14.00" fill="#c83500">cancellation</text>
<text text-anchor="middle" x="488.74" y="-200.462" font-family="Times,serif" font-size="14.00">0..1</text>
</g>
<!-- Event&#45;&gt;DataSchema -->
<g id="edge13" class="edge"><title>Event&#45;&gt;DataSchema</title>
<path fill="none" stroke="black" d="M598.333,-495.414C619.888,-459.076 663.508,-372.127 632.5,-307 609.443,-258.572 558.003,-222.542 520.261,-201.357"/>
<polygon fill="black" stroke="black" points="521.923,-198.276 511.47,-196.549 518.564,-204.418 521.923,-198.276"/>
<text text-anchor="start" x="643.5" y="-359.8" font-family="mono" font-size="14.00" fill="#c83500">data</text>
<text text-anchor="middle" x="522.47" y="-200.349" font-family="Times,serif" font-size="14.00">0..1</text>
</g>
<!-- Event&#45;&gt;DataSchema -->
<g id="edge14" class="edge"><title>Event&#45;&gt;DataSchema</title>
<path fill="none" stroke="black" d="M598.053,-495.346C605.666,-483.759 616.655,-468.532 628.5,-457 649.084,-436.96 668.217,-445.472 681.5,-420 704.721,-375.469 705.3,-351.225 681.5,-307 651.789,-251.792 586.835,-217.648 537.753,-198.756"/>
<polygon fill="black" stroke="black" points="538.756,-195.395 528.164,-195.18 536.31,-201.954 538.756,-195.395"/>
<text text-anchor="start" x="699.5" y="-359.8" font-family="mono" font-size="14.00" fill="#c83500">subscription</text>
<text text-anchor="middle" x="539.164" y="-183.98" font-family="Times,serif" font-size="14.00">0..1</text>
</g>
</g>
</svg>
