<?xml version="1.0" encoding="UTF-8" standalone="no"?>
<!DOCTYPE svg PUBLIC "-//W3C//DTD SVG 1.1//EN"
 "http://www.w3.org/Graphics/SVG/1.1/DTD/svg11.dtd">
<!-- Generated by graphviz version 2.38.0 (20140413.2041)
 -->
<!-- Title: %3 Pages: 1 -->
<svg width="1357pt" height="798pt"
 viewBox="0.00 0.00 1356.50 798.00" xmlns="http://www.w3.org/2000/svg" xmlns:xlink="http://www.w3.org/1999/xlink">
<g id="graph0" class="graph" transform="scale(1 1) rotate(0) translate(4 794)">
<title>%3</title>
<polygon fill="white" stroke="none" points="-4,4 -4,-794 1352.5,-794 1352.5,4 -4,4"/>
<!-- MultiLanguage -->
<g id="node1" class="node"><title>MultiLanguage</title>
<polygon fill="#8ccbf2" stroke="none" points="274.5,-167.5 274.5,-188.5 388.5,-188.5 388.5,-167.5 274.5,-167.5"/>
<polygon fill="none" stroke="#8ccbf2" points="274.5,-167.5 274.5,-188.5 388.5,-188.5 388.5,-167.5 274.5,-167.5"/>
<text text-anchor="start" x="277.5" y="-175.3" font-family="mono" font-weight="bold" font-size="14.00" fill="#c83500">MultiLanguage</text>
</g>
<!-- Form -->
<g id="node2" class="node"><title>Form</title>
<polygon fill="#8ccbf2" stroke="none" points="8.5,-230.5 8.5,-251.5 239.5,-251.5 239.5,-230.5 8.5,-230.5"/>
<polygon fill="none" stroke="#8ccbf2" points="8.5,-230.5 8.5,-251.5 239.5,-251.5 239.5,-230.5 8.5,-230.5"/>
<text text-anchor="start" x="107" y="-238.3" font-family="mono" font-weight="bold" font-size="14.00" fill="#c83500">Form</text>
<polygon fill="#ddeeff" stroke="none" points="8.5,-209.5 8.5,-230.5 239.5,-230.5 239.5,-209.5 8.5,-209.5"/>
<polygon fill="none" stroke="#8ccbf2" points="8.5,-209.5 8.5,-230.5 239.5,-230.5 239.5,-209.5 8.5,-209.5"/>
<text text-anchor="start" x="11.5" y="-217.3" font-family="mono" font-size="14.00" fill="#c83500">scopes</text>
<text text-anchor="start" x="61.5" y="-217.3" font-family="Times,serif" font-size="14.00"> : array of </text>
<text text-anchor="start" x="119.5" y="-217.3" font-family="mono" font-size="14.00" fill="#c83500">string</text>
<polygon fill="#ddeeff" stroke="none" points="8.5,-188.5 8.5,-209.5 239.5,-209.5 239.5,-188.5 8.5,-188.5"/>
<polygon fill="none" stroke="#8ccbf2" points="8.5,-188.5 8.5,-209.5 239.5,-209.5 239.5,-188.5 8.5,-188.5"/>
<text text-anchor="start" x="11.5" y="-196.3" font-family="mono" font-size="14.00" fill="#c83500">subprotocol</text>
<text text-anchor="start" x="102.5" y="-196.3" font-family="Times,serif" font-size="14.00"> : </text>
<text text-anchor="start" x="114.5" y="-196.3" font-family="mono" font-size="14.00" fill="#c83500">string</text>
<polygon fill="#ddeeff" stroke="none" points="8.5,-167.5 8.5,-188.5 239.5,-188.5 239.5,-167.5 8.5,-167.5"/>
<polygon fill="none" stroke="#8ccbf2" points="8.5,-167.5 8.5,-188.5 239.5,-188.5 239.5,-167.5 8.5,-167.5"/>
<text text-anchor="start" x="11.5" y="-175.3" font-family="mono" font-size="14.00" fill="#c83500">href</text>
<text text-anchor="start" x="45.5" y="-175.3" font-family="Times,serif" font-size="14.00"> : </text>
<text text-anchor="start" x="57.5" y="-175.3" font-family="mono" font-size="14.00" fill="#c83500">anyURI</text>
<text text-anchor="start" x="107.5" y="-175.3" font-family="Times,serif" font-size="14.00"> </text>
<text text-anchor="start" x="111.5" y="-175.3" font-family="Times,serif" font-style="italic" font-size="14.00">(mandatory)</text>
<polygon fill="#ddeeff" stroke="none" points="8.5,-146.5 8.5,-167.5 239.5,-167.5 239.5,-146.5 8.5,-146.5"/>
<polygon fill="none" stroke="#8ccbf2" points="8.5,-146.5 8.5,-167.5 239.5,-167.5 239.5,-146.5 8.5,-146.5"/>
<text text-anchor="start" x="11.5" y="-154.3" font-family="mono" font-size="14.00" fill="#c83500">security</text>
<text text-anchor="start" x="78.5" y="-154.3" font-family="Times,serif" font-size="14.00"> : array of </text>
<text text-anchor="start" x="136.5" y="-154.3" font-family="mono" font-size="14.00" fill="#c83500">string</text>
<polygon fill="#ddeeff" stroke="none" points="8.5,-125.5 8.5,-146.5 239.5,-146.5 239.5,-125.5 8.5,-125.5"/>
<polygon fill="none" stroke="#8ccbf2" points="8.5,-125.5 8.5,-146.5 239.5,-146.5 239.5,-125.5 8.5,-125.5"/>
<text text-anchor="start" x="11.5" y="-133.3" font-family="mono" font-size="14.00" fill="#c83500">contentType</text>
<text text-anchor="start" x="102.5" y="-133.3" font-family="Times,serif" font-size="14.00"> : </text>
<text text-anchor="start" x="114.5" y="-133.3" font-family="mono" font-size="14.00" fill="#c83500">string</text>
<text text-anchor="start" x="164.5" y="-133.3" font-family="Times,serif" font-size="14.00"> </text>
<text text-anchor="start" x="168.5" y="-133.3" font-family="Times,serif" font-style="italic" font-size="14.00">(mandatory)</text>
<polygon fill="#ddeeff" stroke="none" points="8.5,-104.5 8.5,-125.5 239.5,-125.5 239.5,-104.5 8.5,-104.5"/>
<polygon fill="none" stroke="#8ccbf2" points="8.5,-104.5 8.5,-125.5 239.5,-125.5 239.5,-104.5 8.5,-104.5"/>
<text text-anchor="start" x="11.5" y="-112.3" font-family="mono" font-size="14.00" fill="#c83500">op</text>
<text text-anchor="start" x="28.5" y="-112.3" font-family="Times,serif" font-size="14.00"> : (array of) </text>
<text text-anchor="start" x="95.5" y="-112.3" font-family="mono" font-size="14.00" fill="#c83500">string</text>
<text text-anchor="start" x="145.5" y="-112.3" font-family="Times,serif" font-size="14.00"> </text>
<text text-anchor="start" x="149.5" y="-112.3" font-family="Times,serif" font-style="italic" font-size="14.00">(mandatory)</text>
</g>
<!-- ExpectedResponse -->
<g id="node5" class="node"><title>ExpectedResponse</title>
<polygon fill="#8ccbf2" stroke="none" points="8.5,-25 8.5,-46 239.5,-46 239.5,-25 8.5,-25"/>
<polygon fill="none" stroke="#8ccbf2" points="8.5,-25 8.5,-46 239.5,-46 239.5,-25 8.5,-25"/>
<text text-anchor="start" x="57.5" y="-32.8" font-family="mono" font-weight="bold" font-size="14.00" fill="#c83500">ExpectedResponse</text>
<polygon fill="#ddeeff" stroke="none" points="8.5,-4 8.5,-25 239.5,-25 239.5,-4 8.5,-4"/>
<polygon fill="none" stroke="#8ccbf2" points="8.5,-4 8.5,-25 239.5,-25 239.5,-4 8.5,-4"/>
<text text-anchor="start" x="11.5" y="-11.8" font-family="mono" font-size="14.00" fill="#c83500">contentType</text>
<text text-anchor="start" x="102.5" y="-11.8" font-family="Times,serif" font-size="14.00"> : </text>
<text text-anchor="start" x="114.5" y="-11.8" font-family="mono" font-size="14.00" fill="#c83500">string</text>
<text text-anchor="start" x="164.5" y="-11.8" font-family="Times,serif" font-size="14.00"> </text>
<text text-anchor="start" x="168.5" y="-11.8" font-family="Times,serif" font-style="italic" font-size="14.00">(mandatory)</text>
</g>
<!-- Form&#45;&gt;ExpectedResponse -->
<g id="edge1" class="edge"><title>Form&#45;&gt;ExpectedResponse</title>
<path fill="none" stroke="black" d="M123.5,-100.862C123.5,-86.5577 123.5,-72.2953 123.5,-60.116"/>
<polygon fill="black" stroke="black" points="127,-60.0004 123.5,-50.0004 120,-60.0004 127,-60.0004"/>
<text text-anchor="start" x="123.5" y="-71.8" font-family="mono" font-size="14.00" fill="#c83500">response</text>
<text text-anchor="middle" x="112.5" y="-53.8004" font-family="Times,serif" font-size="14.00">0..1</text>
</g>
<!-- Thing -->
<g id="node3" class="node"><title>Thing</title>
<polygon fill="#8ccbf2" stroke="none" points="497.5,-764.5 497.5,-785.5 750.5,-785.5 750.5,-764.5 497.5,-764.5"/>
<polygon fill="none" stroke="#8ccbf2" points="497.5,-764.5 497.5,-785.5 750.5,-785.5 750.5,-764.5 497.5,-764.5"/>
<text text-anchor="start" x="603" y="-772.3" font-family="mono" font-weight="bold" font-size="14.00" fill="#c83500">Thing</text>
<polygon fill="#ddeeff" stroke="none" points="497.5,-743.5 497.5,-764.5 750.5,-764.5 750.5,-743.5 497.5,-743.5"/>
<polygon fill="none" stroke="#8ccbf2" points="497.5,-743.5 497.5,-764.5 750.5,-764.5 750.5,-743.5 497.5,-743.5"/>
<text text-anchor="start" x="500.5" y="-751.3" font-family="mono" font-size="14.00" fill="#c83500">@context</text>
<text text-anchor="start" x="567.5" y="-751.3" font-family="Times,serif" font-size="14.00"> : </text>
<text text-anchor="start" x="579.5" y="-751.3" font-family="Times,serif" font-style="italic" font-size="14.00">array</text>
<text text-anchor="start" x="610.5" y="-751.3" font-family="Times,serif" font-size="14.00"> </text>
<text text-anchor="start" x="614.5" y="-751.3" font-family="Times,serif" font-style="italic" font-size="14.00">(mandatory)</text>
<polygon fill="#ddeeff" stroke="none" points="497.5,-722.5 497.5,-743.5 750.5,-743.5 750.5,-722.5 497.5,-722.5"/>
<polygon fill="none" stroke="#8ccbf2" points="497.5,-722.5 497.5,-743.5 750.5,-743.5 750.5,-722.5 497.5,-722.5"/>
<text text-anchor="start" x="500.5" y="-730.3" font-family="mono" font-size="14.00" fill="#c83500">@type</text>
<text text-anchor="start" x="542.5" y="-730.3" font-family="Times,serif" font-size="14.00"> : </text>
<text text-anchor="start" x="554.5" y="-730.3" font-family="Times,serif" font-style="italic" font-size="14.00">array of </text>
<text text-anchor="start" x="603.5" y="-730.3" font-family="mono" font-size="14.00" fill="#c83500">string</text>
<polygon fill="#ddeeff" stroke="none" points="497.5,-701.5 497.5,-722.5 750.5,-722.5 750.5,-701.5 497.5,-701.5"/>
<polygon fill="none" stroke="#8ccbf2" points="497.5,-701.5 497.5,-722.5 750.5,-722.5 750.5,-701.5 497.5,-701.5"/>
<text text-anchor="start" x="500.5" y="-709.3" font-family="mono" font-size="14.00" fill="#c83500">id</text>
<text text-anchor="start" x="517.5" y="-709.3" font-family="Times,serif" font-size="14.00"> : </text>
<text text-anchor="start" x="529.5" y="-709.3" font-family="mono" font-size="14.00" fill="#c83500">anyURI</text>
<text text-anchor="start" x="579.5" y="-709.3" font-family="Times,serif" font-size="14.00"> </text>
<text text-anchor="start" x="583.5" y="-709.3" font-family="Times,serif" font-style="italic" font-size="14.00">(mandatory)</text>
<polygon fill="#ddeeff" stroke="none" points="497.5,-680.5 497.5,-701.5 750.5,-701.5 750.5,-680.5 497.5,-680.5"/>
<polygon fill="none" stroke="#8ccbf2" points="497.5,-680.5 497.5,-701.5 750.5,-701.5 750.5,-680.5 497.5,-680.5"/>
<text text-anchor="start" x="500.5" y="-688.3" font-family="mono" font-size="14.00" fill="#c83500">base</text>
<text text-anchor="start" x="534.5" y="-688.3" font-family="Times,serif" font-size="14.00"> : </text>
<text text-anchor="start" x="546.5" y="-688.3" font-family="mono" font-size="14.00" fill="#c83500">anyURI</text>
<polygon fill="#ddeeff" stroke="none" points="497.5,-659.5 497.5,-680.5 750.5,-680.5 750.5,-659.5 497.5,-659.5"/>
<polygon fill="none" stroke="#8ccbf2" points="497.5,-659.5 497.5,-680.5 750.5,-680.5 750.5,-659.5 497.5,-659.5"/>
<text text-anchor="start" x="500.5" y="-667.3" font-family="mono" font-size="14.00" fill="#c83500">support</text>
<text text-anchor="start" x="558.5" y="-667.3" font-family="Times,serif" font-size="14.00"> : </text>
<text text-anchor="start" x="570.5" y="-667.3" font-family="mono" font-size="14.00" fill="#c83500">string</text>
<polygon fill="#ddeeff" stroke="none" points="497.5,-638.5 497.5,-659.5 750.5,-659.5 750.5,-638.5 497.5,-638.5"/>
<polygon fill="none" stroke="#8ccbf2" points="497.5,-638.5 497.5,-659.5 750.5,-659.5 750.5,-638.5 497.5,-638.5"/>
<text text-anchor="start" x="500.5" y="-646.3" font-family="mono" font-size="14.00" fill="#c83500">name</text>
<text text-anchor="start" x="534.5" y="-646.3" font-family="Times,serif" font-size="14.00"> : </text>
<text text-anchor="start" x="546.5" y="-646.3" font-family="mono" font-size="14.00" fill="#c83500">string</text>
<text text-anchor="start" x="596.5" y="-646.3" font-family="Times,serif" font-size="14.00"> </text>
<text text-anchor="start" x="600.5" y="-646.3" font-family="Times,serif" font-style="italic" font-size="14.00">(mandatory)</text>
<polygon fill="#ddeeff" stroke="none" points="497.5,-617.5 497.5,-638.5 750.5,-638.5 750.5,-617.5 497.5,-617.5"/>
<polygon fill="none" stroke="#8ccbf2" points="497.5,-617.5 497.5,-638.5 750.5,-638.5 750.5,-617.5 497.5,-617.5"/>
<text text-anchor="start" x="500.5" y="-625.3" font-family="mono" font-size="14.00" fill="#c83500">description</text>
<text text-anchor="start" x="591.5" y="-625.3" font-family="Times,serif" font-size="14.00"> : </text>
<text text-anchor="start" x="603.5" y="-625.3" font-family="mono" font-size="14.00" fill="#c83500">string</text>
<polygon fill="#ddeeff" stroke="none" points="497.5,-596.5 497.5,-617.5 750.5,-617.5 750.5,-596.5 497.5,-596.5"/>
<polygon fill="none" stroke="#8ccbf2" points="497.5,-596.5 497.5,-617.5 750.5,-617.5 750.5,-596.5 497.5,-596.5"/>
<text text-anchor="start" x="500.5" y="-604.3" font-family="mono" font-size="14.00" fill="#c83500">created</text>
<text text-anchor="start" x="558.5" y="-604.3" font-family="Times,serif" font-size="14.00"> : </text>
<text text-anchor="start" x="570.5" y="-604.3" font-family="mono" font-size="14.00" fill="#c83500">string</text>
<polygon fill="#ddeeff" stroke="none" points="497.5,-575.5 497.5,-596.5 750.5,-596.5 750.5,-575.5 497.5,-575.5"/>
<polygon fill="none" stroke="#8ccbf2" points="497.5,-575.5 497.5,-596.5 750.5,-596.5 750.5,-575.5 497.5,-575.5"/>
<text text-anchor="start" x="500.5" y="-583.3" font-family="mono" font-size="14.00" fill="#c83500">security</text>
<text text-anchor="start" x="567.5" y="-583.3" font-family="Times,serif" font-size="14.00"> : array of </text>
<text text-anchor="start" x="625.5" y="-583.3" font-family="mono" font-size="14.00" fill="#c83500">string</text>
<text text-anchor="start" x="675.5" y="-583.3" font-family="Times,serif" font-size="14.00"> </text>
<text text-anchor="start" x="679.5" y="-583.3" font-family="Times,serif" font-style="italic" font-size="14.00">(mandatory)</text>
<polygon fill="#ddeeff" stroke="none" points="497.5,-554.5 497.5,-575.5 750.5,-575.5 750.5,-554.5 497.5,-554.5"/>
<polygon fill="none" stroke="#8ccbf2" points="497.5,-554.5 497.5,-575.5 750.5,-575.5 750.5,-554.5 497.5,-554.5"/>
<text text-anchor="start" x="500.5" y="-562.3" font-family="mono" font-size="14.00" fill="#c83500">lastModified</text>
<text text-anchor="start" x="600.5" y="-562.3" font-family="Times,serif" font-size="14.00"> : </text>
<text text-anchor="start" x="612.5" y="-562.3" font-family="mono" font-size="14.00" fill="#c83500">string</text>
</g>
<!-- Thing&#45;&gt;MultiLanguage -->
<g id="edge5" class="edge"><title>Thing&#45;&gt;MultiLanguage</title>
<path fill="none" stroke="black" d="M488.65,-649.734C399.198,-628.854 288.197,-586.287 231.5,-500 167.412,-402.466 264.743,-261.446 310.199,-204.625"/>
<polygon fill="black" stroke="black" points="313.167,-206.523 316.761,-196.557 307.736,-202.107 313.167,-206.523"/>
<text text-anchor="start" x="212.5" y="-399.8" font-family="mono" font-size="14.00" fill="#c83500">descriptions</text>
<text text-anchor="middle" x="305.761" y="-200.357" font-family="Times,serif" font-size="14.00">0..1</text>
</g>
<!-- Thing&#45;&gt;Form -->
<g id="edge9" class="edge"><title>Thing&#45;&gt;Form</title>
<path fill="none" stroke="black" d="M488.842,-651.771C394.02,-631.746 272.628,-589.358 206.5,-500 155.907,-431.633 136.07,-335.22 128.338,-266.025"/>
<polygon fill="black" stroke="black" points="131.813,-265.598 127.283,-256.02 124.851,-266.332 131.813,-265.598"/>
<text text-anchor="start" x="159.5" y="-399.8" font-family="mono" font-size="14.00" fill="#c83500">forms</text>
<text text-anchor="middle" x="116.283" y="-259.82" font-family="Times,serif" font-size="14.00">0..*</text>
</g>
<!-- PropertyAffordance -->
<g id="node4" class="node"><title>PropertyAffordance</title>
<polygon fill="#8ccbf2" stroke="none" points="249.5,-464.5 249.5,-485.5 408.5,-485.5 408.5,-464.5 249.5,-464.5"/>
<polygon fill="none" stroke="#8ccbf2" points="249.5,-464.5 249.5,-485.5 408.5,-485.5 408.5,-464.5 249.5,-464.5"/>
<text text-anchor="start" x="254.5" y="-472.3" font-family="mono" font-weight="bold" font-size="14.00" fill="#c83500">PropertyAffordance</text>
<polygon fill="#ddeeff" stroke="none" points="249.5,-443.5 249.5,-464.5 408.5,-464.5 408.5,-443.5 249.5,-443.5"/>
<polygon fill="none" stroke="#8ccbf2" points="249.5,-443.5 249.5,-464.5 408.5,-464.5 408.5,-443.5 249.5,-443.5"/>
<text text-anchor="start" x="252.5" y="-451.3" font-family="mono" font-size="14.00" fill="#c83500">observable</text>
<text text-anchor="start" x="335.5" y="-451.3" font-family="Times,serif" font-size="14.00"> : </text>
<text text-anchor="start" x="347.5" y="-451.3" font-family="mono" font-size="14.00" fill="#c83500">boolean</text>
</g>
<!-- Thing&#45;&gt;PropertyAffordance -->
<g id="edge6" class="edge"><title>Thing&#45;&gt;PropertyAffordance</title>
<path fill="none" stroke="black" d="M488.949,-576.455C446.584,-547.158 402.784,-516.869 371.672,-495.355"/>
<polygon fill="black" stroke="black" points="373.461,-492.336 363.245,-489.527 369.479,-498.094 373.461,-492.336"/>
<text text-anchor="start" x="424.5" y="-521.8" font-family="mono" font-size="14.00" fill="#c83500">properties</text>
<text text-anchor="middle" x="352.245" y="-493.327" font-family="Times,serif" font-size="14.00">0..1</text>
</g>
<!-- VersionInfo -->
<g id="node6" class="node"><title>VersionInfo</title>
<polygon fill="#8ccbf2" stroke="none" points="442.5,-464.5 442.5,-485.5 649.5,-485.5 649.5,-464.5 442.5,-464.5"/>
<polygon fill="none" stroke="#8ccbf2" points="442.5,-464.5 442.5,-485.5 649.5,-485.5 649.5,-464.5 442.5,-464.5"/>
<text text-anchor="start" x="500.5" y="-472.3" font-family="mono" font-weight="bold" font-size="14.00" fill="#c83500">VersionInfo</text>
<polygon fill="#ddeeff" stroke="none" points="442.5,-443.5 442.5,-464.5 649.5,-464.5 649.5,-443.5 442.5,-443.5"/>
<polygon fill="none" stroke="#8ccbf2" points="442.5,-443.5 442.5,-464.5 649.5,-464.5 649.5,-443.5 442.5,-443.5"/>
<text text-anchor="start" x="445.5" y="-451.3" font-family="mono" font-size="14.00" fill="#c83500">instance</text>
<text text-anchor="start" x="512.5" y="-451.3" font-family="Times,serif" font-size="14.00"> : </text>
<text text-anchor="start" x="524.5" y="-451.3" font-family="mono" font-size="14.00" fill="#c83500">string</text>
<text text-anchor="start" x="574.5" y="-451.3" font-family="Times,serif" font-size="14.00"> </text>
<text text-anchor="start" x="578.5" y="-451.3" font-family="Times,serif" font-style="italic" font-size="14.00">(mandatory)</text>
</g>
<!-- Thing&#45;&gt;VersionInfo -->
<g id="edge3" class="edge"><title>Thing&#45;&gt;VersionInfo</title>
<path fill="none" stroke="black" d="M578.127,-550.832C570.884,-531.888 563.942,-513.733 558.338,-499.075"/>
<polygon fill="black" stroke="black" points="561.525,-497.611 554.684,-489.52 554.986,-500.111 561.525,-497.611"/>
<text text-anchor="start" x="571.5" y="-521.8" font-family="mono" font-size="14.00" fill="#c83500">version</text>
<text text-anchor="middle" x="543.684" y="-493.32" font-family="Times,serif" font-size="14.00">0..1</text>
</g>
<!-- ActionAffordance -->
<g id="node7" class="node"><title>ActionAffordance</title>
<polygon fill="#8ccbf2" stroke="none" points="683.5,-474.5 683.5,-495.5 914.5,-495.5 914.5,-474.5 683.5,-474.5"/>
<polygon fill="none" stroke="#8ccbf2" points="683.5,-474.5 683.5,-495.5 914.5,-495.5 914.5,-474.5 683.5,-474.5"/>
<text text-anchor="start" x="732.5" y="-482.3" font-family="mono" font-weight="bold" font-size="14.00" fill="#c83500">ActionAffordance</text>
<polygon fill="#ddeeff" stroke="none" points="683.5,-453.5 683.5,-474.5 914.5,-474.5 914.5,-453.5 683.5,-453.5"/>
<polygon fill="none" stroke="#8ccbf2" points="683.5,-453.5 683.5,-474.5 914.5,-474.5 914.5,-453.5 683.5,-453.5"/>
<text text-anchor="start" x="686.5" y="-461.3" font-family="mono" font-size="14.00" fill="#c83500">idempotent</text>
<text text-anchor="start" x="769.5" y="-461.3" font-family="Times,serif" font-size="14.00"> : </text>
<text text-anchor="start" x="781.5" y="-461.3" font-family="mono" font-size="14.00" fill="#c83500">boolean</text>
<text text-anchor="start" x="839.5" y="-461.3" font-family="Times,serif" font-size="14.00"> </text>
<text text-anchor="start" x="843.5" y="-461.3" font-family="Times,serif" font-style="italic" font-size="14.00">(mandatory)</text>
<polygon fill="#ddeeff" stroke="none" points="683.5,-432.5 683.5,-453.5 914.5,-453.5 914.5,-432.5 683.5,-432.5"/>
<polygon fill="none" stroke="#8ccbf2" points="683.5,-432.5 683.5,-453.5 914.5,-453.5 914.5,-432.5 683.5,-432.5"/>
<text text-anchor="start" x="686.5" y="-440.3" font-family="mono" font-size="14.00" fill="#c83500">safe</text>
<text text-anchor="start" x="720.5" y="-440.3" font-family="Times,serif" font-size="14.00"> : </text>
<text text-anchor="start" x="732.5" y="-440.3" font-family="mono" font-size="14.00" fill="#c83500">boolean</text>
<text text-anchor="start" x="790.5" y="-440.3" font-family="Times,serif" font-size="14.00"> </text>
<text text-anchor="start" x="794.5" y="-440.3" font-family="Times,serif" font-style="italic" font-size="14.00">(mandatory)</text>
</g>
<!-- Thing&#45;&gt;ActionAffordance -->
<g id="edge8" class="edge"><title>Thing&#45;&gt;ActionAffordance</title>
<path fill="none" stroke="black" d="M725.298,-550.832C738.375,-535.589 751.013,-520.856 762.003,-508.045"/>
<polygon fill="black" stroke="black" points="764.767,-510.199 768.621,-500.33 759.454,-505.641 764.767,-510.199"/>
<text text-anchor="start" x="752.5" y="-521.8" font-family="mono" font-size="14.00" fill="#c83500">actions</text>
<text text-anchor="middle" x="757.621" y="-504.13" font-family="Times,serif" font-size="14.00">0..1</text>
</g>
<!-- EventAffordance -->
<g id="node9" class="node"><title>EventAffordance</title>
<polygon fill="#8ccbf2" stroke="none" points="948.5,-453.5 948.5,-474.5 1078.5,-474.5 1078.5,-453.5 948.5,-453.5"/>
<polygon fill="none" stroke="#8ccbf2" points="948.5,-453.5 948.5,-474.5 1078.5,-474.5 1078.5,-453.5 948.5,-453.5"/>
<text text-anchor="start" x="951.5" y="-461.3" font-family="mono" font-weight="bold" font-size="14.00" fill="#c83500">EventAffordance</text>
</g>
<!-- Thing&#45;&gt;EventAffordance -->
<g id="edge4" class="edge"><title>Thing&#45;&gt;EventAffordance</title>
<path fill="none" stroke="black" d="M758.262,-599.009C833.087,-559.87 921.033,-513.867 971.715,-487.357"/>
<polygon fill="black" stroke="black" points="973.495,-490.376 980.733,-482.639 970.25,-484.173 973.495,-490.376"/>
<text text-anchor="start" x="909.5" y="-521.8" font-family="mono" font-size="14.00" fill="#c83500">events</text>
<text text-anchor="middle" x="969.733" y="-486.439" font-family="Times,serif" font-size="14.00">0..1</text>
</g>
<!-- SecurityScheme -->
<g id="node10" class="node"><title>SecurityScheme</title>
<polygon fill="#f2f2f2" stroke="none" points="1112.5,-453.5 1112.5,-474.5 1234.5,-474.5 1234.5,-453.5 1112.5,-453.5"/>
<polygon fill="none" stroke="#8c8c8c" points="1112.5,-453.5 1112.5,-474.5 1234.5,-474.5 1234.5,-453.5 1112.5,-453.5"/>
<text text-anchor="start" x="1115.5" y="-461.3" font-family="mono" font-weight="bold" font-size="14.00">SecurityScheme</text>
</g>
<!-- Thing&#45;&gt;SecurityScheme -->
<g id="edge2" class="edge"><title>Thing&#45;&gt;SecurityScheme</title>
<path fill="none" stroke="black" d="M758.23,-623.997C853.174,-591.232 982.934,-545.039 1095.5,-500 1105.81,-495.873 1116.78,-491.201 1127.14,-486.659"/>
<polygon fill="black" stroke="black" points="1128.71,-489.791 1136.44,-482.543 1125.88,-483.39 1128.71,-489.791"/>
<text text-anchor="start" x="1045.5" y="-521.8" font-family="mono" font-size="14.00" fill="#c83500">securityDefinitions</text>
<text text-anchor="middle" x="1125.44" y="-486.343" font-family="Times,serif" font-size="14.00">1..1</text>
</g>
<!-- Link -->
<g id="node11" class="node"><title>Link</title>
<polygon fill="#f2f2f2" stroke="none" points="1300.5,-453.5 1300.5,-474.5 1340.5,-474.5 1340.5,-453.5 1300.5,-453.5"/>
<polygon fill="none" stroke="#8c8c8c" points="1300.5,-453.5 1300.5,-474.5 1340.5,-474.5 1340.5,-453.5 1300.5,-453.5"/>
<text text-anchor="start" x="1303.5" y="-461.3" font-family="mono" font-weight="bold" font-size="14.00">Link</text>
</g>
<!-- Thing&#45;&gt;Link -->
<g id="edge7" class="edge"><title>Thing&#45;&gt;Link</title>
<path fill="none" stroke="black" d="M758.136,-649.954C878.632,-629.683 1058.57,-592.478 1206.5,-533 1235.7,-521.259 1266.26,-502.784 1288.37,-488.129"/>
<polygon fill="black" stroke="black" points="1290.37,-491.005 1296.71,-482.519 1286.46,-485.197 1290.37,-491.005"/>
<text text-anchor="start" x="1236.5" y="-521.8" font-family="mono" font-size="14.00" fill="#c83500">links</text>
<text text-anchor="middle" x="1285.71" y="-486.319" font-family="Times,serif" font-size="14.00">0..*</text>
</g>
<!-- InteractionAffordance -->
<g id="node8" class="node"><title>InteractionAffordance</title>
<polygon fill="#8ccbf2" stroke="none" points="314.5,-352.5 314.5,-373.5 494.5,-373.5 494.5,-352.5 314.5,-352.5"/>
<polygon fill="none" stroke="#8ccbf2" points="314.5,-352.5 314.5,-373.5 494.5,-373.5 494.5,-352.5 314.5,-352.5"/>
<text text-anchor="start" x="317.5" y="-360.3" font-family="mono" font-weight="bold" font-size="14.00" fill="#c83500">InteractionAffordance</text>
<polygon fill="#ddeeff" stroke="none" points="314.5,-331.5 314.5,-352.5 494.5,-352.5 494.5,-331.5 314.5,-331.5"/>
<polygon fill="none" stroke="#8ccbf2" points="314.5,-331.5 314.5,-352.5 494.5,-352.5 494.5,-331.5 314.5,-331.5"/>
<text text-anchor="start" x="317.5" y="-339.3" font-family="mono" font-size="14.00" fill="#c83500">title</text>
<text text-anchor="start" x="359.5" y="-339.3" font-family="Times,serif" font-size="14.00"> : </text>
<text text-anchor="start" x="371.5" y="-339.3" font-family="mono" font-size="14.00" fill="#c83500">string</text>
<polygon fill="#ddeeff" stroke="none" points="314.5,-310.5 314.5,-331.5 494.5,-331.5 494.5,-310.5 314.5,-310.5"/>
<polygon fill="none" stroke="#8ccbf2" points="314.5,-310.5 314.5,-331.5 494.5,-331.5 494.5,-310.5 314.5,-310.5"/>
<text text-anchor="start" x="317.5" y="-318.3" font-family="mono" font-size="14.00" fill="#c83500">description</text>
<text text-anchor="start" x="408.5" y="-318.3" font-family="Times,serif" font-size="14.00"> : </text>
<text text-anchor="start" x="420.5" y="-318.3" font-family="mono" font-size="14.00" fill="#c83500">string</text>
</g>
<!-- PropertyAffordance&#45;&gt;InteractionAffordance -->
<g id="edge21" class="edge"><title>PropertyAffordance&#45;&gt;InteractionAffordance</title>
<path fill="none" stroke="black" d="M343.88,-439.216C353.422,-424.149 365.956,-404.359 377.15,-386.685"/>
<polygon fill="white" stroke="black" points="380.124,-388.53 382.518,-378.209 374.21,-384.784 380.124,-388.53"/>
</g>
<!-- DataSchema -->
<g id="node12" class="node"><title>DataSchema</title>
<polygon fill="#f2f2f2" stroke="none" points="754.5,-167.5 754.5,-188.5 843.5,-188.5 843.5,-167.5 754.5,-167.5"/>
<polygon fill="none" stroke="#8c8c8c" points="754.5,-167.5 754.5,-188.5 843.5,-188.5 843.5,-167.5 754.5,-167.5"/>
<text text-anchor="start" x="757.5" y="-175.3" font-family="mono" font-weight="bold" font-size="14.00">DataSchema</text>
</g>
<!-- PropertyAffordance&#45;&gt;DataSchema -->
<g id="edge22" class="edge"><title>PropertyAffordance&#45;&gt;DataSchema</title>
<path fill="none" stroke="black" d="M386.628,-439.333C423.236,-423.389 471.05,-401.218 511.5,-378 609.799,-321.576 717.702,-241.609 768.673,-202.643"/>
<polygon fill="white" stroke="black" points="770.841,-205.392 776.645,-196.528 766.581,-199.837 770.841,-205.392"/>
</g>
<!-- ActionAffordance&#45;&gt;InteractionAffordance -->
<g id="edge19" class="edge"><title>ActionAffordance&#45;&gt;InteractionAffordance</title>
<path fill="none" stroke="black" d="M685.067,-428.952C630.815,-412.428 566.182,-392.743 512.633,-376.434"/>
<polygon fill="white" stroke="black" points="513.354,-372.995 502.768,-373.429 511.315,-379.691 513.354,-372.995"/>
</g>
<!-- ActionAffordance&#45;&gt;DataSchema -->
<g id="edge10" class="edge"><title>ActionAffordance&#45;&gt;DataSchema</title>
<path fill="none" stroke="black" d="M759.812,-428.919C746.6,-414.624 733.419,-396.959 726.5,-378 703.715,-315.57 749.308,-242.015 777.861,-204.399"/>
<polygon fill="black" stroke="black" points="780.628,-206.543 784.01,-196.502 775.104,-202.242 780.628,-206.543"/>
<text text-anchor="start" x="726.5" y="-338.8" font-family="mono" font-size="14.00" fill="#c83500">output</text>
<text text-anchor="middle" x="773.01" y="-200.302" font-family="Times,serif" font-size="14.00">0..1</text>
</g>
<!-- ActionAffordance&#45;&gt;DataSchema -->
<g id="edge11" class="edge"><title>ActionAffordance&#45;&gt;DataSchema</title>
<path fill="none" stroke="black" d="M798.5,-428.96C798.5,-371.824 798.5,-258.792 798.5,-206.815"/>
<polygon fill="black" stroke="black" points="802,-206.693 798.5,-196.693 795,-206.693 802,-206.693"/>
<text text-anchor="start" x="798.5" y="-338.8" font-family="mono" font-size="14.00" fill="#c83500">input</text>
<text text-anchor="middle" x="809.5" y="-200.493" font-family="Times,serif" font-size="14.00">0..1</text>
</g>
<!-- InteractionAffordance&#45;&gt;MultiLanguage -->
<g id="edge12" class="edge"><title>InteractionAffordance&#45;&gt;MultiLanguage</title>
<path fill="none" stroke="black" d="M394.482,-306.719C391.066,-296.071 386.968,-284.422 382.5,-274 372.258,-250.107 358.042,-224.205 347.22,-205.572"/>
<polygon fill="black" stroke="black" points="350.146,-203.643 342.061,-196.795 344.111,-207.19 350.146,-203.643"/>
<text text-anchor="start" x="388.5" y="-277.8" font-family="mono" font-size="14.00" fill="#c83500">descriptions</text>
<text text-anchor="middle" x="331.061" y="-200.595" font-family="Times,serif" font-size="14.00">0..1</text>
</g>
<!-- InteractionAffordance&#45;&gt;MultiLanguage -->
<g id="edge14" class="edge"><title>InteractionAffordance&#45;&gt;MultiLanguage</title>
<path fill="none" stroke="black" d="M341.898,-306.663C336.576,-301.412 331.927,-295.532 328.5,-289 315.092,-263.443 318.635,-229.706 323.744,-206.469"/>
<polygon fill="black" stroke="black" points="327.182,-207.143 326.146,-196.599 320.38,-205.487 327.182,-207.143"/>
<text text-anchor="start" x="328.5" y="-277.8" font-family="mono" font-size="14.00" fill="#c83500">titles</text>
<text text-anchor="middle" x="337.146" y="-200.399" font-family="Times,serif" font-size="14.00">0..1</text>
</g>
<!-- InteractionAffordance&#45;&gt;Form -->
<g id="edge13" class="edge"><title>InteractionAffordance&#45;&gt;Form</title>
<path fill="none" stroke="black" d="M313.806,-306.971C301.395,-301.393 288.984,-295.349 277.5,-289 262.74,-280.84 247.698,-271.541 233.082,-261.89"/>
<polygon fill="black" stroke="black" points="234.789,-258.821 224.53,-256.173 230.898,-264.64 234.789,-258.821"/>
<text text-anchor="start" x="277.5" y="-277.8" font-family="mono" font-size="14.00" fill="#c83500">forms</text>
<text text-anchor="middle" x="213.53" y="-259.973" font-family="Times,serif" font-size="14.00">1..*</text>
</g>
<!-- InteractionAffordance&#45;&gt;DataSchema -->
<g id="edge15" class="edge"><title>InteractionAffordance&#45;&gt;DataSchema</title>
<path fill="none" stroke="black" d="M465.792,-306.883C486.646,-295.725 510.298,-283.737 532.5,-274 600.772,-244.057 681.828,-216.332 736.37,-198.762"/>
<polygon fill="black" stroke="black" points="737.444,-202.094 745.899,-195.709 735.308,-195.427 737.444,-202.094"/>
<text text-anchor="start" x="532.5" y="-277.8" font-family="mono" font-size="14.00" fill="#c83500">uriVariables</text>
<text text-anchor="middle" x="734.899" y="-199.509" font-family="Times,serif" font-size="14.00">0..1</text>
</g>
<!-- EventAffordance&#45;&gt;InteractionAffordance -->
<g id="edge20" class="edge"><title>EventAffordance&#45;&gt;InteractionAffordance</title>
<path fill="none" stroke="black" d="M977.382,-446.336C963.053,-440.1 946.258,-433.489 930.5,-429 854.025,-407.213 643.092,-376.135 512.751,-358.066"/>
<polygon fill="white" stroke="black" points="513.117,-354.584 502.732,-356.681 512.158,-361.518 513.117,-354.584"/>
</g>
<!-- EventAffordance&#45;&gt;DataSchema -->
<g id="edge16" class="edge"><title>EventAffordance&#45;&gt;DataSchema</title>
<path fill="none" stroke="black" d="M1046.72,-446.421C1071.04,-431.882 1102.18,-408.503 1116.5,-378 1129.91,-349.436 1134.18,-333.137 1116.5,-307 1059.45,-222.655 936.486,-194.1 861.284,-184.437"/>
<polygon fill="black" stroke="black" points="861.349,-180.92 851.002,-183.195 860.51,-187.869 861.349,-180.92"/>
<text text-anchor="start" x="1128.5" y="-338.8" font-family="mono" font-size="14.00" fill="#c83500">data</text>
<text text-anchor="middle" x="862.002" y="-186.995" font-family="Times,serif" font-size="14.00">0..1</text>
</g>
<!-- EventAffordance&#45;&gt;DataSchema -->
<g id="edge17" class="edge"><title>EventAffordance&#45;&gt;DataSchema</title>
<path fill="none" stroke="black" d="M979.515,-446.424C952.499,-431.443 915.257,-407.471 890.5,-378 846,-325.026 818.25,-246.947 805.942,-206.304"/>
<polygon fill="black" stroke="black" points="809.262,-205.186 803.078,-196.583 802.547,-207.164 809.262,-205.186"/>
<text text-anchor="start" x="890.5" y="-338.8" font-family="mono" font-size="14.00" fill="#c83500">cancellation</text>
<text text-anchor="middle" x="792.078" y="-200.383" font-family="Times,serif" font-size="14.00">0..1</text>
</g>
<!-- EventAffordance&#45;&gt;DataSchema -->
<g id="edge18" class="edge"><title>EventAffordance&#45;&gt;DataSchema</title>
<path fill="none" stroke="black" d="M1012.72,-446.306C1010.83,-410.613 1005.03,-329.9 990.5,-307 958.285,-256.212 897.71,-221.109 853.184,-200.782"/>
<polygon fill="black" stroke="black" points="854.501,-197.537 843.942,-196.668 851.654,-203.932 854.501,-197.537"/>
<text text-anchor="start" x="1007.5" y="-338.8" font-family="mono" font-size="14.00" fill="#c83500">subscription</text>
<text text-anchor="middle" x="832.942" y="-200.468" font-family="Times,serif" font-size="14.00">0..1</text>
</g>
</g>
</svg>
