<?xml version="1.0" encoding="UTF-8" standalone="no"?>
<!DOCTYPE svg PUBLIC "-//W3C//DTD SVG 1.1//EN"
 "http://www.w3.org/Graphics/SVG/1.1/DTD/svg11.dtd">
<!-- Generated by graphviz version 2.43.20190912.0211 (20190912.0211)
 -->
<!-- Title: %3 Pages: 1 -->
<svg width="1422pt" height="578pt"
 viewBox="0.00 0.00 1421.57 578.00" xmlns="http://www.w3.org/2000/svg" xmlns:xlink="http://www.w3.org/1999/xlink">
<g id="graph0" class="graph" transform="scale(1 1) rotate(0) translate(4 574)">
<title>%3</title>
<polygon fill="white" stroke="transparent" points="-4,4 -4,-574 1417.57,-574 1417.57,4 -4,4"/>
<!-- MultiLanguage -->
<g id="node1" class="node">
<title>MultiLanguage</title>
<polygon fill="#8ccbf2" stroke="transparent" points="88.57,-7 88.57,-28 202.57,-28 202.57,-7 88.57,-7"/>
<polygon fill="none" stroke="#8ccbf2" points="88.57,-7 88.57,-28 202.57,-28 202.57,-7 88.57,-7"/>
<text text-anchor="start" x="91.57" y="-14.8" font-family="mono" font-weight="bold" font-size="14.00" fill="#c83500">MultiLanguage</text>
</g>
<!-- Thing -->
<g id="node2" class="node">
<title>Thing</title>
<polygon fill="#8ccbf2" stroke="transparent" points="524.57,-544.5 524.57,-565.5 782.57,-565.5 782.57,-544.5 524.57,-544.5"/>
<polygon fill="none" stroke="#8ccbf2" points="524.57,-544.5 524.57,-565.5 782.57,-565.5 782.57,-544.5 524.57,-544.5"/>
<text text-anchor="start" x="632.57" y="-552.3" font-family="mono" font-weight="bold" font-size="14.00" fill="#c83500">Thing</text>
<polygon fill="#ddeeff" stroke="transparent" points="524.57,-523.5 524.57,-544.5 782.57,-544.5 782.57,-523.5 524.57,-523.5"/>
<polygon fill="none" stroke="#8ccbf2" points="524.57,-523.5 524.57,-544.5 782.57,-544.5 782.57,-523.5 524.57,-523.5"/>
<text text-anchor="start" x="527.57" y="-531.3" font-family="mono" font-size="14.00" fill="#c83500">@context</text>
<text text-anchor="start" x="594.57" y="-531.3" font-family="Times,serif" font-size="14.00"> : </text>
<text text-anchor="start" x="606.57" y="-531.3" font-family="mono" font-style="italic" font-size="14.00" fill="#c83500">anyURI</text>
<text text-anchor="start" x="656.57" y="-531.3" font-family="Times,serif" font-style="italic" font-size="14.00"> or Array</text>
<text text-anchor="start" x="707.57" y="-531.3" font-family="Times,serif" font-size="14.00"> </text>
<text text-anchor="start" x="711.57" y="-531.3" font-family="Times,serif" font-style="italic" font-size="14.00">(mandatory)</text>
<polygon fill="#ddeeff" stroke="transparent" points="524.57,-502.5 524.57,-523.5 782.57,-523.5 782.57,-502.5 524.57,-502.5"/>
<polygon fill="none" stroke="#8ccbf2" points="524.57,-502.5 524.57,-523.5 782.57,-523.5 782.57,-502.5 524.57,-502.5"/>
<text text-anchor="start" x="527.57" y="-510.3" font-family="mono" font-size="14.00" fill="#c83500">@type</text>
<text text-anchor="start" x="569.57" y="-510.3" font-family="Times,serif" font-size="14.00"> : </text>
<text text-anchor="start" x="581.57" y="-510.3" font-family="Times,serif" font-style="italic" font-size="14.00">(Array of) </text>
<text text-anchor="start" x="640.57" y="-510.3" font-family="mono" font-size="14.00" fill="#c83500">string</text>
<polygon fill="#ddeeff" stroke="transparent" points="524.57,-481.5 524.57,-502.5 782.57,-502.5 782.57,-481.5 524.57,-481.5"/>
<polygon fill="none" stroke="#8ccbf2" points="524.57,-481.5 524.57,-502.5 782.57,-502.5 782.57,-481.5 524.57,-481.5"/>
<text text-anchor="start" x="527.57" y="-489.3" font-family="mono" font-size="14.00" fill="#c83500">id</text>
<text text-anchor="start" x="544.57" y="-489.3" font-family="Times,serif" font-size="14.00"> : </text>
<text text-anchor="start" x="556.57" y="-489.3" font-family="mono" font-size="14.00" fill="#c83500">anyURI</text>
<text text-anchor="start" x="606.57" y="-489.3" font-family="Times,serif" font-size="14.00"> </text>
<text text-anchor="start" x="610.57" y="-489.3" font-family="Times,serif" font-style="italic" font-size="14.00">(mandatory)</text>
<polygon fill="#ddeeff" stroke="transparent" points="524.57,-460.5 524.57,-481.5 782.57,-481.5 782.57,-460.5 524.57,-460.5"/>
<polygon fill="none" stroke="#8ccbf2" points="524.57,-460.5 524.57,-481.5 782.57,-481.5 782.57,-460.5 524.57,-460.5"/>
<text text-anchor="start" x="527.57" y="-468.3" font-family="mono" font-size="14.00" fill="#c83500">created</text>
<text text-anchor="start" x="585.57" y="-468.3" font-family="Times,serif" font-size="14.00"> : </text>
<text text-anchor="start" x="597.57" y="-468.3" font-family="mono" font-size="14.00" fill="#c83500">dateTime</text>
<polygon fill="#ddeeff" stroke="transparent" points="524.57,-439.5 524.57,-460.5 782.57,-460.5 782.57,-439.5 524.57,-439.5"/>
<polygon fill="none" stroke="#8ccbf2" points="524.57,-439.5 524.57,-460.5 782.57,-460.5 782.57,-439.5 524.57,-439.5"/>
<text text-anchor="start" x="527.57" y="-447.3" font-family="mono" font-size="14.00" fill="#c83500">security</text>
<text text-anchor="start" x="594.57" y="-447.3" font-family="Times,serif" font-size="14.00"> : Array of </text>
<text text-anchor="start" x="655.57" y="-447.3" font-family="mono" font-size="14.00" fill="#c83500">string</text>
<text text-anchor="start" x="705.57" y="-447.3" font-family="Times,serif" font-size="14.00"> </text>
<text text-anchor="start" x="709.57" y="-447.3" font-family="Times,serif" font-style="italic" font-size="14.00">(mandatory)</text>
<polygon fill="#ddeeff" stroke="transparent" points="524.57,-418.5 524.57,-439.5 782.57,-439.5 782.57,-418.5 524.57,-418.5"/>
<polygon fill="none" stroke="#8ccbf2" points="524.57,-418.5 524.57,-439.5 782.57,-439.5 782.57,-418.5 524.57,-418.5"/>
<text text-anchor="start" x="527.57" y="-426.3" font-family="mono" font-size="14.00" fill="#c83500">support</text>
<text text-anchor="start" x="585.57" y="-426.3" font-family="Times,serif" font-size="14.00"> : </text>
<text text-anchor="start" x="597.57" y="-426.3" font-family="mono" font-size="14.00" fill="#c83500">anyURI</text>
<polygon fill="#ddeeff" stroke="transparent" points="524.57,-397.5 524.57,-418.5 782.57,-418.5 782.57,-397.5 524.57,-397.5"/>
<polygon fill="none" stroke="#8ccbf2" points="524.57,-397.5 524.57,-418.5 782.57,-418.5 782.57,-397.5 524.57,-397.5"/>
<text text-anchor="start" x="527.57" y="-405.3" font-family="mono" font-size="14.00" fill="#c83500">title</text>
<text text-anchor="start" x="569.57" y="-405.3" font-family="Times,serif" font-size="14.00"> : </text>
<text text-anchor="start" x="581.57" y="-405.3" font-family="mono" font-size="14.00" fill="#c83500">string</text>
<text text-anchor="start" x="631.57" y="-405.3" font-family="Times,serif" font-size="14.00"> </text>
<text text-anchor="start" x="635.57" y="-405.3" font-family="Times,serif" font-style="italic" font-size="14.00">(mandatory)</text>
<polygon fill="#ddeeff" stroke="transparent" points="524.57,-376.5 524.57,-397.5 782.57,-397.5 782.57,-376.5 524.57,-376.5"/>
<polygon fill="none" stroke="#8ccbf2" points="524.57,-376.5 524.57,-397.5 782.57,-397.5 782.57,-376.5 524.57,-376.5"/>
<text text-anchor="start" x="527.57" y="-384.3" font-family="mono" font-size="14.00" fill="#c83500">description</text>
<text text-anchor="start" x="618.57" y="-384.3" font-family="Times,serif" font-size="14.00"> : </text>
<text text-anchor="start" x="630.57" y="-384.3" font-family="mono" font-size="14.00" fill="#c83500">string</text>
<polygon fill="#ddeeff" stroke="transparent" points="524.57,-355.5 524.57,-376.5 782.57,-376.5 782.57,-355.5 524.57,-355.5"/>
<polygon fill="none" stroke="#8ccbf2" points="524.57,-355.5 524.57,-376.5 782.57,-376.5 782.57,-355.5 524.57,-355.5"/>
<text text-anchor="start" x="527.57" y="-363.3" font-family="mono" font-size="14.00" fill="#c83500">base</text>
<text text-anchor="start" x="561.57" y="-363.3" font-family="Times,serif" font-size="14.00"> : </text>
<text text-anchor="start" x="573.57" y="-363.3" font-family="mono" font-size="14.00" fill="#c83500">anyURI</text>
<polygon fill="#ddeeff" stroke="transparent" points="524.57,-334.5 524.57,-355.5 782.57,-355.5 782.57,-334.5 524.57,-334.5"/>
<polygon fill="none" stroke="#8ccbf2" points="524.57,-334.5 524.57,-355.5 782.57,-355.5 782.57,-334.5 524.57,-334.5"/>
<text text-anchor="start" x="527.57" y="-342.3" font-family="mono" font-size="14.00" fill="#c83500">modified</text>
<text text-anchor="start" x="594.57" y="-342.3" font-family="Times,serif" font-size="14.00"> : </text>
<text text-anchor="start" x="606.57" y="-342.3" font-family="mono" font-size="14.00" fill="#c83500">dateTime</text>
</g>
<!-- Thing&#45;&gt;MultiLanguage -->
<g id="edge2" class="edge">
<title>Thing&#45;&gt;MultiLanguage</title>
<path fill="none" stroke="black" d="M516.47,-437.42C402.03,-422.24 238.23,-388.33 114.57,-313 48.36,-272.67 -20.91,-248.5 6.57,-176 27.98,-119.51 80.04,-70.29 114.02,-42.65"/>
<polygon fill="black" stroke="black" points="116.6,-45.07 122.23,-36.09 112.23,-39.59 116.6,-45.07"/>
<text text-anchor="start" x="6.57" y="-179.8" font-family="mono" font-size="14.00" fill="#c83500">descriptions</text>
<text text-anchor="middle" x="111.23" y="-39.89" font-family="Times,serif" font-size="14.00">0..1</text>
</g>
<!-- Thing&#45;&gt;MultiLanguage -->
<g id="edge6" class="edge">
<title>Thing&#45;&gt;MultiLanguage</title>
<path fill="none" stroke="black" d="M516.18,-405.07C457.8,-382.57 390.83,-351.72 336.57,-313 266.58,-263.06 214.56,-249.04 148.57,-69 145.97,-61.9 144.79,-53.85 144.36,-46.31"/>
<polygon fill="black" stroke="black" points="147.86,-46.1 144.2,-36.16 140.86,-46.22 147.86,-46.1"/>
<text text-anchor="start" x="204.57" y="-179.8" font-family="mono" font-size="14.00" fill="#c83500">titles</text>
<text text-anchor="middle" x="133.2" y="-39.96" font-family="Times,serif" font-size="14.00">0..1</text>
</g>
<!-- PropertyAffordance -->
<g id="node3" class="node">
<title>PropertyAffordance</title>
<polygon fill="#8ccbf2" stroke="transparent" points="345.57,-244.5 345.57,-265.5 504.57,-265.5 504.57,-244.5 345.57,-244.5"/>
<polygon fill="none" stroke="#8ccbf2" points="345.57,-244.5 345.57,-265.5 504.57,-265.5 504.57,-244.5 345.57,-244.5"/>
<text text-anchor="start" x="350.57" y="-252.3" font-family="mono" font-weight="bold" font-size="14.00" fill="#c83500">PropertyAffordance</text>
<polygon fill="#ddeeff" stroke="transparent" points="345.57,-223.5 345.57,-244.5 504.57,-244.5 504.57,-223.5 345.57,-223.5"/>
<polygon fill="none" stroke="#8ccbf2" points="345.57,-223.5 345.57,-244.5 504.57,-244.5 504.57,-223.5 345.57,-223.5"/>
<text text-anchor="start" x="348.57" y="-231.3" font-family="mono" font-size="14.00" fill="#c83500">observable</text>
<text text-anchor="start" x="431.57" y="-231.3" font-family="Times,serif" font-size="14.00"> : </text>
<text text-anchor="start" x="443.57" y="-231.3" font-family="mono" font-size="14.00" fill="#c83500">boolean</text>
</g>
<!-- Thing&#45;&gt;PropertyAffordance -->
<g id="edge7" class="edge">
<title>Thing&#45;&gt;PropertyAffordance</title>
<path fill="none" stroke="black" d="M520.36,-330.83C497.87,-310.8 476.37,-291.64 459.45,-276.57"/>
<polygon fill="black" stroke="black" points="461.33,-273.56 451.54,-269.52 456.67,-278.79 461.33,-273.56"/>
<text text-anchor="start" x="499.57" y="-301.8" font-family="mono" font-size="14.00" fill="#c83500">properties</text>
<text text-anchor="middle" x="440.54" y="-273.32" font-family="Times,serif" font-size="14.00">0..1</text>
</g>
<!-- VersionInfo -->
<g id="node4" class="node">
<title>VersionInfo</title>
<polygon fill="#8ccbf2" stroke="transparent" points="968.57,-244.5 968.57,-265.5 1175.57,-265.5 1175.57,-244.5 968.57,-244.5"/>
<polygon fill="none" stroke="#8ccbf2" points="968.57,-244.5 968.57,-265.5 1175.57,-265.5 1175.57,-244.5 968.57,-244.5"/>
<text text-anchor="start" x="1026.57" y="-252.3" font-family="mono" font-weight="bold" font-size="14.00" fill="#c83500">VersionInfo</text>
<polygon fill="#ddeeff" stroke="transparent" points="968.57,-223.5 968.57,-244.5 1175.57,-244.5 1175.57,-223.5 968.57,-223.5"/>
<polygon fill="none" stroke="#8ccbf2" points="968.57,-223.5 968.57,-244.5 1175.57,-244.5 1175.57,-223.5 968.57,-223.5"/>
<text text-anchor="start" x="971.57" y="-231.3" font-family="mono" font-size="14.00" fill="#c83500">instance</text>
<text text-anchor="start" x="1038.57" y="-231.3" font-family="Times,serif" font-size="14.00"> : </text>
<text text-anchor="start" x="1050.57" y="-231.3" font-family="mono" font-size="14.00" fill="#c83500">string</text>
<text text-anchor="start" x="1100.57" y="-231.3" font-family="Times,serif" font-size="14.00"> </text>
<text text-anchor="start" x="1104.57" y="-231.3" font-family="Times,serif" font-style="italic" font-size="14.00">(mandatory)</text>
</g>
<!-- Thing&#45;&gt;VersionInfo -->
<g id="edge1" class="edge">
<title>Thing&#45;&gt;VersionInfo</title>
<path fill="none" stroke="black" d="M790.73,-382.56C866.04,-345.81 955.51,-302.14 1012.89,-274.14"/>
<polygon fill="black" stroke="black" points="1014.72,-277.14 1022.17,-269.61 1011.65,-270.85 1014.72,-277.14"/>
<text text-anchor="start" x="959.57" y="-301.8" font-family="mono" font-size="14.00" fill="#c83500">version</text>
<text text-anchor="middle" x="1011.17" y="-273.41" font-family="Times,serif" font-size="14.00">0..1</text>
</g>
<!-- ActionAffordance -->
<g id="node5" class="node">
<title>ActionAffordance</title>
<polygon fill="#8ccbf2" stroke="transparent" points="538.57,-254.5 538.57,-275.5 769.57,-275.5 769.57,-254.5 538.57,-254.5"/>
<polygon fill="none" stroke="#8ccbf2" points="538.57,-254.5 538.57,-275.5 769.57,-275.5 769.57,-254.5 538.57,-254.5"/>
<text text-anchor="start" x="587.57" y="-262.3" font-family="mono" font-weight="bold" font-size="14.00" fill="#c83500">ActionAffordance</text>
<polygon fill="#ddeeff" stroke="transparent" points="538.57,-233.5 538.57,-254.5 769.57,-254.5 769.57,-233.5 538.57,-233.5"/>
<polygon fill="none" stroke="#8ccbf2" points="538.57,-233.5 538.57,-254.5 769.57,-254.5 769.57,-233.5 538.57,-233.5"/>
<text text-anchor="start" x="541.57" y="-241.3" font-family="mono" font-size="14.00" fill="#c83500">idempotent</text>
<text text-anchor="start" x="624.57" y="-241.3" font-family="Times,serif" font-size="14.00"> : </text>
<text text-anchor="start" x="636.57" y="-241.3" font-family="mono" font-size="14.00" fill="#c83500">boolean</text>
<text text-anchor="start" x="694.57" y="-241.3" font-family="Times,serif" font-size="14.00"> </text>
<text text-anchor="start" x="698.57" y="-241.3" font-family="Times,serif" font-style="italic" font-size="14.00">(mandatory)</text>
<polygon fill="#ddeeff" stroke="transparent" points="538.57,-212.5 538.57,-233.5 769.57,-233.5 769.57,-212.5 538.57,-212.5"/>
<polygon fill="none" stroke="#8ccbf2" points="538.57,-212.5 538.57,-233.5 769.57,-233.5 769.57,-212.5 538.57,-212.5"/>
<text text-anchor="start" x="541.57" y="-220.3" font-family="mono" font-size="14.00" fill="#c83500">safe</text>
<text text-anchor="start" x="575.57" y="-220.3" font-family="Times,serif" font-size="14.00"> : </text>
<text text-anchor="start" x="587.57" y="-220.3" font-family="mono" font-size="14.00" fill="#c83500">boolean</text>
<text text-anchor="start" x="645.57" y="-220.3" font-family="Times,serif" font-size="14.00"> </text>
<text text-anchor="start" x="649.57" y="-220.3" font-family="Times,serif" font-style="italic" font-size="14.00">(mandatory)</text>
</g>
<!-- Thing&#45;&gt;ActionAffordance -->
<g id="edge8" class="edge">
<title>Thing&#45;&gt;ActionAffordance</title>
<path fill="none" stroke="black" d="M653.57,-330.83C653.57,-316.6 653.57,-302.8 653.57,-290.61"/>
<polygon fill="black" stroke="black" points="657.07,-290.33 653.57,-280.33 650.07,-290.33 657.07,-290.33"/>
<text text-anchor="start" x="653.57" y="-301.8" font-family="mono" font-size="14.00" fill="#c83500">actions</text>
<text text-anchor="middle" x="642.57" y="-284.13" font-family="Times,serif" font-size="14.00">0..1</text>
</g>
<!-- EventAffordance -->
<g id="node7" class="node">
<title>EventAffordance</title>
<polygon fill="#8ccbf2" stroke="transparent" points="803.57,-233.5 803.57,-254.5 933.57,-254.5 933.57,-233.5 803.57,-233.5"/>
<polygon fill="none" stroke="#8ccbf2" points="803.57,-233.5 803.57,-254.5 933.57,-254.5 933.57,-233.5 803.57,-233.5"/>
<text text-anchor="start" x="806.57" y="-241.3" font-family="mono" font-weight="bold" font-size="14.00" fill="#c83500">EventAffordance</text>
</g>
<!-- Thing&#45;&gt;EventAffordance -->
<g id="edge5" class="edge">
<title>Thing&#45;&gt;EventAffordance</title>
<path fill="none" stroke="black" d="M778.64,-330.83C802.93,-307.78 825.99,-285.9 842.68,-270.07"/>
<polygon fill="black" stroke="black" points="845.49,-272.22 850.34,-262.8 840.68,-267.14 845.49,-272.22"/>
<text text-anchor="start" x="811.57" y="-301.8" font-family="mono" font-size="14.00" fill="#c83500">events</text>
<text text-anchor="middle" x="839.34" y="-266.6" font-family="Times,serif" font-size="14.00">0..1</text>
</g>
<!-- Link -->
<g id="node8" class="node">
<title>Link</title>
<polygon fill="#f2f2f2" stroke="transparent" points="1209.57,-233.5 1209.57,-254.5 1249.57,-254.5 1249.57,-233.5 1209.57,-233.5"/>
<polygon fill="none" stroke="#8c8c8c" points="1209.57,-233.5 1209.57,-254.5 1249.57,-254.5 1249.57,-233.5 1209.57,-233.5"/>
<text text-anchor="start" x="1212.57" y="-241.3" font-family="mono" font-weight="bold" font-size="14.00">Link</text>
</g>
<!-- Thing&#45;&gt;Link -->
<g id="edge3" class="edge">
<title>Thing&#45;&gt;Link</title>
<path fill="none" stroke="black" d="M790.65,-423.5C903.54,-398.15 1065.03,-352.65 1191.57,-280 1196.59,-277.12 1201.52,-273.47 1206.07,-269.64"/>
<polygon fill="black" stroke="black" points="1208.71,-271.96 1213.79,-262.66 1204.02,-266.77 1208.71,-271.96"/>
<text text-anchor="start" x="1151.57" y="-301.8" font-family="mono" font-size="14.00" fill="#c83500">links</text>
<text text-anchor="middle" x="1202.79" y="-266.46" font-family="Times,serif" font-size="14.00">0..*</text>
</g>
<!-- SecurityScheme -->
<g id="node9" class="node">
<title>SecurityScheme</title>
<polygon fill="#f2f2f2" stroke="transparent" points="1283.57,-233.5 1283.57,-254.5 1405.57,-254.5 1405.57,-233.5 1283.57,-233.5"/>
<polygon fill="none" stroke="#8c8c8c" points="1283.57,-233.5 1283.57,-254.5 1405.57,-254.5 1405.57,-233.5 1283.57,-233.5"/>
<text text-anchor="start" x="1286.57" y="-241.3" font-family="mono" font-weight="bold" font-size="14.00">SecurityScheme</text>
</g>
<!-- Thing&#45;&gt;SecurityScheme -->
<g id="edge4" class="edge">
<title>Thing&#45;&gt;SecurityScheme</title>
<path fill="none" stroke="black" d="M790.6,-422.46C901.86,-398.77 1061.97,-360.69 1197.57,-313 1234.15,-300.14 1274.03,-281.52 1303.01,-267.09"/>
<polygon fill="black" stroke="black" points="1304.65,-270.18 1312.02,-262.57 1301.51,-263.93 1304.65,-270.18"/>
<text text-anchor="start" x="1235.57" y="-301.8" font-family="mono" font-size="14.00" fill="#c83500">securityDefinitions</text>
<text text-anchor="middle" x="1301.02" y="-266.37" font-family="Times,serif" font-size="14.00">1..1</text>
</g>
<!-- Form -->
<g id="node10" class="node">
<title>Form</title>
<polygon fill="#f2f2f2" stroke="transparent" points="365.57,-7 365.57,-28 405.57,-28 405.57,-7 365.57,-7"/>
<polygon fill="none" stroke="#8c8c8c" points="365.57,-7 365.57,-28 405.57,-28 405.57,-7 365.57,-7"/>
<text text-anchor="start" x="368.57" y="-14.8" font-family="mono" font-weight="bold" font-size="14.00">Form</text>
</g>
<!-- Thing&#45;&gt;Form -->
<g id="edge9" class="edge">
<title>Thing&#45;&gt;Form</title>
<path fill="none" stroke="black" d="M516.51,-415.01C447.02,-389.83 368.79,-347.89 327.57,-280 281.08,-203.43 337.65,-93.98 368.31,-44.74"/>
<polygon fill="black" stroke="black" points="371.29,-46.58 373.7,-36.26 365.38,-42.82 371.29,-46.58"/>
<text text-anchor="start" x="313.57" y="-179.8" font-family="mono" font-size="14.00" fill="#c83500">forms</text>
<text text-anchor="middle" x="362.7" y="-40.06" font-family="Times,serif" font-size="14.00">0..*</text>
</g>
<!-- InteractionAffordance -->
<g id="node6" class="node">
<title>InteractionAffordance</title>
<polygon fill="#8ccbf2" stroke="transparent" points="410.57,-132.5 410.57,-153.5 590.57,-153.5 590.57,-132.5 410.57,-132.5"/>
<polygon fill="none" stroke="#8ccbf2" points="410.57,-132.5 410.57,-153.5 590.57,-153.5 590.57,-132.5 410.57,-132.5"/>
<text text-anchor="start" x="413.57" y="-140.3" font-family="mono" font-weight="bold" font-size="14.00" fill="#c83500">InteractionAffordance</text>
<polygon fill="#ddeeff" stroke="transparent" points="410.57,-111.5 410.57,-132.5 590.57,-132.5 590.57,-111.5 410.57,-111.5"/>
<polygon fill="none" stroke="#8ccbf2" points="410.57,-111.5 410.57,-132.5 590.57,-132.5 590.57,-111.5 410.57,-111.5"/>
<text text-anchor="start" x="413.57" y="-119.3" font-family="mono" font-size="14.00" fill="#c83500">description</text>
<text text-anchor="start" x="504.57" y="-119.3" font-family="Times,serif" font-size="14.00"> : </text>
<text text-anchor="start" x="516.57" y="-119.3" font-family="mono" font-size="14.00" fill="#c83500">string</text>
<polygon fill="#ddeeff" stroke="transparent" points="410.57,-90.5 410.57,-111.5 590.57,-111.5 590.57,-90.5 410.57,-90.5"/>
<polygon fill="none" stroke="#8ccbf2" points="410.57,-90.5 410.57,-111.5 590.57,-111.5 590.57,-90.5 410.57,-90.5"/>
<text text-anchor="start" x="413.57" y="-98.3" font-family="mono" font-size="14.00" fill="#c83500">title</text>
<text text-anchor="start" x="455.57" y="-98.3" font-family="Times,serif" font-size="14.00"> : </text>
<text text-anchor="start" x="467.57" y="-98.3" font-family="mono" font-size="14.00" fill="#c83500">string</text>
</g>
<!-- PropertyAffordance&#45;&gt;InteractionAffordance -->
<g id="edge20" class="edge">
<title>PropertyAffordance&#45;&gt;InteractionAffordance</title>
<path fill="none" stroke="black" d="M439.95,-219.22C449.49,-204.15 462.03,-184.36 473.22,-166.68"/>
<polygon fill="white" stroke="black" points="476.2,-168.53 478.59,-158.21 470.28,-164.78 476.2,-168.53"/>
</g>
<!-- DataSchema -->
<g id="node11" class="node">
<title>DataSchema</title>
<polygon fill="#f2f2f2" stroke="transparent" points="668.57,-7 668.57,-28 757.57,-28 757.57,-7 668.57,-7"/>
<polygon fill="none" stroke="#8c8c8c" points="668.57,-7 668.57,-28 757.57,-28 757.57,-7 668.57,-7"/>
<text text-anchor="start" x="671.57" y="-14.8" font-family="mono" font-weight="bold" font-size="14.00">DataSchema</text>
</g>
<!-- PropertyAffordance&#45;&gt;DataSchema -->
<g id="edge19" class="edge">
<title>PropertyAffordance&#45;&gt;DataSchema</title>
<path fill="none" stroke="black" d="M413.29,-219.43C406.06,-202.63 397.34,-179.46 393.57,-158 385.27,-110.74 380.12,-76.37 422.57,-54 460.81,-33.85 576.73,-25.01 649.91,-21.36"/>
<polygon fill="white" stroke="black" points="650.12,-24.86 659.94,-20.88 649.78,-17.86 650.12,-24.86"/>
</g>
<!-- ActionAffordance&#45;&gt;InteractionAffordance -->
<g id="edge21" class="edge">
<title>ActionAffordance&#45;&gt;InteractionAffordance</title>
<path fill="none" stroke="black" d="M604.49,-209C596.42,-203.1 588.2,-196.95 580.57,-191 569.95,-182.72 558.77,-173.58 548.25,-164.76"/>
<polygon fill="white" stroke="black" points="550.26,-161.88 540.36,-158.11 545.75,-167.23 550.26,-161.88"/>
</g>
<!-- ActionAffordance&#45;&gt;DataSchema -->
<g id="edge10" class="edge">
<title>ActionAffordance&#45;&gt;DataSchema</title>
<path fill="none" stroke="black" d="M665.24,-208.74C670.25,-193.29 675.99,-174.82 680.57,-158 691.08,-119.44 701.06,-74.26 707,-46.13"/>
<polygon fill="black" stroke="black" points="710.44,-46.73 709.07,-36.23 703.59,-45.3 710.44,-46.73"/>
<text text-anchor="start" x="698.57" y="-118.8" font-family="mono" font-size="14.00" fill="#c83500">output</text>
<text text-anchor="middle" x="698.07" y="-40.03" font-family="Times,serif" font-size="14.00">0..1</text>
</g>
<!-- ActionAffordance&#45;&gt;DataSchema -->
<g id="edge11" class="edge">
<title>ActionAffordance&#45;&gt;DataSchema</title>
<path fill="none" stroke="black" d="M639.26,-208.94C627.96,-176.11 616.78,-126.11 634.57,-87 642.86,-68.79 658.7,-53.55 673.95,-42.15"/>
<polygon fill="black" stroke="black" points="676.18,-44.86 682.31,-36.21 672.13,-39.15 676.18,-44.86"/>
<text text-anchor="start" x="634.57" y="-118.8" font-family="mono" font-size="14.00" fill="#c83500">input</text>
<text text-anchor="middle" x="671.31" y="-40.01" font-family="Times,serif" font-size="14.00">0..1</text>
</g>
<!-- InteractionAffordance&#45;&gt;MultiLanguage -->
<g id="edge12" class="edge">
<title>InteractionAffordance&#45;&gt;MultiLanguage</title>
<path fill="none" stroke="black" d="M402.38,-117.36C315.79,-111.77 198.04,-98.79 162.57,-69 155.78,-63.3 151.7,-54.77 149.24,-46.37"/>
<polygon fill="black" stroke="black" points="152.6,-45.35 146.98,-36.37 145.77,-46.9 152.6,-45.35"/>
<text text-anchor="start" x="162.57" y="-57.8" font-family="mono" font-size="14.00" fill="#c83500">titles</text>
<text text-anchor="middle" x="157.98" y="-40.17" font-family="Times,serif" font-size="14.00">0..1</text>
</g>
<!-- InteractionAffordance&#45;&gt;MultiLanguage -->
<g id="edge15" class="edge">
<title>InteractionAffordance&#45;&gt;MultiLanguage</title>
<path fill="none" stroke="black" d="M402.16,-93.08C342.47,-75.85 267.78,-54.28 214.4,-38.87"/>
<polygon fill="black" stroke="black" points="215.27,-35.48 204.69,-36.07 213.33,-42.21 215.27,-35.48"/>
<text text-anchor="start" x="312.57" y="-57.8" font-family="mono" font-size="14.00" fill="#c83500">descriptions</text>
<text text-anchor="middle" x="193.69" y="-39.87" font-family="Times,serif" font-size="14.00">0..1</text>
</g>
<!-- InteractionAffordance&#45;&gt;Form -->
<g id="edge13" class="edge">
<title>InteractionAffordance&#45;&gt;Form</title>
<path fill="none" stroke="black" d="M461.64,-86.8C445.47,-72.39 427.12,-56.03 412.49,-42.99"/>
<polygon fill="black" stroke="black" points="414.57,-40.16 404.78,-36.12 409.92,-45.39 414.57,-40.16"/>
<text text-anchor="start" x="440.57" y="-57.8" font-family="mono" font-size="14.00" fill="#c83500">forms</text>
<text text-anchor="middle" x="393.78" y="-39.92" font-family="Times,serif" font-size="14.00">1..*</text>
</g>
<!-- InteractionAffordance&#45;&gt;DataSchema -->
<g id="edge14" class="edge">
<title>InteractionAffordance&#45;&gt;DataSchema</title>
<path fill="none" stroke="black" d="M503.43,-87C506.14,-74.98 511.2,-62.41 520.57,-54 539.34,-37.15 601.24,-28.06 649.74,-23.4"/>
<polygon fill="black" stroke="black" points="650.23,-26.87 659.87,-22.48 649.59,-19.9 650.23,-26.87"/>
<text text-anchor="start" x="520.57" y="-57.8" font-family="mono" font-size="14.00" fill="#c83500">uriVariables</text>
<text text-anchor="middle" x="648.87" y="-26.28" font-family="Times,serif" font-size="14.00">0..1</text>
</g>
<!-- EventAffordance&#45;&gt;InteractionAffordance -->
<g id="edge22" class="edge">
<title>EventAffordance&#45;&gt;InteractionAffordance</title>
<path fill="none" stroke="black" d="M830.06,-226.48C816.16,-220.61 800.28,-214.21 785.57,-209 710.01,-182.24 689.32,-181.13 612.57,-158 611.14,-157.57 609.7,-157.13 608.25,-156.7"/>
<polygon fill="white" stroke="black" points="609.17,-153.32 598.59,-153.77 607.14,-160.02 609.17,-153.32"/>
</g>
<!-- EventAffordance&#45;&gt;DataSchema -->
<g id="edge16" class="edge">
<title>EventAffordance&#45;&gt;DataSchema</title>
<path fill="none" stroke="black" d="M867.45,-226.34C865,-196.75 857.6,-134.71 836.57,-87 829.26,-70.41 827.13,-64.82 812.57,-54 801.35,-45.65 787.97,-39.18 774.7,-34.2"/>
<polygon fill="black" stroke="black" points="775.69,-30.84 765.1,-30.83 773.38,-37.44 775.69,-30.84"/>
<text text-anchor="start" x="858.57" y="-118.8" font-family="mono" font-size="14.00" fill="#c83500">cancellation</text>
<text text-anchor="middle" x="776.1" y="-34.63" font-family="Times,serif" font-size="14.00">0..1</text>
</g>
<!-- EventAffordance&#45;&gt;DataSchema -->
<g id="edge17" class="edge">
<title>EventAffordance&#45;&gt;DataSchema</title>
<path fill="none" stroke="black" d="M898.05,-226.33C920.41,-211.45 949.46,-187.66 962.57,-158 975.33,-129.14 981.73,-112.07 962.57,-87 939.9,-57.34 841.54,-37.56 775.16,-27.31"/>
<polygon fill="black" stroke="black" points="775.62,-23.84 765.21,-25.81 774.57,-30.76 775.62,-23.84"/>
<text text-anchor="start" x="975.57" y="-118.8" font-family="mono" font-size="14.00" fill="#c83500">subscription</text>
<text text-anchor="middle" x="776.21" y="-14.61" font-family="Times,serif" font-size="14.00">0..1</text>
</g>
<!-- EventAffordance&#45;&gt;DataSchema -->
<g id="edge18" class="edge">
<title>EventAffordance&#45;&gt;DataSchema</title>
<path fill="none" stroke="black" d="M853.39,-226.35C838.72,-209.46 816.18,-182.67 798.57,-158 784.03,-137.63 748.69,-79.33 728.12,-45.04"/>
<polygon fill="black" stroke="black" points="730.88,-42.84 722.74,-36.06 724.88,-46.44 730.88,-42.84"/>
<text text-anchor="start" x="798.57" y="-118.8" font-family="mono" font-size="14.00" fill="#c83500">data</text>
<text text-anchor="middle" x="733.74" y="-39.86" font-family="Times,serif" font-size="14.00">0..1</text>
</g>
</g>
</svg>
