<?xml version="1.0" encoding="UTF-8" standalone="no"?>
<!DOCTYPE svg PUBLIC "-//W3C//DTD SVG 1.1//EN"
 "http://www.w3.org/Graphics/SVG/1.1/DTD/svg11.dtd">
<!-- Generated by graphviz version 2.38.0 (20140413.2041)
 -->
<!-- Title: %3 Pages: 1 -->
<svg width="1414pt" height="599pt"
 viewBox="0.00 0.00 1413.85 599.00" xmlns="http://www.w3.org/2000/svg" xmlns:xlink="http://www.w3.org/1999/xlink">
<g id="graph0" class="graph" transform="scale(1 1) rotate(0) translate(4 595)">
<title>%3</title>
<polygon fill="white" stroke="none" points="-4,4 -4,-595 1409.85,-595 1409.85,4 -4,4"/>
<!-- ActionAffordance -->
<g id="node1" class="node"><title>ActionAffordance</title>
<polygon fill="#8ccbf2" stroke="none" points="323.346,-254.5 323.346,-275.5 482.346,-275.5 482.346,-254.5 323.346,-254.5"/>
<polygon fill="none" stroke="#8ccbf2" points="323.346,-254.5 323.346,-275.5 482.346,-275.5 482.346,-254.5 323.346,-254.5"/>
<text text-anchor="start" x="336.346" y="-262.3" font-family="mono" font-weight="bold" font-size="14.00" fill="#c83500">ActionAffordance</text>
<polygon fill="#ddeeff" stroke="none" points="323.346,-233.5 323.346,-254.5 482.346,-254.5 482.346,-233.5 323.346,-233.5"/>
<polygon fill="none" stroke="#8ccbf2" points="323.346,-233.5 323.346,-254.5 482.346,-254.5 482.346,-233.5 323.346,-233.5"/>
<text text-anchor="start" x="326.346" y="-241.3" font-family="mono" font-size="14.00" fill="#c83500">safe</text>
<text text-anchor="start" x="360.346" y="-241.3" font-family="Times,serif" font-size="14.00"> : </text>
<text text-anchor="start" x="372.346" y="-241.3" font-family="mono" font-size="14.00" fill="#c83500">boolean</text>
<polygon fill="#ddeeff" stroke="none" points="323.346,-212.5 323.346,-233.5 482.346,-233.5 482.346,-212.5 323.346,-212.5"/>
<polygon fill="none" stroke="#8ccbf2" points="323.346,-212.5 323.346,-233.5 482.346,-233.5 482.346,-212.5 323.346,-212.5"/>
<text text-anchor="start" x="326.346" y="-220.3" font-family="mono" font-size="14.00" fill="#c83500">idempotent</text>
<text text-anchor="start" x="409.346" y="-220.3" font-family="Times,serif" font-size="14.00"> : </text>
<text text-anchor="start" x="421.346" y="-220.3" font-family="mono" font-size="14.00" fill="#c83500">boolean</text>
</g>
<!-- InteractionAffordance -->
<g id="node3" class="node"><title>InteractionAffordance</title>
<polygon fill="#8ccbf2" stroke="none" points="493.346,-132.5 493.346,-153.5 902.346,-153.5 902.346,-132.5 493.346,-132.5"/>
<polygon fill="none" stroke="#8ccbf2" points="493.346,-132.5 493.346,-153.5 902.346,-153.5 902.346,-132.5 493.346,-132.5"/>
<text text-anchor="start" x="610.846" y="-140.3" font-family="mono" font-weight="bold" font-size="14.00" fill="#c83500">InteractionAffordance</text>
<polygon fill="#ddeeff" stroke="none" points="493.346,-111.5 493.346,-132.5 902.346,-132.5 902.346,-111.5 493.346,-111.5"/>
<polygon fill="none" stroke="#8ccbf2" points="493.346,-111.5 493.346,-132.5 902.346,-132.5 902.346,-111.5 493.346,-111.5"/>
<text text-anchor="start" x="496.346" y="-119.3" font-family="mono" font-size="14.00" fill="#c83500">title</text>
<text text-anchor="start" x="538.346" y="-119.3" font-family="Times,serif" font-size="14.00"> : Map of </text>
<text text-anchor="start" x="594.346" y="-119.3" font-family="mono" font-size="14.00" fill="#c83500">string</text>
<text text-anchor="start" x="644.346" y="-119.3" font-family="mono" font-size="14.00" fill="#c83500">titles</text>
<text text-anchor="start" x="694.346" y="-119.3" font-family="Times,serif" font-size="14.00"> : Map of </text>
<text text-anchor="start" x="750.346" y="-119.3" font-family="mono" font-size="14.00" fill="#c83500">string</text>
<polygon fill="#ddeeff" stroke="none" points="493.346,-90.5 493.346,-111.5 902.346,-111.5 902.346,-90.5 493.346,-90.5"/>
<polygon fill="none" stroke="#8ccbf2" points="493.346,-90.5 493.346,-111.5 902.346,-111.5 902.346,-90.5 493.346,-90.5"/>
<text text-anchor="start" x="496.346" y="-98.3" font-family="mono" font-size="14.00" fill="#c83500">description</text>
<text text-anchor="start" x="587.346" y="-98.3" font-family="Times,serif" font-size="14.00"> : Map of </text>
<text text-anchor="start" x="643.346" y="-98.3" font-family="mono" font-size="14.00" fill="#c83500">string</text>
<text text-anchor="start" x="693.346" y="-98.3" font-family="mono" font-size="14.00" fill="#c83500">descriptions</text>
<text text-anchor="start" x="793.346" y="-98.3" font-family="Times,serif" font-size="14.00"> : Map of </text>
<text text-anchor="start" x="849.346" y="-98.3" font-family="mono" font-size="14.00" fill="#c83500">string</text>
</g>
<!-- ActionAffordance&#45;&gt;InteractionAffordance -->
<g id="edge17" class="edge"><title>ActionAffordance&#45;&gt;InteractionAffordance</title>
<path fill="none" stroke="black" d="M487.276,-208.952C523.523,-194.207 565.959,-176.945 603.165,-161.811"/>
<polygon fill="white" stroke="black" points="604.56,-165.022 612.504,-158.012 601.922,-158.538 604.56,-165.022"/>
</g>
<!-- DataSchema -->
<g id="node9" class="node"><title>DataSchema</title>
<polygon fill="#f2f2f2" stroke="none" points="294.346,-7 294.346,-28 383.346,-28 383.346,-7 294.346,-7"/>
<polygon fill="none" stroke="#8c8c8c" points="294.346,-7 294.346,-28 383.346,-28 383.346,-7 294.346,-7"/>
<text text-anchor="start" x="297.346" y="-14.8" font-family="mono" font-weight="bold" font-size="14.00">DataSchema</text>
</g>
<!-- ActionAffordance&#45;&gt;DataSchema -->
<g id="edge5" class="edge"><title>ActionAffordance&#45;&gt;DataSchema</title>
<path fill="none" stroke="black" d="M377.56,-208.931C368.074,-193.968 358.148,-175.822 352.346,-158 340.161,-120.577 337.798,-74.748 337.701,-46.2057"/>
<polygon fill="black" stroke="black" points="341.201,-46.1867 337.759,-36.1666 334.201,-46.1461 341.201,-46.1867"/>
<text text-anchor="start" x="352.346" y="-118.8" font-family="mono" font-size="14.00" fill="#c83500">input</text>
<text text-anchor="middle" x="326.759" y="-39.9666" font-family="Times,serif" font-size="14.00">0..1</text>
</g>
<!-- ActionAffordance&#45;&gt;DataSchema -->
<g id="edge6" class="edge"><title>ActionAffordance&#45;&gt;DataSchema</title>
<path fill="none" stroke="black" d="M406.637,-208.942C409.304,-176.345 409.742,-126.696 394.346,-87 388.04,-70.7419 376.242,-55.4764 365.095,-43.5448"/>
<polygon fill="black" stroke="black" points="367.42,-40.916 357.928,-36.2085 362.412,-45.8075 367.42,-40.916"/>
<text text-anchor="start" x="408.346" y="-118.8" font-family="mono" font-size="14.00" fill="#c83500">output</text>
<text text-anchor="middle" x="368.928" y="-40.0085" font-family="Times,serif" font-size="14.00">0..1</text>
</g>
<!-- EventAffordance -->
<g id="node2" class="node"><title>EventAffordance</title>
<polygon fill="#8ccbf2" stroke="none" points="137.346,-233.5 137.346,-254.5 267.346,-254.5 267.346,-233.5 137.346,-233.5"/>
<polygon fill="none" stroke="#8ccbf2" points="137.346,-233.5 137.346,-254.5 267.346,-254.5 267.346,-233.5 137.346,-233.5"/>
<text text-anchor="start" x="140.346" y="-241.3" font-family="mono" font-weight="bold" font-size="14.00" fill="#c83500">EventAffordance</text>
</g>
<!-- EventAffordance&#45;&gt;InteractionAffordance -->
<g id="edge18" class="edge"><title>EventAffordance&#45;&gt;InteractionAffordance</title>
<path fill="none" stroke="black" d="M249.705,-226.44C267.078,-220.499 286.983,-214.062 305.346,-209 371.294,-190.821 444.333,-174.007 509.318,-160.186"/>
<polygon fill="white" stroke="black" points="510.202,-163.576 519.26,-158.081 508.752,-156.728 510.202,-163.576"/>
</g>
<!-- EventAffordance&#45;&gt;DataSchema -->
<g id="edge7" class="edge"><title>EventAffordance&#45;&gt;DataSchema</title>
<path fill="none" stroke="black" d="M202.026,-226.361C202.273,-195.713 206.588,-130.649 236.346,-87 249.653,-67.4805 270.596,-52.1039 290.053,-40.9471"/>
<polygon fill="black" stroke="black" points="291.771,-43.9968 298.854,-36.1183 288.404,-37.8597 291.771,-43.9968"/>
<text text-anchor="start" x="236.346" y="-118.8" font-family="mono" font-size="14.00" fill="#c83500">subscription</text>
<text text-anchor="middle" x="287.854" y="-39.9183" font-family="Times,serif" font-size="14.00">0..1</text>
</g>
<!-- EventAffordance&#45;&gt;DataSchema -->
<g id="edge8" class="edge"><title>EventAffordance&#45;&gt;DataSchema</title>
<path fill="none" stroke="black" d="M129.139,-234.06C84.4822,-223.816 31.9588,-202.468 10.3456,-158 -3.44853,-129.619 -3.44853,-115.381 10.3456,-87 20.7229,-65.649 30.424,-63.1103 52.3456,-54 91.4201,-37.7611 203.755,-27.6998 275.456,-22.7431"/>
<polygon fill="black" stroke="black" points="275.985,-26.2154 285.726,-22.0487 275.513,-19.2313 275.985,-26.2154"/>
<text text-anchor="start" x="10.3456" y="-118.8" font-family="mono" font-size="14.00" fill="#c83500">data</text>
<text text-anchor="middle" x="274.726" y="-10.8487" font-family="Times,serif" font-size="14.00">0..1</text>
</g>
<!-- EventAffordance&#45;&gt;DataSchema -->
<g id="edge9" class="edge"><title>EventAffordance&#45;&gt;DataSchema</title>
<path fill="none" stroke="black" d="M171.48,-226.253C148.487,-211.479 118.834,-187.87 105.346,-158 92.3586,-129.241 86.4143,-112.246 105.346,-87 125.851,-59.6554 213.927,-39.6611 275.705,-28.6818"/>
<polygon fill="black" stroke="black" points="276.51,-32.0944 285.762,-26.9322 275.31,-25.198 276.51,-32.0944"/>
<text text-anchor="start" x="105.346" y="-118.8" font-family="mono" font-size="14.00" fill="#c83500">cancellation</text>
<text text-anchor="middle" x="274.762" y="-30.7322" font-family="Times,serif" font-size="14.00">0..1</text>
</g>
<!-- Form -->
<g id="node7" class="node"><title>Form</title>
<polygon fill="#f2f2f2" stroke="none" points="1035.35,-7 1035.35,-28 1075.35,-28 1075.35,-7 1035.35,-7"/>
<polygon fill="none" stroke="#8c8c8c" points="1035.35,-7 1035.35,-28 1075.35,-28 1075.35,-7 1035.35,-7"/>
<text text-anchor="start" x="1038.35" y="-14.8" font-family="mono" font-weight="bold" font-size="14.00">Form</text>
</g>
<!-- InteractionAffordance&#45;&gt;Form -->
<g id="edge1" class="edge"><title>InteractionAffordance&#45;&gt;Form</title>
<path fill="none" stroke="black" d="M818.049,-86.9411C887.643,-67.0154 970.435,-43.311 1017.54,-29.8229"/>
<polygon fill="black" stroke="black" points="1018.67,-33.1417 1027.32,-27.0243 1016.74,-26.4121 1018.67,-33.1417"/>
<text text-anchor="start" x="929.346" y="-57.8" font-family="mono" font-size="14.00" fill="#c83500">forms</text>
<text text-anchor="middle" x="1016.32" y="-30.8243" font-family="Times,serif" font-size="14.00">1..*</text>
</g>
<!-- InteractionAffordance&#45;&gt;DataSchema -->
<g id="edge12" class="edge"><title>InteractionAffordance&#45;&gt;DataSchema</title>
<path fill="none" stroke="black" d="M576.305,-86.9411C517.46,-70.1398 449.205,-50.652 400.926,-36.8675"/>
<polygon fill="black" stroke="black" points="401.818,-33.4825 391.241,-34.1025 399.896,-40.2135 401.818,-33.4825"/>
<text text-anchor="start" x="507.346" y="-57.8" font-family="mono" font-size="14.00" fill="#c83500">uriVariables</text>
<text text-anchor="middle" x="402.241" y="-37.9025" font-family="Times,serif" font-size="14.00">0..*</text>
</g>
<!-- PropertyAffordance -->
<g id="node4" class="node"><title>PropertyAffordance</title>
<polygon fill="#8ccbf2" stroke="none" points="516.346,-244.5 516.346,-265.5 675.346,-265.5 675.346,-244.5 516.346,-244.5"/>
<polygon fill="none" stroke="#8ccbf2" points="516.346,-244.5 516.346,-265.5 675.346,-265.5 675.346,-244.5 516.346,-244.5"/>
<text text-anchor="start" x="521.346" y="-252.3" font-family="mono" font-weight="bold" font-size="14.00" fill="#c83500">PropertyAffordance</text>
<polygon fill="#ddeeff" stroke="none" points="516.346,-223.5 516.346,-244.5 675.346,-244.5 675.346,-223.5 516.346,-223.5"/>
<polygon fill="none" stroke="#8ccbf2" points="516.346,-223.5 516.346,-244.5 675.346,-244.5 675.346,-223.5 516.346,-223.5"/>
<text text-anchor="start" x="519.346" y="-231.3" font-family="mono" font-size="14.00" fill="#c83500">observable</text>
<text text-anchor="start" x="602.346" y="-231.3" font-family="Times,serif" font-size="14.00"> : </text>
<text text-anchor="start" x="614.346" y="-231.3" font-family="mono" font-size="14.00" fill="#c83500">boolean</text>
</g>
<!-- PropertyAffordance&#45;&gt;InteractionAffordance -->
<g id="edge19" class="edge"><title>PropertyAffordance&#45;&gt;InteractionAffordance</title>
<path fill="none" stroke="black" d="M615.987,-219.216C628.91,-204.013 645.922,-183.998 661.048,-166.204"/>
<polygon fill="white" stroke="black" points="664.033,-168.095 667.843,-158.209 658.7,-163.562 664.033,-168.095"/>
</g>
<!-- Thing -->
<g id="node5" class="node"><title>Thing</title>
<polygon fill="#8ccbf2" stroke="none" points="748.346,-566 748.346,-587 1157.35,-587 1157.35,-566 748.346,-566"/>
<polygon fill="none" stroke="#8ccbf2" points="748.346,-566 748.346,-587 1157.35,-587 1157.35,-566 748.346,-566"/>
<text text-anchor="start" x="931.846" y="-573.8" font-family="mono" font-weight="bold" font-size="14.00" fill="#c83500">Thing</text>
<polygon fill="#ddeeff" stroke="none" points="748.346,-545 748.346,-566 1157.35,-566 1157.35,-545 748.346,-545"/>
<polygon fill="none" stroke="#8ccbf2" points="748.346,-545 748.346,-566 1157.35,-566 1157.35,-545 748.346,-545"/>
<text text-anchor="start" x="751.346" y="-552.8" font-family="mono" font-size="14.00" fill="#c83500">@context</text>
<text text-anchor="start" x="818.346" y="-552.8" font-family="Times,serif" font-size="14.00"> : </text>
<text text-anchor="start" x="830.346" y="-552.8" font-family="mono" font-style="italic" font-size="14.00" fill="#c83500">anyURI</text>
<text text-anchor="start" x="880.346" y="-552.8" font-family="Times,serif" font-style="italic" font-size="14.00"> or Array</text>
<text text-anchor="start" x="932.346" y="-552.8" font-family="Times,serif" font-size="14.00"> </text>
<text text-anchor="start" x="936.346" y="-552.8" font-family="Times,serif" font-style="italic" font-size="14.00">(mandatory)</text>
<polygon fill="#ddeeff" stroke="none" points="748.346,-524 748.346,-545 1157.35,-545 1157.35,-524 748.346,-524"/>
<polygon fill="none" stroke="#8ccbf2" points="748.346,-524 748.346,-545 1157.35,-545 1157.35,-524 748.346,-524"/>
<text text-anchor="start" x="751.346" y="-531.8" font-family="mono" font-size="14.00" fill="#c83500">@type</text>
<text text-anchor="start" x="793.346" y="-531.8" font-family="Times,serif" font-size="14.00"> : </text>
<text text-anchor="start" x="805.346" y="-531.8" font-family="Times,serif" font-style="italic" font-size="14.00">(Array of) </text>
<text text-anchor="start" x="864.346" y="-531.8" font-family="mono" font-size="14.00" fill="#c83500">string</text>
<polygon fill="#ddeeff" stroke="none" points="748.346,-503 748.346,-524 1157.35,-524 1157.35,-503 748.346,-503"/>
<polygon fill="none" stroke="#8ccbf2" points="748.346,-503 748.346,-524 1157.35,-524 1157.35,-503 748.346,-503"/>
<text text-anchor="start" x="751.346" y="-510.8" font-family="mono" font-size="14.00" fill="#c83500">id</text>
<text text-anchor="start" x="768.346" y="-510.8" font-family="Times,serif" font-size="14.00"> : </text>
<text text-anchor="start" x="780.346" y="-510.8" font-family="mono" font-size="14.00" fill="#c83500">anyURI</text>
<text text-anchor="start" x="830.346" y="-510.8" font-family="Times,serif" font-size="14.00"> </text>
<text text-anchor="start" x="834.346" y="-510.8" font-family="Times,serif" font-style="italic" font-size="14.00">(mandatory)</text>
<polygon fill="#ddeeff" stroke="none" points="748.346,-482 748.346,-503 1157.35,-503 1157.35,-482 748.346,-482"/>
<polygon fill="none" stroke="#8ccbf2" points="748.346,-482 748.346,-503 1157.35,-503 1157.35,-482 748.346,-482"/>
<text text-anchor="start" x="751.346" y="-489.8" font-family="mono" font-size="14.00" fill="#c83500">title</text>
<text text-anchor="start" x="793.346" y="-489.8" font-family="Times,serif" font-size="14.00"> : Map of </text>
<text text-anchor="start" x="849.346" y="-489.8" font-family="mono" font-size="14.00" fill="#c83500">string</text>
<text text-anchor="start" x="899.346" y="-489.8" font-family="Times,serif" font-size="14.00"> </text>
<text text-anchor="start" x="903.346" y="-489.8" font-family="Times,serif" font-style="italic" font-size="14.00">(mandatory)</text>
<text text-anchor="start" x="971.346" y="-489.8" font-family="mono" font-size="14.00" fill="#c83500">titles</text>
<text text-anchor="start" x="1021.35" y="-489.8" font-family="Times,serif" font-size="14.00"> : Map of </text>
<text text-anchor="start" x="1077.35" y="-489.8" font-family="mono" font-size="14.00" fill="#c83500">string</text>
<polygon fill="#ddeeff" stroke="none" points="748.346,-461 748.346,-482 1157.35,-482 1157.35,-461 748.346,-461"/>
<polygon fill="none" stroke="#8ccbf2" points="748.346,-461 748.346,-482 1157.35,-482 1157.35,-461 748.346,-461"/>
<text text-anchor="start" x="751.346" y="-468.8" font-family="mono" font-size="14.00" fill="#c83500">description</text>
<text text-anchor="start" x="842.346" y="-468.8" font-family="Times,serif" font-size="14.00"> : Map of </text>
<text text-anchor="start" x="898.346" y="-468.8" font-family="mono" font-size="14.00" fill="#c83500">string</text>
<text text-anchor="start" x="948.346" y="-468.8" font-family="mono" font-size="14.00" fill="#c83500">descriptions</text>
<text text-anchor="start" x="1048.35" y="-468.8" font-family="Times,serif" font-size="14.00"> : Map of </text>
<text text-anchor="start" x="1104.35" y="-468.8" font-family="mono" font-size="14.00" fill="#c83500">string</text>
<polygon fill="#ddeeff" stroke="none" points="748.346,-440 748.346,-461 1157.35,-461 1157.35,-440 748.346,-440"/>
<polygon fill="none" stroke="#8ccbf2" points="748.346,-440 748.346,-461 1157.35,-461 1157.35,-440 748.346,-440"/>
<text text-anchor="start" x="751.346" y="-447.8" font-family="mono" font-size="14.00" fill="#c83500">security</text>
<text text-anchor="start" x="818.346" y="-447.8" font-family="Times,serif" font-size="14.00"> : (Array of) </text>
<text text-anchor="start" x="889.346" y="-447.8" font-family="mono" font-size="14.00" fill="#c83500">string</text>
<text text-anchor="start" x="939.346" y="-447.8" font-family="Times,serif" font-size="14.00"> </text>
<text text-anchor="start" x="943.346" y="-447.8" font-family="Times,serif" font-style="italic" font-size="14.00">(mandatory)</text>
<polygon fill="#ddeeff" stroke="none" points="748.346,-419 748.346,-440 1157.35,-440 1157.35,-419 748.346,-419"/>
<polygon fill="none" stroke="#8ccbf2" points="748.346,-419 748.346,-440 1157.35,-440 1157.35,-419 748.346,-419"/>
<text text-anchor="start" x="751.346" y="-426.8" font-family="mono" font-size="14.00" fill="#c83500">profile</text>
<text text-anchor="start" x="809.346" y="-426.8" font-family="Times,serif" font-size="14.00"> : (Array of) </text>
<text text-anchor="start" x="880.346" y="-426.8" font-family="mono" font-size="14.00" fill="#c83500">anyURI</text>
<polygon fill="#ddeeff" stroke="none" points="748.346,-398 748.346,-419 1157.35,-419 1157.35,-398 748.346,-398"/>
<polygon fill="none" stroke="#8ccbf2" points="748.346,-398 748.346,-419 1157.35,-419 1157.35,-398 748.346,-398"/>
<text text-anchor="start" x="751.346" y="-405.8" font-family="mono" font-size="14.00" fill="#c83500">created</text>
<text text-anchor="start" x="809.346" y="-405.8" font-family="Times,serif" font-size="14.00"> : </text>
<text text-anchor="start" x="821.346" y="-405.8" font-family="mono" font-size="14.00" fill="#c83500">dateTime</text>
<polygon fill="#ddeeff" stroke="none" points="748.346,-377 748.346,-398 1157.35,-398 1157.35,-377 748.346,-377"/>
<polygon fill="none" stroke="#8ccbf2" points="748.346,-377 748.346,-398 1157.35,-398 1157.35,-377 748.346,-377"/>
<text text-anchor="start" x="751.346" y="-384.8" font-family="mono" font-size="14.00" fill="#c83500">modified</text>
<text text-anchor="start" x="818.346" y="-384.8" font-family="Times,serif" font-size="14.00"> : </text>
<text text-anchor="start" x="830.346" y="-384.8" font-family="mono" font-size="14.00" fill="#c83500">dateTime</text>
<polygon fill="#ddeeff" stroke="none" points="748.346,-356 748.346,-377 1157.35,-377 1157.35,-356 748.346,-356"/>
<polygon fill="none" stroke="#8ccbf2" points="748.346,-356 748.346,-377 1157.35,-377 1157.35,-356 748.346,-356"/>
<text text-anchor="start" x="751.346" y="-363.8" font-family="mono" font-size="14.00" fill="#c83500">support</text>
<text text-anchor="start" x="809.346" y="-363.8" font-family="Times,serif" font-size="14.00"> : </text>
<text text-anchor="start" x="821.346" y="-363.8" font-family="mono" font-size="14.00" fill="#c83500">anyURI</text>
<polygon fill="#ddeeff" stroke="none" points="748.346,-335 748.346,-356 1157.35,-356 1157.35,-335 748.346,-335"/>
<polygon fill="none" stroke="#8ccbf2" points="748.346,-335 748.346,-356 1157.35,-356 1157.35,-335 748.346,-335"/>
<text text-anchor="start" x="751.346" y="-342.8" font-family="mono" font-size="14.00" fill="#c83500">base</text>
<text text-anchor="start" x="785.346" y="-342.8" font-family="Times,serif" font-size="14.00"> : </text>
<text text-anchor="start" x="797.346" y="-342.8" font-family="mono" font-size="14.00" fill="#c83500">anyURI</text>
</g>
<!-- Thing&#45;&gt;ActionAffordance -->
<g id="edge14" class="edge"><title>Thing&#45;&gt;ActionAffordance</title>
<path fill="none" stroke="black" d="M739.701,-377.069C656.868,-344.764 566.067,-309.351 499.554,-283.411"/>
<polygon fill="black" stroke="black" points="500.509,-280.027 489.921,-279.654 497.966,-286.549 500.509,-280.027"/>
<text text-anchor="start" x="565.346" y="-301.8" font-family="mono" font-size="14.00" fill="#c83500">actions</text>
<text text-anchor="middle" x="500.921" y="-283.454" font-family="Times,serif" font-size="14.00">0..*</text>
</g>
<!-- Thing&#45;&gt;EventAffordance -->
<g id="edge15" class="edge"><title>Thing&#45;&gt;EventAffordance</title>
<path fill="none" stroke="black" d="M739.548,-403.781C612.949,-369.593 449.431,-324.141 305.346,-280 290.988,-275.602 275.598,-270.602 261.206,-265.8"/>
<polygon fill="black" stroke="black" points="262.02,-262.382 251.426,-262.517 259.793,-269.018 262.02,-262.382"/>
<text text-anchor="start" x="411.346" y="-301.8" font-family="mono" font-size="14.00" fill="#c83500">events</text>
<text text-anchor="middle" x="240.426" y="-266.317" font-family="Times,serif" font-size="14.00">0..*</text>
</g>
<!-- Thing&#45;&gt;PropertyAffordance -->
<g id="edge13" class="edge"><title>Thing&#45;&gt;PropertyAffordance</title>
<path fill="none" stroke="black" d="M739.779,-332.282C704.066,-310.824 670.242,-290.501 644.317,-274.924"/>
<polygon fill="black" stroke="black" points="645.86,-271.768 635.486,-269.618 642.255,-277.768 645.86,-271.768"/>
<text text-anchor="start" x="701.346" y="-301.8" font-family="mono" font-size="14.00" fill="#c83500">properties</text>
<text text-anchor="middle" x="624.486" y="-273.418" font-family="Times,serif" font-size="14.00">0..*</text>
</g>
<!-- VersionInfo -->
<g id="node6" class="node"><title>VersionInfo</title>
<polygon fill="#8ccbf2" stroke="none" points="709.346,-254.5 709.346,-275.5 916.346,-275.5 916.346,-254.5 709.346,-254.5"/>
<polygon fill="none" stroke="#8ccbf2" points="709.346,-254.5 709.346,-275.5 916.346,-275.5 916.346,-254.5 709.346,-254.5"/>
<text text-anchor="start" x="767.346" y="-262.3" font-family="mono" font-weight="bold" font-size="14.00" fill="#c83500">VersionInfo</text>
<polygon fill="#ddeeff" stroke="none" points="709.346,-233.5 709.346,-254.5 916.346,-254.5 916.346,-233.5 709.346,-233.5"/>
<polygon fill="none" stroke="#8ccbf2" points="709.346,-233.5 709.346,-254.5 916.346,-254.5 916.346,-233.5 709.346,-233.5"/>
<text text-anchor="start" x="712.346" y="-241.3" font-family="mono" font-size="14.00" fill="#c83500">instance</text>
<text text-anchor="start" x="779.346" y="-241.3" font-family="Times,serif" font-size="14.00"> : </text>
<text text-anchor="start" x="791.346" y="-241.3" font-family="mono" font-size="14.00" fill="#c83500">string</text>
<text text-anchor="start" x="841.346" y="-241.3" font-family="Times,serif" font-size="14.00"> </text>
<text text-anchor="start" x="845.346" y="-241.3" font-family="Times,serif" font-style="italic" font-size="14.00">(mandatory)</text>
<polygon fill="#ddeeff" stroke="none" points="709.346,-212.5 709.346,-233.5 916.346,-233.5 916.346,-212.5 709.346,-212.5"/>
<polygon fill="none" stroke="#8ccbf2" points="709.346,-212.5 709.346,-233.5 916.346,-233.5 916.346,-212.5 709.346,-212.5"/>
<text text-anchor="start" x="712.346" y="-220.3" font-family="mono" font-size="14.00" fill="#c83500">model</text>
<text text-anchor="start" x="754.346" y="-220.3" font-family="Times,serif" font-size="14.00"> : </text>
<text text-anchor="start" x="766.346" y="-220.3" font-family="mono" font-size="14.00" fill="#c83500">string</text>
</g>
<!-- Thing&#45;&gt;VersionInfo -->
<g id="edge4" class="edge"><title>Thing&#45;&gt;VersionInfo</title>
<path fill="none" stroke="black" d="M868.08,-330.892C858.199,-315.753 848.714,-301.221 840.458,-288.573"/>
<polygon fill="black" stroke="black" points="843.346,-286.594 834.95,-280.133 837.484,-290.42 843.346,-286.594"/>
<text text-anchor="start" x="854.346" y="-301.8" font-family="mono" font-size="14.00" fill="#c83500">version</text>
<text text-anchor="middle" x="823.95" y="-283.933" font-family="Times,serif" font-size="14.00">0..1</text>
</g>
<!-- Thing&#45;&gt;Form -->
<g id="edge3" class="edge"><title>Thing&#45;&gt;Form</title>
<path fill="none" stroke="black" d="M1031.82,-330.81C1053.16,-287.991 1072.5,-238.978 1080.35,-191 1088.73,-139.724 1074.53,-79.6122 1064.33,-45.7481"/>
<polygon fill="black" stroke="black" points="1067.64,-44.6216 1061.32,-36.12 1060.96,-46.7088 1067.64,-44.6216"/>
<text text-anchor="start" x="1082.35" y="-179.8" font-family="mono" font-size="14.00" fill="#c83500">forms</text>
<text text-anchor="middle" x="1050.32" y="-39.92" font-family="Times,serif" font-size="14.00">0..*</text>
</g>
<!-- Link -->
<g id="node8" class="node"><title>Link</title>
<polygon fill="#f2f2f2" stroke="none" points="988.346,-233.5 988.346,-254.5 1028.35,-254.5 1028.35,-233.5 988.346,-233.5"/>
<polygon fill="none" stroke="#8c8c8c" points="988.346,-233.5 988.346,-254.5 1028.35,-254.5 1028.35,-233.5 988.346,-233.5"/>
<text text-anchor="start" x="991.346" y="-241.3" font-family="mono" font-weight="bold" font-size="14.00">Link</text>
</g>
<!-- Thing&#45;&gt;Link -->
<g id="edge2" class="edge"><title>Thing&#45;&gt;Link</title>
<path fill="none" stroke="black" d="M986.052,-330.892C991.811,-308.833 997.234,-288.061 1001.29,-272.529"/>
<polygon fill="black" stroke="black" points="1004.73,-273.221 1003.87,-262.661 997.953,-271.453 1004.73,-273.221"/>
<text text-anchor="start" x="993.346" y="-301.8" font-family="mono" font-size="14.00" fill="#c83500">links</text>
<text text-anchor="middle" x="992.865" y="-266.461" font-family="Times,serif" font-size="14.00">0..*</text>
</g>
<!-- Thing&#45;&gt;DataSchema -->
<g id="edge11" class="edge"><title>Thing&#45;&gt;DataSchema</title>
<path fill="none" stroke="black" d="M944.477,-330.952C937.506,-226.674 927.107,-95.7829 918.346,-87 882.284,-50.8496 543.794,-29.4847 401.198,-22.0219"/>
<polygon fill="black" stroke="black" points="401.036,-18.5089 390.868,-21.4877 400.674,-25.4996 401.036,-18.5089"/>
<text text-anchor="start" x="934.346" y="-179.8" font-family="mono" font-size="14.00" fill="#c83500">schemaDefinitions</text>
<text text-anchor="middle" x="401.868" y="-10.2877" font-family="Times,serif" font-size="14.00">0..*</text>
</g>
<!-- SecurityScheme -->
<g id="node10" class="node"><title>SecurityScheme</title>
<polygon fill="#f2f2f2" stroke="none" points="1138.35,-233.5 1138.35,-254.5 1260.35,-254.5 1260.35,-233.5 1138.35,-233.5"/>
<polygon fill="none" stroke="#8c8c8c" points="1138.35,-233.5 1138.35,-254.5 1260.35,-254.5 1260.35,-233.5 1138.35,-233.5"/>
<text text-anchor="start" x="1141.35" y="-241.3" font-family="mono" font-weight="bold" font-size="14.00">SecurityScheme</text>
</g>
<!-- Thing&#45;&gt;SecurityScheme -->
<g id="edge10" class="edge"><title>Thing&#45;&gt;SecurityScheme</title>
<path fill="none" stroke="black" d="M1101.01,-330.892C1128.13,-307.348 1153.55,-285.271 1171.75,-269.465"/>
<polygon fill="black" stroke="black" points="1174.33,-271.861 1179.58,-262.661 1169.74,-266.576 1174.33,-271.861"/>
<text text-anchor="start" x="1133.35" y="-301.8" font-family="mono" font-size="14.00" fill="#c83500">securityDefinitions</text>
<text text-anchor="middle" x="1168.58" y="-266.461" font-family="Times,serif" font-size="14.00">1..*</text>
</g>
<!-- Signature -->
<g id="node11" class="node"><title>Signature</title>
<polygon fill="#f2f2f2" stroke="none" points="1317.35,-233.5 1317.35,-254.5 1398.35,-254.5 1398.35,-233.5 1317.35,-233.5"/>
<polygon fill="none" stroke="#8c8c8c" points="1317.35,-233.5 1317.35,-254.5 1398.35,-254.5 1398.35,-233.5 1317.35,-233.5"/>
<text text-anchor="start" x="1320.35" y="-241.3" font-family="mono" font-weight="bold" font-size="14.00">Signature</text>
</g>
<!-- Thing&#45;&gt;Signature -->
<g id="edge16" class="edge"><title>Thing&#45;&gt;Signature</title>
<path fill="none" stroke="black" d="M1164.92,-384.868C1209.54,-364.723 1254.96,-340.697 1294.35,-313 1311.12,-301.206 1326.85,-284.349 1338.41,-270.431"/>
<polygon fill="black" stroke="black" points="1341.14,-272.616 1344.7,-262.636 1335.69,-268.218 1341.14,-272.616"/>
<text text-anchor="start" x="1312.35" y="-301.8" font-family="mono" font-size="14.00" fill="#c83500">signatures</text>
<text text-anchor="middle" x="1333.7" y="-266.436" font-family="Times,serif" font-size="14.00">0..*</text>
</g>
</g>
</svg>
