<?xml version="1.0" encoding="UTF-8" standalone="no"?>
<!DOCTYPE svg PUBLIC "-//W3C//DTD SVG 1.1//EN"
 "http://www.w3.org/Graphics/SVG/1.1/DTD/svg11.dtd">
<!-- Generated by graphviz version 2.38.0 (20140413.2041)
 -->
<!-- Title: %3 Pages: 1 -->
<svg width="1510pt" height="840pt"
 viewBox="0.00 0.00 1509.50 840.00" xmlns="http://www.w3.org/2000/svg" xmlns:xlink="http://www.w3.org/1999/xlink">
<g id="graph0" class="graph" transform="scale(1 1) rotate(0) translate(4 836)">
<title>%3</title>
<polygon fill="white" stroke="none" points="-4,4 -4,-836 1505.5,-836 1505.5,4 -4,4"/>
<!-- MultiLanguage -->
<g id="node1" class="node"><title>MultiLanguage</title>
<polygon fill="#8ccbf2" stroke="none" points="375.5,-167.5 375.5,-188.5 489.5,-188.5 489.5,-167.5 375.5,-167.5"/>
<polygon fill="none" stroke="#8ccbf2" points="375.5,-167.5 375.5,-188.5 489.5,-188.5 489.5,-167.5 375.5,-167.5"/>
<text text-anchor="start" x="378.5" y="-175.3" font-family="mono" font-weight="bold" font-size="14.00" fill="#c83500">MultiLanguage</text>
</g>
<!-- InteractionPattern -->
<g id="node2" class="node"><title>InteractionPattern</title>
<polygon fill="#8ccbf2" stroke="none" points="342.5,-394.5 342.5,-415.5 523.5,-415.5 523.5,-394.5 342.5,-394.5"/>
<polygon fill="none" stroke="#8ccbf2" points="342.5,-394.5 342.5,-415.5 523.5,-415.5 523.5,-394.5 342.5,-394.5"/>
<text text-anchor="start" x="358.5" y="-402.3" font-family="mono" font-weight="bold" font-size="14.00" fill="#c83500">InteractionPattern</text>
<polygon fill="#ddeeff" stroke="none" points="342.5,-373.5 342.5,-394.5 523.5,-394.5 523.5,-373.5 342.5,-373.5"/>
<polygon fill="none" stroke="#8ccbf2" points="342.5,-373.5 342.5,-394.5 523.5,-394.5 523.5,-373.5 342.5,-373.5"/>
<text text-anchor="start" x="345.5" y="-381.3" font-family="mono" font-size="14.00" fill="#c83500">scopes</text>
<text text-anchor="start" x="395.5" y="-381.3" font-family="Times,serif" font-size="14.00"> : array of </text>
<text text-anchor="start" x="453.5" y="-381.3" font-family="mono" font-size="14.00" fill="#c83500">string</text>
<polygon fill="#ddeeff" stroke="none" points="342.5,-352.5 342.5,-373.5 523.5,-373.5 523.5,-352.5 342.5,-352.5"/>
<polygon fill="none" stroke="#8ccbf2" points="342.5,-352.5 342.5,-373.5 523.5,-373.5 523.5,-352.5 342.5,-352.5"/>
<text text-anchor="start" x="345.5" y="-360.3" font-family="mono" font-size="14.00" fill="#c83500">title</text>
<text text-anchor="start" x="387.5" y="-360.3" font-family="Times,serif" font-size="14.00"> : </text>
<text text-anchor="start" x="399.5" y="-360.3" font-family="mono" font-size="14.00" fill="#c83500">string</text>
<polygon fill="#ddeeff" stroke="none" points="342.5,-331.5 342.5,-352.5 523.5,-352.5 523.5,-331.5 342.5,-331.5"/>
<polygon fill="none" stroke="#8ccbf2" points="342.5,-331.5 342.5,-352.5 523.5,-352.5 523.5,-331.5 342.5,-331.5"/>
<text text-anchor="start" x="345.5" y="-339.3" font-family="mono" font-size="14.00" fill="#c83500">description</text>
<text text-anchor="start" x="436.5" y="-339.3" font-family="Times,serif" font-size="14.00"> : </text>
<text text-anchor="start" x="448.5" y="-339.3" font-family="mono" font-size="14.00" fill="#c83500">string</text>
<polygon fill="#ddeeff" stroke="none" points="342.5,-310.5 342.5,-331.5 523.5,-331.5 523.5,-310.5 342.5,-310.5"/>
<polygon fill="none" stroke="#8ccbf2" points="342.5,-310.5 342.5,-331.5 523.5,-331.5 523.5,-310.5 342.5,-310.5"/>
<text text-anchor="start" x="345.5" y="-318.3" font-family="mono" font-size="14.00" fill="#c83500">security</text>
<text text-anchor="start" x="412.5" y="-318.3" font-family="Times,serif" font-size="14.00"> : array of </text>
<text text-anchor="start" x="470.5" y="-318.3" font-family="mono" font-size="14.00" fill="#c83500">string</text>
</g>
<!-- InteractionPattern&#45;&gt;MultiLanguage -->
<g id="edge1" class="edge"><title>InteractionPattern&#45;&gt;MultiLanguage</title>
<path fill="none" stroke="black" d="M364.09,-306.606C358.701,-296.465 356.636,-285.448 360.5,-274 369.595,-247.055 389.78,-221.721 406.47,-204.08"/>
<polygon fill="black" stroke="black" points="409.354,-206.136 413.84,-196.537 404.348,-201.244 409.354,-206.136"/>
<text text-anchor="start" x="360.5" y="-277.8" font-family="mono" font-size="14.00" fill="#c83500">titles</text>
<text text-anchor="middle" x="402.84" y="-200.337" font-family="Times,serif" font-size="14.00">0..1</text>
</g>
<!-- InteractionPattern&#45;&gt;MultiLanguage -->
<g id="edge2" class="edge"><title>InteractionPattern&#45;&gt;MultiLanguage</title>
<path fill="none" stroke="black" d="M432.5,-306.6C432.5,-273.674 432.5,-233.461 432.5,-207.203"/>
<polygon fill="black" stroke="black" points="436,-206.866 432.5,-196.866 429,-206.866 436,-206.866"/>
<text text-anchor="start" x="432.5" y="-277.8" font-family="mono" font-size="14.00" fill="#c83500">descriptions</text>
<text text-anchor="middle" x="443.5" y="-200.666" font-family="Times,serif" font-size="14.00">0..1</text>
</g>
<!-- Form -->
<g id="node4" class="node"><title>Form</title>
<polygon fill="#8ccbf2" stroke="none" points="8.5,-230.5 8.5,-251.5 341.5,-251.5 341.5,-230.5 8.5,-230.5"/>
<polygon fill="none" stroke="#8ccbf2" points="8.5,-230.5 8.5,-251.5 341.5,-251.5 341.5,-230.5 8.5,-230.5"/>
<text text-anchor="start" x="158" y="-238.3" font-family="mono" font-weight="bold" font-size="14.00" fill="#c83500">Form</text>
<polygon fill="#ddeeff" stroke="none" points="8.5,-209.5 8.5,-230.5 341.5,-230.5 341.5,-209.5 8.5,-209.5"/>
<polygon fill="none" stroke="#8ccbf2" points="8.5,-209.5 8.5,-230.5 341.5,-230.5 341.5,-209.5 8.5,-209.5"/>
<text text-anchor="start" x="11.5" y="-217.3" font-family="mono" font-size="14.00" fill="#c83500">security</text>
<text text-anchor="start" x="78.5" y="-217.3" font-family="Times,serif" font-size="14.00"> : array of </text>
<text text-anchor="start" x="136.5" y="-217.3" font-family="mono" font-size="14.00" fill="#c83500">string</text>
<polygon fill="#ddeeff" stroke="none" points="8.5,-188.5 8.5,-209.5 341.5,-209.5 341.5,-188.5 8.5,-188.5"/>
<polygon fill="none" stroke="#8ccbf2" points="8.5,-188.5 8.5,-209.5 341.5,-209.5 341.5,-188.5 8.5,-188.5"/>
<text text-anchor="start" x="11.5" y="-196.3" font-family="mono" font-size="14.00" fill="#c83500">subprotocol</text>
<text text-anchor="start" x="102.5" y="-196.3" font-family="Times,serif" font-size="14.00"> : </text>
<text text-anchor="start" x="114.5" y="-196.3" font-family="mono" font-size="14.00" fill="#c83500">string</text>
<polygon fill="#ddeeff" stroke="none" points="8.5,-167.5 8.5,-188.5 341.5,-188.5 341.5,-167.5 8.5,-167.5"/>
<polygon fill="none" stroke="#8ccbf2" points="8.5,-167.5 8.5,-188.5 341.5,-188.5 341.5,-167.5 8.5,-167.5"/>
<text text-anchor="start" x="11.5" y="-175.3" font-family="mono" font-size="14.00" fill="#c83500">scopes</text>
<text text-anchor="start" x="61.5" y="-175.3" font-family="Times,serif" font-size="14.00"> : array of </text>
<text text-anchor="start" x="119.5" y="-175.3" font-family="mono" font-size="14.00" fill="#c83500">string</text>
<polygon fill="#ddeeff" stroke="none" points="8.5,-146.5 8.5,-167.5 341.5,-167.5 341.5,-146.5 8.5,-146.5"/>
<polygon fill="none" stroke="#8ccbf2" points="8.5,-146.5 8.5,-167.5 341.5,-167.5 341.5,-146.5 8.5,-146.5"/>
<text text-anchor="start" x="11.5" y="-154.3" font-family="mono" font-size="14.00" fill="#c83500">href</text>
<text text-anchor="start" x="45.5" y="-154.3" font-family="Times,serif" font-size="14.00"> : </text>
<text text-anchor="start" x="57.5" y="-154.3" font-family="mono" font-size="14.00" fill="#c83500">anyURI</text>
<text text-anchor="start" x="107.5" y="-154.3" font-family="Times,serif" font-size="14.00"> </text>
<text text-anchor="start" x="111.5" y="-154.3" font-family="Times,serif" font-style="italic" font-size="14.00">(mandatory)</text>
<polygon fill="#ddeeff" stroke="none" points="8.5,-125.5 8.5,-146.5 341.5,-146.5 341.5,-125.5 8.5,-125.5"/>
<polygon fill="none" stroke="#8ccbf2" points="8.5,-125.5 8.5,-146.5 341.5,-146.5 341.5,-125.5 8.5,-125.5"/>
<text text-anchor="start" x="11.5" y="-133.3" font-family="mono" font-size="14.00" fill="#c83500">op</text>
<text text-anchor="start" x="28.5" y="-133.3" font-family="Times,serif" font-size="14.00"> : </text>
<text text-anchor="start" x="40.5" y="-133.3" font-family="mono" font-size="14.00" fill="#c83500">string</text>
<polygon fill="#ddeeff" stroke="none" points="8.5,-104.5 8.5,-125.5 341.5,-125.5 341.5,-104.5 8.5,-104.5"/>
<polygon fill="none" stroke="#8ccbf2" points="8.5,-104.5 8.5,-125.5 341.5,-125.5 341.5,-104.5 8.5,-104.5"/>
<text text-anchor="start" x="11.5" y="-112.3" font-family="mono" font-size="14.00" fill="#c83500">contentType</text>
<text text-anchor="start" x="102.5" y="-112.3" font-family="Times,serif" font-size="14.00"> : </text>
<text text-anchor="start" x="114.5" y="-112.3" font-family="mono" font-size="14.00" fill="#c83500">string</text>
<text text-anchor="start" x="164.5" y="-112.3" font-family="Times,serif" font-size="14.00"> = application/json </text>
<text text-anchor="start" x="270.5" y="-112.3" font-family="Times,serif" font-style="italic" font-size="14.00">(mandatory)</text>
</g>
<!-- InteractionPattern&#45;&gt;Form -->
<g id="edge3" class="edge"><title>InteractionPattern&#45;&gt;Form</title>
<path fill="none" stroke="black" d="M340.215,-306.952C331.097,-301.031 322.057,-294.984 313.5,-289 301.419,-280.551 288.983,-271.423 276.749,-262.165"/>
<polygon fill="black" stroke="black" points="278.821,-259.344 268.745,-256.069 274.58,-264.913 278.821,-259.344"/>
<text text-anchor="start" x="313.5" y="-277.8" font-family="mono" font-size="14.00" fill="#c83500">forms</text>
<text text-anchor="middle" x="257.745" y="-259.869" font-family="Times,serif" font-size="14.00">1..*</text>
</g>
<!-- DataSchema -->
<g id="node11" class="node"><title>DataSchema</title>
<polygon fill="#f2f2f2" stroke="none" points="750.5,-167.5 750.5,-188.5 839.5,-188.5 839.5,-167.5 750.5,-167.5"/>
<polygon fill="none" stroke="#8c8c8c" points="750.5,-167.5 750.5,-188.5 839.5,-188.5 839.5,-167.5 750.5,-167.5"/>
<text text-anchor="start" x="753.5" y="-175.3" font-family="mono" font-weight="bold" font-size="14.00">DataSchema</text>
</g>
<!-- InteractionPattern&#45;&gt;DataSchema -->
<g id="edge4" class="edge"><title>InteractionPattern&#45;&gt;DataSchema</title>
<path fill="none" stroke="black" d="M509.06,-306.762C531.105,-290.936 550.781,-277.116 556.5,-274 613.593,-242.89 683.129,-216.484 732.258,-199.56"/>
<polygon fill="black" stroke="black" points="733.468,-202.845 741.802,-196.303 731.207,-196.22 733.468,-202.845"/>
<text text-anchor="start" x="556.5" y="-277.8" font-family="mono" font-size="14.00" fill="#c83500">uriVariables</text>
<text text-anchor="middle" x="730.802" y="-200.103" font-family="Times,serif" font-size="14.00">0..1</text>
</g>
<!-- Link -->
<g id="node3" class="node"><title>Link</title>
<polygon fill="#8ccbf2" stroke="none" points="921.5,-558.5 921.5,-579.5 1095.5,-579.5 1095.5,-558.5 921.5,-558.5"/>
<polygon fill="none" stroke="#8ccbf2" points="921.5,-558.5 921.5,-579.5 1095.5,-579.5 1095.5,-558.5 921.5,-558.5"/>
<text text-anchor="start" x="991.5" y="-566.3" font-family="mono" font-weight="bold" font-size="14.00" fill="#c83500">Link</text>
<polygon fill="#ddeeff" stroke="none" points="921.5,-537.5 921.5,-558.5 1095.5,-558.5 1095.5,-537.5 921.5,-537.5"/>
<polygon fill="none" stroke="#8ccbf2" points="921.5,-537.5 921.5,-558.5 1095.5,-558.5 1095.5,-537.5 921.5,-537.5"/>
<text text-anchor="start" x="924.5" y="-545.3" font-family="mono" font-size="14.00" fill="#c83500">href</text>
<text text-anchor="start" x="958.5" y="-545.3" font-family="Times,serif" font-size="14.00"> : </text>
<text text-anchor="start" x="970.5" y="-545.3" font-family="mono" font-size="14.00" fill="#c83500">anyURI</text>
<text text-anchor="start" x="1020.5" y="-545.3" font-family="Times,serif" font-size="14.00"> </text>
<text text-anchor="start" x="1024.5" y="-545.3" font-family="Times,serif" font-style="italic" font-size="14.00">(mandatory)</text>
<polygon fill="#ddeeff" stroke="none" points="921.5,-516.5 921.5,-537.5 1095.5,-537.5 1095.5,-516.5 921.5,-516.5"/>
<polygon fill="none" stroke="#8ccbf2" points="921.5,-516.5 921.5,-537.5 1095.5,-537.5 1095.5,-516.5 921.5,-516.5"/>
<text text-anchor="start" x="924.5" y="-524.3" font-family="mono" font-size="14.00" fill="#c83500">type</text>
<text text-anchor="start" x="958.5" y="-524.3" font-family="Times,serif" font-size="14.00"> : </text>
<text text-anchor="start" x="970.5" y="-524.3" font-family="mono" font-size="14.00" fill="#c83500">string</text>
<polygon fill="#ddeeff" stroke="none" points="921.5,-495.5 921.5,-516.5 1095.5,-516.5 1095.5,-495.5 921.5,-495.5"/>
<polygon fill="none" stroke="#8ccbf2" points="921.5,-495.5 921.5,-516.5 1095.5,-516.5 1095.5,-495.5 921.5,-495.5"/>
<text text-anchor="start" x="924.5" y="-503.3" font-family="mono" font-size="14.00" fill="#c83500">anchor</text>
<text text-anchor="start" x="974.5" y="-503.3" font-family="Times,serif" font-size="14.00"> : </text>
<text text-anchor="start" x="986.5" y="-503.3" font-family="mono" font-size="14.00" fill="#c83500">anyURI</text>
<polygon fill="#ddeeff" stroke="none" points="921.5,-474.5 921.5,-495.5 1095.5,-495.5 1095.5,-474.5 921.5,-474.5"/>
<polygon fill="none" stroke="#8ccbf2" points="921.5,-474.5 921.5,-495.5 1095.5,-495.5 1095.5,-474.5 921.5,-474.5"/>
<text text-anchor="start" x="924.5" y="-482.3" font-family="mono" font-size="14.00" fill="#c83500">rel</text>
<text text-anchor="start" x="949.5" y="-482.3" font-family="Times,serif" font-size="14.00"> : </text>
<text text-anchor="start" x="961.5" y="-482.3" font-family="mono" font-size="14.00" fill="#c83500">string</text>
</g>
<!-- ExpectedResponse -->
<g id="node7" class="node"><title>ExpectedResponse</title>
<polygon fill="#8ccbf2" stroke="none" points="95.5,-25 95.5,-46 254.5,-46 254.5,-25 95.5,-25"/>
<polygon fill="none" stroke="#8ccbf2" points="95.5,-25 95.5,-46 254.5,-46 254.5,-25 95.5,-25"/>
<text text-anchor="start" x="108.5" y="-32.8" font-family="mono" font-weight="bold" font-size="14.00" fill="#c83500">ExpectedResponse</text>
<polygon fill="#ddeeff" stroke="none" points="95.5,-4 95.5,-25 254.5,-25 254.5,-4 95.5,-4"/>
<polygon fill="none" stroke="#8ccbf2" points="95.5,-4 95.5,-25 254.5,-25 254.5,-4 95.5,-4"/>
<text text-anchor="start" x="98.5" y="-11.8" font-family="mono" font-size="14.00" fill="#c83500">contentType</text>
<text text-anchor="start" x="189.5" y="-11.8" font-family="Times,serif" font-size="14.00"> : </text>
<text text-anchor="start" x="201.5" y="-11.8" font-family="mono" font-size="14.00" fill="#c83500">string</text>
</g>
<!-- Form&#45;&gt;ExpectedResponse -->
<g id="edge5" class="edge"><title>Form&#45;&gt;ExpectedResponse</title>
<path fill="none" stroke="black" d="M174.5,-100.862C174.5,-86.5577 174.5,-72.2953 174.5,-60.116"/>
<polygon fill="black" stroke="black" points="178,-60.0004 174.5,-50.0004 171,-60.0004 178,-60.0004"/>
<text text-anchor="start" x="174.5" y="-71.8" font-family="mono" font-size="14.00" fill="#c83500">response</text>
<text text-anchor="middle" x="163.5" y="-53.8004" font-family="Times,serif" font-size="14.00">0..1</text>
</g>
<!-- Thing -->
<g id="node5" class="node"><title>Thing</title>
<polygon fill="#8ccbf2" stroke="none" points="639.5,-806.5 639.5,-827.5 892.5,-827.5 892.5,-806.5 639.5,-806.5"/>
<polygon fill="none" stroke="#8ccbf2" points="639.5,-806.5 639.5,-827.5 892.5,-827.5 892.5,-806.5 639.5,-806.5"/>
<text text-anchor="start" x="745" y="-814.3" font-family="mono" font-weight="bold" font-size="14.00" fill="#c83500">Thing</text>
<polygon fill="#ddeeff" stroke="none" points="639.5,-785.5 639.5,-806.5 892.5,-806.5 892.5,-785.5 639.5,-785.5"/>
<polygon fill="none" stroke="#8ccbf2" points="639.5,-785.5 639.5,-806.5 892.5,-806.5 892.5,-785.5 639.5,-785.5"/>
<text text-anchor="start" x="642.5" y="-793.3" font-family="mono" font-size="14.00" fill="#c83500">id</text>
<text text-anchor="start" x="659.5" y="-793.3" font-family="Times,serif" font-size="14.00"> : </text>
<text text-anchor="start" x="671.5" y="-793.3" font-family="mono" font-size="14.00" fill="#c83500">anyURI</text>
<text text-anchor="start" x="721.5" y="-793.3" font-family="Times,serif" font-size="14.00"> </text>
<text text-anchor="start" x="725.5" y="-793.3" font-family="Times,serif" font-style="italic" font-size="14.00">(mandatory)</text>
<polygon fill="#ddeeff" stroke="none" points="639.5,-764.5 639.5,-785.5 892.5,-785.5 892.5,-764.5 639.5,-764.5"/>
<polygon fill="none" stroke="#8ccbf2" points="639.5,-764.5 639.5,-785.5 892.5,-785.5 892.5,-764.5 639.5,-764.5"/>
<text text-anchor="start" x="642.5" y="-772.3" font-family="mono" font-size="14.00" fill="#c83500">base</text>
<text text-anchor="start" x="676.5" y="-772.3" font-family="Times,serif" font-size="14.00"> : </text>
<text text-anchor="start" x="688.5" y="-772.3" font-family="mono" font-size="14.00" fill="#c83500">anyURI</text>
<polygon fill="#ddeeff" stroke="none" points="639.5,-743.5 639.5,-764.5 892.5,-764.5 892.5,-743.5 639.5,-743.5"/>
<polygon fill="none" stroke="#8ccbf2" points="639.5,-743.5 639.5,-764.5 892.5,-764.5 892.5,-743.5 639.5,-743.5"/>
<text text-anchor="start" x="642.5" y="-751.3" font-family="mono" font-size="14.00" fill="#c83500">created</text>
<text text-anchor="start" x="700.5" y="-751.3" font-family="Times,serif" font-size="14.00"> : </text>
<text text-anchor="start" x="712.5" y="-751.3" font-family="mono" font-size="14.00" fill="#c83500">string</text>
<polygon fill="#ddeeff" stroke="none" points="639.5,-722.5 639.5,-743.5 892.5,-743.5 892.5,-722.5 639.5,-722.5"/>
<polygon fill="none" stroke="#8ccbf2" points="639.5,-722.5 639.5,-743.5 892.5,-743.5 892.5,-722.5 639.5,-722.5"/>
<text text-anchor="start" x="642.5" y="-730.3" font-family="mono" font-size="14.00" fill="#c83500">name</text>
<text text-anchor="start" x="676.5" y="-730.3" font-family="Times,serif" font-size="14.00"> : </text>
<text text-anchor="start" x="688.5" y="-730.3" font-family="mono" font-size="14.00" fill="#c83500">string</text>
<text text-anchor="start" x="738.5" y="-730.3" font-family="Times,serif" font-size="14.00"> </text>
<text text-anchor="start" x="742.5" y="-730.3" font-family="Times,serif" font-style="italic" font-size="14.00">(mandatory)</text>
<polygon fill="#ddeeff" stroke="none" points="639.5,-701.5 639.5,-722.5 892.5,-722.5 892.5,-701.5 639.5,-701.5"/>
<polygon fill="none" stroke="#8ccbf2" points="639.5,-701.5 639.5,-722.5 892.5,-722.5 892.5,-701.5 639.5,-701.5"/>
<text text-anchor="start" x="642.5" y="-709.3" font-family="mono" font-size="14.00" fill="#c83500">security</text>
<text text-anchor="start" x="709.5" y="-709.3" font-family="Times,serif" font-size="14.00"> : array of </text>
<text text-anchor="start" x="767.5" y="-709.3" font-family="mono" font-size="14.00" fill="#c83500">string</text>
<text text-anchor="start" x="817.5" y="-709.3" font-family="Times,serif" font-size="14.00"> </text>
<text text-anchor="start" x="821.5" y="-709.3" font-family="Times,serif" font-style="italic" font-size="14.00">(mandatory)</text>
<polygon fill="#ddeeff" stroke="none" points="639.5,-680.5 639.5,-701.5 892.5,-701.5 892.5,-680.5 639.5,-680.5"/>
<polygon fill="none" stroke="#8ccbf2" points="639.5,-680.5 639.5,-701.5 892.5,-701.5 892.5,-680.5 639.5,-680.5"/>
<text text-anchor="start" x="642.5" y="-688.3" font-family="mono" font-size="14.00" fill="#c83500">support</text>
<text text-anchor="start" x="700.5" y="-688.3" font-family="Times,serif" font-size="14.00"> : </text>
<text text-anchor="start" x="712.5" y="-688.3" font-family="mono" font-size="14.00" fill="#c83500">string</text>
<polygon fill="#ddeeff" stroke="none" points="639.5,-659.5 639.5,-680.5 892.5,-680.5 892.5,-659.5 639.5,-659.5"/>
<polygon fill="none" stroke="#8ccbf2" points="639.5,-659.5 639.5,-680.5 892.5,-680.5 892.5,-659.5 639.5,-659.5"/>
<text text-anchor="start" x="642.5" y="-667.3" font-family="mono" font-size="14.00" fill="#c83500">description</text>
<text text-anchor="start" x="733.5" y="-667.3" font-family="Times,serif" font-size="14.00"> : </text>
<text text-anchor="start" x="745.5" y="-667.3" font-family="mono" font-size="14.00" fill="#c83500">string</text>
<polygon fill="#ddeeff" stroke="none" points="639.5,-638.5 639.5,-659.5 892.5,-659.5 892.5,-638.5 639.5,-638.5"/>
<polygon fill="none" stroke="#8ccbf2" points="639.5,-638.5 639.5,-659.5 892.5,-659.5 892.5,-638.5 639.5,-638.5"/>
<text text-anchor="start" x="642.5" y="-646.3" font-family="mono" font-size="14.00" fill="#c83500">lastModified</text>
<text text-anchor="start" x="742.5" y="-646.3" font-family="Times,serif" font-size="14.00"> : </text>
<text text-anchor="start" x="754.5" y="-646.3" font-family="mono" font-size="14.00" fill="#c83500">string</text>
</g>
<!-- Thing&#45;&gt;MultiLanguage -->
<g id="edge12" class="edge"><title>Thing&#45;&gt;MultiLanguage</title>
<path fill="none" stroke="black" d="M630.918,-709.641C502.492,-684.761 322.523,-640.816 280.5,-584 253.321,-547.254 258.936,-313.071 290.5,-274 309.877,-250.015 330.879,-271.558 357.5,-256 379.856,-242.935 400.077,-221.456 413.874,-204.578"/>
<polygon fill="black" stroke="black" points="416.636,-206.727 420.112,-196.719 411.154,-202.375 416.636,-206.727"/>
<text text-anchor="start" x="263.5" y="-441.8" font-family="mono" font-size="14.00" fill="#c83500">descriptions</text>
<text text-anchor="middle" x="431.112" y="-200.519" font-family="Times,serif" font-size="14.00">0..1</text>
</g>
<!-- Thing&#45;&gt;Link -->
<g id="edge8" class="edge"><title>Thing&#45;&gt;Link</title>
<path fill="none" stroke="black" d="M881.662,-634.981C899.489,-620.015 917.469,-604.921 934.064,-590.989"/>
<polygon fill="black" stroke="black" points="936.684,-593.36 942.093,-584.249 932.184,-587.998 936.684,-593.36"/>
<text text-anchor="start" x="916.5" y="-605.8" font-family="mono" font-size="14.00" fill="#c83500">links</text>
<text text-anchor="middle" x="931.093" y="-588.049" font-family="Times,serif" font-size="14.00">0..*</text>
</g>
<!-- Thing&#45;&gt;Form -->
<g id="edge9" class="edge"><title>Thing&#45;&gt;Form</title>
<path fill="none" stroke="black" d="M630.966,-717.605C533.329,-702.581 400.509,-673.207 295.5,-617 276.364,-606.757 271.205,-602.279 259.5,-584 197.524,-487.213 179.826,-353.209 175.261,-266.437"/>
<polygon fill="black" stroke="black" points="178.752,-266.179 174.778,-256.357 171.76,-266.513 178.752,-266.179"/>
<text text-anchor="start" x="203.5" y="-441.8" font-family="mono" font-size="14.00" fill="#c83500">forms</text>
<text text-anchor="middle" x="163.778" y="-260.157" font-family="Times,serif" font-size="14.00">0..*</text>
</g>
<!-- Property -->
<g id="node6" class="node"><title>Property</title>
<polygon fill="#8ccbf2" stroke="none" points="298.5,-527.5 298.5,-548.5 499.5,-548.5 499.5,-527.5 298.5,-527.5"/>
<polygon fill="none" stroke="#8ccbf2" points="298.5,-527.5 298.5,-548.5 499.5,-548.5 499.5,-527.5 298.5,-527.5"/>
<text text-anchor="start" x="365.5" y="-535.3" font-family="mono" font-weight="bold" font-size="14.00" fill="#c83500">Property</text>
<polygon fill="#ddeeff" stroke="none" points="298.5,-506.5 298.5,-527.5 499.5,-527.5 499.5,-506.5 298.5,-506.5"/>
<polygon fill="none" stroke="#8ccbf2" points="298.5,-506.5 298.5,-527.5 499.5,-527.5 499.5,-506.5 298.5,-506.5"/>
<text text-anchor="start" x="301.5" y="-514.3" font-family="mono" font-size="14.00" fill="#c83500">observable</text>
<text text-anchor="start" x="384.5" y="-514.3" font-family="Times,serif" font-size="14.00"> : </text>
<text text-anchor="start" x="396.5" y="-514.3" font-family="mono" font-size="14.00" fill="#c83500">boolean</text>
<text text-anchor="start" x="454.5" y="-514.3" font-family="Times,serif" font-size="14.00"> = false</text>
</g>
<!-- Thing&#45;&gt;Property -->
<g id="edge11" class="edge"><title>Thing&#45;&gt;Property</title>
<path fill="none" stroke="black" d="M630.927,-657.696C568.274,-622.87 497.411,-583.481 450.578,-557.448"/>
<polygon fill="black" stroke="black" points="452.272,-554.385 441.831,-552.586 448.871,-560.504 452.272,-554.385"/>
<text text-anchor="start" x="549.5" y="-605.8" font-family="mono" font-size="14.00" fill="#c83500">properties</text>
<text text-anchor="middle" x="430.831" y="-556.386" font-family="Times,serif" font-size="14.00">0..1</text>
</g>
<!-- Action -->
<g id="node8" class="node"><title>Action</title>
<polygon fill="#8ccbf2" stroke="none" points="533.5,-537.5 533.5,-558.5 806.5,-558.5 806.5,-537.5 533.5,-537.5"/>
<polygon fill="none" stroke="#8ccbf2" points="533.5,-537.5 533.5,-558.5 806.5,-558.5 806.5,-537.5 533.5,-537.5"/>
<text text-anchor="start" x="645" y="-545.3" font-family="mono" font-weight="bold" font-size="14.00" fill="#c83500">Action</text>
<polygon fill="#ddeeff" stroke="none" points="533.5,-516.5 533.5,-537.5 806.5,-537.5 806.5,-516.5 533.5,-516.5"/>
<polygon fill="none" stroke="#8ccbf2" points="533.5,-516.5 533.5,-537.5 806.5,-537.5 806.5,-516.5 533.5,-516.5"/>
<text text-anchor="start" x="536.5" y="-524.3" font-family="mono" font-size="14.00" fill="#c83500">safe</text>
<text text-anchor="start" x="570.5" y="-524.3" font-family="Times,serif" font-size="14.00"> : </text>
<text text-anchor="start" x="582.5" y="-524.3" font-family="mono" font-size="14.00" fill="#c83500">boolean</text>
<text text-anchor="start" x="640.5" y="-524.3" font-family="Times,serif" font-size="14.00"> = false </text>
<text text-anchor="start" x="686.5" y="-524.3" font-family="Times,serif" font-style="italic" font-size="14.00">(mandatory)</text>
<polygon fill="#ddeeff" stroke="none" points="533.5,-495.5 533.5,-516.5 806.5,-516.5 806.5,-495.5 533.5,-495.5"/>
<polygon fill="none" stroke="#8ccbf2" points="533.5,-495.5 533.5,-516.5 806.5,-516.5 806.5,-495.5 533.5,-495.5"/>
<text text-anchor="start" x="536.5" y="-503.3" font-family="mono" font-size="14.00" fill="#c83500">idempotent</text>
<text text-anchor="start" x="619.5" y="-503.3" font-family="Times,serif" font-size="14.00"> : </text>
<text text-anchor="start" x="631.5" y="-503.3" font-family="mono" font-size="14.00" fill="#c83500">boolean</text>
<text text-anchor="start" x="689.5" y="-503.3" font-family="Times,serif" font-size="14.00"> = false </text>
<text text-anchor="start" x="735.5" y="-503.3" font-family="Times,serif" font-style="italic" font-size="14.00">(mandatory)</text>
</g>
<!-- Thing&#45;&gt;Action -->
<g id="edge13" class="edge"><title>Thing&#45;&gt;Action</title>
<path fill="none" stroke="black" d="M719.609,-634.981C709.264,-612.998 698.788,-590.737 690.108,-572.293"/>
<polygon fill="black" stroke="black" points="693.168,-570.575 685.744,-563.017 686.835,-573.556 693.168,-570.575"/>
<text text-anchor="start" x="709.5" y="-605.8" font-family="mono" font-size="14.00" fill="#c83500">actions</text>
<text text-anchor="middle" x="674.744" y="-566.817" font-family="Times,serif" font-size="14.00">0..1</text>
</g>
<!-- Event -->
<g id="node9" class="node"><title>Event</title>
<polygon fill="#8ccbf2" stroke="none" points="839.5,-516.5 839.5,-537.5 887.5,-537.5 887.5,-516.5 839.5,-516.5"/>
<polygon fill="none" stroke="#8ccbf2" points="839.5,-516.5 839.5,-537.5 887.5,-537.5 887.5,-516.5 839.5,-516.5"/>
<text text-anchor="start" x="842.5" y="-524.3" font-family="mono" font-weight="bold" font-size="14.00" fill="#c83500">Event</text>
</g>
<!-- Thing&#45;&gt;Event -->
<g id="edge6" class="edge"><title>Thing&#45;&gt;Event</title>
<path fill="none" stroke="black" d="M812.347,-634.981C826.537,-605.444 840.967,-575.405 850.867,-554.797"/>
<polygon fill="black" stroke="black" points="854.036,-556.284 855.211,-545.755 847.726,-553.253 854.036,-556.284"/>
<text text-anchor="start" x="826.5" y="-605.8" font-family="mono" font-size="14.00" fill="#c83500">events</text>
<text text-anchor="middle" x="844.211" y="-549.555" font-family="Times,serif" font-size="14.00">0..1</text>
</g>
<!-- Versioning -->
<g id="node10" class="node"><title>Versioning</title>
<polygon fill="#8ccbf2" stroke="none" points="1130.5,-527.5 1130.5,-548.5 1337.5,-548.5 1337.5,-527.5 1130.5,-527.5"/>
<polygon fill="none" stroke="#8ccbf2" points="1130.5,-527.5 1130.5,-548.5 1337.5,-548.5 1337.5,-527.5 1130.5,-527.5"/>
<text text-anchor="start" x="1192.5" y="-535.3" font-family="mono" font-weight="bold" font-size="14.00" fill="#c83500">Versioning</text>
<polygon fill="#ddeeff" stroke="none" points="1130.5,-506.5 1130.5,-527.5 1337.5,-527.5 1337.5,-506.5 1130.5,-506.5"/>
<polygon fill="none" stroke="#8ccbf2" points="1130.5,-506.5 1130.5,-527.5 1337.5,-527.5 1337.5,-506.5 1130.5,-506.5"/>
<text text-anchor="start" x="1133.5" y="-514.3" font-family="mono" font-size="14.00" fill="#c83500">instance</text>
<text text-anchor="start" x="1200.5" y="-514.3" font-family="Times,serif" font-size="14.00"> : </text>
<text text-anchor="start" x="1212.5" y="-514.3" font-family="mono" font-size="14.00" fill="#c83500">string</text>
<text text-anchor="start" x="1262.5" y="-514.3" font-family="Times,serif" font-size="14.00"> </text>
<text text-anchor="start" x="1266.5" y="-514.3" font-family="Times,serif" font-style="italic" font-size="14.00">(mandatory)</text>
</g>
<!-- Thing&#45;&gt;Versioning -->
<g id="edge10" class="edge"><title>Thing&#45;&gt;Versioning</title>
<path fill="none" stroke="black" d="M900.147,-675.827C964.576,-648.467 1042.71,-614.934 1112.5,-584 1132.11,-575.308 1153.41,-565.624 1172.59,-556.809"/>
<polygon fill="black" stroke="black" points="1174.2,-559.921 1181.82,-552.56 1171.27,-553.563 1174.2,-559.921"/>
<text text-anchor="start" x="1066.5" y="-605.8" font-family="mono" font-size="14.00" fill="#c83500">version</text>
<text text-anchor="middle" x="1170.82" y="-556.36" font-family="Times,serif" font-size="14.00">0..1</text>
</g>
<!-- SecurityScheme -->
<g id="node12" class="node"><title>SecurityScheme</title>
<polygon fill="#f2f2f2" stroke="none" points="1371.5,-516.5 1371.5,-537.5 1493.5,-537.5 1493.5,-516.5 1371.5,-516.5"/>
<polygon fill="none" stroke="#8c8c8c" points="1371.5,-516.5 1371.5,-537.5 1493.5,-537.5 1493.5,-516.5 1371.5,-516.5"/>
<text text-anchor="start" x="1374.5" y="-524.3" font-family="mono" font-weight="bold" font-size="14.00">SecurityScheme</text>
</g>
<!-- Thing&#45;&gt;SecurityScheme -->
<g id="edge7" class="edge"><title>Thing&#45;&gt;SecurityScheme</title>
<path fill="none" stroke="black" d="M900.066,-712.901C1022.37,-691.785 1205.75,-651.743 1353.5,-584 1371.71,-575.649 1390.14,-562.996 1404.61,-551.879"/>
<polygon fill="black" stroke="black" points="1406.96,-554.491 1412.65,-545.555 1402.62,-548.991 1406.96,-554.491"/>
<text text-anchor="start" x="1308.5" y="-605.8" font-family="mono" font-size="14.00" fill="#c83500">securityDefinitions</text>
<text text-anchor="middle" x="1401.65" y="-549.355" font-family="Times,serif" font-size="14.00">0..1</text>
</g>
<!-- Property&#45;&gt;InteractionPattern -->
<g id="edge21" class="edge"><title>Property&#45;&gt;InteractionPattern</title>
<path fill="none" stroke="black" d="M403.59,-502.247C407.597,-483.156 413.378,-455.613 418.718,-430.165"/>
<polygon fill="white" stroke="black" points="422.188,-430.673 420.817,-420.167 415.337,-429.235 422.188,-430.673"/>
</g>
<!-- Action&#45;&gt;InteractionPattern -->
<g id="edge20" class="edge"><title>Action&#45;&gt;InteractionPattern</title>
<path fill="none" stroke="black" d="M618.948,-491.946C590.75,-472.671 554.799,-448.097 522.004,-425.68"/>
<polygon fill="white" stroke="black" points="523.972,-422.786 513.741,-420.032 520.022,-428.565 523.972,-422.786"/>
</g>
<!-- Action&#45;&gt;DataSchema -->
<g id="edge14" class="edge"><title>Action&#45;&gt;DataSchema</title>
<path fill="none" stroke="black" d="M665.077,-491.896C660.835,-447.316 658.311,-368.276 683.5,-307 700.893,-264.688 738.258,-226.633 764.825,-203.337"/>
<polygon fill="black" stroke="black" points="767.377,-205.76 772.689,-196.593 762.82,-200.446 767.377,-205.76"/>
<text text-anchor="start" x="683.5" y="-359.8" font-family="mono" font-size="14.00" fill="#c83500">output</text>
<text text-anchor="middle" x="761.689" y="-200.393" font-family="Times,serif" font-size="14.00">0..1</text>
</g>
<!-- Action&#45;&gt;DataSchema -->
<g id="edge15" class="edge"><title>Action&#45;&gt;DataSchema</title>
<path fill="none" stroke="black" d="M693.849,-491.89C707.131,-471.697 722.964,-445.289 733.5,-420 764.403,-345.825 782.659,-252.048 790.29,-206.623"/>
<polygon fill="black" stroke="black" points="793.759,-207.1 791.922,-196.665 786.851,-205.968 793.759,-207.1"/>
<text text-anchor="start" x="769.5" y="-359.8" font-family="mono" font-size="14.00" fill="#c83500">input</text>
<text text-anchor="middle" x="802.922" y="-200.465" font-family="Times,serif" font-size="14.00">0..1</text>
</g>
<!-- Event&#45;&gt;InteractionPattern -->
<g id="edge19" class="edge"><title>Event&#45;&gt;InteractionPattern</title>
<path fill="none" stroke="black" d="M854.848,-509.264C847.77,-496.864 836.633,-480.681 822.5,-471 810.573,-462.831 652.424,-421.055 541.228,-392.32"/>
<polygon fill="white" stroke="black" points="541.851,-388.866 531.294,-389.755 540.101,-395.644 541.851,-388.866"/>
</g>
<!-- Event&#45;&gt;DataSchema -->
<g id="edge16" class="edge"><title>Event&#45;&gt;DataSchema</title>
<path fill="none" stroke="black" d="M860.078,-509.292C848.927,-453.215 813.573,-275.419 799.937,-206.844"/>
<polygon fill="black" stroke="black" points="803.326,-205.937 797.942,-196.812 796.46,-207.302 803.326,-205.937"/>
<text text-anchor="start" x="841.5" y="-359.8" font-family="mono" font-size="14.00" fill="#c83500">data</text>
<text text-anchor="middle" x="786.942" y="-200.612" font-family="Times,serif" font-size="14.00">0..1</text>
</g>
<!-- Event&#45;&gt;DataSchema -->
<g id="edge17" class="edge"><title>Event&#45;&gt;DataSchema</title>
<path fill="none" stroke="black" d="M868.885,-509.24C879.753,-471.579 901.478,-379.59 879.5,-307 867.448,-267.196 838.419,-228.46 817.641,-204.331"/>
<polygon fill="black" stroke="black" points="820.182,-201.921 810.947,-196.727 814.928,-206.546 820.182,-201.921"/>
<text text-anchor="start" x="889.5" y="-359.8" font-family="mono" font-size="14.00" fill="#c83500">cancellation</text>
<text text-anchor="middle" x="821.947" y="-200.527" font-family="Times,serif" font-size="14.00">0..1</text>
</g>
<!-- Event&#45;&gt;DataSchema -->
<g id="edge18" class="edge"><title>Event&#45;&gt;DataSchema</title>
<path fill="none" stroke="black" d="M873.571,-509.257C881.045,-497.483 892.063,-482.073 904.5,-471 938.55,-440.684 970.641,-459.445 993.5,-420 1018.68,-376.547 1017.6,-351.062 993.5,-307 964.58,-254.125 903.337,-219.952 856.381,-200.427"/>
<polygon fill="black" stroke="black" points="857.478,-197.095 846.895,-196.599 854.859,-203.587 857.478,-197.095"/>
<text text-anchor="start" x="1012.5" y="-359.8" font-family="mono" font-size="14.00" fill="#c83500">subscription</text>
<text text-anchor="middle" x="857.895" y="-200.399" font-family="Times,serif" font-size="14.00">0..1</text>
</g>
</g>
</svg>
