<?xml version="1.0" encoding="UTF-8" standalone="no"?>
<!DOCTYPE svg PUBLIC "-//W3C//DTD SVG 1.1//EN"
 "http://www.w3.org/Graphics/SVG/1.1/DTD/svg11.dtd">
<!-- Generated by graphviz version 2.38.0 (20140413.2041)
 -->
<!-- Title: %3 Pages: 1 -->
<svg width="1238pt" height="805pt"
 viewBox="0.00 0.00 1237.50 805.00" xmlns="http://www.w3.org/2000/svg" xmlns:xlink="http://www.w3.org/1999/xlink">
<g id="graph0" class="graph" transform="scale(1 1) rotate(0) translate(4 801)">
<title>%3</title>
<polygon fill="white" stroke="none" points="-4,4 -4,-801 1233.5,-801 1233.5,4 -4,4"/>
<!-- InteractionPattern -->
<g id="node1" class="node"><title>InteractionPattern</title>
<polygon fill="#8ccbf2" stroke="none" points="129.5,-394.5 129.5,-415.5 310.5,-415.5 310.5,-394.5 129.5,-394.5"/>
<polygon fill="none" stroke="#8ccbf2" points="129.5,-394.5 129.5,-415.5 310.5,-415.5 310.5,-394.5 129.5,-394.5"/>
<text text-anchor="start" x="145.5" y="-402.3" font-family="mono" font-weight="bold" font-size="14.00" fill="#c83500">InteractionPattern</text>
<polygon fill="#ddeeff" stroke="none" points="129.5,-373.5 129.5,-394.5 310.5,-394.5 310.5,-373.5 129.5,-373.5"/>
<polygon fill="none" stroke="#8ccbf2" points="129.5,-373.5 129.5,-394.5 310.5,-394.5 310.5,-373.5 129.5,-373.5"/>
<text text-anchor="start" x="132.5" y="-381.3" font-family="mono" font-size="14.00" fill="#c83500">title</text>
<text text-anchor="start" x="174.5" y="-381.3" font-family="Times,serif" font-size="14.00"> : </text>
<text text-anchor="start" x="186.5" y="-381.3" font-family="mono" font-size="14.00" fill="#c83500">string</text>
<polygon fill="#ddeeff" stroke="none" points="129.5,-352.5 129.5,-373.5 310.5,-373.5 310.5,-352.5 129.5,-352.5"/>
<polygon fill="none" stroke="#8ccbf2" points="129.5,-352.5 129.5,-373.5 310.5,-373.5 310.5,-352.5 129.5,-352.5"/>
<text text-anchor="start" x="132.5" y="-360.3" font-family="mono" font-size="14.00" fill="#c83500">description</text>
<text text-anchor="start" x="223.5" y="-360.3" font-family="Times,serif" font-size="14.00"> : </text>
<text text-anchor="start" x="235.5" y="-360.3" font-family="mono" font-size="14.00" fill="#c83500">string</text>
<polygon fill="#ddeeff" stroke="none" points="129.5,-331.5 129.5,-352.5 310.5,-352.5 310.5,-331.5 129.5,-331.5"/>
<polygon fill="none" stroke="#8ccbf2" points="129.5,-331.5 129.5,-352.5 310.5,-352.5 310.5,-331.5 129.5,-331.5"/>
<text text-anchor="start" x="132.5" y="-339.3" font-family="mono" font-size="14.00" fill="#c83500">security</text>
<text text-anchor="start" x="199.5" y="-339.3" font-family="Times,serif" font-size="14.00"> : array of </text>
<text text-anchor="start" x="257.5" y="-339.3" font-family="mono" font-size="14.00" fill="#c83500">string</text>
<polygon fill="#ddeeff" stroke="none" points="129.5,-310.5 129.5,-331.5 310.5,-331.5 310.5,-310.5 129.5,-310.5"/>
<polygon fill="none" stroke="#8ccbf2" points="129.5,-310.5 129.5,-331.5 310.5,-331.5 310.5,-310.5 129.5,-310.5"/>
<text text-anchor="start" x="132.5" y="-318.3" font-family="mono" font-size="14.00" fill="#c83500">scopes</text>
<text text-anchor="start" x="182.5" y="-318.3" font-family="Times,serif" font-size="14.00"> : array of </text>
<text text-anchor="start" x="240.5" y="-318.3" font-family="mono" font-size="14.00" fill="#c83500">string</text>
</g>
<!-- Form -->
<g id="node3" class="node"><title>Form</title>
<polygon fill="#8ccbf2" stroke="none" points="8.5,-230.5 8.5,-251.5 341.5,-251.5 341.5,-230.5 8.5,-230.5"/>
<polygon fill="none" stroke="#8ccbf2" points="8.5,-230.5 8.5,-251.5 341.5,-251.5 341.5,-230.5 8.5,-230.5"/>
<text text-anchor="start" x="158" y="-238.3" font-family="mono" font-weight="bold" font-size="14.00" fill="#c83500">Form</text>
<polygon fill="#ddeeff" stroke="none" points="8.5,-209.5 8.5,-230.5 341.5,-230.5 341.5,-209.5 8.5,-209.5"/>
<polygon fill="none" stroke="#8ccbf2" points="8.5,-209.5 8.5,-230.5 341.5,-230.5 341.5,-209.5 8.5,-209.5"/>
<text text-anchor="start" x="11.5" y="-217.3" font-family="mono" font-size="14.00" fill="#c83500">scopes</text>
<text text-anchor="start" x="61.5" y="-217.3" font-family="Times,serif" font-size="14.00"> : array of </text>
<text text-anchor="start" x="119.5" y="-217.3" font-family="mono" font-size="14.00" fill="#c83500">string</text>
<polygon fill="#ddeeff" stroke="none" points="8.5,-188.5 8.5,-209.5 341.5,-209.5 341.5,-188.5 8.5,-188.5"/>
<polygon fill="none" stroke="#8ccbf2" points="8.5,-188.5 8.5,-209.5 341.5,-209.5 341.5,-188.5 8.5,-188.5"/>
<text text-anchor="start" x="11.5" y="-196.3" font-family="mono" font-size="14.00" fill="#c83500">subprotocol</text>
<text text-anchor="start" x="102.5" y="-196.3" font-family="Times,serif" font-size="14.00"> : </text>
<text text-anchor="start" x="114.5" y="-196.3" font-family="mono" font-size="14.00" fill="#c83500">string</text>
<polygon fill="#ddeeff" stroke="none" points="8.5,-167.5 8.5,-188.5 341.5,-188.5 341.5,-167.5 8.5,-167.5"/>
<polygon fill="none" stroke="#8ccbf2" points="8.5,-167.5 8.5,-188.5 341.5,-188.5 341.5,-167.5 8.5,-167.5"/>
<text text-anchor="start" x="11.5" y="-175.3" font-family="mono" font-size="14.00" fill="#c83500">security</text>
<text text-anchor="start" x="78.5" y="-175.3" font-family="Times,serif" font-size="14.00"> : array of </text>
<text text-anchor="start" x="136.5" y="-175.3" font-family="mono" font-size="14.00" fill="#c83500">string</text>
<polygon fill="#ddeeff" stroke="none" points="8.5,-146.5 8.5,-167.5 341.5,-167.5 341.5,-146.5 8.5,-146.5"/>
<polygon fill="none" stroke="#8ccbf2" points="8.5,-146.5 8.5,-167.5 341.5,-167.5 341.5,-146.5 8.5,-146.5"/>
<text text-anchor="start" x="11.5" y="-154.3" font-family="mono" font-size="14.00" fill="#c83500">href</text>
<text text-anchor="start" x="45.5" y="-154.3" font-family="Times,serif" font-size="14.00"> : </text>
<text text-anchor="start" x="57.5" y="-154.3" font-family="mono" font-size="14.00" fill="#c83500">anyURI</text>
<text text-anchor="start" x="107.5" y="-154.3" font-family="Times,serif" font-size="14.00"> </text>
<text text-anchor="start" x="111.5" y="-154.3" font-family="Times,serif" font-style="italic" font-size="14.00">(mandatory)</text>
<polygon fill="#ddeeff" stroke="none" points="8.5,-125.5 8.5,-146.5 341.5,-146.5 341.5,-125.5 8.5,-125.5"/>
<polygon fill="none" stroke="#8ccbf2" points="8.5,-125.5 8.5,-146.5 341.5,-146.5 341.5,-125.5 8.5,-125.5"/>
<text text-anchor="start" x="11.5" y="-133.3" font-family="mono" font-size="14.00" fill="#c83500">contentType</text>
<text text-anchor="start" x="102.5" y="-133.3" font-family="Times,serif" font-size="14.00"> : </text>
<text text-anchor="start" x="114.5" y="-133.3" font-family="mono" font-size="14.00" fill="#c83500">string</text>
<text text-anchor="start" x="164.5" y="-133.3" font-family="Times,serif" font-size="14.00"> = application/json </text>
<text text-anchor="start" x="270.5" y="-133.3" font-family="Times,serif" font-style="italic" font-size="14.00">(mandatory)</text>
<polygon fill="#ddeeff" stroke="none" points="8.5,-104.5 8.5,-125.5 341.5,-125.5 341.5,-104.5 8.5,-104.5"/>
<polygon fill="none" stroke="#8ccbf2" points="8.5,-104.5 8.5,-125.5 341.5,-125.5 341.5,-104.5 8.5,-104.5"/>
<text text-anchor="start" x="11.5" y="-112.3" font-family="mono" font-size="14.00" fill="#c83500">op</text>
<text text-anchor="start" x="28.5" y="-112.3" font-family="Times,serif" font-size="14.00"> : </text>
<text text-anchor="start" x="40.5" y="-112.3" font-family="mono" font-size="14.00" fill="#c83500">string</text>
</g>
<!-- InteractionPattern&#45;&gt;Form -->
<g id="edge1" class="edge"><title>InteractionPattern&#45;&gt;Form</title>
<path fill="none" stroke="black" d="M182.211,-306.891C179.513,-301.031 177.192,-295.013 175.5,-289 173.459,-281.747 172.026,-274.115 171.062,-266.396"/>
<polygon fill="black" stroke="black" points="174.523,-265.827 170.053,-256.222 167.557,-266.519 174.523,-265.827"/>
<text text-anchor="start" x="175.5" y="-277.8" font-family="mono" font-size="14.00" fill="#c83500">forms</text>
<text text-anchor="middle" x="159.053" y="-260.022" font-family="Times,serif" font-size="14.00">1..*</text>
</g>
<!-- DataSchema -->
<g id="node10" class="node"><title>DataSchema</title>
<polygon fill="#f2f2f2" stroke="none" points="435.5,-167.5 435.5,-188.5 524.5,-188.5 524.5,-167.5 435.5,-167.5"/>
<polygon fill="none" stroke="#8c8c8c" points="435.5,-167.5 435.5,-188.5 524.5,-188.5 524.5,-167.5 435.5,-167.5"/>
<text text-anchor="start" x="438.5" y="-175.3" font-family="mono" font-weight="bold" font-size="14.00">DataSchema</text>
</g>
<!-- InteractionPattern&#45;&gt;DataSchema -->
<g id="edge2" class="edge"><title>InteractionPattern&#45;&gt;DataSchema</title>
<path fill="none" stroke="black" d="M222.464,-306.674C225.683,-294.422 231.216,-282.567 240.5,-274 279.166,-238.322 308.194,-274.354 357.5,-256 391.513,-243.339 426.182,-220.437 449.826,-202.98"/>
<polygon fill="black" stroke="black" points="452.125,-205.63 458.016,-196.824 447.919,-200.034 452.125,-205.63"/>
<text text-anchor="start" x="240.5" y="-277.8" font-family="mono" font-size="14.00" fill="#c83500">uriVariables</text>
<text text-anchor="middle" x="447.016" y="-200.624" font-family="Times,serif" font-size="14.00">0..1</text>
</g>
<!-- Link -->
<g id="node2" class="node"><title>Link</title>
<polygon fill="#8ccbf2" stroke="none" points="649.5,-544.5 649.5,-565.5 823.5,-565.5 823.5,-544.5 649.5,-544.5"/>
<polygon fill="none" stroke="#8ccbf2" points="649.5,-544.5 649.5,-565.5 823.5,-565.5 823.5,-544.5 649.5,-544.5"/>
<text text-anchor="start" x="719.5" y="-552.3" font-family="mono" font-weight="bold" font-size="14.00" fill="#c83500">Link</text>
<polygon fill="#ddeeff" stroke="none" points="649.5,-523.5 649.5,-544.5 823.5,-544.5 823.5,-523.5 649.5,-523.5"/>
<polygon fill="none" stroke="#8ccbf2" points="649.5,-523.5 649.5,-544.5 823.5,-544.5 823.5,-523.5 649.5,-523.5"/>
<text text-anchor="start" x="652.5" y="-531.3" font-family="mono" font-size="14.00" fill="#c83500">rel</text>
<text text-anchor="start" x="677.5" y="-531.3" font-family="Times,serif" font-size="14.00"> : </text>
<text text-anchor="start" x="689.5" y="-531.3" font-family="mono" font-size="14.00" fill="#c83500">string</text>
<polygon fill="#ddeeff" stroke="none" points="649.5,-502.5 649.5,-523.5 823.5,-523.5 823.5,-502.5 649.5,-502.5"/>
<polygon fill="none" stroke="#8ccbf2" points="649.5,-502.5 649.5,-523.5 823.5,-523.5 823.5,-502.5 649.5,-502.5"/>
<text text-anchor="start" x="652.5" y="-510.3" font-family="mono" font-size="14.00" fill="#c83500">anchor</text>
<text text-anchor="start" x="702.5" y="-510.3" font-family="Times,serif" font-size="14.00"> : </text>
<text text-anchor="start" x="714.5" y="-510.3" font-family="mono" font-size="14.00" fill="#c83500">anyURI</text>
<polygon fill="#ddeeff" stroke="none" points="649.5,-481.5 649.5,-502.5 823.5,-502.5 823.5,-481.5 649.5,-481.5"/>
<polygon fill="none" stroke="#8ccbf2" points="649.5,-481.5 649.5,-502.5 823.5,-502.5 823.5,-481.5 649.5,-481.5"/>
<text text-anchor="start" x="652.5" y="-489.3" font-family="mono" font-size="14.00" fill="#c83500">type</text>
<text text-anchor="start" x="686.5" y="-489.3" font-family="Times,serif" font-size="14.00"> : </text>
<text text-anchor="start" x="698.5" y="-489.3" font-family="mono" font-size="14.00" fill="#c83500">string</text>
<polygon fill="#ddeeff" stroke="none" points="649.5,-460.5 649.5,-481.5 823.5,-481.5 823.5,-460.5 649.5,-460.5"/>
<polygon fill="none" stroke="#8ccbf2" points="649.5,-460.5 649.5,-481.5 823.5,-481.5 823.5,-460.5 649.5,-460.5"/>
<text text-anchor="start" x="652.5" y="-468.3" font-family="mono" font-size="14.00" fill="#c83500">href</text>
<text text-anchor="start" x="686.5" y="-468.3" font-family="Times,serif" font-size="14.00"> : </text>
<text text-anchor="start" x="698.5" y="-468.3" font-family="mono" font-size="14.00" fill="#c83500">anyURI</text>
<text text-anchor="start" x="748.5" y="-468.3" font-family="Times,serif" font-size="14.00"> </text>
<text text-anchor="start" x="752.5" y="-468.3" font-family="Times,serif" font-style="italic" font-size="14.00">(mandatory)</text>
</g>
<!-- Response -->
<g id="node4" class="node"><title>Response</title>
<polygon fill="#8ccbf2" stroke="none" points="95.5,-25 95.5,-46 254.5,-46 254.5,-25 95.5,-25"/>
<polygon fill="none" stroke="#8ccbf2" points="95.5,-25 95.5,-46 254.5,-46 254.5,-25 95.5,-25"/>
<text text-anchor="start" x="141.5" y="-32.8" font-family="mono" font-weight="bold" font-size="14.00" fill="#c83500">Response</text>
<polygon fill="#ddeeff" stroke="none" points="95.5,-4 95.5,-25 254.5,-25 254.5,-4 95.5,-4"/>
<polygon fill="none" stroke="#8ccbf2" points="95.5,-4 95.5,-25 254.5,-25 254.5,-4 95.5,-4"/>
<text text-anchor="start" x="98.5" y="-11.8" font-family="mono" font-size="14.00" fill="#c83500">contentType</text>
<text text-anchor="start" x="189.5" y="-11.8" font-family="Times,serif" font-size="14.00"> : </text>
<text text-anchor="start" x="201.5" y="-11.8" font-family="mono" font-size="14.00" fill="#c83500">string</text>
</g>
<!-- Form&#45;&gt;Response -->
<g id="edge3" class="edge"><title>Form&#45;&gt;Response</title>
<path fill="none" stroke="black" d="M174.5,-100.862C174.5,-86.5577 174.5,-72.2953 174.5,-60.116"/>
<polygon fill="black" stroke="black" points="178,-60.0004 174.5,-50.0004 171,-60.0004 178,-60.0004"/>
<text text-anchor="start" x="174.5" y="-71.8" font-family="mono" font-size="14.00" fill="#c83500">response</text>
<text text-anchor="middle" x="163.5" y="-53.8004" font-family="Times,serif" font-size="14.00">0..1</text>
</g>
<!-- Thing -->
<g id="node5" class="node"><title>Thing</title>
<polygon fill="#8ccbf2" stroke="none" points="573.5,-772 573.5,-793 826.5,-793 826.5,-772 573.5,-772"/>
<polygon fill="none" stroke="#8ccbf2" points="573.5,-772 573.5,-793 826.5,-793 826.5,-772 573.5,-772"/>
<text text-anchor="start" x="679" y="-779.8" font-family="mono" font-weight="bold" font-size="14.00" fill="#c83500">Thing</text>
<polygon fill="#ddeeff" stroke="none" points="573.5,-751 573.5,-772 826.5,-772 826.5,-751 573.5,-751"/>
<polygon fill="none" stroke="#8ccbf2" points="573.5,-751 573.5,-772 826.5,-772 826.5,-751 573.5,-751"/>
<text text-anchor="start" x="576.5" y="-758.8" font-family="mono" font-size="14.00" fill="#c83500">created</text>
<text text-anchor="start" x="634.5" y="-758.8" font-family="Times,serif" font-size="14.00"> : </text>
<text text-anchor="start" x="646.5" y="-758.8" font-family="mono" font-size="14.00" fill="#c83500">string</text>
<polygon fill="#ddeeff" stroke="none" points="573.5,-730 573.5,-751 826.5,-751 826.5,-730 573.5,-730"/>
<polygon fill="none" stroke="#8ccbf2" points="573.5,-730 573.5,-751 826.5,-751 826.5,-730 573.5,-730"/>
<text text-anchor="start" x="576.5" y="-737.8" font-family="mono" font-size="14.00" fill="#c83500">base</text>
<text text-anchor="start" x="610.5" y="-737.8" font-family="Times,serif" font-size="14.00"> : </text>
<text text-anchor="start" x="622.5" y="-737.8" font-family="mono" font-size="14.00" fill="#c83500">anyURI</text>
<polygon fill="#ddeeff" stroke="none" points="573.5,-709 573.5,-730 826.5,-730 826.5,-709 573.5,-709"/>
<polygon fill="none" stroke="#8ccbf2" points="573.5,-709 573.5,-730 826.5,-730 826.5,-709 573.5,-709"/>
<text text-anchor="start" x="576.5" y="-716.8" font-family="mono" font-size="14.00" fill="#c83500">name</text>
<text text-anchor="start" x="610.5" y="-716.8" font-family="Times,serif" font-size="14.00"> : </text>
<text text-anchor="start" x="622.5" y="-716.8" font-family="mono" font-size="14.00" fill="#c83500">string</text>
<text text-anchor="start" x="672.5" y="-716.8" font-family="Times,serif" font-size="14.00"> </text>
<text text-anchor="start" x="676.5" y="-716.8" font-family="Times,serif" font-style="italic" font-size="14.00">(mandatory)</text>
<polygon fill="#ddeeff" stroke="none" points="573.5,-688 573.5,-709 826.5,-709 826.5,-688 573.5,-688"/>
<polygon fill="none" stroke="#8ccbf2" points="573.5,-688 573.5,-709 826.5,-709 826.5,-688 573.5,-688"/>
<text text-anchor="start" x="576.5" y="-695.8" font-family="mono" font-size="14.00" fill="#c83500">description</text>
<text text-anchor="start" x="667.5" y="-695.8" font-family="Times,serif" font-size="14.00"> : </text>
<text text-anchor="start" x="679.5" y="-695.8" font-family="mono" font-size="14.00" fill="#c83500">string</text>
<polygon fill="#ddeeff" stroke="none" points="573.5,-667 573.5,-688 826.5,-688 826.5,-667 573.5,-667"/>
<polygon fill="none" stroke="#8ccbf2" points="573.5,-667 573.5,-688 826.5,-688 826.5,-667 573.5,-667"/>
<text text-anchor="start" x="576.5" y="-674.8" font-family="mono" font-size="14.00" fill="#c83500">lastModified</text>
<text text-anchor="start" x="676.5" y="-674.8" font-family="Times,serif" font-size="14.00"> : </text>
<text text-anchor="start" x="688.5" y="-674.8" font-family="mono" font-size="14.00" fill="#c83500">string</text>
<polygon fill="#ddeeff" stroke="none" points="573.5,-646 573.5,-667 826.5,-667 826.5,-646 573.5,-646"/>
<polygon fill="none" stroke="#8ccbf2" points="573.5,-646 573.5,-667 826.5,-667 826.5,-646 573.5,-646"/>
<text text-anchor="start" x="576.5" y="-653.8" font-family="mono" font-size="14.00" fill="#c83500">security</text>
<text text-anchor="start" x="643.5" y="-653.8" font-family="Times,serif" font-size="14.00"> : array of </text>
<text text-anchor="start" x="701.5" y="-653.8" font-family="mono" font-size="14.00" fill="#c83500">string</text>
<text text-anchor="start" x="751.5" y="-653.8" font-family="Times,serif" font-size="14.00"> </text>
<text text-anchor="start" x="755.5" y="-653.8" font-family="Times,serif" font-style="italic" font-size="14.00">(mandatory)</text>
<polygon fill="#ddeeff" stroke="none" points="573.5,-625 573.5,-646 826.5,-646 826.5,-625 573.5,-625"/>
<polygon fill="none" stroke="#8ccbf2" points="573.5,-625 573.5,-646 826.5,-646 826.5,-625 573.5,-625"/>
<text text-anchor="start" x="576.5" y="-632.8" font-family="mono" font-size="14.00" fill="#c83500">support</text>
<text text-anchor="start" x="634.5" y="-632.8" font-family="Times,serif" font-size="14.00"> : </text>
<text text-anchor="start" x="646.5" y="-632.8" font-family="mono" font-size="14.00" fill="#c83500">anyURI</text>
</g>
<!-- Thing&#45;&gt;Link -->
<g id="edge5" class="edge"><title>Thing&#45;&gt;Link</title>
<path fill="none" stroke="black" d="M716.16,-620.873C718.789,-607.124 721.468,-593.113 723.982,-579.966"/>
<polygon fill="black" stroke="black" points="727.428,-580.579 725.869,-570.099 720.553,-579.264 727.428,-580.579"/>
<text text-anchor="start" x="722.5" y="-591.8" font-family="mono" font-size="14.00" fill="#c83500">links</text>
<text text-anchor="middle" x="714.869" y="-573.899" font-family="Times,serif" font-size="14.00">0..*</text>
</g>
<!-- Property -->
<g id="node6" class="node"><title>Property</title>
<polygon fill="#8ccbf2" stroke="none" points="26.5,-513.5 26.5,-534.5 227.5,-534.5 227.5,-513.5 26.5,-513.5"/>
<polygon fill="none" stroke="#8ccbf2" points="26.5,-513.5 26.5,-534.5 227.5,-534.5 227.5,-513.5 26.5,-513.5"/>
<text text-anchor="start" x="93.5" y="-521.3" font-family="mono" font-weight="bold" font-size="14.00" fill="#c83500">Property</text>
<polygon fill="#ddeeff" stroke="none" points="26.5,-492.5 26.5,-513.5 227.5,-513.5 227.5,-492.5 26.5,-492.5"/>
<polygon fill="none" stroke="#8ccbf2" points="26.5,-492.5 26.5,-513.5 227.5,-513.5 227.5,-492.5 26.5,-492.5"/>
<text text-anchor="start" x="29.5" y="-500.3" font-family="mono" font-size="14.00" fill="#c83500">observable</text>
<text text-anchor="start" x="112.5" y="-500.3" font-family="Times,serif" font-size="14.00"> : </text>
<text text-anchor="start" x="124.5" y="-500.3" font-family="mono" font-size="14.00" fill="#c83500">boolean</text>
<text text-anchor="start" x="182.5" y="-500.3" font-family="Times,serif" font-size="14.00"> = false</text>
</g>
<!-- Thing&#45;&gt;Property -->
<g id="edge9" class="edge"><title>Thing&#45;&gt;Property</title>
<path fill="none" stroke="black" d="M564.787,-672.926C473.05,-647.661 349.503,-610.919 243.5,-570 223.133,-562.138 201.382,-552.254 182.228,-543.014"/>
<polygon fill="black" stroke="black" points="183.574,-539.777 173.051,-538.542 180.507,-546.069 183.574,-539.777"/>
<text text-anchor="start" x="329.5" y="-591.8" font-family="mono" font-size="14.00" fill="#c83500">properties</text>
<text text-anchor="middle" x="162.051" y="-542.342" font-family="Times,serif" font-size="14.00">0..1</text>
</g>
<!-- Action -->
<g id="node7" class="node"><title>Action</title>
<polygon fill="#8ccbf2" stroke="none" points="261.5,-523.5 261.5,-544.5 534.5,-544.5 534.5,-523.5 261.5,-523.5"/>
<polygon fill="none" stroke="#8ccbf2" points="261.5,-523.5 261.5,-544.5 534.5,-544.5 534.5,-523.5 261.5,-523.5"/>
<text text-anchor="start" x="373" y="-531.3" font-family="mono" font-weight="bold" font-size="14.00" fill="#c83500">Action</text>
<polygon fill="#ddeeff" stroke="none" points="261.5,-502.5 261.5,-523.5 534.5,-523.5 534.5,-502.5 261.5,-502.5"/>
<polygon fill="none" stroke="#8ccbf2" points="261.5,-502.5 261.5,-523.5 534.5,-523.5 534.5,-502.5 261.5,-502.5"/>
<text text-anchor="start" x="264.5" y="-510.3" font-family="mono" font-size="14.00" fill="#c83500">idempotent</text>
<text text-anchor="start" x="347.5" y="-510.3" font-family="Times,serif" font-size="14.00"> : </text>
<text text-anchor="start" x="359.5" y="-510.3" font-family="mono" font-size="14.00" fill="#c83500">boolean</text>
<text text-anchor="start" x="417.5" y="-510.3" font-family="Times,serif" font-size="14.00"> = false </text>
<text text-anchor="start" x="463.5" y="-510.3" font-family="Times,serif" font-style="italic" font-size="14.00">(mandatory)</text>
<polygon fill="#ddeeff" stroke="none" points="261.5,-481.5 261.5,-502.5 534.5,-502.5 534.5,-481.5 261.5,-481.5"/>
<polygon fill="none" stroke="#8ccbf2" points="261.5,-481.5 261.5,-502.5 534.5,-502.5 534.5,-481.5 261.5,-481.5"/>
<text text-anchor="start" x="264.5" y="-489.3" font-family="mono" font-size="14.00" fill="#c83500">safe</text>
<text text-anchor="start" x="298.5" y="-489.3" font-family="Times,serif" font-size="14.00"> : </text>
<text text-anchor="start" x="310.5" y="-489.3" font-family="mono" font-size="14.00" fill="#c83500">boolean</text>
<text text-anchor="start" x="368.5" y="-489.3" font-family="Times,serif" font-size="14.00"> = false </text>
<text text-anchor="start" x="414.5" y="-489.3" font-family="Times,serif" font-style="italic" font-size="14.00">(mandatory)</text>
</g>
<!-- Thing&#45;&gt;Action -->
<g id="edge8" class="edge"><title>Thing&#45;&gt;Action</title>
<path fill="none" stroke="black" d="M564.84,-621.719C528.477,-598.421 490.836,-574.303 460.483,-554.855"/>
<polygon fill="black" stroke="black" points="462.024,-551.686 451.716,-549.238 458.248,-557.58 462.024,-551.686"/>
<text text-anchor="start" x="530.5" y="-591.8" font-family="mono" font-size="14.00" fill="#c83500">actions</text>
<text text-anchor="middle" x="440.716" y="-553.038" font-family="Times,serif" font-size="14.00">0..1</text>
</g>
<!-- Event -->
<g id="node8" class="node"><title>Event</title>
<polygon fill="#8ccbf2" stroke="none" points="567.5,-502.5 567.5,-523.5 615.5,-523.5 615.5,-502.5 567.5,-502.5"/>
<polygon fill="none" stroke="#8ccbf2" points="567.5,-502.5 567.5,-523.5 615.5,-523.5 615.5,-502.5 567.5,-502.5"/>
<text text-anchor="start" x="570.5" y="-510.3" font-family="mono" font-weight="bold" font-size="14.00" fill="#c83500">Event</text>
</g>
<!-- Thing&#45;&gt;Event -->
<g id="edge6" class="edge"><title>Thing&#45;&gt;Event</title>
<path fill="none" stroke="black" d="M650.871,-620.873C634.557,-591.645 617.583,-561.233 605.984,-540.451"/>
<polygon fill="black" stroke="black" points="608.985,-538.645 601.055,-531.619 602.872,-542.057 608.985,-538.645"/>
<text text-anchor="start" x="639.5" y="-591.8" font-family="mono" font-size="14.00" fill="#c83500">events</text>
<text text-anchor="middle" x="590.055" y="-535.419" font-family="Times,serif" font-size="14.00">0..1</text>
</g>
<!-- Versioning -->
<g id="node9" class="node"><title>Versioning</title>
<polygon fill="#8ccbf2" stroke="none" points="858.5,-513.5 858.5,-534.5 1065.5,-534.5 1065.5,-513.5 858.5,-513.5"/>
<polygon fill="none" stroke="#8ccbf2" points="858.5,-513.5 858.5,-534.5 1065.5,-534.5 1065.5,-513.5 858.5,-513.5"/>
<text text-anchor="start" x="920.5" y="-521.3" font-family="mono" font-weight="bold" font-size="14.00" fill="#c83500">Versioning</text>
<polygon fill="#ddeeff" stroke="none" points="858.5,-492.5 858.5,-513.5 1065.5,-513.5 1065.5,-492.5 858.5,-492.5"/>
<polygon fill="none" stroke="#8ccbf2" points="858.5,-492.5 858.5,-513.5 1065.5,-513.5 1065.5,-492.5 858.5,-492.5"/>
<text text-anchor="start" x="861.5" y="-500.3" font-family="mono" font-size="14.00" fill="#c83500">instance</text>
<text text-anchor="start" x="928.5" y="-500.3" font-family="Times,serif" font-size="14.00"> : </text>
<text text-anchor="start" x="940.5" y="-500.3" font-family="mono" font-size="14.00" fill="#c83500">string</text>
<text text-anchor="start" x="990.5" y="-500.3" font-family="Times,serif" font-size="14.00"> </text>
<text text-anchor="start" x="994.5" y="-500.3" font-family="Times,serif" font-style="italic" font-size="14.00">(mandatory)</text>
</g>
<!-- Thing&#45;&gt;Versioning -->
<g id="edge7" class="edge"><title>Thing&#45;&gt;Versioning</title>
<path fill="none" stroke="black" d="M817.47,-620.873C854.397,-593.601 892.719,-565.298 920.542,-544.749"/>
<polygon fill="black" stroke="black" points="922.862,-547.387 928.827,-538.631 918.703,-541.756 922.862,-547.387"/>
<text text-anchor="start" x="862.5" y="-591.8" font-family="mono" font-size="14.00" fill="#c83500">version</text>
<text text-anchor="middle" x="917.827" y="-542.431" font-family="Times,serif" font-size="14.00">0..1</text>
</g>
<!-- SecurityScheme -->
<g id="node11" class="node"><title>SecurityScheme</title>
<polygon fill="#f2f2f2" stroke="none" points="1099.5,-502.5 1099.5,-523.5 1221.5,-523.5 1221.5,-502.5 1099.5,-502.5"/>
<polygon fill="none" stroke="#8c8c8c" points="1099.5,-502.5 1099.5,-523.5 1221.5,-523.5 1221.5,-502.5 1099.5,-502.5"/>
<text text-anchor="start" x="1102.5" y="-510.3" font-family="mono" font-weight="bold" font-size="14.00">SecurityScheme</text>
</g>
<!-- Thing&#45;&gt;SecurityScheme -->
<g id="edge4" class="edge"><title>Thing&#45;&gt;SecurityScheme</title>
<path fill="none" stroke="black" d="M834.441,-668.952C909.275,-644.928 1002.83,-610.911 1081.5,-570 1098.9,-560.95 1116.91,-548.575 1131.32,-537.807"/>
<polygon fill="black" stroke="black" points="1133.52,-540.53 1139.36,-531.69 1129.28,-534.959 1133.52,-540.53"/>
<text text-anchor="start" x="1042.5" y="-591.8" font-family="mono" font-size="14.00" fill="#c83500">securityDefinitions</text>
<text text-anchor="middle" x="1128.36" y="-535.49" font-family="Times,serif" font-size="14.00">0..1</text>
</g>
<!-- Property&#45;&gt;InteractionPattern -->
<g id="edge16" class="edge"><title>Property&#45;&gt;InteractionPattern</title>
<path fill="none" stroke="black" d="M141.649,-488.392C151.827,-472.194 165.757,-450.026 179.022,-428.917"/>
<polygon fill="white" stroke="black" points="182.098,-430.6 184.455,-420.27 176.171,-426.875 182.098,-430.6"/>
</g>
<!-- Action&#45;&gt;InteractionPattern -->
<g id="edge15" class="edge"><title>Action&#45;&gt;InteractionPattern</title>
<path fill="none" stroke="black" d="M355.767,-477.801C337.372,-462.506 315.182,-444.056 294.099,-426.526"/>
<polygon fill="white" stroke="black" points="296.318,-423.819 286.391,-420.117 291.843,-429.202 296.318,-423.819"/>
</g>
<!-- Action&#45;&gt;DataSchema -->
<g id="edge10" class="edge"><title>Action&#45;&gt;DataSchema</title>
<path fill="none" stroke="black" d="M406.043,-477.806C422.451,-411.176 458.053,-266.594 472.846,-206.52"/>
<polygon fill="black" stroke="black" points="476.285,-207.195 475.277,-196.648 469.488,-205.521 476.285,-207.195"/>
<text text-anchor="start" x="448.5" y="-359.8" font-family="mono" font-size="14.00" fill="#c83500">input</text>
<text text-anchor="middle" x="486.277" y="-200.448" font-family="Times,serif" font-size="14.00">0..1</text>
</g>
<!-- Action&#45;&gt;DataSchema -->
<g id="edge11" class="edge"><title>Action&#45;&gt;DataSchema</title>
<path fill="none" stroke="black" d="M382.3,-477.926C366.207,-436.158 345.886,-364.356 367.5,-307 383.67,-264.091 421.575,-226.23 448.811,-203.139"/>
<polygon fill="black" stroke="black" points="451.065,-205.817 456.533,-196.742 446.599,-200.426 451.065,-205.817"/>
<text text-anchor="start" x="367.5" y="-359.8" font-family="mono" font-size="14.00" fill="#c83500">output</text>
<text text-anchor="middle" x="467.533" y="-200.542" font-family="Times,serif" font-size="14.00">0..1</text>
</g>
<!-- Event&#45;&gt;InteractionPattern -->
<g id="edge17" class="edge"><title>Event&#45;&gt;InteractionPattern</title>
<path fill="none" stroke="black" d="M583.405,-495.378C576.485,-482.696 565.296,-466.099 550.5,-457 508.644,-431.261 379.26,-435.099 332.5,-420 330.856,-419.469 329.205,-418.918 327.55,-418.348"/>
<polygon fill="white" stroke="black" points="328.633,-415.018 318.039,-414.898 326.246,-421.598 328.633,-415.018"/>
</g>
<!-- Event&#45;&gt;DataSchema -->
<g id="edge12" class="edge"><title>Event&#45;&gt;DataSchema</title>
<path fill="none" stroke="black" d="M578,-495.446C564.538,-477.617 544.226,-448.337 532.5,-420 502.004,-346.302 487.81,-252.307 482.353,-206.728"/>
<polygon fill="black" stroke="black" points="485.823,-206.271 481.205,-196.735 478.869,-207.069 485.823,-206.271"/>
<text text-anchor="start" x="532.5" y="-359.8" font-family="mono" font-size="14.00" fill="#c83500">subscription</text>
<text text-anchor="middle" x="492.205" y="-200.535" font-family="Times,serif" font-size="14.00">0..1</text>
</g>
<!-- Event&#45;&gt;DataSchema -->
<g id="edge13" class="edge"><title>Event&#45;&gt;DataSchema</title>
<path fill="none" stroke="black" d="M601.719,-495.405C622.026,-459.049 662.976,-372.067 632.5,-307 610.124,-259.227 560.075,-223.11 523.286,-201.725"/>
<polygon fill="black" stroke="black" points="524.67,-198.487 514.244,-196.607 521.223,-204.579 524.67,-198.487"/>
<text text-anchor="start" x="643.5" y="-359.8" font-family="mono" font-size="14.00" fill="#c83500">cancellation</text>
<text text-anchor="middle" x="525.244" y="-200.407" font-family="Times,serif" font-size="14.00">0..1</text>
</g>
<!-- Event&#45;&gt;DataSchema -->
<g id="edge14" class="edge"><title>Event&#45;&gt;DataSchema</title>
<path fill="none" stroke="black" d="M600.28,-495.447C607.424,-483.14 618.587,-466.994 632.5,-457 676.107,-425.676 715.878,-463.392 747.5,-420 777.078,-379.412 774.321,-349.461 747.5,-307 702.641,-235.981 606.229,-203.708 542.118,-189.634"/>
<polygon fill="black" stroke="black" points="542.625,-186.164 532.119,-187.528 541.183,-193.014 542.625,-186.164"/>
<text text-anchor="start" x="769.5" y="-359.8" font-family="mono" font-size="14.00" fill="#c83500">data</text>
<text text-anchor="middle" x="543.119" y="-176.328" font-family="Times,serif" font-size="14.00">0..1</text>
</g>
</g>
</svg>
