<?xml version="1.0" encoding="UTF-8" standalone="no"?>
<!DOCTYPE svg PUBLIC "-//W3C//DTD SVG 1.1//EN"
 "http://www.w3.org/Graphics/SVG/1.1/DTD/svg11.dtd">
<!-- Generated by graphviz version 2.38.0 (20140413.2041)
 -->
<!-- Title: %3 Pages: 1 -->
<svg width="1426pt" height="840pt"
 viewBox="0.00 0.00 1425.50 840.00" xmlns="http://www.w3.org/2000/svg" xmlns:xlink="http://www.w3.org/1999/xlink">
<g id="graph0" class="graph" transform="scale(1 1) rotate(0) translate(4 836)">
<title>%3</title>
<polygon fill="white" stroke="none" points="-4,4 -4,-836 1421.5,-836 1421.5,4 -4,4"/>
<!-- MultiLanguage -->
<g id="node1" class="node"><title>MultiLanguage</title>
<polygon fill="#8ccbf2" stroke="none" points="273.5,-167.5 273.5,-188.5 387.5,-188.5 387.5,-167.5 273.5,-167.5"/>
<polygon fill="none" stroke="#8ccbf2" points="273.5,-167.5 273.5,-188.5 387.5,-188.5 387.5,-167.5 273.5,-167.5"/>
<text text-anchor="start" x="276.5" y="-175.3" font-family="mono" font-weight="bold" font-size="14.00" fill="#c83500">MultiLanguage</text>
</g>
<!-- InteractionPattern -->
<g id="node2" class="node"><title>InteractionPattern</title>
<polygon fill="#8ccbf2" stroke="none" points="269.5,-394.5 269.5,-415.5 450.5,-415.5 450.5,-394.5 269.5,-394.5"/>
<polygon fill="none" stroke="#8ccbf2" points="269.5,-394.5 269.5,-415.5 450.5,-415.5 450.5,-394.5 269.5,-394.5"/>
<text text-anchor="start" x="285.5" y="-402.3" font-family="mono" font-weight="bold" font-size="14.00" fill="#c83500">InteractionPattern</text>
<polygon fill="#ddeeff" stroke="none" points="269.5,-373.5 269.5,-394.5 450.5,-394.5 450.5,-373.5 269.5,-373.5"/>
<polygon fill="none" stroke="#8ccbf2" points="269.5,-373.5 269.5,-394.5 450.5,-394.5 450.5,-373.5 269.5,-373.5"/>
<text text-anchor="start" x="272.5" y="-381.3" font-family="mono" font-size="14.00" fill="#c83500">description</text>
<text text-anchor="start" x="363.5" y="-381.3" font-family="Times,serif" font-size="14.00"> : </text>
<text text-anchor="start" x="375.5" y="-381.3" font-family="mono" font-size="14.00" fill="#c83500">string</text>
<polygon fill="#ddeeff" stroke="none" points="269.5,-352.5 269.5,-373.5 450.5,-373.5 450.5,-352.5 269.5,-352.5"/>
<polygon fill="none" stroke="#8ccbf2" points="269.5,-352.5 269.5,-373.5 450.5,-373.5 450.5,-352.5 269.5,-352.5"/>
<text text-anchor="start" x="272.5" y="-360.3" font-family="mono" font-size="14.00" fill="#c83500">title</text>
<text text-anchor="start" x="314.5" y="-360.3" font-family="Times,serif" font-size="14.00"> : </text>
<text text-anchor="start" x="326.5" y="-360.3" font-family="mono" font-size="14.00" fill="#c83500">string</text>
<polygon fill="#ddeeff" stroke="none" points="269.5,-331.5 269.5,-352.5 450.5,-352.5 450.5,-331.5 269.5,-331.5"/>
<polygon fill="none" stroke="#8ccbf2" points="269.5,-331.5 269.5,-352.5 450.5,-352.5 450.5,-331.5 269.5,-331.5"/>
<text text-anchor="start" x="272.5" y="-339.3" font-family="mono" font-size="14.00" fill="#c83500">security</text>
<text text-anchor="start" x="339.5" y="-339.3" font-family="Times,serif" font-size="14.00"> : array of </text>
<text text-anchor="start" x="397.5" y="-339.3" font-family="mono" font-size="14.00" fill="#c83500">string</text>
<polygon fill="#ddeeff" stroke="none" points="269.5,-310.5 269.5,-331.5 450.5,-331.5 450.5,-310.5 269.5,-310.5"/>
<polygon fill="none" stroke="#8ccbf2" points="269.5,-310.5 269.5,-331.5 450.5,-331.5 450.5,-310.5 269.5,-310.5"/>
<text text-anchor="start" x="272.5" y="-318.3" font-family="mono" font-size="14.00" fill="#c83500">scopes</text>
<text text-anchor="start" x="322.5" y="-318.3" font-family="Times,serif" font-size="14.00"> : array of </text>
<text text-anchor="start" x="380.5" y="-318.3" font-family="mono" font-size="14.00" fill="#c83500">string</text>
</g>
<!-- InteractionPattern&#45;&gt;MultiLanguage -->
<g id="edge1" class="edge"><title>InteractionPattern&#45;&gt;MultiLanguage</title>
<path fill="none" stroke="black" d="M297.061,-306.597C293.277,-301.005 289.998,-295.119 287.5,-289 275.78,-260.288 293.091,-227.113 309.118,-204.87"/>
<polygon fill="black" stroke="black" points="312.114,-206.711 315.361,-196.626 306.534,-202.485 312.114,-206.711"/>
<text text-anchor="start" x="287.5" y="-277.8" font-family="mono" font-size="14.00" fill="#c83500">titles</text>
<text text-anchor="middle" x="304.361" y="-200.426" font-family="Times,serif" font-size="14.00">0..1</text>
</g>
<!-- InteractionPattern&#45;&gt;MultiLanguage -->
<g id="edge4" class="edge"><title>InteractionPattern&#45;&gt;MultiLanguage</title>
<path fill="none" stroke="black" d="M350.641,-306.6C345.4,-273.527 338.994,-233.102 334.834,-206.852"/>
<polygon fill="black" stroke="black" points="338.274,-206.195 333.252,-196.866 331.36,-207.29 338.274,-206.195"/>
<text text-anchor="start" x="348.5" y="-277.8" font-family="mono" font-size="14.00" fill="#c83500">descriptions</text>
<text text-anchor="middle" x="344.252" y="-200.666" font-family="Times,serif" font-size="14.00">0..1</text>
</g>
<!-- Form -->
<g id="node4" class="node"><title>Form</title>
<polygon fill="#8ccbf2" stroke="none" points="8.5,-230.5 8.5,-251.5 239.5,-251.5 239.5,-230.5 8.5,-230.5"/>
<polygon fill="none" stroke="#8ccbf2" points="8.5,-230.5 8.5,-251.5 239.5,-251.5 239.5,-230.5 8.5,-230.5"/>
<text text-anchor="start" x="107" y="-238.3" font-family="mono" font-weight="bold" font-size="14.00" fill="#c83500">Form</text>
<polygon fill="#ddeeff" stroke="none" points="8.5,-209.5 8.5,-230.5 239.5,-230.5 239.5,-209.5 8.5,-209.5"/>
<polygon fill="none" stroke="#8ccbf2" points="8.5,-209.5 8.5,-230.5 239.5,-230.5 239.5,-209.5 8.5,-209.5"/>
<text text-anchor="start" x="11.5" y="-217.3" font-family="mono" font-size="14.00" fill="#c83500">op</text>
<text text-anchor="start" x="28.5" y="-217.3" font-family="Times,serif" font-size="14.00"> : </text>
<text text-anchor="start" x="40.5" y="-217.3" font-family="mono" font-size="14.00" fill="#c83500">string</text>
<polygon fill="#ddeeff" stroke="none" points="8.5,-188.5 8.5,-209.5 239.5,-209.5 239.5,-188.5 8.5,-188.5"/>
<polygon fill="none" stroke="#8ccbf2" points="8.5,-188.5 8.5,-209.5 239.5,-209.5 239.5,-188.5 8.5,-188.5"/>
<text text-anchor="start" x="11.5" y="-196.3" font-family="mono" font-size="14.00" fill="#c83500">contentType</text>
<text text-anchor="start" x="102.5" y="-196.3" font-family="Times,serif" font-size="14.00"> : </text>
<text text-anchor="start" x="114.5" y="-196.3" font-family="mono" font-size="14.00" fill="#c83500">string</text>
<text text-anchor="start" x="164.5" y="-196.3" font-family="Times,serif" font-size="14.00"> </text>
<text text-anchor="start" x="168.5" y="-196.3" font-family="Times,serif" font-style="italic" font-size="14.00">(mandatory)</text>
<polygon fill="#ddeeff" stroke="none" points="8.5,-167.5 8.5,-188.5 239.5,-188.5 239.5,-167.5 8.5,-167.5"/>
<polygon fill="none" stroke="#8ccbf2" points="8.5,-167.5 8.5,-188.5 239.5,-188.5 239.5,-167.5 8.5,-167.5"/>
<text text-anchor="start" x="11.5" y="-175.3" font-family="mono" font-size="14.00" fill="#c83500">security</text>
<text text-anchor="start" x="78.5" y="-175.3" font-family="Times,serif" font-size="14.00"> : array of </text>
<text text-anchor="start" x="136.5" y="-175.3" font-family="mono" font-size="14.00" fill="#c83500">string</text>
<polygon fill="#ddeeff" stroke="none" points="8.5,-146.5 8.5,-167.5 239.5,-167.5 239.5,-146.5 8.5,-146.5"/>
<polygon fill="none" stroke="#8ccbf2" points="8.5,-146.5 8.5,-167.5 239.5,-167.5 239.5,-146.5 8.5,-146.5"/>
<text text-anchor="start" x="11.5" y="-154.3" font-family="mono" font-size="14.00" fill="#c83500">scopes</text>
<text text-anchor="start" x="61.5" y="-154.3" font-family="Times,serif" font-size="14.00"> : array of </text>
<text text-anchor="start" x="119.5" y="-154.3" font-family="mono" font-size="14.00" fill="#c83500">string</text>
<polygon fill="#ddeeff" stroke="none" points="8.5,-125.5 8.5,-146.5 239.5,-146.5 239.5,-125.5 8.5,-125.5"/>
<polygon fill="none" stroke="#8ccbf2" points="8.5,-125.5 8.5,-146.5 239.5,-146.5 239.5,-125.5 8.5,-125.5"/>
<text text-anchor="start" x="11.5" y="-133.3" font-family="mono" font-size="14.00" fill="#c83500">href</text>
<text text-anchor="start" x="45.5" y="-133.3" font-family="Times,serif" font-size="14.00"> : </text>
<text text-anchor="start" x="57.5" y="-133.3" font-family="mono" font-size="14.00" fill="#c83500">anyURI</text>
<text text-anchor="start" x="107.5" y="-133.3" font-family="Times,serif" font-size="14.00"> </text>
<text text-anchor="start" x="111.5" y="-133.3" font-family="Times,serif" font-style="italic" font-size="14.00">(mandatory)</text>
<polygon fill="#ddeeff" stroke="none" points="8.5,-104.5 8.5,-125.5 239.5,-125.5 239.5,-104.5 8.5,-104.5"/>
<polygon fill="none" stroke="#8ccbf2" points="8.5,-104.5 8.5,-125.5 239.5,-125.5 239.5,-104.5 8.5,-104.5"/>
<text text-anchor="start" x="11.5" y="-112.3" font-family="mono" font-size="14.00" fill="#c83500">subprotocol</text>
<text text-anchor="start" x="102.5" y="-112.3" font-family="Times,serif" font-size="14.00"> : </text>
<text text-anchor="start" x="114.5" y="-112.3" font-family="mono" font-size="14.00" fill="#c83500">string</text>
</g>
<!-- InteractionPattern&#45;&gt;Form -->
<g id="edge3" class="edge"><title>InteractionPattern&#45;&gt;Form</title>
<path fill="none" stroke="black" d="M263.43,-306.8C254.836,-301.027 246.404,-295.051 238.5,-289 227.931,-280.909 217.258,-271.975 206.897,-262.804"/>
<polygon fill="black" stroke="black" points="209.195,-260.163 199.413,-256.092 204.521,-265.375 209.195,-260.163"/>
<text text-anchor="start" x="238.5" y="-277.8" font-family="mono" font-size="14.00" fill="#c83500">forms</text>
<text text-anchor="middle" x="188.413" y="-259.892" font-family="Times,serif" font-size="14.00">1..*</text>
</g>
<!-- DataSchema -->
<g id="node11" class="node"><title>DataSchema</title>
<polygon fill="#f2f2f2" stroke="none" points="678.5,-167.5 678.5,-188.5 767.5,-188.5 767.5,-167.5 678.5,-167.5"/>
<polygon fill="none" stroke="#8c8c8c" points="678.5,-167.5 678.5,-188.5 767.5,-188.5 767.5,-167.5 678.5,-167.5"/>
<text text-anchor="start" x="681.5" y="-175.3" font-family="mono" font-weight="bold" font-size="14.00">DataSchema</text>
</g>
<!-- InteractionPattern&#45;&gt;DataSchema -->
<g id="edge2" class="edge"><title>InteractionPattern&#45;&gt;DataSchema</title>
<path fill="none" stroke="black" d="M431.344,-306.783C447.979,-295.153 465.959,-283.542 483.5,-274 540.823,-242.818 610.653,-216.422 659.991,-199.52"/>
<polygon fill="black" stroke="black" points="661.23,-202.796 669.575,-196.268 658.981,-196.167 661.23,-202.796"/>
<text text-anchor="start" x="483.5" y="-277.8" font-family="mono" font-size="14.00" fill="#c83500">uriVariables</text>
<text text-anchor="middle" x="658.575" y="-200.068" font-family="Times,serif" font-size="14.00">0..1</text>
</g>
<!-- Link -->
<g id="node3" class="node"><title>Link</title>
<polygon fill="#8ccbf2" stroke="none" points="837.5,-558.5 837.5,-579.5 1011.5,-579.5 1011.5,-558.5 837.5,-558.5"/>
<polygon fill="none" stroke="#8ccbf2" points="837.5,-558.5 837.5,-579.5 1011.5,-579.5 1011.5,-558.5 837.5,-558.5"/>
<text text-anchor="start" x="907.5" y="-566.3" font-family="mono" font-weight="bold" font-size="14.00" fill="#c83500">Link</text>
<polygon fill="#ddeeff" stroke="none" points="837.5,-537.5 837.5,-558.5 1011.5,-558.5 1011.5,-537.5 837.5,-537.5"/>
<polygon fill="none" stroke="#8ccbf2" points="837.5,-537.5 837.5,-558.5 1011.5,-558.5 1011.5,-537.5 837.5,-537.5"/>
<text text-anchor="start" x="840.5" y="-545.3" font-family="mono" font-size="14.00" fill="#c83500">rel</text>
<text text-anchor="start" x="865.5" y="-545.3" font-family="Times,serif" font-size="14.00"> : </text>
<text text-anchor="start" x="877.5" y="-545.3" font-family="mono" font-size="14.00" fill="#c83500">string</text>
<polygon fill="#ddeeff" stroke="none" points="837.5,-516.5 837.5,-537.5 1011.5,-537.5 1011.5,-516.5 837.5,-516.5"/>
<polygon fill="none" stroke="#8ccbf2" points="837.5,-516.5 837.5,-537.5 1011.5,-537.5 1011.5,-516.5 837.5,-516.5"/>
<text text-anchor="start" x="840.5" y="-524.3" font-family="mono" font-size="14.00" fill="#c83500">href</text>
<text text-anchor="start" x="874.5" y="-524.3" font-family="Times,serif" font-size="14.00"> : </text>
<text text-anchor="start" x="886.5" y="-524.3" font-family="mono" font-size="14.00" fill="#c83500">anyURI</text>
<text text-anchor="start" x="936.5" y="-524.3" font-family="Times,serif" font-size="14.00"> </text>
<text text-anchor="start" x="940.5" y="-524.3" font-family="Times,serif" font-style="italic" font-size="14.00">(mandatory)</text>
<polygon fill="#ddeeff" stroke="none" points="837.5,-495.5 837.5,-516.5 1011.5,-516.5 1011.5,-495.5 837.5,-495.5"/>
<polygon fill="none" stroke="#8ccbf2" points="837.5,-495.5 837.5,-516.5 1011.5,-516.5 1011.5,-495.5 837.5,-495.5"/>
<text text-anchor="start" x="840.5" y="-503.3" font-family="mono" font-size="14.00" fill="#c83500">type</text>
<text text-anchor="start" x="874.5" y="-503.3" font-family="Times,serif" font-size="14.00"> : </text>
<text text-anchor="start" x="886.5" y="-503.3" font-family="mono" font-size="14.00" fill="#c83500">string</text>
<polygon fill="#ddeeff" stroke="none" points="837.5,-474.5 837.5,-495.5 1011.5,-495.5 1011.5,-474.5 837.5,-474.5"/>
<polygon fill="none" stroke="#8ccbf2" points="837.5,-474.5 837.5,-495.5 1011.5,-495.5 1011.5,-474.5 837.5,-474.5"/>
<text text-anchor="start" x="840.5" y="-482.3" font-family="mono" font-size="14.00" fill="#c83500">anchor</text>
<text text-anchor="start" x="890.5" y="-482.3" font-family="Times,serif" font-size="14.00"> : </text>
<text text-anchor="start" x="902.5" y="-482.3" font-family="mono" font-size="14.00" fill="#c83500">anyURI</text>
</g>
<!-- ExpectedResponse -->
<g id="node7" class="node"><title>ExpectedResponse</title>
<polygon fill="#8ccbf2" stroke="none" points="44.5,-25 44.5,-46 203.5,-46 203.5,-25 44.5,-25"/>
<polygon fill="none" stroke="#8ccbf2" points="44.5,-25 44.5,-46 203.5,-46 203.5,-25 44.5,-25"/>
<text text-anchor="start" x="57.5" y="-32.8" font-family="mono" font-weight="bold" font-size="14.00" fill="#c83500">ExpectedResponse</text>
<polygon fill="#ddeeff" stroke="none" points="44.5,-4 44.5,-25 203.5,-25 203.5,-4 44.5,-4"/>
<polygon fill="none" stroke="#8ccbf2" points="44.5,-4 44.5,-25 203.5,-25 203.5,-4 44.5,-4"/>
<text text-anchor="start" x="47.5" y="-11.8" font-family="mono" font-size="14.00" fill="#c83500">contentType</text>
<text text-anchor="start" x="138.5" y="-11.8" font-family="Times,serif" font-size="14.00"> : </text>
<text text-anchor="start" x="150.5" y="-11.8" font-family="mono" font-size="14.00" fill="#c83500">string</text>
</g>
<!-- Form&#45;&gt;ExpectedResponse -->
<g id="edge5" class="edge"><title>Form&#45;&gt;ExpectedResponse</title>
<path fill="none" stroke="black" d="M123.5,-100.862C123.5,-86.5577 123.5,-72.2953 123.5,-60.116"/>
<polygon fill="black" stroke="black" points="127,-60.0004 123.5,-50.0004 120,-60.0004 127,-60.0004"/>
<text text-anchor="start" x="123.5" y="-71.8" font-family="mono" font-size="14.00" fill="#c83500">response</text>
<text text-anchor="middle" x="112.5" y="-53.8004" font-family="Times,serif" font-size="14.00">0..1</text>
</g>
<!-- Thing -->
<g id="node5" class="node"><title>Thing</title>
<polygon fill="#8ccbf2" stroke="none" points="565.5,-806.5 565.5,-827.5 818.5,-827.5 818.5,-806.5 565.5,-806.5"/>
<polygon fill="none" stroke="#8ccbf2" points="565.5,-806.5 565.5,-827.5 818.5,-827.5 818.5,-806.5 565.5,-806.5"/>
<text text-anchor="start" x="671" y="-814.3" font-family="mono" font-weight="bold" font-size="14.00" fill="#c83500">Thing</text>
<polygon fill="#ddeeff" stroke="none" points="565.5,-785.5 565.5,-806.5 818.5,-806.5 818.5,-785.5 565.5,-785.5"/>
<polygon fill="none" stroke="#8ccbf2" points="565.5,-785.5 565.5,-806.5 818.5,-806.5 818.5,-785.5 565.5,-785.5"/>
<text text-anchor="start" x="568.5" y="-793.3" font-family="mono" font-size="14.00" fill="#c83500">id</text>
<text text-anchor="start" x="585.5" y="-793.3" font-family="Times,serif" font-size="14.00"> : </text>
<text text-anchor="start" x="597.5" y="-793.3" font-family="mono" font-size="14.00" fill="#c83500">anyURI</text>
<text text-anchor="start" x="647.5" y="-793.3" font-family="Times,serif" font-size="14.00"> </text>
<text text-anchor="start" x="651.5" y="-793.3" font-family="Times,serif" font-style="italic" font-size="14.00">(mandatory)</text>
<polygon fill="#ddeeff" stroke="none" points="565.5,-764.5 565.5,-785.5 818.5,-785.5 818.5,-764.5 565.5,-764.5"/>
<polygon fill="none" stroke="#8ccbf2" points="565.5,-764.5 565.5,-785.5 818.5,-785.5 818.5,-764.5 565.5,-764.5"/>
<text text-anchor="start" x="568.5" y="-772.3" font-family="mono" font-size="14.00" fill="#c83500">created</text>
<text text-anchor="start" x="626.5" y="-772.3" font-family="Times,serif" font-size="14.00"> : </text>
<text text-anchor="start" x="638.5" y="-772.3" font-family="mono" font-size="14.00" fill="#c83500">string</text>
<polygon fill="#ddeeff" stroke="none" points="565.5,-743.5 565.5,-764.5 818.5,-764.5 818.5,-743.5 565.5,-743.5"/>
<polygon fill="none" stroke="#8ccbf2" points="565.5,-743.5 565.5,-764.5 818.5,-764.5 818.5,-743.5 565.5,-743.5"/>
<text text-anchor="start" x="568.5" y="-751.3" font-family="mono" font-size="14.00" fill="#c83500">base</text>
<text text-anchor="start" x="602.5" y="-751.3" font-family="Times,serif" font-size="14.00"> : </text>
<text text-anchor="start" x="614.5" y="-751.3" font-family="mono" font-size="14.00" fill="#c83500">anyURI</text>
<polygon fill="#ddeeff" stroke="none" points="565.5,-722.5 565.5,-743.5 818.5,-743.5 818.5,-722.5 565.5,-722.5"/>
<polygon fill="none" stroke="#8ccbf2" points="565.5,-722.5 565.5,-743.5 818.5,-743.5 818.5,-722.5 565.5,-722.5"/>
<text text-anchor="start" x="568.5" y="-730.3" font-family="mono" font-size="14.00" fill="#c83500">security</text>
<text text-anchor="start" x="635.5" y="-730.3" font-family="Times,serif" font-size="14.00"> : array of </text>
<text text-anchor="start" x="693.5" y="-730.3" font-family="mono" font-size="14.00" fill="#c83500">string</text>
<text text-anchor="start" x="743.5" y="-730.3" font-family="Times,serif" font-size="14.00"> </text>
<text text-anchor="start" x="747.5" y="-730.3" font-family="Times,serif" font-style="italic" font-size="14.00">(mandatory)</text>
<polygon fill="#ddeeff" stroke="none" points="565.5,-701.5 565.5,-722.5 818.5,-722.5 818.5,-701.5 565.5,-701.5"/>
<polygon fill="none" stroke="#8ccbf2" points="565.5,-701.5 565.5,-722.5 818.5,-722.5 818.5,-701.5 565.5,-701.5"/>
<text text-anchor="start" x="568.5" y="-709.3" font-family="mono" font-size="14.00" fill="#c83500">name</text>
<text text-anchor="start" x="602.5" y="-709.3" font-family="Times,serif" font-size="14.00"> : </text>
<text text-anchor="start" x="614.5" y="-709.3" font-family="mono" font-size="14.00" fill="#c83500">string</text>
<text text-anchor="start" x="664.5" y="-709.3" font-family="Times,serif" font-size="14.00"> </text>
<text text-anchor="start" x="668.5" y="-709.3" font-family="Times,serif" font-style="italic" font-size="14.00">(mandatory)</text>
<polygon fill="#ddeeff" stroke="none" points="565.5,-680.5 565.5,-701.5 818.5,-701.5 818.5,-680.5 565.5,-680.5"/>
<polygon fill="none" stroke="#8ccbf2" points="565.5,-680.5 565.5,-701.5 818.5,-701.5 818.5,-680.5 565.5,-680.5"/>
<text text-anchor="start" x="568.5" y="-688.3" font-family="mono" font-size="14.00" fill="#c83500">lastModified</text>
<text text-anchor="start" x="668.5" y="-688.3" font-family="Times,serif" font-size="14.00"> : </text>
<text text-anchor="start" x="680.5" y="-688.3" font-family="mono" font-size="14.00" fill="#c83500">string</text>
<polygon fill="#ddeeff" stroke="none" points="565.5,-659.5 565.5,-680.5 818.5,-680.5 818.5,-659.5 565.5,-659.5"/>
<polygon fill="none" stroke="#8ccbf2" points="565.5,-659.5 565.5,-680.5 818.5,-680.5 818.5,-659.5 565.5,-659.5"/>
<text text-anchor="start" x="568.5" y="-667.3" font-family="mono" font-size="14.00" fill="#c83500">description</text>
<text text-anchor="start" x="659.5" y="-667.3" font-family="Times,serif" font-size="14.00"> : </text>
<text text-anchor="start" x="671.5" y="-667.3" font-family="mono" font-size="14.00" fill="#c83500">string</text>
<polygon fill="#ddeeff" stroke="none" points="565.5,-638.5 565.5,-659.5 818.5,-659.5 818.5,-638.5 565.5,-638.5"/>
<polygon fill="none" stroke="#8ccbf2" points="565.5,-638.5 565.5,-659.5 818.5,-659.5 818.5,-638.5 565.5,-638.5"/>
<text text-anchor="start" x="568.5" y="-646.3" font-family="mono" font-size="14.00" fill="#c83500">support</text>
<text text-anchor="start" x="626.5" y="-646.3" font-family="Times,serif" font-size="14.00"> : </text>
<text text-anchor="start" x="638.5" y="-646.3" font-family="mono" font-size="14.00" fill="#c83500">string</text>
</g>
<!-- Thing&#45;&gt;MultiLanguage -->
<g id="edge6" class="edge"><title>Thing&#45;&gt;MultiLanguage</title>
<path fill="none" stroke="black" d="M556.892,-709.543C428.748,-684.621 249.395,-640.677 207.5,-584 181.506,-548.835 190.579,-315.981 218.5,-274 228.627,-258.773 240.66,-266.685 255.5,-256 275.937,-241.285 295.736,-220.736 309.855,-204.64"/>
<polygon fill="black" stroke="black" points="312.829,-206.549 316.693,-196.684 307.521,-201.986 312.829,-206.549"/>
<text text-anchor="start" x="192.5" y="-441.8" font-family="mono" font-size="14.00" fill="#c83500">descriptions</text>
<text text-anchor="middle" x="327.693" y="-200.484" font-family="Times,serif" font-size="14.00">0..1</text>
</g>
<!-- Thing&#45;&gt;Link -->
<g id="edge10" class="edge"><title>Thing&#45;&gt;Link</title>
<path fill="none" stroke="black" d="M802.882,-634.981C819.975,-620.015 837.216,-604.921 853.128,-590.989"/>
<polygon fill="black" stroke="black" points="855.607,-593.47 860.826,-584.249 850.996,-588.203 855.607,-593.47"/>
<text text-anchor="start" x="836.5" y="-605.8" font-family="mono" font-size="14.00" fill="#c83500">links</text>
<text text-anchor="middle" x="849.826" y="-588.049" font-family="Times,serif" font-size="14.00">0..*</text>
</g>
<!-- Thing&#45;&gt;Form -->
<g id="edge8" class="edge"><title>Thing&#45;&gt;Form</title>
<path fill="none" stroke="black" d="M556.766,-718.442C459.098,-703.833 326.473,-674.609 222.5,-617 204.08,-606.794 199.602,-601.894 188.5,-584 128.445,-487.201 118.092,-353.199 118.758,-266.431"/>
<polygon fill="black" stroke="black" points="122.258,-266.396 118.886,-256.352 115.259,-266.307 122.258,-266.396"/>
<text text-anchor="start" x="136.5" y="-441.8" font-family="mono" font-size="14.00" fill="#c83500">forms</text>
<text text-anchor="middle" x="107.886" y="-260.152" font-family="Times,serif" font-size="14.00">0..*</text>
</g>
<!-- Property -->
<g id="node6" class="node"><title>Property</title>
<polygon fill="#8ccbf2" stroke="none" points="225.5,-527.5 225.5,-548.5 456.5,-548.5 456.5,-527.5 225.5,-527.5"/>
<polygon fill="none" stroke="#8ccbf2" points="225.5,-527.5 225.5,-548.5 456.5,-548.5 456.5,-527.5 225.5,-527.5"/>
<text text-anchor="start" x="307.5" y="-535.3" font-family="mono" font-weight="bold" font-size="14.00" fill="#c83500">Property</text>
<polygon fill="#ddeeff" stroke="none" points="225.5,-506.5 225.5,-527.5 456.5,-527.5 456.5,-506.5 225.5,-506.5"/>
<polygon fill="none" stroke="#8ccbf2" points="225.5,-506.5 225.5,-527.5 456.5,-527.5 456.5,-506.5 225.5,-506.5"/>
<text text-anchor="start" x="228.5" y="-514.3" font-family="mono" font-size="14.00" fill="#c83500">observable</text>
<text text-anchor="start" x="311.5" y="-514.3" font-family="Times,serif" font-size="14.00"> : </text>
<text text-anchor="start" x="323.5" y="-514.3" font-family="mono" font-size="14.00" fill="#c83500">boolean</text>
<text text-anchor="start" x="381.5" y="-514.3" font-family="Times,serif" font-size="14.00"> </text>
<text text-anchor="start" x="385.5" y="-514.3" font-family="Times,serif" font-style="italic" font-size="14.00">(mandatory)</text>
</g>
<!-- Thing&#45;&gt;Property -->
<g id="edge9" class="edge"><title>Thing&#45;&gt;Property</title>
<path fill="none" stroke="black" d="M556.798,-654.212C498.68,-620.434 434.244,-582.983 390.943,-557.818"/>
<polygon fill="black" stroke="black" points="392.439,-554.639 382.034,-552.64 388.921,-560.691 392.439,-554.639"/>
<text text-anchor="start" x="485.5" y="-605.8" font-family="mono" font-size="14.00" fill="#c83500">properties</text>
<text text-anchor="middle" x="371.034" y="-556.44" font-family="Times,serif" font-size="14.00">0..1</text>
</g>
<!-- Action -->
<g id="node8" class="node"><title>Action</title>
<polygon fill="#8ccbf2" stroke="none" points="490.5,-537.5 490.5,-558.5 721.5,-558.5 721.5,-537.5 490.5,-537.5"/>
<polygon fill="none" stroke="#8ccbf2" points="490.5,-537.5 490.5,-558.5 721.5,-558.5 721.5,-537.5 490.5,-537.5"/>
<text text-anchor="start" x="581" y="-545.3" font-family="mono" font-weight="bold" font-size="14.00" fill="#c83500">Action</text>
<polygon fill="#ddeeff" stroke="none" points="490.5,-516.5 490.5,-537.5 721.5,-537.5 721.5,-516.5 490.5,-516.5"/>
<polygon fill="none" stroke="#8ccbf2" points="490.5,-516.5 490.5,-537.5 721.5,-537.5 721.5,-516.5 490.5,-516.5"/>
<text text-anchor="start" x="493.5" y="-524.3" font-family="mono" font-size="14.00" fill="#c83500">safe</text>
<text text-anchor="start" x="527.5" y="-524.3" font-family="Times,serif" font-size="14.00"> : </text>
<text text-anchor="start" x="539.5" y="-524.3" font-family="mono" font-size="14.00" fill="#c83500">boolean</text>
<text text-anchor="start" x="597.5" y="-524.3" font-family="Times,serif" font-size="14.00"> </text>
<text text-anchor="start" x="601.5" y="-524.3" font-family="Times,serif" font-style="italic" font-size="14.00">(mandatory)</text>
<polygon fill="#ddeeff" stroke="none" points="490.5,-495.5 490.5,-516.5 721.5,-516.5 721.5,-495.5 490.5,-495.5"/>
<polygon fill="none" stroke="#8ccbf2" points="490.5,-495.5 490.5,-516.5 721.5,-516.5 721.5,-495.5 490.5,-495.5"/>
<text text-anchor="start" x="493.5" y="-503.3" font-family="mono" font-size="14.00" fill="#c83500">idempotent</text>
<text text-anchor="start" x="576.5" y="-503.3" font-family="Times,serif" font-size="14.00"> : </text>
<text text-anchor="start" x="588.5" y="-503.3" font-family="mono" font-size="14.00" fill="#c83500">boolean</text>
<text text-anchor="start" x="646.5" y="-503.3" font-family="Times,serif" font-size="14.00"> </text>
<text text-anchor="start" x="650.5" y="-503.3" font-family="Times,serif" font-style="italic" font-size="14.00">(mandatory)</text>
</g>
<!-- Thing&#45;&gt;Action -->
<g id="edge12" class="edge"><title>Thing&#45;&gt;Action</title>
<path fill="none" stroke="black" d="M650.389,-634.981C641.122,-612.998 631.737,-590.737 623.962,-572.293"/>
<polygon fill="black" stroke="black" points="627.161,-570.872 620.051,-563.017 620.711,-573.592 627.161,-570.872"/>
<text text-anchor="start" x="641.5" y="-605.8" font-family="mono" font-size="14.00" fill="#c83500">actions</text>
<text text-anchor="middle" x="609.051" y="-566.817" font-family="Times,serif" font-size="14.00">0..1</text>
</g>
<!-- Event -->
<g id="node9" class="node"><title>Event</title>
<polygon fill="#8ccbf2" stroke="none" points="755.5,-516.5 755.5,-537.5 803.5,-537.5 803.5,-516.5 755.5,-516.5"/>
<polygon fill="none" stroke="#8ccbf2" points="755.5,-516.5 755.5,-537.5 803.5,-537.5 803.5,-516.5 755.5,-516.5"/>
<text text-anchor="start" x="758.5" y="-524.3" font-family="mono" font-weight="bold" font-size="14.00" fill="#c83500">Event</text>
</g>
<!-- Thing&#45;&gt;Event -->
<g id="edge11" class="edge"><title>Thing&#45;&gt;Event</title>
<path fill="none" stroke="black" d="M733.567,-634.981C746.251,-605.578 759.149,-575.677 768.035,-555.077"/>
<polygon fill="black" stroke="black" points="771.31,-556.323 772.057,-545.755 764.882,-553.551 771.31,-556.323"/>
<text text-anchor="start" x="746.5" y="-605.8" font-family="mono" font-size="14.00" fill="#c83500">events</text>
<text text-anchor="middle" x="761.057" y="-549.555" font-family="Times,serif" font-size="14.00">0..1</text>
</g>
<!-- Versioning -->
<g id="node10" class="node"><title>Versioning</title>
<polygon fill="#8ccbf2" stroke="none" points="1046.5,-527.5 1046.5,-548.5 1253.5,-548.5 1253.5,-527.5 1046.5,-527.5"/>
<polygon fill="none" stroke="#8ccbf2" points="1046.5,-527.5 1046.5,-548.5 1253.5,-548.5 1253.5,-527.5 1046.5,-527.5"/>
<text text-anchor="start" x="1108.5" y="-535.3" font-family="mono" font-weight="bold" font-size="14.00" fill="#c83500">Versioning</text>
<polygon fill="#ddeeff" stroke="none" points="1046.5,-506.5 1046.5,-527.5 1253.5,-527.5 1253.5,-506.5 1046.5,-506.5"/>
<polygon fill="none" stroke="#8ccbf2" points="1046.5,-506.5 1046.5,-527.5 1253.5,-527.5 1253.5,-506.5 1046.5,-506.5"/>
<text text-anchor="start" x="1049.5" y="-514.3" font-family="mono" font-size="14.00" fill="#c83500">instance</text>
<text text-anchor="start" x="1116.5" y="-514.3" font-family="Times,serif" font-size="14.00"> : </text>
<text text-anchor="start" x="1128.5" y="-514.3" font-family="mono" font-size="14.00" fill="#c83500">string</text>
<text text-anchor="start" x="1178.5" y="-514.3" font-family="Times,serif" font-size="14.00"> </text>
<text text-anchor="start" x="1182.5" y="-514.3" font-family="Times,serif" font-style="italic" font-size="14.00">(mandatory)</text>
</g>
<!-- Thing&#45;&gt;Versioning -->
<g id="edge7" class="edge"><title>Thing&#45;&gt;Versioning</title>
<path fill="none" stroke="black" d="M826.175,-673.706C887.925,-646.607 962.024,-613.89 1028.5,-584 1047.97,-575.244 1069.15,-565.58 1088.26,-556.804"/>
<polygon fill="black" stroke="black" points="1089.84,-559.931 1097.46,-552.575 1086.92,-553.571 1089.84,-559.931"/>
<text text-anchor="start" x="983.5" y="-605.8" font-family="mono" font-size="14.00" fill="#c83500">version</text>
<text text-anchor="middle" x="1086.46" y="-556.375" font-family="Times,serif" font-size="14.00">0..1</text>
</g>
<!-- SecurityScheme -->
<g id="node12" class="node"><title>SecurityScheme</title>
<polygon fill="#f2f2f2" stroke="none" points="1287.5,-516.5 1287.5,-537.5 1409.5,-537.5 1409.5,-516.5 1287.5,-516.5"/>
<polygon fill="none" stroke="#8c8c8c" points="1287.5,-516.5 1287.5,-537.5 1409.5,-537.5 1409.5,-516.5 1287.5,-516.5"/>
<text text-anchor="start" x="1290.5" y="-524.3" font-family="mono" font-weight="bold" font-size="14.00">SecurityScheme</text>
</g>
<!-- Thing&#45;&gt;SecurityScheme -->
<g id="edge13" class="edge"><title>Thing&#45;&gt;SecurityScheme</title>
<path fill="none" stroke="black" d="M826.114,-712.113C946.327,-690.641 1125.19,-650.525 1269.5,-584 1287.7,-575.612 1306.12,-562.956 1320.6,-551.847"/>
<polygon fill="black" stroke="black" points="1322.94,-554.462 1328.64,-545.529 1318.61,-548.959 1322.94,-554.462"/>
<text text-anchor="start" x="1225.5" y="-605.8" font-family="mono" font-size="14.00" fill="#c83500">securityDefinitions</text>
<text text-anchor="middle" x="1317.64" y="-549.329" font-family="Times,serif" font-size="14.00">1..1</text>
</g>
<!-- Property&#45;&gt;InteractionPattern -->
<g id="edge21" class="edge"><title>Property&#45;&gt;InteractionPattern</title>
<path fill="none" stroke="black" d="M343.344,-502.247C345.584,-483.156 348.814,-455.613 351.798,-430.165"/>
<polygon fill="white" stroke="black" points="355.282,-430.507 352.971,-420.167 348.33,-429.691 355.282,-430.507"/>
</g>
<!-- Action&#45;&gt;InteractionPattern -->
<g id="edge19" class="edge"><title>Action&#45;&gt;InteractionPattern</title>
<path fill="none" stroke="black" d="M553.029,-491.946C523.76,-472.671 486.443,-448.097 452.403,-425.68"/>
<polygon fill="white" stroke="black" points="454.103,-422.609 443.826,-420.032 450.253,-428.455 454.103,-422.609"/>
</g>
<!-- Action&#45;&gt;DataSchema -->
<g id="edge14" class="edge"><title>Action&#45;&gt;DataSchema</title>
<path fill="none" stroke="black" d="M599.427,-491.618C593.223,-447.084 587.539,-368.444 611.5,-307 628.024,-264.627 665.218,-226.833 692.002,-203.602"/>
<polygon fill="black" stroke="black" points="694.579,-206.006 699.945,-196.87 690.053,-200.665 694.579,-206.006"/>
<text text-anchor="start" x="611.5" y="-359.8" font-family="mono" font-size="14.00" fill="#c83500">output</text>
<text text-anchor="middle" x="688.945" y="-200.67" font-family="Times,serif" font-size="14.00">0..1</text>
</g>
<!-- Action&#45;&gt;DataSchema -->
<g id="edge15" class="edge"><title>Action&#45;&gt;DataSchema</title>
<path fill="none" stroke="black" d="M626.318,-491.974C637.924,-471.591 651.924,-444.966 661.5,-420 690.276,-344.974 709.505,-251.586 717.821,-206.435"/>
<polygon fill="black" stroke="black" points="721.274,-207.003 719.609,-196.54 714.386,-205.758 721.274,-207.003"/>
<text text-anchor="start" x="696.5" y="-359.8" font-family="mono" font-size="14.00" fill="#c83500">input</text>
<text text-anchor="middle" x="730.609" y="-200.34" font-family="Times,serif" font-size="14.00">0..1</text>
</g>
<!-- Event&#45;&gt;InteractionPattern -->
<g id="edge20" class="edge"><title>Event&#45;&gt;InteractionPattern</title>
<path fill="none" stroke="black" d="M770.517,-509.299C763.205,-496.916 751.773,-480.74 737.5,-471 726.014,-463.162 575.629,-422.056 468.06,-393.271"/>
<polygon fill="white" stroke="black" points="468.681,-389.814 458.116,-390.612 466.873,-396.576 468.681,-389.814"/>
</g>
<!-- Event&#45;&gt;DataSchema -->
<g id="edge16" class="edge"><title>Event&#45;&gt;DataSchema</title>
<path fill="none" stroke="black" d="M776.673,-509.292C767.462,-453.215 738.256,-275.419 726.992,-206.844"/>
<polygon fill="black" stroke="black" points="730.418,-206.112 725.344,-196.812 723.511,-207.247 730.418,-206.112"/>
<text text-anchor="start" x="761.5" y="-359.8" font-family="mono" font-size="14.00" fill="#c83500">cancellation</text>
<text text-anchor="middle" x="714.344" y="-200.612" font-family="Times,serif" font-size="14.00">0..1</text>
</g>
<!-- Event&#45;&gt;DataSchema -->
<g id="edge17" class="edge"><title>Event&#45;&gt;DataSchema</title>
<path fill="none" stroke="black" d="M791.686,-509.207C799.651,-498.107 810.411,-483.486 820.5,-471 839.499,-447.488 854.809,-448.275 865.5,-420 883.262,-373.024 886.039,-352.83 865.5,-307 844.647,-260.469 797.489,-223.945 763.009,-202.129"/>
<polygon fill="black" stroke="black" points="764.446,-198.904 754.097,-196.636 760.773,-204.863 764.446,-198.904"/>
<text text-anchor="start" x="880.5" y="-359.8" font-family="mono" font-size="14.00" fill="#c83500">subscription</text>
<text text-anchor="middle" x="765.097" y="-200.436" font-family="Times,serif" font-size="14.00">0..1</text>
</g>
<!-- Event&#45;&gt;DataSchema -->
<g id="edge18" class="edge"><title>Event&#45;&gt;DataSchema</title>
<path fill="none" stroke="black" d="M788.252,-509.407C795.381,-497.08 806.538,-480.926 820.5,-471 882.713,-426.772 939.243,-481.469 984.5,-420 1014.28,-379.557 1011.13,-349.579 984.5,-307 941.021,-237.488 847.576,-204.888 784.863,-190.323"/>
<polygon fill="black" stroke="black" points="785.596,-186.901 775.074,-188.138 784.071,-193.733 785.596,-186.901"/>
<text text-anchor="start" x="1006.5" y="-359.8" font-family="mono" font-size="14.00" fill="#c83500">data</text>
<text text-anchor="middle" x="786.074" y="-176.938" font-family="Times,serif" font-size="14.00">0..1</text>
</g>
</g>
</svg>
