<?xml version="1.0" encoding="UTF-8" standalone="no"?>
<!DOCTYPE svg PUBLIC "-//W3C//DTD SVG 1.1//EN"
 "http://www.w3.org/Graphics/SVG/1.1/DTD/svg11.dtd">
<!-- Generated by graphviz version 2.40.1 (20161225.0304)
 -->
<!-- Title: %3 Pages: 1 -->
<svg width="1186pt" height="805pt"
 viewBox="0.00 0.00 1186.00 805.00" xmlns="http://www.w3.org/2000/svg" xmlns:xlink="http://www.w3.org/1999/xlink">
<g id="graph0" class="graph" transform="scale(1 1) rotate(0) translate(4 801)">
<title>%3</title>
<polygon fill="#ffffff" stroke="transparent" points="-4,4 -4,-801 1182,-801 1182,4 -4,4"/>
<!-- InteractionPattern -->
<g id="node1" class="node">
<title>InteractionPattern</title>
<polygon fill="#8ccbf2" stroke="transparent" points="153.5,-394.5 153.5,-415.5 312.5,-415.5 312.5,-394.5 153.5,-394.5"/>
<polygon fill="none" stroke="#8ccbf2" points="153.5,-394.5 153.5,-415.5 312.5,-415.5 312.5,-394.5 153.5,-394.5"/>
<text text-anchor="start" x="169.5" y="-402.3" font-family="mono" font-weight="bold" font-size="14.00" fill="#c83500">InteractionPattern</text>
<polygon fill="#ddeeff" stroke="transparent" points="153.5,-373.5 153.5,-394.5 312.5,-394.5 312.5,-373.5 153.5,-373.5"/>
<polygon fill="none" stroke="#8ccbf2" points="153.5,-373.5 153.5,-394.5 312.5,-394.5 312.5,-373.5 153.5,-373.5"/>
<text text-anchor="start" x="156.5" y="-381.3" font-family="mono" font-size="14.00" fill="#c83500">description</text>
<text text-anchor="start" x="232.5" y="-381.3" font-family="Times,serif" font-size="14.00" fill="#000000"> : </text>
<text text-anchor="start" x="244.5" y="-381.3" font-family="mono" font-size="14.00" fill="#c83500">string</text>
<polygon fill="#ddeeff" stroke="transparent" points="153.5,-352.5 153.5,-373.5 312.5,-373.5 312.5,-352.5 153.5,-352.5"/>
<polygon fill="none" stroke="#8ccbf2" points="153.5,-352.5 153.5,-373.5 312.5,-373.5 312.5,-352.5 153.5,-352.5"/>
<text text-anchor="start" x="156.5" y="-360.3" font-family="mono" font-size="14.00" fill="#c83500">scopes</text>
<text text-anchor="start" x="203.5" y="-360.3" font-family="Times,serif" font-size="14.00" fill="#000000"> : array of </text>
<text text-anchor="start" x="263.5" y="-360.3" font-family="mono" font-size="14.00" fill="#c83500">string</text>
<polygon fill="#ddeeff" stroke="transparent" points="153.5,-331.5 153.5,-352.5 312.5,-352.5 312.5,-331.5 153.5,-331.5"/>
<polygon fill="none" stroke="#8ccbf2" points="153.5,-331.5 153.5,-352.5 312.5,-352.5 312.5,-331.5 153.5,-331.5"/>
<text text-anchor="start" x="156.5" y="-339.3" font-family="mono" font-size="14.00" fill="#c83500">title</text>
<text text-anchor="start" x="183.5" y="-339.3" font-family="Times,serif" font-size="14.00" fill="#000000"> : </text>
<text text-anchor="start" x="195.5" y="-339.3" font-family="mono" font-size="14.00" fill="#c83500">string</text>
<polygon fill="#ddeeff" stroke="transparent" points="153.5,-310.5 153.5,-331.5 312.5,-331.5 312.5,-310.5 153.5,-310.5"/>
<polygon fill="none" stroke="#8ccbf2" points="153.5,-310.5 153.5,-331.5 312.5,-331.5 312.5,-310.5 153.5,-310.5"/>
<text text-anchor="start" x="156.5" y="-318.3" font-family="mono" font-size="14.00" fill="#c83500">security</text>
<text text-anchor="start" x="209.5" y="-318.3" font-family="Times,serif" font-size="14.00" fill="#000000"> : array of </text>
<text text-anchor="start" x="269.5" y="-318.3" font-family="mono" font-size="14.00" fill="#c83500">string</text>
</g>
<!-- Form -->
<g id="node3" class="node">
<title>Form</title>
<polygon fill="#8ccbf2" stroke="transparent" points="34.5,-230.5 34.5,-251.5 362.5,-251.5 362.5,-230.5 34.5,-230.5"/>
<polygon fill="none" stroke="#8ccbf2" points="34.5,-230.5 34.5,-251.5 362.5,-251.5 362.5,-230.5 34.5,-230.5"/>
<text text-anchor="start" x="180" y="-238.3" font-family="mono" font-weight="bold" font-size="14.00" fill="#c83500">Form</text>
<polygon fill="#ddeeff" stroke="transparent" points="34.5,-209.5 34.5,-230.5 362.5,-230.5 362.5,-209.5 34.5,-209.5"/>
<polygon fill="none" stroke="#8ccbf2" points="34.5,-209.5 34.5,-230.5 362.5,-230.5 362.5,-209.5 34.5,-209.5"/>
<text text-anchor="start" x="37.5" y="-217.3" font-family="mono" font-size="14.00" fill="#c83500">href</text>
<text text-anchor="start" x="65.5" y="-217.3" font-family="Times,serif" font-size="14.00" fill="#000000"> : </text>
<text text-anchor="start" x="77.5" y="-217.3" font-family="mono" font-size="14.00" fill="#c83500">anyURI</text>
<text text-anchor="start" x="125.5" y="-217.3" font-family="Times,serif" font-size="14.00" fill="#000000"> </text>
<text text-anchor="start" x="129.5" y="-217.3" font-family="Times,serif" font-style="italic" font-size="14.00" fill="#000000">(mandatory)</text>
<polygon fill="#ddeeff" stroke="transparent" points="34.5,-188.5 34.5,-209.5 362.5,-209.5 362.5,-188.5 34.5,-188.5"/>
<polygon fill="none" stroke="#8ccbf2" points="34.5,-188.5 34.5,-209.5 362.5,-209.5 362.5,-188.5 34.5,-188.5"/>
<text text-anchor="start" x="37.5" y="-196.3" font-family="mono" font-size="14.00" fill="#c83500">op</text>
<text text-anchor="start" x="56.5" y="-196.3" font-family="Times,serif" font-size="14.00" fill="#000000"> : </text>
<text text-anchor="start" x="68.5" y="-196.3" font-family="mono" font-size="14.00" fill="#c83500">string</text>
<polygon fill="#ddeeff" stroke="transparent" points="34.5,-167.5 34.5,-188.5 362.5,-188.5 362.5,-167.5 34.5,-167.5"/>
<polygon fill="none" stroke="#8ccbf2" points="34.5,-167.5 34.5,-188.5 362.5,-188.5 362.5,-167.5 34.5,-167.5"/>
<text text-anchor="start" x="37.5" y="-175.3" font-family="mono" font-size="14.00" fill="#c83500">contentType</text>
<text text-anchor="start" x="123.5" y="-175.3" font-family="Times,serif" font-size="14.00" fill="#000000"> : </text>
<text text-anchor="start" x="135.5" y="-175.3" font-family="mono" font-size="14.00" fill="#c83500">string</text>
<text text-anchor="start" x="175.5" y="-175.3" font-family="Times,serif" font-size="14.00" fill="#000000"> = application/json </text>
<text text-anchor="start" x="286.5" y="-175.3" font-family="Times,serif" font-style="italic" font-size="14.00" fill="#000000">(mandatory)</text>
<polygon fill="#ddeeff" stroke="transparent" points="34.5,-146.5 34.5,-167.5 362.5,-167.5 362.5,-146.5 34.5,-146.5"/>
<polygon fill="none" stroke="#8ccbf2" points="34.5,-146.5 34.5,-167.5 362.5,-167.5 362.5,-146.5 34.5,-146.5"/>
<text text-anchor="start" x="37.5" y="-154.3" font-family="mono" font-size="14.00" fill="#c83500">subprotocol</text>
<text text-anchor="start" x="119.5" y="-154.3" font-family="Times,serif" font-size="14.00" fill="#000000"> : </text>
<text text-anchor="start" x="131.5" y="-154.3" font-family="mono" font-size="14.00" fill="#c83500">string</text>
<polygon fill="#ddeeff" stroke="transparent" points="34.5,-125.5 34.5,-146.5 362.5,-146.5 362.5,-125.5 34.5,-125.5"/>
<polygon fill="none" stroke="#8ccbf2" points="34.5,-125.5 34.5,-146.5 362.5,-146.5 362.5,-125.5 34.5,-125.5"/>
<text text-anchor="start" x="37.5" y="-133.3" font-family="mono" font-size="14.00" fill="#c83500">scopes</text>
<text text-anchor="start" x="84.5" y="-133.3" font-family="Times,serif" font-size="14.00" fill="#000000"> : array of </text>
<text text-anchor="start" x="144.5" y="-133.3" font-family="mono" font-size="14.00" fill="#c83500">string</text>
<polygon fill="#ddeeff" stroke="transparent" points="34.5,-104.5 34.5,-125.5 362.5,-125.5 362.5,-104.5 34.5,-104.5"/>
<polygon fill="none" stroke="#8ccbf2" points="34.5,-104.5 34.5,-125.5 362.5,-125.5 362.5,-104.5 34.5,-104.5"/>
<text text-anchor="start" x="37.5" y="-112.3" font-family="mono" font-size="14.00" fill="#c83500">security</text>
<text text-anchor="start" x="90.5" y="-112.3" font-family="Times,serif" font-size="14.00" fill="#000000"> : array of </text>
<text text-anchor="start" x="150.5" y="-112.3" font-family="mono" font-size="14.00" fill="#c83500">string</text>
</g>
<!-- InteractionPattern&#45;&gt;Form -->
<g id="edge2" class="edge">
<title>InteractionPattern&#45;&gt;Form</title>
<path fill="none" stroke="#000000" d="M204.6511,-306.9471C202.5709,-300.9953 200.7859,-294.9453 199.5,-289 197.9208,-281.6988 196.7988,-274.0622 196.0316,-266.3612"/>
<polygon fill="#000000" stroke="#000000" points="199.5068,-265.9114 195.2186,-256.2232 192.5292,-266.471 199.5068,-265.9114"/>
<text text-anchor="start" x="199.5" y="-277.8" font-family="mono" font-size="14.00" fill="#c83500">forms</text>
<text text-anchor="middle" x="183.7186" y="-260.0232" font-family="Times,serif" font-size="14.00" fill="#000000">1..*</text>
</g>
<!-- DataSchema -->
<g id="node10" class="node">
<title>DataSchema</title>
<polygon fill="#f2f2f2" stroke="transparent" points="431.5,-167.5 431.5,-188.5 525.5,-188.5 525.5,-167.5 431.5,-167.5"/>
<polygon fill="none" stroke="#8c8c8c" points="431.5,-167.5 431.5,-188.5 525.5,-188.5 525.5,-167.5 431.5,-167.5"/>
<text text-anchor="start" x="434.5" y="-175.3" font-family="mono" font-weight="bold" font-size="14.00" fill="#000000">DataSchema</text>
</g>
<!-- InteractionPattern&#45;&gt;DataSchema -->
<g id="edge1" class="edge">
<title>InteractionPattern&#45;&gt;DataSchema</title>
<path fill="none" stroke="#000000" d="M241.3237,-306.7342C245.7829,-294.3535 252.4728,-282.446 262.5,-274 302.7394,-240.1062 331.2155,-276.8951 379.5,-256 407.7205,-243.7876 434.8613,-221.5473 453.5649,-204.0138"/>
<polygon fill="#000000" stroke="#000000" points="456.2557,-206.2823 461.0428,-196.8306 451.4064,-201.2341 456.2557,-206.2823"/>
<text text-anchor="start" x="262.5" y="-277.8" font-family="mono" font-size="14.00" fill="#c83500">uriVariables</text>
<text text-anchor="middle" x="449.5428" y="-200.6306" font-family="Times,serif" font-size="14.00" fill="#000000">0..1</text>
</g>
<!-- Link -->
<g id="node2" class="node">
<title>Link</title>
<polygon fill="#8ccbf2" stroke="transparent" points="621.5,-544.5 621.5,-565.5 792.5,-565.5 792.5,-544.5 621.5,-544.5"/>
<polygon fill="none" stroke="#8ccbf2" points="621.5,-544.5 621.5,-565.5 792.5,-565.5 792.5,-544.5 621.5,-544.5"/>
<text text-anchor="start" x="692.5" y="-552.3" font-family="mono" font-weight="bold" font-size="14.00" fill="#c83500">Link</text>
<polygon fill="#ddeeff" stroke="transparent" points="621.5,-523.5 621.5,-544.5 792.5,-544.5 792.5,-523.5 621.5,-523.5"/>
<polygon fill="none" stroke="#8ccbf2" points="621.5,-523.5 621.5,-544.5 792.5,-544.5 792.5,-523.5 621.5,-523.5"/>
<text text-anchor="start" x="624.5" y="-531.3" font-family="mono" font-size="14.00" fill="#c83500">type</text>
<text text-anchor="start" x="655.5" y="-531.3" font-family="Times,serif" font-size="14.00" fill="#000000"> : </text>
<text text-anchor="start" x="667.5" y="-531.3" font-family="mono" font-size="14.00" fill="#c83500">string</text>
<polygon fill="#ddeeff" stroke="transparent" points="621.5,-502.5 621.5,-523.5 792.5,-523.5 792.5,-502.5 621.5,-502.5"/>
<polygon fill="none" stroke="#8ccbf2" points="621.5,-502.5 621.5,-523.5 792.5,-523.5 792.5,-502.5 621.5,-502.5"/>
<text text-anchor="start" x="624.5" y="-510.3" font-family="mono" font-size="14.00" fill="#c83500">anchor</text>
<text text-anchor="start" x="671.5" y="-510.3" font-family="Times,serif" font-size="14.00" fill="#000000"> : </text>
<text text-anchor="start" x="683.5" y="-510.3" font-family="mono" font-size="14.00" fill="#c83500">anyURI</text>
<polygon fill="#ddeeff" stroke="transparent" points="621.5,-481.5 621.5,-502.5 792.5,-502.5 792.5,-481.5 621.5,-481.5"/>
<polygon fill="none" stroke="#8ccbf2" points="621.5,-481.5 621.5,-502.5 792.5,-502.5 792.5,-481.5 621.5,-481.5"/>
<text text-anchor="start" x="624.5" y="-489.3" font-family="mono" font-size="14.00" fill="#c83500">rel</text>
<text text-anchor="start" x="642.5" y="-489.3" font-family="Times,serif" font-size="14.00" fill="#000000"> : </text>
<text text-anchor="start" x="654.5" y="-489.3" font-family="mono" font-size="14.00" fill="#c83500">string</text>
<polygon fill="#ddeeff" stroke="transparent" points="621.5,-460.5 621.5,-481.5 792.5,-481.5 792.5,-460.5 621.5,-460.5"/>
<polygon fill="none" stroke="#8ccbf2" points="621.5,-460.5 621.5,-481.5 792.5,-481.5 792.5,-460.5 621.5,-460.5"/>
<text text-anchor="start" x="624.5" y="-468.3" font-family="mono" font-size="14.00" fill="#c83500">href</text>
<text text-anchor="start" x="652.5" y="-468.3" font-family="Times,serif" font-size="14.00" fill="#000000"> : </text>
<text text-anchor="start" x="664.5" y="-468.3" font-family="mono" font-size="14.00" fill="#c83500">anyURI</text>
<text text-anchor="start" x="712.5" y="-468.3" font-family="Times,serif" font-size="14.00" fill="#000000"> </text>
<text text-anchor="start" x="716.5" y="-468.3" font-family="Times,serif" font-style="italic" font-size="14.00" fill="#000000">(mandatory)</text>
</g>
<!-- Response -->
<g id="node4" class="node">
<title>Response</title>
<polygon fill="#8ccbf2" stroke="transparent" points="126.5,-25 126.5,-46 270.5,-46 270.5,-25 126.5,-25"/>
<polygon fill="none" stroke="#8ccbf2" points="126.5,-25 126.5,-46 270.5,-46 270.5,-25 126.5,-25"/>
<text text-anchor="start" x="165" y="-32.8" font-family="mono" font-weight="bold" font-size="14.00" fill="#c83500">Response</text>
<polygon fill="#ddeeff" stroke="transparent" points="126.5,-4 126.5,-25 270.5,-25 270.5,-4 126.5,-4"/>
<polygon fill="none" stroke="#8ccbf2" points="126.5,-4 126.5,-25 270.5,-25 270.5,-4 126.5,-4"/>
<text text-anchor="start" x="129.5" y="-11.8" font-family="mono" font-size="14.00" fill="#c83500">contentType</text>
<text text-anchor="start" x="215.5" y="-11.8" font-family="Times,serif" font-size="14.00" fill="#000000"> : </text>
<text text-anchor="start" x="227.5" y="-11.8" font-family="mono" font-size="14.00" fill="#c83500">string</text>
</g>
<!-- Form&#45;&gt;Response -->
<g id="edge3" class="edge">
<title>Form&#45;&gt;Response</title>
<path fill="none" stroke="#000000" d="M198.5,-100.8506C198.5,-86.7022 198.5,-72.5946 198.5,-60.4513"/>
<polygon fill="#000000" stroke="#000000" points="202.0001,-60.3339 198.5,-50.334 195.0001,-60.334 202.0001,-60.3339"/>
<text text-anchor="start" x="198.5" y="-71.8" font-family="mono" font-size="14.00" fill="#c83500">response</text>
<text text-anchor="middle" x="187" y="-54.134" font-family="Times,serif" font-size="14.00" fill="#000000">0..1</text>
</g>
<!-- Thing -->
<g id="node5" class="node">
<title>Thing</title>
<polygon fill="#8ccbf2" stroke="transparent" points="552.5,-772 552.5,-793 788.5,-793 788.5,-772 552.5,-772"/>
<polygon fill="none" stroke="#8ccbf2" points="552.5,-772 552.5,-793 788.5,-793 788.5,-772 552.5,-772"/>
<text text-anchor="start" x="650.5" y="-779.8" font-family="mono" font-weight="bold" font-size="14.00" fill="#c83500">Thing</text>
<polygon fill="#ddeeff" stroke="transparent" points="552.5,-751 552.5,-772 788.5,-772 788.5,-751 552.5,-751"/>
<polygon fill="none" stroke="#8ccbf2" points="552.5,-751 552.5,-772 788.5,-772 788.5,-751 552.5,-751"/>
<text text-anchor="start" x="555.5" y="-758.8" font-family="mono" font-size="14.00" fill="#c83500">base</text>
<text text-anchor="start" x="587.5" y="-758.8" font-family="Times,serif" font-size="14.00" fill="#000000"> : </text>
<text text-anchor="start" x="599.5" y="-758.8" font-family="mono" font-size="14.00" fill="#c83500">anyURI</text>
<polygon fill="#ddeeff" stroke="transparent" points="552.5,-730 552.5,-751 788.5,-751 788.5,-730 552.5,-730"/>
<polygon fill="none" stroke="#8ccbf2" points="552.5,-730 552.5,-751 788.5,-751 788.5,-730 552.5,-730"/>
<text text-anchor="start" x="555.5" y="-737.8" font-family="mono" font-size="14.00" fill="#c83500">support</text>
<text text-anchor="start" x="609.5" y="-737.8" font-family="Times,serif" font-size="14.00" fill="#000000"> : </text>
<text text-anchor="start" x="621.5" y="-737.8" font-family="mono" font-size="14.00" fill="#c83500">anyURI</text>
<polygon fill="#ddeeff" stroke="transparent" points="552.5,-709 552.5,-730 788.5,-730 788.5,-709 552.5,-709"/>
<polygon fill="none" stroke="#8ccbf2" points="552.5,-709 552.5,-730 788.5,-730 788.5,-709 552.5,-709"/>
<text text-anchor="start" x="555.5" y="-716.8" font-family="mono" font-size="14.00" fill="#c83500">created</text>
<text text-anchor="start" x="606.5" y="-716.8" font-family="Times,serif" font-size="14.00" fill="#000000"> : </text>
<text text-anchor="start" x="618.5" y="-716.8" font-family="mono" font-size="14.00" fill="#c83500">string</text>
<polygon fill="#ddeeff" stroke="transparent" points="552.5,-688 552.5,-709 788.5,-709 788.5,-688 552.5,-688"/>
<polygon fill="none" stroke="#8ccbf2" points="552.5,-688 552.5,-709 788.5,-709 788.5,-688 552.5,-688"/>
<text text-anchor="start" x="555.5" y="-695.8" font-family="mono" font-size="14.00" fill="#c83500">lastModified</text>
<text text-anchor="start" x="640.5" y="-695.8" font-family="Times,serif" font-size="14.00" fill="#000000"> : </text>
<text text-anchor="start" x="652.5" y="-695.8" font-family="mono" font-size="14.00" fill="#c83500">string</text>
<polygon fill="#ddeeff" stroke="transparent" points="552.5,-667 552.5,-688 788.5,-688 788.5,-667 552.5,-667"/>
<polygon fill="none" stroke="#8ccbf2" points="552.5,-667 552.5,-688 788.5,-688 788.5,-667 552.5,-667"/>
<text text-anchor="start" x="555.5" y="-674.8" font-family="mono" font-size="14.00" fill="#c83500">name</text>
<text text-anchor="start" x="594.5" y="-674.8" font-family="Times,serif" font-size="14.00" fill="#000000"> : </text>
<text text-anchor="start" x="606.5" y="-674.8" font-family="mono" font-size="14.00" fill="#c83500">string</text>
<text text-anchor="start" x="646.5" y="-674.8" font-family="Times,serif" font-size="14.00" fill="#000000"> </text>
<text text-anchor="start" x="650.5" y="-674.8" font-family="Times,serif" font-style="italic" font-size="14.00" fill="#000000">(mandatory)</text>
<polygon fill="#ddeeff" stroke="transparent" points="552.5,-646 552.5,-667 788.5,-667 788.5,-646 552.5,-646"/>
<polygon fill="none" stroke="#8ccbf2" points="552.5,-646 552.5,-667 788.5,-667 788.5,-646 552.5,-646"/>
<text text-anchor="start" x="555.5" y="-653.8" font-family="mono" font-size="14.00" fill="#c83500">description</text>
<text text-anchor="start" x="631.5" y="-653.8" font-family="Times,serif" font-size="14.00" fill="#000000"> : </text>
<text text-anchor="start" x="643.5" y="-653.8" font-family="mono" font-size="14.00" fill="#c83500">string</text>
<polygon fill="#ddeeff" stroke="transparent" points="552.5,-625 552.5,-646 788.5,-646 788.5,-625 552.5,-625"/>
<polygon fill="none" stroke="#8ccbf2" points="552.5,-625 552.5,-646 788.5,-646 788.5,-625 552.5,-625"/>
<text text-anchor="start" x="555.5" y="-632.8" font-family="mono" font-size="14.00" fill="#c83500">security</text>
<text text-anchor="start" x="608.5" y="-632.8" font-family="Times,serif" font-size="14.00" fill="#000000"> : array of </text>
<text text-anchor="start" x="668.5" y="-632.8" font-family="mono" font-size="14.00" fill="#c83500">string</text>
<text text-anchor="start" x="708.5" y="-632.8" font-family="Times,serif" font-size="14.00" fill="#000000"> </text>
<text text-anchor="start" x="712.5" y="-632.8" font-family="Times,serif" font-style="italic" font-size="14.00" fill="#000000">(mandatory)</text>
</g>
<!-- Thing&#45;&gt;Link -->
<g id="edge9" class="edge">
<title>Thing&#45;&gt;Link</title>
<path fill="none" stroke="#000000" d="M686.7097,-620.9725C689.2379,-607.2429 691.8137,-593.2548 694.2349,-580.1063"/>
<polygon fill="#000000" stroke="#000000" points="697.684,-580.7019 696.0529,-570.2334 690.7997,-579.4341 697.684,-580.7019"/>
<text text-anchor="start" x="692.5" y="-591.8" font-family="mono" font-size="14.00" fill="#c83500">links</text>
<text text-anchor="middle" x="684.5529" y="-574.0334" font-family="Times,serif" font-size="14.00" fill="#000000">0..*</text>
</g>
<!-- Property -->
<g id="node6" class="node">
<title>Property</title>
<polygon fill="#8ccbf2" stroke="transparent" points="8.5,-513.5 8.5,-534.5 199.5,-534.5 199.5,-513.5 8.5,-513.5"/>
<polygon fill="none" stroke="#8ccbf2" points="8.5,-513.5 8.5,-534.5 199.5,-534.5 199.5,-513.5 8.5,-513.5"/>
<text text-anchor="start" x="73.5" y="-521.3" font-family="mono" font-weight="bold" font-size="14.00" fill="#c83500">Property</text>
<polygon fill="#ddeeff" stroke="transparent" points="8.5,-492.5 8.5,-513.5 199.5,-513.5 199.5,-492.5 8.5,-492.5"/>
<polygon fill="none" stroke="#8ccbf2" points="8.5,-492.5 8.5,-513.5 199.5,-513.5 199.5,-492.5 8.5,-492.5"/>
<text text-anchor="start" x="11.5" y="-500.3" font-family="mono" font-size="14.00" fill="#c83500">observable</text>
<text text-anchor="start" x="86.5" y="-500.3" font-family="Times,serif" font-size="14.00" fill="#000000"> : </text>
<text text-anchor="start" x="98.5" y="-500.3" font-family="mono" font-size="14.00" fill="#c83500">boolean</text>
<text text-anchor="start" x="154.5" y="-500.3" font-family="Times,serif" font-size="14.00" fill="#000000"> = false</text>
</g>
<!-- Thing&#45;&gt;Property -->
<g id="edge7" class="edge">
<title>Thing&#45;&gt;Property</title>
<path fill="none" stroke="#000000" d="M544.2758,-676.4433C452.0843,-651.2042 324.8029,-613.3048 216.5,-570 197.1627,-562.268 176.625,-552.4992 158.4374,-543.2681"/>
<polygon fill="#000000" stroke="#000000" points="159.6539,-539.9583 149.1595,-538.5035 156.4561,-546.1852 159.6539,-539.9583"/>
<text text-anchor="start" x="302.5" y="-591.8" font-family="mono" font-size="14.00" fill="#c83500">properties</text>
<text text-anchor="middle" x="137.6595" y="-542.3035" font-family="Times,serif" font-size="14.00" fill="#000000">0..1</text>
</g>
<!-- Action -->
<g id="node7" class="node">
<title>Action</title>
<polygon fill="#8ccbf2" stroke="transparent" points="233.5,-523.5 233.5,-544.5 507.5,-544.5 507.5,-523.5 233.5,-523.5"/>
<polygon fill="none" stroke="#8ccbf2" points="233.5,-523.5 233.5,-544.5 507.5,-544.5 507.5,-523.5 233.5,-523.5"/>
<text text-anchor="start" x="347.5" y="-531.3" font-family="mono" font-weight="bold" font-size="14.00" fill="#c83500">Action</text>
<polygon fill="#ddeeff" stroke="transparent" points="233.5,-502.5 233.5,-523.5 507.5,-523.5 507.5,-502.5 233.5,-502.5"/>
<polygon fill="none" stroke="#8ccbf2" points="233.5,-502.5 233.5,-523.5 507.5,-523.5 507.5,-502.5 233.5,-502.5"/>
<text text-anchor="start" x="236.5" y="-510.3" font-family="mono" font-size="14.00" fill="#c83500">safe</text>
<text text-anchor="start" x="264.5" y="-510.3" font-family="Times,serif" font-size="14.00" fill="#000000"> : </text>
<text text-anchor="start" x="276.5" y="-510.3" font-family="mono" font-size="14.00" fill="#c83500">boolean</text>
<text text-anchor="start" x="332.5" y="-510.3" font-family="Times,serif" font-size="14.00" fill="#000000"> = false </text>
<text text-anchor="start" x="378.5" y="-510.3" font-family="Times,serif" font-style="italic" font-size="14.00" fill="#000000">(mandatory)</text>
<polygon fill="#ddeeff" stroke="transparent" points="233.5,-481.5 233.5,-502.5 507.5,-502.5 507.5,-481.5 233.5,-481.5"/>
<polygon fill="none" stroke="#8ccbf2" points="233.5,-481.5 233.5,-502.5 507.5,-502.5 507.5,-481.5 233.5,-481.5"/>
<text text-anchor="start" x="236.5" y="-489.3" font-family="mono" font-size="14.00" fill="#c83500">idempotent</text>
<text text-anchor="start" x="317.5" y="-489.3" font-family="Times,serif" font-size="14.00" fill="#000000"> : </text>
<text text-anchor="start" x="329.5" y="-489.3" font-family="mono" font-size="14.00" fill="#c83500">boolean</text>
<text text-anchor="start" x="385.5" y="-489.3" font-family="Times,serif" font-size="14.00" fill="#000000"> = false </text>
<text text-anchor="start" x="431.5" y="-489.3" font-family="Times,serif" font-style="italic" font-size="14.00" fill="#000000">(mandatory)</text>
</g>
<!-- Thing&#45;&gt;Action -->
<g id="edge4" class="edge">
<title>Thing&#45;&gt;Action</title>
<path fill="none" stroke="#000000" d="M544.1425,-626.657C505.9233,-601.7509 465.6036,-575.4758 433.4468,-554.5203"/>
<polygon fill="#000000" stroke="#000000" points="435.3178,-551.5621 425.0289,-549.0346 431.496,-557.4267 435.3178,-551.5621"/>
<text text-anchor="start" x="503.5" y="-591.8" font-family="mono" font-size="14.00" fill="#c83500">actions</text>
<text text-anchor="middle" x="413.5289" y="-552.8346" font-family="Times,serif" font-size="14.00" fill="#000000">0..1</text>
</g>
<!-- Event -->
<g id="node8" class="node">
<title>Event</title>
<polygon fill="#8ccbf2" stroke="transparent" points="542.5,-502.5 542.5,-523.5 587.5,-523.5 587.5,-502.5 542.5,-502.5"/>
<polygon fill="none" stroke="#8ccbf2" points="542.5,-502.5 542.5,-523.5 587.5,-523.5 587.5,-502.5 542.5,-502.5"/>
<text text-anchor="start" x="545.5" y="-510.3" font-family="mono" font-weight="bold" font-size="14.00" fill="#c83500">Event</text>
</g>
<!-- Thing&#45;&gt;Event -->
<g id="edge6" class="edge">
<title>Thing&#45;&gt;Event</title>
<path fill="none" stroke="#000000" d="M622.7715,-620.9725C606.9507,-591.7935 590.497,-561.4473 579.1248,-540.4731"/>
<polygon fill="#000000" stroke="#000000" points="582.1211,-538.6563 574.2778,-531.5336 575.9675,-541.9928 582.1211,-538.6563"/>
<text text-anchor="start" x="611.5" y="-591.8" font-family="mono" font-size="14.00" fill="#c83500">events</text>
<text text-anchor="middle" x="562.7778" y="-535.3336" font-family="Times,serif" font-size="14.00" fill="#000000">0..1</text>
</g>
<!-- Versioning -->
<g id="node9" class="node">
<title>Versioning</title>
<polygon fill="#8ccbf2" stroke="transparent" points="826.5,-513.5 826.5,-534.5 1018.5,-534.5 1018.5,-513.5 826.5,-513.5"/>
<polygon fill="none" stroke="#8ccbf2" points="826.5,-513.5 826.5,-534.5 1018.5,-534.5 1018.5,-513.5 826.5,-513.5"/>
<text text-anchor="start" x="885" y="-521.3" font-family="mono" font-weight="bold" font-size="14.00" fill="#c83500">Versioning</text>
<polygon fill="#ddeeff" stroke="transparent" points="826.5,-492.5 826.5,-513.5 1018.5,-513.5 1018.5,-492.5 826.5,-492.5"/>
<polygon fill="none" stroke="#8ccbf2" points="826.5,-492.5 826.5,-513.5 1018.5,-513.5 1018.5,-492.5 826.5,-492.5"/>
<text text-anchor="start" x="829.5" y="-500.3" font-family="mono" font-size="14.00" fill="#c83500">instance</text>
<text text-anchor="start" x="886.5" y="-500.3" font-family="Times,serif" font-size="14.00" fill="#000000"> : </text>
<text text-anchor="start" x="898.5" y="-500.3" font-family="mono" font-size="14.00" fill="#c83500">string</text>
<text text-anchor="start" x="938.5" y="-500.3" font-family="Times,serif" font-size="14.00" fill="#000000"> </text>
<text text-anchor="start" x="942.5" y="-500.3" font-family="Times,serif" font-style="italic" font-size="14.00" fill="#000000">(mandatory)</text>
</g>
<!-- Thing&#45;&gt;Versioning -->
<g id="edge5" class="edge">
<title>Thing&#45;&gt;Versioning</title>
<path fill="none" stroke="#000000" d="M783.9677,-620.9725C819.1301,-593.6937 855.6073,-565.395 882.2995,-544.6873"/>
<polygon fill="#000000" stroke="#000000" points="884.5012,-547.409 890.2569,-538.514 880.2104,-541.8782 884.5012,-547.409"/>
<text text-anchor="start" x="819.5" y="-591.8" font-family="mono" font-size="14.00" fill="#c83500">version</text>
<text text-anchor="middle" x="878.7569" y="-542.314" font-family="Times,serif" font-size="14.00" fill="#000000">0..1</text>
</g>
<!-- SecurityScheme -->
<g id="node11" class="node">
<title>SecurityScheme</title>
<polygon fill="#f2f2f2" stroke="transparent" points="1053.5,-502.5 1053.5,-523.5 1170.5,-523.5 1170.5,-502.5 1053.5,-502.5"/>
<polygon fill="none" stroke="#8c8c8c" points="1053.5,-502.5 1053.5,-523.5 1170.5,-523.5 1170.5,-502.5 1053.5,-502.5"/>
<text text-anchor="start" x="1056.5" y="-510.3" font-family="mono" font-weight="bold" font-size="14.00" fill="#000000">SecurityScheme</text>
</g>
<!-- Thing&#45;&gt;SecurityScheme -->
<g id="edge8" class="edge">
<title>Thing&#45;&gt;SecurityScheme</title>
<path fill="none" stroke="#000000" d="M796.7699,-670.5126C868.8595,-646.2091 959.6942,-611.5677 1035.5,-570 1051.8554,-561.0316 1068.641,-548.9155 1082.2631,-538.203"/>
<polygon fill="#000000" stroke="#000000" points="1084.692,-540.7417 1090.3039,-531.7551 1080.3128,-535.2806 1084.692,-540.7417"/>
<text text-anchor="start" x="998.5" y="-591.8" font-family="mono" font-size="14.00" fill="#c83500">securityDefinitions</text>
<text text-anchor="middle" x="1078.8039" y="-535.5551" font-family="Times,serif" font-size="14.00" fill="#000000">0..1</text>
</g>
<!-- Property&#45;&gt;InteractionPattern -->
<g id="edge16" class="edge">
<title>Property&#45;&gt;InteractionPattern</title>
<path fill="none" stroke="#000000" d="M125.0917,-488.3934C139.3369,-471.8291 158.6925,-449.3226 177.0503,-427.9764"/>
<polygon fill="#ffffff" stroke="#000000" points="179.8904,-430.0417 183.7572,-420.1777 174.5831,-425.4774 179.8904,-430.0417"/>
</g>
<!-- Action&#45;&gt;InteractionPattern -->
<g id="edge15" class="edge">
<title>Action&#45;&gt;InteractionPattern</title>
<path fill="none" stroke="#000000" d="M337.7959,-477.9521C324.0414,-463.0015 307.5968,-445.127 291.8381,-427.998"/>
<polygon fill="#ffffff" stroke="#000000" points="294.0044,-425.1832 284.6581,-420.1935 288.8529,-429.9226 294.0044,-425.1832"/>
</g>
<!-- Action&#45;&gt;DataSchema -->
<g id="edge10" class="edge">
<title>Action&#45;&gt;DataSchema</title>
<path fill="none" stroke="#000000" d="M385.5016,-477.8206C392.5552,-460.5038 400.8548,-439.314 407.5,-420 433.8152,-343.5164 459.1914,-251.3929 471.2314,-206.2222"/>
<polygon fill="#000000" stroke="#000000" points="474.6158,-207.1138 473.7963,-196.5507 467.8497,-205.3194 474.6158,-207.1138"/>
<text text-anchor="start" x="442.5" y="-359.8" font-family="mono" font-size="14.00" fill="#c83500">input</text>
<text text-anchor="middle" x="485.2963" y="-200.3507" font-family="Times,serif" font-size="14.00" fill="#000000">0..1</text>
</g>
<!-- Action&#45;&gt;DataSchema -->
<g id="edge11" class="edge">
<title>Action&#45;&gt;DataSchema</title>
<path fill="none" stroke="#000000" d="M358.9492,-477.7037C347.3019,-435.329 333.9905,-363.4009 356.5,-307 374.01,-263.126 414.4117,-225.6505 443.9412,-202.6841"/>
<polygon fill="#000000" stroke="#000000" points="446.1076,-205.4339 451.9537,-196.5979 441.8734,-199.8596 446.1076,-205.4339"/>
<text text-anchor="start" x="356.5" y="-359.8" font-family="mono" font-size="14.00" fill="#c83500">output</text>
<text text-anchor="middle" x="440.4537" y="-200.3979" font-family="Times,serif" font-size="14.00" fill="#000000">0..1</text>
</g>
<!-- Event&#45;&gt;InteractionPattern -->
<g id="edge17" class="edge">
<title>Event&#45;&gt;InteractionPattern</title>
<path fill="none" stroke="#000000" d="M556.2964,-495.3753C549.5745,-482.6312 538.8353,-466.2602 524.5,-457 452.2353,-410.3192 415.3417,-449.4261 334.5,-420 332.8652,-419.405 331.2253,-418.7862 329.5824,-418.146"/>
<polygon fill="#ffffff" stroke="#000000" points="330.7345,-414.8353 320.1553,-414.2604 328.067,-421.3071 330.7345,-414.8353"/>
</g>
<!-- Event&#45;&gt;DataSchema -->
<g id="edge12" class="edge">
<title>Event&#45;&gt;DataSchema</title>
<path fill="none" stroke="#000000" d="M555.8712,-495.2458C547.3787,-476.6652 534.5467,-446.8557 526.5,-420 503.8395,-344.3706 488.8921,-252.1668 482.3233,-206.6694"/>
<polygon fill="#000000" stroke="#000000" points="485.7735,-206.0703 480.9053,-196.6602 478.8427,-207.0522 485.7735,-206.0703"/>
<text text-anchor="start" x="526.5" y="-359.8" font-family="mono" font-size="14.00" fill="#c83500">data</text>
<text text-anchor="middle" x="469.4053" y="-200.4602" font-family="Times,serif" font-size="14.00" fill="#000000">0..1</text>
</g>
<!-- Event&#45;&gt;DataSchema -->
<g id="edge13" class="edge">
<title>Event&#45;&gt;DataSchema</title>
<path fill="none" stroke="#000000" d="M566.7858,-495.3255C570.7439,-458.7428 576.6488,-373.9971 556.5,-307 544.8687,-268.3246 518.7963,-229.4506 499.9928,-204.7513"/>
<polygon fill="#000000" stroke="#000000" points="502.5806,-202.3775 493.6805,-196.6296 497.0536,-206.6732 502.5806,-202.3775"/>
<text text-anchor="start" x="571.5" y="-359.8" font-family="mono" font-size="14.00" fill="#c83500">cancellation</text>
<text text-anchor="middle" x="505.1805" y="-200.4296" font-family="Times,serif" font-size="14.00" fill="#000000">0..1</text>
</g>
<!-- Event&#45;&gt;DataSchema -->
<g id="edge14" class="edge">
<title>Event&#45;&gt;DataSchema</title>
<path fill="none" stroke="#000000" d="M575.181,-495.2633C582.5439,-483.5703 593.0409,-468.4863 604.5,-457 624.5329,-436.9195 643.498,-445.2089 656.5,-420 679.5214,-375.365 679.3684,-351.7136 656.5,-307 630.792,-256.7341 575.2372,-221.6152 532.9841,-200.9441"/>
<polygon fill="#000000" stroke="#000000" points="534.4485,-197.7649 523.9149,-196.6269 531.4398,-204.0853 534.4485,-197.7649"/>
<text text-anchor="start" x="674.5" y="-359.8" font-family="mono" font-size="14.00" fill="#c83500">subscription</text>
<text text-anchor="middle" x="535.4149" y="-200.4269" font-family="Times,serif" font-size="14.00" fill="#000000">0..1</text>
</g>
</g>
</svg>
