<?xml version="1.0" encoding="UTF-8" standalone="no"?>
<!DOCTYPE svg PUBLIC "-//W3C//DTD SVG 1.1//EN"
 "http://www.w3.org/Graphics/SVG/1.1/DTD/svg11.dtd">
<!-- Generated by graphviz version 2.38.0 (20140413.2041)
 -->
<!-- Title: %3 Pages: 1 -->
<svg width="1402pt" height="599pt"
 viewBox="0.00 0.00 1402.08 599.00" xmlns="http://www.w3.org/2000/svg" xmlns:xlink="http://www.w3.org/1999/xlink">
<g id="graph0" class="graph" transform="scale(1 1) rotate(0) translate(4 595)">
<title>%3</title>
<polygon fill="white" stroke="none" points="-4,4 -4,-595 1398.08,-595 1398.08,4 -4,4"/>
<!-- ActionAffordance -->
<g id="node1" class="node"><title>ActionAffordance</title>
<polygon fill="#8ccbf2" stroke="none" points="580.583,-254.5 580.583,-275.5 739.583,-275.5 739.583,-254.5 580.583,-254.5"/>
<polygon fill="none" stroke="#8ccbf2" points="580.583,-254.5 580.583,-275.5 739.583,-275.5 739.583,-254.5 580.583,-254.5"/>
<text text-anchor="start" x="593.583" y="-262.3" font-family="mono" font-weight="bold" font-size="14.00" fill="#c83500">ActionAffordance</text>
<polygon fill="#ddeeff" stroke="none" points="580.583,-233.5 580.583,-254.5 739.583,-254.5 739.583,-233.5 580.583,-233.5"/>
<polygon fill="none" stroke="#8ccbf2" points="580.583,-233.5 580.583,-254.5 739.583,-254.5 739.583,-233.5 580.583,-233.5"/>
<text text-anchor="start" x="583.583" y="-241.3" font-family="mono" font-size="14.00" fill="#c83500">safe</text>
<text text-anchor="start" x="617.583" y="-241.3" font-family="Times,serif" font-size="14.00"> : </text>
<text text-anchor="start" x="629.583" y="-241.3" font-family="mono" font-size="14.00" fill="#c83500">boolean</text>
<polygon fill="#ddeeff" stroke="none" points="580.583,-212.5 580.583,-233.5 739.583,-233.5 739.583,-212.5 580.583,-212.5"/>
<polygon fill="none" stroke="#8ccbf2" points="580.583,-212.5 580.583,-233.5 739.583,-233.5 739.583,-212.5 580.583,-212.5"/>
<text text-anchor="start" x="583.583" y="-220.3" font-family="mono" font-size="14.00" fill="#c83500">idempotent</text>
<text text-anchor="start" x="666.583" y="-220.3" font-family="Times,serif" font-size="14.00"> : </text>
<text text-anchor="start" x="678.583" y="-220.3" font-family="mono" font-size="14.00" fill="#c83500">boolean</text>
</g>
<!-- InteractionAffordance -->
<g id="node3" class="node"><title>InteractionAffordance</title>
<polygon fill="#8ccbf2" stroke="none" points="332.583,-132.5 332.583,-153.5 741.583,-153.5 741.583,-132.5 332.583,-132.5"/>
<polygon fill="none" stroke="#8ccbf2" points="332.583,-132.5 332.583,-153.5 741.583,-153.5 741.583,-132.5 332.583,-132.5"/>
<text text-anchor="start" x="450.083" y="-140.3" font-family="mono" font-weight="bold" font-size="14.00" fill="#c83500">InteractionAffordance</text>
<polygon fill="#ddeeff" stroke="none" points="332.583,-111.5 332.583,-132.5 741.583,-132.5 741.583,-111.5 332.583,-111.5"/>
<polygon fill="none" stroke="#8ccbf2" points="332.583,-111.5 332.583,-132.5 741.583,-132.5 741.583,-111.5 332.583,-111.5"/>
<text text-anchor="start" x="335.583" y="-119.3" font-family="mono" font-size="14.00" fill="#c83500">title</text>
<text text-anchor="start" x="377.583" y="-119.3" font-family="Times,serif" font-size="14.00"> : Map of </text>
<text text-anchor="start" x="433.583" y="-119.3" font-family="mono" font-size="14.00" fill="#c83500">string</text>
<text text-anchor="start" x="483.583" y="-119.3" font-family="mono" font-size="14.00" fill="#c83500">titles</text>
<text text-anchor="start" x="533.583" y="-119.3" font-family="Times,serif" font-size="14.00"> : Map of </text>
<text text-anchor="start" x="589.583" y="-119.3" font-family="mono" font-size="14.00" fill="#c83500">string</text>
<polygon fill="#ddeeff" stroke="none" points="332.583,-90.5 332.583,-111.5 741.583,-111.5 741.583,-90.5 332.583,-90.5"/>
<polygon fill="none" stroke="#8ccbf2" points="332.583,-90.5 332.583,-111.5 741.583,-111.5 741.583,-90.5 332.583,-90.5"/>
<text text-anchor="start" x="335.583" y="-98.3" font-family="mono" font-size="14.00" fill="#c83500">description</text>
<text text-anchor="start" x="426.583" y="-98.3" font-family="Times,serif" font-size="14.00"> : Map of </text>
<text text-anchor="start" x="482.583" y="-98.3" font-family="mono" font-size="14.00" fill="#c83500">string</text>
<text text-anchor="start" x="532.583" y="-98.3" font-family="mono" font-size="14.00" fill="#c83500">descriptions</text>
<text text-anchor="start" x="632.583" y="-98.3" font-family="Times,serif" font-size="14.00"> : Map of </text>
<text text-anchor="start" x="688.583" y="-98.3" font-family="mono" font-size="14.00" fill="#c83500">string</text>
</g>
<!-- ActionAffordance&#45;&gt;InteractionAffordance -->
<g id="edge16" class="edge"><title>ActionAffordance&#45;&gt;InteractionAffordance</title>
<path fill="none" stroke="black" d="M624.007,-208.791C610.11,-195.234 594.053,-179.568 579.521,-165.39"/>
<polygon fill="white" stroke="black" points="581.682,-162.609 572.08,-158.131 576.794,-167.619 581.682,-162.609"/>
</g>
<!-- DataSchema -->
<g id="node9" class="node"><title>DataSchema</title>
<polygon fill="#f2f2f2" stroke="none" points="252.583,-7 252.583,-28 341.583,-28 341.583,-7 252.583,-7"/>
<polygon fill="none" stroke="#8c8c8c" points="252.583,-7 252.583,-28 341.583,-28 341.583,-7 252.583,-7"/>
<text text-anchor="start" x="255.583" y="-14.8" font-family="mono" font-weight="bold" font-size="14.00">DataSchema</text>
</g>
<!-- ActionAffordance&#45;&gt;DataSchema -->
<g id="edge5" class="edge"><title>ActionAffordance&#45;&gt;DataSchema</title>
<path fill="none" stroke="black" d="M715.287,-208.806C732.086,-195.218 748.472,-178.041 757.583,-158 770.643,-129.274 778.204,-110.886 757.583,-87 706.893,-28.2847 473.471,-19.378 359.52,-18.6051"/>
<polygon fill="black" stroke="black" points="359.223,-15.1037 349.206,-18.5552 359.189,-22.1037 359.223,-15.1037"/>
<text text-anchor="start" x="770.583" y="-118.8" font-family="mono" font-size="14.00" fill="#c83500">input</text>
<text text-anchor="middle" x="360.206" y="-22.3552" font-family="Times,serif" font-size="14.00">0..1</text>
</g>
<!-- ActionAffordance&#45;&gt;DataSchema -->
<g id="edge6" class="edge"><title>ActionAffordance&#45;&gt;DataSchema</title>
<path fill="none" stroke="black" d="M740.408,-208.85C774.006,-192.646 807.349,-173.543 816.583,-158 832.7,-130.871 834.458,-113.005 816.583,-87 793.393,-53.2621 770.505,-63.0713 730.583,-54 600.781,-24.5055 444.203,-19.0268 359.101,-18.4803"/>
<polygon fill="black" stroke="black" points="359.099,-14.9804 349.084,-18.4369 359.068,-21.9803 359.099,-14.9804"/>
<text text-anchor="start" x="829.583" y="-118.8" font-family="mono" font-size="14.00" fill="#c83500">output</text>
<text text-anchor="middle" x="360.084" y="-7.23687" font-family="Times,serif" font-size="14.00">0..1</text>
</g>
<!-- EventAffordance -->
<g id="node2" class="node"><title>EventAffordance</title>
<polygon fill="#8ccbf2" stroke="none" points="140.583,-233.5 140.583,-254.5 270.583,-254.5 270.583,-233.5 140.583,-233.5"/>
<polygon fill="none" stroke="#8ccbf2" points="140.583,-233.5 140.583,-254.5 270.583,-254.5 270.583,-233.5 140.583,-233.5"/>
<text text-anchor="start" x="143.583" y="-241.3" font-family="mono" font-weight="bold" font-size="14.00" fill="#c83500">EventAffordance</text>
</g>
<!-- EventAffordance&#45;&gt;InteractionAffordance -->
<g id="edge17" class="edge"><title>EventAffordance&#45;&gt;InteractionAffordance</title>
<path fill="none" stroke="black" d="M252.656,-226.434C299.077,-209.605 371.602,-183.312 431.731,-161.513"/>
<polygon fill="white" stroke="black" points="433.061,-164.754 441.269,-158.055 430.675,-158.173 433.061,-164.754"/>
</g>
<!-- EventAffordance&#45;&gt;DataSchema -->
<g id="edge7" class="edge"><title>EventAffordance&#45;&gt;DataSchema</title>
<path fill="none" stroke="black" d="M132.545,-231.186C90.0417,-219.865 39.8146,-198.396 13.5832,-158 -3.60226,-131.535 -5.18879,-112.365 13.5832,-87 39.4577,-52.0385 158.51,-33.3474 233.721,-24.8542"/>
<polygon fill="black" stroke="black" points="234.47,-28.2931 244.028,-23.7228 233.706,-21.3349 234.47,-28.2931"/>
<text text-anchor="start" x="13.5832" y="-118.8" font-family="mono" font-size="14.00" fill="#c83500">subscription</text>
<text text-anchor="middle" x="233.028" y="-12.5228" font-family="Times,serif" font-size="14.00">0..1</text>
</g>
<!-- EventAffordance&#45;&gt;DataSchema -->
<g id="edge8" class="edge"><title>EventAffordance&#45;&gt;DataSchema</title>
<path fill="none" stroke="black" d="M189.983,-226.383C176.317,-210.14 157.446,-184.356 149.583,-158 140.562,-127.761 135.789,-115.381 149.583,-87 165.179,-54.9131 201.422,-37.9286 234.017,-28.9582"/>
<polygon fill="black" stroke="black" points="235.159,-32.2793 243.989,-26.4237 233.435,-25.495 235.159,-32.2793"/>
<text text-anchor="start" x="149.583" y="-118.8" font-family="mono" font-size="14.00" fill="#c83500">data</text>
<text text-anchor="middle" x="232.989" y="-30.2237" font-family="Times,serif" font-size="14.00">0..1</text>
</g>
<!-- EventAffordance&#45;&gt;DataSchema -->
<g id="edge9" class="edge"><title>EventAffordance&#45;&gt;DataSchema</title>
<path fill="none" stroke="black" d="M202.342,-226.385C197.533,-196.331 191.382,-132.907 214.583,-87 223.874,-68.6164 240.602,-53.358 256.536,-41.9849"/>
<polygon fill="black" stroke="black" points="258.944,-44.5811 265.255,-36.0712 255.014,-38.788 258.944,-44.5811"/>
<text text-anchor="start" x="214.583" y="-118.8" font-family="mono" font-size="14.00" fill="#c83500">cancellation</text>
<text text-anchor="middle" x="276.255" y="-39.8712" font-family="Times,serif" font-size="14.00">0..1</text>
</g>
<!-- Form -->
<g id="node7" class="node"><title>Form</title>
<polygon fill="#f2f2f2" stroke="none" points="957.583,-7 957.583,-28 997.583,-28 997.583,-7 957.583,-7"/>
<polygon fill="none" stroke="#8c8c8c" points="957.583,-7 957.583,-28 997.583,-28 997.583,-7 957.583,-7"/>
<text text-anchor="start" x="960.583" y="-14.8" font-family="mono" font-weight="bold" font-size="14.00">Form</text>
</g>
<!-- InteractionAffordance&#45;&gt;Form -->
<g id="edge1" class="edge"><title>InteractionAffordance&#45;&gt;Form</title>
<path fill="none" stroke="black" d="M685.271,-86.9411C775.43,-65.9858 883.569,-40.8513 939.654,-27.8158"/>
<polygon fill="black" stroke="black" points="940.556,-31.1995 949.504,-25.5263 938.971,-24.3812 940.556,-31.1995"/>
<text text-anchor="start" x="822.583" y="-57.8" font-family="mono" font-size="14.00" fill="#c83500">forms</text>
<text text-anchor="middle" x="938.504" y="-29.3263" font-family="Times,serif" font-size="14.00">1..*</text>
</g>
<!-- InteractionAffordance&#45;&gt;DataSchema -->
<g id="edge11" class="edge"><title>InteractionAffordance&#45;&gt;DataSchema</title>
<path fill="none" stroke="black" d="M455.665,-86.9411C419.284,-71.4034 377.523,-53.568 345.919,-40.0707"/>
<polygon fill="black" stroke="black" points="347.026,-36.7374 336.455,-36.0285 344.276,-43.1749 347.026,-36.7374"/>
<text text-anchor="start" x="409.583" y="-57.8" font-family="mono" font-size="14.00" fill="#c83500">uriVariables</text>
<text text-anchor="middle" x="325.455" y="-39.8285" font-family="Times,serif" font-size="14.00">0..*</text>
</g>
<!-- PropertyAffordance -->
<g id="node4" class="node"><title>PropertyAffordance</title>
<polygon fill="#8ccbf2" stroke="none" points="387.583,-244.5 387.583,-265.5 546.583,-265.5 546.583,-244.5 387.583,-244.5"/>
<polygon fill="none" stroke="#8ccbf2" points="387.583,-244.5 387.583,-265.5 546.583,-265.5 546.583,-244.5 387.583,-244.5"/>
<text text-anchor="start" x="392.583" y="-252.3" font-family="mono" font-weight="bold" font-size="14.00" fill="#c83500">PropertyAffordance</text>
<polygon fill="#ddeeff" stroke="none" points="387.583,-223.5 387.583,-244.5 546.583,-244.5 546.583,-223.5 387.583,-223.5"/>
<polygon fill="none" stroke="#8ccbf2" points="387.583,-223.5 387.583,-244.5 546.583,-244.5 546.583,-223.5 387.583,-223.5"/>
<text text-anchor="start" x="390.583" y="-231.3" font-family="mono" font-size="14.00" fill="#c83500">observable</text>
<text text-anchor="start" x="473.583" y="-231.3" font-family="Times,serif" font-size="14.00"> : </text>
<text text-anchor="start" x="485.583" y="-231.3" font-family="mono" font-size="14.00" fill="#c83500">boolean</text>
</g>
<!-- PropertyAffordance&#45;&gt;InteractionAffordance -->
<g id="edge18" class="edge"><title>PropertyAffordance&#45;&gt;InteractionAffordance</title>
<path fill="none" stroke="black" d="M480.749,-219.216C489.458,-204.286 500.873,-184.718 511.11,-167.168"/>
<polygon fill="white" stroke="black" points="514.321,-168.61 516.336,-158.209 508.274,-165.083 514.321,-168.61"/>
</g>
<!-- Thing -->
<g id="node5" class="node"><title>Thing</title>
<polygon fill="#8ccbf2" stroke="none" points="742.583,-566 742.583,-587 1151.58,-587 1151.58,-566 742.583,-566"/>
<polygon fill="none" stroke="#8ccbf2" points="742.583,-566 742.583,-587 1151.58,-587 1151.58,-566 742.583,-566"/>
<text text-anchor="start" x="926.083" y="-573.8" font-family="mono" font-weight="bold" font-size="14.00" fill="#c83500">Thing</text>
<polygon fill="#ddeeff" stroke="none" points="742.583,-545 742.583,-566 1151.58,-566 1151.58,-545 742.583,-545"/>
<polygon fill="none" stroke="#8ccbf2" points="742.583,-545 742.583,-566 1151.58,-566 1151.58,-545 742.583,-545"/>
<text text-anchor="start" x="745.583" y="-552.8" font-family="mono" font-size="14.00" fill="#c83500">@context</text>
<text text-anchor="start" x="812.583" y="-552.8" font-family="Times,serif" font-size="14.00"> : </text>
<text text-anchor="start" x="824.583" y="-552.8" font-family="mono" font-style="italic" font-size="14.00" fill="#c83500">anyURI</text>
<text text-anchor="start" x="874.583" y="-552.8" font-family="Times,serif" font-style="italic" font-size="14.00"> or Array</text>
<text text-anchor="start" x="926.583" y="-552.8" font-family="Times,serif" font-size="14.00"> </text>
<text text-anchor="start" x="930.583" y="-552.8" font-family="Times,serif" font-style="italic" font-size="14.00">(mandatory)</text>
<polygon fill="#ddeeff" stroke="none" points="742.583,-524 742.583,-545 1151.58,-545 1151.58,-524 742.583,-524"/>
<polygon fill="none" stroke="#8ccbf2" points="742.583,-524 742.583,-545 1151.58,-545 1151.58,-524 742.583,-524"/>
<text text-anchor="start" x="745.583" y="-531.8" font-family="mono" font-size="14.00" fill="#c83500">@type</text>
<text text-anchor="start" x="787.583" y="-531.8" font-family="Times,serif" font-size="14.00"> : </text>
<text text-anchor="start" x="799.583" y="-531.8" font-family="Times,serif" font-style="italic" font-size="14.00">(Array of) </text>
<text text-anchor="start" x="858.583" y="-531.8" font-family="mono" font-size="14.00" fill="#c83500">string</text>
<polygon fill="#ddeeff" stroke="none" points="742.583,-503 742.583,-524 1151.58,-524 1151.58,-503 742.583,-503"/>
<polygon fill="none" stroke="#8ccbf2" points="742.583,-503 742.583,-524 1151.58,-524 1151.58,-503 742.583,-503"/>
<text text-anchor="start" x="745.583" y="-510.8" font-family="mono" font-size="14.00" fill="#c83500">id</text>
<text text-anchor="start" x="762.583" y="-510.8" font-family="Times,serif" font-size="14.00"> : </text>
<text text-anchor="start" x="774.583" y="-510.8" font-family="mono" font-size="14.00" fill="#c83500">anyURI</text>
<text text-anchor="start" x="824.583" y="-510.8" font-family="Times,serif" font-size="14.00"> </text>
<text text-anchor="start" x="828.583" y="-510.8" font-family="Times,serif" font-style="italic" font-size="14.00">(mandatory)</text>
<polygon fill="#ddeeff" stroke="none" points="742.583,-482 742.583,-503 1151.58,-503 1151.58,-482 742.583,-482"/>
<polygon fill="none" stroke="#8ccbf2" points="742.583,-482 742.583,-503 1151.58,-503 1151.58,-482 742.583,-482"/>
<text text-anchor="start" x="745.583" y="-489.8" font-family="mono" font-size="14.00" fill="#c83500">title</text>
<text text-anchor="start" x="787.583" y="-489.8" font-family="Times,serif" font-size="14.00"> : Map of </text>
<text text-anchor="start" x="843.583" y="-489.8" font-family="mono" font-size="14.00" fill="#c83500">string</text>
<text text-anchor="start" x="893.583" y="-489.8" font-family="Times,serif" font-size="14.00"> </text>
<text text-anchor="start" x="897.583" y="-489.8" font-family="Times,serif" font-style="italic" font-size="14.00">(mandatory)</text>
<text text-anchor="start" x="965.583" y="-489.8" font-family="mono" font-size="14.00" fill="#c83500">titles</text>
<text text-anchor="start" x="1015.58" y="-489.8" font-family="Times,serif" font-size="14.00"> : Map of </text>
<text text-anchor="start" x="1071.58" y="-489.8" font-family="mono" font-size="14.00" fill="#c83500">string</text>
<polygon fill="#ddeeff" stroke="none" points="742.583,-461 742.583,-482 1151.58,-482 1151.58,-461 742.583,-461"/>
<polygon fill="none" stroke="#8ccbf2" points="742.583,-461 742.583,-482 1151.58,-482 1151.58,-461 742.583,-461"/>
<text text-anchor="start" x="745.583" y="-468.8" font-family="mono" font-size="14.00" fill="#c83500">description</text>
<text text-anchor="start" x="836.583" y="-468.8" font-family="Times,serif" font-size="14.00"> : Map of </text>
<text text-anchor="start" x="892.583" y="-468.8" font-family="mono" font-size="14.00" fill="#c83500">string</text>
<text text-anchor="start" x="942.583" y="-468.8" font-family="mono" font-size="14.00" fill="#c83500">descriptions</text>
<text text-anchor="start" x="1042.58" y="-468.8" font-family="Times,serif" font-size="14.00"> : Map of </text>
<text text-anchor="start" x="1098.58" y="-468.8" font-family="mono" font-size="14.00" fill="#c83500">string</text>
<polygon fill="#ddeeff" stroke="none" points="742.583,-440 742.583,-461 1151.58,-461 1151.58,-440 742.583,-440"/>
<polygon fill="none" stroke="#8ccbf2" points="742.583,-440 742.583,-461 1151.58,-461 1151.58,-440 742.583,-440"/>
<text text-anchor="start" x="745.583" y="-447.8" font-family="mono" font-size="14.00" fill="#c83500">security</text>
<text text-anchor="start" x="812.583" y="-447.8" font-family="Times,serif" font-size="14.00"> : (Array of) </text>
<text text-anchor="start" x="883.583" y="-447.8" font-family="mono" font-size="14.00" fill="#c83500">string</text>
<text text-anchor="start" x="933.583" y="-447.8" font-family="Times,serif" font-size="14.00"> </text>
<text text-anchor="start" x="937.583" y="-447.8" font-family="Times,serif" font-style="italic" font-size="14.00">(mandatory)</text>
<polygon fill="#ddeeff" stroke="none" points="742.583,-419 742.583,-440 1151.58,-440 1151.58,-419 742.583,-419"/>
<polygon fill="none" stroke="#8ccbf2" points="742.583,-419 742.583,-440 1151.58,-440 1151.58,-419 742.583,-419"/>
<text text-anchor="start" x="745.583" y="-426.8" font-family="mono" font-size="14.00" fill="#c83500">profile</text>
<text text-anchor="start" x="803.583" y="-426.8" font-family="Times,serif" font-size="14.00"> : (Array of) </text>
<text text-anchor="start" x="874.583" y="-426.8" font-family="mono" font-size="14.00" fill="#c83500">anyURI</text>
<polygon fill="#ddeeff" stroke="none" points="742.583,-398 742.583,-419 1151.58,-419 1151.58,-398 742.583,-398"/>
<polygon fill="none" stroke="#8ccbf2" points="742.583,-398 742.583,-419 1151.58,-419 1151.58,-398 742.583,-398"/>
<text text-anchor="start" x="745.583" y="-405.8" font-family="mono" font-size="14.00" fill="#c83500">created</text>
<text text-anchor="start" x="803.583" y="-405.8" font-family="Times,serif" font-size="14.00"> : </text>
<text text-anchor="start" x="815.583" y="-405.8" font-family="mono" font-size="14.00" fill="#c83500">dateTime</text>
<polygon fill="#ddeeff" stroke="none" points="742.583,-377 742.583,-398 1151.58,-398 1151.58,-377 742.583,-377"/>
<polygon fill="none" stroke="#8ccbf2" points="742.583,-377 742.583,-398 1151.58,-398 1151.58,-377 742.583,-377"/>
<text text-anchor="start" x="745.583" y="-384.8" font-family="mono" font-size="14.00" fill="#c83500">modified</text>
<text text-anchor="start" x="812.583" y="-384.8" font-family="Times,serif" font-size="14.00"> : </text>
<text text-anchor="start" x="824.583" y="-384.8" font-family="mono" font-size="14.00" fill="#c83500">dateTime</text>
<polygon fill="#ddeeff" stroke="none" points="742.583,-356 742.583,-377 1151.58,-377 1151.58,-356 742.583,-356"/>
<polygon fill="none" stroke="#8ccbf2" points="742.583,-356 742.583,-377 1151.58,-377 1151.58,-356 742.583,-356"/>
<text text-anchor="start" x="745.583" y="-363.8" font-family="mono" font-size="14.00" fill="#c83500">support</text>
<text text-anchor="start" x="803.583" y="-363.8" font-family="Times,serif" font-size="14.00"> : </text>
<text text-anchor="start" x="815.583" y="-363.8" font-family="mono" font-size="14.00" fill="#c83500">anyURI</text>
<polygon fill="#ddeeff" stroke="none" points="742.583,-335 742.583,-356 1151.58,-356 1151.58,-335 742.583,-335"/>
<polygon fill="none" stroke="#8ccbf2" points="742.583,-335 742.583,-356 1151.58,-356 1151.58,-335 742.583,-335"/>
<text text-anchor="start" x="745.583" y="-342.8" font-family="mono" font-size="14.00" fill="#c83500">base</text>
<text text-anchor="start" x="779.583" y="-342.8" font-family="Times,serif" font-size="14.00"> : </text>
<text text-anchor="start" x="791.583" y="-342.8" font-family="mono" font-size="14.00" fill="#c83500">anyURI</text>
</g>
<!-- Thing&#45;&gt;ActionAffordance -->
<g id="edge13" class="edge"><title>Thing&#45;&gt;ActionAffordance</title>
<path fill="none" stroke="black" d="M773.838,-330.892C752.413,-314.88 731.897,-299.546 714.311,-286.403"/>
<polygon fill="black" stroke="black" points="716.027,-283.316 705.921,-280.133 711.836,-288.923 716.027,-283.316"/>
<text text-anchor="start" x="744.583" y="-301.8" font-family="mono" font-size="14.00" fill="#c83500">actions</text>
<text text-anchor="middle" x="694.921" y="-283.933" font-family="Times,serif" font-size="14.00">0..*</text>
</g>
<!-- Thing&#45;&gt;EventAffordance -->
<g id="edge14" class="edge"><title>Thing&#45;&gt;EventAffordance</title>
<path fill="none" stroke="black" d="M733.746,-398.389C578.404,-353.422 377.606,-295.296 274.061,-265.323"/>
<polygon fill="black" stroke="black" points="274.928,-261.93 264.349,-262.511 272.982,-268.654 274.928,-261.93"/>
<text text-anchor="start" x="424.583" y="-301.8" font-family="mono" font-size="14.00" fill="#c83500">events</text>
<text text-anchor="middle" x="253.349" y="-266.311" font-family="Times,serif" font-size="14.00">0..*</text>
</g>
<!-- Thing&#45;&gt;PropertyAffordance -->
<g id="edge12" class="edge"><title>Thing&#45;&gt;PropertyAffordance</title>
<path fill="none" stroke="black" d="M733.952,-364.98C659.908,-331.892 582.344,-297.231 529.946,-273.815"/>
<polygon fill="black" stroke="black" points="531.344,-270.606 520.786,-269.722 528.488,-276.997 531.344,-270.606"/>
<text text-anchor="start" x="608.583" y="-301.8" font-family="mono" font-size="14.00" fill="#c83500">properties</text>
<text text-anchor="middle" x="509.786" y="-273.522" font-family="Times,serif" font-size="14.00">0..*</text>
</g>
<!-- VersionInfo -->
<g id="node6" class="node"><title>VersionInfo</title>
<polygon fill="#8ccbf2" stroke="none" points="773.583,-254.5 773.583,-275.5 980.583,-275.5 980.583,-254.5 773.583,-254.5"/>
<polygon fill="none" stroke="#8ccbf2" points="773.583,-254.5 773.583,-275.5 980.583,-275.5 980.583,-254.5 773.583,-254.5"/>
<text text-anchor="start" x="831.583" y="-262.3" font-family="mono" font-weight="bold" font-size="14.00" fill="#c83500">VersionInfo</text>
<polygon fill="#ddeeff" stroke="none" points="773.583,-233.5 773.583,-254.5 980.583,-254.5 980.583,-233.5 773.583,-233.5"/>
<polygon fill="none" stroke="#8ccbf2" points="773.583,-233.5 773.583,-254.5 980.583,-254.5 980.583,-233.5 773.583,-233.5"/>
<text text-anchor="start" x="776.583" y="-241.3" font-family="mono" font-size="14.00" fill="#c83500">instance</text>
<text text-anchor="start" x="843.583" y="-241.3" font-family="Times,serif" font-size="14.00"> : </text>
<text text-anchor="start" x="855.583" y="-241.3" font-family="mono" font-size="14.00" fill="#c83500">string</text>
<text text-anchor="start" x="905.583" y="-241.3" font-family="Times,serif" font-size="14.00"> </text>
<text text-anchor="start" x="909.583" y="-241.3" font-family="Times,serif" font-style="italic" font-size="14.00">(mandatory)</text>
<polygon fill="#ddeeff" stroke="none" points="773.583,-212.5 773.583,-233.5 980.583,-233.5 980.583,-212.5 773.583,-212.5"/>
<polygon fill="none" stroke="#8ccbf2" points="773.583,-212.5 773.583,-233.5 980.583,-233.5 980.583,-212.5 773.583,-212.5"/>
<text text-anchor="start" x="776.583" y="-220.3" font-family="mono" font-size="14.00" fill="#c83500">model</text>
<text text-anchor="start" x="818.583" y="-220.3" font-family="Times,serif" font-size="14.00"> : </text>
<text text-anchor="start" x="830.583" y="-220.3" font-family="mono" font-size="14.00" fill="#c83500">string</text>
</g>
<!-- Thing&#45;&gt;VersionInfo -->
<g id="edge4" class="edge"><title>Thing&#45;&gt;VersionInfo</title>
<path fill="none" stroke="black" d="M904.45,-330.892C899.652,-316.19 895.041,-302.06 890.998,-289.672"/>
<polygon fill="black" stroke="black" points="894.315,-288.553 887.885,-280.133 887.66,-290.725 894.315,-288.553"/>
<text text-anchor="start" x="897.583" y="-301.8" font-family="mono" font-size="14.00" fill="#c83500">version</text>
<text text-anchor="middle" x="876.885" y="-283.933" font-family="Times,serif" font-size="14.00">0..1</text>
</g>
<!-- Thing&#45;&gt;Form -->
<g id="edge3" class="edge"><title>Thing&#45;&gt;Form</title>
<path fill="none" stroke="black" d="M987.008,-330.606C990.956,-313.726 994.327,-296.55 996.583,-280 1008.16,-195.043 992.343,-93.4995 983.229,-45.998"/>
<polygon fill="black" stroke="black" points="986.661,-45.3112 981.291,-36.1783 979.794,-46.6668 986.661,-45.3112"/>
<text text-anchor="start" x="1000.58" y="-179.8" font-family="mono" font-size="14.00" fill="#c83500">forms</text>
<text text-anchor="middle" x="970.291" y="-39.9783" font-family="Times,serif" font-size="14.00">0..*</text>
</g>
<!-- Link -->
<g id="node8" class="node"><title>Link</title>
<polygon fill="#f2f2f2" stroke="none" points="1052.58,-233.5 1052.58,-254.5 1092.58,-254.5 1092.58,-233.5 1052.58,-233.5"/>
<polygon fill="none" stroke="#8c8c8c" points="1052.58,-233.5 1052.58,-254.5 1092.58,-254.5 1092.58,-233.5 1052.58,-233.5"/>
<text text-anchor="start" x="1055.58" y="-241.3" font-family="mono" font-weight="bold" font-size="14.00">Link</text>
</g>
<!-- Thing&#45;&gt;Link -->
<g id="edge2" class="edge"><title>Thing&#45;&gt;Link</title>
<path fill="none" stroke="black" d="M1022.42,-330.892C1035.63,-308.408 1048.05,-287.263 1057.23,-271.639"/>
<polygon fill="black" stroke="black" points="1060.46,-273.056 1062.5,-262.661 1054.42,-269.511 1060.46,-273.056"/>
<text text-anchor="start" x="1039.58" y="-301.8" font-family="mono" font-size="14.00" fill="#c83500">links</text>
<text text-anchor="middle" x="1051.5" y="-266.461" font-family="Times,serif" font-size="14.00">0..*</text>
</g>
<!-- SecurityScheme -->
<g id="node10" class="node"><title>SecurityScheme</title>
<polygon fill="#f2f2f2" stroke="none" points="1126.58,-233.5 1126.58,-254.5 1248.58,-254.5 1248.58,-233.5 1126.58,-233.5"/>
<polygon fill="none" stroke="#8c8c8c" points="1126.58,-233.5 1126.58,-254.5 1248.58,-254.5 1248.58,-233.5 1126.58,-233.5"/>
<text text-anchor="start" x="1129.58" y="-241.3" font-family="mono" font-weight="bold" font-size="14.00">SecurityScheme</text>
</g>
<!-- Thing&#45;&gt;SecurityScheme -->
<g id="edge10" class="edge"><title>Thing&#45;&gt;SecurityScheme</title>
<path fill="none" stroke="black" d="M1091.64,-330.892C1118.09,-307.348 1142.9,-285.271 1160.66,-269.465"/>
<polygon fill="black" stroke="black" points="1163.16,-271.924 1168.3,-262.661 1158.51,-266.695 1163.16,-271.924"/>
<text text-anchor="start" x="1123.58" y="-301.8" font-family="mono" font-size="14.00" fill="#c83500">securityDefinitions</text>
<text text-anchor="middle" x="1157.3" y="-266.461" font-family="Times,serif" font-size="14.00">1..*</text>
</g>
<!-- Signature -->
<g id="node11" class="node"><title>Signature</title>
<polygon fill="#f2f2f2" stroke="none" points="1305.58,-233.5 1305.58,-254.5 1386.58,-254.5 1386.58,-233.5 1305.58,-233.5"/>
<polygon fill="none" stroke="#8c8c8c" points="1305.58,-233.5 1305.58,-254.5 1386.58,-254.5 1386.58,-233.5 1305.58,-233.5"/>
<text text-anchor="start" x="1308.58" y="-241.3" font-family="mono" font-weight="bold" font-size="14.00">Signature</text>
</g>
<!-- Thing&#45;&gt;Signature -->
<g id="edge15" class="edge"><title>Thing&#45;&gt;Signature</title>
<path fill="none" stroke="black" d="M1159.21,-384.035C1202.56,-364.087 1246.52,-340.352 1284.58,-313 1300.84,-301.322 1315.94,-284.669 1327.06,-270.826"/>
<polygon fill="black" stroke="black" points="1330.05,-272.679 1333.44,-262.639 1324.53,-268.376 1330.05,-272.679"/>
<text text-anchor="start" x="1302.58" y="-301.8" font-family="mono" font-size="14.00" fill="#c83500">signatures</text>
<text text-anchor="middle" x="1322.44" y="-266.439" font-family="Times,serif" font-size="14.00">0..*</text>
</g>
</g>
</svg>
