<?xml version="1.0" encoding="UTF-8" standalone="no"?>
<!DOCTYPE svg PUBLIC "-//W3C//DTD SVG 1.1//EN"
 "http://www.w3.org/Graphics/SVG/1.1/DTD/svg11.dtd">
<!-- Generated by graphviz version 2.38.0 (20140413.2041)
 -->
<!-- Title: %3 Pages: 1 -->
<svg width="1260pt" height="840pt"
 viewBox="0.00 0.00 1259.92 840.00" xmlns="http://www.w3.org/2000/svg" xmlns:xlink="http://www.w3.org/1999/xlink">
<g id="graph0" class="graph" transform="scale(1 1) rotate(0) translate(4 836)">
<title>%3</title>
<polygon fill="white" stroke="none" points="-4,4 -4,-836 1255.92,-836 1255.92,4 -4,4"/>
<!-- MultiLanguage -->
<g id="node1" class="node"><title>MultiLanguage</title>
<polygon fill="#8ccbf2" stroke="none" points="111.919,-167.5 111.919,-188.5 225.919,-188.5 225.919,-167.5 111.919,-167.5"/>
<polygon fill="none" stroke="#8ccbf2" points="111.919,-167.5 111.919,-188.5 225.919,-188.5 225.919,-167.5 111.919,-167.5"/>
<text text-anchor="start" x="114.919" y="-175.3" font-family="mono" font-weight="bold" font-size="14.00" fill="#c83500">MultiLanguage</text>
</g>
<!-- InteractionPattern -->
<g id="node2" class="node"><title>InteractionPattern</title>
<polygon fill="#8ccbf2" stroke="none" points="317.919,-394.5 317.919,-415.5 498.919,-415.5 498.919,-394.5 317.919,-394.5"/>
<polygon fill="none" stroke="#8ccbf2" points="317.919,-394.5 317.919,-415.5 498.919,-415.5 498.919,-394.5 317.919,-394.5"/>
<text text-anchor="start" x="333.919" y="-402.3" font-family="mono" font-weight="bold" font-size="14.00" fill="#c83500">InteractionPattern</text>
<polygon fill="#ddeeff" stroke="none" points="317.919,-373.5 317.919,-394.5 498.919,-394.5 498.919,-373.5 317.919,-373.5"/>
<polygon fill="none" stroke="#8ccbf2" points="317.919,-373.5 317.919,-394.5 498.919,-394.5 498.919,-373.5 317.919,-373.5"/>
<text text-anchor="start" x="320.919" y="-381.3" font-family="mono" font-size="14.00" fill="#c83500">security</text>
<text text-anchor="start" x="387.919" y="-381.3" font-family="Times,serif" font-size="14.00"> : array of </text>
<text text-anchor="start" x="445.919" y="-381.3" font-family="mono" font-size="14.00" fill="#c83500">string</text>
<polygon fill="#ddeeff" stroke="none" points="317.919,-352.5 317.919,-373.5 498.919,-373.5 498.919,-352.5 317.919,-352.5"/>
<polygon fill="none" stroke="#8ccbf2" points="317.919,-352.5 317.919,-373.5 498.919,-373.5 498.919,-352.5 317.919,-352.5"/>
<text text-anchor="start" x="320.919" y="-360.3" font-family="mono" font-size="14.00" fill="#c83500">title</text>
<text text-anchor="start" x="362.919" y="-360.3" font-family="Times,serif" font-size="14.00"> : </text>
<text text-anchor="start" x="374.919" y="-360.3" font-family="mono" font-size="14.00" fill="#c83500">string</text>
<polygon fill="#ddeeff" stroke="none" points="317.919,-331.5 317.919,-352.5 498.919,-352.5 498.919,-331.5 317.919,-331.5"/>
<polygon fill="none" stroke="#8ccbf2" points="317.919,-331.5 317.919,-352.5 498.919,-352.5 498.919,-331.5 317.919,-331.5"/>
<text text-anchor="start" x="320.919" y="-339.3" font-family="mono" font-size="14.00" fill="#c83500">description</text>
<text text-anchor="start" x="411.919" y="-339.3" font-family="Times,serif" font-size="14.00"> : </text>
<text text-anchor="start" x="423.919" y="-339.3" font-family="mono" font-size="14.00" fill="#c83500">string</text>
<polygon fill="#ddeeff" stroke="none" points="317.919,-310.5 317.919,-331.5 498.919,-331.5 498.919,-310.5 317.919,-310.5"/>
<polygon fill="none" stroke="#8ccbf2" points="317.919,-310.5 317.919,-331.5 498.919,-331.5 498.919,-310.5 317.919,-310.5"/>
<text text-anchor="start" x="320.919" y="-318.3" font-family="mono" font-size="14.00" fill="#c83500">scopes</text>
<text text-anchor="start" x="370.919" y="-318.3" font-family="Times,serif" font-size="14.00"> : array of </text>
<text text-anchor="start" x="428.919" y="-318.3" font-family="mono" font-size="14.00" fill="#c83500">string</text>
</g>
<!-- InteractionPattern&#45;&gt;MultiLanguage -->
<g id="edge3" class="edge"><title>InteractionPattern&#45;&gt;MultiLanguage</title>
<path fill="none" stroke="black" d="M313.667,-306.932C289.82,-291.47 264.788,-273.96 242.919,-256 223.828,-240.321 204.495,-220.154 190.379,-204.462"/>
<polygon fill="black" stroke="black" points="192.757,-201.869 183.502,-196.713 187.521,-206.515 192.757,-201.869"/>
<text text-anchor="start" x="286.919" y="-277.8" font-family="mono" font-size="14.00" fill="#c83500">descriptions</text>
<text text-anchor="middle" x="172.502" y="-200.513" font-family="Times,serif" font-size="14.00">0..1</text>
</g>
<!-- InteractionPattern&#45;&gt;MultiLanguage -->
<g id="edge4" class="edge"><title>InteractionPattern&#45;&gt;MultiLanguage</title>
<path fill="none" stroke="black" d="M308.978,-341.645C275.786,-330.587 240.697,-313.92 214.919,-289 191.933,-266.778 179.916,-231.305 174.013,-206.785"/>
<polygon fill="black" stroke="black" points="177.359,-205.703 171.779,-196.697 170.524,-207.217 177.359,-205.703"/>
<text text-anchor="start" x="214.919" y="-277.8" font-family="mono" font-size="14.00" fill="#c83500">titles</text>
<text text-anchor="middle" x="160.779" y="-200.497" font-family="Times,serif" font-size="14.00">0..1</text>
</g>
<!-- Form -->
<g id="node4" class="node"><title>Form</title>
<polygon fill="#8ccbf2" stroke="none" points="260.919,-230.5 260.919,-251.5 593.919,-251.5 593.919,-230.5 260.919,-230.5"/>
<polygon fill="none" stroke="#8ccbf2" points="260.919,-230.5 260.919,-251.5 593.919,-251.5 593.919,-230.5 260.919,-230.5"/>
<text text-anchor="start" x="410.419" y="-238.3" font-family="mono" font-weight="bold" font-size="14.00" fill="#c83500">Form</text>
<polygon fill="#ddeeff" stroke="none" points="260.919,-209.5 260.919,-230.5 593.919,-230.5 593.919,-209.5 260.919,-209.5"/>
<polygon fill="none" stroke="#8ccbf2" points="260.919,-209.5 260.919,-230.5 593.919,-230.5 593.919,-209.5 260.919,-209.5"/>
<text text-anchor="start" x="263.919" y="-217.3" font-family="mono" font-size="14.00" fill="#c83500">subprotocol</text>
<text text-anchor="start" x="354.919" y="-217.3" font-family="Times,serif" font-size="14.00"> : </text>
<text text-anchor="start" x="366.919" y="-217.3" font-family="mono" font-size="14.00" fill="#c83500">string</text>
<polygon fill="#ddeeff" stroke="none" points="260.919,-188.5 260.919,-209.5 593.919,-209.5 593.919,-188.5 260.919,-188.5"/>
<polygon fill="none" stroke="#8ccbf2" points="260.919,-188.5 260.919,-209.5 593.919,-209.5 593.919,-188.5 260.919,-188.5"/>
<text text-anchor="start" x="263.919" y="-196.3" font-family="mono" font-size="14.00" fill="#c83500">href</text>
<text text-anchor="start" x="297.919" y="-196.3" font-family="Times,serif" font-size="14.00"> : </text>
<text text-anchor="start" x="309.919" y="-196.3" font-family="mono" font-size="14.00" fill="#c83500">anyURI</text>
<text text-anchor="start" x="359.919" y="-196.3" font-family="Times,serif" font-size="14.00"> </text>
<text text-anchor="start" x="363.919" y="-196.3" font-family="Times,serif" font-style="italic" font-size="14.00">(mandatory)</text>
<polygon fill="#ddeeff" stroke="none" points="260.919,-167.5 260.919,-188.5 593.919,-188.5 593.919,-167.5 260.919,-167.5"/>
<polygon fill="none" stroke="#8ccbf2" points="260.919,-167.5 260.919,-188.5 593.919,-188.5 593.919,-167.5 260.919,-167.5"/>
<text text-anchor="start" x="263.919" y="-175.3" font-family="mono" font-size="14.00" fill="#c83500">op</text>
<text text-anchor="start" x="280.919" y="-175.3" font-family="Times,serif" font-size="14.00"> : </text>
<text text-anchor="start" x="292.919" y="-175.3" font-family="mono" font-size="14.00" fill="#c83500">string</text>
<polygon fill="#ddeeff" stroke="none" points="260.919,-146.5 260.919,-167.5 593.919,-167.5 593.919,-146.5 260.919,-146.5"/>
<polygon fill="none" stroke="#8ccbf2" points="260.919,-146.5 260.919,-167.5 593.919,-167.5 593.919,-146.5 260.919,-146.5"/>
<text text-anchor="start" x="263.919" y="-154.3" font-family="mono" font-size="14.00" fill="#c83500">contentType</text>
<text text-anchor="start" x="354.919" y="-154.3" font-family="Times,serif" font-size="14.00"> : </text>
<text text-anchor="start" x="366.919" y="-154.3" font-family="mono" font-size="14.00" fill="#c83500">string</text>
<text text-anchor="start" x="416.919" y="-154.3" font-family="Times,serif" font-size="14.00"> = application/json </text>
<text text-anchor="start" x="522.919" y="-154.3" font-family="Times,serif" font-style="italic" font-size="14.00">(mandatory)</text>
<polygon fill="#ddeeff" stroke="none" points="260.919,-125.5 260.919,-146.5 593.919,-146.5 593.919,-125.5 260.919,-125.5"/>
<polygon fill="none" stroke="#8ccbf2" points="260.919,-125.5 260.919,-146.5 593.919,-146.5 593.919,-125.5 260.919,-125.5"/>
<text text-anchor="start" x="263.919" y="-133.3" font-family="mono" font-size="14.00" fill="#c83500">security</text>
<text text-anchor="start" x="330.919" y="-133.3" font-family="Times,serif" font-size="14.00"> : array of </text>
<text text-anchor="start" x="388.919" y="-133.3" font-family="mono" font-size="14.00" fill="#c83500">string</text>
<polygon fill="#ddeeff" stroke="none" points="260.919,-104.5 260.919,-125.5 593.919,-125.5 593.919,-104.5 260.919,-104.5"/>
<polygon fill="none" stroke="#8ccbf2" points="260.919,-104.5 260.919,-125.5 593.919,-125.5 593.919,-104.5 260.919,-104.5"/>
<text text-anchor="start" x="263.919" y="-112.3" font-family="mono" font-size="14.00" fill="#c83500">scopes</text>
<text text-anchor="start" x="313.919" y="-112.3" font-family="Times,serif" font-size="14.00"> : array of </text>
<text text-anchor="start" x="371.919" y="-112.3" font-family="mono" font-size="14.00" fill="#c83500">string</text>
</g>
<!-- InteractionPattern&#45;&gt;Form -->
<g id="edge2" class="edge"><title>InteractionPattern&#45;&gt;Form</title>
<path fill="none" stroke="black" d="M407.05,-306.709C407.304,-295.841 407.863,-284.55 408.919,-274 409.174,-271.455 409.463,-268.877 409.78,-266.278"/>
<polygon fill="black" stroke="black" points="413.274,-266.557 411.138,-256.18 406.337,-265.624 413.274,-266.557"/>
<text text-anchor="start" x="408.919" y="-277.8" font-family="mono" font-size="14.00" fill="#c83500">forms</text>
<text text-anchor="middle" x="400.138" y="-259.98" font-family="Times,serif" font-size="14.00">1..*</text>
</g>
<!-- DataSchema -->
<g id="node11" class="node"><title>DataSchema</title>
<polygon fill="#f2f2f2" stroke="none" points="645.919,-167.5 645.919,-188.5 734.919,-188.5 734.919,-167.5 645.919,-167.5"/>
<polygon fill="none" stroke="#8c8c8c" points="645.919,-167.5 645.919,-188.5 734.919,-188.5 734.919,-167.5 645.919,-167.5"/>
<text text-anchor="start" x="648.919" y="-175.3" font-family="mono" font-weight="bold" font-size="14.00">DataSchema</text>
</g>
<!-- InteractionPattern&#45;&gt;DataSchema -->
<g id="edge1" class="edge"><title>InteractionPattern&#45;&gt;DataSchema</title>
<path fill="none" stroke="black" d="M438.809,-306.91C448.439,-294.187 460.2,-282.053 473.919,-274 526.501,-243.135 554.947,-282.373 609.919,-256 634.339,-244.285 656.118,-222.283 670.762,-204.871"/>
<polygon fill="black" stroke="black" points="673.766,-206.724 677.359,-196.757 668.335,-202.308 673.766,-206.724"/>
<text text-anchor="start" x="473.919" y="-277.8" font-family="mono" font-size="14.00" fill="#c83500">uriVariables</text>
<text text-anchor="middle" x="666.359" y="-200.557" font-family="Times,serif" font-size="14.00">0..1</text>
</g>
<!-- Link -->
<g id="node3" class="node"><title>Link</title>
<polygon fill="#8ccbf2" stroke="none" points="47.9193,-558.5 47.9193,-579.5 221.919,-579.5 221.919,-558.5 47.9193,-558.5"/>
<polygon fill="none" stroke="#8ccbf2" points="47.9193,-558.5 47.9193,-579.5 221.919,-579.5 221.919,-558.5 47.9193,-558.5"/>
<text text-anchor="start" x="117.919" y="-566.3" font-family="mono" font-weight="bold" font-size="14.00" fill="#c83500">Link</text>
<polygon fill="#ddeeff" stroke="none" points="47.9193,-537.5 47.9193,-558.5 221.919,-558.5 221.919,-537.5 47.9193,-537.5"/>
<polygon fill="none" stroke="#8ccbf2" points="47.9193,-537.5 47.9193,-558.5 221.919,-558.5 221.919,-537.5 47.9193,-537.5"/>
<text text-anchor="start" x="50.9193" y="-545.3" font-family="mono" font-size="14.00" fill="#c83500">rel</text>
<text text-anchor="start" x="75.9193" y="-545.3" font-family="Times,serif" font-size="14.00"> : </text>
<text text-anchor="start" x="87.9193" y="-545.3" font-family="mono" font-size="14.00" fill="#c83500">string</text>
<polygon fill="#ddeeff" stroke="none" points="47.9193,-516.5 47.9193,-537.5 221.919,-537.5 221.919,-516.5 47.9193,-516.5"/>
<polygon fill="none" stroke="#8ccbf2" points="47.9193,-516.5 47.9193,-537.5 221.919,-537.5 221.919,-516.5 47.9193,-516.5"/>
<text text-anchor="start" x="50.9193" y="-524.3" font-family="mono" font-size="14.00" fill="#c83500">anchor</text>
<text text-anchor="start" x="100.919" y="-524.3" font-family="Times,serif" font-size="14.00"> : </text>
<text text-anchor="start" x="112.919" y="-524.3" font-family="mono" font-size="14.00" fill="#c83500">anyURI</text>
<polygon fill="#ddeeff" stroke="none" points="47.9193,-495.5 47.9193,-516.5 221.919,-516.5 221.919,-495.5 47.9193,-495.5"/>
<polygon fill="none" stroke="#8ccbf2" points="47.9193,-495.5 47.9193,-516.5 221.919,-516.5 221.919,-495.5 47.9193,-495.5"/>
<text text-anchor="start" x="50.9193" y="-503.3" font-family="mono" font-size="14.00" fill="#c83500">type</text>
<text text-anchor="start" x="84.9193" y="-503.3" font-family="Times,serif" font-size="14.00"> : </text>
<text text-anchor="start" x="96.9193" y="-503.3" font-family="mono" font-size="14.00" fill="#c83500">string</text>
<polygon fill="#ddeeff" stroke="none" points="47.9193,-474.5 47.9193,-495.5 221.919,-495.5 221.919,-474.5 47.9193,-474.5"/>
<polygon fill="none" stroke="#8ccbf2" points="47.9193,-474.5 47.9193,-495.5 221.919,-495.5 221.919,-474.5 47.9193,-474.5"/>
<text text-anchor="start" x="50.9193" y="-482.3" font-family="mono" font-size="14.00" fill="#c83500">href</text>
<text text-anchor="start" x="84.9193" y="-482.3" font-family="Times,serif" font-size="14.00"> : </text>
<text text-anchor="start" x="96.9193" y="-482.3" font-family="mono" font-size="14.00" fill="#c83500">anyURI</text>
<text text-anchor="start" x="146.919" y="-482.3" font-family="Times,serif" font-size="14.00"> </text>
<text text-anchor="start" x="150.919" y="-482.3" font-family="Times,serif" font-style="italic" font-size="14.00">(mandatory)</text>
</g>
<!-- ExpectedResponse -->
<g id="node7" class="node"><title>ExpectedResponse</title>
<polygon fill="#8ccbf2" stroke="none" points="347.919,-25 347.919,-46 506.919,-46 506.919,-25 347.919,-25"/>
<polygon fill="none" stroke="#8ccbf2" points="347.919,-25 347.919,-46 506.919,-46 506.919,-25 347.919,-25"/>
<text text-anchor="start" x="360.919" y="-32.8" font-family="mono" font-weight="bold" font-size="14.00" fill="#c83500">ExpectedResponse</text>
<polygon fill="#ddeeff" stroke="none" points="347.919,-4 347.919,-25 506.919,-25 506.919,-4 347.919,-4"/>
<polygon fill="none" stroke="#8ccbf2" points="347.919,-4 347.919,-25 506.919,-25 506.919,-4 347.919,-4"/>
<text text-anchor="start" x="350.919" y="-11.8" font-family="mono" font-size="14.00" fill="#c83500">contentType</text>
<text text-anchor="start" x="441.919" y="-11.8" font-family="Times,serif" font-size="14.00"> : </text>
<text text-anchor="start" x="453.919" y="-11.8" font-family="mono" font-size="14.00" fill="#c83500">string</text>
</g>
<!-- Form&#45;&gt;ExpectedResponse -->
<g id="edge5" class="edge"><title>Form&#45;&gt;ExpectedResponse</title>
<path fill="none" stroke="black" d="M426.919,-100.862C426.919,-86.5577 426.919,-72.2953 426.919,-60.116"/>
<polygon fill="black" stroke="black" points="430.419,-60.0004 426.919,-50.0004 423.419,-60.0004 430.419,-60.0004"/>
<text text-anchor="start" x="426.919" y="-71.8" font-family="mono" font-size="14.00" fill="#c83500">response</text>
<text text-anchor="middle" x="415.919" y="-53.8004" font-family="Times,serif" font-size="14.00">0..1</text>
</g>
<!-- Thing -->
<g id="node5" class="node"><title>Thing</title>
<polygon fill="#8ccbf2" stroke="none" points="501.919,-806.5 501.919,-827.5 754.919,-827.5 754.919,-806.5 501.919,-806.5"/>
<polygon fill="none" stroke="#8ccbf2" points="501.919,-806.5 501.919,-827.5 754.919,-827.5 754.919,-806.5 501.919,-806.5"/>
<text text-anchor="start" x="607.419" y="-814.3" font-family="mono" font-weight="bold" font-size="14.00" fill="#c83500">Thing</text>
<polygon fill="#ddeeff" stroke="none" points="501.919,-785.5 501.919,-806.5 754.919,-806.5 754.919,-785.5 501.919,-785.5"/>
<polygon fill="none" stroke="#8ccbf2" points="501.919,-785.5 501.919,-806.5 754.919,-806.5 754.919,-785.5 501.919,-785.5"/>
<text text-anchor="start" x="504.919" y="-793.3" font-family="mono" font-size="14.00" fill="#c83500">id</text>
<text text-anchor="start" x="521.919" y="-793.3" font-family="Times,serif" font-size="14.00"> : </text>
<text text-anchor="start" x="533.919" y="-793.3" font-family="mono" font-size="14.00" fill="#c83500">anyURI</text>
<text text-anchor="start" x="583.919" y="-793.3" font-family="Times,serif" font-size="14.00"> </text>
<text text-anchor="start" x="587.919" y="-793.3" font-family="Times,serif" font-style="italic" font-size="14.00">(mandatory)</text>
<polygon fill="#ddeeff" stroke="none" points="501.919,-764.5 501.919,-785.5 754.919,-785.5 754.919,-764.5 501.919,-764.5"/>
<polygon fill="none" stroke="#8ccbf2" points="501.919,-764.5 501.919,-785.5 754.919,-785.5 754.919,-764.5 501.919,-764.5"/>
<text text-anchor="start" x="504.919" y="-772.3" font-family="mono" font-size="14.00" fill="#c83500">lastModified</text>
<text text-anchor="start" x="604.919" y="-772.3" font-family="Times,serif" font-size="14.00"> : </text>
<text text-anchor="start" x="616.919" y="-772.3" font-family="mono" font-size="14.00" fill="#c83500">string</text>
<polygon fill="#ddeeff" stroke="none" points="501.919,-743.5 501.919,-764.5 754.919,-764.5 754.919,-743.5 501.919,-743.5"/>
<polygon fill="none" stroke="#8ccbf2" points="501.919,-743.5 501.919,-764.5 754.919,-764.5 754.919,-743.5 501.919,-743.5"/>
<text text-anchor="start" x="504.919" y="-751.3" font-family="mono" font-size="14.00" fill="#c83500">security</text>
<text text-anchor="start" x="571.919" y="-751.3" font-family="Times,serif" font-size="14.00"> : array of </text>
<text text-anchor="start" x="629.919" y="-751.3" font-family="mono" font-size="14.00" fill="#c83500">string</text>
<text text-anchor="start" x="679.919" y="-751.3" font-family="Times,serif" font-size="14.00"> </text>
<text text-anchor="start" x="683.919" y="-751.3" font-family="Times,serif" font-style="italic" font-size="14.00">(mandatory)</text>
<polygon fill="#ddeeff" stroke="none" points="501.919,-722.5 501.919,-743.5 754.919,-743.5 754.919,-722.5 501.919,-722.5"/>
<polygon fill="none" stroke="#8ccbf2" points="501.919,-722.5 501.919,-743.5 754.919,-743.5 754.919,-722.5 501.919,-722.5"/>
<text text-anchor="start" x="504.919" y="-730.3" font-family="mono" font-size="14.00" fill="#c83500">support</text>
<text text-anchor="start" x="562.919" y="-730.3" font-family="Times,serif" font-size="14.00"> : </text>
<text text-anchor="start" x="574.919" y="-730.3" font-family="mono" font-size="14.00" fill="#c83500">string</text>
<polygon fill="#ddeeff" stroke="none" points="501.919,-701.5 501.919,-722.5 754.919,-722.5 754.919,-701.5 501.919,-701.5"/>
<polygon fill="none" stroke="#8ccbf2" points="501.919,-701.5 501.919,-722.5 754.919,-722.5 754.919,-701.5 501.919,-701.5"/>
<text text-anchor="start" x="504.919" y="-709.3" font-family="mono" font-size="14.00" fill="#c83500">name</text>
<text text-anchor="start" x="538.919" y="-709.3" font-family="Times,serif" font-size="14.00"> : </text>
<text text-anchor="start" x="550.919" y="-709.3" font-family="mono" font-size="14.00" fill="#c83500">string</text>
<text text-anchor="start" x="600.919" y="-709.3" font-family="Times,serif" font-size="14.00"> </text>
<text text-anchor="start" x="604.919" y="-709.3" font-family="Times,serif" font-style="italic" font-size="14.00">(mandatory)</text>
<polygon fill="#ddeeff" stroke="none" points="501.919,-680.5 501.919,-701.5 754.919,-701.5 754.919,-680.5 501.919,-680.5"/>
<polygon fill="none" stroke="#8ccbf2" points="501.919,-680.5 501.919,-701.5 754.919,-701.5 754.919,-680.5 501.919,-680.5"/>
<text text-anchor="start" x="504.919" y="-688.3" font-family="mono" font-size="14.00" fill="#c83500">created</text>
<text text-anchor="start" x="562.919" y="-688.3" font-family="Times,serif" font-size="14.00"> : </text>
<text text-anchor="start" x="574.919" y="-688.3" font-family="mono" font-size="14.00" fill="#c83500">string</text>
<polygon fill="#ddeeff" stroke="none" points="501.919,-659.5 501.919,-680.5 754.919,-680.5 754.919,-659.5 501.919,-659.5"/>
<polygon fill="none" stroke="#8ccbf2" points="501.919,-659.5 501.919,-680.5 754.919,-680.5 754.919,-659.5 501.919,-659.5"/>
<text text-anchor="start" x="504.919" y="-667.3" font-family="mono" font-size="14.00" fill="#c83500">description</text>
<text text-anchor="start" x="595.919" y="-667.3" font-family="Times,serif" font-size="14.00"> : </text>
<text text-anchor="start" x="607.919" y="-667.3" font-family="mono" font-size="14.00" fill="#c83500">string</text>
<polygon fill="#ddeeff" stroke="none" points="501.919,-638.5 501.919,-659.5 754.919,-659.5 754.919,-638.5 501.919,-638.5"/>
<polygon fill="none" stroke="#8ccbf2" points="501.919,-638.5 501.919,-659.5 754.919,-659.5 754.919,-638.5 501.919,-638.5"/>
<text text-anchor="start" x="504.919" y="-646.3" font-family="mono" font-size="14.00" fill="#c83500">base</text>
<text text-anchor="start" x="538.919" y="-646.3" font-family="Times,serif" font-size="14.00"> : </text>
<text text-anchor="start" x="550.919" y="-646.3" font-family="mono" font-size="14.00" fill="#c83500">anyURI</text>
</g>
<!-- Thing&#45;&gt;MultiLanguage -->
<g id="edge12" class="edge"><title>Thing&#45;&gt;MultiLanguage</title>
<path fill="none" stroke="black" d="M493.124,-718.096C334.999,-698.095 87.2009,-655.996 30.9193,-584 -63.933,-462.663 85.7442,-272.173 145.78,-204.432"/>
<polygon fill="black" stroke="black" points="148.562,-206.573 152.635,-196.792 143.352,-201.898 148.562,-206.573"/>
<text text-anchor="start" x="7.9193" y="-441.8" font-family="mono" font-size="14.00" fill="#c83500">descriptions</text>
<text text-anchor="middle" x="141.635" y="-200.592" font-family="Times,serif" font-size="14.00">0..1</text>
</g>
<!-- Thing&#45;&gt;Link -->
<g id="edge10" class="edge"><title>Thing&#45;&gt;Link</title>
<path fill="none" stroke="black" d="M492.985,-685.72C419.849,-659.232 328.13,-624.176 239.318,-584.081"/>
<polygon fill="black" stroke="black" points="240.731,-580.879 230.178,-579.933 237.837,-587.253 240.731,-580.879"/>
<text text-anchor="start" x="312.919" y="-605.8" font-family="mono" font-size="14.00" fill="#c83500">links</text>
<text text-anchor="middle" x="241.178" y="-583.733" font-family="Times,serif" font-size="14.00">0..*</text>
</g>
<!-- Property -->
<g id="node6" class="node"><title>Property</title>
<polygon fill="#8ccbf2" stroke="none" points="256.919,-527.5 256.919,-548.5 457.919,-548.5 457.919,-527.5 256.919,-527.5"/>
<polygon fill="none" stroke="#8ccbf2" points="256.919,-527.5 256.919,-548.5 457.919,-548.5 457.919,-527.5 256.919,-527.5"/>
<text text-anchor="start" x="323.919" y="-535.3" font-family="mono" font-weight="bold" font-size="14.00" fill="#c83500">Property</text>
<polygon fill="#ddeeff" stroke="none" points="256.919,-506.5 256.919,-527.5 457.919,-527.5 457.919,-506.5 256.919,-506.5"/>
<polygon fill="none" stroke="#8ccbf2" points="256.919,-506.5 256.919,-527.5 457.919,-527.5 457.919,-506.5 256.919,-506.5"/>
<text text-anchor="start" x="259.919" y="-514.3" font-family="mono" font-size="14.00" fill="#c83500">observable</text>
<text text-anchor="start" x="342.919" y="-514.3" font-family="Times,serif" font-size="14.00"> : </text>
<text text-anchor="start" x="354.919" y="-514.3" font-family="mono" font-size="14.00" fill="#c83500">boolean</text>
<text text-anchor="start" x="412.919" y="-514.3" font-family="Times,serif" font-size="14.00"> = false</text>
</g>
<!-- Thing&#45;&gt;Property -->
<g id="edge7" class="edge"><title>Thing&#45;&gt;Property</title>
<path fill="none" stroke="black" d="M498.372,-634.981C461.498,-607.223 424.034,-579.022 396.933,-558.621"/>
<polygon fill="black" stroke="black" points="398.962,-555.767 388.868,-552.55 394.752,-561.36 398.962,-555.767"/>
<text text-anchor="start" x="468.919" y="-605.8" font-family="mono" font-size="14.00" fill="#c83500">properties</text>
<text text-anchor="middle" x="377.868" y="-556.35" font-family="Times,serif" font-size="14.00">0..1</text>
</g>
<!-- Action -->
<g id="node8" class="node"><title>Action</title>
<polygon fill="#8ccbf2" stroke="none" points="491.919,-537.5 491.919,-558.5 764.919,-558.5 764.919,-537.5 491.919,-537.5"/>
<polygon fill="none" stroke="#8ccbf2" points="491.919,-537.5 491.919,-558.5 764.919,-558.5 764.919,-537.5 491.919,-537.5"/>
<text text-anchor="start" x="603.419" y="-545.3" font-family="mono" font-weight="bold" font-size="14.00" fill="#c83500">Action</text>
<polygon fill="#ddeeff" stroke="none" points="491.919,-516.5 491.919,-537.5 764.919,-537.5 764.919,-516.5 491.919,-516.5"/>
<polygon fill="none" stroke="#8ccbf2" points="491.919,-516.5 491.919,-537.5 764.919,-537.5 764.919,-516.5 491.919,-516.5"/>
<text text-anchor="start" x="494.919" y="-524.3" font-family="mono" font-size="14.00" fill="#c83500">safe</text>
<text text-anchor="start" x="528.919" y="-524.3" font-family="Times,serif" font-size="14.00"> : </text>
<text text-anchor="start" x="540.919" y="-524.3" font-family="mono" font-size="14.00" fill="#c83500">boolean</text>
<text text-anchor="start" x="598.919" y="-524.3" font-family="Times,serif" font-size="14.00"> = false </text>
<text text-anchor="start" x="644.919" y="-524.3" font-family="Times,serif" font-style="italic" font-size="14.00">(mandatory)</text>
<polygon fill="#ddeeff" stroke="none" points="491.919,-495.5 491.919,-516.5 764.919,-516.5 764.919,-495.5 491.919,-495.5"/>
<polygon fill="none" stroke="#8ccbf2" points="491.919,-495.5 491.919,-516.5 764.919,-516.5 764.919,-495.5 491.919,-495.5"/>
<text text-anchor="start" x="494.919" y="-503.3" font-family="mono" font-size="14.00" fill="#c83500">idempotent</text>
<text text-anchor="start" x="577.919" y="-503.3" font-family="Times,serif" font-size="14.00"> : </text>
<text text-anchor="start" x="589.919" y="-503.3" font-family="mono" font-size="14.00" fill="#c83500">boolean</text>
<text text-anchor="start" x="647.919" y="-503.3" font-family="Times,serif" font-size="14.00"> = false </text>
<text text-anchor="start" x="693.919" y="-503.3" font-family="Times,serif" font-style="italic" font-size="14.00">(mandatory)</text>
</g>
<!-- Thing&#45;&gt;Action -->
<g id="edge9" class="edge"><title>Thing&#45;&gt;Action</title>
<path fill="none" stroke="black" d="M627.919,-634.981C627.919,-613.301 627.919,-591.35 627.919,-573.057"/>
<polygon fill="black" stroke="black" points="631.419,-573.017 627.919,-563.017 624.419,-573.017 631.419,-573.017"/>
<text text-anchor="start" x="627.919" y="-605.8" font-family="mono" font-size="14.00" fill="#c83500">actions</text>
<text text-anchor="middle" x="616.919" y="-566.817" font-family="Times,serif" font-size="14.00">0..1</text>
</g>
<!-- Event -->
<g id="node9" class="node"><title>Event</title>
<polygon fill="#8ccbf2" stroke="none" points="797.919,-516.5 797.919,-537.5 845.919,-537.5 845.919,-516.5 797.919,-516.5"/>
<polygon fill="none" stroke="#8ccbf2" points="797.919,-516.5 797.919,-537.5 845.919,-537.5 845.919,-516.5 797.919,-516.5"/>
<text text-anchor="start" x="800.919" y="-524.3" font-family="mono" font-weight="bold" font-size="14.00" fill="#c83500">Event</text>
</g>
<!-- Thing&#45;&gt;Event -->
<g id="edge6" class="edge"><title>Thing&#45;&gt;Event</title>
<path fill="none" stroke="black" d="M733.132,-634.87C749.594,-618.332 766.059,-601.001 780.919,-584 789.128,-574.608 797.442,-563.675 804.418,-554.007"/>
<polygon fill="black" stroke="black" points="807.475,-555.747 810.406,-545.566 801.766,-551.697 807.475,-555.747"/>
<text text-anchor="start" x="761.919" y="-605.8" font-family="mono" font-size="14.00" fill="#c83500">events</text>
<text text-anchor="middle" x="799.406" y="-549.366" font-family="Times,serif" font-size="14.00">0..1</text>
</g>
<!-- Versioning -->
<g id="node10" class="node"><title>Versioning</title>
<polygon fill="#8ccbf2" stroke="none" points="880.919,-527.5 880.919,-548.5 1087.92,-548.5 1087.92,-527.5 880.919,-527.5"/>
<polygon fill="none" stroke="#8ccbf2" points="880.919,-527.5 880.919,-548.5 1087.92,-548.5 1087.92,-527.5 880.919,-527.5"/>
<text text-anchor="start" x="942.919" y="-535.3" font-family="mono" font-weight="bold" font-size="14.00" fill="#c83500">Versioning</text>
<polygon fill="#ddeeff" stroke="none" points="880.919,-506.5 880.919,-527.5 1087.92,-527.5 1087.92,-506.5 880.919,-506.5"/>
<polygon fill="none" stroke="#8ccbf2" points="880.919,-506.5 880.919,-527.5 1087.92,-527.5 1087.92,-506.5 880.919,-506.5"/>
<text text-anchor="start" x="883.919" y="-514.3" font-family="mono" font-size="14.00" fill="#c83500">instance</text>
<text text-anchor="start" x="950.919" y="-514.3" font-family="Times,serif" font-size="14.00"> : </text>
<text text-anchor="start" x="962.919" y="-514.3" font-family="mono" font-size="14.00" fill="#c83500">string</text>
<text text-anchor="start" x="1012.92" y="-514.3" font-family="Times,serif" font-size="14.00"> </text>
<text text-anchor="start" x="1016.92" y="-514.3" font-family="Times,serif" font-style="italic" font-size="14.00">(mandatory)</text>
</g>
<!-- Thing&#45;&gt;Versioning -->
<g id="edge11" class="edge"><title>Thing&#45;&gt;Versioning</title>
<path fill="none" stroke="black" d="M762.508,-655.376C822.007,-621.281 888.399,-583.236 932.822,-557.781"/>
<polygon fill="black" stroke="black" points="934.744,-560.713 941.681,-552.704 931.264,-554.639 934.744,-560.713"/>
<text text-anchor="start" x="848.919" y="-605.8" font-family="mono" font-size="14.00" fill="#c83500">version</text>
<text text-anchor="middle" x="930.681" y="-556.504" font-family="Times,serif" font-size="14.00">0..1</text>
</g>
<!-- SecurityScheme -->
<g id="node12" class="node"><title>SecurityScheme</title>
<polygon fill="#f2f2f2" stroke="none" points="1121.92,-516.5 1121.92,-537.5 1243.92,-537.5 1243.92,-516.5 1121.92,-516.5"/>
<polygon fill="none" stroke="#8c8c8c" points="1121.92,-516.5 1121.92,-537.5 1243.92,-537.5 1243.92,-516.5 1121.92,-516.5"/>
<text text-anchor="start" x="1124.92" y="-524.3" font-family="mono" font-weight="bold" font-size="14.00">SecurityScheme</text>
</g>
<!-- Thing&#45;&gt;SecurityScheme -->
<g id="edge8" class="edge"><title>Thing&#45;&gt;SecurityScheme</title>
<path fill="none" stroke="black" d="M762.451,-702.418C860.185,-677.76 994.019,-638.096 1103.92,-584 1121.64,-575.275 1139.79,-562.819 1154.22,-551.917"/>
<polygon fill="black" stroke="black" points="1156.48,-554.599 1162.25,-545.718 1152.2,-549.057 1156.48,-554.599"/>
<text text-anchor="start" x="1054.92" y="-605.8" font-family="mono" font-size="14.00" fill="#c83500">securityDefinitions</text>
<text text-anchor="middle" x="1151.25" y="-549.518" font-family="Times,serif" font-size="14.00">0..1</text>
</g>
<!-- Property&#45;&gt;InteractionPattern -->
<g id="edge20" class="edge"><title>Property&#45;&gt;InteractionPattern</title>
<path fill="none" stroke="black" d="M364.555,-502.247C370.591,-483.071 379.312,-455.369 387.353,-429.828"/>
<polygon fill="white" stroke="black" points="390.73,-430.757 390.394,-420.167 384.053,-428.655 390.73,-430.757"/>
</g>
<!-- Action&#45;&gt;InteractionPattern -->
<g id="edge18" class="edge"><title>Action&#45;&gt;InteractionPattern</title>
<path fill="none" stroke="black" d="M573.281,-491.832C555.093,-479.894 534.896,-466.202 516.919,-453 505.506,-444.618 493.659,-435.483 482.164,-426.368"/>
<polygon fill="white" stroke="black" points="484.271,-423.572 474.271,-420.071 479.905,-429.043 484.271,-423.572"/>
</g>
<!-- Action&#45;&gt;DataSchema -->
<g id="edge13" class="edge"><title>Action&#45;&gt;DataSchema</title>
<path fill="none" stroke="black" d="M615.14,-491.848C600.878,-447.89 582.227,-370.198 601.919,-307 614.427,-266.858 644.474,-228.197 665.976,-204.177"/>
<polygon fill="black" stroke="black" points="668.731,-206.351 672.902,-196.612 663.568,-201.624 668.731,-206.351"/>
<text text-anchor="start" x="601.919" y="-359.8" font-family="mono" font-size="14.00" fill="#c83500">input</text>
<text text-anchor="middle" x="683.902" y="-200.412" font-family="Times,serif" font-size="14.00">0..1</text>
</g>
<!-- Action&#45;&gt;DataSchema -->
<g id="edge14" class="edge"><title>Action&#45;&gt;DataSchema</title>
<path fill="none" stroke="black" d="M634.091,-491.96C646.425,-422.926 673.894,-269.19 685.059,-206.699"/>
<polygon fill="black" stroke="black" points="688.514,-207.264 686.827,-196.804 681.623,-206.033 688.514,-207.264"/>
<text text-anchor="start" x="667.919" y="-359.8" font-family="mono" font-size="14.00" fill="#c83500">output</text>
<text text-anchor="middle" x="697.827" y="-200.604" font-family="Times,serif" font-size="14.00">0..1</text>
</g>
<!-- Event&#45;&gt;InteractionPattern -->
<g id="edge19" class="edge"><title>Event&#45;&gt;InteractionPattern</title>
<path fill="none" stroke="black" d="M813.508,-509.385C806.487,-496.879 795.313,-480.507 780.919,-471 739.946,-443.937 613.037,-433.822 565.919,-420 549.711,-415.245 532.722,-409.79 516.142,-404.197"/>
<polygon fill="white" stroke="black" points="517.03,-400.803 506.435,-400.893 514.774,-407.429 517.03,-400.803"/>
</g>
<!-- Event&#45;&gt;DataSchema -->
<g id="edge15" class="edge"><title>Event&#45;&gt;DataSchema</title>
<path fill="none" stroke="black" d="M833.076,-509.108C840.789,-497.7 851.657,-482.772 862.919,-471 887.823,-444.969 910.408,-452.514 925.919,-420 947.544,-374.672 951.643,-350.134 925.919,-307 888.623,-244.46 808.845,-210.752 752.393,-193.987"/>
<polygon fill="black" stroke="black" points="753.068,-190.539 742.491,-191.148 751.139,-197.268 753.068,-190.539"/>
<text text-anchor="start" x="943.919" y="-359.8" font-family="mono" font-size="14.00" fill="#c83500">subscription</text>
<text text-anchor="middle" x="753.491" y="-194.948" font-family="Times,serif" font-size="14.00">0..1</text>
</g>
<!-- Event&#45;&gt;DataSchema -->
<g id="edge16" class="edge"><title>Event&#45;&gt;DataSchema</title>
<path fill="none" stroke="black" d="M811.62,-509.25C799.56,-488.56 779.507,-452.584 765.919,-420 734.558,-344.794 708.633,-251.85 696.812,-206.69"/>
<polygon fill="black" stroke="black" points="700.141,-205.586 694.245,-196.784 693.365,-207.342 700.141,-205.586"/>
<text text-anchor="start" x="765.919" y="-359.8" font-family="mono" font-size="14.00" fill="#c83500">data</text>
<text text-anchor="middle" x="705.245" y="-200.584" font-family="Times,serif" font-size="14.00">0..1</text>
</g>
<!-- Event&#45;&gt;DataSchema -->
<g id="edge17" class="edge"><title>Event&#45;&gt;DataSchema</title>
<path fill="none" stroke="black" d="M821.53,-509.456C820.295,-464.456 815.57,-343.419 799.919,-307 781.927,-265.132 745.064,-226.98 718.98,-203.541"/>
<polygon fill="black" stroke="black" points="721.084,-200.73 711.264,-196.751 716.46,-205.985 721.084,-200.73"/>
<text text-anchor="start" x="817.919" y="-359.8" font-family="mono" font-size="14.00" fill="#c83500">cancellation</text>
<text text-anchor="middle" x="722.264" y="-200.551" font-family="Times,serif" font-size="14.00">0..1</text>
</g>
</g>
</svg>
