<?xml version="1.0" encoding="UTF-8" standalone="no"?>
<!DOCTYPE svg PUBLIC "-//W3C//DTD SVG 1.1//EN"
 "http://www.w3.org/Graphics/SVG/1.1/DTD/svg11.dtd">
<!-- Generated by graphviz version 2.38.0 (20140413.2041)
 -->
<!-- Title: %3 Pages: 1 -->
<svg width="1426pt" height="903pt"
 viewBox="0.00 0.00 1425.50 903.00" xmlns="http://www.w3.org/2000/svg" xmlns:xlink="http://www.w3.org/1999/xlink">
<g id="graph0" class="graph" transform="scale(1 1) rotate(0) translate(4 899)">
<title>%3</title>
<polygon fill="white" stroke="none" points="-4,4 -4,-899 1421.5,-899 1421.5,4 -4,4"/>
<!-- MultiLanguage -->
<g id="node1" class="node"><title>MultiLanguage</title>
<polygon fill="#8ccbf2" stroke="none" points="273.5,-167.5 273.5,-188.5 387.5,-188.5 387.5,-167.5 273.5,-167.5"/>
<polygon fill="none" stroke="#8ccbf2" points="273.5,-167.5 273.5,-188.5 387.5,-188.5 387.5,-167.5 273.5,-167.5"/>
<text text-anchor="start" x="276.5" y="-175.3" font-family="mono" font-weight="bold" font-size="14.00" fill="#c83500">MultiLanguage</text>
</g>
<!-- InteractionPattern -->
<g id="node2" class="node"><title>InteractionPattern</title>
<polygon fill="#8ccbf2" stroke="none" points="319.5,-416 319.5,-437 500.5,-437 500.5,-416 319.5,-416"/>
<polygon fill="none" stroke="#8ccbf2" points="319.5,-416 319.5,-437 500.5,-437 500.5,-416 319.5,-416"/>
<text text-anchor="start" x="335.5" y="-423.8" font-family="mono" font-weight="bold" font-size="14.00" fill="#c83500">InteractionPattern</text>
<polygon fill="#ddeeff" stroke="none" points="319.5,-395 319.5,-416 500.5,-416 500.5,-395 319.5,-395"/>
<polygon fill="none" stroke="#8ccbf2" points="319.5,-395 319.5,-416 500.5,-416 500.5,-395 319.5,-395"/>
<text text-anchor="start" x="322.5" y="-402.8" font-family="mono" font-size="14.00" fill="#c83500">@type</text>
<text text-anchor="start" x="364.5" y="-402.8" font-family="Times,serif" font-size="14.00"> : </text>
<text text-anchor="start" x="376.5" y="-402.8" font-family="Times,serif" font-style="italic" font-size="14.00">array of </text>
<text text-anchor="start" x="425.5" y="-402.8" font-family="mono" font-size="14.00" fill="#c83500">string</text>
<polygon fill="#ddeeff" stroke="none" points="319.5,-374 319.5,-395 500.5,-395 500.5,-374 319.5,-374"/>
<polygon fill="none" stroke="#8ccbf2" points="319.5,-374 319.5,-395 500.5,-395 500.5,-374 319.5,-374"/>
<text text-anchor="start" x="322.5" y="-381.8" font-family="mono" font-size="14.00" fill="#c83500">security</text>
<text text-anchor="start" x="389.5" y="-381.8" font-family="Times,serif" font-size="14.00"> : array of </text>
<text text-anchor="start" x="447.5" y="-381.8" font-family="mono" font-size="14.00" fill="#c83500">string</text>
<polygon fill="#ddeeff" stroke="none" points="319.5,-353 319.5,-374 500.5,-374 500.5,-353 319.5,-353"/>
<polygon fill="none" stroke="#8ccbf2" points="319.5,-353 319.5,-374 500.5,-374 500.5,-353 319.5,-353"/>
<text text-anchor="start" x="322.5" y="-360.8" font-family="mono" font-size="14.00" fill="#c83500">description</text>
<text text-anchor="start" x="413.5" y="-360.8" font-family="Times,serif" font-size="14.00"> : </text>
<text text-anchor="start" x="425.5" y="-360.8" font-family="mono" font-size="14.00" fill="#c83500">string</text>
<polygon fill="#ddeeff" stroke="none" points="319.5,-332 319.5,-353 500.5,-353 500.5,-332 319.5,-332"/>
<polygon fill="none" stroke="#8ccbf2" points="319.5,-332 319.5,-353 500.5,-353 500.5,-332 319.5,-332"/>
<text text-anchor="start" x="322.5" y="-339.8" font-family="mono" font-size="14.00" fill="#c83500">title</text>
<text text-anchor="start" x="364.5" y="-339.8" font-family="Times,serif" font-size="14.00"> : </text>
<text text-anchor="start" x="376.5" y="-339.8" font-family="mono" font-size="14.00" fill="#c83500">string</text>
<polygon fill="#ddeeff" stroke="none" points="319.5,-311 319.5,-332 500.5,-332 500.5,-311 319.5,-311"/>
<polygon fill="none" stroke="#8ccbf2" points="319.5,-311 319.5,-332 500.5,-332 500.5,-311 319.5,-311"/>
<text text-anchor="start" x="322.5" y="-318.8" font-family="mono" font-size="14.00" fill="#c83500">scopes</text>
<text text-anchor="start" x="372.5" y="-318.8" font-family="Times,serif" font-size="14.00"> : array of </text>
<text text-anchor="start" x="430.5" y="-318.8" font-family="mono" font-size="14.00" fill="#c83500">string</text>
</g>
<!-- InteractionPattern&#45;&gt;MultiLanguage -->
<g id="edge1" class="edge"><title>InteractionPattern&#45;&gt;MultiLanguage</title>
<path fill="none" stroke="black" d="M310.98,-319.202C301.615,-310.319 293.422,-300.268 287.5,-289 272.924,-261.267 291.257,-227.452 308.293,-204.802"/>
<polygon fill="black" stroke="black" points="311.237,-206.722 314.687,-196.704 305.743,-202.384 311.237,-206.722"/>
<text text-anchor="start" x="287.5" y="-277.8" font-family="mono" font-size="14.00" fill="#c83500">descriptions</text>
<text text-anchor="middle" x="303.687" y="-200.504" font-family="Times,serif" font-size="14.00">0..1</text>
</g>
<!-- InteractionPattern&#45;&gt;MultiLanguage -->
<g id="edge3" class="edge"><title>InteractionPattern&#45;&gt;MultiLanguage</title>
<path fill="none" stroke="black" d="M397.936,-306.859C395.101,-295.701 391.654,-284.38 387.5,-274 377.589,-249.236 361.6,-223.459 349.075,-205.094"/>
<polygon fill="black" stroke="black" points="351.829,-202.924 343.247,-196.711 346.081,-206.92 351.829,-202.924"/>
<text text-anchor="start" x="392.5" y="-277.8" font-family="mono" font-size="14.00" fill="#c83500">titles</text>
<text text-anchor="middle" x="332.247" y="-200.511" font-family="Times,serif" font-size="14.00">0..1</text>
</g>
<!-- Form -->
<g id="node4" class="node"><title>Form</title>
<polygon fill="#8ccbf2" stroke="none" points="8.5,-230.5 8.5,-251.5 239.5,-251.5 239.5,-230.5 8.5,-230.5"/>
<polygon fill="none" stroke="#8ccbf2" points="8.5,-230.5 8.5,-251.5 239.5,-251.5 239.5,-230.5 8.5,-230.5"/>
<text text-anchor="start" x="107" y="-238.3" font-family="mono" font-weight="bold" font-size="14.00" fill="#c83500">Form</text>
<polygon fill="#ddeeff" stroke="none" points="8.5,-209.5 8.5,-230.5 239.5,-230.5 239.5,-209.5 8.5,-209.5"/>
<polygon fill="none" stroke="#8ccbf2" points="8.5,-209.5 8.5,-230.5 239.5,-230.5 239.5,-209.5 8.5,-209.5"/>
<text text-anchor="start" x="11.5" y="-217.3" font-family="mono" font-size="14.00" fill="#c83500">op</text>
<text text-anchor="start" x="28.5" y="-217.3" font-family="Times,serif" font-size="14.00"> : </text>
<text text-anchor="start" x="40.5" y="-217.3" font-family="mono" font-size="14.00" fill="#c83500">string</text>
<polygon fill="#ddeeff" stroke="none" points="8.5,-188.5 8.5,-209.5 239.5,-209.5 239.5,-188.5 8.5,-188.5"/>
<polygon fill="none" stroke="#8ccbf2" points="8.5,-188.5 8.5,-209.5 239.5,-209.5 239.5,-188.5 8.5,-188.5"/>
<text text-anchor="start" x="11.5" y="-196.3" font-family="mono" font-size="14.00" fill="#c83500">scopes</text>
<text text-anchor="start" x="61.5" y="-196.3" font-family="Times,serif" font-size="14.00"> : array of </text>
<text text-anchor="start" x="119.5" y="-196.3" font-family="mono" font-size="14.00" fill="#c83500">string</text>
<polygon fill="#ddeeff" stroke="none" points="8.5,-167.5 8.5,-188.5 239.5,-188.5 239.5,-167.5 8.5,-167.5"/>
<polygon fill="none" stroke="#8ccbf2" points="8.5,-167.5 8.5,-188.5 239.5,-188.5 239.5,-167.5 8.5,-167.5"/>
<text text-anchor="start" x="11.5" y="-175.3" font-family="mono" font-size="14.00" fill="#c83500">href</text>
<text text-anchor="start" x="45.5" y="-175.3" font-family="Times,serif" font-size="14.00"> : </text>
<text text-anchor="start" x="57.5" y="-175.3" font-family="mono" font-size="14.00" fill="#c83500">anyURI</text>
<text text-anchor="start" x="107.5" y="-175.3" font-family="Times,serif" font-size="14.00"> </text>
<text text-anchor="start" x="111.5" y="-175.3" font-family="Times,serif" font-style="italic" font-size="14.00">(mandatory)</text>
<polygon fill="#ddeeff" stroke="none" points="8.5,-146.5 8.5,-167.5 239.5,-167.5 239.5,-146.5 8.5,-146.5"/>
<polygon fill="none" stroke="#8ccbf2" points="8.5,-146.5 8.5,-167.5 239.5,-167.5 239.5,-146.5 8.5,-146.5"/>
<text text-anchor="start" x="11.5" y="-154.3" font-family="mono" font-size="14.00" fill="#c83500">security</text>
<text text-anchor="start" x="78.5" y="-154.3" font-family="Times,serif" font-size="14.00"> : array of </text>
<text text-anchor="start" x="136.5" y="-154.3" font-family="mono" font-size="14.00" fill="#c83500">string</text>
<polygon fill="#ddeeff" stroke="none" points="8.5,-125.5 8.5,-146.5 239.5,-146.5 239.5,-125.5 8.5,-125.5"/>
<polygon fill="none" stroke="#8ccbf2" points="8.5,-125.5 8.5,-146.5 239.5,-146.5 239.5,-125.5 8.5,-125.5"/>
<text text-anchor="start" x="11.5" y="-133.3" font-family="mono" font-size="14.00" fill="#c83500">contentType</text>
<text text-anchor="start" x="102.5" y="-133.3" font-family="Times,serif" font-size="14.00"> : </text>
<text text-anchor="start" x="114.5" y="-133.3" font-family="mono" font-size="14.00" fill="#c83500">string</text>
<text text-anchor="start" x="164.5" y="-133.3" font-family="Times,serif" font-size="14.00"> </text>
<text text-anchor="start" x="168.5" y="-133.3" font-family="Times,serif" font-style="italic" font-size="14.00">(mandatory)</text>
<polygon fill="#ddeeff" stroke="none" points="8.5,-104.5 8.5,-125.5 239.5,-125.5 239.5,-104.5 8.5,-104.5"/>
<polygon fill="none" stroke="#8ccbf2" points="8.5,-104.5 8.5,-125.5 239.5,-125.5 239.5,-104.5 8.5,-104.5"/>
<text text-anchor="start" x="11.5" y="-112.3" font-family="mono" font-size="14.00" fill="#c83500">subprotocol</text>
<text text-anchor="start" x="102.5" y="-112.3" font-family="Times,serif" font-size="14.00"> : </text>
<text text-anchor="start" x="114.5" y="-112.3" font-family="mono" font-size="14.00" fill="#c83500">string</text>
</g>
<!-- InteractionPattern&#45;&gt;Form -->
<g id="edge2" class="edge"><title>InteractionPattern&#45;&gt;Form</title>
<path fill="none" stroke="black" d="M310.995,-331.406C286.141,-319.179 260.111,-304.796 237.5,-289 226.276,-281.159 215.097,-272.215 204.372,-262.897"/>
<polygon fill="black" stroke="black" points="206.455,-260.066 196.649,-256.055 201.814,-265.306 206.455,-260.066"/>
<text text-anchor="start" x="237.5" y="-277.8" font-family="mono" font-size="14.00" fill="#c83500">forms</text>
<text text-anchor="middle" x="185.649" y="-259.855" font-family="Times,serif" font-size="14.00">1..*</text>
</g>
<!-- DataSchema -->
<g id="node11" class="node"><title>DataSchema</title>
<polygon fill="#f2f2f2" stroke="none" points="678.5,-167.5 678.5,-188.5 767.5,-188.5 767.5,-167.5 678.5,-167.5"/>
<polygon fill="none" stroke="#8c8c8c" points="678.5,-167.5 678.5,-188.5 767.5,-188.5 767.5,-167.5 678.5,-167.5"/>
<text text-anchor="start" x="681.5" y="-175.3" font-family="mono" font-weight="bold" font-size="14.00">DataSchema</text>
</g>
<!-- InteractionPattern&#45;&gt;DataSchema -->
<g id="edge4" class="edge"><title>InteractionPattern&#45;&gt;DataSchema</title>
<path fill="none" stroke="black" d="M450.824,-306.862C460.471,-294.824 471.482,-283.188 483.5,-274 536.338,-233.605 608.675,-208.212 659.889,-194.047"/>
<polygon fill="black" stroke="black" points="661.095,-197.347 669.838,-191.362 659.272,-190.588 661.095,-197.347"/>
<text text-anchor="start" x="483.5" y="-277.8" font-family="mono" font-size="14.00" fill="#c83500">uriVariables</text>
<text text-anchor="middle" x="658.838" y="-195.162" font-family="Times,serif" font-size="14.00">0..1</text>
</g>
<!-- Link -->
<g id="node3" class="node"><title>Link</title>
<polygon fill="#8ccbf2" stroke="none" points="837.5,-579.5 837.5,-600.5 1011.5,-600.5 1011.5,-579.5 837.5,-579.5"/>
<polygon fill="none" stroke="#8ccbf2" points="837.5,-579.5 837.5,-600.5 1011.5,-600.5 1011.5,-579.5 837.5,-579.5"/>
<text text-anchor="start" x="907.5" y="-587.3" font-family="mono" font-weight="bold" font-size="14.00" fill="#c83500">Link</text>
<polygon fill="#ddeeff" stroke="none" points="837.5,-558.5 837.5,-579.5 1011.5,-579.5 1011.5,-558.5 837.5,-558.5"/>
<polygon fill="none" stroke="#8ccbf2" points="837.5,-558.5 837.5,-579.5 1011.5,-579.5 1011.5,-558.5 837.5,-558.5"/>
<text text-anchor="start" x="840.5" y="-566.3" font-family="mono" font-size="14.00" fill="#c83500">rel</text>
<text text-anchor="start" x="865.5" y="-566.3" font-family="Times,serif" font-size="14.00"> : </text>
<text text-anchor="start" x="877.5" y="-566.3" font-family="mono" font-size="14.00" fill="#c83500">string</text>
<polygon fill="#ddeeff" stroke="none" points="837.5,-537.5 837.5,-558.5 1011.5,-558.5 1011.5,-537.5 837.5,-537.5"/>
<polygon fill="none" stroke="#8ccbf2" points="837.5,-537.5 837.5,-558.5 1011.5,-558.5 1011.5,-537.5 837.5,-537.5"/>
<text text-anchor="start" x="840.5" y="-545.3" font-family="mono" font-size="14.00" fill="#c83500">type</text>
<text text-anchor="start" x="874.5" y="-545.3" font-family="Times,serif" font-size="14.00"> : </text>
<text text-anchor="start" x="886.5" y="-545.3" font-family="mono" font-size="14.00" fill="#c83500">string</text>
<polygon fill="#ddeeff" stroke="none" points="837.5,-516.5 837.5,-537.5 1011.5,-537.5 1011.5,-516.5 837.5,-516.5"/>
<polygon fill="none" stroke="#8ccbf2" points="837.5,-516.5 837.5,-537.5 1011.5,-537.5 1011.5,-516.5 837.5,-516.5"/>
<text text-anchor="start" x="840.5" y="-524.3" font-family="mono" font-size="14.00" fill="#c83500">anchor</text>
<text text-anchor="start" x="890.5" y="-524.3" font-family="Times,serif" font-size="14.00"> : </text>
<text text-anchor="start" x="902.5" y="-524.3" font-family="mono" font-size="14.00" fill="#c83500">anyURI</text>
<polygon fill="#ddeeff" stroke="none" points="837.5,-495.5 837.5,-516.5 1011.5,-516.5 1011.5,-495.5 837.5,-495.5"/>
<polygon fill="none" stroke="#8ccbf2" points="837.5,-495.5 837.5,-516.5 1011.5,-516.5 1011.5,-495.5 837.5,-495.5"/>
<text text-anchor="start" x="840.5" y="-503.3" font-family="mono" font-size="14.00" fill="#c83500">href</text>
<text text-anchor="start" x="874.5" y="-503.3" font-family="Times,serif" font-size="14.00"> : </text>
<text text-anchor="start" x="886.5" y="-503.3" font-family="mono" font-size="14.00" fill="#c83500">anyURI</text>
<text text-anchor="start" x="936.5" y="-503.3" font-family="Times,serif" font-size="14.00"> </text>
<text text-anchor="start" x="940.5" y="-503.3" font-family="Times,serif" font-style="italic" font-size="14.00">(mandatory)</text>
</g>
<!-- ExpectedResponse -->
<g id="node7" class="node"><title>ExpectedResponse</title>
<polygon fill="#8ccbf2" stroke="none" points="44.5,-25 44.5,-46 203.5,-46 203.5,-25 44.5,-25"/>
<polygon fill="none" stroke="#8ccbf2" points="44.5,-25 44.5,-46 203.5,-46 203.5,-25 44.5,-25"/>
<text text-anchor="start" x="57.5" y="-32.8" font-family="mono" font-weight="bold" font-size="14.00" fill="#c83500">ExpectedResponse</text>
<polygon fill="#ddeeff" stroke="none" points="44.5,-4 44.5,-25 203.5,-25 203.5,-4 44.5,-4"/>
<polygon fill="none" stroke="#8ccbf2" points="44.5,-4 44.5,-25 203.5,-25 203.5,-4 44.5,-4"/>
<text text-anchor="start" x="47.5" y="-11.8" font-family="mono" font-size="14.00" fill="#c83500">contentType</text>
<text text-anchor="start" x="138.5" y="-11.8" font-family="Times,serif" font-size="14.00"> : </text>
<text text-anchor="start" x="150.5" y="-11.8" font-family="mono" font-size="14.00" fill="#c83500">string</text>
</g>
<!-- Form&#45;&gt;ExpectedResponse -->
<g id="edge5" class="edge"><title>Form&#45;&gt;ExpectedResponse</title>
<path fill="none" stroke="black" d="M123.5,-100.862C123.5,-86.5577 123.5,-72.2953 123.5,-60.116"/>
<polygon fill="black" stroke="black" points="127,-60.0004 123.5,-50.0004 120,-60.0004 127,-60.0004"/>
<text text-anchor="start" x="123.5" y="-71.8" font-family="mono" font-size="14.00" fill="#c83500">response</text>
<text text-anchor="middle" x="112.5" y="-53.8004" font-family="Times,serif" font-size="14.00">0..1</text>
</g>
<!-- Thing -->
<g id="node5" class="node"><title>Thing</title>
<polygon fill="#8ccbf2" stroke="none" points="559.5,-869.5 559.5,-890.5 823.5,-890.5 823.5,-869.5 559.5,-869.5"/>
<polygon fill="none" stroke="#8ccbf2" points="559.5,-869.5 559.5,-890.5 823.5,-890.5 823.5,-869.5 559.5,-869.5"/>
<text text-anchor="start" x="670.5" y="-877.3" font-family="mono" font-weight="bold" font-size="14.00" fill="#c83500">Thing</text>
<polygon fill="#ddeeff" stroke="none" points="559.5,-848.5 559.5,-869.5 823.5,-869.5 823.5,-848.5 559.5,-848.5"/>
<polygon fill="none" stroke="#8ccbf2" points="559.5,-848.5 559.5,-869.5 823.5,-869.5 823.5,-848.5 559.5,-848.5"/>
<text text-anchor="start" x="562.5" y="-856.3" font-family="mono" font-size="14.00" fill="#c83500">@context</text>
<text text-anchor="start" x="629.5" y="-856.3" font-family="Times,serif" font-size="14.00"> : </text>
<text text-anchor="start" x="641.5" y="-856.3" font-family="Times,serif" font-style="italic" font-size="14.00">array of </text>
<text text-anchor="start" x="690.5" y="-856.3" font-family="mono" font-size="14.00" fill="#c83500">context</text>
<text text-anchor="start" x="748.5" y="-856.3" font-family="Times,serif" font-size="14.00"> </text>
<text text-anchor="start" x="752.5" y="-856.3" font-family="Times,serif" font-style="italic" font-size="14.00">(mandatory)</text>
<polygon fill="#ddeeff" stroke="none" points="559.5,-827.5 559.5,-848.5 823.5,-848.5 823.5,-827.5 559.5,-827.5"/>
<polygon fill="none" stroke="#8ccbf2" points="559.5,-827.5 559.5,-848.5 823.5,-848.5 823.5,-827.5 559.5,-827.5"/>
<text text-anchor="start" x="562.5" y="-835.3" font-family="mono" font-size="14.00" fill="#c83500">@type</text>
<text text-anchor="start" x="604.5" y="-835.3" font-family="Times,serif" font-size="14.00"> : </text>
<text text-anchor="start" x="616.5" y="-835.3" font-family="Times,serif" font-style="italic" font-size="14.00">array of </text>
<text text-anchor="start" x="665.5" y="-835.3" font-family="mono" font-size="14.00" fill="#c83500">string</text>
<polygon fill="#ddeeff" stroke="none" points="559.5,-806.5 559.5,-827.5 823.5,-827.5 823.5,-806.5 559.5,-806.5"/>
<polygon fill="none" stroke="#8ccbf2" points="559.5,-806.5 559.5,-827.5 823.5,-827.5 823.5,-806.5 559.5,-806.5"/>
<text text-anchor="start" x="562.5" y="-814.3" font-family="mono" font-size="14.00" fill="#c83500">id</text>
<text text-anchor="start" x="579.5" y="-814.3" font-family="Times,serif" font-size="14.00"> : </text>
<text text-anchor="start" x="591.5" y="-814.3" font-family="mono" font-size="14.00" fill="#c83500">anyURI</text>
<text text-anchor="start" x="641.5" y="-814.3" font-family="Times,serif" font-size="14.00"> </text>
<text text-anchor="start" x="645.5" y="-814.3" font-family="Times,serif" font-style="italic" font-size="14.00">(mandatory)</text>
<polygon fill="#ddeeff" stroke="none" points="559.5,-785.5 559.5,-806.5 823.5,-806.5 823.5,-785.5 559.5,-785.5"/>
<polygon fill="none" stroke="#8ccbf2" points="559.5,-785.5 559.5,-806.5 823.5,-806.5 823.5,-785.5 559.5,-785.5"/>
<text text-anchor="start" x="562.5" y="-793.3" font-family="mono" font-size="14.00" fill="#c83500">base</text>
<text text-anchor="start" x="596.5" y="-793.3" font-family="Times,serif" font-size="14.00"> : </text>
<text text-anchor="start" x="608.5" y="-793.3" font-family="mono" font-size="14.00" fill="#c83500">anyURI</text>
<polygon fill="#ddeeff" stroke="none" points="559.5,-764.5 559.5,-785.5 823.5,-785.5 823.5,-764.5 559.5,-764.5"/>
<polygon fill="none" stroke="#8ccbf2" points="559.5,-764.5 559.5,-785.5 823.5,-785.5 823.5,-764.5 559.5,-764.5"/>
<text text-anchor="start" x="562.5" y="-772.3" font-family="mono" font-size="14.00" fill="#c83500">created</text>
<text text-anchor="start" x="620.5" y="-772.3" font-family="Times,serif" font-size="14.00"> : </text>
<text text-anchor="start" x="632.5" y="-772.3" font-family="mono" font-size="14.00" fill="#c83500">string</text>
<polygon fill="#ddeeff" stroke="none" points="559.5,-743.5 559.5,-764.5 823.5,-764.5 823.5,-743.5 559.5,-743.5"/>
<polygon fill="none" stroke="#8ccbf2" points="559.5,-743.5 559.5,-764.5 823.5,-764.5 823.5,-743.5 559.5,-743.5"/>
<text text-anchor="start" x="562.5" y="-751.3" font-family="mono" font-size="14.00" fill="#c83500">support</text>
<text text-anchor="start" x="620.5" y="-751.3" font-family="Times,serif" font-size="14.00"> : </text>
<text text-anchor="start" x="632.5" y="-751.3" font-family="mono" font-size="14.00" fill="#c83500">string</text>
<polygon fill="#ddeeff" stroke="none" points="559.5,-722.5 559.5,-743.5 823.5,-743.5 823.5,-722.5 559.5,-722.5"/>
<polygon fill="none" stroke="#8ccbf2" points="559.5,-722.5 559.5,-743.5 823.5,-743.5 823.5,-722.5 559.5,-722.5"/>
<text text-anchor="start" x="562.5" y="-730.3" font-family="mono" font-size="14.00" fill="#c83500">name</text>
<text text-anchor="start" x="596.5" y="-730.3" font-family="Times,serif" font-size="14.00"> : </text>
<text text-anchor="start" x="608.5" y="-730.3" font-family="mono" font-size="14.00" fill="#c83500">string</text>
<text text-anchor="start" x="658.5" y="-730.3" font-family="Times,serif" font-size="14.00"> </text>
<text text-anchor="start" x="662.5" y="-730.3" font-family="Times,serif" font-style="italic" font-size="14.00">(mandatory)</text>
<polygon fill="#ddeeff" stroke="none" points="559.5,-701.5 559.5,-722.5 823.5,-722.5 823.5,-701.5 559.5,-701.5"/>
<polygon fill="none" stroke="#8ccbf2" points="559.5,-701.5 559.5,-722.5 823.5,-722.5 823.5,-701.5 559.5,-701.5"/>
<text text-anchor="start" x="562.5" y="-709.3" font-family="mono" font-size="14.00" fill="#c83500">description</text>
<text text-anchor="start" x="653.5" y="-709.3" font-family="Times,serif" font-size="14.00"> : </text>
<text text-anchor="start" x="665.5" y="-709.3" font-family="mono" font-size="14.00" fill="#c83500">string</text>
<polygon fill="#ddeeff" stroke="none" points="559.5,-680.5 559.5,-701.5 823.5,-701.5 823.5,-680.5 559.5,-680.5"/>
<polygon fill="none" stroke="#8ccbf2" points="559.5,-680.5 559.5,-701.5 823.5,-701.5 823.5,-680.5 559.5,-680.5"/>
<text text-anchor="start" x="562.5" y="-688.3" font-family="mono" font-size="14.00" fill="#c83500">lastModified</text>
<text text-anchor="start" x="662.5" y="-688.3" font-family="Times,serif" font-size="14.00"> : </text>
<text text-anchor="start" x="674.5" y="-688.3" font-family="mono" font-size="14.00" fill="#c83500">string</text>
<polygon fill="#ddeeff" stroke="none" points="559.5,-659.5 559.5,-680.5 823.5,-680.5 823.5,-659.5 559.5,-659.5"/>
<polygon fill="none" stroke="#8ccbf2" points="559.5,-659.5 559.5,-680.5 823.5,-680.5 823.5,-659.5 559.5,-659.5"/>
<text text-anchor="start" x="562.5" y="-667.3" font-family="mono" font-size="14.00" fill="#c83500">security</text>
<text text-anchor="start" x="629.5" y="-667.3" font-family="Times,serif" font-size="14.00"> : array of </text>
<text text-anchor="start" x="687.5" y="-667.3" font-family="mono" font-size="14.00" fill="#c83500">string</text>
<text text-anchor="start" x="737.5" y="-667.3" font-family="Times,serif" font-size="14.00"> </text>
<text text-anchor="start" x="741.5" y="-667.3" font-family="Times,serif" font-style="italic" font-size="14.00">(mandatory)</text>
</g>
<!-- Thing&#45;&gt;MultiLanguage -->
<g id="edge9" class="edge"><title>Thing&#45;&gt;MultiLanguage</title>
<path fill="none" stroke="black" d="M551.301,-767.445C437.909,-753.463 284.83,-714.017 207.5,-605 179.262,-565.191 176.048,-334.44 216.5,-274 227.118,-258.135 239.895,-266.996 255.5,-256 276.086,-241.494 295.876,-220.933 309.954,-204.779"/>
<polygon fill="black" stroke="black" points="312.942,-206.669 316.769,-196.789 307.616,-202.126 312.942,-206.669"/>
<text text-anchor="start" x="186.5" y="-462.8" font-family="mono" font-size="14.00" fill="#c83500">descriptions</text>
<text text-anchor="middle" x="327.769" y="-200.589" font-family="Times,serif" font-size="14.00">0..1</text>
</g>
<!-- Thing&#45;&gt;Link -->
<g id="edge12" class="edge"><title>Thing&#45;&gt;Link</title>
<path fill="none" stroke="black" d="M814.482,-655.741C830.039,-640.717 845.442,-625.843 859.576,-612.195"/>
<polygon fill="black" stroke="black" points="862.083,-614.639 866.845,-605.175 857.221,-609.604 862.083,-614.639"/>
<text text-anchor="start" x="842.5" y="-626.8" font-family="mono" font-size="14.00" fill="#c83500">links</text>
<text text-anchor="middle" x="855.845" y="-608.975" font-family="Times,serif" font-size="14.00">0..*</text>
</g>
<!-- Thing&#45;&gt;Form -->
<g id="edge6" class="edge"><title>Thing&#45;&gt;Form</title>
<path fill="none" stroke="black" d="M551.438,-747.869C415.747,-718.748 224.601,-667.758 183.5,-605 116.724,-503.038 110.742,-357.92 115.155,-266.255"/>
<polygon fill="black" stroke="black" points="118.655,-266.349 115.693,-256.177 111.665,-265.976 118.655,-266.349"/>
<text text-anchor="start" x="130.5" y="-462.8" font-family="mono" font-size="14.00" fill="#c83500">forms</text>
<text text-anchor="middle" x="104.693" y="-259.977" font-family="Times,serif" font-size="14.00">0..*</text>
</g>
<!-- Property -->
<g id="node6" class="node"><title>Property</title>
<polygon fill="#8ccbf2" stroke="none" points="225.5,-548.5 225.5,-569.5 456.5,-569.5 456.5,-548.5 225.5,-548.5"/>
<polygon fill="none" stroke="#8ccbf2" points="225.5,-548.5 225.5,-569.5 456.5,-569.5 456.5,-548.5 225.5,-548.5"/>
<text text-anchor="start" x="307.5" y="-556.3" font-family="mono" font-weight="bold" font-size="14.00" fill="#c83500">Property</text>
<polygon fill="#ddeeff" stroke="none" points="225.5,-527.5 225.5,-548.5 456.5,-548.5 456.5,-527.5 225.5,-527.5"/>
<polygon fill="none" stroke="#8ccbf2" points="225.5,-527.5 225.5,-548.5 456.5,-548.5 456.5,-527.5 225.5,-527.5"/>
<text text-anchor="start" x="228.5" y="-535.3" font-family="mono" font-size="14.00" fill="#c83500">observable</text>
<text text-anchor="start" x="311.5" y="-535.3" font-family="Times,serif" font-size="14.00"> : </text>
<text text-anchor="start" x="323.5" y="-535.3" font-family="mono" font-size="14.00" fill="#c83500">boolean</text>
<text text-anchor="start" x="381.5" y="-535.3" font-family="Times,serif" font-size="14.00"> </text>
<text text-anchor="start" x="385.5" y="-535.3" font-family="Times,serif" font-style="italic" font-size="14.00">(mandatory)</text>
</g>
<!-- Thing&#45;&gt;Property -->
<g id="edge11" class="edge"><title>Thing&#45;&gt;Property</title>
<path fill="none" stroke="black" d="M551.262,-684.604C492.611,-647.007 428.479,-605.897 386.551,-579.02"/>
<polygon fill="black" stroke="black" points="388.258,-575.957 377.951,-573.507 384.481,-581.85 388.258,-575.957"/>
<text text-anchor="start" x="474.5" y="-626.8" font-family="mono" font-size="14.00" fill="#c83500">properties</text>
<text text-anchor="middle" x="366.951" y="-577.307" font-family="Times,serif" font-size="14.00">0..1</text>
</g>
<!-- VersionInfo -->
<g id="node8" class="node"><title>VersionInfo</title>
<polygon fill="#8ccbf2" stroke="none" points="1046.5,-548.5 1046.5,-569.5 1253.5,-569.5 1253.5,-548.5 1046.5,-548.5"/>
<polygon fill="none" stroke="#8ccbf2" points="1046.5,-548.5 1046.5,-569.5 1253.5,-569.5 1253.5,-548.5 1046.5,-548.5"/>
<text text-anchor="start" x="1104.5" y="-556.3" font-family="mono" font-weight="bold" font-size="14.00" fill="#c83500">VersionInfo</text>
<polygon fill="#ddeeff" stroke="none" points="1046.5,-527.5 1046.5,-548.5 1253.5,-548.5 1253.5,-527.5 1046.5,-527.5"/>
<polygon fill="none" stroke="#8ccbf2" points="1046.5,-527.5 1046.5,-548.5 1253.5,-548.5 1253.5,-527.5 1046.5,-527.5"/>
<text text-anchor="start" x="1049.5" y="-535.3" font-family="mono" font-size="14.00" fill="#c83500">instance</text>
<text text-anchor="start" x="1116.5" y="-535.3" font-family="Times,serif" font-size="14.00"> : </text>
<text text-anchor="start" x="1128.5" y="-535.3" font-family="mono" font-size="14.00" fill="#c83500">string</text>
<text text-anchor="start" x="1178.5" y="-535.3" font-family="Times,serif" font-size="14.00"> </text>
<text text-anchor="start" x="1182.5" y="-535.3" font-family="Times,serif" font-style="italic" font-size="14.00">(mandatory)</text>
</g>
<!-- Thing&#45;&gt;VersionInfo -->
<g id="edge13" class="edge"><title>Thing&#45;&gt;VersionInfo</title>
<path fill="none" stroke="black" d="M831.716,-705.617C918.827,-662.822 1026.22,-610.064 1091.2,-578.141"/>
<polygon fill="black" stroke="black" points="1093.04,-581.137 1100.47,-573.586 1089.95,-574.854 1093.04,-581.137"/>
<text text-anchor="start" x="988.5" y="-626.8" font-family="mono" font-size="14.00" fill="#c83500">version</text>
<text text-anchor="middle" x="1089.47" y="-577.386" font-family="Times,serif" font-size="14.00">0..1</text>
</g>
<!-- Action -->
<g id="node9" class="node"><title>Action</title>
<polygon fill="#8ccbf2" stroke="none" points="490.5,-558.5 490.5,-579.5 721.5,-579.5 721.5,-558.5 490.5,-558.5"/>
<polygon fill="none" stroke="#8ccbf2" points="490.5,-558.5 490.5,-579.5 721.5,-579.5 721.5,-558.5 490.5,-558.5"/>
<text text-anchor="start" x="581" y="-566.3" font-family="mono" font-weight="bold" font-size="14.00" fill="#c83500">Action</text>
<polygon fill="#ddeeff" stroke="none" points="490.5,-537.5 490.5,-558.5 721.5,-558.5 721.5,-537.5 490.5,-537.5"/>
<polygon fill="none" stroke="#8ccbf2" points="490.5,-537.5 490.5,-558.5 721.5,-558.5 721.5,-537.5 490.5,-537.5"/>
<text text-anchor="start" x="493.5" y="-545.3" font-family="mono" font-size="14.00" fill="#c83500">idempotent</text>
<text text-anchor="start" x="576.5" y="-545.3" font-family="Times,serif" font-size="14.00"> : </text>
<text text-anchor="start" x="588.5" y="-545.3" font-family="mono" font-size="14.00" fill="#c83500">boolean</text>
<text text-anchor="start" x="646.5" y="-545.3" font-family="Times,serif" font-size="14.00"> </text>
<text text-anchor="start" x="650.5" y="-545.3" font-family="Times,serif" font-style="italic" font-size="14.00">(mandatory)</text>
<polygon fill="#ddeeff" stroke="none" points="490.5,-516.5 490.5,-537.5 721.5,-537.5 721.5,-516.5 490.5,-516.5"/>
<polygon fill="none" stroke="#8ccbf2" points="490.5,-516.5 490.5,-537.5 721.5,-537.5 721.5,-516.5 490.5,-516.5"/>
<text text-anchor="start" x="493.5" y="-524.3" font-family="mono" font-size="14.00" fill="#c83500">safe</text>
<text text-anchor="start" x="527.5" y="-524.3" font-family="Times,serif" font-size="14.00"> : </text>
<text text-anchor="start" x="539.5" y="-524.3" font-family="mono" font-size="14.00" fill="#c83500">boolean</text>
<text text-anchor="start" x="597.5" y="-524.3" font-family="Times,serif" font-size="14.00"> </text>
<text text-anchor="start" x="601.5" y="-524.3" font-family="Times,serif" font-style="italic" font-size="14.00">(mandatory)</text>
</g>
<!-- Thing&#45;&gt;Action -->
<g id="edge10" class="edge"><title>Thing&#45;&gt;Action</title>
<path fill="none" stroke="black" d="M646.108,-655.741C637.658,-633.635 629.333,-611.853 622.441,-593.823"/>
<polygon fill="black" stroke="black" points="625.608,-592.304 618.768,-584.213 619.069,-594.804 625.608,-592.304"/>
<text text-anchor="start" x="638.5" y="-626.8" font-family="mono" font-size="14.00" fill="#c83500">actions</text>
<text text-anchor="middle" x="607.768" y="-588.013" font-family="Times,serif" font-size="14.00">0..1</text>
</g>
<!-- Event -->
<g id="node10" class="node"><title>Event</title>
<polygon fill="#8ccbf2" stroke="none" points="755.5,-537.5 755.5,-558.5 803.5,-558.5 803.5,-537.5 755.5,-537.5"/>
<polygon fill="none" stroke="#8ccbf2" points="755.5,-537.5 755.5,-558.5 803.5,-558.5 803.5,-537.5 755.5,-537.5"/>
<text text-anchor="start" x="758.5" y="-545.3" font-family="mono" font-weight="bold" font-size="14.00" fill="#c83500">Event</text>
</g>
<!-- Thing&#45;&gt;Event -->
<g id="edge8" class="edge"><title>Thing&#45;&gt;Event</title>
<path fill="none" stroke="black" d="M737.948,-655.741C749.683,-625.737 761.185,-596.329 769.101,-576.088"/>
<polygon fill="black" stroke="black" points="772.407,-577.243 772.79,-566.656 765.888,-574.694 772.407,-577.243"/>
<text text-anchor="start" x="749.5" y="-626.8" font-family="mono" font-size="14.00" fill="#c83500">events</text>
<text text-anchor="middle" x="761.79" y="-570.456" font-family="Times,serif" font-size="14.00">0..1</text>
</g>
<!-- SecurityScheme -->
<g id="node12" class="node"><title>SecurityScheme</title>
<polygon fill="#f2f2f2" stroke="none" points="1287.5,-537.5 1287.5,-558.5 1409.5,-558.5 1409.5,-537.5 1287.5,-537.5"/>
<polygon fill="none" stroke="#8c8c8c" points="1287.5,-537.5 1287.5,-558.5 1409.5,-558.5 1409.5,-537.5 1287.5,-537.5"/>
<text text-anchor="start" x="1290.5" y="-545.3" font-family="mono" font-weight="bold" font-size="14.00">SecurityScheme</text>
</g>
<!-- Thing&#45;&gt;SecurityScheme -->
<g id="edge7" class="edge"><title>Thing&#45;&gt;SecurityScheme</title>
<path fill="none" stroke="black" d="M831.645,-746.927C951.703,-720.178 1127.24,-673.518 1269.5,-605 1287.43,-596.367 1305.71,-583.807 1320.17,-572.818"/>
<polygon fill="black" stroke="black" points="1322.46,-575.471 1328.21,-566.571 1318.17,-569.943 1322.46,-575.471"/>
<text text-anchor="start" x="1225.5" y="-626.8" font-family="mono" font-size="14.00" fill="#c83500">securityDefinitions</text>
<text text-anchor="middle" x="1317.21" y="-570.371" font-family="Times,serif" font-size="14.00">1..1</text>
</g>
<!-- Property&#45;&gt;InteractionPattern -->
<g id="edge21" class="edge"><title>Property&#45;&gt;InteractionPattern</title>
<path fill="none" stroke="black" d="M350.24,-523.151C357.816,-504.21 368.76,-476.85 379.186,-450.785"/>
<polygon fill="white" stroke="black" points="382.532,-451.843 382.997,-441.258 376.033,-449.243 382.532,-451.843"/>
</g>
<!-- Action&#45;&gt;InteractionPattern -->
<g id="edge19" class="edge"><title>Action&#45;&gt;InteractionPattern</title>
<path fill="none" stroke="black" d="M565.836,-512.592C544.751,-494.035 518.001,-470.492 492.615,-448.15"/>
<polygon fill="white" stroke="black" points="494.607,-445.241 484.788,-441.261 489.983,-450.495 494.607,-445.241"/>
</g>
<!-- Action&#45;&gt;DataSchema -->
<g id="edge14" class="edge"><title>Action&#45;&gt;DataSchema</title>
<path fill="none" stroke="black" d="M599.212,-512.613C592.105,-464.498 584.723,-375.907 611.5,-307 627.974,-264.607 665.178,-226.817 691.978,-203.592"/>
<polygon fill="black" stroke="black" points="694.556,-205.996 699.927,-196.863 690.033,-200.653 694.556,-205.996"/>
<text text-anchor="start" x="611.5" y="-370.3" font-family="mono" font-size="14.00" fill="#c83500">output</text>
<text text-anchor="middle" x="688.927" y="-200.663" font-family="Times,serif" font-size="14.00">0..1</text>
</g>
<!-- Action&#45;&gt;DataSchema -->
<g id="edge15" class="edge"><title>Action&#45;&gt;DataSchema</title>
<path fill="none" stroke="black" d="M626.773,-512.564C638.383,-492.266 652.238,-465.861 661.5,-441 677.664,-397.613 705.47,-264.118 717.119,-206.47"/>
<polygon fill="black" stroke="black" points="720.558,-207.121 719.1,-196.627 713.696,-205.74 720.558,-207.121"/>
<text text-anchor="start" x="696.5" y="-370.3" font-family="mono" font-size="14.00" fill="#c83500">input</text>
<text text-anchor="middle" x="730.1" y="-200.427" font-family="Times,serif" font-size="14.00">0..1</text>
</g>
<!-- Event&#45;&gt;InteractionPattern -->
<g id="edge20" class="edge"><title>Event&#45;&gt;InteractionPattern</title>
<path fill="none" stroke="black" d="M770.43,-530.425C763.073,-518.106 751.623,-501.955 737.5,-492 675.803,-448.511 646.619,-466.294 575.5,-441 556.666,-434.302 536.794,-426.792 517.599,-419.306"/>
<polygon fill="white" stroke="black" points="518.826,-416.027 508.238,-415.636 516.271,-422.544 518.826,-416.027"/>
</g>
<!-- Event&#45;&gt;DataSchema -->
<g id="edge16" class="edge"><title>Event&#45;&gt;DataSchema</title>
<path fill="none" stroke="black" d="M776.827,-530.244C767.72,-471.449 737.853,-278.623 726.727,-206.79"/>
<polygon fill="black" stroke="black" points="730.156,-206.065 725.167,-196.718 723.239,-207.136 730.156,-206.065"/>
<text text-anchor="start" x="762.5" y="-370.3" font-family="mono" font-size="14.00" fill="#c83500">data</text>
<text text-anchor="middle" x="714.167" y="-200.518" font-family="Times,serif" font-size="14.00">0..1</text>
</g>
<!-- Event&#45;&gt;DataSchema -->
<g id="edge17" class="edge"><title>Event&#45;&gt;DataSchema</title>
<path fill="none" stroke="black" d="M785.063,-530.494C797.237,-490.612 823.393,-388.291 800.5,-307 789.488,-267.9 762.778,-228.943 743.685,-204.575"/>
<polygon fill="black" stroke="black" points="746.271,-202.205 737.288,-196.588 740.807,-206.581 746.271,-202.205"/>
<text text-anchor="start" x="810.5" y="-370.3" font-family="mono" font-size="14.00" fill="#c83500">subscription</text>
<text text-anchor="middle" x="748.288" y="-200.388" font-family="Times,serif" font-size="14.00">0..1</text>
</g>
<!-- Event&#45;&gt;DataSchema -->
<g id="edge18" class="edge"><title>Event&#45;&gt;DataSchema</title>
<path fill="none" stroke="black" d="M789.331,-530.42C796.77,-518.573 807.845,-503.006 820.5,-492 856.364,-460.809 890.192,-481.844 914.5,-441 944.958,-389.822 942.649,-359.483 914.5,-307 886.514,-254.821 826.732,-220.364 781.261,-200.576"/>
<polygon fill="black" stroke="black" points="782.366,-197.243 771.792,-196.574 779.641,-203.691 782.366,-197.243"/>
<text text-anchor="start" x="936.5" y="-370.3" font-family="mono" font-size="14.00" fill="#c83500">cancellation</text>
<text text-anchor="middle" x="782.792" y="-200.374" font-family="Times,serif" font-size="14.00">0..1</text>
</g>
</g>
</svg>
