<?xml version="1.0" encoding="UTF-8" standalone="no"?>
<!DOCTYPE svg PUBLIC "-//W3C//DTD SVG 1.1//EN"
 "http://www.w3.org/Graphics/SVG/1.1/DTD/svg11.dtd">
<!-- Generated by graphviz version 2.40.1 (20161225.0304)
 -->
<!-- Title: %3 Pages: 1 -->
<svg width="1370pt" height="578pt"
 viewBox="0.00 0.00 1369.64 578.00" xmlns="http://www.w3.org/2000/svg" xmlns:xlink="http://www.w3.org/1999/xlink">
<g id="graph0" class="graph" transform="scale(1 1) rotate(0) translate(4 574)">
<title>%3</title>
<polygon fill="#ffffff" stroke="transparent" points="-4,4 -4,-574 1365.6402,-574 1365.6402,4 -4,4"/>
<!-- MultiLanguage -->
<g id="node1" class="node">
<title>MultiLanguage</title>
<polygon fill="#8ccbf2" stroke="transparent" points="36.6402,-7 36.6402,-28 150.6402,-28 150.6402,-7 36.6402,-7"/>
<polygon fill="none" stroke="#8ccbf2" points="36.6402,-7 36.6402,-28 150.6402,-28 150.6402,-7 36.6402,-7"/>
<text text-anchor="start" x="39.6402" y="-14.8" font-family="mono" font-weight="bold" font-size="14.00" fill="#c83500">MultiLanguage</text>
</g>
<!-- Thing -->
<g id="node2" class="node">
<title>Thing</title>
<polygon fill="#8ccbf2" stroke="transparent" points="468.6402,-544.5 468.6402,-565.5 734.6402,-565.5 734.6402,-544.5 468.6402,-544.5"/>
<polygon fill="none" stroke="#8ccbf2" points="468.6402,-544.5 468.6402,-565.5 734.6402,-565.5 734.6402,-544.5 468.6402,-544.5"/>
<text text-anchor="start" x="580.6402" y="-552.3" font-family="mono" font-weight="bold" font-size="14.00" fill="#c83500">Thing</text>
<polygon fill="#ddeeff" stroke="transparent" points="468.6402,-523.5 468.6402,-544.5 734.6402,-544.5 734.6402,-523.5 468.6402,-523.5"/>
<polygon fill="none" stroke="#8ccbf2" points="468.6402,-523.5 468.6402,-544.5 734.6402,-544.5 734.6402,-523.5 468.6402,-523.5"/>
<text text-anchor="start" x="471.6402" y="-531.3" font-family="mono" font-size="14.00" fill="#c83500">@context</text>
<text text-anchor="start" x="538.6402" y="-531.3" font-family="Times,serif" font-size="14.00" fill="#000000"> : </text>
<text text-anchor="start" x="550.6402" y="-531.3" font-family="mono" font-style="italic" font-size="14.00" fill="#c83500">anyURI</text>
<text text-anchor="start" x="600.6402" y="-531.3" font-family="Times,serif" font-style="italic" font-size="14.00" fill="#000000"> or Array</text>
<text text-anchor="start" x="652.6402" y="-531.3" font-family="Times,serif" font-size="14.00" fill="#000000"> </text>
<text text-anchor="start" x="656.6402" y="-531.3" font-family="Times,serif" font-style="italic" font-size="14.00" fill="#000000">(mandatory)</text>
<polygon fill="#ddeeff" stroke="transparent" points="468.6402,-502.5 468.6402,-523.5 734.6402,-523.5 734.6402,-502.5 468.6402,-502.5"/>
<polygon fill="none" stroke="#8ccbf2" points="468.6402,-502.5 468.6402,-523.5 734.6402,-523.5 734.6402,-502.5 468.6402,-502.5"/>
<text text-anchor="start" x="471.6402" y="-510.3" font-family="mono" font-size="14.00" fill="#c83500">@type</text>
<text text-anchor="start" x="513.6402" y="-510.3" font-family="Times,serif" font-size="14.00" fill="#000000"> : </text>
<text text-anchor="start" x="525.6402" y="-510.3" font-family="Times,serif" font-style="italic" font-size="14.00" fill="#000000">(Array of) </text>
<text text-anchor="start" x="584.6402" y="-510.3" font-family="mono" font-size="14.00" fill="#c83500">string</text>
<polygon fill="#ddeeff" stroke="transparent" points="468.6402,-481.5 468.6402,-502.5 734.6402,-502.5 734.6402,-481.5 468.6402,-481.5"/>
<polygon fill="none" stroke="#8ccbf2" points="468.6402,-481.5 468.6402,-502.5 734.6402,-502.5 734.6402,-481.5 468.6402,-481.5"/>
<text text-anchor="start" x="471.6402" y="-489.3" font-family="mono" font-size="14.00" fill="#c83500">id</text>
<text text-anchor="start" x="488.6402" y="-489.3" font-family="Times,serif" font-size="14.00" fill="#000000"> : </text>
<text text-anchor="start" x="500.6402" y="-489.3" font-family="mono" font-size="14.00" fill="#c83500">anyURI</text>
<text text-anchor="start" x="550.6402" y="-489.3" font-family="Times,serif" font-size="14.00" fill="#000000"> </text>
<text text-anchor="start" x="554.6402" y="-489.3" font-family="Times,serif" font-style="italic" font-size="14.00" fill="#000000">(mandatory)</text>
<polygon fill="#ddeeff" stroke="transparent" points="468.6402,-460.5 468.6402,-481.5 734.6402,-481.5 734.6402,-460.5 468.6402,-460.5"/>
<polygon fill="none" stroke="#8ccbf2" points="468.6402,-460.5 468.6402,-481.5 734.6402,-481.5 734.6402,-460.5 468.6402,-460.5"/>
<text text-anchor="start" x="471.6402" y="-468.3" font-family="mono" font-size="14.00" fill="#c83500">description</text>
<text text-anchor="start" x="562.6402" y="-468.3" font-family="Times,serif" font-size="14.00" fill="#000000"> : </text>
<text text-anchor="start" x="574.6402" y="-468.3" font-family="mono" font-size="14.00" fill="#c83500">string</text>
<polygon fill="#ddeeff" stroke="transparent" points="468.6402,-439.5 468.6402,-460.5 734.6402,-460.5 734.6402,-439.5 468.6402,-439.5"/>
<polygon fill="none" stroke="#8ccbf2" points="468.6402,-439.5 468.6402,-460.5 734.6402,-460.5 734.6402,-439.5 468.6402,-439.5"/>
<text text-anchor="start" x="471.6402" y="-447.3" font-family="mono" font-size="14.00" fill="#c83500">security</text>
<text text-anchor="start" x="538.6402" y="-447.3" font-family="Times,serif" font-size="14.00" fill="#000000"> : (Array of) </text>
<text text-anchor="start" x="609.6402" y="-447.3" font-family="mono" font-size="14.00" fill="#c83500">string</text>
<text text-anchor="start" x="659.6402" y="-447.3" font-family="Times,serif" font-size="14.00" fill="#000000"> </text>
<text text-anchor="start" x="663.6402" y="-447.3" font-family="Times,serif" font-style="italic" font-size="14.00" fill="#000000">(mandatory)</text>
<polygon fill="#ddeeff" stroke="transparent" points="468.6402,-418.5 468.6402,-439.5 734.6402,-439.5 734.6402,-418.5 468.6402,-418.5"/>
<polygon fill="none" stroke="#8ccbf2" points="468.6402,-418.5 468.6402,-439.5 734.6402,-439.5 734.6402,-418.5 468.6402,-418.5"/>
<text text-anchor="start" x="471.6402" y="-426.3" font-family="mono" font-size="14.00" fill="#c83500">base</text>
<text text-anchor="start" x="505.6402" y="-426.3" font-family="Times,serif" font-size="14.00" fill="#000000"> : </text>
<text text-anchor="start" x="517.6402" y="-426.3" font-family="mono" font-size="14.00" fill="#c83500">anyURI</text>
<polygon fill="#ddeeff" stroke="transparent" points="468.6402,-397.5 468.6402,-418.5 734.6402,-418.5 734.6402,-397.5 468.6402,-397.5"/>
<polygon fill="none" stroke="#8ccbf2" points="468.6402,-397.5 468.6402,-418.5 734.6402,-418.5 734.6402,-397.5 468.6402,-397.5"/>
<text text-anchor="start" x="471.6402" y="-405.3" font-family="mono" font-size="14.00" fill="#c83500">created</text>
<text text-anchor="start" x="529.6402" y="-405.3" font-family="Times,serif" font-size="14.00" fill="#000000"> : </text>
<text text-anchor="start" x="541.6402" y="-405.3" font-family="mono" font-size="14.00" fill="#c83500">dateTime</text>
<polygon fill="#ddeeff" stroke="transparent" points="468.6402,-376.5 468.6402,-397.5 734.6402,-397.5 734.6402,-376.5 468.6402,-376.5"/>
<polygon fill="none" stroke="#8ccbf2" points="468.6402,-376.5 468.6402,-397.5 734.6402,-397.5 734.6402,-376.5 468.6402,-376.5"/>
<text text-anchor="start" x="471.6402" y="-384.3" font-family="mono" font-size="14.00" fill="#c83500">support</text>
<text text-anchor="start" x="529.6402" y="-384.3" font-family="Times,serif" font-size="14.00" fill="#000000"> : </text>
<text text-anchor="start" x="541.6402" y="-384.3" font-family="mono" font-size="14.00" fill="#c83500">anyURI</text>
<polygon fill="#ddeeff" stroke="transparent" points="468.6402,-355.5 468.6402,-376.5 734.6402,-376.5 734.6402,-355.5 468.6402,-355.5"/>
<polygon fill="none" stroke="#8ccbf2" points="468.6402,-355.5 468.6402,-376.5 734.6402,-376.5 734.6402,-355.5 468.6402,-355.5"/>
<text text-anchor="start" x="471.6402" y="-363.3" font-family="mono" font-size="14.00" fill="#c83500">title</text>
<text text-anchor="start" x="513.6402" y="-363.3" font-family="Times,serif" font-size="14.00" fill="#000000"> : </text>
<text text-anchor="start" x="525.6402" y="-363.3" font-family="mono" font-size="14.00" fill="#c83500">string</text>
<text text-anchor="start" x="575.6402" y="-363.3" font-family="Times,serif" font-size="14.00" fill="#000000"> </text>
<text text-anchor="start" x="579.6402" y="-363.3" font-family="Times,serif" font-style="italic" font-size="14.00" fill="#000000">(mandatory)</text>
<polygon fill="#ddeeff" stroke="transparent" points="468.6402,-334.5 468.6402,-355.5 734.6402,-355.5 734.6402,-334.5 468.6402,-334.5"/>
<polygon fill="none" stroke="#8ccbf2" points="468.6402,-334.5 468.6402,-355.5 734.6402,-355.5 734.6402,-334.5 468.6402,-334.5"/>
<text text-anchor="start" x="471.6402" y="-342.3" font-family="mono" font-size="14.00" fill="#c83500">modified</text>
<text text-anchor="start" x="538.6402" y="-342.3" font-family="Times,serif" font-size="14.00" fill="#000000"> : </text>
<text text-anchor="start" x="550.6402" y="-342.3" font-family="mono" font-size="14.00" fill="#c83500">dateTime</text>
</g>
<!-- Thing&#45;&gt;MultiLanguage -->
<g id="edge7" class="edge">
<title>Thing&#45;&gt;MultiLanguage</title>
<path fill="none" stroke="#000000" d="M460.465,-428.432C321.923,-404.3636 122.9104,-362.5807 62.6402,-313 11.5773,-270.9936 -9.9113,-240.4996 4.6402,-176 17.853,-117.4341 29.8714,-104.3066 62.6402,-54 64.8066,-50.6741 67.2541,-47.3264 69.8003,-44.0827"/>
<polygon fill="#000000" stroke="#000000" points="72.5556,-46.2429 76.2293,-36.3053 67.1603,-41.7829 72.5556,-46.2429"/>
<text text-anchor="start" x="4.6402" y="-179.8" font-family="mono" font-size="14.00" fill="#c83500">titles</text>
<text text-anchor="middle" x="65.2293" y="-40.1053" font-family="Times,serif" font-size="14.00" fill="#000000">1..1</text>
</g>
<!-- Thing&#45;&gt;MultiLanguage -->
<g id="edge8" class="edge">
<title>Thing&#45;&gt;MultiLanguage</title>
<path fill="none" stroke="#000000" d="M460.5114,-401.5526C403.5803,-378.7373 338.7123,-348.6889 284.6402,-313 218.7799,-269.5307 202.2497,-254.6766 155.6402,-191 120.0654,-142.3987 111.8097,-127.2884 96.6402,-69 94.7575,-61.7657 93.7893,-53.767 93.3375,-46.2913"/>
<polygon fill="#000000" stroke="#000000" points="96.8326,-46.0833 93.0011,-36.2055 89.8364,-46.3166 96.8326,-46.0833"/>
<text text-anchor="start" x="155.6402" y="-179.8" font-family="mono" font-size="14.00" fill="#c83500">descriptions</text>
<text text-anchor="middle" x="104.0011" y="-40.0055" font-family="Times,serif" font-size="14.00" fill="#000000">0..1</text>
</g>
<!-- PropertyAffordance -->
<g id="node3" class="node">
<title>PropertyAffordance</title>
<polygon fill="#8ccbf2" stroke="transparent" points="293.6402,-244.5 293.6402,-265.5 452.6402,-265.5 452.6402,-244.5 293.6402,-244.5"/>
<polygon fill="none" stroke="#8ccbf2" points="293.6402,-244.5 293.6402,-265.5 452.6402,-265.5 452.6402,-244.5 293.6402,-244.5"/>
<text text-anchor="start" x="298.6402" y="-252.3" font-family="mono" font-weight="bold" font-size="14.00" fill="#c83500">PropertyAffordance</text>
<polygon fill="#ddeeff" stroke="transparent" points="293.6402,-223.5 293.6402,-244.5 452.6402,-244.5 452.6402,-223.5 293.6402,-223.5"/>
<polygon fill="none" stroke="#8ccbf2" points="293.6402,-223.5 293.6402,-244.5 452.6402,-244.5 452.6402,-223.5 293.6402,-223.5"/>
<text text-anchor="start" x="296.6402" y="-231.3" font-family="mono" font-size="14.00" fill="#c83500">observable</text>
<text text-anchor="start" x="379.6402" y="-231.3" font-family="Times,serif" font-size="14.00" fill="#000000"> : </text>
<text text-anchor="start" x="391.6402" y="-231.3" font-family="mono" font-size="14.00" fill="#c83500">boolean</text>
</g>
<!-- Thing&#45;&gt;PropertyAffordance -->
<g id="edge3" class="edge">
<title>Thing&#45;&gt;PropertyAffordance</title>
<path fill="none" stroke="#000000" d="M468.7615,-330.9672C446.3471,-310.8041 424.8977,-291.5089 407.9705,-276.2819"/>
<polygon fill="#000000" stroke="#000000" points="410.2995,-273.6692 400.5242,-269.5834 405.618,-278.8734 410.2995,-273.6692"/>
<text text-anchor="start" x="447.6402" y="-301.8" font-family="mono" font-size="14.00" fill="#c83500">properties</text>
<text text-anchor="middle" x="389.5242" y="-273.3834" font-family="Times,serif" font-size="14.00" fill="#000000">0..1</text>
</g>
<!-- VersionInfo -->
<g id="node4" class="node">
<title>VersionInfo</title>
<polygon fill="#8ccbf2" stroke="transparent" points="916.6402,-244.5 916.6402,-265.5 1123.6402,-265.5 1123.6402,-244.5 916.6402,-244.5"/>
<polygon fill="none" stroke="#8ccbf2" points="916.6402,-244.5 916.6402,-265.5 1123.6402,-265.5 1123.6402,-244.5 916.6402,-244.5"/>
<text text-anchor="start" x="974.6402" y="-252.3" font-family="mono" font-weight="bold" font-size="14.00" fill="#c83500">VersionInfo</text>
<polygon fill="#ddeeff" stroke="transparent" points="916.6402,-223.5 916.6402,-244.5 1123.6402,-244.5 1123.6402,-223.5 916.6402,-223.5"/>
<polygon fill="none" stroke="#8ccbf2" points="916.6402,-223.5 916.6402,-244.5 1123.6402,-244.5 1123.6402,-223.5 916.6402,-223.5"/>
<text text-anchor="start" x="919.6402" y="-231.3" font-family="mono" font-size="14.00" fill="#c83500">instance</text>
<text text-anchor="start" x="986.6402" y="-231.3" font-family="Times,serif" font-size="14.00" fill="#000000"> : </text>
<text text-anchor="start" x="998.6402" y="-231.3" font-family="mono" font-size="14.00" fill="#c83500">string</text>
<text text-anchor="start" x="1048.6402" y="-231.3" font-family="Times,serif" font-size="14.00" fill="#000000"> </text>
<text text-anchor="start" x="1052.6402" y="-231.3" font-family="Times,serif" font-style="italic" font-size="14.00" fill="#000000">(mandatory)</text>
</g>
<!-- Thing&#45;&gt;VersionInfo -->
<g id="edge4" class="edge">
<title>Thing&#45;&gt;VersionInfo</title>
<path fill="none" stroke="#000000" d="M742.8645,-380.9014C816.7035,-344.5119 903.1991,-301.8848 959.5856,-274.0963"/>
<polygon fill="#000000" stroke="#000000" points="961.2928,-277.157 968.7155,-269.5969 958.1984,-270.878 961.2928,-277.157"/>
<text text-anchor="start" x="907.6402" y="-301.8" font-family="mono" font-size="14.00" fill="#c83500">version</text>
<text text-anchor="middle" x="957.7155" y="-273.3969" font-family="Times,serif" font-size="14.00" fill="#000000">0..1</text>
</g>
<!-- ActionAffordance -->
<g id="node5" class="node">
<title>ActionAffordance</title>
<polygon fill="#8ccbf2" stroke="transparent" points="486.6402,-254.5 486.6402,-275.5 717.6402,-275.5 717.6402,-254.5 486.6402,-254.5"/>
<polygon fill="none" stroke="#8ccbf2" points="486.6402,-254.5 486.6402,-275.5 717.6402,-275.5 717.6402,-254.5 486.6402,-254.5"/>
<text text-anchor="start" x="535.6402" y="-262.3" font-family="mono" font-weight="bold" font-size="14.00" fill="#c83500">ActionAffordance</text>
<polygon fill="#ddeeff" stroke="transparent" points="486.6402,-233.5 486.6402,-254.5 717.6402,-254.5 717.6402,-233.5 486.6402,-233.5"/>
<polygon fill="none" stroke="#8ccbf2" points="486.6402,-233.5 486.6402,-254.5 717.6402,-254.5 717.6402,-233.5 486.6402,-233.5"/>
<text text-anchor="start" x="489.6402" y="-241.3" font-family="mono" font-size="14.00" fill="#c83500">safe</text>
<text text-anchor="start" x="523.6402" y="-241.3" font-family="Times,serif" font-size="14.00" fill="#000000"> : </text>
<text text-anchor="start" x="535.6402" y="-241.3" font-family="mono" font-size="14.00" fill="#c83500">boolean</text>
<text text-anchor="start" x="593.6402" y="-241.3" font-family="Times,serif" font-size="14.00" fill="#000000"> </text>
<text text-anchor="start" x="597.6402" y="-241.3" font-family="Times,serif" font-style="italic" font-size="14.00" fill="#000000">(mandatory)</text>
<polygon fill="#ddeeff" stroke="transparent" points="486.6402,-212.5 486.6402,-233.5 717.6402,-233.5 717.6402,-212.5 486.6402,-212.5"/>
<polygon fill="none" stroke="#8ccbf2" points="486.6402,-212.5 486.6402,-233.5 717.6402,-233.5 717.6402,-212.5 486.6402,-212.5"/>
<text text-anchor="start" x="489.6402" y="-220.3" font-family="mono" font-size="14.00" fill="#c83500">idempotent</text>
<text text-anchor="start" x="572.6402" y="-220.3" font-family="Times,serif" font-size="14.00" fill="#000000"> : </text>
<text text-anchor="start" x="584.6402" y="-220.3" font-family="mono" font-size="14.00" fill="#c83500">boolean</text>
<text text-anchor="start" x="642.6402" y="-220.3" font-family="Times,serif" font-size="14.00" fill="#000000"> </text>
<text text-anchor="start" x="646.6402" y="-220.3" font-family="Times,serif" font-style="italic" font-size="14.00" fill="#000000">(mandatory)</text>
</g>
<!-- Thing&#45;&gt;ActionAffordance -->
<g id="edge9" class="edge">
<title>Thing&#45;&gt;ActionAffordance</title>
<path fill="none" stroke="#000000" d="M601.6402,-330.9672C601.6402,-316.6903 601.6402,-302.8487 601.6402,-290.5782"/>
<polygon fill="#000000" stroke="#000000" points="605.1403,-290.228 601.6402,-280.2281 598.1403,-290.2281 605.1403,-290.228"/>
<text text-anchor="start" x="601.6402" y="-301.8" font-family="mono" font-size="14.00" fill="#c83500">actions</text>
<text text-anchor="middle" x="590.6402" y="-284.0281" font-family="Times,serif" font-size="14.00" fill="#000000">0..1</text>
</g>
<!-- EventAffordance -->
<g id="node7" class="node">
<title>EventAffordance</title>
<polygon fill="#8ccbf2" stroke="transparent" points="751.6402,-233.5 751.6402,-254.5 881.6402,-254.5 881.6402,-233.5 751.6402,-233.5"/>
<polygon fill="none" stroke="#8ccbf2" points="751.6402,-233.5 751.6402,-254.5 881.6402,-254.5 881.6402,-233.5 751.6402,-233.5"/>
<text text-anchor="start" x="754.6402" y="-241.3" font-family="mono" font-weight="bold" font-size="14.00" fill="#c83500">EventAffordance</text>
</g>
<!-- Thing&#45;&gt;EventAffordance -->
<g id="edge5" class="edge">
<title>Thing&#45;&gt;EventAffordance</title>
<path fill="none" stroke="#000000" d="M726.3953,-330.9672C750.6522,-307.7257 773.7055,-285.6375 790.4399,-269.6035"/>
<polygon fill="#000000" stroke="#000000" points="792.8665,-272.1258 797.6657,-262.6802 788.0237,-267.0713 792.8665,-272.1258"/>
<text text-anchor="start" x="759.6402" y="-301.8" font-family="mono" font-size="14.00" fill="#c83500">events</text>
<text text-anchor="middle" x="786.6657" y="-266.4802" font-family="Times,serif" font-size="14.00" fill="#000000">0..1</text>
</g>
<!-- Link -->
<g id="node8" class="node">
<title>Link</title>
<polygon fill="#f2f2f2" stroke="transparent" points="1157.6402,-233.5 1157.6402,-254.5 1197.6402,-254.5 1197.6402,-233.5 1157.6402,-233.5"/>
<polygon fill="none" stroke="#8c8c8c" points="1157.6402,-233.5 1157.6402,-254.5 1197.6402,-254.5 1197.6402,-233.5 1157.6402,-233.5"/>
<text text-anchor="start" x="1160.6402" y="-241.3" font-family="mono" font-weight="bold" font-size="14.00" fill="#000000">Link</text>
</g>
<!-- Thing&#45;&gt;Link -->
<g id="edge1" class="edge">
<title>Thing&#45;&gt;Link</title>
<path fill="none" stroke="#000000" d="M742.7019,-423.8301C855.5579,-398.3649 1014.9892,-352.8928 1139.6402,-280 1144.6085,-277.0946 1149.4589,-273.4348 1153.9419,-269.5765"/>
<polygon fill="#000000" stroke="#000000" points="1156.591,-271.8941 1161.5608,-262.5372 1151.8407,-266.7527 1156.591,-271.8941"/>
<text text-anchor="start" x="1099.6402" y="-301.8" font-family="mono" font-size="14.00" fill="#c83500">links</text>
<text text-anchor="middle" x="1150.5608" y="-266.3372" font-family="Times,serif" font-size="14.00" fill="#000000">0..*</text>
</g>
<!-- Form -->
<g id="node9" class="node">
<title>Form</title>
<polygon fill="#f2f2f2" stroke="transparent" points="313.6402,-7 313.6402,-28 353.6402,-28 353.6402,-7 313.6402,-7"/>
<polygon fill="none" stroke="#8c8c8c" points="313.6402,-7 313.6402,-28 353.6402,-28 353.6402,-7 313.6402,-7"/>
<text text-anchor="start" x="316.6402" y="-14.8" font-family="mono" font-weight="bold" font-size="14.00" fill="#000000">Form</text>
</g>
<!-- Thing&#45;&gt;Form -->
<g id="edge2" class="edge">
<title>Thing&#45;&gt;Form</title>
<path fill="none" stroke="#000000" d="M460.362,-414.0482C391.9305,-388.5022 316.0002,-346.6552 275.6402,-280 229.4127,-203.6546 284.8545,-94.8494 315.6866,-44.9216"/>
<polygon fill="#000000" stroke="#000000" points="318.7476,-46.6294 321.1272,-36.3052 312.8287,-42.892 318.7476,-46.6294"/>
<text text-anchor="start" x="261.6402" y="-179.8" font-family="mono" font-size="14.00" fill="#c83500">forms</text>
<text text-anchor="middle" x="310.1272" y="-40.1052" font-family="Times,serif" font-size="14.00" fill="#000000">0..*</text>
</g>
<!-- SecurityScheme -->
<g id="node10" class="node">
<title>SecurityScheme</title>
<polygon fill="#f2f2f2" stroke="transparent" points="1231.6402,-233.5 1231.6402,-254.5 1353.6402,-254.5 1353.6402,-233.5 1231.6402,-233.5"/>
<polygon fill="none" stroke="#8c8c8c" points="1231.6402,-233.5 1231.6402,-254.5 1353.6402,-254.5 1353.6402,-233.5 1231.6402,-233.5"/>
<text text-anchor="start" x="1234.6402" y="-241.3" font-family="mono" font-weight="bold" font-size="14.00" fill="#000000">SecurityScheme</text>
</g>
<!-- Thing&#45;&gt;SecurityScheme -->
<g id="edge6" class="edge">
<title>Thing&#45;&gt;SecurityScheme</title>
<path fill="none" stroke="#000000" d="M742.7088,-422.5015C853.8178,-398.6277 1011.7579,-360.6335 1145.6402,-313 1181.6642,-300.1831 1220.8353,-281.688 1249.677,-267.1457"/>
<polygon fill="#000000" stroke="#000000" points="1251.3352,-270.2291 1258.6612,-262.5753 1248.1612,-263.99 1251.3352,-270.2291"/>
<text text-anchor="start" x="1183.6402" y="-301.8" font-family="mono" font-size="14.00" fill="#c83500">securityDefinitions</text>
<text text-anchor="middle" x="1247.6612" y="-266.3753" font-family="Times,serif" font-size="14.00" fill="#000000">1..1</text>
</g>
<!-- InteractionAffordance -->
<g id="node6" class="node">
<title>InteractionAffordance</title>
<polygon fill="#8ccbf2" stroke="transparent" points="358.6402,-132.5 358.6402,-153.5 538.6402,-153.5 538.6402,-132.5 358.6402,-132.5"/>
<polygon fill="none" stroke="#8ccbf2" points="358.6402,-132.5 358.6402,-153.5 538.6402,-153.5 538.6402,-132.5 358.6402,-132.5"/>
<text text-anchor="start" x="361.6402" y="-140.3" font-family="mono" font-weight="bold" font-size="14.00" fill="#c83500">InteractionAffordance</text>
<polygon fill="#ddeeff" stroke="transparent" points="358.6402,-111.5 358.6402,-132.5 538.6402,-132.5 538.6402,-111.5 358.6402,-111.5"/>
<polygon fill="none" stroke="#8ccbf2" points="358.6402,-111.5 358.6402,-132.5 538.6402,-132.5 538.6402,-111.5 358.6402,-111.5"/>
<text text-anchor="start" x="361.6402" y="-119.3" font-family="mono" font-size="14.00" fill="#c83500">title</text>
<text text-anchor="start" x="403.6402" y="-119.3" font-family="Times,serif" font-size="14.00" fill="#000000"> : </text>
<text text-anchor="start" x="415.6402" y="-119.3" font-family="mono" font-size="14.00" fill="#c83500">string</text>
<polygon fill="#ddeeff" stroke="transparent" points="358.6402,-90.5 358.6402,-111.5 538.6402,-111.5 538.6402,-90.5 358.6402,-90.5"/>
<polygon fill="none" stroke="#8ccbf2" points="358.6402,-90.5 358.6402,-111.5 538.6402,-111.5 538.6402,-90.5 358.6402,-90.5"/>
<text text-anchor="start" x="361.6402" y="-98.3" font-family="mono" font-size="14.00" fill="#c83500">description</text>
<text text-anchor="start" x="452.6402" y="-98.3" font-family="Times,serif" font-size="14.00" fill="#000000"> : </text>
<text text-anchor="start" x="464.6402" y="-98.3" font-family="mono" font-size="14.00" fill="#c83500">string</text>
</g>
<!-- PropertyAffordance&#45;&gt;InteractionAffordance -->
<g id="edge20" class="edge">
<title>PropertyAffordance&#45;&gt;InteractionAffordance</title>
<path fill="none" stroke="#000000" d="M388.3874,-219.2215C397.7176,-204.2442 409.8112,-184.8307 420.7128,-167.3309"/>
<polygon fill="#ffffff" stroke="#000000" points="423.9672,-168.726 426.284,-158.3876 418.0257,-165.0248 423.9672,-168.726"/>
</g>
<!-- DataSchema -->
<g id="node11" class="node">
<title>DataSchema</title>
<polygon fill="#f2f2f2" stroke="transparent" points="624.6402,-7 624.6402,-28 713.6402,-28 713.6402,-7 624.6402,-7"/>
<polygon fill="none" stroke="#8c8c8c" points="624.6402,-7 624.6402,-28 713.6402,-28 713.6402,-7 624.6402,-7"/>
<text text-anchor="start" x="627.6402" y="-14.8" font-family="mono" font-weight="bold" font-size="14.00" fill="#000000">DataSchema</text>
</g>
<!-- PropertyAffordance&#45;&gt;DataSchema -->
<g id="edge19" class="edge">
<title>PropertyAffordance&#45;&gt;DataSchema</title>
<path fill="none" stroke="#000000" d="M361.04,-219.3895C353.8716,-202.4519 345.3548,-179.3752 341.6402,-158 333.4244,-110.723 328.1891,-76.3723 370.6402,-54 410.2129,-33.1447 530.7247,-24.0711 605.8227,-20.3564"/>
<polygon fill="#ffffff" stroke="#000000" points="606.2824,-23.8385 616.1048,-19.8671 605.9497,-16.8465 606.2824,-23.8385"/>
</g>
<!-- ActionAffordance&#45;&gt;InteractionAffordance -->
<g id="edge21" class="edge">
<title>ActionAffordance&#45;&gt;InteractionAffordance</title>
<path fill="none" stroke="#000000" d="M551.7826,-208.7379C543.963,-202.9066 536.0281,-196.8565 528.6402,-191 518.2496,-182.7633 507.3265,-173.6965 497.0063,-164.9309"/>
<polygon fill="#ffffff" stroke="#000000" points="499.1274,-162.1396 489.2507,-158.3052 494.5805,-167.4619 499.1274,-162.1396"/>
</g>
<!-- ActionAffordance&#45;&gt;DataSchema -->
<g id="edge10" class="edge">
<title>ActionAffordance&#45;&gt;DataSchema</title>
<path fill="none" stroke="#000000" d="M617.5923,-208.775C624.0821,-193.361 631.2958,-174.9998 636.6402,-158 648.575,-120.0374 658.0667,-74.9914 663.5225,-46.4515"/>
<polygon fill="#000000" stroke="#000000" points="667.0098,-46.8444 665.4126,-36.3706 660.1296,-45.5543 667.0098,-46.8444"/>
<text text-anchor="start" x="655.6402" y="-118.8" font-family="mono" font-size="14.00" fill="#c83500">input</text>
<text text-anchor="middle" x="654.4126" y="-40.1706" font-family="Times,serif" font-size="14.00" fill="#000000">0..1</text>
</g>
<!-- ActionAffordance&#45;&gt;DataSchema -->
<g id="edge11" class="edge">
<title>ActionAffordance&#45;&gt;DataSchema</title>
<path fill="none" stroke="#000000" d="M586.7002,-208.9106C575.1763,-175.7499 564.0554,-125.7381 582.6402,-87 591.5948,-68.3349 608.3319,-53.1259 624.6777,-41.7839"/>
<polygon fill="#000000" stroke="#000000" points="626.7195,-44.6302 633.1467,-36.2075 622.8698,-38.7838 626.7195,-44.6302"/>
<text text-anchor="start" x="582.6402" y="-118.8" font-family="mono" font-size="14.00" fill="#c83500">output</text>
<text text-anchor="middle" x="622.1467" y="-40.0075" font-family="Times,serif" font-size="14.00" fill="#000000">0..1</text>
</g>
<!-- InteractionAffordance&#45;&gt;MultiLanguage -->
<g id="edge14" class="edge">
<title>InteractionAffordance&#45;&gt;MultiLanguage</title>
<path fill="none" stroke="#000000" d="M350.3922,-118.102C263.7721,-112.2729 145.9933,-98.9601 110.6402,-69 103.7825,-63.1885 99.6787,-54.5311 97.2271,-45.9919"/>
<polygon fill="#000000" stroke="#000000" points="100.636,-45.1972 95.0423,-36.1993 93.804,-46.7215 100.636,-45.1972"/>
<text text-anchor="start" x="110.6402" y="-57.8" font-family="mono" font-size="14.00" fill="#c83500">titles</text>
<text text-anchor="middle" x="84.0423" y="-39.9993" font-family="Times,serif" font-size="14.00" fill="#000000">0..1</text>
</g>
<!-- InteractionAffordance&#45;&gt;MultiLanguage -->
<g id="edge15" class="edge">
<title>InteractionAffordance&#45;&gt;MultiLanguage</title>
<path fill="none" stroke="#000000" d="M350.2243,-93.5297C291.3066,-76.1863 217.7764,-54.5415 164.5523,-38.8741"/>
<polygon fill="#000000" stroke="#000000" points="165.44,-35.487 154.8586,-36.0206 163.4633,-42.2021 165.44,-35.487"/>
<text text-anchor="start" x="260.6402" y="-57.8" font-family="mono" font-size="14.00" fill="#c83500">descriptions</text>
<text text-anchor="middle" x="143.8586" y="-39.8206" font-family="Times,serif" font-size="14.00" fill="#000000">0..1</text>
</g>
<!-- InteractionAffordance&#45;&gt;Form -->
<g id="edge13" class="edge">
<title>InteractionAffordance&#45;&gt;Form</title>
<path fill="none" stroke="#000000" d="M409.3854,-86.8293C393.5739,-72.4615 375.7091,-56.2278 361.3016,-43.1358"/>
<polygon fill="#000000" stroke="#000000" points="363.4428,-40.3523 353.6881,-36.2174 358.7352,-45.5329 363.4428,-40.3523"/>
<text text-anchor="start" x="388.6402" y="-57.8" font-family="mono" font-size="14.00" fill="#c83500">forms</text>
<text text-anchor="middle" x="342.6881" y="-40.0174" font-family="Times,serif" font-size="14.00" fill="#000000">1..*</text>
</g>
<!-- InteractionAffordance&#45;&gt;DataSchema -->
<g id="edge12" class="edge">
<title>InteractionAffordance&#45;&gt;DataSchema</title>
<path fill="none" stroke="#000000" d="M451.5249,-86.7754C454.2604,-74.7941 459.3361,-62.3668 468.6402,-54 488.4582,-36.1784 554.5499,-26.8534 605.3907,-22.2034"/>
<polygon fill="#000000" stroke="#000000" points="606.0032,-25.6634 615.6613,-21.3077 605.395,-18.6898 606.0032,-25.6634"/>
<text text-anchor="start" x="468.6402" y="-57.8" font-family="mono" font-size="14.00" fill="#c83500">uriVariables</text>
<text text-anchor="middle" x="604.6613" y="-25.1077" font-family="Times,serif" font-size="14.00" fill="#000000">0..1</text>
</g>
<!-- EventAffordance&#45;&gt;InteractionAffordance -->
<g id="edge22" class="edge">
<title>EventAffordance&#45;&gt;InteractionAffordance</title>
<path fill="none" stroke="#000000" d="M776.9128,-226.3847C763.3251,-220.4907 747.9445,-214.1474 733.6402,-209 658.2147,-181.8583 637.2954,-181.4447 560.6402,-158 559.3784,-157.6141 558.1089,-157.225 556.8328,-156.8332"/>
<polygon fill="#ffffff" stroke="#000000" points="557.5286,-153.3851 546.9412,-153.7819 555.4652,-160.0741 557.5286,-153.3851"/>
</g>
<!-- EventAffordance&#45;&gt;DataSchema -->
<g id="edge16" class="edge">
<title>EventAffordance&#45;&gt;DataSchema</title>
<path fill="none" stroke="#000000" d="M815.4604,-226.2668C812.9663,-196.1203 805.5472,-134.5011 784.6402,-87 777.3345,-70.4013 774.9948,-65.0831 760.6402,-54 751.7151,-47.109 741.3067,-41.3831 730.7655,-36.6784"/>
<polygon fill="#000000" stroke="#000000" points="732.0778,-33.4335 721.5018,-32.8032 729.3764,-39.8912 732.0778,-33.4335"/>
<text text-anchor="start" x="806.6402" y="-118.8" font-family="mono" font-size="14.00" fill="#c83500">subscription</text>
<text text-anchor="middle" x="732.5018" y="-36.6032" font-family="Times,serif" font-size="14.00" fill="#000000">0..1</text>
</g>
<!-- EventAffordance&#45;&gt;DataSchema -->
<g id="edge17" class="edge">
<title>EventAffordance&#45;&gt;DataSchema</title>
<path fill="none" stroke="#000000" d="M847.0448,-226.4244C869.2791,-211.2873 897.7199,-187.4478 910.6402,-158 923.3187,-129.1035 929.6497,-112.1871 910.6402,-87 889.0308,-58.3681 795.5674,-38.077 731.3254,-27.2074"/>
<polygon fill="#000000" stroke="#000000" points="731.7188,-23.725 721.2813,-25.544 730.575,-30.6309 731.7188,-23.725"/>
<text text-anchor="start" x="922.6402" y="-118.8" font-family="mono" font-size="14.00" fill="#c83500">cancellation</text>
<text text-anchor="middle" x="732.2813" y="-14.344" font-family="Times,serif" font-size="14.00" fill="#000000">0..1</text>
</g>
<!-- EventAffordance&#45;&gt;DataSchema -->
<g id="edge18" class="edge">
<title>EventAffordance&#45;&gt;DataSchema</title>
<path fill="none" stroke="#000000" d="M800.3799,-226.3166C785.5321,-209.2863 763.4075,-182.8092 746.6402,-158 721.3047,-120.5131 696.6829,-74.1601 682.0912,-45.3312"/>
<polygon fill="#000000" stroke="#000000" points="685.1545,-43.6319 677.5407,-36.2644 678.8982,-46.7719 685.1545,-43.6319"/>
<text text-anchor="start" x="746.6402" y="-118.8" font-family="mono" font-size="14.00" fill="#c83500">data</text>
<text text-anchor="middle" x="688.5407" y="-40.0644" font-family="Times,serif" font-size="14.00" fill="#000000">0..1</text>
</g>
</g>
</svg>
