<?xml version="1.0" encoding="UTF-8" standalone="no"?>
<!DOCTYPE svg PUBLIC "-//W3C//DTD SVG 1.1//EN"
 "http://www.w3.org/Graphics/SVG/1.1/DTD/svg11.dtd">
<!-- Generated by graphviz version 2.40.1 (20161225.0304)
 -->
<!-- Title: %3 Pages: 1 -->
<svg width="1369pt" height="819pt"
 viewBox="0.00 0.00 1369.00 819.00" xmlns="http://www.w3.org/2000/svg" xmlns:xlink="http://www.w3.org/1999/xlink">
<g id="graph0" class="graph" transform="scale(1 1) rotate(0) translate(4 815)">
<title>%3</title>
<polygon fill="#ffffff" stroke="transparent" points="-4,4 -4,-815 1365,-815 1365,4 -4,4"/>
<!-- MultiLanguage -->
<g id="node1" class="node">
<title>MultiLanguage</title>
<polygon fill="#8ccbf2" stroke="transparent" points="279,-167.5 279,-188.5 393,-188.5 393,-167.5 279,-167.5"/>
<polygon fill="none" stroke="#8ccbf2" points="279,-167.5 279,-188.5 393,-188.5 393,-167.5 279,-167.5"/>
<text text-anchor="start" x="282" y="-175.3" font-family="mono" font-weight="bold" font-size="14.00" fill="#c83500">MultiLanguage</text>
</g>
<!-- Form -->
<g id="node2" class="node">
<title>Form</title>
<polygon fill="#8ccbf2" stroke="transparent" points="8,-230.5 8,-251.5 244,-251.5 244,-230.5 8,-230.5"/>
<polygon fill="none" stroke="#8ccbf2" points="8,-230.5 8,-251.5 244,-251.5 244,-230.5 8,-230.5"/>
<text text-anchor="start" x="109" y="-238.3" font-family="mono" font-weight="bold" font-size="14.00" fill="#c83500">Form</text>
<polygon fill="#ddeeff" stroke="transparent" points="8,-209.5 8,-230.5 244,-230.5 244,-209.5 8,-209.5"/>
<polygon fill="none" stroke="#8ccbf2" points="8,-209.5 8,-230.5 244,-230.5 244,-209.5 8,-209.5"/>
<text text-anchor="start" x="11" y="-217.3" font-family="mono" font-size="14.00" fill="#c83500">subprotocol</text>
<text text-anchor="start" x="102" y="-217.3" font-family="Times,serif" font-size="14.00" fill="#000000"> : </text>
<text text-anchor="start" x="114" y="-217.3" font-family="mono" font-size="14.00" fill="#c83500">string</text>
<polygon fill="#ddeeff" stroke="transparent" points="8,-188.5 8,-209.5 244,-209.5 244,-188.5 8,-188.5"/>
<polygon fill="none" stroke="#8ccbf2" points="8,-188.5 8,-209.5 244,-209.5 244,-188.5 8,-188.5"/>
<text text-anchor="start" x="11" y="-196.3" font-family="mono" font-size="14.00" fill="#c83500">security</text>
<text text-anchor="start" x="78" y="-196.3" font-family="Times,serif" font-size="14.00" fill="#000000"> : array of </text>
<text text-anchor="start" x="138" y="-196.3" font-family="mono" font-size="14.00" fill="#c83500">string</text>
<polygon fill="#ddeeff" stroke="transparent" points="8,-167.5 8,-188.5 244,-188.5 244,-167.5 8,-167.5"/>
<polygon fill="none" stroke="#8ccbf2" points="8,-167.5 8,-188.5 244,-188.5 244,-167.5 8,-167.5"/>
<text text-anchor="start" x="11" y="-175.3" font-family="mono" font-size="14.00" fill="#c83500">href</text>
<text text-anchor="start" x="45" y="-175.3" font-family="Times,serif" font-size="14.00" fill="#000000"> : </text>
<text text-anchor="start" x="57" y="-175.3" font-family="mono" font-size="14.00" fill="#c83500">anyURI</text>
<text text-anchor="start" x="107" y="-175.3" font-family="Times,serif" font-size="14.00" fill="#000000"> </text>
<text text-anchor="start" x="111" y="-175.3" font-family="Times,serif" font-style="italic" font-size="14.00" fill="#000000">(mandatory)</text>
<polygon fill="#ddeeff" stroke="transparent" points="8,-146.5 8,-167.5 244,-167.5 244,-146.5 8,-146.5"/>
<polygon fill="none" stroke="#8ccbf2" points="8,-146.5 8,-167.5 244,-167.5 244,-146.5 8,-146.5"/>
<text text-anchor="start" x="11" y="-154.3" font-family="mono" font-size="14.00" fill="#c83500">contentType</text>
<text text-anchor="start" x="102" y="-154.3" font-family="Times,serif" font-size="14.00" fill="#000000"> : </text>
<text text-anchor="start" x="114" y="-154.3" font-family="mono" font-size="14.00" fill="#c83500">string</text>
<text text-anchor="start" x="164" y="-154.3" font-family="Times,serif" font-size="14.00" fill="#000000"> </text>
<text text-anchor="start" x="168" y="-154.3" font-family="Times,serif" font-style="italic" font-size="14.00" fill="#000000">(mandatory)</text>
<polygon fill="#ddeeff" stroke="transparent" points="8,-125.5 8,-146.5 244,-146.5 244,-125.5 8,-125.5"/>
<polygon fill="none" stroke="#8ccbf2" points="8,-125.5 8,-146.5 244,-146.5 244,-125.5 8,-125.5"/>
<text text-anchor="start" x="11" y="-133.3" font-family="mono" font-size="14.00" fill="#c83500">scopes</text>
<text text-anchor="start" x="61" y="-133.3" font-family="Times,serif" font-size="14.00" fill="#000000"> : array of </text>
<text text-anchor="start" x="121" y="-133.3" font-family="mono" font-size="14.00" fill="#c83500">string</text>
<polygon fill="#ddeeff" stroke="transparent" points="8,-104.5 8,-125.5 244,-125.5 244,-104.5 8,-104.5"/>
<polygon fill="none" stroke="#8ccbf2" points="8,-104.5 8,-125.5 244,-125.5 244,-104.5 8,-104.5"/>
<text text-anchor="start" x="11" y="-112.3" font-family="mono" font-size="14.00" fill="#c83500">op</text>
<text text-anchor="start" x="28" y="-112.3" font-family="Times,serif" font-size="14.00" fill="#000000"> : (array of) </text>
<text text-anchor="start" x="97" y="-112.3" font-family="mono" font-size="14.00" fill="#c83500">string</text>
<text text-anchor="start" x="147" y="-112.3" font-family="Times,serif" font-size="14.00" fill="#000000"> </text>
<text text-anchor="start" x="151" y="-112.3" font-family="Times,serif" font-style="italic" font-size="14.00" fill="#000000">(mandatory)</text>
</g>
<!-- ExpectedResponse -->
<g id="node5" class="node">
<title>ExpectedResponse</title>
<polygon fill="#8ccbf2" stroke="transparent" points="8,-25 8,-46 244,-46 244,-25 8,-25"/>
<polygon fill="none" stroke="#8ccbf2" points="8,-25 8,-46 244,-46 244,-25 8,-25"/>
<text text-anchor="start" x="59.5" y="-32.8" font-family="mono" font-weight="bold" font-size="14.00" fill="#c83500">ExpectedResponse</text>
<polygon fill="#ddeeff" stroke="transparent" points="8,-4 8,-25 244,-25 244,-4 8,-4"/>
<polygon fill="none" stroke="#8ccbf2" points="8,-4 8,-25 244,-25 244,-4 8,-4"/>
<text text-anchor="start" x="11" y="-11.8" font-family="mono" font-size="14.00" fill="#c83500">contentType</text>
<text text-anchor="start" x="102" y="-11.8" font-family="Times,serif" font-size="14.00" fill="#000000"> : </text>
<text text-anchor="start" x="114" y="-11.8" font-family="mono" font-size="14.00" fill="#c83500">string</text>
<text text-anchor="start" x="164" y="-11.8" font-family="Times,serif" font-size="14.00" fill="#000000"> </text>
<text text-anchor="start" x="168" y="-11.8" font-family="Times,serif" font-style="italic" font-size="14.00" fill="#000000">(mandatory)</text>
</g>
<!-- Form&#45;&gt;ExpectedResponse -->
<g id="edge1" class="edge">
<title>Form&#45;&gt;ExpectedResponse</title>
<path fill="none" stroke="#000000" d="M126,-100.8506C126,-86.7022 126,-72.5946 126,-60.4513"/>
<polygon fill="#000000" stroke="#000000" points="129.5001,-60.3339 126,-50.334 122.5001,-60.334 129.5001,-60.3339"/>
<text text-anchor="start" x="126" y="-71.8" font-family="mono" font-size="14.00" fill="#c83500">response</text>
<text text-anchor="middle" x="114.5" y="-54.134" font-family="Times,serif" font-size="14.00" fill="#000000">0..1</text>
</g>
<!-- Thing -->
<g id="node3" class="node">
<title>Thing</title>
<polygon fill="#8ccbf2" stroke="transparent" points="550,-786 550,-807 810,-807 810,-786 550,-786"/>
<polygon fill="none" stroke="#8ccbf2" points="550,-786 550,-807 810,-807 810,-786 550,-786"/>
<text text-anchor="start" x="659" y="-793.8" font-family="mono" font-weight="bold" font-size="14.00" fill="#c83500">Thing</text>
<polygon fill="#ddeeff" stroke="transparent" points="550,-765 550,-786 810,-786 810,-765 550,-765"/>
<polygon fill="none" stroke="#8ccbf2" points="550,-765 550,-786 810,-786 810,-765 550,-765"/>
<text text-anchor="start" x="553" y="-772.8" font-family="mono" font-size="14.00" fill="#c83500">@context</text>
<text text-anchor="start" x="620" y="-772.8" font-family="Times,serif" font-size="14.00" fill="#000000"> : </text>
<text text-anchor="start" x="632" y="-772.8" font-family="Times,serif" font-style="italic" font-size="14.00" fill="#000000">array</text>
<text text-anchor="start" x="664" y="-772.8" font-family="Times,serif" font-size="14.00" fill="#000000"> </text>
<text text-anchor="start" x="668" y="-772.8" font-family="Times,serif" font-style="italic" font-size="14.00" fill="#000000">(mandatory)</text>
<polygon fill="#ddeeff" stroke="transparent" points="550,-744 550,-765 810,-765 810,-744 550,-744"/>
<polygon fill="none" stroke="#8ccbf2" points="550,-744 550,-765 810,-765 810,-744 550,-744"/>
<text text-anchor="start" x="553" y="-751.8" font-family="mono" font-size="14.00" fill="#c83500">@type</text>
<text text-anchor="start" x="595" y="-751.8" font-family="Times,serif" font-size="14.00" fill="#000000"> : </text>
<text text-anchor="start" x="607" y="-751.8" font-family="Times,serif" font-style="italic" font-size="14.00" fill="#000000">array of </text>
<text text-anchor="start" x="658" y="-751.8" font-family="mono" font-size="14.00" fill="#c83500">string</text>
<polygon fill="#ddeeff" stroke="transparent" points="550,-723 550,-744 810,-744 810,-723 550,-723"/>
<polygon fill="none" stroke="#8ccbf2" points="550,-723 550,-744 810,-744 810,-723 550,-723"/>
<text text-anchor="start" x="553" y="-730.8" font-family="mono" font-size="14.00" fill="#c83500">id</text>
<text text-anchor="start" x="570" y="-730.8" font-family="Times,serif" font-size="14.00" fill="#000000"> : </text>
<text text-anchor="start" x="582" y="-730.8" font-family="mono" font-size="14.00" fill="#c83500">anyURI</text>
<text text-anchor="start" x="632" y="-730.8" font-family="Times,serif" font-size="14.00" fill="#000000"> </text>
<text text-anchor="start" x="636" y="-730.8" font-family="Times,serif" font-style="italic" font-size="14.00" fill="#000000">(mandatory)</text>
<polygon fill="#ddeeff" stroke="transparent" points="550,-702 550,-723 810,-723 810,-702 550,-702"/>
<polygon fill="none" stroke="#8ccbf2" points="550,-702 550,-723 810,-723 810,-702 550,-702"/>
<text text-anchor="start" x="553" y="-709.8" font-family="mono" font-size="14.00" fill="#c83500">support</text>
<text text-anchor="start" x="611" y="-709.8" font-family="Times,serif" font-size="14.00" fill="#000000"> : </text>
<text text-anchor="start" x="623" y="-709.8" font-family="mono" font-size="14.00" fill="#c83500">string</text>
<polygon fill="#ddeeff" stroke="transparent" points="550,-681 550,-702 810,-702 810,-681 550,-681"/>
<polygon fill="none" stroke="#8ccbf2" points="550,-681 550,-702 810,-702 810,-681 550,-681"/>
<text text-anchor="start" x="553" y="-688.8" font-family="mono" font-size="14.00" fill="#c83500">security</text>
<text text-anchor="start" x="620" y="-688.8" font-family="Times,serif" font-size="14.00" fill="#000000"> : array of </text>
<text text-anchor="start" x="680" y="-688.8" font-family="mono" font-size="14.00" fill="#c83500">string</text>
<text text-anchor="start" x="730" y="-688.8" font-family="Times,serif" font-size="14.00" fill="#000000"> </text>
<text text-anchor="start" x="734" y="-688.8" font-family="Times,serif" font-style="italic" font-size="14.00" fill="#000000">(mandatory)</text>
<polygon fill="#ddeeff" stroke="transparent" points="550,-660 550,-681 810,-681 810,-660 550,-660"/>
<polygon fill="none" stroke="#8ccbf2" points="550,-660 550,-681 810,-681 810,-660 550,-660"/>
<text text-anchor="start" x="553" y="-667.8" font-family="mono" font-size="14.00" fill="#c83500">created</text>
<text text-anchor="start" x="611" y="-667.8" font-family="Times,serif" font-size="14.00" fill="#000000"> : </text>
<text text-anchor="start" x="623" y="-667.8" font-family="mono" font-size="14.00" fill="#c83500">string</text>
<polygon fill="#ddeeff" stroke="transparent" points="550,-639 550,-660 810,-660 810,-639 550,-639"/>
<polygon fill="none" stroke="#8ccbf2" points="550,-639 550,-660 810,-660 810,-639 550,-639"/>
<text text-anchor="start" x="553" y="-646.8" font-family="mono" font-size="14.00" fill="#c83500">description</text>
<text text-anchor="start" x="644" y="-646.8" font-family="Times,serif" font-size="14.00" fill="#000000"> : </text>
<text text-anchor="start" x="656" y="-646.8" font-family="mono" font-size="14.00" fill="#c83500">string</text>
<polygon fill="#ddeeff" stroke="transparent" points="550,-618 550,-639 810,-639 810,-618 550,-618"/>
<polygon fill="none" stroke="#8ccbf2" points="550,-618 550,-639 810,-639 810,-618 550,-618"/>
<text text-anchor="start" x="553" y="-625.8" font-family="mono" font-size="14.00" fill="#c83500">base</text>
<text text-anchor="start" x="587" y="-625.8" font-family="Times,serif" font-size="14.00" fill="#000000"> : </text>
<text text-anchor="start" x="599" y="-625.8" font-family="mono" font-size="14.00" fill="#c83500">anyURI</text>
<polygon fill="#ddeeff" stroke="transparent" points="550,-597 550,-618 810,-618 810,-597 550,-597"/>
<polygon fill="none" stroke="#8ccbf2" points="550,-597 550,-618 810,-618 810,-597 550,-597"/>
<text text-anchor="start" x="553" y="-604.8" font-family="mono" font-size="14.00" fill="#c83500">lastModified</text>
<text text-anchor="start" x="653" y="-604.8" font-family="Times,serif" font-size="14.00" fill="#000000"> : </text>
<text text-anchor="start" x="665" y="-604.8" font-family="mono" font-size="14.00" fill="#c83500">string</text>
<polygon fill="#ddeeff" stroke="transparent" points="550,-576 550,-597 810,-597 810,-576 550,-576"/>
<polygon fill="none" stroke="#8ccbf2" points="550,-576 550,-597 810,-597 810,-576 550,-576"/>
<text text-anchor="start" x="553" y="-583.8" font-family="mono" font-size="14.00" fill="#c83500">names</text>
<text text-anchor="start" x="595" y="-583.8" font-family="Times,serif" font-size="14.00" fill="#000000"> : </text>
<text text-anchor="start" x="607" y="-583.8" font-family="mono" font-size="14.00" fill="#c83500">string</text>
<text text-anchor="start" x="657" y="-583.8" font-family="Times,serif" font-size="14.00" fill="#000000"> </text>
<text text-anchor="start" x="661" y="-583.8" font-family="Times,serif" font-style="italic" font-size="14.00" fill="#000000">(mandatory)</text>
<polygon fill="#ddeeff" stroke="transparent" points="550,-555 550,-576 810,-576 810,-555 550,-555"/>
<polygon fill="none" stroke="#8ccbf2" points="550,-555 550,-576 810,-576 810,-555 550,-555"/>
<text text-anchor="start" x="553" y="-562.8" font-family="mono" font-size="14.00" fill="#c83500">name</text>
<text text-anchor="start" x="587" y="-562.8" font-family="Times,serif" font-size="14.00" fill="#000000"> : </text>
<text text-anchor="start" x="599" y="-562.8" font-family="mono" font-size="14.00" fill="#c83500">string</text>
<text text-anchor="start" x="649" y="-562.8" font-family="Times,serif" font-size="14.00" fill="#000000"> </text>
<text text-anchor="start" x="653" y="-562.8" font-family="Times,serif" font-style="italic" font-size="14.00" fill="#000000">(mandatory)</text>
</g>
<!-- Thing&#45;&gt;MultiLanguage -->
<g id="edge7" class="edge">
<title>Thing&#45;&gt;MultiLanguage</title>
<path fill="none" stroke="#000000" d="M541.7408,-665.5676C437.8585,-645.915 302.2034,-601.2848 234,-500 168.8457,-403.2432 266.8501,-262.3991 313.5443,-204.6656"/>
<polygon fill="#000000" stroke="#000000" points="316.3912,-206.714 320.0358,-196.7658 310.9828,-202.2699 316.3912,-206.714"/>
<text text-anchor="start" x="215" y="-399.8" font-family="mono" font-size="14.00" fill="#c83500">descriptions</text>
<text text-anchor="middle" x="308.5358" y="-200.5658" font-family="Times,serif" font-size="14.00" fill="#000000">0..1</text>
</g>
<!-- Thing&#45;&gt;Form -->
<g id="edge6" class="edge">
<title>Thing&#45;&gt;Form</title>
<path fill="none" stroke="#000000" d="M541.9234,-649.7272C453.1213,-625.9148 337.4758,-587.7993 245,-533 226.3272,-521.9349 221.7922,-517.5348 209,-500 158.9699,-431.4216 139.0336,-335.3599 131.1238,-266.1246"/>
<polygon fill="#000000" stroke="#000000" points="134.5959,-265.6768 130.0419,-256.1107 127.6364,-266.4288 134.5959,-265.6768"/>
<text text-anchor="start" x="164" y="-399.8" font-family="mono" font-size="14.00" fill="#c83500">forms</text>
<text text-anchor="middle" x="118.5419" y="-259.9107" font-family="Times,serif" font-size="14.00" fill="#000000">0..*</text>
</g>
<!-- PropertyAffordance -->
<g id="node4" class="node">
<title>PropertyAffordance</title>
<polygon fill="#8ccbf2" stroke="transparent" points="252,-464.5 252,-485.5 411,-485.5 411,-464.5 252,-464.5"/>
<polygon fill="none" stroke="#8ccbf2" points="252,-464.5 252,-485.5 411,-485.5 411,-464.5 252,-464.5"/>
<text text-anchor="start" x="257" y="-472.3" font-family="mono" font-weight="bold" font-size="14.00" fill="#c83500">PropertyAffordance</text>
<polygon fill="#ddeeff" stroke="transparent" points="252,-443.5 252,-464.5 411,-464.5 411,-443.5 252,-443.5"/>
<polygon fill="none" stroke="#8ccbf2" points="252,-443.5 252,-464.5 411,-464.5 411,-443.5 252,-443.5"/>
<text text-anchor="start" x="255" y="-451.3" font-family="mono" font-size="14.00" fill="#c83500">observable</text>
<text text-anchor="start" x="338" y="-451.3" font-family="Times,serif" font-size="14.00" fill="#000000"> : </text>
<text text-anchor="start" x="350" y="-451.3" font-family="mono" font-size="14.00" fill="#c83500">boolean</text>
</g>
<!-- Thing&#45;&gt;PropertyAffordance -->
<g id="edge4" class="edge">
<title>Thing&#45;&gt;PropertyAffordance</title>
<path fill="none" stroke="#000000" d="M541.8154,-595.278C484.7495,-559.8776 422.2621,-521.1139 380.2504,-495.0522"/>
<polygon fill="#000000" stroke="#000000" points="381.9485,-491.9869 371.6057,-489.6895 378.2584,-497.9353 381.9485,-491.9869"/>
<text text-anchor="start" x="435" y="-521.8" font-family="mono" font-size="14.00" fill="#c83500">properties</text>
<text text-anchor="middle" x="360.1057" y="-493.4895" font-family="Times,serif" font-size="14.00" fill="#000000">0..1</text>
</g>
<!-- VersionInfo -->
<g id="node6" class="node">
<title>VersionInfo</title>
<polygon fill="#8ccbf2" stroke="transparent" points="445,-464.5 445,-485.5 657,-485.5 657,-464.5 445,-464.5"/>
<polygon fill="none" stroke="#8ccbf2" points="445,-464.5 445,-485.5 657,-485.5 657,-464.5 445,-464.5"/>
<text text-anchor="start" x="505.5" y="-472.3" font-family="mono" font-weight="bold" font-size="14.00" fill="#c83500">VersionInfo</text>
<polygon fill="#ddeeff" stroke="transparent" points="445,-443.5 445,-464.5 657,-464.5 657,-443.5 445,-443.5"/>
<polygon fill="none" stroke="#8ccbf2" points="445,-443.5 445,-464.5 657,-464.5 657,-443.5 445,-443.5"/>
<text text-anchor="start" x="448" y="-451.3" font-family="mono" font-size="14.00" fill="#c83500">instance</text>
<text text-anchor="start" x="515" y="-451.3" font-family="Times,serif" font-size="14.00" fill="#000000"> : </text>
<text text-anchor="start" x="527" y="-451.3" font-family="mono" font-size="14.00" fill="#c83500">string</text>
<text text-anchor="start" x="577" y="-451.3" font-family="Times,serif" font-size="14.00" fill="#000000"> </text>
<text text-anchor="start" x="581" y="-451.3" font-family="Times,serif" font-style="italic" font-size="14.00" fill="#000000">(mandatory)</text>
</g>
<!-- Thing&#45;&gt;VersionInfo -->
<g id="edge3" class="edge">
<title>Thing&#45;&gt;VersionInfo</title>
<path fill="none" stroke="#000000" d="M602.5404,-550.9999C591.019,-531.6637 580.0731,-513.2932 571.2561,-498.4958"/>
<polygon fill="#000000" stroke="#000000" points="574.1808,-496.5664 566.0554,-489.7673 568.1673,-500.1495 574.1808,-496.5664"/>
<text text-anchor="start" x="590" y="-521.8" font-family="mono" font-size="14.00" fill="#c83500">version</text>
<text text-anchor="middle" x="554.5554" y="-493.5673" font-family="Times,serif" font-size="14.00" fill="#000000">0..1</text>
</g>
<!-- ActionAffordance -->
<g id="node7" class="node">
<title>ActionAffordance</title>
<polygon fill="#8ccbf2" stroke="transparent" points="691,-474.5 691,-495.5 927,-495.5 927,-474.5 691,-474.5"/>
<polygon fill="none" stroke="#8ccbf2" points="691,-474.5 691,-495.5 927,-495.5 927,-474.5 691,-474.5"/>
<text text-anchor="start" x="742.5" y="-482.3" font-family="mono" font-weight="bold" font-size="14.00" fill="#c83500">ActionAffordance</text>
<polygon fill="#ddeeff" stroke="transparent" points="691,-453.5 691,-474.5 927,-474.5 927,-453.5 691,-453.5"/>
<polygon fill="none" stroke="#8ccbf2" points="691,-453.5 691,-474.5 927,-474.5 927,-453.5 691,-453.5"/>
<text text-anchor="start" x="694" y="-461.3" font-family="mono" font-size="14.00" fill="#c83500">idempotent</text>
<text text-anchor="start" x="777" y="-461.3" font-family="Times,serif" font-size="14.00" fill="#000000"> : </text>
<text text-anchor="start" x="789" y="-461.3" font-family="mono" font-size="14.00" fill="#c83500">boolean</text>
<text text-anchor="start" x="847" y="-461.3" font-family="Times,serif" font-size="14.00" fill="#000000"> </text>
<text text-anchor="start" x="851" y="-461.3" font-family="Times,serif" font-style="italic" font-size="14.00" fill="#000000">(mandatory)</text>
<polygon fill="#ddeeff" stroke="transparent" points="691,-432.5 691,-453.5 927,-453.5 927,-432.5 691,-432.5"/>
<polygon fill="none" stroke="#8ccbf2" points="691,-432.5 691,-453.5 927,-453.5 927,-432.5 691,-432.5"/>
<text text-anchor="start" x="694" y="-440.3" font-family="mono" font-size="14.00" fill="#c83500">safe</text>
<text text-anchor="start" x="728" y="-440.3" font-family="Times,serif" font-size="14.00" fill="#000000"> : </text>
<text text-anchor="start" x="740" y="-440.3" font-family="mono" font-size="14.00" fill="#c83500">boolean</text>
<text text-anchor="start" x="798" y="-440.3" font-family="Times,serif" font-size="14.00" fill="#000000"> </text>
<text text-anchor="start" x="802" y="-440.3" font-family="Times,serif" font-style="italic" font-size="14.00" fill="#000000">(mandatory)</text>
</g>
<!-- Thing&#45;&gt;ActionAffordance -->
<g id="edge2" class="edge">
<title>Thing&#45;&gt;ActionAffordance</title>
<path fill="none" stroke="#000000" d="M757.4596,-550.9999C766.4158,-535.9688 775.0243,-521.5212 782.5553,-508.8819"/>
<polygon fill="#000000" stroke="#000000" points="785.7262,-510.3979 787.8382,-500.0157 779.7128,-506.8148 785.7262,-510.3979"/>
<text text-anchor="start" x="775" y="-521.8" font-family="mono" font-size="14.00" fill="#c83500">actions</text>
<text text-anchor="middle" x="776.3382" y="-503.8157" font-family="Times,serif" font-size="14.00" fill="#000000">0..1</text>
</g>
<!-- EventAffordance -->
<g id="node9" class="node">
<title>EventAffordance</title>
<polygon fill="#8ccbf2" stroke="transparent" points="961,-453.5 961,-474.5 1091,-474.5 1091,-453.5 961,-453.5"/>
<polygon fill="none" stroke="#8ccbf2" points="961,-453.5 961,-474.5 1091,-474.5 1091,-453.5 961,-453.5"/>
<text text-anchor="start" x="964" y="-461.3" font-family="mono" font-weight="bold" font-size="14.00" fill="#c83500">EventAffordance</text>
</g>
<!-- Thing&#45;&gt;EventAffordance -->
<g id="edge5" class="edge">
<title>Thing&#45;&gt;EventAffordance</title>
<path fill="none" stroke="#000000" d="M818.24,-594.5001C879.9682,-555.8754 947.8545,-513.3974 988.6867,-487.8478"/>
<polygon fill="#000000" stroke="#000000" points="990.6042,-490.7767 997.2249,-482.5053 986.8911,-484.8427 990.6042,-490.7767"/>
<text text-anchor="start" x="934" y="-521.8" font-family="mono" font-size="14.00" fill="#c83500">events</text>
<text text-anchor="middle" x="985.7249" y="-486.3053" font-family="Times,serif" font-size="14.00" fill="#000000">0..1</text>
</g>
<!-- SecurityScheme -->
<g id="node10" class="node">
<title>SecurityScheme</title>
<polygon fill="#f2f2f2" stroke="transparent" points="1125,-453.5 1125,-474.5 1247,-474.5 1247,-453.5 1125,-453.5"/>
<polygon fill="none" stroke="#8c8c8c" points="1125,-453.5 1125,-474.5 1247,-474.5 1247,-453.5 1125,-453.5"/>
<text text-anchor="start" x="1128" y="-461.3" font-family="mono" font-weight="bold" font-size="14.00" fill="#000000">SecurityScheme</text>
</g>
<!-- Thing&#45;&gt;SecurityScheme -->
<g id="edge8" class="edge">
<title>Thing&#45;&gt;SecurityScheme</title>
<path fill="none" stroke="#000000" d="M818.2237,-623.6591C902.2566,-588.5226 1011.5941,-542.3142 1108,-500 1117.6015,-495.7857 1127.828,-491.2013 1137.6078,-486.7699"/>
<polygon fill="#000000" stroke="#000000" points="1139.1575,-489.9102 1146.8123,-482.5852 1136.2603,-483.5378 1139.1575,-489.9102"/>
<text text-anchor="start" x="1062" y="-521.8" font-family="mono" font-size="14.00" fill="#c83500">securityDefinitions</text>
<text text-anchor="middle" x="1135.3123" y="-486.3852" font-family="Times,serif" font-size="14.00" fill="#000000">1..1</text>
</g>
<!-- Link -->
<g id="node11" class="node">
<title>Link</title>
<polygon fill="#f2f2f2" stroke="transparent" points="1313,-453.5 1313,-474.5 1353,-474.5 1353,-453.5 1313,-453.5"/>
<polygon fill="none" stroke="#8c8c8c" points="1313,-453.5 1313,-474.5 1353,-474.5 1353,-453.5 1313,-453.5"/>
<text text-anchor="start" x="1316" y="-461.3" font-family="mono" font-weight="bold" font-size="14.00" fill="#000000">Link</text>
</g>
<!-- Thing&#45;&gt;Link -->
<g id="edge9" class="edge">
<title>Thing&#45;&gt;Link</title>
<path fill="none" stroke="#000000" d="M818.1872,-654.9678C930.229,-631.1367 1090.687,-590.7482 1223,-533 1250.3646,-521.0567 1278.9198,-503.0868 1300.0768,-488.5487"/>
<polygon fill="#000000" stroke="#000000" points="1302.1775,-491.3509 1308.3779,-482.7598 1298.1734,-485.6091 1302.1775,-491.3509"/>
<text text-anchor="start" x="1251" y="-521.8" font-family="mono" font-size="14.00" fill="#c83500">links</text>
<text text-anchor="middle" x="1296.8779" y="-486.5598" font-family="Times,serif" font-size="14.00" fill="#000000">0..*</text>
</g>
<!-- InteractionAffordance -->
<g id="node8" class="node">
<title>InteractionAffordance</title>
<polygon fill="#8ccbf2" stroke="transparent" points="319,-352.5 319,-373.5 499,-373.5 499,-352.5 319,-352.5"/>
<polygon fill="none" stroke="#8ccbf2" points="319,-352.5 319,-373.5 499,-373.5 499,-352.5 319,-352.5"/>
<text text-anchor="start" x="322" y="-360.3" font-family="mono" font-weight="bold" font-size="14.00" fill="#c83500">InteractionAffordance</text>
<polygon fill="#ddeeff" stroke="transparent" points="319,-331.5 319,-352.5 499,-352.5 499,-331.5 319,-331.5"/>
<polygon fill="none" stroke="#8ccbf2" points="319,-331.5 319,-352.5 499,-352.5 499,-331.5 319,-331.5"/>
<text text-anchor="start" x="322" y="-339.3" font-family="mono" font-size="14.00" fill="#c83500">title</text>
<text text-anchor="start" x="364" y="-339.3" font-family="Times,serif" font-size="14.00" fill="#000000"> : </text>
<text text-anchor="start" x="376" y="-339.3" font-family="mono" font-size="14.00" fill="#c83500">string</text>
<polygon fill="#ddeeff" stroke="transparent" points="319,-310.5 319,-331.5 499,-331.5 499,-310.5 319,-310.5"/>
<polygon fill="none" stroke="#8ccbf2" points="319,-310.5 319,-331.5 499,-331.5 499,-310.5 319,-310.5"/>
<text text-anchor="start" x="322" y="-318.3" font-family="mono" font-size="14.00" fill="#c83500">description</text>
<text text-anchor="start" x="413" y="-318.3" font-family="Times,serif" font-size="14.00" fill="#000000"> : </text>
<text text-anchor="start" x="425" y="-318.3" font-family="mono" font-size="14.00" fill="#c83500">string</text>
</g>
<!-- PropertyAffordance&#45;&gt;InteractionAffordance -->
<g id="edge21" class="edge">
<title>PropertyAffordance&#45;&gt;InteractionAffordance</title>
<path fill="none" stroke="#000000" d="M347.1617,-439.2215C356.8252,-424.1067 369.3772,-404.4741 380.6453,-386.8497"/>
<polygon fill="#ffffff" stroke="#000000" points="383.6176,-388.6982 386.0555,-378.3876 377.72,-384.9275 383.6176,-388.6982"/>
</g>
<!-- DataSchema -->
<g id="node12" class="node">
<title>DataSchema</title>
<polygon fill="#f2f2f2" stroke="transparent" points="765,-167.5 765,-188.5 854,-188.5 854,-167.5 765,-167.5"/>
<polygon fill="none" stroke="#8c8c8c" points="765,-167.5 765,-188.5 854,-188.5 854,-167.5 765,-167.5"/>
<text text-anchor="start" x="768" y="-175.3" font-family="mono" font-weight="bold" font-size="14.00" fill="#000000">DataSchema</text>
</g>
<!-- PropertyAffordance&#45;&gt;DataSchema -->
<g id="edge22" class="edge">
<title>PropertyAffordance&#45;&gt;DataSchema</title>
<path fill="none" stroke="#000000" d="M390.9582,-439.3915C427.7768,-423.2613 475.4828,-401.0683 516,-378 615.0391,-321.6125 724.1176,-242.4065 776.8825,-202.9039"/>
<polygon fill="#ffffff" stroke="#000000" points="779.2662,-205.4908 785.1598,-196.6865 775.0621,-199.8939 779.2662,-205.4908"/>
</g>
<!-- ActionAffordance&#45;&gt;InteractionAffordance -->
<g id="edge19" class="edge">
<title>ActionAffordance&#45;&gt;InteractionAffordance</title>
<path fill="none" stroke="#000000" d="M692.4972,-428.9667C637.0172,-412.0453 571.0892,-391.9372 516.7779,-375.3723"/>
<polygon fill="#ffffff" stroke="#000000" points="517.7117,-371.9979 507.1256,-372.4283 515.6695,-378.6934 517.7117,-371.9979"/>
</g>
<!-- ActionAffordance&#45;&gt;DataSchema -->
<g id="edge10" class="edge">
<title>ActionAffordance&#45;&gt;DataSchema</title>
<path fill="none" stroke="#000000" d="M769.5419,-428.5997C756.5865,-414.2802 743.7793,-396.7413 737,-378 714.5259,-315.8702 758.9264,-242.8278 787.4976,-204.6918"/>
<polygon fill="#000000" stroke="#000000" points="790.3535,-206.7194 793.6727,-196.6579 784.8035,-202.4535 790.3535,-206.7194"/>
<text text-anchor="start" x="737" y="-338.8" font-family="mono" font-size="14.00" fill="#c83500">output</text>
<text text-anchor="middle" x="782.1727" y="-200.4579" font-family="Times,serif" font-size="14.00" fill="#000000">0..1</text>
</g>
<!-- ActionAffordance&#45;&gt;DataSchema -->
<g id="edge11" class="edge">
<title>ActionAffordance&#45;&gt;DataSchema</title>
<path fill="none" stroke="#000000" d="M809,-428.8562C809,-371.3995 809,-259.4516 809,-206.9569"/>
<polygon fill="#000000" stroke="#000000" points="812.5001,-206.6985 809,-196.6986 805.5001,-206.6986 812.5001,-206.6985"/>
<text text-anchor="start" x="809" y="-338.8" font-family="mono" font-size="14.00" fill="#c83500">input</text>
<text text-anchor="middle" x="820.5" y="-200.4986" font-family="Times,serif" font-size="14.00" fill="#000000">0..1</text>
</g>
<!-- InteractionAffordance&#45;&gt;MultiLanguage -->
<g id="edge12" class="edge">
<title>InteractionAffordance&#45;&gt;MultiLanguage</title>
<path fill="none" stroke="#000000" d="M398.8879,-306.857C395.4942,-296.1474 391.4329,-284.4664 387,-274 376.9038,-250.1622 362.9091,-224.3314 352.1332,-205.5521"/>
<polygon fill="#000000" stroke="#000000" points="355.0301,-203.571 346.9814,-196.6813 348.9769,-207.0865 355.0301,-203.571"/>
<text text-anchor="start" x="393" y="-277.8" font-family="mono" font-size="14.00" fill="#c83500">descriptions</text>
<text text-anchor="middle" x="335.4814" y="-200.4813" font-family="Times,serif" font-size="14.00" fill="#000000">0..1</text>
</g>
<!-- InteractionAffordance&#45;&gt;MultiLanguage -->
<g id="edge13" class="edge">
<title>InteractionAffordance&#45;&gt;MultiLanguage</title>
<path fill="none" stroke="#000000" d="M346.3819,-306.861C341.0633,-301.536 336.4191,-295.5881 333,-289 319.7377,-263.4453 323.0499,-229.8932 328.065,-206.4933"/>
<polygon fill="#000000" stroke="#000000" points="331.5277,-207.06 330.4356,-196.5216 324.7175,-205.4409 331.5277,-207.06"/>
<text text-anchor="start" x="333" y="-277.8" font-family="mono" font-size="14.00" fill="#c83500">titles</text>
<text text-anchor="middle" x="341.9356" y="-200.3216" font-family="Times,serif" font-size="14.00" fill="#000000">0..1</text>
</g>
<!-- InteractionAffordance&#45;&gt;Form -->
<g id="edge15" class="edge">
<title>InteractionAffordance&#45;&gt;Form</title>
<path fill="none" stroke="#000000" d="M317.6589,-306.8651C305.4698,-301.2892 293.2912,-295.2788 282,-289 267.2091,-280.7751 252.121,-271.4426 237.4411,-261.7701"/>
<polygon fill="#000000" stroke="#000000" points="239.112,-258.6775 228.8503,-256.0416 235.2285,-264.5015 239.112,-258.6775"/>
<text text-anchor="start" x="282" y="-277.8" font-family="mono" font-size="14.00" fill="#c83500">forms</text>
<text text-anchor="middle" x="217.3503" y="-259.8416" font-family="Times,serif" font-size="14.00" fill="#000000">1..*</text>
</g>
<!-- InteractionAffordance&#45;&gt;DataSchema -->
<g id="edge14" class="edge">
<title>InteractionAffordance&#45;&gt;DataSchema</title>
<path fill="none" stroke="#000000" d="M471.3878,-306.9597C492.2417,-295.7333 515.8243,-283.7301 538,-274 607.9189,-243.3216 691.1054,-215.1891 746.7001,-197.5249"/>
<polygon fill="#000000" stroke="#000000" points="747.9259,-200.8083 756.4069,-194.4581 745.817,-194.1335 747.9259,-200.8083"/>
<text text-anchor="start" x="538" y="-277.8" font-family="mono" font-size="14.00" fill="#c83500">uriVariables</text>
<text text-anchor="middle" x="744.9069" y="-198.2581" font-family="Times,serif" font-size="14.00" fill="#000000">0..1</text>
</g>
<!-- EventAffordance&#45;&gt;InteractionAffordance -->
<g id="edge20" class="edge">
<title>EventAffordance&#45;&gt;InteractionAffordance</title>
<path fill="none" stroke="#000000" d="M989.5751,-446.4206C975.6059,-440.1062 959.3364,-433.4837 944,-429 865.9968,-406.1952 649.6502,-374.7794 517.1887,-356.7583"/>
<polygon fill="#ffffff" stroke="#000000" points="517.3905,-353.2537 507.0107,-355.3775 516.4494,-360.1902 517.3905,-353.2537"/>
</g>
<!-- EventAffordance&#45;&gt;DataSchema -->
<g id="edge16" class="edge">
<title>EventAffordance&#45;&gt;DataSchema</title>
<path fill="none" stroke="#000000" d="M1059.5967,-446.3478C1083.3015,-431.4664 1113.1989,-407.9906 1127,-378 1140.1915,-349.3341 1144.6449,-333.1612 1127,-307 1069.9979,-222.4861 947.0208,-193.541 871.8013,-183.6382"/>
<polygon fill="#000000" stroke="#000000" points="871.8709,-180.1201 861.5163,-182.3635 871.0098,-187.067 871.8709,-180.1201"/>
<text text-anchor="start" x="1139" y="-338.8" font-family="mono" font-size="14.00" fill="#c83500">data</text>
<text text-anchor="middle" x="873.0163" y="-186.1635" font-family="Times,serif" font-size="14.00" fill="#000000">0..1</text>
</g>
<!-- EventAffordance&#45;&gt;DataSchema -->
<g id="edge17" class="edge">
<title>EventAffordance&#45;&gt;DataSchema</title>
<path fill="none" stroke="#000000" d="M990.0439,-446.4967C962.703,-431.322 925.701,-407.3991 901,-378 856.5548,-325.1014 828.9438,-247.1737 816.5972,-206.1257"/>
<polygon fill="#000000" stroke="#000000" points="819.9544,-205.1362 813.7861,-196.5221 813.2363,-207.1026 819.9544,-205.1362"/>
<text text-anchor="start" x="901" y="-338.8" font-family="mono" font-size="14.00" fill="#c83500">subscription</text>
<text text-anchor="middle" x="802.2861" y="-200.3221" font-family="Times,serif" font-size="14.00" fill="#000000">0..1</text>
</g>
<!-- EventAffordance&#45;&gt;DataSchema -->
<g id="edge18" class="edge">
<title>EventAffordance&#45;&gt;DataSchema</title>
<path fill="none" stroke="#000000" d="M1024.9337,-446.3666C1022.5092,-410.0366 1015.6233,-329.8544 1001,-307 968.8094,-256.6902 909.1057,-221.431 864.7876,-200.7353"/>
<polygon fill="#000000" stroke="#000000" points="866.1308,-197.5011 855.5796,-196.54 863.2284,-203.8711 866.1308,-197.5011"/>
<text text-anchor="start" x="1019" y="-338.8" font-family="mono" font-size="14.00" fill="#c83500">cancellation</text>
<text text-anchor="middle" x="844.0796" y="-200.34" font-family="Times,serif" font-size="14.00" fill="#000000">0..1</text>
</g>
</g>
</svg>
