<?xml version="1.0" encoding="UTF-8" standalone="no"?>
<!DOCTYPE svg PUBLIC "-//W3C//DTD SVG 1.1//EN"
 "http://www.w3.org/Graphics/SVG/1.1/DTD/svg11.dtd">
<!-- Generated by graphviz version 10.0.1 (0)
 -->
<!-- Pages: 1 -->
<svg width="1620pt" height="694pt"
 viewBox="0.00 0.00 1619.65 693.50" xmlns="http://www.w3.org/2000/svg" xmlns:xlink="http://www.w3.org/1999/xlink">
<g id="graph0" class="graph" transform="scale(1 1) rotate(0) translate(4 689.5)">
<polygon fill="white" stroke="none" points="-4,4 -4,-689.5 1615.65,-689.5 1615.65,4 -4,4"/>
<!-- ActionAffordance -->
<g id="node1" class="node">
<title>ActionAffordance</title>
<polygon fill="#8ccbf2" stroke="none" points="622.02,-312 622.02,-337.5 787.77,-337.5 787.77,-312 622.02,-312"/>
<polygon fill="none" stroke="#8ccbf2" points="622.02,-312 622.02,-337.5 787.77,-337.5 787.77,-312 622.02,-312"/>
<text text-anchor="start" x="638.9" y="-322.2" font-family="mono" font-weight="bold" font-size="14.00" fill="#c83500">ActionAffordance</text>
<polygon fill="#ddeeff" stroke="none" points="622.02,-286.5 622.02,-312 787.77,-312 787.77,-286.5 622.02,-286.5"/>
<polygon fill="none" stroke="#8ccbf2" points="622.02,-286.5 622.02,-312 787.77,-312 787.77,-286.5 622.02,-286.5"/>
<text text-anchor="start" x="625.02" y="-296.7" font-family="mono" font-size="14.00" fill="#c83500">safe</text>
<text text-anchor="start" x="658.02" y="-296.7" font-family="Times,serif" font-size="14.00"> : </text>
<text text-anchor="start" x="669.27" y="-296.7" font-family="mono" font-size="14.00" fill="#c83500">boolean</text>
<polygon fill="#ddeeff" stroke="none" points="622.02,-261 622.02,-286.5 787.77,-286.5 787.77,-261 622.02,-261"/>
<polygon fill="none" stroke="#8ccbf2" points="622.02,-261 622.02,-286.5 787.77,-286.5 787.77,-261 622.02,-261"/>
<text text-anchor="start" x="625.02" y="-271.2" font-family="mono" font-size="14.00" fill="#c83500">idempotent</text>
<text text-anchor="start" x="707.52" y="-271.2" font-family="Times,serif" font-size="14.00"> : </text>
<text text-anchor="start" x="718.77" y="-271.2" font-family="mono" font-size="14.00" fill="#c83500">boolean</text>
<polygon fill="#ddeeff" stroke="none" points="622.02,-235.5 622.02,-261 787.77,-261 787.77,-235.5 622.02,-235.5"/>
<polygon fill="none" stroke="#8ccbf2" points="622.02,-235.5 622.02,-261 787.77,-261 787.77,-235.5 622.02,-235.5"/>
<text text-anchor="start" x="625.02" y="-245.7" font-family="mono" font-size="14.00" fill="#c83500">synchronous</text>
<text text-anchor="start" x="715.77" y="-245.7" font-family="Times,serif" font-size="14.00"> : </text>
<text text-anchor="start" x="727.02" y="-245.7" font-family="mono" font-size="14.00" fill="#c83500">boolean</text>
</g>
<!-- InteractionAffordance -->
<g id="node3" class="node">
<title>InteractionAffordance</title>
<polygon fill="#8ccbf2" stroke="none" points="853.65,-146.5 853.65,-172 1044.15,-172 1044.15,-146.5 853.65,-146.5"/>
<polygon fill="none" stroke="#8ccbf2" points="853.65,-146.5 853.65,-172 1044.15,-172 1044.15,-146.5 853.65,-146.5"/>
<text text-anchor="start" x="862.27" y="-156.7" font-family="mono" font-weight="bold" font-size="14.00" fill="#c83500">InteractionAffordance</text>
<polygon fill="#ddeeff" stroke="none" points="853.65,-121 853.65,-146.5 1044.15,-146.5 1044.15,-121 853.65,-121"/>
<polygon fill="none" stroke="#8ccbf2" points="853.65,-121 853.65,-146.5 1044.15,-146.5 1044.15,-121 853.65,-121"/>
<text text-anchor="start" x="856.65" y="-131.2" font-family="mono" font-size="14.00" fill="#c83500">title</text>
<text text-anchor="start" x="897.9" y="-131.2" font-family="Times,serif" font-size="14.00"> : </text>
<text text-anchor="start" x="909.15" y="-131.2" font-family="mono" font-size="14.00" fill="#c83500">langString</text>
<polygon fill="#ddeeff" stroke="none" points="853.65,-95.5 853.65,-121 1044.15,-121 1044.15,-95.5 853.65,-95.5"/>
<polygon fill="none" stroke="#8ccbf2" points="853.65,-95.5 853.65,-121 1044.15,-121 1044.15,-95.5 853.65,-95.5"/>
<text text-anchor="start" x="856.65" y="-105.7" font-family="mono" font-size="14.00" fill="#c83500">description</text>
<text text-anchor="start" x="947.4" y="-105.7" font-family="Times,serif" font-size="14.00"> : </text>
<text text-anchor="start" x="958.65" y="-105.7" font-family="mono" font-size="14.00" fill="#c83500">langString</text>
</g>
<!-- ActionAffordance&#45;&gt;InteractionAffordance -->
<g id="edge22" class="edge">
<title>ActionAffordance&#45;&gt;InteractionAffordance</title>
<path fill="none" stroke="black" d="M792.3,-231.5C818.61,-215.25 847.26,-197.54 872.78,-181.78"/>
<polygon fill="white" stroke="black" points="874.44,-184.87 881.11,-176.63 870.76,-178.91 874.44,-184.87"/>
</g>
<!-- DataSchema -->
<g id="node10" class="node">
<title>DataSchema</title>
<polygon fill="#f2f2f2" stroke="none" points="482.65,-5.25 482.65,-30.75 571.15,-30.75 571.15,-5.25 482.65,-5.25"/>
<polygon fill="none" stroke="#8c8c8c" points="482.65,-5.25 482.65,-30.75 571.15,-30.75 571.15,-5.25 482.65,-5.25"/>
<text text-anchor="start" x="485.65" y="-15.45" font-family="mono" font-weight="bold" font-size="14.00">DataSchema</text>
</g>
<!-- ActionAffordance&#45;&gt;DataSchema -->
<g id="edge4" class="edge">
<title>ActionAffordance&#45;&gt;DataSchema</title>
<path fill="none" stroke="black" d="M736.26,-231.74C755.2,-191.95 772.27,-136.99 752.9,-91.5 743.48,-69.38 735.28,-65.01 713.9,-54 675.71,-34.34 628.06,-25.62 590.42,-21.8"/>
<polygon fill="black" stroke="black" points="590.87,-18.33 580.59,-20.91 590.23,-25.3 590.87,-18.33"/>
<text text-anchor="start" x="761.9" y="-130.2" font-family="mono" font-size="14.00" fill="#c83500">input</text>
<text text-anchor="middle" x="589.58" y="-23.97" font-family="Times,serif" font-size="14.00">0..1</text>
</g>
<!-- ActionAffordance&#45;&gt;DataSchema -->
<g id="edge5" class="edge">
<title>ActionAffordance&#45;&gt;DataSchema</title>
<path fill="none" stroke="black" d="M703.02,-231.7C699.79,-171.56 691.1,-79.25 667.9,-54 657.1,-42.24 622.51,-33.56 590.29,-27.78"/>
<polygon fill="black" stroke="black" points="590.98,-24.34 580.53,-26.11 589.8,-31.24 590.98,-24.34"/>
<text text-anchor="start" x="698.9" y="-130.2" font-family="mono" font-size="14.00" fill="#c83500">output</text>
<text text-anchor="middle" x="589.54" y="-12.55" font-family="Times,serif" font-size="14.00">0..1</text>
</g>
<!-- EventAffordance -->
<g id="node2" class="node">
<title>EventAffordance</title>
<polygon fill="#8ccbf2" stroke="none" points="359.02,-273.75 359.02,-299.25 488.77,-299.25 488.77,-273.75 359.02,-273.75"/>
<polygon fill="none" stroke="#8ccbf2" points="359.02,-273.75 359.02,-299.25 488.77,-299.25 488.77,-273.75 359.02,-273.75"/>
<text text-anchor="start" x="362.02" y="-283.95" font-family="mono" font-weight="bold" font-size="14.00" fill="#c83500">EventAffordance</text>
</g>
<!-- EventAffordance&#45;&gt;InteractionAffordance -->
<g id="edge23" class="edge">
<title>EventAffordance&#45;&gt;InteractionAffordance</title>
<path fill="none" stroke="black" d="M476.66,-268.56C512.6,-257.32 561.38,-242.64 604.9,-231.5 641.89,-222.03 651.76,-222.38 688.9,-213.5 752.38,-198.32 768.49,-195.12 830.9,-176 832.27,-175.58 833.65,-175.15 835.04,-174.72"/>
<polygon fill="white" stroke="black" points="835.85,-178.14 844.32,-171.78 833.73,-171.46 835.85,-178.14"/>
</g>
<!-- EventAffordance&#45;&gt;DataSchema -->
<g id="edge6" class="edge">
<title>EventAffordance&#45;&gt;DataSchema</title>
<path fill="none" stroke="black" d="M351.29,-270.84C299.82,-256.24 234.35,-228.19 201.9,-176 182.07,-144.11 180.17,-122.13 201.9,-91.5 231.71,-49.46 377.66,-30.81 463.5,-23.36"/>
<polygon fill="black" stroke="black" points="463.76,-26.85 473.43,-22.53 463.17,-19.88 463.76,-26.85"/>
<text text-anchor="start" x="201.9" y="-130.2" font-family="mono" font-size="14.00" fill="#c83500">subscription</text>
<text text-anchor="middle" x="464.44" y="-25.61" font-family="Times,serif" font-size="14.00">0..1</text>
</g>
<!-- EventAffordance&#45;&gt;DataSchema -->
<g id="edge7" class="edge">
<title>EventAffordance&#45;&gt;DataSchema</title>
<path fill="none" stroke="black" d="M404.12,-268.53C382.82,-248.8 350.18,-214.06 336.9,-176 324.53,-140.54 321.76,-125.87 336.9,-91.5 357.74,-44.19 416.9,-27.28 463.73,-21.47"/>
<polygon fill="black" stroke="black" points="463.96,-24.97 473.52,-20.42 463.21,-18.01 463.96,-24.97"/>
<text text-anchor="start" x="336.9" y="-130.2" font-family="mono" font-size="14.00" fill="#c83500">data</text>
<text text-anchor="middle" x="464.53" y="-6.95" font-family="Times,serif" font-size="14.00">0..1</text>
</g>
<!-- EventAffordance&#45;&gt;DataSchema -->
<g id="edge8" class="edge">
<title>EventAffordance&#45;&gt;DataSchema</title>
<path fill="none" stroke="black" d="M416.24,-268.57C401.42,-233.11 373.05,-149.48 405.9,-91.5 418.88,-68.59 442.3,-52.13 465.11,-40.75"/>
<polygon fill="black" stroke="black" points="466.57,-43.93 474.13,-36.52 463.59,-37.6 466.57,-43.93"/>
<text text-anchor="start" x="405.9" y="-130.2" font-family="mono" font-size="14.00" fill="#c83500">dataResponse</text>
<text text-anchor="middle" x="486" y="-39.08" font-family="Times,serif" font-size="14.00">0..1</text>
</g>
<!-- EventAffordance&#45;&gt;DataSchema -->
<g id="edge9" class="edge">
<title>EventAffordance&#45;&gt;DataSchema</title>
<path fill="none" stroke="black" d="M440.7,-268.61C459.68,-248.44 489.87,-212.77 504.9,-176 522.35,-133.3 526.38,-79.22 527.08,-46.96"/>
<polygon fill="black" stroke="black" points="530.58,-47.29 527.19,-37.25 523.58,-47.21 530.58,-47.29"/>
<text text-anchor="start" x="524.9" y="-130.2" font-family="mono" font-size="14.00" fill="#c83500">cancellation</text>
<text text-anchor="middle" x="516.71" y="-38.94" font-family="Times,serif" font-size="14.00">0..1</text>
</g>
<!-- MultiLanguage -->
<g id="node4" class="node">
<title>MultiLanguage</title>
<polygon fill="#8ccbf2" stroke="none" points="1183.27,-5.25 1183.27,-30.75 1296.52,-30.75 1296.52,-5.25 1183.27,-5.25"/>
<polygon fill="none" stroke="#8ccbf2" points="1183.27,-5.25 1183.27,-30.75 1296.52,-30.75 1296.52,-5.25 1183.27,-5.25"/>
<text text-anchor="start" x="1186.27" y="-15.45" font-family="mono" font-weight="bold" font-size="14.00" fill="#c83500">MultiLanguage</text>
</g>
<!-- InteractionAffordance&#45;&gt;MultiLanguage -->
<g id="edge12" class="edge">
<title>InteractionAffordance&#45;&gt;MultiLanguage</title>
<path fill="none" stroke="black" d="M1003.09,-91.64C1025.42,-75.38 1048.95,-59.3 1061.4,-54 1093.76,-40.23 1131.75,-31.82 1164.34,-26.71"/>
<polygon fill="black" stroke="black" points="1164.75,-30.19 1174.13,-25.26 1163.73,-23.26 1164.75,-30.19"/>
<text text-anchor="start" x="1061.9" y="-60.2" font-family="mono" font-size="14.00" fill="#c83500">titles</text>
<text text-anchor="middle" x="1165.13" y="-28.24" font-family="Times,serif" font-size="14.00">0..*</text>
</g>
<!-- InteractionAffordance&#45;&gt;MultiLanguage -->
<g id="edge14" class="edge">
<title>InteractionAffordance&#45;&gt;MultiLanguage</title>
<path fill="none" stroke="black" d="M1052.02,-95.89C1071.64,-88.64 1091.95,-80.96 1110.9,-73.5 1137.5,-63.02 1166.88,-50.67 1190.88,-40.38"/>
<polygon fill="black" stroke="black" points="1191.96,-43.72 1199.76,-36.55 1189.19,-37.29 1191.96,-43.72"/>
<text text-anchor="start" x="1157.9" y="-60.2" font-family="mono" font-size="14.00" fill="#c83500">descriptions</text>
<text text-anchor="middle" x="1190.65" y="-39.16" font-family="Times,serif" font-size="14.00">0..*</text>
</g>
<!-- Form -->
<g id="node8" class="node">
<title>Form</title>
<polygon fill="#f2f2f2" stroke="none" points="1023.4,-5.25 1023.4,-30.75 1062.4,-30.75 1062.4,-5.25 1023.4,-5.25"/>
<polygon fill="none" stroke="#8c8c8c" points="1023.4,-5.25 1023.4,-30.75 1062.4,-30.75 1062.4,-5.25 1023.4,-5.25"/>
<text text-anchor="start" x="1026.4" y="-15.45" font-family="mono" font-weight="bold" font-size="14.00">Form</text>
</g>
<!-- InteractionAffordance&#45;&gt;Form -->
<g id="edge1" class="edge">
<title>InteractionAffordance&#45;&gt;Form</title>
<path fill="none" stroke="black" d="M961.32,-91.89C966.7,-78.77 974.02,-64.84 983.65,-54 989.79,-47.09 997.62,-41.16 1005.57,-36.25"/>
<polygon fill="black" stroke="black" points="1007.29,-39.3 1014.27,-31.33 1003.84,-33.21 1007.29,-39.3"/>
<text text-anchor="start" x="983.9" y="-60.2" font-family="mono" font-size="14.00" fill="#c83500">forms</text>
<text text-anchor="middle" x="1005.08" y="-33.78" font-family="Times,serif" font-size="14.00">1..*</text>
</g>
<!-- InteractionAffordance&#45;&gt;DataSchema -->
<g id="edge18" class="edge">
<title>InteractionAffordance&#45;&gt;DataSchema</title>
<path fill="none" stroke="black" d="M883.27,-91.54C858.07,-77.49 828.49,-63.06 799.9,-54 730.22,-31.92 646.34,-23.73 590.11,-20.72"/>
<polygon fill="black" stroke="black" points="590.57,-17.23 580.41,-20.24 590.23,-24.23 590.57,-17.23"/>
<text text-anchor="start" x="847.9" y="-60.2" font-family="mono" font-size="14.00" fill="#c83500">uriVariables</text>
<text text-anchor="middle" x="578.9" y="-6.86" font-family="Times,serif" font-size="14.00">0..*</text>
</g>
<!-- PropertyAffordance -->
<g id="node5" class="node">
<title>PropertyAffordance</title>
<polygon fill="#8ccbf2" stroke="none" points="822.15,-286.5 822.15,-312 979.65,-312 979.65,-286.5 822.15,-286.5"/>
<polygon fill="none" stroke="#8ccbf2" points="822.15,-286.5 822.15,-312 979.65,-312 979.65,-286.5 822.15,-286.5"/>
<text text-anchor="start" x="826.65" y="-296.7" font-family="mono" font-weight="bold" font-size="14.00" fill="#c83500">PropertyAffordance</text>
<polygon fill="#ddeeff" stroke="none" points="822.15,-261 822.15,-286.5 979.65,-286.5 979.65,-261 822.15,-261"/>
<polygon fill="none" stroke="#8ccbf2" points="822.15,-261 822.15,-286.5 979.65,-286.5 979.65,-261 822.15,-261"/>
<text text-anchor="start" x="825.15" y="-271.2" font-family="mono" font-size="14.00" fill="#c83500">observable</text>
<text text-anchor="start" x="907.65" y="-271.2" font-family="Times,serif" font-size="14.00"> : </text>
<text text-anchor="start" x="918.9" y="-271.2" font-family="mono" font-size="14.00" fill="#c83500">boolean</text>
</g>
<!-- PropertyAffordance&#45;&gt;InteractionAffordance -->
<g id="edge24" class="edge">
<title>PropertyAffordance&#45;&gt;InteractionAffordance</title>
<path fill="none" stroke="black" d="M909.93,-257.15C916.23,-237.34 924.84,-210.32 932.36,-186.71"/>
<polygon fill="white" stroke="black" points="935.67,-187.82 935.37,-177.23 929,-185.69 935.67,-187.82"/>
</g>
<!-- Thing -->
<g id="node6" class="node">
<title>Thing</title>
<polygon fill="#8ccbf2" stroke="none" points="984.27,-656 984.27,-681.5 1247.52,-681.5 1247.52,-656 984.27,-656"/>
<polygon fill="none" stroke="#8ccbf2" points="984.27,-656 984.27,-681.5 1247.52,-681.5 1247.52,-656 984.27,-656"/>
<text text-anchor="start" x="1095.27" y="-666.2" font-family="mono" font-weight="bold" font-size="14.00" fill="#c83500">Thing</text>
<polygon fill="#ddeeff" stroke="none" points="984.27,-630.5 984.27,-656 1247.52,-656 1247.52,-630.5 984.27,-630.5"/>
<polygon fill="none" stroke="#8ccbf2" points="984.27,-630.5 984.27,-656 1247.52,-656 1247.52,-630.5 984.27,-630.5"/>
<text text-anchor="start" x="987.27" y="-640.7" font-family="mono" font-size="14.00" fill="#c83500">@context</text>
<text text-anchor="start" x="1053.27" y="-640.7" font-family="Times,serif" font-size="14.00"> : </text>
<text text-anchor="start" x="1064.52" y="-640.7" font-family="mono" font-style="italic" font-size="14.00" fill="#c83500">anyURI</text>
<text text-anchor="start" x="1114.02" y="-640.7" font-family="Times,serif" font-style="italic" font-size="14.00"> or Array</text>
<text text-anchor="start" x="1164.27" y="-640.7" font-family="Times,serif" font-size="14.00"> </text>
<text text-anchor="start" x="1168.02" y="-640.7" font-family="Times,serif" font-style="italic" font-size="14.00">(mandatory)</text>
<polygon fill="#ddeeff" stroke="none" points="984.27,-605 984.27,-630.5 1247.52,-630.5 1247.52,-605 984.27,-605"/>
<polygon fill="none" stroke="#8ccbf2" points="984.27,-605 984.27,-630.5 1247.52,-630.5 1247.52,-605 984.27,-605"/>
<text text-anchor="start" x="987.27" y="-615.2" font-family="mono" font-size="14.00" fill="#c83500">@type</text>
<text text-anchor="start" x="1028.52" y="-615.2" font-family="Times,serif" font-size="14.00"> : </text>
<text text-anchor="start" x="1039.77" y="-615.2" font-family="Times,serif" font-style="italic" font-size="14.00">(Array of) </text>
<text text-anchor="start" x="1098.27" y="-615.2" font-family="mono" font-size="14.00" fill="#c83500">string</text>
<polygon fill="#ddeeff" stroke="none" points="984.27,-579.5 984.27,-605 1247.52,-605 1247.52,-579.5 984.27,-579.5"/>
<polygon fill="none" stroke="#8ccbf2" points="984.27,-579.5 984.27,-605 1247.52,-605 1247.52,-579.5 984.27,-579.5"/>
<text text-anchor="start" x="987.27" y="-589.7" font-family="mono" font-size="14.00" fill="#c83500">id</text>
<text text-anchor="start" x="1003.77" y="-589.7" font-family="Times,serif" font-size="14.00"> : </text>
<text text-anchor="start" x="1015.02" y="-589.7" font-family="mono" font-size="14.00" fill="#c83500">anyURI</text>
<text text-anchor="start" x="1064.52" y="-589.7" font-family="Times,serif" font-size="14.00"> </text>
<text text-anchor="start" x="1068.27" y="-589.7" font-family="Times,serif" font-style="italic" font-size="14.00">(mandatory)</text>
<polygon fill="#ddeeff" stroke="none" points="984.27,-554 984.27,-579.5 1247.52,-579.5 1247.52,-554 984.27,-554"/>
<polygon fill="none" stroke="#8ccbf2" points="984.27,-554 984.27,-579.5 1247.52,-579.5 1247.52,-554 984.27,-554"/>
<text text-anchor="start" x="987.27" y="-564.2" font-family="mono" font-size="14.00" fill="#c83500">security</text>
<text text-anchor="start" x="1053.27" y="-564.2" font-family="Times,serif" font-size="14.00"> : (Array of) </text>
<text text-anchor="start" x="1123.77" y="-564.2" font-family="mono" font-size="14.00" fill="#c83500">string</text>
<text text-anchor="start" x="1173.27" y="-564.2" font-family="Times,serif" font-size="14.00"> </text>
<text text-anchor="start" x="1177.02" y="-564.2" font-family="Times,serif" font-style="italic" font-size="14.00">(mandatory)</text>
<polygon fill="#ddeeff" stroke="none" points="984.27,-528.5 984.27,-554 1247.52,-554 1247.52,-528.5 984.27,-528.5"/>
<polygon fill="none" stroke="#8ccbf2" points="984.27,-528.5 984.27,-554 1247.52,-554 1247.52,-528.5 984.27,-528.5"/>
<text text-anchor="start" x="987.27" y="-538.7" font-family="mono" font-size="14.00" fill="#c83500">profile</text>
<text text-anchor="start" x="1045.02" y="-538.7" font-family="Times,serif" font-size="14.00"> : (Array of) </text>
<text text-anchor="start" x="1115.52" y="-538.7" font-family="mono" font-size="14.00" fill="#c83500">anyURI</text>
<polygon fill="#ddeeff" stroke="none" points="984.27,-503 984.27,-528.5 1247.52,-528.5 1247.52,-503 984.27,-503"/>
<polygon fill="none" stroke="#8ccbf2" points="984.27,-503 984.27,-528.5 1247.52,-528.5 1247.52,-503 984.27,-503"/>
<text text-anchor="start" x="987.27" y="-513.2" font-family="mono" font-size="14.00" fill="#c83500">description</text>
<text text-anchor="start" x="1078.02" y="-513.2" font-family="Times,serif" font-size="14.00"> : </text>
<text text-anchor="start" x="1089.27" y="-513.2" font-family="mono" font-size="14.00" fill="#c83500">langString</text>
<polygon fill="#ddeeff" stroke="none" points="984.27,-477.5 984.27,-503 1247.52,-503 1247.52,-477.5 984.27,-477.5"/>
<polygon fill="none" stroke="#8ccbf2" points="984.27,-477.5 984.27,-503 1247.52,-503 1247.52,-477.5 984.27,-477.5"/>
<text text-anchor="start" x="987.27" y="-487.7" font-family="mono" font-size="14.00" fill="#c83500">created</text>
<text text-anchor="start" x="1045.02" y="-487.7" font-family="Times,serif" font-size="14.00"> : </text>
<text text-anchor="start" x="1056.27" y="-487.7" font-family="mono" font-size="14.00" fill="#c83500">dateTime</text>
<polygon fill="#ddeeff" stroke="none" points="984.27,-452 984.27,-477.5 1247.52,-477.5 1247.52,-452 984.27,-452"/>
<polygon fill="none" stroke="#8ccbf2" points="984.27,-452 984.27,-477.5 1247.52,-477.5 1247.52,-452 984.27,-452"/>
<text text-anchor="start" x="987.27" y="-462.2" font-family="mono" font-size="14.00" fill="#c83500">modified</text>
<text text-anchor="start" x="1053.27" y="-462.2" font-family="Times,serif" font-size="14.00"> : </text>
<text text-anchor="start" x="1064.52" y="-462.2" font-family="mono" font-size="14.00" fill="#c83500">dateTime</text>
<polygon fill="#ddeeff" stroke="none" points="984.27,-426.5 984.27,-452 1247.52,-452 1247.52,-426.5 984.27,-426.5"/>
<polygon fill="none" stroke="#8ccbf2" points="984.27,-426.5 984.27,-452 1247.52,-452 1247.52,-426.5 984.27,-426.5"/>
<text text-anchor="start" x="987.27" y="-436.7" font-family="mono" font-size="14.00" fill="#c83500">support</text>
<text text-anchor="start" x="1045.02" y="-436.7" font-family="Times,serif" font-size="14.00"> : </text>
<text text-anchor="start" x="1056.27" y="-436.7" font-family="mono" font-size="14.00" fill="#c83500">anyURI</text>
<polygon fill="#ddeeff" stroke="none" points="984.27,-401 984.27,-426.5 1247.52,-426.5 1247.52,-401 984.27,-401"/>
<polygon fill="none" stroke="#8ccbf2" points="984.27,-401 984.27,-426.5 1247.52,-426.5 1247.52,-401 984.27,-401"/>
<text text-anchor="start" x="987.27" y="-411.2" font-family="mono" font-size="14.00" fill="#c83500">base</text>
<text text-anchor="start" x="1020.27" y="-411.2" font-family="Times,serif" font-size="14.00"> : </text>
<text text-anchor="start" x="1031.52" y="-411.2" font-family="mono" font-size="14.00" fill="#c83500">anyURI</text>
</g>
<!-- Thing&#45;&gt;ActionAffordance -->
<g id="edge20" class="edge">
<title>Thing&#45;&gt;ActionAffordance</title>
<path fill="none" stroke="black" d="M976.47,-454.5C919.16,-419.26 854.18,-379.3 802.15,-347.31"/>
<polygon fill="black" stroke="black" points="804.23,-344.48 793.88,-342.22 800.56,-350.44 804.23,-344.48"/>
<text text-anchor="start" x="849.9" y="-365.7" font-family="mono" font-size="14.00" fill="#c83500">actions</text>
<text text-anchor="middle" x="782.09" y="-344.63" font-family="Times,serif" font-size="14.00">0..*</text>
</g>
<!-- Thing&#45;&gt;EventAffordance -->
<g id="edge21" class="edge">
<title>Thing&#45;&gt;EventAffordance</title>
<path fill="none" stroke="black" d="M976.48,-521.82C851.42,-500.9 666.03,-458.77 522.4,-379 491.83,-362.02 463.3,-333.58 444.9,-312.9"/>
<polygon fill="black" stroke="black" points="447.61,-310.69 438.41,-305.44 442.33,-315.28 447.61,-310.69"/>
<text text-anchor="start" x="522.9" y="-365.7" font-family="mono" font-size="14.00" fill="#c83500">events</text>
<text text-anchor="middle" x="426.92" y="-307.49" font-family="Times,serif" font-size="14.00">0..*</text>
</g>
<!-- Thing&#45;&gt;MultiLanguage -->
<g id="edge13" class="edge">
<title>Thing&#45;&gt;MultiLanguage</title>
<path fill="none" stroke="black" d="M1255.36,-464C1295.89,-432.61 1332.81,-391.67 1345.9,-341.5 1374.65,-231.32 1343.7,-191.85 1289.9,-91.5 1281.24,-75.34 1269.72,-58.42 1259.92,-44.99"/>
<polygon fill="black" stroke="black" points="1262.84,-43.04 1254.06,-37.1 1257.22,-47.21 1262.84,-43.04"/>
<text text-anchor="start" x="1348.9" y="-200.2" font-family="mono" font-size="14.00" fill="#c83500">titles</text>
<text text-anchor="middle" x="1242.66" y="-39.09" font-family="Times,serif" font-size="14.00">0..*</text>
</g>
<!-- Thing&#45;&gt;MultiLanguage -->
<g id="edge15" class="edge">
<title>Thing&#45;&gt;MultiLanguage</title>
<path fill="none" stroke="black" d="M1255.33,-463.14C1289.46,-439.48 1323.67,-411.08 1349.9,-379 1377.82,-344.85 1394.03,-251.86 1398.9,-213.5 1408.55,-137.44 1329.98,-74.13 1279.79,-41.92"/>
<polygon fill="black" stroke="black" points="1281.79,-39.04 1271.45,-36.7 1278.07,-44.97 1281.79,-39.04"/>
<text text-anchor="start" x="1399.9" y="-200.2" font-family="mono" font-size="14.00" fill="#c83500">descriptions</text>
<text text-anchor="middle" x="1280.67" y="-39.1" font-family="Times,serif" font-size="14.00">0..*</text>
</g>
<!-- Thing&#45;&gt;PropertyAffordance -->
<g id="edge19" class="edge">
<title>Thing&#45;&gt;PropertyAffordance</title>
<path fill="none" stroke="black" d="M994.26,-397.26C971.36,-370.33 949.32,-344.43 932.42,-324.55"/>
<polygon fill="black" stroke="black" points="935.15,-322.37 926.01,-317.02 929.82,-326.9 935.15,-322.37"/>
<text text-anchor="start" x="976.9" y="-365.7" font-family="mono" font-size="14.00" fill="#c83500">properties</text>
<text text-anchor="middle" x="914.53" y="-319.06" font-family="Times,serif" font-size="14.00">0..*</text>
</g>
<!-- VersionInfo -->
<g id="node7" class="node">
<title>VersionInfo</title>
<polygon fill="#8ccbf2" stroke="none" points="1013.9,-299.25 1013.9,-324.75 1217.9,-324.75 1217.9,-299.25 1013.9,-299.25"/>
<polygon fill="none" stroke="#8ccbf2" points="1013.9,-299.25 1013.9,-324.75 1217.9,-324.75 1217.9,-299.25 1013.9,-299.25"/>
<text text-anchor="start" x="1070.52" y="-309.45" font-family="mono" font-weight="bold" font-size="14.00" fill="#c83500">VersionInfo</text>
<polygon fill="#ddeeff" stroke="none" points="1013.9,-273.75 1013.9,-299.25 1217.9,-299.25 1217.9,-273.75 1013.9,-273.75"/>
<polygon fill="none" stroke="#8ccbf2" points="1013.9,-273.75 1013.9,-299.25 1217.9,-299.25 1217.9,-273.75 1013.9,-273.75"/>
<text text-anchor="start" x="1016.9" y="-283.95" font-family="mono" font-size="14.00" fill="#c83500">instance</text>
<text text-anchor="start" x="1082.9" y="-283.95" font-family="Times,serif" font-size="14.00"> : </text>
<text text-anchor="start" x="1094.15" y="-283.95" font-family="mono" font-size="14.00" fill="#c83500">string</text>
<text text-anchor="start" x="1143.65" y="-283.95" font-family="Times,serif" font-size="14.00"> </text>
<text text-anchor="start" x="1147.4" y="-283.95" font-family="Times,serif" font-style="italic" font-size="14.00">(mandatory)</text>
<polygon fill="#ddeeff" stroke="none" points="1013.9,-248.25 1013.9,-273.75 1217.9,-273.75 1217.9,-248.25 1013.9,-248.25"/>
<polygon fill="none" stroke="#8ccbf2" points="1013.9,-248.25 1013.9,-273.75 1217.9,-273.75 1217.9,-248.25 1013.9,-248.25"/>
<text text-anchor="start" x="1016.9" y="-258.45" font-family="mono" font-size="14.00" fill="#c83500">model</text>
<text text-anchor="start" x="1058.15" y="-258.45" font-family="Times,serif" font-size="14.00"> : </text>
<text text-anchor="start" x="1069.4" y="-258.45" font-family="mono" font-size="14.00" fill="#c83500">string</text>
</g>
<!-- Thing&#45;&gt;VersionInfo -->
<g id="edge10" class="edge">
<title>Thing&#45;&gt;VersionInfo</title>
<path fill="none" stroke="black" d="M1115.9,-397.26C1115.9,-376.84 1115.9,-357.01 1115.9,-339.95"/>
<polygon fill="black" stroke="black" points="1119.4,-340.12 1115.9,-330.12 1112.4,-340.12 1119.4,-340.12"/>
<text text-anchor="start" x="1115.9" y="-365.7" font-family="mono" font-size="14.00" fill="#c83500">version</text>
<text text-anchor="middle" x="1105.4" y="-331.81" font-family="Times,serif" font-size="14.00">0..1</text>
</g>
<!-- Thing&#45;&gt;Form -->
<g id="edge3" class="edge">
<title>Thing&#45;&gt;Form</title>
<path fill="none" stroke="black" d="M1213.11,-397.15C1221.92,-379.03 1229.53,-360.25 1234.9,-341.5 1270.1,-218.65 1321.98,-151.95 1239.9,-54 1234.82,-47.94 1137.34,-32.8 1081.45,-24.56"/>
<polygon fill="black" stroke="black" points="1082.1,-21.12 1071.7,-23.13 1081.08,-28.04 1082.1,-21.12"/>
<text text-anchor="start" x="1280.9" y="-200.2" font-family="mono" font-size="14.00" fill="#c83500">forms</text>
<text text-anchor="middle" x="1080.7" y="-26.11" font-family="Times,serif" font-size="14.00">0..*</text>
</g>
<!-- Link -->
<g id="node9" class="node">
<title>Link</title>
<polygon fill="#f2f2f2" stroke="none" points="1290.4,-273.75 1290.4,-299.25 1329.4,-299.25 1329.4,-273.75 1290.4,-273.75"/>
<polygon fill="none" stroke="#8c8c8c" points="1290.4,-273.75 1290.4,-299.25 1329.4,-299.25 1329.4,-273.75 1290.4,-273.75"/>
<text text-anchor="start" x="1293.4" y="-283.95" font-family="mono" font-weight="bold" font-size="14.00">Link</text>
</g>
<!-- Thing&#45;&gt;Link -->
<g id="edge2" class="edge">
<title>Thing&#45;&gt;Link</title>
<path fill="none" stroke="black" d="M1255.01,-397.12C1259.5,-391.11 1263.81,-385.06 1267.9,-379 1281.47,-358.86 1292.69,-333.63 1300.1,-314.76"/>
<polygon fill="black" stroke="black" points="1303.29,-316.22 1303.58,-305.63 1296.75,-313.73 1303.29,-316.22"/>
<text text-anchor="start" x="1279.9" y="-365.7" font-family="mono" font-size="14.00" fill="#c83500">links</text>
<text text-anchor="middle" x="1293.62" y="-307.41" font-family="Times,serif" font-size="14.00">0..*</text>
</g>
<!-- Thing&#45;&gt;DataSchema -->
<g id="edge16" class="edge">
<title>Thing&#45;&gt;DataSchema</title>
<path fill="none" stroke="black" d="M976.36,-518.91C715.5,-475.67 171.41,-368.47 73.65,-213.5 21.56,-130.93 -119.2,-212.88 220.9,-54 262.6,-34.52 386.61,-25.41 463.36,-21.53"/>
<polygon fill="black" stroke="black" points="463.45,-25.03 473.27,-21.05 463.11,-18.04 463.45,-25.03"/>
<text text-anchor="start" x="73.9" y="-200.2" font-family="mono" font-size="14.00" fill="#c83500">schemaDefinitions</text>
<text text-anchor="middle" x="464.28" y="-24.18" font-family="Times,serif" font-size="14.00">0..*</text>
</g>
<!-- Thing&#45;&gt;DataSchema -->
<g id="edge17" class="edge">
<title>Thing&#45;&gt;DataSchema</title>
<path fill="none" stroke="black" d="M976.4,-526.98C856.75,-507.53 690.52,-459.61 604.9,-341.5 566.38,-288.36 565.56,-251.11 597.9,-194 605.56,-180.47 620.24,-189.53 627.9,-176 646.4,-143.32 645.04,-124.91 627.9,-91.5 616.86,-69.98 596.13,-53.41 576.31,-41.57"/>
<polygon fill="black" stroke="black" points="578.14,-38.59 567.71,-36.73 574.7,-44.69 578.14,-38.59"/>
<text text-anchor="start" x="597.9" y="-200.2" font-family="mono" font-size="14.00" fill="#c83500">uriVariables</text>
<text text-anchor="middle" x="555.89" y="-39.18" font-family="Times,serif" font-size="14.00">0..*</text>
</g>
<!-- SecurityScheme -->
<g id="node11" class="node">
<title>SecurityScheme</title>
<polygon fill="#f2f2f2" stroke="none" points="1457.15,-273.75 1457.15,-299.25 1578.65,-299.25 1578.65,-273.75 1457.15,-273.75"/>
<polygon fill="none" stroke="#8c8c8c" points="1457.15,-273.75 1457.15,-299.25 1578.65,-299.25 1578.65,-273.75 1457.15,-273.75"/>
<text text-anchor="start" x="1460.15" y="-283.95" font-family="mono" font-weight="bold" font-size="14.00">SecurityScheme</text>
</g>
<!-- Thing&#45;&gt;SecurityScheme -->
<g id="edge11" class="edge">
<title>Thing&#45;&gt;SecurityScheme</title>
<path fill="none" stroke="black" d="M1255.44,-483.28C1313.77,-456.12 1380.48,-420.46 1434.9,-379 1459.68,-360.12 1483.05,-333.22 1498.65,-313.46"/>
<polygon fill="black" stroke="black" points="1501.37,-315.66 1504.72,-305.61 1495.83,-311.38 1501.37,-315.66"/>
<text text-anchor="start" x="1454.9" y="-365.7" font-family="mono" font-size="14.00" fill="#c83500">securityDefinitions</text>
<text text-anchor="middle" x="1495.15" y="-307.61" font-family="Times,serif" font-size="14.00">1..*</text>
</g>
</g>
</svg>
