<?xml version="1.0" encoding="UTF-8" standalone="no"?>
<!DOCTYPE svg PUBLIC "-//W3C//DTD SVG 1.1//EN"
 "http://www.w3.org/Graphics/SVG/1.1/DTD/svg11.dtd">
<!-- Generated by graphviz version 2.40.1 (20161225.0304)
 -->
<!-- Title: %3 Pages: 1 -->
<svg width="1243pt" height="819pt"
 viewBox="0.00 0.00 1243.00 819.00" xmlns="http://www.w3.org/2000/svg" xmlns:xlink="http://www.w3.org/1999/xlink">
<g id="graph0" class="graph" transform="scale(1 1) rotate(0) translate(4 815)">
<title>%3</title>
<polygon fill="#ffffff" stroke="transparent" points="-4,4 -4,-815 1239,-815 1239,4 -4,4"/>
<!-- MultiLanguage -->
<g id="node1" class="node">
<title>MultiLanguage</title>
<polygon fill="#8ccbf2" stroke="transparent" points="8,-167.5 8,-188.5 122,-188.5 122,-167.5 8,-167.5"/>
<polygon fill="none" stroke="#8ccbf2" points="8,-167.5 8,-188.5 122,-188.5 122,-167.5 8,-167.5"/>
<text text-anchor="start" x="11" y="-175.3" font-family="mono" font-weight="bold" font-size="14.00" fill="#c83500">MultiLanguage</text>
</g>
<!-- Form -->
<g id="node2" class="node">
<title>Form</title>
<polygon fill="#8ccbf2" stroke="transparent" points="164,-230.5 164,-251.5 395,-251.5 395,-230.5 164,-230.5"/>
<polygon fill="none" stroke="#8ccbf2" points="164,-230.5 164,-251.5 395,-251.5 395,-230.5 164,-230.5"/>
<text text-anchor="start" x="262.5" y="-238.3" font-family="mono" font-weight="bold" font-size="14.00" fill="#c83500">Form</text>
<polygon fill="#ddeeff" stroke="transparent" points="164,-209.5 164,-230.5 395,-230.5 395,-209.5 164,-209.5"/>
<polygon fill="none" stroke="#8ccbf2" points="164,-209.5 164,-230.5 395,-230.5 395,-209.5 164,-209.5"/>
<text text-anchor="start" x="167" y="-217.3" font-family="mono" font-size="14.00" fill="#c83500">contentType</text>
<text text-anchor="start" x="258" y="-217.3" font-family="Times,serif" font-size="14.00" fill="#000000"> : </text>
<text text-anchor="start" x="270" y="-217.3" font-family="mono" font-size="14.00" fill="#c83500">string</text>
<text text-anchor="start" x="320" y="-217.3" font-family="Times,serif" font-size="14.00" fill="#000000"> </text>
<text text-anchor="start" x="324" y="-217.3" font-family="Times,serif" font-style="italic" font-size="14.00" fill="#000000">(mandatory)</text>
<polygon fill="#ddeeff" stroke="transparent" points="164,-188.5 164,-209.5 395,-209.5 395,-188.5 164,-188.5"/>
<polygon fill="none" stroke="#8ccbf2" points="164,-188.5 164,-209.5 395,-209.5 395,-188.5 164,-188.5"/>
<text text-anchor="start" x="167" y="-196.3" font-family="mono" font-size="14.00" fill="#c83500">subprotocol</text>
<text text-anchor="start" x="258" y="-196.3" font-family="Times,serif" font-size="14.00" fill="#000000"> : </text>
<text text-anchor="start" x="270" y="-196.3" font-family="mono" font-size="14.00" fill="#c83500">string</text>
<polygon fill="#ddeeff" stroke="transparent" points="164,-167.5 164,-188.5 395,-188.5 395,-167.5 164,-167.5"/>
<polygon fill="none" stroke="#8ccbf2" points="164,-167.5 164,-188.5 395,-188.5 395,-167.5 164,-167.5"/>
<text text-anchor="start" x="167" y="-175.3" font-family="mono" font-size="14.00" fill="#c83500">op</text>
<text text-anchor="start" x="184" y="-175.3" font-family="Times,serif" font-size="14.00" fill="#000000"> : </text>
<text text-anchor="start" x="196" y="-175.3" font-family="mono" font-size="14.00" fill="#c83500">string</text>
<text text-anchor="start" x="246" y="-175.3" font-family="Times,serif" font-size="14.00" fill="#000000"> </text>
<text text-anchor="start" x="250" y="-175.3" font-family="Times,serif" font-style="italic" font-size="14.00" fill="#000000">(mandatory)</text>
<polygon fill="#ddeeff" stroke="transparent" points="164,-146.5 164,-167.5 395,-167.5 395,-146.5 164,-146.5"/>
<polygon fill="none" stroke="#8ccbf2" points="164,-146.5 164,-167.5 395,-167.5 395,-146.5 164,-146.5"/>
<text text-anchor="start" x="167" y="-154.3" font-family="mono" font-size="14.00" fill="#c83500">scopes</text>
<text text-anchor="start" x="217" y="-154.3" font-family="Times,serif" font-size="14.00" fill="#000000"> : array of </text>
<text text-anchor="start" x="275" y="-154.3" font-family="mono" font-size="14.00" fill="#c83500">string</text>
<polygon fill="#ddeeff" stroke="transparent" points="164,-125.5 164,-146.5 395,-146.5 395,-125.5 164,-125.5"/>
<polygon fill="none" stroke="#8ccbf2" points="164,-125.5 164,-146.5 395,-146.5 395,-125.5 164,-125.5"/>
<text text-anchor="start" x="167" y="-133.3" font-family="mono" font-size="14.00" fill="#c83500">href</text>
<text text-anchor="start" x="201" y="-133.3" font-family="Times,serif" font-size="14.00" fill="#000000"> : </text>
<text text-anchor="start" x="213" y="-133.3" font-family="mono" font-size="14.00" fill="#c83500">anyURI</text>
<text text-anchor="start" x="263" y="-133.3" font-family="Times,serif" font-size="14.00" fill="#000000"> </text>
<text text-anchor="start" x="267" y="-133.3" font-family="Times,serif" font-style="italic" font-size="14.00" fill="#000000">(mandatory)</text>
<polygon fill="#ddeeff" stroke="transparent" points="164,-104.5 164,-125.5 395,-125.5 395,-104.5 164,-104.5"/>
<polygon fill="none" stroke="#8ccbf2" points="164,-104.5 164,-125.5 395,-125.5 395,-104.5 164,-104.5"/>
<text text-anchor="start" x="167" y="-112.3" font-family="mono" font-size="14.00" fill="#c83500">security</text>
<text text-anchor="start" x="234" y="-112.3" font-family="Times,serif" font-size="14.00" fill="#000000"> : array of </text>
<text text-anchor="start" x="292" y="-112.3" font-family="mono" font-size="14.00" fill="#c83500">string</text>
</g>
<!-- ExpectedResponse -->
<g id="node5" class="node">
<title>ExpectedResponse</title>
<polygon fill="#8ccbf2" stroke="transparent" points="164,-25 164,-46 395,-46 395,-25 164,-25"/>
<polygon fill="none" stroke="#8ccbf2" points="164,-25 164,-46 395,-46 395,-25 164,-25"/>
<text text-anchor="start" x="213" y="-32.8" font-family="mono" font-weight="bold" font-size="14.00" fill="#c83500">ExpectedResponse</text>
<polygon fill="#ddeeff" stroke="transparent" points="164,-4 164,-25 395,-25 395,-4 164,-4"/>
<polygon fill="none" stroke="#8ccbf2" points="164,-4 164,-25 395,-25 395,-4 164,-4"/>
<text text-anchor="start" x="167" y="-11.8" font-family="mono" font-size="14.00" fill="#c83500">contentType</text>
<text text-anchor="start" x="258" y="-11.8" font-family="Times,serif" font-size="14.00" fill="#000000"> : </text>
<text text-anchor="start" x="270" y="-11.8" font-family="mono" font-size="14.00" fill="#c83500">string</text>
<text text-anchor="start" x="320" y="-11.8" font-family="Times,serif" font-size="14.00" fill="#000000"> </text>
<text text-anchor="start" x="324" y="-11.8" font-family="Times,serif" font-style="italic" font-size="14.00" fill="#000000">(mandatory)</text>
</g>
<!-- Form&#45;&gt;ExpectedResponse -->
<g id="edge1" class="edge">
<title>Form&#45;&gt;ExpectedResponse</title>
<path fill="none" stroke="#000000" d="M279,-100.8506C279,-86.7022 279,-72.5946 279,-60.4513"/>
<polygon fill="#000000" stroke="#000000" points="282.5001,-60.3339 279,-50.334 275.5001,-60.334 282.5001,-60.3339"/>
<text text-anchor="start" x="279" y="-71.8" font-family="mono" font-size="14.00" fill="#c83500">response</text>
<text text-anchor="middle" x="268" y="-54.134" font-family="Times,serif" font-size="14.00" fill="#000000">0..1</text>
</g>
<!-- Thing -->
<g id="node3" class="node">
<title>Thing</title>
<polygon fill="#8ccbf2" stroke="transparent" points="483,-786 483,-807 736,-807 736,-786 483,-786"/>
<polygon fill="none" stroke="#8ccbf2" points="483,-786 483,-807 736,-807 736,-786 483,-786"/>
<text text-anchor="start" x="588.5" y="-793.8" font-family="mono" font-weight="bold" font-size="14.00" fill="#c83500">Thing</text>
<polygon fill="#ddeeff" stroke="transparent" points="483,-765 483,-786 736,-786 736,-765 483,-765"/>
<polygon fill="none" stroke="#8ccbf2" points="483,-765 483,-786 736,-786 736,-765 483,-765"/>
<text text-anchor="start" x="486" y="-772.8" font-family="mono" font-size="14.00" fill="#c83500">@context</text>
<text text-anchor="start" x="553" y="-772.8" font-family="Times,serif" font-size="14.00" fill="#000000"> : </text>
<text text-anchor="start" x="565" y="-772.8" font-family="Times,serif" font-style="italic" font-size="14.00" fill="#000000">array</text>
<text text-anchor="start" x="596" y="-772.8" font-family="Times,serif" font-size="14.00" fill="#000000"> </text>
<text text-anchor="start" x="600" y="-772.8" font-family="Times,serif" font-style="italic" font-size="14.00" fill="#000000">(mandatory)</text>
<polygon fill="#ddeeff" stroke="transparent" points="483,-744 483,-765 736,-765 736,-744 483,-744"/>
<polygon fill="none" stroke="#8ccbf2" points="483,-744 483,-765 736,-765 736,-744 483,-744"/>
<text text-anchor="start" x="486" y="-751.8" font-family="mono" font-size="14.00" fill="#c83500">@type</text>
<text text-anchor="start" x="528" y="-751.8" font-family="Times,serif" font-size="14.00" fill="#000000"> : </text>
<text text-anchor="start" x="540" y="-751.8" font-family="Times,serif" font-style="italic" font-size="14.00" fill="#000000">array of </text>
<text text-anchor="start" x="589" y="-751.8" font-family="mono" font-size="14.00" fill="#c83500">string</text>
<polygon fill="#ddeeff" stroke="transparent" points="483,-723 483,-744 736,-744 736,-723 483,-723"/>
<polygon fill="none" stroke="#8ccbf2" points="483,-723 483,-744 736,-744 736,-723 483,-723"/>
<text text-anchor="start" x="486" y="-730.8" font-family="mono" font-size="14.00" fill="#c83500">id</text>
<text text-anchor="start" x="503" y="-730.8" font-family="Times,serif" font-size="14.00" fill="#000000"> : </text>
<text text-anchor="start" x="515" y="-730.8" font-family="mono" font-size="14.00" fill="#c83500">anyURI</text>
<text text-anchor="start" x="565" y="-730.8" font-family="Times,serif" font-size="14.00" fill="#000000"> </text>
<text text-anchor="start" x="569" y="-730.8" font-family="Times,serif" font-style="italic" font-size="14.00" fill="#000000">(mandatory)</text>
<polygon fill="#ddeeff" stroke="transparent" points="483,-702 483,-723 736,-723 736,-702 483,-702"/>
<polygon fill="none" stroke="#8ccbf2" points="483,-702 483,-723 736,-723 736,-702 483,-702"/>
<text text-anchor="start" x="486" y="-709.8" font-family="mono" font-size="14.00" fill="#c83500">base</text>
<text text-anchor="start" x="520" y="-709.8" font-family="Times,serif" font-size="14.00" fill="#000000"> : </text>
<text text-anchor="start" x="532" y="-709.8" font-family="mono" font-size="14.00" fill="#c83500">anyURI</text>
<polygon fill="#ddeeff" stroke="transparent" points="483,-681 483,-702 736,-702 736,-681 483,-681"/>
<polygon fill="none" stroke="#8ccbf2" points="483,-681 483,-702 736,-702 736,-681 483,-681"/>
<text text-anchor="start" x="486" y="-688.8" font-family="mono" font-size="14.00" fill="#c83500">support</text>
<text text-anchor="start" x="544" y="-688.8" font-family="Times,serif" font-size="14.00" fill="#000000"> : </text>
<text text-anchor="start" x="556" y="-688.8" font-family="mono" font-size="14.00" fill="#c83500">string</text>
<polygon fill="#ddeeff" stroke="transparent" points="483,-660 483,-681 736,-681 736,-660 483,-660"/>
<polygon fill="none" stroke="#8ccbf2" points="483,-660 483,-681 736,-681 736,-660 483,-660"/>
<text text-anchor="start" x="486" y="-667.8" font-family="mono" font-size="14.00" fill="#c83500">names</text>
<text text-anchor="start" x="528" y="-667.8" font-family="Times,serif" font-size="14.00" fill="#000000"> : </text>
<text text-anchor="start" x="540" y="-667.8" font-family="mono" font-size="14.00" fill="#c83500">string</text>
<text text-anchor="start" x="590" y="-667.8" font-family="Times,serif" font-size="14.00" fill="#000000"> </text>
<text text-anchor="start" x="594" y="-667.8" font-family="Times,serif" font-style="italic" font-size="14.00" fill="#000000">(mandatory)</text>
<polygon fill="#ddeeff" stroke="transparent" points="483,-639 483,-660 736,-660 736,-639 483,-639"/>
<polygon fill="none" stroke="#8ccbf2" points="483,-639 483,-660 736,-660 736,-639 483,-639"/>
<text text-anchor="start" x="486" y="-646.8" font-family="mono" font-size="14.00" fill="#c83500">lastModified</text>
<text text-anchor="start" x="586" y="-646.8" font-family="Times,serif" font-size="14.00" fill="#000000"> : </text>
<text text-anchor="start" x="598" y="-646.8" font-family="mono" font-size="14.00" fill="#c83500">string</text>
<polygon fill="#ddeeff" stroke="transparent" points="483,-618 483,-639 736,-639 736,-618 483,-618"/>
<polygon fill="none" stroke="#8ccbf2" points="483,-618 483,-639 736,-639 736,-618 483,-618"/>
<text text-anchor="start" x="486" y="-625.8" font-family="mono" font-size="14.00" fill="#c83500">created</text>
<text text-anchor="start" x="544" y="-625.8" font-family="Times,serif" font-size="14.00" fill="#000000"> : </text>
<text text-anchor="start" x="556" y="-625.8" font-family="mono" font-size="14.00" fill="#c83500">string</text>
<polygon fill="#ddeeff" stroke="transparent" points="483,-597 483,-618 736,-618 736,-597 483,-597"/>
<polygon fill="none" stroke="#8ccbf2" points="483,-597 483,-618 736,-618 736,-597 483,-597"/>
<text text-anchor="start" x="486" y="-604.8" font-family="mono" font-size="14.00" fill="#c83500">security</text>
<text text-anchor="start" x="553" y="-604.8" font-family="Times,serif" font-size="14.00" fill="#000000"> : array of </text>
<text text-anchor="start" x="611" y="-604.8" font-family="mono" font-size="14.00" fill="#c83500">string</text>
<text text-anchor="start" x="661" y="-604.8" font-family="Times,serif" font-size="14.00" fill="#000000"> </text>
<text text-anchor="start" x="665" y="-604.8" font-family="Times,serif" font-style="italic" font-size="14.00" fill="#000000">(mandatory)</text>
<polygon fill="#ddeeff" stroke="transparent" points="483,-576 483,-597 736,-597 736,-576 483,-576"/>
<polygon fill="none" stroke="#8ccbf2" points="483,-576 483,-597 736,-597 736,-576 483,-576"/>
<text text-anchor="start" x="486" y="-583.8" font-family="mono" font-size="14.00" fill="#c83500">name</text>
<text text-anchor="start" x="520" y="-583.8" font-family="Times,serif" font-size="14.00" fill="#000000"> : </text>
<text text-anchor="start" x="532" y="-583.8" font-family="mono" font-size="14.00" fill="#c83500">string</text>
<text text-anchor="start" x="582" y="-583.8" font-family="Times,serif" font-size="14.00" fill="#000000"> </text>
<text text-anchor="start" x="586" y="-583.8" font-family="Times,serif" font-style="italic" font-size="14.00" fill="#000000">(mandatory)</text>
<polygon fill="#ddeeff" stroke="transparent" points="483,-555 483,-576 736,-576 736,-555 483,-555"/>
<polygon fill="none" stroke="#8ccbf2" points="483,-555 483,-576 736,-576 736,-555 483,-555"/>
<text text-anchor="start" x="486" y="-562.8" font-family="mono" font-size="14.00" fill="#c83500">description</text>
<text text-anchor="start" x="577" y="-562.8" font-family="Times,serif" font-size="14.00" fill="#000000"> : </text>
<text text-anchor="start" x="589" y="-562.8" font-family="mono" font-size="14.00" fill="#c83500">string</text>
</g>
<!-- Thing&#45;&gt;MultiLanguage -->
<g id="edge9" class="edge">
<title>Thing&#45;&gt;MultiLanguage</title>
<path fill="none" stroke="#000000" d="M474.3072,-652.3744C382.3239,-629.073 260.0207,-590.5157 163,-533 94.5615,-492.4284 63.7485,-483.9514 32,-411 1.8258,-341.6658 32.696,-250.757 51.9955,-205.9292"/>
<polygon fill="#000000" stroke="#000000" points="55.288,-207.1383 56.1444,-196.5781 48.8895,-204.2994 55.288,-207.1383"/>
<text text-anchor="start" x="32" y="-399.8" font-family="mono" font-size="14.00" fill="#c83500">descriptions</text>
<text text-anchor="middle" x="45.1444" y="-200.3781" font-family="Times,serif" font-size="14.00" fill="#000000">0..1</text>
</g>
<!-- Thing&#45;&gt;Form -->
<g id="edge8" class="edge">
<title>Thing&#45;&gt;Form</title>
<path fill="none" stroke="#000000" d="M474.2914,-646.1225C352.6571,-611.583 187.0773,-555.9015 149,-500 128.8113,-470.3608 130.1993,-329.117 159,-274 160.736,-270.6778 162.6439,-267.4322 164.6996,-264.2649"/>
<polygon fill="#000000" stroke="#000000" points="167.5776,-266.2568 170.4699,-256.0644 161.8528,-262.2285 167.5776,-266.2568"/>
<text text-anchor="start" x="136" y="-399.8" font-family="mono" font-size="14.00" fill="#c83500">forms</text>
<text text-anchor="middle" x="159.4699" y="-259.8644" font-family="Times,serif" font-size="14.00" fill="#000000">0..*</text>
</g>
<!-- PropertyAffordance -->
<g id="node4" class="node">
<title>PropertyAffordance</title>
<polygon fill="#8ccbf2" stroke="transparent" points="167,-464.5 167,-485.5 326,-485.5 326,-464.5 167,-464.5"/>
<polygon fill="none" stroke="#8ccbf2" points="167,-464.5 167,-485.5 326,-485.5 326,-464.5 167,-464.5"/>
<text text-anchor="start" x="172" y="-472.3" font-family="mono" font-weight="bold" font-size="14.00" fill="#c83500">PropertyAffordance</text>
<polygon fill="#ddeeff" stroke="transparent" points="167,-443.5 167,-464.5 326,-464.5 326,-443.5 167,-443.5"/>
<polygon fill="none" stroke="#8ccbf2" points="167,-443.5 167,-464.5 326,-464.5 326,-443.5 167,-443.5"/>
<text text-anchor="start" x="170" y="-451.3" font-family="mono" font-size="14.00" fill="#c83500">observable</text>
<text text-anchor="start" x="253" y="-451.3" font-family="Times,serif" font-size="14.00" fill="#000000"> : </text>
<text text-anchor="start" x="265" y="-451.3" font-family="mono" font-size="14.00" fill="#c83500">boolean</text>
</g>
<!-- Thing&#45;&gt;PropertyAffordance -->
<g id="edge6" class="edge">
<title>Thing&#45;&gt;PropertyAffordance</title>
<path fill="none" stroke="#000000" d="M474.348,-600.6911C412.493,-563.7995 342.8455,-522.2605 296.9126,-494.8652"/>
<polygon fill="#000000" stroke="#000000" points="298.4329,-491.6967 288.0515,-489.5803 294.8472,-497.7087 298.4329,-491.6967"/>
<text text-anchor="start" x="354" y="-521.8" font-family="mono" font-size="14.00" fill="#c83500">properties</text>
<text text-anchor="middle" x="277.0515" y="-493.3803" font-family="Times,serif" font-size="14.00" fill="#000000">0..1</text>
</g>
<!-- VersionInfo -->
<g id="node6" class="node">
<title>VersionInfo</title>
<polygon fill="#8ccbf2" stroke="transparent" points="790,-464.5 790,-485.5 997,-485.5 997,-464.5 790,-464.5"/>
<polygon fill="none" stroke="#8ccbf2" points="790,-464.5 790,-485.5 997,-485.5 997,-464.5 790,-464.5"/>
<text text-anchor="start" x="848" y="-472.3" font-family="mono" font-weight="bold" font-size="14.00" fill="#c83500">VersionInfo</text>
<polygon fill="#ddeeff" stroke="transparent" points="790,-443.5 790,-464.5 997,-464.5 997,-443.5 790,-443.5"/>
<polygon fill="none" stroke="#8ccbf2" points="790,-443.5 790,-464.5 997,-464.5 997,-443.5 790,-443.5"/>
<text text-anchor="start" x="793" y="-451.3" font-family="mono" font-size="14.00" fill="#c83500">instance</text>
<text text-anchor="start" x="860" y="-451.3" font-family="Times,serif" font-size="14.00" fill="#000000"> : </text>
<text text-anchor="start" x="872" y="-451.3" font-family="mono" font-size="14.00" fill="#c83500">string</text>
<text text-anchor="start" x="922" y="-451.3" font-family="Times,serif" font-size="14.00" fill="#000000"> </text>
<text text-anchor="start" x="926" y="-451.3" font-family="Times,serif" font-style="italic" font-size="14.00" fill="#000000">(mandatory)</text>
</g>
<!-- Thing&#45;&gt;VersionInfo -->
<g id="edge2" class="edge">
<title>Thing&#45;&gt;VersionInfo</title>
<path fill="none" stroke="#000000" d="M743.5148,-578.4561C782.9224,-548.4148 823.1009,-517.7858 851.865,-495.8582"/>
<polygon fill="#000000" stroke="#000000" points="854.2069,-498.474 860.0377,-489.628 849.9631,-492.9071 854.2069,-498.474"/>
<text text-anchor="start" x="817" y="-521.8" font-family="mono" font-size="14.00" fill="#c83500">version</text>
<text text-anchor="middle" x="849.0377" y="-493.428" font-family="Times,serif" font-size="14.00" fill="#000000">0..1</text>
</g>
<!-- ActionAffordance -->
<g id="node7" class="node">
<title>ActionAffordance</title>
<polygon fill="#8ccbf2" stroke="transparent" points="360,-474.5 360,-495.5 591,-495.5 591,-474.5 360,-474.5"/>
<polygon fill="none" stroke="#8ccbf2" points="360,-474.5 360,-495.5 591,-495.5 591,-474.5 360,-474.5"/>
<text text-anchor="start" x="409" y="-482.3" font-family="mono" font-weight="bold" font-size="14.00" fill="#c83500">ActionAffordance</text>
<polygon fill="#ddeeff" stroke="transparent" points="360,-453.5 360,-474.5 591,-474.5 591,-453.5 360,-453.5"/>
<polygon fill="none" stroke="#8ccbf2" points="360,-453.5 360,-474.5 591,-474.5 591,-453.5 360,-453.5"/>
<text text-anchor="start" x="363" y="-461.3" font-family="mono" font-size="14.00" fill="#c83500">safe</text>
<text text-anchor="start" x="397" y="-461.3" font-family="Times,serif" font-size="14.00" fill="#000000"> : </text>
<text text-anchor="start" x="409" y="-461.3" font-family="mono" font-size="14.00" fill="#c83500">boolean</text>
<text text-anchor="start" x="467" y="-461.3" font-family="Times,serif" font-size="14.00" fill="#000000"> </text>
<text text-anchor="start" x="471" y="-461.3" font-family="Times,serif" font-style="italic" font-size="14.00" fill="#000000">(mandatory)</text>
<polygon fill="#ddeeff" stroke="transparent" points="360,-432.5 360,-453.5 591,-453.5 591,-432.5 360,-432.5"/>
<polygon fill="none" stroke="#8ccbf2" points="360,-432.5 360,-453.5 591,-453.5 591,-432.5 360,-432.5"/>
<text text-anchor="start" x="363" y="-440.3" font-family="mono" font-size="14.00" fill="#c83500">idempotent</text>
<text text-anchor="start" x="446" y="-440.3" font-family="Times,serif" font-size="14.00" fill="#000000"> : </text>
<text text-anchor="start" x="458" y="-440.3" font-family="mono" font-size="14.00" fill="#c83500">boolean</text>
<text text-anchor="start" x="516" y="-440.3" font-family="Times,serif" font-size="14.00" fill="#000000"> </text>
<text text-anchor="start" x="520" y="-440.3" font-family="Times,serif" font-style="italic" font-size="14.00" fill="#000000">(mandatory)</text>
</g>
<!-- Thing&#45;&gt;ActionAffordance -->
<g id="edge3" class="edge">
<title>Thing&#45;&gt;ActionAffordance</title>
<path fill="none" stroke="#000000" d="M528.538,-550.9999C519.2347,-535.9688 510.2925,-521.5212 502.4696,-508.8819"/>
<polygon fill="#000000" stroke="#000000" points="505.221,-506.6768 496.982,-500.0157 499.2688,-510.3608 505.221,-506.6768"/>
<text text-anchor="start" x="515" y="-521.8" font-family="mono" font-size="14.00" fill="#c83500">actions</text>
<text text-anchor="middle" x="485.982" y="-503.8157" font-family="Times,serif" font-size="14.00" fill="#000000">0..1</text>
</g>
<!-- EventAffordance -->
<g id="node9" class="node">
<title>EventAffordance</title>
<polygon fill="#8ccbf2" stroke="transparent" points="625,-453.5 625,-474.5 755,-474.5 755,-453.5 625,-453.5"/>
<polygon fill="none" stroke="#8ccbf2" points="625,-453.5 625,-474.5 755,-474.5 755,-453.5 625,-453.5"/>
<text text-anchor="start" x="628" y="-461.3" font-family="mono" font-weight="bold" font-size="14.00" fill="#c83500">EventAffordance</text>
</g>
<!-- Thing&#45;&gt;EventAffordance -->
<g id="edge4" class="edge">
<title>Thing&#45;&gt;EventAffordance</title>
<path fill="none" stroke="#000000" d="M657.6374,-550.9999C665.9611,-528.7521 673.8065,-507.7827 679.6877,-492.0631"/>
<polygon fill="#000000" stroke="#000000" points="683.0281,-493.123 683.2542,-482.5306 676.4719,-490.6701 683.0281,-493.123"/>
<text text-anchor="start" x="669" y="-521.8" font-family="mono" font-size="14.00" fill="#c83500">events</text>
<text text-anchor="middle" x="672.2542" y="-486.3306" font-family="Times,serif" font-size="14.00" fill="#000000">0..1</text>
</g>
<!-- Link -->
<g id="node10" class="node">
<title>Link</title>
<polygon fill="#f2f2f2" stroke="transparent" points="1031,-453.5 1031,-474.5 1071,-474.5 1071,-453.5 1031,-453.5"/>
<polygon fill="none" stroke="#8c8c8c" points="1031,-453.5 1031,-474.5 1071,-474.5 1071,-453.5 1031,-453.5"/>
<text text-anchor="start" x="1034" y="-461.3" font-family="mono" font-weight="bold" font-size="14.00" fill="#000000">Link</text>
</g>
<!-- Thing&#45;&gt;Link -->
<g id="edge5" class="edge">
<title>Thing&#45;&gt;Link</title>
<path fill="none" stroke="#000000" d="M743.9132,-633.5249C825.3085,-601.7961 929.1327,-555.7057 1013,-500 1017.6063,-496.9405 1022.1836,-493.3128 1026.4823,-489.564"/>
<polygon fill="#000000" stroke="#000000" points="1028.8684,-492.1246 1033.8648,-482.7819 1024.1327,-486.9697 1028.8684,-492.1246"/>
<text text-anchor="start" x="983" y="-521.8" font-family="mono" font-size="14.00" fill="#c83500">links</text>
<text text-anchor="middle" x="1022.8648" y="-486.5819" font-family="Times,serif" font-size="14.00" fill="#000000">0..*</text>
</g>
<!-- SecurityScheme -->
<g id="node11" class="node">
<title>SecurityScheme</title>
<polygon fill="#f2f2f2" stroke="transparent" points="1105,-453.5 1105,-474.5 1227,-474.5 1227,-453.5 1105,-453.5"/>
<polygon fill="none" stroke="#8c8c8c" points="1105,-453.5 1105,-474.5 1227,-474.5 1227,-453.5 1105,-453.5"/>
<text text-anchor="start" x="1108" y="-461.3" font-family="mono" font-weight="bold" font-size="14.00" fill="#000000">SecurityScheme</text>
</g>
<!-- Thing&#45;&gt;SecurityScheme -->
<g id="edge7" class="edge">
<title>Thing&#45;&gt;SecurityScheme</title>
<path fill="none" stroke="#000000" d="M743.508,-638.3633C826.736,-610.8141 935.2313,-572.7798 1029,-533 1061.4096,-519.2508 1096.9379,-501.4024 1123.6914,-487.3718"/>
<polygon fill="#000000" stroke="#000000" points="1125.5586,-490.344 1132.769,-482.5812 1122.2914,-484.1532 1125.5586,-490.344"/>
<text text-anchor="start" x="1060" y="-521.8" font-family="mono" font-size="14.00" fill="#c83500">securityDefinitions</text>
<text text-anchor="middle" x="1121.769" y="-486.3812" font-family="Times,serif" font-size="14.00" fill="#000000">1..1</text>
</g>
<!-- InteractionAffordance -->
<g id="node8" class="node">
<title>InteractionAffordance</title>
<polygon fill="#8ccbf2" stroke="transparent" points="196,-352.5 196,-373.5 376,-373.5 376,-352.5 196,-352.5"/>
<polygon fill="none" stroke="#8ccbf2" points="196,-352.5 196,-373.5 376,-373.5 376,-352.5 196,-352.5"/>
<text text-anchor="start" x="199" y="-360.3" font-family="mono" font-weight="bold" font-size="14.00" fill="#c83500">InteractionAffordance</text>
<polygon fill="#ddeeff" stroke="transparent" points="196,-331.5 196,-352.5 376,-352.5 376,-331.5 196,-331.5"/>
<polygon fill="none" stroke="#8ccbf2" points="196,-331.5 196,-352.5 376,-352.5 376,-331.5 196,-331.5"/>
<text text-anchor="start" x="199" y="-339.3" font-family="mono" font-size="14.00" fill="#c83500">title</text>
<text text-anchor="start" x="241" y="-339.3" font-family="Times,serif" font-size="14.00" fill="#000000"> : </text>
<text text-anchor="start" x="253" y="-339.3" font-family="mono" font-size="14.00" fill="#c83500">string</text>
<polygon fill="#ddeeff" stroke="transparent" points="196,-310.5 196,-331.5 376,-331.5 376,-310.5 196,-310.5"/>
<polygon fill="none" stroke="#8ccbf2" points="196,-310.5 196,-331.5 376,-331.5 376,-310.5 196,-310.5"/>
<text text-anchor="start" x="199" y="-318.3" font-family="mono" font-size="14.00" fill="#c83500">description</text>
<text text-anchor="start" x="290" y="-318.3" font-family="Times,serif" font-size="14.00" fill="#000000"> : </text>
<text text-anchor="start" x="302" y="-318.3" font-family="mono" font-size="14.00" fill="#c83500">string</text>
</g>
<!-- PropertyAffordance&#45;&gt;InteractionAffordance -->
<g id="edge21" class="edge">
<title>PropertyAffordance&#45;&gt;InteractionAffordance</title>
<path fill="none" stroke="#000000" d="M254.288,-439.2215C259.1085,-424.519 265.3306,-405.5417 270.9849,-388.296"/>
<polygon fill="#ffffff" stroke="#000000" points="274.4438,-388.9804 274.2336,-378.3876 267.7922,-386.7995 274.4438,-388.9804"/>
</g>
<!-- ActionAffordance&#45;&gt;InteractionAffordance -->
<g id="edge20" class="edge">
<title>ActionAffordance&#45;&gt;InteractionAffordance</title>
<path fill="none" stroke="#000000" d="M419.8253,-428.8846C397.8939,-414.7278 372.5231,-398.3509 349.8068,-383.6875"/>
<polygon fill="#ffffff" stroke="#000000" points="351.5431,-380.6424 341.2433,-378.1597 347.7468,-386.5236 351.5431,-380.6424"/>
</g>
<!-- DataSchema -->
<g id="node12" class="node">
<title>DataSchema</title>
<polygon fill="#f2f2f2" stroke="transparent" points="547,-167.5 547,-188.5 636,-188.5 636,-167.5 547,-167.5"/>
<polygon fill="none" stroke="#8c8c8c" points="547,-167.5 547,-188.5 636,-188.5 636,-167.5 547,-167.5"/>
<text text-anchor="start" x="550" y="-175.3" font-family="mono" font-weight="bold" font-size="14.00" fill="#000000">DataSchema</text>
</g>
<!-- ActionAffordance&#45;&gt;DataSchema -->
<g id="edge10" class="edge">
<title>ActionAffordance&#45;&gt;DataSchema</title>
<path fill="none" stroke="#000000" d="M494.9588,-428.8449C503.2097,-413.4428 512.5638,-395.0715 520,-378 546.0782,-318.1314 570.1493,-245.2968 582.4436,-206.3121"/>
<polygon fill="#000000" stroke="#000000" points="585.8036,-207.2941 585.4504,-196.7052 579.1232,-205.2032 585.8036,-207.2941"/>
<text text-anchor="start" x="548" y="-338.8" font-family="mono" font-size="14.00" fill="#c83500">input</text>
<text text-anchor="middle" x="574.4504" y="-200.5052" font-family="Times,serif" font-size="14.00" fill="#000000">0..1</text>
</g>
<!-- ActionAffordance&#45;&gt;DataSchema -->
<g id="edge11" class="edge">
<title>ActionAffordance&#45;&gt;DataSchema</title>
<path fill="none" stroke="#000000" d="M464.5182,-428.9817C456.7377,-396.0926 449.9739,-346.4586 466,-307 483.9309,-262.8513 525.1247,-225.5479 555.3422,-202.6932"/>
<polygon fill="#000000" stroke="#000000" points="557.5796,-205.3919 563.5455,-196.6365 553.4217,-199.7605 557.5796,-205.3919"/>
<text text-anchor="start" x="466" y="-338.8" font-family="mono" font-size="14.00" fill="#c83500">output</text>
<text text-anchor="middle" x="552.5455" y="-200.4365" font-family="Times,serif" font-size="14.00" fill="#000000">0..1</text>
</g>
<!-- InteractionAffordance&#45;&gt;MultiLanguage -->
<g id="edge13" class="edge">
<title>InteractionAffordance&#45;&gt;MultiLanguage</title>
<path fill="none" stroke="#000000" d="M187.7729,-325.2106C146.672,-316.0713 105.1614,-303.6906 91,-289 70.0304,-267.2468 64.8522,-231.9173 64.072,-207.0745"/>
<polygon fill="#000000" stroke="#000000" points="67.5696,-206.7799 63.9777,-196.8126 60.5699,-206.8443 67.5696,-206.7799"/>
<text text-anchor="start" x="91" y="-277.8" font-family="mono" font-size="14.00" fill="#c83500">titles</text>
<text text-anchor="middle" x="74.9777" y="-200.6126" font-family="Times,serif" font-size="14.00" fill="#000000">0..1</text>
</g>
<!-- InteractionAffordance&#45;&gt;MultiLanguage -->
<g id="edge14" class="edge">
<title>InteractionAffordance&#45;&gt;MultiLanguage</title>
<path fill="none" stroke="#000000" d="M208.5652,-306.8448C198.6812,-301.3103 188.9145,-295.3162 180,-289 144.6821,-263.9761 109.6147,-228.3086 87.662,-204.3281"/>
<polygon fill="#000000" stroke="#000000" points="90.0431,-201.743 80.7385,-196.6759 84.8524,-206.4395 90.0431,-201.743"/>
<text text-anchor="start" x="180" y="-277.8" font-family="mono" font-size="14.00" fill="#c83500">descriptions</text>
<text text-anchor="middle" x="91.7385" y="-200.4759" font-family="Times,serif" font-size="14.00" fill="#000000">0..1</text>
</g>
<!-- InteractionAffordance&#45;&gt;Form -->
<g id="edge15" class="edge">
<title>InteractionAffordance&#45;&gt;Form</title>
<path fill="none" stroke="#000000" d="M284.4811,-306.9144C283.9616,-294.7441 283.3554,-280.5399 282.7392,-266.103"/>
<polygon fill="#000000" stroke="#000000" points="286.2353,-265.9348 282.3119,-256.0932 279.2416,-266.2334 286.2353,-265.9348"/>
<text text-anchor="start" x="284" y="-277.8" font-family="mono" font-size="14.00" fill="#c83500">forms</text>
<text text-anchor="middle" x="271.3119" y="-259.8932" font-family="Times,serif" font-size="14.00" fill="#000000">1..*</text>
</g>
<!-- InteractionAffordance&#45;&gt;DataSchema -->
<g id="edge12" class="edge">
<title>InteractionAffordance&#45;&gt;DataSchema</title>
<path fill="none" stroke="#000000" d="M313.9719,-306.8077C324.7711,-294.9731 337.9216,-282.6325 352,-274 375.3716,-259.6692 385.2593,-265.4352 411,-256 456.5997,-239.2855 507.3112,-217.1152 543.2564,-200.77"/>
<polygon fill="#000000" stroke="#000000" points="544.8835,-203.8747 552.5248,-196.5358 541.9746,-197.5077 544.8835,-203.8747"/>
<text text-anchor="start" x="352" y="-277.8" font-family="mono" font-size="14.00" fill="#c83500">uriVariables</text>
<text text-anchor="middle" x="541.5248" y="-200.3358" font-family="Times,serif" font-size="14.00" fill="#000000">0..1</text>
</g>
<!-- EventAffordance&#45;&gt;InteractionAffordance -->
<g id="edge19" class="edge">
<title>EventAffordance&#45;&gt;InteractionAffordance</title>
<path fill="none" stroke="#000000" d="M650.7608,-446.3728C637.0762,-440.412 621.5118,-434.0306 607,-429 537.1184,-404.7752 456.766,-383.1287 393.9353,-367.5492"/>
<polygon fill="#ffffff" stroke="#000000" points="394.5532,-364.0968 384.0061,-365.1014 392.8776,-370.8933 394.5532,-364.0968"/>
</g>
<!-- EventAffordance&#45;&gt;DataSchema -->
<g id="edge16" class="edge">
<title>EventAffordance&#45;&gt;DataSchema</title>
<path fill="none" stroke="#000000" d="M678.6695,-446.1905C668.4674,-429.0732 653.6369,-402.5392 644,-378 620.7208,-318.7227 604.2219,-245.6093 596.3075,-206.4328"/>
<polygon fill="#000000" stroke="#000000" points="599.7261,-205.6785 594.3485,-196.5499 592.8597,-207.0396 599.7261,-205.6785"/>
<text text-anchor="start" x="644" y="-338.8" font-family="mono" font-size="14.00" fill="#c83500">cancellation</text>
<text text-anchor="middle" x="605.3485" y="-200.3499" font-family="Times,serif" font-size="14.00" fill="#000000">0..1</text>
</g>
<!-- EventAffordance&#45;&gt;DataSchema -->
<g id="edge17" class="edge">
<title>EventAffordance&#45;&gt;DataSchema</title>
<path fill="none" stroke="#000000" d="M705.5673,-446.4052C718.7083,-429.8501 736.5396,-404.0386 744,-378 752.6914,-347.665 757.3295,-335.6021 744,-307 721.9145,-259.6096 672.7973,-223.4784 636.1357,-201.7764"/>
<polygon fill="#000000" stroke="#000000" points="637.519,-198.5339 627.1074,-196.5717 634.0229,-204.5983 637.519,-198.5339"/>
<text text-anchor="start" x="753" y="-338.8" font-family="mono" font-size="14.00" fill="#c83500">subscription</text>
<text text-anchor="middle" x="638.1074" y="-200.3717" font-family="Times,serif" font-size="14.00" fill="#000000">0..1</text>
</g>
<!-- EventAffordance&#45;&gt;DataSchema -->
<g id="edge18" class="edge">
<title>EventAffordance&#45;&gt;DataSchema</title>
<path fill="none" stroke="#000000" d="M730.1955,-446.358C777.2487,-424.7167 849.7253,-389.9607 857,-378 873.3978,-351.0396 873.7722,-333.7291 857,-307 812.6237,-236.2796 717.1225,-203.5399 653.4618,-189.0743"/>
<polygon fill="#000000" stroke="#000000" points="654.0471,-185.6197 643.5307,-186.9065 652.5542,-192.4587 654.0471,-185.6197"/>
<text text-anchor="start" x="870" y="-338.8" font-family="mono" font-size="14.00" fill="#c83500">data</text>
<text text-anchor="middle" x="654.5307" y="-175.7065" font-family="Times,serif" font-size="14.00" fill="#000000">0..1</text>
</g>
</g>
</svg>
