<?xml version="1.0" encoding="UTF-8" standalone="no"?>
<!DOCTYPE svg PUBLIC "-//W3C//DTD SVG 1.1//EN"
 "http://www.w3.org/Graphics/SVG/1.1/DTD/svg11.dtd">
<!-- Generated by graphviz version 2.38.0 (20140413.2041)
 -->
<!-- Title: %3 Pages: 1 -->
<svg width="1260pt" height="819pt"
 viewBox="0.00 0.00 1260.27 819.00" xmlns="http://www.w3.org/2000/svg" xmlns:xlink="http://www.w3.org/1999/xlink">
<g id="graph0" class="graph" transform="scale(1 1) rotate(0) translate(4 815)">
<title>%3</title>
<polygon fill="white" stroke="none" points="-4,4 -4,-815 1256.27,-815 1256.27,4 -4,4"/>
<!-- MultiLanguage -->
<g id="node1" class="node"><title>MultiLanguage</title>
<polygon fill="#8ccbf2" stroke="none" points="114.265,-167.5 114.265,-188.5 228.265,-188.5 228.265,-167.5 114.265,-167.5"/>
<polygon fill="none" stroke="#8ccbf2" points="114.265,-167.5 114.265,-188.5 228.265,-188.5 228.265,-167.5 114.265,-167.5"/>
<text text-anchor="start" x="117.265" y="-175.3" font-family="mono" font-weight="bold" font-size="14.00" fill="#c83500">MultiLanguage</text>
</g>
<!-- InteractionPattern -->
<g id="node2" class="node"><title>InteractionPattern</title>
<polygon fill="#8ccbf2" stroke="none" points="318.265,-394.5 318.265,-415.5 499.265,-415.5 499.265,-394.5 318.265,-394.5"/>
<polygon fill="none" stroke="#8ccbf2" points="318.265,-394.5 318.265,-415.5 499.265,-415.5 499.265,-394.5 318.265,-394.5"/>
<text text-anchor="start" x="334.265" y="-402.3" font-family="mono" font-weight="bold" font-size="14.00" fill="#c83500">InteractionPattern</text>
<polygon fill="#ddeeff" stroke="none" points="318.265,-373.5 318.265,-394.5 499.265,-394.5 499.265,-373.5 318.265,-373.5"/>
<polygon fill="none" stroke="#8ccbf2" points="318.265,-373.5 318.265,-394.5 499.265,-394.5 499.265,-373.5 318.265,-373.5"/>
<text text-anchor="start" x="321.265" y="-381.3" font-family="mono" font-size="14.00" fill="#c83500">title</text>
<text text-anchor="start" x="363.265" y="-381.3" font-family="Times,serif" font-size="14.00"> : </text>
<text text-anchor="start" x="375.265" y="-381.3" font-family="mono" font-size="14.00" fill="#c83500">string</text>
<polygon fill="#ddeeff" stroke="none" points="318.265,-352.5 318.265,-373.5 499.265,-373.5 499.265,-352.5 318.265,-352.5"/>
<polygon fill="none" stroke="#8ccbf2" points="318.265,-352.5 318.265,-373.5 499.265,-373.5 499.265,-352.5 318.265,-352.5"/>
<text text-anchor="start" x="321.265" y="-360.3" font-family="mono" font-size="14.00" fill="#c83500">scopes</text>
<text text-anchor="start" x="371.265" y="-360.3" font-family="Times,serif" font-size="14.00"> : array of </text>
<text text-anchor="start" x="429.265" y="-360.3" font-family="mono" font-size="14.00" fill="#c83500">string</text>
<polygon fill="#ddeeff" stroke="none" points="318.265,-331.5 318.265,-352.5 499.265,-352.5 499.265,-331.5 318.265,-331.5"/>
<polygon fill="none" stroke="#8ccbf2" points="318.265,-331.5 318.265,-352.5 499.265,-352.5 499.265,-331.5 318.265,-331.5"/>
<text text-anchor="start" x="321.265" y="-339.3" font-family="mono" font-size="14.00" fill="#c83500">security</text>
<text text-anchor="start" x="388.265" y="-339.3" font-family="Times,serif" font-size="14.00"> : array of </text>
<text text-anchor="start" x="446.265" y="-339.3" font-family="mono" font-size="14.00" fill="#c83500">string</text>
<polygon fill="#ddeeff" stroke="none" points="318.265,-310.5 318.265,-331.5 499.265,-331.5 499.265,-310.5 318.265,-310.5"/>
<polygon fill="none" stroke="#8ccbf2" points="318.265,-310.5 318.265,-331.5 499.265,-331.5 499.265,-310.5 318.265,-310.5"/>
<text text-anchor="start" x="321.265" y="-318.3" font-family="mono" font-size="14.00" fill="#c83500">description</text>
<text text-anchor="start" x="412.265" y="-318.3" font-family="Times,serif" font-size="14.00"> : </text>
<text text-anchor="start" x="424.265" y="-318.3" font-family="mono" font-size="14.00" fill="#c83500">string</text>
</g>
<!-- InteractionPattern&#45;&gt;MultiLanguage -->
<g id="edge2" class="edge"><title>InteractionPattern&#45;&gt;MultiLanguage</title>
<path fill="none" stroke="black" d="M349.217,-306.971C334.343,-294.926 317.863,-283.09 301.265,-274 278.336,-261.443 267.464,-269.809 245.265,-256 223.754,-242.618 204.059,-221.628 190.405,-205.017"/>
<polygon fill="black" stroke="black" points="192.813,-202.424 183.838,-196.794 187.343,-206.792 192.813,-202.424"/>
<text text-anchor="start" x="324.265" y="-277.8" font-family="mono" font-size="14.00" fill="#c83500">titles</text>
<text text-anchor="middle" x="172.838" y="-200.594" font-family="Times,serif" font-size="14.00">0..1</text>
</g>
<!-- InteractionPattern&#45;&gt;MultiLanguage -->
<g id="edge3" class="edge"><title>InteractionPattern&#45;&gt;MultiLanguage</title>
<path fill="none" stroke="black" d="M309.641,-349.232C269.62,-339.023 226.119,-320.96 197.265,-289 176.963,-266.512 171.716,-231.095 170.735,-206.661"/>
<polygon fill="black" stroke="black" points="174.234,-206.544 170.545,-196.612 167.235,-206.677 174.234,-206.544"/>
<text text-anchor="start" x="197.265" y="-277.8" font-family="mono" font-size="14.00" fill="#c83500">descriptions</text>
<text text-anchor="middle" x="159.545" y="-200.412" font-family="Times,serif" font-size="14.00">0..1</text>
</g>
<!-- Form -->
<g id="node4" class="node"><title>Form</title>
<polygon fill="#8ccbf2" stroke="none" points="263.265,-230.5 263.265,-251.5 596.265,-251.5 596.265,-230.5 263.265,-230.5"/>
<polygon fill="none" stroke="#8ccbf2" points="263.265,-230.5 263.265,-251.5 596.265,-251.5 596.265,-230.5 263.265,-230.5"/>
<text text-anchor="start" x="412.765" y="-238.3" font-family="mono" font-weight="bold" font-size="14.00" fill="#c83500">Form</text>
<polygon fill="#ddeeff" stroke="none" points="263.265,-209.5 263.265,-230.5 596.265,-230.5 596.265,-209.5 263.265,-209.5"/>
<polygon fill="none" stroke="#8ccbf2" points="263.265,-209.5 263.265,-230.5 596.265,-230.5 596.265,-209.5 263.265,-209.5"/>
<text text-anchor="start" x="266.265" y="-217.3" font-family="mono" font-size="14.00" fill="#c83500">op</text>
<text text-anchor="start" x="283.265" y="-217.3" font-family="Times,serif" font-size="14.00"> : </text>
<text text-anchor="start" x="295.265" y="-217.3" font-family="mono" font-size="14.00" fill="#c83500">string</text>
<polygon fill="#ddeeff" stroke="none" points="263.265,-188.5 263.265,-209.5 596.265,-209.5 596.265,-188.5 263.265,-188.5"/>
<polygon fill="none" stroke="#8ccbf2" points="263.265,-188.5 263.265,-209.5 596.265,-209.5 596.265,-188.5 263.265,-188.5"/>
<text text-anchor="start" x="266.265" y="-196.3" font-family="mono" font-size="14.00" fill="#c83500">scopes</text>
<text text-anchor="start" x="316.265" y="-196.3" font-family="Times,serif" font-size="14.00"> : array of </text>
<text text-anchor="start" x="374.265" y="-196.3" font-family="mono" font-size="14.00" fill="#c83500">string</text>
<polygon fill="#ddeeff" stroke="none" points="263.265,-167.5 263.265,-188.5 596.265,-188.5 596.265,-167.5 263.265,-167.5"/>
<polygon fill="none" stroke="#8ccbf2" points="263.265,-167.5 263.265,-188.5 596.265,-188.5 596.265,-167.5 263.265,-167.5"/>
<text text-anchor="start" x="266.265" y="-175.3" font-family="mono" font-size="14.00" fill="#c83500">contentType</text>
<text text-anchor="start" x="357.265" y="-175.3" font-family="Times,serif" font-size="14.00"> : </text>
<text text-anchor="start" x="369.265" y="-175.3" font-family="mono" font-size="14.00" fill="#c83500">string</text>
<text text-anchor="start" x="419.265" y="-175.3" font-family="Times,serif" font-size="14.00"> = application/json </text>
<text text-anchor="start" x="525.265" y="-175.3" font-family="Times,serif" font-style="italic" font-size="14.00">(mandatory)</text>
<polygon fill="#ddeeff" stroke="none" points="263.265,-146.5 263.265,-167.5 596.265,-167.5 596.265,-146.5 263.265,-146.5"/>
<polygon fill="none" stroke="#8ccbf2" points="263.265,-146.5 263.265,-167.5 596.265,-167.5 596.265,-146.5 263.265,-146.5"/>
<text text-anchor="start" x="266.265" y="-154.3" font-family="mono" font-size="14.00" fill="#c83500">href</text>
<text text-anchor="start" x="300.265" y="-154.3" font-family="Times,serif" font-size="14.00"> : </text>
<text text-anchor="start" x="312.265" y="-154.3" font-family="mono" font-size="14.00" fill="#c83500">anyURI</text>
<text text-anchor="start" x="362.265" y="-154.3" font-family="Times,serif" font-size="14.00"> </text>
<text text-anchor="start" x="366.265" y="-154.3" font-family="Times,serif" font-style="italic" font-size="14.00">(mandatory)</text>
<polygon fill="#ddeeff" stroke="none" points="263.265,-125.5 263.265,-146.5 596.265,-146.5 596.265,-125.5 263.265,-125.5"/>
<polygon fill="none" stroke="#8ccbf2" points="263.265,-125.5 263.265,-146.5 596.265,-146.5 596.265,-125.5 263.265,-125.5"/>
<text text-anchor="start" x="266.265" y="-133.3" font-family="mono" font-size="14.00" fill="#c83500">security</text>
<text text-anchor="start" x="333.265" y="-133.3" font-family="Times,serif" font-size="14.00"> : array of </text>
<text text-anchor="start" x="391.265" y="-133.3" font-family="mono" font-size="14.00" fill="#c83500">string</text>
<polygon fill="#ddeeff" stroke="none" points="263.265,-104.5 263.265,-125.5 596.265,-125.5 596.265,-104.5 263.265,-104.5"/>
<polygon fill="none" stroke="#8ccbf2" points="263.265,-104.5 263.265,-125.5 596.265,-125.5 596.265,-104.5 263.265,-104.5"/>
<text text-anchor="start" x="266.265" y="-112.3" font-family="mono" font-size="14.00" fill="#c83500">subprotocol</text>
<text text-anchor="start" x="357.265" y="-112.3" font-family="Times,serif" font-size="14.00"> : </text>
<text text-anchor="start" x="369.265" y="-112.3" font-family="mono" font-size="14.00" fill="#c83500">string</text>
</g>
<!-- InteractionPattern&#45;&gt;Form -->
<g id="edge1" class="edge"><title>InteractionPattern&#45;&gt;Form</title>
<path fill="none" stroke="black" d="M407.225,-306.691C407.493,-295.825 408.102,-284.538 409.265,-274 409.547,-271.448 409.867,-268.863 410.218,-266.258"/>
<polygon fill="black" stroke="black" points="413.714,-266.547 411.724,-256.14 406.79,-265.516 413.714,-266.547"/>
<text text-anchor="start" x="409.265" y="-277.8" font-family="mono" font-size="14.00" fill="#c83500">forms</text>
<text text-anchor="middle" x="400.724" y="-259.94" font-family="Times,serif" font-size="14.00">1..*</text>
</g>
<!-- DataSchema -->
<g id="node11" class="node"><title>DataSchema</title>
<polygon fill="#f2f2f2" stroke="none" points="650.265,-167.5 650.265,-188.5 739.265,-188.5 739.265,-167.5 650.265,-167.5"/>
<polygon fill="none" stroke="#8c8c8c" points="650.265,-167.5 650.265,-188.5 739.265,-188.5 739.265,-167.5 650.265,-167.5"/>
<text text-anchor="start" x="653.265" y="-175.3" font-family="mono" font-weight="bold" font-size="14.00">DataSchema</text>
</g>
<!-- InteractionPattern&#45;&gt;DataSchema -->
<g id="edge4" class="edge"><title>InteractionPattern&#45;&gt;DataSchema</title>
<path fill="none" stroke="black" d="M439.144,-306.892C448.775,-294.17 460.538,-282.04 474.265,-274 527.637,-242.739 556.309,-282.357 612.265,-256 637.089,-244.307 659.433,-222.303 674.505,-204.884"/>
<polygon fill="black" stroke="black" points="677.564,-206.682 681.298,-196.767 672.196,-202.189 677.564,-206.682"/>
<text text-anchor="start" x="474.265" y="-277.8" font-family="mono" font-size="14.00" fill="#c83500">uriVariables</text>
<text text-anchor="middle" x="692.298" y="-200.567" font-family="Times,serif" font-size="14.00">0..1</text>
</g>
<!-- Link -->
<g id="node3" class="node"><title>Link</title>
<polygon fill="#8ccbf2" stroke="none" points="48.2653,-558.5 48.2653,-579.5 222.265,-579.5 222.265,-558.5 48.2653,-558.5"/>
<polygon fill="none" stroke="#8ccbf2" points="48.2653,-558.5 48.2653,-579.5 222.265,-579.5 222.265,-558.5 48.2653,-558.5"/>
<text text-anchor="start" x="118.265" y="-566.3" font-family="mono" font-weight="bold" font-size="14.00" fill="#c83500">Link</text>
<polygon fill="#ddeeff" stroke="none" points="48.2653,-537.5 48.2653,-558.5 222.265,-558.5 222.265,-537.5 48.2653,-537.5"/>
<polygon fill="none" stroke="#8ccbf2" points="48.2653,-537.5 48.2653,-558.5 222.265,-558.5 222.265,-537.5 48.2653,-537.5"/>
<text text-anchor="start" x="51.2653" y="-545.3" font-family="mono" font-size="14.00" fill="#c83500">anchor</text>
<text text-anchor="start" x="101.265" y="-545.3" font-family="Times,serif" font-size="14.00"> : </text>
<text text-anchor="start" x="113.265" y="-545.3" font-family="mono" font-size="14.00" fill="#c83500">anyURI</text>
<polygon fill="#ddeeff" stroke="none" points="48.2653,-516.5 48.2653,-537.5 222.265,-537.5 222.265,-516.5 48.2653,-516.5"/>
<polygon fill="none" stroke="#8ccbf2" points="48.2653,-516.5 48.2653,-537.5 222.265,-537.5 222.265,-516.5 48.2653,-516.5"/>
<text text-anchor="start" x="51.2653" y="-524.3" font-family="mono" font-size="14.00" fill="#c83500">href</text>
<text text-anchor="start" x="85.2653" y="-524.3" font-family="Times,serif" font-size="14.00"> : </text>
<text text-anchor="start" x="97.2653" y="-524.3" font-family="mono" font-size="14.00" fill="#c83500">anyURI</text>
<text text-anchor="start" x="147.265" y="-524.3" font-family="Times,serif" font-size="14.00"> </text>
<text text-anchor="start" x="151.265" y="-524.3" font-family="Times,serif" font-style="italic" font-size="14.00">(mandatory)</text>
<polygon fill="#ddeeff" stroke="none" points="48.2653,-495.5 48.2653,-516.5 222.265,-516.5 222.265,-495.5 48.2653,-495.5"/>
<polygon fill="none" stroke="#8ccbf2" points="48.2653,-495.5 48.2653,-516.5 222.265,-516.5 222.265,-495.5 48.2653,-495.5"/>
<text text-anchor="start" x="51.2653" y="-503.3" font-family="mono" font-size="14.00" fill="#c83500">rel</text>
<text text-anchor="start" x="76.2653" y="-503.3" font-family="Times,serif" font-size="14.00"> : </text>
<text text-anchor="start" x="88.2653" y="-503.3" font-family="mono" font-size="14.00" fill="#c83500">string</text>
<polygon fill="#ddeeff" stroke="none" points="48.2653,-474.5 48.2653,-495.5 222.265,-495.5 222.265,-474.5 48.2653,-474.5"/>
<polygon fill="none" stroke="#8ccbf2" points="48.2653,-474.5 48.2653,-495.5 222.265,-495.5 222.265,-474.5 48.2653,-474.5"/>
<text text-anchor="start" x="51.2653" y="-482.3" font-family="mono" font-size="14.00" fill="#c83500">type</text>
<text text-anchor="start" x="85.2653" y="-482.3" font-family="Times,serif" font-size="14.00"> : </text>
<text text-anchor="start" x="97.2653" y="-482.3" font-family="mono" font-size="14.00" fill="#c83500">string</text>
</g>
<!-- ExpectedResponse -->
<g id="node7" class="node"><title>ExpectedResponse</title>
<polygon fill="#8ccbf2" stroke="none" points="350.265,-25 350.265,-46 509.265,-46 509.265,-25 350.265,-25"/>
<polygon fill="none" stroke="#8ccbf2" points="350.265,-25 350.265,-46 509.265,-46 509.265,-25 350.265,-25"/>
<text text-anchor="start" x="363.265" y="-32.8" font-family="mono" font-weight="bold" font-size="14.00" fill="#c83500">ExpectedResponse</text>
<polygon fill="#ddeeff" stroke="none" points="350.265,-4 350.265,-25 509.265,-25 509.265,-4 350.265,-4"/>
<polygon fill="none" stroke="#8ccbf2" points="350.265,-4 350.265,-25 509.265,-25 509.265,-4 350.265,-4"/>
<text text-anchor="start" x="353.265" y="-11.8" font-family="mono" font-size="14.00" fill="#c83500">contentType</text>
<text text-anchor="start" x="444.265" y="-11.8" font-family="Times,serif" font-size="14.00"> : </text>
<text text-anchor="start" x="456.265" y="-11.8" font-family="mono" font-size="14.00" fill="#c83500">string</text>
</g>
<!-- Form&#45;&gt;ExpectedResponse -->
<g id="edge5" class="edge"><title>Form&#45;&gt;ExpectedResponse</title>
<path fill="none" stroke="black" d="M429.265,-100.862C429.265,-86.5577 429.265,-72.2953 429.265,-60.116"/>
<polygon fill="black" stroke="black" points="432.765,-60.0004 429.265,-50.0004 425.765,-60.0004 432.765,-60.0004"/>
<text text-anchor="start" x="429.265" y="-71.8" font-family="mono" font-size="14.00" fill="#c83500">response</text>
<text text-anchor="middle" x="418.265" y="-53.8004" font-family="Times,serif" font-size="14.00">0..1</text>
</g>
<!-- Thing -->
<g id="node5" class="node"><title>Thing</title>
<polygon fill="#8ccbf2" stroke="none" points="502.265,-786 502.265,-807 755.265,-807 755.265,-786 502.265,-786"/>
<polygon fill="none" stroke="#8ccbf2" points="502.265,-786 502.265,-807 755.265,-807 755.265,-786 502.265,-786"/>
<text text-anchor="start" x="607.765" y="-793.8" font-family="mono" font-weight="bold" font-size="14.00" fill="#c83500">Thing</text>
<polygon fill="#ddeeff" stroke="none" points="502.265,-765 502.265,-786 755.265,-786 755.265,-765 502.265,-765"/>
<polygon fill="none" stroke="#8ccbf2" points="502.265,-765 502.265,-786 755.265,-786 755.265,-765 502.265,-765"/>
<text text-anchor="start" x="505.265" y="-772.8" font-family="mono" font-size="14.00" fill="#c83500">security</text>
<text text-anchor="start" x="572.265" y="-772.8" font-family="Times,serif" font-size="14.00"> : array of </text>
<text text-anchor="start" x="630.265" y="-772.8" font-family="mono" font-size="14.00" fill="#c83500">string</text>
<text text-anchor="start" x="680.265" y="-772.8" font-family="Times,serif" font-size="14.00"> </text>
<text text-anchor="start" x="684.265" y="-772.8" font-family="Times,serif" font-style="italic" font-size="14.00">(mandatory)</text>
<polygon fill="#ddeeff" stroke="none" points="502.265,-744 502.265,-765 755.265,-765 755.265,-744 502.265,-744"/>
<polygon fill="none" stroke="#8ccbf2" points="502.265,-744 502.265,-765 755.265,-765 755.265,-744 502.265,-744"/>
<text text-anchor="start" x="505.265" y="-751.8" font-family="mono" font-size="14.00" fill="#c83500">name</text>
<text text-anchor="start" x="539.265" y="-751.8" font-family="Times,serif" font-size="14.00"> : </text>
<text text-anchor="start" x="551.265" y="-751.8" font-family="mono" font-size="14.00" fill="#c83500">string</text>
<text text-anchor="start" x="601.265" y="-751.8" font-family="Times,serif" font-size="14.00"> </text>
<text text-anchor="start" x="605.265" y="-751.8" font-family="Times,serif" font-style="italic" font-size="14.00">(mandatory)</text>
<polygon fill="#ddeeff" stroke="none" points="502.265,-723 502.265,-744 755.265,-744 755.265,-723 502.265,-723"/>
<polygon fill="none" stroke="#8ccbf2" points="502.265,-723 502.265,-744 755.265,-744 755.265,-723 502.265,-723"/>
<text text-anchor="start" x="505.265" y="-730.8" font-family="mono" font-size="14.00" fill="#c83500">description</text>
<text text-anchor="start" x="596.265" y="-730.8" font-family="Times,serif" font-size="14.00"> : </text>
<text text-anchor="start" x="608.265" y="-730.8" font-family="mono" font-size="14.00" fill="#c83500">string</text>
<polygon fill="#ddeeff" stroke="none" points="502.265,-702 502.265,-723 755.265,-723 755.265,-702 502.265,-702"/>
<polygon fill="none" stroke="#8ccbf2" points="502.265,-702 502.265,-723 755.265,-723 755.265,-702 502.265,-702"/>
<text text-anchor="start" x="505.265" y="-709.8" font-family="mono" font-size="14.00" fill="#c83500">support</text>
<text text-anchor="start" x="563.265" y="-709.8" font-family="Times,serif" font-size="14.00"> : </text>
<text text-anchor="start" x="575.265" y="-709.8" font-family="mono" font-size="14.00" fill="#c83500">string</text>
<polygon fill="#ddeeff" stroke="none" points="502.265,-681 502.265,-702 755.265,-702 755.265,-681 502.265,-681"/>
<polygon fill="none" stroke="#8ccbf2" points="502.265,-681 502.265,-702 755.265,-702 755.265,-681 502.265,-681"/>
<text text-anchor="start" x="505.265" y="-688.8" font-family="mono" font-size="14.00" fill="#c83500">lastModified</text>
<text text-anchor="start" x="605.265" y="-688.8" font-family="Times,serif" font-size="14.00"> : </text>
<text text-anchor="start" x="617.265" y="-688.8" font-family="mono" font-size="14.00" fill="#c83500">string</text>
<polygon fill="#ddeeff" stroke="none" points="502.265,-660 502.265,-681 755.265,-681 755.265,-660 502.265,-660"/>
<polygon fill="none" stroke="#8ccbf2" points="502.265,-660 502.265,-681 755.265,-681 755.265,-660 502.265,-660"/>
<text text-anchor="start" x="505.265" y="-667.8" font-family="mono" font-size="14.00" fill="#c83500">created</text>
<text text-anchor="start" x="563.265" y="-667.8" font-family="Times,serif" font-size="14.00"> : </text>
<text text-anchor="start" x="575.265" y="-667.8" font-family="mono" font-size="14.00" fill="#c83500">string</text>
<polygon fill="#ddeeff" stroke="none" points="502.265,-639 502.265,-660 755.265,-660 755.265,-639 502.265,-639"/>
<polygon fill="none" stroke="#8ccbf2" points="502.265,-639 502.265,-660 755.265,-660 755.265,-639 502.265,-639"/>
<text text-anchor="start" x="505.265" y="-646.8" font-family="mono" font-size="14.00" fill="#c83500">base</text>
<text text-anchor="start" x="539.265" y="-646.8" font-family="Times,serif" font-size="14.00"> : </text>
<text text-anchor="start" x="551.265" y="-646.8" font-family="mono" font-size="14.00" fill="#c83500">anyURI</text>
</g>
<!-- Thing&#45;&gt;MultiLanguage -->
<g id="edge6" class="edge"><title>Thing&#45;&gt;MultiLanguage</title>
<path fill="none" stroke="black" d="M493.592,-710.044C335.591,-692.902 87.9171,-655.241 31.2653,-584 -64.7384,-463.273 86.9693,-272.404 147.815,-204.497"/>
<polygon fill="black" stroke="black" points="150.636,-206.597 154.762,-196.839 145.451,-201.894 150.636,-206.597"/>
<text text-anchor="start" x="7.26532" y="-441.8" font-family="mono" font-size="14.00" fill="#c83500">descriptions</text>
<text text-anchor="middle" x="143.762" y="-200.639" font-family="Times,serif" font-size="14.00">0..1</text>
</g>
<!-- Thing&#45;&gt;Link -->
<g id="edge8" class="edge"><title>Thing&#45;&gt;Link</title>
<path fill="none" stroke="black" d="M493.563,-679.731C420.366,-655.444 328.556,-622.84 239.885,-584.154"/>
<polygon fill="black" stroke="black" points="241.047,-580.841 230.484,-580.024 238.231,-587.25 241.047,-580.841"/>
<text text-anchor="start" x="312.265" y="-605.8" font-family="mono" font-size="14.00" fill="#c83500">links</text>
<text text-anchor="middle" x="241.484" y="-583.824" font-family="Times,serif" font-size="14.00">0..*</text>
</g>
<!-- Property -->
<g id="node6" class="node"><title>Property</title>
<polygon fill="#8ccbf2" stroke="none" points="257.265,-527.5 257.265,-548.5 458.265,-548.5 458.265,-527.5 257.265,-527.5"/>
<polygon fill="none" stroke="#8ccbf2" points="257.265,-527.5 257.265,-548.5 458.265,-548.5 458.265,-527.5 257.265,-527.5"/>
<text text-anchor="start" x="324.265" y="-535.3" font-family="mono" font-weight="bold" font-size="14.00" fill="#c83500">Property</text>
<polygon fill="#ddeeff" stroke="none" points="257.265,-506.5 257.265,-527.5 458.265,-527.5 458.265,-506.5 257.265,-506.5"/>
<polygon fill="none" stroke="#8ccbf2" points="257.265,-506.5 257.265,-527.5 458.265,-527.5 458.265,-506.5 257.265,-506.5"/>
<text text-anchor="start" x="260.265" y="-514.3" font-family="mono" font-size="14.00" fill="#c83500">observable</text>
<text text-anchor="start" x="343.265" y="-514.3" font-family="Times,serif" font-size="14.00"> : </text>
<text text-anchor="start" x="355.265" y="-514.3" font-family="mono" font-size="14.00" fill="#c83500">boolean</text>
<text text-anchor="start" x="413.265" y="-514.3" font-family="Times,serif" font-size="14.00"> = false</text>
</g>
<!-- Thing&#45;&gt;Property -->
<g id="edge7" class="edge"><title>Thing&#45;&gt;Property</title>
<path fill="none" stroke="black" d="M506.243,-634.873C467.882,-607.483 428.067,-579.054 399.259,-558.484"/>
<polygon fill="black" stroke="black" points="401.233,-555.593 391.061,-552.631 397.166,-561.29 401.233,-555.593"/>
<text text-anchor="start" x="477.265" y="-605.8" font-family="mono" font-size="14.00" fill="#c83500">properties</text>
<text text-anchor="middle" x="380.061" y="-556.431" font-family="Times,serif" font-size="14.00">0..1</text>
</g>
<!-- Action -->
<g id="node8" class="node"><title>Action</title>
<polygon fill="#8ccbf2" stroke="none" points="492.265,-537.5 492.265,-558.5 765.265,-558.5 765.265,-537.5 492.265,-537.5"/>
<polygon fill="none" stroke="#8ccbf2" points="492.265,-537.5 492.265,-558.5 765.265,-558.5 765.265,-537.5 492.265,-537.5"/>
<text text-anchor="start" x="603.765" y="-545.3" font-family="mono" font-weight="bold" font-size="14.00" fill="#c83500">Action</text>
<polygon fill="#ddeeff" stroke="none" points="492.265,-516.5 492.265,-537.5 765.265,-537.5 765.265,-516.5 492.265,-516.5"/>
<polygon fill="none" stroke="#8ccbf2" points="492.265,-516.5 492.265,-537.5 765.265,-537.5 765.265,-516.5 492.265,-516.5"/>
<text text-anchor="start" x="495.265" y="-524.3" font-family="mono" font-size="14.00" fill="#c83500">idempotent</text>
<text text-anchor="start" x="578.265" y="-524.3" font-family="Times,serif" font-size="14.00"> : </text>
<text text-anchor="start" x="590.265" y="-524.3" font-family="mono" font-size="14.00" fill="#c83500">boolean</text>
<text text-anchor="start" x="648.265" y="-524.3" font-family="Times,serif" font-size="14.00"> = false </text>
<text text-anchor="start" x="694.265" y="-524.3" font-family="Times,serif" font-style="italic" font-size="14.00">(mandatory)</text>
<polygon fill="#ddeeff" stroke="none" points="492.265,-495.5 492.265,-516.5 765.265,-516.5 765.265,-495.5 492.265,-495.5"/>
<polygon fill="none" stroke="#8ccbf2" points="492.265,-495.5 492.265,-516.5 765.265,-516.5 765.265,-495.5 492.265,-495.5"/>
<text text-anchor="start" x="495.265" y="-503.3" font-family="mono" font-size="14.00" fill="#c83500">safe</text>
<text text-anchor="start" x="529.265" y="-503.3" font-family="Times,serif" font-size="14.00"> : </text>
<text text-anchor="start" x="541.265" y="-503.3" font-family="mono" font-size="14.00" fill="#c83500">boolean</text>
<text text-anchor="start" x="599.265" y="-503.3" font-family="Times,serif" font-size="14.00"> = false </text>
<text text-anchor="start" x="645.265" y="-503.3" font-family="Times,serif" font-style="italic" font-size="14.00">(mandatory)</text>
</g>
<!-- Thing&#45;&gt;Action -->
<g id="edge10" class="edge"><title>Thing&#45;&gt;Action</title>
<path fill="none" stroke="black" d="M628.265,-634.873C628.265,-613.643 628.265,-591.788 628.265,-573.453"/>
<polygon fill="black" stroke="black" points="631.765,-573.377 628.265,-563.377 624.765,-573.377 631.765,-573.377"/>
<text text-anchor="start" x="628.265" y="-605.8" font-family="mono" font-size="14.00" fill="#c83500">actions</text>
<text text-anchor="middle" x="617.265" y="-567.177" font-family="Times,serif" font-size="14.00">0..1</text>
</g>
<!-- Event -->
<g id="node9" class="node"><title>Event</title>
<polygon fill="#8ccbf2" stroke="none" points="798.265,-516.5 798.265,-537.5 846.265,-537.5 846.265,-516.5 798.265,-516.5"/>
<polygon fill="none" stroke="#8ccbf2" points="798.265,-516.5 798.265,-537.5 846.265,-537.5 846.265,-516.5 798.265,-516.5"/>
<text text-anchor="start" x="801.265" y="-524.3" font-family="mono" font-weight="bold" font-size="14.00" fill="#c83500">Event</text>
</g>
<!-- Thing&#45;&gt;Event -->
<g id="edge9" class="edge"><title>Thing&#45;&gt;Event</title>
<path fill="none" stroke="black" d="M730.6,-634.935C748.095,-618.598 765.646,-601.224 781.265,-584 789.645,-574.76 797.99,-563.855 804.944,-554.168"/>
<polygon fill="black" stroke="black" points="808.011,-555.89 810.899,-545.696 802.285,-551.864 808.011,-555.89"/>
<text text-anchor="start" x="762.265" y="-605.8" font-family="mono" font-size="14.00" fill="#c83500">events</text>
<text text-anchor="middle" x="799.899" y="-549.496" font-family="Times,serif" font-size="14.00">0..1</text>
</g>
<!-- Versioning -->
<g id="node10" class="node"><title>Versioning</title>
<polygon fill="#8ccbf2" stroke="none" points="881.265,-527.5 881.265,-548.5 1088.27,-548.5 1088.27,-527.5 881.265,-527.5"/>
<polygon fill="none" stroke="#8ccbf2" points="881.265,-527.5 881.265,-548.5 1088.27,-548.5 1088.27,-527.5 881.265,-527.5"/>
<text text-anchor="start" x="943.265" y="-535.3" font-family="mono" font-weight="bold" font-size="14.00" fill="#c83500">Versioning</text>
<polygon fill="#ddeeff" stroke="none" points="881.265,-506.5 881.265,-527.5 1088.27,-527.5 1088.27,-506.5 881.265,-506.5"/>
<polygon fill="none" stroke="#8ccbf2" points="881.265,-506.5 881.265,-527.5 1088.27,-527.5 1088.27,-506.5 881.265,-506.5"/>
<text text-anchor="start" x="884.265" y="-514.3" font-family="mono" font-size="14.00" fill="#c83500">instance</text>
<text text-anchor="start" x="951.265" y="-514.3" font-family="Times,serif" font-size="14.00"> : </text>
<text text-anchor="start" x="963.265" y="-514.3" font-family="mono" font-size="14.00" fill="#c83500">string</text>
<text text-anchor="start" x="1013.27" y="-514.3" font-family="Times,serif" font-size="14.00"> </text>
<text text-anchor="start" x="1017.27" y="-514.3" font-family="Times,serif" font-style="italic" font-size="14.00">(mandatory)</text>
</g>
<!-- Thing&#45;&gt;Versioning -->
<g id="edge12" class="edge"><title>Thing&#45;&gt;Versioning</title>
<path fill="none" stroke="black" d="M762.854,-648.846C821.432,-617.006 886.691,-581.535 931.089,-557.403"/>
<polygon fill="black" stroke="black" points="932.845,-560.433 939.959,-552.582 929.502,-554.283 932.845,-560.433"/>
<text text-anchor="start" x="849.265" y="-605.8" font-family="mono" font-size="14.00" fill="#c83500">version</text>
<text text-anchor="middle" x="928.959" y="-556.382" font-family="Times,serif" font-size="14.00">0..1</text>
</g>
<!-- SecurityScheme -->
<g id="node12" class="node"><title>SecurityScheme</title>
<polygon fill="#f2f2f2" stroke="none" points="1122.27,-516.5 1122.27,-537.5 1244.27,-537.5 1244.27,-516.5 1122.27,-516.5"/>
<polygon fill="none" stroke="#8c8c8c" points="1122.27,-516.5 1122.27,-537.5 1244.27,-537.5 1244.27,-516.5 1122.27,-516.5"/>
<text text-anchor="start" x="1125.27" y="-524.3" font-family="mono" font-weight="bold" font-size="14.00">SecurityScheme</text>
</g>
<!-- Thing&#45;&gt;SecurityScheme -->
<g id="edge11" class="edge"><title>Thing&#45;&gt;SecurityScheme</title>
<path fill="none" stroke="black" d="M762.875,-695.479C860.646,-673.268 994.494,-636.661 1104.27,-584 1122.2,-575.394 1140.49,-562.836 1154.95,-551.842"/>
<polygon fill="black" stroke="black" points="1157.24,-554.493 1162.99,-545.591 1152.94,-548.967 1157.24,-554.493"/>
<text text-anchor="start" x="1056.27" y="-605.8" font-family="mono" font-size="14.00" fill="#c83500">securityDefinitions</text>
<text text-anchor="middle" x="1151.99" y="-549.391" font-family="Times,serif" font-size="14.00">0..1</text>
</g>
<!-- Property&#45;&gt;InteractionPattern -->
<g id="edge19" class="edge"><title>Property&#45;&gt;InteractionPattern</title>
<path fill="none" stroke="black" d="M364.901,-502.247C370.937,-483.071 379.658,-455.369 387.699,-429.828"/>
<polygon fill="white" stroke="black" points="391.076,-430.757 390.74,-420.167 384.399,-428.655 391.076,-430.757"/>
</g>
<!-- Action&#45;&gt;InteractionPattern -->
<g id="edge18" class="edge"><title>Action&#45;&gt;InteractionPattern</title>
<path fill="none" stroke="black" d="M573.627,-491.832C555.439,-479.894 535.242,-466.202 517.265,-453 505.852,-444.618 494.005,-435.483 482.51,-426.368"/>
<polygon fill="white" stroke="black" points="484.617,-423.572 474.617,-420.071 480.251,-429.043 484.617,-423.572"/>
</g>
<!-- Action&#45;&gt;DataSchema -->
<g id="edge13" class="edge"><title>Action&#45;&gt;DataSchema</title>
<path fill="none" stroke="black" d="M615.276,-491.781C600.794,-447.753 581.913,-369.989 602.265,-307 615.367,-266.453 646.699,-227.946 669.157,-204.069"/>
<polygon fill="black" stroke="black" points="671.694,-206.48 676.102,-196.846 666.648,-201.628 671.694,-206.48"/>
<text text-anchor="start" x="602.265" y="-359.8" font-family="mono" font-size="14.00" fill="#c83500">output</text>
<text text-anchor="middle" x="665.102" y="-200.646" font-family="Times,serif" font-size="14.00">0..1</text>
</g>
<!-- Action&#45;&gt;DataSchema -->
<g id="edge14" class="edge"><title>Action&#45;&gt;DataSchema</title>
<path fill="none" stroke="black" d="M636.587,-491.576C641.417,-470.831 647.473,-443.975 652.265,-420 667.653,-343.013 682.761,-251.527 689.938,-206.828"/>
<polygon fill="black" stroke="black" points="693.425,-207.187 691.548,-196.76 686.513,-206.082 693.425,-207.187"/>
<text text-anchor="start" x="673.265" y="-359.8" font-family="mono" font-size="14.00" fill="#c83500">input</text>
<text text-anchor="middle" x="702.548" y="-200.56" font-family="Times,serif" font-size="14.00">0..1</text>
</g>
<!-- Event&#45;&gt;InteractionPattern -->
<g id="edge20" class="edge"><title>Event&#45;&gt;InteractionPattern</title>
<path fill="none" stroke="black" d="M813.854,-509.385C806.833,-496.879 795.659,-480.507 781.265,-471 740.292,-443.937 613.383,-433.822 566.265,-420 550.057,-415.245 533.068,-409.79 516.488,-404.197"/>
<polygon fill="white" stroke="black" points="517.376,-400.803 506.781,-400.893 515.12,-407.429 517.376,-400.803"/>
</g>
<!-- Event&#45;&gt;DataSchema -->
<g id="edge15" class="edge"><title>Event&#45;&gt;DataSchema</title>
<path fill="none" stroke="black" d="M833.422,-509.108C841.135,-497.7 852.003,-482.772 863.265,-471 888.169,-444.969 910.754,-452.514 926.265,-420 947.89,-374.672 951.834,-350.227 926.265,-307 889.9,-245.52 812.181,-211.696 756.723,-194.608"/>
<polygon fill="black" stroke="black" points="757.571,-191.209 746.988,-191.709 755.573,-197.918 757.571,-191.209"/>
<text text-anchor="start" x="944.265" y="-359.8" font-family="mono" font-size="14.00" fill="#c83500">subscription</text>
<text text-anchor="middle" x="757.988" y="-195.509" font-family="Times,serif" font-size="14.00">0..1</text>
</g>
<!-- Event&#45;&gt;DataSchema -->
<g id="edge16" class="edge"><title>Event&#45;&gt;DataSchema</title>
<path fill="none" stroke="black" d="M811.88,-509.285C799.738,-488.63 779.605,-452.686 766.265,-420 735.543,-344.723 711.364,-251.45 700.505,-206.38"/>
<polygon fill="black" stroke="black" points="703.874,-205.421 698.153,-196.503 697.065,-207.042 703.874,-205.421"/>
<text text-anchor="start" x="766.265" y="-359.8" font-family="mono" font-size="14.00" fill="#c83500">data</text>
<text text-anchor="middle" x="687.153" y="-200.303" font-family="Times,serif" font-size="14.00">0..1</text>
</g>
<!-- Event&#45;&gt;DataSchema -->
<g id="edge17" class="edge"><title>Event&#45;&gt;DataSchema</title>
<path fill="none" stroke="black" d="M821.839,-509.472C820.513,-464.51 815.582,-343.56 800.265,-307 782.826,-265.374 746.99,-226.913 721.832,-203.353"/>
<polygon fill="black" stroke="black" points="724.134,-200.714 714.399,-196.532 719.401,-205.872 724.134,-200.714"/>
<text text-anchor="start" x="817.265" y="-359.8" font-family="mono" font-size="14.00" fill="#c83500">cancellation</text>
<text text-anchor="middle" x="725.399" y="-200.332" font-family="Times,serif" font-size="14.00">0..1</text>
</g>
</g>
</svg>
