<?xml version="1.0" encoding="UTF-8" standalone="no"?>
<!DOCTYPE svg PUBLIC "-//W3C//DTD SVG 1.1//EN"
 "http://www.w3.org/Graphics/SVG/1.1/DTD/svg11.dtd">
<!-- Generated by graphviz version 2.38.0 (20140413.2041)
 -->
<!-- Title: %3 Pages: 1 -->
<svg width="1430pt" height="578pt"
 viewBox="0.00 0.00 1429.53 578.00" xmlns="http://www.w3.org/2000/svg" xmlns:xlink="http://www.w3.org/1999/xlink">
<g id="graph0" class="graph" transform="scale(1 1) rotate(0) translate(4 574)">
<title>%3</title>
<polygon fill="white" stroke="none" points="-4,4 -4,-574 1425.53,-574 1425.53,4 -4,4"/>
<!-- MultiLanguage -->
<g id="node1" class="node"><title>MultiLanguage</title>
<polygon fill="#8ccbf2" stroke="none" points="87.5315,-7 87.5315,-28 201.532,-28 201.532,-7 87.5315,-7"/>
<polygon fill="none" stroke="#8ccbf2" points="87.5315,-7 87.5315,-28 201.532,-28 201.532,-7 87.5315,-7"/>
<text text-anchor="start" x="90.5315" y="-14.8" font-family="mono" font-weight="bold" font-size="14.00" fill="#c83500">MultiLanguage</text>
</g>
<!-- Thing -->
<g id="node2" class="node"><title>Thing</title>
<polygon fill="#8ccbf2" stroke="none" points="533.532,-544.5 533.532,-565.5 792.532,-565.5 792.532,-544.5 533.532,-544.5"/>
<polygon fill="none" stroke="#8ccbf2" points="533.532,-544.5 533.532,-565.5 792.532,-565.5 792.532,-544.5 533.532,-544.5"/>
<text text-anchor="start" x="642.032" y="-552.3" font-family="mono" font-weight="bold" font-size="14.00" fill="#c83500">Thing</text>
<polygon fill="#ddeeff" stroke="none" points="533.532,-523.5 533.532,-544.5 792.532,-544.5 792.532,-523.5 533.532,-523.5"/>
<polygon fill="none" stroke="#8ccbf2" points="533.532,-523.5 533.532,-544.5 792.532,-544.5 792.532,-523.5 533.532,-523.5"/>
<text text-anchor="start" x="536.532" y="-531.3" font-family="mono" font-size="14.00" fill="#c83500">@context</text>
<text text-anchor="start" x="603.532" y="-531.3" font-family="Times,serif" font-size="14.00"> : </text>
<text text-anchor="start" x="615.532" y="-531.3" font-family="mono" font-style="italic" font-size="14.00" fill="#c83500">anyURI</text>
<text text-anchor="start" x="665.532" y="-531.3" font-family="Times,serif" font-style="italic" font-size="14.00"> or Array</text>
<text text-anchor="start" x="717.532" y="-531.3" font-family="Times,serif" font-size="14.00"> </text>
<text text-anchor="start" x="721.532" y="-531.3" font-family="Times,serif" font-style="italic" font-size="14.00">(mandatory)</text>
<polygon fill="#ddeeff" stroke="none" points="533.532,-502.5 533.532,-523.5 792.532,-523.5 792.532,-502.5 533.532,-502.5"/>
<polygon fill="none" stroke="#8ccbf2" points="533.532,-502.5 533.532,-523.5 792.532,-523.5 792.532,-502.5 533.532,-502.5"/>
<text text-anchor="start" x="536.532" y="-510.3" font-family="mono" font-size="14.00" fill="#c83500">@type</text>
<text text-anchor="start" x="578.532" y="-510.3" font-family="Times,serif" font-size="14.00"> : </text>
<text text-anchor="start" x="590.532" y="-510.3" font-family="Times,serif" font-style="italic" font-size="14.00">(Array of) </text>
<text text-anchor="start" x="649.532" y="-510.3" font-family="mono" font-size="14.00" fill="#c83500">string</text>
<polygon fill="#ddeeff" stroke="none" points="533.532,-481.5 533.532,-502.5 792.532,-502.5 792.532,-481.5 533.532,-481.5"/>
<polygon fill="none" stroke="#8ccbf2" points="533.532,-481.5 533.532,-502.5 792.532,-502.5 792.532,-481.5 533.532,-481.5"/>
<text text-anchor="start" x="536.532" y="-489.3" font-family="mono" font-size="14.00" fill="#c83500">id</text>
<text text-anchor="start" x="553.532" y="-489.3" font-family="Times,serif" font-size="14.00"> : </text>
<text text-anchor="start" x="565.532" y="-489.3" font-family="mono" font-size="14.00" fill="#c83500">anyURI</text>
<text text-anchor="start" x="615.532" y="-489.3" font-family="Times,serif" font-size="14.00"> </text>
<text text-anchor="start" x="619.532" y="-489.3" font-family="Times,serif" font-style="italic" font-size="14.00">(mandatory)</text>
<polygon fill="#ddeeff" stroke="none" points="533.532,-460.5 533.532,-481.5 792.532,-481.5 792.532,-460.5 533.532,-460.5"/>
<polygon fill="none" stroke="#8ccbf2" points="533.532,-460.5 533.532,-481.5 792.532,-481.5 792.532,-460.5 533.532,-460.5"/>
<text text-anchor="start" x="536.532" y="-468.3" font-family="mono" font-size="14.00" fill="#c83500">description</text>
<text text-anchor="start" x="627.532" y="-468.3" font-family="Times,serif" font-size="14.00"> : </text>
<text text-anchor="start" x="639.532" y="-468.3" font-family="mono" font-size="14.00" fill="#c83500">string</text>
<polygon fill="#ddeeff" stroke="none" points="533.532,-439.5 533.532,-460.5 792.532,-460.5 792.532,-439.5 533.532,-439.5"/>
<polygon fill="none" stroke="#8ccbf2" points="533.532,-439.5 533.532,-460.5 792.532,-460.5 792.532,-439.5 533.532,-439.5"/>
<text text-anchor="start" x="536.532" y="-447.3" font-family="mono" font-size="14.00" fill="#c83500">security</text>
<text text-anchor="start" x="603.532" y="-447.3" font-family="Times,serif" font-size="14.00"> : Array of </text>
<text text-anchor="start" x="665.532" y="-447.3" font-family="mono" font-size="14.00" fill="#c83500">string</text>
<text text-anchor="start" x="715.532" y="-447.3" font-family="Times,serif" font-size="14.00"> </text>
<text text-anchor="start" x="719.532" y="-447.3" font-family="Times,serif" font-style="italic" font-size="14.00">(mandatory)</text>
<polygon fill="#ddeeff" stroke="none" points="533.532,-418.5 533.532,-439.5 792.532,-439.5 792.532,-418.5 533.532,-418.5"/>
<polygon fill="none" stroke="#8ccbf2" points="533.532,-418.5 533.532,-439.5 792.532,-439.5 792.532,-418.5 533.532,-418.5"/>
<text text-anchor="start" x="536.532" y="-426.3" font-family="mono" font-size="14.00" fill="#c83500">support</text>
<text text-anchor="start" x="594.532" y="-426.3" font-family="Times,serif" font-size="14.00"> : </text>
<text text-anchor="start" x="606.532" y="-426.3" font-family="mono" font-size="14.00" fill="#c83500">anyURI</text>
<polygon fill="#ddeeff" stroke="none" points="533.532,-397.5 533.532,-418.5 792.532,-418.5 792.532,-397.5 533.532,-397.5"/>
<polygon fill="none" stroke="#8ccbf2" points="533.532,-397.5 533.532,-418.5 792.532,-418.5 792.532,-397.5 533.532,-397.5"/>
<text text-anchor="start" x="536.532" y="-405.3" font-family="mono" font-size="14.00" fill="#c83500">title</text>
<text text-anchor="start" x="578.532" y="-405.3" font-family="Times,serif" font-size="14.00"> : </text>
<text text-anchor="start" x="590.532" y="-405.3" font-family="mono" font-size="14.00" fill="#c83500">string</text>
<text text-anchor="start" x="640.532" y="-405.3" font-family="Times,serif" font-size="14.00"> </text>
<text text-anchor="start" x="644.532" y="-405.3" font-family="Times,serif" font-style="italic" font-size="14.00">(mandatory)</text>
<polygon fill="#ddeeff" stroke="none" points="533.532,-376.5 533.532,-397.5 792.532,-397.5 792.532,-376.5 533.532,-376.5"/>
<polygon fill="none" stroke="#8ccbf2" points="533.532,-376.5 533.532,-397.5 792.532,-397.5 792.532,-376.5 533.532,-376.5"/>
<text text-anchor="start" x="536.532" y="-384.3" font-family="mono" font-size="14.00" fill="#c83500">base</text>
<text text-anchor="start" x="570.532" y="-384.3" font-family="Times,serif" font-size="14.00"> : </text>
<text text-anchor="start" x="582.532" y="-384.3" font-family="mono" font-size="14.00" fill="#c83500">anyURI</text>
<polygon fill="#ddeeff" stroke="none" points="533.532,-355.5 533.532,-376.5 792.532,-376.5 792.532,-355.5 533.532,-355.5"/>
<polygon fill="none" stroke="#8ccbf2" points="533.532,-355.5 533.532,-376.5 792.532,-376.5 792.532,-355.5 533.532,-355.5"/>
<text text-anchor="start" x="536.532" y="-363.3" font-family="mono" font-size="14.00" fill="#c83500">modified</text>
<text text-anchor="start" x="603.532" y="-363.3" font-family="Times,serif" font-size="14.00"> : </text>
<text text-anchor="start" x="615.532" y="-363.3" font-family="mono" font-size="14.00" fill="#c83500">dateTime</text>
<polygon fill="#ddeeff" stroke="none" points="533.532,-334.5 533.532,-355.5 792.532,-355.5 792.532,-334.5 533.532,-334.5"/>
<polygon fill="none" stroke="#8ccbf2" points="533.532,-334.5 533.532,-355.5 792.532,-355.5 792.532,-334.5 533.532,-334.5"/>
<text text-anchor="start" x="536.532" y="-342.3" font-family="mono" font-size="14.00" fill="#c83500">created</text>
<text text-anchor="start" x="594.532" y="-342.3" font-family="Times,serif" font-size="14.00"> : </text>
<text text-anchor="start" x="606.532" y="-342.3" font-family="mono" font-size="14.00" fill="#c83500">dateTime</text>
</g>
<!-- Thing&#45;&gt;MultiLanguage -->
<g id="edge7" class="edge"><title>Thing&#45;&gt;MultiLanguage</title>
<path fill="none" stroke="black" d="M524.897,-438.119C408.476,-423.355 240.911,-389.644 114.532,-313 48.2367,-272.795 -20.8208,-248.549 6.53152,-176 27.7753,-119.653 79.4603,-70.3895 113.197,-42.7007"/>
<polygon fill="black" stroke="black" points="115.761,-45.1303 121.358,-36.1348 111.373,-39.6763 115.761,-45.1303"/>
<text text-anchor="start" x="6.53152" y="-179.8" font-family="mono" font-size="14.00" fill="#c83500">descriptions</text>
<text text-anchor="middle" x="110.358" y="-39.9348" font-family="Times,serif" font-size="14.00">0..1</text>
</g>
<!-- Thing&#45;&gt;MultiLanguage -->
<g id="edge9" class="edge"><title>Thing&#45;&gt;MultiLanguage</title>
<path fill="none" stroke="black" d="M524.657,-404.337C466.514,-381.787 399.863,-351.104 345.532,-313 273.922,-262.778 219.651,-250.629 148.532,-69 145.769,-61.9453 144.422,-53.9109 143.848,-46.3775"/>
<polygon fill="black" stroke="black" points="147.34,-46.0836 143.483,-36.2155 140.344,-46.3346 147.34,-46.0836"/>
<text text-anchor="start" x="207.532" y="-179.8" font-family="mono" font-size="14.00" fill="#c83500">titles</text>
<text text-anchor="middle" x="132.483" y="-40.0155" font-family="Times,serif" font-size="14.00">0..1</text>
</g>
<!-- PropertyAffordance -->
<g id="node3" class="node"><title>PropertyAffordance</title>
<polygon fill="#8ccbf2" stroke="none" points="354.532,-244.5 354.532,-265.5 513.532,-265.5 513.532,-244.5 354.532,-244.5"/>
<polygon fill="none" stroke="#8ccbf2" points="354.532,-244.5 354.532,-265.5 513.532,-265.5 513.532,-244.5 354.532,-244.5"/>
<text text-anchor="start" x="359.532" y="-252.3" font-family="mono" font-weight="bold" font-size="14.00" fill="#c83500">PropertyAffordance</text>
<polygon fill="#ddeeff" stroke="none" points="354.532,-223.5 354.532,-244.5 513.532,-244.5 513.532,-223.5 354.532,-223.5"/>
<polygon fill="none" stroke="#8ccbf2" points="354.532,-223.5 354.532,-244.5 513.532,-244.5 513.532,-223.5 354.532,-223.5"/>
<text text-anchor="start" x="357.532" y="-231.3" font-family="mono" font-size="14.00" fill="#c83500">observable</text>
<text text-anchor="start" x="440.532" y="-231.3" font-family="Times,serif" font-size="14.00"> : </text>
<text text-anchor="start" x="452.532" y="-231.3" font-family="mono" font-size="14.00" fill="#c83500">boolean</text>
</g>
<!-- Thing&#45;&gt;PropertyAffordance -->
<g id="edge3" class="edge"><title>Thing&#45;&gt;PropertyAffordance</title>
<path fill="none" stroke="black" d="M529.321,-330.832C506.829,-310.795 485.326,-291.64 468.413,-276.574"/>
<polygon fill="black" stroke="black" points="470.29,-273.558 460.495,-269.52 465.634,-278.785 470.29,-273.558"/>
<text text-anchor="start" x="508.532" y="-301.8" font-family="mono" font-size="14.00" fill="#c83500">properties</text>
<text text-anchor="middle" x="449.495" y="-273.32" font-family="Times,serif" font-size="14.00">0..1</text>
</g>
<!-- VersionInfo -->
<g id="node4" class="node"><title>VersionInfo</title>
<polygon fill="#8ccbf2" stroke="none" points="977.532,-244.5 977.532,-265.5 1184.53,-265.5 1184.53,-244.5 977.532,-244.5"/>
<polygon fill="none" stroke="#8ccbf2" points="977.532,-244.5 977.532,-265.5 1184.53,-265.5 1184.53,-244.5 977.532,-244.5"/>
<text text-anchor="start" x="1035.53" y="-252.3" font-family="mono" font-weight="bold" font-size="14.00" fill="#c83500">VersionInfo</text>
<polygon fill="#ddeeff" stroke="none" points="977.532,-223.5 977.532,-244.5 1184.53,-244.5 1184.53,-223.5 977.532,-223.5"/>
<polygon fill="none" stroke="#8ccbf2" points="977.532,-223.5 977.532,-244.5 1184.53,-244.5 1184.53,-223.5 977.532,-223.5"/>
<text text-anchor="start" x="980.532" y="-231.3" font-family="mono" font-size="14.00" fill="#c83500">instance</text>
<text text-anchor="start" x="1047.53" y="-231.3" font-family="Times,serif" font-size="14.00"> : </text>
<text text-anchor="start" x="1059.53" y="-231.3" font-family="mono" font-size="14.00" fill="#c83500">string</text>
<text text-anchor="start" x="1109.53" y="-231.3" font-family="Times,serif" font-size="14.00"> </text>
<text text-anchor="start" x="1113.53" y="-231.3" font-family="Times,serif" font-style="italic" font-size="14.00">(mandatory)</text>
</g>
<!-- Thing&#45;&gt;VersionInfo -->
<g id="edge4" class="edge"><title>Thing&#45;&gt;VersionInfo</title>
<path fill="none" stroke="black" d="M800.269,-382.279C875.53,-345.549 964.796,-301.983 1022.02,-274.056"/>
<polygon fill="black" stroke="black" points="1023.82,-277.072 1031.27,-269.541 1020.75,-270.782 1023.82,-277.072"/>
<text text-anchor="start" x="968.532" y="-301.8" font-family="mono" font-size="14.00" fill="#c83500">version</text>
<text text-anchor="middle" x="1020.27" y="-273.341" font-family="Times,serif" font-size="14.00">0..1</text>
</g>
<!-- ActionAffordance -->
<g id="node5" class="node"><title>ActionAffordance</title>
<polygon fill="#8ccbf2" stroke="none" points="547.532,-254.5 547.532,-275.5 778.532,-275.5 778.532,-254.5 547.532,-254.5"/>
<polygon fill="none" stroke="#8ccbf2" points="547.532,-254.5 547.532,-275.5 778.532,-275.5 778.532,-254.5 547.532,-254.5"/>
<text text-anchor="start" x="596.532" y="-262.3" font-family="mono" font-weight="bold" font-size="14.00" fill="#c83500">ActionAffordance</text>
<polygon fill="#ddeeff" stroke="none" points="547.532,-233.5 547.532,-254.5 778.532,-254.5 778.532,-233.5 547.532,-233.5"/>
<polygon fill="none" stroke="#8ccbf2" points="547.532,-233.5 547.532,-254.5 778.532,-254.5 778.532,-233.5 547.532,-233.5"/>
<text text-anchor="start" x="550.532" y="-241.3" font-family="mono" font-size="14.00" fill="#c83500">safe</text>
<text text-anchor="start" x="584.532" y="-241.3" font-family="Times,serif" font-size="14.00"> : </text>
<text text-anchor="start" x="596.532" y="-241.3" font-family="mono" font-size="14.00" fill="#c83500">boolean</text>
<text text-anchor="start" x="654.532" y="-241.3" font-family="Times,serif" font-size="14.00"> </text>
<text text-anchor="start" x="658.532" y="-241.3" font-family="Times,serif" font-style="italic" font-size="14.00">(mandatory)</text>
<polygon fill="#ddeeff" stroke="none" points="547.532,-212.5 547.532,-233.5 778.532,-233.5 778.532,-212.5 547.532,-212.5"/>
<polygon fill="none" stroke="#8ccbf2" points="547.532,-212.5 547.532,-233.5 778.532,-233.5 778.532,-212.5 547.532,-212.5"/>
<text text-anchor="start" x="550.532" y="-220.3" font-family="mono" font-size="14.00" fill="#c83500">idempotent</text>
<text text-anchor="start" x="633.532" y="-220.3" font-family="Times,serif" font-size="14.00"> : </text>
<text text-anchor="start" x="645.532" y="-220.3" font-family="mono" font-size="14.00" fill="#c83500">boolean</text>
<text text-anchor="start" x="703.532" y="-220.3" font-family="Times,serif" font-size="14.00"> </text>
<text text-anchor="start" x="707.532" y="-220.3" font-family="Times,serif" font-style="italic" font-size="14.00">(mandatory)</text>
</g>
<!-- Thing&#45;&gt;ActionAffordance -->
<g id="edge8" class="edge"><title>Thing&#45;&gt;ActionAffordance</title>
<path fill="none" stroke="black" d="M662.532,-330.832C662.532,-316.596 662.532,-302.804 662.532,-290.608"/>
<polygon fill="black" stroke="black" points="666.032,-290.33 662.532,-280.33 659.032,-290.33 666.032,-290.33"/>
<text text-anchor="start" x="662.532" y="-301.8" font-family="mono" font-size="14.00" fill="#c83500">actions</text>
<text text-anchor="middle" x="651.532" y="-284.13" font-family="Times,serif" font-size="14.00">0..1</text>
</g>
<!-- EventAffordance -->
<g id="node7" class="node"><title>EventAffordance</title>
<polygon fill="#8ccbf2" stroke="none" points="812.532,-233.5 812.532,-254.5 942.532,-254.5 942.532,-233.5 812.532,-233.5"/>
<polygon fill="none" stroke="#8ccbf2" points="812.532,-233.5 812.532,-254.5 942.532,-254.5 942.532,-233.5 812.532,-233.5"/>
<text text-anchor="start" x="815.532" y="-241.3" font-family="mono" font-weight="bold" font-size="14.00" fill="#c83500">EventAffordance</text>
</g>
<!-- Thing&#45;&gt;EventAffordance -->
<g id="edge5" class="edge"><title>Thing&#45;&gt;EventAffordance</title>
<path fill="none" stroke="black" d="M787.598,-330.832C811.891,-307.782 834.954,-285.899 851.642,-270.065"/>
<polygon fill="black" stroke="black" points="854.454,-272.222 859.299,-262.799 849.636,-267.144 854.454,-272.222"/>
<text text-anchor="start" x="820.532" y="-301.8" font-family="mono" font-size="14.00" fill="#c83500">events</text>
<text text-anchor="middle" x="848.299" y="-266.599" font-family="Times,serif" font-size="14.00">0..1</text>
</g>
<!-- Link -->
<g id="node8" class="node"><title>Link</title>
<polygon fill="#f2f2f2" stroke="none" points="1217.53,-233.5 1217.53,-254.5 1257.53,-254.5 1257.53,-233.5 1217.53,-233.5"/>
<polygon fill="none" stroke="#8c8c8c" points="1217.53,-233.5 1217.53,-254.5 1257.53,-254.5 1257.53,-233.5 1217.53,-233.5"/>
<text text-anchor="start" x="1220.53" y="-241.3" font-family="mono" font-weight="bold" font-size="14.00">Link</text>
</g>
<!-- Thing&#45;&gt;Link -->
<g id="edge1" class="edge"><title>Thing&#45;&gt;Link</title>
<path fill="none" stroke="black" d="M800.146,-423.872C913.175,-398.778 1074.58,-353.429 1200.53,-280 1205.46,-277.125 1210.28,-273.485 1214.71,-269.655"/>
<polygon fill="black" stroke="black" points="1217.28,-272.045 1222.24,-262.679 1212.52,-266.912 1217.28,-272.045"/>
<text text-anchor="start" x="1160.53" y="-301.8" font-family="mono" font-size="14.00" fill="#c83500">links</text>
<text text-anchor="middle" x="1211.24" y="-266.479" font-family="Times,serif" font-size="14.00">0..*</text>
</g>
<!-- SecurityScheme -->
<g id="node9" class="node"><title>SecurityScheme</title>
<polygon fill="#f2f2f2" stroke="none" points="1291.53,-233.5 1291.53,-254.5 1413.53,-254.5 1413.53,-233.5 1291.53,-233.5"/>
<polygon fill="none" stroke="#8c8c8c" points="1291.53,-233.5 1291.53,-254.5 1413.53,-254.5 1413.53,-233.5 1291.53,-233.5"/>
<text text-anchor="start" x="1294.53" y="-241.3" font-family="mono" font-weight="bold" font-size="14.00">SecurityScheme</text>
</g>
<!-- Thing&#45;&gt;SecurityScheme -->
<g id="edge2" class="edge"><title>Thing&#45;&gt;SecurityScheme</title>
<path fill="none" stroke="black" d="M800.158,-422.436C911.412,-398.787 1071.22,-360.782 1206.53,-313 1242.88,-300.163 1282.49,-281.54 1311.27,-267.106"/>
<polygon fill="black" stroke="black" points="1312.87,-270.218 1320.21,-262.579 1309.71,-263.972 1312.87,-270.218"/>
<text text-anchor="start" x="1243.53" y="-301.8" font-family="mono" font-size="14.00" fill="#c83500">securityDefinitions</text>
<text text-anchor="middle" x="1309.21" y="-266.379" font-family="Times,serif" font-size="14.00">1..1</text>
</g>
<!-- Form -->
<g id="node10" class="node"><title>Form</title>
<polygon fill="#f2f2f2" stroke="none" points="367.532,-7 367.532,-28 407.532,-28 407.532,-7 367.532,-7"/>
<polygon fill="none" stroke="#8c8c8c" points="367.532,-7 367.532,-28 407.532,-28 407.532,-7 367.532,-7"/>
<text text-anchor="start" x="370.532" y="-14.8" font-family="mono" font-weight="bold" font-size="14.00">Form</text>
</g>
<!-- Thing&#45;&gt;Form -->
<g id="edge6" class="edge"><title>Thing&#45;&gt;Form</title>
<path fill="none" stroke="black" d="M524.636,-414.708C455.352,-389.494 377.583,-347.613 336.532,-280 290.385,-203.995 342.534,-94.6338 371.2,-45.1188"/>
<polygon fill="black" stroke="black" points="374.329,-46.703 376.417,-36.3159 368.308,-43.1339 374.329,-46.703"/>
<text text-anchor="start" x="321.532" y="-179.8" font-family="mono" font-size="14.00" fill="#c83500">forms</text>
<text text-anchor="middle" x="365.417" y="-40.1159" font-family="Times,serif" font-size="14.00">0..*</text>
</g>
<!-- InteractionAffordance -->
<g id="node6" class="node"><title>InteractionAffordance</title>
<polygon fill="#8ccbf2" stroke="none" points="410.532,-132.5 410.532,-153.5 590.532,-153.5 590.532,-132.5 410.532,-132.5"/>
<polygon fill="none" stroke="#8ccbf2" points="410.532,-132.5 410.532,-153.5 590.532,-153.5 590.532,-132.5 410.532,-132.5"/>
<text text-anchor="start" x="413.532" y="-140.3" font-family="mono" font-weight="bold" font-size="14.00" fill="#c83500">InteractionAffordance</text>
<polygon fill="#ddeeff" stroke="none" points="410.532,-111.5 410.532,-132.5 590.532,-132.5 590.532,-111.5 410.532,-111.5"/>
<polygon fill="none" stroke="#8ccbf2" points="410.532,-111.5 410.532,-132.5 590.532,-132.5 590.532,-111.5 410.532,-111.5"/>
<text text-anchor="start" x="413.532" y="-119.3" font-family="mono" font-size="14.00" fill="#c83500">description</text>
<text text-anchor="start" x="504.532" y="-119.3" font-family="Times,serif" font-size="14.00"> : </text>
<text text-anchor="start" x="516.532" y="-119.3" font-family="mono" font-size="14.00" fill="#c83500">string</text>
<polygon fill="#ddeeff" stroke="none" points="410.532,-90.5 410.532,-111.5 590.532,-111.5 590.532,-90.5 410.532,-90.5"/>
<polygon fill="none" stroke="#8ccbf2" points="410.532,-90.5 410.532,-111.5 590.532,-111.5 590.532,-90.5 410.532,-90.5"/>
<text text-anchor="start" x="413.532" y="-98.3" font-family="mono" font-size="14.00" fill="#c83500">title</text>
<text text-anchor="start" x="455.532" y="-98.3" font-family="Times,serif" font-size="14.00"> : </text>
<text text-anchor="start" x="467.532" y="-98.3" font-family="mono" font-size="14.00" fill="#c83500">string</text>
</g>
<!-- PropertyAffordance&#45;&gt;InteractionAffordance -->
<g id="edge20" class="edge"><title>PropertyAffordance&#45;&gt;InteractionAffordance</title>
<path fill="none" stroke="black" d="M447.09,-219.216C455.426,-204.286 466.351,-184.718 476.15,-167.168"/>
<polygon fill="white" stroke="black" points="479.333,-168.646 481.152,-158.209 473.221,-165.234 479.333,-168.646"/>
</g>
<!-- DataSchema -->
<g id="node11" class="node"><title>DataSchema</title>
<polygon fill="#f2f2f2" stroke="none" points="668.532,-7 668.532,-28 757.532,-28 757.532,-7 668.532,-7"/>
<polygon fill="none" stroke="#8c8c8c" points="668.532,-7 668.532,-28 757.532,-28 757.532,-7 668.532,-7"/>
<text text-anchor="start" x="671.532" y="-14.8" font-family="mono" font-weight="bold" font-size="14.00">DataSchema</text>
</g>
<!-- PropertyAffordance&#45;&gt;DataSchema -->
<g id="edge19" class="edge"><title>PropertyAffordance&#45;&gt;DataSchema</title>
<path fill="none" stroke="black" d="M418.796,-219.458C409.518,-202.862 398.405,-179.916 393.532,-158 383.09,-111.04 380.789,-76.076 423.532,-54 461.755,-34.2581 576.947,-25.295 649.835,-21.5053"/>
<polygon fill="white" stroke="black" points="650.014,-25.0008 659.826,-21.0043 649.663,-18.0096 650.014,-25.0008"/>
</g>
<!-- ActionAffordance&#45;&gt;InteractionAffordance -->
<g id="edge21" class="edge"><title>ActionAffordance&#45;&gt;InteractionAffordance</title>
<path fill="none" stroke="black" d="M606.291,-208.882C597.537,-203.098 588.696,-197.018 580.532,-191 569.467,-182.845 557.956,-173.616 547.23,-164.659"/>
<polygon fill="white" stroke="black" points="549.476,-161.976 539.575,-158.205 544.964,-167.327 549.476,-161.976"/>
</g>
<!-- ActionAffordance&#45;&gt;DataSchema -->
<g id="edge10" class="edge"><title>ActionAffordance&#45;&gt;DataSchema</title>
<path fill="none" stroke="black" d="M670.234,-208.914C680.218,-164.09 697.418,-86.8586 706.504,-46.0634"/>
<polygon fill="black" stroke="black" points="709.977,-46.5706 708.734,-36.0489 703.144,-45.0488 709.977,-46.5706"/>
<text text-anchor="start" x="697.532" y="-118.8" font-family="mono" font-size="14.00" fill="#c83500">output</text>
<text text-anchor="middle" x="697.734" y="-39.8489" font-family="Times,serif" font-size="14.00">0..1</text>
</g>
<!-- ActionAffordance&#45;&gt;DataSchema -->
<g id="edge11" class="edge"><title>ActionAffordance&#45;&gt;DataSchema</title>
<path fill="none" stroke="black" d="M645.828,-208.786C632.572,-176.076 618.938,-126.35 636.532,-87 644.641,-68.8622 660.245,-53.5594 675.214,-42.0915"/>
<polygon fill="black" stroke="black" points="677.389,-44.837 683.413,-36.1213 673.269,-39.1781 677.389,-44.837"/>
<text text-anchor="start" x="636.532" y="-118.8" font-family="mono" font-size="14.00" fill="#c83500">input</text>
<text text-anchor="middle" x="672.413" y="-39.9213" font-family="Times,serif" font-size="14.00">0..1</text>
</g>
<!-- InteractionAffordance&#45;&gt;MultiLanguage -->
<g id="edge14" class="edge"><title>InteractionAffordance&#45;&gt;MultiLanguage</title>
<path fill="none" stroke="black" d="M402.458,-117.217C315.961,-111.52 198.265,-98.4723 162.532,-69 155.574,-63.2618 151.306,-54.6158 148.687,-46.1192"/>
<polygon fill="black" stroke="black" points="152.084,-45.2784 146.308,-36.3967 145.285,-46.942 152.084,-45.2784"/>
<text text-anchor="start" x="162.532" y="-57.8" font-family="mono" font-size="14.00" fill="#c83500">titles</text>
<text text-anchor="middle" x="157.308" y="-40.1967" font-family="Times,serif" font-size="14.00">0..1</text>
</g>
<!-- InteractionAffordance&#45;&gt;MultiLanguage -->
<g id="edge15" class="edge"><title>InteractionAffordance&#45;&gt;MultiLanguage</title>
<path fill="none" stroke="black" d="M402.311,-93.2201C342.345,-75.9548 267.149,-54.3042 213.476,-38.8507"/>
<polygon fill="black" stroke="black" points="214.291,-35.4432 203.713,-36.0397 212.355,-42.17 214.291,-35.4432"/>
<text text-anchor="start" x="312.532" y="-57.8" font-family="mono" font-size="14.00" fill="#c83500">descriptions</text>
<text text-anchor="middle" x="192.713" y="-39.8397" font-family="Times,serif" font-size="14.00">0..1</text>
</g>
<!-- InteractionAffordance&#45;&gt;Form -->
<g id="edge12" class="edge"><title>InteractionAffordance&#45;&gt;Form</title>
<path fill="none" stroke="black" d="M462.275,-86.7982C446.392,-72.3912 428.354,-56.0297 413.978,-42.9895"/>
<polygon fill="black" stroke="black" points="416.164,-40.2463 406.405,-36.1201 411.461,-45.4311 416.164,-40.2463"/>
<text text-anchor="start" x="441.532" y="-57.8" font-family="mono" font-size="14.00" fill="#c83500">forms</text>
<text text-anchor="middle" x="395.405" y="-39.9201" font-family="Times,serif" font-size="14.00">1..*</text>
</g>
<!-- InteractionAffordance&#45;&gt;DataSchema -->
<g id="edge13" class="edge"><title>InteractionAffordance&#45;&gt;DataSchema</title>
<path fill="none" stroke="black" d="M503.385,-86.9995C506.096,-74.979 511.163,-62.4095 520.532,-54 539.304,-37.1482 601.2,-28.0588 649.7,-23.4032"/>
<polygon fill="black" stroke="black" points="650.186,-26.8734 659.825,-22.4759 649.548,-19.9026 650.186,-26.8734"/>
<text text-anchor="start" x="520.532" y="-57.8" font-family="mono" font-size="14.00" fill="#c83500">uriVariables</text>
<text text-anchor="middle" x="648.825" y="-26.2759" font-family="Times,serif" font-size="14.00">0..1</text>
</g>
<!-- EventAffordance&#45;&gt;InteractionAffordance -->
<g id="edge22" class="edge"><title>EventAffordance&#45;&gt;InteractionAffordance</title>
<path fill="none" stroke="black" d="M839.057,-226.372C825.167,-220.491 809.276,-214.109 794.532,-209 715.157,-181.495 693.124,-181.7 612.532,-158 611.269,-157.629 609.998,-157.254 608.722,-156.877"/>
<polygon fill="white" stroke="black" points="609.408,-153.429 598.825,-153.934 607.412,-160.139 609.408,-153.429"/>
</g>
<!-- EventAffordance&#45;&gt;DataSchema -->
<g id="edge16" class="edge"><title>EventAffordance&#45;&gt;DataSchema</title>
<path fill="none" stroke="black" d="M887.629,-226.203C904.195,-195.306 932.466,-129.859 902.532,-87 874.056,-46.2297 818.746,-29.7655 775.113,-23.1877"/>
<polygon fill="black" stroke="black" points="775.53,-19.7122 765.147,-21.8237 774.58,-26.6475 775.53,-19.7122"/>
<text text-anchor="start" x="916.532" y="-118.8" font-family="mono" font-size="14.00" fill="#c83500">data</text>
<text text-anchor="middle" x="776.147" y="-10.6237" font-family="Times,serif" font-size="14.00">0..1</text>
</g>
<!-- EventAffordance&#45;&gt;DataSchema -->
<g id="edge17" class="edge"><title>EventAffordance&#45;&gt;DataSchema</title>
<path fill="none" stroke="black" d="M900.31,-226.36C918.873,-210.847 943.72,-186.16 954.532,-158 965.841,-128.541 970.954,-113.945 954.532,-87 935.802,-56.27 840.763,-36.9118 775.512,-27.0275"/>
<polygon fill="black" stroke="black" points="775.715,-23.5197 765.311,-25.5221 774.693,-30.4447 775.715,-23.5197"/>
<text text-anchor="start" x="965.532" y="-118.8" font-family="mono" font-size="14.00" fill="#c83500">subscription</text>
<text text-anchor="middle" x="776.311" y="-29.3221" font-family="Times,serif" font-size="14.00">0..1</text>
</g>
<!-- EventAffordance&#45;&gt;DataSchema -->
<g id="edge18" class="edge"><title>EventAffordance&#45;&gt;DataSchema</title>
<path fill="none" stroke="black" d="M859.841,-226.363C843.096,-209.695 817.733,-183.26 798.532,-158 783.384,-138.073 748.273,-79.6015 727.907,-45.1717"/>
<polygon fill="black" stroke="black" points="730.679,-42.9832 722.582,-36.1503 724.651,-46.5412 730.679,-42.9832"/>
<text text-anchor="start" x="798.532" y="-118.8" font-family="mono" font-size="14.00" fill="#c83500">cancellation</text>
<text text-anchor="middle" x="733.582" y="-39.9503" font-family="Times,serif" font-size="14.00">0..1</text>
</g>
</g>
</svg>
