<?xml version="1.0" encoding="UTF-8" standalone="no"?>
<!DOCTYPE svg PUBLIC "-//W3C//DTD SVG 1.1//EN"
 "http://www.w3.org/Graphics/SVG/1.1/DTD/svg11.dtd">
<!-- Generated by graphviz version 2.40.1 (20161225.0304)
 -->
<!-- Title: %3 Pages: 1 -->
<svg width="1447pt" height="903pt"
 viewBox="0.00 0.00 1447.00 903.00" xmlns="http://www.w3.org/2000/svg" xmlns:xlink="http://www.w3.org/1999/xlink">
<g id="graph0" class="graph" transform="scale(1 1) rotate(0) translate(4 899)">
<title>%3</title>
<polygon fill="#ffffff" stroke="transparent" points="-4,4 -4,-899 1443,-899 1443,4 -4,4"/>
<!-- MultiLanguage -->
<g id="node1" class="node">
<title>MultiLanguage</title>
<polygon fill="#8ccbf2" stroke="transparent" points="278,-167.5 278,-188.5 392,-188.5 392,-167.5 278,-167.5"/>
<polygon fill="none" stroke="#8ccbf2" points="278,-167.5 278,-188.5 392,-188.5 392,-167.5 278,-167.5"/>
<text text-anchor="start" x="281" y="-175.3" font-family="mono" font-weight="bold" font-size="14.00" fill="#c83500">MultiLanguage</text>
</g>
<!-- InteractionPattern -->
<g id="node2" class="node">
<title>InteractionPattern</title>
<polygon fill="#8ccbf2" stroke="transparent" points="321,-416 321,-437 504,-437 504,-416 321,-416"/>
<polygon fill="none" stroke="#8ccbf2" points="321,-416 321,-437 504,-437 504,-416 321,-416"/>
<text text-anchor="start" x="338" y="-423.8" font-family="mono" font-weight="bold" font-size="14.00" fill="#c83500">InteractionPattern</text>
<polygon fill="#ddeeff" stroke="transparent" points="321,-395 321,-416 504,-416 504,-395 321,-395"/>
<polygon fill="none" stroke="#8ccbf2" points="321,-395 321,-416 504,-416 504,-395 321,-395"/>
<text text-anchor="start" x="324" y="-402.8" font-family="mono" font-size="14.00" fill="#c83500">@type</text>
<text text-anchor="start" x="366" y="-402.8" font-family="Times,serif" font-size="14.00" fill="#000000"> : </text>
<text text-anchor="start" x="378" y="-402.8" font-family="Times,serif" font-style="italic" font-size="14.00" fill="#000000">array of </text>
<text text-anchor="start" x="429" y="-402.8" font-family="mono" font-size="14.00" fill="#c83500">string</text>
<polygon fill="#ddeeff" stroke="transparent" points="321,-374 321,-395 504,-395 504,-374 321,-374"/>
<polygon fill="none" stroke="#8ccbf2" points="321,-374 321,-395 504,-395 504,-374 321,-374"/>
<text text-anchor="start" x="324" y="-381.8" font-family="mono" font-size="14.00" fill="#c83500">description</text>
<text text-anchor="start" x="415" y="-381.8" font-family="Times,serif" font-size="14.00" fill="#000000"> : </text>
<text text-anchor="start" x="427" y="-381.8" font-family="mono" font-size="14.00" fill="#c83500">string</text>
<polygon fill="#ddeeff" stroke="transparent" points="321,-353 321,-374 504,-374 504,-353 321,-353"/>
<polygon fill="none" stroke="#8ccbf2" points="321,-353 321,-374 504,-374 504,-353 321,-353"/>
<text text-anchor="start" x="324" y="-360.8" font-family="mono" font-size="14.00" fill="#c83500">security</text>
<text text-anchor="start" x="391" y="-360.8" font-family="Times,serif" font-size="14.00" fill="#000000"> : array of </text>
<text text-anchor="start" x="451" y="-360.8" font-family="mono" font-size="14.00" fill="#c83500">string</text>
<polygon fill="#ddeeff" stroke="transparent" points="321,-332 321,-353 504,-353 504,-332 321,-332"/>
<polygon fill="none" stroke="#8ccbf2" points="321,-332 321,-353 504,-353 504,-332 321,-332"/>
<text text-anchor="start" x="324" y="-339.8" font-family="mono" font-size="14.00" fill="#c83500">title</text>
<text text-anchor="start" x="366" y="-339.8" font-family="Times,serif" font-size="14.00" fill="#000000"> : </text>
<text text-anchor="start" x="378" y="-339.8" font-family="mono" font-size="14.00" fill="#c83500">string</text>
<polygon fill="#ddeeff" stroke="transparent" points="321,-311 321,-332 504,-332 504,-311 321,-311"/>
<polygon fill="none" stroke="#8ccbf2" points="321,-311 321,-332 504,-332 504,-311 321,-311"/>
<text text-anchor="start" x="324" y="-318.8" font-family="mono" font-size="14.00" fill="#c83500">scopes</text>
<text text-anchor="start" x="374" y="-318.8" font-family="Times,serif" font-size="14.00" fill="#000000"> : array of </text>
<text text-anchor="start" x="434" y="-318.8" font-family="mono" font-size="14.00" fill="#c83500">string</text>
</g>
<!-- InteractionPattern&#45;&gt;MultiLanguage -->
<g id="edge1" class="edge">
<title>InteractionPattern&#45;&gt;MultiLanguage</title>
<path fill="none" stroke="#000000" d="M312.3344,-318.3239C303.4436,-309.6321 295.6746,-299.8697 290,-289 275.4007,-261.035 294.0982,-227.2354 311.6423,-204.4406"/>
<polygon fill="#000000" stroke="#000000" points="314.4355,-206.5525 317.9899,-196.5717 308.9872,-202.1575 314.4355,-206.5525"/>
<text text-anchor="start" x="290" y="-277.8" font-family="mono" font-size="14.00" fill="#c83500">descriptions</text>
<text text-anchor="middle" x="306.4899" y="-200.3717" font-family="Times,serif" font-size="14.00" fill="#000000">0..1</text>
</g>
<!-- InteractionPattern&#45;&gt;MultiLanguage -->
<g id="edge2" class="edge">
<title>InteractionPattern&#45;&gt;MultiLanguage</title>
<path fill="none" stroke="#000000" d="M400.2384,-306.9946C397.4313,-295.8024 394.0449,-284.4431 390,-274 380.4981,-249.4682 365.3366,-223.7384 353.3362,-205.1747"/>
<polygon fill="#000000" stroke="#000000" points="356.161,-203.1004 347.7378,-196.6739 350.3149,-206.9505 356.161,-203.1004"/>
<text text-anchor="start" x="395" y="-277.8" font-family="mono" font-size="14.00" fill="#c83500">titles</text>
<text text-anchor="middle" x="336.2378" y="-200.4739" font-family="Times,serif" font-size="14.00" fill="#000000">0..1</text>
</g>
<!-- Form -->
<g id="node4" class="node">
<title>Form</title>
<polygon fill="#8ccbf2" stroke="transparent" points="8,-230.5 8,-251.5 244,-251.5 244,-230.5 8,-230.5"/>
<polygon fill="none" stroke="#8ccbf2" points="8,-230.5 8,-251.5 244,-251.5 244,-230.5 8,-230.5"/>
<text text-anchor="start" x="109" y="-238.3" font-family="mono" font-weight="bold" font-size="14.00" fill="#c83500">Form</text>
<polygon fill="#ddeeff" stroke="transparent" points="8,-209.5 8,-230.5 244,-230.5 244,-209.5 8,-209.5"/>
<polygon fill="none" stroke="#8ccbf2" points="8,-209.5 8,-230.5 244,-230.5 244,-209.5 8,-209.5"/>
<text text-anchor="start" x="11" y="-217.3" font-family="mono" font-size="14.00" fill="#c83500">op</text>
<text text-anchor="start" x="28" y="-217.3" font-family="Times,serif" font-size="14.00" fill="#000000"> : </text>
<text text-anchor="start" x="40" y="-217.3" font-family="mono" font-size="14.00" fill="#c83500">string</text>
<polygon fill="#ddeeff" stroke="transparent" points="8,-188.5 8,-209.5 244,-209.5 244,-188.5 8,-188.5"/>
<polygon fill="none" stroke="#8ccbf2" points="8,-188.5 8,-209.5 244,-209.5 244,-188.5 8,-188.5"/>
<text text-anchor="start" x="11" y="-196.3" font-family="mono" font-size="14.00" fill="#c83500">subprotocol</text>
<text text-anchor="start" x="102" y="-196.3" font-family="Times,serif" font-size="14.00" fill="#000000"> : </text>
<text text-anchor="start" x="114" y="-196.3" font-family="mono" font-size="14.00" fill="#c83500">string</text>
<polygon fill="#ddeeff" stroke="transparent" points="8,-167.5 8,-188.5 244,-188.5 244,-167.5 8,-167.5"/>
<polygon fill="none" stroke="#8ccbf2" points="8,-167.5 8,-188.5 244,-188.5 244,-167.5 8,-167.5"/>
<text text-anchor="start" x="11" y="-175.3" font-family="mono" font-size="14.00" fill="#c83500">security</text>
<text text-anchor="start" x="78" y="-175.3" font-family="Times,serif" font-size="14.00" fill="#000000"> : array of </text>
<text text-anchor="start" x="138" y="-175.3" font-family="mono" font-size="14.00" fill="#c83500">string</text>
<polygon fill="#ddeeff" stroke="transparent" points="8,-146.5 8,-167.5 244,-167.5 244,-146.5 8,-146.5"/>
<polygon fill="none" stroke="#8ccbf2" points="8,-146.5 8,-167.5 244,-167.5 244,-146.5 8,-146.5"/>
<text text-anchor="start" x="11" y="-154.3" font-family="mono" font-size="14.00" fill="#c83500">href</text>
<text text-anchor="start" x="45" y="-154.3" font-family="Times,serif" font-size="14.00" fill="#000000"> : </text>
<text text-anchor="start" x="57" y="-154.3" font-family="mono" font-size="14.00" fill="#c83500">anyURI</text>
<text text-anchor="start" x="107" y="-154.3" font-family="Times,serif" font-size="14.00" fill="#000000"> </text>
<text text-anchor="start" x="111" y="-154.3" font-family="Times,serif" font-style="italic" font-size="14.00" fill="#000000">(mandatory)</text>
<polygon fill="#ddeeff" stroke="transparent" points="8,-125.5 8,-146.5 244,-146.5 244,-125.5 8,-125.5"/>
<polygon fill="none" stroke="#8ccbf2" points="8,-125.5 8,-146.5 244,-146.5 244,-125.5 8,-125.5"/>
<text text-anchor="start" x="11" y="-133.3" font-family="mono" font-size="14.00" fill="#c83500">scopes</text>
<text text-anchor="start" x="61" y="-133.3" font-family="Times,serif" font-size="14.00" fill="#000000"> : array of </text>
<text text-anchor="start" x="121" y="-133.3" font-family="mono" font-size="14.00" fill="#c83500">string</text>
<polygon fill="#ddeeff" stroke="transparent" points="8,-104.5 8,-125.5 244,-125.5 244,-104.5 8,-104.5"/>
<polygon fill="none" stroke="#8ccbf2" points="8,-104.5 8,-125.5 244,-125.5 244,-104.5 8,-104.5"/>
<text text-anchor="start" x="11" y="-112.3" font-family="mono" font-size="14.00" fill="#c83500">contentType</text>
<text text-anchor="start" x="102" y="-112.3" font-family="Times,serif" font-size="14.00" fill="#000000"> : </text>
<text text-anchor="start" x="114" y="-112.3" font-family="mono" font-size="14.00" fill="#c83500">string</text>
<text text-anchor="start" x="164" y="-112.3" font-family="Times,serif" font-size="14.00" fill="#000000"> </text>
<text text-anchor="start" x="168" y="-112.3" font-family="Times,serif" font-style="italic" font-size="14.00" fill="#000000">(mandatory)</text>
</g>
<!-- InteractionPattern&#45;&gt;Form -->
<g id="edge4" class="edge">
<title>InteractionPattern&#45;&gt;Form</title>
<path fill="none" stroke="#000000" d="M312.1177,-331.1728C287.6728,-318.9489 262.1819,-304.649 240,-289 228.854,-281.1366 217.7571,-272.1841 207.1069,-262.8573"/>
<polygon fill="#000000" stroke="#000000" points="209.2274,-260.0585 199.4365,-256.01 204.5657,-265.2805 209.2274,-260.0585"/>
<text text-anchor="start" x="240" y="-277.8" font-family="mono" font-size="14.00" fill="#c83500">forms</text>
<text text-anchor="middle" x="187.9365" y="-259.81" font-family="Times,serif" font-size="14.00" fill="#000000">1..*</text>
</g>
<!-- DataSchema -->
<g id="node11" class="node">
<title>DataSchema</title>
<polygon fill="#f2f2f2" stroke="transparent" points="677,-167.5 677,-188.5 766,-188.5 766,-167.5 677,-167.5"/>
<polygon fill="none" stroke="#8c8c8c" points="677,-167.5 677,-188.5 766,-188.5 766,-167.5 677,-167.5"/>
<text text-anchor="start" x="680" y="-175.3" font-family="mono" font-weight="bold" font-size="14.00" fill="#000000">DataSchema</text>
</g>
<!-- InteractionPattern&#45;&gt;DataSchema -->
<g id="edge3" class="edge">
<title>InteractionPattern&#45;&gt;DataSchema</title>
<path fill="none" stroke="#000000" d="M453.7166,-306.7599C463.2665,-294.7772 474.1406,-283.2015 486,-274 537.5387,-234.012 608.1119,-208.3264 658.4375,-193.7798"/>
<polygon fill="#000000" stroke="#000000" points="659.548,-197.1032 668.2211,-191.0181 657.6463,-190.3665 659.548,-197.1032"/>
<text text-anchor="start" x="486" y="-277.8" font-family="mono" font-size="14.00" fill="#c83500">uriVariables</text>
<text text-anchor="middle" x="656.7211" y="-194.8181" font-family="Times,serif" font-size="14.00" fill="#000000">0..1</text>
</g>
<!-- Link -->
<g id="node3" class="node">
<title>Link</title>
<polygon fill="#8ccbf2" stroke="transparent" points="850,-579.5 850,-600.5 1029,-600.5 1029,-579.5 850,-579.5"/>
<polygon fill="none" stroke="#8ccbf2" points="850,-579.5 850,-600.5 1029,-600.5 1029,-579.5 850,-579.5"/>
<text text-anchor="start" x="922.5" y="-587.3" font-family="mono" font-weight="bold" font-size="14.00" fill="#c83500">Link</text>
<polygon fill="#ddeeff" stroke="transparent" points="850,-558.5 850,-579.5 1029,-579.5 1029,-558.5 850,-558.5"/>
<polygon fill="none" stroke="#8ccbf2" points="850,-558.5 850,-579.5 1029,-579.5 1029,-558.5 850,-558.5"/>
<text text-anchor="start" x="853" y="-566.3" font-family="mono" font-size="14.00" fill="#c83500">rel</text>
<text text-anchor="start" x="878" y="-566.3" font-family="Times,serif" font-size="14.00" fill="#000000"> : </text>
<text text-anchor="start" x="890" y="-566.3" font-family="mono" font-size="14.00" fill="#c83500">string</text>
<polygon fill="#ddeeff" stroke="transparent" points="850,-537.5 850,-558.5 1029,-558.5 1029,-537.5 850,-537.5"/>
<polygon fill="none" stroke="#8ccbf2" points="850,-537.5 850,-558.5 1029,-558.5 1029,-537.5 850,-537.5"/>
<text text-anchor="start" x="853" y="-545.3" font-family="mono" font-size="14.00" fill="#c83500">type</text>
<text text-anchor="start" x="887" y="-545.3" font-family="Times,serif" font-size="14.00" fill="#000000"> : </text>
<text text-anchor="start" x="899" y="-545.3" font-family="mono" font-size="14.00" fill="#c83500">string</text>
<polygon fill="#ddeeff" stroke="transparent" points="850,-516.5 850,-537.5 1029,-537.5 1029,-516.5 850,-516.5"/>
<polygon fill="none" stroke="#8ccbf2" points="850,-516.5 850,-537.5 1029,-537.5 1029,-516.5 850,-516.5"/>
<text text-anchor="start" x="853" y="-524.3" font-family="mono" font-size="14.00" fill="#c83500">anchor</text>
<text text-anchor="start" x="903" y="-524.3" font-family="Times,serif" font-size="14.00" fill="#000000"> : </text>
<text text-anchor="start" x="915" y="-524.3" font-family="mono" font-size="14.00" fill="#c83500">anyURI</text>
<polygon fill="#ddeeff" stroke="transparent" points="850,-495.5 850,-516.5 1029,-516.5 1029,-495.5 850,-495.5"/>
<polygon fill="none" stroke="#8ccbf2" points="850,-495.5 850,-516.5 1029,-516.5 1029,-495.5 850,-495.5"/>
<text text-anchor="start" x="853" y="-503.3" font-family="mono" font-size="14.00" fill="#c83500">href</text>
<text text-anchor="start" x="887" y="-503.3" font-family="Times,serif" font-size="14.00" fill="#000000"> : </text>
<text text-anchor="start" x="899" y="-503.3" font-family="mono" font-size="14.00" fill="#c83500">anyURI</text>
<text text-anchor="start" x="949" y="-503.3" font-family="Times,serif" font-size="14.00" fill="#000000"> </text>
<text text-anchor="start" x="953" y="-503.3" font-family="Times,serif" font-style="italic" font-size="14.00" fill="#000000">(mandatory)</text>
</g>
<!-- ExpectedResponse -->
<g id="node7" class="node">
<title>ExpectedResponse</title>
<polygon fill="#8ccbf2" stroke="transparent" points="47,-25 47,-46 206,-46 206,-25 47,-25"/>
<polygon fill="none" stroke="#8ccbf2" points="47,-25 47,-46 206,-46 206,-25 47,-25"/>
<text text-anchor="start" x="60" y="-32.8" font-family="mono" font-weight="bold" font-size="14.00" fill="#c83500">ExpectedResponse</text>
<polygon fill="#ddeeff" stroke="transparent" points="47,-4 47,-25 206,-25 206,-4 47,-4"/>
<polygon fill="none" stroke="#8ccbf2" points="47,-4 47,-25 206,-25 206,-4 47,-4"/>
<text text-anchor="start" x="50" y="-11.8" font-family="mono" font-size="14.00" fill="#c83500">contentType</text>
<text text-anchor="start" x="141" y="-11.8" font-family="Times,serif" font-size="14.00" fill="#000000"> : </text>
<text text-anchor="start" x="153" y="-11.8" font-family="mono" font-size="14.00" fill="#c83500">string</text>
</g>
<!-- Form&#45;&gt;ExpectedResponse -->
<g id="edge5" class="edge">
<title>Form&#45;&gt;ExpectedResponse</title>
<path fill="none" stroke="#000000" d="M126,-100.8506C126,-86.7022 126,-72.5946 126,-60.4513"/>
<polygon fill="#000000" stroke="#000000" points="129.5001,-60.3339 126,-50.334 122.5001,-60.334 129.5001,-60.3339"/>
<text text-anchor="start" x="126" y="-71.8" font-family="mono" font-size="14.00" fill="#c83500">response</text>
<text text-anchor="middle" x="114.5" y="-54.134" font-family="Times,serif" font-size="14.00" fill="#000000">0..1</text>
</g>
<!-- Thing -->
<g id="node5" class="node">
<title>Thing</title>
<polygon fill="#8ccbf2" stroke="transparent" points="568,-869.5 568,-890.5 839,-890.5 839,-869.5 568,-869.5"/>
<polygon fill="none" stroke="#8ccbf2" points="568,-869.5 568,-890.5 839,-890.5 839,-869.5 568,-869.5"/>
<text text-anchor="start" x="682.5" y="-877.3" font-family="mono" font-weight="bold" font-size="14.00" fill="#c83500">Thing</text>
<polygon fill="#ddeeff" stroke="transparent" points="568,-848.5 568,-869.5 839,-869.5 839,-848.5 568,-848.5"/>
<polygon fill="none" stroke="#8ccbf2" points="568,-848.5 568,-869.5 839,-869.5 839,-848.5 568,-848.5"/>
<text text-anchor="start" x="571" y="-856.3" font-family="mono" font-size="14.00" fill="#c83500">@context</text>
<text text-anchor="start" x="638" y="-856.3" font-family="Times,serif" font-size="14.00" fill="#000000"> : </text>
<text text-anchor="start" x="650" y="-856.3" font-family="Times,serif" font-style="italic" font-size="14.00" fill="#000000">array of </text>
<text text-anchor="start" x="701" y="-856.3" font-family="mono" font-size="14.00" fill="#c83500">context</text>
<text text-anchor="start" x="759" y="-856.3" font-family="Times,serif" font-size="14.00" fill="#000000"> </text>
<text text-anchor="start" x="763" y="-856.3" font-family="Times,serif" font-style="italic" font-size="14.00" fill="#000000">(mandatory)</text>
<polygon fill="#ddeeff" stroke="transparent" points="568,-827.5 568,-848.5 839,-848.5 839,-827.5 568,-827.5"/>
<polygon fill="none" stroke="#8ccbf2" points="568,-827.5 568,-848.5 839,-848.5 839,-827.5 568,-827.5"/>
<text text-anchor="start" x="571" y="-835.3" font-family="mono" font-size="14.00" fill="#c83500">@type</text>
<text text-anchor="start" x="613" y="-835.3" font-family="Times,serif" font-size="14.00" fill="#000000"> : </text>
<text text-anchor="start" x="625" y="-835.3" font-family="Times,serif" font-style="italic" font-size="14.00" fill="#000000">array of </text>
<text text-anchor="start" x="676" y="-835.3" font-family="mono" font-size="14.00" fill="#c83500">string</text>
<polygon fill="#ddeeff" stroke="transparent" points="568,-806.5 568,-827.5 839,-827.5 839,-806.5 568,-806.5"/>
<polygon fill="none" stroke="#8ccbf2" points="568,-806.5 568,-827.5 839,-827.5 839,-806.5 568,-806.5"/>
<text text-anchor="start" x="571" y="-814.3" font-family="mono" font-size="14.00" fill="#c83500">id</text>
<text text-anchor="start" x="588" y="-814.3" font-family="Times,serif" font-size="14.00" fill="#000000"> : </text>
<text text-anchor="start" x="600" y="-814.3" font-family="mono" font-size="14.00" fill="#c83500">anyURI</text>
<text text-anchor="start" x="650" y="-814.3" font-family="Times,serif" font-size="14.00" fill="#000000"> </text>
<text text-anchor="start" x="654" y="-814.3" font-family="Times,serif" font-style="italic" font-size="14.00" fill="#000000">(mandatory)</text>
<polygon fill="#ddeeff" stroke="transparent" points="568,-785.5 568,-806.5 839,-806.5 839,-785.5 568,-785.5"/>
<polygon fill="none" stroke="#8ccbf2" points="568,-785.5 568,-806.5 839,-806.5 839,-785.5 568,-785.5"/>
<text text-anchor="start" x="571" y="-793.3" font-family="mono" font-size="14.00" fill="#c83500">name</text>
<text text-anchor="start" x="605" y="-793.3" font-family="Times,serif" font-size="14.00" fill="#000000"> : </text>
<text text-anchor="start" x="617" y="-793.3" font-family="mono" font-size="14.00" fill="#c83500">string</text>
<text text-anchor="start" x="667" y="-793.3" font-family="Times,serif" font-size="14.00" fill="#000000"> </text>
<text text-anchor="start" x="671" y="-793.3" font-family="Times,serif" font-style="italic" font-size="14.00" fill="#000000">(mandatory)</text>
<polygon fill="#ddeeff" stroke="transparent" points="568,-764.5 568,-785.5 839,-785.5 839,-764.5 568,-764.5"/>
<polygon fill="none" stroke="#8ccbf2" points="568,-764.5 568,-785.5 839,-785.5 839,-764.5 568,-764.5"/>
<text text-anchor="start" x="571" y="-772.3" font-family="mono" font-size="14.00" fill="#c83500">lastModified</text>
<text text-anchor="start" x="671" y="-772.3" font-family="Times,serif" font-size="14.00" fill="#000000"> : </text>
<text text-anchor="start" x="683" y="-772.3" font-family="mono" font-size="14.00" fill="#c83500">string</text>
<polygon fill="#ddeeff" stroke="transparent" points="568,-743.5 568,-764.5 839,-764.5 839,-743.5 568,-743.5"/>
<polygon fill="none" stroke="#8ccbf2" points="568,-743.5 568,-764.5 839,-764.5 839,-743.5 568,-743.5"/>
<text text-anchor="start" x="571" y="-751.3" font-family="mono" font-size="14.00" fill="#c83500">support</text>
<text text-anchor="start" x="629" y="-751.3" font-family="Times,serif" font-size="14.00" fill="#000000"> : </text>
<text text-anchor="start" x="641" y="-751.3" font-family="mono" font-size="14.00" fill="#c83500">string</text>
<polygon fill="#ddeeff" stroke="transparent" points="568,-722.5 568,-743.5 839,-743.5 839,-722.5 568,-722.5"/>
<polygon fill="none" stroke="#8ccbf2" points="568,-722.5 568,-743.5 839,-743.5 839,-722.5 568,-722.5"/>
<text text-anchor="start" x="571" y="-730.3" font-family="mono" font-size="14.00" fill="#c83500">base</text>
<text text-anchor="start" x="605" y="-730.3" font-family="Times,serif" font-size="14.00" fill="#000000"> : </text>
<text text-anchor="start" x="617" y="-730.3" font-family="mono" font-size="14.00" fill="#c83500">anyURI</text>
<polygon fill="#ddeeff" stroke="transparent" points="568,-701.5 568,-722.5 839,-722.5 839,-701.5 568,-701.5"/>
<polygon fill="none" stroke="#8ccbf2" points="568,-701.5 568,-722.5 839,-722.5 839,-701.5 568,-701.5"/>
<text text-anchor="start" x="571" y="-709.3" font-family="mono" font-size="14.00" fill="#c83500">description</text>
<text text-anchor="start" x="662" y="-709.3" font-family="Times,serif" font-size="14.00" fill="#000000"> : </text>
<text text-anchor="start" x="674" y="-709.3" font-family="mono" font-size="14.00" fill="#c83500">string</text>
<polygon fill="#ddeeff" stroke="transparent" points="568,-680.5 568,-701.5 839,-701.5 839,-680.5 568,-680.5"/>
<polygon fill="none" stroke="#8ccbf2" points="568,-680.5 568,-701.5 839,-701.5 839,-680.5 568,-680.5"/>
<text text-anchor="start" x="571" y="-688.3" font-family="mono" font-size="14.00" fill="#c83500">created</text>
<text text-anchor="start" x="629" y="-688.3" font-family="Times,serif" font-size="14.00" fill="#000000"> : </text>
<text text-anchor="start" x="641" y="-688.3" font-family="mono" font-size="14.00" fill="#c83500">string</text>
<polygon fill="#ddeeff" stroke="transparent" points="568,-659.5 568,-680.5 839,-680.5 839,-659.5 568,-659.5"/>
<polygon fill="none" stroke="#8ccbf2" points="568,-659.5 568,-680.5 839,-680.5 839,-659.5 568,-659.5"/>
<text text-anchor="start" x="571" y="-667.3" font-family="mono" font-size="14.00" fill="#c83500">security</text>
<text text-anchor="start" x="638" y="-667.3" font-family="Times,serif" font-size="14.00" fill="#000000"> : array of </text>
<text text-anchor="start" x="698" y="-667.3" font-family="mono" font-size="14.00" fill="#c83500">string</text>
<text text-anchor="start" x="748" y="-667.3" font-family="Times,serif" font-size="14.00" fill="#000000"> </text>
<text text-anchor="start" x="752" y="-667.3" font-family="Times,serif" font-style="italic" font-size="14.00" fill="#000000">(mandatory)</text>
</g>
<!-- Thing&#45;&gt;MultiLanguage -->
<g id="edge11" class="edge">
<title>Thing&#45;&gt;MultiLanguage</title>
<path fill="none" stroke="#000000" d="M559.2029,-745.1456C429.0097,-714.4011 251.4418,-663.1824 210,-605 181.3844,-564.825 177.8193,-333.7333 219,-274 230.5271,-257.2797 244.3156,-267.5791 261,-256 281.5633,-241.7289 300.9524,-221.0512 314.7214,-204.6432"/>
<polygon fill="#000000" stroke="#000000" points="317.7557,-206.4622 321.3858,-196.5087 312.3409,-202.026 317.7557,-206.4622"/>
<text text-anchor="start" x="189" y="-462.8" font-family="mono" font-size="14.00" fill="#c83500">descriptions</text>
<text text-anchor="middle" x="309.8858" y="-200.3087" font-family="Times,serif" font-size="14.00" fill="#000000">0..1</text>
</g>
<!-- Thing&#45;&gt;Link -->
<g id="edge10" class="edge">
<title>Thing&#45;&gt;Link</title>
<path fill="none" stroke="#000000" d="M827.5653,-655.685C843.1344,-640.7098 858.5505,-625.8815 872.7251,-612.2474"/>
<polygon fill="#000000" stroke="#000000" points="875.2377,-614.687 880.0186,-605.2321 870.3851,-609.6419 875.2377,-614.687"/>
<text text-anchor="start" x="856" y="-626.8" font-family="mono" font-size="14.00" fill="#c83500">links</text>
<text text-anchor="middle" x="868.5186" y="-609.0321" font-family="Times,serif" font-size="14.00" fill="#000000">0..*</text>
</g>
<!-- Thing&#45;&gt;Form -->
<g id="edge7" class="edge">
<title>Thing&#45;&gt;Form</title>
<path fill="none" stroke="#000000" d="M559.4929,-748.4872C421.7348,-719.1883 228.4762,-668.0498 186,-605 117.8449,-503.8336 112.1879,-358.4094 117.0523,-266.2151"/>
<polygon fill="#000000" stroke="#000000" points="120.5553,-266.2624 117.641,-256.0763 113.5671,-265.8566 120.5553,-266.2624"/>
<text text-anchor="start" x="132" y="-462.8" font-family="mono" font-size="14.00" fill="#c83500">forms</text>
<text text-anchor="middle" x="106.141" y="-259.8763" font-family="Times,serif" font-size="14.00" fill="#000000">0..*</text>
</g>
<!-- Property -->
<g id="node6" class="node">
<title>Property</title>
<polygon fill="#8ccbf2" stroke="transparent" points="227,-548.5 227,-569.5 463,-569.5 463,-548.5 227,-548.5"/>
<polygon fill="none" stroke="#8ccbf2" points="227,-548.5 227,-569.5 463,-569.5 463,-548.5 227,-548.5"/>
<text text-anchor="start" x="311.5" y="-556.3" font-family="mono" font-weight="bold" font-size="14.00" fill="#c83500">Property</text>
<polygon fill="#ddeeff" stroke="transparent" points="227,-527.5 227,-548.5 463,-548.5 463,-527.5 227,-527.5"/>
<polygon fill="none" stroke="#8ccbf2" points="227,-527.5 227,-548.5 463,-548.5 463,-527.5 227,-527.5"/>
<text text-anchor="start" x="230" y="-535.3" font-family="mono" font-size="14.00" fill="#c83500">observable</text>
<text text-anchor="start" x="313" y="-535.3" font-family="Times,serif" font-size="14.00" fill="#000000"> : </text>
<text text-anchor="start" x="325" y="-535.3" font-family="mono" font-size="14.00" fill="#c83500">boolean</text>
<text text-anchor="start" x="383" y="-535.3" font-family="Times,serif" font-size="14.00" fill="#000000"> </text>
<text text-anchor="start" x="387" y="-535.3" font-family="Times,serif" font-style="italic" font-size="14.00" fill="#000000">(mandatory)</text>
</g>
<!-- Thing&#45;&gt;Property -->
<g id="edge12" class="edge">
<title>Thing&#45;&gt;Property</title>
<path fill="none" stroke="#000000" d="M559.4505,-684.4784C500.3037,-646.9747 435.7775,-606.06 393.1198,-579.0117"/>
<polygon fill="#000000" stroke="#000000" points="394.9433,-576.0237 384.6236,-573.6245 391.1947,-581.9354 394.9433,-576.0237"/>
<text text-anchor="start" x="482" y="-626.8" font-family="mono" font-size="14.00" fill="#c83500">properties</text>
<text text-anchor="middle" x="373.1236" y="-577.4245" font-family="Times,serif" font-size="14.00" fill="#000000">0..1</text>
</g>
<!-- Action -->
<g id="node8" class="node">
<title>Action</title>
<polygon fill="#8ccbf2" stroke="transparent" points="497,-558.5 497,-579.5 733,-579.5 733,-558.5 497,-558.5"/>
<polygon fill="none" stroke="#8ccbf2" points="497,-558.5 497,-579.5 733,-579.5 733,-558.5 497,-558.5"/>
<text text-anchor="start" x="590" y="-566.3" font-family="mono" font-weight="bold" font-size="14.00" fill="#c83500">Action</text>
<polygon fill="#ddeeff" stroke="transparent" points="497,-537.5 497,-558.5 733,-558.5 733,-537.5 497,-537.5"/>
<polygon fill="none" stroke="#8ccbf2" points="497,-537.5 497,-558.5 733,-558.5 733,-537.5 497,-537.5"/>
<text text-anchor="start" x="500" y="-545.3" font-family="mono" font-size="14.00" fill="#c83500">safe</text>
<text text-anchor="start" x="534" y="-545.3" font-family="Times,serif" font-size="14.00" fill="#000000"> : </text>
<text text-anchor="start" x="546" y="-545.3" font-family="mono" font-size="14.00" fill="#c83500">boolean</text>
<text text-anchor="start" x="604" y="-545.3" font-family="Times,serif" font-size="14.00" fill="#000000"> </text>
<text text-anchor="start" x="608" y="-545.3" font-family="Times,serif" font-style="italic" font-size="14.00" fill="#000000">(mandatory)</text>
<polygon fill="#ddeeff" stroke="transparent" points="497,-516.5 497,-537.5 733,-537.5 733,-516.5 497,-516.5"/>
<polygon fill="none" stroke="#8ccbf2" points="497,-516.5 497,-537.5 733,-537.5 733,-516.5 497,-516.5"/>
<text text-anchor="start" x="500" y="-524.3" font-family="mono" font-size="14.00" fill="#c83500">idempotent</text>
<text text-anchor="start" x="583" y="-524.3" font-family="Times,serif" font-size="14.00" fill="#000000"> : </text>
<text text-anchor="start" x="595" y="-524.3" font-family="mono" font-size="14.00" fill="#c83500">boolean</text>
<text text-anchor="start" x="653" y="-524.3" font-family="Times,serif" font-size="14.00" fill="#000000"> </text>
<text text-anchor="start" x="657" y="-524.3" font-family="Times,serif" font-style="italic" font-size="14.00" fill="#000000">(mandatory)</text>
</g>
<!-- Thing&#45;&gt;Action -->
<g id="edge6" class="edge">
<title>Thing&#45;&gt;Action</title>
<path fill="none" stroke="#000000" d="M656.5519,-655.685C647.9363,-633.4607 639.4462,-611.5602 632.4085,-593.4061"/>
<polygon fill="#000000" stroke="#000000" points="635.6404,-592.0597 628.7625,-584.0009 629.1137,-594.5899 635.6404,-592.0597"/>
<text text-anchor="start" x="649" y="-626.8" font-family="mono" font-size="14.00" fill="#c83500">actions</text>
<text text-anchor="middle" x="617.2625" y="-587.8009" font-family="Times,serif" font-size="14.00" fill="#000000">0..1</text>
</g>
<!-- Event -->
<g id="node9" class="node">
<title>Event</title>
<polygon fill="#8ccbf2" stroke="transparent" points="767,-537.5 767,-558.5 815,-558.5 815,-537.5 767,-537.5"/>
<polygon fill="none" stroke="#8ccbf2" points="767,-537.5 767,-558.5 815,-558.5 815,-537.5 767,-537.5"/>
<text text-anchor="start" x="770" y="-545.3" font-family="mono" font-weight="bold" font-size="14.00" fill="#c83500">Event</text>
</g>
<!-- Thing&#45;&gt;Event -->
<g id="edge13" class="edge">
<title>Thing&#45;&gt;Event</title>
<path fill="none" stroke="#000000" d="M749.4481,-655.685C761.0415,-625.7794 772.4075,-596.4603 780.3134,-576.0667"/>
<polygon fill="#000000" stroke="#000000" points="783.6573,-577.1238 784.0086,-566.5347 777.1306,-574.5935 783.6573,-577.1238"/>
<text text-anchor="start" x="761" y="-626.8" font-family="mono" font-size="14.00" fill="#c83500">events</text>
<text text-anchor="middle" x="772.5086" y="-570.3347" font-family="Times,serif" font-size="14.00" fill="#000000">0..1</text>
</g>
<!-- Versioning -->
<g id="node10" class="node">
<title>Versioning</title>
<polygon fill="#8ccbf2" stroke="transparent" points="1063,-548.5 1063,-569.5 1275,-569.5 1275,-548.5 1063,-548.5"/>
<polygon fill="none" stroke="#8ccbf2" points="1063,-548.5 1063,-569.5 1275,-569.5 1275,-548.5 1063,-548.5"/>
<text text-anchor="start" x="1127.5" y="-556.3" font-family="mono" font-weight="bold" font-size="14.00" fill="#c83500">Versioning</text>
<polygon fill="#ddeeff" stroke="transparent" points="1063,-527.5 1063,-548.5 1275,-548.5 1275,-527.5 1063,-527.5"/>
<polygon fill="none" stroke="#8ccbf2" points="1063,-527.5 1063,-548.5 1275,-548.5 1275,-527.5 1063,-527.5"/>
<text text-anchor="start" x="1066" y="-535.3" font-family="mono" font-size="14.00" fill="#c83500">instance</text>
<text text-anchor="start" x="1133" y="-535.3" font-family="Times,serif" font-size="14.00" fill="#000000"> : </text>
<text text-anchor="start" x="1145" y="-535.3" font-family="mono" font-size="14.00" fill="#c83500">string</text>
<text text-anchor="start" x="1195" y="-535.3" font-family="Times,serif" font-size="14.00" fill="#000000"> </text>
<text text-anchor="start" x="1199" y="-535.3" font-family="Times,serif" font-style="italic" font-size="14.00" fill="#000000">(mandatory)</text>
</g>
<!-- Thing&#45;&gt;Versioning -->
<g id="edge9" class="edge">
<title>Thing&#45;&gt;Versioning</title>
<path fill="none" stroke="#000000" d="M846.6178,-705.5403C934.6073,-662.6784 1042.6417,-610.0522 1108.6214,-577.9119"/>
<polygon fill="#000000" stroke="#000000" points="1110.1885,-581.0418 1117.6458,-573.5159 1107.1229,-574.7487 1110.1885,-581.0418"/>
<text text-anchor="start" x="1005" y="-626.8" font-family="mono" font-size="14.00" fill="#c83500">version</text>
<text text-anchor="middle" x="1106.1458" y="-577.3159" font-family="Times,serif" font-size="14.00" fill="#000000">0..1</text>
</g>
<!-- SecurityScheme -->
<g id="node12" class="node">
<title>SecurityScheme</title>
<polygon fill="#f2f2f2" stroke="transparent" points="1309,-537.5 1309,-558.5 1431,-558.5 1431,-537.5 1309,-537.5"/>
<polygon fill="none" stroke="#8c8c8c" points="1309,-537.5 1309,-558.5 1431,-558.5 1431,-537.5 1309,-537.5"/>
<text text-anchor="start" x="1312" y="-545.3" font-family="mono" font-weight="bold" font-size="14.00" fill="#000000">SecurityScheme</text>
</g>
<!-- Thing&#45;&gt;SecurityScheme -->
<g id="edge8" class="edge">
<title>Thing&#45;&gt;SecurityScheme</title>
<path fill="none" stroke="#000000" d="M846.6896,-748.4522C969.1841,-722.0345 1147.7989,-675.4287 1292,-605 1309.4581,-596.4733 1327.1373,-584.0472 1341.2402,-573.018"/>
<polygon fill="#000000" stroke="#000000" points="1343.4817,-575.707 1349.1019,-566.7256 1339.1075,-570.2419 1343.4817,-575.707"/>
<text text-anchor="start" x="1247" y="-626.8" font-family="mono" font-size="14.00" fill="#c83500">securityDefinitions</text>
<text text-anchor="middle" x="1337.6019" y="-570.5256" font-family="Times,serif" font-size="14.00" fill="#000000">1..1</text>
</g>
<!-- Property&#45;&gt;InteractionPattern -->
<g id="edge20" class="edge">
<title>Property&#45;&gt;InteractionPattern</title>
<path fill="none" stroke="#000000" d="M354.5995,-523.4984C361.947,-504.3618 372.4953,-476.889 382.5497,-450.7025"/>
<polygon fill="#ffffff" stroke="#000000" points="385.9078,-451.721 386.2248,-441.1309 379.3729,-449.2118 385.9078,-451.721"/>
</g>
<!-- Action&#45;&gt;InteractionPattern -->
<g id="edge21" class="edge">
<title>Action&#45;&gt;InteractionPattern</title>
<path fill="none" stroke="#000000" d="M573.4301,-512.7662C551.576,-493.9804 523.947,-470.2303 497.7523,-447.7132"/>
<polygon fill="#ffffff" stroke="#000000" points="499.9088,-444.9516 490.0439,-441.087 495.3457,-450.2599 499.9088,-444.9516"/>
</g>
<!-- Action&#45;&gt;DataSchema -->
<g id="edge14" class="edge">
<title>Action&#45;&gt;DataSchema</title>
<path fill="none" stroke="#000000" d="M607.4124,-512.817C598.7805,-464.515 588.8925,-376.3896 614,-307 629.2176,-264.9432 664.8714,-226.9675 690.8527,-203.3926"/>
<polygon fill="#000000" stroke="#000000" points="693.4105,-205.8026 698.5721,-196.55 688.7671,-200.5643 693.4105,-205.8026"/>
<text text-anchor="start" x="614" y="-370.3" font-family="mono" font-size="14.00" fill="#c83500">input</text>
<text text-anchor="middle" x="687.0721" y="-200.35" font-family="Times,serif" font-size="14.00" fill="#000000">0..1</text>
</g>
<!-- Action&#45;&gt;DataSchema -->
<g id="edge15" class="edge">
<title>Action&#45;&gt;DataSchema</title>
<path fill="none" stroke="#000000" d="M629.964,-512.5608C638.2676,-491.8537 648.4173,-465.2079 656,-441 669.8389,-396.8189 700.934,-264.9113 714.4829,-206.6705"/>
<polygon fill="#000000" stroke="#000000" points="717.9476,-207.2233 716.8004,-196.6907 711.129,-205.6398 717.9476,-207.2233"/>
<text text-anchor="start" x="691" y="-370.3" font-family="mono" font-size="14.00" fill="#c83500">output</text>
<text text-anchor="middle" x="728.3004" y="-200.4907" font-family="Times,serif" font-size="14.00" fill="#000000">0..1</text>
</g>
<!-- Event&#45;&gt;InteractionPattern -->
<g id="edge19" class="edge">
<title>Event&#45;&gt;InteractionPattern</title>
<path fill="none" stroke="#000000" d="M781.9068,-530.2466C774.8154,-517.7775 763.8521,-501.7985 750,-492 684.9054,-445.9542 653.2772,-467.2846 578,-441 559.5512,-434.5582 540.1509,-427.239 521.3793,-419.8619"/>
<polygon fill="#ffffff" stroke="#000000" points="522.5128,-416.5464 511.9264,-416.1219 519.9374,-423.0555 522.5128,-416.5464"/>
</g>
<!-- Event&#45;&gt;DataSchema -->
<g id="edge16" class="edge">
<title>Event&#45;&gt;DataSchema</title>
<path fill="none" stroke="#000000" d="M787.5764,-530.4037C776.2713,-470.6483 740.0742,-279.3208 726.347,-206.7629"/>
<polygon fill="#000000" stroke="#000000" points="729.715,-205.7366 724.417,-196.5615 722.837,-207.0379 729.715,-205.7366"/>
<text text-anchor="start" x="770" y="-370.3" font-family="mono" font-size="14.00" fill="#c83500">cancellation</text>
<text text-anchor="middle" x="712.917" y="-200.3615" font-family="Times,serif" font-size="14.00" fill="#000000">0..1</text>
</g>
<!-- Event&#45;&gt;DataSchema -->
<g id="edge17" class="edge">
<title>Event&#45;&gt;DataSchema</title>
<path fill="none" stroke="#000000" d="M803.6504,-530.4807C811.6178,-519.2806 822.2125,-504.6545 832,-492 849.9647,-468.773 864.0842,-468.6387 874,-441 894.1113,-384.9429 899.1571,-360.9813 874,-307 851.9145,-259.6096 802.7973,-223.4784 766.1357,-201.7764"/>
<polygon fill="#000000" stroke="#000000" points="767.519,-198.5339 757.1074,-196.5717 764.0229,-204.5983 767.519,-198.5339"/>
<text text-anchor="start" x="892" y="-370.3" font-family="mono" font-size="14.00" fill="#c83500">subscription</text>
<text text-anchor="middle" x="768.6074" y="-200.3717" font-family="Times,serif" font-size="14.00" fill="#000000">0..1</text>
</g>
<!-- Event&#45;&gt;DataSchema -->
<g id="edge18" class="edge">
<title>Event&#45;&gt;DataSchema</title>
<path fill="none" stroke="#000000" d="M800.1333,-530.3029C807.2436,-517.8604 818.2131,-501.89 832,-492 894.0239,-447.5073 950.7431,-502.4685 996,-441 1031.3103,-393.0412 1027.9793,-357.2413 996,-307 949.4364,-233.8458 849.1113,-201.6438 783.3776,-187.9724"/>
<polygon fill="#000000" stroke="#000000" points="784.0312,-184.5339 773.5398,-186.0104 782.6621,-191.3987 784.0312,-184.5339"/>
<text text-anchor="start" x="1022" y="-370.3" font-family="mono" font-size="14.00" fill="#c83500">data</text>
<text text-anchor="middle" x="785.0398" y="-174.8104" font-family="Times,serif" font-size="14.00" fill="#000000">0..1</text>
</g>
</g>
</svg>
