<?xml version="1.0" encoding="UTF-8" standalone="no"?>
<!DOCTYPE svg PUBLIC "-//W3C//DTD SVG 1.1//EN"
 "http://www.w3.org/Graphics/SVG/1.1/DTD/svg11.dtd">
<!-- Generated by graphviz version 2.40.1 (20161225.0304)
 -->
<!-- Title: %3 Pages: 1 -->
<svg width="1363pt" height="861pt"
 viewBox="0.00 0.00 1362.95 861.00" xmlns="http://www.w3.org/2000/svg" xmlns:xlink="http://www.w3.org/1999/xlink">
<g id="graph0" class="graph" transform="scale(1 1) rotate(0) translate(4 857)">
<title>%3</title>
<polygon fill="#ffffff" stroke="transparent" points="-4,4 -4,-857 1358.9518,-857 1358.9518,4 -4,4"/>
<!-- MultiLanguage -->
<g id="node1" class="node">
<title>MultiLanguage</title>
<polygon fill="#8ccbf2" stroke="transparent" points="80.9518,-167.5 80.9518,-188.5 194.9518,-188.5 194.9518,-167.5 80.9518,-167.5"/>
<polygon fill="none" stroke="#8ccbf2" points="80.9518,-167.5 80.9518,-188.5 194.9518,-188.5 194.9518,-167.5 80.9518,-167.5"/>
<text text-anchor="start" x="83.9518" y="-175.3" font-family="mono" font-weight="bold" font-size="14.00" fill="#c83500">MultiLanguage</text>
</g>
<!-- Link -->
<g id="node2" class="node">
<title>Link</title>
<polygon fill="#8ccbf2" stroke="transparent" points="42.9518,-516.5 42.9518,-537.5 216.9518,-537.5 216.9518,-516.5 42.9518,-516.5"/>
<polygon fill="none" stroke="#8ccbf2" points="42.9518,-516.5 42.9518,-537.5 216.9518,-537.5 216.9518,-516.5 42.9518,-516.5"/>
<text text-anchor="start" x="112.9518" y="-524.3" font-family="mono" font-weight="bold" font-size="14.00" fill="#c83500">Link</text>
<polygon fill="#ddeeff" stroke="transparent" points="42.9518,-495.5 42.9518,-516.5 216.9518,-516.5 216.9518,-495.5 42.9518,-495.5"/>
<polygon fill="none" stroke="#8ccbf2" points="42.9518,-495.5 42.9518,-516.5 216.9518,-516.5 216.9518,-495.5 42.9518,-495.5"/>
<text text-anchor="start" x="45.9518" y="-503.3" font-family="mono" font-size="14.00" fill="#c83500">type</text>
<text text-anchor="start" x="79.9518" y="-503.3" font-family="Times,serif" font-size="14.00" fill="#000000"> : </text>
<text text-anchor="start" x="91.9518" y="-503.3" font-family="mono" font-size="14.00" fill="#c83500">string</text>
<polygon fill="#ddeeff" stroke="transparent" points="42.9518,-474.5 42.9518,-495.5 216.9518,-495.5 216.9518,-474.5 42.9518,-474.5"/>
<polygon fill="none" stroke="#8ccbf2" points="42.9518,-474.5 42.9518,-495.5 216.9518,-495.5 216.9518,-474.5 42.9518,-474.5"/>
<text text-anchor="start" x="45.9518" y="-482.3" font-family="mono" font-size="14.00" fill="#c83500">rel</text>
<text text-anchor="start" x="70.9518" y="-482.3" font-family="Times,serif" font-size="14.00" fill="#000000"> : </text>
<text text-anchor="start" x="82.9518" y="-482.3" font-family="mono" font-size="14.00" fill="#c83500">string</text>
<polygon fill="#ddeeff" stroke="transparent" points="42.9518,-453.5 42.9518,-474.5 216.9518,-474.5 216.9518,-453.5 42.9518,-453.5"/>
<polygon fill="none" stroke="#8ccbf2" points="42.9518,-453.5 42.9518,-474.5 216.9518,-474.5 216.9518,-453.5 42.9518,-453.5"/>
<text text-anchor="start" x="45.9518" y="-461.3" font-family="mono" font-size="14.00" fill="#c83500">anchor</text>
<text text-anchor="start" x="95.9518" y="-461.3" font-family="Times,serif" font-size="14.00" fill="#000000"> : </text>
<text text-anchor="start" x="107.9518" y="-461.3" font-family="mono" font-size="14.00" fill="#c83500">anyURI</text>
<polygon fill="#ddeeff" stroke="transparent" points="42.9518,-432.5 42.9518,-453.5 216.9518,-453.5 216.9518,-432.5 42.9518,-432.5"/>
<polygon fill="none" stroke="#8ccbf2" points="42.9518,-432.5 42.9518,-453.5 216.9518,-453.5 216.9518,-432.5 42.9518,-432.5"/>
<text text-anchor="start" x="45.9518" y="-440.3" font-family="mono" font-size="14.00" fill="#c83500">href</text>
<text text-anchor="start" x="79.9518" y="-440.3" font-family="Times,serif" font-size="14.00" fill="#000000"> : </text>
<text text-anchor="start" x="91.9518" y="-440.3" font-family="mono" font-size="14.00" fill="#c83500">anyURI</text>
<text text-anchor="start" x="141.9518" y="-440.3" font-family="Times,serif" font-size="14.00" fill="#000000"> </text>
<text text-anchor="start" x="145.9518" y="-440.3" font-family="Times,serif" font-style="italic" font-size="14.00" fill="#000000">(mandatory)</text>
</g>
<!-- Form -->
<g id="node3" class="node">
<title>Form</title>
<polygon fill="#8ccbf2" stroke="transparent" points="259.9518,-230.5 259.9518,-251.5 490.9518,-251.5 490.9518,-230.5 259.9518,-230.5"/>
<polygon fill="none" stroke="#8ccbf2" points="259.9518,-230.5 259.9518,-251.5 490.9518,-251.5 490.9518,-230.5 259.9518,-230.5"/>
<text text-anchor="start" x="358.4518" y="-238.3" font-family="mono" font-weight="bold" font-size="14.00" fill="#c83500">Form</text>
<polygon fill="#ddeeff" stroke="transparent" points="259.9518,-209.5 259.9518,-230.5 490.9518,-230.5 490.9518,-209.5 259.9518,-209.5"/>
<polygon fill="none" stroke="#8ccbf2" points="259.9518,-209.5 259.9518,-230.5 490.9518,-230.5 490.9518,-209.5 259.9518,-209.5"/>
<text text-anchor="start" x="262.9518" y="-217.3" font-family="mono" font-size="14.00" fill="#c83500">scopes</text>
<text text-anchor="start" x="312.9518" y="-217.3" font-family="Times,serif" font-size="14.00" fill="#000000"> : array of </text>
<text text-anchor="start" x="370.9518" y="-217.3" font-family="mono" font-size="14.00" fill="#c83500">string</text>
<polygon fill="#ddeeff" stroke="transparent" points="259.9518,-188.5 259.9518,-209.5 490.9518,-209.5 490.9518,-188.5 259.9518,-188.5"/>
<polygon fill="none" stroke="#8ccbf2" points="259.9518,-188.5 259.9518,-209.5 490.9518,-209.5 490.9518,-188.5 259.9518,-188.5"/>
<text text-anchor="start" x="262.9518" y="-196.3" font-family="mono" font-size="14.00" fill="#c83500">op</text>
<text text-anchor="start" x="279.9518" y="-196.3" font-family="Times,serif" font-size="14.00" fill="#000000"> : </text>
<text text-anchor="start" x="291.9518" y="-196.3" font-family="mono" font-size="14.00" fill="#c83500">string</text>
<polygon fill="#ddeeff" stroke="transparent" points="259.9518,-167.5 259.9518,-188.5 490.9518,-188.5 490.9518,-167.5 259.9518,-167.5"/>
<polygon fill="none" stroke="#8ccbf2" points="259.9518,-167.5 259.9518,-188.5 490.9518,-188.5 490.9518,-167.5 259.9518,-167.5"/>
<text text-anchor="start" x="262.9518" y="-175.3" font-family="mono" font-size="14.00" fill="#c83500">subprotocol</text>
<text text-anchor="start" x="353.9518" y="-175.3" font-family="Times,serif" font-size="14.00" fill="#000000"> : </text>
<text text-anchor="start" x="365.9518" y="-175.3" font-family="mono" font-size="14.00" fill="#c83500">string</text>
<polygon fill="#ddeeff" stroke="transparent" points="259.9518,-146.5 259.9518,-167.5 490.9518,-167.5 490.9518,-146.5 259.9518,-146.5"/>
<polygon fill="none" stroke="#8ccbf2" points="259.9518,-146.5 259.9518,-167.5 490.9518,-167.5 490.9518,-146.5 259.9518,-146.5"/>
<text text-anchor="start" x="262.9518" y="-154.3" font-family="mono" font-size="14.00" fill="#c83500">contentType</text>
<text text-anchor="start" x="353.9518" y="-154.3" font-family="Times,serif" font-size="14.00" fill="#000000"> : </text>
<text text-anchor="start" x="365.9518" y="-154.3" font-family="mono" font-size="14.00" fill="#c83500">string</text>
<text text-anchor="start" x="415.9518" y="-154.3" font-family="Times,serif" font-size="14.00" fill="#000000"> </text>
<text text-anchor="start" x="419.9518" y="-154.3" font-family="Times,serif" font-style="italic" font-size="14.00" fill="#000000">(mandatory)</text>
<polygon fill="#ddeeff" stroke="transparent" points="259.9518,-125.5 259.9518,-146.5 490.9518,-146.5 490.9518,-125.5 259.9518,-125.5"/>
<polygon fill="none" stroke="#8ccbf2" points="259.9518,-125.5 259.9518,-146.5 490.9518,-146.5 490.9518,-125.5 259.9518,-125.5"/>
<text text-anchor="start" x="262.9518" y="-133.3" font-family="mono" font-size="14.00" fill="#c83500">href</text>
<text text-anchor="start" x="296.9518" y="-133.3" font-family="Times,serif" font-size="14.00" fill="#000000"> : </text>
<text text-anchor="start" x="308.9518" y="-133.3" font-family="mono" font-size="14.00" fill="#c83500">anyURI</text>
<text text-anchor="start" x="358.9518" y="-133.3" font-family="Times,serif" font-size="14.00" fill="#000000"> </text>
<text text-anchor="start" x="362.9518" y="-133.3" font-family="Times,serif" font-style="italic" font-size="14.00" fill="#000000">(mandatory)</text>
<polygon fill="#ddeeff" stroke="transparent" points="259.9518,-104.5 259.9518,-125.5 490.9518,-125.5 490.9518,-104.5 259.9518,-104.5"/>
<polygon fill="none" stroke="#8ccbf2" points="259.9518,-104.5 259.9518,-125.5 490.9518,-125.5 490.9518,-104.5 259.9518,-104.5"/>
<text text-anchor="start" x="262.9518" y="-112.3" font-family="mono" font-size="14.00" fill="#c83500">security</text>
<text text-anchor="start" x="329.9518" y="-112.3" font-family="Times,serif" font-size="14.00" fill="#000000"> : array of </text>
<text text-anchor="start" x="387.9518" y="-112.3" font-family="mono" font-size="14.00" fill="#c83500">string</text>
</g>
<!-- ExpectedResponse -->
<g id="node6" class="node">
<title>ExpectedResponse</title>
<polygon fill="#8ccbf2" stroke="transparent" points="259.9518,-25 259.9518,-46 490.9518,-46 490.9518,-25 259.9518,-25"/>
<polygon fill="none" stroke="#8ccbf2" points="259.9518,-25 259.9518,-46 490.9518,-46 490.9518,-25 259.9518,-25"/>
<text text-anchor="start" x="308.9518" y="-32.8" font-family="mono" font-weight="bold" font-size="14.00" fill="#c83500">ExpectedResponse</text>
<polygon fill="#ddeeff" stroke="transparent" points="259.9518,-4 259.9518,-25 490.9518,-25 490.9518,-4 259.9518,-4"/>
<polygon fill="none" stroke="#8ccbf2" points="259.9518,-4 259.9518,-25 490.9518,-25 490.9518,-4 259.9518,-4"/>
<text text-anchor="start" x="262.9518" y="-11.8" font-family="mono" font-size="14.00" fill="#c83500">contentType</text>
<text text-anchor="start" x="353.9518" y="-11.8" font-family="Times,serif" font-size="14.00" fill="#000000"> : </text>
<text text-anchor="start" x="365.9518" y="-11.8" font-family="mono" font-size="14.00" fill="#c83500">string</text>
<text text-anchor="start" x="415.9518" y="-11.8" font-family="Times,serif" font-size="14.00" fill="#000000"> </text>
<text text-anchor="start" x="419.9518" y="-11.8" font-family="Times,serif" font-style="italic" font-size="14.00" fill="#000000">(mandatory)</text>
</g>
<!-- Form&#45;&gt;ExpectedResponse -->
<g id="edge1" class="edge">
<title>Form&#45;&gt;ExpectedResponse</title>
<path fill="none" stroke="#000000" d="M374.9518,-100.8506C374.9518,-86.7022 374.9518,-72.5946 374.9518,-60.4513"/>
<polygon fill="#000000" stroke="#000000" points="378.4519,-60.3339 374.9518,-50.334 371.4519,-60.334 378.4519,-60.3339"/>
<text text-anchor="start" x="374.9518" y="-71.8" font-family="mono" font-size="14.00" fill="#c83500">response</text>
<text text-anchor="middle" x="363.9518" y="-54.134" font-family="Times,serif" font-size="14.00" fill="#000000">0..1</text>
</g>
<!-- Thing -->
<g id="node4" class="node">
<title>Thing</title>
<polygon fill="#8ccbf2" stroke="transparent" points="405.9518,-828 405.9518,-849 658.9518,-849 658.9518,-828 405.9518,-828"/>
<polygon fill="none" stroke="#8ccbf2" points="405.9518,-828 405.9518,-849 658.9518,-849 658.9518,-828 405.9518,-828"/>
<text text-anchor="start" x="511.4518" y="-835.8" font-family="mono" font-weight="bold" font-size="14.00" fill="#c83500">Thing</text>
<polygon fill="#ddeeff" stroke="transparent" points="405.9518,-807 405.9518,-828 658.9518,-828 658.9518,-807 405.9518,-807"/>
<polygon fill="none" stroke="#8ccbf2" points="405.9518,-807 405.9518,-828 658.9518,-828 658.9518,-807 405.9518,-807"/>
<text text-anchor="start" x="408.9518" y="-814.8" font-family="mono" font-size="14.00" fill="#c83500">@context</text>
<text text-anchor="start" x="475.9518" y="-814.8" font-family="Times,serif" font-size="14.00" fill="#000000"> : </text>
<text text-anchor="start" x="487.9518" y="-814.8" font-family="Times,serif" font-style="italic" font-size="14.00" fill="#000000">array</text>
<text text-anchor="start" x="518.9518" y="-814.8" font-family="Times,serif" font-size="14.00" fill="#000000"> </text>
<text text-anchor="start" x="522.9518" y="-814.8" font-family="Times,serif" font-style="italic" font-size="14.00" fill="#000000">(mandatory)</text>
<polygon fill="#ddeeff" stroke="transparent" points="405.9518,-786 405.9518,-807 658.9518,-807 658.9518,-786 405.9518,-786"/>
<polygon fill="none" stroke="#8ccbf2" points="405.9518,-786 405.9518,-807 658.9518,-807 658.9518,-786 405.9518,-786"/>
<text text-anchor="start" x="408.9518" y="-793.8" font-family="mono" font-size="14.00" fill="#c83500">@type</text>
<text text-anchor="start" x="450.9518" y="-793.8" font-family="Times,serif" font-size="14.00" fill="#000000"> : </text>
<text text-anchor="start" x="462.9518" y="-793.8" font-family="Times,serif" font-style="italic" font-size="14.00" fill="#000000">array of </text>
<text text-anchor="start" x="511.9518" y="-793.8" font-family="mono" font-size="14.00" fill="#c83500">string</text>
<polygon fill="#ddeeff" stroke="transparent" points="405.9518,-765 405.9518,-786 658.9518,-786 658.9518,-765 405.9518,-765"/>
<polygon fill="none" stroke="#8ccbf2" points="405.9518,-765 405.9518,-786 658.9518,-786 658.9518,-765 405.9518,-765"/>
<text text-anchor="start" x="408.9518" y="-772.8" font-family="mono" font-size="14.00" fill="#c83500">id</text>
<text text-anchor="start" x="425.9518" y="-772.8" font-family="Times,serif" font-size="14.00" fill="#000000"> : </text>
<text text-anchor="start" x="437.9518" y="-772.8" font-family="mono" font-size="14.00" fill="#c83500">anyURI</text>
<text text-anchor="start" x="487.9518" y="-772.8" font-family="Times,serif" font-size="14.00" fill="#000000"> </text>
<text text-anchor="start" x="491.9518" y="-772.8" font-family="Times,serif" font-style="italic" font-size="14.00" fill="#000000">(mandatory)</text>
<polygon fill="#ddeeff" stroke="transparent" points="405.9518,-744 405.9518,-765 658.9518,-765 658.9518,-744 405.9518,-744"/>
<polygon fill="none" stroke="#8ccbf2" points="405.9518,-744 405.9518,-765 658.9518,-765 658.9518,-744 405.9518,-744"/>
<text text-anchor="start" x="408.9518" y="-751.8" font-family="mono" font-size="14.00" fill="#c83500">name</text>
<text text-anchor="start" x="442.9518" y="-751.8" font-family="Times,serif" font-size="14.00" fill="#000000"> : </text>
<text text-anchor="start" x="454.9518" y="-751.8" font-family="mono" font-size="14.00" fill="#c83500">string</text>
<text text-anchor="start" x="504.9518" y="-751.8" font-family="Times,serif" font-size="14.00" fill="#000000"> </text>
<text text-anchor="start" x="508.9518" y="-751.8" font-family="Times,serif" font-style="italic" font-size="14.00" fill="#000000">(mandatory)</text>
<polygon fill="#ddeeff" stroke="transparent" points="405.9518,-723 405.9518,-744 658.9518,-744 658.9518,-723 405.9518,-723"/>
<polygon fill="none" stroke="#8ccbf2" points="405.9518,-723 405.9518,-744 658.9518,-744 658.9518,-723 405.9518,-723"/>
<text text-anchor="start" x="408.9518" y="-730.8" font-family="mono" font-size="14.00" fill="#c83500">lastModified</text>
<text text-anchor="start" x="508.9518" y="-730.8" font-family="Times,serif" font-size="14.00" fill="#000000"> : </text>
<text text-anchor="start" x="520.9518" y="-730.8" font-family="mono" font-size="14.00" fill="#c83500">string</text>
<polygon fill="#ddeeff" stroke="transparent" points="405.9518,-702 405.9518,-723 658.9518,-723 658.9518,-702 405.9518,-702"/>
<polygon fill="none" stroke="#8ccbf2" points="405.9518,-702 405.9518,-723 658.9518,-723 658.9518,-702 405.9518,-702"/>
<text text-anchor="start" x="408.9518" y="-709.8" font-family="mono" font-size="14.00" fill="#c83500">names</text>
<text text-anchor="start" x="450.9518" y="-709.8" font-family="Times,serif" font-size="14.00" fill="#000000"> : </text>
<text text-anchor="start" x="462.9518" y="-709.8" font-family="mono" font-size="14.00" fill="#c83500">string</text>
<text text-anchor="start" x="512.9518" y="-709.8" font-family="Times,serif" font-size="14.00" fill="#000000"> </text>
<text text-anchor="start" x="516.9518" y="-709.8" font-family="Times,serif" font-style="italic" font-size="14.00" fill="#000000">(mandatory)</text>
<polygon fill="#ddeeff" stroke="transparent" points="405.9518,-681 405.9518,-702 658.9518,-702 658.9518,-681 405.9518,-681"/>
<polygon fill="none" stroke="#8ccbf2" points="405.9518,-681 405.9518,-702 658.9518,-702 658.9518,-681 405.9518,-681"/>
<text text-anchor="start" x="408.9518" y="-688.8" font-family="mono" font-size="14.00" fill="#c83500">description</text>
<text text-anchor="start" x="499.9518" y="-688.8" font-family="Times,serif" font-size="14.00" fill="#000000"> : </text>
<text text-anchor="start" x="511.9518" y="-688.8" font-family="mono" font-size="14.00" fill="#c83500">string</text>
<polygon fill="#ddeeff" stroke="transparent" points="405.9518,-660 405.9518,-681 658.9518,-681 658.9518,-660 405.9518,-660"/>
<polygon fill="none" stroke="#8ccbf2" points="405.9518,-660 405.9518,-681 658.9518,-681 658.9518,-660 405.9518,-660"/>
<text text-anchor="start" x="408.9518" y="-667.8" font-family="mono" font-size="14.00" fill="#c83500">security</text>
<text text-anchor="start" x="475.9518" y="-667.8" font-family="Times,serif" font-size="14.00" fill="#000000"> : array of </text>
<text text-anchor="start" x="533.9518" y="-667.8" font-family="mono" font-size="14.00" fill="#c83500">string</text>
<text text-anchor="start" x="583.9518" y="-667.8" font-family="Times,serif" font-size="14.00" fill="#000000"> </text>
<text text-anchor="start" x="587.9518" y="-667.8" font-family="Times,serif" font-style="italic" font-size="14.00" fill="#000000">(mandatory)</text>
<polygon fill="#ddeeff" stroke="transparent" points="405.9518,-639 405.9518,-660 658.9518,-660 658.9518,-639 405.9518,-639"/>
<polygon fill="none" stroke="#8ccbf2" points="405.9518,-639 405.9518,-660 658.9518,-660 658.9518,-639 405.9518,-639"/>
<text text-anchor="start" x="408.9518" y="-646.8" font-family="mono" font-size="14.00" fill="#c83500">created</text>
<text text-anchor="start" x="466.9518" y="-646.8" font-family="Times,serif" font-size="14.00" fill="#000000"> : </text>
<text text-anchor="start" x="478.9518" y="-646.8" font-family="mono" font-size="14.00" fill="#c83500">string</text>
<polygon fill="#ddeeff" stroke="transparent" points="405.9518,-618 405.9518,-639 658.9518,-639 658.9518,-618 405.9518,-618"/>
<polygon fill="none" stroke="#8ccbf2" points="405.9518,-618 405.9518,-639 658.9518,-639 658.9518,-618 405.9518,-618"/>
<text text-anchor="start" x="408.9518" y="-625.8" font-family="mono" font-size="14.00" fill="#c83500">base</text>
<text text-anchor="start" x="442.9518" y="-625.8" font-family="Times,serif" font-size="14.00" fill="#000000"> : </text>
<text text-anchor="start" x="454.9518" y="-625.8" font-family="mono" font-size="14.00" fill="#c83500">anyURI</text>
<polygon fill="#ddeeff" stroke="transparent" points="405.9518,-597 405.9518,-618 658.9518,-618 658.9518,-597 405.9518,-597"/>
<polygon fill="none" stroke="#8ccbf2" points="405.9518,-597 405.9518,-618 658.9518,-618 658.9518,-597 405.9518,-597"/>
<text text-anchor="start" x="408.9518" y="-604.8" font-family="mono" font-size="14.00" fill="#c83500">support</text>
<text text-anchor="start" x="466.9518" y="-604.8" font-family="Times,serif" font-size="14.00" fill="#000000"> : </text>
<text text-anchor="start" x="478.9518" y="-604.8" font-family="mono" font-size="14.00" fill="#c83500">string</text>
</g>
<!-- Thing&#45;&gt;MultiLanguage -->
<g id="edge5" class="edge">
<title>Thing&#45;&gt;MultiLanguage</title>
<path fill="none" stroke="#000000" d="M397.1612,-693.2313C262.6068,-660.4602 69.7043,-604.118 25.9518,-542 -51.1994,-432.4638 64.2901,-268.2292 115.5292,-204.7998"/>
<polygon fill="#000000" stroke="#000000" points="118.388,-206.8332 122.019,-196.88 112.9736,-202.3964 118.388,-206.8332"/>
<text text-anchor="start" x="8.9518" y="-399.8" font-family="mono" font-size="14.00" fill="#c83500">descriptions</text>
<text text-anchor="middle" x="111.019" y="-200.68" font-family="Times,serif" font-size="14.00" fill="#000000">0..1</text>
</g>
<!-- Thing&#45;&gt;Link -->
<g id="edge9" class="edge">
<title>Thing&#45;&gt;Link</title>
<path fill="none" stroke="#000000" d="M397.2753,-681.531C332.3879,-657.2541 256.0353,-622.0113 196.9518,-575 188.0238,-567.8962 179.6634,-559.3361 172.0806,-550.3628"/>
<polygon fill="#000000" stroke="#000000" points="174.6389,-547.9607 165.6224,-542.3971 169.2015,-552.3691 174.6389,-547.9607"/>
<text text-anchor="start" x="196.9518" y="-563.8" font-family="mono" font-size="14.00" fill="#c83500">links</text>
<text text-anchor="middle" x="154.6224" y="-546.1971" font-family="Times,serif" font-size="14.00" fill="#000000">0..*</text>
</g>
<!-- Thing&#45;&gt;Form -->
<g id="edge8" class="edge">
<title>Thing&#45;&gt;Form</title>
<path fill="none" stroke="#000000" d="M397.2225,-662.6617C348.7483,-633.589 299.3123,-593.6363 271.9518,-542 244.0659,-489.3722 244.7349,-328.4137 268.9518,-274 270.3799,-270.7911 271.975,-267.6447 273.7142,-264.5638"/>
<polygon fill="#000000" stroke="#000000" points="276.6927,-266.4019 278.9783,-256.0566 270.7401,-262.7186 276.6927,-266.4019"/>
<text text-anchor="start" x="251.9518" y="-399.8" font-family="mono" font-size="14.00" fill="#c83500">forms</text>
<text text-anchor="middle" x="267.9783" y="-259.8566" font-family="Times,serif" font-size="14.00" fill="#000000">0..*</text>
</g>
<!-- PropertyAffordance -->
<g id="node5" class="node">
<title>PropertyAffordance</title>
<polygon fill="#8ccbf2" stroke="transparent" points="289.9518,-485.5 289.9518,-506.5 520.9518,-506.5 520.9518,-485.5 289.9518,-485.5"/>
<polygon fill="none" stroke="#8ccbf2" points="289.9518,-485.5 289.9518,-506.5 520.9518,-506.5 520.9518,-485.5 289.9518,-485.5"/>
<text text-anchor="start" x="330.9518" y="-493.3" font-family="mono" font-weight="bold" font-size="14.00" fill="#c83500">PropertyAffordance</text>
<polygon fill="#ddeeff" stroke="transparent" points="289.9518,-464.5 289.9518,-485.5 520.9518,-485.5 520.9518,-464.5 289.9518,-464.5"/>
<polygon fill="none" stroke="#8ccbf2" points="289.9518,-464.5 289.9518,-485.5 520.9518,-485.5 520.9518,-464.5 289.9518,-464.5"/>
<text text-anchor="start" x="292.9518" y="-472.3" font-family="mono" font-size="14.00" fill="#c83500">observable</text>
<text text-anchor="start" x="375.9518" y="-472.3" font-family="Times,serif" font-size="14.00" fill="#000000"> : </text>
<text text-anchor="start" x="387.9518" y="-472.3" font-family="mono" font-size="14.00" fill="#c83500">boolean</text>
<text text-anchor="start" x="445.9518" y="-472.3" font-family="Times,serif" font-size="14.00" fill="#000000"> </text>
<text text-anchor="start" x="449.9518" y="-472.3" font-family="Times,serif" font-style="italic" font-size="14.00" fill="#000000">(mandatory)</text>
</g>
<!-- Thing&#45;&gt;PropertyAffordance -->
<g id="edge7" class="edge">
<title>Thing&#45;&gt;PropertyAffordance</title>
<path fill="none" stroke="#000000" d="M462.3211,-592.7852C447.8574,-565.7368 433.8218,-539.4892 423.2539,-519.7263"/>
<polygon fill="#000000" stroke="#000000" points="426.3079,-518.0151 418.5059,-510.8472 420.135,-521.316 426.3079,-518.0151"/>
<text text-anchor="start" x="449.9518" y="-563.8" font-family="mono" font-size="14.00" fill="#c83500">properties</text>
<text text-anchor="middle" x="407.5059" y="-514.6472" font-family="Times,serif" font-size="14.00" fill="#000000">0..1</text>
</g>
<!-- VersionInfo -->
<g id="node7" class="node">
<title>VersionInfo</title>
<polygon fill="#8ccbf2" stroke="transparent" points="554.9518,-485.5 554.9518,-506.5 761.9518,-506.5 761.9518,-485.5 554.9518,-485.5"/>
<polygon fill="none" stroke="#8ccbf2" points="554.9518,-485.5 554.9518,-506.5 761.9518,-506.5 761.9518,-485.5 554.9518,-485.5"/>
<text text-anchor="start" x="612.9518" y="-493.3" font-family="mono" font-weight="bold" font-size="14.00" fill="#c83500">VersionInfo</text>
<polygon fill="#ddeeff" stroke="transparent" points="554.9518,-464.5 554.9518,-485.5 761.9518,-485.5 761.9518,-464.5 554.9518,-464.5"/>
<polygon fill="none" stroke="#8ccbf2" points="554.9518,-464.5 554.9518,-485.5 761.9518,-485.5 761.9518,-464.5 554.9518,-464.5"/>
<text text-anchor="start" x="557.9518" y="-472.3" font-family="mono" font-size="14.00" fill="#c83500">instance</text>
<text text-anchor="start" x="624.9518" y="-472.3" font-family="Times,serif" font-size="14.00" fill="#000000"> : </text>
<text text-anchor="start" x="636.9518" y="-472.3" font-family="mono" font-size="14.00" fill="#c83500">string</text>
<text text-anchor="start" x="686.9518" y="-472.3" font-family="Times,serif" font-size="14.00" fill="#000000"> </text>
<text text-anchor="start" x="690.9518" y="-472.3" font-family="Times,serif" font-style="italic" font-size="14.00" fill="#000000">(mandatory)</text>
</g>
<!-- Thing&#45;&gt;VersionInfo -->
<g id="edge3" class="edge">
<title>Thing&#45;&gt;VersionInfo</title>
<path fill="none" stroke="#000000" d="M601.0342,-592.7852C615.3841,-565.7368 629.3091,-539.4892 639.7938,-519.7263"/>
<polygon fill="#000000" stroke="#000000" points="642.9097,-521.3213 644.5044,-510.8472 636.726,-518.0407 642.9097,-521.3213"/>
<text text-anchor="start" x="617.9518" y="-563.8" font-family="mono" font-size="14.00" fill="#c83500">version</text>
<text text-anchor="middle" x="633.5044" y="-514.6472" font-family="Times,serif" font-size="14.00" fill="#000000">0..1</text>
</g>
<!-- ActionAffordance -->
<g id="node8" class="node">
<title>ActionAffordance</title>
<polygon fill="#8ccbf2" stroke="transparent" points="795.9518,-495.5 795.9518,-516.5 1026.9518,-516.5 1026.9518,-495.5 795.9518,-495.5"/>
<polygon fill="none" stroke="#8ccbf2" points="795.9518,-495.5 795.9518,-516.5 1026.9518,-516.5 1026.9518,-495.5 795.9518,-495.5"/>
<text text-anchor="start" x="844.9518" y="-503.3" font-family="mono" font-weight="bold" font-size="14.00" fill="#c83500">ActionAffordance</text>
<polygon fill="#ddeeff" stroke="transparent" points="795.9518,-474.5 795.9518,-495.5 1026.9518,-495.5 1026.9518,-474.5 795.9518,-474.5"/>
<polygon fill="none" stroke="#8ccbf2" points="795.9518,-474.5 795.9518,-495.5 1026.9518,-495.5 1026.9518,-474.5 795.9518,-474.5"/>
<text text-anchor="start" x="798.9518" y="-482.3" font-family="mono" font-size="14.00" fill="#c83500">idempotent</text>
<text text-anchor="start" x="881.9518" y="-482.3" font-family="Times,serif" font-size="14.00" fill="#000000"> : </text>
<text text-anchor="start" x="893.9518" y="-482.3" font-family="mono" font-size="14.00" fill="#c83500">boolean</text>
<text text-anchor="start" x="951.9518" y="-482.3" font-family="Times,serif" font-size="14.00" fill="#000000"> </text>
<text text-anchor="start" x="955.9518" y="-482.3" font-family="Times,serif" font-style="italic" font-size="14.00" fill="#000000">(mandatory)</text>
<polygon fill="#ddeeff" stroke="transparent" points="795.9518,-453.5 795.9518,-474.5 1026.9518,-474.5 1026.9518,-453.5 795.9518,-453.5"/>
<polygon fill="none" stroke="#8ccbf2" points="795.9518,-453.5 795.9518,-474.5 1026.9518,-474.5 1026.9518,-453.5 795.9518,-453.5"/>
<text text-anchor="start" x="798.9518" y="-461.3" font-family="mono" font-size="14.00" fill="#c83500">safe</text>
<text text-anchor="start" x="832.9518" y="-461.3" font-family="Times,serif" font-size="14.00" fill="#000000"> : </text>
<text text-anchor="start" x="844.9518" y="-461.3" font-family="mono" font-size="14.00" fill="#c83500">boolean</text>
<text text-anchor="start" x="902.9518" y="-461.3" font-family="Times,serif" font-size="14.00" fill="#000000"> </text>
<text text-anchor="start" x="906.9518" y="-461.3" font-family="Times,serif" font-style="italic" font-size="14.00" fill="#000000">(mandatory)</text>
</g>
<!-- Thing&#45;&gt;ActionAffordance -->
<g id="edge6" class="edge">
<title>Thing&#45;&gt;ActionAffordance</title>
<path fill="none" stroke="#000000" d="M666.6402,-638.5977C727.4563,-600.4872 796.5134,-557.2127 845.6551,-526.4181"/>
<polygon fill="#000000" stroke="#000000" points="847.6701,-529.2859 854.2853,-521.01 843.953,-523.3543 847.6701,-529.2859"/>
<text text-anchor="start" x="788.9518" y="-563.8" font-family="mono" font-size="14.00" fill="#c83500">actions</text>
<text text-anchor="middle" x="843.2853" y="-524.81" font-family="Times,serif" font-size="14.00" fill="#000000">0..1</text>
</g>
<!-- EventAffordance -->
<g id="node10" class="node">
<title>EventAffordance</title>
<polygon fill="#8ccbf2" stroke="transparent" points="1060.9518,-474.5 1060.9518,-495.5 1190.9518,-495.5 1190.9518,-474.5 1060.9518,-474.5"/>
<polygon fill="none" stroke="#8ccbf2" points="1060.9518,-474.5 1060.9518,-495.5 1190.9518,-495.5 1190.9518,-474.5 1060.9518,-474.5"/>
<text text-anchor="start" x="1063.9518" y="-482.3" font-family="mono" font-weight="bold" font-size="14.00" fill="#c83500">EventAffordance</text>
</g>
<!-- Thing&#45;&gt;EventAffordance -->
<g id="edge2" class="edge">
<title>Thing&#45;&gt;EventAffordance</title>
<path fill="none" stroke="#000000" d="M666.5638,-685.7059C771.9228,-654.0787 920.5923,-604.0074 1042.9518,-542 1060.8889,-532.9101 1079.5143,-520.5395 1094.5654,-509.6907"/>
<polygon fill="#000000" stroke="#000000" points="1096.9899,-512.2529 1102.982,-503.5153 1092.8489,-506.6091 1096.9899,-512.2529"/>
<text text-anchor="start" x="1003.9518" y="-563.8" font-family="mono" font-size="14.00" fill="#c83500">events</text>
<text text-anchor="middle" x="1091.982" y="-507.3153" font-family="Times,serif" font-size="14.00" fill="#000000">0..1</text>
</g>
<!-- SecurityScheme -->
<g id="node11" class="node">
<title>SecurityScheme</title>
<polygon fill="#f2f2f2" stroke="transparent" points="1224.9518,-474.5 1224.9518,-495.5 1346.9518,-495.5 1346.9518,-474.5 1224.9518,-474.5"/>
<polygon fill="none" stroke="#8c8c8c" points="1224.9518,-474.5 1224.9518,-495.5 1346.9518,-495.5 1346.9518,-474.5 1224.9518,-474.5"/>
<text text-anchor="start" x="1227.9518" y="-482.3" font-family="mono" font-weight="bold" font-size="14.00" fill="#000000">SecurityScheme</text>
</g>
<!-- Thing&#45;&gt;SecurityScheme -->
<g id="edge4" class="edge">
<title>Thing&#45;&gt;SecurityScheme</title>
<path fill="none" stroke="#000000" d="M666.5642,-701.9258C806.7354,-676.603 1030.2346,-626.5906 1207.9518,-542 1225.6212,-533.5897 1243.4365,-521.0611 1257.5716,-509.9372"/>
<polygon fill="#000000" stroke="#000000" points="1259.8529,-512.5938 1265.4399,-503.5918 1255.4586,-507.1449 1259.8529,-512.5938"/>
<text text-anchor="start" x="1155.9518" y="-563.8" font-family="mono" font-size="14.00" fill="#c83500">securityDefinitions</text>
<text text-anchor="middle" x="1254.4399" y="-507.3918" font-family="Times,serif" font-size="14.00" fill="#000000">1..1</text>
</g>
<!-- InteractionAffordance -->
<g id="node9" class="node">
<title>InteractionAffordance</title>
<polygon fill="#8ccbf2" stroke="transparent" points="314.9518,-352.5 314.9518,-373.5 494.9518,-373.5 494.9518,-352.5 314.9518,-352.5"/>
<polygon fill="none" stroke="#8ccbf2" points="314.9518,-352.5 314.9518,-373.5 494.9518,-373.5 494.9518,-352.5 314.9518,-352.5"/>
<text text-anchor="start" x="317.9518" y="-360.3" font-family="mono" font-weight="bold" font-size="14.00" fill="#c83500">InteractionAffordance</text>
<polygon fill="#ddeeff" stroke="transparent" points="314.9518,-331.5 314.9518,-352.5 494.9518,-352.5 494.9518,-331.5 314.9518,-331.5"/>
<polygon fill="none" stroke="#8ccbf2" points="314.9518,-331.5 314.9518,-352.5 494.9518,-352.5 494.9518,-331.5 314.9518,-331.5"/>
<text text-anchor="start" x="317.9518" y="-339.3" font-family="mono" font-size="14.00" fill="#c83500">description</text>
<text text-anchor="start" x="408.9518" y="-339.3" font-family="Times,serif" font-size="14.00" fill="#000000"> : </text>
<text text-anchor="start" x="420.9518" y="-339.3" font-family="mono" font-size="14.00" fill="#c83500">string</text>
<polygon fill="#ddeeff" stroke="transparent" points="314.9518,-310.5 314.9518,-331.5 494.9518,-331.5 494.9518,-310.5 314.9518,-310.5"/>
<polygon fill="none" stroke="#8ccbf2" points="314.9518,-310.5 314.9518,-331.5 494.9518,-331.5 494.9518,-310.5 314.9518,-310.5"/>
<text text-anchor="start" x="317.9518" y="-318.3" font-family="mono" font-size="14.00" fill="#c83500">title</text>
<text text-anchor="start" x="359.9518" y="-318.3" font-family="Times,serif" font-size="14.00" fill="#000000"> : </text>
<text text-anchor="start" x="371.9518" y="-318.3" font-family="mono" font-size="14.00" fill="#c83500">string</text>
</g>
<!-- PropertyAffordance&#45;&gt;InteractionAffordance -->
<g id="edge20" class="edge">
<title>PropertyAffordance&#45;&gt;InteractionAffordance</title>
<path fill="none" stroke="#000000" d="M404.9518,-460.2636C404.9518,-440.4277 404.9518,-412.2666 404.9518,-388.4566"/>
<polygon fill="#ffffff" stroke="#000000" points="408.4519,-388.2132 404.9518,-378.2132 401.4519,-388.2132 408.4519,-388.2132"/>
</g>
<!-- ActionAffordance&#45;&gt;InteractionAffordance -->
<g id="edge21" class="edge">
<title>ActionAffordance&#45;&gt;InteractionAffordance</title>
<path fill="none" stroke="#000000" d="M833.3992,-449.885C815.4195,-442.3783 796.2006,-434.9422 777.9518,-429 690.3884,-400.4875 588.368,-377.5037 513.1778,-362.4143"/>
<polygon fill="#ffffff" stroke="#000000" points="513.7072,-358.9511 503.2161,-360.4298 512.3395,-365.8162 513.7072,-358.9511"/>
</g>
<!-- DataSchema -->
<g id="node12" class="node">
<title>DataSchema</title>
<polygon fill="#f2f2f2" stroke="transparent" points="905.9518,-167.5 905.9518,-188.5 994.9518,-188.5 994.9518,-167.5 905.9518,-167.5"/>
<polygon fill="none" stroke="#8c8c8c" points="905.9518,-167.5 905.9518,-188.5 994.9518,-188.5 994.9518,-167.5 905.9518,-167.5"/>
<text text-anchor="start" x="908.9518" y="-175.3" font-family="mono" font-weight="bold" font-size="14.00" fill="#000000">DataSchema</text>
</g>
<!-- ActionAffordance&#45;&gt;DataSchema -->
<g id="edge10" class="edge">
<title>ActionAffordance&#45;&gt;DataSchema</title>
<path fill="none" stroke="#000000" d="M878.973,-449.5252C863.6468,-429.8635 846.9212,-404.2199 838.9518,-378 829.7751,-347.8082 827.947,-336.5744 838.9518,-307 854.7654,-264.5021 891.6487,-226.6831 918.5734,-203.2628"/>
<polygon fill="#000000" stroke="#000000" points="920.8737,-205.901 926.2258,-196.7574 916.3399,-200.5677 920.8737,-205.901"/>
<text text-anchor="start" x="838.9518" y="-338.8" font-family="mono" font-size="14.00" fill="#c83500">output</text>
<text text-anchor="middle" x="915.2258" y="-200.5574" font-family="Times,serif" font-size="14.00" fill="#000000">0..1</text>
</g>
<!-- ActionAffordance&#45;&gt;DataSchema -->
<g id="edge11" class="edge">
<title>ActionAffordance&#45;&gt;DataSchema</title>
<path fill="none" stroke="#000000" d="M912.5531,-449.8122C914.4548,-413.6878 918.2474,-356.2817 924.9518,-307 929.6909,-272.1646 937.8307,-232.5103 943.5311,-206.5796"/>
<polygon fill="#000000" stroke="#000000" points="946.9757,-207.2134 945.7331,-196.6917 940.143,-205.6917 946.9757,-207.2134"/>
<text text-anchor="start" x="924.9518" y="-338.8" font-family="mono" font-size="14.00" fill="#c83500">input</text>
<text text-anchor="middle" x="956.7331" y="-200.4917" font-family="Times,serif" font-size="14.00" fill="#000000">0..1</text>
</g>
<!-- InteractionAffordance&#45;&gt;MultiLanguage -->
<g id="edge14" class="edge">
<title>InteractionAffordance&#45;&gt;MultiLanguage</title>
<path fill="none" stroke="#000000" d="M332.2034,-306.9112C303.5265,-292.1087 270.6483,-274.1576 241.9518,-256 216.1968,-239.7036 188.6037,-218.9751 168.3157,-203.0566"/>
<polygon fill="#000000" stroke="#000000" points="170.3853,-200.2311 160.37,-196.7751 166.0441,-205.7225 170.3853,-200.2311"/>
<text text-anchor="start" x="294.9518" y="-277.8" font-family="mono" font-size="14.00" fill="#c83500">titles</text>
<text text-anchor="middle" x="149.37" y="-200.5751" font-family="Times,serif" font-size="14.00" fill="#000000">0..1</text>
</g>
<!-- InteractionAffordance&#45;&gt;MultiLanguage -->
<g id="edge15" class="edge">
<title>InteractionAffordance&#45;&gt;MultiLanguage</title>
<path fill="none" stroke="#000000" d="M306.9411,-330.4998C251.4004,-321.783 189.0859,-308.1406 168.9518,-289 146.5868,-267.7387 139.9365,-231.7596 138.1724,-206.6523"/>
<polygon fill="#000000" stroke="#000000" points="141.6668,-206.45 137.6839,-196.6323 134.6751,-206.7909 141.6668,-206.45"/>
<text text-anchor="start" x="168.9518" y="-277.8" font-family="mono" font-size="14.00" fill="#c83500">descriptions</text>
<text text-anchor="middle" x="126.6839" y="-200.4323" font-family="Times,serif" font-size="14.00" fill="#000000">0..1</text>
</g>
<!-- InteractionAffordance&#45;&gt;Form -->
<g id="edge13" class="edge">
<title>InteractionAffordance&#45;&gt;Form</title>
<path fill="none" stroke="#000000" d="M398.4422,-306.9144C396.216,-294.7441 393.6176,-280.5399 390.9767,-266.103"/>
<polygon fill="#000000" stroke="#000000" points="394.388,-265.3002 389.1457,-256.0932 387.5023,-266.5598 394.388,-265.3002"/>
<text text-anchor="start" x="394.9518" y="-277.8" font-family="mono" font-size="14.00" fill="#c83500">forms</text>
<text text-anchor="middle" x="378.1457" y="-259.8932" font-family="Times,serif" font-size="14.00" fill="#000000">1..*</text>
</g>
<!-- InteractionAffordance&#45;&gt;DataSchema -->
<g id="edge12" class="edge">
<title>InteractionAffordance&#45;&gt;DataSchema</title>
<path fill="none" stroke="#000000" d="M503.0163,-312.9907C614.6038,-279.4121 793.5154,-225.5744 887.5593,-197.275"/>
<polygon fill="#000000" stroke="#000000" points="888.6508,-200.6016 897.2181,-194.3685 886.6337,-193.8985 888.6508,-200.6016"/>
<text text-anchor="start" x="628.9518" y="-277.8" font-family="mono" font-size="14.00" fill="#c83500">uriVariables</text>
<text text-anchor="middle" x="886.2181" y="-198.1685" font-family="Times,serif" font-size="14.00" fill="#000000">0..1</text>
</g>
<!-- EventAffordance&#45;&gt;InteractionAffordance -->
<g id="edge19" class="edge">
<title>EventAffordance&#45;&gt;InteractionAffordance</title>
<path fill="none" stroke="#000000" d="M1105.3175,-467.4105C1089.3967,-454.5095 1066.2259,-437.926 1042.9518,-429 994.6264,-410.4665 682.2643,-373.4723 513.2234,-354.4314"/>
<polygon fill="#ffffff" stroke="#000000" points="513.375,-350.9265 503.0465,-353.2873 512.5929,-357.8827 513.375,-350.9265"/>
</g>
<!-- EventAffordance&#45;&gt;DataSchema -->
<g id="edge16" class="edge">
<title>EventAffordance&#45;&gt;DataSchema</title>
<path fill="none" stroke="#000000" d="M1096.6093,-467.3901C1068.4388,-448.4919 1026.7556,-416.2984 1002.9518,-378 969.0017,-323.3771 956.6052,-247.2964 952.2274,-206.6867"/>
<polygon fill="#000000" stroke="#000000" points="955.7059,-206.2961 951.2362,-196.6903 948.7401,-206.9868 955.7059,-206.2961"/>
<text text-anchor="start" x="1002.9518" y="-338.8" font-family="mono" font-size="14.00" fill="#c83500">subscription</text>
<text text-anchor="middle" x="940.2362" y="-200.4903" font-family="Times,serif" font-size="14.00" fill="#000000">0..1</text>
</g>
<!-- EventAffordance&#45;&gt;DataSchema -->
<g id="edge17" class="edge">
<title>EventAffordance&#45;&gt;DataSchema</title>
<path fill="none" stroke="#000000" d="M1127.7526,-467.4799C1130.2748,-433.7276 1131.7229,-359.6427 1102.9518,-307 1077.6472,-260.7 1028.3973,-224.0543 992.5913,-201.9363"/>
<polygon fill="#000000" stroke="#000000" points="994.1703,-198.8012 983.8005,-196.629 990.5524,-204.7938 994.1703,-198.8012"/>
<text text-anchor="start" x="1123.9518" y="-338.8" font-family="mono" font-size="14.00" fill="#c83500">data</text>
<text text-anchor="middle" x="994.8005" y="-200.429" font-family="Times,serif" font-size="14.00" fill="#000000">0..1</text>
</g>
<!-- EventAffordance&#45;&gt;DataSchema -->
<g id="edge18" class="edge">
<title>EventAffordance&#45;&gt;DataSchema</title>
<path fill="none" stroke="#000000" d="M1137.314,-467.2617C1156.7779,-433.4644 1191.6612,-359.7488 1161.9518,-307 1130.2044,-250.6328 1062.6505,-216.1576 1012.2833,-197.299"/>
<polygon fill="#000000" stroke="#000000" points="1013.3674,-193.9692 1002.7733,-193.8457 1010.9781,-200.5488 1013.3674,-193.9692"/>
<text text-anchor="start" x="1172.9518" y="-338.8" font-family="mono" font-size="14.00" fill="#c83500">cancellation</text>
<text text-anchor="middle" x="1013.7733" y="-182.6457" font-family="Times,serif" font-size="14.00" fill="#000000">0..1</text>
</g>
</g>
</svg>
