<?xml version="1.0" encoding="UTF-8" standalone="no"?>
<!DOCTYPE svg PUBLIC "-//W3C//DTD SVG 1.1//EN"
 "http://www.w3.org/Graphics/SVG/1.1/DTD/svg11.dtd">
<!-- Generated by graphviz version 2.38.0 (20140413.2041)
 -->
<!-- Title: %3 Pages: 1 -->
<svg width="1378pt" height="578pt"
 viewBox="0.00 0.00 1377.65 578.00" xmlns="http://www.w3.org/2000/svg" xmlns:xlink="http://www.w3.org/1999/xlink">
<g id="graph0" class="graph" transform="scale(1 1) rotate(0) translate(4 574)">
<title>%3</title>
<polygon fill="white" stroke="none" points="-4,4 -4,-574 1373.65,-574 1373.65,4 -4,4"/>
<!-- MultiLanguage -->
<g id="node1" class="node"><title>MultiLanguage</title>
<polygon fill="#8ccbf2" stroke="none" points="35.6522,-7 35.6522,-28 149.652,-28 149.652,-7 35.6522,-7"/>
<polygon fill="none" stroke="#8ccbf2" points="35.6522,-7 35.6522,-28 149.652,-28 149.652,-7 35.6522,-7"/>
<text text-anchor="start" x="38.6522" y="-14.8" font-family="mono" font-weight="bold" font-size="14.00" fill="#c83500">MultiLanguage</text>
</g>
<!-- Thing -->
<g id="node2" class="node"><title>Thing</title>
<polygon fill="#8ccbf2" stroke="none" points="481.652,-544.5 481.652,-565.5 740.652,-565.5 740.652,-544.5 481.652,-544.5"/>
<polygon fill="none" stroke="#8ccbf2" points="481.652,-544.5 481.652,-565.5 740.652,-565.5 740.652,-544.5 481.652,-544.5"/>
<text text-anchor="start" x="590.152" y="-552.3" font-family="mono" font-weight="bold" font-size="14.00" fill="#c83500">Thing</text>
<polygon fill="#ddeeff" stroke="none" points="481.652,-523.5 481.652,-544.5 740.652,-544.5 740.652,-523.5 481.652,-523.5"/>
<polygon fill="none" stroke="#8ccbf2" points="481.652,-523.5 481.652,-544.5 740.652,-544.5 740.652,-523.5 481.652,-523.5"/>
<text text-anchor="start" x="484.652" y="-531.3" font-family="mono" font-size="14.00" fill="#c83500">@context</text>
<text text-anchor="start" x="551.652" y="-531.3" font-family="Times,serif" font-size="14.00"> : </text>
<text text-anchor="start" x="563.652" y="-531.3" font-family="mono" font-style="italic" font-size="14.00" fill="#c83500">anyURI</text>
<text text-anchor="start" x="613.652" y="-531.3" font-family="Times,serif" font-style="italic" font-size="14.00"> or Array</text>
<text text-anchor="start" x="665.652" y="-531.3" font-family="Times,serif" font-size="14.00"> </text>
<text text-anchor="start" x="669.652" y="-531.3" font-family="Times,serif" font-style="italic" font-size="14.00">(mandatory)</text>
<polygon fill="#ddeeff" stroke="none" points="481.652,-502.5 481.652,-523.5 740.652,-523.5 740.652,-502.5 481.652,-502.5"/>
<polygon fill="none" stroke="#8ccbf2" points="481.652,-502.5 481.652,-523.5 740.652,-523.5 740.652,-502.5 481.652,-502.5"/>
<text text-anchor="start" x="484.652" y="-510.3" font-family="mono" font-size="14.00" fill="#c83500">@type</text>
<text text-anchor="start" x="526.652" y="-510.3" font-family="Times,serif" font-size="14.00"> : </text>
<text text-anchor="start" x="538.652" y="-510.3" font-family="Times,serif" font-style="italic" font-size="14.00">(Array of) </text>
<text text-anchor="start" x="597.652" y="-510.3" font-family="mono" font-size="14.00" fill="#c83500">string</text>
<polygon fill="#ddeeff" stroke="none" points="481.652,-481.5 481.652,-502.5 740.652,-502.5 740.652,-481.5 481.652,-481.5"/>
<polygon fill="none" stroke="#8ccbf2" points="481.652,-481.5 481.652,-502.5 740.652,-502.5 740.652,-481.5 481.652,-481.5"/>
<text text-anchor="start" x="484.652" y="-489.3" font-family="mono" font-size="14.00" fill="#c83500">id</text>
<text text-anchor="start" x="501.652" y="-489.3" font-family="Times,serif" font-size="14.00"> : </text>
<text text-anchor="start" x="513.652" y="-489.3" font-family="mono" font-size="14.00" fill="#c83500">anyURI</text>
<text text-anchor="start" x="563.652" y="-489.3" font-family="Times,serif" font-size="14.00"> </text>
<text text-anchor="start" x="567.652" y="-489.3" font-family="Times,serif" font-style="italic" font-size="14.00">(mandatory)</text>
<polygon fill="#ddeeff" stroke="none" points="481.652,-460.5 481.652,-481.5 740.652,-481.5 740.652,-460.5 481.652,-460.5"/>
<polygon fill="none" stroke="#8ccbf2" points="481.652,-460.5 481.652,-481.5 740.652,-481.5 740.652,-460.5 481.652,-460.5"/>
<text text-anchor="start" x="484.652" y="-468.3" font-family="mono" font-size="14.00" fill="#c83500">modified</text>
<text text-anchor="start" x="551.652" y="-468.3" font-family="Times,serif" font-size="14.00"> : </text>
<text text-anchor="start" x="563.652" y="-468.3" font-family="mono" font-size="14.00" fill="#c83500">dateTime</text>
<polygon fill="#ddeeff" stroke="none" points="481.652,-439.5 481.652,-460.5 740.652,-460.5 740.652,-439.5 481.652,-439.5"/>
<polygon fill="none" stroke="#8ccbf2" points="481.652,-439.5 481.652,-460.5 740.652,-460.5 740.652,-439.5 481.652,-439.5"/>
<text text-anchor="start" x="484.652" y="-447.3" font-family="mono" font-size="14.00" fill="#c83500">security</text>
<text text-anchor="start" x="551.652" y="-447.3" font-family="Times,serif" font-size="14.00"> : Array of </text>
<text text-anchor="start" x="613.652" y="-447.3" font-family="mono" font-size="14.00" fill="#c83500">string</text>
<text text-anchor="start" x="663.652" y="-447.3" font-family="Times,serif" font-size="14.00"> </text>
<text text-anchor="start" x="667.652" y="-447.3" font-family="Times,serif" font-style="italic" font-size="14.00">(mandatory)</text>
<polygon fill="#ddeeff" stroke="none" points="481.652,-418.5 481.652,-439.5 740.652,-439.5 740.652,-418.5 481.652,-418.5"/>
<polygon fill="none" stroke="#8ccbf2" points="481.652,-418.5 481.652,-439.5 740.652,-439.5 740.652,-418.5 481.652,-418.5"/>
<text text-anchor="start" x="484.652" y="-426.3" font-family="mono" font-size="14.00" fill="#c83500">base</text>
<text text-anchor="start" x="518.652" y="-426.3" font-family="Times,serif" font-size="14.00"> : </text>
<text text-anchor="start" x="530.652" y="-426.3" font-family="mono" font-size="14.00" fill="#c83500">anyURI</text>
<polygon fill="#ddeeff" stroke="none" points="481.652,-397.5 481.652,-418.5 740.652,-418.5 740.652,-397.5 481.652,-397.5"/>
<polygon fill="none" stroke="#8ccbf2" points="481.652,-397.5 481.652,-418.5 740.652,-418.5 740.652,-397.5 481.652,-397.5"/>
<text text-anchor="start" x="484.652" y="-405.3" font-family="mono" font-size="14.00" fill="#c83500">created</text>
<text text-anchor="start" x="542.652" y="-405.3" font-family="Times,serif" font-size="14.00"> : </text>
<text text-anchor="start" x="554.652" y="-405.3" font-family="mono" font-size="14.00" fill="#c83500">dateTime</text>
<polygon fill="#ddeeff" stroke="none" points="481.652,-376.5 481.652,-397.5 740.652,-397.5 740.652,-376.5 481.652,-376.5"/>
<polygon fill="none" stroke="#8ccbf2" points="481.652,-376.5 481.652,-397.5 740.652,-397.5 740.652,-376.5 481.652,-376.5"/>
<text text-anchor="start" x="484.652" y="-384.3" font-family="mono" font-size="14.00" fill="#c83500">support</text>
<text text-anchor="start" x="542.652" y="-384.3" font-family="Times,serif" font-size="14.00"> : </text>
<text text-anchor="start" x="554.652" y="-384.3" font-family="mono" font-size="14.00" fill="#c83500">anyURI</text>
<polygon fill="#ddeeff" stroke="none" points="481.652,-355.5 481.652,-376.5 740.652,-376.5 740.652,-355.5 481.652,-355.5"/>
<polygon fill="none" stroke="#8ccbf2" points="481.652,-355.5 481.652,-376.5 740.652,-376.5 740.652,-355.5 481.652,-355.5"/>
<text text-anchor="start" x="484.652" y="-363.3" font-family="mono" font-size="14.00" fill="#c83500">description</text>
<text text-anchor="start" x="575.652" y="-363.3" font-family="Times,serif" font-size="14.00"> : </text>
<text text-anchor="start" x="587.652" y="-363.3" font-family="mono" font-size="14.00" fill="#c83500">string</text>
<polygon fill="#ddeeff" stroke="none" points="481.652,-334.5 481.652,-355.5 740.652,-355.5 740.652,-334.5 481.652,-334.5"/>
<polygon fill="none" stroke="#8ccbf2" points="481.652,-334.5 481.652,-355.5 740.652,-355.5 740.652,-334.5 481.652,-334.5"/>
<text text-anchor="start" x="484.652" y="-342.3" font-family="mono" font-size="14.00" fill="#c83500">title</text>
<text text-anchor="start" x="526.652" y="-342.3" font-family="Times,serif" font-size="14.00"> : </text>
<text text-anchor="start" x="538.652" y="-342.3" font-family="mono" font-size="14.00" fill="#c83500">string</text>
<text text-anchor="start" x="588.652" y="-342.3" font-family="Times,serif" font-size="14.00"> </text>
<text text-anchor="start" x="592.652" y="-342.3" font-family="Times,serif" font-style="italic" font-size="14.00">(mandatory)</text>
</g>
<!-- Thing&#45;&gt;MultiLanguage -->
<g id="edge1" class="edge"><title>Thing&#45;&gt;MultiLanguage</title>
<path fill="none" stroke="black" d="M472.988,-428.952C331.965,-405.541 124.837,-363.862 62.6522,-313 11.4708,-271.138 -9.89928,-240.5 4.65224,-176 17.8651,-117.434 29.9409,-104.344 62.6522,-54 64.8461,-50.6236 67.3364,-47.2225 69.9218,-43.9367"/>
<polygon fill="black" stroke="black" points="72.742,-46.0189 76.4301,-36.0867 67.3531,-41.5512 72.742,-46.0189"/>
<text text-anchor="start" x="4.65224" y="-179.8" font-family="mono" font-size="14.00" fill="#c83500">titles</text>
<text text-anchor="middle" x="65.4301" y="-39.8867" font-family="Times,serif" font-size="14.00">0..1</text>
</g>
<!-- Thing&#45;&gt;MultiLanguage -->
<g id="edge3" class="edge"><title>Thing&#45;&gt;MultiLanguage</title>
<path fill="none" stroke="black" d="M473.124,-402.357C415.362,-379.549 348.906,-349.211 293.652,-313 227.38,-269.568 212.213,-253.612 163.652,-191 125.74,-142.118 114.402,-128.26 96.6522,-69 94.5123,-61.8558 93.3565,-53.8959 92.7659,-46.4656"/>
<polygon fill="black" stroke="black" points="96.2604,-46.2663 92.2635,-36.4543 89.2692,-46.6172 96.2604,-46.2663"/>
<text text-anchor="start" x="163.652" y="-179.8" font-family="mono" font-size="14.00" fill="#c83500">descriptions</text>
<text text-anchor="middle" x="103.263" y="-40.2543" font-family="Times,serif" font-size="14.00">0..1</text>
</g>
<!-- PropertyAffordance -->
<g id="node3" class="node"><title>PropertyAffordance</title>
<polygon fill="#8ccbf2" stroke="none" points="302.652,-244.5 302.652,-265.5 461.652,-265.5 461.652,-244.5 302.652,-244.5"/>
<polygon fill="none" stroke="#8ccbf2" points="302.652,-244.5 302.652,-265.5 461.652,-265.5 461.652,-244.5 302.652,-244.5"/>
<text text-anchor="start" x="307.652" y="-252.3" font-family="mono" font-weight="bold" font-size="14.00" fill="#c83500">PropertyAffordance</text>
<polygon fill="#ddeeff" stroke="none" points="302.652,-223.5 302.652,-244.5 461.652,-244.5 461.652,-223.5 302.652,-223.5"/>
<polygon fill="none" stroke="#8ccbf2" points="302.652,-223.5 302.652,-244.5 461.652,-244.5 461.652,-223.5 302.652,-223.5"/>
<text text-anchor="start" x="305.652" y="-231.3" font-family="mono" font-size="14.00" fill="#c83500">observable</text>
<text text-anchor="start" x="388.652" y="-231.3" font-family="Times,serif" font-size="14.00"> : </text>
<text text-anchor="start" x="400.652" y="-231.3" font-family="mono" font-size="14.00" fill="#c83500">boolean</text>
</g>
<!-- Thing&#45;&gt;PropertyAffordance -->
<g id="edge8" class="edge"><title>Thing&#45;&gt;PropertyAffordance</title>
<path fill="none" stroke="black" d="M477.442,-330.832C454.949,-310.795 433.447,-291.64 416.534,-276.574"/>
<polygon fill="black" stroke="black" points="418.411,-273.558 408.616,-269.52 413.755,-278.785 418.411,-273.558"/>
<text text-anchor="start" x="456.652" y="-301.8" font-family="mono" font-size="14.00" fill="#c83500">properties</text>
<text text-anchor="middle" x="397.616" y="-273.32" font-family="Times,serif" font-size="14.00">0..1</text>
</g>
<!-- VersionInfo -->
<g id="node4" class="node"><title>VersionInfo</title>
<polygon fill="#8ccbf2" stroke="none" points="925.652,-244.5 925.652,-265.5 1132.65,-265.5 1132.65,-244.5 925.652,-244.5"/>
<polygon fill="none" stroke="#8ccbf2" points="925.652,-244.5 925.652,-265.5 1132.65,-265.5 1132.65,-244.5 925.652,-244.5"/>
<text text-anchor="start" x="983.652" y="-252.3" font-family="mono" font-weight="bold" font-size="14.00" fill="#c83500">VersionInfo</text>
<polygon fill="#ddeeff" stroke="none" points="925.652,-223.5 925.652,-244.5 1132.65,-244.5 1132.65,-223.5 925.652,-223.5"/>
<polygon fill="none" stroke="#8ccbf2" points="925.652,-223.5 925.652,-244.5 1132.65,-244.5 1132.65,-223.5 925.652,-223.5"/>
<text text-anchor="start" x="928.652" y="-231.3" font-family="mono" font-size="14.00" fill="#c83500">instance</text>
<text text-anchor="start" x="995.652" y="-231.3" font-family="Times,serif" font-size="14.00"> : </text>
<text text-anchor="start" x="1007.65" y="-231.3" font-family="mono" font-size="14.00" fill="#c83500">string</text>
<text text-anchor="start" x="1057.65" y="-231.3" font-family="Times,serif" font-size="14.00"> </text>
<text text-anchor="start" x="1061.65" y="-231.3" font-family="Times,serif" font-style="italic" font-size="14.00">(mandatory)</text>
</g>
<!-- Thing&#45;&gt;VersionInfo -->
<g id="edge4" class="edge"><title>Thing&#45;&gt;VersionInfo</title>
<path fill="none" stroke="black" d="M748.39,-382.279C823.651,-345.549 912.917,-301.983 970.141,-274.056"/>
<polygon fill="black" stroke="black" points="971.94,-277.072 979.392,-269.541 968.87,-270.782 971.94,-277.072"/>
<text text-anchor="start" x="916.652" y="-301.8" font-family="mono" font-size="14.00" fill="#c83500">version</text>
<text text-anchor="middle" x="968.392" y="-273.341" font-family="Times,serif" font-size="14.00">0..1</text>
</g>
<!-- ActionAffordance -->
<g id="node5" class="node"><title>ActionAffordance</title>
<polygon fill="#8ccbf2" stroke="none" points="495.652,-254.5 495.652,-275.5 726.652,-275.5 726.652,-254.5 495.652,-254.5"/>
<polygon fill="none" stroke="#8ccbf2" points="495.652,-254.5 495.652,-275.5 726.652,-275.5 726.652,-254.5 495.652,-254.5"/>
<text text-anchor="start" x="544.652" y="-262.3" font-family="mono" font-weight="bold" font-size="14.00" fill="#c83500">ActionAffordance</text>
<polygon fill="#ddeeff" stroke="none" points="495.652,-233.5 495.652,-254.5 726.652,-254.5 726.652,-233.5 495.652,-233.5"/>
<polygon fill="none" stroke="#8ccbf2" points="495.652,-233.5 495.652,-254.5 726.652,-254.5 726.652,-233.5 495.652,-233.5"/>
<text text-anchor="start" x="498.652" y="-241.3" font-family="mono" font-size="14.00" fill="#c83500">safe</text>
<text text-anchor="start" x="532.652" y="-241.3" font-family="Times,serif" font-size="14.00"> : </text>
<text text-anchor="start" x="544.652" y="-241.3" font-family="mono" font-size="14.00" fill="#c83500">boolean</text>
<text text-anchor="start" x="602.652" y="-241.3" font-family="Times,serif" font-size="14.00"> </text>
<text text-anchor="start" x="606.652" y="-241.3" font-family="Times,serif" font-style="italic" font-size="14.00">(mandatory)</text>
<polygon fill="#ddeeff" stroke="none" points="495.652,-212.5 495.652,-233.5 726.652,-233.5 726.652,-212.5 495.652,-212.5"/>
<polygon fill="none" stroke="#8ccbf2" points="495.652,-212.5 495.652,-233.5 726.652,-233.5 726.652,-212.5 495.652,-212.5"/>
<text text-anchor="start" x="498.652" y="-220.3" font-family="mono" font-size="14.00" fill="#c83500">idempotent</text>
<text text-anchor="start" x="581.652" y="-220.3" font-family="Times,serif" font-size="14.00"> : </text>
<text text-anchor="start" x="593.652" y="-220.3" font-family="mono" font-size="14.00" fill="#c83500">boolean</text>
<text text-anchor="start" x="651.652" y="-220.3" font-family="Times,serif" font-size="14.00"> </text>
<text text-anchor="start" x="655.652" y="-220.3" font-family="Times,serif" font-style="italic" font-size="14.00">(mandatory)</text>
</g>
<!-- Thing&#45;&gt;ActionAffordance -->
<g id="edge6" class="edge"><title>Thing&#45;&gt;ActionAffordance</title>
<path fill="none" stroke="black" d="M610.652,-330.832C610.652,-316.596 610.652,-302.804 610.652,-290.608"/>
<polygon fill="black" stroke="black" points="614.152,-290.33 610.652,-280.33 607.152,-290.33 614.152,-290.33"/>
<text text-anchor="start" x="610.652" y="-301.8" font-family="mono" font-size="14.00" fill="#c83500">actions</text>
<text text-anchor="middle" x="599.652" y="-284.13" font-family="Times,serif" font-size="14.00">0..1</text>
</g>
<!-- EventAffordance -->
<g id="node7" class="node"><title>EventAffordance</title>
<polygon fill="#8ccbf2" stroke="none" points="760.652,-233.5 760.652,-254.5 890.652,-254.5 890.652,-233.5 760.652,-233.5"/>
<polygon fill="none" stroke="#8ccbf2" points="760.652,-233.5 760.652,-254.5 890.652,-254.5 890.652,-233.5 760.652,-233.5"/>
<text text-anchor="start" x="763.652" y="-241.3" font-family="mono" font-weight="bold" font-size="14.00" fill="#c83500">EventAffordance</text>
</g>
<!-- Thing&#45;&gt;EventAffordance -->
<g id="edge9" class="edge"><title>Thing&#45;&gt;EventAffordance</title>
<path fill="none" stroke="black" d="M735.719,-330.832C760.012,-307.782 783.074,-285.899 799.762,-270.065"/>
<polygon fill="black" stroke="black" points="802.575,-272.222 807.42,-262.799 797.757,-267.144 802.575,-272.222"/>
<text text-anchor="start" x="768.652" y="-301.8" font-family="mono" font-size="14.00" fill="#c83500">events</text>
<text text-anchor="middle" x="796.42" y="-266.599" font-family="Times,serif" font-size="14.00">0..1</text>
</g>
<!-- Link -->
<g id="node8" class="node"><title>Link</title>
<polygon fill="#f2f2f2" stroke="none" points="1165.65,-233.5 1165.65,-254.5 1205.65,-254.5 1205.65,-233.5 1165.65,-233.5"/>
<polygon fill="none" stroke="#8c8c8c" points="1165.65,-233.5 1165.65,-254.5 1205.65,-254.5 1205.65,-233.5 1165.65,-233.5"/>
<text text-anchor="start" x="1168.65" y="-241.3" font-family="mono" font-weight="bold" font-size="14.00">Link</text>
</g>
<!-- Thing&#45;&gt;Link -->
<g id="edge2" class="edge"><title>Thing&#45;&gt;Link</title>
<path fill="none" stroke="black" d="M748.267,-423.872C861.296,-398.778 1022.7,-353.429 1148.65,-280 1153.58,-277.125 1158.4,-273.485 1162.83,-269.655"/>
<polygon fill="black" stroke="black" points="1165.4,-272.045 1170.36,-262.679 1160.64,-266.912 1165.4,-272.045"/>
<text text-anchor="start" x="1108.65" y="-301.8" font-family="mono" font-size="14.00" fill="#c83500">links</text>
<text text-anchor="middle" x="1159.36" y="-266.479" font-family="Times,serif" font-size="14.00">0..*</text>
</g>
<!-- SecurityScheme -->
<g id="node9" class="node"><title>SecurityScheme</title>
<polygon fill="#f2f2f2" stroke="none" points="1239.65,-233.5 1239.65,-254.5 1361.65,-254.5 1361.65,-233.5 1239.65,-233.5"/>
<polygon fill="none" stroke="#8c8c8c" points="1239.65,-233.5 1239.65,-254.5 1361.65,-254.5 1361.65,-233.5 1239.65,-233.5"/>
<text text-anchor="start" x="1242.65" y="-241.3" font-family="mono" font-weight="bold" font-size="14.00">SecurityScheme</text>
</g>
<!-- Thing&#45;&gt;SecurityScheme -->
<g id="edge5" class="edge"><title>Thing&#45;&gt;SecurityScheme</title>
<path fill="none" stroke="black" d="M748.279,-422.436C859.533,-398.787 1019.34,-360.782 1154.65,-313 1191.01,-300.163 1230.61,-281.54 1259.39,-267.106"/>
<polygon fill="black" stroke="black" points="1260.99,-270.218 1268.33,-262.579 1257.83,-263.972 1260.99,-270.218"/>
<text text-anchor="start" x="1191.65" y="-301.8" font-family="mono" font-size="14.00" fill="#c83500">securityDefinitions</text>
<text text-anchor="middle" x="1257.33" y="-266.379" font-family="Times,serif" font-size="14.00">1..1</text>
</g>
<!-- Form -->
<g id="node10" class="node"><title>Form</title>
<polygon fill="#f2f2f2" stroke="none" points="313.652,-7 313.652,-28 353.652,-28 353.652,-7 313.652,-7"/>
<polygon fill="none" stroke="#8c8c8c" points="313.652,-7 313.652,-28 353.652,-28 353.652,-7 313.652,-7"/>
<text text-anchor="start" x="316.652" y="-14.8" font-family="mono" font-weight="bold" font-size="14.00">Form</text>
</g>
<!-- Thing&#45;&gt;Form -->
<g id="edge7" class="edge"><title>Thing&#45;&gt;Form</title>
<path fill="none" stroke="black" d="M472.757,-414.708C403.473,-389.494 325.704,-347.613 284.652,-280 238.459,-203.918 289.804,-94.1532 317.845,-44.7771"/>
<polygon fill="black" stroke="black" points="320.943,-46.4122 322.944,-36.008 314.892,-42.8935 320.943,-46.4122"/>
<text text-anchor="start" x="268.652" y="-179.8" font-family="mono" font-size="14.00" fill="#c83500">forms</text>
<text text-anchor="middle" x="311.944" y="-39.808" font-family="Times,serif" font-size="14.00">0..*</text>
</g>
<!-- InteractionAffordance -->
<g id="node6" class="node"><title>InteractionAffordance</title>
<polygon fill="#8ccbf2" stroke="none" points="358.652,-132.5 358.652,-153.5 538.652,-153.5 538.652,-132.5 358.652,-132.5"/>
<polygon fill="none" stroke="#8ccbf2" points="358.652,-132.5 358.652,-153.5 538.652,-153.5 538.652,-132.5 358.652,-132.5"/>
<text text-anchor="start" x="361.652" y="-140.3" font-family="mono" font-weight="bold" font-size="14.00" fill="#c83500">InteractionAffordance</text>
<polygon fill="#ddeeff" stroke="none" points="358.652,-111.5 358.652,-132.5 538.652,-132.5 538.652,-111.5 358.652,-111.5"/>
<polygon fill="none" stroke="#8ccbf2" points="358.652,-111.5 358.652,-132.5 538.652,-132.5 538.652,-111.5 358.652,-111.5"/>
<text text-anchor="start" x="361.652" y="-119.3" font-family="mono" font-size="14.00" fill="#c83500">description</text>
<text text-anchor="start" x="452.652" y="-119.3" font-family="Times,serif" font-size="14.00"> : </text>
<text text-anchor="start" x="464.652" y="-119.3" font-family="mono" font-size="14.00" fill="#c83500">string</text>
<polygon fill="#ddeeff" stroke="none" points="358.652,-90.5 358.652,-111.5 538.652,-111.5 538.652,-90.5 358.652,-90.5"/>
<polygon fill="none" stroke="#8ccbf2" points="358.652,-90.5 358.652,-111.5 538.652,-111.5 538.652,-90.5 358.652,-90.5"/>
<text text-anchor="start" x="361.652" y="-98.3" font-family="mono" font-size="14.00" fill="#c83500">title</text>
<text text-anchor="start" x="403.652" y="-98.3" font-family="Times,serif" font-size="14.00"> : </text>
<text text-anchor="start" x="415.652" y="-98.3" font-family="mono" font-size="14.00" fill="#c83500">string</text>
</g>
<!-- PropertyAffordance&#45;&gt;InteractionAffordance -->
<g id="edge20" class="edge"><title>PropertyAffordance&#45;&gt;InteractionAffordance</title>
<path fill="none" stroke="black" d="M395.211,-219.216C403.546,-204.286 414.472,-184.718 424.271,-167.168"/>
<polygon fill="white" stroke="black" points="427.454,-168.646 429.273,-158.209 421.342,-165.234 427.454,-168.646"/>
</g>
<!-- DataSchema -->
<g id="node11" class="node"><title>DataSchema</title>
<polygon fill="#f2f2f2" stroke="none" points="616.652,-7 616.652,-28 705.652,-28 705.652,-7 616.652,-7"/>
<polygon fill="none" stroke="#8c8c8c" points="616.652,-7 616.652,-28 705.652,-28 705.652,-7 616.652,-7"/>
<text text-anchor="start" x="619.652" y="-14.8" font-family="mono" font-weight="bold" font-size="14.00">DataSchema</text>
</g>
<!-- PropertyAffordance&#45;&gt;DataSchema -->
<g id="edge19" class="edge"><title>PropertyAffordance&#45;&gt;DataSchema</title>
<path fill="none" stroke="black" d="M366.917,-219.458C357.638,-202.862 346.525,-179.916 341.652,-158 331.237,-111.158 328.2,-76.3699 370.652,-54 408.895,-33.8481 524.812,-25.0144 597.99,-21.3614"/>
<polygon fill="white" stroke="black" points="598.199,-24.8555 608.02,-20.8797 597.863,-17.8635 598.199,-24.8555"/>
</g>
<!-- ActionAffordance&#45;&gt;InteractionAffordance -->
<g id="edge21" class="edge"><title>ActionAffordance&#45;&gt;InteractionAffordance</title>
<path fill="none" stroke="black" d="M554.411,-208.882C545.658,-203.098 536.817,-197.018 528.652,-191 517.587,-182.845 506.077,-173.616 495.35,-164.659"/>
<polygon fill="white" stroke="black" points="497.597,-161.976 487.696,-158.205 493.085,-167.327 497.597,-161.976"/>
</g>
<!-- ActionAffordance&#45;&gt;DataSchema -->
<g id="edge10" class="edge"><title>ActionAffordance&#45;&gt;DataSchema</title>
<path fill="none" stroke="black" d="M618.355,-208.914C628.338,-164.09 645.539,-86.8586 654.625,-46.0634"/>
<polygon fill="black" stroke="black" points="658.097,-46.5706 656.855,-36.0489 651.265,-45.0488 658.097,-46.5706"/>
<text text-anchor="start" x="645.652" y="-118.8" font-family="mono" font-size="14.00" fill="#c83500">output</text>
<text text-anchor="middle" x="645.855" y="-39.8489" font-family="Times,serif" font-size="14.00">0..1</text>
</g>
<!-- ActionAffordance&#45;&gt;DataSchema -->
<g id="edge11" class="edge"><title>ActionAffordance&#45;&gt;DataSchema</title>
<path fill="none" stroke="black" d="M593.949,-208.786C580.693,-176.076 567.058,-126.35 584.652,-87 592.762,-68.8622 608.365,-53.5594 623.335,-42.0915"/>
<polygon fill="black" stroke="black" points="625.51,-44.837 631.534,-36.1213 621.39,-39.1781 625.51,-44.837"/>
<text text-anchor="start" x="584.652" y="-118.8" font-family="mono" font-size="14.00" fill="#c83500">input</text>
<text text-anchor="middle" x="620.534" y="-39.9213" font-family="Times,serif" font-size="14.00">0..1</text>
</g>
<!-- InteractionAffordance&#45;&gt;MultiLanguage -->
<g id="edge12" class="edge"><title>InteractionAffordance&#45;&gt;MultiLanguage</title>
<path fill="none" stroke="black" d="M350.578,-117.217C264.081,-111.52 146.386,-98.4723 110.652,-69 103.695,-63.2618 99.4264,-54.6158 96.8076,-46.1192"/>
<polygon fill="black" stroke="black" points="100.205,-45.2784 94.4289,-36.3967 93.4057,-46.942 100.205,-45.2784"/>
<text text-anchor="start" x="110.652" y="-57.8" font-family="mono" font-size="14.00" fill="#c83500">descriptions</text>
<text text-anchor="middle" x="83.4289" y="-40.1967" font-family="Times,serif" font-size="14.00">0..1</text>
</g>
<!-- InteractionAffordance&#45;&gt;MultiLanguage -->
<g id="edge15" class="edge"><title>InteractionAffordance&#45;&gt;MultiLanguage</title>
<path fill="none" stroke="black" d="M350.431,-93.2201C290.466,-75.9548 215.27,-54.3042 161.597,-38.8507"/>
<polygon fill="black" stroke="black" points="162.412,-35.4432 151.834,-36.0397 160.475,-42.17 162.412,-35.4432"/>
<text text-anchor="start" x="260.652" y="-57.8" font-family="mono" font-size="14.00" fill="#c83500">titles</text>
<text text-anchor="middle" x="140.834" y="-39.8397" font-family="Times,serif" font-size="14.00">0..1</text>
</g>
<!-- InteractionAffordance&#45;&gt;Form -->
<g id="edge13" class="edge"><title>InteractionAffordance&#45;&gt;Form</title>
<path fill="none" stroke="black" d="M409.718,-86.7982C393.555,-72.3912 375.198,-56.0297 360.567,-42.9895"/>
<polygon fill="black" stroke="black" points="362.654,-40.1611 352.86,-36.1201 357.997,-45.3867 362.654,-40.1611"/>
<text text-anchor="start" x="388.652" y="-57.8" font-family="mono" font-size="14.00" fill="#c83500">forms</text>
<text text-anchor="middle" x="341.86" y="-39.9201" font-family="Times,serif" font-size="14.00">1..*</text>
</g>
<!-- InteractionAffordance&#45;&gt;DataSchema -->
<g id="edge14" class="edge"><title>InteractionAffordance&#45;&gt;DataSchema</title>
<path fill="none" stroke="black" d="M451.506,-86.9995C454.217,-74.979 459.284,-62.4095 468.652,-54 487.425,-37.1482 549.32,-28.0588 597.82,-23.4032"/>
<polygon fill="black" stroke="black" points="598.307,-26.8734 607.946,-22.4759 597.668,-19.9026 598.307,-26.8734"/>
<text text-anchor="start" x="468.652" y="-57.8" font-family="mono" font-size="14.00" fill="#c83500">uriVariables</text>
<text text-anchor="middle" x="596.946" y="-26.2759" font-family="Times,serif" font-size="14.00">0..1</text>
</g>
<!-- EventAffordance&#45;&gt;InteractionAffordance -->
<g id="edge22" class="edge"><title>EventAffordance&#45;&gt;InteractionAffordance</title>
<path fill="none" stroke="black" d="M787.178,-226.372C773.287,-220.491 757.397,-214.109 742.652,-209 663.278,-181.495 641.244,-181.7 560.652,-158 559.39,-157.629 558.119,-157.254 556.842,-156.877"/>
<polygon fill="white" stroke="black" points="557.528,-153.429 546.945,-153.934 555.533,-160.139 557.528,-153.429"/>
</g>
<!-- EventAffordance&#45;&gt;DataSchema -->
<g id="edge16" class="edge"><title>EventAffordance&#45;&gt;DataSchema</title>
<path fill="none" stroke="black" d="M835.749,-226.203C852.316,-195.306 880.587,-129.859 850.652,-87 822.177,-46.2297 766.866,-29.7655 723.234,-23.1877"/>
<polygon fill="black" stroke="black" points="723.65,-19.7122 713.268,-21.8237 722.701,-26.6475 723.65,-19.7122"/>
<text text-anchor="start" x="864.652" y="-118.8" font-family="mono" font-size="14.00" fill="#c83500">data</text>
<text text-anchor="middle" x="724.268" y="-10.6237" font-family="Times,serif" font-size="14.00">0..1</text>
</g>
<!-- EventAffordance&#45;&gt;DataSchema -->
<g id="edge17" class="edge"><title>EventAffordance&#45;&gt;DataSchema</title>
<path fill="none" stroke="black" d="M848.431,-226.36C866.994,-210.847 891.841,-186.16 902.652,-158 913.962,-128.541 919.075,-113.945 902.652,-87 883.923,-56.27 788.884,-36.9118 723.633,-27.0275"/>
<polygon fill="black" stroke="black" points="723.836,-23.5197 713.432,-25.5221 722.814,-30.4447 723.836,-23.5197"/>
<text text-anchor="start" x="913.652" y="-118.8" font-family="mono" font-size="14.00" fill="#c83500">subscription</text>
<text text-anchor="middle" x="724.432" y="-29.3221" font-family="Times,serif" font-size="14.00">0..1</text>
</g>
<!-- EventAffordance&#45;&gt;DataSchema -->
<g id="edge18" class="edge"><title>EventAffordance&#45;&gt;DataSchema</title>
<path fill="none" stroke="black" d="M807.961,-226.363C791.217,-209.695 765.854,-183.26 746.652,-158 731.504,-138.073 696.394,-79.6015 676.027,-45.1717"/>
<polygon fill="black" stroke="black" points="678.8,-42.9832 670.703,-36.1503 672.772,-46.5412 678.8,-42.9832"/>
<text text-anchor="start" x="746.652" y="-118.8" font-family="mono" font-size="14.00" fill="#c83500">cancellation</text>
<text text-anchor="middle" x="681.703" y="-39.9503" font-family="Times,serif" font-size="14.00">0..1</text>
</g>
</g>
</svg>
