<?xml version="1.0" encoding="UTF-8" standalone="no"?>
<!DOCTYPE svg PUBLIC "-//W3C//DTD SVG 1.1//EN"
 "http://www.w3.org/Graphics/SVG/1.1/DTD/svg11.dtd">
<!-- Generated by graphviz version 2.40.1 (20161225.0304)
 -->
<!-- Title: %3 Pages: 1 -->
<svg width="1043pt" height="515pt"
 viewBox="0.00 0.00 1043.31 515.00" xmlns="http://www.w3.org/2000/svg" xmlns:xlink="http://www.w3.org/1999/xlink">
<g id="graph0" class="graph" transform="scale(1 1) rotate(0) translate(4 511)">
<title>%3</title>
<polygon fill="#ffffff" stroke="transparent" points="-4,4 -4,-511 1039.3122,-511 1039.3122,4 -4,4"/>
<!-- ActionAffordance -->
<g id="node1" class="node">
<title>ActionAffordance</title>
<polygon fill="#8ccbf2" stroke="transparent" points="512.8122,-254.5 512.8122,-275.5 649.8122,-275.5 649.8122,-254.5 512.8122,-254.5"/>
<polygon fill="none" stroke="#8ccbf2" points="512.8122,-254.5 512.8122,-275.5 649.8122,-275.5 649.8122,-254.5 512.8122,-254.5"/>
<text text-anchor="start" x="522.3122" y="-262.3" font-family="mono" font-weight="bold" font-size="14.00" fill="#c83500">ActionAffordance</text>
<polygon fill="#ddeeff" stroke="transparent" points="512.8122,-233.5 512.8122,-254.5 649.8122,-254.5 649.8122,-233.5 512.8122,-233.5"/>
<polygon fill="none" stroke="#8ccbf2" points="512.8122,-233.5 512.8122,-254.5 649.8122,-254.5 649.8122,-233.5 512.8122,-233.5"/>
<text text-anchor="start" x="515.8122" y="-241.3" font-family="mono" font-size="14.00" fill="#c83500">safe</text>
<text text-anchor="start" x="542.8122" y="-241.3" font-family="Times,serif" font-size="14.00" fill="#000000"> : </text>
<text text-anchor="start" x="553.8122" y="-241.3" font-family="mono" font-size="14.00" fill="#c83500">boolean</text>
<polygon fill="#ddeeff" stroke="transparent" points="512.8122,-212.5 512.8122,-233.5 649.8122,-233.5 649.8122,-212.5 512.8122,-212.5"/>
<polygon fill="none" stroke="#8ccbf2" points="512.8122,-212.5 512.8122,-233.5 649.8122,-233.5 649.8122,-212.5 512.8122,-212.5"/>
<text text-anchor="start" x="515.8122" y="-220.3" font-family="mono" font-size="14.00" fill="#c83500">idempotent</text>
<text text-anchor="start" x="585.8122" y="-220.3" font-family="Times,serif" font-size="14.00" fill="#000000"> : </text>
<text text-anchor="start" x="596.8122" y="-220.3" font-family="mono" font-size="14.00" fill="#c83500">boolean</text>
</g>
<!-- InteractionAffordance -->
<g id="node3" class="node">
<title>InteractionAffordance</title>
<polygon fill="#8ccbf2" stroke="transparent" points="274.8122,-132.5 274.8122,-153.5 605.8122,-153.5 605.8122,-132.5 274.8122,-132.5"/>
<polygon fill="none" stroke="#8ccbf2" points="274.8122,-132.5 274.8122,-153.5 605.8122,-153.5 605.8122,-132.5 274.8122,-132.5"/>
<text text-anchor="start" x="367.3122" y="-140.3" font-family="mono" font-weight="bold" font-size="14.00" fill="#c83500">InteractionAffordance</text>
<polygon fill="#ddeeff" stroke="transparent" points="274.8122,-111.5 274.8122,-132.5 605.8122,-132.5 605.8122,-111.5 274.8122,-111.5"/>
<polygon fill="none" stroke="#8ccbf2" points="274.8122,-111.5 274.8122,-132.5 605.8122,-132.5 605.8122,-111.5 274.8122,-111.5"/>
<text text-anchor="start" x="277.8122" y="-119.3" font-family="mono" font-size="14.00" fill="#c83500">title</text>
<text text-anchor="start" x="299.8122" y="-119.3" font-family="Times,serif" font-size="14.00" fill="#000000"> : Map of </text>
<text text-anchor="start" x="355.8122" y="-119.3" font-family="mono" font-size="14.00" fill="#c83500">string</text>
<text text-anchor="start" x="390.8122" y="-119.3" font-family="mono" font-size="14.00" fill="#c83500">titles</text>
<text text-anchor="start" x="419.8122" y="-119.3" font-family="Times,serif" font-size="14.00" fill="#000000"> : Map of </text>
<text text-anchor="start" x="475.8122" y="-119.3" font-family="mono" font-size="14.00" fill="#c83500">string</text>
<polygon fill="#ddeeff" stroke="transparent" points="274.8122,-90.5 274.8122,-111.5 605.8122,-111.5 605.8122,-90.5 274.8122,-90.5"/>
<polygon fill="none" stroke="#8ccbf2" points="274.8122,-90.5 274.8122,-111.5 605.8122,-111.5 605.8122,-90.5 274.8122,-90.5"/>
<text text-anchor="start" x="277.8122" y="-98.3" font-family="mono" font-size="14.00" fill="#c83500">description</text>
<text text-anchor="start" x="345.8122" y="-98.3" font-family="Times,serif" font-size="14.00" fill="#000000"> : Map of </text>
<text text-anchor="start" x="401.8122" y="-98.3" font-family="mono" font-size="14.00" fill="#c83500">string</text>
<text text-anchor="start" x="436.8122" y="-98.3" font-family="mono" font-size="14.00" fill="#c83500">descriptions</text>
<text text-anchor="start" x="511.8122" y="-98.3" font-family="Times,serif" font-size="14.00" fill="#000000"> : Map of </text>
<text text-anchor="start" x="567.8122" y="-98.3" font-family="mono" font-size="14.00" fill="#c83500">string</text>
</g>
<!-- ActionAffordance&#45;&gt;InteractionAffordance -->
<g id="edge15" class="edge">
<title>ActionAffordance&#45;&gt;InteractionAffordance</title>
<path fill="none" stroke="#000000" d="M539.6502,-208.8846C523.863,-195.2248 505.687,-179.498 489.2061,-165.238"/>
<polygon fill="#ffffff" stroke="#000000" points="491.1219,-162.2673 481.2696,-158.3709 486.5417,-167.5609 491.1219,-162.2673"/>
</g>
<!-- DataSchema -->
<g id="node9" class="node">
<title>DataSchema</title>
<polygon fill="#f2f2f2" stroke="transparent" points="195.8122,-7 195.8122,-28 286.8122,-28 286.8122,-7 195.8122,-7"/>
<polygon fill="none" stroke="#8c8c8c" points="195.8122,-7 195.8122,-28 286.8122,-28 286.8122,-7 195.8122,-7"/>
<text text-anchor="start" x="198.8122" y="-14.8" font-family="mono" font-weight="bold" font-size="14.00" fill="#000000">DataSchema</text>
</g>
<!-- ActionAffordance&#45;&gt;DataSchema -->
<g id="edge4" class="edge">
<title>ActionAffordance&#45;&gt;DataSchema</title>
<path fill="none" stroke="#000000" d="M606.2122,-208.9781C627.6757,-174.2172 650.7007,-121.5901 621.8122,-87 582.1198,-39.4735 402.2386,-24.617 304.4986,-20.0224"/>
<polygon fill="#000000" stroke="#000000" points="304.5868,-16.523 294.4403,-19.5722 304.2737,-23.516 304.5868,-16.523"/>
<text text-anchor="start" x="635.8122" y="-118.8" font-family="mono" font-size="14.00" fill="#c83500">input</text>
<text text-anchor="middle" x="305.4403" y="-8.3722" font-family="Times,serif" font-size="14.00" fill="#000000">0..1</text>
</g>
<!-- ActionAffordance&#45;&gt;DataSchema -->
<g id="edge5" class="edge">
<title>ActionAffordance&#45;&gt;DataSchema</title>
<path fill="none" stroke="#000000" d="M631.8332,-208.6529C647.3511,-194.7959 662.4906,-177.54 670.8122,-158 683.1764,-128.9676 688.3043,-113.2637 670.8122,-87 649.7194,-55.3299 628.6905,-63.3753 591.8122,-54 539.1126,-40.6026 390.7008,-28.4737 304.6722,-22.2971"/>
<polygon fill="#000000" stroke="#000000" points="304.7239,-18.7921 294.5008,-21.5737 304.2273,-25.7744 304.7239,-18.7921"/>
<text text-anchor="start" x="682.8122" y="-118.8" font-family="mono" font-size="14.00" fill="#c83500">output</text>
<text text-anchor="middle" x="305.5008" y="-25.3737" font-family="Times,serif" font-size="14.00" fill="#000000">0..1</text>
</g>
<!-- EventAffordance -->
<g id="node2" class="node">
<title>EventAffordance</title>
<polygon fill="#8ccbf2" stroke="transparent" points="114.8122,-233.5 114.8122,-254.5 233.8122,-254.5 233.8122,-233.5 114.8122,-233.5"/>
<polygon fill="none" stroke="#8ccbf2" points="114.8122,-233.5 114.8122,-254.5 233.8122,-254.5 233.8122,-233.5 114.8122,-233.5"/>
<text text-anchor="start" x="117.8122" y="-241.3" font-family="mono" font-weight="bold" font-size="14.00" fill="#c83500">EventAffordance</text>
</g>
<!-- EventAffordance&#45;&gt;InteractionAffordance -->
<g id="edge16" class="edge">
<title>EventAffordance&#45;&gt;InteractionAffordance</title>
<path fill="none" stroke="#000000" d="M213.0615,-226.4985C249.7099,-209.6898 305.6814,-184.0187 352.8439,-162.3877"/>
<polygon fill="#ffffff" stroke="#000000" points="354.5201,-165.4696 362.1506,-158.1193 351.6019,-159.1069 354.5201,-165.4696"/>
</g>
<!-- EventAffordance&#45;&gt;DataSchema -->
<g id="edge6" class="edge">
<title>EventAffordance&#45;&gt;DataSchema</title>
<path fill="none" stroke="#000000" d="M106.4723,-226.4718C72.0289,-213.4627 33.1665,-192.0416 12.8122,-158 -3.3816,-130.9165 -4.9059,-113.1117 12.8122,-87 31.4543,-59.5266 116.4007,-39.3728 177.147,-28.1643"/>
<polygon fill="#000000" stroke="#000000" points="177.8327,-31.5972 187.0516,-26.3758 176.5888,-24.7086 177.8327,-31.5972"/>
<text text-anchor="start" x="12.8122" y="-118.8" font-family="mono" font-size="14.00" fill="#c83500">subscription</text>
<text text-anchor="middle" x="176.0516" y="-30.1758" font-family="Times,serif" font-size="14.00" fill="#000000">0..1</text>
</g>
<!-- EventAffordance&#45;&gt;DataSchema -->
<g id="edge7" class="edge">
<title>EventAffordance&#45;&gt;DataSchema</title>
<path fill="none" stroke="#000000" d="M159.4761,-226.0859C138.0697,-196.1988 102.4414,-135.581 123.8122,-87 133.9105,-64.0443 155.8099,-48.2536 177.9628,-37.6363"/>
<polygon fill="#000000" stroke="#000000" points="179.4112,-40.8227 187.1036,-33.5373 176.5469,-34.4355 179.4112,-40.8227"/>
<text text-anchor="start" x="123.8122" y="-118.8" font-family="mono" font-size="14.00" fill="#c83500">data</text>
<text text-anchor="middle" x="198.1036" y="-37.3373" font-family="Times,serif" font-size="14.00" fill="#000000">0..1</text>
</g>
<!-- EventAffordance&#45;&gt;DataSchema -->
<g id="edge8" class="edge">
<title>EventAffordance&#45;&gt;DataSchema</title>
<path fill="none" stroke="#000000" d="M171.2454,-226.2318C167.7784,-196.0351 164.0094,-134.3453 182.8122,-87 189.2562,-70.7742 201.0987,-55.5865 212.4107,-43.6136"/>
<polygon fill="#000000" stroke="#000000" points="215.1663,-45.8044 219.7056,-36.2313 210.1872,-40.8842 215.1663,-45.8044"/>
<text text-anchor="start" x="182.8122" y="-118.8" font-family="mono" font-size="14.00" fill="#c83500">cancellation</text>
<text text-anchor="middle" x="230.7056" y="-40.0313" font-family="Times,serif" font-size="14.00" fill="#000000">0..1</text>
</g>
<!-- Form -->
<g id="node7" class="node">
<title>Form</title>
<polygon fill="#f2f2f2" stroke="transparent" points="756.8122,-7 756.8122,-28 798.8122,-28 798.8122,-7 756.8122,-7"/>
<polygon fill="none" stroke="#8c8c8c" points="756.8122,-7 756.8122,-28 798.8122,-28 798.8122,-7 756.8122,-7"/>
<text text-anchor="start" x="759.8122" y="-14.8" font-family="mono" font-weight="bold" font-size="14.00" fill="#000000">Form</text>
</g>
<!-- InteractionAffordance&#45;&gt;Form -->
<g id="edge1" class="edge">
<title>InteractionAffordance&#45;&gt;Form</title>
<path fill="none" stroke="#000000" d="M554.7153,-86.9753C618.7679,-67.172 694.4105,-43.7854 739.1206,-29.9623"/>
<polygon fill="#000000" stroke="#000000" points="740.1958,-33.2935 748.7157,-26.9958 738.1281,-26.6058 740.1958,-33.2935"/>
<text text-anchor="start" x="659.8122" y="-57.8" font-family="mono" font-size="14.00" fill="#c83500">forms</text>
<text text-anchor="middle" x="737.7157" y="-30.7958" font-family="Times,serif" font-size="14.00" fill="#000000">1..*</text>
</g>
<!-- InteractionAffordance&#45;&gt;DataSchema -->
<g id="edge14" class="edge">
<title>InteractionAffordance&#45;&gt;DataSchema</title>
<path fill="none" stroke="#000000" d="M372.1622,-86.9753C343.1603,-71.7456 310.1227,-54.3967 284.4364,-40.9081"/>
<polygon fill="#000000" stroke="#000000" points="285.8075,-37.6749 275.3267,-36.1244 282.553,-43.8724 285.8075,-37.6749"/>
<text text-anchor="start" x="334.8122" y="-57.8" font-family="mono" font-size="14.00" fill="#c83500">uriVariables</text>
<text text-anchor="middle" x="264.3267" y="-39.9244" font-family="Times,serif" font-size="14.00" fill="#000000">0..*</text>
</g>
<!-- PropertyAffordance -->
<g id="node4" class="node">
<title>PropertyAffordance</title>
<polygon fill="#8ccbf2" stroke="transparent" points="339.8122,-244.5 339.8122,-265.5 477.8122,-265.5 477.8122,-244.5 339.8122,-244.5"/>
<polygon fill="none" stroke="#8ccbf2" points="339.8122,-244.5 339.8122,-265.5 477.8122,-265.5 477.8122,-244.5 339.8122,-244.5"/>
<text text-anchor="start" x="342.8122" y="-252.3" font-family="mono" font-weight="bold" font-size="14.00" fill="#c83500">PropertyAffordance</text>
<polygon fill="#ddeeff" stroke="transparent" points="339.8122,-223.5 339.8122,-244.5 477.8122,-244.5 477.8122,-223.5 339.8122,-223.5"/>
<polygon fill="none" stroke="#8ccbf2" points="339.8122,-223.5 339.8122,-244.5 477.8122,-244.5 477.8122,-223.5 339.8122,-223.5"/>
<text text-anchor="start" x="342.8122" y="-231.3" font-family="mono" font-size="14.00" fill="#c83500">observable</text>
<text text-anchor="start" x="411.8122" y="-231.3" font-family="Times,serif" font-size="14.00" fill="#000000"> : </text>
<text text-anchor="start" x="422.8122" y="-231.3" font-family="mono" font-size="14.00" fill="#c83500">boolean</text>
</g>
<!-- PropertyAffordance&#45;&gt;InteractionAffordance -->
<g id="edge17" class="edge">
<title>PropertyAffordance&#45;&gt;InteractionAffordance</title>
<path fill="none" stroke="#000000" d="M415.2355,-219.2215C418.9714,-204.519 423.7935,-185.5417 428.1755,-168.296"/>
<polygon fill="#ffffff" stroke="#000000" points="431.6227,-168.9416 430.6933,-158.3876 424.8383,-167.2176 431.6227,-168.9416"/>
</g>
<!-- Thing -->
<g id="node5" class="node">
<title>Thing</title>
<polygon fill="#8ccbf2" stroke="transparent" points="560.8122,-482 560.8122,-503 891.8122,-503 891.8122,-482 560.8122,-482"/>
<polygon fill="none" stroke="#8ccbf2" points="560.8122,-482 560.8122,-503 891.8122,-503 891.8122,-482 560.8122,-482"/>
<text text-anchor="start" x="706.8122" y="-489.8" font-family="mono" font-weight="bold" font-size="14.00" fill="#c83500">Thing</text>
<polygon fill="#ddeeff" stroke="transparent" points="560.8122,-461 560.8122,-482 891.8122,-482 891.8122,-461 560.8122,-461"/>
<polygon fill="none" stroke="#8ccbf2" points="560.8122,-461 560.8122,-482 891.8122,-482 891.8122,-461 560.8122,-461"/>
<text text-anchor="start" x="563.8122" y="-468.8" font-family="mono" font-size="14.00" fill="#c83500">@context</text>
<text text-anchor="start" x="623.8122" y="-468.8" font-family="Times,serif" font-size="14.00" fill="#000000"> : </text>
<text text-anchor="start" x="634.8122" y="-468.8" font-family="mono" font-style="italic" font-size="14.00" fill="#c83500">anyURI</text>
<text text-anchor="start" x="681.8122" y="-468.8" font-family="Times,serif" font-style="italic" font-size="14.00" fill="#000000"> or Array</text>
<text text-anchor="start" x="734.8122" y="-468.8" font-family="Times,serif" font-size="14.00" fill="#000000"> </text>
<text text-anchor="start" x="738.8122" y="-468.8" font-family="Times,serif" font-style="italic" font-size="14.00" fill="#000000">(mandatory)</text>
<polygon fill="#ddeeff" stroke="transparent" points="560.8122,-440 560.8122,-461 891.8122,-461 891.8122,-440 560.8122,-440"/>
<polygon fill="none" stroke="#8ccbf2" points="560.8122,-440 560.8122,-461 891.8122,-461 891.8122,-440 560.8122,-440"/>
<text text-anchor="start" x="563.8122" y="-447.8" font-family="mono" font-size="14.00" fill="#c83500">@type</text>
<text text-anchor="start" x="604.8122" y="-447.8" font-family="Times,serif" font-size="14.00" fill="#000000"> : </text>
<text text-anchor="start" x="615.8122" y="-447.8" font-family="Times,serif" font-style="italic" font-size="14.00" fill="#000000">(Array of) </text>
<text text-anchor="start" x="675.8122" y="-447.8" font-family="mono" font-size="14.00" fill="#c83500">string</text>
<polygon fill="#ddeeff" stroke="transparent" points="560.8122,-419 560.8122,-440 891.8122,-440 891.8122,-419 560.8122,-419"/>
<polygon fill="none" stroke="#8ccbf2" points="560.8122,-419 560.8122,-440 891.8122,-440 891.8122,-419 560.8122,-419"/>
<text text-anchor="start" x="563.8122" y="-426.8" font-family="mono" font-size="14.00" fill="#c83500">id</text>
<text text-anchor="start" x="574.8122" y="-426.8" font-family="Times,serif" font-size="14.00" fill="#000000"> : </text>
<text text-anchor="start" x="585.8122" y="-426.8" font-family="mono" font-size="14.00" fill="#c83500">anyURI</text>
<text text-anchor="start" x="632.8122" y="-426.8" font-family="Times,serif" font-size="14.00" fill="#000000"> </text>
<text text-anchor="start" x="636.8122" y="-426.8" font-family="Times,serif" font-style="italic" font-size="14.00" fill="#000000">(mandatory)</text>
<polygon fill="#ddeeff" stroke="transparent" points="560.8122,-398 560.8122,-419 891.8122,-419 891.8122,-398 560.8122,-398"/>
<polygon fill="none" stroke="#8ccbf2" points="560.8122,-398 560.8122,-419 891.8122,-419 891.8122,-398 560.8122,-398"/>
<text text-anchor="start" x="563.8122" y="-405.8" font-family="mono" font-size="14.00" fill="#c83500">title</text>
<text text-anchor="start" x="585.8122" y="-405.8" font-family="Times,serif" font-size="14.00" fill="#000000"> : Map of </text>
<text text-anchor="start" x="641.8122" y="-405.8" font-family="mono" font-size="14.00" fill="#c83500">string</text>
<text text-anchor="start" x="676.8122" y="-405.8" font-family="Times,serif" font-size="14.00" fill="#000000"> </text>
<text text-anchor="start" x="680.8122" y="-405.8" font-family="Times,serif" font-style="italic" font-size="14.00" fill="#000000">(mandatory)</text>
<text text-anchor="start" x="750.8122" y="-405.8" font-family="mono" font-size="14.00" fill="#c83500">titles</text>
<text text-anchor="start" x="779.8122" y="-405.8" font-family="Times,serif" font-size="14.00" fill="#000000"> : Map of </text>
<text text-anchor="start" x="835.8122" y="-405.8" font-family="mono" font-size="14.00" fill="#c83500">string</text>
<polygon fill="#ddeeff" stroke="transparent" points="560.8122,-377 560.8122,-398 891.8122,-398 891.8122,-377 560.8122,-377"/>
<polygon fill="none" stroke="#8ccbf2" points="560.8122,-377 560.8122,-398 891.8122,-398 891.8122,-377 560.8122,-377"/>
<text text-anchor="start" x="563.8122" y="-384.8" font-family="mono" font-size="14.00" fill="#c83500">created</text>
<text text-anchor="start" x="610.8122" y="-384.8" font-family="Times,serif" font-size="14.00" fill="#000000"> : </text>
<text text-anchor="start" x="621.8122" y="-384.8" font-family="mono" font-size="14.00" fill="#c83500">dateTime</text>
<polygon fill="#ddeeff" stroke="transparent" points="560.8122,-356 560.8122,-377 891.8122,-377 891.8122,-356 560.8122,-356"/>
<polygon fill="none" stroke="#8ccbf2" points="560.8122,-356 560.8122,-377 891.8122,-377 891.8122,-356 560.8122,-356"/>
<text text-anchor="start" x="563.8122" y="-363.8" font-family="mono" font-size="14.00" fill="#c83500">modified</text>
<text text-anchor="start" x="616.8122" y="-363.8" font-family="Times,serif" font-size="14.00" fill="#000000"> : </text>
<text text-anchor="start" x="627.8122" y="-363.8" font-family="mono" font-size="14.00" fill="#c83500">dateTime</text>
<polygon fill="#ddeeff" stroke="transparent" points="560.8122,-335 560.8122,-356 891.8122,-356 891.8122,-335 560.8122,-335"/>
<polygon fill="none" stroke="#8ccbf2" points="560.8122,-335 560.8122,-356 891.8122,-356 891.8122,-335 560.8122,-335"/>
<text text-anchor="start" x="563.8122" y="-342.8" font-family="mono" font-size="14.00" fill="#c83500">description</text>
<text text-anchor="start" x="631.8122" y="-342.8" font-family="Times,serif" font-size="14.00" fill="#000000"> : Map of </text>
<text text-anchor="start" x="687.8122" y="-342.8" font-family="mono" font-size="14.00" fill="#c83500">string</text>
<text text-anchor="start" x="722.8122" y="-342.8" font-family="mono" font-size="14.00" fill="#c83500">descriptions</text>
<text text-anchor="start" x="797.8122" y="-342.8" font-family="Times,serif" font-size="14.00" fill="#000000"> : Map of </text>
<text text-anchor="start" x="853.8122" y="-342.8" font-family="mono" font-size="14.00" fill="#c83500">string</text>
</g>
<!-- Thing&#45;&gt;ActionAffordance -->
<g id="edge12" class="edge">
<title>Thing&#45;&gt;ActionAffordance</title>
<path fill="none" stroke="#000000" d="M652.675,-330.9832C640.3183,-316.1125 627.9863,-301.2716 617.1149,-288.1884"/>
<polygon fill="#000000" stroke="#000000" points="619.6305,-285.7393 610.5475,-280.2849 614.2466,-290.213 619.6305,-285.7393"/>
<text text-anchor="start" x="636.8122" y="-301.8" font-family="mono" font-size="14.00" fill="#c83500">actions</text>
<text text-anchor="middle" x="599.5475" y="-284.0849" font-family="Times,serif" font-size="14.00" fill="#000000">0..*</text>
</g>
<!-- Thing&#45;&gt;EventAffordance -->
<g id="edge13" class="edge">
<title>Thing&#45;&gt;EventAffordance</title>
<path fill="none" stroke="#000000" d="M552.2922,-364.1463C446.4982,-330.7024 317.2907,-289.8569 240.4856,-265.577"/>
<polygon fill="#000000" stroke="#000000" points="241.5142,-262.2315 230.9243,-262.5544 239.4042,-268.9059 241.5142,-262.2315"/>
<text text-anchor="start" x="384.8122" y="-301.8" font-family="mono" font-size="14.00" fill="#c83500">events</text>
<text text-anchor="middle" x="219.9243" y="-266.3544" font-family="Times,serif" font-size="14.00" fill="#000000">0..*</text>
</g>
<!-- Thing&#45;&gt;PropertyAffordance -->
<g id="edge11" class="edge">
<title>Thing&#45;&gt;PropertyAffordance</title>
<path fill="none" stroke="#000000" d="M565.9192,-330.9832C528.9861,-310.6525 492.1538,-290.3773 463.4446,-274.5737"/>
<polygon fill="#000000" stroke="#000000" points="464.8673,-271.3616 454.4191,-269.6053 461.4916,-277.4939 464.8673,-271.3616"/>
<text text-anchor="start" x="529.8122" y="-301.8" font-family="mono" font-size="14.00" fill="#c83500">properties</text>
<text text-anchor="middle" x="443.4191" y="-273.4053" font-family="Times,serif" font-size="14.00" fill="#000000">0..*</text>
</g>
<!-- VersionInfo -->
<g id="node6" class="node">
<title>VersionInfo</title>
<polygon fill="#8ccbf2" stroke="transparent" points="683.8122,-233.5 683.8122,-254.5 767.8122,-254.5 767.8122,-233.5 683.8122,-233.5"/>
<polygon fill="none" stroke="#8ccbf2" points="683.8122,-233.5 683.8122,-254.5 767.8122,-254.5 767.8122,-233.5 683.8122,-233.5"/>
<text text-anchor="start" x="686.8122" y="-241.3" font-family="mono" font-weight="bold" font-size="14.00" fill="#c83500">VersionInfo</text>
</g>
<!-- Thing&#45;&gt;VersionInfo -->
<g id="edge10" class="edge">
<title>Thing&#45;&gt;VersionInfo</title>
<path fill="none" stroke="#000000" d="M725.8122,-330.9832C725.8122,-309.9239 725.8122,-288.9242 725.8122,-272.8921"/>
<polygon fill="#000000" stroke="#000000" points="729.3123,-272.6468 725.8122,-262.6468 722.3123,-272.6469 729.3123,-272.6468"/>
<text text-anchor="start" x="725.8122" y="-301.8" font-family="mono" font-size="14.00" fill="#c83500">version</text>
<text text-anchor="middle" x="714.8122" y="-266.4468" font-family="Times,serif" font-size="14.00" fill="#000000">0..*</text>
</g>
<!-- Thing&#45;&gt;Form -->
<g id="edge3" class="edge">
<title>Thing&#45;&gt;Form</title>
<path fill="none" stroke="#000000" d="M768.8513,-330.7079C771.3176,-324.7617 773.6638,-318.8222 775.8122,-313 809.9827,-220.3976 793.838,-100.0326 783.7691,-46.1874"/>
<polygon fill="#000000" stroke="#000000" points="787.1395,-45.1835 781.7931,-36.0366 780.2685,-46.5212 787.1395,-45.1835"/>
<text text-anchor="start" x="796.8122" y="-179.8" font-family="mono" font-size="14.00" fill="#c83500">forms</text>
<text text-anchor="middle" x="770.7931" y="-39.8366" font-family="Times,serif" font-size="14.00" fill="#000000">0..*</text>
</g>
<!-- Link -->
<g id="node8" class="node">
<title>Link</title>
<polygon fill="#f2f2f2" stroke="transparent" points="841.8122,-233.5 841.8122,-254.5 876.8122,-254.5 876.8122,-233.5 841.8122,-233.5"/>
<polygon fill="none" stroke="#8c8c8c" points="841.8122,-233.5 841.8122,-254.5 876.8122,-254.5 876.8122,-233.5 841.8122,-233.5"/>
<text text-anchor="start" x="844.8122" y="-241.3" font-family="mono" font-weight="bold" font-size="14.00" fill="#000000">Link</text>
</g>
<!-- Thing&#45;&gt;Link -->
<g id="edge2" class="edge">
<title>Thing&#45;&gt;Link</title>
<path fill="none" stroke="#000000" d="M804.2889,-330.866C808.9751,-324.9072 813.5227,-318.9194 817.8122,-313 827.3014,-299.9051 836.6578,-284.5171 844.0312,-271.6466"/>
<polygon fill="#000000" stroke="#000000" points="847.1627,-273.2188 849.0232,-262.7886 841.0644,-269.782 847.1627,-273.2188"/>
<text text-anchor="start" x="827.8122" y="-301.8" font-family="mono" font-size="14.00" fill="#c83500">links</text>
<text text-anchor="middle" x="838.0232" y="-266.5886" font-family="Times,serif" font-size="14.00" fill="#000000">0..*</text>
</g>
<!-- SecurityScheme -->
<g id="node10" class="node">
<title>SecurityScheme</title>
<polygon fill="#f2f2f2" stroke="transparent" points="912.8122,-233.5 912.8122,-254.5 1027.8122,-254.5 1027.8122,-233.5 912.8122,-233.5"/>
<polygon fill="none" stroke="#8c8c8c" points="912.8122,-233.5 912.8122,-254.5 1027.8122,-254.5 1027.8122,-233.5 912.8122,-233.5"/>
<text text-anchor="start" x="915.8122" y="-241.3" font-family="mono" font-weight="bold" font-size="14.00" fill="#000000">SecurityScheme</text>
</g>
<!-- Thing&#45;&gt;SecurityScheme -->
<g id="edge9" class="edge">
<title>Thing&#45;&gt;SecurityScheme</title>
<path fill="none" stroke="#000000" d="M848.8845,-330.9832C881.0211,-308.0002 913.0585,-285.0882 936.0763,-268.6267"/>
<polygon fill="#000000" stroke="#000000" points="938.3399,-271.3109 944.4378,-262.6468 934.2679,-265.6171 938.3399,-271.3109"/>
<text text-anchor="start" x="891.8122" y="-301.8" font-family="mono" font-size="14.00" fill="#c83500">security</text>
<text text-anchor="middle" x="933.4378" y="-266.4468" font-family="Times,serif" font-size="14.00" fill="#000000">1..*</text>
</g>
</g>
</svg>
