<?xml version="1.0" encoding="UTF-8" standalone="no"?>
<!DOCTYPE svg PUBLIC "-//W3C//DTD SVG 1.1//EN"
 "http://www.w3.org/Graphics/SVG/1.1/DTD/svg11.dtd">
<!-- Generated by graphviz version 2.38.0 (20140413.2041)
 -->
<!-- Title: %3 Pages: 1 -->
<svg width="1325pt" height="819pt"
 viewBox="0.00 0.00 1324.50 819.00" xmlns="http://www.w3.org/2000/svg" xmlns:xlink="http://www.w3.org/1999/xlink">
<g id="graph0" class="graph" transform="scale(1 1) rotate(0) translate(4 815)">
<title>%3</title>
<polygon fill="white" stroke="none" points="-4,4 -4,-815 1320.5,-815 1320.5,4 -4,4"/>
<!-- MultiLanguage -->
<g id="node1" class="node"><title>MultiLanguage</title>
<polygon fill="#8ccbf2" stroke="none" points="274.5,-178 274.5,-199 388.5,-199 388.5,-178 274.5,-178"/>
<polygon fill="none" stroke="#8ccbf2" points="274.5,-178 274.5,-199 388.5,-199 388.5,-178 274.5,-178"/>
<text text-anchor="start" x="277.5" y="-185.8" font-family="mono" font-weight="bold" font-size="14.00" fill="#c83500">MultiLanguage</text>
</g>
<!-- Form -->
<g id="node2" class="node"><title>Form</title>
<polygon fill="#8ccbf2" stroke="none" points="8.5,-252 8.5,-273 239.5,-273 239.5,-252 8.5,-252"/>
<polygon fill="none" stroke="#8ccbf2" points="8.5,-252 8.5,-273 239.5,-273 239.5,-252 8.5,-252"/>
<text text-anchor="start" x="107" y="-259.8" font-family="mono" font-weight="bold" font-size="14.00" fill="#c83500">Form</text>
<polygon fill="#ddeeff" stroke="none" points="8.5,-231 8.5,-252 239.5,-252 239.5,-231 8.5,-231"/>
<polygon fill="none" stroke="#8ccbf2" points="8.5,-231 8.5,-252 239.5,-252 239.5,-231 8.5,-231"/>
<text text-anchor="start" x="11.5" y="-238.8" font-family="mono" font-size="14.00" fill="#c83500">contentCoding</text>
<text text-anchor="start" x="119.5" y="-238.8" font-family="Times,serif" font-size="14.00"> : </text>
<text text-anchor="start" x="131.5" y="-238.8" font-family="mono" font-size="14.00" fill="#c83500">string</text>
<polygon fill="#ddeeff" stroke="none" points="8.5,-210 8.5,-231 239.5,-231 239.5,-210 8.5,-210"/>
<polygon fill="none" stroke="#8ccbf2" points="8.5,-210 8.5,-231 239.5,-231 239.5,-210 8.5,-210"/>
<text text-anchor="start" x="11.5" y="-217.8" font-family="mono" font-size="14.00" fill="#c83500">scopes</text>
<text text-anchor="start" x="61.5" y="-217.8" font-family="Times,serif" font-size="14.00"> : (array of) </text>
<text text-anchor="start" x="128.5" y="-217.8" font-family="mono" font-size="14.00" fill="#c83500">string</text>
<polygon fill="#ddeeff" stroke="none" points="8.5,-189 8.5,-210 239.5,-210 239.5,-189 8.5,-189"/>
<polygon fill="none" stroke="#8ccbf2" points="8.5,-189 8.5,-210 239.5,-210 239.5,-189 8.5,-189"/>
<text text-anchor="start" x="11.5" y="-196.8" font-family="mono" font-size="14.00" fill="#c83500">href</text>
<text text-anchor="start" x="45.5" y="-196.8" font-family="Times,serif" font-size="14.00"> : </text>
<text text-anchor="start" x="57.5" y="-196.8" font-family="mono" font-size="14.00" fill="#c83500">anyURI</text>
<text text-anchor="start" x="107.5" y="-196.8" font-family="Times,serif" font-size="14.00"> </text>
<text text-anchor="start" x="111.5" y="-196.8" font-family="Times,serif" font-style="italic" font-size="14.00">(mandatory)</text>
<polygon fill="#ddeeff" stroke="none" points="8.5,-168 8.5,-189 239.5,-189 239.5,-168 8.5,-168"/>
<polygon fill="none" stroke="#8ccbf2" points="8.5,-168 8.5,-189 239.5,-189 239.5,-168 8.5,-168"/>
<text text-anchor="start" x="11.5" y="-175.8" font-family="mono" font-size="14.00" fill="#c83500">subprotocol</text>
<text text-anchor="start" x="102.5" y="-175.8" font-family="Times,serif" font-size="14.00"> : </text>
<text text-anchor="start" x="114.5" y="-175.8" font-family="mono" font-size="14.00" fill="#c83500">string</text>
<polygon fill="#ddeeff" stroke="none" points="8.5,-147 8.5,-168 239.5,-168 239.5,-147 8.5,-147"/>
<polygon fill="none" stroke="#8ccbf2" points="8.5,-147 8.5,-168 239.5,-168 239.5,-147 8.5,-147"/>
<text text-anchor="start" x="11.5" y="-154.8" font-family="mono" font-size="14.00" fill="#c83500">op</text>
<text text-anchor="start" x="28.5" y="-154.8" font-family="Times,serif" font-size="14.00"> : (array of) </text>
<text text-anchor="start" x="95.5" y="-154.8" font-family="mono" font-size="14.00" fill="#c83500">string</text>
<text text-anchor="start" x="145.5" y="-154.8" font-family="Times,serif" font-size="14.00"> </text>
<text text-anchor="start" x="149.5" y="-154.8" font-family="Times,serif" font-style="italic" font-size="14.00">(mandatory)</text>
<polygon fill="#ddeeff" stroke="none" points="8.5,-126 8.5,-147 239.5,-147 239.5,-126 8.5,-126"/>
<polygon fill="none" stroke="#8ccbf2" points="8.5,-126 8.5,-147 239.5,-147 239.5,-126 8.5,-126"/>
<text text-anchor="start" x="11.5" y="-133.8" font-family="mono" font-size="14.00" fill="#c83500">security</text>
<text text-anchor="start" x="78.5" y="-133.8" font-family="Times,serif" font-size="14.00"> : (array of) </text>
<text text-anchor="start" x="145.5" y="-133.8" font-family="mono" font-size="14.00" fill="#c83500">string</text>
<polygon fill="#ddeeff" stroke="none" points="8.5,-105 8.5,-126 239.5,-126 239.5,-105 8.5,-105"/>
<polygon fill="none" stroke="#8ccbf2" points="8.5,-105 8.5,-126 239.5,-126 239.5,-105 8.5,-105"/>
<text text-anchor="start" x="11.5" y="-112.8" font-family="mono" font-size="14.00" fill="#c83500">contentType</text>
<text text-anchor="start" x="102.5" y="-112.8" font-family="Times,serif" font-size="14.00"> : </text>
<text text-anchor="start" x="114.5" y="-112.8" font-family="mono" font-size="14.00" fill="#c83500">string</text>
<text text-anchor="start" x="164.5" y="-112.8" font-family="Times,serif" font-size="14.00"> </text>
<text text-anchor="start" x="168.5" y="-112.8" font-family="Times,serif" font-style="italic" font-size="14.00">(mandatory)</text>
</g>
<!-- ExpectedResponse -->
<g id="node5" class="node"><title>ExpectedResponse</title>
<polygon fill="#8ccbf2" stroke="none" points="8.5,-25 8.5,-46 239.5,-46 239.5,-25 8.5,-25"/>
<polygon fill="none" stroke="#8ccbf2" points="8.5,-25 8.5,-46 239.5,-46 239.5,-25 8.5,-25"/>
<text text-anchor="start" x="57.5" y="-32.8" font-family="mono" font-weight="bold" font-size="14.00" fill="#c83500">ExpectedResponse</text>
<polygon fill="#ddeeff" stroke="none" points="8.5,-4 8.5,-25 239.5,-25 239.5,-4 8.5,-4"/>
<polygon fill="none" stroke="#8ccbf2" points="8.5,-4 8.5,-25 239.5,-25 239.5,-4 8.5,-4"/>
<text text-anchor="start" x="11.5" y="-11.8" font-family="mono" font-size="14.00" fill="#c83500">contentType</text>
<text text-anchor="start" x="102.5" y="-11.8" font-family="Times,serif" font-size="14.00"> : </text>
<text text-anchor="start" x="114.5" y="-11.8" font-family="mono" font-size="14.00" fill="#c83500">string</text>
<text text-anchor="start" x="164.5" y="-11.8" font-family="Times,serif" font-size="14.00"> </text>
<text text-anchor="start" x="168.5" y="-11.8" font-family="Times,serif" font-style="italic" font-size="14.00">(mandatory)</text>
</g>
<!-- Form&#45;&gt;ExpectedResponse -->
<g id="edge1" class="edge"><title>Form&#45;&gt;ExpectedResponse</title>
<path fill="none" stroke="black" d="M123.5,-100.835C123.5,-86.3545 123.5,-72.1379 123.5,-60.0513"/>
<polygon fill="black" stroke="black" points="127,-60.0249 123.5,-50.0249 120,-60.0249 127,-60.0249"/>
<text text-anchor="start" x="123.5" y="-71.8" font-family="mono" font-size="14.00" fill="#c83500">response</text>
<text text-anchor="middle" x="112.5" y="-53.8249" font-family="Times,serif" font-size="14.00">0..1</text>
</g>
<!-- Thing -->
<g id="node3" class="node"><title>Thing</title>
<polygon fill="#8ccbf2" stroke="none" points="492.5,-785.5 492.5,-806.5 754.5,-806.5 754.5,-785.5 492.5,-785.5"/>
<polygon fill="none" stroke="#8ccbf2" points="492.5,-785.5 492.5,-806.5 754.5,-806.5 754.5,-785.5 492.5,-785.5"/>
<text text-anchor="start" x="602.5" y="-793.3" font-family="mono" font-weight="bold" font-size="14.00" fill="#c83500">Thing</text>
<polygon fill="#ddeeff" stroke="none" points="492.5,-764.5 492.5,-785.5 754.5,-785.5 754.5,-764.5 492.5,-764.5"/>
<polygon fill="none" stroke="#8ccbf2" points="492.5,-764.5 492.5,-785.5 754.5,-785.5 754.5,-764.5 492.5,-764.5"/>
<text text-anchor="start" x="495.5" y="-772.3" font-family="mono" font-size="14.00" fill="#c83500">@context</text>
<text text-anchor="start" x="562.5" y="-772.3" font-family="Times,serif" font-size="14.00"> : </text>
<text text-anchor="start" x="574.5" y="-772.3" font-family="Times,serif" font-style="italic" font-size="14.00">string or array</text>
<text text-anchor="start" x="656.5" y="-772.3" font-family="Times,serif" font-size="14.00"> </text>
<text text-anchor="start" x="660.5" y="-772.3" font-family="Times,serif" font-style="italic" font-size="14.00">(mandatory)</text>
<polygon fill="#ddeeff" stroke="none" points="492.5,-743.5 492.5,-764.5 754.5,-764.5 754.5,-743.5 492.5,-743.5"/>
<polygon fill="none" stroke="#8ccbf2" points="492.5,-743.5 492.5,-764.5 754.5,-764.5 754.5,-743.5 492.5,-743.5"/>
<text text-anchor="start" x="495.5" y="-751.3" font-family="mono" font-size="14.00" fill="#c83500">@type</text>
<text text-anchor="start" x="537.5" y="-751.3" font-family="Times,serif" font-size="14.00"> : </text>
<text text-anchor="start" x="549.5" y="-751.3" font-family="Times,serif" font-style="italic" font-size="14.00">(array of) </text>
<text text-anchor="start" x="607.5" y="-751.3" font-family="mono" font-size="14.00" fill="#c83500">string</text>
<polygon fill="#ddeeff" stroke="none" points="492.5,-722.5 492.5,-743.5 754.5,-743.5 754.5,-722.5 492.5,-722.5"/>
<polygon fill="none" stroke="#8ccbf2" points="492.5,-722.5 492.5,-743.5 754.5,-743.5 754.5,-722.5 492.5,-722.5"/>
<text text-anchor="start" x="495.5" y="-730.3" font-family="mono" font-size="14.00" fill="#c83500">id</text>
<text text-anchor="start" x="512.5" y="-730.3" font-family="Times,serif" font-size="14.00"> : </text>
<text text-anchor="start" x="524.5" y="-730.3" font-family="mono" font-size="14.00" fill="#c83500">anyURI</text>
<text text-anchor="start" x="574.5" y="-730.3" font-family="Times,serif" font-size="14.00"> </text>
<text text-anchor="start" x="578.5" y="-730.3" font-family="Times,serif" font-style="italic" font-size="14.00">(mandatory)</text>
<polygon fill="#ddeeff" stroke="none" points="492.5,-701.5 492.5,-722.5 754.5,-722.5 754.5,-701.5 492.5,-701.5"/>
<polygon fill="none" stroke="#8ccbf2" points="492.5,-701.5 492.5,-722.5 754.5,-722.5 754.5,-701.5 492.5,-701.5"/>
<text text-anchor="start" x="495.5" y="-709.3" font-family="mono" font-size="14.00" fill="#c83500">description</text>
<text text-anchor="start" x="586.5" y="-709.3" font-family="Times,serif" font-size="14.00"> : </text>
<text text-anchor="start" x="598.5" y="-709.3" font-family="mono" font-size="14.00" fill="#c83500">string</text>
<polygon fill="#ddeeff" stroke="none" points="492.5,-680.5 492.5,-701.5 754.5,-701.5 754.5,-680.5 492.5,-680.5"/>
<polygon fill="none" stroke="#8ccbf2" points="492.5,-680.5 492.5,-701.5 754.5,-701.5 754.5,-680.5 492.5,-680.5"/>
<text text-anchor="start" x="495.5" y="-688.3" font-family="mono" font-size="14.00" fill="#c83500">created</text>
<text text-anchor="start" x="553.5" y="-688.3" font-family="Times,serif" font-size="14.00"> : </text>
<text text-anchor="start" x="565.5" y="-688.3" font-family="mono" font-size="14.00" fill="#c83500">dateTime</text>
<polygon fill="#ddeeff" stroke="none" points="492.5,-659.5 492.5,-680.5 754.5,-680.5 754.5,-659.5 492.5,-659.5"/>
<polygon fill="none" stroke="#8ccbf2" points="492.5,-659.5 492.5,-680.5 754.5,-680.5 754.5,-659.5 492.5,-659.5"/>
<text text-anchor="start" x="495.5" y="-667.3" font-family="mono" font-size="14.00" fill="#c83500">security</text>
<text text-anchor="start" x="562.5" y="-667.3" font-family="Times,serif" font-size="14.00"> : (array of) </text>
<text text-anchor="start" x="629.5" y="-667.3" font-family="mono" font-size="14.00" fill="#c83500">string</text>
<text text-anchor="start" x="679.5" y="-667.3" font-family="Times,serif" font-size="14.00"> </text>
<text text-anchor="start" x="683.5" y="-667.3" font-family="Times,serif" font-style="italic" font-size="14.00">(mandatory)</text>
<polygon fill="#ddeeff" stroke="none" points="492.5,-638.5 492.5,-659.5 754.5,-659.5 754.5,-638.5 492.5,-638.5"/>
<polygon fill="none" stroke="#8ccbf2" points="492.5,-638.5 492.5,-659.5 754.5,-659.5 754.5,-638.5 492.5,-638.5"/>
<text text-anchor="start" x="495.5" y="-646.3" font-family="mono" font-size="14.00" fill="#c83500">name</text>
<text text-anchor="start" x="529.5" y="-646.3" font-family="Times,serif" font-size="14.00"> : </text>
<text text-anchor="start" x="541.5" y="-646.3" font-family="mono" font-size="14.00" fill="#c83500">string</text>
<text text-anchor="start" x="591.5" y="-646.3" font-family="Times,serif" font-size="14.00"> </text>
<text text-anchor="start" x="595.5" y="-646.3" font-family="Times,serif" font-style="italic" font-size="14.00">(mandatory)</text>
<polygon fill="#ddeeff" stroke="none" points="492.5,-617.5 492.5,-638.5 754.5,-638.5 754.5,-617.5 492.5,-617.5"/>
<polygon fill="none" stroke="#8ccbf2" points="492.5,-617.5 492.5,-638.5 754.5,-638.5 754.5,-617.5 492.5,-617.5"/>
<text text-anchor="start" x="495.5" y="-625.3" font-family="mono" font-size="14.00" fill="#c83500">lastModified</text>
<text text-anchor="start" x="595.5" y="-625.3" font-family="Times,serif" font-size="14.00"> : </text>
<text text-anchor="start" x="607.5" y="-625.3" font-family="mono" font-size="14.00" fill="#c83500">dateTime</text>
<polygon fill="#ddeeff" stroke="none" points="492.5,-596.5 492.5,-617.5 754.5,-617.5 754.5,-596.5 492.5,-596.5"/>
<polygon fill="none" stroke="#8ccbf2" points="492.5,-596.5 492.5,-617.5 754.5,-617.5 754.5,-596.5 492.5,-596.5"/>
<text text-anchor="start" x="495.5" y="-604.3" font-family="mono" font-size="14.00" fill="#c83500">base</text>
<text text-anchor="start" x="529.5" y="-604.3" font-family="Times,serif" font-size="14.00"> : </text>
<text text-anchor="start" x="541.5" y="-604.3" font-family="mono" font-size="14.00" fill="#c83500">anyURI</text>
<polygon fill="#ddeeff" stroke="none" points="492.5,-575.5 492.5,-596.5 754.5,-596.5 754.5,-575.5 492.5,-575.5"/>
<polygon fill="none" stroke="#8ccbf2" points="492.5,-575.5 492.5,-596.5 754.5,-596.5 754.5,-575.5 492.5,-575.5"/>
<text text-anchor="start" x="495.5" y="-583.3" font-family="mono" font-size="14.00" fill="#c83500">support</text>
<text text-anchor="start" x="553.5" y="-583.3" font-family="Times,serif" font-size="14.00"> : </text>
<text text-anchor="start" x="565.5" y="-583.3" font-family="mono" font-size="14.00" fill="#c83500">string</text>
</g>
<!-- Thing&#45;&gt;MultiLanguage -->
<g id="edge2" class="edge"><title>Thing&#45;&gt;MultiLanguage</title>
<path fill="none" stroke="black" d="M484.297,-669.704C395.625,-648.467 287.281,-605.892 231.5,-521 165.204,-420.105 264.784,-273.459 310.535,-215.211"/>
<polygon fill="black" stroke="black" points="313.367,-217.274 316.869,-207.274 307.896,-212.908 313.367,-217.274"/>
<text text-anchor="start" x="211.5" y="-420.8" font-family="mono" font-size="14.00" fill="#c83500">descriptions</text>
<text text-anchor="middle" x="305.869" y="-211.074" font-family="Times,serif" font-size="14.00">0..1</text>
</g>
<!-- Thing&#45;&gt;Form -->
<g id="edge4" class="edge"><title>Thing&#45;&gt;Form</title>
<path fill="none" stroke="black" d="M484.32,-671.564C390.349,-651.044 271.928,-608.565 206.5,-521 155.97,-453.374 135.977,-358.482 128.181,-287.628"/>
<polygon fill="black" stroke="black" points="131.628,-286.941 127.117,-277.355 124.666,-287.663 131.628,-286.941"/>
<text text-anchor="start" x="159.5" y="-420.8" font-family="mono" font-size="14.00" fill="#c83500">forms</text>
<text text-anchor="middle" x="116.117" y="-281.155" font-family="Times,serif" font-size="14.00">0..*</text>
</g>
<!-- PropertyAffordance -->
<g id="node4" class="node"><title>PropertyAffordance</title>
<polygon fill="#8ccbf2" stroke="none" points="249.5,-485.5 249.5,-506.5 408.5,-506.5 408.5,-485.5 249.5,-485.5"/>
<polygon fill="none" stroke="#8ccbf2" points="249.5,-485.5 249.5,-506.5 408.5,-506.5 408.5,-485.5 249.5,-485.5"/>
<text text-anchor="start" x="254.5" y="-493.3" font-family="mono" font-weight="bold" font-size="14.00" fill="#c83500">PropertyAffordance</text>
<polygon fill="#ddeeff" stroke="none" points="249.5,-464.5 249.5,-485.5 408.5,-485.5 408.5,-464.5 249.5,-464.5"/>
<polygon fill="none" stroke="#8ccbf2" points="249.5,-464.5 249.5,-485.5 408.5,-485.5 408.5,-464.5 249.5,-464.5"/>
<text text-anchor="start" x="252.5" y="-472.3" font-family="mono" font-size="14.00" fill="#c83500">observable</text>
<text text-anchor="start" x="335.5" y="-472.3" font-family="Times,serif" font-size="14.00"> : </text>
<text text-anchor="start" x="347.5" y="-472.3" font-family="mono" font-size="14.00" fill="#c83500">boolean</text>
</g>
<!-- Thing&#45;&gt;PropertyAffordance -->
<g id="edge6" class="edge"><title>Thing&#45;&gt;PropertyAffordance</title>
<path fill="none" stroke="black" d="M484.207,-594.175C443.473,-566.007 401.902,-537.259 371.971,-516.562"/>
<polygon fill="black" stroke="black" points="373.676,-513.485 363.46,-510.676 369.694,-519.242 373.676,-513.485"/>
<text text-anchor="start" x="424.5" y="-542.8" font-family="mono" font-size="14.00" fill="#c83500">properties</text>
<text text-anchor="middle" x="352.46" y="-514.476" font-family="Times,serif" font-size="14.00">0..1</text>
</g>
<!-- VersionInfo -->
<g id="node6" class="node"><title>VersionInfo</title>
<polygon fill="#8ccbf2" stroke="none" points="442.5,-485.5 442.5,-506.5 649.5,-506.5 649.5,-485.5 442.5,-485.5"/>
<polygon fill="none" stroke="#8ccbf2" points="442.5,-485.5 442.5,-506.5 649.5,-506.5 649.5,-485.5 442.5,-485.5"/>
<text text-anchor="start" x="500.5" y="-493.3" font-family="mono" font-weight="bold" font-size="14.00" fill="#c83500">VersionInfo</text>
<polygon fill="#ddeeff" stroke="none" points="442.5,-464.5 442.5,-485.5 649.5,-485.5 649.5,-464.5 442.5,-464.5"/>
<polygon fill="none" stroke="#8ccbf2" points="442.5,-464.5 442.5,-485.5 649.5,-485.5 649.5,-464.5 442.5,-464.5"/>
<text text-anchor="start" x="445.5" y="-472.3" font-family="mono" font-size="14.00" fill="#c83500">instance</text>
<text text-anchor="start" x="512.5" y="-472.3" font-family="Times,serif" font-size="14.00"> : </text>
<text text-anchor="start" x="524.5" y="-472.3" font-family="mono" font-size="14.00" fill="#c83500">string</text>
<text text-anchor="start" x="574.5" y="-472.3" font-family="Times,serif" font-size="14.00"> </text>
<text text-anchor="start" x="578.5" y="-472.3" font-family="Times,serif" font-style="italic" font-size="14.00">(mandatory)</text>
</g>
<!-- Thing&#45;&gt;VersionInfo -->
<g id="edge7" class="edge"><title>Thing&#45;&gt;VersionInfo</title>
<path fill="none" stroke="black" d="M578.127,-571.832C570.884,-552.888 563.942,-534.733 558.338,-520.075"/>
<polygon fill="black" stroke="black" points="561.525,-518.611 554.684,-510.52 554.986,-521.111 561.525,-518.611"/>
<text text-anchor="start" x="571.5" y="-542.8" font-family="mono" font-size="14.00" fill="#c83500">version</text>
<text text-anchor="middle" x="543.684" y="-514.32" font-family="Times,serif" font-size="14.00">0..1</text>
</g>
<!-- ActionAffordance -->
<g id="node7" class="node"><title>ActionAffordance</title>
<polygon fill="#8ccbf2" stroke="none" points="683.5,-495.5 683.5,-516.5 914.5,-516.5 914.5,-495.5 683.5,-495.5"/>
<polygon fill="none" stroke="#8ccbf2" points="683.5,-495.5 683.5,-516.5 914.5,-516.5 914.5,-495.5 683.5,-495.5"/>
<text text-anchor="start" x="732.5" y="-503.3" font-family="mono" font-weight="bold" font-size="14.00" fill="#c83500">ActionAffordance</text>
<polygon fill="#ddeeff" stroke="none" points="683.5,-474.5 683.5,-495.5 914.5,-495.5 914.5,-474.5 683.5,-474.5"/>
<polygon fill="none" stroke="#8ccbf2" points="683.5,-474.5 683.5,-495.5 914.5,-495.5 914.5,-474.5 683.5,-474.5"/>
<text text-anchor="start" x="686.5" y="-482.3" font-family="mono" font-size="14.00" fill="#c83500">safe</text>
<text text-anchor="start" x="720.5" y="-482.3" font-family="Times,serif" font-size="14.00"> : </text>
<text text-anchor="start" x="732.5" y="-482.3" font-family="mono" font-size="14.00" fill="#c83500">boolean</text>
<text text-anchor="start" x="790.5" y="-482.3" font-family="Times,serif" font-size="14.00"> </text>
<text text-anchor="start" x="794.5" y="-482.3" font-family="Times,serif" font-style="italic" font-size="14.00">(mandatory)</text>
<polygon fill="#ddeeff" stroke="none" points="683.5,-453.5 683.5,-474.5 914.5,-474.5 914.5,-453.5 683.5,-453.5"/>
<polygon fill="none" stroke="#8ccbf2" points="683.5,-453.5 683.5,-474.5 914.5,-474.5 914.5,-453.5 683.5,-453.5"/>
<text text-anchor="start" x="686.5" y="-461.3" font-family="mono" font-size="14.00" fill="#c83500">idempotent</text>
<text text-anchor="start" x="769.5" y="-461.3" font-family="Times,serif" font-size="14.00"> : </text>
<text text-anchor="start" x="781.5" y="-461.3" font-family="mono" font-size="14.00" fill="#c83500">boolean</text>
<text text-anchor="start" x="839.5" y="-461.3" font-family="Times,serif" font-size="14.00"> </text>
<text text-anchor="start" x="843.5" y="-461.3" font-family="Times,serif" font-style="italic" font-size="14.00">(mandatory)</text>
</g>
<!-- Thing&#45;&gt;ActionAffordance -->
<g id="edge9" class="edge"><title>Thing&#45;&gt;ActionAffordance</title>
<path fill="none" stroke="black" d="M725.298,-571.832C738.375,-556.589 751.013,-541.856 762.003,-529.045"/>
<polygon fill="black" stroke="black" points="764.767,-531.199 768.621,-521.33 759.454,-526.641 764.767,-531.199"/>
<text text-anchor="start" x="752.5" y="-542.8" font-family="mono" font-size="14.00" fill="#c83500">actions</text>
<text text-anchor="middle" x="757.621" y="-525.13" font-family="Times,serif" font-size="14.00">0..1</text>
</g>
<!-- EventAffordance -->
<g id="node9" class="node"><title>EventAffordance</title>
<polygon fill="#8ccbf2" stroke="none" points="948.5,-474.5 948.5,-495.5 1078.5,-495.5 1078.5,-474.5 948.5,-474.5"/>
<polygon fill="none" stroke="#8ccbf2" points="948.5,-474.5 948.5,-495.5 1078.5,-495.5 1078.5,-474.5 948.5,-474.5"/>
<text text-anchor="start" x="951.5" y="-482.3" font-family="mono" font-weight="bold" font-size="14.00" fill="#c83500">EventAffordance</text>
</g>
<!-- Thing&#45;&gt;EventAffordance -->
<g id="edge8" class="edge"><title>Thing&#45;&gt;EventAffordance</title>
<path fill="none" stroke="black" d="M762.647,-617.715C836.425,-579.124 921.853,-534.439 971.569,-508.433"/>
<polygon fill="black" stroke="black" points="973.486,-511.381 980.724,-503.644 970.241,-505.178 973.486,-511.381"/>
<text text-anchor="start" x="909.5" y="-542.8" font-family="mono" font-size="14.00" fill="#c83500">events</text>
<text text-anchor="middle" x="969.724" y="-507.444" font-family="Times,serif" font-size="14.00">0..1</text>
</g>
<!-- Link -->
<g id="node10" class="node"><title>Link</title>
<polygon fill="#f2f2f2" stroke="none" points="1112.5,-474.5 1112.5,-495.5 1152.5,-495.5 1152.5,-474.5 1112.5,-474.5"/>
<polygon fill="none" stroke="#8c8c8c" points="1112.5,-474.5 1112.5,-495.5 1152.5,-495.5 1152.5,-474.5 1112.5,-474.5"/>
<text text-anchor="start" x="1115.5" y="-482.3" font-family="mono" font-weight="bold" font-size="14.00">Link</text>
</g>
<!-- Thing&#45;&gt;Link -->
<g id="edge3" class="edge"><title>Thing&#45;&gt;Link</title>
<path fill="none" stroke="black" d="M762.567,-656.651C860.258,-629.127 991.522,-584.408 1095.5,-521 1100.37,-518.028 1105.16,-514.341 1109.58,-510.493"/>
<polygon fill="black" stroke="black" points="1112.16,-512.882 1117.11,-503.515 1107.39,-507.751 1112.16,-512.882"/>
<text text-anchor="start" x="1060.5" y="-542.8" font-family="mono" font-size="14.00" fill="#c83500">links</text>
<text text-anchor="middle" x="1106.11" y="-507.315" font-family="Times,serif" font-size="14.00">0..*</text>
</g>
<!-- SecurityScheme -->
<g id="node11" class="node"><title>SecurityScheme</title>
<polygon fill="#f2f2f2" stroke="none" points="1186.5,-474.5 1186.5,-495.5 1308.5,-495.5 1308.5,-474.5 1186.5,-474.5"/>
<polygon fill="none" stroke="#8c8c8c" points="1186.5,-474.5 1186.5,-495.5 1308.5,-495.5 1308.5,-474.5 1186.5,-474.5"/>
<text text-anchor="start" x="1189.5" y="-482.3" font-family="mono" font-weight="bold" font-size="14.00">SecurityScheme</text>
</g>
<!-- Thing&#45;&gt;SecurityScheme -->
<g id="edge5" class="edge"><title>Thing&#45;&gt;SecurityScheme</title>
<path fill="none" stroke="black" d="M762.674,-657.897C860.287,-633.408 993.081,-596.815 1106.5,-554 1141.29,-540.868 1179.23,-522.457 1206.98,-508.18"/>
<polygon fill="black" stroke="black" points="1208.72,-511.222 1215.98,-503.511 1205.49,-505.009 1208.72,-511.222"/>
<text text-anchor="start" x="1142.5" y="-542.8" font-family="mono" font-size="14.00" fill="#c83500">securityDefinitions</text>
<text text-anchor="middle" x="1204.98" y="-507.311" font-family="Times,serif" font-size="14.00">1..1</text>
</g>
<!-- InteractionAffordance -->
<g id="node8" class="node"><title>InteractionAffordance</title>
<polygon fill="#8ccbf2" stroke="none" points="314.5,-373.5 314.5,-394.5 494.5,-394.5 494.5,-373.5 314.5,-373.5"/>
<polygon fill="none" stroke="#8ccbf2" points="314.5,-373.5 314.5,-394.5 494.5,-394.5 494.5,-373.5 314.5,-373.5"/>
<text text-anchor="start" x="317.5" y="-381.3" font-family="mono" font-weight="bold" font-size="14.00" fill="#c83500">InteractionAffordance</text>
<polygon fill="#ddeeff" stroke="none" points="314.5,-352.5 314.5,-373.5 494.5,-373.5 494.5,-352.5 314.5,-352.5"/>
<polygon fill="none" stroke="#8ccbf2" points="314.5,-352.5 314.5,-373.5 494.5,-373.5 494.5,-352.5 314.5,-352.5"/>
<text text-anchor="start" x="317.5" y="-360.3" font-family="mono" font-size="14.00" fill="#c83500">description</text>
<text text-anchor="start" x="408.5" y="-360.3" font-family="Times,serif" font-size="14.00"> : </text>
<text text-anchor="start" x="420.5" y="-360.3" font-family="mono" font-size="14.00" fill="#c83500">string</text>
<polygon fill="#ddeeff" stroke="none" points="314.5,-331.5 314.5,-352.5 494.5,-352.5 494.5,-331.5 314.5,-331.5"/>
<polygon fill="none" stroke="#8ccbf2" points="314.5,-331.5 314.5,-352.5 494.5,-352.5 494.5,-331.5 314.5,-331.5"/>
<text text-anchor="start" x="317.5" y="-339.3" font-family="mono" font-size="14.00" fill="#c83500">title</text>
<text text-anchor="start" x="359.5" y="-339.3" font-family="Times,serif" font-size="14.00"> : </text>
<text text-anchor="start" x="371.5" y="-339.3" font-family="mono" font-size="14.00" fill="#c83500">string</text>
</g>
<!-- PropertyAffordance&#45;&gt;InteractionAffordance -->
<g id="edge21" class="edge"><title>PropertyAffordance&#45;&gt;InteractionAffordance</title>
<path fill="none" stroke="black" d="M343.88,-460.216C353.422,-445.149 365.956,-425.359 377.15,-407.685"/>
<polygon fill="white" stroke="black" points="380.124,-409.53 382.518,-399.209 374.21,-405.784 380.124,-409.53"/>
</g>
<!-- DataSchema -->
<g id="node12" class="node"><title>DataSchema</title>
<polygon fill="#f2f2f2" stroke="none" points="754.5,-178 754.5,-199 843.5,-199 843.5,-178 754.5,-178"/>
<polygon fill="none" stroke="#8c8c8c" points="754.5,-178 754.5,-199 843.5,-199 843.5,-178 754.5,-178"/>
<text text-anchor="start" x="757.5" y="-185.8" font-family="mono" font-weight="bold" font-size="14.00">DataSchema</text>
</g>
<!-- PropertyAffordance&#45;&gt;DataSchema -->
<g id="edge22" class="edge"><title>PropertyAffordance&#45;&gt;DataSchema</title>
<path fill="none" stroke="black" d="M387.24,-460.494C423.87,-444.693 471.487,-422.619 511.5,-399 611.559,-339.936 719.876,-254.533 770.036,-213.606"/>
<polygon fill="white" stroke="black" points="772.343,-216.241 777.861,-207.197 767.907,-210.826 772.343,-216.241"/>
</g>
<!-- ActionAffordance&#45;&gt;InteractionAffordance -->
<g id="edge20" class="edge"><title>ActionAffordance&#45;&gt;InteractionAffordance</title>
<path fill="none" stroke="black" d="M685.067,-449.952C630.815,-433.428 566.182,-413.743 512.633,-397.434"/>
<polygon fill="white" stroke="black" points="513.354,-393.995 502.768,-394.429 511.315,-400.691 513.354,-393.995"/>
</g>
<!-- ActionAffordance&#45;&gt;DataSchema -->
<g id="edge10" class="edge"><title>ActionAffordance&#45;&gt;DataSchema</title>
<path fill="none" stroke="black" d="M759.812,-449.919C746.6,-435.624 733.419,-417.959 726.5,-399 702.463,-333.14 749.397,-254.846 778.252,-215.402"/>
<polygon fill="black" stroke="black" points="781.248,-217.241 784.45,-207.142 775.648,-213.04 781.248,-217.241"/>
<text text-anchor="start" x="726.5" y="-359.8" font-family="mono" font-size="14.00" fill="#c83500">output</text>
<text text-anchor="middle" x="773.45" y="-210.942" font-family="Times,serif" font-size="14.00">0..1</text>
</g>
<!-- ActionAffordance&#45;&gt;DataSchema -->
<g id="edge11" class="edge"><title>ActionAffordance&#45;&gt;DataSchema</title>
<path fill="none" stroke="black" d="M798.5,-449.851C798.5,-390.676 798.5,-271.321 798.5,-217.466"/>
<polygon fill="black" stroke="black" points="802,-217.309 798.5,-207.309 795,-217.309 802,-217.309"/>
<text text-anchor="start" x="798.5" y="-359.8" font-family="mono" font-size="14.00" fill="#c83500">input</text>
<text text-anchor="middle" x="809.5" y="-211.109" font-family="Times,serif" font-size="14.00">0..1</text>
</g>
<!-- InteractionAffordance&#45;&gt;MultiLanguage -->
<g id="edge12" class="edge"><title>InteractionAffordance&#45;&gt;MultiLanguage</title>
<path fill="none" stroke="black" d="M394.207,-327.834C390.779,-317.19 386.744,-305.515 382.5,-295 371.384,-267.458 356.281,-237.039 345.399,-216.063"/>
<polygon fill="black" stroke="black" points="348.464,-214.371 340.726,-207.134 342.262,-217.617 348.464,-214.371"/>
<text text-anchor="start" x="388.5" y="-298.8" font-family="mono" font-size="14.00" fill="#c83500">descriptions</text>
<text text-anchor="middle" x="329.726" y="-210.934" font-family="Times,serif" font-size="14.00">0..1</text>
</g>
<!-- InteractionAffordance&#45;&gt;MultiLanguage -->
<g id="edge13" class="edge"><title>InteractionAffordance&#45;&gt;MultiLanguage</title>
<path fill="none" stroke="black" d="M341.898,-327.663C336.576,-322.412 331.927,-316.532 328.5,-310 313.269,-280.967 317.891,-242.298 323.718,-216.801"/>
<polygon fill="black" stroke="black" points="327.12,-217.623 326.146,-207.073 320.328,-215.927 327.12,-217.623"/>
<text text-anchor="start" x="328.5" y="-298.8" font-family="mono" font-size="14.00" fill="#c83500">titles</text>
<text text-anchor="middle" x="337.146" y="-210.873" font-family="Times,serif" font-size="14.00">0..1</text>
</g>
<!-- InteractionAffordance&#45;&gt;Form -->
<g id="edge15" class="edge"><title>InteractionAffordance&#45;&gt;Form</title>
<path fill="none" stroke="black" d="M312.531,-327.97C300.5,-322.448 288.533,-316.419 277.5,-310 263.671,-301.954 249.706,-292.795 236.126,-283.207"/>
<polygon fill="black" stroke="black" points="237.892,-280.167 227.724,-277.188 233.815,-285.857 237.892,-280.167"/>
<text text-anchor="start" x="277.5" y="-298.8" font-family="mono" font-size="14.00" fill="#c83500">forms</text>
<text text-anchor="middle" x="216.724" y="-280.988" font-family="Times,serif" font-size="14.00">1..*</text>
</g>
<!-- InteractionAffordance&#45;&gt;DataSchema -->
<g id="edge14" class="edge"><title>InteractionAffordance&#45;&gt;DataSchema</title>
<path fill="none" stroke="black" d="M466.642,-327.982C487.349,-316.952 510.698,-305.015 532.5,-295 603.15,-262.545 686.9,-230.506 741.286,-210.519"/>
<polygon fill="black" stroke="black" points="742.569,-213.777 750.756,-207.052 740.162,-207.203 742.569,-213.777"/>
<text text-anchor="start" x="532.5" y="-298.8" font-family="mono" font-size="14.00" fill="#c83500">uriVariables</text>
<text text-anchor="middle" x="739.756" y="-210.852" font-family="Times,serif" font-size="14.00">0..1</text>
</g>
<!-- EventAffordance&#45;&gt;InteractionAffordance -->
<g id="edge19" class="edge"><title>EventAffordance&#45;&gt;InteractionAffordance</title>
<path fill="none" stroke="black" d="M977.382,-467.336C963.053,-461.1 946.258,-454.489 930.5,-450 854.025,-428.213 643.092,-397.135 512.751,-379.066"/>
<polygon fill="white" stroke="black" points="513.117,-375.584 502.732,-377.681 512.158,-382.518 513.117,-375.584"/>
</g>
<!-- EventAffordance&#45;&gt;DataSchema -->
<g id="edge16" class="edge"><title>EventAffordance&#45;&gt;DataSchema</title>
<path fill="none" stroke="black" d="M1023.51,-467.186C1032.6,-450.39 1045.35,-423.866 1050.5,-399 1060.12,-352.549 1063.18,-325.078 1026.5,-295 977.057,-254.459 909.397,-225.899 860.642,-208.903"/>
<polygon fill="black" stroke="black" points="861.748,-205.582 851.154,-205.658 859.483,-212.206 861.748,-205.582"/>
<text text-anchor="start" x="1057.5" y="-359.8" font-family="mono" font-size="14.00" fill="#c83500">subscription</text>
<text text-anchor="middle" x="862.154" y="-209.458" font-family="Times,serif" font-size="14.00">0..1</text>
</g>
<!-- EventAffordance&#45;&gt;DataSchema -->
<g id="edge17" class="edge"><title>EventAffordance&#45;&gt;DataSchema</title>
<path fill="none" stroke="black" d="M979.087,-467.399C952.005,-452.482 914.888,-428.609 890.5,-399 844.145,-342.721 816.911,-259.436 805.249,-216.995"/>
<polygon fill="black" stroke="black" points="808.576,-215.887 802.618,-207.126 801.813,-217.691 808.576,-215.887"/>
<text text-anchor="start" x="890.5" y="-359.8" font-family="mono" font-size="14.00" fill="#c83500">cancellation</text>
<text text-anchor="middle" x="791.618" y="-210.926" font-family="Times,serif" font-size="14.00">0..1</text>
</g>
<!-- EventAffordance&#45;&gt;DataSchema -->
<g id="edge18" class="edge"><title>EventAffordance&#45;&gt;DataSchema</title>
<path fill="none" stroke="black" d="M1012.65,-467.347C1010.63,-431.734 1004.6,-351.165 990.5,-328 957.125,-273.165 892.882,-233.829 847.936,-211.518"/>
<polygon fill="black" stroke="black" points="849.181,-208.232 838.656,-207.016 846.125,-214.53 849.181,-208.232"/>
<text text-anchor="start" x="1007.5" y="-359.8" font-family="mono" font-size="14.00" fill="#c83500">data</text>
<text text-anchor="middle" x="827.656" y="-210.816" font-family="Times,serif" font-size="14.00">0..1</text>
</g>
</g>
</svg>
