<?xml version="1.0" encoding="UTF-8" standalone="no"?>
<!DOCTYPE svg PUBLIC "-//W3C//DTD SVG 1.1//EN"
 "http://www.w3.org/Graphics/SVG/1.1/DTD/svg11.dtd">
<!-- Generated by graphviz version 2.38.0 (20140413.2041)
 -->
<!-- Title: %3 Pages: 1 -->
<svg width="1364pt" height="840pt"
 viewBox="0.00 0.00 1363.89 840.00" xmlns="http://www.w3.org/2000/svg" xmlns:xlink="http://www.w3.org/1999/xlink">
<g id="graph0" class="graph" transform="scale(1 1) rotate(0) translate(4 836)">
<title>%3</title>
<polygon fill="white" stroke="none" points="-4,4 -4,-836 1359.89,-836 1359.89,4 -4,4"/>
<!-- MultiLanguage -->
<g id="node1" class="node"><title>MultiLanguage</title>
<polygon fill="#8ccbf2" stroke="none" points="81.891,-167.5 81.891,-188.5 195.891,-188.5 195.891,-167.5 81.891,-167.5"/>
<polygon fill="none" stroke="#8ccbf2" points="81.891,-167.5 81.891,-188.5 195.891,-188.5 195.891,-167.5 81.891,-167.5"/>
<text text-anchor="start" x="84.891" y="-175.3" font-family="mono" font-weight="bold" font-size="14.00" fill="#c83500">MultiLanguage</text>
</g>
<!-- Link -->
<g id="node2" class="node"><title>Link</title>
<polygon fill="#8ccbf2" stroke="none" points="43.891,-516.5 43.891,-537.5 217.891,-537.5 217.891,-516.5 43.891,-516.5"/>
<polygon fill="none" stroke="#8ccbf2" points="43.891,-516.5 43.891,-537.5 217.891,-537.5 217.891,-516.5 43.891,-516.5"/>
<text text-anchor="start" x="113.891" y="-524.3" font-family="mono" font-weight="bold" font-size="14.00" fill="#c83500">Link</text>
<polygon fill="#ddeeff" stroke="none" points="43.891,-495.5 43.891,-516.5 217.891,-516.5 217.891,-495.5 43.891,-495.5"/>
<polygon fill="none" stroke="#8ccbf2" points="43.891,-495.5 43.891,-516.5 217.891,-516.5 217.891,-495.5 43.891,-495.5"/>
<text text-anchor="start" x="46.891" y="-503.3" font-family="mono" font-size="14.00" fill="#c83500">anchor</text>
<text text-anchor="start" x="96.891" y="-503.3" font-family="Times,serif" font-size="14.00"> : </text>
<text text-anchor="start" x="108.891" y="-503.3" font-family="mono" font-size="14.00" fill="#c83500">anyURI</text>
<polygon fill="#ddeeff" stroke="none" points="43.891,-474.5 43.891,-495.5 217.891,-495.5 217.891,-474.5 43.891,-474.5"/>
<polygon fill="none" stroke="#8ccbf2" points="43.891,-474.5 43.891,-495.5 217.891,-495.5 217.891,-474.5 43.891,-474.5"/>
<text text-anchor="start" x="46.891" y="-482.3" font-family="mono" font-size="14.00" fill="#c83500">href</text>
<text text-anchor="start" x="80.891" y="-482.3" font-family="Times,serif" font-size="14.00"> : </text>
<text text-anchor="start" x="92.891" y="-482.3" font-family="mono" font-size="14.00" fill="#c83500">anyURI</text>
<text text-anchor="start" x="142.891" y="-482.3" font-family="Times,serif" font-size="14.00"> </text>
<text text-anchor="start" x="146.891" y="-482.3" font-family="Times,serif" font-style="italic" font-size="14.00">(mandatory)</text>
<polygon fill="#ddeeff" stroke="none" points="43.891,-453.5 43.891,-474.5 217.891,-474.5 217.891,-453.5 43.891,-453.5"/>
<polygon fill="none" stroke="#8ccbf2" points="43.891,-453.5 43.891,-474.5 217.891,-474.5 217.891,-453.5 43.891,-453.5"/>
<text text-anchor="start" x="46.891" y="-461.3" font-family="mono" font-size="14.00" fill="#c83500">type</text>
<text text-anchor="start" x="80.891" y="-461.3" font-family="Times,serif" font-size="14.00"> : </text>
<text text-anchor="start" x="92.891" y="-461.3" font-family="mono" font-size="14.00" fill="#c83500">string</text>
<polygon fill="#ddeeff" stroke="none" points="43.891,-432.5 43.891,-453.5 217.891,-453.5 217.891,-432.5 43.891,-432.5"/>
<polygon fill="none" stroke="#8ccbf2" points="43.891,-432.5 43.891,-453.5 217.891,-453.5 217.891,-432.5 43.891,-432.5"/>
<text text-anchor="start" x="46.891" y="-440.3" font-family="mono" font-size="14.00" fill="#c83500">rel</text>
<text text-anchor="start" x="71.891" y="-440.3" font-family="Times,serif" font-size="14.00"> : </text>
<text text-anchor="start" x="83.891" y="-440.3" font-family="mono" font-size="14.00" fill="#c83500">string</text>
</g>
<!-- Form -->
<g id="node3" class="node"><title>Form</title>
<polygon fill="#8ccbf2" stroke="none" points="249.891,-230.5 249.891,-251.5 480.891,-251.5 480.891,-230.5 249.891,-230.5"/>
<polygon fill="none" stroke="#8ccbf2" points="249.891,-230.5 249.891,-251.5 480.891,-251.5 480.891,-230.5 249.891,-230.5"/>
<text text-anchor="start" x="348.391" y="-238.3" font-family="mono" font-weight="bold" font-size="14.00" fill="#c83500">Form</text>
<polygon fill="#ddeeff" stroke="none" points="249.891,-209.5 249.891,-230.5 480.891,-230.5 480.891,-209.5 249.891,-209.5"/>
<polygon fill="none" stroke="#8ccbf2" points="249.891,-209.5 249.891,-230.5 480.891,-230.5 480.891,-209.5 249.891,-209.5"/>
<text text-anchor="start" x="252.891" y="-217.3" font-family="mono" font-size="14.00" fill="#c83500">op</text>
<text text-anchor="start" x="269.891" y="-217.3" font-family="Times,serif" font-size="14.00"> : </text>
<text text-anchor="start" x="281.891" y="-217.3" font-family="mono" font-size="14.00" fill="#c83500">string</text>
<polygon fill="#ddeeff" stroke="none" points="249.891,-188.5 249.891,-209.5 480.891,-209.5 480.891,-188.5 249.891,-188.5"/>
<polygon fill="none" stroke="#8ccbf2" points="249.891,-188.5 249.891,-209.5 480.891,-209.5 480.891,-188.5 249.891,-188.5"/>
<text text-anchor="start" x="252.891" y="-196.3" font-family="mono" font-size="14.00" fill="#c83500">scopes</text>
<text text-anchor="start" x="302.891" y="-196.3" font-family="Times,serif" font-size="14.00"> : array of </text>
<text text-anchor="start" x="360.891" y="-196.3" font-family="mono" font-size="14.00" fill="#c83500">string</text>
<polygon fill="#ddeeff" stroke="none" points="249.891,-167.5 249.891,-188.5 480.891,-188.5 480.891,-167.5 249.891,-167.5"/>
<polygon fill="none" stroke="#8ccbf2" points="249.891,-167.5 249.891,-188.5 480.891,-188.5 480.891,-167.5 249.891,-167.5"/>
<text text-anchor="start" x="252.891" y="-175.3" font-family="mono" font-size="14.00" fill="#c83500">subprotocol</text>
<text text-anchor="start" x="343.891" y="-175.3" font-family="Times,serif" font-size="14.00"> : </text>
<text text-anchor="start" x="355.891" y="-175.3" font-family="mono" font-size="14.00" fill="#c83500">string</text>
<polygon fill="#ddeeff" stroke="none" points="249.891,-146.5 249.891,-167.5 480.891,-167.5 480.891,-146.5 249.891,-146.5"/>
<polygon fill="none" stroke="#8ccbf2" points="249.891,-146.5 249.891,-167.5 480.891,-167.5 480.891,-146.5 249.891,-146.5"/>
<text text-anchor="start" x="252.891" y="-154.3" font-family="mono" font-size="14.00" fill="#c83500">href</text>
<text text-anchor="start" x="286.891" y="-154.3" font-family="Times,serif" font-size="14.00"> : </text>
<text text-anchor="start" x="298.891" y="-154.3" font-family="mono" font-size="14.00" fill="#c83500">anyURI</text>
<text text-anchor="start" x="348.891" y="-154.3" font-family="Times,serif" font-size="14.00"> </text>
<text text-anchor="start" x="352.891" y="-154.3" font-family="Times,serif" font-style="italic" font-size="14.00">(mandatory)</text>
<polygon fill="#ddeeff" stroke="none" points="249.891,-125.5 249.891,-146.5 480.891,-146.5 480.891,-125.5 249.891,-125.5"/>
<polygon fill="none" stroke="#8ccbf2" points="249.891,-125.5 249.891,-146.5 480.891,-146.5 480.891,-125.5 249.891,-125.5"/>
<text text-anchor="start" x="252.891" y="-133.3" font-family="mono" font-size="14.00" fill="#c83500">security</text>
<text text-anchor="start" x="319.891" y="-133.3" font-family="Times,serif" font-size="14.00"> : array of </text>
<text text-anchor="start" x="377.891" y="-133.3" font-family="mono" font-size="14.00" fill="#c83500">string</text>
<polygon fill="#ddeeff" stroke="none" points="249.891,-104.5 249.891,-125.5 480.891,-125.5 480.891,-104.5 249.891,-104.5"/>
<polygon fill="none" stroke="#8ccbf2" points="249.891,-104.5 249.891,-125.5 480.891,-125.5 480.891,-104.5 249.891,-104.5"/>
<text text-anchor="start" x="252.891" y="-112.3" font-family="mono" font-size="14.00" fill="#c83500">contentType</text>
<text text-anchor="start" x="343.891" y="-112.3" font-family="Times,serif" font-size="14.00"> : </text>
<text text-anchor="start" x="355.891" y="-112.3" font-family="mono" font-size="14.00" fill="#c83500">string</text>
<text text-anchor="start" x="405.891" y="-112.3" font-family="Times,serif" font-size="14.00"> </text>
<text text-anchor="start" x="409.891" y="-112.3" font-family="Times,serif" font-style="italic" font-size="14.00">(mandatory)</text>
</g>
<!-- ExpectedResponse -->
<g id="node6" class="node"><title>ExpectedResponse</title>
<polygon fill="#8ccbf2" stroke="none" points="249.891,-25 249.891,-46 480.891,-46 480.891,-25 249.891,-25"/>
<polygon fill="none" stroke="#8ccbf2" points="249.891,-25 249.891,-46 480.891,-46 480.891,-25 249.891,-25"/>
<text text-anchor="start" x="298.891" y="-32.8" font-family="mono" font-weight="bold" font-size="14.00" fill="#c83500">ExpectedResponse</text>
<polygon fill="#ddeeff" stroke="none" points="249.891,-4 249.891,-25 480.891,-25 480.891,-4 249.891,-4"/>
<polygon fill="none" stroke="#8ccbf2" points="249.891,-4 249.891,-25 480.891,-25 480.891,-4 249.891,-4"/>
<text text-anchor="start" x="252.891" y="-11.8" font-family="mono" font-size="14.00" fill="#c83500">contentType</text>
<text text-anchor="start" x="343.891" y="-11.8" font-family="Times,serif" font-size="14.00"> : </text>
<text text-anchor="start" x="355.891" y="-11.8" font-family="mono" font-size="14.00" fill="#c83500">string</text>
<text text-anchor="start" x="405.891" y="-11.8" font-family="Times,serif" font-size="14.00"> </text>
<text text-anchor="start" x="409.891" y="-11.8" font-family="Times,serif" font-style="italic" font-size="14.00">(mandatory)</text>
</g>
<!-- Form&#45;&gt;ExpectedResponse -->
<g id="edge1" class="edge"><title>Form&#45;&gt;ExpectedResponse</title>
<path fill="none" stroke="black" d="M364.891,-100.862C364.891,-86.5577 364.891,-72.2953 364.891,-60.116"/>
<polygon fill="black" stroke="black" points="368.391,-60.0004 364.891,-50.0004 361.391,-60.0004 368.391,-60.0004"/>
<text text-anchor="start" x="364.891" y="-71.8" font-family="mono" font-size="14.00" fill="#c83500">response</text>
<text text-anchor="middle" x="353.891" y="-53.8004" font-family="Times,serif" font-size="14.00">0..1</text>
</g>
<!-- Thing -->
<g id="node4" class="node"><title>Thing</title>
<polygon fill="#8ccbf2" stroke="none" points="436.891,-806.5 436.891,-827.5 700.891,-827.5 700.891,-806.5 436.891,-806.5"/>
<polygon fill="none" stroke="#8ccbf2" points="436.891,-806.5 436.891,-827.5 700.891,-827.5 700.891,-806.5 436.891,-806.5"/>
<text text-anchor="start" x="547.891" y="-814.3" font-family="mono" font-weight="bold" font-size="14.00" fill="#c83500">Thing</text>
<polygon fill="#ddeeff" stroke="none" points="436.891,-785.5 436.891,-806.5 700.891,-806.5 700.891,-785.5 436.891,-785.5"/>
<polygon fill="none" stroke="#8ccbf2" points="436.891,-785.5 436.891,-806.5 700.891,-806.5 700.891,-785.5 436.891,-785.5"/>
<text text-anchor="start" x="439.891" y="-793.3" font-family="mono" font-size="14.00" fill="#c83500">@context</text>
<text text-anchor="start" x="506.891" y="-793.3" font-family="Times,serif" font-size="14.00"> : </text>
<text text-anchor="start" x="518.891" y="-793.3" font-family="Times,serif" font-style="italic" font-size="14.00">array of </text>
<text text-anchor="start" x="567.891" y="-793.3" font-family="mono" font-size="14.00" fill="#c83500">context</text>
<text text-anchor="start" x="625.891" y="-793.3" font-family="Times,serif" font-size="14.00"> </text>
<text text-anchor="start" x="629.891" y="-793.3" font-family="Times,serif" font-style="italic" font-size="14.00">(mandatory)</text>
<polygon fill="#ddeeff" stroke="none" points="436.891,-764.5 436.891,-785.5 700.891,-785.5 700.891,-764.5 436.891,-764.5"/>
<polygon fill="none" stroke="#8ccbf2" points="436.891,-764.5 436.891,-785.5 700.891,-785.5 700.891,-764.5 436.891,-764.5"/>
<text text-anchor="start" x="439.891" y="-772.3" font-family="mono" font-size="14.00" fill="#c83500">@type</text>
<text text-anchor="start" x="481.891" y="-772.3" font-family="Times,serif" font-size="14.00"> : </text>
<text text-anchor="start" x="493.891" y="-772.3" font-family="Times,serif" font-style="italic" font-size="14.00">array of </text>
<text text-anchor="start" x="542.891" y="-772.3" font-family="mono" font-size="14.00" fill="#c83500">string</text>
<polygon fill="#ddeeff" stroke="none" points="436.891,-743.5 436.891,-764.5 700.891,-764.5 700.891,-743.5 436.891,-743.5"/>
<polygon fill="none" stroke="#8ccbf2" points="436.891,-743.5 436.891,-764.5 700.891,-764.5 700.891,-743.5 436.891,-743.5"/>
<text text-anchor="start" x="439.891" y="-751.3" font-family="mono" font-size="14.00" fill="#c83500">id</text>
<text text-anchor="start" x="456.891" y="-751.3" font-family="Times,serif" font-size="14.00"> : </text>
<text text-anchor="start" x="468.891" y="-751.3" font-family="mono" font-size="14.00" fill="#c83500">anyURI</text>
<text text-anchor="start" x="518.891" y="-751.3" font-family="Times,serif" font-size="14.00"> </text>
<text text-anchor="start" x="522.891" y="-751.3" font-family="Times,serif" font-style="italic" font-size="14.00">(mandatory)</text>
<polygon fill="#ddeeff" stroke="none" points="436.891,-722.5 436.891,-743.5 700.891,-743.5 700.891,-722.5 436.891,-722.5"/>
<polygon fill="none" stroke="#8ccbf2" points="436.891,-722.5 436.891,-743.5 700.891,-743.5 700.891,-722.5 436.891,-722.5"/>
<text text-anchor="start" x="439.891" y="-730.3" font-family="mono" font-size="14.00" fill="#c83500">lastModified</text>
<text text-anchor="start" x="539.891" y="-730.3" font-family="Times,serif" font-size="14.00"> : </text>
<text text-anchor="start" x="551.891" y="-730.3" font-family="mono" font-size="14.00" fill="#c83500">string</text>
<polygon fill="#ddeeff" stroke="none" points="436.891,-701.5 436.891,-722.5 700.891,-722.5 700.891,-701.5 436.891,-701.5"/>
<polygon fill="none" stroke="#8ccbf2" points="436.891,-701.5 436.891,-722.5 700.891,-722.5 700.891,-701.5 436.891,-701.5"/>
<text text-anchor="start" x="439.891" y="-709.3" font-family="mono" font-size="14.00" fill="#c83500">support</text>
<text text-anchor="start" x="497.891" y="-709.3" font-family="Times,serif" font-size="14.00"> : </text>
<text text-anchor="start" x="509.891" y="-709.3" font-family="mono" font-size="14.00" fill="#c83500">string</text>
<polygon fill="#ddeeff" stroke="none" points="436.891,-680.5 436.891,-701.5 700.891,-701.5 700.891,-680.5 436.891,-680.5"/>
<polygon fill="none" stroke="#8ccbf2" points="436.891,-680.5 436.891,-701.5 700.891,-701.5 700.891,-680.5 436.891,-680.5"/>
<text text-anchor="start" x="439.891" y="-688.3" font-family="mono" font-size="14.00" fill="#c83500">security</text>
<text text-anchor="start" x="506.891" y="-688.3" font-family="Times,serif" font-size="14.00"> : array of </text>
<text text-anchor="start" x="564.891" y="-688.3" font-family="mono" font-size="14.00" fill="#c83500">string</text>
<text text-anchor="start" x="614.891" y="-688.3" font-family="Times,serif" font-size="14.00"> </text>
<text text-anchor="start" x="618.891" y="-688.3" font-family="Times,serif" font-style="italic" font-size="14.00">(mandatory)</text>
<polygon fill="#ddeeff" stroke="none" points="436.891,-659.5 436.891,-680.5 700.891,-680.5 700.891,-659.5 436.891,-659.5"/>
<polygon fill="none" stroke="#8ccbf2" points="436.891,-659.5 436.891,-680.5 700.891,-680.5 700.891,-659.5 436.891,-659.5"/>
<text text-anchor="start" x="439.891" y="-667.3" font-family="mono" font-size="14.00" fill="#c83500">description</text>
<text text-anchor="start" x="530.891" y="-667.3" font-family="Times,serif" font-size="14.00"> : </text>
<text text-anchor="start" x="542.891" y="-667.3" font-family="mono" font-size="14.00" fill="#c83500">string</text>
<polygon fill="#ddeeff" stroke="none" points="436.891,-638.5 436.891,-659.5 700.891,-659.5 700.891,-638.5 436.891,-638.5"/>
<polygon fill="none" stroke="#8ccbf2" points="436.891,-638.5 436.891,-659.5 700.891,-659.5 700.891,-638.5 436.891,-638.5"/>
<text text-anchor="start" x="439.891" y="-646.3" font-family="mono" font-size="14.00" fill="#c83500">created</text>
<text text-anchor="start" x="497.891" y="-646.3" font-family="Times,serif" font-size="14.00"> : </text>
<text text-anchor="start" x="509.891" y="-646.3" font-family="mono" font-size="14.00" fill="#c83500">string</text>
<polygon fill="#ddeeff" stroke="none" points="436.891,-617.5 436.891,-638.5 700.891,-638.5 700.891,-617.5 436.891,-617.5"/>
<polygon fill="none" stroke="#8ccbf2" points="436.891,-617.5 436.891,-638.5 700.891,-638.5 700.891,-617.5 436.891,-617.5"/>
<text text-anchor="start" x="439.891" y="-625.3" font-family="mono" font-size="14.00" fill="#c83500">base</text>
<text text-anchor="start" x="473.891" y="-625.3" font-family="Times,serif" font-size="14.00"> : </text>
<text text-anchor="start" x="485.891" y="-625.3" font-family="mono" font-size="14.00" fill="#c83500">anyURI</text>
<polygon fill="#ddeeff" stroke="none" points="436.891,-596.5 436.891,-617.5 700.891,-617.5 700.891,-596.5 436.891,-596.5"/>
<polygon fill="none" stroke="#8ccbf2" points="436.891,-596.5 436.891,-617.5 700.891,-617.5 700.891,-596.5 436.891,-596.5"/>
<text text-anchor="start" x="439.891" y="-604.3" font-family="mono" font-size="14.00" fill="#c83500">name</text>
<text text-anchor="start" x="473.891" y="-604.3" font-family="Times,serif" font-size="14.00"> : </text>
<text text-anchor="start" x="485.891" y="-604.3" font-family="mono" font-size="14.00" fill="#c83500">string</text>
<text text-anchor="start" x="535.891" y="-604.3" font-family="Times,serif" font-size="14.00"> </text>
<text text-anchor="start" x="539.891" y="-604.3" font-family="Times,serif" font-style="italic" font-size="14.00">(mandatory)</text>
</g>
<!-- Thing&#45;&gt;MultiLanguage -->
<g id="edge5" class="edge"><title>Thing&#45;&gt;MultiLanguage</title>
<path fill="none" stroke="black" d="M428.743,-686.995C284.699,-658.617 74.881,-607.29 26.891,-542 -52.8193,-433.555 66.0605,-267.293 117.3,-204.591"/>
<polygon fill="black" stroke="black" points="120.082,-206.719 123.769,-196.786 114.693,-202.252 120.082,-206.719"/>
<text text-anchor="start" x="9.89099" y="-399.8" font-family="mono" font-size="14.00" fill="#c83500">descriptions</text>
<text text-anchor="middle" x="112.769" y="-200.586" font-family="Times,serif" font-size="14.00">0..1</text>
</g>
<!-- Thing&#45;&gt;Link -->
<g id="edge6" class="edge"><title>Thing&#45;&gt;Link</title>
<path fill="none" stroke="black" d="M428.791,-680.333C355.09,-659.137 266.131,-625.562 197.891,-575 188.455,-568.009 179.716,-559.332 171.875,-550.167"/>
<polygon fill="black" stroke="black" points="174.546,-547.904 165.505,-542.38 169.128,-552.336 174.546,-547.904"/>
<text text-anchor="start" x="197.891" y="-563.8" font-family="mono" font-size="14.00" fill="#c83500">links</text>
<text text-anchor="middle" x="154.505" y="-546.18" font-family="Times,serif" font-size="14.00">0..*</text>
</g>
<!-- Thing&#45;&gt;Form -->
<g id="edge8" class="edge"><title>Thing&#45;&gt;Form</title>
<path fill="none" stroke="black" d="M428.876,-666.673C370.062,-640.205 307.4,-600.194 272.891,-542 242.509,-490.765 244.737,-328.882 267.891,-274 269.193,-270.913 270.651,-267.877 272.243,-264.896"/>
<polygon fill="black" stroke="black" points="275.351,-266.515 277.401,-256.12 269.316,-262.968 275.351,-266.515"/>
<text text-anchor="start" x="250.891" y="-399.8" font-family="mono" font-size="14.00" fill="#c83500">forms</text>
<text text-anchor="middle" x="266.401" y="-259.92" font-family="Times,serif" font-size="14.00">0..*</text>
</g>
<!-- PropertyAffordance -->
<g id="node5" class="node"><title>PropertyAffordance</title>
<polygon fill="#8ccbf2" stroke="none" points="290.891,-485.5 290.891,-506.5 521.891,-506.5 521.891,-485.5 290.891,-485.5"/>
<polygon fill="none" stroke="#8ccbf2" points="290.891,-485.5 290.891,-506.5 521.891,-506.5 521.891,-485.5 290.891,-485.5"/>
<text text-anchor="start" x="331.891" y="-493.3" font-family="mono" font-weight="bold" font-size="14.00" fill="#c83500">PropertyAffordance</text>
<polygon fill="#ddeeff" stroke="none" points="290.891,-464.5 290.891,-485.5 521.891,-485.5 521.891,-464.5 290.891,-464.5"/>
<polygon fill="none" stroke="#8ccbf2" points="290.891,-464.5 290.891,-485.5 521.891,-485.5 521.891,-464.5 290.891,-464.5"/>
<text text-anchor="start" x="293.891" y="-472.3" font-family="mono" font-size="14.00" fill="#c83500">observable</text>
<text text-anchor="start" x="376.891" y="-472.3" font-family="Times,serif" font-size="14.00"> : </text>
<text text-anchor="start" x="388.891" y="-472.3" font-family="mono" font-size="14.00" fill="#c83500">boolean</text>
<text text-anchor="start" x="446.891" y="-472.3" font-family="Times,serif" font-size="14.00"> </text>
<text text-anchor="start" x="450.891" y="-472.3" font-family="Times,serif" font-style="italic" font-size="14.00">(mandatory)</text>
</g>
<!-- Thing&#45;&gt;PropertyAffordance -->
<g id="edge3" class="edge"><title>Thing&#45;&gt;PropertyAffordance</title>
<path fill="none" stroke="black" d="M482.856,-592.741C463.123,-565.502 443.746,-538.754 429.371,-518.911"/>
<polygon fill="black" stroke="black" points="432.034,-516.62 423.332,-510.576 426.365,-520.727 432.034,-516.62"/>
<text text-anchor="start" x="468.891" y="-563.8" font-family="mono" font-size="14.00" fill="#c83500">properties</text>
<text text-anchor="middle" x="412.332" y="-514.376" font-family="Times,serif" font-size="14.00">0..1</text>
</g>
<!-- VersionInfo -->
<g id="node7" class="node"><title>VersionInfo</title>
<polygon fill="#8ccbf2" stroke="none" points="555.891,-485.5 555.891,-506.5 762.891,-506.5 762.891,-485.5 555.891,-485.5"/>
<polygon fill="none" stroke="#8ccbf2" points="555.891,-485.5 555.891,-506.5 762.891,-506.5 762.891,-485.5 555.891,-485.5"/>
<text text-anchor="start" x="613.891" y="-493.3" font-family="mono" font-weight="bold" font-size="14.00" fill="#c83500">VersionInfo</text>
<polygon fill="#ddeeff" stroke="none" points="555.891,-464.5 555.891,-485.5 762.891,-485.5 762.891,-464.5 555.891,-464.5"/>
<polygon fill="none" stroke="#8ccbf2" points="555.891,-464.5 555.891,-485.5 762.891,-485.5 762.891,-464.5 555.891,-464.5"/>
<text text-anchor="start" x="558.891" y="-472.3" font-family="mono" font-size="14.00" fill="#c83500">instance</text>
<text text-anchor="start" x="625.891" y="-472.3" font-family="Times,serif" font-size="14.00"> : </text>
<text text-anchor="start" x="637.891" y="-472.3" font-family="mono" font-size="14.00" fill="#c83500">string</text>
<text text-anchor="start" x="687.891" y="-472.3" font-family="Times,serif" font-size="14.00"> </text>
<text text-anchor="start" x="691.891" y="-472.3" font-family="Times,serif" font-style="italic" font-size="14.00">(mandatory)</text>
</g>
<!-- Thing&#45;&gt;VersionInfo -->
<g id="edge9" class="edge"><title>Thing&#45;&gt;VersionInfo</title>
<path fill="none" stroke="black" d="M616.395,-592.741C627.095,-565.99 637.606,-539.714 645.497,-519.985"/>
<polygon fill="black" stroke="black" points="648.796,-521.16 649.261,-510.576 642.297,-518.56 648.796,-521.16"/>
<text text-anchor="start" x="627.891" y="-563.8" font-family="mono" font-size="14.00" fill="#c83500">version</text>
<text text-anchor="middle" x="638.261" y="-514.376" font-family="Times,serif" font-size="14.00">0..1</text>
</g>
<!-- ActionAffordance -->
<g id="node8" class="node"><title>ActionAffordance</title>
<polygon fill="#8ccbf2" stroke="none" points="796.891,-495.5 796.891,-516.5 1027.89,-516.5 1027.89,-495.5 796.891,-495.5"/>
<polygon fill="none" stroke="#8ccbf2" points="796.891,-495.5 796.891,-516.5 1027.89,-516.5 1027.89,-495.5 796.891,-495.5"/>
<text text-anchor="start" x="845.891" y="-503.3" font-family="mono" font-weight="bold" font-size="14.00" fill="#c83500">ActionAffordance</text>
<polygon fill="#ddeeff" stroke="none" points="796.891,-474.5 796.891,-495.5 1027.89,-495.5 1027.89,-474.5 796.891,-474.5"/>
<polygon fill="none" stroke="#8ccbf2" points="796.891,-474.5 796.891,-495.5 1027.89,-495.5 1027.89,-474.5 796.891,-474.5"/>
<text text-anchor="start" x="799.891" y="-482.3" font-family="mono" font-size="14.00" fill="#c83500">safe</text>
<text text-anchor="start" x="833.891" y="-482.3" font-family="Times,serif" font-size="14.00"> : </text>
<text text-anchor="start" x="845.891" y="-482.3" font-family="mono" font-size="14.00" fill="#c83500">boolean</text>
<text text-anchor="start" x="903.891" y="-482.3" font-family="Times,serif" font-size="14.00"> </text>
<text text-anchor="start" x="907.891" y="-482.3" font-family="Times,serif" font-style="italic" font-size="14.00">(mandatory)</text>
<polygon fill="#ddeeff" stroke="none" points="796.891,-453.5 796.891,-474.5 1027.89,-474.5 1027.89,-453.5 796.891,-453.5"/>
<polygon fill="none" stroke="#8ccbf2" points="796.891,-453.5 796.891,-474.5 1027.89,-474.5 1027.89,-453.5 796.891,-453.5"/>
<text text-anchor="start" x="799.891" y="-461.3" font-family="mono" font-size="14.00" fill="#c83500">idempotent</text>
<text text-anchor="start" x="882.891" y="-461.3" font-family="Times,serif" font-size="14.00"> : </text>
<text text-anchor="start" x="894.891" y="-461.3" font-family="mono" font-size="14.00" fill="#c83500">boolean</text>
<text text-anchor="start" x="952.891" y="-461.3" font-family="Times,serif" font-size="14.00"> </text>
<text text-anchor="start" x="956.891" y="-461.3" font-family="Times,serif" font-style="italic" font-size="14.00">(mandatory)</text>
</g>
<!-- Thing&#45;&gt;ActionAffordance -->
<g id="edge7" class="edge"><title>Thing&#45;&gt;ActionAffordance</title>
<path fill="none" stroke="black" d="M708.897,-619.659C758.151,-587.35 810.993,-552.686 850.414,-526.827"/>
<polygon fill="black" stroke="black" points="852.679,-529.528 859.121,-521.116 848.839,-523.675 852.679,-529.528"/>
<text text-anchor="start" x="791.891" y="-563.8" font-family="mono" font-size="14.00" fill="#c83500">actions</text>
<text text-anchor="middle" x="848.121" y="-524.916" font-family="Times,serif" font-size="14.00">0..1</text>
</g>
<!-- EventAffordance -->
<g id="node10" class="node"><title>EventAffordance</title>
<polygon fill="#8ccbf2" stroke="none" points="1061.89,-474.5 1061.89,-495.5 1191.89,-495.5 1191.89,-474.5 1061.89,-474.5"/>
<polygon fill="none" stroke="#8ccbf2" points="1061.89,-474.5 1061.89,-495.5 1191.89,-495.5 1191.89,-474.5 1061.89,-474.5"/>
<text text-anchor="start" x="1064.89" y="-482.3" font-family="mono" font-weight="bold" font-size="14.00" fill="#c83500">EventAffordance</text>
</g>
<!-- Thing&#45;&gt;EventAffordance -->
<g id="edge2" class="edge"><title>Thing&#45;&gt;EventAffordance</title>
<path fill="none" stroke="black" d="M709.028,-671.515C805.647,-641.556 935.655,-596.447 1043.89,-542 1062.01,-532.884 1080.91,-520.503 1096.09,-509.749"/>
<polygon fill="black" stroke="black" points="1098.5,-512.328 1104.56,-503.642 1094.4,-506.65 1098.5,-512.328"/>
<text text-anchor="start" x="994.891" y="-563.8" font-family="mono" font-size="14.00" fill="#c83500">events</text>
<text text-anchor="middle" x="1093.56" y="-507.442" font-family="Times,serif" font-size="14.00">0..1</text>
</g>
<!-- SecurityScheme -->
<g id="node11" class="node"><title>SecurityScheme</title>
<polygon fill="#f2f2f2" stroke="none" points="1225.89,-474.5 1225.89,-495.5 1347.89,-495.5 1347.89,-474.5 1225.89,-474.5"/>
<polygon fill="none" stroke="#8c8c8c" points="1225.89,-474.5 1225.89,-495.5 1347.89,-495.5 1347.89,-474.5 1225.89,-474.5"/>
<text text-anchor="start" x="1228.89" y="-482.3" font-family="mono" font-weight="bold" font-size="14.00">SecurityScheme</text>
</g>
<!-- Thing&#45;&gt;SecurityScheme -->
<g id="edge4" class="edge"><title>Thing&#45;&gt;SecurityScheme</title>
<path fill="none" stroke="black" d="M709.022,-689.388C842.144,-664.959 1045.65,-618.585 1208.89,-542 1226.75,-533.621 1244.82,-521.08 1259.06,-510.038"/>
<polygon fill="black" stroke="black" points="1261.32,-512.713 1266.97,-503.752 1256.97,-507.231 1261.32,-512.713"/>
<text text-anchor="start" x="1159.89" y="-563.8" font-family="mono" font-size="14.00" fill="#c83500">securityDefinitions</text>
<text text-anchor="middle" x="1255.97" y="-507.552" font-family="Times,serif" font-size="14.00">1..1</text>
</g>
<!-- InteractionAffordance -->
<g id="node9" class="node"><title>InteractionAffordance</title>
<polygon fill="#8ccbf2" stroke="none" points="315.891,-352.5 315.891,-373.5 495.891,-373.5 495.891,-352.5 315.891,-352.5"/>
<polygon fill="none" stroke="#8ccbf2" points="315.891,-352.5 315.891,-373.5 495.891,-373.5 495.891,-352.5 315.891,-352.5"/>
<text text-anchor="start" x="318.891" y="-360.3" font-family="mono" font-weight="bold" font-size="14.00" fill="#c83500">InteractionAffordance</text>
<polygon fill="#ddeeff" stroke="none" points="315.891,-331.5 315.891,-352.5 495.891,-352.5 495.891,-331.5 315.891,-331.5"/>
<polygon fill="none" stroke="#8ccbf2" points="315.891,-331.5 315.891,-352.5 495.891,-352.5 495.891,-331.5 315.891,-331.5"/>
<text text-anchor="start" x="318.891" y="-339.3" font-family="mono" font-size="14.00" fill="#c83500">description</text>
<text text-anchor="start" x="409.891" y="-339.3" font-family="Times,serif" font-size="14.00"> : </text>
<text text-anchor="start" x="421.891" y="-339.3" font-family="mono" font-size="14.00" fill="#c83500">string</text>
<polygon fill="#ddeeff" stroke="none" points="315.891,-310.5 315.891,-331.5 495.891,-331.5 495.891,-310.5 315.891,-310.5"/>
<polygon fill="none" stroke="#8ccbf2" points="315.891,-310.5 315.891,-331.5 495.891,-331.5 495.891,-310.5 315.891,-310.5"/>
<text text-anchor="start" x="318.891" y="-318.3" font-family="mono" font-size="14.00" fill="#c83500">title</text>
<text text-anchor="start" x="360.891" y="-318.3" font-family="Times,serif" font-size="14.00"> : </text>
<text text-anchor="start" x="372.891" y="-318.3" font-family="mono" font-size="14.00" fill="#c83500">string</text>
</g>
<!-- PropertyAffordance&#45;&gt;InteractionAffordance -->
<g id="edge21" class="edge"><title>PropertyAffordance&#45;&gt;InteractionAffordance</title>
<path fill="none" stroke="black" d="M405.891,-460.261C405.891,-440.576 405.891,-412.276 405.891,-388.468"/>
<polygon fill="white" stroke="black" points="409.391,-388.236 405.891,-378.236 402.391,-388.236 409.391,-388.236"/>
</g>
<!-- ActionAffordance&#45;&gt;InteractionAffordance -->
<g id="edge20" class="edge"><title>ActionAffordance&#45;&gt;InteractionAffordance</title>
<path fill="none" stroke="black" d="M835.361,-449.961C817.081,-442.44 797.474,-434.959 778.891,-429 691.253,-400.895 589.238,-378.171 514.07,-363.234"/>
<polygon fill="white" stroke="black" points="514.599,-359.771 504.111,-361.269 513.244,-366.638 514.599,-359.771"/>
</g>
<!-- DataSchema -->
<g id="node12" class="node"><title>DataSchema</title>
<polygon fill="#f2f2f2" stroke="none" points="906.891,-167.5 906.891,-188.5 995.891,-188.5 995.891,-167.5 906.891,-167.5"/>
<polygon fill="none" stroke="#8c8c8c" points="906.891,-167.5 906.891,-188.5 995.891,-188.5 995.891,-167.5 906.891,-167.5"/>
<text text-anchor="start" x="909.891" y="-175.3" font-family="mono" font-weight="bold" font-size="14.00">DataSchema</text>
</g>
<!-- ActionAffordance&#45;&gt;DataSchema -->
<g id="edge10" class="edge"><title>ActionAffordance&#45;&gt;DataSchema</title>
<path fill="none" stroke="black" d="M880.669,-449.86C865.142,-430.275 847.996,-404.461 839.891,-378 830.649,-347.828 828.829,-336.553 839.891,-307 855.835,-264.405 893.151,-226.658 920.121,-203.498"/>
<polygon fill="black" stroke="black" points="922.709,-205.896 928.124,-196.789 918.212,-200.531 922.709,-205.896"/>
<text text-anchor="start" x="839.891" y="-338.8" font-family="mono" font-size="14.00" fill="#c83500">output</text>
<text text-anchor="middle" x="917.124" y="-200.589" font-family="Times,serif" font-size="14.00">0..1</text>
</g>
<!-- ActionAffordance&#45;&gt;DataSchema -->
<g id="edge11" class="edge"><title>ActionAffordance&#45;&gt;DataSchema</title>
<path fill="none" stroke="black" d="M913.453,-449.681C915.34,-413.8 919.135,-356.307 925.891,-307 930.681,-272.037 938.953,-232.191 944.663,-206.487"/>
<polygon fill="black" stroke="black" points="948.08,-207.242 946.861,-196.718 941.251,-205.705 948.08,-207.242"/>
<text text-anchor="start" x="925.891" y="-338.8" font-family="mono" font-size="14.00" fill="#c83500">input</text>
<text text-anchor="middle" x="957.861" y="-200.518" font-family="Times,serif" font-size="14.00">0..1</text>
</g>
<!-- InteractionAffordance&#45;&gt;MultiLanguage -->
<g id="edge12" class="edge"><title>InteractionAffordance&#45;&gt;MultiLanguage</title>
<path fill="none" stroke="black" d="M325.826,-306.925C295.547,-292.631 261.313,-274.964 231.891,-256 207.814,-240.481 182.869,-219.66 164.883,-203.658"/>
<polygon fill="black" stroke="black" points="166.909,-200.773 157.136,-196.681 162.225,-205.974 166.909,-200.773"/>
<text text-anchor="start" x="287.891" y="-277.8" font-family="mono" font-size="14.00" fill="#c83500">titles</text>
<text text-anchor="middle" x="146.136" y="-200.481" font-family="Times,serif" font-size="14.00">0..1</text>
</g>
<!-- InteractionAffordance&#45;&gt;MultiLanguage -->
<g id="edge14" class="edge"><title>InteractionAffordance&#45;&gt;MultiLanguage</title>
<path fill="none" stroke="black" d="M307.777,-331.648C248.548,-323.656 180.631,-310.176 159.891,-289 138.772,-267.437 135.589,-231.519 136.327,-206.732"/>
<polygon fill="black" stroke="black" points="139.833,-206.713 136.868,-196.542 132.843,-206.342 139.833,-206.713"/>
<text text-anchor="start" x="159.891" y="-277.8" font-family="mono" font-size="14.00" fill="#c83500">descriptions</text>
<text text-anchor="middle" x="125.868" y="-200.342" font-family="Times,serif" font-size="14.00">0..1</text>
</g>
<!-- InteractionAffordance&#45;&gt;Form -->
<g id="edge15" class="edge"><title>InteractionAffordance&#45;&gt;Form</title>
<path fill="none" stroke="black" d="M397.095,-306.747C394.037,-294.661 390.455,-280.509 386.813,-266.119"/>
<polygon fill="black" stroke="black" points="390.134,-264.977 384.288,-256.141 383.348,-266.694 390.134,-264.977"/>
<text text-anchor="start" x="391.891" y="-277.8" font-family="mono" font-size="14.00" fill="#c83500">forms</text>
<text text-anchor="middle" x="373.288" y="-259.941" font-family="Times,serif" font-size="14.00">1..*</text>
</g>
<!-- InteractionAffordance&#45;&gt;DataSchema -->
<g id="edge13" class="edge"><title>InteractionAffordance&#45;&gt;DataSchema</title>
<path fill="none" stroke="black" d="M503.956,-312.351C615.543,-279.181 794.455,-226 888.498,-198.046"/>
<polygon fill="black" stroke="black" points="889.569,-201.379 898.157,-195.175 887.575,-194.669 889.569,-201.379"/>
<text text-anchor="start" x="629.891" y="-277.8" font-family="mono" font-size="14.00" fill="#c83500">uriVariables</text>
<text text-anchor="middle" x="887.157" y="-198.975" font-family="Times,serif" font-size="14.00">0..1</text>
</g>
<!-- EventAffordance&#45;&gt;InteractionAffordance -->
<g id="edge19" class="edge"><title>EventAffordance&#45;&gt;InteractionAffordance</title>
<path fill="none" stroke="black" d="M1106.87,-467.257C1090.91,-454.51 1067.4,-437.885 1043.89,-429 995.485,-410.708 683.159,-374.129 514.144,-355.3"/>
<polygon fill="white" stroke="black" points="514.294,-351.795 503.969,-354.168 513.521,-358.752 514.294,-351.795"/>
</g>
<!-- EventAffordance&#45;&gt;DataSchema -->
<g id="edge16" class="edge"><title>EventAffordance&#45;&gt;DataSchema</title>
<path fill="none" stroke="black" d="M1098.87,-467.487C1070.71,-448.937 1028.09,-416.673 1003.89,-378 969.666,-323.294 957.345,-246.775 953.062,-206.594"/>
<polygon fill="black" stroke="black" points="956.532,-206.115 952.076,-196.503 949.565,-206.796 956.532,-206.115"/>
<text text-anchor="start" x="1003.89" y="-338.8" font-family="mono" font-size="14.00" fill="#c83500">subscription</text>
<text text-anchor="middle" x="941.076" y="-200.303" font-family="Times,serif" font-size="14.00">0..1</text>
</g>
<!-- EventAffordance&#45;&gt;DataSchema -->
<g id="edge17" class="edge"><title>EventAffordance&#45;&gt;DataSchema</title>
<path fill="none" stroke="black" d="M1128.63,-467.349C1131.17,-434.14 1132.85,-359.696 1103.89,-307 1078.26,-260.348 1028.12,-223.695 992.223,-201.888"/>
<polygon fill="black" stroke="black" points="993.813,-198.761 983.427,-196.666 990.239,-204.781 993.813,-198.761"/>
<text text-anchor="start" x="1125.89" y="-338.8" font-family="mono" font-size="14.00" fill="#c83500">cancellation</text>
<text text-anchor="middle" x="994.427" y="-200.466" font-family="Times,serif" font-size="14.00">0..1</text>
</g>
<!-- EventAffordance&#45;&gt;DataSchema -->
<g id="edge18" class="edge"><title>EventAffordance&#45;&gt;DataSchema</title>
<path fill="none" stroke="black" d="M1150.24,-467.306C1190.84,-435.25 1266.77,-364.402 1229.89,-307 1182.39,-233.059 1080.19,-201.464 1013.55,-188.347"/>
<polygon fill="black" stroke="black" points="1014.06,-184.881 1003.58,-186.47 1012.76,-191.76 1014.06,-184.881"/>
<text text-anchor="start" x="1239.89" y="-338.8" font-family="mono" font-size="14.00" fill="#c83500">data</text>
<text text-anchor="middle" x="1014.58" y="-175.27" font-family="Times,serif" font-size="14.00">0..1</text>
</g>
</g>
</svg>
