<?xml version="1.0" encoding="UTF-8" standalone="no"?>
<!DOCTYPE svg PUBLIC "-//W3C//DTD SVG 1.1//EN"
 "http://www.w3.org/Graphics/SVG/1.1/DTD/svg11.dtd">
<!-- Generated by graphviz version 2.38.0 (20140413.2041)
 -->
<!-- Title: %3 Pages: 1 -->
<svg width="1263pt" height="840pt"
 viewBox="0.00 0.00 1262.60 840.00" xmlns="http://www.w3.org/2000/svg" xmlns:xlink="http://www.w3.org/1999/xlink">
<g id="graph0" class="graph" transform="scale(1 1) rotate(0) translate(4 836)">
<title>%3</title>
<polygon fill="white" stroke="none" points="-4,4 -4,-836 1258.6,-836 1258.6,4 -4,4"/>
<!-- MultiLanguage -->
<g id="node1" class="node"><title>MultiLanguage</title>
<polygon fill="#8ccbf2" stroke="none" points="76.596,-167.5 76.596,-188.5 190.596,-188.5 190.596,-167.5 76.596,-167.5"/>
<polygon fill="none" stroke="#8ccbf2" points="76.596,-167.5 76.596,-188.5 190.596,-188.5 190.596,-167.5 76.596,-167.5"/>
<text text-anchor="start" x="79.596" y="-175.3" font-family="mono" font-weight="bold" font-size="14.00" fill="#c83500">MultiLanguage</text>
</g>
<!-- InteractionPattern -->
<g id="node2" class="node"><title>InteractionPattern</title>
<polygon fill="#8ccbf2" stroke="none" points="282.596,-394.5 282.596,-415.5 463.596,-415.5 463.596,-394.5 282.596,-394.5"/>
<polygon fill="none" stroke="#8ccbf2" points="282.596,-394.5 282.596,-415.5 463.596,-415.5 463.596,-394.5 282.596,-394.5"/>
<text text-anchor="start" x="298.596" y="-402.3" font-family="mono" font-weight="bold" font-size="14.00" fill="#c83500">InteractionPattern</text>
<polygon fill="#ddeeff" stroke="none" points="282.596,-373.5 282.596,-394.5 463.596,-394.5 463.596,-373.5 282.596,-373.5"/>
<polygon fill="none" stroke="#8ccbf2" points="282.596,-373.5 282.596,-394.5 463.596,-394.5 463.596,-373.5 282.596,-373.5"/>
<text text-anchor="start" x="285.596" y="-381.3" font-family="mono" font-size="14.00" fill="#c83500">description</text>
<text text-anchor="start" x="376.596" y="-381.3" font-family="Times,serif" font-size="14.00"> : </text>
<text text-anchor="start" x="388.596" y="-381.3" font-family="mono" font-size="14.00" fill="#c83500">string</text>
<polygon fill="#ddeeff" stroke="none" points="282.596,-352.5 282.596,-373.5 463.596,-373.5 463.596,-352.5 282.596,-352.5"/>
<polygon fill="none" stroke="#8ccbf2" points="282.596,-352.5 282.596,-373.5 463.596,-373.5 463.596,-352.5 282.596,-352.5"/>
<text text-anchor="start" x="285.596" y="-360.3" font-family="mono" font-size="14.00" fill="#c83500">title</text>
<text text-anchor="start" x="327.596" y="-360.3" font-family="Times,serif" font-size="14.00"> : </text>
<text text-anchor="start" x="339.596" y="-360.3" font-family="mono" font-size="14.00" fill="#c83500">string</text>
<polygon fill="#ddeeff" stroke="none" points="282.596,-331.5 282.596,-352.5 463.596,-352.5 463.596,-331.5 282.596,-331.5"/>
<polygon fill="none" stroke="#8ccbf2" points="282.596,-331.5 282.596,-352.5 463.596,-352.5 463.596,-331.5 282.596,-331.5"/>
<text text-anchor="start" x="285.596" y="-339.3" font-family="mono" font-size="14.00" fill="#c83500">security</text>
<text text-anchor="start" x="352.596" y="-339.3" font-family="Times,serif" font-size="14.00"> : array of </text>
<text text-anchor="start" x="410.596" y="-339.3" font-family="mono" font-size="14.00" fill="#c83500">string</text>
<polygon fill="#ddeeff" stroke="none" points="282.596,-310.5 282.596,-331.5 463.596,-331.5 463.596,-310.5 282.596,-310.5"/>
<polygon fill="none" stroke="#8ccbf2" points="282.596,-310.5 282.596,-331.5 463.596,-331.5 463.596,-310.5 282.596,-310.5"/>
<text text-anchor="start" x="285.596" y="-318.3" font-family="mono" font-size="14.00" fill="#c83500">scopes</text>
<text text-anchor="start" x="335.596" y="-318.3" font-family="Times,serif" font-size="14.00"> : array of </text>
<text text-anchor="start" x="393.596" y="-318.3" font-family="mono" font-size="14.00" fill="#c83500">string</text>
</g>
<!-- InteractionPattern&#45;&gt;MultiLanguage -->
<g id="edge3" class="edge"><title>InteractionPattern&#45;&gt;MultiLanguage</title>
<path fill="none" stroke="black" d="M311.384,-306.859C296.179,-294.89 279.402,-283.114 262.596,-274 239.986,-261.739 229.399,-269.644 207.596,-256 186.12,-242.561 166.423,-221.575 152.759,-204.981"/>
<polygon fill="black" stroke="black" points="155.166,-202.387 146.186,-196.766 149.701,-206.761 155.166,-202.387"/>
<text text-anchor="start" x="285.596" y="-277.8" font-family="mono" font-size="14.00" fill="#c83500">titles</text>
<text text-anchor="middle" x="135.186" y="-200.566" font-family="Times,serif" font-size="14.00">0..1</text>
</g>
<!-- InteractionPattern&#45;&gt;MultiLanguage -->
<g id="edge4" class="edge"><title>InteractionPattern&#45;&gt;MultiLanguage</title>
<path fill="none" stroke="black" d="M273.831,-350.021C232.846,-339.96 188.074,-321.793 158.596,-289 138.383,-266.514 133.484,-231.097 132.764,-206.662"/>
<polygon fill="black" stroke="black" points="136.263,-206.584 132.682,-196.613 129.263,-206.641 136.263,-206.584"/>
<text text-anchor="start" x="158.596" y="-277.8" font-family="mono" font-size="14.00" fill="#c83500">descriptions</text>
<text text-anchor="middle" x="121.682" y="-200.413" font-family="Times,serif" font-size="14.00">0..1</text>
</g>
<!-- Form -->
<g id="node4" class="node"><title>Form</title>
<polygon fill="#8ccbf2" stroke="none" points="225.596,-230.5 225.596,-251.5 558.596,-251.5 558.596,-230.5 225.596,-230.5"/>
<polygon fill="none" stroke="#8ccbf2" points="225.596,-230.5 225.596,-251.5 558.596,-251.5 558.596,-230.5 225.596,-230.5"/>
<text text-anchor="start" x="375.096" y="-238.3" font-family="mono" font-weight="bold" font-size="14.00" fill="#c83500">Form</text>
<polygon fill="#ddeeff" stroke="none" points="225.596,-209.5 225.596,-230.5 558.596,-230.5 558.596,-209.5 225.596,-209.5"/>
<polygon fill="none" stroke="#8ccbf2" points="225.596,-209.5 225.596,-230.5 558.596,-230.5 558.596,-209.5 225.596,-209.5"/>
<text text-anchor="start" x="228.596" y="-217.3" font-family="mono" font-size="14.00" fill="#c83500">contentType</text>
<text text-anchor="start" x="319.596" y="-217.3" font-family="Times,serif" font-size="14.00"> : </text>
<text text-anchor="start" x="331.596" y="-217.3" font-family="mono" font-size="14.00" fill="#c83500">string</text>
<text text-anchor="start" x="381.596" y="-217.3" font-family="Times,serif" font-size="14.00"> = application/json </text>
<text text-anchor="start" x="487.596" y="-217.3" font-family="Times,serif" font-style="italic" font-size="14.00">(mandatory)</text>
<polygon fill="#ddeeff" stroke="none" points="225.596,-188.5 225.596,-209.5 558.596,-209.5 558.596,-188.5 225.596,-188.5"/>
<polygon fill="none" stroke="#8ccbf2" points="225.596,-188.5 225.596,-209.5 558.596,-209.5 558.596,-188.5 225.596,-188.5"/>
<text text-anchor="start" x="228.596" y="-196.3" font-family="mono" font-size="14.00" fill="#c83500">op</text>
<text text-anchor="start" x="245.596" y="-196.3" font-family="Times,serif" font-size="14.00"> : </text>
<text text-anchor="start" x="257.596" y="-196.3" font-family="mono" font-size="14.00" fill="#c83500">string</text>
<polygon fill="#ddeeff" stroke="none" points="225.596,-167.5 225.596,-188.5 558.596,-188.5 558.596,-167.5 225.596,-167.5"/>
<polygon fill="none" stroke="#8ccbf2" points="225.596,-167.5 225.596,-188.5 558.596,-188.5 558.596,-167.5 225.596,-167.5"/>
<text text-anchor="start" x="228.596" y="-175.3" font-family="mono" font-size="14.00" fill="#c83500">security</text>
<text text-anchor="start" x="295.596" y="-175.3" font-family="Times,serif" font-size="14.00"> : array of </text>
<text text-anchor="start" x="353.596" y="-175.3" font-family="mono" font-size="14.00" fill="#c83500">string</text>
<polygon fill="#ddeeff" stroke="none" points="225.596,-146.5 225.596,-167.5 558.596,-167.5 558.596,-146.5 225.596,-146.5"/>
<polygon fill="none" stroke="#8ccbf2" points="225.596,-146.5 225.596,-167.5 558.596,-167.5 558.596,-146.5 225.596,-146.5"/>
<text text-anchor="start" x="228.596" y="-154.3" font-family="mono" font-size="14.00" fill="#c83500">subprotocol</text>
<text text-anchor="start" x="319.596" y="-154.3" font-family="Times,serif" font-size="14.00"> : </text>
<text text-anchor="start" x="331.596" y="-154.3" font-family="mono" font-size="14.00" fill="#c83500">string</text>
<polygon fill="#ddeeff" stroke="none" points="225.596,-125.5 225.596,-146.5 558.596,-146.5 558.596,-125.5 225.596,-125.5"/>
<polygon fill="none" stroke="#8ccbf2" points="225.596,-125.5 225.596,-146.5 558.596,-146.5 558.596,-125.5 225.596,-125.5"/>
<text text-anchor="start" x="228.596" y="-133.3" font-family="mono" font-size="14.00" fill="#c83500">scopes</text>
<text text-anchor="start" x="278.596" y="-133.3" font-family="Times,serif" font-size="14.00"> : array of </text>
<text text-anchor="start" x="336.596" y="-133.3" font-family="mono" font-size="14.00" fill="#c83500">string</text>
<polygon fill="#ddeeff" stroke="none" points="225.596,-104.5 225.596,-125.5 558.596,-125.5 558.596,-104.5 225.596,-104.5"/>
<polygon fill="none" stroke="#8ccbf2" points="225.596,-104.5 225.596,-125.5 558.596,-125.5 558.596,-104.5 225.596,-104.5"/>
<text text-anchor="start" x="228.596" y="-112.3" font-family="mono" font-size="14.00" fill="#c83500">href</text>
<text text-anchor="start" x="262.596" y="-112.3" font-family="Times,serif" font-size="14.00"> : </text>
<text text-anchor="start" x="274.596" y="-112.3" font-family="mono" font-size="14.00" fill="#c83500">anyURI</text>
<text text-anchor="start" x="324.596" y="-112.3" font-family="Times,serif" font-size="14.00"> </text>
<text text-anchor="start" x="328.596" y="-112.3" font-family="Times,serif" font-style="italic" font-size="14.00">(mandatory)</text>
</g>
<!-- InteractionPattern&#45;&gt;Form -->
<g id="edge1" class="edge"><title>InteractionPattern&#45;&gt;Form</title>
<path fill="none" stroke="black" d="M371.727,-306.709C371.981,-295.841 372.54,-284.55 373.596,-274 373.851,-271.455 374.139,-268.877 374.457,-266.278"/>
<polygon fill="black" stroke="black" points="377.951,-266.557 375.815,-256.18 371.013,-265.624 377.951,-266.557"/>
<text text-anchor="start" x="373.596" y="-277.8" font-family="mono" font-size="14.00" fill="#c83500">forms</text>
<text text-anchor="middle" x="364.815" y="-259.98" font-family="Times,serif" font-size="14.00">1..*</text>
</g>
<!-- DataSchema -->
<g id="node11" class="node"><title>DataSchema</title>
<polygon fill="#f2f2f2" stroke="none" points="610.596,-167.5 610.596,-188.5 699.596,-188.5 699.596,-167.5 610.596,-167.5"/>
<polygon fill="none" stroke="#8c8c8c" points="610.596,-167.5 610.596,-188.5 699.596,-188.5 699.596,-167.5 610.596,-167.5"/>
<text text-anchor="start" x="613.596" y="-175.3" font-family="mono" font-weight="bold" font-size="14.00">DataSchema</text>
</g>
<!-- InteractionPattern&#45;&gt;DataSchema -->
<g id="edge2" class="edge"><title>InteractionPattern&#45;&gt;DataSchema</title>
<path fill="none" stroke="black" d="M403.485,-306.91C413.116,-294.187 424.877,-282.053 438.596,-274 491.178,-243.135 519.623,-282.373 574.596,-256 599.015,-244.285 620.794,-222.283 635.439,-204.871"/>
<polygon fill="black" stroke="black" points="638.443,-206.724 642.035,-196.757 633.011,-202.308 638.443,-206.724"/>
<text text-anchor="start" x="438.596" y="-277.8" font-family="mono" font-size="14.00" fill="#c83500">uriVariables</text>
<text text-anchor="middle" x="631.035" y="-200.557" font-family="Times,serif" font-size="14.00">0..1</text>
</g>
<!-- Link -->
<g id="node3" class="node"><title>Link</title>
<polygon fill="#8ccbf2" stroke="none" points="50.596,-558.5 50.596,-579.5 224.596,-579.5 224.596,-558.5 50.596,-558.5"/>
<polygon fill="none" stroke="#8ccbf2" points="50.596,-558.5 50.596,-579.5 224.596,-579.5 224.596,-558.5 50.596,-558.5"/>
<text text-anchor="start" x="120.596" y="-566.3" font-family="mono" font-weight="bold" font-size="14.00" fill="#c83500">Link</text>
<polygon fill="#ddeeff" stroke="none" points="50.596,-537.5 50.596,-558.5 224.596,-558.5 224.596,-537.5 50.596,-537.5"/>
<polygon fill="none" stroke="#8ccbf2" points="50.596,-537.5 50.596,-558.5 224.596,-558.5 224.596,-537.5 50.596,-537.5"/>
<text text-anchor="start" x="53.596" y="-545.3" font-family="mono" font-size="14.00" fill="#c83500">href</text>
<text text-anchor="start" x="87.596" y="-545.3" font-family="Times,serif" font-size="14.00"> : </text>
<text text-anchor="start" x="99.596" y="-545.3" font-family="mono" font-size="14.00" fill="#c83500">anyURI</text>
<text text-anchor="start" x="149.596" y="-545.3" font-family="Times,serif" font-size="14.00"> </text>
<text text-anchor="start" x="153.596" y="-545.3" font-family="Times,serif" font-style="italic" font-size="14.00">(mandatory)</text>
<polygon fill="#ddeeff" stroke="none" points="50.596,-516.5 50.596,-537.5 224.596,-537.5 224.596,-516.5 50.596,-516.5"/>
<polygon fill="none" stroke="#8ccbf2" points="50.596,-516.5 50.596,-537.5 224.596,-537.5 224.596,-516.5 50.596,-516.5"/>
<text text-anchor="start" x="53.596" y="-524.3" font-family="mono" font-size="14.00" fill="#c83500">rel</text>
<text text-anchor="start" x="78.596" y="-524.3" font-family="Times,serif" font-size="14.00"> : </text>
<text text-anchor="start" x="90.596" y="-524.3" font-family="mono" font-size="14.00" fill="#c83500">string</text>
<polygon fill="#ddeeff" stroke="none" points="50.596,-495.5 50.596,-516.5 224.596,-516.5 224.596,-495.5 50.596,-495.5"/>
<polygon fill="none" stroke="#8ccbf2" points="50.596,-495.5 50.596,-516.5 224.596,-516.5 224.596,-495.5 50.596,-495.5"/>
<text text-anchor="start" x="53.596" y="-503.3" font-family="mono" font-size="14.00" fill="#c83500">type</text>
<text text-anchor="start" x="87.596" y="-503.3" font-family="Times,serif" font-size="14.00"> : </text>
<text text-anchor="start" x="99.596" y="-503.3" font-family="mono" font-size="14.00" fill="#c83500">string</text>
<polygon fill="#ddeeff" stroke="none" points="50.596,-474.5 50.596,-495.5 224.596,-495.5 224.596,-474.5 50.596,-474.5"/>
<polygon fill="none" stroke="#8ccbf2" points="50.596,-474.5 50.596,-495.5 224.596,-495.5 224.596,-474.5 50.596,-474.5"/>
<text text-anchor="start" x="53.596" y="-482.3" font-family="mono" font-size="14.00" fill="#c83500">anchor</text>
<text text-anchor="start" x="103.596" y="-482.3" font-family="Times,serif" font-size="14.00"> : </text>
<text text-anchor="start" x="115.596" y="-482.3" font-family="mono" font-size="14.00" fill="#c83500">anyURI</text>
</g>
<!-- ExpectedResponse -->
<g id="node7" class="node"><title>ExpectedResponse</title>
<polygon fill="#8ccbf2" stroke="none" points="312.596,-25 312.596,-46 471.596,-46 471.596,-25 312.596,-25"/>
<polygon fill="none" stroke="#8ccbf2" points="312.596,-25 312.596,-46 471.596,-46 471.596,-25 312.596,-25"/>
<text text-anchor="start" x="325.596" y="-32.8" font-family="mono" font-weight="bold" font-size="14.00" fill="#c83500">ExpectedResponse</text>
<polygon fill="#ddeeff" stroke="none" points="312.596,-4 312.596,-25 471.596,-25 471.596,-4 312.596,-4"/>
<polygon fill="none" stroke="#8ccbf2" points="312.596,-4 312.596,-25 471.596,-25 471.596,-4 312.596,-4"/>
<text text-anchor="start" x="315.596" y="-11.8" font-family="mono" font-size="14.00" fill="#c83500">contentType</text>
<text text-anchor="start" x="406.596" y="-11.8" font-family="Times,serif" font-size="14.00"> : </text>
<text text-anchor="start" x="418.596" y="-11.8" font-family="mono" font-size="14.00" fill="#c83500">string</text>
</g>
<!-- Form&#45;&gt;ExpectedResponse -->
<g id="edge5" class="edge"><title>Form&#45;&gt;ExpectedResponse</title>
<path fill="none" stroke="black" d="M391.596,-100.862C391.596,-86.5577 391.596,-72.2953 391.596,-60.116"/>
<polygon fill="black" stroke="black" points="395.096,-60.0004 391.596,-50.0004 388.096,-60.0004 395.096,-60.0004"/>
<text text-anchor="start" x="391.596" y="-71.8" font-family="mono" font-size="14.00" fill="#c83500">response</text>
<text text-anchor="middle" x="380.596" y="-53.8004" font-family="Times,serif" font-size="14.00">0..1</text>
</g>
<!-- Thing -->
<g id="node5" class="node"><title>Thing</title>
<polygon fill="#8ccbf2" stroke="none" points="504.596,-806.5 504.596,-827.5 757.596,-827.5 757.596,-806.5 504.596,-806.5"/>
<polygon fill="none" stroke="#8ccbf2" points="504.596,-806.5 504.596,-827.5 757.596,-827.5 757.596,-806.5 504.596,-806.5"/>
<text text-anchor="start" x="610.096" y="-814.3" font-family="mono" font-weight="bold" font-size="14.00" fill="#c83500">Thing</text>
<polygon fill="#ddeeff" stroke="none" points="504.596,-785.5 504.596,-806.5 757.596,-806.5 757.596,-785.5 504.596,-785.5"/>
<polygon fill="none" stroke="#8ccbf2" points="504.596,-785.5 504.596,-806.5 757.596,-806.5 757.596,-785.5 504.596,-785.5"/>
<text text-anchor="start" x="507.596" y="-793.3" font-family="mono" font-size="14.00" fill="#c83500">id</text>
<text text-anchor="start" x="524.596" y="-793.3" font-family="Times,serif" font-size="14.00"> : </text>
<text text-anchor="start" x="536.596" y="-793.3" font-family="mono" font-size="14.00" fill="#c83500">anyURI</text>
<text text-anchor="start" x="586.596" y="-793.3" font-family="Times,serif" font-size="14.00"> </text>
<text text-anchor="start" x="590.596" y="-793.3" font-family="Times,serif" font-style="italic" font-size="14.00">(mandatory)</text>
<polygon fill="#ddeeff" stroke="none" points="504.596,-764.5 504.596,-785.5 757.596,-785.5 757.596,-764.5 504.596,-764.5"/>
<polygon fill="none" stroke="#8ccbf2" points="504.596,-764.5 504.596,-785.5 757.596,-785.5 757.596,-764.5 504.596,-764.5"/>
<text text-anchor="start" x="507.596" y="-772.3" font-family="mono" font-size="14.00" fill="#c83500">description</text>
<text text-anchor="start" x="598.596" y="-772.3" font-family="Times,serif" font-size="14.00"> : </text>
<text text-anchor="start" x="610.596" y="-772.3" font-family="mono" font-size="14.00" fill="#c83500">string</text>
<polygon fill="#ddeeff" stroke="none" points="504.596,-743.5 504.596,-764.5 757.596,-764.5 757.596,-743.5 504.596,-743.5"/>
<polygon fill="none" stroke="#8ccbf2" points="504.596,-743.5 504.596,-764.5 757.596,-764.5 757.596,-743.5 504.596,-743.5"/>
<text text-anchor="start" x="507.596" y="-751.3" font-family="mono" font-size="14.00" fill="#c83500">security</text>
<text text-anchor="start" x="574.596" y="-751.3" font-family="Times,serif" font-size="14.00"> : array of </text>
<text text-anchor="start" x="632.596" y="-751.3" font-family="mono" font-size="14.00" fill="#c83500">string</text>
<text text-anchor="start" x="682.596" y="-751.3" font-family="Times,serif" font-size="14.00"> </text>
<text text-anchor="start" x="686.596" y="-751.3" font-family="Times,serif" font-style="italic" font-size="14.00">(mandatory)</text>
<polygon fill="#ddeeff" stroke="none" points="504.596,-722.5 504.596,-743.5 757.596,-743.5 757.596,-722.5 504.596,-722.5"/>
<polygon fill="none" stroke="#8ccbf2" points="504.596,-722.5 504.596,-743.5 757.596,-743.5 757.596,-722.5 504.596,-722.5"/>
<text text-anchor="start" x="507.596" y="-730.3" font-family="mono" font-size="14.00" fill="#c83500">base</text>
<text text-anchor="start" x="541.596" y="-730.3" font-family="Times,serif" font-size="14.00"> : </text>
<text text-anchor="start" x="553.596" y="-730.3" font-family="mono" font-size="14.00" fill="#c83500">anyURI</text>
<polygon fill="#ddeeff" stroke="none" points="504.596,-701.5 504.596,-722.5 757.596,-722.5 757.596,-701.5 504.596,-701.5"/>
<polygon fill="none" stroke="#8ccbf2" points="504.596,-701.5 504.596,-722.5 757.596,-722.5 757.596,-701.5 504.596,-701.5"/>
<text text-anchor="start" x="507.596" y="-709.3" font-family="mono" font-size="14.00" fill="#c83500">name</text>
<text text-anchor="start" x="541.596" y="-709.3" font-family="Times,serif" font-size="14.00"> : </text>
<text text-anchor="start" x="553.596" y="-709.3" font-family="mono" font-size="14.00" fill="#c83500">string</text>
<text text-anchor="start" x="603.596" y="-709.3" font-family="Times,serif" font-size="14.00"> </text>
<text text-anchor="start" x="607.596" y="-709.3" font-family="Times,serif" font-style="italic" font-size="14.00">(mandatory)</text>
<polygon fill="#ddeeff" stroke="none" points="504.596,-680.5 504.596,-701.5 757.596,-701.5 757.596,-680.5 504.596,-680.5"/>
<polygon fill="none" stroke="#8ccbf2" points="504.596,-680.5 504.596,-701.5 757.596,-701.5 757.596,-680.5 504.596,-680.5"/>
<text text-anchor="start" x="507.596" y="-688.3" font-family="mono" font-size="14.00" fill="#c83500">support</text>
<text text-anchor="start" x="565.596" y="-688.3" font-family="Times,serif" font-size="14.00"> : </text>
<text text-anchor="start" x="577.596" y="-688.3" font-family="mono" font-size="14.00" fill="#c83500">string</text>
<polygon fill="#ddeeff" stroke="none" points="504.596,-659.5 504.596,-680.5 757.596,-680.5 757.596,-659.5 504.596,-659.5"/>
<polygon fill="none" stroke="#8ccbf2" points="504.596,-659.5 504.596,-680.5 757.596,-680.5 757.596,-659.5 504.596,-659.5"/>
<text text-anchor="start" x="507.596" y="-667.3" font-family="mono" font-size="14.00" fill="#c83500">created</text>
<text text-anchor="start" x="565.596" y="-667.3" font-family="Times,serif" font-size="14.00"> : </text>
<text text-anchor="start" x="577.596" y="-667.3" font-family="mono" font-size="14.00" fill="#c83500">string</text>
<polygon fill="#ddeeff" stroke="none" points="504.596,-638.5 504.596,-659.5 757.596,-659.5 757.596,-638.5 504.596,-638.5"/>
<polygon fill="none" stroke="#8ccbf2" points="504.596,-638.5 504.596,-659.5 757.596,-659.5 757.596,-638.5 504.596,-638.5"/>
<text text-anchor="start" x="507.596" y="-646.3" font-family="mono" font-size="14.00" fill="#c83500">lastModified</text>
<text text-anchor="start" x="607.596" y="-646.3" font-family="Times,serif" font-size="14.00"> : </text>
<text text-anchor="start" x="619.596" y="-646.3" font-family="mono" font-size="14.00" fill="#c83500">string</text>
</g>
<!-- Thing&#45;&gt;MultiLanguage -->
<g id="edge7" class="edge"><title>Thing&#45;&gt;MultiLanguage</title>
<path fill="none" stroke="black" d="M495.801,-718.096C337.676,-698.095 89.8776,-655.996 33.596,-584 -58.9041,-465.672 64.4086,-273.217 114.32,-204.701"/>
<polygon fill="black" stroke="black" points="117.174,-206.729 120.299,-196.606 111.543,-202.571 117.174,-206.729"/>
<text text-anchor="start" x="3.59595" y="-441.8" font-family="mono" font-size="14.00" fill="#c83500">descriptions</text>
<text text-anchor="middle" x="109.299" y="-200.406" font-family="Times,serif" font-size="14.00">0..1</text>
</g>
<!-- Thing&#45;&gt;Link -->
<g id="edge9" class="edge"><title>Thing&#45;&gt;Link</title>
<path fill="none" stroke="black" d="M495.662,-685.72C422.526,-659.232 330.806,-624.176 241.994,-584.081"/>
<polygon fill="black" stroke="black" points="243.407,-580.879 232.855,-579.933 240.514,-587.253 243.407,-580.879"/>
<text text-anchor="start" x="315.596" y="-605.8" font-family="mono" font-size="14.00" fill="#c83500">links</text>
<text text-anchor="middle" x="243.855" y="-583.733" font-family="Times,serif" font-size="14.00">0..*</text>
</g>
<!-- Property -->
<g id="node6" class="node"><title>Property</title>
<polygon fill="#8ccbf2" stroke="none" points="259.596,-527.5 259.596,-548.5 460.596,-548.5 460.596,-527.5 259.596,-527.5"/>
<polygon fill="none" stroke="#8ccbf2" points="259.596,-527.5 259.596,-548.5 460.596,-548.5 460.596,-527.5 259.596,-527.5"/>
<text text-anchor="start" x="326.596" y="-535.3" font-family="mono" font-weight="bold" font-size="14.00" fill="#c83500">Property</text>
<polygon fill="#ddeeff" stroke="none" points="259.596,-506.5 259.596,-527.5 460.596,-527.5 460.596,-506.5 259.596,-506.5"/>
<polygon fill="none" stroke="#8ccbf2" points="259.596,-506.5 259.596,-527.5 460.596,-527.5 460.596,-506.5 259.596,-506.5"/>
<text text-anchor="start" x="262.596" y="-514.3" font-family="mono" font-size="14.00" fill="#c83500">observable</text>
<text text-anchor="start" x="345.596" y="-514.3" font-family="Times,serif" font-size="14.00"> : </text>
<text text-anchor="start" x="357.596" y="-514.3" font-family="mono" font-size="14.00" fill="#c83500">boolean</text>
<text text-anchor="start" x="415.596" y="-514.3" font-family="Times,serif" font-size="14.00"> = false</text>
</g>
<!-- Thing&#45;&gt;Property -->
<g id="edge6" class="edge"><title>Thing&#45;&gt;Property</title>
<path fill="none" stroke="black" d="M501.049,-634.981C464.174,-607.223 426.711,-579.022 399.61,-558.621"/>
<polygon fill="black" stroke="black" points="401.639,-555.767 391.544,-552.55 397.429,-561.36 401.639,-555.767"/>
<text text-anchor="start" x="471.596" y="-605.8" font-family="mono" font-size="14.00" fill="#c83500">properties</text>
<text text-anchor="middle" x="380.544" y="-556.35" font-family="Times,serif" font-size="14.00">0..1</text>
</g>
<!-- Action -->
<g id="node8" class="node"><title>Action</title>
<polygon fill="#8ccbf2" stroke="none" points="494.596,-537.5 494.596,-558.5 767.596,-558.5 767.596,-537.5 494.596,-537.5"/>
<polygon fill="none" stroke="#8ccbf2" points="494.596,-537.5 494.596,-558.5 767.596,-558.5 767.596,-537.5 494.596,-537.5"/>
<text text-anchor="start" x="606.096" y="-545.3" font-family="mono" font-weight="bold" font-size="14.00" fill="#c83500">Action</text>
<polygon fill="#ddeeff" stroke="none" points="494.596,-516.5 494.596,-537.5 767.596,-537.5 767.596,-516.5 494.596,-516.5"/>
<polygon fill="none" stroke="#8ccbf2" points="494.596,-516.5 494.596,-537.5 767.596,-537.5 767.596,-516.5 494.596,-516.5"/>
<text text-anchor="start" x="497.596" y="-524.3" font-family="mono" font-size="14.00" fill="#c83500">safe</text>
<text text-anchor="start" x="531.596" y="-524.3" font-family="Times,serif" font-size="14.00"> : </text>
<text text-anchor="start" x="543.596" y="-524.3" font-family="mono" font-size="14.00" fill="#c83500">boolean</text>
<text text-anchor="start" x="601.596" y="-524.3" font-family="Times,serif" font-size="14.00"> = false </text>
<text text-anchor="start" x="647.596" y="-524.3" font-family="Times,serif" font-style="italic" font-size="14.00">(mandatory)</text>
<polygon fill="#ddeeff" stroke="none" points="494.596,-495.5 494.596,-516.5 767.596,-516.5 767.596,-495.5 494.596,-495.5"/>
<polygon fill="none" stroke="#8ccbf2" points="494.596,-495.5 494.596,-516.5 767.596,-516.5 767.596,-495.5 494.596,-495.5"/>
<text text-anchor="start" x="497.596" y="-503.3" font-family="mono" font-size="14.00" fill="#c83500">idempotent</text>
<text text-anchor="start" x="580.596" y="-503.3" font-family="Times,serif" font-size="14.00"> : </text>
<text text-anchor="start" x="592.596" y="-503.3" font-family="mono" font-size="14.00" fill="#c83500">boolean</text>
<text text-anchor="start" x="650.596" y="-503.3" font-family="Times,serif" font-size="14.00"> = false </text>
<text text-anchor="start" x="696.596" y="-503.3" font-family="Times,serif" font-style="italic" font-size="14.00">(mandatory)</text>
</g>
<!-- Thing&#45;&gt;Action -->
<g id="edge11" class="edge"><title>Thing&#45;&gt;Action</title>
<path fill="none" stroke="black" d="M630.596,-634.981C630.596,-613.301 630.596,-591.35 630.596,-573.057"/>
<polygon fill="black" stroke="black" points="634.096,-573.017 630.596,-563.017 627.096,-573.017 634.096,-573.017"/>
<text text-anchor="start" x="630.596" y="-605.8" font-family="mono" font-size="14.00" fill="#c83500">actions</text>
<text text-anchor="middle" x="619.596" y="-566.817" font-family="Times,serif" font-size="14.00">0..1</text>
</g>
<!-- Event -->
<g id="node9" class="node"><title>Event</title>
<polygon fill="#8ccbf2" stroke="none" points="800.596,-516.5 800.596,-537.5 848.596,-537.5 848.596,-516.5 800.596,-516.5"/>
<polygon fill="none" stroke="#8ccbf2" points="800.596,-516.5 800.596,-537.5 848.596,-537.5 848.596,-516.5 800.596,-516.5"/>
<text text-anchor="start" x="803.596" y="-524.3" font-family="mono" font-weight="bold" font-size="14.00" fill="#c83500">Event</text>
</g>
<!-- Thing&#45;&gt;Event -->
<g id="edge12" class="edge"><title>Thing&#45;&gt;Event</title>
<path fill="none" stroke="black" d="M735.809,-634.87C752.271,-618.332 768.736,-601.001 783.596,-584 791.805,-574.608 800.119,-563.675 807.094,-554.007"/>
<polygon fill="black" stroke="black" points="810.152,-555.747 813.083,-545.566 804.442,-551.697 810.152,-555.747"/>
<text text-anchor="start" x="764.596" y="-605.8" font-family="mono" font-size="14.00" fill="#c83500">events</text>
<text text-anchor="middle" x="802.083" y="-549.366" font-family="Times,serif" font-size="14.00">0..1</text>
</g>
<!-- Versioning -->
<g id="node10" class="node"><title>Versioning</title>
<polygon fill="#8ccbf2" stroke="none" points="883.596,-527.5 883.596,-548.5 1090.6,-548.5 1090.6,-527.5 883.596,-527.5"/>
<polygon fill="none" stroke="#8ccbf2" points="883.596,-527.5 883.596,-548.5 1090.6,-548.5 1090.6,-527.5 883.596,-527.5"/>
<text text-anchor="start" x="945.596" y="-535.3" font-family="mono" font-weight="bold" font-size="14.00" fill="#c83500">Versioning</text>
<polygon fill="#ddeeff" stroke="none" points="883.596,-506.5 883.596,-527.5 1090.6,-527.5 1090.6,-506.5 883.596,-506.5"/>
<polygon fill="none" stroke="#8ccbf2" points="883.596,-506.5 883.596,-527.5 1090.6,-527.5 1090.6,-506.5 883.596,-506.5"/>
<text text-anchor="start" x="886.596" y="-514.3" font-family="mono" font-size="14.00" fill="#c83500">instance</text>
<text text-anchor="start" x="953.596" y="-514.3" font-family="Times,serif" font-size="14.00"> : </text>
<text text-anchor="start" x="965.596" y="-514.3" font-family="mono" font-size="14.00" fill="#c83500">string</text>
<text text-anchor="start" x="1015.6" y="-514.3" font-family="Times,serif" font-size="14.00"> </text>
<text text-anchor="start" x="1019.6" y="-514.3" font-family="Times,serif" font-style="italic" font-size="14.00">(mandatory)</text>
</g>
<!-- Thing&#45;&gt;Versioning -->
<g id="edge8" class="edge"><title>Thing&#45;&gt;Versioning</title>
<path fill="none" stroke="black" d="M765.184,-655.376C824.684,-621.281 891.076,-583.236 935.498,-557.781"/>
<polygon fill="black" stroke="black" points="937.421,-560.713 944.357,-552.704 933.941,-554.639 937.421,-560.713"/>
<text text-anchor="start" x="851.596" y="-605.8" font-family="mono" font-size="14.00" fill="#c83500">version</text>
<text text-anchor="middle" x="933.357" y="-556.504" font-family="Times,serif" font-size="14.00">0..1</text>
</g>
<!-- SecurityScheme -->
<g id="node12" class="node"><title>SecurityScheme</title>
<polygon fill="#f2f2f2" stroke="none" points="1124.6,-516.5 1124.6,-537.5 1246.6,-537.5 1246.6,-516.5 1124.6,-516.5"/>
<polygon fill="none" stroke="#8c8c8c" points="1124.6,-516.5 1124.6,-537.5 1246.6,-537.5 1246.6,-516.5 1124.6,-516.5"/>
<text text-anchor="start" x="1127.6" y="-524.3" font-family="mono" font-weight="bold" font-size="14.00">SecurityScheme</text>
</g>
<!-- Thing&#45;&gt;SecurityScheme -->
<g id="edge10" class="edge"><title>Thing&#45;&gt;SecurityScheme</title>
<path fill="none" stroke="black" d="M765.128,-702.418C862.862,-677.76 996.696,-638.096 1106.6,-584 1124.32,-575.275 1142.47,-562.819 1156.9,-551.917"/>
<polygon fill="black" stroke="black" points="1159.15,-554.599 1164.93,-545.718 1154.87,-549.057 1159.15,-554.599"/>
<text text-anchor="start" x="1057.6" y="-605.8" font-family="mono" font-size="14.00" fill="#c83500">securityDefinitions</text>
<text text-anchor="middle" x="1153.93" y="-549.518" font-family="Times,serif" font-size="14.00">0..1</text>
</g>
<!-- Property&#45;&gt;InteractionPattern -->
<g id="edge20" class="edge"><title>Property&#45;&gt;InteractionPattern</title>
<path fill="none" stroke="black" d="M361.542,-502.247C363.074,-483.156 365.284,-455.613 367.327,-430.165"/>
<polygon fill="white" stroke="black" points="370.818,-430.415 368.129,-420.167 363.84,-429.855 370.818,-430.415"/>
</g>
<!-- Action&#45;&gt;InteractionPattern -->
<g id="edge18" class="edge"><title>Action&#45;&gt;InteractionPattern</title>
<path fill="none" stroke="black" d="M554.715,-491.935C531.658,-480.475 506.61,-467.035 484.596,-453 471.911,-444.913 458.944,-435.685 446.543,-426.312"/>
<polygon fill="white" stroke="black" points="448.552,-423.442 438.484,-420.142 444.296,-429 448.552,-423.442"/>
</g>
<!-- Action&#45;&gt;DataSchema -->
<g id="edge13" class="edge"><title>Action&#45;&gt;DataSchema</title>
<path fill="none" stroke="black" d="M603.132,-491.79C589.23,-471.984 573.803,-445.983 566.596,-420 553.173,-371.605 551.656,-354.948 566.596,-307 579.104,-266.858 609.151,-228.197 630.652,-204.177"/>
<polygon fill="black" stroke="black" points="633.408,-206.351 637.579,-196.612 628.245,-201.624 633.408,-206.351"/>
<text text-anchor="start" x="566.596" y="-359.8" font-family="mono" font-size="14.00" fill="#c83500">input</text>
<text text-anchor="middle" x="648.579" y="-200.412" font-family="Times,serif" font-size="14.00">0..1</text>
</g>
<!-- Action&#45;&gt;DataSchema -->
<g id="edge14" class="edge"><title>Action&#45;&gt;DataSchema</title>
<path fill="none" stroke="black" d="M632.647,-491.894C635.247,-448.634 639.951,-372.322 644.596,-307 647.049,-272.505 650.218,-232.79 652.325,-206.974"/>
<polygon fill="black" stroke="black" points="655.829,-207.07 653.157,-196.817 648.852,-206.498 655.829,-207.07"/>
<text text-anchor="start" x="644.596" y="-359.8" font-family="mono" font-size="14.00" fill="#c83500">output</text>
<text text-anchor="middle" x="664.157" y="-200.617" font-family="Times,serif" font-size="14.00">0..1</text>
</g>
<!-- Event&#45;&gt;InteractionPattern -->
<g id="edge19" class="edge"><title>Event&#45;&gt;InteractionPattern</title>
<path fill="none" stroke="black" d="M816.277,-509.244C809.303,-496.664 798.15,-480.261 783.596,-471 777.548,-467.151 537.508,-421.901 530.596,-420 514.427,-415.554 497.523,-410.293 481.036,-404.812"/>
<polygon fill="white" stroke="black" points="481.98,-401.437 471.386,-401.563 479.746,-408.071 481.98,-401.437"/>
</g>
<!-- Event&#45;&gt;DataSchema -->
<g id="edge15" class="edge"><title>Event&#45;&gt;DataSchema</title>
<path fill="none" stroke="black" d="M834.473,-509.474C841.934,-497.651 853.017,-482.092 865.596,-471 900.37,-440.336 933.158,-460.003 956.596,-420 981.984,-376.668 984.356,-348.853 956.596,-307 903.526,-226.989 789.25,-197.061 717.485,-185.955"/>
<polygon fill="black" stroke="black" points="717.619,-182.437 707.217,-184.449 716.603,-189.363 717.619,-182.437"/>
<text text-anchor="start" x="976.596" y="-359.8" font-family="mono" font-size="14.00" fill="#c83500">data</text>
<text text-anchor="middle" x="718.217" y="-188.249" font-family="Times,serif" font-size="14.00">0..1</text>
</g>
<!-- Event&#45;&gt;DataSchema -->
<g id="edge16" class="edge"><title>Event&#45;&gt;DataSchema</title>
<path fill="none" stroke="black" d="M813.1,-509.419C805.244,-498.142 794.344,-483.244 783.596,-471 762.03,-446.433 747.832,-447.777 730.596,-420 729.865,-418.821 682.637,-268.708 663.008,-206.268"/>
<polygon fill="black" stroke="black" points="666.337,-205.186 659.999,-196.696 659.659,-207.285 666.337,-205.186"/>
<text text-anchor="start" x="730.596" y="-359.8" font-family="mono" font-size="14.00" fill="#c83500">subscription</text>
<text text-anchor="middle" x="670.999" y="-200.496" font-family="Times,serif" font-size="14.00">0..1</text>
</g>
<!-- Event&#45;&gt;DataSchema -->
<g id="edge17" class="edge"><title>Event&#45;&gt;DataSchema</title>
<path fill="none" stroke="black" d="M830.307,-509.334C842.098,-470.683 865.257,-374.91 830.596,-307 804.842,-256.542 748.756,-221.413 706.777,-200.989"/>
<polygon fill="black" stroke="black" points="708.05,-197.72 697.514,-196.607 705.057,-204.047 708.05,-197.72"/>
<text text-anchor="start" x="849.596" y="-359.8" font-family="mono" font-size="14.00" fill="#c83500">cancellation</text>
<text text-anchor="middle" x="708.514" y="-200.407" font-family="Times,serif" font-size="14.00">0..1</text>
</g>
</g>
</svg>
