<?xml version="1.0" encoding="UTF-8" standalone="no"?>
<!DOCTYPE svg PUBLIC "-//W3C//DTD SVG 1.1//EN"
 "http://www.w3.org/Graphics/SVG/1.1/DTD/svg11.dtd">
<!-- Generated by graphviz version 2.38.0 (20140413.2041)
 -->
<!-- Title: %3 Pages: 1 -->
<svg width="1565pt" height="840pt"
 viewBox="0.00 0.00 1564.50 840.00" xmlns="http://www.w3.org/2000/svg" xmlns:xlink="http://www.w3.org/1999/xlink">
<g id="graph0" class="graph" transform="scale(1 1) rotate(0) translate(4 836)">
<title>%3</title>
<polygon fill="white" stroke="none" points="-4,4 -4,-836 1560.5,-836 1560.5,4 -4,4"/>
<!-- MultiLanguage -->
<g id="node1" class="node"><title>MultiLanguage</title>
<polygon fill="#8ccbf2" stroke="none" points="375.5,-167.5 375.5,-188.5 489.5,-188.5 489.5,-167.5 375.5,-167.5"/>
<polygon fill="none" stroke="#8ccbf2" points="375.5,-167.5 375.5,-188.5 489.5,-188.5 489.5,-167.5 375.5,-167.5"/>
<text text-anchor="start" x="378.5" y="-175.3" font-family="mono" font-weight="bold" font-size="14.00" fill="#c83500">MultiLanguage</text>
</g>
<!-- InteractionPattern -->
<g id="node2" class="node"><title>InteractionPattern</title>
<polygon fill="#8ccbf2" stroke="none" points="342.5,-394.5 342.5,-415.5 523.5,-415.5 523.5,-394.5 342.5,-394.5"/>
<polygon fill="none" stroke="#8ccbf2" points="342.5,-394.5 342.5,-415.5 523.5,-415.5 523.5,-394.5 342.5,-394.5"/>
<text text-anchor="start" x="358.5" y="-402.3" font-family="mono" font-weight="bold" font-size="14.00" fill="#c83500">InteractionPattern</text>
<polygon fill="#ddeeff" stroke="none" points="342.5,-373.5 342.5,-394.5 523.5,-394.5 523.5,-373.5 342.5,-373.5"/>
<polygon fill="none" stroke="#8ccbf2" points="342.5,-373.5 342.5,-394.5 523.5,-394.5 523.5,-373.5 342.5,-373.5"/>
<text text-anchor="start" x="345.5" y="-381.3" font-family="mono" font-size="14.00" fill="#c83500">title</text>
<text text-anchor="start" x="387.5" y="-381.3" font-family="Times,serif" font-size="14.00"> : </text>
<text text-anchor="start" x="399.5" y="-381.3" font-family="mono" font-size="14.00" fill="#c83500">string</text>
<polygon fill="#ddeeff" stroke="none" points="342.5,-352.5 342.5,-373.5 523.5,-373.5 523.5,-352.5 342.5,-352.5"/>
<polygon fill="none" stroke="#8ccbf2" points="342.5,-352.5 342.5,-373.5 523.5,-373.5 523.5,-352.5 342.5,-352.5"/>
<text text-anchor="start" x="345.5" y="-360.3" font-family="mono" font-size="14.00" fill="#c83500">scopes</text>
<text text-anchor="start" x="395.5" y="-360.3" font-family="Times,serif" font-size="14.00"> : array of </text>
<text text-anchor="start" x="453.5" y="-360.3" font-family="mono" font-size="14.00" fill="#c83500">string</text>
<polygon fill="#ddeeff" stroke="none" points="342.5,-331.5 342.5,-352.5 523.5,-352.5 523.5,-331.5 342.5,-331.5"/>
<polygon fill="none" stroke="#8ccbf2" points="342.5,-331.5 342.5,-352.5 523.5,-352.5 523.5,-331.5 342.5,-331.5"/>
<text text-anchor="start" x="345.5" y="-339.3" font-family="mono" font-size="14.00" fill="#c83500">security</text>
<text text-anchor="start" x="412.5" y="-339.3" font-family="Times,serif" font-size="14.00"> : array of </text>
<text text-anchor="start" x="470.5" y="-339.3" font-family="mono" font-size="14.00" fill="#c83500">string</text>
<polygon fill="#ddeeff" stroke="none" points="342.5,-310.5 342.5,-331.5 523.5,-331.5 523.5,-310.5 342.5,-310.5"/>
<polygon fill="none" stroke="#8ccbf2" points="342.5,-310.5 342.5,-331.5 523.5,-331.5 523.5,-310.5 342.5,-310.5"/>
<text text-anchor="start" x="345.5" y="-318.3" font-family="mono" font-size="14.00" fill="#c83500">description</text>
<text text-anchor="start" x="436.5" y="-318.3" font-family="Times,serif" font-size="14.00"> : </text>
<text text-anchor="start" x="448.5" y="-318.3" font-family="mono" font-size="14.00" fill="#c83500">string</text>
</g>
<!-- InteractionPattern&#45;&gt;MultiLanguage -->
<g id="edge1" class="edge"><title>InteractionPattern&#45;&gt;MultiLanguage</title>
<path fill="none" stroke="black" d="M364.09,-306.606C358.701,-296.465 356.636,-285.448 360.5,-274 369.595,-247.055 389.78,-221.721 406.47,-204.08"/>
<polygon fill="black" stroke="black" points="409.354,-206.136 413.84,-196.537 404.348,-201.244 409.354,-206.136"/>
<text text-anchor="start" x="360.5" y="-277.8" font-family="mono" font-size="14.00" fill="#c83500">titles</text>
<text text-anchor="middle" x="402.84" y="-200.337" font-family="Times,serif" font-size="14.00">0..1</text>
</g>
<!-- InteractionPattern&#45;&gt;MultiLanguage -->
<g id="edge3" class="edge"><title>InteractionPattern&#45;&gt;MultiLanguage</title>
<path fill="none" stroke="black" d="M432.5,-306.6C432.5,-273.674 432.5,-233.461 432.5,-207.203"/>
<polygon fill="black" stroke="black" points="436,-206.866 432.5,-196.866 429,-206.866 436,-206.866"/>
<text text-anchor="start" x="432.5" y="-277.8" font-family="mono" font-size="14.00" fill="#c83500">descriptions</text>
<text text-anchor="middle" x="443.5" y="-200.666" font-family="Times,serif" font-size="14.00">0..1</text>
</g>
<!-- Form -->
<g id="node4" class="node"><title>Form</title>
<polygon fill="#8ccbf2" stroke="none" points="8.5,-230.5 8.5,-251.5 341.5,-251.5 341.5,-230.5 8.5,-230.5"/>
<polygon fill="none" stroke="#8ccbf2" points="8.5,-230.5 8.5,-251.5 341.5,-251.5 341.5,-230.5 8.5,-230.5"/>
<text text-anchor="start" x="158" y="-238.3" font-family="mono" font-weight="bold" font-size="14.00" fill="#c83500">Form</text>
<polygon fill="#ddeeff" stroke="none" points="8.5,-209.5 8.5,-230.5 341.5,-230.5 341.5,-209.5 8.5,-209.5"/>
<polygon fill="none" stroke="#8ccbf2" points="8.5,-209.5 8.5,-230.5 341.5,-230.5 341.5,-209.5 8.5,-209.5"/>
<text text-anchor="start" x="11.5" y="-217.3" font-family="mono" font-size="14.00" fill="#c83500">href</text>
<text text-anchor="start" x="45.5" y="-217.3" font-family="Times,serif" font-size="14.00"> : </text>
<text text-anchor="start" x="57.5" y="-217.3" font-family="mono" font-size="14.00" fill="#c83500">anyURI</text>
<text text-anchor="start" x="107.5" y="-217.3" font-family="Times,serif" font-size="14.00"> </text>
<text text-anchor="start" x="111.5" y="-217.3" font-family="Times,serif" font-style="italic" font-size="14.00">(mandatory)</text>
<polygon fill="#ddeeff" stroke="none" points="8.5,-188.5 8.5,-209.5 341.5,-209.5 341.5,-188.5 8.5,-188.5"/>
<polygon fill="none" stroke="#8ccbf2" points="8.5,-188.5 8.5,-209.5 341.5,-209.5 341.5,-188.5 8.5,-188.5"/>
<text text-anchor="start" x="11.5" y="-196.3" font-family="mono" font-size="14.00" fill="#c83500">op</text>
<text text-anchor="start" x="28.5" y="-196.3" font-family="Times,serif" font-size="14.00"> : </text>
<text text-anchor="start" x="40.5" y="-196.3" font-family="mono" font-size="14.00" fill="#c83500">string</text>
<polygon fill="#ddeeff" stroke="none" points="8.5,-167.5 8.5,-188.5 341.5,-188.5 341.5,-167.5 8.5,-167.5"/>
<polygon fill="none" stroke="#8ccbf2" points="8.5,-167.5 8.5,-188.5 341.5,-188.5 341.5,-167.5 8.5,-167.5"/>
<text text-anchor="start" x="11.5" y="-175.3" font-family="mono" font-size="14.00" fill="#c83500">scopes</text>
<text text-anchor="start" x="61.5" y="-175.3" font-family="Times,serif" font-size="14.00"> : array of </text>
<text text-anchor="start" x="119.5" y="-175.3" font-family="mono" font-size="14.00" fill="#c83500">string</text>
<polygon fill="#ddeeff" stroke="none" points="8.5,-146.5 8.5,-167.5 341.5,-167.5 341.5,-146.5 8.5,-146.5"/>
<polygon fill="none" stroke="#8ccbf2" points="8.5,-146.5 8.5,-167.5 341.5,-167.5 341.5,-146.5 8.5,-146.5"/>
<text text-anchor="start" x="11.5" y="-154.3" font-family="mono" font-size="14.00" fill="#c83500">subprotocol</text>
<text text-anchor="start" x="102.5" y="-154.3" font-family="Times,serif" font-size="14.00"> : </text>
<text text-anchor="start" x="114.5" y="-154.3" font-family="mono" font-size="14.00" fill="#c83500">string</text>
<polygon fill="#ddeeff" stroke="none" points="8.5,-125.5 8.5,-146.5 341.5,-146.5 341.5,-125.5 8.5,-125.5"/>
<polygon fill="none" stroke="#8ccbf2" points="8.5,-125.5 8.5,-146.5 341.5,-146.5 341.5,-125.5 8.5,-125.5"/>
<text text-anchor="start" x="11.5" y="-133.3" font-family="mono" font-size="14.00" fill="#c83500">security</text>
<text text-anchor="start" x="78.5" y="-133.3" font-family="Times,serif" font-size="14.00"> : array of </text>
<text text-anchor="start" x="136.5" y="-133.3" font-family="mono" font-size="14.00" fill="#c83500">string</text>
<polygon fill="#ddeeff" stroke="none" points="8.5,-104.5 8.5,-125.5 341.5,-125.5 341.5,-104.5 8.5,-104.5"/>
<polygon fill="none" stroke="#8ccbf2" points="8.5,-104.5 8.5,-125.5 341.5,-125.5 341.5,-104.5 8.5,-104.5"/>
<text text-anchor="start" x="11.5" y="-112.3" font-family="mono" font-size="14.00" fill="#c83500">contentType</text>
<text text-anchor="start" x="102.5" y="-112.3" font-family="Times,serif" font-size="14.00"> : </text>
<text text-anchor="start" x="114.5" y="-112.3" font-family="mono" font-size="14.00" fill="#c83500">string</text>
<text text-anchor="start" x="164.5" y="-112.3" font-family="Times,serif" font-size="14.00"> = application/json </text>
<text text-anchor="start" x="270.5" y="-112.3" font-family="Times,serif" font-style="italic" font-size="14.00">(mandatory)</text>
</g>
<!-- InteractionPattern&#45;&gt;Form -->
<g id="edge2" class="edge"><title>InteractionPattern&#45;&gt;Form</title>
<path fill="none" stroke="black" d="M340.215,-306.952C331.097,-301.031 322.057,-294.984 313.5,-289 301.419,-280.551 288.983,-271.423 276.749,-262.165"/>
<polygon fill="black" stroke="black" points="278.821,-259.344 268.745,-256.069 274.58,-264.913 278.821,-259.344"/>
<text text-anchor="start" x="313.5" y="-277.8" font-family="mono" font-size="14.00" fill="#c83500">forms</text>
<text text-anchor="middle" x="257.745" y="-259.869" font-family="Times,serif" font-size="14.00">1..*</text>
</g>
<!-- DataSchema -->
<g id="node11" class="node"><title>DataSchema</title>
<polygon fill="#f2f2f2" stroke="none" points="751.5,-167.5 751.5,-188.5 840.5,-188.5 840.5,-167.5 751.5,-167.5"/>
<polygon fill="none" stroke="#8c8c8c" points="751.5,-167.5 751.5,-188.5 840.5,-188.5 840.5,-167.5 751.5,-167.5"/>
<text text-anchor="start" x="754.5" y="-175.3" font-family="mono" font-weight="bold" font-size="14.00">DataSchema</text>
</g>
<!-- InteractionPattern&#45;&gt;DataSchema -->
<g id="edge4" class="edge"><title>InteractionPattern&#45;&gt;DataSchema</title>
<path fill="none" stroke="black" d="M508.722,-306.999C530.903,-291.072 550.75,-277.128 556.5,-274 613.823,-242.818 683.653,-216.422 732.991,-199.52"/>
<polygon fill="black" stroke="black" points="734.23,-202.796 742.575,-196.268 731.981,-196.167 734.23,-202.796"/>
<text text-anchor="start" x="556.5" y="-277.8" font-family="mono" font-size="14.00" fill="#c83500">uriVariables</text>
<text text-anchor="middle" x="731.575" y="-200.068" font-family="Times,serif" font-size="14.00">0..1</text>
</g>
<!-- Link -->
<g id="node3" class="node"><title>Link</title>
<polygon fill="#8ccbf2" stroke="none" points="976.5,-558.5 976.5,-579.5 1150.5,-579.5 1150.5,-558.5 976.5,-558.5"/>
<polygon fill="none" stroke="#8ccbf2" points="976.5,-558.5 976.5,-579.5 1150.5,-579.5 1150.5,-558.5 976.5,-558.5"/>
<text text-anchor="start" x="1046.5" y="-566.3" font-family="mono" font-weight="bold" font-size="14.00" fill="#c83500">Link</text>
<polygon fill="#ddeeff" stroke="none" points="976.5,-537.5 976.5,-558.5 1150.5,-558.5 1150.5,-537.5 976.5,-537.5"/>
<polygon fill="none" stroke="#8ccbf2" points="976.5,-537.5 976.5,-558.5 1150.5,-558.5 1150.5,-537.5 976.5,-537.5"/>
<text text-anchor="start" x="979.5" y="-545.3" font-family="mono" font-size="14.00" fill="#c83500">type</text>
<text text-anchor="start" x="1013.5" y="-545.3" font-family="Times,serif" font-size="14.00"> : </text>
<text text-anchor="start" x="1025.5" y="-545.3" font-family="mono" font-size="14.00" fill="#c83500">string</text>
<polygon fill="#ddeeff" stroke="none" points="976.5,-516.5 976.5,-537.5 1150.5,-537.5 1150.5,-516.5 976.5,-516.5"/>
<polygon fill="none" stroke="#8ccbf2" points="976.5,-516.5 976.5,-537.5 1150.5,-537.5 1150.5,-516.5 976.5,-516.5"/>
<text text-anchor="start" x="979.5" y="-524.3" font-family="mono" font-size="14.00" fill="#c83500">anchor</text>
<text text-anchor="start" x="1029.5" y="-524.3" font-family="Times,serif" font-size="14.00"> : </text>
<text text-anchor="start" x="1041.5" y="-524.3" font-family="mono" font-size="14.00" fill="#c83500">anyURI</text>
<polygon fill="#ddeeff" stroke="none" points="976.5,-495.5 976.5,-516.5 1150.5,-516.5 1150.5,-495.5 976.5,-495.5"/>
<polygon fill="none" stroke="#8ccbf2" points="976.5,-495.5 976.5,-516.5 1150.5,-516.5 1150.5,-495.5 976.5,-495.5"/>
<text text-anchor="start" x="979.5" y="-503.3" font-family="mono" font-size="14.00" fill="#c83500">href</text>
<text text-anchor="start" x="1013.5" y="-503.3" font-family="Times,serif" font-size="14.00"> : </text>
<text text-anchor="start" x="1025.5" y="-503.3" font-family="mono" font-size="14.00" fill="#c83500">anyURI</text>
<text text-anchor="start" x="1075.5" y="-503.3" font-family="Times,serif" font-size="14.00"> </text>
<text text-anchor="start" x="1079.5" y="-503.3" font-family="Times,serif" font-style="italic" font-size="14.00">(mandatory)</text>
<polygon fill="#ddeeff" stroke="none" points="976.5,-474.5 976.5,-495.5 1150.5,-495.5 1150.5,-474.5 976.5,-474.5"/>
<polygon fill="none" stroke="#8ccbf2" points="976.5,-474.5 976.5,-495.5 1150.5,-495.5 1150.5,-474.5 976.5,-474.5"/>
<text text-anchor="start" x="979.5" y="-482.3" font-family="mono" font-size="14.00" fill="#c83500">rel</text>
<text text-anchor="start" x="1004.5" y="-482.3" font-family="Times,serif" font-size="14.00"> : </text>
<text text-anchor="start" x="1016.5" y="-482.3" font-family="mono" font-size="14.00" fill="#c83500">string</text>
</g>
<!-- ExpectedResponse -->
<g id="node7" class="node"><title>ExpectedResponse</title>
<polygon fill="#8ccbf2" stroke="none" points="95.5,-25 95.5,-46 254.5,-46 254.5,-25 95.5,-25"/>
<polygon fill="none" stroke="#8ccbf2" points="95.5,-25 95.5,-46 254.5,-46 254.5,-25 95.5,-25"/>
<text text-anchor="start" x="108.5" y="-32.8" font-family="mono" font-weight="bold" font-size="14.00" fill="#c83500">ExpectedResponse</text>
<polygon fill="#ddeeff" stroke="none" points="95.5,-4 95.5,-25 254.5,-25 254.5,-4 95.5,-4"/>
<polygon fill="none" stroke="#8ccbf2" points="95.5,-4 95.5,-25 254.5,-25 254.5,-4 95.5,-4"/>
<text text-anchor="start" x="98.5" y="-11.8" font-family="mono" font-size="14.00" fill="#c83500">contentType</text>
<text text-anchor="start" x="189.5" y="-11.8" font-family="Times,serif" font-size="14.00"> : </text>
<text text-anchor="start" x="201.5" y="-11.8" font-family="mono" font-size="14.00" fill="#c83500">string</text>
</g>
<!-- Form&#45;&gt;ExpectedResponse -->
<g id="edge5" class="edge"><title>Form&#45;&gt;ExpectedResponse</title>
<path fill="none" stroke="black" d="M174.5,-100.862C174.5,-86.5577 174.5,-72.2953 174.5,-60.116"/>
<polygon fill="black" stroke="black" points="178,-60.0004 174.5,-50.0004 171,-60.0004 178,-60.0004"/>
<text text-anchor="start" x="174.5" y="-71.8" font-family="mono" font-size="14.00" fill="#c83500">response</text>
<text text-anchor="middle" x="163.5" y="-53.8004" font-family="Times,serif" font-size="14.00">0..1</text>
</g>
<!-- Thing -->
<g id="node5" class="node"><title>Thing</title>
<polygon fill="#8ccbf2" stroke="none" points="694.5,-806.5 694.5,-827.5 947.5,-827.5 947.5,-806.5 694.5,-806.5"/>
<polygon fill="none" stroke="#8ccbf2" points="694.5,-806.5 694.5,-827.5 947.5,-827.5 947.5,-806.5 694.5,-806.5"/>
<text text-anchor="start" x="800" y="-814.3" font-family="mono" font-weight="bold" font-size="14.00" fill="#c83500">Thing</text>
<polygon fill="#ddeeff" stroke="none" points="694.5,-785.5 694.5,-806.5 947.5,-806.5 947.5,-785.5 694.5,-785.5"/>
<polygon fill="none" stroke="#8ccbf2" points="694.5,-785.5 694.5,-806.5 947.5,-806.5 947.5,-785.5 694.5,-785.5"/>
<text text-anchor="start" x="697.5" y="-793.3" font-family="mono" font-size="14.00" fill="#c83500">id</text>
<text text-anchor="start" x="714.5" y="-793.3" font-family="Times,serif" font-size="14.00"> : </text>
<text text-anchor="start" x="726.5" y="-793.3" font-family="mono" font-size="14.00" fill="#c83500">anyURI</text>
<text text-anchor="start" x="776.5" y="-793.3" font-family="Times,serif" font-size="14.00"> </text>
<text text-anchor="start" x="780.5" y="-793.3" font-family="Times,serif" font-style="italic" font-size="14.00">(mandatory)</text>
<polygon fill="#ddeeff" stroke="none" points="694.5,-764.5 694.5,-785.5 947.5,-785.5 947.5,-764.5 694.5,-764.5"/>
<polygon fill="none" stroke="#8ccbf2" points="694.5,-764.5 694.5,-785.5 947.5,-785.5 947.5,-764.5 694.5,-764.5"/>
<text text-anchor="start" x="697.5" y="-772.3" font-family="mono" font-size="14.00" fill="#c83500">support</text>
<text text-anchor="start" x="755.5" y="-772.3" font-family="Times,serif" font-size="14.00"> : </text>
<text text-anchor="start" x="767.5" y="-772.3" font-family="mono" font-size="14.00" fill="#c83500">string</text>
<polygon fill="#ddeeff" stroke="none" points="694.5,-743.5 694.5,-764.5 947.5,-764.5 947.5,-743.5 694.5,-743.5"/>
<polygon fill="none" stroke="#8ccbf2" points="694.5,-743.5 694.5,-764.5 947.5,-764.5 947.5,-743.5 694.5,-743.5"/>
<text text-anchor="start" x="697.5" y="-751.3" font-family="mono" font-size="14.00" fill="#c83500">security</text>
<text text-anchor="start" x="764.5" y="-751.3" font-family="Times,serif" font-size="14.00"> : array of </text>
<text text-anchor="start" x="822.5" y="-751.3" font-family="mono" font-size="14.00" fill="#c83500">string</text>
<text text-anchor="start" x="872.5" y="-751.3" font-family="Times,serif" font-size="14.00"> </text>
<text text-anchor="start" x="876.5" y="-751.3" font-family="Times,serif" font-style="italic" font-size="14.00">(mandatory)</text>
<polygon fill="#ddeeff" stroke="none" points="694.5,-722.5 694.5,-743.5 947.5,-743.5 947.5,-722.5 694.5,-722.5"/>
<polygon fill="none" stroke="#8ccbf2" points="694.5,-722.5 694.5,-743.5 947.5,-743.5 947.5,-722.5 694.5,-722.5"/>
<text text-anchor="start" x="697.5" y="-730.3" font-family="mono" font-size="14.00" fill="#c83500">lastModified</text>
<text text-anchor="start" x="797.5" y="-730.3" font-family="Times,serif" font-size="14.00"> : </text>
<text text-anchor="start" x="809.5" y="-730.3" font-family="mono" font-size="14.00" fill="#c83500">string</text>
<polygon fill="#ddeeff" stroke="none" points="694.5,-701.5 694.5,-722.5 947.5,-722.5 947.5,-701.5 694.5,-701.5"/>
<polygon fill="none" stroke="#8ccbf2" points="694.5,-701.5 694.5,-722.5 947.5,-722.5 947.5,-701.5 694.5,-701.5"/>
<text text-anchor="start" x="697.5" y="-709.3" font-family="mono" font-size="14.00" fill="#c83500">created</text>
<text text-anchor="start" x="755.5" y="-709.3" font-family="Times,serif" font-size="14.00"> : </text>
<text text-anchor="start" x="767.5" y="-709.3" font-family="mono" font-size="14.00" fill="#c83500">string</text>
<polygon fill="#ddeeff" stroke="none" points="694.5,-680.5 694.5,-701.5 947.5,-701.5 947.5,-680.5 694.5,-680.5"/>
<polygon fill="none" stroke="#8ccbf2" points="694.5,-680.5 694.5,-701.5 947.5,-701.5 947.5,-680.5 694.5,-680.5"/>
<text text-anchor="start" x="697.5" y="-688.3" font-family="mono" font-size="14.00" fill="#c83500">name</text>
<text text-anchor="start" x="731.5" y="-688.3" font-family="Times,serif" font-size="14.00"> : </text>
<text text-anchor="start" x="743.5" y="-688.3" font-family="mono" font-size="14.00" fill="#c83500">string</text>
<text text-anchor="start" x="793.5" y="-688.3" font-family="Times,serif" font-size="14.00"> </text>
<text text-anchor="start" x="797.5" y="-688.3" font-family="Times,serif" font-style="italic" font-size="14.00">(mandatory)</text>
<polygon fill="#ddeeff" stroke="none" points="694.5,-659.5 694.5,-680.5 947.5,-680.5 947.5,-659.5 694.5,-659.5"/>
<polygon fill="none" stroke="#8ccbf2" points="694.5,-659.5 694.5,-680.5 947.5,-680.5 947.5,-659.5 694.5,-659.5"/>
<text text-anchor="start" x="697.5" y="-667.3" font-family="mono" font-size="14.00" fill="#c83500">base</text>
<text text-anchor="start" x="731.5" y="-667.3" font-family="Times,serif" font-size="14.00"> : </text>
<text text-anchor="start" x="743.5" y="-667.3" font-family="mono" font-size="14.00" fill="#c83500">anyURI</text>
<polygon fill="#ddeeff" stroke="none" points="694.5,-638.5 694.5,-659.5 947.5,-659.5 947.5,-638.5 694.5,-638.5"/>
<polygon fill="none" stroke="#8ccbf2" points="694.5,-638.5 694.5,-659.5 947.5,-659.5 947.5,-638.5 694.5,-638.5"/>
<text text-anchor="start" x="697.5" y="-646.3" font-family="mono" font-size="14.00" fill="#c83500">description</text>
<text text-anchor="start" x="788.5" y="-646.3" font-family="Times,serif" font-size="14.00"> : </text>
<text text-anchor="start" x="800.5" y="-646.3" font-family="mono" font-size="14.00" fill="#c83500">string</text>
</g>
<!-- Thing&#45;&gt;MultiLanguage -->
<g id="edge8" class="edge"><title>Thing&#45;&gt;MultiLanguage</title>
<path fill="none" stroke="black" d="M685.793,-715.456C537.926,-693.656 314.642,-650.563 263.5,-584 226.927,-536.398 268.963,-298.444 290.5,-274 310.884,-250.865 330.879,-271.558 357.5,-256 379.856,-242.935 400.077,-221.456 413.874,-204.578"/>
<polygon fill="black" stroke="black" points="416.636,-206.727 420.112,-196.719 411.154,-202.375 416.636,-206.727"/>
<text text-anchor="start" x="253.5" y="-441.8" font-family="mono" font-size="14.00" fill="#c83500">descriptions</text>
<text text-anchor="middle" x="431.112" y="-200.519" font-family="Times,serif" font-size="14.00">0..1</text>
</g>
<!-- Thing&#45;&gt;Link -->
<g id="edge7" class="edge"><title>Thing&#45;&gt;Link</title>
<path fill="none" stroke="black" d="M936.662,-634.981C954.489,-620.015 972.469,-604.921 989.064,-590.989"/>
<polygon fill="black" stroke="black" points="991.684,-593.36 997.093,-584.249 987.184,-587.998 991.684,-593.36"/>
<text text-anchor="start" x="971.5" y="-605.8" font-family="mono" font-size="14.00" fill="#c83500">links</text>
<text text-anchor="middle" x="986.093" y="-588.049" font-family="Times,serif" font-size="14.00">0..*</text>
</g>
<!-- Thing&#45;&gt;Form -->
<g id="edge11" class="edge"><title>Thing&#45;&gt;Form</title>
<path fill="none" stroke="black" d="M685.898,-725.122C571.512,-714.03 406.048,-686.296 278.5,-617 159.542,-552.371 154.023,-374.56 162.844,-266.553"/>
<polygon fill="black" stroke="black" points="166.354,-266.591 163.739,-256.324 159.38,-265.981 166.354,-266.591"/>
<text text-anchor="start" x="171.5" y="-441.8" font-family="mono" font-size="14.00" fill="#c83500">forms</text>
<text text-anchor="middle" x="152.739" y="-260.124" font-family="Times,serif" font-size="14.00">0..*</text>
</g>
<!-- Property -->
<g id="node6" class="node"><title>Property</title>
<polygon fill="#8ccbf2" stroke="none" points="281.5,-527.5 281.5,-548.5 554.5,-548.5 554.5,-527.5 281.5,-527.5"/>
<polygon fill="none" stroke="#8ccbf2" points="281.5,-527.5 281.5,-548.5 554.5,-548.5 554.5,-527.5 281.5,-527.5"/>
<text text-anchor="start" x="384.5" y="-535.3" font-family="mono" font-weight="bold" font-size="14.00" fill="#c83500">Property</text>
<polygon fill="#ddeeff" stroke="none" points="281.5,-506.5 281.5,-527.5 554.5,-527.5 554.5,-506.5 281.5,-506.5"/>
<polygon fill="none" stroke="#8ccbf2" points="281.5,-506.5 281.5,-527.5 554.5,-527.5 554.5,-506.5 281.5,-506.5"/>
<text text-anchor="start" x="284.5" y="-514.3" font-family="mono" font-size="14.00" fill="#c83500">observable</text>
<text text-anchor="start" x="367.5" y="-514.3" font-family="Times,serif" font-size="14.00"> : </text>
<text text-anchor="start" x="379.5" y="-514.3" font-family="mono" font-size="14.00" fill="#c83500">boolean</text>
<text text-anchor="start" x="437.5" y="-514.3" font-family="Times,serif" font-size="14.00"> = false </text>
<text text-anchor="start" x="483.5" y="-514.3" font-family="Times,serif" font-style="italic" font-size="14.00">(mandatory)</text>
</g>
<!-- Thing&#45;&gt;Property -->
<g id="edge10" class="edge"><title>Thing&#45;&gt;Property</title>
<path fill="none" stroke="black" d="M685.747,-664.287C613.717,-627.826 528.859,-584.87 474.175,-557.189"/>
<polygon fill="black" stroke="black" points="475.499,-553.936 464.996,-552.543 472.337,-560.182 475.499,-553.936"/>
<text text-anchor="start" x="583.5" y="-605.8" font-family="mono" font-size="14.00" fill="#c83500">properties</text>
<text text-anchor="middle" x="453.996" y="-556.343" font-family="Times,serif" font-size="14.00">0..1</text>
</g>
<!-- Action -->
<g id="node8" class="node"><title>Action</title>
<polygon fill="#8ccbf2" stroke="none" points="588.5,-537.5 588.5,-558.5 861.5,-558.5 861.5,-537.5 588.5,-537.5"/>
<polygon fill="none" stroke="#8ccbf2" points="588.5,-537.5 588.5,-558.5 861.5,-558.5 861.5,-537.5 588.5,-537.5"/>
<text text-anchor="start" x="700" y="-545.3" font-family="mono" font-weight="bold" font-size="14.00" fill="#c83500">Action</text>
<polygon fill="#ddeeff" stroke="none" points="588.5,-516.5 588.5,-537.5 861.5,-537.5 861.5,-516.5 588.5,-516.5"/>
<polygon fill="none" stroke="#8ccbf2" points="588.5,-516.5 588.5,-537.5 861.5,-537.5 861.5,-516.5 588.5,-516.5"/>
<text text-anchor="start" x="591.5" y="-524.3" font-family="mono" font-size="14.00" fill="#c83500">safe</text>
<text text-anchor="start" x="625.5" y="-524.3" font-family="Times,serif" font-size="14.00"> : </text>
<text text-anchor="start" x="637.5" y="-524.3" font-family="mono" font-size="14.00" fill="#c83500">boolean</text>
<text text-anchor="start" x="695.5" y="-524.3" font-family="Times,serif" font-size="14.00"> = false </text>
<text text-anchor="start" x="741.5" y="-524.3" font-family="Times,serif" font-style="italic" font-size="14.00">(mandatory)</text>
<polygon fill="#ddeeff" stroke="none" points="588.5,-495.5 588.5,-516.5 861.5,-516.5 861.5,-495.5 588.5,-495.5"/>
<polygon fill="none" stroke="#8ccbf2" points="588.5,-495.5 588.5,-516.5 861.5,-516.5 861.5,-495.5 588.5,-495.5"/>
<text text-anchor="start" x="591.5" y="-503.3" font-family="mono" font-size="14.00" fill="#c83500">idempotent</text>
<text text-anchor="start" x="674.5" y="-503.3" font-family="Times,serif" font-size="14.00"> : </text>
<text text-anchor="start" x="686.5" y="-503.3" font-family="mono" font-size="14.00" fill="#c83500">boolean</text>
<text text-anchor="start" x="744.5" y="-503.3" font-family="Times,serif" font-size="14.00"> = false </text>
<text text-anchor="start" x="790.5" y="-503.3" font-family="Times,serif" font-style="italic" font-size="14.00">(mandatory)</text>
</g>
<!-- Thing&#45;&gt;Action -->
<g id="edge12" class="edge"><title>Thing&#45;&gt;Action</title>
<path fill="none" stroke="black" d="M774.609,-634.981C764.264,-612.998 753.788,-590.737 745.108,-572.293"/>
<polygon fill="black" stroke="black" points="748.168,-570.575 740.744,-563.017 741.835,-573.556 748.168,-570.575"/>
<text text-anchor="start" x="764.5" y="-605.8" font-family="mono" font-size="14.00" fill="#c83500">actions</text>
<text text-anchor="middle" x="729.744" y="-566.817" font-family="Times,serif" font-size="14.00">0..1</text>
</g>
<!-- Event -->
<g id="node9" class="node"><title>Event</title>
<polygon fill="#8ccbf2" stroke="none" points="894.5,-516.5 894.5,-537.5 942.5,-537.5 942.5,-516.5 894.5,-516.5"/>
<polygon fill="none" stroke="#8ccbf2" points="894.5,-516.5 894.5,-537.5 942.5,-537.5 942.5,-516.5 894.5,-516.5"/>
<text text-anchor="start" x="897.5" y="-524.3" font-family="mono" font-weight="bold" font-size="14.00" fill="#c83500">Event</text>
</g>
<!-- Thing&#45;&gt;Event -->
<g id="edge6" class="edge"><title>Thing&#45;&gt;Event</title>
<path fill="none" stroke="black" d="M867.347,-634.981C881.537,-605.444 895.967,-575.405 905.867,-554.797"/>
<polygon fill="black" stroke="black" points="909.036,-556.284 910.211,-545.755 902.726,-553.253 909.036,-556.284"/>
<text text-anchor="start" x="881.5" y="-605.8" font-family="mono" font-size="14.00" fill="#c83500">events</text>
<text text-anchor="middle" x="899.211" y="-549.555" font-family="Times,serif" font-size="14.00">0..1</text>
</g>
<!-- Versioning -->
<g id="node10" class="node"><title>Versioning</title>
<polygon fill="#8ccbf2" stroke="none" points="1185.5,-527.5 1185.5,-548.5 1392.5,-548.5 1392.5,-527.5 1185.5,-527.5"/>
<polygon fill="none" stroke="#8ccbf2" points="1185.5,-527.5 1185.5,-548.5 1392.5,-548.5 1392.5,-527.5 1185.5,-527.5"/>
<text text-anchor="start" x="1247.5" y="-535.3" font-family="mono" font-weight="bold" font-size="14.00" fill="#c83500">Versioning</text>
<polygon fill="#ddeeff" stroke="none" points="1185.5,-506.5 1185.5,-527.5 1392.5,-527.5 1392.5,-506.5 1185.5,-506.5"/>
<polygon fill="none" stroke="#8ccbf2" points="1185.5,-506.5 1185.5,-527.5 1392.5,-527.5 1392.5,-506.5 1185.5,-506.5"/>
<text text-anchor="start" x="1188.5" y="-514.3" font-family="mono" font-size="14.00" fill="#c83500">instance</text>
<text text-anchor="start" x="1255.5" y="-514.3" font-family="Times,serif" font-size="14.00"> : </text>
<text text-anchor="start" x="1267.5" y="-514.3" font-family="mono" font-size="14.00" fill="#c83500">string</text>
<text text-anchor="start" x="1317.5" y="-514.3" font-family="Times,serif" font-size="14.00"> </text>
<text text-anchor="start" x="1321.5" y="-514.3" font-family="Times,serif" font-style="italic" font-size="14.00">(mandatory)</text>
</g>
<!-- Thing&#45;&gt;Versioning -->
<g id="edge9" class="edge"><title>Thing&#45;&gt;Versioning</title>
<path fill="none" stroke="black" d="M955.147,-675.827C1019.58,-648.467 1097.71,-614.934 1167.5,-584 1187.11,-575.308 1208.41,-565.624 1227.59,-556.809"/>
<polygon fill="black" stroke="black" points="1229.2,-559.921 1236.82,-552.56 1226.27,-553.563 1229.2,-559.921"/>
<text text-anchor="start" x="1121.5" y="-605.8" font-family="mono" font-size="14.00" fill="#c83500">version</text>
<text text-anchor="middle" x="1225.82" y="-556.36" font-family="Times,serif" font-size="14.00">0..1</text>
</g>
<!-- SecurityScheme -->
<g id="node12" class="node"><title>SecurityScheme</title>
<polygon fill="#f2f2f2" stroke="none" points="1426.5,-516.5 1426.5,-537.5 1548.5,-537.5 1548.5,-516.5 1426.5,-516.5"/>
<polygon fill="none" stroke="#8c8c8c" points="1426.5,-516.5 1426.5,-537.5 1548.5,-537.5 1548.5,-516.5 1426.5,-516.5"/>
<text text-anchor="start" x="1429.5" y="-524.3" font-family="mono" font-weight="bold" font-size="14.00">SecurityScheme</text>
</g>
<!-- Thing&#45;&gt;SecurityScheme -->
<g id="edge13" class="edge"><title>Thing&#45;&gt;SecurityScheme</title>
<path fill="none" stroke="black" d="M955.066,-712.901C1077.37,-691.785 1260.75,-651.743 1408.5,-584 1426.71,-575.649 1445.14,-562.996 1459.61,-551.879"/>
<polygon fill="black" stroke="black" points="1461.96,-554.491 1467.65,-545.555 1457.62,-548.991 1461.96,-554.491"/>
<text text-anchor="start" x="1363.5" y="-605.8" font-family="mono" font-size="14.00" fill="#c83500">securityDefinitions</text>
<text text-anchor="middle" x="1456.65" y="-549.355" font-family="Times,serif" font-size="14.00">0..1</text>
</g>
<!-- Property&#45;&gt;InteractionPattern -->
<g id="edge21" class="edge"><title>Property&#45;&gt;InteractionPattern</title>
<path fill="none" stroke="black" d="M419.746,-502.247C421.513,-483.156 424.064,-455.613 426.42,-430.165"/>
<polygon fill="white" stroke="black" points="429.909,-430.447 427.346,-420.167 422.938,-429.802 429.909,-430.447"/>
</g>
<!-- Action&#45;&gt;InteractionPattern -->
<g id="edge19" class="edge"><title>Action&#45;&gt;InteractionPattern</title>
<path fill="none" stroke="black" d="M662.217,-491.946C626.717,-472.25 581.243,-447.022 540.136,-424.216"/>
<polygon fill="white" stroke="black" points="541.606,-421.029 531.163,-419.238 538.21,-427.15 541.606,-421.029"/>
</g>
<!-- Action&#45;&gt;DataSchema -->
<g id="edge14" class="edge"><title>Action&#45;&gt;DataSchema</title>
<path fill="none" stroke="black" d="M707.034,-491.65C687.382,-447.485 661.077,-369.578 684.5,-307 700.444,-264.405 737.76,-226.658 764.73,-203.498"/>
<polygon fill="black" stroke="black" points="767.318,-205.896 772.733,-196.789 762.821,-200.531 767.318,-205.896"/>
<text text-anchor="start" x="684.5" y="-359.8" font-family="mono" font-size="14.00" fill="#c83500">output</text>
<text text-anchor="middle" x="761.733" y="-200.589" font-family="Times,serif" font-size="14.00">0..1</text>
</g>
<!-- Action&#45;&gt;DataSchema -->
<g id="edge15" class="edge"><title>Action&#45;&gt;DataSchema</title>
<path fill="none" stroke="black" d="M731.567,-491.96C745.692,-422.926 777.148,-269.19 789.935,-206.699"/>
<polygon fill="black" stroke="black" points="793.384,-207.303 791.959,-196.804 786.526,-205.9 793.384,-207.303"/>
<text text-anchor="start" x="769.5" y="-359.8" font-family="mono" font-size="14.00" fill="#c83500">input</text>
<text text-anchor="middle" x="802.959" y="-200.604" font-family="Times,serif" font-size="14.00">0..1</text>
</g>
<!-- Event&#45;&gt;InteractionPattern -->
<g id="edge20" class="edge"><title>Event&#45;&gt;InteractionPattern</title>
<path fill="none" stroke="black" d="M910.126,-509.328C903.124,-496.793 891.959,-480.408 877.5,-471 855.65,-456.783 673.849,-426.078 648.5,-420 613.546,-411.62 575.538,-402.019 541.287,-393.184"/>
<polygon fill="white" stroke="black" points="541.819,-389.707 531.261,-390.593 540.067,-396.484 541.819,-389.707"/>
</g>
<!-- Event&#45;&gt;DataSchema -->
<g id="edge16" class="edge"><title>Event&#45;&gt;DataSchema</title>
<path fill="none" stroke="black" d="M906,-509.184C888.053,-484.049 856.283,-438.45 848.5,-420 817.5,-346.513 803.536,-252.421 798.241,-206.775"/>
<polygon fill="black" stroke="black" points="801.712,-206.319 797.131,-196.766 794.755,-207.091 801.712,-206.319"/>
<text text-anchor="start" x="848.5" y="-359.8" font-family="mono" font-size="14.00" fill="#c83500">subscription</text>
<text text-anchor="middle" x="786.131" y="-200.566" font-family="Times,serif" font-size="14.00">0..1</text>
</g>
<!-- Event&#45;&gt;DataSchema -->
<g id="edge17" class="edge"><title>Event&#45;&gt;DataSchema</title>
<path fill="none" stroke="black" d="M926.995,-509.298C944.647,-470.975 981.046,-376.487 948.5,-307 926.124,-259.227 876.075,-223.11 839.286,-201.725"/>
<polygon fill="black" stroke="black" points="840.67,-198.487 830.244,-196.607 837.223,-204.579 840.67,-198.487"/>
<text text-anchor="start" x="962.5" y="-359.8" font-family="mono" font-size="14.00" fill="#c83500">cancellation</text>
<text text-anchor="middle" x="841.244" y="-200.407" font-family="Times,serif" font-size="14.00">0..1</text>
</g>
<!-- Event&#45;&gt;DataSchema -->
<g id="edge18" class="edge"><title>Event&#45;&gt;DataSchema</title>
<path fill="none" stroke="black" d="M927.999,-509.469C935.355,-497.492 946.469,-481.747 959.5,-471 1000.14,-437.48 1038.38,-464.55 1066.5,-420 1093.31,-377.529 1093.41,-349.403 1066.5,-307 1020.94,-235.222 923.035,-203.121 858.229,-189.295"/>
<polygon fill="black" stroke="black" points="858.624,-185.803 848.126,-187.23 857.222,-192.662 858.624,-185.803"/>
<text text-anchor="start" x="1087.5" y="-359.8" font-family="mono" font-size="14.00" fill="#c83500">data</text>
<text text-anchor="middle" x="859.126" y="-176.03" font-family="Times,serif" font-size="14.00">0..1</text>
</g>
</g>
</svg>
