<?xml version="1.0" encoding="UTF-8" standalone="no"?>
<!DOCTYPE svg PUBLIC "-//W3C//DTD SVG 1.1//EN"
 "http://www.w3.org/Graphics/SVG/1.1/DTD/svg11.dtd">
<!-- Generated by graphviz version 2.38.0 (20140413.2041)
 -->
<!-- Title: %3 Pages: 1 -->
<svg width="1241pt" height="578pt"
 viewBox="0.00 0.00 1241.00 578.00" xmlns="http://www.w3.org/2000/svg" xmlns:xlink="http://www.w3.org/1999/xlink">
<g id="graph0" class="graph" transform="scale(1 1) rotate(0) translate(4 574)">
<title>%3</title>
<polygon fill="white" stroke="none" points="-4,4 -4,-574 1237,-574 1237,4 -4,4"/>
<!-- MultiLanguage -->
<g id="node1" class="node"><title>MultiLanguage</title>
<polygon fill="#8ccbf2" stroke="none" points="88,-7 88,-28 202,-28 202,-7 88,-7"/>
<polygon fill="none" stroke="#8ccbf2" points="88,-7 88,-28 202,-28 202,-7 88,-7"/>
<text text-anchor="start" x="91" y="-14.8" font-family="mono" font-weight="bold" font-size="14.00" fill="#c83500">MultiLanguage</text>
</g>
<!-- Thing -->
<g id="node2" class="node"><title>Thing</title>
<polygon fill="#8ccbf2" stroke="none" points="451,-544.5 451,-565.5 713,-565.5 713,-544.5 451,-544.5"/>
<polygon fill="none" stroke="#8ccbf2" points="451,-544.5 451,-565.5 713,-565.5 713,-544.5 451,-544.5"/>
<text text-anchor="start" x="561" y="-552.3" font-family="mono" font-weight="bold" font-size="14.00" fill="#c83500">Thing</text>
<polygon fill="#ddeeff" stroke="none" points="451,-523.5 451,-544.5 713,-544.5 713,-523.5 451,-523.5"/>
<polygon fill="none" stroke="#8ccbf2" points="451,-523.5 451,-544.5 713,-544.5 713,-523.5 451,-523.5"/>
<text text-anchor="start" x="454" y="-531.3" font-family="mono" font-size="14.00" fill="#c83500">@context</text>
<text text-anchor="start" x="521" y="-531.3" font-family="Times,serif" font-size="14.00"> : </text>
<text text-anchor="start" x="533" y="-531.3" font-family="Times,serif" font-style="italic" font-size="14.00">string or array</text>
<text text-anchor="start" x="615" y="-531.3" font-family="Times,serif" font-size="14.00"> </text>
<text text-anchor="start" x="619" y="-531.3" font-family="Times,serif" font-style="italic" font-size="14.00">(mandatory)</text>
<polygon fill="#ddeeff" stroke="none" points="451,-502.5 451,-523.5 713,-523.5 713,-502.5 451,-502.5"/>
<polygon fill="none" stroke="#8ccbf2" points="451,-502.5 451,-523.5 713,-523.5 713,-502.5 451,-502.5"/>
<text text-anchor="start" x="454" y="-510.3" font-family="mono" font-size="14.00" fill="#c83500">@type</text>
<text text-anchor="start" x="496" y="-510.3" font-family="Times,serif" font-size="14.00"> : </text>
<text text-anchor="start" x="508" y="-510.3" font-family="Times,serif" font-style="italic" font-size="14.00">(array of) </text>
<text text-anchor="start" x="566" y="-510.3" font-family="mono" font-size="14.00" fill="#c83500">string</text>
<polygon fill="#ddeeff" stroke="none" points="451,-481.5 451,-502.5 713,-502.5 713,-481.5 451,-481.5"/>
<polygon fill="none" stroke="#8ccbf2" points="451,-481.5 451,-502.5 713,-502.5 713,-481.5 451,-481.5"/>
<text text-anchor="start" x="454" y="-489.3" font-family="mono" font-size="14.00" fill="#c83500">id</text>
<text text-anchor="start" x="471" y="-489.3" font-family="Times,serif" font-size="14.00"> : </text>
<text text-anchor="start" x="483" y="-489.3" font-family="mono" font-size="14.00" fill="#c83500">anyURI</text>
<text text-anchor="start" x="533" y="-489.3" font-family="Times,serif" font-size="14.00"> </text>
<text text-anchor="start" x="537" y="-489.3" font-family="Times,serif" font-style="italic" font-size="14.00">(mandatory)</text>
<polygon fill="#ddeeff" stroke="none" points="451,-460.5 451,-481.5 713,-481.5 713,-460.5 451,-460.5"/>
<polygon fill="none" stroke="#8ccbf2" points="451,-460.5 451,-481.5 713,-481.5 713,-460.5 451,-460.5"/>
<text text-anchor="start" x="454" y="-468.3" font-family="mono" font-size="14.00" fill="#c83500">name</text>
<text text-anchor="start" x="488" y="-468.3" font-family="Times,serif" font-size="14.00"> : </text>
<text text-anchor="start" x="500" y="-468.3" font-family="mono" font-size="14.00" fill="#c83500">string</text>
<text text-anchor="start" x="550" y="-468.3" font-family="Times,serif" font-size="14.00"> </text>
<text text-anchor="start" x="554" y="-468.3" font-family="Times,serif" font-style="italic" font-size="14.00">(mandatory)</text>
<polygon fill="#ddeeff" stroke="none" points="451,-439.5 451,-460.5 713,-460.5 713,-439.5 451,-439.5"/>
<polygon fill="none" stroke="#8ccbf2" points="451,-439.5 451,-460.5 713,-460.5 713,-439.5 451,-439.5"/>
<text text-anchor="start" x="454" y="-447.3" font-family="mono" font-size="14.00" fill="#c83500">created</text>
<text text-anchor="start" x="512" y="-447.3" font-family="Times,serif" font-size="14.00"> : </text>
<text text-anchor="start" x="524" y="-447.3" font-family="mono" font-size="14.00" fill="#c83500">dateTime</text>
<polygon fill="#ddeeff" stroke="none" points="451,-418.5 451,-439.5 713,-439.5 713,-418.5 451,-418.5"/>
<polygon fill="none" stroke="#8ccbf2" points="451,-418.5 451,-439.5 713,-439.5 713,-418.5 451,-418.5"/>
<text text-anchor="start" x="454" y="-426.3" font-family="mono" font-size="14.00" fill="#c83500">description</text>
<text text-anchor="start" x="545" y="-426.3" font-family="Times,serif" font-size="14.00"> : </text>
<text text-anchor="start" x="557" y="-426.3" font-family="mono" font-size="14.00" fill="#c83500">string</text>
<polygon fill="#ddeeff" stroke="none" points="451,-397.5 451,-418.5 713,-418.5 713,-397.5 451,-397.5"/>
<polygon fill="none" stroke="#8ccbf2" points="451,-397.5 451,-418.5 713,-418.5 713,-397.5 451,-397.5"/>
<text text-anchor="start" x="454" y="-405.3" font-family="mono" font-size="14.00" fill="#c83500">support</text>
<text text-anchor="start" x="512" y="-405.3" font-family="Times,serif" font-size="14.00"> : </text>
<text text-anchor="start" x="524" y="-405.3" font-family="mono" font-size="14.00" fill="#c83500">string</text>
<polygon fill="#ddeeff" stroke="none" points="451,-376.5 451,-397.5 713,-397.5 713,-376.5 451,-376.5"/>
<polygon fill="none" stroke="#8ccbf2" points="451,-376.5 451,-397.5 713,-397.5 713,-376.5 451,-376.5"/>
<text text-anchor="start" x="454" y="-384.3" font-family="mono" font-size="14.00" fill="#c83500">modified</text>
<text text-anchor="start" x="521" y="-384.3" font-family="Times,serif" font-size="14.00"> : </text>
<text text-anchor="start" x="533" y="-384.3" font-family="mono" font-size="14.00" fill="#c83500">dateTime</text>
<polygon fill="#ddeeff" stroke="none" points="451,-355.5 451,-376.5 713,-376.5 713,-355.5 451,-355.5"/>
<polygon fill="none" stroke="#8ccbf2" points="451,-355.5 451,-376.5 713,-376.5 713,-355.5 451,-355.5"/>
<text text-anchor="start" x="454" y="-363.3" font-family="mono" font-size="14.00" fill="#c83500">base</text>
<text text-anchor="start" x="488" y="-363.3" font-family="Times,serif" font-size="14.00"> : </text>
<text text-anchor="start" x="500" y="-363.3" font-family="mono" font-size="14.00" fill="#c83500">anyURI</text>
<polygon fill="#ddeeff" stroke="none" points="451,-334.5 451,-355.5 713,-355.5 713,-334.5 451,-334.5"/>
<polygon fill="none" stroke="#8ccbf2" points="451,-334.5 451,-355.5 713,-355.5 713,-334.5 451,-334.5"/>
<text text-anchor="start" x="454" y="-342.3" font-family="mono" font-size="14.00" fill="#c83500">security</text>
<text text-anchor="start" x="521" y="-342.3" font-family="Times,serif" font-size="14.00"> : (array of) </text>
<text text-anchor="start" x="588" y="-342.3" font-family="mono" font-size="14.00" fill="#c83500">string</text>
<text text-anchor="start" x="638" y="-342.3" font-family="Times,serif" font-size="14.00"> </text>
<text text-anchor="start" x="642" y="-342.3" font-family="Times,serif" font-style="italic" font-size="14.00">(mandatory)</text>
</g>
<!-- Thing&#45;&gt;MultiLanguage -->
<g id="edge1" class="edge"><title>Thing&#45;&gt;MultiLanguage</title>
<path fill="none" stroke="black" d="M442.835,-433.706C343.969,-414.642 216.97,-372.61 148,-280 95.7098,-209.787 120.633,-96.9077 136.01,-45.7446"/>
<polygon fill="black" stroke="black" points="139.387,-46.6717 139.024,-36.0831 132.705,-44.5871 139.387,-46.6717"/>
<text text-anchor="start" x="118" y="-179.8" font-family="mono" font-size="14.00" fill="#c83500">descriptions</text>
<text text-anchor="middle" x="128.024" y="-39.8831" font-family="Times,serif" font-size="14.00">0..1</text>
</g>
<!-- PropertyAffordance -->
<g id="node3" class="node"><title>PropertyAffordance</title>
<polygon fill="#8ccbf2" stroke="none" points="166,-244.5 166,-265.5 325,-265.5 325,-244.5 166,-244.5"/>
<polygon fill="none" stroke="#8ccbf2" points="166,-244.5 166,-265.5 325,-265.5 325,-244.5 166,-244.5"/>
<text text-anchor="start" x="171" y="-252.3" font-family="mono" font-weight="bold" font-size="14.00" fill="#c83500">PropertyAffordance</text>
<polygon fill="#ddeeff" stroke="none" points="166,-223.5 166,-244.5 325,-244.5 325,-223.5 166,-223.5"/>
<polygon fill="none" stroke="#8ccbf2" points="166,-223.5 166,-244.5 325,-244.5 325,-223.5 166,-223.5"/>
<text text-anchor="start" x="169" y="-231.3" font-family="mono" font-size="14.00" fill="#c83500">observable</text>
<text text-anchor="start" x="252" y="-231.3" font-family="Times,serif" font-size="14.00"> : </text>
<text text-anchor="start" x="264" y="-231.3" font-family="mono" font-size="14.00" fill="#c83500">boolean</text>
</g>
<!-- Thing&#45;&gt;PropertyAffordance -->
<g id="edge8" class="edge"><title>Thing&#45;&gt;PropertyAffordance</title>
<path fill="none" stroke="black" d="M442.984,-365.348C389.887,-333.206 332.759,-298.624 293.582,-274.908"/>
<polygon fill="black" stroke="black" points="295.378,-271.904 285.01,-269.72 291.753,-277.893 295.378,-271.904"/>
<text text-anchor="start" x="355" y="-301.8" font-family="mono" font-size="14.00" fill="#c83500">properties</text>
<text text-anchor="middle" x="274.01" y="-273.52" font-family="Times,serif" font-size="14.00">0..1</text>
</g>
<!-- VersionInfo -->
<g id="node4" class="node"><title>VersionInfo</title>
<polygon fill="#8ccbf2" stroke="none" points="789,-244.5 789,-265.5 996,-265.5 996,-244.5 789,-244.5"/>
<polygon fill="none" stroke="#8ccbf2" points="789,-244.5 789,-265.5 996,-265.5 996,-244.5 789,-244.5"/>
<text text-anchor="start" x="847" y="-252.3" font-family="mono" font-weight="bold" font-size="14.00" fill="#c83500">VersionInfo</text>
<polygon fill="#ddeeff" stroke="none" points="789,-223.5 789,-244.5 996,-244.5 996,-223.5 789,-223.5"/>
<polygon fill="none" stroke="#8ccbf2" points="789,-223.5 789,-244.5 996,-244.5 996,-223.5 789,-223.5"/>
<text text-anchor="start" x="792" y="-231.3" font-family="mono" font-size="14.00" fill="#c83500">instance</text>
<text text-anchor="start" x="859" y="-231.3" font-family="Times,serif" font-size="14.00"> : </text>
<text text-anchor="start" x="871" y="-231.3" font-family="mono" font-size="14.00" fill="#c83500">string</text>
<text text-anchor="start" x="921" y="-231.3" font-family="Times,serif" font-size="14.00"> </text>
<text text-anchor="start" x="925" y="-231.3" font-family="Times,serif" font-style="italic" font-size="14.00">(mandatory)</text>
</g>
<!-- Thing&#45;&gt;VersionInfo -->
<g id="edge4" class="edge"><title>Thing&#45;&gt;VersionInfo</title>
<path fill="none" stroke="black" d="M721.131,-357.943C766.492,-328.092 813.685,-297.036 846.95,-275.146"/>
<polygon fill="black" stroke="black" points="849.094,-277.925 855.523,-269.504 845.246,-272.077 849.094,-277.925"/>
<text text-anchor="start" x="809" y="-301.8" font-family="mono" font-size="14.00" fill="#c83500">version</text>
<text text-anchor="middle" x="844.523" y="-273.304" font-family="Times,serif" font-size="14.00">0..1</text>
</g>
<!-- ActionAffordance -->
<g id="node5" class="node"><title>ActionAffordance</title>
<polygon fill="#8ccbf2" stroke="none" points="359,-254.5 359,-275.5 590,-275.5 590,-254.5 359,-254.5"/>
<polygon fill="none" stroke="#8ccbf2" points="359,-254.5 359,-275.5 590,-275.5 590,-254.5 359,-254.5"/>
<text text-anchor="start" x="408" y="-262.3" font-family="mono" font-weight="bold" font-size="14.00" fill="#c83500">ActionAffordance</text>
<polygon fill="#ddeeff" stroke="none" points="359,-233.5 359,-254.5 590,-254.5 590,-233.5 359,-233.5"/>
<polygon fill="none" stroke="#8ccbf2" points="359,-233.5 359,-254.5 590,-254.5 590,-233.5 359,-233.5"/>
<text text-anchor="start" x="362" y="-241.3" font-family="mono" font-size="14.00" fill="#c83500">idempotent</text>
<text text-anchor="start" x="445" y="-241.3" font-family="Times,serif" font-size="14.00"> : </text>
<text text-anchor="start" x="457" y="-241.3" font-family="mono" font-size="14.00" fill="#c83500">boolean</text>
<text text-anchor="start" x="515" y="-241.3" font-family="Times,serif" font-size="14.00"> </text>
<text text-anchor="start" x="519" y="-241.3" font-family="Times,serif" font-style="italic" font-size="14.00">(mandatory)</text>
<polygon fill="#ddeeff" stroke="none" points="359,-212.5 359,-233.5 590,-233.5 590,-212.5 359,-212.5"/>
<polygon fill="none" stroke="#8ccbf2" points="359,-212.5 359,-233.5 590,-233.5 590,-212.5 359,-212.5"/>
<text text-anchor="start" x="362" y="-220.3" font-family="mono" font-size="14.00" fill="#c83500">safe</text>
<text text-anchor="start" x="396" y="-220.3" font-family="Times,serif" font-size="14.00"> : </text>
<text text-anchor="start" x="408" y="-220.3" font-family="mono" font-size="14.00" fill="#c83500">boolean</text>
<text text-anchor="start" x="466" y="-220.3" font-family="Times,serif" font-size="14.00"> </text>
<text text-anchor="start" x="470" y="-220.3" font-family="Times,serif" font-style="italic" font-size="14.00">(mandatory)</text>
</g>
<!-- Thing&#45;&gt;ActionAffordance -->
<g id="edge3" class="edge"><title>Thing&#45;&gt;ActionAffordance</title>
<path fill="none" stroke="black" d="M519.176,-330.832C511.41,-316.164 503.895,-301.969 497.296,-289.504"/>
<polygon fill="black" stroke="black" points="500.212,-287.53 492.439,-280.33 494.025,-290.805 500.212,-287.53"/>
<text text-anchor="start" x="509" y="-301.8" font-family="mono" font-size="14.00" fill="#c83500">actions</text>
<text text-anchor="middle" x="481.439" y="-284.13" font-family="Times,serif" font-size="14.00">0..1</text>
</g>
<!-- EventAffordance -->
<g id="node7" class="node"><title>EventAffordance</title>
<polygon fill="#8ccbf2" stroke="none" points="624,-233.5 624,-254.5 754,-254.5 754,-233.5 624,-233.5"/>
<polygon fill="none" stroke="#8ccbf2" points="624,-233.5 624,-254.5 754,-254.5 754,-233.5 624,-233.5"/>
<text text-anchor="start" x="627" y="-241.3" font-family="mono" font-weight="bold" font-size="14.00" fill="#c83500">EventAffordance</text>
</g>
<!-- Thing&#45;&gt;EventAffordance -->
<g id="edge6" class="edge"><title>Thing&#45;&gt;EventAffordance</title>
<path fill="none" stroke="black" d="M644.242,-330.832C655.893,-308.62 666.975,-287.492 675.197,-271.816"/>
<polygon fill="black" stroke="black" points="678.381,-273.281 679.926,-262.799 672.182,-270.029 678.381,-273.281"/>
<text text-anchor="start" x="661" y="-301.8" font-family="mono" font-size="14.00" fill="#c83500">events</text>
<text text-anchor="middle" x="668.926" y="-266.599" font-family="Times,serif" font-size="14.00">0..1</text>
</g>
<!-- Link -->
<g id="node8" class="node"><title>Link</title>
<polygon fill="#f2f2f2" stroke="none" points="1029,-233.5 1029,-254.5 1069,-254.5 1069,-233.5 1029,-233.5"/>
<polygon fill="none" stroke="#8c8c8c" points="1029,-233.5 1029,-254.5 1069,-254.5 1069,-233.5 1029,-233.5"/>
<text text-anchor="start" x="1032" y="-241.3" font-family="mono" font-weight="bold" font-size="14.00">Link</text>
</g>
<!-- Thing&#45;&gt;Link -->
<g id="edge2" class="edge"><title>Thing&#45;&gt;Link</title>
<path fill="none" stroke="black" d="M721.412,-409.321C808.786,-380.647 921.577,-337.065 1012,-280 1016.73,-277.012 1021.41,-273.372 1025.75,-269.592"/>
<polygon fill="black" stroke="black" points="1028.19,-272.1 1033.17,-262.743 1023.44,-266.958 1028.19,-272.1"/>
<text text-anchor="start" x="980" y="-301.8" font-family="mono" font-size="14.00" fill="#c83500">links</text>
<text text-anchor="middle" x="1022.17" y="-266.543" font-family="Times,serif" font-size="14.00">0..*</text>
</g>
<!-- SecurityScheme -->
<g id="node9" class="node"><title>SecurityScheme</title>
<polygon fill="#f2f2f2" stroke="none" points="1103,-233.5 1103,-254.5 1225,-254.5 1225,-233.5 1103,-233.5"/>
<polygon fill="none" stroke="#8c8c8c" points="1103,-233.5 1103,-254.5 1225,-254.5 1225,-233.5 1103,-233.5"/>
<text text-anchor="start" x="1106" y="-241.3" font-family="mono" font-weight="bold" font-size="14.00">SecurityScheme</text>
</g>
<!-- Thing&#45;&gt;SecurityScheme -->
<g id="edge5" class="edge"><title>Thing&#45;&gt;SecurityScheme</title>
<path fill="none" stroke="black" d="M721.425,-412.703C809.879,-387.878 926.072,-352.518 1026,-313 1059.61,-299.708 1096.31,-281.572 1123.41,-267.447"/>
<polygon fill="black" stroke="black" points="1125.35,-270.382 1132.57,-262.632 1122.09,-264.185 1125.35,-270.382"/>
<text text-anchor="start" x="1061" y="-301.8" font-family="mono" font-size="14.00" fill="#c83500">securityDefinitions</text>
<text text-anchor="middle" x="1121.57" y="-266.432" font-family="Times,serif" font-size="14.00">1..1</text>
</g>
<!-- Form -->
<g id="node10" class="node"><title>Form</title>
<polygon fill="#f2f2f2" stroke="none" points="8,-7 8,-28 48,-28 48,-7 8,-7"/>
<polygon fill="none" stroke="#8c8c8c" points="8,-7 8,-28 48,-28 48,-7 8,-7"/>
<text text-anchor="start" x="11" y="-14.8" font-family="mono" font-weight="bold" font-size="14.00">Form</text>
</g>
<!-- Thing&#45;&gt;Form -->
<g id="edge7" class="edge"><title>Thing&#45;&gt;Form</title>
<path fill="none" stroke="black" d="M442.823,-435.905C337.205,-417.975 196.82,-376.4 116,-280 56.772,-209.355 36.8435,-97.0931 30.6131,-45.96"/>
<polygon fill="black" stroke="black" points="34.0896,-45.5542 29.4823,-36.0136 27.1344,-46.345 34.0896,-45.5542"/>
<text text-anchor="start" x="66" y="-179.8" font-family="mono" font-size="14.00" fill="#c83500">forms</text>
<text text-anchor="middle" x="18.4823" y="-39.8136" font-family="Times,serif" font-size="14.00">0..*</text>
</g>
<!-- InteractionAffordance -->
<g id="node6" class="node"><title>InteractionAffordance</title>
<polygon fill="#8ccbf2" stroke="none" points="155,-132.5 155,-153.5 335,-153.5 335,-132.5 155,-132.5"/>
<polygon fill="none" stroke="#8ccbf2" points="155,-132.5 155,-153.5 335,-153.5 335,-132.5 155,-132.5"/>
<text text-anchor="start" x="158" y="-140.3" font-family="mono" font-weight="bold" font-size="14.00" fill="#c83500">InteractionAffordance</text>
<polygon fill="#ddeeff" stroke="none" points="155,-111.5 155,-132.5 335,-132.5 335,-111.5 155,-111.5"/>
<polygon fill="none" stroke="#8ccbf2" points="155,-111.5 155,-132.5 335,-132.5 335,-111.5 155,-111.5"/>
<text text-anchor="start" x="158" y="-119.3" font-family="mono" font-size="14.00" fill="#c83500">description</text>
<text text-anchor="start" x="249" y="-119.3" font-family="Times,serif" font-size="14.00"> : </text>
<text text-anchor="start" x="261" y="-119.3" font-family="mono" font-size="14.00" fill="#c83500">string</text>
<polygon fill="#ddeeff" stroke="none" points="155,-90.5 155,-111.5 335,-111.5 335,-90.5 155,-90.5"/>
<polygon fill="none" stroke="#8ccbf2" points="155,-90.5 155,-111.5 335,-111.5 335,-90.5 155,-90.5"/>
<text text-anchor="start" x="158" y="-98.3" font-family="mono" font-size="14.00" fill="#c83500">title</text>
<text text-anchor="start" x="200" y="-98.3" font-family="Times,serif" font-size="14.00"> : </text>
<text text-anchor="start" x="212" y="-98.3" font-family="mono" font-size="14.00" fill="#c83500">string</text>
</g>
<!-- PropertyAffordance&#45;&gt;InteractionAffordance -->
<g id="edge19" class="edge"><title>PropertyAffordance&#45;&gt;InteractionAffordance</title>
<path fill="none" stroke="black" d="M245,-219.216C245,-204.697 245,-185.792 245,-168.621"/>
<polygon fill="white" stroke="black" points="248.5,-168.209 245,-158.209 241.5,-168.209 248.5,-168.209"/>
</g>
<!-- DataSchema -->
<g id="node11" class="node"><title>DataSchema</title>
<polygon fill="#f2f2f2" stroke="none" points="515,-7 515,-28 604,-28 604,-7 515,-7"/>
<polygon fill="none" stroke="#8c8c8c" points="515,-7 515,-28 604,-28 604,-7 515,-7"/>
<text text-anchor="start" x="518" y="-14.8" font-family="mono" font-weight="bold" font-size="14.00">DataSchema</text>
</g>
<!-- PropertyAffordance&#45;&gt;DataSchema -->
<g id="edge18" class="edge"><title>PropertyAffordance&#45;&gt;DataSchema</title>
<path fill="none" stroke="black" d="M275.262,-219.459C335.547,-171.646 466.761,-68.0048 489,-54 496.435,-49.3182 504.58,-44.7684 512.602,-40.5827"/>
<polygon fill="white" stroke="black" points="514.237,-43.678 521.563,-36.024 511.063,-37.439 514.237,-43.678"/>
</g>
<!-- ActionAffordance&#45;&gt;InteractionAffordance -->
<g id="edge20" class="edge"><title>ActionAffordance&#45;&gt;InteractionAffordance</title>
<path fill="none" stroke="black" d="M408.071,-208.952C380.529,-194.52 348.385,-177.676 319.951,-162.776"/>
<polygon fill="white" stroke="black" points="321.342,-159.553 310.86,-158.012 318.093,-165.754 321.342,-159.553"/>
</g>
<!-- ActionAffordance&#45;&gt;DataSchema -->
<g id="edge9" class="edge"><title>ActionAffordance&#45;&gt;DataSchema</title>
<path fill="none" stroke="black" d="M499.188,-208.713C509.068,-193.715 519.752,-175.602 527,-158 542.299,-120.843 551.06,-74.9432 555.425,-46.3129"/>
<polygon fill="black" stroke="black" points="558.914,-46.6389 556.887,-36.2399 551.987,-45.6335 558.914,-46.6389"/>
<text text-anchor="start" x="548" y="-118.8" font-family="mono" font-size="14.00" fill="#c83500">output</text>
<text text-anchor="middle" x="545.887" y="-40.0399" font-family="Times,serif" font-size="14.00">0..1</text>
</g>
<!-- ActionAffordance&#45;&gt;DataSchema -->
<g id="edge10" class="edge"><title>ActionAffordance&#45;&gt;DataSchema</title>
<path fill="none" stroke="black" d="M468.049,-208.959C464.035,-175.93 462.397,-125.585 481,-87 489.755,-68.8401 505.823,-53.5346 521.109,-42.0706"/>
<polygon fill="black" stroke="black" points="523.364,-44.7614 529.47,-36.1031 519.298,-39.0638 523.364,-44.7614"/>
<text text-anchor="start" x="481" y="-118.8" font-family="mono" font-size="14.00" fill="#c83500">input</text>
<text text-anchor="middle" x="518.47" y="-39.9031" font-family="Times,serif" font-size="14.00">0..1</text>
</g>
<!-- InteractionAffordance&#45;&gt;MultiLanguage -->
<g id="edge12" class="edge"><title>InteractionAffordance&#45;&gt;MultiLanguage</title>
<path fill="none" stroke="black" d="M223.175,-86.7235C215.34,-75.616 205.959,-63.6991 196,-54 191.712,-49.8242 186.874,-45.8078 181.929,-42.0791"/>
<polygon fill="black" stroke="black" points="183.75,-39.0781 173.582,-36.0985 179.672,-44.7682 183.75,-39.0781"/>
<text text-anchor="start" x="209" y="-57.8" font-family="mono" font-size="14.00" fill="#c83500">descriptions</text>
<text text-anchor="middle" x="162.582" y="-39.8985" font-family="Times,serif" font-size="14.00">0..1</text>
</g>
<!-- InteractionAffordance&#45;&gt;MultiLanguage -->
<g id="edge14" class="edge"><title>InteractionAffordance&#45;&gt;MultiLanguage</title>
<path fill="none" stroke="black" d="M157.258,-86.6713C151.323,-81.5337 146.089,-75.6745 142,-69 137.94,-62.3728 137.08,-54.2787 137.681,-46.5498"/>
<polygon fill="black" stroke="black" points="141.18,-46.8249 139.243,-36.4086 134.261,-45.7593 141.18,-46.8249"/>
<text text-anchor="start" x="142" y="-57.8" font-family="mono" font-size="14.00" fill="#c83500">titles</text>
<text text-anchor="middle" x="150.243" y="-40.2086" font-family="Times,serif" font-size="14.00">0..1</text>
</g>
<!-- InteractionAffordance&#45;&gt;Form -->
<g id="edge13" class="edge"><title>InteractionAffordance&#45;&gt;Form</title>
<path fill="none" stroke="black" d="M146.621,-93.1716C128.001,-86.3082 109.034,-78.2367 92,-69 78.6348,-61.7527 65.1741,-51.7399 54.0696,-42.5771"/>
<polygon fill="black" stroke="black" points="56.327,-39.9024 46.4352,-36.1071 51.8012,-45.2426 56.327,-39.9024"/>
<text text-anchor="start" x="92" y="-57.8" font-family="mono" font-size="14.00" fill="#c83500">forms</text>
<text text-anchor="middle" x="57.4352" y="-39.9071" font-family="Times,serif" font-size="14.00">1..*</text>
</g>
<!-- InteractionAffordance&#45;&gt;DataSchema -->
<g id="edge11" class="edge"><title>InteractionAffordance&#45;&gt;DataSchema</title>
<path fill="none" stroke="black" d="M290.655,-86.8322C310.197,-72.6114 331.014,-58.438 342,-54 391.566,-33.9761 451.866,-25.3865 496.309,-21.7131"/>
<polygon fill="black" stroke="black" points="496.69,-25.1942 506.393,-20.9411 496.155,-18.2147 496.69,-25.1942"/>
<text text-anchor="start" x="342" y="-57.8" font-family="mono" font-size="14.00" fill="#c83500">uriVariables</text>
<text text-anchor="middle" x="495.393" y="-24.7411" font-family="Times,serif" font-size="14.00">0..1</text>
</g>
<!-- EventAffordance&#45;&gt;InteractionAffordance -->
<g id="edge21" class="edge"><title>EventAffordance&#45;&gt;InteractionAffordance</title>
<path fill="none" stroke="black" d="M651.469,-226.391C637.395,-220.378 621.143,-213.905 606,-209 522.462,-181.941 425.513,-159.453 353.132,-144.343"/>
<polygon fill="white" stroke="black" points="353.588,-140.863 343.086,-142.26 352.167,-147.717 353.588,-140.863"/>
</g>
<!-- EventAffordance&#45;&gt;DataSchema -->
<g id="edge15" class="edge"><title>EventAffordance&#45;&gt;DataSchema</title>
<path fill="none" stroke="black" d="M679.912,-226.416C664.415,-197.454 631.669,-136.99 602,-87 593.625,-72.8881 583.88,-57.4073 575.788,-44.786"/>
<polygon fill="black" stroke="black" points="578.589,-42.6715 570.23,-36.1617 572.705,-46.4634 578.589,-42.6715"/>
<text text-anchor="start" x="643" y="-118.8" font-family="mono" font-size="14.00" fill="#c83500">data</text>
<text text-anchor="middle" x="581.23" y="-39.9617" font-family="Times,serif" font-size="14.00">0..1</text>
</g>
<!-- EventAffordance&#45;&gt;DataSchema -->
<g id="edge16" class="edge"><title>EventAffordance&#45;&gt;DataSchema</title>
<path fill="none" stroke="black" d="M693.125,-226.408C699.49,-195.835 708.312,-130.886 681,-87 667.318,-65.0156 643.822,-49.54 621.081,-38.9684"/>
<polygon fill="black" stroke="black" points="622.315,-35.6879 611.751,-34.8739 619.502,-42.0977 622.315,-35.6879"/>
<text text-anchor="start" x="700" y="-118.8" font-family="mono" font-size="14.00" fill="#c83500">cancellation</text>
<text text-anchor="middle" x="622.751" y="-38.6739" font-family="Times,serif" font-size="14.00">0..1</text>
</g>
<!-- EventAffordance&#45;&gt;DataSchema -->
<g id="edge17" class="edge"><title>EventAffordance&#45;&gt;DataSchema</title>
<path fill="none" stroke="black" d="M727.949,-226.365C754.724,-212.258 788.191,-189.454 804,-158 818.171,-129.805 823.098,-112.12 804,-87 782.001,-58.0637 686.912,-38.2155 621.877,-27.7379"/>
<polygon fill="black" stroke="black" points="622.136,-24.2356 611.713,-26.1368 621.046,-31.1504 622.136,-24.2356"/>
<text text-anchor="start" x="817" y="-118.8" font-family="mono" font-size="14.00" fill="#c83500">subscription</text>
<text text-anchor="middle" x="622.713" y="-14.9368" font-family="Times,serif" font-size="14.00">0..1</text>
</g>
</g>
</svg>
