<?xml version="1.0" encoding="UTF-8" standalone="no"?>
<!DOCTYPE svg PUBLIC "-//W3C//DTD SVG 1.1//EN"
 "http://www.w3.org/Graphics/SVG/1.1/DTD/svg11.dtd">
<!-- Generated by graphviz version 2.43.0 (0)
 -->
<!-- Title: %3 Pages: 1 -->
<svg width="1407pt" height="599pt"
 viewBox="0.00 0.00 1407.33 599.00" xmlns="http://www.w3.org/2000/svg" xmlns:xlink="http://www.w3.org/1999/xlink">
<g id="graph0" class="graph" transform="scale(1 1) rotate(0) translate(4 595)">
<title>%3</title>
<polygon fill="white" stroke="transparent" points="-4,4 -4,-595 1403.33,-595 1403.33,4 -4,4"/>
<!-- ActionAffordance -->
<g id="node1" class="node">
<title>ActionAffordance</title>
<polygon fill="#8ccbf2" stroke="transparent" points="401.33,-254.5 401.33,-275.5 562.33,-275.5 562.33,-254.5 401.33,-254.5"/>
<polygon fill="none" stroke="#8ccbf2" points="401.33,-254.5 401.33,-275.5 562.33,-275.5 562.33,-254.5 401.33,-254.5"/>
<text text-anchor="start" x="415.33" y="-262.3" font-family="mono" font-weight="bold" font-size="14.00" fill="#c83500">ActionAffordance</text>
<polygon fill="#ddeeff" stroke="transparent" points="401.33,-233.5 401.33,-254.5 562.33,-254.5 562.33,-233.5 401.33,-233.5"/>
<polygon fill="none" stroke="#8ccbf2" points="401.33,-233.5 401.33,-254.5 562.33,-254.5 562.33,-233.5 401.33,-233.5"/>
<text text-anchor="start" x="404.33" y="-241.3" font-family="mono" font-size="14.00" fill="#c83500">safe</text>
<text text-anchor="start" x="438.33" y="-241.3" font-family="Times,serif" font-size="14.00"> : </text>
<text text-anchor="start" x="452.33" y="-241.3" font-family="mono" font-size="14.00" fill="#c83500">boolean</text>
<polygon fill="#ddeeff" stroke="transparent" points="401.33,-212.5 401.33,-233.5 562.33,-233.5 562.33,-212.5 401.33,-212.5"/>
<polygon fill="none" stroke="#8ccbf2" points="401.33,-212.5 401.33,-233.5 562.33,-233.5 562.33,-212.5 401.33,-212.5"/>
<text text-anchor="start" x="404.33" y="-220.3" font-family="mono" font-size="14.00" fill="#c83500">idempotent</text>
<text text-anchor="start" x="487.33" y="-220.3" font-family="Times,serif" font-size="14.00"> : </text>
<text text-anchor="start" x="501.33" y="-220.3" font-family="mono" font-size="14.00" fill="#c83500">boolean</text>
</g>
<!-- InteractionAffordance -->
<g id="node3" class="node">
<title>InteractionAffordance</title>
<polygon fill="#8ccbf2" stroke="transparent" points="561.33,-132.5 561.33,-153.5 776.33,-153.5 776.33,-132.5 561.33,-132.5"/>
<polygon fill="none" stroke="#8ccbf2" points="561.33,-132.5 561.33,-153.5 776.33,-153.5 776.33,-132.5 561.33,-132.5"/>
<text text-anchor="start" x="581.83" y="-140.3" font-family="mono" font-weight="bold" font-size="14.00" fill="#c83500">InteractionAffordance</text>
<polygon fill="#ddeeff" stroke="transparent" points="561.33,-111.5 561.33,-132.5 776.33,-132.5 776.33,-111.5 561.33,-111.5"/>
<polygon fill="none" stroke="#8ccbf2" points="561.33,-111.5 561.33,-132.5 776.33,-132.5 776.33,-111.5 561.33,-111.5"/>
<text text-anchor="start" x="564.33" y="-119.3" font-family="mono" font-size="14.00" fill="#c83500">title</text>
<text text-anchor="start" x="606.33" y="-119.3" font-family="Times,serif" font-size="14.00"> : Map of </text>
<text text-anchor="start" x="674.33" y="-119.3" font-family="mono" font-size="14.00" fill="#c83500">string</text>
<polygon fill="#ddeeff" stroke="transparent" points="561.33,-90.5 561.33,-111.5 776.33,-111.5 776.33,-90.5 561.33,-90.5"/>
<polygon fill="none" stroke="#8ccbf2" points="561.33,-90.5 561.33,-111.5 776.33,-111.5 776.33,-90.5 561.33,-90.5"/>
<text text-anchor="start" x="564.33" y="-98.3" font-family="mono" font-size="14.00" fill="#c83500">description</text>
<text text-anchor="start" x="655.33" y="-98.3" font-family="Times,serif" font-size="14.00"> : Map of </text>
<text text-anchor="start" x="723.33" y="-98.3" font-family="mono" font-size="14.00" fill="#c83500">string</text>
</g>
<!-- ActionAffordance&#45;&gt;InteractionAffordance -->
<g id="edge20" class="edge">
<title>ActionAffordance&#45;&gt;InteractionAffordance</title>
<path fill="none" stroke="black" d="M535.16,-208.95C557.26,-194.77 582.99,-178.26 605.91,-163.55"/>
<polygon fill="white" stroke="black" points="608.02,-166.36 614.54,-158.01 604.24,-160.47 608.02,-166.36"/>
</g>
<!-- DataSchema -->
<g id="node10" class="node">
<title>DataSchema</title>
<polygon fill="#f2f2f2" stroke="transparent" points="289.33,-7 289.33,-28 378.33,-28 378.33,-7 289.33,-7"/>
<polygon fill="none" stroke="#8c8c8c" points="289.33,-7 289.33,-28 378.33,-28 378.33,-7 289.33,-7"/>
<text text-anchor="start" x="292.33" y="-14.8" font-family="mono" font-weight="bold" font-size="14.00">DataSchema</text>
</g>
<!-- ActionAffordance&#45;&gt;DataSchema -->
<g id="edge5" class="edge">
<title>ActionAffordance&#45;&gt;DataSchema</title>
<path fill="none" stroke="black" d="M455.91,-208.89C444.77,-193.46 431.68,-174.98 420.33,-158 394.45,-119.3 366.13,-73.33 349.05,-45.17"/>
<polygon fill="black" stroke="black" points="351.88,-43.08 343.71,-36.33 345.89,-46.7 351.88,-43.08"/>
<text text-anchor="start" x="420.33" y="-118.8" font-family="mono" font-size="14.00" fill="#c83500">input</text>
<text text-anchor="middle" x="357.71" y="-40.13" font-family="Times,serif" font-size="14.00">0..1</text>
</g>
<!-- ActionAffordance&#45;&gt;DataSchema -->
<g id="edge6" class="edge">
<title>ActionAffordance&#45;&gt;DataSchema</title>
<path fill="none" stroke="black" d="M485.82,-208.88C488.37,-174.85 487.09,-122.95 462.33,-87 446.41,-63.89 420.09,-48.05 395.36,-37.51"/>
<polygon fill="black" stroke="black" points="396.57,-34.22 385.99,-33.72 393.95,-40.71 396.57,-34.22"/>
<text text-anchor="start" x="486.33" y="-118.8" font-family="mono" font-size="14.00" fill="#c83500">output</text>
<text text-anchor="middle" x="399.99" y="-37.52" font-family="Times,serif" font-size="14.00">0..1</text>
</g>
<!-- EventAffordance -->
<g id="node2" class="node">
<title>EventAffordance</title>
<polygon fill="#8ccbf2" stroke="transparent" points="112.33,-233.5 112.33,-254.5 242.33,-254.5 242.33,-233.5 112.33,-233.5"/>
<polygon fill="none" stroke="#8ccbf2" points="112.33,-233.5 112.33,-254.5 242.33,-254.5 242.33,-233.5 112.33,-233.5"/>
<text text-anchor="start" x="115.33" y="-241.3" font-family="mono" font-weight="bold" font-size="14.00" fill="#c83500">EventAffordance</text>
</g>
<!-- EventAffordance&#45;&gt;InteractionAffordance -->
<g id="edge21" class="edge">
<title>EventAffordance&#45;&gt;InteractionAffordance</title>
<path fill="none" stroke="black" d="M250.51,-229.05C299.57,-219.08 365.52,-205.12 423.33,-191 462.44,-181.45 504.81,-170.13 543.13,-159.51"/>
<polygon fill="white" stroke="black" points="544.09,-162.88 552.78,-156.83 542.21,-156.13 544.09,-162.88"/>
</g>
<!-- EventAffordance&#45;&gt;DataSchema -->
<g id="edge7" class="edge">
<title>EventAffordance&#45;&gt;DataSchema</title>
<path fill="none" stroke="black" d="M109.21,-226.36C74.04,-213.68 34.22,-192.46 13.33,-158 -3.04,-131.02 -5.45,-112.36 13.33,-87 43.4,-46.37 186.38,-29.36 270.7,-22.77"/>
<polygon fill="black" stroke="black" points="270.97,-26.26 280.68,-22.02 270.45,-19.28 270.97,-26.26"/>
<text text-anchor="start" x="13.33" y="-118.8" font-family="mono" font-size="14.00" fill="#c83500">subscription</text>
<text text-anchor="middle" x="266.68" y="-25.82" font-family="Times,serif" font-size="14.00">0..1</text>
</g>
<!-- EventAffordance&#45;&gt;DataSchema -->
<g id="edge8" class="edge">
<title>EventAffordance&#45;&gt;DataSchema</title>
<path fill="none" stroke="black" d="M167.65,-226.12C152.38,-196.2 126.64,-133.67 149.33,-87 170.73,-42.95 226.15,-26.94 270.61,-21.35"/>
<polygon fill="black" stroke="black" points="271.22,-24.81 280.78,-20.23 270.46,-17.85 271.22,-24.81"/>
<text text-anchor="start" x="149.33" y="-118.8" font-family="mono" font-size="14.00" fill="#c83500">data</text>
<text text-anchor="middle" x="266.78" y="-9.03" font-family="Times,serif" font-size="14.00">0..1</text>
</g>
<!-- EventAffordance&#45;&gt;DataSchema -->
<g id="edge9" class="edge">
<title>EventAffordance&#45;&gt;DataSchema</title>
<path fill="none" stroke="black" d="M177.83,-226.16C179.56,-195.19 187.08,-129.63 219.33,-87 234.59,-66.82 257.74,-51.44 279.19,-40.45"/>
<polygon fill="black" stroke="black" points="280.82,-43.56 288.26,-36.01 277.74,-37.27 280.82,-43.56"/>
<text text-anchor="start" x="219.33" y="-118.8" font-family="mono" font-size="14.00" fill="#c83500">cancellation</text>
<text text-anchor="middle" x="302.26" y="-39.81" font-family="Times,serif" font-size="14.00">0..1</text>
</g>
<!-- MultiLanguage -->
<g id="node4" class="node">
<title>MultiLanguage</title>
<polygon fill="#8ccbf2" stroke="transparent" points="885.33,-7 885.33,-28 999.33,-28 999.33,-7 885.33,-7"/>
<polygon fill="none" stroke="#8ccbf2" points="885.33,-7 885.33,-28 999.33,-28 999.33,-7 885.33,-7"/>
<text text-anchor="start" x="888.33" y="-14.8" font-family="mono" font-weight="bold" font-size="14.00" fill="#c83500">MultiLanguage</text>
</g>
<!-- InteractionAffordance&#45;&gt;MultiLanguage -->
<g id="edge11" class="edge">
<title>InteractionAffordance&#45;&gt;MultiLanguage</title>
<path fill="none" stroke="black" d="M670.44,-86.81C672.95,-74.77 677.87,-62.23 687.33,-54 700.78,-42.29 796.62,-31.57 866.87,-25.16"/>
<polygon fill="black" stroke="black" points="867.38,-28.63 877.03,-24.25 866.76,-21.66 867.38,-28.63"/>
<text text-anchor="start" x="687.33" y="-57.8" font-family="mono" font-size="14.00" fill="#c83500">titletitles</text>
<text text-anchor="middle" x="864.53" y="-28.05" font-family="Times,serif" font-size="14.00">0..*</text>
</g>
<!-- InteractionAffordance&#45;&gt;MultiLanguage -->
<g id="edge13" class="edge">
<title>InteractionAffordance&#45;&gt;MultiLanguage</title>
<path fill="none" stroke="black" d="M760.71,-86.94C802.78,-71.2 851.15,-53.11 887.39,-39.55"/>
<polygon fill="black" stroke="black" points="888.67,-42.81 896.81,-36.03 886.21,-36.25 888.67,-42.81"/>
<text text-anchor="start" x="846.33" y="-57.8" font-family="mono" font-size="14.00" fill="#c83500">descriptiondescriptions</text>
<text text-anchor="middle" x="909.31" y="-39.83" font-family="Times,serif" font-size="14.00">0..*</text>
</g>
<!-- Form -->
<g id="node8" class="node">
<title>Form</title>
<polygon fill="#f2f2f2" stroke="transparent" points="706.33,-7 706.33,-28 746.33,-28 746.33,-7 706.33,-7"/>
<polygon fill="none" stroke="#8c8c8c" points="706.33,-7 706.33,-28 746.33,-28 746.33,-7 706.33,-7"/>
<text text-anchor="start" x="709.33" y="-14.8" font-family="mono" font-weight="bold" font-size="14.00">Form</text>
</g>
<!-- InteractionAffordance&#45;&gt;Form -->
<g id="edge1" class="edge">
<title>InteractionAffordance&#45;&gt;Form</title>
<path fill="none" stroke="black" d="M626.51,-86.93C618.51,-76.29 614.71,-64.6 622.33,-54 637.17,-33.34 664.83,-24.71 687.89,-21.18"/>
<polygon fill="black" stroke="black" points="688.62,-24.62 698.11,-19.89 687.75,-17.67 688.62,-24.62"/>
<text text-anchor="start" x="622.33" y="-57.8" font-family="mono" font-size="14.00" fill="#c83500">forms</text>
<text text-anchor="middle" x="685.61" y="-23.69" font-family="Times,serif" font-size="14.00">1..*</text>
</g>
<!-- InteractionAffordance&#45;&gt;DataSchema -->
<g id="edge16" class="edge">
<title>InteractionAffordance&#45;&gt;DataSchema</title>
<path fill="none" stroke="black" d="M564.54,-86.87C547.71,-81.04 530.5,-74.94 514.33,-69 497.28,-62.74 493.63,-59.5 476.33,-54 450.31,-45.72 421.11,-38.26 395.91,-32.37"/>
<polygon fill="black" stroke="black" points="396.63,-28.95 386.1,-30.11 395.06,-35.77 396.63,-28.95"/>
<text text-anchor="start" x="514.33" y="-57.8" font-family="mono" font-size="14.00" fill="#c83500">uriVariables</text>
<text text-anchor="middle" x="398.6" y="-18.91" font-family="Times,serif" font-size="14.00">0..*</text>
</g>
<!-- PropertyAffordance -->
<g id="node5" class="node">
<title>PropertyAffordance</title>
<polygon fill="#8ccbf2" stroke="transparent" points="596.33,-244.5 596.33,-265.5 757.33,-265.5 757.33,-244.5 596.33,-244.5"/>
<polygon fill="none" stroke="#8ccbf2" points="596.33,-244.5 596.33,-265.5 757.33,-265.5 757.33,-244.5 596.33,-244.5"/>
<text text-anchor="start" x="602.33" y="-252.3" font-family="mono" font-weight="bold" font-size="14.00" fill="#c83500">PropertyAffordance</text>
<polygon fill="#ddeeff" stroke="transparent" points="596.33,-223.5 596.33,-244.5 757.33,-244.5 757.33,-223.5 596.33,-223.5"/>
<polygon fill="none" stroke="#8ccbf2" points="596.33,-223.5 596.33,-244.5 757.33,-244.5 757.33,-223.5 596.33,-223.5"/>
<text text-anchor="start" x="599.33" y="-231.3" font-family="mono" font-size="14.00" fill="#c83500">observable</text>
<text text-anchor="start" x="682.33" y="-231.3" font-family="Times,serif" font-size="14.00"> : </text>
<text text-anchor="start" x="696.33" y="-231.3" font-family="mono" font-size="14.00" fill="#c83500">boolean</text>
</g>
<!-- PropertyAffordance&#45;&gt;InteractionAffordance -->
<g id="edge22" class="edge">
<title>PropertyAffordance&#45;&gt;InteractionAffordance</title>
<path fill="none" stroke="black" d="M674.71,-219.22C673.74,-204.7 672.48,-185.79 671.33,-168.62"/>
<polygon fill="white" stroke="black" points="674.8,-167.95 670.64,-158.21 667.81,-168.42 674.8,-167.95"/>
</g>
<!-- Thing -->
<g id="node6" class="node">
<title>Thing</title>
<polygon fill="#8ccbf2" stroke="transparent" points="716.33,-566 716.33,-587 1019.33,-587 1019.33,-566 716.33,-566"/>
<polygon fill="none" stroke="#8ccbf2" points="716.33,-566 716.33,-587 1019.33,-587 1019.33,-566 716.33,-566"/>
<text text-anchor="start" x="846.83" y="-573.8" font-family="mono" font-weight="bold" font-size="14.00" fill="#c83500">Thing</text>
<polygon fill="#ddeeff" stroke="transparent" points="716.33,-545 716.33,-566 1019.33,-566 1019.33,-545 716.33,-545"/>
<polygon fill="none" stroke="#8ccbf2" points="716.33,-545 716.33,-566 1019.33,-566 1019.33,-545 716.33,-545"/>
<text text-anchor="start" x="719.33" y="-552.8" font-family="mono" font-size="14.00" fill="#c83500">@context</text>
<text text-anchor="start" x="786.33" y="-552.8" font-family="Times,serif" font-size="14.00"> : </text>
<text text-anchor="start" x="800.33" y="-552.8" font-family="mono" font-style="italic" font-size="14.00" fill="#c83500">anyURI</text>
<text text-anchor="start" x="850.33" y="-552.8" font-family="Times,serif" font-style="italic" font-size="14.00"> or Array</text>
<text text-anchor="start" x="914.33" y="-552.8" font-family="Times,serif" font-size="14.00"> </text>
<text text-anchor="start" x="919.33" y="-552.8" font-family="Times,serif" font-style="italic" font-size="14.00">(mandatory)</text>
<polygon fill="#ddeeff" stroke="transparent" points="716.33,-524 716.33,-545 1019.33,-545 1019.33,-524 716.33,-524"/>
<polygon fill="none" stroke="#8ccbf2" points="716.33,-524 716.33,-545 1019.33,-545 1019.33,-524 716.33,-524"/>
<text text-anchor="start" x="719.33" y="-531.8" font-family="mono" font-size="14.00" fill="#c83500">@type</text>
<text text-anchor="start" x="761.33" y="-531.8" font-family="Times,serif" font-size="14.00"> : </text>
<text text-anchor="start" x="775.33" y="-531.8" font-family="Times,serif" font-style="italic" font-size="14.00">(Array of) </text>
<text text-anchor="start" x="848.33" y="-531.8" font-family="mono" font-size="14.00" fill="#c83500">string</text>
<polygon fill="#ddeeff" stroke="transparent" points="716.33,-503 716.33,-524 1019.33,-524 1019.33,-503 716.33,-503"/>
<polygon fill="none" stroke="#8ccbf2" points="716.33,-503 716.33,-524 1019.33,-524 1019.33,-503 716.33,-503"/>
<text text-anchor="start" x="719.33" y="-510.8" font-family="mono" font-size="14.00" fill="#c83500">id</text>
<text text-anchor="start" x="736.33" y="-510.8" font-family="Times,serif" font-size="14.00"> : </text>
<text text-anchor="start" x="750.33" y="-510.8" font-family="mono" font-size="14.00" fill="#c83500">anyURI</text>
<text text-anchor="start" x="800.33" y="-510.8" font-family="Times,serif" font-size="14.00"> </text>
<text text-anchor="start" x="805.33" y="-510.8" font-family="Times,serif" font-style="italic" font-size="14.00">(mandatory)</text>
<polygon fill="#ddeeff" stroke="transparent" points="716.33,-482 716.33,-503 1019.33,-503 1019.33,-482 716.33,-482"/>
<polygon fill="none" stroke="#8ccbf2" points="716.33,-482 716.33,-503 1019.33,-503 1019.33,-482 716.33,-482"/>
<text text-anchor="start" x="719.33" y="-489.8" font-family="mono" font-size="14.00" fill="#c83500">title</text>
<text text-anchor="start" x="761.33" y="-489.8" font-family="Times,serif" font-size="14.00"> : Map of </text>
<text text-anchor="start" x="829.33" y="-489.8" font-family="mono" font-size="14.00" fill="#c83500">string</text>
<text text-anchor="start" x="879.33" y="-489.8" font-family="Times,serif" font-size="14.00"> </text>
<text text-anchor="start" x="884.33" y="-489.8" font-family="Times,serif" font-style="italic" font-size="14.00">(mandatory)</text>
<polygon fill="#ddeeff" stroke="transparent" points="716.33,-461 716.33,-482 1019.33,-482 1019.33,-461 716.33,-461"/>
<polygon fill="none" stroke="#8ccbf2" points="716.33,-461 716.33,-482 1019.33,-482 1019.33,-461 716.33,-461"/>
<text text-anchor="start" x="719.33" y="-468.8" font-family="mono" font-size="14.00" fill="#c83500">description</text>
<text text-anchor="start" x="810.33" y="-468.8" font-family="Times,serif" font-size="14.00"> : Map of </text>
<text text-anchor="start" x="878.33" y="-468.8" font-family="mono" font-size="14.00" fill="#c83500">string</text>
<polygon fill="#ddeeff" stroke="transparent" points="716.33,-440 716.33,-461 1019.33,-461 1019.33,-440 716.33,-440"/>
<polygon fill="none" stroke="#8ccbf2" points="716.33,-440 716.33,-461 1019.33,-461 1019.33,-440 716.33,-440"/>
<text text-anchor="start" x="719.33" y="-447.8" font-family="mono" font-size="14.00" fill="#c83500">security</text>
<text text-anchor="start" x="786.33" y="-447.8" font-family="Times,serif" font-size="14.00"> : (Array of) </text>
<text text-anchor="start" x="873.33" y="-447.8" font-family="mono" font-size="14.00" fill="#c83500">string</text>
<text text-anchor="start" x="923.33" y="-447.8" font-family="Times,serif" font-size="14.00"> </text>
<text text-anchor="start" x="928.33" y="-447.8" font-family="Times,serif" font-style="italic" font-size="14.00">(mandatory)</text>
<polygon fill="#ddeeff" stroke="transparent" points="716.33,-419 716.33,-440 1019.33,-440 1019.33,-419 716.33,-419"/>
<polygon fill="none" stroke="#8ccbf2" points="716.33,-419 716.33,-440 1019.33,-440 1019.33,-419 716.33,-419"/>
<text text-anchor="start" x="719.33" y="-426.8" font-family="mono" font-size="14.00" fill="#c83500">profile</text>
<text text-anchor="start" x="777.33" y="-426.8" font-family="Times,serif" font-size="14.00"> : (Array of) </text>
<text text-anchor="start" x="864.33" y="-426.8" font-family="mono" font-size="14.00" fill="#c83500">anyURI</text>
<polygon fill="#ddeeff" stroke="transparent" points="716.33,-398 716.33,-419 1019.33,-419 1019.33,-398 716.33,-398"/>
<polygon fill="none" stroke="#8ccbf2" points="716.33,-398 716.33,-419 1019.33,-419 1019.33,-398 716.33,-398"/>
<text text-anchor="start" x="719.33" y="-405.8" font-family="mono" font-size="14.00" fill="#c83500">created</text>
<text text-anchor="start" x="777.33" y="-405.8" font-family="Times,serif" font-size="14.00"> : </text>
<text text-anchor="start" x="791.33" y="-405.8" font-family="mono" font-size="14.00" fill="#c83500">dateTime</text>
<polygon fill="#ddeeff" stroke="transparent" points="716.33,-377 716.33,-398 1019.33,-398 1019.33,-377 716.33,-377"/>
<polygon fill="none" stroke="#8ccbf2" points="716.33,-377 716.33,-398 1019.33,-398 1019.33,-377 716.33,-377"/>
<text text-anchor="start" x="719.33" y="-384.8" font-family="mono" font-size="14.00" fill="#c83500">modified</text>
<text text-anchor="start" x="786.33" y="-384.8" font-family="Times,serif" font-size="14.00"> : </text>
<text text-anchor="start" x="800.33" y="-384.8" font-family="mono" font-size="14.00" fill="#c83500">dateTime</text>
<polygon fill="#ddeeff" stroke="transparent" points="716.33,-356 716.33,-377 1019.33,-377 1019.33,-356 716.33,-356"/>
<polygon fill="none" stroke="#8ccbf2" points="716.33,-356 716.33,-377 1019.33,-377 1019.33,-356 716.33,-356"/>
<text text-anchor="start" x="719.33" y="-363.8" font-family="mono" font-size="14.00" fill="#c83500">support</text>
<text text-anchor="start" x="777.33" y="-363.8" font-family="Times,serif" font-size="14.00"> : </text>
<text text-anchor="start" x="791.33" y="-363.8" font-family="mono" font-size="14.00" fill="#c83500">anyURI</text>
<polygon fill="#ddeeff" stroke="transparent" points="716.33,-335 716.33,-356 1019.33,-356 1019.33,-335 716.33,-335"/>
<polygon fill="none" stroke="#8ccbf2" points="716.33,-335 716.33,-356 1019.33,-356 1019.33,-335 716.33,-335"/>
<text text-anchor="start" x="719.33" y="-342.8" font-family="mono" font-size="14.00" fill="#c83500">base</text>
<text text-anchor="start" x="753.33" y="-342.8" font-family="Times,serif" font-size="14.00"> : </text>
<text text-anchor="start" x="767.33" y="-342.8" font-family="mono" font-size="14.00" fill="#c83500">anyURI</text>
</g>
<!-- Thing&#45;&gt;ActionAffordance -->
<g id="edge18" class="edge">
<title>Thing&#45;&gt;ActionAffordance</title>
<path fill="none" stroke="black" d="M707.82,-371.36C653.84,-341.37 596.26,-309.37 552.66,-285.14"/>
<polygon fill="black" stroke="black" points="554.3,-282.05 543.86,-280.25 550.9,-288.16 554.3,-282.05"/>
<text text-anchor="start" x="596.33" y="-301.8" font-family="mono" font-size="14.00" fill="#c83500">actions</text>
<text text-anchor="middle" x="531.36" y="-284.05" font-family="Times,serif" font-size="14.00">0..*</text>
</g>
<!-- Thing&#45;&gt;EventAffordance -->
<g id="edge19" class="edge">
<title>Thing&#45;&gt;EventAffordance</title>
<path fill="none" stroke="black" d="M707.48,-439.34C540.04,-415.06 290.91,-370.67 214.33,-313 200.92,-302.91 191.77,-286.48 185.92,-272.36"/>
<polygon fill="black" stroke="black" points="189.04,-270.73 182.23,-262.61 182.49,-273.2 189.04,-270.73"/>
<text text-anchor="start" x="214.33" y="-301.8" font-family="mono" font-size="14.00" fill="#c83500">events</text>
<text text-anchor="middle" x="169.73" y="-266.41" font-family="Times,serif" font-size="14.00">0..*</text>
</g>
<!-- Thing&#45;&gt;MultiLanguage -->
<g id="edge12" class="edge">
<title>Thing&#45;&gt;MultiLanguage</title>
<path fill="none" stroke="black" d="M1026.97,-349.27C1046.54,-328.6 1063.71,-305.41 1075.33,-280 1096.83,-232.94 1054.42,-92.02 1019.33,-54 1014.78,-49.07 1009.4,-44.79 1003.63,-41.07"/>
<polygon fill="black" stroke="black" points="1005.36,-38.03 994.96,-36.03 1001.84,-44.08 1005.36,-38.03"/>
<text text-anchor="start" x="1075.33" y="-179.8" font-family="mono" font-size="14.00" fill="#c83500">titletitles</text>
<text text-anchor="middle" x="982.46" y="-39.83" font-family="Times,serif" font-size="14.00">0..*</text>
</g>
<!-- Thing&#45;&gt;MultiLanguage -->
<g id="edge14" class="edge">
<title>Thing&#45;&gt;MultiLanguage</title>
<path fill="none" stroke="black" d="M1027.08,-423.13C1096.63,-396.9 1166.96,-352.9 1187.33,-280 1219.63,-164.36 1141.81,-116.56 1039.33,-54 1030.53,-48.63 1020.77,-43.9 1010.95,-39.8"/>
<polygon fill="black" stroke="black" points="1012.12,-36.5 1001.53,-36.06 1009.53,-43.01 1012.12,-36.5"/>
<text text-anchor="start" x="1189.33" y="-179.8" font-family="mono" font-size="14.00" fill="#c83500">descriptiondescriptions</text>
<text text-anchor="middle" x="1014.03" y="-39.86" font-family="Times,serif" font-size="14.00">0..*</text>
</g>
<!-- Thing&#45;&gt;PropertyAffordance -->
<g id="edge17" class="edge">
<title>Thing&#45;&gt;PropertyAffordance</title>
<path fill="none" stroke="black" d="M708,-331C703.49,-325.13 699.24,-319.12 695.33,-313 688.95,-303.03 684.67,-290.89 681.83,-279.68"/>
<polygon fill="black" stroke="black" points="685.2,-278.71 679.59,-269.72 678.37,-280.25 685.2,-278.71"/>
<text text-anchor="start" x="695.33" y="-301.8" font-family="mono" font-size="14.00" fill="#c83500">properties</text>
<text text-anchor="middle" x="667.09" y="-273.52" font-family="Times,serif" font-size="14.00">0..*</text>
</g>
<!-- VersionInfo -->
<g id="node7" class="node">
<title>VersionInfo</title>
<polygon fill="#8ccbf2" stroke="transparent" points="828.33,-254.5 828.33,-275.5 1058.33,-275.5 1058.33,-254.5 828.33,-254.5"/>
<polygon fill="none" stroke="#8ccbf2" points="828.33,-254.5 828.33,-275.5 1058.33,-275.5 1058.33,-254.5 828.33,-254.5"/>
<text text-anchor="start" x="897.83" y="-262.3" font-family="mono" font-weight="bold" font-size="14.00" fill="#c83500">VersionInfo</text>
<polygon fill="#ddeeff" stroke="transparent" points="828.33,-233.5 828.33,-254.5 1058.33,-254.5 1058.33,-233.5 828.33,-233.5"/>
<polygon fill="none" stroke="#8ccbf2" points="828.33,-233.5 828.33,-254.5 1058.33,-254.5 1058.33,-233.5 828.33,-233.5"/>
<text text-anchor="start" x="831.33" y="-241.3" font-family="mono" font-size="14.00" fill="#c83500">instance</text>
<text text-anchor="start" x="898.33" y="-241.3" font-family="Times,serif" font-size="14.00"> : </text>
<text text-anchor="start" x="912.33" y="-241.3" font-family="mono" font-size="14.00" fill="#c83500">string</text>
<text text-anchor="start" x="962.33" y="-241.3" font-family="Times,serif" font-size="14.00"> </text>
<text text-anchor="start" x="967.33" y="-241.3" font-family="Times,serif" font-style="italic" font-size="14.00">(mandatory)</text>
<polygon fill="#ddeeff" stroke="transparent" points="828.33,-212.5 828.33,-233.5 1058.33,-233.5 1058.33,-212.5 828.33,-212.5"/>
<polygon fill="none" stroke="#8ccbf2" points="828.33,-212.5 828.33,-233.5 1058.33,-233.5 1058.33,-212.5 828.33,-212.5"/>
<text text-anchor="start" x="831.33" y="-220.3" font-family="mono" font-size="14.00" fill="#c83500">model</text>
<text text-anchor="start" x="873.33" y="-220.3" font-family="Times,serif" font-size="14.00"> : </text>
<text text-anchor="start" x="887.33" y="-220.3" font-family="mono" font-size="14.00" fill="#c83500">string</text>
</g>
<!-- Thing&#45;&gt;VersionInfo -->
<g id="edge4" class="edge">
<title>Thing&#45;&gt;VersionInfo</title>
<path fill="none" stroke="black" d="M913.07,-330.89C918.28,-316.19 923.29,-302.06 927.68,-289.67"/>
<polygon fill="black" stroke="black" points="931.01,-290.73 931.06,-280.13 924.42,-288.39 931.01,-290.73"/>
<text text-anchor="start" x="923.33" y="-301.8" font-family="mono" font-size="14.00" fill="#c83500">version</text>
<text text-anchor="middle" x="917.06" y="-283.93" font-family="Times,serif" font-size="14.00">0..1</text>
</g>
<!-- Thing&#45;&gt;Form -->
<g id="edge3" class="edge">
<title>Thing&#45;&gt;Form</title>
<path fill="none" stroke="black" d="M806.28,-330.96C795.54,-290.56 792.89,-246.7 811.33,-209 857.71,-114.16 1060.92,-133.39 991.33,-54 989.47,-51.88 837.56,-32.79 764.61,-23.73"/>
<polygon fill="black" stroke="black" points="764.8,-20.23 754.44,-22.47 763.94,-27.17 764.8,-20.23"/>
<text text-anchor="start" x="837.33" y="-179.8" font-family="mono" font-size="14.00" fill="#c83500">forms</text>
<text text-anchor="middle" x="766.94" y="-26.27" font-family="Times,serif" font-size="14.00">0..*</text>
</g>
<!-- Link -->
<g id="node9" class="node">
<title>Link</title>
<polygon fill="#f2f2f2" stroke="transparent" points="1130.33,-233.5 1130.33,-254.5 1170.33,-254.5 1170.33,-233.5 1130.33,-233.5"/>
<polygon fill="none" stroke="#8c8c8c" points="1130.33,-233.5 1130.33,-254.5 1170.33,-254.5 1170.33,-233.5 1130.33,-233.5"/>
<text text-anchor="start" x="1133.33" y="-241.3" font-family="mono" font-weight="bold" font-size="14.00">Link</text>
</g>
<!-- Thing&#45;&gt;Link -->
<g id="edge2" class="edge">
<title>Thing&#45;&gt;Link</title>
<path fill="none" stroke="black" d="M1027.11,-377.18C1055.94,-358.3 1084.39,-336.72 1108.33,-313 1120.32,-301.12 1130.44,-285.18 1137.74,-271.78"/>
<polygon fill="black" stroke="black" points="1141.02,-273.04 1142.54,-262.56 1134.82,-269.81 1141.02,-273.04"/>
<text text-anchor="start" x="1121.33" y="-301.8" font-family="mono" font-size="14.00" fill="#c83500">links</text>
<text text-anchor="middle" x="1130.04" y="-266.36" font-family="Times,serif" font-size="14.00">0..*</text>
</g>
<!-- Thing&#45;&gt;DataSchema -->
<g id="edge15" class="edge">
<title>Thing&#45;&gt;DataSchema</title>
<path fill="none" stroke="black" d="M707.76,-418.15C609.71,-388.3 484.03,-342.36 383.33,-280 334.14,-249.54 311.33,-244.08 288.33,-191 285.67,-184.88 285,-181.78 288.33,-176 296.27,-162.19 310.69,-171.39 319.33,-158 340.98,-124.41 340.56,-76.48 337.51,-46.58"/>
<polygon fill="black" stroke="black" points="340.96,-45.96 336.3,-36.44 334.01,-46.79 340.96,-45.96"/>
<text text-anchor="start" x="288.33" y="-179.8" font-family="mono" font-size="14.00" fill="#c83500">schemaDefinitions</text>
<text text-anchor="middle" x="323.8" y="-40.24" font-family="Times,serif" font-size="14.00">0..*</text>
</g>
<!-- SecurityScheme -->
<g id="node11" class="node">
<title>SecurityScheme</title>
<polygon fill="#f2f2f2" stroke="transparent" points="1243.33,-233.5 1243.33,-254.5 1365.33,-254.5 1365.33,-233.5 1243.33,-233.5"/>
<polygon fill="none" stroke="#8c8c8c" points="1243.33,-233.5 1243.33,-254.5 1365.33,-254.5 1365.33,-233.5 1243.33,-233.5"/>
<text text-anchor="start" x="1246.33" y="-241.3" font-family="mono" font-weight="bold" font-size="14.00">SecurityScheme</text>
</g>
<!-- Thing&#45;&gt;SecurityScheme -->
<g id="edge10" class="edge">
<title>Thing&#45;&gt;SecurityScheme</title>
<path fill="none" stroke="black" d="M1027.13,-404.98C1089.66,-380.57 1160.76,-349.16 1221.33,-313 1241.97,-300.68 1262.96,-283.56 1278.66,-269.65"/>
<polygon fill="black" stroke="black" points="1281.28,-272 1286.36,-262.7 1276.59,-266.8 1281.28,-272"/>
<text text-anchor="start" x="1242.33" y="-301.8" font-family="mono" font-size="14.00" fill="#c83500">securityDefinitions</text>
<text text-anchor="middle" x="1273.86" y="-266.5" font-family="Times,serif" font-size="14.00">1..*</text>
</g>
</g>
</svg>
