<?xml version="1.0" encoding="UTF-8" standalone="no"?>
<!DOCTYPE svg PUBLIC "-//W3C//DTD SVG 1.1//EN"
 "http://www.w3.org/Graphics/SVG/1.1/DTD/svg11.dtd">
<!-- Generated by graphviz version 2.50.0 (0)
 -->
<!-- Pages: 1 -->
<svg width="1416pt" height="599pt"
 viewBox="0.00 0.00 1415.50 599.00" xmlns="http://www.w3.org/2000/svg" xmlns:xlink="http://www.w3.org/1999/xlink">
<g id="graph0" class="graph" transform="scale(1 1) rotate(0) translate(4 595)">
<polygon fill="white" stroke="transparent" points="-4,4 -4,-595 1411.5,-595 1411.5,4 -4,4"/>
<!-- ActionAffordance -->
<g id="node1" class="node">
<title>ActionAffordance</title>
<polygon fill="#8ccbf2" stroke="transparent" points="8.5,-254.5 8.5,-275.5 169.5,-275.5 169.5,-254.5 8.5,-254.5"/>
<polygon fill="none" stroke="#8ccbf2" points="8.5,-254.5 8.5,-275.5 169.5,-275.5 169.5,-254.5 8.5,-254.5"/>
<text text-anchor="start" x="22.5" y="-262.3" font-family="mono" font-weight="bold" font-size="14.00" fill="#c83500">ActionAffordance</text>
<polygon fill="#ddeeff" stroke="transparent" points="8.5,-233.5 8.5,-254.5 169.5,-254.5 169.5,-233.5 8.5,-233.5"/>
<polygon fill="none" stroke="#8ccbf2" points="8.5,-233.5 8.5,-254.5 169.5,-254.5 169.5,-233.5 8.5,-233.5"/>
<text text-anchor="start" x="11.5" y="-241.3" font-family="mono" font-size="14.00" fill="#c83500">safe</text>
<text text-anchor="start" x="45.5" y="-241.3" font-family="Times,serif" font-size="14.00"> : </text>
<text text-anchor="start" x="59.5" y="-241.3" font-family="mono" font-size="14.00" fill="#c83500">boolean</text>
<polygon fill="#ddeeff" stroke="transparent" points="8.5,-212.5 8.5,-233.5 169.5,-233.5 169.5,-212.5 8.5,-212.5"/>
<polygon fill="none" stroke="#8ccbf2" points="8.5,-212.5 8.5,-233.5 169.5,-233.5 169.5,-212.5 8.5,-212.5"/>
<text text-anchor="start" x="11.5" y="-220.3" font-family="mono" font-size="14.00" fill="#c83500">idempotent</text>
<text text-anchor="start" x="94.5" y="-220.3" font-family="Times,serif" font-size="14.00"> : </text>
<text text-anchor="start" x="108.5" y="-220.3" font-family="mono" font-size="14.00" fill="#c83500">boolean</text>
</g>
<!-- InteractionAffordance -->
<g id="node3" class="node">
<title>InteractionAffordance</title>
<polygon fill="#8ccbf2" stroke="transparent" points="765.5,-132.5 765.5,-153.5 945.5,-153.5 945.5,-132.5 765.5,-132.5"/>
<polygon fill="none" stroke="#8ccbf2" points="765.5,-132.5 765.5,-153.5 945.5,-153.5 945.5,-132.5 765.5,-132.5"/>
<text text-anchor="start" x="768.5" y="-140.3" font-family="mono" font-weight="bold" font-size="14.00" fill="#c83500">InteractionAffordance</text>
<polygon fill="#ddeeff" stroke="transparent" points="765.5,-111.5 765.5,-132.5 945.5,-132.5 945.5,-111.5 765.5,-111.5"/>
<polygon fill="none" stroke="#8ccbf2" points="765.5,-111.5 765.5,-132.5 945.5,-132.5 945.5,-111.5 765.5,-111.5"/>
<text text-anchor="start" x="768.5" y="-119.3" font-family="mono" font-size="14.00" fill="#c83500">title</text>
<text text-anchor="start" x="810.5" y="-119.3" font-family="Times,serif" font-size="14.00"> : </text>
<text text-anchor="start" x="824.5" y="-119.3" font-family="mono" font-size="14.00" fill="#c83500">string</text>
<polygon fill="#ddeeff" stroke="transparent" points="765.5,-90.5 765.5,-111.5 945.5,-111.5 945.5,-90.5 765.5,-90.5"/>
<polygon fill="none" stroke="#8ccbf2" points="765.5,-90.5 765.5,-111.5 945.5,-111.5 945.5,-90.5 765.5,-90.5"/>
<text text-anchor="start" x="768.5" y="-98.3" font-family="mono" font-size="14.00" fill="#c83500">description</text>
<text text-anchor="start" x="859.5" y="-98.3" font-family="Times,serif" font-size="14.00"> : </text>
<text text-anchor="start" x="873.5" y="-98.3" font-family="mono" font-size="14.00" fill="#c83500">string</text>
</g>
<!-- ActionAffordance&#45;&gt;InteractionAffordance -->
<g id="edge21" class="edge">
<title>ActionAffordance&#45;&gt;InteractionAffordance</title>
<path fill="none" stroke="black" d="M177.24,-233.8C330.25,-216.76 637.47,-181.08 743.5,-158 744.79,-157.72 746.08,-157.43 747.38,-157.14"/>
<polygon fill="white" stroke="black" points="748.5,-160.47 757.41,-154.74 746.87,-153.66 748.5,-160.47"/>
</g>
<!-- DataSchema -->
<g id="node10" class="node">
<title>DataSchema</title>
<polygon fill="#f2f2f2" stroke="transparent" points="354.5,-7 354.5,-28 443.5,-28 443.5,-7 354.5,-7"/>
<polygon fill="none" stroke="#8c8c8c" points="354.5,-7 354.5,-28 443.5,-28 443.5,-7 354.5,-7"/>
<text text-anchor="start" x="357.5" y="-14.8" font-family="mono" font-weight="bold" font-size="14.00">DataSchema</text>
</g>
<!-- ActionAffordance&#45;&gt;DataSchema -->
<g id="edge5" class="edge">
<title>ActionAffordance&#45;&gt;DataSchema</title>
<path fill="none" stroke="black" d="M70.78,-208.79C56.52,-175.63 41.94,-125.2 62.5,-87 88.06,-39.5 245.88,-25.17 335.85,-20.86"/>
<polygon fill="black" stroke="black" points="336.1,-24.35 345.93,-20.4 335.79,-17.36 336.1,-24.35"/>
<text text-anchor="start" x="62.5" y="-118.8" font-family="mono" font-size="14.00" fill="#c83500">input</text>
<text text-anchor="middle" x="331.93" y="-9.2" font-family="Times,serif" font-size="14.00">0..1</text>
</g>
<!-- ActionAffordance&#45;&gt;DataSchema -->
<g id="edge6" class="edge">
<title>ActionAffordance&#45;&gt;DataSchema</title>
<path fill="none" stroke="black" d="M93.31,-208.68C99.45,-174.75 112.8,-123.13 140.5,-87 156.7,-65.87 165.72,-63.75 190.5,-54 237.09,-35.66 293.24,-26.93 335.46,-22.77"/>
<polygon fill="black" stroke="black" points="335.97,-26.24 345.6,-21.83 335.32,-19.27 335.97,-26.24"/>
<text text-anchor="start" x="140.5" y="-118.8" font-family="mono" font-size="14.00" fill="#c83500">output</text>
<text text-anchor="middle" x="331.6" y="-25.63" font-family="Times,serif" font-size="14.00">0..1</text>
</g>
<!-- EventAffordance -->
<g id="node2" class="node">
<title>EventAffordance</title>
<polygon fill="#8ccbf2" stroke="transparent" points="422.5,-233.5 422.5,-254.5 552.5,-254.5 552.5,-233.5 422.5,-233.5"/>
<polygon fill="none" stroke="#8ccbf2" points="422.5,-233.5 422.5,-254.5 552.5,-254.5 552.5,-233.5 422.5,-233.5"/>
<text text-anchor="start" x="425.5" y="-241.3" font-family="mono" font-weight="bold" font-size="14.00" fill="#c83500">EventAffordance</text>
</g>
<!-- EventAffordance&#45;&gt;InteractionAffordance -->
<g id="edge22" class="edge">
<title>EventAffordance&#45;&gt;InteractionAffordance</title>
<path fill="none" stroke="black" d="M524.1,-226.37C538.09,-220.29 554.32,-213.77 569.5,-209 605.92,-197.55 616.67,-201.07 653.5,-191 684.96,-182.4 718.72,-171.72 749.46,-161.4"/>
<polygon fill="white" stroke="black" points="750.98,-164.58 759.33,-158.07 748.74,-157.95 750.98,-164.58"/>
</g>
<!-- EventAffordance&#45;&gt;DataSchema -->
<g id="edge7" class="edge">
<title>EventAffordance&#45;&gt;DataSchema</title>
<path fill="none" stroke="black" d="M528.98,-226.35C556.74,-212.42 591.09,-189.83 607.5,-158 621.96,-129.95 625.57,-112.87 607.5,-87 575.17,-40.71 510.38,-25.21 461.47,-20.38"/>
<polygon fill="black" stroke="black" points="461.55,-16.87 451.29,-19.5 460.95,-23.85 461.55,-16.87"/>
<text text-anchor="start" x="620.5" y="-118.8" font-family="mono" font-size="14.00" fill="#c83500">subscription</text>
<text text-anchor="middle" x="465.29" y="-8.3" font-family="Times,serif" font-size="14.00">0..1</text>
</g>
<!-- EventAffordance&#45;&gt;DataSchema -->
<g id="edge8" class="edge">
<title>EventAffordance&#45;&gt;DataSchema</title>
<path fill="none" stroke="black" d="M485.87,-226.23C483.85,-211.83 479.36,-191.29 469.5,-176 462.65,-165.38 454.76,-168.34 447.5,-158 423.28,-123.49 409.94,-75.82 403.51,-46.23"/>
<polygon fill="black" stroke="black" points="406.89,-45.29 401.44,-36.2 400.03,-46.7 406.89,-45.29"/>
<text text-anchor="start" x="447.5" y="-118.8" font-family="mono" font-size="14.00" fill="#c83500">data</text>
<text text-anchor="middle" x="387.44" y="-40" font-family="Times,serif" font-size="14.00">0..1</text>
</g>
<!-- EventAffordance&#45;&gt;DataSchema -->
<g id="edge9" class="edge">
<title>EventAffordance&#45;&gt;DataSchema</title>
<path fill="none" stroke="black" d="M491.32,-226.34C497.09,-196.21 505.04,-132.68 481.5,-87 471.91,-68.39 454.74,-53.01 438.49,-41.61"/>
<polygon fill="black" stroke="black" points="440.39,-38.67 430.13,-36.02 436.5,-44.49 440.39,-38.67"/>
<text text-anchor="start" x="497.5" y="-118.8" font-family="mono" font-size="14.00" fill="#c83500">cancellation</text>
<text text-anchor="middle" x="416.13" y="-39.82" font-family="Times,serif" font-size="14.00">0..1</text>
</g>
<!-- MultiLanguage -->
<g id="node4" class="node">
<title>MultiLanguage</title>
<polygon fill="#8ccbf2" stroke="transparent" points="1005.5,-7 1005.5,-28 1119.5,-28 1119.5,-7 1005.5,-7"/>
<polygon fill="none" stroke="#8ccbf2" points="1005.5,-7 1005.5,-28 1119.5,-28 1119.5,-7 1005.5,-7"/>
<text text-anchor="start" x="1008.5" y="-14.8" font-family="mono" font-weight="bold" font-size="14.00" fill="#c83500">MultiLanguage</text>
</g>
<!-- InteractionAffordance&#45;&gt;MultiLanguage -->
<g id="edge11" class="edge">
<title>InteractionAffordance&#45;&gt;MultiLanguage</title>
<path fill="none" stroke="black" d="M925.29,-86.94C956.27,-71.6 991.76,-54.03 1018.89,-40.6"/>
<polygon fill="black" stroke="black" points="1020.7,-43.6 1028.11,-36.03 1017.6,-37.33 1020.7,-43.6"/>
<text text-anchor="start" x="990.5" y="-57.8" font-family="mono" font-size="14.00" fill="#c83500">titles</text>
<text text-anchor="middle" x="1015.61" y="-39.83" font-family="Times,serif" font-size="14.00">0..*</text>
</g>
<!-- InteractionAffordance&#45;&gt;MultiLanguage -->
<g id="edge13" class="edge">
<title>InteractionAffordance&#45;&gt;MultiLanguage</title>
<path fill="none" stroke="black" d="M850.59,-86.85C850.83,-75.1 853.46,-62.75 861.5,-54 870.21,-44.52 933.85,-34.52 987.22,-27.65"/>
<polygon fill="black" stroke="black" points="987.92,-31.09 997.4,-26.36 987.04,-24.15 987.92,-31.09"/>
<text text-anchor="start" x="861.5" y="-57.8" font-family="mono" font-size="14.00" fill="#c83500">descriptions</text>
<text text-anchor="middle" x="984.9" y="-30.16" font-family="Times,serif" font-size="14.00">0..*</text>
</g>
<!-- Form -->
<g id="node8" class="node">
<title>Form</title>
<polygon fill="#f2f2f2" stroke="transparent" points="853.5,-7 853.5,-28 893.5,-28 893.5,-7 853.5,-7"/>
<polygon fill="none" stroke="#8c8c8c" points="853.5,-7 853.5,-28 893.5,-28 893.5,-7 853.5,-7"/>
<text text-anchor="start" x="856.5" y="-14.8" font-family="mono" font-weight="bold" font-size="14.00">Form</text>
</g>
<!-- InteractionAffordance&#45;&gt;Form -->
<g id="edge1" class="edge">
<title>InteractionAffordance&#45;&gt;Form</title>
<path fill="none" stroke="black" d="M802.73,-86.97C793.64,-76.83 789.17,-65.38 796.5,-54 805.3,-40.33 820.9,-31.93 835.76,-26.81"/>
<polygon fill="black" stroke="black" points="836.8,-30.16 845.35,-23.9 834.76,-23.46 836.8,-30.16"/>
<text text-anchor="start" x="796.5" y="-57.8" font-family="mono" font-size="14.00" fill="#c83500">forms</text>
<text text-anchor="middle" x="832.85" y="-27.7" font-family="Times,serif" font-size="14.00">1..*</text>
</g>
<!-- InteractionAffordance&#45;&gt;DataSchema -->
<g id="edge17" class="edge">
<title>InteractionAffordance&#45;&gt;DataSchema</title>
<path fill="none" stroke="black" d="M757.19,-90.95C729.4,-82.2 703.05,-73.74 689.5,-69 671.97,-62.86 668.48,-58.64 650.5,-54 587.15,-37.65 512.74,-28.5 461.28,-23.7"/>
<polygon fill="black" stroke="black" points="461.58,-20.21 451.31,-22.79 460.95,-27.18 461.58,-20.21"/>
<text text-anchor="start" x="689.5" y="-57.8" font-family="mono" font-size="14.00" fill="#c83500">uriVariables</text>
<text text-anchor="middle" x="463.81" y="-26.59" font-family="Times,serif" font-size="14.00">0..*</text>
</g>
<!-- PropertyAffordance -->
<g id="node5" class="node">
<title>PropertyAffordance</title>
<polygon fill="#8ccbf2" stroke="transparent" points="587.5,-244.5 587.5,-265.5 748.5,-265.5 748.5,-244.5 587.5,-244.5"/>
<polygon fill="none" stroke="#8ccbf2" points="587.5,-244.5 587.5,-265.5 748.5,-265.5 748.5,-244.5 587.5,-244.5"/>
<text text-anchor="start" x="593.5" y="-252.3" font-family="mono" font-weight="bold" font-size="14.00" fill="#c83500">PropertyAffordance</text>
<polygon fill="#ddeeff" stroke="transparent" points="587.5,-223.5 587.5,-244.5 748.5,-244.5 748.5,-223.5 587.5,-223.5"/>
<polygon fill="none" stroke="#8ccbf2" points="587.5,-223.5 587.5,-244.5 748.5,-244.5 748.5,-223.5 587.5,-223.5"/>
<text text-anchor="start" x="590.5" y="-231.3" font-family="mono" font-size="14.00" fill="#c83500">observable</text>
<text text-anchor="start" x="673.5" y="-231.3" font-family="Times,serif" font-size="14.00"> : </text>
<text text-anchor="start" x="687.5" y="-231.3" font-family="mono" font-size="14.00" fill="#c83500">boolean</text>
</g>
<!-- PropertyAffordance&#45;&gt;InteractionAffordance -->
<g id="edge23" class="edge">
<title>PropertyAffordance&#45;&gt;InteractionAffordance</title>
<path fill="none" stroke="black" d="M705.54,-219.22C730.44,-203.33 763.56,-182.19 792.34,-163.81"/>
<polygon fill="white" stroke="black" points="794.58,-166.54 801.12,-158.21 790.81,-160.64 794.58,-166.54"/>
</g>
<!-- Thing -->
<g id="node6" class="node">
<title>Thing</title>
<polygon fill="#8ccbf2" stroke="transparent" points="746.5,-566 746.5,-587 1049.5,-587 1049.5,-566 746.5,-566"/>
<polygon fill="none" stroke="#8ccbf2" points="746.5,-566 746.5,-587 1049.5,-587 1049.5,-566 746.5,-566"/>
<text text-anchor="start" x="877" y="-573.8" font-family="mono" font-weight="bold" font-size="14.00" fill="#c83500">Thing</text>
<polygon fill="#ddeeff" stroke="transparent" points="746.5,-545 746.5,-566 1049.5,-566 1049.5,-545 746.5,-545"/>
<polygon fill="none" stroke="#8ccbf2" points="746.5,-545 746.5,-566 1049.5,-566 1049.5,-545 746.5,-545"/>
<text text-anchor="start" x="749.5" y="-552.8" font-family="mono" font-size="14.00" fill="#c83500">@context</text>
<text text-anchor="start" x="816.5" y="-552.8" font-family="Times,serif" font-size="14.00"> : </text>
<text text-anchor="start" x="830.5" y="-552.8" font-family="mono" font-style="italic" font-size="14.00" fill="#c83500">anyURI</text>
<text text-anchor="start" x="880.5" y="-552.8" font-family="Times,serif" font-style="italic" font-size="14.00"> or Array</text>
<text text-anchor="start" x="944.5" y="-552.8" font-family="Times,serif" font-size="14.00"> </text>
<text text-anchor="start" x="949.5" y="-552.8" font-family="Times,serif" font-style="italic" font-size="14.00">(mandatory)</text>
<polygon fill="#ddeeff" stroke="transparent" points="746.5,-524 746.5,-545 1049.5,-545 1049.5,-524 746.5,-524"/>
<polygon fill="none" stroke="#8ccbf2" points="746.5,-524 746.5,-545 1049.5,-545 1049.5,-524 746.5,-524"/>
<text text-anchor="start" x="749.5" y="-531.8" font-family="mono" font-size="14.00" fill="#c83500">@type</text>
<text text-anchor="start" x="791.5" y="-531.8" font-family="Times,serif" font-size="14.00"> : </text>
<text text-anchor="start" x="805.5" y="-531.8" font-family="Times,serif" font-style="italic" font-size="14.00">(Array of) </text>
<text text-anchor="start" x="878.5" y="-531.8" font-family="mono" font-size="14.00" fill="#c83500">string</text>
<polygon fill="#ddeeff" stroke="transparent" points="746.5,-503 746.5,-524 1049.5,-524 1049.5,-503 746.5,-503"/>
<polygon fill="none" stroke="#8ccbf2" points="746.5,-503 746.5,-524 1049.5,-524 1049.5,-503 746.5,-503"/>
<text text-anchor="start" x="749.5" y="-510.8" font-family="mono" font-size="14.00" fill="#c83500">id</text>
<text text-anchor="start" x="766.5" y="-510.8" font-family="Times,serif" font-size="14.00"> : </text>
<text text-anchor="start" x="780.5" y="-510.8" font-family="mono" font-size="14.00" fill="#c83500">anyURI</text>
<text text-anchor="start" x="830.5" y="-510.8" font-family="Times,serif" font-size="14.00"> </text>
<text text-anchor="start" x="835.5" y="-510.8" font-family="Times,serif" font-style="italic" font-size="14.00">(mandatory)</text>
<polygon fill="#ddeeff" stroke="transparent" points="746.5,-482 746.5,-503 1049.5,-503 1049.5,-482 746.5,-482"/>
<polygon fill="none" stroke="#8ccbf2" points="746.5,-482 746.5,-503 1049.5,-503 1049.5,-482 746.5,-482"/>
<text text-anchor="start" x="749.5" y="-489.8" font-family="mono" font-size="14.00" fill="#c83500">title</text>
<text text-anchor="start" x="791.5" y="-489.8" font-family="Times,serif" font-size="14.00"> : </text>
<text text-anchor="start" x="805.5" y="-489.8" font-family="mono" font-size="14.00" fill="#c83500">string</text>
<text text-anchor="start" x="855.5" y="-489.8" font-family="Times,serif" font-size="14.00"> </text>
<text text-anchor="start" x="860.5" y="-489.8" font-family="Times,serif" font-style="italic" font-size="14.00">(mandatory)</text>
<polygon fill="#ddeeff" stroke="transparent" points="746.5,-461 746.5,-482 1049.5,-482 1049.5,-461 746.5,-461"/>
<polygon fill="none" stroke="#8ccbf2" points="746.5,-461 746.5,-482 1049.5,-482 1049.5,-461 746.5,-461"/>
<text text-anchor="start" x="749.5" y="-468.8" font-family="mono" font-size="14.00" fill="#c83500">description</text>
<text text-anchor="start" x="840.5" y="-468.8" font-family="Times,serif" font-size="14.00"> : </text>
<text text-anchor="start" x="854.5" y="-468.8" font-family="mono" font-size="14.00" fill="#c83500">string</text>
<polygon fill="#ddeeff" stroke="transparent" points="746.5,-440 746.5,-461 1049.5,-461 1049.5,-440 746.5,-440"/>
<polygon fill="none" stroke="#8ccbf2" points="746.5,-440 746.5,-461 1049.5,-461 1049.5,-440 746.5,-440"/>
<text text-anchor="start" x="749.5" y="-447.8" font-family="mono" font-size="14.00" fill="#c83500">security</text>
<text text-anchor="start" x="816.5" y="-447.8" font-family="Times,serif" font-size="14.00"> : (Array of) </text>
<text text-anchor="start" x="903.5" y="-447.8" font-family="mono" font-size="14.00" fill="#c83500">string</text>
<text text-anchor="start" x="953.5" y="-447.8" font-family="Times,serif" font-size="14.00"> </text>
<text text-anchor="start" x="958.5" y="-447.8" font-family="Times,serif" font-style="italic" font-size="14.00">(mandatory)</text>
<polygon fill="#ddeeff" stroke="transparent" points="746.5,-419 746.5,-440 1049.5,-440 1049.5,-419 746.5,-419"/>
<polygon fill="none" stroke="#8ccbf2" points="746.5,-419 746.5,-440 1049.5,-440 1049.5,-419 746.5,-419"/>
<text text-anchor="start" x="749.5" y="-426.8" font-family="mono" font-size="14.00" fill="#c83500">profile</text>
<text text-anchor="start" x="807.5" y="-426.8" font-family="Times,serif" font-size="14.00"> : (Array of) </text>
<text text-anchor="start" x="894.5" y="-426.8" font-family="mono" font-size="14.00" fill="#c83500">anyURI</text>
<polygon fill="#ddeeff" stroke="transparent" points="746.5,-398 746.5,-419 1049.5,-419 1049.5,-398 746.5,-398"/>
<polygon fill="none" stroke="#8ccbf2" points="746.5,-398 746.5,-419 1049.5,-419 1049.5,-398 746.5,-398"/>
<text text-anchor="start" x="749.5" y="-405.8" font-family="mono" font-size="14.00" fill="#c83500">created</text>
<text text-anchor="start" x="807.5" y="-405.8" font-family="Times,serif" font-size="14.00"> : </text>
<text text-anchor="start" x="821.5" y="-405.8" font-family="mono" font-size="14.00" fill="#c83500">dateTime</text>
<polygon fill="#ddeeff" stroke="transparent" points="746.5,-377 746.5,-398 1049.5,-398 1049.5,-377 746.5,-377"/>
<polygon fill="none" stroke="#8ccbf2" points="746.5,-377 746.5,-398 1049.5,-398 1049.5,-377 746.5,-377"/>
<text text-anchor="start" x="749.5" y="-384.8" font-family="mono" font-size="14.00" fill="#c83500">modified</text>
<text text-anchor="start" x="816.5" y="-384.8" font-family="Times,serif" font-size="14.00"> : </text>
<text text-anchor="start" x="830.5" y="-384.8" font-family="mono" font-size="14.00" fill="#c83500">dateTime</text>
<polygon fill="#ddeeff" stroke="transparent" points="746.5,-356 746.5,-377 1049.5,-377 1049.5,-356 746.5,-356"/>
<polygon fill="none" stroke="#8ccbf2" points="746.5,-356 746.5,-377 1049.5,-377 1049.5,-356 746.5,-356"/>
<text text-anchor="start" x="749.5" y="-363.8" font-family="mono" font-size="14.00" fill="#c83500">support</text>
<text text-anchor="start" x="807.5" y="-363.8" font-family="Times,serif" font-size="14.00"> : </text>
<text text-anchor="start" x="821.5" y="-363.8" font-family="mono" font-size="14.00" fill="#c83500">anyURI</text>
<polygon fill="#ddeeff" stroke="transparent" points="746.5,-335 746.5,-356 1049.5,-356 1049.5,-335 746.5,-335"/>
<polygon fill="none" stroke="#8ccbf2" points="746.5,-335 746.5,-356 1049.5,-356 1049.5,-335 746.5,-335"/>
<text text-anchor="start" x="749.5" y="-342.8" font-family="mono" font-size="14.00" fill="#c83500">base</text>
<text text-anchor="start" x="783.5" y="-342.8" font-family="Times,serif" font-size="14.00"> : </text>
<text text-anchor="start" x="797.5" y="-342.8" font-family="mono" font-size="14.00" fill="#c83500">anyURI</text>
</g>
<!-- Thing&#45;&gt;ActionAffordance -->
<g id="edge19" class="edge">
<title>Thing&#45;&gt;ActionAffordance</title>
<path fill="none" stroke="black" d="M737.76,-444.09C543.47,-422.24 229.4,-378.09 132.5,-313 123.25,-306.79 115.5,-297.91 109.21,-288.63"/>
<polygon fill="black" stroke="black" points="112.12,-286.67 103.84,-280.05 106.18,-290.38 112.12,-286.67"/>
<text text-anchor="start" x="132.5" y="-301.8" font-family="mono" font-size="14.00" fill="#c83500">actions</text>
<text text-anchor="middle" x="91.34" y="-283.85" font-family="Times,serif" font-size="14.00">0..*</text>
</g>
<!-- Thing&#45;&gt;EventAffordance -->
<g id="edge20" class="edge">
<title>Thing&#45;&gt;EventAffordance</title>
<path fill="none" stroke="black" d="M737.81,-376.45C662.4,-337 578.38,-293.05 529.39,-267.41"/>
<polygon fill="black" stroke="black" points="530.84,-264.23 520.36,-262.69 527.6,-270.43 530.84,-264.23"/>
<text text-anchor="start" x="609.5" y="-301.8" font-family="mono" font-size="14.00" fill="#c83500">events</text>
<text text-anchor="middle" x="507.86" y="-266.49" font-family="Times,serif" font-size="14.00">0..*</text>
</g>
<!-- Thing&#45;&gt;MultiLanguage -->
<g id="edge12" class="edge">
<title>Thing&#45;&gt;MultiLanguage</title>
<path fill="none" stroke="black" d="M1057.16,-386.7C1094.86,-359.66 1128.04,-324.46 1141.5,-280 1150.64,-249.8 1147.68,-239.95 1141.5,-209 1129.17,-147.25 1096.37,-80.47 1077.14,-44.85"/>
<polygon fill="black" stroke="black" points="1080.2,-43.16 1072.33,-36.08 1074.06,-46.53 1080.2,-43.16"/>
<text text-anchor="start" x="1137.5" y="-179.8" font-family="mono" font-size="14.00" fill="#c83500">titles</text>
<text text-anchor="middle" x="1059.83" y="-39.88" font-family="Times,serif" font-size="14.00">0..*</text>
</g>
<!-- Thing&#45;&gt;MultiLanguage -->
<g id="edge14" class="edge">
<title>Thing&#45;&gt;MultiLanguage</title>
<path fill="none" stroke="black" d="M1057.29,-386.52C1089.59,-366.19 1121.08,-341.67 1145.5,-313 1155.72,-301 1152.87,-294.72 1158.5,-280 1175.82,-234.7 1206.37,-222.16 1191.5,-176 1173.5,-120.13 1124.4,-70.56 1092.23,-42.7"/>
<polygon fill="black" stroke="black" points="1094.34,-39.9 1084.45,-36.1 1089.81,-45.24 1094.34,-39.9"/>
<text text-anchor="start" x="1195.5" y="-179.8" font-family="mono" font-size="14.00" fill="#c83500">descriptions</text>
<text text-anchor="middle" x="1096.95" y="-39.9" font-family="Times,serif" font-size="14.00">0..*</text>
</g>
<!-- Thing&#45;&gt;PropertyAffordance -->
<g id="edge18" class="edge">
<title>Thing&#45;&gt;PropertyAffordance</title>
<path fill="none" stroke="black" d="M759.06,-330.89C737.48,-310.76 717.04,-291.71 700.98,-276.72"/>
<polygon fill="black" stroke="black" points="703.16,-273.97 693.46,-269.71 698.38,-279.09 703.16,-273.97"/>
<text text-anchor="start" x="735.5" y="-301.8" font-family="mono" font-size="14.00" fill="#c83500">properties</text>
<text text-anchor="middle" x="680.96" y="-273.51" font-family="Times,serif" font-size="14.00">0..*</text>
</g>
<!-- VersionInfo -->
<g id="node7" class="node">
<title>VersionInfo</title>
<polygon fill="#8ccbf2" stroke="transparent" points="782.5,-254.5 782.5,-275.5 1012.5,-275.5 1012.5,-254.5 782.5,-254.5"/>
<polygon fill="none" stroke="#8ccbf2" points="782.5,-254.5 782.5,-275.5 1012.5,-275.5 1012.5,-254.5 782.5,-254.5"/>
<text text-anchor="start" x="852" y="-262.3" font-family="mono" font-weight="bold" font-size="14.00" fill="#c83500">VersionInfo</text>
<polygon fill="#ddeeff" stroke="transparent" points="782.5,-233.5 782.5,-254.5 1012.5,-254.5 1012.5,-233.5 782.5,-233.5"/>
<polygon fill="none" stroke="#8ccbf2" points="782.5,-233.5 782.5,-254.5 1012.5,-254.5 1012.5,-233.5 782.5,-233.5"/>
<text text-anchor="start" x="785.5" y="-241.3" font-family="mono" font-size="14.00" fill="#c83500">instance</text>
<text text-anchor="start" x="852.5" y="-241.3" font-family="Times,serif" font-size="14.00"> : </text>
<text text-anchor="start" x="866.5" y="-241.3" font-family="mono" font-size="14.00" fill="#c83500">string</text>
<text text-anchor="start" x="916.5" y="-241.3" font-family="Times,serif" font-size="14.00"> </text>
<text text-anchor="start" x="921.5" y="-241.3" font-family="Times,serif" font-style="italic" font-size="14.00">(mandatory)</text>
<polygon fill="#ddeeff" stroke="transparent" points="782.5,-212.5 782.5,-233.5 1012.5,-233.5 1012.5,-212.5 782.5,-212.5"/>
<polygon fill="none" stroke="#8ccbf2" points="782.5,-212.5 782.5,-233.5 1012.5,-233.5 1012.5,-212.5 782.5,-212.5"/>
<text text-anchor="start" x="785.5" y="-220.3" font-family="mono" font-size="14.00" fill="#c83500">model</text>
<text text-anchor="start" x="827.5" y="-220.3" font-family="Times,serif" font-size="14.00"> : </text>
<text text-anchor="start" x="841.5" y="-220.3" font-family="mono" font-size="14.00" fill="#c83500">string</text>
</g>
<!-- Thing&#45;&gt;VersionInfo -->
<g id="edge4" class="edge">
<title>Thing&#45;&gt;VersionInfo</title>
<path fill="none" stroke="black" d="M897.5,-330.89C897.5,-316.48 897.5,-302.62 897.5,-290.41"/>
<polygon fill="black" stroke="black" points="901,-290.13 897.5,-280.13 894,-290.13 901,-290.13"/>
<text text-anchor="start" x="897.5" y="-301.8" font-family="mono" font-size="14.00" fill="#c83500">version</text>
<text text-anchor="middle" x="883.5" y="-283.93" font-family="Times,serif" font-size="14.00">0..1</text>
</g>
<!-- Thing&#45;&gt;Form -->
<g id="edge3" class="edge">
<title>Thing&#45;&gt;Form</title>
<path fill="none" stroke="black" d="M1005.74,-330.97C1015.29,-314.58 1023.57,-297.42 1029.5,-280 1061.89,-184.89 1097.55,-132.22 1034.5,-54 1026.78,-44.42 956.68,-31.9 911.56,-24.73"/>
<polygon fill="black" stroke="black" points="911.93,-21.24 901.51,-23.15 910.85,-28.16 911.93,-21.24"/>
<text text-anchor="start" x="1065.5" y="-179.8" font-family="mono" font-size="14.00" fill="#c83500">forms</text>
<text text-anchor="middle" x="914.01" y="-26.95" font-family="Times,serif" font-size="14.00">0..*</text>
</g>
<!-- Link -->
<g id="node9" class="node">
<title>Link</title>
<polygon fill="#f2f2f2" stroke="transparent" points="1084.5,-233.5 1084.5,-254.5 1124.5,-254.5 1124.5,-233.5 1084.5,-233.5"/>
<polygon fill="none" stroke="#8c8c8c" points="1084.5,-233.5 1084.5,-254.5 1124.5,-254.5 1124.5,-233.5 1084.5,-233.5"/>
<text text-anchor="start" x="1087.5" y="-241.3" font-family="mono" font-weight="bold" font-size="14.00">Link</text>
</g>
<!-- Thing&#45;&gt;Link -->
<g id="edge2" class="edge">
<title>Thing&#45;&gt;Link</title>
<path fill="none" stroke="black" d="M1046.63,-330.95C1052.12,-325.01 1057.43,-319.02 1062.5,-313 1073.16,-300.34 1083.05,-284.73 1090.55,-271.72"/>
<polygon fill="black" stroke="black" points="1093.72,-273.21 1095.56,-262.77 1087.62,-269.78 1093.72,-273.21"/>
<text text-anchor="start" x="1073.5" y="-301.8" font-family="mono" font-size="14.00" fill="#c83500">links</text>
<text text-anchor="middle" x="1083.06" y="-266.57" font-family="Times,serif" font-size="14.00">0..*</text>
</g>
<!-- Thing&#45;&gt;DataSchema -->
<g id="edge15" class="edge">
<title>Thing&#45;&gt;DataSchema</title>
<path fill="none" stroke="black" d="M737.76,-455.57C563.65,-440.66 297.58,-385.39 205.5,-191 172.43,-121.17 271.11,-67.48 339.31,-39.79"/>
<polygon fill="black" stroke="black" points="340.71,-43 348.71,-36.06 338.12,-36.5 340.71,-43"/>
<text text-anchor="start" x="205.5" y="-179.8" font-family="mono" font-size="14.00" fill="#c83500">schemaDefinitions</text>
<text text-anchor="middle" x="336.21" y="-39.86" font-family="Times,serif" font-size="14.00">0..*</text>
</g>
<!-- Thing&#45;&gt;DataSchema -->
<g id="edge16" class="edge">
<title>Thing&#45;&gt;DataSchema</title>
<path fill="none" stroke="black" d="M737.97,-434.84C632.43,-410.89 497.13,-365.28 405.5,-280 373.76,-250.45 374.59,-233.4 365.5,-191 354.53,-139.81 373.24,-79.67 386.68,-45.78"/>
<polygon fill="black" stroke="black" points="390.07,-46.72 390.64,-36.14 383.6,-44.06 390.07,-46.72"/>
<text text-anchor="start" x="365.5" y="-179.8" font-family="mono" font-size="14.00" fill="#c83500">uriVariables</text>
<text text-anchor="middle" x="378.14" y="-39.94" font-family="Times,serif" font-size="14.00">0..*</text>
</g>
<!-- SecurityScheme -->
<g id="node11" class="node">
<title>SecurityScheme</title>
<polygon fill="#f2f2f2" stroke="transparent" points="1251.5,-233.5 1251.5,-254.5 1373.5,-254.5 1373.5,-233.5 1251.5,-233.5"/>
<polygon fill="none" stroke="#8c8c8c" points="1251.5,-233.5 1251.5,-254.5 1373.5,-254.5 1373.5,-233.5 1251.5,-233.5"/>
<text text-anchor="start" x="1254.5" y="-241.3" font-family="mono" font-weight="bold" font-size="14.00">SecurityScheme</text>
</g>
<!-- Thing&#45;&gt;SecurityScheme -->
<g id="edge10" class="edge">
<title>Thing&#45;&gt;SecurityScheme</title>
<path fill="none" stroke="black" d="M1057.23,-399.46C1113.34,-375.57 1175.75,-345.94 1229.5,-313 1250,-300.44 1270.99,-283.32 1286.73,-269.47"/>
<polygon fill="black" stroke="black" points="1289.33,-271.84 1294.45,-262.57 1284.67,-266.62 1289.33,-271.84"/>
<text text-anchor="start" x="1250.5" y="-301.8" font-family="mono" font-size="14.00" fill="#c83500">securityDefinitions</text>
<text text-anchor="middle" x="1281.95" y="-266.37" font-family="Times,serif" font-size="14.00">1..*</text>
</g>
</g>
</svg>
