<?xml version="1.0" encoding="UTF-8" standalone="no"?>
<!DOCTYPE svg PUBLIC "-//W3C//DTD SVG 1.1//EN"
 "http://www.w3.org/Graphics/SVG/1.1/DTD/svg11.dtd">
<!-- Generated by graphviz version 3.0.0 (0)
 -->
<!-- Pages: 1 -->
<svg width="1598pt" height="620pt"
 viewBox="0.00 0.00 1597.92 620.00" xmlns="http://www.w3.org/2000/svg" xmlns:xlink="http://www.w3.org/1999/xlink">
<g id="graph0" class="graph" transform="scale(1 1) rotate(0) translate(4 616)">
<polygon fill="white" stroke="transparent" points="-4,4 -4,-616 1593.92,-616 1593.92,4 -4,4"/>
<!-- ActionAffordance -->
<g id="node1" class="node">
<title>ActionAffordance</title>
<polygon fill="#8ccbf2" stroke="transparent" points="568.92,-276 568.92,-297 737.92,-297 737.92,-276 568.92,-276"/>
<polygon fill="none" stroke="#8ccbf2" points="568.92,-276 568.92,-297 737.92,-297 737.92,-276 568.92,-276"/>
<text text-anchor="start" x="586.92" y="-283.8" font-family="mono" font-weight="bold" font-size="14.00" fill="#c83500">ActionAffordance</text>
<polygon fill="#ddeeff" stroke="transparent" points="568.92,-255 568.92,-276 737.92,-276 737.92,-255 568.92,-255"/>
<polygon fill="none" stroke="#8ccbf2" points="568.92,-255 568.92,-276 737.92,-276 737.92,-255 568.92,-255"/>
<text text-anchor="start" x="571.92" y="-262.8" font-family="mono" font-size="14.00" fill="#c83500">safe</text>
<text text-anchor="start" x="605.92" y="-262.8" font-family="Times,serif" font-size="14.00"> : </text>
<text text-anchor="start" x="619.92" y="-262.8" font-family="mono" font-size="14.00" fill="#c83500">boolean</text>
<polygon fill="#ddeeff" stroke="transparent" points="568.92,-234 568.92,-255 737.92,-255 737.92,-234 568.92,-234"/>
<polygon fill="none" stroke="#8ccbf2" points="568.92,-234 568.92,-255 737.92,-255 737.92,-234 568.92,-234"/>
<text text-anchor="start" x="571.92" y="-241.8" font-family="mono" font-size="14.00" fill="#c83500">idempotent</text>
<text text-anchor="start" x="654.92" y="-241.8" font-family="Times,serif" font-size="14.00"> : </text>
<text text-anchor="start" x="668.92" y="-241.8" font-family="mono" font-size="14.00" fill="#c83500">boolean</text>
<polygon fill="#ddeeff" stroke="transparent" points="568.92,-213 568.92,-234 737.92,-234 737.92,-213 568.92,-213"/>
<polygon fill="none" stroke="#8ccbf2" points="568.92,-213 568.92,-234 737.92,-234 737.92,-213 568.92,-213"/>
<text text-anchor="start" x="571.92" y="-220.8" font-family="mono" font-size="14.00" fill="#c83500">synchronous</text>
<text text-anchor="start" x="662.92" y="-220.8" font-family="Times,serif" font-size="14.00"> : </text>
<text text-anchor="start" x="676.92" y="-220.8" font-family="mono" font-size="14.00" fill="#c83500">boolean</text>
</g>
<!-- InteractionAffordance -->
<g id="node3" class="node">
<title>InteractionAffordance</title>
<polygon fill="#8ccbf2" stroke="transparent" points="801.92,-132.5 801.92,-153.5 981.92,-153.5 981.92,-132.5 801.92,-132.5"/>
<polygon fill="none" stroke="#8ccbf2" points="801.92,-132.5 801.92,-153.5 981.92,-153.5 981.92,-132.5 801.92,-132.5"/>
<text text-anchor="start" x="804.92" y="-140.3" font-family="mono" font-weight="bold" font-size="14.00" fill="#c83500">InteractionAffordance</text>
<polygon fill="#ddeeff" stroke="transparent" points="801.92,-111.5 801.92,-132.5 981.92,-132.5 981.92,-111.5 801.92,-111.5"/>
<polygon fill="none" stroke="#8ccbf2" points="801.92,-111.5 801.92,-132.5 981.92,-132.5 981.92,-111.5 801.92,-111.5"/>
<text text-anchor="start" x="804.92" y="-119.3" font-family="mono" font-size="14.00" fill="#c83500">title</text>
<text text-anchor="start" x="846.92" y="-119.3" font-family="Times,serif" font-size="14.00"> : </text>
<text text-anchor="start" x="860.92" y="-119.3" font-family="mono" font-size="14.00" fill="#c83500">string</text>
<polygon fill="#ddeeff" stroke="transparent" points="801.92,-90.5 801.92,-111.5 981.92,-111.5 981.92,-90.5 801.92,-90.5"/>
<polygon fill="none" stroke="#8ccbf2" points="801.92,-90.5 801.92,-111.5 981.92,-111.5 981.92,-90.5 801.92,-90.5"/>
<text text-anchor="start" x="804.92" y="-98.3" font-family="mono" font-size="14.00" fill="#c83500">description</text>
<text text-anchor="start" x="895.92" y="-98.3" font-family="Times,serif" font-size="14.00"> : </text>
<text text-anchor="start" x="909.92" y="-98.3" font-family="mono" font-size="14.00" fill="#c83500">string</text>
</g>
<!-- ActionAffordance&#45;&gt;InteractionAffordance -->
<g id="edge22" class="edge">
<title>ActionAffordance&#45;&gt;InteractionAffordance</title>
<path fill="none" stroke="black" d="M735.5,-208.91C762.9,-193.95 793.17,-177.42 819.72,-162.92"/>
<polygon fill="white" stroke="black" points="821.47,-165.95 828.57,-158.09 818.12,-159.81 821.47,-165.95"/>
</g>
<!-- DataSchema -->
<g id="node10" class="node">
<title>DataSchema</title>
<polygon fill="#f2f2f2" stroke="transparent" points="429.92,-7 429.92,-28 518.92,-28 518.92,-7 429.92,-7"/>
<polygon fill="none" stroke="#8c8c8c" points="429.92,-7 429.92,-28 518.92,-28 518.92,-7 429.92,-7"/>
<text text-anchor="start" x="432.92" y="-14.8" font-family="mono" font-weight="bold" font-size="14.00">DataSchema</text>
</g>
<!-- ActionAffordance&#45;&gt;DataSchema -->
<g id="edge5" class="edge">
<title>ActionAffordance&#45;&gt;DataSchema</title>
<path fill="none" stroke="black" d="M683.5,-208.67C702.65,-174.28 720.47,-126.36 701.92,-87 692.09,-66.15 682.8,-63.75 661.92,-54 622.74,-35.7 574.76,-26.96 537.07,-22.79"/>
<polygon fill="black" stroke="black" points="537.04,-19.27 526.74,-21.73 536.33,-26.23 537.04,-19.27"/>
<text text-anchor="start" x="709.92" y="-118.8" font-family="mono" font-size="14.00" fill="#c83500">input</text>
<text text-anchor="middle" x="540.74" y="-25.53" font-family="Times,serif" font-size="14.00">0..1</text>
</g>
<!-- ActionAffordance&#45;&gt;DataSchema -->
<g id="edge6" class="edge">
<title>ActionAffordance&#45;&gt;DataSchema</title>
<path fill="none" stroke="black" d="M650.17,-208.85C646.07,-156.87 636.51,-75.84 615.92,-54 604.79,-42.2 569.39,-33.46 536.72,-27.66"/>
<polygon fill="black" stroke="black" points="537.15,-24.18 526.7,-25.96 535.98,-31.09 537.15,-24.18"/>
<text text-anchor="start" x="645.92" y="-118.8" font-family="mono" font-size="14.00" fill="#c83500">output</text>
<text text-anchor="middle" x="540.7" y="-14.76" font-family="Times,serif" font-size="14.00">0..1</text>
</g>
<!-- EventAffordance -->
<g id="node2" class="node">
<title>EventAffordance</title>
<polygon fill="#8ccbf2" stroke="transparent" points="304.92,-244 304.92,-265 434.92,-265 434.92,-244 304.92,-244"/>
<polygon fill="none" stroke="#8ccbf2" points="304.92,-244 304.92,-265 434.92,-265 434.92,-244 304.92,-244"/>
<text text-anchor="start" x="307.92" y="-251.8" font-family="mono" font-weight="bold" font-size="14.00" fill="#c83500">EventAffordance</text>
</g>
<!-- EventAffordance&#45;&gt;InteractionAffordance -->
<g id="edge23" class="edge">
<title>EventAffordance&#45;&gt;InteractionAffordance</title>
<path fill="none" stroke="black" d="M435.97,-236.95C470.2,-228.27 512.73,-217.74 550.92,-209 588.98,-200.29 598.78,-199.39 636.92,-191 700.62,-176.98 716.93,-174.95 779.92,-158 781.19,-157.66 782.47,-157.31 783.75,-156.96"/>
<polygon fill="white" stroke="black" points="785,-160.25 793.7,-154.19 783.13,-153.5 785,-160.25"/>
</g>
<!-- EventAffordance&#45;&gt;DataSchema -->
<g id="edge7" class="edge">
<title>EventAffordance&#45;&gt;DataSchema</title>
<path fill="none" stroke="black" d="M296.71,-243.86C244.98,-232.46 179.17,-208.42 145.92,-158 128.55,-131.66 127.15,-112.36 145.92,-87 176.88,-45.17 324.86,-28.59 411.11,-22.4"/>
<polygon fill="black" stroke="black" points="411.58,-25.88 421.31,-21.7 411.1,-18.9 411.58,-25.88"/>
<text text-anchor="start" x="145.92" y="-118.8" font-family="mono" font-size="14.00" fill="#c83500">subscription</text>
<text text-anchor="middle" x="407.31" y="-10.5" font-family="Times,serif" font-size="14.00">0..1</text>
</g>
<!-- EventAffordance&#45;&gt;DataSchema -->
<g id="edge8" class="edge">
<title>EventAffordance&#45;&gt;DataSchema</title>
<path fill="none" stroke="black" d="M346.39,-236.88C324.97,-219.69 294.79,-191.08 281.92,-158 270.48,-128.59 268.12,-115.38 281.92,-87 304.6,-40.33 364.36,-24.82 411.24,-20.08"/>
<polygon fill="black" stroke="black" points="411.67,-23.56 421.33,-19.21 411.07,-16.59 411.67,-23.56"/>
<text text-anchor="start" x="281.92" y="-118.8" font-family="mono" font-size="14.00" fill="#c83500">data</text>
<text text-anchor="middle" x="407.33" y="-23.01" font-family="Times,serif" font-size="14.00">0..1</text>
</g>
<!-- EventAffordance&#45;&gt;DataSchema -->
<g id="edge9" class="edge">
<title>EventAffordance&#45;&gt;DataSchema</title>
<path fill="none" stroke="black" d="M361.79,-236.96C347.86,-205.08 323.56,-135.28 351.92,-87 365.14,-64.49 388.82,-48.89 411.82,-38.36"/>
<polygon fill="black" stroke="black" points="413.46,-41.47 421.26,-34.29 410.69,-35.04 413.46,-41.47"/>
<text text-anchor="start" x="351.92" y="-118.8" font-family="mono" font-size="14.00" fill="#c83500">dataResponse</text>
<text text-anchor="middle" x="407.26" y="-38.09" font-family="Times,serif" font-size="14.00">0..1</text>
</g>
<!-- EventAffordance&#45;&gt;DataSchema -->
<g id="edge10" class="edge">
<title>EventAffordance&#45;&gt;DataSchema</title>
<path fill="none" stroke="black" d="M390.03,-236.73C409.23,-219.02 437.33,-189.65 451.92,-158 468.61,-121.8 472.96,-75.28 473.92,-46.3"/>
<polygon fill="black" stroke="black" points="477.42,-46.19 474.14,-36.11 470.43,-46.03 477.42,-46.19"/>
<text text-anchor="start" x="470.92" y="-118.8" font-family="mono" font-size="14.00" fill="#c83500">cancellation</text>
<text text-anchor="middle" x="460.14" y="-39.91" font-family="Times,serif" font-size="14.00">0..1</text>
</g>
<!-- MultiLanguage -->
<g id="node4" class="node">
<title>MultiLanguage</title>
<polygon fill="#8ccbf2" stroke="transparent" points="1159.92,-7 1159.92,-28 1273.92,-28 1273.92,-7 1159.92,-7"/>
<polygon fill="none" stroke="#8ccbf2" points="1159.92,-7 1159.92,-28 1273.92,-28 1273.92,-7 1159.92,-7"/>
<text text-anchor="start" x="1162.92" y="-14.8" font-family="mono" font-weight="bold" font-size="14.00" fill="#c83500">MultiLanguage</text>
</g>
<!-- InteractionAffordance&#45;&gt;MultiLanguage -->
<g id="edge12" class="edge">
<title>InteractionAffordance&#45;&gt;MultiLanguage</title>
<path fill="none" stroke="black" d="M956.36,-86.87C980.46,-75.05 1008.43,-62.65 1034.92,-54 1069.29,-42.78 1108.56,-34.67 1141.8,-29.09"/>
<polygon fill="black" stroke="black" points="1142.6,-32.51 1151.91,-27.45 1141.47,-25.6 1142.6,-32.51"/>
<text text-anchor="start" x="1034.92" y="-57.8" font-family="mono" font-size="14.00" fill="#c83500">titles</text>
<text text-anchor="middle" x="1139.41" y="-31.25" font-family="Times,serif" font-size="14.00">0..*</text>
</g>
<!-- InteractionAffordance&#45;&gt;MultiLanguage -->
<g id="edge14" class="edge">
<title>InteractionAffordance&#45;&gt;MultiLanguage</title>
<path fill="none" stroke="black" d="M990.15,-96.74C1020.7,-88.52 1054.37,-78.92 1084.92,-69 1111.87,-60.25 1141.41,-49.2 1165.7,-39.72"/>
<polygon fill="black" stroke="black" points="1167.05,-42.95 1175.08,-36.03 1164.49,-36.43 1167.05,-42.95"/>
<text text-anchor="start" x="1125.92" y="-57.8" font-family="mono" font-size="14.00" fill="#c83500">descriptions</text>
<text text-anchor="middle" x="1187.58" y="-39.83" font-family="Times,serif" font-size="14.00">0..*</text>
</g>
<!-- Form -->
<g id="node8" class="node">
<title>Form</title>
<polygon fill="#f2f2f2" stroke="transparent" points="983.92,-7 983.92,-28 1023.92,-28 1023.92,-7 983.92,-7"/>
<polygon fill="none" stroke="#8c8c8c" points="983.92,-7 983.92,-28 1023.92,-28 1023.92,-7 983.92,-7"/>
<text text-anchor="start" x="986.92" y="-14.8" font-family="mono" font-weight="bold" font-size="14.00">Form</text>
</g>
<!-- InteractionAffordance&#45;&gt;Form -->
<g id="edge1" class="edge">
<title>InteractionAffordance&#45;&gt;Form</title>
<path fill="none" stroke="black" d="M917.02,-86.98C926.07,-75.77 936.8,-63.72 947.92,-54 953.67,-48.97 960.23,-44.18 966.78,-39.86"/>
<polygon fill="black" stroke="black" points="969.05,-42.56 975.63,-34.26 965.31,-36.65 969.05,-42.56"/>
<text text-anchor="start" x="947.92" y="-57.8" font-family="mono" font-size="14.00" fill="#c83500">forms</text>
<text text-anchor="middle" x="963.13" y="-38.06" font-family="Times,serif" font-size="14.00">1..*</text>
</g>
<!-- InteractionAffordance&#45;&gt;DataSchema -->
<g id="edge18" class="edge">
<title>InteractionAffordance&#45;&gt;DataSchema</title>
<path fill="none" stroke="black" d="M829.07,-86.84C804.43,-74.65 775.49,-62.01 747.92,-54 677.36,-33.5 593.11,-25.01 536.84,-21.48"/>
<polygon fill="black" stroke="black" points="536.85,-17.98 526.66,-20.88 536.44,-24.97 536.85,-17.98"/>
<text text-anchor="start" x="789.92" y="-57.8" font-family="mono" font-size="14.00" fill="#c83500">uriVariables</text>
<text text-anchor="middle" x="539.16" y="-9.68" font-family="Times,serif" font-size="14.00">0..*</text>
</g>
<!-- PropertyAffordance -->
<g id="node5" class="node">
<title>PropertyAffordance</title>
<polygon fill="#8ccbf2" stroke="transparent" points="771.92,-255 771.92,-276 932.92,-276 932.92,-255 771.92,-255"/>
<polygon fill="none" stroke="#8ccbf2" points="771.92,-255 771.92,-276 932.92,-276 932.92,-255 771.92,-255"/>
<text text-anchor="start" x="777.92" y="-262.8" font-family="mono" font-weight="bold" font-size="14.00" fill="#c83500">PropertyAffordance</text>
<polygon fill="#ddeeff" stroke="transparent" points="771.92,-234 771.92,-255 932.92,-255 932.92,-234 771.92,-234"/>
<polygon fill="none" stroke="#8ccbf2" points="771.92,-234 771.92,-255 932.92,-255 932.92,-234 771.92,-234"/>
<text text-anchor="start" x="774.92" y="-241.8" font-family="mono" font-size="14.00" fill="#c83500">observable</text>
<text text-anchor="start" x="857.92" y="-241.8" font-family="Times,serif" font-size="14.00"> : </text>
<text text-anchor="start" x="871.92" y="-241.8" font-family="mono" font-size="14.00" fill="#c83500">boolean</text>
</g>
<!-- PropertyAffordance&#45;&gt;InteractionAffordance -->
<g id="edge24" class="edge">
<title>PropertyAffordance&#45;&gt;InteractionAffordance</title>
<path fill="none" stroke="black" d="M859.35,-229.76C864.63,-212.53 871.88,-188.88 878.19,-168.27"/>
<polygon fill="white" stroke="black" points="881.62,-169.03 881.21,-158.44 874.93,-166.97 881.62,-169.03"/>
</g>
<!-- Thing -->
<g id="node6" class="node">
<title>Thing</title>
<polygon fill="#8ccbf2" stroke="transparent" points="930.92,-587 930.92,-608 1233.92,-608 1233.92,-587 930.92,-587"/>
<polygon fill="none" stroke="#8ccbf2" points="930.92,-587 930.92,-608 1233.92,-608 1233.92,-587 930.92,-587"/>
<text text-anchor="start" x="1061.42" y="-594.8" font-family="mono" font-weight="bold" font-size="14.00" fill="#c83500">Thing</text>
<polygon fill="#ddeeff" stroke="transparent" points="930.92,-566 930.92,-587 1233.92,-587 1233.92,-566 930.92,-566"/>
<polygon fill="none" stroke="#8ccbf2" points="930.92,-566 930.92,-587 1233.92,-587 1233.92,-566 930.92,-566"/>
<text text-anchor="start" x="933.92" y="-573.8" font-family="mono" font-size="14.00" fill="#c83500">@context</text>
<text text-anchor="start" x="1000.92" y="-573.8" font-family="Times,serif" font-size="14.00"> : </text>
<text text-anchor="start" x="1014.92" y="-573.8" font-family="mono" font-style="italic" font-size="14.00" fill="#c83500">anyURI</text>
<text text-anchor="start" x="1064.92" y="-573.8" font-family="Times,serif" font-style="italic" font-size="14.00"> or Array</text>
<text text-anchor="start" x="1128.92" y="-573.8" font-family="Times,serif" font-size="14.00"> </text>
<text text-anchor="start" x="1133.92" y="-573.8" font-family="Times,serif" font-style="italic" font-size="14.00">(mandatory)</text>
<polygon fill="#ddeeff" stroke="transparent" points="930.92,-545 930.92,-566 1233.92,-566 1233.92,-545 930.92,-545"/>
<polygon fill="none" stroke="#8ccbf2" points="930.92,-545 930.92,-566 1233.92,-566 1233.92,-545 930.92,-545"/>
<text text-anchor="start" x="933.92" y="-552.8" font-family="mono" font-size="14.00" fill="#c83500">@type</text>
<text text-anchor="start" x="975.92" y="-552.8" font-family="Times,serif" font-size="14.00"> : </text>
<text text-anchor="start" x="989.92" y="-552.8" font-family="Times,serif" font-style="italic" font-size="14.00">(Array of) </text>
<text text-anchor="start" x="1062.92" y="-552.8" font-family="mono" font-size="14.00" fill="#c83500">string</text>
<polygon fill="#ddeeff" stroke="transparent" points="930.92,-524 930.92,-545 1233.92,-545 1233.92,-524 930.92,-524"/>
<polygon fill="none" stroke="#8ccbf2" points="930.92,-524 930.92,-545 1233.92,-545 1233.92,-524 930.92,-524"/>
<text text-anchor="start" x="933.92" y="-531.8" font-family="mono" font-size="14.00" fill="#c83500">id</text>
<text text-anchor="start" x="950.92" y="-531.8" font-family="Times,serif" font-size="14.00"> : </text>
<text text-anchor="start" x="964.92" y="-531.8" font-family="mono" font-size="14.00" fill="#c83500">anyURI</text>
<text text-anchor="start" x="1014.92" y="-531.8" font-family="Times,serif" font-size="14.00"> </text>
<text text-anchor="start" x="1019.92" y="-531.8" font-family="Times,serif" font-style="italic" font-size="14.00">(mandatory)</text>
<polygon fill="#ddeeff" stroke="transparent" points="930.92,-503 930.92,-524 1233.92,-524 1233.92,-503 930.92,-503"/>
<polygon fill="none" stroke="#8ccbf2" points="930.92,-503 930.92,-524 1233.92,-524 1233.92,-503 930.92,-503"/>
<text text-anchor="start" x="933.92" y="-510.8" font-family="mono" font-size="14.00" fill="#c83500">title</text>
<text text-anchor="start" x="975.92" y="-510.8" font-family="Times,serif" font-size="14.00"> : </text>
<text text-anchor="start" x="989.92" y="-510.8" font-family="mono" font-size="14.00" fill="#c83500">string</text>
<text text-anchor="start" x="1039.92" y="-510.8" font-family="Times,serif" font-size="14.00"> </text>
<text text-anchor="start" x="1044.92" y="-510.8" font-family="Times,serif" font-style="italic" font-size="14.00">(mandatory)</text>
<polygon fill="#ddeeff" stroke="transparent" points="930.92,-482 930.92,-503 1233.92,-503 1233.92,-482 930.92,-482"/>
<polygon fill="none" stroke="#8ccbf2" points="930.92,-482 930.92,-503 1233.92,-503 1233.92,-482 930.92,-482"/>
<text text-anchor="start" x="933.92" y="-489.8" font-family="mono" font-size="14.00" fill="#c83500">security</text>
<text text-anchor="start" x="1000.92" y="-489.8" font-family="Times,serif" font-size="14.00"> : (Array of) </text>
<text text-anchor="start" x="1087.92" y="-489.8" font-family="mono" font-size="14.00" fill="#c83500">string</text>
<text text-anchor="start" x="1137.92" y="-489.8" font-family="Times,serif" font-size="14.00"> </text>
<text text-anchor="start" x="1142.92" y="-489.8" font-family="Times,serif" font-style="italic" font-size="14.00">(mandatory)</text>
<polygon fill="#ddeeff" stroke="transparent" points="930.92,-461 930.92,-482 1233.92,-482 1233.92,-461 930.92,-461"/>
<polygon fill="none" stroke="#8ccbf2" points="930.92,-461 930.92,-482 1233.92,-482 1233.92,-461 930.92,-461"/>
<text text-anchor="start" x="933.92" y="-468.8" font-family="mono" font-size="14.00" fill="#c83500">description</text>
<text text-anchor="start" x="1024.92" y="-468.8" font-family="Times,serif" font-size="14.00"> : </text>
<text text-anchor="start" x="1038.92" y="-468.8" font-family="mono" font-size="14.00" fill="#c83500">string</text>
<polygon fill="#ddeeff" stroke="transparent" points="930.92,-440 930.92,-461 1233.92,-461 1233.92,-440 930.92,-440"/>
<polygon fill="none" stroke="#8ccbf2" points="930.92,-440 930.92,-461 1233.92,-461 1233.92,-440 930.92,-440"/>
<text text-anchor="start" x="933.92" y="-447.8" font-family="mono" font-size="14.00" fill="#c83500">profile</text>
<text text-anchor="start" x="991.92" y="-447.8" font-family="Times,serif" font-size="14.00"> : (Array of) </text>
<text text-anchor="start" x="1078.92" y="-447.8" font-family="mono" font-size="14.00" fill="#c83500">anyURI</text>
<polygon fill="#ddeeff" stroke="transparent" points="930.92,-419 930.92,-440 1233.92,-440 1233.92,-419 930.92,-419"/>
<polygon fill="none" stroke="#8ccbf2" points="930.92,-419 930.92,-440 1233.92,-440 1233.92,-419 930.92,-419"/>
<text text-anchor="start" x="933.92" y="-426.8" font-family="mono" font-size="14.00" fill="#c83500">created</text>
<text text-anchor="start" x="991.92" y="-426.8" font-family="Times,serif" font-size="14.00"> : </text>
<text text-anchor="start" x="1005.92" y="-426.8" font-family="mono" font-size="14.00" fill="#c83500">dateTime</text>
<polygon fill="#ddeeff" stroke="transparent" points="930.92,-398 930.92,-419 1233.92,-419 1233.92,-398 930.92,-398"/>
<polygon fill="none" stroke="#8ccbf2" points="930.92,-398 930.92,-419 1233.92,-419 1233.92,-398 930.92,-398"/>
<text text-anchor="start" x="933.92" y="-405.8" font-family="mono" font-size="14.00" fill="#c83500">modified</text>
<text text-anchor="start" x="1000.92" y="-405.8" font-family="Times,serif" font-size="14.00"> : </text>
<text text-anchor="start" x="1014.92" y="-405.8" font-family="mono" font-size="14.00" fill="#c83500">dateTime</text>
<polygon fill="#ddeeff" stroke="transparent" points="930.92,-377 930.92,-398 1233.92,-398 1233.92,-377 930.92,-377"/>
<polygon fill="none" stroke="#8ccbf2" points="930.92,-377 930.92,-398 1233.92,-398 1233.92,-377 930.92,-377"/>
<text text-anchor="start" x="933.92" y="-384.8" font-family="mono" font-size="14.00" fill="#c83500">support</text>
<text text-anchor="start" x="991.92" y="-384.8" font-family="Times,serif" font-size="14.00"> : </text>
<text text-anchor="start" x="1005.92" y="-384.8" font-family="mono" font-size="14.00" fill="#c83500">anyURI</text>
<polygon fill="#ddeeff" stroke="transparent" points="930.92,-356 930.92,-377 1233.92,-377 1233.92,-356 930.92,-356"/>
<polygon fill="none" stroke="#8ccbf2" points="930.92,-356 930.92,-377 1233.92,-377 1233.92,-356 930.92,-356"/>
<text text-anchor="start" x="933.92" y="-363.8" font-family="mono" font-size="14.00" fill="#c83500">base</text>
<text text-anchor="start" x="967.92" y="-363.8" font-family="Times,serif" font-size="14.00"> : </text>
<text text-anchor="start" x="981.92" y="-363.8" font-family="mono" font-size="14.00" fill="#c83500">anyURI</text>
</g>
<!-- Thing&#45;&gt;ActionAffordance -->
<g id="edge20" class="edge">
<title>Thing&#45;&gt;ActionAffordance</title>
<path fill="none" stroke="black" d="M922.17,-397.22C863.52,-366.46 799.01,-332.62 747.84,-305.79"/>
<polygon fill="black" stroke="black" points="749.26,-302.57 738.77,-301.03 746,-308.77 749.26,-302.57"/>
<text text-anchor="start" x="791.92" y="-322.8" font-family="mono" font-size="14.00" fill="#c83500">actions</text>
<text text-anchor="middle" x="726.27" y="-304.83" font-family="Times,serif" font-size="14.00">0..*</text>
</g>
<!-- Thing&#45;&gt;EventAffordance -->
<g id="edge21" class="edge">
<title>Thing&#45;&gt;EventAffordance</title>
<path fill="none" stroke="black" d="M922.22,-461.96C794.63,-442.29 613.81,-404.23 468.92,-334 440.83,-320.39 413.31,-297.73 394.45,-280.34"/>
<polygon fill="black" stroke="black" points="396.59,-277.55 386.91,-273.24 391.8,-282.65 396.59,-277.55"/>
<text text-anchor="start" x="468.92" y="-322.8" font-family="mono" font-size="14.00" fill="#c83500">events</text>
<text text-anchor="middle" x="374.41" y="-277.04" font-family="Times,serif" font-size="14.00">0..*</text>
</g>
<!-- Thing&#45;&gt;MultiLanguage -->
<g id="edge13" class="edge">
<title>Thing&#45;&gt;MultiLanguage</title>
<path fill="none" stroke="black" d="M1241.63,-407.05C1279.05,-380.08 1312.08,-345.07 1325.92,-301 1356.32,-204.19 1278.65,-92.79 1238.79,-44.03"/>
<polygon fill="black" stroke="black" points="1241.37,-41.66 1232.28,-36.21 1235.99,-46.14 1241.37,-41.66"/>
<text text-anchor="start" x="1322.92" y="-179.8" font-family="mono" font-size="14.00" fill="#c83500">titles</text>
<text text-anchor="middle" x="1219.78" y="-40.01" font-family="Times,serif" font-size="14.00">0..*</text>
</g>
<!-- Thing&#45;&gt;MultiLanguage -->
<g id="edge15" class="edge">
<title>Thing&#45;&gt;MultiLanguage</title>
<path fill="none" stroke="black" d="M1241.48,-406.84C1273.69,-386.58 1305.21,-362.26 1329.92,-334 1350.95,-309.95 1369.21,-243.51 1376.92,-191 1387,-122.29 1312.89,-68.89 1262.12,-40.83"/>
<polygon fill="black" stroke="black" points="1263.71,-37.71 1253.25,-36.05 1260.39,-43.88 1263.71,-37.71"/>
<text text-anchor="start" x="1377.92" y="-179.8" font-family="mono" font-size="14.00" fill="#c83500">descriptions</text>
<text text-anchor="middle" x="1265.75" y="-39.85" font-family="Times,serif" font-size="14.00">0..*</text>
</g>
<!-- Thing&#45;&gt;PropertyAffordance -->
<g id="edge19" class="edge">
<title>Thing&#45;&gt;PropertyAffordance</title>
<path fill="none" stroke="black" d="M949.79,-351.75C925.26,-327.75 901.8,-304.8 884,-287.38"/>
<polygon fill="black" stroke="black" points="886.32,-284.76 876.73,-280.27 881.43,-289.76 886.32,-284.76"/>
<text text-anchor="start" x="926.92" y="-322.8" font-family="mono" font-size="14.00" fill="#c83500">properties</text>
<text text-anchor="middle" x="864.23" y="-284.07" font-family="Times,serif" font-size="14.00">0..*</text>
</g>
<!-- VersionInfo -->
<g id="node7" class="node">
<title>VersionInfo</title>
<polygon fill="#8ccbf2" stroke="transparent" points="966.92,-265 966.92,-286 1196.92,-286 1196.92,-265 966.92,-265"/>
<polygon fill="none" stroke="#8ccbf2" points="966.92,-265 966.92,-286 1196.92,-286 1196.92,-265 966.92,-265"/>
<text text-anchor="start" x="1036.42" y="-272.8" font-family="mono" font-weight="bold" font-size="14.00" fill="#c83500">VersionInfo</text>
<polygon fill="#ddeeff" stroke="transparent" points="966.92,-244 966.92,-265 1196.92,-265 1196.92,-244 966.92,-244"/>
<polygon fill="none" stroke="#8ccbf2" points="966.92,-244 966.92,-265 1196.92,-265 1196.92,-244 966.92,-244"/>
<text text-anchor="start" x="969.92" y="-251.8" font-family="mono" font-size="14.00" fill="#c83500">instance</text>
<text text-anchor="start" x="1036.92" y="-251.8" font-family="Times,serif" font-size="14.00"> : </text>
<text text-anchor="start" x="1050.92" y="-251.8" font-family="mono" font-size="14.00" fill="#c83500">string</text>
<text text-anchor="start" x="1100.92" y="-251.8" font-family="Times,serif" font-size="14.00"> </text>
<text text-anchor="start" x="1105.92" y="-251.8" font-family="Times,serif" font-style="italic" font-size="14.00">(mandatory)</text>
<polygon fill="#ddeeff" stroke="transparent" points="966.92,-223 966.92,-244 1196.92,-244 1196.92,-223 966.92,-223"/>
<polygon fill="none" stroke="#8ccbf2" points="966.92,-223 966.92,-244 1196.92,-244 1196.92,-223 966.92,-223"/>
<text text-anchor="start" x="969.92" y="-230.8" font-family="mono" font-size="14.00" fill="#c83500">model</text>
<text text-anchor="start" x="1011.92" y="-230.8" font-family="Times,serif" font-size="14.00"> : </text>
<text text-anchor="start" x="1025.92" y="-230.8" font-family="mono" font-size="14.00" fill="#c83500">string</text>
</g>
<!-- Thing&#45;&gt;VersionInfo -->
<g id="edge4" class="edge">
<title>Thing&#45;&gt;VersionInfo</title>
<path fill="none" stroke="black" d="M1081.92,-351.75C1081.92,-333.44 1081.92,-315.75 1081.92,-300.65"/>
<polygon fill="black" stroke="black" points="1085.42,-300.64 1081.92,-290.64 1078.42,-300.64 1085.42,-300.64"/>
<text text-anchor="start" x="1081.92" y="-322.8" font-family="mono" font-size="14.00" fill="#c83500">version</text>
<text text-anchor="middle" x="1067.92" y="-294.44" font-family="Times,serif" font-size="14.00">0..1</text>
</g>
<!-- Thing&#45;&gt;Form -->
<g id="edge3" class="edge">
<title>Thing&#45;&gt;Form</title>
<path fill="none" stroke="black" d="M1190.2,-351.98C1199.74,-335.59 1208,-318.43 1213.92,-301 1249.2,-197.02 1290.05,-137.65 1218.92,-54 1213.23,-47.31 1102.49,-31.89 1042.23,-23.94"/>
<polygon fill="black" stroke="black" points="1042.32,-20.42 1031.95,-22.59 1041.41,-27.36 1042.32,-20.42"/>
<text text-anchor="start" x="1255.92" y="-179.8" font-family="mono" font-size="14.00" fill="#c83500">forms</text>
<text text-anchor="middle" x="1044.45" y="-26.39" font-family="Times,serif" font-size="14.00">0..*</text>
</g>
<!-- Link -->
<g id="node9" class="node">
<title>Link</title>
<polygon fill="#f2f2f2" stroke="transparent" points="1268.92,-244 1268.92,-265 1308.92,-265 1308.92,-244 1268.92,-244"/>
<polygon fill="none" stroke="#8c8c8c" points="1268.92,-244 1268.92,-265 1308.92,-265 1308.92,-244 1268.92,-244"/>
<text text-anchor="start" x="1271.92" y="-251.8" font-family="mono" font-weight="bold" font-size="14.00">Link</text>
</g>
<!-- Thing&#45;&gt;Link -->
<g id="edge2" class="edge">
<title>Thing&#45;&gt;Link</title>
<path fill="none" stroke="black" d="M1231.93,-351.9C1237.14,-346 1242.16,-340.02 1246.92,-334 1259.39,-318.21 1270.08,-298.18 1277.56,-282.38"/>
<polygon fill="black" stroke="black" points="1280.8,-283.71 1281.79,-273.16 1274.44,-280.79 1280.8,-283.71"/>
<text text-anchor="start" x="1256.92" y="-322.8" font-family="mono" font-size="14.00" fill="#c83500">links</text>
<text text-anchor="middle" x="1269.29" y="-276.96" font-family="Times,serif" font-size="14.00">0..*</text>
</g>
<!-- Thing&#45;&gt;DataSchema -->
<g id="edge16" class="edge">
<title>Thing&#45;&gt;DataSchema</title>
<path fill="none" stroke="black" d="M922.31,-462.71C650.7,-427.75 118.09,-341.26 16.92,-191 -79.26,-48.17 264.9,-23.71 411.18,-19.7"/>
<polygon fill="black" stroke="black" points="411.45,-23.2 421.36,-19.45 411.27,-16.2 411.45,-23.2"/>
<text text-anchor="start" x="16.92" y="-179.8" font-family="mono" font-size="14.00" fill="#c83500">schemaDefinitions</text>
<text text-anchor="middle" x="408.86" y="-8.25" font-family="Times,serif" font-size="14.00">0..*</text>
</g>
<!-- Thing&#45;&gt;DataSchema -->
<g id="edge17" class="edge">
<title>Thing&#45;&gt;DataSchema</title>
<path fill="none" stroke="black" d="M922.12,-472.63C799.83,-457 637.87,-414.49 550.92,-301 517.08,-256.83 516.16,-224.22 543.92,-176 551.87,-162.19 566.97,-171.81 574.92,-158 590.66,-130.65 589.74,-114.86 574.92,-87 564.24,-66.94 544.73,-51.74 525.68,-40.86"/>
<polygon fill="black" stroke="black" points="527.16,-37.68 516.7,-36 523.84,-43.84 527.16,-37.68"/>
<text text-anchor="start" x="543.92" y="-179.8" font-family="mono" font-size="14.00" fill="#c83500">uriVariables</text>
<text text-anchor="middle" x="504.2" y="-39.8" font-family="Times,serif" font-size="14.00">0..*</text>
</g>
<!-- SecurityScheme -->
<g id="node11" class="node">
<title>SecurityScheme</title>
<polygon fill="#f2f2f2" stroke="transparent" points="1435.92,-244 1435.92,-265 1557.92,-265 1557.92,-244 1435.92,-244"/>
<polygon fill="none" stroke="#8c8c8c" points="1435.92,-244 1435.92,-265 1557.92,-265 1557.92,-244 1435.92,-244"/>
<text text-anchor="start" x="1438.92" y="-251.8" font-family="mono" font-weight="bold" font-size="14.00">SecurityScheme</text>
</g>
<!-- Thing&#45;&gt;SecurityScheme -->
<g id="edge11" class="edge">
<title>Thing&#45;&gt;SecurityScheme</title>
<path fill="none" stroke="black" d="M1241.73,-423.11C1298.3,-399.34 1360.99,-369.1 1413.92,-334 1436.58,-318.97 1458.84,-297.59 1474.59,-281.01"/>
<polygon fill="black" stroke="black" points="1477.52,-283 1481.78,-273.3 1472.4,-278.23 1477.52,-283"/>
<text text-anchor="start" x="1432.92" y="-322.8" font-family="mono" font-size="14.00" fill="#c83500">securityDefinitions</text>
<text text-anchor="middle" x="1469.28" y="-277.1" font-family="Times,serif" font-size="14.00">1..*</text>
</g>
</g>
</svg>
