<?xml version="1.0" encoding="UTF-8" standalone="no"?>
<!DOCTYPE svg PUBLIC "-//W3C//DTD SVG 1.1//EN"
 "http://www.w3.org/Graphics/SVG/1.1/DTD/svg11.dtd">
<!-- Generated by graphviz version 3.0.0 (0)
 -->
<!-- Pages: 1 -->
<svg width="1593pt" height="599pt"
 viewBox="0.00 0.00 1593.20 599.00" xmlns="http://www.w3.org/2000/svg" xmlns:xlink="http://www.w3.org/1999/xlink">
<g id="graph0" class="graph" transform="scale(1 1) rotate(0) translate(4 595)">
<polygon fill="white" stroke="transparent" points="-4,4 -4,-595 1589.2,-595 1589.2,4 -4,4"/>
<!-- ActionAffordance -->
<g id="node1" class="node">
<title>ActionAffordance</title>
<polygon fill="#8ccbf2" stroke="transparent" points="570.2,-254.5 570.2,-275.5 731.2,-275.5 731.2,-254.5 570.2,-254.5"/>
<polygon fill="none" stroke="#8ccbf2" points="570.2,-254.5 570.2,-275.5 731.2,-275.5 731.2,-254.5 570.2,-254.5"/>
<text text-anchor="start" x="584.2" y="-262.3" font-family="mono" font-weight="bold" font-size="14.00" fill="#c83500">ActionAffordance</text>
<polygon fill="#ddeeff" stroke="transparent" points="570.2,-233.5 570.2,-254.5 731.2,-254.5 731.2,-233.5 570.2,-233.5"/>
<polygon fill="none" stroke="#8ccbf2" points="570.2,-233.5 570.2,-254.5 731.2,-254.5 731.2,-233.5 570.2,-233.5"/>
<text text-anchor="start" x="573.2" y="-241.3" font-family="mono" font-size="14.00" fill="#c83500">safe</text>
<text text-anchor="start" x="607.2" y="-241.3" font-family="Times,serif" font-size="14.00"> : </text>
<text text-anchor="start" x="621.2" y="-241.3" font-family="mono" font-size="14.00" fill="#c83500">boolean</text>
<polygon fill="#ddeeff" stroke="transparent" points="570.2,-212.5 570.2,-233.5 731.2,-233.5 731.2,-212.5 570.2,-212.5"/>
<polygon fill="none" stroke="#8ccbf2" points="570.2,-212.5 570.2,-233.5 731.2,-233.5 731.2,-212.5 570.2,-212.5"/>
<text text-anchor="start" x="573.2" y="-220.3" font-family="mono" font-size="14.00" fill="#c83500">idempotent</text>
<text text-anchor="start" x="656.2" y="-220.3" font-family="Times,serif" font-size="14.00"> : </text>
<text text-anchor="start" x="670.2" y="-220.3" font-family="mono" font-size="14.00" fill="#c83500">boolean</text>
</g>
<!-- InteractionAffordance -->
<g id="node3" class="node">
<title>InteractionAffordance</title>
<polygon fill="#8ccbf2" stroke="transparent" points="803.2,-132.5 803.2,-153.5 983.2,-153.5 983.2,-132.5 803.2,-132.5"/>
<polygon fill="none" stroke="#8ccbf2" points="803.2,-132.5 803.2,-153.5 983.2,-153.5 983.2,-132.5 803.2,-132.5"/>
<text text-anchor="start" x="806.2" y="-140.3" font-family="mono" font-weight="bold" font-size="14.00" fill="#c83500">InteractionAffordance</text>
<polygon fill="#ddeeff" stroke="transparent" points="803.2,-111.5 803.2,-132.5 983.2,-132.5 983.2,-111.5 803.2,-111.5"/>
<polygon fill="none" stroke="#8ccbf2" points="803.2,-111.5 803.2,-132.5 983.2,-132.5 983.2,-111.5 803.2,-111.5"/>
<text text-anchor="start" x="806.2" y="-119.3" font-family="mono" font-size="14.00" fill="#c83500">title</text>
<text text-anchor="start" x="848.2" y="-119.3" font-family="Times,serif" font-size="14.00"> : </text>
<text text-anchor="start" x="862.2" y="-119.3" font-family="mono" font-size="14.00" fill="#c83500">string</text>
<polygon fill="#ddeeff" stroke="transparent" points="803.2,-90.5 803.2,-111.5 983.2,-111.5 983.2,-90.5 803.2,-90.5"/>
<polygon fill="none" stroke="#8ccbf2" points="803.2,-90.5 803.2,-111.5 983.2,-111.5 983.2,-90.5 803.2,-90.5"/>
<text text-anchor="start" x="806.2" y="-98.3" font-family="mono" font-size="14.00" fill="#c83500">description</text>
<text text-anchor="start" x="897.2" y="-98.3" font-family="Times,serif" font-size="14.00"> : </text>
<text text-anchor="start" x="911.2" y="-98.3" font-family="mono" font-size="14.00" fill="#c83500">string</text>
</g>
<!-- ActionAffordance&#45;&gt;InteractionAffordance -->
<g id="edge22" class="edge">
<title>ActionAffordance&#45;&gt;InteractionAffordance</title>
<path fill="none" stroke="black" d="M720.16,-208.95C749.51,-194.46 783.79,-177.53 814.06,-162.58"/>
<polygon fill="white" stroke="black" points="815.9,-165.58 823.31,-158.01 812.8,-159.3 815.9,-165.58"/>
</g>
<!-- DataSchema -->
<g id="node10" class="node">
<title>DataSchema</title>
<polygon fill="#f2f2f2" stroke="transparent" points="431.2,-7 431.2,-28 520.2,-28 520.2,-7 431.2,-7"/>
<polygon fill="none" stroke="#8c8c8c" points="431.2,-7 431.2,-28 520.2,-28 520.2,-7 431.2,-7"/>
<text text-anchor="start" x="434.2" y="-14.8" font-family="mono" font-weight="bold" font-size="14.00">DataSchema</text>
</g>
<!-- ActionAffordance&#45;&gt;DataSchema -->
<g id="edge5" class="edge">
<title>ActionAffordance&#45;&gt;DataSchema</title>
<path fill="none" stroke="black" d="M677.96,-208.59C687.98,-193.86 698.08,-175.97 703.2,-158 711.84,-127.65 716.65,-115.54 703.2,-87 693.37,-66.15 684.08,-63.75 663.2,-54 624.02,-35.7 576.04,-26.96 538.36,-22.79"/>
<polygon fill="black" stroke="black" points="538.32,-19.27 528.02,-21.73 537.61,-26.23 538.32,-19.27"/>
<text text-anchor="start" x="712.2" y="-118.8" font-family="mono" font-size="14.00" fill="#c83500">input</text>
<text text-anchor="middle" x="542.02" y="-10.53" font-family="Times,serif" font-size="14.00">0..1</text>
</g>
<!-- ActionAffordance&#45;&gt;DataSchema -->
<g id="edge6" class="edge">
<title>ActionAffordance&#45;&gt;DataSchema</title>
<path fill="none" stroke="black" d="M648.6,-208.72C645.64,-160.26 637.65,-75.91 617.2,-54 606.13,-42.14 570.74,-33.4 538.05,-27.62"/>
<polygon fill="black" stroke="black" points="538.47,-24.14 528.03,-25.92 537.3,-31.04 538.47,-24.14"/>
<text text-anchor="start" x="645.2" y="-118.8" font-family="mono" font-size="14.00" fill="#c83500">output</text>
<text text-anchor="middle" x="542.03" y="-29.72" font-family="Times,serif" font-size="14.00">0..1</text>
</g>
<!-- EventAffordance -->
<g id="node2" class="node">
<title>EventAffordance</title>
<polygon fill="#8ccbf2" stroke="transparent" points="306.2,-233.5 306.2,-254.5 436.2,-254.5 436.2,-233.5 306.2,-233.5"/>
<polygon fill="none" stroke="#8ccbf2" points="306.2,-233.5 306.2,-254.5 436.2,-254.5 436.2,-233.5 306.2,-233.5"/>
<text text-anchor="start" x="309.2" y="-241.3" font-family="mono" font-weight="bold" font-size="14.00" fill="#c83500">EventAffordance</text>
</g>
<!-- EventAffordance&#45;&gt;InteractionAffordance -->
<g id="edge23" class="edge">
<title>EventAffordance&#45;&gt;InteractionAffordance</title>
<path fill="none" stroke="black" d="M444.43,-229.77C498.15,-219.53 572.83,-204.97 638.2,-191 701.99,-177.37 718.21,-174.95 781.2,-158 782.47,-157.66 783.75,-157.31 785.03,-156.96"/>
<polygon fill="white" stroke="black" points="786.28,-160.25 794.98,-154.19 784.41,-153.5 786.28,-160.25"/>
</g>
<!-- EventAffordance&#45;&gt;DataSchema -->
<g id="edge7" class="edge">
<title>EventAffordance&#45;&gt;DataSchema</title>
<path fill="none" stroke="black" d="M297.99,-236.79C246.44,-227.81 180.84,-206.85 147.2,-158 129.3,-132.01 128.43,-112.36 147.2,-87 178.16,-45.17 326.15,-28.59 412.4,-22.4"/>
<polygon fill="black" stroke="black" points="412.86,-25.88 422.6,-21.7 412.38,-18.9 412.86,-25.88"/>
<text text-anchor="start" x="147.2" y="-118.8" font-family="mono" font-size="14.00" fill="#c83500">subscription</text>
<text text-anchor="middle" x="408.6" y="-10.5" font-family="Times,serif" font-size="14.00">0..1</text>
</g>
<!-- EventAffordance&#45;&gt;DataSchema -->
<g id="edge8" class="edge">
<title>EventAffordance&#45;&gt;DataSchema</title>
<path fill="none" stroke="black" d="M344.41,-226.5C323.34,-211.4 295.56,-187.23 283.2,-158 270.91,-128.93 269.41,-115.38 283.2,-87 305.88,-40.33 365.64,-24.82 412.52,-20.08"/>
<polygon fill="black" stroke="black" points="412.95,-23.56 422.61,-19.21 412.35,-16.59 412.95,-23.56"/>
<text text-anchor="start" x="283.2" y="-118.8" font-family="mono" font-size="14.00" fill="#c83500">data</text>
<text text-anchor="middle" x="408.61" y="-23.01" font-family="Times,serif" font-size="14.00">0..1</text>
</g>
<!-- EventAffordance&#45;&gt;DataSchema -->
<g id="edge9" class="edge">
<title>EventAffordance&#45;&gt;DataSchema</title>
<path fill="none" stroke="black" d="M362.77,-226.11C349.31,-195.63 327.02,-131.57 353.2,-87 366.42,-64.49 390.1,-48.89 413.11,-38.36"/>
<polygon fill="black" stroke="black" points="414.75,-41.47 422.55,-34.29 411.98,-35.04 414.75,-41.47"/>
<text text-anchor="start" x="353.2" y="-118.8" font-family="mono" font-size="14.00" fill="#c83500">dataResponse</text>
<text text-anchor="middle" x="408.55" y="-38.09" font-family="Times,serif" font-size="14.00">0..1</text>
</g>
<!-- EventAffordance&#45;&gt;DataSchema -->
<g id="edge10" class="edge">
<title>EventAffordance&#45;&gt;DataSchema</title>
<path fill="none" stroke="black" d="M393.92,-226.5C413,-210.89 439.3,-186 453.2,-158 470.92,-122.29 474.99,-75.64 475.61,-46.5"/>
<polygon fill="black" stroke="black" points="479.11,-46.28 475.7,-36.24 472.11,-46.21 479.11,-46.28"/>
<text text-anchor="start" x="473.2" y="-118.8" font-family="mono" font-size="14.00" fill="#c83500">cancellation</text>
<text text-anchor="middle" x="461.7" y="-40.04" font-family="Times,serif" font-size="14.00">0..1</text>
</g>
<!-- MultiLanguage -->
<g id="node4" class="node">
<title>MultiLanguage</title>
<polygon fill="#8ccbf2" stroke="transparent" points="1153.2,-7 1153.2,-28 1267.2,-28 1267.2,-7 1153.2,-7"/>
<polygon fill="none" stroke="#8ccbf2" points="1153.2,-7 1153.2,-28 1267.2,-28 1267.2,-7 1153.2,-7"/>
<text text-anchor="start" x="1156.2" y="-14.8" font-family="mono" font-weight="bold" font-size="14.00" fill="#c83500">MultiLanguage</text>
</g>
<!-- InteractionAffordance&#45;&gt;MultiLanguage -->
<g id="edge12" class="edge">
<title>InteractionAffordance&#45;&gt;MultiLanguage</title>
<path fill="none" stroke="black" d="M953.98,-86.95C976.96,-75.07 1003.73,-62.61 1029.2,-54 1063.14,-42.53 1102,-34.4 1134.99,-28.88"/>
<polygon fill="black" stroke="black" points="1135.71,-32.31 1145.02,-27.25 1134.59,-25.4 1135.71,-32.31"/>
<text text-anchor="start" x="1029.2" y="-57.8" font-family="mono" font-size="14.00" fill="#c83500">titles</text>
<text text-anchor="middle" x="1132.52" y="-31.05" font-family="Times,serif" font-size="14.00">0..*</text>
</g>
<!-- InteractionAffordance&#45;&gt;MultiLanguage -->
<g id="edge14" class="edge">
<title>InteractionAffordance&#45;&gt;MultiLanguage</title>
<path fill="none" stroke="black" d="M991.68,-95.48C1020.08,-87.49 1051.01,-78.34 1079.2,-69 1105.7,-60.22 1134.76,-49.27 1158.75,-39.86"/>
<polygon fill="black" stroke="black" points="1160.34,-42.99 1168.36,-36.07 1157.77,-36.48 1160.34,-42.99"/>
<text text-anchor="start" x="1119.2" y="-57.8" font-family="mono" font-size="14.00" fill="#c83500">descriptions</text>
<text text-anchor="middle" x="1180.86" y="-39.87" font-family="Times,serif" font-size="14.00">0..*</text>
</g>
<!-- Form -->
<g id="node8" class="node">
<title>Form</title>
<polygon fill="#f2f2f2" stroke="transparent" points="981.2,-7 981.2,-28 1021.2,-28 1021.2,-7 981.2,-7"/>
<polygon fill="none" stroke="#8c8c8c" points="981.2,-7 981.2,-28 1021.2,-28 1021.2,-7 981.2,-7"/>
<text text-anchor="start" x="984.2" y="-14.8" font-family="mono" font-weight="bold" font-size="14.00">Form</text>
</g>
<!-- InteractionAffordance&#45;&gt;Form -->
<g id="edge1" class="edge">
<title>InteractionAffordance&#45;&gt;Form</title>
<path fill="none" stroke="black" d="M915.58,-86.81C923.78,-75.59 933.65,-63.58 944.2,-54 950.24,-48.51 957.27,-43.4 964.28,-38.87"/>
<polygon fill="black" stroke="black" points="966.39,-41.68 973.08,-33.45 962.72,-35.71 966.39,-41.68"/>
<text text-anchor="start" x="944.2" y="-57.8" font-family="mono" font-size="14.00" fill="#c83500">forms</text>
<text text-anchor="middle" x="960.58" y="-37.25" font-family="Times,serif" font-size="14.00">1..*</text>
</g>
<!-- InteractionAffordance&#45;&gt;DataSchema -->
<g id="edge18" class="edge">
<title>InteractionAffordance&#45;&gt;DataSchema</title>
<path fill="none" stroke="black" d="M830.35,-86.84C805.71,-74.65 776.77,-62.01 749.2,-54 678.64,-33.5 594.4,-25.01 538.12,-21.48"/>
<polygon fill="black" stroke="black" points="538.14,-17.98 527.95,-20.88 537.72,-24.97 538.14,-17.98"/>
<text text-anchor="start" x="791.2" y="-57.8" font-family="mono" font-size="14.00" fill="#c83500">uriVariables</text>
<text text-anchor="middle" x="540.45" y="-9.68" font-family="Times,serif" font-size="14.00">0..*</text>
</g>
<!-- PropertyAffordance -->
<g id="node5" class="node">
<title>PropertyAffordance</title>
<polygon fill="#8ccbf2" stroke="transparent" points="765.2,-244.5 765.2,-265.5 926.2,-265.5 926.2,-244.5 765.2,-244.5"/>
<polygon fill="none" stroke="#8ccbf2" points="765.2,-244.5 765.2,-265.5 926.2,-265.5 926.2,-244.5 765.2,-244.5"/>
<text text-anchor="start" x="771.2" y="-252.3" font-family="mono" font-weight="bold" font-size="14.00" fill="#c83500">PropertyAffordance</text>
<polygon fill="#ddeeff" stroke="transparent" points="765.2,-223.5 765.2,-244.5 926.2,-244.5 926.2,-223.5 765.2,-223.5"/>
<polygon fill="none" stroke="#8ccbf2" points="765.2,-223.5 765.2,-244.5 926.2,-244.5 926.2,-223.5 765.2,-223.5"/>
<text text-anchor="start" x="768.2" y="-231.3" font-family="mono" font-size="14.00" fill="#c83500">observable</text>
<text text-anchor="start" x="851.2" y="-231.3" font-family="Times,serif" font-size="14.00"> : </text>
<text text-anchor="start" x="865.2" y="-231.3" font-family="mono" font-size="14.00" fill="#c83500">boolean</text>
</g>
<!-- PropertyAffordance&#45;&gt;InteractionAffordance -->
<g id="edge24" class="edge">
<title>PropertyAffordance&#45;&gt;InteractionAffordance</title>
<path fill="none" stroke="black" d="M854.91,-219.22C860.83,-204.42 868.57,-185.08 875.54,-167.65"/>
<polygon fill="white" stroke="black" points="878.85,-168.79 879.32,-158.21 872.35,-166.19 878.85,-168.79"/>
</g>
<!-- Thing -->
<g id="node6" class="node">
<title>Thing</title>
<polygon fill="#8ccbf2" stroke="transparent" points="924.2,-566 924.2,-587 1227.2,-587 1227.2,-566 924.2,-566"/>
<polygon fill="none" stroke="#8ccbf2" points="924.2,-566 924.2,-587 1227.2,-587 1227.2,-566 924.2,-566"/>
<text text-anchor="start" x="1054.7" y="-573.8" font-family="mono" font-weight="bold" font-size="14.00" fill="#c83500">Thing</text>
<polygon fill="#ddeeff" stroke="transparent" points="924.2,-545 924.2,-566 1227.2,-566 1227.2,-545 924.2,-545"/>
<polygon fill="none" stroke="#8ccbf2" points="924.2,-545 924.2,-566 1227.2,-566 1227.2,-545 924.2,-545"/>
<text text-anchor="start" x="927.2" y="-552.8" font-family="mono" font-size="14.00" fill="#c83500">@context</text>
<text text-anchor="start" x="994.2" y="-552.8" font-family="Times,serif" font-size="14.00"> : </text>
<text text-anchor="start" x="1008.2" y="-552.8" font-family="mono" font-style="italic" font-size="14.00" fill="#c83500">anyURI</text>
<text text-anchor="start" x="1058.2" y="-552.8" font-family="Times,serif" font-style="italic" font-size="14.00"> or Array</text>
<text text-anchor="start" x="1122.2" y="-552.8" font-family="Times,serif" font-size="14.00"> </text>
<text text-anchor="start" x="1127.2" y="-552.8" font-family="Times,serif" font-style="italic" font-size="14.00">(mandatory)</text>
<polygon fill="#ddeeff" stroke="transparent" points="924.2,-524 924.2,-545 1227.2,-545 1227.2,-524 924.2,-524"/>
<polygon fill="none" stroke="#8ccbf2" points="924.2,-524 924.2,-545 1227.2,-545 1227.2,-524 924.2,-524"/>
<text text-anchor="start" x="927.2" y="-531.8" font-family="mono" font-size="14.00" fill="#c83500">@type</text>
<text text-anchor="start" x="969.2" y="-531.8" font-family="Times,serif" font-size="14.00"> : </text>
<text text-anchor="start" x="983.2" y="-531.8" font-family="Times,serif" font-style="italic" font-size="14.00">(Array of) </text>
<text text-anchor="start" x="1056.2" y="-531.8" font-family="mono" font-size="14.00" fill="#c83500">string</text>
<polygon fill="#ddeeff" stroke="transparent" points="924.2,-503 924.2,-524 1227.2,-524 1227.2,-503 924.2,-503"/>
<polygon fill="none" stroke="#8ccbf2" points="924.2,-503 924.2,-524 1227.2,-524 1227.2,-503 924.2,-503"/>
<text text-anchor="start" x="927.2" y="-510.8" font-family="mono" font-size="14.00" fill="#c83500">id</text>
<text text-anchor="start" x="944.2" y="-510.8" font-family="Times,serif" font-size="14.00"> : </text>
<text text-anchor="start" x="958.2" y="-510.8" font-family="mono" font-size="14.00" fill="#c83500">anyURI</text>
<text text-anchor="start" x="1008.2" y="-510.8" font-family="Times,serif" font-size="14.00"> </text>
<text text-anchor="start" x="1013.2" y="-510.8" font-family="Times,serif" font-style="italic" font-size="14.00">(mandatory)</text>
<polygon fill="#ddeeff" stroke="transparent" points="924.2,-482 924.2,-503 1227.2,-503 1227.2,-482 924.2,-482"/>
<polygon fill="none" stroke="#8ccbf2" points="924.2,-482 924.2,-503 1227.2,-503 1227.2,-482 924.2,-482"/>
<text text-anchor="start" x="927.2" y="-489.8" font-family="mono" font-size="14.00" fill="#c83500">title</text>
<text text-anchor="start" x="969.2" y="-489.8" font-family="Times,serif" font-size="14.00"> : </text>
<text text-anchor="start" x="983.2" y="-489.8" font-family="mono" font-size="14.00" fill="#c83500">string</text>
<text text-anchor="start" x="1033.2" y="-489.8" font-family="Times,serif" font-size="14.00"> </text>
<text text-anchor="start" x="1038.2" y="-489.8" font-family="Times,serif" font-style="italic" font-size="14.00">(mandatory)</text>
<polygon fill="#ddeeff" stroke="transparent" points="924.2,-461 924.2,-482 1227.2,-482 1227.2,-461 924.2,-461"/>
<polygon fill="none" stroke="#8ccbf2" points="924.2,-461 924.2,-482 1227.2,-482 1227.2,-461 924.2,-461"/>
<text text-anchor="start" x="927.2" y="-468.8" font-family="mono" font-size="14.00" fill="#c83500">description</text>
<text text-anchor="start" x="1018.2" y="-468.8" font-family="Times,serif" font-size="14.00"> : </text>
<text text-anchor="start" x="1032.2" y="-468.8" font-family="mono" font-size="14.00" fill="#c83500">string</text>
<polygon fill="#ddeeff" stroke="transparent" points="924.2,-440 924.2,-461 1227.2,-461 1227.2,-440 924.2,-440"/>
<polygon fill="none" stroke="#8ccbf2" points="924.2,-440 924.2,-461 1227.2,-461 1227.2,-440 924.2,-440"/>
<text text-anchor="start" x="927.2" y="-447.8" font-family="mono" font-size="14.00" fill="#c83500">security</text>
<text text-anchor="start" x="994.2" y="-447.8" font-family="Times,serif" font-size="14.00"> : (Array of) </text>
<text text-anchor="start" x="1081.2" y="-447.8" font-family="mono" font-size="14.00" fill="#c83500">string</text>
<text text-anchor="start" x="1131.2" y="-447.8" font-family="Times,serif" font-size="14.00"> </text>
<text text-anchor="start" x="1136.2" y="-447.8" font-family="Times,serif" font-style="italic" font-size="14.00">(mandatory)</text>
<polygon fill="#ddeeff" stroke="transparent" points="924.2,-419 924.2,-440 1227.2,-440 1227.2,-419 924.2,-419"/>
<polygon fill="none" stroke="#8ccbf2" points="924.2,-419 924.2,-440 1227.2,-440 1227.2,-419 924.2,-419"/>
<text text-anchor="start" x="927.2" y="-426.8" font-family="mono" font-size="14.00" fill="#c83500">profile</text>
<text text-anchor="start" x="985.2" y="-426.8" font-family="Times,serif" font-size="14.00"> : (Array of) </text>
<text text-anchor="start" x="1072.2" y="-426.8" font-family="mono" font-size="14.00" fill="#c83500">anyURI</text>
<polygon fill="#ddeeff" stroke="transparent" points="924.2,-398 924.2,-419 1227.2,-419 1227.2,-398 924.2,-398"/>
<polygon fill="none" stroke="#8ccbf2" points="924.2,-398 924.2,-419 1227.2,-419 1227.2,-398 924.2,-398"/>
<text text-anchor="start" x="927.2" y="-405.8" font-family="mono" font-size="14.00" fill="#c83500">created</text>
<text text-anchor="start" x="985.2" y="-405.8" font-family="Times,serif" font-size="14.00"> : </text>
<text text-anchor="start" x="999.2" y="-405.8" font-family="mono" font-size="14.00" fill="#c83500">dateTime</text>
<polygon fill="#ddeeff" stroke="transparent" points="924.2,-377 924.2,-398 1227.2,-398 1227.2,-377 924.2,-377"/>
<polygon fill="none" stroke="#8ccbf2" points="924.2,-377 924.2,-398 1227.2,-398 1227.2,-377 924.2,-377"/>
<text text-anchor="start" x="927.2" y="-384.8" font-family="mono" font-size="14.00" fill="#c83500">modified</text>
<text text-anchor="start" x="994.2" y="-384.8" font-family="Times,serif" font-size="14.00"> : </text>
<text text-anchor="start" x="1008.2" y="-384.8" font-family="mono" font-size="14.00" fill="#c83500">dateTime</text>
<polygon fill="#ddeeff" stroke="transparent" points="924.2,-356 924.2,-377 1227.2,-377 1227.2,-356 924.2,-356"/>
<polygon fill="none" stroke="#8ccbf2" points="924.2,-356 924.2,-377 1227.2,-377 1227.2,-356 924.2,-356"/>
<text text-anchor="start" x="927.2" y="-363.8" font-family="mono" font-size="14.00" fill="#c83500">support</text>
<text text-anchor="start" x="985.2" y="-363.8" font-family="Times,serif" font-size="14.00"> : </text>
<text text-anchor="start" x="999.2" y="-363.8" font-family="mono" font-size="14.00" fill="#c83500">anyURI</text>
<polygon fill="#ddeeff" stroke="transparent" points="924.2,-335 924.2,-356 1227.2,-356 1227.2,-335 924.2,-335"/>
<polygon fill="none" stroke="#8ccbf2" points="924.2,-335 924.2,-356 1227.2,-356 1227.2,-335 924.2,-335"/>
<text text-anchor="start" x="927.2" y="-342.8" font-family="mono" font-size="14.00" fill="#c83500">base</text>
<text text-anchor="start" x="961.2" y="-342.8" font-family="Times,serif" font-size="14.00"> : </text>
<text text-anchor="start" x="975.2" y="-342.8" font-family="mono" font-size="14.00" fill="#c83500">anyURI</text>
</g>
<!-- Thing&#45;&gt;ActionAffordance -->
<g id="edge20" class="edge">
<title>Thing&#45;&gt;ActionAffordance</title>
<path fill="none" stroke="black" d="M915.43,-379.37C851.25,-346.97 780.22,-311.12 727.83,-284.68"/>
<polygon fill="black" stroke="black" points="729.1,-281.4 718.6,-280.02 725.95,-287.65 729.1,-281.4"/>
<text text-anchor="start" x="776.2" y="-301.8" font-family="mono" font-size="14.00" fill="#c83500">actions</text>
<text text-anchor="middle" x="706.1" y="-283.82" font-family="Times,serif" font-size="14.00">0..*</text>
</g>
<!-- Thing&#45;&gt;EventAffordance -->
<g id="edge21" class="edge">
<title>Thing&#45;&gt;EventAffordance</title>
<path fill="none" stroke="black" d="M915.64,-437.36C790.6,-415.85 614.28,-377.06 470.2,-313 444.54,-301.59 418.4,-283.44 399.44,-268.83"/>
<polygon fill="black" stroke="black" points="401.54,-266.03 391.51,-262.61 397.22,-271.54 401.54,-266.03"/>
<text text-anchor="start" x="470.2" y="-301.8" font-family="mono" font-size="14.00" fill="#c83500">events</text>
<text text-anchor="middle" x="379.01" y="-266.41" font-family="Times,serif" font-size="14.00">0..*</text>
</g>
<!-- Thing&#45;&gt;MultiLanguage -->
<g id="edge13" class="edge">
<title>Thing&#45;&gt;MultiLanguage</title>
<path fill="none" stroke="black" d="M1234.86,-386.7C1272.56,-359.66 1305.74,-324.46 1319.2,-280 1346.32,-190.44 1272.67,-89.6 1233.24,-43.89"/>
<polygon fill="black" stroke="black" points="1235.77,-41.47 1226.54,-36.27 1230.52,-46.09 1235.77,-41.47"/>
<text text-anchor="start" x="1318.2" y="-179.8" font-family="mono" font-size="14.00" fill="#c83500">titles</text>
<text text-anchor="middle" x="1214.04" y="-40.07" font-family="Times,serif" font-size="14.00">0..*</text>
</g>
<!-- Thing&#45;&gt;MultiLanguage -->
<g id="edge15" class="edge">
<title>Thing&#45;&gt;MultiLanguage</title>
<path fill="none" stroke="black" d="M1234.99,-386.52C1267.29,-366.19 1298.78,-341.67 1323.2,-313 1332.21,-302.43 1359.18,-254.42 1371.2,-191 1384.17,-122.57 1308.66,-69.08 1256.63,-40.92"/>
<polygon fill="black" stroke="black" points="1258.02,-37.7 1247.54,-36.13 1254.75,-43.89 1258.02,-37.7"/>
<text text-anchor="start" x="1373.2" y="-179.8" font-family="mono" font-size="14.00" fill="#c83500">descriptions</text>
<text text-anchor="middle" x="1260.04" y="-39.93" font-family="Times,serif" font-size="14.00">0..*</text>
</g>
<!-- Thing&#45;&gt;PropertyAffordance -->
<g id="edge19" class="edge">
<title>Thing&#45;&gt;PropertyAffordance</title>
<path fill="none" stroke="black" d="M936.76,-330.89C915.18,-310.76 894.74,-291.71 878.68,-276.72"/>
<polygon fill="black" stroke="black" points="880.86,-273.97 871.16,-269.71 876.08,-279.09 880.86,-273.97"/>
<text text-anchor="start" x="913.2" y="-301.8" font-family="mono" font-size="14.00" fill="#c83500">properties</text>
<text text-anchor="middle" x="858.66" y="-273.51" font-family="Times,serif" font-size="14.00">0..*</text>
</g>
<!-- VersionInfo -->
<g id="node7" class="node">
<title>VersionInfo</title>
<polygon fill="#8ccbf2" stroke="transparent" points="960.2,-254.5 960.2,-275.5 1190.2,-275.5 1190.2,-254.5 960.2,-254.5"/>
<polygon fill="none" stroke="#8ccbf2" points="960.2,-254.5 960.2,-275.5 1190.2,-275.5 1190.2,-254.5 960.2,-254.5"/>
<text text-anchor="start" x="1029.7" y="-262.3" font-family="mono" font-weight="bold" font-size="14.00" fill="#c83500">VersionInfo</text>
<polygon fill="#ddeeff" stroke="transparent" points="960.2,-233.5 960.2,-254.5 1190.2,-254.5 1190.2,-233.5 960.2,-233.5"/>
<polygon fill="none" stroke="#8ccbf2" points="960.2,-233.5 960.2,-254.5 1190.2,-254.5 1190.2,-233.5 960.2,-233.5"/>
<text text-anchor="start" x="963.2" y="-241.3" font-family="mono" font-size="14.00" fill="#c83500">instance</text>
<text text-anchor="start" x="1030.2" y="-241.3" font-family="Times,serif" font-size="14.00"> : </text>
<text text-anchor="start" x="1044.2" y="-241.3" font-family="mono" font-size="14.00" fill="#c83500">string</text>
<text text-anchor="start" x="1094.2" y="-241.3" font-family="Times,serif" font-size="14.00"> </text>
<text text-anchor="start" x="1099.2" y="-241.3" font-family="Times,serif" font-style="italic" font-size="14.00">(mandatory)</text>
<polygon fill="#ddeeff" stroke="transparent" points="960.2,-212.5 960.2,-233.5 1190.2,-233.5 1190.2,-212.5 960.2,-212.5"/>
<polygon fill="none" stroke="#8ccbf2" points="960.2,-212.5 960.2,-233.5 1190.2,-233.5 1190.2,-212.5 960.2,-212.5"/>
<text text-anchor="start" x="963.2" y="-220.3" font-family="mono" font-size="14.00" fill="#c83500">model</text>
<text text-anchor="start" x="1005.2" y="-220.3" font-family="Times,serif" font-size="14.00"> : </text>
<text text-anchor="start" x="1019.2" y="-220.3" font-family="mono" font-size="14.00" fill="#c83500">string</text>
</g>
<!-- Thing&#45;&gt;VersionInfo -->
<g id="edge4" class="edge">
<title>Thing&#45;&gt;VersionInfo</title>
<path fill="none" stroke="black" d="M1075.2,-330.89C1075.2,-316.48 1075.2,-302.62 1075.2,-290.41"/>
<polygon fill="black" stroke="black" points="1078.7,-290.13 1075.2,-280.13 1071.7,-290.13 1078.7,-290.13"/>
<text text-anchor="start" x="1075.2" y="-301.8" font-family="mono" font-size="14.00" fill="#c83500">version</text>
<text text-anchor="middle" x="1061.2" y="-283.93" font-family="Times,serif" font-size="14.00">0..1</text>
</g>
<!-- Thing&#45;&gt;Form -->
<g id="edge3" class="edge">
<title>Thing&#45;&gt;Form</title>
<path fill="none" stroke="black" d="M1178,-330.65C1233.59,-244.17 1278.59,-132.31 1212.2,-54 1206.65,-47.45 1099.05,-32.11 1039.7,-24.09"/>
<polygon fill="black" stroke="black" points="1039.95,-20.59 1029.57,-22.72 1039.01,-27.52 1039.95,-20.59"/>
<text text-anchor="start" x="1243.2" y="-179.8" font-family="mono" font-size="14.00" fill="#c83500">forms</text>
<text text-anchor="middle" x="1042.07" y="-26.52" font-family="Times,serif" font-size="14.00">0..*</text>
</g>
<!-- Link -->
<g id="node9" class="node">
<title>Link</title>
<polygon fill="#f2f2f2" stroke="transparent" points="1262.2,-233.5 1262.2,-254.5 1302.2,-254.5 1302.2,-233.5 1262.2,-233.5"/>
<polygon fill="none" stroke="#8c8c8c" points="1262.2,-233.5 1262.2,-254.5 1302.2,-254.5 1302.2,-233.5 1262.2,-233.5"/>
<text text-anchor="start" x="1265.2" y="-241.3" font-family="mono" font-weight="bold" font-size="14.00">Link</text>
</g>
<!-- Thing&#45;&gt;Link -->
<g id="edge2" class="edge">
<title>Thing&#45;&gt;Link</title>
<path fill="none" stroke="black" d="M1224.33,-330.95C1229.82,-325.01 1235.13,-319.02 1240.2,-313 1250.86,-300.34 1260.75,-284.73 1268.25,-271.72"/>
<polygon fill="black" stroke="black" points="1271.42,-273.21 1273.26,-262.77 1265.32,-269.78 1271.42,-273.21"/>
<text text-anchor="start" x="1251.2" y="-301.8" font-family="mono" font-size="14.00" fill="#c83500">links</text>
<text text-anchor="middle" x="1260.76" y="-266.57" font-family="Times,serif" font-size="14.00">0..*</text>
</g>
<!-- Thing&#45;&gt;DataSchema -->
<g id="edge16" class="edge">
<title>Thing&#45;&gt;DataSchema</title>
<path fill="none" stroke="black" d="M915.59,-443.94C646.83,-413.12 122.91,-335.6 18.2,-191 -82.92,-51.36 265.03,-25.04 412.37,-20.11"/>
<polygon fill="black" stroke="black" points="412.74,-23.6 422.63,-19.8 412.52,-16.61 412.74,-23.6"/>
<text text-anchor="start" x="18.2" y="-179.8" font-family="mono" font-size="14.00" fill="#c83500">schemaDefinitions</text>
<text text-anchor="middle" x="410.13" y="-8.6" font-family="Times,serif" font-size="14.00">0..*</text>
</g>
<!-- Thing&#45;&gt;DataSchema -->
<g id="edge17" class="edge">
<title>Thing&#45;&gt;DataSchema</title>
<path fill="none" stroke="black" d="M915.49,-449.55C796.05,-432.68 638.97,-389.51 552.2,-280 523.39,-243.64 519.27,-215.75 543.2,-176 552.02,-161.35 568.38,-172.65 577.2,-158 593.48,-130.97 592.09,-114.82 577.2,-87 566.45,-66.91 546.86,-51.74 527.69,-40.87"/>
<polygon fill="black" stroke="black" points="529.13,-37.67 518.66,-36.03 525.82,-43.84 529.13,-37.67"/>
<text text-anchor="start" x="543.2" y="-179.8" font-family="mono" font-size="14.00" fill="#c83500">uriVariables</text>
<text text-anchor="middle" x="506.16" y="-39.83" font-family="Times,serif" font-size="14.00">0..*</text>
</g>
<!-- SecurityScheme -->
<g id="node11" class="node">
<title>SecurityScheme</title>
<polygon fill="#f2f2f2" stroke="transparent" points="1429.2,-233.5 1429.2,-254.5 1551.2,-254.5 1551.2,-233.5 1429.2,-233.5"/>
<polygon fill="none" stroke="#8c8c8c" points="1429.2,-233.5 1429.2,-254.5 1551.2,-254.5 1551.2,-233.5 1429.2,-233.5"/>
<text text-anchor="start" x="1432.2" y="-241.3" font-family="mono" font-weight="bold" font-size="14.00">SecurityScheme</text>
</g>
<!-- Thing&#45;&gt;SecurityScheme -->
<g id="edge11" class="edge">
<title>Thing&#45;&gt;SecurityScheme</title>
<path fill="none" stroke="black" d="M1234.93,-399.46C1291.04,-375.57 1353.45,-345.94 1407.2,-313 1427.7,-300.44 1448.69,-283.32 1464.43,-269.47"/>
<polygon fill="black" stroke="black" points="1467.03,-271.84 1472.15,-262.57 1462.37,-266.62 1467.03,-271.84"/>
<text text-anchor="start" x="1428.2" y="-301.8" font-family="mono" font-size="14.00" fill="#c83500">securityDefinitions</text>
<text text-anchor="middle" x="1459.65" y="-266.37" font-family="Times,serif" font-size="14.00">1..*</text>
</g>
</g>
</svg>
