<?xml version="1.0" encoding="UTF-8" standalone="no"?>
<!DOCTYPE svg PUBLIC "-//W3C//DTD SVG 1.1//EN"
 "http://www.w3.org/Graphics/SVG/1.1/DTD/svg11.dtd">
<!-- Generated by graphviz version 2.38.0 (20140413.2041)
 -->
<!-- Title: %3 Pages: 1 -->
<svg width="1426pt" height="861pt"
 viewBox="0.00 0.00 1425.50 861.00" xmlns="http://www.w3.org/2000/svg" xmlns:xlink="http://www.w3.org/1999/xlink">
<g id="graph0" class="graph" transform="scale(1 1) rotate(0) translate(4 857)">
<title>%3</title>
<polygon fill="white" stroke="none" points="-4,4 -4,-857 1421.5,-857 1421.5,4 -4,4"/>
<!-- MultiLanguage -->
<g id="node1" class="node"><title>MultiLanguage</title>
<polygon fill="#8ccbf2" stroke="none" points="273.5,-167.5 273.5,-188.5 387.5,-188.5 387.5,-167.5 273.5,-167.5"/>
<polygon fill="none" stroke="#8ccbf2" points="273.5,-167.5 273.5,-188.5 387.5,-188.5 387.5,-167.5 273.5,-167.5"/>
<text text-anchor="start" x="276.5" y="-175.3" font-family="mono" font-weight="bold" font-size="14.00" fill="#c83500">MultiLanguage</text>
</g>
<!-- InteractionPattern -->
<g id="node2" class="node"><title>InteractionPattern</title>
<polygon fill="#8ccbf2" stroke="none" points="330.5,-374 330.5,-395 489.5,-395 489.5,-374 330.5,-374"/>
<polygon fill="none" stroke="#8ccbf2" points="330.5,-374 330.5,-395 489.5,-395 489.5,-374 330.5,-374"/>
<text text-anchor="start" x="335.5" y="-381.8" font-family="mono" font-weight="bold" font-size="14.00" fill="#c83500">InteractionPattern</text>
<polygon fill="#ddeeff" stroke="none" points="330.5,-353 330.5,-374 489.5,-374 489.5,-353 330.5,-353"/>
<polygon fill="none" stroke="#8ccbf2" points="330.5,-353 330.5,-374 489.5,-374 489.5,-353 330.5,-353"/>
<text text-anchor="start" x="333.5" y="-360.8" font-family="mono" font-size="14.00" fill="#c83500">@type</text>
<text text-anchor="start" x="375.5" y="-360.8" font-family="Times,serif" font-size="14.00"> : </text>
<text text-anchor="start" x="387.5" y="-360.8" font-family="Times,serif" font-style="italic" font-size="14.00">array of </text>
<text text-anchor="start" x="436.5" y="-360.8" font-family="mono" font-size="14.00" fill="#c83500">string</text>
<polygon fill="#ddeeff" stroke="none" points="330.5,-332 330.5,-353 489.5,-353 489.5,-332 330.5,-332"/>
<polygon fill="none" stroke="#8ccbf2" points="330.5,-332 330.5,-353 489.5,-353 489.5,-332 330.5,-332"/>
<text text-anchor="start" x="333.5" y="-339.8" font-family="mono" font-size="14.00" fill="#c83500">title</text>
<text text-anchor="start" x="375.5" y="-339.8" font-family="Times,serif" font-size="14.00"> : </text>
<text text-anchor="start" x="387.5" y="-339.8" font-family="mono" font-size="14.00" fill="#c83500">string</text>
<polygon fill="#ddeeff" stroke="none" points="330.5,-311 330.5,-332 489.5,-332 489.5,-311 330.5,-311"/>
<polygon fill="none" stroke="#8ccbf2" points="330.5,-311 330.5,-332 489.5,-332 489.5,-311 330.5,-311"/>
<text text-anchor="start" x="333.5" y="-318.8" font-family="mono" font-size="14.00" fill="#c83500">description</text>
<text text-anchor="start" x="424.5" y="-318.8" font-family="Times,serif" font-size="14.00"> : </text>
<text text-anchor="start" x="436.5" y="-318.8" font-family="mono" font-size="14.00" fill="#c83500">string</text>
</g>
<!-- InteractionPattern&#45;&gt;MultiLanguage -->
<g id="edge1" class="edge"><title>InteractionPattern&#45;&gt;MultiLanguage</title>
<path fill="none" stroke="black" d="M321.781,-321.992C308.124,-313.456 295.808,-302.64 287.5,-289 271.036,-261.969 290.262,-227.538 308.002,-204.572"/>
<polygon fill="black" stroke="black" points="310.831,-206.64 314.401,-196.665 305.389,-202.236 310.831,-206.64"/>
<text text-anchor="start" x="287.5" y="-277.8" font-family="mono" font-size="14.00" fill="#c83500">descriptions</text>
<text text-anchor="middle" x="303.401" y="-200.465" font-family="Times,serif" font-size="14.00">0..1</text>
</g>
<!-- InteractionPattern&#45;&gt;MultiLanguage -->
<g id="edge2" class="edge"><title>InteractionPattern&#45;&gt;MultiLanguage</title>
<path fill="none" stroke="black" d="M398.947,-306.736C395.801,-295.819 391.975,-284.328 387.5,-274 376.831,-249.373 360.771,-223.403 348.415,-204.933"/>
<polygon fill="black" stroke="black" points="351.203,-202.809 342.686,-196.507 345.415,-206.745 351.203,-202.809"/>
<text text-anchor="start" x="393.5" y="-277.8" font-family="mono" font-size="14.00" fill="#c83500">titles</text>
<text text-anchor="middle" x="331.686" y="-200.307" font-family="Times,serif" font-size="14.00">0..1</text>
</g>
<!-- Form -->
<g id="node4" class="node"><title>Form</title>
<polygon fill="#8ccbf2" stroke="none" points="8.5,-230.5 8.5,-251.5 239.5,-251.5 239.5,-230.5 8.5,-230.5"/>
<polygon fill="none" stroke="#8ccbf2" points="8.5,-230.5 8.5,-251.5 239.5,-251.5 239.5,-230.5 8.5,-230.5"/>
<text text-anchor="start" x="107" y="-238.3" font-family="mono" font-weight="bold" font-size="14.00" fill="#c83500">Form</text>
<polygon fill="#ddeeff" stroke="none" points="8.5,-209.5 8.5,-230.5 239.5,-230.5 239.5,-209.5 8.5,-209.5"/>
<polygon fill="none" stroke="#8ccbf2" points="8.5,-209.5 8.5,-230.5 239.5,-230.5 239.5,-209.5 8.5,-209.5"/>
<text text-anchor="start" x="11.5" y="-217.3" font-family="mono" font-size="14.00" fill="#c83500">scopes</text>
<text text-anchor="start" x="61.5" y="-217.3" font-family="Times,serif" font-size="14.00"> : array of </text>
<text text-anchor="start" x="119.5" y="-217.3" font-family="mono" font-size="14.00" fill="#c83500">string</text>
<polygon fill="#ddeeff" stroke="none" points="8.5,-188.5 8.5,-209.5 239.5,-209.5 239.5,-188.5 8.5,-188.5"/>
<polygon fill="none" stroke="#8ccbf2" points="8.5,-188.5 8.5,-209.5 239.5,-209.5 239.5,-188.5 8.5,-188.5"/>
<text text-anchor="start" x="11.5" y="-196.3" font-family="mono" font-size="14.00" fill="#c83500">op</text>
<text text-anchor="start" x="28.5" y="-196.3" font-family="Times,serif" font-size="14.00"> : </text>
<text text-anchor="start" x="40.5" y="-196.3" font-family="mono" font-size="14.00" fill="#c83500">string</text>
<polygon fill="#ddeeff" stroke="none" points="8.5,-167.5 8.5,-188.5 239.5,-188.5 239.5,-167.5 8.5,-167.5"/>
<polygon fill="none" stroke="#8ccbf2" points="8.5,-167.5 8.5,-188.5 239.5,-188.5 239.5,-167.5 8.5,-167.5"/>
<text text-anchor="start" x="11.5" y="-175.3" font-family="mono" font-size="14.00" fill="#c83500">subprotocol</text>
<text text-anchor="start" x="102.5" y="-175.3" font-family="Times,serif" font-size="14.00"> : </text>
<text text-anchor="start" x="114.5" y="-175.3" font-family="mono" font-size="14.00" fill="#c83500">string</text>
<polygon fill="#ddeeff" stroke="none" points="8.5,-146.5 8.5,-167.5 239.5,-167.5 239.5,-146.5 8.5,-146.5"/>
<polygon fill="none" stroke="#8ccbf2" points="8.5,-146.5 8.5,-167.5 239.5,-167.5 239.5,-146.5 8.5,-146.5"/>
<text text-anchor="start" x="11.5" y="-154.3" font-family="mono" font-size="14.00" fill="#c83500">contentType</text>
<text text-anchor="start" x="102.5" y="-154.3" font-family="Times,serif" font-size="14.00"> : </text>
<text text-anchor="start" x="114.5" y="-154.3" font-family="mono" font-size="14.00" fill="#c83500">string</text>
<text text-anchor="start" x="164.5" y="-154.3" font-family="Times,serif" font-size="14.00"> </text>
<text text-anchor="start" x="168.5" y="-154.3" font-family="Times,serif" font-style="italic" font-size="14.00">(mandatory)</text>
<polygon fill="#ddeeff" stroke="none" points="8.5,-125.5 8.5,-146.5 239.5,-146.5 239.5,-125.5 8.5,-125.5"/>
<polygon fill="none" stroke="#8ccbf2" points="8.5,-125.5 8.5,-146.5 239.5,-146.5 239.5,-125.5 8.5,-125.5"/>
<text text-anchor="start" x="11.5" y="-133.3" font-family="mono" font-size="14.00" fill="#c83500">href</text>
<text text-anchor="start" x="45.5" y="-133.3" font-family="Times,serif" font-size="14.00"> : </text>
<text text-anchor="start" x="57.5" y="-133.3" font-family="mono" font-size="14.00" fill="#c83500">anyURI</text>
<text text-anchor="start" x="107.5" y="-133.3" font-family="Times,serif" font-size="14.00"> </text>
<text text-anchor="start" x="111.5" y="-133.3" font-family="Times,serif" font-style="italic" font-size="14.00">(mandatory)</text>
<polygon fill="#ddeeff" stroke="none" points="8.5,-104.5 8.5,-125.5 239.5,-125.5 239.5,-104.5 8.5,-104.5"/>
<polygon fill="none" stroke="#8ccbf2" points="8.5,-104.5 8.5,-125.5 239.5,-125.5 239.5,-104.5 8.5,-104.5"/>
<text text-anchor="start" x="11.5" y="-112.3" font-family="mono" font-size="14.00" fill="#c83500">security</text>
<text text-anchor="start" x="78.5" y="-112.3" font-family="Times,serif" font-size="14.00"> : array of </text>
<text text-anchor="start" x="136.5" y="-112.3" font-family="mono" font-size="14.00" fill="#c83500">string</text>
</g>
<!-- InteractionPattern&#45;&gt;Form -->
<g id="edge3" class="edge"><title>InteractionPattern&#45;&gt;Form</title>
<path fill="none" stroke="black" d="M321.716,-328.018C293.338,-318.216 262.508,-305.286 236.5,-289 224.46,-281.461 212.649,-272.467 201.471,-262.919"/>
<polygon fill="black" stroke="black" points="203.667,-260.19 193.838,-256.233 199.054,-265.455 203.667,-260.19"/>
<text text-anchor="start" x="236.5" y="-277.8" font-family="mono" font-size="14.00" fill="#c83500">forms</text>
<text text-anchor="middle" x="182.838" y="-260.033" font-family="Times,serif" font-size="14.00">1..*</text>
</g>
<!-- DataSchema -->
<g id="node11" class="node"><title>DataSchema</title>
<polygon fill="#f2f2f2" stroke="none" points="674.5,-167.5 674.5,-188.5 763.5,-188.5 763.5,-167.5 674.5,-167.5"/>
<polygon fill="none" stroke="#8c8c8c" points="674.5,-167.5 674.5,-188.5 763.5,-188.5 763.5,-167.5 674.5,-167.5"/>
<text text-anchor="start" x="677.5" y="-175.3" font-family="mono" font-weight="bold" font-size="14.00">DataSchema</text>
</g>
<!-- InteractionPattern&#45;&gt;DataSchema -->
<g id="edge4" class="edge"><title>InteractionPattern&#45;&gt;DataSchema</title>
<path fill="none" stroke="black" d="M446.11,-306.839C457.221,-295.062 470.07,-283.13 483.5,-274 537.027,-237.613 606.687,-211.829 656.234,-196.484"/>
<polygon fill="black" stroke="black" points="657.316,-199.813 665.865,-193.554 655.279,-193.116 657.316,-199.813"/>
<text text-anchor="start" x="483.5" y="-277.8" font-family="mono" font-size="14.00" fill="#c83500">uriVariables</text>
<text text-anchor="middle" x="654.865" y="-197.354" font-family="Times,serif" font-size="14.00">0..1</text>
</g>
<!-- Link -->
<g id="node3" class="node"><title>Link</title>
<polygon fill="#8ccbf2" stroke="none" points="837.5,-537.5 837.5,-558.5 1011.5,-558.5 1011.5,-537.5 837.5,-537.5"/>
<polygon fill="none" stroke="#8ccbf2" points="837.5,-537.5 837.5,-558.5 1011.5,-558.5 1011.5,-537.5 837.5,-537.5"/>
<text text-anchor="start" x="907.5" y="-545.3" font-family="mono" font-weight="bold" font-size="14.00" fill="#c83500">Link</text>
<polygon fill="#ddeeff" stroke="none" points="837.5,-516.5 837.5,-537.5 1011.5,-537.5 1011.5,-516.5 837.5,-516.5"/>
<polygon fill="none" stroke="#8ccbf2" points="837.5,-516.5 837.5,-537.5 1011.5,-537.5 1011.5,-516.5 837.5,-516.5"/>
<text text-anchor="start" x="840.5" y="-524.3" font-family="mono" font-size="14.00" fill="#c83500">href</text>
<text text-anchor="start" x="874.5" y="-524.3" font-family="Times,serif" font-size="14.00"> : </text>
<text text-anchor="start" x="886.5" y="-524.3" font-family="mono" font-size="14.00" fill="#c83500">anyURI</text>
<text text-anchor="start" x="936.5" y="-524.3" font-family="Times,serif" font-size="14.00"> </text>
<text text-anchor="start" x="940.5" y="-524.3" font-family="Times,serif" font-style="italic" font-size="14.00">(mandatory)</text>
<polygon fill="#ddeeff" stroke="none" points="837.5,-495.5 837.5,-516.5 1011.5,-516.5 1011.5,-495.5 837.5,-495.5"/>
<polygon fill="none" stroke="#8ccbf2" points="837.5,-495.5 837.5,-516.5 1011.5,-516.5 1011.5,-495.5 837.5,-495.5"/>
<text text-anchor="start" x="840.5" y="-503.3" font-family="mono" font-size="14.00" fill="#c83500">anchor</text>
<text text-anchor="start" x="890.5" y="-503.3" font-family="Times,serif" font-size="14.00"> : </text>
<text text-anchor="start" x="902.5" y="-503.3" font-family="mono" font-size="14.00" fill="#c83500">anyURI</text>
<polygon fill="#ddeeff" stroke="none" points="837.5,-474.5 837.5,-495.5 1011.5,-495.5 1011.5,-474.5 837.5,-474.5"/>
<polygon fill="none" stroke="#8ccbf2" points="837.5,-474.5 837.5,-495.5 1011.5,-495.5 1011.5,-474.5 837.5,-474.5"/>
<text text-anchor="start" x="840.5" y="-482.3" font-family="mono" font-size="14.00" fill="#c83500">rel</text>
<text text-anchor="start" x="865.5" y="-482.3" font-family="Times,serif" font-size="14.00"> : </text>
<text text-anchor="start" x="877.5" y="-482.3" font-family="mono" font-size="14.00" fill="#c83500">string</text>
<polygon fill="#ddeeff" stroke="none" points="837.5,-453.5 837.5,-474.5 1011.5,-474.5 1011.5,-453.5 837.5,-453.5"/>
<polygon fill="none" stroke="#8ccbf2" points="837.5,-453.5 837.5,-474.5 1011.5,-474.5 1011.5,-453.5 837.5,-453.5"/>
<text text-anchor="start" x="840.5" y="-461.3" font-family="mono" font-size="14.00" fill="#c83500">type</text>
<text text-anchor="start" x="874.5" y="-461.3" font-family="Times,serif" font-size="14.00"> : </text>
<text text-anchor="start" x="886.5" y="-461.3" font-family="mono" font-size="14.00" fill="#c83500">string</text>
</g>
<!-- ExpectedResponse -->
<g id="node7" class="node"><title>ExpectedResponse</title>
<polygon fill="#8ccbf2" stroke="none" points="44.5,-25 44.5,-46 203.5,-46 203.5,-25 44.5,-25"/>
<polygon fill="none" stroke="#8ccbf2" points="44.5,-25 44.5,-46 203.5,-46 203.5,-25 44.5,-25"/>
<text text-anchor="start" x="57.5" y="-32.8" font-family="mono" font-weight="bold" font-size="14.00" fill="#c83500">ExpectedResponse</text>
<polygon fill="#ddeeff" stroke="none" points="44.5,-4 44.5,-25 203.5,-25 203.5,-4 44.5,-4"/>
<polygon fill="none" stroke="#8ccbf2" points="44.5,-4 44.5,-25 203.5,-25 203.5,-4 44.5,-4"/>
<text text-anchor="start" x="47.5" y="-11.8" font-family="mono" font-size="14.00" fill="#c83500">contentType</text>
<text text-anchor="start" x="138.5" y="-11.8" font-family="Times,serif" font-size="14.00"> : </text>
<text text-anchor="start" x="150.5" y="-11.8" font-family="mono" font-size="14.00" fill="#c83500">string</text>
</g>
<!-- Form&#45;&gt;ExpectedResponse -->
<g id="edge5" class="edge"><title>Form&#45;&gt;ExpectedResponse</title>
<path fill="none" stroke="black" d="M123.5,-100.862C123.5,-86.5577 123.5,-72.2953 123.5,-60.116"/>
<polygon fill="black" stroke="black" points="127,-60.0004 123.5,-50.0004 120,-60.0004 127,-60.0004"/>
<text text-anchor="start" x="123.5" y="-71.8" font-family="mono" font-size="14.00" fill="#c83500">response</text>
<text text-anchor="middle" x="112.5" y="-53.8004" font-family="Times,serif" font-size="14.00">0..1</text>
</g>
<!-- Thing -->
<g id="node5" class="node"><title>Thing</title>
<polygon fill="#8ccbf2" stroke="none" points="559.5,-827.5 559.5,-848.5 823.5,-848.5 823.5,-827.5 559.5,-827.5"/>
<polygon fill="none" stroke="#8ccbf2" points="559.5,-827.5 559.5,-848.5 823.5,-848.5 823.5,-827.5 559.5,-827.5"/>
<text text-anchor="start" x="670.5" y="-835.3" font-family="mono" font-weight="bold" font-size="14.00" fill="#c83500">Thing</text>
<polygon fill="#ddeeff" stroke="none" points="559.5,-806.5 559.5,-827.5 823.5,-827.5 823.5,-806.5 559.5,-806.5"/>
<polygon fill="none" stroke="#8ccbf2" points="559.5,-806.5 559.5,-827.5 823.5,-827.5 823.5,-806.5 559.5,-806.5"/>
<text text-anchor="start" x="562.5" y="-814.3" font-family="mono" font-size="14.00" fill="#c83500">@context</text>
<text text-anchor="start" x="629.5" y="-814.3" font-family="Times,serif" font-size="14.00"> : </text>
<text text-anchor="start" x="641.5" y="-814.3" font-family="Times,serif" font-style="italic" font-size="14.00">array of </text>
<text text-anchor="start" x="690.5" y="-814.3" font-family="mono" font-size="14.00" fill="#c83500">context</text>
<text text-anchor="start" x="748.5" y="-814.3" font-family="Times,serif" font-size="14.00"> </text>
<text text-anchor="start" x="752.5" y="-814.3" font-family="Times,serif" font-style="italic" font-size="14.00">(mandatory)</text>
<polygon fill="#ddeeff" stroke="none" points="559.5,-785.5 559.5,-806.5 823.5,-806.5 823.5,-785.5 559.5,-785.5"/>
<polygon fill="none" stroke="#8ccbf2" points="559.5,-785.5 559.5,-806.5 823.5,-806.5 823.5,-785.5 559.5,-785.5"/>
<text text-anchor="start" x="562.5" y="-793.3" font-family="mono" font-size="14.00" fill="#c83500">@type</text>
<text text-anchor="start" x="604.5" y="-793.3" font-family="Times,serif" font-size="14.00"> : </text>
<text text-anchor="start" x="616.5" y="-793.3" font-family="Times,serif" font-style="italic" font-size="14.00">array of </text>
<text text-anchor="start" x="665.5" y="-793.3" font-family="mono" font-size="14.00" fill="#c83500">string</text>
<polygon fill="#ddeeff" stroke="none" points="559.5,-764.5 559.5,-785.5 823.5,-785.5 823.5,-764.5 559.5,-764.5"/>
<polygon fill="none" stroke="#8ccbf2" points="559.5,-764.5 559.5,-785.5 823.5,-785.5 823.5,-764.5 559.5,-764.5"/>
<text text-anchor="start" x="562.5" y="-772.3" font-family="mono" font-size="14.00" fill="#c83500">id</text>
<text text-anchor="start" x="579.5" y="-772.3" font-family="Times,serif" font-size="14.00"> : </text>
<text text-anchor="start" x="591.5" y="-772.3" font-family="mono" font-size="14.00" fill="#c83500">anyURI</text>
<text text-anchor="start" x="641.5" y="-772.3" font-family="Times,serif" font-size="14.00"> </text>
<text text-anchor="start" x="645.5" y="-772.3" font-family="Times,serif" font-style="italic" font-size="14.00">(mandatory)</text>
<polygon fill="#ddeeff" stroke="none" points="559.5,-743.5 559.5,-764.5 823.5,-764.5 823.5,-743.5 559.5,-743.5"/>
<polygon fill="none" stroke="#8ccbf2" points="559.5,-743.5 559.5,-764.5 823.5,-764.5 823.5,-743.5 559.5,-743.5"/>
<text text-anchor="start" x="562.5" y="-751.3" font-family="mono" font-size="14.00" fill="#c83500">lastModified</text>
<text text-anchor="start" x="662.5" y="-751.3" font-family="Times,serif" font-size="14.00"> : </text>
<text text-anchor="start" x="674.5" y="-751.3" font-family="mono" font-size="14.00" fill="#c83500">string</text>
<polygon fill="#ddeeff" stroke="none" points="559.5,-722.5 559.5,-743.5 823.5,-743.5 823.5,-722.5 559.5,-722.5"/>
<polygon fill="none" stroke="#8ccbf2" points="559.5,-722.5 559.5,-743.5 823.5,-743.5 823.5,-722.5 559.5,-722.5"/>
<text text-anchor="start" x="562.5" y="-730.3" font-family="mono" font-size="14.00" fill="#c83500">description</text>
<text text-anchor="start" x="653.5" y="-730.3" font-family="Times,serif" font-size="14.00"> : </text>
<text text-anchor="start" x="665.5" y="-730.3" font-family="mono" font-size="14.00" fill="#c83500">string</text>
<polygon fill="#ddeeff" stroke="none" points="559.5,-701.5 559.5,-722.5 823.5,-722.5 823.5,-701.5 559.5,-701.5"/>
<polygon fill="none" stroke="#8ccbf2" points="559.5,-701.5 559.5,-722.5 823.5,-722.5 823.5,-701.5 559.5,-701.5"/>
<text text-anchor="start" x="562.5" y="-709.3" font-family="mono" font-size="14.00" fill="#c83500">base</text>
<text text-anchor="start" x="596.5" y="-709.3" font-family="Times,serif" font-size="14.00"> : </text>
<text text-anchor="start" x="608.5" y="-709.3" font-family="mono" font-size="14.00" fill="#c83500">anyURI</text>
<polygon fill="#ddeeff" stroke="none" points="559.5,-680.5 559.5,-701.5 823.5,-701.5 823.5,-680.5 559.5,-680.5"/>
<polygon fill="none" stroke="#8ccbf2" points="559.5,-680.5 559.5,-701.5 823.5,-701.5 823.5,-680.5 559.5,-680.5"/>
<text text-anchor="start" x="562.5" y="-688.3" font-family="mono" font-size="14.00" fill="#c83500">support</text>
<text text-anchor="start" x="620.5" y="-688.3" font-family="Times,serif" font-size="14.00"> : </text>
<text text-anchor="start" x="632.5" y="-688.3" font-family="mono" font-size="14.00" fill="#c83500">string</text>
<polygon fill="#ddeeff" stroke="none" points="559.5,-659.5 559.5,-680.5 823.5,-680.5 823.5,-659.5 559.5,-659.5"/>
<polygon fill="none" stroke="#8ccbf2" points="559.5,-659.5 559.5,-680.5 823.5,-680.5 823.5,-659.5 559.5,-659.5"/>
<text text-anchor="start" x="562.5" y="-667.3" font-family="mono" font-size="14.00" fill="#c83500">name</text>
<text text-anchor="start" x="596.5" y="-667.3" font-family="Times,serif" font-size="14.00"> : </text>
<text text-anchor="start" x="608.5" y="-667.3" font-family="mono" font-size="14.00" fill="#c83500">string</text>
<text text-anchor="start" x="658.5" y="-667.3" font-family="Times,serif" font-size="14.00"> </text>
<text text-anchor="start" x="662.5" y="-667.3" font-family="Times,serif" font-style="italic" font-size="14.00">(mandatory)</text>
<polygon fill="#ddeeff" stroke="none" points="559.5,-638.5 559.5,-659.5 823.5,-659.5 823.5,-638.5 559.5,-638.5"/>
<polygon fill="none" stroke="#8ccbf2" points="559.5,-638.5 559.5,-659.5 823.5,-659.5 823.5,-638.5 559.5,-638.5"/>
<text text-anchor="start" x="562.5" y="-646.3" font-family="mono" font-size="14.00" fill="#c83500">created</text>
<text text-anchor="start" x="620.5" y="-646.3" font-family="Times,serif" font-size="14.00"> : </text>
<text text-anchor="start" x="632.5" y="-646.3" font-family="mono" font-size="14.00" fill="#c83500">string</text>
<polygon fill="#ddeeff" stroke="none" points="559.5,-617.5 559.5,-638.5 823.5,-638.5 823.5,-617.5 559.5,-617.5"/>
<polygon fill="none" stroke="#8ccbf2" points="559.5,-617.5 559.5,-638.5 823.5,-638.5 823.5,-617.5 559.5,-617.5"/>
<text text-anchor="start" x="562.5" y="-625.3" font-family="mono" font-size="14.00" fill="#c83500">security</text>
<text text-anchor="start" x="629.5" y="-625.3" font-family="Times,serif" font-size="14.00"> : array of </text>
<text text-anchor="start" x="687.5" y="-625.3" font-family="mono" font-size="14.00" fill="#c83500">string</text>
<text text-anchor="start" x="737.5" y="-625.3" font-family="Times,serif" font-size="14.00"> </text>
<text text-anchor="start" x="741.5" y="-625.3" font-family="Times,serif" font-style="italic" font-size="14.00">(mandatory)</text>
</g>
<!-- Thing&#45;&gt;MultiLanguage -->
<g id="edge8" class="edge"><title>Thing&#45;&gt;MultiLanguage</title>
<path fill="none" stroke="black" d="M551.301,-725.445C437.909,-711.463 284.83,-672.017 207.5,-563 189.307,-537.352 189.63,-305.789 211.5,-274 223.475,-256.593 237.965,-267.787 255.5,-256 276.532,-241.863 296.421,-221.104 310.426,-204.777"/>
<polygon fill="black" stroke="black" points="313.452,-206.615 317.189,-196.701 308.085,-202.121 313.452,-206.615"/>
<text text-anchor="start" x="195.5" y="-420.8" font-family="mono" font-size="14.00" fill="#c83500">descriptions</text>
<text text-anchor="middle" x="328.189" y="-200.501" font-family="Times,serif" font-size="14.00">0..1</text>
</g>
<!-- Thing&#45;&gt;Link -->
<g id="edge9" class="edge"><title>Thing&#45;&gt;Link</title>
<path fill="none" stroke="black" d="M814.482,-613.741C830.039,-598.717 845.442,-583.843 859.576,-570.195"/>
<polygon fill="black" stroke="black" points="862.083,-572.639 866.845,-563.175 857.221,-567.604 862.083,-572.639"/>
<text text-anchor="start" x="842.5" y="-584.8" font-family="mono" font-size="14.00" fill="#c83500">links</text>
<text text-anchor="middle" x="855.845" y="-566.975" font-family="Times,serif" font-size="14.00">0..*</text>
</g>
<!-- Thing&#45;&gt;Form -->
<g id="edge13" class="edge"><title>Thing&#45;&gt;Form</title>
<path fill="none" stroke="black" d="M551.253,-713.237C452.771,-694.806 321.195,-659.969 220.5,-596 114.17,-528.451 106.177,-367.481 112.878,-266.6"/>
<polygon fill="black" stroke="black" points="116.383,-266.652 113.617,-256.425 109.402,-266.145 116.383,-266.652"/>
<text text-anchor="start" x="122.5" y="-420.8" font-family="mono" font-size="14.00" fill="#c83500">forms</text>
<text text-anchor="middle" x="102.617" y="-260.225" font-family="Times,serif" font-size="14.00">0..*</text>
</g>
<!-- Property -->
<g id="node6" class="node"><title>Property</title>
<polygon fill="#8ccbf2" stroke="none" points="225.5,-506.5 225.5,-527.5 456.5,-527.5 456.5,-506.5 225.5,-506.5"/>
<polygon fill="none" stroke="#8ccbf2" points="225.5,-506.5 225.5,-527.5 456.5,-527.5 456.5,-506.5 225.5,-506.5"/>
<text text-anchor="start" x="307.5" y="-514.3" font-family="mono" font-weight="bold" font-size="14.00" fill="#c83500">Property</text>
<polygon fill="#ddeeff" stroke="none" points="225.5,-485.5 225.5,-506.5 456.5,-506.5 456.5,-485.5 225.5,-485.5"/>
<polygon fill="none" stroke="#8ccbf2" points="225.5,-485.5 225.5,-506.5 456.5,-506.5 456.5,-485.5 225.5,-485.5"/>
<text text-anchor="start" x="228.5" y="-493.3" font-family="mono" font-size="14.00" fill="#c83500">observable</text>
<text text-anchor="start" x="311.5" y="-493.3" font-family="Times,serif" font-size="14.00"> : </text>
<text text-anchor="start" x="323.5" y="-493.3" font-family="mono" font-size="14.00" fill="#c83500">boolean</text>
<text text-anchor="start" x="381.5" y="-493.3" font-family="Times,serif" font-size="14.00"> </text>
<text text-anchor="start" x="385.5" y="-493.3" font-family="Times,serif" font-style="italic" font-size="14.00">(mandatory)</text>
</g>
<!-- Thing&#45;&gt;Property -->
<g id="edge11" class="edge"><title>Thing&#45;&gt;Property</title>
<path fill="none" stroke="black" d="M551.262,-642.604C492.611,-605.007 428.479,-563.897 386.551,-537.02"/>
<polygon fill="black" stroke="black" points="388.258,-533.957 377.951,-531.507 384.481,-539.85 388.258,-533.957"/>
<text text-anchor="start" x="474.5" y="-584.8" font-family="mono" font-size="14.00" fill="#c83500">properties</text>
<text text-anchor="middle" x="366.951" y="-535.307" font-family="Times,serif" font-size="14.00">0..1</text>
</g>
<!-- VersionInfo -->
<g id="node8" class="node"><title>VersionInfo</title>
<polygon fill="#8ccbf2" stroke="none" points="1046.5,-506.5 1046.5,-527.5 1253.5,-527.5 1253.5,-506.5 1046.5,-506.5"/>
<polygon fill="none" stroke="#8ccbf2" points="1046.5,-506.5 1046.5,-527.5 1253.5,-527.5 1253.5,-506.5 1046.5,-506.5"/>
<text text-anchor="start" x="1104.5" y="-514.3" font-family="mono" font-weight="bold" font-size="14.00" fill="#c83500">VersionInfo</text>
<polygon fill="#ddeeff" stroke="none" points="1046.5,-485.5 1046.5,-506.5 1253.5,-506.5 1253.5,-485.5 1046.5,-485.5"/>
<polygon fill="none" stroke="#8ccbf2" points="1046.5,-485.5 1046.5,-506.5 1253.5,-506.5 1253.5,-485.5 1046.5,-485.5"/>
<text text-anchor="start" x="1049.5" y="-493.3" font-family="mono" font-size="14.00" fill="#c83500">instance</text>
<text text-anchor="start" x="1116.5" y="-493.3" font-family="Times,serif" font-size="14.00"> : </text>
<text text-anchor="start" x="1128.5" y="-493.3" font-family="mono" font-size="14.00" fill="#c83500">string</text>
<text text-anchor="start" x="1178.5" y="-493.3" font-family="Times,serif" font-size="14.00"> </text>
<text text-anchor="start" x="1182.5" y="-493.3" font-family="Times,serif" font-style="italic" font-size="14.00">(mandatory)</text>
</g>
<!-- Thing&#45;&gt;VersionInfo -->
<g id="edge7" class="edge"><title>Thing&#45;&gt;VersionInfo</title>
<path fill="none" stroke="black" d="M831.716,-663.617C918.827,-620.822 1026.22,-568.064 1091.2,-536.141"/>
<polygon fill="black" stroke="black" points="1093.04,-539.137 1100.47,-531.586 1089.95,-532.854 1093.04,-539.137"/>
<text text-anchor="start" x="988.5" y="-584.8" font-family="mono" font-size="14.00" fill="#c83500">version</text>
<text text-anchor="middle" x="1089.47" y="-535.386" font-family="Times,serif" font-size="14.00">0..1</text>
</g>
<!-- Action -->
<g id="node9" class="node"><title>Action</title>
<polygon fill="#8ccbf2" stroke="none" points="490.5,-516.5 490.5,-537.5 721.5,-537.5 721.5,-516.5 490.5,-516.5"/>
<polygon fill="none" stroke="#8ccbf2" points="490.5,-516.5 490.5,-537.5 721.5,-537.5 721.5,-516.5 490.5,-516.5"/>
<text text-anchor="start" x="581" y="-524.3" font-family="mono" font-weight="bold" font-size="14.00" fill="#c83500">Action</text>
<polygon fill="#ddeeff" stroke="none" points="490.5,-495.5 490.5,-516.5 721.5,-516.5 721.5,-495.5 490.5,-495.5"/>
<polygon fill="none" stroke="#8ccbf2" points="490.5,-495.5 490.5,-516.5 721.5,-516.5 721.5,-495.5 490.5,-495.5"/>
<text text-anchor="start" x="493.5" y="-503.3" font-family="mono" font-size="14.00" fill="#c83500">safe</text>
<text text-anchor="start" x="527.5" y="-503.3" font-family="Times,serif" font-size="14.00"> : </text>
<text text-anchor="start" x="539.5" y="-503.3" font-family="mono" font-size="14.00" fill="#c83500">boolean</text>
<text text-anchor="start" x="597.5" y="-503.3" font-family="Times,serif" font-size="14.00"> </text>
<text text-anchor="start" x="601.5" y="-503.3" font-family="Times,serif" font-style="italic" font-size="14.00">(mandatory)</text>
<polygon fill="#ddeeff" stroke="none" points="490.5,-474.5 490.5,-495.5 721.5,-495.5 721.5,-474.5 490.5,-474.5"/>
<polygon fill="none" stroke="#8ccbf2" points="490.5,-474.5 490.5,-495.5 721.5,-495.5 721.5,-474.5 490.5,-474.5"/>
<text text-anchor="start" x="493.5" y="-482.3" font-family="mono" font-size="14.00" fill="#c83500">idempotent</text>
<text text-anchor="start" x="576.5" y="-482.3" font-family="Times,serif" font-size="14.00"> : </text>
<text text-anchor="start" x="588.5" y="-482.3" font-family="mono" font-size="14.00" fill="#c83500">boolean</text>
<text text-anchor="start" x="646.5" y="-482.3" font-family="Times,serif" font-size="14.00"> </text>
<text text-anchor="start" x="650.5" y="-482.3" font-family="Times,serif" font-style="italic" font-size="14.00">(mandatory)</text>
</g>
<!-- Thing&#45;&gt;Action -->
<g id="edge6" class="edge"><title>Thing&#45;&gt;Action</title>
<path fill="none" stroke="black" d="M646.108,-613.741C637.658,-591.635 629.333,-569.853 622.441,-551.823"/>
<polygon fill="black" stroke="black" points="625.608,-550.304 618.768,-542.213 619.069,-552.804 625.608,-550.304"/>
<text text-anchor="start" x="638.5" y="-584.8" font-family="mono" font-size="14.00" fill="#c83500">actions</text>
<text text-anchor="middle" x="607.768" y="-546.013" font-family="Times,serif" font-size="14.00">0..1</text>
</g>
<!-- Event -->
<g id="node10" class="node"><title>Event</title>
<polygon fill="#8ccbf2" stroke="none" points="755.5,-495.5 755.5,-516.5 803.5,-516.5 803.5,-495.5 755.5,-495.5"/>
<polygon fill="none" stroke="#8ccbf2" points="755.5,-495.5 755.5,-516.5 803.5,-516.5 803.5,-495.5 755.5,-495.5"/>
<text text-anchor="start" x="758.5" y="-503.3" font-family="mono" font-weight="bold" font-size="14.00" fill="#c83500">Event</text>
</g>
<!-- Thing&#45;&gt;Event -->
<g id="edge12" class="edge"><title>Thing&#45;&gt;Event</title>
<path fill="none" stroke="black" d="M737.948,-613.741C749.683,-583.737 761.185,-554.329 769.101,-534.088"/>
<polygon fill="black" stroke="black" points="772.407,-535.243 772.79,-524.656 765.888,-532.694 772.407,-535.243"/>
<text text-anchor="start" x="749.5" y="-584.8" font-family="mono" font-size="14.00" fill="#c83500">events</text>
<text text-anchor="middle" x="761.79" y="-528.456" font-family="Times,serif" font-size="14.00">0..1</text>
</g>
<!-- SecurityScheme -->
<g id="node12" class="node"><title>SecurityScheme</title>
<polygon fill="#f2f2f2" stroke="none" points="1287.5,-495.5 1287.5,-516.5 1409.5,-516.5 1409.5,-495.5 1287.5,-495.5"/>
<polygon fill="none" stroke="#8c8c8c" points="1287.5,-495.5 1287.5,-516.5 1409.5,-516.5 1409.5,-495.5 1287.5,-495.5"/>
<text text-anchor="start" x="1290.5" y="-503.3" font-family="mono" font-weight="bold" font-size="14.00">SecurityScheme</text>
</g>
<!-- Thing&#45;&gt;SecurityScheme -->
<g id="edge10" class="edge"><title>Thing&#45;&gt;SecurityScheme</title>
<path fill="none" stroke="black" d="M831.645,-704.927C951.703,-678.178 1127.24,-631.518 1269.5,-563 1287.43,-554.367 1305.71,-541.807 1320.17,-530.818"/>
<polygon fill="black" stroke="black" points="1322.46,-533.471 1328.21,-524.571 1318.17,-527.943 1322.46,-533.471"/>
<text text-anchor="start" x="1225.5" y="-584.8" font-family="mono" font-size="14.00" fill="#c83500">securityDefinitions</text>
<text text-anchor="middle" x="1317.21" y="-528.371" font-family="Times,serif" font-size="14.00">1..1</text>
</g>
<!-- Property&#45;&gt;InteractionPattern -->
<g id="edge19" class="edge"><title>Property&#45;&gt;InteractionPattern</title>
<path fill="none" stroke="black" d="M351.433,-481.494C360.329,-461.963 373.229,-433.639 384.611,-408.647"/>
<polygon fill="white" stroke="black" points="387.929,-409.807 388.888,-399.256 381.558,-406.906 387.929,-409.807"/>
</g>
<!-- Action&#45;&gt;InteractionPattern -->
<g id="edge20" class="edge"><title>Action&#45;&gt;InteractionPattern</title>
<path fill="none" stroke="black" d="M560.534,-470.743C535.537,-451.422 503.954,-427.009 476.138,-405.509"/>
<polygon fill="white" stroke="black" points="478.074,-402.581 468.021,-399.235 473.793,-408.119 478.074,-402.581"/>
</g>
<!-- Action&#45;&gt;DataSchema -->
<g id="edge14" class="edge"><title>Action&#45;&gt;DataSchema</title>
<path fill="none" stroke="black" d="M599.871,-470.808C594.754,-430.105 590.806,-361.284 611.5,-307 627.545,-264.911 663.72,-226.807 689.563,-203.44"/>
<polygon fill="black" stroke="black" points="692.044,-205.918 697.218,-196.673 687.408,-200.674 692.044,-205.918"/>
<text text-anchor="start" x="611.5" y="-349.3" font-family="mono" font-size="14.00" fill="#c83500">input</text>
<text text-anchor="middle" x="686.218" y="-200.473" font-family="Times,serif" font-size="14.00">0..1</text>
</g>
<!-- Action&#45;&gt;DataSchema -->
<g id="edge15" class="edge"><title>Action&#45;&gt;DataSchema</title>
<path fill="none" stroke="black" d="M622.492,-470.981C632.273,-450.376 644.39,-423.525 653.5,-399 678.771,-330.969 701.062,-248.31 711.767,-206.506"/>
<polygon fill="black" stroke="black" points="715.225,-207.108 714.293,-196.554 708.44,-205.385 715.225,-207.108"/>
<text text-anchor="start" x="683.5" y="-349.3" font-family="mono" font-size="14.00" fill="#c83500">output</text>
<text text-anchor="middle" x="725.293" y="-200.354" font-family="Times,serif" font-size="14.00">0..1</text>
</g>
<!-- Event&#45;&gt;InteractionPattern -->
<g id="edge21" class="edge"><title>Event&#45;&gt;InteractionPattern</title>
<path fill="none" stroke="black" d="M770.488,-488.341C763.162,-475.979 751.724,-459.812 737.5,-450 727.653,-443.207 600.012,-406.866 506.917,-380.907"/>
<polygon fill="white" stroke="black" points="507.742,-377.503 497.169,-378.191 505.863,-384.246 507.742,-377.503"/>
</g>
<!-- Event&#45;&gt;DataSchema -->
<g id="edge16" class="edge"><title>Event&#45;&gt;DataSchema</title>
<path fill="none" stroke="black" d="M776.306,-488.432C766.344,-435.193 735.78,-271.849 723.593,-206.721"/>
<polygon fill="black" stroke="black" points="727.015,-205.978 721.736,-196.793 720.135,-207.266 727.015,-205.978"/>
<text text-anchor="start" x="759.5" y="-349.3" font-family="mono" font-size="14.00" fill="#c83500">subscription</text>
<text text-anchor="middle" x="710.736" y="-200.593" font-family="Times,serif" font-size="14.00">0..1</text>
</g>
<!-- Event&#45;&gt;DataSchema -->
<g id="edge17" class="edge"><title>Event&#45;&gt;DataSchema</title>
<path fill="none" stroke="black" d="M791.782,-488.284C799.785,-477.214 810.552,-462.598 820.5,-450 838.873,-426.731 853.327,-426.848 863.5,-399 877.53,-360.594 880.351,-344.255 863.5,-307 842.232,-259.979 794.104,-223.401 759.114,-201.712"/>
<polygon fill="black" stroke="black" points="760.894,-198.699 750.525,-196.521 757.273,-204.689 760.894,-198.699"/>
<text text-anchor="start" x="875.5" y="-349.3" font-family="mono" font-size="14.00" fill="#c83500">cancellation</text>
<text text-anchor="middle" x="761.525" y="-200.321" font-family="Times,serif" font-size="14.00">0..1</text>
</g>
<!-- Event&#45;&gt;DataSchema -->
<g id="edge18" class="edge"><title>Event&#45;&gt;DataSchema</title>
<path fill="none" stroke="black" d="M788.278,-488.444C795.42,-476.135 806.582,-459.988 820.5,-450 880.794,-406.731 935.766,-458.957 979.5,-399 1003.6,-365.966 1001.16,-341.683 979.5,-307 936.36,-237.914 843.769,-205.251 781.294,-190.552"/>
<polygon fill="black" stroke="black" points="781.679,-187.051 771.153,-188.26 780.136,-193.878 781.679,-187.051"/>
<text text-anchor="start" x="997.5" y="-349.3" font-family="mono" font-size="14.00" fill="#c83500">data</text>
<text text-anchor="middle" x="782.153" y="-177.06" font-family="Times,serif" font-size="14.00">0..1</text>
</g>
</g>
</svg>
