<?xml version="1.0" encoding="UTF-8" standalone="no"?>
<!DOCTYPE svg PUBLIC "-//W3C//DTD SVG 1.1//EN"
 "http://www.w3.org/Graphics/SVG/1.1/DTD/svg11.dtd">
<!-- Generated by graphviz version 2.38.0 (20140413.2041)
 -->
<!-- Title: %3 Pages: 1 -->
<svg width="1426pt" height="840pt"
 viewBox="0.00 0.00 1425.50 840.00" xmlns="http://www.w3.org/2000/svg" xmlns:xlink="http://www.w3.org/1999/xlink">
<g id="graph0" class="graph" transform="scale(1 1) rotate(0) translate(4 836)">
<title>%3</title>
<polygon fill="white" stroke="none" points="-4,4 -4,-836 1421.5,-836 1421.5,4 -4,4"/>
<!-- MultiLanguage -->
<g id="node1" class="node"><title>MultiLanguage</title>
<polygon fill="#8ccbf2" stroke="none" points="273.5,-167.5 273.5,-188.5 387.5,-188.5 387.5,-167.5 273.5,-167.5"/>
<polygon fill="none" stroke="#8ccbf2" points="273.5,-167.5 273.5,-188.5 387.5,-188.5 387.5,-167.5 273.5,-167.5"/>
<text text-anchor="start" x="276.5" y="-175.3" font-family="mono" font-weight="bold" font-size="14.00" fill="#c83500">MultiLanguage</text>
</g>
<!-- InteractionPattern -->
<g id="node2" class="node"><title>InteractionPattern</title>
<polygon fill="#8ccbf2" stroke="none" points="319.5,-394.5 319.5,-415.5 500.5,-415.5 500.5,-394.5 319.5,-394.5"/>
<polygon fill="none" stroke="#8ccbf2" points="319.5,-394.5 319.5,-415.5 500.5,-415.5 500.5,-394.5 319.5,-394.5"/>
<text text-anchor="start" x="335.5" y="-402.3" font-family="mono" font-weight="bold" font-size="14.00" fill="#c83500">InteractionPattern</text>
<polygon fill="#ddeeff" stroke="none" points="319.5,-373.5 319.5,-394.5 500.5,-394.5 500.5,-373.5 319.5,-373.5"/>
<polygon fill="none" stroke="#8ccbf2" points="319.5,-373.5 319.5,-394.5 500.5,-394.5 500.5,-373.5 319.5,-373.5"/>
<text text-anchor="start" x="322.5" y="-381.3" font-family="mono" font-size="14.00" fill="#c83500">security</text>
<text text-anchor="start" x="389.5" y="-381.3" font-family="Times,serif" font-size="14.00"> : array of </text>
<text text-anchor="start" x="447.5" y="-381.3" font-family="mono" font-size="14.00" fill="#c83500">string</text>
<polygon fill="#ddeeff" stroke="none" points="319.5,-352.5 319.5,-373.5 500.5,-373.5 500.5,-352.5 319.5,-352.5"/>
<polygon fill="none" stroke="#8ccbf2" points="319.5,-352.5 319.5,-373.5 500.5,-373.5 500.5,-352.5 319.5,-352.5"/>
<text text-anchor="start" x="322.5" y="-360.3" font-family="mono" font-size="14.00" fill="#c83500">scopes</text>
<text text-anchor="start" x="372.5" y="-360.3" font-family="Times,serif" font-size="14.00"> : array of </text>
<text text-anchor="start" x="430.5" y="-360.3" font-family="mono" font-size="14.00" fill="#c83500">string</text>
<polygon fill="#ddeeff" stroke="none" points="319.5,-331.5 319.5,-352.5 500.5,-352.5 500.5,-331.5 319.5,-331.5"/>
<polygon fill="none" stroke="#8ccbf2" points="319.5,-331.5 319.5,-352.5 500.5,-352.5 500.5,-331.5 319.5,-331.5"/>
<text text-anchor="start" x="322.5" y="-339.3" font-family="mono" font-size="14.00" fill="#c83500">description</text>
<text text-anchor="start" x="413.5" y="-339.3" font-family="Times,serif" font-size="14.00"> : </text>
<text text-anchor="start" x="425.5" y="-339.3" font-family="mono" font-size="14.00" fill="#c83500">string</text>
<polygon fill="#ddeeff" stroke="none" points="319.5,-310.5 319.5,-331.5 500.5,-331.5 500.5,-310.5 319.5,-310.5"/>
<polygon fill="none" stroke="#8ccbf2" points="319.5,-310.5 319.5,-331.5 500.5,-331.5 500.5,-310.5 319.5,-310.5"/>
<text text-anchor="start" x="322.5" y="-318.3" font-family="mono" font-size="14.00" fill="#c83500">title</text>
<text text-anchor="start" x="364.5" y="-318.3" font-family="Times,serif" font-size="14.00"> : </text>
<text text-anchor="start" x="376.5" y="-318.3" font-family="mono" font-size="14.00" fill="#c83500">string</text>
</g>
<!-- InteractionPattern&#45;&gt;MultiLanguage -->
<g id="edge3" class="edge"><title>InteractionPattern&#45;&gt;MultiLanguage</title>
<path fill="none" stroke="black" d="M310.889,-316.739C301.608,-308.753 293.46,-299.549 287.5,-289 272.02,-261.602 290.751,-227.518 308.119,-204.721"/>
<polygon fill="black" stroke="black" points="310.886,-206.865 314.39,-196.866 305.415,-202.498 310.886,-206.865"/>
<text text-anchor="start" x="287.5" y="-277.8" font-family="mono" font-size="14.00" fill="#c83500">descriptions</text>
<text text-anchor="middle" x="303.39" y="-200.666" font-family="Times,serif" font-size="14.00">0..1</text>
</g>
<!-- InteractionPattern&#45;&gt;MultiLanguage -->
<g id="edge4" class="edge"><title>InteractionPattern&#45;&gt;MultiLanguage</title>
<path fill="none" stroke="black" d="M398.386,-306.913C395.417,-295.814 391.807,-284.383 387.5,-274 377.28,-249.362 361.318,-223.573 348.882,-205.172"/>
<polygon fill="black" stroke="black" points="351.653,-203.025 343.101,-196.77 345.886,-206.992 351.653,-203.025"/>
<text text-anchor="start" x="393.5" y="-277.8" font-family="mono" font-size="14.00" fill="#c83500">titles</text>
<text text-anchor="middle" x="332.101" y="-200.57" font-family="Times,serif" font-size="14.00">0..1</text>
</g>
<!-- Form -->
<g id="node4" class="node"><title>Form</title>
<polygon fill="#8ccbf2" stroke="none" points="8.5,-230.5 8.5,-251.5 239.5,-251.5 239.5,-230.5 8.5,-230.5"/>
<polygon fill="none" stroke="#8ccbf2" points="8.5,-230.5 8.5,-251.5 239.5,-251.5 239.5,-230.5 8.5,-230.5"/>
<text text-anchor="start" x="107" y="-238.3" font-family="mono" font-weight="bold" font-size="14.00" fill="#c83500">Form</text>
<polygon fill="#ddeeff" stroke="none" points="8.5,-209.5 8.5,-230.5 239.5,-230.5 239.5,-209.5 8.5,-209.5"/>
<polygon fill="none" stroke="#8ccbf2" points="8.5,-209.5 8.5,-230.5 239.5,-230.5 239.5,-209.5 8.5,-209.5"/>
<text text-anchor="start" x="11.5" y="-217.3" font-family="mono" font-size="14.00" fill="#c83500">scopes</text>
<text text-anchor="start" x="61.5" y="-217.3" font-family="Times,serif" font-size="14.00"> : array of </text>
<text text-anchor="start" x="119.5" y="-217.3" font-family="mono" font-size="14.00" fill="#c83500">string</text>
<polygon fill="#ddeeff" stroke="none" points="8.5,-188.5 8.5,-209.5 239.5,-209.5 239.5,-188.5 8.5,-188.5"/>
<polygon fill="none" stroke="#8ccbf2" points="8.5,-188.5 8.5,-209.5 239.5,-209.5 239.5,-188.5 8.5,-188.5"/>
<text text-anchor="start" x="11.5" y="-196.3" font-family="mono" font-size="14.00" fill="#c83500">security</text>
<text text-anchor="start" x="78.5" y="-196.3" font-family="Times,serif" font-size="14.00"> : array of </text>
<text text-anchor="start" x="136.5" y="-196.3" font-family="mono" font-size="14.00" fill="#c83500">string</text>
<polygon fill="#ddeeff" stroke="none" points="8.5,-167.5 8.5,-188.5 239.5,-188.5 239.5,-167.5 8.5,-167.5"/>
<polygon fill="none" stroke="#8ccbf2" points="8.5,-167.5 8.5,-188.5 239.5,-188.5 239.5,-167.5 8.5,-167.5"/>
<text text-anchor="start" x="11.5" y="-175.3" font-family="mono" font-size="14.00" fill="#c83500">subprotocol</text>
<text text-anchor="start" x="102.5" y="-175.3" font-family="Times,serif" font-size="14.00"> : </text>
<text text-anchor="start" x="114.5" y="-175.3" font-family="mono" font-size="14.00" fill="#c83500">string</text>
<polygon fill="#ddeeff" stroke="none" points="8.5,-146.5 8.5,-167.5 239.5,-167.5 239.5,-146.5 8.5,-146.5"/>
<polygon fill="none" stroke="#8ccbf2" points="8.5,-146.5 8.5,-167.5 239.5,-167.5 239.5,-146.5 8.5,-146.5"/>
<text text-anchor="start" x="11.5" y="-154.3" font-family="mono" font-size="14.00" fill="#c83500">op</text>
<text text-anchor="start" x="28.5" y="-154.3" font-family="Times,serif" font-size="14.00"> : </text>
<text text-anchor="start" x="40.5" y="-154.3" font-family="mono" font-size="14.00" fill="#c83500">string</text>
<polygon fill="#ddeeff" stroke="none" points="8.5,-125.5 8.5,-146.5 239.5,-146.5 239.5,-125.5 8.5,-125.5"/>
<polygon fill="none" stroke="#8ccbf2" points="8.5,-125.5 8.5,-146.5 239.5,-146.5 239.5,-125.5 8.5,-125.5"/>
<text text-anchor="start" x="11.5" y="-133.3" font-family="mono" font-size="14.00" fill="#c83500">href</text>
<text text-anchor="start" x="45.5" y="-133.3" font-family="Times,serif" font-size="14.00"> : </text>
<text text-anchor="start" x="57.5" y="-133.3" font-family="mono" font-size="14.00" fill="#c83500">anyURI</text>
<text text-anchor="start" x="107.5" y="-133.3" font-family="Times,serif" font-size="14.00"> </text>
<text text-anchor="start" x="111.5" y="-133.3" font-family="Times,serif" font-style="italic" font-size="14.00">(mandatory)</text>
<polygon fill="#ddeeff" stroke="none" points="8.5,-104.5 8.5,-125.5 239.5,-125.5 239.5,-104.5 8.5,-104.5"/>
<polygon fill="none" stroke="#8ccbf2" points="8.5,-104.5 8.5,-125.5 239.5,-125.5 239.5,-104.5 8.5,-104.5"/>
<text text-anchor="start" x="11.5" y="-112.3" font-family="mono" font-size="14.00" fill="#c83500">contentType</text>
<text text-anchor="start" x="102.5" y="-112.3" font-family="Times,serif" font-size="14.00"> : </text>
<text text-anchor="start" x="114.5" y="-112.3" font-family="mono" font-size="14.00" fill="#c83500">string</text>
<text text-anchor="start" x="164.5" y="-112.3" font-family="Times,serif" font-size="14.00"> </text>
<text text-anchor="start" x="168.5" y="-112.3" font-family="Times,serif" font-style="italic" font-size="14.00">(mandatory)</text>
</g>
<!-- InteractionPattern&#45;&gt;Form -->
<g id="edge1" class="edge"><title>InteractionPattern&#45;&gt;Form</title>
<path fill="none" stroke="black" d="M310.639,-327.875C285.506,-317.119 259.207,-304.063 236.5,-289 224.847,-281.27 213.337,-272.254 202.378,-262.774"/>
<polygon fill="black" stroke="black" points="204.693,-260.15 194.883,-256.147 200.056,-265.394 204.693,-260.15"/>
<text text-anchor="start" x="236.5" y="-277.8" font-family="mono" font-size="14.00" fill="#c83500">forms</text>
<text text-anchor="middle" x="183.883" y="-259.947" font-family="Times,serif" font-size="14.00">1..*</text>
</g>
<!-- DataSchema -->
<g id="node11" class="node"><title>DataSchema</title>
<polygon fill="#f2f2f2" stroke="none" points="674.5,-167.5 674.5,-188.5 763.5,-188.5 763.5,-167.5 674.5,-167.5"/>
<polygon fill="none" stroke="#8c8c8c" points="674.5,-167.5 674.5,-188.5 763.5,-188.5 763.5,-167.5 674.5,-167.5"/>
<text text-anchor="start" x="677.5" y="-175.3" font-family="mono" font-weight="bold" font-size="14.00">DataSchema</text>
</g>
<!-- InteractionPattern&#45;&gt;DataSchema -->
<g id="edge2" class="edge"><title>InteractionPattern&#45;&gt;DataSchema</title>
<path fill="none" stroke="black" d="M448.747,-306.96C459.056,-294.986 470.862,-283.183 483.5,-274 536.028,-235.833 606.141,-210.256 656.078,-195.443"/>
<polygon fill="black" stroke="black" points="657.159,-198.774 665.786,-192.623 655.206,-192.052 657.159,-198.774"/>
<text text-anchor="start" x="483.5" y="-277.8" font-family="mono" font-size="14.00" fill="#c83500">uriVariables</text>
<text text-anchor="middle" x="654.786" y="-196.423" font-family="Times,serif" font-size="14.00">0..1</text>
</g>
<!-- Link -->
<g id="node3" class="node"><title>Link</title>
<polygon fill="#8ccbf2" stroke="none" points="837.5,-558.5 837.5,-579.5 1011.5,-579.5 1011.5,-558.5 837.5,-558.5"/>
<polygon fill="none" stroke="#8ccbf2" points="837.5,-558.5 837.5,-579.5 1011.5,-579.5 1011.5,-558.5 837.5,-558.5"/>
<text text-anchor="start" x="907.5" y="-566.3" font-family="mono" font-weight="bold" font-size="14.00" fill="#c83500">Link</text>
<polygon fill="#ddeeff" stroke="none" points="837.5,-537.5 837.5,-558.5 1011.5,-558.5 1011.5,-537.5 837.5,-537.5"/>
<polygon fill="none" stroke="#8ccbf2" points="837.5,-537.5 837.5,-558.5 1011.5,-558.5 1011.5,-537.5 837.5,-537.5"/>
<text text-anchor="start" x="840.5" y="-545.3" font-family="mono" font-size="14.00" fill="#c83500">type</text>
<text text-anchor="start" x="874.5" y="-545.3" font-family="Times,serif" font-size="14.00"> : </text>
<text text-anchor="start" x="886.5" y="-545.3" font-family="mono" font-size="14.00" fill="#c83500">string</text>
<polygon fill="#ddeeff" stroke="none" points="837.5,-516.5 837.5,-537.5 1011.5,-537.5 1011.5,-516.5 837.5,-516.5"/>
<polygon fill="none" stroke="#8ccbf2" points="837.5,-516.5 837.5,-537.5 1011.5,-537.5 1011.5,-516.5 837.5,-516.5"/>
<text text-anchor="start" x="840.5" y="-524.3" font-family="mono" font-size="14.00" fill="#c83500">rel</text>
<text text-anchor="start" x="865.5" y="-524.3" font-family="Times,serif" font-size="14.00"> : </text>
<text text-anchor="start" x="877.5" y="-524.3" font-family="mono" font-size="14.00" fill="#c83500">string</text>
<polygon fill="#ddeeff" stroke="none" points="837.5,-495.5 837.5,-516.5 1011.5,-516.5 1011.5,-495.5 837.5,-495.5"/>
<polygon fill="none" stroke="#8ccbf2" points="837.5,-495.5 837.5,-516.5 1011.5,-516.5 1011.5,-495.5 837.5,-495.5"/>
<text text-anchor="start" x="840.5" y="-503.3" font-family="mono" font-size="14.00" fill="#c83500">href</text>
<text text-anchor="start" x="874.5" y="-503.3" font-family="Times,serif" font-size="14.00"> : </text>
<text text-anchor="start" x="886.5" y="-503.3" font-family="mono" font-size="14.00" fill="#c83500">anyURI</text>
<text text-anchor="start" x="936.5" y="-503.3" font-family="Times,serif" font-size="14.00"> </text>
<text text-anchor="start" x="940.5" y="-503.3" font-family="Times,serif" font-style="italic" font-size="14.00">(mandatory)</text>
<polygon fill="#ddeeff" stroke="none" points="837.5,-474.5 837.5,-495.5 1011.5,-495.5 1011.5,-474.5 837.5,-474.5"/>
<polygon fill="none" stroke="#8ccbf2" points="837.5,-474.5 837.5,-495.5 1011.5,-495.5 1011.5,-474.5 837.5,-474.5"/>
<text text-anchor="start" x="840.5" y="-482.3" font-family="mono" font-size="14.00" fill="#c83500">anchor</text>
<text text-anchor="start" x="890.5" y="-482.3" font-family="Times,serif" font-size="14.00"> : </text>
<text text-anchor="start" x="902.5" y="-482.3" font-family="mono" font-size="14.00" fill="#c83500">anyURI</text>
</g>
<!-- ExpectedResponse -->
<g id="node7" class="node"><title>ExpectedResponse</title>
<polygon fill="#8ccbf2" stroke="none" points="44.5,-25 44.5,-46 203.5,-46 203.5,-25 44.5,-25"/>
<polygon fill="none" stroke="#8ccbf2" points="44.5,-25 44.5,-46 203.5,-46 203.5,-25 44.5,-25"/>
<text text-anchor="start" x="57.5" y="-32.8" font-family="mono" font-weight="bold" font-size="14.00" fill="#c83500">ExpectedResponse</text>
<polygon fill="#ddeeff" stroke="none" points="44.5,-4 44.5,-25 203.5,-25 203.5,-4 44.5,-4"/>
<polygon fill="none" stroke="#8ccbf2" points="44.5,-4 44.5,-25 203.5,-25 203.5,-4 44.5,-4"/>
<text text-anchor="start" x="47.5" y="-11.8" font-family="mono" font-size="14.00" fill="#c83500">contentType</text>
<text text-anchor="start" x="138.5" y="-11.8" font-family="Times,serif" font-size="14.00"> : </text>
<text text-anchor="start" x="150.5" y="-11.8" font-family="mono" font-size="14.00" fill="#c83500">string</text>
</g>
<!-- Form&#45;&gt;ExpectedResponse -->
<g id="edge5" class="edge"><title>Form&#45;&gt;ExpectedResponse</title>
<path fill="none" stroke="black" d="M123.5,-100.862C123.5,-86.5577 123.5,-72.2953 123.5,-60.116"/>
<polygon fill="black" stroke="black" points="127,-60.0004 123.5,-50.0004 120,-60.0004 127,-60.0004"/>
<text text-anchor="start" x="123.5" y="-71.8" font-family="mono" font-size="14.00" fill="#c83500">response</text>
<text text-anchor="middle" x="112.5" y="-53.8004" font-family="Times,serif" font-size="14.00">0..1</text>
</g>
<!-- Thing -->
<g id="node5" class="node"><title>Thing</title>
<polygon fill="#8ccbf2" stroke="none" points="565.5,-806.5 565.5,-827.5 818.5,-827.5 818.5,-806.5 565.5,-806.5"/>
<polygon fill="none" stroke="#8ccbf2" points="565.5,-806.5 565.5,-827.5 818.5,-827.5 818.5,-806.5 565.5,-806.5"/>
<text text-anchor="start" x="671" y="-814.3" font-family="mono" font-weight="bold" font-size="14.00" fill="#c83500">Thing</text>
<polygon fill="#ddeeff" stroke="none" points="565.5,-785.5 565.5,-806.5 818.5,-806.5 818.5,-785.5 565.5,-785.5"/>
<polygon fill="none" stroke="#8ccbf2" points="565.5,-785.5 565.5,-806.5 818.5,-806.5 818.5,-785.5 565.5,-785.5"/>
<text text-anchor="start" x="568.5" y="-793.3" font-family="mono" font-size="14.00" fill="#c83500">id</text>
<text text-anchor="start" x="585.5" y="-793.3" font-family="Times,serif" font-size="14.00"> : </text>
<text text-anchor="start" x="597.5" y="-793.3" font-family="mono" font-size="14.00" fill="#c83500">anyURI</text>
<text text-anchor="start" x="647.5" y="-793.3" font-family="Times,serif" font-size="14.00"> </text>
<text text-anchor="start" x="651.5" y="-793.3" font-family="Times,serif" font-style="italic" font-size="14.00">(mandatory)</text>
<polygon fill="#ddeeff" stroke="none" points="565.5,-764.5 565.5,-785.5 818.5,-785.5 818.5,-764.5 565.5,-764.5"/>
<polygon fill="none" stroke="#8ccbf2" points="565.5,-764.5 565.5,-785.5 818.5,-785.5 818.5,-764.5 565.5,-764.5"/>
<text text-anchor="start" x="568.5" y="-772.3" font-family="mono" font-size="14.00" fill="#c83500">description</text>
<text text-anchor="start" x="659.5" y="-772.3" font-family="Times,serif" font-size="14.00"> : </text>
<text text-anchor="start" x="671.5" y="-772.3" font-family="mono" font-size="14.00" fill="#c83500">string</text>
<polygon fill="#ddeeff" stroke="none" points="565.5,-743.5 565.5,-764.5 818.5,-764.5 818.5,-743.5 565.5,-743.5"/>
<polygon fill="none" stroke="#8ccbf2" points="565.5,-743.5 565.5,-764.5 818.5,-764.5 818.5,-743.5 565.5,-743.5"/>
<text text-anchor="start" x="568.5" y="-751.3" font-family="mono" font-size="14.00" fill="#c83500">support</text>
<text text-anchor="start" x="626.5" y="-751.3" font-family="Times,serif" font-size="14.00"> : </text>
<text text-anchor="start" x="638.5" y="-751.3" font-family="mono" font-size="14.00" fill="#c83500">string</text>
<polygon fill="#ddeeff" stroke="none" points="565.5,-722.5 565.5,-743.5 818.5,-743.5 818.5,-722.5 565.5,-722.5"/>
<polygon fill="none" stroke="#8ccbf2" points="565.5,-722.5 565.5,-743.5 818.5,-743.5 818.5,-722.5 565.5,-722.5"/>
<text text-anchor="start" x="568.5" y="-730.3" font-family="mono" font-size="14.00" fill="#c83500">lastModified</text>
<text text-anchor="start" x="668.5" y="-730.3" font-family="Times,serif" font-size="14.00"> : </text>
<text text-anchor="start" x="680.5" y="-730.3" font-family="mono" font-size="14.00" fill="#c83500">string</text>
<polygon fill="#ddeeff" stroke="none" points="565.5,-701.5 565.5,-722.5 818.5,-722.5 818.5,-701.5 565.5,-701.5"/>
<polygon fill="none" stroke="#8ccbf2" points="565.5,-701.5 565.5,-722.5 818.5,-722.5 818.5,-701.5 565.5,-701.5"/>
<text text-anchor="start" x="568.5" y="-709.3" font-family="mono" font-size="14.00" fill="#c83500">base</text>
<text text-anchor="start" x="602.5" y="-709.3" font-family="Times,serif" font-size="14.00"> : </text>
<text text-anchor="start" x="614.5" y="-709.3" font-family="mono" font-size="14.00" fill="#c83500">anyURI</text>
<polygon fill="#ddeeff" stroke="none" points="565.5,-680.5 565.5,-701.5 818.5,-701.5 818.5,-680.5 565.5,-680.5"/>
<polygon fill="none" stroke="#8ccbf2" points="565.5,-680.5 565.5,-701.5 818.5,-701.5 818.5,-680.5 565.5,-680.5"/>
<text text-anchor="start" x="568.5" y="-688.3" font-family="mono" font-size="14.00" fill="#c83500">name</text>
<text text-anchor="start" x="602.5" y="-688.3" font-family="Times,serif" font-size="14.00"> : </text>
<text text-anchor="start" x="614.5" y="-688.3" font-family="mono" font-size="14.00" fill="#c83500">string</text>
<text text-anchor="start" x="664.5" y="-688.3" font-family="Times,serif" font-size="14.00"> </text>
<text text-anchor="start" x="668.5" y="-688.3" font-family="Times,serif" font-style="italic" font-size="14.00">(mandatory)</text>
<polygon fill="#ddeeff" stroke="none" points="565.5,-659.5 565.5,-680.5 818.5,-680.5 818.5,-659.5 565.5,-659.5"/>
<polygon fill="none" stroke="#8ccbf2" points="565.5,-659.5 565.5,-680.5 818.5,-680.5 818.5,-659.5 565.5,-659.5"/>
<text text-anchor="start" x="568.5" y="-667.3" font-family="mono" font-size="14.00" fill="#c83500">created</text>
<text text-anchor="start" x="626.5" y="-667.3" font-family="Times,serif" font-size="14.00"> : </text>
<text text-anchor="start" x="638.5" y="-667.3" font-family="mono" font-size="14.00" fill="#c83500">string</text>
<polygon fill="#ddeeff" stroke="none" points="565.5,-638.5 565.5,-659.5 818.5,-659.5 818.5,-638.5 565.5,-638.5"/>
<polygon fill="none" stroke="#8ccbf2" points="565.5,-638.5 565.5,-659.5 818.5,-659.5 818.5,-638.5 565.5,-638.5"/>
<text text-anchor="start" x="568.5" y="-646.3" font-family="mono" font-size="14.00" fill="#c83500">security</text>
<text text-anchor="start" x="635.5" y="-646.3" font-family="Times,serif" font-size="14.00"> : array of </text>
<text text-anchor="start" x="693.5" y="-646.3" font-family="mono" font-size="14.00" fill="#c83500">string</text>
<text text-anchor="start" x="743.5" y="-646.3" font-family="Times,serif" font-size="14.00"> </text>
<text text-anchor="start" x="747.5" y="-646.3" font-family="Times,serif" font-style="italic" font-size="14.00">(mandatory)</text>
</g>
<!-- Thing&#45;&gt;MultiLanguage -->
<g id="edge8" class="edge"><title>Thing&#45;&gt;MultiLanguage</title>
<path fill="none" stroke="black" d="M556.892,-709.543C428.748,-684.621 249.395,-640.677 207.5,-584 182.871,-550.681 185.231,-318.793 215.5,-274 226.415,-257.847 239.511,-267.153 255.5,-256 276.285,-241.502 296.19,-220.767 310.264,-204.54"/>
<polygon fill="black" stroke="black" points="313.266,-206.412 317.066,-196.523 307.928,-201.883 313.266,-206.412"/>
<text text-anchor="start" x="191.5" y="-441.8" font-family="mono" font-size="14.00" fill="#c83500">descriptions</text>
<text text-anchor="middle" x="328.066" y="-200.323" font-family="Times,serif" font-size="14.00">0..1</text>
</g>
<!-- Thing&#45;&gt;Link -->
<g id="edge7" class="edge"><title>Thing&#45;&gt;Link</title>
<path fill="none" stroke="black" d="M802.882,-634.981C819.975,-620.015 837.216,-604.921 853.128,-590.989"/>
<polygon fill="black" stroke="black" points="855.607,-593.47 860.826,-584.249 850.996,-588.203 855.607,-593.47"/>
<text text-anchor="start" x="836.5" y="-605.8" font-family="mono" font-size="14.00" fill="#c83500">links</text>
<text text-anchor="middle" x="849.826" y="-588.049" font-family="Times,serif" font-size="14.00">0..*</text>
</g>
<!-- Thing&#45;&gt;Form -->
<g id="edge9" class="edge"><title>Thing&#45;&gt;Form</title>
<path fill="none" stroke="black" d="M556.756,-717.952C459.234,-703.108 326.795,-673.805 222.5,-617 203.725,-606.774 198.902,-602.085 187.5,-584 126.678,-487.53 116.948,-353.151 118.163,-266.24"/>
<polygon fill="black" stroke="black" points="121.665,-266.21 118.357,-256.145 114.666,-266.076 121.665,-266.21"/>
<text text-anchor="start" x="135.5" y="-441.8" font-family="mono" font-size="14.00" fill="#c83500">forms</text>
<text text-anchor="middle" x="107.357" y="-259.945" font-family="Times,serif" font-size="14.00">0..*</text>
</g>
<!-- Property -->
<g id="node6" class="node"><title>Property</title>
<polygon fill="#8ccbf2" stroke="none" points="225.5,-527.5 225.5,-548.5 456.5,-548.5 456.5,-527.5 225.5,-527.5"/>
<polygon fill="none" stroke="#8ccbf2" points="225.5,-527.5 225.5,-548.5 456.5,-548.5 456.5,-527.5 225.5,-527.5"/>
<text text-anchor="start" x="307.5" y="-535.3" font-family="mono" font-weight="bold" font-size="14.00" fill="#c83500">Property</text>
<polygon fill="#ddeeff" stroke="none" points="225.5,-506.5 225.5,-527.5 456.5,-527.5 456.5,-506.5 225.5,-506.5"/>
<polygon fill="none" stroke="#8ccbf2" points="225.5,-506.5 225.5,-527.5 456.5,-527.5 456.5,-506.5 225.5,-506.5"/>
<text text-anchor="start" x="228.5" y="-514.3" font-family="mono" font-size="14.00" fill="#c83500">observable</text>
<text text-anchor="start" x="311.5" y="-514.3" font-family="Times,serif" font-size="14.00"> : </text>
<text text-anchor="start" x="323.5" y="-514.3" font-family="mono" font-size="14.00" fill="#c83500">boolean</text>
<text text-anchor="start" x="381.5" y="-514.3" font-family="Times,serif" font-size="14.00"> </text>
<text text-anchor="start" x="385.5" y="-514.3" font-family="Times,serif" font-style="italic" font-size="14.00">(mandatory)</text>
</g>
<!-- Thing&#45;&gt;Property -->
<g id="edge10" class="edge"><title>Thing&#45;&gt;Property</title>
<path fill="none" stroke="black" d="M556.798,-654.212C498.68,-620.434 434.244,-582.983 390.943,-557.818"/>
<polygon fill="black" stroke="black" points="392.439,-554.639 382.034,-552.64 388.921,-560.691 392.439,-554.639"/>
<text text-anchor="start" x="485.5" y="-605.8" font-family="mono" font-size="14.00" fill="#c83500">properties</text>
<text text-anchor="middle" x="371.034" y="-556.44" font-family="Times,serif" font-size="14.00">0..1</text>
</g>
<!-- Action -->
<g id="node8" class="node"><title>Action</title>
<polygon fill="#8ccbf2" stroke="none" points="490.5,-537.5 490.5,-558.5 721.5,-558.5 721.5,-537.5 490.5,-537.5"/>
<polygon fill="none" stroke="#8ccbf2" points="490.5,-537.5 490.5,-558.5 721.5,-558.5 721.5,-537.5 490.5,-537.5"/>
<text text-anchor="start" x="581" y="-545.3" font-family="mono" font-weight="bold" font-size="14.00" fill="#c83500">Action</text>
<polygon fill="#ddeeff" stroke="none" points="490.5,-516.5 490.5,-537.5 721.5,-537.5 721.5,-516.5 490.5,-516.5"/>
<polygon fill="none" stroke="#8ccbf2" points="490.5,-516.5 490.5,-537.5 721.5,-537.5 721.5,-516.5 490.5,-516.5"/>
<text text-anchor="start" x="493.5" y="-524.3" font-family="mono" font-size="14.00" fill="#c83500">safe</text>
<text text-anchor="start" x="527.5" y="-524.3" font-family="Times,serif" font-size="14.00"> : </text>
<text text-anchor="start" x="539.5" y="-524.3" font-family="mono" font-size="14.00" fill="#c83500">boolean</text>
<text text-anchor="start" x="597.5" y="-524.3" font-family="Times,serif" font-size="14.00"> </text>
<text text-anchor="start" x="601.5" y="-524.3" font-family="Times,serif" font-style="italic" font-size="14.00">(mandatory)</text>
<polygon fill="#ddeeff" stroke="none" points="490.5,-495.5 490.5,-516.5 721.5,-516.5 721.5,-495.5 490.5,-495.5"/>
<polygon fill="none" stroke="#8ccbf2" points="490.5,-495.5 490.5,-516.5 721.5,-516.5 721.5,-495.5 490.5,-495.5"/>
<text text-anchor="start" x="493.5" y="-503.3" font-family="mono" font-size="14.00" fill="#c83500">idempotent</text>
<text text-anchor="start" x="576.5" y="-503.3" font-family="Times,serif" font-size="14.00"> : </text>
<text text-anchor="start" x="588.5" y="-503.3" font-family="mono" font-size="14.00" fill="#c83500">boolean</text>
<text text-anchor="start" x="646.5" y="-503.3" font-family="Times,serif" font-size="14.00"> </text>
<text text-anchor="start" x="650.5" y="-503.3" font-family="Times,serif" font-style="italic" font-size="14.00">(mandatory)</text>
</g>
<!-- Thing&#45;&gt;Action -->
<g id="edge6" class="edge"><title>Thing&#45;&gt;Action</title>
<path fill="none" stroke="black" d="M650.389,-634.981C641.122,-612.998 631.737,-590.737 623.962,-572.293"/>
<polygon fill="black" stroke="black" points="627.161,-570.872 620.051,-563.017 620.711,-573.592 627.161,-570.872"/>
<text text-anchor="start" x="641.5" y="-605.8" font-family="mono" font-size="14.00" fill="#c83500">actions</text>
<text text-anchor="middle" x="609.051" y="-566.817" font-family="Times,serif" font-size="14.00">0..1</text>
</g>
<!-- Event -->
<g id="node9" class="node"><title>Event</title>
<polygon fill="#8ccbf2" stroke="none" points="755.5,-516.5 755.5,-537.5 803.5,-537.5 803.5,-516.5 755.5,-516.5"/>
<polygon fill="none" stroke="#8ccbf2" points="755.5,-516.5 755.5,-537.5 803.5,-537.5 803.5,-516.5 755.5,-516.5"/>
<text text-anchor="start" x="758.5" y="-524.3" font-family="mono" font-weight="bold" font-size="14.00" fill="#c83500">Event</text>
</g>
<!-- Thing&#45;&gt;Event -->
<g id="edge13" class="edge"><title>Thing&#45;&gt;Event</title>
<path fill="none" stroke="black" d="M733.567,-634.981C746.251,-605.578 759.149,-575.677 768.035,-555.077"/>
<polygon fill="black" stroke="black" points="771.31,-556.323 772.057,-545.755 764.882,-553.551 771.31,-556.323"/>
<text text-anchor="start" x="746.5" y="-605.8" font-family="mono" font-size="14.00" fill="#c83500">events</text>
<text text-anchor="middle" x="761.057" y="-549.555" font-family="Times,serif" font-size="14.00">0..1</text>
</g>
<!-- Versioning -->
<g id="node10" class="node"><title>Versioning</title>
<polygon fill="#8ccbf2" stroke="none" points="1046.5,-527.5 1046.5,-548.5 1253.5,-548.5 1253.5,-527.5 1046.5,-527.5"/>
<polygon fill="none" stroke="#8ccbf2" points="1046.5,-527.5 1046.5,-548.5 1253.5,-548.5 1253.5,-527.5 1046.5,-527.5"/>
<text text-anchor="start" x="1108.5" y="-535.3" font-family="mono" font-weight="bold" font-size="14.00" fill="#c83500">Versioning</text>
<polygon fill="#ddeeff" stroke="none" points="1046.5,-506.5 1046.5,-527.5 1253.5,-527.5 1253.5,-506.5 1046.5,-506.5"/>
<polygon fill="none" stroke="#8ccbf2" points="1046.5,-506.5 1046.5,-527.5 1253.5,-527.5 1253.5,-506.5 1046.5,-506.5"/>
<text text-anchor="start" x="1049.5" y="-514.3" font-family="mono" font-size="14.00" fill="#c83500">instance</text>
<text text-anchor="start" x="1116.5" y="-514.3" font-family="Times,serif" font-size="14.00"> : </text>
<text text-anchor="start" x="1128.5" y="-514.3" font-family="mono" font-size="14.00" fill="#c83500">string</text>
<text text-anchor="start" x="1178.5" y="-514.3" font-family="Times,serif" font-size="14.00"> </text>
<text text-anchor="start" x="1182.5" y="-514.3" font-family="Times,serif" font-style="italic" font-size="14.00">(mandatory)</text>
</g>
<!-- Thing&#45;&gt;Versioning -->
<g id="edge11" class="edge"><title>Thing&#45;&gt;Versioning</title>
<path fill="none" stroke="black" d="M826.175,-673.706C887.925,-646.607 962.024,-613.89 1028.5,-584 1047.97,-575.244 1069.15,-565.58 1088.26,-556.804"/>
<polygon fill="black" stroke="black" points="1089.84,-559.931 1097.46,-552.575 1086.92,-553.571 1089.84,-559.931"/>
<text text-anchor="start" x="983.5" y="-605.8" font-family="mono" font-size="14.00" fill="#c83500">version</text>
<text text-anchor="middle" x="1086.46" y="-556.375" font-family="Times,serif" font-size="14.00">0..1</text>
</g>
<!-- SecurityScheme -->
<g id="node12" class="node"><title>SecurityScheme</title>
<polygon fill="#f2f2f2" stroke="none" points="1287.5,-516.5 1287.5,-537.5 1409.5,-537.5 1409.5,-516.5 1287.5,-516.5"/>
<polygon fill="none" stroke="#8c8c8c" points="1287.5,-516.5 1287.5,-537.5 1409.5,-537.5 1409.5,-516.5 1287.5,-516.5"/>
<text text-anchor="start" x="1290.5" y="-524.3" font-family="mono" font-weight="bold" font-size="14.00">SecurityScheme</text>
</g>
<!-- Thing&#45;&gt;SecurityScheme -->
<g id="edge12" class="edge"><title>Thing&#45;&gt;SecurityScheme</title>
<path fill="none" stroke="black" d="M826.114,-712.113C946.327,-690.641 1125.19,-650.525 1269.5,-584 1287.7,-575.612 1306.12,-562.956 1320.6,-551.847"/>
<polygon fill="black" stroke="black" points="1322.94,-554.462 1328.64,-545.529 1318.61,-548.959 1322.94,-554.462"/>
<text text-anchor="start" x="1225.5" y="-605.8" font-family="mono" font-size="14.00" fill="#c83500">securityDefinitions</text>
<text text-anchor="middle" x="1317.64" y="-549.329" font-family="Times,serif" font-size="14.00">1..1</text>
</g>
<!-- Property&#45;&gt;InteractionPattern -->
<g id="edge21" class="edge"><title>Property&#45;&gt;InteractionPattern</title>
<path fill="none" stroke="black" d="M350.83,-502.247C359.033,-482.987 370.901,-455.125 381.819,-429.49"/>
<polygon fill="white" stroke="black" points="385.091,-430.739 385.79,-420.167 378.651,-427.996 385.091,-430.739"/>
</g>
<!-- Action&#45;&gt;InteractionPattern -->
<g id="edge19" class="edge"><title>Action&#45;&gt;InteractionPattern</title>
<path fill="none" stroke="black" d="M563.453,-491.747C540.521,-472.793 511.441,-448.757 484.745,-426.693"/>
<polygon fill="white" stroke="black" points="486.856,-423.896 476.918,-420.223 482.396,-429.292 486.856,-423.896"/>
</g>
<!-- Action&#45;&gt;DataSchema -->
<g id="edge14" class="edge"><title>Action&#45;&gt;DataSchema</title>
<path fill="none" stroke="black" d="M599.603,-491.686C593.584,-447.223 588.097,-368.659 611.5,-307 627.484,-264.888 663.673,-226.789 689.535,-203.429"/>
<polygon fill="black" stroke="black" points="692.017,-205.907 697.196,-196.664 687.384,-200.66 692.017,-205.907"/>
<text text-anchor="start" x="611.5" y="-359.8" font-family="mono" font-size="14.00" fill="#c83500">input</text>
<text text-anchor="middle" x="686.196" y="-200.464" font-family="Times,serif" font-size="14.00">0..1</text>
</g>
<!-- Action&#45;&gt;DataSchema -->
<g id="edge15" class="edge"><title>Action&#45;&gt;DataSchema</title>
<path fill="none" stroke="black" d="M622.939,-491.581C632.752,-471.066 644.752,-444.441 653.5,-420 667.779,-380.105 698.278,-260.393 711.803,-206.416"/>
<polygon fill="black" stroke="black" points="715.242,-207.09 714.272,-196.54 708.451,-205.392 715.242,-207.09"/>
<text text-anchor="start" x="685.5" y="-359.8" font-family="mono" font-size="14.00" fill="#c83500">output</text>
<text text-anchor="middle" x="725.272" y="-200.34" font-family="Times,serif" font-size="14.00">0..1</text>
</g>
<!-- Event&#45;&gt;InteractionPattern -->
<g id="edge20" class="edge"><title>Event&#45;&gt;InteractionPattern</title>
<path fill="none" stroke="black" d="M770.43,-509.425C763.073,-497.106 751.623,-480.955 737.5,-471 675.803,-427.511 647.297,-443.302 575.5,-420 556.832,-413.941 537.017,-407.407 517.823,-401.023"/>
<polygon fill="white" stroke="black" points="518.749,-397.642 508.155,-397.803 516.537,-404.284 518.749,-397.642"/>
</g>
<!-- Event&#45;&gt;DataSchema -->
<g id="edge16" class="edge"><title>Event&#45;&gt;DataSchema</title>
<path fill="none" stroke="black" d="M776.475,-509.292C766.617,-453.215 735.362,-275.419 723.307,-206.844"/>
<polygon fill="black" stroke="black" points="726.722,-206.055 721.543,-196.812 719.828,-207.267 726.722,-206.055"/>
<text text-anchor="start" x="760.5" y="-359.8" font-family="mono" font-size="14.00" fill="#c83500">data</text>
<text text-anchor="middle" x="710.543" y="-200.612" font-family="Times,serif" font-size="14.00">0..1</text>
</g>
<!-- Event&#45;&gt;DataSchema -->
<g id="edge17" class="edge"><title>Event&#45;&gt;DataSchema</title>
<path fill="none" stroke="black" d="M785.123,-509.297C796.508,-471.748 819.496,-379.966 798.5,-307 787.188,-267.687 759.796,-228.778 740.22,-204.479"/>
<polygon fill="black" stroke="black" points="742.721,-202.01 733.661,-196.517 737.318,-206.46 742.721,-202.01"/>
<text text-anchor="start" x="807.5" y="-359.8" font-family="mono" font-size="14.00" fill="#c83500">subscription</text>
<text text-anchor="middle" x="744.661" y="-200.317" font-family="Times,serif" font-size="14.00">0..1</text>
</g>
<!-- Event&#45;&gt;DataSchema -->
<g id="edge18" class="edge"><title>Event&#45;&gt;DataSchema</title>
<path fill="none" stroke="black" d="M789.377,-509.474C796.838,-497.651 807.921,-482.092 820.5,-471 855.274,-440.336 888.062,-460.003 911.5,-420 936.888,-376.668 935.291,-351.23 911.5,-307 883.291,-254.557 823.008,-220.089 777.271,-200.369"/>
<polygon fill="black" stroke="black" points="778.616,-197.138 768.041,-196.502 775.912,-203.594 778.616,-197.138"/>
<text text-anchor="start" x="930.5" y="-359.8" font-family="mono" font-size="14.00" fill="#c83500">cancellation</text>
<text text-anchor="middle" x="779.041" y="-200.302" font-family="Times,serif" font-size="14.00">0..1</text>
</g>
</g>
</svg>
