<?xml version="1.0" encoding="UTF-8" standalone="no"?>
<!DOCTYPE svg PUBLIC "-//W3C//DTD SVG 1.1//EN"
 "http://www.w3.org/Graphics/SVG/1.1/DTD/svg11.dtd">
<!-- Generated by graphviz version 2.40.1 (20161225.0304)
 -->
<!-- Title: %3 Pages: 1 -->
<svg width="1252pt" height="819pt"
 viewBox="0.00 0.00 1252.00 819.00" xmlns="http://www.w3.org/2000/svg" xmlns:xlink="http://www.w3.org/1999/xlink">
<g id="graph0" class="graph" transform="scale(1 1) rotate(0) translate(4 815)">
<title>%3</title>
<polygon fill="#ffffff" stroke="transparent" points="-4,4 -4,-815 1248,-815 1248,4 -4,4"/>
<!-- MultiLanguage -->
<g id="node1" class="node">
<title>MultiLanguage</title>
<polygon fill="#8ccbf2" stroke="transparent" points="8,-167.5 8,-188.5 122,-188.5 122,-167.5 8,-167.5"/>
<polygon fill="none" stroke="#8ccbf2" points="8,-167.5 8,-188.5 122,-188.5 122,-167.5 8,-167.5"/>
<text text-anchor="start" x="11" y="-175.3" font-family="mono" font-weight="bold" font-size="14.00" fill="#c83500">MultiLanguage</text>
</g>
<!-- Form -->
<g id="node2" class="node">
<title>Form</title>
<polygon fill="#8ccbf2" stroke="transparent" points="162,-230.5 162,-251.5 398,-251.5 398,-230.5 162,-230.5"/>
<polygon fill="none" stroke="#8ccbf2" points="162,-230.5 162,-251.5 398,-251.5 398,-230.5 162,-230.5"/>
<text text-anchor="start" x="263" y="-238.3" font-family="mono" font-weight="bold" font-size="14.00" fill="#c83500">Form</text>
<polygon fill="#ddeeff" stroke="transparent" points="162,-209.5 162,-230.5 398,-230.5 398,-209.5 162,-209.5"/>
<polygon fill="none" stroke="#8ccbf2" points="162,-209.5 162,-230.5 398,-230.5 398,-209.5 162,-209.5"/>
<text text-anchor="start" x="165" y="-217.3" font-family="mono" font-size="14.00" fill="#c83500">security</text>
<text text-anchor="start" x="232" y="-217.3" font-family="Times,serif" font-size="14.00" fill="#000000"> : array of </text>
<text text-anchor="start" x="292" y="-217.3" font-family="mono" font-size="14.00" fill="#c83500">string</text>
<polygon fill="#ddeeff" stroke="transparent" points="162,-188.5 162,-209.5 398,-209.5 398,-188.5 162,-188.5"/>
<polygon fill="none" stroke="#8ccbf2" points="162,-188.5 162,-209.5 398,-209.5 398,-188.5 162,-188.5"/>
<text text-anchor="start" x="165" y="-196.3" font-family="mono" font-size="14.00" fill="#c83500">href</text>
<text text-anchor="start" x="199" y="-196.3" font-family="Times,serif" font-size="14.00" fill="#000000"> : </text>
<text text-anchor="start" x="211" y="-196.3" font-family="mono" font-size="14.00" fill="#c83500">anyURI</text>
<text text-anchor="start" x="261" y="-196.3" font-family="Times,serif" font-size="14.00" fill="#000000"> </text>
<text text-anchor="start" x="265" y="-196.3" font-family="Times,serif" font-style="italic" font-size="14.00" fill="#000000">(mandatory)</text>
<polygon fill="#ddeeff" stroke="transparent" points="162,-167.5 162,-188.5 398,-188.5 398,-167.5 162,-167.5"/>
<polygon fill="none" stroke="#8ccbf2" points="162,-167.5 162,-188.5 398,-188.5 398,-167.5 162,-167.5"/>
<text text-anchor="start" x="165" y="-175.3" font-family="mono" font-size="14.00" fill="#c83500">op</text>
<text text-anchor="start" x="182" y="-175.3" font-family="Times,serif" font-size="14.00" fill="#000000"> : </text>
<text text-anchor="start" x="194" y="-175.3" font-family="mono" font-size="14.00" fill="#c83500">string</text>
<text text-anchor="start" x="244" y="-175.3" font-family="Times,serif" font-size="14.00" fill="#000000"> </text>
<text text-anchor="start" x="248" y="-175.3" font-family="Times,serif" font-style="italic" font-size="14.00" fill="#000000">(mandatory)</text>
<polygon fill="#ddeeff" stroke="transparent" points="162,-146.5 162,-167.5 398,-167.5 398,-146.5 162,-146.5"/>
<polygon fill="none" stroke="#8ccbf2" points="162,-146.5 162,-167.5 398,-167.5 398,-146.5 162,-146.5"/>
<text text-anchor="start" x="165" y="-154.3" font-family="mono" font-size="14.00" fill="#c83500">subprotocol</text>
<text text-anchor="start" x="256" y="-154.3" font-family="Times,serif" font-size="14.00" fill="#000000"> : </text>
<text text-anchor="start" x="268" y="-154.3" font-family="mono" font-size="14.00" fill="#c83500">string</text>
<polygon fill="#ddeeff" stroke="transparent" points="162,-125.5 162,-146.5 398,-146.5 398,-125.5 162,-125.5"/>
<polygon fill="none" stroke="#8ccbf2" points="162,-125.5 162,-146.5 398,-146.5 398,-125.5 162,-125.5"/>
<text text-anchor="start" x="165" y="-133.3" font-family="mono" font-size="14.00" fill="#c83500">scopes</text>
<text text-anchor="start" x="215" y="-133.3" font-family="Times,serif" font-size="14.00" fill="#000000"> : array of </text>
<text text-anchor="start" x="275" y="-133.3" font-family="mono" font-size="14.00" fill="#c83500">string</text>
<polygon fill="#ddeeff" stroke="transparent" points="162,-104.5 162,-125.5 398,-125.5 398,-104.5 162,-104.5"/>
<polygon fill="none" stroke="#8ccbf2" points="162,-104.5 162,-125.5 398,-125.5 398,-104.5 162,-104.5"/>
<text text-anchor="start" x="165" y="-112.3" font-family="mono" font-size="14.00" fill="#c83500">contentType</text>
<text text-anchor="start" x="256" y="-112.3" font-family="Times,serif" font-size="14.00" fill="#000000"> : </text>
<text text-anchor="start" x="268" y="-112.3" font-family="mono" font-size="14.00" fill="#c83500">string</text>
<text text-anchor="start" x="318" y="-112.3" font-family="Times,serif" font-size="14.00" fill="#000000"> </text>
<text text-anchor="start" x="322" y="-112.3" font-family="Times,serif" font-style="italic" font-size="14.00" fill="#000000">(mandatory)</text>
</g>
<!-- ExpectedResponse -->
<g id="node5" class="node">
<title>ExpectedResponse</title>
<polygon fill="#8ccbf2" stroke="transparent" points="162,-25 162,-46 398,-46 398,-25 162,-25"/>
<polygon fill="none" stroke="#8ccbf2" points="162,-25 162,-46 398,-46 398,-25 162,-25"/>
<text text-anchor="start" x="213.5" y="-32.8" font-family="mono" font-weight="bold" font-size="14.00" fill="#c83500">ExpectedResponse</text>
<polygon fill="#ddeeff" stroke="transparent" points="162,-4 162,-25 398,-25 398,-4 162,-4"/>
<polygon fill="none" stroke="#8ccbf2" points="162,-4 162,-25 398,-25 398,-4 162,-4"/>
<text text-anchor="start" x="165" y="-11.8" font-family="mono" font-size="14.00" fill="#c83500">contentType</text>
<text text-anchor="start" x="256" y="-11.8" font-family="Times,serif" font-size="14.00" fill="#000000"> : </text>
<text text-anchor="start" x="268" y="-11.8" font-family="mono" font-size="14.00" fill="#c83500">string</text>
<text text-anchor="start" x="318" y="-11.8" font-family="Times,serif" font-size="14.00" fill="#000000"> </text>
<text text-anchor="start" x="322" y="-11.8" font-family="Times,serif" font-style="italic" font-size="14.00" fill="#000000">(mandatory)</text>
</g>
<!-- Form&#45;&gt;ExpectedResponse -->
<g id="edge1" class="edge">
<title>Form&#45;&gt;ExpectedResponse</title>
<path fill="none" stroke="#000000" d="M280,-100.8506C280,-86.7022 280,-72.5946 280,-60.4513"/>
<polygon fill="#000000" stroke="#000000" points="283.5001,-60.3339 280,-50.334 276.5001,-60.334 283.5001,-60.3339"/>
<text text-anchor="start" x="280" y="-71.8" font-family="mono" font-size="14.00" fill="#c83500">response</text>
<text text-anchor="middle" x="268.5" y="-54.134" font-family="Times,serif" font-size="14.00" fill="#000000">0..1</text>
</g>
<!-- Thing -->
<g id="node3" class="node">
<title>Thing</title>
<polygon fill="#8ccbf2" stroke="transparent" points="483,-786 483,-807 743,-807 743,-786 483,-786"/>
<polygon fill="none" stroke="#8ccbf2" points="483,-786 483,-807 743,-807 743,-786 483,-786"/>
<text text-anchor="start" x="592" y="-793.8" font-family="mono" font-weight="bold" font-size="14.00" fill="#c83500">Thing</text>
<polygon fill="#ddeeff" stroke="transparent" points="483,-765 483,-786 743,-786 743,-765 483,-765"/>
<polygon fill="none" stroke="#8ccbf2" points="483,-765 483,-786 743,-786 743,-765 483,-765"/>
<text text-anchor="start" x="486" y="-772.8" font-family="mono" font-size="14.00" fill="#c83500">@context</text>
<text text-anchor="start" x="553" y="-772.8" font-family="Times,serif" font-size="14.00" fill="#000000"> : </text>
<text text-anchor="start" x="565" y="-772.8" font-family="Times,serif" font-style="italic" font-size="14.00" fill="#000000">array</text>
<text text-anchor="start" x="597" y="-772.8" font-family="Times,serif" font-size="14.00" fill="#000000"> </text>
<text text-anchor="start" x="601" y="-772.8" font-family="Times,serif" font-style="italic" font-size="14.00" fill="#000000">(mandatory)</text>
<polygon fill="#ddeeff" stroke="transparent" points="483,-744 483,-765 743,-765 743,-744 483,-744"/>
<polygon fill="none" stroke="#8ccbf2" points="483,-744 483,-765 743,-765 743,-744 483,-744"/>
<text text-anchor="start" x="486" y="-751.8" font-family="mono" font-size="14.00" fill="#c83500">@type</text>
<text text-anchor="start" x="528" y="-751.8" font-family="Times,serif" font-size="14.00" fill="#000000"> : </text>
<text text-anchor="start" x="540" y="-751.8" font-family="Times,serif" font-style="italic" font-size="14.00" fill="#000000">array of </text>
<text text-anchor="start" x="591" y="-751.8" font-family="mono" font-size="14.00" fill="#c83500">string</text>
<polygon fill="#ddeeff" stroke="transparent" points="483,-723 483,-744 743,-744 743,-723 483,-723"/>
<polygon fill="none" stroke="#8ccbf2" points="483,-723 483,-744 743,-744 743,-723 483,-723"/>
<text text-anchor="start" x="486" y="-730.8" font-family="mono" font-size="14.00" fill="#c83500">id</text>
<text text-anchor="start" x="503" y="-730.8" font-family="Times,serif" font-size="14.00" fill="#000000"> : </text>
<text text-anchor="start" x="515" y="-730.8" font-family="mono" font-size="14.00" fill="#c83500">anyURI</text>
<text text-anchor="start" x="565" y="-730.8" font-family="Times,serif" font-size="14.00" fill="#000000"> </text>
<text text-anchor="start" x="569" y="-730.8" font-family="Times,serif" font-style="italic" font-size="14.00" fill="#000000">(mandatory)</text>
<polygon fill="#ddeeff" stroke="transparent" points="483,-702 483,-723 743,-723 743,-702 483,-702"/>
<polygon fill="none" stroke="#8ccbf2" points="483,-702 483,-723 743,-723 743,-702 483,-702"/>
<text text-anchor="start" x="486" y="-709.8" font-family="mono" font-size="14.00" fill="#c83500">description</text>
<text text-anchor="start" x="577" y="-709.8" font-family="Times,serif" font-size="14.00" fill="#000000"> : </text>
<text text-anchor="start" x="589" y="-709.8" font-family="mono" font-size="14.00" fill="#c83500">string</text>
<polygon fill="#ddeeff" stroke="transparent" points="483,-681 483,-702 743,-702 743,-681 483,-681"/>
<polygon fill="none" stroke="#8ccbf2" points="483,-681 483,-702 743,-702 743,-681 483,-681"/>
<text text-anchor="start" x="486" y="-688.8" font-family="mono" font-size="14.00" fill="#c83500">names</text>
<text text-anchor="start" x="528" y="-688.8" font-family="Times,serif" font-size="14.00" fill="#000000"> : </text>
<text text-anchor="start" x="540" y="-688.8" font-family="mono" font-size="14.00" fill="#c83500">string</text>
<text text-anchor="start" x="590" y="-688.8" font-family="Times,serif" font-size="14.00" fill="#000000"> </text>
<text text-anchor="start" x="594" y="-688.8" font-family="Times,serif" font-style="italic" font-size="14.00" fill="#000000">(mandatory)</text>
<polygon fill="#ddeeff" stroke="transparent" points="483,-660 483,-681 743,-681 743,-660 483,-660"/>
<polygon fill="none" stroke="#8ccbf2" points="483,-660 483,-681 743,-681 743,-660 483,-660"/>
<text text-anchor="start" x="486" y="-667.8" font-family="mono" font-size="14.00" fill="#c83500">created</text>
<text text-anchor="start" x="544" y="-667.8" font-family="Times,serif" font-size="14.00" fill="#000000"> : </text>
<text text-anchor="start" x="556" y="-667.8" font-family="mono" font-size="14.00" fill="#c83500">string</text>
<polygon fill="#ddeeff" stroke="transparent" points="483,-639 483,-660 743,-660 743,-639 483,-639"/>
<polygon fill="none" stroke="#8ccbf2" points="483,-639 483,-660 743,-660 743,-639 483,-639"/>
<text text-anchor="start" x="486" y="-646.8" font-family="mono" font-size="14.00" fill="#c83500">security</text>
<text text-anchor="start" x="553" y="-646.8" font-family="Times,serif" font-size="14.00" fill="#000000"> : array of </text>
<text text-anchor="start" x="613" y="-646.8" font-family="mono" font-size="14.00" fill="#c83500">string</text>
<text text-anchor="start" x="663" y="-646.8" font-family="Times,serif" font-size="14.00" fill="#000000"> </text>
<text text-anchor="start" x="667" y="-646.8" font-family="Times,serif" font-style="italic" font-size="14.00" fill="#000000">(mandatory)</text>
<polygon fill="#ddeeff" stroke="transparent" points="483,-618 483,-639 743,-639 743,-618 483,-618"/>
<polygon fill="none" stroke="#8ccbf2" points="483,-618 483,-639 743,-639 743,-618 483,-618"/>
<text text-anchor="start" x="486" y="-625.8" font-family="mono" font-size="14.00" fill="#c83500">support</text>
<text text-anchor="start" x="544" y="-625.8" font-family="Times,serif" font-size="14.00" fill="#000000"> : </text>
<text text-anchor="start" x="556" y="-625.8" font-family="mono" font-size="14.00" fill="#c83500">string</text>
<polygon fill="#ddeeff" stroke="transparent" points="483,-597 483,-618 743,-618 743,-597 483,-597"/>
<polygon fill="none" stroke="#8ccbf2" points="483,-597 483,-618 743,-618 743,-597 483,-597"/>
<text text-anchor="start" x="486" y="-604.8" font-family="mono" font-size="14.00" fill="#c83500">base</text>
<text text-anchor="start" x="520" y="-604.8" font-family="Times,serif" font-size="14.00" fill="#000000"> : </text>
<text text-anchor="start" x="532" y="-604.8" font-family="mono" font-size="14.00" fill="#c83500">anyURI</text>
<polygon fill="#ddeeff" stroke="transparent" points="483,-576 483,-597 743,-597 743,-576 483,-576"/>
<polygon fill="none" stroke="#8ccbf2" points="483,-576 483,-597 743,-597 743,-576 483,-576"/>
<text text-anchor="start" x="486" y="-583.8" font-family="mono" font-size="14.00" fill="#c83500">name</text>
<text text-anchor="start" x="520" y="-583.8" font-family="Times,serif" font-size="14.00" fill="#000000"> : </text>
<text text-anchor="start" x="532" y="-583.8" font-family="mono" font-size="14.00" fill="#c83500">string</text>
<text text-anchor="start" x="582" y="-583.8" font-family="Times,serif" font-size="14.00" fill="#000000"> </text>
<text text-anchor="start" x="586" y="-583.8" font-family="Times,serif" font-style="italic" font-size="14.00" fill="#000000">(mandatory)</text>
<polygon fill="#ddeeff" stroke="transparent" points="483,-555 483,-576 743,-576 743,-555 483,-555"/>
<polygon fill="none" stroke="#8ccbf2" points="483,-555 483,-576 743,-576 743,-555 483,-555"/>
<text text-anchor="start" x="486" y="-562.8" font-family="mono" font-size="14.00" fill="#c83500">lastModified</text>
<text text-anchor="start" x="586" y="-562.8" font-family="Times,serif" font-size="14.00" fill="#000000"> : </text>
<text text-anchor="start" x="598" y="-562.8" font-family="mono" font-size="14.00" fill="#c83500">string</text>
</g>
<!-- Thing&#45;&gt;MultiLanguage -->
<g id="edge7" class="edge">
<title>Thing&#45;&gt;MultiLanguage</title>
<path fill="none" stroke="#000000" d="M474.8217,-652.0173C382.276,-628.7526 260.0854,-590.3797 163,-533 94.5077,-492.5194 63.7485,-483.9514 32,-411 1.8258,-341.6658 32.696,-250.757 51.9955,-205.9292"/>
<polygon fill="#000000" stroke="#000000" points="55.288,-207.1383 56.1444,-196.5781 48.8895,-204.2994 55.288,-207.1383"/>
<text text-anchor="start" x="32" y="-399.8" font-family="mono" font-size="14.00" fill="#c83500">descriptions</text>
<text text-anchor="middle" x="44.6444" y="-200.3781" font-family="Times,serif" font-size="14.00" fill="#000000">0..1</text>
</g>
<!-- Thing&#45;&gt;Form -->
<g id="edge9" class="edge">
<title>Thing&#45;&gt;Form</title>
<path fill="none" stroke="#000000" d="M474.7969,-645.6264C352.3437,-611.1579 187.203,-555.9092 149,-500 128.7469,-470.36 130.0584,-329.1152 159,-274 160.7516,-270.6644 162.6764,-267.4068 164.7502,-264.2288"/>
<polygon fill="#000000" stroke="#000000" points="167.6514,-266.1881 170.5707,-256.0034 161.9373,-262.1447 167.6514,-266.1881"/>
<text text-anchor="start" x="136" y="-399.8" font-family="mono" font-size="14.00" fill="#c83500">forms</text>
<text text-anchor="middle" x="159.0707" y="-259.8034" font-family="Times,serif" font-size="14.00" fill="#000000">0..*</text>
</g>
<!-- PropertyAffordance -->
<g id="node4" class="node">
<title>PropertyAffordance</title>
<polygon fill="#8ccbf2" stroke="transparent" points="167,-464.5 167,-485.5 326,-485.5 326,-464.5 167,-464.5"/>
<polygon fill="none" stroke="#8ccbf2" points="167,-464.5 167,-485.5 326,-485.5 326,-464.5 167,-464.5"/>
<text text-anchor="start" x="172" y="-472.3" font-family="mono" font-weight="bold" font-size="14.00" fill="#c83500">PropertyAffordance</text>
<polygon fill="#ddeeff" stroke="transparent" points="167,-443.5 167,-464.5 326,-464.5 326,-443.5 167,-443.5"/>
<polygon fill="none" stroke="#8ccbf2" points="167,-443.5 167,-464.5 326,-464.5 326,-443.5 167,-443.5"/>
<text text-anchor="start" x="170" y="-451.3" font-family="mono" font-size="14.00" fill="#c83500">observable</text>
<text text-anchor="start" x="253" y="-451.3" font-family="Times,serif" font-size="14.00" fill="#000000"> : </text>
<text text-anchor="start" x="265" y="-451.3" font-family="mono" font-size="14.00" fill="#c83500">boolean</text>
</g>
<!-- Thing&#45;&gt;PropertyAffordance -->
<g id="edge3" class="edge">
<title>Thing&#45;&gt;PropertyAffordance</title>
<path fill="none" stroke="#000000" d="M474.776,-599.4591C412.676,-562.8252 343.1969,-521.8382 297.2756,-494.7484"/>
<polygon fill="#000000" stroke="#000000" points="298.806,-491.5876 288.4146,-489.5212 295.2493,-497.6167 298.806,-491.5876"/>
<text text-anchor="start" x="355" y="-521.8" font-family="mono" font-size="14.00" fill="#c83500">properties</text>
<text text-anchor="middle" x="276.9146" y="-493.3212" font-family="Times,serif" font-size="14.00" fill="#000000">0..1</text>
</g>
<!-- VersionInfo -->
<g id="node6" class="node">
<title>VersionInfo</title>
<polygon fill="#8ccbf2" stroke="transparent" points="794,-464.5 794,-485.5 1006,-485.5 1006,-464.5 794,-464.5"/>
<polygon fill="none" stroke="#8ccbf2" points="794,-464.5 794,-485.5 1006,-485.5 1006,-464.5 794,-464.5"/>
<text text-anchor="start" x="854.5" y="-472.3" font-family="mono" font-weight="bold" font-size="14.00" fill="#c83500">VersionInfo</text>
<polygon fill="#ddeeff" stroke="transparent" points="794,-443.5 794,-464.5 1006,-464.5 1006,-443.5 794,-443.5"/>
<polygon fill="none" stroke="#8ccbf2" points="794,-443.5 794,-464.5 1006,-464.5 1006,-443.5 794,-443.5"/>
<text text-anchor="start" x="797" y="-451.3" font-family="mono" font-size="14.00" fill="#c83500">instance</text>
<text text-anchor="start" x="864" y="-451.3" font-family="Times,serif" font-size="14.00" fill="#000000"> : </text>
<text text-anchor="start" x="876" y="-451.3" font-family="mono" font-size="14.00" fill="#c83500">string</text>
<text text-anchor="start" x="926" y="-451.3" font-family="Times,serif" font-size="14.00" fill="#000000"> </text>
<text text-anchor="start" x="930" y="-451.3" font-family="Times,serif" font-style="italic" font-size="14.00" fill="#000000">(mandatory)</text>
</g>
<!-- Thing&#45;&gt;VersionInfo -->
<g id="edge8" class="edge">
<title>Thing&#45;&gt;VersionInfo</title>
<path fill="none" stroke="#000000" d="M751.0358,-576.8719C790.246,-547.2935 830.0009,-517.3042 858.568,-495.7544"/>
<polygon fill="#000000" stroke="#000000" points="860.814,-498.4444 866.6895,-489.628 856.5984,-492.8561 860.814,-498.4444"/>
<text text-anchor="start" x="824" y="-521.8" font-family="mono" font-size="14.00" fill="#c83500">version</text>
<text text-anchor="middle" x="855.1895" y="-493.428" font-family="Times,serif" font-size="14.00" fill="#000000">0..1</text>
</g>
<!-- ActionAffordance -->
<g id="node7" class="node">
<title>ActionAffordance</title>
<polygon fill="#8ccbf2" stroke="transparent" points="360,-474.5 360,-495.5 596,-495.5 596,-474.5 360,-474.5"/>
<polygon fill="none" stroke="#8ccbf2" points="360,-474.5 360,-495.5 596,-495.5 596,-474.5 360,-474.5"/>
<text text-anchor="start" x="411.5" y="-482.3" font-family="mono" font-weight="bold" font-size="14.00" fill="#c83500">ActionAffordance</text>
<polygon fill="#ddeeff" stroke="transparent" points="360,-453.5 360,-474.5 596,-474.5 596,-453.5 360,-453.5"/>
<polygon fill="none" stroke="#8ccbf2" points="360,-453.5 360,-474.5 596,-474.5 596,-453.5 360,-453.5"/>
<text text-anchor="start" x="363" y="-461.3" font-family="mono" font-size="14.00" fill="#c83500">safe</text>
<text text-anchor="start" x="397" y="-461.3" font-family="Times,serif" font-size="14.00" fill="#000000"> : </text>
<text text-anchor="start" x="409" y="-461.3" font-family="mono" font-size="14.00" fill="#c83500">boolean</text>
<text text-anchor="start" x="467" y="-461.3" font-family="Times,serif" font-size="14.00" fill="#000000"> </text>
<text text-anchor="start" x="471" y="-461.3" font-family="Times,serif" font-style="italic" font-size="14.00" fill="#000000">(mandatory)</text>
<polygon fill="#ddeeff" stroke="transparent" points="360,-432.5 360,-453.5 596,-453.5 596,-432.5 360,-432.5"/>
<polygon fill="none" stroke="#8ccbf2" points="360,-432.5 360,-453.5 596,-453.5 596,-432.5 360,-432.5"/>
<text text-anchor="start" x="363" y="-440.3" font-family="mono" font-size="14.00" fill="#c83500">idempotent</text>
<text text-anchor="start" x="446" y="-440.3" font-family="Times,serif" font-size="14.00" fill="#000000"> : </text>
<text text-anchor="start" x="458" y="-440.3" font-family="mono" font-size="14.00" fill="#c83500">boolean</text>
<text text-anchor="start" x="516" y="-440.3" font-family="Times,serif" font-size="14.00" fill="#000000"> </text>
<text text-anchor="start" x="520" y="-440.3" font-family="Times,serif" font-style="italic" font-size="14.00" fill="#000000">(mandatory)</text>
</g>
<!-- Thing&#45;&gt;ActionAffordance -->
<g id="edge4" class="edge">
<title>Thing&#45;&gt;ActionAffordance</title>
<path fill="none" stroke="#000000" d="M531.9376,-550.9999C522.4738,-535.8228 513.381,-521.2407 505.4454,-508.5143"/>
<polygon fill="#000000" stroke="#000000" points="508.4072,-506.6493 500.1461,-500.0157 502.4674,-510.3531 508.4072,-506.6493"/>
<text text-anchor="start" x="518" y="-521.8" font-family="mono" font-size="14.00" fill="#c83500">actions</text>
<text text-anchor="middle" x="488.6461" y="-503.8157" font-family="Times,serif" font-size="14.00" fill="#000000">0..1</text>
</g>
<!-- EventAffordance -->
<g id="node9" class="node">
<title>EventAffordance</title>
<polygon fill="#8ccbf2" stroke="transparent" points="630,-453.5 630,-474.5 760,-474.5 760,-453.5 630,-453.5"/>
<polygon fill="none" stroke="#8ccbf2" points="630,-453.5 630,-474.5 760,-474.5 760,-453.5 630,-453.5"/>
<text text-anchor="start" x="633" y="-461.3" font-family="mono" font-weight="bold" font-size="14.00" fill="#c83500">EventAffordance</text>
</g>
<!-- Thing&#45;&gt;EventAffordance -->
<g id="edge2" class="edge">
<title>Thing&#45;&gt;EventAffordance</title>
<path fill="none" stroke="#000000" d="M662.2379,-550.9999C670.6643,-528.7521 678.6066,-507.7827 684.5604,-492.0631"/>
<polygon fill="#000000" stroke="#000000" points="687.9019,-493.122 688.1709,-482.5306 681.3557,-490.6426 687.9019,-493.122"/>
<text text-anchor="start" x="674" y="-521.8" font-family="mono" font-size="14.00" fill="#c83500">events</text>
<text text-anchor="middle" x="676.6709" y="-486.3306" font-family="Times,serif" font-size="14.00" fill="#000000">0..1</text>
</g>
<!-- Link -->
<g id="node10" class="node">
<title>Link</title>
<polygon fill="#f2f2f2" stroke="transparent" points="1040,-453.5 1040,-474.5 1080,-474.5 1080,-453.5 1040,-453.5"/>
<polygon fill="none" stroke="#8c8c8c" points="1040,-453.5 1040,-474.5 1080,-474.5 1080,-453.5 1040,-453.5"/>
<text text-anchor="start" x="1043" y="-461.3" font-family="mono" font-weight="bold" font-size="14.00" fill="#000000">Link</text>
</g>
<!-- Thing&#45;&gt;Link -->
<g id="edge5" class="edge">
<title>Thing&#45;&gt;Link</title>
<path fill="none" stroke="#000000" d="M751.1716,-633.8952C833.7437,-602.4425 938.6391,-556.5114 1023,-500 1027.4168,-497.0413 1031.7864,-493.5311 1035.8905,-489.8878"/>
<polygon fill="#000000" stroke="#000000" points="1038.5111,-492.2279 1043.398,-482.8275 1033.7155,-487.1286 1038.5111,-492.2279"/>
<text text-anchor="start" x="993" y="-521.8" font-family="mono" font-size="14.00" fill="#c83500">links</text>
<text text-anchor="middle" x="1031.898" y="-486.6275" font-family="Times,serif" font-size="14.00" fill="#000000">0..*</text>
</g>
<!-- SecurityScheme -->
<g id="node11" class="node">
<title>SecurityScheme</title>
<polygon fill="#f2f2f2" stroke="transparent" points="1114,-453.5 1114,-474.5 1236,-474.5 1236,-453.5 1114,-453.5"/>
<polygon fill="none" stroke="#8c8c8c" points="1114,-453.5 1114,-474.5 1236,-474.5 1236,-453.5 1114,-453.5"/>
<text text-anchor="start" x="1117" y="-461.3" font-family="mono" font-weight="bold" font-size="14.00" fill="#000000">SecurityScheme</text>
</g>
<!-- Thing&#45;&gt;SecurityScheme -->
<g id="edge6" class="edge">
<title>Thing&#45;&gt;SecurityScheme</title>
<path fill="none" stroke="#000000" d="M751.4396,-638.0445C835.6299,-610.6594 944.7299,-572.9099 1039,-533 1071.2307,-519.3549 1106.4976,-501.503 1133.0405,-487.4447"/>
<polygon fill="#000000" stroke="#000000" points="1134.8684,-490.4366 1142.0459,-482.6434 1131.5751,-484.2596 1134.8684,-490.4366"/>
<text text-anchor="start" x="1070" y="-521.8" font-family="mono" font-size="14.00" fill="#c83500">securityDefinitions</text>
<text text-anchor="middle" x="1130.5459" y="-486.4434" font-family="Times,serif" font-size="14.00" fill="#000000">1..1</text>
</g>
<!-- InteractionAffordance -->
<g id="node8" class="node">
<title>InteractionAffordance</title>
<polygon fill="#8ccbf2" stroke="transparent" points="196,-352.5 196,-373.5 376,-373.5 376,-352.5 196,-352.5"/>
<polygon fill="none" stroke="#8ccbf2" points="196,-352.5 196,-373.5 376,-373.5 376,-352.5 196,-352.5"/>
<text text-anchor="start" x="199" y="-360.3" font-family="mono" font-weight="bold" font-size="14.00" fill="#c83500">InteractionAffordance</text>
<polygon fill="#ddeeff" stroke="transparent" points="196,-331.5 196,-352.5 376,-352.5 376,-331.5 196,-331.5"/>
<polygon fill="none" stroke="#8ccbf2" points="196,-331.5 196,-352.5 376,-352.5 376,-331.5 196,-331.5"/>
<text text-anchor="start" x="199" y="-339.3" font-family="mono" font-size="14.00" fill="#c83500">description</text>
<text text-anchor="start" x="290" y="-339.3" font-family="Times,serif" font-size="14.00" fill="#000000"> : </text>
<text text-anchor="start" x="302" y="-339.3" font-family="mono" font-size="14.00" fill="#c83500">string</text>
<polygon fill="#ddeeff" stroke="transparent" points="196,-310.5 196,-331.5 376,-331.5 376,-310.5 196,-310.5"/>
<polygon fill="none" stroke="#8ccbf2" points="196,-310.5 196,-331.5 376,-331.5 376,-310.5 196,-310.5"/>
<text text-anchor="start" x="199" y="-318.3" font-family="mono" font-size="14.00" fill="#c83500">title</text>
<text text-anchor="start" x="241" y="-318.3" font-family="Times,serif" font-size="14.00" fill="#000000"> : </text>
<text text-anchor="start" x="253" y="-318.3" font-family="mono" font-size="14.00" fill="#c83500">string</text>
</g>
<!-- PropertyAffordance&#45;&gt;InteractionAffordance -->
<g id="edge20" class="edge">
<title>PropertyAffordance&#45;&gt;InteractionAffordance</title>
<path fill="none" stroke="#000000" d="M254.288,-439.2215C259.1085,-424.519 265.3306,-405.5417 270.9849,-388.296"/>
<polygon fill="#ffffff" stroke="#000000" points="274.4438,-388.9804 274.2336,-378.3876 267.7922,-386.7995 274.4438,-388.9804"/>
</g>
<!-- ActionAffordance&#45;&gt;InteractionAffordance -->
<g id="edge21" class="edge">
<title>ActionAffordance&#45;&gt;InteractionAffordance</title>
<path fill="none" stroke="#000000" d="M421.9495,-428.8846C399.67,-414.7278 373.8965,-398.3509 350.8196,-383.6875"/>
<polygon fill="#ffffff" stroke="#000000" points="352.4375,-380.5687 342.1201,-378.1597 348.6833,-386.4769 352.4375,-380.5687"/>
</g>
<!-- DataSchema -->
<g id="node12" class="node">
<title>DataSchema</title>
<polygon fill="#f2f2f2" stroke="transparent" points="547,-167.5 547,-188.5 636,-188.5 636,-167.5 547,-167.5"/>
<polygon fill="none" stroke="#8c8c8c" points="547,-167.5 547,-188.5 636,-188.5 636,-167.5 547,-167.5"/>
<text text-anchor="start" x="550" y="-175.3" font-family="mono" font-weight="bold" font-size="14.00" fill="#000000">DataSchema</text>
</g>
<!-- ActionAffordance&#45;&gt;DataSchema -->
<g id="edge10" class="edge">
<title>ActionAffordance&#45;&gt;DataSchema</title>
<path fill="none" stroke="#000000" d="M496.4728,-428.7122C504.1474,-413.2876 512.9003,-394.9354 520,-378 545.2471,-317.7762 569.6404,-245.0793 582.2099,-206.2122"/>
<polygon fill="#000000" stroke="#000000" points="585.5599,-207.2273 585.2885,-196.636 578.8959,-205.0849 585.5599,-207.2273"/>
<text text-anchor="start" x="548" y="-338.8" font-family="mono" font-size="14.00" fill="#c83500">input</text>
<text text-anchor="middle" x="573.7885" y="-200.436" font-family="Times,serif" font-size="14.00" fill="#000000">0..1</text>
</g>
<!-- ActionAffordance&#45;&gt;DataSchema -->
<g id="edge11" class="edge">
<title>ActionAffordance&#45;&gt;DataSchema</title>
<path fill="none" stroke="#000000" d="M466.4013,-428.6872C457.7783,-395.8127 450.0053,-346.3814 466,-307 483.9309,-262.8513 525.1247,-225.5479 555.3422,-202.6932"/>
<polygon fill="#000000" stroke="#000000" points="557.5796,-205.3919 563.5455,-196.6365 553.4217,-199.7605 557.5796,-205.3919"/>
<text text-anchor="start" x="466" y="-338.8" font-family="mono" font-size="14.00" fill="#c83500">output</text>
<text text-anchor="middle" x="552.0455" y="-200.4365" font-family="Times,serif" font-size="14.00" fill="#000000">0..1</text>
</g>
<!-- InteractionAffordance&#45;&gt;MultiLanguage -->
<g id="edge12" class="edge">
<title>InteractionAffordance&#45;&gt;MultiLanguage</title>
<path fill="none" stroke="#000000" d="M187.7729,-325.2106C146.672,-316.0713 105.1614,-303.6906 91,-289 70.0304,-267.2468 64.8522,-231.9173 64.072,-207.0745"/>
<polygon fill="#000000" stroke="#000000" points="67.5696,-206.7799 63.9777,-196.8126 60.5699,-206.8443 67.5696,-206.7799"/>
<text text-anchor="start" x="91" y="-277.8" font-family="mono" font-size="14.00" fill="#c83500">titles</text>
<text text-anchor="middle" x="75.4777" y="-200.6126" font-family="Times,serif" font-size="14.00" fill="#000000">0..1</text>
</g>
<!-- InteractionAffordance&#45;&gt;MultiLanguage -->
<g id="edge15" class="edge">
<title>InteractionAffordance&#45;&gt;MultiLanguage</title>
<path fill="none" stroke="#000000" d="M208.9013,-306.9213C198.9131,-301.356 189.0287,-295.3332 180,-289 144.5642,-264.1433 109.523,-228.4388 87.6084,-204.4041"/>
<polygon fill="#000000" stroke="#000000" points="89.9917,-201.8205 80.6982,-196.7332 84.7908,-206.5056 89.9917,-201.8205"/>
<text text-anchor="start" x="180" y="-277.8" font-family="mono" font-size="14.00" fill="#c83500">descriptions</text>
<text text-anchor="middle" x="92.1982" y="-200.5332" font-family="Times,serif" font-size="14.00" fill="#000000">0..1</text>
</g>
<!-- InteractionAffordance&#45;&gt;Form -->
<g id="edge13" class="edge">
<title>InteractionAffordance&#45;&gt;Form</title>
<path fill="none" stroke="#000000" d="M284.6981,-306.9144C284.2528,-294.7441 283.7332,-280.5399 283.205,-266.103"/>
<polygon fill="#000000" stroke="#000000" points="286.7021,-265.9585 282.8388,-256.0932 279.7068,-266.2145 286.7021,-265.9585"/>
<text text-anchor="start" x="284" y="-277.8" font-family="mono" font-size="14.00" fill="#c83500">forms</text>
<text text-anchor="middle" x="271.3388" y="-259.8932" font-family="Times,serif" font-size="14.00" fill="#000000">1..*</text>
</g>
<!-- InteractionAffordance&#45;&gt;DataSchema -->
<g id="edge14" class="edge">
<title>InteractionAffordance&#45;&gt;DataSchema</title>
<path fill="none" stroke="#000000" d="M313.8868,-306.6676C324.6781,-294.8199 337.8453,-282.5068 352,-274 376.9597,-258.9996 387.6107,-265.8908 415,-256 459.9686,-239.761 509.7003,-217.4389 544.7951,-200.9208"/>
<polygon fill="#000000" stroke="#000000" points="546.2977,-204.0819 553.8389,-196.64 543.3029,-197.7548 546.2977,-204.0819"/>
<text text-anchor="start" x="352" y="-277.8" font-family="mono" font-size="14.00" fill="#c83500">uriVariables</text>
<text text-anchor="middle" x="542.3389" y="-200.44" font-family="Times,serif" font-size="14.00" fill="#000000">0..1</text>
</g>
<!-- EventAffordance&#45;&gt;InteractionAffordance -->
<g id="edge19" class="edge">
<title>EventAffordance&#45;&gt;InteractionAffordance</title>
<path fill="none" stroke="#000000" d="M656.6784,-446.495C643.0621,-440.477 627.5112,-434.0286 613,-429 541.0913,-404.0811 458.1857,-382.224 393.8459,-366.7149"/>
<polygon fill="#ffffff" stroke="#000000" points="394.6284,-363.3034 384.0881,-364.377 392.9974,-370.1107 394.6284,-363.3034"/>
</g>
<!-- EventAffordance&#45;&gt;DataSchema -->
<g id="edge16" class="edge">
<title>EventAffordance&#45;&gt;DataSchema</title>
<path fill="none" stroke="#000000" d="M682.3182,-446.3722C670.9246,-429.3802 654.428,-402.9283 644,-378 619.4231,-319.2488 603.4282,-245.9311 595.9433,-206.5805"/>
<polygon fill="#000000" stroke="#000000" points="599.3664,-205.8437 594.0992,-196.651 592.4841,-207.122 599.3664,-205.8437"/>
<text text-anchor="start" x="644" y="-338.8" font-family="mono" font-size="14.00" fill="#c83500">data</text>
<text text-anchor="middle" x="605.5992" y="-200.451" font-family="Times,serif" font-size="14.00" fill="#000000">0..1</text>
</g>
<!-- EventAffordance&#45;&gt;DataSchema -->
<g id="edge17" class="edge">
<title>EventAffordance&#45;&gt;DataSchema</title>
<path fill="none" stroke="#000000" d="M695.8308,-446.3854C696.6019,-416.4095 695.605,-355.0299 678,-307 663.672,-267.9106 634.9409,-229.1902 614.4161,-204.6367"/>
<polygon fill="#000000" stroke="#000000" points="616.9517,-202.2159 607.8027,-196.8729 611.6229,-206.7551 616.9517,-202.2159"/>
<text text-anchor="start" x="694" y="-338.8" font-family="mono" font-size="14.00" fill="#c83500">subscription</text>
<text text-anchor="middle" x="619.3027" y="-200.6729" font-family="Times,serif" font-size="14.00" fill="#000000">0..1</text>
</g>
<!-- EventAffordance&#45;&gt;DataSchema -->
<g id="edge18" class="edge">
<title>EventAffordance&#45;&gt;DataSchema</title>
<path fill="none" stroke="#000000" d="M729.4972,-446.3536C753.6213,-431.5462 783.9433,-408.1609 798,-378 811.33,-349.3982 813.3391,-334.5765 798,-307 767.3505,-251.8988 702.2117,-217.3985 653.1396,-198.1901"/>
<polygon fill="#000000" stroke="#000000" points="654.1456,-194.8283 643.5544,-194.5507 651.6609,-201.3725 654.1456,-194.8283"/>
<text text-anchor="start" x="809" y="-338.8" font-family="mono" font-size="14.00" fill="#c83500">cancellation</text>
<text text-anchor="middle" x="655.0544" y="-198.3507" font-family="Times,serif" font-size="14.00" fill="#000000">0..1</text>
</g>
</g>
</svg>
