<?xml version="1.0" encoding="UTF-8" standalone="no"?>
<!DOCTYPE svg PUBLIC "-//W3C//DTD SVG 1.1//EN"
 "http://www.w3.org/Graphics/SVG/1.1/DTD/svg11.dtd">
<!-- Generated by graphviz version 2.40.1 (20161225.0304)
 -->
<!-- Title: %3 Pages: 1 -->
<svg width="1234pt" height="805pt"
 viewBox="0.00 0.00 1233.50 805.00" xmlns="http://www.w3.org/2000/svg" xmlns:xlink="http://www.w3.org/1999/xlink">
<g id="graph0" class="graph" transform="scale(1 1) rotate(0) translate(4 801)">
<title>%3</title>
<polygon fill="#ffffff" stroke="transparent" points="-4,4 -4,-801 1229.5,-801 1229.5,4 -4,4"/>
<!-- InteractionPattern -->
<g id="node1" class="node">
<title>InteractionPattern</title>
<polygon fill="#8ccbf2" stroke="transparent" points="129.5,-394.5 129.5,-415.5 310.5,-415.5 310.5,-394.5 129.5,-394.5"/>
<polygon fill="none" stroke="#8ccbf2" points="129.5,-394.5 129.5,-415.5 310.5,-415.5 310.5,-394.5 129.5,-394.5"/>
<text text-anchor="start" x="145.5" y="-402.3" font-family="mono" font-weight="bold" font-size="14.00" fill="#c83500">InteractionPattern</text>
<polygon fill="#ddeeff" stroke="transparent" points="129.5,-373.5 129.5,-394.5 310.5,-394.5 310.5,-373.5 129.5,-373.5"/>
<polygon fill="none" stroke="#8ccbf2" points="129.5,-373.5 129.5,-394.5 310.5,-394.5 310.5,-373.5 129.5,-373.5"/>
<text text-anchor="start" x="132.5" y="-381.3" font-family="mono" font-size="14.00" fill="#c83500">description</text>
<text text-anchor="start" x="223.5" y="-381.3" font-family="Times,serif" font-size="14.00" fill="#000000"> : </text>
<text text-anchor="start" x="235.5" y="-381.3" font-family="mono" font-size="14.00" fill="#c83500">string</text>
<polygon fill="#ddeeff" stroke="transparent" points="129.5,-352.5 129.5,-373.5 310.5,-373.5 310.5,-352.5 129.5,-352.5"/>
<polygon fill="none" stroke="#8ccbf2" points="129.5,-352.5 129.5,-373.5 310.5,-373.5 310.5,-352.5 129.5,-352.5"/>
<text text-anchor="start" x="132.5" y="-360.3" font-family="mono" font-size="14.00" fill="#c83500">scopes</text>
<text text-anchor="start" x="182.5" y="-360.3" font-family="Times,serif" font-size="14.00" fill="#000000"> : array of </text>
<text text-anchor="start" x="240.5" y="-360.3" font-family="mono" font-size="14.00" fill="#c83500">string</text>
<polygon fill="#ddeeff" stroke="transparent" points="129.5,-331.5 129.5,-352.5 310.5,-352.5 310.5,-331.5 129.5,-331.5"/>
<polygon fill="none" stroke="#8ccbf2" points="129.5,-331.5 129.5,-352.5 310.5,-352.5 310.5,-331.5 129.5,-331.5"/>
<text text-anchor="start" x="132.5" y="-339.3" font-family="mono" font-size="14.00" fill="#c83500">security</text>
<text text-anchor="start" x="199.5" y="-339.3" font-family="Times,serif" font-size="14.00" fill="#000000"> : array of </text>
<text text-anchor="start" x="257.5" y="-339.3" font-family="mono" font-size="14.00" fill="#c83500">string</text>
<polygon fill="#ddeeff" stroke="transparent" points="129.5,-310.5 129.5,-331.5 310.5,-331.5 310.5,-310.5 129.5,-310.5"/>
<polygon fill="none" stroke="#8ccbf2" points="129.5,-310.5 129.5,-331.5 310.5,-331.5 310.5,-310.5 129.5,-310.5"/>
<text text-anchor="start" x="132.5" y="-318.3" font-family="mono" font-size="14.00" fill="#c83500">title</text>
<text text-anchor="start" x="174.5" y="-318.3" font-family="Times,serif" font-size="14.00" fill="#000000"> : </text>
<text text-anchor="start" x="186.5" y="-318.3" font-family="mono" font-size="14.00" fill="#c83500">string</text>
</g>
<!-- Form -->
<g id="node3" class="node">
<title>Form</title>
<polygon fill="#8ccbf2" stroke="transparent" points="8.5,-230.5 8.5,-251.5 341.5,-251.5 341.5,-230.5 8.5,-230.5"/>
<polygon fill="none" stroke="#8ccbf2" points="8.5,-230.5 8.5,-251.5 341.5,-251.5 341.5,-230.5 8.5,-230.5"/>
<text text-anchor="start" x="158" y="-238.3" font-family="mono" font-weight="bold" font-size="14.00" fill="#c83500">Form</text>
<polygon fill="#ddeeff" stroke="transparent" points="8.5,-209.5 8.5,-230.5 341.5,-230.5 341.5,-209.5 8.5,-209.5"/>
<polygon fill="none" stroke="#8ccbf2" points="8.5,-209.5 8.5,-230.5 341.5,-230.5 341.5,-209.5 8.5,-209.5"/>
<text text-anchor="start" x="11.5" y="-217.3" font-family="mono" font-size="14.00" fill="#c83500">security</text>
<text text-anchor="start" x="78.5" y="-217.3" font-family="Times,serif" font-size="14.00" fill="#000000"> : array of </text>
<text text-anchor="start" x="136.5" y="-217.3" font-family="mono" font-size="14.00" fill="#c83500">string</text>
<polygon fill="#ddeeff" stroke="transparent" points="8.5,-188.5 8.5,-209.5 341.5,-209.5 341.5,-188.5 8.5,-188.5"/>
<polygon fill="none" stroke="#8ccbf2" points="8.5,-188.5 8.5,-209.5 341.5,-209.5 341.5,-188.5 8.5,-188.5"/>
<text text-anchor="start" x="11.5" y="-196.3" font-family="mono" font-size="14.00" fill="#c83500">subprotocol</text>
<text text-anchor="start" x="102.5" y="-196.3" font-family="Times,serif" font-size="14.00" fill="#000000"> : </text>
<text text-anchor="start" x="114.5" y="-196.3" font-family="mono" font-size="14.00" fill="#c83500">string</text>
<polygon fill="#ddeeff" stroke="transparent" points="8.5,-167.5 8.5,-188.5 341.5,-188.5 341.5,-167.5 8.5,-167.5"/>
<polygon fill="none" stroke="#8ccbf2" points="8.5,-167.5 8.5,-188.5 341.5,-188.5 341.5,-167.5 8.5,-167.5"/>
<text text-anchor="start" x="11.5" y="-175.3" font-family="mono" font-size="14.00" fill="#c83500">scopes</text>
<text text-anchor="start" x="61.5" y="-175.3" font-family="Times,serif" font-size="14.00" fill="#000000"> : array of </text>
<text text-anchor="start" x="119.5" y="-175.3" font-family="mono" font-size="14.00" fill="#c83500">string</text>
<polygon fill="#ddeeff" stroke="transparent" points="8.5,-146.5 8.5,-167.5 341.5,-167.5 341.5,-146.5 8.5,-146.5"/>
<polygon fill="none" stroke="#8ccbf2" points="8.5,-146.5 8.5,-167.5 341.5,-167.5 341.5,-146.5 8.5,-146.5"/>
<text text-anchor="start" x="11.5" y="-154.3" font-family="mono" font-size="14.00" fill="#c83500">contentType</text>
<text text-anchor="start" x="102.5" y="-154.3" font-family="Times,serif" font-size="14.00" fill="#000000"> : </text>
<text text-anchor="start" x="114.5" y="-154.3" font-family="mono" font-size="14.00" fill="#c83500">string</text>
<text text-anchor="start" x="164.5" y="-154.3" font-family="Times,serif" font-size="14.00" fill="#000000"> = application/json </text>
<text text-anchor="start" x="270.5" y="-154.3" font-family="Times,serif" font-style="italic" font-size="14.00" fill="#000000">(mandatory)</text>
<polygon fill="#ddeeff" stroke="transparent" points="8.5,-125.5 8.5,-146.5 341.5,-146.5 341.5,-125.5 8.5,-125.5"/>
<polygon fill="none" stroke="#8ccbf2" points="8.5,-125.5 8.5,-146.5 341.5,-146.5 341.5,-125.5 8.5,-125.5"/>
<text text-anchor="start" x="11.5" y="-133.3" font-family="mono" font-size="14.00" fill="#c83500">op</text>
<text text-anchor="start" x="28.5" y="-133.3" font-family="Times,serif" font-size="14.00" fill="#000000"> : </text>
<text text-anchor="start" x="40.5" y="-133.3" font-family="mono" font-size="14.00" fill="#c83500">string</text>
<polygon fill="#ddeeff" stroke="transparent" points="8.5,-104.5 8.5,-125.5 341.5,-125.5 341.5,-104.5 8.5,-104.5"/>
<polygon fill="none" stroke="#8ccbf2" points="8.5,-104.5 8.5,-125.5 341.5,-125.5 341.5,-104.5 8.5,-104.5"/>
<text text-anchor="start" x="11.5" y="-112.3" font-family="mono" font-size="14.00" fill="#c83500">href</text>
<text text-anchor="start" x="45.5" y="-112.3" font-family="Times,serif" font-size="14.00" fill="#000000"> : </text>
<text text-anchor="start" x="57.5" y="-112.3" font-family="mono" font-size="14.00" fill="#c83500">anyURI</text>
<text text-anchor="start" x="107.5" y="-112.3" font-family="Times,serif" font-size="14.00" fill="#000000"> </text>
<text text-anchor="start" x="111.5" y="-112.3" font-family="Times,serif" font-style="italic" font-size="14.00" fill="#000000">(mandatory)</text>
</g>
<!-- InteractionPattern&#45;&gt;Form -->
<g id="edge2" class="edge">
<title>InteractionPattern&#45;&gt;Form</title>
<path fill="none" stroke="#000000" d="M182.0162,-306.6762C179.4005,-300.8774 177.1502,-294.9336 175.5,-289 173.4805,-281.7388 172.0573,-274.104 171.0949,-266.3812"/>
<polygon fill="#000000" stroke="#000000" points="174.5552,-265.8072 170.0837,-256.2022 167.5895,-266.4992 174.5552,-265.8072"/>
<text text-anchor="start" x="175.5" y="-277.8" font-family="mono" font-size="14.00" fill="#c83500">forms</text>
<text text-anchor="middle" x="159.0837" y="-260.0022" font-family="Times,serif" font-size="14.00" fill="#000000">1..*</text>
</g>
<!-- DataSchema -->
<g id="node10" class="node">
<title>DataSchema</title>
<polygon fill="#f2f2f2" stroke="transparent" points="431.5,-167.5 431.5,-188.5 520.5,-188.5 520.5,-167.5 431.5,-167.5"/>
<polygon fill="none" stroke="#8c8c8c" points="431.5,-167.5 431.5,-188.5 520.5,-188.5 520.5,-167.5 431.5,-167.5"/>
<text text-anchor="start" x="434.5" y="-175.3" font-family="mono" font-weight="bold" font-size="14.00" fill="#000000">DataSchema</text>
</g>
<!-- InteractionPattern&#45;&gt;DataSchema -->
<g id="edge1" class="edge">
<title>InteractionPattern&#45;&gt;DataSchema</title>
<path fill="none" stroke="#000000" d="M222.461,-306.588C225.7013,-294.3628 231.2443,-282.562 240.5,-274 279.1211,-238.2731 308.3896,-274.8725 357.5,-256 390.3054,-243.3933 423.3815,-220.5948 446.1329,-202.9768"/>
<polygon fill="#000000" stroke="#000000" points="448.3445,-205.6901 454.0282,-196.7488 444.0092,-200.1942 448.3445,-205.6901"/>
<text text-anchor="start" x="240.5" y="-277.8" font-family="mono" font-size="14.00" fill="#c83500">uriVariables</text>
<text text-anchor="middle" x="443.0282" y="-200.5488" font-family="Times,serif" font-size="14.00" fill="#000000">0..1</text>
</g>
<!-- Link -->
<g id="node2" class="node">
<title>Link</title>
<polygon fill="#8ccbf2" stroke="transparent" points="645.5,-544.5 645.5,-565.5 819.5,-565.5 819.5,-544.5 645.5,-544.5"/>
<polygon fill="none" stroke="#8ccbf2" points="645.5,-544.5 645.5,-565.5 819.5,-565.5 819.5,-544.5 645.5,-544.5"/>
<text text-anchor="start" x="715.5" y="-552.3" font-family="mono" font-weight="bold" font-size="14.00" fill="#c83500">Link</text>
<polygon fill="#ddeeff" stroke="transparent" points="645.5,-523.5 645.5,-544.5 819.5,-544.5 819.5,-523.5 645.5,-523.5"/>
<polygon fill="none" stroke="#8ccbf2" points="645.5,-523.5 645.5,-544.5 819.5,-544.5 819.5,-523.5 645.5,-523.5"/>
<text text-anchor="start" x="648.5" y="-531.3" font-family="mono" font-size="14.00" fill="#c83500">type</text>
<text text-anchor="start" x="682.5" y="-531.3" font-family="Times,serif" font-size="14.00" fill="#000000"> : </text>
<text text-anchor="start" x="694.5" y="-531.3" font-family="mono" font-size="14.00" fill="#c83500">string</text>
<polygon fill="#ddeeff" stroke="transparent" points="645.5,-502.5 645.5,-523.5 819.5,-523.5 819.5,-502.5 645.5,-502.5"/>
<polygon fill="none" stroke="#8ccbf2" points="645.5,-502.5 645.5,-523.5 819.5,-523.5 819.5,-502.5 645.5,-502.5"/>
<text text-anchor="start" x="648.5" y="-510.3" font-family="mono" font-size="14.00" fill="#c83500">href</text>
<text text-anchor="start" x="682.5" y="-510.3" font-family="Times,serif" font-size="14.00" fill="#000000"> : </text>
<text text-anchor="start" x="694.5" y="-510.3" font-family="mono" font-size="14.00" fill="#c83500">anyURI</text>
<text text-anchor="start" x="744.5" y="-510.3" font-family="Times,serif" font-size="14.00" fill="#000000"> </text>
<text text-anchor="start" x="748.5" y="-510.3" font-family="Times,serif" font-style="italic" font-size="14.00" fill="#000000">(mandatory)</text>
<polygon fill="#ddeeff" stroke="transparent" points="645.5,-481.5 645.5,-502.5 819.5,-502.5 819.5,-481.5 645.5,-481.5"/>
<polygon fill="none" stroke="#8ccbf2" points="645.5,-481.5 645.5,-502.5 819.5,-502.5 819.5,-481.5 645.5,-481.5"/>
<text text-anchor="start" x="648.5" y="-489.3" font-family="mono" font-size="14.00" fill="#c83500">anchor</text>
<text text-anchor="start" x="698.5" y="-489.3" font-family="Times,serif" font-size="14.00" fill="#000000"> : </text>
<text text-anchor="start" x="710.5" y="-489.3" font-family="mono" font-size="14.00" fill="#c83500">anyURI</text>
<polygon fill="#ddeeff" stroke="transparent" points="645.5,-460.5 645.5,-481.5 819.5,-481.5 819.5,-460.5 645.5,-460.5"/>
<polygon fill="none" stroke="#8ccbf2" points="645.5,-460.5 645.5,-481.5 819.5,-481.5 819.5,-460.5 645.5,-460.5"/>
<text text-anchor="start" x="648.5" y="-468.3" font-family="mono" font-size="14.00" fill="#c83500">rel</text>
<text text-anchor="start" x="673.5" y="-468.3" font-family="Times,serif" font-size="14.00" fill="#000000"> : </text>
<text text-anchor="start" x="685.5" y="-468.3" font-family="mono" font-size="14.00" fill="#c83500">string</text>
</g>
<!-- Response -->
<g id="node4" class="node">
<title>Response</title>
<polygon fill="#8ccbf2" stroke="transparent" points="95.5,-25 95.5,-46 254.5,-46 254.5,-25 95.5,-25"/>
<polygon fill="none" stroke="#8ccbf2" points="95.5,-25 95.5,-46 254.5,-46 254.5,-25 95.5,-25"/>
<text text-anchor="start" x="141.5" y="-32.8" font-family="mono" font-weight="bold" font-size="14.00" fill="#c83500">Response</text>
<polygon fill="#ddeeff" stroke="transparent" points="95.5,-4 95.5,-25 254.5,-25 254.5,-4 95.5,-4"/>
<polygon fill="none" stroke="#8ccbf2" points="95.5,-4 95.5,-25 254.5,-25 254.5,-4 95.5,-4"/>
<text text-anchor="start" x="98.5" y="-11.8" font-family="mono" font-size="14.00" fill="#c83500">contentType</text>
<text text-anchor="start" x="189.5" y="-11.8" font-family="Times,serif" font-size="14.00" fill="#000000"> : </text>
<text text-anchor="start" x="201.5" y="-11.8" font-family="mono" font-size="14.00" fill="#c83500">string</text>
</g>
<!-- Form&#45;&gt;Response -->
<g id="edge3" class="edge">
<title>Form&#45;&gt;Response</title>
<path fill="none" stroke="#000000" d="M174.5,-100.8506C174.5,-86.7022 174.5,-72.5946 174.5,-60.4513"/>
<polygon fill="#000000" stroke="#000000" points="178.0001,-60.3339 174.5,-50.334 171.0001,-60.334 178.0001,-60.3339"/>
<text text-anchor="start" x="174.5" y="-71.8" font-family="mono" font-size="14.00" fill="#c83500">response</text>
<text text-anchor="middle" x="163.5" y="-54.134" font-family="Times,serif" font-size="14.00" fill="#000000">0..1</text>
</g>
<!-- Thing -->
<g id="node5" class="node">
<title>Thing</title>
<polygon fill="#8ccbf2" stroke="transparent" points="569.5,-772 569.5,-793 822.5,-793 822.5,-772 569.5,-772"/>
<polygon fill="none" stroke="#8ccbf2" points="569.5,-772 569.5,-793 822.5,-793 822.5,-772 569.5,-772"/>
<text text-anchor="start" x="675" y="-779.8" font-family="mono" font-weight="bold" font-size="14.00" fill="#c83500">Thing</text>
<polygon fill="#ddeeff" stroke="transparent" points="569.5,-751 569.5,-772 822.5,-772 822.5,-751 569.5,-751"/>
<polygon fill="none" stroke="#8ccbf2" points="569.5,-751 569.5,-772 822.5,-772 822.5,-751 569.5,-751"/>
<text text-anchor="start" x="572.5" y="-758.8" font-family="mono" font-size="14.00" fill="#c83500">support</text>
<text text-anchor="start" x="630.5" y="-758.8" font-family="Times,serif" font-size="14.00" fill="#000000"> : </text>
<text text-anchor="start" x="642.5" y="-758.8" font-family="mono" font-size="14.00" fill="#c83500">anyURI</text>
<polygon fill="#ddeeff" stroke="transparent" points="569.5,-730 569.5,-751 822.5,-751 822.5,-730 569.5,-730"/>
<polygon fill="none" stroke="#8ccbf2" points="569.5,-730 569.5,-751 822.5,-751 822.5,-730 569.5,-730"/>
<text text-anchor="start" x="572.5" y="-737.8" font-family="mono" font-size="14.00" fill="#c83500">base</text>
<text text-anchor="start" x="606.5" y="-737.8" font-family="Times,serif" font-size="14.00" fill="#000000"> : </text>
<text text-anchor="start" x="618.5" y="-737.8" font-family="mono" font-size="14.00" fill="#c83500">anyURI</text>
<polygon fill="#ddeeff" stroke="transparent" points="569.5,-709 569.5,-730 822.5,-730 822.5,-709 569.5,-709"/>
<polygon fill="none" stroke="#8ccbf2" points="569.5,-709 569.5,-730 822.5,-730 822.5,-709 569.5,-709"/>
<text text-anchor="start" x="572.5" y="-716.8" font-family="mono" font-size="14.00" fill="#c83500">lastModified</text>
<text text-anchor="start" x="672.5" y="-716.8" font-family="Times,serif" font-size="14.00" fill="#000000"> : </text>
<text text-anchor="start" x="684.5" y="-716.8" font-family="mono" font-size="14.00" fill="#c83500">string</text>
<polygon fill="#ddeeff" stroke="transparent" points="569.5,-688 569.5,-709 822.5,-709 822.5,-688 569.5,-688"/>
<polygon fill="none" stroke="#8ccbf2" points="569.5,-688 569.5,-709 822.5,-709 822.5,-688 569.5,-688"/>
<text text-anchor="start" x="572.5" y="-695.8" font-family="mono" font-size="14.00" fill="#c83500">name</text>
<text text-anchor="start" x="606.5" y="-695.8" font-family="Times,serif" font-size="14.00" fill="#000000"> : </text>
<text text-anchor="start" x="618.5" y="-695.8" font-family="mono" font-size="14.00" fill="#c83500">string</text>
<text text-anchor="start" x="668.5" y="-695.8" font-family="Times,serif" font-size="14.00" fill="#000000"> </text>
<text text-anchor="start" x="672.5" y="-695.8" font-family="Times,serif" font-style="italic" font-size="14.00" fill="#000000">(mandatory)</text>
<polygon fill="#ddeeff" stroke="transparent" points="569.5,-667 569.5,-688 822.5,-688 822.5,-667 569.5,-667"/>
<polygon fill="none" stroke="#8ccbf2" points="569.5,-667 569.5,-688 822.5,-688 822.5,-667 569.5,-667"/>
<text text-anchor="start" x="572.5" y="-674.8" font-family="mono" font-size="14.00" fill="#c83500">security</text>
<text text-anchor="start" x="639.5" y="-674.8" font-family="Times,serif" font-size="14.00" fill="#000000"> : array of </text>
<text text-anchor="start" x="697.5" y="-674.8" font-family="mono" font-size="14.00" fill="#c83500">string</text>
<text text-anchor="start" x="747.5" y="-674.8" font-family="Times,serif" font-size="14.00" fill="#000000"> </text>
<text text-anchor="start" x="751.5" y="-674.8" font-family="Times,serif" font-style="italic" font-size="14.00" fill="#000000">(mandatory)</text>
<polygon fill="#ddeeff" stroke="transparent" points="569.5,-646 569.5,-667 822.5,-667 822.5,-646 569.5,-646"/>
<polygon fill="none" stroke="#8ccbf2" points="569.5,-646 569.5,-667 822.5,-667 822.5,-646 569.5,-646"/>
<text text-anchor="start" x="572.5" y="-653.8" font-family="mono" font-size="14.00" fill="#c83500">description</text>
<text text-anchor="start" x="663.5" y="-653.8" font-family="Times,serif" font-size="14.00" fill="#000000"> : </text>
<text text-anchor="start" x="675.5" y="-653.8" font-family="mono" font-size="14.00" fill="#c83500">string</text>
<polygon fill="#ddeeff" stroke="transparent" points="569.5,-625 569.5,-646 822.5,-646 822.5,-625 569.5,-625"/>
<polygon fill="none" stroke="#8ccbf2" points="569.5,-625 569.5,-646 822.5,-646 822.5,-625 569.5,-625"/>
<text text-anchor="start" x="572.5" y="-632.8" font-family="mono" font-size="14.00" fill="#c83500">created</text>
<text text-anchor="start" x="630.5" y="-632.8" font-family="Times,serif" font-size="14.00" fill="#000000"> : </text>
<text text-anchor="start" x="642.5" y="-632.8" font-family="mono" font-size="14.00" fill="#c83500">string</text>
</g>
<!-- Thing&#45;&gt;Link -->
<g id="edge5" class="edge">
<title>Thing&#45;&gt;Link</title>
<path fill="none" stroke="#000000" d="M712.1599,-620.9725C714.7584,-607.2429 717.4057,-593.2548 719.8942,-580.1063"/>
<polygon fill="#000000" stroke="#000000" points="723.342,-580.7098 721.7627,-570.2334 716.4641,-579.4081 723.342,-580.7098"/>
<text text-anchor="start" x="717.5" y="-591.8" font-family="mono" font-size="14.00" fill="#c83500">links</text>
<text text-anchor="middle" x="710.7627" y="-574.0334" font-family="Times,serif" font-size="14.00" fill="#000000">0..*</text>
</g>
<!-- Property -->
<g id="node6" class="node">
<title>Property</title>
<polygon fill="#8ccbf2" stroke="transparent" points="22.5,-513.5 22.5,-534.5 223.5,-534.5 223.5,-513.5 22.5,-513.5"/>
<polygon fill="none" stroke="#8ccbf2" points="22.5,-513.5 22.5,-534.5 223.5,-534.5 223.5,-513.5 22.5,-513.5"/>
<text text-anchor="start" x="89.5" y="-521.3" font-family="mono" font-weight="bold" font-size="14.00" fill="#c83500">Property</text>
<polygon fill="#ddeeff" stroke="transparent" points="22.5,-492.5 22.5,-513.5 223.5,-513.5 223.5,-492.5 22.5,-492.5"/>
<polygon fill="none" stroke="#8ccbf2" points="22.5,-492.5 22.5,-513.5 223.5,-513.5 223.5,-492.5 22.5,-492.5"/>
<text text-anchor="start" x="25.5" y="-500.3" font-family="mono" font-size="14.00" fill="#c83500">observable</text>
<text text-anchor="start" x="108.5" y="-500.3" font-family="Times,serif" font-size="14.00" fill="#000000"> : </text>
<text text-anchor="start" x="120.5" y="-500.3" font-family="mono" font-size="14.00" fill="#c83500">boolean</text>
<text text-anchor="start" x="178.5" y="-500.3" font-family="Times,serif" font-size="14.00" fill="#000000"> = false</text>
</g>
<!-- Thing&#45;&gt;Property -->
<g id="edge4" class="edge">
<title>Thing&#45;&gt;Property</title>
<path fill="none" stroke="#000000" d="M560.9599,-673.8716C469.1633,-648.4795 345.4791,-611.4567 239.5,-570 219.4614,-562.1613 198.1115,-552.3196 179.2097,-543.0559"/>
<polygon fill="#000000" stroke="#000000" points="180.6583,-539.8677 170.1438,-538.566 177.5517,-546.1406 180.6583,-539.8677"/>
<text text-anchor="start" x="325.5" y="-591.8" font-family="mono" font-size="14.00" fill="#c83500">properties</text>
<text text-anchor="middle" x="159.1438" y="-542.366" font-family="Times,serif" font-size="14.00" fill="#000000">0..1</text>
</g>
<!-- Action -->
<g id="node7" class="node">
<title>Action</title>
<polygon fill="#8ccbf2" stroke="transparent" points="257.5,-523.5 257.5,-544.5 530.5,-544.5 530.5,-523.5 257.5,-523.5"/>
<polygon fill="none" stroke="#8ccbf2" points="257.5,-523.5 257.5,-544.5 530.5,-544.5 530.5,-523.5 257.5,-523.5"/>
<text text-anchor="start" x="369" y="-531.3" font-family="mono" font-weight="bold" font-size="14.00" fill="#c83500">Action</text>
<polygon fill="#ddeeff" stroke="transparent" points="257.5,-502.5 257.5,-523.5 530.5,-523.5 530.5,-502.5 257.5,-502.5"/>
<polygon fill="none" stroke="#8ccbf2" points="257.5,-502.5 257.5,-523.5 530.5,-523.5 530.5,-502.5 257.5,-502.5"/>
<text text-anchor="start" x="260.5" y="-510.3" font-family="mono" font-size="14.00" fill="#c83500">safe</text>
<text text-anchor="start" x="294.5" y="-510.3" font-family="Times,serif" font-size="14.00" fill="#000000"> : </text>
<text text-anchor="start" x="306.5" y="-510.3" font-family="mono" font-size="14.00" fill="#c83500">boolean</text>
<text text-anchor="start" x="364.5" y="-510.3" font-family="Times,serif" font-size="14.00" fill="#000000"> = false </text>
<text text-anchor="start" x="410.5" y="-510.3" font-family="Times,serif" font-style="italic" font-size="14.00" fill="#000000">(mandatory)</text>
<polygon fill="#ddeeff" stroke="transparent" points="257.5,-481.5 257.5,-502.5 530.5,-502.5 530.5,-481.5 257.5,-481.5"/>
<polygon fill="none" stroke="#8ccbf2" points="257.5,-481.5 257.5,-502.5 530.5,-502.5 530.5,-481.5 257.5,-481.5"/>
<text text-anchor="start" x="260.5" y="-489.3" font-family="mono" font-size="14.00" fill="#c83500">idempotent</text>
<text text-anchor="start" x="343.5" y="-489.3" font-family="Times,serif" font-size="14.00" fill="#000000"> : </text>
<text text-anchor="start" x="355.5" y="-489.3" font-family="mono" font-size="14.00" fill="#c83500">boolean</text>
<text text-anchor="start" x="413.5" y="-489.3" font-family="Times,serif" font-size="14.00" fill="#000000"> = false </text>
<text text-anchor="start" x="459.5" y="-489.3" font-family="Times,serif" font-style="italic" font-size="14.00" fill="#000000">(mandatory)</text>
</g>
<!-- Thing&#45;&gt;Action -->
<g id="edge8" class="edge">
<title>Thing&#45;&gt;Action</title>
<path fill="none" stroke="#000000" d="M560.8397,-621.8275C524.7634,-598.4735 487.4282,-574.3045 457.2017,-554.7373"/>
<polygon fill="#000000" stroke="#000000" points="458.7629,-551.5787 448.4663,-549.0825 454.9589,-557.4549 458.7629,-551.5787"/>
<text text-anchor="start" x="526.5" y="-591.8" font-family="mono" font-size="14.00" fill="#c83500">actions</text>
<text text-anchor="middle" x="437.4663" y="-552.8825" font-family="Times,serif" font-size="14.00" fill="#000000">0..1</text>
</g>
<!-- Event -->
<g id="node8" class="node">
<title>Event</title>
<polygon fill="#8ccbf2" stroke="transparent" points="563.5,-502.5 563.5,-523.5 611.5,-523.5 611.5,-502.5 563.5,-502.5"/>
<polygon fill="none" stroke="#8ccbf2" points="563.5,-502.5 563.5,-523.5 611.5,-523.5 611.5,-502.5 563.5,-502.5"/>
<text text-anchor="start" x="566.5" y="-510.3" font-family="mono" font-weight="bold" font-size="14.00" fill="#c83500">Event</text>
</g>
<!-- Thing&#45;&gt;Event -->
<g id="edge7" class="edge">
<title>Thing&#45;&gt;Event</title>
<path fill="none" stroke="#000000" d="M646.871,-620.9725C630.7516,-591.7935 613.9875,-561.4473 602.4007,-540.4731"/>
<polygon fill="#000000" stroke="#000000" points="605.3614,-538.5943 597.4623,-531.5336 599.2342,-541.9792 605.3614,-538.5943"/>
<text text-anchor="start" x="635.5" y="-591.8" font-family="mono" font-size="14.00" fill="#c83500">events</text>
<text text-anchor="middle" x="586.4623" y="-535.3336" font-family="Times,serif" font-size="14.00" fill="#000000">0..1</text>
</g>
<!-- Versioning -->
<g id="node9" class="node">
<title>Versioning</title>
<polygon fill="#8ccbf2" stroke="transparent" points="854.5,-513.5 854.5,-534.5 1061.5,-534.5 1061.5,-513.5 854.5,-513.5"/>
<polygon fill="none" stroke="#8ccbf2" points="854.5,-513.5 854.5,-534.5 1061.5,-534.5 1061.5,-513.5 854.5,-513.5"/>
<text text-anchor="start" x="916.5" y="-521.3" font-family="mono" font-weight="bold" font-size="14.00" fill="#c83500">Versioning</text>
<polygon fill="#ddeeff" stroke="transparent" points="854.5,-492.5 854.5,-513.5 1061.5,-513.5 1061.5,-492.5 854.5,-492.5"/>
<polygon fill="none" stroke="#8ccbf2" points="854.5,-492.5 854.5,-513.5 1061.5,-513.5 1061.5,-492.5 854.5,-492.5"/>
<text text-anchor="start" x="857.5" y="-500.3" font-family="mono" font-size="14.00" fill="#c83500">instance</text>
<text text-anchor="start" x="924.5" y="-500.3" font-family="Times,serif" font-size="14.00" fill="#000000"> : </text>
<text text-anchor="start" x="936.5" y="-500.3" font-family="mono" font-size="14.00" fill="#c83500">string</text>
<text text-anchor="start" x="986.5" y="-500.3" font-family="Times,serif" font-size="14.00" fill="#000000"> </text>
<text text-anchor="start" x="990.5" y="-500.3" font-family="Times,serif" font-style="italic" font-size="14.00" fill="#000000">(mandatory)</text>
</g>
<!-- Thing&#45;&gt;Versioning -->
<g id="edge9" class="edge">
<title>Thing&#45;&gt;Versioning</title>
<path fill="none" stroke="#000000" d="M813.4704,-620.9725C850.0281,-593.6937 887.9528,-565.395 915.7043,-544.6873"/>
<polygon fill="#000000" stroke="#000000" points="918.0559,-547.2995 923.9774,-538.514 913.8696,-541.6893 918.0559,-547.2995"/>
<text text-anchor="start" x="850.5" y="-591.8" font-family="mono" font-size="14.00" fill="#c83500">version</text>
<text text-anchor="middle" x="912.9774" y="-542.314" font-family="Times,serif" font-size="14.00" fill="#000000">0..1</text>
</g>
<!-- SecurityScheme -->
<g id="node11" class="node">
<title>SecurityScheme</title>
<polygon fill="#f2f2f2" stroke="transparent" points="1095.5,-502.5 1095.5,-523.5 1217.5,-523.5 1217.5,-502.5 1095.5,-502.5"/>
<polygon fill="none" stroke="#8c8c8c" points="1095.5,-502.5 1095.5,-523.5 1217.5,-523.5 1217.5,-502.5 1095.5,-502.5"/>
<text text-anchor="start" x="1098.5" y="-510.3" font-family="mono" font-weight="bold" font-size="14.00" fill="#000000">SecurityScheme</text>
</g>
<!-- Thing&#45;&gt;SecurityScheme -->
<g id="edge6" class="edge">
<title>Thing&#45;&gt;SecurityScheme</title>
<path fill="none" stroke="#000000" d="M830.1146,-669.9376C905.0607,-645.7699 998.8288,-611.4497 1077.5,-570 1094.7093,-560.9329 1112.4506,-548.5645 1126.7499,-537.7113"/>
<polygon fill="#000000" stroke="#000000" points="1128.971,-540.4182 1134.7414,-531.5326 1124.6893,-534.8804 1128.971,-540.4182"/>
<text text-anchor="start" x="1038.5" y="-591.8" font-family="mono" font-size="14.00" fill="#c83500">securityDefinitions</text>
<text text-anchor="middle" x="1123.7414" y="-535.3326" font-family="Times,serif" font-size="14.00" fill="#000000">0..1</text>
</g>
<!-- Property&#45;&gt;InteractionPattern -->
<g id="edge17" class="edge">
<title>Property&#45;&gt;InteractionPattern</title>
<path fill="none" stroke="#000000" d="M138.7356,-488.3934C149.3062,-472.0471 163.619,-449.9139 177.26,-428.8196"/>
<polygon fill="#ffffff" stroke="#000000" points="180.3572,-430.4755 182.8484,-420.1777 174.4792,-426.6743 180.3572,-430.4755"/>
</g>
<!-- Action&#45;&gt;InteractionPattern -->
<g id="edge15" class="edge">
<title>Action&#45;&gt;InteractionPattern</title>
<path fill="none" stroke="#000000" d="M352.2644,-477.9521C334.5311,-462.6648 313.2516,-444.3203 292.9765,-426.8418"/>
<polygon fill="#ffffff" stroke="#000000" points="295.1239,-424.072 285.2645,-420.1935 290.5533,-429.3739 295.1239,-424.072"/>
</g>
<!-- Action&#45;&gt;DataSchema -->
<g id="edge10" class="edge">
<title>Action&#45;&gt;DataSchema</title>
<path fill="none" stroke="#000000" d="M402.1978,-477.9663C418.5678,-411.089 453.6474,-267.7758 468.5611,-206.848"/>
<polygon fill="#000000" stroke="#000000" points="472.0429,-207.3443 471.0209,-196.7988 465.2436,-205.6799 472.0429,-207.3443"/>
<text text-anchor="start" x="444.5" y="-359.8" font-family="mono" font-size="14.00" fill="#c83500">output</text>
<text text-anchor="middle" x="482.0209" y="-200.5988" font-family="Times,serif" font-size="14.00" fill="#000000">0..1</text>
</g>
<!-- Action&#45;&gt;DataSchema -->
<g id="edge11" class="edge">
<title>Action&#45;&gt;DataSchema</title>
<path fill="none" stroke="#000000" d="M380.4419,-477.6893C367.1739,-435.6106 351.2288,-364.2685 371.5,-307 386.254,-265.3181 420.9157,-227.2661 446.1805,-203.571"/>
<polygon fill="#000000" stroke="#000000" points="448.6804,-206.0273 453.6871,-196.6901 443.9504,-200.8672 448.6804,-206.0273"/>
<text text-anchor="start" x="371.5" y="-359.8" font-family="mono" font-size="14.00" fill="#c83500">input</text>
<text text-anchor="middle" x="464.6871" y="-200.4901" font-family="Times,serif" font-size="14.00" fill="#000000">0..1</text>
</g>
<!-- Event&#45;&gt;InteractionPattern -->
<g id="edge16" class="edge">
<title>Event&#45;&gt;InteractionPattern</title>
<path fill="none" stroke="#000000" d="M579.0399,-495.2798C572.1244,-482.4882 561.1073,-466.0997 546.5,-457 505.5371,-431.4819 378.3501,-435.0634 332.5,-420 330.8525,-419.4587 329.199,-418.897 327.5414,-418.3166"/>
<polygon fill="#ffffff" stroke="#000000" points="328.6102,-414.9804 318.0169,-414.8007 326.186,-421.5472 328.6102,-414.9804"/>
</g>
<!-- Event&#45;&gt;DataSchema -->
<g id="edge12" class="edge">
<title>Event&#45;&gt;DataSchema</title>
<path fill="none" stroke="#000000" d="M574.5998,-495.3702C562.1705,-477.1268 543.6556,-447.7886 532.5,-420 502.7842,-345.9783 486.2358,-252.6993 479.3524,-206.7411"/>
<polygon fill="#000000" stroke="#000000" points="482.7853,-206.0262 477.8815,-196.6346 475.8583,-207.0345 482.7853,-206.0262"/>
<text text-anchor="start" x="532.5" y="-359.8" font-family="mono" font-size="14.00" fill="#c83500">cancellation</text>
<text text-anchor="middle" x="488.8815" y="-200.4346" font-family="Times,serif" font-size="14.00" fill="#000000">0..1</text>
</g>
<!-- Event&#45;&gt;DataSchema -->
<g id="edge13" class="edge">
<title>Event&#45;&gt;DataSchema</title>
<path fill="none" stroke="#000000" d="M598.8313,-495.4973C620.5552,-458.5112 663.2912,-371.9914 632.5,-307 609.743,-258.9664 559.2626,-222.9114 521.65,-201.4032"/>
<polygon fill="#000000" stroke="#000000" points="523.3119,-198.3226 512.8729,-196.5122 519.9044,-204.4373 523.3119,-198.3226"/>
<text text-anchor="start" x="643.5" y="-359.8" font-family="mono" font-size="14.00" fill="#c83500">subscription</text>
<text text-anchor="middle" x="523.8729" y="-200.3122" font-family="Times,serif" font-size="14.00" fill="#000000">0..1</text>
</g>
<!-- Event&#45;&gt;DataSchema -->
<g id="edge14" class="edge">
<title>Event&#45;&gt;DataSchema</title>
<path fill="none" stroke="#000000" d="M596.6332,-495.3027C603.7434,-482.8601 614.7128,-466.8897 628.5,-457 673.5053,-424.7172 714.6606,-464.6007 747.5,-420 777.2775,-379.5578 774.3781,-349.4245 747.5,-307 701.7332,-234.7614 603.2366,-202.3624 538.1866,-188.3923"/>
<polygon fill="#000000" stroke="#000000" points="538.5472,-184.8932 528.0469,-186.3051 537.1358,-191.7494 538.5472,-184.8932"/>
<text text-anchor="start" x="769.5" y="-359.8" font-family="mono" font-size="14.00" fill="#c83500">data</text>
<text text-anchor="middle" x="539.0469" y="-175.1051" font-family="Times,serif" font-size="14.00" fill="#000000">0..1</text>
</g>
</g>
</svg>
