<?xml version="1.0" encoding="UTF-8" standalone="no"?>
<!DOCTYPE svg PUBLIC "-//W3C//DTD SVG 1.1//EN"
 "http://www.w3.org/Graphics/SVG/1.1/DTD/svg11.dtd">
<!-- Generated by graphviz version 2.40.1 (20161225.0304)
 -->
<!-- Title: %3 Pages: 1 -->
<svg width="1426pt" height="861pt"
 viewBox="0.00 0.00 1425.50 861.00" xmlns="http://www.w3.org/2000/svg" xmlns:xlink="http://www.w3.org/1999/xlink">
<g id="graph0" class="graph" transform="scale(1 1) rotate(0) translate(4 857)">
<title>%3</title>
<polygon fill="#ffffff" stroke="transparent" points="-4,4 -4,-857 1421.5,-857 1421.5,4 -4,4"/>
<!-- MultiLanguage -->
<g id="node1" class="node">
<title>MultiLanguage</title>
<polygon fill="#8ccbf2" stroke="transparent" points="273.5,-167.5 273.5,-188.5 387.5,-188.5 387.5,-167.5 273.5,-167.5"/>
<polygon fill="none" stroke="#8ccbf2" points="273.5,-167.5 273.5,-188.5 387.5,-188.5 387.5,-167.5 273.5,-167.5"/>
<text text-anchor="start" x="276.5" y="-175.3" font-family="mono" font-weight="bold" font-size="14.00" fill="#c83500">MultiLanguage</text>
</g>
<!-- InteractionPattern -->
<g id="node2" class="node">
<title>InteractionPattern</title>
<polygon fill="#8ccbf2" stroke="transparent" points="280.5,-374 280.5,-395 439.5,-395 439.5,-374 280.5,-374"/>
<polygon fill="none" stroke="#8ccbf2" points="280.5,-374 280.5,-395 439.5,-395 439.5,-374 280.5,-374"/>
<text text-anchor="start" x="285.5" y="-381.8" font-family="mono" font-weight="bold" font-size="14.00" fill="#c83500">InteractionPattern</text>
<polygon fill="#ddeeff" stroke="transparent" points="280.5,-353 280.5,-374 439.5,-374 439.5,-353 280.5,-353"/>
<polygon fill="none" stroke="#8ccbf2" points="280.5,-353 280.5,-374 439.5,-374 439.5,-353 280.5,-353"/>
<text text-anchor="start" x="283.5" y="-360.8" font-family="mono" font-size="14.00" fill="#c83500">@type</text>
<text text-anchor="start" x="325.5" y="-360.8" font-family="Times,serif" font-size="14.00" fill="#000000"> : </text>
<text text-anchor="start" x="337.5" y="-360.8" font-family="Times,serif" font-style="italic" font-size="14.00" fill="#000000">array of </text>
<text text-anchor="start" x="386.5" y="-360.8" font-family="mono" font-size="14.00" fill="#c83500">string</text>
<polygon fill="#ddeeff" stroke="transparent" points="280.5,-332 280.5,-353 439.5,-353 439.5,-332 280.5,-332"/>
<polygon fill="none" stroke="#8ccbf2" points="280.5,-332 280.5,-353 439.5,-353 439.5,-332 280.5,-332"/>
<text text-anchor="start" x="283.5" y="-339.8" font-family="mono" font-size="14.00" fill="#c83500">description</text>
<text text-anchor="start" x="374.5" y="-339.8" font-family="Times,serif" font-size="14.00" fill="#000000"> : </text>
<text text-anchor="start" x="386.5" y="-339.8" font-family="mono" font-size="14.00" fill="#c83500">string</text>
<polygon fill="#ddeeff" stroke="transparent" points="280.5,-311 280.5,-332 439.5,-332 439.5,-311 280.5,-311"/>
<polygon fill="none" stroke="#8ccbf2" points="280.5,-311 280.5,-332 439.5,-332 439.5,-311 280.5,-311"/>
<text text-anchor="start" x="283.5" y="-318.8" font-family="mono" font-size="14.00" fill="#c83500">title</text>
<text text-anchor="start" x="325.5" y="-318.8" font-family="Times,serif" font-size="14.00" fill="#000000"> : </text>
<text text-anchor="start" x="337.5" y="-318.8" font-family="mono" font-size="14.00" fill="#c83500">string</text>
</g>
<!-- InteractionPattern&#45;&gt;MultiLanguage -->
<g id="edge2" class="edge">
<title>InteractionPattern&#45;&gt;MultiLanguage</title>
<path fill="none" stroke="#000000" d="M298.3928,-306.6352C294.0651,-301.1485 290.309,-295.2552 287.5,-289 274.788,-260.6924 291.9559,-227.4084 308.2226,-204.8236"/>
<polygon fill="#000000" stroke="#000000" points="311.1076,-206.8113 314.3486,-196.7243 305.5247,-202.5885 311.1076,-206.8113"/>
<text text-anchor="start" x="287.5" y="-277.8" font-family="mono" font-size="14.00" fill="#c83500">titles</text>
<text text-anchor="middle" x="303.3486" y="-200.5243" font-family="Times,serif" font-size="14.00" fill="#000000">0..1</text>
</g>
<!-- InteractionPattern&#45;&gt;MultiLanguage -->
<g id="edge3" class="edge">
<title>InteractionPattern&#45;&gt;MultiLanguage</title>
<path fill="none" stroke="#000000" d="M351.8047,-306.6953C346.5014,-274.7842 339.6275,-233.4225 335.1428,-206.4367"/>
<polygon fill="#000000" stroke="#000000" points="338.5845,-205.7967 333.4924,-196.5058 331.6792,-206.9444 338.5845,-205.7967"/>
<text text-anchor="start" x="348.5" y="-277.8" font-family="mono" font-size="14.00" fill="#c83500">descriptions</text>
<text text-anchor="middle" x="344.4924" y="-200.3058" font-family="Times,serif" font-size="14.00" fill="#000000">0..1</text>
</g>
<!-- Form -->
<g id="node4" class="node">
<title>Form</title>
<polygon fill="#8ccbf2" stroke="transparent" points="8.5,-230.5 8.5,-251.5 239.5,-251.5 239.5,-230.5 8.5,-230.5"/>
<polygon fill="none" stroke="#8ccbf2" points="8.5,-230.5 8.5,-251.5 239.5,-251.5 239.5,-230.5 8.5,-230.5"/>
<text text-anchor="start" x="107" y="-238.3" font-family="mono" font-weight="bold" font-size="14.00" fill="#c83500">Form</text>
<polygon fill="#ddeeff" stroke="transparent" points="8.5,-209.5 8.5,-230.5 239.5,-230.5 239.5,-209.5 8.5,-209.5"/>
<polygon fill="none" stroke="#8ccbf2" points="8.5,-209.5 8.5,-230.5 239.5,-230.5 239.5,-209.5 8.5,-209.5"/>
<text text-anchor="start" x="11.5" y="-217.3" font-family="mono" font-size="14.00" fill="#c83500">contentType</text>
<text text-anchor="start" x="102.5" y="-217.3" font-family="Times,serif" font-size="14.00" fill="#000000"> : </text>
<text text-anchor="start" x="114.5" y="-217.3" font-family="mono" font-size="14.00" fill="#c83500">string</text>
<text text-anchor="start" x="164.5" y="-217.3" font-family="Times,serif" font-size="14.00" fill="#000000"> </text>
<text text-anchor="start" x="168.5" y="-217.3" font-family="Times,serif" font-style="italic" font-size="14.00" fill="#000000">(mandatory)</text>
<polygon fill="#ddeeff" stroke="transparent" points="8.5,-188.5 8.5,-209.5 239.5,-209.5 239.5,-188.5 8.5,-188.5"/>
<polygon fill="none" stroke="#8ccbf2" points="8.5,-188.5 8.5,-209.5 239.5,-209.5 239.5,-188.5 8.5,-188.5"/>
<text text-anchor="start" x="11.5" y="-196.3" font-family="mono" font-size="14.00" fill="#c83500">subprotocol</text>
<text text-anchor="start" x="102.5" y="-196.3" font-family="Times,serif" font-size="14.00" fill="#000000"> : </text>
<text text-anchor="start" x="114.5" y="-196.3" font-family="mono" font-size="14.00" fill="#c83500">string</text>
<polygon fill="#ddeeff" stroke="transparent" points="8.5,-167.5 8.5,-188.5 239.5,-188.5 239.5,-167.5 8.5,-167.5"/>
<polygon fill="none" stroke="#8ccbf2" points="8.5,-167.5 8.5,-188.5 239.5,-188.5 239.5,-167.5 8.5,-167.5"/>
<text text-anchor="start" x="11.5" y="-175.3" font-family="mono" font-size="14.00" fill="#c83500">security</text>
<text text-anchor="start" x="78.5" y="-175.3" font-family="Times,serif" font-size="14.00" fill="#000000"> : array of </text>
<text text-anchor="start" x="136.5" y="-175.3" font-family="mono" font-size="14.00" fill="#c83500">string</text>
<polygon fill="#ddeeff" stroke="transparent" points="8.5,-146.5 8.5,-167.5 239.5,-167.5 239.5,-146.5 8.5,-146.5"/>
<polygon fill="none" stroke="#8ccbf2" points="8.5,-146.5 8.5,-167.5 239.5,-167.5 239.5,-146.5 8.5,-146.5"/>
<text text-anchor="start" x="11.5" y="-154.3" font-family="mono" font-size="14.00" fill="#c83500">href</text>
<text text-anchor="start" x="45.5" y="-154.3" font-family="Times,serif" font-size="14.00" fill="#000000"> : </text>
<text text-anchor="start" x="57.5" y="-154.3" font-family="mono" font-size="14.00" fill="#c83500">anyURI</text>
<text text-anchor="start" x="107.5" y="-154.3" font-family="Times,serif" font-size="14.00" fill="#000000"> </text>
<text text-anchor="start" x="111.5" y="-154.3" font-family="Times,serif" font-style="italic" font-size="14.00" fill="#000000">(mandatory)</text>
<polygon fill="#ddeeff" stroke="transparent" points="8.5,-125.5 8.5,-146.5 239.5,-146.5 239.5,-125.5 8.5,-125.5"/>
<polygon fill="none" stroke="#8ccbf2" points="8.5,-125.5 8.5,-146.5 239.5,-146.5 239.5,-125.5 8.5,-125.5"/>
<text text-anchor="start" x="11.5" y="-133.3" font-family="mono" font-size="14.00" fill="#c83500">scopes</text>
<text text-anchor="start" x="61.5" y="-133.3" font-family="Times,serif" font-size="14.00" fill="#000000"> : array of </text>
<text text-anchor="start" x="119.5" y="-133.3" font-family="mono" font-size="14.00" fill="#c83500">string</text>
<polygon fill="#ddeeff" stroke="transparent" points="8.5,-104.5 8.5,-125.5 239.5,-125.5 239.5,-104.5 8.5,-104.5"/>
<polygon fill="none" stroke="#8ccbf2" points="8.5,-104.5 8.5,-125.5 239.5,-125.5 239.5,-104.5 8.5,-104.5"/>
<text text-anchor="start" x="11.5" y="-112.3" font-family="mono" font-size="14.00" fill="#c83500">op</text>
<text text-anchor="start" x="28.5" y="-112.3" font-family="Times,serif" font-size="14.00" fill="#000000"> : </text>
<text text-anchor="start" x="40.5" y="-112.3" font-family="mono" font-size="14.00" fill="#c83500">string</text>
</g>
<!-- InteractionPattern&#45;&gt;Form -->
<g id="edge4" class="edge">
<title>InteractionPattern&#45;&gt;Form</title>
<path fill="none" stroke="#000000" d="M271.683,-310.8567C259.8658,-304.0652 248.1569,-296.7126 237.5,-289 226.5395,-281.0677 215.591,-272.1148 205.0528,-262.8243"/>
<polygon fill="#000000" stroke="#000000" points="207.2382,-260.0827 197.4576,-256.0094 202.5633,-265.2929 207.2382,-260.0827"/>
<text text-anchor="start" x="237.5" y="-277.8" font-family="mono" font-size="14.00" fill="#c83500">forms</text>
<text text-anchor="middle" x="186.4576" y="-259.8094" font-family="Times,serif" font-size="14.00" fill="#000000">1..*</text>
</g>
<!-- DataSchema -->
<g id="node11" class="node">
<title>DataSchema</title>
<polygon fill="#f2f2f2" stroke="transparent" points="678.5,-167.5 678.5,-188.5 767.5,-188.5 767.5,-167.5 678.5,-167.5"/>
<polygon fill="none" stroke="#8c8c8c" points="678.5,-167.5 678.5,-188.5 767.5,-188.5 767.5,-167.5 678.5,-167.5"/>
<text text-anchor="start" x="681.5" y="-175.3" font-family="mono" font-weight="bold" font-size="14.00" fill="#000000">DataSchema</text>
</g>
<!-- InteractionPattern&#45;&gt;DataSchema -->
<g id="edge1" class="edge">
<title>InteractionPattern&#45;&gt;DataSchema</title>
<path fill="none" stroke="#000000" d="M426.694,-306.9752C444.747,-295.5079 464.5331,-283.723 483.5,-274 541.6531,-244.1892 611.3644,-217.2711 660.4483,-199.67"/>
<polygon fill="#000000" stroke="#000000" points="661.734,-202.9275 669.9806,-196.2759 659.3859,-196.3331 661.734,-202.9275"/>
<text text-anchor="start" x="483.5" y="-277.8" font-family="mono" font-size="14.00" fill="#c83500">uriVariables</text>
<text text-anchor="middle" x="658.9806" y="-200.0759" font-family="Times,serif" font-size="14.00" fill="#000000">0..1</text>
</g>
<!-- Link -->
<g id="node3" class="node">
<title>Link</title>
<polygon fill="#8ccbf2" stroke="transparent" points="837.5,-537.5 837.5,-558.5 1011.5,-558.5 1011.5,-537.5 837.5,-537.5"/>
<polygon fill="none" stroke="#8ccbf2" points="837.5,-537.5 837.5,-558.5 1011.5,-558.5 1011.5,-537.5 837.5,-537.5"/>
<text text-anchor="start" x="907.5" y="-545.3" font-family="mono" font-weight="bold" font-size="14.00" fill="#c83500">Link</text>
<polygon fill="#ddeeff" stroke="transparent" points="837.5,-516.5 837.5,-537.5 1011.5,-537.5 1011.5,-516.5 837.5,-516.5"/>
<polygon fill="none" stroke="#8ccbf2" points="837.5,-516.5 837.5,-537.5 1011.5,-537.5 1011.5,-516.5 837.5,-516.5"/>
<text text-anchor="start" x="840.5" y="-524.3" font-family="mono" font-size="14.00" fill="#c83500">type</text>
<text text-anchor="start" x="874.5" y="-524.3" font-family="Times,serif" font-size="14.00" fill="#000000"> : </text>
<text text-anchor="start" x="886.5" y="-524.3" font-family="mono" font-size="14.00" fill="#c83500">string</text>
<polygon fill="#ddeeff" stroke="transparent" points="837.5,-495.5 837.5,-516.5 1011.5,-516.5 1011.5,-495.5 837.5,-495.5"/>
<polygon fill="none" stroke="#8ccbf2" points="837.5,-495.5 837.5,-516.5 1011.5,-516.5 1011.5,-495.5 837.5,-495.5"/>
<text text-anchor="start" x="840.5" y="-503.3" font-family="mono" font-size="14.00" fill="#c83500">href</text>
<text text-anchor="start" x="874.5" y="-503.3" font-family="Times,serif" font-size="14.00" fill="#000000"> : </text>
<text text-anchor="start" x="886.5" y="-503.3" font-family="mono" font-size="14.00" fill="#c83500">anyURI</text>
<text text-anchor="start" x="936.5" y="-503.3" font-family="Times,serif" font-size="14.00" fill="#000000"> </text>
<text text-anchor="start" x="940.5" y="-503.3" font-family="Times,serif" font-style="italic" font-size="14.00" fill="#000000">(mandatory)</text>
<polygon fill="#ddeeff" stroke="transparent" points="837.5,-474.5 837.5,-495.5 1011.5,-495.5 1011.5,-474.5 837.5,-474.5"/>
<polygon fill="none" stroke="#8ccbf2" points="837.5,-474.5 837.5,-495.5 1011.5,-495.5 1011.5,-474.5 837.5,-474.5"/>
<text text-anchor="start" x="840.5" y="-482.3" font-family="mono" font-size="14.00" fill="#c83500">anchor</text>
<text text-anchor="start" x="890.5" y="-482.3" font-family="Times,serif" font-size="14.00" fill="#000000"> : </text>
<text text-anchor="start" x="902.5" y="-482.3" font-family="mono" font-size="14.00" fill="#c83500">anyURI</text>
<polygon fill="#ddeeff" stroke="transparent" points="837.5,-453.5 837.5,-474.5 1011.5,-474.5 1011.5,-453.5 837.5,-453.5"/>
<polygon fill="none" stroke="#8ccbf2" points="837.5,-453.5 837.5,-474.5 1011.5,-474.5 1011.5,-453.5 837.5,-453.5"/>
<text text-anchor="start" x="840.5" y="-461.3" font-family="mono" font-size="14.00" fill="#c83500">rel</text>
<text text-anchor="start" x="865.5" y="-461.3" font-family="Times,serif" font-size="14.00" fill="#000000"> : </text>
<text text-anchor="start" x="877.5" y="-461.3" font-family="mono" font-size="14.00" fill="#c83500">string</text>
</g>
<!-- ExpectedResponse -->
<g id="node7" class="node">
<title>ExpectedResponse</title>
<polygon fill="#8ccbf2" stroke="transparent" points="44.5,-25 44.5,-46 203.5,-46 203.5,-25 44.5,-25"/>
<polygon fill="none" stroke="#8ccbf2" points="44.5,-25 44.5,-46 203.5,-46 203.5,-25 44.5,-25"/>
<text text-anchor="start" x="57.5" y="-32.8" font-family="mono" font-weight="bold" font-size="14.00" fill="#c83500">ExpectedResponse</text>
<polygon fill="#ddeeff" stroke="transparent" points="44.5,-4 44.5,-25 203.5,-25 203.5,-4 44.5,-4"/>
<polygon fill="none" stroke="#8ccbf2" points="44.5,-4 44.5,-25 203.5,-25 203.5,-4 44.5,-4"/>
<text text-anchor="start" x="47.5" y="-11.8" font-family="mono" font-size="14.00" fill="#c83500">contentType</text>
<text text-anchor="start" x="138.5" y="-11.8" font-family="Times,serif" font-size="14.00" fill="#000000"> : </text>
<text text-anchor="start" x="150.5" y="-11.8" font-family="mono" font-size="14.00" fill="#c83500">string</text>
</g>
<!-- Form&#45;&gt;ExpectedResponse -->
<g id="edge5" class="edge">
<title>Form&#45;&gt;ExpectedResponse</title>
<path fill="none" stroke="#000000" d="M123.5,-100.8506C123.5,-86.7022 123.5,-72.5946 123.5,-60.4513"/>
<polygon fill="#000000" stroke="#000000" points="127.0001,-60.3339 123.5,-50.334 120.0001,-60.334 127.0001,-60.3339"/>
<text text-anchor="start" x="123.5" y="-71.8" font-family="mono" font-size="14.00" fill="#c83500">response</text>
<text text-anchor="middle" x="112.5" y="-54.134" font-family="Times,serif" font-size="14.00" fill="#000000">0..1</text>
</g>
<!-- Thing -->
<g id="node5" class="node">
<title>Thing</title>
<polygon fill="#8ccbf2" stroke="transparent" points="566.5,-827.5 566.5,-848.5 819.5,-848.5 819.5,-827.5 566.5,-827.5"/>
<polygon fill="none" stroke="#8ccbf2" points="566.5,-827.5 566.5,-848.5 819.5,-848.5 819.5,-827.5 566.5,-827.5"/>
<text text-anchor="start" x="672" y="-835.3" font-family="mono" font-weight="bold" font-size="14.00" fill="#c83500">Thing</text>
<polygon fill="#ddeeff" stroke="transparent" points="566.5,-806.5 566.5,-827.5 819.5,-827.5 819.5,-806.5 566.5,-806.5"/>
<polygon fill="none" stroke="#8ccbf2" points="566.5,-806.5 566.5,-827.5 819.5,-827.5 819.5,-806.5 566.5,-806.5"/>
<text text-anchor="start" x="569.5" y="-814.3" font-family="mono" font-size="14.00" fill="#c83500">@context</text>
<text text-anchor="start" x="636.5" y="-814.3" font-family="Times,serif" font-size="14.00" fill="#000000"> : </text>
<text text-anchor="start" x="648.5" y="-814.3" font-family="Times,serif" font-style="italic" font-size="14.00" fill="#000000">array</text>
<text text-anchor="start" x="679.5" y="-814.3" font-family="Times,serif" font-size="14.00" fill="#000000"> </text>
<text text-anchor="start" x="683.5" y="-814.3" font-family="Times,serif" font-style="italic" font-size="14.00" fill="#000000">(mandatory)</text>
<polygon fill="#ddeeff" stroke="transparent" points="566.5,-785.5 566.5,-806.5 819.5,-806.5 819.5,-785.5 566.5,-785.5"/>
<polygon fill="none" stroke="#8ccbf2" points="566.5,-785.5 566.5,-806.5 819.5,-806.5 819.5,-785.5 566.5,-785.5"/>
<text text-anchor="start" x="569.5" y="-793.3" font-family="mono" font-size="14.00" fill="#c83500">@type</text>
<text text-anchor="start" x="611.5" y="-793.3" font-family="Times,serif" font-size="14.00" fill="#000000"> : </text>
<text text-anchor="start" x="623.5" y="-793.3" font-family="Times,serif" font-style="italic" font-size="14.00" fill="#000000">array of </text>
<text text-anchor="start" x="672.5" y="-793.3" font-family="mono" font-size="14.00" fill="#c83500">string</text>
<polygon fill="#ddeeff" stroke="transparent" points="566.5,-764.5 566.5,-785.5 819.5,-785.5 819.5,-764.5 566.5,-764.5"/>
<polygon fill="none" stroke="#8ccbf2" points="566.5,-764.5 566.5,-785.5 819.5,-785.5 819.5,-764.5 566.5,-764.5"/>
<text text-anchor="start" x="569.5" y="-772.3" font-family="mono" font-size="14.00" fill="#c83500">id</text>
<text text-anchor="start" x="586.5" y="-772.3" font-family="Times,serif" font-size="14.00" fill="#000000"> : </text>
<text text-anchor="start" x="598.5" y="-772.3" font-family="mono" font-size="14.00" fill="#c83500">anyURI</text>
<text text-anchor="start" x="648.5" y="-772.3" font-family="Times,serif" font-size="14.00" fill="#000000"> </text>
<text text-anchor="start" x="652.5" y="-772.3" font-family="Times,serif" font-style="italic" font-size="14.00" fill="#000000">(mandatory)</text>
<polygon fill="#ddeeff" stroke="transparent" points="566.5,-743.5 566.5,-764.5 819.5,-764.5 819.5,-743.5 566.5,-743.5"/>
<polygon fill="none" stroke="#8ccbf2" points="566.5,-743.5 566.5,-764.5 819.5,-764.5 819.5,-743.5 566.5,-743.5"/>
<text text-anchor="start" x="569.5" y="-751.3" font-family="mono" font-size="14.00" fill="#c83500">name</text>
<text text-anchor="start" x="603.5" y="-751.3" font-family="Times,serif" font-size="14.00" fill="#000000"> : </text>
<text text-anchor="start" x="615.5" y="-751.3" font-family="mono" font-size="14.00" fill="#c83500">string</text>
<text text-anchor="start" x="665.5" y="-751.3" font-family="Times,serif" font-size="14.00" fill="#000000"> </text>
<text text-anchor="start" x="669.5" y="-751.3" font-family="Times,serif" font-style="italic" font-size="14.00" fill="#000000">(mandatory)</text>
<polygon fill="#ddeeff" stroke="transparent" points="566.5,-722.5 566.5,-743.5 819.5,-743.5 819.5,-722.5 566.5,-722.5"/>
<polygon fill="none" stroke="#8ccbf2" points="566.5,-722.5 566.5,-743.5 819.5,-743.5 819.5,-722.5 566.5,-722.5"/>
<text text-anchor="start" x="569.5" y="-730.3" font-family="mono" font-size="14.00" fill="#c83500">description</text>
<text text-anchor="start" x="660.5" y="-730.3" font-family="Times,serif" font-size="14.00" fill="#000000"> : </text>
<text text-anchor="start" x="672.5" y="-730.3" font-family="mono" font-size="14.00" fill="#c83500">string</text>
<polygon fill="#ddeeff" stroke="transparent" points="566.5,-701.5 566.5,-722.5 819.5,-722.5 819.5,-701.5 566.5,-701.5"/>
<polygon fill="none" stroke="#8ccbf2" points="566.5,-701.5 566.5,-722.5 819.5,-722.5 819.5,-701.5 566.5,-701.5"/>
<text text-anchor="start" x="569.5" y="-709.3" font-family="mono" font-size="14.00" fill="#c83500">support</text>
<text text-anchor="start" x="627.5" y="-709.3" font-family="Times,serif" font-size="14.00" fill="#000000"> : </text>
<text text-anchor="start" x="639.5" y="-709.3" font-family="mono" font-size="14.00" fill="#c83500">string</text>
<polygon fill="#ddeeff" stroke="transparent" points="566.5,-680.5 566.5,-701.5 819.5,-701.5 819.5,-680.5 566.5,-680.5"/>
<polygon fill="none" stroke="#8ccbf2" points="566.5,-680.5 566.5,-701.5 819.5,-701.5 819.5,-680.5 566.5,-680.5"/>
<text text-anchor="start" x="569.5" y="-688.3" font-family="mono" font-size="14.00" fill="#c83500">base</text>
<text text-anchor="start" x="603.5" y="-688.3" font-family="Times,serif" font-size="14.00" fill="#000000"> : </text>
<text text-anchor="start" x="615.5" y="-688.3" font-family="mono" font-size="14.00" fill="#c83500">anyURI</text>
<polygon fill="#ddeeff" stroke="transparent" points="566.5,-659.5 566.5,-680.5 819.5,-680.5 819.5,-659.5 566.5,-659.5"/>
<polygon fill="none" stroke="#8ccbf2" points="566.5,-659.5 566.5,-680.5 819.5,-680.5 819.5,-659.5 566.5,-659.5"/>
<text text-anchor="start" x="569.5" y="-667.3" font-family="mono" font-size="14.00" fill="#c83500">security</text>
<text text-anchor="start" x="636.5" y="-667.3" font-family="Times,serif" font-size="14.00" fill="#000000"> : array of </text>
<text text-anchor="start" x="694.5" y="-667.3" font-family="mono" font-size="14.00" fill="#c83500">string</text>
<text text-anchor="start" x="744.5" y="-667.3" font-family="Times,serif" font-size="14.00" fill="#000000"> </text>
<text text-anchor="start" x="748.5" y="-667.3" font-family="Times,serif" font-style="italic" font-size="14.00" fill="#000000">(mandatory)</text>
<polygon fill="#ddeeff" stroke="transparent" points="566.5,-638.5 566.5,-659.5 819.5,-659.5 819.5,-638.5 566.5,-638.5"/>
<polygon fill="none" stroke="#8ccbf2" points="566.5,-638.5 566.5,-659.5 819.5,-659.5 819.5,-638.5 566.5,-638.5"/>
<text text-anchor="start" x="569.5" y="-646.3" font-family="mono" font-size="14.00" fill="#c83500">created</text>
<text text-anchor="start" x="627.5" y="-646.3" font-family="Times,serif" font-size="14.00" fill="#000000"> : </text>
<text text-anchor="start" x="639.5" y="-646.3" font-family="mono" font-size="14.00" fill="#c83500">string</text>
<polygon fill="#ddeeff" stroke="transparent" points="566.5,-617.5 566.5,-638.5 819.5,-638.5 819.5,-617.5 566.5,-617.5"/>
<polygon fill="none" stroke="#8ccbf2" points="566.5,-617.5 566.5,-638.5 819.5,-638.5 819.5,-617.5 566.5,-617.5"/>
<text text-anchor="start" x="569.5" y="-625.3" font-family="mono" font-size="14.00" fill="#c83500">lastModified</text>
<text text-anchor="start" x="669.5" y="-625.3" font-family="Times,serif" font-size="14.00" fill="#000000"> : </text>
<text text-anchor="start" x="681.5" y="-625.3" font-family="mono" font-size="14.00" fill="#c83500">string</text>
</g>
<!-- Thing&#45;&gt;MultiLanguage -->
<g id="edge7" class="edge">
<title>Thing&#45;&gt;MultiLanguage</title>
<path fill="none" stroke="#000000" d="M557.9604,-704.4928C429.3118,-673.7052 248.9374,-621.4905 207.5,-563 186.6802,-533.612 198.5951,-300.4691 216.5,-274 227.1962,-258.1875 239.9306,-267.0471 255.5,-256 275.9156,-241.5143 295.4629,-221.0213 309.4806,-204.7465"/>
<polygon fill="#000000" stroke="#000000" points="312.5151,-206.5769 316.2823,-196.6744 307.1621,-202.0664 312.5151,-206.5769"/>
<text text-anchor="start" x="197.5" y="-420.8" font-family="mono" font-size="14.00" fill="#c83500">descriptions</text>
<text text-anchor="middle" x="327.2823" y="-200.4744" font-family="Times,serif" font-size="14.00" fill="#000000">0..1</text>
</g>
<!-- Thing&#45;&gt;Link -->
<g id="edge9" class="edge">
<title>Thing&#45;&gt;Link</title>
<path fill="none" stroke="#000000" d="M814.9541,-613.685C830.2592,-598.7098 845.414,-583.8815 859.3484,-570.2474"/>
<polygon fill="#000000" stroke="#000000" points="861.8184,-572.7275 866.5183,-563.2321 856.9228,-567.7241 861.8184,-572.7275"/>
<text text-anchor="start" x="843.5" y="-584.8" font-family="mono" font-size="14.00" fill="#c83500">links</text>
<text text-anchor="middle" x="855.5183" y="-567.0321" font-family="Times,serif" font-size="14.00" fill="#000000">0..*</text>
</g>
<!-- Thing&#45;&gt;Form -->
<g id="edge12" class="edge">
<title>Thing&#45;&gt;Form</title>
<path fill="none" stroke="#000000" d="M557.8364,-714.2584C459.2146,-695.5577 325.2222,-660.2295 222.5,-596 115.4842,-529.0859 106.7579,-367.866 113.0936,-266.4817"/>
<polygon fill="#000000" stroke="#000000" points="116.6026,-266.4704 113.7963,-256.254 109.619,-265.9906 116.6026,-266.4704"/>
<text text-anchor="start" x="122.5" y="-420.8" font-family="mono" font-size="14.00" fill="#c83500">forms</text>
<text text-anchor="middle" x="102.7963" y="-260.054" font-family="Times,serif" font-size="14.00" fill="#000000">0..*</text>
</g>
<!-- Property -->
<g id="node6" class="node">
<title>Property</title>
<polygon fill="#8ccbf2" stroke="transparent" points="225.5,-506.5 225.5,-527.5 456.5,-527.5 456.5,-506.5 225.5,-506.5"/>
<polygon fill="none" stroke="#8ccbf2" points="225.5,-506.5 225.5,-527.5 456.5,-527.5 456.5,-506.5 225.5,-506.5"/>
<text text-anchor="start" x="307.5" y="-514.3" font-family="mono" font-weight="bold" font-size="14.00" fill="#c83500">Property</text>
<polygon fill="#ddeeff" stroke="transparent" points="225.5,-485.5 225.5,-506.5 456.5,-506.5 456.5,-485.5 225.5,-485.5"/>
<polygon fill="none" stroke="#8ccbf2" points="225.5,-485.5 225.5,-506.5 456.5,-506.5 456.5,-485.5 225.5,-485.5"/>
<text text-anchor="start" x="228.5" y="-493.3" font-family="mono" font-size="14.00" fill="#c83500">observable</text>
<text text-anchor="start" x="311.5" y="-493.3" font-family="Times,serif" font-size="14.00" fill="#000000"> : </text>
<text text-anchor="start" x="323.5" y="-493.3" font-family="mono" font-size="14.00" fill="#c83500">boolean</text>
<text text-anchor="start" x="381.5" y="-493.3" font-family="Times,serif" font-size="14.00" fill="#000000"> </text>
<text text-anchor="start" x="385.5" y="-493.3" font-family="Times,serif" font-style="italic" font-size="14.00" fill="#000000">(mandatory)</text>
</g>
<!-- Thing&#45;&gt;Property -->
<g id="edge11" class="edge">
<title>Thing&#45;&gt;Property</title>
<path fill="none" stroke="#000000" d="M557.9172,-646.7094C498.1791,-608.1851 431.6919,-565.3084 388.1593,-537.2349"/>
<polygon fill="#000000" stroke="#000000" points="389.7995,-534.1279 379.4985,-531.6496 386.0057,-540.0107 389.7995,-534.1279"/>
<text text-anchor="start" x="475.5" y="-584.8" font-family="mono" font-size="14.00" fill="#c83500">properties</text>
<text text-anchor="middle" x="368.4985" y="-535.4496" font-family="Times,serif" font-size="14.00" fill="#000000">0..1</text>
</g>
<!-- VersionInfo -->
<g id="node8" class="node">
<title>VersionInfo</title>
<polygon fill="#8ccbf2" stroke="transparent" points="1046.5,-506.5 1046.5,-527.5 1253.5,-527.5 1253.5,-506.5 1046.5,-506.5"/>
<polygon fill="none" stroke="#8ccbf2" points="1046.5,-506.5 1046.5,-527.5 1253.5,-527.5 1253.5,-506.5 1046.5,-506.5"/>
<text text-anchor="start" x="1104.5" y="-514.3" font-family="mono" font-weight="bold" font-size="14.00" fill="#c83500">VersionInfo</text>
<polygon fill="#ddeeff" stroke="transparent" points="1046.5,-485.5 1046.5,-506.5 1253.5,-506.5 1253.5,-485.5 1046.5,-485.5"/>
<polygon fill="none" stroke="#8ccbf2" points="1046.5,-485.5 1046.5,-506.5 1253.5,-506.5 1253.5,-485.5 1046.5,-485.5"/>
<text text-anchor="start" x="1049.5" y="-493.3" font-family="mono" font-size="14.00" fill="#c83500">instance</text>
<text text-anchor="start" x="1116.5" y="-493.3" font-family="Times,serif" font-size="14.00" fill="#000000"> : </text>
<text text-anchor="start" x="1128.5" y="-493.3" font-family="mono" font-size="14.00" fill="#c83500">string</text>
<text text-anchor="start" x="1178.5" y="-493.3" font-family="Times,serif" font-size="14.00" fill="#000000"> </text>
<text text-anchor="start" x="1182.5" y="-493.3" font-family="Times,serif" font-style="italic" font-size="14.00" fill="#000000">(mandatory)</text>
</g>
<!-- Thing&#45;&gt;VersionInfo -->
<g id="edge13" class="edge">
<title>Thing&#45;&gt;VersionInfo</title>
<path fill="none" stroke="#000000" d="M827.1433,-666.6203C914.4003,-623.2782 1023.7584,-568.9581 1090.0467,-536.0315"/>
<polygon fill="#000000" stroke="#000000" points="1091.7087,-539.114 1099.1076,-531.5308 1088.5946,-532.8448 1091.7087,-539.114"/>
<text text-anchor="start" x="989.5" y="-584.8" font-family="mono" font-size="14.00" fill="#c83500">version</text>
<text text-anchor="middle" x="1088.1076" y="-535.3308" font-family="Times,serif" font-size="14.00" fill="#000000">0..1</text>
</g>
<!-- Action -->
<g id="node9" class="node">
<title>Action</title>
<polygon fill="#8ccbf2" stroke="transparent" points="490.5,-516.5 490.5,-537.5 721.5,-537.5 721.5,-516.5 490.5,-516.5"/>
<polygon fill="none" stroke="#8ccbf2" points="490.5,-516.5 490.5,-537.5 721.5,-537.5 721.5,-516.5 490.5,-516.5"/>
<text text-anchor="start" x="581" y="-524.3" font-family="mono" font-weight="bold" font-size="14.00" fill="#c83500">Action</text>
<polygon fill="#ddeeff" stroke="transparent" points="490.5,-495.5 490.5,-516.5 721.5,-516.5 721.5,-495.5 490.5,-495.5"/>
<polygon fill="none" stroke="#8ccbf2" points="490.5,-495.5 490.5,-516.5 721.5,-516.5 721.5,-495.5 490.5,-495.5"/>
<text text-anchor="start" x="493.5" y="-503.3" font-family="mono" font-size="14.00" fill="#c83500">safe</text>
<text text-anchor="start" x="527.5" y="-503.3" font-family="Times,serif" font-size="14.00" fill="#000000"> : </text>
<text text-anchor="start" x="539.5" y="-503.3" font-family="mono" font-size="14.00" fill="#c83500">boolean</text>
<text text-anchor="start" x="597.5" y="-503.3" font-family="Times,serif" font-size="14.00" fill="#000000"> </text>
<text text-anchor="start" x="601.5" y="-503.3" font-family="Times,serif" font-style="italic" font-size="14.00" fill="#000000">(mandatory)</text>
<polygon fill="#ddeeff" stroke="transparent" points="490.5,-474.5 490.5,-495.5 721.5,-495.5 721.5,-474.5 490.5,-474.5"/>
<polygon fill="none" stroke="#8ccbf2" points="490.5,-474.5 490.5,-495.5 721.5,-495.5 721.5,-474.5 490.5,-474.5"/>
<text text-anchor="start" x="493.5" y="-482.3" font-family="mono" font-size="14.00" fill="#c83500">idempotent</text>
<text text-anchor="start" x="576.5" y="-482.3" font-family="Times,serif" font-size="14.00" fill="#000000"> : </text>
<text text-anchor="start" x="588.5" y="-482.3" font-family="mono" font-size="14.00" fill="#c83500">boolean</text>
<text text-anchor="start" x="646.5" y="-482.3" font-family="Times,serif" font-size="14.00" fill="#000000"> </text>
<text text-anchor="start" x="650.5" y="-482.3" font-family="Times,serif" font-style="italic" font-size="14.00" fill="#000000">(mandatory)</text>
</g>
<!-- Thing&#45;&gt;Action -->
<g id="edge8" class="edge">
<title>Thing&#45;&gt;Action</title>
<path fill="none" stroke="#000000" d="M646.5797,-613.685C638.062,-591.4607 629.6684,-569.5602 622.7107,-551.4061"/>
<polygon fill="#000000" stroke="#000000" points="625.9531,-550.086 619.1061,-542.0009 619.4167,-552.5912 625.9531,-550.086"/>
<text text-anchor="start" x="639.5" y="-584.8" font-family="mono" font-size="14.00" fill="#c83500">actions</text>
<text text-anchor="middle" x="608.1061" y="-545.8009" font-family="Times,serif" font-size="14.00" fill="#000000">0..1</text>
</g>
<!-- Event -->
<g id="node10" class="node">
<title>Event</title>
<polygon fill="#8ccbf2" stroke="transparent" points="755.5,-495.5 755.5,-516.5 803.5,-516.5 803.5,-495.5 755.5,-495.5"/>
<polygon fill="none" stroke="#8ccbf2" points="755.5,-495.5 755.5,-516.5 803.5,-516.5 803.5,-495.5 755.5,-495.5"/>
<text text-anchor="start" x="758.5" y="-503.3" font-family="mono" font-weight="bold" font-size="14.00" fill="#c83500">Event</text>
</g>
<!-- Thing&#45;&gt;Event -->
<g id="edge10" class="edge">
<title>Thing&#45;&gt;Event</title>
<path fill="none" stroke="#000000" d="M738.4203,-613.685C749.8819,-583.7794 761.1187,-554.4603 768.9348,-534.0667"/>
<polygon fill="#000000" stroke="#000000" points="772.2774,-535.125 772.588,-524.5347 765.741,-532.6199 772.2774,-535.125"/>
<text text-anchor="start" x="749.5" y="-584.8" font-family="mono" font-size="14.00" fill="#c83500">events</text>
<text text-anchor="middle" x="761.588" y="-528.3347" font-family="Times,serif" font-size="14.00" fill="#000000">0..1</text>
</g>
<!-- SecurityScheme -->
<g id="node12" class="node">
<title>SecurityScheme</title>
<polygon fill="#f2f2f2" stroke="transparent" points="1287.5,-495.5 1287.5,-516.5 1409.5,-516.5 1409.5,-495.5 1287.5,-495.5"/>
<polygon fill="none" stroke="#8c8c8c" points="1287.5,-495.5 1287.5,-516.5 1409.5,-516.5 1409.5,-495.5 1287.5,-495.5"/>
<text text-anchor="start" x="1290.5" y="-503.3" font-family="mono" font-weight="bold" font-size="14.00" fill="#000000">SecurityScheme</text>
</g>
<!-- Thing&#45;&gt;SecurityScheme -->
<g id="edge6" class="edge">
<title>Thing&#45;&gt;SecurityScheme</title>
<path fill="none" stroke="#000000" d="M827.2605,-707.3954C947.5707,-680.9543 1126.4934,-633.787 1270.5,-563 1287.9364,-554.4291 1305.6136,-541.9988 1319.7208,-530.9784"/>
<polygon fill="#000000" stroke="#000000" points="1321.9592,-533.6699 1327.5856,-524.6925 1317.5888,-528.2018 1321.9592,-533.6699"/>
<text text-anchor="start" x="1225.5" y="-584.8" font-family="mono" font-size="14.00" fill="#c83500">securityDefinitions</text>
<text text-anchor="middle" x="1316.5856" y="-528.4925" font-family="Times,serif" font-size="14.00" fill="#000000">1..1</text>
</g>
<!-- Property&#45;&gt;InteractionPattern -->
<g id="edge21" class="edge">
<title>Property&#45;&gt;InteractionPattern</title>
<path fill="none" stroke="#000000" d="M343.595,-481.4959C346.0164,-461.9335 349.4769,-433.9757 352.5522,-409.1313"/>
<polygon fill="#ffffff" stroke="#000000" points="356.0426,-409.4239 353.7976,-399.0697 349.0956,-408.564 356.0426,-409.4239"/>
</g>
<!-- Action&#45;&gt;InteractionPattern -->
<g id="edge20" class="edge">
<title>Action&#45;&gt;InteractionPattern</title>
<path fill="none" stroke="#000000" d="M548.4443,-470.8982C516.9103,-451.2215 477.1661,-426.4217 442.2747,-404.6501"/>
<polygon fill="#ffffff" stroke="#000000" points="443.8533,-401.5096 433.5166,-399.1851 440.1476,-407.4483 443.8533,-401.5096"/>
</g>
<!-- Action&#45;&gt;DataSchema -->
<g id="edge14" class="edge">
<title>Action&#45;&gt;DataSchema</title>
<path fill="none" stroke="#000000" d="M599.6059,-470.8493C594.3727,-429.8024 590.4433,-361.0863 611.5,-307 627.9507,-264.7446 664.7054,-226.8767 691.4261,-203.3787"/>
<polygon fill="#000000" stroke="#000000" points="693.7176,-206.0243 699.0166,-196.8497 689.1529,-200.7173 693.7176,-206.0243"/>
<text text-anchor="start" x="611.5" y="-349.3" font-family="mono" font-size="14.00" fill="#c83500">output</text>
<text text-anchor="middle" x="688.0166" y="-200.6497" font-family="Times,serif" font-size="14.00" fill="#000000">0..1</text>
</g>
<!-- Action&#45;&gt;DataSchema -->
<g id="edge15" class="edge">
<title>Action&#45;&gt;DataSchema</title>
<path fill="none" stroke="#000000" d="M626.6416,-470.5769C638.0688,-450.099 651.7865,-423.6717 661.5,-399 687.9254,-331.881 707.557,-249.0221 716.735,-206.5341"/>
<polygon fill="#000000" stroke="#000000" points="720.1832,-207.1455 718.8409,-196.636 713.3365,-205.6887 720.1832,-207.1455"/>
<text text-anchor="start" x="691.5" y="-349.3" font-family="mono" font-size="14.00" fill="#c83500">input</text>
<text text-anchor="middle" x="729.8409" y="-200.436" font-family="Times,serif" font-size="14.00" fill="#000000">0..1</text>
</g>
<!-- Event&#45;&gt;InteractionPattern -->
<g id="edge19" class="edge">
<title>Event&#45;&gt;InteractionPattern</title>
<path fill="none" stroke="#000000" d="M770.3495,-488.3554C763.0949,-475.7718 751.8068,-459.6077 737.5,-450 714.0703,-434.2658 561.0032,-397.9203 456.981,-374.4601"/>
<polygon fill="#ffffff" stroke="#000000" points="457.5979,-371.0115 447.0735,-372.2311 456.0614,-377.8408 457.5979,-371.0115"/>
</g>
<!-- Event&#45;&gt;DataSchema -->
<g id="edge16" class="edge">
<title>Event&#45;&gt;DataSchema</title>
<path fill="none" stroke="#000000" d="M776.3542,-488.3981C766.9141,-434.0761 738.7787,-272.1737 727.3783,-206.5717"/>
<polygon fill="#000000" stroke="#000000" points="730.7966,-205.799 725.636,-196.546 723.8999,-206.9976 730.7966,-205.799"/>
<text text-anchor="start" x="760.5" y="-349.3" font-family="mono" font-size="14.00" fill="#c83500">subscription</text>
<text text-anchor="middle" x="714.636" y="-200.346" font-family="Times,serif" font-size="14.00" fill="#000000">0..1</text>
</g>
<!-- Event&#45;&gt;DataSchema -->
<g id="edge17" class="edge">
<title>Event&#45;&gt;DataSchema</title>
<path fill="none" stroke="#000000" d="M792.0488,-488.4012C799.9779,-477.1712 810.5681,-462.5415 820.5,-450 839.0854,-426.5313 854.0684,-427.0603 864.5,-399 878.748,-360.6738 881.0844,-344.3746 864.5,-307 844.0743,-260.9688 798.1101,-224.4243 763.9778,-202.2545"/>
<polygon fill="#000000" stroke="#000000" points="765.4591,-199.0499 755.1375,-196.659 761.7152,-204.9647 765.4591,-199.0499"/>
<text text-anchor="start" x="876.5" y="-349.3" font-family="mono" font-size="14.00" fill="#c83500">cancellation</text>
<text text-anchor="middle" x="766.1375" y="-200.459" font-family="Times,serif" font-size="14.00" fill="#000000">0..1</text>
</g>
<!-- Event&#45;&gt;DataSchema -->
<g id="edge18" class="edge">
<title>Event&#45;&gt;DataSchema</title>
<path fill="none" stroke="#000000" d="M788.6549,-488.3329C795.7754,-475.9046 806.7481,-459.9387 820.5,-450 880.9918,-406.2815 936.4613,-459.2591 980.5,-399 1004.6263,-365.9875 1002.0235,-341.7655 980.5,-307 938.0825,-238.486 846.9404,-205.3216 785.1579,-190.1447"/>
<polygon fill="#000000" stroke="#000000" points="785.6629,-186.6677 775.126,-187.7743 784.0532,-193.4802 785.6629,-186.6677"/>
<text text-anchor="start" x="998.5" y="-349.3" font-family="mono" font-size="14.00" fill="#c83500">data</text>
<text text-anchor="middle" x="786.126" y="-176.5743" font-family="Times,serif" font-size="14.00" fill="#000000">0..1</text>
</g>
</g>
</svg>
