<?xml version="1.0" encoding="UTF-8" standalone="no"?>
<!DOCTYPE svg PUBLIC "-//W3C//DTD SVG 1.1//EN"
 "http://www.w3.org/Graphics/SVG/1.1/DTD/svg11.dtd">
<!-- Generated by graphviz version 2.38.0 (20140413.2041)
 -->
<!-- Title: %3 Pages: 1 -->
<svg width="1263pt" height="819pt"
 viewBox="0.00 0.00 1263.08 819.00" xmlns="http://www.w3.org/2000/svg" xmlns:xlink="http://www.w3.org/1999/xlink">
<g id="graph0" class="graph" transform="scale(1 1) rotate(0) translate(4 815)">
<title>%3</title>
<polygon fill="white" stroke="none" points="-4,4 -4,-815 1259.08,-815 1259.08,4 -4,4"/>
<!-- MultiLanguage -->
<g id="node1" class="node"><title>MultiLanguage</title>
<polygon fill="#8ccbf2" stroke="none" points="77.0826,-167.5 77.0826,-188.5 191.083,-188.5 191.083,-167.5 77.0826,-167.5"/>
<polygon fill="none" stroke="#8ccbf2" points="77.0826,-167.5 77.0826,-188.5 191.083,-188.5 191.083,-167.5 77.0826,-167.5"/>
<text text-anchor="start" x="80.0826" y="-175.3" font-family="mono" font-weight="bold" font-size="14.00" fill="#c83500">MultiLanguage</text>
</g>
<!-- InteractionPattern -->
<g id="node2" class="node"><title>InteractionPattern</title>
<polygon fill="#8ccbf2" stroke="none" points="283.083,-394.5 283.083,-415.5 464.083,-415.5 464.083,-394.5 283.083,-394.5"/>
<polygon fill="none" stroke="#8ccbf2" points="283.083,-394.5 283.083,-415.5 464.083,-415.5 464.083,-394.5 283.083,-394.5"/>
<text text-anchor="start" x="299.083" y="-402.3" font-family="mono" font-weight="bold" font-size="14.00" fill="#c83500">InteractionPattern</text>
<polygon fill="#ddeeff" stroke="none" points="283.083,-373.5 283.083,-394.5 464.083,-394.5 464.083,-373.5 283.083,-373.5"/>
<polygon fill="none" stroke="#8ccbf2" points="283.083,-373.5 283.083,-394.5 464.083,-394.5 464.083,-373.5 283.083,-373.5"/>
<text text-anchor="start" x="286.083" y="-381.3" font-family="mono" font-size="14.00" fill="#c83500">title</text>
<text text-anchor="start" x="328.083" y="-381.3" font-family="Times,serif" font-size="14.00"> : </text>
<text text-anchor="start" x="340.083" y="-381.3" font-family="mono" font-size="14.00" fill="#c83500">string</text>
<polygon fill="#ddeeff" stroke="none" points="283.083,-352.5 283.083,-373.5 464.083,-373.5 464.083,-352.5 283.083,-352.5"/>
<polygon fill="none" stroke="#8ccbf2" points="283.083,-352.5 283.083,-373.5 464.083,-373.5 464.083,-352.5 283.083,-352.5"/>
<text text-anchor="start" x="286.083" y="-360.3" font-family="mono" font-size="14.00" fill="#c83500">scopes</text>
<text text-anchor="start" x="336.083" y="-360.3" font-family="Times,serif" font-size="14.00"> : array of </text>
<text text-anchor="start" x="394.083" y="-360.3" font-family="mono" font-size="14.00" fill="#c83500">string</text>
<polygon fill="#ddeeff" stroke="none" points="283.083,-331.5 283.083,-352.5 464.083,-352.5 464.083,-331.5 283.083,-331.5"/>
<polygon fill="none" stroke="#8ccbf2" points="283.083,-331.5 283.083,-352.5 464.083,-352.5 464.083,-331.5 283.083,-331.5"/>
<text text-anchor="start" x="286.083" y="-339.3" font-family="mono" font-size="14.00" fill="#c83500">description</text>
<text text-anchor="start" x="377.083" y="-339.3" font-family="Times,serif" font-size="14.00"> : </text>
<text text-anchor="start" x="389.083" y="-339.3" font-family="mono" font-size="14.00" fill="#c83500">string</text>
<polygon fill="#ddeeff" stroke="none" points="283.083,-310.5 283.083,-331.5 464.083,-331.5 464.083,-310.5 283.083,-310.5"/>
<polygon fill="none" stroke="#8ccbf2" points="283.083,-310.5 283.083,-331.5 464.083,-331.5 464.083,-310.5 283.083,-310.5"/>
<text text-anchor="start" x="286.083" y="-318.3" font-family="mono" font-size="14.00" fill="#c83500">security</text>
<text text-anchor="start" x="353.083" y="-318.3" font-family="Times,serif" font-size="14.00"> : array of </text>
<text text-anchor="start" x="411.083" y="-318.3" font-family="mono" font-size="14.00" fill="#c83500">string</text>
</g>
<!-- InteractionPattern&#45;&gt;MultiLanguage -->
<g id="edge3" class="edge"><title>InteractionPattern&#45;&gt;MultiLanguage</title>
<path fill="none" stroke="black" d="M278.83,-306.932C254.984,-291.47 229.951,-273.96 208.083,-256 188.992,-240.321 169.658,-220.154 155.542,-204.462"/>
<polygon fill="black" stroke="black" points="157.92,-201.869 148.665,-196.713 152.685,-206.515 157.92,-201.869"/>
<text text-anchor="start" x="252.083" y="-277.8" font-family="mono" font-size="14.00" fill="#c83500">descriptions</text>
<text text-anchor="middle" x="137.665" y="-200.513" font-family="Times,serif" font-size="14.00">0..1</text>
</g>
<!-- InteractionPattern&#45;&gt;MultiLanguage -->
<g id="edge4" class="edge"><title>InteractionPattern&#45;&gt;MultiLanguage</title>
<path fill="none" stroke="black" d="M274.141,-341.645C240.949,-330.587 205.861,-313.92 180.083,-289 157.096,-266.778 145.079,-231.305 139.177,-206.785"/>
<polygon fill="black" stroke="black" points="142.522,-205.703 136.942,-196.697 135.688,-207.217 142.522,-205.703"/>
<text text-anchor="start" x="180.083" y="-277.8" font-family="mono" font-size="14.00" fill="#c83500">titles</text>
<text text-anchor="middle" x="125.942" y="-200.497" font-family="Times,serif" font-size="14.00">0..1</text>
</g>
<!-- Form -->
<g id="node4" class="node"><title>Form</title>
<polygon fill="#8ccbf2" stroke="none" points="226.083,-230.5 226.083,-251.5 559.083,-251.5 559.083,-230.5 226.083,-230.5"/>
<polygon fill="none" stroke="#8ccbf2" points="226.083,-230.5 226.083,-251.5 559.083,-251.5 559.083,-230.5 226.083,-230.5"/>
<text text-anchor="start" x="375.583" y="-238.3" font-family="mono" font-weight="bold" font-size="14.00" fill="#c83500">Form</text>
<polygon fill="#ddeeff" stroke="none" points="226.083,-209.5 226.083,-230.5 559.083,-230.5 559.083,-209.5 226.083,-209.5"/>
<polygon fill="none" stroke="#8ccbf2" points="226.083,-209.5 226.083,-230.5 559.083,-230.5 559.083,-209.5 226.083,-209.5"/>
<text text-anchor="start" x="229.083" y="-217.3" font-family="mono" font-size="14.00" fill="#c83500">subprotocol</text>
<text text-anchor="start" x="320.083" y="-217.3" font-family="Times,serif" font-size="14.00"> : </text>
<text text-anchor="start" x="332.083" y="-217.3" font-family="mono" font-size="14.00" fill="#c83500">string</text>
<polygon fill="#ddeeff" stroke="none" points="226.083,-188.5 226.083,-209.5 559.083,-209.5 559.083,-188.5 226.083,-188.5"/>
<polygon fill="none" stroke="#8ccbf2" points="226.083,-188.5 226.083,-209.5 559.083,-209.5 559.083,-188.5 226.083,-188.5"/>
<text text-anchor="start" x="229.083" y="-196.3" font-family="mono" font-size="14.00" fill="#c83500">contentType</text>
<text text-anchor="start" x="320.083" y="-196.3" font-family="Times,serif" font-size="14.00"> : </text>
<text text-anchor="start" x="332.083" y="-196.3" font-family="mono" font-size="14.00" fill="#c83500">string</text>
<text text-anchor="start" x="382.083" y="-196.3" font-family="Times,serif" font-size="14.00"> = application/json </text>
<text text-anchor="start" x="488.083" y="-196.3" font-family="Times,serif" font-style="italic" font-size="14.00">(mandatory)</text>
<polygon fill="#ddeeff" stroke="none" points="226.083,-167.5 226.083,-188.5 559.083,-188.5 559.083,-167.5 226.083,-167.5"/>
<polygon fill="none" stroke="#8ccbf2" points="226.083,-167.5 226.083,-188.5 559.083,-188.5 559.083,-167.5 226.083,-167.5"/>
<text text-anchor="start" x="229.083" y="-175.3" font-family="mono" font-size="14.00" fill="#c83500">security</text>
<text text-anchor="start" x="296.083" y="-175.3" font-family="Times,serif" font-size="14.00"> : array of </text>
<text text-anchor="start" x="354.083" y="-175.3" font-family="mono" font-size="14.00" fill="#c83500">string</text>
<polygon fill="#ddeeff" stroke="none" points="226.083,-146.5 226.083,-167.5 559.083,-167.5 559.083,-146.5 226.083,-146.5"/>
<polygon fill="none" stroke="#8ccbf2" points="226.083,-146.5 226.083,-167.5 559.083,-167.5 559.083,-146.5 226.083,-146.5"/>
<text text-anchor="start" x="229.083" y="-154.3" font-family="mono" font-size="14.00" fill="#c83500">scopes</text>
<text text-anchor="start" x="279.083" y="-154.3" font-family="Times,serif" font-size="14.00"> : array of </text>
<text text-anchor="start" x="337.083" y="-154.3" font-family="mono" font-size="14.00" fill="#c83500">string</text>
<polygon fill="#ddeeff" stroke="none" points="226.083,-125.5 226.083,-146.5 559.083,-146.5 559.083,-125.5 226.083,-125.5"/>
<polygon fill="none" stroke="#8ccbf2" points="226.083,-125.5 226.083,-146.5 559.083,-146.5 559.083,-125.5 226.083,-125.5"/>
<text text-anchor="start" x="229.083" y="-133.3" font-family="mono" font-size="14.00" fill="#c83500">op</text>
<text text-anchor="start" x="246.083" y="-133.3" font-family="Times,serif" font-size="14.00"> : </text>
<text text-anchor="start" x="258.083" y="-133.3" font-family="mono" font-size="14.00" fill="#c83500">string</text>
<polygon fill="#ddeeff" stroke="none" points="226.083,-104.5 226.083,-125.5 559.083,-125.5 559.083,-104.5 226.083,-104.5"/>
<polygon fill="none" stroke="#8ccbf2" points="226.083,-104.5 226.083,-125.5 559.083,-125.5 559.083,-104.5 226.083,-104.5"/>
<text text-anchor="start" x="229.083" y="-112.3" font-family="mono" font-size="14.00" fill="#c83500">href</text>
<text text-anchor="start" x="263.083" y="-112.3" font-family="Times,serif" font-size="14.00"> : </text>
<text text-anchor="start" x="275.083" y="-112.3" font-family="mono" font-size="14.00" fill="#c83500">anyURI</text>
<text text-anchor="start" x="325.083" y="-112.3" font-family="Times,serif" font-size="14.00"> </text>
<text text-anchor="start" x="329.083" y="-112.3" font-family="Times,serif" font-style="italic" font-size="14.00">(mandatory)</text>
</g>
<!-- InteractionPattern&#45;&gt;Form -->
<g id="edge2" class="edge"><title>InteractionPattern&#45;&gt;Form</title>
<path fill="none" stroke="black" d="M372.214,-306.709C372.467,-295.841 373.027,-284.55 374.083,-274 374.337,-271.455 374.626,-268.877 374.944,-266.278"/>
<polygon fill="black" stroke="black" points="378.437,-266.557 376.302,-256.18 371.5,-265.624 378.437,-266.557"/>
<text text-anchor="start" x="374.083" y="-277.8" font-family="mono" font-size="14.00" fill="#c83500">forms</text>
<text text-anchor="middle" x="365.302" y="-259.98" font-family="Times,serif" font-size="14.00">1..*</text>
</g>
<!-- DataSchema -->
<g id="node11" class="node"><title>DataSchema</title>
<polygon fill="#f2f2f2" stroke="none" points="611.083,-167.5 611.083,-188.5 700.083,-188.5 700.083,-167.5 611.083,-167.5"/>
<polygon fill="none" stroke="#8c8c8c" points="611.083,-167.5 611.083,-188.5 700.083,-188.5 700.083,-167.5 611.083,-167.5"/>
<text text-anchor="start" x="614.083" y="-175.3" font-family="mono" font-weight="bold" font-size="14.00">DataSchema</text>
</g>
<!-- InteractionPattern&#45;&gt;DataSchema -->
<g id="edge1" class="edge"><title>InteractionPattern&#45;&gt;DataSchema</title>
<path fill="none" stroke="black" d="M403.972,-306.91C413.602,-294.187 425.363,-282.053 439.083,-274 491.665,-243.135 520.11,-282.373 575.083,-256 599.502,-244.285 621.281,-222.283 635.926,-204.871"/>
<polygon fill="black" stroke="black" points="638.93,-206.724 642.522,-196.757 633.498,-202.308 638.93,-206.724"/>
<text text-anchor="start" x="439.083" y="-277.8" font-family="mono" font-size="14.00" fill="#c83500">uriVariables</text>
<text text-anchor="middle" x="631.522" y="-200.557" font-family="Times,serif" font-size="14.00">0..1</text>
</g>
<!-- Link -->
<g id="node3" class="node"><title>Link</title>
<polygon fill="#8ccbf2" stroke="none" points="51.0826,-558.5 51.0826,-579.5 225.083,-579.5 225.083,-558.5 51.0826,-558.5"/>
<polygon fill="none" stroke="#8ccbf2" points="51.0826,-558.5 51.0826,-579.5 225.083,-579.5 225.083,-558.5 51.0826,-558.5"/>
<text text-anchor="start" x="121.083" y="-566.3" font-family="mono" font-weight="bold" font-size="14.00" fill="#c83500">Link</text>
<polygon fill="#ddeeff" stroke="none" points="51.0826,-537.5 51.0826,-558.5 225.083,-558.5 225.083,-537.5 51.0826,-537.5"/>
<polygon fill="none" stroke="#8ccbf2" points="51.0826,-537.5 51.0826,-558.5 225.083,-558.5 225.083,-537.5 51.0826,-537.5"/>
<text text-anchor="start" x="54.0826" y="-545.3" font-family="mono" font-size="14.00" fill="#c83500">rel</text>
<text text-anchor="start" x="79.0826" y="-545.3" font-family="Times,serif" font-size="14.00"> : </text>
<text text-anchor="start" x="91.0826" y="-545.3" font-family="mono" font-size="14.00" fill="#c83500">string</text>
<polygon fill="#ddeeff" stroke="none" points="51.0826,-516.5 51.0826,-537.5 225.083,-537.5 225.083,-516.5 51.0826,-516.5"/>
<polygon fill="none" stroke="#8ccbf2" points="51.0826,-516.5 51.0826,-537.5 225.083,-537.5 225.083,-516.5 51.0826,-516.5"/>
<text text-anchor="start" x="54.0826" y="-524.3" font-family="mono" font-size="14.00" fill="#c83500">type</text>
<text text-anchor="start" x="88.0826" y="-524.3" font-family="Times,serif" font-size="14.00"> : </text>
<text text-anchor="start" x="100.083" y="-524.3" font-family="mono" font-size="14.00" fill="#c83500">string</text>
<polygon fill="#ddeeff" stroke="none" points="51.0826,-495.5 51.0826,-516.5 225.083,-516.5 225.083,-495.5 51.0826,-495.5"/>
<polygon fill="none" stroke="#8ccbf2" points="51.0826,-495.5 51.0826,-516.5 225.083,-516.5 225.083,-495.5 51.0826,-495.5"/>
<text text-anchor="start" x="54.0826" y="-503.3" font-family="mono" font-size="14.00" fill="#c83500">href</text>
<text text-anchor="start" x="88.0826" y="-503.3" font-family="Times,serif" font-size="14.00"> : </text>
<text text-anchor="start" x="100.083" y="-503.3" font-family="mono" font-size="14.00" fill="#c83500">anyURI</text>
<text text-anchor="start" x="150.083" y="-503.3" font-family="Times,serif" font-size="14.00"> </text>
<text text-anchor="start" x="154.083" y="-503.3" font-family="Times,serif" font-style="italic" font-size="14.00">(mandatory)</text>
<polygon fill="#ddeeff" stroke="none" points="51.0826,-474.5 51.0826,-495.5 225.083,-495.5 225.083,-474.5 51.0826,-474.5"/>
<polygon fill="none" stroke="#8ccbf2" points="51.0826,-474.5 51.0826,-495.5 225.083,-495.5 225.083,-474.5 51.0826,-474.5"/>
<text text-anchor="start" x="54.0826" y="-482.3" font-family="mono" font-size="14.00" fill="#c83500">anchor</text>
<text text-anchor="start" x="104.083" y="-482.3" font-family="Times,serif" font-size="14.00"> : </text>
<text text-anchor="start" x="116.083" y="-482.3" font-family="mono" font-size="14.00" fill="#c83500">anyURI</text>
</g>
<!-- ExpectedResponse -->
<g id="node7" class="node"><title>ExpectedResponse</title>
<polygon fill="#8ccbf2" stroke="none" points="313.083,-25 313.083,-46 472.083,-46 472.083,-25 313.083,-25"/>
<polygon fill="none" stroke="#8ccbf2" points="313.083,-25 313.083,-46 472.083,-46 472.083,-25 313.083,-25"/>
<text text-anchor="start" x="326.083" y="-32.8" font-family="mono" font-weight="bold" font-size="14.00" fill="#c83500">ExpectedResponse</text>
<polygon fill="#ddeeff" stroke="none" points="313.083,-4 313.083,-25 472.083,-25 472.083,-4 313.083,-4"/>
<polygon fill="none" stroke="#8ccbf2" points="313.083,-4 313.083,-25 472.083,-25 472.083,-4 313.083,-4"/>
<text text-anchor="start" x="316.083" y="-11.8" font-family="mono" font-size="14.00" fill="#c83500">contentType</text>
<text text-anchor="start" x="407.083" y="-11.8" font-family="Times,serif" font-size="14.00"> : </text>
<text text-anchor="start" x="419.083" y="-11.8" font-family="mono" font-size="14.00" fill="#c83500">string</text>
</g>
<!-- Form&#45;&gt;ExpectedResponse -->
<g id="edge5" class="edge"><title>Form&#45;&gt;ExpectedResponse</title>
<path fill="none" stroke="black" d="M392.083,-100.862C392.083,-86.5577 392.083,-72.2953 392.083,-60.116"/>
<polygon fill="black" stroke="black" points="395.583,-60.0004 392.083,-50.0004 388.583,-60.0004 395.583,-60.0004"/>
<text text-anchor="start" x="392.083" y="-71.8" font-family="mono" font-size="14.00" fill="#c83500">response</text>
<text text-anchor="middle" x="381.083" y="-53.8004" font-family="Times,serif" font-size="14.00">0..1</text>
</g>
<!-- Thing -->
<g id="node5" class="node"><title>Thing</title>
<polygon fill="#8ccbf2" stroke="none" points="505.083,-786 505.083,-807 758.083,-807 758.083,-786 505.083,-786"/>
<polygon fill="none" stroke="#8ccbf2" points="505.083,-786 505.083,-807 758.083,-807 758.083,-786 505.083,-786"/>
<text text-anchor="start" x="610.583" y="-793.8" font-family="mono" font-weight="bold" font-size="14.00" fill="#c83500">Thing</text>
<polygon fill="#ddeeff" stroke="none" points="505.083,-765 505.083,-786 758.083,-786 758.083,-765 505.083,-765"/>
<polygon fill="none" stroke="#8ccbf2" points="505.083,-765 505.083,-786 758.083,-786 758.083,-765 505.083,-765"/>
<text text-anchor="start" x="508.083" y="-772.8" font-family="mono" font-size="14.00" fill="#c83500">support</text>
<text text-anchor="start" x="566.083" y="-772.8" font-family="Times,serif" font-size="14.00"> : </text>
<text text-anchor="start" x="578.083" y="-772.8" font-family="mono" font-size="14.00" fill="#c83500">string</text>
<polygon fill="#ddeeff" stroke="none" points="505.083,-744 505.083,-765 758.083,-765 758.083,-744 505.083,-744"/>
<polygon fill="none" stroke="#8ccbf2" points="505.083,-744 505.083,-765 758.083,-765 758.083,-744 505.083,-744"/>
<text text-anchor="start" x="508.083" y="-751.8" font-family="mono" font-size="14.00" fill="#c83500">base</text>
<text text-anchor="start" x="542.083" y="-751.8" font-family="Times,serif" font-size="14.00"> : </text>
<text text-anchor="start" x="554.083" y="-751.8" font-family="mono" font-size="14.00" fill="#c83500">anyURI</text>
<polygon fill="#ddeeff" stroke="none" points="505.083,-723 505.083,-744 758.083,-744 758.083,-723 505.083,-723"/>
<polygon fill="none" stroke="#8ccbf2" points="505.083,-723 505.083,-744 758.083,-744 758.083,-723 505.083,-723"/>
<text text-anchor="start" x="508.083" y="-730.8" font-family="mono" font-size="14.00" fill="#c83500">description</text>
<text text-anchor="start" x="599.083" y="-730.8" font-family="Times,serif" font-size="14.00"> : </text>
<text text-anchor="start" x="611.083" y="-730.8" font-family="mono" font-size="14.00" fill="#c83500">string</text>
<polygon fill="#ddeeff" stroke="none" points="505.083,-702 505.083,-723 758.083,-723 758.083,-702 505.083,-702"/>
<polygon fill="none" stroke="#8ccbf2" points="505.083,-702 505.083,-723 758.083,-723 758.083,-702 505.083,-702"/>
<text text-anchor="start" x="508.083" y="-709.8" font-family="mono" font-size="14.00" fill="#c83500">lastModified</text>
<text text-anchor="start" x="608.083" y="-709.8" font-family="Times,serif" font-size="14.00"> : </text>
<text text-anchor="start" x="620.083" y="-709.8" font-family="mono" font-size="14.00" fill="#c83500">string</text>
<polygon fill="#ddeeff" stroke="none" points="505.083,-681 505.083,-702 758.083,-702 758.083,-681 505.083,-681"/>
<polygon fill="none" stroke="#8ccbf2" points="505.083,-681 505.083,-702 758.083,-702 758.083,-681 505.083,-681"/>
<text text-anchor="start" x="508.083" y="-688.8" font-family="mono" font-size="14.00" fill="#c83500">created</text>
<text text-anchor="start" x="566.083" y="-688.8" font-family="Times,serif" font-size="14.00"> : </text>
<text text-anchor="start" x="578.083" y="-688.8" font-family="mono" font-size="14.00" fill="#c83500">string</text>
<polygon fill="#ddeeff" stroke="none" points="505.083,-660 505.083,-681 758.083,-681 758.083,-660 505.083,-660"/>
<polygon fill="none" stroke="#8ccbf2" points="505.083,-660 505.083,-681 758.083,-681 758.083,-660 505.083,-660"/>
<text text-anchor="start" x="508.083" y="-667.8" font-family="mono" font-size="14.00" fill="#c83500">name</text>
<text text-anchor="start" x="542.083" y="-667.8" font-family="Times,serif" font-size="14.00"> : </text>
<text text-anchor="start" x="554.083" y="-667.8" font-family="mono" font-size="14.00" fill="#c83500">string</text>
<text text-anchor="start" x="604.083" y="-667.8" font-family="Times,serif" font-size="14.00"> </text>
<text text-anchor="start" x="608.083" y="-667.8" font-family="Times,serif" font-style="italic" font-size="14.00">(mandatory)</text>
<polygon fill="#ddeeff" stroke="none" points="505.083,-639 505.083,-660 758.083,-660 758.083,-639 505.083,-639"/>
<polygon fill="none" stroke="#8ccbf2" points="505.083,-639 505.083,-660 758.083,-660 758.083,-639 505.083,-639"/>
<text text-anchor="start" x="508.083" y="-646.8" font-family="mono" font-size="14.00" fill="#c83500">security</text>
<text text-anchor="start" x="575.083" y="-646.8" font-family="Times,serif" font-size="14.00"> : array of </text>
<text text-anchor="start" x="633.083" y="-646.8" font-family="mono" font-size="14.00" fill="#c83500">string</text>
<text text-anchor="start" x="683.083" y="-646.8" font-family="Times,serif" font-size="14.00"> </text>
<text text-anchor="start" x="687.083" y="-646.8" font-family="Times,serif" font-style="italic" font-size="14.00">(mandatory)</text>
</g>
<!-- Thing&#45;&gt;MultiLanguage -->
<g id="edge6" class="edge"><title>Thing&#45;&gt;MultiLanguage</title>
<path fill="none" stroke="black" d="M496.41,-710.044C338.408,-692.902 90.7344,-655.241 34.0826,-584 -59.3982,-466.446 64.5246,-273.51 114.702,-204.784"/>
<polygon fill="black" stroke="black" points="117.577,-206.784 120.713,-196.663 111.95,-202.619 117.577,-206.784"/>
<text text-anchor="start" x="4.08259" y="-441.8" font-family="mono" font-size="14.00" fill="#c83500">descriptions</text>
<text text-anchor="middle" x="109.713" y="-200.463" font-family="Times,serif" font-size="14.00">0..1</text>
</g>
<!-- Thing&#45;&gt;Link -->
<g id="edge8" class="edge"><title>Thing&#45;&gt;Link</title>
<path fill="none" stroke="black" d="M496.38,-679.731C423.183,-655.444 331.373,-622.84 242.702,-584.154"/>
<polygon fill="black" stroke="black" points="243.864,-580.841 233.301,-580.024 241.049,-587.25 243.864,-580.841"/>
<text text-anchor="start" x="315.083" y="-605.8" font-family="mono" font-size="14.00" fill="#c83500">links</text>
<text text-anchor="middle" x="244.301" y="-583.824" font-family="Times,serif" font-size="14.00">0..*</text>
</g>
<!-- Property -->
<g id="node6" class="node"><title>Property</title>
<polygon fill="#8ccbf2" stroke="none" points="260.083,-527.5 260.083,-548.5 461.083,-548.5 461.083,-527.5 260.083,-527.5"/>
<polygon fill="none" stroke="#8ccbf2" points="260.083,-527.5 260.083,-548.5 461.083,-548.5 461.083,-527.5 260.083,-527.5"/>
<text text-anchor="start" x="327.083" y="-535.3" font-family="mono" font-weight="bold" font-size="14.00" fill="#c83500">Property</text>
<polygon fill="#ddeeff" stroke="none" points="260.083,-506.5 260.083,-527.5 461.083,-527.5 461.083,-506.5 260.083,-506.5"/>
<polygon fill="none" stroke="#8ccbf2" points="260.083,-506.5 260.083,-527.5 461.083,-527.5 461.083,-506.5 260.083,-506.5"/>
<text text-anchor="start" x="263.083" y="-514.3" font-family="mono" font-size="14.00" fill="#c83500">observable</text>
<text text-anchor="start" x="346.083" y="-514.3" font-family="Times,serif" font-size="14.00"> : </text>
<text text-anchor="start" x="358.083" y="-514.3" font-family="mono" font-size="14.00" fill="#c83500">boolean</text>
<text text-anchor="start" x="416.083" y="-514.3" font-family="Times,serif" font-size="14.00"> = false</text>
</g>
<!-- Thing&#45;&gt;Property -->
<g id="edge11" class="edge"><title>Thing&#45;&gt;Property</title>
<path fill="none" stroke="black" d="M509.06,-634.873C470.7,-607.483 430.884,-579.054 402.076,-558.484"/>
<polygon fill="black" stroke="black" points="404.051,-555.593 393.878,-552.631 399.983,-561.29 404.051,-555.593"/>
<text text-anchor="start" x="480.083" y="-605.8" font-family="mono" font-size="14.00" fill="#c83500">properties</text>
<text text-anchor="middle" x="382.878" y="-556.431" font-family="Times,serif" font-size="14.00">0..1</text>
</g>
<!-- Action -->
<g id="node8" class="node"><title>Action</title>
<polygon fill="#8ccbf2" stroke="none" points="495.083,-537.5 495.083,-558.5 768.083,-558.5 768.083,-537.5 495.083,-537.5"/>
<polygon fill="none" stroke="#8ccbf2" points="495.083,-537.5 495.083,-558.5 768.083,-558.5 768.083,-537.5 495.083,-537.5"/>
<text text-anchor="start" x="606.583" y="-545.3" font-family="mono" font-weight="bold" font-size="14.00" fill="#c83500">Action</text>
<polygon fill="#ddeeff" stroke="none" points="495.083,-516.5 495.083,-537.5 768.083,-537.5 768.083,-516.5 495.083,-516.5"/>
<polygon fill="none" stroke="#8ccbf2" points="495.083,-516.5 495.083,-537.5 768.083,-537.5 768.083,-516.5 495.083,-516.5"/>
<text text-anchor="start" x="498.083" y="-524.3" font-family="mono" font-size="14.00" fill="#c83500">safe</text>
<text text-anchor="start" x="532.083" y="-524.3" font-family="Times,serif" font-size="14.00"> : </text>
<text text-anchor="start" x="544.083" y="-524.3" font-family="mono" font-size="14.00" fill="#c83500">boolean</text>
<text text-anchor="start" x="602.083" y="-524.3" font-family="Times,serif" font-size="14.00"> = false </text>
<text text-anchor="start" x="648.083" y="-524.3" font-family="Times,serif" font-style="italic" font-size="14.00">(mandatory)</text>
<polygon fill="#ddeeff" stroke="none" points="495.083,-495.5 495.083,-516.5 768.083,-516.5 768.083,-495.5 495.083,-495.5"/>
<polygon fill="none" stroke="#8ccbf2" points="495.083,-495.5 495.083,-516.5 768.083,-516.5 768.083,-495.5 495.083,-495.5"/>
<text text-anchor="start" x="498.083" y="-503.3" font-family="mono" font-size="14.00" fill="#c83500">idempotent</text>
<text text-anchor="start" x="581.083" y="-503.3" font-family="Times,serif" font-size="14.00"> : </text>
<text text-anchor="start" x="593.083" y="-503.3" font-family="mono" font-size="14.00" fill="#c83500">boolean</text>
<text text-anchor="start" x="651.083" y="-503.3" font-family="Times,serif" font-size="14.00"> = false </text>
<text text-anchor="start" x="697.083" y="-503.3" font-family="Times,serif" font-style="italic" font-size="14.00">(mandatory)</text>
</g>
<!-- Thing&#45;&gt;Action -->
<g id="edge7" class="edge"><title>Thing&#45;&gt;Action</title>
<path fill="none" stroke="black" d="M631.083,-634.873C631.083,-613.643 631.083,-591.788 631.083,-573.453"/>
<polygon fill="black" stroke="black" points="634.583,-573.377 631.083,-563.377 627.583,-573.377 634.583,-573.377"/>
<text text-anchor="start" x="631.083" y="-605.8" font-family="mono" font-size="14.00" fill="#c83500">actions</text>
<text text-anchor="middle" x="620.083" y="-567.177" font-family="Times,serif" font-size="14.00">0..1</text>
</g>
<!-- Event -->
<g id="node9" class="node"><title>Event</title>
<polygon fill="#8ccbf2" stroke="none" points="801.083,-516.5 801.083,-537.5 849.083,-537.5 849.083,-516.5 801.083,-516.5"/>
<polygon fill="none" stroke="#8ccbf2" points="801.083,-516.5 801.083,-537.5 849.083,-537.5 849.083,-516.5 801.083,-516.5"/>
<text text-anchor="start" x="804.083" y="-524.3" font-family="mono" font-weight="bold" font-size="14.00" fill="#c83500">Event</text>
</g>
<!-- Thing&#45;&gt;Event -->
<g id="edge10" class="edge"><title>Thing&#45;&gt;Event</title>
<path fill="none" stroke="black" d="M733.417,-634.935C750.912,-618.598 768.463,-601.224 784.083,-584 792.462,-574.76 800.808,-563.855 807.761,-554.168"/>
<polygon fill="black" stroke="black" points="810.828,-555.89 813.716,-545.696 805.102,-551.864 810.828,-555.89"/>
<text text-anchor="start" x="765.083" y="-605.8" font-family="mono" font-size="14.00" fill="#c83500">events</text>
<text text-anchor="middle" x="802.716" y="-549.496" font-family="Times,serif" font-size="14.00">0..1</text>
</g>
<!-- Versioning -->
<g id="node10" class="node"><title>Versioning</title>
<polygon fill="#8ccbf2" stroke="none" points="884.083,-527.5 884.083,-548.5 1091.08,-548.5 1091.08,-527.5 884.083,-527.5"/>
<polygon fill="none" stroke="#8ccbf2" points="884.083,-527.5 884.083,-548.5 1091.08,-548.5 1091.08,-527.5 884.083,-527.5"/>
<text text-anchor="start" x="946.083" y="-535.3" font-family="mono" font-weight="bold" font-size="14.00" fill="#c83500">Versioning</text>
<polygon fill="#ddeeff" stroke="none" points="884.083,-506.5 884.083,-527.5 1091.08,-527.5 1091.08,-506.5 884.083,-506.5"/>
<polygon fill="none" stroke="#8ccbf2" points="884.083,-506.5 884.083,-527.5 1091.08,-527.5 1091.08,-506.5 884.083,-506.5"/>
<text text-anchor="start" x="887.083" y="-514.3" font-family="mono" font-size="14.00" fill="#c83500">instance</text>
<text text-anchor="start" x="954.083" y="-514.3" font-family="Times,serif" font-size="14.00"> : </text>
<text text-anchor="start" x="966.083" y="-514.3" font-family="mono" font-size="14.00" fill="#c83500">string</text>
<text text-anchor="start" x="1016.08" y="-514.3" font-family="Times,serif" font-size="14.00"> </text>
<text text-anchor="start" x="1020.08" y="-514.3" font-family="Times,serif" font-style="italic" font-size="14.00">(mandatory)</text>
</g>
<!-- Thing&#45;&gt;Versioning -->
<g id="edge12" class="edge"><title>Thing&#45;&gt;Versioning</title>
<path fill="none" stroke="black" d="M765.671,-648.846C824.25,-617.006 889.508,-581.535 933.906,-557.403"/>
<polygon fill="black" stroke="black" points="935.662,-560.433 942.776,-552.582 932.319,-554.283 935.662,-560.433"/>
<text text-anchor="start" x="852.083" y="-605.8" font-family="mono" font-size="14.00" fill="#c83500">version</text>
<text text-anchor="middle" x="931.776" y="-556.382" font-family="Times,serif" font-size="14.00">0..1</text>
</g>
<!-- SecurityScheme -->
<g id="node12" class="node"><title>SecurityScheme</title>
<polygon fill="#f2f2f2" stroke="none" points="1125.08,-516.5 1125.08,-537.5 1247.08,-537.5 1247.08,-516.5 1125.08,-516.5"/>
<polygon fill="none" stroke="#8c8c8c" points="1125.08,-516.5 1125.08,-537.5 1247.08,-537.5 1247.08,-516.5 1125.08,-516.5"/>
<text text-anchor="start" x="1128.08" y="-524.3" font-family="mono" font-weight="bold" font-size="14.00">SecurityScheme</text>
</g>
<!-- Thing&#45;&gt;SecurityScheme -->
<g id="edge9" class="edge"><title>Thing&#45;&gt;SecurityScheme</title>
<path fill="none" stroke="black" d="M765.692,-695.479C863.464,-673.268 997.311,-636.661 1107.08,-584 1125.02,-575.394 1143.31,-562.836 1157.77,-551.842"/>
<polygon fill="black" stroke="black" points="1160.06,-554.493 1165.8,-545.591 1155.76,-548.967 1160.06,-554.493"/>
<text text-anchor="start" x="1059.08" y="-605.8" font-family="mono" font-size="14.00" fill="#c83500">securityDefinitions</text>
<text text-anchor="middle" x="1154.8" y="-549.391" font-family="Times,serif" font-size="14.00">0..1</text>
</g>
<!-- Property&#45;&gt;InteractionPattern -->
<g id="edge20" class="edge"><title>Property&#45;&gt;InteractionPattern</title>
<path fill="none" stroke="black" d="M362.029,-502.247C363.561,-483.156 365.771,-455.613 367.813,-430.165"/>
<polygon fill="white" stroke="black" points="371.304,-430.415 368.615,-420.167 364.327,-429.855 371.304,-430.415"/>
</g>
<!-- Action&#45;&gt;InteractionPattern -->
<g id="edge18" class="edge"><title>Action&#45;&gt;InteractionPattern</title>
<path fill="none" stroke="black" d="M555.202,-491.935C532.145,-480.475 507.097,-467.035 485.083,-453 472.398,-444.913 459.431,-435.685 447.03,-426.312"/>
<polygon fill="white" stroke="black" points="449.038,-423.442 438.97,-420.142 444.783,-429 449.038,-423.442"/>
</g>
<!-- Action&#45;&gt;DataSchema -->
<g id="edge13" class="edge"><title>Action&#45;&gt;DataSchema</title>
<path fill="none" stroke="black" d="M603.619,-491.79C589.717,-471.984 574.289,-445.983 567.083,-420 553.66,-371.605 552.142,-354.948 567.083,-307 579.591,-266.858 609.638,-228.197 631.139,-204.177"/>
<polygon fill="black" stroke="black" points="633.894,-206.351 638.065,-196.612 628.731,-201.624 633.894,-206.351"/>
<text text-anchor="start" x="567.083" y="-359.8" font-family="mono" font-size="14.00" fill="#c83500">input</text>
<text text-anchor="middle" x="649.065" y="-200.412" font-family="Times,serif" font-size="14.00">0..1</text>
</g>
<!-- Action&#45;&gt;DataSchema -->
<g id="edge14" class="edge"><title>Action&#45;&gt;DataSchema</title>
<path fill="none" stroke="black" d="M633.133,-491.894C635.733,-448.634 640.438,-372.322 645.083,-307 647.535,-272.505 650.705,-232.79 652.811,-206.974"/>
<polygon fill="black" stroke="black" points="656.315,-207.07 653.644,-196.817 649.339,-206.498 656.315,-207.07"/>
<text text-anchor="start" x="645.083" y="-359.8" font-family="mono" font-size="14.00" fill="#c83500">output</text>
<text text-anchor="middle" x="664.644" y="-200.617" font-family="Times,serif" font-size="14.00">0..1</text>
</g>
<!-- Event&#45;&gt;InteractionPattern -->
<g id="edge19" class="edge"><title>Event&#45;&gt;InteractionPattern</title>
<path fill="none" stroke="black" d="M816.763,-509.244C809.79,-496.664 798.636,-480.261 784.083,-471 778.034,-467.151 537.995,-421.901 531.083,-420 514.913,-415.554 498.009,-410.293 481.523,-404.812"/>
<polygon fill="white" stroke="black" points="482.466,-401.437 471.872,-401.563 480.233,-408.071 482.466,-401.437"/>
</g>
<!-- Event&#45;&gt;DataSchema -->
<g id="edge15" class="edge"><title>Event&#45;&gt;DataSchema</title>
<path fill="none" stroke="black" d="M837.37,-509.308C854.931,-484.332 885.692,-438.933 891.083,-420 904.836,-371.698 906.614,-354.76 891.083,-307 867.755,-235.263 779.462,-203.262 717.756,-189.432"/>
<polygon fill="black" stroke="black" points="718.224,-185.953 707.714,-187.288 716.762,-192.799 718.224,-185.953"/>
<text text-anchor="start" x="902.083" y="-359.8" font-family="mono" font-size="14.00" fill="#c83500">subscription</text>
<text text-anchor="middle" x="718.714" y="-191.088" font-family="Times,serif" font-size="14.00">0..1</text>
</g>
<!-- Event&#45;&gt;DataSchema -->
<g id="edge16" class="edge"><title>Event&#45;&gt;DataSchema</title>
<path fill="none" stroke="black" d="M813.587,-509.419C805.73,-498.142 794.831,-483.244 784.083,-471 762.516,-446.433 748.318,-447.777 731.083,-420 730.351,-418.821 683.124,-268.708 663.495,-206.268"/>
<polygon fill="black" stroke="black" points="666.824,-205.186 660.486,-196.696 660.146,-207.285 666.824,-205.186"/>
<text text-anchor="start" x="731.083" y="-359.8" font-family="mono" font-size="14.00" fill="#c83500">cancellation</text>
<text text-anchor="middle" x="671.486" y="-200.496" font-family="Times,serif" font-size="14.00">0..1</text>
</g>
<!-- Event&#45;&gt;DataSchema -->
<g id="edge17" class="edge"><title>Event&#45;&gt;DataSchema</title>
<path fill="none" stroke="black" d="M830.794,-509.334C842.585,-470.683 865.743,-374.91 831.083,-307 805.329,-256.542 749.243,-221.413 707.264,-200.989"/>
<polygon fill="black" stroke="black" points="708.537,-197.72 698,-196.607 705.543,-204.047 708.537,-197.72"/>
<text text-anchor="start" x="850.083" y="-359.8" font-family="mono" font-size="14.00" fill="#c83500">data</text>
<text text-anchor="middle" x="709" y="-200.407" font-family="Times,serif" font-size="14.00">0..1</text>
</g>
</g>
</svg>
