<?xml version="1.0" encoding="UTF-8" standalone="no"?>
<!DOCTYPE svg PUBLIC "-//W3C//DTD SVG 1.1//EN"
 "http://www.w3.org/Graphics/SVG/1.1/DTD/svg11.dtd">
<!-- Generated by graphviz version 2.38.0 (20140413.2041)
 -->
<!-- Title: %3 Pages: 1 -->
<svg width="1289pt" height="819pt"
 viewBox="0.00 0.00 1289.00 819.00" xmlns="http://www.w3.org/2000/svg" xmlns:xlink="http://www.w3.org/1999/xlink">
<g id="graph0" class="graph" transform="scale(1 1) rotate(0) translate(4 815)">
<title>%3</title>
<polygon fill="white" stroke="none" points="-4,4 -4,-815 1285,-815 1285,4 -4,4"/>
<!-- MultiLanguage -->
<g id="node1" class="node"><title>MultiLanguage</title>
<polygon fill="#8ccbf2" stroke="none" points="8,-167.5 8,-188.5 122,-188.5 122,-167.5 8,-167.5"/>
<polygon fill="none" stroke="#8ccbf2" points="8,-167.5 8,-188.5 122,-188.5 122,-167.5 8,-167.5"/>
<text text-anchor="start" x="11" y="-175.3" font-family="mono" font-weight="bold" font-size="14.00" fill="#c83500">MultiLanguage</text>
</g>
<!-- Form -->
<g id="node2" class="node"><title>Form</title>
<polygon fill="#8ccbf2" stroke="none" points="167,-230.5 167,-251.5 398,-251.5 398,-230.5 167,-230.5"/>
<polygon fill="none" stroke="#8ccbf2" points="167,-230.5 167,-251.5 398,-251.5 398,-230.5 167,-230.5"/>
<text text-anchor="start" x="265.5" y="-238.3" font-family="mono" font-weight="bold" font-size="14.00" fill="#c83500">Form</text>
<polygon fill="#ddeeff" stroke="none" points="167,-209.5 167,-230.5 398,-230.5 398,-209.5 167,-209.5"/>
<polygon fill="none" stroke="#8ccbf2" points="167,-209.5 167,-230.5 398,-230.5 398,-209.5 167,-209.5"/>
<text text-anchor="start" x="170" y="-217.3" font-family="mono" font-size="14.00" fill="#c83500">subprotocol</text>
<text text-anchor="start" x="261" y="-217.3" font-family="Times,serif" font-size="14.00"> : </text>
<text text-anchor="start" x="273" y="-217.3" font-family="mono" font-size="14.00" fill="#c83500">string</text>
<polygon fill="#ddeeff" stroke="none" points="167,-188.5 167,-209.5 398,-209.5 398,-188.5 167,-188.5"/>
<polygon fill="none" stroke="#8ccbf2" points="167,-188.5 167,-209.5 398,-209.5 398,-188.5 167,-188.5"/>
<text text-anchor="start" x="170" y="-196.3" font-family="mono" font-size="14.00" fill="#c83500">op</text>
<text text-anchor="start" x="187" y="-196.3" font-family="Times,serif" font-size="14.00"> : (array of) </text>
<text text-anchor="start" x="254" y="-196.3" font-family="mono" font-size="14.00" fill="#c83500">string</text>
<text text-anchor="start" x="304" y="-196.3" font-family="Times,serif" font-size="14.00"> </text>
<text text-anchor="start" x="308" y="-196.3" font-family="Times,serif" font-style="italic" font-size="14.00">(mandatory)</text>
<polygon fill="#ddeeff" stroke="none" points="167,-167.5 167,-188.5 398,-188.5 398,-167.5 167,-167.5"/>
<polygon fill="none" stroke="#8ccbf2" points="167,-167.5 167,-188.5 398,-188.5 398,-167.5 167,-167.5"/>
<text text-anchor="start" x="170" y="-175.3" font-family="mono" font-size="14.00" fill="#c83500">href</text>
<text text-anchor="start" x="204" y="-175.3" font-family="Times,serif" font-size="14.00"> : </text>
<text text-anchor="start" x="216" y="-175.3" font-family="mono" font-size="14.00" fill="#c83500">anyURI</text>
<text text-anchor="start" x="266" y="-175.3" font-family="Times,serif" font-size="14.00"> </text>
<text text-anchor="start" x="270" y="-175.3" font-family="Times,serif" font-style="italic" font-size="14.00">(mandatory)</text>
<polygon fill="#ddeeff" stroke="none" points="167,-146.5 167,-167.5 398,-167.5 398,-146.5 167,-146.5"/>
<polygon fill="none" stroke="#8ccbf2" points="167,-146.5 167,-167.5 398,-167.5 398,-146.5 167,-146.5"/>
<text text-anchor="start" x="170" y="-154.3" font-family="mono" font-size="14.00" fill="#c83500">contentType</text>
<text text-anchor="start" x="261" y="-154.3" font-family="Times,serif" font-size="14.00"> : </text>
<text text-anchor="start" x="273" y="-154.3" font-family="mono" font-size="14.00" fill="#c83500">string</text>
<text text-anchor="start" x="323" y="-154.3" font-family="Times,serif" font-size="14.00"> </text>
<text text-anchor="start" x="327" y="-154.3" font-family="Times,serif" font-style="italic" font-size="14.00">(mandatory)</text>
<polygon fill="#ddeeff" stroke="none" points="167,-125.5 167,-146.5 398,-146.5 398,-125.5 167,-125.5"/>
<polygon fill="none" stroke="#8ccbf2" points="167,-125.5 167,-146.5 398,-146.5 398,-125.5 167,-125.5"/>
<text text-anchor="start" x="170" y="-133.3" font-family="mono" font-size="14.00" fill="#c83500">scopes</text>
<text text-anchor="start" x="220" y="-133.3" font-family="Times,serif" font-size="14.00"> : array of </text>
<text text-anchor="start" x="278" y="-133.3" font-family="mono" font-size="14.00" fill="#c83500">string</text>
<polygon fill="#ddeeff" stroke="none" points="167,-104.5 167,-125.5 398,-125.5 398,-104.5 167,-104.5"/>
<polygon fill="none" stroke="#8ccbf2" points="167,-104.5 167,-125.5 398,-125.5 398,-104.5 167,-104.5"/>
<text text-anchor="start" x="170" y="-112.3" font-family="mono" font-size="14.00" fill="#c83500">security</text>
<text text-anchor="start" x="237" y="-112.3" font-family="Times,serif" font-size="14.00"> : array of </text>
<text text-anchor="start" x="295" y="-112.3" font-family="mono" font-size="14.00" fill="#c83500">string</text>
</g>
<!-- ExpectedResponse -->
<g id="node5" class="node"><title>ExpectedResponse</title>
<polygon fill="#8ccbf2" stroke="none" points="167,-25 167,-46 398,-46 398,-25 167,-25"/>
<polygon fill="none" stroke="#8ccbf2" points="167,-25 167,-46 398,-46 398,-25 167,-25"/>
<text text-anchor="start" x="216" y="-32.8" font-family="mono" font-weight="bold" font-size="14.00" fill="#c83500">ExpectedResponse</text>
<polygon fill="#ddeeff" stroke="none" points="167,-4 167,-25 398,-25 398,-4 167,-4"/>
<polygon fill="none" stroke="#8ccbf2" points="167,-4 167,-25 398,-25 398,-4 167,-4"/>
<text text-anchor="start" x="170" y="-11.8" font-family="mono" font-size="14.00" fill="#c83500">contentType</text>
<text text-anchor="start" x="261" y="-11.8" font-family="Times,serif" font-size="14.00"> : </text>
<text text-anchor="start" x="273" y="-11.8" font-family="mono" font-size="14.00" fill="#c83500">string</text>
<text text-anchor="start" x="323" y="-11.8" font-family="Times,serif" font-size="14.00"> </text>
<text text-anchor="start" x="327" y="-11.8" font-family="Times,serif" font-style="italic" font-size="14.00">(mandatory)</text>
</g>
<!-- Form&#45;&gt;ExpectedResponse -->
<g id="edge1" class="edge"><title>Form&#45;&gt;ExpectedResponse</title>
<path fill="none" stroke="black" d="M282,-100.862C282,-86.5577 282,-72.2953 282,-60.116"/>
<polygon fill="black" stroke="black" points="285.5,-60.0004 282,-50.0004 278.5,-60.0004 285.5,-60.0004"/>
<text text-anchor="start" x="282" y="-71.8" font-family="mono" font-size="14.00" fill="#c83500">response</text>
<text text-anchor="middle" x="271" y="-53.8004" font-family="Times,serif" font-size="14.00">0..1</text>
</g>
<!-- Thing -->
<g id="node3" class="node"><title>Thing</title>
<polygon fill="#8ccbf2" stroke="none" points="504,-786 504,-807 757,-807 757,-786 504,-786"/>
<polygon fill="none" stroke="#8ccbf2" points="504,-786 504,-807 757,-807 757,-786 504,-786"/>
<text text-anchor="start" x="609.5" y="-793.8" font-family="mono" font-weight="bold" font-size="14.00" fill="#c83500">Thing</text>
<polygon fill="#ddeeff" stroke="none" points="504,-765 504,-786 757,-786 757,-765 504,-765"/>
<polygon fill="none" stroke="#8ccbf2" points="504,-765 504,-786 757,-786 757,-765 504,-765"/>
<text text-anchor="start" x="507" y="-772.8" font-family="mono" font-size="14.00" fill="#c83500">@context</text>
<text text-anchor="start" x="574" y="-772.8" font-family="Times,serif" font-size="14.00"> : </text>
<text text-anchor="start" x="586" y="-772.8" font-family="Times,serif" font-style="italic" font-size="14.00">array</text>
<text text-anchor="start" x="617" y="-772.8" font-family="Times,serif" font-size="14.00"> </text>
<text text-anchor="start" x="621" y="-772.8" font-family="Times,serif" font-style="italic" font-size="14.00">(mandatory)</text>
<polygon fill="#ddeeff" stroke="none" points="504,-744 504,-765 757,-765 757,-744 504,-744"/>
<polygon fill="none" stroke="#8ccbf2" points="504,-744 504,-765 757,-765 757,-744 504,-744"/>
<text text-anchor="start" x="507" y="-751.8" font-family="mono" font-size="14.00" fill="#c83500">@type</text>
<text text-anchor="start" x="549" y="-751.8" font-family="Times,serif" font-size="14.00"> : </text>
<text text-anchor="start" x="561" y="-751.8" font-family="Times,serif" font-style="italic" font-size="14.00">array of </text>
<text text-anchor="start" x="610" y="-751.8" font-family="mono" font-size="14.00" fill="#c83500">string</text>
<polygon fill="#ddeeff" stroke="none" points="504,-723 504,-744 757,-744 757,-723 504,-723"/>
<polygon fill="none" stroke="#8ccbf2" points="504,-723 504,-744 757,-744 757,-723 504,-723"/>
<text text-anchor="start" x="507" y="-730.8" font-family="mono" font-size="14.00" fill="#c83500">id</text>
<text text-anchor="start" x="524" y="-730.8" font-family="Times,serif" font-size="14.00"> : </text>
<text text-anchor="start" x="536" y="-730.8" font-family="mono" font-size="14.00" fill="#c83500">anyURI</text>
<text text-anchor="start" x="586" y="-730.8" font-family="Times,serif" font-size="14.00"> </text>
<text text-anchor="start" x="590" y="-730.8" font-family="Times,serif" font-style="italic" font-size="14.00">(mandatory)</text>
<polygon fill="#ddeeff" stroke="none" points="504,-702 504,-723 757,-723 757,-702 504,-702"/>
<polygon fill="none" stroke="#8ccbf2" points="504,-702 504,-723 757,-723 757,-702 504,-702"/>
<text text-anchor="start" x="507" y="-709.8" font-family="mono" font-size="14.00" fill="#c83500">security</text>
<text text-anchor="start" x="574" y="-709.8" font-family="Times,serif" font-size="14.00"> : array of </text>
<text text-anchor="start" x="632" y="-709.8" font-family="mono" font-size="14.00" fill="#c83500">string</text>
<text text-anchor="start" x="682" y="-709.8" font-family="Times,serif" font-size="14.00"> </text>
<text text-anchor="start" x="686" y="-709.8" font-family="Times,serif" font-style="italic" font-size="14.00">(mandatory)</text>
<polygon fill="#ddeeff" stroke="none" points="504,-681 504,-702 757,-702 757,-681 504,-681"/>
<polygon fill="none" stroke="#8ccbf2" points="504,-681 504,-702 757,-702 757,-681 504,-681"/>
<text text-anchor="start" x="507" y="-688.8" font-family="mono" font-size="14.00" fill="#c83500">name</text>
<text text-anchor="start" x="541" y="-688.8" font-family="Times,serif" font-size="14.00"> : </text>
<text text-anchor="start" x="553" y="-688.8" font-family="mono" font-size="14.00" fill="#c83500">string</text>
<text text-anchor="start" x="603" y="-688.8" font-family="Times,serif" font-size="14.00"> </text>
<text text-anchor="start" x="607" y="-688.8" font-family="Times,serif" font-style="italic" font-size="14.00">(mandatory)</text>
<polygon fill="#ddeeff" stroke="none" points="504,-660 504,-681 757,-681 757,-660 504,-660"/>
<polygon fill="none" stroke="#8ccbf2" points="504,-660 504,-681 757,-681 757,-660 504,-660"/>
<text text-anchor="start" x="507" y="-667.8" font-family="mono" font-size="14.00" fill="#c83500">names</text>
<text text-anchor="start" x="549" y="-667.8" font-family="Times,serif" font-size="14.00"> : </text>
<text text-anchor="start" x="561" y="-667.8" font-family="mono" font-size="14.00" fill="#c83500">string</text>
<text text-anchor="start" x="611" y="-667.8" font-family="Times,serif" font-size="14.00"> </text>
<text text-anchor="start" x="615" y="-667.8" font-family="Times,serif" font-style="italic" font-size="14.00">(mandatory)</text>
<polygon fill="#ddeeff" stroke="none" points="504,-639 504,-660 757,-660 757,-639 504,-639"/>
<polygon fill="none" stroke="#8ccbf2" points="504,-639 504,-660 757,-660 757,-639 504,-639"/>
<text text-anchor="start" x="507" y="-646.8" font-family="mono" font-size="14.00" fill="#c83500">created</text>
<text text-anchor="start" x="565" y="-646.8" font-family="Times,serif" font-size="14.00"> : </text>
<text text-anchor="start" x="577" y="-646.8" font-family="mono" font-size="14.00" fill="#c83500">string</text>
<polygon fill="#ddeeff" stroke="none" points="504,-618 504,-639 757,-639 757,-618 504,-618"/>
<polygon fill="none" stroke="#8ccbf2" points="504,-618 504,-639 757,-639 757,-618 504,-618"/>
<text text-anchor="start" x="507" y="-625.8" font-family="mono" font-size="14.00" fill="#c83500">support</text>
<text text-anchor="start" x="565" y="-625.8" font-family="Times,serif" font-size="14.00"> : </text>
<text text-anchor="start" x="577" y="-625.8" font-family="mono" font-size="14.00" fill="#c83500">string</text>
<polygon fill="#ddeeff" stroke="none" points="504,-597 504,-618 757,-618 757,-597 504,-597"/>
<polygon fill="none" stroke="#8ccbf2" points="504,-597 504,-618 757,-618 757,-597 504,-597"/>
<text text-anchor="start" x="507" y="-604.8" font-family="mono" font-size="14.00" fill="#c83500">base</text>
<text text-anchor="start" x="541" y="-604.8" font-family="Times,serif" font-size="14.00"> : </text>
<text text-anchor="start" x="553" y="-604.8" font-family="mono" font-size="14.00" fill="#c83500">anyURI</text>
<polygon fill="#ddeeff" stroke="none" points="504,-576 504,-597 757,-597 757,-576 504,-576"/>
<polygon fill="none" stroke="#8ccbf2" points="504,-576 504,-597 757,-597 757,-576 504,-576"/>
<text text-anchor="start" x="507" y="-583.8" font-family="mono" font-size="14.00" fill="#c83500">description</text>
<text text-anchor="start" x="598" y="-583.8" font-family="Times,serif" font-size="14.00"> : </text>
<text text-anchor="start" x="610" y="-583.8" font-family="mono" font-size="14.00" fill="#c83500">string</text>
<polygon fill="#ddeeff" stroke="none" points="504,-555 504,-576 757,-576 757,-555 504,-555"/>
<polygon fill="none" stroke="#8ccbf2" points="504,-555 504,-576 757,-576 757,-555 504,-555"/>
<text text-anchor="start" x="507" y="-562.8" font-family="mono" font-size="14.00" fill="#c83500">lastModified</text>
<text text-anchor="start" x="607" y="-562.8" font-family="Times,serif" font-size="14.00"> : </text>
<text text-anchor="start" x="619" y="-562.8" font-family="mono" font-size="14.00" fill="#c83500">string</text>
</g>
<!-- Thing&#45;&gt;MultiLanguage -->
<g id="edge6" class="edge"><title>Thing&#45;&gt;MultiLanguage</title>
<path fill="none" stroke="black" d="M495.379,-665.165C351.072,-640.786 132.403,-576.944 56,-411 24.6987,-343.015 43.6574,-251.549 56.3481,-206.659"/>
<polygon fill="black" stroke="black" points="59.7849,-207.378 59.2504,-196.796 53.0696,-205.402 59.7849,-207.378"/>
<text text-anchor="start" x="56" y="-399.8" font-family="mono" font-size="14.00" fill="#c83500">descriptions</text>
<text text-anchor="middle" x="48.2504" y="-200.596" font-family="Times,serif" font-size="14.00">0..1</text>
</g>
<!-- Thing&#45;&gt;Form -->
<g id="edge2" class="edge"><title>Thing&#45;&gt;Form</title>
<path fill="none" stroke="black" d="M495.367,-663.541C394.405,-643.386 262.611,-598.723 196,-500 139.818,-416.733 157.218,-367.472 194,-274 195.211,-270.923 196.574,-267.887 198.069,-264.897"/>
<polygon fill="black" stroke="black" points="201.17,-266.521 202.923,-256.072 195.037,-263.147 201.17,-266.521"/>
<text text-anchor="start" x="161" y="-399.8" font-family="mono" font-size="14.00" fill="#c83500">forms</text>
<text text-anchor="middle" x="191.923" y="-259.872" font-family="Times,serif" font-size="14.00">0..*</text>
</g>
<!-- PropertyAffordance -->
<g id="node4" class="node"><title>PropertyAffordance</title>
<polygon fill="#8ccbf2" stroke="none" points="214,-464.5 214,-485.5 373,-485.5 373,-464.5 214,-464.5"/>
<polygon fill="none" stroke="#8ccbf2" points="214,-464.5 214,-485.5 373,-485.5 373,-464.5 214,-464.5"/>
<text text-anchor="start" x="219" y="-472.3" font-family="mono" font-weight="bold" font-size="14.00" fill="#c83500">PropertyAffordance</text>
<polygon fill="#ddeeff" stroke="none" points="214,-443.5 214,-464.5 373,-464.5 373,-443.5 214,-443.5"/>
<polygon fill="none" stroke="#8ccbf2" points="214,-443.5 214,-464.5 373,-464.5 373,-443.5 214,-443.5"/>
<text text-anchor="start" x="217" y="-451.3" font-family="mono" font-size="14.00" fill="#c83500">observable</text>
<text text-anchor="start" x="300" y="-451.3" font-family="Times,serif" font-size="14.00"> : </text>
<text text-anchor="start" x="312" y="-451.3" font-family="mono" font-size="14.00" fill="#c83500">boolean</text>
</g>
<!-- Thing&#45;&gt;PropertyAffordance -->
<g id="edge4" class="edge"><title>Thing&#45;&gt;PropertyAffordance</title>
<path fill="none" stroke="black" d="M495.356,-594.299C440.016,-559.075 379.594,-520.617 339.317,-494.981"/>
<polygon fill="black" stroke="black" points="341.102,-491.968 330.787,-489.551 337.343,-497.873 341.102,-491.968"/>
<text text-anchor="start" x="393" y="-521.8" font-family="mono" font-size="14.00" fill="#c83500">properties</text>
<text text-anchor="middle" x="319.787" y="-493.351" font-family="Times,serif" font-size="14.00">0..1</text>
</g>
<!-- VersionInfo -->
<g id="node6" class="node"><title>VersionInfo</title>
<polygon fill="#8ccbf2" stroke="none" points="837,-464.5 837,-485.5 1044,-485.5 1044,-464.5 837,-464.5"/>
<polygon fill="none" stroke="#8ccbf2" points="837,-464.5 837,-485.5 1044,-485.5 1044,-464.5 837,-464.5"/>
<text text-anchor="start" x="895" y="-472.3" font-family="mono" font-weight="bold" font-size="14.00" fill="#c83500">VersionInfo</text>
<polygon fill="#ddeeff" stroke="none" points="837,-443.5 837,-464.5 1044,-464.5 1044,-443.5 837,-443.5"/>
<polygon fill="none" stroke="#8ccbf2" points="837,-443.5 837,-464.5 1044,-464.5 1044,-443.5 837,-443.5"/>
<text text-anchor="start" x="840" y="-451.3" font-family="mono" font-size="14.00" fill="#c83500">instance</text>
<text text-anchor="start" x="907" y="-451.3" font-family="Times,serif" font-size="14.00"> : </text>
<text text-anchor="start" x="919" y="-451.3" font-family="mono" font-size="14.00" fill="#c83500">string</text>
<text text-anchor="start" x="969" y="-451.3" font-family="Times,serif" font-size="14.00"> </text>
<text text-anchor="start" x="973" y="-451.3" font-family="Times,serif" font-style="italic" font-size="14.00">(mandatory)</text>
</g>
<!-- Thing&#45;&gt;VersionInfo -->
<g id="edge8" class="edge"><title>Thing&#45;&gt;VersionInfo</title>
<path fill="none" stroke="black" d="M764.618,-586.853C812.218,-553.917 862.428,-519.175 896.868,-495.344"/>
<polygon fill="black" stroke="black" points="899.042,-498.097 905.274,-489.528 895.059,-492.34 899.042,-498.097"/>
<text text-anchor="start" x="857" y="-521.8" font-family="mono" font-size="14.00" fill="#c83500">version</text>
<text text-anchor="middle" x="894.274" y="-493.328" font-family="Times,serif" font-size="14.00">0..1</text>
</g>
<!-- ActionAffordance -->
<g id="node7" class="node"><title>ActionAffordance</title>
<polygon fill="#8ccbf2" stroke="none" points="407,-474.5 407,-495.5 638,-495.5 638,-474.5 407,-474.5"/>
<polygon fill="none" stroke="#8ccbf2" points="407,-474.5 407,-495.5 638,-495.5 638,-474.5 407,-474.5"/>
<text text-anchor="start" x="456" y="-482.3" font-family="mono" font-weight="bold" font-size="14.00" fill="#c83500">ActionAffordance</text>
<polygon fill="#ddeeff" stroke="none" points="407,-453.5 407,-474.5 638,-474.5 638,-453.5 407,-453.5"/>
<polygon fill="none" stroke="#8ccbf2" points="407,-453.5 407,-474.5 638,-474.5 638,-453.5 407,-453.5"/>
<text text-anchor="start" x="410" y="-461.3" font-family="mono" font-size="14.00" fill="#c83500">idempotent</text>
<text text-anchor="start" x="493" y="-461.3" font-family="Times,serif" font-size="14.00"> : </text>
<text text-anchor="start" x="505" y="-461.3" font-family="mono" font-size="14.00" fill="#c83500">boolean</text>
<text text-anchor="start" x="563" y="-461.3" font-family="Times,serif" font-size="14.00"> </text>
<text text-anchor="start" x="567" y="-461.3" font-family="Times,serif" font-style="italic" font-size="14.00">(mandatory)</text>
<polygon fill="#ddeeff" stroke="none" points="407,-432.5 407,-453.5 638,-453.5 638,-432.5 407,-432.5"/>
<polygon fill="none" stroke="#8ccbf2" points="407,-432.5 407,-453.5 638,-453.5 638,-432.5 407,-432.5"/>
<text text-anchor="start" x="410" y="-440.3" font-family="mono" font-size="14.00" fill="#c83500">safe</text>
<text text-anchor="start" x="444" y="-440.3" font-family="Times,serif" font-size="14.00"> : </text>
<text text-anchor="start" x="456" y="-440.3" font-family="mono" font-size="14.00" fill="#c83500">boolean</text>
<text text-anchor="start" x="514" y="-440.3" font-family="Times,serif" font-size="14.00"> </text>
<text text-anchor="start" x="518" y="-440.3" font-family="Times,serif" font-style="italic" font-size="14.00">(mandatory)</text>
</g>
<!-- Thing&#45;&gt;ActionAffordance -->
<g id="edge3" class="edge"><title>Thing&#45;&gt;ActionAffordance</title>
<path fill="none" stroke="black" d="M564.995,-550.892C557.519,-536.045 550.337,-521.78 544.055,-509.304"/>
<polygon fill="black" stroke="black" points="547.061,-507.49 539.437,-500.133 540.808,-510.638 547.061,-507.49"/>
<text text-anchor="start" x="554" y="-521.8" font-family="mono" font-size="14.00" fill="#c83500">actions</text>
<text text-anchor="middle" x="528.437" y="-503.933" font-family="Times,serif" font-size="14.00">0..1</text>
</g>
<!-- EventAffordance -->
<g id="node9" class="node"><title>EventAffordance</title>
<polygon fill="#8ccbf2" stroke="none" points="672,-453.5 672,-474.5 802,-474.5 802,-453.5 672,-453.5"/>
<polygon fill="none" stroke="#8ccbf2" points="672,-453.5 672,-474.5 802,-474.5 802,-453.5 672,-453.5"/>
<text text-anchor="start" x="675" y="-461.3" font-family="mono" font-weight="bold" font-size="14.00" fill="#c83500">EventAffordance</text>
</g>
<!-- Thing&#45;&gt;EventAffordance -->
<g id="edge9" class="edge"><title>Thing&#45;&gt;EventAffordance</title>
<path fill="none" stroke="black" d="M694.403,-550.892C705.619,-528.408 716.167,-507.263 723.961,-491.639"/>
<polygon fill="black" stroke="black" points="727.107,-493.172 728.439,-482.661 720.844,-490.047 727.107,-493.172"/>
<text text-anchor="start" x="709" y="-521.8" font-family="mono" font-size="14.00" fill="#c83500">events</text>
<text text-anchor="middle" x="717.439" y="-486.461" font-family="Times,serif" font-size="14.00">0..1</text>
</g>
<!-- Link -->
<g id="node10" class="node"><title>Link</title>
<polygon fill="#f2f2f2" stroke="none" points="1077,-453.5 1077,-474.5 1117,-474.5 1117,-453.5 1077,-453.5"/>
<polygon fill="none" stroke="#8c8c8c" points="1077,-453.5 1077,-474.5 1117,-474.5 1117,-453.5 1077,-453.5"/>
<text text-anchor="start" x="1080" y="-461.3" font-family="mono" font-weight="bold" font-size="14.00">Link</text>
</g>
<!-- Thing&#45;&gt;Link -->
<g id="edge5" class="edge"><title>Thing&#45;&gt;Link</title>
<path fill="none" stroke="black" d="M764.896,-637.445C852.813,-606.435 967.882,-559.493 1060,-500 1064.7,-496.962 1069.36,-493.298 1073.7,-489.508"/>
<polygon fill="black" stroke="black" points="1076.14,-492.015 1081.11,-482.657 1071.39,-486.874 1076.14,-492.015"/>
<text text-anchor="start" x="1028" y="-521.8" font-family="mono" font-size="14.00" fill="#c83500">links</text>
<text text-anchor="middle" x="1070.11" y="-486.457" font-family="Times,serif" font-size="14.00">0..*</text>
</g>
<!-- SecurityScheme -->
<g id="node11" class="node"><title>SecurityScheme</title>
<polygon fill="#f2f2f2" stroke="none" points="1151,-453.5 1151,-474.5 1273,-474.5 1273,-453.5 1151,-453.5"/>
<polygon fill="none" stroke="#8c8c8c" points="1151,-453.5 1151,-474.5 1273,-474.5 1273,-453.5 1151,-453.5"/>
<text text-anchor="start" x="1154" y="-461.3" font-family="mono" font-weight="bold" font-size="14.00">SecurityScheme</text>
</g>
<!-- Thing&#45;&gt;SecurityScheme -->
<g id="edge7" class="edge"><title>Thing&#45;&gt;SecurityScheme</title>
<path fill="none" stroke="black" d="M764.797,-640.575C853.707,-613.304 972.126,-574.557 1074,-533 1107.36,-519.393 1143.93,-501.353 1171.04,-487.347"/>
<polygon fill="black" stroke="black" points="1172.96,-490.294 1180.22,-482.574 1169.73,-484.084 1172.96,-490.294"/>
<text text-anchor="start" x="1105" y="-521.8" font-family="mono" font-size="14.00" fill="#c83500">securityDefinitions</text>
<text text-anchor="middle" x="1169.22" y="-486.374" font-family="Times,serif" font-size="14.00">1..1</text>
</g>
<!-- InteractionAffordance -->
<g id="node8" class="node"><title>InteractionAffordance</title>
<polygon fill="#8ccbf2" stroke="none" points="213,-352.5 213,-373.5 393,-373.5 393,-352.5 213,-352.5"/>
<polygon fill="none" stroke="#8ccbf2" points="213,-352.5 213,-373.5 393,-373.5 393,-352.5 213,-352.5"/>
<text text-anchor="start" x="216" y="-360.3" font-family="mono" font-weight="bold" font-size="14.00" fill="#c83500">InteractionAffordance</text>
<polygon fill="#ddeeff" stroke="none" points="213,-331.5 213,-352.5 393,-352.5 393,-331.5 213,-331.5"/>
<polygon fill="none" stroke="#8ccbf2" points="213,-331.5 213,-352.5 393,-352.5 393,-331.5 213,-331.5"/>
<text text-anchor="start" x="216" y="-339.3" font-family="mono" font-size="14.00" fill="#c83500">title</text>
<text text-anchor="start" x="258" y="-339.3" font-family="Times,serif" font-size="14.00"> : </text>
<text text-anchor="start" x="270" y="-339.3" font-family="mono" font-size="14.00" fill="#c83500">string</text>
<polygon fill="#ddeeff" stroke="none" points="213,-310.5 213,-331.5 393,-331.5 393,-310.5 213,-310.5"/>
<polygon fill="none" stroke="#8ccbf2" points="213,-310.5 213,-331.5 393,-331.5 393,-310.5 213,-310.5"/>
<text text-anchor="start" x="216" y="-318.3" font-family="mono" font-size="14.00" fill="#c83500">description</text>
<text text-anchor="start" x="307" y="-318.3" font-family="Times,serif" font-size="14.00"> : </text>
<text text-anchor="start" x="319" y="-318.3" font-family="mono" font-size="14.00" fill="#c83500">string</text>
</g>
<!-- PropertyAffordance&#45;&gt;InteractionAffordance -->
<g id="edge21" class="edge"><title>PropertyAffordance&#45;&gt;InteractionAffordance</title>
<path fill="none" stroke="black" d="M295.024,-439.216C296.234,-424.697 297.809,-405.792 299.24,-388.621"/>
<polygon fill="white" stroke="black" points="302.765,-388.465 300.108,-378.209 295.789,-387.884 302.765,-388.465"/>
</g>
<!-- ActionAffordance&#45;&gt;InteractionAffordance -->
<g id="edge19" class="edge"><title>ActionAffordance&#45;&gt;InteractionAffordance</title>
<path fill="none" stroke="black" d="M458.95,-428.952C432.725,-414.582 402.137,-397.822 375.031,-382.969"/>
<polygon fill="white" stroke="black" points="376.436,-379.748 365.984,-378.012 373.072,-385.887 376.436,-379.748"/>
</g>
<!-- DataSchema -->
<g id="node12" class="node"><title>DataSchema</title>
<polygon fill="#f2f2f2" stroke="none" points="572,-167.5 572,-188.5 661,-188.5 661,-167.5 572,-167.5"/>
<polygon fill="none" stroke="#8c8c8c" points="572,-167.5 572,-188.5 661,-188.5 661,-167.5 572,-167.5"/>
<text text-anchor="start" x="575" y="-175.3" font-family="mono" font-weight="bold" font-size="14.00">DataSchema</text>
</g>
<!-- ActionAffordance&#45;&gt;DataSchema -->
<g id="edge10" class="edge"><title>ActionAffordance&#45;&gt;DataSchema</title>
<path fill="none" stroke="black" d="M533.432,-428.96C552.383,-371.705 589.912,-258.319 607.067,-206.49"/>
<polygon fill="black" stroke="black" points="610.49,-207.286 610.309,-196.693 603.844,-205.087 610.49,-207.286"/>
<text text-anchor="start" x="574" y="-338.8" font-family="mono" font-size="14.00" fill="#c83500">output</text>
<text text-anchor="middle" x="599.309" y="-200.493" font-family="Times,serif" font-size="14.00">0..1</text>
</g>
<!-- ActionAffordance&#45;&gt;DataSchema -->
<g id="edge11" class="edge"><title>ActionAffordance&#45;&gt;DataSchema</title>
<path fill="none" stroke="black" d="M509.403,-428.794C499.636,-396.309 490.054,-346.929 505,-307 520.944,-264.405 558.26,-226.658 585.23,-203.498"/>
<polygon fill="black" stroke="black" points="587.818,-205.896 593.233,-196.789 583.321,-200.531 587.818,-205.896"/>
<text text-anchor="start" x="505" y="-338.8" font-family="mono" font-size="14.00" fill="#c83500">input</text>
<text text-anchor="middle" x="582.233" y="-200.589" font-family="Times,serif" font-size="14.00">0..1</text>
</g>
<!-- InteractionAffordance&#45;&gt;MultiLanguage -->
<g id="edge14" class="edge"><title>InteractionAffordance&#45;&gt;MultiLanguage</title>
<path fill="none" stroke="black" d="M204.992,-326.258C159.591,-317.329 112.144,-304.706 96,-289 73.9186,-267.518 67.2356,-231.582 65.385,-206.769"/>
<polygon fill="black" stroke="black" points="68.8688,-206.368 64.8466,-196.567 61.8785,-206.737 68.8688,-206.368"/>
<text text-anchor="start" x="96" y="-277.8" font-family="mono" font-size="14.00" fill="#c83500">descriptions</text>
<text text-anchor="middle" x="75.8466" y="-200.367" font-family="Times,serif" font-size="14.00">0..1</text>
</g>
<!-- InteractionAffordance&#45;&gt;MultiLanguage -->
<g id="edge15" class="edge"><title>InteractionAffordance&#45;&gt;MultiLanguage</title>
<path fill="none" stroke="black" d="M252.76,-306.943C235.231,-295.665 215.148,-283.589 196,-274 175.999,-263.984 168.044,-267.734 149,-256 125.91,-241.773 103.391,-220.759 87.4904,-204.354"/>
<polygon fill="black" stroke="black" points="89.6666,-201.563 80.243,-196.721 84.5901,-206.383 89.6666,-201.563"/>
<text text-anchor="start" x="224" y="-277.8" font-family="mono" font-size="14.00" fill="#c83500">titles</text>
<text text-anchor="middle" x="91.243" y="-200.521" font-family="Times,serif" font-size="14.00">0..1</text>
</g>
<!-- InteractionAffordance&#45;&gt;Form -->
<g id="edge12" class="edge"><title>InteractionAffordance&#45;&gt;Form</title>
<path fill="none" stroke="black" d="M298.495,-306.747C296.928,-294.661 295.094,-280.509 293.228,-266.119"/>
<polygon fill="black" stroke="black" points="296.692,-265.608 291.935,-256.141 289.75,-266.508 296.692,-265.608"/>
<text text-anchor="start" x="296" y="-277.8" font-family="mono" font-size="14.00" fill="#c83500">forms</text>
<text text-anchor="middle" x="280.935" y="-259.941" font-family="Times,serif" font-size="14.00">1..*</text>
</g>
<!-- InteractionAffordance&#45;&gt;DataSchema -->
<g id="edge13" class="edge"><title>InteractionAffordance&#45;&gt;DataSchema</title>
<path fill="none" stroke="black" d="M337.95,-306.896C350.772,-295.421 365.866,-283.234 381,-274 411.803,-255.206 499.69,-221.672 558.813,-200.02"/>
<polygon fill="black" stroke="black" points="560.211,-203.236 568.404,-196.519 557.81,-196.66 560.211,-203.236"/>
<text text-anchor="start" x="381" y="-277.8" font-family="mono" font-size="14.00" fill="#c83500">uriVariables</text>
<text text-anchor="middle" x="557.404" y="-200.319" font-family="Times,serif" font-size="14.00">0..1</text>
</g>
<!-- EventAffordance&#45;&gt;InteractionAffordance -->
<g id="edge20" class="edge"><title>EventAffordance&#45;&gt;InteractionAffordance</title>
<path fill="none" stroke="black" d="M699.452,-446.444C685.376,-440.436 669.127,-433.953 654,-429 574.038,-402.817 481.493,-380.597 411.512,-365.376"/>
<polygon fill="white" stroke="black" points="411.868,-361.872 401.354,-363.181 410.39,-368.714 411.868,-361.872"/>
</g>
<!-- EventAffordance&#45;&gt;DataSchema -->
<g id="edge16" class="edge"><title>EventAffordance&#45;&gt;DataSchema</title>
<path fill="none" stroke="black" d="M721.224,-446.412C706.82,-429.987 685.87,-403.904 673,-378 644.359,-320.35 627.855,-245.929 620.552,-206.617"/>
<polygon fill="black" stroke="black" points="623.988,-205.951 618.773,-196.729 617.099,-207.191 623.988,-205.951"/>
<text text-anchor="start" x="673" y="-338.8" font-family="mono" font-size="14.00" fill="#c83500">data</text>
<text text-anchor="middle" x="629.773" y="-200.529" font-family="Times,serif" font-size="14.00">0..1</text>
</g>
<!-- EventAffordance&#45;&gt;DataSchema -->
<g id="edge17" class="edge"><title>EventAffordance&#45;&gt;DataSchema</title>
<path fill="none" stroke="black" d="M736.108,-446.36C734.057,-416.8 727.476,-354.81 707,-307 690.167,-267.695 659.685,-228.577 638.669,-204.241"/>
<polygon fill="black" stroke="black" points="641.167,-201.781 631.939,-196.576 635.907,-206.4 641.167,-201.781"/>
<text text-anchor="start" x="728" y="-338.8" font-family="mono" font-size="14.00" fill="#c83500">cancellation</text>
<text text-anchor="middle" x="642.939" y="-200.376" font-family="Times,serif" font-size="14.00">0..1</text>
</g>
<!-- EventAffordance&#45;&gt;DataSchema -->
<g id="edge18" class="edge"><title>EventAffordance&#45;&gt;DataSchema</title>
<path fill="none" stroke="black" d="M766.784,-446.404C789.375,-431.565 818.73,-407.797 832,-378 844.838,-349.174 847.646,-334.404 832,-307 799.344,-249.802 729.875,-215.685 678.493,-197.342"/>
<polygon fill="black" stroke="black" points="679.394,-193.95 668.799,-193.99 677.106,-200.566 679.394,-193.95"/>
<text text-anchor="start" x="843" y="-338.8" font-family="mono" font-size="14.00" fill="#c83500">subscription</text>
<text text-anchor="middle" x="679.799" y="-197.79" font-family="Times,serif" font-size="14.00">0..1</text>
</g>
</g>
</svg>
