<?xml version="1.0" encoding="UTF-8" standalone="no"?>
<!DOCTYPE svg PUBLIC "-//W3C//DTD SVG 1.1//EN"
 "http://www.w3.org/Graphics/SVG/1.1/DTD/svg11.dtd">
<!-- Generated by graphviz version 12.2.1 (20241206.2353)
 -->
<!-- Pages: 1 -->
<svg width="1621pt" height="694pt"
 viewBox="0.00 0.00 1621.41 693.50" xmlns="http://www.w3.org/2000/svg" xmlns:xlink="http://www.w3.org/1999/xlink">
<g id="graph0" class="graph" transform="scale(1 1) rotate(0) translate(4 689.5)">
<polygon fill="white" stroke="none" points="-4,4 -4,-689.5 1617.41,-689.5 1617.41,4 -4,4"/>
<!-- ActionAffordance -->
<g id="node1" class="node">
<title>ActionAffordance</title>
<polygon fill="#8ccbf2" stroke="none" points="623.29,-312 623.29,-337.5 789.04,-337.5 789.04,-312 623.29,-312"/>
<polygon fill="none" stroke="#8ccbf2" points="623.29,-312 623.29,-337.5 789.04,-337.5 789.04,-312 623.29,-312"/>
<text text-anchor="start" x="640.17" y="-322.2" font-family="mono" font-weight="bold" font-size="14.00" fill="#c83500">ActionAffordance</text>
<polygon fill="#ddeeff" stroke="none" points="623.29,-286.5 623.29,-312 789.04,-312 789.04,-286.5 623.29,-286.5"/>
<polygon fill="none" stroke="#8ccbf2" points="623.29,-286.5 623.29,-312 789.04,-312 789.04,-286.5 623.29,-286.5"/>
<text text-anchor="start" x="626.29" y="-296.7" font-family="mono" font-size="14.00" fill="#c83500">safe</text>
<text text-anchor="start" x="659.29" y="-296.7" font-family="Times,serif" font-size="14.00"> : </text>
<text text-anchor="start" x="670.54" y="-296.7" font-family="mono" font-size="14.00" fill="#c83500">boolean</text>
<polygon fill="#ddeeff" stroke="none" points="623.29,-261 623.29,-286.5 789.04,-286.5 789.04,-261 623.29,-261"/>
<polygon fill="none" stroke="#8ccbf2" points="623.29,-261 623.29,-286.5 789.04,-286.5 789.04,-261 623.29,-261"/>
<text text-anchor="start" x="626.29" y="-271.2" font-family="mono" font-size="14.00" fill="#c83500">idempotent</text>
<text text-anchor="start" x="708.79" y="-271.2" font-family="Times,serif" font-size="14.00"> : </text>
<text text-anchor="start" x="720.04" y="-271.2" font-family="mono" font-size="14.00" fill="#c83500">boolean</text>
<polygon fill="#ddeeff" stroke="none" points="623.29,-235.5 623.29,-261 789.04,-261 789.04,-235.5 623.29,-235.5"/>
<polygon fill="none" stroke="#8ccbf2" points="623.29,-235.5 623.29,-261 789.04,-261 789.04,-235.5 623.29,-235.5"/>
<text text-anchor="start" x="626.29" y="-245.7" font-family="mono" font-size="14.00" fill="#c83500">synchronous</text>
<text text-anchor="start" x="717.04" y="-245.7" font-family="Times,serif" font-size="14.00"> : </text>
<text text-anchor="start" x="728.29" y="-245.7" font-family="mono" font-size="14.00" fill="#c83500">boolean</text>
</g>
<!-- InteractionAffordance -->
<g id="node3" class="node">
<title>InteractionAffordance</title>
<polygon fill="#8ccbf2" stroke="none" points="854.92,-146.5 854.92,-172 1045.42,-172 1045.42,-146.5 854.92,-146.5"/>
<polygon fill="none" stroke="#8ccbf2" points="854.92,-146.5 854.92,-172 1045.42,-172 1045.42,-146.5 854.92,-146.5"/>
<text text-anchor="start" x="863.54" y="-156.7" font-family="mono" font-weight="bold" font-size="14.00" fill="#c83500">InteractionAffordance</text>
<polygon fill="#ddeeff" stroke="none" points="854.92,-121 854.92,-146.5 1045.42,-146.5 1045.42,-121 854.92,-121"/>
<polygon fill="none" stroke="#8ccbf2" points="854.92,-121 854.92,-146.5 1045.42,-146.5 1045.42,-121 854.92,-121"/>
<text text-anchor="start" x="857.92" y="-131.2" font-family="mono" font-size="14.00" fill="#c83500">title</text>
<text text-anchor="start" x="899.17" y="-131.2" font-family="Times,serif" font-size="14.00"> : </text>
<text text-anchor="start" x="910.42" y="-131.2" font-family="mono" font-size="14.00" fill="#c83500">langString</text>
<polygon fill="#ddeeff" stroke="none" points="854.92,-95.5 854.92,-121 1045.42,-121 1045.42,-95.5 854.92,-95.5"/>
<polygon fill="none" stroke="#8ccbf2" points="854.92,-95.5 854.92,-121 1045.42,-121 1045.42,-95.5 854.92,-95.5"/>
<text text-anchor="start" x="857.92" y="-105.7" font-family="mono" font-size="14.00" fill="#c83500">description</text>
<text text-anchor="start" x="948.67" y="-105.7" font-family="Times,serif" font-size="14.00"> : </text>
<text text-anchor="start" x="959.92" y="-105.7" font-family="mono" font-size="14.00" fill="#c83500">langString</text>
</g>
<!-- ActionAffordance&#45;&gt;InteractionAffordance -->
<g id="edge22" class="edge">
<title>ActionAffordance&#45;&gt;InteractionAffordance</title>
<path fill="none" stroke="black" d="M793.57,-231.5C819.88,-215.25 848.54,-197.54 874.05,-181.78"/>
<polygon fill="white" stroke="black" points="875.71,-184.87 882.38,-176.63 872.03,-178.91 875.71,-184.87"/>
</g>
<!-- DataSchema -->
<g id="node10" class="node">
<title>DataSchema</title>
<polygon fill="#f2f2f2" stroke="none" points="483.92,-5.25 483.92,-30.75 572.42,-30.75 572.42,-5.25 483.92,-5.25"/>
<polygon fill="none" stroke="#8c8c8c" points="483.92,-5.25 483.92,-30.75 572.42,-30.75 572.42,-5.25 483.92,-5.25"/>
<text text-anchor="start" x="486.92" y="-15.45" font-family="mono" font-weight="bold" font-size="14.00">DataSchema</text>
</g>
<!-- ActionAffordance&#45;&gt;DataSchema -->
<g id="edge4" class="edge">
<title>ActionAffordance&#45;&gt;DataSchema</title>
<path fill="none" stroke="black" d="M737.53,-231.74C756.47,-191.95 773.54,-136.99 754.17,-91.5 744.75,-69.38 736.55,-65.01 715.17,-54 676.98,-34.34 629.33,-25.62 591.69,-21.8"/>
<polygon fill="black" stroke="black" points="592.14,-18.33 581.86,-20.91 591.5,-25.3 592.14,-18.33"/>
<text text-anchor="start" x="762.7" y="-130.2" font-family="mono" font-size="14.00" fill="#c83500">input</text>
<text text-anchor="middle" x="590.85" y="-23.97" font-family="Times,serif" font-size="14.00">0..1</text>
</g>
<!-- ActionAffordance&#45;&gt;DataSchema -->
<g id="edge5" class="edge">
<title>ActionAffordance&#45;&gt;DataSchema</title>
<path fill="none" stroke="black" d="M704.29,-231.7C701.06,-171.56 692.37,-79.25 669.17,-54 658.37,-42.24 623.78,-33.56 591.57,-27.78"/>
<polygon fill="black" stroke="black" points="592.25,-24.34 581.81,-26.11 591.07,-31.24 592.25,-24.34"/>
<text text-anchor="start" x="699.86" y="-130.2" font-family="mono" font-size="14.00" fill="#c83500">output</text>
<text text-anchor="middle" x="590.81" y="-12.55" font-family="Times,serif" font-size="14.00">0..1</text>
</g>
<!-- EventAffordance -->
<g id="node2" class="node">
<title>EventAffordance</title>
<polygon fill="#8ccbf2" stroke="none" points="360.29,-273.75 360.29,-299.25 490.04,-299.25 490.04,-273.75 360.29,-273.75"/>
<polygon fill="none" stroke="#8ccbf2" points="360.29,-273.75 360.29,-299.25 490.04,-299.25 490.04,-273.75 360.29,-273.75"/>
<text text-anchor="start" x="363.29" y="-283.95" font-family="mono" font-weight="bold" font-size="14.00" fill="#c83500">EventAffordance</text>
</g>
<!-- EventAffordance&#45;&gt;InteractionAffordance -->
<g id="edge23" class="edge">
<title>EventAffordance&#45;&gt;InteractionAffordance</title>
<path fill="none" stroke="black" d="M477.93,-268.56C513.87,-257.32 562.65,-242.64 606.17,-231.5 643.16,-222.03 653.04,-222.38 690.17,-213.5 753.66,-198.32 769.76,-195.12 832.17,-176 833.54,-175.58 834.92,-175.15 836.31,-174.72"/>
<polygon fill="white" stroke="black" points="837.12,-178.14 845.59,-171.78 835,-171.46 837.12,-178.14"/>
</g>
<!-- EventAffordance&#45;&gt;DataSchema -->
<g id="edge6" class="edge">
<title>EventAffordance&#45;&gt;DataSchema</title>
<path fill="none" stroke="black" d="M352.56,-270.84C301.09,-256.24 235.62,-228.19 203.17,-176 183.34,-144.11 181.45,-122.13 203.17,-91.5 232.98,-49.46 378.93,-30.81 464.77,-23.36"/>
<polygon fill="black" stroke="black" points="465.03,-26.85 474.7,-22.53 464.44,-19.88 465.03,-26.85"/>
<text text-anchor="start" x="203.17" y="-130.2" font-family="mono" font-size="14.00" fill="#c83500">subscription</text>
<text text-anchor="middle" x="465.71" y="-25.61" font-family="Times,serif" font-size="14.00">0..1</text>
</g>
<!-- EventAffordance&#45;&gt;DataSchema -->
<g id="edge7" class="edge">
<title>EventAffordance&#45;&gt;DataSchema</title>
<path fill="none" stroke="black" d="M405.39,-268.53C384.09,-248.8 351.45,-214.06 338.17,-176 325.8,-140.54 323.03,-125.87 338.17,-91.5 359.01,-44.19 418.17,-27.28 465,-21.47"/>
<polygon fill="black" stroke="black" points="465.23,-24.97 474.8,-20.42 464.48,-18.01 465.23,-24.97"/>
<text text-anchor="start" x="338.17" y="-130.2" font-family="mono" font-size="14.00" fill="#c83500">data</text>
<text text-anchor="middle" x="465.8" y="-6.95" font-family="Times,serif" font-size="14.00">0..1</text>
</g>
<!-- EventAffordance&#45;&gt;DataSchema -->
<g id="edge8" class="edge">
<title>EventAffordance&#45;&gt;DataSchema</title>
<path fill="none" stroke="black" d="M417.51,-268.57C402.69,-233.11 374.32,-149.48 407.17,-91.5 420.15,-68.59 443.58,-52.13 466.38,-40.75"/>
<polygon fill="black" stroke="black" points="467.84,-43.93 475.4,-36.52 464.86,-37.6 467.84,-43.93"/>
<text text-anchor="start" x="407.17" y="-130.2" font-family="mono" font-size="14.00" fill="#c83500">dataResponse</text>
<text text-anchor="middle" x="487.27" y="-39.08" font-family="Times,serif" font-size="14.00">0..1</text>
</g>
<!-- EventAffordance&#45;&gt;DataSchema -->
<g id="edge9" class="edge">
<title>EventAffordance&#45;&gt;DataSchema</title>
<path fill="none" stroke="black" d="M441.97,-268.61C460.95,-248.44 491.14,-212.77 506.17,-176 523.62,-133.3 527.65,-79.22 528.36,-46.96"/>
<polygon fill="black" stroke="black" points="531.85,-47.29 528.47,-37.25 524.85,-47.21 531.85,-47.29"/>
<text text-anchor="start" x="525.43" y="-130.2" font-family="mono" font-size="14.00" fill="#c83500">cancellation</text>
<text text-anchor="middle" x="517.98" y="-38.94" font-family="Times,serif" font-size="14.00">0..1</text>
</g>
<!-- MultiLanguage -->
<g id="node4" class="node">
<title>MultiLanguage</title>
<polygon fill="#8ccbf2" stroke="none" points="1184.54,-5.25 1184.54,-30.75 1297.79,-30.75 1297.79,-5.25 1184.54,-5.25"/>
<polygon fill="none" stroke="#8ccbf2" points="1184.54,-5.25 1184.54,-30.75 1297.79,-30.75 1297.79,-5.25 1184.54,-5.25"/>
<text text-anchor="start" x="1187.54" y="-15.45" font-family="mono" font-weight="bold" font-size="14.00" fill="#c83500">MultiLanguage</text>
</g>
<!-- InteractionAffordance&#45;&gt;MultiLanguage -->
<g id="edge12" class="edge">
<title>InteractionAffordance&#45;&gt;MultiLanguage</title>
<path fill="none" stroke="black" d="M1004.36,-91.64C1026.7,-75.38 1050.22,-59.3 1062.67,-54 1095.03,-40.23 1133.02,-31.82 1165.61,-26.71"/>
<polygon fill="black" stroke="black" points="1166.02,-30.19 1175.4,-25.26 1165,-23.26 1166.02,-30.19"/>
<text text-anchor="start" x="1062.67" y="-60.2" font-family="mono" font-size="14.00" fill="#c83500">titles</text>
<text text-anchor="middle" x="1166.4" y="-28.24" font-family="Times,serif" font-size="14.00">0..*</text>
</g>
<!-- InteractionAffordance&#45;&gt;MultiLanguage -->
<g id="edge14" class="edge">
<title>InteractionAffordance&#45;&gt;MultiLanguage</title>
<path fill="none" stroke="black" d="M1053.3,-95.89C1072.91,-88.64 1093.22,-80.96 1112.17,-73.5 1138.77,-63.02 1168.16,-50.67 1192.15,-40.38"/>
<polygon fill="black" stroke="black" points="1193.23,-43.72 1201.03,-36.55 1190.46,-37.29 1193.23,-43.72"/>
<text text-anchor="start" x="1158.53" y="-60.2" font-family="mono" font-size="14.00" fill="#c83500">descriptions</text>
<text text-anchor="middle" x="1191.92" y="-39.16" font-family="Times,serif" font-size="14.00">0..*</text>
</g>
<!-- Form -->
<g id="node8" class="node">
<title>Form</title>
<polygon fill="#f2f2f2" stroke="none" points="1024.67,-5.25 1024.67,-30.75 1063.67,-30.75 1063.67,-5.25 1024.67,-5.25"/>
<polygon fill="none" stroke="#8c8c8c" points="1024.67,-5.25 1024.67,-30.75 1063.67,-30.75 1063.67,-5.25 1024.67,-5.25"/>
<text text-anchor="start" x="1027.67" y="-15.45" font-family="mono" font-weight="bold" font-size="14.00">Form</text>
</g>
<!-- InteractionAffordance&#45;&gt;Form -->
<g id="edge1" class="edge">
<title>InteractionAffordance&#45;&gt;Form</title>
<path fill="none" stroke="black" d="M962.59,-91.89C967.97,-78.77 975.29,-64.84 984.92,-54 991.06,-47.09 998.89,-41.16 1006.84,-36.25"/>
<polygon fill="black" stroke="black" points="1008.56,-39.3 1015.54,-31.33 1005.11,-33.21 1008.56,-39.3"/>
<text text-anchor="start" x="984.92" y="-60.2" font-family="mono" font-size="14.00" fill="#c83500">forms</text>
<text text-anchor="middle" x="1006.35" y="-33.78" font-family="Times,serif" font-size="14.00">1..*</text>
</g>
<!-- InteractionAffordance&#45;&gt;DataSchema -->
<g id="edge18" class="edge">
<title>InteractionAffordance&#45;&gt;DataSchema</title>
<path fill="none" stroke="black" d="M884.54,-91.54C859.34,-77.49 829.76,-63.06 801.17,-54 731.49,-31.92 647.62,-23.73 591.38,-20.72"/>
<polygon fill="black" stroke="black" points="591.84,-17.23 581.68,-20.24 591.5,-24.23 591.84,-17.23"/>
<text text-anchor="start" x="848.3" y="-60.2" font-family="mono" font-size="14.00" fill="#c83500">uriVariables</text>
<text text-anchor="middle" x="580.17" y="-6.86" font-family="Times,serif" font-size="14.00">0..*</text>
</g>
<!-- PropertyAffordance -->
<g id="node5" class="node">
<title>PropertyAffordance</title>
<polygon fill="#8ccbf2" stroke="none" points="823.42,-286.5 823.42,-312 980.92,-312 980.92,-286.5 823.42,-286.5"/>
<polygon fill="none" stroke="#8ccbf2" points="823.42,-286.5 823.42,-312 980.92,-312 980.92,-286.5 823.42,-286.5"/>
<text text-anchor="start" x="827.92" y="-296.7" font-family="mono" font-weight="bold" font-size="14.00" fill="#c83500">PropertyAffordance</text>
<polygon fill="#ddeeff" stroke="none" points="823.42,-261 823.42,-286.5 980.92,-286.5 980.92,-261 823.42,-261"/>
<polygon fill="none" stroke="#8ccbf2" points="823.42,-261 823.42,-286.5 980.92,-286.5 980.92,-261 823.42,-261"/>
<text text-anchor="start" x="826.42" y="-271.2" font-family="mono" font-size="14.00" fill="#c83500">observable</text>
<text text-anchor="start" x="908.92" y="-271.2" font-family="Times,serif" font-size="14.00"> : </text>
<text text-anchor="start" x="920.17" y="-271.2" font-family="mono" font-size="14.00" fill="#c83500">boolean</text>
</g>
<!-- PropertyAffordance&#45;&gt;InteractionAffordance -->
<g id="edge24" class="edge">
<title>PropertyAffordance&#45;&gt;InteractionAffordance</title>
<path fill="none" stroke="black" d="M911.2,-257.15C917.5,-237.34 926.11,-210.32 933.63,-186.71"/>
<polygon fill="white" stroke="black" points="936.95,-187.82 936.64,-177.23 930.28,-185.69 936.95,-187.82"/>
</g>
<!-- Thing -->
<g id="node6" class="node">
<title>Thing</title>
<polygon fill="#8ccbf2" stroke="none" points="985.54,-656 985.54,-681.5 1248.79,-681.5 1248.79,-656 985.54,-656"/>
<polygon fill="none" stroke="#8ccbf2" points="985.54,-656 985.54,-681.5 1248.79,-681.5 1248.79,-656 985.54,-656"/>
<text text-anchor="start" x="1096.54" y="-666.2" font-family="mono" font-weight="bold" font-size="14.00" fill="#c83500">Thing</text>
<polygon fill="#ddeeff" stroke="none" points="985.54,-630.5 985.54,-656 1248.79,-656 1248.79,-630.5 985.54,-630.5"/>
<polygon fill="none" stroke="#8ccbf2" points="985.54,-630.5 985.54,-656 1248.79,-656 1248.79,-630.5 985.54,-630.5"/>
<text text-anchor="start" x="988.54" y="-640.7" font-family="mono" font-size="14.00" fill="#c83500">@context</text>
<text text-anchor="start" x="1054.54" y="-640.7" font-family="Times,serif" font-size="14.00"> : </text>
<text text-anchor="start" x="1065.79" y="-640.7" font-family="mono" font-style="italic" font-size="14.00" fill="#c83500">anyURI</text>
<text text-anchor="start" x="1115.29" y="-640.7" font-family="Times,serif" font-style="italic" font-size="14.00"> or Array</text>
<text text-anchor="start" x="1165.54" y="-640.7" font-family="Times,serif" font-size="14.00"> </text>
<text text-anchor="start" x="1169.29" y="-640.7" font-family="Times,serif" font-style="italic" font-size="14.00">(mandatory)</text>
<polygon fill="#ddeeff" stroke="none" points="985.54,-605 985.54,-630.5 1248.79,-630.5 1248.79,-605 985.54,-605"/>
<polygon fill="none" stroke="#8ccbf2" points="985.54,-605 985.54,-630.5 1248.79,-630.5 1248.79,-605 985.54,-605"/>
<text text-anchor="start" x="988.54" y="-615.2" font-family="mono" font-size="14.00" fill="#c83500">@type</text>
<text text-anchor="start" x="1029.79" y="-615.2" font-family="Times,serif" font-size="14.00"> : </text>
<text text-anchor="start" x="1041.04" y="-615.2" font-family="Times,serif" font-style="italic" font-size="14.00">(Array of) </text>
<text text-anchor="start" x="1099.54" y="-615.2" font-family="mono" font-size="14.00" fill="#c83500">string</text>
<polygon fill="#ddeeff" stroke="none" points="985.54,-579.5 985.54,-605 1248.79,-605 1248.79,-579.5 985.54,-579.5"/>
<polygon fill="none" stroke="#8ccbf2" points="985.54,-579.5 985.54,-605 1248.79,-605 1248.79,-579.5 985.54,-579.5"/>
<text text-anchor="start" x="988.54" y="-589.7" font-family="mono" font-size="14.00" fill="#c83500">id</text>
<text text-anchor="start" x="1005.04" y="-589.7" font-family="Times,serif" font-size="14.00"> : </text>
<text text-anchor="start" x="1016.29" y="-589.7" font-family="mono" font-size="14.00" fill="#c83500">anyURI</text>
<text text-anchor="start" x="1065.79" y="-589.7" font-family="Times,serif" font-size="14.00"> </text>
<text text-anchor="start" x="1069.54" y="-589.7" font-family="Times,serif" font-style="italic" font-size="14.00">(mandatory)</text>
<polygon fill="#ddeeff" stroke="none" points="985.54,-554 985.54,-579.5 1248.79,-579.5 1248.79,-554 985.54,-554"/>
<polygon fill="none" stroke="#8ccbf2" points="985.54,-554 985.54,-579.5 1248.79,-579.5 1248.79,-554 985.54,-554"/>
<text text-anchor="start" x="988.54" y="-564.2" font-family="mono" font-size="14.00" fill="#c83500">security</text>
<text text-anchor="start" x="1054.54" y="-564.2" font-family="Times,serif" font-size="14.00"> : (Array of) </text>
<text text-anchor="start" x="1125.04" y="-564.2" font-family="mono" font-size="14.00" fill="#c83500">string</text>
<text text-anchor="start" x="1174.54" y="-564.2" font-family="Times,serif" font-size="14.00"> </text>
<text text-anchor="start" x="1178.29" y="-564.2" font-family="Times,serif" font-style="italic" font-size="14.00">(mandatory)</text>
<polygon fill="#ddeeff" stroke="none" points="985.54,-528.5 985.54,-554 1248.79,-554 1248.79,-528.5 985.54,-528.5"/>
<polygon fill="none" stroke="#8ccbf2" points="985.54,-528.5 985.54,-554 1248.79,-554 1248.79,-528.5 985.54,-528.5"/>
<text text-anchor="start" x="988.54" y="-538.7" font-family="mono" font-size="14.00" fill="#c83500">profile</text>
<text text-anchor="start" x="1046.29" y="-538.7" font-family="Times,serif" font-size="14.00"> : (Array of) </text>
<text text-anchor="start" x="1116.79" y="-538.7" font-family="mono" font-size="14.00" fill="#c83500">anyURI</text>
<polygon fill="#ddeeff" stroke="none" points="985.54,-503 985.54,-528.5 1248.79,-528.5 1248.79,-503 985.54,-503"/>
<polygon fill="none" stroke="#8ccbf2" points="985.54,-503 985.54,-528.5 1248.79,-528.5 1248.79,-503 985.54,-503"/>
<text text-anchor="start" x="988.54" y="-513.2" font-family="mono" font-size="14.00" fill="#c83500">description</text>
<text text-anchor="start" x="1079.29" y="-513.2" font-family="Times,serif" font-size="14.00"> : </text>
<text text-anchor="start" x="1090.54" y="-513.2" font-family="mono" font-size="14.00" fill="#c83500">langString</text>
<polygon fill="#ddeeff" stroke="none" points="985.54,-477.5 985.54,-503 1248.79,-503 1248.79,-477.5 985.54,-477.5"/>
<polygon fill="none" stroke="#8ccbf2" points="985.54,-477.5 985.54,-503 1248.79,-503 1248.79,-477.5 985.54,-477.5"/>
<text text-anchor="start" x="988.54" y="-487.7" font-family="mono" font-size="14.00" fill="#c83500">created</text>
<text text-anchor="start" x="1046.29" y="-487.7" font-family="Times,serif" font-size="14.00"> : </text>
<text text-anchor="start" x="1057.54" y="-487.7" font-family="mono" font-size="14.00" fill="#c83500">dateTime</text>
<polygon fill="#ddeeff" stroke="none" points="985.54,-452 985.54,-477.5 1248.79,-477.5 1248.79,-452 985.54,-452"/>
<polygon fill="none" stroke="#8ccbf2" points="985.54,-452 985.54,-477.5 1248.79,-477.5 1248.79,-452 985.54,-452"/>
<text text-anchor="start" x="988.54" y="-462.2" font-family="mono" font-size="14.00" fill="#c83500">modified</text>
<text text-anchor="start" x="1054.54" y="-462.2" font-family="Times,serif" font-size="14.00"> : </text>
<text text-anchor="start" x="1065.79" y="-462.2" font-family="mono" font-size="14.00" fill="#c83500">dateTime</text>
<polygon fill="#ddeeff" stroke="none" points="985.54,-426.5 985.54,-452 1248.79,-452 1248.79,-426.5 985.54,-426.5"/>
<polygon fill="none" stroke="#8ccbf2" points="985.54,-426.5 985.54,-452 1248.79,-452 1248.79,-426.5 985.54,-426.5"/>
<text text-anchor="start" x="988.54" y="-436.7" font-family="mono" font-size="14.00" fill="#c83500">support</text>
<text text-anchor="start" x="1046.29" y="-436.7" font-family="Times,serif" font-size="14.00"> : </text>
<text text-anchor="start" x="1057.54" y="-436.7" font-family="mono" font-size="14.00" fill="#c83500">anyURI</text>
<polygon fill="#ddeeff" stroke="none" points="985.54,-401 985.54,-426.5 1248.79,-426.5 1248.79,-401 985.54,-401"/>
<polygon fill="none" stroke="#8ccbf2" points="985.54,-401 985.54,-426.5 1248.79,-426.5 1248.79,-401 985.54,-401"/>
<text text-anchor="start" x="988.54" y="-411.2" font-family="mono" font-size="14.00" fill="#c83500">base</text>
<text text-anchor="start" x="1021.54" y="-411.2" font-family="Times,serif" font-size="14.00"> : </text>
<text text-anchor="start" x="1032.79" y="-411.2" font-family="mono" font-size="14.00" fill="#c83500">anyURI</text>
</g>
<!-- Thing&#45;&gt;ActionAffordance -->
<g id="edge20" class="edge">
<title>Thing&#45;&gt;ActionAffordance</title>
<path fill="none" stroke="black" d="M977.74,-454.5C920.43,-419.26 855.45,-379.3 803.42,-347.31"/>
<polygon fill="black" stroke="black" points="805.5,-344.48 795.15,-342.22 801.84,-350.44 805.5,-344.48"/>
<text text-anchor="start" x="850.84" y="-365.7" font-family="mono" font-size="14.00" fill="#c83500">actions</text>
<text text-anchor="middle" x="783.36" y="-344.63" font-family="Times,serif" font-size="14.00">0..*</text>
</g>
<!-- Thing&#45;&gt;EventAffordance -->
<g id="edge21" class="edge">
<title>Thing&#45;&gt;EventAffordance</title>
<path fill="none" stroke="black" d="M977.75,-521.82C852.7,-500.9 667.31,-458.77 523.67,-379 493.1,-362.02 464.57,-333.58 446.17,-312.9"/>
<polygon fill="black" stroke="black" points="448.88,-310.69 439.68,-305.44 443.6,-315.28 448.88,-310.69"/>
<text text-anchor="start" x="523.67" y="-365.7" font-family="mono" font-size="14.00" fill="#c83500">events</text>
<text text-anchor="middle" x="428.19" y="-307.49" font-family="Times,serif" font-size="14.00">0..*</text>
</g>
<!-- Thing&#45;&gt;MultiLanguage -->
<g id="edge13" class="edge">
<title>Thing&#45;&gt;MultiLanguage</title>
<path fill="none" stroke="black" d="M1256.69,-463.99C1297.35,-432.59 1334.54,-391.66 1348.17,-341.5 1378.53,-229.76 1299.43,-99.78 1260.88,-45.22"/>
<polygon fill="black" stroke="black" points="1263.75,-43.23 1255.07,-37.16 1258.07,-47.32 1263.75,-43.23"/>
<text text-anchor="start" x="1343.48" y="-200.2" font-family="mono" font-size="14.00" fill="#c83500">titles</text>
<text text-anchor="middle" x="1243.68" y="-39.13" font-family="Times,serif" font-size="14.00">0..*</text>
</g>
<!-- Thing&#45;&gt;MultiLanguage -->
<g id="edge15" class="edge">
<title>Thing&#45;&gt;MultiLanguage</title>
<path fill="none" stroke="black" d="M1256.69,-464.58C1291.12,-440.78 1325.46,-411.97 1351.17,-379 1373.76,-350.04 1389.48,-275.99 1397.17,-213.5 1406.49,-137.78 1329.03,-74.13 1279.87,-41.82"/>
<polygon fill="black" stroke="black" points="1282.03,-39.05 1271.72,-36.6 1278.25,-44.94 1282.03,-39.05"/>
<text text-anchor="start" x="1397.94" y="-200.2" font-family="mono" font-size="14.00" fill="#c83500">descriptions</text>
<text text-anchor="middle" x="1280.95" y="-38.98" font-family="Times,serif" font-size="14.00">0..*</text>
</g>
<!-- Thing&#45;&gt;PropertyAffordance -->
<g id="edge19" class="edge">
<title>Thing&#45;&gt;PropertyAffordance</title>
<path fill="none" stroke="black" d="M995.53,-397.26C972.63,-370.33 950.59,-344.43 933.69,-324.55"/>
<polygon fill="black" stroke="black" points="936.42,-322.37 927.28,-317.02 931.09,-326.9 936.42,-322.37"/>
<text text-anchor="start" x="977.85" y="-365.7" font-family="mono" font-size="14.00" fill="#c83500">properties</text>
<text text-anchor="middle" x="915.8" y="-319.06" font-family="Times,serif" font-size="14.00">0..*</text>
</g>
<!-- VersionInfo -->
<g id="node7" class="node">
<title>VersionInfo</title>
<polygon fill="#8ccbf2" stroke="none" points="1015.17,-299.25 1015.17,-324.75 1219.17,-324.75 1219.17,-299.25 1015.17,-299.25"/>
<polygon fill="none" stroke="#8ccbf2" points="1015.17,-299.25 1015.17,-324.75 1219.17,-324.75 1219.17,-299.25 1015.17,-299.25"/>
<text text-anchor="start" x="1071.79" y="-309.45" font-family="mono" font-weight="bold" font-size="14.00" fill="#c83500">VersionInfo</text>
<polygon fill="#ddeeff" stroke="none" points="1015.17,-273.75 1015.17,-299.25 1219.17,-299.25 1219.17,-273.75 1015.17,-273.75"/>
<polygon fill="none" stroke="#8ccbf2" points="1015.17,-273.75 1015.17,-299.25 1219.17,-299.25 1219.17,-273.75 1015.17,-273.75"/>
<text text-anchor="start" x="1018.17" y="-283.95" font-family="mono" font-size="14.00" fill="#c83500">instance</text>
<text text-anchor="start" x="1084.17" y="-283.95" font-family="Times,serif" font-size="14.00"> : </text>
<text text-anchor="start" x="1095.42" y="-283.95" font-family="mono" font-size="14.00" fill="#c83500">string</text>
<text text-anchor="start" x="1144.92" y="-283.95" font-family="Times,serif" font-size="14.00"> </text>
<text text-anchor="start" x="1148.67" y="-283.95" font-family="Times,serif" font-style="italic" font-size="14.00">(mandatory)</text>
<polygon fill="#ddeeff" stroke="none" points="1015.17,-248.25 1015.17,-273.75 1219.17,-273.75 1219.17,-248.25 1015.17,-248.25"/>
<polygon fill="none" stroke="#8ccbf2" points="1015.17,-248.25 1015.17,-273.75 1219.17,-273.75 1219.17,-248.25 1015.17,-248.25"/>
<text text-anchor="start" x="1018.17" y="-258.45" font-family="mono" font-size="14.00" fill="#c83500">model</text>
<text text-anchor="start" x="1059.42" y="-258.45" font-family="Times,serif" font-size="14.00"> : </text>
<text text-anchor="start" x="1070.67" y="-258.45" font-family="mono" font-size="14.00" fill="#c83500">string</text>
</g>
<!-- Thing&#45;&gt;VersionInfo -->
<g id="edge10" class="edge">
<title>Thing&#45;&gt;VersionInfo</title>
<path fill="none" stroke="black" d="M1117.17,-397.26C1117.17,-376.84 1117.17,-357.01 1117.17,-339.95"/>
<polygon fill="black" stroke="black" points="1120.67,-340.12 1117.17,-330.12 1113.67,-340.12 1120.67,-340.12"/>
<text text-anchor="start" x="1117.17" y="-365.7" font-family="mono" font-size="14.00" fill="#c83500">version</text>
<text text-anchor="middle" x="1106.67" y="-331.81" font-family="Times,serif" font-size="14.00">0..1</text>
</g>
<!-- Thing&#45;&gt;Form -->
<g id="edge3" class="edge">
<title>Thing&#45;&gt;Form</title>
<path fill="none" stroke="black" d="M1214.38,-397.15C1223.19,-379.03 1230.8,-360.25 1236.17,-341.5 1271.37,-218.65 1323.25,-151.95 1241.17,-54 1236.09,-47.94 1138.61,-32.8 1082.72,-24.56"/>
<polygon fill="black" stroke="black" points="1083.37,-21.12 1072.97,-23.13 1082.35,-28.04 1083.37,-21.12"/>
<text text-anchor="start" x="1281.58" y="-200.2" font-family="mono" font-size="14.00" fill="#c83500">forms</text>
<text text-anchor="middle" x="1081.97" y="-26.11" font-family="Times,serif" font-size="14.00">0..*</text>
</g>
<!-- Link -->
<g id="node9" class="node">
<title>Link</title>
<polygon fill="#f2f2f2" stroke="none" points="1291.67,-273.75 1291.67,-299.25 1330.67,-299.25 1330.67,-273.75 1291.67,-273.75"/>
<polygon fill="none" stroke="#8c8c8c" points="1291.67,-273.75 1291.67,-299.25 1330.67,-299.25 1330.67,-273.75 1291.67,-273.75"/>
<text text-anchor="start" x="1294.67" y="-283.95" font-family="mono" font-weight="bold" font-size="14.00">Link</text>
</g>
<!-- Thing&#45;&gt;Link -->
<g id="edge2" class="edge">
<title>Thing&#45;&gt;Link</title>
<path fill="none" stroke="black" d="M1256.28,-397.12C1260.77,-391.11 1265.08,-385.06 1269.17,-379 1282.74,-358.86 1293.96,-333.63 1301.37,-314.76"/>
<polygon fill="black" stroke="black" points="1304.56,-316.22 1304.85,-305.63 1298.02,-313.73 1304.56,-316.22"/>
<text text-anchor="start" x="1280.52" y="-365.7" font-family="mono" font-size="14.00" fill="#c83500">links</text>
<text text-anchor="middle" x="1294.89" y="-307.41" font-family="Times,serif" font-size="14.00">0..*</text>
</g>
<!-- Thing&#45;&gt;DataSchema -->
<g id="edge16" class="edge">
<title>Thing&#45;&gt;DataSchema</title>
<path fill="none" stroke="black" d="M977.77,-518.96C716.79,-475.77 171.91,-368.59 73.92,-213.5 21.77,-130.96 -119.64,-213.13 221.17,-54 263.07,-34.44 387.76,-25.35 464.74,-21.5"/>
<polygon fill="black" stroke="black" points="464.87,-25 474.69,-21.02 464.53,-18.01 464.87,-25"/>
<text text-anchor="start" x="73.92" y="-200.2" font-family="mono" font-size="14.00" fill="#c83500">schemaDefinitions</text>
<text text-anchor="middle" x="465.7" y="-24.15" font-family="Times,serif" font-size="14.00">0..*</text>
</g>
<!-- Thing&#45;&gt;DataSchema -->
<g id="edge17" class="edge">
<title>Thing&#45;&gt;DataSchema</title>
<path fill="none" stroke="black" d="M977.67,-526.98C858.02,-507.53 691.79,-459.61 606.17,-341.5 567.65,-288.36 567.27,-251.35 599.17,-194 606.54,-180.74 620.8,-189.26 628.17,-176 646.43,-143.18 645.24,-124.95 628.17,-91.5 617.21,-70.01 596.57,-53.41 576.88,-41.55"/>
<polygon fill="black" stroke="black" points="578.76,-38.59 568.34,-36.69 575.3,-44.68 578.76,-38.59"/>
<text text-anchor="start" x="599.17" y="-200.2" font-family="mono" font-size="14.00" fill="#c83500">uriVariables</text>
<text text-anchor="middle" x="556.53" y="-39.14" font-family="Times,serif" font-size="14.00">0..*</text>
</g>
<!-- SecurityScheme -->
<g id="node11" class="node">
<title>SecurityScheme</title>
<polygon fill="#f2f2f2" stroke="none" points="1458.42,-273.75 1458.42,-299.25 1579.92,-299.25 1579.92,-273.75 1458.42,-273.75"/>
<polygon fill="none" stroke="#8c8c8c" points="1458.42,-273.75 1458.42,-299.25 1579.92,-299.25 1579.92,-273.75 1458.42,-273.75"/>
<text text-anchor="start" x="1461.42" y="-283.95" font-family="mono" font-weight="bold" font-size="14.00">SecurityScheme</text>
</g>
<!-- Thing&#45;&gt;SecurityScheme -->
<g id="edge11" class="edge">
<title>Thing&#45;&gt;SecurityScheme</title>
<path fill="none" stroke="black" d="M1256.71,-483.28C1315.04,-456.12 1381.75,-420.46 1436.17,-379 1460.95,-360.12 1484.32,-333.22 1499.92,-313.46"/>
<polygon fill="black" stroke="black" points="1502.64,-315.66 1505.99,-305.61 1497.11,-311.38 1502.64,-315.66"/>
<text text-anchor="start" x="1456.66" y="-365.7" font-family="mono" font-size="14.00" fill="#c83500">securityDefinitions</text>
<text text-anchor="middle" x="1496.42" y="-307.61" font-family="Times,serif" font-size="14.00">1..*</text>
</g>
</g>
</svg>
