<?xml version="1.0" encoding="UTF-8" standalone="no"?>
<!DOCTYPE svg PUBLIC "-//W3C//DTD SVG 1.1//EN"
 "http://www.w3.org/Graphics/SVG/1.1/DTD/svg11.dtd">
<!-- Generated by graphviz version 2.40.1 (20161225.0304)
 -->
<!-- Title: %3 Pages: 1 -->
<svg width="1559pt" height="840pt"
 viewBox="0.00 0.00 1558.50 840.00" xmlns="http://www.w3.org/2000/svg" xmlns:xlink="http://www.w3.org/1999/xlink">
<g id="graph0" class="graph" transform="scale(1 1) rotate(0) translate(4 836)">
<title>%3</title>
<polygon fill="#ffffff" stroke="transparent" points="-4,4 -4,-836 1554.5,-836 1554.5,4 -4,4"/>
<!-- MultiLanguage -->
<g id="node1" class="node">
<title>MultiLanguage</title>
<polygon fill="#8ccbf2" stroke="transparent" points="375.5,-167.5 375.5,-188.5 489.5,-188.5 489.5,-167.5 375.5,-167.5"/>
<polygon fill="none" stroke="#8ccbf2" points="375.5,-167.5 375.5,-188.5 489.5,-188.5 489.5,-167.5 375.5,-167.5"/>
<text text-anchor="start" x="378.5" y="-175.3" font-family="mono" font-weight="bold" font-size="14.00" fill="#c83500">MultiLanguage</text>
</g>
<!-- InteractionPattern -->
<g id="node2" class="node">
<title>InteractionPattern</title>
<polygon fill="#8ccbf2" stroke="transparent" points="370.5,-394.5 370.5,-415.5 551.5,-415.5 551.5,-394.5 370.5,-394.5"/>
<polygon fill="none" stroke="#8ccbf2" points="370.5,-394.5 370.5,-415.5 551.5,-415.5 551.5,-394.5 370.5,-394.5"/>
<text text-anchor="start" x="386.5" y="-402.3" font-family="mono" font-weight="bold" font-size="14.00" fill="#c83500">InteractionPattern</text>
<polygon fill="#ddeeff" stroke="transparent" points="370.5,-373.5 370.5,-394.5 551.5,-394.5 551.5,-373.5 370.5,-373.5"/>
<polygon fill="none" stroke="#8ccbf2" points="370.5,-373.5 370.5,-394.5 551.5,-394.5 551.5,-373.5 370.5,-373.5"/>
<text text-anchor="start" x="373.5" y="-381.3" font-family="mono" font-size="14.00" fill="#c83500">title</text>
<text text-anchor="start" x="415.5" y="-381.3" font-family="Times,serif" font-size="14.00" fill="#000000"> : </text>
<text text-anchor="start" x="427.5" y="-381.3" font-family="mono" font-size="14.00" fill="#c83500">string</text>
<polygon fill="#ddeeff" stroke="transparent" points="370.5,-352.5 370.5,-373.5 551.5,-373.5 551.5,-352.5 370.5,-352.5"/>
<polygon fill="none" stroke="#8ccbf2" points="370.5,-352.5 370.5,-373.5 551.5,-373.5 551.5,-352.5 370.5,-352.5"/>
<text text-anchor="start" x="373.5" y="-360.3" font-family="mono" font-size="14.00" fill="#c83500">scopes</text>
<text text-anchor="start" x="423.5" y="-360.3" font-family="Times,serif" font-size="14.00" fill="#000000"> : array of </text>
<text text-anchor="start" x="481.5" y="-360.3" font-family="mono" font-size="14.00" fill="#c83500">string</text>
<polygon fill="#ddeeff" stroke="transparent" points="370.5,-331.5 370.5,-352.5 551.5,-352.5 551.5,-331.5 370.5,-331.5"/>
<polygon fill="none" stroke="#8ccbf2" points="370.5,-331.5 370.5,-352.5 551.5,-352.5 551.5,-331.5 370.5,-331.5"/>
<text text-anchor="start" x="373.5" y="-339.3" font-family="mono" font-size="14.00" fill="#c83500">security</text>
<text text-anchor="start" x="440.5" y="-339.3" font-family="Times,serif" font-size="14.00" fill="#000000"> : array of </text>
<text text-anchor="start" x="498.5" y="-339.3" font-family="mono" font-size="14.00" fill="#c83500">string</text>
<polygon fill="#ddeeff" stroke="transparent" points="370.5,-310.5 370.5,-331.5 551.5,-331.5 551.5,-310.5 370.5,-310.5"/>
<polygon fill="none" stroke="#8ccbf2" points="370.5,-310.5 370.5,-331.5 551.5,-331.5 551.5,-310.5 370.5,-310.5"/>
<text text-anchor="start" x="373.5" y="-318.3" font-family="mono" font-size="14.00" fill="#c83500">description</text>
<text text-anchor="start" x="464.5" y="-318.3" font-family="Times,serif" font-size="14.00" fill="#000000"> : </text>
<text text-anchor="start" x="476.5" y="-318.3" font-family="mono" font-size="14.00" fill="#c83500">string</text>
</g>
<!-- InteractionPattern&#45;&gt;MultiLanguage -->
<g id="edge1" class="edge">
<title>InteractionPattern&#45;&gt;MultiLanguage</title>
<path fill="none" stroke="#000000" d="M361.869,-316.9455C352.5922,-308.8803 344.4502,-299.6054 338.5,-289 335.238,-283.1859 335.8658,-280.1242 338.5,-274 343.0962,-263.3143 349.2312,-264.1814 357.5,-256 374.7279,-238.9543 393.7079,-219.3331 408.264,-204.0985"/>
<polygon fill="#000000" stroke="#000000" points="411.0748,-206.2223 415.4399,-196.5685 406.0073,-201.3931 411.0748,-206.2223"/>
<text text-anchor="start" x="338.5" y="-277.8" font-family="mono" font-size="14.00" fill="#c83500">descriptions</text>
<text text-anchor="middle" x="404.4399" y="-200.3685" font-family="Times,serif" font-size="14.00" fill="#000000">0..1</text>
</g>
<!-- InteractionPattern&#45;&gt;MultiLanguage -->
<g id="edge3" class="edge">
<title>InteractionPattern&#45;&gt;MultiLanguage</title>
<path fill="none" stroke="#000000" d="M451.9469,-306.9887C446.9431,-273.9277 440.8395,-233.5999 436.8204,-207.0458"/>
<polygon fill="#000000" stroke="#000000" points="440.2434,-206.2731 435.2863,-196.9095 433.3223,-207.3207 440.2434,-206.2731"/>
<text text-anchor="start" x="449.5" y="-277.8" font-family="mono" font-size="14.00" fill="#c83500">titles</text>
<text text-anchor="middle" x="446.2863" y="-200.7095" font-family="Times,serif" font-size="14.00" fill="#000000">0..1</text>
</g>
<!-- Form -->
<g id="node4" class="node">
<title>Form</title>
<polygon fill="#8ccbf2" stroke="transparent" points="8.5,-230.5 8.5,-251.5 341.5,-251.5 341.5,-230.5 8.5,-230.5"/>
<polygon fill="none" stroke="#8ccbf2" points="8.5,-230.5 8.5,-251.5 341.5,-251.5 341.5,-230.5 8.5,-230.5"/>
<text text-anchor="start" x="158" y="-238.3" font-family="mono" font-weight="bold" font-size="14.00" fill="#c83500">Form</text>
<polygon fill="#ddeeff" stroke="transparent" points="8.5,-209.5 8.5,-230.5 341.5,-230.5 341.5,-209.5 8.5,-209.5"/>
<polygon fill="none" stroke="#8ccbf2" points="8.5,-209.5 8.5,-230.5 341.5,-230.5 341.5,-209.5 8.5,-209.5"/>
<text text-anchor="start" x="11.5" y="-217.3" font-family="mono" font-size="14.00" fill="#c83500">security</text>
<text text-anchor="start" x="78.5" y="-217.3" font-family="Times,serif" font-size="14.00" fill="#000000"> : array of </text>
<text text-anchor="start" x="136.5" y="-217.3" font-family="mono" font-size="14.00" fill="#c83500">string</text>
<polygon fill="#ddeeff" stroke="transparent" points="8.5,-188.5 8.5,-209.5 341.5,-209.5 341.5,-188.5 8.5,-188.5"/>
<polygon fill="none" stroke="#8ccbf2" points="8.5,-188.5 8.5,-209.5 341.5,-209.5 341.5,-188.5 8.5,-188.5"/>
<text text-anchor="start" x="11.5" y="-196.3" font-family="mono" font-size="14.00" fill="#c83500">op</text>
<text text-anchor="start" x="28.5" y="-196.3" font-family="Times,serif" font-size="14.00" fill="#000000"> : </text>
<text text-anchor="start" x="40.5" y="-196.3" font-family="mono" font-size="14.00" fill="#c83500">string</text>
<polygon fill="#ddeeff" stroke="transparent" points="8.5,-167.5 8.5,-188.5 341.5,-188.5 341.5,-167.5 8.5,-167.5"/>
<polygon fill="none" stroke="#8ccbf2" points="8.5,-167.5 8.5,-188.5 341.5,-188.5 341.5,-167.5 8.5,-167.5"/>
<text text-anchor="start" x="11.5" y="-175.3" font-family="mono" font-size="14.00" fill="#c83500">subprotocol</text>
<text text-anchor="start" x="102.5" y="-175.3" font-family="Times,serif" font-size="14.00" fill="#000000"> : </text>
<text text-anchor="start" x="114.5" y="-175.3" font-family="mono" font-size="14.00" fill="#c83500">string</text>
<polygon fill="#ddeeff" stroke="transparent" points="8.5,-146.5 8.5,-167.5 341.5,-167.5 341.5,-146.5 8.5,-146.5"/>
<polygon fill="none" stroke="#8ccbf2" points="8.5,-146.5 8.5,-167.5 341.5,-167.5 341.5,-146.5 8.5,-146.5"/>
<text text-anchor="start" x="11.5" y="-154.3" font-family="mono" font-size="14.00" fill="#c83500">href</text>
<text text-anchor="start" x="45.5" y="-154.3" font-family="Times,serif" font-size="14.00" fill="#000000"> : </text>
<text text-anchor="start" x="57.5" y="-154.3" font-family="mono" font-size="14.00" fill="#c83500">anyURI</text>
<text text-anchor="start" x="107.5" y="-154.3" font-family="Times,serif" font-size="14.00" fill="#000000"> </text>
<text text-anchor="start" x="111.5" y="-154.3" font-family="Times,serif" font-style="italic" font-size="14.00" fill="#000000">(mandatory)</text>
<polygon fill="#ddeeff" stroke="transparent" points="8.5,-125.5 8.5,-146.5 341.5,-146.5 341.5,-125.5 8.5,-125.5"/>
<polygon fill="none" stroke="#8ccbf2" points="8.5,-125.5 8.5,-146.5 341.5,-146.5 341.5,-125.5 8.5,-125.5"/>
<text text-anchor="start" x="11.5" y="-133.3" font-family="mono" font-size="14.00" fill="#c83500">contentType</text>
<text text-anchor="start" x="102.5" y="-133.3" font-family="Times,serif" font-size="14.00" fill="#000000"> : </text>
<text text-anchor="start" x="114.5" y="-133.3" font-family="mono" font-size="14.00" fill="#c83500">string</text>
<text text-anchor="start" x="164.5" y="-133.3" font-family="Times,serif" font-size="14.00" fill="#000000"> = application/json </text>
<text text-anchor="start" x="270.5" y="-133.3" font-family="Times,serif" font-style="italic" font-size="14.00" fill="#000000">(mandatory)</text>
<polygon fill="#ddeeff" stroke="transparent" points="8.5,-104.5 8.5,-125.5 341.5,-125.5 341.5,-104.5 8.5,-104.5"/>
<polygon fill="none" stroke="#8ccbf2" points="8.5,-104.5 8.5,-125.5 341.5,-125.5 341.5,-104.5 8.5,-104.5"/>
<text text-anchor="start" x="11.5" y="-112.3" font-family="mono" font-size="14.00" fill="#c83500">scopes</text>
<text text-anchor="start" x="61.5" y="-112.3" font-family="Times,serif" font-size="14.00" fill="#000000"> : array of </text>
<text text-anchor="start" x="119.5" y="-112.3" font-family="mono" font-size="14.00" fill="#c83500">string</text>
</g>
<!-- InteractionPattern&#45;&gt;Form -->
<g id="edge2" class="edge">
<title>InteractionPattern&#45;&gt;Form</title>
<path fill="none" stroke="#000000" d="M361.6969,-327.1222C337.5381,-316.3829 312.365,-303.5474 290.5,-289 278.8348,-281.2388 267.2688,-272.2534 256.2147,-262.8261"/>
<polygon fill="#000000" stroke="#000000" points="258.4889,-260.1654 248.6487,-256.2384 253.8923,-265.4447 258.4889,-260.1654"/>
<text text-anchor="start" x="290.5" y="-277.8" font-family="mono" font-size="14.00" fill="#c83500">forms</text>
<text text-anchor="middle" x="237.6487" y="-260.0384" font-family="Times,serif" font-size="14.00" fill="#000000">1..*</text>
</g>
<!-- DataSchema -->
<g id="node11" class="node">
<title>DataSchema</title>
<polygon fill="#f2f2f2" stroke="transparent" points="725.5,-167.5 725.5,-188.5 814.5,-188.5 814.5,-167.5 725.5,-167.5"/>
<polygon fill="none" stroke="#8c8c8c" points="725.5,-167.5 725.5,-188.5 814.5,-188.5 814.5,-167.5 725.5,-167.5"/>
<text text-anchor="start" x="728.5" y="-175.3" font-family="mono" font-weight="bold" font-size="14.00" fill="#000000">DataSchema</text>
</g>
<!-- InteractionPattern&#45;&gt;DataSchema -->
<g id="edge4" class="edge">
<title>InteractionPattern&#45;&gt;DataSchema</title>
<path fill="none" stroke="#000000" d="M500.0841,-306.8893C510.301,-294.9391 521.983,-283.1831 534.5,-274 586.9294,-235.535 657.0573,-209.6712 707.0254,-194.6686"/>
<polygon fill="#000000" stroke="#000000" points="708.1325,-197.9914 716.739,-191.8124 706.1577,-191.2757 708.1325,-197.9914"/>
<text text-anchor="start" x="534.5" y="-277.8" font-family="mono" font-size="14.00" fill="#c83500">uriVariables</text>
<text text-anchor="middle" x="705.739" y="-195.6124" font-family="Times,serif" font-size="14.00" fill="#000000">0..1</text>
</g>
<!-- Link -->
<g id="node3" class="node">
<title>Link</title>
<polygon fill="#8ccbf2" stroke="transparent" points="970.5,-558.5 970.5,-579.5 1144.5,-579.5 1144.5,-558.5 970.5,-558.5"/>
<polygon fill="none" stroke="#8ccbf2" points="970.5,-558.5 970.5,-579.5 1144.5,-579.5 1144.5,-558.5 970.5,-558.5"/>
<text text-anchor="start" x="1040.5" y="-566.3" font-family="mono" font-weight="bold" font-size="14.00" fill="#c83500">Link</text>
<polygon fill="#ddeeff" stroke="transparent" points="970.5,-537.5 970.5,-558.5 1144.5,-558.5 1144.5,-537.5 970.5,-537.5"/>
<polygon fill="none" stroke="#8ccbf2" points="970.5,-537.5 970.5,-558.5 1144.5,-558.5 1144.5,-537.5 970.5,-537.5"/>
<text text-anchor="start" x="973.5" y="-545.3" font-family="mono" font-size="14.00" fill="#c83500">anchor</text>
<text text-anchor="start" x="1023.5" y="-545.3" font-family="Times,serif" font-size="14.00" fill="#000000"> : </text>
<text text-anchor="start" x="1035.5" y="-545.3" font-family="mono" font-size="14.00" fill="#c83500">anyURI</text>
<polygon fill="#ddeeff" stroke="transparent" points="970.5,-516.5 970.5,-537.5 1144.5,-537.5 1144.5,-516.5 970.5,-516.5"/>
<polygon fill="none" stroke="#8ccbf2" points="970.5,-516.5 970.5,-537.5 1144.5,-537.5 1144.5,-516.5 970.5,-516.5"/>
<text text-anchor="start" x="973.5" y="-524.3" font-family="mono" font-size="14.00" fill="#c83500">type</text>
<text text-anchor="start" x="1007.5" y="-524.3" font-family="Times,serif" font-size="14.00" fill="#000000"> : </text>
<text text-anchor="start" x="1019.5" y="-524.3" font-family="mono" font-size="14.00" fill="#c83500">string</text>
<polygon fill="#ddeeff" stroke="transparent" points="970.5,-495.5 970.5,-516.5 1144.5,-516.5 1144.5,-495.5 970.5,-495.5"/>
<polygon fill="none" stroke="#8ccbf2" points="970.5,-495.5 970.5,-516.5 1144.5,-516.5 1144.5,-495.5 970.5,-495.5"/>
<text text-anchor="start" x="973.5" y="-503.3" font-family="mono" font-size="14.00" fill="#c83500">href</text>
<text text-anchor="start" x="1007.5" y="-503.3" font-family="Times,serif" font-size="14.00" fill="#000000"> : </text>
<text text-anchor="start" x="1019.5" y="-503.3" font-family="mono" font-size="14.00" fill="#c83500">anyURI</text>
<text text-anchor="start" x="1069.5" y="-503.3" font-family="Times,serif" font-size="14.00" fill="#000000"> </text>
<text text-anchor="start" x="1073.5" y="-503.3" font-family="Times,serif" font-style="italic" font-size="14.00" fill="#000000">(mandatory)</text>
<polygon fill="#ddeeff" stroke="transparent" points="970.5,-474.5 970.5,-495.5 1144.5,-495.5 1144.5,-474.5 970.5,-474.5"/>
<polygon fill="none" stroke="#8ccbf2" points="970.5,-474.5 970.5,-495.5 1144.5,-495.5 1144.5,-474.5 970.5,-474.5"/>
<text text-anchor="start" x="973.5" y="-482.3" font-family="mono" font-size="14.00" fill="#c83500">rel</text>
<text text-anchor="start" x="998.5" y="-482.3" font-family="Times,serif" font-size="14.00" fill="#000000"> : </text>
<text text-anchor="start" x="1010.5" y="-482.3" font-family="mono" font-size="14.00" fill="#c83500">string</text>
</g>
<!-- ExpectedResponse -->
<g id="node7" class="node">
<title>ExpectedResponse</title>
<polygon fill="#8ccbf2" stroke="transparent" points="95.5,-25 95.5,-46 254.5,-46 254.5,-25 95.5,-25"/>
<polygon fill="none" stroke="#8ccbf2" points="95.5,-25 95.5,-46 254.5,-46 254.5,-25 95.5,-25"/>
<text text-anchor="start" x="108.5" y="-32.8" font-family="mono" font-weight="bold" font-size="14.00" fill="#c83500">ExpectedResponse</text>
<polygon fill="#ddeeff" stroke="transparent" points="95.5,-4 95.5,-25 254.5,-25 254.5,-4 95.5,-4"/>
<polygon fill="none" stroke="#8ccbf2" points="95.5,-4 95.5,-25 254.5,-25 254.5,-4 95.5,-4"/>
<text text-anchor="start" x="98.5" y="-11.8" font-family="mono" font-size="14.00" fill="#c83500">contentType</text>
<text text-anchor="start" x="189.5" y="-11.8" font-family="Times,serif" font-size="14.00" fill="#000000"> : </text>
<text text-anchor="start" x="201.5" y="-11.8" font-family="mono" font-size="14.00" fill="#c83500">string</text>
</g>
<!-- Form&#45;&gt;ExpectedResponse -->
<g id="edge5" class="edge">
<title>Form&#45;&gt;ExpectedResponse</title>
<path fill="none" stroke="#000000" d="M174.5,-100.8506C174.5,-86.7022 174.5,-72.5946 174.5,-60.4513"/>
<polygon fill="#000000" stroke="#000000" points="178.0001,-60.3339 174.5,-50.334 171.0001,-60.334 178.0001,-60.3339"/>
<text text-anchor="start" x="174.5" y="-71.8" font-family="mono" font-size="14.00" fill="#c83500">response</text>
<text text-anchor="middle" x="163.5" y="-54.134" font-family="Times,serif" font-size="14.00" fill="#000000">0..1</text>
</g>
<!-- Thing -->
<g id="node5" class="node">
<title>Thing</title>
<polygon fill="#8ccbf2" stroke="transparent" points="689.5,-806.5 689.5,-827.5 942.5,-827.5 942.5,-806.5 689.5,-806.5"/>
<polygon fill="none" stroke="#8ccbf2" points="689.5,-806.5 689.5,-827.5 942.5,-827.5 942.5,-806.5 689.5,-806.5"/>
<text text-anchor="start" x="795" y="-814.3" font-family="mono" font-weight="bold" font-size="14.00" fill="#c83500">Thing</text>
<polygon fill="#ddeeff" stroke="transparent" points="689.5,-785.5 689.5,-806.5 942.5,-806.5 942.5,-785.5 689.5,-785.5"/>
<polygon fill="none" stroke="#8ccbf2" points="689.5,-785.5 689.5,-806.5 942.5,-806.5 942.5,-785.5 689.5,-785.5"/>
<text text-anchor="start" x="692.5" y="-793.3" font-family="mono" font-size="14.00" fill="#c83500">id</text>
<text text-anchor="start" x="709.5" y="-793.3" font-family="Times,serif" font-size="14.00" fill="#000000"> : </text>
<text text-anchor="start" x="721.5" y="-793.3" font-family="mono" font-size="14.00" fill="#c83500">anyURI</text>
<text text-anchor="start" x="771.5" y="-793.3" font-family="Times,serif" font-size="14.00" fill="#000000"> </text>
<text text-anchor="start" x="775.5" y="-793.3" font-family="Times,serif" font-style="italic" font-size="14.00" fill="#000000">(mandatory)</text>
<polygon fill="#ddeeff" stroke="transparent" points="689.5,-764.5 689.5,-785.5 942.5,-785.5 942.5,-764.5 689.5,-764.5"/>
<polygon fill="none" stroke="#8ccbf2" points="689.5,-764.5 689.5,-785.5 942.5,-785.5 942.5,-764.5 689.5,-764.5"/>
<text text-anchor="start" x="692.5" y="-772.3" font-family="mono" font-size="14.00" fill="#c83500">created</text>
<text text-anchor="start" x="750.5" y="-772.3" font-family="Times,serif" font-size="14.00" fill="#000000"> : </text>
<text text-anchor="start" x="762.5" y="-772.3" font-family="mono" font-size="14.00" fill="#c83500">string</text>
<polygon fill="#ddeeff" stroke="transparent" points="689.5,-743.5 689.5,-764.5 942.5,-764.5 942.5,-743.5 689.5,-743.5"/>
<polygon fill="none" stroke="#8ccbf2" points="689.5,-743.5 689.5,-764.5 942.5,-764.5 942.5,-743.5 689.5,-743.5"/>
<text text-anchor="start" x="692.5" y="-751.3" font-family="mono" font-size="14.00" fill="#c83500">base</text>
<text text-anchor="start" x="726.5" y="-751.3" font-family="Times,serif" font-size="14.00" fill="#000000"> : </text>
<text text-anchor="start" x="738.5" y="-751.3" font-family="mono" font-size="14.00" fill="#c83500">anyURI</text>
<polygon fill="#ddeeff" stroke="transparent" points="689.5,-722.5 689.5,-743.5 942.5,-743.5 942.5,-722.5 689.5,-722.5"/>
<polygon fill="none" stroke="#8ccbf2" points="689.5,-722.5 689.5,-743.5 942.5,-743.5 942.5,-722.5 689.5,-722.5"/>
<text text-anchor="start" x="692.5" y="-730.3" font-family="mono" font-size="14.00" fill="#c83500">support</text>
<text text-anchor="start" x="750.5" y="-730.3" font-family="Times,serif" font-size="14.00" fill="#000000"> : </text>
<text text-anchor="start" x="762.5" y="-730.3" font-family="mono" font-size="14.00" fill="#c83500">string</text>
<polygon fill="#ddeeff" stroke="transparent" points="689.5,-701.5 689.5,-722.5 942.5,-722.5 942.5,-701.5 689.5,-701.5"/>
<polygon fill="none" stroke="#8ccbf2" points="689.5,-701.5 689.5,-722.5 942.5,-722.5 942.5,-701.5 689.5,-701.5"/>
<text text-anchor="start" x="692.5" y="-709.3" font-family="mono" font-size="14.00" fill="#c83500">security</text>
<text text-anchor="start" x="759.5" y="-709.3" font-family="Times,serif" font-size="14.00" fill="#000000"> : array of </text>
<text text-anchor="start" x="817.5" y="-709.3" font-family="mono" font-size="14.00" fill="#c83500">string</text>
<text text-anchor="start" x="867.5" y="-709.3" font-family="Times,serif" font-size="14.00" fill="#000000"> </text>
<text text-anchor="start" x="871.5" y="-709.3" font-family="Times,serif" font-style="italic" font-size="14.00" fill="#000000">(mandatory)</text>
<polygon fill="#ddeeff" stroke="transparent" points="689.5,-680.5 689.5,-701.5 942.5,-701.5 942.5,-680.5 689.5,-680.5"/>
<polygon fill="none" stroke="#8ccbf2" points="689.5,-680.5 689.5,-701.5 942.5,-701.5 942.5,-680.5 689.5,-680.5"/>
<text text-anchor="start" x="692.5" y="-688.3" font-family="mono" font-size="14.00" fill="#c83500">lastModified</text>
<text text-anchor="start" x="792.5" y="-688.3" font-family="Times,serif" font-size="14.00" fill="#000000"> : </text>
<text text-anchor="start" x="804.5" y="-688.3" font-family="mono" font-size="14.00" fill="#c83500">string</text>
<polygon fill="#ddeeff" stroke="transparent" points="689.5,-659.5 689.5,-680.5 942.5,-680.5 942.5,-659.5 689.5,-659.5"/>
<polygon fill="none" stroke="#8ccbf2" points="689.5,-659.5 689.5,-680.5 942.5,-680.5 942.5,-659.5 689.5,-659.5"/>
<text text-anchor="start" x="692.5" y="-667.3" font-family="mono" font-size="14.00" fill="#c83500">description</text>
<text text-anchor="start" x="783.5" y="-667.3" font-family="Times,serif" font-size="14.00" fill="#000000"> : </text>
<text text-anchor="start" x="795.5" y="-667.3" font-family="mono" font-size="14.00" fill="#c83500">string</text>
<polygon fill="#ddeeff" stroke="transparent" points="689.5,-638.5 689.5,-659.5 942.5,-659.5 942.5,-638.5 689.5,-638.5"/>
<polygon fill="none" stroke="#8ccbf2" points="689.5,-638.5 689.5,-659.5 942.5,-659.5 942.5,-638.5 689.5,-638.5"/>
<text text-anchor="start" x="692.5" y="-646.3" font-family="mono" font-size="14.00" fill="#c83500">name</text>
<text text-anchor="start" x="726.5" y="-646.3" font-family="Times,serif" font-size="14.00" fill="#000000"> : </text>
<text text-anchor="start" x="738.5" y="-646.3" font-family="mono" font-size="14.00" fill="#c83500">string</text>
<text text-anchor="start" x="788.5" y="-646.3" font-family="Times,serif" font-size="14.00" fill="#000000"> </text>
<text text-anchor="start" x="792.5" y="-646.3" font-family="Times,serif" font-style="italic" font-size="14.00" fill="#000000">(mandatory)</text>
</g>
<!-- Thing&#45;&gt;MultiLanguage -->
<g id="edge9" class="edge">
<title>Thing&#45;&gt;MultiLanguage</title>
<path fill="none" stroke="#000000" d="M680.8737,-716.2919C532.736,-694.2689 308.7478,-650.7857 257.5,-584 228.2294,-545.8549 237.4297,-310.941 269.5,-274 295.6709,-243.8543 322.5002,-275.2013 357.5,-256 380.2125,-243.5397 400.2821,-221.9101 413.9312,-204.6623"/>
<polygon fill="#000000" stroke="#000000" points="416.7989,-206.6742 420.0993,-196.6065 411.241,-202.4186 416.7989,-206.6742"/>
<text text-anchor="start" x="240.5" y="-441.8" font-family="mono" font-size="14.00" fill="#c83500">descriptions</text>
<text text-anchor="middle" x="431.0993" y="-200.4065" font-family="Times,serif" font-size="14.00" fill="#000000">0..1</text>
</g>
<!-- Thing&#45;&gt;Link -->
<g id="edge13" class="edge">
<title>Thing&#45;&gt;Link</title>
<path fill="none" stroke="#000000" d="M931.5383,-634.7236C949.0517,-619.8155 966.7038,-604.7893 983.0239,-590.897"/>
<polygon fill="#000000" stroke="#000000" points="985.5761,-593.3208 990.9222,-584.1737 981.0387,-587.9905 985.5761,-593.3208"/>
<text text-anchor="start" x="965.5" y="-605.8" font-family="mono" font-size="14.00" fill="#c83500">links</text>
<text text-anchor="middle" x="979.9222" y="-587.9737" font-family="Times,serif" font-size="14.00" fill="#000000">0..*</text>
</g>
<!-- Thing&#45;&gt;Form -->
<g id="edge10" class="edge">
<title>Thing&#45;&gt;Form</title>
<path fill="none" stroke="#000000" d="M680.8252,-724.4013C566.7119,-712.184 401.5396,-683.6303 272.5,-617 152.1878,-554.8762 149.9754,-375.3968 161.0214,-266.2697"/>
<polygon fill="#000000" stroke="#000000" points="164.5085,-266.5761 162.0914,-256.2607 157.5481,-265.8319 164.5085,-266.5761"/>
<text text-anchor="start" x="166.5" y="-441.8" font-family="mono" font-size="14.00" fill="#c83500">forms</text>
<text text-anchor="middle" x="151.0914" y="-260.0607" font-family="Times,serif" font-size="14.00" fill="#000000">0..*</text>
</g>
<!-- Property -->
<g id="node6" class="node">
<title>Property</title>
<polygon fill="#8ccbf2" stroke="transparent" points="275.5,-527.5 275.5,-548.5 548.5,-548.5 548.5,-527.5 275.5,-527.5"/>
<polygon fill="none" stroke="#8ccbf2" points="275.5,-527.5 275.5,-548.5 548.5,-548.5 548.5,-527.5 275.5,-527.5"/>
<text text-anchor="start" x="378.5" y="-535.3" font-family="mono" font-weight="bold" font-size="14.00" fill="#c83500">Property</text>
<polygon fill="#ddeeff" stroke="transparent" points="275.5,-506.5 275.5,-527.5 548.5,-527.5 548.5,-506.5 275.5,-506.5"/>
<polygon fill="none" stroke="#8ccbf2" points="275.5,-506.5 275.5,-527.5 548.5,-527.5 548.5,-506.5 275.5,-506.5"/>
<text text-anchor="start" x="278.5" y="-514.3" font-family="mono" font-size="14.00" fill="#c83500">observable</text>
<text text-anchor="start" x="361.5" y="-514.3" font-family="Times,serif" font-size="14.00" fill="#000000"> : </text>
<text text-anchor="start" x="373.5" y="-514.3" font-family="mono" font-size="14.00" fill="#c83500">boolean</text>
<text text-anchor="start" x="431.5" y="-514.3" font-family="Times,serif" font-size="14.00" fill="#000000"> = false </text>
<text text-anchor="start" x="477.5" y="-514.3" font-family="Times,serif" font-style="italic" font-size="14.00" fill="#000000">(mandatory)</text>
</g>
<!-- Thing&#45;&gt;Property -->
<g id="edge6" class="edge">
<title>Thing&#45;&gt;Property</title>
<path fill="none" stroke="#000000" d="M680.9738,-664.905C609.3685,-628.3934 524.9833,-585.3652 469.9731,-557.3155"/>
<polygon fill="#000000" stroke="#000000" points="471.2276,-554.0265 460.729,-552.6019 468.0478,-560.2626 471.2276,-554.0265"/>
<text text-anchor="start" x="577.5" y="-605.8" font-family="mono" font-size="14.00" fill="#c83500">properties</text>
<text text-anchor="middle" x="449.729" y="-556.4019" font-family="Times,serif" font-size="14.00" fill="#000000">0..1</text>
</g>
<!-- Action -->
<g id="node8" class="node">
<title>Action</title>
<polygon fill="#8ccbf2" stroke="transparent" points="582.5,-537.5 582.5,-558.5 855.5,-558.5 855.5,-537.5 582.5,-537.5"/>
<polygon fill="none" stroke="#8ccbf2" points="582.5,-537.5 582.5,-558.5 855.5,-558.5 855.5,-537.5 582.5,-537.5"/>
<text text-anchor="start" x="694" y="-545.3" font-family="mono" font-weight="bold" font-size="14.00" fill="#c83500">Action</text>
<polygon fill="#ddeeff" stroke="transparent" points="582.5,-516.5 582.5,-537.5 855.5,-537.5 855.5,-516.5 582.5,-516.5"/>
<polygon fill="none" stroke="#8ccbf2" points="582.5,-516.5 582.5,-537.5 855.5,-537.5 855.5,-516.5 582.5,-516.5"/>
<text text-anchor="start" x="585.5" y="-524.3" font-family="mono" font-size="14.00" fill="#c83500">idempotent</text>
<text text-anchor="start" x="668.5" y="-524.3" font-family="Times,serif" font-size="14.00" fill="#000000"> : </text>
<text text-anchor="start" x="680.5" y="-524.3" font-family="mono" font-size="14.00" fill="#c83500">boolean</text>
<text text-anchor="start" x="738.5" y="-524.3" font-family="Times,serif" font-size="14.00" fill="#000000"> = false </text>
<text text-anchor="start" x="784.5" y="-524.3" font-family="Times,serif" font-style="italic" font-size="14.00" fill="#000000">(mandatory)</text>
<polygon fill="#ddeeff" stroke="transparent" points="582.5,-495.5 582.5,-516.5 855.5,-516.5 855.5,-495.5 582.5,-495.5"/>
<polygon fill="none" stroke="#8ccbf2" points="582.5,-495.5 582.5,-516.5 855.5,-516.5 855.5,-495.5 582.5,-495.5"/>
<text text-anchor="start" x="585.5" y="-503.3" font-family="mono" font-size="14.00" fill="#c83500">safe</text>
<text text-anchor="start" x="619.5" y="-503.3" font-family="Times,serif" font-size="14.00" fill="#000000"> : </text>
<text text-anchor="start" x="631.5" y="-503.3" font-family="mono" font-size="14.00" fill="#c83500">boolean</text>
<text text-anchor="start" x="689.5" y="-503.3" font-family="Times,serif" font-size="14.00" fill="#000000"> = false </text>
<text text-anchor="start" x="735.5" y="-503.3" font-family="Times,serif" font-style="italic" font-size="14.00" fill="#000000">(mandatory)</text>
</g>
<!-- Thing&#45;&gt;Action -->
<g id="edge12" class="edge">
<title>Thing&#45;&gt;Action</title>
<path fill="none" stroke="#000000" d="M768.9888,-634.7236C758.7204,-612.9165 748.333,-590.8566 739.6717,-572.4626"/>
<polygon fill="#000000" stroke="#000000" points="742.7362,-570.7548 735.3096,-563.1987 736.4032,-573.7369 742.7362,-570.7548"/>
<text text-anchor="start" x="758.5" y="-605.8" font-family="mono" font-size="14.00" fill="#c83500">actions</text>
<text text-anchor="middle" x="724.3096" y="-566.9987" font-family="Times,serif" font-size="14.00" fill="#000000">0..1</text>
</g>
<!-- Event -->
<g id="node9" class="node">
<title>Event</title>
<polygon fill="#8ccbf2" stroke="transparent" points="888.5,-516.5 888.5,-537.5 936.5,-537.5 936.5,-516.5 888.5,-516.5"/>
<polygon fill="none" stroke="#8ccbf2" points="888.5,-516.5 888.5,-537.5 936.5,-537.5 936.5,-516.5 888.5,-516.5"/>
<text text-anchor="start" x="891.5" y="-524.3" font-family="mono" font-weight="bold" font-size="14.00" fill="#c83500">Event</text>
</g>
<!-- Thing&#45;&gt;Event -->
<g id="edge8" class="edge">
<title>Thing&#45;&gt;Event</title>
<path fill="none" stroke="#000000" d="M862.0112,-634.7236C875.8628,-605.3068 889.931,-575.4299 899.6865,-554.7122"/>
<polygon fill="#000000" stroke="#000000" points="902.8853,-556.1346 903.9789,-545.5964 896.5522,-553.1525 902.8853,-556.1346"/>
<text text-anchor="start" x="876.5" y="-605.8" font-family="mono" font-size="14.00" fill="#c83500">events</text>
<text text-anchor="middle" x="892.9789" y="-549.3964" font-family="Times,serif" font-size="14.00" fill="#000000">0..1</text>
</g>
<!-- Versioning -->
<g id="node10" class="node">
<title>Versioning</title>
<polygon fill="#8ccbf2" stroke="transparent" points="1179.5,-527.5 1179.5,-548.5 1386.5,-548.5 1386.5,-527.5 1179.5,-527.5"/>
<polygon fill="none" stroke="#8ccbf2" points="1179.5,-527.5 1179.5,-548.5 1386.5,-548.5 1386.5,-527.5 1179.5,-527.5"/>
<text text-anchor="start" x="1241.5" y="-535.3" font-family="mono" font-weight="bold" font-size="14.00" fill="#c83500">Versioning</text>
<polygon fill="#ddeeff" stroke="transparent" points="1179.5,-506.5 1179.5,-527.5 1386.5,-527.5 1386.5,-506.5 1179.5,-506.5"/>
<polygon fill="none" stroke="#8ccbf2" points="1179.5,-506.5 1179.5,-527.5 1386.5,-527.5 1386.5,-506.5 1179.5,-506.5"/>
<text text-anchor="start" x="1182.5" y="-514.3" font-family="mono" font-size="14.00" fill="#c83500">instance</text>
<text text-anchor="start" x="1249.5" y="-514.3" font-family="Times,serif" font-size="14.00" fill="#000000"> : </text>
<text text-anchor="start" x="1261.5" y="-514.3" font-family="mono" font-size="14.00" fill="#c83500">string</text>
<text text-anchor="start" x="1311.5" y="-514.3" font-family="Times,serif" font-size="14.00" fill="#000000"> </text>
<text text-anchor="start" x="1315.5" y="-514.3" font-family="Times,serif" font-style="italic" font-size="14.00" fill="#000000">(mandatory)</text>
</g>
<!-- Thing&#45;&gt;Versioning -->
<g id="edge7" class="edge">
<title>Thing&#45;&gt;Versioning</title>
<path fill="none" stroke="#000000" d="M950.2223,-676.3633C1014.3966,-648.8724 1092.1141,-615.1819 1161.5,-584 1180.7636,-575.343 1201.6387,-565.693 1220.5393,-556.8528"/>
<polygon fill="#000000" stroke="#000000" points="1222.0739,-559.999 1229.6435,-552.586 1219.1033,-553.6605 1222.0739,-559.999"/>
<text text-anchor="start" x="1115.5" y="-605.8" font-family="mono" font-size="14.00" fill="#c83500">version</text>
<text text-anchor="middle" x="1218.6435" y="-556.386" font-family="Times,serif" font-size="14.00" fill="#000000">0..1</text>
</g>
<!-- SecurityScheme -->
<g id="node12" class="node">
<title>SecurityScheme</title>
<polygon fill="#f2f2f2" stroke="transparent" points="1420.5,-516.5 1420.5,-537.5 1542.5,-537.5 1542.5,-516.5 1420.5,-516.5"/>
<polygon fill="none" stroke="#8c8c8c" points="1420.5,-516.5 1420.5,-537.5 1542.5,-537.5 1542.5,-516.5 1420.5,-516.5"/>
<text text-anchor="start" x="1423.5" y="-524.3" font-family="mono" font-weight="bold" font-size="14.00" fill="#000000">SecurityScheme</text>
</g>
<!-- Thing&#45;&gt;SecurityScheme -->
<g id="edge11" class="edge">
<title>Thing&#45;&gt;SecurityScheme</title>
<path fill="none" stroke="#000000" d="M950.2661,-713.827C1072.4555,-692.6297 1255.401,-652.3756 1402.5,-584 1420.395,-575.6819 1438.4386,-563.1612 1452.7551,-552.0188"/>
<polygon fill="#000000" stroke="#000000" points="1455.0909,-554.6327 1460.7245,-545.6597 1450.7249,-549.1611 1455.0909,-554.6327"/>
<text text-anchor="start" x="1358.5" y="-605.8" font-family="mono" font-size="14.00" fill="#c83500">securityDefinitions</text>
<text text-anchor="middle" x="1449.7245" y="-549.4597" font-family="Times,serif" font-size="14.00" fill="#000000">1..1</text>
</g>
<!-- Property&#45;&gt;InteractionPattern -->
<g id="edge21" class="edge">
<title>Property&#45;&gt;InteractionPattern</title>
<path fill="none" stroke="#000000" d="M419.0489,-502.2344C424.8333,-482.8741 433.0905,-455.2379 440.7146,-429.7204"/>
<polygon fill="#ffffff" stroke="#000000" points="444.0899,-430.6494 443.5992,-420.066 437.3829,-428.6454 444.0899,-430.6494"/>
</g>
<!-- Action&#45;&gt;InteractionPattern -->
<g id="edge20" class="edge">
<title>Action&#45;&gt;InteractionPattern</title>
<path fill="none" stroke="#000000" d="M662.5178,-491.9144C632.1189,-472.5911 593.6537,-448.1403 558.4642,-425.7718"/>
<polygon fill="#ffffff" stroke="#000000" points="559.9121,-422.5449 549.5952,-420.1341 556.1569,-428.4525 559.9121,-422.5449"/>
</g>
<!-- Action&#45;&gt;DataSchema -->
<g id="edge14" class="edge">
<title>Action&#45;&gt;DataSchema</title>
<path fill="none" stroke="#000000" d="M694.4302,-491.9319C682.2539,-471.7787 668.7559,-445.5499 662.5,-420 650.5559,-371.2187 645.4121,-354.2258 662.5,-307 677.7176,-264.9432 713.3714,-226.9675 739.3527,-203.3926"/>
<polygon fill="#000000" stroke="#000000" points="741.9105,-205.8026 747.0721,-196.55 737.2671,-200.5643 741.9105,-205.8026"/>
<text text-anchor="start" x="662.5" y="-359.8" font-family="mono" font-size="14.00" fill="#c83500">input</text>
<text text-anchor="middle" x="736.0721" y="-200.35" font-family="Times,serif" font-size="14.00" fill="#000000">0..1</text>
</g>
<!-- Action&#45;&gt;DataSchema -->
<g id="edge15" class="edge">
<title>Action&#45;&gt;DataSchema</title>
<path fill="none" stroke="#000000" d="M720.7105,-491.809C723.7304,-448.0586 730.0042,-371.7484 740.5,-307 746.1608,-272.0787 755.5689,-232.4423 762.1289,-206.5393"/>
<polygon fill="#000000" stroke="#000000" points="765.5677,-207.219 764.6609,-196.663 758.787,-205.4805 765.5677,-207.219"/>
<text text-anchor="start" x="740.5" y="-359.8" font-family="mono" font-size="14.00" fill="#c83500">output</text>
<text text-anchor="middle" x="775.6609" y="-200.463" font-family="Times,serif" font-size="14.00" fill="#000000">0..1</text>
</g>
<!-- Event&#45;&gt;InteractionPattern -->
<g id="edge19" class="edge">
<title>Event&#45;&gt;InteractionPattern</title>
<path fill="none" stroke="#000000" d="M903.9465,-509.4268C896.9846,-496.7084 885.9503,-480.3469 871.5,-471 859.8263,-463.4491 639.9116,-423.6634 626.5,-420 607.658,-414.8533 587.8336,-408.7374 568.7027,-402.4614"/>
<polygon fill="#ffffff" stroke="#000000" points="569.6671,-399.0939 559.0737,-399.2707 567.4652,-405.7386 569.6671,-399.0939"/>
</g>
<!-- Event&#45;&gt;DataSchema -->
<g id="edge16" class="edge">
<title>Event&#45;&gt;DataSchema</title>
<path fill="none" stroke="#000000" d="M900.0003,-509.3621C892.0896,-498.1174 881.5015,-483.486 871.5,-471 852.6016,-447.407 840.3887,-446.8492 826.5,-420 807.2019,-382.6937 784.231,-262.0992 774.3796,-206.7465"/>
<polygon fill="#000000" stroke="#000000" points="777.7722,-205.8304 772.5892,-196.5899 770.8784,-207.0457 777.7722,-205.8304"/>
<text text-anchor="start" x="826.5" y="-359.8" font-family="mono" font-size="14.00" fill="#c83500">subscription</text>
<text text-anchor="middle" x="761.5892" y="-200.3899" font-family="Times,serif" font-size="14.00" fill="#000000">0..1</text>
</g>
<!-- Event&#45;&gt;DataSchema -->
<g id="edge17" class="edge">
<title>Event&#45;&gt;DataSchema</title>
<path fill="none" stroke="#000000" d="M919.3377,-509.2429C932.8598,-470.0051 959.0179,-375.6361 926.5,-307 903.743,-258.9664 853.2626,-222.9114 815.65,-201.4032"/>
<polygon fill="#000000" stroke="#000000" points="817.3119,-198.3226 806.8729,-196.5122 813.9044,-204.4373 817.3119,-198.3226"/>
<text text-anchor="start" x="942.5" y="-359.8" font-family="mono" font-size="14.00" fill="#c83500">cancellation</text>
<text text-anchor="middle" x="817.8729" y="-200.3122" font-family="Times,serif" font-size="14.00" fill="#000000">0..1</text>
</g>
<!-- Event&#45;&gt;DataSchema -->
<g id="edge18" class="edge">
<title>Event&#45;&gt;DataSchema</title>
<path fill="none" stroke="#000000" d="M922.7661,-509.3405C930.1765,-497.3866 941.0427,-481.9773 953.5,-471 988.868,-439.8339 1022.4822,-460.5632 1046.5,-420 1072.0879,-376.7851 1073.5263,-349.3303 1046.5,-307 999.4884,-233.3676 898.2213,-201.2854 832.0286,-187.7714"/>
<polygon fill="#000000" stroke="#000000" points="832.61,-184.3188 822.124,-185.8338 831.2661,-191.1886 832.61,-184.3188"/>
<text text-anchor="start" x="1066.5" y="-359.8" font-family="mono" font-size="14.00" fill="#c83500">data</text>
<text text-anchor="middle" x="833.124" y="-174.6338" font-family="Times,serif" font-size="14.00" fill="#000000">0..1</text>
</g>
</g>
</svg>
