<?xml version="1.0" encoding="UTF-8" standalone="no"?>
<!DOCTYPE svg PUBLIC "-//W3C//DTD SVG 1.1//EN"
 "http://www.w3.org/Graphics/SVG/1.1/DTD/svg11.dtd">
<!-- Generated by graphviz version 2.38.0 (20140413.2041)
 -->
<!-- Title: %3 Pages: 1 -->
<svg width="1361pt" height="861pt"
 viewBox="0.00 0.00 1361.08 861.00" xmlns="http://www.w3.org/2000/svg" xmlns:xlink="http://www.w3.org/1999/xlink">
<g id="graph0" class="graph" transform="scale(1 1) rotate(0) translate(4 857)">
<title>%3</title>
<polygon fill="white" stroke="none" points="-4,4 -4,-857 1357.08,-857 1357.08,4 -4,4"/>
<!-- MultiLanguage -->
<g id="node1" class="node"><title>MultiLanguage</title>
<polygon fill="#8ccbf2" stroke="none" points="129.08,-167.5 129.08,-188.5 243.08,-188.5 243.08,-167.5 129.08,-167.5"/>
<polygon fill="none" stroke="#8ccbf2" points="129.08,-167.5 129.08,-188.5 243.08,-188.5 243.08,-167.5 129.08,-167.5"/>
<text text-anchor="start" x="132.08" y="-175.3" font-family="mono" font-weight="bold" font-size="14.00" fill="#c83500">MultiLanguage</text>
</g>
<!-- Link -->
<g id="node2" class="node"><title>Link</title>
<polygon fill="#8ccbf2" stroke="none" points="41.08,-516.5 41.08,-537.5 215.08,-537.5 215.08,-516.5 41.08,-516.5"/>
<polygon fill="none" stroke="#8ccbf2" points="41.08,-516.5 41.08,-537.5 215.08,-537.5 215.08,-516.5 41.08,-516.5"/>
<text text-anchor="start" x="111.08" y="-524.3" font-family="mono" font-weight="bold" font-size="14.00" fill="#c83500">Link</text>
<polygon fill="#ddeeff" stroke="none" points="41.08,-495.5 41.08,-516.5 215.08,-516.5 215.08,-495.5 41.08,-495.5"/>
<polygon fill="none" stroke="#8ccbf2" points="41.08,-495.5 41.08,-516.5 215.08,-516.5 215.08,-495.5 41.08,-495.5"/>
<text text-anchor="start" x="44.08" y="-503.3" font-family="mono" font-size="14.00" fill="#c83500">type</text>
<text text-anchor="start" x="78.08" y="-503.3" font-family="Times,serif" font-size="14.00"> : </text>
<text text-anchor="start" x="90.08" y="-503.3" font-family="mono" font-size="14.00" fill="#c83500">string</text>
<polygon fill="#ddeeff" stroke="none" points="41.08,-474.5 41.08,-495.5 215.08,-495.5 215.08,-474.5 41.08,-474.5"/>
<polygon fill="none" stroke="#8ccbf2" points="41.08,-474.5 41.08,-495.5 215.08,-495.5 215.08,-474.5 41.08,-474.5"/>
<text text-anchor="start" x="44.08" y="-482.3" font-family="mono" font-size="14.00" fill="#c83500">rel</text>
<text text-anchor="start" x="69.08" y="-482.3" font-family="Times,serif" font-size="14.00"> : </text>
<text text-anchor="start" x="81.08" y="-482.3" font-family="mono" font-size="14.00" fill="#c83500">string</text>
<polygon fill="#ddeeff" stroke="none" points="41.08,-453.5 41.08,-474.5 215.08,-474.5 215.08,-453.5 41.08,-453.5"/>
<polygon fill="none" stroke="#8ccbf2" points="41.08,-453.5 41.08,-474.5 215.08,-474.5 215.08,-453.5 41.08,-453.5"/>
<text text-anchor="start" x="44.08" y="-461.3" font-family="mono" font-size="14.00" fill="#c83500">href</text>
<text text-anchor="start" x="78.08" y="-461.3" font-family="Times,serif" font-size="14.00"> : </text>
<text text-anchor="start" x="90.08" y="-461.3" font-family="mono" font-size="14.00" fill="#c83500">anyURI</text>
<text text-anchor="start" x="140.08" y="-461.3" font-family="Times,serif" font-size="14.00"> </text>
<text text-anchor="start" x="144.08" y="-461.3" font-family="Times,serif" font-style="italic" font-size="14.00">(mandatory)</text>
<polygon fill="#ddeeff" stroke="none" points="41.08,-432.5 41.08,-453.5 215.08,-453.5 215.08,-432.5 41.08,-432.5"/>
<polygon fill="none" stroke="#8ccbf2" points="41.08,-432.5 41.08,-453.5 215.08,-453.5 215.08,-432.5 41.08,-432.5"/>
<text text-anchor="start" x="44.08" y="-440.3" font-family="mono" font-size="14.00" fill="#c83500">anchor</text>
<text text-anchor="start" x="94.08" y="-440.3" font-family="Times,serif" font-size="14.00"> : </text>
<text text-anchor="start" x="106.08" y="-440.3" font-family="mono" font-size="14.00" fill="#c83500">anyURI</text>
</g>
<!-- Form -->
<g id="node3" class="node"><title>Form</title>
<polygon fill="#8ccbf2" stroke="none" points="285.08,-230.5 285.08,-251.5 516.08,-251.5 516.08,-230.5 285.08,-230.5"/>
<polygon fill="none" stroke="#8ccbf2" points="285.08,-230.5 285.08,-251.5 516.08,-251.5 516.08,-230.5 285.08,-230.5"/>
<text text-anchor="start" x="383.58" y="-238.3" font-family="mono" font-weight="bold" font-size="14.00" fill="#c83500">Form</text>
<polygon fill="#ddeeff" stroke="none" points="285.08,-209.5 285.08,-230.5 516.08,-230.5 516.08,-209.5 285.08,-209.5"/>
<polygon fill="none" stroke="#8ccbf2" points="285.08,-209.5 285.08,-230.5 516.08,-230.5 516.08,-209.5 285.08,-209.5"/>
<text text-anchor="start" x="288.08" y="-217.3" font-family="mono" font-size="14.00" fill="#c83500">security</text>
<text text-anchor="start" x="355.08" y="-217.3" font-family="Times,serif" font-size="14.00"> : array of </text>
<text text-anchor="start" x="413.08" y="-217.3" font-family="mono" font-size="14.00" fill="#c83500">string</text>
<polygon fill="#ddeeff" stroke="none" points="285.08,-188.5 285.08,-209.5 516.08,-209.5 516.08,-188.5 285.08,-188.5"/>
<polygon fill="none" stroke="#8ccbf2" points="285.08,-188.5 285.08,-209.5 516.08,-209.5 516.08,-188.5 285.08,-188.5"/>
<text text-anchor="start" x="288.08" y="-196.3" font-family="mono" font-size="14.00" fill="#c83500">scopes</text>
<text text-anchor="start" x="338.08" y="-196.3" font-family="Times,serif" font-size="14.00"> : array of </text>
<text text-anchor="start" x="396.08" y="-196.3" font-family="mono" font-size="14.00" fill="#c83500">string</text>
<polygon fill="#ddeeff" stroke="none" points="285.08,-167.5 285.08,-188.5 516.08,-188.5 516.08,-167.5 285.08,-167.5"/>
<polygon fill="none" stroke="#8ccbf2" points="285.08,-167.5 285.08,-188.5 516.08,-188.5 516.08,-167.5 285.08,-167.5"/>
<text text-anchor="start" x="288.08" y="-175.3" font-family="mono" font-size="14.00" fill="#c83500">subprotocol</text>
<text text-anchor="start" x="379.08" y="-175.3" font-family="Times,serif" font-size="14.00"> : </text>
<text text-anchor="start" x="391.08" y="-175.3" font-family="mono" font-size="14.00" fill="#c83500">string</text>
<polygon fill="#ddeeff" stroke="none" points="285.08,-146.5 285.08,-167.5 516.08,-167.5 516.08,-146.5 285.08,-146.5"/>
<polygon fill="none" stroke="#8ccbf2" points="285.08,-146.5 285.08,-167.5 516.08,-167.5 516.08,-146.5 285.08,-146.5"/>
<text text-anchor="start" x="288.08" y="-154.3" font-family="mono" font-size="14.00" fill="#c83500">href</text>
<text text-anchor="start" x="322.08" y="-154.3" font-family="Times,serif" font-size="14.00"> : </text>
<text text-anchor="start" x="334.08" y="-154.3" font-family="mono" font-size="14.00" fill="#c83500">anyURI</text>
<text text-anchor="start" x="384.08" y="-154.3" font-family="Times,serif" font-size="14.00"> </text>
<text text-anchor="start" x="388.08" y="-154.3" font-family="Times,serif" font-style="italic" font-size="14.00">(mandatory)</text>
<polygon fill="#ddeeff" stroke="none" points="285.08,-125.5 285.08,-146.5 516.08,-146.5 516.08,-125.5 285.08,-125.5"/>
<polygon fill="none" stroke="#8ccbf2" points="285.08,-125.5 285.08,-146.5 516.08,-146.5 516.08,-125.5 285.08,-125.5"/>
<text text-anchor="start" x="288.08" y="-133.3" font-family="mono" font-size="14.00" fill="#c83500">op</text>
<text text-anchor="start" x="305.08" y="-133.3" font-family="Times,serif" font-size="14.00"> : </text>
<text text-anchor="start" x="317.08" y="-133.3" font-family="mono" font-size="14.00" fill="#c83500">string</text>
<polygon fill="#ddeeff" stroke="none" points="285.08,-104.5 285.08,-125.5 516.08,-125.5 516.08,-104.5 285.08,-104.5"/>
<polygon fill="none" stroke="#8ccbf2" points="285.08,-104.5 285.08,-125.5 516.08,-125.5 516.08,-104.5 285.08,-104.5"/>
<text text-anchor="start" x="288.08" y="-112.3" font-family="mono" font-size="14.00" fill="#c83500">contentType</text>
<text text-anchor="start" x="379.08" y="-112.3" font-family="Times,serif" font-size="14.00"> : </text>
<text text-anchor="start" x="391.08" y="-112.3" font-family="mono" font-size="14.00" fill="#c83500">string</text>
<text text-anchor="start" x="441.08" y="-112.3" font-family="Times,serif" font-size="14.00"> </text>
<text text-anchor="start" x="445.08" y="-112.3" font-family="Times,serif" font-style="italic" font-size="14.00">(mandatory)</text>
</g>
<!-- ExpectedResponse -->
<g id="node6" class="node"><title>ExpectedResponse</title>
<polygon fill="#8ccbf2" stroke="none" points="285.08,-25 285.08,-46 516.08,-46 516.08,-25 285.08,-25"/>
<polygon fill="none" stroke="#8ccbf2" points="285.08,-25 285.08,-46 516.08,-46 516.08,-25 285.08,-25"/>
<text text-anchor="start" x="334.08" y="-32.8" font-family="mono" font-weight="bold" font-size="14.00" fill="#c83500">ExpectedResponse</text>
<polygon fill="#ddeeff" stroke="none" points="285.08,-4 285.08,-25 516.08,-25 516.08,-4 285.08,-4"/>
<polygon fill="none" stroke="#8ccbf2" points="285.08,-4 285.08,-25 516.08,-25 516.08,-4 285.08,-4"/>
<text text-anchor="start" x="288.08" y="-11.8" font-family="mono" font-size="14.00" fill="#c83500">contentType</text>
<text text-anchor="start" x="379.08" y="-11.8" font-family="Times,serif" font-size="14.00"> : </text>
<text text-anchor="start" x="391.08" y="-11.8" font-family="mono" font-size="14.00" fill="#c83500">string</text>
<text text-anchor="start" x="441.08" y="-11.8" font-family="Times,serif" font-size="14.00"> </text>
<text text-anchor="start" x="445.08" y="-11.8" font-family="Times,serif" font-style="italic" font-size="14.00">(mandatory)</text>
</g>
<!-- Form&#45;&gt;ExpectedResponse -->
<g id="edge1" class="edge"><title>Form&#45;&gt;ExpectedResponse</title>
<path fill="none" stroke="black" d="M400.08,-100.862C400.08,-86.5577 400.08,-72.2953 400.08,-60.116"/>
<polygon fill="black" stroke="black" points="403.58,-60.0004 400.08,-50.0004 396.58,-60.0004 403.58,-60.0004"/>
<text text-anchor="start" x="400.08" y="-71.8" font-family="mono" font-size="14.00" fill="#c83500">response</text>
<text text-anchor="middle" x="389.08" y="-53.8004" font-family="Times,serif" font-size="14.00">0..1</text>
</g>
<!-- Thing -->
<g id="node4" class="node"><title>Thing</title>
<polygon fill="#8ccbf2" stroke="none" points="440.08,-828 440.08,-849 693.08,-849 693.08,-828 440.08,-828"/>
<polygon fill="none" stroke="#8ccbf2" points="440.08,-828 440.08,-849 693.08,-849 693.08,-828 440.08,-828"/>
<text text-anchor="start" x="545.58" y="-835.8" font-family="mono" font-weight="bold" font-size="14.00" fill="#c83500">Thing</text>
<polygon fill="#ddeeff" stroke="none" points="440.08,-807 440.08,-828 693.08,-828 693.08,-807 440.08,-807"/>
<polygon fill="none" stroke="#8ccbf2" points="440.08,-807 440.08,-828 693.08,-828 693.08,-807 440.08,-807"/>
<text text-anchor="start" x="443.08" y="-814.8" font-family="mono" font-size="14.00" fill="#c83500">@context</text>
<text text-anchor="start" x="510.08" y="-814.8" font-family="Times,serif" font-size="14.00"> : </text>
<text text-anchor="start" x="522.08" y="-814.8" font-family="Times,serif" font-style="italic" font-size="14.00">array</text>
<text text-anchor="start" x="553.08" y="-814.8" font-family="Times,serif" font-size="14.00"> </text>
<text text-anchor="start" x="557.08" y="-814.8" font-family="Times,serif" font-style="italic" font-size="14.00">(mandatory)</text>
<polygon fill="#ddeeff" stroke="none" points="440.08,-786 440.08,-807 693.08,-807 693.08,-786 440.08,-786"/>
<polygon fill="none" stroke="#8ccbf2" points="440.08,-786 440.08,-807 693.08,-807 693.08,-786 440.08,-786"/>
<text text-anchor="start" x="443.08" y="-793.8" font-family="mono" font-size="14.00" fill="#c83500">@type</text>
<text text-anchor="start" x="485.08" y="-793.8" font-family="Times,serif" font-size="14.00"> : </text>
<text text-anchor="start" x="497.08" y="-793.8" font-family="Times,serif" font-style="italic" font-size="14.00">array of </text>
<text text-anchor="start" x="546.08" y="-793.8" font-family="mono" font-size="14.00" fill="#c83500">string</text>
<polygon fill="#ddeeff" stroke="none" points="440.08,-765 440.08,-786 693.08,-786 693.08,-765 440.08,-765"/>
<polygon fill="none" stroke="#8ccbf2" points="440.08,-765 440.08,-786 693.08,-786 693.08,-765 440.08,-765"/>
<text text-anchor="start" x="443.08" y="-772.8" font-family="mono" font-size="14.00" fill="#c83500">id</text>
<text text-anchor="start" x="460.08" y="-772.8" font-family="Times,serif" font-size="14.00"> : </text>
<text text-anchor="start" x="472.08" y="-772.8" font-family="mono" font-size="14.00" fill="#c83500">anyURI</text>
<text text-anchor="start" x="522.08" y="-772.8" font-family="Times,serif" font-size="14.00"> </text>
<text text-anchor="start" x="526.08" y="-772.8" font-family="Times,serif" font-style="italic" font-size="14.00">(mandatory)</text>
<polygon fill="#ddeeff" stroke="none" points="440.08,-744 440.08,-765 693.08,-765 693.08,-744 440.08,-744"/>
<polygon fill="none" stroke="#8ccbf2" points="440.08,-744 440.08,-765 693.08,-765 693.08,-744 440.08,-744"/>
<text text-anchor="start" x="443.08" y="-751.8" font-family="mono" font-size="14.00" fill="#c83500">created</text>
<text text-anchor="start" x="501.08" y="-751.8" font-family="Times,serif" font-size="14.00"> : </text>
<text text-anchor="start" x="513.08" y="-751.8" font-family="mono" font-size="14.00" fill="#c83500">string</text>
<polygon fill="#ddeeff" stroke="none" points="440.08,-723 440.08,-744 693.08,-744 693.08,-723 440.08,-723"/>
<polygon fill="none" stroke="#8ccbf2" points="440.08,-723 440.08,-744 693.08,-744 693.08,-723 440.08,-723"/>
<text text-anchor="start" x="443.08" y="-730.8" font-family="mono" font-size="14.00" fill="#c83500">lastModified</text>
<text text-anchor="start" x="543.08" y="-730.8" font-family="Times,serif" font-size="14.00"> : </text>
<text text-anchor="start" x="555.08" y="-730.8" font-family="mono" font-size="14.00" fill="#c83500">string</text>
<polygon fill="#ddeeff" stroke="none" points="440.08,-702 440.08,-723 693.08,-723 693.08,-702 440.08,-702"/>
<polygon fill="none" stroke="#8ccbf2" points="440.08,-702 440.08,-723 693.08,-723 693.08,-702 440.08,-702"/>
<text text-anchor="start" x="443.08" y="-709.8" font-family="mono" font-size="14.00" fill="#c83500">support</text>
<text text-anchor="start" x="501.08" y="-709.8" font-family="Times,serif" font-size="14.00"> : </text>
<text text-anchor="start" x="513.08" y="-709.8" font-family="mono" font-size="14.00" fill="#c83500">string</text>
<polygon fill="#ddeeff" stroke="none" points="440.08,-681 440.08,-702 693.08,-702 693.08,-681 440.08,-681"/>
<polygon fill="none" stroke="#8ccbf2" points="440.08,-681 440.08,-702 693.08,-702 693.08,-681 440.08,-681"/>
<text text-anchor="start" x="443.08" y="-688.8" font-family="mono" font-size="14.00" fill="#c83500">security</text>
<text text-anchor="start" x="510.08" y="-688.8" font-family="Times,serif" font-size="14.00"> : array of </text>
<text text-anchor="start" x="568.08" y="-688.8" font-family="mono" font-size="14.00" fill="#c83500">string</text>
<text text-anchor="start" x="618.08" y="-688.8" font-family="Times,serif" font-size="14.00"> </text>
<text text-anchor="start" x="622.08" y="-688.8" font-family="Times,serif" font-style="italic" font-size="14.00">(mandatory)</text>
<polygon fill="#ddeeff" stroke="none" points="440.08,-660 440.08,-681 693.08,-681 693.08,-660 440.08,-660"/>
<polygon fill="none" stroke="#8ccbf2" points="440.08,-660 440.08,-681 693.08,-681 693.08,-660 440.08,-660"/>
<text text-anchor="start" x="443.08" y="-667.8" font-family="mono" font-size="14.00" fill="#c83500">name</text>
<text text-anchor="start" x="477.08" y="-667.8" font-family="Times,serif" font-size="14.00"> : </text>
<text text-anchor="start" x="489.08" y="-667.8" font-family="mono" font-size="14.00" fill="#c83500">string</text>
<text text-anchor="start" x="539.08" y="-667.8" font-family="Times,serif" font-size="14.00"> </text>
<text text-anchor="start" x="543.08" y="-667.8" font-family="Times,serif" font-style="italic" font-size="14.00">(mandatory)</text>
<polygon fill="#ddeeff" stroke="none" points="440.08,-639 440.08,-660 693.08,-660 693.08,-639 440.08,-639"/>
<polygon fill="none" stroke="#8ccbf2" points="440.08,-639 440.08,-660 693.08,-660 693.08,-639 440.08,-639"/>
<text text-anchor="start" x="443.08" y="-646.8" font-family="mono" font-size="14.00" fill="#c83500">names</text>
<text text-anchor="start" x="485.08" y="-646.8" font-family="Times,serif" font-size="14.00"> : </text>
<text text-anchor="start" x="497.08" y="-646.8" font-family="mono" font-size="14.00" fill="#c83500">string</text>
<text text-anchor="start" x="547.08" y="-646.8" font-family="Times,serif" font-size="14.00"> </text>
<text text-anchor="start" x="551.08" y="-646.8" font-family="Times,serif" font-style="italic" font-size="14.00">(mandatory)</text>
<polygon fill="#ddeeff" stroke="none" points="440.08,-618 440.08,-639 693.08,-639 693.08,-618 440.08,-618"/>
<polygon fill="none" stroke="#8ccbf2" points="440.08,-618 440.08,-639 693.08,-639 693.08,-618 440.08,-618"/>
<text text-anchor="start" x="443.08" y="-625.8" font-family="mono" font-size="14.00" fill="#c83500">description</text>
<text text-anchor="start" x="534.08" y="-625.8" font-family="Times,serif" font-size="14.00"> : </text>
<text text-anchor="start" x="546.08" y="-625.8" font-family="mono" font-size="14.00" fill="#c83500">string</text>
<polygon fill="#ddeeff" stroke="none" points="440.08,-597 440.08,-618 693.08,-618 693.08,-597 440.08,-597"/>
<polygon fill="none" stroke="#8ccbf2" points="440.08,-597 440.08,-618 693.08,-618 693.08,-597 440.08,-597"/>
<text text-anchor="start" x="443.08" y="-604.8" font-family="mono" font-size="14.00" fill="#c83500">base</text>
<text text-anchor="start" x="477.08" y="-604.8" font-family="Times,serif" font-size="14.00"> : </text>
<text text-anchor="start" x="489.08" y="-604.8" font-family="mono" font-size="14.00" fill="#c83500">anyURI</text>
</g>
<!-- Thing&#45;&gt;MultiLanguage -->
<g id="edge3" class="edge"><title>Thing&#45;&gt;MultiLanguage</title>
<path fill="none" stroke="black" d="M431.371,-695.925C287.123,-664.944 72.3808,-608.936 24.08,-542 -58.4807,-427.587 94.5363,-264.4 159.205,-203.569"/>
<polygon fill="black" stroke="black" points="161.688,-206.04 166.632,-196.669 156.923,-200.912 161.688,-206.04"/>
<text text-anchor="start" x="15.08" y="-399.8" font-family="mono" font-size="14.00" fill="#c83500">descriptions</text>
<text text-anchor="middle" x="155.632" y="-200.469" font-family="Times,serif" font-size="14.00">0..1</text>
</g>
<!-- Thing&#45;&gt;Link -->
<g id="edge7" class="edge"><title>Thing&#45;&gt;Link</title>
<path fill="none" stroke="black" d="M431.322,-688.065C356.617,-664.7 264.987,-628.145 195.08,-575 185.732,-567.893 177.037,-559.155 169.216,-549.965"/>
<polygon fill="black" stroke="black" points="171.887,-547.703 162.855,-542.165 166.462,-552.127 171.887,-547.703"/>
<text text-anchor="start" x="195.08" y="-563.8" font-family="mono" font-size="14.00" fill="#c83500">links</text>
<text text-anchor="middle" x="151.855" y="-545.965" font-family="Times,serif" font-size="14.00">0..*</text>
</g>
<!-- Thing&#45;&gt;Form -->
<g id="edge9" class="edge"><title>Thing&#45;&gt;Form</title>
<path fill="none" stroke="black" d="M431.48,-675.585C370.748,-647.121 304.937,-603.993 270.08,-542 254.917,-515.033 275.805,-282.131 280.08,-274 281.766,-270.793 283.614,-267.659 285.602,-264.599"/>
<polygon fill="black" stroke="black" points="288.643,-266.362 291.556,-256.175 282.926,-262.321 288.643,-266.362"/>
<text text-anchor="start" x="268.08" y="-399.8" font-family="mono" font-size="14.00" fill="#c83500">forms</text>
<text text-anchor="middle" x="280.556" y="-259.975" font-family="Times,serif" font-size="14.00">0..*</text>
</g>
<!-- PropertyAffordance -->
<g id="node5" class="node"><title>PropertyAffordance</title>
<polygon fill="#8ccbf2" stroke="none" points="288.08,-485.5 288.08,-506.5 519.08,-506.5 519.08,-485.5 288.08,-485.5"/>
<polygon fill="none" stroke="#8ccbf2" points="288.08,-485.5 288.08,-506.5 519.08,-506.5 519.08,-485.5 288.08,-485.5"/>
<text text-anchor="start" x="329.08" y="-493.3" font-family="mono" font-weight="bold" font-size="14.00" fill="#c83500">PropertyAffordance</text>
<polygon fill="#ddeeff" stroke="none" points="288.08,-464.5 288.08,-485.5 519.08,-485.5 519.08,-464.5 288.08,-464.5"/>
<polygon fill="none" stroke="#8ccbf2" points="288.08,-464.5 288.08,-485.5 519.08,-485.5 519.08,-464.5 288.08,-464.5"/>
<text text-anchor="start" x="291.08" y="-472.3" font-family="mono" font-size="14.00" fill="#c83500">observable</text>
<text text-anchor="start" x="374.08" y="-472.3" font-family="Times,serif" font-size="14.00"> : </text>
<text text-anchor="start" x="386.08" y="-472.3" font-family="mono" font-size="14.00" fill="#c83500">boolean</text>
<text text-anchor="start" x="444.08" y="-472.3" font-family="Times,serif" font-size="14.00"> </text>
<text text-anchor="start" x="448.08" y="-472.3" font-family="Times,serif" font-style="italic" font-size="14.00">(mandatory)</text>
</g>
<!-- Thing&#45;&gt;PropertyAffordance -->
<g id="edge2" class="edge"><title>Thing&#45;&gt;PropertyAffordance</title>
<path fill="none" stroke="black" d="M476.712,-592.882C457.721,-565.445 439.306,-538.839 425.643,-519.098"/>
<polygon fill="black" stroke="black" points="428.471,-517.035 419.902,-510.804 422.716,-521.019 428.471,-517.035"/>
<text text-anchor="start" x="461.08" y="-563.8" font-family="mono" font-size="14.00" fill="#c83500">properties</text>
<text text-anchor="middle" x="408.902" y="-514.604" font-family="Times,serif" font-size="14.00">0..1</text>
</g>
<!-- VersionInfo -->
<g id="node7" class="node"><title>VersionInfo</title>
<polygon fill="#8ccbf2" stroke="none" points="553.08,-485.5 553.08,-506.5 760.08,-506.5 760.08,-485.5 553.08,-485.5"/>
<polygon fill="none" stroke="#8ccbf2" points="553.08,-485.5 553.08,-506.5 760.08,-506.5 760.08,-485.5 553.08,-485.5"/>
<text text-anchor="start" x="611.08" y="-493.3" font-family="mono" font-weight="bold" font-size="14.00" fill="#c83500">VersionInfo</text>
<polygon fill="#ddeeff" stroke="none" points="553.08,-464.5 553.08,-485.5 760.08,-485.5 760.08,-464.5 553.08,-464.5"/>
<polygon fill="none" stroke="#8ccbf2" points="553.08,-464.5 553.08,-485.5 760.08,-485.5 760.08,-464.5 553.08,-464.5"/>
<text text-anchor="start" x="556.08" y="-472.3" font-family="mono" font-size="14.00" fill="#c83500">instance</text>
<text text-anchor="start" x="623.08" y="-472.3" font-family="Times,serif" font-size="14.00"> : </text>
<text text-anchor="start" x="635.08" y="-472.3" font-family="mono" font-size="14.00" fill="#c83500">string</text>
<text text-anchor="start" x="685.08" y="-472.3" font-family="Times,serif" font-size="14.00"> </text>
<text text-anchor="start" x="689.08" y="-472.3" font-family="Times,serif" font-style="italic" font-size="14.00">(mandatory)</text>
</g>
<!-- Thing&#45;&gt;VersionInfo -->
<g id="edge5" class="edge"><title>Thing&#45;&gt;VersionInfo</title>
<path fill="none" stroke="black" d="M615.425,-592.882C625.722,-565.937 635.713,-539.794 643.214,-520.167"/>
<polygon fill="black" stroke="black" points="646.491,-521.395 646.792,-510.804 639.952,-518.896 646.491,-521.395"/>
<text text-anchor="start" x="627.08" y="-563.8" font-family="mono" font-size="14.00" fill="#c83500">version</text>
<text text-anchor="middle" x="635.792" y="-514.604" font-family="Times,serif" font-size="14.00">0..1</text>
</g>
<!-- ActionAffordance -->
<g id="node8" class="node"><title>ActionAffordance</title>
<polygon fill="#8ccbf2" stroke="none" points="794.08,-495.5 794.08,-516.5 1025.08,-516.5 1025.08,-495.5 794.08,-495.5"/>
<polygon fill="none" stroke="#8ccbf2" points="794.08,-495.5 794.08,-516.5 1025.08,-516.5 1025.08,-495.5 794.08,-495.5"/>
<text text-anchor="start" x="843.08" y="-503.3" font-family="mono" font-weight="bold" font-size="14.00" fill="#c83500">ActionAffordance</text>
<polygon fill="#ddeeff" stroke="none" points="794.08,-474.5 794.08,-495.5 1025.08,-495.5 1025.08,-474.5 794.08,-474.5"/>
<polygon fill="none" stroke="#8ccbf2" points="794.08,-474.5 794.08,-495.5 1025.08,-495.5 1025.08,-474.5 794.08,-474.5"/>
<text text-anchor="start" x="797.08" y="-482.3" font-family="mono" font-size="14.00" fill="#c83500">safe</text>
<text text-anchor="start" x="831.08" y="-482.3" font-family="Times,serif" font-size="14.00"> : </text>
<text text-anchor="start" x="843.08" y="-482.3" font-family="mono" font-size="14.00" fill="#c83500">boolean</text>
<text text-anchor="start" x="901.08" y="-482.3" font-family="Times,serif" font-size="14.00"> </text>
<text text-anchor="start" x="905.08" y="-482.3" font-family="Times,serif" font-style="italic" font-size="14.00">(mandatory)</text>
<polygon fill="#ddeeff" stroke="none" points="794.08,-453.5 794.08,-474.5 1025.08,-474.5 1025.08,-453.5 794.08,-453.5"/>
<polygon fill="none" stroke="#8ccbf2" points="794.08,-453.5 794.08,-474.5 1025.08,-474.5 1025.08,-453.5 794.08,-453.5"/>
<text text-anchor="start" x="797.08" y="-461.3" font-family="mono" font-size="14.00" fill="#c83500">idempotent</text>
<text text-anchor="start" x="880.08" y="-461.3" font-family="Times,serif" font-size="14.00"> : </text>
<text text-anchor="start" x="892.08" y="-461.3" font-family="mono" font-size="14.00" fill="#c83500">boolean</text>
<text text-anchor="start" x="950.08" y="-461.3" font-family="Times,serif" font-size="14.00"> </text>
<text text-anchor="start" x="954.08" y="-461.3" font-family="Times,serif" font-style="italic" font-size="14.00">(mandatory)</text>
</g>
<!-- Thing&#45;&gt;ActionAffordance -->
<g id="edge8" class="edge"><title>Thing&#45;&gt;ActionAffordance</title>
<path fill="none" stroke="black" d="M700.658,-629.6C752.632,-593.916 809.354,-554.971 850.485,-526.731"/>
<polygon fill="black" stroke="black" points="852.494,-529.597 858.757,-521.051 848.532,-523.826 852.494,-529.597"/>
<text text-anchor="start" x="799.08" y="-563.8" font-family="mono" font-size="14.00" fill="#c83500">actions</text>
<text text-anchor="middle" x="847.757" y="-524.851" font-family="Times,serif" font-size="14.00">0..1</text>
</g>
<!-- EventAffordance -->
<g id="node10" class="node"><title>EventAffordance</title>
<polygon fill="#8ccbf2" stroke="none" points="1059.08,-474.5 1059.08,-495.5 1189.08,-495.5 1189.08,-474.5 1059.08,-474.5"/>
<polygon fill="none" stroke="#8ccbf2" points="1059.08,-474.5 1059.08,-495.5 1189.08,-495.5 1189.08,-474.5 1059.08,-474.5"/>
<text text-anchor="start" x="1062.08" y="-482.3" font-family="mono" font-weight="bold" font-size="14.00" fill="#c83500">EventAffordance</text>
</g>
<!-- Thing&#45;&gt;EventAffordance -->
<g id="edge4" class="edge"><title>Thing&#45;&gt;EventAffordance</title>
<path fill="none" stroke="black" d="M700.607,-680.145C797.677,-647.777 930.547,-598.957 1041.08,-542 1059.11,-532.708 1078,-520.312 1093.2,-509.593"/>
<polygon fill="black" stroke="black" points="1095.6,-512.182 1101.69,-503.512 1091.52,-506.492 1095.6,-512.182"/>
<text text-anchor="start" x="1005.08" y="-563.8" font-family="mono" font-size="14.00" fill="#c83500">events</text>
<text text-anchor="middle" x="1090.69" y="-507.312" font-family="Times,serif" font-size="14.00">0..1</text>
</g>
<!-- SecurityScheme -->
<g id="node11" class="node"><title>SecurityScheme</title>
<polygon fill="#f2f2f2" stroke="none" points="1223.08,-474.5 1223.08,-495.5 1345.08,-495.5 1345.08,-474.5 1223.08,-474.5"/>
<polygon fill="none" stroke="#8c8c8c" points="1223.08,-474.5 1223.08,-495.5 1345.08,-495.5 1345.08,-474.5 1223.08,-474.5"/>
<text text-anchor="start" x="1226.08" y="-482.3" font-family="mono" font-weight="bold" font-size="14.00">SecurityScheme</text>
</g>
<!-- Thing&#45;&gt;SecurityScheme -->
<g id="edge6" class="edge"><title>Thing&#45;&gt;SecurityScheme</title>
<path fill="none" stroke="black" d="M700.801,-698.174C833.743,-671.465 1040.53,-621.213 1206.08,-542 1223.88,-533.485 1241.94,-520.934 1256.19,-509.92"/>
<polygon fill="black" stroke="black" points="1258.44,-512.603 1264.12,-503.655 1254.1,-507.112 1258.44,-512.603"/>
<text text-anchor="start" x="1157.08" y="-563.8" font-family="mono" font-size="14.00" fill="#c83500">securityDefinitions</text>
<text text-anchor="middle" x="1253.12" y="-507.455" font-family="Times,serif" font-size="14.00">1..1</text>
</g>
<!-- InteractionAffordance -->
<g id="node9" class="node"><title>InteractionAffordance</title>
<polygon fill="#8ccbf2" stroke="none" points="317.08,-352.5 317.08,-373.5 497.08,-373.5 497.08,-352.5 317.08,-352.5"/>
<polygon fill="none" stroke="#8ccbf2" points="317.08,-352.5 317.08,-373.5 497.08,-373.5 497.08,-352.5 317.08,-352.5"/>
<text text-anchor="start" x="320.08" y="-360.3" font-family="mono" font-weight="bold" font-size="14.00" fill="#c83500">InteractionAffordance</text>
<polygon fill="#ddeeff" stroke="none" points="317.08,-331.5 317.08,-352.5 497.08,-352.5 497.08,-331.5 317.08,-331.5"/>
<polygon fill="none" stroke="#8ccbf2" points="317.08,-331.5 317.08,-352.5 497.08,-352.5 497.08,-331.5 317.08,-331.5"/>
<text text-anchor="start" x="320.08" y="-339.3" font-family="mono" font-size="14.00" fill="#c83500">description</text>
<text text-anchor="start" x="411.08" y="-339.3" font-family="Times,serif" font-size="14.00"> : </text>
<text text-anchor="start" x="423.08" y="-339.3" font-family="mono" font-size="14.00" fill="#c83500">string</text>
<polygon fill="#ddeeff" stroke="none" points="317.08,-310.5 317.08,-331.5 497.08,-331.5 497.08,-310.5 317.08,-310.5"/>
<polygon fill="none" stroke="#8ccbf2" points="317.08,-310.5 317.08,-331.5 497.08,-331.5 497.08,-310.5 317.08,-310.5"/>
<text text-anchor="start" x="320.08" y="-318.3" font-family="mono" font-size="14.00" fill="#c83500">title</text>
<text text-anchor="start" x="362.08" y="-318.3" font-family="Times,serif" font-size="14.00"> : </text>
<text text-anchor="start" x="374.08" y="-318.3" font-family="mono" font-size="14.00" fill="#c83500">string</text>
</g>
<!-- PropertyAffordance&#45;&gt;InteractionAffordance -->
<g id="edge21" class="edge"><title>PropertyAffordance&#45;&gt;InteractionAffordance</title>
<path fill="none" stroke="black" d="M403.768,-460.261C404.326,-440.576 405.129,-412.276 405.804,-388.468"/>
<polygon fill="white" stroke="black" points="409.31,-388.331 406.095,-378.236 402.312,-388.133 409.31,-388.331"/>
</g>
<!-- ActionAffordance&#45;&gt;InteractionAffordance -->
<g id="edge19" class="edge"><title>ActionAffordance&#45;&gt;InteractionAffordance</title>
<path fill="none" stroke="black" d="M832.54,-449.993C814.26,-442.47 794.656,-434.981 776.08,-429 689.816,-401.224 589.494,-378.575 515.247,-363.583"/>
<polygon fill="white" stroke="black" points="515.901,-360.145 505.408,-361.611 514.525,-367.008 515.901,-360.145"/>
</g>
<!-- DataSchema -->
<g id="node12" class="node"><title>DataSchema</title>
<polygon fill="#f2f2f2" stroke="none" points="904.08,-167.5 904.08,-188.5 993.08,-188.5 993.08,-167.5 904.08,-167.5"/>
<polygon fill="none" stroke="#8c8c8c" points="904.08,-167.5 904.08,-188.5 993.08,-188.5 993.08,-167.5 904.08,-167.5"/>
<text text-anchor="start" x="907.08" y="-175.3" font-family="mono" font-weight="bold" font-size="14.00">DataSchema</text>
</g>
<!-- ActionAffordance&#45;&gt;DataSchema -->
<g id="edge10" class="edge"><title>ActionAffordance&#45;&gt;DataSchema</title>
<path fill="none" stroke="black" d="M879.569,-449.581C864.898,-429.914 848.705,-404.111 841.08,-378 832.235,-347.71 830.286,-336.652 841.08,-307 856.487,-264.673 892.802,-226.621 918.851,-203.33"/>
<polygon fill="black" stroke="black" points="921.341,-205.802 926.571,-196.588 916.737,-200.53 921.341,-205.802"/>
<text text-anchor="start" x="841.08" y="-338.8" font-family="mono" font-size="14.00" fill="#c83500">input</text>
<text text-anchor="middle" x="915.571" y="-200.388" font-family="Times,serif" font-size="14.00">0..1</text>
</g>
<!-- ActionAffordance&#45;&gt;DataSchema -->
<g id="edge11" class="edge"><title>ActionAffordance&#45;&gt;DataSchema</title>
<path fill="none" stroke="black" d="M909.319,-449.974C909.966,-414.083 912.126,-356.359 919.08,-307 924.034,-271.833 933.764,-232.032 940.582,-206.394"/>
<polygon fill="black" stroke="black" points="943.984,-207.22 943.214,-196.653 937.226,-205.394 943.984,-207.22"/>
<text text-anchor="start" x="919.08" y="-338.8" font-family="mono" font-size="14.00" fill="#c83500">output</text>
<text text-anchor="middle" x="954.214" y="-200.453" font-family="Times,serif" font-size="14.00">0..1</text>
</g>
<!-- InteractionAffordance&#45;&gt;MultiLanguage -->
<g id="edge13" class="edge"><title>InteractionAffordance&#45;&gt;MultiLanguage</title>
<path fill="none" stroke="black" d="M330.213,-306.895C320.137,-301.367 310.167,-295.356 301.08,-289 265.359,-264.014 229.891,-228.117 207.992,-204.322"/>
<polygon fill="black" stroke="black" points="210.422,-201.792 201.104,-196.749 205.243,-206.502 210.422,-201.792"/>
<text text-anchor="start" x="301.08" y="-277.8" font-family="mono" font-size="14.00" fill="#c83500">descriptions</text>
<text text-anchor="middle" x="190.104" y="-200.549" font-family="Times,serif" font-size="14.00">0..1</text>
</g>
<!-- InteractionAffordance&#45;&gt;MultiLanguage -->
<g id="edge14" class="edge"><title>InteractionAffordance&#45;&gt;MultiLanguage</title>
<path fill="none" stroke="black" d="M309.075,-328.909C280.878,-321.215 251.885,-308.852 230.08,-289 206.352,-267.398 195.188,-231.241 190.096,-206.425"/>
<polygon fill="black" stroke="black" points="193.532,-205.754 188.267,-196.559 186.649,-207.03 193.532,-205.754"/>
<text text-anchor="start" x="230.08" y="-277.8" font-family="mono" font-size="14.00" fill="#c83500">titles</text>
<text text-anchor="middle" x="177.267" y="-200.359" font-family="Times,serif" font-size="14.00">0..1</text>
</g>
<!-- InteractionAffordance&#45;&gt;Form -->
<g id="edge12" class="edge"><title>InteractionAffordance&#45;&gt;Form</title>
<path fill="none" stroke="black" d="M405.578,-306.747C405.061,-294.777 404.456,-280.781 403.841,-266.534"/>
<polygon fill="black" stroke="black" points="407.32,-265.981 403.392,-256.141 400.327,-266.283 407.32,-265.981"/>
<text text-anchor="start" x="405.08" y="-277.8" font-family="mono" font-size="14.00" fill="#c83500">forms</text>
<text text-anchor="middle" x="392.392" y="-259.941" font-family="Times,serif" font-size="14.00">1..*</text>
</g>
<!-- InteractionAffordance&#45;&gt;DataSchema -->
<g id="edge15" class="edge"><title>InteractionAffordance&#45;&gt;DataSchema</title>
<path fill="none" stroke="black" d="M505.365,-312.069C616.027,-278.932 792.518,-226.082 885.72,-198.173"/>
<polygon fill="black" stroke="black" points="886.994,-201.446 895.57,-195.224 884.986,-194.74 886.994,-201.446"/>
<text text-anchor="start" x="630.08" y="-277.8" font-family="mono" font-size="14.00" fill="#c83500">uriVariables</text>
<text text-anchor="middle" x="884.57" y="-199.024" font-family="Times,serif" font-size="14.00">0..1</text>
</g>
<!-- EventAffordance&#45;&gt;InteractionAffordance -->
<g id="edge20" class="edge"><title>EventAffordance&#45;&gt;InteractionAffordance</title>
<path fill="none" stroke="black" d="M1104.06,-467.263C1088.09,-454.519 1064.59,-437.895 1041.08,-429 947.247,-393.497 670.112,-365.523 515.116,-352.132"/>
<polygon fill="white" stroke="black" points="515.349,-348.64 505.087,-351.271 514.751,-355.614 515.349,-348.64"/>
</g>
<!-- EventAffordance&#45;&gt;DataSchema -->
<g id="edge16" class="edge"><title>EventAffordance&#45;&gt;DataSchema</title>
<path fill="none" stroke="black" d="M1097.38,-467.358C1070.26,-448.591 1028.95,-416.05 1005.08,-378 970.701,-323.188 956.467,-247.018 951.06,-206.836"/>
<polygon fill="black" stroke="black" points="954.51,-206.219 949.787,-196.736 947.565,-207.095 954.51,-206.219"/>
<text text-anchor="start" x="1005.08" y="-338.8" font-family="mono" font-size="14.00" fill="#c83500">cancellation</text>
<text text-anchor="middle" x="938.787" y="-200.536" font-family="Times,serif" font-size="14.00">0..1</text>
</g>
<!-- EventAffordance&#45;&gt;DataSchema -->
<g id="edge17" class="edge"><title>EventAffordance&#45;&gt;DataSchema</title>
<path fill="none" stroke="black" d="M1126.35,-467.349C1129.91,-434.14 1133.71,-359.695 1105.08,-307 1079.35,-259.642 1028.03,-223.238 991.063,-201.678"/>
<polygon fill="black" stroke="black" points="992.42,-198.423 981.997,-196.518 988.957,-204.506 992.42,-198.423"/>
<text text-anchor="start" x="1126.08" y="-338.8" font-family="mono" font-size="14.00" fill="#c83500">subscription</text>
<text text-anchor="middle" x="992.997" y="-200.318" font-family="Times,serif" font-size="14.00">0..1</text>
</g>
<!-- EventAffordance&#45;&gt;DataSchema -->
<g id="edge18" class="edge"><title>EventAffordance&#45;&gt;DataSchema</title>
<path fill="none" stroke="black" d="M1150.42,-467.425C1176.26,-448.936 1214.05,-416.822 1230.08,-378 1242.12,-348.832 1247.19,-333.514 1230.08,-307 1181.86,-232.282 1078.12,-200.885 1010.81,-188.023"/>
<polygon fill="black" stroke="black" points="1011.21,-184.538 1000.74,-186.186 1009.95,-191.424 1011.21,-184.538"/>
<text text-anchor="start" x="1242.08" y="-338.8" font-family="mono" font-size="14.00" fill="#c83500">data</text>
<text text-anchor="middle" x="1011.74" y="-174.986" font-family="Times,serif" font-size="14.00">0..1</text>
</g>
</g>
</svg>
