<?xml version="1.0" encoding="UTF-8" standalone="no"?>
<!DOCTYPE svg PUBLIC "-//W3C//DTD SVG 1.1//EN"
 "http://www.w3.org/Graphics/SVG/1.1/DTD/svg11.dtd">
<!-- Generated by graphviz version 2.40.1 (20161225.0304)
 -->
<!-- Title: %3 Pages: 1 -->
<svg width="1426pt" height="903pt"
 viewBox="0.00 0.00 1425.50 903.00" xmlns="http://www.w3.org/2000/svg" xmlns:xlink="http://www.w3.org/1999/xlink">
<g id="graph0" class="graph" transform="scale(1 1) rotate(0) translate(4 899)">
<title>%3</title>
<polygon fill="#ffffff" stroke="transparent" points="-4,4 -4,-899 1421.5,-899 1421.5,4 -4,4"/>
<!-- MultiLanguage -->
<g id="node1" class="node">
<title>MultiLanguage</title>
<polygon fill="#8ccbf2" stroke="transparent" points="273.5,-167.5 273.5,-188.5 387.5,-188.5 387.5,-167.5 273.5,-167.5"/>
<polygon fill="none" stroke="#8ccbf2" points="273.5,-167.5 273.5,-188.5 387.5,-188.5 387.5,-167.5 273.5,-167.5"/>
<text text-anchor="start" x="276.5" y="-175.3" font-family="mono" font-weight="bold" font-size="14.00" fill="#c83500">MultiLanguage</text>
</g>
<!-- InteractionPattern -->
<g id="node2" class="node">
<title>InteractionPattern</title>
<polygon fill="#8ccbf2" stroke="transparent" points="269.5,-416 269.5,-437 450.5,-437 450.5,-416 269.5,-416"/>
<polygon fill="none" stroke="#8ccbf2" points="269.5,-416 269.5,-437 450.5,-437 450.5,-416 269.5,-416"/>
<text text-anchor="start" x="285.5" y="-423.8" font-family="mono" font-weight="bold" font-size="14.00" fill="#c83500">InteractionPattern</text>
<polygon fill="#ddeeff" stroke="transparent" points="269.5,-395 269.5,-416 450.5,-416 450.5,-395 269.5,-395"/>
<polygon fill="none" stroke="#8ccbf2" points="269.5,-395 269.5,-416 450.5,-416 450.5,-395 269.5,-395"/>
<text text-anchor="start" x="272.5" y="-402.8" font-family="mono" font-size="14.00" fill="#c83500">@type</text>
<text text-anchor="start" x="314.5" y="-402.8" font-family="Times,serif" font-size="14.00" fill="#000000"> : </text>
<text text-anchor="start" x="326.5" y="-402.8" font-family="Times,serif" font-style="italic" font-size="14.00" fill="#000000">array of </text>
<text text-anchor="start" x="375.5" y="-402.8" font-family="mono" font-size="14.00" fill="#c83500">string</text>
<polygon fill="#ddeeff" stroke="transparent" points="269.5,-374 269.5,-395 450.5,-395 450.5,-374 269.5,-374"/>
<polygon fill="none" stroke="#8ccbf2" points="269.5,-374 269.5,-395 450.5,-395 450.5,-374 269.5,-374"/>
<text text-anchor="start" x="272.5" y="-381.8" font-family="mono" font-size="14.00" fill="#c83500">description</text>
<text text-anchor="start" x="363.5" y="-381.8" font-family="Times,serif" font-size="14.00" fill="#000000"> : </text>
<text text-anchor="start" x="375.5" y="-381.8" font-family="mono" font-size="14.00" fill="#c83500">string</text>
<polygon fill="#ddeeff" stroke="transparent" points="269.5,-353 269.5,-374 450.5,-374 450.5,-353 269.5,-353"/>
<polygon fill="none" stroke="#8ccbf2" points="269.5,-353 269.5,-374 450.5,-374 450.5,-353 269.5,-353"/>
<text text-anchor="start" x="272.5" y="-360.8" font-family="mono" font-size="14.00" fill="#c83500">scopes</text>
<text text-anchor="start" x="322.5" y="-360.8" font-family="Times,serif" font-size="14.00" fill="#000000"> : array of </text>
<text text-anchor="start" x="380.5" y="-360.8" font-family="mono" font-size="14.00" fill="#c83500">string</text>
<polygon fill="#ddeeff" stroke="transparent" points="269.5,-332 269.5,-353 450.5,-353 450.5,-332 269.5,-332"/>
<polygon fill="none" stroke="#8ccbf2" points="269.5,-332 269.5,-353 450.5,-353 450.5,-332 269.5,-332"/>
<text text-anchor="start" x="272.5" y="-339.8" font-family="mono" font-size="14.00" fill="#c83500">title</text>
<text text-anchor="start" x="314.5" y="-339.8" font-family="Times,serif" font-size="14.00" fill="#000000"> : </text>
<text text-anchor="start" x="326.5" y="-339.8" font-family="mono" font-size="14.00" fill="#c83500">string</text>
<polygon fill="#ddeeff" stroke="transparent" points="269.5,-311 269.5,-332 450.5,-332 450.5,-311 269.5,-311"/>
<polygon fill="none" stroke="#8ccbf2" points="269.5,-311 269.5,-332 450.5,-332 450.5,-311 269.5,-311"/>
<text text-anchor="start" x="272.5" y="-318.8" font-family="mono" font-size="14.00" fill="#c83500">security</text>
<text text-anchor="start" x="339.5" y="-318.8" font-family="Times,serif" font-size="14.00" fill="#000000"> : array of </text>
<text text-anchor="start" x="397.5" y="-318.8" font-family="mono" font-size="14.00" fill="#c83500">string</text>
</g>
<!-- InteractionPattern&#45;&gt;MultiLanguage -->
<g id="edge1" class="edge">
<title>InteractionPattern&#45;&gt;MultiLanguage</title>
<path fill="none" stroke="#000000" d="M295.9298,-306.7708C292.6093,-301.0293 289.73,-295.0829 287.5,-289 276.9286,-260.1643 293.284,-227.4079 308.7712,-205.0948"/>
<polygon fill="#000000" stroke="#000000" points="311.7606,-206.9358 314.8278,-196.7947 306.1059,-202.8097 311.7606,-206.9358"/>
<text text-anchor="start" x="287.5" y="-277.8" font-family="mono" font-size="14.00" fill="#c83500">titles</text>
<text text-anchor="middle" x="303.8278" y="-200.5947" font-family="Times,serif" font-size="14.00" fill="#000000">0..1</text>
</g>
<!-- InteractionPattern&#45;&gt;MultiLanguage -->
<g id="edge3" class="edge">
<title>InteractionPattern&#45;&gt;MultiLanguage</title>
<path fill="none" stroke="#000000" d="M349.5604,-306.9935C344.4878,-272.7971 338.5862,-233.0119 334.7095,-206.8776"/>
<polygon fill="#000000" stroke="#000000" points="338.1594,-206.2813 333.2299,-196.9032 331.2352,-207.3085 338.1594,-206.2813"/>
<text text-anchor="start" x="347.5" y="-277.8" font-family="mono" font-size="14.00" fill="#c83500">descriptions</text>
<text text-anchor="middle" x="344.2299" y="-200.7032" font-family="Times,serif" font-size="14.00" fill="#000000">0..1</text>
</g>
<!-- Form -->
<g id="node4" class="node">
<title>Form</title>
<polygon fill="#8ccbf2" stroke="transparent" points="8.5,-230.5 8.5,-251.5 239.5,-251.5 239.5,-230.5 8.5,-230.5"/>
<polygon fill="none" stroke="#8ccbf2" points="8.5,-230.5 8.5,-251.5 239.5,-251.5 239.5,-230.5 8.5,-230.5"/>
<text text-anchor="start" x="107" y="-238.3" font-family="mono" font-weight="bold" font-size="14.00" fill="#c83500">Form</text>
<polygon fill="#ddeeff" stroke="transparent" points="8.5,-209.5 8.5,-230.5 239.5,-230.5 239.5,-209.5 8.5,-209.5"/>
<polygon fill="none" stroke="#8ccbf2" points="8.5,-209.5 8.5,-230.5 239.5,-230.5 239.5,-209.5 8.5,-209.5"/>
<text text-anchor="start" x="11.5" y="-217.3" font-family="mono" font-size="14.00" fill="#c83500">contentType</text>
<text text-anchor="start" x="102.5" y="-217.3" font-family="Times,serif" font-size="14.00" fill="#000000"> : </text>
<text text-anchor="start" x="114.5" y="-217.3" font-family="mono" font-size="14.00" fill="#c83500">string</text>
<text text-anchor="start" x="164.5" y="-217.3" font-family="Times,serif" font-size="14.00" fill="#000000"> </text>
<text text-anchor="start" x="168.5" y="-217.3" font-family="Times,serif" font-style="italic" font-size="14.00" fill="#000000">(mandatory)</text>
<polygon fill="#ddeeff" stroke="transparent" points="8.5,-188.5 8.5,-209.5 239.5,-209.5 239.5,-188.5 8.5,-188.5"/>
<polygon fill="none" stroke="#8ccbf2" points="8.5,-188.5 8.5,-209.5 239.5,-209.5 239.5,-188.5 8.5,-188.5"/>
<text text-anchor="start" x="11.5" y="-196.3" font-family="mono" font-size="14.00" fill="#c83500">scopes</text>
<text text-anchor="start" x="61.5" y="-196.3" font-family="Times,serif" font-size="14.00" fill="#000000"> : array of </text>
<text text-anchor="start" x="119.5" y="-196.3" font-family="mono" font-size="14.00" fill="#c83500">string</text>
<polygon fill="#ddeeff" stroke="transparent" points="8.5,-167.5 8.5,-188.5 239.5,-188.5 239.5,-167.5 8.5,-167.5"/>
<polygon fill="none" stroke="#8ccbf2" points="8.5,-167.5 8.5,-188.5 239.5,-188.5 239.5,-167.5 8.5,-167.5"/>
<text text-anchor="start" x="11.5" y="-175.3" font-family="mono" font-size="14.00" fill="#c83500">security</text>
<text text-anchor="start" x="78.5" y="-175.3" font-family="Times,serif" font-size="14.00" fill="#000000"> : array of </text>
<text text-anchor="start" x="136.5" y="-175.3" font-family="mono" font-size="14.00" fill="#c83500">string</text>
<polygon fill="#ddeeff" stroke="transparent" points="8.5,-146.5 8.5,-167.5 239.5,-167.5 239.5,-146.5 8.5,-146.5"/>
<polygon fill="none" stroke="#8ccbf2" points="8.5,-146.5 8.5,-167.5 239.5,-167.5 239.5,-146.5 8.5,-146.5"/>
<text text-anchor="start" x="11.5" y="-154.3" font-family="mono" font-size="14.00" fill="#c83500">subprotocol</text>
<text text-anchor="start" x="102.5" y="-154.3" font-family="Times,serif" font-size="14.00" fill="#000000"> : </text>
<text text-anchor="start" x="114.5" y="-154.3" font-family="mono" font-size="14.00" fill="#c83500">string</text>
<polygon fill="#ddeeff" stroke="transparent" points="8.5,-125.5 8.5,-146.5 239.5,-146.5 239.5,-125.5 8.5,-125.5"/>
<polygon fill="none" stroke="#8ccbf2" points="8.5,-125.5 8.5,-146.5 239.5,-146.5 239.5,-125.5 8.5,-125.5"/>
<text text-anchor="start" x="11.5" y="-133.3" font-family="mono" font-size="14.00" fill="#c83500">href</text>
<text text-anchor="start" x="45.5" y="-133.3" font-family="Times,serif" font-size="14.00" fill="#000000"> : </text>
<text text-anchor="start" x="57.5" y="-133.3" font-family="mono" font-size="14.00" fill="#c83500">anyURI</text>
<text text-anchor="start" x="107.5" y="-133.3" font-family="Times,serif" font-size="14.00" fill="#000000"> </text>
<text text-anchor="start" x="111.5" y="-133.3" font-family="Times,serif" font-style="italic" font-size="14.00" fill="#000000">(mandatory)</text>
<polygon fill="#ddeeff" stroke="transparent" points="8.5,-104.5 8.5,-125.5 239.5,-125.5 239.5,-104.5 8.5,-104.5"/>
<polygon fill="none" stroke="#8ccbf2" points="8.5,-104.5 8.5,-125.5 239.5,-125.5 239.5,-104.5 8.5,-104.5"/>
<text text-anchor="start" x="11.5" y="-112.3" font-family="mono" font-size="14.00" fill="#c83500">op</text>
<text text-anchor="start" x="28.5" y="-112.3" font-family="Times,serif" font-size="14.00" fill="#000000"> : </text>
<text text-anchor="start" x="40.5" y="-112.3" font-family="mono" font-size="14.00" fill="#c83500">string</text>
</g>
<!-- InteractionPattern&#45;&gt;Form -->
<g id="edge2" class="edge">
<title>InteractionPattern&#45;&gt;Form</title>
<path fill="none" stroke="#000000" d="M262.3074,-306.994C254.4848,-301.0471 246.7931,-295.0034 239.5,-289 229.575,-280.83 219.4526,-272.0083 209.5278,-263.0365"/>
<polygon fill="#000000" stroke="#000000" points="211.73,-260.308 201.9832,-256.1547 207.0127,-265.4797 211.73,-260.308"/>
<text text-anchor="start" x="239.5" y="-277.8" font-family="mono" font-size="14.00" fill="#c83500">forms</text>
<text text-anchor="middle" x="190.9832" y="-259.9547" font-family="Times,serif" font-size="14.00" fill="#000000">1..*</text>
</g>
<!-- DataSchema -->
<g id="node11" class="node">
<title>DataSchema</title>
<polygon fill="#f2f2f2" stroke="transparent" points="674.5,-167.5 674.5,-188.5 763.5,-188.5 763.5,-167.5 674.5,-167.5"/>
<polygon fill="none" stroke="#8c8c8c" points="674.5,-167.5 674.5,-188.5 763.5,-188.5 763.5,-167.5 674.5,-167.5"/>
<text text-anchor="start" x="677.5" y="-175.3" font-family="mono" font-weight="bold" font-size="14.00" fill="#000000">DataSchema</text>
</g>
<!-- InteractionPattern&#45;&gt;DataSchema -->
<g id="edge4" class="edge">
<title>InteractionPattern&#45;&gt;DataSchema</title>
<path fill="none" stroke="#000000" d="M435.6844,-306.8615C450.9516,-295.0747 467.2962,-283.5449 483.5,-274 538.8168,-241.4156 607.3387,-214.9731 656.0881,-198.244"/>
<polygon fill="#000000" stroke="#000000" points="657.2193,-201.5562 665.5645,-195.0287 654.9702,-194.9274 657.2193,-201.5562"/>
<text text-anchor="start" x="483.5" y="-277.8" font-family="mono" font-size="14.00" fill="#c83500">uriVariables</text>
<text text-anchor="middle" x="654.5645" y="-198.8287" font-family="Times,serif" font-size="14.00" fill="#000000">0..1</text>
</g>
<!-- Link -->
<g id="node3" class="node">
<title>Link</title>
<polygon fill="#8ccbf2" stroke="transparent" points="837.5,-579.5 837.5,-600.5 1011.5,-600.5 1011.5,-579.5 837.5,-579.5"/>
<polygon fill="none" stroke="#8ccbf2" points="837.5,-579.5 837.5,-600.5 1011.5,-600.5 1011.5,-579.5 837.5,-579.5"/>
<text text-anchor="start" x="907.5" y="-587.3" font-family="mono" font-weight="bold" font-size="14.00" fill="#c83500">Link</text>
<polygon fill="#ddeeff" stroke="transparent" points="837.5,-558.5 837.5,-579.5 1011.5,-579.5 1011.5,-558.5 837.5,-558.5"/>
<polygon fill="none" stroke="#8ccbf2" points="837.5,-558.5 837.5,-579.5 1011.5,-579.5 1011.5,-558.5 837.5,-558.5"/>
<text text-anchor="start" x="840.5" y="-566.3" font-family="mono" font-size="14.00" fill="#c83500">rel</text>
<text text-anchor="start" x="865.5" y="-566.3" font-family="Times,serif" font-size="14.00" fill="#000000"> : </text>
<text text-anchor="start" x="877.5" y="-566.3" font-family="mono" font-size="14.00" fill="#c83500">string</text>
<polygon fill="#ddeeff" stroke="transparent" points="837.5,-537.5 837.5,-558.5 1011.5,-558.5 1011.5,-537.5 837.5,-537.5"/>
<polygon fill="none" stroke="#8ccbf2" points="837.5,-537.5 837.5,-558.5 1011.5,-558.5 1011.5,-537.5 837.5,-537.5"/>
<text text-anchor="start" x="840.5" y="-545.3" font-family="mono" font-size="14.00" fill="#c83500">href</text>
<text text-anchor="start" x="874.5" y="-545.3" font-family="Times,serif" font-size="14.00" fill="#000000"> : </text>
<text text-anchor="start" x="886.5" y="-545.3" font-family="mono" font-size="14.00" fill="#c83500">anyURI</text>
<text text-anchor="start" x="936.5" y="-545.3" font-family="Times,serif" font-size="14.00" fill="#000000"> </text>
<text text-anchor="start" x="940.5" y="-545.3" font-family="Times,serif" font-style="italic" font-size="14.00" fill="#000000">(mandatory)</text>
<polygon fill="#ddeeff" stroke="transparent" points="837.5,-516.5 837.5,-537.5 1011.5,-537.5 1011.5,-516.5 837.5,-516.5"/>
<polygon fill="none" stroke="#8ccbf2" points="837.5,-516.5 837.5,-537.5 1011.5,-537.5 1011.5,-516.5 837.5,-516.5"/>
<text text-anchor="start" x="840.5" y="-524.3" font-family="mono" font-size="14.00" fill="#c83500">type</text>
<text text-anchor="start" x="874.5" y="-524.3" font-family="Times,serif" font-size="14.00" fill="#000000"> : </text>
<text text-anchor="start" x="886.5" y="-524.3" font-family="mono" font-size="14.00" fill="#c83500">string</text>
<polygon fill="#ddeeff" stroke="transparent" points="837.5,-495.5 837.5,-516.5 1011.5,-516.5 1011.5,-495.5 837.5,-495.5"/>
<polygon fill="none" stroke="#8ccbf2" points="837.5,-495.5 837.5,-516.5 1011.5,-516.5 1011.5,-495.5 837.5,-495.5"/>
<text text-anchor="start" x="840.5" y="-503.3" font-family="mono" font-size="14.00" fill="#c83500">anchor</text>
<text text-anchor="start" x="890.5" y="-503.3" font-family="Times,serif" font-size="14.00" fill="#000000"> : </text>
<text text-anchor="start" x="902.5" y="-503.3" font-family="mono" font-size="14.00" fill="#c83500">anyURI</text>
</g>
<!-- ExpectedResponse -->
<g id="node7" class="node">
<title>ExpectedResponse</title>
<polygon fill="#8ccbf2" stroke="transparent" points="44.5,-25 44.5,-46 203.5,-46 203.5,-25 44.5,-25"/>
<polygon fill="none" stroke="#8ccbf2" points="44.5,-25 44.5,-46 203.5,-46 203.5,-25 44.5,-25"/>
<text text-anchor="start" x="57.5" y="-32.8" font-family="mono" font-weight="bold" font-size="14.00" fill="#c83500">ExpectedResponse</text>
<polygon fill="#ddeeff" stroke="transparent" points="44.5,-4 44.5,-25 203.5,-25 203.5,-4 44.5,-4"/>
<polygon fill="none" stroke="#8ccbf2" points="44.5,-4 44.5,-25 203.5,-25 203.5,-4 44.5,-4"/>
<text text-anchor="start" x="47.5" y="-11.8" font-family="mono" font-size="14.00" fill="#c83500">contentType</text>
<text text-anchor="start" x="138.5" y="-11.8" font-family="Times,serif" font-size="14.00" fill="#000000"> : </text>
<text text-anchor="start" x="150.5" y="-11.8" font-family="mono" font-size="14.00" fill="#c83500">string</text>
</g>
<!-- Form&#45;&gt;ExpectedResponse -->
<g id="edge5" class="edge">
<title>Form&#45;&gt;ExpectedResponse</title>
<path fill="none" stroke="#000000" d="M123.5,-100.8506C123.5,-86.7022 123.5,-72.5946 123.5,-60.4513"/>
<polygon fill="#000000" stroke="#000000" points="127.0001,-60.3339 123.5,-50.334 120.0001,-60.334 127.0001,-60.3339"/>
<text text-anchor="start" x="123.5" y="-71.8" font-family="mono" font-size="14.00" fill="#c83500">response</text>
<text text-anchor="middle" x="112.5" y="-54.134" font-family="Times,serif" font-size="14.00" fill="#000000">0..1</text>
</g>
<!-- Thing -->
<g id="node5" class="node">
<title>Thing</title>
<polygon fill="#8ccbf2" stroke="transparent" points="560.5,-869.5 560.5,-890.5 824.5,-890.5 824.5,-869.5 560.5,-869.5"/>
<polygon fill="none" stroke="#8ccbf2" points="560.5,-869.5 560.5,-890.5 824.5,-890.5 824.5,-869.5 560.5,-869.5"/>
<text text-anchor="start" x="671.5" y="-877.3" font-family="mono" font-weight="bold" font-size="14.00" fill="#c83500">Thing</text>
<polygon fill="#ddeeff" stroke="transparent" points="560.5,-848.5 560.5,-869.5 824.5,-869.5 824.5,-848.5 560.5,-848.5"/>
<polygon fill="none" stroke="#8ccbf2" points="560.5,-848.5 560.5,-869.5 824.5,-869.5 824.5,-848.5 560.5,-848.5"/>
<text text-anchor="start" x="563.5" y="-856.3" font-family="mono" font-size="14.00" fill="#c83500">@context</text>
<text text-anchor="start" x="630.5" y="-856.3" font-family="Times,serif" font-size="14.00" fill="#000000"> : </text>
<text text-anchor="start" x="642.5" y="-856.3" font-family="Times,serif" font-style="italic" font-size="14.00" fill="#000000">array of </text>
<text text-anchor="start" x="691.5" y="-856.3" font-family="mono" font-size="14.00" fill="#c83500">context</text>
<text text-anchor="start" x="749.5" y="-856.3" font-family="Times,serif" font-size="14.00" fill="#000000"> </text>
<text text-anchor="start" x="753.5" y="-856.3" font-family="Times,serif" font-style="italic" font-size="14.00" fill="#000000">(mandatory)</text>
<polygon fill="#ddeeff" stroke="transparent" points="560.5,-827.5 560.5,-848.5 824.5,-848.5 824.5,-827.5 560.5,-827.5"/>
<polygon fill="none" stroke="#8ccbf2" points="560.5,-827.5 560.5,-848.5 824.5,-848.5 824.5,-827.5 560.5,-827.5"/>
<text text-anchor="start" x="563.5" y="-835.3" font-family="mono" font-size="14.00" fill="#c83500">@type</text>
<text text-anchor="start" x="605.5" y="-835.3" font-family="Times,serif" font-size="14.00" fill="#000000"> : </text>
<text text-anchor="start" x="617.5" y="-835.3" font-family="Times,serif" font-style="italic" font-size="14.00" fill="#000000">array of </text>
<text text-anchor="start" x="666.5" y="-835.3" font-family="mono" font-size="14.00" fill="#c83500">string</text>
<polygon fill="#ddeeff" stroke="transparent" points="560.5,-806.5 560.5,-827.5 824.5,-827.5 824.5,-806.5 560.5,-806.5"/>
<polygon fill="none" stroke="#8ccbf2" points="560.5,-806.5 560.5,-827.5 824.5,-827.5 824.5,-806.5 560.5,-806.5"/>
<text text-anchor="start" x="563.5" y="-814.3" font-family="mono" font-size="14.00" fill="#c83500">id</text>
<text text-anchor="start" x="580.5" y="-814.3" font-family="Times,serif" font-size="14.00" fill="#000000"> : </text>
<text text-anchor="start" x="592.5" y="-814.3" font-family="mono" font-size="14.00" fill="#c83500">anyURI</text>
<text text-anchor="start" x="642.5" y="-814.3" font-family="Times,serif" font-size="14.00" fill="#000000"> </text>
<text text-anchor="start" x="646.5" y="-814.3" font-family="Times,serif" font-style="italic" font-size="14.00" fill="#000000">(mandatory)</text>
<polygon fill="#ddeeff" stroke="transparent" points="560.5,-785.5 560.5,-806.5 824.5,-806.5 824.5,-785.5 560.5,-785.5"/>
<polygon fill="none" stroke="#8ccbf2" points="560.5,-785.5 560.5,-806.5 824.5,-806.5 824.5,-785.5 560.5,-785.5"/>
<text text-anchor="start" x="563.5" y="-793.3" font-family="mono" font-size="14.00" fill="#c83500">name</text>
<text text-anchor="start" x="597.5" y="-793.3" font-family="Times,serif" font-size="14.00" fill="#000000"> : </text>
<text text-anchor="start" x="609.5" y="-793.3" font-family="mono" font-size="14.00" fill="#c83500">string</text>
<text text-anchor="start" x="659.5" y="-793.3" font-family="Times,serif" font-size="14.00" fill="#000000"> </text>
<text text-anchor="start" x="663.5" y="-793.3" font-family="Times,serif" font-style="italic" font-size="14.00" fill="#000000">(mandatory)</text>
<polygon fill="#ddeeff" stroke="transparent" points="560.5,-764.5 560.5,-785.5 824.5,-785.5 824.5,-764.5 560.5,-764.5"/>
<polygon fill="none" stroke="#8ccbf2" points="560.5,-764.5 560.5,-785.5 824.5,-785.5 824.5,-764.5 560.5,-764.5"/>
<text text-anchor="start" x="563.5" y="-772.3" font-family="mono" font-size="14.00" fill="#c83500">created</text>
<text text-anchor="start" x="621.5" y="-772.3" font-family="Times,serif" font-size="14.00" fill="#000000"> : </text>
<text text-anchor="start" x="633.5" y="-772.3" font-family="mono" font-size="14.00" fill="#c83500">string</text>
<polygon fill="#ddeeff" stroke="transparent" points="560.5,-743.5 560.5,-764.5 824.5,-764.5 824.5,-743.5 560.5,-743.5"/>
<polygon fill="none" stroke="#8ccbf2" points="560.5,-743.5 560.5,-764.5 824.5,-764.5 824.5,-743.5 560.5,-743.5"/>
<text text-anchor="start" x="563.5" y="-751.3" font-family="mono" font-size="14.00" fill="#c83500">base</text>
<text text-anchor="start" x="597.5" y="-751.3" font-family="Times,serif" font-size="14.00" fill="#000000"> : </text>
<text text-anchor="start" x="609.5" y="-751.3" font-family="mono" font-size="14.00" fill="#c83500">anyURI</text>
<polygon fill="#ddeeff" stroke="transparent" points="560.5,-722.5 560.5,-743.5 824.5,-743.5 824.5,-722.5 560.5,-722.5"/>
<polygon fill="none" stroke="#8ccbf2" points="560.5,-722.5 560.5,-743.5 824.5,-743.5 824.5,-722.5 560.5,-722.5"/>
<text text-anchor="start" x="563.5" y="-730.3" font-family="mono" font-size="14.00" fill="#c83500">lastModified</text>
<text text-anchor="start" x="663.5" y="-730.3" font-family="Times,serif" font-size="14.00" fill="#000000"> : </text>
<text text-anchor="start" x="675.5" y="-730.3" font-family="mono" font-size="14.00" fill="#c83500">string</text>
<polygon fill="#ddeeff" stroke="transparent" points="560.5,-701.5 560.5,-722.5 824.5,-722.5 824.5,-701.5 560.5,-701.5"/>
<polygon fill="none" stroke="#8ccbf2" points="560.5,-701.5 560.5,-722.5 824.5,-722.5 824.5,-701.5 560.5,-701.5"/>
<text text-anchor="start" x="563.5" y="-709.3" font-family="mono" font-size="14.00" fill="#c83500">security</text>
<text text-anchor="start" x="630.5" y="-709.3" font-family="Times,serif" font-size="14.00" fill="#000000"> : array of </text>
<text text-anchor="start" x="688.5" y="-709.3" font-family="mono" font-size="14.00" fill="#c83500">string</text>
<text text-anchor="start" x="738.5" y="-709.3" font-family="Times,serif" font-size="14.00" fill="#000000"> </text>
<text text-anchor="start" x="742.5" y="-709.3" font-family="Times,serif" font-style="italic" font-size="14.00" fill="#000000">(mandatory)</text>
<polygon fill="#ddeeff" stroke="transparent" points="560.5,-680.5 560.5,-701.5 824.5,-701.5 824.5,-680.5 560.5,-680.5"/>
<polygon fill="none" stroke="#8ccbf2" points="560.5,-680.5 560.5,-701.5 824.5,-701.5 824.5,-680.5 560.5,-680.5"/>
<text text-anchor="start" x="563.5" y="-688.3" font-family="mono" font-size="14.00" fill="#c83500">support</text>
<text text-anchor="start" x="621.5" y="-688.3" font-family="Times,serif" font-size="14.00" fill="#000000"> : </text>
<text text-anchor="start" x="633.5" y="-688.3" font-family="mono" font-size="14.00" fill="#c83500">string</text>
<polygon fill="#ddeeff" stroke="transparent" points="560.5,-659.5 560.5,-680.5 824.5,-680.5 824.5,-659.5 560.5,-659.5"/>
<polygon fill="none" stroke="#8ccbf2" points="560.5,-659.5 560.5,-680.5 824.5,-680.5 824.5,-659.5 560.5,-659.5"/>
<text text-anchor="start" x="563.5" y="-667.3" font-family="mono" font-size="14.00" fill="#c83500">description</text>
<text text-anchor="start" x="654.5" y="-667.3" font-family="Times,serif" font-size="14.00" fill="#000000"> : </text>
<text text-anchor="start" x="666.5" y="-667.3" font-family="mono" font-size="14.00" fill="#c83500">string</text>
</g>
<!-- Thing&#45;&gt;MultiLanguage -->
<g id="edge7" class="edge">
<title>Thing&#45;&gt;MultiLanguage</title>
<path fill="none" stroke="#000000" d="M552.2205,-745.1131C424.0082,-714.1597 248.3247,-662.6257 207.5,-605 178.1592,-563.5843 181.5703,-331.7582 219.5,-274 229.3193,-259.0474 241.0743,-266.5782 255.5,-256 275.6869,-241.1972 295.2444,-220.7183 309.324,-204.5293"/>
<polygon fill="#000000" stroke="#000000" points="312.3384,-206.3883 316.1618,-196.5074 307.0111,-201.8474 312.3384,-206.3883"/>
<text text-anchor="start" x="188.5" y="-462.8" font-family="mono" font-size="14.00" fill="#c83500">descriptions</text>
<text text-anchor="middle" x="327.1618" y="-200.3074" font-family="Times,serif" font-size="14.00" fill="#000000">0..1</text>
</g>
<!-- Thing&#45;&gt;Link -->
<g id="edge10" class="edge">
<title>Thing&#45;&gt;Link</title>
<path fill="none" stroke="#000000" d="M814.9541,-655.685C830.2592,-640.7098 845.414,-625.8815 859.3484,-612.2474"/>
<polygon fill="#000000" stroke="#000000" points="861.8184,-614.7275 866.5183,-605.2321 856.9228,-609.7241 861.8184,-614.7275"/>
<text text-anchor="start" x="843.5" y="-626.8" font-family="mono" font-size="14.00" fill="#c83500">links</text>
<text text-anchor="middle" x="855.5183" y="-609.0321" font-family="Times,serif" font-size="14.00" fill="#000000">0..*</text>
</g>
<!-- Thing&#45;&gt;Form -->
<g id="edge6" class="edge">
<title>Thing&#45;&gt;Form</title>
<path fill="none" stroke="#000000" d="M552.2137,-748.4531C416.6154,-718.9968 225.7913,-667.616 184.5,-605 117.4241,-503.2831 111.0116,-358.3298 115.2197,-266.3463"/>
<polygon fill="#000000" stroke="#000000" points="118.7217,-266.3952 115.7351,-256.23 111.7307,-266.0389 118.7217,-266.3952"/>
<text text-anchor="start" x="131.5" y="-462.8" font-family="mono" font-size="14.00" fill="#c83500">forms</text>
<text text-anchor="middle" x="104.7351" y="-260.03" font-family="Times,serif" font-size="14.00" fill="#000000">0..*</text>
</g>
<!-- Property -->
<g id="node6" class="node">
<title>Property</title>
<polygon fill="#8ccbf2" stroke="transparent" points="225.5,-548.5 225.5,-569.5 456.5,-569.5 456.5,-548.5 225.5,-548.5"/>
<polygon fill="none" stroke="#8ccbf2" points="225.5,-548.5 225.5,-569.5 456.5,-569.5 456.5,-548.5 225.5,-548.5"/>
<text text-anchor="start" x="307.5" y="-556.3" font-family="mono" font-weight="bold" font-size="14.00" fill="#c83500">Property</text>
<polygon fill="#ddeeff" stroke="transparent" points="225.5,-527.5 225.5,-548.5 456.5,-548.5 456.5,-527.5 225.5,-527.5"/>
<polygon fill="none" stroke="#8ccbf2" points="225.5,-527.5 225.5,-548.5 456.5,-548.5 456.5,-527.5 225.5,-527.5"/>
<text text-anchor="start" x="228.5" y="-535.3" font-family="mono" font-size="14.00" fill="#c83500">observable</text>
<text text-anchor="start" x="311.5" y="-535.3" font-family="Times,serif" font-size="14.00" fill="#000000"> : </text>
<text text-anchor="start" x="323.5" y="-535.3" font-family="mono" font-size="14.00" fill="#c83500">boolean</text>
<text text-anchor="start" x="381.5" y="-535.3" font-family="Times,serif" font-size="14.00" fill="#000000"> </text>
<text text-anchor="start" x="385.5" y="-535.3" font-family="Times,serif" font-style="italic" font-size="14.00" fill="#000000">(mandatory)</text>
</g>
<!-- Thing&#45;&gt;Property -->
<g id="edge9" class="edge">
<title>Thing&#45;&gt;Property</title>
<path fill="none" stroke="#000000" d="M552.3689,-685.1313C494.0181,-647.5017 430.1741,-606.3296 387.9861,-579.1232"/>
<polygon fill="#000000" stroke="#000000" points="389.6231,-576.0142 379.3222,-573.5359 385.8293,-581.897 389.6231,-576.0142"/>
<text text-anchor="start" x="475.5" y="-626.8" font-family="mono" font-size="14.00" fill="#c83500">properties</text>
<text text-anchor="middle" x="368.3222" y="-577.3359" font-family="Times,serif" font-size="14.00" fill="#000000">0..1</text>
</g>
<!-- VersionInfo -->
<g id="node8" class="node">
<title>VersionInfo</title>
<polygon fill="#8ccbf2" stroke="transparent" points="1046.5,-548.5 1046.5,-569.5 1253.5,-569.5 1253.5,-548.5 1046.5,-548.5"/>
<polygon fill="none" stroke="#8ccbf2" points="1046.5,-548.5 1046.5,-569.5 1253.5,-569.5 1253.5,-548.5 1046.5,-548.5"/>
<text text-anchor="start" x="1104.5" y="-556.3" font-family="mono" font-weight="bold" font-size="14.00" fill="#c83500">VersionInfo</text>
<polygon fill="#ddeeff" stroke="transparent" points="1046.5,-527.5 1046.5,-548.5 1253.5,-548.5 1253.5,-527.5 1046.5,-527.5"/>
<polygon fill="none" stroke="#8ccbf2" points="1046.5,-527.5 1046.5,-548.5 1253.5,-548.5 1253.5,-527.5 1046.5,-527.5"/>
<text text-anchor="start" x="1049.5" y="-535.3" font-family="mono" font-size="14.00" fill="#c83500">instance</text>
<text text-anchor="start" x="1116.5" y="-535.3" font-family="Times,serif" font-size="14.00" fill="#000000"> : </text>
<text text-anchor="start" x="1128.5" y="-535.3" font-family="mono" font-size="14.00" fill="#c83500">string</text>
<text text-anchor="start" x="1178.5" y="-535.3" font-family="Times,serif" font-size="14.00" fill="#000000"> </text>
<text text-anchor="start" x="1182.5" y="-535.3" font-family="Times,serif" font-style="italic" font-size="14.00" fill="#000000">(mandatory)</text>
</g>
<!-- Thing&#45;&gt;VersionInfo -->
<g id="edge13" class="edge">
<title>Thing&#45;&gt;VersionInfo</title>
<path fill="none" stroke="#000000" d="M832.7208,-705.8498C918.8728,-663.0566 1024.8094,-610.436 1089.7217,-578.1929"/>
<polygon fill="#000000" stroke="#000000" points="1091.5951,-581.1705 1098.9941,-573.5872 1088.481,-574.9012 1091.5951,-581.1705"/>
<text text-anchor="start" x="989.5" y="-626.8" font-family="mono" font-size="14.00" fill="#c83500">version</text>
<text text-anchor="middle" x="1087.9941" y="-577.3872" font-family="Times,serif" font-size="14.00" fill="#000000">0..1</text>
</g>
<!-- Action -->
<g id="node9" class="node">
<title>Action</title>
<polygon fill="#8ccbf2" stroke="transparent" points="490.5,-558.5 490.5,-579.5 721.5,-579.5 721.5,-558.5 490.5,-558.5"/>
<polygon fill="none" stroke="#8ccbf2" points="490.5,-558.5 490.5,-579.5 721.5,-579.5 721.5,-558.5 490.5,-558.5"/>
<text text-anchor="start" x="581" y="-566.3" font-family="mono" font-weight="bold" font-size="14.00" fill="#c83500">Action</text>
<polygon fill="#ddeeff" stroke="transparent" points="490.5,-537.5 490.5,-558.5 721.5,-558.5 721.5,-537.5 490.5,-537.5"/>
<polygon fill="none" stroke="#8ccbf2" points="490.5,-537.5 490.5,-558.5 721.5,-558.5 721.5,-537.5 490.5,-537.5"/>
<text text-anchor="start" x="493.5" y="-545.3" font-family="mono" font-size="14.00" fill="#c83500">idempotent</text>
<text text-anchor="start" x="576.5" y="-545.3" font-family="Times,serif" font-size="14.00" fill="#000000"> : </text>
<text text-anchor="start" x="588.5" y="-545.3" font-family="mono" font-size="14.00" fill="#c83500">boolean</text>
<text text-anchor="start" x="646.5" y="-545.3" font-family="Times,serif" font-size="14.00" fill="#000000"> </text>
<text text-anchor="start" x="650.5" y="-545.3" font-family="Times,serif" font-style="italic" font-size="14.00" fill="#000000">(mandatory)</text>
<polygon fill="#ddeeff" stroke="transparent" points="490.5,-516.5 490.5,-537.5 721.5,-537.5 721.5,-516.5 490.5,-516.5"/>
<polygon fill="none" stroke="#8ccbf2" points="490.5,-516.5 490.5,-537.5 721.5,-537.5 721.5,-516.5 490.5,-516.5"/>
<text text-anchor="start" x="493.5" y="-524.3" font-family="mono" font-size="14.00" fill="#c83500">safe</text>
<text text-anchor="start" x="527.5" y="-524.3" font-family="Times,serif" font-size="14.00" fill="#000000"> : </text>
<text text-anchor="start" x="539.5" y="-524.3" font-family="mono" font-size="14.00" fill="#c83500">boolean</text>
<text text-anchor="start" x="597.5" y="-524.3" font-family="Times,serif" font-size="14.00" fill="#000000"> </text>
<text text-anchor="start" x="601.5" y="-524.3" font-family="Times,serif" font-style="italic" font-size="14.00" fill="#000000">(mandatory)</text>
</g>
<!-- Thing&#45;&gt;Action -->
<g id="edge12" class="edge">
<title>Thing&#45;&gt;Action</title>
<path fill="none" stroke="#000000" d="M646.5797,-655.685C638.062,-633.4607 629.6684,-611.5602 622.7107,-593.4061"/>
<polygon fill="#000000" stroke="#000000" points="625.9531,-592.086 619.1061,-584.0009 619.4167,-594.5912 625.9531,-592.086"/>
<text text-anchor="start" x="639.5" y="-626.8" font-family="mono" font-size="14.00" fill="#c83500">actions</text>
<text text-anchor="middle" x="608.1061" y="-587.8009" font-family="Times,serif" font-size="14.00" fill="#000000">0..1</text>
</g>
<!-- Event -->
<g id="node10" class="node">
<title>Event</title>
<polygon fill="#8ccbf2" stroke="transparent" points="755.5,-537.5 755.5,-558.5 803.5,-558.5 803.5,-537.5 755.5,-537.5"/>
<polygon fill="none" stroke="#8ccbf2" points="755.5,-537.5 755.5,-558.5 803.5,-558.5 803.5,-537.5 755.5,-537.5"/>
<text text-anchor="start" x="758.5" y="-545.3" font-family="mono" font-weight="bold" font-size="14.00" fill="#c83500">Event</text>
</g>
<!-- Thing&#45;&gt;Event -->
<g id="edge11" class="edge">
<title>Thing&#45;&gt;Event</title>
<path fill="none" stroke="#000000" d="M738.4203,-655.685C749.8819,-625.7794 761.1187,-596.4603 768.9348,-576.0667"/>
<polygon fill="#000000" stroke="#000000" points="772.2774,-577.125 772.588,-566.5347 765.741,-574.6199 772.2774,-577.125"/>
<text text-anchor="start" x="749.5" y="-626.8" font-family="mono" font-size="14.00" fill="#c83500">events</text>
<text text-anchor="middle" x="761.588" y="-570.3347" font-family="Times,serif" font-size="14.00" fill="#000000">0..1</text>
</g>
<!-- SecurityScheme -->
<g id="node12" class="node">
<title>SecurityScheme</title>
<polygon fill="#f2f2f2" stroke="transparent" points="1287.5,-537.5 1287.5,-558.5 1409.5,-558.5 1409.5,-537.5 1287.5,-537.5"/>
<polygon fill="none" stroke="#8c8c8c" points="1287.5,-537.5 1287.5,-558.5 1409.5,-558.5 1409.5,-537.5 1287.5,-537.5"/>
<text text-anchor="start" x="1290.5" y="-545.3" font-family="mono" font-weight="bold" font-size="14.00" fill="#000000">SecurityScheme</text>
</g>
<!-- Thing&#45;&gt;SecurityScheme -->
<g id="edge8" class="edge">
<title>Thing&#45;&gt;SecurityScheme</title>
<path fill="none" stroke="#000000" d="M832.5929,-748.2183C952.8128,-721.5653 1128.6059,-674.7485 1270.5,-605 1287.9364,-596.4291 1305.6136,-583.9988 1319.7208,-572.9784"/>
<polygon fill="#000000" stroke="#000000" points="1321.9592,-575.6699 1327.5856,-566.6925 1317.5888,-570.2018 1321.9592,-575.6699"/>
<text text-anchor="start" x="1225.5" y="-626.8" font-family="mono" font-size="14.00" fill="#c83500">securityDefinitions</text>
<text text-anchor="middle" x="1316.5856" y="-570.4925" font-family="Times,serif" font-size="14.00" fill="#000000">1..1</text>
</g>
<!-- Property&#45;&gt;InteractionPattern -->
<g id="edge20" class="edge">
<title>Property&#45;&gt;InteractionPattern</title>
<path fill="none" stroke="#000000" d="M343.2222,-523.4984C345.2876,-504.5297 348.2448,-477.3704 351.0734,-451.3919"/>
<polygon fill="#ffffff" stroke="#000000" points="354.5875,-451.451 352.1906,-441.1309 347.6287,-450.6932 354.5875,-451.451"/>
</g>
<!-- Action&#45;&gt;InteractionPattern -->
<g id="edge21" class="edge">
<title>Action&#45;&gt;InteractionPattern</title>
<path fill="none" stroke="#000000" d="M555.4217,-512.977C528.7274,-494.0414 494.8613,-470.0185 462.8235,-447.2925"/>
<polygon fill="#ffffff" stroke="#000000" points="464.4663,-444.1667 454.2849,-441.2357 460.4163,-449.8761 464.4663,-444.1667"/>
</g>
<!-- Action&#45;&gt;DataSchema -->
<g id="edge14" class="edge">
<title>Action&#45;&gt;DataSchema</title>
<path fill="none" stroke="#000000" d="M599.2817,-512.7302C592.4296,-464.3297 585.5249,-376.0932 611.5,-307 627.2387,-265.1354 662.7864,-227.1206 688.6006,-203.4841"/>
<polygon fill="#000000" stroke="#000000" points="691.1502,-205.8993 696.2668,-196.6219 686.4814,-200.6837 691.1502,-205.8993"/>
<text text-anchor="start" x="611.5" y="-370.3" font-family="mono" font-size="14.00" fill="#c83500">input</text>
<text text-anchor="middle" x="685.2668" y="-200.4219" font-family="Times,serif" font-size="14.00" fill="#000000">0..1</text>
</g>
<!-- Action&#45;&gt;DataSchema -->
<g id="edge15" class="edge">
<title>Action&#45;&gt;DataSchema</title>
<path fill="none" stroke="#000000" d="M623.3605,-512.8223C633.1921,-492.1997 645.0712,-465.5512 653.5,-441 673.4161,-382.9886 671.7559,-366.5364 686.5,-307 695.0489,-272.4796 704.9502,-232.7596 711.4482,-206.7276"/>
<polygon fill="#000000" stroke="#000000" points="714.901,-207.3467 713.9278,-196.7967 708.1095,-205.6509 714.901,-207.3467"/>
<text text-anchor="start" x="686.5" y="-370.3" font-family="mono" font-size="14.00" fill="#c83500">output</text>
<text text-anchor="middle" x="724.9278" y="-200.5967" font-family="Times,serif" font-size="14.00" fill="#000000">0..1</text>
</g>
<!-- Event&#45;&gt;InteractionPattern -->
<g id="edge19" class="edge">
<title>Event&#45;&gt;InteractionPattern</title>
<path fill="none" stroke="#000000" d="M770.0406,-530.31C762.7083,-517.8707 751.4556,-501.9014 737.5,-492 736.0528,-490.9732 579.0909,-442.1416 467.9105,-407.6253"/>
<polygon fill="#ffffff" stroke="#000000" points="468.8989,-404.2675 458.3108,-404.6454 466.8236,-410.9528 468.8989,-404.2675"/>
</g>
<!-- Event&#45;&gt;DataSchema -->
<g id="edge16" class="edge">
<title>Event&#45;&gt;DataSchema</title>
<path fill="none" stroke="#000000" d="M776.5165,-530.4037C766.665,-470.6483 735.1218,-279.3208 723.1596,-206.7629"/>
<polygon fill="#000000" stroke="#000000" points="726.5579,-205.859 721.4777,-196.5615 719.6511,-206.9977 726.5579,-205.859"/>
<text text-anchor="start" x="761.5" y="-370.3" font-family="mono" font-size="14.00" fill="#c83500">subscription</text>
<text text-anchor="middle" x="710.4777" y="-200.3615" font-family="Times,serif" font-size="14.00" fill="#000000">0..1</text>
</g>
<!-- Event&#45;&gt;DataSchema -->
<g id="edge17" class="edge">
<title>Event&#45;&gt;DataSchema</title>
<path fill="none" stroke="#000000" d="M791.9997,-530.3621C799.9104,-519.1174 810.4985,-504.486 820.5,-492 839.3984,-468.407 854.8091,-469.2751 865.5,-441 886.5629,-385.2935 890.1224,-361.2273 865.5,-307 844.2477,-260.1947 796.5903,-223.7502 761.269,-201.8159"/>
<polygon fill="#000000" stroke="#000000" points="762.9455,-198.7395 752.5784,-196.5546 759.3202,-204.7276 762.9455,-198.7395"/>
<text text-anchor="start" x="883.5" y="-370.3" font-family="mono" font-size="14.00" fill="#c83500">data</text>
<text text-anchor="middle" x="763.5784" y="-200.3546" font-family="Times,serif" font-size="14.00" fill="#000000">0..1</text>
</g>
<!-- Event&#45;&gt;DataSchema -->
<g id="edge18" class="edge">
<title>Event&#45;&gt;DataSchema</title>
<path fill="none" stroke="#000000" d="M789.3024,-530.2435C796.5812,-518.0937 807.478,-502.4954 820.5,-492 835.9948,-479.5116 843.6524,-482.8041 861.5,-474 888.7938,-460.5362 906.0104,-467.1972 921.5,-441 951.8114,-389.7352 950.2212,-359.1724 921.5,-307 891.7986,-253.047 828.8261,-218.5832 780.8439,-199.0755"/>
<polygon fill="#000000" stroke="#000000" points="782.0482,-195.7881 771.4616,-195.372 779.4781,-202.2992 782.0482,-195.7881"/>
<text text-anchor="start" x="944.5" y="-370.3" font-family="mono" font-size="14.00" fill="#c83500">cancellation</text>
<text text-anchor="middle" x="782.4616" y="-184.172" font-family="Times,serif" font-size="14.00" fill="#000000">0..1</text>
</g>
</g>
</svg>
