<?xml version="1.0" encoding="UTF-8" standalone="no"?>
<!DOCTYPE svg PUBLIC "-//W3C//DTD SVG 1.1//EN"
 "http://www.w3.org/Graphics/SVG/1.1/DTD/svg11.dtd">
<!-- Generated by graphviz version 2.38.0 (20140413.2041)
 -->
<!-- Title: %3 Pages: 1 -->
<svg width="198pt" height="121pt"
 viewBox="0.00 0.00 198.00 121.00" xmlns="http://www.w3.org/2000/svg" xmlns:xlink="http://www.w3.org/1999/xlink">
<g id="graph0" class="graph" transform="scale(1 1) rotate(0) translate(4 117)">
<title>%3</title>
<polygon fill="white" stroke="none" points="-4,4 -4,-117 194,-117 194,4 -4,4"/>
<!-- Link -->
<g id="node1" class="node"><title>Link</title>
<polygon fill="#8ccbf2" stroke="none" points="8,-87.5 8,-108.5 182,-108.5 182,-87.5 8,-87.5"/>
<polygon fill="none" stroke="#8ccbf2" points="8,-87.5 8,-108.5 182,-108.5 182,-87.5 8,-87.5"/>
<text text-anchor="start" x="78" y="-95.3" font-family="mono" font-weight="bold" font-size="14.00" fill="#c83500">Link</text>
<polygon fill="#ddeeff" stroke="none" points="8,-66.5 8,-87.5 182,-87.5 182,-66.5 8,-66.5"/>
<polygon fill="none" stroke="#8ccbf2" points="8,-66.5 8,-87.5 182,-87.5 182,-66.5 8,-66.5"/>
<text text-anchor="start" x="11" y="-74.3" font-family="mono" font-size="14.00" fill="#c83500">rel</text>
<text text-anchor="start" x="36" y="-74.3" font-family="Times,serif" font-size="14.00"> : </text>
<text text-anchor="start" x="48" y="-74.3" font-family="mono" font-size="14.00" fill="#c83500">string</text>
<polygon fill="#ddeeff" stroke="none" points="8,-45.5 8,-66.5 182,-66.5 182,-45.5 8,-45.5"/>
<polygon fill="none" stroke="#8ccbf2" points="8,-45.5 8,-66.5 182,-66.5 182,-45.5 8,-45.5"/>
<text text-anchor="start" x="11" y="-53.3" font-family="mono" font-size="14.00" fill="#c83500">type</text>
<text text-anchor="start" x="45" y="-53.3" font-family="Times,serif" font-size="14.00"> : </text>
<text text-anchor="start" x="57" y="-53.3" font-family="mono" font-size="14.00" fill="#c83500">string</text>
<polygon fill="#ddeeff" stroke="none" points="8,-24.5 8,-45.5 182,-45.5 182,-24.5 8,-24.5"/>
<polygon fill="none" stroke="#8ccbf2" points="8,-24.5 8,-45.5 182,-45.5 182,-24.5 8,-24.5"/>
<text text-anchor="start" x="11" y="-32.3" font-family="mono" font-size="14.00" fill="#c83500">href</text>
<text text-anchor="start" x="45" y="-32.3" font-family="Times,serif" font-size="14.00"> : </text>
<text text-anchor="start" x="57" y="-32.3" font-family="mono" font-size="14.00" fill="#c83500">anyURI</text>
<text text-anchor="start" x="107" y="-32.3" font-family="Times,serif" font-size="14.00"> </text>
<text text-anchor="start" x="111" y="-32.3" font-family="Times,serif" font-style="italic" font-size="14.00">(mandatory)</text>
<polygon fill="#ddeeff" stroke="none" points="8,-3.5 8,-24.5 182,-24.5 182,-3.5 8,-3.5"/>
<polygon fill="none" stroke="#8ccbf2" points="8,-3.5 8,-24.5 182,-24.5 182,-3.5 8,-3.5"/>
<text text-anchor="start" x="11" y="-11.3" font-family="mono" font-size="14.00" fill="#c83500">anchor</text>
<text text-anchor="start" x="61" y="-11.3" font-family="Times,serif" font-size="14.00"> : </text>
<text text-anchor="start" x="73" y="-11.3" font-family="mono" font-size="14.00" fill="#c83500">anyURI</text>
</g>
</g>
</svg>
