<?xml version="1.0" encoding="UTF-8" standalone="no"?>
<!DOCTYPE svg PUBLIC "-//W3C//DTD SVG 1.1//EN"
 "http://www.w3.org/Graphics/SVG/1.1/DTD/svg11.dtd">
<!-- Generated by graphviz version 2.40.1 (20161225.0304)
 -->
<!-- Title: %3 Pages: 1 -->
<svg width="602pt" height="285pt"
 viewBox="0.00 0.00 601.50 285.00" xmlns="http://www.w3.org/2000/svg" xmlns:xlink="http://www.w3.org/1999/xlink">
<g id="graph0" class="graph" transform="scale(1 1) rotate(0) translate(4 281)">
<title>%3</title>
<polygon fill="#ffffff" stroke="transparent" points="-4,4 -4,-281 597.5,-281 597.5,4 -4,4"/>
<!-- Link -->
<g id="node1" class="node">
<title>Link</title>
<polygon fill="#8ccbf2" stroke="transparent" points="8.5,-220 8.5,-241 223.5,-241 223.5,-220 8.5,-220"/>
<polygon fill="none" stroke="#8ccbf2" points="8.5,-220 8.5,-241 223.5,-241 223.5,-220 8.5,-220"/>
<text text-anchor="start" x="99" y="-227.8" font-family="mono" font-weight="bold" font-size="14.00" fill="#c83500">Link</text>
<polygon fill="#ddeeff" stroke="transparent" points="8.5,-199 8.5,-220 223.5,-220 223.5,-199 8.5,-199"/>
<polygon fill="none" stroke="#8ccbf2" points="8.5,-199 8.5,-220 223.5,-220 223.5,-199 8.5,-199"/>
<text text-anchor="start" x="11.5" y="-206.8" font-family="mono" font-size="14.00" fill="#c83500">hasAnchor</text>
<text text-anchor="start" x="86.5" y="-206.8" font-family="Times,serif" font-size="14.00" fill="#000000"> : </text>
<text text-anchor="start" x="98.5" y="-206.8" font-family="mono" font-size="14.00" fill="#c83500">anyURI</text>
<polygon fill="#ddeeff" stroke="transparent" points="8.5,-178 8.5,-199 223.5,-199 223.5,-178 8.5,-178"/>
<polygon fill="none" stroke="#8ccbf2" points="8.5,-178 8.5,-199 223.5,-199 223.5,-178 8.5,-178"/>
<text text-anchor="start" x="11.5" y="-185.8" font-family="mono" font-size="14.00" fill="#c83500">hasTarget</text>
<text text-anchor="start" x="86.5" y="-185.8" font-family="Times,serif" font-size="14.00" fill="#000000"> : </text>
<text text-anchor="start" x="98.5" y="-185.8" font-family="mono" font-size="14.00" fill="#c83500">anyURI</text>
<text text-anchor="start" x="148.5" y="-185.8" font-family="Times,serif" font-size="14.00" fill="#000000"> </text>
<text text-anchor="start" x="152.5" y="-185.8" font-family="Times,serif" font-style="italic" font-size="14.00" fill="#000000">(mandatory)</text>
<polygon fill="#ddeeff" stroke="transparent" points="8.5,-157 8.5,-178 223.5,-178 223.5,-157 8.5,-157"/>
<polygon fill="none" stroke="#8ccbf2" points="8.5,-157 8.5,-178 223.5,-178 223.5,-157 8.5,-157"/>
<text text-anchor="start" x="11.5" y="-164.8" font-family="mono" font-size="14.00" fill="#c83500">hintsAtMediaType</text>
<text text-anchor="start" x="144.5" y="-164.8" font-family="Times,serif" font-size="14.00" fill="#000000"> : </text>
<text text-anchor="start" x="156.5" y="-164.8" font-family="mono" font-size="14.00" fill="#c83500">string</text>
<polygon fill="#ddeeff" stroke="transparent" points="8.5,-136 8.5,-157 223.5,-157 223.5,-136 8.5,-136"/>
<polygon fill="none" stroke="#8ccbf2" points="8.5,-136 8.5,-157 223.5,-157 223.5,-136 8.5,-136"/>
<text text-anchor="start" x="11.5" y="-143.8" font-family="mono" font-size="14.00" fill="#c83500">hasRelationType</text>
<text text-anchor="start" x="135.5" y="-143.8" font-family="Times,serif" font-size="14.00" fill="#000000"> : </text>
<text text-anchor="start" x="147.5" y="-143.8" font-family="mono" font-size="14.00" fill="#c83500">string</text>
</g>
<!-- Form -->
<g id="node2" class="node">
<title>Form</title>
<polygon fill="#8ccbf2" stroke="transparent" points="257.5,-252 257.5,-273 585.5,-273 585.5,-252 257.5,-252"/>
<polygon fill="none" stroke="#8ccbf2" points="257.5,-252 257.5,-273 585.5,-273 585.5,-252 257.5,-252"/>
<text text-anchor="start" x="404.5" y="-259.8" font-family="mono" font-weight="bold" font-size="14.00" fill="#c83500">Form</text>
<polygon fill="#ddeeff" stroke="transparent" points="257.5,-231 257.5,-252 585.5,-252 585.5,-231 257.5,-231"/>
<polygon fill="none" stroke="#8ccbf2" points="257.5,-231 257.5,-252 585.5,-252 585.5,-231 257.5,-231"/>
<text text-anchor="start" x="260.5" y="-238.8" font-family="mono" font-size="14.00" fill="#c83500">forOperationType</text>
<text text-anchor="start" x="393.5" y="-238.8" font-family="Times,serif" font-size="14.00" fill="#000000"> : (array of) </text>
<text text-anchor="start" x="460.5" y="-238.8" font-family="mono" font-size="14.00" fill="#c83500">string</text>
<text text-anchor="start" x="510.5" y="-238.8" font-family="Times,serif" font-size="14.00" fill="#000000"> </text>
<text text-anchor="start" x="514.5" y="-238.8" font-family="Times,serif" font-style="italic" font-size="14.00" fill="#000000">(mandatory)</text>
<polygon fill="#ddeeff" stroke="transparent" points="257.5,-210 257.5,-231 585.5,-231 585.5,-210 257.5,-210"/>
<polygon fill="none" stroke="#8ccbf2" points="257.5,-210 257.5,-231 585.5,-231 585.5,-210 257.5,-210"/>
<text text-anchor="start" x="260.5" y="-217.8" font-family="mono" font-size="14.00" fill="#c83500">security</text>
<text text-anchor="start" x="327.5" y="-217.8" font-family="Times,serif" font-size="14.00" fill="#000000"> : (array of) </text>
<text text-anchor="start" x="394.5" y="-217.8" font-family="mono" font-size="14.00" fill="#c83500">string</text>
<polygon fill="#ddeeff" stroke="transparent" points="257.5,-189 257.5,-210 585.5,-210 585.5,-189 257.5,-189"/>
<polygon fill="none" stroke="#8ccbf2" points="257.5,-189 257.5,-210 585.5,-210 585.5,-189 257.5,-189"/>
<text text-anchor="start" x="260.5" y="-196.8" font-family="mono" font-size="14.00" fill="#c83500">forContentCoding</text>
<text text-anchor="start" x="393.5" y="-196.8" font-family="Times,serif" font-size="14.00" fill="#000000"> : </text>
<text text-anchor="start" x="405.5" y="-196.8" font-family="mono" font-size="14.00" fill="#c83500">string</text>
<polygon fill="#ddeeff" stroke="transparent" points="257.5,-168 257.5,-189 585.5,-189 585.5,-168 257.5,-168"/>
<polygon fill="none" stroke="#8ccbf2" points="257.5,-168 257.5,-189 585.5,-189 585.5,-168 257.5,-168"/>
<text text-anchor="start" x="260.5" y="-175.8" font-family="mono" font-size="14.00" fill="#c83500">forContentType</text>
<text text-anchor="start" x="376.5" y="-175.8" font-family="Times,serif" font-size="14.00" fill="#000000"> : </text>
<text text-anchor="start" x="388.5" y="-175.8" font-family="mono" font-size="14.00" fill="#c83500">string</text>
<text text-anchor="start" x="438.5" y="-175.8" font-family="Times,serif" font-size="14.00" fill="#000000"> </text>
<text text-anchor="start" x="442.5" y="-175.8" font-family="Times,serif" font-style="italic" font-size="14.00" fill="#000000">(mandatory)</text>
<polygon fill="#ddeeff" stroke="transparent" points="257.5,-147 257.5,-168 585.5,-168 585.5,-147 257.5,-147"/>
<polygon fill="none" stroke="#8ccbf2" points="257.5,-147 257.5,-168 585.5,-168 585.5,-147 257.5,-147"/>
<text text-anchor="start" x="260.5" y="-154.8" font-family="mono" font-size="14.00" fill="#c83500">forSubProtocol</text>
<text text-anchor="start" x="376.5" y="-154.8" font-family="Times,serif" font-size="14.00" fill="#000000"> : </text>
<text text-anchor="start" x="388.5" y="-154.8" font-family="mono" font-size="14.00" fill="#c83500">string</text>
<polygon fill="#ddeeff" stroke="transparent" points="257.5,-126 257.5,-147 585.5,-147 585.5,-126 257.5,-126"/>
<polygon fill="none" stroke="#8ccbf2" points="257.5,-126 257.5,-147 585.5,-147 585.5,-126 257.5,-126"/>
<text text-anchor="start" x="260.5" y="-133.8" font-family="mono" font-size="14.00" fill="#c83500">scopes</text>
<text text-anchor="start" x="310.5" y="-133.8" font-family="Times,serif" font-size="14.00" fill="#000000"> : (array of) </text>
<text text-anchor="start" x="377.5" y="-133.8" font-family="mono" font-size="14.00" fill="#c83500">string</text>
<polygon fill="#ddeeff" stroke="transparent" points="257.5,-105 257.5,-126 585.5,-126 585.5,-105 257.5,-105"/>
<polygon fill="none" stroke="#8ccbf2" points="257.5,-105 257.5,-126 585.5,-126 585.5,-105 257.5,-105"/>
<text text-anchor="start" x="260.5" y="-112.8" font-family="mono" font-size="14.00" fill="#c83500">hasTarget</text>
<text text-anchor="start" x="335.5" y="-112.8" font-family="Times,serif" font-size="14.00" fill="#000000"> : </text>
<text text-anchor="start" x="347.5" y="-112.8" font-family="mono" font-size="14.00" fill="#c83500">anyURI</text>
<text text-anchor="start" x="397.5" y="-112.8" font-family="Times,serif" font-size="14.00" fill="#000000"> </text>
<text text-anchor="start" x="401.5" y="-112.8" font-family="Times,serif" font-style="italic" font-size="14.00" fill="#000000">(mandatory)</text>
</g>
<!-- ExpectedResponse -->
<g id="node3" class="node">
<title>ExpectedResponse</title>
<polygon fill="#8ccbf2" stroke="transparent" points="293.5,-25 293.5,-46 549.5,-46 549.5,-25 293.5,-25"/>
<polygon fill="none" stroke="#8ccbf2" points="293.5,-25 293.5,-46 549.5,-46 549.5,-25 293.5,-25"/>
<text text-anchor="start" x="355" y="-32.8" font-family="mono" font-weight="bold" font-size="14.00" fill="#c83500">ExpectedResponse</text>
<polygon fill="#ddeeff" stroke="transparent" points="293.5,-4 293.5,-25 549.5,-25 549.5,-4 293.5,-4"/>
<polygon fill="none" stroke="#8ccbf2" points="293.5,-4 293.5,-25 549.5,-25 549.5,-4 293.5,-4"/>
<text text-anchor="start" x="296.5" y="-11.8" font-family="mono" font-size="14.00" fill="#c83500">forContentType</text>
<text text-anchor="start" x="412.5" y="-11.8" font-family="Times,serif" font-size="14.00" fill="#000000"> : </text>
<text text-anchor="start" x="424.5" y="-11.8" font-family="mono" font-size="14.00" fill="#c83500">string</text>
<text text-anchor="start" x="474.5" y="-11.8" font-family="Times,serif" font-size="14.00" fill="#000000"> </text>
<text text-anchor="start" x="478.5" y="-11.8" font-family="Times,serif" font-style="italic" font-size="14.00" fill="#000000">(mandatory)</text>
</g>
<!-- Form&#45;&gt;ExpectedResponse -->
<g id="edge1" class="edge">
<title>Form&#45;&gt;ExpectedResponse</title>
<path fill="none" stroke="#000000" d="M421.5,-100.7593C421.5,-86.4514 421.5,-72.3985 421.5,-60.3563"/>
<polygon fill="#000000" stroke="#000000" points="425.0001,-60.3356 421.5,-50.3356 418.0001,-60.3357 425.0001,-60.3356"/>
<text text-anchor="start" x="421.5" y="-71.8" font-family="mono" font-size="14.00" fill="#c83500">returns</text>
<text text-anchor="middle" x="410.5" y="-54.1356" font-family="Times,serif" font-size="14.00" fill="#000000">0..1</text>
</g>
</g>
</svg>
