<?xml version="1.0" encoding="UTF-8" standalone="no"?>
<!DOCTYPE svg PUBLIC "-//W3C//DTD SVG 1.1//EN"
 "http://www.w3.org/Graphics/SVG/1.1/DTD/svg11.dtd">
<!-- Generated by graphviz version 2.38.0 (20140413.2041)
 -->
<!-- Title: %3 Pages: 1 -->
<svg width="546pt" height="285pt"
 viewBox="0.00 0.00 546.00 285.00" xmlns="http://www.w3.org/2000/svg" xmlns:xlink="http://www.w3.org/1999/xlink">
<g id="graph0" class="graph" transform="scale(1 1) rotate(0) translate(4 281)">
<title>%3</title>
<polygon fill="white" stroke="none" points="-4,4 -4,-281 542,-281 542,4 -4,4"/>
<!-- Link -->
<g id="node1" class="node"><title>Link</title>
<polygon fill="#8ccbf2" stroke="none" points="8.5,-220 8.5,-241 223.5,-241 223.5,-220 8.5,-220"/>
<polygon fill="none" stroke="#8ccbf2" points="8.5,-220 8.5,-241 223.5,-241 223.5,-220 8.5,-220"/>
<text text-anchor="start" x="99" y="-227.8" font-family="mono" font-weight="bold" font-size="14.00" fill="#c83500">Link</text>
<polygon fill="#ddeeff" stroke="none" points="8.5,-199 8.5,-220 223.5,-220 223.5,-199 8.5,-199"/>
<polygon fill="none" stroke="#8ccbf2" points="8.5,-199 8.5,-220 223.5,-220 223.5,-199 8.5,-199"/>
<text text-anchor="start" x="11.5" y="-206.8" font-family="mono" font-size="14.00" fill="#c83500">hasTarget</text>
<text text-anchor="start" x="86.5" y="-206.8" font-family="Times,serif" font-size="14.00"> : </text>
<text text-anchor="start" x="98.5" y="-206.8" font-family="mono" font-size="14.00" fill="#c83500">anyURI</text>
<text text-anchor="start" x="148.5" y="-206.8" font-family="Times,serif" font-size="14.00"> </text>
<text text-anchor="start" x="152.5" y="-206.8" font-family="Times,serif" font-style="italic" font-size="14.00">(mandatory)</text>
<polygon fill="#ddeeff" stroke="none" points="8.5,-178 8.5,-199 223.5,-199 223.5,-178 8.5,-178"/>
<polygon fill="none" stroke="#8ccbf2" points="8.5,-178 8.5,-199 223.5,-199 223.5,-178 8.5,-178"/>
<text text-anchor="start" x="11.5" y="-185.8" font-family="mono" font-size="14.00" fill="#c83500">hasAnchor</text>
<text text-anchor="start" x="86.5" y="-185.8" font-family="Times,serif" font-size="14.00"> : </text>
<text text-anchor="start" x="98.5" y="-185.8" font-family="mono" font-size="14.00" fill="#c83500">anyURI</text>
<polygon fill="#ddeeff" stroke="none" points="8.5,-157 8.5,-178 223.5,-178 223.5,-157 8.5,-157"/>
<polygon fill="none" stroke="#8ccbf2" points="8.5,-157 8.5,-178 223.5,-178 223.5,-157 8.5,-157"/>
<text text-anchor="start" x="11.5" y="-164.8" font-family="mono" font-size="14.00" fill="#c83500">hasRelationType</text>
<text text-anchor="start" x="135.5" y="-164.8" font-family="Times,serif" font-size="14.00"> : </text>
<text text-anchor="start" x="147.5" y="-164.8" font-family="mono" font-size="14.00" fill="#c83500">string</text>
<polygon fill="#ddeeff" stroke="none" points="8.5,-136 8.5,-157 223.5,-157 223.5,-136 8.5,-136"/>
<polygon fill="none" stroke="#8ccbf2" points="8.5,-136 8.5,-157 223.5,-157 223.5,-136 8.5,-136"/>
<text text-anchor="start" x="11.5" y="-143.8" font-family="mono" font-size="14.00" fill="#c83500">hintsAtMediaType</text>
<text text-anchor="start" x="144.5" y="-143.8" font-family="Times,serif" font-size="14.00"> : </text>
<text text-anchor="start" x="156.5" y="-143.8" font-family="mono" font-size="14.00" fill="#c83500">string</text>
</g>
<!-- Form -->
<g id="node2" class="node"><title>Form</title>
<polygon fill="#8ccbf2" stroke="none" points="257.5,-252 257.5,-273 530.5,-273 530.5,-252 257.5,-252"/>
<polygon fill="none" stroke="#8ccbf2" points="257.5,-252 257.5,-273 530.5,-273 530.5,-252 257.5,-252"/>
<text text-anchor="start" x="377" y="-259.8" font-family="mono" font-weight="bold" font-size="14.00" fill="#c83500">Form</text>
<polygon fill="#ddeeff" stroke="none" points="257.5,-231 257.5,-252 530.5,-252 530.5,-231 257.5,-231"/>
<polygon fill="none" stroke="#8ccbf2" points="257.5,-231 257.5,-252 530.5,-252 530.5,-231 257.5,-231"/>
<text text-anchor="start" x="260.5" y="-238.8" font-family="mono" font-size="14.00" fill="#c83500">forContentType</text>
<text text-anchor="start" x="376.5" y="-238.8" font-family="Times,serif" font-size="14.00"> : </text>
<text text-anchor="start" x="388.5" y="-238.8" font-family="mono" font-size="14.00" fill="#c83500">string</text>
<text text-anchor="start" x="438.5" y="-238.8" font-family="Times,serif" font-size="14.00"> </text>
<text text-anchor="start" x="442.5" y="-238.8" font-family="Times,serif" font-style="italic" font-size="14.00">(mandatory)</text>
<polygon fill="#ddeeff" stroke="none" points="257.5,-210 257.5,-231 530.5,-231 530.5,-210 257.5,-210"/>
<polygon fill="none" stroke="#8ccbf2" points="257.5,-210 257.5,-231 530.5,-231 530.5,-210 257.5,-210"/>
<text text-anchor="start" x="260.5" y="-217.8" font-family="mono" font-size="14.00" fill="#c83500">forContentCoding</text>
<text text-anchor="start" x="393.5" y="-217.8" font-family="Times,serif" font-size="14.00"> : </text>
<text text-anchor="start" x="405.5" y="-217.8" font-family="mono" font-size="14.00" fill="#c83500">string</text>
<polygon fill="#ddeeff" stroke="none" points="257.5,-189 257.5,-210 530.5,-210 530.5,-189 257.5,-189"/>
<polygon fill="none" stroke="#8ccbf2" points="257.5,-189 257.5,-210 530.5,-210 530.5,-189 257.5,-189"/>
<text text-anchor="start" x="260.5" y="-196.8" font-family="mono" font-size="14.00" fill="#c83500">forSubProtocol</text>
<text text-anchor="start" x="376.5" y="-196.8" font-family="Times,serif" font-size="14.00"> : </text>
<text text-anchor="start" x="388.5" y="-196.8" font-family="mono" font-size="14.00" fill="#c83500">string</text>
<polygon fill="#ddeeff" stroke="none" points="257.5,-168 257.5,-189 530.5,-189 530.5,-168 257.5,-168"/>
<polygon fill="none" stroke="#8ccbf2" points="257.5,-168 257.5,-189 530.5,-189 530.5,-168 257.5,-168"/>
<text text-anchor="start" x="260.5" y="-175.8" font-family="mono" font-size="14.00" fill="#c83500">forOperationType</text>
<text text-anchor="start" x="393.5" y="-175.8" font-family="Times,serif" font-size="14.00"> : </text>
<text text-anchor="start" x="405.5" y="-175.8" font-family="mono" font-size="14.00" fill="#c83500">string</text>
<text text-anchor="start" x="455.5" y="-175.8" font-family="Times,serif" font-size="14.00"> </text>
<text text-anchor="start" x="459.5" y="-175.8" font-family="Times,serif" font-style="italic" font-size="14.00">(mandatory)</text>
<polygon fill="#ddeeff" stroke="none" points="257.5,-147 257.5,-168 530.5,-168 530.5,-147 257.5,-147"/>
<polygon fill="none" stroke="#8ccbf2" points="257.5,-147 257.5,-168 530.5,-168 530.5,-147 257.5,-147"/>
<text text-anchor="start" x="260.5" y="-154.8" font-family="mono" font-size="14.00" fill="#c83500">hasTarget</text>
<text text-anchor="start" x="335.5" y="-154.8" font-family="Times,serif" font-size="14.00"> : </text>
<text text-anchor="start" x="347.5" y="-154.8" font-family="mono" font-size="14.00" fill="#c83500">anyURI</text>
<text text-anchor="start" x="397.5" y="-154.8" font-family="Times,serif" font-size="14.00"> </text>
<text text-anchor="start" x="401.5" y="-154.8" font-family="Times,serif" font-style="italic" font-size="14.00">(mandatory)</text>
<polygon fill="#ddeeff" stroke="none" points="257.5,-126 257.5,-147 530.5,-147 530.5,-126 257.5,-126"/>
<polygon fill="none" stroke="#8ccbf2" points="257.5,-126 257.5,-147 530.5,-147 530.5,-126 257.5,-126"/>
<text text-anchor="start" x="260.5" y="-133.8" font-family="mono" font-size="14.00" fill="#c83500">scopes</text>
<text text-anchor="start" x="310.5" y="-133.8" font-family="Times,serif" font-size="14.00"> : (array of) </text>
<text text-anchor="start" x="377.5" y="-133.8" font-family="mono" font-size="14.00" fill="#c83500">string</text>
<polygon fill="#ddeeff" stroke="none" points="257.5,-105 257.5,-126 530.5,-126 530.5,-105 257.5,-105"/>
<polygon fill="none" stroke="#8ccbf2" points="257.5,-105 257.5,-126 530.5,-126 530.5,-105 257.5,-105"/>
<text text-anchor="start" x="260.5" y="-112.8" font-family="mono" font-size="14.00" fill="#c83500">security</text>
<text text-anchor="start" x="327.5" y="-112.8" font-family="Times,serif" font-size="14.00"> : (array of) </text>
<text text-anchor="start" x="394.5" y="-112.8" font-family="mono" font-size="14.00" fill="#c83500">string</text>
</g>
<!-- ExpectedResponse -->
<g id="node3" class="node"><title>ExpectedResponse</title>
<polygon fill="#8ccbf2" stroke="none" points="265.5,-25 265.5,-46 521.5,-46 521.5,-25 265.5,-25"/>
<polygon fill="none" stroke="#8ccbf2" points="265.5,-25 265.5,-46 521.5,-46 521.5,-25 265.5,-25"/>
<text text-anchor="start" x="327" y="-32.8" font-family="mono" font-weight="bold" font-size="14.00" fill="#c83500">ExpectedResponse</text>
<polygon fill="#ddeeff" stroke="none" points="265.5,-4 265.5,-25 521.5,-25 521.5,-4 265.5,-4"/>
<polygon fill="none" stroke="#8ccbf2" points="265.5,-4 265.5,-25 521.5,-25 521.5,-4 265.5,-4"/>
<text text-anchor="start" x="268.5" y="-11.8" font-family="mono" font-size="14.00" fill="#c83500">forContentType</text>
<text text-anchor="start" x="384.5" y="-11.8" font-family="Times,serif" font-size="14.00"> : </text>
<text text-anchor="start" x="396.5" y="-11.8" font-family="mono" font-size="14.00" fill="#c83500">string</text>
<text text-anchor="start" x="446.5" y="-11.8" font-family="Times,serif" font-size="14.00"> </text>
<text text-anchor="start" x="450.5" y="-11.8" font-family="Times,serif" font-style="italic" font-size="14.00">(mandatory)</text>
</g>
<!-- Form&#45;&gt;ExpectedResponse -->
<g id="edge1" class="edge"><title>Form&#45;&gt;ExpectedResponse</title>
<path fill="none" stroke="black" d="M393.5,-100.835C393.5,-86.3545 393.5,-72.1379 393.5,-60.0513"/>
<polygon fill="black" stroke="black" points="397,-60.0249 393.5,-50.0249 390,-60.0249 397,-60.0249"/>
<text text-anchor="start" x="393.5" y="-71.8" font-family="mono" font-size="14.00" fill="#c83500">returns</text>
<text text-anchor="middle" x="382.5" y="-53.8249" font-family="Times,serif" font-size="14.00">0..1</text>
</g>
</g>
</svg>
