<?xml version="1.0" encoding="UTF-8" standalone="no"?>
<!DOCTYPE svg PUBLIC "-//W3C//DTD SVG 1.1//EN"
 "http://www.w3.org/Graphics/SVG/1.1/DTD/svg11.dtd">
<!-- Generated by graphviz version 2.38.0 (20140413.2041)
 -->
<!-- Title: %3 Pages: 1 -->
<svg width="1977pt" height="270pt"
 viewBox="0.00 0.00 1976.50 270.00" xmlns="http://www.w3.org/2000/svg" xmlns:xlink="http://www.w3.org/1999/xlink">
<g id="graph0" class="graph" transform="scale(1 1) rotate(0) translate(4 266)">
<title>%3</title>
<polygon fill="white" stroke="none" points="-4,4 -4,-266 1972.5,-266 1972.5,4 -4,4"/>
<!-- APIKeySecurityScheme -->
<g id="node1" class="node"><title>APIKeySecurityScheme</title>
<polygon fill="#8ccbf2" stroke="none" points="8,-205 8,-226 180,-226 180,-205 8,-205"/>
<polygon fill="none" stroke="#8ccbf2" points="8,-205 8,-226 180,-226 180,-205 8,-205"/>
<text text-anchor="start" x="11" y="-212.8" font-family="mono" font-weight="bold" font-size="14.00" fill="#c83500">APIKeySecurityScheme</text>
<polygon fill="#ddeeff" stroke="none" points="8,-184 8,-205 180,-205 180,-184 8,-184"/>
<polygon fill="none" stroke="#8ccbf2" points="8,-184 8,-205 180,-205 180,-184 8,-184"/>
<text text-anchor="start" x="11" y="-191.8" font-family="mono" font-size="14.00" fill="#c83500">name</text>
<text text-anchor="start" x="45" y="-191.8" font-family="Times New Roman,serif" font-size="14.00"> : </text>
<text text-anchor="start" x="56" y="-191.8" font-family="mono" font-size="14.00" fill="#c83500">string</text>
<polygon fill="#ddeeff" stroke="none" points="8,-163 8,-184 180,-184 180,-163 8,-163"/>
<polygon fill="none" stroke="#8ccbf2" points="8,-163 8,-184 180,-184 180,-163 8,-163"/>
<text text-anchor="start" x="11" y="-170.8" font-family="mono" font-size="14.00" fill="#c83500">in</text>
<text text-anchor="start" x="28" y="-170.8" font-family="Times New Roman,serif" font-size="14.00"> : </text>
<text text-anchor="start" x="39" y="-170.8" font-family="mono" font-size="14.00" fill="#c83500">string</text>
<text text-anchor="start" x="89" y="-170.8" font-family="Times New Roman,serif" font-size="14.00"> = query</text>
</g>
<!-- SecurityScheme -->
<g id="node3" class="node"><title>SecurityScheme</title>
<polygon fill="#8ccbf2" stroke="none" points="924,-67 924,-88 1118,-88 1118,-67 924,-67"/>
<polygon fill="none" stroke="#8ccbf2" points="924,-67 924,-88 1118,-88 1118,-67 924,-67"/>
<text text-anchor="start" x="963" y="-74.8" font-family="mono" font-weight="bold" font-size="14.00" fill="#c83500">SecurityScheme</text>
<polygon fill="#ddeeff" stroke="none" points="924,-46 924,-67 1118,-67 1118,-46 924,-46"/>
<polygon fill="none" stroke="#8ccbf2" points="924,-46 924,-67 1118,-67 1118,-46 924,-46"/>
<text text-anchor="start" x="927" y="-53.8" font-family="mono" font-size="14.00" fill="#c83500">proxy</text>
<text text-anchor="start" x="969" y="-53.8" font-family="Times New Roman,serif" font-size="14.00"> : </text>
<text text-anchor="start" x="980" y="-53.8" font-family="mono" font-size="14.00" fill="#c83500">anyURI</text>
<polygon fill="#ddeeff" stroke="none" points="924,-25 924,-46 1118,-46 1118,-25 924,-25"/>
<polygon fill="none" stroke="#8ccbf2" points="924,-25 924,-46 1118,-46 1118,-25 924,-25"/>
<text text-anchor="start" x="927" y="-32.8" font-family="mono" font-size="14.00" fill="#c83500">description</text>
<text text-anchor="start" x="1018" y="-32.8" font-family="Times New Roman,serif" font-size="14.00"> : </text>
<text text-anchor="start" x="1029" y="-32.8" font-family="mono" font-size="14.00" fill="#c83500">string</text>
<polygon fill="#ddeeff" stroke="none" points="924,-4 924,-25 1118,-25 1118,-4 924,-4"/>
<polygon fill="none" stroke="#8ccbf2" points="924,-4 924,-25 1118,-25 1118,-4 924,-4"/>
<text text-anchor="start" x="927" y="-11.8" font-family="mono" font-size="14.00" fill="#c83500">scheme</text>
<text text-anchor="start" x="977" y="-11.8" font-family="Times New Roman,serif" font-size="14.00"> : </text>
<text text-anchor="start" x="988" y="-11.8" font-family="mono" font-size="14.00" fill="#c83500">string</text>
<text text-anchor="start" x="1038" y="-11.8" font-family="Times New Roman,serif" font-size="14.00"> </text>
<text text-anchor="start" x="1042" y="-11.8" font-family="Times New Roman,serif" font-style="italic" font-size="14.00">(mandatory)</text>
</g>
<!-- APIKeySecurityScheme&#45;&gt;SecurityScheme -->
<g id="edge7" class="edge"><title>APIKeySecurityScheme&#45;&gt;SecurityScheme</title>
<path fill="none" stroke="black" d="M137.745,-159.484C155.221,-147.489 176.132,-135.239 197,-128 324.914,-83.6244 710.759,-60.6967 905.671,-51.6804"/>
<polygon fill="white" stroke="black" points="906.118,-55.1637 915.948,-51.2098 905.798,-48.171 906.118,-55.1637"/>
</g>
<!-- OAuth2SecurityScheme -->
<g id="node2" class="node"><title>OAuth2SecurityScheme</title>
<polygon fill="#8ccbf2" stroke="none" points="215,-237 215,-258 390,-258 390,-237 215,-237"/>
<polygon fill="none" stroke="#8ccbf2" points="215,-237 215,-258 390,-258 390,-237 215,-237"/>
<text text-anchor="start" x="219.5" y="-244.8" font-family="mono" font-weight="bold" font-size="14.00" fill="#c83500">OAuth2SecurityScheme</text>
<polygon fill="#ddeeff" stroke="none" points="215,-216 215,-237 390,-237 390,-216 215,-216"/>
<polygon fill="none" stroke="#8ccbf2" points="215,-216 215,-237 390,-237 390,-216 215,-216"/>
<text text-anchor="start" x="218" y="-223.8" font-family="mono" font-size="14.00" fill="#c83500">scopes</text>
<text text-anchor="start" x="268" y="-223.8" font-family="Times New Roman,serif" font-size="14.00"> : array of </text>
<text text-anchor="start" x="326" y="-223.8" font-family="mono" font-size="14.00" fill="#c83500">string</text>
<polygon fill="#ddeeff" stroke="none" points="215,-195 215,-216 390,-216 390,-195 215,-195"/>
<polygon fill="none" stroke="#8ccbf2" points="215,-195 215,-216 390,-216 390,-195 215,-195"/>
<text text-anchor="start" x="218" y="-202.8" font-family="mono" font-size="14.00" fill="#c83500">refresh</text>
<text text-anchor="start" x="276" y="-202.8" font-family="Times New Roman,serif" font-size="14.00"> : </text>
<text text-anchor="start" x="287" y="-202.8" font-family="mono" font-size="14.00" fill="#c83500">anyURI</text>
<polygon fill="#ddeeff" stroke="none" points="215,-174 215,-195 390,-195 390,-174 215,-174"/>
<polygon fill="none" stroke="#8ccbf2" points="215,-174 215,-195 390,-195 390,-174 215,-174"/>
<text text-anchor="start" x="218" y="-181.8" font-family="mono" font-size="14.00" fill="#c83500">flow</text>
<text text-anchor="start" x="252" y="-181.8" font-family="Times New Roman,serif" font-size="14.00"> : </text>
<text text-anchor="start" x="263" y="-181.8" font-family="mono" font-size="14.00" fill="#c83500">string</text>
<text text-anchor="start" x="313" y="-181.8" font-family="Times New Roman,serif" font-size="14.00"> = implicit</text>
<polygon fill="#ddeeff" stroke="none" points="215,-153 215,-174 390,-174 390,-153 215,-153"/>
<polygon fill="none" stroke="#8ccbf2" points="215,-153 215,-174 390,-174 390,-153 215,-153"/>
<text text-anchor="start" x="218" y="-160.8" font-family="mono" font-size="14.00" fill="#c83500">token</text>
<text text-anchor="start" x="260" y="-160.8" font-family="Times New Roman,serif" font-size="14.00"> : </text>
<text text-anchor="start" x="271" y="-160.8" font-family="mono" font-size="14.00" fill="#c83500">anyURI</text>
<polygon fill="#ddeeff" stroke="none" points="215,-132 215,-153 390,-153 390,-132 215,-132"/>
<polygon fill="none" stroke="#8ccbf2" points="215,-132 215,-153 390,-153 390,-132 215,-132"/>
<text text-anchor="start" x="218" y="-139.8" font-family="mono" font-size="14.00" fill="#c83500">authorization</text>
<text text-anchor="start" x="326" y="-139.8" font-family="Times New Roman,serif" font-size="14.00"> : </text>
<text text-anchor="start" x="337" y="-139.8" font-family="mono" font-size="14.00" fill="#c83500">anyURI</text>
</g>
<!-- OAuth2SecurityScheme&#45;&gt;SecurityScheme -->
<g id="edge6" class="edge"><title>OAuth2SecurityScheme&#45;&gt;SecurityScheme</title>
<path fill="none" stroke="black" d="M397.557,-131.309C400.368,-130.129 403.186,-129.022 406,-128 572.69,-67.4896 779.391,-51.31 905.665,-47.4673"/>
<polygon fill="white" stroke="black" points="905.847,-50.9636 915.744,-47.1816 905.649,-43.9665 905.847,-50.9636"/>
</g>
<!-- BearerSecurityScheme -->
<g id="node4" class="node"><title>BearerSecurityScheme</title>
<polygon fill="#8ccbf2" stroke="none" points="424,-237 424,-258 599,-258 599,-237 424,-237"/>
<polygon fill="none" stroke="#8ccbf2" points="424,-237 424,-258 599,-258 599,-237 424,-237"/>
<text text-anchor="start" x="428.5" y="-244.8" font-family="mono" font-weight="bold" font-size="14.00" fill="#c83500">BearerSecurityScheme</text>
<polygon fill="#ddeeff" stroke="none" points="424,-216 424,-237 599,-237 599,-216 424,-216"/>
<polygon fill="none" stroke="#8ccbf2" points="424,-216 424,-237 599,-237 599,-216 424,-216"/>
<text text-anchor="start" x="427" y="-223.8" font-family="mono" font-size="14.00" fill="#c83500">alg</text>
<text text-anchor="start" x="452" y="-223.8" font-family="Times New Roman,serif" font-size="14.00"> : </text>
<text text-anchor="start" x="463" y="-223.8" font-family="mono" font-size="14.00" fill="#c83500">string</text>
<text text-anchor="start" x="513" y="-223.8" font-family="Times New Roman,serif" font-size="14.00"> = ES256</text>
<polygon fill="#ddeeff" stroke="none" points="424,-195 424,-216 599,-216 599,-195 424,-195"/>
<polygon fill="none" stroke="#8ccbf2" points="424,-195 424,-216 599,-216 599,-195 424,-195"/>
<text text-anchor="start" x="427" y="-202.8" font-family="mono" font-size="14.00" fill="#c83500">name</text>
<text text-anchor="start" x="461" y="-202.8" font-family="Times New Roman,serif" font-size="14.00"> : </text>
<text text-anchor="start" x="472" y="-202.8" font-family="mono" font-size="14.00" fill="#c83500">string</text>
<polygon fill="#ddeeff" stroke="none" points="424,-174 424,-195 599,-195 599,-174 424,-174"/>
<polygon fill="none" stroke="#8ccbf2" points="424,-174 424,-195 599,-195 599,-174 424,-174"/>
<text text-anchor="start" x="427" y="-181.8" font-family="mono" font-size="14.00" fill="#c83500">in</text>
<text text-anchor="start" x="444" y="-181.8" font-family="Times New Roman,serif" font-size="14.00"> : </text>
<text text-anchor="start" x="455" y="-181.8" font-family="mono" font-size="14.00" fill="#c83500">string</text>
<text text-anchor="start" x="505" y="-181.8" font-family="Times New Roman,serif" font-size="14.00"> = header</text>
<polygon fill="#ddeeff" stroke="none" points="424,-153 424,-174 599,-174 599,-153 424,-153"/>
<polygon fill="none" stroke="#8ccbf2" points="424,-153 424,-174 599,-174 599,-153 424,-153"/>
<text text-anchor="start" x="427" y="-160.8" font-family="mono" font-size="14.00" fill="#c83500">authorization</text>
<text text-anchor="start" x="535" y="-160.8" font-family="Times New Roman,serif" font-size="14.00"> : </text>
<text text-anchor="start" x="546" y="-160.8" font-family="mono" font-size="14.00" fill="#c83500">anyURI</text>
<polygon fill="#ddeeff" stroke="none" points="424,-132 424,-153 599,-153 599,-132 424,-132"/>
<polygon fill="none" stroke="#8ccbf2" points="424,-132 424,-153 599,-153 599,-132 424,-132"/>
<text text-anchor="start" x="427" y="-139.8" font-family="mono" font-size="14.00" fill="#c83500">format</text>
<text text-anchor="start" x="477" y="-139.8" font-family="Times New Roman,serif" font-size="14.00"> : </text>
<text text-anchor="start" x="488" y="-139.8" font-family="mono" font-size="14.00" fill="#c83500">string</text>
<text text-anchor="start" x="538" y="-139.8" font-family="Times New Roman,serif" font-size="14.00"> = jwt</text>
</g>
<!-- BearerSecurityScheme&#45;&gt;SecurityScheme -->
<g id="edge5" class="edge"><title>BearerSecurityScheme&#45;&gt;SecurityScheme</title>
<path fill="none" stroke="black" d="M606.651,-131.557C609.435,-130.303 612.221,-129.114 615,-128 709.081,-90.2915 822.708,-69.5482 905.799,-58.5216"/>
<polygon fill="white" stroke="black" points="906.312,-61.9845 915.778,-57.2246 905.41,-55.0428 906.312,-61.9845"/>
</g>
<!-- BasicSecurityScheme -->
<g id="node5" class="node"><title>BasicSecurityScheme</title>
<polygon fill="#8ccbf2" stroke="none" points="633,-205 633,-226 796,-226 796,-205 633,-205"/>
<polygon fill="none" stroke="#8ccbf2" points="633,-205 633,-226 796,-226 796,-205 633,-205"/>
<text text-anchor="start" x="636" y="-212.8" font-family="mono" font-weight="bold" font-size="14.00" fill="#c83500">BasicSecurityScheme</text>
<polygon fill="#ddeeff" stroke="none" points="633,-184 633,-205 796,-205 796,-184 633,-184"/>
<polygon fill="none" stroke="#8ccbf2" points="633,-184 633,-205 796,-205 796,-184 633,-184"/>
<text text-anchor="start" x="636" y="-191.8" font-family="mono" font-size="14.00" fill="#c83500">name</text>
<text text-anchor="start" x="670" y="-191.8" font-family="Times New Roman,serif" font-size="14.00"> : </text>
<text text-anchor="start" x="681" y="-191.8" font-family="mono" font-size="14.00" fill="#c83500">string</text>
<polygon fill="#ddeeff" stroke="none" points="633,-163 633,-184 796,-184 796,-163 633,-163"/>
<polygon fill="none" stroke="#8ccbf2" points="633,-163 633,-184 796,-184 796,-163 633,-163"/>
<text text-anchor="start" x="636" y="-170.8" font-family="mono" font-size="14.00" fill="#c83500">in</text>
<text text-anchor="start" x="653" y="-170.8" font-family="Times New Roman,serif" font-size="14.00"> : </text>
<text text-anchor="start" x="664" y="-170.8" font-family="mono" font-size="14.00" fill="#c83500">string</text>
<text text-anchor="start" x="714" y="-170.8" font-family="Times New Roman,serif" font-size="14.00"> = header</text>
</g>
<!-- BasicSecurityScheme&#45;&gt;SecurityScheme -->
<g id="edge3" class="edge"><title>BasicSecurityScheme&#45;&gt;SecurityScheme</title>
<path fill="none" stroke="black" d="M761.033,-159.224C776.777,-148.434 794.726,-137.02 812,-128 841.698,-112.493 875.059,-98.2549 906.26,-86.1862"/>
<polygon fill="white" stroke="black" points="907.778,-89.353 915.867,-82.5114 905.277,-82.815 907.778,-89.353"/>
</g>
<!-- PoPSecurityScheme -->
<g id="node6" class="node"><title>PoPSecurityScheme</title>
<polygon fill="#8ccbf2" stroke="none" points="830,-237 830,-258 1005,-258 1005,-237 830,-237"/>
<polygon fill="none" stroke="#8ccbf2" points="830,-237 830,-258 1005,-258 1005,-237 830,-237"/>
<text text-anchor="start" x="847" y="-244.8" font-family="mono" font-weight="bold" font-size="14.00" fill="#c83500">PoPSecurityScheme</text>
<polygon fill="#ddeeff" stroke="none" points="830,-216 830,-237 1005,-237 1005,-216 830,-216"/>
<polygon fill="none" stroke="#8ccbf2" points="830,-216 830,-237 1005,-237 1005,-216 830,-216"/>
<text text-anchor="start" x="833" y="-223.8" font-family="mono" font-size="14.00" fill="#c83500">alg</text>
<text text-anchor="start" x="858" y="-223.8" font-family="Times New Roman,serif" font-size="14.00"> : </text>
<text text-anchor="start" x="869" y="-223.8" font-family="mono" font-size="14.00" fill="#c83500">string</text>
<text text-anchor="start" x="919" y="-223.8" font-family="Times New Roman,serif" font-size="14.00"> = ES256</text>
<polygon fill="#ddeeff" stroke="none" points="830,-195 830,-216 1005,-216 1005,-195 830,-195"/>
<polygon fill="none" stroke="#8ccbf2" points="830,-195 830,-216 1005,-216 1005,-195 830,-195"/>
<text text-anchor="start" x="833" y="-202.8" font-family="mono" font-size="14.00" fill="#c83500">name</text>
<text text-anchor="start" x="867" y="-202.8" font-family="Times New Roman,serif" font-size="14.00"> : </text>
<text text-anchor="start" x="878" y="-202.8" font-family="mono" font-size="14.00" fill="#c83500">string</text>
<polygon fill="#ddeeff" stroke="none" points="830,-174 830,-195 1005,-195 1005,-174 830,-174"/>
<polygon fill="none" stroke="#8ccbf2" points="830,-174 830,-195 1005,-195 1005,-174 830,-174"/>
<text text-anchor="start" x="833" y="-181.8" font-family="mono" font-size="14.00" fill="#c83500">authorization</text>
<text text-anchor="start" x="941" y="-181.8" font-family="Times New Roman,serif" font-size="14.00"> : </text>
<text text-anchor="start" x="952" y="-181.8" font-family="mono" font-size="14.00" fill="#c83500">anyURI</text>
<polygon fill="#ddeeff" stroke="none" points="830,-153 830,-174 1005,-174 1005,-153 830,-153"/>
<polygon fill="none" stroke="#8ccbf2" points="830,-153 830,-174 1005,-174 1005,-153 830,-153"/>
<text text-anchor="start" x="833" y="-160.8" font-family="mono" font-size="14.00" fill="#c83500">in</text>
<text text-anchor="start" x="850" y="-160.8" font-family="Times New Roman,serif" font-size="14.00"> : </text>
<text text-anchor="start" x="861" y="-160.8" font-family="mono" font-size="14.00" fill="#c83500">string</text>
<text text-anchor="start" x="911" y="-160.8" font-family="Times New Roman,serif" font-size="14.00"> = header</text>
<polygon fill="#ddeeff" stroke="none" points="830,-132 830,-153 1005,-153 1005,-132 830,-132"/>
<polygon fill="none" stroke="#8ccbf2" points="830,-132 830,-153 1005,-153 1005,-132 830,-132"/>
<text text-anchor="start" x="833" y="-139.8" font-family="mono" font-size="14.00" fill="#c83500">format</text>
<text text-anchor="start" x="883" y="-139.8" font-family="Times New Roman,serif" font-size="14.00"> : </text>
<text text-anchor="start" x="894" y="-139.8" font-family="mono" font-size="14.00" fill="#c83500">string</text>
<text text-anchor="start" x="944" y="-139.8" font-family="Times New Roman,serif" font-size="14.00"> = jwt</text>
</g>
<!-- PoPSecurityScheme&#45;&gt;SecurityScheme -->
<g id="edge4" class="edge"><title>PoPSecurityScheme&#45;&gt;SecurityScheme</title>
<path fill="none" stroke="black" d="M963.828,-127.811C970.283,-118.686 976.846,-109.41 983.113,-100.552"/>
<polygon fill="white" stroke="black" points="986.099,-102.391 989.018,-92.2056 980.385,-98.3477 986.099,-102.391"/>
</g>
<!-- PublicSecurityScheme -->
<g id="node7" class="node"><title>PublicSecurityScheme</title>
<polygon fill="#8ccbf2" stroke="none" points="1039,-195 1039,-216 1211,-216 1211,-195 1039,-195"/>
<polygon fill="none" stroke="#8ccbf2" points="1039,-195 1039,-216 1211,-216 1211,-195 1039,-195"/>
<text text-anchor="start" x="1042" y="-202.8" font-family="mono" font-weight="bold" font-size="14.00" fill="#c83500">PublicSecurityScheme</text>
<polygon fill="#ddeeff" stroke="none" points="1039,-174 1039,-195 1211,-195 1211,-174 1039,-174"/>
<polygon fill="none" stroke="#8ccbf2" points="1039,-174 1039,-195 1211,-195 1211,-174 1039,-174"/>
<text text-anchor="start" x="1042" y="-181.8" font-family="mono" font-size="14.00" fill="#c83500">identity</text>
<text text-anchor="start" x="1109" y="-181.8" font-family="Times New Roman,serif" font-size="14.00"> : </text>
<text text-anchor="start" x="1120" y="-181.8" font-family="mono" font-size="14.00" fill="#c83500">string</text>
</g>
<!-- PublicSecurityScheme&#45;&gt;SecurityScheme -->
<g id="edge10" class="edge"><title>PublicSecurityScheme&#45;&gt;SecurityScheme</title>
<path fill="none" stroke="black" d="M1107.83,-169.726C1094.51,-150.906 1075.56,-124.116 1058.76,-100.366"/>
<polygon fill="white" stroke="black" points="1061.55,-98.2522 1052.91,-92.1101 1055.83,-102.295 1061.55,-98.2522"/>
</g>
<!-- DigestSecurityScheme -->
<g id="node8" class="node"><title>DigestSecurityScheme</title>
<polygon fill="#8ccbf2" stroke="none" points="1245,-216 1245,-237 1417,-237 1417,-216 1245,-216"/>
<polygon fill="none" stroke="#8ccbf2" points="1245,-216 1245,-237 1417,-237 1417,-216 1245,-216"/>
<text text-anchor="start" x="1248" y="-223.8" font-family="mono" font-weight="bold" font-size="14.00" fill="#c83500">DigestSecurityScheme</text>
<polygon fill="#ddeeff" stroke="none" points="1245,-195 1245,-216 1417,-216 1417,-195 1245,-195"/>
<polygon fill="none" stroke="#8ccbf2" points="1245,-195 1245,-216 1417,-216 1417,-195 1245,-195"/>
<text text-anchor="start" x="1248" y="-202.8" font-family="mono" font-size="14.00" fill="#c83500">in</text>
<text text-anchor="start" x="1265" y="-202.8" font-family="Times New Roman,serif" font-size="14.00"> : </text>
<text text-anchor="start" x="1276" y="-202.8" font-family="mono" font-size="14.00" fill="#c83500">string</text>
<text text-anchor="start" x="1326" y="-202.8" font-family="Times New Roman,serif" font-size="14.00"> = header</text>
<polygon fill="#ddeeff" stroke="none" points="1245,-174 1245,-195 1417,-195 1417,-174 1245,-174"/>
<polygon fill="none" stroke="#8ccbf2" points="1245,-174 1245,-195 1417,-195 1417,-174 1245,-174"/>
<text text-anchor="start" x="1248" y="-181.8" font-family="mono" font-size="14.00" fill="#c83500">name</text>
<text text-anchor="start" x="1282" y="-181.8" font-family="Times New Roman,serif" font-size="14.00"> : </text>
<text text-anchor="start" x="1293" y="-181.8" font-family="mono" font-size="14.00" fill="#c83500">string</text>
<polygon fill="#ddeeff" stroke="none" points="1245,-153 1245,-174 1417,-174 1417,-153 1245,-153"/>
<polygon fill="none" stroke="#8ccbf2" points="1245,-153 1245,-174 1417,-174 1417,-153 1245,-153"/>
<text text-anchor="start" x="1248" y="-160.8" font-family="mono" font-size="14.00" fill="#c83500">qop</text>
<text text-anchor="start" x="1273" y="-160.8" font-family="Times New Roman,serif" font-size="14.00"> : </text>
<text text-anchor="start" x="1284" y="-160.8" font-family="mono" font-size="14.00" fill="#c83500">string</text>
<text text-anchor="start" x="1334" y="-160.8" font-family="Times New Roman,serif" font-size="14.00"> = auth</text>
</g>
<!-- DigestSecurityScheme&#45;&gt;SecurityScheme -->
<g id="edge2" class="edge"><title>DigestSecurityScheme&#45;&gt;SecurityScheme</title>
<path fill="none" stroke="black" d="M1264.81,-148.902C1252.8,-141.497 1240.2,-134.221 1228,-128 1198.79,-113.109 1166.17,-99.181 1135.62,-87.2161"/>
<polygon fill="white" stroke="black" points="1136.8,-83.9199 1126.21,-83.5671 1134.27,-90.4462 1136.8,-83.9199"/>
</g>
<!-- NoSecurityScheme -->
<g id="node9" class="node"><title>NoSecurityScheme</title>
<polygon fill="#8ccbf2" stroke="none" points="1452,-184 1452,-205 1591,-205 1591,-184 1452,-184"/>
<polygon fill="none" stroke="#8ccbf2" points="1452,-184 1452,-205 1591,-205 1591,-184 1452,-184"/>
<text text-anchor="start" x="1455" y="-191.8" font-family="mono" font-weight="bold" font-size="14.00" fill="#c83500">NoSecurityScheme</text>
</g>
<!-- NoSecurityScheme&#45;&gt;SecurityScheme -->
<g id="edge8" class="edge"><title>NoSecurityScheme&#45;&gt;SecurityScheme</title>
<path fill="none" stroke="black" d="M1503.58,-176.899C1487.05,-161.678 1460.82,-140.018 1434,-128 1338.92,-85.386 1221.61,-65.1136 1136.34,-55.5153"/>
<polygon fill="white" stroke="black" points="1136.69,-52.0325 1126.37,-54.4247 1135.93,-58.991 1136.69,-52.0325"/>
</g>
<!-- PSKSecurityScheme -->
<g id="node10" class="node"><title>PSKSecurityScheme</title>
<polygon fill="#8ccbf2" stroke="none" points="1625,-195 1625,-216 1772,-216 1772,-195 1625,-195"/>
<polygon fill="none" stroke="#8ccbf2" points="1625,-195 1625,-216 1772,-216 1772,-195 1625,-195"/>
<text text-anchor="start" x="1628" y="-202.8" font-family="mono" font-weight="bold" font-size="14.00" fill="#c83500">PSKSecurityScheme</text>
<polygon fill="#ddeeff" stroke="none" points="1625,-174 1625,-195 1772,-195 1772,-174 1625,-174"/>
<polygon fill="none" stroke="#8ccbf2" points="1625,-174 1625,-195 1772,-195 1772,-174 1625,-174"/>
<text text-anchor="start" x="1628" y="-181.8" font-family="mono" font-size="14.00" fill="#c83500">identity</text>
<text text-anchor="start" x="1695" y="-181.8" font-family="Times New Roman,serif" font-size="14.00"> : </text>
<text text-anchor="start" x="1706" y="-181.8" font-family="mono" font-size="14.00" fill="#c83500">string</text>
</g>
<!-- PSKSecurityScheme&#45;&gt;SecurityScheme -->
<g id="edge1" class="edge"><title>PSKSecurityScheme&#45;&gt;SecurityScheme</title>
<path fill="none" stroke="black" d="M1672.56,-169.961C1655.59,-155.376 1632.06,-137.749 1608,-128 1524.84,-94.3075 1282.46,-68.9223 1136.46,-56.1669"/>
<polygon fill="white" stroke="black" points="1136.38,-52.6472 1126.12,-55.2704 1135.78,-59.621 1136.38,-52.6472"/>
</g>
<!-- CertSecurityScheme -->
<g id="node11" class="node"><title>CertSecurityScheme</title>
<polygon fill="#8ccbf2" stroke="none" points="1806,-195 1806,-216 1961,-216 1961,-195 1806,-195"/>
<polygon fill="none" stroke="#8ccbf2" points="1806,-195 1806,-216 1961,-216 1961,-195 1806,-195"/>
<text text-anchor="start" x="1809" y="-202.8" font-family="mono" font-weight="bold" font-size="14.00" fill="#c83500">CertSecurityScheme</text>
<polygon fill="#ddeeff" stroke="none" points="1806,-174 1806,-195 1961,-195 1961,-174 1806,-174"/>
<polygon fill="none" stroke="#8ccbf2" points="1806,-174 1806,-195 1961,-195 1961,-174 1806,-174"/>
<text text-anchor="start" x="1809" y="-181.8" font-family="mono" font-size="14.00" fill="#c83500">identity</text>
<text text-anchor="start" x="1876" y="-181.8" font-family="Times New Roman,serif" font-size="14.00"> : </text>
<text text-anchor="start" x="1887" y="-181.8" font-family="mono" font-size="14.00" fill="#c83500">string</text>
</g>
<!-- CertSecurityScheme&#45;&gt;SecurityScheme -->
<g id="edge9" class="edge"><title>CertSecurityScheme&#45;&gt;SecurityScheme</title>
<path fill="none" stroke="black" d="M1856.35,-169.708C1838.6,-155.022 1814.02,-137.378 1789,-128 1672.35,-84.277 1320.37,-61.3496 1136.18,-52.0658"/>
<polygon fill="white" stroke="black" points="1136.34,-48.5699 1126.18,-51.5672 1136,-55.5612 1136.34,-48.5699"/>
</g>
</g>
</svg>
