<?xml version="1.0" encoding="UTF-8" standalone="no"?>
<!DOCTYPE svg PUBLIC "-//W3C//DTD SVG 1.1//EN"
 "http://www.w3.org/Graphics/SVG/1.1/DTD/svg11.dtd">
<!-- Generated by graphviz version 2.43.20190912.0211 (20190912.0211)
 -->
<!-- Title: %3 Pages: 1 -->
<svg width="2010pt" height="379pt"
 viewBox="0.00 0.00 2009.50 379.00" xmlns="http://www.w3.org/2000/svg" xmlns:xlink="http://www.w3.org/1999/xlink">
<g id="graph0" class="graph" transform="scale(1 1) rotate(0) translate(4 375)">
<title>%3</title>
<polygon fill="white" stroke="transparent" points="-4,4 -4,-375 2005.5,-375 2005.5,4 -4,4"/>
<!-- APIKeySecurityScheme -->
<g id="node1" class="node">
<title>APIKeySecurityScheme</title>
<polygon fill="#8ccbf2" stroke="transparent" points="8,-314 8,-335 180,-335 180,-314 8,-314"/>
<polygon fill="none" stroke="#8ccbf2" points="8,-314 8,-335 180,-335 180,-314 8,-314"/>
<text text-anchor="start" x="11" y="-321.8" font-family="mono" font-weight="bold" font-size="14.00" fill="#c83500">APIKeySecurityScheme</text>
<polygon fill="#ddeeff" stroke="transparent" points="8,-293 8,-314 180,-314 180,-293 8,-293"/>
<polygon fill="none" stroke="#8ccbf2" points="8,-293 8,-314 180,-314 180,-293 8,-293"/>
<text text-anchor="start" x="11" y="-300.8" font-family="mono" font-size="14.00" fill="#c83500">name</text>
<text text-anchor="start" x="45" y="-300.8" font-family="Times,serif" font-size="14.00"> : </text>
<text text-anchor="start" x="57" y="-300.8" font-family="mono" font-size="14.00" fill="#c83500">string</text>
<polygon fill="#ddeeff" stroke="transparent" points="8,-272 8,-293 180,-293 180,-272 8,-272"/>
<polygon fill="none" stroke="#8ccbf2" points="8,-272 8,-293 180,-293 180,-272 8,-272"/>
<text text-anchor="start" x="11" y="-279.8" font-family="mono" font-size="14.00" fill="#c83500">in</text>
<text text-anchor="start" x="28" y="-279.8" font-family="Times,serif" font-size="14.00"> : </text>
<text text-anchor="start" x="40" y="-279.8" font-family="mono" font-size="14.00" fill="#c83500">string</text>
<text text-anchor="start" x="90" y="-279.8" font-family="Times,serif" font-size="14.00"> </text>
<text text-anchor="start" x="94" y="-279.8" font-family="Times,serif" font-style="italic" font-size="14.00">(mandatory)</text>
</g>
<!-- SecurityScheme -->
<g id="node3" class="node">
<title>SecurityScheme</title>
<polygon fill="#8ccbf2" stroke="transparent" points="955,-174.5 955,-195.5 1145,-195.5 1145,-174.5 955,-174.5"/>
<polygon fill="none" stroke="#8ccbf2" points="955,-174.5 955,-195.5 1145,-195.5 1145,-174.5 955,-174.5"/>
<text text-anchor="start" x="992" y="-182.3" font-family="mono" font-weight="bold" font-size="14.00" fill="#c83500">SecurityScheme</text>
<polygon fill="#ddeeff" stroke="transparent" points="955,-153.5 955,-174.5 1145,-174.5 1145,-153.5 955,-153.5"/>
<polygon fill="none" stroke="#8ccbf2" points="955,-153.5 955,-174.5 1145,-174.5 1145,-153.5 955,-153.5"/>
<text text-anchor="start" x="958" y="-161.3" font-family="mono" font-size="14.00" fill="#c83500">@type</text>
<text text-anchor="start" x="1000" y="-161.3" font-family="Times,serif" font-size="14.00"> : </text>
<text text-anchor="start" x="1012" y="-161.3" font-family="Times,serif" font-style="italic" font-size="14.00">(Array of) </text>
<text text-anchor="start" x="1071" y="-161.3" font-family="mono" font-size="14.00" fill="#c83500">string</text>
<polygon fill="#ddeeff" stroke="transparent" points="955,-132.5 955,-153.5 1145,-153.5 1145,-132.5 955,-132.5"/>
<polygon fill="none" stroke="#8ccbf2" points="955,-132.5 955,-153.5 1145,-153.5 1145,-132.5 955,-132.5"/>
<text text-anchor="start" x="958" y="-140.3" font-family="mono" font-size="14.00" fill="#c83500">description</text>
<text text-anchor="start" x="1049" y="-140.3" font-family="Times,serif" font-size="14.00"> : </text>
<text text-anchor="start" x="1061" y="-140.3" font-family="mono" font-size="14.00" fill="#c83500">string</text>
<polygon fill="#ddeeff" stroke="transparent" points="955,-111.5 955,-132.5 1145,-132.5 1145,-111.5 955,-111.5"/>
<polygon fill="none" stroke="#8ccbf2" points="955,-111.5 955,-132.5 1145,-132.5 1145,-111.5 955,-111.5"/>
<text text-anchor="start" x="958" y="-119.3" font-family="mono" font-size="14.00" fill="#c83500">scheme</text>
<text text-anchor="start" x="1008" y="-119.3" font-family="Times,serif" font-size="14.00"> : </text>
<text text-anchor="start" x="1020" y="-119.3" font-family="mono" font-size="14.00" fill="#c83500">string</text>
<text text-anchor="start" x="1070" y="-119.3" font-family="Times,serif" font-size="14.00"> </text>
<text text-anchor="start" x="1074" y="-119.3" font-family="Times,serif" font-style="italic" font-size="14.00">(mandatory)</text>
<polygon fill="#ddeeff" stroke="transparent" points="955,-90.5 955,-111.5 1145,-111.5 1145,-90.5 955,-90.5"/>
<polygon fill="none" stroke="#8ccbf2" points="955,-90.5 955,-111.5 1145,-111.5 1145,-90.5 955,-90.5"/>
<text text-anchor="start" x="958" y="-98.3" font-family="mono" font-size="14.00" fill="#c83500">proxy</text>
<text text-anchor="start" x="1000" y="-98.3" font-family="Times,serif" font-size="14.00"> : </text>
<text text-anchor="start" x="1012" y="-98.3" font-family="mono" font-size="14.00" fill="#c83500">anyURI</text>
</g>
<!-- APIKeySecurityScheme&#45;&gt;SecurityScheme -->
<g id="edge4" class="edge">
<title>APIKeySecurityScheme&#45;&gt;SecurityScheme</title>
<path fill="none" stroke="black" d="M138.04,-268.42C155.47,-256.5 176.27,-244.31 197,-237 330.68,-189.87 737.03,-161.69 936.75,-150.34"/>
<polygon fill="white" stroke="black" points="937.19,-153.82 946.98,-149.76 936.8,-146.83 937.19,-153.82"/>
</g>
<!-- OAuth2SecurityScheme -->
<g id="node2" class="node">
<title>OAuth2SecurityScheme</title>
<polygon fill="#8ccbf2" stroke="transparent" points="215,-346 215,-367 392,-367 392,-346 215,-346"/>
<polygon fill="none" stroke="#8ccbf2" points="215,-346 215,-367 392,-367 392,-346 215,-346"/>
<text text-anchor="start" x="220.5" y="-353.8" font-family="mono" font-weight="bold" font-size="14.00" fill="#c83500">OAuth2SecurityScheme</text>
<polygon fill="#ddeeff" stroke="transparent" points="215,-325 215,-346 392,-346 392,-325 215,-325"/>
<polygon fill="none" stroke="#8ccbf2" points="215,-325 215,-346 392,-346 392,-325 215,-325"/>
<text text-anchor="start" x="218" y="-332.8" font-family="mono" font-size="14.00" fill="#c83500">authorization</text>
<text text-anchor="start" x="326" y="-332.8" font-family="Times,serif" font-size="14.00"> : </text>
<text text-anchor="start" x="338" y="-332.8" font-family="mono" font-size="14.00" fill="#c83500">anyURI</text>
<polygon fill="#ddeeff" stroke="transparent" points="215,-304 215,-325 392,-325 392,-304 215,-304"/>
<polygon fill="none" stroke="#8ccbf2" points="215,-304 215,-325 392,-325 392,-304 215,-304"/>
<text text-anchor="start" x="218" y="-311.8" font-family="mono" font-size="14.00" fill="#c83500">flow</text>
<text text-anchor="start" x="252" y="-311.8" font-family="Times,serif" font-size="14.00"> : </text>
<text text-anchor="start" x="264" y="-311.8" font-family="mono" font-size="14.00" fill="#c83500">string</text>
<text text-anchor="start" x="314" y="-311.8" font-family="Times,serif" font-size="14.00"> </text>
<text text-anchor="start" x="318" y="-311.8" font-family="Times,serif" font-style="italic" font-size="14.00">(mandatory)</text>
<polygon fill="#ddeeff" stroke="transparent" points="215,-283 215,-304 392,-304 392,-283 215,-283"/>
<polygon fill="none" stroke="#8ccbf2" points="215,-283 215,-304 392,-304 392,-283 215,-283"/>
<text text-anchor="start" x="218" y="-290.8" font-family="mono" font-size="14.00" fill="#c83500">token</text>
<text text-anchor="start" x="260" y="-290.8" font-family="Times,serif" font-size="14.00"> : </text>
<text text-anchor="start" x="272" y="-290.8" font-family="mono" font-size="14.00" fill="#c83500">anyURI</text>
<polygon fill="#ddeeff" stroke="transparent" points="215,-262 215,-283 392,-283 392,-262 215,-262"/>
<polygon fill="none" stroke="#8ccbf2" points="215,-262 215,-283 392,-283 392,-262 215,-262"/>
<text text-anchor="start" x="218" y="-269.8" font-family="mono" font-size="14.00" fill="#c83500">scopes</text>
<text text-anchor="start" x="268" y="-269.8" font-family="Times,serif" font-size="14.00"> : (Array of) </text>
<text text-anchor="start" x="339" y="-269.8" font-family="mono" font-size="14.00" fill="#c83500">string</text>
<polygon fill="#ddeeff" stroke="transparent" points="215,-241 215,-262 392,-262 392,-241 215,-241"/>
<polygon fill="none" stroke="#8ccbf2" points="215,-241 215,-262 392,-262 392,-241 215,-241"/>
<text text-anchor="start" x="218" y="-248.8" font-family="mono" font-size="14.00" fill="#c83500">refresh</text>
<text text-anchor="start" x="276" y="-248.8" font-family="Times,serif" font-size="14.00"> : </text>
<text text-anchor="start" x="288" y="-248.8" font-family="mono" font-size="14.00" fill="#c83500">anyURI</text>
</g>
<!-- OAuth2SecurityScheme&#45;&gt;SecurityScheme -->
<g id="edge8" class="edge">
<title>OAuth2SecurityScheme&#45;&gt;SecurityScheme</title>
<path fill="none" stroke="black" d="M399.52,-240.75C402.68,-239.41 405.84,-238.15 409,-237 586.05,-172.35 806.08,-152.71 936.89,-146.85"/>
<polygon fill="white" stroke="black" points="937.08,-150.34 946.92,-146.42 936.78,-143.35 937.08,-150.34"/>
</g>
<!-- MultiLanguage -->
<g id="node12" class="node">
<title>MultiLanguage</title>
<polygon fill="#f2f2f2" stroke="transparent" points="993,-7 993,-28 1107,-28 1107,-7 993,-7"/>
<polygon fill="none" stroke="#8c8c8c" points="993,-7 993,-28 1107,-28 1107,-7 993,-7"/>
<text text-anchor="start" x="996" y="-14.8" font-family="mono" font-weight="bold" font-size="14.00">MultiLanguage</text>
</g>
<!-- SecurityScheme&#45;&gt;MultiLanguage -->
<g id="edge1" class="edge">
<title>SecurityScheme&#45;&gt;MultiLanguage</title>
<path fill="none" stroke="black" d="M1050,-86.89C1050,-72.77 1050,-58.22 1050,-46.23"/>
<polygon fill="black" stroke="black" points="1053.5,-46.03 1050,-36.03 1046.5,-46.03 1053.5,-46.03"/>
<text text-anchor="start" x="1050" y="-57.8" font-family="mono" font-size="14.00" fill="#c83500">descriptions</text>
<text text-anchor="middle" x="1039" y="-39.83" font-family="Times,serif" font-size="14.00">0..1</text>
</g>
<!-- BearerSecurityScheme -->
<g id="node4" class="node">
<title>BearerSecurityScheme</title>
<polygon fill="#8ccbf2" stroke="transparent" points="426,-346 426,-367 616,-367 616,-346 426,-346"/>
<polygon fill="none" stroke="#8ccbf2" points="426,-346 426,-367 616,-367 616,-346 426,-346"/>
<text text-anchor="start" x="438" y="-353.8" font-family="mono" font-weight="bold" font-size="14.00" fill="#c83500">BearerSecurityScheme</text>
<polygon fill="#ddeeff" stroke="transparent" points="426,-325 426,-346 616,-346 616,-325 426,-325"/>
<polygon fill="none" stroke="#8ccbf2" points="426,-325 426,-346 616,-346 616,-325 426,-325"/>
<text text-anchor="start" x="429" y="-332.8" font-family="mono" font-size="14.00" fill="#c83500">alg</text>
<text text-anchor="start" x="454" y="-332.8" font-family="Times,serif" font-size="14.00"> : </text>
<text text-anchor="start" x="466" y="-332.8" font-family="mono" font-size="14.00" fill="#c83500">string</text>
<text text-anchor="start" x="516" y="-332.8" font-family="Times,serif" font-size="14.00"> </text>
<text text-anchor="start" x="520" y="-332.8" font-family="Times,serif" font-style="italic" font-size="14.00">(mandatory)</text>
<polygon fill="#ddeeff" stroke="transparent" points="426,-304 426,-325 616,-325 616,-304 426,-304"/>
<polygon fill="none" stroke="#8ccbf2" points="426,-304 426,-325 616,-325 616,-304 426,-304"/>
<text text-anchor="start" x="429" y="-311.8" font-family="mono" font-size="14.00" fill="#c83500">in</text>
<text text-anchor="start" x="446" y="-311.8" font-family="Times,serif" font-size="14.00"> : </text>
<text text-anchor="start" x="458" y="-311.8" font-family="mono" font-size="14.00" fill="#c83500">string</text>
<text text-anchor="start" x="508" y="-311.8" font-family="Times,serif" font-size="14.00"> </text>
<text text-anchor="start" x="512" y="-311.8" font-family="Times,serif" font-style="italic" font-size="14.00">(mandatory)</text>
<polygon fill="#ddeeff" stroke="transparent" points="426,-283 426,-304 616,-304 616,-283 426,-283"/>
<polygon fill="none" stroke="#8ccbf2" points="426,-283 426,-304 616,-304 616,-283 426,-283"/>
<text text-anchor="start" x="429" y="-290.8" font-family="mono" font-size="14.00" fill="#c83500">name</text>
<text text-anchor="start" x="463" y="-290.8" font-family="Times,serif" font-size="14.00"> : </text>
<text text-anchor="start" x="475" y="-290.8" font-family="mono" font-size="14.00" fill="#c83500">string</text>
<polygon fill="#ddeeff" stroke="transparent" points="426,-262 426,-283 616,-283 616,-262 426,-262"/>
<polygon fill="none" stroke="#8ccbf2" points="426,-262 426,-283 616,-283 616,-262 426,-262"/>
<text text-anchor="start" x="429" y="-269.8" font-family="mono" font-size="14.00" fill="#c83500">format</text>
<text text-anchor="start" x="479" y="-269.8" font-family="Times,serif" font-size="14.00"> : </text>
<text text-anchor="start" x="491" y="-269.8" font-family="mono" font-size="14.00" fill="#c83500">string</text>
<text text-anchor="start" x="541" y="-269.8" font-family="Times,serif" font-size="14.00"> </text>
<text text-anchor="start" x="545" y="-269.8" font-family="Times,serif" font-style="italic" font-size="14.00">(mandatory)</text>
<polygon fill="#ddeeff" stroke="transparent" points="426,-241 426,-262 616,-262 616,-241 426,-241"/>
<polygon fill="none" stroke="#8ccbf2" points="426,-241 426,-262 616,-262 616,-241 426,-241"/>
<text text-anchor="start" x="429" y="-248.8" font-family="mono" font-size="14.00" fill="#c83500">authorization</text>
<text text-anchor="start" x="537" y="-248.8" font-family="Times,serif" font-size="14.00"> : </text>
<text text-anchor="start" x="549" y="-248.8" font-family="mono" font-size="14.00" fill="#c83500">anyURI</text>
</g>
<!-- BearerSecurityScheme&#45;&gt;SecurityScheme -->
<g id="edge9" class="edge">
<title>BearerSecurityScheme&#45;&gt;SecurityScheme</title>
<path fill="none" stroke="black" d="M624.15,-240.68C627.11,-239.39 630.06,-238.16 633,-237 732.05,-197.97 851.15,-173.62 936.66,-159.77"/>
<polygon fill="white" stroke="black" points="937.34,-163.2 946.66,-158.17 936.23,-156.29 937.34,-163.2"/>
</g>
<!-- BasicSecurityScheme -->
<g id="node5" class="node">
<title>BasicSecurityScheme</title>
<polygon fill="#8ccbf2" stroke="transparent" points="651,-314 651,-335 814,-335 814,-314 651,-314"/>
<polygon fill="none" stroke="#8ccbf2" points="651,-314 651,-335 814,-335 814,-314 651,-314"/>
<text text-anchor="start" x="654" y="-321.8" font-family="mono" font-weight="bold" font-size="14.00" fill="#c83500">BasicSecurityScheme</text>
<polygon fill="#ddeeff" stroke="transparent" points="651,-293 651,-314 814,-314 814,-293 651,-293"/>
<polygon fill="none" stroke="#8ccbf2" points="651,-293 651,-314 814,-314 814,-293 651,-293"/>
<text text-anchor="start" x="654" y="-300.8" font-family="mono" font-size="14.00" fill="#c83500">in</text>
<text text-anchor="start" x="671" y="-300.8" font-family="Times,serif" font-size="14.00"> : </text>
<text text-anchor="start" x="683" y="-300.8" font-family="mono" font-size="14.00" fill="#c83500">string</text>
<text text-anchor="start" x="733" y="-300.8" font-family="Times,serif" font-size="14.00"> </text>
<text text-anchor="start" x="737" y="-300.8" font-family="Times,serif" font-style="italic" font-size="14.00">(mandatory)</text>
<polygon fill="#ddeeff" stroke="transparent" points="651,-272 651,-293 814,-293 814,-272 651,-272"/>
<polygon fill="none" stroke="#8ccbf2" points="651,-272 651,-293 814,-293 814,-272 651,-272"/>
<text text-anchor="start" x="654" y="-279.8" font-family="mono" font-size="14.00" fill="#c83500">name</text>
<text text-anchor="start" x="688" y="-279.8" font-family="Times,serif" font-size="14.00"> : </text>
<text text-anchor="start" x="700" y="-279.8" font-family="mono" font-size="14.00" fill="#c83500">string</text>
</g>
<!-- BasicSecurityScheme&#45;&gt;SecurityScheme -->
<g id="edge6" class="edge">
<title>BasicSecurityScheme&#45;&gt;SecurityScheme</title>
<path fill="none" stroke="black" d="M779.97,-268.39C795.82,-257.67 813.81,-246.25 831,-237 864.55,-218.94 902.38,-201.87 937.05,-187.44"/>
<polygon fill="white" stroke="black" points="938.83,-190.49 946.74,-183.44 936.16,-184.02 938.83,-190.49"/>
</g>
<!-- PoPSecurityScheme -->
<g id="node6" class="node">
<title>PoPSecurityScheme</title>
<polygon fill="#8ccbf2" stroke="transparent" points="848,-346 848,-367 1038,-367 1038,-346 848,-346"/>
<polygon fill="none" stroke="#8ccbf2" points="848,-346 848,-367 1038,-367 1038,-346 848,-346"/>
<text text-anchor="start" x="872.5" y="-353.8" font-family="mono" font-weight="bold" font-size="14.00" fill="#c83500">PoPSecurityScheme</text>
<polygon fill="#ddeeff" stroke="transparent" points="848,-325 848,-346 1038,-346 1038,-325 848,-325"/>
<polygon fill="none" stroke="#8ccbf2" points="848,-325 848,-346 1038,-346 1038,-325 848,-325"/>
<text text-anchor="start" x="851" y="-332.8" font-family="mono" font-size="14.00" fill="#c83500">in</text>
<text text-anchor="start" x="868" y="-332.8" font-family="Times,serif" font-size="14.00"> : </text>
<text text-anchor="start" x="880" y="-332.8" font-family="mono" font-size="14.00" fill="#c83500">string</text>
<text text-anchor="start" x="930" y="-332.8" font-family="Times,serif" font-size="14.00"> </text>
<text text-anchor="start" x="934" y="-332.8" font-family="Times,serif" font-style="italic" font-size="14.00">(mandatory)</text>
<polygon fill="#ddeeff" stroke="transparent" points="848,-304 848,-325 1038,-325 1038,-304 848,-304"/>
<polygon fill="none" stroke="#8ccbf2" points="848,-304 848,-325 1038,-325 1038,-304 848,-304"/>
<text text-anchor="start" x="851" y="-311.8" font-family="mono" font-size="14.00" fill="#c83500">format</text>
<text text-anchor="start" x="901" y="-311.8" font-family="Times,serif" font-size="14.00"> : </text>
<text text-anchor="start" x="913" y="-311.8" font-family="mono" font-size="14.00" fill="#c83500">string</text>
<text text-anchor="start" x="963" y="-311.8" font-family="Times,serif" font-size="14.00"> </text>
<text text-anchor="start" x="967" y="-311.8" font-family="Times,serif" font-style="italic" font-size="14.00">(mandatory)</text>
<polygon fill="#ddeeff" stroke="transparent" points="848,-283 848,-304 1038,-304 1038,-283 848,-283"/>
<polygon fill="none" stroke="#8ccbf2" points="848,-283 848,-304 1038,-304 1038,-283 848,-283"/>
<text text-anchor="start" x="851" y="-290.8" font-family="mono" font-size="14.00" fill="#c83500">alg</text>
<text text-anchor="start" x="876" y="-290.8" font-family="Times,serif" font-size="14.00"> : </text>
<text text-anchor="start" x="888" y="-290.8" font-family="mono" font-size="14.00" fill="#c83500">string</text>
<text text-anchor="start" x="938" y="-290.8" font-family="Times,serif" font-size="14.00"> </text>
<text text-anchor="start" x="942" y="-290.8" font-family="Times,serif" font-style="italic" font-size="14.00">(mandatory)</text>
<polygon fill="#ddeeff" stroke="transparent" points="848,-262 848,-283 1038,-283 1038,-262 848,-262"/>
<polygon fill="none" stroke="#8ccbf2" points="848,-262 848,-283 1038,-283 1038,-262 848,-262"/>
<text text-anchor="start" x="851" y="-269.8" font-family="mono" font-size="14.00" fill="#c83500">name</text>
<text text-anchor="start" x="885" y="-269.8" font-family="Times,serif" font-size="14.00"> : </text>
<text text-anchor="start" x="897" y="-269.8" font-family="mono" font-size="14.00" fill="#c83500">string</text>
<polygon fill="#ddeeff" stroke="transparent" points="848,-241 848,-262 1038,-262 1038,-241 848,-241"/>
<polygon fill="none" stroke="#8ccbf2" points="848,-241 848,-262 1038,-262 1038,-241 848,-241"/>
<text text-anchor="start" x="851" y="-248.8" font-family="mono" font-size="14.00" fill="#c83500">authorization</text>
<text text-anchor="start" x="959" y="-248.8" font-family="Times,serif" font-size="14.00"> : </text>
<text text-anchor="start" x="971" y="-248.8" font-family="mono" font-size="14.00" fill="#c83500">anyURI</text>
</g>
<!-- PoPSecurityScheme&#45;&gt;SecurityScheme -->
<g id="edge3" class="edge">
<title>PoPSecurityScheme&#45;&gt;SecurityScheme</title>
<path fill="none" stroke="black" d="M987.76,-236.7C993.98,-227.48 1000.37,-218.01 1006.57,-208.83"/>
<polygon fill="white" stroke="black" points="1009.51,-210.73 1012.21,-200.49 1003.71,-206.82 1009.51,-210.73"/>
</g>
<!-- PublicSecurityScheme -->
<g id="node7" class="node">
<title>PublicSecurityScheme</title>
<polygon fill="#8ccbf2" stroke="transparent" points="1072,-304 1072,-325 1244,-325 1244,-304 1072,-304"/>
<polygon fill="none" stroke="#8ccbf2" points="1072,-304 1072,-325 1244,-325 1244,-304 1072,-304"/>
<text text-anchor="start" x="1075" y="-311.8" font-family="mono" font-weight="bold" font-size="14.00" fill="#c83500">PublicSecurityScheme</text>
<polygon fill="#ddeeff" stroke="transparent" points="1072,-283 1072,-304 1244,-304 1244,-283 1072,-283"/>
<polygon fill="none" stroke="#8ccbf2" points="1072,-283 1072,-304 1244,-304 1244,-283 1072,-283"/>
<text text-anchor="start" x="1075" y="-290.8" font-family="mono" font-size="14.00" fill="#c83500">identity</text>
<text text-anchor="start" x="1142" y="-290.8" font-family="Times,serif" font-size="14.00"> : </text>
<text text-anchor="start" x="1154" y="-290.8" font-family="mono" font-size="14.00" fill="#c83500">string</text>
</g>
<!-- PublicSecurityScheme&#45;&gt;SecurityScheme -->
<g id="edge2" class="edge">
<title>PublicSecurityScheme&#45;&gt;SecurityScheme</title>
<path fill="none" stroke="black" d="M1141.6,-278.93C1128.82,-260.18 1110.47,-233.24 1093.54,-208.4"/>
<polygon fill="white" stroke="black" points="1096.39,-206.37 1087.87,-200.07 1090.61,-210.31 1096.39,-206.37"/>
</g>
<!-- DigestSecurityScheme -->
<g id="node8" class="node">
<title>DigestSecurityScheme</title>
<polygon fill="#8ccbf2" stroke="transparent" points="1278,-325 1278,-346 1450,-346 1450,-325 1278,-325"/>
<polygon fill="none" stroke="#8ccbf2" points="1278,-325 1278,-346 1450,-346 1450,-325 1278,-325"/>
<text text-anchor="start" x="1281" y="-332.8" font-family="mono" font-weight="bold" font-size="14.00" fill="#c83500">DigestSecurityScheme</text>
<polygon fill="#ddeeff" stroke="transparent" points="1278,-304 1278,-325 1450,-325 1450,-304 1278,-304"/>
<polygon fill="none" stroke="#8ccbf2" points="1278,-304 1278,-325 1450,-325 1450,-304 1278,-304"/>
<text text-anchor="start" x="1281" y="-311.8" font-family="mono" font-size="14.00" fill="#c83500">in</text>
<text text-anchor="start" x="1298" y="-311.8" font-family="Times,serif" font-size="14.00"> : </text>
<text text-anchor="start" x="1310" y="-311.8" font-family="mono" font-size="14.00" fill="#c83500">string</text>
<text text-anchor="start" x="1360" y="-311.8" font-family="Times,serif" font-size="14.00"> </text>
<text text-anchor="start" x="1364" y="-311.8" font-family="Times,serif" font-style="italic" font-size="14.00">(mandatory)</text>
<polygon fill="#ddeeff" stroke="transparent" points="1278,-283 1278,-304 1450,-304 1450,-283 1278,-283"/>
<polygon fill="none" stroke="#8ccbf2" points="1278,-283 1278,-304 1450,-304 1450,-283 1278,-283"/>
<text text-anchor="start" x="1281" y="-290.8" font-family="mono" font-size="14.00" fill="#c83500">qop</text>
<text text-anchor="start" x="1306" y="-290.8" font-family="Times,serif" font-size="14.00"> : </text>
<text text-anchor="start" x="1318" y="-290.8" font-family="mono" font-size="14.00" fill="#c83500">string</text>
<text text-anchor="start" x="1368" y="-290.8" font-family="Times,serif" font-size="14.00"> </text>
<text text-anchor="start" x="1372" y="-290.8" font-family="Times,serif" font-style="italic" font-size="14.00">(mandatory)</text>
<polygon fill="#ddeeff" stroke="transparent" points="1278,-262 1278,-283 1450,-283 1450,-262 1278,-262"/>
<polygon fill="none" stroke="#8ccbf2" points="1278,-262 1278,-283 1450,-283 1450,-262 1278,-262"/>
<text text-anchor="start" x="1281" y="-269.8" font-family="mono" font-size="14.00" fill="#c83500">name</text>
<text text-anchor="start" x="1315" y="-269.8" font-family="Times,serif" font-size="14.00"> : </text>
<text text-anchor="start" x="1327" y="-269.8" font-family="mono" font-size="14.00" fill="#c83500">string</text>
</g>
<!-- DigestSecurityScheme&#45;&gt;SecurityScheme -->
<g id="edge5" class="edge">
<title>DigestSecurityScheme&#45;&gt;SecurityScheme</title>
<path fill="none" stroke="black" d="M1297.04,-257.96C1285.22,-250.63 1272.89,-243.36 1261,-237 1229.79,-220.29 1194.94,-204.08 1162.69,-190.02"/>
<polygon fill="white" stroke="black" points="1163.79,-186.68 1153.22,-185.92 1161.01,-193.1 1163.79,-186.68"/>
</g>
<!-- NoSecurityScheme -->
<g id="node9" class="node">
<title>NoSecurityScheme</title>
<polygon fill="#8ccbf2" stroke="transparent" points="1485,-293 1485,-314 1624,-314 1624,-293 1485,-293"/>
<polygon fill="none" stroke="#8ccbf2" points="1485,-293 1485,-314 1624,-314 1624,-293 1485,-293"/>
<text text-anchor="start" x="1488" y="-300.8" font-family="mono" font-weight="bold" font-size="14.00" fill="#c83500">NoSecurityScheme</text>
</g>
<!-- NoSecurityScheme&#45;&gt;SecurityScheme -->
<g id="edge11" class="edge">
<title>NoSecurityScheme&#45;&gt;SecurityScheme</title>
<path fill="none" stroke="black" d="M1536.19,-285.76C1519.6,-270.66 1493.49,-249.27 1467,-237 1369.91,-192.04 1249.79,-168.38 1163.45,-156.29"/>
<polygon fill="white" stroke="black" points="1163.74,-152.79 1153.36,-154.9 1162.79,-159.73 1163.74,-152.79"/>
</g>
<!-- PSKSecurityScheme -->
<g id="node10" class="node">
<title>PSKSecurityScheme</title>
<polygon fill="#8ccbf2" stroke="transparent" points="1658,-304 1658,-325 1805,-325 1805,-304 1658,-304"/>
<polygon fill="none" stroke="#8ccbf2" points="1658,-304 1658,-325 1805,-325 1805,-304 1658,-304"/>
<text text-anchor="start" x="1661" y="-311.8" font-family="mono" font-weight="bold" font-size="14.00" fill="#c83500">PSKSecurityScheme</text>
<polygon fill="#ddeeff" stroke="transparent" points="1658,-283 1658,-304 1805,-304 1805,-283 1658,-283"/>
<polygon fill="none" stroke="#8ccbf2" points="1658,-283 1658,-304 1805,-304 1805,-283 1658,-283"/>
<text text-anchor="start" x="1661" y="-290.8" font-family="mono" font-size="14.00" fill="#c83500">identity</text>
<text text-anchor="start" x="1728" y="-290.8" font-family="Times,serif" font-size="14.00"> : </text>
<text text-anchor="start" x="1740" y="-290.8" font-family="mono" font-size="14.00" fill="#c83500">string</text>
</g>
<!-- PSKSecurityScheme&#45;&gt;SecurityScheme -->
<g id="edge7" class="edge">
<title>PSKSecurityScheme&#45;&gt;SecurityScheme</title>
<path fill="none" stroke="black" d="M1704.78,-278.79C1687.62,-264.33 1663.99,-246.9 1640,-237 1482.93,-172.16 1285.16,-152.43 1163.17,-146.63"/>
<polygon fill="white" stroke="black" points="1163.21,-143.12 1153.07,-146.17 1162.9,-150.12 1163.21,-143.12"/>
</g>
<!-- CertSecurityScheme -->
<g id="node11" class="node">
<title>CertSecurityScheme</title>
<polygon fill="#8ccbf2" stroke="transparent" points="1839,-304 1839,-325 1994,-325 1994,-304 1839,-304"/>
<polygon fill="none" stroke="#8ccbf2" points="1839,-304 1839,-325 1994,-325 1994,-304 1839,-304"/>
<text text-anchor="start" x="1842" y="-311.8" font-family="mono" font-weight="bold" font-size="14.00" fill="#c83500">CertSecurityScheme</text>
<polygon fill="#ddeeff" stroke="transparent" points="1839,-283 1839,-304 1994,-304 1994,-283 1839,-283"/>
<polygon fill="none" stroke="#8ccbf2" points="1839,-283 1839,-304 1994,-304 1994,-283 1839,-283"/>
<text text-anchor="start" x="1842" y="-290.8" font-family="mono" font-size="14.00" fill="#c83500">identity</text>
<text text-anchor="start" x="1909" y="-290.8" font-family="Times,serif" font-size="14.00"> : </text>
<text text-anchor="start" x="1921" y="-290.8" font-family="mono" font-size="14.00" fill="#c83500">string</text>
</g>
<!-- CertSecurityScheme&#45;&gt;SecurityScheme -->
<g id="edge10" class="edge">
<title>CertSecurityScheme&#45;&gt;SecurityScheme</title>
<path fill="none" stroke="black" d="M1889.3,-278.83C1871.54,-264.19 1846.95,-246.56 1822,-237 1704.33,-191.94 1347.72,-163.41 1163.25,-151.26"/>
<polygon fill="white" stroke="black" points="1163.45,-147.77 1153.24,-150.61 1162.99,-154.75 1163.45,-147.77"/>
</g>
</g>
</svg>
