<?xml version="1.0" encoding="UTF-8" standalone="no"?>
<!DOCTYPE svg PUBLIC "-//W3C//DTD SVG 1.1//EN"
 "http://www.w3.org/Graphics/SVG/1.1/DTD/svg11.dtd">
<!-- Generated by graphviz version 2.40.1 (20161225.0304)
 -->
<!-- Title: %3 Pages: 1 -->
<svg width="2008pt" height="270pt"
 viewBox="0.00 0.00 2007.50 270.00" xmlns="http://www.w3.org/2000/svg" xmlns:xlink="http://www.w3.org/1999/xlink">
<g id="graph0" class="graph" transform="scale(1 1) rotate(0) translate(4 266)">
<title>%3</title>
<polygon fill="#ffffff" stroke="transparent" points="-4,4 -4,-266 2003.5,-266 2003.5,4 -4,4"/>
<!-- APIKeySecurityScheme -->
<g id="node1" class="node">
<title>APIKeySecurityScheme</title>
<polygon fill="#8ccbf2" stroke="transparent" points="8,-205 8,-226 180,-226 180,-205 8,-205"/>
<polygon fill="none" stroke="#8ccbf2" points="8,-205 8,-226 180,-226 180,-205 8,-205"/>
<text text-anchor="start" x="11" y="-212.8" font-family="mono" font-weight="bold" font-size="14.00" fill="#c83500">APIKeySecurityScheme</text>
<polygon fill="#ddeeff" stroke="transparent" points="8,-184 8,-205 180,-205 180,-184 8,-184"/>
<polygon fill="none" stroke="#8ccbf2" points="8,-184 8,-205 180,-205 180,-184 8,-184"/>
<text text-anchor="start" x="11" y="-191.8" font-family="mono" font-size="14.00" fill="#c83500">in</text>
<text text-anchor="start" x="28" y="-191.8" font-family="Times,serif" font-size="14.00" fill="#000000"> : </text>
<text text-anchor="start" x="40" y="-191.8" font-family="mono" font-size="14.00" fill="#c83500">string</text>
<text text-anchor="start" x="90" y="-191.8" font-family="Times,serif" font-size="14.00" fill="#000000"> </text>
<text text-anchor="start" x="94" y="-191.8" font-family="Times,serif" font-style="italic" font-size="14.00" fill="#000000">(mandatory)</text>
<polygon fill="#ddeeff" stroke="transparent" points="8,-163 8,-184 180,-184 180,-163 8,-163"/>
<polygon fill="none" stroke="#8ccbf2" points="8,-163 8,-184 180,-184 180,-163 8,-163"/>
<text text-anchor="start" x="11" y="-170.8" font-family="mono" font-size="14.00" fill="#c83500">name</text>
<text text-anchor="start" x="45" y="-170.8" font-family="Times,serif" font-size="14.00" fill="#000000"> : </text>
<text text-anchor="start" x="57" y="-170.8" font-family="mono" font-size="14.00" fill="#c83500">string</text>
</g>
<!-- SecurityScheme -->
<g id="node3" class="node"><title>SecurityScheme</title>
<polygon fill="#8ccbf2" stroke="none" points="1146,-67 1146,-88 1336,-88 1336,-67 1146,-67"/>
<polygon fill="none" stroke="#8ccbf2" points="1146,-67 1146,-88 1336,-88 1336,-67 1146,-67"/>
<text text-anchor="start" x="1183" y="-74.8" font-family="mono" font-weight="bold" font-size="14.00" fill="#c83500">SecurityScheme</text>
<polygon fill="#ddeeff" stroke="none" points="1146,-46 1146,-67 1336,-67 1336,-46 1146,-46"/>
<polygon fill="none" stroke="#8ccbf2" points="1146,-46 1146,-67 1336,-67 1336,-46 1146,-46"/>
<text text-anchor="start" x="1149" y="-53.8" font-family="mono" font-size="14.00" fill="#c83500">proxy</text>
<text text-anchor="start" x="1191" y="-53.8" font-family="Times,serif" font-size="14.00"> : </text>
<text text-anchor="start" x="1203" y="-53.8" font-family="mono" font-size="14.00" fill="#c83500">anyURI</text>
<polygon fill="#ddeeff" stroke="none" points="1146,-25 1146,-46 1336,-46 1336,-25 1146,-25"/>
<polygon fill="none" stroke="#8ccbf2" points="1146,-25 1146,-46 1336,-46 1336,-25 1146,-25"/>
<text text-anchor="start" x="1149" y="-32.8" font-family="mono" font-size="14.00" fill="#c83500">scheme</text>
<text text-anchor="start" x="1199" y="-32.8" font-family="Times,serif" font-size="14.00"> : </text>
<text text-anchor="start" x="1211" y="-32.8" font-family="mono" font-size="14.00" fill="#c83500">string</text>
<text text-anchor="start" x="1261" y="-32.8" font-family="Times,serif" font-size="14.00"> </text>
<text text-anchor="start" x="1265" y="-32.8" font-family="Times,serif" font-style="italic" font-size="14.00">(mandatory)</text>
<polygon fill="#ddeeff" stroke="none" points="1146,-4 1146,-25 1336,-25 1336,-4 1146,-4"/>
<polygon fill="none" stroke="#8ccbf2" points="1146,-4 1146,-25 1336,-25 1336,-4 1146,-4"/>
<text text-anchor="start" x="1149" y="-11.8" font-family="mono" font-size="14.00" fill="#c83500">description</text>
<text text-anchor="start" x="1240" y="-11.8" font-family="Times,serif" font-size="14.00"> : </text>
<text text-anchor="start" x="1252" y="-11.8" font-family="mono" font-size="14.00" fill="#c83500">string</text>
</g>
<!-- APIKeySecurityScheme&#45;&gt;SecurityScheme -->
<g id="edge6" class="edge">
<title>APIKeySecurityScheme&#45;&gt;SecurityScheme</title>
<path fill="none" stroke="#000000" d="M138.4238,-159.4063C155.7358,-147.3962 176.3599,-135.2174 197,-128 330.2383,-81.4094 735.2201,-58.7861 934.6237,-50.2337"/>
<polygon fill="#ffffff" stroke="#000000" points="934.9932,-53.7213 944.8358,-49.8003 934.6964,-46.7276 934.9932,-53.7213"/>
</g>
<!-- OAuth2SecurityScheme -->
<g id="node2" class="node"><title>OAuth2SecurityScheme</title>
<polygon fill="#8ccbf2" stroke="none" points="247,-237 247,-258 480,-258 480,-237 247,-237"/>
<polygon fill="none" stroke="#8ccbf2" points="247,-237 247,-258 480,-258 480,-237 247,-237"/>
<text text-anchor="start" x="280.5" y="-244.8" font-family="mono" font-weight="bold" font-size="14.00" fill="#c83500">OAuth2SecurityScheme</text>
<polygon fill="#ddeeff" stroke="none" points="247,-216 247,-237 480,-237 480,-216 247,-216"/>
<polygon fill="none" stroke="#8ccbf2" points="247,-216 247,-237 480,-237 480,-216 247,-216"/>
<text text-anchor="start" x="250" y="-223.8" font-family="mono" font-size="14.00" fill="#c83500">token</text>
<text text-anchor="start" x="292" y="-223.8" font-family="Times,serif" font-size="14.00"> : </text>
<text text-anchor="start" x="304" y="-223.8" font-family="mono" font-size="14.00" fill="#c83500">anyURI</text>
<polygon fill="#ddeeff" stroke="none" points="247,-195 247,-216 480,-216 480,-195 247,-195"/>
<polygon fill="none" stroke="#8ccbf2" points="247,-195 247,-216 480,-216 480,-195 247,-195"/>
<text text-anchor="start" x="250" y="-202.8" font-family="mono" font-size="14.00" fill="#c83500">scopes</text>
<text text-anchor="start" x="300" y="-202.8" font-family="Times,serif" font-size="14.00"> : array of </text>
<text text-anchor="start" x="358" y="-202.8" font-family="mono" font-size="14.00" fill="#c83500">string</text>
<polygon fill="#ddeeff" stroke="none" points="247,-174 247,-195 480,-195 480,-174 247,-174"/>
<polygon fill="none" stroke="#8ccbf2" points="247,-174 247,-195 480,-195 480,-174 247,-174"/>
<text text-anchor="start" x="250" y="-181.8" font-family="mono" font-size="14.00" fill="#c83500">refresh</text>
<text text-anchor="start" x="308" y="-181.8" font-family="Times,serif" font-size="14.00"> : </text>
<text text-anchor="start" x="320" y="-181.8" font-family="mono" font-size="14.00" fill="#c83500">anyURI</text>
<polygon fill="#ddeeff" stroke="none" points="247,-153 247,-174 480,-174 480,-153 247,-153"/>
<polygon fill="none" stroke="#8ccbf2" points="247,-153 247,-174 480,-174 480,-153 247,-153"/>
<text text-anchor="start" x="250" y="-160.8" font-family="mono" font-size="14.00" fill="#c83500">flow</text>
<text text-anchor="start" x="284" y="-160.8" font-family="Times,serif" font-size="14.00"> : </text>
<text text-anchor="start" x="296" y="-160.8" font-family="mono" font-size="14.00" fill="#c83500">string</text>
<text text-anchor="start" x="346" y="-160.8" font-family="Times,serif" font-size="14.00"> = implicit </text>
<text text-anchor="start" x="409" y="-160.8" font-family="Times,serif" font-style="italic" font-size="14.00">(mandatory)</text>
<polygon fill="#ddeeff" stroke="none" points="247,-132 247,-153 480,-153 480,-132 247,-132"/>
<polygon fill="none" stroke="#8ccbf2" points="247,-132 247,-153 480,-153 480,-132 247,-132"/>
<text text-anchor="start" x="250" y="-139.8" font-family="mono" font-size="14.00" fill="#c83500">authorization</text>
<text text-anchor="start" x="358" y="-139.8" font-family="Times,serif" font-size="14.00"> : </text>
<text text-anchor="start" x="370" y="-139.8" font-family="mono" font-size="14.00" fill="#c83500">anyURI</text>
</g>
<!-- OAuth2SecurityScheme&#45;&gt;SecurityScheme -->
<g id="edge1" class="edge"><title>OAuth2SecurityScheme&#45;&gt;SecurityScheme</title>
<path fill="none" stroke="black" d="M487.806,-130.542C490.545,-129.645 493.278,-128.796 496,-128 713.436,-64.4224 979.746,-49.8589 1127.85,-47.0466"/>
<polygon fill="white" stroke="black" points="1127.94,-50.5457 1137.87,-46.8709 1127.81,-43.5468 1127.94,-50.5457"/>
</g>
<!-- BearerSecurityScheme -->
<g id="node4" class="node"><title>BearerSecurityScheme</title>
<polygon fill="#8ccbf2" stroke="none" points="514,-237 514,-258 737,-258 737,-237 514,-237"/>
<polygon fill="none" stroke="#8ccbf2" points="514,-237 514,-258 737,-258 737,-237 514,-237"/>
<text text-anchor="start" x="542.5" y="-244.8" font-family="mono" font-weight="bold" font-size="14.00" fill="#c83500">BearerSecurityScheme</text>
<polygon fill="#ddeeff" stroke="none" points="514,-216 514,-237 737,-237 737,-216 514,-216"/>
<polygon fill="none" stroke="#8ccbf2" points="514,-216 514,-237 737,-237 737,-216 514,-216"/>
<text text-anchor="start" x="517" y="-223.8" font-family="mono" font-size="14.00" fill="#c83500">in</text>
<text text-anchor="start" x="534" y="-223.8" font-family="Times,serif" font-size="14.00"> : </text>
<text text-anchor="start" x="546" y="-223.8" font-family="mono" font-size="14.00" fill="#c83500">string</text>
<text text-anchor="start" x="596" y="-223.8" font-family="Times,serif" font-size="14.00"> = header </text>
<text text-anchor="start" x="652" y="-223.8" font-family="Times,serif" font-style="italic" font-size="14.00">(mandatory)</text>
<polygon fill="#ddeeff" stroke="none" points="514,-195 514,-216 737,-216 737,-195 514,-195"/>
<polygon fill="none" stroke="#8ccbf2" points="514,-195 514,-216 737,-216 737,-195 514,-195"/>
<text text-anchor="start" x="517" y="-202.8" font-family="mono" font-size="14.00" fill="#c83500">alg</text>
<text text-anchor="start" x="542" y="-202.8" font-family="Times,serif" font-size="14.00"> : </text>
<text text-anchor="start" x="554" y="-202.8" font-family="mono" font-size="14.00" fill="#c83500">string</text>
<text text-anchor="start" x="604" y="-202.8" font-family="Times,serif" font-size="14.00"> = ES256 </text>
<text text-anchor="start" x="660" y="-202.8" font-family="Times,serif" font-style="italic" font-size="14.00">(mandatory)</text>
<polygon fill="#ddeeff" stroke="none" points="514,-174 514,-195 737,-195 737,-174 514,-174"/>
<polygon fill="none" stroke="#8ccbf2" points="514,-174 514,-195 737,-195 737,-174 514,-174"/>
<text text-anchor="start" x="517" y="-181.8" font-family="mono" font-size="14.00" fill="#c83500">format</text>
<text text-anchor="start" x="567" y="-181.8" font-family="Times,serif" font-size="14.00"> : </text>
<text text-anchor="start" x="579" y="-181.8" font-family="mono" font-size="14.00" fill="#c83500">string</text>
<text text-anchor="start" x="629" y="-181.8" font-family="Times,serif" font-size="14.00"> = jwt </text>
<text text-anchor="start" x="666" y="-181.8" font-family="Times,serif" font-style="italic" font-size="14.00">(mandatory)</text>
<polygon fill="#ddeeff" stroke="none" points="514,-153 514,-174 737,-174 737,-153 514,-153"/>
<polygon fill="none" stroke="#8ccbf2" points="514,-153 514,-174 737,-174 737,-153 514,-153"/>
<text text-anchor="start" x="517" y="-160.8" font-family="mono" font-size="14.00" fill="#c83500">authorization</text>
<text text-anchor="start" x="625" y="-160.8" font-family="Times,serif" font-size="14.00"> : </text>
<text text-anchor="start" x="637" y="-160.8" font-family="mono" font-size="14.00" fill="#c83500">anyURI</text>
<polygon fill="#ddeeff" stroke="none" points="514,-132 514,-153 737,-153 737,-132 514,-132"/>
<polygon fill="none" stroke="#8ccbf2" points="514,-132 514,-153 737,-153 737,-132 514,-132"/>
<text text-anchor="start" x="517" y="-139.8" font-family="mono" font-size="14.00" fill="#c83500">name</text>
<text text-anchor="start" x="551" y="-139.8" font-family="Times,serif" font-size="14.00"> : </text>
<text text-anchor="start" x="563" y="-139.8" font-family="mono" font-size="14.00" fill="#c83500">string</text>
</g>
<!-- BearerSecurityScheme&#45;&gt;SecurityScheme -->
<g id="edge3" class="edge"><title>BearerSecurityScheme&#45;&gt;SecurityScheme</title>
<path fill="none" stroke="black" d="M744.78,-130.865C747.529,-129.862 750.271,-128.905 753,-128 877.516,-86.6985 1027.19,-65.8461 1127.66,-55.7443"/>
<polygon fill="white" stroke="black" points="1128.22,-59.2056 1137.83,-54.7412 1127.54,-52.2393 1128.22,-59.2056"/>
</g>
<!-- BasicSecurityScheme -->
<g id="node5" class="node"><title>BasicSecurityScheme</title>
<polygon fill="#8ccbf2" stroke="none" points="771,-205 771,-226 980,-226 980,-205 771,-205"/>
<polygon fill="none" stroke="#8ccbf2" points="771,-205 771,-226 980,-226 980,-205 771,-205"/>
<text text-anchor="start" x="797" y="-212.8" font-family="mono" font-weight="bold" font-size="14.00" fill="#c83500">BasicSecurityScheme</text>
<polygon fill="#ddeeff" stroke="none" points="771,-184 771,-205 980,-205 980,-184 771,-184"/>
<polygon fill="none" stroke="#8ccbf2" points="771,-184 771,-205 980,-205 980,-184 771,-184"/>
<text text-anchor="start" x="774" y="-191.8" font-family="mono" font-size="14.00" fill="#c83500">name</text>
<text text-anchor="start" x="808" y="-191.8" font-family="Times,serif" font-size="14.00"> : </text>
<text text-anchor="start" x="820" y="-191.8" font-family="mono" font-size="14.00" fill="#c83500">string</text>
<polygon fill="#ddeeff" stroke="none" points="771,-163 771,-184 980,-184 980,-163 771,-163"/>
<polygon fill="none" stroke="#8ccbf2" points="771,-163 771,-184 980,-184 980,-163 771,-163"/>
<text text-anchor="start" x="774" y="-170.8" font-family="mono" font-size="14.00" fill="#c83500">in</text>
<text text-anchor="start" x="791" y="-170.8" font-family="Times,serif" font-size="14.00"> : </text>
<text text-anchor="start" x="803" y="-170.8" font-family="mono" font-size="14.00" fill="#c83500">string</text>
<text text-anchor="start" x="853" y="-170.8" font-family="Times,serif" font-size="14.00"> = header </text>
<text text-anchor="start" x="909" y="-170.8" font-family="Times,serif" font-style="italic" font-size="14.00">(mandatory)</text>
</g>
<!-- BasicSecurityScheme&#45;&gt;SecurityScheme -->
<g id="edge10" class="edge"><title>BasicSecurityScheme&#45;&gt;SecurityScheme</title>
<path fill="none" stroke="black" d="M933.326,-159.426C952.874,-148.589 975.036,-137.095 996,-128 1038.23,-109.681 1086.02,-93.0187 1128.12,-79.6344"/>
<polygon fill="white" stroke="black" points="1129.36,-82.9125 1137.84,-76.5672 1127.26,-76.2365 1129.36,-82.9125"/>
</g>
<!-- PoPSecurityScheme -->
<g id="node6" class="node"><title>PoPSecurityScheme</title>
<polygon fill="#8ccbf2" stroke="none" points="1014,-237 1014,-258 1237,-258 1237,-237 1014,-237"/>
<polygon fill="none" stroke="#8ccbf2" points="1014,-237 1014,-258 1237,-258 1237,-237 1014,-237"/>
<text text-anchor="start" x="1055" y="-244.8" font-family="mono" font-weight="bold" font-size="14.00" fill="#c83500">PoPSecurityScheme</text>
<polygon fill="#ddeeff" stroke="none" points="1014,-216 1014,-237 1237,-237 1237,-216 1014,-216"/>
<polygon fill="none" stroke="#8ccbf2" points="1014,-216 1014,-237 1237,-237 1237,-216 1014,-216"/>
<text text-anchor="start" x="1017" y="-223.8" font-family="mono" font-size="14.00" fill="#c83500">format</text>
<text text-anchor="start" x="1067" y="-223.8" font-family="Times,serif" font-size="14.00"> : </text>
<text text-anchor="start" x="1079" y="-223.8" font-family="mono" font-size="14.00" fill="#c83500">string</text>
<text text-anchor="start" x="1129" y="-223.8" font-family="Times,serif" font-size="14.00"> = jwt </text>
<text text-anchor="start" x="1166" y="-223.8" font-family="Times,serif" font-style="italic" font-size="14.00">(mandatory)</text>
<polygon fill="#ddeeff" stroke="none" points="1014,-195 1014,-216 1237,-216 1237,-195 1014,-195"/>
<polygon fill="none" stroke="#8ccbf2" points="1014,-195 1014,-216 1237,-216 1237,-195 1014,-195"/>
<text text-anchor="start" x="1017" y="-202.8" font-family="mono" font-size="14.00" fill="#c83500">alg</text>
<text text-anchor="start" x="1042" y="-202.8" font-family="Times,serif" font-size="14.00"> : </text>
<text text-anchor="start" x="1054" y="-202.8" font-family="mono" font-size="14.00" fill="#c83500">string</text>
<text text-anchor="start" x="1104" y="-202.8" font-family="Times,serif" font-size="14.00"> = ES256 </text>
<text text-anchor="start" x="1160" y="-202.8" font-family="Times,serif" font-style="italic" font-size="14.00">(mandatory)</text>
<polygon fill="#ddeeff" stroke="none" points="1014,-174 1014,-195 1237,-195 1237,-174 1014,-174"/>
<polygon fill="none" stroke="#8ccbf2" points="1014,-174 1014,-195 1237,-195 1237,-174 1014,-174"/>
<text text-anchor="start" x="1017" y="-181.8" font-family="mono" font-size="14.00" fill="#c83500">authorization</text>
<text text-anchor="start" x="1125" y="-181.8" font-family="Times,serif" font-size="14.00"> : </text>
<text text-anchor="start" x="1137" y="-181.8" font-family="mono" font-size="14.00" fill="#c83500">anyURI</text>
<polygon fill="#ddeeff" stroke="none" points="1014,-153 1014,-174 1237,-174 1237,-153 1014,-153"/>
<polygon fill="none" stroke="#8ccbf2" points="1014,-153 1014,-174 1237,-174 1237,-153 1014,-153"/>
<text text-anchor="start" x="1017" y="-160.8" font-family="mono" font-size="14.00" fill="#c83500">name</text>
<text text-anchor="start" x="1051" y="-160.8" font-family="Times,serif" font-size="14.00"> : </text>
<text text-anchor="start" x="1063" y="-160.8" font-family="mono" font-size="14.00" fill="#c83500">string</text>
<polygon fill="#ddeeff" stroke="none" points="1014,-132 1014,-153 1237,-153 1237,-132 1014,-132"/>
<polygon fill="none" stroke="#8ccbf2" points="1014,-132 1014,-153 1237,-153 1237,-132 1014,-132"/>
<text text-anchor="start" x="1017" y="-139.8" font-family="mono" font-size="14.00" fill="#c83500">in</text>
<text text-anchor="start" x="1034" y="-139.8" font-family="Times,serif" font-size="14.00"> : </text>
<text text-anchor="start" x="1046" y="-139.8" font-family="mono" font-size="14.00" fill="#c83500">string</text>
<text text-anchor="start" x="1096" y="-139.8" font-family="Times,serif" font-size="14.00"> = header </text>
<text text-anchor="start" x="1152" y="-139.8" font-family="Times,serif" font-style="italic" font-size="14.00">(mandatory)</text>
</g>
<!-- PoPSecurityScheme&#45;&gt;SecurityScheme -->
<g id="edge9" class="edge"><title>PoPSecurityScheme&#45;&gt;SecurityScheme</title>
<path fill="none" stroke="black" d="M1177.23,-127.811C1184.51,-118.592 1191.9,-109.218 1198.96,-100.278"/>
<polygon fill="white" stroke="black" points="1201.88,-102.224 1205.33,-92.2056 1196.39,-97.8877 1201.88,-102.224"/>
</g>
<!-- PublicSecurityScheme -->
<g id="node7" class="node">
<title>PublicSecurityScheme</title>
<polygon fill="#8ccbf2" stroke="transparent" points="1070,-195 1070,-216 1242,-216 1242,-195 1070,-195"/>
<polygon fill="none" stroke="#8ccbf2" points="1070,-195 1070,-216 1242,-216 1242,-195 1070,-195"/>
<text text-anchor="start" x="1073" y="-202.8" font-family="mono" font-weight="bold" font-size="14.00" fill="#c83500">PublicSecurityScheme</text>
<polygon fill="#ddeeff" stroke="transparent" points="1070,-174 1070,-195 1242,-195 1242,-174 1070,-174"/>
<polygon fill="none" stroke="#8ccbf2" points="1070,-174 1070,-195 1242,-195 1242,-174 1070,-174"/>
<text text-anchor="start" x="1073" y="-181.8" font-family="mono" font-size="14.00" fill="#c83500">identity</text>
<text text-anchor="start" x="1140" y="-181.8" font-family="Times,serif" font-size="14.00" fill="#000000"> : </text>
<text text-anchor="start" x="1152" y="-181.8" font-family="mono" font-size="14.00" fill="#c83500">string</text>
</g>
<!-- PublicSecurityScheme&#45;&gt;SecurityScheme -->
<g id="edge5" class="edge"><title>PublicSecurityScheme&#45;&gt;SecurityScheme</title>
<path fill="none" stroke="black" d="M1337.84,-169.726C1322.93,-150.824 1301.67,-123.882 1282.87,-100.055"/>
<polygon fill="white" stroke="black" points="1285.54,-97.7922 1276.6,-92.1101 1280.04,-102.128 1285.54,-97.7922"/>
</g>
<!-- DigestSecurityScheme -->
<g id="node8" class="node"><title>DigestSecurityScheme</title>
<polygon fill="#8ccbf2" stroke="none" points="1478,-216 1478,-237 1687,-237 1687,-216 1478,-216"/>
<polygon fill="none" stroke="#8ccbf2" points="1478,-216 1478,-237 1687,-237 1687,-216 1478,-216"/>
<text text-anchor="start" x="1499.5" y="-223.8" font-family="mono" font-weight="bold" font-size="14.00" fill="#c83500">DigestSecurityScheme</text>
<polygon fill="#ddeeff" stroke="none" points="1478,-195 1478,-216 1687,-216 1687,-195 1478,-195"/>
<polygon fill="none" stroke="#8ccbf2" points="1478,-195 1478,-216 1687,-216 1687,-195 1478,-195"/>
<text text-anchor="start" x="1481" y="-202.8" font-family="mono" font-size="14.00" fill="#c83500">qop</text>
<text text-anchor="start" x="1506" y="-202.8" font-family="Times,serif" font-size="14.00"> : </text>
<text text-anchor="start" x="1518" y="-202.8" font-family="mono" font-size="14.00" fill="#c83500">string</text>
<text text-anchor="start" x="1568" y="-202.8" font-family="Times,serif" font-size="14.00"> = auth </text>
<text text-anchor="start" x="1611" y="-202.8" font-family="Times,serif" font-style="italic" font-size="14.00">(mandatory)</text>
<polygon fill="#ddeeff" stroke="none" points="1478,-174 1478,-195 1687,-195 1687,-174 1478,-174"/>
<polygon fill="none" stroke="#8ccbf2" points="1478,-174 1478,-195 1687,-195 1687,-174 1478,-174"/>
<text text-anchor="start" x="1481" y="-181.8" font-family="mono" font-size="14.00" fill="#c83500">name</text>
<text text-anchor="start" x="1515" y="-181.8" font-family="Times,serif" font-size="14.00"> : </text>
<text text-anchor="start" x="1527" y="-181.8" font-family="mono" font-size="14.00" fill="#c83500">string</text>
<polygon fill="#ddeeff" stroke="none" points="1478,-153 1478,-174 1687,-174 1687,-153 1478,-153"/>
<polygon fill="none" stroke="#8ccbf2" points="1478,-153 1478,-174 1687,-174 1687,-153 1478,-153"/>
<text text-anchor="start" x="1481" y="-160.8" font-family="mono" font-size="14.00" fill="#c83500">in</text>
<text text-anchor="start" x="1498" y="-160.8" font-family="Times,serif" font-size="14.00"> : </text>
<text text-anchor="start" x="1510" y="-160.8" font-family="mono" font-size="14.00" fill="#c83500">string</text>
<text text-anchor="start" x="1560" y="-160.8" font-family="Times,serif" font-size="14.00"> = header </text>
<text text-anchor="start" x="1616" y="-160.8" font-family="Times,serif" font-style="italic" font-size="14.00">(mandatory)</text>
</g>
<!-- DigestSecurityScheme&#45;&gt;SecurityScheme -->
<g id="edge9" class="edge">
<title>DigestSecurityScheme&#45;&gt;SecurityScheme</title>
<path fill="none" stroke="#000000" d="M1295.5958,-148.9784C1283.6616,-141.5295 1271.1494,-134.228 1259,-128 1227.8848,-112.0498 1192.9125,-97.2823 1160.5221,-84.8017"/>
<polygon fill="#ffffff" stroke="#000000" points="1161.6025,-81.4679 1151.0117,-81.1737 1159.1074,-88.0082 1161.6025,-81.4679"/>
</g>
<!-- NoSecurityScheme -->
<g id="node9" class="node">
<title>NoSecurityScheme</title>
<polygon fill="#8ccbf2" stroke="transparent" points="1483,-184 1483,-205 1622,-205 1622,-184 1483,-184"/>
<polygon fill="none" stroke="#8ccbf2" points="1483,-184 1483,-205 1622,-205 1622,-184 1483,-184"/>
<text text-anchor="start" x="1486" y="-191.8" font-family="mono" font-weight="bold" font-size="14.00" fill="#c83500">NoSecurityScheme</text>
</g>
<!-- NoSecurityScheme&#45;&gt;SecurityScheme -->
<g id="edge7" class="edge">
<title>NoSecurityScheme&#45;&gt;SecurityScheme</title>
<path fill="none" stroke="#000000" d="M1533.6606,-176.7298C1517.1185,-161.3323 1491.397,-139.9535 1465,-128 1368.0215,-84.0848 1247.8933,-63.6239 1161.5178,-54.129"/>
<polygon fill="#ffffff" stroke="#000000" points="1161.7351,-50.6324 1151.4202,-53.052 1160.9926,-57.5929 1161.7351,-50.6324"/>
</g>
<!-- PSKSecurityScheme -->
<g id="node10" class="node">
<title>PSKSecurityScheme</title>
<polygon fill="#8ccbf2" stroke="transparent" points="1656,-195 1656,-216 1803,-216 1803,-195 1656,-195"/>
<polygon fill="none" stroke="#8ccbf2" points="1656,-195 1656,-216 1803,-216 1803,-195 1656,-195"/>
<text text-anchor="start" x="1659" y="-202.8" font-family="mono" font-weight="bold" font-size="14.00" fill="#c83500">PSKSecurityScheme</text>
<polygon fill="#ddeeff" stroke="transparent" points="1656,-174 1656,-195 1803,-195 1803,-174 1656,-174"/>
<polygon fill="none" stroke="#8ccbf2" points="1656,-174 1656,-195 1803,-195 1803,-174 1656,-174"/>
<text text-anchor="start" x="1659" y="-181.8" font-family="mono" font-size="14.00" fill="#c83500">identity</text>
<text text-anchor="start" x="1726" y="-181.8" font-family="Times,serif" font-size="14.00" fill="#000000"> : </text>
<text text-anchor="start" x="1738" y="-181.8" font-family="mono" font-size="14.00" fill="#c83500">string</text>
</g>
<!-- PSKSecurityScheme&#45;&gt;SecurityScheme -->
<g id="edge4" class="edge"><title>PSKSecurityScheme&#45;&gt;SecurityScheme</title>
<path fill="none" stroke="black" d="M1941.59,-169.876C1924.64,-155.256 1901.11,-137.624 1877,-128 1784.57,-91.1114 1510.94,-66.2349 1354.35,-54.5885"/>
<polygon fill="white" stroke="black" points="1354.44,-51.0856 1344.21,-53.8405 1353.93,-58.0667 1354.44,-51.0856"/>
</g>
<!-- CertSecurityScheme -->
<g id="node11" class="node">
<title>CertSecurityScheme</title>
<polygon fill="#8ccbf2" stroke="transparent" points="1837,-195 1837,-216 1992,-216 1992,-195 1837,-195"/>
<polygon fill="none" stroke="#8ccbf2" points="1837,-195 1837,-216 1992,-216 1992,-195 1837,-195"/>
<text text-anchor="start" x="1840" y="-202.8" font-family="mono" font-weight="bold" font-size="14.00" fill="#c83500">CertSecurityScheme</text>
<polygon fill="#ddeeff" stroke="transparent" points="1837,-174 1837,-195 1992,-195 1992,-174 1837,-174"/>
<polygon fill="none" stroke="#8ccbf2" points="1837,-174 1837,-195 1992,-195 1992,-174 1837,-174"/>
<text text-anchor="start" x="1840" y="-181.8" font-family="mono" font-size="14.00" fill="#c83500">identity</text>
<text text-anchor="start" x="1907" y="-181.8" font-family="Times,serif" font-size="14.00" fill="#000000"> : </text>
<text text-anchor="start" x="1919" y="-181.8" font-family="mono" font-size="14.00" fill="#c83500">string</text>
</g>
<!-- CertSecurityScheme&#45;&gt;SecurityScheme -->
<g id="edge8" class="edge">
<title>CertSecurityScheme&#45;&gt;SecurityScheme</title>
<path fill="none" stroke="#000000" d="M1886.6117,-169.6731C1868.9529,-154.9016 1844.7342,-137.3816 1820,-128 1702.3655,-83.3817 1345.7396,-60.2309 1161.2554,-50.9657"/>
<polygon fill="#ffffff" stroke="#000000" points="1161.4113,-47.4692 1151.2499,-50.4683 1161.0637,-54.4606 1161.4113,-47.4692"/>
</g>
</g>
</svg>
