<?xml version="1.0" encoding="UTF-8" standalone="no"?>
<!DOCTYPE svg PUBLIC "-//W3C//DTD SVG 1.1//EN"
 "http://www.w3.org/Graphics/SVG/1.1/DTD/svg11.dtd">
<!-- Generated by graphviz version 2.40.1 (20161225.0304)
 -->
<!-- Title: %3 Pages: 1 -->
<svg width="2246pt" height="270pt"
 viewBox="0.00 0.00 2245.50 270.00" xmlns="http://www.w3.org/2000/svg" xmlns:xlink="http://www.w3.org/1999/xlink">
<g id="graph0" class="graph" transform="scale(1 1) rotate(0) translate(4 266)">
<title>%3</title>
<polygon fill="#ffffff" stroke="transparent" points="-4,4 -4,-266 2241.5,-266 2241.5,4 -4,4"/>
<!-- APIKeySecurityScheme -->
<g id="node1" class="node">
<title>APIKeySecurityScheme</title>
<polygon fill="#8ccbf2" stroke="transparent" points="8,-205 8,-226 212,-226 212,-205 8,-205"/>
<polygon fill="none" stroke="#8ccbf2" points="8,-205 8,-226 212,-226 212,-205 8,-205"/>
<text text-anchor="start" x="27" y="-212.8" font-family="mono" font-weight="bold" font-size="14.00" fill="#c83500">APIKeySecurityScheme</text>
<polygon fill="#ddeeff" stroke="transparent" points="8,-184 8,-205 212,-205 212,-184 8,-184"/>
<polygon fill="none" stroke="#8ccbf2" points="8,-184 8,-205 212,-205 212,-184 8,-184"/>
<text text-anchor="start" x="11" y="-191.8" font-family="mono" font-size="14.00" fill="#c83500">in</text>
<text text-anchor="start" x="28" y="-191.8" font-family="Times,serif" font-size="14.00" fill="#000000"> : </text>
<text text-anchor="start" x="40" y="-191.8" font-family="mono" font-size="14.00" fill="#c83500">string</text>
<text text-anchor="start" x="90" y="-191.8" font-family="Times,serif" font-size="14.00" fill="#000000"> = query </text>
<text text-anchor="start" x="141" y="-191.8" font-family="Times,serif" font-style="italic" font-size="14.00" fill="#000000">(mandatory)</text>
<polygon fill="#ddeeff" stroke="transparent" points="8,-163 8,-184 212,-184 212,-163 8,-163"/>
<polygon fill="none" stroke="#8ccbf2" points="8,-163 8,-184 212,-184 212,-163 8,-163"/>
<text text-anchor="start" x="11" y="-170.8" font-family="mono" font-size="14.00" fill="#c83500">name</text>
<text text-anchor="start" x="45" y="-170.8" font-family="Times,serif" font-size="14.00" fill="#000000"> : </text>
<text text-anchor="start" x="57" y="-170.8" font-family="mono" font-size="14.00" fill="#c83500">string</text>
</g>
<!-- SecurityScheme -->
<g id="node3" class="node">
<title>SecurityScheme</title>
<polygon fill="#8ccbf2" stroke="transparent" points="1146,-67 1146,-88 1336,-88 1336,-67 1146,-67"/>
<polygon fill="none" stroke="#8ccbf2" points="1146,-67 1146,-88 1336,-88 1336,-67 1146,-67"/>
<text text-anchor="start" x="1183" y="-74.8" font-family="mono" font-weight="bold" font-size="14.00" fill="#c83500">SecurityScheme</text>
<polygon fill="#ddeeff" stroke="transparent" points="1146,-46 1146,-67 1336,-67 1336,-46 1146,-46"/>
<polygon fill="none" stroke="#8ccbf2" points="1146,-46 1146,-67 1336,-67 1336,-46 1146,-46"/>
<text text-anchor="start" x="1149" y="-53.8" font-family="mono" font-size="14.00" fill="#c83500">description</text>
<text text-anchor="start" x="1240" y="-53.8" font-family="Times,serif" font-size="14.00" fill="#000000"> : </text>
<text text-anchor="start" x="1252" y="-53.8" font-family="mono" font-size="14.00" fill="#c83500">string</text>
<polygon fill="#ddeeff" stroke="transparent" points="1146,-25 1146,-46 1336,-46 1336,-25 1146,-25"/>
<polygon fill="none" stroke="#8ccbf2" points="1146,-25 1146,-46 1336,-46 1336,-25 1146,-25"/>
<text text-anchor="start" x="1149" y="-32.8" font-family="mono" font-size="14.00" fill="#c83500">proxy</text>
<text text-anchor="start" x="1191" y="-32.8" font-family="Times,serif" font-size="14.00" fill="#000000"> : </text>
<text text-anchor="start" x="1203" y="-32.8" font-family="mono" font-size="14.00" fill="#c83500">anyURI</text>
<polygon fill="#ddeeff" stroke="transparent" points="1146,-4 1146,-25 1336,-25 1336,-4 1146,-4"/>
<polygon fill="none" stroke="#8ccbf2" points="1146,-4 1146,-25 1336,-25 1336,-4 1146,-4"/>
<text text-anchor="start" x="1149" y="-11.8" font-family="mono" font-size="14.00" fill="#c83500">scheme</text>
<text text-anchor="start" x="1199" y="-11.8" font-family="Times,serif" font-size="14.00" fill="#000000"> : </text>
<text text-anchor="start" x="1211" y="-11.8" font-family="mono" font-size="14.00" fill="#c83500">string</text>
<text text-anchor="start" x="1261" y="-11.8" font-family="Times,serif" font-size="14.00" fill="#000000"> </text>
<text text-anchor="start" x="1265" y="-11.8" font-family="Times,serif" font-style="italic" font-size="14.00" fill="#000000">(mandatory)</text>
</g>
<!-- APIKeySecurityScheme&#45;&gt;SecurityScheme -->
<g id="edge7" class="edge">
<title>APIKeySecurityScheme&#45;&gt;SecurityScheme</title>
<path fill="none" stroke="#000000" d="M161.6858,-159.4641C181.8226,-147.3835 205.6474,-135.1425 229,-128 394.1807,-77.4787 899.5861,-56.2524 1127.4658,-49.0769"/>
<polygon fill="#ffffff" stroke="#000000" points="1127.8878,-52.5656 1137.774,-48.756 1127.6699,-45.569 1127.8878,-52.5656"/>
</g>
<!-- OAuth2SecurityScheme -->
<g id="node2" class="node">
<title>OAuth2SecurityScheme</title>
<polygon fill="#8ccbf2" stroke="transparent" points="247,-237 247,-258 480,-258 480,-237 247,-237"/>
<polygon fill="none" stroke="#8ccbf2" points="247,-237 247,-258 480,-258 480,-237 247,-237"/>
<text text-anchor="start" x="280.5" y="-244.8" font-family="mono" font-weight="bold" font-size="14.00" fill="#c83500">OAuth2SecurityScheme</text>
<polygon fill="#ddeeff" stroke="transparent" points="247,-216 247,-237 480,-237 480,-216 247,-216"/>
<polygon fill="none" stroke="#8ccbf2" points="247,-216 247,-237 480,-237 480,-216 247,-216"/>
<text text-anchor="start" x="250" y="-223.8" font-family="mono" font-size="14.00" fill="#c83500">refresh</text>
<text text-anchor="start" x="308" y="-223.8" font-family="Times,serif" font-size="14.00" fill="#000000"> : </text>
<text text-anchor="start" x="320" y="-223.8" font-family="mono" font-size="14.00" fill="#c83500">anyURI</text>
<polygon fill="#ddeeff" stroke="transparent" points="247,-195 247,-216 480,-216 480,-195 247,-195"/>
<polygon fill="none" stroke="#8ccbf2" points="247,-195 247,-216 480,-216 480,-195 247,-195"/>
<text text-anchor="start" x="250" y="-202.8" font-family="mono" font-size="14.00" fill="#c83500">token</text>
<text text-anchor="start" x="292" y="-202.8" font-family="Times,serif" font-size="14.00" fill="#000000"> : </text>
<text text-anchor="start" x="304" y="-202.8" font-family="mono" font-size="14.00" fill="#c83500">anyURI</text>
<polygon fill="#ddeeff" stroke="transparent" points="247,-174 247,-195 480,-195 480,-174 247,-174"/>
<polygon fill="none" stroke="#8ccbf2" points="247,-174 247,-195 480,-195 480,-174 247,-174"/>
<text text-anchor="start" x="250" y="-181.8" font-family="mono" font-size="14.00" fill="#c83500">authorization</text>
<text text-anchor="start" x="358" y="-181.8" font-family="Times,serif" font-size="14.00" fill="#000000"> : </text>
<text text-anchor="start" x="370" y="-181.8" font-family="mono" font-size="14.00" fill="#c83500">anyURI</text>
<polygon fill="#ddeeff" stroke="transparent" points="247,-153 247,-174 480,-174 480,-153 247,-153"/>
<polygon fill="none" stroke="#8ccbf2" points="247,-153 247,-174 480,-174 480,-153 247,-153"/>
<text text-anchor="start" x="250" y="-160.8" font-family="mono" font-size="14.00" fill="#c83500">flow</text>
<text text-anchor="start" x="284" y="-160.8" font-family="Times,serif" font-size="14.00" fill="#000000"> : </text>
<text text-anchor="start" x="296" y="-160.8" font-family="mono" font-size="14.00" fill="#c83500">string</text>
<text text-anchor="start" x="346" y="-160.8" font-family="Times,serif" font-size="14.00" fill="#000000"> = implicit </text>
<text text-anchor="start" x="409" y="-160.8" font-family="Times,serif" font-style="italic" font-size="14.00" fill="#000000">(mandatory)</text>
<polygon fill="#ddeeff" stroke="transparent" points="247,-132 247,-153 480,-153 480,-132 247,-132"/>
<polygon fill="none" stroke="#8ccbf2" points="247,-132 247,-153 480,-153 480,-132 247,-132"/>
<text text-anchor="start" x="250" y="-139.8" font-family="mono" font-size="14.00" fill="#c83500">scopes</text>
<text text-anchor="start" x="300" y="-139.8" font-family="Times,serif" font-size="14.00" fill="#000000"> : array of </text>
<text text-anchor="start" x="358" y="-139.8" font-family="mono" font-size="14.00" fill="#c83500">string</text>
</g>
<!-- OAuth2SecurityScheme&#45;&gt;SecurityScheme -->
<g id="edge2" class="edge">
<title>OAuth2SecurityScheme&#45;&gt;SecurityScheme</title>
<path fill="none" stroke="#000000" d="M487.792,-130.5811C490.5352,-129.6706 493.2732,-128.8082 496,-128 611.4209,-93.7908 949.1945,-66.1951 1127.5963,-53.5241"/>
<polygon fill="#ffffff" stroke="#000000" points="1128.0746,-56.9992 1137.8031,-52.8031 1127.5813,-50.0166 1128.0746,-56.9992"/>
</g>
<!-- BearerSecurityScheme -->
<g id="node4" class="node">
<title>BearerSecurityScheme</title>
<polygon fill="#8ccbf2" stroke="transparent" points="514,-237 514,-258 737,-258 737,-237 514,-237"/>
<polygon fill="none" stroke="#8ccbf2" points="514,-237 514,-258 737,-258 737,-237 514,-237"/>
<text text-anchor="start" x="542.5" y="-244.8" font-family="mono" font-weight="bold" font-size="14.00" fill="#c83500">BearerSecurityScheme</text>
<polygon fill="#ddeeff" stroke="transparent" points="514,-216 514,-237 737,-237 737,-216 514,-216"/>
<polygon fill="none" stroke="#8ccbf2" points="514,-216 514,-237 737,-237 737,-216 514,-216"/>
<text text-anchor="start" x="517" y="-223.8" font-family="mono" font-size="14.00" fill="#c83500">format</text>
<text text-anchor="start" x="567" y="-223.8" font-family="Times,serif" font-size="14.00" fill="#000000"> : </text>
<text text-anchor="start" x="579" y="-223.8" font-family="mono" font-size="14.00" fill="#c83500">string</text>
<text text-anchor="start" x="629" y="-223.8" font-family="Times,serif" font-size="14.00" fill="#000000"> = jwt </text>
<text text-anchor="start" x="666" y="-223.8" font-family="Times,serif" font-style="italic" font-size="14.00" fill="#000000">(mandatory)</text>
<polygon fill="#ddeeff" stroke="transparent" points="514,-195 514,-216 737,-216 737,-195 514,-195"/>
<polygon fill="none" stroke="#8ccbf2" points="514,-195 514,-216 737,-216 737,-195 514,-195"/>
<text text-anchor="start" x="517" y="-202.8" font-family="mono" font-size="14.00" fill="#c83500">alg</text>
<text text-anchor="start" x="542" y="-202.8" font-family="Times,serif" font-size="14.00" fill="#000000"> : </text>
<text text-anchor="start" x="554" y="-202.8" font-family="mono" font-size="14.00" fill="#c83500">string</text>
<text text-anchor="start" x="604" y="-202.8" font-family="Times,serif" font-size="14.00" fill="#000000"> = ES256 </text>
<text text-anchor="start" x="660" y="-202.8" font-family="Times,serif" font-style="italic" font-size="14.00" fill="#000000">(mandatory)</text>
<polygon fill="#ddeeff" stroke="transparent" points="514,-174 514,-195 737,-195 737,-174 514,-174"/>
<polygon fill="none" stroke="#8ccbf2" points="514,-174 514,-195 737,-195 737,-174 514,-174"/>
<text text-anchor="start" x="517" y="-181.8" font-family="mono" font-size="14.00" fill="#c83500">name</text>
<text text-anchor="start" x="551" y="-181.8" font-family="Times,serif" font-size="14.00" fill="#000000"> : </text>
<text text-anchor="start" x="563" y="-181.8" font-family="mono" font-size="14.00" fill="#c83500">string</text>
<polygon fill="#ddeeff" stroke="transparent" points="514,-153 514,-174 737,-174 737,-153 514,-153"/>
<polygon fill="none" stroke="#8ccbf2" points="514,-153 514,-174 737,-174 737,-153 514,-153"/>
<text text-anchor="start" x="517" y="-160.8" font-family="mono" font-size="14.00" fill="#c83500">in</text>
<text text-anchor="start" x="534" y="-160.8" font-family="Times,serif" font-size="14.00" fill="#000000"> : </text>
<text text-anchor="start" x="546" y="-160.8" font-family="mono" font-size="14.00" fill="#c83500">string</text>
<text text-anchor="start" x="596" y="-160.8" font-family="Times,serif" font-size="14.00" fill="#000000"> = header </text>
<text text-anchor="start" x="652" y="-160.8" font-family="Times,serif" font-style="italic" font-size="14.00" fill="#000000">(mandatory)</text>
<polygon fill="#ddeeff" stroke="transparent" points="514,-132 514,-153 737,-153 737,-132 514,-132"/>
<polygon fill="none" stroke="#8ccbf2" points="514,-132 514,-153 737,-153 737,-132 514,-132"/>
<text text-anchor="start" x="517" y="-139.8" font-family="mono" font-size="14.00" fill="#c83500">authorization</text>
<text text-anchor="start" x="625" y="-139.8" font-family="Times,serif" font-size="14.00" fill="#000000"> : </text>
<text text-anchor="start" x="637" y="-139.8" font-family="mono" font-size="14.00" fill="#c83500">anyURI</text>
</g>
<!-- BearerSecurityScheme&#45;&gt;SecurityScheme -->
<g id="edge9" class="edge">
<title>BearerSecurityScheme&#45;&gt;SecurityScheme</title>
<path fill="none" stroke="#000000" d="M744.7664,-130.909C747.5192,-129.8911 750.2659,-128.9193 753,-128 877.3882,-86.1778 1027.0827,-65.0701 1127.5954,-54.847"/>
<polygon fill="#ffffff" stroke="#000000" points="1128.1709,-58.3071 1137.7742,-53.8318 1127.4762,-51.3416 1128.1709,-58.3071"/>
</g>
<!-- BasicSecurityScheme -->
<g id="node5" class="node">
<title>BasicSecurityScheme</title>
<polygon fill="#8ccbf2" stroke="transparent" points="771,-205 771,-226 980,-226 980,-205 771,-205"/>
<polygon fill="none" stroke="#8ccbf2" points="771,-205 771,-226 980,-226 980,-205 771,-205"/>
<text text-anchor="start" x="797" y="-212.8" font-family="mono" font-weight="bold" font-size="14.00" fill="#c83500">BasicSecurityScheme</text>
<polygon fill="#ddeeff" stroke="transparent" points="771,-184 771,-205 980,-205 980,-184 771,-184"/>
<polygon fill="none" stroke="#8ccbf2" points="771,-184 771,-205 980,-205 980,-184 771,-184"/>
<text text-anchor="start" x="774" y="-191.8" font-family="mono" font-size="14.00" fill="#c83500">name</text>
<text text-anchor="start" x="808" y="-191.8" font-family="Times,serif" font-size="14.00" fill="#000000"> : </text>
<text text-anchor="start" x="820" y="-191.8" font-family="mono" font-size="14.00" fill="#c83500">string</text>
<polygon fill="#ddeeff" stroke="transparent" points="771,-163 771,-184 980,-184 980,-163 771,-163"/>
<polygon fill="none" stroke="#8ccbf2" points="771,-163 771,-184 980,-184 980,-163 771,-163"/>
<text text-anchor="start" x="774" y="-170.8" font-family="mono" font-size="14.00" fill="#c83500">in</text>
<text text-anchor="start" x="791" y="-170.8" font-family="Times,serif" font-size="14.00" fill="#000000"> : </text>
<text text-anchor="start" x="803" y="-170.8" font-family="mono" font-size="14.00" fill="#c83500">string</text>
<text text-anchor="start" x="853" y="-170.8" font-family="Times,serif" font-size="14.00" fill="#000000"> = header </text>
<text text-anchor="start" x="909" y="-170.8" font-family="Times,serif" font-style="italic" font-size="14.00" fill="#000000">(mandatory)</text>
</g>
<!-- BasicSecurityScheme&#45;&gt;SecurityScheme -->
<g id="edge10" class="edge">
<title>BasicSecurityScheme&#45;&gt;SecurityScheme</title>
<path fill="none" stroke="#000000" d="M934.2165,-159.3829C953.536,-148.534 975.3383,-137.0869 996,-128 1038.1862,-109.4467 1085.9751,-92.5774 1128.0737,-79.0289"/>
<polygon fill="#ffffff" stroke="#000000" points="1129.34,-82.2987 1137.8025,-75.924 1127.2118,-75.6301 1129.34,-82.2987"/>
</g>
<!-- PoPSecurityScheme -->
<g id="node6" class="node">
<title>PoPSecurityScheme</title>
<polygon fill="#8ccbf2" stroke="transparent" points="1014,-237 1014,-258 1237,-258 1237,-237 1014,-237"/>
<polygon fill="none" stroke="#8ccbf2" points="1014,-237 1014,-258 1237,-258 1237,-237 1014,-237"/>
<text text-anchor="start" x="1055" y="-244.8" font-family="mono" font-weight="bold" font-size="14.00" fill="#c83500">PoPSecurityScheme</text>
<polygon fill="#ddeeff" stroke="transparent" points="1014,-216 1014,-237 1237,-237 1237,-216 1014,-216"/>
<polygon fill="none" stroke="#8ccbf2" points="1014,-216 1014,-237 1237,-237 1237,-216 1014,-216"/>
<text text-anchor="start" x="1017" y="-223.8" font-family="mono" font-size="14.00" fill="#c83500">alg</text>
<text text-anchor="start" x="1042" y="-223.8" font-family="Times,serif" font-size="14.00" fill="#000000"> : </text>
<text text-anchor="start" x="1054" y="-223.8" font-family="mono" font-size="14.00" fill="#c83500">string</text>
<text text-anchor="start" x="1104" y="-223.8" font-family="Times,serif" font-size="14.00" fill="#000000"> = ES256 </text>
<text text-anchor="start" x="1160" y="-223.8" font-family="Times,serif" font-style="italic" font-size="14.00" fill="#000000">(mandatory)</text>
<polygon fill="#ddeeff" stroke="transparent" points="1014,-195 1014,-216 1237,-216 1237,-195 1014,-195"/>
<polygon fill="none" stroke="#8ccbf2" points="1014,-195 1014,-216 1237,-216 1237,-195 1014,-195"/>
<text text-anchor="start" x="1017" y="-202.8" font-family="mono" font-size="14.00" fill="#c83500">in</text>
<text text-anchor="start" x="1034" y="-202.8" font-family="Times,serif" font-size="14.00" fill="#000000"> : </text>
<text text-anchor="start" x="1046" y="-202.8" font-family="mono" font-size="14.00" fill="#c83500">string</text>
<text text-anchor="start" x="1096" y="-202.8" font-family="Times,serif" font-size="14.00" fill="#000000"> = header </text>
<text text-anchor="start" x="1152" y="-202.8" font-family="Times,serif" font-style="italic" font-size="14.00" fill="#000000">(mandatory)</text>
<polygon fill="#ddeeff" stroke="transparent" points="1014,-174 1014,-195 1237,-195 1237,-174 1014,-174"/>
<polygon fill="none" stroke="#8ccbf2" points="1014,-174 1014,-195 1237,-195 1237,-174 1014,-174"/>
<text text-anchor="start" x="1017" y="-181.8" font-family="mono" font-size="14.00" fill="#c83500">format</text>
<text text-anchor="start" x="1067" y="-181.8" font-family="Times,serif" font-size="14.00" fill="#000000"> : </text>
<text text-anchor="start" x="1079" y="-181.8" font-family="mono" font-size="14.00" fill="#c83500">string</text>
<text text-anchor="start" x="1129" y="-181.8" font-family="Times,serif" font-size="14.00" fill="#000000"> = jwt </text>
<text text-anchor="start" x="1166" y="-181.8" font-family="Times,serif" font-style="italic" font-size="14.00" fill="#000000">(mandatory)</text>
<polygon fill="#ddeeff" stroke="transparent" points="1014,-153 1014,-174 1237,-174 1237,-153 1014,-153"/>
<polygon fill="none" stroke="#8ccbf2" points="1014,-153 1014,-174 1237,-174 1237,-153 1014,-153"/>
<text text-anchor="start" x="1017" y="-160.8" font-family="mono" font-size="14.00" fill="#c83500">authorization</text>
<text text-anchor="start" x="1125" y="-160.8" font-family="Times,serif" font-size="14.00" fill="#000000"> : </text>
<text text-anchor="start" x="1137" y="-160.8" font-family="mono" font-size="14.00" fill="#c83500">anyURI</text>
<polygon fill="#ddeeff" stroke="transparent" points="1014,-132 1014,-153 1237,-153 1237,-132 1014,-132"/>
<polygon fill="none" stroke="#8ccbf2" points="1014,-132 1014,-153 1237,-153 1237,-132 1014,-132"/>
<text text-anchor="start" x="1017" y="-139.8" font-family="mono" font-size="14.00" fill="#c83500">name</text>
<text text-anchor="start" x="1051" y="-139.8" font-family="Times,serif" font-size="14.00" fill="#000000"> : </text>
<text text-anchor="start" x="1063" y="-139.8" font-family="mono" font-size="14.00" fill="#c83500">string</text>
</g>
<!-- PoPSecurityScheme&#45;&gt;SecurityScheme -->
<g id="edge1" class="edge">
<title>PoPSecurityScheme&#45;&gt;SecurityScheme</title>
<path fill="none" stroke="#000000" d="M1177.2311,-127.91C1184.4136,-118.6843 1191.7152,-109.3055 1198.6895,-100.347"/>
<polygon fill="#ffffff" stroke="#000000" points="1201.6084,-102.2953 1204.9897,-92.2546 1196.0849,-97.9952 1201.6084,-102.2953"/>
</g>
<!-- PublicSecurityScheme -->
<g id="node7" class="node">
<title>PublicSecurityScheme</title>
<polygon fill="#8ccbf2" stroke="transparent" points="1271,-195 1271,-216 1443,-216 1443,-195 1271,-195"/>
<polygon fill="none" stroke="#8ccbf2" points="1271,-195 1271,-216 1443,-216 1443,-195 1271,-195"/>
<text text-anchor="start" x="1274" y="-202.8" font-family="mono" font-weight="bold" font-size="14.00" fill="#c83500">PublicSecurityScheme</text>
<polygon fill="#ddeeff" stroke="transparent" points="1271,-174 1271,-195 1443,-195 1443,-174 1271,-174"/>
<polygon fill="none" stroke="#8ccbf2" points="1271,-174 1271,-195 1443,-195 1443,-174 1271,-174"/>
<text text-anchor="start" x="1274" y="-181.8" font-family="mono" font-size="14.00" fill="#c83500">identity</text>
<text text-anchor="start" x="1341" y="-181.8" font-family="Times,serif" font-size="14.00" fill="#000000"> : </text>
<text text-anchor="start" x="1353" y="-181.8" font-family="mono" font-size="14.00" fill="#c83500">string</text>
</g>
<!-- PublicSecurityScheme&#45;&gt;SecurityScheme -->
<g id="edge3" class="edge">
<title>PublicSecurityScheme&#45;&gt;SecurityScheme</title>
<path fill="none" stroke="#000000" d="M1337.3222,-169.7242C1322.5132,-150.7023 1301.6712,-123.9311 1283.1604,-100.1543"/>
<polygon fill="#ffffff" stroke="#000000" points="1285.8891,-97.9618 1276.9843,-92.2212 1280.3656,-102.2619 1285.8891,-97.9618"/>
</g>
<!-- DigestSecurityScheme -->
<g id="node8" class="node">
<title>DigestSecurityScheme</title>
<polygon fill="#8ccbf2" stroke="transparent" points="1478,-216 1478,-237 1687,-237 1687,-216 1478,-216"/>
<polygon fill="none" stroke="#8ccbf2" points="1478,-216 1478,-237 1687,-237 1687,-216 1478,-216"/>
<text text-anchor="start" x="1499.5" y="-223.8" font-family="mono" font-weight="bold" font-size="14.00" fill="#c83500">DigestSecurityScheme</text>
<polygon fill="#ddeeff" stroke="transparent" points="1478,-195 1478,-216 1687,-216 1687,-195 1478,-195"/>
<polygon fill="none" stroke="#8ccbf2" points="1478,-195 1478,-216 1687,-216 1687,-195 1478,-195"/>
<text text-anchor="start" x="1481" y="-202.8" font-family="mono" font-size="14.00" fill="#c83500">qop</text>
<text text-anchor="start" x="1506" y="-202.8" font-family="Times,serif" font-size="14.00" fill="#000000"> : </text>
<text text-anchor="start" x="1518" y="-202.8" font-family="mono" font-size="14.00" fill="#c83500">string</text>
<text text-anchor="start" x="1568" y="-202.8" font-family="Times,serif" font-size="14.00" fill="#000000"> = auth </text>
<text text-anchor="start" x="1611" y="-202.8" font-family="Times,serif" font-style="italic" font-size="14.00" fill="#000000">(mandatory)</text>
<polygon fill="#ddeeff" stroke="transparent" points="1478,-174 1478,-195 1687,-195 1687,-174 1478,-174"/>
<polygon fill="none" stroke="#8ccbf2" points="1478,-174 1478,-195 1687,-195 1687,-174 1478,-174"/>
<text text-anchor="start" x="1481" y="-181.8" font-family="mono" font-size="14.00" fill="#c83500">in</text>
<text text-anchor="start" x="1498" y="-181.8" font-family="Times,serif" font-size="14.00" fill="#000000"> : </text>
<text text-anchor="start" x="1510" y="-181.8" font-family="mono" font-size="14.00" fill="#c83500">string</text>
<text text-anchor="start" x="1560" y="-181.8" font-family="Times,serif" font-size="14.00" fill="#000000"> = header </text>
<text text-anchor="start" x="1616" y="-181.8" font-family="Times,serif" font-style="italic" font-size="14.00" fill="#000000">(mandatory)</text>
<polygon fill="#ddeeff" stroke="transparent" points="1478,-153 1478,-174 1687,-174 1687,-153 1478,-153"/>
<polygon fill="none" stroke="#8ccbf2" points="1478,-153 1478,-174 1687,-174 1687,-153 1478,-153"/>
<text text-anchor="start" x="1481" y="-160.8" font-family="mono" font-size="14.00" fill="#c83500">name</text>
<text text-anchor="start" x="1515" y="-160.8" font-family="Times,serif" font-size="14.00" fill="#000000"> : </text>
<text text-anchor="start" x="1527" y="-160.8" font-family="mono" font-size="14.00" fill="#c83500">string</text>
</g>
<!-- DigestSecurityScheme&#45;&gt;SecurityScheme -->
<g id="edge5" class="edge">
<title>DigestSecurityScheme&#45;&gt;SecurityScheme</title>
<path fill="none" stroke="#000000" d="M1501.7912,-148.8272C1488.0222,-141.5162 1473.7264,-134.2992 1460,-128 1426.1037,-112.4445 1388.3342,-97.494 1353.8359,-84.7174"/>
<polygon fill="#ffffff" stroke="#000000" points="1354.7919,-81.3398 1344.1984,-81.1727 1352.3755,-87.9095 1354.7919,-81.3398"/>
</g>
<!-- NoSecurityScheme -->
<g id="node9" class="node">
<title>NoSecurityScheme</title>
<polygon fill="#8ccbf2" stroke="transparent" points="1721,-184 1721,-205 1860,-205 1860,-184 1721,-184"/>
<polygon fill="none" stroke="#8ccbf2" points="1721,-184 1721,-205 1860,-205 1860,-184 1721,-184"/>
<text text-anchor="start" x="1724" y="-191.8" font-family="mono" font-weight="bold" font-size="14.00" fill="#c83500">NoSecurityScheme</text>
</g>
<!-- NoSecurityScheme&#45;&gt;SecurityScheme -->
<g id="edge8" class="edge">
<title>NoSecurityScheme&#45;&gt;SecurityScheme</title>
<path fill="none" stroke="#000000" d="M1772.2866,-176.9057C1756.0091,-161.4031 1730.4581,-139.77 1704,-128 1642.8959,-100.8175 1470.3428,-74.8395 1354.0348,-59.6594"/>
<polygon fill="#ffffff" stroke="#000000" points="1354.3798,-56.1749 1344.0127,-58.3599 1353.4796,-63.1168 1354.3798,-56.1749"/>
</g>
<!-- PSKSecurityScheme -->
<g id="node10" class="node">
<title>PSKSecurityScheme</title>
<polygon fill="#8ccbf2" stroke="transparent" points="1894,-195 1894,-216 2041,-216 2041,-195 1894,-195"/>
<polygon fill="none" stroke="#8ccbf2" points="1894,-195 1894,-216 2041,-216 2041,-195 1894,-195"/>
<text text-anchor="start" x="1897" y="-202.8" font-family="mono" font-weight="bold" font-size="14.00" fill="#c83500">PSKSecurityScheme</text>
<polygon fill="#ddeeff" stroke="transparent" points="1894,-174 1894,-195 2041,-195 2041,-174 1894,-174"/>
<polygon fill="none" stroke="#8ccbf2" points="1894,-174 1894,-195 2041,-195 2041,-174 1894,-174"/>
<text text-anchor="start" x="1897" y="-181.8" font-family="mono" font-size="14.00" fill="#c83500">identity</text>
<text text-anchor="start" x="1964" y="-181.8" font-family="Times,serif" font-size="14.00" fill="#000000"> : </text>
<text text-anchor="start" x="1976" y="-181.8" font-family="mono" font-size="14.00" fill="#c83500">string</text>
</g>
<!-- PSKSecurityScheme&#45;&gt;SecurityScheme -->
<g id="edge6" class="edge">
<title>PSKSecurityScheme&#45;&gt;SecurityScheme</title>
<path fill="none" stroke="#000000" d="M1940.8882,-169.8513C1924.0226,-155.1468 1900.8393,-137.6347 1877,-128 1784.7095,-90.7007 1511.0218,-65.4993 1354.3923,-53.6943"/>
<polygon fill="#ffffff" stroke="#000000" points="1354.4809,-50.1913 1344.2478,-52.9362 1353.9591,-57.1718 1354.4809,-50.1913"/>
</g>
<!-- CertSecurityScheme -->
<g id="node11" class="node">
<title>CertSecurityScheme</title>
<polygon fill="#8ccbf2" stroke="transparent" points="2075,-195 2075,-216 2230,-216 2230,-195 2075,-195"/>
<polygon fill="none" stroke="#8ccbf2" points="2075,-195 2075,-216 2230,-216 2230,-195 2075,-195"/>
<text text-anchor="start" x="2078" y="-202.8" font-family="mono" font-weight="bold" font-size="14.00" fill="#c83500">CertSecurityScheme</text>
<polygon fill="#ddeeff" stroke="transparent" points="2075,-174 2075,-195 2230,-195 2230,-174 2075,-174"/>
<polygon fill="none" stroke="#8ccbf2" points="2075,-174 2075,-195 2230,-195 2230,-174 2075,-174"/>
<text text-anchor="start" x="2078" y="-181.8" font-family="mono" font-size="14.00" fill="#c83500">identity</text>
<text text-anchor="start" x="2145" y="-181.8" font-family="Times,serif" font-size="14.00" fill="#000000"> : </text>
<text text-anchor="start" x="2157" y="-181.8" font-family="mono" font-size="14.00" fill="#c83500">string</text>
</g>
<!-- CertSecurityScheme&#45;&gt;SecurityScheme -->
<g id="edge4" class="edge">
<title>CertSecurityScheme&#45;&gt;SecurityScheme</title>
<path fill="none" stroke="#000000" d="M2125.0308,-169.9583C2107.3461,-155.0982 2082.9488,-137.3805 2058,-128 1932.0741,-80.6533 1547.7118,-58.548 1354.4554,-50.2013"/>
<polygon fill="#ffffff" stroke="#000000" points="1354.4082,-46.6962 1344.268,-49.7664 1354.1096,-53.6898 1354.4082,-46.6962"/>
</g>
</g>
</svg>
