<?xml version="1.0" encoding="UTF-8" standalone="no"?>
<!DOCTYPE svg PUBLIC "-//W3C//DTD SVG 1.1//EN"
 "http://www.w3.org/Graphics/SVG/1.1/DTD/svg11.dtd">
<!-- Generated by graphviz version 2.38.0 (20140413.2041)
 -->
<!-- Title: %3 Pages: 1 -->
<svg width="2008pt" height="270pt"
 viewBox="0.00 0.00 2007.50 270.00" xmlns="http://www.w3.org/2000/svg" xmlns:xlink="http://www.w3.org/1999/xlink">
<g id="graph0" class="graph" transform="scale(1 1) rotate(0) translate(4 266)">
<title>%3</title>
<polygon fill="white" stroke="none" points="-4,4 -4,-266 2003.5,-266 2003.5,4 -4,4"/>
<!-- APIKeySecurityScheme -->
<g id="node1" class="node"><title>APIKeySecurityScheme</title>
<polygon fill="#8ccbf2" stroke="none" points="8,-205 8,-226 180,-226 180,-205 8,-205"/>
<polygon fill="none" stroke="#8ccbf2" points="8,-205 8,-226 180,-226 180,-205 8,-205"/>
<text text-anchor="start" x="11" y="-212.8" font-family="mono" font-weight="bold" font-size="14.00" fill="#c83500">APIKeySecurityScheme</text>
<polygon fill="#ddeeff" stroke="none" points="8,-184 8,-205 180,-205 180,-184 8,-184"/>
<polygon fill="none" stroke="#8ccbf2" points="8,-184 8,-205 180,-205 180,-184 8,-184"/>
<text text-anchor="start" x="11" y="-191.8" font-family="mono" font-size="14.00" fill="#c83500">in</text>
<text text-anchor="start" x="28" y="-191.8" font-family="Times,serif" font-size="14.00"> : </text>
<text text-anchor="start" x="40" y="-191.8" font-family="mono" font-size="14.00" fill="#c83500">string</text>
<text text-anchor="start" x="90" y="-191.8" font-family="Times,serif" font-size="14.00"> </text>
<text text-anchor="start" x="94" y="-191.8" font-family="Times,serif" font-style="italic" font-size="14.00">(mandatory)</text>
<polygon fill="#ddeeff" stroke="none" points="8,-163 8,-184 180,-184 180,-163 8,-163"/>
<polygon fill="none" stroke="#8ccbf2" points="8,-163 8,-184 180,-184 180,-163 8,-163"/>
<text text-anchor="start" x="11" y="-170.8" font-family="mono" font-size="14.00" fill="#c83500">name</text>
<text text-anchor="start" x="45" y="-170.8" font-family="Times,serif" font-size="14.00"> : </text>
<text text-anchor="start" x="57" y="-170.8" font-family="mono" font-size="14.00" fill="#c83500">string</text>
</g>
<!-- SecurityScheme -->
<g id="node3" class="node"><title>SecurityScheme</title>
<polygon fill="#8ccbf2" stroke="none" points="953,-67 953,-88 1143,-88 1143,-67 953,-67"/>
<polygon fill="none" stroke="#8ccbf2" points="953,-67 953,-88 1143,-88 1143,-67 953,-67"/>
<text text-anchor="start" x="990" y="-74.8" font-family="mono" font-weight="bold" font-size="14.00" fill="#c83500">SecurityScheme</text>
<polygon fill="#ddeeff" stroke="none" points="953,-46 953,-67 1143,-67 1143,-46 953,-46"/>
<polygon fill="none" stroke="#8ccbf2" points="953,-46 953,-67 1143,-67 1143,-46 953,-46"/>
<text text-anchor="start" x="956" y="-53.8" font-family="mono" font-size="14.00" fill="#c83500">scheme</text>
<text text-anchor="start" x="1006" y="-53.8" font-family="Times,serif" font-size="14.00"> : </text>
<text text-anchor="start" x="1018" y="-53.8" font-family="mono" font-size="14.00" fill="#c83500">string</text>
<text text-anchor="start" x="1068" y="-53.8" font-family="Times,serif" font-size="14.00"> </text>
<text text-anchor="start" x="1072" y="-53.8" font-family="Times,serif" font-style="italic" font-size="14.00">(mandatory)</text>
<polygon fill="#ddeeff" stroke="none" points="953,-25 953,-46 1143,-46 1143,-25 953,-25"/>
<polygon fill="none" stroke="#8ccbf2" points="953,-25 953,-46 1143,-46 1143,-25 953,-25"/>
<text text-anchor="start" x="956" y="-32.8" font-family="mono" font-size="14.00" fill="#c83500">proxy</text>
<text text-anchor="start" x="998" y="-32.8" font-family="Times,serif" font-size="14.00"> : </text>
<text text-anchor="start" x="1010" y="-32.8" font-family="mono" font-size="14.00" fill="#c83500">anyURI</text>
<polygon fill="#ddeeff" stroke="none" points="953,-4 953,-25 1143,-25 1143,-4 953,-4"/>
<polygon fill="none" stroke="#8ccbf2" points="953,-4 953,-25 1143,-25 1143,-4 953,-4"/>
<text text-anchor="start" x="956" y="-11.8" font-family="mono" font-size="14.00" fill="#c83500">description</text>
<text text-anchor="start" x="1047" y="-11.8" font-family="Times,serif" font-size="14.00"> : </text>
<text text-anchor="start" x="1059" y="-11.8" font-family="mono" font-size="14.00" fill="#c83500">string</text>
</g>
<!-- APIKeySecurityScheme&#45;&gt;SecurityScheme -->
<g id="edge1" class="edge"><title>APIKeySecurityScheme&#45;&gt;SecurityScheme</title>
<path fill="none" stroke="black" d="M137.733,-159.45C155.207,-147.451 176.121,-135.207 197,-128 330.409,-81.949 735.308,-59.6155 934.658,-51.1764"/>
<polygon fill="white" stroke="black" points="935.022,-54.6643 944.867,-50.7488 934.729,-47.6704 935.022,-54.6643"/>
</g>
<!-- OAuth2SecurityScheme -->
<g id="node2" class="node"><title>OAuth2SecurityScheme</title>
<polygon fill="#8ccbf2" stroke="none" points="214,-237 214,-258 390,-258 390,-237 214,-237"/>
<polygon fill="none" stroke="#8ccbf2" points="214,-237 214,-258 390,-258 390,-237 214,-237"/>
<text text-anchor="start" x="219" y="-244.8" font-family="mono" font-weight="bold" font-size="14.00" fill="#c83500">OAuth2SecurityScheme</text>
<polygon fill="#ddeeff" stroke="none" points="214,-216 214,-237 390,-237 390,-216 214,-216"/>
<polygon fill="none" stroke="#8ccbf2" points="214,-216 214,-237 390,-237 390,-216 214,-216"/>
<text text-anchor="start" x="217" y="-223.8" font-family="mono" font-size="14.00" fill="#c83500">refresh</text>
<text text-anchor="start" x="275" y="-223.8" font-family="Times,serif" font-size="14.00"> : </text>
<text text-anchor="start" x="287" y="-223.8" font-family="mono" font-size="14.00" fill="#c83500">anyURI</text>
<polygon fill="#ddeeff" stroke="none" points="214,-195 214,-216 390,-216 390,-195 214,-195"/>
<polygon fill="none" stroke="#8ccbf2" points="214,-195 214,-216 390,-216 390,-195 214,-195"/>
<text text-anchor="start" x="217" y="-202.8" font-family="mono" font-size="14.00" fill="#c83500">token</text>
<text text-anchor="start" x="259" y="-202.8" font-family="Times,serif" font-size="14.00"> : </text>
<text text-anchor="start" x="271" y="-202.8" font-family="mono" font-size="14.00" fill="#c83500">anyURI</text>
<polygon fill="#ddeeff" stroke="none" points="214,-174 214,-195 390,-195 390,-174 214,-174"/>
<polygon fill="none" stroke="#8ccbf2" points="214,-174 214,-195 390,-195 390,-174 214,-174"/>
<text text-anchor="start" x="217" y="-181.8" font-family="mono" font-size="14.00" fill="#c83500">authorization</text>
<text text-anchor="start" x="325" y="-181.8" font-family="Times,serif" font-size="14.00"> : </text>
<text text-anchor="start" x="337" y="-181.8" font-family="mono" font-size="14.00" fill="#c83500">anyURI</text>
<polygon fill="#ddeeff" stroke="none" points="214,-153 214,-174 390,-174 390,-153 214,-153"/>
<polygon fill="none" stroke="#8ccbf2" points="214,-153 214,-174 390,-174 390,-153 214,-153"/>
<text text-anchor="start" x="217" y="-160.8" font-family="mono" font-size="14.00" fill="#c83500">flow</text>
<text text-anchor="start" x="251" y="-160.8" font-family="Times,serif" font-size="14.00"> : </text>
<text text-anchor="start" x="263" y="-160.8" font-family="mono" font-size="14.00" fill="#c83500">string</text>
<text text-anchor="start" x="313" y="-160.8" font-family="Times,serif" font-size="14.00"> </text>
<text text-anchor="start" x="317" y="-160.8" font-family="Times,serif" font-style="italic" font-size="14.00">(mandatory)</text>
<polygon fill="#ddeeff" stroke="none" points="214,-132 214,-153 390,-153 390,-132 214,-132"/>
<polygon fill="none" stroke="#8ccbf2" points="214,-132 214,-153 390,-153 390,-132 214,-132"/>
<text text-anchor="start" x="217" y="-139.8" font-family="mono" font-size="14.00" fill="#c83500">scopes</text>
<text text-anchor="start" x="267" y="-139.8" font-family="Times,serif" font-size="14.00"> : array of </text>
<text text-anchor="start" x="325" y="-139.8" font-family="mono" font-size="14.00" fill="#c83500">string</text>
</g>
<!-- OAuth2SecurityScheme&#45;&gt;SecurityScheme -->
<g id="edge10" class="edge"><title>OAuth2SecurityScheme&#45;&gt;SecurityScheme</title>
<path fill="none" stroke="black" d="M398.179,-131.418C401.117,-130.195 404.06,-129.051 407,-128 584.053,-64.6855 804.082,-49.5582 934.887,-46.6588"/>
<polygon fill="white" stroke="black" points="934.999,-50.1574 944.926,-46.4565 934.858,-43.1588 934.999,-50.1574"/>
</g>
<!-- BearerSecurityScheme -->
<g id="node4" class="node"><title>BearerSecurityScheme</title>
<polygon fill="#8ccbf2" stroke="none" points="424,-237 424,-258 614,-258 614,-237 424,-237"/>
<polygon fill="none" stroke="#8ccbf2" points="424,-237 424,-258 614,-258 614,-237 424,-237"/>
<text text-anchor="start" x="436" y="-244.8" font-family="mono" font-weight="bold" font-size="14.00" fill="#c83500">BearerSecurityScheme</text>
<polygon fill="#ddeeff" stroke="none" points="424,-216 424,-237 614,-237 614,-216 424,-216"/>
<polygon fill="none" stroke="#8ccbf2" points="424,-216 424,-237 614,-237 614,-216 424,-216"/>
<text text-anchor="start" x="427" y="-223.8" font-family="mono" font-size="14.00" fill="#c83500">format</text>
<text text-anchor="start" x="477" y="-223.8" font-family="Times,serif" font-size="14.00"> : </text>
<text text-anchor="start" x="489" y="-223.8" font-family="mono" font-size="14.00" fill="#c83500">string</text>
<text text-anchor="start" x="539" y="-223.8" font-family="Times,serif" font-size="14.00"> </text>
<text text-anchor="start" x="543" y="-223.8" font-family="Times,serif" font-style="italic" font-size="14.00">(mandatory)</text>
<polygon fill="#ddeeff" stroke="none" points="424,-195 424,-216 614,-216 614,-195 424,-195"/>
<polygon fill="none" stroke="#8ccbf2" points="424,-195 424,-216 614,-216 614,-195 424,-195"/>
<text text-anchor="start" x="427" y="-202.8" font-family="mono" font-size="14.00" fill="#c83500">name</text>
<text text-anchor="start" x="461" y="-202.8" font-family="Times,serif" font-size="14.00"> : </text>
<text text-anchor="start" x="473" y="-202.8" font-family="mono" font-size="14.00" fill="#c83500">string</text>
<polygon fill="#ddeeff" stroke="none" points="424,-174 424,-195 614,-195 614,-174 424,-174"/>
<polygon fill="none" stroke="#8ccbf2" points="424,-174 424,-195 614,-195 614,-174 424,-174"/>
<text text-anchor="start" x="427" y="-181.8" font-family="mono" font-size="14.00" fill="#c83500">authorization</text>
<text text-anchor="start" x="535" y="-181.8" font-family="Times,serif" font-size="14.00"> : </text>
<text text-anchor="start" x="547" y="-181.8" font-family="mono" font-size="14.00" fill="#c83500">anyURI</text>
<polygon fill="#ddeeff" stroke="none" points="424,-153 424,-174 614,-174 614,-153 424,-153"/>
<polygon fill="none" stroke="#8ccbf2" points="424,-153 424,-174 614,-174 614,-153 424,-153"/>
<text text-anchor="start" x="427" y="-160.8" font-family="mono" font-size="14.00" fill="#c83500">alg</text>
<text text-anchor="start" x="452" y="-160.8" font-family="Times,serif" font-size="14.00"> : </text>
<text text-anchor="start" x="464" y="-160.8" font-family="mono" font-size="14.00" fill="#c83500">string</text>
<text text-anchor="start" x="514" y="-160.8" font-family="Times,serif" font-size="14.00"> </text>
<text text-anchor="start" x="518" y="-160.8" font-family="Times,serif" font-style="italic" font-size="14.00">(mandatory)</text>
<polygon fill="#ddeeff" stroke="none" points="424,-132 424,-153 614,-153 614,-132 424,-132"/>
<polygon fill="none" stroke="#8ccbf2" points="424,-132 424,-153 614,-153 614,-132 424,-132"/>
<text text-anchor="start" x="427" y="-139.8" font-family="mono" font-size="14.00" fill="#c83500">in</text>
<text text-anchor="start" x="444" y="-139.8" font-family="Times,serif" font-size="14.00"> : </text>
<text text-anchor="start" x="456" y="-139.8" font-family="mono" font-size="14.00" fill="#c83500">string</text>
<text text-anchor="start" x="506" y="-139.8" font-family="Times,serif" font-size="14.00"> </text>
<text text-anchor="start" x="510" y="-139.8" font-family="Times,serif" font-style="italic" font-size="14.00">(mandatory)</text>
</g>
<!-- BearerSecurityScheme&#45;&gt;SecurityScheme -->
<g id="edge2" class="edge"><title>BearerSecurityScheme&#45;&gt;SecurityScheme</title>
<path fill="none" stroke="black" d="M622.111,-131.572C625.079,-130.314 628.045,-129.12 631,-128 730.01,-90.4859 849.116,-69.5734 934.64,-58.4401"/>
<polygon fill="white" stroke="black" points="935.161,-61.902 944.637,-57.1633 934.275,-54.9585 935.161,-61.902"/>
</g>
<!-- BasicSecurityScheme -->
<g id="node5" class="node"><title>BasicSecurityScheme</title>
<polygon fill="#8ccbf2" stroke="none" points="649,-205 649,-226 812,-226 812,-205 649,-205"/>
<polygon fill="none" stroke="#8ccbf2" points="649,-205 649,-226 812,-226 812,-205 649,-205"/>
<text text-anchor="start" x="652" y="-212.8" font-family="mono" font-weight="bold" font-size="14.00" fill="#c83500">BasicSecurityScheme</text>
<polygon fill="#ddeeff" stroke="none" points="649,-184 649,-205 812,-205 812,-184 649,-184"/>
<polygon fill="none" stroke="#8ccbf2" points="649,-184 649,-205 812,-205 812,-184 649,-184"/>
<text text-anchor="start" x="652" y="-191.8" font-family="mono" font-size="14.00" fill="#c83500">in</text>
<text text-anchor="start" x="669" y="-191.8" font-family="Times,serif" font-size="14.00"> : </text>
<text text-anchor="start" x="681" y="-191.8" font-family="mono" font-size="14.00" fill="#c83500">string</text>
<text text-anchor="start" x="731" y="-191.8" font-family="Times,serif" font-size="14.00"> </text>
<text text-anchor="start" x="735" y="-191.8" font-family="Times,serif" font-style="italic" font-size="14.00">(mandatory)</text>
<polygon fill="#ddeeff" stroke="none" points="649,-163 649,-184 812,-184 812,-163 649,-163"/>
<polygon fill="none" stroke="#8ccbf2" points="649,-163 649,-184 812,-184 812,-163 649,-163"/>
<text text-anchor="start" x="652" y="-170.8" font-family="mono" font-size="14.00" fill="#c83500">name</text>
<text text-anchor="start" x="686" y="-170.8" font-family="Times,serif" font-size="14.00"> : </text>
<text text-anchor="start" x="698" y="-170.8" font-family="mono" font-size="14.00" fill="#c83500">string</text>
</g>
<!-- BasicSecurityScheme&#45;&gt;SecurityScheme -->
<g id="edge6" class="edge"><title>BasicSecurityScheme&#45;&gt;SecurityScheme</title>
<path fill="none" stroke="black" d="M776.969,-159.431C792.99,-148.532 811.33,-137.001 829,-128 862.43,-110.971 900.312,-95.6682 935.056,-83.0692"/>
<polygon fill="white" stroke="black" points="936.535,-86.2575 944.767,-79.5881 934.172,-79.6681 936.535,-86.2575"/>
</g>
<!-- PoPSecurityScheme -->
<g id="node6" class="node"><title>PoPSecurityScheme</title>
<polygon fill="#8ccbf2" stroke="none" points="846,-237 846,-258 1036,-258 1036,-237 846,-237"/>
<polygon fill="none" stroke="#8ccbf2" points="846,-237 846,-258 1036,-258 1036,-237 846,-237"/>
<text text-anchor="start" x="870.5" y="-244.8" font-family="mono" font-weight="bold" font-size="14.00" fill="#c83500">PoPSecurityScheme</text>
<polygon fill="#ddeeff" stroke="none" points="846,-216 846,-237 1036,-237 1036,-216 846,-216"/>
<polygon fill="none" stroke="#8ccbf2" points="846,-216 846,-237 1036,-237 1036,-216 846,-216"/>
<text text-anchor="start" x="849" y="-223.8" font-family="mono" font-size="14.00" fill="#c83500">format</text>
<text text-anchor="start" x="899" y="-223.8" font-family="Times,serif" font-size="14.00"> : </text>
<text text-anchor="start" x="911" y="-223.8" font-family="mono" font-size="14.00" fill="#c83500">string</text>
<text text-anchor="start" x="961" y="-223.8" font-family="Times,serif" font-size="14.00"> </text>
<text text-anchor="start" x="965" y="-223.8" font-family="Times,serif" font-style="italic" font-size="14.00">(mandatory)</text>
<polygon fill="#ddeeff" stroke="none" points="846,-195 846,-216 1036,-216 1036,-195 846,-195"/>
<polygon fill="none" stroke="#8ccbf2" points="846,-195 846,-216 1036,-216 1036,-195 846,-195"/>
<text text-anchor="start" x="849" y="-202.8" font-family="mono" font-size="14.00" fill="#c83500">alg</text>
<text text-anchor="start" x="874" y="-202.8" font-family="Times,serif" font-size="14.00"> : </text>
<text text-anchor="start" x="886" y="-202.8" font-family="mono" font-size="14.00" fill="#c83500">string</text>
<text text-anchor="start" x="936" y="-202.8" font-family="Times,serif" font-size="14.00"> </text>
<text text-anchor="start" x="940" y="-202.8" font-family="Times,serif" font-style="italic" font-size="14.00">(mandatory)</text>
<polygon fill="#ddeeff" stroke="none" points="846,-174 846,-195 1036,-195 1036,-174 846,-174"/>
<polygon fill="none" stroke="#8ccbf2" points="846,-174 846,-195 1036,-195 1036,-174 846,-174"/>
<text text-anchor="start" x="849" y="-181.8" font-family="mono" font-size="14.00" fill="#c83500">name</text>
<text text-anchor="start" x="883" y="-181.8" font-family="Times,serif" font-size="14.00"> : </text>
<text text-anchor="start" x="895" y="-181.8" font-family="mono" font-size="14.00" fill="#c83500">string</text>
<polygon fill="#ddeeff" stroke="none" points="846,-153 846,-174 1036,-174 1036,-153 846,-153"/>
<polygon fill="none" stroke="#8ccbf2" points="846,-153 846,-174 1036,-174 1036,-153 846,-153"/>
<text text-anchor="start" x="849" y="-160.8" font-family="mono" font-size="14.00" fill="#c83500">in</text>
<text text-anchor="start" x="866" y="-160.8" font-family="Times,serif" font-size="14.00"> : </text>
<text text-anchor="start" x="878" y="-160.8" font-family="mono" font-size="14.00" fill="#c83500">string</text>
<text text-anchor="start" x="928" y="-160.8" font-family="Times,serif" font-size="14.00"> </text>
<text text-anchor="start" x="932" y="-160.8" font-family="Times,serif" font-style="italic" font-size="14.00">(mandatory)</text>
<polygon fill="#ddeeff" stroke="none" points="846,-132 846,-153 1036,-153 1036,-132 846,-132"/>
<polygon fill="none" stroke="#8ccbf2" points="846,-132 846,-153 1036,-153 1036,-132 846,-132"/>
<text text-anchor="start" x="849" y="-139.8" font-family="mono" font-size="14.00" fill="#c83500">authorization</text>
<text text-anchor="start" x="957" y="-139.8" font-family="Times,serif" font-size="14.00"> : </text>
<text text-anchor="start" x="969" y="-139.8" font-family="mono" font-size="14.00" fill="#c83500">anyURI</text>
</g>
<!-- PoPSecurityScheme&#45;&gt;SecurityScheme -->
<g id="edge3" class="edge"><title>PoPSecurityScheme&#45;&gt;SecurityScheme</title>
<path fill="none" stroke="black" d="M989.179,-127.811C995.82,-118.686 1002.57,-109.41 1009.02,-100.552"/>
<polygon fill="white" stroke="black" points="1012.04,-102.35 1015.1,-92.2056 1006.38,-98.2309 1012.04,-102.35"/>
</g>
<!-- PublicSecurityScheme -->
<g id="node7" class="node"><title>PublicSecurityScheme</title>
<polygon fill="#8ccbf2" stroke="none" points="1070,-195 1070,-216 1242,-216 1242,-195 1070,-195"/>
<polygon fill="none" stroke="#8ccbf2" points="1070,-195 1070,-216 1242,-216 1242,-195 1070,-195"/>
<text text-anchor="start" x="1073" y="-202.8" font-family="mono" font-weight="bold" font-size="14.00" fill="#c83500">PublicSecurityScheme</text>
<polygon fill="#ddeeff" stroke="none" points="1070,-174 1070,-195 1242,-195 1242,-174 1070,-174"/>
<polygon fill="none" stroke="#8ccbf2" points="1070,-174 1070,-195 1242,-195 1242,-174 1070,-174"/>
<text text-anchor="start" x="1073" y="-181.8" font-family="mono" font-size="14.00" fill="#c83500">identity</text>
<text text-anchor="start" x="1140" y="-181.8" font-family="Times,serif" font-size="14.00"> : </text>
<text text-anchor="start" x="1152" y="-181.8" font-family="mono" font-size="14.00" fill="#c83500">string</text>
</g>
<!-- PublicSecurityScheme&#45;&gt;SecurityScheme -->
<g id="edge4" class="edge"><title>PublicSecurityScheme&#45;&gt;SecurityScheme</title>
<path fill="none" stroke="black" d="M1138.17,-169.726C1124.34,-150.906 1104.66,-124.116 1087.21,-100.366"/>
<polygon fill="white" stroke="black" points="1089.88,-98.0967 1081.14,-92.1101 1084.24,-102.241 1089.88,-98.0967"/>
</g>
<!-- DigestSecurityScheme -->
<g id="node8" class="node"><title>DigestSecurityScheme</title>
<polygon fill="#8ccbf2" stroke="none" points="1276,-216 1276,-237 1448,-237 1448,-216 1276,-216"/>
<polygon fill="none" stroke="#8ccbf2" points="1276,-216 1276,-237 1448,-237 1448,-216 1276,-216"/>
<text text-anchor="start" x="1279" y="-223.8" font-family="mono" font-weight="bold" font-size="14.00" fill="#c83500">DigestSecurityScheme</text>
<polygon fill="#ddeeff" stroke="none" points="1276,-195 1276,-216 1448,-216 1448,-195 1276,-195"/>
<polygon fill="none" stroke="#8ccbf2" points="1276,-195 1276,-216 1448,-216 1448,-195 1276,-195"/>
<text text-anchor="start" x="1279" y="-202.8" font-family="mono" font-size="14.00" fill="#c83500">qop</text>
<text text-anchor="start" x="1304" y="-202.8" font-family="Times,serif" font-size="14.00"> : </text>
<text text-anchor="start" x="1316" y="-202.8" font-family="mono" font-size="14.00" fill="#c83500">string</text>
<text text-anchor="start" x="1366" y="-202.8" font-family="Times,serif" font-size="14.00"> </text>
<text text-anchor="start" x="1370" y="-202.8" font-family="Times,serif" font-style="italic" font-size="14.00">(mandatory)</text>
<polygon fill="#ddeeff" stroke="none" points="1276,-174 1276,-195 1448,-195 1448,-174 1276,-174"/>
<polygon fill="none" stroke="#8ccbf2" points="1276,-174 1276,-195 1448,-195 1448,-174 1276,-174"/>
<text text-anchor="start" x="1279" y="-181.8" font-family="mono" font-size="14.00" fill="#c83500">name</text>
<text text-anchor="start" x="1313" y="-181.8" font-family="Times,serif" font-size="14.00"> : </text>
<text text-anchor="start" x="1325" y="-181.8" font-family="mono" font-size="14.00" fill="#c83500">string</text>
<polygon fill="#ddeeff" stroke="none" points="1276,-153 1276,-174 1448,-174 1448,-153 1276,-153"/>
<polygon fill="none" stroke="#8ccbf2" points="1276,-153 1276,-174 1448,-174 1448,-153 1276,-153"/>
<text text-anchor="start" x="1279" y="-160.8" font-family="mono" font-size="14.00" fill="#c83500">in</text>
<text text-anchor="start" x="1296" y="-160.8" font-family="Times,serif" font-size="14.00"> : </text>
<text text-anchor="start" x="1308" y="-160.8" font-family="mono" font-size="14.00" fill="#c83500">string</text>
<text text-anchor="start" x="1358" y="-160.8" font-family="Times,serif" font-size="14.00"> </text>
<text text-anchor="start" x="1362" y="-160.8" font-family="Times,serif" font-style="italic" font-size="14.00">(mandatory)</text>
</g>
<!-- DigestSecurityScheme&#45;&gt;SecurityScheme -->
<g id="edge5" class="edge"><title>DigestSecurityScheme&#45;&gt;SecurityScheme</title>
<path fill="none" stroke="black" d="M1295.84,-148.836C1283.83,-141.438 1271.22,-134.182 1259,-128 1227.93,-112.286 1193.04,-97.7336 1160.72,-85.4252"/>
<polygon fill="white" stroke="black" points="1161.82,-82.1002 1151.23,-81.8469 1159.35,-88.65 1161.82,-82.1002"/>
</g>
<!-- NoSecurityScheme -->
<g id="node9" class="node"><title>NoSecurityScheme</title>
<polygon fill="#8ccbf2" stroke="none" points="1483,-184 1483,-205 1622,-205 1622,-184 1483,-184"/>
<polygon fill="none" stroke="#8ccbf2" points="1483,-184 1483,-205 1622,-205 1622,-184 1483,-184"/>
<text text-anchor="start" x="1486" y="-191.8" font-family="mono" font-weight="bold" font-size="14.00" fill="#c83500">NoSecurityScheme</text>
</g>
<!-- NoSecurityScheme&#45;&gt;SecurityScheme -->
<g id="edge8" class="edge"><title>NoSecurityScheme&#45;&gt;SecurityScheme</title>
<path fill="none" stroke="black" d="M1534.59,-176.887C1518.06,-161.659 1491.83,-139.994 1465,-128 1367.86,-84.5688 1247.75,-64.3639 1161.42,-55.0004"/>
<polygon fill="white" stroke="black" points="1161.64,-51.5043 1151.33,-53.9384 1160.91,-58.4658 1161.64,-51.5043"/>
</g>
<!-- PSKSecurityScheme -->
<g id="node10" class="node"><title>PSKSecurityScheme</title>
<polygon fill="#8ccbf2" stroke="none" points="1656,-195 1656,-216 1803,-216 1803,-195 1656,-195"/>
<polygon fill="none" stroke="#8ccbf2" points="1656,-195 1656,-216 1803,-216 1803,-195 1656,-195"/>
<text text-anchor="start" x="1659" y="-202.8" font-family="mono" font-weight="bold" font-size="14.00" fill="#c83500">PSKSecurityScheme</text>
<polygon fill="#ddeeff" stroke="none" points="1656,-174 1656,-195 1803,-195 1803,-174 1656,-174"/>
<polygon fill="none" stroke="#8ccbf2" points="1656,-174 1656,-195 1803,-195 1803,-174 1656,-174"/>
<text text-anchor="start" x="1659" y="-181.8" font-family="mono" font-size="14.00" fill="#c83500">identity</text>
<text text-anchor="start" x="1726" y="-181.8" font-family="Times,serif" font-size="14.00"> : </text>
<text text-anchor="start" x="1738" y="-181.8" font-family="mono" font-size="14.00" fill="#c83500">string</text>
</g>
<!-- PSKSecurityScheme&#45;&gt;SecurityScheme -->
<g id="edge7" class="edge"><title>PSKSecurityScheme&#45;&gt;SecurityScheme</title>
<path fill="none" stroke="black" d="M1703.56,-169.954C1686.6,-155.365 1663.07,-137.738 1639,-128 1554.74,-93.9071 1308.16,-68.4846 1161.48,-55.8717"/>
<polygon fill="white" stroke="black" points="1161.36,-52.3485 1151.1,-54.9857 1160.76,-59.3232 1161.36,-52.3485"/>
</g>
<!-- CertSecurityScheme -->
<g id="node11" class="node"><title>CertSecurityScheme</title>
<polygon fill="#8ccbf2" stroke="none" points="1837,-195 1837,-216 1992,-216 1992,-195 1837,-195"/>
<polygon fill="none" stroke="#8ccbf2" points="1837,-195 1837,-216 1992,-216 1992,-195 1837,-195"/>
<text text-anchor="start" x="1840" y="-202.8" font-family="mono" font-weight="bold" font-size="14.00" fill="#c83500">CertSecurityScheme</text>
<polygon fill="#ddeeff" stroke="none" points="1837,-174 1837,-195 1992,-195 1992,-174 1837,-174"/>
<polygon fill="none" stroke="#8ccbf2" points="1837,-174 1837,-195 1992,-195 1992,-174 1837,-174"/>
<text text-anchor="start" x="1840" y="-181.8" font-family="mono" font-size="14.00" fill="#c83500">identity</text>
<text text-anchor="start" x="1907" y="-181.8" font-family="Times,serif" font-size="14.00"> : </text>
<text text-anchor="start" x="1919" y="-181.8" font-family="mono" font-size="14.00" fill="#c83500">string</text>
</g>
<!-- CertSecurityScheme&#45;&gt;SecurityScheme -->
<g id="edge9" class="edge"><title>CertSecurityScheme&#45;&gt;SecurityScheme</title>
<path fill="none" stroke="black" d="M1887.35,-169.704C1869.6,-155.015 1845.02,-137.371 1820,-128 1702.2,-83.8804 1345.65,-61.0327 1161.22,-51.8951"/>
<polygon fill="white" stroke="black" points="1161.37,-48.3987 1151.22,-51.4046 1161.03,-55.3903 1161.37,-48.3987"/>
</g>
</g>
</svg>
