<?xml version="1.0" encoding="UTF-8" standalone="no"?>
<!DOCTYPE svg PUBLIC "-//W3C//DTD SVG 1.1//EN"
 "http://www.w3.org/Graphics/SVG/1.1/DTD/svg11.dtd">
<!-- Generated by graphviz version 2.40.1 (20161225.0304)
 -->
<!-- Title: %3 Pages: 1 -->
<svg width="2021pt" height="270pt"
 viewBox="0.00 0.00 2020.50 270.00" xmlns="http://www.w3.org/2000/svg" xmlns:xlink="http://www.w3.org/1999/xlink">
<g id="graph0" class="graph" transform="scale(1 1) rotate(0) translate(4 266)">
<title>%3</title>
<polygon fill="#ffffff" stroke="transparent" points="-4,4 -4,-266 2016.5,-266 2016.5,4 -4,4"/>
<!-- APIKeySecurityScheme -->
<g id="node1" class="node">
<title>APIKeySecurityScheme</title>
<polygon fill="#8ccbf2" stroke="transparent" points="8,-205 8,-226 180,-226 180,-205 8,-205"/>
<polygon fill="none" stroke="#8ccbf2" points="8,-205 8,-226 180,-226 180,-205 8,-205"/>
<text text-anchor="start" x="11" y="-212.8" font-family="mono" font-weight="bold" font-size="14.00" fill="#c83500">APIKeySecurityScheme</text>
<polygon fill="#ddeeff" stroke="transparent" points="8,-184 8,-205 180,-205 180,-184 8,-184"/>
<polygon fill="none" stroke="#8ccbf2" points="8,-184 8,-205 180,-205 180,-184 8,-184"/>
<text text-anchor="start" x="11" y="-191.8" font-family="mono" font-size="14.00" fill="#c83500">name</text>
<text text-anchor="start" x="45" y="-191.8" font-family="Times,serif" font-size="14.00" fill="#000000"> : </text>
<text text-anchor="start" x="57" y="-191.8" font-family="mono" font-size="14.00" fill="#c83500">string</text>
<polygon fill="#ddeeff" stroke="transparent" points="8,-163 8,-184 180,-184 180,-163 8,-163"/>
<polygon fill="none" stroke="#8ccbf2" points="8,-163 8,-184 180,-184 180,-163 8,-163"/>
<text text-anchor="start" x="11" y="-170.8" font-family="mono" font-size="14.00" fill="#c83500">in</text>
<text text-anchor="start" x="28" y="-170.8" font-family="Times,serif" font-size="14.00" fill="#000000"> : </text>
<text text-anchor="start" x="40" y="-170.8" font-family="mono" font-size="14.00" fill="#c83500">string</text>
<text text-anchor="start" x="90" y="-170.8" font-family="Times,serif" font-size="14.00" fill="#000000"> </text>
<text text-anchor="start" x="94" y="-170.8" font-family="Times,serif" font-style="italic" font-size="14.00" fill="#000000">(mandatory)</text>
</g>
<!-- SecurityScheme -->
<g id="node3" class="node">
<title>SecurityScheme</title>
<polygon fill="#8ccbf2" stroke="transparent" points="963,-67 963,-88 1158,-88 1158,-67 963,-67"/>
<polygon fill="none" stroke="#8ccbf2" points="963,-67 963,-88 1158,-88 1158,-67 963,-67"/>
<text text-anchor="start" x="1002.5" y="-74.8" font-family="mono" font-weight="bold" font-size="14.00" fill="#c83500">SecurityScheme</text>
<polygon fill="#ddeeff" stroke="transparent" points="963,-46 963,-67 1158,-67 1158,-46 963,-46"/>
<polygon fill="none" stroke="#8ccbf2" points="963,-46 963,-67 1158,-67 1158,-46 963,-46"/>
<text text-anchor="start" x="966" y="-53.8" font-family="mono" font-size="14.00" fill="#c83500">proxy</text>
<text text-anchor="start" x="1008" y="-53.8" font-family="Times,serif" font-size="14.00" fill="#000000"> : </text>
<text text-anchor="start" x="1020" y="-53.8" font-family="mono" font-size="14.00" fill="#c83500">anyURI</text>
<polygon fill="#ddeeff" stroke="transparent" points="963,-25 963,-46 1158,-46 1158,-25 963,-25"/>
<polygon fill="none" stroke="#8ccbf2" points="963,-25 963,-46 1158,-46 1158,-25 963,-25"/>
<text text-anchor="start" x="966" y="-32.8" font-family="mono" font-size="14.00" fill="#c83500">description</text>
<text text-anchor="start" x="1057" y="-32.8" font-family="Times,serif" font-size="14.00" fill="#000000"> : </text>
<text text-anchor="start" x="1069" y="-32.8" font-family="mono" font-size="14.00" fill="#c83500">string</text>
<polygon fill="#ddeeff" stroke="transparent" points="963,-4 963,-25 1158,-25 1158,-4 963,-4"/>
<polygon fill="none" stroke="#8ccbf2" points="963,-4 963,-25 1158,-25 1158,-4 963,-4"/>
<text text-anchor="start" x="966" y="-11.8" font-family="mono" font-size="14.00" fill="#c83500">scheme</text>
<text text-anchor="start" x="1016" y="-11.8" font-family="Times,serif" font-size="14.00" fill="#000000"> : </text>
<text text-anchor="start" x="1028" y="-11.8" font-family="mono" font-size="14.00" fill="#c83500">string</text>
<text text-anchor="start" x="1078" y="-11.8" font-family="Times,serif" font-size="14.00" fill="#000000"> </text>
<text text-anchor="start" x="1082" y="-11.8" font-family="Times,serif" font-style="italic" font-size="14.00" fill="#000000">(mandatory)</text>
</g>
<!-- APIKeySecurityScheme&#45;&gt;SecurityScheme -->
<g id="edge5" class="edge">
<title>APIKeySecurityScheme&#45;&gt;SecurityScheme</title>
<path fill="none" stroke="#000000" d="M138.4186,-159.3916C155.7301,-147.3798 176.3551,-135.2037 197,-128 331.9364,-80.9161 741.6329,-58.562 944.1516,-50.1588"/>
<polygon fill="#ffffff" stroke="#000000" points="944.3808,-53.6524 954.2288,-49.7451 944.0936,-46.6583 944.3808,-53.6524"/>
</g>
<!-- OAuth2SecurityScheme -->
<g id="node2" class="node">
<title>OAuth2SecurityScheme</title>
<polygon fill="#8ccbf2" stroke="transparent" points="215,-237 215,-258 394,-258 394,-237 215,-237"/>
<polygon fill="none" stroke="#8ccbf2" points="215,-237 215,-258 394,-258 394,-237 215,-237"/>
<text text-anchor="start" x="221.5" y="-244.8" font-family="mono" font-weight="bold" font-size="14.00" fill="#c83500">OAuth2SecurityScheme</text>
<polygon fill="#ddeeff" stroke="transparent" points="215,-216 215,-237 394,-237 394,-216 215,-216"/>
<polygon fill="none" stroke="#8ccbf2" points="215,-216 215,-237 394,-237 394,-216 215,-216"/>
<text text-anchor="start" x="218" y="-223.8" font-family="mono" font-size="14.00" fill="#c83500">authorization</text>
<text text-anchor="start" x="326" y="-223.8" font-family="Times,serif" font-size="14.00" fill="#000000"> : </text>
<text text-anchor="start" x="338" y="-223.8" font-family="mono" font-size="14.00" fill="#c83500">anyURI</text>
<polygon fill="#ddeeff" stroke="transparent" points="215,-195 215,-216 394,-216 394,-195 215,-195"/>
<polygon fill="none" stroke="#8ccbf2" points="215,-195 215,-216 394,-216 394,-195 215,-195"/>
<text text-anchor="start" x="218" y="-202.8" font-family="mono" font-size="14.00" fill="#c83500">flow</text>
<text text-anchor="start" x="252" y="-202.8" font-family="Times,serif" font-size="14.00" fill="#000000"> : </text>
<text text-anchor="start" x="264" y="-202.8" font-family="mono" font-size="14.00" fill="#c83500">string</text>
<text text-anchor="start" x="314" y="-202.8" font-family="Times,serif" font-size="14.00" fill="#000000"> </text>
<text text-anchor="start" x="318" y="-202.8" font-family="Times,serif" font-style="italic" font-size="14.00" fill="#000000">(mandatory)</text>
<polygon fill="#ddeeff" stroke="transparent" points="215,-174 215,-195 394,-195 394,-174 215,-174"/>
<polygon fill="none" stroke="#8ccbf2" points="215,-174 215,-195 394,-195 394,-174 215,-174"/>
<text text-anchor="start" x="218" y="-181.8" font-family="mono" font-size="14.00" fill="#c83500">token</text>
<text text-anchor="start" x="260" y="-181.8" font-family="Times,serif" font-size="14.00" fill="#000000"> : </text>
<text text-anchor="start" x="272" y="-181.8" font-family="mono" font-size="14.00" fill="#c83500">anyURI</text>
<polygon fill="#ddeeff" stroke="transparent" points="215,-153 215,-174 394,-174 394,-153 215,-153"/>
<polygon fill="none" stroke="#8ccbf2" points="215,-153 215,-174 394,-174 394,-153 215,-153"/>
<text text-anchor="start" x="218" y="-160.8" font-family="mono" font-size="14.00" fill="#c83500">scopes</text>
<text text-anchor="start" x="268" y="-160.8" font-family="Times,serif" font-size="14.00" fill="#000000"> : array of </text>
<text text-anchor="start" x="328" y="-160.8" font-family="mono" font-size="14.00" fill="#c83500">string</text>
<polygon fill="#ddeeff" stroke="transparent" points="215,-132 215,-153 394,-153 394,-132 215,-132"/>
<polygon fill="none" stroke="#8ccbf2" points="215,-132 215,-153 394,-153 394,-132 215,-132"/>
<text text-anchor="start" x="218" y="-139.8" font-family="mono" font-size="14.00" fill="#c83500">refresh</text>
<text text-anchor="start" x="276" y="-139.8" font-family="Times,serif" font-size="14.00" fill="#000000"> : </text>
<text text-anchor="start" x="288" y="-139.8" font-family="mono" font-size="14.00" fill="#c83500">anyURI</text>
</g>
<!-- OAuth2SecurityScheme&#45;&gt;SecurityScheme -->
<g id="edge3" class="edge">
<title>OAuth2SecurityScheme&#45;&gt;SecurityScheme</title>
<path fill="none" stroke="#000000" d="M401.7001,-131.2119C404.4644,-130.0672 407.2337,-128.9928 410,-128 505.5894,-93.693 784.1141,-67.3473 943.8372,-54.5499"/>
<polygon fill="#ffffff" stroke="#000000" points="944.4921,-58.0089 954.1829,-53.7266 943.9367,-51.031 944.4921,-58.0089"/>
</g>
<!-- BearerSecurityScheme -->
<g id="node4" class="node">
<title>BearerSecurityScheme</title>
<polygon fill="#8ccbf2" stroke="transparent" points="428,-237 428,-258 623,-258 623,-237 428,-237"/>
<polygon fill="none" stroke="#8ccbf2" points="428,-237 428,-258 623,-258 623,-237 428,-237"/>
<text text-anchor="start" x="442.5" y="-244.8" font-family="mono" font-weight="bold" font-size="14.00" fill="#c83500">BearerSecurityScheme</text>
<polygon fill="#ddeeff" stroke="transparent" points="428,-216 428,-237 623,-237 623,-216 428,-216"/>
<polygon fill="none" stroke="#8ccbf2" points="428,-216 428,-237 623,-237 623,-216 428,-216"/>
<text text-anchor="start" x="431" y="-223.8" font-family="mono" font-size="14.00" fill="#c83500">format</text>
<text text-anchor="start" x="481" y="-223.8" font-family="Times,serif" font-size="14.00" fill="#000000"> : </text>
<text text-anchor="start" x="493" y="-223.8" font-family="mono" font-size="14.00" fill="#c83500">string</text>
<text text-anchor="start" x="543" y="-223.8" font-family="Times,serif" font-size="14.00" fill="#000000"> </text>
<text text-anchor="start" x="547" y="-223.8" font-family="Times,serif" font-style="italic" font-size="14.00" fill="#000000">(mandatory)</text>
<polygon fill="#ddeeff" stroke="transparent" points="428,-195 428,-216 623,-216 623,-195 428,-195"/>
<polygon fill="none" stroke="#8ccbf2" points="428,-195 428,-216 623,-216 623,-195 428,-195"/>
<text text-anchor="start" x="431" y="-202.8" font-family="mono" font-size="14.00" fill="#c83500">name</text>
<text text-anchor="start" x="465" y="-202.8" font-family="Times,serif" font-size="14.00" fill="#000000"> : </text>
<text text-anchor="start" x="477" y="-202.8" font-family="mono" font-size="14.00" fill="#c83500">string</text>
<polygon fill="#ddeeff" stroke="transparent" points="428,-174 428,-195 623,-195 623,-174 428,-174"/>
<polygon fill="none" stroke="#8ccbf2" points="428,-174 428,-195 623,-195 623,-174 428,-174"/>
<text text-anchor="start" x="431" y="-181.8" font-family="mono" font-size="14.00" fill="#c83500">authorization</text>
<text text-anchor="start" x="539" y="-181.8" font-family="Times,serif" font-size="14.00" fill="#000000"> : </text>
<text text-anchor="start" x="551" y="-181.8" font-family="mono" font-size="14.00" fill="#c83500">anyURI</text>
<polygon fill="#ddeeff" stroke="transparent" points="428,-153 428,-174 623,-174 623,-153 428,-153"/>
<polygon fill="none" stroke="#8ccbf2" points="428,-153 428,-174 623,-174 623,-153 428,-153"/>
<text text-anchor="start" x="431" y="-160.8" font-family="mono" font-size="14.00" fill="#c83500">in</text>
<text text-anchor="start" x="448" y="-160.8" font-family="Times,serif" font-size="14.00" fill="#000000"> : </text>
<text text-anchor="start" x="460" y="-160.8" font-family="mono" font-size="14.00" fill="#c83500">string</text>
<text text-anchor="start" x="510" y="-160.8" font-family="Times,serif" font-size="14.00" fill="#000000"> </text>
<text text-anchor="start" x="514" y="-160.8" font-family="Times,serif" font-style="italic" font-size="14.00" fill="#000000">(mandatory)</text>
<polygon fill="#ddeeff" stroke="transparent" points="428,-132 428,-153 623,-153 623,-132 428,-132"/>
<polygon fill="none" stroke="#8ccbf2" points="428,-132 428,-153 623,-153 623,-132 428,-132"/>
<text text-anchor="start" x="431" y="-139.8" font-family="mono" font-size="14.00" fill="#c83500">alg</text>
<text text-anchor="start" x="456" y="-139.8" font-family="Times,serif" font-size="14.00" fill="#000000"> : </text>
<text text-anchor="start" x="468" y="-139.8" font-family="mono" font-size="14.00" fill="#c83500">string</text>
<text text-anchor="start" x="518" y="-139.8" font-family="Times,serif" font-size="14.00" fill="#000000"> </text>
<text text-anchor="start" x="522" y="-139.8" font-family="Times,serif" font-style="italic" font-size="14.00" fill="#000000">(mandatory)</text>
</g>
<!-- BearerSecurityScheme&#45;&gt;SecurityScheme -->
<g id="edge2" class="edge">
<title>BearerSecurityScheme&#45;&gt;SecurityScheme</title>
<path fill="none" stroke="#000000" d="M630.6034,-131.3565C633.4073,-130.1785 636.2089,-129.0565 639,-128 738.4791,-90.3451 858.0198,-69.1815 944.2614,-57.8291"/>
<polygon fill="#ffffff" stroke="#000000" points="944.8762,-61.2788 954.3454,-56.5264 943.9793,-54.3365 944.8762,-61.2788"/>
</g>
<!-- BasicSecurityScheme -->
<g id="node5" class="node">
<title>BasicSecurityScheme</title>
<polygon fill="#8ccbf2" stroke="transparent" points="657,-205 657,-226 820,-226 820,-205 657,-205"/>
<polygon fill="none" stroke="#8ccbf2" points="657,-205 657,-226 820,-226 820,-205 657,-205"/>
<text text-anchor="start" x="660" y="-212.8" font-family="mono" font-weight="bold" font-size="14.00" fill="#c83500">BasicSecurityScheme</text>
<polygon fill="#ddeeff" stroke="transparent" points="657,-184 657,-205 820,-205 820,-184 657,-184"/>
<polygon fill="none" stroke="#8ccbf2" points="657,-184 657,-205 820,-205 820,-184 657,-184"/>
<text text-anchor="start" x="660" y="-191.8" font-family="mono" font-size="14.00" fill="#c83500">name</text>
<text text-anchor="start" x="694" y="-191.8" font-family="Times,serif" font-size="14.00" fill="#000000"> : </text>
<text text-anchor="start" x="706" y="-191.8" font-family="mono" font-size="14.00" fill="#c83500">string</text>
<polygon fill="#ddeeff" stroke="transparent" points="657,-163 657,-184 820,-184 820,-163 657,-163"/>
<polygon fill="none" stroke="#8ccbf2" points="657,-163 657,-184 820,-184 820,-163 657,-163"/>
<text text-anchor="start" x="660" y="-170.8" font-family="mono" font-size="14.00" fill="#c83500">in</text>
<text text-anchor="start" x="677" y="-170.8" font-family="Times,serif" font-size="14.00" fill="#000000"> : </text>
<text text-anchor="start" x="689" y="-170.8" font-family="mono" font-size="14.00" fill="#c83500">string</text>
<text text-anchor="start" x="739" y="-170.8" font-family="Times,serif" font-size="14.00" fill="#000000"> </text>
<text text-anchor="start" x="743" y="-170.8" font-family="Times,serif" font-style="italic" font-size="14.00" fill="#000000">(mandatory)</text>
</g>
<!-- BasicSecurityScheme&#45;&gt;SecurityScheme -->
<g id="edge9" class="edge">
<title>BasicSecurityScheme&#45;&gt;SecurityScheme</title>
<path fill="none" stroke="#000000" d="M784.8721,-159.4633C800.6068,-148.4963 818.5907,-136.9597 836,-128 870.2242,-110.3863 909.1239,-94.7536 944.7929,-81.9851"/>
<polygon fill="#ffffff" stroke="#000000" points="946.0122,-85.2664 954.2721,-78.6313 943.6773,-78.6672 946.0122,-85.2664"/>
</g>
<!-- PoPSecurityScheme -->
<g id="node6" class="node">
<title>PoPSecurityScheme</title>
<polygon fill="#8ccbf2" stroke="transparent" points="854,-237 854,-258 1049,-258 1049,-237 854,-237"/>
<polygon fill="none" stroke="#8ccbf2" points="854,-237 854,-258 1049,-258 1049,-237 854,-237"/>
<text text-anchor="start" x="881" y="-244.8" font-family="mono" font-weight="bold" font-size="14.00" fill="#c83500">PoPSecurityScheme</text>
<polygon fill="#ddeeff" stroke="transparent" points="854,-216 854,-237 1049,-237 1049,-216 854,-216"/>
<polygon fill="none" stroke="#8ccbf2" points="854,-216 854,-237 1049,-237 1049,-216 854,-216"/>
<text text-anchor="start" x="857" y="-223.8" font-family="mono" font-size="14.00" fill="#c83500">in</text>
<text text-anchor="start" x="874" y="-223.8" font-family="Times,serif" font-size="14.00" fill="#000000"> : </text>
<text text-anchor="start" x="886" y="-223.8" font-family="mono" font-size="14.00" fill="#c83500">string</text>
<text text-anchor="start" x="936" y="-223.8" font-family="Times,serif" font-size="14.00" fill="#000000"> </text>
<text text-anchor="start" x="940" y="-223.8" font-family="Times,serif" font-style="italic" font-size="14.00" fill="#000000">(mandatory)</text>
<polygon fill="#ddeeff" stroke="transparent" points="854,-195 854,-216 1049,-216 1049,-195 854,-195"/>
<polygon fill="none" stroke="#8ccbf2" points="854,-195 854,-216 1049,-216 1049,-195 854,-195"/>
<text text-anchor="start" x="857" y="-202.8" font-family="mono" font-size="14.00" fill="#c83500">alg</text>
<text text-anchor="start" x="882" y="-202.8" font-family="Times,serif" font-size="14.00" fill="#000000"> : </text>
<text text-anchor="start" x="894" y="-202.8" font-family="mono" font-size="14.00" fill="#c83500">string</text>
<text text-anchor="start" x="944" y="-202.8" font-family="Times,serif" font-size="14.00" fill="#000000"> </text>
<text text-anchor="start" x="948" y="-202.8" font-family="Times,serif" font-style="italic" font-size="14.00" fill="#000000">(mandatory)</text>
<polygon fill="#ddeeff" stroke="transparent" points="854,-174 854,-195 1049,-195 1049,-174 854,-174"/>
<polygon fill="none" stroke="#8ccbf2" points="854,-174 854,-195 1049,-195 1049,-174 854,-174"/>
<text text-anchor="start" x="857" y="-181.8" font-family="mono" font-size="14.00" fill="#c83500">format</text>
<text text-anchor="start" x="907" y="-181.8" font-family="Times,serif" font-size="14.00" fill="#000000"> : </text>
<text text-anchor="start" x="919" y="-181.8" font-family="mono" font-size="14.00" fill="#c83500">string</text>
<text text-anchor="start" x="969" y="-181.8" font-family="Times,serif" font-size="14.00" fill="#000000"> </text>
<text text-anchor="start" x="973" y="-181.8" font-family="Times,serif" font-style="italic" font-size="14.00" fill="#000000">(mandatory)</text>
<polygon fill="#ddeeff" stroke="transparent" points="854,-153 854,-174 1049,-174 1049,-153 854,-153"/>
<polygon fill="none" stroke="#8ccbf2" points="854,-153 854,-174 1049,-174 1049,-153 854,-153"/>
<text text-anchor="start" x="857" y="-160.8" font-family="mono" font-size="14.00" fill="#c83500">authorization</text>
<text text-anchor="start" x="965" y="-160.8" font-family="Times,serif" font-size="14.00" fill="#000000"> : </text>
<text text-anchor="start" x="977" y="-160.8" font-family="mono" font-size="14.00" fill="#c83500">anyURI</text>
<polygon fill="#ddeeff" stroke="transparent" points="854,-132 854,-153 1049,-153 1049,-132 854,-132"/>
<polygon fill="none" stroke="#8ccbf2" points="854,-132 854,-153 1049,-153 1049,-132 854,-132"/>
<text text-anchor="start" x="857" y="-139.8" font-family="mono" font-size="14.00" fill="#c83500">name</text>
<text text-anchor="start" x="891" y="-139.8" font-family="Times,serif" font-size="14.00" fill="#000000"> : </text>
<text text-anchor="start" x="903" y="-139.8" font-family="mono" font-size="14.00" fill="#c83500">string</text>
</g>
<!-- PoPSecurityScheme&#45;&gt;SecurityScheme -->
<g id="edge1" class="edge">
<title>PoPSecurityScheme&#45;&gt;SecurityScheme</title>
<path fill="none" stroke="#000000" d="M1000.0793,-127.91C1006.8283,-118.6843 1013.6893,-109.3055 1020.2428,-100.347"/>
<polygon fill="#ffffff" stroke="#000000" points="1023.0833,-102.392 1026.1628,-92.2546 1017.4337,-98.259 1023.0833,-102.392"/>
</g>
<!-- PublicSecurityScheme -->
<g id="node7" class="node">
<title>PublicSecurityScheme</title>
<polygon fill="#8ccbf2" stroke="transparent" points="1083,-195 1083,-216 1255,-216 1255,-195 1083,-195"/>
<polygon fill="none" stroke="#8ccbf2" points="1083,-195 1083,-216 1255,-216 1255,-195 1083,-195"/>
<text text-anchor="start" x="1086" y="-202.8" font-family="mono" font-weight="bold" font-size="14.00" fill="#c83500">PublicSecurityScheme</text>
<polygon fill="#ddeeff" stroke="transparent" points="1083,-174 1083,-195 1255,-195 1255,-174 1083,-174"/>
<polygon fill="none" stroke="#8ccbf2" points="1083,-174 1083,-195 1255,-195 1255,-174 1083,-174"/>
<text text-anchor="start" x="1086" y="-181.8" font-family="mono" font-size="14.00" fill="#c83500">identity</text>
<text text-anchor="start" x="1153" y="-181.8" font-family="Times,serif" font-size="14.00" fill="#000000"> : </text>
<text text-anchor="start" x="1165" y="-181.8" font-family="mono" font-size="14.00" fill="#c83500">string</text>
</g>
<!-- PublicSecurityScheme&#45;&gt;SecurityScheme -->
<g id="edge10" class="edge">
<title>PublicSecurityScheme&#45;&gt;SecurityScheme</title>
<path fill="none" stroke="#000000" d="M1150.5096,-169.7242C1136.6548,-150.785 1117.1802,-124.1638 1099.8432,-100.4646"/>
<polygon fill="#ffffff" stroke="#000000" points="1102.5419,-98.2256 1093.8128,-92.2212 1096.8922,-102.3586 1102.5419,-98.2256"/>
</g>
<!-- DigestSecurityScheme -->
<g id="node8" class="node">
<title>DigestSecurityScheme</title>
<polygon fill="#8ccbf2" stroke="transparent" points="1289,-216 1289,-237 1461,-237 1461,-216 1289,-216"/>
<polygon fill="none" stroke="#8ccbf2" points="1289,-216 1289,-237 1461,-237 1461,-216 1289,-216"/>
<text text-anchor="start" x="1292" y="-223.8" font-family="mono" font-weight="bold" font-size="14.00" fill="#c83500">DigestSecurityScheme</text>
<polygon fill="#ddeeff" stroke="transparent" points="1289,-195 1289,-216 1461,-216 1461,-195 1289,-195"/>
<polygon fill="none" stroke="#8ccbf2" points="1289,-195 1289,-216 1461,-216 1461,-195 1289,-195"/>
<text text-anchor="start" x="1292" y="-202.8" font-family="mono" font-size="14.00" fill="#c83500">name</text>
<text text-anchor="start" x="1326" y="-202.8" font-family="Times,serif" font-size="14.00" fill="#000000"> : </text>
<text text-anchor="start" x="1338" y="-202.8" font-family="mono" font-size="14.00" fill="#c83500">string</text>
<polygon fill="#ddeeff" stroke="transparent" points="1289,-174 1289,-195 1461,-195 1461,-174 1289,-174"/>
<polygon fill="none" stroke="#8ccbf2" points="1289,-174 1289,-195 1461,-195 1461,-174 1289,-174"/>
<text text-anchor="start" x="1292" y="-181.8" font-family="mono" font-size="14.00" fill="#c83500">qop</text>
<text text-anchor="start" x="1317" y="-181.8" font-family="Times,serif" font-size="14.00" fill="#000000"> : </text>
<text text-anchor="start" x="1329" y="-181.8" font-family="mono" font-size="14.00" fill="#c83500">string</text>
<text text-anchor="start" x="1379" y="-181.8" font-family="Times,serif" font-size="14.00" fill="#000000"> </text>
<text text-anchor="start" x="1383" y="-181.8" font-family="Times,serif" font-style="italic" font-size="14.00" fill="#000000">(mandatory)</text>
<polygon fill="#ddeeff" stroke="transparent" points="1289,-153 1289,-174 1461,-174 1461,-153 1289,-153"/>
<polygon fill="none" stroke="#8ccbf2" points="1289,-153 1289,-174 1461,-174 1461,-153 1289,-153"/>
<text text-anchor="start" x="1292" y="-160.8" font-family="mono" font-size="14.00" fill="#c83500">in</text>
<text text-anchor="start" x="1309" y="-160.8" font-family="Times,serif" font-size="14.00" fill="#000000"> : </text>
<text text-anchor="start" x="1321" y="-160.8" font-family="mono" font-size="14.00" fill="#c83500">string</text>
<text text-anchor="start" x="1371" y="-160.8" font-family="Times,serif" font-size="14.00" fill="#000000"> </text>
<text text-anchor="start" x="1375" y="-160.8" font-family="Times,serif" font-style="italic" font-size="14.00" fill="#000000">(mandatory)</text>
</g>
<!-- DigestSecurityScheme&#45;&gt;SecurityScheme -->
<g id="edge8" class="edge">
<title>DigestSecurityScheme&#45;&gt;SecurityScheme</title>
<path fill="none" stroke="#000000" d="M1308.6042,-148.9621C1296.669,-141.5149 1284.1543,-134.2183 1272,-128 1241.3834,-112.3362 1207.044,-97.8343 1175.0645,-85.5185"/>
<polygon fill="#ffffff" stroke="#000000" points="1176.2598,-82.2285 1165.669,-81.9362 1173.766,-88.7692 1176.2598,-82.2285"/>
</g>
<!-- NoSecurityScheme -->
<g id="node9" class="node">
<title>NoSecurityScheme</title>
<polygon fill="#8ccbf2" stroke="transparent" points="1496,-184 1496,-205 1635,-205 1635,-184 1496,-184"/>
<polygon fill="none" stroke="#8ccbf2" points="1496,-184 1496,-205 1635,-205 1635,-184 1496,-184"/>
<text text-anchor="start" x="1499" y="-191.8" font-family="mono" font-weight="bold" font-size="14.00" fill="#c83500">NoSecurityScheme</text>
</g>
<!-- NoSecurityScheme&#45;&gt;SecurityScheme -->
<g id="edge6" class="edge">
<title>NoSecurityScheme&#45;&gt;SecurityScheme</title>
<path fill="none" stroke="#000000" d="M1546.662,-176.7269C1530.1207,-161.3274 1504.3997,-139.9475 1478,-128 1381.5977,-84.3721 1262.3768,-63.8971 1175.9608,-54.3227"/>
<polygon fill="#ffffff" stroke="#000000" points="1176.1708,-50.8252 1165.8539,-53.236 1175.4224,-57.7851 1176.1708,-50.8252"/>
</g>
<!-- PSKSecurityScheme -->
<g id="node10" class="node">
<title>PSKSecurityScheme</title>
<polygon fill="#8ccbf2" stroke="transparent" points="1669,-195 1669,-216 1816,-216 1816,-195 1669,-195"/>
<polygon fill="none" stroke="#8ccbf2" points="1669,-195 1669,-216 1816,-216 1816,-195 1669,-195"/>
<text text-anchor="start" x="1672" y="-202.8" font-family="mono" font-weight="bold" font-size="14.00" fill="#c83500">PSKSecurityScheme</text>
<polygon fill="#ddeeff" stroke="transparent" points="1669,-174 1669,-195 1816,-195 1816,-174 1669,-174"/>
<polygon fill="none" stroke="#8ccbf2" points="1669,-174 1669,-195 1816,-195 1816,-174 1669,-174"/>
<text text-anchor="start" x="1672" y="-181.8" font-family="mono" font-size="14.00" fill="#c83500">identity</text>
<text text-anchor="start" x="1739" y="-181.8" font-family="Times,serif" font-size="14.00" fill="#000000"> : </text>
<text text-anchor="start" x="1751" y="-181.8" font-family="mono" font-size="14.00" fill="#c83500">string</text>
</g>
<!-- PSKSecurityScheme&#45;&gt;SecurityScheme -->
<g id="edge4" class="edge">
<title>PSKSecurityScheme&#45;&gt;SecurityScheme</title>
<path fill="none" stroke="#000000" d="M1715.8561,-169.9302C1698.9784,-155.2554 1675.7937,-137.7468 1652,-128 1568.1136,-93.637 1322.9371,-67.9808 1175.732,-55.1549"/>
<polygon fill="#ffffff" stroke="#000000" points="1176.0077,-51.6658 1165.7433,-54.2912 1175.4046,-58.6398 1176.0077,-51.6658"/>
</g>
<!-- CertSecurityScheme -->
<g id="node11" class="node">
<title>CertSecurityScheme</title>
<polygon fill="#8ccbf2" stroke="transparent" points="1850,-195 1850,-216 2005,-216 2005,-195 1850,-195"/>
<polygon fill="none" stroke="#8ccbf2" points="1850,-195 1850,-216 2005,-216 2005,-195 1850,-195"/>
<text text-anchor="start" x="1853" y="-202.8" font-family="mono" font-weight="bold" font-size="14.00" fill="#c83500">CertSecurityScheme</text>
<polygon fill="#ddeeff" stroke="transparent" points="1850,-174 1850,-195 2005,-195 2005,-174 1850,-174"/>
<polygon fill="none" stroke="#8ccbf2" points="1850,-174 1850,-195 2005,-195 2005,-174 1850,-174"/>
<text text-anchor="start" x="1853" y="-181.8" font-family="mono" font-size="14.00" fill="#c83500">identity</text>
<text text-anchor="start" x="1920" y="-181.8" font-family="Times,serif" font-size="14.00" fill="#000000"> : </text>
<text text-anchor="start" x="1932" y="-181.8" font-family="mono" font-size="14.00" fill="#c83500">string</text>
</g>
<!-- CertSecurityScheme&#45;&gt;SecurityScheme -->
<g id="edge7" class="edge">
<title>CertSecurityScheme&#45;&gt;SecurityScheme</title>
<path fill="none" stroke="#000000" d="M1899.6122,-169.6719C1881.9536,-154.9 1857.7348,-137.3799 1833,-128 1715.6764,-83.5087 1360.9381,-60.3871 1175.5959,-51.065"/>
<polygon fill="#ffffff" stroke="#000000" points="1175.7019,-47.566 1165.5402,-50.5644 1175.3538,-54.5573 1175.7019,-47.566"/>
</g>
</g>
</svg>
