<?xml version="1.0" encoding="UTF-8" standalone="no"?>
<!DOCTYPE svg PUBLIC "-//W3C//DTD SVG 1.1//EN"
 "http://www.w3.org/Graphics/SVG/1.1/DTD/svg11.dtd">
<!-- Generated by graphviz version 2.40.1 (20161225.0304)
 -->
<!-- Title: %3 Pages: 1 -->
<svg width="2021pt" height="312pt"
 viewBox="0.00 0.00 2020.50 312.00" xmlns="http://www.w3.org/2000/svg" xmlns:xlink="http://www.w3.org/1999/xlink">
<g id="graph0" class="graph" transform="scale(1 1) rotate(0) translate(4 308)">
<title>%3</title>
<polygon fill="#ffffff" stroke="transparent" points="-4,4 -4,-308 2016.5,-308 2016.5,4 -4,4"/>
<!-- APIKeySecurityScheme -->
<g id="node1" class="node">
<title>APIKeySecurityScheme</title>
<polygon fill="#8ccbf2" stroke="transparent" points="8,-247 8,-268 180,-268 180,-247 8,-247"/>
<polygon fill="none" stroke="#8ccbf2" points="8,-247 8,-268 180,-268 180,-247 8,-247"/>
<text text-anchor="start" x="11" y="-254.8" font-family="mono" font-weight="bold" font-size="14.00" fill="#c83500">APIKeySecurityScheme</text>
<polygon fill="#ddeeff" stroke="transparent" points="8,-226 8,-247 180,-247 180,-226 8,-226"/>
<polygon fill="none" stroke="#8ccbf2" points="8,-226 8,-247 180,-247 180,-226 8,-226"/>
<text text-anchor="start" x="11" y="-233.8" font-family="mono" font-size="14.00" fill="#c83500">in</text>
<text text-anchor="start" x="28" y="-233.8" font-family="Times,serif" font-size="14.00" fill="#000000"> : </text>
<text text-anchor="start" x="40" y="-233.8" font-family="mono" font-size="14.00" fill="#c83500">string</text>
<text text-anchor="start" x="90" y="-233.8" font-family="Times,serif" font-size="14.00" fill="#000000"> </text>
<text text-anchor="start" x="94" y="-233.8" font-family="Times,serif" font-style="italic" font-size="14.00" fill="#000000">(mandatory)</text>
<polygon fill="#ddeeff" stroke="transparent" points="8,-205 8,-226 180,-226 180,-205 8,-205"/>
<polygon fill="none" stroke="#8ccbf2" points="8,-205 8,-226 180,-226 180,-205 8,-205"/>
<text text-anchor="start" x="11" y="-212.8" font-family="mono" font-size="14.00" fill="#c83500">name</text>
<text text-anchor="start" x="45" y="-212.8" font-family="Times,serif" font-size="14.00" fill="#000000"> : </text>
<text text-anchor="start" x="57" y="-212.8" font-family="mono" font-size="14.00" fill="#c83500">string</text>
</g>
<!-- SecurityScheme -->
<g id="node3" class="node">
<title>SecurityScheme</title>
<polygon fill="#8ccbf2" stroke="transparent" points="925,-109 925,-130 1196,-130 1196,-109 925,-109"/>
<polygon fill="none" stroke="#8ccbf2" points="925,-109 925,-130 1196,-130 1196,-109 925,-109"/>
<text text-anchor="start" x="1002.5" y="-116.8" font-family="mono" font-weight="bold" font-size="14.00" fill="#c83500">SecurityScheme</text>
<polygon fill="#ddeeff" stroke="transparent" points="925,-88 925,-109 1196,-109 1196,-88 925,-88"/>
<polygon fill="none" stroke="#8ccbf2" points="925,-88 925,-109 1196,-109 1196,-88 925,-88"/>
<text text-anchor="start" x="928" y="-95.8" font-family="mono" font-size="14.00" fill="#c83500">@context</text>
<text text-anchor="start" x="995" y="-95.8" font-family="Times,serif" font-size="14.00" fill="#000000"> : </text>
<text text-anchor="start" x="1007" y="-95.8" font-family="Times,serif" font-style="italic" font-size="14.00" fill="#000000">array of </text>
<text text-anchor="start" x="1058" y="-95.8" font-family="mono" font-size="14.00" fill="#c83500">context</text>
<text text-anchor="start" x="1116" y="-95.8" font-family="Times,serif" font-size="14.00" fill="#000000"> </text>
<text text-anchor="start" x="1120" y="-95.8" font-family="Times,serif" font-style="italic" font-size="14.00" fill="#000000">(mandatory)</text>
<polygon fill="#ddeeff" stroke="transparent" points="925,-67 925,-88 1196,-88 1196,-67 925,-67"/>
<polygon fill="none" stroke="#8ccbf2" points="925,-67 925,-88 1196,-88 1196,-67 925,-67"/>
<text text-anchor="start" x="928" y="-74.8" font-family="mono" font-size="14.00" fill="#c83500">@type</text>
<text text-anchor="start" x="970" y="-74.8" font-family="Times,serif" font-size="14.00" fill="#000000"> : </text>
<text text-anchor="start" x="982" y="-74.8" font-family="Times,serif" font-style="italic" font-size="14.00" fill="#000000">array of </text>
<text text-anchor="start" x="1033" y="-74.8" font-family="mono" font-size="14.00" fill="#c83500">string</text>
<polygon fill="#ddeeff" stroke="transparent" points="925,-46 925,-67 1196,-67 1196,-46 925,-46"/>
<polygon fill="none" stroke="#8ccbf2" points="925,-46 925,-67 1196,-67 1196,-46 925,-46"/>
<text text-anchor="start" x="928" y="-53.8" font-family="mono" font-size="14.00" fill="#c83500">scheme</text>
<text text-anchor="start" x="978" y="-53.8" font-family="Times,serif" font-size="14.00" fill="#000000"> : </text>
<text text-anchor="start" x="990" y="-53.8" font-family="mono" font-size="14.00" fill="#c83500">string</text>
<text text-anchor="start" x="1040" y="-53.8" font-family="Times,serif" font-size="14.00" fill="#000000"> </text>
<text text-anchor="start" x="1044" y="-53.8" font-family="Times,serif" font-style="italic" font-size="14.00" fill="#000000">(mandatory)</text>
<polygon fill="#ddeeff" stroke="transparent" points="925,-25 925,-46 1196,-46 1196,-25 925,-25"/>
<polygon fill="none" stroke="#8ccbf2" points="925,-25 925,-46 1196,-46 1196,-25 925,-25"/>
<text text-anchor="start" x="928" y="-32.8" font-family="mono" font-size="14.00" fill="#c83500">description</text>
<text text-anchor="start" x="1019" y="-32.8" font-family="Times,serif" font-size="14.00" fill="#000000"> : </text>
<text text-anchor="start" x="1031" y="-32.8" font-family="mono" font-size="14.00" fill="#c83500">string</text>
<polygon fill="#ddeeff" stroke="transparent" points="925,-4 925,-25 1196,-25 1196,-4 925,-4"/>
<polygon fill="none" stroke="#8ccbf2" points="925,-4 925,-25 1196,-25 1196,-4 925,-4"/>
<text text-anchor="start" x="928" y="-11.8" font-family="mono" font-size="14.00" fill="#c83500">proxy</text>
<text text-anchor="start" x="970" y="-11.8" font-family="Times,serif" font-size="14.00" fill="#000000"> : </text>
<text text-anchor="start" x="982" y="-11.8" font-family="mono" font-size="14.00" fill="#c83500">anyURI</text>
</g>
<!-- APIKeySecurityScheme&#45;&gt;SecurityScheme -->
<g id="edge3" class="edge">
<title>APIKeySecurityScheme&#45;&gt;SecurityScheme</title>
<path fill="none" stroke="#000000" d="M138.7674,-201.4835C156.0368,-189.5577 176.5435,-177.4151 197,-170 323.7487,-124.0556 694.052,-92.0655 906.1282,-76.9352"/>
<polygon fill="#ffffff" stroke="#000000" points="906.6914,-80.4042 916.4187,-76.2054 906.1961,-73.4217 906.6914,-80.4042"/>
</g>
<!-- OAuth2SecurityScheme -->
<g id="node2" class="node">
<title>OAuth2SecurityScheme</title>
<polygon fill="#8ccbf2" stroke="transparent" points="215,-279 215,-300 394,-300 394,-279 215,-279"/>
<polygon fill="none" stroke="#8ccbf2" points="215,-279 215,-300 394,-300 394,-279 215,-279"/>
<text text-anchor="start" x="221.5" y="-286.8" font-family="mono" font-weight="bold" font-size="14.00" fill="#c83500">OAuth2SecurityScheme</text>
<polygon fill="#ddeeff" stroke="transparent" points="215,-258 215,-279 394,-279 394,-258 215,-258"/>
<polygon fill="none" stroke="#8ccbf2" points="215,-258 215,-279 394,-279 394,-258 215,-258"/>
<text text-anchor="start" x="218" y="-265.8" font-family="mono" font-size="14.00" fill="#c83500">scopes</text>
<text text-anchor="start" x="268" y="-265.8" font-family="Times,serif" font-size="14.00" fill="#000000"> : array of </text>
<text text-anchor="start" x="328" y="-265.8" font-family="mono" font-size="14.00" fill="#c83500">string</text>
<polygon fill="#ddeeff" stroke="transparent" points="215,-237 215,-258 394,-258 394,-237 215,-237"/>
<polygon fill="none" stroke="#8ccbf2" points="215,-237 215,-258 394,-258 394,-237 215,-237"/>
<text text-anchor="start" x="218" y="-244.8" font-family="mono" font-size="14.00" fill="#c83500">authorization</text>
<text text-anchor="start" x="326" y="-244.8" font-family="Times,serif" font-size="14.00" fill="#000000"> : </text>
<text text-anchor="start" x="338" y="-244.8" font-family="mono" font-size="14.00" fill="#c83500">anyURI</text>
<polygon fill="#ddeeff" stroke="transparent" points="215,-216 215,-237 394,-237 394,-216 215,-216"/>
<polygon fill="none" stroke="#8ccbf2" points="215,-216 215,-237 394,-237 394,-216 215,-216"/>
<text text-anchor="start" x="218" y="-223.8" font-family="mono" font-size="14.00" fill="#c83500">flow</text>
<text text-anchor="start" x="252" y="-223.8" font-family="Times,serif" font-size="14.00" fill="#000000"> : </text>
<text text-anchor="start" x="264" y="-223.8" font-family="mono" font-size="14.00" fill="#c83500">string</text>
<text text-anchor="start" x="314" y="-223.8" font-family="Times,serif" font-size="14.00" fill="#000000"> </text>
<text text-anchor="start" x="318" y="-223.8" font-family="Times,serif" font-style="italic" font-size="14.00" fill="#000000">(mandatory)</text>
<polygon fill="#ddeeff" stroke="transparent" points="215,-195 215,-216 394,-216 394,-195 215,-195"/>
<polygon fill="none" stroke="#8ccbf2" points="215,-195 215,-216 394,-216 394,-195 215,-195"/>
<text text-anchor="start" x="218" y="-202.8" font-family="mono" font-size="14.00" fill="#c83500">refresh</text>
<text text-anchor="start" x="276" y="-202.8" font-family="Times,serif" font-size="14.00" fill="#000000"> : </text>
<text text-anchor="start" x="288" y="-202.8" font-family="mono" font-size="14.00" fill="#c83500">anyURI</text>
<polygon fill="#ddeeff" stroke="transparent" points="215,-174 215,-195 394,-195 394,-174 215,-174"/>
<polygon fill="none" stroke="#8ccbf2" points="215,-174 215,-195 394,-195 394,-174 215,-174"/>
<text text-anchor="start" x="218" y="-181.8" font-family="mono" font-size="14.00" fill="#c83500">token</text>
<text text-anchor="start" x="260" y="-181.8" font-family="Times,serif" font-size="14.00" fill="#000000"> : </text>
<text text-anchor="start" x="272" y="-181.8" font-family="mono" font-size="14.00" fill="#c83500">anyURI</text>
</g>
<!-- OAuth2SecurityScheme&#45;&gt;SecurityScheme -->
<g id="edge5" class="edge">
<title>OAuth2SecurityScheme&#45;&gt;SecurityScheme</title>
<path fill="none" stroke="#000000" d="M401.7433,-173.3295C404.4949,-172.15 407.2498,-171.0365 410,-170 498.3591,-136.6997 743.5892,-103.4623 906.2841,-84.0888"/>
<polygon fill="#ffffff" stroke="#000000" points="906.8742,-87.5435 916.3925,-82.8903 906.05,-80.5922 906.8742,-87.5435"/>
</g>
<!-- BearerSecurityScheme -->
<g id="node4" class="node">
<title>BearerSecurityScheme</title>
<polygon fill="#8ccbf2" stroke="transparent" points="428,-279 428,-300 623,-300 623,-279 428,-279"/>
<polygon fill="none" stroke="#8ccbf2" points="428,-279 428,-300 623,-300 623,-279 428,-279"/>
<text text-anchor="start" x="442.5" y="-286.8" font-family="mono" font-weight="bold" font-size="14.00" fill="#c83500">BearerSecurityScheme</text>
<polygon fill="#ddeeff" stroke="transparent" points="428,-258 428,-279 623,-279 623,-258 428,-258"/>
<polygon fill="none" stroke="#8ccbf2" points="428,-258 428,-279 623,-279 623,-258 428,-258"/>
<text text-anchor="start" x="431" y="-265.8" font-family="mono" font-size="14.00" fill="#c83500">alg</text>
<text text-anchor="start" x="456" y="-265.8" font-family="Times,serif" font-size="14.00" fill="#000000"> : </text>
<text text-anchor="start" x="468" y="-265.8" font-family="mono" font-size="14.00" fill="#c83500">string</text>
<text text-anchor="start" x="518" y="-265.8" font-family="Times,serif" font-size="14.00" fill="#000000"> </text>
<text text-anchor="start" x="522" y="-265.8" font-family="Times,serif" font-style="italic" font-size="14.00" fill="#000000">(mandatory)</text>
<polygon fill="#ddeeff" stroke="transparent" points="428,-237 428,-258 623,-258 623,-237 428,-237"/>
<polygon fill="none" stroke="#8ccbf2" points="428,-237 428,-258 623,-258 623,-237 428,-237"/>
<text text-anchor="start" x="431" y="-244.8" font-family="mono" font-size="14.00" fill="#c83500">in</text>
<text text-anchor="start" x="448" y="-244.8" font-family="Times,serif" font-size="14.00" fill="#000000"> : </text>
<text text-anchor="start" x="460" y="-244.8" font-family="mono" font-size="14.00" fill="#c83500">string</text>
<text text-anchor="start" x="510" y="-244.8" font-family="Times,serif" font-size="14.00" fill="#000000"> </text>
<text text-anchor="start" x="514" y="-244.8" font-family="Times,serif" font-style="italic" font-size="14.00" fill="#000000">(mandatory)</text>
<polygon fill="#ddeeff" stroke="transparent" points="428,-216 428,-237 623,-237 623,-216 428,-216"/>
<polygon fill="none" stroke="#8ccbf2" points="428,-216 428,-237 623,-237 623,-216 428,-216"/>
<text text-anchor="start" x="431" y="-223.8" font-family="mono" font-size="14.00" fill="#c83500">authorization</text>
<text text-anchor="start" x="539" y="-223.8" font-family="Times,serif" font-size="14.00" fill="#000000"> : </text>
<text text-anchor="start" x="551" y="-223.8" font-family="mono" font-size="14.00" fill="#c83500">anyURI</text>
<polygon fill="#ddeeff" stroke="transparent" points="428,-195 428,-216 623,-216 623,-195 428,-195"/>
<polygon fill="none" stroke="#8ccbf2" points="428,-195 428,-216 623,-216 623,-195 428,-195"/>
<text text-anchor="start" x="431" y="-202.8" font-family="mono" font-size="14.00" fill="#c83500">format</text>
<text text-anchor="start" x="481" y="-202.8" font-family="Times,serif" font-size="14.00" fill="#000000"> : </text>
<text text-anchor="start" x="493" y="-202.8" font-family="mono" font-size="14.00" fill="#c83500">string</text>
<text text-anchor="start" x="543" y="-202.8" font-family="Times,serif" font-size="14.00" fill="#000000"> </text>
<text text-anchor="start" x="547" y="-202.8" font-family="Times,serif" font-style="italic" font-size="14.00" fill="#000000">(mandatory)</text>
<polygon fill="#ddeeff" stroke="transparent" points="428,-174 428,-195 623,-195 623,-174 428,-174"/>
<polygon fill="none" stroke="#8ccbf2" points="428,-174 428,-195 623,-195 623,-174 428,-174"/>
<text text-anchor="start" x="431" y="-181.8" font-family="mono" font-size="14.00" fill="#c83500">name</text>
<text text-anchor="start" x="465" y="-181.8" font-family="Times,serif" font-size="14.00" fill="#000000"> : </text>
<text text-anchor="start" x="477" y="-181.8" font-family="mono" font-size="14.00" fill="#c83500">string</text>
</g>
<!-- BearerSecurityScheme&#45;&gt;SecurityScheme -->
<g id="edge2" class="edge">
<title>BearerSecurityScheme&#45;&gt;SecurityScheme</title>
<path fill="none" stroke="#000000" d="M630.6735,-173.5352C633.4565,-172.3039 636.2348,-171.1226 639,-170 724.7552,-135.186 825.293,-110.0485 906.6116,-93.3259"/>
<polygon fill="#ffffff" stroke="#000000" points="907.3294,-96.7516 916.4309,-91.3281 905.9338,-89.8921 907.3294,-96.7516"/>
</g>
<!-- BasicSecurityScheme -->
<g id="node5" class="node">
<title>BasicSecurityScheme</title>
<polygon fill="#8ccbf2" stroke="transparent" points="657,-247 657,-268 820,-268 820,-247 657,-247"/>
<polygon fill="none" stroke="#8ccbf2" points="657,-247 657,-268 820,-268 820,-247 657,-247"/>
<text text-anchor="start" x="660" y="-254.8" font-family="mono" font-weight="bold" font-size="14.00" fill="#c83500">BasicSecurityScheme</text>
<polygon fill="#ddeeff" stroke="transparent" points="657,-226 657,-247 820,-247 820,-226 657,-226"/>
<polygon fill="none" stroke="#8ccbf2" points="657,-226 657,-247 820,-247 820,-226 657,-226"/>
<text text-anchor="start" x="660" y="-233.8" font-family="mono" font-size="14.00" fill="#c83500">name</text>
<text text-anchor="start" x="694" y="-233.8" font-family="Times,serif" font-size="14.00" fill="#000000"> : </text>
<text text-anchor="start" x="706" y="-233.8" font-family="mono" font-size="14.00" fill="#c83500">string</text>
<polygon fill="#ddeeff" stroke="transparent" points="657,-205 657,-226 820,-226 820,-205 657,-205"/>
<polygon fill="none" stroke="#8ccbf2" points="657,-205 657,-226 820,-226 820,-205 657,-205"/>
<text text-anchor="start" x="660" y="-212.8" font-family="mono" font-size="14.00" fill="#c83500">in</text>
<text text-anchor="start" x="677" y="-212.8" font-family="Times,serif" font-size="14.00" fill="#000000"> : </text>
<text text-anchor="start" x="689" y="-212.8" font-family="mono" font-size="14.00" fill="#c83500">string</text>
<text text-anchor="start" x="739" y="-212.8" font-family="Times,serif" font-size="14.00" fill="#000000"> </text>
<text text-anchor="start" x="743" y="-212.8" font-family="Times,serif" font-style="italic" font-size="14.00" fill="#000000">(mandatory)</text>
</g>
<!-- BasicSecurityScheme&#45;&gt;SecurityScheme -->
<g id="edge9" class="edge">
<title>BasicSecurityScheme&#45;&gt;SecurityScheme</title>
<path fill="none" stroke="#000000" d="M786.8136,-201.245C802.2043,-190.6259 819.5013,-179.3447 836,-170 858.5396,-157.2338 882.9408,-144.7474 907.0637,-133.1218"/>
<polygon fill="#ffffff" stroke="#000000" points="908.7792,-136.1811 916.291,-128.7095 905.7594,-129.8659 908.7792,-136.1811"/>
</g>
<!-- PoPSecurityScheme -->
<g id="node6" class="node">
<title>PoPSecurityScheme</title>
<polygon fill="#8ccbf2" stroke="transparent" points="854,-279 854,-300 1049,-300 1049,-279 854,-279"/>
<polygon fill="none" stroke="#8ccbf2" points="854,-279 854,-300 1049,-300 1049,-279 854,-279"/>
<text text-anchor="start" x="881" y="-286.8" font-family="mono" font-weight="bold" font-size="14.00" fill="#c83500">PoPSecurityScheme</text>
<polygon fill="#ddeeff" stroke="transparent" points="854,-258 854,-279 1049,-279 1049,-258 854,-258"/>
<polygon fill="none" stroke="#8ccbf2" points="854,-258 854,-279 1049,-279 1049,-258 854,-258"/>
<text text-anchor="start" x="857" y="-265.8" font-family="mono" font-size="14.00" fill="#c83500">format</text>
<text text-anchor="start" x="907" y="-265.8" font-family="Times,serif" font-size="14.00" fill="#000000"> : </text>
<text text-anchor="start" x="919" y="-265.8" font-family="mono" font-size="14.00" fill="#c83500">string</text>
<text text-anchor="start" x="969" y="-265.8" font-family="Times,serif" font-size="14.00" fill="#000000"> </text>
<text text-anchor="start" x="973" y="-265.8" font-family="Times,serif" font-style="italic" font-size="14.00" fill="#000000">(mandatory)</text>
<polygon fill="#ddeeff" stroke="transparent" points="854,-237 854,-258 1049,-258 1049,-237 854,-237"/>
<polygon fill="none" stroke="#8ccbf2" points="854,-237 854,-258 1049,-258 1049,-237 854,-237"/>
<text text-anchor="start" x="857" y="-244.8" font-family="mono" font-size="14.00" fill="#c83500">name</text>
<text text-anchor="start" x="891" y="-244.8" font-family="Times,serif" font-size="14.00" fill="#000000"> : </text>
<text text-anchor="start" x="903" y="-244.8" font-family="mono" font-size="14.00" fill="#c83500">string</text>
<polygon fill="#ddeeff" stroke="transparent" points="854,-216 854,-237 1049,-237 1049,-216 854,-216"/>
<polygon fill="none" stroke="#8ccbf2" points="854,-216 854,-237 1049,-237 1049,-216 854,-216"/>
<text text-anchor="start" x="857" y="-223.8" font-family="mono" font-size="14.00" fill="#c83500">authorization</text>
<text text-anchor="start" x="965" y="-223.8" font-family="Times,serif" font-size="14.00" fill="#000000"> : </text>
<text text-anchor="start" x="977" y="-223.8" font-family="mono" font-size="14.00" fill="#c83500">anyURI</text>
<polygon fill="#ddeeff" stroke="transparent" points="854,-195 854,-216 1049,-216 1049,-195 854,-195"/>
<polygon fill="none" stroke="#8ccbf2" points="854,-195 854,-216 1049,-216 1049,-195 854,-195"/>
<text text-anchor="start" x="857" y="-202.8" font-family="mono" font-size="14.00" fill="#c83500">in</text>
<text text-anchor="start" x="874" y="-202.8" font-family="Times,serif" font-size="14.00" fill="#000000"> : </text>
<text text-anchor="start" x="886" y="-202.8" font-family="mono" font-size="14.00" fill="#c83500">string</text>
<text text-anchor="start" x="936" y="-202.8" font-family="Times,serif" font-size="14.00" fill="#000000"> </text>
<text text-anchor="start" x="940" y="-202.8" font-family="Times,serif" font-style="italic" font-size="14.00" fill="#000000">(mandatory)</text>
<polygon fill="#ddeeff" stroke="transparent" points="854,-174 854,-195 1049,-195 1049,-174 854,-174"/>
<polygon fill="none" stroke="#8ccbf2" points="854,-174 854,-195 1049,-195 1049,-174 854,-174"/>
<text text-anchor="start" x="857" y="-181.8" font-family="mono" font-size="14.00" fill="#c83500">alg</text>
<text text-anchor="start" x="882" y="-181.8" font-family="Times,serif" font-size="14.00" fill="#000000"> : </text>
<text text-anchor="start" x="894" y="-181.8" font-family="mono" font-size="14.00" fill="#c83500">string</text>
<text text-anchor="start" x="944" y="-181.8" font-family="Times,serif" font-size="14.00" fill="#000000"> </text>
<text text-anchor="start" x="948" y="-181.8" font-family="Times,serif" font-style="italic" font-size="14.00" fill="#000000">(mandatory)</text>
</g>
<!-- PoPSecurityScheme&#45;&gt;SecurityScheme -->
<g id="edge1" class="edge">
<title>PoPSecurityScheme&#45;&gt;SecurityScheme</title>
<path fill="none" stroke="#000000" d="M994.0797,-169.8115C999.7616,-160.9497 1005.617,-151.8176 1011.3834,-142.824"/>
<polygon fill="#ffffff" stroke="#000000" points="1014.4251,-144.5646 1016.8763,-134.2572 1008.5323,-140.7862 1014.4251,-144.5646"/>
</g>
<!-- PublicSecurityScheme -->
<g id="node7" class="node">
<title>PublicSecurityScheme</title>
<polygon fill="#8ccbf2" stroke="transparent" points="1083,-237 1083,-258 1255,-258 1255,-237 1083,-237"/>
<polygon fill="none" stroke="#8ccbf2" points="1083,-237 1083,-258 1255,-258 1255,-237 1083,-237"/>
<text text-anchor="start" x="1086" y="-244.8" font-family="mono" font-weight="bold" font-size="14.00" fill="#c83500">PublicSecurityScheme</text>
<polygon fill="#ddeeff" stroke="transparent" points="1083,-216 1083,-237 1255,-237 1255,-216 1083,-216"/>
<polygon fill="none" stroke="#8ccbf2" points="1083,-216 1083,-237 1255,-237 1255,-216 1083,-216"/>
<text text-anchor="start" x="1086" y="-223.8" font-family="mono" font-size="14.00" fill="#c83500">identity</text>
<text text-anchor="start" x="1153" y="-223.8" font-family="Times,serif" font-size="14.00" fill="#000000"> : </text>
<text text-anchor="start" x="1165" y="-223.8" font-family="mono" font-size="14.00" fill="#c83500">string</text>
</g>
<!-- PublicSecurityScheme&#45;&gt;SecurityScheme -->
<g id="edge10" class="edge">
<title>PublicSecurityScheme&#45;&gt;SecurityScheme</title>
<path fill="none" stroke="#000000" d="M1152.9167,-211.9159C1141.1566,-193.5745 1124.5409,-167.6602 1108.6055,-142.8067"/>
<polygon fill="#ffffff" stroke="#000000" points="1111.3503,-140.6032 1103.0063,-134.0741 1105.4576,-144.3815 1111.3503,-140.6032"/>
</g>
<!-- DigestSecurityScheme -->
<g id="node8" class="node">
<title>DigestSecurityScheme</title>
<polygon fill="#8ccbf2" stroke="transparent" points="1289,-258 1289,-279 1461,-279 1461,-258 1289,-258"/>
<polygon fill="none" stroke="#8ccbf2" points="1289,-258 1289,-279 1461,-279 1461,-258 1289,-258"/>
<text text-anchor="start" x="1292" y="-265.8" font-family="mono" font-weight="bold" font-size="14.00" fill="#c83500">DigestSecurityScheme</text>
<polygon fill="#ddeeff" stroke="transparent" points="1289,-237 1289,-258 1461,-258 1461,-237 1289,-237"/>
<polygon fill="none" stroke="#8ccbf2" points="1289,-237 1289,-258 1461,-258 1461,-237 1289,-237"/>
<text text-anchor="start" x="1292" y="-244.8" font-family="mono" font-size="14.00" fill="#c83500">qop</text>
<text text-anchor="start" x="1317" y="-244.8" font-family="Times,serif" font-size="14.00" fill="#000000"> : </text>
<text text-anchor="start" x="1329" y="-244.8" font-family="mono" font-size="14.00" fill="#c83500">string</text>
<text text-anchor="start" x="1379" y="-244.8" font-family="Times,serif" font-size="14.00" fill="#000000"> </text>
<text text-anchor="start" x="1383" y="-244.8" font-family="Times,serif" font-style="italic" font-size="14.00" fill="#000000">(mandatory)</text>
<polygon fill="#ddeeff" stroke="transparent" points="1289,-216 1289,-237 1461,-237 1461,-216 1289,-216"/>
<polygon fill="none" stroke="#8ccbf2" points="1289,-216 1289,-237 1461,-237 1461,-216 1289,-216"/>
<text text-anchor="start" x="1292" y="-223.8" font-family="mono" font-size="14.00" fill="#c83500">in</text>
<text text-anchor="start" x="1309" y="-223.8" font-family="Times,serif" font-size="14.00" fill="#000000"> : </text>
<text text-anchor="start" x="1321" y="-223.8" font-family="mono" font-size="14.00" fill="#c83500">string</text>
<text text-anchor="start" x="1371" y="-223.8" font-family="Times,serif" font-size="14.00" fill="#000000"> </text>
<text text-anchor="start" x="1375" y="-223.8" font-family="Times,serif" font-style="italic" font-size="14.00" fill="#000000">(mandatory)</text>
<polygon fill="#ddeeff" stroke="transparent" points="1289,-195 1289,-216 1461,-216 1461,-195 1289,-195"/>
<polygon fill="none" stroke="#8ccbf2" points="1289,-195 1289,-216 1461,-216 1461,-195 1289,-195"/>
<text text-anchor="start" x="1292" y="-202.8" font-family="mono" font-size="14.00" fill="#c83500">name</text>
<text text-anchor="start" x="1326" y="-202.8" font-family="Times,serif" font-size="14.00" fill="#000000"> : </text>
<text text-anchor="start" x="1338" y="-202.8" font-family="mono" font-size="14.00" fill="#c83500">string</text>
</g>
<!-- DigestSecurityScheme&#45;&gt;SecurityScheme -->
<g id="edge4" class="edge">
<title>DigestSecurityScheme&#45;&gt;SecurityScheme</title>
<path fill="none" stroke="#000000" d="M1306.7551,-190.9223C1295.2989,-183.6767 1283.421,-176.4559 1272,-170 1252.9939,-159.2565 1232.7015,-148.5171 1212.4844,-138.2469"/>
<polygon fill="#ffffff" stroke="#000000" points="1214.0227,-135.1028 1203.5185,-133.7199 1210.8676,-141.3515 1214.0227,-135.1028"/>
</g>
<!-- NoSecurityScheme -->
<g id="node9" class="node">
<title>NoSecurityScheme</title>
<polygon fill="#8ccbf2" stroke="transparent" points="1496,-226 1496,-247 1635,-247 1635,-226 1496,-226"/>
<polygon fill="none" stroke="#8ccbf2" points="1496,-226 1496,-247 1635,-247 1635,-226 1496,-226"/>
<text text-anchor="start" x="1499" y="-233.8" font-family="mono" font-weight="bold" font-size="14.00" fill="#c83500">NoSecurityScheme</text>
</g>
<!-- NoSecurityScheme&#45;&gt;SecurityScheme -->
<g id="edge8" class="edge">
<title>NoSecurityScheme&#45;&gt;SecurityScheme</title>
<path fill="none" stroke="#000000" d="M1546.1871,-218.7373C1529.5429,-203.5588 1503.9344,-182.4933 1478,-170 1395.1855,-130.1058 1295.4646,-104.7707 1214.1966,-89.2134"/>
<polygon fill="#ffffff" stroke="#000000" points="1214.3479,-85.6805 1203.8731,-87.2705 1213.0532,-92.5598 1214.3479,-85.6805"/>
</g>
<!-- PSKSecurityScheme -->
<g id="node10" class="node">
<title>PSKSecurityScheme</title>
<polygon fill="#8ccbf2" stroke="transparent" points="1669,-237 1669,-258 1816,-258 1816,-237 1669,-237"/>
<polygon fill="none" stroke="#8ccbf2" points="1669,-237 1669,-258 1816,-258 1816,-237 1669,-237"/>
<text text-anchor="start" x="1672" y="-244.8" font-family="mono" font-weight="bold" font-size="14.00" fill="#c83500">PSKSecurityScheme</text>
<polygon fill="#ddeeff" stroke="transparent" points="1669,-216 1669,-237 1816,-237 1816,-216 1669,-216"/>
<polygon fill="none" stroke="#8ccbf2" points="1669,-216 1669,-237 1816,-237 1816,-216 1669,-216"/>
<text text-anchor="start" x="1672" y="-223.8" font-family="mono" font-size="14.00" fill="#c83500">identity</text>
<text text-anchor="start" x="1739" y="-223.8" font-family="Times,serif" font-size="14.00" fill="#000000"> : </text>
<text text-anchor="start" x="1751" y="-223.8" font-family="mono" font-size="14.00" fill="#c83500">string</text>
</g>
<!-- PSKSecurityScheme&#45;&gt;SecurityScheme -->
<g id="edge7" class="edge">
<title>PSKSecurityScheme&#45;&gt;SecurityScheme</title>
<path fill="none" stroke="#000000" d="M1715.3491,-211.8875C1698.4601,-197.3884 1675.4425,-180.0803 1652,-170 1575.1201,-136.9415 1362.0839,-104.8642 1213.7495,-85.5225"/>
<polygon fill="#ffffff" stroke="#000000" points="1213.9968,-82.0254 1203.6295,-84.2096 1213.0961,-88.9672 1213.9968,-82.0254"/>
</g>
<!-- CertSecurityScheme -->
<g id="node11" class="node">
<title>CertSecurityScheme</title>
<polygon fill="#8ccbf2" stroke="transparent" points="1850,-237 1850,-258 2005,-258 2005,-237 1850,-237"/>
<polygon fill="none" stroke="#8ccbf2" points="1850,-237 1850,-258 2005,-258 2005,-237 1850,-237"/>
<text text-anchor="start" x="1853" y="-244.8" font-family="mono" font-weight="bold" font-size="14.00" fill="#c83500">CertSecurityScheme</text>
<polygon fill="#ddeeff" stroke="transparent" points="1850,-216 1850,-237 2005,-237 2005,-216 1850,-216"/>
<polygon fill="none" stroke="#8ccbf2" points="1850,-216 1850,-237 2005,-237 2005,-216 1850,-216"/>
<text text-anchor="start" x="1853" y="-223.8" font-family="mono" font-size="14.00" fill="#c83500">identity</text>
<text text-anchor="start" x="1920" y="-223.8" font-family="Times,serif" font-size="14.00" fill="#000000"> : </text>
<text text-anchor="start" x="1932" y="-223.8" font-family="mono" font-size="14.00" fill="#c83500">string</text>
</g>
<!-- CertSecurityScheme&#45;&gt;SecurityScheme -->
<g id="edge6" class="edge">
<title>CertSecurityScheme&#45;&gt;SecurityScheme</title>
<path fill="none" stroke="#000000" d="M1899.5222,-211.9044C1881.8297,-197.2201 1857.607,-179.7103 1833,-170 1723.5052,-126.7918 1406.1097,-94.7596 1213.7669,-78.6563"/>
<polygon fill="#ffffff" stroke="#000000" points="1213.8202,-75.1488 1203.5643,-77.8073 1213.2396,-82.1246 1213.8202,-75.1488"/>
</g>
</g>
</svg>
