<?xml version="1.0" encoding="UTF-8" standalone="no"?>
<!DOCTYPE svg PUBLIC "-//W3C//DTD SVG 1.1//EN"
 "http://www.w3.org/Graphics/SVG/1.1/DTD/svg11.dtd">
<!-- Generated by graphviz version 2.40.1 (20161225.0304)
 -->
<!-- Title: %3 Pages: 1 -->
<svg width="1889pt" height="270pt"
 viewBox="0.00 0.00 1889.00 270.00" xmlns="http://www.w3.org/2000/svg" xmlns:xlink="http://www.w3.org/1999/xlink">
<g id="graph0" class="graph" transform="scale(1 1) rotate(0) translate(4 266)">
<title>%3</title>
<polygon fill="#ffffff" stroke="transparent" points="-4,4 -4,-266 1885,-266 1885,4 -4,4"/>
<!-- APIKeySecurityScheme -->
<g id="node1" class="node">
<title>APIKeySecurityScheme</title>
<polygon fill="#8ccbf2" stroke="transparent" points="8,-205 8,-226 174,-226 174,-205 8,-205"/>
<polygon fill="none" stroke="#8ccbf2" points="8,-205 8,-226 174,-226 174,-205 8,-205"/>
<text text-anchor="start" x="11" y="-212.8" font-family="mono" font-weight="bold" font-size="14.00" fill="#c83500">APIKeySecurityScheme</text>
<polygon fill="#ddeeff" stroke="transparent" points="8,-184 8,-205 174,-205 174,-184 8,-184"/>
<polygon fill="none" stroke="#8ccbf2" points="8,-184 8,-205 174,-205 174,-184 8,-184"/>
<text text-anchor="start" x="11" y="-191.8" font-family="mono" font-size="14.00" fill="#c83500">in</text>
<text text-anchor="start" x="24" y="-191.8" font-family="Times,serif" font-size="14.00" fill="#000000"> : </text>
<text text-anchor="start" x="36" y="-191.8" font-family="mono" font-size="14.00" fill="#c83500">string</text>
<text text-anchor="start" x="76" y="-191.8" font-family="Times,serif" font-size="14.00" fill="#000000"> = query</text>
<polygon fill="#ddeeff" stroke="transparent" points="8,-163 8,-184 174,-184 174,-163 8,-163"/>
<polygon fill="none" stroke="#8ccbf2" points="8,-163 8,-184 174,-184 174,-163 8,-163"/>
<text text-anchor="start" x="11" y="-170.8" font-family="mono" font-size="14.00" fill="#c83500">name</text>
<text text-anchor="start" x="50" y="-170.8" font-family="Times,serif" font-size="14.00" fill="#000000"> : </text>
<text text-anchor="start" x="62" y="-170.8" font-family="mono" font-size="14.00" fill="#c83500">string</text>
</g>
<!-- SecurityScheme -->
<g id="node3" class="node">
<title>SecurityScheme</title>
<polygon fill="#8ccbf2" stroke="transparent" points="878,-67 878,-88 1066,-88 1066,-67 878,-67"/>
<polygon fill="none" stroke="#8ccbf2" points="878,-67 878,-88 1066,-88 1066,-67 878,-67"/>
<text text-anchor="start" x="916.5" y="-74.8" font-family="mono" font-weight="bold" font-size="14.00" fill="#c83500">SecurityScheme</text>
<polygon fill="#ddeeff" stroke="transparent" points="878,-46 878,-67 1066,-67 1066,-46 878,-46"/>
<polygon fill="none" stroke="#8ccbf2" points="878,-46 878,-67 1066,-67 1066,-46 878,-46"/>
<text text-anchor="start" x="881" y="-53.8" font-family="mono" font-size="14.00" fill="#c83500">description</text>
<text text-anchor="start" x="957" y="-53.8" font-family="Times,serif" font-size="14.00" fill="#000000"> : </text>
<text text-anchor="start" x="969" y="-53.8" font-family="mono" font-size="14.00" fill="#c83500">string</text>
<polygon fill="#ddeeff" stroke="transparent" points="878,-25 878,-46 1066,-46 1066,-25 878,-25"/>
<polygon fill="none" stroke="#8ccbf2" points="878,-25 878,-46 1066,-46 1066,-25 878,-25"/>
<text text-anchor="start" x="881" y="-32.8" font-family="mono" font-size="14.00" fill="#c83500">scheme</text>
<text text-anchor="start" x="934" y="-32.8" font-family="Times,serif" font-size="14.00" fill="#000000"> : </text>
<text text-anchor="start" x="946" y="-32.8" font-family="mono" font-size="14.00" fill="#c83500">string</text>
<text text-anchor="start" x="986" y="-32.8" font-family="Times,serif" font-size="14.00" fill="#000000"> </text>
<text text-anchor="start" x="990" y="-32.8" font-family="Times,serif" font-style="italic" font-size="14.00" fill="#000000">(mandatory)</text>
<polygon fill="#ddeeff" stroke="transparent" points="878,-4 878,-25 1066,-25 1066,-4 878,-4"/>
<polygon fill="none" stroke="#8ccbf2" points="878,-4 878,-25 1066,-25 1066,-4 878,-4"/>
<text text-anchor="start" x="881" y="-11.8" font-family="mono" font-size="14.00" fill="#c83500">proxy</text>
<text text-anchor="start" x="919" y="-11.8" font-family="Times,serif" font-size="14.00" fill="#000000"> : </text>
<text text-anchor="start" x="931" y="-11.8" font-family="mono" font-size="14.00" fill="#c83500">anyURI</text>
</g>
<!-- APIKeySecurityScheme&#45;&gt;SecurityScheme -->
<g id="edge4" class="edge">
<title>APIKeySecurityScheme&#45;&gt;SecurityScheme</title>
<path fill="none" stroke="#000000" d="M134.7491,-159.3186C151.667,-147.3751 171.8034,-135.2633 192,-128 312.0739,-84.8177 674.4242,-60.9122 859.9305,-51.2037"/>
<polygon fill="#ffffff" stroke="#000000" points="860.1823,-54.6954 869.9876,-50.6822 859.8197,-47.7048 860.1823,-54.6954"/>
</g>
<!-- OAuth2SecurityScheme -->
<g id="node2" class="node">
<title>OAuth2SecurityScheme</title>
<polygon fill="#8ccbf2" stroke="transparent" points="209,-237 209,-258 380,-258 380,-237 209,-237"/>
<polygon fill="none" stroke="#8ccbf2" points="209,-237 209,-258 380,-258 380,-237 209,-237"/>
<text text-anchor="start" x="212" y="-244.8" font-family="mono" font-weight="bold" font-size="14.00" fill="#c83500">OAuth2SecurityScheme</text>
<polygon fill="#ddeeff" stroke="transparent" points="209,-216 209,-237 380,-237 380,-216 209,-216"/>
<polygon fill="none" stroke="#8ccbf2" points="209,-216 209,-237 380,-237 380,-216 209,-216"/>
<text text-anchor="start" x="212" y="-223.8" font-family="mono" font-size="14.00" fill="#c83500">refresh</text>
<text text-anchor="start" x="260" y="-223.8" font-family="Times,serif" font-size="14.00" fill="#000000"> : </text>
<text text-anchor="start" x="272" y="-223.8" font-family="mono" font-size="14.00" fill="#c83500">anyURI</text>
<polygon fill="#ddeeff" stroke="transparent" points="209,-195 209,-216 380,-216 380,-195 209,-195"/>
<polygon fill="none" stroke="#8ccbf2" points="209,-195 209,-216 380,-216 380,-195 209,-195"/>
<text text-anchor="start" x="212" y="-202.8" font-family="mono" font-size="14.00" fill="#c83500">flow</text>
<text text-anchor="start" x="241" y="-202.8" font-family="Times,serif" font-size="14.00" fill="#000000"> : </text>
<text text-anchor="start" x="253" y="-202.8" font-family="mono" font-size="14.00" fill="#c83500">string</text>
<text text-anchor="start" x="293" y="-202.8" font-family="Times,serif" font-size="14.00" fill="#000000"> = implicit</text>
<polygon fill="#ddeeff" stroke="transparent" points="209,-174 209,-195 380,-195 380,-174 209,-174"/>
<polygon fill="none" stroke="#8ccbf2" points="209,-174 209,-195 380,-195 380,-174 209,-174"/>
<text text-anchor="start" x="212" y="-181.8" font-family="mono" font-size="14.00" fill="#c83500">scopes</text>
<text text-anchor="start" x="259" y="-181.8" font-family="Times,serif" font-size="14.00" fill="#000000"> : array of </text>
<text text-anchor="start" x="319" y="-181.8" font-family="mono" font-size="14.00" fill="#c83500">string</text>
<polygon fill="#ddeeff" stroke="transparent" points="209,-153 209,-174 380,-174 380,-153 209,-153"/>
<polygon fill="none" stroke="#8ccbf2" points="209,-153 209,-174 380,-174 380,-153 209,-153"/>
<text text-anchor="start" x="212" y="-160.8" font-family="mono" font-size="14.00" fill="#c83500">authorization</text>
<text text-anchor="start" x="303" y="-160.8" font-family="Times,serif" font-size="14.00" fill="#000000"> : </text>
<text text-anchor="start" x="315" y="-160.8" font-family="mono" font-size="14.00" fill="#c83500">anyURI</text>
<polygon fill="#ddeeff" stroke="transparent" points="209,-132 209,-153 380,-153 380,-132 209,-132"/>
<polygon fill="none" stroke="#8ccbf2" points="209,-132 209,-153 380,-153 380,-132 209,-132"/>
<text text-anchor="start" x="212" y="-139.8" font-family="mono" font-size="14.00" fill="#c83500">token</text>
<text text-anchor="start" x="252" y="-139.8" font-family="Times,serif" font-size="14.00" fill="#000000"> : </text>
<text text-anchor="start" x="264" y="-139.8" font-family="mono" font-size="14.00" fill="#c83500">anyURI</text>
</g>
<!-- OAuth2SecurityScheme&#45;&gt;SecurityScheme -->
<g id="edge2" class="edge">
<title>OAuth2SecurityScheme&#45;&gt;SecurityScheme</title>
<path fill="none" stroke="#000000" d="M387.6797,-131.3901C390.4491,-130.1827 393.2253,-129.0485 396,-128 478.5839,-96.7928 716.9507,-69.9709 859.8483,-56.0961"/>
<polygon fill="#ffffff" stroke="#000000" points="860.3509,-59.564 869.9684,-55.1196 859.6785,-52.5963 860.3509,-59.564"/>
</g>
<!-- BearerSecurityScheme -->
<g id="node4" class="node">
<title>BearerSecurityScheme</title>
<polygon fill="#8ccbf2" stroke="transparent" points="414,-237 414,-258 577,-258 577,-237 414,-237"/>
<polygon fill="none" stroke="#8ccbf2" points="414,-237 414,-258 577,-258 577,-237 414,-237"/>
<text text-anchor="start" x="417" y="-244.8" font-family="mono" font-weight="bold" font-size="14.00" fill="#c83500">BearerSecurityScheme</text>
<polygon fill="#ddeeff" stroke="transparent" points="414,-216 414,-237 577,-237 577,-216 414,-216"/>
<polygon fill="none" stroke="#8ccbf2" points="414,-216 414,-237 577,-237 577,-216 414,-216"/>
<text text-anchor="start" x="417" y="-223.8" font-family="mono" font-size="14.00" fill="#c83500">format</text>
<text text-anchor="start" x="463" y="-223.8" font-family="Times,serif" font-size="14.00" fill="#000000"> : </text>
<text text-anchor="start" x="475" y="-223.8" font-family="mono" font-size="14.00" fill="#c83500">string</text>
<text text-anchor="start" x="515" y="-223.8" font-family="Times,serif" font-size="14.00" fill="#000000"> = jwt</text>
<polygon fill="#ddeeff" stroke="transparent" points="414,-195 414,-216 577,-216 577,-195 414,-195"/>
<polygon fill="none" stroke="#8ccbf2" points="414,-195 414,-216 577,-216 577,-195 414,-195"/>
<text text-anchor="start" x="417" y="-202.8" font-family="mono" font-size="14.00" fill="#c83500">authorization</text>
<text text-anchor="start" x="508" y="-202.8" font-family="Times,serif" font-size="14.00" fill="#000000"> : </text>
<text text-anchor="start" x="520" y="-202.8" font-family="mono" font-size="14.00" fill="#c83500">anyURI</text>
<polygon fill="#ddeeff" stroke="transparent" points="414,-174 414,-195 577,-195 577,-174 414,-174"/>
<polygon fill="none" stroke="#8ccbf2" points="414,-174 414,-195 577,-195 577,-174 414,-174"/>
<text text-anchor="start" x="417" y="-181.8" font-family="mono" font-size="14.00" fill="#c83500">name</text>
<text text-anchor="start" x="456" y="-181.8" font-family="Times,serif" font-size="14.00" fill="#000000"> : </text>
<text text-anchor="start" x="468" y="-181.8" font-family="mono" font-size="14.00" fill="#c83500">string</text>
<polygon fill="#ddeeff" stroke="transparent" points="414,-153 414,-174 577,-174 577,-153 414,-153"/>
<polygon fill="none" stroke="#8ccbf2" points="414,-153 414,-174 577,-174 577,-153 414,-153"/>
<text text-anchor="start" x="417" y="-160.8" font-family="mono" font-size="14.00" fill="#c83500">alg</text>
<text text-anchor="start" x="438" y="-160.8" font-family="Times,serif" font-size="14.00" fill="#000000"> : </text>
<text text-anchor="start" x="450" y="-160.8" font-family="mono" font-size="14.00" fill="#c83500">string</text>
<text text-anchor="start" x="490" y="-160.8" font-family="Times,serif" font-size="14.00" fill="#000000"> = ES256</text>
<polygon fill="#ddeeff" stroke="transparent" points="414,-132 414,-153 577,-153 577,-132 414,-132"/>
<polygon fill="none" stroke="#8ccbf2" points="414,-132 414,-153 577,-153 577,-132 414,-132"/>
<text text-anchor="start" x="417" y="-139.8" font-family="mono" font-size="14.00" fill="#c83500">in</text>
<text text-anchor="start" x="430" y="-139.8" font-family="Times,serif" font-size="14.00" fill="#000000"> : </text>
<text text-anchor="start" x="442" y="-139.8" font-family="mono" font-size="14.00" fill="#c83500">string</text>
<text text-anchor="start" x="482" y="-139.8" font-family="Times,serif" font-size="14.00" fill="#000000"> = header</text>
</g>
<!-- BearerSecurityScheme&#45;&gt;SecurityScheme -->
<g id="edge3" class="edge">
<title>BearerSecurityScheme&#45;&gt;SecurityScheme</title>
<path fill="none" stroke="#000000" d="M584.5526,-132.3361C587.698,-130.7987 590.8517,-129.347 594,-128 679.23,-91.5333 782.4617,-70.5509 859.4944,-58.9573"/>
<polygon fill="#ffffff" stroke="#000000" points="860.3251,-62.3727 869.7078,-57.4519 859.3043,-55.4476 860.3251,-62.3727"/>
</g>
<!-- BasicSecurityScheme -->
<g id="node5" class="node">
<title>BasicSecurityScheme</title>
<polygon fill="#8ccbf2" stroke="transparent" points="611,-205 611,-226 763,-226 763,-205 611,-205"/>
<polygon fill="none" stroke="#8ccbf2" points="611,-205 611,-226 763,-226 763,-205 611,-205"/>
<text text-anchor="start" x="614" y="-212.8" font-family="mono" font-weight="bold" font-size="14.00" fill="#c83500">BasicSecurityScheme</text>
<polygon fill="#ddeeff" stroke="transparent" points="611,-184 611,-205 763,-205 763,-184 611,-184"/>
<polygon fill="none" stroke="#8ccbf2" points="611,-184 611,-205 763,-205 763,-184 611,-184"/>
<text text-anchor="start" x="614" y="-191.8" font-family="mono" font-size="14.00" fill="#c83500">name</text>
<text text-anchor="start" x="653" y="-191.8" font-family="Times,serif" font-size="14.00" fill="#000000"> : </text>
<text text-anchor="start" x="665" y="-191.8" font-family="mono" font-size="14.00" fill="#c83500">string</text>
<polygon fill="#ddeeff" stroke="transparent" points="611,-163 611,-184 763,-184 763,-163 611,-163"/>
<polygon fill="none" stroke="#8ccbf2" points="611,-163 611,-184 763,-184 763,-163 611,-163"/>
<text text-anchor="start" x="614" y="-170.8" font-family="mono" font-size="14.00" fill="#c83500">in</text>
<text text-anchor="start" x="627" y="-170.8" font-family="Times,serif" font-size="14.00" fill="#000000"> : </text>
<text text-anchor="start" x="639" y="-170.8" font-family="mono" font-size="14.00" fill="#c83500">string</text>
<text text-anchor="start" x="679" y="-170.8" font-family="Times,serif" font-size="14.00" fill="#000000"> = header</text>
</g>
<!-- BasicSecurityScheme&#45;&gt;SecurityScheme -->
<g id="edge1" class="edge">
<title>BasicSecurityScheme&#45;&gt;SecurityScheme</title>
<path fill="none" stroke="#000000" d="M732.4968,-159.1681C747.2044,-148.4286 763.8845,-137.0985 780,-128 805.2696,-113.7332 833.5121,-100.37 860.3966,-88.7405"/>
<polygon fill="#ffffff" stroke="#000000" points="862.0242,-91.8512 869.8422,-84.7007 859.2715,-85.4151 862.0242,-91.8512"/>
</g>
<!-- PoPSecurityScheme -->
<g id="node6" class="node">
<title>PoPSecurityScheme</title>
<polygon fill="#8ccbf2" stroke="transparent" points="798,-237 798,-258 955,-258 955,-237 798,-237"/>
<polygon fill="none" stroke="#8ccbf2" points="798,-237 798,-258 955,-258 955,-237 798,-237"/>
<text text-anchor="start" x="807.5" y="-244.8" font-family="mono" font-weight="bold" font-size="14.00" fill="#c83500">PoPSecurityScheme</text>
<polygon fill="#ddeeff" stroke="transparent" points="798,-216 798,-237 955,-237 955,-216 798,-216"/>
<polygon fill="none" stroke="#8ccbf2" points="798,-216 798,-237 955,-237 955,-216 798,-216"/>
<text text-anchor="start" x="801" y="-223.8" font-family="mono" font-size="14.00" fill="#c83500">authorization</text>
<text text-anchor="start" x="892" y="-223.8" font-family="Times,serif" font-size="14.00" fill="#000000"> : </text>
<text text-anchor="start" x="904" y="-223.8" font-family="mono" font-size="14.00" fill="#c83500">anyURI</text>
<polygon fill="#ddeeff" stroke="transparent" points="798,-195 798,-216 955,-216 955,-195 798,-195"/>
<polygon fill="none" stroke="#8ccbf2" points="798,-195 798,-216 955,-216 955,-195 798,-195"/>
<text text-anchor="start" x="801" y="-202.8" font-family="mono" font-size="14.00" fill="#c83500">alg</text>
<text text-anchor="start" x="822" y="-202.8" font-family="Times,serif" font-size="14.00" fill="#000000"> : </text>
<text text-anchor="start" x="834" y="-202.8" font-family="mono" font-size="14.00" fill="#c83500">string</text>
<text text-anchor="start" x="874" y="-202.8" font-family="Times,serif" font-size="14.00" fill="#000000"> = ES256</text>
<polygon fill="#ddeeff" stroke="transparent" points="798,-174 798,-195 955,-195 955,-174 798,-174"/>
<polygon fill="none" stroke="#8ccbf2" points="798,-174 798,-195 955,-195 955,-174 798,-174"/>
<text text-anchor="start" x="801" y="-181.8" font-family="mono" font-size="14.00" fill="#c83500">in</text>
<text text-anchor="start" x="814" y="-181.8" font-family="Times,serif" font-size="14.00" fill="#000000"> : </text>
<text text-anchor="start" x="826" y="-181.8" font-family="mono" font-size="14.00" fill="#c83500">string</text>
<text text-anchor="start" x="866" y="-181.8" font-family="Times,serif" font-size="14.00" fill="#000000"> = header</text>
<polygon fill="#ddeeff" stroke="transparent" points="798,-153 798,-174 955,-174 955,-153 798,-153"/>
<polygon fill="none" stroke="#8ccbf2" points="798,-153 798,-174 955,-174 955,-153 798,-153"/>
<text text-anchor="start" x="801" y="-160.8" font-family="mono" font-size="14.00" fill="#c83500">name</text>
<text text-anchor="start" x="840" y="-160.8" font-family="Times,serif" font-size="14.00" fill="#000000"> : </text>
<text text-anchor="start" x="852" y="-160.8" font-family="mono" font-size="14.00" fill="#c83500">string</text>
<polygon fill="#ddeeff" stroke="transparent" points="798,-132 798,-153 955,-153 955,-132 798,-132"/>
<polygon fill="none" stroke="#8ccbf2" points="798,-132 798,-153 955,-153 955,-132 798,-132"/>
<text text-anchor="start" x="801" y="-139.8" font-family="mono" font-size="14.00" fill="#c83500">format</text>
<text text-anchor="start" x="847" y="-139.8" font-family="Times,serif" font-size="14.00" fill="#000000"> : </text>
<text text-anchor="start" x="859" y="-139.8" font-family="mono" font-size="14.00" fill="#c83500">string</text>
<text text-anchor="start" x="899" y="-139.8" font-family="Times,serif" font-size="14.00" fill="#000000"> = jwt</text>
</g>
<!-- PoPSecurityScheme&#45;&gt;SecurityScheme -->
<g id="edge7" class="edge">
<title>PoPSecurityScheme&#45;&gt;SecurityScheme</title>
<path fill="none" stroke="#000000" d="M919.2258,-127.91C925.0486,-118.8725 930.966,-109.6882 936.6307,-100.896"/>
<polygon fill="#ffffff" stroke="#000000" points="939.7244,-102.5565 942.1984,-92.2546 933.84,-98.7652 939.7244,-102.5565"/>
</g>
<!-- PublicSecurityScheme -->
<g id="node7" class="node">
<title>PublicSecurityScheme</title>
<polygon fill="#8ccbf2" stroke="transparent" points="989,-195 989,-216 1148,-216 1148,-195 989,-195"/>
<polygon fill="none" stroke="#8ccbf2" points="989,-195 989,-216 1148,-216 1148,-195 989,-195"/>
<text text-anchor="start" x="992" y="-202.8" font-family="mono" font-weight="bold" font-size="14.00" fill="#c83500">PublicSecurityScheme</text>
<polygon fill="#ddeeff" stroke="transparent" points="989,-174 989,-195 1148,-195 1148,-174 989,-174"/>
<polygon fill="none" stroke="#8ccbf2" points="989,-174 989,-195 1148,-195 1148,-174 989,-174"/>
<text text-anchor="start" x="992" y="-181.8" font-family="mono" font-size="14.00" fill="#c83500">identity</text>
<text text-anchor="start" x="1044" y="-181.8" font-family="Times,serif" font-size="14.00" fill="#000000"> : </text>
<text text-anchor="start" x="1056" y="-181.8" font-family="mono" font-size="14.00" fill="#c83500">string</text>
</g>
<!-- PublicSecurityScheme&#45;&gt;SecurityScheme -->
<g id="edge6" class="edge">
<title>PublicSecurityScheme&#45;&gt;SecurityScheme</title>
<path fill="none" stroke="#000000" d="M1051.7149,-169.7242C1039.5658,-150.8677 1022.5102,-124.3961 1007.2914,-100.7752"/>
<polygon fill="#ffffff" stroke="#000000" points="1010.1384,-98.7318 1001.7801,-92.2212 1004.254,-102.5231 1010.1384,-98.7318"/>
</g>
<!-- DigestSecurityScheme -->
<g id="node8" class="node">
<title>DigestSecurityScheme</title>
<polygon fill="#8ccbf2" stroke="transparent" points="1182,-216 1182,-237 1343,-237 1343,-216 1182,-216"/>
<polygon fill="none" stroke="#8ccbf2" points="1182,-216 1182,-237 1343,-237 1343,-216 1182,-216"/>
<text text-anchor="start" x="1185" y="-223.8" font-family="mono" font-weight="bold" font-size="14.00" fill="#c83500">DigestSecurityScheme</text>
<polygon fill="#ddeeff" stroke="transparent" points="1182,-195 1182,-216 1343,-216 1343,-195 1182,-195"/>
<polygon fill="none" stroke="#8ccbf2" points="1182,-195 1182,-216 1343,-216 1343,-195 1182,-195"/>
<text text-anchor="start" x="1185" y="-202.8" font-family="mono" font-size="14.00" fill="#c83500">qop</text>
<text text-anchor="start" x="1213" y="-202.8" font-family="Times,serif" font-size="14.00" fill="#000000"> : </text>
<text text-anchor="start" x="1225" y="-202.8" font-family="mono" font-size="14.00" fill="#c83500">string</text>
<text text-anchor="start" x="1265" y="-202.8" font-family="Times,serif" font-size="14.00" fill="#000000"> = auth</text>
<polygon fill="#ddeeff" stroke="transparent" points="1182,-174 1182,-195 1343,-195 1343,-174 1182,-174"/>
<polygon fill="none" stroke="#8ccbf2" points="1182,-174 1182,-195 1343,-195 1343,-174 1182,-174"/>
<text text-anchor="start" x="1185" y="-181.8" font-family="mono" font-size="14.00" fill="#c83500">name</text>
<text text-anchor="start" x="1224" y="-181.8" font-family="Times,serif" font-size="14.00" fill="#000000"> : </text>
<text text-anchor="start" x="1236" y="-181.8" font-family="mono" font-size="14.00" fill="#c83500">string</text>
<polygon fill="#ddeeff" stroke="transparent" points="1182,-153 1182,-174 1343,-174 1343,-153 1182,-153"/>
<polygon fill="none" stroke="#8ccbf2" points="1182,-153 1182,-174 1343,-174 1343,-153 1182,-153"/>
<text text-anchor="start" x="1185" y="-160.8" font-family="mono" font-size="14.00" fill="#c83500">in</text>
<text text-anchor="start" x="1198" y="-160.8" font-family="Times,serif" font-size="14.00" fill="#000000"> : </text>
<text text-anchor="start" x="1210" y="-160.8" font-family="mono" font-size="14.00" fill="#c83500">string</text>
<text text-anchor="start" x="1250" y="-160.8" font-family="Times,serif" font-size="14.00" fill="#000000"> = header</text>
</g>
<!-- DigestSecurityScheme&#45;&gt;SecurityScheme -->
<g id="edge5" class="edge">
<title>DigestSecurityScheme&#45;&gt;SecurityScheme</title>
<path fill="none" stroke="#000000" d="M1199.2578,-148.9516C1188.0917,-141.5464 1176.3861,-134.2664 1165,-128 1139.3224,-113.8682 1110.7075,-100.515 1083.5422,-88.8484"/>
<polygon fill="#ffffff" stroke="#000000" points="1084.5735,-85.4838 1074.0012,-84.7936 1081.8356,-91.9261 1084.5735,-85.4838"/>
</g>
<!-- NoSecurityScheme -->
<g id="node9" class="node">
<title>NoSecurityScheme</title>
<polygon fill="#8ccbf2" stroke="transparent" points="1377,-184 1377,-205 1515,-205 1515,-184 1377,-184"/>
<polygon fill="none" stroke="#8ccbf2" points="1377,-184 1377,-205 1515,-205 1515,-184 1377,-184"/>
<text text-anchor="start" x="1380" y="-191.8" font-family="mono" font-weight="bold" font-size="14.00" fill="#c83500">NoSecurityScheme</text>
</g>
<!-- NoSecurityScheme&#45;&gt;SecurityScheme -->
<g id="edge9" class="edge">
<title>NoSecurityScheme&#45;&gt;SecurityScheme</title>
<path fill="none" stroke="#000000" d="M1427.617,-176.8253C1411.0468,-161.489 1385.3088,-140.1463 1359,-128 1271.5469,-87.6246 1163.7603,-66.877 1084.1688,-56.3694"/>
<polygon fill="#ffffff" stroke="#000000" points="1084.4797,-52.8806 1074.1149,-55.0766 1083.5869,-59.8234 1084.4797,-52.8806"/>
</g>
<!-- PSKSecurityScheme -->
<g id="node10" class="node">
<title>PSKSecurityScheme</title>
<polygon fill="#8ccbf2" stroke="transparent" points="1550,-195 1550,-216 1693,-216 1693,-195 1550,-195"/>
<polygon fill="none" stroke="#8ccbf2" points="1550,-195 1550,-216 1693,-216 1693,-195 1550,-195"/>
<text text-anchor="start" x="1553" y="-202.8" font-family="mono" font-weight="bold" font-size="14.00" fill="#c83500">PSKSecurityScheme</text>
<polygon fill="#ddeeff" stroke="transparent" points="1550,-174 1550,-195 1693,-195 1693,-174 1550,-174"/>
<polygon fill="none" stroke="#8ccbf2" points="1550,-174 1550,-195 1693,-195 1693,-174 1550,-174"/>
<text text-anchor="start" x="1553" y="-181.8" font-family="mono" font-size="14.00" fill="#c83500">identity</text>
<text text-anchor="start" x="1605" y="-181.8" font-family="Times,serif" font-size="14.00" fill="#000000"> : </text>
<text text-anchor="start" x="1617" y="-181.8" font-family="mono" font-size="14.00" fill="#c83500">string</text>
</g>
<!-- PSKSecurityScheme&#45;&gt;SecurityScheme -->
<g id="edge8" class="edge">
<title>PSKSecurityScheme&#45;&gt;SecurityScheme</title>
<path fill="none" stroke="#000000" d="M1595.1681,-169.9901C1578.4861,-155.338 1555.56,-137.832 1532,-128 1453.3208,-95.1657 1223.9914,-69.167 1084.4042,-55.8239"/>
<polygon fill="#ffffff" stroke="#000000" points="1084.3829,-52.3062 1074.097,-54.846 1083.7217,-59.2749 1084.3829,-52.3062"/>
</g>
<!-- CertSecurityScheme -->
<g id="node11" class="node">
<title>CertSecurityScheme</title>
<polygon fill="#8ccbf2" stroke="transparent" points="1727,-195 1727,-216 1873,-216 1873,-195 1727,-195"/>
<polygon fill="none" stroke="#8ccbf2" points="1727,-195 1727,-216 1873,-216 1873,-195 1727,-195"/>
<text text-anchor="start" x="1730" y="-202.8" font-family="mono" font-weight="bold" font-size="14.00" fill="#c83500">CertSecurityScheme</text>
<polygon fill="#ddeeff" stroke="transparent" points="1727,-174 1727,-195 1873,-195 1873,-174 1727,-174"/>
<polygon fill="none" stroke="#8ccbf2" points="1727,-174 1727,-195 1873,-195 1873,-174 1727,-174"/>
<text text-anchor="start" x="1730" y="-181.8" font-family="mono" font-size="14.00" fill="#c83500">identity</text>
<text text-anchor="start" x="1782" y="-181.8" font-family="Times,serif" font-size="14.00" fill="#000000"> : </text>
<text text-anchor="start" x="1794" y="-181.8" font-family="mono" font-size="14.00" fill="#c83500">string</text>
</g>
<!-- CertSecurityScheme&#45;&gt;SecurityScheme -->
<g id="edge10" class="edge">
<title>CertSecurityScheme&#45;&gt;SecurityScheme</title>
<path fill="none" stroke="#000000" d="M1773.6082,-169.7076C1756.5591,-154.9491 1733.1187,-137.4306 1709,-128 1597.9246,-84.5688 1261.5856,-61.0518 1084.2308,-51.3728"/>
<polygon fill="#ffffff" stroke="#000000" points="1084.2588,-47.8693 1074.0846,-50.8247 1083.8812,-54.8591 1084.2588,-47.8693"/>
</g>
</g>
</svg>
