<?xml version="1.0" encoding="UTF-8" standalone="no"?>
<!DOCTYPE svg PUBLIC "-//W3C//DTD SVG 1.1//EN"
 "http://www.w3.org/Graphics/SVG/1.1/DTD/svg11.dtd">
<!-- Generated by graphviz version 2.38.0 (20140413.2041)
 -->
<!-- Title: %3 Pages: 1 -->
<svg width="1980pt" height="270pt"
 viewBox="0.00 0.00 1979.50 270.00" xmlns="http://www.w3.org/2000/svg" xmlns:xlink="http://www.w3.org/1999/xlink">
<g id="graph0" class="graph" transform="scale(1 1) rotate(0) translate(4 266)">
<title>%3</title>
<polygon fill="white" stroke="none" points="-4,4 -4,-266 1975.5,-266 1975.5,4 -4,4"/>
<!-- APIKeySecurityScheme -->
<g id="node1" class="node"><title>APIKeySecurityScheme</title>
<polygon fill="#8ccbf2" stroke="none" points="8,-205 8,-226 180,-226 180,-205 8,-205"/>
<polygon fill="none" stroke="#8ccbf2" points="8,-205 8,-226 180,-226 180,-205 8,-205"/>
<text text-anchor="start" x="11" y="-212.8" font-family="mono" font-weight="bold" font-size="14.00" fill="#c83500">APIKeySecurityScheme</text>
<polygon fill="#ddeeff" stroke="none" points="8,-184 8,-205 180,-205 180,-184 8,-184"/>
<polygon fill="none" stroke="#8ccbf2" points="8,-184 8,-205 180,-205 180,-184 8,-184"/>
<text text-anchor="start" x="11" y="-191.8" font-family="mono" font-size="14.00" fill="#c83500">in</text>
<text text-anchor="start" x="28" y="-191.8" font-family="Times,serif" font-size="14.00"> : </text>
<text text-anchor="start" x="40" y="-191.8" font-family="mono" font-size="14.00" fill="#c83500">string</text>
<text text-anchor="start" x="90" y="-191.8" font-family="Times,serif" font-size="14.00"> = query</text>
<polygon fill="#ddeeff" stroke="none" points="8,-163 8,-184 180,-184 180,-163 8,-163"/>
<polygon fill="none" stroke="#8ccbf2" points="8,-163 8,-184 180,-184 180,-163 8,-163"/>
<text text-anchor="start" x="11" y="-170.8" font-family="mono" font-size="14.00" fill="#c83500">name</text>
<text text-anchor="start" x="45" y="-170.8" font-family="Times,serif" font-size="14.00"> : </text>
<text text-anchor="start" x="57" y="-170.8" font-family="mono" font-size="14.00" fill="#c83500">string</text>
</g>
<!-- SecurityScheme -->
<g id="node3" class="node"><title>SecurityScheme</title>
<polygon fill="#8ccbf2" stroke="none" points="929,-67 929,-88 1119,-88 1119,-67 929,-67"/>
<polygon fill="none" stroke="#8ccbf2" points="929,-67 929,-88 1119,-88 1119,-67 929,-67"/>
<text text-anchor="start" x="966" y="-74.8" font-family="mono" font-weight="bold" font-size="14.00" fill="#c83500">SecurityScheme</text>
<polygon fill="#ddeeff" stroke="none" points="929,-46 929,-67 1119,-67 1119,-46 929,-46"/>
<polygon fill="none" stroke="#8ccbf2" points="929,-46 929,-67 1119,-67 1119,-46 929,-46"/>
<text text-anchor="start" x="932" y="-53.8" font-family="mono" font-size="14.00" fill="#c83500">scheme</text>
<text text-anchor="start" x="982" y="-53.8" font-family="Times,serif" font-size="14.00"> : </text>
<text text-anchor="start" x="994" y="-53.8" font-family="mono" font-size="14.00" fill="#c83500">string</text>
<text text-anchor="start" x="1044" y="-53.8" font-family="Times,serif" font-size="14.00"> </text>
<text text-anchor="start" x="1048" y="-53.8" font-family="Times,serif" font-style="italic" font-size="14.00">(mandatory)</text>
<polygon fill="#ddeeff" stroke="none" points="929,-25 929,-46 1119,-46 1119,-25 929,-25"/>
<polygon fill="none" stroke="#8ccbf2" points="929,-25 929,-46 1119,-46 1119,-25 929,-25"/>
<text text-anchor="start" x="932" y="-32.8" font-family="mono" font-size="14.00" fill="#c83500">description</text>
<text text-anchor="start" x="1023" y="-32.8" font-family="Times,serif" font-size="14.00"> : </text>
<text text-anchor="start" x="1035" y="-32.8" font-family="mono" font-size="14.00" fill="#c83500">string</text>
<polygon fill="#ddeeff" stroke="none" points="929,-4 929,-25 1119,-25 1119,-4 929,-4"/>
<polygon fill="none" stroke="#8ccbf2" points="929,-4 929,-25 1119,-25 1119,-4 929,-4"/>
<text text-anchor="start" x="932" y="-11.8" font-family="mono" font-size="14.00" fill="#c83500">proxy</text>
<text text-anchor="start" x="974" y="-11.8" font-family="Times,serif" font-size="14.00"> : </text>
<text text-anchor="start" x="986" y="-11.8" font-family="mono" font-size="14.00" fill="#c83500">anyURI</text>
</g>
<!-- APIKeySecurityScheme&#45;&gt;SecurityScheme -->
<g id="edge5" class="edge"><title>APIKeySecurityScheme&#45;&gt;SecurityScheme</title>
<path fill="none" stroke="black" d="M137.743,-159.48C155.219,-147.485 176.131,-135.236 197,-128 325.886,-83.313 715.665,-60.4456 910.539,-51.547"/>
<polygon fill="white" stroke="black" points="910.978,-55.0309 920.809,-51.0827 910.661,-48.038 910.978,-55.0309"/>
</g>
<!-- OAuth2SecurityScheme -->
<g id="node2" class="node"><title>OAuth2SecurityScheme</title>
<polygon fill="#8ccbf2" stroke="none" points="214,-237 214,-258 390,-258 390,-237 214,-237"/>
<polygon fill="none" stroke="#8ccbf2" points="214,-237 214,-258 390,-258 390,-237 214,-237"/>
<text text-anchor="start" x="219" y="-244.8" font-family="mono" font-weight="bold" font-size="14.00" fill="#c83500">OAuth2SecurityScheme</text>
<polygon fill="#ddeeff" stroke="none" points="214,-216 214,-237 390,-237 390,-216 214,-216"/>
<polygon fill="none" stroke="#8ccbf2" points="214,-216 214,-237 390,-237 390,-216 214,-216"/>
<text text-anchor="start" x="217" y="-223.8" font-family="mono" font-size="14.00" fill="#c83500">scopes</text>
<text text-anchor="start" x="267" y="-223.8" font-family="Times,serif" font-size="14.00"> : array of </text>
<text text-anchor="start" x="325" y="-223.8" font-family="mono" font-size="14.00" fill="#c83500">string</text>
<polygon fill="#ddeeff" stroke="none" points="214,-195 214,-216 390,-216 390,-195 214,-195"/>
<polygon fill="none" stroke="#8ccbf2" points="214,-195 214,-216 390,-216 390,-195 214,-195"/>
<text text-anchor="start" x="217" y="-202.8" font-family="mono" font-size="14.00" fill="#c83500">refresh</text>
<text text-anchor="start" x="275" y="-202.8" font-family="Times,serif" font-size="14.00"> : </text>
<text text-anchor="start" x="287" y="-202.8" font-family="mono" font-size="14.00" fill="#c83500">anyURI</text>
<polygon fill="#ddeeff" stroke="none" points="214,-174 214,-195 390,-195 390,-174 214,-174"/>
<polygon fill="none" stroke="#8ccbf2" points="214,-174 214,-195 390,-195 390,-174 214,-174"/>
<text text-anchor="start" x="217" y="-181.8" font-family="mono" font-size="14.00" fill="#c83500">token</text>
<text text-anchor="start" x="259" y="-181.8" font-family="Times,serif" font-size="14.00"> : </text>
<text text-anchor="start" x="271" y="-181.8" font-family="mono" font-size="14.00" fill="#c83500">anyURI</text>
<polygon fill="#ddeeff" stroke="none" points="214,-153 214,-174 390,-174 390,-153 214,-153"/>
<polygon fill="none" stroke="#8ccbf2" points="214,-153 214,-174 390,-174 390,-153 214,-153"/>
<text text-anchor="start" x="217" y="-160.8" font-family="mono" font-size="14.00" fill="#c83500">authorization</text>
<text text-anchor="start" x="325" y="-160.8" font-family="Times,serif" font-size="14.00"> : </text>
<text text-anchor="start" x="337" y="-160.8" font-family="mono" font-size="14.00" fill="#c83500">anyURI</text>
<polygon fill="#ddeeff" stroke="none" points="214,-132 214,-153 390,-153 390,-132 214,-132"/>
<polygon fill="none" stroke="#8ccbf2" points="214,-132 214,-153 390,-153 390,-132 214,-132"/>
<text text-anchor="start" x="217" y="-139.8" font-family="mono" font-size="14.00" fill="#c83500">flow</text>
<text text-anchor="start" x="251" y="-139.8" font-family="Times,serif" font-size="14.00"> : </text>
<text text-anchor="start" x="263" y="-139.8" font-family="mono" font-size="14.00" fill="#c83500">string</text>
<text text-anchor="start" x="313" y="-139.8" font-family="Times,serif" font-size="14.00"> = implicit</text>
</g>
<!-- OAuth2SecurityScheme&#45;&gt;SecurityScheme -->
<g id="edge9" class="edge"><title>OAuth2SecurityScheme&#45;&gt;SecurityScheme</title>
<path fill="none" stroke="black" d="M398.186,-131.437C401.122,-130.209 404.063,-129.058 407,-128 575.48,-67.2916 784.461,-51.2409 910.857,-47.4685"/>
<polygon fill="white" stroke="black" points="911.043,-50.9648 920.942,-47.1884 910.848,-43.9675 911.043,-50.9648"/>
</g>
<!-- BearerSecurityScheme -->
<g id="node4" class="node"><title>BearerSecurityScheme</title>
<polygon fill="#8ccbf2" stroke="none" points="424,-237 424,-258 600,-258 600,-237 424,-237"/>
<polygon fill="none" stroke="#8ccbf2" points="424,-237 424,-258 600,-258 600,-237 424,-237"/>
<text text-anchor="start" x="429" y="-244.8" font-family="mono" font-weight="bold" font-size="14.00" fill="#c83500">BearerSecurityScheme</text>
<polygon fill="#ddeeff" stroke="none" points="424,-216 424,-237 600,-237 600,-216 424,-216"/>
<polygon fill="none" stroke="#8ccbf2" points="424,-216 424,-237 600,-237 600,-216 424,-216"/>
<text text-anchor="start" x="427" y="-223.8" font-family="mono" font-size="14.00" fill="#c83500">in</text>
<text text-anchor="start" x="444" y="-223.8" font-family="Times,serif" font-size="14.00"> : </text>
<text text-anchor="start" x="456" y="-223.8" font-family="mono" font-size="14.00" fill="#c83500">string</text>
<text text-anchor="start" x="506" y="-223.8" font-family="Times,serif" font-size="14.00"> = header</text>
<polygon fill="#ddeeff" stroke="none" points="424,-195 424,-216 600,-216 600,-195 424,-195"/>
<polygon fill="none" stroke="#8ccbf2" points="424,-195 424,-216 600,-216 600,-195 424,-195"/>
<text text-anchor="start" x="427" y="-202.8" font-family="mono" font-size="14.00" fill="#c83500">authorization</text>
<text text-anchor="start" x="535" y="-202.8" font-family="Times,serif" font-size="14.00"> : </text>
<text text-anchor="start" x="547" y="-202.8" font-family="mono" font-size="14.00" fill="#c83500">anyURI</text>
<polygon fill="#ddeeff" stroke="none" points="424,-174 424,-195 600,-195 600,-174 424,-174"/>
<polygon fill="none" stroke="#8ccbf2" points="424,-174 424,-195 600,-195 600,-174 424,-174"/>
<text text-anchor="start" x="427" y="-181.8" font-family="mono" font-size="14.00" fill="#c83500">format</text>
<text text-anchor="start" x="477" y="-181.8" font-family="Times,serif" font-size="14.00"> : </text>
<text text-anchor="start" x="489" y="-181.8" font-family="mono" font-size="14.00" fill="#c83500">string</text>
<text text-anchor="start" x="539" y="-181.8" font-family="Times,serif" font-size="14.00"> = jwt</text>
<polygon fill="#ddeeff" stroke="none" points="424,-153 424,-174 600,-174 600,-153 424,-153"/>
<polygon fill="none" stroke="#8ccbf2" points="424,-153 424,-174 600,-174 600,-153 424,-153"/>
<text text-anchor="start" x="427" y="-160.8" font-family="mono" font-size="14.00" fill="#c83500">alg</text>
<text text-anchor="start" x="452" y="-160.8" font-family="Times,serif" font-size="14.00"> : </text>
<text text-anchor="start" x="464" y="-160.8" font-family="mono" font-size="14.00" fill="#c83500">string</text>
<text text-anchor="start" x="514" y="-160.8" font-family="Times,serif" font-size="14.00"> = ES256</text>
<polygon fill="#ddeeff" stroke="none" points="424,-132 424,-153 600,-153 600,-132 424,-132"/>
<polygon fill="none" stroke="#8ccbf2" points="424,-132 424,-153 600,-153 600,-132 424,-132"/>
<text text-anchor="start" x="427" y="-139.8" font-family="mono" font-size="14.00" fill="#c83500">name</text>
<text text-anchor="start" x="461" y="-139.8" font-family="Times,serif" font-size="14.00"> : </text>
<text text-anchor="start" x="473" y="-139.8" font-family="mono" font-size="14.00" fill="#c83500">string</text>
</g>
<!-- BearerSecurityScheme&#45;&gt;SecurityScheme -->
<g id="edge2" class="edge"><title>BearerSecurityScheme&#45;&gt;SecurityScheme</title>
<path fill="none" stroke="black" d="M608.283,-131.694C611.19,-130.39 614.099,-129.155 617,-128 712.198,-90.1082 827.234,-69.3186 910.686,-58.3237"/>
<polygon fill="white" stroke="black" points="911.233,-61.7821 920.703,-57.0309 910.337,-54.8397 911.233,-61.7821"/>
</g>
<!-- BasicSecurityScheme -->
<g id="node5" class="node"><title>BasicSecurityScheme</title>
<polygon fill="#8ccbf2" stroke="none" points="635,-205 635,-226 798,-226 798,-205 635,-205"/>
<polygon fill="none" stroke="#8ccbf2" points="635,-205 635,-226 798,-226 798,-205 635,-205"/>
<text text-anchor="start" x="638" y="-212.8" font-family="mono" font-weight="bold" font-size="14.00" fill="#c83500">BasicSecurityScheme</text>
<polygon fill="#ddeeff" stroke="none" points="635,-184 635,-205 798,-205 798,-184 635,-184"/>
<polygon fill="none" stroke="#8ccbf2" points="635,-184 635,-205 798,-205 798,-184 635,-184"/>
<text text-anchor="start" x="638" y="-191.8" font-family="mono" font-size="14.00" fill="#c83500">in</text>
<text text-anchor="start" x="655" y="-191.8" font-family="Times,serif" font-size="14.00"> : </text>
<text text-anchor="start" x="667" y="-191.8" font-family="mono" font-size="14.00" fill="#c83500">string</text>
<text text-anchor="start" x="717" y="-191.8" font-family="Times,serif" font-size="14.00"> = header</text>
<polygon fill="#ddeeff" stroke="none" points="635,-163 635,-184 798,-184 798,-163 635,-163"/>
<polygon fill="none" stroke="#8ccbf2" points="635,-163 635,-184 798,-184 798,-163 635,-163"/>
<text text-anchor="start" x="638" y="-170.8" font-family="mono" font-size="14.00" fill="#c83500">name</text>
<text text-anchor="start" x="672" y="-170.8" font-family="Times,serif" font-size="14.00"> : </text>
<text text-anchor="start" x="684" y="-170.8" font-family="mono" font-size="14.00" fill="#c83500">string</text>
</g>
<!-- BasicSecurityScheme&#45;&gt;SecurityScheme -->
<g id="edge10" class="edge"><title>BasicSecurityScheme&#45;&gt;SecurityScheme</title>
<path fill="none" stroke="black" d="M763.301,-159.421C779.269,-148.583 797.492,-137.09 815,-128 845.282,-112.278 879.338,-97.8242 911.03,-85.6136"/>
<polygon fill="white" stroke="black" points="912.685,-88.7287 920.783,-81.8972 910.192,-82.1875 912.685,-88.7287"/>
</g>
<!-- PoPSecurityScheme -->
<g id="node6" class="node"><title>PoPSecurityScheme</title>
<polygon fill="#8ccbf2" stroke="none" points="832,-237 832,-258 1008,-258 1008,-237 832,-237"/>
<polygon fill="none" stroke="#8ccbf2" points="832,-237 832,-258 1008,-258 1008,-237 832,-237"/>
<text text-anchor="start" x="849.5" y="-244.8" font-family="mono" font-weight="bold" font-size="14.00" fill="#c83500">PoPSecurityScheme</text>
<polygon fill="#ddeeff" stroke="none" points="832,-216 832,-237 1008,-237 1008,-216 832,-216"/>
<polygon fill="none" stroke="#8ccbf2" points="832,-216 832,-237 1008,-237 1008,-216 832,-216"/>
<text text-anchor="start" x="835" y="-223.8" font-family="mono" font-size="14.00" fill="#c83500">format</text>
<text text-anchor="start" x="885" y="-223.8" font-family="Times,serif" font-size="14.00"> : </text>
<text text-anchor="start" x="897" y="-223.8" font-family="mono" font-size="14.00" fill="#c83500">string</text>
<text text-anchor="start" x="947" y="-223.8" font-family="Times,serif" font-size="14.00"> = jwt</text>
<polygon fill="#ddeeff" stroke="none" points="832,-195 832,-216 1008,-216 1008,-195 832,-195"/>
<polygon fill="none" stroke="#8ccbf2" points="832,-195 832,-216 1008,-216 1008,-195 832,-195"/>
<text text-anchor="start" x="835" y="-202.8" font-family="mono" font-size="14.00" fill="#c83500">name</text>
<text text-anchor="start" x="869" y="-202.8" font-family="Times,serif" font-size="14.00"> : </text>
<text text-anchor="start" x="881" y="-202.8" font-family="mono" font-size="14.00" fill="#c83500">string</text>
<polygon fill="#ddeeff" stroke="none" points="832,-174 832,-195 1008,-195 1008,-174 832,-174"/>
<polygon fill="none" stroke="#8ccbf2" points="832,-174 832,-195 1008,-195 1008,-174 832,-174"/>
<text text-anchor="start" x="835" y="-181.8" font-family="mono" font-size="14.00" fill="#c83500">alg</text>
<text text-anchor="start" x="860" y="-181.8" font-family="Times,serif" font-size="14.00"> : </text>
<text text-anchor="start" x="872" y="-181.8" font-family="mono" font-size="14.00" fill="#c83500">string</text>
<text text-anchor="start" x="922" y="-181.8" font-family="Times,serif" font-size="14.00"> = ES256</text>
<polygon fill="#ddeeff" stroke="none" points="832,-153 832,-174 1008,-174 1008,-153 832,-153"/>
<polygon fill="none" stroke="#8ccbf2" points="832,-153 832,-174 1008,-174 1008,-153 832,-153"/>
<text text-anchor="start" x="835" y="-160.8" font-family="mono" font-size="14.00" fill="#c83500">in</text>
<text text-anchor="start" x="852" y="-160.8" font-family="Times,serif" font-size="14.00"> : </text>
<text text-anchor="start" x="864" y="-160.8" font-family="mono" font-size="14.00" fill="#c83500">string</text>
<text text-anchor="start" x="914" y="-160.8" font-family="Times,serif" font-size="14.00"> = header</text>
<polygon fill="#ddeeff" stroke="none" points="832,-132 832,-153 1008,-153 1008,-132 832,-132"/>
<polygon fill="none" stroke="#8ccbf2" points="832,-132 832,-153 1008,-153 1008,-132 832,-132"/>
<text text-anchor="start" x="835" y="-139.8" font-family="mono" font-size="14.00" fill="#c83500">authorization</text>
<text text-anchor="start" x="943" y="-139.8" font-family="Times,serif" font-size="14.00"> : </text>
<text text-anchor="start" x="955" y="-139.8" font-family="mono" font-size="14.00" fill="#c83500">anyURI</text>
</g>
<!-- PoPSecurityScheme&#45;&gt;SecurityScheme -->
<g id="edge1" class="edge"><title>PoPSecurityScheme&#45;&gt;SecurityScheme</title>
<path fill="none" stroke="black" d="M966.828,-127.811C973.283,-118.686 979.846,-109.41 986.113,-100.552"/>
<polygon fill="white" stroke="black" points="989.099,-102.391 992.018,-92.2056 983.385,-98.3477 989.099,-102.391"/>
</g>
<!-- PublicSecurityScheme -->
<g id="node7" class="node"><title>PublicSecurityScheme</title>
<polygon fill="#8ccbf2" stroke="none" points="1042,-195 1042,-216 1214,-216 1214,-195 1042,-195"/>
<polygon fill="none" stroke="#8ccbf2" points="1042,-195 1042,-216 1214,-216 1214,-195 1042,-195"/>
<text text-anchor="start" x="1045" y="-202.8" font-family="mono" font-weight="bold" font-size="14.00" fill="#c83500">PublicSecurityScheme</text>
<polygon fill="#ddeeff" stroke="none" points="1042,-174 1042,-195 1214,-195 1214,-174 1042,-174"/>
<polygon fill="none" stroke="#8ccbf2" points="1042,-174 1042,-195 1214,-195 1214,-174 1042,-174"/>
<text text-anchor="start" x="1045" y="-181.8" font-family="mono" font-size="14.00" fill="#c83500">identity</text>
<text text-anchor="start" x="1112" y="-181.8" font-family="Times,serif" font-size="14.00"> : </text>
<text text-anchor="start" x="1124" y="-181.8" font-family="mono" font-size="14.00" fill="#c83500">string</text>
</g>
<!-- PublicSecurityScheme&#45;&gt;SecurityScheme -->
<g id="edge3" class="edge"><title>PublicSecurityScheme&#45;&gt;SecurityScheme</title>
<path fill="none" stroke="black" d="M1110.83,-169.726C1097.51,-150.906 1078.56,-124.116 1061.76,-100.366"/>
<polygon fill="white" stroke="black" points="1064.55,-98.2522 1055.91,-92.1101 1058.83,-102.295 1064.55,-98.2522"/>
</g>
<!-- DigestSecurityScheme -->
<g id="node8" class="node"><title>DigestSecurityScheme</title>
<polygon fill="#8ccbf2" stroke="none" points="1248,-216 1248,-237 1420,-237 1420,-216 1248,-216"/>
<polygon fill="none" stroke="#8ccbf2" points="1248,-216 1248,-237 1420,-237 1420,-216 1248,-216"/>
<text text-anchor="start" x="1251" y="-223.8" font-family="mono" font-weight="bold" font-size="14.00" fill="#c83500">DigestSecurityScheme</text>
<polygon fill="#ddeeff" stroke="none" points="1248,-195 1248,-216 1420,-216 1420,-195 1248,-195"/>
<polygon fill="none" stroke="#8ccbf2" points="1248,-195 1248,-216 1420,-216 1420,-195 1248,-195"/>
<text text-anchor="start" x="1251" y="-202.8" font-family="mono" font-size="14.00" fill="#c83500">name</text>
<text text-anchor="start" x="1285" y="-202.8" font-family="Times,serif" font-size="14.00"> : </text>
<text text-anchor="start" x="1297" y="-202.8" font-family="mono" font-size="14.00" fill="#c83500">string</text>
<polygon fill="#ddeeff" stroke="none" points="1248,-174 1248,-195 1420,-195 1420,-174 1248,-174"/>
<polygon fill="none" stroke="#8ccbf2" points="1248,-174 1248,-195 1420,-195 1420,-174 1248,-174"/>
<text text-anchor="start" x="1251" y="-181.8" font-family="mono" font-size="14.00" fill="#c83500">qop</text>
<text text-anchor="start" x="1276" y="-181.8" font-family="Times,serif" font-size="14.00"> : </text>
<text text-anchor="start" x="1288" y="-181.8" font-family="mono" font-size="14.00" fill="#c83500">string</text>
<text text-anchor="start" x="1338" y="-181.8" font-family="Times,serif" font-size="14.00"> = auth</text>
<polygon fill="#ddeeff" stroke="none" points="1248,-153 1248,-174 1420,-174 1420,-153 1248,-153"/>
<polygon fill="none" stroke="#8ccbf2" points="1248,-153 1248,-174 1420,-174 1420,-153 1248,-153"/>
<text text-anchor="start" x="1251" y="-160.8" font-family="mono" font-size="14.00" fill="#c83500">in</text>
<text text-anchor="start" x="1268" y="-160.8" font-family="Times,serif" font-size="14.00"> : </text>
<text text-anchor="start" x="1280" y="-160.8" font-family="mono" font-size="14.00" fill="#c83500">string</text>
<text text-anchor="start" x="1330" y="-160.8" font-family="Times,serif" font-size="14.00"> = header</text>
</g>
<!-- DigestSecurityScheme&#45;&gt;SecurityScheme -->
<g id="edge8" class="edge"><title>DigestSecurityScheme&#45;&gt;SecurityScheme</title>
<path fill="none" stroke="black" d="M1267.81,-148.902C1255.8,-141.497 1243.2,-134.221 1231,-128 1201.17,-112.792 1167.77,-98.5872 1136.66,-86.4531"/>
<polygon fill="white" stroke="black" points="1137.68,-83.0929 1127.09,-82.755 1135.16,-89.6228 1137.68,-83.0929"/>
</g>
<!-- NoSecurityScheme -->
<g id="node9" class="node"><title>NoSecurityScheme</title>
<polygon fill="#8ccbf2" stroke="none" points="1455,-184 1455,-205 1594,-205 1594,-184 1455,-184"/>
<polygon fill="none" stroke="#8ccbf2" points="1455,-184 1455,-205 1594,-205 1594,-184 1455,-184"/>
<text text-anchor="start" x="1458" y="-191.8" font-family="mono" font-weight="bold" font-size="14.00" fill="#c83500">NoSecurityScheme</text>
</g>
<!-- NoSecurityScheme&#45;&gt;SecurityScheme -->
<g id="edge6" class="edge"><title>NoSecurityScheme&#45;&gt;SecurityScheme</title>
<path fill="none" stroke="black" d="M1506.58,-176.899C1490.05,-161.678 1463.82,-140.018 1437,-128 1341.11,-85.0267 1222.63,-64.7733 1137.19,-55.2748"/>
<polygon fill="white" stroke="black" points="1137.52,-51.79 1127.21,-54.1964 1136.77,-58.7496 1137.52,-51.79"/>
</g>
<!-- PSKSecurityScheme -->
<g id="node10" class="node"><title>PSKSecurityScheme</title>
<polygon fill="#8ccbf2" stroke="none" points="1628,-195 1628,-216 1775,-216 1775,-195 1628,-195"/>
<polygon fill="none" stroke="#8ccbf2" points="1628,-195 1628,-216 1775,-216 1775,-195 1628,-195"/>
<text text-anchor="start" x="1631" y="-202.8" font-family="mono" font-weight="bold" font-size="14.00" fill="#c83500">PSKSecurityScheme</text>
<polygon fill="#ddeeff" stroke="none" points="1628,-174 1628,-195 1775,-195 1775,-174 1628,-174"/>
<polygon fill="none" stroke="#8ccbf2" points="1628,-174 1628,-195 1775,-195 1775,-174 1628,-174"/>
<text text-anchor="start" x="1631" y="-181.8" font-family="mono" font-size="14.00" fill="#c83500">identity</text>
<text text-anchor="start" x="1698" y="-181.8" font-family="Times,serif" font-size="14.00"> : </text>
<text text-anchor="start" x="1710" y="-181.8" font-family="mono" font-size="14.00" fill="#c83500">string</text>
</g>
<!-- PSKSecurityScheme&#45;&gt;SecurityScheme -->
<g id="edge4" class="edge"><title>PSKSecurityScheme&#45;&gt;SecurityScheme</title>
<path fill="none" stroke="black" d="M1675.56,-169.961C1658.59,-155.376 1635.06,-137.749 1611,-128 1527.43,-94.1424 1283.08,-68.6738 1137.32,-55.9804"/>
<polygon fill="white" stroke="black" points="1137.27,-52.4625 1127,-55.0886 1136.66,-59.4365 1137.27,-52.4625"/>
</g>
<!-- CertSecurityScheme -->
<g id="node11" class="node"><title>CertSecurityScheme</title>
<polygon fill="#8ccbf2" stroke="none" points="1809,-195 1809,-216 1964,-216 1964,-195 1809,-195"/>
<polygon fill="none" stroke="#8ccbf2" points="1809,-195 1809,-216 1964,-216 1964,-195 1809,-195"/>
<text text-anchor="start" x="1812" y="-202.8" font-family="mono" font-weight="bold" font-size="14.00" fill="#c83500">CertSecurityScheme</text>
<polygon fill="#ddeeff" stroke="none" points="1809,-174 1809,-195 1964,-195 1964,-174 1809,-174"/>
<polygon fill="none" stroke="#8ccbf2" points="1809,-174 1809,-195 1964,-195 1964,-174 1809,-174"/>
<text text-anchor="start" x="1812" y="-181.8" font-family="mono" font-size="14.00" fill="#c83500">identity</text>
<text text-anchor="start" x="1879" y="-181.8" font-family="Times,serif" font-size="14.00"> : </text>
<text text-anchor="start" x="1891" y="-181.8" font-family="mono" font-size="14.00" fill="#c83500">string</text>
</g>
<!-- CertSecurityScheme&#45;&gt;SecurityScheme -->
<g id="edge7" class="edge"><title>CertSecurityScheme&#45;&gt;SecurityScheme</title>
<path fill="none" stroke="black" d="M1859.35,-169.708C1841.6,-155.022 1817.02,-137.378 1792,-128 1674.95,-84.1256 1320.93,-61.191 1137.27,-51.9698"/>
<polygon fill="white" stroke="black" points="1137.2,-48.4621 1127.04,-51.4615 1136.85,-55.4535 1137.2,-48.4621"/>
</g>
</g>
</svg>
