<?xml version="1.0" encoding="UTF-8" standalone="no"?>
<!DOCTYPE svg PUBLIC "-//W3C//DTD SVG 1.1//EN"
 "http://www.w3.org/Graphics/SVG/1.1/DTD/svg11.dtd">
<!-- Generated by graphviz version 2.38.0 (20140413.2041)
 -->
<!-- Title: %3 Pages: 1 -->
<svg width="2008pt" height="379pt"
 viewBox="0.00 0.00 2007.50 379.00" xmlns="http://www.w3.org/2000/svg" xmlns:xlink="http://www.w3.org/1999/xlink">
<g id="graph0" class="graph" transform="scale(1 1) rotate(0) translate(4 375)">
<title>%3</title>
<polygon fill="white" stroke="none" points="-4,4 -4,-375 2003.5,-375 2003.5,4 -4,4"/>
<!-- APIKeySecurityScheme -->
<g id="node1" class="node"><title>APIKeySecurityScheme</title>
<polygon fill="#8ccbf2" stroke="none" points="8,-314 8,-335 180,-335 180,-314 8,-314"/>
<polygon fill="none" stroke="#8ccbf2" points="8,-314 8,-335 180,-335 180,-314 8,-314"/>
<text text-anchor="start" x="11" y="-321.8" font-family="mono" font-weight="bold" font-size="14.00" fill="#c83500">APIKeySecurityScheme</text>
<polygon fill="#ddeeff" stroke="none" points="8,-293 8,-314 180,-314 180,-293 8,-293"/>
<polygon fill="none" stroke="#8ccbf2" points="8,-293 8,-314 180,-314 180,-293 8,-293"/>
<text text-anchor="start" x="11" y="-300.8" font-family="mono" font-size="14.00" fill="#c83500">name</text>
<text text-anchor="start" x="45" y="-300.8" font-family="Times,serif" font-size="14.00"> : </text>
<text text-anchor="start" x="57" y="-300.8" font-family="mono" font-size="14.00" fill="#c83500">string</text>
<polygon fill="#ddeeff" stroke="none" points="8,-272 8,-293 180,-293 180,-272 8,-272"/>
<polygon fill="none" stroke="#8ccbf2" points="8,-272 8,-293 180,-293 180,-272 8,-272"/>
<text text-anchor="start" x="11" y="-279.8" font-family="mono" font-size="14.00" fill="#c83500">in</text>
<text text-anchor="start" x="28" y="-279.8" font-family="Times,serif" font-size="14.00"> : </text>
<text text-anchor="start" x="40" y="-279.8" font-family="mono" font-size="14.00" fill="#c83500">string</text>
<text text-anchor="start" x="90" y="-279.8" font-family="Times,serif" font-size="14.00"> </text>
<text text-anchor="start" x="94" y="-279.8" font-family="Times,serif" font-style="italic" font-size="14.00">(mandatory)</text>
</g>
<!-- SecurityScheme -->
<g id="node3" class="node"><title>SecurityScheme</title>
<polygon fill="#8ccbf2" stroke="none" points="953,-174.5 953,-195.5 1143,-195.5 1143,-174.5 953,-174.5"/>
<polygon fill="none" stroke="#8ccbf2" points="953,-174.5 953,-195.5 1143,-195.5 1143,-174.5 953,-174.5"/>
<text text-anchor="start" x="990" y="-182.3" font-family="mono" font-weight="bold" font-size="14.00" fill="#c83500">SecurityScheme</text>
<polygon fill="#ddeeff" stroke="none" points="953,-153.5 953,-174.5 1143,-174.5 1143,-153.5 953,-153.5"/>
<polygon fill="none" stroke="#8ccbf2" points="953,-153.5 953,-174.5 1143,-174.5 1143,-153.5 953,-153.5"/>
<text text-anchor="start" x="956" y="-161.3" font-family="mono" font-size="14.00" fill="#c83500">@type</text>
<text text-anchor="start" x="998" y="-161.3" font-family="Times,serif" font-size="14.00"> : </text>
<text text-anchor="start" x="1010" y="-161.3" font-family="Times,serif" font-style="italic" font-size="14.00">(array of) </text>
<text text-anchor="start" x="1068" y="-161.3" font-family="mono" font-size="14.00" fill="#c83500">string</text>
<polygon fill="#ddeeff" stroke="none" points="953,-132.5 953,-153.5 1143,-153.5 1143,-132.5 953,-132.5"/>
<polygon fill="none" stroke="#8ccbf2" points="953,-132.5 953,-153.5 1143,-153.5 1143,-132.5 953,-132.5"/>
<text text-anchor="start" x="956" y="-140.3" font-family="mono" font-size="14.00" fill="#c83500">description</text>
<text text-anchor="start" x="1047" y="-140.3" font-family="Times,serif" font-size="14.00"> : </text>
<text text-anchor="start" x="1059" y="-140.3" font-family="mono" font-size="14.00" fill="#c83500">string</text>
<polygon fill="#ddeeff" stroke="none" points="953,-111.5 953,-132.5 1143,-132.5 1143,-111.5 953,-111.5"/>
<polygon fill="none" stroke="#8ccbf2" points="953,-111.5 953,-132.5 1143,-132.5 1143,-111.5 953,-111.5"/>
<text text-anchor="start" x="956" y="-119.3" font-family="mono" font-size="14.00" fill="#c83500">proxy</text>
<text text-anchor="start" x="998" y="-119.3" font-family="Times,serif" font-size="14.00"> : </text>
<text text-anchor="start" x="1010" y="-119.3" font-family="mono" font-size="14.00" fill="#c83500">anyURI</text>
<polygon fill="#ddeeff" stroke="none" points="953,-90.5 953,-111.5 1143,-111.5 1143,-90.5 953,-90.5"/>
<polygon fill="none" stroke="#8ccbf2" points="953,-90.5 953,-111.5 1143,-111.5 1143,-90.5 953,-90.5"/>
<text text-anchor="start" x="956" y="-98.3" font-family="mono" font-size="14.00" fill="#c83500">scheme</text>
<text text-anchor="start" x="1006" y="-98.3" font-family="Times,serif" font-size="14.00"> : </text>
<text text-anchor="start" x="1018" y="-98.3" font-family="mono" font-size="14.00" fill="#c83500">string</text>
<text text-anchor="start" x="1068" y="-98.3" font-family="Times,serif" font-size="14.00"> </text>
<text text-anchor="start" x="1072" y="-98.3" font-family="Times,serif" font-style="italic" font-size="14.00">(mandatory)</text>
</g>
<!-- APIKeySecurityScheme&#45;&gt;SecurityScheme -->
<g id="edge7" class="edge"><title>APIKeySecurityScheme&#45;&gt;SecurityScheme</title>
<path fill="none" stroke="black" d="M138.037,-268.424C155.466,-256.499 176.27,-244.311 197,-237 330.28,-189.994 735.241,-161.777 934.632,-150.376"/>
<polygon fill="white" stroke="black" points="935.058,-153.858 944.843,-149.797 934.661,-146.869 935.058,-153.858"/>
</g>
<!-- OAuth2SecurityScheme -->
<g id="node2" class="node"><title>OAuth2SecurityScheme</title>
<polygon fill="#8ccbf2" stroke="none" points="214,-346 214,-367 390,-367 390,-346 214,-346"/>
<polygon fill="none" stroke="#8ccbf2" points="214,-346 214,-367 390,-367 390,-346 214,-346"/>
<text text-anchor="start" x="219" y="-353.8" font-family="mono" font-weight="bold" font-size="14.00" fill="#c83500">OAuth2SecurityScheme</text>
<polygon fill="#ddeeff" stroke="none" points="214,-325 214,-346 390,-346 390,-325 214,-325"/>
<polygon fill="none" stroke="#8ccbf2" points="214,-325 214,-346 390,-346 390,-325 214,-325"/>
<text text-anchor="start" x="217" y="-332.8" font-family="mono" font-size="14.00" fill="#c83500">authorization</text>
<text text-anchor="start" x="325" y="-332.8" font-family="Times,serif" font-size="14.00"> : </text>
<text text-anchor="start" x="337" y="-332.8" font-family="mono" font-size="14.00" fill="#c83500">anyURI</text>
<polygon fill="#ddeeff" stroke="none" points="214,-304 214,-325 390,-325 390,-304 214,-304"/>
<polygon fill="none" stroke="#8ccbf2" points="214,-304 214,-325 390,-325 390,-304 214,-304"/>
<text text-anchor="start" x="217" y="-311.8" font-family="mono" font-size="14.00" fill="#c83500">token</text>
<text text-anchor="start" x="259" y="-311.8" font-family="Times,serif" font-size="14.00"> : </text>
<text text-anchor="start" x="271" y="-311.8" font-family="mono" font-size="14.00" fill="#c83500">anyURI</text>
<polygon fill="#ddeeff" stroke="none" points="214,-283 214,-304 390,-304 390,-283 214,-283"/>
<polygon fill="none" stroke="#8ccbf2" points="214,-283 214,-304 390,-304 390,-283 214,-283"/>
<text text-anchor="start" x="217" y="-290.8" font-family="mono" font-size="14.00" fill="#c83500">refresh</text>
<text text-anchor="start" x="275" y="-290.8" font-family="Times,serif" font-size="14.00"> : </text>
<text text-anchor="start" x="287" y="-290.8" font-family="mono" font-size="14.00" fill="#c83500">anyURI</text>
<polygon fill="#ddeeff" stroke="none" points="214,-262 214,-283 390,-283 390,-262 214,-262"/>
<polygon fill="none" stroke="#8ccbf2" points="214,-262 214,-283 390,-283 390,-262 214,-262"/>
<text text-anchor="start" x="217" y="-269.8" font-family="mono" font-size="14.00" fill="#c83500">flow</text>
<text text-anchor="start" x="251" y="-269.8" font-family="Times,serif" font-size="14.00"> : </text>
<text text-anchor="start" x="263" y="-269.8" font-family="mono" font-size="14.00" fill="#c83500">string</text>
<text text-anchor="start" x="313" y="-269.8" font-family="Times,serif" font-size="14.00"> </text>
<text text-anchor="start" x="317" y="-269.8" font-family="Times,serif" font-style="italic" font-size="14.00">(mandatory)</text>
<polygon fill="#ddeeff" stroke="none" points="214,-241 214,-262 390,-262 390,-241 214,-241"/>
<polygon fill="none" stroke="#8ccbf2" points="214,-241 214,-262 390,-262 390,-241 214,-241"/>
<text text-anchor="start" x="217" y="-248.8" font-family="mono" font-size="14.00" fill="#c83500">scopes</text>
<text text-anchor="start" x="267" y="-248.8" font-family="Times,serif" font-size="14.00"> : (array of) </text>
<text text-anchor="start" x="334" y="-248.8" font-family="mono" font-size="14.00" fill="#c83500">string</text>
</g>
<!-- OAuth2SecurityScheme&#45;&gt;SecurityScheme -->
<g id="edge2" class="edge"><title>OAuth2SecurityScheme&#45;&gt;SecurityScheme</title>
<path fill="none" stroke="black" d="M398.204,-240.487C401.134,-239.244 404.07,-238.077 407,-237 583.91,-171.973 803.983,-152.445 934.836,-146.712"/>
<polygon fill="white" stroke="black" points="935.034,-150.206 944.879,-146.291 934.741,-143.213 935.034,-150.206"/>
</g>
<!-- MultiLanguage -->
<g id="node12" class="node"><title>MultiLanguage</title>
<polygon fill="#f2f2f2" stroke="none" points="991,-7 991,-28 1105,-28 1105,-7 991,-7"/>
<polygon fill="none" stroke="#8c8c8c" points="991,-7 991,-28 1105,-28 1105,-7 991,-7"/>
<text text-anchor="start" x="994" y="-14.8" font-family="mono" font-weight="bold" font-size="14.00">MultiLanguage</text>
</g>
<!-- SecurityScheme&#45;&gt;MultiLanguage -->
<g id="edge1" class="edge"><title>SecurityScheme&#45;&gt;MultiLanguage</title>
<path fill="none" stroke="black" d="M1048,-86.8918C1048,-72.7746 1048,-58.225 1048,-46.2337"/>
<polygon fill="black" stroke="black" points="1051.5,-46.0263 1048,-36.0263 1044.5,-46.0263 1051.5,-46.0263"/>
<text text-anchor="start" x="1048" y="-57.8" font-family="mono" font-size="14.00" fill="#c83500">descriptions</text>
<text text-anchor="middle" x="1037" y="-39.8263" font-family="Times,serif" font-size="14.00">0..1</text>
</g>
<!-- BearerSecurityScheme -->
<g id="node4" class="node"><title>BearerSecurityScheme</title>
<polygon fill="#8ccbf2" stroke="none" points="424,-346 424,-367 614,-367 614,-346 424,-346"/>
<polygon fill="none" stroke="#8ccbf2" points="424,-346 424,-367 614,-367 614,-346 424,-346"/>
<text text-anchor="start" x="436" y="-353.8" font-family="mono" font-weight="bold" font-size="14.00" fill="#c83500">BearerSecurityScheme</text>
<polygon fill="#ddeeff" stroke="none" points="424,-325 424,-346 614,-346 614,-325 424,-325"/>
<polygon fill="none" stroke="#8ccbf2" points="424,-325 424,-346 614,-346 614,-325 424,-325"/>
<text text-anchor="start" x="427" y="-332.8" font-family="mono" font-size="14.00" fill="#c83500">format</text>
<text text-anchor="start" x="477" y="-332.8" font-family="Times,serif" font-size="14.00"> : </text>
<text text-anchor="start" x="489" y="-332.8" font-family="mono" font-size="14.00" fill="#c83500">string</text>
<text text-anchor="start" x="539" y="-332.8" font-family="Times,serif" font-size="14.00"> </text>
<text text-anchor="start" x="543" y="-332.8" font-family="Times,serif" font-style="italic" font-size="14.00">(mandatory)</text>
<polygon fill="#ddeeff" stroke="none" points="424,-304 424,-325 614,-325 614,-304 424,-304"/>
<polygon fill="none" stroke="#8ccbf2" points="424,-304 424,-325 614,-325 614,-304 424,-304"/>
<text text-anchor="start" x="427" y="-311.8" font-family="mono" font-size="14.00" fill="#c83500">name</text>
<text text-anchor="start" x="461" y="-311.8" font-family="Times,serif" font-size="14.00"> : </text>
<text text-anchor="start" x="473" y="-311.8" font-family="mono" font-size="14.00" fill="#c83500">string</text>
<polygon fill="#ddeeff" stroke="none" points="424,-283 424,-304 614,-304 614,-283 424,-283"/>
<polygon fill="none" stroke="#8ccbf2" points="424,-283 424,-304 614,-304 614,-283 424,-283"/>
<text text-anchor="start" x="427" y="-290.8" font-family="mono" font-size="14.00" fill="#c83500">authorization</text>
<text text-anchor="start" x="535" y="-290.8" font-family="Times,serif" font-size="14.00"> : </text>
<text text-anchor="start" x="547" y="-290.8" font-family="mono" font-size="14.00" fill="#c83500">anyURI</text>
<polygon fill="#ddeeff" stroke="none" points="424,-262 424,-283 614,-283 614,-262 424,-262"/>
<polygon fill="none" stroke="#8ccbf2" points="424,-262 424,-283 614,-283 614,-262 424,-262"/>
<text text-anchor="start" x="427" y="-269.8" font-family="mono" font-size="14.00" fill="#c83500">in</text>
<text text-anchor="start" x="444" y="-269.8" font-family="Times,serif" font-size="14.00"> : </text>
<text text-anchor="start" x="456" y="-269.8" font-family="mono" font-size="14.00" fill="#c83500">string</text>
<text text-anchor="start" x="506" y="-269.8" font-family="Times,serif" font-size="14.00"> </text>
<text text-anchor="start" x="510" y="-269.8" font-family="Times,serif" font-style="italic" font-size="14.00">(mandatory)</text>
<polygon fill="#ddeeff" stroke="none" points="424,-241 424,-262 614,-262 614,-241 424,-241"/>
<polygon fill="none" stroke="#8ccbf2" points="424,-241 424,-262 614,-262 614,-241 424,-241"/>
<text text-anchor="start" x="427" y="-248.8" font-family="mono" font-size="14.00" fill="#c83500">alg</text>
<text text-anchor="start" x="452" y="-248.8" font-family="Times,serif" font-size="14.00"> : </text>
<text text-anchor="start" x="464" y="-248.8" font-family="mono" font-size="14.00" fill="#c83500">string</text>
<text text-anchor="start" x="514" y="-248.8" font-family="Times,serif" font-size="14.00"> </text>
<text text-anchor="start" x="518" y="-248.8" font-family="Times,serif" font-style="italic" font-size="14.00">(mandatory)</text>
</g>
<!-- BearerSecurityScheme&#45;&gt;SecurityScheme -->
<g id="edge4" class="edge"><title>BearerSecurityScheme&#45;&gt;SecurityScheme</title>
<path fill="none" stroke="black" d="M622.151,-240.676C625.107,-239.388 628.06,-238.158 631,-237 730.048,-197.967 849.15,-173.622 934.662,-159.767"/>
<polygon fill="white" stroke="black" points="935.336,-163.204 944.658,-158.171 934.231,-156.292 935.336,-163.204"/>
</g>
<!-- BasicSecurityScheme -->
<g id="node5" class="node"><title>BasicSecurityScheme</title>
<polygon fill="#8ccbf2" stroke="none" points="649,-314 649,-335 812,-335 812,-314 649,-314"/>
<polygon fill="none" stroke="#8ccbf2" points="649,-314 649,-335 812,-335 812,-314 649,-314"/>
<text text-anchor="start" x="652" y="-321.8" font-family="mono" font-weight="bold" font-size="14.00" fill="#c83500">BasicSecurityScheme</text>
<polygon fill="#ddeeff" stroke="none" points="649,-293 649,-314 812,-314 812,-293 649,-293"/>
<polygon fill="none" stroke="#8ccbf2" points="649,-293 649,-314 812,-314 812,-293 649,-293"/>
<text text-anchor="start" x="652" y="-300.8" font-family="mono" font-size="14.00" fill="#c83500">name</text>
<text text-anchor="start" x="686" y="-300.8" font-family="Times,serif" font-size="14.00"> : </text>
<text text-anchor="start" x="698" y="-300.8" font-family="mono" font-size="14.00" fill="#c83500">string</text>
<polygon fill="#ddeeff" stroke="none" points="649,-272 649,-293 812,-293 812,-272 649,-272"/>
<polygon fill="none" stroke="#8ccbf2" points="649,-272 649,-293 812,-293 812,-272 649,-272"/>
<text text-anchor="start" x="652" y="-279.8" font-family="mono" font-size="14.00" fill="#c83500">in</text>
<text text-anchor="start" x="669" y="-279.8" font-family="Times,serif" font-size="14.00"> : </text>
<text text-anchor="start" x="681" y="-279.8" font-family="mono" font-size="14.00" fill="#c83500">string</text>
<text text-anchor="start" x="731" y="-279.8" font-family="Times,serif" font-size="14.00"> </text>
<text text-anchor="start" x="735" y="-279.8" font-family="Times,serif" font-style="italic" font-size="14.00">(mandatory)</text>
</g>
<!-- BasicSecurityScheme&#45;&gt;SecurityScheme -->
<g id="edge10" class="edge"><title>BasicSecurityScheme&#45;&gt;SecurityScheme</title>
<path fill="none" stroke="black" d="M777.967,-268.388C793.823,-257.668 811.812,-246.253 829,-237 862.551,-218.939 900.385,-201.875 935.049,-187.437"/>
<polygon fill="white" stroke="black" points="936.829,-190.489 944.735,-183.436 934.157,-184.019 936.829,-190.489"/>
</g>
<!-- PoPSecurityScheme -->
<g id="node6" class="node"><title>PoPSecurityScheme</title>
<polygon fill="#8ccbf2" stroke="none" points="846,-346 846,-367 1036,-367 1036,-346 846,-346"/>
<polygon fill="none" stroke="#8ccbf2" points="846,-346 846,-367 1036,-367 1036,-346 846,-346"/>
<text text-anchor="start" x="870.5" y="-353.8" font-family="mono" font-weight="bold" font-size="14.00" fill="#c83500">PoPSecurityScheme</text>
<polygon fill="#ddeeff" stroke="none" points="846,-325 846,-346 1036,-346 1036,-325 846,-325"/>
<polygon fill="none" stroke="#8ccbf2" points="846,-325 846,-346 1036,-346 1036,-325 846,-325"/>
<text text-anchor="start" x="849" y="-332.8" font-family="mono" font-size="14.00" fill="#c83500">alg</text>
<text text-anchor="start" x="874" y="-332.8" font-family="Times,serif" font-size="14.00"> : </text>
<text text-anchor="start" x="886" y="-332.8" font-family="mono" font-size="14.00" fill="#c83500">string</text>
<text text-anchor="start" x="936" y="-332.8" font-family="Times,serif" font-size="14.00"> </text>
<text text-anchor="start" x="940" y="-332.8" font-family="Times,serif" font-style="italic" font-size="14.00">(mandatory)</text>
<polygon fill="#ddeeff" stroke="none" points="846,-304 846,-325 1036,-325 1036,-304 846,-304"/>
<polygon fill="none" stroke="#8ccbf2" points="846,-304 846,-325 1036,-325 1036,-304 846,-304"/>
<text text-anchor="start" x="849" y="-311.8" font-family="mono" font-size="14.00" fill="#c83500">in</text>
<text text-anchor="start" x="866" y="-311.8" font-family="Times,serif" font-size="14.00"> : </text>
<text text-anchor="start" x="878" y="-311.8" font-family="mono" font-size="14.00" fill="#c83500">string</text>
<text text-anchor="start" x="928" y="-311.8" font-family="Times,serif" font-size="14.00"> </text>
<text text-anchor="start" x="932" y="-311.8" font-family="Times,serif" font-style="italic" font-size="14.00">(mandatory)</text>
<polygon fill="#ddeeff" stroke="none" points="846,-283 846,-304 1036,-304 1036,-283 846,-283"/>
<polygon fill="none" stroke="#8ccbf2" points="846,-283 846,-304 1036,-304 1036,-283 846,-283"/>
<text text-anchor="start" x="849" y="-290.8" font-family="mono" font-size="14.00" fill="#c83500">name</text>
<text text-anchor="start" x="883" y="-290.8" font-family="Times,serif" font-size="14.00"> : </text>
<text text-anchor="start" x="895" y="-290.8" font-family="mono" font-size="14.00" fill="#c83500">string</text>
<polygon fill="#ddeeff" stroke="none" points="846,-262 846,-283 1036,-283 1036,-262 846,-262"/>
<polygon fill="none" stroke="#8ccbf2" points="846,-262 846,-283 1036,-283 1036,-262 846,-262"/>
<text text-anchor="start" x="849" y="-269.8" font-family="mono" font-size="14.00" fill="#c83500">authorization</text>
<text text-anchor="start" x="957" y="-269.8" font-family="Times,serif" font-size="14.00"> : </text>
<text text-anchor="start" x="969" y="-269.8" font-family="mono" font-size="14.00" fill="#c83500">anyURI</text>
<polygon fill="#ddeeff" stroke="none" points="846,-241 846,-262 1036,-262 1036,-241 846,-241"/>
<polygon fill="none" stroke="#8ccbf2" points="846,-241 846,-262 1036,-262 1036,-241 846,-241"/>
<text text-anchor="start" x="849" y="-248.8" font-family="mono" font-size="14.00" fill="#c83500">format</text>
<text text-anchor="start" x="899" y="-248.8" font-family="Times,serif" font-size="14.00"> : </text>
<text text-anchor="start" x="911" y="-248.8" font-family="mono" font-size="14.00" fill="#c83500">string</text>
<text text-anchor="start" x="961" y="-248.8" font-family="Times,serif" font-size="14.00"> </text>
<text text-anchor="start" x="965" y="-248.8" font-family="Times,serif" font-style="italic" font-size="14.00">(mandatory)</text>
</g>
<!-- PoPSecurityScheme&#45;&gt;SecurityScheme -->
<g id="edge3" class="edge"><title>PoPSecurityScheme&#45;&gt;SecurityScheme</title>
<path fill="none" stroke="black" d="M985.758,-236.7C991.984,-227.477 998.372,-218.014 1004.57,-208.829"/>
<polygon fill="white" stroke="black" points="1007.51,-210.732 1010.21,-200.486 1001.71,-206.816 1007.51,-210.732"/>
</g>
<!-- PublicSecurityScheme -->
<g id="node7" class="node"><title>PublicSecurityScheme</title>
<polygon fill="#8ccbf2" stroke="none" points="1070,-304 1070,-325 1242,-325 1242,-304 1070,-304"/>
<polygon fill="none" stroke="#8ccbf2" points="1070,-304 1070,-325 1242,-325 1242,-304 1070,-304"/>
<text text-anchor="start" x="1073" y="-311.8" font-family="mono" font-weight="bold" font-size="14.00" fill="#c83500">PublicSecurityScheme</text>
<polygon fill="#ddeeff" stroke="none" points="1070,-283 1070,-304 1242,-304 1242,-283 1070,-283"/>
<polygon fill="none" stroke="#8ccbf2" points="1070,-283 1070,-304 1242,-304 1242,-283 1070,-283"/>
<text text-anchor="start" x="1073" y="-290.8" font-family="mono" font-size="14.00" fill="#c83500">identity</text>
<text text-anchor="start" x="1140" y="-290.8" font-family="Times,serif" font-size="14.00"> : </text>
<text text-anchor="start" x="1152" y="-290.8" font-family="mono" font-size="14.00" fill="#c83500">string</text>
</g>
<!-- PublicSecurityScheme&#45;&gt;SecurityScheme -->
<g id="edge11" class="edge"><title>PublicSecurityScheme&#45;&gt;SecurityScheme</title>
<path fill="none" stroke="black" d="M1139.6,-278.927C1126.82,-260.176 1108.47,-233.243 1091.54,-208.402"/>
<polygon fill="white" stroke="black" points="1094.39,-206.366 1085.87,-200.073 1088.61,-210.308 1094.39,-206.366"/>
</g>
<!-- DigestSecurityScheme -->
<g id="node8" class="node"><title>DigestSecurityScheme</title>
<polygon fill="#8ccbf2" stroke="none" points="1276,-325 1276,-346 1448,-346 1448,-325 1276,-325"/>
<polygon fill="none" stroke="#8ccbf2" points="1276,-325 1276,-346 1448,-346 1448,-325 1276,-325"/>
<text text-anchor="start" x="1279" y="-332.8" font-family="mono" font-weight="bold" font-size="14.00" fill="#c83500">DigestSecurityScheme</text>
<polygon fill="#ddeeff" stroke="none" points="1276,-304 1276,-325 1448,-325 1448,-304 1276,-304"/>
<polygon fill="none" stroke="#8ccbf2" points="1276,-304 1276,-325 1448,-325 1448,-304 1276,-304"/>
<text text-anchor="start" x="1279" y="-311.8" font-family="mono" font-size="14.00" fill="#c83500">in</text>
<text text-anchor="start" x="1296" y="-311.8" font-family="Times,serif" font-size="14.00"> : </text>
<text text-anchor="start" x="1308" y="-311.8" font-family="mono" font-size="14.00" fill="#c83500">string</text>
<text text-anchor="start" x="1358" y="-311.8" font-family="Times,serif" font-size="14.00"> </text>
<text text-anchor="start" x="1362" y="-311.8" font-family="Times,serif" font-style="italic" font-size="14.00">(mandatory)</text>
<polygon fill="#ddeeff" stroke="none" points="1276,-283 1276,-304 1448,-304 1448,-283 1276,-283"/>
<polygon fill="none" stroke="#8ccbf2" points="1276,-283 1276,-304 1448,-304 1448,-283 1276,-283"/>
<text text-anchor="start" x="1279" y="-290.8" font-family="mono" font-size="14.00" fill="#c83500">qop</text>
<text text-anchor="start" x="1304" y="-290.8" font-family="Times,serif" font-size="14.00"> : </text>
<text text-anchor="start" x="1316" y="-290.8" font-family="mono" font-size="14.00" fill="#c83500">string</text>
<text text-anchor="start" x="1366" y="-290.8" font-family="Times,serif" font-size="14.00"> </text>
<text text-anchor="start" x="1370" y="-290.8" font-family="Times,serif" font-style="italic" font-size="14.00">(mandatory)</text>
<polygon fill="#ddeeff" stroke="none" points="1276,-262 1276,-283 1448,-283 1448,-262 1276,-262"/>
<polygon fill="none" stroke="#8ccbf2" points="1276,-262 1276,-283 1448,-283 1448,-262 1276,-262"/>
<text text-anchor="start" x="1279" y="-269.8" font-family="mono" font-size="14.00" fill="#c83500">name</text>
<text text-anchor="start" x="1313" y="-269.8" font-family="Times,serif" font-size="14.00"> : </text>
<text text-anchor="start" x="1325" y="-269.8" font-family="mono" font-size="14.00" fill="#c83500">string</text>
</g>
<!-- DigestSecurityScheme&#45;&gt;SecurityScheme -->
<g id="edge5" class="edge"><title>DigestSecurityScheme&#45;&gt;SecurityScheme</title>
<path fill="none" stroke="black" d="M1295.04,-257.965C1283.22,-250.633 1270.89,-243.365 1259,-237 1227.79,-220.291 1192.94,-204.079 1160.69,-190.017"/>
<polygon fill="white" stroke="black" points="1161.79,-186.68 1151.22,-185.917 1159.01,-193.103 1161.79,-186.68"/>
</g>
<!-- NoSecurityScheme -->
<g id="node9" class="node"><title>NoSecurityScheme</title>
<polygon fill="#8ccbf2" stroke="none" points="1483,-293 1483,-314 1622,-314 1622,-293 1483,-293"/>
<polygon fill="none" stroke="#8ccbf2" points="1483,-293 1483,-314 1622,-314 1622,-293 1483,-293"/>
<text text-anchor="start" x="1486" y="-300.8" font-family="mono" font-weight="bold" font-size="14.00" fill="#c83500">NoSecurityScheme</text>
</g>
<!-- NoSecurityScheme&#45;&gt;SecurityScheme -->
<g id="edge8" class="edge"><title>NoSecurityScheme&#45;&gt;SecurityScheme</title>
<path fill="none" stroke="black" d="M1534.19,-285.759C1517.6,-270.66 1491.49,-249.268 1465,-237 1367.91,-192.042 1247.79,-168.378 1161.45,-156.287"/>
<polygon fill="white" stroke="black" points="1161.74,-152.794 1151.36,-154.904 1160.79,-159.729 1161.74,-152.794"/>
</g>
<!-- PSKSecurityScheme -->
<g id="node10" class="node"><title>PSKSecurityScheme</title>
<polygon fill="#8ccbf2" stroke="none" points="1656,-304 1656,-325 1803,-325 1803,-304 1656,-304"/>
<polygon fill="none" stroke="#8ccbf2" points="1656,-304 1656,-325 1803,-325 1803,-304 1656,-304"/>
<text text-anchor="start" x="1659" y="-311.8" font-family="mono" font-weight="bold" font-size="14.00" fill="#c83500">PSKSecurityScheme</text>
<polygon fill="#ddeeff" stroke="none" points="1656,-283 1656,-304 1803,-304 1803,-283 1656,-283"/>
<polygon fill="none" stroke="#8ccbf2" points="1656,-283 1656,-304 1803,-304 1803,-283 1656,-283"/>
<text text-anchor="start" x="1659" y="-290.8" font-family="mono" font-size="14.00" fill="#c83500">identity</text>
<text text-anchor="start" x="1726" y="-290.8" font-family="Times,serif" font-size="14.00"> : </text>
<text text-anchor="start" x="1738" y="-290.8" font-family="mono" font-size="14.00" fill="#c83500">string</text>
</g>
<!-- PSKSecurityScheme&#45;&gt;SecurityScheme -->
<g id="edge6" class="edge"><title>PSKSecurityScheme&#45;&gt;SecurityScheme</title>
<path fill="none" stroke="black" d="M1702.78,-278.792C1685.62,-264.332 1661.99,-246.904 1638,-237 1480.93,-172.16 1283.16,-152.43 1161.17,-146.625"/>
<polygon fill="white" stroke="black" points="1161.21,-143.124 1151.07,-146.168 1160.9,-150.117 1161.21,-143.124"/>
</g>
<!-- CertSecurityScheme -->
<g id="node11" class="node"><title>CertSecurityScheme</title>
<polygon fill="#8ccbf2" stroke="none" points="1837,-304 1837,-325 1992,-325 1992,-304 1837,-304"/>
<polygon fill="none" stroke="#8ccbf2" points="1837,-304 1837,-325 1992,-325 1992,-304 1837,-304"/>
<text text-anchor="start" x="1840" y="-311.8" font-family="mono" font-weight="bold" font-size="14.00" fill="#c83500">CertSecurityScheme</text>
<polygon fill="#ddeeff" stroke="none" points="1837,-283 1837,-304 1992,-304 1992,-283 1837,-283"/>
<polygon fill="none" stroke="#8ccbf2" points="1837,-283 1837,-304 1992,-304 1992,-283 1837,-283"/>
<text text-anchor="start" x="1840" y="-290.8" font-family="mono" font-size="14.00" fill="#c83500">identity</text>
<text text-anchor="start" x="1907" y="-290.8" font-family="Times,serif" font-size="14.00"> : </text>
<text text-anchor="start" x="1919" y="-290.8" font-family="mono" font-size="14.00" fill="#c83500">string</text>
</g>
<!-- CertSecurityScheme&#45;&gt;SecurityScheme -->
<g id="edge9" class="edge"><title>CertSecurityScheme&#45;&gt;SecurityScheme</title>
<path fill="none" stroke="black" d="M1886.98,-278.834C1869,-264.198 1844.15,-246.563 1819,-237 1701.37,-192.281 1345.27,-163.592 1161.08,-151.336"/>
<polygon fill="white" stroke="black" points="1161.3,-147.843 1151.09,-150.676 1160.83,-154.828 1161.3,-147.843"/>
</g>
</g>
</svg>
