<?xml version="1.0" encoding="UTF-8" standalone="no"?>
<!DOCTYPE svg PUBLIC "-//W3C//DTD SVG 1.1//EN"
 "http://www.w3.org/Graphics/SVG/1.1/DTD/svg11.dtd">
<!-- Generated by graphviz version 2.38.0 (20140413.2041)
 -->
<!-- Title: %3 Pages: 1 -->
<svg width="2010pt" height="379pt"
 viewBox="0.00 0.00 2009.50 379.00" xmlns="http://www.w3.org/2000/svg" xmlns:xlink="http://www.w3.org/1999/xlink">
<g id="graph0" class="graph" transform="scale(1 1) rotate(0) translate(4 375)">
<title>%3</title>
<polygon fill="white" stroke="none" points="-4,4 -4,-375 2005.5,-375 2005.5,4 -4,4"/>
<!-- APIKeySecurityScheme -->
<g id="node1" class="node"><title>APIKeySecurityScheme</title>
<polygon fill="#8ccbf2" stroke="none" points="8,-314 8,-335 180,-335 180,-314 8,-314"/>
<polygon fill="none" stroke="#8ccbf2" points="8,-314 8,-335 180,-335 180,-314 8,-314"/>
<text text-anchor="start" x="11" y="-321.8" font-family="mono" font-weight="bold" font-size="14.00" fill="#c83500">APIKeySecurityScheme</text>
<polygon fill="#ddeeff" stroke="none" points="8,-293 8,-314 180,-314 180,-293 8,-293"/>
<polygon fill="none" stroke="#8ccbf2" points="8,-293 8,-314 180,-314 180,-293 8,-293"/>
<text text-anchor="start" x="11" y="-300.8" font-family="mono" font-size="14.00" fill="#c83500">in</text>
<text text-anchor="start" x="28" y="-300.8" font-family="Times,serif" font-size="14.00"> : </text>
<text text-anchor="start" x="40" y="-300.8" font-family="mono" font-size="14.00" fill="#c83500">string</text>
<text text-anchor="start" x="90" y="-300.8" font-family="Times,serif" font-size="14.00"> </text>
<text text-anchor="start" x="94" y="-300.8" font-family="Times,serif" font-style="italic" font-size="14.00">(mandatory)</text>
<polygon fill="#ddeeff" stroke="none" points="8,-272 8,-293 180,-293 180,-272 8,-272"/>
<polygon fill="none" stroke="#8ccbf2" points="8,-272 8,-293 180,-293 180,-272 8,-272"/>
<text text-anchor="start" x="11" y="-279.8" font-family="mono" font-size="14.00" fill="#c83500">name</text>
<text text-anchor="start" x="45" y="-279.8" font-family="Times,serif" font-size="14.00"> : </text>
<text text-anchor="start" x="57" y="-279.8" font-family="mono" font-size="14.00" fill="#c83500">string</text>
</g>
<!-- SecurityScheme -->
<g id="node3" class="node"><title>SecurityScheme</title>
<polygon fill="#8ccbf2" stroke="none" points="955,-174.5 955,-195.5 1145,-195.5 1145,-174.5 955,-174.5"/>
<polygon fill="none" stroke="#8ccbf2" points="955,-174.5 955,-195.5 1145,-195.5 1145,-174.5 955,-174.5"/>
<text text-anchor="start" x="992" y="-182.3" font-family="mono" font-weight="bold" font-size="14.00" fill="#c83500">SecurityScheme</text>
<polygon fill="#ddeeff" stroke="none" points="955,-153.5 955,-174.5 1145,-174.5 1145,-153.5 955,-153.5"/>
<polygon fill="none" stroke="#8ccbf2" points="955,-153.5 955,-174.5 1145,-174.5 1145,-153.5 955,-153.5"/>
<text text-anchor="start" x="958" y="-161.3" font-family="mono" font-size="14.00" fill="#c83500">@type</text>
<text text-anchor="start" x="1000" y="-161.3" font-family="Times,serif" font-size="14.00"> : </text>
<text text-anchor="start" x="1012" y="-161.3" font-family="Times,serif" font-style="italic" font-size="14.00">(Array of) </text>
<text text-anchor="start" x="1071" y="-161.3" font-family="mono" font-size="14.00" fill="#c83500">string</text>
<polygon fill="#ddeeff" stroke="none" points="955,-132.5 955,-153.5 1145,-153.5 1145,-132.5 955,-132.5"/>
<polygon fill="none" stroke="#8ccbf2" points="955,-132.5 955,-153.5 1145,-153.5 1145,-132.5 955,-132.5"/>
<text text-anchor="start" x="958" y="-140.3" font-family="mono" font-size="14.00" fill="#c83500">description</text>
<text text-anchor="start" x="1049" y="-140.3" font-family="Times,serif" font-size="14.00"> : </text>
<text text-anchor="start" x="1061" y="-140.3" font-family="mono" font-size="14.00" fill="#c83500">string</text>
<polygon fill="#ddeeff" stroke="none" points="955,-111.5 955,-132.5 1145,-132.5 1145,-111.5 955,-111.5"/>
<polygon fill="none" stroke="#8ccbf2" points="955,-111.5 955,-132.5 1145,-132.5 1145,-111.5 955,-111.5"/>
<text text-anchor="start" x="958" y="-119.3" font-family="mono" font-size="14.00" fill="#c83500">proxy</text>
<text text-anchor="start" x="1000" y="-119.3" font-family="Times,serif" font-size="14.00"> : </text>
<text text-anchor="start" x="1012" y="-119.3" font-family="mono" font-size="14.00" fill="#c83500">anyURI</text>
<polygon fill="#ddeeff" stroke="none" points="955,-90.5 955,-111.5 1145,-111.5 1145,-90.5 955,-90.5"/>
<polygon fill="none" stroke="#8ccbf2" points="955,-90.5 955,-111.5 1145,-111.5 1145,-90.5 955,-90.5"/>
<text text-anchor="start" x="958" y="-98.3" font-family="mono" font-size="14.00" fill="#c83500">scheme</text>
<text text-anchor="start" x="1008" y="-98.3" font-family="Times,serif" font-size="14.00"> : </text>
<text text-anchor="start" x="1020" y="-98.3" font-family="mono" font-size="14.00" fill="#c83500">string</text>
<text text-anchor="start" x="1070" y="-98.3" font-family="Times,serif" font-size="14.00"> </text>
<text text-anchor="start" x="1074" y="-98.3" font-family="Times,serif" font-style="italic" font-size="14.00">(mandatory)</text>
</g>
<!-- APIKeySecurityScheme&#45;&gt;SecurityScheme -->
<g id="edge4" class="edge"><title>APIKeySecurityScheme&#45;&gt;SecurityScheme</title>
<path fill="none" stroke="black" d="M138.036,-268.422C155.465,-256.496 176.269,-244.309 197,-237 330.682,-189.871 737.032,-161.693 936.753,-150.336"/>
<polygon fill="white" stroke="black" points="937.194,-153.817 946.981,-149.759 936.799,-146.828 937.194,-153.817"/>
</g>
<!-- OAuth2SecurityScheme -->
<g id="node2" class="node"><title>OAuth2SecurityScheme</title>
<polygon fill="#8ccbf2" stroke="none" points="215,-346 215,-367 392,-367 392,-346 215,-346"/>
<polygon fill="none" stroke="#8ccbf2" points="215,-346 215,-367 392,-367 392,-346 215,-346"/>
<text text-anchor="start" x="220.5" y="-353.8" font-family="mono" font-weight="bold" font-size="14.00" fill="#c83500">OAuth2SecurityScheme</text>
<polygon fill="#ddeeff" stroke="none" points="215,-325 215,-346 392,-346 392,-325 215,-325"/>
<polygon fill="none" stroke="#8ccbf2" points="215,-325 215,-346 392,-346 392,-325 215,-325"/>
<text text-anchor="start" x="218" y="-332.8" font-family="mono" font-size="14.00" fill="#c83500">scopes</text>
<text text-anchor="start" x="268" y="-332.8" font-family="Times,serif" font-size="14.00"> : (Array of) </text>
<text text-anchor="start" x="339" y="-332.8" font-family="mono" font-size="14.00" fill="#c83500">string</text>
<polygon fill="#ddeeff" stroke="none" points="215,-304 215,-325 392,-325 392,-304 215,-304"/>
<polygon fill="none" stroke="#8ccbf2" points="215,-304 215,-325 392,-325 392,-304 215,-304"/>
<text text-anchor="start" x="218" y="-311.8" font-family="mono" font-size="14.00" fill="#c83500">authorization</text>
<text text-anchor="start" x="326" y="-311.8" font-family="Times,serif" font-size="14.00"> : </text>
<text text-anchor="start" x="338" y="-311.8" font-family="mono" font-size="14.00" fill="#c83500">anyURI</text>
<polygon fill="#ddeeff" stroke="none" points="215,-283 215,-304 392,-304 392,-283 215,-283"/>
<polygon fill="none" stroke="#8ccbf2" points="215,-283 215,-304 392,-304 392,-283 215,-283"/>
<text text-anchor="start" x="218" y="-290.8" font-family="mono" font-size="14.00" fill="#c83500">flow</text>
<text text-anchor="start" x="252" y="-290.8" font-family="Times,serif" font-size="14.00"> : </text>
<text text-anchor="start" x="264" y="-290.8" font-family="mono" font-size="14.00" fill="#c83500">string</text>
<text text-anchor="start" x="314" y="-290.8" font-family="Times,serif" font-size="14.00"> </text>
<text text-anchor="start" x="318" y="-290.8" font-family="Times,serif" font-style="italic" font-size="14.00">(mandatory)</text>
<polygon fill="#ddeeff" stroke="none" points="215,-262 215,-283 392,-283 392,-262 215,-262"/>
<polygon fill="none" stroke="#8ccbf2" points="215,-262 215,-283 392,-283 392,-262 215,-262"/>
<text text-anchor="start" x="218" y="-269.8" font-family="mono" font-size="14.00" fill="#c83500">refresh</text>
<text text-anchor="start" x="276" y="-269.8" font-family="Times,serif" font-size="14.00"> : </text>
<text text-anchor="start" x="288" y="-269.8" font-family="mono" font-size="14.00" fill="#c83500">anyURI</text>
<polygon fill="#ddeeff" stroke="none" points="215,-241 215,-262 392,-262 392,-241 215,-241"/>
<polygon fill="none" stroke="#8ccbf2" points="215,-241 215,-262 392,-262 392,-241 215,-241"/>
<text text-anchor="start" x="218" y="-248.8" font-family="mono" font-size="14.00" fill="#c83500">token</text>
<text text-anchor="start" x="260" y="-248.8" font-family="Times,serif" font-size="14.00"> : </text>
<text text-anchor="start" x="272" y="-248.8" font-family="mono" font-size="14.00" fill="#c83500">anyURI</text>
</g>
<!-- OAuth2SecurityScheme&#45;&gt;SecurityScheme -->
<g id="edge8" class="edge"><title>OAuth2SecurityScheme&#45;&gt;SecurityScheme</title>
<path fill="none" stroke="black" d="M399.524,-240.748C402.681,-239.407 405.844,-238.153 409,-237 586.048,-172.351 806.079,-152.706 936.885,-146.846"/>
<polygon fill="white" stroke="black" points="937.084,-150.341 946.925,-146.416 936.784,-143.348 937.084,-150.341"/>
</g>
<!-- MultiLanguage -->
<g id="node12" class="node"><title>MultiLanguage</title>
<polygon fill="#f2f2f2" stroke="none" points="993,-7 993,-28 1107,-28 1107,-7 993,-7"/>
<polygon fill="none" stroke="#8c8c8c" points="993,-7 993,-28 1107,-28 1107,-7 993,-7"/>
<text text-anchor="start" x="996" y="-14.8" font-family="mono" font-weight="bold" font-size="14.00">MultiLanguage</text>
</g>
<!-- SecurityScheme&#45;&gt;MultiLanguage -->
<g id="edge1" class="edge"><title>SecurityScheme&#45;&gt;MultiLanguage</title>
<path fill="none" stroke="black" d="M1050,-86.8918C1050,-72.7746 1050,-58.225 1050,-46.2337"/>
<polygon fill="black" stroke="black" points="1053.5,-46.0263 1050,-36.0263 1046.5,-46.0263 1053.5,-46.0263"/>
<text text-anchor="start" x="1050" y="-57.8" font-family="mono" font-size="14.00" fill="#c83500">descriptions</text>
<text text-anchor="middle" x="1039" y="-39.8263" font-family="Times,serif" font-size="14.00">0..1</text>
</g>
<!-- BearerSecurityScheme -->
<g id="node4" class="node"><title>BearerSecurityScheme</title>
<polygon fill="#8ccbf2" stroke="none" points="426,-346 426,-367 616,-367 616,-346 426,-346"/>
<polygon fill="none" stroke="#8ccbf2" points="426,-346 426,-367 616,-367 616,-346 426,-346"/>
<text text-anchor="start" x="438" y="-353.8" font-family="mono" font-weight="bold" font-size="14.00" fill="#c83500">BearerSecurityScheme</text>
<polygon fill="#ddeeff" stroke="none" points="426,-325 426,-346 616,-346 616,-325 426,-325"/>
<polygon fill="none" stroke="#8ccbf2" points="426,-325 426,-346 616,-346 616,-325 426,-325"/>
<text text-anchor="start" x="429" y="-332.8" font-family="mono" font-size="14.00" fill="#c83500">authorization</text>
<text text-anchor="start" x="537" y="-332.8" font-family="Times,serif" font-size="14.00"> : </text>
<text text-anchor="start" x="549" y="-332.8" font-family="mono" font-size="14.00" fill="#c83500">anyURI</text>
<polygon fill="#ddeeff" stroke="none" points="426,-304 426,-325 616,-325 616,-304 426,-304"/>
<polygon fill="none" stroke="#8ccbf2" points="426,-304 426,-325 616,-325 616,-304 426,-304"/>
<text text-anchor="start" x="429" y="-311.8" font-family="mono" font-size="14.00" fill="#c83500">format</text>
<text text-anchor="start" x="479" y="-311.8" font-family="Times,serif" font-size="14.00"> : </text>
<text text-anchor="start" x="491" y="-311.8" font-family="mono" font-size="14.00" fill="#c83500">string</text>
<text text-anchor="start" x="541" y="-311.8" font-family="Times,serif" font-size="14.00"> </text>
<text text-anchor="start" x="545" y="-311.8" font-family="Times,serif" font-style="italic" font-size="14.00">(mandatory)</text>
<polygon fill="#ddeeff" stroke="none" points="426,-283 426,-304 616,-304 616,-283 426,-283"/>
<polygon fill="none" stroke="#8ccbf2" points="426,-283 426,-304 616,-304 616,-283 426,-283"/>
<text text-anchor="start" x="429" y="-290.8" font-family="mono" font-size="14.00" fill="#c83500">alg</text>
<text text-anchor="start" x="454" y="-290.8" font-family="Times,serif" font-size="14.00"> : </text>
<text text-anchor="start" x="466" y="-290.8" font-family="mono" font-size="14.00" fill="#c83500">string</text>
<text text-anchor="start" x="516" y="-290.8" font-family="Times,serif" font-size="14.00"> </text>
<text text-anchor="start" x="520" y="-290.8" font-family="Times,serif" font-style="italic" font-size="14.00">(mandatory)</text>
<polygon fill="#ddeeff" stroke="none" points="426,-262 426,-283 616,-283 616,-262 426,-262"/>
<polygon fill="none" stroke="#8ccbf2" points="426,-262 426,-283 616,-283 616,-262 426,-262"/>
<text text-anchor="start" x="429" y="-269.8" font-family="mono" font-size="14.00" fill="#c83500">in</text>
<text text-anchor="start" x="446" y="-269.8" font-family="Times,serif" font-size="14.00"> : </text>
<text text-anchor="start" x="458" y="-269.8" font-family="mono" font-size="14.00" fill="#c83500">string</text>
<text text-anchor="start" x="508" y="-269.8" font-family="Times,serif" font-size="14.00"> </text>
<text text-anchor="start" x="512" y="-269.8" font-family="Times,serif" font-style="italic" font-size="14.00">(mandatory)</text>
<polygon fill="#ddeeff" stroke="none" points="426,-241 426,-262 616,-262 616,-241 426,-241"/>
<polygon fill="none" stroke="#8ccbf2" points="426,-241 426,-262 616,-262 616,-241 426,-241"/>
<text text-anchor="start" x="429" y="-248.8" font-family="mono" font-size="14.00" fill="#c83500">name</text>
<text text-anchor="start" x="463" y="-248.8" font-family="Times,serif" font-size="14.00"> : </text>
<text text-anchor="start" x="475" y="-248.8" font-family="mono" font-size="14.00" fill="#c83500">string</text>
</g>
<!-- BearerSecurityScheme&#45;&gt;SecurityScheme -->
<g id="edge9" class="edge"><title>BearerSecurityScheme&#45;&gt;SecurityScheme</title>
<path fill="none" stroke="black" d="M624.151,-240.676C627.107,-239.388 630.06,-238.158 633,-237 732.048,-197.967 851.15,-173.622 936.662,-159.767"/>
<polygon fill="white" stroke="black" points="937.336,-163.204 946.658,-158.171 936.231,-156.292 937.336,-163.204"/>
</g>
<!-- BasicSecurityScheme -->
<g id="node5" class="node"><title>BasicSecurityScheme</title>
<polygon fill="#8ccbf2" stroke="none" points="651,-314 651,-335 814,-335 814,-314 651,-314"/>
<polygon fill="none" stroke="#8ccbf2" points="651,-314 651,-335 814,-335 814,-314 651,-314"/>
<text text-anchor="start" x="654" y="-321.8" font-family="mono" font-weight="bold" font-size="14.00" fill="#c83500">BasicSecurityScheme</text>
<polygon fill="#ddeeff" stroke="none" points="651,-293 651,-314 814,-314 814,-293 651,-293"/>
<polygon fill="none" stroke="#8ccbf2" points="651,-293 651,-314 814,-314 814,-293 651,-293"/>
<text text-anchor="start" x="654" y="-300.8" font-family="mono" font-size="14.00" fill="#c83500">name</text>
<text text-anchor="start" x="688" y="-300.8" font-family="Times,serif" font-size="14.00"> : </text>
<text text-anchor="start" x="700" y="-300.8" font-family="mono" font-size="14.00" fill="#c83500">string</text>
<polygon fill="#ddeeff" stroke="none" points="651,-272 651,-293 814,-293 814,-272 651,-272"/>
<polygon fill="none" stroke="#8ccbf2" points="651,-272 651,-293 814,-293 814,-272 651,-272"/>
<text text-anchor="start" x="654" y="-279.8" font-family="mono" font-size="14.00" fill="#c83500">in</text>
<text text-anchor="start" x="671" y="-279.8" font-family="Times,serif" font-size="14.00"> : </text>
<text text-anchor="start" x="683" y="-279.8" font-family="mono" font-size="14.00" fill="#c83500">string</text>
<text text-anchor="start" x="733" y="-279.8" font-family="Times,serif" font-size="14.00"> </text>
<text text-anchor="start" x="737" y="-279.8" font-family="Times,serif" font-style="italic" font-size="14.00">(mandatory)</text>
</g>
<!-- BasicSecurityScheme&#45;&gt;SecurityScheme -->
<g id="edge6" class="edge"><title>BasicSecurityScheme&#45;&gt;SecurityScheme</title>
<path fill="none" stroke="black" d="M779.967,-268.388C795.823,-257.668 813.812,-246.253 831,-237 864.551,-218.939 902.385,-201.875 937.049,-187.437"/>
<polygon fill="white" stroke="black" points="938.829,-190.489 946.735,-183.436 936.157,-184.019 938.829,-190.489"/>
</g>
<!-- PoPSecurityScheme -->
<g id="node6" class="node"><title>PoPSecurityScheme</title>
<polygon fill="#8ccbf2" stroke="none" points="848,-346 848,-367 1038,-367 1038,-346 848,-346"/>
<polygon fill="none" stroke="#8ccbf2" points="848,-346 848,-367 1038,-367 1038,-346 848,-346"/>
<text text-anchor="start" x="872.5" y="-353.8" font-family="mono" font-weight="bold" font-size="14.00" fill="#c83500">PoPSecurityScheme</text>
<polygon fill="#ddeeff" stroke="none" points="848,-325 848,-346 1038,-346 1038,-325 848,-325"/>
<polygon fill="none" stroke="#8ccbf2" points="848,-325 848,-346 1038,-346 1038,-325 848,-325"/>
<text text-anchor="start" x="851" y="-332.8" font-family="mono" font-size="14.00" fill="#c83500">alg</text>
<text text-anchor="start" x="876" y="-332.8" font-family="Times,serif" font-size="14.00"> : </text>
<text text-anchor="start" x="888" y="-332.8" font-family="mono" font-size="14.00" fill="#c83500">string</text>
<text text-anchor="start" x="938" y="-332.8" font-family="Times,serif" font-size="14.00"> </text>
<text text-anchor="start" x="942" y="-332.8" font-family="Times,serif" font-style="italic" font-size="14.00">(mandatory)</text>
<polygon fill="#ddeeff" stroke="none" points="848,-304 848,-325 1038,-325 1038,-304 848,-304"/>
<polygon fill="none" stroke="#8ccbf2" points="848,-304 848,-325 1038,-325 1038,-304 848,-304"/>
<text text-anchor="start" x="851" y="-311.8" font-family="mono" font-size="14.00" fill="#c83500">name</text>
<text text-anchor="start" x="885" y="-311.8" font-family="Times,serif" font-size="14.00"> : </text>
<text text-anchor="start" x="897" y="-311.8" font-family="mono" font-size="14.00" fill="#c83500">string</text>
<polygon fill="#ddeeff" stroke="none" points="848,-283 848,-304 1038,-304 1038,-283 848,-283"/>
<polygon fill="none" stroke="#8ccbf2" points="848,-283 848,-304 1038,-304 1038,-283 848,-283"/>
<text text-anchor="start" x="851" y="-290.8" font-family="mono" font-size="14.00" fill="#c83500">format</text>
<text text-anchor="start" x="901" y="-290.8" font-family="Times,serif" font-size="14.00"> : </text>
<text text-anchor="start" x="913" y="-290.8" font-family="mono" font-size="14.00" fill="#c83500">string</text>
<text text-anchor="start" x="963" y="-290.8" font-family="Times,serif" font-size="14.00"> </text>
<text text-anchor="start" x="967" y="-290.8" font-family="Times,serif" font-style="italic" font-size="14.00">(mandatory)</text>
<polygon fill="#ddeeff" stroke="none" points="848,-262 848,-283 1038,-283 1038,-262 848,-262"/>
<polygon fill="none" stroke="#8ccbf2" points="848,-262 848,-283 1038,-283 1038,-262 848,-262"/>
<text text-anchor="start" x="851" y="-269.8" font-family="mono" font-size="14.00" fill="#c83500">authorization</text>
<text text-anchor="start" x="959" y="-269.8" font-family="Times,serif" font-size="14.00"> : </text>
<text text-anchor="start" x="971" y="-269.8" font-family="mono" font-size="14.00" fill="#c83500">anyURI</text>
<polygon fill="#ddeeff" stroke="none" points="848,-241 848,-262 1038,-262 1038,-241 848,-241"/>
<polygon fill="none" stroke="#8ccbf2" points="848,-241 848,-262 1038,-262 1038,-241 848,-241"/>
<text text-anchor="start" x="851" y="-248.8" font-family="mono" font-size="14.00" fill="#c83500">in</text>
<text text-anchor="start" x="868" y="-248.8" font-family="Times,serif" font-size="14.00"> : </text>
<text text-anchor="start" x="880" y="-248.8" font-family="mono" font-size="14.00" fill="#c83500">string</text>
<text text-anchor="start" x="930" y="-248.8" font-family="Times,serif" font-size="14.00"> </text>
<text text-anchor="start" x="934" y="-248.8" font-family="Times,serif" font-style="italic" font-size="14.00">(mandatory)</text>
</g>
<!-- PoPSecurityScheme&#45;&gt;SecurityScheme -->
<g id="edge3" class="edge"><title>PoPSecurityScheme&#45;&gt;SecurityScheme</title>
<path fill="none" stroke="black" d="M987.758,-236.7C993.984,-227.477 1000.37,-218.014 1006.57,-208.829"/>
<polygon fill="white" stroke="black" points="1009.51,-210.732 1012.21,-200.486 1003.71,-206.816 1009.51,-210.732"/>
</g>
<!-- PublicSecurityScheme -->
<g id="node7" class="node"><title>PublicSecurityScheme</title>
<polygon fill="#8ccbf2" stroke="none" points="1072,-304 1072,-325 1244,-325 1244,-304 1072,-304"/>
<polygon fill="none" stroke="#8ccbf2" points="1072,-304 1072,-325 1244,-325 1244,-304 1072,-304"/>
<text text-anchor="start" x="1075" y="-311.8" font-family="mono" font-weight="bold" font-size="14.00" fill="#c83500">PublicSecurityScheme</text>
<polygon fill="#ddeeff" stroke="none" points="1072,-283 1072,-304 1244,-304 1244,-283 1072,-283"/>
<polygon fill="none" stroke="#8ccbf2" points="1072,-283 1072,-304 1244,-304 1244,-283 1072,-283"/>
<text text-anchor="start" x="1075" y="-290.8" font-family="mono" font-size="14.00" fill="#c83500">identity</text>
<text text-anchor="start" x="1142" y="-290.8" font-family="Times,serif" font-size="14.00"> : </text>
<text text-anchor="start" x="1154" y="-290.8" font-family="mono" font-size="14.00" fill="#c83500">string</text>
</g>
<!-- PublicSecurityScheme&#45;&gt;SecurityScheme -->
<g id="edge2" class="edge"><title>PublicSecurityScheme&#45;&gt;SecurityScheme</title>
<path fill="none" stroke="black" d="M1141.6,-278.927C1128.82,-260.176 1110.47,-233.243 1093.54,-208.402"/>
<polygon fill="white" stroke="black" points="1096.39,-206.366 1087.87,-200.073 1090.61,-210.308 1096.39,-206.366"/>
</g>
<!-- DigestSecurityScheme -->
<g id="node8" class="node"><title>DigestSecurityScheme</title>
<polygon fill="#8ccbf2" stroke="none" points="1278,-325 1278,-346 1450,-346 1450,-325 1278,-325"/>
<polygon fill="none" stroke="#8ccbf2" points="1278,-325 1278,-346 1450,-346 1450,-325 1278,-325"/>
<text text-anchor="start" x="1281" y="-332.8" font-family="mono" font-weight="bold" font-size="14.00" fill="#c83500">DigestSecurityScheme</text>
<polygon fill="#ddeeff" stroke="none" points="1278,-304 1278,-325 1450,-325 1450,-304 1278,-304"/>
<polygon fill="none" stroke="#8ccbf2" points="1278,-304 1278,-325 1450,-325 1450,-304 1278,-304"/>
<text text-anchor="start" x="1281" y="-311.8" font-family="mono" font-size="14.00" fill="#c83500">in</text>
<text text-anchor="start" x="1298" y="-311.8" font-family="Times,serif" font-size="14.00"> : </text>
<text text-anchor="start" x="1310" y="-311.8" font-family="mono" font-size="14.00" fill="#c83500">string</text>
<text text-anchor="start" x="1360" y="-311.8" font-family="Times,serif" font-size="14.00"> </text>
<text text-anchor="start" x="1364" y="-311.8" font-family="Times,serif" font-style="italic" font-size="14.00">(mandatory)</text>
<polygon fill="#ddeeff" stroke="none" points="1278,-283 1278,-304 1450,-304 1450,-283 1278,-283"/>
<polygon fill="none" stroke="#8ccbf2" points="1278,-283 1278,-304 1450,-304 1450,-283 1278,-283"/>
<text text-anchor="start" x="1281" y="-290.8" font-family="mono" font-size="14.00" fill="#c83500">qop</text>
<text text-anchor="start" x="1306" y="-290.8" font-family="Times,serif" font-size="14.00"> : </text>
<text text-anchor="start" x="1318" y="-290.8" font-family="mono" font-size="14.00" fill="#c83500">string</text>
<text text-anchor="start" x="1368" y="-290.8" font-family="Times,serif" font-size="14.00"> </text>
<text text-anchor="start" x="1372" y="-290.8" font-family="Times,serif" font-style="italic" font-size="14.00">(mandatory)</text>
<polygon fill="#ddeeff" stroke="none" points="1278,-262 1278,-283 1450,-283 1450,-262 1278,-262"/>
<polygon fill="none" stroke="#8ccbf2" points="1278,-262 1278,-283 1450,-283 1450,-262 1278,-262"/>
<text text-anchor="start" x="1281" y="-269.8" font-family="mono" font-size="14.00" fill="#c83500">name</text>
<text text-anchor="start" x="1315" y="-269.8" font-family="Times,serif" font-size="14.00"> : </text>
<text text-anchor="start" x="1327" y="-269.8" font-family="mono" font-size="14.00" fill="#c83500">string</text>
</g>
<!-- DigestSecurityScheme&#45;&gt;SecurityScheme -->
<g id="edge5" class="edge"><title>DigestSecurityScheme&#45;&gt;SecurityScheme</title>
<path fill="none" stroke="black" d="M1297.04,-257.965C1285.22,-250.633 1272.89,-243.365 1261,-237 1229.79,-220.291 1194.94,-204.079 1162.69,-190.017"/>
<polygon fill="white" stroke="black" points="1163.79,-186.68 1153.22,-185.917 1161.01,-193.103 1163.79,-186.68"/>
</g>
<!-- NoSecurityScheme -->
<g id="node9" class="node"><title>NoSecurityScheme</title>
<polygon fill="#8ccbf2" stroke="none" points="1485,-293 1485,-314 1624,-314 1624,-293 1485,-293"/>
<polygon fill="none" stroke="#8ccbf2" points="1485,-293 1485,-314 1624,-314 1624,-293 1485,-293"/>
<text text-anchor="start" x="1488" y="-300.8" font-family="mono" font-weight="bold" font-size="14.00" fill="#c83500">NoSecurityScheme</text>
</g>
<!-- NoSecurityScheme&#45;&gt;SecurityScheme -->
<g id="edge11" class="edge"><title>NoSecurityScheme&#45;&gt;SecurityScheme</title>
<path fill="none" stroke="black" d="M1536.19,-285.759C1519.6,-270.66 1493.49,-249.268 1467,-237 1369.91,-192.042 1249.79,-168.378 1163.45,-156.287"/>
<polygon fill="white" stroke="black" points="1163.74,-152.794 1153.36,-154.904 1162.79,-159.729 1163.74,-152.794"/>
</g>
<!-- PSKSecurityScheme -->
<g id="node10" class="node"><title>PSKSecurityScheme</title>
<polygon fill="#8ccbf2" stroke="none" points="1658,-304 1658,-325 1805,-325 1805,-304 1658,-304"/>
<polygon fill="none" stroke="#8ccbf2" points="1658,-304 1658,-325 1805,-325 1805,-304 1658,-304"/>
<text text-anchor="start" x="1661" y="-311.8" font-family="mono" font-weight="bold" font-size="14.00" fill="#c83500">PSKSecurityScheme</text>
<polygon fill="#ddeeff" stroke="none" points="1658,-283 1658,-304 1805,-304 1805,-283 1658,-283"/>
<polygon fill="none" stroke="#8ccbf2" points="1658,-283 1658,-304 1805,-304 1805,-283 1658,-283"/>
<text text-anchor="start" x="1661" y="-290.8" font-family="mono" font-size="14.00" fill="#c83500">identity</text>
<text text-anchor="start" x="1728" y="-290.8" font-family="Times,serif" font-size="14.00"> : </text>
<text text-anchor="start" x="1740" y="-290.8" font-family="mono" font-size="14.00" fill="#c83500">string</text>
</g>
<!-- PSKSecurityScheme&#45;&gt;SecurityScheme -->
<g id="edge7" class="edge"><title>PSKSecurityScheme&#45;&gt;SecurityScheme</title>
<path fill="none" stroke="black" d="M1704.78,-278.792C1687.62,-264.332 1663.99,-246.904 1640,-237 1482.93,-172.16 1285.16,-152.43 1163.17,-146.625"/>
<polygon fill="white" stroke="black" points="1163.21,-143.124 1153.07,-146.168 1162.9,-150.117 1163.21,-143.124"/>
</g>
<!-- CertSecurityScheme -->
<g id="node11" class="node"><title>CertSecurityScheme</title>
<polygon fill="#8ccbf2" stroke="none" points="1839,-304 1839,-325 1994,-325 1994,-304 1839,-304"/>
<polygon fill="none" stroke="#8ccbf2" points="1839,-304 1839,-325 1994,-325 1994,-304 1839,-304"/>
<text text-anchor="start" x="1842" y="-311.8" font-family="mono" font-weight="bold" font-size="14.00" fill="#c83500">CertSecurityScheme</text>
<polygon fill="#ddeeff" stroke="none" points="1839,-283 1839,-304 1994,-304 1994,-283 1839,-283"/>
<polygon fill="none" stroke="#8ccbf2" points="1839,-283 1839,-304 1994,-304 1994,-283 1839,-283"/>
<text text-anchor="start" x="1842" y="-290.8" font-family="mono" font-size="14.00" fill="#c83500">identity</text>
<text text-anchor="start" x="1909" y="-290.8" font-family="Times,serif" font-size="14.00"> : </text>
<text text-anchor="start" x="1921" y="-290.8" font-family="mono" font-size="14.00" fill="#c83500">string</text>
</g>
<!-- CertSecurityScheme&#45;&gt;SecurityScheme -->
<g id="edge10" class="edge"><title>CertSecurityScheme&#45;&gt;SecurityScheme</title>
<path fill="none" stroke="black" d="M1888.98,-278.834C1871,-264.198 1846.15,-246.563 1821,-237 1703.37,-192.281 1347.27,-163.592 1163.08,-151.336"/>
<polygon fill="white" stroke="black" points="1163.3,-147.843 1153.09,-150.676 1162.83,-154.828 1163.3,-147.843"/>
</g>
</g>
</svg>
