<?xml version="1.0" encoding="UTF-8" standalone="no"?>
<!DOCTYPE svg PUBLIC "-//W3C//DTD SVG 1.1//EN"
 "http://www.w3.org/Graphics/SVG/1.1/DTD/svg11.dtd">
<!-- Generated by graphviz version 2.38.0 (20140413.2041)
 -->
<!-- Title: %3 Pages: 1 -->
<svg width="2008pt" height="312pt"
 viewBox="0.00 0.00 2007.50 312.00" xmlns="http://www.w3.org/2000/svg" xmlns:xlink="http://www.w3.org/1999/xlink">
<g id="graph0" class="graph" transform="scale(1 1) rotate(0) translate(4 308)">
<title>%3</title>
<polygon fill="white" stroke="none" points="-4,4 -4,-308 2003.5,-308 2003.5,4 -4,4"/>
<!-- APIKeySecurityScheme -->
<g id="node1" class="node"><title>APIKeySecurityScheme</title>
<polygon fill="#8ccbf2" stroke="none" points="8,-247 8,-268 180,-268 180,-247 8,-247"/>
<polygon fill="none" stroke="#8ccbf2" points="8,-247 8,-268 180,-268 180,-247 8,-247"/>
<text text-anchor="start" x="11" y="-254.8" font-family="mono" font-weight="bold" font-size="14.00" fill="#c83500">APIKeySecurityScheme</text>
<polygon fill="#ddeeff" stroke="none" points="8,-226 8,-247 180,-247 180,-226 8,-226"/>
<polygon fill="none" stroke="#8ccbf2" points="8,-226 8,-247 180,-247 180,-226 8,-226"/>
<text text-anchor="start" x="11" y="-233.8" font-family="mono" font-size="14.00" fill="#c83500">name</text>
<text text-anchor="start" x="45" y="-233.8" font-family="Times,serif" font-size="14.00"> : </text>
<text text-anchor="start" x="57" y="-233.8" font-family="mono" font-size="14.00" fill="#c83500">string</text>
<polygon fill="#ddeeff" stroke="none" points="8,-205 8,-226 180,-226 180,-205 8,-205"/>
<polygon fill="none" stroke="#8ccbf2" points="8,-205 8,-226 180,-226 180,-205 8,-205"/>
<text text-anchor="start" x="11" y="-212.8" font-family="mono" font-size="14.00" fill="#c83500">in</text>
<text text-anchor="start" x="28" y="-212.8" font-family="Times,serif" font-size="14.00"> : </text>
<text text-anchor="start" x="40" y="-212.8" font-family="mono" font-size="14.00" fill="#c83500">string</text>
<text text-anchor="start" x="90" y="-212.8" font-family="Times,serif" font-size="14.00"> </text>
<text text-anchor="start" x="94" y="-212.8" font-family="Times,serif" font-style="italic" font-size="14.00">(mandatory)</text>
</g>
<!-- SecurityScheme -->
<g id="node3" class="node"><title>SecurityScheme</title>
<polygon fill="#8ccbf2" stroke="none" points="916,-109 916,-130 1180,-130 1180,-109 916,-109"/>
<polygon fill="none" stroke="#8ccbf2" points="916,-109 916,-130 1180,-130 1180,-109 916,-109"/>
<text text-anchor="start" x="990" y="-116.8" font-family="mono" font-weight="bold" font-size="14.00" fill="#c83500">SecurityScheme</text>
<polygon fill="#ddeeff" stroke="none" points="916,-88 916,-109 1180,-109 1180,-88 916,-88"/>
<polygon fill="none" stroke="#8ccbf2" points="916,-88 916,-109 1180,-109 1180,-88 916,-88"/>
<text text-anchor="start" x="919" y="-95.8" font-family="mono" font-size="14.00" fill="#c83500">@context</text>
<text text-anchor="start" x="986" y="-95.8" font-family="Times,serif" font-size="14.00"> : </text>
<text text-anchor="start" x="998" y="-95.8" font-family="Times,serif" font-style="italic" font-size="14.00">array of </text>
<text text-anchor="start" x="1047" y="-95.8" font-family="mono" font-size="14.00" fill="#c83500">context</text>
<text text-anchor="start" x="1105" y="-95.8" font-family="Times,serif" font-size="14.00"> </text>
<text text-anchor="start" x="1109" y="-95.8" font-family="Times,serif" font-style="italic" font-size="14.00">(mandatory)</text>
<polygon fill="#ddeeff" stroke="none" points="916,-67 916,-88 1180,-88 1180,-67 916,-67"/>
<polygon fill="none" stroke="#8ccbf2" points="916,-67 916,-88 1180,-88 1180,-67 916,-67"/>
<text text-anchor="start" x="919" y="-74.8" font-family="mono" font-size="14.00" fill="#c83500">@type</text>
<text text-anchor="start" x="961" y="-74.8" font-family="Times,serif" font-size="14.00"> : </text>
<text text-anchor="start" x="973" y="-74.8" font-family="Times,serif" font-style="italic" font-size="14.00">array of </text>
<text text-anchor="start" x="1022" y="-74.8" font-family="mono" font-size="14.00" fill="#c83500">string</text>
<polygon fill="#ddeeff" stroke="none" points="916,-46 916,-67 1180,-67 1180,-46 916,-46"/>
<polygon fill="none" stroke="#8ccbf2" points="916,-46 916,-67 1180,-67 1180,-46 916,-46"/>
<text text-anchor="start" x="919" y="-53.8" font-family="mono" font-size="14.00" fill="#c83500">scheme</text>
<text text-anchor="start" x="969" y="-53.8" font-family="Times,serif" font-size="14.00"> : </text>
<text text-anchor="start" x="981" y="-53.8" font-family="mono" font-size="14.00" fill="#c83500">string</text>
<text text-anchor="start" x="1031" y="-53.8" font-family="Times,serif" font-size="14.00"> </text>
<text text-anchor="start" x="1035" y="-53.8" font-family="Times,serif" font-style="italic" font-size="14.00">(mandatory)</text>
<polygon fill="#ddeeff" stroke="none" points="916,-25 916,-46 1180,-46 1180,-25 916,-25"/>
<polygon fill="none" stroke="#8ccbf2" points="916,-25 916,-46 1180,-46 1180,-25 916,-25"/>
<text text-anchor="start" x="919" y="-32.8" font-family="mono" font-size="14.00" fill="#c83500">proxy</text>
<text text-anchor="start" x="961" y="-32.8" font-family="Times,serif" font-size="14.00"> : </text>
<text text-anchor="start" x="973" y="-32.8" font-family="mono" font-size="14.00" fill="#c83500">anyURI</text>
<polygon fill="#ddeeff" stroke="none" points="916,-4 916,-25 1180,-25 1180,-4 916,-4"/>
<polygon fill="none" stroke="#8ccbf2" points="916,-4 916,-25 1180,-25 1180,-4 916,-4"/>
<text text-anchor="start" x="919" y="-11.8" font-family="mono" font-size="14.00" fill="#c83500">description</text>
<text text-anchor="start" x="1010" y="-11.8" font-family="Times,serif" font-size="14.00"> : </text>
<text text-anchor="start" x="1022" y="-11.8" font-family="mono" font-size="14.00" fill="#c83500">string</text>
</g>
<!-- APIKeySecurityScheme&#45;&gt;SecurityScheme -->
<g id="edge5" class="edge"><title>APIKeySecurityScheme&#45;&gt;SecurityScheme</title>
<path fill="none" stroke="black" d="M138.333,-201.373C155.716,-189.517 176.411,-177.389 197,-170 322.395,-124.996 688.74,-93.0451 897.602,-77.9056"/>
<polygon fill="white" stroke="black" points="898.013,-81.3852 907.735,-77.1753 897.51,-74.4033 898.013,-81.3852"/>
</g>
<!-- OAuth2SecurityScheme -->
<g id="node2" class="node"><title>OAuth2SecurityScheme</title>
<polygon fill="#8ccbf2" stroke="none" points="214,-279 214,-300 390,-300 390,-279 214,-279"/>
<polygon fill="none" stroke="#8ccbf2" points="214,-279 214,-300 390,-300 390,-279 214,-279"/>
<text text-anchor="start" x="219" y="-286.8" font-family="mono" font-weight="bold" font-size="14.00" fill="#c83500">OAuth2SecurityScheme</text>
<polygon fill="#ddeeff" stroke="none" points="214,-258 214,-279 390,-279 390,-258 214,-258"/>
<polygon fill="none" stroke="#8ccbf2" points="214,-258 214,-279 390,-279 390,-258 214,-258"/>
<text text-anchor="start" x="217" y="-265.8" font-family="mono" font-size="14.00" fill="#c83500">token</text>
<text text-anchor="start" x="259" y="-265.8" font-family="Times,serif" font-size="14.00"> : </text>
<text text-anchor="start" x="271" y="-265.8" font-family="mono" font-size="14.00" fill="#c83500">anyURI</text>
<polygon fill="#ddeeff" stroke="none" points="214,-237 214,-258 390,-258 390,-237 214,-237"/>
<polygon fill="none" stroke="#8ccbf2" points="214,-237 214,-258 390,-258 390,-237 214,-237"/>
<text text-anchor="start" x="217" y="-244.8" font-family="mono" font-size="14.00" fill="#c83500">scopes</text>
<text text-anchor="start" x="267" y="-244.8" font-family="Times,serif" font-size="14.00"> : array of </text>
<text text-anchor="start" x="325" y="-244.8" font-family="mono" font-size="14.00" fill="#c83500">string</text>
<polygon fill="#ddeeff" stroke="none" points="214,-216 214,-237 390,-237 390,-216 214,-216"/>
<polygon fill="none" stroke="#8ccbf2" points="214,-216 214,-237 390,-237 390,-216 214,-216"/>
<text text-anchor="start" x="217" y="-223.8" font-family="mono" font-size="14.00" fill="#c83500">authorization</text>
<text text-anchor="start" x="325" y="-223.8" font-family="Times,serif" font-size="14.00"> : </text>
<text text-anchor="start" x="337" y="-223.8" font-family="mono" font-size="14.00" fill="#c83500">anyURI</text>
<polygon fill="#ddeeff" stroke="none" points="214,-195 214,-216 390,-216 390,-195 214,-195"/>
<polygon fill="none" stroke="#8ccbf2" points="214,-195 214,-216 390,-216 390,-195 214,-195"/>
<text text-anchor="start" x="217" y="-202.8" font-family="mono" font-size="14.00" fill="#c83500">refresh</text>
<text text-anchor="start" x="275" y="-202.8" font-family="Times,serif" font-size="14.00"> : </text>
<text text-anchor="start" x="287" y="-202.8" font-family="mono" font-size="14.00" fill="#c83500">anyURI</text>
<polygon fill="#ddeeff" stroke="none" points="214,-174 214,-195 390,-195 390,-174 214,-174"/>
<polygon fill="none" stroke="#8ccbf2" points="214,-174 214,-195 390,-195 390,-174 214,-174"/>
<text text-anchor="start" x="217" y="-181.8" font-family="mono" font-size="14.00" fill="#c83500">flow</text>
<text text-anchor="start" x="251" y="-181.8" font-family="Times,serif" font-size="14.00"> : </text>
<text text-anchor="start" x="263" y="-181.8" font-family="mono" font-size="14.00" fill="#c83500">string</text>
<text text-anchor="start" x="313" y="-181.8" font-family="Times,serif" font-size="14.00"> </text>
<text text-anchor="start" x="317" y="-181.8" font-family="Times,serif" font-style="italic" font-size="14.00">(mandatory)</text>
</g>
<!-- OAuth2SecurityScheme&#45;&gt;SecurityScheme -->
<g id="edge1" class="edge"><title>OAuth2SecurityScheme&#45;&gt;SecurityScheme</title>
<path fill="none" stroke="black" d="M398.225,-173.543C401.149,-172.284 404.078,-171.098 407,-170 568.016,-109.488 764.919,-84.8741 897.662,-74.8627"/>
<polygon fill="white" stroke="black" points="898.188,-78.3336 907.904,-74.1096 897.675,-71.3524 898.188,-78.3336"/>
</g>
<!-- BearerSecurityScheme -->
<g id="node4" class="node"><title>BearerSecurityScheme</title>
<polygon fill="#8ccbf2" stroke="none" points="424,-279 424,-300 614,-300 614,-279 424,-279"/>
<polygon fill="none" stroke="#8ccbf2" points="424,-279 424,-300 614,-300 614,-279 424,-279"/>
<text text-anchor="start" x="436" y="-286.8" font-family="mono" font-weight="bold" font-size="14.00" fill="#c83500">BearerSecurityScheme</text>
<polygon fill="#ddeeff" stroke="none" points="424,-258 424,-279 614,-279 614,-258 424,-258"/>
<polygon fill="none" stroke="#8ccbf2" points="424,-258 424,-279 614,-279 614,-258 424,-258"/>
<text text-anchor="start" x="427" y="-265.8" font-family="mono" font-size="14.00" fill="#c83500">name</text>
<text text-anchor="start" x="461" y="-265.8" font-family="Times,serif" font-size="14.00"> : </text>
<text text-anchor="start" x="473" y="-265.8" font-family="mono" font-size="14.00" fill="#c83500">string</text>
<polygon fill="#ddeeff" stroke="none" points="424,-237 424,-258 614,-258 614,-237 424,-237"/>
<polygon fill="none" stroke="#8ccbf2" points="424,-237 424,-258 614,-258 614,-237 424,-237"/>
<text text-anchor="start" x="427" y="-244.8" font-family="mono" font-size="14.00" fill="#c83500">authorization</text>
<text text-anchor="start" x="535" y="-244.8" font-family="Times,serif" font-size="14.00"> : </text>
<text text-anchor="start" x="547" y="-244.8" font-family="mono" font-size="14.00" fill="#c83500">anyURI</text>
<polygon fill="#ddeeff" stroke="none" points="424,-216 424,-237 614,-237 614,-216 424,-216"/>
<polygon fill="none" stroke="#8ccbf2" points="424,-216 424,-237 614,-237 614,-216 424,-216"/>
<text text-anchor="start" x="427" y="-223.8" font-family="mono" font-size="14.00" fill="#c83500">alg</text>
<text text-anchor="start" x="452" y="-223.8" font-family="Times,serif" font-size="14.00"> : </text>
<text text-anchor="start" x="464" y="-223.8" font-family="mono" font-size="14.00" fill="#c83500">string</text>
<text text-anchor="start" x="514" y="-223.8" font-family="Times,serif" font-size="14.00"> </text>
<text text-anchor="start" x="518" y="-223.8" font-family="Times,serif" font-style="italic" font-size="14.00">(mandatory)</text>
<polygon fill="#ddeeff" stroke="none" points="424,-195 424,-216 614,-216 614,-195 424,-195"/>
<polygon fill="none" stroke="#8ccbf2" points="424,-195 424,-216 614,-216 614,-195 424,-195"/>
<text text-anchor="start" x="427" y="-202.8" font-family="mono" font-size="14.00" fill="#c83500">format</text>
<text text-anchor="start" x="477" y="-202.8" font-family="Times,serif" font-size="14.00"> : </text>
<text text-anchor="start" x="489" y="-202.8" font-family="mono" font-size="14.00" fill="#c83500">string</text>
<text text-anchor="start" x="539" y="-202.8" font-family="Times,serif" font-size="14.00"> </text>
<text text-anchor="start" x="543" y="-202.8" font-family="Times,serif" font-style="italic" font-size="14.00">(mandatory)</text>
<polygon fill="#ddeeff" stroke="none" points="424,-174 424,-195 614,-195 614,-174 424,-174"/>
<polygon fill="none" stroke="#8ccbf2" points="424,-174 424,-195 614,-195 614,-174 424,-174"/>
<text text-anchor="start" x="427" y="-181.8" font-family="mono" font-size="14.00" fill="#c83500">in</text>
<text text-anchor="start" x="444" y="-181.8" font-family="Times,serif" font-size="14.00"> : </text>
<text text-anchor="start" x="456" y="-181.8" font-family="mono" font-size="14.00" fill="#c83500">string</text>
<text text-anchor="start" x="506" y="-181.8" font-family="Times,serif" font-size="14.00"> </text>
<text text-anchor="start" x="510" y="-181.8" font-family="Times,serif" font-style="italic" font-size="14.00">(mandatory)</text>
</g>
<!-- BearerSecurityScheme&#45;&gt;SecurityScheme -->
<g id="edge9" class="edge"><title>BearerSecurityScheme&#45;&gt;SecurityScheme</title>
<path fill="none" stroke="black" d="M622.185,-173.761C625.131,-172.448 628.073,-171.19 631,-170 716.41,-135.271 816.65,-110.288 897.444,-93.7411"/>
<polygon fill="white" stroke="black" points="898.594,-97.0792 907.701,-91.6642 897.205,-90.2184 898.594,-97.0792"/>
</g>
<!-- BasicSecurityScheme -->
<g id="node5" class="node"><title>BasicSecurityScheme</title>
<polygon fill="#8ccbf2" stroke="none" points="649,-247 649,-268 812,-268 812,-247 649,-247"/>
<polygon fill="none" stroke="#8ccbf2" points="649,-247 649,-268 812,-268 812,-247 649,-247"/>
<text text-anchor="start" x="652" y="-254.8" font-family="mono" font-weight="bold" font-size="14.00" fill="#c83500">BasicSecurityScheme</text>
<polygon fill="#ddeeff" stroke="none" points="649,-226 649,-247 812,-247 812,-226 649,-226"/>
<polygon fill="none" stroke="#8ccbf2" points="649,-226 649,-247 812,-247 812,-226 649,-226"/>
<text text-anchor="start" x="652" y="-233.8" font-family="mono" font-size="14.00" fill="#c83500">name</text>
<text text-anchor="start" x="686" y="-233.8" font-family="Times,serif" font-size="14.00"> : </text>
<text text-anchor="start" x="698" y="-233.8" font-family="mono" font-size="14.00" fill="#c83500">string</text>
<polygon fill="#ddeeff" stroke="none" points="649,-205 649,-226 812,-226 812,-205 649,-205"/>
<polygon fill="none" stroke="#8ccbf2" points="649,-205 649,-226 812,-226 812,-205 649,-205"/>
<text text-anchor="start" x="652" y="-212.8" font-family="mono" font-size="14.00" fill="#c83500">in</text>
<text text-anchor="start" x="669" y="-212.8" font-family="Times,serif" font-size="14.00"> : </text>
<text text-anchor="start" x="681" y="-212.8" font-family="mono" font-size="14.00" fill="#c83500">string</text>
<text text-anchor="start" x="731" y="-212.8" font-family="Times,serif" font-size="14.00"> </text>
<text text-anchor="start" x="735" y="-212.8" font-family="Times,serif" font-style="italic" font-size="14.00">(mandatory)</text>
</g>
<!-- BasicSecurityScheme&#45;&gt;SecurityScheme -->
<g id="edge3" class="edge"><title>BasicSecurityScheme&#45;&gt;SecurityScheme</title>
<path fill="none" stroke="black" d="M778.675,-201.418C794.417,-190.816 812.162,-179.461 829,-170 851.21,-157.52 875.209,-145.22 898.898,-133.717"/>
<polygon fill="white" stroke="black" points="900.47,-136.845 907.958,-129.349 897.43,-130.54 900.47,-136.845"/>
</g>
<!-- PoPSecurityScheme -->
<g id="node6" class="node"><title>PoPSecurityScheme</title>
<polygon fill="#8ccbf2" stroke="none" points="846,-279 846,-300 1036,-300 1036,-279 846,-279"/>
<polygon fill="none" stroke="#8ccbf2" points="846,-279 846,-300 1036,-300 1036,-279 846,-279"/>
<text text-anchor="start" x="870.5" y="-286.8" font-family="mono" font-weight="bold" font-size="14.00" fill="#c83500">PoPSecurityScheme</text>
<polygon fill="#ddeeff" stroke="none" points="846,-258 846,-279 1036,-279 1036,-258 846,-258"/>
<polygon fill="none" stroke="#8ccbf2" points="846,-258 846,-279 1036,-279 1036,-258 846,-258"/>
<text text-anchor="start" x="849" y="-265.8" font-family="mono" font-size="14.00" fill="#c83500">format</text>
<text text-anchor="start" x="899" y="-265.8" font-family="Times,serif" font-size="14.00"> : </text>
<text text-anchor="start" x="911" y="-265.8" font-family="mono" font-size="14.00" fill="#c83500">string</text>
<text text-anchor="start" x="961" y="-265.8" font-family="Times,serif" font-size="14.00"> </text>
<text text-anchor="start" x="965" y="-265.8" font-family="Times,serif" font-style="italic" font-size="14.00">(mandatory)</text>
<polygon fill="#ddeeff" stroke="none" points="846,-237 846,-258 1036,-258 1036,-237 846,-237"/>
<polygon fill="none" stroke="#8ccbf2" points="846,-237 846,-258 1036,-258 1036,-237 846,-237"/>
<text text-anchor="start" x="849" y="-244.8" font-family="mono" font-size="14.00" fill="#c83500">authorization</text>
<text text-anchor="start" x="957" y="-244.8" font-family="Times,serif" font-size="14.00"> : </text>
<text text-anchor="start" x="969" y="-244.8" font-family="mono" font-size="14.00" fill="#c83500">anyURI</text>
<polygon fill="#ddeeff" stroke="none" points="846,-216 846,-237 1036,-237 1036,-216 846,-216"/>
<polygon fill="none" stroke="#8ccbf2" points="846,-216 846,-237 1036,-237 1036,-216 846,-216"/>
<text text-anchor="start" x="849" y="-223.8" font-family="mono" font-size="14.00" fill="#c83500">alg</text>
<text text-anchor="start" x="874" y="-223.8" font-family="Times,serif" font-size="14.00"> : </text>
<text text-anchor="start" x="886" y="-223.8" font-family="mono" font-size="14.00" fill="#c83500">string</text>
<text text-anchor="start" x="936" y="-223.8" font-family="Times,serif" font-size="14.00"> </text>
<text text-anchor="start" x="940" y="-223.8" font-family="Times,serif" font-style="italic" font-size="14.00">(mandatory)</text>
<polygon fill="#ddeeff" stroke="none" points="846,-195 846,-216 1036,-216 1036,-195 846,-195"/>
<polygon fill="none" stroke="#8ccbf2" points="846,-195 846,-216 1036,-216 1036,-195 846,-195"/>
<text text-anchor="start" x="849" y="-202.8" font-family="mono" font-size="14.00" fill="#c83500">name</text>
<text text-anchor="start" x="883" y="-202.8" font-family="Times,serif" font-size="14.00"> : </text>
<text text-anchor="start" x="895" y="-202.8" font-family="mono" font-size="14.00" fill="#c83500">string</text>
<polygon fill="#ddeeff" stroke="none" points="846,-174 846,-195 1036,-195 1036,-174 846,-174"/>
<polygon fill="none" stroke="#8ccbf2" points="846,-174 846,-195 1036,-195 1036,-174 846,-174"/>
<text text-anchor="start" x="849" y="-181.8" font-family="mono" font-size="14.00" fill="#c83500">in</text>
<text text-anchor="start" x="866" y="-181.8" font-family="Times,serif" font-size="14.00"> : </text>
<text text-anchor="start" x="878" y="-181.8" font-family="mono" font-size="14.00" fill="#c83500">string</text>
<text text-anchor="start" x="928" y="-181.8" font-family="Times,serif" font-size="14.00"> </text>
<text text-anchor="start" x="932" y="-181.8" font-family="Times,serif" font-style="italic" font-size="14.00">(mandatory)</text>
</g>
<!-- PoPSecurityScheme&#45;&gt;SecurityScheme -->
<g id="edge2" class="edge"><title>PoPSecurityScheme&#45;&gt;SecurityScheme</title>
<path fill="none" stroke="black" d="M983.289,-169.602C988.911,-160.775 994.706,-151.676 1000.41,-142.72"/>
<polygon fill="white" stroke="black" points="1003.42,-144.506 1005.84,-134.191 997.519,-140.745 1003.42,-144.506"/>
</g>
<!-- PublicSecurityScheme -->
<g id="node7" class="node"><title>PublicSecurityScheme</title>
<polygon fill="#8ccbf2" stroke="none" points="1070,-237 1070,-258 1242,-258 1242,-237 1070,-237"/>
<polygon fill="none" stroke="#8ccbf2" points="1070,-237 1070,-258 1242,-258 1242,-237 1070,-237"/>
<text text-anchor="start" x="1073" y="-244.8" font-family="mono" font-weight="bold" font-size="14.00" fill="#c83500">PublicSecurityScheme</text>
<polygon fill="#ddeeff" stroke="none" points="1070,-216 1070,-237 1242,-237 1242,-216 1070,-216"/>
<polygon fill="none" stroke="#8ccbf2" points="1070,-216 1070,-237 1242,-237 1242,-216 1070,-216"/>
<text text-anchor="start" x="1073" y="-223.8" font-family="mono" font-size="14.00" fill="#c83500">identity</text>
<text text-anchor="start" x="1140" y="-223.8" font-family="Times,serif" font-size="14.00"> : </text>
<text text-anchor="start" x="1152" y="-223.8" font-family="mono" font-size="14.00" fill="#c83500">string</text>
</g>
<!-- PublicSecurityScheme&#45;&gt;SecurityScheme -->
<g id="edge10" class="edge"><title>PublicSecurityScheme&#45;&gt;SecurityScheme</title>
<path fill="none" stroke="black" d="M1140.53,-211.93C1128.79,-193.67 1111.98,-167.528 1095.91,-142.521"/>
<polygon fill="white" stroke="black" points="1098.84,-140.616 1090.49,-134.097 1092.95,-144.401 1098.84,-140.616"/>
</g>
<!-- DigestSecurityScheme -->
<g id="node8" class="node"><title>DigestSecurityScheme</title>
<polygon fill="#8ccbf2" stroke="none" points="1276,-258 1276,-279 1448,-279 1448,-258 1276,-258"/>
<polygon fill="none" stroke="#8ccbf2" points="1276,-258 1276,-279 1448,-279 1448,-258 1276,-258"/>
<text text-anchor="start" x="1279" y="-265.8" font-family="mono" font-weight="bold" font-size="14.00" fill="#c83500">DigestSecurityScheme</text>
<polygon fill="#ddeeff" stroke="none" points="1276,-237 1276,-258 1448,-258 1448,-237 1276,-237"/>
<polygon fill="none" stroke="#8ccbf2" points="1276,-237 1276,-258 1448,-258 1448,-237 1276,-237"/>
<text text-anchor="start" x="1279" y="-244.8" font-family="mono" font-size="14.00" fill="#c83500">qop</text>
<text text-anchor="start" x="1304" y="-244.8" font-family="Times,serif" font-size="14.00"> : </text>
<text text-anchor="start" x="1316" y="-244.8" font-family="mono" font-size="14.00" fill="#c83500">string</text>
<text text-anchor="start" x="1366" y="-244.8" font-family="Times,serif" font-size="14.00"> </text>
<text text-anchor="start" x="1370" y="-244.8" font-family="Times,serif" font-style="italic" font-size="14.00">(mandatory)</text>
<polygon fill="#ddeeff" stroke="none" points="1276,-216 1276,-237 1448,-237 1448,-216 1276,-216"/>
<polygon fill="none" stroke="#8ccbf2" points="1276,-216 1276,-237 1448,-237 1448,-216 1276,-216"/>
<text text-anchor="start" x="1279" y="-223.8" font-family="mono" font-size="14.00" fill="#c83500">name</text>
<text text-anchor="start" x="1313" y="-223.8" font-family="Times,serif" font-size="14.00"> : </text>
<text text-anchor="start" x="1325" y="-223.8" font-family="mono" font-size="14.00" fill="#c83500">string</text>
<polygon fill="#ddeeff" stroke="none" points="1276,-195 1276,-216 1448,-216 1448,-195 1276,-195"/>
<polygon fill="none" stroke="#8ccbf2" points="1276,-195 1276,-216 1448,-216 1448,-195 1276,-195"/>
<text text-anchor="start" x="1279" y="-202.8" font-family="mono" font-size="14.00" fill="#c83500">in</text>
<text text-anchor="start" x="1296" y="-202.8" font-family="Times,serif" font-size="14.00"> : </text>
<text text-anchor="start" x="1308" y="-202.8" font-family="mono" font-size="14.00" fill="#c83500">string</text>
<text text-anchor="start" x="1358" y="-202.8" font-family="Times,serif" font-size="14.00"> </text>
<text text-anchor="start" x="1362" y="-202.8" font-family="Times,serif" font-style="italic" font-size="14.00">(mandatory)</text>
</g>
<!-- DigestSecurityScheme&#45;&gt;SecurityScheme -->
<g id="edge8" class="edge"><title>DigestSecurityScheme&#45;&gt;SecurityScheme</title>
<path fill="none" stroke="black" d="M1294.28,-190.989C1282.65,-183.731 1270.58,-176.481 1259,-170 1239.27,-158.962 1218.17,-147.911 1197.21,-137.372"/>
<polygon fill="white" stroke="black" points="1198.76,-134.23 1188.25,-132.888 1195.62,-140.491 1198.76,-134.23"/>
</g>
<!-- NoSecurityScheme -->
<g id="node9" class="node"><title>NoSecurityScheme</title>
<polygon fill="#8ccbf2" stroke="none" points="1483,-226 1483,-247 1622,-247 1622,-226 1483,-226"/>
<polygon fill="none" stroke="#8ccbf2" points="1483,-226 1483,-247 1622,-247 1622,-226 1483,-226"/>
<text text-anchor="start" x="1486" y="-233.8" font-family="mono" font-weight="bold" font-size="14.00" fill="#c83500">NoSecurityScheme</text>
</g>
<!-- NoSecurityScheme&#45;&gt;SecurityScheme -->
<g id="edge6" class="edge"><title>NoSecurityScheme&#45;&gt;SecurityScheme</title>
<path fill="none" stroke="black" d="M1534.13,-218.895C1517.49,-203.887 1491.36,-182.553 1465,-170 1380.94,-129.969 1279.62,-104.718 1197.91,-89.3548"/>
<polygon fill="white" stroke="black" points="1198.51,-85.9072 1188.04,-87.5299 1197.24,-92.7905 1198.51,-85.9072"/>
</g>
<!-- PSKSecurityScheme -->
<g id="node10" class="node"><title>PSKSecurityScheme</title>
<polygon fill="#8ccbf2" stroke="none" points="1656,-237 1656,-258 1803,-258 1803,-237 1656,-237"/>
<polygon fill="none" stroke="#8ccbf2" points="1656,-237 1656,-258 1803,-258 1803,-237 1656,-237"/>
<text text-anchor="start" x="1659" y="-244.8" font-family="mono" font-weight="bold" font-size="14.00" fill="#c83500">PSKSecurityScheme</text>
<polygon fill="#ddeeff" stroke="none" points="1656,-216 1656,-237 1803,-237 1803,-216 1656,-216"/>
<polygon fill="none" stroke="#8ccbf2" points="1656,-216 1656,-237 1803,-237 1803,-216 1656,-216"/>
<text text-anchor="start" x="1659" y="-223.8" font-family="mono" font-size="14.00" fill="#c83500">identity</text>
<text text-anchor="start" x="1726" y="-223.8" font-family="Times,serif" font-size="14.00"> : </text>
<text text-anchor="start" x="1738" y="-223.8" font-family="mono" font-size="14.00" fill="#c83500">string</text>
</g>
<!-- PSKSecurityScheme&#45;&gt;SecurityScheme -->
<g id="edge4" class="edge"><title>PSKSecurityScheme&#45;&gt;SecurityScheme</title>
<path fill="none" stroke="black" d="M1703.06,-211.913C1686.08,-197.499 1662.72,-180.079 1639,-170 1496.86,-109.597 1321.02,-84.9475 1198.26,-74.8975"/>
<polygon fill="white" stroke="black" points="1198.28,-71.3881 1188.03,-74.084 1197.73,-78.3661 1198.28,-71.3881"/>
</g>
<!-- CertSecurityScheme -->
<g id="node11" class="node"><title>CertSecurityScheme</title>
<polygon fill="#8ccbf2" stroke="none" points="1837,-237 1837,-258 1992,-258 1992,-237 1837,-237"/>
<polygon fill="none" stroke="#8ccbf2" points="1837,-237 1837,-258 1992,-258 1992,-237 1837,-237"/>
<text text-anchor="start" x="1840" y="-244.8" font-family="mono" font-weight="bold" font-size="14.00" fill="#c83500">CertSecurityScheme</text>
<polygon fill="#ddeeff" stroke="none" points="1837,-216 1837,-237 1992,-237 1992,-216 1837,-216"/>
<polygon fill="none" stroke="#8ccbf2" points="1837,-216 1837,-237 1992,-237 1992,-216 1837,-216"/>
<text text-anchor="start" x="1840" y="-223.8" font-family="mono" font-size="14.00" fill="#c83500">identity</text>
<text text-anchor="start" x="1907" y="-223.8" font-family="Times,serif" font-size="14.00"> : </text>
<text text-anchor="start" x="1919" y="-223.8" font-family="mono" font-size="14.00" fill="#c83500">string</text>
</g>
<!-- CertSecurityScheme&#45;&gt;SecurityScheme -->
<g id="edge7" class="edge"><title>CertSecurityScheme&#45;&gt;SecurityScheme</title>
<path fill="none" stroke="black" d="M1887.26,-211.932C1869.48,-197.334 1844.89,-179.706 1820,-170 1709.87,-127.061 1389.97,-95.19 1198.28,-79.302"/>
<polygon fill="white" stroke="black" points="1198.36,-75.7975 1188.11,-78.4645 1197.79,-82.7739 1198.36,-75.7975"/>
</g>
</g>
</svg>
