<?xml version="1.0" encoding="UTF-8" standalone="no"?>
<!DOCTYPE svg PUBLIC "-//W3C//DTD SVG 1.1//EN"
 "http://www.w3.org/Graphics/SVG/1.1/DTD/svg11.dtd">
<!-- Generated by graphviz version 2.40.1 (20161225.0304)
 -->
<!-- Title: %3 Pages: 1 -->
<svg width="2008pt" height="379pt"
 viewBox="0.00 0.00 2007.50 379.00" xmlns="http://www.w3.org/2000/svg" xmlns:xlink="http://www.w3.org/1999/xlink">
<g id="graph0" class="graph" transform="scale(1 1) rotate(0) translate(4 375)">
<title>%3</title>
<polygon fill="#ffffff" stroke="transparent" points="-4,4 -4,-375 2003.5,-375 2003.5,4 -4,4"/>
<!-- APIKeySecurityScheme -->
<g id="node1" class="node">
<title>APIKeySecurityScheme</title>
<polygon fill="#8ccbf2" stroke="transparent" points="8,-314 8,-335 180,-335 180,-314 8,-314"/>
<polygon fill="none" stroke="#8ccbf2" points="8,-314 8,-335 180,-335 180,-314 8,-314"/>
<text text-anchor="start" x="11" y="-321.8" font-family="mono" font-weight="bold" font-size="14.00" fill="#c83500">APIKeySecurityScheme</text>
<polygon fill="#ddeeff" stroke="transparent" points="8,-293 8,-314 180,-314 180,-293 8,-293"/>
<polygon fill="none" stroke="#8ccbf2" points="8,-293 8,-314 180,-314 180,-293 8,-293"/>
<text text-anchor="start" x="11" y="-300.8" font-family="mono" font-size="14.00" fill="#c83500">name</text>
<text text-anchor="start" x="45" y="-300.8" font-family="Times,serif" font-size="14.00" fill="#000000"> : </text>
<text text-anchor="start" x="57" y="-300.8" font-family="mono" font-size="14.00" fill="#c83500">string</text>
<polygon fill="#ddeeff" stroke="transparent" points="8,-272 8,-293 180,-293 180,-272 8,-272"/>
<polygon fill="none" stroke="#8ccbf2" points="8,-272 8,-293 180,-293 180,-272 8,-272"/>
<text text-anchor="start" x="11" y="-279.8" font-family="mono" font-size="14.00" fill="#c83500">in</text>
<text text-anchor="start" x="28" y="-279.8" font-family="Times,serif" font-size="14.00" fill="#000000"> : </text>
<text text-anchor="start" x="40" y="-279.8" font-family="mono" font-size="14.00" fill="#c83500">string</text>
<text text-anchor="start" x="90" y="-279.8" font-family="Times,serif" font-size="14.00" fill="#000000"> </text>
<text text-anchor="start" x="94" y="-279.8" font-family="Times,serif" font-style="italic" font-size="14.00" fill="#000000">(mandatory)</text>
</g>
<!-- SecurityScheme -->
<g id="node3" class="node">
<title>SecurityScheme</title>
<polygon fill="#8ccbf2" stroke="transparent" points="953,-174.5 953,-195.5 1143,-195.5 1143,-174.5 953,-174.5"/>
<polygon fill="none" stroke="#8ccbf2" points="953,-174.5 953,-195.5 1143,-195.5 1143,-174.5 953,-174.5"/>
<text text-anchor="start" x="990" y="-182.3" font-family="mono" font-weight="bold" font-size="14.00" fill="#c83500">SecurityScheme</text>
<polygon fill="#ddeeff" stroke="transparent" points="953,-153.5 953,-174.5 1143,-174.5 1143,-153.5 953,-153.5"/>
<polygon fill="none" stroke="#8ccbf2" points="953,-153.5 953,-174.5 1143,-174.5 1143,-153.5 953,-153.5"/>
<text text-anchor="start" x="956" y="-161.3" font-family="mono" font-size="14.00" fill="#c83500">@type</text>
<text text-anchor="start" x="998" y="-161.3" font-family="Times,serif" font-size="14.00" fill="#000000"> : </text>
<text text-anchor="start" x="1010" y="-161.3" font-family="Times,serif" font-style="italic" font-size="14.00" fill="#000000">(array of) </text>
<text text-anchor="start" x="1068" y="-161.3" font-family="mono" font-size="14.00" fill="#c83500">string</text>
<polygon fill="#ddeeff" stroke="transparent" points="953,-132.5 953,-153.5 1143,-153.5 1143,-132.5 953,-132.5"/>
<polygon fill="none" stroke="#8ccbf2" points="953,-132.5 953,-153.5 1143,-153.5 1143,-132.5 953,-132.5"/>
<text text-anchor="start" x="956" y="-140.3" font-family="mono" font-size="14.00" fill="#c83500">proxy</text>
<text text-anchor="start" x="998" y="-140.3" font-family="Times,serif" font-size="14.00" fill="#000000"> : </text>
<text text-anchor="start" x="1010" y="-140.3" font-family="mono" font-size="14.00" fill="#c83500">anyURI</text>
<polygon fill="#ddeeff" stroke="transparent" points="953,-111.5 953,-132.5 1143,-132.5 1143,-111.5 953,-111.5"/>
<polygon fill="none" stroke="#8ccbf2" points="953,-111.5 953,-132.5 1143,-132.5 1143,-111.5 953,-111.5"/>
<text text-anchor="start" x="956" y="-119.3" font-family="mono" font-size="14.00" fill="#c83500">description</text>
<text text-anchor="start" x="1047" y="-119.3" font-family="Times,serif" font-size="14.00" fill="#000000"> : </text>
<text text-anchor="start" x="1059" y="-119.3" font-family="mono" font-size="14.00" fill="#c83500">string</text>
<polygon fill="#ddeeff" stroke="transparent" points="953,-90.5 953,-111.5 1143,-111.5 1143,-90.5 953,-90.5"/>
<polygon fill="none" stroke="#8ccbf2" points="953,-90.5 953,-111.5 1143,-111.5 1143,-90.5 953,-90.5"/>
<text text-anchor="start" x="956" y="-98.3" font-family="mono" font-size="14.00" fill="#c83500">scheme</text>
<text text-anchor="start" x="1006" y="-98.3" font-family="Times,serif" font-size="14.00" fill="#000000"> : </text>
<text text-anchor="start" x="1018" y="-98.3" font-family="mono" font-size="14.00" fill="#c83500">string</text>
<text text-anchor="start" x="1068" y="-98.3" font-family="Times,serif" font-size="14.00" fill="#000000"> </text>
<text text-anchor="start" x="1072" y="-98.3" font-family="Times,serif" font-style="italic" font-size="14.00" fill="#000000">(mandatory)</text>
</g>
<!-- APIKeySecurityScheme&#45;&gt;SecurityScheme -->
<g id="edge3" class="edge">
<title>APIKeySecurityScheme&#45;&gt;SecurityScheme</title>
<path fill="none" stroke="#000000" d="M138.73,-268.3795C155.9954,-256.4425 176.5091,-244.3193 197,-237 330.1072,-189.4542 735.1528,-160.9474 934.5977,-149.4334"/>
<polygon fill="#ffffff" stroke="#000000" points="935.0286,-152.9145 944.812,-148.8482 934.6281,-145.926 935.0286,-152.9145"/>
</g>
<!-- OAuth2SecurityScheme -->
<g id="node2" class="node">
<title>OAuth2SecurityScheme</title>
<polygon fill="#8ccbf2" stroke="transparent" points="214,-346 214,-367 390,-367 390,-346 214,-346"/>
<polygon fill="none" stroke="#8ccbf2" points="214,-346 214,-367 390,-367 390,-346 214,-346"/>
<text text-anchor="start" x="219" y="-353.8" font-family="mono" font-weight="bold" font-size="14.00" fill="#c83500">OAuth2SecurityScheme</text>
<polygon fill="#ddeeff" stroke="transparent" points="214,-325 214,-346 390,-346 390,-325 214,-325"/>
<polygon fill="none" stroke="#8ccbf2" points="214,-325 214,-346 390,-346 390,-325 214,-325"/>
<text text-anchor="start" x="217" y="-332.8" font-family="mono" font-size="14.00" fill="#c83500">flow</text>
<text text-anchor="start" x="251" y="-332.8" font-family="Times,serif" font-size="14.00" fill="#000000"> : </text>
<text text-anchor="start" x="263" y="-332.8" font-family="mono" font-size="14.00" fill="#c83500">string</text>
<text text-anchor="start" x="313" y="-332.8" font-family="Times,serif" font-size="14.00" fill="#000000"> </text>
<text text-anchor="start" x="317" y="-332.8" font-family="Times,serif" font-style="italic" font-size="14.00" fill="#000000">(mandatory)</text>
<polygon fill="#ddeeff" stroke="transparent" points="214,-304 214,-325 390,-325 390,-304 214,-304"/>
<polygon fill="none" stroke="#8ccbf2" points="214,-304 214,-325 390,-325 390,-304 214,-304"/>
<text text-anchor="start" x="217" y="-311.8" font-family="mono" font-size="14.00" fill="#c83500">authorization</text>
<text text-anchor="start" x="325" y="-311.8" font-family="Times,serif" font-size="14.00" fill="#000000"> : </text>
<text text-anchor="start" x="337" y="-311.8" font-family="mono" font-size="14.00" fill="#c83500">anyURI</text>
<polygon fill="#ddeeff" stroke="transparent" points="214,-283 214,-304 390,-304 390,-283 214,-283"/>
<polygon fill="none" stroke="#8ccbf2" points="214,-283 214,-304 390,-304 390,-283 214,-283"/>
<text text-anchor="start" x="217" y="-290.8" font-family="mono" font-size="14.00" fill="#c83500">scopes</text>
<text text-anchor="start" x="267" y="-290.8" font-family="Times,serif" font-size="14.00" fill="#000000"> : (array of) </text>
<text text-anchor="start" x="334" y="-290.8" font-family="mono" font-size="14.00" fill="#c83500">string</text>
<polygon fill="#ddeeff" stroke="transparent" points="214,-262 214,-283 390,-283 390,-262 214,-262"/>
<polygon fill="none" stroke="#8ccbf2" points="214,-262 214,-283 390,-283 390,-262 214,-262"/>
<text text-anchor="start" x="217" y="-269.8" font-family="mono" font-size="14.00" fill="#c83500">token</text>
<text text-anchor="start" x="259" y="-269.8" font-family="Times,serif" font-size="14.00" fill="#000000"> : </text>
<text text-anchor="start" x="271" y="-269.8" font-family="mono" font-size="14.00" fill="#c83500">anyURI</text>
<polygon fill="#ddeeff" stroke="transparent" points="214,-241 214,-262 390,-262 390,-241 214,-241"/>
<polygon fill="none" stroke="#8ccbf2" points="214,-241 214,-262 390,-262 390,-241 214,-241"/>
<text text-anchor="start" x="217" y="-248.8" font-family="mono" font-size="14.00" fill="#c83500">refresh</text>
<text text-anchor="start" x="275" y="-248.8" font-family="Times,serif" font-size="14.00" fill="#000000"> : </text>
<text text-anchor="start" x="287" y="-248.8" font-family="mono" font-size="14.00" fill="#c83500">anyURI</text>
</g>
<!-- OAuth2SecurityScheme&#45;&gt;SecurityScheme -->
<g id="edge4" class="edge">
<title>OAuth2SecurityScheme&#45;&gt;SecurityScheme</title>
<path fill="none" stroke="#000000" d="M398.1825,-240.5412C401.1191,-239.279 404.0615,-238.094 407,-237 501.3646,-201.868 777.3445,-170.1369 934.6943,-154.2384"/>
<polygon fill="#ffffff" stroke="#000000" points="935.2841,-157.6969 944.884,-153.2142 934.584,-150.7319 935.2841,-157.6969"/>
</g>
<!-- MultiLanguage -->
<g id="node12" class="node">
<title>MultiLanguage</title>
<polygon fill="#f2f2f2" stroke="transparent" points="991,-7 991,-28 1105,-28 1105,-7 991,-7"/>
<polygon fill="none" stroke="#8c8c8c" points="991,-7 991,-28 1105,-28 1105,-7 991,-7"/>
<text text-anchor="start" x="994" y="-14.8" font-family="mono" font-weight="bold" font-size="14.00" fill="#000000">MultiLanguage</text>
</g>
<!-- SecurityScheme&#45;&gt;MultiLanguage -->
<g id="edge1" class="edge">
<title>SecurityScheme&#45;&gt;MultiLanguage</title>
<path fill="none" stroke="#000000" d="M1048,-86.9913C1048,-72.9443 1048,-58.476 1048,-46.4397"/>
<polygon fill="#000000" stroke="#000000" points="1051.5001,-46.1513 1048,-36.1514 1044.5001,-46.1514 1051.5001,-46.1513"/>
<text text-anchor="start" x="1048" y="-57.8" font-family="mono" font-size="14.00" fill="#c83500">descriptions</text>
<text text-anchor="middle" x="1037" y="-39.9514" font-family="Times,serif" font-size="14.00" fill="#000000">0..1</text>
</g>
<!-- BearerSecurityScheme -->
<g id="node4" class="node">
<title>BearerSecurityScheme</title>
<polygon fill="#8ccbf2" stroke="transparent" points="424,-346 424,-367 614,-367 614,-346 424,-346"/>
<polygon fill="none" stroke="#8ccbf2" points="424,-346 424,-367 614,-367 614,-346 424,-346"/>
<text text-anchor="start" x="436" y="-353.8" font-family="mono" font-weight="bold" font-size="14.00" fill="#c83500">BearerSecurityScheme</text>
<polygon fill="#ddeeff" stroke="transparent" points="424,-325 424,-346 614,-346 614,-325 424,-325"/>
<polygon fill="none" stroke="#8ccbf2" points="424,-325 424,-346 614,-346 614,-325 424,-325"/>
<text text-anchor="start" x="427" y="-332.8" font-family="mono" font-size="14.00" fill="#c83500">format</text>
<text text-anchor="start" x="477" y="-332.8" font-family="Times,serif" font-size="14.00" fill="#000000"> : </text>
<text text-anchor="start" x="489" y="-332.8" font-family="mono" font-size="14.00" fill="#c83500">string</text>
<text text-anchor="start" x="539" y="-332.8" font-family="Times,serif" font-size="14.00" fill="#000000"> </text>
<text text-anchor="start" x="543" y="-332.8" font-family="Times,serif" font-style="italic" font-size="14.00" fill="#000000">(mandatory)</text>
<polygon fill="#ddeeff" stroke="transparent" points="424,-304 424,-325 614,-325 614,-304 424,-304"/>
<polygon fill="none" stroke="#8ccbf2" points="424,-304 424,-325 614,-325 614,-304 424,-304"/>
<text text-anchor="start" x="427" y="-311.8" font-family="mono" font-size="14.00" fill="#c83500">authorization</text>
<text text-anchor="start" x="535" y="-311.8" font-family="Times,serif" font-size="14.00" fill="#000000"> : </text>
<text text-anchor="start" x="547" y="-311.8" font-family="mono" font-size="14.00" fill="#c83500">anyURI</text>
<polygon fill="#ddeeff" stroke="transparent" points="424,-283 424,-304 614,-304 614,-283 424,-283"/>
<polygon fill="none" stroke="#8ccbf2" points="424,-283 424,-304 614,-304 614,-283 424,-283"/>
<text text-anchor="start" x="427" y="-290.8" font-family="mono" font-size="14.00" fill="#c83500">alg</text>
<text text-anchor="start" x="452" y="-290.8" font-family="Times,serif" font-size="14.00" fill="#000000"> : </text>
<text text-anchor="start" x="464" y="-290.8" font-family="mono" font-size="14.00" fill="#c83500">string</text>
<text text-anchor="start" x="514" y="-290.8" font-family="Times,serif" font-size="14.00" fill="#000000"> </text>
<text text-anchor="start" x="518" y="-290.8" font-family="Times,serif" font-style="italic" font-size="14.00" fill="#000000">(mandatory)</text>
<polygon fill="#ddeeff" stroke="transparent" points="424,-262 424,-283 614,-283 614,-262 424,-262"/>
<polygon fill="none" stroke="#8ccbf2" points="424,-262 424,-283 614,-283 614,-262 424,-262"/>
<text text-anchor="start" x="427" y="-269.8" font-family="mono" font-size="14.00" fill="#c83500">name</text>
<text text-anchor="start" x="461" y="-269.8" font-family="Times,serif" font-size="14.00" fill="#000000"> : </text>
<text text-anchor="start" x="473" y="-269.8" font-family="mono" font-size="14.00" fill="#c83500">string</text>
<polygon fill="#ddeeff" stroke="transparent" points="424,-241 424,-262 614,-262 614,-241 424,-241"/>
<polygon fill="none" stroke="#8ccbf2" points="424,-241 424,-262 614,-262 614,-241 424,-241"/>
<text text-anchor="start" x="427" y="-248.8" font-family="mono" font-size="14.00" fill="#c83500">in</text>
<text text-anchor="start" x="444" y="-248.8" font-family="Times,serif" font-size="14.00" fill="#000000"> : </text>
<text text-anchor="start" x="456" y="-248.8" font-family="mono" font-size="14.00" fill="#c83500">string</text>
<text text-anchor="start" x="506" y="-248.8" font-family="Times,serif" font-size="14.00" fill="#000000"> </text>
<text text-anchor="start" x="510" y="-248.8" font-family="Times,serif" font-style="italic" font-size="14.00" fill="#000000">(mandatory)</text>
</g>
<!-- BearerSecurityScheme&#45;&gt;SecurityScheme -->
<g id="edge2" class="edge">
<title>BearerSecurityScheme&#45;&gt;SecurityScheme</title>
<path fill="none" stroke="#000000" d="M622.1339,-240.7323C625.0952,-239.424 628.054,-238.1761 631,-237 729.9242,-197.5069 849.041,-172.9037 934.5906,-158.9104"/>
<polygon fill="#ffffff" stroke="#000000" points="935.2758,-162.3453 944.5911,-157.2979 934.1615,-155.4345 935.2758,-162.3453"/>
</g>
<!-- BasicSecurityScheme -->
<g id="node5" class="node">
<title>BasicSecurityScheme</title>
<polygon fill="#8ccbf2" stroke="transparent" points="649,-314 649,-335 812,-335 812,-314 649,-314"/>
<polygon fill="none" stroke="#8ccbf2" points="649,-314 649,-335 812,-335 812,-314 649,-314"/>
<text text-anchor="start" x="652" y="-321.8" font-family="mono" font-weight="bold" font-size="14.00" fill="#c83500">BasicSecurityScheme</text>
<polygon fill="#ddeeff" stroke="transparent" points="649,-293 649,-314 812,-314 812,-293 649,-293"/>
<polygon fill="none" stroke="#8ccbf2" points="649,-293 649,-314 812,-314 812,-293 649,-293"/>
<text text-anchor="start" x="652" y="-300.8" font-family="mono" font-size="14.00" fill="#c83500">name</text>
<text text-anchor="start" x="686" y="-300.8" font-family="Times,serif" font-size="14.00" fill="#000000"> : </text>
<text text-anchor="start" x="698" y="-300.8" font-family="mono" font-size="14.00" fill="#c83500">string</text>
<polygon fill="#ddeeff" stroke="transparent" points="649,-272 649,-293 812,-293 812,-272 649,-272"/>
<polygon fill="none" stroke="#8ccbf2" points="649,-272 649,-293 812,-293 812,-272 649,-272"/>
<text text-anchor="start" x="652" y="-279.8" font-family="mono" font-size="14.00" fill="#c83500">in</text>
<text text-anchor="start" x="669" y="-279.8" font-family="Times,serif" font-size="14.00" fill="#000000"> : </text>
<text text-anchor="start" x="681" y="-279.8" font-family="mono" font-size="14.00" fill="#c83500">string</text>
<text text-anchor="start" x="731" y="-279.8" font-family="Times,serif" font-size="14.00" fill="#000000"> </text>
<text text-anchor="start" x="735" y="-279.8" font-family="Times,serif" font-style="italic" font-size="14.00" fill="#000000">(mandatory)</text>
</g>
<!-- BasicSecurityScheme&#45;&gt;SecurityScheme -->
<g id="edge9" class="edge">
<title>BasicSecurityScheme&#45;&gt;SecurityScheme</title>
<path fill="none" stroke="#000000" d="M778.6875,-268.3407C794.3561,-257.6093 812.0549,-246.2404 829,-237 862.7344,-218.6042 900.8409,-201.2413 935.698,-186.5862"/>
<polygon fill="#ffffff" stroke="#000000" points="937.0773,-189.8033 944.9594,-182.7235 934.3827,-183.3427 937.0773,-189.8033"/>
</g>
<!-- PoPSecurityScheme -->
<g id="node6" class="node">
<title>PoPSecurityScheme</title>
<polygon fill="#8ccbf2" stroke="transparent" points="846,-346 846,-367 1036,-367 1036,-346 846,-346"/>
<polygon fill="none" stroke="#8ccbf2" points="846,-346 846,-367 1036,-367 1036,-346 846,-346"/>
<text text-anchor="start" x="870.5" y="-353.8" font-family="mono" font-weight="bold" font-size="14.00" fill="#c83500">PoPSecurityScheme</text>
<polygon fill="#ddeeff" stroke="transparent" points="846,-325 846,-346 1036,-346 1036,-325 846,-325"/>
<polygon fill="none" stroke="#8ccbf2" points="846,-325 846,-346 1036,-346 1036,-325 846,-325"/>
<text text-anchor="start" x="849" y="-332.8" font-family="mono" font-size="14.00" fill="#c83500">in</text>
<text text-anchor="start" x="866" y="-332.8" font-family="Times,serif" font-size="14.00" fill="#000000"> : </text>
<text text-anchor="start" x="878" y="-332.8" font-family="mono" font-size="14.00" fill="#c83500">string</text>
<text text-anchor="start" x="928" y="-332.8" font-family="Times,serif" font-size="14.00" fill="#000000"> </text>
<text text-anchor="start" x="932" y="-332.8" font-family="Times,serif" font-style="italic" font-size="14.00" fill="#000000">(mandatory)</text>
<polygon fill="#ddeeff" stroke="transparent" points="846,-304 846,-325 1036,-325 1036,-304 846,-304"/>
<polygon fill="none" stroke="#8ccbf2" points="846,-304 846,-325 1036,-325 1036,-304 846,-304"/>
<text text-anchor="start" x="849" y="-311.8" font-family="mono" font-size="14.00" fill="#c83500">authorization</text>
<text text-anchor="start" x="957" y="-311.8" font-family="Times,serif" font-size="14.00" fill="#000000"> : </text>
<text text-anchor="start" x="969" y="-311.8" font-family="mono" font-size="14.00" fill="#c83500">anyURI</text>
<polygon fill="#ddeeff" stroke="transparent" points="846,-283 846,-304 1036,-304 1036,-283 846,-283"/>
<polygon fill="none" stroke="#8ccbf2" points="846,-283 846,-304 1036,-304 1036,-283 846,-283"/>
<text text-anchor="start" x="849" y="-290.8" font-family="mono" font-size="14.00" fill="#c83500">name</text>
<text text-anchor="start" x="883" y="-290.8" font-family="Times,serif" font-size="14.00" fill="#000000"> : </text>
<text text-anchor="start" x="895" y="-290.8" font-family="mono" font-size="14.00" fill="#c83500">string</text>
<polygon fill="#ddeeff" stroke="transparent" points="846,-262 846,-283 1036,-283 1036,-262 846,-262"/>
<polygon fill="none" stroke="#8ccbf2" points="846,-262 846,-283 1036,-283 1036,-262 846,-262"/>
<text text-anchor="start" x="849" y="-269.8" font-family="mono" font-size="14.00" fill="#c83500">format</text>
<text text-anchor="start" x="899" y="-269.8" font-family="Times,serif" font-size="14.00" fill="#000000"> : </text>
<text text-anchor="start" x="911" y="-269.8" font-family="mono" font-size="14.00" fill="#c83500">string</text>
<text text-anchor="start" x="961" y="-269.8" font-family="Times,serif" font-size="14.00" fill="#000000"> </text>
<text text-anchor="start" x="965" y="-269.8" font-family="Times,serif" font-style="italic" font-size="14.00" fill="#000000">(mandatory)</text>
<polygon fill="#ddeeff" stroke="transparent" points="846,-241 846,-262 1036,-262 1036,-241 846,-241"/>
<polygon fill="none" stroke="#8ccbf2" points="846,-241 846,-262 1036,-262 1036,-241 846,-241"/>
<text text-anchor="start" x="849" y="-248.8" font-family="mono" font-size="14.00" fill="#c83500">alg</text>
<text text-anchor="start" x="874" y="-248.8" font-family="Times,serif" font-size="14.00" fill="#000000"> : </text>
<text text-anchor="start" x="886" y="-248.8" font-family="mono" font-size="14.00" fill="#c83500">string</text>
<text text-anchor="start" x="936" y="-248.8" font-family="Times,serif" font-size="14.00" fill="#000000"> </text>
<text text-anchor="start" x="940" y="-248.8" font-family="Times,serif" font-style="italic" font-size="14.00" fill="#000000">(mandatory)</text>
</g>
<!-- PoPSecurityScheme&#45;&gt;SecurityScheme -->
<g id="edge5" class="edge">
<title>PoPSecurityScheme&#45;&gt;SecurityScheme</title>
<path fill="none" stroke="#000000" d="M985.7577,-236.8635C991.9837,-227.5245 998.372,-217.9419 1004.5731,-208.6404"/>
<polygon fill="#ffffff" stroke="#000000" points="1007.5704,-210.4541 1010.2052,-200.1921 1001.746,-206.5712 1007.5704,-210.4541"/>
</g>
<!-- PublicSecurityScheme -->
<g id="node7" class="node">
<title>PublicSecurityScheme</title>
<polygon fill="#8ccbf2" stroke="transparent" points="1070,-304 1070,-325 1242,-325 1242,-304 1070,-304"/>
<polygon fill="none" stroke="#8ccbf2" points="1070,-304 1070,-325 1242,-325 1242,-304 1070,-304"/>
<text text-anchor="start" x="1073" y="-311.8" font-family="mono" font-weight="bold" font-size="14.00" fill="#c83500">PublicSecurityScheme</text>
<polygon fill="#ddeeff" stroke="transparent" points="1070,-283 1070,-304 1242,-304 1242,-283 1070,-283"/>
<polygon fill="none" stroke="#8ccbf2" points="1070,-283 1070,-304 1242,-304 1242,-283 1070,-283"/>
<text text-anchor="start" x="1073" y="-290.8" font-family="mono" font-size="14.00" fill="#c83500">identity</text>
<text text-anchor="start" x="1140" y="-290.8" font-family="Times,serif" font-size="14.00" fill="#000000"> : </text>
<text text-anchor="start" x="1152" y="-290.8" font-family="mono" font-size="14.00" fill="#c83500">string</text>
</g>
<!-- PublicSecurityScheme&#45;&gt;SecurityScheme -->
<g id="edge8" class="edge">
<title>PublicSecurityScheme&#45;&gt;SecurityScheme</title>
<path fill="none" stroke="#000000" d="M1139.125,-278.9219C1126.4394,-260.0697 1108.4559,-233.3441 1091.8122,-208.6098"/>
<polygon fill="#ffffff" stroke="#000000" points="1094.7153,-206.6548 1086.2287,-200.3122 1088.9077,-210.5627 1094.7153,-206.6548"/>
</g>
<!-- DigestSecurityScheme -->
<g id="node8" class="node">
<title>DigestSecurityScheme</title>
<polygon fill="#8ccbf2" stroke="transparent" points="1276,-325 1276,-346 1448,-346 1448,-325 1276,-325"/>
<polygon fill="none" stroke="#8ccbf2" points="1276,-325 1276,-346 1448,-346 1448,-325 1276,-325"/>
<text text-anchor="start" x="1279" y="-332.8" font-family="mono" font-weight="bold" font-size="14.00" fill="#c83500">DigestSecurityScheme</text>
<polygon fill="#ddeeff" stroke="transparent" points="1276,-304 1276,-325 1448,-325 1448,-304 1276,-304"/>
<polygon fill="none" stroke="#8ccbf2" points="1276,-304 1276,-325 1448,-325 1448,-304 1276,-304"/>
<text text-anchor="start" x="1279" y="-311.8" font-family="mono" font-size="14.00" fill="#c83500">name</text>
<text text-anchor="start" x="1313" y="-311.8" font-family="Times,serif" font-size="14.00" fill="#000000"> : </text>
<text text-anchor="start" x="1325" y="-311.8" font-family="mono" font-size="14.00" fill="#c83500">string</text>
<polygon fill="#ddeeff" stroke="transparent" points="1276,-283 1276,-304 1448,-304 1448,-283 1276,-283"/>
<polygon fill="none" stroke="#8ccbf2" points="1276,-283 1276,-304 1448,-304 1448,-283 1276,-283"/>
<text text-anchor="start" x="1279" y="-290.8" font-family="mono" font-size="14.00" fill="#c83500">qop</text>
<text text-anchor="start" x="1304" y="-290.8" font-family="Times,serif" font-size="14.00" fill="#000000"> : </text>
<text text-anchor="start" x="1316" y="-290.8" font-family="mono" font-size="14.00" fill="#c83500">string</text>
<text text-anchor="start" x="1366" y="-290.8" font-family="Times,serif" font-size="14.00" fill="#000000"> </text>
<text text-anchor="start" x="1370" y="-290.8" font-family="Times,serif" font-style="italic" font-size="14.00" fill="#000000">(mandatory)</text>
<polygon fill="#ddeeff" stroke="transparent" points="1276,-262 1276,-283 1448,-283 1448,-262 1276,-262"/>
<polygon fill="none" stroke="#8ccbf2" points="1276,-262 1276,-283 1448,-283 1448,-262 1276,-262"/>
<text text-anchor="start" x="1279" y="-269.8" font-family="mono" font-size="14.00" fill="#c83500">in</text>
<text text-anchor="start" x="1296" y="-269.8" font-family="Times,serif" font-size="14.00" fill="#000000"> : </text>
<text text-anchor="start" x="1308" y="-269.8" font-family="mono" font-size="14.00" fill="#c83500">string</text>
<text text-anchor="start" x="1358" y="-269.8" font-family="Times,serif" font-size="14.00" fill="#000000"> </text>
<text text-anchor="start" x="1362" y="-269.8" font-family="Times,serif" font-style="italic" font-size="14.00" fill="#000000">(mandatory)</text>
</g>
<!-- DigestSecurityScheme&#45;&gt;SecurityScheme -->
<g id="edge7" class="edge">
<title>DigestSecurityScheme&#45;&gt;SecurityScheme</title>
<path fill="none" stroke="#000000" d="M1294.5081,-257.9245C1282.8569,-250.6019 1270.7202,-243.356 1259,-237 1227.7444,-220.0498 1192.8039,-203.6158 1160.489,-189.377"/>
<polygon fill="#ffffff" stroke="#000000" points="1161.5665,-186.0282 1151.0021,-185.2262 1158.7606,-192.4412 1161.5665,-186.0282"/>
</g>
<!-- NoSecurityScheme -->
<g id="node9" class="node">
<title>NoSecurityScheme</title>
<polygon fill="#8ccbf2" stroke="transparent" points="1483,-293 1483,-314 1622,-314 1622,-293 1483,-293"/>
<polygon fill="none" stroke="#8ccbf2" points="1483,-293 1483,-314 1622,-314 1622,-293 1483,-293"/>
<text text-anchor="start" x="1486" y="-300.8" font-family="mono" font-weight="bold" font-size="14.00" fill="#c83500">NoSecurityScheme</text>
</g>
<!-- NoSecurityScheme&#45;&gt;SecurityScheme -->
<g id="edge11" class="edge">
<title>NoSecurityScheme&#45;&gt;SecurityScheme</title>
<path fill="none" stroke="#000000" d="M1533.5813,-285.9019C1516.9884,-270.6146 1491.2369,-249.3009 1465,-237 1367.9112,-191.4807 1247.5375,-167.5571 1161.1154,-155.3533"/>
<polygon fill="#ffffff" stroke="#000000" points="1161.398,-151.8592 1151.0132,-153.9582 1160.4404,-158.7934 1161.398,-151.8592"/>
</g>
<!-- PSKSecurityScheme -->
<g id="node10" class="node">
<title>PSKSecurityScheme</title>
<polygon fill="#8ccbf2" stroke="transparent" points="1656,-304 1656,-325 1803,-325 1803,-304 1656,-304"/>
<polygon fill="none" stroke="#8ccbf2" points="1656,-304 1656,-325 1803,-325 1803,-304 1656,-304"/>
<text text-anchor="start" x="1659" y="-311.8" font-family="mono" font-weight="bold" font-size="14.00" fill="#c83500">PSKSecurityScheme</text>
<polygon fill="#ddeeff" stroke="transparent" points="1656,-283 1656,-304 1803,-304 1803,-283 1656,-283"/>
<polygon fill="none" stroke="#8ccbf2" points="1656,-283 1656,-304 1803,-304 1803,-283 1656,-283"/>
<text text-anchor="start" x="1659" y="-290.8" font-family="mono" font-size="14.00" fill="#c83500">identity</text>
<text text-anchor="start" x="1726" y="-290.8" font-family="Times,serif" font-size="14.00" fill="#000000"> : </text>
<text text-anchor="start" x="1738" y="-290.8" font-family="mono" font-size="14.00" fill="#c83500">string</text>
</g>
<!-- PSKSecurityScheme&#45;&gt;SecurityScheme -->
<g id="edge10" class="edge">
<title>PSKSecurityScheme&#45;&gt;SecurityScheme</title>
<path fill="none" stroke="#000000" d="M1702.0599,-278.7667C1684.9858,-264.2235 1661.7126,-246.9114 1638,-237 1554.0757,-201.9213 1308.1472,-171.0154 1161.6341,-155.0339"/>
<polygon fill="#ffffff" stroke="#000000" points="1161.5795,-151.5076 1151.2605,-153.9092 1160.8249,-158.4668 1161.5795,-151.5076"/>
</g>
<!-- CertSecurityScheme -->
<g id="node11" class="node">
<title>CertSecurityScheme</title>
<polygon fill="#8ccbf2" stroke="transparent" points="1837,-304 1837,-325 1992,-325 1992,-304 1837,-304"/>
<polygon fill="none" stroke="#8ccbf2" points="1837,-304 1837,-325 1992,-325 1992,-304 1837,-304"/>
<text text-anchor="start" x="1840" y="-311.8" font-family="mono" font-weight="bold" font-size="14.00" fill="#c83500">CertSecurityScheme</text>
<polygon fill="#ddeeff" stroke="transparent" points="1837,-283 1837,-304 1992,-304 1992,-283 1837,-283"/>
<polygon fill="none" stroke="#8ccbf2" points="1837,-283 1837,-304 1992,-304 1992,-283 1837,-283"/>
<text text-anchor="start" x="1840" y="-290.8" font-family="mono" font-size="14.00" fill="#c83500">identity</text>
<text text-anchor="start" x="1907" y="-290.8" font-family="Times,serif" font-size="14.00" fill="#000000"> : </text>
<text text-anchor="start" x="1919" y="-290.8" font-family="mono" font-size="14.00" fill="#c83500">string</text>
</g>
<!-- CertSecurityScheme&#45;&gt;SecurityScheme -->
<g id="edge6" class="edge">
<title>CertSecurityScheme&#45;&gt;SecurityScheme</title>
<path fill="none" stroke="#000000" d="M1886.5627,-278.8009C1868.8855,-264.0776 1844.6645,-246.5632 1820,-237 1702.5005,-191.4418 1345.8127,-162.6061 1161.2851,-150.3314"/>
<polygon fill="#ffffff" stroke="#000000" points="1161.4861,-146.8372 1151.2772,-149.6707 1161.0249,-153.822 1161.4861,-146.8372"/>
</g>
</g>
</svg>
