<?xml version="1.0" encoding="UTF-8" standalone="no"?>
<!DOCTYPE svg PUBLIC "-//W3C//DTD SVG 1.1//EN"
 "http://www.w3.org/Graphics/SVG/1.1/DTD/svg11.dtd">
<!-- Generated by graphviz version 2.38.0 (20140413.2041)
 -->
<!-- Title: %3 Pages: 1 -->
<svg width="2008pt" height="400pt"
 viewBox="0.00 0.00 2007.50 400.00" xmlns="http://www.w3.org/2000/svg" xmlns:xlink="http://www.w3.org/1999/xlink">
<g id="graph0" class="graph" transform="scale(1 1) rotate(0) translate(4 396)">
<title>%3</title>
<polygon fill="white" stroke="none" points="-4,4 -4,-396 2003.5,-396 2003.5,4 -4,4"/>
<!-- APIKeySecurityScheme -->
<g id="node1" class="node"><title>APIKeySecurityScheme</title>
<polygon fill="#8ccbf2" stroke="none" points="8,-335 8,-356 180,-356 180,-335 8,-335"/>
<polygon fill="none" stroke="#8ccbf2" points="8,-335 8,-356 180,-356 180,-335 8,-335"/>
<text text-anchor="start" x="11" y="-342.8" font-family="mono" font-weight="bold" font-size="14.00" fill="#c83500">APIKeySecurityScheme</text>
<polygon fill="#ddeeff" stroke="none" points="8,-314 8,-335 180,-335 180,-314 8,-314"/>
<polygon fill="none" stroke="#8ccbf2" points="8,-314 8,-335 180,-335 180,-314 8,-314"/>
<text text-anchor="start" x="11" y="-321.8" font-family="mono" font-size="14.00" fill="#c83500">in</text>
<text text-anchor="start" x="28" y="-321.8" font-family="Times,serif" font-size="14.00"> : </text>
<text text-anchor="start" x="40" y="-321.8" font-family="mono" font-size="14.00" fill="#c83500">string</text>
<text text-anchor="start" x="90" y="-321.8" font-family="Times,serif" font-size="14.00"> </text>
<text text-anchor="start" x="94" y="-321.8" font-family="Times,serif" font-style="italic" font-size="14.00">(mandatory)</text>
<polygon fill="#ddeeff" stroke="none" points="8,-293 8,-314 180,-314 180,-293 8,-293"/>
<polygon fill="none" stroke="#8ccbf2" points="8,-293 8,-314 180,-314 180,-293 8,-293"/>
<text text-anchor="start" x="11" y="-300.8" font-family="mono" font-size="14.00" fill="#c83500">name</text>
<text text-anchor="start" x="45" y="-300.8" font-family="Times,serif" font-size="14.00"> : </text>
<text text-anchor="start" x="57" y="-300.8" font-family="mono" font-size="14.00" fill="#c83500">string</text>
</g>
<!-- SecurityScheme -->
<g id="node3" class="node"><title>SecurityScheme</title>
<polygon fill="#8ccbf2" stroke="none" points="953,-196 953,-217 1143,-217 1143,-196 953,-196"/>
<polygon fill="none" stroke="#8ccbf2" points="953,-196 953,-217 1143,-217 1143,-196 953,-196"/>
<text text-anchor="start" x="990" y="-203.8" font-family="mono" font-weight="bold" font-size="14.00" fill="#c83500">SecurityScheme</text>
<polygon fill="#ddeeff" stroke="none" points="953,-175 953,-196 1143,-196 1143,-175 953,-175"/>
<polygon fill="none" stroke="#8ccbf2" points="953,-175 953,-196 1143,-196 1143,-175 953,-175"/>
<text text-anchor="start" x="956" y="-182.8" font-family="mono" font-size="14.00" fill="#c83500">@context</text>
<text text-anchor="start" x="1023" y="-182.8" font-family="Times,serif" font-size="14.00"> : </text>
<text text-anchor="start" x="1035" y="-182.8" font-family="Times,serif" font-style="italic" font-size="14.00">array</text>
<text text-anchor="start" x="1066" y="-182.8" font-family="Times,serif" font-size="14.00"> </text>
<text text-anchor="start" x="1070" y="-182.8" font-family="Times,serif" font-style="italic" font-size="14.00">(mandatory)</text>
<polygon fill="#ddeeff" stroke="none" points="953,-154 953,-175 1143,-175 1143,-154 953,-154"/>
<polygon fill="none" stroke="#8ccbf2" points="953,-154 953,-175 1143,-175 1143,-154 953,-154"/>
<text text-anchor="start" x="956" y="-161.8" font-family="mono" font-size="14.00" fill="#c83500">@type</text>
<text text-anchor="start" x="998" y="-161.8" font-family="Times,serif" font-size="14.00"> : </text>
<text text-anchor="start" x="1010" y="-161.8" font-family="Times,serif" font-style="italic" font-size="14.00">array of </text>
<text text-anchor="start" x="1059" y="-161.8" font-family="mono" font-size="14.00" fill="#c83500">string</text>
<polygon fill="#ddeeff" stroke="none" points="953,-133 953,-154 1143,-154 1143,-133 953,-133"/>
<polygon fill="none" stroke="#8ccbf2" points="953,-133 953,-154 1143,-154 1143,-133 953,-133"/>
<text text-anchor="start" x="956" y="-140.8" font-family="mono" font-size="14.00" fill="#c83500">description</text>
<text text-anchor="start" x="1047" y="-140.8" font-family="Times,serif" font-size="14.00"> : </text>
<text text-anchor="start" x="1059" y="-140.8" font-family="mono" font-size="14.00" fill="#c83500">string</text>
<polygon fill="#ddeeff" stroke="none" points="953,-112 953,-133 1143,-133 1143,-112 953,-112"/>
<polygon fill="none" stroke="#8ccbf2" points="953,-112 953,-133 1143,-133 1143,-112 953,-112"/>
<text text-anchor="start" x="956" y="-119.8" font-family="mono" font-size="14.00" fill="#c83500">scheme</text>
<text text-anchor="start" x="1006" y="-119.8" font-family="Times,serif" font-size="14.00"> : </text>
<text text-anchor="start" x="1018" y="-119.8" font-family="mono" font-size="14.00" fill="#c83500">string</text>
<text text-anchor="start" x="1068" y="-119.8" font-family="Times,serif" font-size="14.00"> </text>
<text text-anchor="start" x="1072" y="-119.8" font-family="Times,serif" font-style="italic" font-size="14.00">(mandatory)</text>
<polygon fill="#ddeeff" stroke="none" points="953,-91 953,-112 1143,-112 1143,-91 953,-91"/>
<polygon fill="none" stroke="#8ccbf2" points="953,-91 953,-112 1143,-112 1143,-91 953,-91"/>
<text text-anchor="start" x="956" y="-98.8" font-family="mono" font-size="14.00" fill="#c83500">proxy</text>
<text text-anchor="start" x="998" y="-98.8" font-family="Times,serif" font-size="14.00"> : </text>
<text text-anchor="start" x="1010" y="-98.8" font-family="mono" font-size="14.00" fill="#c83500">anyURI</text>
</g>
<!-- APIKeySecurityScheme&#45;&gt;SecurityScheme -->
<g id="edge6" class="edge"><title>APIKeySecurityScheme&#45;&gt;SecurityScheme</title>
<path fill="none" stroke="black" d="M138.337,-289.386C155.721,-277.531 176.415,-265.401 197,-258 330.177,-210.116 735.189,-176.53 934.612,-162.427"/>
<polygon fill="white" stroke="black" points="935.095,-165.902 944.825,-161.709 934.604,-158.919 935.095,-165.902"/>
</g>
<!-- OAuth2SecurityScheme -->
<g id="node2" class="node"><title>OAuth2SecurityScheme</title>
<polygon fill="#8ccbf2" stroke="none" points="214,-367 214,-388 390,-388 390,-367 214,-367"/>
<polygon fill="none" stroke="#8ccbf2" points="214,-367 214,-388 390,-388 390,-367 214,-367"/>
<text text-anchor="start" x="219" y="-374.8" font-family="mono" font-weight="bold" font-size="14.00" fill="#c83500">OAuth2SecurityScheme</text>
<polygon fill="#ddeeff" stroke="none" points="214,-346 214,-367 390,-367 390,-346 214,-346"/>
<polygon fill="none" stroke="#8ccbf2" points="214,-346 214,-367 390,-367 390,-346 214,-346"/>
<text text-anchor="start" x="217" y="-353.8" font-family="mono" font-size="14.00" fill="#c83500">token</text>
<text text-anchor="start" x="259" y="-353.8" font-family="Times,serif" font-size="14.00"> : </text>
<text text-anchor="start" x="271" y="-353.8" font-family="mono" font-size="14.00" fill="#c83500">anyURI</text>
<polygon fill="#ddeeff" stroke="none" points="214,-325 214,-346 390,-346 390,-325 214,-325"/>
<polygon fill="none" stroke="#8ccbf2" points="214,-325 214,-346 390,-346 390,-325 214,-325"/>
<text text-anchor="start" x="217" y="-332.8" font-family="mono" font-size="14.00" fill="#c83500">authorization</text>
<text text-anchor="start" x="325" y="-332.8" font-family="Times,serif" font-size="14.00"> : </text>
<text text-anchor="start" x="337" y="-332.8" font-family="mono" font-size="14.00" fill="#c83500">anyURI</text>
<polygon fill="#ddeeff" stroke="none" points="214,-304 214,-325 390,-325 390,-304 214,-304"/>
<polygon fill="none" stroke="#8ccbf2" points="214,-304 214,-325 390,-325 390,-304 214,-304"/>
<text text-anchor="start" x="217" y="-311.8" font-family="mono" font-size="14.00" fill="#c83500">refresh</text>
<text text-anchor="start" x="275" y="-311.8" font-family="Times,serif" font-size="14.00"> : </text>
<text text-anchor="start" x="287" y="-311.8" font-family="mono" font-size="14.00" fill="#c83500">anyURI</text>
<polygon fill="#ddeeff" stroke="none" points="214,-283 214,-304 390,-304 390,-283 214,-283"/>
<polygon fill="none" stroke="#8ccbf2" points="214,-283 214,-304 390,-304 390,-283 214,-283"/>
<text text-anchor="start" x="217" y="-290.8" font-family="mono" font-size="14.00" fill="#c83500">scopes</text>
<text text-anchor="start" x="267" y="-290.8" font-family="Times,serif" font-size="14.00"> : array of </text>
<text text-anchor="start" x="325" y="-290.8" font-family="mono" font-size="14.00" fill="#c83500">string</text>
<polygon fill="#ddeeff" stroke="none" points="214,-262 214,-283 390,-283 390,-262 214,-262"/>
<polygon fill="none" stroke="#8ccbf2" points="214,-262 214,-283 390,-283 390,-262 214,-262"/>
<text text-anchor="start" x="217" y="-269.8" font-family="mono" font-size="14.00" fill="#c83500">flow</text>
<text text-anchor="start" x="251" y="-269.8" font-family="Times,serif" font-size="14.00"> : </text>
<text text-anchor="start" x="263" y="-269.8" font-family="mono" font-size="14.00" fill="#c83500">string</text>
<text text-anchor="start" x="313" y="-269.8" font-family="Times,serif" font-size="14.00"> </text>
<text text-anchor="start" x="317" y="-269.8" font-family="Times,serif" font-style="italic" font-size="14.00">(mandatory)</text>
</g>
<!-- OAuth2SecurityScheme&#45;&gt;SecurityScheme -->
<g id="edge2" class="edge"><title>OAuth2SecurityScheme&#45;&gt;SecurityScheme</title>
<path fill="none" stroke="black" d="M398.227,-261.549C401.151,-260.288 404.078,-259.101 407,-258 583.815,-191.397 803.918,-167.855 934.802,-159.538"/>
<polygon fill="white" stroke="black" points="935.082,-163.027 944.847,-158.918 934.651,-156.041 935.082,-163.027"/>
</g>
<!-- MultiLanguage -->
<g id="node12" class="node"><title>MultiLanguage</title>
<polygon fill="#f2f2f2" stroke="none" points="991,-7 991,-28 1105,-28 1105,-7 991,-7"/>
<polygon fill="none" stroke="#8c8c8c" points="991,-7 991,-28 1105,-28 1105,-7 991,-7"/>
<text text-anchor="start" x="994" y="-14.8" font-family="mono" font-weight="bold" font-size="14.00">MultiLanguage</text>
</g>
<!-- SecurityScheme&#45;&gt;MultiLanguage -->
<g id="edge1" class="edge"><title>SecurityScheme&#45;&gt;MultiLanguage</title>
<path fill="none" stroke="black" d="M1048,-86.7851C1048,-72.448 1048,-58.0629 1048,-46.2564"/>
<polygon fill="black" stroke="black" points="1051.5,-46.2139 1048,-36.2139 1044.5,-46.214 1051.5,-46.2139"/>
<text text-anchor="start" x="1048" y="-57.8" font-family="mono" font-size="14.00" fill="#c83500">descriptions</text>
<text text-anchor="middle" x="1037" y="-40.0139" font-family="Times,serif" font-size="14.00">0..1</text>
</g>
<!-- BearerSecurityScheme -->
<g id="node4" class="node"><title>BearerSecurityScheme</title>
<polygon fill="#8ccbf2" stroke="none" points="424,-367 424,-388 614,-388 614,-367 424,-367"/>
<polygon fill="none" stroke="#8ccbf2" points="424,-367 424,-388 614,-388 614,-367 424,-367"/>
<text text-anchor="start" x="436" y="-374.8" font-family="mono" font-weight="bold" font-size="14.00" fill="#c83500">BearerSecurityScheme</text>
<polygon fill="#ddeeff" stroke="none" points="424,-346 424,-367 614,-367 614,-346 424,-346"/>
<polygon fill="none" stroke="#8ccbf2" points="424,-346 424,-367 614,-367 614,-346 424,-346"/>
<text text-anchor="start" x="427" y="-353.8" font-family="mono" font-size="14.00" fill="#c83500">authorization</text>
<text text-anchor="start" x="535" y="-353.8" font-family="Times,serif" font-size="14.00"> : </text>
<text text-anchor="start" x="547" y="-353.8" font-family="mono" font-size="14.00" fill="#c83500">anyURI</text>
<polygon fill="#ddeeff" stroke="none" points="424,-325 424,-346 614,-346 614,-325 424,-325"/>
<polygon fill="none" stroke="#8ccbf2" points="424,-325 424,-346 614,-346 614,-325 424,-325"/>
<text text-anchor="start" x="427" y="-332.8" font-family="mono" font-size="14.00" fill="#c83500">name</text>
<text text-anchor="start" x="461" y="-332.8" font-family="Times,serif" font-size="14.00"> : </text>
<text text-anchor="start" x="473" y="-332.8" font-family="mono" font-size="14.00" fill="#c83500">string</text>
<polygon fill="#ddeeff" stroke="none" points="424,-304 424,-325 614,-325 614,-304 424,-304"/>
<polygon fill="none" stroke="#8ccbf2" points="424,-304 424,-325 614,-325 614,-304 424,-304"/>
<text text-anchor="start" x="427" y="-311.8" font-family="mono" font-size="14.00" fill="#c83500">format</text>
<text text-anchor="start" x="477" y="-311.8" font-family="Times,serif" font-size="14.00"> : </text>
<text text-anchor="start" x="489" y="-311.8" font-family="mono" font-size="14.00" fill="#c83500">string</text>
<text text-anchor="start" x="539" y="-311.8" font-family="Times,serif" font-size="14.00"> </text>
<text text-anchor="start" x="543" y="-311.8" font-family="Times,serif" font-style="italic" font-size="14.00">(mandatory)</text>
<polygon fill="#ddeeff" stroke="none" points="424,-283 424,-304 614,-304 614,-283 424,-283"/>
<polygon fill="none" stroke="#8ccbf2" points="424,-283 424,-304 614,-304 614,-283 424,-283"/>
<text text-anchor="start" x="427" y="-290.8" font-family="mono" font-size="14.00" fill="#c83500">in</text>
<text text-anchor="start" x="444" y="-290.8" font-family="Times,serif" font-size="14.00"> : </text>
<text text-anchor="start" x="456" y="-290.8" font-family="mono" font-size="14.00" fill="#c83500">string</text>
<text text-anchor="start" x="506" y="-290.8" font-family="Times,serif" font-size="14.00"> </text>
<text text-anchor="start" x="510" y="-290.8" font-family="Times,serif" font-style="italic" font-size="14.00">(mandatory)</text>
<polygon fill="#ddeeff" stroke="none" points="424,-262 424,-283 614,-283 614,-262 424,-262"/>
<polygon fill="none" stroke="#8ccbf2" points="424,-262 424,-283 614,-283 614,-262 424,-262"/>
<text text-anchor="start" x="427" y="-269.8" font-family="mono" font-size="14.00" fill="#c83500">alg</text>
<text text-anchor="start" x="452" y="-269.8" font-family="Times,serif" font-size="14.00"> : </text>
<text text-anchor="start" x="464" y="-269.8" font-family="mono" font-size="14.00" fill="#c83500">string</text>
<text text-anchor="start" x="514" y="-269.8" font-family="Times,serif" font-size="14.00"> </text>
<text text-anchor="start" x="518" y="-269.8" font-family="Times,serif" font-style="italic" font-size="14.00">(mandatory)</text>
</g>
<!-- BearerSecurityScheme&#45;&gt;SecurityScheme -->
<g id="edge3" class="edge"><title>BearerSecurityScheme&#45;&gt;SecurityScheme</title>
<path fill="none" stroke="black" d="M622.189,-261.77C625.134,-260.454 628.074,-259.193 631,-258 730.128,-217.562 849.22,-190.086 934.709,-173.751"/>
<polygon fill="white" stroke="black" points="935.525,-177.159 944.702,-171.863 934.226,-170.281 935.525,-177.159"/>
</g>
<!-- BasicSecurityScheme -->
<g id="node5" class="node"><title>BasicSecurityScheme</title>
<polygon fill="#8ccbf2" stroke="none" points="649,-335 649,-356 812,-356 812,-335 649,-335"/>
<polygon fill="none" stroke="#8ccbf2" points="649,-335 649,-356 812,-356 812,-335 649,-335"/>
<text text-anchor="start" x="652" y="-342.8" font-family="mono" font-weight="bold" font-size="14.00" fill="#c83500">BasicSecurityScheme</text>
<polygon fill="#ddeeff" stroke="none" points="649,-314 649,-335 812,-335 812,-314 649,-314"/>
<polygon fill="none" stroke="#8ccbf2" points="649,-314 649,-335 812,-335 812,-314 649,-314"/>
<text text-anchor="start" x="652" y="-321.8" font-family="mono" font-size="14.00" fill="#c83500">name</text>
<text text-anchor="start" x="686" y="-321.8" font-family="Times,serif" font-size="14.00"> : </text>
<text text-anchor="start" x="698" y="-321.8" font-family="mono" font-size="14.00" fill="#c83500">string</text>
<polygon fill="#ddeeff" stroke="none" points="649,-293 649,-314 812,-314 812,-293 649,-293"/>
<polygon fill="none" stroke="#8ccbf2" points="649,-293 649,-314 812,-314 812,-293 649,-293"/>
<text text-anchor="start" x="652" y="-300.8" font-family="mono" font-size="14.00" fill="#c83500">in</text>
<text text-anchor="start" x="669" y="-300.8" font-family="Times,serif" font-size="14.00"> : </text>
<text text-anchor="start" x="681" y="-300.8" font-family="mono" font-size="14.00" fill="#c83500">string</text>
<text text-anchor="start" x="731" y="-300.8" font-family="Times,serif" font-size="14.00"> </text>
<text text-anchor="start" x="735" y="-300.8" font-family="Times,serif" font-style="italic" font-size="14.00">(mandatory)</text>
</g>
<!-- BasicSecurityScheme&#45;&gt;SecurityScheme -->
<g id="edge10" class="edge"><title>BasicSecurityScheme&#45;&gt;SecurityScheme</title>
<path fill="none" stroke="black" d="M778.696,-289.456C794.44,-278.856 812.18,-267.493 829,-258 862.841,-238.901 900.814,-220.158 935.516,-204.008"/>
<polygon fill="white" stroke="black" points="937.13,-207.118 944.735,-199.742 934.19,-200.765 937.13,-207.118"/>
</g>
<!-- PoPSecurityScheme -->
<g id="node6" class="node"><title>PoPSecurityScheme</title>
<polygon fill="#8ccbf2" stroke="none" points="846,-367 846,-388 1036,-388 1036,-367 846,-367"/>
<polygon fill="none" stroke="#8ccbf2" points="846,-367 846,-388 1036,-388 1036,-367 846,-367"/>
<text text-anchor="start" x="870.5" y="-374.8" font-family="mono" font-weight="bold" font-size="14.00" fill="#c83500">PoPSecurityScheme</text>
<polygon fill="#ddeeff" stroke="none" points="846,-346 846,-367 1036,-367 1036,-346 846,-346"/>
<polygon fill="none" stroke="#8ccbf2" points="846,-346 846,-367 1036,-367 1036,-346 846,-346"/>
<text text-anchor="start" x="849" y="-353.8" font-family="mono" font-size="14.00" fill="#c83500">authorization</text>
<text text-anchor="start" x="957" y="-353.8" font-family="Times,serif" font-size="14.00"> : </text>
<text text-anchor="start" x="969" y="-353.8" font-family="mono" font-size="14.00" fill="#c83500">anyURI</text>
<polygon fill="#ddeeff" stroke="none" points="846,-325 846,-346 1036,-346 1036,-325 846,-325"/>
<polygon fill="none" stroke="#8ccbf2" points="846,-325 846,-346 1036,-346 1036,-325 846,-325"/>
<text text-anchor="start" x="849" y="-332.8" font-family="mono" font-size="14.00" fill="#c83500">alg</text>
<text text-anchor="start" x="874" y="-332.8" font-family="Times,serif" font-size="14.00"> : </text>
<text text-anchor="start" x="886" y="-332.8" font-family="mono" font-size="14.00" fill="#c83500">string</text>
<text text-anchor="start" x="936" y="-332.8" font-family="Times,serif" font-size="14.00"> </text>
<text text-anchor="start" x="940" y="-332.8" font-family="Times,serif" font-style="italic" font-size="14.00">(mandatory)</text>
<polygon fill="#ddeeff" stroke="none" points="846,-304 846,-325 1036,-325 1036,-304 846,-304"/>
<polygon fill="none" stroke="#8ccbf2" points="846,-304 846,-325 1036,-325 1036,-304 846,-304"/>
<text text-anchor="start" x="849" y="-311.8" font-family="mono" font-size="14.00" fill="#c83500">format</text>
<text text-anchor="start" x="899" y="-311.8" font-family="Times,serif" font-size="14.00"> : </text>
<text text-anchor="start" x="911" y="-311.8" font-family="mono" font-size="14.00" fill="#c83500">string</text>
<text text-anchor="start" x="961" y="-311.8" font-family="Times,serif" font-size="14.00"> </text>
<text text-anchor="start" x="965" y="-311.8" font-family="Times,serif" font-style="italic" font-size="14.00">(mandatory)</text>
<polygon fill="#ddeeff" stroke="none" points="846,-283 846,-304 1036,-304 1036,-283 846,-283"/>
<polygon fill="none" stroke="#8ccbf2" points="846,-283 846,-304 1036,-304 1036,-283 846,-283"/>
<text text-anchor="start" x="849" y="-290.8" font-family="mono" font-size="14.00" fill="#c83500">in</text>
<text text-anchor="start" x="866" y="-290.8" font-family="Times,serif" font-size="14.00"> : </text>
<text text-anchor="start" x="878" y="-290.8" font-family="mono" font-size="14.00" fill="#c83500">string</text>
<text text-anchor="start" x="928" y="-290.8" font-family="Times,serif" font-size="14.00"> </text>
<text text-anchor="start" x="932" y="-290.8" font-family="Times,serif" font-style="italic" font-size="14.00">(mandatory)</text>
<polygon fill="#ddeeff" stroke="none" points="846,-262 846,-283 1036,-283 1036,-262 846,-262"/>
<polygon fill="none" stroke="#8ccbf2" points="846,-262 846,-283 1036,-283 1036,-262 846,-262"/>
<text text-anchor="start" x="849" y="-269.8" font-family="mono" font-size="14.00" fill="#c83500">name</text>
<text text-anchor="start" x="883" y="-269.8" font-family="Times,serif" font-size="14.00"> : </text>
<text text-anchor="start" x="895" y="-269.8" font-family="mono" font-size="14.00" fill="#c83500">string</text>
</g>
<!-- PoPSecurityScheme&#45;&gt;SecurityScheme -->
<g id="edge4" class="edge"><title>PoPSecurityScheme&#45;&gt;SecurityScheme</title>
<path fill="none" stroke="black" d="M982.982,-257.692C988.81,-248.488 994.828,-238.982 1000.74,-229.638"/>
<polygon fill="white" stroke="black" points="1003.75,-231.438 1006.14,-221.117 997.832,-227.694 1003.75,-231.438"/>
</g>
<!-- PublicSecurityScheme -->
<g id="node7" class="node"><title>PublicSecurityScheme</title>
<polygon fill="#8ccbf2" stroke="none" points="1070,-325 1070,-346 1242,-346 1242,-325 1070,-325"/>
<polygon fill="none" stroke="#8ccbf2" points="1070,-325 1070,-346 1242,-346 1242,-325 1070,-325"/>
<text text-anchor="start" x="1073" y="-332.8" font-family="mono" font-weight="bold" font-size="14.00" fill="#c83500">PublicSecurityScheme</text>
<polygon fill="#ddeeff" stroke="none" points="1070,-304 1070,-325 1242,-325 1242,-304 1070,-304"/>
<polygon fill="none" stroke="#8ccbf2" points="1070,-304 1070,-325 1242,-325 1242,-304 1070,-304"/>
<text text-anchor="start" x="1073" y="-311.8" font-family="mono" font-size="14.00" fill="#c83500">identity</text>
<text text-anchor="start" x="1140" y="-311.8" font-family="Times,serif" font-size="14.00"> : </text>
<text text-anchor="start" x="1152" y="-311.8" font-family="mono" font-size="14.00" fill="#c83500">string</text>
</g>
<!-- PublicSecurityScheme&#45;&gt;SecurityScheme -->
<g id="edge11" class="edge"><title>PublicSecurityScheme&#45;&gt;SecurityScheme</title>
<path fill="none" stroke="black" d="M1140.53,-299.786C1128.74,-281.336 1111.83,-254.885 1095.69,-229.628"/>
<polygon fill="white" stroke="black" points="1098.59,-227.662 1090.25,-221.121 1092.69,-231.432 1098.59,-227.662"/>
</g>
<!-- DigestSecurityScheme -->
<g id="node8" class="node"><title>DigestSecurityScheme</title>
<polygon fill="#8ccbf2" stroke="none" points="1276,-346 1276,-367 1448,-367 1448,-346 1276,-346"/>
<polygon fill="none" stroke="#8ccbf2" points="1276,-346 1276,-367 1448,-367 1448,-346 1276,-346"/>
<text text-anchor="start" x="1279" y="-353.8" font-family="mono" font-weight="bold" font-size="14.00" fill="#c83500">DigestSecurityScheme</text>
<polygon fill="#ddeeff" stroke="none" points="1276,-325 1276,-346 1448,-346 1448,-325 1276,-325"/>
<polygon fill="none" stroke="#8ccbf2" points="1276,-325 1276,-346 1448,-346 1448,-325 1276,-325"/>
<text text-anchor="start" x="1279" y="-332.8" font-family="mono" font-size="14.00" fill="#c83500">name</text>
<text text-anchor="start" x="1313" y="-332.8" font-family="Times,serif" font-size="14.00"> : </text>
<text text-anchor="start" x="1325" y="-332.8" font-family="mono" font-size="14.00" fill="#c83500">string</text>
<polygon fill="#ddeeff" stroke="none" points="1276,-304 1276,-325 1448,-325 1448,-304 1276,-304"/>
<polygon fill="none" stroke="#8ccbf2" points="1276,-304 1276,-325 1448,-325 1448,-304 1276,-304"/>
<text text-anchor="start" x="1279" y="-311.8" font-family="mono" font-size="14.00" fill="#c83500">in</text>
<text text-anchor="start" x="1296" y="-311.8" font-family="Times,serif" font-size="14.00"> : </text>
<text text-anchor="start" x="1308" y="-311.8" font-family="mono" font-size="14.00" fill="#c83500">string</text>
<text text-anchor="start" x="1358" y="-311.8" font-family="Times,serif" font-size="14.00"> </text>
<text text-anchor="start" x="1362" y="-311.8" font-family="Times,serif" font-style="italic" font-size="14.00">(mandatory)</text>
<polygon fill="#ddeeff" stroke="none" points="1276,-283 1276,-304 1448,-304 1448,-283 1276,-283"/>
<polygon fill="none" stroke="#8ccbf2" points="1276,-283 1276,-304 1448,-304 1448,-283 1276,-283"/>
<text text-anchor="start" x="1279" y="-290.8" font-family="mono" font-size="14.00" fill="#c83500">qop</text>
<text text-anchor="start" x="1304" y="-290.8" font-family="Times,serif" font-size="14.00"> : </text>
<text text-anchor="start" x="1316" y="-290.8" font-family="mono" font-size="14.00" fill="#c83500">string</text>
<text text-anchor="start" x="1366" y="-290.8" font-family="Times,serif" font-size="14.00"> </text>
<text text-anchor="start" x="1370" y="-290.8" font-family="Times,serif" font-style="italic" font-size="14.00">(mandatory)</text>
</g>
<!-- DigestSecurityScheme&#45;&gt;SecurityScheme -->
<g id="edge9" class="edge"><title>DigestSecurityScheme&#45;&gt;SecurityScheme</title>
<path fill="none" stroke="black" d="M1293.97,-278.853C1282.44,-271.649 1270.48,-264.451 1259,-258 1227.49,-240.293 1192.5,-222.496 1160.21,-206.796"/>
<polygon fill="white" stroke="black" points="1161.71,-203.632 1151.19,-202.425 1158.66,-209.933 1161.71,-203.632"/>
</g>
<!-- NoSecurityScheme -->
<g id="node9" class="node"><title>NoSecurityScheme</title>
<polygon fill="#8ccbf2" stroke="none" points="1483,-314 1483,-335 1622,-335 1622,-314 1483,-314"/>
<polygon fill="none" stroke="#8ccbf2" points="1483,-314 1483,-335 1622,-335 1622,-314 1483,-314"/>
<text text-anchor="start" x="1486" y="-321.8" font-family="mono" font-weight="bold" font-size="14.00" fill="#c83500">NoSecurityScheme</text>
</g>
<!-- NoSecurityScheme&#45;&gt;SecurityScheme -->
<g id="edge7" class="edge"><title>NoSecurityScheme&#45;&gt;SecurityScheme</title>
<path fill="none" stroke="black" d="M1534.12,-306.909C1517.48,-291.911 1491.35,-270.583 1465,-258 1367.91,-211.628 1247.79,-184.809 1161.45,-170.232"/>
<polygon fill="white" stroke="black" points="1161.8,-166.742 1151.36,-168.558 1160.65,-173.647 1161.8,-166.742"/>
</g>
<!-- PSKSecurityScheme -->
<g id="node10" class="node"><title>PSKSecurityScheme</title>
<polygon fill="#8ccbf2" stroke="none" points="1656,-325 1656,-346 1803,-346 1803,-325 1656,-325"/>
<polygon fill="none" stroke="#8ccbf2" points="1656,-325 1656,-346 1803,-346 1803,-325 1656,-325"/>
<text text-anchor="start" x="1659" y="-332.8" font-family="mono" font-weight="bold" font-size="14.00" fill="#c83500">PSKSecurityScheme</text>
<polygon fill="#ddeeff" stroke="none" points="1656,-304 1656,-325 1803,-325 1803,-304 1656,-304"/>
<polygon fill="none" stroke="#8ccbf2" points="1656,-304 1656,-325 1803,-325 1803,-304 1656,-304"/>
<text text-anchor="start" x="1659" y="-311.8" font-family="mono" font-size="14.00" fill="#c83500">identity</text>
<text text-anchor="start" x="1726" y="-311.8" font-family="Times,serif" font-size="14.00"> : </text>
<text text-anchor="start" x="1738" y="-311.8" font-family="mono" font-size="14.00" fill="#c83500">string</text>
</g>
<!-- PSKSecurityScheme&#45;&gt;SecurityScheme -->
<g id="edge5" class="edge"><title>PSKSecurityScheme&#45;&gt;SecurityScheme</title>
<path fill="none" stroke="black" d="M1702.72,-299.936C1685.53,-285.531 1661.91,-268.112 1638,-258 1481.05,-191.612 1283.24,-168.012 1161.22,-159.624"/>
<polygon fill="white" stroke="black" points="1161.32,-156.123 1151.11,-158.952 1160.85,-163.107 1161.32,-156.123"/>
</g>
<!-- CertSecurityScheme -->
<g id="node11" class="node"><title>CertSecurityScheme</title>
<polygon fill="#8ccbf2" stroke="none" points="1837,-325 1837,-346 1992,-346 1992,-325 1837,-325"/>
<polygon fill="none" stroke="#8ccbf2" points="1837,-325 1837,-346 1992,-346 1992,-325 1837,-325"/>
<text text-anchor="start" x="1840" y="-332.8" font-family="mono" font-weight="bold" font-size="14.00" fill="#c83500">CertSecurityScheme</text>
<polygon fill="#ddeeff" stroke="none" points="1837,-304 1837,-325 1992,-325 1992,-304 1837,-304"/>
<polygon fill="none" stroke="#8ccbf2" points="1837,-304 1837,-325 1992,-325 1992,-304 1837,-304"/>
<text text-anchor="start" x="1840" y="-311.8" font-family="mono" font-size="14.00" fill="#c83500">identity</text>
<text text-anchor="start" x="1907" y="-311.8" font-family="Times,serif" font-size="14.00"> : </text>
<text text-anchor="start" x="1919" y="-311.8" font-family="mono" font-size="14.00" fill="#c83500">string</text>
</g>
<!-- CertSecurityScheme&#45;&gt;SecurityScheme -->
<g id="edge8" class="edge"><title>CertSecurityScheme&#45;&gt;SecurityScheme</title>
<path fill="none" stroke="black" d="M1886.93,-299.949C1868.94,-285.358 1844.09,-267.731 1819,-258 1701.47,-212.417 1345.33,-178.54 1161.1,-163.538"/>
<polygon fill="white" stroke="black" points="1161.36,-160.047 1151.11,-162.729 1160.79,-167.025 1161.36,-160.047"/>
</g>
</g>
</svg>
