<?xml version="1.0" encoding="UTF-8" standalone="no"?>
<!DOCTYPE svg PUBLIC "-//W3C//DTD SVG 1.1//EN"
 "http://www.w3.org/Graphics/SVG/1.1/DTD/svg11.dtd">
<!-- Generated by graphviz version 2.26.3 (20100126.1600)
 -->
<!-- Title: _anonymous_0 Pages: 1 -->
<svg width="1634pt" height="264pt"
 viewBox="0.00 0.00 1634.00 264.00" xmlns="http://www.w3.org/2000/svg" xmlns:xlink="http://www.w3.org/1999/xlink">
<g id="graph1" class="graph" transform="scale(1 1) rotate(0) translate(4 260)">
<title>_anonymous_0</title>
<polygon fill="white" stroke="white" points="-4,5 -4,-260 1631,-260 1631,5 -4,5"/>
<!-- APIKeySecurityScheme -->
<g id="node1" class="node"><title>APIKeySecurityScheme</title>
<polygon fill="#8ccbf2" stroke="#8ccbf2" points="8,-200 8,-221 151,-221 151,-200 8,-200"/>
<polygon fill="none" stroke="#8ccbf2" points="8,-200 8,-221 151,-221 151,-200 8,-200"/>
<text text-anchor="start" x="11.5" y="-207.233" font-family="mono" font-size="14.00" fill="#c83500">APIKeySecurityScheme</text>
<polygon fill="#ddeeff" stroke="#ddeeff" points="8,-180 8,-200 151,-200 151,-180 8,-180"/>
<polygon fill="none" stroke="#8ccbf2" points="8,-180 8,-200 151,-200 151,-180 8,-180"/>
<text text-anchor="start" x="11" y="-186.733" font-family="mono" font-size="14.00" fill="#c83500">in</text>
<text text-anchor="start" x="21.8906" y="-186.733" font-family="Times,serif" font-size="14.00"> : </text>
<text text-anchor="start" x="32.7812" y="-186.733" font-family="mono" font-size="14.00" fill="#c83500">string</text>
<text text-anchor="start" x="64.6676" y="-186.733" font-family="Times,serif" font-size="14.00"> = query</text>
<polygon fill="#ddeeff" stroke="#ddeeff" points="8,-160 8,-180 151,-180 151,-160 8,-160"/>
<polygon fill="none" stroke="#8ccbf2" points="8,-160 8,-180 151,-180 151,-160 8,-160"/>
<text text-anchor="start" x="11" y="-166.733" font-family="mono" font-size="14.00" fill="#c83500">name</text>
<text text-anchor="start" x="41.3198" y="-166.733" font-family="Times,serif" font-size="14.00"> : </text>
<text text-anchor="start" x="52.2104" y="-166.733" font-family="mono" font-size="14.00" fill="#c83500">string</text>
</g>
<!-- SecurityScheme -->
<g id="node3" class="node"><title>SecurityScheme</title>
<polygon fill="#8ccbf2" stroke="#8ccbf2" points="760,-64 760,-85 921,-85 921,-64 760,-64"/>
<polygon fill="none" stroke="#8ccbf2" points="760,-64 760,-85 921,-85 921,-64 760,-64"/>
<text text-anchor="start" x="795.5" y="-71.2333" font-family="mono" font-size="14.00" fill="#c83500">SecurityScheme</text>
<polygon fill="#ddeeff" stroke="#ddeeff" points="760,-44 760,-64 921,-64 921,-44 760,-44"/>
<polygon fill="none" stroke="#8ccbf2" points="760,-44 760,-64 921,-64 921,-44 760,-44"/>
<text text-anchor="start" x="763" y="-50.7333" font-family="mono" font-size="14.00" fill="#c83500">proxy</text>
<text text-anchor="start" x="795.661" y="-50.7333" font-family="Times,serif" font-size="14.00"> : </text>
<text text-anchor="start" x="806.551" y="-50.7333" font-family="mono" font-size="14.00" fill="#c83500">anyURI</text>
<polygon fill="#ddeeff" stroke="#ddeeff" points="760,-24 760,-44 921,-44 921,-24 760,-24"/>
<polygon fill="none" stroke="#8ccbf2" points="760,-24 760,-44 921,-44 921,-24 760,-24"/>
<text text-anchor="start" x="763" y="-30.7333" font-family="mono" font-size="14.00" fill="#c83500">scheme</text>
<text text-anchor="start" x="804.979" y="-30.7333" font-family="Times,serif" font-size="14.00"> : </text>
<text text-anchor="start" x="815.87" y="-30.7333" font-family="mono" font-size="14.00" fill="#c83500">string</text>
<text text-anchor="start" x="847.756" y="-30.7333" font-family="Times,serif" font-size="14.00"> </text>
<text text-anchor="start" x="851.256" y="-30.7333" font-family="Times,serif" font-size="14.00">(mandatory)</text>
<polygon fill="#ddeeff" stroke="#ddeeff" points="760,-4 760,-24 921,-24 921,-4 760,-4"/>
<polygon fill="none" stroke="#8ccbf2" points="760,-4 760,-24 921,-24 921,-4 760,-4"/>
<text text-anchor="start" x="763" y="-10.7333" font-family="mono" font-size="14.00" fill="#c83500">description</text>
<text text-anchor="start" x="825.206" y="-10.7333" font-family="Times,serif" font-size="14.00"> : </text>
<text text-anchor="start" x="836.097" y="-10.7333" font-family="mono" font-size="14.00" fill="#c83500">string</text>
</g>
<!-- APIKeySecurityScheme&#45;&gt;SecurityScheme -->
<g id="edge8" class="edge"><title>APIKeySecurityScheme&#45;&gt;SecurityScheme</title>
<path fill="none" stroke="black" d="M116.674,-156.496C131.366,-144.921 148.994,-133.15 167,-126 269.143,-85.4412 580.477,-60.9487 741.386,-50.6683"/>
<polygon fill="black" stroke="black" points="742.005,-54.1362 751.764,-50.0117 741.563,-47.1502 742.005,-54.1362"/>
</g>
<!-- OAuth2SecurityScheme -->
<g id="node2" class="node"><title>OAuth2SecurityScheme</title>
<polygon fill="#8ccbf2" stroke="#8ccbf2" points="184,-230 184,-251 327,-251 327,-230 184,-230"/>
<polygon fill="none" stroke="#8ccbf2" points="184,-230 184,-251 327,-251 327,-230 184,-230"/>
<text text-anchor="start" x="187.5" y="-237.233" font-family="mono" font-size="14.00" fill="#c83500">OAuth2SecurityScheme</text>
<polygon fill="#ddeeff" stroke="#ddeeff" points="184,-210 184,-230 327,-230 327,-210 184,-210"/>
<polygon fill="none" stroke="#8ccbf2" points="184,-210 184,-230 327,-230 327,-210 184,-210"/>
<text text-anchor="start" x="187" y="-216.733" font-family="mono" font-size="14.00" fill="#c83500">token</text>
<text text-anchor="start" x="218.105" y="-216.733" font-family="Times,serif" font-size="14.00"> : </text>
<text text-anchor="start" x="228.996" y="-216.733" font-family="mono" font-size="14.00" fill="#c83500">anyURI</text>
<polygon fill="#ddeeff" stroke="#ddeeff" points="184,-190 184,-210 327,-210 327,-190 184,-190"/>
<polygon fill="none" stroke="#8ccbf2" points="184,-190 184,-210 327,-210 327,-190 184,-190"/>
<text text-anchor="start" x="187" y="-196.733" font-family="mono" font-size="14.00" fill="#c83500">authorization</text>
<text text-anchor="start" x="260.867" y="-196.733" font-family="Times,serif" font-size="14.00"> : </text>
<text text-anchor="start" x="271.757" y="-196.733" font-family="mono" font-size="14.00" fill="#c83500">anyURI</text>
<polygon fill="#ddeeff" stroke="#ddeeff" points="184,-170 184,-190 327,-190 327,-170 184,-170"/>
<polygon fill="none" stroke="#8ccbf2" points="184,-170 184,-190 327,-190 327,-170 184,-170"/>
<text text-anchor="start" x="187" y="-176.733" font-family="mono" font-size="14.00" fill="#c83500">flow</text>
<text text-anchor="start" x="212.658" y="-176.733" font-family="Times,serif" font-size="14.00"> : </text>
<text text-anchor="start" x="223.548" y="-176.733" font-family="mono" font-size="14.00" fill="#c83500">string</text>
<text text-anchor="start" x="255.435" y="-176.733" font-family="Times,serif" font-size="14.00"> = implicit</text>
<polygon fill="#ddeeff" stroke="#ddeeff" points="184,-150 184,-170 327,-170 327,-150 184,-150"/>
<polygon fill="none" stroke="#8ccbf2" points="184,-150 184,-170 327,-170 327,-150 184,-150"/>
<text text-anchor="start" x="187" y="-156.733" font-family="mono" font-size="14.00" fill="#c83500">scopes</text>
<text text-anchor="start" x="224.318" y="-156.733" font-family="Times,serif" font-size="14.00"> : array of </text>
<text text-anchor="start" x="282.62" y="-156.733" font-family="mono" font-size="14.00" fill="#c83500">string</text>
<polygon fill="#ddeeff" stroke="#ddeeff" points="184,-130 184,-150 327,-150 327,-130 184,-130"/>
<polygon fill="none" stroke="#8ccbf2" points="184,-130 184,-150 327,-150 327,-130 184,-130"/>
<text text-anchor="start" x="187" y="-136.733" font-family="mono" font-size="14.00" fill="#c83500">refresh</text>
<text text-anchor="start" x="225.856" y="-136.733" font-family="Times,serif" font-size="14.00"> : </text>
<text text-anchor="start" x="236.746" y="-136.733" font-family="mono" font-size="14.00" fill="#c83500">anyURI</text>
</g>
<!-- OAuth2SecurityScheme&#45;&gt;SecurityScheme -->
<g id="edge14" class="edge"><title>OAuth2SecurityScheme&#45;&gt;SecurityScheme</title>
<path fill="none" stroke="black" d="M334.107,-130.101C337.056,-128.628 340.025,-127.254 343,-126 413.179,-96.422 618.035,-69.5863 741.747,-55.4603"/>
<polygon fill="black" stroke="black" points="742.442,-58.904 751.984,-54.2993 741.653,-51.9486 742.442,-58.904"/>
</g>
<!-- BearerSecurityScheme -->
<g id="node4" class="node"><title>BearerSecurityScheme</title>
<polygon fill="#8ccbf2" stroke="#8ccbf2" points="360,-230 360,-251 495,-251 495,-230 360,-230"/>
<polygon fill="none" stroke="#8ccbf2" points="360,-230 360,-251 495,-251 495,-230 360,-230"/>
<text text-anchor="start" x="363.5" y="-237.233" font-family="mono" font-size="14.00" fill="#c83500">BearerSecurityScheme</text>
<polygon fill="#ddeeff" stroke="#ddeeff" points="360,-210 360,-230 495,-230 495,-210 360,-210"/>
<polygon fill="none" stroke="#8ccbf2" points="360,-210 360,-230 495,-230 495,-210 360,-210"/>
<text text-anchor="start" x="363" y="-216.733" font-family="mono" font-size="14.00" fill="#c83500">alg</text>
<text text-anchor="start" x="380.105" y="-216.733" font-family="Times,serif" font-size="14.00"> : </text>
<text text-anchor="start" x="390.996" y="-216.733" font-family="mono" font-size="14.00" fill="#c83500">string</text>
<text text-anchor="start" x="422.882" y="-216.733" font-family="Times,serif" font-size="14.00"> = ES256</text>
<polygon fill="#ddeeff" stroke="#ddeeff" points="360,-190 360,-210 495,-210 495,-190 360,-190"/>
<polygon fill="none" stroke="#8ccbf2" points="360,-190 360,-210 495,-210 495,-190 360,-190"/>
<text text-anchor="start" x="363" y="-196.733" font-family="mono" font-size="14.00" fill="#c83500">name</text>
<text text-anchor="start" x="393.32" y="-196.733" font-family="Times,serif" font-size="14.00"> : </text>
<text text-anchor="start" x="404.21" y="-196.733" font-family="mono" font-size="14.00" fill="#c83500">string</text>
<polygon fill="#ddeeff" stroke="#ddeeff" points="360,-170 360,-190 495,-190 495,-170 360,-170"/>
<polygon fill="none" stroke="#8ccbf2" points="360,-170 360,-190 495,-190 495,-170 360,-170"/>
<text text-anchor="start" x="363" y="-176.733" font-family="mono" font-size="14.00" fill="#c83500">in</text>
<text text-anchor="start" x="373.891" y="-176.733" font-family="Times,serif" font-size="14.00"> : </text>
<text text-anchor="start" x="384.781" y="-176.733" font-family="mono" font-size="14.00" fill="#c83500">string</text>
<text text-anchor="start" x="416.668" y="-176.733" font-family="Times,serif" font-size="14.00"> = header</text>
<polygon fill="#ddeeff" stroke="#ddeeff" points="360,-150 360,-170 495,-170 495,-150 360,-150"/>
<polygon fill="none" stroke="#8ccbf2" points="360,-150 360,-170 495,-170 495,-150 360,-150"/>
<text text-anchor="start" x="363" y="-156.733" font-family="mono" font-size="14.00" fill="#c83500">authorization</text>
<text text-anchor="start" x="436.867" y="-156.733" font-family="Times,serif" font-size="14.00"> : </text>
<text text-anchor="start" x="447.757" y="-156.733" font-family="mono" font-size="14.00" fill="#c83500">anyURI</text>
<polygon fill="#ddeeff" stroke="#ddeeff" points="360,-130 360,-150 495,-150 495,-130 360,-130"/>
<polygon fill="none" stroke="#8ccbf2" points="360,-130 360,-150 495,-150 495,-130 360,-130"/>
<text text-anchor="start" x="363" y="-136.733" font-family="mono" font-size="14.00" fill="#c83500">format</text>
<text text-anchor="start" x="400.317" y="-136.733" font-family="Times,serif" font-size="14.00"> : </text>
<text text-anchor="start" x="411.208" y="-136.733" font-family="mono" font-size="14.00" fill="#c83500">string</text>
<text text-anchor="start" x="443.094" y="-136.733" font-family="Times,serif" font-size="14.00"> = jwt</text>
</g>
<!-- BearerSecurityScheme&#45;&gt;SecurityScheme -->
<g id="edge16" class="edge"><title>BearerSecurityScheme&#45;&gt;SecurityScheme</title>
<path fill="none" stroke="black" d="M502.063,-130.662C505.028,-129.006 508.011,-127.444 511,-126 584.179,-90.6518 674.194,-69.8655 741.56,-58.2188"/>
<polygon fill="black" stroke="black" points="742.473,-61.6142 751.75,-56.4967 741.306,-54.7121 742.473,-61.6142"/>
</g>
<!-- BasicSecurityScheme -->
<g id="node5" class="node"><title>BasicSecurityScheme</title>
<polygon fill="#8ccbf2" stroke="#8ccbf2" points="528,-200 528,-221 657,-221 657,-200 528,-200"/>
<polygon fill="none" stroke="#8ccbf2" points="528,-200 528,-221 657,-221 657,-200 528,-200"/>
<text text-anchor="start" x="531.5" y="-207.233" font-family="mono" font-size="14.00" fill="#c83500">BasicSecurityScheme</text>
<polygon fill="#ddeeff" stroke="#ddeeff" points="528,-180 528,-200 657,-200 657,-180 528,-180"/>
<polygon fill="none" stroke="#8ccbf2" points="528,-180 528,-200 657,-200 657,-180 528,-180"/>
<text text-anchor="start" x="531" y="-186.733" font-family="mono" font-size="14.00" fill="#c83500">name</text>
<text text-anchor="start" x="561.32" y="-186.733" font-family="Times,serif" font-size="14.00"> : </text>
<text text-anchor="start" x="572.21" y="-186.733" font-family="mono" font-size="14.00" fill="#c83500">string</text>
<polygon fill="#ddeeff" stroke="#ddeeff" points="528,-160 528,-180 657,-180 657,-160 528,-160"/>
<polygon fill="none" stroke="#8ccbf2" points="528,-160 528,-180 657,-180 657,-160 528,-160"/>
<text text-anchor="start" x="531" y="-166.733" font-family="mono" font-size="14.00" fill="#c83500">in</text>
<text text-anchor="start" x="541.891" y="-166.733" font-family="Times,serif" font-size="14.00"> : </text>
<text text-anchor="start" x="552.781" y="-166.733" font-family="mono" font-size="14.00" fill="#c83500">string</text>
<text text-anchor="start" x="584.668" y="-166.733" font-family="Times,serif" font-size="14.00"> = header</text>
</g>
<!-- BasicSecurityScheme&#45;&gt;SecurityScheme -->
<g id="edge18" class="edge"><title>BasicSecurityScheme&#45;&gt;SecurityScheme</title>
<path fill="none" stroke="black" d="M631.461,-156.403C644.263,-145.992 658.828,-134.963 673,-126 694.759,-112.239 719.202,-99.1784 742.534,-87.7207"/>
<polygon fill="black" stroke="black" points="744.29,-90.7593 751.758,-83.2448 741.234,-84.4615 744.29,-90.7593"/>
</g>
<!-- PoPSecurityScheme -->
<g id="node6" class="node"><title>PoPSecurityScheme</title>
<polygon fill="#8ccbf2" stroke="#8ccbf2" points="690,-230 690,-251 824,-251 824,-230 690,-230"/>
<polygon fill="none" stroke="#8ccbf2" points="690,-230 690,-251 824,-251 824,-230 690,-230"/>
<text text-anchor="start" x="700.5" y="-237.233" font-family="mono" font-size="14.00" fill="#c83500">PoPSecurityScheme</text>
<polygon fill="#ddeeff" stroke="#ddeeff" points="690,-210 690,-230 824,-230 824,-210 690,-210"/>
<polygon fill="none" stroke="#8ccbf2" points="690,-210 690,-230 824,-230 824,-210 690,-210"/>
<text text-anchor="start" x="693" y="-216.733" font-family="mono" font-size="14.00" fill="#c83500">alg</text>
<text text-anchor="start" x="710.105" y="-216.733" font-family="Times,serif" font-size="14.00"> : </text>
<text text-anchor="start" x="720.996" y="-216.733" font-family="mono" font-size="14.00" fill="#c83500">string</text>
<text text-anchor="start" x="752.882" y="-216.733" font-family="Times,serif" font-size="14.00"> = ES256</text>
<polygon fill="#ddeeff" stroke="#ddeeff" points="690,-190 690,-210 824,-210 824,-190 690,-190"/>
<polygon fill="none" stroke="#8ccbf2" points="690,-190 690,-210 824,-210 824,-190 690,-190"/>
<text text-anchor="start" x="693" y="-196.733" font-family="mono" font-size="14.00" fill="#c83500">name</text>
<text text-anchor="start" x="723.32" y="-196.733" font-family="Times,serif" font-size="14.00"> : </text>
<text text-anchor="start" x="734.21" y="-196.733" font-family="mono" font-size="14.00" fill="#c83500">string</text>
<polygon fill="#ddeeff" stroke="#ddeeff" points="690,-170 690,-190 824,-190 824,-170 690,-170"/>
<polygon fill="none" stroke="#8ccbf2" points="690,-170 690,-190 824,-190 824,-170 690,-170"/>
<text text-anchor="start" x="693" y="-176.733" font-family="mono" font-size="14.00" fill="#c83500">format</text>
<text text-anchor="start" x="730.317" y="-176.733" font-family="Times,serif" font-size="14.00"> : </text>
<text text-anchor="start" x="741.208" y="-176.733" font-family="mono" font-size="14.00" fill="#c83500">string</text>
<text text-anchor="start" x="773.094" y="-176.733" font-family="Times,serif" font-size="14.00"> = jwt</text>
<polygon fill="#ddeeff" stroke="#ddeeff" points="690,-150 690,-170 824,-170 824,-150 690,-150"/>
<polygon fill="none" stroke="#8ccbf2" points="690,-150 690,-170 824,-170 824,-150 690,-150"/>
<text text-anchor="start" x="693" y="-156.733" font-family="mono" font-size="14.00" fill="#c83500">authorization</text>
<text text-anchor="start" x="766.867" y="-156.733" font-family="Times,serif" font-size="14.00"> : </text>
<text text-anchor="start" x="777.757" y="-156.733" font-family="mono" font-size="14.00" fill="#c83500">anyURI</text>
<polygon fill="#ddeeff" stroke="#ddeeff" points="690,-130 690,-150 824,-150 824,-130 690,-130"/>
<polygon fill="none" stroke="#8ccbf2" points="690,-130 690,-150 824,-150 824,-130 690,-130"/>
<text text-anchor="start" x="693" y="-136.733" font-family="mono" font-size="14.00" fill="#c83500">in</text>
<text text-anchor="start" x="703.891" y="-136.733" font-family="Times,serif" font-size="14.00"> : </text>
<text text-anchor="start" x="714.781" y="-136.733" font-family="mono" font-size="14.00" fill="#c83500">string</text>
<text text-anchor="start" x="746.668" y="-136.733" font-family="Times,serif" font-size="14.00"> = header</text>
</g>
<!-- PoPSecurityScheme&#45;&gt;SecurityScheme -->
<g id="edge2" class="edge"><title>PoPSecurityScheme&#45;&gt;SecurityScheme</title>
<path fill="none" stroke="black" d="M793.888,-126.112C799.149,-116.859 804.509,-107.43 809.626,-98.4289"/>
<polygon fill="black" stroke="black" points="812.749,-100.017 814.649,-89.5935 806.664,-96.5571 812.749,-100.017"/>
</g>
<!-- PublicSecurityScheme -->
<g id="node7" class="node"><title>PublicSecurityScheme</title>
<polygon fill="#8ccbf2" stroke="#8ccbf2" points="858,-190 858,-211 991,-211 991,-190 858,-190"/>
<polygon fill="none" stroke="#8ccbf2" points="858,-190 858,-211 991,-211 991,-190 858,-190"/>
<text text-anchor="start" x="861.5" y="-197.233" font-family="mono" font-size="14.00" fill="#c83500">PublicSecurityScheme</text>
<polygon fill="#ddeeff" stroke="#ddeeff" points="858,-170 858,-190 991,-190 991,-170 858,-170"/>
<polygon fill="none" stroke="#8ccbf2" points="858,-170 858,-190 991,-190 991,-170 858,-170"/>
<text text-anchor="start" x="861" y="-176.733" font-family="mono" font-size="14.00" fill="#c83500">identity</text>
<text text-anchor="start" x="903.777" y="-176.733" font-family="Times,serif" font-size="14.00"> : </text>
<text text-anchor="start" x="914.668" y="-176.733" font-family="mono" font-size="14.00" fill="#c83500">string</text>
</g>
<!-- PublicSecurityScheme&#45;&gt;SecurityScheme -->
<g id="edge20" class="edge"><title>PublicSecurityScheme&#45;&gt;SecurityScheme</title>
<path fill="none" stroke="black" d="M909.751,-166.233C899.084,-147.693 884.094,-121.64 870.743,-98.4348"/>
<polygon fill="black" stroke="black" points="873.74,-96.6246 865.719,-89.7022 867.672,-100.115 873.74,-96.6246"/>
</g>
<!-- DigestSecurityScheme -->
<g id="node8" class="node"><title>DigestSecurityScheme</title>
<polygon fill="#8ccbf2" stroke="#8ccbf2" points="1024,-210 1024,-231 1158,-231 1158,-210 1024,-210"/>
<polygon fill="none" stroke="#8ccbf2" points="1024,-210 1024,-231 1158,-231 1158,-210 1024,-210"/>
<text text-anchor="start" x="1027.5" y="-217.233" font-family="mono" font-size="14.00" fill="#c83500">DigestSecurityScheme</text>
<polygon fill="#ddeeff" stroke="#ddeeff" points="1024,-190 1024,-210 1158,-210 1158,-190 1024,-190"/>
<polygon fill="none" stroke="#8ccbf2" points="1024,-190 1024,-210 1158,-210 1158,-190 1024,-190"/>
<text text-anchor="start" x="1027" y="-196.733" font-family="mono" font-size="14.00" fill="#c83500">in</text>
<text text-anchor="start" x="1037.89" y="-196.733" font-family="Times,serif" font-size="14.00"> : </text>
<text text-anchor="start" x="1048.78" y="-196.733" font-family="mono" font-size="14.00" fill="#c83500">string</text>
<text text-anchor="start" x="1080.67" y="-196.733" font-family="Times,serif" font-size="14.00"> = header</text>
<polygon fill="#ddeeff" stroke="#ddeeff" points="1024,-170 1024,-190 1158,-190 1158,-170 1024,-170"/>
<polygon fill="none" stroke="#8ccbf2" points="1024,-170 1024,-190 1158,-190 1158,-170 1024,-170"/>
<text text-anchor="start" x="1027" y="-176.733" font-family="mono" font-size="14.00" fill="#c83500">name</text>
<text text-anchor="start" x="1057.32" y="-176.733" font-family="Times,serif" font-size="14.00"> : </text>
<text text-anchor="start" x="1068.21" y="-176.733" font-family="mono" font-size="14.00" fill="#c83500">string</text>
<polygon fill="#ddeeff" stroke="#ddeeff" points="1024,-150 1024,-170 1158,-170 1158,-150 1024,-150"/>
<polygon fill="none" stroke="#8ccbf2" points="1024,-150 1024,-170 1158,-170 1158,-150 1024,-150"/>
<text text-anchor="start" x="1027" y="-156.733" font-family="mono" font-size="14.00" fill="#c83500">qop</text>
<text text-anchor="start" x="1048" y="-156.733" font-family="Times,serif" font-size="14.00"> : </text>
<text text-anchor="start" x="1058.89" y="-156.733" font-family="mono" font-size="14.00" fill="#c83500">string</text>
<text text-anchor="start" x="1090.78" y="-156.733" font-family="Times,serif" font-size="14.00"> = auth</text>
</g>
<!-- DigestSecurityScheme&#45;&gt;SecurityScheme -->
<g id="edge12" class="edge"><title>DigestSecurityScheme&#45;&gt;SecurityScheme</title>
<path fill="none" stroke="black" d="M1036.59,-146.311C1026.97,-139.168 1016.87,-132.122 1007,-126 985.121,-112.432 960.632,-99.4437 937.294,-87.9945"/>
<polygon fill="black" stroke="black" points="938.595,-84.7353 928.07,-83.5187 935.539,-91.0331 938.595,-84.7353"/>
</g>
<!-- NoSecurityScheme -->
<g id="node9" class="node"><title>NoSecurityScheme</title>
<polygon fill="#8ccbf2" stroke="#8ccbf2" points="1192,-180 1192,-201 1307,-201 1307,-180 1192,-180"/>
<polygon fill="none" stroke="#8ccbf2" points="1192,-180 1192,-201 1307,-201 1307,-180 1192,-180"/>
<text text-anchor="start" x="1195.5" y="-187.233" font-family="mono" font-size="14.00" fill="#c83500">NoSecurityScheme</text>
</g>
<!-- NoSecurityScheme&#45;&gt;SecurityScheme -->
<g id="edge10" class="edge"><title>NoSecurityScheme&#45;&gt;SecurityScheme</title>
<path fill="none" stroke="black" d="M1233.15,-172.877C1219.26,-158.106 1197.76,-137.821 1175,-126 1100.6,-87.3618 1007.29,-66.7544 938.06,-56.0149"/>
<polygon fill="black" stroke="black" points="938.435,-52.532 928.025,-54.501 937.391,-59.4537 938.435,-52.532"/>
</g>
<!-- PSKSecurityScheme -->
<g id="node10" class="node"><title>PSKSecurityScheme</title>
<polygon fill="#8ccbf2" stroke="#8ccbf2" points="1340,-190 1340,-211 1463,-211 1463,-190 1340,-190"/>
<polygon fill="none" stroke="#8ccbf2" points="1340,-190 1340,-211 1463,-211 1463,-190 1340,-190"/>
<text text-anchor="start" x="1343.5" y="-197.233" font-family="mono" font-size="14.00" fill="#c83500">PSKSecurityScheme</text>
<polygon fill="#ddeeff" stroke="#ddeeff" points="1340,-170 1340,-190 1463,-190 1463,-170 1340,-170"/>
<polygon fill="none" stroke="#8ccbf2" points="1340,-170 1340,-190 1463,-190 1463,-170 1340,-170"/>
<text text-anchor="start" x="1343" y="-176.733" font-family="mono" font-size="14.00" fill="#c83500">identity</text>
<text text-anchor="start" x="1385.78" y="-176.733" font-family="Times,serif" font-size="14.00"> : </text>
<text text-anchor="start" x="1396.67" y="-176.733" font-family="mono" font-size="14.00" fill="#c83500">string</text>
</g>
<!-- PSKSecurityScheme&#45;&gt;SecurityScheme -->
<g id="edge6" class="edge"><title>PSKSecurityScheme&#45;&gt;SecurityScheme</title>
<path fill="none" stroke="black" d="M1378.05,-166.211C1363.61,-152.174 1343.83,-135.562 1323,-126 1256.11,-95.2871 1058.78,-69.0685 938.038,-55.3128"/>
<polygon fill="black" stroke="black" points="938.371,-51.8282 928.041,-54.1824 937.584,-58.7839 938.371,-51.8282"/>
</g>
<!-- CertSecurityScheme -->
<g id="node11" class="node"><title>CertSecurityScheme</title>
<polygon fill="#8ccbf2" stroke="#8ccbf2" points="1496,-190 1496,-211 1618,-211 1618,-190 1496,-190"/>
<polygon fill="none" stroke="#8ccbf2" points="1496,-190 1496,-211 1618,-211 1618,-190 1496,-190"/>
<text text-anchor="start" x="1499.5" y="-197.233" font-family="mono" font-size="14.00" fill="#c83500">CertSecurityScheme</text>
<polygon fill="#ddeeff" stroke="#ddeeff" points="1496,-170 1496,-190 1618,-190 1618,-170 1496,-170"/>
<polygon fill="none" stroke="#8ccbf2" points="1496,-170 1496,-190 1618,-190 1618,-170 1496,-170"/>
<text text-anchor="start" x="1499" y="-176.733" font-family="mono" font-size="14.00" fill="#c83500">identity</text>
<text text-anchor="start" x="1541.78" y="-176.733" font-family="Times,serif" font-size="14.00"> : </text>
<text text-anchor="start" x="1552.67" y="-176.733" font-family="mono" font-size="14.00" fill="#c83500">string</text>
</g>
<!-- CertSecurityScheme&#45;&gt;SecurityScheme -->
<g id="edge4" class="edge"><title>CertSecurityScheme&#45;&gt;SecurityScheme</title>
<path fill="none" stroke="black" d="M1534.52,-166.232C1520.1,-152.018 1500.17,-135.213 1479,-126 1384.21,-84.7567 1093.07,-60.8387 938.612,-50.7321"/>
<polygon fill="black" stroke="black" points="938.391,-47.2105 928.185,-50.0572 937.938,-54.1959 938.391,-47.2105"/>
</g>
</g>
</svg>
