<?xml version="1.0" encoding="UTF-8" standalone="no"?>
<!DOCTYPE svg PUBLIC "-//W3C//DTD SVG 1.1//EN"
 "http://www.w3.org/Graphics/SVG/1.1/DTD/svg11.dtd">
<!-- Generated by graphviz version 2.40.1 (20161225.0304)
 -->
<!-- Title: %3 Pages: 1 -->
<svg width="2010pt" height="379pt"
 viewBox="0.00 0.00 2009.50 379.00" xmlns="http://www.w3.org/2000/svg" xmlns:xlink="http://www.w3.org/1999/xlink">
<g id="graph0" class="graph" transform="scale(1 1) rotate(0) translate(4 375)">
<title>%3</title>
<polygon fill="#ffffff" stroke="transparent" points="-4,4 -4,-375 2005.5,-375 2005.5,4 -4,4"/>
<!-- APIKeySecurityScheme -->
<g id="node1" class="node">
<title>APIKeySecurityScheme</title>
<polygon fill="#8ccbf2" stroke="transparent" points="8,-314 8,-335 180,-335 180,-314 8,-314"/>
<polygon fill="none" stroke="#8ccbf2" points="8,-314 8,-335 180,-335 180,-314 8,-314"/>
<text text-anchor="start" x="11" y="-321.8" font-family="mono" font-weight="bold" font-size="14.00" fill="#c83500">APIKeySecurityScheme</text>
<polygon fill="#ddeeff" stroke="transparent" points="8,-293 8,-314 180,-314 180,-293 8,-293"/>
<polygon fill="none" stroke="#8ccbf2" points="8,-293 8,-314 180,-314 180,-293 8,-293"/>
<text text-anchor="start" x="11" y="-300.8" font-family="mono" font-size="14.00" fill="#c83500">in</text>
<text text-anchor="start" x="28" y="-300.8" font-family="Times,serif" font-size="14.00" fill="#000000"> : </text>
<text text-anchor="start" x="40" y="-300.8" font-family="mono" font-size="14.00" fill="#c83500">string</text>
<text text-anchor="start" x="90" y="-300.8" font-family="Times,serif" font-size="14.00" fill="#000000"> </text>
<text text-anchor="start" x="94" y="-300.8" font-family="Times,serif" font-style="italic" font-size="14.00" fill="#000000">(mandatory)</text>
<polygon fill="#ddeeff" stroke="transparent" points="8,-272 8,-293 180,-293 180,-272 8,-272"/>
<polygon fill="none" stroke="#8ccbf2" points="8,-272 8,-293 180,-293 180,-272 8,-272"/>
<text text-anchor="start" x="11" y="-279.8" font-family="mono" font-size="14.00" fill="#c83500">name</text>
<text text-anchor="start" x="45" y="-279.8" font-family="Times,serif" font-size="14.00" fill="#000000"> : </text>
<text text-anchor="start" x="57" y="-279.8" font-family="mono" font-size="14.00" fill="#c83500">string</text>
</g>
<!-- SecurityScheme -->
<g id="node3" class="node">
<title>SecurityScheme</title>
<polygon fill="#8ccbf2" stroke="transparent" points="955,-174.5 955,-195.5 1145,-195.5 1145,-174.5 955,-174.5"/>
<polygon fill="none" stroke="#8ccbf2" points="955,-174.5 955,-195.5 1145,-195.5 1145,-174.5 955,-174.5"/>
<text text-anchor="start" x="992" y="-182.3" font-family="mono" font-weight="bold" font-size="14.00" fill="#c83500">SecurityScheme</text>
<polygon fill="#ddeeff" stroke="transparent" points="955,-153.5 955,-174.5 1145,-174.5 1145,-153.5 955,-153.5"/>
<polygon fill="none" stroke="#8ccbf2" points="955,-153.5 955,-174.5 1145,-174.5 1145,-153.5 955,-153.5"/>
<text text-anchor="start" x="958" y="-161.3" font-family="mono" font-size="14.00" fill="#c83500">@type</text>
<text text-anchor="start" x="1000" y="-161.3" font-family="Times,serif" font-size="14.00" fill="#000000"> : </text>
<text text-anchor="start" x="1012" y="-161.3" font-family="Times,serif" font-style="italic" font-size="14.00" fill="#000000">(Array of) </text>
<text text-anchor="start" x="1071" y="-161.3" font-family="mono" font-size="14.00" fill="#c83500">string</text>
<polygon fill="#ddeeff" stroke="transparent" points="955,-132.5 955,-153.5 1145,-153.5 1145,-132.5 955,-132.5"/>
<polygon fill="none" stroke="#8ccbf2" points="955,-132.5 955,-153.5 1145,-153.5 1145,-132.5 955,-132.5"/>
<text text-anchor="start" x="958" y="-140.3" font-family="mono" font-size="14.00" fill="#c83500">description</text>
<text text-anchor="start" x="1049" y="-140.3" font-family="Times,serif" font-size="14.00" fill="#000000"> : </text>
<text text-anchor="start" x="1061" y="-140.3" font-family="mono" font-size="14.00" fill="#c83500">string</text>
<polygon fill="#ddeeff" stroke="transparent" points="955,-111.5 955,-132.5 1145,-132.5 1145,-111.5 955,-111.5"/>
<polygon fill="none" stroke="#8ccbf2" points="955,-111.5 955,-132.5 1145,-132.5 1145,-111.5 955,-111.5"/>
<text text-anchor="start" x="958" y="-119.3" font-family="mono" font-size="14.00" fill="#c83500">proxy</text>
<text text-anchor="start" x="1000" y="-119.3" font-family="Times,serif" font-size="14.00" fill="#000000"> : </text>
<text text-anchor="start" x="1012" y="-119.3" font-family="mono" font-size="14.00" fill="#c83500">anyURI</text>
<polygon fill="#ddeeff" stroke="transparent" points="955,-90.5 955,-111.5 1145,-111.5 1145,-90.5 955,-90.5"/>
<polygon fill="none" stroke="#8ccbf2" points="955,-90.5 955,-111.5 1145,-111.5 1145,-90.5 955,-90.5"/>
<text text-anchor="start" x="958" y="-98.3" font-family="mono" font-size="14.00" fill="#c83500">scheme</text>
<text text-anchor="start" x="1008" y="-98.3" font-family="Times,serif" font-size="14.00" fill="#000000"> : </text>
<text text-anchor="start" x="1020" y="-98.3" font-family="mono" font-size="14.00" fill="#c83500">string</text>
<text text-anchor="start" x="1070" y="-98.3" font-family="Times,serif" font-size="14.00" fill="#000000"> </text>
<text text-anchor="start" x="1074" y="-98.3" font-family="Times,serif" font-style="italic" font-size="14.00" fill="#000000">(mandatory)</text>
</g>
<!-- APIKeySecurityScheme&#45;&gt;SecurityScheme -->
<g id="edge4" class="edge">
<title>APIKeySecurityScheme&#45;&gt;SecurityScheme</title>
<path fill="none" stroke="#000000" d="M138.729,-268.3766C155.9942,-256.4394 176.5081,-244.3167 197,-237 330.5086,-189.33 736.9434,-160.8626 936.7188,-149.3926"/>
<polygon fill="#ffffff" stroke="#000000" points="937.1647,-152.873 946.9493,-148.8098 936.7664,-145.8843 937.1647,-152.873"/>
</g>
<!-- OAuth2SecurityScheme -->
<g id="node2" class="node">
<title>OAuth2SecurityScheme</title>
<polygon fill="#8ccbf2" stroke="transparent" points="215,-346 215,-367 392,-367 392,-346 215,-346"/>
<polygon fill="none" stroke="#8ccbf2" points="215,-346 215,-367 392,-367 392,-346 215,-346"/>
<text text-anchor="start" x="220.5" y="-353.8" font-family="mono" font-weight="bold" font-size="14.00" fill="#c83500">OAuth2SecurityScheme</text>
<polygon fill="#ddeeff" stroke="transparent" points="215,-325 215,-346 392,-346 392,-325 215,-325"/>
<polygon fill="none" stroke="#8ccbf2" points="215,-325 215,-346 392,-346 392,-325 215,-325"/>
<text text-anchor="start" x="218" y="-332.8" font-family="mono" font-size="14.00" fill="#c83500">refresh</text>
<text text-anchor="start" x="276" y="-332.8" font-family="Times,serif" font-size="14.00" fill="#000000"> : </text>
<text text-anchor="start" x="288" y="-332.8" font-family="mono" font-size="14.00" fill="#c83500">anyURI</text>
<polygon fill="#ddeeff" stroke="transparent" points="215,-304 215,-325 392,-325 392,-304 215,-304"/>
<polygon fill="none" stroke="#8ccbf2" points="215,-304 215,-325 392,-325 392,-304 215,-304"/>
<text text-anchor="start" x="218" y="-311.8" font-family="mono" font-size="14.00" fill="#c83500">token</text>
<text text-anchor="start" x="260" y="-311.8" font-family="Times,serif" font-size="14.00" fill="#000000"> : </text>
<text text-anchor="start" x="272" y="-311.8" font-family="mono" font-size="14.00" fill="#c83500">anyURI</text>
<polygon fill="#ddeeff" stroke="transparent" points="215,-283 215,-304 392,-304 392,-283 215,-283"/>
<polygon fill="none" stroke="#8ccbf2" points="215,-283 215,-304 392,-304 392,-283 215,-283"/>
<text text-anchor="start" x="218" y="-290.8" font-family="mono" font-size="14.00" fill="#c83500">scopes</text>
<text text-anchor="start" x="268" y="-290.8" font-family="Times,serif" font-size="14.00" fill="#000000"> : (Array of) </text>
<text text-anchor="start" x="339" y="-290.8" font-family="mono" font-size="14.00" fill="#c83500">string</text>
<polygon fill="#ddeeff" stroke="transparent" points="215,-262 215,-283 392,-283 392,-262 215,-262"/>
<polygon fill="none" stroke="#8ccbf2" points="215,-262 215,-283 392,-283 392,-262 215,-262"/>
<text text-anchor="start" x="218" y="-269.8" font-family="mono" font-size="14.00" fill="#c83500">flow</text>
<text text-anchor="start" x="252" y="-269.8" font-family="Times,serif" font-size="14.00" fill="#000000"> : </text>
<text text-anchor="start" x="264" y="-269.8" font-family="mono" font-size="14.00" fill="#c83500">string</text>
<text text-anchor="start" x="314" y="-269.8" font-family="Times,serif" font-size="14.00" fill="#000000"> </text>
<text text-anchor="start" x="318" y="-269.8" font-family="Times,serif" font-style="italic" font-size="14.00" fill="#000000">(mandatory)</text>
<polygon fill="#ddeeff" stroke="transparent" points="215,-241 215,-262 392,-262 392,-241 215,-241"/>
<polygon fill="none" stroke="#8ccbf2" points="215,-241 215,-262 392,-262 392,-241 215,-241"/>
<text text-anchor="start" x="218" y="-248.8" font-family="mono" font-size="14.00" fill="#c83500">authorization</text>
<text text-anchor="start" x="326" y="-248.8" font-family="Times,serif" font-size="14.00" fill="#000000"> : </text>
<text text-anchor="start" x="338" y="-248.8" font-family="mono" font-size="14.00" fill="#c83500">anyURI</text>
</g>
<!-- OAuth2SecurityScheme&#45;&gt;SecurityScheme -->
<g id="edge8" class="edge">
<title>OAuth2SecurityScheme&#45;&gt;SecurityScheme</title>
<path fill="none" stroke="#000000" d="M399.5015,-240.8065C402.6648,-239.445 405.8351,-238.1706 409,-237 503.4397,-202.0704 779.3897,-170.2586 936.7147,-154.2933"/>
<polygon fill="#ffffff" stroke="#000000" points="937.3049,-157.7516 946.9027,-153.2647 936.6017,-150.787 937.3049,-157.7516"/>
</g>
<!-- MultiLanguage -->
<g id="node12" class="node">
<title>MultiLanguage</title>
<polygon fill="#f2f2f2" stroke="transparent" points="993,-7 993,-28 1107,-28 1107,-7 993,-7"/>
<polygon fill="none" stroke="#8c8c8c" points="993,-7 993,-28 1107,-28 1107,-7 993,-7"/>
<text text-anchor="start" x="996" y="-14.8" font-family="mono" font-weight="bold" font-size="14.00" fill="#000000">MultiLanguage</text>
</g>
<!-- SecurityScheme&#45;&gt;MultiLanguage -->
<g id="edge1" class="edge">
<title>SecurityScheme&#45;&gt;MultiLanguage</title>
<path fill="none" stroke="#000000" d="M1050,-86.9913C1050,-72.9443 1050,-58.476 1050,-46.4397"/>
<polygon fill="#000000" stroke="#000000" points="1053.5001,-46.1513 1050,-36.1514 1046.5001,-46.1514 1053.5001,-46.1513"/>
<text text-anchor="start" x="1050" y="-57.8" font-family="mono" font-size="14.00" fill="#c83500">descriptions</text>
<text text-anchor="middle" x="1039" y="-39.9514" font-family="Times,serif" font-size="14.00" fill="#000000">0..1</text>
</g>
<!-- BearerSecurityScheme -->
<g id="node4" class="node">
<title>BearerSecurityScheme</title>
<polygon fill="#8ccbf2" stroke="transparent" points="426,-346 426,-367 616,-367 616,-346 426,-346"/>
<polygon fill="none" stroke="#8ccbf2" points="426,-346 426,-367 616,-367 616,-346 426,-346"/>
<text text-anchor="start" x="438" y="-353.8" font-family="mono" font-weight="bold" font-size="14.00" fill="#c83500">BearerSecurityScheme</text>
<polygon fill="#ddeeff" stroke="transparent" points="426,-325 426,-346 616,-346 616,-325 426,-325"/>
<polygon fill="none" stroke="#8ccbf2" points="426,-325 426,-346 616,-346 616,-325 426,-325"/>
<text text-anchor="start" x="429" y="-332.8" font-family="mono" font-size="14.00" fill="#c83500">name</text>
<text text-anchor="start" x="463" y="-332.8" font-family="Times,serif" font-size="14.00" fill="#000000"> : </text>
<text text-anchor="start" x="475" y="-332.8" font-family="mono" font-size="14.00" fill="#c83500">string</text>
<polygon fill="#ddeeff" stroke="transparent" points="426,-304 426,-325 616,-325 616,-304 426,-304"/>
<polygon fill="none" stroke="#8ccbf2" points="426,-304 426,-325 616,-325 616,-304 426,-304"/>
<text text-anchor="start" x="429" y="-311.8" font-family="mono" font-size="14.00" fill="#c83500">in</text>
<text text-anchor="start" x="446" y="-311.8" font-family="Times,serif" font-size="14.00" fill="#000000"> : </text>
<text text-anchor="start" x="458" y="-311.8" font-family="mono" font-size="14.00" fill="#c83500">string</text>
<text text-anchor="start" x="508" y="-311.8" font-family="Times,serif" font-size="14.00" fill="#000000"> </text>
<text text-anchor="start" x="512" y="-311.8" font-family="Times,serif" font-style="italic" font-size="14.00" fill="#000000">(mandatory)</text>
<polygon fill="#ddeeff" stroke="transparent" points="426,-283 426,-304 616,-304 616,-283 426,-283"/>
<polygon fill="none" stroke="#8ccbf2" points="426,-283 426,-304 616,-304 616,-283 426,-283"/>
<text text-anchor="start" x="429" y="-290.8" font-family="mono" font-size="14.00" fill="#c83500">alg</text>
<text text-anchor="start" x="454" y="-290.8" font-family="Times,serif" font-size="14.00" fill="#000000"> : </text>
<text text-anchor="start" x="466" y="-290.8" font-family="mono" font-size="14.00" fill="#c83500">string</text>
<text text-anchor="start" x="516" y="-290.8" font-family="Times,serif" font-size="14.00" fill="#000000"> </text>
<text text-anchor="start" x="520" y="-290.8" font-family="Times,serif" font-style="italic" font-size="14.00" fill="#000000">(mandatory)</text>
<polygon fill="#ddeeff" stroke="transparent" points="426,-262 426,-283 616,-283 616,-262 426,-262"/>
<polygon fill="none" stroke="#8ccbf2" points="426,-262 426,-283 616,-283 616,-262 426,-262"/>
<text text-anchor="start" x="429" y="-269.8" font-family="mono" font-size="14.00" fill="#c83500">format</text>
<text text-anchor="start" x="479" y="-269.8" font-family="Times,serif" font-size="14.00" fill="#000000"> : </text>
<text text-anchor="start" x="491" y="-269.8" font-family="mono" font-size="14.00" fill="#c83500">string</text>
<text text-anchor="start" x="541" y="-269.8" font-family="Times,serif" font-size="14.00" fill="#000000"> </text>
<text text-anchor="start" x="545" y="-269.8" font-family="Times,serif" font-style="italic" font-size="14.00" fill="#000000">(mandatory)</text>
<polygon fill="#ddeeff" stroke="transparent" points="426,-241 426,-262 616,-262 616,-241 426,-241"/>
<polygon fill="none" stroke="#8ccbf2" points="426,-241 426,-262 616,-262 616,-241 426,-241"/>
<text text-anchor="start" x="429" y="-248.8" font-family="mono" font-size="14.00" fill="#c83500">authorization</text>
<text text-anchor="start" x="537" y="-248.8" font-family="Times,serif" font-size="14.00" fill="#000000"> : </text>
<text text-anchor="start" x="549" y="-248.8" font-family="mono" font-size="14.00" fill="#c83500">anyURI</text>
</g>
<!-- BearerSecurityScheme&#45;&gt;SecurityScheme -->
<g id="edge9" class="edge">
<title>BearerSecurityScheme&#45;&gt;SecurityScheme</title>
<path fill="none" stroke="#000000" d="M624.1339,-240.7323C627.0952,-239.424 630.054,-238.1761 633,-237 731.9242,-197.5069 851.041,-172.9037 936.5906,-158.9104"/>
<polygon fill="#ffffff" stroke="#000000" points="937.2758,-162.3453 946.5911,-157.2979 936.1615,-155.4345 937.2758,-162.3453"/>
</g>
<!-- BasicSecurityScheme -->
<g id="node5" class="node">
<title>BasicSecurityScheme</title>
<polygon fill="#8ccbf2" stroke="transparent" points="651,-314 651,-335 814,-335 814,-314 651,-314"/>
<polygon fill="none" stroke="#8ccbf2" points="651,-314 651,-335 814,-335 814,-314 651,-314"/>
<text text-anchor="start" x="654" y="-321.8" font-family="mono" font-weight="bold" font-size="14.00" fill="#c83500">BasicSecurityScheme</text>
<polygon fill="#ddeeff" stroke="transparent" points="651,-293 651,-314 814,-314 814,-293 651,-293"/>
<polygon fill="none" stroke="#8ccbf2" points="651,-293 651,-314 814,-314 814,-293 651,-293"/>
<text text-anchor="start" x="654" y="-300.8" font-family="mono" font-size="14.00" fill="#c83500">name</text>
<text text-anchor="start" x="688" y="-300.8" font-family="Times,serif" font-size="14.00" fill="#000000"> : </text>
<text text-anchor="start" x="700" y="-300.8" font-family="mono" font-size="14.00" fill="#c83500">string</text>
<polygon fill="#ddeeff" stroke="transparent" points="651,-272 651,-293 814,-293 814,-272 651,-272"/>
<polygon fill="none" stroke="#8ccbf2" points="651,-272 651,-293 814,-293 814,-272 651,-272"/>
<text text-anchor="start" x="654" y="-279.8" font-family="mono" font-size="14.00" fill="#c83500">in</text>
<text text-anchor="start" x="671" y="-279.8" font-family="Times,serif" font-size="14.00" fill="#000000"> : </text>
<text text-anchor="start" x="683" y="-279.8" font-family="mono" font-size="14.00" fill="#c83500">string</text>
<text text-anchor="start" x="733" y="-279.8" font-family="Times,serif" font-size="14.00" fill="#000000"> </text>
<text text-anchor="start" x="737" y="-279.8" font-family="Times,serif" font-style="italic" font-size="14.00" fill="#000000">(mandatory)</text>
</g>
<!-- BasicSecurityScheme&#45;&gt;SecurityScheme -->
<g id="edge6" class="edge">
<title>BasicSecurityScheme&#45;&gt;SecurityScheme</title>
<path fill="none" stroke="#000000" d="M780.6875,-268.3407C796.3561,-257.6093 814.0549,-246.2404 831,-237 864.7344,-218.6042 902.8409,-201.2413 937.698,-186.5862"/>
<polygon fill="#ffffff" stroke="#000000" points="939.0773,-189.8033 946.9594,-182.7235 936.3827,-183.3427 939.0773,-189.8033"/>
</g>
<!-- PoPSecurityScheme -->
<g id="node6" class="node">
<title>PoPSecurityScheme</title>
<polygon fill="#8ccbf2" stroke="transparent" points="848,-346 848,-367 1038,-367 1038,-346 848,-346"/>
<polygon fill="none" stroke="#8ccbf2" points="848,-346 848,-367 1038,-367 1038,-346 848,-346"/>
<text text-anchor="start" x="872.5" y="-353.8" font-family="mono" font-weight="bold" font-size="14.00" fill="#c83500">PoPSecurityScheme</text>
<polygon fill="#ddeeff" stroke="transparent" points="848,-325 848,-346 1038,-346 1038,-325 848,-325"/>
<polygon fill="none" stroke="#8ccbf2" points="848,-325 848,-346 1038,-346 1038,-325 848,-325"/>
<text text-anchor="start" x="851" y="-332.8" font-family="mono" font-size="14.00" fill="#c83500">name</text>
<text text-anchor="start" x="885" y="-332.8" font-family="Times,serif" font-size="14.00" fill="#000000"> : </text>
<text text-anchor="start" x="897" y="-332.8" font-family="mono" font-size="14.00" fill="#c83500">string</text>
<polygon fill="#ddeeff" stroke="transparent" points="848,-304 848,-325 1038,-325 1038,-304 848,-304"/>
<polygon fill="none" stroke="#8ccbf2" points="848,-304 848,-325 1038,-325 1038,-304 848,-304"/>
<text text-anchor="start" x="851" y="-311.8" font-family="mono" font-size="14.00" fill="#c83500">format</text>
<text text-anchor="start" x="901" y="-311.8" font-family="Times,serif" font-size="14.00" fill="#000000"> : </text>
<text text-anchor="start" x="913" y="-311.8" font-family="mono" font-size="14.00" fill="#c83500">string</text>
<text text-anchor="start" x="963" y="-311.8" font-family="Times,serif" font-size="14.00" fill="#000000"> </text>
<text text-anchor="start" x="967" y="-311.8" font-family="Times,serif" font-style="italic" font-size="14.00" fill="#000000">(mandatory)</text>
<polygon fill="#ddeeff" stroke="transparent" points="848,-283 848,-304 1038,-304 1038,-283 848,-283"/>
<polygon fill="none" stroke="#8ccbf2" points="848,-283 848,-304 1038,-304 1038,-283 848,-283"/>
<text text-anchor="start" x="851" y="-290.8" font-family="mono" font-size="14.00" fill="#c83500">in</text>
<text text-anchor="start" x="868" y="-290.8" font-family="Times,serif" font-size="14.00" fill="#000000"> : </text>
<text text-anchor="start" x="880" y="-290.8" font-family="mono" font-size="14.00" fill="#c83500">string</text>
<text text-anchor="start" x="930" y="-290.8" font-family="Times,serif" font-size="14.00" fill="#000000"> </text>
<text text-anchor="start" x="934" y="-290.8" font-family="Times,serif" font-style="italic" font-size="14.00" fill="#000000">(mandatory)</text>
<polygon fill="#ddeeff" stroke="transparent" points="848,-262 848,-283 1038,-283 1038,-262 848,-262"/>
<polygon fill="none" stroke="#8ccbf2" points="848,-262 848,-283 1038,-283 1038,-262 848,-262"/>
<text text-anchor="start" x="851" y="-269.8" font-family="mono" font-size="14.00" fill="#c83500">authorization</text>
<text text-anchor="start" x="959" y="-269.8" font-family="Times,serif" font-size="14.00" fill="#000000"> : </text>
<text text-anchor="start" x="971" y="-269.8" font-family="mono" font-size="14.00" fill="#c83500">anyURI</text>
<polygon fill="#ddeeff" stroke="transparent" points="848,-241 848,-262 1038,-262 1038,-241 848,-241"/>
<polygon fill="none" stroke="#8ccbf2" points="848,-241 848,-262 1038,-262 1038,-241 848,-241"/>
<text text-anchor="start" x="851" y="-248.8" font-family="mono" font-size="14.00" fill="#c83500">alg</text>
<text text-anchor="start" x="876" y="-248.8" font-family="Times,serif" font-size="14.00" fill="#000000"> : </text>
<text text-anchor="start" x="888" y="-248.8" font-family="mono" font-size="14.00" fill="#c83500">string</text>
<text text-anchor="start" x="938" y="-248.8" font-family="Times,serif" font-size="14.00" fill="#000000"> </text>
<text text-anchor="start" x="942" y="-248.8" font-family="Times,serif" font-style="italic" font-size="14.00" fill="#000000">(mandatory)</text>
</g>
<!-- PoPSecurityScheme&#45;&gt;SecurityScheme -->
<g id="edge3" class="edge">
<title>PoPSecurityScheme&#45;&gt;SecurityScheme</title>
<path fill="none" stroke="#000000" d="M987.7577,-236.8635C993.9837,-227.5245 1000.372,-217.9419 1006.5731,-208.6404"/>
<polygon fill="#ffffff" stroke="#000000" points="1009.5704,-210.4541 1012.2052,-200.1921 1003.746,-206.5712 1009.5704,-210.4541"/>
</g>
<!-- PublicSecurityScheme -->
<g id="node7" class="node">
<title>PublicSecurityScheme</title>
<polygon fill="#8ccbf2" stroke="transparent" points="1072,-304 1072,-325 1244,-325 1244,-304 1072,-304"/>
<polygon fill="none" stroke="#8ccbf2" points="1072,-304 1072,-325 1244,-325 1244,-304 1072,-304"/>
<text text-anchor="start" x="1075" y="-311.8" font-family="mono" font-weight="bold" font-size="14.00" fill="#c83500">PublicSecurityScheme</text>
<polygon fill="#ddeeff" stroke="transparent" points="1072,-283 1072,-304 1244,-304 1244,-283 1072,-283"/>
<polygon fill="none" stroke="#8ccbf2" points="1072,-283 1072,-304 1244,-304 1244,-283 1072,-283"/>
<text text-anchor="start" x="1075" y="-290.8" font-family="mono" font-size="14.00" fill="#c83500">identity</text>
<text text-anchor="start" x="1142" y="-290.8" font-family="Times,serif" font-size="14.00" fill="#000000"> : </text>
<text text-anchor="start" x="1154" y="-290.8" font-family="mono" font-size="14.00" fill="#c83500">string</text>
</g>
<!-- PublicSecurityScheme&#45;&gt;SecurityScheme -->
<g id="edge2" class="edge">
<title>PublicSecurityScheme&#45;&gt;SecurityScheme</title>
<path fill="none" stroke="#000000" d="M1141.125,-278.9219C1128.4394,-260.0697 1110.4559,-233.3441 1093.8122,-208.6098"/>
<polygon fill="#ffffff" stroke="#000000" points="1096.7153,-206.6548 1088.2287,-200.3122 1090.9077,-210.5627 1096.7153,-206.6548"/>
</g>
<!-- DigestSecurityScheme -->
<g id="node8" class="node">
<title>DigestSecurityScheme</title>
<polygon fill="#8ccbf2" stroke="transparent" points="1278,-325 1278,-346 1450,-346 1450,-325 1278,-325"/>
<polygon fill="none" stroke="#8ccbf2" points="1278,-325 1278,-346 1450,-346 1450,-325 1278,-325"/>
<text text-anchor="start" x="1281" y="-332.8" font-family="mono" font-weight="bold" font-size="14.00" fill="#c83500">DigestSecurityScheme</text>
<polygon fill="#ddeeff" stroke="transparent" points="1278,-304 1278,-325 1450,-325 1450,-304 1278,-304"/>
<polygon fill="none" stroke="#8ccbf2" points="1278,-304 1278,-325 1450,-325 1450,-304 1278,-304"/>
<text text-anchor="start" x="1281" y="-311.8" font-family="mono" font-size="14.00" fill="#c83500">name</text>
<text text-anchor="start" x="1315" y="-311.8" font-family="Times,serif" font-size="14.00" fill="#000000"> : </text>
<text text-anchor="start" x="1327" y="-311.8" font-family="mono" font-size="14.00" fill="#c83500">string</text>
<polygon fill="#ddeeff" stroke="transparent" points="1278,-283 1278,-304 1450,-304 1450,-283 1278,-283"/>
<polygon fill="none" stroke="#8ccbf2" points="1278,-283 1278,-304 1450,-304 1450,-283 1278,-283"/>
<text text-anchor="start" x="1281" y="-290.8" font-family="mono" font-size="14.00" fill="#c83500">in</text>
<text text-anchor="start" x="1298" y="-290.8" font-family="Times,serif" font-size="14.00" fill="#000000"> : </text>
<text text-anchor="start" x="1310" y="-290.8" font-family="mono" font-size="14.00" fill="#c83500">string</text>
<text text-anchor="start" x="1360" y="-290.8" font-family="Times,serif" font-size="14.00" fill="#000000"> </text>
<text text-anchor="start" x="1364" y="-290.8" font-family="Times,serif" font-style="italic" font-size="14.00" fill="#000000">(mandatory)</text>
<polygon fill="#ddeeff" stroke="transparent" points="1278,-262 1278,-283 1450,-283 1450,-262 1278,-262"/>
<polygon fill="none" stroke="#8ccbf2" points="1278,-262 1278,-283 1450,-283 1450,-262 1278,-262"/>
<text text-anchor="start" x="1281" y="-269.8" font-family="mono" font-size="14.00" fill="#c83500">qop</text>
<text text-anchor="start" x="1306" y="-269.8" font-family="Times,serif" font-size="14.00" fill="#000000"> : </text>
<text text-anchor="start" x="1318" y="-269.8" font-family="mono" font-size="14.00" fill="#c83500">string</text>
<text text-anchor="start" x="1368" y="-269.8" font-family="Times,serif" font-size="14.00" fill="#000000"> </text>
<text text-anchor="start" x="1372" y="-269.8" font-family="Times,serif" font-style="italic" font-size="14.00" fill="#000000">(mandatory)</text>
</g>
<!-- DigestSecurityScheme&#45;&gt;SecurityScheme -->
<g id="edge5" class="edge">
<title>DigestSecurityScheme&#45;&gt;SecurityScheme</title>
<path fill="none" stroke="#000000" d="M1296.5081,-257.9245C1284.8569,-250.6019 1272.7202,-243.356 1261,-237 1229.7444,-220.0498 1194.8039,-203.6158 1162.489,-189.377"/>
<polygon fill="#ffffff" stroke="#000000" points="1163.5665,-186.0282 1153.0021,-185.2262 1160.7606,-192.4412 1163.5665,-186.0282"/>
</g>
<!-- NoSecurityScheme -->
<g id="node9" class="node">
<title>NoSecurityScheme</title>
<polygon fill="#8ccbf2" stroke="transparent" points="1485,-293 1485,-314 1624,-314 1624,-293 1485,-293"/>
<polygon fill="none" stroke="#8ccbf2" points="1485,-293 1485,-314 1624,-314 1624,-293 1485,-293"/>
<text text-anchor="start" x="1488" y="-300.8" font-family="mono" font-weight="bold" font-size="14.00" fill="#c83500">NoSecurityScheme</text>
</g>
<!-- NoSecurityScheme&#45;&gt;SecurityScheme -->
<g id="edge11" class="edge">
<title>NoSecurityScheme&#45;&gt;SecurityScheme</title>
<path fill="none" stroke="#000000" d="M1535.5813,-285.9019C1518.9884,-270.6146 1493.2369,-249.3009 1467,-237 1369.9112,-191.4807 1249.5375,-167.5571 1163.1154,-155.3533"/>
<polygon fill="#ffffff" stroke="#000000" points="1163.398,-151.8592 1153.0132,-153.9582 1162.4404,-158.7934 1163.398,-151.8592"/>
</g>
<!-- PSKSecurityScheme -->
<g id="node10" class="node">
<title>PSKSecurityScheme</title>
<polygon fill="#8ccbf2" stroke="transparent" points="1658,-304 1658,-325 1805,-325 1805,-304 1658,-304"/>
<polygon fill="none" stroke="#8ccbf2" points="1658,-304 1658,-325 1805,-325 1805,-304 1658,-304"/>
<text text-anchor="start" x="1661" y="-311.8" font-family="mono" font-weight="bold" font-size="14.00" fill="#c83500">PSKSecurityScheme</text>
<polygon fill="#ddeeff" stroke="transparent" points="1658,-283 1658,-304 1805,-304 1805,-283 1658,-283"/>
<polygon fill="none" stroke="#8ccbf2" points="1658,-283 1658,-304 1805,-304 1805,-283 1658,-283"/>
<text text-anchor="start" x="1661" y="-290.8" font-family="mono" font-size="14.00" fill="#c83500">identity</text>
<text text-anchor="start" x="1728" y="-290.8" font-family="Times,serif" font-size="14.00" fill="#000000"> : </text>
<text text-anchor="start" x="1740" y="-290.8" font-family="mono" font-size="14.00" fill="#c83500">string</text>
</g>
<!-- PSKSecurityScheme&#45;&gt;SecurityScheme -->
<g id="edge7" class="edge">
<title>PSKSecurityScheme&#45;&gt;SecurityScheme</title>
<path fill="none" stroke="#000000" d="M1704.0599,-278.7667C1686.9858,-264.2235 1663.7126,-246.9114 1640,-237 1556.0757,-201.9213 1310.1472,-171.0154 1163.6341,-155.0339"/>
<polygon fill="#ffffff" stroke="#000000" points="1163.5795,-151.5076 1153.2605,-153.9092 1162.8249,-158.4668 1163.5795,-151.5076"/>
</g>
<!-- CertSecurityScheme -->
<g id="node11" class="node">
<title>CertSecurityScheme</title>
<polygon fill="#8ccbf2" stroke="transparent" points="1839,-304 1839,-325 1994,-325 1994,-304 1839,-304"/>
<polygon fill="none" stroke="#8ccbf2" points="1839,-304 1839,-325 1994,-325 1994,-304 1839,-304"/>
<text text-anchor="start" x="1842" y="-311.8" font-family="mono" font-weight="bold" font-size="14.00" fill="#c83500">CertSecurityScheme</text>
<polygon fill="#ddeeff" stroke="transparent" points="1839,-283 1839,-304 1994,-304 1994,-283 1839,-283"/>
<polygon fill="none" stroke="#8ccbf2" points="1839,-283 1839,-304 1994,-304 1994,-283 1839,-283"/>
<text text-anchor="start" x="1842" y="-290.8" font-family="mono" font-size="14.00" fill="#c83500">identity</text>
<text text-anchor="start" x="1909" y="-290.8" font-family="Times,serif" font-size="14.00" fill="#000000"> : </text>
<text text-anchor="start" x="1921" y="-290.8" font-family="mono" font-size="14.00" fill="#c83500">string</text>
</g>
<!-- CertSecurityScheme&#45;&gt;SecurityScheme -->
<g id="edge10" class="edge">
<title>CertSecurityScheme&#45;&gt;SecurityScheme</title>
<path fill="none" stroke="#000000" d="M1888.5627,-278.8009C1870.8855,-264.0776 1846.6645,-246.5632 1822,-237 1704.5005,-191.4418 1347.8127,-162.6061 1163.2851,-150.3314"/>
<polygon fill="#ffffff" stroke="#000000" points="1163.4861,-146.8372 1153.2772,-149.6707 1163.0249,-153.822 1163.4861,-146.8372"/>
</g>
</g>
</svg>
