<?xml version="1.0" encoding="UTF-8" standalone="no"?>
<!DOCTYPE svg PUBLIC "-//W3C//DTD SVG 1.1//EN"
 "http://www.w3.org/Graphics/SVG/1.1/DTD/svg11.dtd">
<!-- Generated by graphviz version 2.40.1 (20161225.0304)
 -->
<!-- Title: %3 Pages: 1 -->
<svg width="1652pt" height="337pt"
 viewBox="0.00 0.00 1651.50 337.00" xmlns="http://www.w3.org/2000/svg" xmlns:xlink="http://www.w3.org/1999/xlink">
<g id="graph0" class="graph" transform="scale(1 1) rotate(0) translate(4 333)">
<title>%3</title>
<polygon fill="#ffffff" stroke="transparent" points="-4,4 -4,-333 1647.5,-333 1647.5,4 -4,4"/>
<!-- APIKeySecurityScheme -->
<g id="node1" class="node">
<title>APIKeySecurityScheme</title>
<polygon fill="#8ccbf2" stroke="transparent" points="8,-272 8,-293 180,-293 180,-272 8,-272"/>
<polygon fill="none" stroke="#8ccbf2" points="8,-272 8,-293 180,-293 180,-272 8,-272"/>
<text text-anchor="start" x="11" y="-279.8" font-family="mono" font-weight="bold" font-size="14.00" fill="#c83500">APIKeySecurityScheme</text>
<polygon fill="#ddeeff" stroke="transparent" points="8,-251 8,-272 180,-272 180,-251 8,-251"/>
<polygon fill="none" stroke="#8ccbf2" points="8,-251 8,-272 180,-272 180,-251 8,-251"/>
<text text-anchor="start" x="11" y="-258.8" font-family="mono" font-size="14.00" fill="#c83500">in</text>
<text text-anchor="start" x="28" y="-258.8" font-family="Times,serif" font-size="14.00" fill="#000000"> : </text>
<text text-anchor="start" x="40" y="-258.8" font-family="mono" font-size="14.00" fill="#c83500">string</text>
<polygon fill="#ddeeff" stroke="transparent" points="8,-230 8,-251 180,-251 180,-230 8,-230"/>
<polygon fill="none" stroke="#8ccbf2" points="8,-230 8,-251 180,-251 180,-230 8,-230"/>
<text text-anchor="start" x="11" y="-237.8" font-family="mono" font-size="14.00" fill="#c83500">name</text>
<text text-anchor="start" x="45" y="-237.8" font-family="Times,serif" font-size="14.00" fill="#000000"> : </text>
<text text-anchor="start" x="57" y="-237.8" font-family="mono" font-size="14.00" fill="#c83500">string</text>
</g>
<!-- SecurityScheme -->
<g id="node9" class="node">
<title>SecurityScheme</title>
<polygon fill="#8ccbf2" stroke="transparent" points="779,-132.5 779,-153.5 948,-153.5 948,-132.5 779,-132.5"/>
<polygon fill="none" stroke="#8ccbf2" points="779,-132.5 779,-153.5 948,-153.5 948,-132.5 779,-132.5"/>
<text text-anchor="start" x="805.5" y="-140.3" font-family="mono" font-weight="bold" font-size="14.00" fill="#c83500">SecurityScheme</text>
<polygon fill="#ddeeff" stroke="transparent" points="779,-111.5 779,-132.5 948,-132.5 948,-111.5 779,-111.5"/>
<polygon fill="none" stroke="#8ccbf2" points="779,-111.5 779,-132.5 948,-132.5 948,-111.5 779,-111.5"/>
<text text-anchor="start" x="782" y="-119.3" font-family="mono" font-size="14.00" fill="#c83500">@type</text>
<text text-anchor="start" x="824" y="-119.3" font-family="Times,serif" font-size="14.00" fill="#000000"> : </text>
<text text-anchor="start" x="836" y="-119.3" font-family="Times,serif" font-style="italic" font-size="14.00" fill="#000000">(Array of) </text>
<text text-anchor="start" x="895" y="-119.3" font-family="mono" font-size="14.00" fill="#c83500">string</text>
<polygon fill="#ddeeff" stroke="transparent" points="779,-90.5 779,-111.5 948,-111.5 948,-90.5 779,-90.5"/>
<polygon fill="none" stroke="#8ccbf2" points="779,-90.5 779,-111.5 948,-111.5 948,-90.5 779,-90.5"/>
<text text-anchor="start" x="782" y="-98.3" font-family="mono" font-size="14.00" fill="#c83500">description</text>
<text text-anchor="start" x="873" y="-98.3" font-family="Times,serif" font-size="14.00" fill="#000000"> : </text>
<text text-anchor="start" x="885" y="-98.3" font-family="mono" font-size="14.00" fill="#c83500">string</text>
</g>
<!-- APIKeySecurityScheme&#45;&gt;SecurityScheme -->
<g id="edge2" class="edge">
<title>APIKeySecurityScheme&#45;&gt;SecurityScheme</title>
<path fill="none" stroke="#000000" d="M138.726,-226.3683C155.991,-214.4302 176.5054,-202.3091 197,-195 298.0994,-158.9443 599.6172,-137.1929 760.002,-127.8619"/>
<polygon fill="#ffffff" stroke="#000000" points="760.5764,-131.3347 770.3585,-127.2652 760.1737,-124.3463 760.5764,-131.3347"/>
</g>
<!-- BasicSecurityScheme -->
<g id="node2" class="node">
<title>BasicSecurityScheme</title>
<polygon fill="#8ccbf2" stroke="transparent" points="215,-272 215,-293 378,-293 378,-272 215,-272"/>
<polygon fill="none" stroke="#8ccbf2" points="215,-272 215,-293 378,-293 378,-272 215,-272"/>
<text text-anchor="start" x="218" y="-279.8" font-family="mono" font-weight="bold" font-size="14.00" fill="#c83500">BasicSecurityScheme</text>
<polygon fill="#ddeeff" stroke="transparent" points="215,-251 215,-272 378,-272 378,-251 215,-251"/>
<polygon fill="none" stroke="#8ccbf2" points="215,-251 215,-272 378,-272 378,-251 215,-251"/>
<text text-anchor="start" x="218" y="-258.8" font-family="mono" font-size="14.00" fill="#c83500">in</text>
<text text-anchor="start" x="235" y="-258.8" font-family="Times,serif" font-size="14.00" fill="#000000"> : </text>
<text text-anchor="start" x="247" y="-258.8" font-family="mono" font-size="14.00" fill="#c83500">string</text>
<polygon fill="#ddeeff" stroke="transparent" points="215,-230 215,-251 378,-251 378,-230 215,-230"/>
<polygon fill="none" stroke="#8ccbf2" points="215,-230 215,-251 378,-251 378,-230 215,-230"/>
<text text-anchor="start" x="218" y="-237.8" font-family="mono" font-size="14.00" fill="#c83500">name</text>
<text text-anchor="start" x="252" y="-237.8" font-family="Times,serif" font-size="14.00" fill="#000000"> : </text>
<text text-anchor="start" x="264" y="-237.8" font-family="mono" font-size="14.00" fill="#c83500">string</text>
</g>
<!-- BasicSecurityScheme&#45;&gt;SecurityScheme -->
<g id="edge3" class="edge">
<title>BasicSecurityScheme&#45;&gt;SecurityScheme</title>
<path fill="none" stroke="#000000" d="M339.4735,-226.4867C355.9652,-214.71 375.4903,-202.6644 395,-195 459.7384,-169.5675 643.3291,-146.0839 760.3919,-133.0822"/>
<polygon fill="#ffffff" stroke="#000000" points="760.8975,-136.5477 770.4534,-131.9723 760.1299,-129.5899 760.8975,-136.5477"/>
</g>
<!-- BearerSecurityScheme -->
<g id="node3" class="node">
<title>BearerSecurityScheme</title>
<polygon fill="#8ccbf2" stroke="transparent" points="412,-304 412,-325 588,-325 588,-304 412,-304"/>
<polygon fill="none" stroke="#8ccbf2" points="412,-304 412,-325 588,-325 588,-304 412,-304"/>
<text text-anchor="start" x="417" y="-311.8" font-family="mono" font-weight="bold" font-size="14.00" fill="#c83500">BearerSecurityScheme</text>
<polygon fill="#ddeeff" stroke="transparent" points="412,-283 412,-304 588,-304 588,-283 412,-283"/>
<polygon fill="none" stroke="#8ccbf2" points="412,-283 412,-304 588,-304 588,-283 412,-283"/>
<text text-anchor="start" x="415" y="-290.8" font-family="mono" font-size="14.00" fill="#c83500">alg</text>
<text text-anchor="start" x="440" y="-290.8" font-family="Times,serif" font-size="14.00" fill="#000000"> : </text>
<text text-anchor="start" x="452" y="-290.8" font-family="mono" font-size="14.00" fill="#c83500">string</text>
<polygon fill="#ddeeff" stroke="transparent" points="412,-262 412,-283 588,-283 588,-262 412,-262"/>
<polygon fill="none" stroke="#8ccbf2" points="412,-262 412,-283 588,-283 588,-262 412,-262"/>
<text text-anchor="start" x="415" y="-269.8" font-family="mono" font-size="14.00" fill="#c83500">authorization</text>
<text text-anchor="start" x="523" y="-269.8" font-family="Times,serif" font-size="14.00" fill="#000000"> : </text>
<text text-anchor="start" x="535" y="-269.8" font-family="mono" font-size="14.00" fill="#c83500">anyURI</text>
<polygon fill="#ddeeff" stroke="transparent" points="412,-241 412,-262 588,-262 588,-241 412,-241"/>
<polygon fill="none" stroke="#8ccbf2" points="412,-241 412,-262 588,-262 588,-241 412,-241"/>
<text text-anchor="start" x="415" y="-248.8" font-family="mono" font-size="14.00" fill="#c83500">format</text>
<text text-anchor="start" x="465" y="-248.8" font-family="Times,serif" font-size="14.00" fill="#000000"> : </text>
<text text-anchor="start" x="477" y="-248.8" font-family="mono" font-size="14.00" fill="#c83500">string</text>
<polygon fill="#ddeeff" stroke="transparent" points="412,-220 412,-241 588,-241 588,-220 412,-220"/>
<polygon fill="none" stroke="#8ccbf2" points="412,-220 412,-241 588,-241 588,-220 412,-220"/>
<text text-anchor="start" x="415" y="-227.8" font-family="mono" font-size="14.00" fill="#c83500">in</text>
<text text-anchor="start" x="432" y="-227.8" font-family="Times,serif" font-size="14.00" fill="#000000"> : </text>
<text text-anchor="start" x="444" y="-227.8" font-family="mono" font-size="14.00" fill="#c83500">string</text>
<polygon fill="#ddeeff" stroke="transparent" points="412,-199 412,-220 588,-220 588,-199 412,-199"/>
<polygon fill="none" stroke="#8ccbf2" points="412,-199 412,-220 588,-220 588,-199 412,-199"/>
<text text-anchor="start" x="415" y="-206.8" font-family="mono" font-size="14.00" fill="#c83500">name</text>
<text text-anchor="start" x="449" y="-206.8" font-family="Times,serif" font-size="14.00" fill="#000000"> : </text>
<text text-anchor="start" x="461" y="-206.8" font-family="mono" font-size="14.00" fill="#c83500">string</text>
</g>
<!-- BearerSecurityScheme&#45;&gt;SecurityScheme -->
<g id="edge4" class="edge">
<title>BearerSecurityScheme&#45;&gt;SecurityScheme</title>
<path fill="none" stroke="#000000" d="M596.0897,-199.1871C599.0655,-197.7256 602.0395,-196.3254 605,-195 654.3618,-172.9 712.0904,-155.9219 760.4102,-143.9708"/>
<polygon fill="#ffffff" stroke="#000000" points="761.3696,-147.3396 770.2572,-141.5723 759.7129,-140.5384 761.3696,-147.3396"/>
</g>
<!-- ComboSecurityScheme -->
<g id="node4" class="node">
<title>ComboSecurityScheme</title>
<polygon fill="#8ccbf2" stroke="transparent" points="623,-272 623,-293 864,-293 864,-272 623,-272"/>
<polygon fill="none" stroke="#8ccbf2" points="623,-272 623,-293 864,-293 864,-272 623,-272"/>
<text text-anchor="start" x="665" y="-279.8" font-family="mono" font-weight="bold" font-size="14.00" fill="#c83500">ComboSecurityScheme</text>
<polygon fill="#ddeeff" stroke="transparent" points="623,-251 623,-272 864,-272 864,-251 623,-251"/>
<polygon fill="none" stroke="#8ccbf2" points="623,-251 623,-272 864,-272 864,-251 623,-251"/>
<text text-anchor="start" x="626" y="-258.8" font-family="mono" font-size="14.00" fill="#c83500">oneOf</text>
<text text-anchor="start" x="668" y="-258.8" font-family="Times,serif" font-size="14.00" fill="#000000"> : (Array of) </text>
<text text-anchor="start" x="739" y="-258.8" font-family="mono" font-size="14.00" fill="#c83500">string</text>
<text text-anchor="start" x="789" y="-258.8" font-family="Times,serif" font-size="14.00" fill="#000000"> </text>
<text text-anchor="start" x="793" y="-258.8" font-family="Times,serif" font-style="italic" font-size="14.00" fill="#000000">(mandatory)</text>
<polygon fill="#ddeeff" stroke="transparent" points="623,-230 623,-251 864,-251 864,-230 623,-230"/>
<polygon fill="none" stroke="#8ccbf2" points="623,-230 623,-251 864,-251 864,-230 623,-230"/>
<text text-anchor="start" x="626" y="-237.8" font-family="mono" font-size="14.00" fill="#c83500">allOf</text>
<text text-anchor="start" x="668" y="-237.8" font-family="Times,serif" font-size="14.00" fill="#000000"> : (Array of) </text>
<text text-anchor="start" x="739" y="-237.8" font-family="mono" font-size="14.00" fill="#c83500">string</text>
<text text-anchor="start" x="789" y="-237.8" font-family="Times,serif" font-size="14.00" fill="#000000"> </text>
<text text-anchor="start" x="793" y="-237.8" font-family="Times,serif" font-style="italic" font-size="14.00" fill="#000000">(mandatory)</text>
</g>
<!-- ComboSecurityScheme&#45;&gt;SecurityScheme -->
<g id="edge5" class="edge">
<title>ComboSecurityScheme&#45;&gt;SecurityScheme</title>
<path fill="none" stroke="#000000" d="M773.5916,-226.4373C789.3375,-208.1327 808.6734,-185.6546 825.3309,-166.2903"/>
<polygon fill="#ffffff" stroke="#000000" points="828.1791,-168.3463 832.0471,-158.4828 822.8723,-163.7814 828.1791,-168.3463"/>
</g>
<!-- DigestSecurityScheme -->
<g id="node5" class="node">
<title>DigestSecurityScheme</title>
<polygon fill="#8ccbf2" stroke="transparent" points="898,-283 898,-304 1070,-304 1070,-283 898,-283"/>
<polygon fill="none" stroke="#8ccbf2" points="898,-283 898,-304 1070,-304 1070,-283 898,-283"/>
<text text-anchor="start" x="901" y="-290.8" font-family="mono" font-weight="bold" font-size="14.00" fill="#c83500">DigestSecurityScheme</text>
<polygon fill="#ddeeff" stroke="transparent" points="898,-262 898,-283 1070,-283 1070,-262 898,-262"/>
<polygon fill="none" stroke="#8ccbf2" points="898,-262 898,-283 1070,-283 1070,-262 898,-262"/>
<text text-anchor="start" x="901" y="-269.8" font-family="mono" font-size="14.00" fill="#c83500">in</text>
<text text-anchor="start" x="918" y="-269.8" font-family="Times,serif" font-size="14.00" fill="#000000"> : </text>
<text text-anchor="start" x="930" y="-269.8" font-family="mono" font-size="14.00" fill="#c83500">string</text>
<polygon fill="#ddeeff" stroke="transparent" points="898,-241 898,-262 1070,-262 1070,-241 898,-241"/>
<polygon fill="none" stroke="#8ccbf2" points="898,-241 898,-262 1070,-262 1070,-241 898,-241"/>
<text text-anchor="start" x="901" y="-248.8" font-family="mono" font-size="14.00" fill="#c83500">name</text>
<text text-anchor="start" x="935" y="-248.8" font-family="Times,serif" font-size="14.00" fill="#000000"> : </text>
<text text-anchor="start" x="947" y="-248.8" font-family="mono" font-size="14.00" fill="#c83500">string</text>
<polygon fill="#ddeeff" stroke="transparent" points="898,-220 898,-241 1070,-241 1070,-220 898,-220"/>
<polygon fill="none" stroke="#8ccbf2" points="898,-220 898,-241 1070,-241 1070,-220 898,-220"/>
<text text-anchor="start" x="901" y="-227.8" font-family="mono" font-size="14.00" fill="#c83500">qop</text>
<text text-anchor="start" x="926" y="-227.8" font-family="Times,serif" font-size="14.00" fill="#000000"> : </text>
<text text-anchor="start" x="938" y="-227.8" font-family="mono" font-size="14.00" fill="#c83500">string</text>
</g>
<!-- DigestSecurityScheme&#45;&gt;SecurityScheme -->
<g id="edge6" class="edge">
<title>DigestSecurityScheme&#45;&gt;SecurityScheme</title>
<path fill="none" stroke="#000000" d="M944.0447,-215.9359C930.0837,-199.8403 914.4664,-181.8352 900.6956,-165.959"/>
<polygon fill="#ffffff" stroke="#000000" points="903.2955,-163.6148 894.0991,-158.3539 898.0076,-168.2015 903.2955,-163.6148"/>
</g>
<!-- NoSecurityScheme -->
<g id="node6" class="node">
<title>NoSecurityScheme</title>
<polygon fill="#8ccbf2" stroke="transparent" points="1105,-251 1105,-272 1244,-272 1244,-251 1105,-251"/>
<polygon fill="none" stroke="#8ccbf2" points="1105,-251 1105,-272 1244,-272 1244,-251 1105,-251"/>
<text text-anchor="start" x="1108" y="-258.8" font-family="mono" font-weight="bold" font-size="14.00" fill="#c83500">NoSecurityScheme</text>
</g>
<!-- NoSecurityScheme&#45;&gt;SecurityScheme -->
<g id="edge7" class="edge">
<title>NoSecurityScheme&#45;&gt;SecurityScheme</title>
<path fill="none" stroke="#000000" d="M1154.6189,-243.904C1137.8232,-229.0353 1112.3031,-208.3225 1087,-195 1049.0729,-175.0308 1004.6324,-159.2564 965.3782,-147.5909"/>
<polygon fill="#ffffff" stroke="#000000" points="966.0973,-144.1549 955.5172,-144.7136 964.1365,-150.8747 966.0973,-144.1549"/>
</g>
<!-- OAuth2SecurityScheme -->
<g id="node7" class="node">
<title>OAuth2SecurityScheme</title>
<polygon fill="#8ccbf2" stroke="transparent" points="1278,-272 1278,-293 1455,-293 1455,-272 1278,-272"/>
<polygon fill="none" stroke="#8ccbf2" points="1278,-272 1278,-293 1455,-293 1455,-272 1278,-272"/>
<text text-anchor="start" x="1283.5" y="-279.8" font-family="mono" font-weight="bold" font-size="14.00" fill="#c83500">OAuth2SecurityScheme</text>
<polygon fill="#ddeeff" stroke="transparent" points="1278,-251 1278,-272 1455,-272 1455,-251 1278,-251"/>
<polygon fill="none" stroke="#8ccbf2" points="1278,-251 1278,-272 1455,-272 1455,-251 1278,-251"/>
<text text-anchor="start" x="1281" y="-258.8" font-family="mono" font-size="14.00" fill="#c83500">scopes</text>
<text text-anchor="start" x="1331" y="-258.8" font-family="Times,serif" font-size="14.00" fill="#000000"> : (Array of) </text>
<text text-anchor="start" x="1402" y="-258.8" font-family="mono" font-size="14.00" fill="#c83500">string</text>
<polygon fill="#ddeeff" stroke="transparent" points="1278,-230 1278,-251 1455,-251 1455,-230 1278,-230"/>
<polygon fill="none" stroke="#8ccbf2" points="1278,-230 1278,-251 1455,-251 1455,-230 1278,-230"/>
<text text-anchor="start" x="1281" y="-237.8" font-family="mono" font-size="14.00" fill="#c83500">flow</text>
<text text-anchor="start" x="1315" y="-237.8" font-family="Times,serif" font-size="14.00" fill="#000000"> : </text>
<text text-anchor="start" x="1327" y="-237.8" font-family="mono" font-size="14.00" fill="#c83500">string</text>
<text text-anchor="start" x="1377" y="-237.8" font-family="Times,serif" font-size="14.00" fill="#000000"> </text>
<text text-anchor="start" x="1381" y="-237.8" font-family="Times,serif" font-style="italic" font-size="14.00" fill="#000000">(mandatory)</text>
</g>
<!-- OAuth2SecurityScheme&#45;&gt;SecurityScheme -->
<g id="edge8" class="edge">
<title>OAuth2SecurityScheme&#45;&gt;SecurityScheme</title>
<path fill="none" stroke="#000000" d="M1318.2154,-226.3275C1300.685,-214.7519 1280.1791,-202.8767 1260,-195 1164.139,-157.5817 1047.5966,-139.2349 965.6576,-130.3926"/>
<polygon fill="#ffffff" stroke="#000000" points="965.9003,-126.899 955.5894,-129.3351 965.169,-133.8607 965.9003,-126.899"/>
</g>
<!-- PSKSecurityScheme -->
<g id="node8" class="node">
<title>PSKSecurityScheme</title>
<polygon fill="#8ccbf2" stroke="transparent" points="1489,-262 1489,-283 1636,-283 1636,-262 1489,-262"/>
<polygon fill="none" stroke="#8ccbf2" points="1489,-262 1489,-283 1636,-283 1636,-262 1489,-262"/>
<text text-anchor="start" x="1492" y="-269.8" font-family="mono" font-weight="bold" font-size="14.00" fill="#c83500">PSKSecurityScheme</text>
<polygon fill="#ddeeff" stroke="transparent" points="1489,-241 1489,-262 1636,-262 1636,-241 1489,-241"/>
<polygon fill="none" stroke="#8ccbf2" points="1489,-241 1489,-262 1636,-262 1636,-241 1489,-241"/>
<text text-anchor="start" x="1492" y="-248.8" font-family="mono" font-size="14.00" fill="#c83500">identity</text>
<text text-anchor="start" x="1559" y="-248.8" font-family="Times,serif" font-size="14.00" fill="#000000"> : </text>
<text text-anchor="start" x="1571" y="-248.8" font-family="mono" font-size="14.00" fill="#c83500">string</text>
</g>
<!-- PSKSecurityScheme&#45;&gt;SecurityScheme -->
<g id="edge9" class="edge">
<title>PSKSecurityScheme&#45;&gt;SecurityScheme</title>
<path fill="none" stroke="#000000" d="M1535.921,-236.7695C1519.0677,-222.0343 1495.8859,-204.5186 1472,-195 1382.3808,-159.2867 1114.4905,-137.8063 965.6146,-128.3036"/>
<polygon fill="#ffffff" stroke="#000000" points="965.7453,-124.805 955.5445,-127.6675 965.3039,-131.791 965.7453,-124.805"/>
</g>
<!-- MultiLanguage -->
<g id="node10" class="node">
<title>MultiLanguage</title>
<polygon fill="#f2f2f2" stroke="transparent" points="806,-7 806,-28 920,-28 920,-7 806,-7"/>
<polygon fill="none" stroke="#8c8c8c" points="806,-7 806,-28 920,-28 920,-7 806,-7"/>
<text text-anchor="start" x="809" y="-14.8" font-family="mono" font-weight="bold" font-size="14.00" fill="#000000">MultiLanguage</text>
</g>
<!-- SecurityScheme&#45;&gt;MultiLanguage -->
<g id="edge1" class="edge">
<title>SecurityScheme&#45;&gt;MultiLanguage</title>
<path fill="none" stroke="#000000" d="M863,-86.8293C863,-73.6588 863,-58.9205 863,-46.4714"/>
<polygon fill="#000000" stroke="#000000" points="866.5001,-46.2174 863,-36.2174 859.5001,-46.2175 866.5001,-46.2174"/>
<text text-anchor="start" x="863" y="-57.8" font-family="mono" font-size="14.00" fill="#c83500">descriptions</text>
<text text-anchor="middle" x="852" y="-40.0174" font-family="Times,serif" font-size="14.00" fill="#000000">0..*</text>
</g>
</g>
</svg>
