<?xml version="1.0" encoding="UTF-8" standalone="no"?>
<!DOCTYPE svg PUBLIC "-//W3C//DTD SVG 1.1//EN"
 "http://www.w3.org/Graphics/SVG/1.1/DTD/svg11.dtd">
<!-- Generated by graphviz version 9.0.0 (20230911.1827)
 -->
<!-- Pages: 1 -->
<svg width="1692pt" height="370pt"
 viewBox="0.00 0.00 1692.25 370.00" xmlns="http://www.w3.org/2000/svg" xmlns:xlink="http://www.w3.org/1999/xlink">
<g id="graph0" class="graph" transform="scale(1 1) rotate(0) translate(4 366)">
<polygon fill="white" stroke="none" points="-4,4 -4,-366 1688.25,-366 1688.25,4 -4,4"/>
<!-- APIKeySecurityScheme -->
<g id="node1" class="node">
<title>APIKeySecurityScheme</title>
<polygon fill="#8ccbf2" stroke="none" points="8,-303.25 8,-324.25 167,-324.25 167,-303.25 8,-303.25"/>
<polygon fill="none" stroke="#8ccbf2" points="8,-303.25 8,-324.25 167,-324.25 167,-303.25 8,-303.25"/>
<text text-anchor="start" x="11" y="-308.95" font-family="mono" font-weight="bold" font-size="14.00" fill="#c83500">APIKeySecurityScheme</text>
<polygon fill="#ddeeff" stroke="none" points="8,-280.75 8,-303.25 167,-303.25 167,-280.75 8,-280.75"/>
<polygon fill="none" stroke="#8ccbf2" points="8,-280.75 8,-303.25 167,-303.25 167,-280.75 8,-280.75"/>
<text text-anchor="start" x="11" y="-287.95" font-family="mono" font-size="14.00" fill="#c83500">name</text>
<text text-anchor="start" x="45.5" y="-287.95" font-family="Times,serif" font-size="14.00"> : </text>
<text text-anchor="start" x="56.75" y="-287.95" font-family="mono" font-size="14.00" fill="#c83500">string</text>
<polygon fill="#ddeeff" stroke="none" points="8,-258.25 8,-280.75 167,-280.75 167,-258.25 8,-258.25"/>
<polygon fill="none" stroke="#8ccbf2" points="8,-258.25 8,-280.75 167,-280.75 167,-258.25 8,-258.25"/>
<text text-anchor="start" x="11" y="-265.45" font-family="mono" font-size="14.00" fill="#c83500">in</text>
<text text-anchor="start" x="21.5" y="-265.45" font-family="Times,serif" font-size="14.00"> : </text>
<text text-anchor="start" x="32.75" y="-265.45" font-family="mono" font-size="14.00" fill="#c83500">string</text>
</g>
<!-- SecurityScheme -->
<g id="node10" class="node">
<title>SecurityScheme</title>
<polygon fill="#8ccbf2" stroke="none" points="778.25,-158.5 778.25,-179.5 926.75,-179.5 926.75,-158.5 778.25,-158.5"/>
<polygon fill="none" stroke="#8ccbf2" points="778.25,-158.5 778.25,-179.5 926.75,-179.5 926.75,-158.5 778.25,-158.5"/>
<text text-anchor="start" x="799.62" y="-164.2" font-family="mono" font-weight="bold" font-size="14.00" fill="#c83500">SecurityScheme</text>
<polygon fill="#ddeeff" stroke="none" points="778.25,-136 778.25,-158.5 926.75,-158.5 926.75,-136 778.25,-136"/>
<polygon fill="none" stroke="#8ccbf2" points="778.25,-136 778.25,-158.5 926.75,-158.5 926.75,-136 778.25,-136"/>
<text text-anchor="start" x="781.25" y="-143.2" font-family="mono" font-size="14.00" fill="#c83500">@type</text>
<text text-anchor="start" x="821" y="-143.2" font-family="Times,serif" font-size="14.00"> : </text>
<text text-anchor="start" x="832.25" y="-143.2" font-family="Times,serif" font-style="italic" font-size="14.00">(Array of) </text>
<text text-anchor="start" x="890.75" y="-143.2" font-family="mono" font-size="14.00" fill="#c83500">string</text>
<polygon fill="#ddeeff" stroke="none" points="778.25,-113.5 778.25,-136 926.75,-136 926.75,-113.5 778.25,-113.5"/>
<polygon fill="none" stroke="#8ccbf2" points="778.25,-113.5 778.25,-136 926.75,-136 926.75,-113.5 778.25,-113.5"/>
<text text-anchor="start" x="781.25" y="-120.7" font-family="mono" font-size="14.00" fill="#c83500">description</text>
<text text-anchor="start" x="846.5" y="-120.7" font-family="Times,serif" font-size="14.00"> : </text>
<text text-anchor="start" x="857.75" y="-120.7" font-family="mono" font-size="14.00" fill="#c83500">langString</text>
<polygon fill="#ddeeff" stroke="none" points="778.25,-91 778.25,-113.5 926.75,-113.5 926.75,-91 778.25,-91"/>
<polygon fill="none" stroke="#8ccbf2" points="778.25,-91 778.25,-113.5 926.75,-113.5 926.75,-91 778.25,-91"/>
<text text-anchor="start" x="781.25" y="-98.2" font-family="mono" font-size="14.00" fill="#c83500">proxy</text>
<text text-anchor="start" x="814.25" y="-98.2" font-family="Times,serif" font-size="14.00"> : </text>
<text text-anchor="start" x="825.5" y="-98.2" font-family="mono" font-size="14.00" fill="#c83500">anyURI</text>
</g>
<!-- APIKeySecurityScheme&#45;&gt;SecurityScheme -->
<g id="edge2" class="edge">
<title>APIKeySecurityScheme&#45;&gt;SecurityScheme</title>
<path fill="none" stroke="black" d="M127.77,-254.39C144.27,-241.63 164.23,-228.47 184.5,-220.5 287.09,-180.18 601.08,-153.54 759.3,-142.31"/>
<polygon fill="white" stroke="black" points="759.18,-145.83 768.91,-141.64 758.69,-138.85 759.18,-145.83"/>
</g>
<!-- AutoSecurityScheme -->
<g id="node2" class="node">
<title>AutoSecurityScheme</title>
<polygon fill="#8ccbf2" stroke="none" points="201.25,-280.75 201.25,-301.75 343.75,-301.75 343.75,-280.75 201.25,-280.75"/>
<polygon fill="none" stroke="#8ccbf2" points="201.25,-280.75 201.25,-301.75 343.75,-301.75 343.75,-280.75 201.25,-280.75"/>
<text text-anchor="start" x="204.25" y="-286.45" font-family="mono" font-weight="bold" font-size="14.00" fill="#c83500">AutoSecurityScheme</text>
</g>
<!-- AutoSecurityScheme&#45;&gt;SecurityScheme -->
<g id="edge3" class="edge">
<title>AutoSecurityScheme&#45;&gt;SecurityScheme</title>
<path fill="none" stroke="black" d="M288.33,-273.55C304.76,-257.28 332.02,-233.22 360.5,-220.5 490.93,-162.27 657.35,-144.1 759.36,-138.54"/>
<polygon fill="white" stroke="black" points="759.23,-142.05 769.04,-138.04 758.87,-135.06 759.23,-142.05"/>
</g>
<!-- BasicSecurityScheme -->
<g id="node3" class="node">
<title>BasicSecurityScheme</title>
<polygon fill="#8ccbf2" stroke="none" points="377.62,-303.25 377.62,-324.25 525.38,-324.25 525.38,-303.25 377.62,-303.25"/>
<polygon fill="none" stroke="#8ccbf2" points="377.62,-303.25 377.62,-324.25 525.38,-324.25 525.38,-303.25 377.62,-303.25"/>
<text text-anchor="start" x="380.62" y="-308.95" font-family="mono" font-weight="bold" font-size="14.00" fill="#c83500">BasicSecurityScheme</text>
<polygon fill="#ddeeff" stroke="none" points="377.62,-280.75 377.62,-303.25 525.38,-303.25 525.38,-280.75 377.62,-280.75"/>
<polygon fill="none" stroke="#8ccbf2" points="377.62,-280.75 377.62,-303.25 525.38,-303.25 525.38,-280.75 377.62,-280.75"/>
<text text-anchor="start" x="380.62" y="-287.95" font-family="mono" font-size="14.00" fill="#c83500">name</text>
<text text-anchor="start" x="415.12" y="-287.95" font-family="Times,serif" font-size="14.00"> : </text>
<text text-anchor="start" x="426.38" y="-287.95" font-family="mono" font-size="14.00" fill="#c83500">string</text>
<polygon fill="#ddeeff" stroke="none" points="377.62,-258.25 377.62,-280.75 525.38,-280.75 525.38,-258.25 377.62,-258.25"/>
<polygon fill="none" stroke="#8ccbf2" points="377.62,-258.25 377.62,-280.75 525.38,-280.75 525.38,-258.25 377.62,-258.25"/>
<text text-anchor="start" x="380.62" y="-265.45" font-family="mono" font-size="14.00" fill="#c83500">in</text>
<text text-anchor="start" x="391.12" y="-265.45" font-family="Times,serif" font-size="14.00"> : </text>
<text text-anchor="start" x="402.38" y="-265.45" font-family="mono" font-size="14.00" fill="#c83500">string</text>
</g>
<!-- BasicSecurityScheme&#45;&gt;SecurityScheme -->
<g id="edge4" class="edge">
<title>BasicSecurityScheme&#45;&gt;SecurityScheme</title>
<path fill="none" stroke="black" d="M491.37,-254.31C506.52,-242.16 524.48,-229.42 542.5,-220.5 611.34,-186.42 695.84,-164.63 759.22,-151.76"/>
<polygon fill="white" stroke="black" points="759.79,-155.22 768.92,-149.83 758.43,-148.35 759.79,-155.22"/>
</g>
<!-- BearerSecurityScheme -->
<g id="node4" class="node">
<title>BearerSecurityScheme</title>
<polygon fill="#8ccbf2" stroke="none" points="559.25,-337 559.25,-358 713.75,-358 713.75,-337 559.25,-337"/>
<polygon fill="none" stroke="#8ccbf2" points="559.25,-337 559.25,-358 713.75,-358 713.75,-337 559.25,-337"/>
<text text-anchor="start" x="562.25" y="-342.7" font-family="mono" font-weight="bold" font-size="14.00" fill="#c83500">BearerSecurityScheme</text>
<polygon fill="#ddeeff" stroke="none" points="559.25,-314.5 559.25,-337 713.75,-337 713.75,-314.5 559.25,-314.5"/>
<polygon fill="none" stroke="#8ccbf2" points="559.25,-314.5 559.25,-337 713.75,-337 713.75,-314.5 559.25,-314.5"/>
<text text-anchor="start" x="562.25" y="-321.7" font-family="mono" font-size="14.00" fill="#c83500">alg</text>
<text text-anchor="start" x="580.25" y="-321.7" font-family="Times,serif" font-size="14.00"> : </text>
<text text-anchor="start" x="591.5" y="-321.7" font-family="mono" font-size="14.00" fill="#c83500">string</text>
<polygon fill="#ddeeff" stroke="none" points="559.25,-292 559.25,-314.5 713.75,-314.5 713.75,-292 559.25,-292"/>
<polygon fill="none" stroke="#8ccbf2" points="559.25,-292 559.25,-314.5 713.75,-314.5 713.75,-292 559.25,-292"/>
<text text-anchor="start" x="562.25" y="-299.2" font-family="mono" font-size="14.00" fill="#c83500">name</text>
<text text-anchor="start" x="596.75" y="-299.2" font-family="Times,serif" font-size="14.00"> : </text>
<text text-anchor="start" x="608" y="-299.2" font-family="mono" font-size="14.00" fill="#c83500">string</text>
<polygon fill="#ddeeff" stroke="none" points="559.25,-269.5 559.25,-292 713.75,-292 713.75,-269.5 559.25,-269.5"/>
<polygon fill="none" stroke="#8ccbf2" points="559.25,-269.5 559.25,-292 713.75,-292 713.75,-269.5 559.25,-269.5"/>
<text text-anchor="start" x="562.25" y="-276.7" font-family="mono" font-size="14.00" fill="#c83500">authorization</text>
<text text-anchor="start" x="639.5" y="-276.7" font-family="Times,serif" font-size="14.00"> : </text>
<text text-anchor="start" x="650.75" y="-276.7" font-family="mono" font-size="14.00" fill="#c83500">anyURI</text>
<polygon fill="#ddeeff" stroke="none" points="559.25,-247 559.25,-269.5 713.75,-269.5 713.75,-247 559.25,-247"/>
<polygon fill="none" stroke="#8ccbf2" points="559.25,-247 559.25,-269.5 713.75,-269.5 713.75,-247 559.25,-247"/>
<text text-anchor="start" x="562.25" y="-254.2" font-family="mono" font-size="14.00" fill="#c83500">format</text>
<text text-anchor="start" x="601.25" y="-254.2" font-family="Times,serif" font-size="14.00"> : </text>
<text text-anchor="start" x="612.5" y="-254.2" font-family="mono" font-size="14.00" fill="#c83500">string</text>
<polygon fill="#ddeeff" stroke="none" points="559.25,-224.5 559.25,-247 713.75,-247 713.75,-224.5 559.25,-224.5"/>
<polygon fill="none" stroke="#8ccbf2" points="559.25,-224.5 559.25,-247 713.75,-247 713.75,-224.5 559.25,-224.5"/>
<text text-anchor="start" x="562.25" y="-231.7" font-family="mono" font-size="14.00" fill="#c83500">in</text>
<text text-anchor="start" x="572.75" y="-231.7" font-family="Times,serif" font-size="14.00"> : </text>
<text text-anchor="start" x="584" y="-231.7" font-family="mono" font-size="14.00" fill="#c83500">string</text>
</g>
<!-- BearerSecurityScheme&#45;&gt;SecurityScheme -->
<g id="edge5" class="edge">
<title>BearerSecurityScheme&#45;&gt;SecurityScheme</title>
<path fill="none" stroke="black" d="M721.62,-227.59C724.95,-225.19 728.25,-222.82 731.5,-220.5 745.42,-210.55 760.32,-200.04 774.74,-189.96"/>
<polygon fill="white" stroke="black" points="776.7,-192.87 782.9,-184.27 772.69,-187.13 776.7,-192.87"/>
</g>
<!-- ComboSecurityScheme -->
<g id="node5" class="node">
<title>ComboSecurityScheme</title>
<polygon fill="#8ccbf2" stroke="none" points="748.25,-303.25 748.25,-324.25 956.75,-324.25 956.75,-303.25 748.25,-303.25"/>
<polygon fill="none" stroke="#8ccbf2" points="748.25,-303.25 748.25,-324.25 956.75,-324.25 956.75,-303.25 748.25,-303.25"/>
<text text-anchor="start" x="776" y="-308.95" font-family="mono" font-weight="bold" font-size="14.00" fill="#c83500">ComboSecurityScheme</text>
<polygon fill="#ddeeff" stroke="none" points="748.25,-280.75 748.25,-303.25 956.75,-303.25 956.75,-280.75 748.25,-280.75"/>
<polygon fill="none" stroke="#8ccbf2" points="748.25,-280.75 748.25,-303.25 956.75,-303.25 956.75,-280.75 748.25,-280.75"/>
<text text-anchor="start" x="751.25" y="-287.95" font-family="mono" font-size="14.00" fill="#c83500">oneOf</text>
<text text-anchor="start" x="788.75" y="-287.95" font-family="Times,serif" font-size="14.00"> : Array of </text>
<text text-anchor="start" x="849.5" y="-287.95" font-family="mono" font-size="14.00" fill="#c83500">string</text>
<text text-anchor="start" x="882.5" y="-287.95" font-family="Times,serif" font-size="14.00"> </text>
<text text-anchor="start" x="886.25" y="-287.95" font-family="Times,serif" font-style="italic" font-size="14.00">(mandatory)</text>
<polygon fill="#ddeeff" stroke="none" points="748.25,-258.25 748.25,-280.75 956.75,-280.75 956.75,-258.25 748.25,-258.25"/>
<polygon fill="none" stroke="#8ccbf2" points="748.25,-258.25 748.25,-280.75 956.75,-280.75 956.75,-258.25 748.25,-258.25"/>
<text text-anchor="start" x="751.25" y="-265.45" font-family="mono" font-size="14.00" fill="#c83500">allOf</text>
<text text-anchor="start" x="779.75" y="-265.45" font-family="Times,serif" font-size="14.00"> : Array of </text>
<text text-anchor="start" x="840.5" y="-265.45" font-family="mono" font-size="14.00" fill="#c83500">string</text>
<text text-anchor="start" x="873.5" y="-265.45" font-family="Times,serif" font-size="14.00"> </text>
<text text-anchor="start" x="877.25" y="-265.45" font-family="Times,serif" font-style="italic" font-size="14.00">(mandatory)</text>
</g>
<!-- ComboSecurityScheme&#45;&gt;SecurityScheme -->
<g id="edge6" class="edge">
<title>ComboSecurityScheme&#45;&gt;SecurityScheme</title>
<path fill="none" stroke="black" d="M852.5,-254.53C852.5,-236.77 852.5,-214.85 852.5,-194.73"/>
<polygon fill="white" stroke="black" points="856,-194.96 852.5,-184.96 849,-194.96 856,-194.96"/>
</g>
<!-- DigestSecurityScheme -->
<g id="node6" class="node">
<title>DigestSecurityScheme</title>
<polygon fill="#8ccbf2" stroke="none" points="991,-314.5 991,-335.5 1144,-335.5 1144,-314.5 991,-314.5"/>
<polygon fill="none" stroke="#8ccbf2" points="991,-314.5 991,-335.5 1144,-335.5 1144,-314.5 991,-314.5"/>
<text text-anchor="start" x="994" y="-320.2" font-family="mono" font-weight="bold" font-size="14.00" fill="#c83500">DigestSecurityScheme</text>
<polygon fill="#ddeeff" stroke="none" points="991,-292 991,-314.5 1144,-314.5 1144,-292 991,-292"/>
<polygon fill="none" stroke="#8ccbf2" points="991,-292 991,-314.5 1144,-314.5 1144,-292 991,-292"/>
<text text-anchor="start" x="994" y="-299.2" font-family="mono" font-size="14.00" fill="#c83500">name</text>
<text text-anchor="start" x="1028.5" y="-299.2" font-family="Times,serif" font-size="14.00"> : </text>
<text text-anchor="start" x="1039.75" y="-299.2" font-family="mono" font-size="14.00" fill="#c83500">string</text>
<polygon fill="#ddeeff" stroke="none" points="991,-269.5 991,-292 1144,-292 1144,-269.5 991,-269.5"/>
<polygon fill="none" stroke="#8ccbf2" points="991,-269.5 991,-292 1144,-292 1144,-269.5 991,-269.5"/>
<text text-anchor="start" x="994" y="-276.7" font-family="mono" font-size="14.00" fill="#c83500">in</text>
<text text-anchor="start" x="1004.5" y="-276.7" font-family="Times,serif" font-size="14.00"> : </text>
<text text-anchor="start" x="1015.75" y="-276.7" font-family="mono" font-size="14.00" fill="#c83500">string</text>
<polygon fill="#ddeeff" stroke="none" points="991,-247 991,-269.5 1144,-269.5 1144,-247 991,-247"/>
<polygon fill="none" stroke="#8ccbf2" points="991,-247 991,-269.5 1144,-269.5 1144,-247 991,-247"/>
<text text-anchor="start" x="994" y="-254.2" font-family="mono" font-size="14.00" fill="#c83500">qop</text>
<text text-anchor="start" x="1016.5" y="-254.2" font-family="Times,serif" font-size="14.00"> : </text>
<text text-anchor="start" x="1027.75" y="-254.2" font-family="mono" font-size="14.00" fill="#c83500">string</text>
</g>
<!-- DigestSecurityScheme&#45;&gt;SecurityScheme -->
<g id="edge7" class="edge">
<title>DigestSecurityScheme&#45;&gt;SecurityScheme</title>
<path fill="none" stroke="black" d="M1004.49,-243.09C994.17,-235.48 983.57,-227.74 973.5,-220.5 959.6,-210.51 944.71,-199.99 930.3,-189.9"/>
<polygon fill="white" stroke="black" points="932.35,-187.07 922.15,-184.21 928.34,-192.81 932.35,-187.07"/>
</g>
<!-- NoSecurityScheme -->
<g id="node7" class="node">
<title>NoSecurityScheme</title>
<polygon fill="#8ccbf2" stroke="none" points="1177.62,-280.75 1177.62,-301.75 1307.38,-301.75 1307.38,-280.75 1177.62,-280.75"/>
<polygon fill="none" stroke="#8ccbf2" points="1177.62,-280.75 1177.62,-301.75 1307.38,-301.75 1307.38,-280.75 1177.62,-280.75"/>
<text text-anchor="start" x="1180.62" y="-286.45" font-family="mono" font-weight="bold" font-size="14.00" fill="#c83500">NoSecurityScheme</text>
</g>
<!-- NoSecurityScheme&#45;&gt;SecurityScheme -->
<g id="edge8" class="edge">
<title>NoSecurityScheme&#45;&gt;SecurityScheme</title>
<path fill="none" stroke="black" d="M1227.13,-273.47C1211.73,-257.63 1186.61,-234.29 1160.5,-220.5 1092.99,-184.84 1008.97,-163.17 945.74,-150.75"/>
<polygon fill="white" stroke="black" points="946.56,-147.34 936.07,-148.9 945.24,-154.21 946.56,-147.34"/>
</g>
<!-- OAuth2SecurityScheme -->
<g id="node8" class="node">
<title>OAuth2SecurityScheme</title>
<polygon fill="#8ccbf2" stroke="none" points="1341.88,-337 1341.88,-358 1503.12,-358 1503.12,-337 1341.88,-337"/>
<polygon fill="none" stroke="#8ccbf2" points="1341.88,-337 1341.88,-358 1503.12,-358 1503.12,-337 1341.88,-337"/>
<text text-anchor="start" x="1344.88" y="-342.7" font-family="mono" font-weight="bold" font-size="14.00" fill="#c83500">OAuth2SecurityScheme</text>
<polygon fill="#ddeeff" stroke="none" points="1341.88,-314.5 1341.88,-337 1503.12,-337 1503.12,-314.5 1341.88,-314.5"/>
<polygon fill="none" stroke="#8ccbf2" points="1341.88,-314.5 1341.88,-337 1503.12,-337 1503.12,-314.5 1341.88,-314.5"/>
<text text-anchor="start" x="1344.88" y="-321.7" font-family="mono" font-size="14.00" fill="#c83500">flow</text>
<text text-anchor="start" x="1368.88" y="-321.7" font-family="Times,serif" font-size="14.00"> : </text>
<text text-anchor="start" x="1380.12" y="-321.7" font-family="mono" font-size="14.00" fill="#c83500">string</text>
<text text-anchor="start" x="1413.12" y="-321.7" font-family="Times,serif" font-size="14.00"> </text>
<text text-anchor="start" x="1416.88" y="-321.7" font-family="Times,serif" font-style="italic" font-size="14.00">(mandatory)</text>
<polygon fill="#ddeeff" stroke="none" points="1341.88,-292 1341.88,-314.5 1503.12,-314.5 1503.12,-292 1341.88,-292"/>
<polygon fill="none" stroke="#8ccbf2" points="1341.88,-292 1341.88,-314.5 1503.12,-314.5 1503.12,-292 1341.88,-292"/>
<text text-anchor="start" x="1344.88" y="-299.2" font-family="mono" font-size="14.00" fill="#c83500">authorization</text>
<text text-anchor="start" x="1422.12" y="-299.2" font-family="Times,serif" font-size="14.00"> : </text>
<text text-anchor="start" x="1433.38" y="-299.2" font-family="mono" font-size="14.00" fill="#c83500">anyURI</text>
<polygon fill="#ddeeff" stroke="none" points="1341.88,-269.5 1341.88,-292 1503.12,-292 1503.12,-269.5 1341.88,-269.5"/>
<polygon fill="none" stroke="#8ccbf2" points="1341.88,-269.5 1341.88,-292 1503.12,-292 1503.12,-269.5 1341.88,-269.5"/>
<text text-anchor="start" x="1344.88" y="-276.7" font-family="mono" font-size="14.00" fill="#c83500">token</text>
<text text-anchor="start" x="1377.88" y="-276.7" font-family="Times,serif" font-size="14.00"> : </text>
<text text-anchor="start" x="1389.12" y="-276.7" font-family="mono" font-size="14.00" fill="#c83500">anyURI</text>
<polygon fill="#ddeeff" stroke="none" points="1341.88,-247 1341.88,-269.5 1503.12,-269.5 1503.12,-247 1341.88,-247"/>
<polygon fill="none" stroke="#8ccbf2" points="1341.88,-247 1341.88,-269.5 1503.12,-269.5 1503.12,-247 1341.88,-247"/>
<text text-anchor="start" x="1344.88" y="-254.2" font-family="mono" font-size="14.00" fill="#c83500">refresh</text>
<text text-anchor="start" x="1386.88" y="-254.2" font-family="Times,serif" font-size="14.00"> : </text>
<text text-anchor="start" x="1398.12" y="-254.2" font-family="mono" font-size="14.00" fill="#c83500">anyURI</text>
<polygon fill="#ddeeff" stroke="none" points="1341.88,-224.5 1341.88,-247 1503.12,-247 1503.12,-224.5 1341.88,-224.5"/>
<polygon fill="none" stroke="#8ccbf2" points="1341.88,-224.5 1341.88,-247 1503.12,-247 1503.12,-224.5 1341.88,-224.5"/>
<text text-anchor="start" x="1344.88" y="-231.7" font-family="mono" font-size="14.00" fill="#c83500">scopes</text>
<text text-anchor="start" x="1387.62" y="-231.7" font-family="Times,serif" font-size="14.00"> : (Array of) </text>
<text text-anchor="start" x="1458.12" y="-231.7" font-family="mono" font-size="14.00" fill="#c83500">string</text>
</g>
<!-- OAuth2SecurityScheme&#45;&gt;SecurityScheme -->
<g id="edge9" class="edge">
<title>OAuth2SecurityScheme&#45;&gt;SecurityScheme</title>
<path fill="none" stroke="black" d="M1334.01,-224.84C1330.85,-223.29 1327.68,-221.83 1324.5,-220.5 1199.92,-168.18 1043.56,-148.34 945.81,-140.82"/>
<polygon fill="white" stroke="black" points="946.22,-137.34 935.99,-140.1 945.7,-144.32 946.22,-137.34"/>
</g>
<!-- PSKSecurityScheme -->
<g id="node9" class="node">
<title>PSKSecurityScheme</title>
<polygon fill="#8ccbf2" stroke="none" points="1536.75,-292 1536.75,-313 1676.25,-313 1676.25,-292 1536.75,-292"/>
<polygon fill="none" stroke="#8ccbf2" points="1536.75,-292 1536.75,-313 1676.25,-313 1676.25,-292 1536.75,-292"/>
<text text-anchor="start" x="1539.75" y="-297.7" font-family="mono" font-weight="bold" font-size="14.00" fill="#c83500">PSKSecurityScheme</text>
<polygon fill="#ddeeff" stroke="none" points="1536.75,-269.5 1536.75,-292 1676.25,-292 1676.25,-269.5 1536.75,-269.5"/>
<polygon fill="none" stroke="#8ccbf2" points="1536.75,-269.5 1536.75,-292 1676.25,-292 1676.25,-269.5 1536.75,-269.5"/>
<text text-anchor="start" x="1539.75" y="-276.7" font-family="mono" font-size="14.00" fill="#c83500">identity</text>
<text text-anchor="start" x="1582.5" y="-276.7" font-family="Times,serif" font-size="14.00"> : </text>
<text text-anchor="start" x="1593.75" y="-276.7" font-family="mono" font-size="14.00" fill="#c83500">string</text>
</g>
<!-- PSKSecurityScheme&#45;&gt;SecurityScheme -->
<g id="edge10" class="edge">
<title>PSKSecurityScheme&#45;&gt;SecurityScheme</title>
<path fill="none" stroke="black" d="M1583.73,-265.75C1567.65,-250.09 1544.72,-230.84 1520.5,-220.5 1419.06,-177.2 1104.16,-151.95 945.64,-141.68"/>
<polygon fill="white" stroke="black" points="946.22,-138.21 936.02,-141.06 945.77,-145.19 946.22,-138.21"/>
</g>
<!-- MultiLanguage -->
<g id="node11" class="node">
<title>MultiLanguage</title>
<polygon fill="#f2f2f2" stroke="none" points="801.5,-7.5 801.5,-28.5 903.5,-28.5 903.5,-7.5 801.5,-7.5"/>
<polygon fill="none" stroke="#8c8c8c" points="801.5,-7.5 801.5,-28.5 903.5,-28.5 903.5,-7.5 801.5,-7.5"/>
<text text-anchor="start" x="804.5" y="-13.2" font-family="mono" font-weight="bold" font-size="14.00">MultiLanguage</text>
</g>
<!-- SecurityScheme&#45;&gt;MultiLanguage -->
<g id="edge1" class="edge">
<title>SecurityScheme&#45;&gt;MultiLanguage</title>
<path fill="none" stroke="black" d="M852.5,-87.04C852.5,-73.57 852.5,-59.31 852.5,-47.35"/>
<polygon fill="black" stroke="black" points="856,-47.35 852.5,-37.35 849,-47.35 856,-47.35"/>
<text text-anchor="start" x="852.5" y="-55.7" font-family="mono" font-size="14.00" fill="#c83500">descriptions</text>
<text text-anchor="middle" x="842" y="-39.04" font-family="Times,serif" font-size="14.00">0..*</text>
</g>
</g>
</svg>
