<?xml version="1.0" encoding="UTF-8" standalone="no"?>
<!DOCTYPE svg PUBLIC "-//W3C//DTD SVG 1.1//EN"
 "http://www.w3.org/Graphics/SVG/1.1/DTD/svg11.dtd">
<!-- Generated by graphviz version 10.0.1 (0)
 -->
<!-- Pages: 1 -->
<svg width="1819pt" height="408pt"
 viewBox="0.00 0.00 1818.62 407.50" xmlns="http://www.w3.org/2000/svg" xmlns:xlink="http://www.w3.org/1999/xlink">
<g id="graph0" class="graph" transform="scale(1 1) rotate(0) translate(4 403.5)">
<polygon fill="white" stroke="none" points="-4,4 -4,-403.5 1814.62,-403.5 1814.62,4 -4,4"/>
<!-- APIKeySecurityScheme -->
<g id="node1" class="node">
<title>APIKeySecurityScheme</title>
<polygon fill="#8ccbf2" stroke="none" points="8,-331.75 8,-357.25 179,-357.25 179,-331.75 8,-331.75"/>
<polygon fill="none" stroke="#8ccbf2" points="8,-331.75 8,-357.25 179,-357.25 179,-331.75 8,-331.75"/>
<text text-anchor="start" x="11" y="-341.95" font-family="mono" font-weight="bold" font-size="14.00" fill="#c83500">APIKeySecurityScheme</text>
<polygon fill="#ddeeff" stroke="none" points="8,-306.25 8,-331.75 179,-331.75 179,-306.25 8,-306.25"/>
<polygon fill="none" stroke="#8ccbf2" points="8,-306.25 8,-331.75 179,-331.75 179,-306.25 8,-306.25"/>
<text text-anchor="start" x="11" y="-316.45" font-family="mono" font-size="14.00" fill="#c83500">name</text>
<text text-anchor="start" x="44" y="-316.45" font-family="Times,serif" font-size="14.00"> : </text>
<text text-anchor="start" x="55.25" y="-316.45" font-family="mono" font-size="14.00" fill="#c83500">string</text>
<polygon fill="#ddeeff" stroke="none" points="8,-280.75 8,-306.25 179,-306.25 179,-280.75 8,-280.75"/>
<polygon fill="none" stroke="#8ccbf2" points="8,-280.75 8,-306.25 179,-306.25 179,-280.75 8,-280.75"/>
<text text-anchor="start" x="11" y="-290.95" font-family="mono" font-size="14.00" fill="#c83500">in</text>
<text text-anchor="start" x="27.5" y="-290.95" font-family="Times,serif" font-size="14.00"> : </text>
<text text-anchor="start" x="38.75" y="-290.95" font-family="mono" font-size="14.00" fill="#c83500">string</text>
</g>
<!-- SecurityScheme -->
<g id="node10" class="node">
<title>SecurityScheme</title>
<polygon fill="#8ccbf2" stroke="none" points="825.25,-172 825.25,-197.5 1015.75,-197.5 1015.75,-172 825.25,-172"/>
<polygon fill="none" stroke="#8ccbf2" points="825.25,-172 825.25,-197.5 1015.75,-197.5 1015.75,-172 825.25,-172"/>
<text text-anchor="start" x="862.75" y="-182.2" font-family="mono" font-weight="bold" font-size="14.00" fill="#c83500">SecurityScheme</text>
<polygon fill="#ddeeff" stroke="none" points="825.25,-146.5 825.25,-172 1015.75,-172 1015.75,-146.5 825.25,-146.5"/>
<polygon fill="none" stroke="#8ccbf2" points="825.25,-146.5 825.25,-172 1015.75,-172 1015.75,-146.5 825.25,-146.5"/>
<text text-anchor="start" x="828.25" y="-156.7" font-family="mono" font-size="14.00" fill="#c83500">@type</text>
<text text-anchor="start" x="869.5" y="-156.7" font-family="Times,serif" font-size="14.00"> : </text>
<text text-anchor="start" x="880.75" y="-156.7" font-family="Times,serif" font-style="italic" font-size="14.00">(Array of) </text>
<text text-anchor="start" x="939.25" y="-156.7" font-family="mono" font-size="14.00" fill="#c83500">string</text>
<polygon fill="#ddeeff" stroke="none" points="825.25,-121 825.25,-146.5 1015.75,-146.5 1015.75,-121 825.25,-121"/>
<polygon fill="none" stroke="#8ccbf2" points="825.25,-121 825.25,-146.5 1015.75,-146.5 1015.75,-121 825.25,-121"/>
<text text-anchor="start" x="828.25" y="-131.2" font-family="mono" font-size="14.00" fill="#c83500">description</text>
<text text-anchor="start" x="919" y="-131.2" font-family="Times,serif" font-size="14.00"> : </text>
<text text-anchor="start" x="930.25" y="-131.2" font-family="mono" font-size="14.00" fill="#c83500">langString</text>
<polygon fill="#ddeeff" stroke="none" points="825.25,-95.5 825.25,-121 1015.75,-121 1015.75,-95.5 825.25,-95.5"/>
<polygon fill="none" stroke="#8ccbf2" points="825.25,-95.5 825.25,-121 1015.75,-121 1015.75,-95.5 825.25,-95.5"/>
<text text-anchor="start" x="828.25" y="-105.7" font-family="mono" font-size="14.00" fill="#c83500">proxy</text>
<text text-anchor="start" x="869.5" y="-105.7" font-family="Times,serif" font-size="14.00"> : </text>
<text text-anchor="start" x="880.75" y="-105.7" font-family="mono" font-size="14.00" fill="#c83500">anyURI</text>
</g>
<!-- APIKeySecurityScheme&#45;&gt;SecurityScheme -->
<g id="edge2" class="edge">
<title>APIKeySecurityScheme&#45;&gt;SecurityScheme</title>
<path fill="none" stroke="black" d="M135.85,-277.09C153.31,-262.54 174.57,-247.54 196.5,-238.5 304.15,-194.1 630.55,-166.54 806.01,-154.53"/>
<polygon fill="white" stroke="black" points="806.1,-158.03 815.84,-153.87 805.62,-151.05 806.1,-158.03"/>
</g>
<!-- AutoSecurityScheme -->
<g id="node2" class="node">
<title>AutoSecurityScheme</title>
<polygon fill="#8ccbf2" stroke="none" points="213.25,-306.25 213.25,-331.75 367.75,-331.75 367.75,-306.25 213.25,-306.25"/>
<polygon fill="none" stroke="#8ccbf2" points="213.25,-306.25 213.25,-331.75 367.75,-331.75 367.75,-306.25 213.25,-306.25"/>
<text text-anchor="start" x="216.25" y="-316.45" font-family="mono" font-weight="bold" font-size="14.00" fill="#c83500">AutoSecurityScheme</text>
</g>
<!-- AutoSecurityScheme&#45;&gt;SecurityScheme -->
<g id="edge3" class="edge">
<title>AutoSecurityScheme&#45;&gt;SecurityScheme</title>
<path fill="none" stroke="black" d="M305.14,-301.31C322.4,-282.8 352.89,-253.56 385.5,-238.5 521.22,-175.82 694.24,-155.88 806.17,-149.78"/>
<polygon fill="white" stroke="black" points="806.16,-153.28 815.97,-149.28 805.8,-146.29 806.16,-153.28"/>
</g>
<!-- BasicSecurityScheme -->
<g id="node3" class="node">
<title>BasicSecurityScheme</title>
<polygon fill="#8ccbf2" stroke="none" points="402.12,-331.75 402.12,-357.25 564.88,-357.25 564.88,-331.75 402.12,-331.75"/>
<polygon fill="none" stroke="#8ccbf2" points="402.12,-331.75 402.12,-357.25 564.88,-357.25 564.88,-331.75 402.12,-331.75"/>
<text text-anchor="start" x="405.12" y="-341.95" font-family="mono" font-weight="bold" font-size="14.00" fill="#c83500">BasicSecurityScheme</text>
<polygon fill="#ddeeff" stroke="none" points="402.12,-306.25 402.12,-331.75 564.88,-331.75 564.88,-306.25 402.12,-306.25"/>
<polygon fill="none" stroke="#8ccbf2" points="402.12,-306.25 402.12,-331.75 564.88,-331.75 564.88,-306.25 402.12,-306.25"/>
<text text-anchor="start" x="405.12" y="-316.45" font-family="mono" font-size="14.00" fill="#c83500">in</text>
<text text-anchor="start" x="421.62" y="-316.45" font-family="Times,serif" font-size="14.00"> : </text>
<text text-anchor="start" x="432.88" y="-316.45" font-family="mono" font-size="14.00" fill="#c83500">string</text>
<polygon fill="#ddeeff" stroke="none" points="402.12,-280.75 402.12,-306.25 564.88,-306.25 564.88,-280.75 402.12,-280.75"/>
<polygon fill="none" stroke="#8ccbf2" points="402.12,-280.75 402.12,-306.25 564.88,-306.25 564.88,-280.75 402.12,-280.75"/>
<text text-anchor="start" x="405.12" y="-290.95" font-family="mono" font-size="14.00" fill="#c83500">name</text>
<text text-anchor="start" x="438.12" y="-290.95" font-family="Times,serif" font-size="14.00"> : </text>
<text text-anchor="start" x="449.38" y="-290.95" font-family="mono" font-size="14.00" fill="#c83500">string</text>
</g>
<!-- BasicSecurityScheme&#45;&gt;SecurityScheme -->
<g id="edge4" class="edge">
<title>BasicSecurityScheme&#45;&gt;SecurityScheme</title>
<path fill="none" stroke="black" d="M526.1,-276.92C542.38,-263.05 561.79,-248.56 581.5,-238.5 652.07,-202.49 738.39,-179.58 806.27,-165.76"/>
<polygon fill="white" stroke="black" points="806.82,-169.22 815.95,-163.83 805.45,-162.35 806.82,-169.22"/>
</g>
<!-- BearerSecurityScheme -->
<g id="node4" class="node">
<title>BearerSecurityScheme</title>
<polygon fill="#8ccbf2" stroke="none" points="598.5,-370 598.5,-395.5 772.5,-395.5 772.5,-370 598.5,-370"/>
<polygon fill="none" stroke="#8ccbf2" points="598.5,-370 598.5,-395.5 772.5,-395.5 772.5,-370 598.5,-370"/>
<text text-anchor="start" x="603" y="-380.2" font-family="mono" font-weight="bold" font-size="14.00" fill="#c83500">BearerSecurityScheme</text>
<polygon fill="#ddeeff" stroke="none" points="598.5,-344.5 598.5,-370 772.5,-370 772.5,-344.5 598.5,-344.5"/>
<polygon fill="none" stroke="#8ccbf2" points="598.5,-344.5 598.5,-370 772.5,-370 772.5,-344.5 598.5,-344.5"/>
<text text-anchor="start" x="601.5" y="-354.7" font-family="mono" font-size="14.00" fill="#c83500">in</text>
<text text-anchor="start" x="618" y="-354.7" font-family="Times,serif" font-size="14.00"> : </text>
<text text-anchor="start" x="629.25" y="-354.7" font-family="mono" font-size="14.00" fill="#c83500">string</text>
<polygon fill="#ddeeff" stroke="none" points="598.5,-319 598.5,-344.5 772.5,-344.5 772.5,-319 598.5,-319"/>
<polygon fill="none" stroke="#8ccbf2" points="598.5,-319 598.5,-344.5 772.5,-344.5 772.5,-319 598.5,-319"/>
<text text-anchor="start" x="601.5" y="-329.2" font-family="mono" font-size="14.00" fill="#c83500">name</text>
<text text-anchor="start" x="634.5" y="-329.2" font-family="Times,serif" font-size="14.00"> : </text>
<text text-anchor="start" x="645.75" y="-329.2" font-family="mono" font-size="14.00" fill="#c83500">string</text>
<polygon fill="#ddeeff" stroke="none" points="598.5,-293.5 598.5,-319 772.5,-319 772.5,-293.5 598.5,-293.5"/>
<polygon fill="none" stroke="#8ccbf2" points="598.5,-293.5 598.5,-319 772.5,-319 772.5,-293.5 598.5,-293.5"/>
<text text-anchor="start" x="601.5" y="-303.7" font-family="mono" font-size="14.00" fill="#c83500">alg</text>
<text text-anchor="start" x="626.25" y="-303.7" font-family="Times,serif" font-size="14.00"> : </text>
<text text-anchor="start" x="637.5" y="-303.7" font-family="mono" font-size="14.00" fill="#c83500">string</text>
<polygon fill="#ddeeff" stroke="none" points="598.5,-268 598.5,-293.5 772.5,-293.5 772.5,-268 598.5,-268"/>
<polygon fill="none" stroke="#8ccbf2" points="598.5,-268 598.5,-293.5 772.5,-293.5 772.5,-268 598.5,-268"/>
<text text-anchor="start" x="601.5" y="-278.2" font-family="mono" font-size="14.00" fill="#c83500">authorization</text>
<text text-anchor="start" x="708.75" y="-278.2" font-family="Times,serif" font-size="14.00"> : </text>
<text text-anchor="start" x="720" y="-278.2" font-family="mono" font-size="14.00" fill="#c83500">anyURI</text>
<polygon fill="#ddeeff" stroke="none" points="598.5,-242.5 598.5,-268 772.5,-268 772.5,-242.5 598.5,-242.5"/>
<polygon fill="none" stroke="#8ccbf2" points="598.5,-242.5 598.5,-268 772.5,-268 772.5,-242.5 598.5,-242.5"/>
<text text-anchor="start" x="601.5" y="-252.7" font-family="mono" font-size="14.00" fill="#c83500">format</text>
<text text-anchor="start" x="651" y="-252.7" font-family="Times,serif" font-size="14.00"> : </text>
<text text-anchor="start" x="662.25" y="-252.7" font-family="mono" font-size="14.00" fill="#c83500">string</text>
</g>
<!-- BearerSecurityScheme&#45;&gt;SecurityScheme -->
<g id="edge5" class="edge">
<title>BearerSecurityScheme&#45;&gt;SecurityScheme</title>
<path fill="none" stroke="black" d="M780.3,-245.25C783.4,-242.96 786.47,-240.71 789.5,-238.5 803.27,-228.46 817.98,-218 832.4,-207.88"/>
<polygon fill="white" stroke="black" points="834.38,-210.76 840.57,-202.16 830.37,-205.03 834.38,-210.76"/>
</g>
<!-- ComboSecurityScheme -->
<g id="node5" class="node">
<title>ComboSecurityScheme</title>
<polygon fill="#8ccbf2" stroke="none" points="806.12,-331.75 806.12,-357.25 1034.88,-357.25 1034.88,-331.75 806.12,-331.75"/>
<polygon fill="none" stroke="#8ccbf2" points="806.12,-331.75 806.12,-357.25 1034.88,-357.25 1034.88,-331.75 806.12,-331.75"/>
<text text-anchor="start" x="842.12" y="-341.95" font-family="mono" font-weight="bold" font-size="14.00" fill="#c83500">ComboSecurityScheme</text>
<polygon fill="#ddeeff" stroke="none" points="806.12,-306.25 806.12,-331.75 1034.88,-331.75 1034.88,-306.25 806.12,-306.25"/>
<polygon fill="none" stroke="#8ccbf2" points="806.12,-306.25 806.12,-331.75 1034.88,-331.75 1034.88,-306.25 806.12,-306.25"/>
<text text-anchor="start" x="809.12" y="-316.45" font-family="mono" font-size="14.00" fill="#c83500">oneOf</text>
<text text-anchor="start" x="850.38" y="-316.45" font-family="Times,serif" font-size="14.00"> : Array of </text>
<text text-anchor="start" x="911.12" y="-316.45" font-family="mono" font-size="14.00" fill="#c83500">string</text>
<text text-anchor="start" x="960.62" y="-316.45" font-family="Times,serif" font-size="14.00"> </text>
<text text-anchor="start" x="964.38" y="-316.45" font-family="Times,serif" font-style="italic" font-size="14.00">(mandatory)</text>
<polygon fill="#ddeeff" stroke="none" points="806.12,-280.75 806.12,-306.25 1034.88,-306.25 1034.88,-280.75 806.12,-280.75"/>
<polygon fill="none" stroke="#8ccbf2" points="806.12,-280.75 806.12,-306.25 1034.88,-306.25 1034.88,-280.75 806.12,-280.75"/>
<text text-anchor="start" x="809.12" y="-290.95" font-family="mono" font-size="14.00" fill="#c83500">allOf</text>
<text text-anchor="start" x="850.38" y="-290.95" font-family="Times,serif" font-size="14.00"> : Array of </text>
<text text-anchor="start" x="911.12" y="-290.95" font-family="mono" font-size="14.00" fill="#c83500">string</text>
<text text-anchor="start" x="960.62" y="-290.95" font-family="Times,serif" font-size="14.00"> </text>
<text text-anchor="start" x="964.38" y="-290.95" font-family="Times,serif" font-style="italic" font-size="14.00">(mandatory)</text>
</g>
<!-- ComboSecurityScheme&#45;&gt;SecurityScheme -->
<g id="edge6" class="edge">
<title>ComboSecurityScheme&#45;&gt;SecurityScheme</title>
<path fill="none" stroke="black" d="M920.5,-277.16C920.5,-257.87 920.5,-234.37 920.5,-212.7"/>
<polygon fill="white" stroke="black" points="924,-212.75 920.5,-202.75 917,-212.75 924,-212.75"/>
</g>
<!-- DigestSecurityScheme -->
<g id="node6" class="node">
<title>DigestSecurityScheme</title>
<polygon fill="#8ccbf2" stroke="none" points="1069,-344.5 1069,-370 1240,-370 1240,-344.5 1069,-344.5"/>
<polygon fill="none" stroke="#8ccbf2" points="1069,-344.5 1069,-370 1240,-370 1240,-344.5 1069,-344.5"/>
<text text-anchor="start" x="1072" y="-354.7" font-family="mono" font-weight="bold" font-size="14.00" fill="#c83500">DigestSecurityScheme</text>
<polygon fill="#ddeeff" stroke="none" points="1069,-319 1069,-344.5 1240,-344.5 1240,-319 1069,-319"/>
<polygon fill="none" stroke="#8ccbf2" points="1069,-319 1069,-344.5 1240,-344.5 1240,-319 1069,-319"/>
<text text-anchor="start" x="1072" y="-329.2" font-family="mono" font-size="14.00" fill="#c83500">in</text>
<text text-anchor="start" x="1088.5" y="-329.2" font-family="Times,serif" font-size="14.00"> : </text>
<text text-anchor="start" x="1099.75" y="-329.2" font-family="mono" font-size="14.00" fill="#c83500">string</text>
<polygon fill="#ddeeff" stroke="none" points="1069,-293.5 1069,-319 1240,-319 1240,-293.5 1069,-293.5"/>
<polygon fill="none" stroke="#8ccbf2" points="1069,-293.5 1069,-319 1240,-319 1240,-293.5 1069,-293.5"/>
<text text-anchor="start" x="1072" y="-303.7" font-family="mono" font-size="14.00" fill="#c83500">name</text>
<text text-anchor="start" x="1105" y="-303.7" font-family="Times,serif" font-size="14.00"> : </text>
<text text-anchor="start" x="1116.25" y="-303.7" font-family="mono" font-size="14.00" fill="#c83500">string</text>
<polygon fill="#ddeeff" stroke="none" points="1069,-268 1069,-293.5 1240,-293.5 1240,-268 1069,-268"/>
<polygon fill="none" stroke="#8ccbf2" points="1069,-268 1069,-293.5 1240,-293.5 1240,-268 1069,-268"/>
<text text-anchor="start" x="1072" y="-278.2" font-family="mono" font-size="14.00" fill="#c83500">qop</text>
<text text-anchor="start" x="1096.75" y="-278.2" font-family="Times,serif" font-size="14.00"> : </text>
<text text-anchor="start" x="1108" y="-278.2" font-family="mono" font-size="14.00" fill="#c83500">string</text>
</g>
<!-- DigestSecurityScheme&#45;&gt;SecurityScheme -->
<g id="edge7" class="edge">
<title>DigestSecurityScheme&#45;&gt;SecurityScheme</title>
<path fill="none" stroke="black" d="M1085.61,-264.06C1074.28,-255.42 1062.62,-246.64 1051.5,-238.5 1037.85,-228.5 1023.25,-218.09 1008.93,-208.03"/>
<polygon fill="white" stroke="black" points="1011.02,-205.22 1000.82,-202.35 1007,-210.95 1011.02,-205.22"/>
</g>
<!-- NoSecurityScheme -->
<g id="node7" class="node">
<title>NoSecurityScheme</title>
<polygon fill="#8ccbf2" stroke="none" points="1274.5,-306.25 1274.5,-331.75 1412.5,-331.75 1412.5,-306.25 1274.5,-306.25"/>
<polygon fill="none" stroke="#8ccbf2" points="1274.5,-306.25 1274.5,-331.75 1412.5,-331.75 1412.5,-306.25 1274.5,-306.25"/>
<text text-anchor="start" x="1277.5" y="-316.45" font-family="mono" font-weight="bold" font-size="14.00" fill="#c83500">NoSecurityScheme</text>
</g>
<!-- NoSecurityScheme&#45;&gt;SecurityScheme -->
<g id="edge8" class="edge">
<title>NoSecurityScheme&#45;&gt;SecurityScheme</title>
<path fill="none" stroke="black" d="M1329.55,-301.17C1313.68,-283.08 1286.09,-254.76 1256.5,-238.5 1187.64,-200.66 1102.06,-177.79 1034.5,-164.43"/>
<polygon fill="white" stroke="black" points="1035.36,-161.04 1024.88,-162.58 1034.04,-167.91 1035.36,-161.04"/>
</g>
<!-- OAuth2SecurityScheme -->
<g id="node8" class="node">
<title>OAuth2SecurityScheme</title>
<polygon fill="#8ccbf2" stroke="none" points="1446.75,-370 1446.75,-395.5 1622.25,-395.5 1622.25,-370 1446.75,-370"/>
<polygon fill="none" stroke="#8ccbf2" points="1446.75,-370 1446.75,-395.5 1622.25,-395.5 1622.25,-370 1446.75,-370"/>
<text text-anchor="start" x="1452" y="-380.2" font-family="mono" font-weight="bold" font-size="14.00" fill="#c83500">OAuth2SecurityScheme</text>
<polygon fill="#ddeeff" stroke="none" points="1446.75,-344.5 1446.75,-370 1622.25,-370 1622.25,-344.5 1446.75,-344.5"/>
<polygon fill="none" stroke="#8ccbf2" points="1446.75,-344.5 1446.75,-370 1622.25,-370 1622.25,-344.5 1446.75,-344.5"/>
<text text-anchor="start" x="1449.75" y="-354.7" font-family="mono" font-size="14.00" fill="#c83500">token</text>
<text text-anchor="start" x="1491" y="-354.7" font-family="Times,serif" font-size="14.00"> : </text>
<text text-anchor="start" x="1502.25" y="-354.7" font-family="mono" font-size="14.00" fill="#c83500">anyURI</text>
<polygon fill="#ddeeff" stroke="none" points="1446.75,-319 1446.75,-344.5 1622.25,-344.5 1622.25,-319 1446.75,-319"/>
<polygon fill="none" stroke="#8ccbf2" points="1446.75,-319 1446.75,-344.5 1622.25,-344.5 1622.25,-319 1446.75,-319"/>
<text text-anchor="start" x="1449.75" y="-329.2" font-family="mono" font-size="14.00" fill="#c83500">refresh</text>
<text text-anchor="start" x="1507.5" y="-329.2" font-family="Times,serif" font-size="14.00"> : </text>
<text text-anchor="start" x="1518.75" y="-329.2" font-family="mono" font-size="14.00" fill="#c83500">anyURI</text>
<polygon fill="#ddeeff" stroke="none" points="1446.75,-293.5 1446.75,-319 1622.25,-319 1622.25,-293.5 1446.75,-293.5"/>
<polygon fill="none" stroke="#8ccbf2" points="1446.75,-293.5 1446.75,-319 1622.25,-319 1622.25,-293.5 1446.75,-293.5"/>
<text text-anchor="start" x="1449.75" y="-303.7" font-family="mono" font-size="14.00" fill="#c83500">scopes</text>
<text text-anchor="start" x="1499.25" y="-303.7" font-family="Times,serif" font-size="14.00"> : (Array of) </text>
<text text-anchor="start" x="1569.75" y="-303.7" font-family="mono" font-size="14.00" fill="#c83500">string</text>
<polygon fill="#ddeeff" stroke="none" points="1446.75,-268 1446.75,-293.5 1622.25,-293.5 1622.25,-268 1446.75,-268"/>
<polygon fill="none" stroke="#8ccbf2" points="1446.75,-268 1446.75,-293.5 1622.25,-293.5 1622.25,-268 1446.75,-268"/>
<text text-anchor="start" x="1449.75" y="-278.2" font-family="mono" font-size="14.00" fill="#c83500">flow</text>
<text text-anchor="start" x="1482.75" y="-278.2" font-family="Times,serif" font-size="14.00"> : </text>
<text text-anchor="start" x="1494" y="-278.2" font-family="mono" font-size="14.00" fill="#c83500">string</text>
<text text-anchor="start" x="1543.5" y="-278.2" font-family="Times,serif" font-size="14.00"> </text>
<text text-anchor="start" x="1547.25" y="-278.2" font-family="Times,serif" font-style="italic" font-size="14.00">(mandatory)</text>
<polygon fill="#ddeeff" stroke="none" points="1446.75,-242.5 1446.75,-268 1622.25,-268 1622.25,-242.5 1446.75,-242.5"/>
<polygon fill="none" stroke="#8ccbf2" points="1446.75,-242.5 1446.75,-268 1622.25,-268 1622.25,-242.5 1446.75,-242.5"/>
<text text-anchor="start" x="1449.75" y="-252.7" font-family="mono" font-size="14.00" fill="#c83500">authorization</text>
<text text-anchor="start" x="1557" y="-252.7" font-family="Times,serif" font-size="14.00"> : </text>
<text text-anchor="start" x="1568.25" y="-252.7" font-family="mono" font-size="14.00" fill="#c83500">anyURI</text>
</g>
<!-- OAuth2SecurityScheme&#45;&gt;SecurityScheme -->
<g id="edge9" class="edge">
<title>OAuth2SecurityScheme&#45;&gt;SecurityScheme</title>
<path fill="none" stroke="black" d="M1438.89,-242.94C1435.78,-241.36 1432.64,-239.87 1429.5,-238.5 1301.55,-182.51 1141.12,-160.96 1034.95,-152.68"/>
<polygon fill="white" stroke="black" points="1035.31,-149.19 1025.08,-151.94 1034.79,-156.17 1035.31,-149.19"/>
</g>
<!-- PSKSecurityScheme -->
<g id="node9" class="node">
<title>PSKSecurityScheme</title>
<polygon fill="#8ccbf2" stroke="none" points="1656.38,-319 1656.38,-344.5 1802.62,-344.5 1802.62,-319 1656.38,-319"/>
<polygon fill="none" stroke="#8ccbf2" points="1656.38,-319 1656.38,-344.5 1802.62,-344.5 1802.62,-319 1656.38,-319"/>
<text text-anchor="start" x="1659.38" y="-329.2" font-family="mono" font-weight="bold" font-size="14.00" fill="#c83500">PSKSecurityScheme</text>
<polygon fill="#ddeeff" stroke="none" points="1656.38,-293.5 1656.38,-319 1802.62,-319 1802.62,-293.5 1656.38,-293.5"/>
<polygon fill="none" stroke="#8ccbf2" points="1656.38,-293.5 1656.38,-319 1802.62,-319 1802.62,-293.5 1656.38,-293.5"/>
<text text-anchor="start" x="1659.38" y="-303.7" font-family="mono" font-size="14.00" fill="#c83500">identity</text>
<text text-anchor="start" x="1725.38" y="-303.7" font-family="Times,serif" font-size="14.00"> : </text>
<text text-anchor="start" x="1736.62" y="-303.7" font-family="mono" font-size="14.00" fill="#c83500">string</text>
</g>
<!-- PSKSecurityScheme&#45;&gt;SecurityScheme -->
<g id="edge10" class="edge">
<title>PSKSecurityScheme&#45;&gt;SecurityScheme</title>
<path fill="none" stroke="black" d="M1705.74,-289.67C1689.12,-271.89 1665.33,-250.18 1639.5,-238.5 1534.19,-190.88 1209.74,-164.74 1034.91,-153.78"/>
<polygon fill="white" stroke="black" points="1035.32,-150.3 1025.13,-153.17 1034.89,-157.28 1035.32,-150.3"/>
</g>
<!-- MultiLanguage -->
<g id="node11" class="node">
<title>MultiLanguage</title>
<polygon fill="#f2f2f2" stroke="none" points="863.88,-5.25 863.88,-30.75 977.12,-30.75 977.12,-5.25 863.88,-5.25"/>
<polygon fill="none" stroke="#8c8c8c" points="863.88,-5.25 863.88,-30.75 977.12,-30.75 977.12,-5.25 863.88,-5.25"/>
<text text-anchor="start" x="866.88" y="-15.45" font-family="mono" font-weight="bold" font-size="14.00">MultiLanguage</text>
</g>
<!-- SecurityScheme&#45;&gt;MultiLanguage -->
<g id="edge1" class="edge">
<title>SecurityScheme&#45;&gt;MultiLanguage</title>
<path fill="none" stroke="black" d="M920.5,-91.85C920.5,-76.39 920.5,-60.13 920.5,-46.92"/>
<polygon fill="black" stroke="black" points="924,-47.25 920.5,-37.25 917,-47.25 924,-47.25"/>
<text text-anchor="start" x="920.5" y="-60.2" font-family="mono" font-size="14.00" fill="#c83500">descriptions</text>
<text text-anchor="middle" x="910" y="-38.94" font-family="Times,serif" font-size="14.00">0..*</text>
</g>
</g>
</svg>
