<?xml version="1.0" encoding="UTF-8" standalone="no"?>
<!DOCTYPE svg PUBLIC "-//W3C//DTD SVG 1.1//EN"
 "http://www.w3.org/Graphics/SVG/1.1/DTD/svg11.dtd">
<!-- Generated by graphviz version 2.40.1 (20161225.0304)
 -->
<!-- Title: %3 Pages: 1 -->
<svg width="1568pt" height="249pt"
 viewBox="0.00 0.00 1568.00 249.00" xmlns="http://www.w3.org/2000/svg" xmlns:xlink="http://www.w3.org/1999/xlink">
<g id="graph0" class="graph" transform="scale(1 1) rotate(0) translate(4 245)">
<title>%3</title>
<polygon fill="#ffffff" stroke="transparent" points="-4,4 -4,-245 1564,-245 1564,4 -4,4"/>
<!-- APIKeySecurityScheme -->
<g id="node1" class="node">
<title>APIKeySecurityScheme</title>
<polygon fill="#8ccbf2" stroke="transparent" points="8,-184 8,-205 172,-205 172,-184 8,-184"/>
<polygon fill="none" stroke="#8ccbf2" points="8,-184 8,-205 172,-205 172,-184 8,-184"/>
<text text-anchor="start" x="11" y="-191.8" font-family="mono" font-weight="bold" font-size="14.00" fill="#c83500">APIKeySecurityScheme</text>
<polygon fill="#ddeeff" stroke="transparent" points="8,-163 8,-184 172,-184 172,-163 8,-163"/>
<polygon fill="none" stroke="#8ccbf2" points="8,-163 8,-184 172,-184 172,-163 8,-163"/>
<text text-anchor="start" x="11" y="-170.8" font-family="mono" font-size="14.00" fill="#c83500">in</text>
<text text-anchor="start" x="22" y="-170.8" font-family="Times,serif" font-size="14.00" fill="#000000"> : </text>
<text text-anchor="start" x="33" y="-170.8" font-family="mono" font-size="14.00" fill="#c83500">string</text>
<polygon fill="#ddeeff" stroke="transparent" points="8,-142 8,-163 172,-163 172,-142 8,-142"/>
<polygon fill="none" stroke="#8ccbf2" points="8,-142 8,-163 172,-163 172,-142 8,-142"/>
<text text-anchor="start" x="11" y="-149.8" font-family="mono" font-size="14.00" fill="#c83500">name</text>
<text text-anchor="start" x="47" y="-149.8" font-family="Times,serif" font-size="14.00" fill="#000000"> : </text>
<text text-anchor="start" x="58" y="-149.8" font-family="mono" font-size="14.00" fill="#c83500">string</text>
</g>
<!-- SecurityScheme -->
<g id="node9" class="node">
<title>SecurityScheme</title>
<polygon fill="#8ccbf2" stroke="transparent" points="649,-45.5 649,-66.5 980,-66.5 980,-45.5 649,-45.5"/>
<polygon fill="none" stroke="#8ccbf2" points="649,-45.5 649,-66.5 980,-66.5 980,-45.5 649,-45.5"/>
<text text-anchor="start" x="760" y="-53.3" font-family="mono" font-weight="bold" font-size="14.00" fill="#c83500">SecurityScheme</text>
<polygon fill="#ddeeff" stroke="transparent" points="649,-24.5 649,-45.5 980,-45.5 980,-24.5 649,-24.5"/>
<polygon fill="none" stroke="#8ccbf2" points="649,-24.5 649,-45.5 980,-45.5 980,-24.5 649,-24.5"/>
<text text-anchor="start" x="652" y="-32.3" font-family="mono" font-size="14.00" fill="#c83500">@type</text>
<text text-anchor="start" x="693" y="-32.3" font-family="Times,serif" font-size="14.00" fill="#000000"> : </text>
<text text-anchor="start" x="704" y="-32.3" font-family="Times,serif" font-style="italic" font-size="14.00" fill="#000000">(Array of) </text>
<text text-anchor="start" x="764" y="-32.3" font-family="mono" font-size="14.00" fill="#c83500">string</text>
<polygon fill="#ddeeff" stroke="transparent" points="649,-3.5 649,-24.5 980,-24.5 980,-3.5 649,-3.5"/>
<polygon fill="none" stroke="#8ccbf2" points="649,-3.5 649,-24.5 980,-24.5 980,-3.5 649,-3.5"/>
<text text-anchor="start" x="652" y="-11.3" font-family="mono" font-size="14.00" fill="#c83500">description</text>
<text text-anchor="start" x="720" y="-11.3" font-family="Times,serif" font-size="14.00" fill="#000000"> : Map of </text>
<text text-anchor="start" x="776" y="-11.3" font-family="mono" font-size="14.00" fill="#c83500">string</text>
<text text-anchor="start" x="811" y="-11.3" font-family="mono" font-size="14.00" fill="#c83500">descriptions</text>
<text text-anchor="start" x="886" y="-11.3" font-family="Times,serif" font-size="14.00" fill="#000000"> : Map of </text>
<text text-anchor="start" x="942" y="-11.3" font-family="mono" font-size="14.00" fill="#c83500">string</text>
</g>
<!-- APIKeySecurityScheme&#45;&gt;SecurityScheme -->
<g id="edge1" class="edge">
<title>APIKeySecurityScheme&#45;&gt;SecurityScheme</title>
<path fill="none" stroke="#000000" d="M132.8217,-138.4093C149.398,-126.4755 169.1471,-114.3468 189,-107 267.4266,-77.9773 475.6722,-58.0918 630.3589,-46.7971"/>
<polygon fill="#ffffff" stroke="#000000" points="630.7472,-50.2783 640.4685,-46.0656 630.2419,-43.2965 630.7472,-50.2783"/>
</g>
<!-- BasicSecurityScheme -->
<g id="node2" class="node">
<title>BasicSecurityScheme</title>
<polygon fill="#8ccbf2" stroke="transparent" points="207,-184 207,-205 360,-205 360,-184 207,-184"/>
<polygon fill="none" stroke="#8ccbf2" points="207,-184 207,-205 360,-205 360,-184 207,-184"/>
<text text-anchor="start" x="210" y="-191.8" font-family="mono" font-weight="bold" font-size="14.00" fill="#c83500">BasicSecurityScheme</text>
<polygon fill="#ddeeff" stroke="transparent" points="207,-163 207,-184 360,-184 360,-163 207,-163"/>
<polygon fill="none" stroke="#8ccbf2" points="207,-163 207,-184 360,-184 360,-163 207,-163"/>
<text text-anchor="start" x="210" y="-170.8" font-family="mono" font-size="14.00" fill="#c83500">in</text>
<text text-anchor="start" x="221" y="-170.8" font-family="Times,serif" font-size="14.00" fill="#000000"> : </text>
<text text-anchor="start" x="232" y="-170.8" font-family="mono" font-size="14.00" fill="#c83500">string</text>
<polygon fill="#ddeeff" stroke="transparent" points="207,-142 207,-163 360,-163 360,-142 207,-142"/>
<polygon fill="none" stroke="#8ccbf2" points="207,-142 207,-163 360,-163 360,-142 207,-142"/>
<text text-anchor="start" x="210" y="-149.8" font-family="mono" font-size="14.00" fill="#c83500">name</text>
<text text-anchor="start" x="246" y="-149.8" font-family="Times,serif" font-size="14.00" fill="#000000"> : </text>
<text text-anchor="start" x="257" y="-149.8" font-family="mono" font-size="14.00" fill="#c83500">string</text>
</g>
<!-- BasicSecurityScheme&#45;&gt;SecurityScheme -->
<g id="edge2" class="edge">
<title>BasicSecurityScheme&#45;&gt;SecurityScheme</title>
<path fill="none" stroke="#000000" d="M324.5328,-138.1857C340.0729,-126.5254 358.4697,-114.6324 377,-107 422.615,-88.2118 532.3281,-70.2914 630.4049,-57.0907"/>
<polygon fill="#ffffff" stroke="#000000" points="631.0167,-60.5402 640.4656,-55.7475 630.0903,-53.6018 631.0167,-60.5402"/>
</g>
<!-- BearerSecurityScheme -->
<g id="node3" class="node">
<title>BearerSecurityScheme</title>
<polygon fill="#8ccbf2" stroke="transparent" points="394,-216 394,-237 554,-237 554,-216 394,-216"/>
<polygon fill="none" stroke="#8ccbf2" points="394,-216 394,-237 554,-237 554,-216 394,-216"/>
<text text-anchor="start" x="397" y="-223.8" font-family="mono" font-weight="bold" font-size="14.00" fill="#c83500">BearerSecurityScheme</text>
<polygon fill="#ddeeff" stroke="transparent" points="394,-195 394,-216 554,-216 554,-195 394,-195"/>
<polygon fill="none" stroke="#8ccbf2" points="394,-195 394,-216 554,-216 554,-195 394,-195"/>
<text text-anchor="start" x="397" y="-202.8" font-family="mono" font-size="14.00" fill="#c83500">alg</text>
<text text-anchor="start" x="416" y="-202.8" font-family="Times,serif" font-size="14.00" fill="#000000"> : </text>
<text text-anchor="start" x="427" y="-202.8" font-family="mono" font-size="14.00" fill="#c83500">string</text>
<polygon fill="#ddeeff" stroke="transparent" points="394,-174 394,-195 554,-195 554,-174 394,-174"/>
<polygon fill="none" stroke="#8ccbf2" points="394,-174 394,-195 554,-195 554,-174 394,-174"/>
<text text-anchor="start" x="397" y="-181.8" font-family="mono" font-size="14.00" fill="#c83500">authorization</text>
<text text-anchor="start" x="478" y="-181.8" font-family="Times,serif" font-size="14.00" fill="#000000"> : </text>
<text text-anchor="start" x="489" y="-181.8" font-family="mono" font-size="14.00" fill="#c83500">anyURI</text>
<polygon fill="#ddeeff" stroke="transparent" points="394,-153 394,-174 554,-174 554,-153 394,-153"/>
<polygon fill="none" stroke="#8ccbf2" points="394,-153 394,-174 554,-174 554,-153 394,-153"/>
<text text-anchor="start" x="397" y="-160.8" font-family="mono" font-size="14.00" fill="#c83500">format</text>
<text text-anchor="start" x="437" y="-160.8" font-family="Times,serif" font-size="14.00" fill="#000000"> : </text>
<text text-anchor="start" x="448" y="-160.8" font-family="mono" font-size="14.00" fill="#c83500">string</text>
<polygon fill="#ddeeff" stroke="transparent" points="394,-132 394,-153 554,-153 554,-132 394,-132"/>
<polygon fill="none" stroke="#8ccbf2" points="394,-132 394,-153 554,-153 554,-132 394,-132"/>
<text text-anchor="start" x="397" y="-139.8" font-family="mono" font-size="14.00" fill="#c83500">in</text>
<text text-anchor="start" x="408" y="-139.8" font-family="Times,serif" font-size="14.00" fill="#000000"> : </text>
<text text-anchor="start" x="419" y="-139.8" font-family="mono" font-size="14.00" fill="#c83500">string</text>
<polygon fill="#ddeeff" stroke="transparent" points="394,-111 394,-132 554,-132 554,-111 394,-111"/>
<polygon fill="none" stroke="#8ccbf2" points="394,-111 394,-132 554,-132 554,-111 394,-111"/>
<text text-anchor="start" x="397" y="-118.8" font-family="mono" font-size="14.00" fill="#c83500">name</text>
<text text-anchor="start" x="433" y="-118.8" font-family="Times,serif" font-size="14.00" fill="#000000"> : </text>
<text text-anchor="start" x="444" y="-118.8" font-family="mono" font-size="14.00" fill="#c83500">string</text>
</g>
<!-- BearerSecurityScheme&#45;&gt;SecurityScheme -->
<g id="edge3" class="edge">
<title>BearerSecurityScheme&#45;&gt;SecurityScheme</title>
<path fill="none" stroke="#000000" d="M562.1182,-111.4717C565.0798,-109.9065 568.0447,-108.4106 571,-107 597.564,-94.3212 626.8488,-83.3846 655.6159,-74.1459"/>
<polygon fill="#ffffff" stroke="#000000" points="656.8624,-77.4228 665.3472,-71.0778 654.7575,-70.7467 656.8624,-77.4228"/>
</g>
<!-- ComboSecurityScheme -->
<g id="node4" class="node">
<title>ComboSecurityScheme</title>
<polygon fill="#8ccbf2" stroke="transparent" points="588,-184 588,-205 814,-205 814,-184 588,-184"/>
<polygon fill="none" stroke="#8ccbf2" points="588,-184 588,-205 814,-205 814,-184 588,-184"/>
<text text-anchor="start" x="622" y="-191.8" font-family="mono" font-weight="bold" font-size="14.00" fill="#c83500">ComboSecurityScheme</text>
<polygon fill="#ddeeff" stroke="transparent" points="588,-163 588,-184 814,-184 814,-163 588,-163"/>
<polygon fill="none" stroke="#8ccbf2" points="588,-163 588,-184 814,-184 814,-163 588,-163"/>
<text text-anchor="start" x="591" y="-170.8" font-family="mono" font-size="14.00" fill="#c83500">oneOf</text>
<text text-anchor="start" x="630" y="-170.8" font-family="Times,serif" font-size="14.00" fill="#000000"> : (Array of) </text>
<text text-anchor="start" x="702" y="-170.8" font-family="mono" font-size="14.00" fill="#c83500">string</text>
<text text-anchor="start" x="737" y="-170.8" font-family="Times,serif" font-size="14.00" fill="#000000"> </text>
<text text-anchor="start" x="741" y="-170.8" font-family="Times,serif" font-style="italic" font-size="14.00" fill="#000000">(mandatory)</text>
<polygon fill="#ddeeff" stroke="transparent" points="588,-142 588,-163 814,-163 814,-142 588,-142"/>
<polygon fill="none" stroke="#8ccbf2" points="588,-142 588,-163 814,-163 814,-142 588,-142"/>
<text text-anchor="start" x="591" y="-149.8" font-family="mono" font-size="14.00" fill="#c83500">allOf</text>
<text text-anchor="start" x="620" y="-149.8" font-family="Times,serif" font-size="14.00" fill="#000000"> : (Array of) </text>
<text text-anchor="start" x="692" y="-149.8" font-family="mono" font-size="14.00" fill="#c83500">string</text>
<text text-anchor="start" x="727" y="-149.8" font-family="Times,serif" font-size="14.00" fill="#000000"> </text>
<text text-anchor="start" x="731" y="-149.8" font-family="Times,serif" font-style="italic" font-size="14.00" fill="#000000">(mandatory)</text>
</g>
<!-- ComboSecurityScheme&#45;&gt;SecurityScheme -->
<g id="edge4" class="edge">
<title>ComboSecurityScheme&#45;&gt;SecurityScheme</title>
<path fill="none" stroke="#000000" d="M730.1003,-138.3328C744.8627,-120.239 762.9179,-98.1094 778.4923,-79.0205"/>
<polygon fill="#ffffff" stroke="#000000" points="781.3885,-81.0072 784.9983,-71.0463 775.9647,-76.582 781.3885,-81.0072"/>
</g>
<!-- DigestSecurityScheme -->
<g id="node5" class="node">
<title>DigestSecurityScheme</title>
<polygon fill="#8ccbf2" stroke="transparent" points="848,-195 848,-216 1006,-216 1006,-195 848,-195"/>
<polygon fill="none" stroke="#8ccbf2" points="848,-195 848,-216 1006,-216 1006,-195 848,-195"/>
<text text-anchor="start" x="851" y="-202.8" font-family="mono" font-weight="bold" font-size="14.00" fill="#c83500">DigestSecurityScheme</text>
<polygon fill="#ddeeff" stroke="transparent" points="848,-174 848,-195 1006,-195 1006,-174 848,-174"/>
<polygon fill="none" stroke="#8ccbf2" points="848,-174 848,-195 1006,-195 1006,-174 848,-174"/>
<text text-anchor="start" x="851" y="-181.8" font-family="mono" font-size="14.00" fill="#c83500">qop</text>
<text text-anchor="start" x="875" y="-181.8" font-family="Times,serif" font-size="14.00" fill="#000000"> : </text>
<text text-anchor="start" x="886" y="-181.8" font-family="mono" font-size="14.00" fill="#c83500">string</text>
<polygon fill="#ddeeff" stroke="transparent" points="848,-153 848,-174 1006,-174 1006,-153 848,-153"/>
<polygon fill="none" stroke="#8ccbf2" points="848,-153 848,-174 1006,-174 1006,-153 848,-153"/>
<text text-anchor="start" x="851" y="-160.8" font-family="mono" font-size="14.00" fill="#c83500">in</text>
<text text-anchor="start" x="862" y="-160.8" font-family="Times,serif" font-size="14.00" fill="#000000"> : </text>
<text text-anchor="start" x="873" y="-160.8" font-family="mono" font-size="14.00" fill="#c83500">string</text>
<polygon fill="#ddeeff" stroke="transparent" points="848,-132 848,-153 1006,-153 1006,-132 848,-132"/>
<polygon fill="none" stroke="#8ccbf2" points="848,-132 848,-153 1006,-153 1006,-132 848,-132"/>
<text text-anchor="start" x="851" y="-139.8" font-family="mono" font-size="14.00" fill="#c83500">name</text>
<text text-anchor="start" x="887" y="-139.8" font-family="Times,serif" font-size="14.00" fill="#000000"> : </text>
<text text-anchor="start" x="898" y="-139.8" font-family="mono" font-size="14.00" fill="#c83500">string</text>
</g>
<!-- DigestSecurityScheme&#45;&gt;SecurityScheme -->
<g id="edge5" class="edge">
<title>DigestSecurityScheme&#45;&gt;SecurityScheme</title>
<path fill="none" stroke="#000000" d="M889.3726,-127.8815C876.5793,-112.2011 862.3274,-94.7331 849.69,-79.244"/>
<polygon fill="#ffffff" stroke="#000000" points="852.2786,-76.8802 843.245,-71.3445 846.8548,-81.3054 852.2786,-76.8802"/>
</g>
<!-- NoSecurityScheme -->
<g id="node6" class="node">
<title>NoSecurityScheme</title>
<polygon fill="#8ccbf2" stroke="transparent" points="1040,-163 1040,-184 1174,-184 1174,-163 1040,-163"/>
<polygon fill="none" stroke="#8ccbf2" points="1040,-163 1040,-184 1174,-184 1174,-163 1040,-163"/>
<text text-anchor="start" x="1043" y="-170.8" font-family="mono" font-weight="bold" font-size="14.00" fill="#c83500">NoSecurityScheme</text>
</g>
<!-- NoSecurityScheme&#45;&gt;SecurityScheme -->
<g id="edge6" class="edge">
<title>NoSecurityScheme&#45;&gt;SecurityScheme</title>
<path fill="none" stroke="#000000" d="M1088.3415,-155.9699C1072.1582,-141.1414 1047.5362,-120.4506 1023,-107 1000.338,-94.5768 975.124,-83.7395 950.2722,-74.514"/>
<polygon fill="#ffffff" stroke="#000000" points="951.3653,-71.1873 940.7712,-71.0572 948.9719,-77.7655 951.3653,-71.1873"/>
</g>
<!-- OAuth2SecurityScheme -->
<g id="node7" class="node">
<title>OAuth2SecurityScheme</title>
<polygon fill="#8ccbf2" stroke="transparent" points="1208,-184 1208,-205 1374,-205 1374,-184 1208,-184"/>
<polygon fill="none" stroke="#8ccbf2" points="1208,-184 1208,-205 1374,-205 1374,-184 1208,-184"/>
<text text-anchor="start" x="1211" y="-191.8" font-family="mono" font-weight="bold" font-size="14.00" fill="#c83500">OAuth2SecurityScheme</text>
<polygon fill="#ddeeff" stroke="transparent" points="1208,-163 1208,-184 1374,-184 1374,-163 1208,-163"/>
<polygon fill="none" stroke="#8ccbf2" points="1208,-163 1208,-184 1374,-184 1374,-163 1208,-163"/>
<text text-anchor="start" x="1211" y="-170.8" font-family="mono" font-size="14.00" fill="#c83500">scopes</text>
<text text-anchor="start" x="1256" y="-170.8" font-family="Times,serif" font-size="14.00" fill="#000000"> : (Array of) </text>
<text text-anchor="start" x="1328" y="-170.8" font-family="mono" font-size="14.00" fill="#c83500">string</text>
<polygon fill="#ddeeff" stroke="transparent" points="1208,-142 1208,-163 1374,-163 1374,-142 1208,-142"/>
<polygon fill="none" stroke="#8ccbf2" points="1208,-142 1208,-163 1374,-163 1374,-142 1208,-142"/>
<text text-anchor="start" x="1211" y="-149.8" font-family="mono" font-size="14.00" fill="#c83500">flow</text>
<text text-anchor="start" x="1236" y="-149.8" font-family="Times,serif" font-size="14.00" fill="#000000"> : </text>
<text text-anchor="start" x="1247" y="-149.8" font-family="mono" font-size="14.00" fill="#c83500">string</text>
<text text-anchor="start" x="1282" y="-149.8" font-family="Times,serif" font-size="14.00" fill="#000000"> </text>
<text text-anchor="start" x="1286" y="-149.8" font-family="Times,serif" font-style="italic" font-size="14.00" fill="#000000">(mandatory)</text>
</g>
<!-- OAuth2SecurityScheme&#45;&gt;SecurityScheme -->
<g id="edge7" class="edge">
<title>OAuth2SecurityScheme&#45;&gt;SecurityScheme</title>
<path fill="none" stroke="#000000" d="M1245.8995,-138.1606C1229.4365,-126.641 1210.144,-114.8439 1191,-107 1130.2918,-82.1259 1060.4999,-65.8084 997.5972,-55.1452"/>
<polygon fill="#ffffff" stroke="#000000" points="998.0011,-51.6645 987.5633,-53.482 996.8563,-58.5703 998.0011,-51.6645"/>
</g>
<!-- PSKSecurityScheme -->
<g id="node8" class="node">
<title>PSKSecurityScheme</title>
<polygon fill="#8ccbf2" stroke="transparent" points="1408,-174 1408,-195 1552,-195 1552,-174 1408,-174"/>
<polygon fill="none" stroke="#8ccbf2" points="1408,-174 1408,-195 1552,-195 1552,-174 1408,-174"/>
<text text-anchor="start" x="1411" y="-181.8" font-family="mono" font-weight="bold" font-size="14.00" fill="#c83500">PSKSecurityScheme</text>
<polygon fill="#ddeeff" stroke="transparent" points="1408,-153 1408,-174 1552,-174 1552,-153 1408,-153"/>
<polygon fill="none" stroke="#8ccbf2" points="1408,-153 1408,-174 1552,-174 1552,-153 1408,-153"/>
<text text-anchor="start" x="1411" y="-160.8" font-family="mono" font-size="14.00" fill="#c83500">identity</text>
<text text-anchor="start" x="1456" y="-160.8" font-family="Times,serif" font-size="14.00" fill="#000000"> : </text>
<text text-anchor="start" x="1467" y="-160.8" font-family="mono" font-size="14.00" fill="#c83500">string</text>
</g>
<!-- PSKSecurityScheme&#45;&gt;SecurityScheme -->
<g id="edge8" class="edge">
<title>PSKSecurityScheme&#45;&gt;SecurityScheme</title>
<path fill="none" stroke="#000000" d="M1454.2436,-148.8064C1437.59,-134.0851 1414.6672,-116.571 1391,-107 1321.6621,-78.9599 1139.2468,-59.4237 997.9059,-47.9422"/>
<polygon fill="#ffffff" stroke="#000000" points="998.051,-44.4427 987.8025,-47.1294 997.4896,-51.4201 998.051,-44.4427"/>
</g>
</g>
</svg>
