<?xml version="1.0" encoding="UTF-8" standalone="no"?>
<!DOCTYPE svg PUBLIC "-//W3C//DTD SVG 1.1//EN"
 "http://www.w3.org/Graphics/SVG/1.1/DTD/svg11.dtd">
<!-- Generated by graphviz version 2.40.1 (20161225.0304)
 -->
<!-- Title: %3 Pages: 1 -->
<svg width="1841pt" height="337pt"
 viewBox="0.00 0.00 1840.50 337.00" xmlns="http://www.w3.org/2000/svg" xmlns:xlink="http://www.w3.org/1999/xlink">
<g id="graph0" class="graph" transform="scale(1 1) rotate(0) translate(4 333)">
<title>%3</title>
<polygon fill="#ffffff" stroke="transparent" points="-4,4 -4,-333 1836.5,-333 1836.5,4 -4,4"/>
<!-- APIKeySecurityScheme -->
<g id="node1" class="node">
<title>APIKeySecurityScheme</title>
<polygon fill="#8ccbf2" stroke="transparent" points="8,-272 8,-293 180,-293 180,-272 8,-272"/>
<polygon fill="none" stroke="#8ccbf2" points="8,-272 8,-293 180,-293 180,-272 8,-272"/>
<text text-anchor="start" x="11" y="-279.8" font-family="mono" font-weight="bold" font-size="14.00" fill="#c83500">APIKeySecurityScheme</text>
<polygon fill="#ddeeff" stroke="transparent" points="8,-251 8,-272 180,-272 180,-251 8,-251"/>
<polygon fill="none" stroke="#8ccbf2" points="8,-251 8,-272 180,-272 180,-251 8,-251"/>
<text text-anchor="start" x="11" y="-258.8" font-family="mono" font-size="14.00" fill="#c83500">name</text>
<text text-anchor="start" x="45" y="-258.8" font-family="Times,serif" font-size="14.00" fill="#000000"> : </text>
<text text-anchor="start" x="57" y="-258.8" font-family="mono" font-size="14.00" fill="#c83500">string</text>
<polygon fill="#ddeeff" stroke="transparent" points="8,-230 8,-251 180,-251 180,-230 8,-230"/>
<polygon fill="none" stroke="#8ccbf2" points="8,-230 8,-251 180,-251 180,-230 8,-230"/>
<text text-anchor="start" x="11" y="-237.8" font-family="mono" font-size="14.00" fill="#c83500">in</text>
<text text-anchor="start" x="28" y="-237.8" font-family="Times,serif" font-size="14.00" fill="#000000"> : </text>
<text text-anchor="start" x="40" y="-237.8" font-family="mono" font-size="14.00" fill="#c83500">string</text>
</g>
<!-- SecurityScheme -->
<g id="node10" class="node">
<title>SecurityScheme</title>
<polygon fill="#8ccbf2" stroke="transparent" points="848,-132.5 848,-153.5 1017,-153.5 1017,-132.5 848,-132.5"/>
<polygon fill="none" stroke="#8ccbf2" points="848,-132.5 848,-153.5 1017,-153.5 1017,-132.5 848,-132.5"/>
<text text-anchor="start" x="874.5" y="-140.3" font-family="mono" font-weight="bold" font-size="14.00" fill="#c83500">SecurityScheme</text>
<polygon fill="#ddeeff" stroke="transparent" points="848,-111.5 848,-132.5 1017,-132.5 1017,-111.5 848,-111.5"/>
<polygon fill="none" stroke="#8ccbf2" points="848,-111.5 848,-132.5 1017,-132.5 1017,-111.5 848,-111.5"/>
<text text-anchor="start" x="851" y="-119.3" font-family="mono" font-size="14.00" fill="#c83500">@type</text>
<text text-anchor="start" x="893" y="-119.3" font-family="Times,serif" font-size="14.00" fill="#000000"> : </text>
<text text-anchor="start" x="905" y="-119.3" font-family="Times,serif" font-style="italic" font-size="14.00" fill="#000000">(Array of) </text>
<text text-anchor="start" x="964" y="-119.3" font-family="mono" font-size="14.00" fill="#c83500">string</text>
<polygon fill="#ddeeff" stroke="transparent" points="848,-90.5 848,-111.5 1017,-111.5 1017,-90.5 848,-90.5"/>
<polygon fill="none" stroke="#8ccbf2" points="848,-90.5 848,-111.5 1017,-111.5 1017,-90.5 848,-90.5"/>
<text text-anchor="start" x="851" y="-98.3" font-family="mono" font-size="14.00" fill="#c83500">description</text>
<text text-anchor="start" x="942" y="-98.3" font-family="Times,serif" font-size="14.00" fill="#000000"> : </text>
<text text-anchor="start" x="954" y="-98.3" font-family="mono" font-size="14.00" fill="#c83500">string</text>
</g>
<!-- APIKeySecurityScheme&#45;&gt;SecurityScheme -->
<g id="edge2" class="edge">
<title>APIKeySecurityScheme&#45;&gt;SecurityScheme</title>
<path fill="none" stroke="#000000" d="M138.4326,-226.4315C155.7456,-214.4242 176.3681,-202.2407 197,-195 310.955,-155.0077 655.1699,-134.6157 829.0798,-126.6326"/>
<polygon fill="#ffffff" stroke="#000000" points="829.4359,-130.1201 839.2669,-126.1702 829.1184,-123.1273 829.4359,-130.1201"/>
</g>
<!-- AutoSecurityScheme -->
<g id="node2" class="node">
<title>AutoSecurityScheme</title>
<polygon fill="#8ccbf2" stroke="transparent" points="215,-251 215,-272 370,-272 370,-251 215,-251"/>
<polygon fill="none" stroke="#8ccbf2" points="215,-251 215,-272 370,-272 370,-251 215,-251"/>
<text text-anchor="start" x="218" y="-258.8" font-family="mono" font-weight="bold" font-size="14.00" fill="#c83500">AutoSecurityScheme</text>
</g>
<!-- AutoSecurityScheme&#45;&gt;SecurityScheme -->
<g id="edge3" class="edge">
<title>AutoSecurityScheme&#45;&gt;SecurityScheme</title>
<path fill="none" stroke="#000000" d="M311.2029,-243.9589C329.1046,-228.2681 357.2893,-206.3221 386,-195 464.4074,-164.08 693.731,-141.3655 828.9491,-130.2174"/>
<polygon fill="#ffffff" stroke="#000000" points="829.6397,-133.6727 839.3213,-129.3697 829.0694,-126.696 829.6397,-133.6727"/>
</g>
<!-- BasicSecurityScheme -->
<g id="node3" class="node">
<title>BasicSecurityScheme</title>
<polygon fill="#8ccbf2" stroke="transparent" points="404,-272 404,-293 567,-293 567,-272 404,-272"/>
<polygon fill="none" stroke="#8ccbf2" points="404,-272 404,-293 567,-293 567,-272 404,-272"/>
<text text-anchor="start" x="407" y="-279.8" font-family="mono" font-weight="bold" font-size="14.00" fill="#c83500">BasicSecurityScheme</text>
<polygon fill="#ddeeff" stroke="transparent" points="404,-251 404,-272 567,-272 567,-251 404,-251"/>
<polygon fill="none" stroke="#8ccbf2" points="404,-251 404,-272 567,-272 567,-251 404,-251"/>
<text text-anchor="start" x="407" y="-258.8" font-family="mono" font-size="14.00" fill="#c83500">name</text>
<text text-anchor="start" x="441" y="-258.8" font-family="Times,serif" font-size="14.00" fill="#000000"> : </text>
<text text-anchor="start" x="453" y="-258.8" font-family="mono" font-size="14.00" fill="#c83500">string</text>
<polygon fill="#ddeeff" stroke="transparent" points="404,-230 404,-251 567,-251 567,-230 404,-230"/>
<polygon fill="none" stroke="#8ccbf2" points="404,-230 404,-251 567,-251 567,-230 404,-230"/>
<text text-anchor="start" x="407" y="-237.8" font-family="mono" font-size="14.00" fill="#c83500">in</text>
<text text-anchor="start" x="424" y="-237.8" font-family="Times,serif" font-size="14.00" fill="#000000"> : </text>
<text text-anchor="start" x="436" y="-237.8" font-family="mono" font-size="14.00" fill="#c83500">string</text>
</g>
<!-- BasicSecurityScheme&#45;&gt;SecurityScheme -->
<g id="edge4" class="edge">
<title>BasicSecurityScheme&#45;&gt;SecurityScheme</title>
<path fill="none" stroke="#000000" d="M529.6831,-226.3417C545.9845,-214.8379 565.0772,-203.0044 584,-195 662.6872,-161.715 758.0411,-143.2275 829.0234,-133.2671"/>
<polygon fill="#ffffff" stroke="#000000" points="829.8814,-136.6824 839.3145,-131.8587 828.9322,-129.7471 829.8814,-136.6824"/>
</g>
<!-- BearerSecurityScheme -->
<g id="node4" class="node">
<title>BearerSecurityScheme</title>
<polygon fill="#8ccbf2" stroke="transparent" points="601,-304 601,-325 777,-325 777,-304 601,-304"/>
<polygon fill="none" stroke="#8ccbf2" points="601,-304 601,-325 777,-325 777,-304 601,-304"/>
<text text-anchor="start" x="606" y="-311.8" font-family="mono" font-weight="bold" font-size="14.00" fill="#c83500">BearerSecurityScheme</text>
<polygon fill="#ddeeff" stroke="transparent" points="601,-283 601,-304 777,-304 777,-283 601,-283"/>
<polygon fill="none" stroke="#8ccbf2" points="601,-283 601,-304 777,-304 777,-283 601,-283"/>
<text text-anchor="start" x="604" y="-290.8" font-family="mono" font-size="14.00" fill="#c83500">alg</text>
<text text-anchor="start" x="629" y="-290.8" font-family="Times,serif" font-size="14.00" fill="#000000"> : </text>
<text text-anchor="start" x="641" y="-290.8" font-family="mono" font-size="14.00" fill="#c83500">string</text>
<polygon fill="#ddeeff" stroke="transparent" points="601,-262 601,-283 777,-283 777,-262 601,-262"/>
<polygon fill="none" stroke="#8ccbf2" points="601,-262 601,-283 777,-283 777,-262 601,-262"/>
<text text-anchor="start" x="604" y="-269.8" font-family="mono" font-size="14.00" fill="#c83500">name</text>
<text text-anchor="start" x="638" y="-269.8" font-family="Times,serif" font-size="14.00" fill="#000000"> : </text>
<text text-anchor="start" x="650" y="-269.8" font-family="mono" font-size="14.00" fill="#c83500">string</text>
<polygon fill="#ddeeff" stroke="transparent" points="601,-241 601,-262 777,-262 777,-241 601,-241"/>
<polygon fill="none" stroke="#8ccbf2" points="601,-241 601,-262 777,-262 777,-241 601,-241"/>
<text text-anchor="start" x="604" y="-248.8" font-family="mono" font-size="14.00" fill="#c83500">authorization</text>
<text text-anchor="start" x="712" y="-248.8" font-family="Times,serif" font-size="14.00" fill="#000000"> : </text>
<text text-anchor="start" x="724" y="-248.8" font-family="mono" font-size="14.00" fill="#c83500">anyURI</text>
<polygon fill="#ddeeff" stroke="transparent" points="601,-220 601,-241 777,-241 777,-220 601,-220"/>
<polygon fill="none" stroke="#8ccbf2" points="601,-220 601,-241 777,-241 777,-220 601,-220"/>
<text text-anchor="start" x="604" y="-227.8" font-family="mono" font-size="14.00" fill="#c83500">format</text>
<text text-anchor="start" x="654" y="-227.8" font-family="Times,serif" font-size="14.00" fill="#000000"> : </text>
<text text-anchor="start" x="666" y="-227.8" font-family="mono" font-size="14.00" fill="#c83500">string</text>
<polygon fill="#ddeeff" stroke="transparent" points="601,-199 601,-220 777,-220 777,-199 601,-199"/>
<polygon fill="none" stroke="#8ccbf2" points="601,-199 601,-220 777,-220 777,-199 601,-199"/>
<text text-anchor="start" x="604" y="-206.8" font-family="mono" font-size="14.00" fill="#c83500">in</text>
<text text-anchor="start" x="621" y="-206.8" font-family="Times,serif" font-size="14.00" fill="#000000"> : </text>
<text text-anchor="start" x="633" y="-206.8" font-family="mono" font-size="14.00" fill="#c83500">string</text>
</g>
<!-- BearerSecurityScheme&#45;&gt;SecurityScheme -->
<g id="edge5" class="edge">
<title>BearerSecurityScheme&#45;&gt;SecurityScheme</title>
<path fill="none" stroke="#000000" d="M785.2163,-200.1616C788.1683,-198.4067 791.1011,-196.6824 794,-195 812.6914,-184.1524 833.1494,-173.018 852.4531,-162.8311"/>
<polygon fill="#ffffff" stroke="#000000" points="854.2993,-165.8149 861.5261,-158.0674 851.0452,-159.6172 854.2993,-165.8149"/>
</g>
<!-- ComboSecurityScheme -->
<g id="node5" class="node">
<title>ComboSecurityScheme</title>
<polygon fill="#8ccbf2" stroke="transparent" points="812,-272 812,-293 1053,-293 1053,-272 812,-272"/>
<polygon fill="none" stroke="#8ccbf2" points="812,-272 812,-293 1053,-293 1053,-272 812,-272"/>
<text text-anchor="start" x="854" y="-279.8" font-family="mono" font-weight="bold" font-size="14.00" fill="#c83500">ComboSecurityScheme</text>
<polygon fill="#ddeeff" stroke="transparent" points="812,-251 812,-272 1053,-272 1053,-251 812,-251"/>
<polygon fill="none" stroke="#8ccbf2" points="812,-251 812,-272 1053,-272 1053,-251 812,-251"/>
<text text-anchor="start" x="815" y="-258.8" font-family="mono" font-size="14.00" fill="#c83500">oneOf</text>
<text text-anchor="start" x="857" y="-258.8" font-family="Times,serif" font-size="14.00" fill="#000000"> : (Array of) </text>
<text text-anchor="start" x="928" y="-258.8" font-family="mono" font-size="14.00" fill="#c83500">string</text>
<text text-anchor="start" x="978" y="-258.8" font-family="Times,serif" font-size="14.00" fill="#000000"> </text>
<text text-anchor="start" x="982" y="-258.8" font-family="Times,serif" font-style="italic" font-size="14.00" fill="#000000">(mandatory)</text>
<polygon fill="#ddeeff" stroke="transparent" points="812,-230 812,-251 1053,-251 1053,-230 812,-230"/>
<polygon fill="none" stroke="#8ccbf2" points="812,-230 812,-251 1053,-251 1053,-230 812,-230"/>
<text text-anchor="start" x="815" y="-237.8" font-family="mono" font-size="14.00" fill="#c83500">allOf</text>
<text text-anchor="start" x="857" y="-237.8" font-family="Times,serif" font-size="14.00" fill="#000000"> : (Array of) </text>
<text text-anchor="start" x="928" y="-237.8" font-family="mono" font-size="14.00" fill="#c83500">string</text>
<text text-anchor="start" x="978" y="-237.8" font-family="Times,serif" font-size="14.00" fill="#000000"> </text>
<text text-anchor="start" x="982" y="-237.8" font-family="Times,serif" font-style="italic" font-size="14.00" fill="#000000">(mandatory)</text>
</g>
<!-- ComboSecurityScheme&#45;&gt;SecurityScheme -->
<g id="edge6" class="edge">
<title>ComboSecurityScheme&#45;&gt;SecurityScheme</title>
<path fill="none" stroke="#000000" d="M932,-226.4373C932,-208.8648 932,-187.4462 932,-168.6285"/>
<polygon fill="#ffffff" stroke="#000000" points="935.5001,-168.4828 932,-158.4828 928.5001,-168.4828 935.5001,-168.4828"/>
</g>
<!-- DigestSecurityScheme -->
<g id="node6" class="node">
<title>DigestSecurityScheme</title>
<polygon fill="#8ccbf2" stroke="transparent" points="1087,-283 1087,-304 1259,-304 1259,-283 1087,-283"/>
<polygon fill="none" stroke="#8ccbf2" points="1087,-283 1087,-304 1259,-304 1259,-283 1087,-283"/>
<text text-anchor="start" x="1090" y="-290.8" font-family="mono" font-weight="bold" font-size="14.00" fill="#c83500">DigestSecurityScheme</text>
<polygon fill="#ddeeff" stroke="transparent" points="1087,-262 1087,-283 1259,-283 1259,-262 1087,-262"/>
<polygon fill="none" stroke="#8ccbf2" points="1087,-262 1087,-283 1259,-283 1259,-262 1087,-262"/>
<text text-anchor="start" x="1090" y="-269.8" font-family="mono" font-size="14.00" fill="#c83500">name</text>
<text text-anchor="start" x="1124" y="-269.8" font-family="Times,serif" font-size="14.00" fill="#000000"> : </text>
<text text-anchor="start" x="1136" y="-269.8" font-family="mono" font-size="14.00" fill="#c83500">string</text>
<polygon fill="#ddeeff" stroke="transparent" points="1087,-241 1087,-262 1259,-262 1259,-241 1087,-241"/>
<polygon fill="none" stroke="#8ccbf2" points="1087,-241 1087,-262 1259,-262 1259,-241 1087,-241"/>
<text text-anchor="start" x="1090" y="-248.8" font-family="mono" font-size="14.00" fill="#c83500">in</text>
<text text-anchor="start" x="1107" y="-248.8" font-family="Times,serif" font-size="14.00" fill="#000000"> : </text>
<text text-anchor="start" x="1119" y="-248.8" font-family="mono" font-size="14.00" fill="#c83500">string</text>
<polygon fill="#ddeeff" stroke="transparent" points="1087,-220 1087,-241 1259,-241 1259,-220 1087,-220"/>
<polygon fill="none" stroke="#8ccbf2" points="1087,-220 1087,-241 1259,-241 1259,-220 1087,-220"/>
<text text-anchor="start" x="1090" y="-227.8" font-family="mono" font-size="14.00" fill="#c83500">qop</text>
<text text-anchor="start" x="1115" y="-227.8" font-family="Times,serif" font-size="14.00" fill="#000000"> : </text>
<text text-anchor="start" x="1127" y="-227.8" font-family="mono" font-size="14.00" fill="#c83500">string</text>
</g>
<!-- DigestSecurityScheme&#45;&gt;SecurityScheme -->
<g id="edge7" class="edge">
<title>DigestSecurityScheme&#45;&gt;SecurityScheme</title>
<path fill="none" stroke="#000000" d="M1103.301,-215.941C1091.9371,-208.7669 1080.2146,-201.5636 1069,-195 1050.4544,-184.1458 1030.1486,-173.0088 1010.9852,-162.8217"/>
<polygon fill="#ffffff" stroke="#000000" points="1012.4541,-159.6392 1001.9779,-158.058 1009.1815,-165.8271 1012.4541,-159.6392"/>
</g>
<!-- NoSecurityScheme -->
<g id="node7" class="node">
<title>NoSecurityScheme</title>
<polygon fill="#8ccbf2" stroke="transparent" points="1294,-251 1294,-272 1433,-272 1433,-251 1294,-251"/>
<polygon fill="none" stroke="#8ccbf2" points="1294,-251 1294,-272 1433,-272 1433,-251 1294,-251"/>
<text text-anchor="start" x="1297" y="-258.8" font-family="mono" font-weight="bold" font-size="14.00" fill="#c83500">NoSecurityScheme</text>
</g>
<!-- NoSecurityScheme&#45;&gt;SecurityScheme -->
<g id="edge8" class="edge">
<title>NoSecurityScheme&#45;&gt;SecurityScheme</title>
<path fill="none" stroke="#000000" d="M1344.6202,-243.8182C1328.0522,-228.4774 1302.3154,-207.132 1276,-195 1199.3976,-159.6845 1105.2468,-141.3698 1034.8202,-131.9925"/>
<polygon fill="#ffffff" stroke="#000000" points="1034.9725,-128.4832 1024.6065,-130.6729 1034.0755,-135.4255 1034.9725,-128.4832"/>
</g>
<!-- OAuth2SecurityScheme -->
<g id="node8" class="node">
<title>OAuth2SecurityScheme</title>
<polygon fill="#8ccbf2" stroke="transparent" points="1467,-272 1467,-293 1644,-293 1644,-272 1467,-272"/>
<polygon fill="none" stroke="#8ccbf2" points="1467,-272 1467,-293 1644,-293 1644,-272 1467,-272"/>
<text text-anchor="start" x="1472.5" y="-279.8" font-family="mono" font-weight="bold" font-size="14.00" fill="#c83500">OAuth2SecurityScheme</text>
<polygon fill="#ddeeff" stroke="transparent" points="1467,-251 1467,-272 1644,-272 1644,-251 1467,-251"/>
<polygon fill="none" stroke="#8ccbf2" points="1467,-251 1467,-272 1644,-272 1644,-251 1467,-251"/>
<text text-anchor="start" x="1470" y="-258.8" font-family="mono" font-size="14.00" fill="#c83500">scopes</text>
<text text-anchor="start" x="1520" y="-258.8" font-family="Times,serif" font-size="14.00" fill="#000000"> : (Array of) </text>
<text text-anchor="start" x="1591" y="-258.8" font-family="mono" font-size="14.00" fill="#c83500">string</text>
<polygon fill="#ddeeff" stroke="transparent" points="1467,-230 1467,-251 1644,-251 1644,-230 1467,-230"/>
<polygon fill="none" stroke="#8ccbf2" points="1467,-230 1467,-251 1644,-251 1644,-230 1467,-230"/>
<text text-anchor="start" x="1470" y="-237.8" font-family="mono" font-size="14.00" fill="#c83500">flow</text>
<text text-anchor="start" x="1504" y="-237.8" font-family="Times,serif" font-size="14.00" fill="#000000"> : </text>
<text text-anchor="start" x="1516" y="-237.8" font-family="mono" font-size="14.00" fill="#c83500">string</text>
<text text-anchor="start" x="1566" y="-237.8" font-family="Times,serif" font-size="14.00" fill="#000000"> </text>
<text text-anchor="start" x="1570" y="-237.8" font-family="Times,serif" font-style="italic" font-size="14.00" fill="#000000">(mandatory)</text>
</g>
<!-- OAuth2SecurityScheme&#45;&gt;SecurityScheme -->
<g id="edge9" class="edge">
<title>OAuth2SecurityScheme&#45;&gt;SecurityScheme</title>
<path fill="none" stroke="#000000" d="M1508.183,-226.3837C1490.498,-214.5965 1469.644,-202.5707 1449,-195 1375.0565,-167.883 1163.2362,-144.1707 1034.8219,-131.738"/>
<polygon fill="#ffffff" stroke="#000000" points="1034.866,-128.2261 1024.5769,-130.7528 1034.196,-135.194 1034.866,-128.2261"/>
</g>
<!-- PSKSecurityScheme -->
<g id="node9" class="node">
<title>PSKSecurityScheme</title>
<polygon fill="#8ccbf2" stroke="transparent" points="1678,-262 1678,-283 1825,-283 1825,-262 1678,-262"/>
<polygon fill="none" stroke="#8ccbf2" points="1678,-262 1678,-283 1825,-283 1825,-262 1678,-262"/>
<text text-anchor="start" x="1681" y="-269.8" font-family="mono" font-weight="bold" font-size="14.00" fill="#c83500">PSKSecurityScheme</text>
<polygon fill="#ddeeff" stroke="transparent" points="1678,-241 1678,-262 1825,-262 1825,-241 1678,-241"/>
<polygon fill="none" stroke="#8ccbf2" points="1678,-241 1678,-262 1825,-262 1825,-241 1678,-241"/>
<text text-anchor="start" x="1681" y="-248.8" font-family="mono" font-size="14.00" fill="#c83500">identity</text>
<text text-anchor="start" x="1748" y="-248.8" font-family="Times,serif" font-size="14.00" fill="#000000"> : </text>
<text text-anchor="start" x="1760" y="-248.8" font-family="mono" font-size="14.00" fill="#c83500">string</text>
</g>
<!-- PSKSecurityScheme&#45;&gt;SecurityScheme -->
<g id="edge10" class="edge">
<title>PSKSecurityScheme&#45;&gt;SecurityScheme</title>
<path fill="none" stroke="#000000" d="M1725.3664,-236.9422C1708.5071,-222.0758 1685.1586,-204.3572 1661,-195 1549.3665,-151.7617 1207.7119,-132.9103 1034.6938,-125.9607"/>
<polygon fill="#ffffff" stroke="#000000" points="1034.6887,-122.4578 1024.558,-125.5595 1034.4117,-129.4524 1034.6887,-122.4578"/>
</g>
<!-- MultiLanguage -->
<g id="node11" class="node">
<title>MultiLanguage</title>
<polygon fill="#f2f2f2" stroke="transparent" points="875,-7 875,-28 989,-28 989,-7 875,-7"/>
<polygon fill="none" stroke="#8c8c8c" points="875,-7 875,-28 989,-28 989,-7 875,-7"/>
<text text-anchor="start" x="878" y="-14.8" font-family="mono" font-weight="bold" font-size="14.00" fill="#000000">MultiLanguage</text>
</g>
<!-- SecurityScheme&#45;&gt;MultiLanguage -->
<g id="edge1" class="edge">
<title>SecurityScheme&#45;&gt;MultiLanguage</title>
<path fill="none" stroke="#000000" d="M932,-86.8293C932,-73.6588 932,-58.9205 932,-46.4714"/>
<polygon fill="#000000" stroke="#000000" points="935.5001,-46.2174 932,-36.2174 928.5001,-46.2175 935.5001,-46.2174"/>
<text text-anchor="start" x="932" y="-57.8" font-family="mono" font-size="14.00" fill="#c83500">descriptions</text>
<text text-anchor="middle" x="921" y="-40.0174" font-family="Times,serif" font-size="14.00" fill="#000000">0..*</text>
</g>
</g>
</svg>
