<?xml version="1.0" encoding="UTF-8" standalone="no"?>
<!DOCTYPE svg PUBLIC "-//W3C//DTD SVG 1.1//EN"
 "http://www.w3.org/Graphics/SVG/1.1/DTD/svg11.dtd">
<!-- Generated by graphviz version 2.43.0 (0)
 -->
<!-- Title: %3 Pages: 1 -->
<svg width="1710pt" height="264pt"
 viewBox="0.00 0.00 1709.50 264.00" xmlns="http://www.w3.org/2000/svg" xmlns:xlink="http://www.w3.org/1999/xlink">
<g id="graph0" class="graph" transform="scale(1 1) rotate(0) translate(4 260)">
<title>%3</title>
<polygon fill="white" stroke="transparent" points="-4,4 -4,-260 1705.5,-260 1705.5,4 -4,4"/>
<!-- APIKeySecurityScheme -->
<g id="node1" class="node">
<title>APIKeySecurityScheme</title>
<polygon fill="#8ccbf2" stroke="transparent" points="8,-199 8,-220 180,-220 180,-199 8,-199"/>
<polygon fill="none" stroke="#8ccbf2" points="8,-199 8,-220 180,-220 180,-199 8,-199"/>
<text text-anchor="start" x="11" y="-206.8" font-family="mono" font-weight="bold" font-size="14.00" fill="#c83500">APIKeySecurityScheme</text>
<polygon fill="#ddeeff" stroke="transparent" points="8,-178 8,-199 180,-199 180,-178 8,-178"/>
<polygon fill="none" stroke="#8ccbf2" points="8,-178 8,-199 180,-199 180,-178 8,-178"/>
<text text-anchor="start" x="11" y="-185.8" font-family="mono" font-size="14.00" fill="#c83500">in</text>
<text text-anchor="start" x="28" y="-185.8" font-family="Times,serif" font-size="14.00"> : </text>
<text text-anchor="start" x="42" y="-185.8" font-family="mono" font-size="14.00" fill="#c83500">string</text>
<polygon fill="#ddeeff" stroke="transparent" points="8,-157 8,-178 180,-178 180,-157 8,-157"/>
<polygon fill="none" stroke="#8ccbf2" points="8,-157 8,-178 180,-178 180,-157 8,-157"/>
<text text-anchor="start" x="11" y="-164.8" font-family="mono" font-size="14.00" fill="#c83500">name</text>
<text text-anchor="start" x="45" y="-164.8" font-family="Times,serif" font-size="14.00"> : </text>
<text text-anchor="start" x="59" y="-164.8" font-family="mono" font-size="14.00" fill="#c83500">string</text>
</g>
<!-- SecurityScheme -->
<g id="node9" class="node">
<title>SecurityScheme</title>
<polygon fill="#8ccbf2" stroke="transparent" points="677,-45.5 677,-66.5 1110,-66.5 1110,-45.5 677,-45.5"/>
<polygon fill="none" stroke="#8ccbf2" points="677,-45.5 677,-66.5 1110,-66.5 1110,-45.5 677,-45.5"/>
<text text-anchor="start" x="835.5" y="-53.3" font-family="mono" font-weight="bold" font-size="14.00" fill="#c83500">SecurityScheme</text>
<polygon fill="#ddeeff" stroke="transparent" points="677,-24.5 677,-45.5 1110,-45.5 1110,-24.5 677,-24.5"/>
<polygon fill="none" stroke="#8ccbf2" points="677,-24.5 677,-45.5 1110,-45.5 1110,-24.5 677,-24.5"/>
<text text-anchor="start" x="680" y="-32.3" font-family="mono" font-size="14.00" fill="#c83500">@type</text>
<text text-anchor="start" x="722" y="-32.3" font-family="Times,serif" font-size="14.00"> : </text>
<text text-anchor="start" x="736" y="-32.3" font-family="Times,serif" font-style="italic" font-size="14.00">(Array of) </text>
<text text-anchor="start" x="809" y="-32.3" font-family="mono" font-size="14.00" fill="#c83500">string</text>
<polygon fill="#ddeeff" stroke="transparent" points="677,-3.5 677,-24.5 1110,-24.5 1110,-3.5 677,-3.5"/>
<polygon fill="none" stroke="#8ccbf2" points="677,-3.5 677,-24.5 1110,-24.5 1110,-3.5 677,-3.5"/>
<text text-anchor="start" x="680" y="-11.3" font-family="mono" font-size="14.00" fill="#c83500">description</text>
<text text-anchor="start" x="771" y="-11.3" font-family="Times,serif" font-size="14.00"> : Map of </text>
<text text-anchor="start" x="839" y="-11.3" font-family="mono" font-size="14.00" fill="#c83500">string</text>
<text text-anchor="start" x="889" y="-11.3" font-family="mono" font-size="14.00" fill="#c83500">descriptions</text>
<text text-anchor="start" x="989" y="-11.3" font-family="Times,serif" font-size="14.00"> : Map of </text>
<text text-anchor="start" x="1057" y="-11.3" font-family="mono" font-size="14.00" fill="#c83500">string</text>
</g>
<!-- APIKeySecurityScheme&#45;&gt;SecurityScheme -->
<g id="edge2" class="edge">
<title>APIKeySecurityScheme&#45;&gt;SecurityScheme</title>
<path fill="none" stroke="black" d="M138.64,-153.36C155.98,-141.58 176.56,-129.5 197,-122 279.5,-91.71 490.31,-68.39 658.47,-53.82"/>
<polygon fill="white" stroke="black" points="658.8,-57.3 668.46,-52.95 658.2,-50.33 658.8,-57.3"/>
</g>
<!-- DataSchema -->
<g id="node10" class="node">
<title>DataSchema</title>
<polygon fill="#f2f2f2" stroke="transparent" points="50,-24.5 50,-45.5 139,-45.5 139,-24.5 50,-24.5"/>
<polygon fill="none" stroke="#8c8c8c" points="50,-24.5 50,-45.5 139,-45.5 139,-24.5 50,-24.5"/>
<text text-anchor="start" x="53" y="-32.3" font-family="mono" font-weight="bold" font-size="14.00">DataSchema</text>
</g>
<!-- APIKeySecurityScheme&#45;&gt;DataSchema -->
<g id="edge1" class="edge">
<title>APIKeySecurityScheme&#45;&gt;DataSchema</title>
<path fill="none" stroke="black" d="M94,-153.24C94,-126.15 94,-89.05 94,-64"/>
<polygon fill="black" stroke="black" points="97.5,-63.75 94,-53.75 90.5,-63.75 97.5,-63.75"/>
<text text-anchor="start" x="94" y="-92.8" font-family="mono" font-size="14.00" fill="#c83500">uriVariables</text>
<text text-anchor="middle" x="81.5" y="-57.55" font-family="Times,serif" font-size="14.00">0..*</text>
</g>
<!-- BasicSecurityScheme -->
<g id="node2" class="node">
<title>BasicSecurityScheme</title>
<polygon fill="#8ccbf2" stroke="transparent" points="215,-199 215,-220 378,-220 378,-199 215,-199"/>
<polygon fill="none" stroke="#8ccbf2" points="215,-199 215,-220 378,-220 378,-199 215,-199"/>
<text text-anchor="start" x="218" y="-206.8" font-family="mono" font-weight="bold" font-size="14.00" fill="#c83500">BasicSecurityScheme</text>
<polygon fill="#ddeeff" stroke="transparent" points="215,-178 215,-199 378,-199 378,-178 215,-178"/>
<polygon fill="none" stroke="#8ccbf2" points="215,-178 215,-199 378,-199 378,-178 215,-178"/>
<text text-anchor="start" x="218" y="-185.8" font-family="mono" font-size="14.00" fill="#c83500">in</text>
<text text-anchor="start" x="235" y="-185.8" font-family="Times,serif" font-size="14.00"> : </text>
<text text-anchor="start" x="249" y="-185.8" font-family="mono" font-size="14.00" fill="#c83500">string</text>
<polygon fill="#ddeeff" stroke="transparent" points="215,-157 215,-178 378,-178 378,-157 215,-157"/>
<polygon fill="none" stroke="#8ccbf2" points="215,-157 215,-178 378,-178 378,-157 215,-157"/>
<text text-anchor="start" x="218" y="-164.8" font-family="mono" font-size="14.00" fill="#c83500">name</text>
<text text-anchor="start" x="252" y="-164.8" font-family="Times,serif" font-size="14.00"> : </text>
<text text-anchor="start" x="266" y="-164.8" font-family="mono" font-size="14.00" fill="#c83500">string</text>
</g>
<!-- BasicSecurityScheme&#45;&gt;SecurityScheme -->
<g id="edge3" class="edge">
<title>BasicSecurityScheme&#45;&gt;SecurityScheme</title>
<path fill="none" stroke="black" d="M339.61,-153.2C356.12,-141.62 375.62,-129.72 395,-122 477.8,-89.02 573.32,-68.75 658.42,-56.3"/>
<polygon fill="white" stroke="black" points="659.08,-59.74 668.48,-54.86 658.09,-52.81 659.08,-59.74"/>
</g>
<!-- BearerSecurityScheme -->
<g id="node3" class="node">
<title>BearerSecurityScheme</title>
<polygon fill="#8ccbf2" stroke="transparent" points="412,-231 412,-252 590,-252 590,-231 412,-231"/>
<polygon fill="none" stroke="#8ccbf2" points="412,-231 412,-252 590,-252 590,-231 412,-231"/>
<text text-anchor="start" x="418" y="-238.8" font-family="mono" font-weight="bold" font-size="14.00" fill="#c83500">BearerSecurityScheme</text>
<polygon fill="#ddeeff" stroke="transparent" points="412,-210 412,-231 590,-231 590,-210 412,-210"/>
<polygon fill="none" stroke="#8ccbf2" points="412,-210 412,-231 590,-231 590,-210 412,-210"/>
<text text-anchor="start" x="415" y="-217.8" font-family="mono" font-size="14.00" fill="#c83500">alg</text>
<text text-anchor="start" x="440" y="-217.8" font-family="Times,serif" font-size="14.00"> : </text>
<text text-anchor="start" x="454" y="-217.8" font-family="mono" font-size="14.00" fill="#c83500">string</text>
<polygon fill="#ddeeff" stroke="transparent" points="412,-189 412,-210 590,-210 590,-189 412,-189"/>
<polygon fill="none" stroke="#8ccbf2" points="412,-189 412,-210 590,-210 590,-189 412,-189"/>
<text text-anchor="start" x="415" y="-196.8" font-family="mono" font-size="14.00" fill="#c83500">authorization</text>
<text text-anchor="start" x="523" y="-196.8" font-family="Times,serif" font-size="14.00"> : </text>
<text text-anchor="start" x="537" y="-196.8" font-family="mono" font-size="14.00" fill="#c83500">anyURI</text>
<polygon fill="#ddeeff" stroke="transparent" points="412,-168 412,-189 590,-189 590,-168 412,-168"/>
<polygon fill="none" stroke="#8ccbf2" points="412,-168 412,-189 590,-189 590,-168 412,-168"/>
<text text-anchor="start" x="415" y="-175.8" font-family="mono" font-size="14.00" fill="#c83500">format</text>
<text text-anchor="start" x="465" y="-175.8" font-family="Times,serif" font-size="14.00"> : </text>
<text text-anchor="start" x="479" y="-175.8" font-family="mono" font-size="14.00" fill="#c83500">string</text>
<polygon fill="#ddeeff" stroke="transparent" points="412,-147 412,-168 590,-168 590,-147 412,-147"/>
<polygon fill="none" stroke="#8ccbf2" points="412,-147 412,-168 590,-168 590,-147 412,-147"/>
<text text-anchor="start" x="415" y="-154.8" font-family="mono" font-size="14.00" fill="#c83500">in</text>
<text text-anchor="start" x="432" y="-154.8" font-family="Times,serif" font-size="14.00"> : </text>
<text text-anchor="start" x="446" y="-154.8" font-family="mono" font-size="14.00" fill="#c83500">string</text>
<polygon fill="#ddeeff" stroke="transparent" points="412,-126 412,-147 590,-147 590,-126 412,-126"/>
<polygon fill="none" stroke="#8ccbf2" points="412,-126 412,-147 590,-147 590,-126 412,-126"/>
<text text-anchor="start" x="415" y="-133.8" font-family="mono" font-size="14.00" fill="#c83500">name</text>
<text text-anchor="start" x="449" y="-133.8" font-family="Times,serif" font-size="14.00"> : </text>
<text text-anchor="start" x="463" y="-133.8" font-family="mono" font-size="14.00" fill="#c83500">string</text>
</g>
<!-- BearerSecurityScheme&#45;&gt;SecurityScheme -->
<g id="edge4" class="edge">
<title>BearerSecurityScheme&#45;&gt;SecurityScheme</title>
<path fill="none" stroke="black" d="M598.07,-126.21C601.05,-124.74 604.04,-123.34 607,-122 649.14,-102.99 696.64,-86.85 740.65,-73.89"/>
<polygon fill="white" stroke="black" points="741.65,-77.24 750.27,-71.08 739.69,-70.52 741.65,-77.24"/>
</g>
<!-- ComboSecurityScheme -->
<g id="node4" class="node">
<title>ComboSecurityScheme</title>
<polygon fill="#8ccbf2" stroke="transparent" points="624,-199 624,-220 902,-220 902,-199 624,-199"/>
<polygon fill="none" stroke="#8ccbf2" points="624,-199 624,-220 902,-220 902,-199 624,-199"/>
<text text-anchor="start" x="684.5" y="-206.8" font-family="mono" font-weight="bold" font-size="14.00" fill="#c83500">ComboSecurityScheme</text>
<polygon fill="#ddeeff" stroke="transparent" points="624,-178 624,-199 902,-199 902,-178 624,-178"/>
<polygon fill="none" stroke="#8ccbf2" points="624,-178 624,-199 902,-199 902,-178 624,-178"/>
<text text-anchor="start" x="627" y="-185.8" font-family="mono" font-size="14.00" fill="#c83500">oneOf</text>
<text text-anchor="start" x="669" y="-185.8" font-family="Times,serif" font-size="14.00"> : (Array of) </text>
<text text-anchor="start" x="756" y="-185.8" font-family="mono" font-size="14.00" fill="#c83500">string</text>
<text text-anchor="start" x="806" y="-185.8" font-family="Times,serif" font-size="14.00"> </text>
<text text-anchor="start" x="811" y="-185.8" font-family="Times,serif" font-style="italic" font-size="14.00">(mandatory)</text>
<polygon fill="#ddeeff" stroke="transparent" points="624,-157 624,-178 902,-178 902,-157 624,-157"/>
<polygon fill="none" stroke="#8ccbf2" points="624,-157 624,-178 902,-178 902,-157 624,-157"/>
<text text-anchor="start" x="627" y="-164.8" font-family="mono" font-size="14.00" fill="#c83500">allOf</text>
<text text-anchor="start" x="669" y="-164.8" font-family="Times,serif" font-size="14.00"> : (Array of) </text>
<text text-anchor="start" x="756" y="-164.8" font-family="mono" font-size="14.00" fill="#c83500">string</text>
<text text-anchor="start" x="806" y="-164.8" font-family="Times,serif" font-size="14.00"> </text>
<text text-anchor="start" x="811" y="-164.8" font-family="Times,serif" font-style="italic" font-size="14.00">(mandatory)</text>
</g>
<!-- ComboSecurityScheme&#45;&gt;SecurityScheme -->
<g id="edge5" class="edge">
<title>ComboSecurityScheme&#45;&gt;SecurityScheme</title>
<path fill="none" stroke="black" d="M792.82,-153.24C811.82,-131.11 836.54,-102.29 856.68,-78.83"/>
<polygon fill="white" stroke="black" points="859.46,-80.96 863.31,-71.1 854.15,-76.41 859.46,-80.96"/>
</g>
<!-- DigestSecurityScheme -->
<g id="node5" class="node">
<title>DigestSecurityScheme</title>
<polygon fill="#8ccbf2" stroke="transparent" points="936,-210 936,-231 1108,-231 1108,-210 936,-210"/>
<polygon fill="none" stroke="#8ccbf2" points="936,-210 936,-231 1108,-231 1108,-210 936,-210"/>
<text text-anchor="start" x="939" y="-217.8" font-family="mono" font-weight="bold" font-size="14.00" fill="#c83500">DigestSecurityScheme</text>
<polygon fill="#ddeeff" stroke="transparent" points="936,-189 936,-210 1108,-210 1108,-189 936,-189"/>
<polygon fill="none" stroke="#8ccbf2" points="936,-189 936,-210 1108,-210 1108,-189 936,-189"/>
<text text-anchor="start" x="939" y="-196.8" font-family="mono" font-size="14.00" fill="#c83500">qop</text>
<text text-anchor="start" x="964" y="-196.8" font-family="Times,serif" font-size="14.00"> : </text>
<text text-anchor="start" x="978" y="-196.8" font-family="mono" font-size="14.00" fill="#c83500">string</text>
<polygon fill="#ddeeff" stroke="transparent" points="936,-168 936,-189 1108,-189 1108,-168 936,-168"/>
<polygon fill="none" stroke="#8ccbf2" points="936,-168 936,-189 1108,-189 1108,-168 936,-168"/>
<text text-anchor="start" x="939" y="-175.8" font-family="mono" font-size="14.00" fill="#c83500">in</text>
<text text-anchor="start" x="956" y="-175.8" font-family="Times,serif" font-size="14.00"> : </text>
<text text-anchor="start" x="970" y="-175.8" font-family="mono" font-size="14.00" fill="#c83500">string</text>
<polygon fill="#ddeeff" stroke="transparent" points="936,-147 936,-168 1108,-168 1108,-147 936,-147"/>
<polygon fill="none" stroke="#8ccbf2" points="936,-147 936,-168 1108,-168 1108,-147 936,-147"/>
<text text-anchor="start" x="939" y="-154.8" font-family="mono" font-size="14.00" fill="#c83500">name</text>
<text text-anchor="start" x="973" y="-154.8" font-family="Times,serif" font-size="14.00"> : </text>
<text text-anchor="start" x="987" y="-154.8" font-family="mono" font-size="14.00" fill="#c83500">string</text>
</g>
<!-- DigestSecurityScheme&#45;&gt;SecurityScheme -->
<g id="edge6" class="edge">
<title>DigestSecurityScheme&#45;&gt;SecurityScheme</title>
<path fill="none" stroke="black" d="M983.65,-142.96C966.34,-122.63 946,-98.75 928.98,-78.76"/>
<polygon fill="white" stroke="black" points="931.55,-76.37 922.4,-71.03 926.22,-80.91 931.55,-76.37"/>
</g>
<!-- NoSecurityScheme -->
<g id="node6" class="node">
<title>NoSecurityScheme</title>
<polygon fill="#8ccbf2" stroke="transparent" points="1143,-178 1143,-199 1282,-199 1282,-178 1143,-178"/>
<polygon fill="none" stroke="#8ccbf2" points="1143,-178 1143,-199 1282,-199 1282,-178 1143,-178"/>
<text text-anchor="start" x="1146" y="-185.8" font-family="mono" font-weight="bold" font-size="14.00" fill="#c83500">NoSecurityScheme</text>
</g>
<!-- NoSecurityScheme&#45;&gt;SecurityScheme -->
<g id="edge7" class="edge">
<title>NoSecurityScheme&#45;&gt;SecurityScheme</title>
<path fill="none" stroke="black" d="M1192.77,-170.74C1175.87,-156.24 1150.11,-135.75 1125,-122 1091.22,-103.5 1052.61,-87.46 1016.72,-74.44"/>
<polygon fill="white" stroke="black" points="1017.76,-71.09 1007.17,-71.02 1015.4,-77.68 1017.76,-71.09"/>
</g>
<!-- OAuth2SecurityScheme -->
<g id="node7" class="node">
<title>OAuth2SecurityScheme</title>
<polygon fill="#8ccbf2" stroke="transparent" points="1316,-199 1316,-220 1513,-220 1513,-199 1316,-199"/>
<polygon fill="none" stroke="#8ccbf2" points="1316,-199 1316,-220 1513,-220 1513,-199 1316,-199"/>
<text text-anchor="start" x="1331.5" y="-206.8" font-family="mono" font-weight="bold" font-size="14.00" fill="#c83500">OAuth2SecurityScheme</text>
<polygon fill="#ddeeff" stroke="transparent" points="1316,-178 1316,-199 1513,-199 1513,-178 1316,-178"/>
<polygon fill="none" stroke="#8ccbf2" points="1316,-178 1316,-199 1513,-199 1513,-178 1316,-178"/>
<text text-anchor="start" x="1319" y="-185.8" font-family="mono" font-size="14.00" fill="#c83500">scopes</text>
<text text-anchor="start" x="1369" y="-185.8" font-family="Times,serif" font-size="14.00"> : (Array of) </text>
<text text-anchor="start" x="1456" y="-185.8" font-family="mono" font-size="14.00" fill="#c83500">string</text>
<polygon fill="#ddeeff" stroke="transparent" points="1316,-157 1316,-178 1513,-178 1513,-157 1316,-157"/>
<polygon fill="none" stroke="#8ccbf2" points="1316,-157 1316,-178 1513,-178 1513,-157 1316,-157"/>
<text text-anchor="start" x="1319" y="-164.8" font-family="mono" font-size="14.00" fill="#c83500">flow</text>
<text text-anchor="start" x="1353" y="-164.8" font-family="Times,serif" font-size="14.00"> : </text>
<text text-anchor="start" x="1367" y="-164.8" font-family="mono" font-size="14.00" fill="#c83500">string</text>
<text text-anchor="start" x="1417" y="-164.8" font-family="Times,serif" font-size="14.00"> </text>
<text text-anchor="start" x="1422" y="-164.8" font-family="Times,serif" font-style="italic" font-size="14.00">(mandatory)</text>
</g>
<!-- OAuth2SecurityScheme&#45;&gt;SecurityScheme -->
<g id="edge8" class="edge">
<title>OAuth2SecurityScheme&#45;&gt;SecurityScheme</title>
<path fill="none" stroke="black" d="M1361.9,-153.48C1342.76,-142.07 1320.51,-130.2 1299,-122 1244.84,-101.35 1184.61,-85.23 1127.48,-72.84"/>
<polygon fill="white" stroke="black" points="1128.11,-69.4 1117.6,-70.73 1126.65,-76.24 1128.11,-69.4"/>
</g>
<!-- PSKSecurityScheme -->
<g id="node8" class="node">
<title>PSKSecurityScheme</title>
<polygon fill="#8ccbf2" stroke="transparent" points="1547,-189 1547,-210 1694,-210 1694,-189 1547,-189"/>
<polygon fill="none" stroke="#8ccbf2" points="1547,-189 1547,-210 1694,-210 1694,-189 1547,-189"/>
<text text-anchor="start" x="1550" y="-196.8" font-family="mono" font-weight="bold" font-size="14.00" fill="#c83500">PSKSecurityScheme</text>
<polygon fill="#ddeeff" stroke="transparent" points="1547,-168 1547,-189 1694,-189 1694,-168 1547,-168"/>
<polygon fill="none" stroke="#8ccbf2" points="1547,-168 1547,-189 1694,-189 1694,-168 1547,-168"/>
<text text-anchor="start" x="1550" y="-175.8" font-family="mono" font-size="14.00" fill="#c83500">identity</text>
<text text-anchor="start" x="1617" y="-175.8" font-family="Times,serif" font-size="14.00"> : </text>
<text text-anchor="start" x="1631" y="-175.8" font-family="mono" font-size="14.00" fill="#c83500">string</text>
</g>
<!-- PSKSecurityScheme&#45;&gt;SecurityScheme -->
<g id="edge9" class="edge">
<title>PSKSecurityScheme&#45;&gt;SecurityScheme</title>
<path fill="none" stroke="black" d="M1594.57,-163.93C1577.61,-149.33 1554.08,-131.7 1530,-122 1458.49,-93.18 1278.54,-70.56 1128.08,-55.84"/>
<polygon fill="white" stroke="black" points="1128.05,-52.32 1117.76,-54.84 1127.38,-59.29 1128.05,-52.32"/>
</g>
</g>
</svg>
