<?xml version="1.0" encoding="UTF-8" standalone="no"?>
<!DOCTYPE svg PUBLIC "-//W3C//DTD SVG 1.1//EN"
 "http://www.w3.org/Graphics/SVG/1.1/DTD/svg11.dtd">
<!-- Generated by graphviz version 4.0.0 (20220529.0937)
 -->
<!-- Pages: 1 -->
<svg width="1846pt" height="358pt"
 viewBox="0.00 0.00 1845.50 358.00" xmlns="http://www.w3.org/2000/svg" xmlns:xlink="http://www.w3.org/1999/xlink">
<g id="graph0" class="graph" transform="scale(1 1) rotate(0) translate(4 354)">
<polygon fill="white" stroke="transparent" points="-4,4 -4,-354 1841.5,-354 1841.5,4 -4,4"/>
<!-- APIKeySecurityScheme -->
<g id="node1" class="node">
<title>APIKeySecurityScheme</title>
<polygon fill="#8ccbf2" stroke="transparent" points="8,-293 8,-314 180,-314 180,-293 8,-293"/>
<polygon fill="none" stroke="#8ccbf2" points="8,-293 8,-314 180,-314 180,-293 8,-293"/>
<text text-anchor="start" x="11" y="-300.8" font-family="mono" font-weight="bold" font-size="14.00" fill="#c83500">APIKeySecurityScheme</text>
<polygon fill="#ddeeff" stroke="transparent" points="8,-272 8,-293 180,-293 180,-272 8,-272"/>
<polygon fill="none" stroke="#8ccbf2" points="8,-272 8,-293 180,-293 180,-272 8,-272"/>
<text text-anchor="start" x="11" y="-279.8" font-family="mono" font-size="14.00" fill="#c83500">name</text>
<text text-anchor="start" x="45" y="-279.8" font-family="Times New Roman,serif" font-size="14.00"> : </text>
<text text-anchor="start" x="56" y="-279.8" font-family="mono" font-size="14.00" fill="#c83500">string</text>
<polygon fill="#ddeeff" stroke="transparent" points="8,-251 8,-272 180,-272 180,-251 8,-251"/>
<polygon fill="none" stroke="#8ccbf2" points="8,-251 8,-272 180,-272 180,-251 8,-251"/>
<text text-anchor="start" x="11" y="-258.8" font-family="mono" font-size="14.00" fill="#c83500">in</text>
<text text-anchor="start" x="28" y="-258.8" font-family="Times New Roman,serif" font-size="14.00"> : </text>
<text text-anchor="start" x="39" y="-258.8" font-family="mono" font-size="14.00" fill="#c83500">string</text>
</g>
<!-- SecurityScheme -->
<g id="node10" class="node">
<title>SecurityScheme</title>
<polygon fill="#8ccbf2" stroke="transparent" points="836,-154 836,-175 1030,-175 1030,-154 836,-154"/>
<polygon fill="none" stroke="#8ccbf2" points="836,-154 836,-175 1030,-175 1030,-154 836,-154"/>
<text text-anchor="start" x="875" y="-161.8" font-family="mono" font-weight="bold" font-size="14.00" fill="#c83500">SecurityScheme</text>
<polygon fill="#ddeeff" stroke="transparent" points="836,-133 836,-154 1030,-154 1030,-133 836,-133"/>
<polygon fill="none" stroke="#8ccbf2" points="836,-133 836,-154 1030,-154 1030,-133 836,-133"/>
<text text-anchor="start" x="839" y="-140.8" font-family="mono" font-size="14.00" fill="#c83500">@type</text>
<text text-anchor="start" x="881" y="-140.8" font-family="Times New Roman,serif" font-size="14.00"> : </text>
<text text-anchor="start" x="892" y="-140.8" font-family="Times New Roman,serif" font-style="italic" font-size="14.00">(Array of) </text>
<text text-anchor="start" x="953" y="-140.8" font-family="mono" font-size="14.00" fill="#c83500">string</text>
<polygon fill="#ddeeff" stroke="transparent" points="836,-112 836,-133 1030,-133 1030,-112 836,-112"/>
<polygon fill="none" stroke="#8ccbf2" points="836,-112 836,-133 1030,-133 1030,-112 836,-112"/>
<text text-anchor="start" x="839" y="-119.8" font-family="mono" font-size="14.00" fill="#c83500">description</text>
<text text-anchor="start" x="930" y="-119.8" font-family="Times New Roman,serif" font-size="14.00"> : </text>
<text text-anchor="start" x="941" y="-119.8" font-family="mono" font-size="14.00" fill="#c83500">string</text>
<polygon fill="#ddeeff" stroke="transparent" points="836,-91 836,-112 1030,-112 1030,-91 836,-91"/>
<polygon fill="none" stroke="#8ccbf2" points="836,-91 836,-112 1030,-112 1030,-91 836,-91"/>
<text text-anchor="start" x="839" y="-98.8" font-family="mono" font-size="14.00" fill="#c83500">scheme</text>
<text text-anchor="start" x="889" y="-98.8" font-family="Times New Roman,serif" font-size="14.00"> : </text>
<text text-anchor="start" x="900" y="-98.8" font-family="mono" font-size="14.00" fill="#c83500">string</text>
<text text-anchor="start" x="950" y="-98.8" font-family="Times New Roman,serif" font-size="14.00"> </text>
<text text-anchor="start" x="954" y="-98.8" font-family="Times New Roman,serif" font-style="italic" font-size="14.00">(mandatory)</text>
</g>
<!-- APIKeySecurityScheme&#45;&gt;SecurityScheme -->
<g id="edge2" class="edge">
<title>APIKeySecurityScheme&#45;&gt;SecurityScheme</title>
<path fill="none" stroke="black" d="M138.05,-247.45C155.48,-235.53 176.28,-223.34 197,-216 308.53,-176.5 640.12,-151.41 817.7,-140.43"/>
<polygon fill="white" stroke="black" points="818.1,-143.91 827.87,-139.81 817.67,-136.92 818.1,-143.91"/>
</g>
<!-- AutoSecurityScheme -->
<g id="node2" class="node">
<title>AutoSecurityScheme</title>
<polygon fill="#8ccbf2" stroke="transparent" points="215,-272 215,-293 370,-293 370,-272 215,-272"/>
<polygon fill="none" stroke="#8ccbf2" points="215,-272 215,-293 370,-293 370,-272 215,-272"/>
<text text-anchor="start" x="218" y="-279.8" font-family="mono" font-weight="bold" font-size="14.00" fill="#c83500">AutoSecurityScheme</text>
</g>
<!-- AutoSecurityScheme&#45;&gt;SecurityScheme -->
<g id="edge3" class="edge">
<title>AutoSecurityScheme&#45;&gt;SecurityScheme</title>
<path fill="none" stroke="black" d="M310.6,-264.94C328.53,-249.53 357.12,-227.55 386,-216 527.72,-159.32 704.33,-141.41 817.87,-135.98"/>
<polygon fill="white" stroke="black" points="818.15,-139.47 827.98,-135.52 817.83,-132.48 818.15,-139.47"/>
</g>
<!-- BasicSecurityScheme -->
<g id="node3" class="node">
<title>BasicSecurityScheme</title>
<polygon fill="#8ccbf2" stroke="transparent" points="404,-293 404,-314 567,-314 567,-293 404,-293"/>
<polygon fill="none" stroke="#8ccbf2" points="404,-293 404,-314 567,-314 567,-293 404,-293"/>
<text text-anchor="start" x="407" y="-300.8" font-family="mono" font-weight="bold" font-size="14.00" fill="#c83500">BasicSecurityScheme</text>
<polygon fill="#ddeeff" stroke="transparent" points="404,-272 404,-293 567,-293 567,-272 404,-272"/>
<polygon fill="none" stroke="#8ccbf2" points="404,-272 404,-293 567,-293 567,-272 404,-272"/>
<text text-anchor="start" x="407" y="-279.8" font-family="mono" font-size="14.00" fill="#c83500">name</text>
<text text-anchor="start" x="441" y="-279.8" font-family="Times New Roman,serif" font-size="14.00"> : </text>
<text text-anchor="start" x="452" y="-279.8" font-family="mono" font-size="14.00" fill="#c83500">string</text>
<polygon fill="#ddeeff" stroke="transparent" points="404,-251 404,-272 567,-272 567,-251 404,-251"/>
<polygon fill="none" stroke="#8ccbf2" points="404,-251 404,-272 567,-272 567,-251 404,-251"/>
<text text-anchor="start" x="407" y="-258.8" font-family="mono" font-size="14.00" fill="#c83500">in</text>
<text text-anchor="start" x="424" y="-258.8" font-family="Times New Roman,serif" font-size="14.00"> : </text>
<text text-anchor="start" x="435" y="-258.8" font-family="mono" font-size="14.00" fill="#c83500">string</text>
</g>
<!-- BasicSecurityScheme&#45;&gt;SecurityScheme -->
<g id="edge4" class="edge">
<title>BasicSecurityScheme&#45;&gt;SecurityScheme</title>
<path fill="none" stroke="black" d="M528.88,-247.48C545.13,-236.07 564.2,-224.2 583,-216 657.83,-183.35 747.58,-162.66 817.45,-150.23"/>
<polygon fill="white" stroke="black" points="818.37,-153.62 827.62,-148.45 817.16,-146.72 818.37,-153.62"/>
</g>
<!-- BearerSecurityScheme -->
<g id="node4" class="node">
<title>BearerSecurityScheme</title>
<polygon fill="#8ccbf2" stroke="transparent" points="601,-325 601,-346 776,-346 776,-325 601,-325"/>
<polygon fill="none" stroke="#8ccbf2" points="601,-325 601,-346 776,-346 776,-325 601,-325"/>
<text text-anchor="start" x="605.5" y="-332.8" font-family="mono" font-weight="bold" font-size="14.00" fill="#c83500">BearerSecurityScheme</text>
<polygon fill="#ddeeff" stroke="transparent" points="601,-304 601,-325 776,-325 776,-304 601,-304"/>
<polygon fill="none" stroke="#8ccbf2" points="601,-304 601,-325 776,-325 776,-304 601,-304"/>
<text text-anchor="start" x="604" y="-311.8" font-family="mono" font-size="14.00" fill="#c83500">alg</text>
<text text-anchor="start" x="629" y="-311.8" font-family="Times New Roman,serif" font-size="14.00"> : </text>
<text text-anchor="start" x="640" y="-311.8" font-family="mono" font-size="14.00" fill="#c83500">string</text>
<polygon fill="#ddeeff" stroke="transparent" points="601,-283 601,-304 776,-304 776,-283 601,-283"/>
<polygon fill="none" stroke="#8ccbf2" points="601,-283 601,-304 776,-304 776,-283 601,-283"/>
<text text-anchor="start" x="604" y="-290.8" font-family="mono" font-size="14.00" fill="#c83500">name</text>
<text text-anchor="start" x="638" y="-290.8" font-family="Times New Roman,serif" font-size="14.00"> : </text>
<text text-anchor="start" x="649" y="-290.8" font-family="mono" font-size="14.00" fill="#c83500">string</text>
<polygon fill="#ddeeff" stroke="transparent" points="601,-262 601,-283 776,-283 776,-262 601,-262"/>
<polygon fill="none" stroke="#8ccbf2" points="601,-262 601,-283 776,-283 776,-262 601,-262"/>
<text text-anchor="start" x="604" y="-269.8" font-family="mono" font-size="14.00" fill="#c83500">authorization</text>
<text text-anchor="start" x="712" y="-269.8" font-family="Times New Roman,serif" font-size="14.00"> : </text>
<text text-anchor="start" x="723" y="-269.8" font-family="mono" font-size="14.00" fill="#c83500">anyURI</text>
<polygon fill="#ddeeff" stroke="transparent" points="601,-241 601,-262 776,-262 776,-241 601,-241"/>
<polygon fill="none" stroke="#8ccbf2" points="601,-241 601,-262 776,-262 776,-241 601,-241"/>
<text text-anchor="start" x="604" y="-248.8" font-family="mono" font-size="14.00" fill="#c83500">format</text>
<text text-anchor="start" x="654" y="-248.8" font-family="Times New Roman,serif" font-size="14.00"> : </text>
<text text-anchor="start" x="665" y="-248.8" font-family="mono" font-size="14.00" fill="#c83500">string</text>
<polygon fill="#ddeeff" stroke="transparent" points="601,-220 601,-241 776,-241 776,-220 601,-220"/>
<polygon fill="none" stroke="#8ccbf2" points="601,-220 601,-241 776,-241 776,-220 601,-220"/>
<text text-anchor="start" x="604" y="-227.8" font-family="mono" font-size="14.00" fill="#c83500">in</text>
<text text-anchor="start" x="621" y="-227.8" font-family="Times New Roman,serif" font-size="14.00"> : </text>
<text text-anchor="start" x="632" y="-227.8" font-family="mono" font-size="14.00" fill="#c83500">string</text>
</g>
<!-- BearerSecurityScheme&#45;&gt;SecurityScheme -->
<g id="edge5" class="edge">
<title>BearerSecurityScheme&#45;&gt;SecurityScheme</title>
<path fill="none" stroke="black" d="M783.77,-221.63C786.88,-219.72 789.96,-217.84 793,-216 810.18,-205.58 828.65,-194.59 846.36,-184.18"/>
<polygon fill="white" stroke="black" points="848.14,-187.19 854.99,-179.11 844.59,-181.16 848.14,-187.19"/>
</g>
<!-- ComboSecurityScheme -->
<g id="node5" class="node">
<title>ComboSecurityScheme</title>
<polygon fill="#8ccbf2" stroke="transparent" points="810,-293 810,-314 1056,-314 1056,-293 810,-293"/>
<polygon fill="none" stroke="#8ccbf2" points="810,-293 810,-314 1056,-314 1056,-293 810,-293"/>
<text text-anchor="start" x="854.5" y="-300.8" font-family="mono" font-weight="bold" font-size="14.00" fill="#c83500">ComboSecurityScheme</text>
<polygon fill="#ddeeff" stroke="transparent" points="810,-272 810,-293 1056,-293 1056,-272 810,-272"/>
<polygon fill="none" stroke="#8ccbf2" points="810,-272 810,-293 1056,-293 1056,-272 810,-272"/>
<text text-anchor="start" x="813" y="-279.8" font-family="mono" font-size="14.00" fill="#c83500">oneOf</text>
<text text-anchor="start" x="855" y="-279.8" font-family="Times New Roman,serif" font-size="14.00"> : (Array of) </text>
<text text-anchor="start" x="926" y="-279.8" font-family="mono" font-size="14.00" fill="#c83500">string</text>
<text text-anchor="start" x="976" y="-279.8" font-family="Times New Roman,serif" font-size="14.00"> </text>
<text text-anchor="start" x="980" y="-279.8" font-family="Times New Roman,serif" font-style="italic" font-size="14.00">(mandatory)</text>
<polygon fill="#ddeeff" stroke="transparent" points="810,-251 810,-272 1056,-272 1056,-251 810,-251"/>
<polygon fill="none" stroke="#8ccbf2" points="810,-251 810,-272 1056,-272 1056,-251 810,-251"/>
<text text-anchor="start" x="813" y="-258.8" font-family="mono" font-size="14.00" fill="#c83500">allOf</text>
<text text-anchor="start" x="855" y="-258.8" font-family="Times New Roman,serif" font-size="14.00"> : (Array of) </text>
<text text-anchor="start" x="926" y="-258.8" font-family="mono" font-size="14.00" fill="#c83500">string</text>
<text text-anchor="start" x="976" y="-258.8" font-family="Times New Roman,serif" font-size="14.00"> </text>
<text text-anchor="start" x="980" y="-258.8" font-family="Times New Roman,serif" font-style="italic" font-size="14.00">(mandatory)</text>
</g>
<!-- ComboSecurityScheme&#45;&gt;SecurityScheme -->
<g id="edge6" class="edge">
<title>ComboSecurityScheme&#45;&gt;SecurityScheme</title>
<path fill="none" stroke="black" d="M933,-247.3C933,-230.06 933,-208.82 933,-189.4"/>
<polygon fill="white" stroke="black" points="936.5,-189.14 933,-179.14 929.5,-189.14 936.5,-189.14"/>
</g>
<!-- DigestSecurityScheme -->
<g id="node6" class="node">
<title>DigestSecurityScheme</title>
<polygon fill="#8ccbf2" stroke="transparent" points="1090,-304 1090,-325 1262,-325 1262,-304 1090,-304"/>
<polygon fill="none" stroke="#8ccbf2" points="1090,-304 1090,-325 1262,-325 1262,-304 1090,-304"/>
<text text-anchor="start" x="1093" y="-311.8" font-family="mono" font-weight="bold" font-size="14.00" fill="#c83500">DigestSecurityScheme</text>
<polygon fill="#ddeeff" stroke="transparent" points="1090,-283 1090,-304 1262,-304 1262,-283 1090,-283"/>
<polygon fill="none" stroke="#8ccbf2" points="1090,-283 1090,-304 1262,-304 1262,-283 1090,-283"/>
<text text-anchor="start" x="1093" y="-290.8" font-family="mono" font-size="14.00" fill="#c83500">name</text>
<text text-anchor="start" x="1127" y="-290.8" font-family="Times New Roman,serif" font-size="14.00"> : </text>
<text text-anchor="start" x="1138" y="-290.8" font-family="mono" font-size="14.00" fill="#c83500">string</text>
<polygon fill="#ddeeff" stroke="transparent" points="1090,-262 1090,-283 1262,-283 1262,-262 1090,-262"/>
<polygon fill="none" stroke="#8ccbf2" points="1090,-262 1090,-283 1262,-283 1262,-262 1090,-262"/>
<text text-anchor="start" x="1093" y="-269.8" font-family="mono" font-size="14.00" fill="#c83500">in</text>
<text text-anchor="start" x="1110" y="-269.8" font-family="Times New Roman,serif" font-size="14.00"> : </text>
<text text-anchor="start" x="1121" y="-269.8" font-family="mono" font-size="14.00" fill="#c83500">string</text>
<polygon fill="#ddeeff" stroke="transparent" points="1090,-241 1090,-262 1262,-262 1262,-241 1090,-241"/>
<polygon fill="none" stroke="#8ccbf2" points="1090,-241 1090,-262 1262,-262 1262,-241 1090,-241"/>
<text text-anchor="start" x="1093" y="-248.8" font-family="mono" font-size="14.00" fill="#c83500">qop</text>
<text text-anchor="start" x="1118" y="-248.8" font-family="Times New Roman,serif" font-size="14.00"> : </text>
<text text-anchor="start" x="1129" y="-248.8" font-family="mono" font-size="14.00" fill="#c83500">string</text>
</g>
<!-- DigestSecurityScheme&#45;&gt;SecurityScheme -->
<g id="edge7" class="edge">
<title>DigestSecurityScheme&#45;&gt;SecurityScheme</title>
<path fill="none" stroke="black" d="M1106.43,-236.89C1095.29,-229.82 1083.86,-222.66 1073,-216 1056.13,-205.66 1037.97,-194.82 1020.51,-184.53"/>
<polygon fill="white" stroke="black" points="1021.85,-181.26 1011.45,-179.21 1018.3,-187.29 1021.85,-181.26"/>
</g>
<!-- NoSecurityScheme -->
<g id="node7" class="node">
<title>NoSecurityScheme</title>
<polygon fill="#8ccbf2" stroke="transparent" points="1297,-272 1297,-293 1436,-293 1436,-272 1297,-272"/>
<polygon fill="none" stroke="#8ccbf2" points="1297,-272 1297,-293 1436,-293 1436,-272 1297,-272"/>
<text text-anchor="start" x="1300" y="-279.8" font-family="mono" font-weight="bold" font-size="14.00" fill="#c83500">NoSecurityScheme</text>
</g>
<!-- NoSecurityScheme&#45;&gt;SecurityScheme -->
<g id="edge8" class="edge">
<title>NoSecurityScheme&#45;&gt;SecurityScheme</title>
<path fill="none" stroke="black" d="M1348.15,-264.85C1331.52,-249.81 1305.4,-228.46 1279,-216 1206.1,-181.6 1117.55,-160.96 1048.28,-148.99"/>
<polygon fill="white" stroke="black" points="1048.64,-145.51 1038.2,-147.29 1047.48,-152.41 1048.64,-145.51"/>
</g>
<!-- OAuth2SecurityScheme -->
<g id="node8" class="node">
<title>OAuth2SecurityScheme</title>
<polygon fill="#8ccbf2" stroke="transparent" points="1470,-293 1470,-314 1648,-314 1648,-293 1470,-293"/>
<polygon fill="none" stroke="#8ccbf2" points="1470,-293 1470,-314 1648,-314 1648,-293 1470,-293"/>
<text text-anchor="start" x="1476" y="-300.8" font-family="mono" font-weight="bold" font-size="14.00" fill="#c83500">OAuth2SecurityScheme</text>
<polygon fill="#ddeeff" stroke="transparent" points="1470,-272 1470,-293 1648,-293 1648,-272 1470,-272"/>
<polygon fill="none" stroke="#8ccbf2" points="1470,-272 1470,-293 1648,-293 1648,-272 1470,-272"/>
<text text-anchor="start" x="1473" y="-279.8" font-family="mono" font-size="14.00" fill="#c83500">flow</text>
<text text-anchor="start" x="1507" y="-279.8" font-family="Times New Roman,serif" font-size="14.00"> : </text>
<text text-anchor="start" x="1518" y="-279.8" font-family="mono" font-size="14.00" fill="#c83500">string</text>
<text text-anchor="start" x="1568" y="-279.8" font-family="Times New Roman,serif" font-size="14.00"> </text>
<text text-anchor="start" x="1572" y="-279.8" font-family="Times New Roman,serif" font-style="italic" font-size="14.00">(mandatory)</text>
<polygon fill="#ddeeff" stroke="transparent" points="1470,-251 1470,-272 1648,-272 1648,-251 1470,-251"/>
<polygon fill="none" stroke="#8ccbf2" points="1470,-251 1470,-272 1648,-272 1648,-251 1470,-251"/>
<text text-anchor="start" x="1473" y="-258.8" font-family="mono" font-size="14.00" fill="#c83500">scopes</text>
<text text-anchor="start" x="1523" y="-258.8" font-family="Times New Roman,serif" font-size="14.00"> : (Array of) </text>
<text text-anchor="start" x="1594" y="-258.8" font-family="mono" font-size="14.00" fill="#c83500">string</text>
</g>
<!-- OAuth2SecurityScheme&#45;&gt;SecurityScheme -->
<g id="edge9" class="edge">
<title>OAuth2SecurityScheme&#45;&gt;SecurityScheme</title>
<path fill="none" stroke="black" d="M1512.09,-247.48C1494.1,-235.78 1472.88,-223.73 1452,-216 1318.99,-166.74 1156.1,-147.07 1048.69,-139.21"/>
<polygon fill="white" stroke="black" points="1048.69,-135.71 1038.47,-138.49 1048.2,-142.69 1048.69,-135.71"/>
</g>
<!-- PSKSecurityScheme -->
<g id="node9" class="node">
<title>PSKSecurityScheme</title>
<polygon fill="#8ccbf2" stroke="transparent" points="1683,-283 1683,-304 1830,-304 1830,-283 1683,-283"/>
<polygon fill="none" stroke="#8ccbf2" points="1683,-283 1683,-304 1830,-304 1830,-283 1683,-283"/>
<text text-anchor="start" x="1686" y="-290.8" font-family="mono" font-weight="bold" font-size="14.00" fill="#c83500">PSKSecurityScheme</text>
<polygon fill="#ddeeff" stroke="transparent" points="1683,-262 1683,-283 1830,-283 1830,-262 1683,-262"/>
<polygon fill="none" stroke="#8ccbf2" points="1683,-262 1683,-283 1830,-283 1830,-262 1683,-262"/>
<text text-anchor="start" x="1686" y="-269.8" font-family="mono" font-size="14.00" fill="#c83500">identity</text>
<text text-anchor="start" x="1753" y="-269.8" font-family="Times New Roman,serif" font-size="14.00"> : </text>
<text text-anchor="start" x="1764" y="-269.8" font-family="mono" font-size="14.00" fill="#c83500">string</text>
</g>
<!-- PSKSecurityScheme&#45;&gt;SecurityScheme -->
<g id="edge10" class="edge">
<title>PSKSecurityScheme&#45;&gt;SecurityScheme</title>
<path fill="none" stroke="black" d="M1730.31,-257.75C1713.18,-243.09 1689.39,-225.45 1665,-216 1555.34,-173.53 1225.39,-149.76 1048.31,-139.74"/>
<polygon fill="white" stroke="black" points="1048.35,-136.24 1038.17,-139.17 1047.96,-143.22 1048.35,-136.24"/>
</g>
<!-- MultiLanguage -->
<g id="node11" class="node">
<title>MultiLanguage</title>
<polygon fill="#f2f2f2" stroke="transparent" points="876,-7 876,-28 990,-28 990,-7 876,-7"/>
<polygon fill="none" stroke="#8c8c8c" points="876,-7 876,-28 990,-28 990,-7 876,-7"/>
<text text-anchor="start" x="879" y="-14.8" font-family="mono" font-weight="bold" font-size="14.00">MultiLanguage</text>
</g>
<!-- SecurityScheme&#45;&gt;MultiLanguage -->
<g id="edge1" class="edge">
<title>SecurityScheme&#45;&gt;MultiLanguage</title>
<path fill="none" stroke="black" d="M933,-86.69C933,-73.06 933,-58.52 933,-46.42"/>
<polygon fill="black" stroke="black" points="936.5,-46.1 933,-36.1 929.5,-46.1 936.5,-46.1"/>
<text text-anchor="start" x="933" y="-57.8" font-family="mono" font-size="14.00" fill="#c83500">descriptions</text>
<text text-anchor="middle" x="922" y="-39.9" font-family="Times New Roman,serif" font-size="14.00">0..*</text>
</g>
</g>
</svg>
