<?xml version="1.0" encoding="UTF-8" standalone="no"?>
<!DOCTYPE svg PUBLIC "-//W3C//DTD SVG 1.1//EN"
 "http://www.w3.org/Graphics/SVG/1.1/DTD/svg11.dtd">
<!-- Generated by graphviz version 2.43.0 (0)
 -->
<!-- Title: %3 Pages: 1 -->
<svg width="1710pt" height="337pt"
 viewBox="0.00 0.00 1709.50 337.00" xmlns="http://www.w3.org/2000/svg" xmlns:xlink="http://www.w3.org/1999/xlink">
<g id="graph0" class="graph" transform="scale(1 1) rotate(0) translate(4 333)">
<title>%3</title>
<polygon fill="white" stroke="transparent" points="-4,4 -4,-333 1705.5,-333 1705.5,4 -4,4"/>
<!-- APIKeySecurityScheme -->
<g id="node1" class="node">
<title>APIKeySecurityScheme</title>
<polygon fill="#8ccbf2" stroke="transparent" points="8,-272 8,-293 180,-293 180,-272 8,-272"/>
<polygon fill="none" stroke="#8ccbf2" points="8,-272 8,-293 180,-293 180,-272 8,-272"/>
<text text-anchor="start" x="11" y="-279.8" font-family="mono" font-weight="bold" font-size="14.00" fill="#c83500">APIKeySecurityScheme</text>
<polygon fill="#ddeeff" stroke="transparent" points="8,-251 8,-272 180,-272 180,-251 8,-251"/>
<polygon fill="none" stroke="#8ccbf2" points="8,-251 8,-272 180,-272 180,-251 8,-251"/>
<text text-anchor="start" x="11" y="-258.8" font-family="mono" font-size="14.00" fill="#c83500">in</text>
<text text-anchor="start" x="28" y="-258.8" font-family="Times,serif" font-size="14.00"> : </text>
<text text-anchor="start" x="42" y="-258.8" font-family="mono" font-size="14.00" fill="#c83500">string</text>
<polygon fill="#ddeeff" stroke="transparent" points="8,-230 8,-251 180,-251 180,-230 8,-230"/>
<polygon fill="none" stroke="#8ccbf2" points="8,-230 8,-251 180,-251 180,-230 8,-230"/>
<text text-anchor="start" x="11" y="-237.8" font-family="mono" font-size="14.00" fill="#c83500">name</text>
<text text-anchor="start" x="45" y="-237.8" font-family="Times,serif" font-size="14.00"> : </text>
<text text-anchor="start" x="59" y="-237.8" font-family="mono" font-size="14.00" fill="#c83500">string</text>
</g>
<!-- SecurityScheme -->
<g id="node9" class="node">
<title>SecurityScheme</title>
<polygon fill="#8ccbf2" stroke="transparent" points="785,-132.5 785,-153.5 1000,-153.5 1000,-132.5 785,-132.5"/>
<polygon fill="none" stroke="#8ccbf2" points="785,-132.5 785,-153.5 1000,-153.5 1000,-132.5 785,-132.5"/>
<text text-anchor="start" x="834.5" y="-140.3" font-family="mono" font-weight="bold" font-size="14.00" fill="#c83500">SecurityScheme</text>
<polygon fill="#ddeeff" stroke="transparent" points="785,-111.5 785,-132.5 1000,-132.5 1000,-111.5 785,-111.5"/>
<polygon fill="none" stroke="#8ccbf2" points="785,-111.5 785,-132.5 1000,-132.5 1000,-111.5 785,-111.5"/>
<text text-anchor="start" x="788" y="-119.3" font-family="mono" font-size="14.00" fill="#c83500">@type</text>
<text text-anchor="start" x="830" y="-119.3" font-family="Times,serif" font-size="14.00"> : </text>
<text text-anchor="start" x="844" y="-119.3" font-family="Times,serif" font-style="italic" font-size="14.00">(Array of) </text>
<text text-anchor="start" x="917" y="-119.3" font-family="mono" font-size="14.00" fill="#c83500">string</text>
<polygon fill="#ddeeff" stroke="transparent" points="785,-90.5 785,-111.5 1000,-111.5 1000,-90.5 785,-90.5"/>
<polygon fill="none" stroke="#8ccbf2" points="785,-90.5 785,-111.5 1000,-111.5 1000,-90.5 785,-90.5"/>
<text text-anchor="start" x="788" y="-98.3" font-family="mono" font-size="14.00" fill="#c83500">description</text>
<text text-anchor="start" x="879" y="-98.3" font-family="Times,serif" font-size="14.00"> : Map of </text>
<text text-anchor="start" x="947" y="-98.3" font-family="mono" font-size="14.00" fill="#c83500">string</text>
</g>
<!-- APIKeySecurityScheme&#45;&gt;SecurityScheme -->
<g id="edge2" class="edge">
<title>APIKeySecurityScheme&#45;&gt;SecurityScheme</title>
<path fill="none" stroke="black" d="M138.01,-226.36C155.44,-214.43 176.25,-202.25 197,-195 298.95,-159.37 595.36,-138.71 766.36,-129.44"/>
<polygon fill="white" stroke="black" points="766.63,-132.93 776.43,-128.9 766.26,-125.94 766.63,-132.93"/>
</g>
<!-- BasicSecurityScheme -->
<g id="node2" class="node">
<title>BasicSecurityScheme</title>
<polygon fill="#8ccbf2" stroke="transparent" points="215,-272 215,-293 378,-293 378,-272 215,-272"/>
<polygon fill="none" stroke="#8ccbf2" points="215,-272 215,-293 378,-293 378,-272 215,-272"/>
<text text-anchor="start" x="218" y="-279.8" font-family="mono" font-weight="bold" font-size="14.00" fill="#c83500">BasicSecurityScheme</text>
<polygon fill="#ddeeff" stroke="transparent" points="215,-251 215,-272 378,-272 378,-251 215,-251"/>
<polygon fill="none" stroke="#8ccbf2" points="215,-251 215,-272 378,-272 378,-251 215,-251"/>
<text text-anchor="start" x="218" y="-258.8" font-family="mono" font-size="14.00" fill="#c83500">in</text>
<text text-anchor="start" x="235" y="-258.8" font-family="Times,serif" font-size="14.00"> : </text>
<text text-anchor="start" x="249" y="-258.8" font-family="mono" font-size="14.00" fill="#c83500">string</text>
<polygon fill="#ddeeff" stroke="transparent" points="215,-230 215,-251 378,-251 378,-230 215,-230"/>
<polygon fill="none" stroke="#8ccbf2" points="215,-230 215,-251 378,-251 378,-230 215,-230"/>
<text text-anchor="start" x="218" y="-237.8" font-family="mono" font-size="14.00" fill="#c83500">name</text>
<text text-anchor="start" x="252" y="-237.8" font-family="Times,serif" font-size="14.00"> : </text>
<text text-anchor="start" x="266" y="-237.8" font-family="mono" font-size="14.00" fill="#c83500">string</text>
</g>
<!-- BasicSecurityScheme&#45;&gt;SecurityScheme -->
<g id="edge3" class="edge">
<title>BasicSecurityScheme&#45;&gt;SecurityScheme</title>
<path fill="none" stroke="black" d="M339.01,-226.26C355.61,-214.54 375.32,-202.53 395,-195 515.75,-148.8 663.4,-132.13 766.25,-126.28"/>
<polygon fill="white" stroke="black" points="766.58,-129.77 776.38,-125.74 766.2,-122.78 766.58,-129.77"/>
</g>
<!-- BearerSecurityScheme -->
<g id="node3" class="node">
<title>BearerSecurityScheme</title>
<polygon fill="#8ccbf2" stroke="transparent" points="412,-304 412,-325 590,-325 590,-304 412,-304"/>
<polygon fill="none" stroke="#8ccbf2" points="412,-304 412,-325 590,-325 590,-304 412,-304"/>
<text text-anchor="start" x="418" y="-311.8" font-family="mono" font-weight="bold" font-size="14.00" fill="#c83500">BearerSecurityScheme</text>
<polygon fill="#ddeeff" stroke="transparent" points="412,-283 412,-304 590,-304 590,-283 412,-283"/>
<polygon fill="none" stroke="#8ccbf2" points="412,-283 412,-304 590,-304 590,-283 412,-283"/>
<text text-anchor="start" x="415" y="-290.8" font-family="mono" font-size="14.00" fill="#c83500">alg</text>
<text text-anchor="start" x="440" y="-290.8" font-family="Times,serif" font-size="14.00"> : </text>
<text text-anchor="start" x="454" y="-290.8" font-family="mono" font-size="14.00" fill="#c83500">string</text>
<polygon fill="#ddeeff" stroke="transparent" points="412,-262 412,-283 590,-283 590,-262 412,-262"/>
<polygon fill="none" stroke="#8ccbf2" points="412,-262 412,-283 590,-283 590,-262 412,-262"/>
<text text-anchor="start" x="415" y="-269.8" font-family="mono" font-size="14.00" fill="#c83500">authorization</text>
<text text-anchor="start" x="523" y="-269.8" font-family="Times,serif" font-size="14.00"> : </text>
<text text-anchor="start" x="537" y="-269.8" font-family="mono" font-size="14.00" fill="#c83500">anyURI</text>
<polygon fill="#ddeeff" stroke="transparent" points="412,-241 412,-262 590,-262 590,-241 412,-241"/>
<polygon fill="none" stroke="#8ccbf2" points="412,-241 412,-262 590,-262 590,-241 412,-241"/>
<text text-anchor="start" x="415" y="-248.8" font-family="mono" font-size="14.00" fill="#c83500">format</text>
<text text-anchor="start" x="465" y="-248.8" font-family="Times,serif" font-size="14.00"> : </text>
<text text-anchor="start" x="479" y="-248.8" font-family="mono" font-size="14.00" fill="#c83500">string</text>
<polygon fill="#ddeeff" stroke="transparent" points="412,-220 412,-241 590,-241 590,-220 412,-220"/>
<polygon fill="none" stroke="#8ccbf2" points="412,-220 412,-241 590,-241 590,-220 412,-220"/>
<text text-anchor="start" x="415" y="-227.8" font-family="mono" font-size="14.00" fill="#c83500">in</text>
<text text-anchor="start" x="432" y="-227.8" font-family="Times,serif" font-size="14.00"> : </text>
<text text-anchor="start" x="446" y="-227.8" font-family="mono" font-size="14.00" fill="#c83500">string</text>
<polygon fill="#ddeeff" stroke="transparent" points="412,-199 412,-220 590,-220 590,-199 412,-199"/>
<polygon fill="none" stroke="#8ccbf2" points="412,-199 412,-220 590,-220 590,-199 412,-199"/>
<text text-anchor="start" x="415" y="-206.8" font-family="mono" font-size="14.00" fill="#c83500">name</text>
<text text-anchor="start" x="449" y="-206.8" font-family="Times,serif" font-size="14.00"> : </text>
<text text-anchor="start" x="463" y="-206.8" font-family="mono" font-size="14.00" fill="#c83500">string</text>
</g>
<!-- BearerSecurityScheme&#45;&gt;SecurityScheme -->
<g id="edge4" class="edge">
<title>BearerSecurityScheme&#45;&gt;SecurityScheme</title>
<path fill="none" stroke="black" d="M598.29,-198.89C601.2,-197.53 604.11,-196.23 607,-195 657.41,-173.61 715.65,-157.58 766.3,-146.19"/>
<polygon fill="white" stroke="black" points="767.31,-149.55 776.32,-143.97 765.8,-142.71 767.31,-149.55"/>
</g>
<!-- ComboSecurityScheme -->
<g id="node4" class="node">
<title>ComboSecurityScheme</title>
<polygon fill="#8ccbf2" stroke="transparent" points="624,-272 624,-293 902,-293 902,-272 624,-272"/>
<polygon fill="none" stroke="#8ccbf2" points="624,-272 624,-293 902,-293 902,-272 624,-272"/>
<text text-anchor="start" x="684.5" y="-279.8" font-family="mono" font-weight="bold" font-size="14.00" fill="#c83500">ComboSecurityScheme</text>
<polygon fill="#ddeeff" stroke="transparent" points="624,-251 624,-272 902,-272 902,-251 624,-251"/>
<polygon fill="none" stroke="#8ccbf2" points="624,-251 624,-272 902,-272 902,-251 624,-251"/>
<text text-anchor="start" x="627" y="-258.8" font-family="mono" font-size="14.00" fill="#c83500">oneOf</text>
<text text-anchor="start" x="669" y="-258.8" font-family="Times,serif" font-size="14.00"> : (Array of) </text>
<text text-anchor="start" x="756" y="-258.8" font-family="mono" font-size="14.00" fill="#c83500">string</text>
<text text-anchor="start" x="806" y="-258.8" font-family="Times,serif" font-size="14.00"> </text>
<text text-anchor="start" x="811" y="-258.8" font-family="Times,serif" font-style="italic" font-size="14.00">(mandatory)</text>
<polygon fill="#ddeeff" stroke="transparent" points="624,-230 624,-251 902,-251 902,-230 624,-230"/>
<polygon fill="none" stroke="#8ccbf2" points="624,-230 624,-251 902,-251 902,-230 624,-230"/>
<text text-anchor="start" x="627" y="-237.8" font-family="mono" font-size="14.00" fill="#c83500">allOf</text>
<text text-anchor="start" x="669" y="-237.8" font-family="Times,serif" font-size="14.00"> : (Array of) </text>
<text text-anchor="start" x="756" y="-237.8" font-family="mono" font-size="14.00" fill="#c83500">string</text>
<text text-anchor="start" x="806" y="-237.8" font-family="Times,serif" font-size="14.00"> </text>
<text text-anchor="start" x="811" y="-237.8" font-family="Times,serif" font-style="italic" font-size="14.00">(mandatory)</text>
</g>
<!-- ComboSecurityScheme&#45;&gt;SecurityScheme -->
<g id="edge5" class="edge">
<title>ComboSecurityScheme&#45;&gt;SecurityScheme</title>
<path fill="none" stroke="black" d="M795.55,-226.3C812.82,-207.9 834.16,-185.15 852.38,-165.73"/>
<polygon fill="white" stroke="black" points="855.17,-167.87 859.46,-158.19 850.06,-163.08 855.17,-167.87"/>
</g>
<!-- DigestSecurityScheme -->
<g id="node5" class="node">
<title>DigestSecurityScheme</title>
<polygon fill="#8ccbf2" stroke="transparent" points="936,-283 936,-304 1108,-304 1108,-283 936,-283"/>
<polygon fill="none" stroke="#8ccbf2" points="936,-283 936,-304 1108,-304 1108,-283 936,-283"/>
<text text-anchor="start" x="939" y="-290.8" font-family="mono" font-weight="bold" font-size="14.00" fill="#c83500">DigestSecurityScheme</text>
<polygon fill="#ddeeff" stroke="transparent" points="936,-262 936,-283 1108,-283 1108,-262 936,-262"/>
<polygon fill="none" stroke="#8ccbf2" points="936,-262 936,-283 1108,-283 1108,-262 936,-262"/>
<text text-anchor="start" x="939" y="-269.8" font-family="mono" font-size="14.00" fill="#c83500">in</text>
<text text-anchor="start" x="956" y="-269.8" font-family="Times,serif" font-size="14.00"> : </text>
<text text-anchor="start" x="970" y="-269.8" font-family="mono" font-size="14.00" fill="#c83500">string</text>
<polygon fill="#ddeeff" stroke="transparent" points="936,-241 936,-262 1108,-262 1108,-241 936,-241"/>
<polygon fill="none" stroke="#8ccbf2" points="936,-241 936,-262 1108,-262 1108,-241 936,-241"/>
<text text-anchor="start" x="939" y="-248.8" font-family="mono" font-size="14.00" fill="#c83500">name</text>
<text text-anchor="start" x="973" y="-248.8" font-family="Times,serif" font-size="14.00"> : </text>
<text text-anchor="start" x="987" y="-248.8" font-family="mono" font-size="14.00" fill="#c83500">string</text>
<polygon fill="#ddeeff" stroke="transparent" points="936,-220 936,-241 1108,-241 1108,-220 936,-220"/>
<polygon fill="none" stroke="#8ccbf2" points="936,-220 936,-241 1108,-241 1108,-220 936,-220"/>
<text text-anchor="start" x="939" y="-227.8" font-family="mono" font-size="14.00" fill="#c83500">qop</text>
<text text-anchor="start" x="964" y="-227.8" font-family="Times,serif" font-size="14.00"> : </text>
<text text-anchor="start" x="978" y="-227.8" font-family="mono" font-size="14.00" fill="#c83500">string</text>
</g>
<!-- DigestSecurityScheme&#45;&gt;SecurityScheme -->
<g id="edge6" class="edge">
<title>DigestSecurityScheme&#45;&gt;SecurityScheme</title>
<path fill="none" stroke="black" d="M979.43,-215.98C964.16,-199.82 947,-181.68 931.96,-165.77"/>
<polygon fill="white" stroke="black" points="934.18,-163.01 924.76,-158.15 929.09,-167.82 934.18,-163.01"/>
</g>
<!-- NoSecurityScheme -->
<g id="node6" class="node">
<title>NoSecurityScheme</title>
<polygon fill="#8ccbf2" stroke="transparent" points="1143,-251 1143,-272 1282,-272 1282,-251 1143,-251"/>
<polygon fill="none" stroke="#8ccbf2" points="1143,-251 1143,-272 1282,-272 1282,-251 1143,-251"/>
<text text-anchor="start" x="1146" y="-258.8" font-family="mono" font-weight="bold" font-size="14.00" fill="#c83500">NoSecurityScheme</text>
</g>
<!-- NoSecurityScheme&#45;&gt;SecurityScheme -->
<g id="edge7" class="edge">
<title>NoSecurityScheme&#45;&gt;SecurityScheme</title>
<path fill="none" stroke="black" d="M1193.62,-243.97C1176.85,-229.22 1150.82,-208.22 1125,-195 1091.61,-177.9 1053.4,-164.06 1017.71,-153.29"/>
<polygon fill="white" stroke="black" points="1018.3,-149.81 1007.72,-150.33 1016.31,-156.52 1018.3,-149.81"/>
</g>
<!-- OAuth2SecurityScheme -->
<g id="node7" class="node">
<title>OAuth2SecurityScheme</title>
<polygon fill="#8ccbf2" stroke="transparent" points="1316,-272 1316,-293 1513,-293 1513,-272 1316,-272"/>
<polygon fill="none" stroke="#8ccbf2" points="1316,-272 1316,-293 1513,-293 1513,-272 1316,-272"/>
<text text-anchor="start" x="1331.5" y="-279.8" font-family="mono" font-weight="bold" font-size="14.00" fill="#c83500">OAuth2SecurityScheme</text>
<polygon fill="#ddeeff" stroke="transparent" points="1316,-251 1316,-272 1513,-272 1513,-251 1316,-251"/>
<polygon fill="none" stroke="#8ccbf2" points="1316,-251 1316,-272 1513,-272 1513,-251 1316,-251"/>
<text text-anchor="start" x="1319" y="-258.8" font-family="mono" font-size="14.00" fill="#c83500">scopes</text>
<text text-anchor="start" x="1369" y="-258.8" font-family="Times,serif" font-size="14.00"> : (Array of) </text>
<text text-anchor="start" x="1456" y="-258.8" font-family="mono" font-size="14.00" fill="#c83500">string</text>
<polygon fill="#ddeeff" stroke="transparent" points="1316,-230 1316,-251 1513,-251 1513,-230 1316,-230"/>
<polygon fill="none" stroke="#8ccbf2" points="1316,-230 1316,-251 1513,-251 1513,-230 1316,-230"/>
<text text-anchor="start" x="1319" y="-237.8" font-family="mono" font-size="14.00" fill="#c83500">flow</text>
<text text-anchor="start" x="1353" y="-237.8" font-family="Times,serif" font-size="14.00"> : </text>
<text text-anchor="start" x="1367" y="-237.8" font-family="mono" font-size="14.00" fill="#c83500">string</text>
<text text-anchor="start" x="1417" y="-237.8" font-family="Times,serif" font-size="14.00"> </text>
<text text-anchor="start" x="1422" y="-237.8" font-family="Times,serif" font-style="italic" font-size="14.00">(mandatory)</text>
</g>
<!-- OAuth2SecurityScheme&#45;&gt;SecurityScheme -->
<g id="edge8" class="edge">
<title>OAuth2SecurityScheme&#45;&gt;SecurityScheme</title>
<path fill="none" stroke="black" d="M1362.13,-226.44C1342.72,-214.88 1320.02,-202.93 1298,-195 1207.28,-162.31 1099.59,-144.23 1017.92,-134.43"/>
<polygon fill="white" stroke="black" points="1017.93,-130.91 1007.59,-133.22 1017.11,-137.86 1017.93,-130.91"/>
</g>
<!-- PSKSecurityScheme -->
<g id="node8" class="node">
<title>PSKSecurityScheme</title>
<polygon fill="#8ccbf2" stroke="transparent" points="1547,-262 1547,-283 1694,-283 1694,-262 1547,-262"/>
<polygon fill="none" stroke="#8ccbf2" points="1547,-262 1547,-283 1694,-283 1694,-262 1547,-262"/>
<text text-anchor="start" x="1550" y="-269.8" font-family="mono" font-weight="bold" font-size="14.00" fill="#c83500">PSKSecurityScheme</text>
<polygon fill="#ddeeff" stroke="transparent" points="1547,-241 1547,-262 1694,-262 1694,-241 1547,-241"/>
<polygon fill="none" stroke="#8ccbf2" points="1547,-241 1547,-262 1694,-262 1694,-241 1547,-241"/>
<text text-anchor="start" x="1550" y="-248.8" font-family="mono" font-size="14.00" fill="#c83500">identity</text>
<text text-anchor="start" x="1617" y="-248.8" font-family="Times,serif" font-size="14.00"> : </text>
<text text-anchor="start" x="1631" y="-248.8" font-family="mono" font-size="14.00" fill="#c83500">string</text>
</g>
<!-- PSKSecurityScheme&#45;&gt;SecurityScheme -->
<g id="edge9" class="edge">
<title>PSKSecurityScheme&#45;&gt;SecurityScheme</title>
<path fill="none" stroke="black" d="M1594.31,-236.76C1577.18,-222.09 1553.39,-204.45 1529,-195 1438.63,-159.99 1176.36,-139.52 1017.93,-130.01"/>
<polygon fill="white" stroke="black" points="1017.84,-126.5 1007.65,-129.4 1017.43,-133.49 1017.84,-126.5"/>
</g>
<!-- MultiLanguage -->
<g id="node10" class="node">
<title>MultiLanguage</title>
<polygon fill="#f2f2f2" stroke="transparent" points="835,-7 835,-28 949,-28 949,-7 835,-7"/>
<polygon fill="none" stroke="#8c8c8c" points="835,-7 835,-28 949,-28 949,-7 835,-7"/>
<text text-anchor="start" x="838" y="-14.8" font-family="mono" font-weight="bold" font-size="14.00">MultiLanguage</text>
</g>
<!-- SecurityScheme&#45;&gt;MultiLanguage -->
<g id="edge1" class="edge">
<title>SecurityScheme&#45;&gt;MultiLanguage</title>
<path fill="none" stroke="black" d="M892,-86.8C892,-73.59 892,-58.74 892,-46.32"/>
<polygon fill="black" stroke="black" points="895.5,-46.12 892,-36.12 888.5,-46.12 895.5,-46.12"/>
<text text-anchor="start" x="892" y="-57.8" font-family="mono" font-size="14.00" fill="#c83500">descriptiondescriptions</text>
<text text-anchor="middle" x="879.5" y="-39.92" font-family="Times,serif" font-size="14.00">0..*</text>
</g>
</g>
</svg>
