<?xml version="1.0" encoding="UTF-8" standalone="no"?>
<!DOCTYPE svg PUBLIC "-//W3C//DTD SVG 1.1//EN"
 "http://www.w3.org/Graphics/SVG/1.1/DTD/svg11.dtd">
<!-- Generated by graphviz version 3.0.0 (0)
 -->
<!-- Pages: 1 -->
<svg width="1899pt" height="337pt"
 viewBox="0.00 0.00 1898.50 337.00" xmlns="http://www.w3.org/2000/svg" xmlns:xlink="http://www.w3.org/1999/xlink">
<g id="graph0" class="graph" transform="scale(1 1) rotate(0) translate(4 333)">
<polygon fill="white" stroke="transparent" points="-4,4 -4,-333 1894.5,-333 1894.5,4 -4,4"/>
<!-- APIKeySecurityScheme -->
<g id="node1" class="node">
<title>APIKeySecurityScheme</title>
<polygon fill="#8ccbf2" stroke="transparent" points="8,-272 8,-293 180,-293 180,-272 8,-272"/>
<polygon fill="none" stroke="#8ccbf2" points="8,-272 8,-293 180,-293 180,-272 8,-272"/>
<text text-anchor="start" x="11" y="-279.8" font-family="mono" font-weight="bold" font-size="14.00" fill="#c83500">APIKeySecurityScheme</text>
<polygon fill="#ddeeff" stroke="transparent" points="8,-251 8,-272 180,-272 180,-251 8,-251"/>
<polygon fill="none" stroke="#8ccbf2" points="8,-251 8,-272 180,-272 180,-251 8,-251"/>
<text text-anchor="start" x="11" y="-258.8" font-family="mono" font-size="14.00" fill="#c83500">in</text>
<text text-anchor="start" x="28" y="-258.8" font-family="Times,serif" font-size="14.00"> : </text>
<text text-anchor="start" x="42" y="-258.8" font-family="mono" font-size="14.00" fill="#c83500">string</text>
<polygon fill="#ddeeff" stroke="transparent" points="8,-230 8,-251 180,-251 180,-230 8,-230"/>
<polygon fill="none" stroke="#8ccbf2" points="8,-230 8,-251 180,-251 180,-230 8,-230"/>
<text text-anchor="start" x="11" y="-237.8" font-family="mono" font-size="14.00" fill="#c83500">name</text>
<text text-anchor="start" x="45" y="-237.8" font-family="Times,serif" font-size="14.00"> : </text>
<text text-anchor="start" x="59" y="-237.8" font-family="mono" font-size="14.00" fill="#c83500">string</text>
</g>
<!-- SecurityScheme -->
<g id="node10" class="node">
<title>SecurityScheme</title>
<polygon fill="#8ccbf2" stroke="transparent" points="860,-132.5 860,-153.5 1045,-153.5 1045,-132.5 860,-132.5"/>
<polygon fill="none" stroke="#8ccbf2" points="860,-132.5 860,-153.5 1045,-153.5 1045,-132.5 860,-132.5"/>
<text text-anchor="start" x="894.5" y="-140.3" font-family="mono" font-weight="bold" font-size="14.00" fill="#c83500">SecurityScheme</text>
<polygon fill="#ddeeff" stroke="transparent" points="860,-111.5 860,-132.5 1045,-132.5 1045,-111.5 860,-111.5"/>
<polygon fill="none" stroke="#8ccbf2" points="860,-111.5 860,-132.5 1045,-132.5 1045,-111.5 860,-111.5"/>
<text text-anchor="start" x="863" y="-119.3" font-family="mono" font-size="14.00" fill="#c83500">@type</text>
<text text-anchor="start" x="905" y="-119.3" font-family="Times,serif" font-size="14.00"> : </text>
<text text-anchor="start" x="919" y="-119.3" font-family="Times,serif" font-style="italic" font-size="14.00">(Array of) </text>
<text text-anchor="start" x="992" y="-119.3" font-family="mono" font-size="14.00" fill="#c83500">string</text>
<polygon fill="#ddeeff" stroke="transparent" points="860,-90.5 860,-111.5 1045,-111.5 1045,-90.5 860,-90.5"/>
<polygon fill="none" stroke="#8ccbf2" points="860,-90.5 860,-111.5 1045,-111.5 1045,-90.5 860,-90.5"/>
<text text-anchor="start" x="863" y="-98.3" font-family="mono" font-size="14.00" fill="#c83500">description</text>
<text text-anchor="start" x="954" y="-98.3" font-family="Times,serif" font-size="14.00"> : </text>
<text text-anchor="start" x="968" y="-98.3" font-family="mono" font-size="14.00" fill="#c83500">string</text>
</g>
<!-- APIKeySecurityScheme&#45;&gt;SecurityScheme -->
<g id="edge2" class="edge">
<title>APIKeySecurityScheme&#45;&gt;SecurityScheme</title>
<path fill="none" stroke="black" d="M137.73,-226.44C155.21,-214.45 176.12,-202.2 197,-195 313.13,-154.95 661.09,-135.3 841.22,-127.58"/>
<polygon fill="white" stroke="black" points="841.41,-131.08 851.25,-127.16 841.12,-124.09 841.41,-131.08"/>
</g>
<!-- AutoSecurityScheme -->
<g id="node2" class="node">
<title>AutoSecurityScheme</title>
<polygon fill="#8ccbf2" stroke="transparent" points="215,-251 215,-272 370,-272 370,-251 215,-251"/>
<polygon fill="none" stroke="#8ccbf2" points="215,-251 215,-272 370,-272 370,-251 215,-251"/>
<text text-anchor="start" x="218" y="-258.8" font-family="mono" font-weight="bold" font-size="14.00" fill="#c83500">AutoSecurityScheme</text>
</g>
<!-- AutoSecurityScheme&#45;&gt;SecurityScheme -->
<g id="edge3" class="edge">
<title>AutoSecurityScheme&#45;&gt;SecurityScheme</title>
<path fill="none" stroke="black" d="M310.54,-243.79C328.43,-228.27 356.99,-206.22 386,-195 466.61,-163.84 700.33,-141.94 840.96,-131.15"/>
<polygon fill="white" stroke="black" points="841.63,-134.61 851.34,-130.36 841.1,-127.63 841.63,-134.61"/>
</g>
<!-- BasicSecurityScheme -->
<g id="node3" class="node">
<title>BasicSecurityScheme</title>
<polygon fill="#8ccbf2" stroke="transparent" points="404,-272 404,-293 567,-293 567,-272 404,-272"/>
<polygon fill="none" stroke="#8ccbf2" points="404,-272 404,-293 567,-293 567,-272 404,-272"/>
<text text-anchor="start" x="407" y="-279.8" font-family="mono" font-weight="bold" font-size="14.00" fill="#c83500">BasicSecurityScheme</text>
<polygon fill="#ddeeff" stroke="transparent" points="404,-251 404,-272 567,-272 567,-251 404,-251"/>
<polygon fill="none" stroke="#8ccbf2" points="404,-251 404,-272 567,-272 567,-251 404,-251"/>
<text text-anchor="start" x="407" y="-258.8" font-family="mono" font-size="14.00" fill="#c83500">in</text>
<text text-anchor="start" x="424" y="-258.8" font-family="Times,serif" font-size="14.00"> : </text>
<text text-anchor="start" x="438" y="-258.8" font-family="mono" font-size="14.00" fill="#c83500">string</text>
<polygon fill="#ddeeff" stroke="transparent" points="404,-230 404,-251 567,-251 567,-230 404,-230"/>
<polygon fill="none" stroke="#8ccbf2" points="404,-230 404,-251 567,-251 567,-230 404,-230"/>
<text text-anchor="start" x="407" y="-237.8" font-family="mono" font-size="14.00" fill="#c83500">name</text>
<text text-anchor="start" x="441" y="-237.8" font-family="Times,serif" font-size="14.00"> : </text>
<text text-anchor="start" x="455" y="-237.8" font-family="mono" font-size="14.00" fill="#c83500">string</text>
</g>
<!-- BasicSecurityScheme&#45;&gt;SecurityScheme -->
<g id="edge4" class="edge">
<title>BasicSecurityScheme&#45;&gt;SecurityScheme</title>
<path fill="none" stroke="black" d="M528.71,-226.44C545.22,-214.88 564.7,-202.93 584,-195 666.5,-161.09 766.14,-143 840.92,-133.5"/>
<polygon fill="white" stroke="black" points="841.81,-136.92 851.31,-132.22 840.95,-129.97 841.81,-136.92"/>
</g>
<!-- BearerSecurityScheme -->
<g id="node4" class="node">
<title>BearerSecurityScheme</title>
<polygon fill="#8ccbf2" stroke="transparent" points="601,-304 601,-325 779,-325 779,-304 601,-304"/>
<polygon fill="none" stroke="#8ccbf2" points="601,-304 601,-325 779,-325 779,-304 601,-304"/>
<text text-anchor="start" x="607" y="-311.8" font-family="mono" font-weight="bold" font-size="14.00" fill="#c83500">BearerSecurityScheme</text>
<polygon fill="#ddeeff" stroke="transparent" points="601,-283 601,-304 779,-304 779,-283 601,-283"/>
<polygon fill="none" stroke="#8ccbf2" points="601,-283 601,-304 779,-304 779,-283 601,-283"/>
<text text-anchor="start" x="604" y="-290.8" font-family="mono" font-size="14.00" fill="#c83500">alg</text>
<text text-anchor="start" x="629" y="-290.8" font-family="Times,serif" font-size="14.00"> : </text>
<text text-anchor="start" x="643" y="-290.8" font-family="mono" font-size="14.00" fill="#c83500">string</text>
<polygon fill="#ddeeff" stroke="transparent" points="601,-262 601,-283 779,-283 779,-262 601,-262"/>
<polygon fill="none" stroke="#8ccbf2" points="601,-262 601,-283 779,-283 779,-262 601,-262"/>
<text text-anchor="start" x="604" y="-269.8" font-family="mono" font-size="14.00" fill="#c83500">authorization</text>
<text text-anchor="start" x="712" y="-269.8" font-family="Times,serif" font-size="14.00"> : </text>
<text text-anchor="start" x="726" y="-269.8" font-family="mono" font-size="14.00" fill="#c83500">anyURI</text>
<polygon fill="#ddeeff" stroke="transparent" points="601,-241 601,-262 779,-262 779,-241 601,-241"/>
<polygon fill="none" stroke="#8ccbf2" points="601,-241 601,-262 779,-262 779,-241 601,-241"/>
<text text-anchor="start" x="604" y="-248.8" font-family="mono" font-size="14.00" fill="#c83500">format</text>
<text text-anchor="start" x="654" y="-248.8" font-family="Times,serif" font-size="14.00"> : </text>
<text text-anchor="start" x="668" y="-248.8" font-family="mono" font-size="14.00" fill="#c83500">string</text>
<polygon fill="#ddeeff" stroke="transparent" points="601,-220 601,-241 779,-241 779,-220 601,-220"/>
<polygon fill="none" stroke="#8ccbf2" points="601,-220 601,-241 779,-241 779,-220 601,-220"/>
<text text-anchor="start" x="604" y="-227.8" font-family="mono" font-size="14.00" fill="#c83500">in</text>
<text text-anchor="start" x="621" y="-227.8" font-family="Times,serif" font-size="14.00"> : </text>
<text text-anchor="start" x="635" y="-227.8" font-family="mono" font-size="14.00" fill="#c83500">string</text>
<polygon fill="#ddeeff" stroke="transparent" points="601,-199 601,-220 779,-220 779,-199 601,-199"/>
<polygon fill="none" stroke="#8ccbf2" points="601,-199 601,-220 779,-220 779,-199 601,-199"/>
<text text-anchor="start" x="604" y="-206.8" font-family="mono" font-size="14.00" fill="#c83500">name</text>
<text text-anchor="start" x="638" y="-206.8" font-family="Times,serif" font-size="14.00"> : </text>
<text text-anchor="start" x="652" y="-206.8" font-family="mono" font-size="14.00" fill="#c83500">string</text>
</g>
<!-- BearerSecurityScheme&#45;&gt;SecurityScheme -->
<g id="edge5" class="edge">
<title>BearerSecurityScheme&#45;&gt;SecurityScheme</title>
<path fill="none" stroke="black" d="M787.05,-199.91C790.05,-198.23 793.04,-196.59 796,-195 817.01,-183.7 840.13,-172.48 862,-162.39"/>
<polygon fill="white" stroke="black" points="863.65,-165.48 871.28,-158.14 860.73,-159.12 863.65,-165.48"/>
</g>
<!-- ComboSecurityScheme -->
<g id="node5" class="node">
<title>ComboSecurityScheme</title>
<polygon fill="#8ccbf2" stroke="transparent" points="813,-272 813,-293 1091,-293 1091,-272 813,-272"/>
<polygon fill="none" stroke="#8ccbf2" points="813,-272 813,-293 1091,-293 1091,-272 813,-272"/>
<text text-anchor="start" x="873.5" y="-279.8" font-family="mono" font-weight="bold" font-size="14.00" fill="#c83500">ComboSecurityScheme</text>
<polygon fill="#ddeeff" stroke="transparent" points="813,-251 813,-272 1091,-272 1091,-251 813,-251"/>
<polygon fill="none" stroke="#8ccbf2" points="813,-251 813,-272 1091,-272 1091,-251 813,-251"/>
<text text-anchor="start" x="816" y="-258.8" font-family="mono" font-size="14.00" fill="#c83500">oneOf</text>
<text text-anchor="start" x="858" y="-258.8" font-family="Times,serif" font-size="14.00"> : (Array of) </text>
<text text-anchor="start" x="945" y="-258.8" font-family="mono" font-size="14.00" fill="#c83500">string</text>
<text text-anchor="start" x="995" y="-258.8" font-family="Times,serif" font-size="14.00"> </text>
<text text-anchor="start" x="1000" y="-258.8" font-family="Times,serif" font-style="italic" font-size="14.00">(mandatory)</text>
<polygon fill="#ddeeff" stroke="transparent" points="813,-230 813,-251 1091,-251 1091,-230 813,-230"/>
<polygon fill="none" stroke="#8ccbf2" points="813,-230 813,-251 1091,-251 1091,-230 813,-230"/>
<text text-anchor="start" x="816" y="-237.8" font-family="mono" font-size="14.00" fill="#c83500">allOf</text>
<text text-anchor="start" x="858" y="-237.8" font-family="Times,serif" font-size="14.00"> : (Array of) </text>
<text text-anchor="start" x="945" y="-237.8" font-family="mono" font-size="14.00" fill="#c83500">string</text>
<text text-anchor="start" x="995" y="-237.8" font-family="Times,serif" font-size="14.00"> </text>
<text text-anchor="start" x="1000" y="-237.8" font-family="Times,serif" font-style="italic" font-size="14.00">(mandatory)</text>
</g>
<!-- ComboSecurityScheme&#45;&gt;SecurityScheme -->
<g id="edge6" class="edge">
<title>ComboSecurityScheme&#45;&gt;SecurityScheme</title>
<path fill="none" stroke="black" d="M952,-226.3C952,-208.72 952,-187.15 952,-168.32"/>
<polygon fill="white" stroke="black" points="955.5,-168.19 952,-158.19 948.5,-168.19 955.5,-168.19"/>
</g>
<!-- DigestSecurityScheme -->
<g id="node6" class="node">
<title>DigestSecurityScheme</title>
<polygon fill="#8ccbf2" stroke="transparent" points="1125,-283 1125,-304 1297,-304 1297,-283 1125,-283"/>
<polygon fill="none" stroke="#8ccbf2" points="1125,-283 1125,-304 1297,-304 1297,-283 1125,-283"/>
<text text-anchor="start" x="1128" y="-290.8" font-family="mono" font-weight="bold" font-size="14.00" fill="#c83500">DigestSecurityScheme</text>
<polygon fill="#ddeeff" stroke="transparent" points="1125,-262 1125,-283 1297,-283 1297,-262 1125,-262"/>
<polygon fill="none" stroke="#8ccbf2" points="1125,-262 1125,-283 1297,-283 1297,-262 1125,-262"/>
<text text-anchor="start" x="1128" y="-269.8" font-family="mono" font-size="14.00" fill="#c83500">in</text>
<text text-anchor="start" x="1145" y="-269.8" font-family="Times,serif" font-size="14.00"> : </text>
<text text-anchor="start" x="1159" y="-269.8" font-family="mono" font-size="14.00" fill="#c83500">string</text>
<polygon fill="#ddeeff" stroke="transparent" points="1125,-241 1125,-262 1297,-262 1297,-241 1125,-241"/>
<polygon fill="none" stroke="#8ccbf2" points="1125,-241 1125,-262 1297,-262 1297,-241 1125,-241"/>
<text text-anchor="start" x="1128" y="-248.8" font-family="mono" font-size="14.00" fill="#c83500">name</text>
<text text-anchor="start" x="1162" y="-248.8" font-family="Times,serif" font-size="14.00"> : </text>
<text text-anchor="start" x="1176" y="-248.8" font-family="mono" font-size="14.00" fill="#c83500">string</text>
<polygon fill="#ddeeff" stroke="transparent" points="1125,-220 1125,-241 1297,-241 1297,-220 1125,-220"/>
<polygon fill="none" stroke="#8ccbf2" points="1125,-220 1125,-241 1297,-241 1297,-220 1125,-220"/>
<text text-anchor="start" x="1128" y="-227.8" font-family="mono" font-size="14.00" fill="#c83500">qop</text>
<text text-anchor="start" x="1153" y="-227.8" font-family="Times,serif" font-size="14.00"> : </text>
<text text-anchor="start" x="1167" y="-227.8" font-family="mono" font-size="14.00" fill="#c83500">string</text>
</g>
<!-- DigestSecurityScheme&#45;&gt;SecurityScheme -->
<g id="edge7" class="edge">
<title>DigestSecurityScheme&#45;&gt;SecurityScheme</title>
<path fill="none" stroke="black" d="M1143.67,-215.96C1131.94,-208.67 1119.74,-201.41 1108,-195 1087.18,-183.63 1064.22,-172.42 1042.46,-162.36"/>
<polygon fill="white" stroke="black" points="1043.77,-159.11 1033.22,-158.13 1040.86,-165.47 1043.77,-159.11"/>
</g>
<!-- NoSecurityScheme -->
<g id="node7" class="node">
<title>NoSecurityScheme</title>
<polygon fill="#8ccbf2" stroke="transparent" points="1332,-251 1332,-272 1471,-272 1471,-251 1332,-251"/>
<polygon fill="none" stroke="#8ccbf2" points="1332,-251 1332,-272 1471,-272 1471,-251 1332,-251"/>
<text text-anchor="start" x="1335" y="-258.8" font-family="mono" font-weight="bold" font-size="14.00" fill="#c83500">NoSecurityScheme</text>
</g>
<!-- NoSecurityScheme&#45;&gt;SecurityScheme -->
<g id="edge8" class="edge">
<title>NoSecurityScheme&#45;&gt;SecurityScheme</title>
<path fill="none" stroke="black" d="M1383.58,-243.91C1367.05,-228.69 1340.81,-207.04 1314,-195 1234.32,-159.23 1136.84,-141.28 1063.11,-132.31"/>
<polygon fill="white" stroke="black" points="1063.21,-128.8 1052.87,-131.11 1062.39,-135.75 1063.21,-128.8"/>
</g>
<!-- OAuth2SecurityScheme -->
<g id="node8" class="node">
<title>OAuth2SecurityScheme</title>
<polygon fill="#8ccbf2" stroke="transparent" points="1505,-272 1505,-293 1702,-293 1702,-272 1505,-272"/>
<polygon fill="none" stroke="#8ccbf2" points="1505,-272 1505,-293 1702,-293 1702,-272 1505,-272"/>
<text text-anchor="start" x="1520.5" y="-279.8" font-family="mono" font-weight="bold" font-size="14.00" fill="#c83500">OAuth2SecurityScheme</text>
<polygon fill="#ddeeff" stroke="transparent" points="1505,-251 1505,-272 1702,-272 1702,-251 1505,-251"/>
<polygon fill="none" stroke="#8ccbf2" points="1505,-251 1505,-272 1702,-272 1702,-251 1505,-251"/>
<text text-anchor="start" x="1508" y="-258.8" font-family="mono" font-size="14.00" fill="#c83500">scopes</text>
<text text-anchor="start" x="1558" y="-258.8" font-family="Times,serif" font-size="14.00"> : (Array of) </text>
<text text-anchor="start" x="1645" y="-258.8" font-family="mono" font-size="14.00" fill="#c83500">string</text>
<polygon fill="#ddeeff" stroke="transparent" points="1505,-230 1505,-251 1702,-251 1702,-230 1505,-230"/>
<polygon fill="none" stroke="#8ccbf2" points="1505,-230 1505,-251 1702,-251 1702,-230 1505,-230"/>
<text text-anchor="start" x="1508" y="-237.8" font-family="mono" font-size="14.00" fill="#c83500">flow</text>
<text text-anchor="start" x="1542" y="-237.8" font-family="Times,serif" font-size="14.00"> : </text>
<text text-anchor="start" x="1556" y="-237.8" font-family="mono" font-size="14.00" fill="#c83500">string</text>
<text text-anchor="start" x="1606" y="-237.8" font-family="Times,serif" font-size="14.00"> </text>
<text text-anchor="start" x="1611" y="-237.8" font-family="Times,serif" font-style="italic" font-size="14.00">(mandatory)</text>
</g>
<!-- OAuth2SecurityScheme&#45;&gt;SecurityScheme -->
<g id="edge9" class="edge">
<title>OAuth2SecurityScheme&#45;&gt;SecurityScheme</title>
<path fill="none" stroke="black" d="M1552.17,-226.45C1532.59,-214.68 1509.51,-202.59 1487,-195 1345.56,-147.33 1173.02,-131.3 1062.83,-125.99"/>
<polygon fill="white" stroke="black" points="1062.85,-122.49 1052.7,-125.53 1062.53,-129.48 1062.85,-122.49"/>
</g>
<!-- PSKSecurityScheme -->
<g id="node9" class="node">
<title>PSKSecurityScheme</title>
<polygon fill="#8ccbf2" stroke="transparent" points="1736,-262 1736,-283 1883,-283 1883,-262 1736,-262"/>
<polygon fill="none" stroke="#8ccbf2" points="1736,-262 1736,-283 1883,-283 1883,-262 1736,-262"/>
<text text-anchor="start" x="1739" y="-269.8" font-family="mono" font-weight="bold" font-size="14.00" fill="#c83500">PSKSecurityScheme</text>
<polygon fill="#ddeeff" stroke="transparent" points="1736,-241 1736,-262 1883,-262 1883,-241 1736,-241"/>
<polygon fill="none" stroke="#8ccbf2" points="1736,-241 1736,-262 1883,-262 1883,-241 1736,-241"/>
<text text-anchor="start" x="1739" y="-248.8" font-family="mono" font-size="14.00" fill="#c83500">identity</text>
<text text-anchor="start" x="1806" y="-248.8" font-family="Times,serif" font-size="14.00"> : </text>
<text text-anchor="start" x="1820" y="-248.8" font-family="mono" font-size="14.00" fill="#c83500">string</text>
</g>
<!-- PSKSecurityScheme&#45;&gt;SecurityScheme -->
<g id="edge10" class="edge">
<title>PSKSecurityScheme&#45;&gt;SecurityScheme</title>
<path fill="none" stroke="black" d="M1783.75,-236.93C1766.61,-222.13 1742.66,-204.29 1718,-195 1601,-150.92 1245.48,-133.08 1062.86,-126.67"/>
<polygon fill="white" stroke="black" points="1062.8,-123.16 1052.69,-126.31 1062.56,-130.16 1062.8,-123.16"/>
</g>
<!-- MultiLanguage -->
<g id="node11" class="node">
<title>MultiLanguage</title>
<polygon fill="#f2f2f2" stroke="transparent" points="895,-7 895,-28 1009,-28 1009,-7 895,-7"/>
<polygon fill="none" stroke="#8c8c8c" points="895,-7 895,-28 1009,-28 1009,-7 895,-7"/>
<text text-anchor="start" x="898" y="-14.8" font-family="mono" font-weight="bold" font-size="14.00">MultiLanguage</text>
</g>
<!-- SecurityScheme&#45;&gt;MultiLanguage -->
<g id="edge1" class="edge">
<title>SecurityScheme&#45;&gt;MultiLanguage</title>
<path fill="none" stroke="black" d="M952,-86.8C952,-73.59 952,-58.74 952,-46.32"/>
<polygon fill="black" stroke="black" points="955.5,-46.12 952,-36.12 948.5,-46.12 955.5,-46.12"/>
<text text-anchor="start" x="952" y="-57.8" font-family="mono" font-size="14.00" fill="#c83500">descriptions</text>
<text text-anchor="middle" x="939.5" y="-39.92" font-family="Times,serif" font-size="14.00">0..*</text>
</g>
</g>
</svg>
