<?xml version="1.0" encoding="UTF-8" standalone="no"?>
<!DOCTYPE svg PUBLIC "-//W3C//DTD SVG 1.1//EN"
 "http://www.w3.org/Graphics/SVG/1.1/DTD/svg11.dtd">
<!-- Generated by graphviz version 2.40.1 (20161225.0304)
 -->
<!-- Title: %3 Pages: 1 -->
<svg width="1652pt" height="249pt"
 viewBox="0.00 0.00 1651.50 249.00" xmlns="http://www.w3.org/2000/svg" xmlns:xlink="http://www.w3.org/1999/xlink">
<g id="graph0" class="graph" transform="scale(1 1) rotate(0) translate(4 245)">
<title>%3</title>
<polygon fill="#ffffff" stroke="transparent" points="-4,4 -4,-245 1647.5,-245 1647.5,4 -4,4"/>
<!-- APIKeySecurityScheme -->
<g id="node1" class="node">
<title>APIKeySecurityScheme</title>
<polygon fill="#8ccbf2" stroke="transparent" points="8,-184 8,-205 180,-205 180,-184 8,-184"/>
<polygon fill="none" stroke="#8ccbf2" points="8,-184 8,-205 180,-205 180,-184 8,-184"/>
<text text-anchor="start" x="11" y="-191.8" font-family="mono" font-weight="bold" font-size="14.00" fill="#c83500">APIKeySecurityScheme</text>
<polygon fill="#ddeeff" stroke="transparent" points="8,-163 8,-184 180,-184 180,-163 8,-163"/>
<polygon fill="none" stroke="#8ccbf2" points="8,-163 8,-184 180,-184 180,-163 8,-163"/>
<text text-anchor="start" x="11" y="-170.8" font-family="mono" font-size="14.00" fill="#c83500">in</text>
<text text-anchor="start" x="28" y="-170.8" font-family="Times,serif" font-size="14.00" fill="#000000"> : </text>
<text text-anchor="start" x="40" y="-170.8" font-family="mono" font-size="14.00" fill="#c83500">string</text>
<polygon fill="#ddeeff" stroke="transparent" points="8,-142 8,-163 180,-163 180,-142 8,-142"/>
<polygon fill="none" stroke="#8ccbf2" points="8,-142 8,-163 180,-163 180,-142 8,-142"/>
<text text-anchor="start" x="11" y="-149.8" font-family="mono" font-size="14.00" fill="#c83500">name</text>
<text text-anchor="start" x="45" y="-149.8" font-family="Times,serif" font-size="14.00" fill="#000000"> : </text>
<text text-anchor="start" x="57" y="-149.8" font-family="mono" font-size="14.00" fill="#c83500">string</text>
</g>
<!-- SecurityScheme -->
<g id="node9" class="node">
<title>SecurityScheme</title>
<polygon fill="#8ccbf2" stroke="transparent" points="659,-45.5 659,-66.5 1068,-66.5 1068,-45.5 659,-45.5"/>
<polygon fill="none" stroke="#8ccbf2" points="659,-45.5 659,-66.5 1068,-66.5 1068,-45.5 659,-45.5"/>
<text text-anchor="start" x="805.5" y="-53.3" font-family="mono" font-weight="bold" font-size="14.00" fill="#c83500">SecurityScheme</text>
<polygon fill="#ddeeff" stroke="transparent" points="659,-24.5 659,-45.5 1068,-45.5 1068,-24.5 659,-24.5"/>
<polygon fill="none" stroke="#8ccbf2" points="659,-24.5 659,-45.5 1068,-45.5 1068,-24.5 659,-24.5"/>
<text text-anchor="start" x="662" y="-32.3" font-family="mono" font-size="14.00" fill="#c83500">@type</text>
<text text-anchor="start" x="704" y="-32.3" font-family="Times,serif" font-size="14.00" fill="#000000"> : </text>
<text text-anchor="start" x="716" y="-32.3" font-family="Times,serif" font-style="italic" font-size="14.00" fill="#000000">(Array of) </text>
<text text-anchor="start" x="775" y="-32.3" font-family="mono" font-size="14.00" fill="#c83500">string</text>
<polygon fill="#ddeeff" stroke="transparent" points="659,-3.5 659,-24.5 1068,-24.5 1068,-3.5 659,-3.5"/>
<polygon fill="none" stroke="#8ccbf2" points="659,-3.5 659,-24.5 1068,-24.5 1068,-3.5 659,-3.5"/>
<text text-anchor="start" x="662" y="-11.3" font-family="mono" font-size="14.00" fill="#c83500">description</text>
<text text-anchor="start" x="753" y="-11.3" font-family="Times,serif" font-size="14.00" fill="#000000"> : Map of </text>
<text text-anchor="start" x="809" y="-11.3" font-family="mono" font-size="14.00" fill="#c83500">string</text>
<text text-anchor="start" x="859" y="-11.3" font-family="mono" font-size="14.00" fill="#c83500">descriptions</text>
<text text-anchor="start" x="959" y="-11.3" font-family="Times,serif" font-size="14.00" fill="#000000"> : Map of </text>
<text text-anchor="start" x="1015" y="-11.3" font-family="mono" font-size="14.00" fill="#c83500">string</text>
</g>
<!-- APIKeySecurityScheme&#45;&gt;SecurityScheme -->
<g id="edge1" class="edge">
<title>APIKeySecurityScheme&#45;&gt;SecurityScheme</title>
<path fill="none" stroke="#000000" d="M138.7201,-138.3518C155.9844,-126.4119 176.5,-114.2939 197,-107 276.3455,-78.7689 479.1044,-59.5951 640.2244,-48.2668"/>
<polygon fill="#ffffff" stroke="#000000" points="640.5559,-51.7523 650.2883,-47.5656 640.0692,-44.7692 640.5559,-51.7523"/>
</g>
<!-- BasicSecurityScheme -->
<g id="node2" class="node">
<title>BasicSecurityScheme</title>
<polygon fill="#8ccbf2" stroke="transparent" points="215,-184 215,-205 378,-205 378,-184 215,-184"/>
<polygon fill="none" stroke="#8ccbf2" points="215,-184 215,-205 378,-205 378,-184 215,-184"/>
<text text-anchor="start" x="218" y="-191.8" font-family="mono" font-weight="bold" font-size="14.00" fill="#c83500">BasicSecurityScheme</text>
<polygon fill="#ddeeff" stroke="transparent" points="215,-163 215,-184 378,-184 378,-163 215,-163"/>
<polygon fill="none" stroke="#8ccbf2" points="215,-163 215,-184 378,-184 378,-163 215,-163"/>
<text text-anchor="start" x="218" y="-170.8" font-family="mono" font-size="14.00" fill="#c83500">in</text>
<text text-anchor="start" x="235" y="-170.8" font-family="Times,serif" font-size="14.00" fill="#000000"> : </text>
<text text-anchor="start" x="247" y="-170.8" font-family="mono" font-size="14.00" fill="#c83500">string</text>
<polygon fill="#ddeeff" stroke="transparent" points="215,-142 215,-163 378,-163 378,-142 215,-142"/>
<polygon fill="none" stroke="#8ccbf2" points="215,-142 215,-163 378,-163 378,-142 215,-142"/>
<text text-anchor="start" x="218" y="-149.8" font-family="mono" font-size="14.00" fill="#c83500">name</text>
<text text-anchor="start" x="252" y="-149.8" font-family="Times,serif" font-size="14.00" fill="#000000"> : </text>
<text text-anchor="start" x="264" y="-149.8" font-family="mono" font-size="14.00" fill="#c83500">string</text>
</g>
<!-- BasicSecurityScheme&#45;&gt;SecurityScheme -->
<g id="edge2" class="edge">
<title>BasicSecurityScheme&#45;&gt;SecurityScheme</title>
<path fill="none" stroke="#000000" d="M339.4648,-138.4643C355.9555,-126.6853 375.4824,-114.644 395,-107 440.0423,-89.3594 542.6047,-72.825 640.2698,-60.1089"/>
<polygon fill="#ffffff" stroke="#000000" points="640.8429,-63.5641 650.3124,-58.8124 639.9466,-56.6217 640.8429,-63.5641"/>
</g>
<!-- BearerSecurityScheme -->
<g id="node3" class="node">
<title>BearerSecurityScheme</title>
<polygon fill="#8ccbf2" stroke="transparent" points="412,-216 412,-237 588,-237 588,-216 412,-216"/>
<polygon fill="none" stroke="#8ccbf2" points="412,-216 412,-237 588,-237 588,-216 412,-216"/>
<text text-anchor="start" x="417" y="-223.8" font-family="mono" font-weight="bold" font-size="14.00" fill="#c83500">BearerSecurityScheme</text>
<polygon fill="#ddeeff" stroke="transparent" points="412,-195 412,-216 588,-216 588,-195 412,-195"/>
<polygon fill="none" stroke="#8ccbf2" points="412,-195 412,-216 588,-216 588,-195 412,-195"/>
<text text-anchor="start" x="415" y="-202.8" font-family="mono" font-size="14.00" fill="#c83500">alg</text>
<text text-anchor="start" x="440" y="-202.8" font-family="Times,serif" font-size="14.00" fill="#000000"> : </text>
<text text-anchor="start" x="452" y="-202.8" font-family="mono" font-size="14.00" fill="#c83500">string</text>
<polygon fill="#ddeeff" stroke="transparent" points="412,-174 412,-195 588,-195 588,-174 412,-174"/>
<polygon fill="none" stroke="#8ccbf2" points="412,-174 412,-195 588,-195 588,-174 412,-174"/>
<text text-anchor="start" x="415" y="-181.8" font-family="mono" font-size="14.00" fill="#c83500">authorization</text>
<text text-anchor="start" x="523" y="-181.8" font-family="Times,serif" font-size="14.00" fill="#000000"> : </text>
<text text-anchor="start" x="535" y="-181.8" font-family="mono" font-size="14.00" fill="#c83500">anyURI</text>
<polygon fill="#ddeeff" stroke="transparent" points="412,-153 412,-174 588,-174 588,-153 412,-153"/>
<polygon fill="none" stroke="#8ccbf2" points="412,-153 412,-174 588,-174 588,-153 412,-153"/>
<text text-anchor="start" x="415" y="-160.8" font-family="mono" font-size="14.00" fill="#c83500">format</text>
<text text-anchor="start" x="465" y="-160.8" font-family="Times,serif" font-size="14.00" fill="#000000"> : </text>
<text text-anchor="start" x="477" y="-160.8" font-family="mono" font-size="14.00" fill="#c83500">string</text>
<polygon fill="#ddeeff" stroke="transparent" points="412,-132 412,-153 588,-153 588,-132 412,-132"/>
<polygon fill="none" stroke="#8ccbf2" points="412,-132 412,-153 588,-153 588,-132 412,-132"/>
<text text-anchor="start" x="415" y="-139.8" font-family="mono" font-size="14.00" fill="#c83500">in</text>
<text text-anchor="start" x="432" y="-139.8" font-family="Times,serif" font-size="14.00" fill="#000000"> : </text>
<text text-anchor="start" x="444" y="-139.8" font-family="mono" font-size="14.00" fill="#c83500">string</text>
<polygon fill="#ddeeff" stroke="transparent" points="412,-111 412,-132 588,-132 588,-111 412,-111"/>
<polygon fill="none" stroke="#8ccbf2" points="412,-111 412,-132 588,-132 588,-111 412,-111"/>
<text text-anchor="start" x="415" y="-118.8" font-family="mono" font-size="14.00" fill="#c83500">name</text>
<text text-anchor="start" x="449" y="-118.8" font-family="Times,serif" font-size="14.00" fill="#000000"> : </text>
<text text-anchor="start" x="461" y="-118.8" font-family="mono" font-size="14.00" fill="#c83500">string</text>
</g>
<!-- BearerSecurityScheme&#45;&gt;SecurityScheme -->
<g id="edge3" class="edge">
<title>BearerSecurityScheme&#45;&gt;SecurityScheme</title>
<path fill="none" stroke="#000000" d="M596.0834,-111.173C599.061,-109.7156 602.0372,-108.3201 605,-107 633.6369,-94.2406 665.0938,-83.2413 695.8969,-73.9603"/>
<polygon fill="#ffffff" stroke="#000000" points="697.2756,-77.2024 705.8705,-71.0074 695.2882,-70.4904 697.2756,-77.2024"/>
</g>
<!-- ComboSecurityScheme -->
<g id="node4" class="node">
<title>ComboSecurityScheme</title>
<polygon fill="#8ccbf2" stroke="transparent" points="623,-184 623,-205 864,-205 864,-184 623,-184"/>
<polygon fill="none" stroke="#8ccbf2" points="623,-184 623,-205 864,-205 864,-184 623,-184"/>
<text text-anchor="start" x="665" y="-191.8" font-family="mono" font-weight="bold" font-size="14.00" fill="#c83500">ComboSecurityScheme</text>
<polygon fill="#ddeeff" stroke="transparent" points="623,-163 623,-184 864,-184 864,-163 623,-163"/>
<polygon fill="none" stroke="#8ccbf2" points="623,-163 623,-184 864,-184 864,-163 623,-163"/>
<text text-anchor="start" x="626" y="-170.8" font-family="mono" font-size="14.00" fill="#c83500">oneOf</text>
<text text-anchor="start" x="668" y="-170.8" font-family="Times,serif" font-size="14.00" fill="#000000"> : (Array of) </text>
<text text-anchor="start" x="739" y="-170.8" font-family="mono" font-size="14.00" fill="#c83500">string</text>
<text text-anchor="start" x="789" y="-170.8" font-family="Times,serif" font-size="14.00" fill="#000000"> </text>
<text text-anchor="start" x="793" y="-170.8" font-family="Times,serif" font-style="italic" font-size="14.00" fill="#000000">(mandatory)</text>
<polygon fill="#ddeeff" stroke="transparent" points="623,-142 623,-163 864,-163 864,-142 623,-142"/>
<polygon fill="none" stroke="#8ccbf2" points="623,-142 623,-163 864,-163 864,-142 623,-142"/>
<text text-anchor="start" x="626" y="-149.8" font-family="mono" font-size="14.00" fill="#c83500">allOf</text>
<text text-anchor="start" x="668" y="-149.8" font-family="Times,serif" font-size="14.00" fill="#000000"> : (Array of) </text>
<text text-anchor="start" x="739" y="-149.8" font-family="mono" font-size="14.00" fill="#c83500">string</text>
<text text-anchor="start" x="789" y="-149.8" font-family="Times,serif" font-size="14.00" fill="#000000"> </text>
<text text-anchor="start" x="793" y="-149.8" font-family="Times,serif" font-style="italic" font-size="14.00" fill="#000000">(mandatory)</text>
</g>
<!-- ComboSecurityScheme&#45;&gt;SecurityScheme -->
<g id="edge4" class="edge">
<title>ComboSecurityScheme&#45;&gt;SecurityScheme</title>
<path fill="none" stroke="#000000" d="M773.903,-138.3328C789.6499,-120.1583 808.9248,-97.9118 825.5141,-78.765"/>
<polygon fill="#ffffff" stroke="#000000" points="828.2987,-80.896 832.2017,-71.0463 823.0082,-76.3122 828.2987,-80.896"/>
</g>
<!-- DigestSecurityScheme -->
<g id="node5" class="node">
<title>DigestSecurityScheme</title>
<polygon fill="#8ccbf2" stroke="transparent" points="898,-195 898,-216 1070,-216 1070,-195 898,-195"/>
<polygon fill="none" stroke="#8ccbf2" points="898,-195 898,-216 1070,-216 1070,-195 898,-195"/>
<text text-anchor="start" x="901" y="-202.8" font-family="mono" font-weight="bold" font-size="14.00" fill="#c83500">DigestSecurityScheme</text>
<polygon fill="#ddeeff" stroke="transparent" points="898,-174 898,-195 1070,-195 1070,-174 898,-174"/>
<polygon fill="none" stroke="#8ccbf2" points="898,-174 898,-195 1070,-195 1070,-174 898,-174"/>
<text text-anchor="start" x="901" y="-181.8" font-family="mono" font-size="14.00" fill="#c83500">qop</text>
<text text-anchor="start" x="926" y="-181.8" font-family="Times,serif" font-size="14.00" fill="#000000"> : </text>
<text text-anchor="start" x="938" y="-181.8" font-family="mono" font-size="14.00" fill="#c83500">string</text>
<polygon fill="#ddeeff" stroke="transparent" points="898,-153 898,-174 1070,-174 1070,-153 898,-153"/>
<polygon fill="none" stroke="#8ccbf2" points="898,-153 898,-174 1070,-174 1070,-153 898,-153"/>
<text text-anchor="start" x="901" y="-160.8" font-family="mono" font-size="14.00" fill="#c83500">in</text>
<text text-anchor="start" x="918" y="-160.8" font-family="Times,serif" font-size="14.00" fill="#000000"> : </text>
<text text-anchor="start" x="930" y="-160.8" font-family="mono" font-size="14.00" fill="#c83500">string</text>
<polygon fill="#ddeeff" stroke="transparent" points="898,-132 898,-153 1070,-153 1070,-132 898,-132"/>
<polygon fill="none" stroke="#8ccbf2" points="898,-132 898,-153 1070,-153 1070,-132 898,-132"/>
<text text-anchor="start" x="901" y="-139.8" font-family="mono" font-size="14.00" fill="#c83500">name</text>
<text text-anchor="start" x="935" y="-139.8" font-family="Times,serif" font-size="14.00" fill="#000000"> : </text>
<text text-anchor="start" x="947" y="-139.8" font-family="mono" font-size="14.00" fill="#c83500">string</text>
</g>
<!-- DigestSecurityScheme&#45;&gt;SecurityScheme -->
<g id="edge5" class="edge">
<title>DigestSecurityScheme&#45;&gt;SecurityScheme</title>
<path fill="none" stroke="#000000" d="M943.7088,-127.8815C930.0096,-112.2011 914.7488,-94.7331 901.2168,-79.244"/>
<polygon fill="#ffffff" stroke="#000000" points="903.5305,-76.5726 894.3154,-71.3445 898.2589,-81.1781 903.5305,-76.5726"/>
</g>
<!-- NoSecurityScheme -->
<g id="node6" class="node">
<title>NoSecurityScheme</title>
<polygon fill="#8ccbf2" stroke="transparent" points="1105,-163 1105,-184 1244,-184 1244,-163 1105,-163"/>
<polygon fill="none" stroke="#8ccbf2" points="1105,-163 1105,-184 1244,-184 1244,-163 1105,-163"/>
<text text-anchor="start" x="1108" y="-170.8" font-family="mono" font-weight="bold" font-size="14.00" fill="#c83500">NoSecurityScheme</text>
</g>
<!-- NoSecurityScheme&#45;&gt;SecurityScheme -->
<g id="edge6" class="edge">
<title>NoSecurityScheme&#45;&gt;SecurityScheme</title>
<path fill="none" stroke="#000000" d="M1154.6327,-155.8777C1137.8455,-140.9929 1112.33,-120.2713 1087,-107 1063.0076,-94.4295 1036.4045,-83.572 1010.1557,-74.3841"/>
<polygon fill="#ffffff" stroke="#000000" points="1011.1012,-71.0083 1000.5066,-71.0745 1008.8301,-77.6296 1011.1012,-71.0083"/>
</g>
<!-- OAuth2SecurityScheme -->
<g id="node7" class="node">
<title>OAuth2SecurityScheme</title>
<polygon fill="#8ccbf2" stroke="transparent" points="1278,-184 1278,-205 1455,-205 1455,-184 1278,-184"/>
<polygon fill="none" stroke="#8ccbf2" points="1278,-184 1278,-205 1455,-205 1455,-184 1278,-184"/>
<text text-anchor="start" x="1283.5" y="-191.8" font-family="mono" font-weight="bold" font-size="14.00" fill="#c83500">OAuth2SecurityScheme</text>
<polygon fill="#ddeeff" stroke="transparent" points="1278,-163 1278,-184 1455,-184 1455,-163 1278,-163"/>
<polygon fill="none" stroke="#8ccbf2" points="1278,-163 1278,-184 1455,-184 1455,-163 1278,-163"/>
<text text-anchor="start" x="1281" y="-170.8" font-family="mono" font-size="14.00" fill="#c83500">scopes</text>
<text text-anchor="start" x="1331" y="-170.8" font-family="Times,serif" font-size="14.00" fill="#000000"> : (Array of) </text>
<text text-anchor="start" x="1402" y="-170.8" font-family="mono" font-size="14.00" fill="#c83500">string</text>
<polygon fill="#ddeeff" stroke="transparent" points="1278,-142 1278,-163 1455,-163 1455,-142 1278,-142"/>
<polygon fill="none" stroke="#8ccbf2" points="1278,-142 1278,-163 1455,-163 1455,-142 1278,-142"/>
<text text-anchor="start" x="1281" y="-149.8" font-family="mono" font-size="14.00" fill="#c83500">flow</text>
<text text-anchor="start" x="1315" y="-149.8" font-family="Times,serif" font-size="14.00" fill="#000000"> : </text>
<text text-anchor="start" x="1327" y="-149.8" font-family="mono" font-size="14.00" fill="#c83500">string</text>
<text text-anchor="start" x="1377" y="-149.8" font-family="Times,serif" font-size="14.00" fill="#000000"> </text>
<text text-anchor="start" x="1381" y="-149.8" font-family="Times,serif" font-style="italic" font-size="14.00" fill="#000000">(mandatory)</text>
</g>
<!-- OAuth2SecurityScheme&#45;&gt;SecurityScheme -->
<g id="edge7" class="edge">
<title>OAuth2SecurityScheme&#45;&gt;SecurityScheme</title>
<path fill="none" stroke="#000000" d="M1318.9826,-138.4584C1301.5654,-126.8237 1281.1384,-114.8772 1261,-107 1205.9169,-85.4541 1143.9826,-70.3457 1085.6727,-59.7713"/>
<polygon fill="#ffffff" stroke="#000000" points="1086.0491,-56.2835 1075.5912,-57.9812 1084.8253,-63.1757 1086.0491,-56.2835"/>
</g>
<!-- PSKSecurityScheme -->
<g id="node8" class="node">
<title>PSKSecurityScheme</title>
<polygon fill="#8ccbf2" stroke="transparent" points="1489,-174 1489,-195 1636,-195 1636,-174 1489,-174"/>
<polygon fill="none" stroke="#8ccbf2" points="1489,-174 1489,-195 1636,-195 1636,-174 1489,-174"/>
<text text-anchor="start" x="1492" y="-181.8" font-family="mono" font-weight="bold" font-size="14.00" fill="#c83500">PSKSecurityScheme</text>
<polygon fill="#ddeeff" stroke="transparent" points="1489,-153 1489,-174 1636,-174 1636,-153 1489,-153"/>
<polygon fill="none" stroke="#8ccbf2" points="1489,-153 1489,-174 1636,-174 1636,-153 1489,-153"/>
<text text-anchor="start" x="1492" y="-160.8" font-family="mono" font-size="14.00" fill="#c83500">identity</text>
<text text-anchor="start" x="1559" y="-160.8" font-family="Times,serif" font-size="14.00" fill="#000000"> : </text>
<text text-anchor="start" x="1571" y="-160.8" font-family="mono" font-size="14.00" fill="#c83500">string</text>
</g>
<!-- PSKSecurityScheme&#45;&gt;SecurityScheme -->
<g id="edge8" class="edge">
<title>PSKSecurityScheme&#45;&gt;SecurityScheme</title>
<path fill="none" stroke="#000000" d="M1535.9264,-148.7559C1519.0752,-134.0156 1495.8936,-116.4992 1472,-107 1403.3496,-79.7072 1230.1282,-60.9919 1085.9044,-49.5758"/>
<polygon fill="#ffffff" stroke="#000000" points="1085.815,-46.0581 1075.5722,-48.7664 1085.2683,-53.0368 1085.815,-46.0581"/>
</g>
</g>
</svg>
