<?xml version="1.0" encoding="UTF-8" standalone="no"?>
<!DOCTYPE svg PUBLIC "-//W3C//DTD SVG 1.1//EN"
 "http://www.w3.org/Graphics/SVG/1.1/DTD/svg11.dtd">
<!-- Generated by graphviz version 2.38.0 (20140413.2041)
 -->
<!-- Title: %3 Pages: 1 -->
<svg width="1905pt" height="306pt"
 viewBox="0.00 0.00 1905.00 306.00" xmlns="http://www.w3.org/2000/svg" xmlns:xlink="http://www.w3.org/1999/xlink">
<g id="graph0" class="graph" transform="scale(1 1) rotate(0) translate(4 302)">
<title>%3</title>
<polygon fill="white" stroke="none" points="-4,4 -4,-302 1901,-302 1901,4 -4,4"/>
<!-- APIKeySecurityScheme -->
<g id="node1" class="node"><title>APIKeySecurityScheme</title>
<polygon fill="#8ccbf2" stroke="none" points="8,-241 8,-262 180,-262 180,-241 8,-241"/>
<polygon fill="none" stroke="#8ccbf2" points="8,-241 8,-262 180,-262 180,-241 8,-241"/>
<text text-anchor="start" x="11" y="-248.8" font-family="mono" font-weight="bold" font-size="14.00" fill="#c83500">APIKeySecurityScheme</text>
<polygon fill="#ddeeff" stroke="none" points="8,-220 8,-241 180,-241 180,-220 8,-220"/>
<polygon fill="none" stroke="#8ccbf2" points="8,-220 8,-241 180,-241 180,-220 8,-220"/>
<text text-anchor="start" x="11" y="-227.8" font-family="mono" font-size="14.00" fill="#c83500">in</text>
<text text-anchor="start" x="28" y="-227.8" font-family="Times,serif" font-size="14.00"> : </text>
<text text-anchor="start" x="40" y="-227.8" font-family="mono" font-size="14.00" fill="#c83500">string</text>
<polygon fill="#ddeeff" stroke="none" points="8,-199 8,-220 180,-220 180,-199 8,-199"/>
<polygon fill="none" stroke="#8ccbf2" points="8,-199 8,-220 180,-220 180,-199 8,-199"/>
<text text-anchor="start" x="11" y="-206.8" font-family="mono" font-size="14.00" fill="#c83500">name</text>
<text text-anchor="start" x="45" y="-206.8" font-family="Times,serif" font-size="14.00"> : </text>
<text text-anchor="start" x="57" y="-206.8" font-family="mono" font-size="14.00" fill="#c83500">string</text>
</g>
<!-- SecurityScheme -->
<g id="node9" class="node"><title>SecurityScheme</title>
<polygon fill="#8ccbf2" stroke="none" points="659,-66.5 659,-87.5 1068,-87.5 1068,-66.5 659,-66.5"/>
<polygon fill="none" stroke="#8ccbf2" points="659,-66.5 659,-87.5 1068,-87.5 1068,-66.5 659,-66.5"/>
<text text-anchor="start" x="805.5" y="-74.3" font-family="mono" font-weight="bold" font-size="14.00" fill="#c83500">SecurityScheme</text>
<polygon fill="#ddeeff" stroke="none" points="659,-45.5 659,-66.5 1068,-66.5 1068,-45.5 659,-45.5"/>
<polygon fill="none" stroke="#8ccbf2" points="659,-45.5 659,-66.5 1068,-66.5 1068,-45.5 659,-45.5"/>
<text text-anchor="start" x="662" y="-53.3" font-family="mono" font-size="14.00" fill="#c83500">@type</text>
<text text-anchor="start" x="704" y="-53.3" font-family="Times,serif" font-size="14.00"> : </text>
<text text-anchor="start" x="716" y="-53.3" font-family="Times,serif" font-style="italic" font-size="14.00">(Array of) </text>
<text text-anchor="start" x="775" y="-53.3" font-family="mono" font-size="14.00" fill="#c83500">string</text>
<polygon fill="#ddeeff" stroke="none" points="659,-24.5 659,-45.5 1068,-45.5 1068,-24.5 659,-24.5"/>
<polygon fill="none" stroke="#8ccbf2" points="659,-24.5 659,-45.5 1068,-45.5 1068,-24.5 659,-24.5"/>
<text text-anchor="start" x="662" y="-32.3" font-family="mono" font-size="14.00" fill="#c83500">description</text>
<text text-anchor="start" x="753" y="-32.3" font-family="Times,serif" font-size="14.00"> : Map of </text>
<text text-anchor="start" x="809" y="-32.3" font-family="mono" font-size="14.00" fill="#c83500">string</text>
<text text-anchor="start" x="859" y="-32.3" font-family="mono" font-size="14.00" fill="#c83500">descriptions</text>
<text text-anchor="start" x="959" y="-32.3" font-family="Times,serif" font-size="14.00"> : Map of </text>
<text text-anchor="start" x="1015" y="-32.3" font-family="mono" font-size="14.00" fill="#c83500">string</text>
</g>
<!-- APIKeySecurityScheme&#45;&gt;SecurityScheme -->
<g id="edge2" class="edge"><title>APIKeySecurityScheme&#45;&gt;SecurityScheme</title>
<path fill="none" stroke="black" d="M139,-195.461C156.295,-183.762 176.758,-171.717 197,-164 338.825,-109.933 507.775,-83.3142 640.021,-70.2089"/>
<polygon fill="white" stroke="black" points="640.667,-73.6628 650.281,-69.2119 639.99,-66.6956 640.667,-73.6628"/>
</g>
<!-- BasicSecurityScheme -->
<g id="node2" class="node"><title>BasicSecurityScheme</title>
<polygon fill="#8ccbf2" stroke="none" points="215,-241 215,-262 378,-262 378,-241 215,-241"/>
<polygon fill="none" stroke="#8ccbf2" points="215,-241 215,-262 378,-262 378,-241 215,-241"/>
<text text-anchor="start" x="218" y="-248.8" font-family="mono" font-weight="bold" font-size="14.00" fill="#c83500">BasicSecurityScheme</text>
<polygon fill="#ddeeff" stroke="none" points="215,-220 215,-241 378,-241 378,-220 215,-220"/>
<polygon fill="none" stroke="#8ccbf2" points="215,-220 215,-241 378,-241 378,-220 215,-220"/>
<text text-anchor="start" x="218" y="-227.8" font-family="mono" font-size="14.00" fill="#c83500">in</text>
<text text-anchor="start" x="235" y="-227.8" font-family="Times,serif" font-size="14.00"> : </text>
<text text-anchor="start" x="247" y="-227.8" font-family="mono" font-size="14.00" fill="#c83500">string</text>
<polygon fill="#ddeeff" stroke="none" points="215,-199 215,-220 378,-220 378,-199 215,-199"/>
<polygon fill="none" stroke="#8ccbf2" points="215,-199 215,-220 378,-220 378,-199 215,-199"/>
<text text-anchor="start" x="218" y="-206.8" font-family="mono" font-size="14.00" fill="#c83500">name</text>
<text text-anchor="start" x="252" y="-206.8" font-family="Times,serif" font-size="14.00"> : </text>
<text text-anchor="start" x="264" y="-206.8" font-family="mono" font-size="14.00" fill="#c83500">string</text>
</g>
<!-- BasicSecurityScheme&#45;&gt;SecurityScheme -->
<g id="edge3" class="edge"><title>BasicSecurityScheme&#45;&gt;SecurityScheme</title>
<path fill="none" stroke="black" d="M340.341,-195.43C356.764,-184.011 376.021,-172.156 395,-164 471.996,-130.912 560.727,-107.384 640.088,-91.0124"/>
<polygon fill="white" stroke="black" points="641.117,-94.3749 650.218,-88.9509 639.72,-87.5156 641.117,-94.3749"/>
</g>
<!-- BearerSecurityScheme -->
<g id="node3" class="node"><title>BearerSecurityScheme</title>
<polygon fill="#8ccbf2" stroke="none" points="412,-273 412,-294 588,-294 588,-273 412,-273"/>
<polygon fill="none" stroke="#8ccbf2" points="412,-273 412,-294 588,-294 588,-273 412,-273"/>
<text text-anchor="start" x="417" y="-280.8" font-family="mono" font-weight="bold" font-size="14.00" fill="#c83500">BearerSecurityScheme</text>
<polygon fill="#ddeeff" stroke="none" points="412,-252 412,-273 588,-273 588,-252 412,-252"/>
<polygon fill="none" stroke="#8ccbf2" points="412,-252 412,-273 588,-273 588,-252 412,-252"/>
<text text-anchor="start" x="415" y="-259.8" font-family="mono" font-size="14.00" fill="#c83500">alg</text>
<text text-anchor="start" x="440" y="-259.8" font-family="Times,serif" font-size="14.00"> : </text>
<text text-anchor="start" x="452" y="-259.8" font-family="mono" font-size="14.00" fill="#c83500">string</text>
<polygon fill="#ddeeff" stroke="none" points="412,-231 412,-252 588,-252 588,-231 412,-231"/>
<polygon fill="none" stroke="#8ccbf2" points="412,-231 412,-252 588,-252 588,-231 412,-231"/>
<text text-anchor="start" x="415" y="-238.8" font-family="mono" font-size="14.00" fill="#c83500">authorization</text>
<text text-anchor="start" x="523" y="-238.8" font-family="Times,serif" font-size="14.00"> : </text>
<text text-anchor="start" x="535" y="-238.8" font-family="mono" font-size="14.00" fill="#c83500">anyURI</text>
<polygon fill="#ddeeff" stroke="none" points="412,-210 412,-231 588,-231 588,-210 412,-210"/>
<polygon fill="none" stroke="#8ccbf2" points="412,-210 412,-231 588,-231 588,-210 412,-210"/>
<text text-anchor="start" x="415" y="-217.8" font-family="mono" font-size="14.00" fill="#c83500">format</text>
<text text-anchor="start" x="465" y="-217.8" font-family="Times,serif" font-size="14.00"> : </text>
<text text-anchor="start" x="477" y="-217.8" font-family="mono" font-size="14.00" fill="#c83500">string</text>
<polygon fill="#ddeeff" stroke="none" points="412,-189 412,-210 588,-210 588,-189 412,-189"/>
<polygon fill="none" stroke="#8ccbf2" points="412,-189 412,-210 588,-210 588,-189 412,-189"/>
<text text-anchor="start" x="415" y="-196.8" font-family="mono" font-size="14.00" fill="#c83500">in</text>
<text text-anchor="start" x="432" y="-196.8" font-family="Times,serif" font-size="14.00"> : </text>
<text text-anchor="start" x="444" y="-196.8" font-family="mono" font-size="14.00" fill="#c83500">string</text>
<polygon fill="#ddeeff" stroke="none" points="412,-168 412,-189 588,-189 588,-168 412,-168"/>
<polygon fill="none" stroke="#8ccbf2" points="412,-168 412,-189 588,-189 588,-168 412,-168"/>
<text text-anchor="start" x="415" y="-175.8" font-family="mono" font-size="14.00" fill="#c83500">name</text>
<text text-anchor="start" x="449" y="-175.8" font-family="Times,serif" font-size="14.00"> : </text>
<text text-anchor="start" x="461" y="-175.8" font-family="mono" font-size="14.00" fill="#c83500">string</text>
</g>
<!-- BearerSecurityScheme&#45;&gt;SecurityScheme -->
<g id="edge4" class="edge"><title>BearerSecurityScheme&#45;&gt;SecurityScheme</title>
<path fill="none" stroke="black" d="M596.039,-168.748C599.043,-167.117 602.034,-165.53 605,-164 654.355,-138.535 711.229,-114.526 758.997,-95.7721"/>
<polygon fill="white" stroke="black" points="760.382,-98.9891 768.425,-92.0926 757.836,-92.4681 760.382,-98.9891"/>
</g>
<!-- ComboSecurityScheme -->
<g id="node4" class="node"><title>ComboSecurityScheme</title>
<polygon fill="#8ccbf2" stroke="none" points="623,-241 623,-262 864,-262 864,-241 623,-241"/>
<polygon fill="none" stroke="#8ccbf2" points="623,-241 623,-262 864,-262 864,-241 623,-241"/>
<text text-anchor="start" x="665" y="-248.8" font-family="mono" font-weight="bold" font-size="14.00" fill="#c83500">ComboSecurityScheme</text>
<polygon fill="#ddeeff" stroke="none" points="623,-220 623,-241 864,-241 864,-220 623,-220"/>
<polygon fill="none" stroke="#8ccbf2" points="623,-220 623,-241 864,-241 864,-220 623,-220"/>
<text text-anchor="start" x="626" y="-227.8" font-family="mono" font-size="14.00" fill="#c83500">oneOf</text>
<text text-anchor="start" x="668" y="-227.8" font-family="Times,serif" font-size="14.00"> : (Array of) </text>
<text text-anchor="start" x="739" y="-227.8" font-family="mono" font-size="14.00" fill="#c83500">string</text>
<text text-anchor="start" x="789" y="-227.8" font-family="Times,serif" font-size="14.00"> </text>
<text text-anchor="start" x="793" y="-227.8" font-family="Times,serif" font-style="italic" font-size="14.00">(mandatory)</text>
<polygon fill="#ddeeff" stroke="none" points="623,-199 623,-220 864,-220 864,-199 623,-199"/>
<polygon fill="none" stroke="#8ccbf2" points="623,-199 623,-220 864,-220 864,-199 623,-199"/>
<text text-anchor="start" x="626" y="-206.8" font-family="mono" font-size="14.00" fill="#c83500">allOf</text>
<text text-anchor="start" x="668" y="-206.8" font-family="Times,serif" font-size="14.00"> : (Array of) </text>
<text text-anchor="start" x="739" y="-206.8" font-family="mono" font-size="14.00" fill="#c83500">string</text>
<text text-anchor="start" x="789" y="-206.8" font-family="Times,serif" font-size="14.00"> </text>
<text text-anchor="start" x="793" y="-206.8" font-family="Times,serif" font-style="italic" font-size="14.00">(mandatory)</text>
</g>
<!-- ComboSecurityScheme&#45;&gt;SecurityScheme -->
<g id="edge5" class="edge"><title>ComboSecurityScheme&#45;&gt;SecurityScheme</title>
<path fill="none" stroke="black" d="M767.284,-195.092C786.295,-167.763 812.828,-129.622 833.138,-100.427"/>
<polygon fill="white" stroke="black" points="836.12,-102.269 838.957,-92.0613 830.374,-98.2716 836.12,-102.269"/>
</g>
<!-- DigestSecurityScheme -->
<g id="node5" class="node"><title>DigestSecurityScheme</title>
<polygon fill="#8ccbf2" stroke="none" points="898,-252 898,-273 1070,-273 1070,-252 898,-252"/>
<polygon fill="none" stroke="#8ccbf2" points="898,-252 898,-273 1070,-273 1070,-252 898,-252"/>
<text text-anchor="start" x="901" y="-259.8" font-family="mono" font-weight="bold" font-size="14.00" fill="#c83500">DigestSecurityScheme</text>
<polygon fill="#ddeeff" stroke="none" points="898,-231 898,-252 1070,-252 1070,-231 898,-231"/>
<polygon fill="none" stroke="#8ccbf2" points="898,-231 898,-252 1070,-252 1070,-231 898,-231"/>
<text text-anchor="start" x="901" y="-238.8" font-family="mono" font-size="14.00" fill="#c83500">in</text>
<text text-anchor="start" x="918" y="-238.8" font-family="Times,serif" font-size="14.00"> : </text>
<text text-anchor="start" x="930" y="-238.8" font-family="mono" font-size="14.00" fill="#c83500">string</text>
<polygon fill="#ddeeff" stroke="none" points="898,-210 898,-231 1070,-231 1070,-210 898,-210"/>
<polygon fill="none" stroke="#8ccbf2" points="898,-210 898,-231 1070,-231 1070,-210 898,-210"/>
<text text-anchor="start" x="901" y="-217.8" font-family="mono" font-size="14.00" fill="#c83500">name</text>
<text text-anchor="start" x="935" y="-217.8" font-family="Times,serif" font-size="14.00"> : </text>
<text text-anchor="start" x="947" y="-217.8" font-family="mono" font-size="14.00" fill="#c83500">string</text>
<polygon fill="#ddeeff" stroke="none" points="898,-189 898,-210 1070,-210 1070,-189 898,-189"/>
<polygon fill="none" stroke="#8ccbf2" points="898,-189 898,-210 1070,-210 1070,-189 898,-189"/>
<text text-anchor="start" x="901" y="-196.8" font-family="mono" font-size="14.00" fill="#c83500">qop</text>
<text text-anchor="start" x="926" y="-196.8" font-family="Times,serif" font-size="14.00"> : </text>
<text text-anchor="start" x="938" y="-196.8" font-family="mono" font-size="14.00" fill="#c83500">string</text>
</g>
<!-- DigestSecurityScheme&#45;&gt;SecurityScheme -->
<g id="edge6" class="edge"><title>DigestSecurityScheme&#45;&gt;SecurityScheme</title>
<path fill="none" stroke="black" d="M952.209,-184.678C933.965,-158.669 911.188,-126.197 893.215,-100.575"/>
<polygon fill="white" stroke="black" points="895.926,-98.3449 887.318,-92.1681 890.195,-102.365 895.926,-98.3449"/>
</g>
<!-- NoSecurityScheme -->
<g id="node6" class="node"><title>NoSecurityScheme</title>
<polygon fill="#8ccbf2" stroke="none" points="1105,-220 1105,-241 1244,-241 1244,-220 1105,-220"/>
<polygon fill="none" stroke="#8ccbf2" points="1105,-220 1105,-241 1244,-241 1244,-220 1105,-220"/>
<text text-anchor="start" x="1108" y="-227.8" font-family="mono" font-weight="bold" font-size="14.00" fill="#c83500">NoSecurityScheme</text>
</g>
<!-- NoSecurityScheme&#45;&gt;SecurityScheme -->
<g id="edge7" class="edge"><title>NoSecurityScheme&#45;&gt;SecurityScheme</title>
<path fill="none" stroke="black" d="M1153.76,-212.741C1136.65,-198.628 1111.14,-178.678 1087,-164 1045.27,-138.622 996.548,-114.826 955.22,-96.1917"/>
<polygon fill="white" stroke="black" points="956.533,-92.945 945.976,-92.0539 953.673,-99.3341 956.533,-92.945"/>
</g>
<!-- OAuth2SecurityScheme -->
<g id="node7" class="node"><title>OAuth2SecurityScheme</title>
<polygon fill="#8ccbf2" stroke="none" points="1278,-241 1278,-262 1455,-262 1455,-241 1278,-241"/>
<polygon fill="none" stroke="#8ccbf2" points="1278,-241 1278,-262 1455,-262 1455,-241 1278,-241"/>
<text text-anchor="start" x="1283.5" y="-248.8" font-family="mono" font-weight="bold" font-size="14.00" fill="#c83500">OAuth2SecurityScheme</text>
<polygon fill="#ddeeff" stroke="none" points="1278,-220 1278,-241 1455,-241 1455,-220 1278,-220"/>
<polygon fill="none" stroke="#8ccbf2" points="1278,-220 1278,-241 1455,-241 1455,-220 1278,-220"/>
<text text-anchor="start" x="1281" y="-227.8" font-family="mono" font-size="14.00" fill="#c83500">scopes</text>
<text text-anchor="start" x="1331" y="-227.8" font-family="Times,serif" font-size="14.00"> : (Array of) </text>
<text text-anchor="start" x="1402" y="-227.8" font-family="mono" font-size="14.00" fill="#c83500">string</text>
<polygon fill="#ddeeff" stroke="none" points="1278,-199 1278,-220 1455,-220 1455,-199 1278,-199"/>
<polygon fill="none" stroke="#8ccbf2" points="1278,-199 1278,-220 1455,-220 1455,-199 1278,-199"/>
<text text-anchor="start" x="1281" y="-206.8" font-family="mono" font-size="14.00" fill="#c83500">flow</text>
<text text-anchor="start" x="1315" y="-206.8" font-family="Times,serif" font-size="14.00"> : </text>
<text text-anchor="start" x="1327" y="-206.8" font-family="mono" font-size="14.00" fill="#c83500">string</text>
<text text-anchor="start" x="1377" y="-206.8" font-family="Times,serif" font-size="14.00"> </text>
<text text-anchor="start" x="1381" y="-206.8" font-family="Times,serif" font-style="italic" font-size="14.00">(mandatory)</text>
</g>
<!-- OAuth2SecurityScheme&#45;&gt;SecurityScheme -->
<g id="edge8" class="edge"><title>OAuth2SecurityScheme&#45;&gt;SecurityScheme</title>
<path fill="none" stroke="black" d="M1317.24,-195.448C1299.79,-184.232 1279.59,-172.502 1260,-164 1192.15,-134.55 1114.16,-111.489 1045.36,-94.4711"/>
<polygon fill="white" stroke="black" points="1045.83,-90.9815 1035.28,-92.004 1044.16,-97.7809 1045.83,-90.9815"/>
</g>
<!-- PSKSecurityScheme -->
<g id="node8" class="node"><title>PSKSecurityScheme</title>
<polygon fill="#8ccbf2" stroke="none" points="1489,-231 1489,-252 1636,-252 1636,-231 1489,-231"/>
<polygon fill="none" stroke="#8ccbf2" points="1489,-231 1489,-252 1636,-252 1636,-231 1489,-231"/>
<text text-anchor="start" x="1492" y="-238.8" font-family="mono" font-weight="bold" font-size="14.00" fill="#c83500">PSKSecurityScheme</text>
<polygon fill="#ddeeff" stroke="none" points="1489,-210 1489,-231 1636,-231 1636,-210 1489,-210"/>
<polygon fill="none" stroke="#8ccbf2" points="1489,-210 1489,-231 1636,-231 1636,-210 1489,-210"/>
<text text-anchor="start" x="1492" y="-217.8" font-family="mono" font-size="14.00" fill="#c83500">identity</text>
<text text-anchor="start" x="1559" y="-217.8" font-family="Times,serif" font-size="14.00"> : </text>
<text text-anchor="start" x="1571" y="-217.8" font-family="mono" font-size="14.00" fill="#c83500">string</text>
</g>
<!-- PSKSecurityScheme&#45;&gt;SecurityScheme -->
<g id="edge9" class="edge"><title>PSKSecurityScheme&#45;&gt;SecurityScheme</title>
<path fill="none" stroke="black" d="M1535.72,-205.94C1518.53,-191.538 1494.9,-174.119 1471,-164 1349.46,-112.549 1204.14,-85.9545 1086.05,-72.2076"/>
<polygon fill="white" stroke="black" points="1086.13,-68.6938 1075.8,-71.038 1085.34,-75.6487 1086.13,-68.6938"/>
</g>
<!-- Signature -->
<g id="node10" class="node"><title>Signature</title>
<polygon fill="#8ccbf2" stroke="none" points="1670,-241 1670,-262 1860,-262 1860,-241 1670,-241"/>
<polygon fill="none" stroke="#8ccbf2" points="1670,-241 1670,-262 1860,-262 1860,-241 1670,-241"/>
<text text-anchor="start" x="1727.5" y="-248.8" font-family="mono" font-weight="bold" font-size="14.00" fill="#c83500">Signature</text>
<polygon fill="#ddeeff" stroke="none" points="1670,-220 1670,-241 1860,-241 1860,-220 1670,-220"/>
<polygon fill="none" stroke="#8ccbf2" points="1670,-220 1670,-241 1860,-241 1860,-220 1670,-220"/>
<text text-anchor="start" x="1673" y="-227.8" font-family="mono" font-size="14.00" fill="#c83500">sig</text>
<text text-anchor="start" x="1698" y="-227.8" font-family="Times,serif" font-size="14.00"> : </text>
<text text-anchor="start" x="1710" y="-227.8" font-family="mono" font-size="14.00" fill="#c83500">string</text>
<text text-anchor="start" x="1760" y="-227.8" font-family="Times,serif" font-size="14.00"> </text>
<text text-anchor="start" x="1764" y="-227.8" font-family="Times,serif" font-style="italic" font-size="14.00">(mandatory)</text>
<polygon fill="#ddeeff" stroke="none" points="1670,-199 1670,-220 1860,-220 1860,-199 1670,-199"/>
<polygon fill="none" stroke="#8ccbf2" points="1670,-199 1670,-220 1860,-220 1860,-199 1670,-199"/>
<text text-anchor="start" x="1673" y="-206.8" font-family="mono" font-size="14.00" fill="#c83500">sigAlg</text>
<text text-anchor="start" x="1723" y="-206.8" font-family="Times,serif" font-size="14.00"> : </text>
<text text-anchor="start" x="1735" y="-206.8" font-family="mono" font-size="14.00" fill="#c83500">string</text>
<text text-anchor="start" x="1785" y="-206.8" font-family="Times,serif" font-size="14.00"> </text>
<text text-anchor="start" x="1789" y="-206.8" font-family="Times,serif" font-style="italic" font-size="14.00">(mandatory)</text>
</g>
<!-- SignedInfo -->
<g id="node11" class="node"><title>SignedInfo</title>
<polygon fill="#8ccbf2" stroke="none" points="1641,-87.5 1641,-108.5 1889,-108.5 1889,-87.5 1641,-87.5"/>
<polygon fill="none" stroke="#8ccbf2" points="1641,-87.5 1641,-108.5 1889,-108.5 1889,-87.5 1641,-87.5"/>
<text text-anchor="start" x="1723.5" y="-95.3" font-family="mono" font-weight="bold" font-size="14.00" fill="#c83500">SignedInfo</text>
<polygon fill="#ddeeff" stroke="none" points="1641,-66.5 1641,-87.5 1889,-87.5 1889,-66.5 1641,-66.5"/>
<polygon fill="none" stroke="#8ccbf2" points="1641,-66.5 1641,-87.5 1889,-87.5 1889,-66.5 1641,-66.5"/>
<text text-anchor="start" x="1644" y="-74.3" font-family="mono" font-size="14.00" fill="#c83500">reference</text>
<text text-anchor="start" x="1719" y="-74.3" font-family="Times,serif" font-size="14.00"> : </text>
<text text-anchor="start" x="1731" y="-74.3" font-family="mono" font-size="14.00" fill="#c83500">string</text>
<text text-anchor="start" x="1781" y="-74.3" font-family="Times,serif" font-size="14.00"> </text>
<text text-anchor="start" x="1785" y="-74.3" font-family="Times,serif" font-style="italic" font-size="14.00">(mandatory)</text>
<polygon fill="#ddeeff" stroke="none" points="1641,-45.5 1641,-66.5 1889,-66.5 1889,-45.5 1641,-45.5"/>
<polygon fill="none" stroke="#8ccbf2" points="1641,-45.5 1641,-66.5 1889,-66.5 1889,-45.5 1641,-45.5"/>
<text text-anchor="start" x="1644" y="-53.3" font-family="mono" font-size="14.00" fill="#c83500">referenceType</text>
<text text-anchor="start" x="1752" y="-53.3" font-family="Times,serif" font-size="14.00"> : </text>
<text text-anchor="start" x="1764" y="-53.3" font-family="mono" font-size="14.00" fill="#c83500">string</text>
<text text-anchor="start" x="1814" y="-53.3" font-family="Times,serif" font-size="14.00"> </text>
<text text-anchor="start" x="1818" y="-53.3" font-family="Times,serif" font-style="italic" font-size="14.00">(mandatory)</text>
<polygon fill="#ddeeff" stroke="none" points="1641,-24.5 1641,-45.5 1889,-45.5 1889,-24.5 1641,-24.5"/>
<polygon fill="none" stroke="#8ccbf2" points="1641,-24.5 1641,-45.5 1889,-45.5 1889,-24.5 1641,-24.5"/>
<text text-anchor="start" x="1644" y="-32.3" font-family="mono" font-size="14.00" fill="#c83500">digest</text>
<text text-anchor="start" x="1694" y="-32.3" font-family="Times,serif" font-size="14.00"> : </text>
<text text-anchor="start" x="1706" y="-32.3" font-family="mono" font-size="14.00" fill="#c83500">string</text>
<text text-anchor="start" x="1756" y="-32.3" font-family="Times,serif" font-size="14.00"> </text>
<text text-anchor="start" x="1760" y="-32.3" font-family="Times,serif" font-style="italic" font-size="14.00">(mandatory)</text>
<polygon fill="#ddeeff" stroke="none" points="1641,-3.5 1641,-24.5 1889,-24.5 1889,-3.5 1641,-3.5"/>
<polygon fill="none" stroke="#8ccbf2" points="1641,-3.5 1641,-24.5 1889,-24.5 1889,-3.5 1641,-3.5"/>
<text text-anchor="start" x="1644" y="-11.3" font-family="mono" font-size="14.00" fill="#c83500">digestAlg</text>
<text text-anchor="start" x="1719" y="-11.3" font-family="Times,serif" font-size="14.00"> : </text>
<text text-anchor="start" x="1731" y="-11.3" font-family="mono" font-size="14.00" fill="#c83500">string</text>
<text text-anchor="start" x="1781" y="-11.3" font-family="Times,serif" font-size="14.00"> </text>
<text text-anchor="start" x="1785" y="-11.3" font-family="Times,serif" font-style="italic" font-size="14.00">(mandatory)</text>
</g>
<!-- Signature&#45;&gt;SignedInfo -->
<g id="edge1" class="edge"><title>Signature&#45;&gt;SignedInfo</title>
<path fill="none" stroke="black" d="M1765,-195.092C1765,-174.504 1765,-147.78 1765,-123.367"/>
<polygon fill="black" stroke="black" points="1768.5,-123.07 1765,-113.07 1761.5,-123.071 1768.5,-123.07"/>
<text text-anchor="start" x="1765" y="-134.8" font-family="mono" font-size="14.00" fill="#c83500">signedInfo</text>
<text text-anchor="middle" x="1754" y="-116.87" font-family="Times,serif" font-size="14.00">1..*</text>
</g>
</g>
</svg>
