<?xml version="1.0" encoding="UTF-8" standalone="no"?>
<!DOCTYPE svg PUBLIC "-//W3C//DTD SVG 1.1//EN"
 "http://www.w3.org/Graphics/SVG/1.1/DTD/svg11.dtd">
<!-- Generated by graphviz version 2.43.0 (0)
 -->
<!-- Title: %3 Pages: 1 -->
<svg width="1889pt" height="358pt"
 viewBox="0.00 0.00 1888.50 358.00" xmlns="http://www.w3.org/2000/svg" xmlns:xlink="http://www.w3.org/1999/xlink">
<g id="graph0" class="graph" transform="scale(1 1) rotate(0) translate(4 354)">
<title>%3</title>
<polygon fill="white" stroke="transparent" points="-4,4 -4,-354 1884.5,-354 1884.5,4 -4,4"/>
<!-- APIKeySecurityScheme -->
<g id="node1" class="node">
<title>APIKeySecurityScheme</title>
<polygon fill="#8ccbf2" stroke="transparent" points="8,-293 8,-314 180,-314 180,-293 8,-293"/>
<polygon fill="none" stroke="#8ccbf2" points="8,-293 8,-314 180,-314 180,-293 8,-293"/>
<text text-anchor="start" x="11" y="-300.8" font-family="mono" font-weight="bold" font-size="14.00" fill="#c83500">APIKeySecurityScheme</text>
<polygon fill="#ddeeff" stroke="transparent" points="8,-272 8,-293 180,-293 180,-272 8,-272"/>
<polygon fill="none" stroke="#8ccbf2" points="8,-272 8,-293 180,-293 180,-272 8,-272"/>
<text text-anchor="start" x="11" y="-279.8" font-family="mono" font-size="14.00" fill="#c83500">name</text>
<text text-anchor="start" x="45" y="-279.8" font-family="Times,serif" font-size="14.00"> : </text>
<text text-anchor="start" x="59" y="-279.8" font-family="mono" font-size="14.00" fill="#c83500">string</text>
<polygon fill="#ddeeff" stroke="transparent" points="8,-251 8,-272 180,-272 180,-251 8,-251"/>
<polygon fill="none" stroke="#8ccbf2" points="8,-251 8,-272 180,-272 180,-251 8,-251"/>
<text text-anchor="start" x="11" y="-258.8" font-family="mono" font-size="14.00" fill="#c83500">in</text>
<text text-anchor="start" x="28" y="-258.8" font-family="Times,serif" font-size="14.00"> : </text>
<text text-anchor="start" x="42" y="-258.8" font-family="mono" font-size="14.00" fill="#c83500">string</text>
</g>
<!-- SecurityScheme -->
<g id="node10" class="node">
<title>SecurityScheme</title>
<polygon fill="#8ccbf2" stroke="transparent" points="850,-154 850,-175 1044,-175 1044,-154 850,-154"/>
<polygon fill="none" stroke="#8ccbf2" points="850,-154 850,-175 1044,-175 1044,-154 850,-154"/>
<text text-anchor="start" x="889" y="-161.8" font-family="mono" font-weight="bold" font-size="14.00" fill="#c83500">SecurityScheme</text>
<polygon fill="#ddeeff" stroke="transparent" points="850,-133 850,-154 1044,-154 1044,-133 850,-133"/>
<polygon fill="none" stroke="#8ccbf2" points="850,-133 850,-154 1044,-154 1044,-133 850,-133"/>
<text text-anchor="start" x="853" y="-140.8" font-family="mono" font-size="14.00" fill="#c83500">@type</text>
<text text-anchor="start" x="895" y="-140.8" font-family="Times,serif" font-size="14.00"> : </text>
<text text-anchor="start" x="909" y="-140.8" font-family="Times,serif" font-style="italic" font-size="14.00">(Array of) </text>
<text text-anchor="start" x="982" y="-140.8" font-family="mono" font-size="14.00" fill="#c83500">string</text>
<polygon fill="#ddeeff" stroke="transparent" points="850,-112 850,-133 1044,-133 1044,-112 850,-112"/>
<polygon fill="none" stroke="#8ccbf2" points="850,-112 850,-133 1044,-133 1044,-112 850,-112"/>
<text text-anchor="start" x="853" y="-119.8" font-family="mono" font-size="14.00" fill="#c83500">description</text>
<text text-anchor="start" x="944" y="-119.8" font-family="Times,serif" font-size="14.00"> : </text>
<text text-anchor="start" x="958" y="-119.8" font-family="mono" font-size="14.00" fill="#c83500">langString</text>
<polygon fill="#ddeeff" stroke="transparent" points="850,-91 850,-112 1044,-112 1044,-91 850,-91"/>
<polygon fill="none" stroke="#8ccbf2" points="850,-91 850,-112 1044,-112 1044,-91 850,-91"/>
<text text-anchor="start" x="853" y="-98.8" font-family="mono" font-size="14.00" fill="#c83500">proxy</text>
<text text-anchor="start" x="895" y="-98.8" font-family="Times,serif" font-size="14.00"> : </text>
<text text-anchor="start" x="909" y="-98.8" font-family="mono" font-size="14.00" fill="#c83500">anyURI</text>
</g>
<!-- APIKeySecurityScheme&#45;&gt;SecurityScheme -->
<g id="edge2" class="edge">
<title>APIKeySecurityScheme&#45;&gt;SecurityScheme</title>
<path fill="none" stroke="black" d="M138.04,-247.43C155.47,-235.51 176.27,-223.32 197,-216 311.18,-175.69 651.6,-150.84 831.94,-140.14"/>
<polygon fill="white" stroke="black" points="832.22,-143.63 842,-139.55 831.81,-136.64 832.22,-143.63"/>
</g>
<!-- AutoSecurityScheme -->
<g id="node2" class="node">
<title>AutoSecurityScheme</title>
<polygon fill="#8ccbf2" stroke="transparent" points="215,-272 215,-293 370,-293 370,-272 215,-272"/>
<polygon fill="none" stroke="#8ccbf2" points="215,-272 215,-293 370,-293 370,-272 215,-272"/>
<text text-anchor="start" x="218" y="-279.8" font-family="mono" font-weight="bold" font-size="14.00" fill="#c83500">AutoSecurityScheme</text>
</g>
<!-- AutoSecurityScheme&#45;&gt;SecurityScheme -->
<g id="edge3" class="edge">
<title>AutoSecurityScheme&#45;&gt;SecurityScheme</title>
<path fill="none" stroke="black" d="M310.59,-264.92C328.51,-249.49 357.1,-227.5 386,-216 532.63,-157.66 715.64,-140.23 831.94,-135.35"/>
<polygon fill="white" stroke="black" points="832.09,-138.85 841.94,-134.96 831.81,-131.86 832.09,-138.85"/>
</g>
<!-- BasicSecurityScheme -->
<g id="node3" class="node">
<title>BasicSecurityScheme</title>
<polygon fill="#8ccbf2" stroke="transparent" points="404,-293 404,-314 567,-314 567,-293 404,-293"/>
<polygon fill="none" stroke="#8ccbf2" points="404,-293 404,-314 567,-314 567,-293 404,-293"/>
<text text-anchor="start" x="407" y="-300.8" font-family="mono" font-weight="bold" font-size="14.00" fill="#c83500">BasicSecurityScheme</text>
<polygon fill="#ddeeff" stroke="transparent" points="404,-272 404,-293 567,-293 567,-272 404,-272"/>
<polygon fill="none" stroke="#8ccbf2" points="404,-272 404,-293 567,-293 567,-272 404,-272"/>
<text text-anchor="start" x="407" y="-279.8" font-family="mono" font-size="14.00" fill="#c83500">name</text>
<text text-anchor="start" x="441" y="-279.8" font-family="Times,serif" font-size="14.00"> : </text>
<text text-anchor="start" x="455" y="-279.8" font-family="mono" font-size="14.00" fill="#c83500">string</text>
<polygon fill="#ddeeff" stroke="transparent" points="404,-251 404,-272 567,-272 567,-251 404,-251"/>
<polygon fill="none" stroke="#8ccbf2" points="404,-251 404,-272 567,-272 567,-251 404,-251"/>
<text text-anchor="start" x="407" y="-258.8" font-family="mono" font-size="14.00" fill="#c83500">in</text>
<text text-anchor="start" x="424" y="-258.8" font-family="Times,serif" font-size="14.00"> : </text>
<text text-anchor="start" x="438" y="-258.8" font-family="mono" font-size="14.00" fill="#c83500">string</text>
</g>
<!-- BasicSecurityScheme&#45;&gt;SecurityScheme -->
<g id="edge4" class="edge">
<title>BasicSecurityScheme&#45;&gt;SecurityScheme</title>
<path fill="none" stroke="black" d="M529.33,-247.41C545.76,-235.99 565.01,-224.14 584,-216 663.26,-182.02 758.54,-161.18 831.6,-149.02"/>
<polygon fill="white" stroke="black" points="832.45,-152.42 841.76,-147.36 831.32,-145.52 832.45,-152.42"/>
</g>
<!-- BearerSecurityScheme -->
<g id="node4" class="node">
<title>BearerSecurityScheme</title>
<polygon fill="#8ccbf2" stroke="transparent" points="601,-325 601,-346 779,-346 779,-325 601,-325"/>
<polygon fill="none" stroke="#8ccbf2" points="601,-325 601,-346 779,-346 779,-325 601,-325"/>
<text text-anchor="start" x="607" y="-332.8" font-family="mono" font-weight="bold" font-size="14.00" fill="#c83500">BearerSecurityScheme</text>
<polygon fill="#ddeeff" stroke="transparent" points="601,-304 601,-325 779,-325 779,-304 601,-304"/>
<polygon fill="none" stroke="#8ccbf2" points="601,-304 601,-325 779,-325 779,-304 601,-304"/>
<text text-anchor="start" x="604" y="-311.8" font-family="mono" font-size="14.00" fill="#c83500">alg</text>
<text text-anchor="start" x="629" y="-311.8" font-family="Times,serif" font-size="14.00"> : </text>
<text text-anchor="start" x="643" y="-311.8" font-family="mono" font-size="14.00" fill="#c83500">string</text>
<polygon fill="#ddeeff" stroke="transparent" points="601,-283 601,-304 779,-304 779,-283 601,-283"/>
<polygon fill="none" stroke="#8ccbf2" points="601,-283 601,-304 779,-304 779,-283 601,-283"/>
<text text-anchor="start" x="604" y="-290.8" font-family="mono" font-size="14.00" fill="#c83500">name</text>
<text text-anchor="start" x="638" y="-290.8" font-family="Times,serif" font-size="14.00"> : </text>
<text text-anchor="start" x="652" y="-290.8" font-family="mono" font-size="14.00" fill="#c83500">string</text>
<polygon fill="#ddeeff" stroke="transparent" points="601,-262 601,-283 779,-283 779,-262 601,-262"/>
<polygon fill="none" stroke="#8ccbf2" points="601,-262 601,-283 779,-283 779,-262 601,-262"/>
<text text-anchor="start" x="604" y="-269.8" font-family="mono" font-size="14.00" fill="#c83500">authorization</text>
<text text-anchor="start" x="712" y="-269.8" font-family="Times,serif" font-size="14.00"> : </text>
<text text-anchor="start" x="726" y="-269.8" font-family="mono" font-size="14.00" fill="#c83500">anyURI</text>
<polygon fill="#ddeeff" stroke="transparent" points="601,-241 601,-262 779,-262 779,-241 601,-241"/>
<polygon fill="none" stroke="#8ccbf2" points="601,-241 601,-262 779,-262 779,-241 601,-241"/>
<text text-anchor="start" x="604" y="-248.8" font-family="mono" font-size="14.00" fill="#c83500">format</text>
<text text-anchor="start" x="654" y="-248.8" font-family="Times,serif" font-size="14.00"> : </text>
<text text-anchor="start" x="668" y="-248.8" font-family="mono" font-size="14.00" fill="#c83500">string</text>
<polygon fill="#ddeeff" stroke="transparent" points="601,-220 601,-241 779,-241 779,-220 601,-220"/>
<polygon fill="none" stroke="#8ccbf2" points="601,-220 601,-241 779,-241 779,-220 601,-220"/>
<text text-anchor="start" x="604" y="-227.8" font-family="mono" font-size="14.00" fill="#c83500">in</text>
<text text-anchor="start" x="621" y="-227.8" font-family="Times,serif" font-size="14.00"> : </text>
<text text-anchor="start" x="635" y="-227.8" font-family="mono" font-size="14.00" fill="#c83500">string</text>
</g>
<!-- BearerSecurityScheme&#45;&gt;SecurityScheme -->
<g id="edge5" class="edge">
<title>BearerSecurityScheme&#45;&gt;SecurityScheme</title>
<path fill="none" stroke="black" d="M787.19,-221.17C790.16,-219.42 793.1,-217.69 796,-216 814.25,-205.38 833.95,-194.36 852.91,-183.97"/>
<polygon fill="white" stroke="black" points="854.75,-186.96 861.85,-179.09 851.4,-180.81 854.75,-186.96"/>
</g>
<!-- ComboSecurityScheme -->
<g id="node5" class="node">
<title>ComboSecurityScheme</title>
<polygon fill="#8ccbf2" stroke="transparent" points="814,-293 814,-314 1081,-314 1081,-293 814,-293"/>
<polygon fill="none" stroke="#8ccbf2" points="814,-293 814,-314 1081,-314 1081,-293 814,-293"/>
<text text-anchor="start" x="869" y="-300.8" font-family="mono" font-weight="bold" font-size="14.00" fill="#c83500">ComboSecurityScheme</text>
<polygon fill="#ddeeff" stroke="transparent" points="814,-272 814,-293 1081,-293 1081,-272 814,-272"/>
<polygon fill="none" stroke="#8ccbf2" points="814,-272 814,-293 1081,-293 1081,-272 814,-272"/>
<text text-anchor="start" x="817" y="-279.8" font-family="mono" font-size="14.00" fill="#c83500">oneOf</text>
<text text-anchor="start" x="859" y="-279.8" font-family="Times,serif" font-size="14.00"> : Array of </text>
<text text-anchor="start" x="935" y="-279.8" font-family="mono" font-size="14.00" fill="#c83500">string</text>
<text text-anchor="start" x="985" y="-279.8" font-family="Times,serif" font-size="14.00"> </text>
<text text-anchor="start" x="990" y="-279.8" font-family="Times,serif" font-style="italic" font-size="14.00">(mandatory)</text>
<polygon fill="#ddeeff" stroke="transparent" points="814,-251 814,-272 1081,-272 1081,-251 814,-251"/>
<polygon fill="none" stroke="#8ccbf2" points="814,-251 814,-272 1081,-272 1081,-251 814,-251"/>
<text text-anchor="start" x="817" y="-258.8" font-family="mono" font-size="14.00" fill="#c83500">allOf</text>
<text text-anchor="start" x="859" y="-258.8" font-family="Times,serif" font-size="14.00"> : Array of </text>
<text text-anchor="start" x="935" y="-258.8" font-family="mono" font-size="14.00" fill="#c83500">string</text>
<text text-anchor="start" x="985" y="-258.8" font-family="Times,serif" font-size="14.00"> </text>
<text text-anchor="start" x="990" y="-258.8" font-family="Times,serif" font-style="italic" font-size="14.00">(mandatory)</text>
</g>
<!-- ComboSecurityScheme&#45;&gt;SecurityScheme -->
<g id="edge6" class="edge">
<title>ComboSecurityScheme&#45;&gt;SecurityScheme</title>
<path fill="none" stroke="black" d="M947,-247.3C947,-230.06 947,-208.82 947,-189.4"/>
<polygon fill="white" stroke="black" points="950.5,-189.14 947,-179.14 943.5,-189.14 950.5,-189.14"/>
</g>
<!-- DigestSecurityScheme -->
<g id="node6" class="node">
<title>DigestSecurityScheme</title>
<polygon fill="#8ccbf2" stroke="transparent" points="1115,-304 1115,-325 1287,-325 1287,-304 1115,-304"/>
<polygon fill="none" stroke="#8ccbf2" points="1115,-304 1115,-325 1287,-325 1287,-304 1115,-304"/>
<text text-anchor="start" x="1118" y="-311.8" font-family="mono" font-weight="bold" font-size="14.00" fill="#c83500">DigestSecurityScheme</text>
<polygon fill="#ddeeff" stroke="transparent" points="1115,-283 1115,-304 1287,-304 1287,-283 1115,-283"/>
<polygon fill="none" stroke="#8ccbf2" points="1115,-283 1115,-304 1287,-304 1287,-283 1115,-283"/>
<text text-anchor="start" x="1118" y="-290.8" font-family="mono" font-size="14.00" fill="#c83500">name</text>
<text text-anchor="start" x="1152" y="-290.8" font-family="Times,serif" font-size="14.00"> : </text>
<text text-anchor="start" x="1166" y="-290.8" font-family="mono" font-size="14.00" fill="#c83500">string</text>
<polygon fill="#ddeeff" stroke="transparent" points="1115,-262 1115,-283 1287,-283 1287,-262 1115,-262"/>
<polygon fill="none" stroke="#8ccbf2" points="1115,-262 1115,-283 1287,-283 1287,-262 1115,-262"/>
<text text-anchor="start" x="1118" y="-269.8" font-family="mono" font-size="14.00" fill="#c83500">in</text>
<text text-anchor="start" x="1135" y="-269.8" font-family="Times,serif" font-size="14.00"> : </text>
<text text-anchor="start" x="1149" y="-269.8" font-family="mono" font-size="14.00" fill="#c83500">string</text>
<polygon fill="#ddeeff" stroke="transparent" points="1115,-241 1115,-262 1287,-262 1287,-241 1115,-241"/>
<polygon fill="none" stroke="#8ccbf2" points="1115,-241 1115,-262 1287,-262 1287,-241 1115,-241"/>
<text text-anchor="start" x="1118" y="-248.8" font-family="mono" font-size="14.00" fill="#c83500">qop</text>
<text text-anchor="start" x="1143" y="-248.8" font-family="Times,serif" font-size="14.00"> : </text>
<text text-anchor="start" x="1157" y="-248.8" font-family="mono" font-size="14.00" fill="#c83500">string</text>
</g>
<!-- DigestSecurityScheme&#45;&gt;SecurityScheme -->
<g id="edge7" class="edge">
<title>DigestSecurityScheme&#45;&gt;SecurityScheme</title>
<path fill="none" stroke="black" d="M1131.46,-236.99C1120.02,-229.84 1108.24,-222.63 1097,-216 1078.9,-205.33 1059.35,-194.29 1040.52,-183.9"/>
<polygon fill="white" stroke="black" points="1042.09,-180.77 1031.64,-179.02 1038.71,-186.9 1042.09,-180.77"/>
</g>
<!-- NoSecurityScheme -->
<g id="node7" class="node">
<title>NoSecurityScheme</title>
<polygon fill="#8ccbf2" stroke="transparent" points="1322,-272 1322,-293 1461,-293 1461,-272 1322,-272"/>
<polygon fill="none" stroke="#8ccbf2" points="1322,-272 1322,-293 1461,-293 1461,-272 1322,-272"/>
<text text-anchor="start" x="1325" y="-279.8" font-family="mono" font-weight="bold" font-size="14.00" fill="#c83500">NoSecurityScheme</text>
</g>
<!-- NoSecurityScheme&#45;&gt;SecurityScheme -->
<g id="edge8" class="edge">
<title>NoSecurityScheme&#45;&gt;SecurityScheme</title>
<path fill="none" stroke="black" d="M1373.17,-264.81C1356.56,-249.74 1330.45,-228.37 1304,-216 1227.52,-180.24 1134.36,-159.52 1062.38,-147.85"/>
<polygon fill="white" stroke="black" points="1062.79,-144.37 1052.37,-146.27 1061.7,-151.29 1062.79,-144.37"/>
</g>
<!-- OAuth2SecurityScheme -->
<g id="node8" class="node">
<title>OAuth2SecurityScheme</title>
<polygon fill="#8ccbf2" stroke="transparent" points="1495,-325 1495,-346 1692,-346 1692,-325 1495,-325"/>
<polygon fill="none" stroke="#8ccbf2" points="1495,-325 1495,-346 1692,-346 1692,-325 1495,-325"/>
<text text-anchor="start" x="1510.5" y="-332.8" font-family="mono" font-weight="bold" font-size="14.00" fill="#c83500">OAuth2SecurityScheme</text>
<polygon fill="#ddeeff" stroke="transparent" points="1495,-304 1495,-325 1692,-325 1692,-304 1495,-304"/>
<polygon fill="none" stroke="#8ccbf2" points="1495,-304 1495,-325 1692,-325 1692,-304 1495,-304"/>
<text text-anchor="start" x="1498" y="-311.8" font-family="mono" font-size="14.00" fill="#c83500">flow</text>
<text text-anchor="start" x="1532" y="-311.8" font-family="Times,serif" font-size="14.00"> : </text>
<text text-anchor="start" x="1546" y="-311.8" font-family="mono" font-size="14.00" fill="#c83500">string</text>
<text text-anchor="start" x="1596" y="-311.8" font-family="Times,serif" font-size="14.00"> </text>
<text text-anchor="start" x="1601" y="-311.8" font-family="Times,serif" font-style="italic" font-size="14.00">(mandatory)</text>
<polygon fill="#ddeeff" stroke="transparent" points="1495,-283 1495,-304 1692,-304 1692,-283 1495,-283"/>
<polygon fill="none" stroke="#8ccbf2" points="1495,-283 1495,-304 1692,-304 1692,-283 1495,-283"/>
<text text-anchor="start" x="1498" y="-290.8" font-family="mono" font-size="14.00" fill="#c83500">authorization</text>
<text text-anchor="start" x="1606" y="-290.8" font-family="Times,serif" font-size="14.00"> : </text>
<text text-anchor="start" x="1620" y="-290.8" font-family="mono" font-size="14.00" fill="#c83500">anyURI</text>
<polygon fill="#ddeeff" stroke="transparent" points="1495,-262 1495,-283 1692,-283 1692,-262 1495,-262"/>
<polygon fill="none" stroke="#8ccbf2" points="1495,-262 1495,-283 1692,-283 1692,-262 1495,-262"/>
<text text-anchor="start" x="1498" y="-269.8" font-family="mono" font-size="14.00" fill="#c83500">token</text>
<text text-anchor="start" x="1540" y="-269.8" font-family="Times,serif" font-size="14.00"> : </text>
<text text-anchor="start" x="1554" y="-269.8" font-family="mono" font-size="14.00" fill="#c83500">anyURI</text>
<polygon fill="#ddeeff" stroke="transparent" points="1495,-241 1495,-262 1692,-262 1692,-241 1495,-241"/>
<polygon fill="none" stroke="#8ccbf2" points="1495,-241 1495,-262 1692,-262 1692,-241 1495,-241"/>
<text text-anchor="start" x="1498" y="-248.8" font-family="mono" font-size="14.00" fill="#c83500">refresh</text>
<text text-anchor="start" x="1556" y="-248.8" font-family="Times,serif" font-size="14.00"> : </text>
<text text-anchor="start" x="1570" y="-248.8" font-family="mono" font-size="14.00" fill="#c83500">anyURI</text>
<polygon fill="#ddeeff" stroke="transparent" points="1495,-220 1495,-241 1692,-241 1692,-220 1495,-220"/>
<polygon fill="none" stroke="#8ccbf2" points="1495,-220 1495,-241 1692,-241 1692,-220 1495,-220"/>
<text text-anchor="start" x="1498" y="-227.8" font-family="mono" font-size="14.00" fill="#c83500">scopes</text>
<text text-anchor="start" x="1548" y="-227.8" font-family="Times,serif" font-size="14.00"> : (Array of) </text>
<text text-anchor="start" x="1635" y="-227.8" font-family="mono" font-size="14.00" fill="#c83500">string</text>
</g>
<!-- OAuth2SecurityScheme&#45;&gt;SecurityScheme -->
<g id="edge9" class="edge">
<title>OAuth2SecurityScheme&#45;&gt;SecurityScheme</title>
<path fill="none" stroke="black" d="M1486.21,-219.43C1483.14,-218.22 1480.06,-217.07 1477,-216 1339.2,-167.97 1171.47,-148.01 1062.11,-139.76"/>
<polygon fill="white" stroke="black" points="1062.27,-136.26 1052.04,-139.02 1061.76,-143.24 1062.27,-136.26"/>
</g>
<!-- PSKSecurityScheme -->
<g id="node9" class="node">
<title>PSKSecurityScheme</title>
<polygon fill="#8ccbf2" stroke="transparent" points="1726,-283 1726,-304 1873,-304 1873,-283 1726,-283"/>
<polygon fill="none" stroke="#8ccbf2" points="1726,-283 1726,-304 1873,-304 1873,-283 1726,-283"/>
<text text-anchor="start" x="1729" y="-290.8" font-family="mono" font-weight="bold" font-size="14.00" fill="#c83500">PSKSecurityScheme</text>
<polygon fill="#ddeeff" stroke="transparent" points="1726,-262 1726,-283 1873,-283 1873,-262 1726,-262"/>
<polygon fill="none" stroke="#8ccbf2" points="1726,-262 1726,-283 1873,-283 1873,-262 1726,-262"/>
<text text-anchor="start" x="1729" y="-269.8" font-family="mono" font-size="14.00" fill="#c83500">identity</text>
<text text-anchor="start" x="1796" y="-269.8" font-family="Times,serif" font-size="14.00"> : </text>
<text text-anchor="start" x="1810" y="-269.8" font-family="mono" font-size="14.00" fill="#c83500">string</text>
</g>
<!-- PSKSecurityScheme&#45;&gt;SecurityScheme -->
<g id="edge10" class="edge">
<title>PSKSecurityScheme&#45;&gt;SecurityScheme</title>
<path fill="none" stroke="black" d="M1773.33,-257.72C1756.2,-243.04 1732.41,-225.39 1708,-216 1592.98,-171.73 1245.1,-148.56 1062.2,-139.16"/>
<polygon fill="white" stroke="black" points="1062.18,-135.65 1052.01,-138.64 1061.82,-142.64 1062.18,-135.65"/>
</g>
<!-- MultiLanguage -->
<g id="node11" class="node">
<title>MultiLanguage</title>
<polygon fill="#f2f2f2" stroke="transparent" points="890,-7 890,-28 1004,-28 1004,-7 890,-7"/>
<polygon fill="none" stroke="#8c8c8c" points="890,-7 890,-28 1004,-28 1004,-7 890,-7"/>
<text text-anchor="start" x="893" y="-14.8" font-family="mono" font-weight="bold" font-size="14.00">MultiLanguage</text>
</g>
<!-- SecurityScheme&#45;&gt;MultiLanguage -->
<g id="edge1" class="edge">
<title>SecurityScheme&#45;&gt;MultiLanguage</title>
<path fill="none" stroke="black" d="M947,-86.69C947,-73.06 947,-58.52 947,-46.42"/>
<polygon fill="black" stroke="black" points="950.5,-46.1 947,-36.1 943.5,-46.1 950.5,-46.1"/>
<text text-anchor="start" x="947" y="-57.8" font-family="mono" font-size="14.00" fill="#c83500">descriptions</text>
<text text-anchor="middle" x="934.5" y="-39.9" font-family="Times,serif" font-size="14.00">0..*</text>
</g>
</g>
</svg>
