<?xml version="1.0" encoding="UTF-8" standalone="no"?>
<!DOCTYPE svg PUBLIC "-//W3C//DTD SVG 1.1//EN"
 "http://www.w3.org/Graphics/SVG/1.1/DTD/svg11.dtd">
<!-- Generated by graphviz version 2.40.1 (20161225.0304)
 -->
<!-- Title: %3 Pages: 1 -->
<svg width="1982pt" height="249pt"
 viewBox="0.00 0.00 1982.00 249.00" xmlns="http://www.w3.org/2000/svg" xmlns:xlink="http://www.w3.org/1999/xlink">
<g id="graph0" class="graph" transform="scale(1 1) rotate(0) translate(4 245)">
<title>%3</title>
<polygon fill="#ffffff" stroke="transparent" points="-4,4 -4,-245 1978,-245 1978,4 -4,4"/>
<!-- APIKeySecurityScheme -->
<g id="node1" class="node">
<title>APIKeySecurityScheme</title>
<polygon fill="#8ccbf2" stroke="transparent" points="8,-184 8,-205 180,-205 180,-184 8,-184"/>
<polygon fill="none" stroke="#8ccbf2" points="8,-184 8,-205 180,-205 180,-184 8,-184"/>
<text text-anchor="start" x="11" y="-191.8" font-family="mono" font-weight="bold" font-size="14.00" fill="#c83500">APIKeySecurityScheme</text>
<polygon fill="#ddeeff" stroke="transparent" points="8,-163 8,-184 180,-184 180,-163 8,-163"/>
<polygon fill="none" stroke="#8ccbf2" points="8,-163 8,-184 180,-184 180,-163 8,-163"/>
<text text-anchor="start" x="11" y="-170.8" font-family="mono" font-size="14.00" fill="#c83500">in</text>
<text text-anchor="start" x="28" y="-170.8" font-family="Times,serif" font-size="14.00" fill="#000000"> : </text>
<text text-anchor="start" x="40" y="-170.8" font-family="mono" font-size="14.00" fill="#c83500">string</text>
<polygon fill="#ddeeff" stroke="transparent" points="8,-142 8,-163 180,-163 180,-142 8,-142"/>
<polygon fill="none" stroke="#8ccbf2" points="8,-142 8,-163 180,-163 180,-142 8,-142"/>
<text text-anchor="start" x="11" y="-149.8" font-family="mono" font-size="14.00" fill="#c83500">name</text>
<text text-anchor="start" x="45" y="-149.8" font-family="Times,serif" font-size="14.00" fill="#000000"> : </text>
<text text-anchor="start" x="57" y="-149.8" font-family="mono" font-size="14.00" fill="#c83500">string</text>
</g>
<!-- SecurityScheme -->
<g id="node11" class="node">
<title>SecurityScheme</title>
<polygon fill="#8ccbf2" stroke="transparent" points="789,-45.5 789,-66.5 1198,-66.5 1198,-45.5 789,-45.5"/>
<polygon fill="none" stroke="#8ccbf2" points="789,-45.5 789,-66.5 1198,-66.5 1198,-45.5 789,-45.5"/>
<text text-anchor="start" x="935.5" y="-53.3" font-family="mono" font-weight="bold" font-size="14.00" fill="#c83500">SecurityScheme</text>
<polygon fill="#ddeeff" stroke="transparent" points="789,-24.5 789,-45.5 1198,-45.5 1198,-24.5 789,-24.5"/>
<polygon fill="none" stroke="#8ccbf2" points="789,-24.5 789,-45.5 1198,-45.5 1198,-24.5 789,-24.5"/>
<text text-anchor="start" x="792" y="-32.3" font-family="mono" font-size="14.00" fill="#c83500">@type</text>
<text text-anchor="start" x="834" y="-32.3" font-family="Times,serif" font-size="14.00" fill="#000000"> : </text>
<text text-anchor="start" x="846" y="-32.3" font-family="Times,serif" font-style="italic" font-size="14.00" fill="#000000">(Array of) </text>
<text text-anchor="start" x="905" y="-32.3" font-family="mono" font-size="14.00" fill="#c83500">string</text>
<polygon fill="#ddeeff" stroke="transparent" points="789,-3.5 789,-24.5 1198,-24.5 1198,-3.5 789,-3.5"/>
<polygon fill="none" stroke="#8ccbf2" points="789,-3.5 789,-24.5 1198,-24.5 1198,-3.5 789,-3.5"/>
<text text-anchor="start" x="792" y="-11.3" font-family="mono" font-size="14.00" fill="#c83500">description</text>
<text text-anchor="start" x="883" y="-11.3" font-family="Times,serif" font-size="14.00" fill="#000000"> : Map of </text>
<text text-anchor="start" x="939" y="-11.3" font-family="mono" font-size="14.00" fill="#c83500">string</text>
<text text-anchor="start" x="989" y="-11.3" font-family="mono" font-size="14.00" fill="#c83500">descriptions</text>
<text text-anchor="start" x="1089" y="-11.3" font-family="Times,serif" font-size="14.00" fill="#000000"> : Map of </text>
<text text-anchor="start" x="1145" y="-11.3" font-family="mono" font-size="14.00" fill="#c83500">string</text>
</g>
<!-- APIKeySecurityScheme&#45;&gt;SecurityScheme -->
<g id="edge1" class="edge">
<title>APIKeySecurityScheme&#45;&gt;SecurityScheme</title>
<path fill="none" stroke="#000000" d="M138.3987,-138.3342C155.7079,-126.316 176.3367,-114.1505 197,-107 299.2188,-71.6274 572.1866,-52.82 770.0017,-43.5208"/>
<polygon fill="#ffffff" stroke="#000000" points="770.4239,-47.005 780.2505,-43.0443 770.0987,-40.0126 770.4239,-47.005"/>
</g>
<!-- BasicSecurityScheme -->
<g id="node2" class="node">
<title>BasicSecurityScheme</title>
<polygon fill="#8ccbf2" stroke="transparent" points="215,-184 215,-205 378,-205 378,-184 215,-184"/>
<polygon fill="none" stroke="#8ccbf2" points="215,-184 215,-205 378,-205 378,-184 215,-184"/>
<text text-anchor="start" x="218" y="-191.8" font-family="mono" font-weight="bold" font-size="14.00" fill="#c83500">BasicSecurityScheme</text>
<polygon fill="#ddeeff" stroke="transparent" points="215,-163 215,-184 378,-184 378,-163 215,-163"/>
<polygon fill="none" stroke="#8ccbf2" points="215,-163 215,-184 378,-184 378,-163 215,-163"/>
<text text-anchor="start" x="218" y="-170.8" font-family="mono" font-size="14.00" fill="#c83500">in</text>
<text text-anchor="start" x="235" y="-170.8" font-family="Times,serif" font-size="14.00" fill="#000000"> : </text>
<text text-anchor="start" x="247" y="-170.8" font-family="mono" font-size="14.00" fill="#c83500">string</text>
<polygon fill="#ddeeff" stroke="transparent" points="215,-142 215,-163 378,-163 378,-142 215,-142"/>
<polygon fill="none" stroke="#8ccbf2" points="215,-142 215,-163 378,-163 378,-142 215,-142"/>
<text text-anchor="start" x="218" y="-149.8" font-family="mono" font-size="14.00" fill="#c83500">name</text>
<text text-anchor="start" x="252" y="-149.8" font-family="Times,serif" font-size="14.00" fill="#000000"> : </text>
<text text-anchor="start" x="264" y="-149.8" font-family="mono" font-size="14.00" fill="#c83500">string</text>
</g>
<!-- BasicSecurityScheme&#45;&gt;SecurityScheme -->
<g id="edge2" class="edge">
<title>BasicSecurityScheme&#45;&gt;SecurityScheme</title>
<path fill="none" stroke="#000000" d="M338.842,-138.4641C355.4206,-126.5363 375.1659,-114.3973 395,-107 462.3284,-81.8891 629.7495,-63.1311 770.3705,-51.143"/>
<polygon fill="#ffffff" stroke="#000000" points="770.7773,-54.6212 780.4471,-50.2916 770.1879,-47.6461 770.7773,-54.6212"/>
</g>
<!-- BearerSecurityScheme -->
<g id="node3" class="node">
<title>BearerSecurityScheme</title>
<polygon fill="#8ccbf2" stroke="transparent" points="412,-216 412,-237 588,-237 588,-216 412,-216"/>
<polygon fill="none" stroke="#8ccbf2" points="412,-216 412,-237 588,-237 588,-216 412,-216"/>
<text text-anchor="start" x="417" y="-223.8" font-family="mono" font-weight="bold" font-size="14.00" fill="#c83500">BearerSecurityScheme</text>
<polygon fill="#ddeeff" stroke="transparent" points="412,-195 412,-216 588,-216 588,-195 412,-195"/>
<polygon fill="none" stroke="#8ccbf2" points="412,-195 412,-216 588,-216 588,-195 412,-195"/>
<text text-anchor="start" x="415" y="-202.8" font-family="mono" font-size="14.00" fill="#c83500">alg</text>
<text text-anchor="start" x="440" y="-202.8" font-family="Times,serif" font-size="14.00" fill="#000000"> : </text>
<text text-anchor="start" x="452" y="-202.8" font-family="mono" font-size="14.00" fill="#c83500">string</text>
<polygon fill="#ddeeff" stroke="transparent" points="412,-174 412,-195 588,-195 588,-174 412,-174"/>
<polygon fill="none" stroke="#8ccbf2" points="412,-174 412,-195 588,-195 588,-174 412,-174"/>
<text text-anchor="start" x="415" y="-181.8" font-family="mono" font-size="14.00" fill="#c83500">authorization</text>
<text text-anchor="start" x="523" y="-181.8" font-family="Times,serif" font-size="14.00" fill="#000000"> : </text>
<text text-anchor="start" x="535" y="-181.8" font-family="mono" font-size="14.00" fill="#c83500">anyURI</text>
<polygon fill="#ddeeff" stroke="transparent" points="412,-153 412,-174 588,-174 588,-153 412,-153"/>
<polygon fill="none" stroke="#8ccbf2" points="412,-153 412,-174 588,-174 588,-153 412,-153"/>
<text text-anchor="start" x="415" y="-160.8" font-family="mono" font-size="14.00" fill="#c83500">format</text>
<text text-anchor="start" x="465" y="-160.8" font-family="Times,serif" font-size="14.00" fill="#000000"> : </text>
<text text-anchor="start" x="477" y="-160.8" font-family="mono" font-size="14.00" fill="#c83500">string</text>
<polygon fill="#ddeeff" stroke="transparent" points="412,-132 412,-153 588,-153 588,-132 412,-132"/>
<polygon fill="none" stroke="#8ccbf2" points="412,-132 412,-153 588,-153 588,-132 412,-132"/>
<text text-anchor="start" x="415" y="-139.8" font-family="mono" font-size="14.00" fill="#c83500">in</text>
<text text-anchor="start" x="432" y="-139.8" font-family="Times,serif" font-size="14.00" fill="#000000"> : </text>
<text text-anchor="start" x="444" y="-139.8" font-family="mono" font-size="14.00" fill="#c83500">string</text>
<polygon fill="#ddeeff" stroke="transparent" points="412,-111 412,-132 588,-132 588,-111 412,-111"/>
<polygon fill="none" stroke="#8ccbf2" points="412,-111 412,-132 588,-132 588,-111 412,-111"/>
<text text-anchor="start" x="415" y="-118.8" font-family="mono" font-size="14.00" fill="#c83500">name</text>
<text text-anchor="start" x="449" y="-118.8" font-family="Times,serif" font-size="14.00" fill="#000000"> : </text>
<text text-anchor="start" x="461" y="-118.8" font-family="mono" font-size="14.00" fill="#c83500">string</text>
</g>
<!-- BearerSecurityScheme&#45;&gt;SecurityScheme -->
<g id="edge3" class="edge">
<title>BearerSecurityScheme&#45;&gt;SecurityScheme</title>
<path fill="none" stroke="#000000" d="M596.2385,-110.6874C599.1586,-109.3823 602.0825,-108.1487 605,-107 657.0065,-86.523 715.2805,-71.8356 770.5426,-61.3274"/>
<polygon fill="#ffffff" stroke="#000000" points="771.2722,-64.7518 780.462,-59.4794 769.9901,-57.8702 771.2722,-64.7518"/>
</g>
<!-- CertSecurityScheme -->
<g id="node4" class="node">
<title>CertSecurityScheme</title>
<polygon fill="#8ccbf2" stroke="transparent" points="623,-174 623,-195 778,-195 778,-174 623,-174"/>
<polygon fill="none" stroke="#8ccbf2" points="623,-174 623,-195 778,-195 778,-174 623,-174"/>
<text text-anchor="start" x="626" y="-181.8" font-family="mono" font-weight="bold" font-size="14.00" fill="#c83500">CertSecurityScheme</text>
<polygon fill="#ddeeff" stroke="transparent" points="623,-153 623,-174 778,-174 778,-153 623,-153"/>
<polygon fill="none" stroke="#8ccbf2" points="623,-153 623,-174 778,-174 778,-153 623,-153"/>
<text text-anchor="start" x="626" y="-160.8" font-family="mono" font-size="14.00" fill="#c83500">identity</text>
<text text-anchor="start" x="693" y="-160.8" font-family="Times,serif" font-size="14.00" fill="#000000"> : </text>
<text text-anchor="start" x="705" y="-160.8" font-family="mono" font-size="14.00" fill="#c83500">string</text>
</g>
<!-- CertSecurityScheme&#45;&gt;SecurityScheme -->
<g id="edge4" class="edge">
<title>CertSecurityScheme&#45;&gt;SecurityScheme</title>
<path fill="none" stroke="#000000" d="M731.167,-148.8063C749.0827,-135.166 772.4487,-118.7518 795,-107 818.1352,-94.944 843.7626,-84.0523 868.6938,-74.6128"/>
<polygon fill="#ffffff" stroke="#000000" points="870.0602,-77.8388 878.2082,-71.0668 867.6155,-71.2796 870.0602,-77.8388"/>
</g>
<!-- DigestSecurityScheme -->
<g id="node5" class="node">
<title>DigestSecurityScheme</title>
<polygon fill="#8ccbf2" stroke="transparent" points="812,-195 812,-216 984,-216 984,-195 812,-195"/>
<polygon fill="none" stroke="#8ccbf2" points="812,-195 812,-216 984,-216 984,-195 812,-195"/>
<text text-anchor="start" x="815" y="-202.8" font-family="mono" font-weight="bold" font-size="14.00" fill="#c83500">DigestSecurityScheme</text>
<polygon fill="#ddeeff" stroke="transparent" points="812,-174 812,-195 984,-195 984,-174 812,-174"/>
<polygon fill="none" stroke="#8ccbf2" points="812,-174 812,-195 984,-195 984,-174 812,-174"/>
<text text-anchor="start" x="815" y="-181.8" font-family="mono" font-size="14.00" fill="#c83500">qop</text>
<text text-anchor="start" x="840" y="-181.8" font-family="Times,serif" font-size="14.00" fill="#000000"> : </text>
<text text-anchor="start" x="852" y="-181.8" font-family="mono" font-size="14.00" fill="#c83500">string</text>
<polygon fill="#ddeeff" stroke="transparent" points="812,-153 812,-174 984,-174 984,-153 812,-153"/>
<polygon fill="none" stroke="#8ccbf2" points="812,-153 812,-174 984,-174 984,-153 812,-153"/>
<text text-anchor="start" x="815" y="-160.8" font-family="mono" font-size="14.00" fill="#c83500">in</text>
<text text-anchor="start" x="832" y="-160.8" font-family="Times,serif" font-size="14.00" fill="#000000"> : </text>
<text text-anchor="start" x="844" y="-160.8" font-family="mono" font-size="14.00" fill="#c83500">string</text>
<polygon fill="#ddeeff" stroke="transparent" points="812,-132 812,-153 984,-153 984,-132 812,-132"/>
<polygon fill="none" stroke="#8ccbf2" points="812,-132 812,-153 984,-153 984,-132 812,-132"/>
<text text-anchor="start" x="815" y="-139.8" font-family="mono" font-size="14.00" fill="#c83500">name</text>
<text text-anchor="start" x="849" y="-139.8" font-family="Times,serif" font-size="14.00" fill="#000000"> : </text>
<text text-anchor="start" x="861" y="-139.8" font-family="mono" font-size="14.00" fill="#c83500">string</text>
</g>
<!-- DigestSecurityScheme&#45;&gt;SecurityScheme -->
<g id="edge5" class="edge">
<title>DigestSecurityScheme&#45;&gt;SecurityScheme</title>
<path fill="none" stroke="#000000" d="M929.6336,-127.8815C940.2905,-112.345 952.1511,-95.0534 962.7024,-79.6708"/>
<polygon fill="#ffffff" stroke="#000000" points="965.6433,-81.5708 968.4135,-71.3445 959.8708,-77.6112 965.6433,-81.5708"/>
</g>
<!-- NoSecurityScheme -->
<g id="node6" class="node">
<title>NoSecurityScheme</title>
<polygon fill="#8ccbf2" stroke="transparent" points="1019,-163 1019,-184 1158,-184 1158,-163 1019,-163"/>
<polygon fill="none" stroke="#8ccbf2" points="1019,-163 1019,-184 1158,-184 1158,-163 1019,-163"/>
<text text-anchor="start" x="1022" y="-170.8" font-family="mono" font-weight="bold" font-size="14.00" fill="#c83500">NoSecurityScheme</text>
</g>
<!-- NoSecurityScheme&#45;&gt;SecurityScheme -->
<g id="edge6" class="edge">
<title>NoSecurityScheme&#45;&gt;SecurityScheme</title>
<path fill="none" stroke="#000000" d="M1075.5804,-155.8935C1062.3859,-136.6574 1041.0319,-105.5255 1023.3442,-79.7387"/>
<polygon fill="#ffffff" stroke="#000000" points="1026.0462,-77.4902 1017.5034,-71.2234 1020.2737,-81.4497 1026.0462,-77.4902"/>
</g>
<!-- OAuth2SecurityScheme -->
<g id="node7" class="node">
<title>OAuth2SecurityScheme</title>
<polygon fill="#8ccbf2" stroke="transparent" points="1192,-184 1192,-205 1369,-205 1369,-184 1192,-184"/>
<polygon fill="none" stroke="#8ccbf2" points="1192,-184 1192,-205 1369,-205 1369,-184 1192,-184"/>
<text text-anchor="start" x="1197.5" y="-191.8" font-family="mono" font-weight="bold" font-size="14.00" fill="#c83500">OAuth2SecurityScheme</text>
<polygon fill="#ddeeff" stroke="transparent" points="1192,-163 1192,-184 1369,-184 1369,-163 1192,-163"/>
<polygon fill="none" stroke="#8ccbf2" points="1192,-163 1192,-184 1369,-184 1369,-163 1192,-163"/>
<text text-anchor="start" x="1195" y="-170.8" font-family="mono" font-size="14.00" fill="#c83500">scopes</text>
<text text-anchor="start" x="1245" y="-170.8" font-family="Times,serif" font-size="14.00" fill="#000000"> : (Array of) </text>
<text text-anchor="start" x="1316" y="-170.8" font-family="mono" font-size="14.00" fill="#c83500">string</text>
<polygon fill="#ddeeff" stroke="transparent" points="1192,-142 1192,-163 1369,-163 1369,-142 1192,-142"/>
<polygon fill="none" stroke="#8ccbf2" points="1192,-142 1192,-163 1369,-163 1369,-142 1192,-142"/>
<text text-anchor="start" x="1195" y="-149.8" font-family="mono" font-size="14.00" fill="#c83500">flow</text>
<text text-anchor="start" x="1229" y="-149.8" font-family="Times,serif" font-size="14.00" fill="#000000"> : </text>
<text text-anchor="start" x="1241" y="-149.8" font-family="mono" font-size="14.00" fill="#c83500">string</text>
<text text-anchor="start" x="1291" y="-149.8" font-family="Times,serif" font-size="14.00" fill="#000000"> </text>
<text text-anchor="start" x="1295" y="-149.8" font-family="Times,serif" font-style="italic" font-size="14.00" fill="#000000">(mandatory)</text>
</g>
<!-- OAuth2SecurityScheme&#45;&gt;SecurityScheme -->
<g id="edge7" class="edge">
<title>OAuth2SecurityScheme&#45;&gt;SecurityScheme</title>
<path fill="none" stroke="#000000" d="M1228.5655,-138.3775C1211.8781,-127.5885 1193.0157,-116.1774 1175,-107 1152.3012,-95.437 1127.2719,-84.5094 1103.2287,-74.8383"/>
<polygon fill="#ffffff" stroke="#000000" points="1104.2994,-71.4975 1093.7138,-71.0548 1101.7129,-78.0021 1104.2994,-71.4975"/>
</g>
<!-- PSKSecurityScheme -->
<g id="node8" class="node">
<title>PSKSecurityScheme</title>
<polygon fill="#8ccbf2" stroke="transparent" points="1403,-174 1403,-195 1550,-195 1550,-174 1403,-174"/>
<polygon fill="none" stroke="#8ccbf2" points="1403,-174 1403,-195 1550,-195 1550,-174 1403,-174"/>
<text text-anchor="start" x="1406" y="-181.8" font-family="mono" font-weight="bold" font-size="14.00" fill="#c83500">PSKSecurityScheme</text>
<polygon fill="#ddeeff" stroke="transparent" points="1403,-153 1403,-174 1550,-174 1550,-153 1403,-153"/>
<polygon fill="none" stroke="#8ccbf2" points="1403,-153 1403,-174 1550,-174 1550,-153 1403,-153"/>
<text text-anchor="start" x="1406" y="-160.8" font-family="mono" font-size="14.00" fill="#c83500">identity</text>
<text text-anchor="start" x="1473" y="-160.8" font-family="Times,serif" font-size="14.00" fill="#000000"> : </text>
<text text-anchor="start" x="1485" y="-160.8" font-family="mono" font-size="14.00" fill="#c83500">string</text>
</g>
<!-- PSKSecurityScheme&#45;&gt;SecurityScheme -->
<g id="edge8" class="edge">
<title>PSKSecurityScheme&#45;&gt;SecurityScheme</title>
<path fill="none" stroke="#000000" d="M1449.3212,-148.952C1432.422,-134.4765 1409.4035,-117.1705 1386,-107 1332.8649,-83.9089 1272.5569,-68.2743 1215.4163,-57.6887"/>
<polygon fill="#ffffff" stroke="#000000" points="1215.9964,-54.2369 1205.5332,-55.9017 1214.7509,-61.1252 1215.9964,-54.2369"/>
</g>
<!-- PoPSecurityScheme -->
<g id="node9" class="node">
<title>PoPSecurityScheme</title>
<polygon fill="#8ccbf2" stroke="transparent" points="1584,-216 1584,-237 1760,-237 1760,-216 1584,-216"/>
<polygon fill="none" stroke="#8ccbf2" points="1584,-216 1584,-237 1760,-237 1760,-216 1584,-216"/>
<text text-anchor="start" x="1601.5" y="-223.8" font-family="mono" font-weight="bold" font-size="14.00" fill="#c83500">PoPSecurityScheme</text>
<polygon fill="#ddeeff" stroke="transparent" points="1584,-195 1584,-216 1760,-216 1760,-195 1584,-195"/>
<polygon fill="none" stroke="#8ccbf2" points="1584,-195 1584,-216 1760,-216 1760,-195 1584,-195"/>
<text text-anchor="start" x="1587" y="-202.8" font-family="mono" font-size="14.00" fill="#c83500">alg</text>
<text text-anchor="start" x="1612" y="-202.8" font-family="Times,serif" font-size="14.00" fill="#000000"> : </text>
<text text-anchor="start" x="1624" y="-202.8" font-family="mono" font-size="14.00" fill="#c83500">string</text>
<polygon fill="#ddeeff" stroke="transparent" points="1584,-174 1584,-195 1760,-195 1760,-174 1584,-174"/>
<polygon fill="none" stroke="#8ccbf2" points="1584,-174 1584,-195 1760,-195 1760,-174 1584,-174"/>
<text text-anchor="start" x="1587" y="-181.8" font-family="mono" font-size="14.00" fill="#c83500">authorization</text>
<text text-anchor="start" x="1695" y="-181.8" font-family="Times,serif" font-size="14.00" fill="#000000"> : </text>
<text text-anchor="start" x="1707" y="-181.8" font-family="mono" font-size="14.00" fill="#c83500">anyURI</text>
<polygon fill="#ddeeff" stroke="transparent" points="1584,-153 1584,-174 1760,-174 1760,-153 1584,-153"/>
<polygon fill="none" stroke="#8ccbf2" points="1584,-153 1584,-174 1760,-174 1760,-153 1584,-153"/>
<text text-anchor="start" x="1587" y="-160.8" font-family="mono" font-size="14.00" fill="#c83500">format</text>
<text text-anchor="start" x="1637" y="-160.8" font-family="Times,serif" font-size="14.00" fill="#000000"> : </text>
<text text-anchor="start" x="1649" y="-160.8" font-family="mono" font-size="14.00" fill="#c83500">string</text>
<polygon fill="#ddeeff" stroke="transparent" points="1584,-132 1584,-153 1760,-153 1760,-132 1584,-132"/>
<polygon fill="none" stroke="#8ccbf2" points="1584,-132 1584,-153 1760,-153 1760,-132 1584,-132"/>
<text text-anchor="start" x="1587" y="-139.8" font-family="mono" font-size="14.00" fill="#c83500">in</text>
<text text-anchor="start" x="1604" y="-139.8" font-family="Times,serif" font-size="14.00" fill="#000000"> : </text>
<text text-anchor="start" x="1616" y="-139.8" font-family="mono" font-size="14.00" fill="#c83500">string</text>
<polygon fill="#ddeeff" stroke="transparent" points="1584,-111 1584,-132 1760,-132 1760,-111 1584,-111"/>
<polygon fill="none" stroke="#8ccbf2" points="1584,-111 1584,-132 1760,-132 1760,-111 1584,-111"/>
<text text-anchor="start" x="1587" y="-118.8" font-family="mono" font-size="14.00" fill="#c83500">name</text>
<text text-anchor="start" x="1621" y="-118.8" font-family="Times,serif" font-size="14.00" fill="#000000"> : </text>
<text text-anchor="start" x="1633" y="-118.8" font-family="mono" font-size="14.00" fill="#c83500">string</text>
</g>
<!-- PoPSecurityScheme&#45;&gt;SecurityScheme -->
<g id="edge9" class="edge">
<title>PoPSecurityScheme&#45;&gt;SecurityScheme</title>
<path fill="none" stroke="#000000" d="M1575.8476,-110.459C1572.9022,-109.2209 1569.9497,-108.0632 1567,-107 1503.5835,-84.1423 1348.8197,-65.5949 1215.9587,-53.1233"/>
<polygon fill="#ffffff" stroke="#000000" points="1215.9028,-49.603 1205.6214,-52.1609 1215.2539,-56.5729 1215.9028,-49.603"/>
</g>
<!-- PublicSecurityScheme -->
<g id="node10" class="node">
<title>PublicSecurityScheme</title>
<polygon fill="#8ccbf2" stroke="transparent" points="1794,-174 1794,-195 1966,-195 1966,-174 1794,-174"/>
<polygon fill="none" stroke="#8ccbf2" points="1794,-174 1794,-195 1966,-195 1966,-174 1794,-174"/>
<text text-anchor="start" x="1797" y="-181.8" font-family="mono" font-weight="bold" font-size="14.00" fill="#c83500">PublicSecurityScheme</text>
<polygon fill="#ddeeff" stroke="transparent" points="1794,-153 1794,-174 1966,-174 1966,-153 1794,-153"/>
<polygon fill="none" stroke="#8ccbf2" points="1794,-153 1794,-174 1966,-174 1966,-153 1794,-153"/>
<text text-anchor="start" x="1797" y="-160.8" font-family="mono" font-size="14.00" fill="#c83500">identity</text>
<text text-anchor="start" x="1864" y="-160.8" font-family="Times,serif" font-size="14.00" fill="#000000"> : </text>
<text text-anchor="start" x="1876" y="-160.8" font-family="mono" font-size="14.00" fill="#c83500">string</text>
</g>
<!-- PublicSecurityScheme&#45;&gt;SecurityScheme -->
<g id="edge10" class="edge">
<title>PublicSecurityScheme&#45;&gt;SecurityScheme</title>
<path fill="none" stroke="#000000" d="M1850.0803,-148.9002C1830.5595,-134.0175 1803.8056,-116.2965 1777,-107 1676.8889,-72.2803 1410.4393,-53.389 1215.8727,-43.8891"/>
<polygon fill="#ffffff" stroke="#000000" points="1215.9476,-40.3887 1205.7903,-43.402 1215.6098,-47.3805 1215.9476,-40.3887"/>
</g>
</g>
</svg>
