<?xml version="1.0" encoding="UTF-8" standalone="no"?>
<!DOCTYPE svg PUBLIC "-//W3C//DTD SVG 1.1//EN"
 "http://www.w3.org/Graphics/SVG/1.1/DTD/svg11.dtd">
<!-- Generated by graphviz version 2.40.1 (20161225.0304)
 -->
<!-- Title: %3 Pages: 1 -->
<svg width="1568pt" height="337pt"
 viewBox="0.00 0.00 1568.00 337.00" xmlns="http://www.w3.org/2000/svg" xmlns:xlink="http://www.w3.org/1999/xlink">
<g id="graph0" class="graph" transform="scale(1 1) rotate(0) translate(4 333)">
<title>%3</title>
<polygon fill="#ffffff" stroke="transparent" points="-4,4 -4,-333 1564,-333 1564,4 -4,4"/>
<!-- APIKeySecurityScheme -->
<g id="node1" class="node">
<title>APIKeySecurityScheme</title>
<polygon fill="#8ccbf2" stroke="transparent" points="8,-272 8,-293 172,-293 172,-272 8,-272"/>
<polygon fill="none" stroke="#8ccbf2" points="8,-272 8,-293 172,-293 172,-272 8,-272"/>
<text text-anchor="start" x="11" y="-279.8" font-family="mono" font-weight="bold" font-size="14.00" fill="#c83500">APIKeySecurityScheme</text>
<polygon fill="#ddeeff" stroke="transparent" points="8,-251 8,-272 172,-272 172,-251 8,-251"/>
<polygon fill="none" stroke="#8ccbf2" points="8,-251 8,-272 172,-272 172,-251 8,-251"/>
<text text-anchor="start" x="11" y="-258.8" font-family="mono" font-size="14.00" fill="#c83500">in</text>
<text text-anchor="start" x="22" y="-258.8" font-family="Times,serif" font-size="14.00" fill="#000000"> : </text>
<text text-anchor="start" x="33" y="-258.8" font-family="mono" font-size="14.00" fill="#c83500">string</text>
<polygon fill="#ddeeff" stroke="transparent" points="8,-230 8,-251 172,-251 172,-230 8,-230"/>
<polygon fill="none" stroke="#8ccbf2" points="8,-230 8,-251 172,-251 172,-230 8,-230"/>
<text text-anchor="start" x="11" y="-237.8" font-family="mono" font-size="14.00" fill="#c83500">name</text>
<text text-anchor="start" x="47" y="-237.8" font-family="Times,serif" font-size="14.00" fill="#000000"> : </text>
<text text-anchor="start" x="58" y="-237.8" font-family="mono" font-size="14.00" fill="#c83500">string</text>
</g>
<!-- SecurityScheme -->
<g id="node9" class="node">
<title>SecurityScheme</title>
<polygon fill="#8ccbf2" stroke="transparent" points="738,-132.5 738,-153.5 891,-153.5 891,-132.5 738,-132.5"/>
<polygon fill="none" stroke="#8ccbf2" points="738,-132.5 738,-153.5 891,-153.5 891,-132.5 738,-132.5"/>
<text text-anchor="start" x="760" y="-140.3" font-family="mono" font-weight="bold" font-size="14.00" fill="#c83500">SecurityScheme</text>
<polygon fill="#ddeeff" stroke="transparent" points="738,-111.5 738,-132.5 891,-132.5 891,-111.5 738,-111.5"/>
<polygon fill="none" stroke="#8ccbf2" points="738,-111.5 738,-132.5 891,-132.5 891,-111.5 738,-111.5"/>
<text text-anchor="start" x="741" y="-119.3" font-family="mono" font-size="14.00" fill="#c83500">@type</text>
<text text-anchor="start" x="782" y="-119.3" font-family="Times,serif" font-size="14.00" fill="#000000"> : </text>
<text text-anchor="start" x="793" y="-119.3" font-family="Times,serif" font-style="italic" font-size="14.00" fill="#000000">(Array of) </text>
<text text-anchor="start" x="853" y="-119.3" font-family="mono" font-size="14.00" fill="#c83500">string</text>
<polygon fill="#ddeeff" stroke="transparent" points="738,-90.5 738,-111.5 891,-111.5 891,-90.5 738,-90.5"/>
<polygon fill="none" stroke="#8ccbf2" points="738,-90.5 738,-111.5 891,-111.5 891,-90.5 738,-90.5"/>
<text text-anchor="start" x="741" y="-98.3" font-family="mono" font-size="14.00" fill="#c83500">description</text>
<text text-anchor="start" x="809" y="-98.3" font-family="Times,serif" font-size="14.00" fill="#000000"> : </text>
<text text-anchor="start" x="820" y="-98.3" font-family="mono" font-size="14.00" fill="#c83500">string</text>
</g>
<!-- APIKeySecurityScheme&#45;&gt;SecurityScheme -->
<g id="edge2" class="edge">
<title>APIKeySecurityScheme&#45;&gt;SecurityScheme</title>
<path fill="none" stroke="#000000" d="M132.828,-226.4263C149.405,-214.4944 169.1529,-202.3625 189,-195 283.9211,-159.7881 569.0675,-137.5573 719.1934,-127.9704"/>
<polygon fill="#ffffff" stroke="#000000" points="719.5649,-131.454 729.3239,-127.3296 719.1229,-124.4679 719.5649,-131.454"/>
</g>
<!-- BasicSecurityScheme -->
<g id="node2" class="node">
<title>BasicSecurityScheme</title>
<polygon fill="#8ccbf2" stroke="transparent" points="207,-272 207,-293 360,-293 360,-272 207,-272"/>
<polygon fill="none" stroke="#8ccbf2" points="207,-272 207,-293 360,-293 360,-272 207,-272"/>
<text text-anchor="start" x="210" y="-279.8" font-family="mono" font-weight="bold" font-size="14.00" fill="#c83500">BasicSecurityScheme</text>
<polygon fill="#ddeeff" stroke="transparent" points="207,-251 207,-272 360,-272 360,-251 207,-251"/>
<polygon fill="none" stroke="#8ccbf2" points="207,-251 207,-272 360,-272 360,-251 207,-251"/>
<text text-anchor="start" x="210" y="-258.8" font-family="mono" font-size="14.00" fill="#c83500">in</text>
<text text-anchor="start" x="221" y="-258.8" font-family="Times,serif" font-size="14.00" fill="#000000"> : </text>
<text text-anchor="start" x="232" y="-258.8" font-family="mono" font-size="14.00" fill="#c83500">string</text>
<polygon fill="#ddeeff" stroke="transparent" points="207,-230 207,-251 360,-251 360,-230 207,-230"/>
<polygon fill="none" stroke="#8ccbf2" points="207,-230 207,-251 360,-251 360,-230 207,-230"/>
<text text-anchor="start" x="210" y="-237.8" font-family="mono" font-size="14.00" fill="#c83500">name</text>
<text text-anchor="start" x="246" y="-237.8" font-family="Times,serif" font-size="14.00" fill="#000000"> : </text>
<text text-anchor="start" x="257" y="-237.8" font-family="mono" font-size="14.00" fill="#c83500">string</text>
</g>
<!-- BasicSecurityScheme&#45;&gt;SecurityScheme -->
<g id="edge3" class="edge">
<title>BasicSecurityScheme&#45;&gt;SecurityScheme</title>
<path fill="none" stroke="#000000" d="M324.5423,-226.2087C340.0833,-214.5505 358.4782,-202.653 377,-195 437.3094,-170.0808 609.6938,-146.3404 719.0624,-133.1663"/>
<polygon fill="#ffffff" stroke="#000000" points="719.6024,-136.6267 729.1158,-131.9636 718.7708,-129.6763 719.6024,-136.6267"/>
</g>
<!-- BearerSecurityScheme -->
<g id="node3" class="node">
<title>BearerSecurityScheme</title>
<polygon fill="#8ccbf2" stroke="transparent" points="394,-304 394,-325 554,-325 554,-304 394,-304"/>
<polygon fill="none" stroke="#8ccbf2" points="394,-304 394,-325 554,-325 554,-304 394,-304"/>
<text text-anchor="start" x="397" y="-311.8" font-family="mono" font-weight="bold" font-size="14.00" fill="#c83500">BearerSecurityScheme</text>
<polygon fill="#ddeeff" stroke="transparent" points="394,-283 394,-304 554,-304 554,-283 394,-283"/>
<polygon fill="none" stroke="#8ccbf2" points="394,-283 394,-304 554,-304 554,-283 394,-283"/>
<text text-anchor="start" x="397" y="-290.8" font-family="mono" font-size="14.00" fill="#c83500">alg</text>
<text text-anchor="start" x="416" y="-290.8" font-family="Times,serif" font-size="14.00" fill="#000000"> : </text>
<text text-anchor="start" x="427" y="-290.8" font-family="mono" font-size="14.00" fill="#c83500">string</text>
<polygon fill="#ddeeff" stroke="transparent" points="394,-262 394,-283 554,-283 554,-262 394,-262"/>
<polygon fill="none" stroke="#8ccbf2" points="394,-262 394,-283 554,-283 554,-262 394,-262"/>
<text text-anchor="start" x="397" y="-269.8" font-family="mono" font-size="14.00" fill="#c83500">authorization</text>
<text text-anchor="start" x="478" y="-269.8" font-family="Times,serif" font-size="14.00" fill="#000000"> : </text>
<text text-anchor="start" x="489" y="-269.8" font-family="mono" font-size="14.00" fill="#c83500">anyURI</text>
<polygon fill="#ddeeff" stroke="transparent" points="394,-241 394,-262 554,-262 554,-241 394,-241"/>
<polygon fill="none" stroke="#8ccbf2" points="394,-241 394,-262 554,-262 554,-241 394,-241"/>
<text text-anchor="start" x="397" y="-248.8" font-family="mono" font-size="14.00" fill="#c83500">format</text>
<text text-anchor="start" x="437" y="-248.8" font-family="Times,serif" font-size="14.00" fill="#000000"> : </text>
<text text-anchor="start" x="448" y="-248.8" font-family="mono" font-size="14.00" fill="#c83500">string</text>
<polygon fill="#ddeeff" stroke="transparent" points="394,-220 394,-241 554,-241 554,-220 394,-220"/>
<polygon fill="none" stroke="#8ccbf2" points="394,-220 394,-241 554,-241 554,-220 394,-220"/>
<text text-anchor="start" x="397" y="-227.8" font-family="mono" font-size="14.00" fill="#c83500">in</text>
<text text-anchor="start" x="408" y="-227.8" font-family="Times,serif" font-size="14.00" fill="#000000"> : </text>
<text text-anchor="start" x="419" y="-227.8" font-family="mono" font-size="14.00" fill="#c83500">string</text>
<polygon fill="#ddeeff" stroke="transparent" points="394,-199 394,-220 554,-220 554,-199 394,-199"/>
<polygon fill="none" stroke="#8ccbf2" points="394,-199 394,-220 554,-220 554,-199 394,-199"/>
<text text-anchor="start" x="397" y="-206.8" font-family="mono" font-size="14.00" fill="#c83500">name</text>
<text text-anchor="start" x="433" y="-206.8" font-family="Times,serif" font-size="14.00" fill="#000000"> : </text>
<text text-anchor="start" x="444" y="-206.8" font-family="mono" font-size="14.00" fill="#c83500">string</text>
</g>
<!-- BearerSecurityScheme&#45;&gt;SecurityScheme -->
<g id="edge4" class="edge">
<title>BearerSecurityScheme&#45;&gt;SecurityScheme</title>
<path fill="none" stroke="#000000" d="M562.1253,-199.4864C565.0848,-197.917 568.0473,-196.4162 571,-195 618.0657,-172.4265 673.6598,-155.211 719.7866,-143.2326"/>
<polygon fill="#ffffff" stroke="#000000" points="720.6571,-146.6227 729.4794,-140.756 718.9241,-139.8406 720.6571,-146.6227"/>
</g>
<!-- ComboSecurityScheme -->
<g id="node4" class="node">
<title>ComboSecurityScheme</title>
<polygon fill="#8ccbf2" stroke="transparent" points="588,-272 588,-293 814,-293 814,-272 588,-272"/>
<polygon fill="none" stroke="#8ccbf2" points="588,-272 588,-293 814,-293 814,-272 588,-272"/>
<text text-anchor="start" x="622" y="-279.8" font-family="mono" font-weight="bold" font-size="14.00" fill="#c83500">ComboSecurityScheme</text>
<polygon fill="#ddeeff" stroke="transparent" points="588,-251 588,-272 814,-272 814,-251 588,-251"/>
<polygon fill="none" stroke="#8ccbf2" points="588,-251 588,-272 814,-272 814,-251 588,-251"/>
<text text-anchor="start" x="591" y="-258.8" font-family="mono" font-size="14.00" fill="#c83500">oneOf</text>
<text text-anchor="start" x="630" y="-258.8" font-family="Times,serif" font-size="14.00" fill="#000000"> : (Array of) </text>
<text text-anchor="start" x="702" y="-258.8" font-family="mono" font-size="14.00" fill="#c83500">string</text>
<text text-anchor="start" x="737" y="-258.8" font-family="Times,serif" font-size="14.00" fill="#000000"> </text>
<text text-anchor="start" x="741" y="-258.8" font-family="Times,serif" font-style="italic" font-size="14.00" fill="#000000">(mandatory)</text>
<polygon fill="#ddeeff" stroke="transparent" points="588,-230 588,-251 814,-251 814,-230 588,-230"/>
<polygon fill="none" stroke="#8ccbf2" points="588,-230 588,-251 814,-251 814,-230 588,-230"/>
<text text-anchor="start" x="591" y="-237.8" font-family="mono" font-size="14.00" fill="#c83500">allOf</text>
<text text-anchor="start" x="620" y="-237.8" font-family="Times,serif" font-size="14.00" fill="#000000"> : (Array of) </text>
<text text-anchor="start" x="692" y="-237.8" font-family="mono" font-size="14.00" fill="#c83500">string</text>
<text text-anchor="start" x="727" y="-237.8" font-family="Times,serif" font-size="14.00" fill="#000000"> </text>
<text text-anchor="start" x="731" y="-237.8" font-family="Times,serif" font-style="italic" font-size="14.00" fill="#000000">(mandatory)</text>
</g>
<!-- ComboSecurityScheme&#45;&gt;SecurityScheme -->
<g id="edge5" class="edge">
<title>ComboSecurityScheme&#45;&gt;SecurityScheme</title>
<path fill="none" stroke="#000000" d="M729.8071,-226.4373C744.6345,-208.1327 762.8425,-185.6546 778.5283,-166.2903"/>
<polygon fill="#ffffff" stroke="#000000" points="781.2779,-168.4564 784.8526,-158.4828 775.8385,-164.0503 781.2779,-168.4564"/>
</g>
<!-- DigestSecurityScheme -->
<g id="node5" class="node">
<title>DigestSecurityScheme</title>
<polygon fill="#8ccbf2" stroke="transparent" points="848,-283 848,-304 1006,-304 1006,-283 848,-283"/>
<polygon fill="none" stroke="#8ccbf2" points="848,-283 848,-304 1006,-304 1006,-283 848,-283"/>
<text text-anchor="start" x="851" y="-290.8" font-family="mono" font-weight="bold" font-size="14.00" fill="#c83500">DigestSecurityScheme</text>
<polygon fill="#ddeeff" stroke="transparent" points="848,-262 848,-283 1006,-283 1006,-262 848,-262"/>
<polygon fill="none" stroke="#8ccbf2" points="848,-262 848,-283 1006,-283 1006,-262 848,-262"/>
<text text-anchor="start" x="851" y="-269.8" font-family="mono" font-size="14.00" fill="#c83500">in</text>
<text text-anchor="start" x="862" y="-269.8" font-family="Times,serif" font-size="14.00" fill="#000000"> : </text>
<text text-anchor="start" x="873" y="-269.8" font-family="mono" font-size="14.00" fill="#c83500">string</text>
<polygon fill="#ddeeff" stroke="transparent" points="848,-241 848,-262 1006,-262 1006,-241 848,-241"/>
<polygon fill="none" stroke="#8ccbf2" points="848,-241 848,-262 1006,-262 1006,-241 848,-241"/>
<text text-anchor="start" x="851" y="-248.8" font-family="mono" font-size="14.00" fill="#c83500">name</text>
<text text-anchor="start" x="887" y="-248.8" font-family="Times,serif" font-size="14.00" fill="#000000"> : </text>
<text text-anchor="start" x="898" y="-248.8" font-family="mono" font-size="14.00" fill="#c83500">string</text>
<polygon fill="#ddeeff" stroke="transparent" points="848,-220 848,-241 1006,-241 1006,-220 848,-220"/>
<polygon fill="none" stroke="#8ccbf2" points="848,-220 848,-241 1006,-241 1006,-220 848,-220"/>
<text text-anchor="start" x="851" y="-227.8" font-family="mono" font-size="14.00" fill="#c83500">qop</text>
<text text-anchor="start" x="875" y="-227.8" font-family="Times,serif" font-size="14.00" fill="#000000"> : </text>
<text text-anchor="start" x="886" y="-227.8" font-family="mono" font-size="14.00" fill="#c83500">string</text>
</g>
<!-- DigestSecurityScheme&#45;&gt;SecurityScheme -->
<g id="edge6" class="edge">
<title>DigestSecurityScheme&#45;&gt;SecurityScheme</title>
<path fill="none" stroke="#000000" d="M889.6864,-215.9359C876.7669,-199.9866 862.3287,-182.1624 849.5545,-166.3925"/>
<polygon fill="#ffffff" stroke="#000000" points="852.0571,-163.9214 843.043,-158.3539 846.6177,-168.3275 852.0571,-163.9214"/>
</g>
<!-- NoSecurityScheme -->
<g id="node6" class="node">
<title>NoSecurityScheme</title>
<polygon fill="#8ccbf2" stroke="transparent" points="1040,-251 1040,-272 1174,-272 1174,-251 1040,-251"/>
<polygon fill="none" stroke="#8ccbf2" points="1040,-251 1040,-272 1174,-272 1174,-251 1040,-251"/>
<text text-anchor="start" x="1043" y="-258.8" font-family="mono" font-weight="bold" font-size="14.00" fill="#c83500">NoSecurityScheme</text>
</g>
<!-- NoSecurityScheme&#45;&gt;SecurityScheme -->
<g id="edge7" class="edge">
<title>NoSecurityScheme&#45;&gt;SecurityScheme</title>
<path fill="none" stroke="#000000" d="M1088.3267,-243.9969C1072.1343,-229.1848 1047.5074,-208.5031 1023,-195 987.3353,-175.3495 945.3627,-159.54 908.4249,-147.7607"/>
<polygon fill="#ffffff" stroke="#000000" points="909.2401,-144.3484 898.6511,-144.6995 907.1478,-151.0284 909.2401,-144.3484"/>
</g>
<!-- OAuth2SecurityScheme -->
<g id="node7" class="node">
<title>OAuth2SecurityScheme</title>
<polygon fill="#8ccbf2" stroke="transparent" points="1208,-272 1208,-293 1374,-293 1374,-272 1208,-272"/>
<polygon fill="none" stroke="#8ccbf2" points="1208,-272 1208,-293 1374,-293 1374,-272 1208,-272"/>
<text text-anchor="start" x="1211" y="-279.8" font-family="mono" font-weight="bold" font-size="14.00" fill="#c83500">OAuth2SecurityScheme</text>
<polygon fill="#ddeeff" stroke="transparent" points="1208,-251 1208,-272 1374,-272 1374,-251 1208,-251"/>
<polygon fill="none" stroke="#8ccbf2" points="1208,-251 1208,-272 1374,-272 1374,-251 1208,-251"/>
<text text-anchor="start" x="1211" y="-258.8" font-family="mono" font-size="14.00" fill="#c83500">scopes</text>
<text text-anchor="start" x="1256" y="-258.8" font-family="Times,serif" font-size="14.00" fill="#000000"> : (Array of) </text>
<text text-anchor="start" x="1328" y="-258.8" font-family="mono" font-size="14.00" fill="#c83500">string</text>
<polygon fill="#ddeeff" stroke="transparent" points="1208,-230 1208,-251 1374,-251 1374,-230 1208,-230"/>
<polygon fill="none" stroke="#8ccbf2" points="1208,-230 1208,-251 1374,-251 1374,-230 1208,-230"/>
<text text-anchor="start" x="1211" y="-237.8" font-family="mono" font-size="14.00" fill="#c83500">flow</text>
<text text-anchor="start" x="1236" y="-237.8" font-family="Times,serif" font-size="14.00" fill="#000000"> : </text>
<text text-anchor="start" x="1247" y="-237.8" font-family="mono" font-size="14.00" fill="#c83500">string</text>
<text text-anchor="start" x="1282" y="-237.8" font-family="Times,serif" font-size="14.00" fill="#000000"> </text>
<text text-anchor="start" x="1286" y="-237.8" font-family="Times,serif" font-style="italic" font-size="14.00" fill="#000000">(mandatory)</text>
</g>
<!-- OAuth2SecurityScheme&#45;&gt;SecurityScheme -->
<g id="edge8" class="edge">
<title>OAuth2SecurityScheme&#45;&gt;SecurityScheme</title>
<path fill="none" stroke="#000000" d="M1245.8882,-226.1883C1229.4241,-214.671 1210.1339,-202.8684 1191,-195 1099.4128,-157.3368 987.1455,-138.9705 909.0541,-130.1886"/>
<polygon fill="#ffffff" stroke="#000000" points="909.0683,-126.6694 898.7473,-129.0628 908.3081,-133.628 909.0683,-126.6694"/>
</g>
<!-- PSKSecurityScheme -->
<g id="node8" class="node">
<title>PSKSecurityScheme</title>
<polygon fill="#8ccbf2" stroke="transparent" points="1408,-262 1408,-283 1552,-283 1552,-262 1408,-262"/>
<polygon fill="none" stroke="#8ccbf2" points="1408,-262 1408,-283 1552,-283 1552,-262 1408,-262"/>
<text text-anchor="start" x="1411" y="-269.8" font-family="mono" font-weight="bold" font-size="14.00" fill="#c83500">PSKSecurityScheme</text>
<polygon fill="#ddeeff" stroke="transparent" points="1408,-241 1408,-262 1552,-262 1552,-241 1408,-241"/>
<polygon fill="none" stroke="#8ccbf2" points="1408,-241 1408,-262 1552,-262 1552,-241 1408,-241"/>
<text text-anchor="start" x="1411" y="-248.8" font-family="mono" font-size="14.00" fill="#c83500">identity</text>
<text text-anchor="start" x="1456" y="-248.8" font-family="Times,serif" font-size="14.00" fill="#000000"> : </text>
<text text-anchor="start" x="1467" y="-248.8" font-family="mono" font-size="14.00" fill="#c83500">string</text>
</g>
<!-- PSKSecurityScheme&#45;&gt;SecurityScheme -->
<g id="edge9" class="edge">
<title>PSKSecurityScheme&#45;&gt;SecurityScheme</title>
<path fill="none" stroke="#000000" d="M1454.2378,-236.8206C1437.582,-222.1047 1414.659,-204.5912 1391,-195 1305.7664,-160.447 1049.6056,-138.3549 908.9794,-128.4881"/>
<polygon fill="#ffffff" stroke="#000000" points="908.8619,-124.9716 898.6434,-127.7703 908.3769,-131.9547 908.8619,-124.9716"/>
</g>
<!-- MultiLanguage -->
<g id="node10" class="node">
<title>MultiLanguage</title>
<polygon fill="#f2f2f2" stroke="transparent" points="762,-7 762,-28 867,-28 867,-7 762,-7"/>
<polygon fill="none" stroke="#8c8c8c" points="762,-7 762,-28 867,-28 867,-7 762,-7"/>
<text text-anchor="start" x="765" y="-14.8" font-family="mono" font-weight="bold" font-size="14.00" fill="#000000">MultiLanguage</text>
</g>
<!-- SecurityScheme&#45;&gt;MultiLanguage -->
<g id="edge1" class="edge">
<title>SecurityScheme&#45;&gt;MultiLanguage</title>
<path fill="none" stroke="#000000" d="M814,-86.8293C814,-73.6588 814,-58.9205 814,-46.4714"/>
<polygon fill="#000000" stroke="#000000" points="817.5001,-46.2174 814,-36.2174 810.5001,-46.2175 817.5001,-46.2174"/>
<text text-anchor="start" x="814" y="-57.8" font-family="mono" font-size="14.00" fill="#c83500">descriptions</text>
<text text-anchor="middle" x="803" y="-40.0174" font-family="Times,serif" font-size="14.00" fill="#000000">0..*</text>
</g>
</g>
</svg>
