<?xml version="1.0" encoding="UTF-8" standalone="no"?>
<!DOCTYPE svg PUBLIC "-//W3C//DTD SVG 1.1//EN"
 "http://www.w3.org/Graphics/SVG/1.1/DTD/svg11.dtd">
<!-- Generated by graphviz version 9.0.0 (20230911.1827)
 -->
<!-- Pages: 1 -->
<svg width="585pt" height="320pt"
 viewBox="0.00 0.00 585.25 319.50" xmlns="http://www.w3.org/2000/svg" xmlns:xlink="http://www.w3.org/1999/xlink">
<g id="graph0" class="graph" transform="scale(1 1) rotate(0) translate(4 315.5)">
<polygon fill="white" stroke="none" points="-4,4 -4,-315.5 581.25,-315.5 581.25,4 -4,4"/>
<!-- AdditionalExpectedResponse -->
<g id="node1" class="node">
<title>AdditionalExpectedResponse</title>
<polygon fill="#8ccbf2" stroke="none" points="8,-71.5 8,-92.5 228.5,-92.5 228.5,-71.5 8,-71.5"/>
<polygon fill="none" stroke="#8ccbf2" points="8,-71.5 8,-92.5 228.5,-92.5 228.5,-71.5 8,-71.5"/>
<text text-anchor="start" x="11" y="-77.2" font-family="Monospace" font-weight="bold" font-size="14.00" fill="#c83500">AdditionalExpectedResponse</text>
<polygon fill="#ddeeff" stroke="none" points="8,-49 8,-71.5 228.5,-71.5 228.5,-49 8,-49"/>
<polygon fill="none" stroke="#8ccbf2" points="8,-49 8,-71.5 228.5,-71.5 228.5,-49 8,-49"/>
<text text-anchor="start" x="11" y="-56.2" font-family="Monospace" font-size="14.00" fill="#c83500">schema</text>
<text text-anchor="start" x="60.5" y="-56.2" font-family="Times,serif" font-size="14.00"> : </text>
<text text-anchor="start" x="71.75" y="-56.2" font-family="Monospace" font-size="14.00" fill="#c83500">string</text>
<polygon fill="#ddeeff" stroke="none" points="8,-26.5 8,-49 228.5,-49 228.5,-26.5 8,-26.5"/>
<polygon fill="none" stroke="#8ccbf2" points="8,-26.5 8,-49 228.5,-49 228.5,-26.5 8,-26.5"/>
<text text-anchor="start" x="11" y="-33.7" font-family="Monospace" font-size="14.00" fill="#c83500">success</text>
<text text-anchor="start" x="68.75" y="-33.7" font-family="Times,serif" font-size="14.00"> : </text>
<text text-anchor="start" x="80" y="-33.7" font-family="Monospace" font-size="14.00" fill="#c83500">boolean</text>
<polygon fill="#ddeeff" stroke="none" points="8,-4 8,-26.5 228.5,-26.5 228.5,-4 8,-4"/>
<polygon fill="none" stroke="#8ccbf2" points="8,-4 8,-26.5 228.5,-26.5 228.5,-4 8,-4"/>
<text text-anchor="start" x="11" y="-11.2" font-family="Monospace" font-size="14.00" fill="#c83500">contentType</text>
<text text-anchor="start" x="101.75" y="-11.2" font-family="Times,serif" font-size="14.00"> : </text>
<text text-anchor="start" x="113" y="-11.2" font-family="Monospace" font-size="14.00" fill="#c83500">string</text>
</g>
<!-- ExpectedResponse -->
<g id="node2" class="node">
<title>ExpectedResponse</title>
<polygon fill="#8ccbf2" stroke="none" points="262.88,-49 262.88,-70 491.62,-70 491.62,-49 262.88,-49"/>
<polygon fill="none" stroke="#8ccbf2" points="262.88,-49 262.88,-70 491.62,-70 491.62,-49 262.88,-49"/>
<text text-anchor="start" x="311.25" y="-54.7" font-family="Monospace" font-weight="bold" font-size="14.00" fill="#c83500">ExpectedResponse</text>
<polygon fill="#ddeeff" stroke="none" points="262.88,-26.5 262.88,-49 491.62,-49 491.62,-26.5 262.88,-26.5"/>
<polygon fill="none" stroke="#8ccbf2" points="262.88,-26.5 262.88,-49 491.62,-49 491.62,-26.5 262.88,-26.5"/>
<text text-anchor="start" x="265.88" y="-33.7" font-family="Monospace" font-size="14.00" fill="#c83500">contentType</text>
<text text-anchor="start" x="356.62" y="-33.7" font-family="Times,serif" font-size="14.00"> : </text>
<text text-anchor="start" x="367.88" y="-33.7" font-family="Monospace" font-size="14.00" fill="#c83500">string</text>
<text text-anchor="start" x="417.38" y="-33.7" font-family="Times,serif" font-size="14.00"> </text>
<text text-anchor="start" x="421.12" y="-33.7" font-family="Times,serif" font-style="italic" font-size="14.00">(mandatory)</text>
</g>
<!-- Form -->
<g id="node3" class="node">
<title>Form</title>
<polygon fill="#8ccbf2" stroke="none" points="151.25,-286.5 151.25,-307.5 343.25,-307.5 343.25,-286.5 151.25,-286.5"/>
<polygon fill="none" stroke="#8ccbf2" points="151.25,-286.5 151.25,-307.5 343.25,-307.5 343.25,-286.5 151.25,-286.5"/>
<text text-anchor="start" x="230.75" y="-292.2" font-family="Monospace" font-weight="bold" font-size="14.00" fill="#c83500">Form</text>
<polygon fill="#ddeeff" stroke="none" points="151.25,-264 151.25,-286.5 343.25,-286.5 343.25,-264 151.25,-264"/>
<polygon fill="none" stroke="#8ccbf2" points="151.25,-264 151.25,-286.5 343.25,-286.5 343.25,-264 151.25,-264"/>
<text text-anchor="start" x="154.25" y="-271.2" font-family="Monospace" font-size="14.00" fill="#c83500">href</text>
<text text-anchor="start" x="187.25" y="-271.2" font-family="Times,serif" font-size="14.00"> : </text>
<text text-anchor="start" x="198.5" y="-271.2" font-family="Monospace" font-size="14.00" fill="#c83500">anyURI</text>
<text text-anchor="start" x="248" y="-271.2" font-family="Times,serif" font-size="14.00"> </text>
<text text-anchor="start" x="251.75" y="-271.2" font-family="Times,serif" font-style="italic" font-size="14.00">(mandatory)</text>
<polygon fill="#ddeeff" stroke="none" points="151.25,-241.5 151.25,-264 343.25,-264 343.25,-241.5 151.25,-241.5"/>
<polygon fill="none" stroke="#8ccbf2" points="151.25,-241.5 151.25,-264 343.25,-264 343.25,-241.5 151.25,-241.5"/>
<text text-anchor="start" x="154.25" y="-248.7" font-family="Monospace" font-size="14.00" fill="#c83500">contentType</text>
<text text-anchor="start" x="245" y="-248.7" font-family="Times,serif" font-size="14.00"> : </text>
<text text-anchor="start" x="256.25" y="-248.7" font-family="Monospace" font-size="14.00" fill="#c83500">string</text>
<polygon fill="#ddeeff" stroke="none" points="151.25,-219 151.25,-241.5 343.25,-241.5 343.25,-219 151.25,-219"/>
<polygon fill="none" stroke="#8ccbf2" points="151.25,-219 151.25,-241.5 343.25,-241.5 343.25,-219 151.25,-219"/>
<text text-anchor="start" x="154.25" y="-226.2" font-family="Monospace" font-size="14.00" fill="#c83500">contentCoding</text>
<text text-anchor="start" x="261.5" y="-226.2" font-family="Times,serif" font-size="14.00"> : </text>
<text text-anchor="start" x="272.75" y="-226.2" font-family="Monospace" font-size="14.00" fill="#c83500">string</text>
<polygon fill="#ddeeff" stroke="none" points="151.25,-196.5 151.25,-219 343.25,-219 343.25,-196.5 151.25,-196.5"/>
<polygon fill="none" stroke="#8ccbf2" points="151.25,-196.5 151.25,-219 343.25,-219 343.25,-196.5 151.25,-196.5"/>
<text text-anchor="start" x="154.25" y="-203.7" font-family="Monospace" font-size="14.00" fill="#c83500">subprotocol</text>
<text text-anchor="start" x="245" y="-203.7" font-family="Times,serif" font-size="14.00"> : </text>
<text text-anchor="start" x="256.25" y="-203.7" font-family="Monospace" font-size="14.00" fill="#c83500">string</text>
<polygon fill="#ddeeff" stroke="none" points="151.25,-174 151.25,-196.5 343.25,-196.5 343.25,-174 151.25,-174"/>
<polygon fill="none" stroke="#8ccbf2" points="151.25,-174 151.25,-196.5 343.25,-196.5 343.25,-174 151.25,-174"/>
<text text-anchor="start" x="154.25" y="-181.2" font-family="Monospace" font-size="14.00" fill="#c83500">security</text>
<text text-anchor="start" x="220.25" y="-181.2" font-family="Times,serif" font-size="14.00"> : (Array of) </text>
<text text-anchor="start" x="290.75" y="-181.2" font-family="Monospace" font-size="14.00" fill="#c83500">string</text>
<polygon fill="#ddeeff" stroke="none" points="151.25,-151.5 151.25,-174 343.25,-174 343.25,-151.5 151.25,-151.5"/>
<polygon fill="none" stroke="#8ccbf2" points="151.25,-151.5 151.25,-174 343.25,-174 343.25,-151.5 151.25,-151.5"/>
<text text-anchor="start" x="154.25" y="-158.7" font-family="Monospace" font-size="14.00" fill="#c83500">scopes</text>
<text text-anchor="start" x="203.75" y="-158.7" font-family="Times,serif" font-size="14.00"> : (Array of) </text>
<text text-anchor="start" x="274.25" y="-158.7" font-family="Monospace" font-size="14.00" fill="#c83500">string</text>
</g>
<!-- Form&#45;&gt;AdditionalExpectedResponse -->
<g id="edge1" class="edge">
<title>Form&#45;&gt;AdditionalExpectedResponse</title>
<path fill="none" stroke="black" d="M188.98,-147.53C178.67,-133.21 168.15,-118.59 158.48,-105.15"/>
<polygon fill="black" stroke="black" points="161.5,-103.35 152.82,-97.28 155.82,-107.44 161.5,-103.35"/>
<text text-anchor="start" x="175.25" y="-116.2" font-family="Monospace" font-size="14.00" fill="#c83500">additionalResponses</text>
<text text-anchor="middle" x="141.43" y="-99.25" font-family="Times,serif" font-size="14.00">0..*</text>
</g>
<!-- Form&#45;&gt;ExpectedResponse -->
<g id="edge2" class="edge">
<title>Form&#45;&gt;ExpectedResponse</title>
<path fill="none" stroke="black" d="M322.8,-147.75C327.53,-141.71 332.06,-135.59 336.25,-129.5 346.02,-115.29 354.98,-98.43 362.01,-83.85"/>
<polygon fill="black" stroke="black" points="365.05,-85.61 366.14,-75.07 358.72,-82.63 365.05,-85.61"/>
<text text-anchor="start" x="345.25" y="-116.2" font-family="Monospace" font-size="14.00" fill="#c83500">response</text>
<text text-anchor="middle" x="356.28" y="-76.9" font-family="Times,serif" font-size="14.00">0..1</text>
</g>
<!-- Link -->
<g id="node4" class="node">
<title>Link</title>
<polygon fill="#8ccbf2" stroke="none" points="377.25,-286.5 377.25,-307.5 569.25,-307.5 569.25,-286.5 377.25,-286.5"/>
<polygon fill="none" stroke="#8ccbf2" points="377.25,-286.5 377.25,-307.5 569.25,-307.5 569.25,-286.5 377.25,-286.5"/>
<text text-anchor="start" x="456.75" y="-292.2" font-family="Monospace" font-weight="bold" font-size="14.00" fill="#c83500">Link</text>
<polygon fill="#ddeeff" stroke="none" points="377.25,-264 377.25,-286.5 569.25,-286.5 569.25,-264 377.25,-264"/>
<polygon fill="none" stroke="#8ccbf2" points="377.25,-264 377.25,-286.5 569.25,-286.5 569.25,-264 377.25,-264"/>
<text text-anchor="start" x="380.25" y="-271.2" font-family="Monospace" font-size="14.00" fill="#c83500">href</text>
<text text-anchor="start" x="413.25" y="-271.2" font-family="Times,serif" font-size="14.00"> : </text>
<text text-anchor="start" x="424.5" y="-271.2" font-family="Monospace" font-size="14.00" fill="#c83500">anyURI</text>
<text text-anchor="start" x="474" y="-271.2" font-family="Times,serif" font-size="14.00"> </text>
<text text-anchor="start" x="477.75" y="-271.2" font-family="Times,serif" font-style="italic" font-size="14.00">(mandatory)</text>
<polygon fill="#ddeeff" stroke="none" points="377.25,-241.5 377.25,-264 569.25,-264 569.25,-241.5 377.25,-241.5"/>
<polygon fill="none" stroke="#8ccbf2" points="377.25,-241.5 377.25,-264 569.25,-264 569.25,-241.5 377.25,-241.5"/>
<text text-anchor="start" x="380.25" y="-248.7" font-family="Monospace" font-size="14.00" fill="#c83500">type</text>
<text text-anchor="start" x="413.25" y="-248.7" font-family="Times,serif" font-size="14.00"> : </text>
<text text-anchor="start" x="424.5" y="-248.7" font-family="Monospace" font-size="14.00" fill="#c83500">string</text>
<polygon fill="#ddeeff" stroke="none" points="377.25,-219 377.25,-241.5 569.25,-241.5 569.25,-219 377.25,-219"/>
<polygon fill="none" stroke="#8ccbf2" points="377.25,-219 377.25,-241.5 569.25,-241.5 569.25,-219 377.25,-219"/>
<text text-anchor="start" x="380.25" y="-226.2" font-family="Monospace" font-size="14.00" fill="#c83500">rel</text>
<text text-anchor="start" x="405" y="-226.2" font-family="Times,serif" font-size="14.00"> : </text>
<text text-anchor="start" x="416.25" y="-226.2" font-family="Monospace" font-size="14.00" fill="#c83500">string</text>
<polygon fill="#ddeeff" stroke="none" points="377.25,-196.5 377.25,-219 569.25,-219 569.25,-196.5 377.25,-196.5"/>
<polygon fill="none" stroke="#8ccbf2" points="377.25,-196.5 377.25,-219 569.25,-219 569.25,-196.5 377.25,-196.5"/>
<text text-anchor="start" x="380.25" y="-203.7" font-family="Monospace" font-size="14.00" fill="#c83500">anchor</text>
<text text-anchor="start" x="429.75" y="-203.7" font-family="Times,serif" font-size="14.00"> : </text>
<text text-anchor="start" x="441" y="-203.7" font-family="Monospace" font-size="14.00" fill="#c83500">anyURI</text>
<polygon fill="#ddeeff" stroke="none" points="377.25,-174 377.25,-196.5 569.25,-196.5 569.25,-174 377.25,-174"/>
<polygon fill="none" stroke="#8ccbf2" points="377.25,-174 377.25,-196.5 569.25,-196.5 569.25,-174 377.25,-174"/>
<text text-anchor="start" x="380.25" y="-181.2" font-family="Monospace" font-size="14.00" fill="#c83500">sizes</text>
<text text-anchor="start" x="421.5" y="-181.2" font-family="Times,serif" font-size="14.00"> : </text>
<text text-anchor="start" x="432.75" y="-181.2" font-family="Monospace" font-size="14.00" fill="#c83500">string</text>
<polygon fill="#ddeeff" stroke="none" points="377.25,-151.5 377.25,-174 569.25,-174 569.25,-151.5 377.25,-151.5"/>
<polygon fill="none" stroke="#8ccbf2" points="377.25,-151.5 377.25,-174 569.25,-174 569.25,-151.5 377.25,-151.5"/>
<text text-anchor="start" x="380.25" y="-158.7" font-family="Monospace" font-size="14.00" fill="#c83500">hreflang</text>
<text text-anchor="start" x="446.25" y="-158.7" font-family="Times,serif" font-size="14.00"> : (Array of) </text>
<text text-anchor="start" x="516.75" y="-158.7" font-family="Monospace" font-size="14.00" fill="#c83500">string</text>
</g>
</g>
</svg>
