<?xml version="1.0" encoding="UTF-8" standalone="no"?>
<!DOCTYPE svg PUBLIC "-//W3C//DTD SVG 1.1//EN"
 "http://www.w3.org/Graphics/SVG/1.1/DTD/svg11.dtd">
<!-- Generated by graphviz version 9.0.0 (20230911.1827)
 -->
<!-- Pages: 1 -->
<svg width="1392pt" height="497pt"
 viewBox="0.00 0.00 1392.38 496.50" xmlns="http://www.w3.org/2000/svg" xmlns:xlink="http://www.w3.org/1999/xlink">
<g id="graph0" class="graph" transform="scale(1 1) rotate(0) translate(4 492.5)">
<polygon fill="white" stroke="none" points="-4,4 -4,-492.5 1388.38,-492.5 1388.38,4 -4,4"/>
<!-- ArraySchema -->
<g id="node1" class="node">
<title>ArraySchema</title>
<polygon fill="#8ccbf2" stroke="none" points="8,-429.75 8,-450.75 182,-450.75 182,-429.75 8,-429.75"/>
<polygon fill="none" stroke="#8ccbf2" points="8,-429.75 8,-450.75 182,-450.75 182,-429.75 8,-429.75"/>
<text text-anchor="start" x="49.62" y="-435.45" font-family="Monospace" font-weight="bold" font-size="14.00" fill="#c83500">ArraySchema</text>
<polygon fill="#ddeeff" stroke="none" points="8,-407.25 8,-429.75 182,-429.75 182,-407.25 8,-407.25"/>
<polygon fill="none" stroke="#8ccbf2" points="8,-407.25 8,-429.75 182,-429.75 182,-407.25 8,-407.25"/>
<text text-anchor="start" x="11" y="-414.45" font-family="Monospace" font-size="14.00" fill="#c83500">minItems</text>
<text text-anchor="start" x="77" y="-414.45" font-family="Times,serif" font-size="14.00"> : </text>
<text text-anchor="start" x="88.25" y="-414.45" font-family="Monospace" font-size="14.00" fill="#c83500">unsignedInt</text>
<polygon fill="#ddeeff" stroke="none" points="8,-384.75 8,-407.25 182,-407.25 182,-384.75 8,-384.75"/>
<polygon fill="none" stroke="#8ccbf2" points="8,-384.75 8,-407.25 182,-407.25 182,-384.75 8,-384.75"/>
<text text-anchor="start" x="11" y="-391.95" font-family="Monospace" font-size="14.00" fill="#c83500">maxItems</text>
<text text-anchor="start" x="77" y="-391.95" font-family="Times,serif" font-size="14.00"> : </text>
<text text-anchor="start" x="88.25" y="-391.95" font-family="Monospace" font-size="14.00" fill="#c83500">unsignedInt</text>
</g>
<!-- DataSchema -->
<g id="node3" class="node">
<title>DataSchema</title>
<polygon fill="#8ccbf2" stroke="none" points="553.75,-271 553.75,-292 744.25,-292 744.25,-271 553.75,-271"/>
<polygon fill="none" stroke="#8ccbf2" points="553.75,-271 553.75,-292 744.25,-292 744.25,-271 553.75,-271"/>
<text text-anchor="start" x="607.75" y="-276.7" font-family="Monospace" font-weight="bold" font-size="14.00" fill="#c83500">DataSchema</text>
<polygon fill="#ddeeff" stroke="none" points="553.75,-248.5 553.75,-271 744.25,-271 744.25,-248.5 553.75,-248.5"/>
<polygon fill="none" stroke="#8ccbf2" points="553.75,-248.5 553.75,-271 744.25,-271 744.25,-248.5 553.75,-248.5"/>
<text text-anchor="start" x="556.75" y="-255.7" font-family="Monospace" font-size="14.00" fill="#c83500">@type</text>
<text text-anchor="start" x="598" y="-255.7" font-family="Times,serif" font-size="14.00"> : </text>
<text text-anchor="start" x="609.25" y="-255.7" font-family="Times,serif" font-style="italic" font-size="14.00">(Array of) </text>
<text text-anchor="start" x="667.75" y="-255.7" font-family="Monospace" font-size="14.00" fill="#c83500">string</text>
<polygon fill="#ddeeff" stroke="none" points="553.75,-226 553.75,-248.5 744.25,-248.5 744.25,-226 553.75,-226"/>
<polygon fill="none" stroke="#8ccbf2" points="553.75,-226 553.75,-248.5 744.25,-248.5 744.25,-226 553.75,-226"/>
<text text-anchor="start" x="556.75" y="-233.2" font-family="Monospace" font-size="14.00" fill="#c83500">type</text>
<text text-anchor="start" x="589.75" y="-233.2" font-family="Times,serif" font-size="14.00"> : </text>
<text text-anchor="start" x="601" y="-233.2" font-family="Monospace" font-size="14.00" fill="#c83500">string</text>
<polygon fill="#ddeeff" stroke="none" points="553.75,-203.5 553.75,-226 744.25,-226 744.25,-203.5 553.75,-203.5"/>
<polygon fill="none" stroke="#8ccbf2" points="553.75,-203.5 553.75,-226 744.25,-226 744.25,-203.5 553.75,-203.5"/>
<text text-anchor="start" x="556.75" y="-210.7" font-family="Monospace" font-size="14.00" fill="#c83500">title</text>
<text text-anchor="start" x="598" y="-210.7" font-family="Times,serif" font-size="14.00"> : </text>
<text text-anchor="start" x="609.25" y="-210.7" font-family="Monospace" font-size="14.00" fill="#c83500">langString</text>
<polygon fill="#ddeeff" stroke="none" points="553.75,-181 553.75,-203.5 744.25,-203.5 744.25,-181 553.75,-181"/>
<polygon fill="none" stroke="#8ccbf2" points="553.75,-181 553.75,-203.5 744.25,-203.5 744.25,-181 553.75,-181"/>
<text text-anchor="start" x="556.75" y="-188.2" font-family="Monospace" font-size="14.00" fill="#c83500">unit</text>
<text text-anchor="start" x="589.75" y="-188.2" font-family="Times,serif" font-size="14.00"> : </text>
<text text-anchor="start" x="601" y="-188.2" font-family="Monospace" font-size="14.00" fill="#c83500">string</text>
<polygon fill="#ddeeff" stroke="none" points="553.75,-158.5 553.75,-181 744.25,-181 744.25,-158.5 553.75,-158.5"/>
<polygon fill="none" stroke="#8ccbf2" points="553.75,-158.5 553.75,-181 744.25,-181 744.25,-158.5 553.75,-158.5"/>
<text text-anchor="start" x="556.75" y="-165.7" font-family="Monospace" font-size="14.00" fill="#c83500">readOnly</text>
<text text-anchor="start" x="622.75" y="-165.7" font-family="Times,serif" font-size="14.00"> : </text>
<text text-anchor="start" x="634" y="-165.7" font-family="Monospace" font-size="14.00" fill="#c83500">boolean</text>
<polygon fill="#ddeeff" stroke="none" points="553.75,-136 553.75,-158.5 744.25,-158.5 744.25,-136 553.75,-136"/>
<polygon fill="none" stroke="#8ccbf2" points="553.75,-136 553.75,-158.5 744.25,-158.5 744.25,-136 553.75,-136"/>
<text text-anchor="start" x="556.75" y="-143.2" font-family="Monospace" font-size="14.00" fill="#c83500">writeOnly</text>
<text text-anchor="start" x="631" y="-143.2" font-family="Times,serif" font-size="14.00"> : </text>
<text text-anchor="start" x="642.25" y="-143.2" font-family="Monospace" font-size="14.00" fill="#c83500">boolean</text>
<polygon fill="#ddeeff" stroke="none" points="553.75,-113.5 553.75,-136 744.25,-136 744.25,-113.5 553.75,-113.5"/>
<polygon fill="none" stroke="#8ccbf2" points="553.75,-113.5 553.75,-136 744.25,-136 744.25,-113.5 553.75,-113.5"/>
<text text-anchor="start" x="556.75" y="-120.7" font-family="Monospace" font-size="14.00" fill="#c83500">format</text>
<text text-anchor="start" x="606.25" y="-120.7" font-family="Times,serif" font-size="14.00"> : </text>
<text text-anchor="start" x="617.5" y="-120.7" font-family="Monospace" font-size="14.00" fill="#c83500">string</text>
<polygon fill="#ddeeff" stroke="none" points="553.75,-91 553.75,-113.5 744.25,-113.5 744.25,-91 553.75,-91"/>
<polygon fill="none" stroke="#8ccbf2" points="553.75,-91 553.75,-113.5 744.25,-113.5 744.25,-91 553.75,-91"/>
<text text-anchor="start" x="556.75" y="-98.2" font-family="Monospace" font-size="14.00" fill="#c83500">description</text>
<text text-anchor="start" x="647.5" y="-98.2" font-family="Times,serif" font-size="14.00"> : </text>
<text text-anchor="start" x="658.75" y="-98.2" font-family="Monospace" font-size="14.00" fill="#c83500">langString</text>
</g>
<!-- ArraySchema&#45;&gt;DataSchema -->
<g id="edge4" class="edge">
<title>ArraySchema&#45;&gt;DataSchema</title>
<path fill="none" stroke="black" d="M112.43,-380.77C125.08,-358.35 144.25,-330.69 168.75,-314 278.71,-239.09 431.15,-210.35 534.57,-199.33"/>
<polygon fill="black" stroke="black" points="534.89,-202.82 544.49,-198.32 534.18,-195.85 534.89,-202.82"/>
<text text-anchor="start" x="169" y="-315.7" font-family="Monospace" font-size="14.00" fill="#c83500">items</text>
<text text-anchor="middle" x="535.49" y="-201.36" font-family="Times,serif" font-size="14.00">0..*</text>
</g>
<!-- ArraySchema&#45;&gt;DataSchema -->
<g id="edge6" class="edge">
<title>ArraySchema&#45;&gt;DataSchema</title>
<path fill="none" stroke="black" d="M142.88,-380.84C160,-369.04 179.82,-356.52 199,-347 308.6,-292.6 442.04,-249.42 535.03,-222.7"/>
<polygon fill="white" stroke="black" points="535.77,-226.13 544.42,-220.02 533.85,-219.39 535.77,-226.13"/>
</g>
<!-- BooleanSchema -->
<g id="node2" class="node">
<title>BooleanSchema</title>
<polygon fill="#8ccbf2" stroke="none" points="216.38,-407.25 216.38,-428.25 329.62,-428.25 329.62,-407.25 216.38,-407.25"/>
<polygon fill="none" stroke="#8ccbf2" points="216.38,-407.25 216.38,-428.25 329.62,-428.25 329.62,-407.25 216.38,-407.25"/>
<text text-anchor="start" x="219.38" y="-412.95" font-family="Monospace" font-weight="bold" font-size="14.00" fill="#c83500">BooleanSchema</text>
</g>
<!-- BooleanSchema&#45;&gt;DataSchema -->
<g id="edge7" class="edge">
<title>BooleanSchema&#45;&gt;DataSchema</title>
<path fill="none" stroke="black" d="M288.05,-399.79C302.04,-384.69 323.98,-362.62 346,-347 404.95,-305.17 476.81,-268.02 535.75,-240.63"/>
<polygon fill="white" stroke="black" points="536.86,-243.98 544.47,-236.61 533.93,-237.62 536.86,-243.98"/>
</g>
<!-- DataSchema&#45;&gt;DataSchema -->
<g id="edge1" class="edge">
<title>DataSchema&#45;&gt;DataSchema</title>
<path fill="none" stroke="black" d="M752.05,-211.85C763.13,-207.93 770.25,-201.15 770.25,-191.5 770.25,-185.17 767.18,-180.07 761.94,-176.21"/>
<polygon fill="black" stroke="black" points="763.89,-173.27 753.4,-171.84 760.71,-179.51 763.89,-173.27"/>
<text text-anchor="start" x="770.25" y="-185.7" font-family="Monospace" font-size="14.00" fill="#c83500">oneOf</text>
<text text-anchor="middle" x="762.55" y="-157.85" font-family="Times,serif" font-size="14.00">0..*</text>
</g>
<!-- MultiLanguage -->
<g id="node9" class="node">
<title>MultiLanguage</title>
<polygon fill="#f2f2f2" stroke="none" points="592.38,-7.5 592.38,-28.5 705.62,-28.5 705.62,-7.5 592.38,-7.5"/>
<polygon fill="none" stroke="#8c8c8c" points="592.38,-7.5 592.38,-28.5 705.62,-28.5 705.62,-7.5 592.38,-7.5"/>
<text text-anchor="start" x="595.38" y="-13.2" font-family="Monospace" font-weight="bold" font-size="14.00">MultiLanguage</text>
</g>
<!-- DataSchema&#45;&gt;MultiLanguage -->
<g id="edge2" class="edge">
<title>DataSchema&#45;&gt;MultiLanguage</title>
<path fill="none" stroke="black" d="M608.84,-87C608.58,-75.72 610.19,-64.52 614.5,-54 615.89,-50.61 617.79,-47.36 619.98,-44.32"/>
<polygon fill="black" stroke="black" points="622.43,-46.85 626.26,-36.97 617.11,-42.3 622.43,-46.85"/>
<text text-anchor="start" x="615" y="-55.7" font-family="Monospace" font-size="14.00" fill="#c83500">titles</text>
<text text-anchor="middle" x="616.75" y="-39.02" font-family="Times,serif" font-size="14.00">0..*</text>
</g>
<!-- DataSchema&#45;&gt;MultiLanguage -->
<g id="edge3" class="edge">
<title>DataSchema&#45;&gt;MultiLanguage</title>
<path fill="none" stroke="black" d="M667.17,-87.32C667.13,-76.03 666.21,-64.74 664,-54 663.49,-51.53 662.8,-49.01 662,-46.53"/>
<polygon fill="black" stroke="black" points="665.34,-45.47 658.46,-37.41 658.81,-48 665.34,-45.47"/>
<text text-anchor="start" x="667" y="-55.7" font-family="Monospace" font-size="14.00" fill="#c83500">descriptions</text>
<text text-anchor="middle" x="647.42" y="-39.2" font-family="Times,serif" font-size="14.00">0..*</text>
</g>
<!-- IntegerSchema -->
<g id="node4" class="node">
<title>IntegerSchema</title>
<polygon fill="#8ccbf2" stroke="none" points="363.5,-463.5 363.5,-484.5 570.5,-484.5 570.5,-463.5 363.5,-463.5"/>
<polygon fill="none" stroke="#8ccbf2" points="363.5,-463.5 363.5,-484.5 570.5,-484.5 570.5,-463.5 363.5,-463.5"/>
<text text-anchor="start" x="413.38" y="-469.2" font-family="Monospace" font-weight="bold" font-size="14.00" fill="#c83500">IntegerSchema</text>
<polygon fill="#ddeeff" stroke="none" points="363.5,-441 363.5,-463.5 570.5,-463.5 570.5,-441 363.5,-441"/>
<polygon fill="none" stroke="#8ccbf2" points="363.5,-441 363.5,-463.5 570.5,-463.5 570.5,-441 363.5,-441"/>
<text text-anchor="start" x="366.5" y="-448.2" font-family="Monospace" font-size="14.00" fill="#c83500">minimum</text>
<text text-anchor="start" x="424.25" y="-448.2" font-family="Times,serif" font-size="14.00"> : </text>
<text text-anchor="start" x="435.5" y="-448.2" font-family="Monospace" font-size="14.00" fill="#c83500">integer</text>
<polygon fill="#ddeeff" stroke="none" points="363.5,-418.5 363.5,-441 570.5,-441 570.5,-418.5 363.5,-418.5"/>
<polygon fill="none" stroke="#8ccbf2" points="363.5,-418.5 363.5,-441 570.5,-441 570.5,-418.5 363.5,-418.5"/>
<text text-anchor="start" x="366.5" y="-425.7" font-family="Monospace" font-size="14.00" fill="#c83500">exclusiveMinimum</text>
<text text-anchor="start" x="498.5" y="-425.7" font-family="Times,serif" font-size="14.00"> : </text>
<text text-anchor="start" x="509.75" y="-425.7" font-family="Monospace" font-size="14.00" fill="#c83500">integer</text>
<polygon fill="#ddeeff" stroke="none" points="363.5,-396 363.5,-418.5 570.5,-418.5 570.5,-396 363.5,-396"/>
<polygon fill="none" stroke="#8ccbf2" points="363.5,-396 363.5,-418.5 570.5,-418.5 570.5,-396 363.5,-396"/>
<text text-anchor="start" x="366.5" y="-403.2" font-family="Monospace" font-size="14.00" fill="#c83500">maximum</text>
<text text-anchor="start" x="424.25" y="-403.2" font-family="Times,serif" font-size="14.00"> : </text>
<text text-anchor="start" x="435.5" y="-403.2" font-family="Monospace" font-size="14.00" fill="#c83500">integer</text>
<polygon fill="#ddeeff" stroke="none" points="363.5,-373.5 363.5,-396 570.5,-396 570.5,-373.5 363.5,-373.5"/>
<polygon fill="none" stroke="#8ccbf2" points="363.5,-373.5 363.5,-396 570.5,-396 570.5,-373.5 363.5,-373.5"/>
<text text-anchor="start" x="366.5" y="-380.7" font-family="Monospace" font-size="14.00" fill="#c83500">exclusiveMaximum</text>
<text text-anchor="start" x="498.5" y="-380.7" font-family="Times,serif" font-size="14.00"> : </text>
<text text-anchor="start" x="509.75" y="-380.7" font-family="Monospace" font-size="14.00" fill="#c83500">integer</text>
<polygon fill="#ddeeff" stroke="none" points="363.5,-351 363.5,-373.5 570.5,-373.5 570.5,-351 363.5,-351"/>
<polygon fill="none" stroke="#8ccbf2" points="363.5,-351 363.5,-373.5 570.5,-373.5 570.5,-351 363.5,-351"/>
<text text-anchor="start" x="366.5" y="-358.2" font-family="Monospace" font-size="14.00" fill="#c83500">multipleOf</text>
<text text-anchor="start" x="449" y="-358.2" font-family="Times,serif" font-size="14.00"> : </text>
<text text-anchor="start" x="460.25" y="-358.2" font-family="Monospace" font-size="14.00" fill="#c83500">integer</text>
</g>
<!-- IntegerSchema&#45;&gt;DataSchema -->
<g id="edge8" class="edge">
<title>IntegerSchema&#45;&gt;DataSchema</title>
<path fill="none" stroke="black" d="M523.59,-347.03C534.58,-333.48 546.36,-318.97 558.13,-304.47"/>
<polygon fill="white" stroke="black" points="560.52,-307.08 564.1,-297.11 555.08,-302.67 560.52,-307.08"/>
</g>
<!-- NullSchema -->
<g id="node5" class="node">
<title>NullSchema</title>
<polygon fill="#8ccbf2" stroke="none" points="604.75,-407.25 604.75,-428.25 693.25,-428.25 693.25,-407.25 604.75,-407.25"/>
<polygon fill="none" stroke="#8ccbf2" points="604.75,-407.25 604.75,-428.25 693.25,-428.25 693.25,-407.25 604.75,-407.25"/>
<text text-anchor="start" x="607.75" y="-412.95" font-family="Monospace" font-weight="bold" font-size="14.00" fill="#c83500">NullSchema</text>
</g>
<!-- NullSchema&#45;&gt;DataSchema -->
<g id="edge9" class="edge">
<title>NullSchema&#45;&gt;DataSchema</title>
<path fill="none" stroke="black" d="M649,-399.89C649,-379.54 649,-343.48 649,-307.08"/>
<polygon fill="white" stroke="black" points="652.5,-307.3 649,-297.3 645.5,-307.3 652.5,-307.3"/>
</g>
<!-- NumberSchema -->
<g id="node6" class="node">
<title>NumberSchema</title>
<polygon fill="#8ccbf2" stroke="none" points="727.62,-463.5 727.62,-484.5 926.38,-484.5 926.38,-463.5 727.62,-463.5"/>
<polygon fill="none" stroke="#8ccbf2" points="727.62,-463.5 727.62,-484.5 926.38,-484.5 926.38,-463.5 727.62,-463.5"/>
<text text-anchor="start" x="777.5" y="-469.2" font-family="Monospace" font-weight="bold" font-size="14.00" fill="#c83500">NumberSchema</text>
<polygon fill="#ddeeff" stroke="none" points="727.62,-441 727.62,-463.5 926.38,-463.5 926.38,-441 727.62,-441"/>
<polygon fill="none" stroke="#8ccbf2" points="727.62,-441 727.62,-463.5 926.38,-463.5 926.38,-441 727.62,-441"/>
<text text-anchor="start" x="730.62" y="-448.2" font-family="Monospace" font-size="14.00" fill="#c83500">minimum</text>
<text text-anchor="start" x="788.38" y="-448.2" font-family="Times,serif" font-size="14.00"> : </text>
<text text-anchor="start" x="799.62" y="-448.2" font-family="Monospace" font-size="14.00" fill="#c83500">double</text>
<polygon fill="#ddeeff" stroke="none" points="727.62,-418.5 727.62,-441 926.38,-441 926.38,-418.5 727.62,-418.5"/>
<polygon fill="none" stroke="#8ccbf2" points="727.62,-418.5 727.62,-441 926.38,-441 926.38,-418.5 727.62,-418.5"/>
<text text-anchor="start" x="730.62" y="-425.7" font-family="Monospace" font-size="14.00" fill="#c83500">exclusiveMinimum</text>
<text text-anchor="start" x="862.62" y="-425.7" font-family="Times,serif" font-size="14.00"> : </text>
<text text-anchor="start" x="873.88" y="-425.7" font-family="Monospace" font-size="14.00" fill="#c83500">double</text>
<polygon fill="#ddeeff" stroke="none" points="727.62,-396 727.62,-418.5 926.38,-418.5 926.38,-396 727.62,-396"/>
<polygon fill="none" stroke="#8ccbf2" points="727.62,-396 727.62,-418.5 926.38,-418.5 926.38,-396 727.62,-396"/>
<text text-anchor="start" x="730.62" y="-403.2" font-family="Monospace" font-size="14.00" fill="#c83500">maximum</text>
<text text-anchor="start" x="788.38" y="-403.2" font-family="Times,serif" font-size="14.00"> : </text>
<text text-anchor="start" x="799.62" y="-403.2" font-family="Monospace" font-size="14.00" fill="#c83500">double</text>
<polygon fill="#ddeeff" stroke="none" points="727.62,-373.5 727.62,-396 926.38,-396 926.38,-373.5 727.62,-373.5"/>
<polygon fill="none" stroke="#8ccbf2" points="727.62,-373.5 727.62,-396 926.38,-396 926.38,-373.5 727.62,-373.5"/>
<text text-anchor="start" x="730.62" y="-380.7" font-family="Monospace" font-size="14.00" fill="#c83500">exclusiveMaximum</text>
<text text-anchor="start" x="862.62" y="-380.7" font-family="Times,serif" font-size="14.00"> : </text>
<text text-anchor="start" x="873.88" y="-380.7" font-family="Monospace" font-size="14.00" fill="#c83500">double</text>
<polygon fill="#ddeeff" stroke="none" points="727.62,-351 727.62,-373.5 926.38,-373.5 926.38,-351 727.62,-351"/>
<polygon fill="none" stroke="#8ccbf2" points="727.62,-351 727.62,-373.5 926.38,-373.5 926.38,-351 727.62,-351"/>
<text text-anchor="start" x="730.62" y="-358.2" font-family="Monospace" font-size="14.00" fill="#c83500">multipleOf</text>
<text text-anchor="start" x="813.12" y="-358.2" font-family="Times,serif" font-size="14.00"> : </text>
<text text-anchor="start" x="824.38" y="-358.2" font-family="Monospace" font-size="14.00" fill="#c83500">double</text>
</g>
<!-- NumberSchema&#45;&gt;DataSchema -->
<g id="edge10" class="edge">
<title>NumberSchema&#45;&gt;DataSchema</title>
<path fill="none" stroke="black" d="M771.66,-347.03C761.01,-333.61 749.6,-319.24 738.2,-304.87"/>
<polygon fill="white" stroke="black" points="741,-302.77 732.04,-297.12 735.52,-307.13 741,-302.77"/>
</g>
<!-- ObjectSchema -->
<g id="node7" class="node">
<title>ObjectSchema</title>
<polygon fill="#8ccbf2" stroke="none" points="960.88,-418.5 960.88,-439.5 1143.12,-439.5 1143.12,-418.5 960.88,-418.5"/>
<polygon fill="none" stroke="#8ccbf2" points="960.88,-418.5 960.88,-439.5 1143.12,-439.5 1143.12,-418.5 960.88,-418.5"/>
<text text-anchor="start" x="1002.5" y="-424.2" font-family="Monospace" font-weight="bold" font-size="14.00" fill="#c83500">ObjectSchema</text>
<polygon fill="#ddeeff" stroke="none" points="960.88,-396 960.88,-418.5 1143.12,-418.5 1143.12,-396 960.88,-396"/>
<polygon fill="none" stroke="#8ccbf2" points="960.88,-396 960.88,-418.5 1143.12,-418.5 1143.12,-396 960.88,-396"/>
<text text-anchor="start" x="963.88" y="-403.2" font-family="Monospace" font-size="14.00" fill="#c83500">required</text>
<text text-anchor="start" x="1029.88" y="-403.2" font-family="Times,serif" font-size="14.00"> : Array of </text>
<text text-anchor="start" x="1090.62" y="-403.2" font-family="Monospace" font-size="14.00" fill="#c83500">string</text>
</g>
<!-- ObjectSchema&#45;&gt;DataSchema -->
<g id="edge5" class="edge">
<title>ObjectSchema&#45;&gt;DataSchema</title>
<path fill="none" stroke="black" d="M1015.17,-392.04C994.28,-378.31 967.49,-361.19 943,-347 928.03,-338.33 923.82,-337.03 908.5,-329 860.6,-303.91 807.78,-276.14 762.36,-252.24"/>
<polygon fill="black" stroke="black" points="764.01,-249.15 753.53,-247.59 760.75,-255.34 764.01,-249.15"/>
<text text-anchor="start" x="909" y="-315.7" font-family="Monospace" font-size="14.00" fill="#c83500">properties</text>
<text text-anchor="middle" x="762.69" y="-250.08" font-family="Times,serif" font-size="14.00">0..*</text>
</g>
<!-- ObjectSchema&#45;&gt;DataSchema -->
<g id="edge11" class="edge">
<title>ObjectSchema&#45;&gt;DataSchema</title>
<path fill="none" stroke="black" d="M1043.16,-392.26C1033.62,-369.08 1016.32,-334.82 991,-314 925.61,-260.23 834.66,-229.43 762.99,-212.31"/>
<polygon fill="white" stroke="black" points="764.11,-208.98 753.58,-210.12 762.53,-215.79 764.11,-208.98"/>
</g>
<!-- StringSchema -->
<g id="node8" class="node">
<title>StringSchema</title>
<polygon fill="#8ccbf2" stroke="none" points="1177.62,-463.5 1177.62,-484.5 1376.38,-484.5 1376.38,-463.5 1177.62,-463.5"/>
<polygon fill="none" stroke="#8ccbf2" points="1177.62,-463.5 1177.62,-484.5 1376.38,-484.5 1376.38,-463.5 1177.62,-463.5"/>
<text text-anchor="start" x="1227.5" y="-469.2" font-family="Monospace" font-weight="bold" font-size="14.00" fill="#c83500">StringSchema</text>
<polygon fill="#ddeeff" stroke="none" points="1177.62,-441 1177.62,-463.5 1376.38,-463.5 1376.38,-441 1177.62,-441"/>
<polygon fill="none" stroke="#8ccbf2" points="1177.62,-441 1177.62,-463.5 1376.38,-463.5 1376.38,-441 1177.62,-441"/>
<text text-anchor="start" x="1180.62" y="-448.2" font-family="Monospace" font-size="14.00" fill="#c83500">minLength</text>
<text text-anchor="start" x="1254.88" y="-448.2" font-family="Times,serif" font-size="14.00"> : </text>
<text text-anchor="start" x="1266.12" y="-448.2" font-family="Monospace" font-size="14.00" fill="#c83500">unsignedInt</text>
<polygon fill="#ddeeff" stroke="none" points="1177.62,-418.5 1177.62,-441 1376.38,-441 1376.38,-418.5 1177.62,-418.5"/>
<polygon fill="none" stroke="#8ccbf2" points="1177.62,-418.5 1177.62,-441 1376.38,-441 1376.38,-418.5 1177.62,-418.5"/>
<text text-anchor="start" x="1180.62" y="-425.7" font-family="Monospace" font-size="14.00" fill="#c83500">maxLength</text>
<text text-anchor="start" x="1254.88" y="-425.7" font-family="Times,serif" font-size="14.00"> : </text>
<text text-anchor="start" x="1266.12" y="-425.7" font-family="Monospace" font-size="14.00" fill="#c83500">unsignedInt</text>
<polygon fill="#ddeeff" stroke="none" points="1177.62,-396 1177.62,-418.5 1376.38,-418.5 1376.38,-396 1177.62,-396"/>
<polygon fill="none" stroke="#8ccbf2" points="1177.62,-396 1177.62,-418.5 1376.38,-418.5 1376.38,-396 1177.62,-396"/>
<text text-anchor="start" x="1180.62" y="-403.2" font-family="Monospace" font-size="14.00" fill="#c83500">pattern</text>
<text text-anchor="start" x="1238.38" y="-403.2" font-family="Times,serif" font-size="14.00"> : </text>
<text text-anchor="start" x="1249.62" y="-403.2" font-family="Monospace" font-size="14.00" fill="#c83500">string</text>
<polygon fill="#ddeeff" stroke="none" points="1177.62,-373.5 1177.62,-396 1376.38,-396 1376.38,-373.5 1177.62,-373.5"/>
<polygon fill="none" stroke="#8ccbf2" points="1177.62,-373.5 1177.62,-396 1376.38,-396 1376.38,-373.5 1177.62,-373.5"/>
<text text-anchor="start" x="1180.62" y="-380.7" font-family="Monospace" font-size="14.00" fill="#c83500">contentEncoding</text>
<text text-anchor="start" x="1304.38" y="-380.7" font-family="Times,serif" font-size="14.00"> : </text>
<text text-anchor="start" x="1315.62" y="-380.7" font-family="Monospace" font-size="14.00" fill="#c83500">string</text>
<polygon fill="#ddeeff" stroke="none" points="1177.62,-351 1177.62,-373.5 1376.38,-373.5 1376.38,-351 1177.62,-351"/>
<polygon fill="none" stroke="#8ccbf2" points="1177.62,-351 1177.62,-373.5 1376.38,-373.5 1376.38,-351 1177.62,-351"/>
<text text-anchor="start" x="1180.62" y="-358.2" font-family="Monospace" font-size="14.00" fill="#c83500">contentMediaType</text>
<text text-anchor="start" x="1312.62" y="-358.2" font-family="Times,serif" font-size="14.00"> : </text>
<text text-anchor="start" x="1323.88" y="-358.2" font-family="Monospace" font-size="14.00" fill="#c83500">string</text>
</g>
<!-- StringSchema&#45;&gt;DataSchema -->
<g id="edge12" class="edge">
<title>StringSchema&#45;&gt;DataSchema</title>
<path fill="none" stroke="black" d="M1169.79,-351.5C1166.51,-349.94 1163.25,-348.43 1160,-347 1028.36,-288.9 868.44,-244.45 762.96,-218.46"/>
<polygon fill="white" stroke="black" points="763.99,-215.11 753.44,-216.13 762.33,-221.9 763.99,-215.11"/>
</g>
</g>
</svg>
