<?xml version="1.0" encoding="UTF-8" standalone="no"?>
<!DOCTYPE svg PUBLIC "-//W3C//DTD SVG 1.1//EN"
 "http://www.w3.org/Graphics/SVG/1.1/DTD/svg11.dtd">
<!-- Generated by graphviz version 9.0.0 (20230911.1827)
 -->
<!-- Pages: 1 -->
<svg width="1819pt" height="370pt"
 viewBox="0.00 0.00 1818.62 370.00" xmlns="http://www.w3.org/2000/svg" xmlns:xlink="http://www.w3.org/1999/xlink">
<g id="graph0" class="graph" transform="scale(1 1) rotate(0) translate(4 366)">
<polygon fill="white" stroke="none" points="-4,4 -4,-366 1814.62,-366 1814.62,4 -4,4"/>
<!-- APIKeySecurityScheme -->
<g id="node1" class="node">
<title>APIKeySecurityScheme</title>
<polygon fill="#8ccbf2" stroke="none" points="8,-303.25 8,-324.25 179,-324.25 179,-303.25 8,-303.25"/>
<polygon fill="none" stroke="#8ccbf2" points="8,-303.25 8,-324.25 179,-324.25 179,-303.25 8,-303.25"/>
<text text-anchor="start" x="11" y="-308.95" font-family="Monospace" font-weight="bold" font-size="14.00" fill="#c83500">APIKeySecurityScheme</text>
<polygon fill="#ddeeff" stroke="none" points="8,-280.75 8,-303.25 179,-303.25 179,-280.75 8,-280.75"/>
<polygon fill="none" stroke="#8ccbf2" points="8,-280.75 8,-303.25 179,-303.25 179,-280.75 8,-280.75"/>
<text text-anchor="start" x="11" y="-287.95" font-family="Monospace" font-size="14.00" fill="#c83500">name</text>
<text text-anchor="start" x="44" y="-287.95" font-family="Times,serif" font-size="14.00"> : </text>
<text text-anchor="start" x="55.25" y="-287.95" font-family="Monospace" font-size="14.00" fill="#c83500">string</text>
<polygon fill="#ddeeff" stroke="none" points="8,-258.25 8,-280.75 179,-280.75 179,-258.25 8,-258.25"/>
<polygon fill="none" stroke="#8ccbf2" points="8,-258.25 8,-280.75 179,-280.75 179,-258.25 8,-258.25"/>
<text text-anchor="start" x="11" y="-265.45" font-family="Monospace" font-size="14.00" fill="#c83500">in</text>
<text text-anchor="start" x="27.5" y="-265.45" font-family="Times,serif" font-size="14.00"> : </text>
<text text-anchor="start" x="38.75" y="-265.45" font-family="Monospace" font-size="14.00" fill="#c83500">string</text>
</g>
<!-- SecurityScheme -->
<g id="node10" class="node">
<title>SecurityScheme</title>
<polygon fill="#8ccbf2" stroke="none" points="825.25,-158.5 825.25,-179.5 1015.75,-179.5 1015.75,-158.5 825.25,-158.5"/>
<polygon fill="none" stroke="#8ccbf2" points="825.25,-158.5 825.25,-179.5 1015.75,-179.5 1015.75,-158.5 825.25,-158.5"/>
<text text-anchor="start" x="862.75" y="-164.2" font-family="Monospace" font-weight="bold" font-size="14.00" fill="#c83500">SecurityScheme</text>
<polygon fill="#ddeeff" stroke="none" points="825.25,-136 825.25,-158.5 1015.75,-158.5 1015.75,-136 825.25,-136"/>
<polygon fill="none" stroke="#8ccbf2" points="825.25,-136 825.25,-158.5 1015.75,-158.5 1015.75,-136 825.25,-136"/>
<text text-anchor="start" x="828.25" y="-143.2" font-family="Monospace" font-size="14.00" fill="#c83500">@type</text>
<text text-anchor="start" x="869.5" y="-143.2" font-family="Times,serif" font-size="14.00"> : </text>
<text text-anchor="start" x="880.75" y="-143.2" font-family="Times,serif" font-style="italic" font-size="14.00">(Array of) </text>
<text text-anchor="start" x="939.25" y="-143.2" font-family="Monospace" font-size="14.00" fill="#c83500">string</text>
<polygon fill="#ddeeff" stroke="none" points="825.25,-113.5 825.25,-136 1015.75,-136 1015.75,-113.5 825.25,-113.5"/>
<polygon fill="none" stroke="#8ccbf2" points="825.25,-113.5 825.25,-136 1015.75,-136 1015.75,-113.5 825.25,-113.5"/>
<text text-anchor="start" x="828.25" y="-120.7" font-family="Monospace" font-size="14.00" fill="#c83500">description</text>
<text text-anchor="start" x="919" y="-120.7" font-family="Times,serif" font-size="14.00"> : </text>
<text text-anchor="start" x="930.25" y="-120.7" font-family="Monospace" font-size="14.00" fill="#c83500">langString</text>
<polygon fill="#ddeeff" stroke="none" points="825.25,-91 825.25,-113.5 1015.75,-113.5 1015.75,-91 825.25,-91"/>
<polygon fill="none" stroke="#8ccbf2" points="825.25,-91 825.25,-113.5 1015.75,-113.5 1015.75,-91 825.25,-91"/>
<text text-anchor="start" x="828.25" y="-98.2" font-family="Monospace" font-size="14.00" fill="#c83500">proxy</text>
<text text-anchor="start" x="869.5" y="-98.2" font-family="Times,serif" font-size="14.00"> : </text>
<text text-anchor="start" x="880.75" y="-98.2" font-family="Monospace" font-size="14.00" fill="#c83500">anyURI</text>
</g>
<!-- APIKeySecurityScheme&#45;&gt;SecurityScheme -->
<g id="edge2" class="edge">
<title>APIKeySecurityScheme&#45;&gt;SecurityScheme</title>
<path fill="none" stroke="black" d="M136.54,-254.32C154.09,-241.55 175.24,-228.39 196.5,-220.5 305.47,-180.04 630.9,-154.26 805.99,-142.93"/>
<polygon fill="white" stroke="black" points="806.04,-146.43 815.8,-142.3 805.59,-139.45 806.04,-146.43"/>
</g>
<!-- AutoSecurityScheme -->
<g id="node2" class="node">
<title>AutoSecurityScheme</title>
<polygon fill="#8ccbf2" stroke="none" points="213.25,-280.75 213.25,-301.75 367.75,-301.75 367.75,-280.75 213.25,-280.75"/>
<polygon fill="none" stroke="#8ccbf2" points="213.25,-280.75 213.25,-301.75 367.75,-301.75 367.75,-280.75 213.25,-280.75"/>
<text text-anchor="start" x="216.25" y="-286.45" font-family="Monospace" font-weight="bold" font-size="14.00" fill="#c83500">AutoSecurityScheme</text>
</g>
<!-- AutoSecurityScheme&#45;&gt;SecurityScheme -->
<g id="edge3" class="edge">
<title>AutoSecurityScheme&#45;&gt;SecurityScheme</title>
<path fill="none" stroke="black" d="M307.81,-273.49C325.73,-257.19 355.28,-233.09 385.5,-220.5 522.8,-163.3 694.7,-144.62 806.02,-138.7"/>
<polygon fill="white" stroke="black" points="805.94,-142.2 815.76,-138.21 805.59,-135.21 805.94,-142.2"/>
</g>
<!-- BasicSecurityScheme -->
<g id="node3" class="node">
<title>BasicSecurityScheme</title>
<polygon fill="#8ccbf2" stroke="none" points="402.12,-303.25 402.12,-324.25 564.88,-324.25 564.88,-303.25 402.12,-303.25"/>
<polygon fill="none" stroke="#8ccbf2" points="402.12,-303.25 402.12,-324.25 564.88,-324.25 564.88,-303.25 402.12,-303.25"/>
<text text-anchor="start" x="405.12" y="-308.95" font-family="Monospace" font-weight="bold" font-size="14.00" fill="#c83500">BasicSecurityScheme</text>
<polygon fill="#ddeeff" stroke="none" points="402.12,-280.75 402.12,-303.25 564.88,-303.25 564.88,-280.75 402.12,-280.75"/>
<polygon fill="none" stroke="#8ccbf2" points="402.12,-280.75 402.12,-303.25 564.88,-303.25 564.88,-280.75 402.12,-280.75"/>
<text text-anchor="start" x="405.12" y="-287.95" font-family="Monospace" font-size="14.00" fill="#c83500">name</text>
<text text-anchor="start" x="438.12" y="-287.95" font-family="Times,serif" font-size="14.00"> : </text>
<text text-anchor="start" x="449.38" y="-287.95" font-family="Monospace" font-size="14.00" fill="#c83500">string</text>
<polygon fill="#ddeeff" stroke="none" points="402.12,-258.25 402.12,-280.75 564.88,-280.75 564.88,-258.25 402.12,-258.25"/>
<polygon fill="none" stroke="#8ccbf2" points="402.12,-258.25 402.12,-280.75 564.88,-280.75 564.88,-258.25 402.12,-258.25"/>
<text text-anchor="start" x="405.12" y="-265.45" font-family="Monospace" font-size="14.00" fill="#c83500">in</text>
<text text-anchor="start" x="421.62" y="-265.45" font-family="Times,serif" font-size="14.00"> : </text>
<text text-anchor="start" x="432.88" y="-265.45" font-family="Monospace" font-size="14.00" fill="#c83500">string</text>
</g>
<!-- BasicSecurityScheme&#45;&gt;SecurityScheme -->
<g id="edge4" class="edge">
<title>BasicSecurityScheme&#45;&gt;SecurityScheme</title>
<path fill="none" stroke="black" d="M526.21,-254.56C542.66,-242.28 562.15,-229.4 581.5,-220.5 652.87,-187.67 738.81,-166.5 806.31,-153.58"/>
<polygon fill="white" stroke="black" points="806.73,-157.07 815.91,-151.78 805.44,-150.19 806.73,-157.07"/>
</g>
<!-- BearerSecurityScheme -->
<g id="node4" class="node">
<title>BearerSecurityScheme</title>
<polygon fill="#8ccbf2" stroke="none" points="598.5,-337 598.5,-358 772.5,-358 772.5,-337 598.5,-337"/>
<polygon fill="none" stroke="#8ccbf2" points="598.5,-337 598.5,-358 772.5,-358 772.5,-337 598.5,-337"/>
<text text-anchor="start" x="603" y="-342.7" font-family="Monospace" font-weight="bold" font-size="14.00" fill="#c83500">BearerSecurityScheme</text>
<polygon fill="#ddeeff" stroke="none" points="598.5,-314.5 598.5,-337 772.5,-337 772.5,-314.5 598.5,-314.5"/>
<polygon fill="none" stroke="#8ccbf2" points="598.5,-314.5 598.5,-337 772.5,-337 772.5,-314.5 598.5,-314.5"/>
<text text-anchor="start" x="601.5" y="-321.7" font-family="Monospace" font-size="14.00" fill="#c83500">alg</text>
<text text-anchor="start" x="626.25" y="-321.7" font-family="Times,serif" font-size="14.00"> : </text>
<text text-anchor="start" x="637.5" y="-321.7" font-family="Monospace" font-size="14.00" fill="#c83500">string</text>
<polygon fill="#ddeeff" stroke="none" points="598.5,-292 598.5,-314.5 772.5,-314.5 772.5,-292 598.5,-292"/>
<polygon fill="none" stroke="#8ccbf2" points="598.5,-292 598.5,-314.5 772.5,-314.5 772.5,-292 598.5,-292"/>
<text text-anchor="start" x="601.5" y="-299.2" font-family="Monospace" font-size="14.00" fill="#c83500">name</text>
<text text-anchor="start" x="634.5" y="-299.2" font-family="Times,serif" font-size="14.00"> : </text>
<text text-anchor="start" x="645.75" y="-299.2" font-family="Monospace" font-size="14.00" fill="#c83500">string</text>
<polygon fill="#ddeeff" stroke="none" points="598.5,-269.5 598.5,-292 772.5,-292 772.5,-269.5 598.5,-269.5"/>
<polygon fill="none" stroke="#8ccbf2" points="598.5,-269.5 598.5,-292 772.5,-292 772.5,-269.5 598.5,-269.5"/>
<text text-anchor="start" x="601.5" y="-276.7" font-family="Monospace" font-size="14.00" fill="#c83500">authorization</text>
<text text-anchor="start" x="708.75" y="-276.7" font-family="Times,serif" font-size="14.00"> : </text>
<text text-anchor="start" x="720" y="-276.7" font-family="Monospace" font-size="14.00" fill="#c83500">anyURI</text>
<polygon fill="#ddeeff" stroke="none" points="598.5,-247 598.5,-269.5 772.5,-269.5 772.5,-247 598.5,-247"/>
<polygon fill="none" stroke="#8ccbf2" points="598.5,-247 598.5,-269.5 772.5,-269.5 772.5,-247 598.5,-247"/>
<text text-anchor="start" x="601.5" y="-254.2" font-family="Monospace" font-size="14.00" fill="#c83500">format</text>
<text text-anchor="start" x="651" y="-254.2" font-family="Times,serif" font-size="14.00"> : </text>
<text text-anchor="start" x="662.25" y="-254.2" font-family="Monospace" font-size="14.00" fill="#c83500">string</text>
<polygon fill="#ddeeff" stroke="none" points="598.5,-224.5 598.5,-247 772.5,-247 772.5,-224.5 598.5,-224.5"/>
<polygon fill="none" stroke="#8ccbf2" points="598.5,-224.5 598.5,-247 772.5,-247 772.5,-224.5 598.5,-224.5"/>
<text text-anchor="start" x="601.5" y="-231.7" font-family="Monospace" font-size="14.00" fill="#c83500">in</text>
<text text-anchor="start" x="618" y="-231.7" font-family="Times,serif" font-size="14.00"> : </text>
<text text-anchor="start" x="629.25" y="-231.7" font-family="Monospace" font-size="14.00" fill="#c83500">string</text>
</g>
<!-- BearerSecurityScheme&#45;&gt;SecurityScheme -->
<g id="edge5" class="edge">
<title>BearerSecurityScheme&#45;&gt;SecurityScheme</title>
<path fill="none" stroke="black" d="M780.39,-226.5C783.46,-224.47 786.5,-222.47 789.5,-220.5 804.9,-210.39 821.38,-199.69 837.27,-189.43"/>
<polygon fill="white" stroke="black" points="838.77,-192.63 845.28,-184.28 834.98,-186.75 838.77,-192.63"/>
</g>
<!-- ComboSecurityScheme -->
<g id="node5" class="node">
<title>ComboSecurityScheme</title>
<polygon fill="#8ccbf2" stroke="none" points="806.12,-303.25 806.12,-324.25 1034.88,-324.25 1034.88,-303.25 806.12,-303.25"/>
<polygon fill="none" stroke="#8ccbf2" points="806.12,-303.25 806.12,-324.25 1034.88,-324.25 1034.88,-303.25 806.12,-303.25"/>
<text text-anchor="start" x="842.12" y="-308.95" font-family="Monospace" font-weight="bold" font-size="14.00" fill="#c83500">ComboSecurityScheme</text>
<polygon fill="#ddeeff" stroke="none" points="806.12,-280.75 806.12,-303.25 1034.88,-303.25 1034.88,-280.75 806.12,-280.75"/>
<polygon fill="none" stroke="#8ccbf2" points="806.12,-280.75 806.12,-303.25 1034.88,-303.25 1034.88,-280.75 806.12,-280.75"/>
<text text-anchor="start" x="809.12" y="-287.95" font-family="Monospace" font-size="14.00" fill="#c83500">oneOf</text>
<text text-anchor="start" x="850.38" y="-287.95" font-family="Times,serif" font-size="14.00"> : Array of </text>
<text text-anchor="start" x="911.12" y="-287.95" font-family="Monospace" font-size="14.00" fill="#c83500">string</text>
<text text-anchor="start" x="960.62" y="-287.95" font-family="Times,serif" font-size="14.00"> </text>
<text text-anchor="start" x="964.38" y="-287.95" font-family="Times,serif" font-style="italic" font-size="14.00">(mandatory)</text>
<polygon fill="#ddeeff" stroke="none" points="806.12,-258.25 806.12,-280.75 1034.88,-280.75 1034.88,-258.25 806.12,-258.25"/>
<polygon fill="none" stroke="#8ccbf2" points="806.12,-258.25 806.12,-280.75 1034.88,-280.75 1034.88,-258.25 806.12,-258.25"/>
<text text-anchor="start" x="809.12" y="-265.45" font-family="Monospace" font-size="14.00" fill="#c83500">allOf</text>
<text text-anchor="start" x="850.38" y="-265.45" font-family="Times,serif" font-size="14.00"> : Array of </text>
<text text-anchor="start" x="911.12" y="-265.45" font-family="Monospace" font-size="14.00" fill="#c83500">string</text>
<text text-anchor="start" x="960.62" y="-265.45" font-family="Times,serif" font-size="14.00"> </text>
<text text-anchor="start" x="964.38" y="-265.45" font-family="Times,serif" font-style="italic" font-size="14.00">(mandatory)</text>
</g>
<!-- ComboSecurityScheme&#45;&gt;SecurityScheme -->
<g id="edge6" class="edge">
<title>ComboSecurityScheme&#45;&gt;SecurityScheme</title>
<path fill="none" stroke="black" d="M920.5,-254.53C920.5,-236.77 920.5,-214.85 920.5,-194.73"/>
<polygon fill="white" stroke="black" points="924,-194.96 920.5,-184.96 917,-194.96 924,-194.96"/>
</g>
<!-- DigestSecurityScheme -->
<g id="node6" class="node">
<title>DigestSecurityScheme</title>
<polygon fill="#8ccbf2" stroke="none" points="1069,-314.5 1069,-335.5 1240,-335.5 1240,-314.5 1069,-314.5"/>
<polygon fill="none" stroke="#8ccbf2" points="1069,-314.5 1069,-335.5 1240,-335.5 1240,-314.5 1069,-314.5"/>
<text text-anchor="start" x="1072" y="-320.2" font-family="Monospace" font-weight="bold" font-size="14.00" fill="#c83500">DigestSecurityScheme</text>
<polygon fill="#ddeeff" stroke="none" points="1069,-292 1069,-314.5 1240,-314.5 1240,-292 1069,-292"/>
<polygon fill="none" stroke="#8ccbf2" points="1069,-292 1069,-314.5 1240,-314.5 1240,-292 1069,-292"/>
<text text-anchor="start" x="1072" y="-299.2" font-family="Monospace" font-size="14.00" fill="#c83500">name</text>
<text text-anchor="start" x="1105" y="-299.2" font-family="Times,serif" font-size="14.00"> : </text>
<text text-anchor="start" x="1116.25" y="-299.2" font-family="Monospace" font-size="14.00" fill="#c83500">string</text>
<polygon fill="#ddeeff" stroke="none" points="1069,-269.5 1069,-292 1240,-292 1240,-269.5 1069,-269.5"/>
<polygon fill="none" stroke="#8ccbf2" points="1069,-269.5 1069,-292 1240,-292 1240,-269.5 1069,-269.5"/>
<text text-anchor="start" x="1072" y="-276.7" font-family="Monospace" font-size="14.00" fill="#c83500">in</text>
<text text-anchor="start" x="1088.5" y="-276.7" font-family="Times,serif" font-size="14.00"> : </text>
<text text-anchor="start" x="1099.75" y="-276.7" font-family="Monospace" font-size="14.00" fill="#c83500">string</text>
<polygon fill="#ddeeff" stroke="none" points="1069,-247 1069,-269.5 1240,-269.5 1240,-247 1069,-247"/>
<polygon fill="none" stroke="#8ccbf2" points="1069,-247 1069,-269.5 1240,-269.5 1240,-247 1069,-247"/>
<text text-anchor="start" x="1072" y="-254.2" font-family="Monospace" font-size="14.00" fill="#c83500">qop</text>
<text text-anchor="start" x="1096.75" y="-254.2" font-family="Times,serif" font-size="14.00"> : </text>
<text text-anchor="start" x="1108" y="-254.2" font-family="Monospace" font-size="14.00" fill="#c83500">string</text>
</g>
<!-- DigestSecurityScheme&#45;&gt;SecurityScheme -->
<g id="edge7" class="edge">
<title>DigestSecurityScheme&#45;&gt;SecurityScheme</title>
<path fill="none" stroke="black" d="M1085.4,-243.13C1074.1,-235.52 1062.49,-227.76 1051.5,-220.5 1036.12,-210.35 1019.65,-199.64 1003.76,-189.38"/>
<polygon fill="white" stroke="black" points="1006.06,-186.69 995.76,-184.22 1002.27,-192.58 1006.06,-186.69"/>
</g>
<!-- NoSecurityScheme -->
<g id="node7" class="node">
<title>NoSecurityScheme</title>
<polygon fill="#8ccbf2" stroke="none" points="1274.5,-280.75 1274.5,-301.75 1412.5,-301.75 1412.5,-280.75 1274.5,-280.75"/>
<polygon fill="none" stroke="#8ccbf2" points="1274.5,-280.75 1274.5,-301.75 1412.5,-301.75 1412.5,-280.75 1274.5,-280.75"/>
<text text-anchor="start" x="1277.5" y="-286.45" font-family="Monospace" font-weight="bold" font-size="14.00" fill="#c83500">NoSecurityScheme</text>
</g>
<!-- NoSecurityScheme&#45;&gt;SecurityScheme -->
<g id="edge8" class="edge">
<title>NoSecurityScheme&#45;&gt;SecurityScheme</title>
<path fill="none" stroke="black" d="M1327.06,-273.39C1310.62,-257.48 1283.9,-234.1 1256.5,-220.5 1186.85,-185.93 1101.84,-164.79 1034.75,-152.33"/>
<polygon fill="white" stroke="black" points="1035.68,-148.94 1025.21,-150.6 1034.43,-155.83 1035.68,-148.94"/>
</g>
<!-- OAuth2SecurityScheme -->
<g id="node8" class="node">
<title>OAuth2SecurityScheme</title>
<polygon fill="#8ccbf2" stroke="none" points="1446.75,-337 1446.75,-358 1622.25,-358 1622.25,-337 1446.75,-337"/>
<polygon fill="none" stroke="#8ccbf2" points="1446.75,-337 1446.75,-358 1622.25,-358 1622.25,-337 1446.75,-337"/>
<text text-anchor="start" x="1452" y="-342.7" font-family="Monospace" font-weight="bold" font-size="14.00" fill="#c83500">OAuth2SecurityScheme</text>
<polygon fill="#ddeeff" stroke="none" points="1446.75,-314.5 1446.75,-337 1622.25,-337 1622.25,-314.5 1446.75,-314.5"/>
<polygon fill="none" stroke="#8ccbf2" points="1446.75,-314.5 1446.75,-337 1622.25,-337 1622.25,-314.5 1446.75,-314.5"/>
<text text-anchor="start" x="1449.75" y="-321.7" font-family="Monospace" font-size="14.00" fill="#c83500">flow</text>
<text text-anchor="start" x="1482.75" y="-321.7" font-family="Times,serif" font-size="14.00"> : </text>
<text text-anchor="start" x="1494" y="-321.7" font-family="Monospace" font-size="14.00" fill="#c83500">string</text>
<text text-anchor="start" x="1543.5" y="-321.7" font-family="Times,serif" font-size="14.00"> </text>
<text text-anchor="start" x="1547.25" y="-321.7" font-family="Times,serif" font-style="italic" font-size="14.00">(mandatory)</text>
<polygon fill="#ddeeff" stroke="none" points="1446.75,-292 1446.75,-314.5 1622.25,-314.5 1622.25,-292 1446.75,-292"/>
<polygon fill="none" stroke="#8ccbf2" points="1446.75,-292 1446.75,-314.5 1622.25,-314.5 1622.25,-292 1446.75,-292"/>
<text text-anchor="start" x="1449.75" y="-299.2" font-family="Monospace" font-size="14.00" fill="#c83500">authorization</text>
<text text-anchor="start" x="1557" y="-299.2" font-family="Times,serif" font-size="14.00"> : </text>
<text text-anchor="start" x="1568.25" y="-299.2" font-family="Monospace" font-size="14.00" fill="#c83500">anyURI</text>
<polygon fill="#ddeeff" stroke="none" points="1446.75,-269.5 1446.75,-292 1622.25,-292 1622.25,-269.5 1446.75,-269.5"/>
<polygon fill="none" stroke="#8ccbf2" points="1446.75,-269.5 1446.75,-292 1622.25,-292 1622.25,-269.5 1446.75,-269.5"/>
<text text-anchor="start" x="1449.75" y="-276.7" font-family="Monospace" font-size="14.00" fill="#c83500">token</text>
<text text-anchor="start" x="1491" y="-276.7" font-family="Times,serif" font-size="14.00"> : </text>
<text text-anchor="start" x="1502.25" y="-276.7" font-family="Monospace" font-size="14.00" fill="#c83500">anyURI</text>
<polygon fill="#ddeeff" stroke="none" points="1446.75,-247 1446.75,-269.5 1622.25,-269.5 1622.25,-247 1446.75,-247"/>
<polygon fill="none" stroke="#8ccbf2" points="1446.75,-247 1446.75,-269.5 1622.25,-269.5 1622.25,-247 1446.75,-247"/>
<text text-anchor="start" x="1449.75" y="-254.2" font-family="Monospace" font-size="14.00" fill="#c83500">refresh</text>
<text text-anchor="start" x="1507.5" y="-254.2" font-family="Times,serif" font-size="14.00"> : </text>
<text text-anchor="start" x="1518.75" y="-254.2" font-family="Monospace" font-size="14.00" fill="#c83500">anyURI</text>
<polygon fill="#ddeeff" stroke="none" points="1446.75,-224.5 1446.75,-247 1622.25,-247 1622.25,-224.5 1446.75,-224.5"/>
<polygon fill="none" stroke="#8ccbf2" points="1446.75,-224.5 1446.75,-247 1622.25,-247 1622.25,-224.5 1446.75,-224.5"/>
<text text-anchor="start" x="1449.75" y="-231.7" font-family="Monospace" font-size="14.00" fill="#c83500">scopes</text>
<text text-anchor="start" x="1499.25" y="-231.7" font-family="Times,serif" font-size="14.00"> : (Array of) </text>
<text text-anchor="start" x="1569.75" y="-231.7" font-family="Monospace" font-size="14.00" fill="#c83500">string</text>
</g>
<!-- OAuth2SecurityScheme&#45;&gt;SecurityScheme -->
<g id="edge9" class="edge">
<title>OAuth2SecurityScheme&#45;&gt;SecurityScheme</title>
<path fill="none" stroke="black" d="M1438.96,-224.53C1435.82,-223.09 1432.66,-221.74 1429.5,-220.5 1300.04,-169.51 1140.28,-149.38 1034.65,-141.43"/>
<polygon fill="white" stroke="black" points="1035.06,-137.96 1024.84,-140.72 1034.56,-144.94 1035.06,-137.96"/>
</g>
<!-- PSKSecurityScheme -->
<g id="node9" class="node">
<title>PSKSecurityScheme</title>
<polygon fill="#8ccbf2" stroke="none" points="1656.38,-292 1656.38,-313 1802.62,-313 1802.62,-292 1656.38,-292"/>
<polygon fill="none" stroke="#8ccbf2" points="1656.38,-292 1656.38,-313 1802.62,-313 1802.62,-292 1656.38,-292"/>
<text text-anchor="start" x="1659.38" y="-297.7" font-family="Monospace" font-weight="bold" font-size="14.00" fill="#c83500">PSKSecurityScheme</text>
<polygon fill="#ddeeff" stroke="none" points="1656.38,-269.5 1656.38,-292 1802.62,-292 1802.62,-269.5 1656.38,-269.5"/>
<polygon fill="none" stroke="#8ccbf2" points="1656.38,-269.5 1656.38,-292 1802.62,-292 1802.62,-269.5 1656.38,-269.5"/>
<text text-anchor="start" x="1659.38" y="-276.7" font-family="Monospace" font-size="14.00" fill="#c83500">identity</text>
<text text-anchor="start" x="1725.38" y="-276.7" font-family="Times,serif" font-size="14.00"> : </text>
<text text-anchor="start" x="1736.62" y="-276.7" font-family="Monospace" font-size="14.00" fill="#c83500">string</text>
</g>
<!-- PSKSecurityScheme&#45;&gt;SecurityScheme -->
<g id="edge10" class="edge">
<title>PSKSecurityScheme&#45;&gt;SecurityScheme</title>
<path fill="none" stroke="black" d="M1705.49,-265.69C1688.58,-250 1664.57,-230.75 1639.5,-220.5 1532.7,-176.85 1209.29,-152.48 1034.89,-142.18"/>
<polygon fill="white" stroke="black" points="1035.32,-138.7 1025.13,-141.61 1034.91,-145.69 1035.32,-138.7"/>
</g>
<!-- MultiLanguage -->
<g id="node11" class="node">
<title>MultiLanguage</title>
<polygon fill="#f2f2f2" stroke="none" points="863.88,-7.5 863.88,-28.5 977.12,-28.5 977.12,-7.5 863.88,-7.5"/>
<polygon fill="none" stroke="#8c8c8c" points="863.88,-7.5 863.88,-28.5 977.12,-28.5 977.12,-7.5 863.88,-7.5"/>
<text text-anchor="start" x="866.88" y="-13.2" font-family="Monospace" font-weight="bold" font-size="14.00">MultiLanguage</text>
</g>
<!-- SecurityScheme&#45;&gt;MultiLanguage -->
<g id="edge1" class="edge">
<title>SecurityScheme&#45;&gt;MultiLanguage</title>
<path fill="none" stroke="black" d="M920.5,-87.04C920.5,-73.57 920.5,-59.31 920.5,-47.35"/>
<polygon fill="black" stroke="black" points="924,-47.35 920.5,-37.35 917,-47.35 924,-47.35"/>
<text text-anchor="start" x="920.5" y="-55.7" font-family="Monospace" font-size="14.00" fill="#c83500">descriptions</text>
<text text-anchor="middle" x="910" y="-39.04" font-family="Times,serif" font-size="14.00">0..*</text>
</g>
</g>
</svg>
