<?xml version="1.0" encoding="UTF-8" standalone="no"?>
<!-- Generated by graphviz version 9.0.0 (20230911.1827)
 -->

<!-- Pages: 1 -->

<svg
   width="750pt"
   height="400pt"
   viewBox="0 0 749.84332 400"
   version="1.1"
   id="svg110"
   sodipodi:docname="wotsec.svg"
   inkscape:version="1.3 (0e150ed, 2023-07-21)"
   inkscape:export-filename="wotsec.png"
   inkscape:export-xdpi="96"
   inkscape:export-ydpi="96"
   xmlns:inkscape="http://www.inkscape.org/namespaces/inkscape"
   xmlns:sodipodi="http://sodipodi.sourceforge.net/DTD/sodipodi-0.dtd"
   xmlns="http://www.w3.org/2000/svg"
   xmlns:svg="http://www.w3.org/2000/svg">
  <defs
     id="defs110" />
  <sodipodi:namedview
     id="namedview110"
     pagecolor="#ffffff"
     bordercolor="#000000"
     borderopacity="0.25"
     inkscape:showpageshadow="2"
     inkscape:pageopacity="0.0"
     inkscape:pagecheckerboard="0"
     inkscape:deskcolor="#d1d1d1"
     inkscape:document-units="pt"
     inkscape:zoom="2.0475588"
     inkscape:cx="194.8662"
     inkscape:cy="319.89314"
     inkscape:window-width="2056"
     inkscape:window-height="1257"
     inkscape:window-x="0"
     inkscape:window-y="44"
     inkscape:window-maximized="1"
     inkscape:current-layer="g114" />
  <g
     id="node3"
     class="node"
     transform="translate(106.45583,578.6925)">
    <title
       id="title25">BasicSecurityScheme</title>
    <polygon
       fill="#8ccbf2"
       stroke="none"
       points="564.88,-303.25 402.12,-303.25 402.12,-324.25 564.88,-324.25 "
       id="polygon26" />
    <polygon
       fill="none"
       stroke="#8ccbf2"
       points="564.88,-303.25 402.12,-303.25 402.12,-324.25 564.88,-324.25 "
       id="polygon27" />
    <text
       text-anchor="start"
       x="405.12"
       y="-308.95001"
       font-family="Monospace"
       font-weight="bold"
       font-size="14px"
       fill="#c83500"
       id="text27">BasicSecurityScheme</text>
    <polygon
       fill="#ddeeff"
       stroke="none"
       points="564.88,-280.75 402.12,-280.75 402.12,-303.25 564.88,-303.25 "
       id="polygon28" />
    <polygon
       fill="none"
       stroke="#8ccbf2"
       points="564.88,-280.75 402.12,-280.75 402.12,-303.25 564.88,-303.25 "
       id="polygon29" />
    <text
       text-anchor="start"
       x="405.12"
       y="-287.95001"
       font-family="Monospace"
       font-size="14px"
       fill="#c83500"
       id="text29">name</text>
    <text
       text-anchor="start"
       x="438.12"
       y="-287.95001"
       font-family="Times, serif"
       font-size="14px"
       id="text30">:</text>
    <text
       text-anchor="start"
       x="449.38"
       y="-287.95001"
       font-family="Monospace"
       font-size="14px"
       fill="#c83500"
       id="text31">string</text>
    <polygon
       fill="#ddeeff"
       stroke="none"
       points="564.88,-258.25 402.12,-258.25 402.12,-280.75 564.88,-280.75 "
       id="polygon31" />
    <polygon
       fill="none"
       stroke="#8ccbf2"
       points="564.88,-258.25 402.12,-258.25 402.12,-280.75 564.88,-280.75 "
       id="polygon32" />
    <text
       text-anchor="start"
       x="405.12"
       y="-265.45001"
       font-family="Monospace"
       font-size="14px"
       fill="#c83500"
       id="text32">in</text>
    <text
       text-anchor="start"
       x="421.62"
       y="-265.45001"
       font-family="Times, serif"
       font-size="14px"
       id="text33">:</text>
    <text
       text-anchor="start"
       x="432.88"
       y="-265.45001"
       font-family="Monospace"
       font-size="14px"
       fill="#c83500"
       id="text34">string</text>
  </g>
  <g
     id="node5"
     class="node"
     transform="translate(-297.54417,340.99731)">
    <title
       id="title53">ComboSecurityScheme</title>
    <polygon
       fill="#8ccbf2"
       stroke="none"
       points="1034.88,-324.25 1034.88,-303.25 806.12,-303.25 806.12,-324.25 "
       id="polygon53" />
    <polygon
       fill="none"
       stroke="#8ccbf2"
       points="1034.88,-324.25 1034.88,-303.25 806.12,-303.25 806.12,-324.25 "
       id="polygon54" />
    <text
       text-anchor="start"
       x="842.12"
       y="-308.95001"
       font-family="Monospace"
       font-weight="bold"
       font-size="14px"
       fill="#c83500"
       id="text54">ComboSecurityScheme</text>
    <polygon
       fill="#ddeeff"
       stroke="none"
       points="1034.88,-303.25 1034.88,-280.75 806.12,-280.75 806.12,-303.25 "
       id="polygon55" />
    <polygon
       fill="none"
       stroke="#8ccbf2"
       points="1034.88,-303.25 1034.88,-280.75 806.12,-280.75 806.12,-303.25 "
       id="polygon56" />
    <text
       text-anchor="start"
       x="809.12"
       y="-287.95001"
       font-family="Monospace"
       font-size="14px"
       fill="#c83500"
       id="text56">oneOf</text>
    <text
       text-anchor="start"
       x="850.38"
       y="-287.95001"
       font-family="Times, serif"
       font-size="14px"
       id="text57">: Array of</text>
    <text
       text-anchor="start"
       x="911.12"
       y="-287.95001"
       font-family="Monospace"
       font-size="14px"
       fill="#c83500"
       id="text58">string</text>
    <text
       text-anchor="start"
       x="960.62"
       y="-287.95001"
       font-family="Times, serif"
       font-size="14px"
       id="text59" />
    <text
       text-anchor="start"
       x="964.38"
       y="-287.95001"
       font-family="Times, serif"
       font-style="italic"
       font-size="14px"
       id="text60">(mandatory)</text>
    <polygon
       fill="#ddeeff"
       stroke="none"
       points="1034.88,-280.75 1034.88,-258.25 806.12,-258.25 806.12,-280.75 "
       id="polygon60" />
    <polygon
       fill="none"
       stroke="#8ccbf2"
       points="1034.88,-280.75 1034.88,-258.25 806.12,-258.25 806.12,-280.75 "
       id="polygon61" />
    <text
       text-anchor="start"
       x="809.12"
       y="-265.45001"
       font-family="Monospace"
       font-size="14px"
       fill="#c83500"
       id="text61">allOf</text>
    <text
       text-anchor="start"
       x="850.38"
       y="-265.45001"
       font-family="Times, serif"
       font-size="14px"
       id="text62">: Array of</text>
    <text
       text-anchor="start"
       x="911.12"
       y="-265.45001"
       font-family="Monospace"
       font-size="14px"
       fill="#c83500"
       id="text63">string</text>
    <text
       text-anchor="start"
       x="960.62"
       y="-265.45001"
       font-family="Times, serif"
       font-size="14px"
       id="text64" />
    <text
       text-anchor="start"
       x="964.38"
       y="-265.45001"
       font-family="Times, serif"
       font-style="italic"
       font-size="14px"
       id="text65">(mandatory)</text>
  </g>
  <g
     id="g113"
     transform="translate(-564.42417,93.844905)">
    <polygon
       fill="#8ccbf2"
       stroke="none"
       points="1069,-335.5 1240,-335.5 1240,-314.5 1069,-314.5 "
       id="polygon66"
       transform="translate(4,366)" />
    <polygon
       fill="none"
       stroke="#8ccbf2"
       points="1069,-335.5 1240,-335.5 1240,-314.5 1069,-314.5 "
       id="polygon67"
       transform="translate(4,366)" />
    <text
       text-anchor="start"
       x="1076"
       y="45.799988"
       font-family="Monospace"
       font-weight="bold"
       font-size="14px"
       fill="#c83500"
       id="text67">DigestSecurityScheme</text>
    <polygon
       fill="#ddeeff"
       stroke="none"
       points="1069,-314.5 1240,-314.5 1240,-292 1069,-292 "
       id="polygon68"
       transform="translate(4,366)" />
    <polygon
       fill="none"
       stroke="#8ccbf2"
       points="1069,-314.5 1240,-314.5 1240,-292 1069,-292 "
       id="polygon69"
       transform="translate(4,366)" />
    <text
       text-anchor="start"
       x="1076"
       y="66.799988"
       font-family="Monospace"
       font-size="14px"
       fill="#c83500"
       id="text69">name</text>
    <text
       text-anchor="start"
       x="1110.5"
       y="66.799988"
       font-family="Times, serif"
       font-size="14px"
       id="text70">:</text>
    <text
       text-anchor="start"
       x="1120.25"
       y="66.799988"
       font-family="Monospace"
       font-size="14px"
       fill="#c83500"
       id="text71">string</text>
    <polygon
       fill="#ddeeff"
       stroke="none"
       points="1069,-292 1240,-292 1240,-269.5 1069,-269.5 "
       id="polygon71"
       transform="translate(4,366)" />
    <polygon
       fill="none"
       stroke="#8ccbf2"
       points="1069,-292 1240,-292 1240,-269.5 1069,-269.5 "
       id="polygon72"
       transform="translate(4,366)" />
    <text
       text-anchor="start"
       x="1076"
       y="89.299988"
       font-family="Monospace"
       font-size="14px"
       fill="#c83500"
       id="text72">in</text>
    <text
       text-anchor="start"
       x="1092.5"
       y="89.299988"
       font-family="Times, serif"
       font-size="14px"
       id="text73">:</text>
    <text
       text-anchor="start"
       x="1103.75"
       y="89.299988"
       font-family="Monospace"
       font-size="14px"
       fill="#c83500"
       id="text74">string</text>
    <polygon
       fill="#ddeeff"
       stroke="none"
       points="1069,-269.5 1240,-269.5 1240,-247 1069,-247 "
       id="polygon74"
       transform="translate(4,366)" />
    <polygon
       fill="none"
       stroke="#8ccbf2"
       points="1069,-269.5 1240,-269.5 1240,-247 1069,-247 "
       id="polygon75"
       transform="translate(4,366)" />
    <text
       text-anchor="start"
       x="1076"
       y="111.8"
       font-family="Monospace"
       font-size="14px"
       fill="#c83500"
       id="text75">qop</text>
    <text
       text-anchor="start"
       x="1100.75"
       y="111.8"
       font-family="Times, serif"
       font-size="14px"
       id="text76">:</text>
    <text
       text-anchor="start"
       x="1112"
       y="111.8"
       font-family="Monospace"
       font-size="14px"
       fill="#c83500"
       id="text77">string</text>
  </g>
  <g
     id="node7"
     class="node"
     transform="translate(-765.92417,663.79009)">
    <title
       id="title78">NoSecurityScheme</title>
    <polygon
       fill="#8ccbf2"
       stroke="none"
       points="1274.5,-301.75 1412.5,-301.75 1412.5,-280.75 1274.5,-280.75 "
       id="polygon78" />
    <polygon
       fill="none"
       stroke="#8ccbf2"
       points="1274.5,-301.75 1412.5,-301.75 1412.5,-280.75 1274.5,-280.75 "
       id="polygon79" />
    <text
       text-anchor="start"
       x="1277.5"
       y="-286.45001"
       font-family="Monospace"
       font-weight="bold"
       font-size="14px"
       fill="#c83500"
       id="text79">NoSecurityScheme</text>
  </g>
  <text
     text-anchor="start"
     x="986.90607"
     y="47.84008"
     font-family="Times, serif"
     font-size="14px"
     id="text87" />
  <g
     id="g110"
     transform="translate(9.0979698,220.1925)">
    <g
       id="node1"
       class="node"
       transform="translate(4,366)">
      <title
         id="title1">APIKeySecurityScheme</title>
      <polygon
         fill="#8ccbf2"
         stroke="none"
         points="179,-324.25 179,-303.25 8,-303.25 8,-324.25 "
         id="polygon2" />
      <polygon
         fill="none"
         stroke="#8ccbf2"
         points="179,-324.25 179,-303.25 8,-303.25 8,-324.25 "
         id="polygon3" />
      <text
         text-anchor="start"
         x="11"
         y="-308.95001"
         font-family="Monospace"
         font-weight="bold"
         font-size="14px"
         fill="#c83500"
         id="text3">APIKeySecurityScheme</text>
      <polygon
         fill="#ddeeff"
         stroke="none"
         points="179,-303.25 179,-280.75 8,-280.75 8,-303.25 "
         id="polygon4" />
      <polygon
         fill="none"
         stroke="#8ccbf2"
         points="179,-303.25 179,-280.75 8,-280.75 8,-303.25 "
         id="polygon5" />
      <text
         text-anchor="start"
         x="11"
         y="-287.95001"
         font-family="Monospace"
         font-size="14px"
         fill="#c83500"
         id="text5">name</text>
      <text
         text-anchor="start"
         x="44"
         y="-287.95001"
         font-family="Times, serif"
         font-size="14px"
         id="text6">:</text>
      <text
         text-anchor="start"
         x="55.25"
         y="-287.95001"
         font-family="Monospace"
         font-size="14px"
         fill="#c83500"
         id="text7">string</text>
      <polygon
         fill="#ddeeff"
         stroke="none"
         points="179,-280.75 179,-258.25 8,-258.25 8,-280.75 "
         id="polygon7" />
      <polygon
         fill="none"
         stroke="#8ccbf2"
         points="179,-280.75 179,-258.25 8,-258.25 8,-280.75 "
         id="polygon8" />
      <text
         text-anchor="start"
         x="11"
         y="-265.45001"
         font-family="Monospace"
         font-size="14px"
         fill="#c83500"
         id="text8">in</text>
      <text
         text-anchor="start"
         x="27.5"
         y="-265.45001"
         font-family="Times, serif"
         font-size="14px"
         id="text9">:</text>
      <text
         text-anchor="start"
         x="38.75"
         y="-265.45001"
         font-family="Monospace"
         font-size="14px"
         fill="#c83500"
         id="text10">string</text>
    </g>
  </g>
  <g
     id="node2"
     class="node"
     transform="translate(-175.65203,663.79009)">
    <title
       id="title23">AutoSecurityScheme</title>
    <polygon
       fill="#8ccbf2"
       stroke="none"
       points="213.25,-280.75 213.25,-301.75 367.75,-301.75 367.75,-280.75 "
       id="polygon23" />
    <polygon
       fill="none"
       stroke="#8ccbf2"
       points="213.25,-280.75 213.25,-301.75 367.75,-301.75 367.75,-280.75 "
       id="polygon24" />
    <text
       text-anchor="start"
       x="216.25"
       y="-286.45001"
       font-family="Monospace"
       font-weight="bold"
       font-size="14px"
       fill="#c83500"
       id="text24">AutoSecurityScheme</text>
  </g>
  <g
     id="g111"
     transform="translate(-584.40203,8.7473106)">
    <polygon
       fill="#8ccbf2"
       stroke="none"
       points="598.5,-337 598.5,-358 772.5,-358 772.5,-337 "
       id="polygon35"
       transform="translate(4,366)" />
    <polygon
       fill="none"
       stroke="#8ccbf2"
       points="598.5,-337 598.5,-358 772.5,-358 772.5,-337 "
       id="polygon36"
       transform="translate(4,366)" />
    <text
       text-anchor="start"
       x="607"
       y="23.299988"
       font-family="Monospace"
       font-weight="bold"
       font-size="14px"
       fill="#c83500"
       id="text36">BearerSecurityScheme</text>
    <polygon
       fill="#ddeeff"
       stroke="none"
       points="598.5,-314.5 598.5,-337 772.5,-337 772.5,-314.5 "
       id="polygon37"
       transform="translate(4,366)" />
    <polygon
       fill="none"
       stroke="#8ccbf2"
       points="598.5,-314.5 598.5,-337 772.5,-337 772.5,-314.5 "
       id="polygon38"
       transform="translate(4,366)" />
    <text
       text-anchor="start"
       x="605.5"
       y="44.299988"
       font-family="Monospace"
       font-size="14px"
       fill="#c83500"
       id="text38">alg</text>
    <text
       text-anchor="start"
       x="630.25"
       y="44.299988"
       font-family="Times, serif"
       font-size="14px"
       id="text39">:</text>
    <text
       text-anchor="start"
       x="641.5"
       y="44.299988"
       font-family="Monospace"
       font-size="14px"
       fill="#c83500"
       id="text40">string</text>
    <polygon
       fill="#ddeeff"
       stroke="none"
       points="598.5,-292 598.5,-314.5 772.5,-314.5 772.5,-292 "
       id="polygon40"
       transform="translate(4,366)" />
    <polygon
       fill="none"
       stroke="#8ccbf2"
       points="598.5,-292 598.5,-314.5 772.5,-314.5 772.5,-292 "
       id="polygon41"
       transform="translate(4,366)" />
    <text
       text-anchor="start"
       x="605.5"
       y="66.799988"
       font-family="Monospace"
       font-size="14px"
       fill="#c83500"
       id="text41">name</text>
    <text
       text-anchor="start"
       x="638.5"
       y="66.799988"
       font-family="Times, serif"
       font-size="14px"
       id="text42">:</text>
    <text
       text-anchor="start"
       x="649.75"
       y="66.799988"
       font-family="Monospace"
       font-size="14px"
       fill="#c83500"
       id="text43">string</text>
    <polygon
       fill="#ddeeff"
       stroke="none"
       points="598.5,-269.5 598.5,-292 772.5,-292 772.5,-269.5 "
       id="polygon43"
       transform="translate(4,366)" />
    <polygon
       fill="none"
       stroke="#8ccbf2"
       points="598.5,-269.5 598.5,-292 772.5,-292 772.5,-269.5 "
       id="polygon44"
       transform="translate(4,366)" />
    <text
       text-anchor="start"
       x="605.5"
       y="89.299988"
       font-family="Monospace"
       font-size="14px"
       fill="#c83500"
       id="text44">authorization</text>
    <text
       text-anchor="start"
       x="714.25"
       y="89.299988"
       font-family="Times, serif"
       font-size="14px"
       id="text45">:</text>
    <text
       text-anchor="start"
       x="724"
       y="89.299988"
       font-family="Monospace"
       font-size="14px"
       fill="#c83500"
       id="text46">anyURI</text>
    <polygon
       fill="#ddeeff"
       stroke="none"
       points="598.5,-247 598.5,-269.5 772.5,-269.5 772.5,-247 "
       id="polygon46"
       transform="translate(4,366)" />
    <polygon
       fill="none"
       stroke="#8ccbf2"
       points="598.5,-247 598.5,-269.5 772.5,-269.5 772.5,-247 "
       id="polygon47"
       transform="translate(4,366)" />
    <text
       text-anchor="start"
       x="605.5"
       y="111.8"
       font-family="Monospace"
       font-size="14px"
       fill="#c83500"
       id="text47">format</text>
    <text
       text-anchor="start"
       x="655"
       y="111.8"
       font-family="Times, serif"
       font-size="14px"
       id="text48">:</text>
    <text
       text-anchor="start"
       x="666.25"
       y="111.8"
       font-family="Monospace"
       font-size="14px"
       fill="#c83500"
       id="text49">string</text>
    <polygon
       fill="#ddeeff"
       stroke="none"
       points="598.5,-224.5 598.5,-247 772.5,-247 772.5,-224.5 "
       id="polygon49"
       transform="translate(4,366)" />
    <polygon
       fill="none"
       stroke="#8ccbf2"
       points="598.5,-224.5 598.5,-247 772.5,-247 772.5,-224.5 "
       id="polygon50"
       transform="translate(4,366)" />
    <text
       text-anchor="start"
       x="605.5"
       y="134.3"
       font-family="Monospace"
       font-size="14px"
       fill="#c83500"
       id="text50">in</text>
    <text
       text-anchor="start"
       x="622"
       y="134.3"
       font-family="Times, serif"
       font-size="14px"
       id="text51">:</text>
    <text
       text-anchor="start"
       x="633.25"
       y="134.3"
       font-family="Monospace"
       font-size="14px"
       fill="#c83500"
       id="text52">string</text>
  </g>
  <g
     id="node9"
     class="node"
     transform="translate(-1610.522,497.3449)">
    <title
       id="title101">PSKSecurityScheme</title>
    <polygon
       fill="#8ccbf2"
       stroke="none"
       points="1802.62,-292 1656.38,-292 1656.38,-313 1802.62,-313 "
       id="polygon101" />
    <polygon
       fill="none"
       stroke="#8ccbf2"
       points="1802.62,-292 1656.38,-292 1656.38,-313 1802.62,-313 "
       id="polygon102" />
    <text
       text-anchor="start"
       x="1659.38"
       y="-297.70001"
       font-family="Monospace"
       font-weight="bold"
       font-size="14px"
       fill="#c83500"
       id="text102">PSKSecurityScheme</text>
    <polygon
       fill="#ddeeff"
       stroke="none"
       points="1802.62,-269.5 1656.38,-269.5 1656.38,-292 1802.62,-292 "
       id="polygon103" />
    <polygon
       fill="none"
       stroke="#8ccbf2"
       points="1802.62,-269.5 1656.38,-269.5 1656.38,-292 1802.62,-292 "
       id="polygon104" />
    <text
       text-anchor="start"
       x="1659.38"
       y="-276.70001"
       font-family="Monospace"
       font-size="14px"
       fill="#c83500"
       id="text104">identity</text>
    <text
       text-anchor="start"
       x="1726.88"
       y="-276.70001"
       font-family="Times, serif"
       font-size="14px"
       id="text105">:</text>
    <text
       text-anchor="start"
       x="1736.62"
       y="-276.70001"
       font-family="Monospace"
       font-size="14px"
       fill="#c83500"
       id="text106">string</text>
  </g>
  <g
     id="g117"
     transform="translate(-576.66336,3.5400916)">
    <g
       id="g112">
      <polygon
         fill="#8ccbf2"
         stroke="none"
         points="825.25,-179.5 1015.75,-179.5 1015.75,-158.5 825.25,-158.5 "
         id="polygon10"
         transform="translate(4,366)" />
      <polygon
         fill="none"
         stroke="#8ccbf2"
         points="825.25,-179.5 1015.75,-179.5 1015.75,-158.5 825.25,-158.5 "
         id="polygon11"
         transform="translate(4,366)" />
      <text
         text-anchor="start"
         x="866.75"
         y="201.8"
         font-family="Monospace"
         font-weight="bold"
         font-size="14px"
         fill="#c83500"
         id="text11">SecurityScheme</text>
      <polygon
         fill="#ddeeff"
         stroke="none"
         points="825.25,-158.5 1015.75,-158.5 1015.75,-136 825.25,-136 "
         id="polygon12"
         transform="translate(4,366)" />
      <polygon
         fill="none"
         stroke="#8ccbf2"
         points="825.25,-158.5 1015.75,-158.5 1015.75,-136 825.25,-136 "
         id="polygon13"
         transform="translate(4,366)" />
      <text
         text-anchor="start"
         x="832.25"
         y="222.8"
         font-family="Monospace"
         font-size="14px"
         fill="#c83500"
         id="text13">@type</text>
      <text
         text-anchor="start"
         x="875"
         y="222.8"
         font-family="Times, serif"
         font-size="14px"
         id="text14">:</text>
      <text
         text-anchor="start"
         x="884.75"
         y="222.8"
         font-family="Times, serif"
         font-style="italic"
         font-size="14px"
         id="text15">(Array of)</text>
      <text
         text-anchor="start"
         x="944.82428"
         y="222.8"
         font-family="Monospace"
         font-size="14px"
         fill="#c83500"
         id="text16">string</text>
      <polygon
         fill="#ddeeff"
         stroke="none"
         points="825.25,-136 1015.75,-136 1015.75,-113.5 825.25,-113.5 "
         id="polygon16"
         transform="translate(4,366)" />
      <polygon
         fill="none"
         stroke="#8ccbf2"
         points="825.25,-136 1015.75,-136 1015.75,-113.5 825.25,-113.5 "
         id="polygon17"
         transform="translate(4,366)" />
      <text
         text-anchor="start"
         x="832.25"
         y="245.3"
         font-family="Monospace"
         font-size="14px"
         fill="#c83500"
         id="text17">description</text>
      <text
         text-anchor="start"
         x="924.5"
         y="245.3"
         font-family="Times, serif"
         font-size="14px"
         id="text18">:</text>
      <text
         text-anchor="start"
         x="934.25"
         y="245.3"
         font-family="Monospace"
         font-size="14px"
         fill="#c83500"
         id="text19">langString</text>
      <polygon
         fill="#ddeeff"
         stroke="none"
         points="825.25,-113.5 1015.75,-113.5 1015.75,-91 825.25,-91 "
         id="polygon19"
         transform="translate(4,366)" />
      <polygon
         fill="none"
         stroke="#8ccbf2"
         points="825.25,-113.5 1015.75,-113.5 1015.75,-91 825.25,-91 "
         id="polygon20"
         transform="translate(4,366)" />
      <text
         text-anchor="start"
         x="832.25"
         y="267.79999"
         font-family="Monospace"
         font-size="14px"
         fill="#c83500"
         id="text20">proxy</text>
      <text
         text-anchor="start"
         x="873.5"
         y="267.79999"
         font-family="Times, serif"
         font-size="14px"
         id="text21">:</text>
      <text
         text-anchor="start"
         x="884.75"
         y="267.79999"
         font-family="Monospace"
         font-size="14px"
         fill="#c83500"
         id="text22">anyURI</text>
      <polygon
         fill="#ddeeff"
         stroke="none"
         points="825.25,-113.5 1015.75,-113.5 1015.75,-91 825.25,-91 "
         id="polygon19-9"
         transform="translate(3.9722079,388.5803)" />
      <polygon
         fill="none"
         stroke="#8ccbf2"
         points="825.25,-113.5 1015.75,-113.5 1015.75,-91 825.25,-91 "
         id="polygon20-1"
         transform="translate(3.9722079,388.5803)" />
      <text
         text-anchor="start"
         x="832.22223"
         y="290.38031"
         font-family="Monospace"
         font-size="14px"
         fill="#c83500"
         id="text20-3">scheme</text>
      <text
         text-anchor="start"
         x="881.87439"
         y="290.09058"
         font-family="Times, serif"
         font-size="14px"
         id="text21-8">:</text>
      <text
         text-anchor="start"
         x="890.72223"
         y="290.38031"
         font-family="Monospace"
         font-size="14px"
         fill="#c83500"
         id="text22-8">string</text>
    </g>
    <g
       id="g114"
       transform="translate(-614.0139,5.207219)">
      <polygon
         fill="#8ccbf2"
         stroke="none"
         points="1446.75,-337 1446.75,-358 1622.25,-358 1622.25,-337 "
         id="polygon81"
         transform="translate(4,366)" />
      <polygon
         fill="none"
         stroke="#8ccbf2"
         points="1446.75,-337 1446.75,-358 1622.25,-358 1622.25,-337 "
         id="polygon82"
         transform="translate(4,366)" />
      <text
         text-anchor="start"
         x="1456"
         y="23.299988"
         font-family="Monospace"
         font-weight="bold"
         font-size="14px"
         fill="#c83500"
         id="text82">OAuth2SecurityScheme</text>
      <polygon
         fill="#ddeeff"
         stroke="none"
         points="1446.75,-314.5 1446.75,-337 1622.25,-337 1622.25,-314.5 "
         id="polygon83"
         transform="translate(4,366)" />
      <polygon
         fill="none"
         stroke="#8ccbf2"
         points="1446.75,-314.5 1446.75,-337 1622.25,-337 1622.25,-314.5 "
         id="polygon84"
         transform="translate(4,366)" />
      <text
         text-anchor="start"
         x="1453.75"
         y="44.299988"
         font-family="Monospace"
         font-size="14px"
         fill="#c83500"
         id="text84">flow</text>
      <text
         text-anchor="start"
         x="1488.25"
         y="44.299988"
         font-family="Times, serif"
         font-size="14px"
         id="text85">:</text>
      <text
         text-anchor="start"
         x="1498"
         y="44.299988"
         font-family="Monospace"
         font-size="14px"
         fill="#c83500"
         id="text86">string</text>
      <text
         text-anchor="start"
         x="1551.25"
         y="44.299988"
         font-family="Times, serif"
         font-style="italic"
         font-size="14px"
         id="text88">(mandatory)</text>
      <polygon
         fill="#ddeeff"
         stroke="none"
         points="1446.75,-292 1446.75,-314.5 1622.25,-314.5 1622.25,-292 "
         id="polygon88"
         transform="translate(4,366)" />
      <polygon
         fill="none"
         stroke="#8ccbf2"
         points="1446.75,-292 1446.75,-314.5 1622.25,-314.5 1622.25,-292 "
         id="polygon89"
         transform="translate(4,366)" />
      <text
         text-anchor="start"
         x="1453.75"
         y="66.799988"
         font-family="Monospace"
         font-size="14px"
         fill="#c83500"
         id="text89">authorization</text>
      <text
         text-anchor="start"
         x="1562.5"
         y="66.799988"
         font-family="Times, serif"
         font-size="14px"
         id="text90">:</text>
      <text
         text-anchor="start"
         x="1572.25"
         y="66.799988"
         font-family="Monospace"
         font-size="14px"
         fill="#c83500"
         id="text91">anyURI</text>
      <polygon
         fill="#ddeeff"
         stroke="none"
         points="1446.75,-269.5 1446.75,-292 1622.25,-292 1622.25,-269.5 "
         id="polygon91"
         transform="translate(4,366)" />
      <polygon
         fill="none"
         stroke="#8ccbf2"
         points="1446.75,-269.5 1446.75,-292 1622.25,-292 1622.25,-269.5 "
         id="polygon92"
         transform="translate(4,366)" />
      <text
         text-anchor="start"
         x="1453.75"
         y="89.299988"
         font-family="Monospace"
         font-size="14px"
         fill="#c83500"
         id="text92">token</text>
      <text
         text-anchor="start"
         x="1496.5"
         y="89.299988"
         font-family="Times, serif"
         font-size="14px"
         id="text93">:</text>
      <text
         text-anchor="start"
         x="1506.25"
         y="89.299988"
         font-family="Monospace"
         font-size="14px"
         fill="#c83500"
         id="text94">anyURI</text>
      <polygon
         fill="#ddeeff"
         stroke="none"
         points="1446.75,-247 1446.75,-269.5 1622.25,-269.5 1622.25,-247 "
         id="polygon94"
         transform="translate(4,366)" />
      <polygon
         fill="none"
         stroke="#8ccbf2"
         points="1446.75,-247 1446.75,-269.5 1622.25,-269.5 1622.25,-247 "
         id="polygon95"
         transform="translate(4,366)" />
      <text
         text-anchor="start"
         x="1453.75"
         y="111.8"
         font-family="Monospace"
         font-size="14px"
         fill="#c83500"
         id="text95">refresh</text>
      <text
         text-anchor="start"
         x="1513"
         y="111.8"
         font-family="Times, serif"
         font-size="14px"
         id="text96">:</text>
      <text
         text-anchor="start"
         x="1522.75"
         y="111.8"
         font-family="Monospace"
         font-size="14px"
         fill="#c83500"
         id="text97">anyURI</text>
      <polygon
         fill="#ddeeff"
         stroke="none"
         points="1446.75,-224.5 1446.75,-247 1622.25,-247 1622.25,-224.5 "
         id="polygon97"
         transform="translate(4,366)" />
      <polygon
         fill="none"
         stroke="#8ccbf2"
         points="1446.75,-224.5 1446.75,-247 1622.25,-247 1622.25,-224.5 "
         id="polygon98"
         transform="translate(4,366)" />
      <text
         text-anchor="start"
         x="1453.75"
         y="134.3"
         font-family="Monospace"
         font-size="14px"
         fill="#c83500"
         id="text98">scopes</text>
      <text
         text-anchor="start"
         x="1573.75"
         y="134.3"
         font-family="Monospace"
         font-size="14px"
         fill="#c83500"
         id="text100">string</text>
      <text
         text-anchor="start"
         x="1504.3427"
         y="134.19167"
         font-family="Times, serif"
         font-size="14px"
         id="text63-8">:</text>
      <text
         text-anchor="start"
         x="1511.0927"
         y="134.19167"
         font-family="Times, serif"
         font-style="italic"
         font-size="14px"
         id="text64-3"
         style="font-style:normal;font-variant:normal;font-weight:normal;font-stretch:normal;font-size:14px;font-family:Times, serif;-inkscape-font-specification:'Times, serif, Normal';font-variant-ligatures:normal;font-variant-caps:normal;font-variant-numeric:normal;font-variant-east-asian:normal;text-anchor:start"><tspan
           style="font-style:italic;font-variant:normal;font-weight:normal;font-stretch:normal;font-size:14px;font-family:Times, serif;-inkscape-font-specification:'Times, serif, Italic';font-variant-ligatures:normal;font-variant-caps:normal;font-variant-numeric:normal;font-variant-east-asian:normal"
           id="tspan1-9">(Array of)</tspan></text>
    </g>
    <g
       id="node11"
       class="node"
       transform="translate(4,387)">
      <title
         id="title107">MultiLanguage</title>
      <polygon
         fill="#f2f2f2"
         stroke="none"
         points="863.88,-28.5 977.12,-28.5 977.12,-7.5 863.88,-7.5 "
         id="polygon107" />
      <polygon
         fill="none"
         stroke="#8c8c8c"
         points="863.88,-28.5 977.12,-28.5 977.12,-7.5 863.88,-7.5 "
         id="polygon108" />
      <text
         text-anchor="start"
         x="866.88"
         y="-13.2"
         font-family="Monospace"
         font-weight="bold"
         font-size="14px"
         id="text108">MultiLanguage</text>
    </g>
    <path
       fill="none"
       stroke="#000000"
       d="m 924.5,299.96 c 0,13.47 0,27.73 0,39.69"
       id="path108" />
    <polygon
       fill="#000000"
       stroke="#000000"
       points="924,-47.35 920.5,-37.35 917,-47.35 "
       id="polygon109"
       transform="translate(4,387)" />
    <text
       text-anchor="start"
       x="926"
       y="331.29999"
       font-family="Monospace"
       font-size="14px"
       fill="#c83500"
       id="text109">descriptions</text>
    <text
       text-anchor="middle"
       x="909.23157"
       y="347.95999"
       font-family="Times, serif"
       font-size="14px"
       id="text110">0..*</text>
  </g>
  <text
     text-anchor="start"
     x="982.8642"
     y="901.84045"
     font-family="Times, serif"
     font-size="14px"
     id="text87-4" />
  <path
     fill="none"
     stroke="#000000"
     d="m 194.131,146.34698 c 14.24243,10.60994 31.82093,23.70509 47.95593,35.7249"
     id="path65-0-0" />
  <polygon
     fill="#ffffff"
     stroke="#000000"
     points="924,-194.96 920.5,-184.96 917,-194.96 "
     id="polygon65-0-8"
     transform="rotate(-53.315638,956.57504,669.34685)" />
  <path
     fill="none"
     stroke="#000000"
     d="m 503.99497,180.5181 c -14.2424,10.60993 -31.8209,23.70508 -47.9559,35.72489"
     id="path65-0-0-1" />
  <polygon
     fill="#ffffff"
     stroke="#000000"
     points="917,-194.96 924,-194.96 920.5,-184.96 "
     id="polygon65-0-8-4"
     transform="matrix(-0.59740629,-0.80193873,-0.80193873,0.59740629,849.79007,1070.7605)" />
  <path
     fill="none"
     stroke="#000000"
     d="m 508.10327,267.62596 c -17.3282,-5.66331 -38.7154,-12.65318 -58.3463,-19.06905"
     id="path65-0-0-1-7"
     style="stroke-width:1" />
  <polygon
     fill="#ffffff"
     stroke="#000000"
     points="917,-194.96 924,-194.96 920.5,-184.96 "
     id="polygon65-0-8-4-6"
     transform="rotate(108.92591,528.85347,-138.41746)" />
  <path
     fill="none"
     stroke="#000000"
     d="m 508.17067,361.96082 c -18.2114,-17.09173 -40.6887,-38.187 -61.3202,-57.54994"
     id="path65-0-0-1-7-2"
     style="stroke-width:0.999999" />
  <polygon
     fill="#ffffff"
     stroke="#000000"
     points="924,-194.96 920.5,-184.96 917,-194.96 "
     id="polygon65-0-8-4-6-5"
     transform="rotate(135.51498,583.16052,-38.362574)" />
  <path
     fill="none"
     stroke="#000000"
     d="m 507.00897,83.04881 c -15.4779,28.55253 -44.8823,77.64464 -61.7134,104.54227"
     id="path65-0-0-9"
     sodipodi:nodetypes="cc"
     style="stroke-width:0.999999" />
  <polygon
     fill="#ffffff"
     stroke="#000000"
     points="920.5,-184.96 917,-194.96 924,-194.96 "
     id="polygon65-0-8-5"
     transform="matrix(-0.85331102,-0.52140224,-0.52140224,0.85331102,1133.8793,825.68433)" />
  <path
     fill="none"
     stroke="#000000"
     d="m 193.97518,196.4865 c 16.26536,6.10174 37.94671,14.47174 55.6393,21.58473"
     id="path65-0-0-2"
     sodipodi:nodetypes="cc" />
  <polygon
     fill="#ffffff"
     stroke="#000000"
     points="924,-194.96 920.5,-184.96 917,-194.96 "
     id="polygon65-0-8-1"
     transform="rotate(-66.33851,893.77672,529.76019)" />
  <path
     fill="none"
     stroke="#000000"
     d="m 349.36586,151.33 c 0.0151,8.05994 0.0338,18.00779 0.051,27.13876"
     id="path65-0-0-97"
     style="stroke-width:1" />
  <polygon
     fill="#ffffff"
     stroke="#000000"
     points="917,-194.96 924,-194.96 920.5,-184.96 "
     id="polygon65-0-8-3"
     transform="rotate(-0.04883438,437969.53,670023.26)" />
  <path
     fill="none"
     stroke="#000000"
     d="m 192.82978,274.50749 c 14.4741,-4.85275 32.33853,-10.84219 48.73599,-16.33979"
     id="path65-0-0-6"
     style="stroke-width:0.999997" />
  <polygon
     fill="#ffffff"
     stroke="#000000"
     points="924,-194.96 920.5,-184.96 917,-194.96 "
     id="polygon65-0-8-11"
     transform="matrix(0.31627677,0.94866696,0.94866696,-0.31627677,134.0892,-676.54204)" />
  <path
     fill="none"
     stroke="#000000"
     d="m 193.32591,362.77135 c 16.67721,-17.35342 37.26083,-38.77162 56.15417,-58.43099"
     id="path65-0-0-0"
     style="stroke-width:1" />
  <polygon
     fill="#ffffff"
     stroke="#000000"
     points="924,-194.96 920.5,-184.96 917,-194.96 "
     id="polygon65-0-8-2"
     transform="matrix(0.75326363,0.65771871,0.65771871,-0.75326363,-320.87856,-442.18599)" />
</svg>
